<?xml version="1.0" encoding="UTF-8" standalone="no"?>
<!-- Created with Inkscape (http://www.inkscape.org/) -->

<svg xmlns:dc="http://purl.org/dc/elements/1.1/" xmlns:cc="http://creativecommons.org/ns#" xmlns:rdf="http://www.w3.org/1999/02/22-rdf-syntax-ns#" xmlns:svg="http://www.w3.org/2000/svg" xmlns="http://www.w3.org/2000/svg" xmlns:sodipodi="http://sodipodi.sourceforge.net/DTD/sodipodi-0.dtd" xmlns:inkscape="http://www.inkscape.org/namespaces/inkscape" width="250" height="91" viewBox="0 0 250 91" id="svg2" version="1.1" inkscape:version="0.91 r13725" sodipodi:docname="algorave.svg">
  <defs id="defs4" />
  <sodipodi:namedview id="base" pagecolor="#ffffff" bordercolor="#666666" borderopacity="1.0" inkscape:pageopacity="0.0" inkscape:pageshadow="2" inkscape:zoom="0.98995" inkscape:cx="288.8" inkscape:cy="15.597" inkscape:document-units="px" inkscape:current-layer="layer1" showgrid="false" inkscape:window-width="1280" inkscape:window-height="752" inkscape:window-x="0" inkscape:window-y="0" inkscape:window-maximized="1" units="px" showguides="false" />
  <metadata id="metadata7">
    <rdf:RDF>
      <cc:Work rdf:about="">
        <dc:format>image/svg+xml</dc:format>
        <dc:type rdf:resource="http://purl.org/dc/dcmitype/StillImage" />
        <dc:title></dc:title>
      </cc:Work>
    </rdf:RDF>
  </metadata>
  <g inkscape:label="Layer 1" inkscape:groupmode="layer" id="layer1" transform="translate(0,-961.4)">
    <rect style="opacity:0.001;fill:#d02626;fill-opacity:1;stroke:none;stroke-width:2.5;stroke-linecap:round;stroke-linejoin:round;stroke-miterlimit:4;stroke-dasharray:none;stroke-dashoffset:0;stroke-opacity:1" id="rect4298" width="250" height="91" x="0" y="961.4" />
    <circle r="0" style="opacity:1;fill:#666666;fill-opacity:1;stroke:none;stroke-width:2.5;stroke-linecap:round;stroke-linejoin:round;stroke-miterlimit:4;stroke-dasharray:none;stroke-dashoffset:0;stroke-opacity:1" id="ellipse4185" cx="71.594" cy="996.69" />
    <circle r="0" style="opacity:1;fill:#414141;fill-opacity:1;stroke:none;stroke-width:2.5;stroke-linecap:round;stroke-linejoin:round;stroke-miterlimit:4;stroke-dasharray:none;stroke-dashoffset:0;stroke-opacity:1" id="ellipse4185-5" cx="38.023" cy="1055.8" />
    <path style="fill:#ffffff;fill-opacity:1" d="m 89.689,1041.5 c 0,-0.4 0.14,-0.4 0.68,-0.4 l 0.69,0 1.7,-4.6 1.7,-4.6 -0.6,0 c -0.43,-0.1 -0.6,-0.2 -0.6,-0.5 0,-0.4 0.16,-0.4 2,-0.4 1.83,0 2,0 2,0.4 0,0.3 -0.17,0.4 -0.61,0.5 l -0.61,0 1.68,4.6 c 1.68,4.5 1.7,4.5 2.351,4.6 0.42,0 0.68,0.2 0.72,0.4 0.1,0.4 -0.13,0.4 -1.731,0.4 -1.66,0 -1.8,0 -1.8,-0.4 0,-0.4 0.14,-0.4 0.63,-0.4 0.34,0 0.63,-0.1 0.63,-0.1 0,-0.1 -0.71,-2 -1.58,-4.4 -0.87,-2.3 -1.58,-4.3 -1.58,-4.3 0,-0.4 -0.51,0.8 -1.87,4.5 -0.82,2.2 -1.49,4 -1.49,4.1 0,0.1 0.29,0.2 0.63,0.2 0.49,0 0.63,0 0.63,0.4 0,0.4 -0.14,0.4 -1.78,0.4 -1.65,0 -1.79,0 -1.79,-0.4 z m 33.281,-4.7 -1.88,-5.1 -0.68,-0.1 c -0.49,0 -0.66,-0.1 -0.66,-0.4 0,-0.4 0.16,-0.4 1.78,-0.4 1.63,0 1.79,0 1.79,0.4 0,0.3 -0.17,0.4 -0.7,0.4 l -0.69,0.1 1.59,4.4 c 0.87,2.4 1.64,4.2 1.71,4.2 0.13,-0.2 3.13,-8.4 3.13,-8.6 0,-0.1 -0.28,-0.1 -0.63,-0.1 -0.49,0 -0.63,-0.1 -0.63,-0.4 0,-0.4 0.14,-0.4 1.79,-0.4 1.65,0 1.79,0 1.79,0.4 0,0.3 -0.14,0.4 -0.7,0.4 l -0.71,0 -1.9,5.1 c -1.16,3.1 -2.02,5.1 -2.2,5.2 -0.22,0 -0.83,-1.4 -2.2,-5.1 z m 28.93,4.7 c 0,-0.4 0.15,-0.4 0.74,-0.4 l 0.74,0 0,-2.2 0,-2.3 -0.74,0 c -0.51,0 -0.74,-0.1 -0.74,-0.3 0,-0.2 0.23,-0.3 0.74,-0.3 l 0.74,0 0,-2.1 0,-2.1 -0.74,0 c -0.59,0 -0.74,-0.1 -0.74,-0.4 0,-0.4 0.15,-0.4 3.79,-0.4 l 3.78,0 0,1.3 c 0,1.3 0,1.4 -0.42,1.4 -0.36,0 -0.42,-0.1 -0.42,-0.9 l 0,-1 -2.21,0 -2.2,0 0,4.6 0,4.7 2.19,0 2.2,0 0.1,-0.9 c 0,-0.7 0.16,-0.9 0.43,-1 0.32,-0.1 0.37,0.1 0.37,1.3 l 0,1.4 -3.78,0 c -3.64,0 -3.79,0 -3.79,-0.4 z m -36.18,-28.6 c 0.56,-1 2.8,-4.9 4.97,-8.6 2.17,-3.8 4.04,-7.02 4.15,-7.12 0.15,-0.15 1.64,2.2 5.3,8.52 l 5.08,8.8 -9.45,0 c -5.2,0.1 -9.49,0 -9.54,0 -0.1,-0.1 8.61,-15.32 8.77,-15.32 0.12,0 8.2,14.02 8.2,14.22 0,0.1 -3.42,0.1 -7.59,0.1 -4.17,0 -7.55,-0.1 -7.51,-0.1 0.2,-0.5 6.81,-11.9 6.9,-11.9 0.1,0 1.48,2.4 3.16,5.4 l 3.06,5.3 -5.45,0 c -3,0 -5.49,0 -5.54,0 -0.1,-0.1 4.61,-8.3 4.77,-8.3 0.11,0 4.2,7 4.2,7.2 0,0 -1.61,0.1 -3.59,0.1 -1.97,0 -3.56,-0.1 -3.52,-0.2 0.22,-0.5 2.83,-4.8 2.93,-4.8 0.1,0 2.02,3.2 2.26,3.8 0,0.1 -0.65,0.2 -1.53,0.2 -1.71,0 -1.87,-0.2 -1.26,-1 0.35,-0.5 0.83,-0.5 0.64,0 -0.1,0.2 0.1,0.3 0.51,0.3 0.34,0 0.62,0 0.62,-0.1 0,-0.2 -1.15,-2.2 -1.26,-2.2 -0.1,0 -1.7,2.8 -1.85,3.2 0,0.1 1.07,0.2 2.56,0.2 l 2.63,0 -1.62,-2.8 c -1.21,-2.2 -1.67,-2.8 -1.85,-2.6 -0.13,0.1 -1.06,1.6 -2.05,3.4 l -1.82,3.1 4.55,0.1 c 2.51,0 4.6,0 4.65,0 0.13,-0.2 -4.99,-9 -5.19,-9 -0.2,0 -5.96,9.9 -5.84,10 0,0.1 3.02,0.1 6.6,0 l 6.5,0 -3.53,-6.1 c -1.94,-3.4 -3.62,-6.1 -3.74,-6.1 -0.12,0 -1.96,3 -4.1,6.7 l -3.89,6.8 8.55,0 c 4.7,0 8.59,0 8.63,0 0.12,-0.2 -9.01,-15.92 -9.18,-15.92 -0.1,0 -2.26,3.62 -4.86,8.12 -3.01,5.2 -4.85,8.2 -5.09,8.2 -0.28,0.1 -0.13,-0.3 0.66,-1.6 z m -22.661,-0.8 c -0.4,-0.1 -0.9,-0.4 -1.11,-0.6 -0.35,-0.3 -0.41,-0.3 -0.9,0.1 -0.47,0.5 -0.56,0.5 -0.84,0.2 -0.28,-0.3 -0.26,-0.4 0.19,-0.8 l 0.5,-0.5 -0.52,-0.9 c -1.57,-2.8 -0.26,-6.6 2.72,-7.9 1.45,-0.6 3.27,-0.5 4.7,0.3 l 1,0.6 0.49,-0.5 c 0.44,-0.4 0.53,-0.4 0.811,-0.1 0.28,0.3 0.26,0.3 -0.191,0.8 l -0.51,0.5 0.51,0.9 c 0.711,1.4 0.841,2.9 0.401,4.4 -0.28,1 -0.581,1.5 -1.441,2.3 -0.67,0.6 -1.42,1.2 -1.95,1.3 -1.17,0.4 -2.97,0.3 -3.86,-0.1 z m 3.24,-0.5 c 1.78,-0.5 3.17,-2.1 3.41,-4.1 0.12,-1.1 -0.16,-2.5 -0.65,-3.1 -0.3,-0.4 -0.47,-0.3 -3.58,2.8 -1.8,1.8 -3.27,3.3 -3.27,3.4 0,0.3 1.01,0.9 1.74,1 0.99,0.3 1.34,0.3 2.35,0 z m 1.8,-8.4 c 0,-0.1 -0.38,-0.4 -0.83,-0.6 -1.12,-0.6 -3.1,-0.6 -4.2,0 -2.24,1.1 -3.17,4.2 -2.02,6.6 l 0.39,0.8 3.33,-3.3 c 1.83,-1.9 3.33,-3.5 3.33,-3.5 z m 53.101,9.1 c -0.37,-0.4 -0.1,-0.7 0.6,-0.7 l 0.74,0 0,-4.7 0,-4.7 -0.74,0 c -0.51,0 -0.74,-0.1 -0.74,-0.3 0,-0.3 0.43,-0.4 2.62,-0.4 1.43,0 2.88,0.1 3.2,0.3 1.49,0.5 2.35,2.1 1.95,3.5 -0.21,0.8 -1.44,2.1 -1.99,2.1 -0.5,0 -0.38,0.3 0.9,2.3 1.11,1.8 1.26,1.9 1.89,1.9 0.54,0 0.68,0.1 0.68,0.5 0,0.4 -0.14,0.4 -4.48,0.4 -2.47,0 -4.55,-0.1 -4.63,-0.2 z m 6.59,-0.8 c 0,-0.1 -0.57,-1.1 -1.26,-2.2 -0.69,-1.1 -1.26,-2.1 -1.26,-2.1 0,-0.1 0.42,-0.3 0.93,-0.4 1.2,-0.3 1.8,-1 1.8,-2.2 0,-1.6 -1.18,-2.4 -3.55,-2.4 l -1.07,0 0,4.7 0,4.7 2.2,0 c 1.22,0 2.21,0 2.21,-0.1 z m -4.59,-28.67 c -1.02,-0.4 -2.28,-1.5 -2.82,-2.6 -0.67,-1.2 -0.67,-3.8 0,-5.2 0.91,-1.8 2.41,-2.9 4.47,-3 1.44,-0.2 3.06,0.3 3.78,1.1 l 0.49,0.5 -0.47,0 c -0.25,0 -0.83,-0.2 -1.29,-0.4 -1.53,-0.8 -3.99,-0.5 -5.22,0.7 -0.98,0.9 -1.39,2 -1.39,3.7 0,1.2 0.1,1.8 0.47,2.4 1.22,2.4 4.28,3 6.7,1.6 0.54,-0.4 0.7,-0.6 0.7,-1.1 0,-0.6 0,-0.6 -0.89,-0.6 -1.92,0.1 -2.47,0 -2.47,-0.3 0,-0.4 0.22,-0.4 2.15,-0.3 0.96,0 1.21,-0.1 1.21,-0.3 0,-0.3 -0.33,-0.4 -1.62,-0.4 -1.36,-0.1 -1.64,-0.1 -1.7,-0.4 -0.1,-0.4 0.14,-0.4 2.05,-0.4 l 2.11,0 0,2.6 c 0,2.3 0,2.6 -0.33,2.6 -0.19,0 -0.39,-0.1 -0.45,-0.4 -0.13,-0.5 0,-0.5 -1.14,0 -1.05,0.5 -3.22,0.6 -4.35,0.2 z m -63.511,-0.4 c 0,-0.3 0.14,-0.4 0.68,-0.4 l 0.69,0 1.7,-4.6 1.7,-4.5 -0.6,-0.1 c -0.43,-0.1 -0.6,-0.2 -0.6,-0.5 0,-0.4 0.16,-0.4 2,-0.4 1.83,0 2,0 2,0.4 0,0.3 -0.17,0.4 -0.61,0.5 l -0.61,0.1 1.71,4.5 1.71,4.6 0.681,0 c 0.55,0 0.69,0.1 0.69,0.4 0,0.4 -0.14,0.4 -1.791,0.4 -1.64,0 -1.78,0 -1.78,-0.4 0,-0.3 0.14,-0.4 0.63,-0.4 0.34,0 0.63,0 0.63,-0.1 0,0 -0.73,-2 -1.61,-4.4 -1.01,-2.7 -1.67,-4.3 -1.77,-4.1 -0.23,0.4 -3.14,8.2 -3.14,8.4 0,0.1 0.29,0.2 0.63,0.2 0.49,0 0.63,0.1 0.63,0.4 0,0.4 -0.14,0.4 -1.78,0.4 -1.65,0 -1.79,0 -1.79,-0.4 z m 31.321,0 c 0,-0.3 0.13,-0.4 0.73,-0.4 l 0.74,0 0,-5.1 0,-5 1.27,0 c 1.11,0 1.27,0.1 1.21,0.4 -0.1,0.2 -0.3,0.4 -0.85,0.4 l -0.79,0.1 0,4.6 0,4.6 2.1,0 2.1,0 0,-1 c 0,-0.8 0.1,-0.9 0.43,-0.9 0.4,0 0.43,0.1 0.37,1.3 l -0.1,1.3 -3.63,0.1 c -3.52,0 -3.62,0 -3.62,-0.4 z" id="path5431" inkscape:connector-curvature="0" />
  </g>
</svg>
