<?xml version="1.0" encoding="UTF-8"?>
<svg version="1.1" viewBox="0 0 250 91" xmlns="http://www.w3.org/2000/svg" xmlns:cc="http://creativecommons.org/ns#" xmlns:dc="http://purl.org/dc/elements/1.1/" xmlns:rdf="http://www.w3.org/1999/02/22-rdf-syntax-ns#">
<metadata>
<rdf:RDF>
<cc:Work rdf:about="">
<dc:format>image/svg+xml</dc:format>
<dc:type rdf:resource="http://purl.org/dc/dcmitype/StillImage"/>
<dc:title/>
</cc:Work>
</rdf:RDF>
</metadata>
<g transform="translate(0,-961.4)">
<path d="m89.689 1041.5c0-0.4 0.14-0.4 0.68-0.4h0.69l3.4-9.2h-0.6c-0.43-0.1-0.6-0.2-0.6-0.5 0-0.4 0.16-0.4 2-0.4 1.83 0 2 0 2 0.4 0 0.3-0.17 0.4-0.61 0.5h-0.61l1.68 4.6c1.68 4.5 1.7 4.5 2.351 4.6 0.42 0 0.68 0.2 0.72 0.4 0.1 0.4-0.13 0.4-1.731 0.4-1.66 0-1.8 0-1.8-0.4s0.14-0.4 0.63-0.4c0.34 0 0.63-0.1 0.63-0.1 0-0.1-0.71-2-1.58-4.4-0.87-2.3-1.58-4.3-1.58-4.3 0-0.4-0.51 0.8-1.87 4.5-0.82 2.2-1.49 4-1.49 4.1s0.29 0.2 0.63 0.2c0.49 0 0.63 0 0.63 0.4s-0.14 0.4-1.78 0.4c-1.65 0-1.79 0-1.79-0.4zm33.281-4.7-1.88-5.1-0.68-0.1c-0.49 0-0.66-0.1-0.66-0.4 0-0.4 0.16-0.4 1.78-0.4 1.63 0 1.79 0 1.79 0.4 0 0.3-0.17 0.4-0.7 0.4l-0.69 0.1 1.59 4.4c0.87 2.4 1.64 4.2 1.71 4.2 0.13-0.2 3.13-8.4 3.13-8.6 0-0.1-0.28-0.1-0.63-0.1-0.49 0-0.63-0.1-0.63-0.4 0-0.4 0.14-0.4 1.79-0.4s1.79 0 1.79 0.4c0 0.3-0.14 0.4-0.7 0.4h-0.71l-1.9 5.1c-1.16 3.1-2.02 5.1-2.2 5.2-0.22 0-0.83-1.4-2.2-5.1zm28.93 4.7c0-0.4 0.15-0.4 0.74-0.4h0.74v-2.2-2.3h-0.74c-0.51 0-0.74-0.1-0.74-0.3s0.23-0.3 0.74-0.3h0.74v-2.1-2.1h-0.74c-0.59 0-0.74-0.1-0.74-0.4 0-0.4 0.15-0.4 3.79-0.4h3.78v1.3c0 1.3 0 1.4-0.42 1.4-0.36 0-0.42-0.1-0.42-0.9v-1h-2.21-2.2v4.6 4.7h2.19 2.2l0.1-0.9c0-0.7 0.16-0.9 0.43-1 0.32-0.1 0.37 0.1 0.37 1.3v1.4h-3.78c-3.64 0-3.79 0-3.79-0.4zm-36.18-28.6c0.56-1 2.8-4.9 4.97-8.6 2.17-3.8 4.04-7.02 4.15-7.12 0.15-0.15 1.64 2.2 5.3 8.52l5.08 8.8h-9.45c-5.2 0.1-9.49 0-9.54 0-0.1-0.1 8.61-15.32 8.77-15.32 0.12 0 8.2 14.02 8.2 14.22 0 0.1-3.42 0.1-7.59 0.1s-7.55-0.1-7.51-0.1c0.2-0.5 6.81-11.9 6.9-11.9 0.1 0 1.48 2.4 3.16 5.4l3.06 5.3h-5.45-5.54c-0.1-0.1 4.61-8.3 4.77-8.3 0.11 0 4.2 7 4.2 7.2 0 0-1.61 0.1-3.59 0.1-1.97 0-3.56-0.1-3.52-0.2 0.22-0.5 2.83-4.8 2.93-4.8s2.02 3.2 2.26 3.8c0 0.1-0.65 0.2-1.53 0.2-1.71 0-1.87-0.2-1.26-1 0.35-0.5 0.83-0.5 0.64 0-0.1 0.2 0.1 0.3 0.51 0.3 0.34 0 0.62 0 0.62-0.1 0-0.2-1.15-2.2-1.26-2.2-0.1 0-1.7 2.8-1.85 3.2 0 0.1 1.07 0.2 2.56 0.2h2.63l-1.62-2.8c-1.21-2.2-1.67-2.8-1.85-2.6-0.13 0.1-1.06 1.6-2.05 3.4l-1.82 3.1 4.55 0.1h4.65c0.13-0.2-4.99-9-5.19-9s-5.96 9.9-5.84 10c0 0.1 3.02 0.1 6.6 0h6.5l-3.53-6.1c-1.94-3.4-3.62-6.1-3.74-6.1s-1.96 3-4.1 6.7l-3.89 6.8h8.55 8.63c0.12-0.2-9.01-15.92-9.18-15.92-0.1 0-2.26 3.62-4.86 8.12-3.01 5.2-4.85 8.2-5.09 8.2-0.28 0.1-0.13-0.3 0.66-1.6zm-22.661-0.8c-0.4-0.1-0.9-0.4-1.11-0.6-0.35-0.3-0.41-0.3-0.9 0.1-0.47 0.5-0.56 0.5-0.84 0.2s-0.26-0.4 0.19-0.8l0.5-0.5-0.52-0.9c-1.57-2.8-0.26-6.6 2.72-7.9 1.45-0.6 3.27-0.5 4.7 0.3l1 0.6 0.49-0.5c0.44-0.4 0.53-0.4 0.811-0.1 0.28 0.3 0.26 0.3-0.191 0.8l-0.51 0.5 0.51 0.9c0.711 1.4 0.841 2.9 0.401 4.4-0.28 1-0.581 1.5-1.441 2.3-0.67 0.6-1.42 1.2-1.95 1.3-1.17 0.4-2.97 0.3-3.86-0.1zm3.24-0.5c1.78-0.5 3.17-2.1 3.41-4.1 0.12-1.1-0.16-2.5-0.65-3.1-0.3-0.4-0.47-0.3-3.58 2.8-1.8 1.8-3.27 3.3-3.27 3.4 0 0.3 1.01 0.9 1.74 1 0.99 0.3 1.34 0.3 2.35 0zm1.8-8.4c0-0.1-0.38-0.4-0.83-0.6-1.12-0.6-3.1-0.6-4.2 0-2.24 1.1-3.17 4.2-2.02 6.6l0.39 0.8 3.33-3.3c1.83-1.9 3.33-3.5 3.33-3.5zm53.101 9.1c-0.37-0.4-0.1-0.7 0.6-0.7h0.74v-4.7-4.7h-0.74c-0.51 0-0.74-0.1-0.74-0.3 0-0.3 0.43-0.4 2.62-0.4 1.43 0 2.88 0.1 3.2 0.3 1.49 0.5 2.35 2.1 1.95 3.5-0.21 0.8-1.44 2.1-1.99 2.1-0.5 0-0.38 0.3 0.9 2.3 1.11 1.8 1.26 1.9 1.89 1.9 0.54 0 0.68 0.1 0.68 0.5s-0.14 0.4-4.48 0.4c-2.47 0-4.55-0.1-4.63-0.2zm6.59-0.8c0-0.1-0.57-1.1-1.26-2.2s-1.26-2.1-1.26-2.1c0-0.1 0.42-0.3 0.93-0.4 1.2-0.3 1.8-1 1.8-2.2 0-1.6-1.18-2.4-3.55-2.4h-1.07v4.7 4.7h2.2c1.22 0 2.21 0 2.21-0.1zm-4.59-28.67c-1.02-0.4-2.28-1.5-2.82-2.6-0.67-1.2-0.67-3.8 0-5.2 0.91-1.8 2.41-2.9 4.47-3 1.44-0.2 3.06 0.3 3.78 1.1l0.49 0.5h-0.47c-0.25 0-0.83-0.2-1.29-0.4-1.53-0.8-3.99-0.5-5.22 0.7-0.98 0.9-1.39 2-1.39 3.7 0 1.2 0.1 1.8 0.47 2.4 1.22 2.4 4.28 3 6.7 1.6 0.54-0.4 0.7-0.6 0.7-1.1 0-0.6 0-0.6-0.89-0.6-1.92 0.1-2.47 0-2.47-0.3 0-0.4 0.22-0.4 2.15-0.3 0.96 0 1.21-0.1 1.21-0.3 0-0.3-0.33-0.4-1.62-0.4-1.36-0.1-1.64-0.1-1.7-0.4-0.1-0.4 0.14-0.4 2.05-0.4h2.11v2.6c0 2.3 0 2.6-0.33 2.6-0.19 0-0.39-0.1-0.45-0.4-0.13-0.5 0-0.5-1.14 0-1.05 0.5-3.22 0.6-4.35 0.2zm-63.511-0.4c0-0.3 0.14-0.4 0.68-0.4h0.69l1.7-4.6 1.7-4.5-0.6-0.1c-0.43-0.1-0.6-0.2-0.6-0.5 0-0.4 0.16-0.4 2-0.4 1.83 0 2 0 2 0.4 0 0.3-0.17 0.4-0.61 0.5l-0.61 0.1 1.71 4.5 1.71 4.6h0.681c0.55 0 0.69 0.1 0.69 0.4 0 0.4-0.14 0.4-1.791 0.4-1.64 0-1.78 0-1.78-0.4 0-0.3 0.14-0.4 0.63-0.4 0.34 0 0.63 0 0.63-0.1 0 0-0.73-2-1.61-4.4-1.01-2.7-1.67-4.3-1.77-4.1-0.23 0.4-3.14 8.2-3.14 8.4 0 0.1 0.29 0.2 0.63 0.2 0.49 0 0.63 0.1 0.63 0.4 0 0.4-0.14 0.4-1.78 0.4-1.65 0-1.79 0-1.79-0.4zm31.321 0c0-0.3 0.13-0.4 0.73-0.4h0.74v-5.1-5h1.27c1.11 0 1.27 0.1 1.21 0.4-0.1 0.2-0.3 0.4-0.85 0.4l-0.79 0.1v4.6 4.6h2.1 2.1v-1c0-0.8 0.1-0.9 0.43-0.9 0.4 0 0.43 0.1 0.37 1.3l-0.1 1.3-3.63 0.1c-3.52 0-3.62 0-3.62-0.4z" fill="#fff"/>
</g>
</svg>
