<?xml version="1.0" encoding="UTF-8" standalone="no"?>
<!-- Created with Inkscape (http://www.inkscape.org/) -->

<svg xmlns:dc="http://purl.org/dc/elements/1.1/" xmlns:cc="http://creativecommons.org/ns#" xmlns:rdf="http://www.w3.org/1999/02/22-rdf-syntax-ns#" xmlns:svg="http://www.w3.org/2000/svg" xmlns="http://www.w3.org/2000/svg" xmlns:sodipodi="http://sodipodi.sourceforge.net/DTD/sodipodi-0.dtd" xmlns:inkscape="http://www.inkscape.org/namespaces/inkscape" width="250" height="91" viewBox="0 0 250 91" id="svg2" version="1.1" inkscape:version="0.91 r13725" sodipodi:docname="aql.svg">
  <defs id="defs4" />
  <sodipodi:namedview id="base" pagecolor="#ffffff" bordercolor="#666666" borderopacity="1.0" inkscape:pageopacity="0.0" inkscape:pageshadow="2" inkscape:zoom="2.8" inkscape:cx="123.85" inkscape:cy="28.341" inkscape:document-units="px" inkscape:current-layer="layer1" showgrid="true" inkscape:window-width="1280" inkscape:window-height="751" inkscape:window-x="0" inkscape:window-y="1" inkscape:window-maximized="1" units="px">
    <inkscape:grid type="xygrid" id="grid5735" />
  </sodipodi:namedview>
  <metadata id="metadata7">
    <rdf:RDF>
      <cc:Work rdf:about="">
        <dc:format>image/svg+xml</dc:format>
        <dc:type rdf:resource="http://purl.org/dc/dcmitype/StillImage" />
        <dc:title></dc:title>
      </cc:Work>
    </rdf:RDF>
  </metadata>
  <g inkscape:label="Layer 1" inkscape:groupmode="layer" id="layer1" transform="translate(0,-961.4)">
    <rect style="opacity:0.001;fill:#ffffff;fill-opacity:1;stroke:none;stroke-width:2.5;stroke-linecap:round;stroke-linejoin:round;stroke-miterlimit:4;stroke-dasharray:none;stroke-dashoffset:0;stroke-opacity:1" id="rect4175" width="250" height="91" x="0" y="961.4" />
    <path style="fill:#ffffff;fill-opacity:1" d="" id="path4239" inkscape:connector-curvature="0" />
    <g id="layer1-3" inkscape:label="Layer 1" transform="matrix(0.10888,0,0,0.10888,129.14,951.09)" style="fill:#ffffff">
      <path sodipodi:nodetypes="cccscccccccccccscccsscccccccccccccccccccccsccccccscccccsscccccccccccccccccccccccccccccccccccccccccccccccccccscscssscccsscc" inkscape:connector-curvature="0" id="path4147" d="m 73.464,831.29 c 0.26,-1.5 3.41,-24.6 7,-51.3 7.88,-58.65 11.88,-87.94 14.5,-106.31 1.08,-7.61 1.97,-14.3 1.97,-14.87 0,-0.58 -4.41,3.19 -9.8,8.36 -21.25,20.4 -40.33,31.94 -61.78,37.39 -29.9397,7.59 -64.66,4.54 -92.16,-8.08 -27.46,-12.62 -51.694,-38.07 -68.624,-72.07 -9.89,-19.87 -15.64,-38.41 -19.19,-61.9 -2.28,-15.04 -2.28,-47.07 0,-62 6.22,-40.94 23.49,-79.51 49.61,-110.81 27.144,-32.51 67.414,-55.98 108.4643,-63.23 12.0297,-2.12 38.8297,-2.45 48.4997,-0.6 25.46,4.88 47.36,16.37 64.236,33.72 7.04,7.24 14.28,16.34 16.05,20.17 0.57,1.24 1.34,2.25 1.73,2.25 0.38,0 1.67,-7.31 2.87,-16.25 1.19,-8.94 2.7,-19.96 3.34,-24.5 l 1.17,-8.25 44.8,0 c 24.64,0 44.8,0.3 44.8,0.67 0,0.37 -2.04,15.33 -4.53,33.25 -6.06,43.57 -7.38,53.18 -37.47,272.58 -14.34,104.5 -26.29,190.98 -26.55,192.28 l -0.49,2.2 -44.45,0 -44.456,0 0.48,-2.7 z m -41.85,-203.35 c 32.22,-4.41 57.7,-24.57 75.096,-59.43 16.72,-33.51 20.88,-74.71 10.63,-105.4 -9.45,-28.31 -31.586,-48.74 -59.216,-54.66 -9.23,-1.98 -29.94,-1.92 -39.8,0.11 -30.3,6.24 -58.08,29.38 -72.9,60.72 -8.86,18.73 -12.7,37.59 -12.78,62.73 -0.1,18.12 1.47,28.75 5.93,41.31 10.4,29.27 34.08,49.75 63.1903,54.67 7,1.18 21.0297,1.16 29.8497,-0.1 z m -450.184,80.03 c -47.44,-4.83 -82.35,-26.74 -110.22,-69.18 -35.76,-54.44 -40.98,-126.68 -13.74,-190.28 28.02,-65.42 85.1,-111.01 152.96,-122.18 12.57,-2.07 40.19,-2.32 50,-0.45 35.65,6.8 64.62,24.93 82.8,51.85 2.31,3.42 4.44,6.23 4.73,6.25 0.29,0 2.02,-11.1 3.84,-24.71 1.82,-13.6 3.52,-25.08 3.78,-25.5 0.64,-1.04 89.35,-0.97 89.35,0.1 0,0.45 -0.69,5.74 -1.54,11.75 -2.19,15.56 -14.55,104.82 -20.95,151.42 -2.99,21.73 -7.72,55.93 -10.5,76 -7.81,56.23 -16.04,115.98 -16.7,121.25 l -0.59,4.75 -44.36,0 c -43.75,0 -44.36,0 -44.36,-2.01 0,-2.25 3.73,-29.92 4.63,-34.37 0.54,-2.64 -0.16,-2.23 -8.53,4.96 -26.2,22.52 -49.19,34.25 -76.1,38.83 -11.88,2.03 -32.68,2.75 -44.5,1.55 z m 67.57,-82.29 c 25.07,-6.45 43.36,-18.69 58.35,-39.06 22.94,-31.15 32.97,-69.8 27.05,-104.23 -6.74,-39.27 -32.2,-66.39 -69.4,-73.93 -12.55,-2.54 -38.17,-1.59 -50.58,1.87 -39.65,11.06 -71.13,44.52 -81,86.07 -15.85,66.79 12.08,120.42 68.27,131.1 11.81,2.25 34.95,1.35 47.31,-1.82 z m 583.4,70.08 c 0.3,-1.79 7.51,-54.33 16,-116.75 8.5,-62.43 17.03,-124.98 18.95,-139 1.93,-14.02 4.63,-33.82 6,-44 4.33,-31.96 17.28,-126.94 22.54,-165.24 2.77,-20.21 5.04,-36.49 5.04,-36.49 l 89,0 c 0,0 -0.5,4.4 -1.1,8.25 -0.5,3.85 -2.3,16.79 -3.9,28.75 -4.9,35.47 -8.1,59 -26,190.25 -9.33,68.75 -18.13,133.32 -19.52,143.5 -1.38,10.18 -2.95,21.43 -3.48,25 -0.97,6.53 -2.54,18.01 -10.01,73.5 -2.22,16.5 -4.29,31.24 -4.59,32.75 l -0.56,2.75 -44.46,0 -44.47,0 z m 221.03,-463.41 c -16.6,-8.76 -16.7,-31 -0.1,-39.54 3.1,-1.59 5.3,-1.93 10.7,-1.62 8.3,0.47 14,3.94 17.6,10.82 2.1,3.81 2.4,5.61 2.1,11.69 -0.3,6.04 -0.8,7.85 -3.3,11.42 -4.2,5.92 -10.2,8.9 -17.9,8.85 -3.6,0 -7.4,-0.7 -9.1,-1.62 z m 17.6,-4.61 c 9.6,-6.52 11.4,-18.57 3.9,-27.12 -3.9,-4.42 -7.9,-5.97 -13.9,-5.4 -9,0.87 -15,8.01 -15.1,17.84 0,5.72 4.2,12.83 9.1,15.23 5,2.45 11.9,2.21 16,-0.55 z m -17.1,-14.69 0,-11.95 3.6,-0.67 c 4.7,-0.88 10.2,0.1 12.5,2.19 2.6,2.31 2.4,6.9 -0.2,8.77 -2,1.38 -2,1.62 -0.5,3.13 0.9,0.9 1.6,2.61 1.6,3.81 0,1.2 0.3,3.19 0.6,4.43 0.5,1.91 0.2,2.25 -1.9,2.25 -2.2,0 -2.7,-0.56 -3.3,-3.75 -0.8,-4.76 -2,-6.25 -5,-6.25 -2.2,0 -2.4,0.4 -2.4,5 0,4.67 -0.2,5 -2.5,5 l -2.5,0 z m 12.3,-4.23 c 1.5,-2.32 -0.8,-4.81 -4.4,-4.81 -2.7,0 -2.9,0.27 -2.9,3.87 0,3.82 0,3.87 3.2,3.23 1.7,-0.35 3.6,-1.38 4.1,-2.29 z" style="fill:#ffffff" />
    </g>
  </g>
</svg>
