<?xml version="1.0" encoding="UTF-8"?>
<svg version="1.1" viewBox="0 0 250 91" xmlns="http://www.w3.org/2000/svg" xmlns:cc="http://creativecommons.org/ns#" xmlns:dc="http://purl.org/dc/elements/1.1/" xmlns:rdf="http://www.w3.org/1999/02/22-rdf-syntax-ns#">
<metadata>
<rdf:RDF>
<cc:Work rdf:about="">
<dc:format>image/svg+xml</dc:format>
<dc:type rdf:resource="http://purl.org/dc/dcmitype/StillImage"/>
<dc:title/>
</cc:Work>
</rdf:RDF>
</metadata>
<g transform="translate(0,-961.4)" fill="#fff">
<g transform="matrix(.60585 0 0 .60585 59.563 704.32)">
<path d="m159.37 552.99c-5.67-0.55-10.85-2.39-15.49-5.5-8.51-5.7-13.31-12.86-15.18-22.58-0.41-2.13-0.41-2.19-0.5-33.38l-0.11-31.25-0.41-0.87c-0.54-1.15-1.88-2.59-3.22-3.4-0.94-0.57-1.46-0.72-3.99-1.15-2.72-0.46-2.92-0.53-2.98-0.91v-0.42l16.69 0.1c14.26 0 16.7 0.1 16.7 0.31 0 0.18-0.52 0.35-1.85 0.57-2.22 0.37-3.51 0.77-4.95 1.53-1.43 0.74-2.94 2.4-3.44 3.75l-0.39 1.04 0.1 32.2c0.1 31.93 0.1 32.22 0.45 33.96 1.29 5.82 4.08 10.37 8.45 13.76 3.49 2.71 6.51 4.17 10.28 5.01 2.18 0.48 7.12 0.58 9.47 0.19 4.88-0.82 9.24-3.08 13.18-6.8 3.98-3.76 6.21-7.99 6.95-13.08 0.3-2.07 0.46-62.51 0.19-64.32-0.24-1.6-0.71-2.54-1.7-3.65-1.54-1.65-3.39-2.51-7.07-3.24-1.99-0.41-2.16-0.47-2.16-0.86v-0.42l15.38 0.1c15.05 0 15.41 0 15.41 0.4 0 0.3-0.26 0.4-1.74 0.69-4.46 0.85-7.31 2.41-8.49 4.66l-0.5 0.95-0.1 31.71-0.11 31.71-0.41 1.85c-2.42 10.59-9.89 19.88-19.73 24.52-5.34 2.51-12 3.56-18.64 2.92zm-47.94-2.11c-5.45-0.95-10.04-3.72-16.424-9.89-4.27-4.14-6.35-6.62-15.19-18.12-7.93-10.33-9.09-11.76-10.46-12.92-2.41-2.04-4.9-3.41-7.4-4.06-0.85-0.22-1.38-0.46-1.42-0.63 0-0.23 0.44-0.29 3.05-0.38 1.71-0.1 3.65-0.24 4.32-0.39 3.48-0.79 6.5-2.39 8.98-4.78 4.14-3.97 5.88-8.48 5.88-15.21 0-5.76-1.36-10.15-4.4-14.19-2.31-3.08-6.49-6.48-9.81-8-4.89-2.22-12.28-2.76-16.24-1.17l-0.51 0.2 0.1 40.8v40.79l0.45 0.93c0.55 1.12 2.7 3.29 4.1 4.11 1.31 0.78 2.74 1.28 4.34 1.52 2.49 0.37 2.48 0.37 2.48 0.76 0 0.35-0.26 0.36-17.01 0.36-16.76 0-17.01 0-17.01-0.36 0-0.28 0.16-0.39 0.69-0.48 4.15-0.69 7.12-2.27 8.75-4.64 1.13-1.64 1.09-0.1 1.09-43.24 0-24.66-0.1-39.67-0.18-40.46-0.51-3.5-3.3-5.79-8.05-6.61-1.19-0.2-2.48-0.36-2.88-0.36-0.6 0-0.72-0.1-0.72-0.38v-0.38l20.67 0.1c19 0 20.77 0.1 22.05 0.38 5.68 1.35 10.23 3.89 14.44 8.06 4.1 4.07 6.17 7.86 7.41 13.59 0.55 2.53 0.6 8.56 0.1 11.11-1.45 7.27-5.09 12.5-11.95 17.15l-1.98 1.34 2.48 3.05c7.27 8.94 14.12 17.18 22.904 27.56 5.86 6.94 6.95 7.99 10.02 9.65 1.68 0.91 4.33 1.84 6.23 2.17 0.61 0.11 2.05 0.25 3.18 0.31 1.81 0.1 2.09 0.16 2.09 0.44 0 0.42-2.12 1.37-4.44 1.98-1.49 0.4-2.23 0.48-4.99 0.53-2.2 0-3.71 0-4.73-0.21zm-184.98-0.63c0-0.38 0.24-0.46 2.13-0.67 1.51-0.17 3.93-0.89 5.3-1.58 1.46-0.74 3.09-2.3 3.81-3.64 0.32-0.58 4.11-11.62 8.45-24.54 22.08-65.71 24.95-74.24 25.06-74.24 0.1 0 9.15 22.03 20.23 48.96 11.07 26.92 20.38 49.42 20.68 50 1.32 2.56 4.67 4.6 8.27 5.04 1.73 0.21 1.99 0.29 2.09 0.67 0.1 0.35-0.15 0.36-15.97 0.36-15.62 0-16.07 0-16.07-0.35 0-0.29 0.19-0.37 1.24-0.48 2.73-0.28 4.41-0.99 5.87-2.49 0.92-0.93 0.92-0.96 0.99-2.29l0.1-1.36-2.39-5.9c-1.32-3.25-4.09-10-6.16-15.01l-3.7705-9.1h-14.51-14.53l-4.81 14.28c-4.29 12.78-4.81 14.4-4.77 15.4 0 2.89 2.24 5.1 5.95 6 0.78 0.19 1.96 0.4 2.65 0.47 1.07 0.1 1.25 0.17 1.25 0.47 0 0.35-0.33 0.36-15.53 0.36s-15.53 0-15.53-0.36zm56.89-43.51c-0.13-0.33-3.06-7.65-6.51-16.27-3.51-8.78-6.32-15.58-6.39-15.44-0.1 0.12-2.55 7.34-5.53 16.04-2.98 8.69-5.45 15.91-5.49 16.04-0.1 0.18 2.4 0.23 12.04 0.23h12.13l-0.25-0.6zm240.99 43.5c0-0.25 0.17-0.4 0.5-0.47 1.94-0.39 3.66-0.92 4.83-1.49 1.49-0.73 3.34-2.33 4.01-3.48 0.94-1.63 0.92-0.36 0.92-44.12v-40.77l-0.5-0.93c-1.29-2.47-4.3-4.04-8.52-4.43-1.22-0.12-1.42-0.19-1.42-0.49 0-0.33 0.33-0.34 9.92-0.34 15.33 0 26.56 0.37 31.7 1.02 8.95 1.13 17.66 7.24 21.32 14.96 1.62 3.43 2.31 6.42 2.46 10.74 0.2 6.11-1.08 11.08-4 15.55-3.81 5.83-9.96 10.09-16.57 11.46-2.07 0.43-6.91 0.48-8.87 0.1-3.24-0.63-6.93-2.17-6.93-2.89 0-0.24 0.46-0.28 3.21-0.28 5.77 0 7.99-0.4 11.12-2 4.23-2.18 8.13-6.24 9.81-10.23 1.26-2.98 1.82-7.35 1.39-11-0.63-5.44-2.77-9.9-6.56-13.68-3.15-3.13-6.22-5.14-9.54-6.25-2.98-0.99-5.09-1.27-8.6-1.15-2.89 0.1-3.39 0.16-5.79 0.79l-1.15 0.31v40.61c0 44.96-0.1 41.83 1.21 43.76 1.38 2.12 3.75 3.35 8.08 4.23 0.35 0.1 0.51 0.22 0.51 0.47 0 0.36-0.16 0.37-16.27 0.37-16.1 0-16.27 0-16.27-0.37z"/>
</g>
</g>
</svg>
