<?xml version="1.0" encoding="UTF-8"?>
<svg version="1.1" viewBox="0 0 250 91" xml:space="preserve" xmlns="http://www.w3.org/2000/svg" xmlns:cc="http://creativecommons.org/ns#" xmlns:dc="http://purl.org/dc/elements/1.1/"><g transform="matrix(.83969 0 0 .83969 14.857 11.29)" fill="#fff"><path d="m170.74 75.482c-14.898 0-21.354-6.731-23.874-10.741-2.883-4.6426-3.256-10.928-3.256-15.889v-32.449c0-0.3137 5e-3 -0.6275 0.01-0.951 0.054-3.3827 0.108-6.5791-5.147-6.7458h-1.672v-2.7061h26.939l0.019 2.7258-0.48-0.00491c-2.01-0.01961-3.54 0.51476-4.628 1.5884-1.289 1.2796-1.946 3.3288-1.946 6.0937v35.694c0 12.084 5.255 18.212 15.619 18.212 5.863 0 10.795-1.7305 13.879-4.873 4.985-5.1524 5.383-11.83 5.383-20.026v-29.106c0-4.3043-0.427-7.5939-5.82-7.5939h-1.402v-2.711h19.87v2.711h-0.839c-3.98 0-6.284 1.2403-6.284 7.5939v29.601c4e-3 19.904-8.624 29.576-26.371 29.576z"/><path d="m237.44 74.041h-26.964v-2.6964l0.456-0.0147c6.32-0.1814 6.643-2.2011 6.643-8.0056v-46.96c0-6.0398-0.235-7.4713-6.378-7.6527l-0.456-0.01471v-2.6963h27.508c16.251 0 24.752 9.5254 24.752 18.933 0 10.766-9.599 19.198-21.85 19.198l-6.069-0.0882v-4.7652s2.299-0.0245 3.137-0.0245c7.54 0 11.418-5.7015 11.418-14.188 0-8.8391-5.667-14.781-14.099-14.781l-5.422-0.0147v54.147c0 5.6868 1.029 6.7163 6.873 6.9075l0.456 0.0147v2.7013z"/><path d="m138.54 74.041h-19.428l-20.786-31.611v-3.8582l0.4216-0.0441c7.2897-0.7697 14.134-4.9662 14.134-14.443 0-7.9517-5.721-13.501-13.913-13.501h-5.6083v53.833c0 5.8633 2.6914 6.4467 6.4957 6.6232l0.4457 0.0196v2.9758h-26.36v-2.7356l0.4461-0.0245c5.7162-0.3186 6.5251-1.7502 6.5251-6.8634v-48.794c-0.2108-6.0397-0.5834-6.8143-6.5055-6.9075l-0.4608-0.0049v-2.7061h28.395c10.829 0 23.477 4.7602 23.477 18.183 0 8.0007-4.848 13.742-14.418 17.07l10.786 15.923c1.176 1.804 5.5 7.0496 7.437 9.1871 3.691 3.9709 6.348 4.52 8.108 4.8828l0.809 0.1716z"/><path d="m69.261 74.041h-25.723v-2.6571l0.4559-0.0147c3.1425-0.1079 5.0887-0.7942 5.0887-3.8631 0-1.3727-1.0736-4.0592-1.6521-5.5055l-4.1817-10.001h-23.233l-4.27 9.7264c-1.4168 3.2111-1.8286 4.373-1.8286 5.878 0 2.211 0 3.6719 5.172 3.7651l0.4609 0.0098v2.6669h-18.551v-2.662l0.46083-0.0098c3.6768-0.0834 5.5888-1.9512 8.187-7.9959l25.164-57.378h2.5836l0.1225 0.28434 25.238 59.427c1.8188 4.4269 2.2502 5.476 6.0594 5.6328l0.451 0.0197v2.6767zm-47.338-26.645h19.443l-9.5058-23.061z"/></g></svg>
