<?xml version="1.0" encoding="UTF-8" standalone="no"?>
<!-- Created with Inkscape (http://www.inkscape.org/) -->

<svg
   xmlns:dc="http://purl.org/dc/elements/1.1/"
   xmlns:cc="http://creativecommons.org/ns#"
   xmlns:rdf="http://www.w3.org/1999/02/22-rdf-syntax-ns#"
   xmlns:svg="http://www.w3.org/2000/svg"
   xmlns="http://www.w3.org/2000/svg"
   xmlns:sodipodi="http://sodipodi.sourceforge.net/DTD/sodipodi-0.dtd"
   xmlns:inkscape="http://www.inkscape.org/namespaces/inkscape"
   width="250"
   height="91"
   viewBox="0 0 250 91"
   id="svg2"
   version="1.1"
   inkscape:version="0.92.2 (5c3e80d, 2017-08-06)"
   sodipodi:docname="beautiful-info.svg"
   inkscape:export-filename="C:\Users\Amy\Desktop\Assets\arup.png"
   inkscape:export-xdpi="90"
   inkscape:export-ydpi="90">
  <defs
     id="defs4" />
  <sodipodi:namedview
     id="base"
     pagecolor="#ffffff"
     bordercolor="#666666"
     borderopacity="1.0"
     inkscape:pageopacity="0.0"
     inkscape:pageshadow="2"
     inkscape:zoom="1.4000007"
     inkscape:cx="-118.76663"
     inkscape:cy="48.621614"
     inkscape:document-units="px"
     inkscape:current-layer="layer1"
     showgrid="false"
     inkscape:window-width="1920"
     inkscape:window-height="1001"
     inkscape:window-x="-9"
     inkscape:window-y="-9"
     inkscape:window-maximized="1"
     units="px" />
  <metadata
     id="metadata7">
    <rdf:RDF>
      <cc:Work
         rdf:about="">
        <dc:format>image/svg+xml</dc:format>
        <dc:type
           rdf:resource="http://purl.org/dc/dcmitype/StillImage" />
        <dc:title></dc:title>
      </cc:Work>
    </rdf:RDF>
  </metadata>
  <g
     inkscape:label="Layer 1"
     inkscape:groupmode="layer"
     id="layer1"
     transform="translate(0,-961.4)">
    <rect
       style="opacity:0.001;fill:none;fill-opacity:1;stroke:none;stroke-width:2.5;stroke-linecap:round;stroke-linejoin:round;stroke-miterlimit:4;stroke-dasharray:none;stroke-dashoffset:0;stroke-opacity:1"
       id="rect4175"
       width="250"
       height="91"
       x="0"
       y="961.4" />
    <path
       style="fill:#000000"
       d=""
       id="path842"
       inkscape:connector-curvature="0" />
    <path
       style="fill:#000000"
       d=""
       id="path875"
       inkscape:connector-curvature="0" />
    <path
       style="fill:#ffffff;stroke-width:0.16566633"
       d="m 69.528184,1044.1861 c -1.965175,-0.478 -3.381692,-1.655 -4.284425,-3.5603 -0.494745,-1.0443 -0.519562,-1.1934 -0.513003,-3.0853 0.0058,-1.6601 0.06764,-2.1383 0.375129,-2.8991 0.540909,-1.3385 1.410058,-2.4191 2.525298,-3.14 1.173422,-0.7584 2.30916,-1.0681 3.885,-1.0593 3.842797,0.022 6.543818,2.7845 6.543818,6.6935 0,2.3495 -0.677105,4.1249 -2.078597,5.4504 -1.664289,1.574 -4.088497,2.1751 -6.45322,1.6001 z m 3.561826,-1.6057 c 3.257041,-1.4727 4.002442,-6.5366 1.388112,-9.4305 -1.559098,-1.7256 -4.47325,-1.7345 -6.189047,-0.018 -1.116071,1.1161 -1.543055,2.2992 -1.561349,4.3265 -0.01258,1.3934 0.03897,1.6877 0.449518,2.5678 0.581827,1.2472 1.289839,2.0012 2.35094,2.5037 1.070282,0.5068 2.508308,0.5274 3.561826,0.051 z m 68.25854,1.5804 c -2.56094,-0.7184 -4.28438,-2.7774 -4.63025,-5.5319 -0.52966,-4.2182 1.75617,-7.5198 5.63924,-8.1451 1.21901,-0.1963 2.87016,0.012 4.02527,0.5066 1.00662,0.4316 2.34884,1.7057 2.86061,2.7157 1.59688,3.1512 0.76156,7.5319 -1.78847,9.3791 -1.57496,1.1409 -4.21533,1.606 -6.1064,1.0756 z m 3.48419,-1.4879 c 2.04014,-0.7198 3.14993,-2.5792 3.16212,-5.2981 0.009,-2.1165 -0.73196,-3.784 -2.10153,-4.7263 -1.41447,-0.9732 -3.19894,-1.0526 -4.74513,-0.2109 -2.86672,1.5602 -3.32516,6.8554 -0.80524,9.3008 1.14396,1.1102 2.93513,1.483 4.48978,0.9345 z M 35.815095,1037.466 v -6.8006 h 0.985771 0.985758 l -0.03323,6.7509 -0.03312,6.7508 -0.952586,0.05 -0.952575,0.05 z m 5.466979,3e-4 v -6.8011 h 1.046197 1.046197 l 1.728716,2.5188 c 3.331582,4.8542 3.998374,5.8576 4.738815,7.1313 0.410512,0.7062 0.75851,1.2839 0.773314,1.284 0.01477,0 0.0046,-2.4601 -0.02296,-5.467 l -0.04985,-5.467 h 0.911323 0.91133 l -0.03316,6.7509 -0.03316,6.7509 -0.939829,0.05 -0.939824,0.05 -3.058202,-4.5223 c -1.682008,-2.4873 -3.334686,-5.0255 -3.672623,-5.6406 -0.337925,-0.615 -0.634173,-1.1183 -0.658323,-1.1183 -0.02412,0 -0.036,2.5162 -0.02619,5.5914 l 0.01765,5.5912 -0.86974,0.05 -0.869764,0.05 v -6.801 z m 14.19953,6.6806 c -0.06484,-0.065 -0.117887,-3.1247 -0.117887,-6.7997 v -6.6819 h 3.975993 3.975992 v 0.7455 0.7455 h -2.981998 -2.981992 v 2.2365 2.2365 h 2.825855 2.825851 l -0.05094,0.7041 -0.05094,0.704 -2.771189,0.045 -2.771189,0.045 -0.04514,3.0195 -0.04514,3.0195 -0.834698,0.048 c -0.459078,0.027 -0.887742,0 -0.952581,-0.069 z m 25.346943,0 c -0.06483,-0.065 -0.117886,-3.086 -0.117886,-6.7137 v -6.5959 l 0.455582,-0.1224 c 0.25057,-0.067 1.536554,-0.1246 2.857743,-0.1273 2.80458,-0.012 3.776759,0.2398 4.796785,1.2129 0.929289,0.8864 1.244126,2.3509 0.780337,3.6297 -0.244536,0.6743 -1.279203,1.7569 -1.941229,2.0311 l -0.499265,0.2068 0.568418,0.3862 c 0.31263,0.2125 0.716711,0.631 0.897959,0.9302 0.259265,0.428 1.235675,3.5296 1.553289,4.9342 0.04466,0.1975 -0.130266,0.2484 -0.852739,0.2484 -1.086186,0 -1.078451,0.011 -1.788131,-2.5996 -0.264293,-0.9725 -0.604964,-1.9578 -0.757043,-2.19 -0.442304,-0.675 -1.215904,-0.9768 -2.713058,-1.0584 l -1.36284,-0.074 -0.04532,2.9612 -0.04532,2.9611 -0.834694,0.048 c -0.459084,0.027 -0.887745,0 -0.952582,-0.069 z m 5.77819,-7.6631 c 0.878543,-0.4962 1.227576,-1.1061 1.227576,-2.1452 0,-0.6544 -0.09202,-0.9408 -0.432035,-1.345 -0.23762,-0.2824 -0.571086,-0.5878 -0.74104,-0.6788 -0.578949,-0.3098 -2.055212,-0.5052 -3.01,-0.3982 l -0.952582,0.1062 v 2.488 2.488 l 1.615247,-0.066 c 1.300401,-0.053 1.747324,-0.141 2.292834,-0.449 z m 5.866233,7.5458 c 0,-0.4524 0.82376,-11.6282 0.92148,-12.5015 l 0.0981,-0.8768 1.17434,0.049 1.17434,0.048 1.05854,2.8163 c 0.58219,1.549 1.45117,3.9978 1.93106,5.4419 l 0.87254,2.6253 0.60706,-1.88 c 0.33387,-1.0339 1.22663,-3.4827 1.98391,-5.4417 l 1.37685,-3.5618 1.18041,-0.048 1.18041,-0.049 0.0957,0.8768 c 0.12727,1.1666 0.75828,11.194 0.75828,12.0497 v 0.6722 h -0.82081 c -0.79718,0 -0.82343,-0.015 -0.91076,-0.5384 -0.0878,-0.5257 -0.57487,-8.9667 -0.60083,-10.4127 l -0.013,-0.7284 -0.25658,0.7456 c -0.35614,1.0346 -2.52275,6.8328 -3.3584,8.9874 l -0.69073,1.7808 h -0.71052 -0.71053 l -1.60337,-4.5828 c -0.88185,-2.5207 -1.72473,-5.0368 -1.87307,-5.5913 -0.14833,-0.5546 -0.32001,-1.0675 -0.3815,-1.14 -0.0615,-0.073 -0.16674,1.2324 -0.2339,2.8993 -0.0671,1.6668 -0.20923,4.2607 -0.31574,5.7642 l -0.19365,2.7334 -0.86975,0.05 c -0.66843,0.038 -0.86974,0 -0.86974,-0.1876 z m 16.52175,0.1038 c -0.041,-0.073 0.20854,-0.9152 0.55447,-1.8718 0.34593,-0.9568 1.40769,-3.9388 2.35947,-6.6268 l 1.73049,-4.887 1.1378,-0.047 1.1378,-0.047 0.77241,2.2015 c 0.42482,1.2109 1.48716,4.2131 2.36075,6.6717 0.87358,2.4586 1.58833,4.5194 1.58833,4.5797 0,0.06 -0.42865,0.099 -0.95258,0.085 l -0.95258,-0.024 -0.7455,-2.1117 -0.74549,-2.1118 -2.50914,-5e-4 h -2.50914 l -0.72135,2.1122 -0.72136,2.1123 -0.85494,0.05 c -0.47022,0.028 -0.88846,-0.012 -0.92944,-0.083 z m 7.71551,-5.6407 c 0.0382,-0.068 -0.39748,-1.4912 -0.96829,-3.162 l -1.03783,-3.0378 -0.27609,0.9669 c -0.15184,0.5318 -0.60576,1.8881 -1.00872,3.0142 -0.40294,1.1259 -0.69149,2.1137 -0.64122,2.195 0.11019,0.1783 3.83308,0.2007 3.93215,0.024 z m 7.07368,-0.2817 v -6.0551 h -2.2365 -2.23649 v -0.7455 -0.7455 h 5.46697 5.467 v 0.7455 0.7455 h -2.23444 -2.23442 l -0.0435,6.0054 -0.0435,6.0054 -0.95258,0.05 -0.95258,0.05 z m 8.28332,-0.7538 v -6.7923 h 0.91116 0.91116 v 6.7923 6.7923 h -0.91116 -0.91116 z m 20.32172,6.6819 c -0.0607,-0.061 -0.11042,-3.1173 -0.11042,-6.7923 v -6.6819 h 1.11824 1.11826 l 0.69641,1.0315 c 0.38303,0.5673 1.64251,2.4106 2.79886,4.0964 1.15636,1.6855 2.45679,3.682 2.88984,4.4363 l 0.78738,1.3715 -0.0909,-5.4717 -0.0908,-5.4718 h 0.93619 0.93619 v 6.8006 6.8006 l -0.95258,-0.05 -0.95258,-0.05 -1.63585,-2.4022 c -3.46546,-5.0888 -4.57955,-6.7818 -5.10708,-7.7607 -0.30052,-0.5578 -0.58367,-1.0153 -0.62922,-1.0169 -0.0456,0 -0.0623,2.532 -0.0372,5.6299 l 0.0457,5.6327 h -0.80498 c -0.44274,0 -0.85469,-0.05 -0.91543,-0.1108 z m 25.40217,-12.3326 c -11.43822,-1.2945 -21.35189,-9.345 -24.98306,-20.2879 -0.56301,-1.6967 -1.11539,-4.1267 -1.28445,-5.6505 -0.10212,-0.9202 -0.16089,-1.0432 -0.58226,-1.2177 -0.63011,-0.261 -1.54427,-1.1702 -2.03846,-2.0273 -1.34533,-2.3334 -0.59803,-5.38799 1.70195,-6.95675 l 0.39715,-0.27092 -0.28525,-1.4363 c -0.40673,-2.04806 -1.29493,-4.49524 -2.43123,-6.69884 -7.43846,-14.42459 -26.2494,-18.53688 -38.99741,-8.52525 -4.88454,3.83617 -8.46401,9.64136 -9.57597,15.53032 l -0.24329,1.28849 0.72159,0.49638 c 2.55186,1.7558 3.00534,5.34937 0.97805,7.75067 -0.65492,0.7757 -1.57518,1.3166 -2.75391,1.6186 -2.38248,0.6104 -4.9199,-0.6865 -5.99351,-3.0633 -0.48089,-1.0646 -0.47906,-2.95591 0.004,-4.02529 0.45677,-1.01145 1.49881,-2.12872 2.4097,-2.58367 l 0.72715,-0.36312 0.36079,-1.8286 c 0.78341,-3.97059 2.6716,-8.38564 4.95748,-11.59169 2.38809,-3.3496 6.3026,-6.87596 9.75683,-8.7896 4.48311,-2.48352 8.52697,-3.59017 13.72683,-3.75644 5.10571,-0.16326 9.55138,0.79315 14.03782,3.01983 8.32456,4.13167 14.22157,11.7545 16.06291,20.76402 l 0.37174,1.81879 0.81661,0.36912 c 1.74852,0.79014 2.92662,2.59798 2.94132,4.51347 0.005,0.60568 -0.11389,1.46938 -0.26337,1.91948 -0.32612,0.9819 -1.34118,2.1823 -2.34064,2.768 -0.71324,0.418 -0.72651,0.4414 -0.62981,1.1156 1.20365,8.3904 6.4114,15.6741 13.98182,19.5556 5.53028,2.8355 11.66002,3.6088 17.64346,2.2258 9.80165,-2.2654 17.43381,-9.9841 19.6326,-19.8554 0.47291,-2.1231 0.45986,-2.209 -0.42808,-2.82 -2.61855,-1.8016 -2.88728,-5.67396 -0.54574,-7.86418 1.69414,-1.58468 3.79981,-1.90453 5.88689,-0.89422 2.00384,0.97003 3.20741,3.48609 2.70526,5.6552 -0.36614,1.5815 -1.66529,3.1752 -2.95487,3.6249 -0.43955,0.1531 -0.50732,0.2686 -0.60533,1.0308 -0.45941,3.5733 -2.07956,8.0296 -4.11662,11.3226 -6.13467,9.9175 -17.33319,15.4137 -28.76859,14.1193 z m 32.57008,-29.5573 c 0.1914,-0.1208 0.47437,-0.4861 0.62883,-0.8116 0.3921,-0.8262 0.21487,-1.61708 -0.5038,-2.24812 -1.33209,-1.16964 -3.2065,-0.25846 -3.2065,1.55872 0,0.6698 0.77388,1.6857 1.3747,1.8047 0.50317,0.099 1.29005,-0.04 1.70677,-0.3037 z m -112.11719,-0.2905 c 0.78432,-0.3869 1.09177,-1.6675 0.61954,-2.58068 -0.28706,-0.55511 -0.89295,-0.85234 -1.73738,-0.85234 -2.08942,0 -2.42782,3.03932 -0.4051,3.63822 0.50916,0.1509 0.9108,0.097 1.52294,-0.2052 z m 56.44814,-0.4619 c 0.62456,-0.5867 0.79542,-1.32 0.48712,-2.09051 -0.78341,-1.95795 -3.62969,-1.40768 -3.62969,0.70171 0,0.6326 0.46766,1.3696 1.07623,1.6961 0.54773,0.2937 1.59187,0.1385 2.06634,-0.3073 z m -117.303231,25.9131 c -0.5467,-0.033 -1.16173,-0.098 -1.366744,-0.1451 l -0.372748,-0.084 v -7.2787 -7.2785 l 0.62125,-0.1286 c 0.341686,-0.07 1.851311,-0.1299 3.354739,-0.1317 3.149817,0 4.16935,0.2259 5.300412,1.1941 0.872232,0.7465 1.182153,1.371 1.206984,2.4316 0.02711,1.1592 -0.435943,2.0319 -1.415079,2.6664 -0.421855,0.2732 -0.770199,0.5342 -0.774099,0.5798 -0.0035,0.045 0.297887,0.2289 0.670646,0.4076 2.357661,1.13 2.762404,4.2592 0.799148,6.1786 -0.632211,0.6181 -1.271599,0.9412 -2.489627,1.2578 -0.96807,0.2516 -3.929604,0.429 -5.534882,0.3315 z m 4.450505,-2.7713 c 0.817575,-0.3416 1.264988,-1.0056 1.264988,-1.8775 0,-1.3126 -1.128847,-2.0328 -3.189082,-2.0348 h -0.952586 v 2.0708 2.0708 h 1.164996 c 0.640738,0 1.410994,-0.1027 1.711684,-0.2283 z m -0.159507,-6.6292 c 1.543248,-0.6449 1.416199,-2.6112 -0.199637,-3.0902 -0.336805,-0.099 -1.022392,-0.1575 -1.523528,-0.1282 l -0.911174,0.053 -0.04719,1.6979 -0.04719,1.6982 h 1.087954 c 0.598358,0 1.336733,-0.1039 1.640804,-0.231 z m 38.11958,9.1729 c -1.181499,-0.3765 -2.07843,-1.0754 -2.665209,-2.0767 -0.849752,-1.4499 -0.935641,-2.0887 -1.017866,-7.5693 l -0.07643,-5.0942 h 1.744849 1.74485 l 0.05207,5.1771 c 0.05166,5.1363 0.05524,5.1825 0.455316,5.8811 1.139054,1.9887 4.022185,1.6487 4.631578,-0.5463 0.113122,-0.4074 0.182167,-2.5169 0.182741,-5.5834 l 9e-4,-4.9285 h 1.739497 1.739496 l -0.0014,4.5144 c -0.0014,4.7579 -0.121019,6.0669 -0.673384,7.3636 -0.373719,0.8775 -1.45289,2.0859 -2.224525,2.4911 -1.432659,0.7525 -3.921469,0.9164 -5.632657,0.3711 z m 48.283533,0.1201 c -1.47697,-0.4186 -2.72175,-1.4879 -3.29751,-2.8324 -0.53528,-1.2501 -0.67029,-2.7495 -0.67029,-7.4443 v -4.5836 h 1.7395 1.7395 v 4.9404 c 0,4.0988 0.0452,5.0733 0.26566,5.7202 0.70486,2.0686 3.39284,2.3472 4.4986,0.4662 l 0.45423,-0.7727 0.0501,-5.177 0.0502,-5.1771 h 1.73077 1.73077 v 4.1046 c 0,4.7523 -0.17558,6.5207 -0.78174,7.8731 -0.52021,1.1607 -1.7032,2.286 -2.82245,2.6847 -1.03091,0.3673 -3.69327,0.4797 -4.68731,0.1979 z m -78.683297,-7.4053 v -7.455 l 4.597237,-10e-5 4.597238,-10e-5 -0.02663,1.3669 -0.02663,1.3668 -2.878124,0.045 -2.878128,0.045 0.029,1.363 c 0.01596,0.7498 0.03711,1.419 0.04701,1.4873 0.0099,0.068 1.209376,0.1243 2.665506,0.1243 3.04371,0 2.861563,-0.1142 2.780252,1.7395 l -0.0436,0.994 -2.676222,0.045 -2.676227,0.045 -0.06666,1.6113 c -0.03665,0.8861 -0.03938,1.6671 -0.0061,1.7355 0.0333,0.068 1.398073,0.1241 3.032795,0.1241 h 2.97222 v 1.4081 1.4083 h -4.721494 -4.721489 z m 11.596636,7.2912 c 0,-0.09 0.218021,-0.8541 0.484489,-1.698 0.266467,-0.8439 1.128269,-3.6591 1.915115,-6.2559 0.786842,-2.5968 1.581323,-5.1874 1.765511,-5.7569 l 0.334892,-1.0354 h 2.209675 2.209675 l 0.253669,0.7869 c 0.139522,0.4328 0.748118,2.3897 1.352437,4.3487 0.60432,1.959 1.502216,4.8665 1.99532,6.461 0.493102,1.5946 0.896921,2.9949 0.897371,3.1119 5e-4,0.1628 -0.413532,0.2016 -1.766619,0.1656 -1.722727,-0.046 -1.770686,-0.058 -1.896106,-0.4611 -0.07078,-0.2278 -0.323635,-1.0665 -0.561919,-1.8638 l -0.433245,-1.4496 h -2.131881 -2.131879 l -0.250437,0.8698 c -0.137741,0.4783 -0.378903,1.3356 -0.535918,1.9051 l -0.285477,1.0354 h -1.712336 c -1.017295,0 -1.712337,-0.067 -1.712337,-0.1637 z m 7.535608,-8.7408 c -0.385342,-1.344 -0.756007,-2.6672 -0.8237,-2.9407 -0.103914,-0.4195 -0.232272,-0.081 -0.824344,2.1754 -0.385695,1.4697 -0.747594,2.7929 -0.804219,2.9405 -0.09059,0.2361 0.09261,0.2684 1.524968,0.2684 h 1.627922 z m 26.425983,2.8577 v -6.0468 h -1.97582 -1.97582 l -0.0536,-1.4085 -0.0536,-1.4086 5.7569,3e-4 5.75691,3e-4 v 1.4082 1.4081 h -2.07083 -2.07083 v 6.0468 6.0468 H 96.6146 94.95794 v -6.0468 z m 10.10565,-1.4081 v -7.455 h 1.65667 1.65665 v 7.455 7.4549 h -1.65665 -1.65667 z m 7.57102,7.35 c -0.0638,-0.063 -0.11604,-3.421 -0.11604,-7.4605 v -7.3445 h 4.55583 4.55583 v 1.4082 1.4081 h -2.81634 -2.81632 v 1.6567 1.6567 h 2.65065 2.65067 v 1.4081 1.4082 h -2.64684 -2.64683 l -0.0452,2.9405 -0.0452,2.9406 -1.58204,0.047 c -0.87012,0.026 -1.63427,0 -1.69808,-0.069 z m 27.05324,-7.3474 v -7.4576 h 1.65667 1.65666 v 5.964 5.9639 l 2.52641,0.03 c 1.38953,0.016 2.71278,0.038 2.94058,0.047 0.40783,0.016 0.41417,0.038 0.41417,1.419 v 1.4023 l -4.59725,0.044 -4.59724,0.044 z"
       id="path888"
       inkscape:connector-curvature="0"
       sodipodi:nodetypes="ccccccsccccccccccccccccccccsccccccccccccccccccccccccccssscccccccscccccccccccccccccccccsccccscccccsccccccccccscccccccccccccccccccccccscsccccscccccccscccccsccccccscccccccccccccccscccccccccccccccccccccccccccccscccccccccccccccsccccscccccccccccscccccccccccccccccccccccccsccccccccccsccccsccccscccccccccsccccscccsccccsccccccccscccscccsccsccccccccccscccscccccccscccccccccccccscccccssccccccssccccccssccccccccccssccccsccccccccccccccccccccccccccccccsccccccccccccccccccccccccccccscccc" />
  </g>
</svg>
