<?xml version="1.0" encoding="UTF-8"?>
<svg version="1.1" viewBox="0 0 250 91" xmlns="http://www.w3.org/2000/svg" xmlns:cc="http://creativecommons.org/ns#" xmlns:dc="http://purl.org/dc/elements/1.1/" xmlns:rdf="http://www.w3.org/1999/02/22-rdf-syntax-ns#">
<metadata>
<rdf:RDF>
<cc:Work rdf:about="">
<dc:format>image/svg+xml</dc:format>
<dc:type rdf:resource="http://purl.org/dc/dcmitype/StillImage"/>
<dc:title/>
</cc:Work>
</rdf:RDF>
</metadata>
<g transform="translate(0,-961.4)">
<path d="m69.528 1044.2c-1.9652-0.478-3.3817-1.655-4.2844-3.5603-0.49474-1.0443-0.51956-1.1934-0.513-3.0853 0.0058-1.6601 0.06764-2.1383 0.37513-2.8991 0.54091-1.3385 1.4101-2.4191 2.5253-3.14 1.1734-0.7584 2.3092-1.0681 3.885-1.0593 3.8428 0.022 6.5438 2.7845 6.5438 6.6935 0 2.3495-0.6771 4.1249-2.0786 5.4504-1.6643 1.574-4.0885 2.1751-6.4532 1.6001zm3.5618-1.6057c3.257-1.4727 4.0024-6.5366 1.3881-9.4305-1.5591-1.7256-4.4732-1.7345-6.189-0.018-1.1161 1.1161-1.5431 2.2992-1.5613 4.3265-0.01258 1.3934 0.03897 1.6877 0.44952 2.5678 0.58183 1.2472 1.2898 2.0012 2.3509 2.5037 1.0703 0.5068 2.5083 0.5274 3.5618 0.051zm68.259 1.5804c-2.5609-0.7184-4.2844-2.7774-4.6302-5.5319-0.52966-4.2182 1.7562-7.5198 5.6392-8.1451 1.219-0.1963 2.8702 0.012 4.0253 0.5066 1.0066 0.4316 2.3488 1.7057 2.8606 2.7157 1.5969 3.1512 0.76156 7.5319-1.7885 9.3791-1.575 1.1409-4.2153 1.606-6.1064 1.0756zm3.4842-1.4879c2.0401-0.7198 3.1499-2.5792 3.1621-5.2981 9e-3 -2.1165-0.73196-3.784-2.1015-4.7263-1.4145-0.9732-3.1989-1.0526-4.7451-0.2109-2.8667 1.5602-3.3252 6.8554-0.80524 9.3008 1.144 1.1102 2.9351 1.483 4.4898 0.9345zm-109.02-5.2069v-6.8006h1.9715l-0.03323 6.7509-0.03312 6.7508-1.9052 0.1zm5.467 3e-4v-6.8011h2.0924l1.7287 2.5188c3.3316 4.8542 3.9984 5.8576 4.7388 7.1313 0.41051 0.7062 0.75851 1.2839 0.77331 1.284 0.01477 0 0.0046-2.4601-0.02296-5.467l-0.04985-5.467h1.8227l-0.06632 13.502-1.8797 0.1-3.0582-4.5223c-1.682-2.4873-3.3347-5.0255-3.6726-5.6406-0.33792-0.615-0.63417-1.1183-0.65832-1.1183-0.02412 0-0.036 2.5162-0.02619 5.5914l0.01765 5.5912-1.7395 0.1v-6.801zm14.2 6.6806c-0.06484-0.065-0.11789-3.1247-0.11789-6.7997v-6.6819h7.952v1.491h-5.964v4.473h5.6517l-0.05094 0.7041-0.05094 0.704-5.5424 0.09-0.09028 6.039-0.8347 0.048c-0.45908 0.027-0.88774 0-0.95258-0.069zm25.347 0c-0.06483-0.065-0.11789-3.086-0.11789-6.7137v-6.5959l0.45558-0.1224c0.25057-0.067 1.5366-0.1246 2.8577-0.1273 2.8046-0.012 3.7768 0.2398 4.7968 1.2129 0.92929 0.8864 1.2441 2.3509 0.78034 3.6297-0.24454 0.6743-1.2792 1.7569-1.9412 2.0311l-0.49926 0.2068 0.56842 0.3862c0.31263 0.2125 0.71671 0.631 0.89796 0.9302 0.25926 0.428 1.2357 3.5296 1.5533 4.9342 0.04466 0.1975-0.13027 0.2484-0.85274 0.2484-1.0862 0-1.0785 0.011-1.7881-2.5996-0.26429-0.9725-0.60496-1.9578-0.75704-2.19-0.4423-0.675-1.2159-0.9768-2.7131-1.0584l-1.3628-0.074-0.04532 2.9612-0.04532 2.9611-0.83469 0.048c-0.45908 0.027-0.88774 0-0.95258-0.069zm5.7782-7.6631c0.87854-0.4962 1.2276-1.1061 1.2276-2.1452 0-0.6544-0.09202-0.9408-0.43204-1.345-0.23762-0.2824-0.57109-0.5878-0.74104-0.6788-0.57895-0.3098-2.0552-0.5052-3.01-0.3982l-0.95258 0.1062v4.976l1.6152-0.066c1.3004-0.053 1.7473-0.141 2.2928-0.449zm5.8662 7.5458c0-0.4524 0.82376-11.628 0.92148-12.502l0.0981-0.8768 1.1743 0.049 1.1743 0.048 1.0585 2.8163c0.58219 1.549 1.4512 3.9978 1.9311 5.4419l0.87254 2.6253 0.60706-1.88c0.33387-1.0339 1.2266-3.4827 1.9839-5.4417l1.3768-3.5618 1.1804-0.048 1.1804-0.049 0.0957 0.8768c0.12727 1.1666 0.75828 11.194 0.75828 12.05v0.6722h-0.82081c-0.79718 0-0.82343-0.015-0.91076-0.5384-0.0878-0.5257-0.57487-8.9667-0.60083-10.413l-0.013-0.7284-0.25658 0.7456c-0.35614 1.0346-2.5228 6.8328-3.3584 8.9874l-0.69073 1.7808h-1.421l-1.6034-4.5828c-0.88185-2.5207-1.7247-5.0368-1.8731-5.5913-0.14833-0.5546-0.32001-1.0675-0.3815-1.14-0.0615-0.073-0.16674 1.2324-0.2339 2.8993-0.0671 1.6668-0.20923 4.2607-0.31574 5.7642l-0.19365 2.7334-0.86975 0.05c-0.66843 0.038-0.86974 0-0.86974-0.1876zm16.522 0.1038c-0.041-0.073 0.20854-0.9152 0.55447-1.8718 0.34593-0.9568 1.4077-3.9388 2.3595-6.6268l1.7305-4.887 2.2756-0.094 0.77241 2.2015c0.42482 1.2109 1.4872 4.2131 2.3608 6.6717 0.87358 2.4586 1.5883 4.5194 1.5883 4.5797 0 0.06-0.42865 0.099-0.95258 0.085l-0.95258-0.024-0.7455-2.1117-0.74549-2.1118-2.5091-5e-4h-2.5091l-0.72135 2.1122-0.72136 2.1123-0.85494 0.05c-0.47022 0.028-0.88846-0.012-0.92944-0.083zm7.7155-5.6407c0.0382-0.068-0.39748-1.4912-0.96829-3.162l-1.0378-3.0378-0.27609 0.9669c-0.15184 0.5318-0.60576 1.8881-1.0087 3.0142-0.40294 1.1259-0.69149 2.1137-0.64122 2.195 0.11019 0.1783 3.8331 0.2007 3.9322 0.024zm7.0737-0.2817v-6.0551h-4.473v-1.491h10.934v1.491h-4.4689l-0.087 12.011-1.9052 0.1zm8.2833-0.7538v-6.7923h1.8223v13.585h-1.8223zm20.322 6.6819c-0.0607-0.061-0.11042-3.1173-0.11042-6.7923v-6.6819h2.2365l0.69641 1.0315c0.38303 0.5673 1.6425 2.4106 2.7989 4.0964 1.1564 1.6855 2.4568 3.682 2.8898 4.4363l0.78738 1.3715-0.0909-5.4717-0.0908-5.4718h1.8724v13.601l-1.9052-0.1-1.6358-2.4022c-3.4655-5.0888-4.5796-6.7818-5.1071-7.7607-0.30052-0.5578-0.58367-1.0153-0.62922-1.0169-0.0456 0-0.0623 2.532-0.0372 5.6299l0.0457 5.6327h-0.80498c-0.44274 0-0.85469-0.05-0.91543-0.1108zm25.402-12.333c-11.438-1.2945-21.352-9.345-24.983-20.288-0.56301-1.6967-1.1154-4.1267-1.2844-5.6505-0.10212-0.9202-0.16089-1.0432-0.58226-1.2177-0.63011-0.261-1.5443-1.1702-2.0385-2.0273-1.3453-2.3334-0.59803-5.388 1.702-6.9568l0.39715-0.27092-0.28525-1.4363c-0.40673-2.0481-1.2949-4.4952-2.4312-6.6988-7.4385-14.425-26.249-18.537-38.997-8.5252-4.8845 3.8362-8.464 9.6414-9.576 15.53l-0.24329 1.2885 0.72159 0.49638c2.5519 1.7558 3.0053 5.3494 0.97805 7.7507-0.65492 0.7757-1.5752 1.3166-2.7539 1.6186-2.3825 0.6104-4.9199-0.6865-5.9935-3.0633-0.48089-1.0646-0.47906-2.9559 4e-3 -4.0253 0.45677-1.0114 1.4988-2.1287 2.4097-2.5837l0.72715-0.36312 0.36079-1.8286c0.78341-3.9706 2.6716-8.3856 4.9575-11.592 2.3881-3.3496 6.3026-6.876 9.7568-8.7896 4.4831-2.4835 8.527-3.5902 13.727-3.7564 5.1057-0.16326 9.5514 0.79315 14.038 3.0198 8.3246 4.1317 14.222 11.754 16.063 20.764l0.37174 1.8188 0.81661 0.36912c1.7485 0.79014 2.9266 2.598 2.9413 4.5135 5e-3 0.60568-0.11389 1.4694-0.26337 1.9195-0.32612 0.9819-1.3412 2.1823-2.3406 2.768-0.71324 0.418-0.72651 0.4414-0.62981 1.1156 1.2036 8.3904 6.4114 15.674 13.982 19.556 5.5303 2.8355 11.66 3.6088 17.643 2.2258 9.8016-2.2654 17.434-9.9841 19.633-19.855 0.47291-2.1231 0.45986-2.209-0.42808-2.82-2.6186-1.8016-2.8873-5.674-0.54574-7.8642 1.6941-1.5847 3.7998-1.9045 5.8869-0.89422 2.0038 0.97003 3.2074 3.4861 2.7053 5.6552-0.36614 1.5815-1.6653 3.1752-2.9549 3.6249-0.43955 0.1531-0.50732 0.2686-0.60533 1.0308-0.45941 3.5733-2.0796 8.0296-4.1166 11.323-6.1347 9.9175-17.333 15.414-28.769 14.119zm32.57-29.557c0.1914-0.1208 0.47437-0.4861 0.62883-0.8116 0.3921-0.8262 0.21487-1.6171-0.5038-2.2481-1.3321-1.1696-3.2065-0.25846-3.2065 1.5587 0 0.6698 0.77388 1.6857 1.3747 1.8047 0.50317 0.099 1.29-0.04 1.7068-0.3037zm-112.12-0.2905c0.78432-0.3869 1.0918-1.6675 0.61954-2.5807-0.28706-0.55511-0.89295-0.85234-1.7374-0.85234-2.0894 0-2.4278 3.0393-0.4051 3.6382 0.50916 0.1509 0.9108 0.097 1.5229-0.2052zm56.448-0.4619c0.62456-0.5867 0.79542-1.32 0.48712-2.0905-0.78341-1.958-3.6297-1.4077-3.6297 0.70171 0 0.6326 0.46766 1.3696 1.0762 1.6961 0.54773 0.2937 1.5919 0.1385 2.0663-0.3073zm-117.3 25.913c-0.5467-0.033-1.1617-0.098-1.3667-0.1451l-0.37275-0.084v-14.557l0.62125-0.1286c0.34169-0.07 1.8513-0.1299 3.3547-0.1317 3.1498 0 4.1694 0.2259 5.3004 1.1941 0.87223 0.7465 1.1822 1.371 1.207 2.4316 0.02711 1.1592-0.43594 2.0319-1.4151 2.6664-0.42186 0.2732-0.7702 0.5342-0.7741 0.5798-0.0035 0.045 0.29789 0.2289 0.67065 0.4076 2.3577 1.13 2.7624 4.2592 0.79915 6.1786-0.63221 0.6181-1.2716 0.9412-2.4896 1.2578-0.96807 0.2516-3.9296 0.429-5.5349 0.3315zm4.4505-2.7713c0.81758-0.3416 1.265-1.0056 1.265-1.8775 0-1.3126-1.1288-2.0328-3.1891-2.0348h-0.95259v4.1416h1.165c0.64074 0 1.411-0.1027 1.7117-0.2283zm-0.15951-6.6292c1.5432-0.6449 1.4162-2.6112-0.19964-3.0902-0.3368-0.099-1.0224-0.1575-1.5235-0.1282l-0.91117 0.053-0.04719 1.6979-0.04719 1.6982h1.088c0.59836 0 1.3367-0.1039 1.6408-0.231zm38.12 9.1729c-1.1815-0.3765-2.0784-1.0754-2.6652-2.0767-0.84975-1.4499-0.93564-2.0887-1.0179-7.5693l-0.07643-5.0942h3.4897l0.05207 5.1771c0.05166 5.1363 0.05524 5.1825 0.45532 5.8811 1.1391 1.9887 4.0222 1.6487 4.6316-0.5463 0.11312-0.4074 0.18217-2.5169 0.18274-5.5834l9e-4 -4.9285h3.479l-0.0014 4.5144c-0.0014 4.7579-0.12102 6.0669-0.67338 7.3636-0.37372 0.8775-1.4529 2.0859-2.2245 2.4911-1.4327 0.7525-3.9215 0.9164-5.6327 0.3711zm48.284 0.1201c-1.477-0.4186-2.7218-1.4879-3.2975-2.8324-0.53528-1.2501-0.67029-2.7495-0.67029-7.4443v-4.5836h3.479v4.9404c0 4.0988 0.0452 5.0733 0.26566 5.7202 0.70486 2.0686 3.3928 2.3472 4.4986 0.4662l0.45423-0.7727 0.0501-5.177 0.0502-5.1771h3.4615v4.1046c0 4.7523-0.17558 6.5207-0.78174 7.8731-0.52021 1.1607-1.7032 2.286-2.8224 2.6847-1.0309 0.3673-3.6933 0.4797-4.6873 0.1979zm-78.683-7.4053v-7.455l9.1945-2e-4 -0.02663 1.3669-0.02663 1.3668-5.7563 0.09 0.029 1.363c0.01596 0.7498 0.03711 1.419 0.04701 1.4873 0.0099 0.068 1.2094 0.1243 2.6655 0.1243 3.0437 0 2.8616-0.1142 2.7803 1.7395l-0.0436 0.994-5.3524 0.09-0.06666 1.6113c-0.03665 0.8861-0.03938 1.6671-0.0061 1.7355 0.0333 0.068 1.3981 0.1241 3.0328 0.1241h2.9722v2.8164h-9.443zm11.597 7.2912c0-0.09 0.21802-0.8541 0.48449-1.698 0.26647-0.8439 1.1283-3.6591 1.9151-6.2559 0.78684-2.5968 1.5813-5.1874 1.7655-5.7569l0.33489-1.0354h4.4194l0.25367 0.7869c0.13952 0.4328 0.74812 2.3897 1.3524 4.3487 0.60432 1.959 1.5022 4.8665 1.9953 6.461 0.4931 1.5946 0.89692 2.9949 0.89737 3.1119 5e-4 0.1628-0.41353 0.2016-1.7666 0.1656-1.7227-0.046-1.7707-0.058-1.8961-0.4611-0.07078-0.2278-0.32364-1.0665-0.56192-1.8638l-0.43324-1.4496h-4.2638l-0.25044 0.8698c-0.13774 0.4783-0.3789 1.3356-0.53592 1.9051l-0.28548 1.0354h-1.7123c-1.0173 0-1.7123-0.067-1.7123-0.1637zm7.5356-8.7408c-0.38534-1.344-0.75601-2.6672-0.8237-2.9407-0.10391-0.4195-0.23227-0.081-0.82434 2.1754-0.3857 1.4697-0.74759 2.7929-0.80422 2.9405-0.09059 0.2361 0.09261 0.2684 1.525 0.2684h1.6279zm26.426 2.8577v-6.0468h-3.9516l-0.0536-1.4085-0.0536-1.4086 11.514 6e-4v2.8163h-4.1417v12.094h-3.3133v-6.0468zm10.106-1.4081v-7.455h3.3133v14.91h-3.3133zm7.571 7.35c-0.0638-0.063-0.11604-3.421-0.11604-7.4605v-7.3445h9.1117v2.8163h-5.6327v3.3134h5.3013v2.8163h-5.2937l-0.0452 2.9405-0.0452 2.9406-1.582 0.047c-0.87012 0.026-1.6343 0-1.6981-0.069zm27.053-7.3474v-7.4576h3.3133v11.928l2.5264 0.03c1.3895 0.016 2.7128 0.038 2.9406 0.047 0.40783 0.016 0.41417 0.038 0.41417 1.419v1.4023l-9.1945 0.088z" fill="#fff" stroke-width=".16567"/>
</g>
</svg>
