<?xml version="1.0" encoding="UTF-8"?>
<svg version="1.1" viewBox="0 0 250 91" xmlns="http://www.w3.org/2000/svg" xmlns:cc="http://creativecommons.org/ns#" xmlns:dc="http://purl.org/dc/elements/1.1/" xmlns:rdf="http://www.w3.org/1999/02/22-rdf-syntax-ns#">
<metadata>
<rdf:RDF>
<cc:Work rdf:about="">
<dc:format>image/svg+xml</dc:format>
<dc:type rdf:resource="http://purl.org/dc/dcmitype/StillImage"/>
<dc:title/>
</cc:Work>
</rdf:RDF>
</metadata>
<g transform="translate(0,-961.4)" fill="#fff">
<g transform="matrix(.30855 0 0 .30855 52.971 843.54)">
<path transform="translate(53.14,416.02)" d="m4.0723 0c-0.253 0-0.5686 0.69995-0.7266 1.5898-2.5029 11.82-4.0865 25.63-3.1875 38.59 0.491 6.84 1.6747 15.109 3.7227 22.508 0.057 0 3.8814-1.669 8.4941-3.719l8.4-3.729c-1.588-6.83-2.464-14.661-2.218-22.051 0.08-8.337 1.029-17.069 2.136-25.599-5.507-2.5197-10.938-5.0598-16.621-7.5898zm26.737 0c-1.83 4.1997-2.44 8.9315-3.141 15.23-0.701 6.3-0.772 17.769-0.5 26.649 0.363 6.58 1.67 14.13 3.727 20.809 6.067-2.41 11.104-4.989 16.664-7.409-1.939-8.77-2.294-19.41-2.133-28.08s0.861-12.92 2.074-19.34c-4.937-2.27-10.793-5.0994-16.691-7.8594zm26.925 0c-0.07 0-0.189 0.26914-0.289 0.61914-2.8 9.8999-3.391 19.981-3.621 30.801 0.01 8.8 0.845 20.789 3.895 31.309 5.6-2.44 11.156-5.02 16.736-7.52-1.11-4.51-1.44-9.41-2-14.27-0.26-1.65-0.26-14.459 0-16.529 0.7-5.59 0.929-11.351 2.129-16.801-5.24-2.32-10.56-4.8794-16.85-7.6094zm35.69 0c-0.08 0-0.18 13.819-0.18 68.639v68.631c12.926 4.35 27.426 7.41 42.646 6.41 10.01-2.14 22.41-5.13 30-14.4 10.46-12.08 13.44-28.11 11.4-43.52-1.41-10.05-5.21-20.94-13.24-28.75-8.99-9.29-22.39-11.301-33.45-9.981-0.52 0.09-1.51 0.31-2.22 0.44-5.69 1.01-11.49 3.971-16.07 7.461l-0.46 0.379-0.1-23.539-0.1-23.53-9.02-4.1093c-4.963-2.26-9.106-4.1309-9.206-4.1309zm106.39 8.9297c-6.21-6e-4 -11.25 5.0363-11.25 11.25 0 6.213 5.04 11.251 11.25 11.25 6.21 0 11.25-5.037 11.25-11.25 0-6.214-5.04-11.251-11.25-11.25zm53.68 37.955c-0.6-0.01-1.2-0.01-1.79 0-1.36 0.03-2.67 0.111-3.93 0.258-10.43 1.481-19.81 8.74-22.43 18.203l-0.62 2.306v3.032c-0.12 5.27 1.59 10.35 4.37 14.427 4.1 5.368 9.25 9.192 14.89 12.67 7.31 5.689 20.05 8.039 23.53 17.219 1.83 4.83-1.6 9.2-5.14 11.03-5.28 2.31-11.19 2.57-16.32 0.37-7.65-2.16-15.1-6.63-21.7-10.58 0 0-0.1 4.49-0.1 9.98v10.01c5.63 2.6 11.66 5.04 16.68 6.58 9.37 2.29 20.36 2.82 29.53-1.08 8.2-3.11 14.27-9.57 16.19-17.18 0.86-3.45 1.07-7.48 0.55-10.36-1.35-7.29-5.84-13.781-11.69-18.329-7.83-6.741-17.68-9.661-25.83-15.976-4.22-3.098-6.93-8.455-4.45-12.889 0.9-1.48 5.03-3.382 8.36-3.892 11.27-1.608 19.87 6.206 29.33 9.796 0-0.06 0.1-4.009 0.1-9.128l-0.1-9c-9.63-4.642-20.32-7.311-29.43-7.469zm73.22 0.361c-0.61-0.01-1.21-0.01-1.8 0-1.35 0.03-2.66 0.114-3.92 0.262-10.43 1.48-19.81 8.729-22.43 18.199l-0.62 2.311v3.019c-0.12 5.28 1.59 10.36 4.37 14.43 4.1 5.37 9.25 9.2 14.89 12.67 7.31 5.693 20.03 8.043 23.51 17.223 1.83 4.83-1.58 9.2-5.12 11.03-5.28 2.31-11.19 2.57-16.32 0.37-7.65-2.16-15.1-6.63-21.7-10.58 0 0-0.1 4.49-0.1 9.98v10.01c5.63 2.6 11.66 5.04 16.68 6.58 9.37 2.29 20.36 2.82 29.53-1.08 8.2-3.11 14.27-9.57 16.19-17.18 0.86-3.45 1.07-7.48 0.55-10.36-1.35-7.29-5.86-13.78-11.71-18.335-7.83-6.74-17.66-9.661-25.81-15.981-4.22-3.09-6.93-8.449-4.45-12.878 0.9-1.48 5.03-3.389 8.36-3.899 11.27-1.6 19.86 6.211 29.31 9.801 0-0.1 0.12-4.011 0.12-9.131l-0.12-9c-9.61-4.635-20.3-7.305-29.41-7.463zm-135.53 1.141v54.523 54.51l-0.43 2.09c-1.41 6.54-4.58 13.14-11.28 16.11-2.44 1.19-2.91 0.31 3.74 6.82 3.16 3.09 6.21 6.06 6.75 6.6h0.1c0.55 0.51 0.92 0.95 1.02 0.95 7.49-4.08 16.1-13.89 17.87-24.11 1.01-4.1 1.01-2.62 0.91-63.35l-0.1-54.083h-9.28l-9.3-0.06zm-58.68 15.275c0.49-0.01 0.99 0 1.49 0.01 2.66 0.09 5.32 0.571 7.93 1.478 12.63 3.47 16.88 18.51 17.36 30.039-0.99 11.951-4.22 22.181-15.18 28.471-8.73 5.72-23.02 2.59-32.38 0.28v-25.401-25.398l0.75-0.877c5.35-5.302 12.59-8.459 20.03-8.604zm-33.662 138.81c-1.567 0-2.796 0.46-3.69 1.39-0.88 0.92-1.32 2.19-1.32 3.81 0 1.39 0.321 2.48 0.961 3.26 0.647 0.78 1.689 1.35 3.129 1.72l1.17 0.29c0.982 0.25 1.692 0.63 2.122 1.14 0.43 0.5 0.65 1.2 0.65 2.1 0 1.02-0.3 1.81-0.91 2.37-0.6 0.55-1.452 0.83-2.552 0.83-0.726 0-1.467-0.15-2.22-0.43-0.747-0.29-1.512-0.71-2.299-1.27v2.54c0.813 0.38 1.599 0.67 2.359 0.87 0.767 0.19 1.487 0.29 2.16 0.29 1.792 0 3.152-0.46 4.082-1.37 0.93-0.92 1.4-2.25 1.4-4.01 0-1.49-0.35-2.67-1.04-3.54-0.68-0.9-1.74-1.52-3.192-1.86l-1.16-0.31c-1.053-0.25-1.773-0.58-2.16-0.98-0.373-0.42-0.56-1.04-0.56-1.84 0-0.96 0.284-1.7 0.851-2.22 0.573-0.52 1.383-0.78 2.43-0.78 0.606 0 1.241 0.11 1.901 0.33 0.65 0.22 1.33 0.55 2.07 1v-2.4c-0.74-0.31-1.45-0.55-2.14-0.7-0.69-0.16-1.375-0.23-2.042-0.23zm138.56 0.1 0.1 2.38h1.43l-0.1-2.38h-1.43zm-36.61 0v18.47h5.42c3.76 0 6.53-0.75 8.31-2.23 1.77-1.5 2.66-3.84 2.66-7.03 0-3.16-0.89-5.49-2.65-6.97-1.76-1.5-4.54-2.24-8.32-2.24h-5.42zm100.75 0v18.47h2.22v-8.82h6.36v-2.1h-6.36v-5.45h7.19v-2.1h-9.41zm-68.86 0v18.42h1.23v-18.42h-1.23zm-86.83 0v2.26h1.62v-2.26h-1.62zm-25.41 0v18.36h1.54v-18.36h-1.54zm82.99 1.95h3.19c2.68 0 4.65 0.57 5.89 1.72 1.25 1.14 1.88 2.95 1.88 5.43 0 2.49-0.63 4.32-1.88 5.48-1.24 1.15-3.21 1.73-5.89 1.73h-3.19v-14.36zm-63.15 0.31-1.38 1.39v2.56h-3.23v1.56h3.23v6.59c0 1.52 0.33 2.57 0.99 3.15 0.66 0.57 1.36 1.07 2.2 0.85l2.19-0.57v-1.35l-2.12 0.63c-0.93 0.1-1.43-0.8-1.43-0.8-0.3-0.28-0.45-0.92-0.45-1.91v-6.59h3.56v-1.56h-3.56v-3.95zm15.81 2.93c-1.87 0-3.34 0.61-4.4 1.83-1.06 1.2-1.59 2.88-1.59 5.03 0 2.13 0.53 3.8 1.59 5.02s2.53 1.83 4.4 1.83c1.86 0 3.33-0.61 4.4-1.83 1.06-1.22 1.6-2.89 1.6-5.02 0-2.15-0.54-3.83-1.6-5.03-1.07-1.22-2.54-1.83-4.4-1.83zm68.96 0.22c-1.85 0-3.32 0.59-4.41 1.78-1.08 1.18-1.62 2.78-1.62 4.79 0 1.95 0.57 3.5 1.71 4.64 1.15 1.14 2.71 1.72 4.68 1.72 0.78 0 1.55-0.1 2.31-0.24 0.76-0.17 1.5-0.41 2.23-0.71v-1.91c-0.72 0.38-1.44 0.66-2.17 0.86-0.73 0.18-1.48 0.28-2.26 0.28-1.34 0-2.38-0.36-3.14-1.08-0.75-0.74-1.17-1.81-1.25-3.19h9.3v-0.99c0-1.83-0.49-3.28-1.45-4.34-0.96-1.08-2.27-1.61-3.93-1.61zm-44.19 0.28c-1.25 0-2.21 0.31-2.89 0.95-0.68 0.63-1.02 1.53-1.02 2.7 0 0.96 0.23 1.72 0.69 2.27s1.21 0.96 2.25 1.23l0.59 0.16c1.04 0.27 1.71 0.55 2.01 0.85s0.46 0.72 0.46 1.28c0 0.59-0.21 1.05-0.63 1.39-0.43 0.32-1.04 0.49-1.83 0.49-0.59 0-1.18-0.1-1.78-0.29-0.61-0.2-1.22-0.5-1.83-0.89v2.11c0.66 0.26 1.28 0.45 1.86 0.58 0.6 0.13 1.17 0.2 1.72 0.2 1.31 0 2.34-0.34 3.08-1.01 0.76-0.68 1.14-1.59 1.14-2.74 0-1.01-0.26-1.8-0.76-2.36-0.5-0.57-1.35-1.01-2.54-1.31l-0.57-0.16c-0.9-0.24-1.5-0.5-1.79-0.76-0.3-0.28-0.44-0.66-0.44-1.13 0-0.62 0.2-1.08 0.62-1.39 0.41-0.32 1.04-0.47 1.87-0.47 0.54 0 1.07 0.1 1.59 0.23 0.5 0.14 0.99 0.36 1.47 0.66v-1.92c-0.46-0.23-0.97-0.4-1.52-0.5-0.54-0.12-1.13-0.17-1.75-0.17zm151.35 0c-1.85 0-3.31 0.58-4.37 1.74s-1.58 2.75-1.58 4.77c0 2 0.52 3.58 1.58 4.76 1.04 1.17 2.46 1.76 4.25 1.76 0.65 0 1.26-0.1 1.84-0.2 0.58-0.14 1.15-0.34 1.69-0.6v-1.89c-0.55 0.32-1.1 0.56-1.66 0.73-0.55 0.15-1.11 0.23-1.67 0.23-1.26 0-2.23-0.42-2.93-1.26s-1.05-2.02-1.05-3.53c0-1.52 0.35-2.69 1.05-3.52 0.7-0.84 1.67-1.26 2.93-1.26 0.56 0 1.12 0.1 1.67 0.24 0.56 0.15 1.11 0.39 1.66 0.71v-1.9c-0.53-0.26-1.09-0.46-1.66-0.58-0.57-0.14-1.15-0.2-1.75-0.2zm-73.9 0.1c-1.83 0-3.28 0.59-4.36 1.77s-1.61 2.76-1.61 4.76c0 1.94 0.56 3.47 1.7 4.6 1.13 1.14 2.67 1.71 4.61 1.71 0.78 0 1.54-0.1 2.3-0.23 0.75-0.17 1.49-0.41 2.21-0.71v-1.9c-0.72 0.38-1.44 0.67-2.16 0.85s-1.46 0.28-2.22 0.28c-1.34 0-2.37-0.36-3.11-1.07-0.74-0.74-1.16-1.79-1.24-3.17h9.19v-0.98c0-1.82-0.48-3.26-1.43-4.31-0.96-1.07-2.25-1.6-3.88-1.6zm-146.35 0.1c-1.96 0-3.5 0.57-4.61 1.72-1.11 1.14-1.66 2.72-1.66 4.74 0 2.01 0.55 3.59 1.66 4.73s2.65 1.72 4.61 1.72c1.95 0 3.49-0.58 4.6-1.72s1.67-2.72 1.67-4.73c0-2.02-0.56-3.6-1.67-4.74-1.11-1.15-2.65-1.72-4.6-1.72zm160.19 0c-1.03 0-1.9 0.18-2.61 0.55-0.72 0.36-1.3 0.91-1.74 1.66v-1.91h-2.14v12.31h2.14v-6.49c0-1.4 0.32-2.46 0.96-3.19 0.64-0.76 1.56-1.13 2.77-1.13 0.33 0 0.63 0 0.91 0.1s0.55 0.15 0.79 0.29v-2.08c-0.22-0.1-0.41-0.1-0.59-0.1h-0.48zm46.11 0c-1.92 0-3.43 0.56-4.51 1.7-1.09 1.12-1.63 2.69-1.63 4.69 0 1.99 0.54 3.55 1.63 4.69 1.08 1.13 2.59 1.7 4.51 1.7s3.42-0.57 4.51-1.7c1.1-1.14 1.65-2.7 1.65-4.69 0-2-0.55-3.57-1.65-4.69-1.09-1.14-2.59-1.7-4.51-1.7zm35.44 0.1c-1.32 0-2.33 0.31-3.04 0.93-0.72 0.62-1.07 1.51-1.07 2.67 0 0.94 0.24 1.69 0.73 2.24 0.48 0.54 1.27 0.94 2.36 1.2l0.61 0.16c1.09 0.27 1.79 0.55 2.1 0.85 0.33 0.28 0.49 0.7 0.49 1.25 0 0.58-0.22 1.04-0.67 1.38-0.44 0.32-1.08 0.48-1.91 0.48-0.62 0-1.24-0.1-1.86-0.29-0.64-0.2-1.28-0.49-1.92-0.87v2.07c0.68 0.26 1.33 0.45 1.95 0.57 0.62 0.13 1.22 0.2 1.8 0.2 1.37 0 2.45-0.33 3.24-0.99 0.79-0.67 1.19-1.57 1.19-2.7 0-1-0.27-1.78-0.81-2.33-0.52-0.56-1.4-1-2.64-1.3l-0.62-0.15c-0.94-0.24-1.56-0.49-1.87-0.75-0.31-0.28-0.47-0.65-0.47-1.11 0-0.61 0.22-1.07 0.66-1.37 0.43-0.31 1.08-0.46 1.96-0.46 0.57 0 1.13 0.1 1.67 0.22 0.52 0.14 1.04 0.36 1.54 0.65v-1.89c-0.48-0.22-1.01-0.39-1.58-0.49-0.58-0.12-1.19-0.17-1.84-0.17zm-183.07 0.14c-0.84 0-1.58 0.17-2.22 0.53-0.63 0.35-1.18 0.89-1.65 1.62v-1.87h-1.98v11.98h1.98v-6.76c0-1.17 0.3-2.09 0.91-2.77s1.45-1.01 2.52-1.01c0.88 0 1.55 0.28 1.99 0.84 0.44 0.55 0.67 1.4 0.67 2.54v7.16h1.95v-7.23c0-1.65-0.35-2.9-1.04-3.75-0.71-0.86-1.75-1.28-3.13-1.28zm69.63 0 4.49 12.34h2.68l4.5-12.34h-2.09l-3.75 10.36-3.75-10.36h-2.08zm-115.65 0.12v7.43c0 1.68 0.38 2.95 1.15 3.83 0.76 0.88 1.87 1.32 3.35 1.32 0.89 0 1.68-0.18 2.36-0.54 0.67-0.36 1.26-0.92 1.78-1.67v1.89h2.12v-12.26h-2.12v6.95c0 1.2-0.33 2.14-0.99 2.84-0.66 0.69-1.56 1.04-2.7 1.04-0.95 0-1.66-0.29-2.13-0.87-0.48-0.59-0.72-1.46-0.72-2.62v-7.34h-2.1zm149.83 0 5.01 9.63c-1.31 2.6-2.81 5.48-4.1 8.32l1.14 0.1c3.26-6.47 5.22-10.36 9.24-18.05h-1.58l-4.07 8.22-4.31-8.16-1.33-0.1zm63.33 0v7.43c0 1.68 0.35 2.95 1.07 3.83s1.77 1.32 3.16 1.32c0.84 0 1.58-0.18 2.21-0.54 0.64-0.36 1.2-0.92 1.68-1.67v1.89h1.99v-12.26h-1.99v6.95c0 1.2-0.31 2.14-0.93 2.84-0.62 0.69-1.47 1.04-2.53 1.04-0.9 0-1.57-0.29-2.01-0.87-0.45-0.59-0.67-1.46-0.67-2.62v-7.34h-1.98zm-191.92 0v12.21h1.62v-12.21h-1.62zm91.55 0v12.17h1.43v-12.17h-1.43zm-81.31 0.83c1.14 0 2.05 0.45 2.72 1.36 0.67 0.9 1 2.12 1 3.67 0 1.54-0.33 2.77-1 3.68-0.67 0.89-1.58 1.34-2.72 1.34-1.15 0-2.06-0.45-2.73-1.33-0.67-0.91-1-2.14-1-3.69 0-1.56 0.33-2.79 1.01-3.69 0.67-0.9 1.58-1.34 2.72-1.34zm68.98 0.11c1 0 1.8 0.33 2.4 0.99 0.62 0.65 0.93 1.53 0.93 2.65h-7.21c0.1-1.16 0.49-2.06 1.17-2.69 0.68-0.64 1.58-0.96 2.71-0.96zm33.26 0.32c0.98 0 1.77 0.33 2.37 0.99 0.62 0.64 0.93 1.52 0.93 2.63h-7.14c0.1-1.16 0.49-2.05 1.15-2.68 0.68-0.64 1.57-0.95 2.69-0.95zm59.93 0.1c1.17 0 2.1 0.42 2.8 1.27 0.68 0.84 1.03 1.98 1.03 3.42s-0.35 2.59-1.03 3.43c-0.7 0.84-1.63 1.26-2.8 1.26-1.19 0-2.13-0.42-2.81-1.25-0.68-0.84-1.02-1.99-1.02-3.44 0-1.46 0.34-2.6 1.03-3.44 0.68-0.84 1.62-1.25 2.8-1.25zm-206.3 0c1.19 0 2.14 0.42 2.84 1.28 0.7 0.84 1.05 2 1.05 3.46s-0.35 2.61-1.05 3.47c-0.7 0.84-1.65 1.26-2.84 1.26-1.21 0-2.17-0.42-2.87-1.26-0.7-0.85-1.04-2.01-1.04-3.47 0-1.48 0.35-2.63 1.05-3.47 0.7-0.85 1.65-1.27 2.86-1.27zm74.16 7.99v2.59h1.83v-2.59h-1.83zm98.23 0v2.53h1.89v-2.53h-1.89zm74.82 0v2.59h1.52v-2.59h-1.52z"/>
</g>
</g>
</svg>
