<?xml version="1.0" encoding="UTF-8" standalone="no"?>
<!-- Created with Inkscape (http://www.inkscape.org/) -->

<svg xmlns:dc="http://purl.org/dc/elements/1.1/" xmlns:cc="http://creativecommons.org/ns#" xmlns:rdf="http://www.w3.org/1999/02/22-rdf-syntax-ns#" xmlns:svg="http://www.w3.org/2000/svg" xmlns="http://www.w3.org/2000/svg" xmlns:sodipodi="http://sodipodi.sourceforge.net/DTD/sodipodi-0.dtd" xmlns:inkscape="http://www.inkscape.org/namespaces/inkscape" width="250" height="91" viewBox="0 0 250 91" id="svg2" version="1.1" inkscape:version="0.91 r13725" sodipodi:docname="bjss.svg">
  <defs id="defs4" />
  <sodipodi:namedview id="base" pagecolor="#ffffff" bordercolor="#666666" borderopacity="1.0" inkscape:pageopacity="0.0" inkscape:pageshadow="2" inkscape:zoom="1.9799" inkscape:cx="183.26" inkscape:cy="27.908" inkscape:document-units="px" inkscape:current-layer="layer1" showgrid="false" inkscape:window-width="1280" inkscape:window-height="752" inkscape:window-x="0" inkscape:window-y="0" inkscape:window-maximized="1" units="px" />
  <metadata id="metadata7">
    <rdf:RDF>
      <cc:Work rdf:about="">
        <dc:format>image/svg+xml</dc:format>
        <dc:type rdf:resource="http://purl.org/dc/dcmitype/StillImage" />
        <dc:title></dc:title>
      </cc:Work>
    </rdf:RDF>
  </metadata>
  <g inkscape:label="Layer 1" inkscape:groupmode="layer" id="layer1" transform="translate(0,-961.4)">
    <rect style="opacity:0.001;fill:#ffffff;fill-opacity:1;stroke:none;stroke-width:2.5;stroke-linecap:round;stroke-linejoin:round;stroke-miterlimit:4;stroke-dasharray:none;stroke-dashoffset:0;stroke-opacity:1" id="rect4175" width="250" height="91" x="0" y="961.4" />
    <g transform="matrix(0.30855,0,0,0.30855,52.971,843.54)" id="layer1-3" inkscape:label="Layer 1" style="fill:#ffffff;fill-opacity:1">
      <path id="path4160" transform="translate(53.14,416.02)" d="m 4.0723,0 c -0.253,0 -0.5686,0.69995 -0.7266,1.5898 -2.50291,11.8202 -4.08647,25.6302 -3.1875,38.5902 0.491,6.84 1.6747,15.109 3.7227,22.508 0.057,0 3.8814,-1.669 8.4941,-3.719 l 8.4,-3.729 c -1.588,-6.83 -2.464,-14.661 -2.218,-22.051 0.08,-8.337 1.029,-17.069 2.136,-25.5992 -5.507,-2.5197 -10.938,-5.0598 -16.6207,-7.5898 z m 26.7367,0 c -1.83,4.1997 -2.44,8.9315 -3.141,15.23 -0.701,6.3 -0.772,17.769 -0.5,26.649 0.363,6.58 1.67,14.13 3.727,20.809 6.067,-2.41 11.104,-4.989 16.664,-7.409 -1.939,-8.77 -2.294,-19.41 -2.133,-28.08 0.161,-8.67 0.861,-12.92 2.074,-19.3396 -4.937,-2.27 -10.793,-5.0994 -16.691,-7.8594 z m 26.925,0 c -0.07,0 -0.189,0.26914 -0.289,0.61914 -2.8,9.89986 -3.391,19.98086 -3.621,30.80086 0.01,8.8 0.845,20.789 3.895,31.309 5.6,-2.44 11.156,-5.02 16.736,-7.52 -1.11,-4.51 -1.44,-9.41 -2,-14.27 -0.26,-1.65 -0.26,-14.459 0,-16.529 0.7,-5.59 0.929,-11.351 2.129,-16.8006 -5.24,-2.32 -10.56,-4.8794 -16.85,-7.6094 z m 35.69,0 c -0.08,0 -0.18,13.819 -0.18,68.639 l 0,68.631 c 12.926,4.35 27.426,7.41 42.646,6.41 10.01,-2.14 22.41,-5.13 30,-14.4 10.46,-12.08 13.44,-28.11 11.4,-43.52 -1.41,-10.05 -5.21,-20.94 -13.24,-28.75 -8.99,-9.29 -22.39,-11.301 -33.45,-9.981 -0.52,0.09 -1.51,0.31 -2.22,0.44 -5.69,1.01 -11.49,3.971 -16.07,7.461 l -0.46,0.379 -0.1,-23.539 -0.1,-23.5298 -9.02,-4.1093 c -4.963,-2.26 -9.106,-4.1309 -9.206,-4.1309 z m 106.386,8.9297 c -6.21,-6e-4 -11.25,5.0363 -11.25,11.2503 0,6.213 5.04,11.251 11.25,11.25 6.21,0 11.25,-5.037 11.25,-11.25 0,-6.214 -5.04,-11.2509 -11.25,-11.2503 z m 53.68,37.9553 c -0.6,-0.01 -1.2,-0.01 -1.79,0 -1.36,0.03 -2.67,0.111 -3.93,0.258 -10.43,1.481 -19.81,8.74 -22.43,18.203 l -0.62,2.306 0,3.032 c -0.12,5.27 1.59,10.35 4.37,14.427 4.1,5.368 9.25,9.192 14.89,12.67 7.31,5.689 20.05,8.039 23.53,17.219 1.83,4.83 -1.6,9.2 -5.14,11.03 -5.28,2.31 -11.19,2.57 -16.32,0.37 -7.65,-2.16 -15.1,-6.63 -21.7,-10.58 0,0 -0.1,4.49 -0.1,9.98 l 0,10.01 c 5.63,2.6 11.66,5.04 16.68,6.58 9.37,2.29 20.36,2.82 29.53,-1.08 8.2,-3.11 14.27,-9.57 16.19,-17.18 0.86,-3.45 1.07,-7.48 0.55,-10.36 -1.35,-7.29 -5.84,-13.781 -11.69,-18.329 -7.83,-6.741 -17.68,-9.661 -25.83,-15.976 -4.22,-3.098 -6.93,-8.455 -4.45,-12.889 0.9,-1.48 5.03,-3.382 8.36,-3.892 11.27,-1.608 19.87,6.206 29.33,9.796 0,-0.06 0.1,-4.009 0.1,-9.128 l -0.1,-9 c -9.63,-4.642 -20.32,-7.311 -29.43,-7.469 z m 73.22,0.361 c -0.61,-0.01 -1.21,-0.01 -1.8,0 -1.35,0.03 -2.66,0.114 -3.92,0.262 -10.43,1.48 -19.81,8.729 -22.43,18.199 l -0.62,2.311 0,3.019 c -0.12,5.28 1.59,10.36 4.37,14.43 4.1,5.37 9.25,9.2 14.89,12.67 7.31,5.693 20.03,8.043 23.51,17.223 1.83,4.83 -1.58,9.2 -5.12,11.03 -5.28,2.31 -11.19,2.57 -16.32,0.37 -7.65,-2.16 -15.1,-6.63 -21.7,-10.58 0,0 -0.1,4.49 -0.1,9.98 l 0,10.01 c 5.63,2.6 11.66,5.04 16.68,6.58 9.37,2.29 20.36,2.82 29.53,-1.08 8.2,-3.11 14.27,-9.57 16.19,-17.18 0.86,-3.45 1.07,-7.48 0.55,-10.36 -1.35,-7.29 -5.86,-13.78 -11.71,-18.335 -7.83,-6.74 -17.66,-9.661 -25.81,-15.981 -4.22,-3.09 -6.93,-8.449 -4.45,-12.878 0.9,-1.48 5.03,-3.389 8.36,-3.899 11.27,-1.6 19.86,6.211 29.31,9.801 0,-0.1 0.12,-4.011 0.12,-9.131 l -0.12,-9 c -9.61,-4.635 -20.3,-7.305 -29.41,-7.463 z m -135.53,1.141 0,54.523 0,54.51 -0.43,2.09 c -1.41,6.54 -4.58,13.14 -11.28,16.11 -2.44,1.19 -2.91,0.31 3.74,6.82 3.16,3.09 6.21,6.06 6.75,6.6 l 0.1,0 c 0.55,0.51 0.92,0.95 1.02,0.95 7.49,-4.08 16.1,-13.89 17.87,-24.11 1.01,-4.1 1.01,-2.62 0.91,-63.35 l -0.1,-54.083 -9.28,0 -9.3,-0.06 z m -58.68,15.275 0,0 c 0.49,-0.01 0.99,0 1.49,0.01 2.66,0.09 5.32,0.571 7.93,1.478 12.63,3.47 16.88,18.51 17.36,30.039 -0.99,11.951 -4.22,22.181 -15.18,28.471 -8.73,5.72 -23.02,2.59 -32.38,0.28 l 0,-25.401 0,-25.398 0.75,-0.877 c 5.35,-5.302 12.59,-8.459 20.03,-8.604 z m -33.662,138.808 c -1.567,0 -2.796,0.46 -3.69,1.39 -0.88,0.92 -1.32,2.19 -1.32,3.81 0,1.39 0.321,2.48 0.961,3.26 0.647,0.78 1.689,1.35 3.129,1.72 l 1.17,0.29 c 0.982,0.25 1.692,0.63 2.122,1.14 0.43,0.5 0.65,1.2 0.65,2.1 0,1.02 -0.3,1.81 -0.91,2.37 -0.6,0.55 -1.452,0.83 -2.552,0.83 -0.726,0 -1.467,-0.15 -2.22,-0.43 -0.747,-0.29 -1.512,-0.71 -2.299,-1.27 l 0,2.54 c 0.813,0.38 1.599,0.67 2.359,0.87 0.767,0.19 1.487,0.29 2.16,0.29 1.792,0 3.152,-0.46 4.082,-1.37 0.93,-0.92 1.4,-2.25 1.4,-4.01 0,-1.49 -0.35,-2.67 -1.04,-3.54 -0.68,-0.9 -1.74,-1.52 -3.192,-1.86 l -1.16,-0.31 c -1.053,-0.25 -1.773,-0.58 -2.16,-0.98 -0.373,-0.42 -0.56,-1.04 -0.56,-1.84 0,-0.96 0.284,-1.7 0.851,-2.22 0.573,-0.52 1.383,-0.78 2.43,-0.78 0.606,0 1.241,0.11 1.901,0.33 0.65,0.22 1.33,0.55 2.07,1 l 0,-2.4 c -0.74,-0.31 -1.45,-0.55 -2.14,-0.7 -0.69,-0.16 -1.375,-0.23 -2.042,-0.23 z m 138.562,0.1 0.1,2.38 1.43,0 -0.1,-2.38 -1.43,0 z m -36.61,0 0,18.47 5.42,0 c 3.76,0 6.53,-0.75 8.31,-2.23 1.77,-1.5 2.66,-3.84 2.66,-7.03 0,-3.16 -0.89,-5.49 -2.65,-6.97 -1.76,-1.5 -4.54,-2.24 -8.32,-2.24 l -5.42,0 z m 100.75,0 0,18.47 2.22,0 0,-8.82 6.36,0 0,-2.1 -6.36,0 0,-5.45 7.19,0 0,-2.1 -9.41,0 z m -68.86,0 0,18.42 1.23,0 0,-18.42 -1.23,0 z m -86.83,0 0,2.26 1.62,0 0,-2.26 -1.62,0 z m -25.41,0 0,18.36 1.54,0 0,-18.36 -1.54,0 z m 82.99,1.95 3.19,0 c 2.68,0 4.65,0.57 5.89,1.72 1.25,1.14 1.88,2.95 1.88,5.43 0,2.49 -0.63,4.32 -1.88,5.48 -1.24,1.15 -3.21,1.73 -5.89,1.73 l -3.19,0 0,-14.36 z m -63.15,0.31 -1.38,1.39 0,2.56 -3.23,0 0,1.56 3.23,0 0,6.59 c 0,1.52 0.33,2.57 0.99,3.15 0.66,0.57 1.36,1.07 2.2,0.85 l 2.19,-0.57 0,-1.35 -2.12,0.63 c -0.93,0.1 -1.43,-0.8 -1.43,-0.8 -0.3,-0.28 -0.45,-0.92 -0.45,-1.91 l 0,-6.59 3.56,0 0,-1.56 -3.56,0 0,-3.95 z m 15.81,2.93 c -1.87,0 -3.34,0.61 -4.4,1.83 -1.06,1.2 -1.59,2.88 -1.59,5.03 0,2.13 0.53,3.8 1.59,5.02 1.06,1.22 2.53,1.83 4.4,1.83 1.86,0 3.33,-0.61 4.4,-1.83 1.06,-1.22 1.6,-2.89 1.6,-5.02 0,-2.15 -0.54,-3.83 -1.6,-5.03 -1.07,-1.22 -2.54,-1.83 -4.4,-1.83 z m 68.96,0.22 c -1.85,0 -3.32,0.59 -4.41,1.78 -1.08,1.18 -1.62,2.78 -1.62,4.79 0,1.95 0.57,3.5 1.71,4.64 1.15,1.14 2.71,1.72 4.68,1.72 0.78,0 1.55,-0.1 2.31,-0.24 0.76,-0.17 1.5,-0.41 2.23,-0.71 l 0,-1.91 c -0.72,0.38 -1.44,0.66 -2.17,0.86 -0.73,0.18 -1.48,0.28 -2.26,0.28 -1.34,0 -2.38,-0.36 -3.14,-1.08 -0.75,-0.74 -1.17,-1.81 -1.25,-3.19 l 9.3,0 0,-0.99 c 0,-1.83 -0.49,-3.28 -1.45,-4.34 -0.96,-1.08 -2.27,-1.61 -3.93,-1.61 z m -44.19,0.28 c -1.25,0 -2.21,0.31 -2.89,0.95 -0.68,0.63 -1.02,1.53 -1.02,2.7 0,0.96 0.23,1.72 0.69,2.27 0.46,0.55 1.21,0.96 2.25,1.23 l 0.59,0.16 c 1.04,0.27 1.71,0.55 2.01,0.85 0.3,0.3 0.46,0.72 0.46,1.28 0,0.59 -0.21,1.05 -0.63,1.39 -0.43,0.32 -1.04,0.49 -1.83,0.49 -0.59,0 -1.18,-0.1 -1.78,-0.29 -0.61,-0.2 -1.22,-0.5 -1.83,-0.89 l 0,2.11 c 0.66,0.26 1.28,0.45 1.86,0.58 0.6,0.13 1.17,0.2 1.72,0.2 1.31,0 2.34,-0.34 3.08,-1.01 0.76,-0.68 1.14,-1.59 1.14,-2.74 0,-1.01 -0.26,-1.8 -0.76,-2.36 -0.5,-0.57 -1.35,-1.01 -2.54,-1.31 l -0.57,-0.16 c -0.9,-0.24 -1.5,-0.5 -1.79,-0.76 -0.3,-0.28 -0.44,-0.66 -0.44,-1.13 0,-0.62 0.2,-1.08 0.62,-1.39 0.41,-0.32 1.04,-0.47 1.87,-0.47 0.54,0 1.07,0.1 1.59,0.23 0.5,0.14 0.99,0.36 1.47,0.66 l 0,-1.92 c -0.46,-0.23 -0.97,-0.4 -1.52,-0.5 -0.54,-0.12 -1.13,-0.17 -1.75,-0.17 z m 151.35,0 c -1.85,0 -3.31,0.58 -4.37,1.74 -1.06,1.16 -1.58,2.75 -1.58,4.77 0,2 0.52,3.58 1.58,4.76 1.04,1.17 2.46,1.76 4.25,1.76 0.65,0 1.26,-0.1 1.84,-0.2 0.58,-0.14 1.15,-0.34 1.69,-0.6 l 0,-1.89 c -0.55,0.32 -1.1,0.56 -1.66,0.73 -0.55,0.15 -1.11,0.23 -1.67,0.23 -1.26,0 -2.23,-0.42 -2.93,-1.26 -0.7,-0.84 -1.05,-2.02 -1.05,-3.53 0,-1.52 0.35,-2.69 1.05,-3.52 0.7,-0.84 1.67,-1.26 2.93,-1.26 0.56,0 1.12,0.1 1.67,0.24 0.56,0.15 1.11,0.39 1.66,0.71 l 0,-1.9 c -0.53,-0.26 -1.09,-0.46 -1.66,-0.58 -0.57,-0.14 -1.15,-0.2 -1.75,-0.2 z m -73.9,0.1 c -1.83,0 -3.28,0.59 -4.36,1.77 -1.08,1.18 -1.61,2.76 -1.61,4.76 0,1.94 0.56,3.47 1.7,4.6 1.13,1.14 2.67,1.71 4.61,1.71 0.78,0 1.54,-0.1 2.3,-0.23 0.75,-0.17 1.49,-0.41 2.21,-0.71 l 0,-1.9 c -0.72,0.38 -1.44,0.67 -2.16,0.85 -0.72,0.18 -1.46,0.28 -2.22,0.28 -1.34,0 -2.37,-0.36 -3.11,-1.07 -0.74,-0.74 -1.16,-1.79 -1.24,-3.17 l 9.19,0 0,-0.98 c 0,-1.82 -0.48,-3.26 -1.43,-4.31 -0.96,-1.07 -2.25,-1.6 -3.88,-1.6 z m -146.35,0.1 c -1.96,0 -3.5,0.57 -4.61,1.72 -1.11,1.14 -1.66,2.72 -1.66,4.74 0,2.01 0.55,3.59 1.66,4.73 1.11,1.14 2.65,1.72 4.61,1.72 1.95,0 3.49,-0.58 4.6,-1.72 1.11,-1.14 1.67,-2.72 1.67,-4.73 0,-2.02 -0.56,-3.6 -1.67,-4.74 -1.11,-1.15 -2.65,-1.72 -4.6,-1.72 z m 160.19,0 c -1.03,0 -1.9,0.18 -2.61,0.55 -0.72,0.36 -1.3,0.91 -1.74,1.66 l 0,-1.91 -2.14,0 0,12.31 2.14,0 0,-6.49 c 0,-1.4 0.32,-2.46 0.96,-3.19 0.64,-0.76 1.56,-1.13 2.77,-1.13 0.33,0 0.63,0 0.91,0.1 0.28,0.1 0.55,0.15 0.79,0.29 l 0,0 0,-2.08 c -0.22,-0.1 -0.41,-0.1 -0.59,-0.1 l -0.48,0 z m 46.11,0 c -1.92,0 -3.43,0.56 -4.51,1.7 -1.09,1.12 -1.63,2.69 -1.63,4.69 0,1.99 0.54,3.55 1.63,4.69 1.08,1.13 2.59,1.7 4.51,1.7 1.92,0 3.42,-0.57 4.51,-1.7 1.1,-1.14 1.65,-2.7 1.65,-4.69 0,-2 -0.55,-3.57 -1.65,-4.69 -1.09,-1.14 -2.59,-1.7 -4.51,-1.7 z m 35.44,0.1 c -1.32,0 -2.33,0.31 -3.04,0.93 -0.72,0.62 -1.07,1.51 -1.07,2.67 0,0.94 0.24,1.69 0.73,2.24 0.48,0.54 1.27,0.94 2.36,1.2 l 0.61,0.16 c 1.09,0.27 1.79,0.55 2.1,0.85 0.33,0.28 0.49,0.7 0.49,1.25 0,0.58 -0.22,1.04 -0.67,1.38 -0.44,0.32 -1.08,0.48 -1.91,0.48 -0.62,0 -1.24,-0.1 -1.86,-0.29 -0.64,-0.2 -1.28,-0.49 -1.92,-0.87 l 0,2.07 c 0.68,0.26 1.33,0.45 1.95,0.57 0.62,0.13 1.22,0.2 1.8,0.2 1.37,0 2.45,-0.33 3.24,-0.99 0.79,-0.67 1.19,-1.57 1.19,-2.7 0,-1 -0.27,-1.78 -0.81,-2.33 -0.52,-0.56 -1.4,-1 -2.64,-1.3 l -0.62,-0.15 c -0.94,-0.24 -1.56,-0.49 -1.87,-0.75 -0.31,-0.28 -0.47,-0.65 -0.47,-1.11 0,-0.61 0.22,-1.07 0.66,-1.37 0.43,-0.31 1.08,-0.46 1.96,-0.46 0.57,0 1.13,0.1 1.67,0.22 0.52,0.14 1.04,0.36 1.54,0.65 l 0,-1.89 c -0.48,-0.22 -1.01,-0.39 -1.58,-0.49 -0.58,-0.12 -1.19,-0.17 -1.84,-0.17 z m -183.07,0.14 c -0.84,0 -1.58,0.17 -2.22,0.53 -0.63,0.35 -1.18,0.89 -1.65,1.62 l 0,-1.87 -1.98,0 0,11.98 1.98,0 0,-6.76 c 0,-1.17 0.3,-2.09 0.91,-2.77 0.61,-0.68 1.45,-1.01 2.52,-1.01 0.88,0 1.55,0.28 1.99,0.84 0.44,0.55 0.67,1.4 0.67,2.54 l 0,7.16 1.95,0 0,-7.23 c 0,-1.65 -0.35,-2.9 -1.04,-3.75 -0.71,-0.86 -1.75,-1.28 -3.13,-1.28 z m 69.63,0 4.49,12.34 2.68,0 4.5,-12.34 -2.09,0 -3.75,10.36 -3.75,-10.36 -2.08,0 z m -115.65,0.12 0,7.43 c 0,1.68 0.38,2.95 1.15,3.83 0.76,0.88 1.87,1.32 3.35,1.32 0.89,0 1.68,-0.18 2.36,-0.54 0.67,-0.36 1.26,-0.92 1.78,-1.67 l 0,1.89 2.12,0 0,-12.26 -2.12,0 0,6.95 c 0,1.2 -0.33,2.14 -0.99,2.84 -0.66,0.69 -1.56,1.04 -2.7,1.04 -0.95,0 -1.66,-0.29 -2.13,-0.87 -0.48,-0.59 -0.72,-1.46 -0.72,-2.62 l 0,-7.34 -2.1,0 z m 149.83,0 5.01,9.63 c -1.31,2.6 -2.81,5.48 -4.1,8.32 l 1.14,0.1 0,0 c 3.26,-6.47 5.22,-10.36 9.24,-18.05 l -1.58,0 -4.07,8.22 -4.31,-8.16 -1.33,-0.1 z m 63.33,0 0,7.43 c 0,1.68 0.35,2.95 1.07,3.83 0.72,0.88 1.77,1.32 3.16,1.32 0.84,0 1.58,-0.18 2.21,-0.54 0.64,-0.36 1.2,-0.92 1.68,-1.67 l 0,1.89 1.99,0 0,-12.26 -1.99,0 0,6.95 c 0,1.2 -0.31,2.14 -0.93,2.84 -0.62,0.69 -1.47,1.04 -2.53,1.04 -0.9,0 -1.57,-0.29 -2.01,-0.87 -0.45,-0.59 -0.67,-1.46 -0.67,-2.62 l 0,-7.34 -1.98,0 z m -191.92,0 0,12.21 1.62,0 0,-12.21 -1.62,0 z m 91.55,0 0,12.17 1.43,0 0,-12.17 -1.43,0 z m -81.31,0.83 c 1.14,0 2.05,0.45 2.72,1.36 0.67,0.9 1,2.12 1,3.67 0,1.54 -0.33,2.77 -1,3.68 -0.67,0.89 -1.58,1.34 -2.72,1.34 -1.15,0 -2.06,-0.45 -2.73,-1.33 -0.67,-0.91 -1,-2.14 -1,-3.69 0,-1.56 0.33,-2.79 1.01,-3.69 0.67,-0.9 1.58,-1.34 2.72,-1.34 z m 68.98,0.11 c 1,0 1.8,0.33 2.4,0.99 0.62,0.65 0.93,1.53 0.93,2.65 l 0,0 -7.21,0 c 0.1,-1.16 0.49,-2.06 1.17,-2.69 0.68,-0.64 1.58,-0.96 2.71,-0.96 z m 33.26,0.32 c 0.98,0 1.77,0.33 2.37,0.99 0.62,0.64 0.93,1.52 0.93,2.63 l 0,0 -7.14,0 c 0.1,-1.16 0.49,-2.05 1.15,-2.68 0.68,-0.64 1.57,-0.95 2.69,-0.95 z m 59.93,0.1 c 1.17,0 2.1,0.42 2.8,1.27 0.68,0.84 1.03,1.98 1.03,3.42 0,1.44 -0.35,2.59 -1.03,3.43 -0.7,0.84 -1.63,1.26 -2.8,1.26 -1.19,0 -2.13,-0.42 -2.81,-1.25 -0.68,-0.84 -1.02,-1.99 -1.02,-3.44 0,-1.46 0.34,-2.6 1.03,-3.44 0.68,-0.84 1.62,-1.25 2.8,-1.25 z m -206.3,0 c 1.19,0 2.14,0.42 2.84,1.28 0.7,0.84 1.05,2 1.05,3.46 0,1.46 -0.35,2.61 -1.05,3.47 -0.7,0.84 -1.65,1.26 -2.84,1.26 -1.21,0 -2.17,-0.42 -2.87,-1.26 -0.7,-0.85 -1.04,-2.01 -1.04,-3.47 0,-1.48 0.35,-2.63 1.05,-3.47 0.7,-0.85 1.65,-1.27 2.86,-1.27 z m 74.16,7.99 0,2.59 1.83,0 0,-2.59 -1.83,0 z m 98.23,0 0,2.53 1.89,0 0,-2.53 -1.89,0 z m 74.82,0 0,2.59 1.52,0 0,-2.59 -1.52,0 z" style="font-style:normal;font-variant:normal;font-weight:normal;font-stretch:normal;font-size:25.0003px;line-height:125%;font-family:'Al Bayan';-inkscape-font-specification:'Al Bayan';text-align:start;letter-spacing:-2.02002px;word-spacing:1.83016px;writing-mode:lr-tb;text-anchor:start;fill:#ffffff;fill-opacity:1;stroke:none;stroke-width:1px;stroke-linecap:butt;stroke-linejoin:miter;stroke-opacity:1" inkscape:connector-curvature="0" />
      <path inkscape:connector-curvature="0" id="path4239" d="" style="fill:#ffffff;fill-opacity:1" />
    </g>
  </g>
</svg>
