<?xml version="1.0" encoding="UTF-8" standalone="no"?>
<!-- Created with Inkscape (http://www.inkscape.org/) -->

<svg xmlns:dc="http://purl.org/dc/elements/1.1/" xmlns:cc="http://creativecommons.org/ns#" xmlns:rdf="http://www.w3.org/1999/02/22-rdf-syntax-ns#" xmlns:svg="http://www.w3.org/2000/svg" xmlns="http://www.w3.org/2000/svg" xmlns:sodipodi="http://sodipodi.sourceforge.net/DTD/sodipodi-0.dtd" xmlns:inkscape="http://www.inkscape.org/namespaces/inkscape" width="250" height="91" viewBox="0 0 250 91" id="svg2" version="1.1" inkscape:version="0.91 r13725" sodipodi:docname="bloom.svg">
  <defs id="defs4">
    <clipPath clipPathUnits="userSpaceOnUse" id="clipPath4245">
      <path d="m 0,0 595.276,0 0,841.89 L 0,841.89 0,0 z" id="path4247" inkscape:connector-curvature="0" />
    </clipPath>
    <clipPath clipPathUnits="userSpaceOnUse" id="clipPath4273">
      <path d="m 0,0 595.276,0 0,841.89 L 0,841.89 0,0 z" id="path4275" inkscape:connector-curvature="0" />
    </clipPath>
    <clipPath clipPathUnits="userSpaceOnUse" id="clipPath4289">
      <path d="m 0,0 595.276,0 0,841.89 L 0,841.89 0,0 z" id="path4291" inkscape:connector-curvature="0" />
    </clipPath>
    <clipPath clipPathUnits="userSpaceOnUse" id="clipPath4315">
      <path d="m 0,0 595.276,0 0,841.89 L 0,841.89 0,0 z" id="path4317" inkscape:connector-curvature="0" />
    </clipPath>
    <clipPath clipPathUnits="userSpaceOnUse" id="clipPath4351">
      <path d="m 0,0 595.276,0 0,841.89 L 0,841.89 0,0 z" id="path4353" inkscape:connector-curvature="0" />
    </clipPath>
    <clipPath clipPathUnits="userSpaceOnUse" id="clipPath4387">
      <path d="m 0,0 595.276,0 0,841.89 L 0,841.89 0,0 z" id="path4389" inkscape:connector-curvature="0" />
    </clipPath>
    <clipPath clipPathUnits="userSpaceOnUse" id="clipPath4419">
      <path d="m 0,98.049 75.868,-43.428 519.407,30.425 0,287.415 L 0,517.592 0,98.049 z" id="path4421" inkscape:connector-curvature="0" />
    </clipPath>
  </defs>
  <sodipodi:namedview id="base" pagecolor="#ffffff" bordercolor="#666666" borderopacity="1.0" inkscape:pageopacity="0.0" inkscape:pageshadow="2" inkscape:zoom="2.8" inkscape:cx="119.5" inkscape:cy="52.722" inkscape:document-units="px" inkscape:current-layer="layer1" showgrid="true" inkscape:window-width="1280" inkscape:window-height="752" inkscape:window-x="0" inkscape:window-y="0" inkscape:window-maximized="1" units="px">
    <inkscape:grid type="xygrid" id="grid5735" />
  </sodipodi:namedview>
  <metadata id="metadata7">
    <rdf:RDF>
      <cc:Work rdf:about="">
        <dc:format>image/svg+xml</dc:format>
        <dc:type rdf:resource="http://purl.org/dc/dcmitype/StillImage" />
        <dc:title></dc:title>
      </cc:Work>
    </rdf:RDF>
  </metadata>
  <g inkscape:label="Layer 1" inkscape:groupmode="layer" id="layer1" transform="translate(0,-961.4)">
    <rect style="opacity:0.001;fill:#ffffff;fill-opacity:1;stroke:none;stroke-width:2.5;stroke-linecap:round;stroke-linejoin:round;stroke-miterlimit:4;stroke-dasharray:none;stroke-dashoffset:0;stroke-opacity:1" id="rect4175" width="250" height="91" x="0" y="961.4" />
    <path style="fill:#ffffff;fill-opacity:1" d="" id="path4239" inkscape:connector-curvature="0" />
    <g transform="matrix(0.22899,0,0,0.22899,101.48,891.01)" id="layer1-2" inkscape:label="Layer 1" style="fill:#ffffff;fill-opacity:1">
      <path style="fill:#ffffff;fill-opacity:1" d="m -50.117,506.14 0,-152.89 152.847,0 152.85,0 0,152.89 0,152.8 -152.85,0 -152.847,0 0,-152.8 z m 87.61,26 c 6.53,-3 10.38,-10.2 9.72,-18 -1.04,-12.4 -14.48,-19.5 -24.76,-13 -0.96,0.6 -1.95,1.1 -2.2,1.1 -0.33,0 -0.44,-3 -0.44,-11.6 0,-11.85 0,-11.97 -1.34,-11.68 -0.21,0 -1.93,0.47 -3.82,0.95 -1.89,0.48 -3.92,0.98 -4.51,1.12 -0.9005,0.22 -1.0605,0.43 -0.9605,1.29 0.1,0.89 0.34,1.06 1.8405,1.31 3.19,0.53 3.06,-0.28 3.06,18.31 0,10.6 0.15,17.1 0.42,18.4 0.65,3 2.18,6 4.3,8.2 3.61,3.8 6.86,5.1 12.47,5 3.15,-0.1 3.97,-0.3 6.22,-1.4 z m -7.36,-1.6 c -1.98,-0.3 -3.52,-1.3 -5.14,-3.1 -4.46,-4.9 -5.39,-15.7 -1.89,-21.6 3.6,-6.2 11.81,-5.4 15.28,1.5 3.71,7.3 2.36,19.2 -2.53,22.1 -1.9,1.1 -3.7,1.5 -5.72,1.1 z m 59.33,1.6 c 10.677,-5 13.217,-20.2 4.786,-28.7 -6.316,-6.4 -16.696,-6.2 -23.036,0.4 -6.51,6.8 -6.78,17.9 -0.6,24.6 3.6,3.8 7.08,5.2 12.63,5.1 3.15,-0.1 3.97,-0.3 6.22,-1.4 z m -7.37,-1.6 c -1.98,-0.3 -3.51,-1.3 -5.13,-3.1 -4.45,-4.9 -5.39,-15.7 -1.89,-21.6 3.6,-6.2 11.8,-5.4 15.28,1.5 3.706,7.3 2.346,19.2 -2.53,22.1 -1.9,1.1 -3.7,1.5 -5.73,1.1 z m 42.497,2.3 c 2.82,-0.9 4.72,-2.2 6.86,-4.5 3.45,-3.7 4.69,-7.4 4.45,-13.4 -0.14,-3.6 -0.31,-4.4 -1.36,-6.7 -4.81,-10.4 -18.17,-12.8 -26.24,-4.7 -3.51,3.5 -5.17,7.7 -5.18,13.1 0,7.9 4.43,14.2 11.65,16.4 2.38,0.8 7.36,0.7 9.82,-0.2 z m -5.77,-2.4 c -4.65,-0.8 -7.93,-5.6 -8.85,-12.9 -0.72,-5.7 0.68,-10.9 3.66,-13.7 2.79,-2.6 6.18,-3 9.53,-1.1 4.4,2.5 6.95,10.1 5.96,17.8 -0.95,7.4 -4.66,10.9 -10.3,9.9 z m -54.087,1.6 c 0.31,-1 -0.63,-1.9 -1.98,-1.9 -1.35,0 -2.69,-0.7 -3.16,-1.7 -0.29,-0.7 -0.42,-8.2 -0.42,-24.8 0,-16.8 -0.12,-23.94 -0.42,-24.12 -0.22,-0.14 -1.73,0.11 -3.34,0.54 -1.61,0.45 -3.87,1.02 -5.03,1.29 -1.85,0.43 -2.11,0.61 -2.22,1.51 -0.11,0.95 0,1.04 1.7,1.29 1.11,0.17 2.15,0.62 2.7,1.16 l 0.88,0.88 0,23.05 c 0,12.7 0.11,23.2 0.26,23.4 0.13,0.1 2.62,0.2 5.51,0.2 5.06,0 5.27,0 5.52,-0.8 z m 88.367,-0.4 c 0.11,-0.9 -0.1,-1.1 -1.42,-1.5 -2.69,-0.7 -2.71,-0.7 -2.71,-12.4 l 0,-10.5 1.72,-1.1 c 2.77,-1.9 4.77,-2.7 7.11,-2.7 2.6,0 4.29,1 5.47,3.2 0.74,1.5 0.79,2.2 0.79,11.6 0,11.2 0,11.3 -2.82,11.8 -2.07,0.4 -2.78,0.8 -2.64,1.8 0.11,0.8 0.18,0.8 8.14,0.8 l 8.02,0 0.12,-1 c 0.11,-0.9 -0.1,-1.1 -0.95,-1.3 -2.1,-0.5 -3.09,-1 -3.51,-1.9 -0.29,-0.7 -0.43,-4.4 -0.43,-11.1 l 0,-10.1 1.24,-0.9 c 2.46,-1.9 4.6,-2.7 7.16,-2.8 2.11,-0.2 2.68,0 3.79,0.7 0.72,0.5 1.67,1.6 2.1,2.4 0.75,1.5 0.8,2.2 0.8,11.6 l 0,10.1 -1.07,0.9 c -0.59,0.5 -1.53,0.9 -2.1,0.9 -1.46,0 -2.08,0.6 -1.93,1.6 l 0.13,0.9 7.84,0 7.83,0 0.12,-1 c 0.1,-0.9 -0.1,-1.1 -0.86,-1.3 -0.54,-0.1 -1.4,-0.3 -1.92,-0.4 -1.78,-0.3 -1.91,-1.1 -2.12,-12.8 -0.18,-10.3 -0.23,-10.9 -1.07,-12.8 -1.68,-3.7 -4.6,-5.6 -8.67,-5.6 -2.83,0 -4.15,0.5 -8.56,3.5 l -3.48,2.3 -1.22,-1.7 c -2.27,-3.2 -5.89,-4.8 -9.32,-4 -2.17,0.5 -3.48,1.1 -6.58,3.3 -1.32,0.9 -2.56,1.7 -2.77,1.7 -0.19,0 -0.36,-1.1 -0.36,-2.3 0,-2.6 -0.48,-3.1 -2.21,-2.3 -0.56,0.2 -2.55,0.8 -4.43,1.3 -3.82,1.1 -4.24,1.3 -3.89,2.4 0.17,0.6 0.71,0.9 1.72,1.1 2.91,0.4 2.89,0.3 2.89,13 0,12.8 0.1,12.4 -3.4,13.1 -2.05,0.4 -2.67,1 -2.1,2 0.35,0.7 0.95,0.7 7.91,0.6 l 7.52,-0.1 0.12,-1 z" id="path4249" inkscape:connector-curvature="0" />
      <path inkscape:connector-curvature="0" id="path4239-6" d="" style="fill:#ffffff;fill-opacity:1" />
    </g>
  </g>
</svg>
