<?xml version="1.0" encoding="UTF-8" standalone="no"?>
<svg xmlns:dc="http://purl.org/dc/elements/1.1/" xmlns:cc="http://creativecommons.org/ns#" xmlns:rdf="http://www.w3.org/1999/02/22-rdf-syntax-ns#" xmlns:svg="http://www.w3.org/2000/svg" xmlns="http://www.w3.org/2000/svg" xmlns:sodipodi="http://sodipodi.sourceforge.net/DTD/sodipodi-0.dtd" xmlns:inkscape="http://www.inkscape.org/namespaces/inkscape" version="1.1" id="Layer_1" x="0px" y="0px" viewBox="0 0 250 91" enable-background="new 0 0 368.5 180.1" xml:space="preserve" inkscape:version="0.91 r13725" sodipodi:docname="bloom.svg" width="250" height="91"><metadata id="metadata49"><rdf:RDF><cc:Work rdf:about=""><dc:format>image/svg+xml</dc:format><dc:type rdf:resource="http://purl.org/dc/dcmitype/StillImage" /><dc:title></dc:title></cc:Work></rdf:RDF></metadata><defs id="defs47" /><sodipodi:namedview pagecolor="#ffffff" bordercolor="#666666" borderopacity="1" objecttolerance="10" gridtolerance="10" guidetolerance="10" inkscape:pageopacity="0" inkscape:pageshadow="2" inkscape:window-width="1141" inkscape:window-height="581" id="namedview45" showgrid="false" inkscape:zoom="0.85753" inkscape:cx="184.25" inkscape:cy="90.05" inkscape:window-x="11" inkscape:window-y="18" inkscape:window-maximized="0" inkscape:current-layer="Layer_1" /><g id="g4177" transform="matrix(0.34603,0,0,0.34603,61.261,45.171)" style="fill:#ffffff"><g transform="translate(0,-89.1)" id="g3" style="fill:#ffffff"><path style="fill:#ffffff" inkscape:connector-curvature="0" id="path5" d="m 98.3,91.6 0,-90.5 c -4.7,1.8 -13.4,4.4 -21.3,5.3 l 0,4 c 9.9,0.6 10.8,1 10.8,11.3 l 0,85.6 0.5,0 21.2,0 0,-4.2 c -9.9,-0.7 -11.2,-1.6 -11.2,-11.5" /><path style="fill:#ffffff" inkscape:connector-curvature="0" id="path7" d="m 147,103.9 c -12.9,0 -21.5,-13.7 -21.5,-32.5 0,-17 8.7,-26.2 18.1,-26.2 13.7,0 21.2,14.5 21.2,31.3 -0.1,20 -8,27.4 -17.8,27.4 m -1.8,-63.9 c -13.3,0 -32.5,11 -32.5,36 0,16.6 12.4,33.1 32.6,33.1 14.2,0 32.2,-11.1 32.2,-35.7 0,-18.6 -14.2,-33.4 -32.3,-33.4" /><path style="fill:#ffffff" inkscape:connector-curvature="0" id="path9" d="m 44.5,103.9 c -13,0 -21.5,-13.8 -21.5,-32.5 0,-17 8.7,-26.2 18.1,-26.2 13.7,0 21.2,14.5 21.2,31.3 -0.1,20 -8,27.4 -17.8,27.4 m -1.8,-63.9 c -6.9,0 -15.4,3 -22,9.4 l 0,-49.4 c -5,2.1 -13.9,4.4 -20.7,5.3 l 0,3.9 c 9.9,0.7 10.2,1.6 10.2,10.8 l 0,56.2 0,0 c 0.1,16.6 12.5,33 32.6,33 14.2,0 32.2,-11.1 32.2,-35.7 0,-18.7 -14.2,-33.5 -32.3,-33.5" /><path style="fill:#ffffff" inkscape:connector-curvature="0" id="path11" d="m 219.7,103.9 c -12.9,0 -21.5,-13.7 -21.5,-32.5 0,-17 8.7,-26.2 18.1,-26.2 13.7,0 21.2,14.5 21.2,31.3 -0.1,20 -8,27.4 -17.8,27.4 m -1.8,-63.9 c -13.3,0 -32.5,11 -32.5,36 0,16.6 12.4,33.1 32.6,33.1 14.2,0 32.2,-11.1 32.2,-35.7 0,-18.6 -14.2,-33.4 -32.3,-33.4" /><path style="fill:#ffffff" inkscape:connector-curvature="0" id="path13" d="m 358.5,91.6 0,-28.8 c 0,-14.5 -7.8,-22.8 -19.1,-22.8 -4.5,0 -8.4,1.8 -11.5,3.7 -3.7,2.4 -8.1,5.2 -12.6,8.9 -3.2,-8.1 -9.7,-12.6 -16.6,-12.6 -5,0 -8.6,1.6 -12,3.9 -5,2.9 -8.4,5.8 -11.5,8.1 l 0,-12.4 c -6,3.1 -13.4,5 -20,6.1 l 0,3.9 c 9,1.3 9.5,1.8 9.5,11.6 l 0,30.4 c 0,9.9 -1.5,10.8 -11.6,11.6 l 0,4.2 31,0 0,-4.2 c -7.6,-0.8 -8.9,-1.8 -8.9,-11.6 l 0,-34.4 c 4.5,-3.7 11,-8.6 17.6,-8.6 9.5,0 13.4,6.6 13.4,17.8 l 0,25.2 c 0,9.9 -1.6,10.8 -11.3,11.6 l 0,4.2 32,0 0,-4.2 c -8.6,-0.8 -10,-1.8 -10,-11.3 l 0,-28.4 c 0,-2.9 -0.2,-4.5 -0.5,-6.3 5.8,-4.8 11.8,-8.6 17.9,-8.6 10,0 13.4,7.6 13.4,17.8 l 0,24.7 c 0,10.5 -1.8,11.3 -10.8,12.1 l 0,4.2 31.5,0 0,-4.2 c -8.8,-0.8 -9.9,-1.4 -9.9,-11.6" /></g><g transform="translate(0,-89.1)" id="g15" style="fill:#ffffff"><path style="fill:#ffffff" inkscape:connector-curvature="0" id="path17" d="m 41.1,172.7 c 0.8,0 1.6,-0.2 2.3,-0.5 0.7,-0.3 1.3,-0.9 1.8,-1.6 l 0,-5.1 c -0.5,-0.7 -1.1,-1.3 -1.8,-1.6 -0.7,-0.4 -1.4,-0.5 -2.3,-0.5 -0.6,0 -1.3,0.1 -1.8,0.4 -0.6,0.2 -1,0.6 -1.5,1 -0.4,0.4 -0.7,0.9 -1,1.5 -0.2,0.6 -0.3,1.2 -0.3,1.8 0,0.6 0.1,1.3 0.3,1.8 0.2,0.6 0.5,1.1 1,1.5 0.4,0.4 0.9,0.8 1.5,1 0.6,0.2 1.2,0.3 1.8,0.3 m 5.8,1.2 -1.8,0 0,-1.3 c -0.5,0.5 -1.2,0.9 -1.9,1.2 -0.7,0.3 -1.5,0.4 -2.4,0.4 -0.9,0 -1.6,-0.2 -2.4,-0.5 -0.7,-0.3 -1.4,-0.8 -1.9,-1.3 -0.5,-0.6 -1,-1.2 -1.3,-2 -0.3,-0.8 -0.5,-1.6 -0.5,-2.4 0,-0.9 0.2,-1.7 0.5,-2.4 0.3,-0.7 0.8,-1.4 1.3,-2 0.5,-0.6 1.2,-1 1.9,-1.3 0.7,-0.3 1.5,-0.5 2.4,-0.5 0.9,0 1.7,0.1 2.4,0.4 0.7,0.3 1.3,0.7 1.9,1.2 l 0,-1.3 1.8,0 0,11.8 z" /><path style="fill:#ffffff" inkscape:connector-curvature="0" id="path19" d="m 262.5,172.7 c 0.8,0 1.6,-0.2 2.3,-0.5 0.7,-0.4 1.3,-0.9 1.8,-1.6 l 0,-5.1 c -0.5,-0.7 -1.1,-1.3 -1.8,-1.6 -0.7,-0.4 -1.4,-0.5 -2.3,-0.5 -0.6,0 -1.3,0.1 -1.8,0.4 -0.6,0.2 -1,0.6 -1.5,1 -0.4,0.4 -0.7,0.9 -1,1.5 -0.2,0.6 -0.3,1.2 -0.3,1.8 0,0.6 0.1,1.3 0.3,1.8 0.2,0.6 0.5,1.1 1,1.5 0.4,0.4 0.9,0.8 1.5,1 0.6,0.2 1.2,0.3 1.8,0.3 m 5.8,1.2 -1.8,0 0,-1.3 c -0.5,0.5 -1.2,0.9 -1.9,1.2 -0.7,0.3 -1.5,0.4 -2.4,0.4 -0.9,0 -1.6,-0.2 -2.4,-0.5 -0.7,-0.3 -1.4,-0.8 -1.9,-1.3 -0.5,-0.6 -1,-1.2 -1.3,-2 -0.3,-0.8 -0.5,-1.6 -0.5,-2.4 0,-0.9 0.2,-1.7 0.5,-2.4 0.3,-0.7 0.8,-1.4 1.3,-2 0.5,-0.6 1.2,-1 1.9,-1.3 0.7,-0.3 1.5,-0.5 2.4,-0.5 0.9,0 1.7,0.1 2.4,0.4 0.7,0.3 1.3,0.7 1.9,1.2 l 0,-1.3 1.8,0 0,11.8 z" /><path style="fill:#ffffff" inkscape:connector-curvature="0" id="path21" d="m 278.1,172.4 c 0.8,0 1.6,-0.2 2.3,-0.5 0.7,-0.4 1.4,-0.9 1.9,-1.7 l 0,-4.7 c -0.5,-0.8 -1.1,-1.3 -1.9,-1.7 -0.8,-0.4 -1.5,-0.5 -2.3,-0.5 -0.6,0 -1.2,0.1 -1.8,0.4 -0.5,0.2 -1,0.6 -1.4,1 -0.4,0.4 -0.7,0.9 -0.9,1.5 -0.2,0.6 -0.3,1.2 -0.3,1.8 0,0.6 0.1,1.2 0.3,1.7 0.2,0.5 0.5,1 0.9,1.4 0.4,0.4 0.9,0.7 1.4,1 0.5,0.2 1.1,0.3 1.8,0.3 m 5.9,1.9 c 0,0.9 -0.1,1.7 -0.4,2.4 -0.3,0.7 -0.7,1.3 -1.2,1.8 -0.5,0.5 -1.1,0.9 -1.9,1.2 -0.7,0.3 -1.5,0.4 -2.4,0.4 -0.8,0 -1.5,-0.1 -2.1,-0.3 -0.7,-0.2 -1.3,-0.5 -1.8,-0.9 -0.5,-0.4 -0.9,-0.9 -1.3,-1.4 -0.3,-0.5 -0.6,-1.1 -0.7,-1.8 l 1.8,0 c 0.2,0.8 0.6,1.5 1.3,2 0.7,0.5 1.6,0.8 2.7,0.8 1.2,0 2.2,-0.4 3,-1.1 0.8,-0.7 1.1,-1.8 1.1,-3.1 l 0,-2.1 c -0.6,0.5 -1.2,1 -2,1.3 -0.7,0.3 -1.6,0.4 -2.5,0.4 -0.9,0 -1.6,-0.2 -2.4,-0.5 -0.7,-0.3 -1.4,-0.8 -1.9,-1.3 -0.5,-0.5 -1,-1.2 -1.3,-1.9 -0.3,-0.7 -0.5,-1.5 -0.5,-2.3 0,-0.9 0.2,-1.7 0.5,-2.4 0.3,-0.8 0.7,-1.4 1.3,-2 0.5,-0.5 1.2,-1 1.9,-1.3 0.7,-0.3 1.5,-0.5 2.4,-0.5 0.9,0 1.7,0.1 2.5,0.4 0.7,0.3 1.4,0.7 2,1.3 l 0,-1.3 1.7,0 0,12.2 z" /><path style="fill:#ffffff" inkscape:connector-curvature="0" id="path23" d="m 293.9,163.3 c -0.6,0 -1.2,0.1 -1.7,0.3 -0.5,0.2 -0.9,0.5 -1.3,0.9 -0.4,0.4 -0.7,0.8 -0.9,1.3 -0.2,0.5 -0.4,1 -0.4,1.6 l 8.4,0 c -0.1,-1.2 -0.5,-2.2 -1.2,-2.9 -0.7,-0.8 -1.7,-1.2 -2.9,-1.2 m 5.8,4.7 0,0.4 c 0,0.1 0,0.2 0,0.4 l -0.1,-0.1 0,0.1 -10,0 c 0.1,0.6 0.2,1.1 0.4,1.6 0.2,0.5 0.5,0.9 0.9,1.3 0.4,0.4 0.8,0.6 1.3,0.9 0.5,0.2 1.1,0.3 1.7,0.3 0.8,0 1.5,-0.2 2.1,-0.5 0.6,-0.3 1,-0.8 1.3,-1.3 l 1.9,0 c -0.3,1 -1,1.8 -2,2.4 -1,0.6 -2.1,0.9 -3.4,0.9 -0.9,0 -1.7,-0.2 -2.5,-0.5 -0.7,-0.3 -1.4,-0.8 -1.9,-1.3 -0.5,-0.6 -1,-1.2 -1.3,-2 -0.3,-0.8 -0.4,-1.6 -0.4,-2.4 0,-0.9 0.1,-1.7 0.4,-2.4 0.3,-0.8 0.7,-1.4 1.3,-2 0.5,-0.6 1.2,-1 1.9,-1.3 0.7,-0.3 1.6,-0.5 2.5,-0.5 0.8,0 1.6,0.2 2.3,0.5 0.7,0.3 1.3,0.7 1.8,1.3 0.5,0.6 0.9,1.2 1.2,2 0.5,0.5 0.6,1.3 0.6,2.2" /><path style="fill:#ffffff" inkscape:connector-curvature="0" id="path25" d="m 309.5,161.8 c 0.7,0 1.4,0.1 2,0.4 0.6,0.2 1.2,0.6 1.6,1.1 0.4,0.5 0.8,1 1,1.7 0.2,0.7 0.4,1.4 0.4,2.2 l 0,6.8 -1.8,0 0,-6.7 c 0,-1.2 -0.3,-2.2 -1,-2.8 -0.7,-0.7 -1.5,-1 -2.6,-1 -0.8,0 -1.5,0.2 -2.2,0.6 -0.7,0.4 -1.3,0.9 -1.8,1.6 l 0,8.4 -1.7,0 0,-11.8 1.7,0 0,1.4 c 0.5,-0.6 1.2,-1 1.9,-1.3 0.8,-0.5 1.6,-0.6 2.5,-0.6" /><path style="fill:#ffffff" inkscape:connector-curvature="0" id="path27" d="m 323.9,172.7 c 1,0 1.8,-0.2 2.5,-0.7 0.7,-0.5 1.1,-1.1 1.3,-1.9 l 1.8,0 c -0.1,0.6 -0.3,1.2 -0.7,1.7 -0.3,0.5 -0.7,1 -1.2,1.4 -0.5,0.4 -1,0.7 -1.6,0.9 -0.6,0.2 -1.3,0.3 -2,0.3 -0.9,0 -1.7,-0.2 -2.5,-0.5 -0.8,-0.3 -1.4,-0.8 -1.9,-1.3 -0.5,-0.6 -1,-1.2 -1.3,-2 -0.3,-0.8 -0.5,-1.6 -0.5,-2.4 0,-0.9 0.2,-1.7 0.5,-2.4 0.3,-0.8 0.7,-1.4 1.3,-2 0.5,-0.6 1.2,-1 1.9,-1.3 0.7,-0.3 1.6,-0.5 2.5,-0.5 0.7,0 1.4,0.1 2,0.3 0.6,0.2 1.2,0.5 1.6,0.9 0.5,0.4 0.9,0.8 1.2,1.4 0.3,0.5 0.6,1.1 0.7,1.7 l -1.8,0 c -0.2,-0.8 -0.6,-1.5 -1.3,-1.9 -0.7,-0.5 -1.5,-0.7 -2.5,-0.7 -0.7,0 -1.3,0.1 -1.8,0.4 -0.5,0.2 -1,0.6 -1.4,1 -0.4,0.4 -0.7,0.9 -0.9,1.5 -0.2,0.6 -0.3,1.2 -0.3,1.8 0,0.6 0.1,1.2 0.3,1.8 0.2,0.6 0.5,1 0.9,1.5 0.4,0.4 0.8,0.8 1.4,1 0.5,-0.2 1.1,0 1.8,0" /><path style="fill:#ffffff" inkscape:connector-curvature="0" id="path29" d="m 344,174.6 c 0,0.9 -0.1,1.6 -0.4,2.3 -0.3,0.7 -0.7,1.3 -1.1,1.7 -0.5,0.5 -1.1,0.8 -1.8,1.1 -0.7,0.3 -1.5,0.4 -2.3,0.4 -0.8,0 -1.5,-0.1 -2.2,-0.3 -0.7,-0.2 -1.2,-0.5 -1.7,-0.9 -0.5,-0.4 -0.9,-0.8 -1.2,-1.4 -0.3,-0.5 -0.5,-1.1 -0.6,-1.8 l 1.8,0 c 0.2,0.8 0.6,1.5 1.3,2 0.7,0.5 1.6,0.8 2.7,0.8 1.2,0 2.1,-0.3 2.8,-1 0.7,-0.7 1.1,-1.7 1.1,-2.9 l 0,-2.3 c -0.6,0.6 -1.2,1 -1.9,1.3 -0.7,0.3 -1.5,0.4 -2.3,0.4 -1.6,0 -2.8,-0.5 -3.7,-1.4 -0.9,-1 -1.4,-2.3 -1.4,-3.9 l 0,-6.5 1.7,0 0,6.4 c 0,1.2 0.3,2.2 1,2.8 0.7,0.7 1.6,1 2.7,1 0.7,0 1.4,-0.2 2.1,-0.6 0.7,-0.4 1.3,-0.9 1.8,-1.6 l 0,-8.1 1.7,0 0,12.5 z" /><path style="fill:#ffffff" inkscape:connector-curvature="0" id="path31" d="m 67.5,175.2 c 2.1,0 4,-0.7 5.3,-2 1.4,-1.4 2.2,-3.5 2.2,-6.3 l 0,-16.1 -2.7,0 0,16.1 c 0,3.8 -2,5.8 -4.7,5.8 -2.5,0 -4,-1.2 -5.5,-3.4 l -2,1.7 c 1.5,2.4 3.8,4.2 7.4,4.2" /><polygon style="fill:#ffffff" id="polygon33" points="115.7,166.4 115.7,174.9 118.4,174.9 118.4,166.4 127.1,150.8 124.2,150.8 117.1,163.9 110.1,150.8 106.9,150.8 " /><rect style="fill:#ffffff" id="rect35" height="24.1" width="2.7" y="150.8" x="178.5" /><path style="fill:#ffffff" inkscape:connector-curvature="0" id="path37" d="m 98.5,166.1 -10.2,0 5.1,-12.4 5.1,12.4 z m 6.3,8.8 -10.1,-24.2 -2.5,0 -10.1,24.2 2.6,0 2.6,-6.4 12.1,0 2.6,6.4 2.8,0 z" /><polygon style="fill:#ffffff" id="polygon39" points="194.3,174.9 194.3,155 210.4,174.9 213.1,174.9 213.1,150.8 210.4,150.8 210.4,170.8 194.3,150.8 191.6,150.8 191.6,174.9 " /><path style="fill:#ffffff" inkscape:connector-curvature="0" id="path41" d="m 233.1,175.3 c 4.1,0 7.4,-1.7 9.7,-3.7 l 0,-9.6 -8.8,0 0,2.4 6.2,0 0,6 c -1.6,1.3 -4.2,2.4 -6.9,2.4 -5.8,0 -9.5,-4.3 -9.5,-10 l 0,-0.1 c 0,-5.4 3.8,-9.9 9.1,-9.9 3.4,0 5.5,1.1 7.3,2.8 l 1.8,-2.1 c -2.4,-2 -4.9,-3.2 -9,-3.2 -7.2,0 -12.1,5.8 -12.1,12.4 l 0,0.1 c -0.1,7 4.6,12.5 12.2,12.5" /><path style="fill:#ffffff" inkscape:connector-curvature="0" id="path43" d="m 151.4,153.8 c -2.2,0 -3.9,1.8 -4,4 0,1.3 1.2,3.9 4,6.9 2.7,-3 4,-5.6 4,-6.9 -0.1,-2.2 -1.9,-4 -4,-4 m 11.9,22.1 -1.4,-0.5 c -3.5,-1.3 -7.3,-3.8 -10.5,-6.8 -3.2,3 -7,5.5 -10.5,6.8 l -1.4,0.5 -7,-25.1 2.8,0 6,21.5 c 2.8,-1.3 5.7,-3.3 8.2,-5.7 -1.8,-2 -4.8,-5.8 -4.8,-8.9 0,-1.8 0.7,-3.4 2,-4.7 1.3,-1.3 2.9,-2 4.7,-2 1.8,0 3.4,0.7 4.7,2 1.2,1.2 1.9,2.9 2,4.7 0,3.1 -3,6.9 -4.8,8.9 2.5,2.4 5.4,4.4 8.2,5.7 l 6,-21.5 2.8,0 -7,25.1 z" /></g></g></svg>