<?xml version="1.0" encoding="UTF-8"?>
<svg version="1.1" viewBox="0 0 250 91" xml:space="preserve" xmlns="http://www.w3.org/2000/svg" xmlns:cc="http://creativecommons.org/ns#" xmlns:dc="http://purl.org/dc/elements/1.1/"><g transform="matrix(.36527 0 0 .36527 15 24.27)" fill="#fff"><path class="st0" d="m12.9 19.3c0-10.7-12.9-4.9-12.9-9.8 0-1.4 0.6-1.8 2.3-1.8 6 0 14.7 0.3 25.9 0.3 10.9 0 20.7-0.3 30.6-0.3 29.9 0 39.5 11.3 39.5 25 0 14.2-12.3 23.4-36 23.4v0.6c19.8 0.3 40.9 4.7 40.9 24.7 0 20.4-13.8 30.8-42.1 30.8-11.2 0-21.9-0.3-32.9-0.3-11.2 0-19.9 0.3-25.9 0.3-1.7 0-2.3-0.5-2.3-1.8 0-4.9 12.9 0.9 12.9-9.8v-81.3zm30.7 35.2h7.2c11.2 0 15.2-2.3 15.2-22.5 0-17.5-2.3-20.7-13.3-20.7h-9v43.2zm0 3.7v44.8c0 3.8 1.5 5.5 7.7 5.5 13.9 0 18.4-1.5 18.4-25.3 0-18.7-3.5-25-19.2-25z"/><path class="st0" d="m108.7 59c0-10.4-10.1-8.6-10.1-11.5 0-2.5 9.7 0.3 34.9-6.4v16.5h0.3c4.4-9.8 7.8-16.5 17.3-16.5 7.7 0 12.9 4.4 12.9 12.1 0 6.3-4 12.4-11.6 12.4-8.3 0-9.2-7.7-13.8-7.7-2.8 0-3.8 2.5-3.8 6.4v38.5c0 7.5 8.9 4.6 8.9 7.8 0 0.8-0.3 1.5-1.7 1.5-5.8 0-12.4-0.3-20.2-0.3s-14.4 0.3-20.2 0.3c-1.4 0-1.7-0.8-1.7-1.5 0-3.2 8.9-0.3 8.9-7.8v-43.8zm92.4-8c0-4.9-1.5-6.3-4.6-6.3-4.9 0-8.6 2.6-8.6 7.2 0 3.5 0.6 7.4 0.6 11 0 6.9-4.8 11.8-13 11.8-8.4 0-11.8-3.7-11.8-9.3 0-12.3 22.5-24.4 42.4-24.4 16.9 0 22.8 6.9 22.8 19.3v41.2c0 1.8 0.9 2.9 2.6 2.9 4.1 0 4.7-5.5 7-5.5 0.8 0 1.4 0.8 1.4 1.4 0 1.5-5.2 12.7-21.6 12.7-10 0-14.4-3.7-16.2-9.8-8.3 6.6-15.5 9.8-23.1 9.8-12.9 0-18.1-7.4-18.1-13.9 0-12 8.9-15.6 40.1-26.7v-21.4zm0 24.7c-9.5 3.8-12.3 8.3-12.3 15.2 0 10.1 2.3 12.7 6.3 12.7 2.6 0 4.6-1.8 6-3.2zm66.6-28.2c2.8-2.5 7.7-6.4 18.7-6.4 18.7 0 31.4 11 31.4 33.4 0 19-14.9 38.6-40.8 38.6-10.7 0-18.2-3.4-25.1-7l-6.1 4.8c-2.3 1.7-2.8 2.3-3.7 2.3-0.3 0-0.5-0.5-0.5-1.5v-93.6c0-7.7-9.5-5.7-9.5-8.6 0-3.5 9.2 0.5 35.5-9.5v47.5zm0 54.8c0 5.1 3.8 8 9 8 10.4 0 13.2-12.1 13.2-27.1 0-21.8-7.5-33.6-18.2-33.6-2.5 0-4 1.1-4 2.3z"/><path class="st0" d="m325.8 59c0-10.4-10.1-8.6-10.1-11.5 0-2.5 9.7 0.3 36.2-6.4v10.6c10.7-8.3 16.9-10.6 25.3-10.6 15.3 0 19.5 9.5 19.5 22.8v38.9c0 7.5 8.9 4.6 8.9 7.8 0 0.8-0.3 1.5-1.7 1.5-5.8 0-12.4-0.3-20.2-0.3s-14.4 0.3-19 0.3c-1.4 0-1.7-0.8-1.7-1.5 0-3.2 7.7-0.3 7.7-7.8v-43c0-6.7-3.5-9.2-7.2-9.2-4 0-8.3 2.9-11.5 6v46.3c0 7.5 7.7 4.6 7.7 7.8 0 0.8-0.3 1.5-1.7 1.5-4.6 0-11.2-0.3-19-0.3s-14.4 0.3-20.2 0.3c-1.4 0-1.7-0.8-1.7-1.5 0-3.2 8.9-0.3 8.9-7.8v-43.9zm105.7 13c1.4 15.6 9.5 24.5 21 24.5 8.4 0 13.2-3.1 16.9-7.7 2.5-3.1 3.1-4.7 4.3-4.7 0.9 0 1.4 0.6 1.4 1.8 0 2.9-4.8 27.1-33.7 27.1-21.6 0-36.2-15-36.2-35.7 0-20.4 15.8-36.3 37.4-36.3 16.4 0 31.3 10.1 31.6 30.9h-42.7zm19-3.7c0-14.7-1.7-23.6-9.7-23.6s-9.7 8.9-9.7 23.6zm34.2-9.3c0-10.4-10.1-8.6-10.1-11.5 0-2.5 9.7 0.3 34.9-6.4v16.5h0.3c4.4-9.8 7.8-16.5 17.3-16.5 7.7 0 12.9 4.4 12.9 12.1 0 6.3-4 12.4-11.6 12.4-8.3 0-9.2-7.7-13.8-7.7-2.8 0-3.8 2.5-3.8 6.4v38.5c0 7.5 8.9 4.6 8.9 7.8 0 0.8-0.3 1.5-1.7 1.5-5.8 0-12.4-0.3-20.2-0.3s-14.4 0.3-20.2 0.3c-1.4 0-1.7-0.8-1.7-1.5 0-3.2 8.9-0.3 8.9-7.8v-43.8zm112 5.7c0 1.7-0.3 2.6-1.5 2.6-0.9 0-1.7-1.8-2.8-4.9-2.3-6.7-9.2-18.5-21.6-18.5-7 0-12 3.8-12 9.2 0 13.2 43.5 9.3 43.5 34.3 0 14.9-14.9 25.7-31.7 25.7-10.3 0-20.2-1.5-28.5-5.1v-24.8c0-1.5 0.5-2.1 1.8-2.1 2.1 0 1.4 3.5 4.4 10.6 4.6 10.9 11.8 18.7 22.7 18.7 8.9 0 13.2-4 13.2-10.4 0-15.9-42-9.3-42-35.1 0-13.6 13-23.7 29.3-23.7 9.2 0 16.7 1.8 25.1 4.4v19.1z"/></g></svg>
