<?xml version="1.0" encoding="UTF-8"?>
<svg version="1.1" viewBox="0 0 250 91" xml:space="preserve" xmlns="http://www.w3.org/2000/svg"><g transform="matrix(.037434 0 0 -.037434 -47.629 147.12)" fill="#fff"><path d="m2087 2278.3-69.08-278.53h-33.42l-81.89 238.42-81.33-238.42h-32.87l-69.07 278.53h26.73l60.17-245.11 82.44 241.21h29.53l81.89-238.99 60.72 242.89h26.18"/><path d="m2352.1 2158c-0.75 27.85-9.29 51.72-25.63 71.58-16.34 19.87-38.06 29.81-65.17 29.81-27.85 0-50.41-9.75-67.68-29.26-17.27-19.49-25.91-43.54-25.91-72.13zm28.41-7.25c0-2.22-0.1-5.29-0.28-9.18-0.19-3.9-0.28-6.97-0.28-9.19h-212.79c0.73-33.42 10.39-61.27 28.96-83.56 16.72-19.69 39.18-29.53 67.4-29.53 24.89 0 45.13 8.16 60.73 24.51 11.14 11.88 18.19 25.06 21.17 39.55h28.96c-3.72-22.28-14.12-41.78-31.19-58.49-21.55-21.55-48.1-32.31-79.67-32.31-36.02 0-65.54 13.18-88.56 39.55-23.78 27.85-35.65 63.13-35.65 105.84 0 41.23 9.09 74.28 27.29 99.16 23.76 32.31 55.33 48.46 94.7 48.46 36.01 0 64.9-13.28 86.62-39.83 21.73-26.56 32.59-58.2 32.59-94.98"/><path d="m2966 1999.8h-27.86v182.15c0 51.62-22.1 77.44-66.29 77.44-19.31 0-35.84-6.33-49.58-18.95-21.92-20.8-32.87-48.46-32.87-83.01v-157.63h-28.4v182.15c0 51.62-22.29 77.44-66.85 77.44-19.69 0-36.21-6.33-49.58-18.95-22.29-20.8-33.43-54.59-33.43-101.38v-139.26h-27.85v278.53h24.51l3.34-47.91c7.43 16.7 18.57 30.08 33.43 40.1 14.84 10.04 31.93 15.04 51.25 15.04 46.42 0 75.76-20.04 88.01-60.16 7.8 18.19 19.22 32.78 34.27 43.73 15.03 10.96 33.5 16.43 55.42 16.43 31.2 0 54.4-9.18 69.63-27.56 15.23-18.4 22.85-43.18 22.85-74.37v-183.83"/><path d="m3244 2128.4v14.49l-99.71-6.13c-20.81-1.49-37.33-7.44-49.58-17.83-12.26-10.39-18.39-23.95-18.39-40.67 0-19.31 6.41-34.16 19.22-44.55 12.81-10.41 29.62-15.6 50.42-15.6 32.67 0 57.19 10.86 73.53 32.57 16.34 21.74 24.51 47.64 24.51 77.72zm57.38-128.67c-6.69-1.12-11.15-1.68-13.37-1.68-29.35 0-44.01 18.2-44.01 54.59-7.44-18.93-20.43-33.69-38.99-44.28-18.58-10.59-39-15.88-61.28-15.88-27.86 0-50.79 7.79-68.8 23.4-18.02 15.59-27.02 36.39-27.02 62.38 0 24.14 8.55 43.54 25.63 58.23 17.08 14.66 39.73 22.92 67.96 24.78l102.5 7.25v27.28c0 42.35-24.51 63.52-73.53 63.52-23.03 0-41.78-5.22-56.27-15.61-14.48-10.39-22.47-25.62-23.95-45.68h-27.85c1.85 27.48 12.62 48.92 32.31 64.35 19.68 15.41 44.93 23.11 75.76 23.11 21.17 0 40.38-4.08 57.66-12.25 17.26-8.18 29.42-21.17 36.48-39 4.82-12.62 7.25-30.45 7.25-53.48v-127.01c0-10.39 1.38-18.01 4.17-22.83 2.79-4.83 8.64-7.25 17.54-7.25 3.35 0 5.94 0.2 7.81 0.57v-24.51"/><path d="m3616.6 1999.8h-33.98l-98.05 148.73-72.97-79.67v-69.06h-28.41v402.18h28.41v-293l156.53 169.35h35.1l-98.6-107.52 111.97-171.01"/><path d="m3865.1 2158c-0.75 27.85-9.29 51.72-25.63 71.58-16.34 19.87-38.07 29.81-65.17 29.81-27.85 0-50.42-9.75-67.69-29.26-17.26-19.49-25.9-43.54-25.9-72.13zm28.41-7.25c0-2.22-0.1-5.29-0.28-9.18-0.19-3.9-0.28-6.97-0.28-9.19h-212.8c0.74-33.42 10.4-61.27 28.97-83.56 16.71-19.69 39.18-29.53 67.4-29.53 24.88 0 45.13 8.16 60.73 24.51 11.14 11.88 18.18 25.06 21.16 39.55h28.97c-3.72-22.28-14.12-41.78-31.2-58.49-21.54-21.55-48.09-32.31-79.66-32.31-36.02 0-65.54 13.18-88.57 39.55-23.77 27.85-35.65 63.13-35.65 105.84 0 41.23 9.1 74.28 27.29 99.16 23.77 32.31 55.34 48.46 94.71 48.46 36.01 0 64.89-13.28 86.62-39.83 21.73-26.56 32.59-58.2 32.59-94.98"/><path d="m4228.3 2002.5c-20.8-4.45-36.21-6.68-46.23-6.68-47.91 0-71.86 27.11-71.86 81.33v175.49h-55.71v25.62h55.71v76.88l27.85 6.68v-83.56h86.34v-25.62h-86.34v-174.38c0-18.2 3.34-32.13 10.03-41.77 6.68-9.65 18.75-14.48 36.21-14.48 11.14 0 25.8 1.66 44 5v-24.51"/><path d="m4522.4 1999.8h-27.85v182.15c0 51.62-23.95 77.44-71.86 77.44-21.55 0-39.56-6.04-54.04-18.11s-24.51-26.74-30.08-44c-5.57-17.29-8.36-36.68-8.36-58.22v-139.26h-27.85v402.18h27.85v-174.9c7.8 17.44 20.52 31.57 38.16 42.33s36.3 16.15 55.99 16.15c31.56 0 55.79-9.1 72.7-27.29 16.89-18.2 25.34-43.08 25.34-74.64v-183.83"/><path d="m4816 2158c-0.76 27.85-9.29 51.72-25.63 71.58-16.35 19.87-38.07 29.81-65.17 29.81-27.86 0-50.41-9.75-67.69-29.26-17.27-19.49-25.9-43.54-25.9-72.13zm28.4-7.25c0-2.22-0.09-5.29-0.27-9.18-0.19-3.9-0.28-6.97-0.28-9.19h-212.8c0.74-33.42 10.4-61.27 28.97-83.56 16.71-19.69 39.18-29.53 67.4-29.53 24.88 0 45.13 8.16 60.72 24.51 11.15 11.88 18.2 25.06 21.18 39.55h28.96c-3.72-22.28-14.12-41.78-31.2-58.49-21.54-21.55-48.1-32.31-79.66-32.31-36.02 0-65.54 13.18-88.56 39.55-23.78 27.85-35.66 63.13-35.66 105.84 0 41.23 9.1 74.28 27.3 99.16 23.76 32.31 55.33 48.46 94.7 48.46 36.01 0 64.9-13.28 86.62-39.83 21.73-26.56 32.58-58.2 32.58-94.98"/><path d="m5234.9 2139c0 43.08-11.69 75.56-35.09 97.48-15.23 14.49-34.73 21.73-58.49 21.73-24.14 0-44.01-8.18-59.6-24.51-20.8-22.28-31.2-53.85-31.2-94.7 0-44.58 12.25-77.82 36.77-99.71 14.85-13.01 33.23-19.49 55.15-19.49 22.28 0 41.22 7.42 56.82 22.26 23.76 23.4 35.64 55.72 35.64 96.94zm27.31-139.26h-24.51l-3.34 49.02c-7.45-16.72-19.88-30.27-37.33-40.66-17.46-10.41-35.85-15.61-55.15-15.61-29.71 0-54.41 8.73-74.09 26.17-30.46 26.76-45.68 66.66-45.68 119.79 0 51.25 14.48 90.6 43.46 118.08 20.05 19.32 45.3 28.97 75.75 28.97 19.68 0 38.25-5 55.71-15.04 17.45-10.02 29.88-23.03 37.33-38.98v170.44h27.85v-402.18"/><path d="m5404.8 1999.8h-29.52v278.53h29.52zm4.46 355.95h-39v39.01h39v-39.01"/><path d="m5656.6 2376.9c-14.85 2.22-28.22 3.34-40.11 3.34-35.28 0-52.92-18.01-52.92-54.05v-47.89h87.47v-25.62h-87.47v-252.91h-27.85v252.91h-55.7v25.62h55.7v49.01c0 22.28 6.77 40.86 20.34 55.72 13.55 14.84 32.94 22.26 58.21 22.26 14.84 0 28.96-1.11 42.33-3.34v-25.05"/><path d="m5852.1 2376.9c-14.85 2.22-28.22 3.34-40.11 3.34-35.28 0-52.92-18.01-52.92-54.05v-47.89h87.46v-25.62h-87.46v-252.91h-27.85v252.91h-55.7v25.62h55.7v49.01c0 22.28 6.77 40.86 20.33 55.72 13.56 14.84 32.95 22.26 58.22 22.26 14.84 0 28.96-1.11 42.33-3.34v-25.05"/><path d="m6094.4 2158c-0.74 27.85-9.27 51.72-25.62 71.58-16.35 19.87-38.07 29.81-65.18 29.81-27.85 0-50.41-9.75-67.67-29.26-17.28-19.49-25.91-43.54-25.91-72.13zm28.42-7.25c0-2.22-0.1-5.29-0.28-9.18-0.19-3.9-0.28-6.97-0.28-9.19h-212.8c0.74-33.42 10.39-61.27 28.97-83.56 16.72-19.69 39.18-29.53 67.4-29.53 24.88 0 45.13 8.16 60.72 24.51 11.14 11.88 18.2 25.06 21.17 39.55h28.97c-3.71-22.28-14.12-41.78-31.19-58.49-21.55-21.55-48.11-32.31-79.67-32.31-36.02 0-65.55 13.18-88.57 39.55-23.77 27.85-35.65 63.13-35.65 105.84 0 41.23 9.09 74.28 27.3 99.16 23.76 32.31 55.33 48.46 94.69 48.46 36.02 0 64.91-13.28 86.62-39.83 21.73-26.56 32.6-58.2 32.6-94.98"/><path d="m6349.6 2251.6c-7.44 1.84-16.53 2.78-27.3 2.78-16.71 0-31.11-3.44-43.17-10.31-12.08-6.88-21.27-16.33-27.58-28.4s-10.86-24.89-13.65-38.44c-2.78-13.56-4.18-28.13-4.18-43.73v-133.69h-27.85v278.53h24.51l3.34-56.27c5.94 18.56 17.08 33.05 33.43 43.46 16.34 10.39 34.72 15.59 55.15 15.59 12.25 0 21.35-0.55 27.3-1.66v-27.86"/><path d="m6601.4 2158c-0.75 27.85-9.29 51.72-25.63 71.58-16.35 19.87-38.06 29.81-65.17 29.81-27.85 0-50.41-9.75-67.69-29.26-17.26-19.49-25.9-43.54-25.9-72.13zm28.41-7.25c0-2.22-0.1-5.29-0.28-9.18-0.19-3.9-0.28-6.97-0.28-9.19h-212.79c0.73-33.42 10.39-61.27 28.96-83.56 16.71-19.69 39.18-29.53 67.4-29.53 24.89 0 45.13 8.16 60.73 24.51 11.14 11.88 18.19 25.06 21.17 39.55h28.96c-3.72-22.28-14.12-41.78-31.2-58.49-21.54-21.55-48.09-32.31-79.66-32.31-36.02 0-65.54 13.18-88.56 39.55-23.78 27.85-35.66 63.13-35.66 105.84 0 41.23 9.1 74.28 27.3 99.16 23.76 32.31 55.33 48.46 94.7 48.46 36.01 0 64.9-13.28 86.62-39.83 21.73-26.56 32.59-58.2 32.59-94.98"/><path d="m6932.8 1999.8h-27.85v182.15c0 50.87-23.95 76.32-71.86 76.32-31.95 0-55.34-11.42-70.19-34.25-14.85-22.86-22.28-51.18-22.28-84.96v-139.26h-27.86v278.53h24.52l3.34-50.7c7.8 17.46 20.51 31.48 38.16 42.05 17.63 10.59 36.3 15.88 55.99 15.88 31.55 0 55.79-9.1 72.69-27.29 16.9-18.2 25.34-43.08 25.34-74.64v-183.83"/><path d="m7243.1 2087.8c-3.72-27.49-15.61-50.24-35.66-68.25-20.05-18-44.38-27.01-72.98-27.01-32.67 0-59.98 10.96-81.88 32.87-26 25.98-39 63.87-39 113.64 0 49.76 13 87.63 39 113.65 21.9 21.89 49.21 32.85 81.88 32.85 28.97 0 53.29-8.63 72.98-25.9 19.68-17.26 31.2-40.02 34.54-68.24h-28.96c-2.99 19.69-11.62 35.74-25.91 48.18-14.31 12.44-31.85 18.67-52.65 18.67-25.99 0-46.6-7.98-61.83-23.96-20.43-21.15-30.64-52.91-30.64-95.25 0-42.72 10.21-74.65 30.64-95.83 14.85-15.58 35.47-23.37 61.83-23.37 20.8 0 38.34 6.4 52.65 19.21 14.29 12.82 23.11 29.05 26.45 48.74h29.54"/><path d="m7511.6 2158c-0.74 27.85-9.29 51.72-25.62 71.58-16.35 19.87-38.07 29.81-65.18 29.81-27.85 0-50.41-9.75-67.67-29.26-17.28-19.49-25.91-43.54-25.91-72.13zm28.42-7.25c0-2.22-0.1-5.29-0.28-9.18-0.2-3.9-0.29-6.97-0.29-9.19h-212.79c0.74-33.42 10.39-61.27 28.97-83.56 16.71-19.69 39.18-29.53 67.4-29.53 24.88 0 45.12 8.16 60.72 24.51 11.14 11.88 18.19 25.06 21.17 39.55h28.97c-3.72-22.28-14.12-41.78-31.19-58.49-21.55-21.55-48.11-32.31-79.67-32.31-36.03 0-65.55 13.18-88.58 39.55-23.77 27.85-35.64 63.13-35.64 105.84 0 41.23 9.09 74.28 27.29 99.16 23.76 32.31 55.34 48.46 94.7 48.46 36.02 0 64.9-13.28 86.62-39.83 21.73-26.56 32.6-58.2 32.6-94.98"/><path d="m2131 2998c71.69 0 132.27-104.55 132.27-228.33 0-119.21-49.18-215.36-174.56-215.36-31.67 0-45.98 6.74-45.98 6.74l-0.05 436.95zm-6.89 33.69h-81.43l-0.05 349.86s0.36 8.04 41.36 8.04c112.52 0 164.2-86.87 164.2-183.8 0-97.65-54.53-174.1-124.08-174.1m249.52-15.09c97.28 27.06 164.67 103.62 164.67 192.09 0 78.11-30.84 146.17-101.18 182.35-82.05 42.14-212.88 45.71-334.99 45.71-226.77 0-415.9-22.28-415.9-22.28v-33.79l7.93 0.2c11.56 0 69.24-2.9 69.45-59.35l0.11-704.71h-0.11c0-56.81-77.38-59.45-77.38-59.45v-33.84s364.07-14.26 402.74-14.26c134.14 0 233.86 4.67 305.08 26.39 143.93 43.79 176.54 134.44 176.54 237.54 0 110.66-87.13 214.79-196.96 243.4"/><path d="m5258 2617.3h-0.06c0-59.77-57.94-59.41-57.94-59.41v-34.16h417.66l-0.05 34.11s-77.39-0.05-77.39 58.88c0 0 0.32 213.03 0.32 215.78 0 193.9-100.4 321.62-259.01 321.62-104.44 0-137.41-38.51-167.73-82.11v68.43l-356.13-0.06v-33.85s77.22 3.9 77.22-57.68v-433.27c0-57.79-77.22-57.94-77.22-57.94v-33.85h412.62v33.9s-56.49 0.41-56.49 58.77v266.57c0 116.16 30.21 191.16 77.02 191.16 72.93 0 67.49-122.01 67.28-221.11l-0.1-235.78"/><path d="m3637.9 2667.3c0-50.85-32.45-83.25-54.78-83.25-50.44 0-59.67 42.77-59.67 126.94 0 77.85 7.26 86.87 64.12 133.89 30.32 25.13 44.47 33.01 50.54 35.5zm277.77-51.11 0.05 0.47-0.57 342.45h-0.31c-8.14 127.3-144.98 205.31-317.89 205.31-202.56 0-301.04-57.06-301.04-174.47 0-72.36 54.84-131.23 122.27-131.23 67.49 0 122.33 58.87 122.33 131.23 0 54.43-30.43 101.75-76.09 121.5 15.96 5.18 38.41 10.62 61.73 10.62 73.08 0 110.19-51.73 110.19-153.73 0-37.79-47.73-88.17-98.22-103.72-47.53-14.51-95.32-19.7-95.89-19.74-116.46-13.84-175.55-69.41-175.55-165.14 0-89.87 77.38-165.61 176.23-168.19 60.28-1.56 157.83 22.33 194.89 58.1l-0.06-44.99 355.16-0.26v33.84s-77.23 0.21-77.23 57.95"/><path d="m5883.9 2884.1v160.27c0 40.01 30.11 72.51 67.12 72.51 37.06 0 67.17-32.5 67.17-72.51l0.32-160.27zm377.59-109.99s-21.25-197.84-237.75-220.9c-107.76-11.46-140.16 73.86-140.16 157.82 0 68.42-0.25 133.99-0.25 133.99h415.48s-9.38 308.35-346.9 308.35c-191.37 0-347.08-144.1-347.08-321.26 0-137.61 108.18-352.71 423.16-318.24 248.49 27.21 272.27 259.73 272.27 259.73l-38.77 0.51"/><path d="m7292.8 2975.2c-79.05 19.07-141.5 34.16-141.5 87.96 0 37.37 33.94 51.52 74.43 54.11 0 0 198.51 12.59 233.7-99.05 24.12-76.45 28.21-83.71 28.21-83.71h35.04v226.51h-21.11s-10.56-40.07-48.14-40.07c-8.2 0-17.21 1.81-27.06 4.72-113.98 33.54-194.43 31.51-194.43 31.51-125.17 0-235-94.49-235-202.25 0-150.62 126.83-190.69 238.73-226.09 89.11-28.15 166.03-52.45 166.03-125.07 0-37.17-40.49-54.06-78.53-54.11 0 0-213.55-10.53-246.15 99.15-28.35 95.42-34.05 125.18-34.05 125.18h-31.67v-268.13l21.45 0.05s12.65 49.76 50.95 40.07c39.03-9.85 75.17-19.23 106.73-24.47 76.4-12.7 126.21-11.76 126.21-11.76 131.34 0 246.62 94.49 246.62 202.19 0 197.95-149.95 234.18-270.46 263.26"/><path d="m4460.3 2670c0-60.23-22.03-110.66-67.54-110.66-47.63 0-67.27 49.08-67.27 111.08v292.48c0 60.18 19.64 111.03 67.53 111.03 43.96 0 67.28-49.09 67.28-111.08zm-134.81 409.32v334.16l-356.35 0.26v-33.85s78.01 3.22 78.01-58.98l0.15-831.91s92.26 143.32 215.21 89.36c30.89-13.53 91.22-82.36 185.87-72.77 170.22 17.26 294.4 151.81 294.4 323.38 0 388.28-358.26 366.56-417.29 250.35"/><path d="m3035.3 2523.5v33.84s-76.71 0.21-76.71 57.95l-0.05 350.43c0 83.09 59.24 147.78 128.59 147.78 1.56 0 3.11-0.06 4.72-0.11-49.97-16.53-86.41-66.49-86.41-125.48 0-72.36 54.9-131.24 122.28-131.24 67.48 0 121.96 58.88 122.32 131.24 0.57 112.47-94.59 165.81-162.91 165.81-50.22 0-96.87-25.66-128.59-69.71v55.25l-356.4-0.05v-33.9s77.33 2.12 77.33-58.88l-0.1-431.14c0-57.74-77.23-57.95-77.23-57.95v-33.84h433.16"/><path d="m6736.9 2523.5v33.84s-77.23 0.21-77.23 57.95l0.42 352.46c0 83.03 59.29 147.77 128.65 147.77 1.55 0-79.41-38.67-81.7-125.59-1.91-72.36 54.89-131.24 122.34-131.24 67.43 0 121.9 58.88 122.26 131.24 0.58 112.42-94.59 165.81-162.9 165.81-50.23 0-96.87-25.66-128.6-69.71v55.2l-356.4-0.05v-33.85s77.33 2.07 77.33-58.88l0.47-433.16c0-57.74-77.8-57.95-77.8-57.95v-33.84h433.16"/></g></svg>
