<?xml version="1.0" encoding="UTF-8" standalone="no"?>
<!-- Created with Inkscape (http://www.inkscape.org/) -->

<svg xmlns:dc="http://purl.org/dc/elements/1.1/" xmlns:cc="http://creativecommons.org/ns#" xmlns:rdf="http://www.w3.org/1999/02/22-rdf-syntax-ns#" xmlns:svg="http://www.w3.org/2000/svg" xmlns="http://www.w3.org/2000/svg" xmlns:sodipodi="http://sodipodi.sourceforge.net/DTD/sodipodi-0.dtd" xmlns:inkscape="http://www.inkscape.org/namespaces/inkscape" width="250" height="91" viewBox="0 0 250 91" id="svg2" version="1.1" inkscape:version="0.91 r13725" sodipodi:docname="bradford.svg">
  <defs id="defs4" />
  <sodipodi:namedview id="base" pagecolor="#ffffff" bordercolor="#666666" borderopacity="1.0" inkscape:pageopacity="0.0" inkscape:pageshadow="2" inkscape:zoom="1.9799" inkscape:cx="81.884" inkscape:cy="28.488" inkscape:document-units="px" inkscape:current-layer="layer1" showgrid="true" inkscape:window-width="1280" inkscape:window-height="752" inkscape:window-x="0" inkscape:window-y="0" inkscape:window-maximized="1" units="px">
    <inkscape:grid type="xygrid" id="grid5735" />
  </sodipodi:namedview>
  <metadata id="metadata7">
    <rdf:RDF>
      <cc:Work rdf:about="">
        <dc:format>image/svg+xml</dc:format>
        <dc:type rdf:resource="http://purl.org/dc/dcmitype/StillImage" />
        <dc:title></dc:title>
      </cc:Work>
    </rdf:RDF>
  </metadata>
  <g inkscape:label="Layer 1" inkscape:groupmode="layer" id="layer1" transform="translate(0,-961.4)">
    <rect style="opacity:0.001;fill:#ffffff;fill-opacity:1;stroke:none;stroke-width:2.5;stroke-linecap:round;stroke-linejoin:round;stroke-miterlimit:4;stroke-dasharray:none;stroke-dashoffset:0;stroke-opacity:1" id="rect4175" width="250" height="91" x="0" y="961.4" />
    <path style="color:#000000;font-style:normal;font-variant:normal;font-weight:normal;font-stretch:normal;font-size:medium;line-height:normal;font-family:sans-serif;text-indent:0;text-align:start;text-decoration:none;text-decoration-line:none;text-decoration-style:solid;text-decoration-color:#000000;letter-spacing:normal;word-spacing:normal;text-transform:none;direction:ltr;block-progression:tb;writing-mode:lr-tb;baseline-shift:baseline;text-anchor:start;white-space:normal;clip-rule:nonzero;display:inline;overflow:visible;visibility:visible;opacity:1;isolation:auto;mix-blend-mode:normal;color-interpolation:sRGB;color-interpolation-filters:linearRGB;solid-color:#000000;solid-opacity:1;fill:#ffffff;fill-opacity:1;fill-rule:evenodd;stroke:none;stroke-width:0.99999px;stroke-linecap:butt;stroke-linejoin:miter;stroke-miterlimit:4;stroke-dasharray:none;stroke-dashoffset:0;stroke-opacity:1;color-rendering:auto;image-rendering:auto;shape-rendering:auto;text-rendering:auto;enable-background:accumulate" d="M 15.012 18.449 L 15.012 54.5 L 15.002 54.5 L 15.002 55 L 15.002 64.5 L 64.232 64.5 C 64.405 65.2 64.914 67 66.143 69 C 67.523 71.3 69.796 73.5 73.221 73.5 L 235 73.5 L 235 64 L 235 55.9 L 235 54.5 L 234.98 54.5 L 234.98 18.449 L 15.012 18.449 z M 34.115 28.91 C 36.509 28.91 38.259 29.687 39.365 31.24 C 39.977 32.12 40.306 32.99 40.352 33.85 L 37.379 33.85 C 37.186 33.19 36.937 32.693 36.635 32.359 C 36.094 31.733 35.294 31.42 34.232 31.42 C 33.151 31.42 32.298 31.866 31.674 32.76 C 31.05 33.62 30.736 34.81 30.736 36.33 C 30.736 37.91 31.066 39.1 31.723 39.9 C 32.385 40.7 33.225 41.1 34.242 41.1 C 35.284 41.1 36.078 40.766 36.625 40.1 C 36.928 39.7 37.179 39.14 37.379 38.42 L 40.322 38.42 C 40.065 39.94 39.405 41.199 38.344 42.199 C 37.288 43.133 35.933 43.6 34.279 43.6 C 32.233 43.6 30.624 42.966 29.453 41.699 C 28.282 40.366 27.697 38.577 27.697 36.33 C 27.697 33.883 28.363 31.99 29.695 30.65 C 30.854 29.49 32.327 28.91 34.115 28.91 z M 216.4 28.91 C 218.79 28.91 220.54 29.687 221.65 31.24 C 222.26 32.12 222.59 32.99 222.64 33.85 L 219.66 33.85 C 219.47 33.19 219.23 32.693 218.92 32.359 C 218.38 31.733 217.58 31.42 216.52 31.42 C 215.44 31.42 214.59 31.866 213.96 32.76 C 213.33 33.62 213.02 34.81 213.02 36.33 C 213.02 37.91 213.35 39.1 214 39.9 C 214.67 40.7 215.51 41.1 216.53 41.1 C 217.57 41.1 218.36 40.766 218.91 40.1 C 219.22 39.7 219.47 39.14 219.66 38.42 L 222.61 38.42 C 222.35 39.94 221.69 41.199 220.62 42.199 C 219.57 43.133 218.22 43.6 216.57 43.6 C 214.52 43.6 212.91 42.966 211.74 41.699 C 210.57 40.366 209.99 38.577 209.99 36.33 C 209.99 33.883 210.65 31.99 211.98 30.65 C 213.14 29.49 214.61 28.91 216.4 28.91 z M 85.477 29.029 L 85.477 29.039 L 85.949 29.039 L 86.527 29.039 L 86.527 31.26 L 85.746 31.26 C 85.386 31.26 85.134 31.337 84.992 31.49 C 84.858 31.657 84.791 31.844 84.791 32.051 L 84.791 32.961 L 86.596 32.961 L 86.596 34.84 L 84.791 34.84 L 84.791 43.199 L 82.051 43.199 L 82.051 34.84 L 80.516 34.84 L 80.516 32.961 L 82.021 32.961 L 82.021 32.25 C 82.021 31.143 82.211 30.381 82.59 29.961 C 82.989 29.341 83.951 29.029 85.477 29.029 z M 141.22 29.029 L 141.22 29.039 L 141.69 29.039 L 142.27 29.039 L 142.27 31.26 L 141.49 31.26 C 141.13 31.26 140.88 31.337 140.73 31.49 C 140.6 31.657 140.53 31.844 140.53 32.051 L 140.53 32.961 L 142.34 32.961 L 142.34 34.84 L 140.53 34.84 L 140.53 43.199 L 137.8 43.199 L 137.8 34.84 L 136.26 34.84 L 136.26 32.961 L 137.77 32.961 L 137.77 32.25 C 137.77 31.143 137.96 30.381 138.33 29.961 C 138.73 29.341 139.69 29.029 141.22 29.029 z M 42.184 29.09 L 44.973 29.09 L 44.973 31.6 L 42.184 31.6 L 42.184 29.09 z M 93.486 29.18 L 100.4 29.18 C 102.15 29.18 103.38 29.68 104.1 30.68 C 104.54 31.273 104.76 31.999 104.76 32.859 C 104.76 33.719 104.54 34.38 104.1 34.84 C 103.86 35.173 103.5 35.474 103.03 35.74 C 103.75 35.94 104.3 36.336 104.67 36.93 C 105.04 37.523 105.22 38.213 105.22 39 C 105.22 39.8 105.01 40.533 104.59 41.199 C 104.32 41.666 103.98 42.034 103.57 42.301 C 103.11 42.701 102.57 42.933 101.95 43 C 101.33 43.133 100.66 43.199 99.934 43.199 L 93.486 43.199 L 93.486 29.18 z M 180.21 29.18 L 184.53 29.18 L 187.12 40.199 L 189.69 29.18 L 189.73 29.18 L 194 29.18 L 194 43.199 L 191.23 43.199 L 191.23 33.75 L 191.23 32.561 L 191.23 31.439 L 188.54 43.199 L 185.65 43.199 L 182.97 31.439 L 182.97 32.561 L 182.97 33.75 L 182.97 43.199 L 180.21 43.199 L 180.21 29.18 z M 196.55 29.18 L 202.68 29.18 C 203.56 29.18 204.29 29.284 204.87 29.49 C 205.87 29.81 206.68 30.403 207.3 31.27 C 207.79 31.996 208.13 32.757 208.31 33.551 C 208.5 34.344 208.59 35.107 208.59 35.84 C 208.59 37.68 208.21 39.266 207.44 40.6 C 206.41 42.333 204.83 43.199 202.68 43.199 L 196.55 43.199 L 196.55 29.18 z M 132.27 29.199 L 135.06 29.199 L 135.06 43.199 L 132.39 43.199 L 132.39 41.801 C 132 42.401 131.55 42.833 131.04 43.1 C 130.55 43.433 129.92 43.6 129.17 43.6 C 127.94 43.6 126.91 43.1 126.06 42.1 C 125.23 41.1 124.81 39.84 124.81 38.32 C 124.81 36.534 125.22 35.144 126.05 34.15 C 126.88 33.09 127.98 32.561 129.36 32.561 C 130 32.561 130.57 32.724 131.06 33.051 C 131.56 33.317 131.96 33.684 132.27 34.15 L 132.27 29.199 z M 169.76 29.199 L 172.55 29.199 L 172.55 43.199 L 169.87 43.199 L 169.87 41.801 C 169.48 42.401 169.04 42.833 168.53 43.1 C 168.03 43.433 167.41 43.6 166.66 43.6 C 165.43 43.6 164.4 43.1 163.55 42.1 C 162.71 41.1 162.29 39.84 162.29 38.32 C 162.29 36.534 162.7 35.144 163.53 34.15 C 164.36 33.09 165.47 32.561 166.85 32.561 C 167.49 32.561 168.06 32.724 168.55 33.051 C 169.05 33.317 169.45 33.684 169.76 34.15 L 169.76 29.199 z M 47.781 30.029 L 50.502 30.029 L 50.502 32.961 L 52.211 32.961 L 52.211 34.84 L 50.502 34.84 L 50.502 40.4 C 50.502 40.8 50.557 41.066 50.666 41.199 C 50.775 41.266 51.111 41.301 51.672 41.301 L 51.932 41.301 L 52.211 41.301 L 52.211 43.301 L 50.908 43.4 C 49.608 43.4 48.72 43.166 48.244 42.699 C 47.935 42.366 47.781 41.901 47.781 41.301 L 47.781 34.84 L 46.314 34.84 L 46.314 32.961 L 47.781 32.961 L 47.781 30.029 z M 96.322 31.619 L 96.322 34.74 L 99.816 34.74 C 100.44 34.74 100.94 34.61 101.33 34.35 C 101.72 34.15 101.92 33.75 101.92 33.15 C 101.92 32.484 101.66 32.047 101.15 31.84 C 100.7 31.693 100.14 31.619 99.449 31.619 L 96.322 31.619 z M 199.43 31.619 L 199.43 40.801 L 202.18 40.801 C 203.58 40.801 204.55 40.099 205.1 38.699 C 205.41 37.986 205.56 37.099 205.56 36.039 C 205.56 34.646 205.33 33.553 204.87 32.76 C 204.42 32 203.53 31.619 202.18 31.619 L 199.43 31.619 z M 74.514 32.461 C 76.322 32.461 77.67 33.024 78.559 34.15 C 79.446 35.277 79.889 36.566 79.889 38.02 C 79.889 39.54 79.446 40.867 78.559 42 C 77.67 43.067 76.322 43.6 74.514 43.6 C 72.706 43.6 71.357 43.067 70.469 42 C 69.581 40.867 69.137 39.54 69.137 38.02 C 69.137 36.566 69.581 35.277 70.469 34.15 C 71.357 33.024 72.706 32.461 74.514 32.461 z M 148.43 32.461 C 150.24 32.461 151.59 33.024 152.48 34.15 C 153.37 35.277 153.82 36.566 153.82 38.02 C 153.82 39.54 153.37 40.867 152.48 42 C 151.59 43.067 150.24 43.6 148.43 43.6 C 146.63 43.6 145.28 43.067 144.39 42 C 143.5 40.867 143.06 39.54 143.06 38.02 C 143.06 36.566 143.5 35.277 144.39 34.15 C 145.28 33.024 146.63 32.461 148.43 32.461 z M 112.98 32.561 L 113.11 32.561 L 113.35 32.66 L 113.35 35.439 C 113.18 35.373 113.02 35.34 112.89 35.34 L 112.56 35.34 C 111.45 35.34 110.71 35.703 110.32 36.43 C 110.11 36.83 110.01 37.427 110.01 38.221 L 110.01 43.199 L 107.24 43.199 L 107.24 32.859 L 109.86 32.859 L 109.86 34.641 C 110.29 33.981 110.66 33.517 110.98 33.25 C 111.49 32.79 112.15 32.561 112.98 32.561 z M 118.86 32.561 C 120.01 32.561 121.04 32.79 121.93 33.25 C 122.82 33.717 123.26 34.58 123.26 35.84 L 123.26 40.6 L 123.26 41.801 C 123.26 42.134 123.32 42.367 123.43 42.5 C 123.52 42.633 123.66 42.734 123.84 42.801 L 123.84 43.199 L 120.85 43.199 C 120.76 42.999 120.7 42.8 120.67 42.6 C 120.67 42.466 120.64 42.267 120.57 42 C 120.18 42.4 119.74 42.766 119.25 43.1 C 118.66 43.433 117.99 43.6 117.25 43.6 C 116.3 43.6 115.51 43.334 114.88 42.801 C 114.26 42.201 113.95 41.433 113.95 40.5 C 113.95 39.18 114.45 38.257 115.44 37.73 C 115.99 37.397 116.8 37.163 117.86 37.029 L 118.8 36.93 L 118.85 36.93 C 119.36 36.863 119.72 36.764 119.94 36.631 C 120.33 36.498 120.53 36.266 120.53 35.939 C 120.53 35.473 120.38 35.172 120.07 35.039 C 119.78 34.839 119.34 34.74 118.77 34.74 C 118.12 34.74 117.65 34.907 117.38 35.24 C 117.19 35.507 117.06 35.837 116.99 36.23 L 114.34 36.23 C 114.41 35.304 114.66 34.543 115.11 33.949 C 115.84 33.023 117.09 32.561 118.86 32.561 z M 161.24 32.561 L 161.36 32.561 C 161.43 32.561 161.51 32.593 161.6 32.66 L 161.6 35.439 C 161.43 35.373 161.27 35.34 161.13 35.34 L 160.81 35.34 C 159.7 35.34 158.96 35.703 158.58 36.43 C 158.37 36.83 158.27 37.427 158.27 38.221 L 158.27 43.199 L 155.49 43.199 L 155.49 32.859 L 158.12 32.859 L 158.12 34.641 C 158.54 33.981 158.91 33.517 159.22 33.25 C 159.74 32.79 160.41 32.561 161.24 32.561 z M 42.184 32.859 L 44.973 32.859 L 44.973 43.199 L 42.184 43.199 L 42.184 32.859 z M 52.684 32.859 L 55.742 32.859 L 58.039 40.5 L 60.211 32.859 L 63.135 32.859 L 59.525 43.1 C 58.831 45.033 58.281 46.233 57.875 46.699 C 57.47 47.233 56.659 47.5 55.443 47.5 L 54.855 47.5 C 54.707 47.5 54.485 47.467 54.189 47.4 L 54.189 45.199 L 54.535 45.301 C 54.805 45.301 55.064 45.266 55.309 45.199 C 55.553 45.199 55.758 45.133 55.926 45 C 56.086 44.867 56.234 44.634 56.369 44.301 C 56.511 43.967 56.57 43.766 56.545 43.699 L 52.684 32.859 z M 74.504 34.84 C 73.699 34.84 73.078 35.107 72.641 35.641 C 72.209 36.234 71.994 37.026 71.994 38.02 C 71.994 39.073 72.209 39.9 72.641 40.5 C 73.078 41.033 73.699 41.301 74.504 41.301 C 75.307 41.301 75.925 41.033 76.357 40.5 C 76.788 39.9 77.004 39.073 77.004 38.02 C 77.004 37.026 76.788 36.234 76.357 35.641 C 75.925 35.107 75.307 34.84 74.504 34.84 z M 148.42 34.84 C 147.63 34.84 147.01 35.107 146.56 35.641 C 146.13 36.234 145.92 37.026 145.92 38.02 C 145.92 39.073 146.13 39.9 146.56 40.5 C 147.01 41.033 147.63 41.301 148.42 41.301 C 149.23 41.301 149.85 41.033 150.29 40.5 C 150.72 39.9 150.93 39.073 150.93 38.02 C 150.93 37.026 150.72 36.234 150.29 35.641 C 149.85 35.107 149.23 34.84 148.42 34.84 z M 129.99 34.939 C 129.18 34.939 128.59 35.24 128.21 35.84 C 127.84 36.433 127.65 37.192 127.65 38.119 C 127.65 39.039 127.84 39.8 128.22 40.4 C 128.61 41 129.19 41.301 129.97 41.301 C 130.74 41.301 131.33 41 131.74 40.4 C 132.15 39.8 132.35 39.074 132.35 38.221 C 132.35 36.894 132.03 35.966 131.38 35.439 C 130.98 35.106 130.52 34.939 129.99 34.939 z M 167.46 34.939 C 166.66 34.939 166.07 35.24 165.69 35.84 C 165.32 36.433 165.13 37.192 165.13 38.119 C 165.13 39.039 165.32 39.8 165.7 40.4 C 166.09 41 166.67 41.301 167.44 41.301 C 168.22 41.301 168.82 41 169.23 40.4 C 169.63 39.8 169.83 39.074 169.83 38.221 C 169.83 36.894 169.5 35.966 168.85 35.439 C 168.46 35.106 167.99 34.939 167.46 34.939 z M 96.322 37.029 L 96.322 40.801 L 99.816 40.801 C 100.44 40.801 100.92 40.7 101.27 40.5 C 101.9 40.233 102.22 39.667 102.22 38.801 C 102.22 38.087 101.91 37.597 101.3 37.33 C 100.96 37.13 100.48 37.029 99.865 37.029 L 96.322 37.029 z M 120.52 38.221 L 119.98 38.42 C 119.81 38.487 119.57 38.546 119.26 38.6 L 118.64 38.699 C 118.07 38.833 117.65 38.966 117.4 39.1 C 116.97 39.366 116.76 39.767 116.76 40.301 C 116.76 40.767 116.89 41.101 117.14 41.301 C 117.41 41.501 117.73 41.6 118.1 41.6 C 118.7 41.6 119.24 41.433 119.73 41.1 C 120.24 40.7 120.5 40.066 120.52 39.199 L 120.52 38.221 z M 16.004 55.5 L 234 55.5 L 234 55.9 L 234 64 L 234 72.5 L 73.221 72.5 C 70.227 72.5 68.277 70.6 66.994 68.5 C 65.712 66.4 65.171 64.2 65.09 63.9 L 65 63.5 L 16.004 63.5 L 16.004 55.5 z M 147.48 60 C 146.71 60 146.23 60.167 146.04 60.5 C 145.85 60.7 145.75 61.066 145.75 61.6 L 145.75 62 L 145 62 L 145 62.9 L 145.77 62.9 L 145.77 67 L 147.14 67 L 147.14 62.9 L 148.04 62.9 L 148.04 62 L 147.14 62 L 147.14 61.5 C 147.14 61.433 147.17 61.333 147.24 61.199 C 147.31 61.133 147.44 61.1 147.61 61.1 L 148 61.1 L 148 60 L 147.72 60 L 147.48 60 z M 112.49 60.1 L 112.49 67 L 113.83 67 L 113.83 66.4 C 114.02 66.667 114.19 66.834 114.34 66.9 C 114.61 67.1 114.95 67.199 115.38 67.199 C 116.08 67.199 116.62 66.934 117 66.4 C 117.39 65.867 117.59 65.233 117.59 64.5 C 117.59 63.7 117.39 63.033 116.99 62.5 C 116.6 62.033 116.06 61.801 115.37 61.801 C 114.99 61.801 114.68 61.867 114.43 62 C 114.22 62.133 114.03 62.333 113.85 62.6 L 113.85 60.1 L 112.49 60.1 z M 139.99 60.1 L 139.99 62.6 C 139.84 62.333 139.64 62.133 139.39 62 C 139.14 61.867 138.85 61.801 138.54 61.801 C 137.85 61.801 137.29 62.066 136.88 62.6 C 136.47 63.066 136.27 63.766 136.27 64.699 C 136.27 65.366 136.48 65.967 136.89 66.5 C 137.31 66.967 137.83 67.199 138.44 67.199 C 138.81 67.199 139.13 67.133 139.38 67 C 139.63 66.867 139.86 66.634 140.05 66.301 L 140.05 67 L 141.39 67 L 141.39 60.1 L 139.99 60.1 z M 170.78 60.1 L 170.78 62.6 C 170.62 62.333 170.42 62.133 170.17 62 C 169.93 61.867 169.65 61.801 169.33 61.801 C 168.64 61.801 168.08 62.066 167.67 62.6 C 167.26 63.066 167.05 63.766 167.05 64.699 C 167.05 65.366 167.26 65.967 167.68 66.5 C 168.1 66.967 168.62 67.199 169.24 67.199 C 169.61 67.199 169.92 67.133 170.17 67 C 170.42 66.867 170.64 66.634 170.84 66.301 L 170.84 67 L 172.17 67 L 172.17 60.1 L 170.78 60.1 z M 222.79 60.1 L 222.79 67 L 224.14 67 L 224.14 65.4 L 224.71 64.9 L 225.97 67 L 227.63 67 L 225.72 63.9 L 227.56 61.9 L 225.86 61.9 L 224.14 63.9 L 224.14 60.1 L 222.79 60.1 z M 154.1 61.699 C 153.19 61.699 152.52 62 152.08 62.6 C 151.63 63.133 151.41 63.767 151.41 64.5 C 151.41 65.233 151.63 65.867 152.08 66.4 C 152.52 66.934 153.19 67.199 154.1 67.199 C 155.01 67.199 155.68 66.934 156.12 66.4 C 156.57 65.867 156.79 65.233 156.79 64.5 C 156.79 63.767 156.57 63.133 156.12 62.6 C 155.68 62 155.01 61.699 154.1 61.699 z M 193.26 61.699 C 192.36 61.699 191.69 62 191.24 62.6 C 190.79 63.133 190.57 63.767 190.57 64.5 C 190.57 65.233 190.79 65.867 191.24 66.4 C 191.69 66.934 192.36 67.199 193.26 67.199 C 194.17 67.199 194.84 66.934 195.28 66.4 C 195.73 65.867 195.95 65.233 195.95 64.5 C 195.95 63.767 195.73 63.133 195.28 62.6 C 194.84 62 194.17 61.699 193.26 61.699 z M 124.35 61.801 C 123.94 61.801 123.61 61.9 123.35 62.1 C 123.19 62.233 123.01 62.467 122.8 62.801 L 122.8 61.9 L 121.48 61.9 L 121.48 67 L 122.87 67 L 122.87 64.6 C 122.87 64.2 122.92 63.899 123.03 63.699 C 123.22 63.366 123.59 63.199 124.14 63.199 L 124.31 63.199 L 124.54 63.199 L 124.54 61.801 L 124.42 61.801 L 124.35 61.801 z M 130.28 61.801 C 129.39 61.801 128.77 62.033 128.41 62.5 C 128.14 62.767 128.01 63.133 128.01 63.6 L 129.34 63.6 C 129.37 63.4 129.44 63.233 129.53 63.1 C 129.67 62.966 129.9 62.9 130.23 62.9 C 130.52 62.9 130.73 62.933 130.88 63 C 131.03 63.067 131.11 63.233 131.11 63.5 C 131.11 63.633 131.01 63.734 130.81 63.801 C 130.7 63.867 130.52 63.933 130.27 64 L 129.84 64 C 129.31 64.067 128.9 64.2 128.63 64.4 C 128.12 64.667 127.87 65.099 127.87 65.699 C 127.87 66.166 128.03 66.534 128.35 66.801 C 128.66 67.067 129.05 67.199 129.52 67.199 C 129.9 67.199 130.24 67.133 130.53 67 C 130.78 66.8 130.99 66.6 131.18 66.4 L 131.18 66.699 C 131.18 66.833 131.21 66.933 131.28 67 L 132.78 67 L 132.78 66.801 C 132.71 66.801 132.65 66.766 132.58 66.699 C 132.51 66.633 132.48 66.501 132.48 66.301 L 132.48 65.699 L 132.48 63.4 C 132.48 62.8 132.26 62.366 131.81 62.1 C 131.36 61.9 130.85 61.801 130.28 61.801 z M 163.55 61.801 C 163.14 61.801 162.8 61.9 162.54 62.1 C 162.39 62.233 162.2 62.467 161.99 62.801 L 161.99 61.9 L 160.68 61.9 L 160.68 67 L 162.06 67 L 162.06 64.6 C 162.06 64.2 162.11 63.899 162.22 63.699 C 162.41 63.366 162.78 63.199 163.34 63.199 L 163.5 63.199 L 163.73 63.199 L 163.73 61.801 L 163.61 61.801 L 163.55 61.801 z M 183.9 61.801 C 183.18 61.801 182.63 62.066 182.24 62.6 C 181.85 63.133 181.66 63.767 181.66 64.5 C 181.66 65.3 181.86 65.934 182.26 66.4 C 182.66 66.867 183.2 67.1 183.88 67.1 C 184.31 67.1 184.67 67.001 184.95 66.801 C 185.1 66.667 185.24 66.501 185.37 66.301 L 185.37 66.6 C 185.37 67.066 185.32 67.433 185.21 67.699 C 185.04 67.966 184.71 68.1 184.21 68.1 C 183.86 68.1 183.62 68.067 183.47 68 C 183.41 67.933 183.35 67.8 183.28 67.6 L 181.79 67.6 C 181.83 68.133 182.06 68.534 182.49 68.801 C 182.91 69.067 183.46 69.199 184.13 69.199 C 185.24 69.199 186 68.901 186.4 68.301 C 186.63 67.967 186.74 67.467 186.74 66.801 L 186.74 61.9 L 185.4 61.9 L 185.4 62.699 C 185.19 62.299 184.92 62.034 184.58 61.9 C 184.39 61.834 184.16 61.801 183.9 61.801 z M 74.568 61.9 L 76.047 67 L 77.475 67 L 78.309 63.301 L 79.135 67 L 80.549 67 L 82.072 61.9 L 80.641 61.9 L 79.82 65.6 L 79.02 61.9 L 77.623 61.9 L 76.865 65.6 L 76.047 61.9 L 74.568 61.9 z M 85.146 61.9 L 86.623 67 L 88.053 67 L 88.887 63.301 L 89.713 67 L 91.127 67 L 92.65 61.9 L 91.219 61.9 L 90.398 65.6 L 89.598 61.9 L 88.201 61.9 L 87.443 65.6 L 86.623 61.9 L 85.146 61.9 z M 95.725 61.9 L 97.201 67 L 98.629 67 L 99.465 63.301 L 100.29 67 L 101.71 67 L 103.23 61.9 L 101.8 61.9 L 100.97 65.6 L 100.17 61.9 L 98.779 61.9 L 98.021 65.6 L 97.201 61.9 L 95.725 61.9 z M 199.3 61.9 L 201.19 67 L 202.64 67 L 204.53 61.9 L 203.06 61.9 L 201.93 65.699 L 200.85 61.9 L 199.3 61.9 z M 213.83 61.9 L 213.83 65.1 C 213.83 65.633 213.9 66.034 214.05 66.301 C 214.32 66.901 214.85 67.199 215.63 67.199 C 215.9 67.199 216.13 67.166 216.34 67.1 C 216.54 66.966 216.75 66.833 216.96 66.699 C 217.01 66.633 217.07 66.534 217.14 66.4 L 217.24 66.301 L 217.24 67 L 218.58 67 L 218.58 61.9 L 217.18 61.9 L 217.18 64.801 C 217.18 65.067 217.14 65.3 217.05 65.5 C 216.88 65.833 216.55 66 216.08 66 C 215.71 66 215.47 65.866 215.34 65.6 C 215.27 65.466 215.24 65.3 215.24 65.1 L 215.24 61.9 L 213.83 61.9 z M 154.09 62.9 C 154.49 62.9 154.8 63.034 155.02 63.301 C 155.24 63.634 155.35 64.033 155.35 64.5 C 155.35 64.967 155.24 65.366 155.02 65.699 C 154.8 65.966 154.49 66.1 154.09 66.1 C 153.69 66.1 153.38 65.966 153.16 65.699 C 152.95 65.366 152.84 64.967 152.84 64.5 C 152.84 64.033 152.95 63.634 153.16 63.301 C 153.38 63.034 153.69 62.9 154.09 62.9 z M 193.26 62.9 C 193.66 62.9 193.97 63.034 194.18 63.301 C 194.4 63.634 194.51 64.033 194.51 64.5 C 194.51 64.967 194.4 65.366 194.18 65.699 C 193.97 65.966 193.66 66.1 193.26 66.1 C 192.86 66.1 192.55 65.966 192.32 65.699 C 192.11 65.366 192 64.967 192 64.5 C 192 64.033 192.11 63.634 192.32 63.301 C 192.55 63.034 192.86 62.9 193.26 62.9 z M 114.98 63 C 115.48 63 115.82 63.233 116 63.699 C 116.09 63.966 116.14 64.266 116.14 64.6 C 116.14 65 116.04 65.333 115.85 65.6 C 115.65 65.933 115.37 66.1 115.02 66.1 C 114.61 66.1 114.31 65.933 114.11 65.6 C 113.91 65.333 113.81 65 113.81 64.6 C 113.81 64.2 113.86 63.899 113.95 63.699 C 114.14 63.233 114.49 63 114.98 63 z M 138.85 63 C 139.12 63 139.35 63.066 139.55 63.199 C 139.87 63.466 140.03 63.933 140.03 64.6 C 140.03 65 139.93 65.333 139.73 65.6 C 139.53 65.933 139.23 66.1 138.84 66.1 C 138.45 66.1 138.16 65.933 137.97 65.6 C 137.78 65.333 137.69 65 137.69 64.6 C 137.69 64.133 137.78 63.734 137.96 63.4 C 138.15 63.134 138.45 63 138.85 63 z M 169.64 63 C 169.9 63 170.13 63.066 170.33 63.199 C 170.66 63.466 170.82 63.933 170.82 64.6 C 170.82 65 170.72 65.333 170.51 65.6 C 170.31 65.933 170.02 66.1 169.63 66.1 C 169.24 66.1 168.95 65.933 168.75 65.6 C 168.56 65.333 168.47 65 168.47 64.6 C 168.47 64.133 168.56 63.734 168.75 63.4 C 168.94 63.134 169.23 63 169.64 63 z M 184.22 63 C 184.57 63 184.86 63.134 185.07 63.4 C 185.28 63.667 185.39 64.033 185.39 64.5 C 185.39 64.967 185.28 65.333 185.06 65.6 C 184.83 65.8 184.56 65.9 184.24 65.9 C 183.76 65.9 183.43 65.701 183.24 65.301 C 183.13 65.101 183.08 64.833 183.08 64.5 C 183.08 64.167 183.13 63.899 183.23 63.699 C 183.41 63.233 183.74 63 184.22 63 z M 131.1 64.6 L 131.1 65.1 C 131.09 65.5 130.96 65.8 130.71 66 C 130.46 66.133 130.19 66.199 129.9 66.199 C 129.71 66.199 129.55 66.166 129.42 66.1 C 129.29 65.966 129.23 65.8 129.23 65.6 C 129.23 65.333 129.33 65.166 129.54 65.1 C 129.67 65.033 129.88 64.967 130.17 64.9 L 130.48 64.801 C 130.63 64.801 130.75 64.766 130.84 64.699 C 130.93 64.699 131.01 64.666 131.1 64.6 z M 106.85 65.6 L 106.85 67 L 108.32 67 L 108.32 65.6 L 106.85 65.6 z M 176.3 65.6 L 176.3 67 L 177.76 67 L 177.76 65.6 L 176.3 65.6 z M 208.18 65.6 L 208.18 67 L 209.65 67 L 209.65 65.6 L 208.18 65.6 z " transform="translate(0,961.4)" id="path4180" />
  </g>
</svg>
