<?xml version="1.0" encoding="UTF-8"?>
<svg version="1.1" viewBox="0 0 250 91" xml:space="preserve" xmlns="http://www.w3.org/2000/svg"><rect x="13.519" y="10.5" width="222.96" height="70" fill="none"/><path d="m34.017 22.646-2.2608 2.2652-14.962 14.961-2.2652 2.2652 2.2652 2.2652 21.693 21.69 2.2626 2.2626 3.0194-3.0124s15.036-14.997 15.173-15.136c2.4773-2.4683 3.9235-5.7862 4.0455-9.2812 0.12195-3.495-1.0895-6.9056-3.3888-9.5406-2.2992-2.635-5.5143-4.2973-8.9936-4.6498-3.4793-0.35258-6.9625 0.6309-9.7436 2.751l-4.5796-4.5752z" fill="#fff" fill-opacity=".5" stroke-width=".87799"/><path d="m34.017 22.646 2.2652 2.2643 4.5796 4.5796c2.7831-2.1012 6.259-3.0696 9.7276-2.7099 3.4686 0.35962 6.672 2.0205 8.9647 4.6481 2.2928 2.6275 3.5044 6.0263 3.3909 9.5117-0.11352 3.4853-1.5438 6.798-4.0026 9.2708-0.13697 0.13697-15.172 15.136-15.172 15.136l-0.75508 0.75244-2.2652 2.26-2.2626-2.2626-21.693-21.698-2.2652-2.2643 17.224-17.224zm0-4.5296-4.5304 4.5304-14.957 14.961-2.2652 2.2652-2.2635 2.2608 26.225 26.225 2.26 2.2617 2.2626 2.2626 2.2652-2.2626 2.2652-2.26 0.7542-0.75332c0.05795-0.05268 0.11502-0.10712 0.1756-0.16418l0.47763-0.47675 1.698-1.7016 5.1802-5.1696 7.6385-7.6219c2.7652-2.7726 4.4876-6.4154 4.8758-10.312 0.38816-3.8965-0.58185-7.8076-2.7457-11.071-2.1639-3.2637-5.3889-5.6795-9.1292-6.8387-3.7403-1.1592-7.7662-0.99065-11.397 0.47719-0.50985 0.20662-1.0073 0.43724-1.4926 0.69186l-2.7674-2.7745-2.2652-2.2652z" fill="#fff" fill-opacity=".70213" stroke-width=".87799"/><path d="m59.001 36.485c-0.53321-1.3101-1.3232-2.5003-2.3233-3.5004-1.0001-1.0002-2.1903-1.7901-3.5004-2.3233-2.5528-1.0285-5.4046-1.0285-7.9573 0-1.311 0.53057-2.5014 1.3204-3.4997 2.3223l-0.94999 0.9456-6.75-6.7544-14.962 14.962 21.694 21.695 0.75507-0.75332 15.169-15.137c1.4698-1.4703 2.4741-3.3409 2.8875-5.3785 0.41327-2.0375 0.2173-4.1516-0.56341-6.0784z" fill="#fff" fill-opacity=".4" stroke-width=".87799"/><path d="m54.241 35.42c-1.3375-1.3371-3.1514-2.0883-5.0428-2.0883-1.8913 0-3.7051 0.75121-5.0428 2.0883l-0.02019 0.02107-3.3715 3.3522-6.7474-6.7465-10.086 10.086 16.825 16.826s13.345-13.314 13.485-13.452c0.66236-0.66227 1.1877-1.4485 1.5461-2.3139 0.35848-0.86526 0.54295-1.7928 0.54295-2.7293 0-0.93664-0.18447-1.8641-0.54295-2.7294-0.3584-0.86526-0.88379-1.6524-1.5461-2.3147zm-18.526 8.4173c-0.33241 0.33223-0.75586 0.55858-1.2169 0.65015-0.46104 0.09166-0.93884 0.04451-1.3731-0.13539-0.43426-0.1799-0.80538-0.48456-1.0665-0.87536-0.26112-0.39088-0.40045-0.85034-0.40045-1.3203 0-0.47008 0.13934-0.92953 0.40045-1.3204 0.26112-0.3908 0.63224-0.69546 1.0665-0.87536 0.43426-0.1799 0.91206-0.22705 1.3731-0.13539 0.46103 0.09166 0.88449 0.31792 1.2169 0.65024 0.22082 0.22064 0.39598 0.48272 0.51547 0.77114s0.18104 0.59756 0.18104 0.90978c0 0.31213-0.06155 0.62127-0.18104 0.90969-0.1195 0.28842-0.29465 0.5505-0.51547 0.77123zm15.115-1.6735-10.073 10.073-3.3592-3.3583s10.05-10.053 10.075-10.078c0.44593-0.44593 1.0508-0.69651 1.6814-0.69651 0.63066 0 1.2355 0.25058 1.6814 0.69651 0.44593 0.44593 0.69651 1.0507 0.69651 1.6814 0 0.63057-0.25058 1.2354-0.69651 1.6814" fill="#fff" stroke-width=".87799"/><g transform="matrix(.87799 0 0 .87799 74.833 25.414)" fill="#fff"><path d="m0 0.19995h7.427c1.5624-0.095093 3.1115 0.33621 4.4 1.225 0.5173 0.40298 0.9302 0.92435 1.2039 1.5202 0.2738 0.59587 0.4004 1.2488 0.3691 1.9038 0.0091 0.62542-0.1354 1.2435-0.421 1.8-0.269 0.52153-0.6476 0.97866-1.11 1.34-0.0893 0.05859-0.1651 0.13554-0.2224 0.22572-0.0572 0.09018-0.0946 0.19152-0.1096 0.29728 0 0.162 0.1277 0.31933 0.383 0.472 0.6175 0.36253 1.1244 0.88669 1.466 1.516 0.3626 0.6967 0.5425 1.4739 0.523 2.259 0.0227 0.9902-0.2435 1.9656-0.766 2.807-0.5306 0.817-1.2893 1.4602-2.182 1.85-1.0416 0.4536-2.1692 0.6757-3.305 0.651h-7.656zm8.256 6.6c0.26955-0.13415 0.49535-0.34226 0.651-0.6 0.15484-0.26271 0.23409-0.5631 0.229-0.868 0.01485-0.23349-0.02332-0.4673-0.11164-0.68395-0.08832-0.21664-0.2245-0.4105-0.39836-0.56705-0.40846-0.30966-0.91441-0.46258-1.426-0.431h-2.044c-0.1029-0.00919-0.20656 0.00431-0.30367 0.03956-0.09711 0.03524-0.1853 0.09137-0.25835 0.16442s-0.12917 0.16124-0.16442 0.25835c-0.03524 0.09711-0.04875 0.20077-0.03956 0.30367v1.837c-0.00919 0.10289 0.00432 0.20656 0.03956 0.30366 0.03525 0.09711 0.09137 0.1853 0.16442 0.25835s0.16124 0.12918 0.25835 0.16443c0.09711 0.03524 0.20077 0.04875 0.30367 0.03956h2.092c0.3487 0.00888 0.69442-0.06623 1.008-0.219zm0.37 7.3c0.2923-0.1494 0.53533-0.3799 0.7-0.664 0.16652-0.3003 0.25004-0.6396 0.242-0.983 0.01225-0.248-0.03063-0.4956-0.12556-0.7251-0.09493-0.2294-0.23955-0.435-0.42344-0.6019-0.41144-0.3388-0.93464-0.5118-1.467-0.485h-2.4c-0.1029-0.0091-0.20656 0.0044-0.30367 0.0396-0.09711 0.0353-0.1853 0.0914-0.25835 0.1644-0.07305 0.0731-0.12917 0.1613-0.16442 0.2584-0.03524 0.0971-0.04875 0.2007-0.03956 0.3036v2.169c-0.00919 0.1029 0.00432 0.2066 0.03956 0.3037 0.03525 0.0971 0.09137 0.1853 0.16442 0.2584 0.07305 0.073 0.16124 0.1291 0.25835 0.1644 0.09711 0.0352 0.20077 0.0487 0.30367 0.0395h2.4c0.37246 9e-3 0.74138-0.0741 1.074-0.242z"/><path d="m15.071 0.19893h7.555c1.1194-0.025082 2.2304 0.1972 3.254 0.651 0.8788 0.39146 1.6176 1.0413 2.118 1.863 0.5014 0.87206 0.753 1.8654 0.727 2.871 0.0174 0.90852-0.2255 1.8031-0.7 2.578-0.45 0.73155-1.0779 1.3374-1.825 1.761-0.1742 0.09837-0.3059 0.25747-0.37 0.44697-0.0363 0.199 0.0049 0.4044 0.115 0.574l4.109 7.121h-5.285l-2.807-5.564c-0.121-0.2765-0.3045-0.5213-0.536-0.715-0.2023-0.1389-0.4438-0.209-0.689-0.2h-0.693c-0.0833-0.0071-0.1672 0.0053-0.2448 0.0364s-0.1469 0.0799-0.2022 0.1426c-0.1085 0.1756-0.1576 0.3814-0.14 0.587v5.717h-4.39zm8.665 7.12c0.2032-0.18137 0.3628-0.4064 0.4667-0.6582 0.1039-0.25181 0.1495-0.52387 0.1333-0.7958 0.016-0.26865-0.029-0.53743-0.1315-0.78627-0.1025-0.24883-0.2599-0.47128-0.4605-0.65073-0.4329-0.34671-0.9769-0.5244-1.531-0.5h-1.986c-0.1029-0.00901-0.2064 0.00462-0.3035 0.03993-0.097 0.03531-0.1851 0.09144-0.2581 0.16445s-0.1292 0.16113-0.1645 0.25815c-0.0353 0.09703-0.0489 0.20061-0.0399 0.30347v2.375c-9e-3 0.10286 0.0046 0.20644 0.0399 0.30347s0.0915 0.18514 0.1645 0.25815 0.1611 0.12915 0.2581 0.16445c0.0971 0.03531 0.2006 0.04894 0.3035 0.03993h1.94c0.5679 0.02665 1.1261-0.15467 1.57-0.51"/><path d="m35.871 0.19898h4.441l6.2 17.865h-4.543l-0.919-2.858c-0.0493-0.1927-0.1616-0.3634-0.319-0.485-0.1708-0.1094-0.3714-0.1628-0.574-0.153h-4.135c-0.2002-0.016-0.3995 0.0393-0.5629 0.156-0.1634 0.1168-0.2803 0.2875-0.3301 0.482l-0.893 2.858h-4.543zm0.791 10.438c0.063 0.0714 0.1422 0.1268 0.2309 0.1616 0.0886 0.0348 0.1843 0.0479 0.2791 0.0384h1.81c0.0934 0.0113 0.1882-0.0012 0.2756-0.0361 0.0874-0.035 0.1645-0.0913 0.2244-0.1639 0.048-0.0798 0.0785-0.1688 0.0895-0.2612s0.0023-0.186-0.0255-0.2748l-1.046-3.343c-0.0079-0.07012-0.0315-0.13756-0.0691-0.1973-0.0375-0.05973-0.0881-0.11022-0.1479-0.1477-0.0527-0.02897-0.1118-0.04416-0.172-0.04416-0.0601 0-0.1193 0.01519-0.172 0.04416-0.0642 0.03656-0.12 0.08614-0.164 0.14555-0.0439 0.05941-0.0749 0.12735-0.091 0.19945l-1.072 3.343c-0.0361 0.0866-0.0504 0.1809-0.0415 0.2744 0.0089 0.0934 0.0397 0.1833 0.0915 0.2616z"/><path d="m47.536 0.19908h7.3c1.4294-0.017366 2.838 0.34349 4.083 1.046 1.2383 0.7151 2.2494 1.7654 2.917 3.03 0.7588 1.4692 1.1321 3.1071 1.085 4.76 0.0472 1.6977-0.3255 3.3809-1.085 4.9-0.6555 1.2898-1.6703 2.3623-2.922 3.088-1.2435 0.7018-2.6503 1.0626-4.078 1.046h-7.3zm8.907 13.565c0.6655-0.4247 1.1897-1.0377 1.506-1.761 0.4027-0.9379 0.5942-1.9529 0.561-2.973 0.0312-0.97054-0.1607-1.9353-0.561-2.82-0.3251-0.70027-0.843-1.2934-1.493-1.71-0.6339-0.38605-1.3639-0.58504-2.106-0.574h-1.659c-0.1029-0.00901-0.2065 0.00462-0.3035 0.03993s-0.1851 0.09144-0.2581 0.16445c-0.0731 0.07301-0.1292 0.16113-0.1645 0.25816-0.0353 0.09702-0.0489 0.20061-0.0399 0.30346v8.882c-0.0092 0.1029 0.0043 0.2065 0.0395 0.3037 0.0353 0.0971 0.0914 0.1853 0.1645 0.2583 0.073 0.0731 0.1612 0.1292 0.2583 0.1644 0.0971 0.0353 0.2008 0.0488 0.3037 0.0396h1.659c0.7376 0.0079 1.4626-0.191 2.093-0.574"/><path d="m63.97 0.19898h12.276v3.731h-7.1c-0.1041-7.9e-4 -0.2073 0.01912-0.3037 0.05859-0.0963 0.03947-0.1838 0.0977-0.2574 0.17131s-0.1319 0.16113-0.1713 0.25746c-0.0395 0.09633-0.0594 0.19955-0.0586 0.30364v1.761c-9e-4 0.10414 0.0189 0.20742 0.0583 0.30381s0.0976 0.18396 0.1713 0.2576c0.0736 0.07364 0.1612 0.13187 0.2576 0.17129s0.1997 0.05924 0.3038 0.0583h6.661v3.726h-6.661c-0.1041-1e-3 -0.2074 0.0189-0.3038 0.0583s-0.184 0.0976-0.2576 0.1713c-0.0737 0.0736-0.1319 0.1612-0.1713 0.2576s-0.0592 0.1996-0.0583 0.3038v6.279h-4.39z"/><path d="m81.057 17c-1.2469-0.8559-2.2497-2.0214-2.91-3.382-0.6944-1.3906-1.0527-2.9247-1.046-4.479-0.0033-1.5537 0.3642-3.0858 1.072-4.469 0.6747-1.3659 1.69-2.5348 2.948-3.394 1.2269-0.84324 2.6834-1.2887 4.172-1.276h1.276c1.4997-0.015334 2.9672 0.43504 4.2 1.289 1.2544 0.86332 2.2688 2.0312 2.948 3.394 0.7083 1.3776 1.0759 2.905 1.072 4.454 0.0074 1.5503-0.3513 3.0805-1.047 4.466-0.6689 1.3625-1.6803 2.5278-2.935 3.382-1.2542 0.858-2.7425 1.3081-4.262 1.289h-1.225c-1.5184 0.0253-3.0074-0.4197-4.263-1.274zm7.388-3.139c0.6262-0.5151 1.1085-1.1834 1.4-1.94 0.3583-0.8831 0.5361-1.8291 0.523-2.782 0.0135-0.94754-0.1598-1.8885-0.51-2.769-0.2899-0.75509-0.7689-1.4231-1.391-1.94-0.5328-0.44699-1.2045-0.69449-1.9-0.7h-1.251c-0.6946-7e-4 -1.3673 0.24323-1.9 0.689-0.6128 0.51758-1.0868 1.1799-1.379 1.927-0.3605 0.88702-0.5384 1.8376-0.523 2.795-0.0154 0.95741 0.1625 1.908 0.523 2.795 0.292 0.7471 0.766 1.4095 1.379 1.927 0.5327 0.4458 1.2054 0.6898 1.9 0.689h1.225c0.6936-0.0051 1.3644-0.2483 1.9-0.689"/><path d="m95.808 0.19893h7.5519c1.119-0.025082 2.231 0.1972 3.254 0.651 0.879 0.3914 1.618 1.0412 2.118 1.863 0.503 0.87342 0.755 1.8686 0.728 2.876 0.017 0.90851-0.225 1.803-0.7 2.578-0.45 0.73155-1.078 1.3374-1.825 1.761-0.174 0.09847-0.306 0.25757-0.37 0.44697-0.036 0.199 5e-3 0.4044 0.115 0.574l4.109 7.121h-5.283l-2.807-5.564c-0.121-0.2766-0.304-0.5213-0.536-0.715-0.202-0.1389-0.444-0.209-0.689-0.2h-0.689c-0.083-0.0071-0.167 0.0053-0.245 0.0364-0.077 0.0311-0.147 0.0799-0.202 0.1426-0.108 0.1756-0.158 0.3814-0.14 0.587v5.712h-4.3899zm8.6649 7.12c0.203-0.18142 0.363-0.40645 0.467-0.65825 0.104-0.25179 0.149-0.52383 0.133-0.79575 0.017-0.26908-0.026-0.53859-0.128-0.78833-0.102-0.24973-0.259-0.47321-0.459-0.65367-0.433-0.34686-0.977-0.52455-1.532-0.5h-1.994c-0.103-0.00919-0.206 0.00432-0.304 0.03956-0.097 0.03525-0.185 0.09138-0.258 0.16442-0.073 0.07305-0.129 0.16125-0.164 0.25835-0.036 0.09711-0.049 0.20077-0.04 0.30367v2.38c-9e-3 0.1029 4e-3 0.20656 0.04 0.30367 0.035 0.09711 0.091 0.1853 0.164 0.25835s0.161 0.12917 0.258 0.16442c0.098 0.03524 0.201 0.04875 0.304 0.03956h1.94c0.568 0.02665 1.126-0.15467 1.57-0.51"/><path d="m111.86 0.1991h7.3c1.43-0.017543 2.839 0.34332 4.084 1.046 1.239 0.71268 2.252 1.7609 2.922 3.024 0.759 1.4692 1.132 3.1071 1.085 4.76 0.047 1.6977-0.326 3.3808-1.085 4.9-0.655 1.2899-1.67 2.3624-2.922 3.088-1.245 0.7032-2.654 1.0644-4.084 1.047h-7.3zm8.908 13.565c0.666-0.4246 1.19-1.0376 1.506-1.761 0.403-0.9378 0.595-1.9528 0.561-2.973 0.031-0.97056-0.16-1.9354-0.561-2.82-0.325-0.7004-0.843-1.2936-1.493-1.71-0.634-0.38616-1.364-0.58516-2.106-0.574h-1.659c-0.103-0.00919-0.206 0.00431-0.304 0.03956-0.097 0.03524-0.185 0.09137-0.258 0.16442s-0.129 0.16124-0.164 0.25835c-0.036 0.09711-0.049 0.20077-0.04 0.30367v8.882c-9e-3 0.1029 4e-3 0.2066 0.04 0.3037 0.035 0.0971 0.091 0.1853 0.164 0.2583 0.073 0.0731 0.161 0.1292 0.258 0.1644 0.098 0.0353 0.201 0.0488 0.304 0.0396h1.659c0.738 0.0078 1.463-0.191 2.093-0.574"/><path d="m134.78 3.139c0.499-0.95721 1.255-1.7569 2.182-2.31 0.938-0.55545 2.01-0.84225 3.1-0.829h0.791c1.001-0.01792 1.99 0.22321 2.871 0.7 0.824 0.45014 1.504 1.1223 1.965 1.94 0.473 0.84552 0.714 1.8006 0.7 2.769 3e-3 0.7416-0.133 1.4772-0.4 2.169-0.304 0.7475-0.726 1.4413-1.25 2.055-0.69 0.80615-1.455 1.5454-2.284 2.208l-1.838 1.685c-0.128 0.0818-0.219 0.2096-0.255 0.357-0.01 0.0553-6e-3 0.1121 0.012 0.1655 0.017 0.0534 0.048 0.1016 0.088 0.1405 0.052 0.0458 0.113 0.0807 0.179 0.1027 0.065 0.022 0.135 0.0306 0.204 0.0253h5.411v3.753h-12v-3.727l5.487-5.078c0.672-0.59318 1.249-1.2863 1.71-2.055 0.32-0.54719 0.495-1.1665 0.51-1.8 4e-3 -0.30403-0.061-0.605-0.191-0.88-0.107-0.2385-0.274-0.4452-0.485-0.6-0.191-0.13286-0.418-0.20279-0.651-0.2h-0.817c-0.295 0.00331-0.578 0.11184-0.8 0.306-0.275 0.24743-0.478 0.5651-0.587 0.919-0.158 0.49455-0.231 1.0121-0.217 1.531h-4.237c-0.019-1.1628 0.253-2.312 0.791-3.343"/><path d="m150.42 17.113c-1.045-0.853-1.84-1.9729-2.3-3.241-0.567-1.5128-0.843-3.1187-0.816-4.734-0.027-1.6152 0.25-3.2212 0.816-4.734 0.46-1.268 1.255-2.3879 2.3-3.241 0.956-0.76422 2.146-1.175 3.369-1.163h1.021c1.223-0.012449 2.413 0.39764 3.369 1.161 1.045 0.85335 1.839 1.9732 2.3 3.241 0.567 1.5128 0.844 3.1187 0.817 4.734 0.027 1.6153-0.25 3.2213-0.817 4.734-0.461 1.2679-1.255 2.3877-2.3 3.241-0.956 0.7634-2.146 1.1735-3.369 1.161h-1.021c-1.223 0.0126-2.413-0.3975-3.369-1.161m5.4-3.267c0.384-0.5749 0.648-1.221 0.778-1.9 0.198-0.9222 0.292-1.8638 0.281-2.807 0.01-0.93919-0.084-1.8766-0.281-2.795-0.13-0.68938-0.399-1.345-0.791-1.927-0.121-0.19942-0.289-0.36634-0.489-0.48637-0.201-0.12004-0.427-0.18958-0.66-0.20263h-0.74c-0.233 0.01293-0.458 0.08372-0.657 0.20596-0.198 0.12223-0.363 0.29204-0.479 0.49404-0.381 0.58628-0.645 1.2406-0.778 1.927-0.197 0.91389-0.292 1.8471-0.281 2.782-0.011 0.93497 0.083 1.8682 0.281 2.782 0.131 0.683 0.395 1.3333 0.778 1.914 0.118 0.1996 0.283 0.367 0.482 0.4872 0.198 0.1202 0.423 0.1895 0.654 0.2018h0.74c0.234-0.0088 0.463-0.075 0.665-0.1929s0.373-0.2838 0.496-0.4831"/><path d="m162.77 3.139c0.5-0.95715 1.255-1.7568 2.182-2.31 0.938-0.55541 2.01-0.8422 3.1-0.829h0.791c1.001-0.01792 1.99 0.22321 2.871 0.7 0.824 0.4499 1.505 1.1221 1.966 1.94 0.472 0.84554 0.714 1.8006 0.7 2.769 3e-3 0.74161-0.133 1.4772-0.4 2.169-0.304 0.74756-0.727 1.4414-1.251 2.055-0.69 0.80615-1.455 1.5454-2.284 2.208l-1.838 1.685c-0.128 0.0819-0.219 0.2097-0.255 0.357-0.01 0.0553-6e-3 0.1121 0.012 0.1655 0.017 0.0534 0.047 0.1016 0.088 0.1405 0.052 0.0457 0.112 0.0806 0.178 0.1026s0.135 0.0306 0.204 0.0254h5.411v3.753h-12v-3.727l5.487-5.078c0.672-0.59315 1.249-1.2863 1.71-2.055 0.32-0.54717 0.495-1.1665 0.51-1.8 0.01-0.30249-0.048-0.60338-0.171-0.88-0.107-0.23838-0.274-0.44504-0.485-0.6-0.191-0.1328-0.418-0.20272-0.651-0.2h-0.817c-0.295 0.00331-0.578 0.11184-0.8 0.306-0.275 0.2475-0.478 0.56514-0.587 0.919-0.158 0.49458-0.231 1.0121-0.217 1.531h-4.243c-0.019-1.1628 0.253-2.312 0.791-3.343"/><path d="m178.29 17.508c-0.863-0.4885-1.581-1.1973-2.08-2.054-0.501-0.8549-0.761-1.8293-0.753-2.82h4.16c0.026 0.3472 0.117 0.6865 0.268 1 0.125 0.2668 0.319 0.4958 0.561 0.664 0.222 0.1504 0.485 0.2302 0.753 0.229h0.868c0.285-0.0121 0.556-0.1252 0.765-0.319 0.275-0.2401 0.489-0.5421 0.625-0.881 0.168-0.4042 0.25-0.8385 0.243-1.276 0.028-0.6337-0.147-1.2598-0.5-1.787-0.125-0.2045-0.299-0.37461-0.506-0.49492-0.207-0.1203-0.441-0.18702-0.681-0.1941h-0.791c-0.324-0.00482-0.641 0.09359-0.906 0.281-0.284 0.21512-0.501 0.50732-0.625 0.84202h-4.237c0.255-1.4287 0.443-2.543 0.562-3.343l0.947-7.156h10v3.731h-5.946c-0.191-0.01185-0.382 0.03228-0.549 0.127-0.072 0.05924-0.131 0.13306-0.173 0.21664-0.041 0.08359-0.065 0.17504-0.069 0.26837l-0.226 1.357c-0.067 0.32334-0.024 0.52334 0.128 0.6 0.106 0.03504 0.219 0.04523 0.329 0.0298 0.111-0.01543 0.217-0.05608 0.309-0.1188 0.24-0.13669 0.498-0.23965 0.766-0.306 0.31-0.07139 0.627-0.10497 0.944-0.1h0.485c0.956-0.01916 1.895 0.25212 2.693 0.778 0.791 0.53889 1.418 1.2852 1.812 2.157 0.446 0.97655 0.669 2.0404 0.651 3.114 0.018 1.1156-0.25 2.2173-0.779 3.2-0.5 0.9246-1.246 1.693-2.156 2.22-0.947 0.5419-2.022 0.8183-3.113 0.8h-0.817c-1.038 0.0134-2.06-0.2511-2.961-0.766"/><path d="m2.857 41.492c-0.90046-0.5386-1.6289-1.3225-2.1-2.26-0.5161-1.0221-0.7759-2.1543-0.757-3.299v-12.025h1.221v12.025c-0.01479 0.9346 0.19076 1.8596 0.6 2.7 0.37018 0.7658 0.95128 1.41 1.675 1.857 0.73113 0.445 1.5731 0.6745 2.429 0.662h1.243c0.85677 0.0133 1.6999-0.2158 2.432-0.661 0.72361-0.4472 1.3046-1.0913 1.675-1.857 0.4091-0.8405 0.6146-1.7654 0.6-2.7v-12.026h1.215v12.025c0.02 1.1447-0.2384 2.2772-0.753 3.3-0.4715 0.9373-1.1998 1.7211-2.1 2.26-0.92906 0.5425-1.9893 0.8192-3.065 0.8h-1.25c-1.0757 0.0193-2.136-0.2574-3.065-0.8"/><path d="m16.82 42.089v-18.181h1.221v7.948c0 0.312 0.0866 0.5023 0.26 0.571 0.1733 0.0686 0.3733-0.0094 0.6-0.234l8-8.285h1.61l-6.571 6.8c-0.0785 0.0657-0.1431 0.1464-0.1899 0.2374-0.0469 0.091-0.0752 0.1905-0.0832 0.2925-8e-3 0.1021 0.0044 0.2047 0.0365 0.3019s0.0833 0.187 0.1506 0.2642l7.48 10.285h-1.48l-6.831-9.35c-0.051-0.0827-0.1192-0.1533-0.1999-0.2072-0.0808-0.0538-0.1723-0.0896-0.2681-0.1048-0.0986-3e-3 -0.1966 0.0166-0.2865 0.0571-0.0899 0.0406-0.1694 0.101-0.2325 0.1769l-1.558 1.636c-0.1423 0.1517-0.2568 0.3274-0.338 0.519-0.0714 0.1917-0.1054 0.3954-0.1 0.6v6.675z"/><path d="m40.302 41.192c-1.1765-0.8151-2.1172-1.9262-2.727-3.221-0.7409-1.5509-1.1058-3.2547-1.065-4.973-0.0425-1.7227 0.335-3.4299 1.1-4.974 0.638-1.3 1.605-2.4104 2.805-3.221 1.0141-0.6965 2.2109-1.0791 3.441-1.1h1.558c1.0098 0.0017 1.9992 0.2849 2.857 0.818 0.9207 0.5661 1.6915 1.3458 2.247 2.273 0.6052 0.9941 0.974 2.1138 1.078 3.273h-1.247c-0.0712-0.9545-0.3647-1.8792-0.857-2.7-0.4443-0.7546-1.0633-1.3915-1.805-1.857-0.68-0.4301-1.4675-0.6595-2.272-0.662h-1.532c-1.077 0.0068-2.1219 0.3673-2.974 1.026-0.9835 0.7566-1.7534 1.756-2.234 2.9-0.5809 1.3347-0.8687 2.7785-0.844 4.234-0.0242 1.4512 0.2498 2.8919 0.805 4.233 0.4532 1.1383 1.1965 2.1381 2.156 2.9 0.8355 0.6616 1.8692 1.0229 2.935 1.026h1.532c0.8255-0.0088 1.63-0.2618 2.312-0.727 0.7579-0.4986 1.4-1.154 1.883-1.922 0.5025-0.7739 0.8181-1.6541 0.922-2.571h1.247c-0.1221 1.1138-0.4985 2.1847-1.1 3.13-0.5841 0.9476-1.3744 1.7512-2.312 2.351-0.8763 0.574-1.9005 0.8808-2.948 0.883h-1.532c-1.2272-0.0146-2.4216-0.3978-3.428-1.1"/><path d="m55.549 25.986h-1.507v-2.078h1.507zm-1.325 3.013h1.169v13.09h-1.169z"/><path d="m61.339 24.713v3.506c-0.0092 0.1046 0.0047 0.2099 0.0406 0.3086s0.093 0.1883 0.1672 0.2625c0.0743 0.0743 0.1639 0.1314 0.2626 0.1673s0.204 0.0497 0.3086 0.0406h3.844v1.091h-3.844c-0.1046-0.0092-0.2099 0.0047-0.3086 0.0406s-0.1883 0.093-0.2626 0.1672c-0.0742 0.0743-0.1313 0.1639-0.1672 0.2626-0.0359 0.0986-0.0498 0.204-0.0406 0.3086v8.415c-0.0412 0.4689 0.1023 0.9353 0.4 1.3 0.1666 0.1496 0.3619 0.2637 0.5741 0.3352s0.4367 0.099 0.6599 0.0808h2.675v1.091h-2.675c-0.3831 0.0662-0.7765 0.0394-1.1471-0.0781-0.3707-0.1175-0.7076-0.3224-0.9825-0.5973-0.275-0.2749-0.4798-0.6119-0.5973-0.9825-0.1176-0.3706-0.1443-0.764-0.0781-1.1471v-8.417c0.0092-0.1046-0.0047-0.21-0.0406-0.3086-0.0359-0.0987-0.093-0.1883-0.1672-0.2626-0.0743-0.0742-0.1639-0.1313-0.2626-0.1672s-0.204-0.0498-0.3086-0.0406h-2.337v-1.09h2.339c0.1046 0.0091 0.2099-0.0047 0.3086-0.0406s0.1883-0.093 0.2626-0.1673c0.0742-0.0742 0.1313-0.1638 0.1672-0.2625s0.0498-0.204 0.0406-0.3086v-2.468z"/><path d="m70.38 45.633c0.3731-0.4434 0.6475-0.9612 0.805-1.519 0.1478-0.4712 0.2305-0.9604 0.246-1.454 0.0016-0.3325-0.0377-0.664-0.117-0.987-0.078-0.3113-0.2207-0.7526-0.428-1.324l-0.026-0.026-4.156-11.324h1.272l4.052 10.935c0.0667 0.1907 0.175 0.286 0.325 0.286s0.2583-0.0953 0.325-0.286l3.9-10.935h1.248l-5.584 15.558c-0.2453 0.7989-0.6824 1.5257-1.273 2.117-0.5241 0.4779-1.2131 0.7338-1.922 0.714h-1.169v-1.091h1.091c0.2709 0.0053 0.5395-0.0516 0.7849-0.1664 0.2455-0.1148 0.4614-0.2843 0.6311-0.4956"/><path d="m86.661 41.414c-0.8576-0.6209-1.5345-1.4589-1.961-2.428-0.4712-1.0862-0.7144-2.2575-0.7144-3.4415s0.2432-2.3553 0.7144-3.4415c0.4265-0.969 1.1034-1.8071 1.961-2.428 0.8177-0.5843 1.8-0.8935 2.805-0.883h0.831c1.0033-0.0096 1.9837 0.2996 2.8 0.883 0.8581 0.6199 1.5359 1.4568 1.964 2.425 0.471 1.0862 0.714 2.2576 0.714 3.4415s-0.243 2.3553-0.714 3.4415c-0.4268 0.9689-1.1036 1.8069-1.961 2.428-0.8162 0.5836-1.7967 0.8928-2.8 0.883h-0.839c-1.005 0.0108-1.9874-0.2985-2.805-0.883m5.818-0.922c0.6623-0.5286 1.173-1.2231 1.48-2.013 0.3765-0.932 0.5621-1.93 0.546-2.935 0.017-1.0009-0.1687-1.9948-0.546-2.922-0.312-0.7871-0.8217-1.4805-1.48-2.013-0.5726-0.4664-1.2875-0.7229-2.026-0.727h-1.143c-0.7412-0.0014-1.4606 0.2505-2.039 0.714-0.6539 0.5285-1.1594 1.2176-1.467 2-0.7286 1.8992-0.7286 4.0008 0 5.9 0.3077 0.7824 0.8132 1.4715 1.467 2 0.5783 0.4636 1.2977 0.7156 2.039 0.714h1.143c0.7365-0.0029 1.4504-0.2545 2.026-0.714"/><path d="m99.046 30.297c-0.0764-0.0715-0.1664-0.1268-0.2648-0.1626-0.0983-0.0357-0.2028-0.0512-0.3073-0.0454h-2.3369v-1.09h2.3369c0.1046 0.0092 0.21-0.0047 0.3087-0.0406 0.0986-0.0359 0.1883-0.093 0.2625-0.1673 0.0743-0.0742 0.1313-0.1638 0.1672-0.2625s0.0498-0.204 0.0407-0.3086v-1.273c-0.0554-0.8061 0.1743-1.6061 0.6489-2.26 0.2791-0.2824 0.6171-0.4989 0.9901-0.6337s0.771-0.1844 1.166-0.1453h2.675v1.091h-2.571c-0.238-0.0215-0.479 0.0053-0.706 0.0789-0.228 0.0735-0.438 0.1923-0.619 0.3491-0.322 0.4278-0.471 0.9614-0.416 1.494v1.3c-9e-3 0.1046 5e-3 0.2099 0.041 0.3086 0.035 0.0987 0.093 0.1883 0.167 0.2625 0.074 0.0743 0.164 0.1314 0.262 0.1673 0.099 0.0359 0.204 0.0498 0.309 0.0406h3.792v1.091h-3.79c-0.105-0.0092-0.21 0.0047-0.309 0.0406-0.098 0.0359-0.188 0.093-0.262 0.1672-0.074 0.0743-0.132 0.1639-0.167 0.2626-0.036 0.0986-0.05 0.204-0.041 0.3086v11.22h-1.171v-11.221c0.0058-0.1045-0.0096-0.209-0.0454-0.3073-0.0357-0.0984-0.0911-0.1884-0.1627-0.2647"/><path d="m116.1 41.192c-1.176-0.8151-2.117-1.9262-2.727-3.221-0.741-1.5509-1.106-3.2547-1.065-4.973-0.043-1.7227 0.335-3.4299 1.1-4.974 0.638-1.3 1.605-2.4104 2.805-3.221 1.014-0.6965 2.211-1.0791 3.441-1.1h1.558c1.01 0.0017 1.999 0.2849 2.857 0.818 0.921 0.5661 1.691 1.3458 2.247 2.273 0.605 0.994 0.974 2.1138 1.078 3.273h-1.247c-0.071-0.9545-0.365-1.8792-0.857-2.7-0.444-0.7546-1.063-1.3914-1.805-1.857-0.68-0.4302-1.468-0.6597-2.273-0.662h-1.532c-1.077 0.0068-2.122 0.3673-2.974 1.026-0.983 0.7566-1.753 1.756-2.234 2.9-0.581 1.3347-0.869 2.7785-0.844 4.234-0.026 1.4508 0.247 2.8916 0.8 4.233 0.453 1.1382 1.197 2.138 2.156 2.9 0.835 0.6616 1.869 1.023 2.935 1.026h1.532c0.826-0.0088 1.63-0.2618 2.312-0.727 0.758-0.4986 1.4-1.154 1.883-1.922 0.503-0.7739 0.818-1.6541 0.922-2.571h1.247c-0.122 1.1138-0.498 2.1847-1.1 3.13-0.584 0.9474-1.374 1.751-2.312 2.351-0.876 0.574-1.9 0.8808-2.948 0.883h-1.532c-1.227-0.0146-2.422-0.3978-3.428-1.1"/><path d="m140.06 42.09h-1.169v-1.247c0-0.2247-0.078-0.3547-0.233-0.39s-0.337 0.0773-0.546 0.338c-0.347 0.452-0.785 0.8266-1.285 1.1-0.541 0.2785-1.144 0.4161-1.753 0.4h-1.4c-0.725 0.0064-1.434-0.2161-2.026-0.636-0.625-0.446-1.118-1.0513-1.429-1.753-0.356-0.7912-0.534-1.6513-0.52-2.519v-8.389h1.169v8.396c-0.012 0.6799 0.112 1.3555 0.364 1.987 0.209 0.5372 0.565 1.0052 1.026 1.351 0.441 0.32 0.974 0.4885 1.519 0.48h1.195c0.746 0.0057 1.47-0.2569 2.039-0.74 0.617-0.5197 1.094-1.1847 1.39-1.935 0.326-0.7817 0.493-1.6202 0.493-2.467v-7.064h1.166z"/><path d="m144.26 23.908h-1.169v18.181h1.169z"/><path d="m150.21 24.713v3.506c-9e-3 0.1046 5e-3 0.2099 0.04 0.3086 0.036 0.0987 0.093 0.1883 0.168 0.2625 0.074 0.0743 0.164 0.1314 0.262 0.1673 0.099 0.0359 0.204 0.0497 0.309 0.0406h3.844v1.091h-3.844c-0.105-0.0092-0.21 0.0047-0.309 0.0406-0.098 0.0359-0.188 0.093-0.262 0.1672-0.075 0.0743-0.132 0.1639-0.168 0.2626-0.035 0.0986-0.049 0.204-0.04 0.3086v8.415c-0.041 0.4689 0.102 0.9353 0.4 1.3 0.166 0.1495 0.361 0.2636 0.574 0.3351 0.212 0.0715 0.436 0.099 0.659 0.0809h2.675v1.091h-2.675c-0.383 0.0662-0.777 0.0394-1.147-0.0781-0.371-0.1175-0.708-0.3224-0.983-0.5973s-0.48-0.6119-0.597-0.9825c-0.118-0.3706-0.144-0.764-0.078-1.1471v-8.417c9e-3 -0.1046-5e-3 -0.21-0.041-0.3086-0.036-0.0987-0.093-0.1883-0.167-0.2626-0.074-0.0742-0.164-0.1313-0.262-0.1672-0.099-0.0359-0.205-0.0498-0.309-0.0406h-2.337v-1.09h2.341c0.104 0.0091 0.21-0.0047 0.309-0.0406 0.098-0.0359 0.188-0.093 0.262-0.1673 0.074-0.0742 0.131-0.1638 0.167-0.2625s0.05-0.204 0.041-0.3086v-2.468z"/><path d="m166.65 42.09h-1.169v-1.247c0-0.2247-0.078-0.3547-0.234-0.39s-0.338 0.0773-0.545 0.338c-0.347 0.4521-0.785 0.8268-1.286 1.1-0.541 0.2786-1.144 0.4161-1.753 0.4h-1.4c-0.725 0.0062-1.434-0.2163-2.025-0.636-0.624-0.446-1.118-1.0514-1.429-1.753-0.356-0.7913-0.533-1.6514-0.519-2.519v-8.389h1.169v8.396c-0.012 0.68 0.112 1.3555 0.364 1.987 0.209 0.5373 0.565 1.0053 1.026 1.351 0.441 0.32 0.974 0.4885 1.519 0.48h1.195c0.746 0.0057 1.47-0.2569 2.039-0.74 0.617-0.5196 1.095-1.1846 1.39-1.935 0.326-0.7817 0.493-1.6202 0.493-2.467v-7.064h1.165z"/><path d="m172.29 30.816c-0.43 0.5104-0.752 1.1022-0.948 1.74-0.204 0.6027-0.314 1.2336-0.325 1.87v7.664h-1.169v-13.09h1.169v0.961c0 0.26 0.074 0.4073 0.221 0.442 0.147 0.0346 0.29-0.052 0.429-0.26 0.216-0.3556 0.515-0.654 0.87-0.87 0.389-0.1977 0.823-0.2917 1.259-0.273h1.844v1.09h-1.844c-0.289-4e-4 -0.575 0.0648-0.836 0.1907s-0.49 0.3083-0.67 0.5353z"/><path d="m177.55 35.648c-0.077 0.0778-0.136 0.1724-0.17 0.2765-0.035 0.1041-0.045 0.2148-0.03 0.3235 0.07 0.8162 0.276 1.615 0.61 2.363 0.306 0.719 0.772 1.3587 1.363 1.87 0.555 0.4785 1.267 0.7372 2 0.727h1.091c0.429 0.0102 0.855-0.0674 1.253-0.2282 0.397-0.1608 0.758-0.4014 1.059-0.7068 0.619-0.6144 1.036-1.4028 1.195-2.26h1.169c-0.089 0.748-0.347 1.466-0.754 2.1-0.41 0.6522-0.971 1.1957-1.636 1.584-0.693 0.4039-1.484 0.6113-2.286 0.6h-1.086c-0.954-0.0016-1.88-0.318-2.636-0.9-0.842-0.6436-1.504-1.4932-1.922-2.467-0.488-1.0992-0.732-2.2908-0.715-3.493-0.02-1.1959 0.256-2.3782 0.805-3.441 0.476-0.9428 1.176-1.7542 2.039-2.363 0.704-0.5224 1.552-0.8169 2.428-0.844h1.141c0.881-4e-4 1.737 0.297 2.428 0.844 0.754 0.586 1.351 1.3489 1.74 2.221 0.421 0.9027 0.638 1.8869 0.637 2.883 3e-3 0.2175-0.014 0.4348-0.052 0.649v0.052h-9.091c-0.214-0.0101-0.424 0.0646-0.584 0.208m0.13-1.545c0.075 0.086 0.17 0.1532 0.276 0.1961s0.22 0.0603 0.334 0.0509h6.909c0.111 0.0073 0.222-0.0099 0.326-0.0503 0.104-0.0405 0.197-0.1032 0.274-0.1837 0.072-0.095 0.121-0.2053 0.144-0.3224 0.022-0.1171 0.017-0.2378-0.015-0.3526-0.196-0.9294-0.635-1.7901-1.273-2.494-0.264-0.3257-0.596-0.5897-0.973-0.7736-0.377-0.184-0.79-0.2834-1.209-0.2914h-1.091c-0.851 0.0222-1.66 0.371-2.26 0.974-0.737 0.6945-1.268 1.58-1.532 2.558-0.039 0.1139-0.051 0.2353-0.035 0.3546 0.016 0.1194 0.059 0.2335 0.126 0.3334"/></g></svg>
