<?xml version="1.0" encoding="UTF-8"?>
<svg version="1.1" viewBox="0 0 250 91" xmlns="http://www.w3.org/2000/svg" xmlns:cc="http://creativecommons.org/ns#" xmlns:dc="http://purl.org/dc/elements/1.1/" xmlns:rdf="http://www.w3.org/1999/02/22-rdf-syntax-ns#">
<metadata>
<rdf:RDF>
<cc:Work rdf:about="">
<dc:format>image/svg+xml</dc:format>
<dc:type rdf:resource="http://purl.org/dc/dcmitype/StillImage"/>
<dc:title/>
</cc:Work>
</rdf:RDF>
</metadata>
<g transform="translate(0,-961.4)" fill="#fff">
<g transform="matrix(.41255 0 0 .41255 153.72 896.7)">
<g fill="#fff">
<path d="m-183.54 324.09c0.1-0.36 0.36-0.64 0.76-0.69 0.4-0.1 0.75-0.37 0.84-0.75 0.1-0.36 0.12-3.15 0.1-6.21l-0.1-5.55-0.83-0.1c-0.58-0.1-0.82-0.27-0.82-0.69 0-0.55 0.18-0.59 2.58-0.5l2.57 0.1 2.14 5.01c1.17 2.75 2.21 4.96 2.31 4.9 0.1-0.1 1.12-2.35 2.26-5.08l2.09-4.97h2.5c2.19 0 2.48 0.1 2.4 0.51-0.1 0.28-0.44 0.59-0.85 0.69l-0.75 0.18v6.12 6.12l0.75 0.18c0.41 0.1 0.79 0.4 0.84 0.67 0.1 0.43-0.34 0.5-3.23 0.59-3.19 0.1-3.33 0.1-3.25-0.51 0.1-0.36 0.36-0.64 0.77-0.7 0.91-0.13 1.01-0.7 0.91-5.71l-0.1-4.31-2.43 5.66c-1.45 3.36-2.62 5.69-2.89 5.75-0.3 0.1-0.68-0.48-1.15-1.65-0.39-0.96-1.49-3.5-2.43-5.64l-1.74-3.9v4.87 4.88h0.75c0.58 0 0.75 0.15 0.75 0.67 0 0.65-0.11 0.68-2.41 0.68-2.23 0-2.4 0-2.32-0.6zm24.61 0.54c-2.18-0.1-3.97-0.22-3.97-0.35s0.27-0.49 0.61-0.79c0.57-0.52 0.6-0.86 0.52-6.56l-0.1-6.01-0.75-0.18c-0.41-0.1-0.79-0.4-0.85-0.68-0.1-0.47 0.38-0.52 5.33-0.52h5.42v0.68c0 1.49-0.39 2.92-0.79 2.92-0.22 0-0.41-0.3-0.41-0.69 0-1.12-0.57-1.41-2.76-1.41h-2.04v2.57 2.56l1.73-0.1c1.63-0.1 1.73-0.13 1.82-0.91 0.1-0.58 0.26-0.83 0.67-0.83 0.53 0 0.58 0.23 0.58 2.55 0 2.35 0 2.55-0.6 2.55-0.46 0-0.6-0.2-0.6-0.87 0-0.79-0.12-0.89-1.19-1.07-2.24-0.38-2.41-0.18-2.41 2.86v2.68h2.38 2.37l0.2-1.2c0.16-0.92 0.34-1.2 0.79-1.2 0.55 0 0.58 0.15 0.39 1.88-0.12 1.03-0.22 1.89-0.24 1.92-0.14 0.19-2.75 0.27-6.11 0.19zm10.73-0.61c0-0.51 0.17-0.68 0.71-0.68 0.63 0 0.73-0.17 0.89-1.57 0.11-0.87 0.2-3.64 0.2-6.17v-4.59l-1.73 0.1c-1.72 0.1-1.72 0.1-1.87 1.14-0.1 0.68-0.34 1.08-0.68 1.15-0.45 0.1-0.52-0.16-0.52-1.88v-1.97h6.3 6.3v1.28c0 1.71-0.28 2.62-0.79 2.62-0.22 0-0.41-0.28-0.41-0.62 0-1.33-0.53-1.78-2.11-1.78h-1.49v6.13 6.13l0.82 0.1c0.56 0.1 0.86 0.29 0.92 0.69 0.1 0.57-0.1 0.6-3.23 0.6-3.23 0-3.31 0-3.31-0.67zm10.88 0.31c-0.2-0.53 0.17-0.99 0.8-0.99 0.76 0 0.92-1.08 0.92-6.11 0-5.37-0.17-6.43-1.01-6.55-0.35 0-0.68-0.32-0.73-0.61-0.1-0.49 0.29-0.53 4.74-0.53 2.89 0 5.08 0.13 5.44 0.33 0.67 0.35 1.46 1.98 1.46 2.99 0 1.1-0.92 2.65-1.97 3.29l-1 0.63 1.98 3.26c1.09 1.79 2.24 3.32 2.54 3.4 0.3 0.1 0.55 0.36 0.55 0.61 0 0.37-0.44 0.48-2.03 0.55l-2.02 0.1-2.19-3.71c-1.2-2.04-2.21-3.84-2.25-3.99 0-0.16 0.46-0.46 1.09-0.69 1.48-0.52 1.98-1.21 1.99-2.78 0-1.68-0.76-2.48-2.39-2.48h-1.2v5.78c0 3.17 0.1 5.93 0.22 6.11 0.12 0.19 0.49 0.4 0.82 0.45 0.33 0.1 0.64 0.39 0.69 0.72 0.1 0.56-0.1 0.59-3.11 0.59-2.22 0-3.25-0.11-3.34-0.36zm18.37 0.15c-2.79-0.98-4.34-3.51-4.35-7.1 0-2.87 0.44-4.27 1.86-5.88 1.53-1.74 3.41-2.38 6.38-2.19 2.83 0.18 4.46 1.05 5.7 3.06 0.85 1.38 0.91 1.67 0.91 4.35 0 2.37-0.11 3.08-0.65 4.07-0.84 1.55-2.36 3-3.77 3.59-1.27 0.53-4.69 0.59-6.08 0.1zm5.22-1.58c1.27-0.65 1.94-2.32 2.07-5.12 0.21-4.45-1-6.69-3.73-6.96-3.19-0.31-4.73 1.68-4.7 6.07 0 4.16 1.51 6.45 4.18 6.45 0.74 0 1.72-0.2 2.18-0.44zm6.63 1.12c0-0.52 0.17-0.68 0.75-0.68h0.75v-6.3-6.3h-0.75c-0.55 0-0.75-0.16-0.75-0.6 0-0.57 0.2-0.6 4.67-0.6h4.667l0.88 0.88c0.76 0.75 0.88 1.11 0.88 2.51 0 2.81-2.01 4.82-4.647 4.64-0.99-0.1-1.22-0.2-1.3-0.75-0.1-0.59 0-0.68 0.94-0.68 1.307 0 1.757-0.55 1.927-2.33 0.18-1.82-0.51-2.79-2.027-2.87l-1.04-0.1-0.18 2.1c-0.1 1.16-0.11 3.96 0 6.23l0.15 4.12h0.85c0.69 0 0.86 0.13 0.86 0.68 0 0.66-0.1 0.67-3.3 0.67-3.22 0-3.3 0-3.3-0.67zm16.497 0.35c-1.67-0.73-3.26-2.48-3.76-4.15-0.87-2.94-0.37-6.38 1.22-8.47 2.25-2.94 8.07-3.42 11.11-0.91 1.63 1.34 2.21 2.87 2.22 5.84 0 3.81-1.25 6.16-4 7.44-1.83 0.85-5.11 0.97-6.79 0.25zm5.63-1.5c2.89-2.02 2.61-10.41-0.39-11.78-1.11-0.5-3.06-0.43-4.06 0.17-1.46 0.86-1.93 2.23-1.93 5.63 0 2.53 0.11 3.2 0.68 4.27 0.37 0.69 1.04 1.47 1.5 1.71 1.08 0.59 3.36 0.59 4.2 0zm6.97 1.55c0-0.16 0.24-0.54 0.52-0.86 0.45-0.49 0.55-1.33 0.64-5.37 0.1-2.63 0-5.38-0.1-6.11-0.17-1.16-0.29-1.34-0.93-1.34-0.53 0-0.73-0.16-0.73-0.6 0-0.56 0.2-0.6 3.3-0.6 3.06 0 3.3 0 3.3 0.58 0 0.41-0.24 0.61-0.83 0.68l-0.82 0.1-0.1 6.08-0.1 6.07h2.03c1.11 0 2.19-0.1 2.38-0.22s0.44-0.73 0.56-1.35c0.15-0.83 0.36-1.12 0.78-1.12 0.53 0 0.56 0.16 0.38 2.02-0.11 1.12-0.24 2.08-0.29 2.14-0.22 0.25-10.03 0.16-10.03-0.1zm11.7-0.38c0-0.49 0.21-0.68 0.82-0.75l0.83-0.1v-6.15-6.15l-0.83-0.1c-0.58-0.1-0.82-0.27-0.82-0.68 0-0.54 0.24-0.58 3.3-0.58s3.3 0 3.3 0.58c0 0.41-0.24 0.61-0.83 0.68l-0.82 0.1v6.15 6.15l0.82 0.1c0.62 0.1 0.83 0.26 0.83 0.75 0 0.63-0.11 0.65-3.3 0.65s-3.3 0-3.3-0.65zm10.86 0.1c0.1-0.34 0.4-0.65 0.84-0.76l0.75-0.17 0.1-6.06 0.1-6.07h-1.49c-1.6 0-2.12 0.45-2.12 1.81 0 0.45-0.16 0.61-0.53 0.54-0.42-0.1-0.54-0.47-0.61-1.98l-0.1-1.87h6.5 6.5l-0.18 0.68c-0.1 0.37-0.18 1.25-0.19 1.95 0 1.07-0.1 1.27-0.6 1.27-0.49 0-0.6-0.2-0.6-1.04 0-1.17-0.58-1.48-2.43-1.3l-1.02 0.1-0.1 5.4c-0.11 6.31 0 6.75 0.99 6.75 0.57 0 0.74 0.16 0.74 0.68 0 0.66-0.1 0.67-3.31 0.67-3.12 0-3.31 0-3.23-0.59zm9.54-0.1c0-0.47 0.18-0.68 0.57-0.68 0.66 0 1.31-1.45 4.12-9.23 1.74-4.83 1.77-4.89 2.61-4.8 0.81 0.1 0.94 0.35 3.47 6.98 2.22 5.87 2.73 6.92 3.27 7 0.45 0.1 0.66 0.3 0.66 0.75 0 0.63-0.12 0.65-3.15 0.65-3.07 0-3.15 0-3.15-0.67 0-0.53 0.17-0.68 0.77-0.68 0.84 0 0.83-0.18 0-2.32l-0.4-0.98h-2.37-2.36l-0.35 1.16c-0.53 1.76-0.46 2.14 0.4 2.14 0.54 0 0.75 0.16 0.75 0.58 0 0.51-0.27 0.59-2.4 0.67-2.32 0.1-2.4 0.1-2.4-0.57zm7.93-6.15c-0.12-0.37-0.51-1.47-0.87-2.43l-0.66-1.75-0.8 2.2c-0.44 1.21-0.8 2.3-0.8 2.43 0 0.12 0.75 0.22 1.67 0.22 1.59 0 1.66 0 1.46-0.67zm8.03 6.22c0.1-0.36 0.36-0.64 0.75-0.69 0.42-0.1 0.75-0.37 0.84-0.75 0.1-0.36 0.12-3.15 0.1-6.21l-0.1-5.55-0.84-0.1c-0.57-0.1-0.81-0.27-0.81-0.68 0-0.52 0.21-0.58 2.19-0.58h2.16l3.06 4.13c1.68 2.27 3.45 4.59 3.96 5.17l0.93 1.05-0.2-9-0.84-0.1c-0.57-0.1-0.81-0.27-0.81-0.68 0-0.53 0.24-0.58 2.55-0.58s2.55 0.1 2.55 0.58c0 0.41-0.24 0.61-0.84 0.68l-0.81 0.1-0.1 6.98-0.1 6.97h-0.99c-1.05 0-0.9 0.19-7.05-7.88l-2.46-3.24v4.81 4.81h0.75c0.57 0 0.75 0.16 0.75 0.68 0 0.64-0.12 0.67-2.4 0.67-2.25 0-2.43 0-2.34-0.6zm23.64 0.33c0-0.16 0.21-0.52 0.48-0.81 0.57-0.62 0.93-7.55 0.6-10.85-0.21-1.87-0.27-2.02-0.96-2.02-0.51 0-0.72-0.16-0.72-0.6 0-0.58 0.21-0.6 5.37-0.6 5.58 0 6.57 0.16 7.77 1.3 2.1 1.93 2.67 6 1.29 9.14-0.87 1.95-2.85 3.75-4.68 4.26-1.56 0.44-9.15 0.59-9.15 0.18zm8.85-1.93c0.51-0.29 1.23-1.14 1.65-2 1.44-2.86 0.84-7.48-1.11-8.76-0.93-0.61-2.94-0.98-4.2-0.77l-0.99 0.16v5.94c0 5.4 0.1 5.95 0.51 6.09 0.89996 0.24 3.18-0.12 4.14-0.66zm6.75 1.53c0-0.51 0.18-0.68 0.7195-0.68 0.99 0 1.08-0.52 1.08-6.3s-0.1-6.3-1.08-6.3c-0.5095 0-0.7195-0.17-0.7195-0.6 0-0.56 0.21-0.6 3.2995-0.6 3.06 0 3.3 0 3.3 0.58 0 0.41-0.24 0.61-0.84 0.68l-0.81 0.1v6.14 6.14l0.75 0.17c0.45 0.1 0.78 0.42 0.84 0.76 0.1 0.56-0.12 0.59-3.24 0.59-3.2095 0-3.2995 0-3.2995-0.67zm9.4195 0.34-1.23-0.43 0.12-1.72c0.15-2.17 0.27-2.47 0.84-2.47 0.3 0 0.45 0.3 0.45 0.98 0 0.53 0.12 1.12 0.24 1.29 0.54 0.77 1.8 1.33 3 1.33 1.68 0 2.76-0.99 2.76-2.53 0-1.42-0.78-2.14-2.58-2.41-3.3-0.49-4.62-1.68-4.62-4.18 0-2.09 0.78-3.46 2.4-4.3 1.59-0.81 4.26-0.91 5.91-0.23 0.99 0.42 1.05 0.53 0.87 1.39-0.1 0.51-0.18 1.32-0.18 1.8 0 0.66-0.15 0.86-0.6 0.86-0.48 0-0.6-0.2-0.6-1.03 0-1.3-0.87-1.97-2.55-1.97-1.47 0-2.55 0.94-2.55 2.17 0 1.68 0.36 1.92 3.96 2.63 1.29 0.25 1.92 0.56 2.43 1.2 1.98 2.33 0.93 6.19-2.01 7.53-1.47 0.67-4.29 0.71-6.06 0.1zm13.14-0.26c0.1-0.34 0.39-0.66 0.84-0.76l0.75-0.17 0.1-6.06 0.1-6.07h-1.44c-1.65 0-2.16 0.37-2.16 1.58 0 0.66-0.12 0.84-0.54 0.77-0.42-0.1-0.54-0.47-0.6-1.98l-0.1-1.87h6.51c5.79 0 6.45 0.1 6.3 0.48-0.1 0.26-0.18 1.14-0.18 1.95 0 1.27-0.1 1.47-0.6 1.47-0.48 0-0.6-0.2-0.6-1.01 0-1.18-0.33-1.39-2.28-1.39h-1.32v5.68c0 3.12 0.1 5.89 0.18 6.15 0.1 0.26 0.51 0.47 0.9 0.47 0.54 0 0.72 0.16 0.72 0.68 0 0.66-0.1 0.67-3.3 0.67-3.12 0-3.33 0-3.24-0.59zm11.04-0.1c0-0.45 0.21-0.69 0.66-0.75 0.69-0.1 0.69-0.1 0.69-6.25s0-6.15-0.69-6.24c-0.42-0.1-0.66-0.31-0.66-0.68 0-0.55 0.27-0.58 4.83-0.58h4.83l0.87 0.88c0.69 0.69 0.87 1.14 0.87 2.12 0 1.55-0.36 2.3-1.71 3.47l-1.05 0.92 1.86 3.06c1.02 1.68 2.1 3.19 2.43 3.36 1.2 0.65 0.66 1.14-1.41 1.24l-1.98 0.1-2.1-3.58c-2.49-4.21-2.67-4.67-1.77-4.67 2.28 0 3.51-3.12 1.92-4.85-0.3-0.34-0.9-0.55-1.59-0.55h-1.11l-0.18 2.48c-0.27 3.15-0.27 5.65 0 7.98 0.18 1.68 0.27 1.84 0.9 1.84 0.54 0 0.72 0.17 0.72 0.68 0 0.65-0.1 0.67-3.15 0.67-3.03 0-3.15 0-3.15-0.65zm14.7 0c0-0.52 0.18-0.68 0.75-0.68 1.02 0 1.08-0.43 0.99-6.9l-0.1-5.55-0.84-0.1c-0.57-0.1-0.81-0.27-0.81-0.68 0-0.53 0.24-0.58 3.3-0.58s3.3 0.1 3.3 0.58c0 0.41-0.24 0.61-0.84 0.68l-0.81 0.1v6.15 6.15l0.81 0.1c0.63 0.1 0.84 0.26 0.84 0.75 0 0.63-0.12 0.65-3.3 0.65-3.21 0-3.3 0-3.3-0.67zm12.3 0.43c-0.57-0.18-1.65-0.94-2.43-1.69-3.03-2.91-3.15-8.15-0.3-11.22 1.8-1.95 5.25-2.75 8.73-2.02 2.37 0.49 2.37 0.51 2.19 2.65-0.15 1.57-0.27 1.87-0.72 1.87-0.42 0-0.57-0.22-0.57-0.88 0-1.06-0.54-1.65-1.98-2.13-1.38-0.45-3.27-0.21-4.29 0.55-1.47 1.09-1.98 2.38-1.98 5.01 0 2.78 0.69 4.45 2.31 5.59 1.29 0.93 3.99 1.12 5.82 0.42 0.75-0.29 1.41-0.46 1.5-0.38 0.1 0.1 0 0.48-0.15 0.9-0.57 1.46-5.28 2.24-8.13 1.33zm12.66-0.34c0.06-0.35 0.39-0.66 0.84-0.77l0.75-0.17 0.09-6.06 0.06-6.07h-1.32c-1.95 0-2.28 0.21-2.28 1.39 0 0.81-0.12 1.01-0.6 1.01-0.54 0-0.6-0.2-0.6-1.95v-1.95h6.36 6.39l-0.15 1.88c-0.12 1.47-0.27 1.89-0.69 1.97-0.39 0.1-0.51-0.11-0.51-0.94 0-1.2-0.33-1.41-2.28-1.41h-1.32l0.06 6.08 0.09 6.07 0.81 0.1c0.63 0.1 0.84 0.26 0.84 0.75 0 0.63-0.12 0.65-3.3 0.65-3.12 0-3.33 0-3.24-0.58zm22.353 0.3c-1.74-0.62-3.09-1.81-3.93-3.52-1.593-3.18-0.81-7.91 1.65-9.99 1.98-1.64 6.87-2.15 9.6-0.99l1.05 0.46-0.3 1.83c-0.24 1.47-0.42 1.84-0.84 1.84s-0.54-0.23-0.54-1.04c0-2.98-5.94-2.94-7.44 0.1-1.74 3.37-0.75 7.79 2.07 9.38 1.35 0.75 3.66 0.81 5.37 0.12 1.38-0.54 1.65-0.44 1.35 0.5-0.48 1.54-5.25 2.35-8.04 1.36zm13.77 0c-2.4-0.86-3.99-3.18-4.29-6.3-0.48-5.15 2.16-8.49 6.93-8.79 2.67-0.17 4.38 0.28 5.79 1.52 1.59 1.41 2.28 3.2 2.28 5.91 0 3.86-1.89 6.87-4.86 7.75-1.53 0.47-4.41 0.42-5.85-0.1zm5.97-2.04c2.43-2.44 1.95-9.78-0.78-11.18-0.45-0.24-1.47-0.44-2.25-0.44-2.7 0-4.23 2.61-3.96 6.78 0.18 2.51 1.11 4.72 2.28 5.37 0.45 0.23 1.47 0.43 2.25 0.44 1.26 0 1.62-0.13 2.46-0.97zm9.84 1.9c-2.16-0.98-2.31-1.48-2.49-7.8-0.15-5.49-0.15-5.57-0.84-5.66-0.42-0.1-0.66-0.31-0.66-0.68 0-0.53 0.24-0.58 3.15-0.58 2.94 0 3.15 0 3.15 0.6 0 0.43-0.21 0.6-0.72 0.6-0.96 0-1.08 0.56-1.08 5.36 0 4.41 0.33 5.69 1.68 6.3 1.89 0.86 4.32 0.11 4.89-1.49 0.18-0.54 0.33-2.96 0.33-5.54v-4.59l-0.81-0.1c-0.51-0.1-0.87-0.3-0.93-0.62-0.1-0.47 0.18-0.53 2.31-0.53 2.22 0 2.43 0.1 2.43 0.6 0 0.39-0.21 0.6-0.57 0.6-0.75 0-0.93 1.05-0.93 5.85 0 5.3-0.42 6.49-2.76 7.69-1.5 0.75-4.44 0.75-6.15 0zm11.91-0.24c0-0.52 0.18-0.68 0.75-0.68h0.75v-6.3-6.3h-0.75c-0.54 0-0.75-0.16-0.75-0.6 0-0.54 0.18-0.6 2.16-0.58h2.19l1.62 2.31c0.9 1.27 2.67 3.63 3.9 5.24l2.28 2.93 0.1-1.28c0.1-0.71 0-2.8-0.1-4.66-0.21-3.3-0.21-3.37-0.93-3.37-0.51 0-0.72-0.17-0.72-0.6 0-0.55 0.21-0.6 2.4-0.6s2.4 0 2.4 0.6c0 0.43-0.21 0.6-0.72 0.6-0.72 0-0.72 0-0.93 4.09-0.12 2.24-0.15 5.42-0.1 7.06l0.15 2.98-1.05-0.1c-0.99-0.1-1.35-0.43-4.68-4.79-2.01-2.59-3.93-5.09-4.29-5.55l-0.66-0.85v3.93c0 5.01 0.12 5.82 1.05 5.82 0.54 0 0.72 0.16 0.72 0.67 0 0.65-0.12 0.68-2.4 0.68s-2.4 0-2.4-0.68zm21 0.45c-0.57-0.19-1.65-0.97-2.43-1.72-3-2.89-3.15-8.16-0.3-11.21 1.8-1.95 5.25-2.75 8.73-2.02 2.37 0.49 2.37 0.51 2.19 2.65-0.15 1.57-0.27 1.87-0.72 1.87s-0.57-0.22-0.57-1.01c0-1.45-1.08-2.11-3.51-2.13-3.24 0-4.74 1.84-4.74 5.84 0 2.62 0.75 4.33 2.31 5.44 1.29 0.93 3.99 1.12 5.82 0.42 0.75-0.29 1.41-0.47 1.47-0.4 0.36 0.35-0.36 1.53-1.17 1.96-1.14 0.61-5.58 0.8-7.08 0.31zm9.9-0.45c0-0.51 0.18-0.68 0.72-0.68 0.6 0 0.72-0.18 0.9-1.39 0.24-1.8 0.24-7 0-9.36-0.18-1.69-0.27-1.85-0.9-1.85-0.51 0-0.72-0.17-0.72-0.6 0-0.56 0.21-0.6 3.33-0.6 3 0 3.3 0.1 3.21 0.53-0.1 0.32-0.42 0.56-0.93 0.62l-0.81 0.1v6.26 6.26l0.81 0.1c0.57 0.1 0.84 0.27 0.84 0.64 0 0.49-0.33 0.55-3.24 0.6-3.15 0.1-3.21 0-3.21-0.62zm8.7 0.18c0-0.27 0.21-0.57 0.45-0.67 0.39-0.14 0.45-1.14 0.45-6.46v-6.29l-0.81-0.1c-0.51-0.1-0.87-0.3-0.93-0.62-0.1-0.48 0.21-0.53 3.39-0.53s3.48 0.1 3.39 0.53c-0.1 0.3-0.42 0.56-0.87 0.61l-0.78 0.1-0.18 5.06c-0.1 2.78-0.1 5.54 0 6.14l0.18 1.07h1.83c2.19 0 2.58-0.2 2.85-1.52 0.12-0.65 0.42-1.06 0.75-1.13 0.51-0.1 0.54 0.1 0.42 1.89-0.1 1.1-0.24 2.08-0.33 2.17-0.1 0.1-2.34 0.19-4.98 0.21-4.29 0-4.83 0-4.83-0.45zm-119.64-28.42c-5.85-0.73-9.87-2.57-13.41-6.13-3.78-3.77-5.58-7.83-6.18-13.95-0.81-7.99 1.2-15 5.7-19.87 4.86-5.25 10.38-7.29 19.68-7.27 5.58 0 8.49 0.51 12 2.06 3.6 1.61 7.32 4.87 9.18 8.12 3.45 5.98 3.78 15.82 0.75 23.32-2.79 6.89-8.73 11.67-16.44 13.26-2.88 0.59-8.43 0.82-11.28 0.46zm10.8-4.76c2.61-1.01 4.8-3.18 6.21-6.14 1.89-3.95 2.28-6.1 2.28-12.34 0-6.27-0.39-8.38-2.31-12.44-1.41-2.94-3.75-5.49-6.03-6.55-2.22-1.04-5.49-1.44-8.37-1.02-5.85 0.85-9.27 4.06-11.1 10.42-0.63 2.16-0.69 2.97-0.66 8.39 0 5.15 0.12 6.34 0.66 8.37 1.29 4.67 3.84 8.73 6.54 10.41 2.19 1.34 4.23 1.78 7.77 1.67 2.52-0.1 3.69-0.25 5.01-0.77zm-259.86 2.92c0-0.6 0.34-1.04 1.45-1.83l1.45-1.05 0.2-3.86c0.24-4.74 0.21-21.51-0.1-28.52-0.15-4.16-0.28-5.26-0.67-5.65-0.32-0.31-1.26-0.54-2.78-0.65l-2.29-0.17v-1.42-1.43l12.37-0.13c12.72-0.14 15.76 0 18.37 0.82 7.32 2.31 8.3 11.69 1.73 16.47-0.78 0.57-2.59 1.43-4.01 1.9l-2.59 0.87 2.29 0.38c5.59 0.94 8.31 2.96 9.64 7.18 1.51 4.77 0 9.76-4.05 13.45-1.91 1.74-5.02 3.41-7.5 4.04-1.07 0.27-4.68 0.38-12.52 0.39h-11.03v-0.8zm20.49-3.62c1.81-0.77 3.61-2.79 4.31-4.83 0.63-1.85 0.72-6.32 0.16-8.21-0.53-1.78-2.08-3.68-3.66-4.5-1.55-0.79-5.99-1.47-7.63-1.16l-1.07 0.2v9.57 9.57l1.42 0.12c2.32 0.2 4.93-0.11 6.47-0.76zm-0.99-23.05c2.74-0.94 4.26-3.25 4.45-6.74 0.15-2.81-0.35-4.51-1.71-5.87-1.42-1.42-2.91-1.81-6.42-1.7l-2.77 0.1-0.2 1.5c-0.11 0.83-0.21 4.19-0.22 7.47v5.97l2.92-0.17c1.61-0.1 3.4-0.34 3.98-0.54zm20.1 25.93v-1.54l2.26-0.12c1.56-0.1 2.35-0.25 2.54-0.54 0.15-0.24 0.37-1.32 0.5-2.4 0.31-2.56 0.32-33.13 0-34.56-0.27-1.27-0.63-1.45-3.37-1.72l-1.8-0.18-0.1-1.38-0.1-1.37 13.14-0.18c17.44-0.23 19.21 0 21.99 2.78 1.94 1.94 2.54 3.53 2.54 6.75 0 2.41-0.11 2.93-0.96 4.73-1.24 2.65-3.45 4.84-6.46 6.4l-2.33 1.21 5.18 7.78c7.46 11.2 8.61 12.62 10.427 12.79 1.05 0.1 1.05 0.11 1.14 1.66l0.1 1.57h-6.457c-4.89 0-6.47-0.1-6.47-0.38 0-0.39-8.42-14.39-10.94-18.2-0.82-1.23-2.01-2.81-2.65-3.5-0.85-0.94-1.1-1.42-0.96-1.88 0.16-0.51 0.45-0.61 1.66-0.61 2.64 0 4.35-0.55 5.84-1.86 2.04-1.79 2.93-3.74 3.09-6.77 0.21-3.84-0.88-6.09-3.79-7.8-1.29-0.76-1.63-0.81-4.89-0.82-1.93 0-3.59 0.1-3.71 0.2-0.33 0.33-0.52 27.19-0.23 32.61 0.31 5.79 0.28 5.74 3.44 5.74h2.04v1.57 1.58h-10.34-10.35v-1.54zm48.597 0.15v-1.4l1.58-0.21c0.86-0.12 1.82-0.35 2.13-0.51s1.13-1.53 1.83-3.04c1.14-2.44 13.39-32.55 15.2-37.33l0.71-1.89 4.98 0.2 7.45 17.4c9.12 21.28 10.42 24.21 10.99 24.64 0.24 0.18 1.25 0.43 2.24 0.54l1.79 0.2v1.42 1.41h-10.35-10.35v-1.4-1.39l2.32-0.28c2.06-0.23 2.34-0.34 2.42-0.92 0-0.35-0.68-2.68-1.64-5.17l-1.73-4.53h-8.31-8.3l-1.24 3.49c-1.38 3.9-1.84 5.7-1.62 6.28 0.21 0.54 0.75 0.71 3.12 0.92l2.08 0.2v1.39 1.4h-7.65-7.65v-1.4zm27.44-16.5c0.11-0.11-1.26-3.71-3.04-8.01s-3.3-7.75-3.39-7.66c-0.1 0.1-1.53 3.63-3.2 7.86-2.62 6.63-2.98 7.73-2.55 7.92 0.6 0.26 11.92 0.16 12.18-0.11zm25.96 17.12c0-0.65 0.31-0.99 1.62-1.79l1.63-0.98 0.21-3.41c0.12-1.88 0.15-10.12 0.1-18.33-0.11-12.27-0.21-15.08-0.57-15.82-0.4-0.82-0.64-0.93-2.68-1.25-1.24-0.2-2.28-0.37-2.33-0.38 0 0-0.1-0.61-0.1-1.32v-1.31l14.31-0.16c14.49-0.16 19.17 0 22.44 0.83 6.06 1.51 10.92 6.09 12.57 11.85 1.29 4.63 1.26 10.91-0.15 15.46-2.1 6.87-7.65 12.83-14.37 15.41-4.6805 1.8-5.8205 1.92-19.89 1.96l-12.81 0.1v-0.81zm24.69-3.42c5.07-0.9 8.4305-3.43 10.68-8.03 0.69-1.36 1.44-3.29 1.68-4.28 1.05-4.11 1.11-9.74 0.15-13.8-0.6-2.5-2.31-5.71-3.87-7.3-3.0005-3.1-6.2105-4.05-13.83-4.08-2.88 0-5.46 0.1-5.73 0.18-0.45 0.18-0.51 1.58-0.66 12.75-0.12 6.91-0.1 15.25 0 18.55l0.21 6 1.05 0.19c1.95 0.34 7.95 0.24 10.29-0.18zm26.31 2.77v-1.43h1.2595c0.72 0 1.8-0.1 2.4-0.19 0.99-0.16 1.17-0.33 1.47-1.27 0.45-1.46 0.69-25.34 0.33-31.93-0.21-3.91-0.36-5.14-0.75-5.51-0.3-0.3-1.23-0.53-2.58-0.62l-2.1295-0.16v-1.45-1.46l12.36-0.1c15.33-0.1 20.97 0 21.33 0.35 0.15 0.16 0.15 1.29 0 2.77-0.18 1.38-0.42 3.62-0.51 4.98l-0.21 2.48h-1.47-1.47v-2.35c0-1.42-0.15-2.54-0.39-2.86-0.63-0.89-5.13-1.49-9.75-1.3-2.22 0.1-4.11 0.25-4.2 0.36-0.12 0.11-0.24 3.69-0.3 7.97l-0.1 7.78h5.04c3.78 0 5.22-0.11 5.61-0.41 0.39-0.28 0.63-0.95 0.75-2.32l0.18-1.92 1.56-0.1 1.59-0.1v7.21 7.22h-1.62-1.59l-0.15-2.28c-0.21-3.31-0.12-3.25-6.27-3.38l-5.13-0.11 0.12 8.51c0.1 4.68 0.24 8.74 0.36 9.03 0.3 0.63 0.78 0.77 3.78 1.06l2.25 0.22 0.2 2.76h-10.98-10.95v-1.43zm89.16-0.1 0.09-1.5 2.343-0.16c1.53-0.11 2.43-0.31 2.61-0.59 0.15-0.23 0.36-1.44 0.48-2.68 0.33-2.96 0.33-32.15 0-33.98-0.24-1.31-0.33-1.44-1.35-1.73-0.6-0.17-1.62-0.3-2.22-0.3-1.773 0-2.043-0.22-2.043-1.64v-1.27l13.263-0.18c17.58-0.22 19.41 0 22.08 2.76 2.4 2.46 3.24 5.82 2.34 9.33-0.99 3.78-3.3 6.54-7.23 8.59l-2.31 1.21 5.37 8.07c5.07 7.58 7.68 11.18 8.76 12.04 0.27 0.2 0.93 0.37 1.44 0.37h0.99v1.65 1.64h-6.3c-6.18 0-6.27 0-6.48-0.67-0.24-0.77-8.79-14.89-10.98-18.14-0.84-1.23-1.98-2.76-2.55-3.39-1.59-1.76-1.26-2.25 1.68-2.45 2.73-0.19 4.29-0.87 5.73-2.52 1.74-1.99 2.25-3.49 2.25-6.7 0-2.59-0.1-2.99-0.84-4.29-1.68-2.83-4.38-3.97-8.94-3.77-1.26 0.1-2.43 0.21-2.55 0.34-0.33 0.32-0.54 25.44-0.27 31.84 0.27 6.48 0.27 6.48 3.45 6.48h2.1v1.57 1.58h-10.5-10.533l0.09-1.5zm49.143 0.71c0-0.68 0.3-1 1.62-1.78l1.59-0.96 0.21-3.61c0.24-4.7 0.18-23.34-0.1-29.42-0.24-5.43-0.24-5.4-2.82-5.73s-2.61-0.35-2.61-1.78v-1.29l14.16-0.17c15.36-0.17 19.65 0 23.34 1.09 5.73 1.67 9.9 5.73 11.7 11.44 1.02 3.2 1.2 10.41 0.33 14.02-2.25 9.47-9.36 16.21-19.38 18.4-2.07 0.46-4.23 0.54-15.24 0.57l-12.81 0.1v-0.83zm26.22-3.71c3.72-1.03 5.97-2.67 8.1-5.88 2.34-3.56 3.48-7.85 3.48-13.28 0-9.74-3.75-15.69-10.98-17.49-1.56-0.39-3.42-0.52-7.68-0.53-3.06 0-5.67 0.1-5.76 0.17-0.33 0.3-0.57 25.23-0.33 31.52l0.21 5.91 1.11 0.13c2.4 0.3 10.08-0.1 11.85-0.55zm-180.27-47.71c-1.11-0.6-1.35-0.96-1.35-2.1 0-0.71 0.21-1.04 0.93-1.46 1.02-0.61 1.23-0.52 1.35 0.6 0.12 0.97 0.93 1.91 1.68 1.91 1.38 0 2.4-0.92 3.39-3.09 0.78-1.72 2.85-8.28 2.85-9.08 0-0.1-0.51 0.47-1.17 1.27-1.98 2.48-3.9 4-5.04 4-1.44 0-1.68-2.11-0.87-7.8 0.84-5.68 0.66-6.19-1.5-4.47-1.02 0.81-1.17 0.86-1.29 0.4-0.1-0.29 0.21-0.77 0.6-1.07 2.07-1.6 3.81-2.67 4.68-2.84 1.62-0.32 1.77 0.49 1.02 5.93-0.68996 5.1-0.77996 6.73-0.33 7 0.45 0.28 2.28-1.62 3.45-3.6 1.02-1.7 2.85-6.86 2.85-8 0-0.34 0.3-0.6 0.81-0.72 0.48-0.1 1.29-0.29 1.8-0.43 0.57-0.14 1.05-0.13 1.14 0 0.1 0.15-0.15 1.25-0.57 2.45s-1.44 4.48-2.28 7.28c-0.84 2.81-2.01 6.06-2.55 7.24-2.37 4.91-6.9 8.01-9.6 6.56zm42.93-0.39c-0.18-0.32 1.02-3.66 1.35-3.66 0.12 0 0.3 0.26 0.42 0.58 0.1 0.31 0.39 0.65 0.66 0.75 0.87 0.34 1.53-0.13 2.04-1.42 0.51-1.35 4.08-17.08 3.9-17.25-0.1 0-0.72-0.19-1.47-0.3-1.68-0.25-1.5-0.72 0.51-1.29 1.38-0.39 1.47-0.49 1.98-2.01 0.63-1.82 1.71-3.06 4.62-5.22 1.5-1.11 2.37-1.55 3.33-1.66 0.72-0.1 1.38 0 1.47 0.14 0.12 0.16 0 1.02-0.3 1.91-0.24 0.89-0.51 1.82-0.6 2.05-0.1 0.29-0.42 0.1-1.11-0.68-0.57-0.6-1.2-1.1-1.44-1.1-0.87 0-1.65 1.19-2.16 3.2-0.27 1.13-0.57 2.31-0.69 2.62-0.15 0.53 0 0.56 1.83 0.41 2.1-0.17 2.34 0 1.68 1.27-0.24 0.47-0.54 0.53-2.04 0.39l-1.74-0.16-1.59 5.81c-0.87 3.2-1.98 6.86-2.49 8.13-1.11 2.89-3 5.53-4.89 6.78-1.38 0.91-2.94 1.25-3.27 0.71zm-80.91-7.85c-4.44-0.77-6.62-4.12-6.17-9.46 0.33-3.89 1.66-6.72 4.36-9.24 3.41-3.18 8.3-4.5 12.49-3.37 2.46 0.67 2.67 0.93 2.13 2.5-0.24 0.67-0.54 1.83-0.63 2.59-0.18 1.06-0.33 1.37-0.78 1.37s-0.54-0.28-0.63-1.72c-0.1-1.71-0.1-1.73-1.44-2.4-2.74-1.39-6.86-0.68-8.49 1.47-2.44 3.2-3.56 10.01-2.18 13.31 1.41 3.37 5.73 4 10.28 1.49 1.02-0.56 1.92-0.93 1.98-0.81 0.54 0.88-1.92 2.75-4.91 3.74-1.78 0.6-4.32 0.82-6.01 0.53zm15.54 0c-0.81-0.49-0.63-2.4 0.69-6.99 0.66-2.29 1.2-4.41 1.2-4.72 0-0.76-0.54-0.71-1.86 0.18-1.29 0.88-1.32 0.89-1.53 0.32-0.33-0.85 5.79-4.65 6.84-4.25 0.78 0.3 0.45 2.8-1.02 7.64-1.68 5.49-1.65 5.76 0.6 4.49 1.17-0.65 1.68-0.61 1.38 0.12-0.15 0.43-4.23 3.07-5.16 3.34-0.33 0.1-0.84 0-1.14-0.13zm10.62-0.25c-0.87-0.86-0.81-1.65 0.57-7.27 0.66-2.7 1.2-5.07 1.2-5.28 0-0.26-0.54-0.38-1.65-0.38-2.49 0-2.13-0.83 0.66-1.48l1.53-0.36 0.33-1.88c0.18-1.03 0.33-2.07 0.33-2.3 0-0.43 3.75-1.72 4.08-1.4 0.1 0.1-0.21 1.33-0.63 2.77s-0.75 2.67-0.75 2.74c0 0.1 0.96 0.11 2.1305 0.11 2.07 0 2.13 0 1.95 0.68-0.1 0.37-0.18 0.81-0.18 0.97 0 0.18-0.93 0.3-2.1605 0.3h-2.16l-0.39 1.35c-0.78 2.59-1.95 8.42-1.77 8.86 0.24 0.68 0.87 0.54 2.58-0.61 0.87-0.57 1.62-1.05 1.68-1.05 0.1 0 0.12 0.26 0.12 0.57 0 0.39-0.84 1.11-2.58 2.25-1.44 0.93-2.79 1.68-3 1.68s-0.57 0.1-0.81 0.18c-0.27 0.1-0.75-0.11-1.08-0.45zm46.77 0.29c-2.58-0.5-3.45-1.99-3.21-5.39 0.3-4.42 1.95-7.21 5.31-8.99 4.26-2.29 8.28-1.17 8.82 2.45 0.27 1.7-0.42 5.06-1.44 7.05-1.65 3.24-6.12 5.54-9.48 4.88zm4.89-2.41c1.5-1.77 2.91-7.24 2.43-9.45-0.6-2.9-3.9-2.98-5.37-0.14-0.81 1.54-1.71 6.03-1.59 7.7 0.18 2.06 0.84 2.78 2.52 2.78 1.05 0 1.41-0.15 2.01-0.89zm-58.17-16.94c-0.39-0.62-0.42-0.92-0.12-1.81 0.75-2.28 3.6-2.19 3.6 0.13 0 2.06-2.43 3.25-3.48 1.68z"/>
<path d="m-264.05 341.95c-6.69-0.61-12.49-2.03-22-5.4-11.77-4.18-18.21-5.39-24.15-4.52-5.83 0.85-8.41 3.03-7.33 6.19 0.51 1.47 1.13 1.93 2.6 1.93 1.88 0 4.12-1.52 3.73-2.54-0.29-0.75-1.8-0.54-3.15 0.44l-1.24 0.9-0.46-1.09c-0.6-1.43-0.57-1.69 0.22-2.42 1.09-1 2.51-1.59 3.81-1.59 1.15 0 1.25 0.1 1.96 1.49 1 1.97 0.98 3.3-0.1 4.53-1.12 1.32-2.88 2.06-4.94 2.07-2.64 0-3.04-0.47-6.1-7.4-2.39-5.41-2.6-6.03-2.43-7.27 0.4-2.9 2.85-5.13 7.24-6.59 7.89-2.63 17.24-1.73 29.57 2.84 8.48 3.14 15.69 5.5 18.87 6.18 2.69 0.58 4.05 0.68 9.3 0.67 8.33 0 11.32-0.66 23.1-5.06 13.13-4.91 17.68-5.99 25.05-5.96 4.15 0 5.19 0.12 7.68 0.78 6.05 1.6 8.97 4.13 8.97 7.75 0 0.89-0.58 2.58-1.98 5.79-3.39 7.73-3.81 8.28-6.44 8.28-2.9 0-5.45-1.63-5.85-3.73-0.15-0.81 0-1.38 0.66-2.62 0.78-1.46 0.96-1.61 2-1.69 1.36-0.12 3.63 0.89 4.28 1.88 0.39 0.6 0.38 0.81-0.1 1.91l-0.53 1.23-1.32-0.89c-1.68-1.13-3.03-1.2-3.03-0.16 0 1.17 1.6 2.11 3.58 2.12 1.53 0 1.68-0.1 2.33-1.02 2.42-3.57-1.45-6.67-8.91-7.13-5.63-0.34-10.7 0.73-22.2 4.71-7.96 2.75-13.39 4.23-18 4.91-4.01 0.59-11 0.81-14.75 0.48zm2.66-3.84c0.94-0.6 1.41-4.26 0.54-4.26-0.34 0-0.45 0.38-0.45 1.59 0 2.15-0.83 2.93-1.94 1.82-0.39-0.39-0.45-0.82-0.29-2.1 0.17-1.36 0.13-1.61-0.28-1.61-0.71 0-0.7 3.47 0 4.25 0.5 0.56 1.76 0.72 2.41 0.31zm4.88-0.2c0.58-0.69 0.24-1.47-0.89-2.04-1.32-0.65-1.35-1.24-0.1-1.36 1.08-0.11 1.3-0.52 0.41-0.8-0.97-0.31-2.13 0.43-2.13 1.36 0 0.68 0.19 0.9 1.05 1.18 0.73 0.24 1.05 0.53 1.05 0.94 0 0.5-0.17 0.59-0.95 0.51-0.57-0.1-1 0-1.08 0.27-0.18 0.55 2.16 0.5 2.62-0.1zm3.49-1.81c-0.2-1.94-0.19-1.95 0.56-1.95 0.42 0 0.76-0.14 0.76-0.32 0-0.48-3.37-0.22-3.53 0.27-0.1 0.27 0.1 0.37 0.57 0.3 0.66-0.1 0.72 0 0.79 1.4 0.11 1.81 0.24 2.25 0.7 2.25 0.25 0 0.3-0.55 0.15-1.95zm-13.01 0.81c0.33-0.28 0.53-0.88 0.53-1.6 0-1.35-0.79-2.02-2.65-2.27l-1.17-0.16-0.21 1.76c-0.11 0.97-0.27 1.99-0.35 2.26-0.27 0.93 2.8 0.93 3.85 0zm-2.88-1.49c0.24-1.8 0.45-2.03 1.48-1.53 1.26 0.62 1.53 1.26 0.93 2.18-0.39 0.59-0.76 0.78-1.55 0.78h-1.04zm19.52 1.28c-0.22-1.34 0.39-1.41 1.29-0.15 0.66 0.92 1.2 1.17 1.2 0.55 0-0.2-0.23-0.6-0.5-0.91-0.39-0.42-0.42-0.64-0.15-0.91 0.49-0.49 0.44-1.58-0.1-2.03-0.29-0.24-0.89-0.3-1.75-0.17l-1.3 0.19 0.27 1.87c0.33 2.31 0.42 2.61 0.86 2.61 0.23 0 0.29-0.35 0.18-1.05zm-0.33-2.13c-0.26-0.68 0-1.02 0.9-1.02 0.85 0 1.31 0.83 0.69 1.23-0.66 0.41-1.39 0.32-1.59-0.21zm-21.35 0.28c0.34-1.35 0.4-2.09 0.19-2.3-0.33-0.33-0.4-0.21-0.92 1.82-0.18 0.71-0.38 1.28-0.44 1.28-0.1 0-0.4-0.88-0.76-1.95-0.49-1.48-0.79-1.95-1.21-1.95-0.56 0-0.87 0.73-1.37 3.2-0.27 1.37 0.39 1.53 0.76 0.18 0.18-0.62 0.32-1.29 0.32-1.49s0.12-0.43 0.28-0.53c0.15-0.1 0.56 0.71 0.92 1.79 0.89 2.69 1.54 2.68 2.23-0.1zm27.6 0.65c-0.13-0.68 0-1.47 0.29-2.26 0.58-1.47 0.59-1.49 0-1.49-0.26 0-0.51 0.42-0.63 1.05-0.23 1.24-0.4 1.29-1.31 0.32-0.38-0.4-0.88-0.65-1.11-0.56-0.31 0.12-0.1 0.47 0.78 1.28 0.66 0.62 1.21 1.39 1.21 1.71 0 0.64 0.24 1 0.66 1 0.15 0 0.18-0.47 0.1-1.05zm-33.22-2.23c0.47-1.61 0.52-2.12 0.23-2.23-0.25-0.1-0.55 0.48-0.89 1.69-0.28 1.01-0.58 2.01-0.66 2.23-0.1 0.21 0 0.39 0.28 0.39s0.65-0.74 1.04-2.08zm37.58 0.44c0.44-0.54 0.16-1.06-0.58-1.06-0.67 0-0.99 0.7-0.53 1.16 0.45 0.45 0.67 0.43 1.11-0.1zm4.13 0.1c-0.58-1.55-0.57-1.72 0.23-2.02 1.25-0.47 1.57-0.37 1.93 0.66 0.22 0.64 0.43 0.85 0.63 0.65s0.1-0.93-0.42-2.22c-0.8-2.13-1.56-2.83-1.24-1.15 0.17 0.94 0.11 1.04-0.8 1.39-0.55 0.2-1.04 0.26-1.08 0.11-0.19-0.54-0.93-1.38-1.09-1.22-0.31 0.31 1.13 4.18 1.56 4.18 0.23 0 0.36-0.17 0.28-0.38zm-44.92-1.45c0-0.37-0.21-0.57-0.61-0.57-0.73 0-1.14 0.86-0.59 1.2 0.58 0.35 1.2 0 1.2-0.63zm-3.91 0c0.38-0.7 0.13-1.44-0.63-1.84-0.76-0.41-0.74-1.48 0-1.48 0.32 0 0.67 0.14 0.77 0.31 0.11 0.16 0.33 0.22 0.49 0.12 0.5-0.31-0.35-1.03-1.21-1.03-1.6 0-2.01 1.25-0.78 2.4 1.27 1.2 0.73 2-0.79 1.18-0.82-0.44-1.16 0-0.43 0.49 0.85 0.62 2.19 0.54 2.56-0.15zm55.84-0.95c0.69-0.69 0.66-1.39-0.17-3.35-0.46-1.09-1.33-1.66-0.92-0.6 0.11 0.29 0.35 1.1 0.54 1.81 0.3 1.1 0.27 1.34-0.17 1.79-0.74 0.73-1.4 0.23-2.15-1.62-0.34-0.83-0.76-1.45-0.95-1.39-0.44 0.15 0.62 3.09 1.31 3.61 0.74 0.57 1.8 0.46 2.51-0.25zm-60.01 0c0.82-0.44 0.73-1.62-0.17-2.21-0.41-0.27-0.75-0.71-0.75-0.97 0-0.4 0.23-0.45 1.27-0.3l1.28 0.19-0.71-0.6c-0.86-0.73-1.47-0.76-2.19-0.1-0.74 0.66-0.69 1.06 0.2 1.9 1.24 1.17 0.77 2.28-0.6 1.38-0.92-0.6-1.29-0.1-0.39 0.55 0.79 0.55 1.26 0.59 2.06 0.16zm-3.62-1.16c0-0.16-0.47-0.44-1.05-0.63-1.05-0.35-1.4-1.08-0.65-1.37 0.22-0.1 0.76 0 1.2 0.15 0.63 0.24 0.8 0.22 0.8-0.11 0-0.23-0.41-0.51-0.9-0.62-0.92-0.2-1.22-0.94-0.5-1.22 0.22-0.1 0.75 0 1.19 0.15 0.5 0.19 0.85 0.2 0.97 0 0.17-0.28-0.65-0.7-2.09-1.06-0.64-0.16-0.76 0-1.37 1.81-0.36 1.1-0.57 2.09-0.46 2.2 0.25 0.26 1.97 0.91 2.48 0.94 0.21 0 0.38-0.11 0.38-0.26zm66.6 0.17c0-0.1-0.26-0.87-0.59-1.8-0.32-0.93-0.47-1.7-0.35-1.7 0.13 0 0.68 0.61 1.21 1.35 1.38 1.93 1.78 1.79 1.89-0.67l0.1-2.03 0.58 1.73c0.33 0.99 0.75 1.72 0.99 1.72 0.46 0 0.41-0.26-0.57-2.89-0.47-1.27-0.68-1.52-1.16-1.39-0.5 0.13-0.59 0.41-0.59 1.92 0 0.97-0.12 1.76-0.26 1.76s-0.63-0.54-1.09-1.2c-0.77-1.11-1.7-1.54-2.07-0.95-0.26 0.43 1.12 4.25 1.53 4.25 0.22 0 0.39 0 0.39-0.1zm-92.09-1.08c-0.48-0.9-0.37-1.38 0.42-1.81 0.9-0.48 1.16-1.08 0.78-1.79-0.45-0.84-1.01-0.91-2.37-0.3l-1.25 0.55 0.97 1.97c0.53 1.08 1.15 1.96 1.36 1.96 0.3 0 0.32-0.14 0.1-0.58zm-1.16-2.58c-0.3-0.66-0.26-0.75 0.43-0.92 1.37-0.35 1.71 0.69 0.45 1.37-0.44 0.23-0.61 0.14-0.88-0.45zm22.16 1.53c-0.42-1.09-0.39-1.37 0.13-1.37 0.65 0 1.14-1.08 0.79-1.74-0.32-0.6-2.44-1.38-2.78-1.03-0.19 0.2-1.15 3.63-1.15 4.12 0 0.51 0.75-0.12 0.91-0.77 0.25-1.07 0.98-0.9 1.22 0.29 0.12 0.55 0.39 1.12 0.61 1.25 0.56 0.35 0.62 0.18 0.27-0.75zm-1.31-2.17c-0.41-0.41-0.19-1.3 0.32-1.29 0.83 0 1.38 0.48 1.18 1.01-0.18 0.48-1.12 0.66-1.5 0.28zm96.97 2.37c0.19-0.46 0.88-1.17 1.54-1.57 0.65-0.41 1.19-0.84 1.19-0.97 0-0.37-0.7-0.25-1.33 0.23-0.84 0.63-0.98 0.56-1.2-0.58-0.1-0.56-0.36-1.09-0.58-1.17-0.31-0.12-0.34 0.17-0.15 1.36 0.17 1.1 0.12 1.73-0.19 2.33-0.4 0.77-0.34 1.2 0.16 1.2 0.12 0 0.37-0.37 0.56-0.83zm-112.94-1.12c-0.24-1.29 0.32-1.42 1.36-0.31 0.38 0.41 0.82 0.67 0.98 0.57 0.15-0.1 0-0.49-0.39-0.88-0.55-0.59-0.6-0.79-0.29-1.17 0.23-0.27 0.3-0.77 0.18-1.24-0.19-0.75-0.28-0.78-1.69-0.65-0.82 0.1-1.57 0.22-1.67 0.32-0.32 0.32 0.91 4.41 1.32 4.41 0.29 0 0.34-0.28 0.2-1.05zm-0.53-1.85c-0.11-0.11-0.2-0.45-0.2-0.75 0-0.41 0.23-0.55 0.9-0.55 0.68 0 0.9 0.14 0.9 0.57 0 0.72-1.11 1.23-1.6 0.73zm94.9 2.32c0-0.74 1.86-1.19 2.54-0.62 1.08 0.89 0.9 0-0.32-1.65-1.95-2.6-2.24-2.55-2.67 0.45-0.11 0.75-0.26 1.59-0.34 1.88-0.1 0.34 0 0.52 0.32 0.52 0.27 0 0.47-0.25 0.47-0.58zm0.3-2.12c0-1.05 0.43-1.17 0.92-0.26 0.27 0.5 0.25 0.69-0.1 0.89-0.68 0.44-0.85 0.31-0.85-0.63zm-81.48 1.63c0.41-1.08 0.19-1.86-0.57-2-0.5-0.1-0.75 0-0.75 0.26 0 0.23 0.19 0.41 0.42 0.41 0.28 0 0.37 0.21 0.27 0.6-0.11 0.39-0.41 0.6-0.88 0.6-0.67 0-1.92-0.93-1.91-1.42 0-1.53 1.22-2.39 2.59-1.86 0.99 0.37 1.35 0.1 0.58-0.49-0.83-0.61-2.06-0.53-2.98 0.19-0.61 0.48-0.79 0.89-0.79 1.78s0.18 1.3 0.79 1.78c0.97 0.76 2.96 0.85 3.23 0.15zm95.62-1.4c0.3-1.25 0.58-1.85 0.85-1.79 0.22 0 0.62 0 0.88-0.11 0.33-0.14 0-0.34-1.02-0.61-1.81-0.49-2.25-0.51-2.25-0.12 0 0.17 0.27 0.3 0.6 0.3 0.71 0 0.71 0 0.16 2.08-0.24 0.89-0.36 1.73-0.28 1.87 0.36 0.58 0.64 0.14 1.06-1.62zm-101.37 0.64c1.28-1.54 0.16-3.87-1.87-3.87-1.95 0-3.03 1.87-2.08 3.64 0.69 1.28 2.97 1.41 3.95 0.23zm-3.27-0.75c-0.46-0.71-0.47-0.87-0.1-1.58 0.34-0.61 0.67-0.79 1.48-0.79 0.83 0 1.11 0.16 1.44 0.84 0.9 1.9-1.69 3.29-2.85 1.53zm95.51-0.27c-0.1-0.9-0.1-1.65 0.1-1.65 0.14 0 0.7 0.67 1.26 1.49 0.73 1.09 1.21 1.5 1.73 1.5 0.67 0 0.7-0.1 0.52-1.38-0.1-0.77-0.19-1.78-0.19-2.25 0-0.54-0.16-0.86-0.43-0.86-0.34 0-0.39 0.34-0.26 1.65 0.1 0.91 0.1 1.65-0.1 1.65-0.15 0-0.71-0.68-1.25-1.5-0.69-1.06-1.17-1.5-1.65-1.5-0.64 0-0.67 0.1-0.57 2.25 0.1 1.8 0.19 2.25 0.57 2.25s0.43-0.28 0.29-1.65zm5.62 0.98c0.4-2.02 0.43-3.83 0-3.83-0.26 0-0.47 0.57-0.59 1.58-0.26 2.2-0.24 2.92 0.1 2.92 0.17 0 0.36-0.3 0.44-0.67zm-56.08 2.41c-4.61-0.53-9.91-2.11-21.21-6.35-7.96-2.98-13.36-4.28-19.29-4.67l-3.3-0.21 1.2-0.57c0.83-0.4 1.87-0.57 3.37-0.58 1.2 0 2.18-0.1 2.18-0.21 0-0.1-0.41-0.54-0.9-0.95-0.5-0.42-0.9-0.83-0.9-0.93 0-0.29 2.32-0.19 3.17 0.14 0.45 0.17 0.86 0.26 0.92 0.2 0.1 0-0.17-0.63-0.5-1.27-0.32-0.64-0.59-1.21-0.59-1.25 0-0.31 2.35 0.94 2.82 1.49 0.39 0.46 0.61 0.55 0.7 0.29 0.16-0.45 1.94-1.39 3.19-1.69 0.92-0.22 0.95-0.1 0.32 1.46-0.23 0.56-0.2 0.56 0.59-0.1 0.85-0.67 2.75-1.2 3.09-0.87 0.1 0.1-0.1 0.48-0.39 0.83l-0.57 0.64 1.25-0.63c1.37-0.7 3.71-1.18 3.69-0.76 0 0.14-0.21 0.52-0.45 0.84-0.69 0.92-0.53 1.03 0.77 0.58 1.45-0.5 2.9-0.27 2.36 0.38-0.29 0.34-0.1 0.41 1.12 0.41 2.76 0 3.47 0.4 6.63 3.65 2.82 2.9 7.71 6.82 11.18 8.95 0.91 0.56 1.71 1.06 1.78 1.11 0.32 0.24-0.3 0.25-2.23 0zm8.85 0c0.1-0.1 1.57-1.09 3.3-2.24 4.3-2.83 6.26-4.44 9.6-7.87 3.09-3.17 3.88-3.61 6.53-3.61 1.4 0 1.59-0.1 1.28-0.44-0.57-0.68 0.79-0.87 2.34-0.33l1.29 0.46-0.67-1.09-0.68-1.09 1.33 0.21c0.73 0.11 1.83 0.45 2.44 0.75 1.06 0.52 1.1 0.52 0.83 0-0.16-0.29-0.29-0.61-0.29-0.71 0-0.38 1.18-0.12 2.48 0.53l1.38 0.7-0.45-0.87c-0.25-0.49-0.4-0.94-0.33-1 0.27-0.27 3.16 0.81 3.67 1.38 0.54 0.59 0.56 0.59 1.18 0 0.57-0.52 2.34-1.54 2.68-1.54 0.1 0-0.15 0.53-0.51 1.18-0.74 1.36-0.61 1.66 0.53 1.23 0.97-0.37 3.17-0.41 3.17-0.1 0 0.13-0.33 0.4-0.73 0.58s-0.86 0.58-1.02 0.87c-0.27 0.5-0.11 0.54 2 0.56 1.6 0 2.66 0.18 3.5 0.58l1.2 0.56-3.3 0.22c-5.85 0.38-10.72 1.52-18.15 4.23-8.79 3.21-15.99 5.59-18.45 6.09-2.57 0.53-6.4 0.94-6.15 0.67zm-6.55-1.9-2.79-1.66 0.52-0.81c0.95-1.46 2.84-3.95 2.99-3.95 0.1 0 0.68 0.3 1.32 0.67l1.16 0.67 1.27-0.71 1.26-0.71 0.55 0.72c0.31 0.39 1.05 1.43 1.66 2.3 0.94 1.36 1.04 1.65 0.68 1.99-0.6 0.57-5.15 3.18-5.51 3.16-0.17 0-1.57-0.76-3.11-1.67zm3.55-1.32c0-0.16 0.2-0.3 0.45-0.3s0.45-0.13 0.45-0.3c0-0.16-0.15-0.3-0.33-0.3-0.19 0-0.26-0.2-0.17-0.44 0.21-0.54-0.29-0.91-0.5-0.39-0.12 0.3-0.21 0.3-0.41 0-0.17-0.23-0.41-0.26-0.7-0.1-0.3 0.19-0.32 0.28-0.1 0.28 0.21 0 0.38 0.14 0.38 0.3 0 0.17-0.2 0.3-0.44 0.3-0.26 0-0.37 0.18-0.28 0.44 0.1 0.23 0.36 0.35 0.59 0.26 0.24-0.1 0.43 0 0.43 0.17 0 0.18 0.13 0.33 0.3 0.33 0.16 0 0.3-0.13 0.3-0.3zm-10.2-3.31c-3.78-3.04-3.67-2.59-1.19-4.79 1.52-1.34 2.26-1.82 2.53-1.62 1.28 0.95 4.36 3.51 4.36 3.63 0 0.23-3.13 4.59-3.3 4.59-0.1 0-1.16-0.82-2.4-1.81zm15.62-0.35c-0.84-1.2-1.56-2.26-1.6-2.36 0-0.1 0.97-1.01 2.25-2.04 2.63-2.12 2.26-2.14 5.02 0.35 1.58 1.43 1.58 1.44 1.02 2.07-0.54 0.61-4.09 3.52-4.81 3.95-0.23 0.14-0.92-0.59-1.88-1.97zm-67.34-2.71c-0.51-0.87-0.59-1.87-0.76-9.97-0.17-8.06-0.14-9.08 0.31-9.75 1.82-2.75 3.68-7.85 4.04-11.09l0.22-1.89-1.28 1.39c-0.94 1.01-1.7 1.52-2.8 1.84-2.3 0.68-2.5 0.57-1.21-0.69 0.75-0.72 1.42-1.79 1.84-2.96 0.6-1.66 1.3-2.56 3.25-4.21 0.34-0.29 0.94-1.35 1.32-2.34 1.46-3.79 4.67-9.71 6.63-12.19 0.83-1.05 0.86-1.22 0.86-4.36v-3.26l4.13-1.91c2.26-1.05 4.83-2.22 5.69-2.61l1.57-0.71 0.6 1.17c0.96 1.89 2.05 5.43 2.25 7.37l0.2 1.8-0.85-1.49c-0.89-1.58-2.46-2.86-3.51-2.86-0.53 0-0.47 0.1 0.33 0.59 1.13 0.69 2.4 2.49 2.65 3.77 0.12 0.57 1.37 2.2 3.45 4.49l3.27 3.6v5.56 5.56l-2.4 2.38c-2.19 2.19-2.89 2.53-2.08 1.03 0.31-0.6-0.11-0.85-0.47-0.28-0.3 0.49-0.75 0.35-0.75-0.23 0-0.76 1.39-2.69 2.1-2.92 0.35-0.11 0.6-0.45 0.6-0.82 0-0.35 0.22-0.87 0.49-1.17 0.44-0.48 0.45-0.88 0.11-3.96l-0.39-3.43-3.68-2.15c-3.13-1.82-3.81-2.35-4.48-3.51-0.52-0.88-1.17-1.51-1.81-1.78-1.41-0.59-1.55-0.54-0.59 0.22 0.46 0.36 1.14 1.31 1.51 2.12 0.59 1.27 1.65 2.37 3.09 3.2 0.46 0.26-0.25 1.57-3.25 6.03-0.99 1.49-1.71 2.7-1.58 2.7s0.94-0.54 1.81-1.19c0.87-0.66 1.57-1.08 1.57-0.93 0 0.81-6.38 6.61-7.27 6.62-0.4 0-0.22-1.6 0.36-3.29 0.31-0.91 0.52-1.7 0.46-1.76-0.34-0.34-1.71 2.53-1.98 4.18-0.71 4.29-1.24 6.34-2.1 8.05-1.05 2.1-4.27 5.66-6.67 7.37-1.62 1.16-1.68 1.25-1.69 2.59 0 0.76-0.15 4.17-0.33 7.58l-0.33 6.2 0.8 1.05c0.73 0.95 0.75 1.05 0.25 1.23-0.3 0.11-1 0.37-1.56 0.6-1.34 0.53-1.3 0.54-1.96-0.58zm57.57-1.92c-1.49-1.09-3.92-3.23-5.4-4.74-2.52-2.56-5.85-6.9-5.85-7.63 0-0.17 3.21-2.89 7.12-6.03l7.13-5.7 0.1 1.35c0.1 1.28 0.14 1.35 0.97 1.35 0.85 0 0.89-0.1 0.89-1.35v-1.36l6.82 5.45c3.76 2.99 7.01 5.61 7.22 5.81 0.32 0.29 0.1 0.8-1.16 2.68-2.16 3.22-6.15 7.32-9.72 9.99l-3.01 2.24-0.2-15.06h-0.9-0.89v7.5c0 4.13-0.1 7.5-0.23 7.5-0.12 0-1.44-0.9-2.92-2zm-1.24-5.95c-0.1-0.24-0.23-0.45-0.29-0.45-0.1 0-0.12 0.21-0.12 0.45 0 0.25 0.13 0.45 0.29 0.45s0.21-0.2 0.12-0.45zm1.99-2.48c0-1.84 0.18-3.55 0.49-4.58 0.69-2.33 0.9-5.99 0.33-5.99-1.26 0-3.87 2.78-4.29 4.58-0.17 0.73-0.11 0.82 0.54 0.82 1.14 0 1.64 0.85 1.85 3.15 0.35 3.85 0.53 4.95 0.81 4.95 0.15 0 0.27-1.32 0.27-2.93zm7.34 1.21c-0.21-1.85-0.72-4.11-0.88-3.93-0.22 0.23 0.56 5.65 0.81 5.65 0.15 0 0.18-0.76 0.1-1.72zm2.18-2.1c-0.1-2.11-0.25-4.17-0.36-4.58l-0.21-0.75 0.63 0.71c1.3 1.48 0.32-1.3-1.02-2.89-0.46-0.55-1.36-1.26-2-1.59l-1.16-0.59v2.05c0 1.87 0.1 2.12 0.88 2.89 1.33 1.28 2.2 3.57 2.36 6.25 0.1 1.79 0.24 2.32 0.59 2.32 0.38 0 0.42-0.56 0.29-3.82zm-12.28 1.66c0.6-0.6 0.41-0.84-0.66-0.84-0.88 0-1 0.1-0.87 0.6 0.18 0.67 0.98 0.79 1.53 0.24zm0.3-3.46c0.1-0.73 0-0.98-0.38-0.98-0.39 0-0.42 0.12-0.16 0.61 0.43 0.8 0.1 1.28-0.78 1.11-0.38-0.1-0.63 0-0.53 0.14 0.1 0.15 0.52 0.24 0.96 0.19 0.66-0.1 0.82-0.27 0.89-1.07zm6.66-6.08v-2.4h-0.9-0.9v2.4 2.4h0.9 0.9zm52.8 18.15c-1.07-0.17-1.93-0.45-1.9-0.61 0.1-0.31 2.44-1.62 2.99-1.63 0.21 0 0.41-1 0.53-2.63 0.11-1.45 0.26-3.57 0.35-4.73l0.16-2.1-1.72-1.02c-3.32-1.99-7.95-7.02-8.86-9.64-0.17-0.49-0.4-0.89-0.51-0.89-0.12 0-0.45 0.92-0.73 2.04-0.48 1.86-0.49 2.14-0.1 3.14 0.5 1.21 0.61 3.09 0.19 3.35-0.14 0.1-0.34-0.12-0.43-0.46-0.16-0.64-0.8-0.53-0.8 0.15 0 0.47-11.72 3.65-13.09 3.55-0.88-0.1-0.99 0.1-1.61 1.59-0.6 1.48-2.3 3.44-2.99 3.44-0.14 0-0.49 0.1-0.77 0.2-0.42 0.16-0.47 0.1-0.3-0.46 0.19-0.6 0.13-0.64-0.64-0.45l-0.84 0.21 0.52-0.72c0.29-0.4 0.88-1.42 1.32-2.26 0.44-0.86 1.19-1.78 1.7-2.08s1.2-0.84 1.53-1.2c0.37-0.4 1.84-1.04 3.65-1.6 3.67-1.13 5.82-2.05 5.82-2.5 0-0.18-0.46-1.76-1.03-3.51-1.82-5.65-2.05-8.65-0.75-9.95 0.46-0.45 1-0.58 2.55-0.58 1.74 0 1.95-0.1 1.8-0.52-0.1-0.29-0.98-2.55-1.97-5.03l-1.81-4.5 1.67-1.57c0.92-0.87 2.17-1.84 2.78-2.17 1.37-0.72 0.98-0.76-1.16-0.12-2.19 0.65-4.05 1.62-5.88 3.06l-1.53 1.21-0.12 2.72c-0.1 1.54-0.29 2.88-0.49 3.09-0.69 0.68-0.38 1.33 0.84 1.81 0.89 0.35 1.21 0.66 1.25 1.17 0 0.39 0.1 0.97 0.1 1.3 0.1 0.77-0.63 3.15-1.01 3.53-0.19 0.2-0.77-0.65-1.67-2.43l-1.37-2.74v-4.97-4.97l1.98-2.78 1.98-2.79 0.1-2.82c0.1-4.31 1.73-8.34 4.75-11.64l1.12-1.22 5.33 2.5 5.34 2.49-0.1 2.52c-0.1 3.51 0.42 8.38 1.17 11.22 1.17 4.41 3.6 9.53 5.89 12.43 1.23 1.56 2.45 4.31 2.45 5.53 0 0.38 0.33 1 0.73 1.38 0.87 0.81 1.67 2.39 1.67 3.3 0 0.64 0 0.64-0.98-0.1-0.53-0.4-1.38-0.94-1.89-1.19-0.76-0.39-0.99-0.75-1.29-2.09-0.33-1.47-1.25-3.6-1.83-4.21-0.13-0.14 0.1 0.83 0.46 2.15 0.39 1.32 0.73 3.12 0.76 4 0 1.19 0.5 2.6 1.8 5.59l1.74 3.99-1.54 7-1.53 6.99-0.93 0.27c-0.56 0.16-1.68 0.14-2.87-0.1zm-3.96-20.02c-0.38-1-0.69-2.84-0.85-5.03-0.21-2.94-0.79-7.5-0.98-7.69 0 0-0.1 1.74-0.1 3.94s0.1 3.94 0.19 3.88c0.1-0.1 0.27 0.66 0.38 1.6 0.17 1.5 1.41 4.87 1.79 4.87 0.1 0-0.14-0.71-0.47-1.57zm-65.67 18.45c-1.9-1.99-3.27-3.65-3.27-3.95 0-0.14 1.03-1.01 2.29-1.92l2.28-1.65 1.54 1.8c0.85 0.99 1.85 2.17 2.22 2.62l0.68 0.83-2.08 1.85c-1.14 1.01-2.13 1.84-2.19 1.84-0.1 0-0.72-0.64-1.47-1.42zm1.53-2.18c0-0.16 0.2-0.3 0.45-0.3s0.45-0.13 0.45-0.3c0-0.16-0.15-0.3-0.33-0.3-0.19 0-0.26-0.2-0.17-0.44 0.21-0.54-0.29-0.91-0.5-0.39-0.12 0.3-0.21 0.3-0.41 0-0.17-0.23-0.41-0.26-0.7-0.1-0.3 0.19-0.32 0.28-0.1 0.28 0.57 0 0.45 0.54-0.15 0.7-0.44 0.12-0.42 0.17 0.15 0.36 0.38 0.12 0.68 0.33 0.68 0.48 0 0.14 0.13 0.26 0.3 0.26 0.16 0 0.3-0.13 0.3-0.3zm26.7 1.91c-1.07-0.93-1.99-1.8-2.04-1.93-0.1-0.13 0.88-1.38 2.08-2.77l2.17-2.54 2.34 1.69c1.28 0.93 2.3 1.79 2.27 1.9-0.13 0.4-4.43 5.34-4.65 5.34-0.12 0-1.1-0.76-2.17-1.69zm2.7-1.91c0-0.16 0.2-0.3 0.45-0.3s0.45-0.13 0.45-0.3c0-0.16-0.15-0.3-0.33-0.3-0.19 0-0.26-0.2-0.17-0.44 0.21-0.54-0.29-0.91-0.5-0.39-0.12 0.3-0.21 0.3-0.41 0-0.17-0.23-0.41-0.26-0.7-0.1-0.3 0.19-0.32 0.28-0.1 0.28 0.57 0 0.45 0.54-0.15 0.7-0.44 0.12-0.42 0.17 0.15 0.36 0.38 0.12 0.68 0.33 0.68 0.48 0 0.14 0.13 0.26 0.3 0.26 0.16 0 0.3-0.13 0.3-0.3zm-42-3.37c-0.61-0.41-1.16-1.14-1.4-1.87-0.56-1.6-1.52-2.57-2.48-2.5-0.43 0-3.58-1.06-7-2.43l-6.22-2.49v-2c0-1.09-0.2-3.13-0.45-4.54-0.25-1.4-0.45-3.05-0.45-3.67 0-0.94-0.11-1.13-0.62-1.13-1.26 0-1.66-0.47-1.53-1.78 0.1-0.8 0.31-1.33 0.67-1.53 0.3-0.16 1.45-0.98 2.55-1.82 1.84-1.42 2.09-1.52 3.19-1.34 1.69 0.27 2.92 0.97 3.25 1.86 0.83 2.18 0 7.15-1.9 11.71l-1 2.37 6.42 2.82c7.25 3.18 8.8 4.27 9.96 6.95 0.54 1.25 0.59 1.59 0.26 1.8-0.26 0.16-0.54 0.1-0.78-0.25-0.35-0.47-0.37-0.47-0.37 0 0 0.71-0.92 0.64-2.1-0.17zm5.61-1.65c-1.58-2.63-2.63-4.83-2.37-4.99 0.46-0.29 4.88-1.99 5.17-1.99 0.16 0 0.29 0.17 0.3 0.38 0 0.2 0.6 1.38 1.32 2.62l1.33 2.25-0.79 0.6c-0.44 0.33-1.5 1.11-2.36 1.73l-1.57 1.12zm39.24 0.1c-0.99-0.75-1.91-1.47-2.05-1.61-0.19-0.19 1.86-4.28 2.69-5.38 0.13-0.18 5.21 1.9 5.21 2.15 0 0.32-1.72 3.7-2.59 5.08-0.4 0.62-0.88 1.13-1.09 1.12-0.2 0-1.18-0.61-2.17-1.36zm-35.19-8.6c-1.24-3.04-1.94-5.29-1.78-5.71 0.1-0.2 4.36-3.72 9.5-7.83 7.56-6.03 9.46-7.41 9.9-7.2 0.3 0.15 4.66 3.56 9.7 7.59l9.15 7.33-0.44 1.52c-0.68 2.31-2.19 6.14-2.5 6.33-0.15 0.1-3.63-2.52-7.73-5.81s-7.73-6.15-8.06-6.36c-0.55-0.34-1.35 0.23-8.53 5.97-4.35 3.49-8.01 6.34-8.12 6.34s-0.6-0.98-1.09-2.17zm18.84-12.98c0.33-0.39 0.11-0.45-1.69-0.44-1.88 0-2.01 0.1-1.48 0.45 0.76 0.57 2.69 0.57 3.17 0zm0.9-1.98c0-0.29-0.28-0.32-2.4-0.34-2.15 0-2.7 0.1-2.7 0.35 0 0.33 1.98 0.52 3.82 0.37 0.71-0.1 1.28-0.23 1.28-0.38zm-0.6-1.79c0-0.27-1.45-0.88-2.08-0.88-0.3 0-0.85 0.25-1.23 0.55-0.66 0.53-0.64 0.54 1.32 0.52 1.1 0 1.99-0.1 1.99-0.19zm-27.11 17.2c-1.19-3.65-1.66-5.81-1.3-5.94 0.58-0.21 4.71-1.04 5.18-1.04 0.24 0 0.43 0.2 0.43 0.45s0.39 1.67 0.87 3.16c0.79 2.45 0.82 2.73 0.38 2.97-0.98 0.52-4.36 1.82-4.73 1.82-0.2 0-0.58-0.64-0.83-1.42zm2.51-2.06c0-0.3 0.17-0.42 0.45-0.31 0.51 0.2 0.62-0.27 0.13-0.57-0.18-0.11-0.25-0.38-0.16-0.61 0.19-0.51-0.31-0.87-0.52-0.36-0.12 0.29-0.23 0.27-0.47-0.1-0.31-0.43-0.37-0.35-0.46 0.6 0 0.25-0.21 0.42-0.4 0.38-0.19 0-0.27 0.12-0.18 0.36 0.1 0.23 0.35 0.35 0.58 0.26 0.26-0.1 0.43 0 0.43 0.32 0 0.27 0.14 0.48 0.3 0.48s0.3-0.21 0.3-0.48zm44.31 2.5c-1.68-0.69-2.3-1.09-2.21-1.42 0.91-3.15 1.74-5.84 1.84-5.94s1.36 0.12 2.87 0.43l2.73 0.55-0.2 1.06c-0.42 2.28-1.83 6.15-2.25 6.22-0.24 0-1.49-0.37-2.78-0.9zm1.89-2.47c0-0.24 0.2-0.45 0.45-0.45s0.45-0.13 0.45-0.3c0-0.16-0.15-0.3-0.33-0.3-0.19 0-0.26-0.2-0.16-0.44s0-0.52-0.12-0.62c-0.16-0.1-0.29 0-0.29 0.15 0 0.2-0.31 0.25-0.83 0.12-0.74-0.19-0.78-0.16-0.41 0.29s0.27 0.63-0.32 0.54c-0.12 0-0.14 0.16-0.1 0.4 0.1 0.24 0.36 0.35 0.64 0.24 0.35-0.13 0.42 0 0.28 0.32-0.13 0.33 0 0.5 0.25 0.5 0.24 0 0.44-0.2 0.44-0.45zm-50.82-7.37c-0.1-0.99-0.26-2.61-0.36-3.6l-0.18-1.8h2.99 2.98l0.19 2.91c0.1 1.6 0.14 2.95 0.1 3.02-0.1 0.1-5.15 1.27-5.45 1.27 0 0-0.14-0.81-0.24-1.8zm53.67 1.65c-0.16-0.1-1.35-0.33-2.63-0.61l-2.33-0.5 0.14-0.95c0.1-0.51 0.23-1.85 0.33-2.96l0.19-2.03h2.87 2.87l-0.2 2.93c-0.2 3.03-0.42 4.29-0.75 4.25-0.1 0-0.32-0.1-0.49-0.13zm-46.19-1.43c-0.11-0.53-0.27-5.86-0.36-11.84l-0.16-10.88h9.78 9.78v4.43 4.42l-9.04 7.2c-4.96 3.96-9.2 7.3-9.41 7.42-0.26 0.16-0.44-0.1-0.59-0.75zm10.79-11.95c0.66-0.19 1.58-0.6 2.03-0.93 0.86-0.6 2.02-2.55 2.02-3.38 0-0.73-0.77-0.53-1.15 0.31-0.43 0.93-1.99 1.64-3.14 1.42-0.47-0.1-1.21-0.62-1.65-1.18-0.79-0.98-0.88-1.01-2.98-1.01-1.31 0-2.18 0.13-2.18 0.31 0 0.59 1.14 2.54 1.89 3.24 0.74 0.69 2.62 1.52 3.51 1.54 0.25 0 0.99-0.14 1.65-0.32zm-1.62-6.49c0.25-0.68 0.25-0.68-3.04-0.68-3.24 0-3.47 0.1-3.1 1.04 0.15 0.41 0.63 0.47 3.04 0.4 2.65-0.1 2.87-0.14 3.1-0.76zm6.2 0.3c0.1-0.25-0.2-0.38-0.81-0.38-0.89 0-1.15 0.27-0.71 0.72 0.32 0.32 1.38 0.1 1.52-0.34zm14.69 11.72-9.22-7.34v-4.48-4.48h9.62 9.63l-0.12 11.18c-0.1 6.2-0.23 11.46-0.39 11.82-0.27 0.6-0.92 0.15-9.52-6.7zm2.55-5.51c1.86-0.52 3.32-2.03 3.96-4.11 0.17-0.55 0.1-0.68-0.41-0.68-0.34 0-0.62 0.18-0.62 0.4 0 0.74-1.41 1.76-2.49 1.79-1.19 0-2.61-0.78-2.83-1.62-0.13-0.5-0.44-0.57-2.49-0.57h-2.35l0.26 0.9c0.53 1.83 1.67 2.99 3.75 3.8 1.15 0.46 1.83 0.47 3.22 0.1zm-1.87-5.96c0-0.15 0.1-0.49 0.18-0.75 0.16-0.42-0.24-0.48-3.18-0.48s-3.34 0.1-3.18 0.48c0.1 0.26 0.18 0.6 0.18 0.75s1.35 0.27 3 0.27 3-0.12 3-0.27zm6.3-0.18c0-0.28-0.28-0.45-0.75-0.45s-0.75 0.17-0.75 0.45 0.28 0.45 0.75 0.45 0.75-0.17 0.75-0.45zm-45 7.35v-3.3h3 3v3.3 3.3h-3-3zm3.3 0.76c0-0.27 0.18-0.37 0.45-0.27 0.25 0.1 0.45 0 0.45-0.15 0-0.19-0.15-0.34-0.33-0.34-0.19 0-0.26-0.2-0.16-0.44 0.21-0.54-0.29-0.9-0.53-0.39-0.14 0.31-0.22 0.31-0.35 0-0.29-0.61-0.79-0.42-0.58 0.23 0.11 0.34 0.1 0.6-0.13 0.6-0.18 0-0.32 0.13-0.32 0.3 0 0.16 0.2 0.3 0.45 0.3s0.45 0.13 0.45 0.3c0 0.16 0.13 0.3 0.3 0.3s0.3-0.2 0.3-0.44zm46.5-0.76v-3.3h2.85 2.85v3.3 3.3h-2.85-2.85zm3.3 0.76c0-0.27 0.18-0.37 0.45-0.27 0.25 0.1 0.45 0 0.45-0.15 0-0.19-0.15-0.34-0.33-0.34-0.19 0-0.26-0.2-0.16-0.44 0.2-0.52-0.28-0.91-0.57-0.45-0.13 0.22-0.34 0.2-0.67-0.1-0.41-0.33-0.45-0.31-0.29 0.13 0.11 0.28 0.1 0.59-0.1 0.69-0.16 0.1-0.29 0.31-0.29 0.48 0 0.16 0.14 0.21 0.3 0.11 0.17-0.1 0.38 0 0.48 0.28 0.23 0.6 0.72 0.62 0.72 0zm-53.1-9.31v-3.45h3 3v3.45 3.45h-3-3zm49.8 0v-3.45h2.85 2.85v3.45 3.45h-2.85-2.85zm8-2.5c-0.41-0.44-0.5-1.21-0.5-4.14v-3.59l1.39-0.67c0.76-0.37 1.45-0.61 1.53-0.53 0.1 0.1 0 0.83-0.21 1.66-0.2 0.83-0.36 2.49-0.36 3.69 0 1.45-0.16 2.51-0.49 3.16-0.58 1.13-0.69 1.16-1.36 0.42zm-57.8-5.45v-3h3 3v3 3h-3-3zm3.3 0.72c0-0.3 0.16-0.42 0.45-0.31 0.25 0.1 0.45 0 0.45-0.12 0-0.16-0.14-0.29-0.32-0.29s-0.24-0.25-0.13-0.6c0.21-0.67-0.14-0.79-0.69-0.24-0.28 0.28-0.36 0.28-0.36 0 0-0.2-0.15-0.36-0.33-0.36-0.19 0-0.26 0.2-0.16 0.44 0.1 0.25 0 0.52-0.12 0.62-0.47 0.29-0.33 0.74 0.16 0.55 0.28-0.11 0.45 0 0.45 0.31 0 0.27 0.13 0.48 0.3 0.48s0.3-0.21 0.3-0.48zm4.4 2.06c-0.1-0.13-0.12-1.44-0.1-2.93v-2.7l3.37-0.1 3.38-0.1v1.1c0 0.88-0.22 1.31-1.13 2.17-2.25 2.13-5.04 3.4-5.57 2.53zm4.79 0c-0.1-0.13 0.46-0.73 1.2-1.33 1.78-1.45 3.02-3.02 3.97-5.04 1.11-2.36 1.07-5.65-0.1-8.4-1.19-2.78-3.42-5.87-6.49-8.98-1.94-1.97-2.67-2.9-2.67-3.46 0-0.74 0.1-0.76 2.14-0.76h2.13l-0.77-1-0.77-1.01 4.16-3.94 4.16-3.95h4.19 4.18l0.22 2.15c0.27 2.76 1.09 5.4 2.1 6.71 0.95 1.25 1.41 1.3 2.24 0.25 0.35-0.44 0.67-0.74 0.72-0.68 0 0.1 0.23 0.89 0.42 1.82 0.47 2.37 1.76 4.95 3.3 6.59 1.21 1.3 1.29 1.48 1.1 2.61-0.24 1.53 0.3 4.66 1.13 6.53 0.35 0.8 1.28 2.13 2.06 2.96l1.43 1.51h-2.44c-3.04 0.1-4.71 0.59-11.34 3.74-6.45 3.05-9.27 3.87-13.18 3.87-1.62 0-3.01-0.1-3.09-0.23zm17.99-11.93c-1.68-3.54-2.85-7.81-2.9-10.61 0-1.03 0-1.04-0.33-0.33-0.55 1.35-0.12 5.93 0.76 8.07 0.71 1.75 3.09 5.34 3.35 5.07 0.1-0.1-0.33-1.05-0.88-2.2zm-4.98-16.48c-0.63-0.76-2.39-1.08-6.9-1.26l-4.35-0.17 0.88 0.94 0.88 0.93h4.93c4.33 0 4.89-0.1 4.56-0.44zm0 28.43c0-0.24 5.33-2.79 5.8-2.79 0.13 0 0.2 0.65 0.14 1.43l-0.1 1.42-2.92 0.1c-1.61 0.1-2.92 0-2.92-0.15zm7.56-1.94 0.1-2.18 2.1-0.82c1.15-0.45 2.61-0.83 3.23-0.83h1.14l-0.1 2.92-0.1 2.93-6.48 0.2 0.1-2.18zm3.54-0.13c0-0.3 0.16-0.42 0.45-0.31 0.24 0.1 0.45 0 0.45-0.11 0-0.16-0.15-0.3-0.32-0.3-0.18 0-0.24-0.24-0.15-0.54 0.14-0.46 0-0.56-0.73-0.56-0.75 0-0.88 0.1-0.74 0.56 0.1 0.3 0 0.54-0.14 0.54-0.18 0-0.32 0.14-0.32 0.3 0 0.15 0.2 0.21 0.45 0.11 0.28-0.11 0.45 0 0.45 0.31 0 0.27 0.13 0.48 0.3 0.48 0.16 0 0.3-0.21 0.3-0.48zm4.7 2.07c-0.1-0.13-0.12-1.45-0.1-2.94l0.1-2.7 3.38-0.1 3.39-0.1-0.1 2.94-0.1 2.93-3.2 0.1c-1.76 0.1-3.27 0-3.35-0.15zm8.5-2.79v-3h2.85 2.85v3 3h-2.85-2.85zm3.3 0.75c0-0.24 0.23-0.45 0.52-0.45 0.42 0 0.44-0.1 0.11-0.27-0.23-0.15-0.34-0.46-0.25-0.7 0.12-0.32-0.1-0.43-0.71-0.41-0.56 0-0.83 0.17-0.74 0.4 0.1 0.2 0 0.44-0.14 0.54-0.5 0.31-0.32 0.74 0.21 0.53 0.38-0.14 0.45-0.1 0.31 0.31-0.13 0.33 0 0.5 0.25 0.5 0.24 0 0.44-0.2 0.44-0.45zm-58.92-1.26c-0.1-0.1-0.19-0.74-0.19-1.41s-0.12-1.73-0.27-2.35l-0.26-1.13h1.55c0.84 0 2.57-0.18 3.84-0.41 1.27-0.22 2.69-0.35 3.15-0.28 3.15 0.47 6.1 1.11 6.1 1.34 0 0.14-2.13 0.26-4.73 0.26h-4.72l-0.71 1.34c-0.39 0.74-1.04 1.55-1.43 1.81-0.99 0.65-2.11 1.05-2.33 0.83zm18.97-5.26c-0.82-0.61-1.58-1.56-2.05-2.54-0.53-1.09-0.89-1.51-1.2-1.4-1.12 0.39-3.32 0.46-4.31 0.13-1.18-0.39-2.89-1.91-2.89-2.57 0-0.22 0.5-0.56 1.12-0.76 2.98-0.97 5.94-3.06 6.87-4.88l0.46-0.88 1.49 1.46c0.81 0.8 1.8 1.94 2.19 2.51 0.71 1.05 0.72 1.08 0.27 3.3-0.26 1.31-0.39 3.17-0.32 4.43 0.1 1.2 0 2.17-0.1 2.17-0.13 0-0.82-0.43-1.53-0.97zm36.17 0.4c0.75-0.83 1.84-1.01 2.86-0.48 1.6 0.82 1.37 1.05-1.06 1.05-2.26 0-2.3 0-1.8-0.57zm-6-0.99c-1.97-1.32-3.3-3.91-3.77-7.35-0.33-2.36-0.31-2.53 0.36-3.79l0.7-1.33 0.92 1.52c0.94 1.56 1.91 2.42 3.09 2.76 0.6 0.17 0.68 0.1 0.68-0.72 0-0.51 0.1-0.93 0.17-0.93 0.1 0 0.72 0.46 1.37 1.02 1.53 1.31 4.3 2.78 5.75 3.05 1.34 0.25 1.38 0.8 0.13 1.73-1.21 0.91-3.95 1.04-5.69 0.27l-1.35-0.6-0.17 2.4c-0.1 1.32-0.29 2.53-0.44 2.68-0.17 0.17-0.85-0.11-1.75-0.71zm-66.86-2.04c-0.62-1.33-1.08-2.47-1.02-2.53 0.11-0.12 9.95-4.75 11.58-5.45l0.97-0.42 1.05 2.1c0.58 1.15 1.06 2.27 1.06 2.49 0 0.3-9.23 4.92-12.29 6.15-0.12 0-0.72-1.01-1.35-2.34zm3.24-0.75c-0.11-0.29 0-0.45 0.39-0.45 0.53 0 0.53 0 0-0.41-0.29-0.22-0.52-0.55-0.52-0.74 0-0.5-0.33-0.42-0.79 0.18-0.32 0.43-0.4 0.44-0.41 0.1 0-0.39-0.1-0.39-0.29 0-0.19 0.3-0.16 0.53 0.1 0.68 0.27 0.17 0.24 0.31-0.1 0.53-0.36 0.23-0.27 0.29 0.37 0.3 0.46 0 0.83 0.15 0.83 0.32 0 0.18 0.13 0.24 0.28 0.14 0.16-0.1 0.21-0.37 0.12-0.62zm3.63-1.67c-0.1-0.15 0-0.36 0.3-0.46 0.49-0.19 0.67-0.77 0.19-0.64-0.16 0-0.49-0.2-0.74-0.53-0.44-0.56-0.46-0.56-0.47 0 0 0.37-0.17 0.5-0.45 0.39-0.25-0.1-0.52 0-0.62 0.12-0.1 0.16 0 0.28 0.15 0.28 0.18 0 0.3 0.24 0.24 0.53-0.1 0.36 0.1 0.5 0.44 0.44 0.29-0.1 0.53 0.1 0.53 0.24 0 0.18 0.13 0.25 0.3 0.14 0.17-0.1 0.23-0.31 0.13-0.47zm3.07-1.55c0.23 0.59 0.7 0.44 0.7-0.23 0-0.33 0.13-0.6 0.3-0.6 0.16 0 0.3-0.13 0.3-0.3 0-0.16-0.17-0.26-0.38-0.22-0.2 0-0.34-0.1-0.3-0.3 0-0.21-0.1-0.38-0.22-0.38-0.17 0-0.3 0.14-0.3 0.3 0 0.17-0.28 0.3-0.62 0.3-0.42 0-0.54 0.12-0.38 0.38 0.13 0.21 0.2 0.64 0.15 0.97-0.1 0.51 0 0.53 0.26 0.15 0.25-0.33 0.37-0.35 0.49-0.1zm86.95 3.51c-3.3-1.55-6.13-2.87-6.28-2.93-0.24-0.1 1.85-5.01 2.12-5.01 0.1 0 2.87 1.3 6.25 2.89 3.69 1.73 6.16 3.06 6.16 3.31 0 0.39-2.02 4.63-2.18 4.59 0 0-2.77-1.3-6.07-2.85zm5.12-0.11c0.63 0.11 0.78 0 0.43-0.48-0.26-0.31-0.27-0.45 0-0.45 0.18 0 0.34-0.14 0.34-0.31s-0.24-0.27-0.53-0.22c-0.29 0.1-0.49-0.1-0.45-0.29 0-0.21-0.12-0.38-0.36-0.38-0.27 0-0.38 0.18-0.27 0.45 0.11 0.29 0 0.45-0.31 0.45-0.27 0-0.48 0.14-0.48 0.3 0 0.17 0.15 0.3 0.33 0.3s0.26 0.2 0.17 0.44c-0.19 0.47 0.45 0.83 0.72 0.4 0.1-0.15 0.3-0.24 0.45-0.21zm-3.66-1.73c0.55 0.21 0.96-0.28 0.41-0.5-0.28-0.11-0.26-0.23 0.1-0.47 0.42-0.3 0.39-0.35-0.28-0.44-0.15 0-0.37-0.14-0.5-0.26-0.35-0.35-0.73-0.26-0.65 0.15 0 0.21-0.1 0.34-0.3 0.3-0.21 0-0.37 0.1-0.37 0.22 0 0.17 0.15 0.3 0.33 0.3s0.26 0.19 0.17 0.42c-0.21 0.54 0.14 0.9 0.42 0.45 0.12-0.2 0.43-0.27 0.69-0.17zm-4.31-1.62c0-0.19 0.25-0.23 0.63-0.12 0.53 0.17 0.6 0.11 0.43-0.43-0.13-0.38-0.1-0.63 0.13-0.63 0.19 0 0.26-0.12 0.17-0.28-0.1-0.16-0.38-0.21-0.62-0.12-0.25 0.1-0.44 0-0.44-0.16 0-0.19-0.14-0.34-0.3-0.34-0.17 0-0.3 0.21-0.3 0.45 0 0.25-0.21 0.45-0.45 0.45-0.25 0-0.45 0.14-0.45 0.3 0 0.17 0.16 0.27 0.37 0.23 0.21 0 0.34 0.16 0.29 0.45-0.1 0.29 0.1 0.52 0.22 0.52 0.18 0 0.32-0.14 0.32-0.32zm-70.29 4.67c-2.47-0.91-4.15-2.8-5.19-5.85-0.46-1.34-0.55-2.4-0.5-5.75 0.1-4.34-0.2-5.72-1.44-7.47l-0.62-0.88h1.22c1.8 0 3.22 0.71 3.96 1.96l0.64 1.09 1-1.87c1.42-2.65 2.09-3.31 3.02-2.95 1.1 0.41 1.2 0.36 1.41-0.69 0.28-1.38 1.29-2.34 2.48-2.34 1.41 0 2.21 0.96 2.21 2.67 0 1.91-0.93 3.6-3.48 6.3l-2.22 2.36 0.96 0.19c1.48 0.3 2.28 0.98 2.66 2.26 0.41 1.35 0.17 2.44-0.39 1.88-1-1.01-3.6 0.22-4.54 2.14-1.41 2.88 1.09 6.1 4.9 6.28 0.83 0 1.5 0.15 1.5 0.25 0 0.33-3.04 0.87-4.74 0.85-0.94 0-2.22-0.21-2.84-0.43zm49.44-0.1-1.5-0.49 2.18-0.18c3.27-0.28 4.98-1.91 4.98-4.77 0-1.8-0.73-2.87-2.38-3.5-1.19-0.45-1.68-0.46-3.13-0.1-0.71 0.18-0.72-1.52 0-2.66 0.44-0.71 0.96-1.07 1.94-1.33l1.34-0.36-2.22-2.32c-2.68-2.8-3.45-4.21-3.45-6.25 0-1.85 0.7-2.72 2.2-2.72 1.19 0 2.14 0.91 2.44 2.33 0.22 1.06 0.35 1.12 1.48 0.69 0.66-0.26 0.85-0.16 1.62 0.82 0.49 0.61 1.21 1.77 1.62 2.58l0.74 1.46 0.64-1.1c0.73-1.23 2.16-1.98 3.8-1.98 0.58 0 1.06 0.1 1.06 0.12 0 0.1-0.37 0.77-0.83 1.57-0.78 1.4-0.82 1.66-0.88 6.04-0.1 6.22-0.89 8.81-3.38 10.94-2.05 1.76-5.16 2.21-8.26 1.2zm-73.96-4.94s-0.33-1.06-0.74-2.27c-0.85-2.49-1.5-7.13-1.22-8.64 0.16-0.85 0.32-1.02 1.01-1.02 0.76 0 0.78 0 0.24-0.44-0.31-0.24-1.19-0.52-1.95-0.63s-1.74-0.38-2.18-0.61c-1.17-0.59-3.03-4.63-2.13-4.61 0.13 0 0.9 0.18 1.73 0.4 1.93 0.52 3.76 1.46 5.09 2.63 1.05 0.92 1.38 0.77 0.7-0.31-0.46-0.75 0-1.37 1.44-1.84 0.95-0.31 1.29-0.23 3.8 0.87 2.73 1.2 7.26 2.77 9.13 3.18 1.18 0.25 1.52 1.11 0.85 2.13-0.39 0.61-0.72 0.73-1.89 0.74-1.64 0-3.67 0.5-3.67 0.89 0 0.32 1.92 0.9 2.98 0.9 0.56 0 0.65 0.1 0.39 0.35-0.19 0.19-1.47 0.41-2.84 0.47-1.6 0.1-3.02 0.35-3.98 0.75-0.93 0.39-2.21 0.64-3.35 0.66-1.01 0-1.69 0.12-1.5 0.24 0.69 0.43 2.83 0.58 3.94 0.28 0.98-0.28 1.32-0.22 2.57 0.41 0.8 0.41 1.51 0.84 1.59 0.97 0.1 0.13-2.04 1.21-4.72 2.4-4.44 1.99-5.28 2.32-5.29 2.1zm7.36-13.57c0-0.66-0.67-0.91-1.32-0.49-0.64 0.42-0.16 1.29 0.64 1.18 0.44-0.1 0.68-0.3 0.68-0.69zm92.68 11.21c-4.26-2-5.17-2.55-5.43-3.23-0.37-0.99-2.01-1.84-3.53-1.84-1.06 0-3.17-0.69-3.17-1.04 0-0.1 0.3-0.3 0.67-0.45 0.62-0.25 0.6-0.27-0.26-0.29-0.72 0-0.99-0.18-1.12-0.69-0.55-2.04 0.45-3.16 3.94-4.41 1.44-0.52 2.96-1.19 3.38-1.49 1.06-0.77 3.51-1.05 5.51-0.63 1.74 0.36 3.25 1.32 2.73 1.72-0.17 0.13-0.47 0.45-0.68 0.71-0.31 0.41 0 0.38 1.95-0.18 3.09-0.89 6.68-1.24 6.68-0.65 0 0.47-1.03 1.88-1.95 2.68-0.8 0.68-3.26 1.42-4.76 1.42-1.49 0-1.2 0.36 0.47 0.59 1.56 0.2 1.67 0.51 1.71 4.78 0 2.73 0.1 3.06 0.48 2.73 0.37-0.3 0.45-0.28 0.45 0.12 0 0.63-1.26 2.58-1.65 2.57-0.17 0-2.61-1.09-5.42-2.42zm1.62-3.46c0.45-0.12 0.57-0.26 0.34-0.41-0.27-0.17-0.27-0.39 0-0.93l0.37-0.72-0.78 0.72c-0.54 0.5-1.26 0.77-2.36 0.87-1.17 0.12-1.43 0.22-0.99 0.39 0.75 0.29 2.47 0.33 3.4 0.1zm-11.28-3.6c-0.21-0.1-0.54-0.1-0.75 0s0 0.15 0.38 0.15c0.41 0 0.58-0.1 0.37-0.15zm6.38-4.01c0-0.28-0.35-0.48-0.98-0.54-0.94-0.1-1.32 0.39-0.76 0.96 0.38 0.38 1.74 0.1 1.74-0.42zm-29.52 8.83c-0.75-0.95-1.75-3.58-2.28-5.98l-0.39-1.8v1.35c0 1.68-0.74 4.74-1.19 5.19-0.24 0.24-0.58 0.1-1.25-0.55-1.84-1.76-3.55-6.44-4.04-11.06l-0.22-2.08-0.53 1.71c-0.56 1.79-1.33 3.19-1.76 3.19-0.67 0-2.09-4.96-2.13-7.42 0-0.29 1.3-0.38 5.54-0.38h5.55l0.62 1.23c1.01 1.98 1.72 5.3 2.08 9.76 0.3 3.68 0.53 5.13 1.1 7.09 0.22 0.77-0.36 0.64-1.06-0.25zm-54.32-4.39c-1.72-0.32-1.63-0.62 0.29-0.93 1.17-0.19 3.04 0.34 3.22 0.92 0.15 0.44-1.08 0.45-3.51 0zm89.32-7.76c-0.77-0.3-2.22-0.6-3.21-0.66-0.99-0.1-1.88-0.18-1.98-0.27-0.29-0.29 3.15-3.82 4.48-4.6 1.66-0.97 4.13-1.5 4.96-1.05 0.93 0.49 0.75 0.81-0.61 1.02-1.64 0.27-3.82 1.41-4.92 2.58l-0.9 0.96 1.95-1.06c3.98-2.18 8.27-2.53 12.76-1.04l2.09 0.69-2.78 0.2c-4.65 0.33-7.74 1.34-9.35 3.07-0.84 0.9-0.65 0.89-2.49 0.16zm12.52-0.47c-1.82-0.41-3.64-0.81-4.05-0.91l-0.75-0.16 0.75-0.31c0.41-0.17 3.04-0.38 5.85-0.45 5.79-0.15 5.98-0.21 7.36-2.46 0.74-1.2 2.28-2.42 3.06-2.42 0.1 0-0.52 1.35-1.32 2.99-1.85 3.77-2.56 4.34-5.5 4.41-1.33 0-3.32-0.22-5.4-0.69zm-116.43-0.67c-1.64-1-2.38-3.6-1.6-5.64 0.18-0.46 0.5-1.66 0.71-2.65l0.38-1.8 0.37 0.9c0.25 0.63 0.3 1.72 0.16 3.55-0.2 2.49-0.17 2.69 0.48 3.38 1.41 1.5 3.69 0.45 5.55-2.58 0.62-0.99 1.16-1.77 1.2-1.72 0.1 0-0.1 0.72-0.22 1.51-0.44 2.04-1.93 4.13-3.54 4.94-1.63 0.82-2.29 0.84-3.49 0.11zm35.58-0.31c0-0.76-0.28-1.28-1.17-2.16-0.98-0.99-1.36-1.17-2.43-1.17-1.04 0-1.45 0.19-2.28 1.02-0.64 0.64-1.02 1.32-1.02 1.8 0 0.93-0.42 0.98-1.71 0.2-2.05-1.25-2.59-3.1-1.49-5.16l0.74-1.39-1.19-0.19c-1.72-0.27-3.82-1.34-5.05-2.58-1.13-1.12-2.4-3.49-2.4-4.46 0-0.52 0.18-0.48 2.02 0.43 1.11 0.55 3.83 1.48 6.03 2.07 2.21 0.59 4.71 1.41 5.56 1.81 3.75 1.77 5.44 4.36 5.23 8-0.12 2.16-0.84 3.68-0.84 1.78zm35.81 0.12c-0.48-1.63-0.28-4.4 0.4-5.7 1.49-2.82 4.3-4.5 9.99-5.99 4.08-1.06 6.22-1.86 7.42-2.76 1.13-0.84 1.21-0.6 0.5 1.5-0.97 2.85-3.99 5.26-7.25 5.78l-1.21 0.19 0.72 1.06c1.28 1.89 0.75 4.17-1.27 5.5-1.22 0.81-1.47 0.73-1.87-0.61-1.04-3.46-5.5-3.16-6.68 0.44l-0.49 1.49zm-64.84-1.15c0.37-0.57 0.96-1.19 1.31-1.38s0.95-0.86 1.35-1.51c0.94-1.53 1.25-1.49 0.69 0.1-0.49 1.4-1.64 2.75-2.88 3.4-1.17 0.61-1.23 0.54-0.47-0.61zm-10.27 0.28c-0.58-0.22-1.53-0.41-2.11-0.42-1.45 0-2.32-0.72-2.7-2.17-0.28-1.02-0.23-1.56 0.31-3.34 0.36-1.16 0.67-2.77 0.7-3.56 0.1-1.67 0.29-1.82 0.94-0.57 0.5 0.97 0.57 2.75 0.17 4.8-0.36 1.87 0 2.59 1.39 2.84 1.87 0.33 2.2 0.49 2.2 1.03 0 0.28 0.21 0.81 0.46 1.18 0.56 0.78 0.25 0.84-1.36 0.21zm-6.36-1.96c-1.74-0.92-4.18-1.44-6.74-1.44-2.62 0-4.04-0.46-5.29-1.71-1.12-1.12-1.11-1.88 0-1.1 1.11 0.77 2.64 1.26 3.93 1.26h1.06l-0.92-0.97c-2.01-2.12-3.06-6.03-2.18-8.18 0.36-0.88 0.37-0.85 0.74 1.25 0.47 2.67 1.73 5.04 3.27 6.16 2.32 1.68 2.77 1.02 2.48-3.62l-0.17-2.89 0.59 1.14c0.33 0.63 0.75 2.25 0.92 3.6 0.42 3.22 0.6 3.62 1.88 4.23 0.87 0.42 1.08 0.68 1.08 1.38 0 0.52 0.21 1 0.52 1.18 0.95 0.56-0.1 0.31-1.18-0.29zm12.38-0.36c0.47-1.64 0.32-3.84-0.35-5.22-0.34-0.71-1.55-2.15-2.67-3.2l-2.06-1.9-1.83 0.14c-2.31 0.16-4.23-0.52-5.27-1.88-1.11-1.46-0.9-1.78 0.5-0.77 1.4 1.02 3.29 1.63 4.17 1.35 0.82-0.26 0.73-0.66-0.28-1.18-2.06-1.07-3.29-2.54-3.76-4.52-0.2-0.8-0.1-0.71 1.46 0.95 1.48 1.64 3.64 3.1 4.58 3.1 0.87 0 1.35-4.68 0.67-6.5l-0.32-0.85 0.66 0.65c1.06 1.05 1.49 3.3 1.11 5.82l-0.31 2.15 2.75 2.75 0.34-0.88c0.21-0.54 0.28-1.75 0.19-3.08-0.13-1.81-0.1-2.13 0.24-1.86 0.69 0.57 1.15 3.24 0.96 5.52-0.15 1.88-0.1 2.27 0.51 3.26 0.68 1.1 0.7 1.12 1.22 0.55 0.66-0.74 1.34-2.6 1.36-3.78 0-1.5 0.6-0.21 0.6 1.35 0 1.32-0.82 3.57-1.62 4.5-0.22 0.25-0.47 1.12-0.56 1.94-0.16 1.57-0.95 2.56-2.03 2.56-0.47 0-0.5-0.12-0.26-0.97zm99.88-2.76c-0.5-1.32-0.35-2.94 0.37-4.07l0.67-1.05 0.15 2c0.11 1.33 0.34 2.19 0.69 2.59 0.52 0.57 0.52 0.6 0 0.74-0.29 0.1-0.77 0.25-1.06 0.37-0.38 0.16-0.59 0-0.82-0.58zm-57.69-1.74c-1.47-2.64-3.51-6.76-3.51-7.08 0-0.27 2.28-1.25 2.91-1.25 0.18 0 0.53 0.58 0.77 1.28 0.39 1.15 0.51 1.27 1.3 1.18 1.26-0.14 1.44-0.45 1.09-1.86-0.24-0.93-0.23-1.27 0-1.37 0.56-0.22 5.59-0.62 5.75-0.46 0.1 0.1 0.14 0.72 0.14 1.44v1.29h2.21c2.42 0 2.57-0.13 2.58-2.15 0-0.79 0-0.8 1.73-0.66 0.95 0.1 2.31 0.21 3.03 0.3l1.3 0.16-0.19 1.05c-0.11 0.58-0.27 1.23-0.35 1.45-0.1 0.23 0.11 0.48 0.47 0.58 0.34 0.1 0.87 0.25 1.19 0.34 0.47 0.13 0.66-0.12 1.08-1.37 0.29-0.88 0.66-1.48 0.85-1.41 0.19 0.1 1.06 0.36 1.92 0.65 0.87 0.28 1.58 0.62 1.58 0.74 0 0.13-1.03 2.21-2.27 4.63l-2.28 4.39h-10.15-10.15l-1.04-1.87zm-0.51-11.04c0-1.88 0.61-3.12 1.88-3.78 1.32-0.7 5.48-0.86 8.24-0.32 2.09 0.41 2.18 0.4 2.18-0.15 0-0.89-0.56-1.8-1.71-2.81-0.92-0.81-1.02-1.02-0.73-1.56 0.56-1.04 0.4-2.65-0.34-3.52l-0.68-0.79 0.11 1.38c0.13 1.69-0.52 2.86-1.61 2.86h-0.74v-3.45-3.45h1.15 1.14l-0.3-1.49c-0.17-0.82-0.24-1.56-0.14-1.65 0.1-0.1 0.75 0.1 1.48 0.43 0.77 0.35 1.97 0.6 2.9 0.61 1.99 0 3.56 0.65 4.01 1.63 0.35 0.76 0.35 0.76 1.06-0.66 0.38-0.78 1-1.89 1.37-2.46s0.81-1.79 1-2.7l0.33-1.66 0.62 1.22c0.35 0.67 0.85 2.04 1.1 3.05 0.84 3.21 0.57 5.34-0.84 6.75-0.91 0.91-0.91 0.93-0.18 0.76 0.41-0.1 1.05-0.27 1.42-0.39 0.66-0.2 0.68-0.16 0.68 2.19 0 2.81-0.33 4.72-1.19 6.99-0.95 2.52-0.95 2.52-2.25 1.75-0.92-0.54-1.23-0.6-1.62-0.31-1.71 1.25-2.99 1.56-6.4 1.52-3.46 0-4.21 0.1-5.09 0.84-0.44 0.38-0.52 0.36-0.67-0.13-0.1-0.3-0.1-1.01 0.11-1.57 0.17-0.56 0.24-1.08 0.18-1.15-0.25-0.24-3.05 1.19-4.57 2.35-0.87 0.65-1.65 1.18-1.74 1.18-0.1 0-0.16-0.68-0.16-1.51zm15.28-5.01c0.18-1.06 0.25-1.12 1.2-1.04 0.88 0.1 0.96 0 0.61-0.4-0.22-0.26-0.85-0.66-1.39-0.89-1.16-0.48-1.31-1.24-0.33-1.64 0.56-0.22 0.44-0.27-0.67-0.28-2.06 0-2.34 0.3-1.39 1.55 0.44 0.58 0.96 1.73 1.16 2.57 0.41 1.72 0.54 1.74 0.81 0.13zm-1.33-8.59c0-0.31-0.3-0.76-0.66-1-0.59-0.39-0.71-0.36-1.33 0.25l-0.68 0.68 0.88 0.38c1.15 0.5 1.79 0.39 1.79-0.31zm-12.95 8.47c0.1-0.39 0.19-0.81 0.19-0.93 0-0.43 1.23-0.22 1.4 0.25 0.22 0.55-0.1 0.88-1.06 1.18-0.65 0.19-0.7 0.14-0.53-0.5zm8.82 0.14c-0.61-0.16-0.66-0.44-0.16-0.94 0.64-0.64 1.44-0.43 1.44 0.39 0 0.74-0.21 0.83-1.28 0.55zm-2.1-0.34c-0.98-0.11-1.03-0.37-0.22-1.11 0.7-0.63 1.31-0.28 1.15 0.65-0.1 0.41-0.32 0.53-0.93 0.46zm-3.75-3.73c0.17-3.79 0.77-7.25 1.56-8.98 0.45-0.98 0.45-0.96 0.27 0.95-0.11 1.08-0.19 4.15-0.19 6.83v4.87h-0.9-0.9zm-3.36 1.59c-0.46-0.85-0.41-0.92 0.74-0.92 1.06 0 1.2 0.17 0.86 1.03-0.25 0.66-1.23 0.59-1.6-0.11zm-0.83-1.73c-0.36-0.1-1-0.53-1.42-1.03-1.51-1.79-0.79-5.3 1.31-6.39 1.21-0.63 1.23-0.62 1.23 0.57v1.04l1.54-0.19c1.53-0.18 1.55-0.17 1.35 0.54-0.12 0.4-0.36 1.84-0.56 3.2l-0.34 2.47h-1.22c-0.67 0-1.52-0.1-1.89-0.17zm-0.67-3.46c-0.12-1.04-0.16-1.12-0.25-0.42-0.1 0.76 0.1 1.69 0.31 1.69 0.1 0 0-0.57-0.1-1.27z"/>
</g>
</g>
</g>
</svg>
