<?xml version="1.0" encoding="UTF-8" standalone="no"?>
<!-- Generator: Adobe Illustrator 19.1.0, SVG Export Plug-In . SVG Version: 6.00 Build 0)  -->

<svg
   xmlns:dc="http://purl.org/dc/elements/1.1/"
   xmlns:cc="http://creativecommons.org/ns#"
   xmlns:rdf="http://www.w3.org/1999/02/22-rdf-syntax-ns#"
   xmlns:svg="http://www.w3.org/2000/svg"
   xmlns="http://www.w3.org/2000/svg"
   xmlns:sodipodi="http://sodipodi.sourceforge.net/DTD/sodipodi-0.dtd"
   xmlns:inkscape="http://www.inkscape.org/namespaces/inkscape"
   version="1.1"
   id="Layer_1"
   x="0px"
   y="0px"
   viewBox="0 0 250 91"
   enable-background="new 0 0 181.3 182"
   xml:space="preserve"
   sodipodi:docname="cabinetoffice.svg"
   width="250"
   height="91"
   inkscape:version="0.92.2 (5c3e80d, 2017-08-06)"><metadata
     id="metadata31"><rdf:RDF><cc:Work
         rdf:about=""><dc:format>image/svg+xml</dc:format><dc:type
           rdf:resource="http://purl.org/dc/dcmitype/StillImage" /><dc:title></dc:title></cc:Work></rdf:RDF></metadata><defs
     id="defs29"><clipPath
       clipPathUnits="userSpaceOnUse"
       id="clipPath6084"><path
         d="M 0,0 H 595.276 V 841.89 H 0 Z"
         id="path6082"
         inkscape:connector-curvature="0" /></clipPath></defs><sodipodi:namedview
     pagecolor="#ffffff"
     bordercolor="#666666"
     borderopacity="1"
     objecttolerance="10"
     gridtolerance="10"
     guidetolerance="10"
     inkscape:pageopacity="0"
     inkscape:pageshadow="2"
     inkscape:window-width="1920"
     inkscape:window-height="1046"
     id="namedview27"
     showgrid="false"
     fit-margin-top="0"
     fit-margin-left="0"
     fit-margin-right="0"
     fit-margin-bottom="0"
     inkscape:zoom="2.8284271"
     inkscape:cx="133.74191"
     inkscape:cy="1.494197"
     inkscape:window-x="-11"
     inkscape:window-y="-11"
     inkscape:window-maximized="1"
     inkscape:current-layer="Layer_1" /><rect
     style="opacity:0.00100002;fill:#ffffff;fill-opacity:1;stroke:none;stroke-width:2.5;stroke-linecap:round;stroke-linejoin:round;stroke-miterlimit:4;stroke-dasharray:none;stroke-dashoffset:0;stroke-opacity:1"
     id="rect4175"
     width="250"
     height="91"
     x="0"
     y="-4.0454324e-014" /><g
     id="g1257"
     transform="matrix(0.34063261,0,0,0.34063261,31.287787,-33.135039)"
     style="fill:#ffffff"><rect
       id="rect977"
       height="204"
       width="6.9000001"
       y="128.10001"
       x="3.7"
       style="fill:#ffffff" /><g
       id="g1005"
       enable-background="new    "
       style="fill:#ffffff"><path
         id="path979"
         d="m 80.2,282.1 c -3,-2.1 -6.5,-3.1 -10.6,-3.1 -3.5,0 -6.5,0.7 -9,2 -2.5,1.3 -4.5,3.1 -6.1,5.3 -1.6,2.2 -2.8,4.7 -3.6,7.6 -0.8,2.8 -1.1,5.8 -1.1,8.8 0,3.3 0.4,6.5 1.1,9.4 0.8,3 1.9,5.6 3.6,7.8 1.6,2.2 3.7,4 6.2,5.3 2.5,1.3 5.5,2 9,2 2.6,0 4.8,-0.4 6.8,-1.3 2,-0.8 3.7,-2 5.2,-3.5 1.4,-1.5 2.6,-3.3 3.4,-5.4 0.8,-2.1 1.3,-4.3 1.5,-6.7 h 7.8 c -0.8,7.4 -3.3,13.1 -7.6,17.2 -4.3,4.1 -10.2,6.1 -17.7,6.1 -4.5,0 -8.5,-0.8 -11.9,-2.3 -3.4,-1.6 -6.2,-3.7 -8.4,-6.4 -2.2,-2.7 -3.9,-5.9 -5,-9.7 -1.1,-3.7 -1.7,-7.7 -1.7,-11.9 0,-4.2 0.6,-8.2 1.8,-12 1.2,-3.7 3,-7 5.3,-9.8 2.3,-2.8 5.2,-5 8.7,-6.6 3.5,-1.6 7.4,-2.4 11.9,-2.4 3.1,0 5.9,0.4 8.7,1.2 2.7,0.8 5.2,2 7.3,3.6 2.1,1.6 3.9,3.6 5.3,5.9 1.4,2.4 2.3,5.1 2.8,8.2 h -7.8 c -1,-4.1 -3,-7.2 -5.9,-9.3 z"
         inkscape:connector-curvature="0"
         style="fill:#ffffff" /><path
         id="path981"
         d="m 139.3,332.1 c -1.2,0.7 -2.9,1.1 -5,1.1 -1.8,0 -3.2,-0.5 -4.3,-1.5 -1.1,-1 -1.6,-2.7 -1.6,-4.9 -1.9,2.3 -4.1,3.9 -6.7,4.9 -2.5,1 -5.3,1.5 -8.2,1.5 -1.9,0 -3.7,-0.2 -5.4,-0.7 -1.7,-0.5 -3.2,-1.1 -4.5,-2 -1.3,-0.9 -2.2,-2.1 -3,-3.6 -0.7,-1.5 -1.1,-3.3 -1.1,-5.4 0,-2.4 0.4,-4.4 1.2,-5.9 0.8,-1.5 1.9,-2.8 3.2,-3.7 1.3,-1 2.9,-1.7 4.6,-2.2 1.7,-0.5 3.5,-0.9 5.3,-1.2 1.9,-0.4 3.7,-0.7 5.4,-0.9 1.7,-0.2 3.2,-0.5 4.5,-0.8 1.3,-0.4 2.3,-0.9 3.1,-1.6 0.8,-0.7 1.1,-1.7 1.1,-3 0,-1.5 -0.3,-2.8 -0.9,-3.7 -0.6,-0.9 -1.3,-1.6 -2.2,-2.1 -0.9,-0.5 -1.9,-0.8 -3,-1 -1.1,-0.2 -2.2,-0.2 -3.3,-0.2 -2.9,0 -5.4,0.6 -7.4,1.7 -2,1.1 -3,3.2 -3.2,6.3 h -7 c 0.1,-2.6 0.7,-4.8 1.6,-6.6 1,-1.8 2.3,-3.3 3.9,-4.4 1.6,-1.1 3.5,-1.9 5.6,-2.4 2.1,-0.5 4.3,-0.7 6.7,-0.7 1.9,0 3.8,0.1 5.7,0.4 1.9,0.3 3.6,0.8 5.1,1.7 1.5,0.8 2.8,2 3.7,3.6 0.9,1.5 1.4,3.5 1.4,6 v 21.7 c 0,1.6 0.1,2.8 0.3,3.6 0.2,0.8 0.8,1.1 1.9,1.1 0.6,0 1.3,-0.1 2.1,-0.3 v 5.2 z M 128,310.4 c -0.9,0.7 -2,1.1 -3.4,1.4 -1.4,0.3 -2.9,0.5 -4.5,0.7 -1.6,0.2 -3.1,0.4 -4.7,0.7 -1.6,0.2 -3,0.6 -4.3,1.2 -1.3,0.5 -2.3,1.3 -3.1,2.3 -0.8,1 -1.2,2.4 -1.2,4.1 0,1.1 0.2,2.1 0.7,2.9 0.5,0.8 1.1,1.4 1.8,1.9 0.7,0.5 1.6,0.8 2.6,1.1 1,0.2 2,0.3 3.1,0.3 2.3,0 4.3,-0.3 5.9,-0.9 1.6,-0.6 3,-1.4 4,-2.4 1,-0.9 1.8,-2 2.3,-3.1 0.5,-1.1 0.7,-2.2 0.7,-3.1 v -7.1 z"
         inkscape:connector-curvature="0"
         style="fill:#ffffff" /><path
         id="path983"
         d="m 151.9,273.9 v 21.8 h 0.2 c 1.1,-2.3 2.9,-4 5.4,-5.1 2.5,-1.1 5.2,-1.6 8.1,-1.6 3.3,0 6.1,0.6 8.5,1.8 2.4,1.2 4.4,2.8 6.1,4.9 1.6,2 2.8,4.4 3.6,7.1 0.8,2.7 1.2,5.5 1.2,8.5 0,3 -0.4,5.8 -1.2,8.5 -0.8,2.7 -2,5 -3.6,7 -1.6,2 -3.6,3.6 -6.1,4.7 -2.4,1.1 -5.2,1.7 -8.5,1.7 -1,0 -2.2,-0.1 -3.5,-0.3 -1.3,-0.2 -2.5,-0.6 -3.8,-1.1 -1.3,-0.5 -2.4,-1.2 -3.6,-2 -1.1,-0.8 -2.1,-1.9 -2.8,-3.1 h -0.2 v 5.6 h -7 v -58.4 z m 25,31.1 c -0.5,-1.9 -1.3,-3.6 -2.4,-5 -1.1,-1.5 -2.4,-2.6 -4.1,-3.5 -1.7,-0.9 -3.6,-1.3 -5.8,-1.3 -2.3,0 -4.3,0.5 -6,1.4 -1.6,0.9 -3,2.1 -4,3.6 -1,1.5 -1.8,3.2 -2.2,5.1 -0.5,1.9 -0.7,3.8 -0.7,5.8 0,2.1 0.2,4.1 0.7,6 0.5,1.9 1.3,3.6 2.3,5.1 1.1,1.5 2.4,2.7 4.1,3.6 1.7,0.9 3.7,1.3 6.1,1.3 2.4,0 4.4,-0.5 6,-1.4 1.6,-0.9 2.9,-2.2 3.9,-3.7 1,-1.5 1.7,-3.3 2.1,-5.2 0.4,-2 0.7,-4 0.7,-6.1 0.1,-1.9 -0.2,-3.8 -0.7,-5.7 z"
         inkscape:connector-curvature="0"
         style="fill:#ffffff" /><path
         id="path985"
         d="m 192.7,282.4 v -8.5 h 7 v 8.5 z m 6.9,7.6 v 42.3 h -7 V 290 Z"
         inkscape:connector-curvature="0"
         style="fill:#ffffff" /><path
         id="path987"
         d="m 216,290 v 6.7 h 0.2 c 2.9,-5.1 7.5,-7.7 13.7,-7.7 2.8,0 5.1,0.4 7,1.1 1.9,0.8 3.4,1.8 4.5,3.2 1.1,1.4 1.9,3 2.4,4.9 0.5,1.9 0.7,4 0.7,6.3 v 27.8 h -7 v -28.6 c 0,-2.6 -0.8,-4.7 -2.3,-6.2 -1.5,-1.5 -3.6,-2.3 -6.3,-2.3 -2.1,0 -4,0.3 -5.5,1 -1.6,0.7 -2.8,1.6 -3.9,2.8 -1,1.2 -1.8,2.6 -2.3,4.2 -0.5,1.6 -0.8,3.4 -0.8,5.3 v 23.9 h -7 V 290 Z"
         inkscape:connector-curvature="0"
         style="fill:#ffffff" /><path
         id="path989"
         d="m 283.9,329.6 c -3.2,2.4 -7.1,3.6 -11.9,3.6 -3.4,0 -6.3,-0.5 -8.8,-1.6 -2.5,-1.1 -4.6,-2.6 -6.3,-4.6 -1.7,-2 -3,-4.3 -3.8,-7 -0.8,-2.7 -1.3,-5.7 -1.4,-8.9 0,-3.2 0.5,-6.2 1.5,-8.8 1,-2.7 2.4,-5 4.1,-7 1.8,-2 3.9,-3.5 6.3,-4.6 2.4,-1.1 5.1,-1.6 8,-1.6 3.8,0 6.9,0.8 9.4,2.3 2.5,1.6 4.5,3.5 6,5.9 1.5,2.4 2.5,5 3.1,7.9 0.6,2.9 0.8,5.5 0.7,8.1 H 259 c -0.1,1.9 0.2,3.6 0.7,5.3 0.5,1.7 1.3,3.1 2.4,4.4 1.1,1.3 2.5,2.3 4.2,3.1 1.7,0.8 3.7,1.1 6,1.1 2.9,0 5.4,-0.7 7.2,-2 1.9,-1.4 3.1,-3.4 3.7,-6.2 h 6.9 c -1,4.6 -3.1,8.2 -6.2,10.6 z m -1.7,-27.2 c -0.6,-1.5 -1.5,-2.7 -2.5,-3.8 -1.1,-1.1 -2.3,-1.9 -3.8,-2.5 -1.4,-0.6 -3,-0.9 -4.8,-0.9 -1.8,0 -3.4,0.3 -4.9,0.9 -1.4,0.6 -2.7,1.5 -3.7,2.6 -1,1.1 -1.9,2.4 -2.5,3.8 -0.6,1.4 -1,3 -1.1,4.6 h 24.3 c 0,-1.6 -0.4,-3.2 -1,-4.7 z"
         inkscape:connector-curvature="0"
         style="fill:#ffffff" /><path
         id="path991"
         d="m 314.9,290 v 6.1 h -8.4 v 26.3 c 0,0.8 0.1,1.5 0.2,2 0.1,0.5 0.4,0.9 0.8,1.1 0.4,0.3 0.9,0.4 1.6,0.5 0.7,0.1 1.6,0.1 2.7,0.1 h 3.2 v 6.1 h -5.3 c -1.8,0 -3.3,-0.1 -4.6,-0.4 -1.3,-0.3 -2.3,-0.7 -3.1,-1.3 -0.8,-0.7 -1.4,-1.6 -1.8,-2.8 -0.4,-1.2 -0.6,-2.8 -0.6,-4.7 v -26.9 h -7.2 V 290 h 7.2 v -12.7 h 7 V 290 Z"
         inkscape:connector-curvature="0"
         style="fill:#ffffff" /><path
         id="path993"
         d="m 343,291.6 c 1.2,-3.7 2.9,-6.9 5.3,-9.8 2.3,-2.8 5.3,-5.1 8.8,-6.8 3.5,-1.7 7.6,-2.5 12.2,-2.5 4.6,0 8.7,0.8 12.2,2.5 3.5,1.7 6.4,4 8.8,6.8 2.3,2.8 4.1,6.1 5.3,9.8 1.2,3.7 1.8,7.5 1.8,11.5 0,4 -0.6,7.8 -1.8,11.5 -1.2,3.7 -2.9,6.9 -5.3,9.8 -2.3,2.8 -5.3,5.1 -8.8,6.7 -3.5,1.7 -7.6,2.5 -12.2,2.5 -4.6,0 -8.7,-0.8 -12.2,-2.5 -3.5,-1.7 -6.4,-3.9 -8.8,-6.7 -2.3,-2.8 -4.1,-6.1 -5.3,-9.8 -1.2,-3.7 -1.8,-7.5 -1.8,-11.5 0.1,-4 0.7,-7.8 1.8,-11.5 z m 7.2,20.2 c 0.8,2.9 2,5.4 3.6,7.7 1.6,2.3 3.7,4.1 6.3,5.5 2.6,1.4 5.6,2.1 9.2,2.1 3.5,0 6.6,-0.7 9.2,-2.1 2.6,-1.4 4.7,-3.2 6.3,-5.5 1.6,-2.3 2.8,-4.9 3.6,-7.7 0.8,-2.9 1.1,-5.8 1.1,-8.7 0,-2.9 -0.4,-5.8 -1.1,-8.7 -0.8,-2.9 -2,-5.4 -3.6,-7.7 -1.6,-2.3 -3.7,-4.1 -6.3,-5.5 -2.6,-1.4 -5.6,-2.1 -9.2,-2.1 -3.5,0 -6.6,0.7 -9.2,2.1 -2.6,1.4 -4.7,3.2 -6.3,5.5 -1.6,2.3 -2.8,4.9 -3.6,7.7 -0.8,2.9 -1.1,5.8 -1.1,8.7 0,2.9 0.3,5.8 1.1,8.7 z"
         inkscape:connector-curvature="0"
         style="fill:#ffffff" /><path
         id="path995"
         d="M 400.3,296.1 V 290 h 7.1 v -6.3 c 0,-3.4 1,-6 3,-7.8 2,-1.8 4.9,-2.7 8.7,-2.7 0.7,0 1.4,0.1 2.2,0.2 0.8,0.1 1.6,0.3 2.2,0.5 v 6.1 c -0.6,-0.2 -1.3,-0.4 -2,-0.4 -0.7,-0.1 -1.4,-0.1 -2,-0.1 -1.7,0 -3,0.3 -3.9,1 -0.9,0.7 -1.4,1.9 -1.4,3.8 v 5.9 h 8.2 v 6.1 h -8.2 v 36.2 h -7 v -36.2 h -6.9 z"
         inkscape:connector-curvature="0"
         style="fill:#ffffff" /><path
         id="path997"
         d="M 422.1,296.1 V 290 h 7.1 v -6.3 c 0,-3.4 1,-6 3,-7.8 2,-1.8 4.9,-2.7 8.7,-2.7 0.7,0 1.4,0.1 2.2,0.2 0.8,0.1 1.6,0.3 2.2,0.5 v 6.1 c -0.6,-0.2 -1.3,-0.4 -2,-0.4 -0.7,-0.1 -1.4,-0.1 -2,-0.1 -1.7,0 -3,0.3 -3.9,1 -0.9,0.7 -1.4,1.9 -1.4,3.8 v 5.9 h 8.2 v 6.1 H 436 v 36.2 h -7 v -36.2 h -6.9 z"
         inkscape:connector-curvature="0"
         style="fill:#ffffff" /><path
         id="path999"
         d="m 450,282.4 v -8.5 h 7 v 8.5 z m 6.9,7.6 v 42.3 h -7 V 290 Z"
         inkscape:connector-curvature="0"
         style="fill:#ffffff" /><path
         id="path1001"
         d="m 492,297.4 c -1.7,-1.5 -4.1,-2.2 -7,-2.2 -2.5,0 -4.6,0.5 -6.3,1.4 -1.7,0.9 -3,2.2 -4,3.7 -1,1.5 -1.7,3.3 -2.2,5.3 -0.4,2 -0.7,4 -0.7,6.2 0,2 0.2,3.9 0.7,5.7 0.5,1.9 1.2,3.5 2.2,4.9 1,1.4 2.3,2.6 3.8,3.5 1.6,0.9 3.5,1.3 5.6,1.3 3.4,0 6.1,-0.9 8.1,-2.7 1.9,-1.8 3.1,-4.3 3.6,-7.6 h 7.1 c -0.8,5.2 -2.7,9.3 -5.8,12.1 -3.1,2.8 -7.4,4.3 -12.8,4.3 -3.2,0 -6.1,-0.5 -8.5,-1.6 -2.5,-1 -4.6,-2.5 -6.2,-4.4 -1.7,-1.9 -2.9,-4.2 -3.8,-6.8 -0.8,-2.6 -1.3,-5.5 -1.3,-8.7 0,-3.2 0.4,-6.1 1.2,-8.9 0.8,-2.8 2.1,-5.2 3.7,-7.2 1.7,-2 3.7,-3.7 6.3,-4.8 2.5,-1.2 5.4,-1.8 8.8,-1.8 2.4,0 4.6,0.3 6.7,0.9 2.1,0.6 4,1.5 5.6,2.7 1.6,1.2 2.9,2.7 4,4.5 1,1.8 1.7,4 2,6.5 h -7.2 c -0.7,-2.8 -1.9,-4.9 -3.6,-6.3 z"
         inkscape:connector-curvature="0"
         style="fill:#ffffff" /><path
         id="path1003"
         d="m 539.6,329.6 c -3.2,2.4 -7.1,3.6 -11.9,3.6 -3.4,0 -6.3,-0.5 -8.8,-1.6 -2.5,-1.1 -4.6,-2.6 -6.3,-4.6 -1.7,-2 -3,-4.3 -3.8,-7 -0.8,-2.7 -1.3,-5.7 -1.4,-8.9 0,-3.2 0.5,-6.2 1.5,-8.8 1,-2.7 2.4,-5 4.1,-7 1.8,-2 3.9,-3.5 6.3,-4.6 2.4,-1.1 5.1,-1.6 8,-1.6 3.8,0 6.9,0.8 9.4,2.3 2.5,1.6 4.5,3.5 6,5.9 1.5,2.4 2.5,5 3.1,7.9 0.6,2.8 0.8,5.5 0.7,8.1 h -31.7 c -0.1,1.9 0.2,3.6 0.7,5.3 0.5,1.7 1.3,3.1 2.4,4.4 1.1,1.3 2.5,2.3 4.2,3.1 1.7,0.8 3.7,1.1 6,1.1 2.9,0 5.4,-0.7 7.2,-2 1.9,-1.4 3.1,-3.4 3.7,-6.2 h 6.9 c -1.1,4.6 -3.1,8.2 -6.3,10.6 z m -1.7,-27.2 c -0.6,-1.5 -1.5,-2.7 -2.5,-3.8 -1.1,-1.1 -2.3,-1.9 -3.8,-2.5 -1.4,-0.6 -3,-0.9 -4.8,-0.9 -1.8,0 -3.4,0.3 -4.9,0.9 -1.4,0.6 -2.7,1.5 -3.7,2.6 -1,1.1 -1.9,2.4 -2.5,3.8 -0.6,1.4 -1,3 -1.1,4.6 H 539 c -0.1,-1.6 -0.5,-3.2 -1.1,-4.7 z"
         inkscape:connector-curvature="0"
         style="fill:#ffffff" /></g><g
       transform="matrix(1.2700026,0,0,-1.2700026,-350.48962,427.55068)"
       id="g3093"
       style="fill:#ffffff"><g
         transform="matrix(1.0089141,0,0,1.0089141,362.11571,-731.87265)"
         id="g3551"
         style="fill:#ffffff"><g
           transform="translate(76.2633,810.1241)"
           id="g3111"
           style="fill:#ffffff"><path
             d="m -84.3,133.7 c -0.5,-1 -1,-1.6 -0.9,-2.3 0.1,-0.8 0.9,-1.3 1.2,-2.1 0.3,0.9 0.9,1.6 0.8,2.3 0.1,0.7 -0.9,1.6 -1.1,2.1"
             id="path3113"
             inkscape:connector-curvature="0"
             style="fill:#ffffff" /></g><g
           transform="translate(80.777,810.1241)"
           id="g3115"
           style="fill:#ffffff"><path
             d="m -75.6,133.7 c 0.5,-1 1,-1.6 0.9,-2.3 -0.1,-0.8 -0.9,-1.3 -1.2,-2.1 -0.3,0.9 -0.9,1.6 -0.8,2.3 0,0.7 0.9,1.6 1.1,2.1"
             id="path3117"
             inkscape:connector-curvature="0"
             style="fill:#ffffff" /></g><g
           transform="translate(73.6659,810.3188)"
           id="g3119"
           style="fill:#ffffff"><path
             d="m -89.3,134.1 c 0.5,0 0.9,0.4 0.9,0.9 0,0.5 -0.4,0.9 -0.9,0.9 -0.5,0 -0.9,-0.4 -0.9,-0.9 0,-0.5 0.4,-0.9 0.9,-0.9"
             id="path3121"
             inkscape:connector-curvature="0"
             style="fill:#ffffff" /></g><g
           transform="translate(73.8695,809.8832)"
           id="g3123"
           style="fill:#ffffff"><path
             d="m -88.9,133.2 c 0,0.5 -0.4,0.9 -0.9,0.9 -0.5,0 -0.9,-0.4 -0.9,-0.9 0,-0.5 0.4,-0.9 0.9,-0.9 0.5,0.1 0.9,0.4 0.9,0.9"
             id="path3125"
             inkscape:connector-curvature="0"
             style="fill:#ffffff" /></g><g
           transform="translate(74.0184,809.1441)"
           id="g3127"
           style="fill:#ffffff"><path
             d="m -88.6,131.8 c 0,0.5 -0.4,0.9 -0.9,0.9 -0.5,0 -0.9,-0.4 -0.9,-0.9 0,-0.5 0.4,-0.9 0.9,-0.9 0.5,0 0.9,0.4 0.9,0.9"
             id="path3129"
             inkscape:connector-curvature="0"
             style="fill:#ffffff" /></g><g
           transform="translate(75.3542,811.7728)"
           id="g3131"
           style="fill:#ffffff"><path
             d="m -86,136.9 c 0.5,0 0.9,0.4 0.9,0.9 0,0.5 -0.4,0.9 -0.9,0.9 -0.5,0 -0.9,-0.4 -0.9,-0.9 0,-0.5 0.4,-0.9 0.9,-0.9"
             id="path3133"
             inkscape:connector-curvature="0"
             style="fill:#ffffff" /></g><g
           transform="translate(74.5958,811.539)"
           id="g3135"
           style="fill:#ffffff"><path
             d="m -87.5,136.4 c 0.5,0 0.9,0.4 0.9,0.9 0,0.5 -0.4,0.9 -0.9,0.9 -0.5,0 -0.9,-0.4 -0.9,-0.9 0,-0.5 0.4,-0.9 0.9,-0.9"
             id="path3137"
             inkscape:connector-curvature="0"
             style="fill:#ffffff" /></g><g
           transform="translate(73.9997,811.0167)"
           id="g3139"
           style="fill:#ffffff"><path
             d="m -88.6,135.4 c 0.5,0 0.9,0.4 0.9,0.9 0,0.5 -0.4,0.9 -0.9,0.9 -0.5,0 -0.9,-0.4 -0.9,-0.9 0,-0.5 0.4,-0.9 0.9,-0.9"
             id="path3141"
             inkscape:connector-curvature="0"
             style="fill:#ffffff" /></g><g
           transform="translate(76.1498,811.6996)"
           id="g3143"
           style="fill:#ffffff"><path
             d="m -84.5,136.7 c 0.5,0 0.9,0.4 0.9,0.9 0,0.5 -0.4,0.9 -0.9,0.9 -0.5,0 -0.9,-0.4 -0.9,-0.9 0,-0.5 0.4,-0.9 0.9,-0.9"
             id="path3145"
             inkscape:connector-curvature="0"
             style="fill:#ffffff" /></g><g
           transform="translate(76.9063,811.4808)"
           id="g3147"
           style="fill:#ffffff"><path
             d="m -83,136.3 c 0.5,0 0.9,0.4 0.9,0.9 0,0.5 -0.4,0.9 -0.9,0.9 -0.5,0 -0.9,-0.4 -0.9,-0.9 0,-0.5 0.4,-0.9 0.9,-0.9"
             id="path3149"
             inkscape:connector-curvature="0"
             style="fill:#ffffff" /></g><g
           transform="translate(77.618,811.1467)"
           id="g3151"
           style="fill:#ffffff"><path
             d="m -81.7,135.7 c 0.5,0 0.9,0.4 0.9,0.9 0,0.5 -0.4,0.9 -0.9,0.9 -0.5,0 -0.9,-0.4 -0.9,-0.9 0,-0.5 0.4,-0.9 0.9,-0.9"
             id="path3153"
             inkscape:connector-curvature="0"
             style="fill:#ffffff" /></g><g
           transform="translate(83.0592,810.624)"
           id="g3155"
           style="fill:#ffffff"><path
             d="m -71.2,134.7 c 0,-0.5 0.4,-0.9 0.9,-0.9 0.5,0 0.9,0.4 0.9,0.9 0,0.5 -0.4,0.9 -0.9,0.9 -0.5,0 -0.9,-0.4 -0.9,-0.9"
             id="path3157"
             inkscape:connector-curvature="0"
             style="fill:#ffffff" /></g><g
           transform="translate(83.4658,810.1884)"
           id="g3159"
           style="fill:#ffffff"><path
             d="m -70.4,133.8 c -0.5,0 -0.9,-0.4 -0.9,-0.9 0,-0.5 0.4,-0.9 0.9,-0.9 0.5,0 0.9,0.4 0.9,0.9 0,0.5 -0.4,0.9 -0.9,0.9"
             id="path3161"
             inkscape:connector-curvature="0"
             style="fill:#ffffff" /></g><g
           transform="translate(83.3168,809.4493)"
           id="g3163"
           style="fill:#ffffff"><path
             d="m -70.7,132.4 c -0.5,0 -0.9,-0.4 -0.9,-0.9 0,-0.5 0.4,-0.9 0.9,-0.9 0.5,0 0.9,0.4 0.9,0.9 0,0.5 -0.4,0.9 -0.9,0.9"
             id="path3165"
             inkscape:connector-curvature="0"
             style="fill:#ffffff" /></g><g
           transform="translate(81.6768,811.7728)"
           id="g3167"
           style="fill:#ffffff"><path
             d="m -73.8,136.9 c 0.5,0 0.9,0.4 0.9,0.9 0,0.5 -0.4,0.9 -0.9,0.9 -0.5,0 -0.9,-0.4 -0.9,-0.9 0,-0.5 0.4,-0.9 0.9,-0.9"
             id="path3169"
             inkscape:connector-curvature="0"
             style="fill:#ffffff" /></g><g
           transform="translate(82.4348,811.539)"
           id="g3171"
           style="fill:#ffffff"><path
             d="m -72.4,136.4 c 0.5,0 0.9,0.4 0.9,0.9 0,0.5 -0.4,0.9 -0.9,0.9 -0.5,0 -0.9,-0.4 -0.9,-0.9 0,-0.5 0.4,-0.9 0.9,-0.9"
             id="path3173"
             inkscape:connector-curvature="0"
             style="fill:#ffffff" /></g><g
           transform="translate(83.031,811.0167)"
           id="g3175"
           style="fill:#ffffff"><path
             d="m -71.2,135.4 c 0.5,0 0.9,0.4 0.9,0.9 0,0.5 -0.4,0.9 -0.9,0.9 -0.5,0 -0.9,-0.4 -0.9,-0.9 0,-0.5 0.4,-0.9 0.9,-0.9"
             id="path3177"
             inkscape:connector-curvature="0"
             style="fill:#ffffff" /></g><g
           transform="translate(80.8801,811.6996)"
           id="g3179"
           style="fill:#ffffff"><path
             d="m -75.4,136.7 c 0.5,0 0.9,0.4 0.9,0.9 0,0.5 -0.4,0.9 -0.9,0.9 -0.5,0 -0.9,-0.4 -0.9,-0.9 0,-0.5 0.4,-0.9 0.9,-0.9"
             id="path3181"
             inkscape:connector-curvature="0"
             style="fill:#ffffff" /></g><g
           transform="translate(80.1244,811.4808)"
           id="g3183"
           style="fill:#ffffff"><path
             d="m -76.8,136.3 c 0.5,0 0.9,0.4 0.9,0.9 0,0.5 -0.4,0.9 -0.9,0.9 -0.5,0 -0.9,-0.4 -0.9,-0.9 0,-0.5 0.4,-0.9 0.9,-0.9"
             id="path3185"
             inkscape:connector-curvature="0"
             style="fill:#ffffff" /></g><g
           transform="translate(79.1082,811.4523)"
           id="g3187"
           style="fill:#ffffff"><path
             d="m -78.8,136.3 c 0,-0.5 0.4,-0.9 0.9,-0.9 0.5,0 0.9,0.4 0.9,0.9 0,0.5 -0.4,0.9 -0.9,0.9 -0.5,0 -0.9,-0.4 -0.9,-0.9"
             id="path3189"
             inkscape:connector-curvature="0"
             style="fill:#ffffff" /></g><g
           transform="translate(77.9948,809.8021)"
           id="g3191"
           style="fill:#ffffff"><path
             d="m -80.9,133.1 h 1 v 3.8 c -0.4,0.1 -0.7,0.2 -1,0.3 z"
             id="path3193"
             inkscape:connector-curvature="0"
             style="fill:#ffffff" /></g><g
           transform="translate(79.0367,811.2139)"
           id="g3195"
           style="fill:#ffffff"><path
             d="m -78.9,135.8 c -0.3,-0.1 -0.6,-0.3 -1,-0.3 v -3.8 h 1 z"
             id="path3197"
             inkscape:connector-curvature="0"
             style="fill:#ffffff" /></g><g
           transform="translate(78.3197,812.6555)"
           id="g3199"
           style="fill:#ffffff"><path
             d="m -80.3,138.6 v 2.3 c -1.1,-0.2 -2,-1.1 -2.2,-2.3 z"
             id="path3201"
             inkscape:connector-curvature="0"
             style="fill:#ffffff" /></g><g
           transform="translate(78.7158,812.6555)"
           id="g3203"
           style="fill:#ffffff"><path
             d="m -79.6,138.6 h 2.2 c -0.2,1.1 -1.1,2 -2.2,2.3 z"
             id="path3205"
             inkscape:connector-curvature="0"
             style="fill:#ffffff" /></g><g
           transform="translate(77.5795,812.2815)"
           id="g3207"
           style="fill:#ffffff"><path
             d="m -81.7,137.9 c 0.3,-1.3 1.4,-2.2 2.7,-2.2 1.3,0 2.5,0.9 2.7,2.2 z"
             id="path3209"
             inkscape:connector-curvature="0"
             style="fill:#ffffff" /></g><g
           transform="translate(79.0405,813.5522)"
           id="g3211"
           style="fill:#ffffff"><path
             d="m -78.9,140.3 c -0.6,0.5 -1.1,1.2 -1.2,2 0.7,-0.1 1.5,-0.7 2,-1.3 v 3.1 c -0.5,-0.6 -1.3,-1.2 -2,-1.3 0.1,0.7 0.5,1.4 1.2,2.2 h -3 c 0.6,-0.8 1.1,-1.5 1.2,-2.2 -0.7,0.1 -1.5,0.7 -2,1.3 V 141 c 0.5,0.6 1.3,1.2 2,1.3 -0.1,-0.8 -0.6,-1.5 -1.2,-2 z"
             id="path3213"
             inkscape:connector-curvature="0"
             style="fill:#ffffff" /></g><g
           transform="translate(80.1627,792.6023)"
           id="g3215"
           style="fill:#ffffff"><path
             d="m -76.8,99.9 c -2.8,0.7 -6.2,1.9 -9.3,3.3 v 0 c 0.1,0.6 -0.1,1.3 -0.6,1.9 -0.5,0.6 -1.1,0.9 -1.8,0.9 -0.3,0 -0.6,-0.1 -0.9,-0.2 -0.5,0.4 -0.9,0.8 -1.3,1.3 -1.2,1.4 -2.1,3 -2.8,4.8 -0.4,1 -0.6,2.1 -0.8,3.2 -0.1,-0.9 -1.2,-2.1 -2.9,-2.1 0,0.2 0,0.6 -0.2,0.7 -0.5,-0.5 -1.2,-1.1 -2.7,-0.5 0.2,-1.2 0.6,-2.5 1,-3.6 0.9,-2.5 2.3,-4.8 4,-6.8 0.6,-0.6 1.2,-1.2 1.8,-1.8 0,-0.1 0,-0.2 0,-0.4 0,-0.7 0.6,-1.7 1.5,-2.2 0.7,-0.4 1.6,-0.3 2.3,0.3 1.4,-0.7 3.1,-1.4 5,-1.9 2.1,-0.6 4.1,-0.9 5.7,-0.9 1.4,0 3.2,0.6 5,1.8 0.7,0.5 1.4,1 1.9,1.4 0.1,0.1 0.1,0.1 0.2,0.2 -1.3,-0.2 -3.3,0.2 -5.1,0.6 m -10.3,4.3 -0.3,0.2 c -0.5,0.4 -1,0.4 -1.5,0 -0.2,-0.2 -0.4,-0.4 -0.6,-0.7 l -0.3,-0.3 0.2,-0.2 c 0.6,-0.5 0.7,-1 0.5,-1.3 -0.1,-0.1 -0.2,-0.2 -0.3,-0.2 -0.3,-0.1 -0.7,0 -1.1,0.3 l -0.2,0.1 -0.1,-0.2 c 0,-0.1 -0.1,-0.1 -0.1,-0.2 0,-0.1 -0.1,-0.1 -0.2,-0.2 -0.2,-0.4 -0.4,-0.8 -0.4,-1 0,-0.1 0,-0.1 0,-0.2 0.1,-0.3 0.3,-0.5 0.6,-0.6 l 0.1,-0.1 c 0.3,-0.2 0.6,-0.4 0.9,-0.5 -0.5,-0.3 -1,-0.3 -1.5,-0.1 -0.8,0.4 -1.3,1.3 -1.3,1.7 0,0.7 0.3,1.5 0.8,2.4 l 0.1,0.1 -0.1,0.1 c -0.2,0.3 -0.3,0.5 -0.4,0.8 0.3,0 0.6,-0.1 0.9,-0.2 h 0.1 l 0.1,0.1 c 0.3,0.4 1.5,1.6 2.6,1.6 0.5,0 1,-0.3 1.4,-0.7 0.3,-0.3 0.5,-0.7 0.5,-1.1 0,0.1 -0.2,0.2 -0.4,0.4 m 1.9,-5.4 c -0.7,0 -1.2,0.5 -1.2,1.2 0,0.7 0.5,1.2 1.2,1.2 0.7,0 1.2,-0.5 1.2,-1.2 0,-0.7 -0.6,-1.2 -1.2,-1.2 m 5.2,-1.6 c -0.6,0 -1.1,0.5 -1.1,1.1 0,0.6 0.5,1.1 1.1,1.1 0.6,0 1.1,-0.5 1.1,-1.1 0,-0.6 -0.5,-1.1 -1.1,-1.1"
             id="path3217"
             inkscape:connector-curvature="0"
             style="fill:#ffffff" /></g><g
           transform="translate(79.5636,789.7679)"
           id="g3219"
           style="fill:#ffffff"><path
             d="m -77.9,94.5 c -0.2,0 -0.4,0 -0.6,-0.1 v 3.4 c -1.5,0 -3.2,0.3 -4.9,0.7 v -4.1 c -0.2,0.1 -0.4,0.1 -0.6,0.1 -1.2,0 -1.9,-1 -1.9,-1.9 0,-0.9 0.5,-1.7 1,-2.2 0.2,0.5 0.4,0.9 0.7,0.9 0.6,0 0.3,-2.9 2,-3 -0.1,-0.1 -0.1,-0.3 -0.1,-0.5 0,-0.7 0.6,-1.3 1.3,-1.3 0.7,0 1.3,0.6 1.3,1.3 0,0.2 0,0.3 -0.1,0.5 1.7,0.1 1.4,3 2,3 0.3,0 0.5,-0.4 0.7,-0.9 0.4,0.5 0.9,1.3 0.9,2.2 0.2,0.9 -0.5,1.9 -1.7,1.9 M -81,87.1 c -0.4,0 -0.7,0.3 -0.7,0.7 0,0.4 0.3,0.7 0.7,0.7 0.4,0 0.7,-0.3 0.7,-0.7 0.1,-0.3 -0.2,-0.7 -0.7,-0.7 m 4,4.3 c -0.2,0.4 -0.5,0.6 -0.8,0.6 -1.2,0 -0.7,-3 -2.1,-3 -0.6,0 -0.9,0.4 -0.9,0.8 0,0.4 0.3,0.6 0.3,0.9 0,0.3 -0.3,0.5 -0.6,0.5 -0.3,0 -0.6,-0.1 -0.6,-0.5 0,-0.3 0.3,-0.5 0.3,-0.9 0,-0.4 -0.3,-0.8 -0.9,-0.8 -1.4,0 -0.9,3 -2.1,3 -0.3,0 -0.6,-0.2 -0.8,-0.6 -0.2,0.4 -0.4,0.9 -0.4,1.2 0,0.6 0.4,1.3 1.3,1.3 1.5,0 1.2,-2.1 1.9,-2.1 0.3,0 0.6,0.2 0.6,0.5 0,0.6 -1.1,1.2 -1.1,2 0,0.8 0.8,1.6 1.6,2.3 0.9,-0.7 1.6,-1.4 1.6,-2.3 0,-0.9 -1.1,-1.4 -1.1,-2 0,-0.3 0.2,-0.5 0.6,-0.5 0.7,0 0.4,2.1 1.9,2.1 0.9,0 1.3,-0.8 1.3,-1.3 0.4,-0.3 0.3,-0.8 0,-1.2"
             id="path3221"
             inkscape:connector-curvature="0"
             style="fill:#ffffff" /></g><g
           transform="translate(93.0506,788.3863)"
           id="g3223"
           style="fill:#ffffff"><path
             d="m -51.9,91.8 c -0.1,0.2 -0.3,0.3 -0.4,0.2 -3.9,-1.1 -8.8,2.1 -13.5,5.3 -4,2.6 -7.7,5.1 -10.9,5.1 -1.2,0 -2.2,-0.3 -3.2,-0.7 -1.1,-0.6 -2,-1.6 -2.5,-2.9 -0.5,-1.3 -1.1,-2.2 -1.6,-2.9 -0.5,-0.9 -0.9,-1.5 -0.9,-2.3 0,-0.6 0.3,-1.2 0.8,-1.8 0.5,-0.5 1.1,-0.9 2.1,-1.4 0.2,-0.1 0.4,-0.2 0.6,-0.3 0.8,-0.4 1.3,-0.6 1.4,-1.1 -1.6,-0.7 -3.6,-1.3 -5.9,-1.7 -2.6,-0.5 -5.4,-0.7 -8.4,-0.7 -3,0 -5.8,0.2 -8.4,0.7 -2.3,0.4 -4.3,1 -5.9,1.7 0.1,0.7 0.5,0.9 1.4,1.3 0.2,0.1 0.4,0.2 0.6,0.3 0.8,0.4 1.5,0.8 2,1.3 0.6,0.5 0.8,1 0.8,1.7 0,0.8 -0.4,1.4 -0.9,2.3 -0.5,0.7 -1,1.6 -1.6,2.9 -0.5,1.3 -1.4,2.3 -2.5,2.9 -0.9,0.5 -2,0.7 -3.1,0.7 -3.2,0 -7,-2.5 -11,-5.2 -4.7,-3.1 -9.6,-6.4 -13.5,-5.3 -0.2,0.1 -0.4,0 -0.4,-0.2 -0.1,-0.2 0,-0.4 0.2,-0.5 1.2,-0.5 2.3,-1.4 3.3,-2.1 1.4,-1.1 2.8,-2.2 4.2,-2.2 1.4,0 2.9,0.4 4.7,1.4 1.6,0.8 3.2,1.9 4.8,3 3.1,2.1 6.3,4.3 9.4,4.6 -0.3,-0.3 -0.6,-0.6 -0.9,-0.9 -0.9,-0.8 -1.7,-1.5 -1.7,-2.9 0,-1.1 0.4,-1.9 0.9,-3 0.2,-0.3 0.3,-0.7 0.5,-1.1 0.3,-0.8 0.5,-1.4 0.7,-2.2 0.1,-0.4 0.2,-0.8 0.3,-1.2 0.2,-0.7 0.6,-2.1 2.8,-3.2 2.6,-1.3 7.1,-2 13.3,-2 6.2,0 10.7,0.7 13.3,2 2.2,1.1 2.6,2.5 2.8,3.2 0.1,0.5 0.2,0.9 0.3,1.2 0.2,0.8 0.3,1.4 0.7,2.2 0.2,0.6 0.5,1 0.7,1.4 0.5,0.9 0.8,1.6 0.8,2.6 0,1.4 -0.8,2.1 -1.8,3 -0.3,0.3 -0.6,0.6 -1,0.9 3.1,-0.2 6.3,-2.4 9.4,-4.6 1.6,-1.1 3.2,-2.2 4.8,-3 1.8,-1 3.3,-1.4 4.7,-1.4 1.5,0 2.8,1 4.2,2.2 1,0.8 2.1,1.6 3.3,2.1 0.1,0.2 0.2,0.4 0.2,0.6"
             id="path3225"
             inkscape:connector-curvature="0"
             style="fill:#ffffff" /></g><g
           transform="translate(84.9701,799.1515)"
           id="g3227"
           style="fill:#ffffff"><path
             d="m -67.5,112.6 c -0.4,0.3 -1.1,1 -1.5,1.8 -0.5,1 -2.4,4.8 -2.7,5.3 -0.3,0.4 -0.4,0.8 -0.4,1.1 0,0.4 0.2,0.7 0.4,1 0.2,0.2 0.6,0.6 0.7,0.9 0.1,0.2 0.2,0.3 0.3,0.5 -0.7,1.2 -1.4,2.2 -2.4,3.2 -1.1,1.3 -2.4,2.4 -3.8,3.3 0.7,0.5 1.5,1.2 1.5,2.4 0,0.7 -0.3,1.2 -0.8,1.7 0.8,2.5 2.2,5.6 3.4,6.9 l -2.5,1.1 c 0.7,-1 0.7,-2.2 0.6,-2.9 -0.7,0.5 -1.2,1.1 -1.4,1.9 -0.1,-0.8 -0.5,-2 -0.9,-2.7 0.7,0.3 1.3,0.5 2.1,0.2 -0.4,-0.6 -1.5,-1.5 -3.2,-1.1 -0.9,0.2 -1.8,0.7 -1.8,1.4 0,0.4 0.3,0.9 0.9,0.9 0.6,-0.1 0.6,-0.9 0.4,-1.3 0.7,0.4 1.5,2.5 0.3,2.8 -0.9,0.2 -1.7,-1 -2,-1.9 -0.2,1.1 -0.6,2.2 -1.5,2.2 -1.2,-0.1 -0.8,-2.2 -0.4,-2.8 0.1,0.8 0.5,1.2 0.8,1.1 0.3,0 0.7,-0.2 0.6,-0.9 -0.1,-0.7 -1,-1.1 -2.2,-1.1 -1.1,0 -2.9,0.3 -3.1,2.4 0.7,-0.1 1.8,-0.7 2.2,-1.3 -0.1,1.2 -0.1,2.1 0,3.4 -0.6,-0.8 -1.5,-1.2 -2.2,-1.3 0.2,0.9 1,1.8 1.8,2.4 h -4.6 c 0.9,-0.6 1.6,-1.5 1.8,-2.4 -0.7,0.1 -1.6,0.5 -2.2,1.3 0.1,-1.3 0.1,-2.2 0,-3.4 0.5,0.7 1.5,1.2 2.2,1.3 -0.2,-2.1 -2.1,-2.4 -3.1,-2.4 -1.1,0 -2.1,0.4 -2.2,1.1 -0.1,0.7 0.3,0.9 0.7,0.9 0.3,0 0.8,-0.4 0.8,-1.1 0.4,0.5 0.8,2.7 -0.4,2.8 -0.9,0.1 -1.4,-1 -1.5,-2.2 -0.3,0.9 -1.1,2.2 -2,1.9 -1.1,-0.3 -0.4,-2.4 0.3,-2.8 -0.2,0.4 -0.1,1.2 0.4,1.3 0.6,0.1 0.9,-0.4 0.9,-0.9 0,-0.7 -0.9,-1.2 -1.8,-1.4 -1.7,-0.4 -2.7,0.5 -3.2,1.1 0.8,0.3 1.3,0.2 2.1,-0.2 -0.4,0.7 -0.8,2 -0.9,2.7 -0.2,-0.8 -0.8,-1.5 -1.4,-1.9 -0.1,0.7 -0.1,1.9 0.6,2.9 l -2.5,-1.1 c 1.2,-1.3 2.6,-4.4 3.4,-6.9 -0.5,-0.4 -0.8,-1 -0.8,-1.6 0,-1.2 0.8,-1.9 1.5,-2.4 -1.4,-0.9 -2.7,-2 -3.8,-3.3 -1.7,-1.9 -3.1,-4.2 -4,-6.7 0.4,-0.4 1.9,-2 2.2,-2.5 0.6,-0.8 1,-1.6 1,-2.2 0,-1.1 0.3,-1.6 0.9,-2.4 0.2,-0.2 0.5,-1.1 0.5,-1.7 h 12.6 V 97.2 c -0.5,0 -1,-0.2 -1.4,-0.7 1.5,-0.6 2.8,-1.1 4.2,-1.5 0.1,0.9 0.3,1.4 0.8,2 0,0 -1.8,0.2 -2.8,0.2 v 13.7 h 12.3 c 0,-1.9 -0.4,-3.7 -1,-5.4 -0.6,-1.8 -1.6,-3.4 -2.8,-4.8 -1.2,-1.4 -2.5,-2.5 -4.1,-3.2 -0.2,-0.1 -0.2,-0.3 -0.5,-0.4 -0.2,-0.2 -0.4,-0.6 -0.6,-1.1 -0.2,-0.4 -0.2,-0.7 -0.3,-1.2 0.6,-0.2 0.9,-0.3 1.4,-0.4 4.3,-1.1 5.4,-0.8 5.6,-0.6 v 0 c 1,0.7 1.9,1.6 2.7,2.5 1.7,2 3.1,4.2 4,6.8 1,2.6 1.5,5.4 1.5,8.3 0.3,0.5 0.3,0.6 0.3,1.2 m -19.1,-1 h -12.6 c 0,1.9 0.4,3.8 1,5.6 0.6,1.8 1.6,3.4 2.8,4.8 1.2,1.4 2.6,2.5 4.1,3.2 1.5,0.7 3.1,1.1 4.7,1.2 0,0 0,-14.8 0,-14.8 z m 0.2,21 c -4.2,0 -7.1,-1.2 -8.8,-2.4 -1,0.6 -1.4,1.1 -1.4,1.8 0,2.4 6.7,2.6 10.1,2.6 v 0 0 c 3.4,0 10.1,-0.2 10.1,-2.6 0,-0.7 -0.4,-1.2 -1.4,-1.8 -1.5,1.1 -4.4,2.4 -8.6,2.4 m 0.6,-21 v 14.8 c 1.5,-0.1 3,-0.4 4.4,-1.1 1.5,-0.8 2.9,-1.8 4.1,-3.2 1.2,-1.4 2.1,-3 2.8,-4.8 0.6,-1.8 1,-3.7 1,-5.6 -0.1,-0.1 -12.3,-0.1 -12.3,-0.1 z"
             id="path3229"
             inkscape:connector-curvature="0"
             style="fill:#ffffff" /></g><g
           transform="translate(82.2329,799.6543)"
           id="g3231"
           style="fill:#ffffff"><path
             d="m -72.8,113.5 c 0.2,-0.1 0.1,-0.5 -0.1,-0.4 -0.3,2.2 -1.1,4.4 -2.4,6.2 v 0 c 0.2,0.1 0.5,0.3 0.5,0.6 -0.4,0 -0.6,-0.1 -0.8,-0.3 -0.1,0.1 -0.2,0.2 -0.3,0.3 -0.8,1 -1.7,1.8 -2.7,2.5 -0.9,0.6 -1.9,1.1 -3,1.4 0,0.2 0.3,0.3 0.5,0.1 0,0.4 -0.3,0.6 -0.5,0.5 -0.1,0 -0.2,-0.1 -0.2,-0.3 -0.1,0.1 -0.3,0.3 -0.6,0.3 0,-0.3 0.1,-0.4 0.2,-0.6 -0.2,0 -0.3,-0.1 -0.3,-0.2 -0.1,-0.2 0,-0.5 0.4,-0.6 -0.2,0.2 -0.1,0.5 0.1,0.4 v -4.8 c -0.2,0.1 -0.5,0 -0.8,-0.2 0.3,-0.3 0.6,-0.3 0.8,-0.2 V 113 c -0.3,0 -0.3,0.3 -0.1,0.4 -0.4,0 -0.6,-0.4 -0.5,-0.5 0.1,-0.1 0.2,-0.2 0.4,-0.2 -0.1,-0.1 -0.2,-0.3 -0.2,-0.6 0.2,0 0.4,0.1 0.5,0.2 0,-0.2 0.1,-0.3 0.2,-0.4 0.2,-0.1 0.5,0.1 0.5,0.5 -0.1,-0.2 -0.5,-0.1 -0.5,0.1 h 3.6 c -0.1,-0.2 0,-0.5 0.2,-0.8 0.2,0.3 0.3,0.6 0.2,0.8 h 4 c 0,-0.3 -0.3,-0.3 -0.4,-0.1 0,-0.4 0.4,-0.5 0.5,-0.5 0.1,0.1 0.2,0.2 0.2,0.4 0.1,-0.1 0.3,-0.2 0.6,-0.2 0,0.2 -0.1,0.4 -0.2,0.5 0.2,0 0.3,0.1 0.4,0.2 0.4,0.4 0.2,0.7 -0.2,0.7 m -3.4,6.4 c -0.1,-0.1 -0.2,-0.2 -0.1,-0.3 0,-0.1 0.1,-0.2 0.4,-0.2 -0.1,-0.1 -0.2,-0.3 -0.3,-0.5 0.2,0 0.4,0 0.6,0.1 0,-0.2 0,-0.3 0.1,-0.4 0.1,-0.1 0.2,-0.1 0.3,0 0.9,-1.5 1.6,-3.2 1.8,-5 -0.1,0.1 -0.3,0.1 -0.5,0.1 0,-0.3 0.1,-0.4 0.2,-0.6 h -3.1 c 0,0.2 -0.1,0.4 -0.2,0.4 -0.1,0 -0.3,0 -0.4,-0.1 0,0.2 -0.1,0.4 -0.2,0.5 -0.2,-0.2 -0.2,-0.4 -0.2,-0.5 -0.1,0.2 -0.3,0.2 -0.4,0.1 -0.1,0 -0.2,-0.2 -0.2,-0.4 H -81 c 0.1,0.1 0.2,0.3 0.2,0.5 -0.2,0 -0.4,-0.1 -0.5,-0.2 v 4.2 c 0.2,0 0.4,0.1 0.4,0.2 0,0.1 0,0.3 -0.1,0.4 0.2,0 0.4,0.1 0.5,0.2 -0.2,0.2 -0.4,0.2 -0.5,0.2 0.2,0.1 0.2,0.3 0.1,0.4 0,0.1 -0.2,0.2 -0.4,0.2 v 3.6 c 0.1,-0.1 0.3,-0.2 0.5,-0.2 0,0.2 0,0.4 -0.1,0.5 0.8,-0.3 1.6,-0.7 2.4,-1.2 0.7,-0.4 1.5,-1.1 2.3,-2"
             id="path3233"
             inkscape:connector-curvature="0"
             style="fill:#ffffff" /></g><g
           transform="translate(81.4982,800.1064)"
           id="g3235"
           style="fill:#ffffff"><path
             d="m -74.2,114.4 c 0.2,0.1 0.3,0.2 0.3,0.3 -0.2,-0.1 -0.3,0 -0.3,0 0.1,0.1 0.3,0 0.1,0.2 -0.1,0.2 -0.2,0.2 -0.4,0.1 -0.1,-0.2 -1.1,0 -1.1,0.8 0.1,-0.1 0.2,-0.2 0.3,-0.3 0,0 0.1,0 0.1,-0.1 h 0.1 c 0.1,0 0.2,0 0.3,0 0,0 0,0 0.1,0 v 0 c 0.2,0 0.4,0.2 0.4,0.4 0,0.4 -0.3,0.6 -0.8,0.9 -0.2,0.1 -0.3,0.3 -0.4,0.4 -0.1,0.3 0,0.6 -0.4,1.1 0,0.1 0,0.3 -0.1,0.5 -0.2,-0.3 -0.3,-1 0.2,-1.5 0.4,-0.5 1.3,-0.9 1.2,-1.3 0,-0.1 -0.1,-0.2 -0.2,-0.2 h -0.1 c 0,0 0,0 -0.1,0 -0.1,0 -0.1,0 -0.2,0.1 -0.1,0.1 -0.2,0.1 -0.3,0.2 -0.4,0.3 -0.7,0.8 -0.9,1.1 -0.4,0.5 -0.2,1 -0.2,1.4 0.3,0.4 -0.2,1.2 -0.4,1.4 0,0 0.1,0.2 0,0.4 -0.1,0 -0.2,0 -0.2,0 -0.1,0.1 -0.1,0.2 -0.2,0.2 -0.2,0 -0.2,0.1 -0.2,0.2 -0.1,-0.1 -0.1,-0.2 -0.2,-0.2 -0.1,0 -0.2,0 -0.3,0 -0.1,-0.1 -0.1,-0.1 -0.3,-0.1 -0.2,0 -0.2,-0.1 -0.1,-0.2 0,-0.1 0,-0.2 0.1,-0.2 v 0 l 0.1,-0.2 0.1,0.2 c 0.1,0.1 0.3,0.1 0.3,-0.1 0,-0.1 0,-0.1 -0.1,-0.2 -0.1,0 -0.2,0 -0.4,0 -0.1,0 -0.1,-0.1 -0.1,-0.2 0,-0.1 0.1,-0.1 0.3,-0.1 0.2,0 0.5,0.1 0.5,-0.1 0,-0.4 -0.5,-0.4 -0.6,-0.9 -0.1,0.1 -0.2,0.2 -0.3,0.3 -0.1,0.1 -0.2,0.3 -0.4,0.5 -0.1,0.1 -0.2,0.2 -0.4,0.3 -0.2,0.1 -0.2,0.2 -0.2,0.4 0,0.2 0.1,0.3 0.1,0.4 v 0.1 c 0,0.1 -0.2,0.2 -0.2,0.1 0,0 0.1,-0.1 0.1,-0.2 l -0.1,-0.1 v -0.1 0 c 0,0 0,0 0,-0.1 v 0 c 0,0.1 -0.1,0.3 -0.2,0.3 0,0 0,0 -0.1,0 v 0 c 0,0.1 -0.1,0.2 -0.3,0.1 h 0.1 v -0.1 c 0,-0.1 0.1,-0.2 0.2,-0.2 v 0 0 0 c -0.2,0.1 -0.3,0 -0.3,-0.1 v -0.1 c -0.1,0 -0.1,-0.2 0,-0.2 v 0.1 0 c 0,0 0,0 0.1,-0.1 0,0 0,0 0.1,0 v 0 c 0,0 0,0 0.1,0 v 0 c -0.1,-0.1 -0.1,-0.2 0,-0.3 -0.1,-0.1 -0.3,-0.1 -0.3,0.1 -0.2,-0.3 0.1,-0.5 0.3,-0.4 0,-0.1 0,-0.3 0,-0.3 0,0 0,0.1 0.1,0.1 v 0 c 0,-0.1 0,-0.1 0.1,-0.2 v 0.1 c 0,-0.1 0.1,-0.1 0.1,-0.2 0.1,-0.2 0.3,-0.7 0.9,-0.9 -0.3,-0.2 -0.4,-0.4 -0.6,-0.6 -0.1,-0.1 -0.4,-0.3 -0.5,-0.2 -0.1,0 -0.1,0.1 -0.2,0.2 -0.1,0 -0.1,0.1 -0.2,0 h -0.1 c -0.1,0 -0.2,0 -0.3,-0.1 0.1,0 0.1,0 0.2,0 v -0.1 c 0,-0.1 0,-0.1 0.3,-0.1 v 0 c 0,0 -0.1,-0.1 -0.1,0 -0.1,0 -0.2,0.1 -0.3,0 0,0 0,0 -0.1,-0.1 v 0 c -0.1,0 -0.2,-0.2 -0.1,-0.3 0,0 0,0.1 0.1,0.2 0,0 0,-0.1 0.1,-0.1 0.1,-0.1 0.2,-0.2 0.3,0.1 v 0 c 0,-0.1 -0.1,-0.3 0,-0.3 0,0 0,0 0.1,0 v 0 c 0,-0.1 0.2,-0.2 0.3,-0.1 -0.1,0 -0.1,0.1 -0.2,0.2 h 0.1 c 0.1,0.1 0,0.2 0,0.3 v 0 c 0,-0.1 0.1,-0.2 0.3,-0.1 0.1,0 0.1,0.1 0.1,0.2 0.2,0.1 0.3,0.1 0.5,0.1 0,0.1 0.1,0.2 0.3,0.3 0.2,0.1 0.3,0 0.3,-0.1 0,0.1 0.1,0.2 0.2,0.3 0,-0.8 1,-0.7 1.3,-1.2 -0.3,0.1 -0.7,0.2 -0.8,0.2 -0.3,0 -0.7,-0.3 -0.7,-0.6 0,-0.2 0.2,-0.7 0.4,-0.8 -0.3,-0.1 -0.4,0 -0.7,0 v 0 c -0.2,0 -0.3,0.4 -0.5,0.3 0,0 -0.1,0 -0.1,-0.1 v 0 c -0.1,0 -0.3,-0.1 -0.2,-0.2 0,0 0.1,0.1 0.2,0.1 V 115 c 0,0 0,-0.1 0.1,-0.1 0.1,0 0.1,0 0.1,0 v 0 c 0,-0.1 -0.3,0.1 -0.3,-0.2 0,0 0,-0.1 0.1,-0.1 0,-0.1 0.1,-0.2 0.2,-0.1 l -0.1,0.1 h 0.1 v 0 0 0 c 0,0 0,0 0,-0.1 v -0.1 c 0,-0.1 0.1,-0.2 0.3,-0.1 0,0 -0.1,0 -0.1,0.1 h 0.1 v 0.1 0 h 0.1 v 0 c 0,-0.1 0.1,-0.1 0.2,-0.1 0.1,0 0.1,0.1 0.1,0.1 0,0 0.1,0 0.1,-0.1 0,0.1 0,0.2 0.3,0 l 0.2,0.1 c 0,0 0.2,-0.1 0.3,0 0.1,0.1 0.1,0.1 0.1,0.3 -0.1,0.2 -0.2,0.2 -0.2,0.4 -0.1,0.4 0.5,0.6 0.8,0.5 0.1,-0.2 0.4,-0.9 1,-1.1 0.4,-0.1 0.5,0.3 0.6,0.2 0,0 0,0 0.1,-0.1 0,-0.2 0,-0.3 0,-0.4 0,-0.1 -0.2,0 -0.4,0 -0.1,0 -0.1,0 -0.1,-0.1 -0.1,0 -0.2,-0.1 -0.2,-0.2 0,0 0.1,0.1 0.2,0.1 0,0 0,0 0,-0.1 0,-0.1 0.2,-0.2 0.3,-0.1 0,0 0.1,0 0,0 -0.1,-0.1 -0.2,-0.2 -0.1,-0.3 0,0 0,0 0.1,0 0,-0.1 0.1,-0.2 0.1,-0.2 0,0 0,0.1 0,0.2 h 0.1 c 0.1,0 0.1,0.2 0.2,0.2 v 0 c 0,-0.1 -0.1,-0.2 0,-0.3 0,0 0,0 0.1,0 0,-0.1 0.1,-0.1 0.3,-0.1 0,0 -0.1,0 -0.1,0.1 l 0.1,0.1 c 0.1,0.2 -0.1,0.2 -0.1,0.3 0,0.1 0.2,0 0.2,0.3 v 0 c 0.1,0.1 0.2,0.1 0.3,0.2 0.2,-0.1 0,0 0,0 z"
             id="path3237"
             inkscape:connector-curvature="0"
             style="fill:#ffffff" /></g><g
           transform="translate(77.9625,797.7405)"
           id="g3239"
           style="fill:#ffffff"><path
             d="m -81,109.8 h -0.2 v 0.2 c 0,0.7 -0.4,1.3 -1.2,1.3 -0.7,0 -2.1,-0.9 -4,-0.9 -0.8,0 -1.8,0.4 -2.4,0.7 l -0.2,-0.6 c 0,0 0,0 0,0.1 0,0.3 -0.2,0.5 -0.5,0.5 -0.3,0 -0.5,-0.2 -0.5,-0.5 0,-0.3 0.2,-0.5 0.5,-0.5 0.1,0 0.3,0.1 0.4,0.2 l -0.2,-0.6 c 0.1,0 0.2,-0.1 0.2,-0.1 -0.3,-2.9 1.9,-6.6 5.6,-7.7 0.6,0.1 1.1,0.1 1.1,-0.5 0,-0.4 -0.2,-0.5 -0.5,-0.5 -0.2,0 -0.4,0.1 -0.4,0.3 0,0.3 0.4,0.1 0.5,0.3 0.1,0.2 -0.1,0.3 -0.4,0.3 -0.3,0 -0.7,-0.2 -0.7,-0.6 0,-0.5 0.4,-0.8 0.9,-0.8 0.4,0 1.3,0.2 1.2,1.3 0.2,0 0.4,0 0.5,0.2 v 0.6 h -0.2 l 0.2,6.6 h 0.1 c 0.2,0 0.5,0.1 0.5,0.4 0.1,0.2 -0.1,0.3 -0.3,0.3 m -6.8,-0.5 4.6,-6.6 c -2.5,1 -4.9,3.2 -4.6,6.6 m 4.7,-5.9 -4.2,6 c 0.1,0 0.3,0 0.4,0 0.2,0 0.4,0 0.6,0 l 3.4,-4.8 c -0.1,-0.5 -0.2,-0.9 -0.2,-1.2 m 0.3,1.9 -3,4.2 c 0.3,0.1 0.6,0.2 0.9,0.3 l 2.2,-3.2 c 0,-0.4 0,-0.9 -0.1,-1.3 m 0.7,4.6 h -0.2 c -0.2,0 -0.4,-0.1 -0.5,-0.3 0,-0.3 0.2,-0.4 0.4,-0.4 h 0.1 c 0,-0.1 0,-0.1 0,-0.2 -0.1,-0.4 -0.2,-1 -0.3,-1.7 l -1.9,2.7 c 0.9,0.3 1.6,0.7 2,0.7 0.4,0 0.5,-0.2 0.4,-0.8"
             id="path3241"
             inkscape:connector-curvature="0"
             style="fill:#ffffff" /></g><g
           transform="translate(77.6883,802.3008)"
           id="g3243"
           style="fill:#ffffff"><path
             d="m -81.5,118.6 c 0.9,0 1.3,0.3 1.3,0.6 0,1 -2.5,0.4 -2.5,1 0,0.1 0.1,0.2 0.2,0.3 v 0 c 1.2,0.1 1.3,1 2.1,1.1 -1.1,0.2 -1.2,-0.7 -1.7,-0.7 0.2,0.1 0.3,0.4 0.3,0.5 -0.2,-0.3 -0.7,-0.3 -1,-0.6 0,-0.1 -0.1,-0.1 0,-0.2 -0.2,-0.1 -0.3,-0.2 -0.3,-0.4 0,-0.9 2.5,-0.3 2.5,-1 0,-0.2 -0.4,-0.4 -1.1,-0.4 -0.5,0 -0.9,0.4 -1.8,0.1 0,0.2 0.3,0.5 0.2,0.6 0.1,0 0.2,0.1 0.2,0.2 -0.1,0.1 -0.1,0.1 -0.2,0.1 v 0.1 c 0,0 0,0.1 -0.1,0.1 0,0 -0.1,0.1 -0.2,0.1 -0.1,0.1 -0.2,0.1 -0.2,0.1 h -0.1 c -0.1,0 -0.1,0 -0.1,-0.1 0,0 -0.1,0.1 -0.2,0.1 0,-0.1 -0.1,-0.1 0,-0.3 -0.1,0 -0.2,-0.2 -0.3,-0.2 0,-0.1 0.1,-0.1 0.1,-0.1 -0.1,-0.1 -0.1,-0.3 -0.2,-0.3 0,0 0,-0.1 0.1,-0.1 -0.1,-0.2 -0.1,-0.4 -0.1,-0.6 v 0 c -0.1,0.1 -0.1,0.1 -0.2,0.2 -0.1,0.1 -0.1,0.2 -0.1,0.3 0,0.1 0.1,0.2 0.1,0.3 v 0.1 c 0,0.1 -0.1,0.1 -0.2,0.1 l 0.1,-0.1 -0.1,-0.1 c 0,0 -0.1,-0.1 0,-0.1 v 0 c 0,0 0,0 0,-0.1 v 0 c 0,0.1 0,0.2 -0.1,0.2 h -0.1 v 0 c 0,0.1 -0.1,0.2 -0.2,0.1 h 0.1 v -0.1 c 0,-0.1 0,-0.1 0.2,-0.1 v 0 0 0 c -0.2,0.1 -0.3,0 -0.3,-0.1 0,0 0,0 0,-0.1 -0.1,0 -0.1,-0.1 0,-0.2 0,0 0,0.1 0.1,0.1 v 0 0 c 0,0 0,0 0.1,0 v 0 0 0 c -0.1,-0.1 -0.1,-0.2 0,-0.2 v 0 c 0,-0.2 -0.3,-0.2 -0.3,0 -0.2,-0.2 0.1,-0.4 0.3,-0.3 v 0 c 0,0 0,-0.1 0.1,-0.1 0,0 0,0 0.1,0 v 0 c 0,0 0,-0.1 0.1,-0.1 v 0.1 c 0,0 0.1,-0.2 0.2,-0.3 -0.2,-0.1 -0.5,-0.2 -0.6,-0.2 0,0 -0.3,0 -0.4,0 -0.1,-0.1 -0.5,-0.2 -0.6,-0.1 0,0 0,0.1 -0.1,0.2 l -0.1,0.1 h -0.1 c -0.1,0.1 -0.2,0.1 -0.2,0 0,0 0.1,0 0.1,-0.1 v -0.1 c 0,0 0,-0.1 0.2,-0.2 v 0 h -0.1 c -0.1,0.1 -0.1,0.2 -0.2,0.1 0,0 0,0 -0.1,0 v 0 c -0.1,0 -0.2,-0.1 -0.2,-0.2 0,0 0,0.1 0.1,0.1 v -0.1 c 0,-0.1 0.1,-0.2 0.3,0 v 0 c -0.1,-0.1 -0.2,-0.2 -0.1,-0.3 0,0 0,0 0.1,0 v 0 c 0,-0.1 0.1,-0.2 0.2,-0.2 0,0 -0.1,0.1 -0.1,0.2 h 0.1 c 0.1,0 0.1,0.2 0.1,0.2 v 0 c 0,-0.1 0,-0.2 0.2,-0.2 0.1,0 0.2,0.1 0.2,0.2 v 0 l 0.1,-0.1 c 0,0 0.1,0 0.1,0.1 0,-0.1 0,-0.1 0,-0.2 0,0 0.2,0.1 0.2,0.2 0,0 0,0 0,-0.1 v 0 c 0.1,0 0.1,0 0.3,0 v 0 c 0,-0.1 0,-0.1 0,-0.1 v 0.1 c 0,0 0,-0.1 0.1,-0.2 0,0.3 0.2,0.2 0.4,0.3 v 0 c 0,0 0,-0.1 -0.1,-0.1 0.1,0 0.3,0.1 0.3,0.2 l 0.1,0.1 c 0.1,0 0.2,0 0.2,0.1 0,0 0,-0.1 0,-0.2 0.2,0 0.4,0.2 0.5,0.3 0.5,0.1 -0.3,0.4 0.7,0.4 0.1,0 0.2,0 0.3,0.1 -0.1,-0.1 -0.1,-0.4 0.1,-0.5 0.1,0 0.2,-0.1 0.2,-0.1 v 0 c -0.1,0 -0.2,0 -0.2,-0.1 -0.2,-0.1 -0.2,0.3 -0.5,0.2 0,0 0,0 -0.1,0 -0.1,0 -0.2,-0.1 -0.2,-0.2 0,0 0.1,0.1 0.2,0.1 v 0 c 0,0 0,-0.1 0.1,-0.1 h 0.1 v 0 c 0,-0.1 -0.3,0 -0.2,-0.2 v -0.1 c 0,-0.1 0.1,-0.2 0.2,-0.1 0,0 -0.1,0 -0.1,0.1 0,0 0,0 0.1,0 v 0 0 0 c 0,0 0,0 0,-0.1 v -0.1 c 0,-0.1 0.1,-0.2 0.3,-0.1 0,0 -0.1,0 -0.1,0.1 h 0.1 c 0,0 0,0 0,0.1 v 0 c 0,0 0,0 0.1,0 v 0 c 0,-0.1 0.1,-0.1 0.2,-0.1 0.2,0.1 0,0.2 0.2,0.2 h 0.1 c 0.1,0 0.3,0 0.3,0 0,0.1 0,0.3 -0.1,0.4 -0.1,0 0,0.1 -0.1,0.3 0.1,-0.1 0.3,-0.1 0.5,-0.1 0.3,0 0,0.1 0.2,0.1 0.2,0.1 0.4,0.1 0.4,0 0,0 0.1,0 0.1,-0.1 0,-0.2 0,-0.2 0,-0.3 0,-0.1 -0.2,0 -0.3,0 -0.1,0 -0.1,0 -0.1,0 -0.1,0 -0.2,-0.1 -0.2,-0.2 0,0 0.1,0.1 0.2,0.1 v 0 c 0,-0.1 0.1,-0.2 0.2,-0.1 v 0 c -0.1,-0.1 -0.2,-0.2 -0.1,-0.2 0,0 0,0 0.1,0 0,-0.1 0,-0.2 0.1,-0.2 v 0.1 h 0.1 c 0.1,0 0,0.1 0.1,0.2 v 0 c 0,-0.1 0,-0.2 0,-0.2 0,0 0,0 0.1,0 0,-0.1 0.1,-0.1 0.2,-0.1 0,0 -0.1,0 -0.1,0.1 l 0.1,0.1 c 0,0.2 -0.1,0.2 -0.1,0.3 0,0.1 0.2,0 0.2,0.2 0,0 0,0.1 -0.1,0.1 v 0 0 c 0,0 0.1,0 0.1,0.1 -0.1,0 -0.1,0.1 -0.1,0.2 v 0 c 0,0 0.1,0.1 0.1,0.2 0,-0.1 -0.2,-0.1 -0.2,0 0,0 0,0.1 -0.1,0.1 -0.3,-0.1 -0.4,0.1 -0.8,0.1 -0.1,0 -0.1,0 0,0 m -2.8,1 v 0 0 m 0.7,0.2 c 0,0 0.2,-0.1 0.3,-0.1 -0.1,0 -0.1,-0.1 -0.2,-0.1 -0.1,0 -0.1,0.1 -0.1,0.2 m -0.2,0.1 c 0,-0.1 -0.1,-0.1 -0.2,-0.1 -0.1,0.1 0,0.1 -0.1,0.2 0.1,0 0.3,-0.1 0.3,-0.1 m -0.3,-0.6 c 0,0 0.1,0.1 0,0 0.1,0.1 0.1,0.1 0.2,0.2 0,0.1 0,0.1 -0.1,0.1 0.1,0 0.1,0 0.1,0.1 H -84 c 0,0 0,0 0.1,0.1 0,0 0,0 0.1,0 l 0.2,-0.1 c 0,0 0,0 0,-0.1 v -0.1 c 0,0 0,0.1 -0.1,0.1 0,0 0,0 0,-0.1 -0.1,0 -0.1,0 -0.1,0 v -0.1 -0.1 c 0,-0.1 -0.1,-0.1 -0.3,0 0,-0.2 0,-0.1 0,0"
             id="path3245"
             inkscape:connector-curvature="0"
             style="fill:#ffffff" /></g><g
           transform="translate(78.1122,801.1567)"
           id="g3247"
           style="fill:#ffffff"><path
             d="m -80.7,116.4 c 0,0.3 -0.3,0.4 -1.2,0.4 -0.9,0 -2.9,-0.3 -2.9,0.2 0,0.2 0.4,0.2 0.8,0.2 0,0 0.1,-0.1 0.2,-0.1 1.1,-0.3 2.5,0.3 3.2,0.1 -0.8,0.6 -1.5,0 -2.3,0.2 0.5,0 0.7,0.1 0.7,0.3 -0.4,-0.3 -1.1,0.1 -1.6,-0.2 0,0 -0.1,0 -0.1,-0.1 -0.6,0 -1.1,0 -1.1,-0.4 0,-0.9 2.4,-0.4 3.1,-0.4 0.7,0 0.9,-0.1 0.9,-0.2 0,-0.2 -0.7,-0.3 -1.1,-0.3 -0.6,0 -2.6,0.3 -3.7,0.1 0.1,0.2 0.3,0.4 0.2,0.6 0.1,0 0.2,0.1 0.2,0.2 -0.1,0.1 -0.1,0.1 -0.2,0.1 0,0.1 0,0.1 -0.1,0.2 0,0 0,0.1 -0.1,0.1 0,0 -0.1,0.1 -0.3,0.2 -0.1,0.1 -0.2,0.1 -0.3,0.1 0,0 -0.1,0 -0.2,0 -0.1,0 -0.1,0 -0.1,-0.1 -0.1,0.1 -0.1,0.1 -0.2,0.1 0,-0.1 -0.1,-0.2 0,-0.3 -0.1,0 -0.2,-0.3 -0.3,-0.2 0,-0.1 0.1,-0.1 0.1,-0.1 -0.1,-0.2 -0.1,-0.3 -0.2,-0.3 0.1,-0.1 0.1,-0.1 0.1,-0.1 0,-0.1 0,-0.2 0,-0.3 l -0.2,0.1 v 0 c 0,0 0,0 -0.1,0 h 0.1 -0.1 c -0.1,0.1 -0.2,0.2 -0.4,0.3 -0.2,0.1 -0.2,0.2 -0.2,0.4 0,0.2 0.1,0.3 0.1,0.4 v 0.1 c 0,0.1 -0.1,0.2 -0.2,0.2 0,0 0.1,-0.1 0.1,-0.2 l -0.1,-0.1 c 0,0 0,-0.1 0,-0.2 v 0 c 0,0 0,0 0,-0.1 v 0 c 0,0.1 -0.1,0.3 -0.2,0.3 h -0.1 v 0 c 0,0.1 -0.1,0.2 -0.3,0.1 h 0.1 v -0.1 c 0,-0.1 0.1,-0.2 0.2,-0.2 v 0 c 0,0 0,0 0,-0.1 v 0 c -0.2,0.1 -0.3,0 -0.3,-0.1 v -0.1 c -0.1,-0.1 -0.1,-0.2 0,-0.2 v 0.1 0 0 h 0.1 v 0 c 0,0 0,0 0.1,0 v 0 c -0.1,-0.1 -0.1,-0.3 0,-0.3 v 0 c 0,-0.2 -0.4,-0.2 -0.3,0 -0.2,-0.3 0.1,-0.5 0.4,-0.4 v 0 c 0,0 0,-0.1 0.1,-0.1 0,0 0,0.1 0.1,0.1 v 0 c 0,-0.1 0,-0.1 0.1,-0.2 v 0.1 c 0,0 0.2,-0.2 0.4,-0.3 0.2,-0.1 0.3,-0.2 0.4,-0.1 0,-0.2 0.1,-0.4 0.1,-0.4 -0.1,0 -0.5,0 -0.6,0 -0.2,-0.1 -0.6,-0.2 -0.7,-0.1 0,0.1 0,0.1 -0.1,0.2 0,0.1 -0.1,0.1 -0.1,0.1 h -0.1 c -0.1,0.1 -0.2,0.1 -0.3,0 0,0 0.1,0 0.2,-0.1 v -0.1 c 0,-0.1 0,-0.1 0.2,-0.2 v 0 h -0.1 c -0.1,0.1 -0.1,0.2 -0.2,0.1 0,0 0,0 -0.1,0 v 0 c -0.1,0 -0.3,-0.1 -0.2,-0.3 l 0.1,0.1 V 115 c 0,-0.1 0.1,-0.2 0.4,-0.1 v 0 c -0.1,-0.1 -0.2,-0.2 -0.1,-0.3 0,0 0,0 0.1,0 v 0 c 0,-0.2 0.1,-0.3 0.2,-0.3 0,0 -0.1,0.1 -0.1,0.2 h 0.1 c 0.1,0.1 0.1,0.2 0.1,0.3 v 0 c 0,-0.1 0,-0.2 0.2,-0.2 0.1,0 0.2,0.1 0.2,0.2 v 0 c 0,0 0.1,-0.1 0.1,-0.2 0,0 0.1,0 0.1,0.1 0,-0.1 0,-0.2 -0.1,-0.3 0.1,0 0.2,0.1 0.2,0.3 0,0 0,-0.1 0.1,-0.1 v 0 c 0,0 0.2,0 0.3,0 v 0 c 0,-0.1 0,-0.1 0,-0.1 0,0 0,0.1 0.1,0.1 0,0 0,-0.1 0.1,-0.2 0,0.4 0.2,0.2 0.5,0.4 v 0 c 0,0 0,-0.1 -0.1,-0.1 0.3,-0.1 0.7,0.3 0.8,0.5 0.1,0 0.2,0 0.3,0 0.8,-0.1 0.2,0.7 1.5,0.5 0.1,0 0.2,0.1 0.3,0.1 -0.1,-0.2 -0.1,-0.5 0.1,-0.5 0.1,0 0.2,-0.1 0.3,-0.1 v 0 c -0.1,0 -0.2,0 -0.2,-0.1 -0.3,-0.2 -0.3,0.4 -0.5,0.3 0,0 -0.1,0 -0.1,-0.1 -0.1,0 -0.3,-0.1 -0.2,-0.2 0,0 0.1,0.1 0.2,0.1 v -0.1 c 0,0 0,-0.1 0.1,-0.1 0.1,0 0.1,0 0.1,0 v 0 c 0,-0.1 -0.4,0.1 -0.3,-0.2 v -0.1 c 0,-0.1 0.1,-0.2 0.2,-0.1 l -0.1,0.1 h 0.1 v 0 0 0 c 0,0 0,0 0,-0.1 v -0.1 c 0,-0.1 0.1,-0.2 0.3,-0.1 0,0 -0.1,0 -0.2,0.1 h 0.1 v 0.1 0 c 0,0 0,0 0.1,0 0,0 0,0 0.1,0 0,-0.1 0.1,-0.1 0.2,-0.1 0.2,0.1 0,0.2 0.2,0.3 h 0.1 c 0.1,0 0.4,0 0.4,0 0,0.1 0,0.3 -0.1,0.4 -0.1,0 0,0.2 -0.1,0.3 0.2,-0.1 0.3,-0.1 0.5,-0.1 0.4,0 0.5,0.1 0.7,0.2 0.2,0.1 0.4,0.1 0.5,0 0,0 0.1,0 0.1,-0.1 0,-0.2 0,-0.2 0,-0.3 0,-0.1 -0.2,0 -0.3,0 -0.1,0 -0.1,0 -0.1,-0.1 -0.1,0 -0.2,-0.1 -0.2,-0.2 0,0 0.1,0.1 0.2,0.1 v 0 c 0,-0.1 0.2,-0.2 0.3,-0.1 v 0 c -0.1,-0.1 -0.2,-0.2 -0.1,-0.2 0,0 0,0 0.1,0 0,-0.1 0.1,-0.2 0.1,-0.2 0,0 0,0.1 0,0.2 h 0.1 c 0.1,0 0,0.2 0.1,0.2 v 0 c 0,-0.1 -0.1,-0.2 0,-0.3 0,0 0,0 0.1,0 0,-0.1 0.1,-0.1 0.2,-0.1 0,0 -0.1,0 -0.1,0.1 l 0.1,0.1 c 0.1,0.2 -0.1,0.2 -0.1,0.3 0,0.1 0.2,0 0.2,0.2 0,0 0,0.1 -0.1,0.1 v 0 0 c 0.1,0 0.1,0 0.2,0.1 -0.2,0 -0.1,0.1 -0.1,0.2 v 0 c 0.1,0 0.1,0.1 0.1,0.2 -0.1,-0.1 -0.2,-0.2 -0.2,0 0,0 0,0.1 -0.2,0.1 -0.3,0 -0.5,0 -1,0.1 0.5,0 1.4,0.1 1.4,0.4 m -6.9,-0.5 v 0 0 m 1.4,1.3 c 0,0 0.2,-0.1 0.3,-0.1 -0.2,0 -0.1,-0.1 -0.2,-0.1 -0.1,0 -0.1,0.1 -0.1,0.2 m -0.2,0.1 c 0,-0.1 -0.1,-0.1 -0.2,-0.1 -0.1,0.1 0,0.1 -0.1,0.2 0.1,0 0.3,-0.1 0.3,-0.1 m -0.3,-0.7 c 0,0.1 0.1,0.1 0,0 0.2,0.1 0.2,0.1 0.2,0.2 0,0.1 0,0.1 -0.1,0.1 0.1,0 0.1,0 0.1,0.1 h -0.1 c 0,0 0,0.1 0.1,0.1 0,0 0,0 0.1,0 l 0.3,-0.1 c 0,0 0.1,0 0.1,-0.1 v -0.1 c 0,0 0,0.1 -0.1,0.1 0,0 0,0 0,-0.1 -0.1,0 -0.1,0.1 -0.2,0 0,-0.1 0,-0.1 0,-0.1 v -0.1 c 0,-0.1 -0.1,-0.2 -0.2,-0.1 -0.3,-0.1 -0.3,0 -0.2,0.1 M -86,115 c 0,0 0,0.1 0,0 v 0"
             id="path3249"
             inkscape:connector-curvature="0"
             style="fill:#ffffff" /></g><g
           transform="translate(77.9788,799.8422)"
           id="g3251"
           style="fill:#ffffff"><path
             d="m -81,113.9 c 0,0.3 -0.3,0.4 -1.1,0.4 -0.8,0 -3.4,-0.3 -3.4,0.2 0,0.3 0.9,0.2 1.5,0.2 0,0 0.1,-0.1 0.2,-0.1 1.1,-0.3 2.2,0.4 3,0.2 -0.6,0.6 -1.4,-0.1 -2.2,0.1 0.5,0 1,0.1 1,0.2 -0.4,-0.2 -1.4,0.2 -1.9,-0.1 0,0 -0.1,0 -0.1,-0.1 -0.8,0 -1.8,0.1 -1.8,-0.4 0,-0.8 2.9,-0.3 3.6,-0.3 0.7,0 0.9,-0.1 0.9,-0.2 0,-0.2 -0.7,-0.2 -1.1,-0.2 -0.6,0 -3.4,0.4 -4.5,0 0.1,0.2 0.3,0.5 0.2,0.6 0.1,0 0.2,0.1 0.2,0.2 -0.1,0.1 -0.1,0.1 -0.2,0.1 v 0.1 c 0,0 0,0.1 -0.1,0.1 0,0 -0.1,0.1 -0.2,0.2 -0.1,0.1 -0.2,0.1 -0.2,0.1 0,0 -0.1,0 -0.2,0 -0.1,0 -0.1,0 -0.1,-0.1 0,0 -0.1,0.1 -0.2,0.1 0,-0.1 -0.1,-0.2 0,-0.3 -0.1,0 -0.2,-0.3 -0.3,-0.2 0,-0.1 0.1,-0.1 0.1,-0.1 -0.1,-0.1 -0.1,-0.3 -0.2,-0.3 l 0.1,-0.1 c 0,-0.1 0,-0.2 0,-0.3 h -0.1 c -0.1,0 -0.1,0 -0.1,0 h -0.1 c -0.1,0 -0.2,0.2 -0.5,0.4 -0.2,0.1 -0.2,0.2 -0.2,0.3 0,0.1 0.1,0.3 0.1,0.4 v 0.1 c 0,0.1 -0.2,0.2 -0.2,0.1 l 0.1,-0.1 -0.1,-0.1 v -0.1 0 c 0,0 0,0 0,-0.1 v 0 c 0,0.1 -0.1,0.3 -0.2,0.3 0,0 0,0 -0.1,0 v 0 c 0,0.1 -0.1,0.2 -0.2,0.1 h 0.1 v -0.1 c 0,-0.1 0.1,-0.1 0.2,-0.2 v 0 0 0 c -0.2,0.1 -0.3,0 -0.3,-0.1 v -0.1 c -0.1,-0.1 -0.1,-0.1 0,-0.2 v 0.1 0 c 0,0 0,0 0.1,0 0,0 0,0 0.1,0 v 0 c 0,0 0,0 0.1,0 v 0 c -0.1,-0.1 -0.1,-0.2 0.1,-0.3 v 0 c 0,-0.2 -0.3,-0.2 -0.3,0 -0.2,-0.3 0.1,-0.5 0.4,-0.3 v 0 c 0,0 0,-0.1 0.1,-0.1 0,0 0,0 0.1,0 v 0 c 0,-0.1 0,-0.1 0.1,-0.2 v 0.1 c 0,0 0.2,-0.3 0.6,-0.5 0.1,0 0.2,0 0.2,0.1 0,0 0,-0.1 0.1,-0.1 0,-0.2 0.1,-0.3 0.1,-0.3 0,0 -0.6,0 -0.7,0 -0.2,-0.1 -0.5,-0.2 -0.7,-0.1 0,0.1 0,0.1 -0.1,0.2 0,0.1 -0.1,0.1 -0.1,0.1 h -0.1 c -0.1,0.1 -0.2,0.1 -0.3,0 0,0 0.1,0 0.2,-0.1 V 113 c 0,-0.1 0,-0.1 0.2,-0.2 v 0 h -0.1 c -0.1,0.1 -0.1,0.2 -0.2,0.1 0,0 0,0 -0.1,0 v 0 c -0.1,0 -0.3,-0.1 -0.2,-0.3 l 0.1,0.1 v -0.1 c 0,-0.1 0.1,-0.2 0.3,-0.1 v 0 c -0.1,-0.1 -0.2,-0.2 -0.1,-0.3 0,0 0,0 0.1,0 v 0 c 0,-0.1 0.1,-0.3 0.2,-0.2 0,0 -0.1,0.1 -0.1,0.2 h 0.1 c 0.1,0 0.1,0.2 0.1,0.2 v 0 c 0,-0.1 0,-0.2 0.2,-0.2 0.1,0 0.2,0.1 0.2,0.2 v 0 c 0,0 0.1,-0.1 0.1,-0.2 l 0.1,0.1 c 0,-0.1 0,-0.2 -0.1,-0.2 0.1,0 0.2,0.1 0.2,0.2 v -0.1 0 c 0,0 0.1,0 0.3,0 v 0 c 0,-0.1 0,-0.1 0,-0.1 0,0 0,0.1 0.1,0.1 0,0 0,-0.1 0.1,-0.2 0,0.4 0.5,0.2 0.7,0.3 v 0 c 0,0 0,-0.1 -0.1,-0.1 0.1,0 0.2,0 0.3,0.1 v 0 l 0.4,0.2 v 0.1 h 0.1 v 0 c 0.2,0 0.2,0.2 0.3,0.2 1.4,-0.2 0.6,0.6 2.2,0.4 0.1,0 0.1,0 0.2,0.1 -0.1,-0.2 -0.1,-0.4 0.1,-0.4 0.1,0 0.2,-0.1 0.3,-0.1 v 0 c -0.1,0 -0.2,0 -0.2,-0.1 -0.3,-0.2 -0.3,0.4 -0.5,0.3 0,0 -0.1,0 -0.1,-0.1 -0.1,0 -0.3,-0.1 -0.2,-0.2 0,0 0.1,0.1 0.2,0.1 0,0 0,0 0,-0.1 0,0 0,-0.1 0.1,-0.1 0.1,0 0.1,0 0.1,0 v 0 c 0,-0.1 -0.3,0.1 -0.3,-0.2 v -0.1 c 0,-0.1 0.1,-0.2 0.2,-0.1 l -0.1,0.1 h 0.1 v 0 0 0 c 0,0 0,0 0,-0.1 v -0.1 c 0,-0.1 0.1,-0.2 0.3,-0.1 0,0 -0.1,0 -0.1,0.1 h 0.1 v 0.1 0 c 0,0 0,0 0.1,0 0,0 0,0 0.1,0 0,-0.1 0.1,-0.1 0.2,-0.1 0.2,0.1 0,0.2 0.2,0.3 h 0.1 c 0.1,0 0.4,0 0.4,0 0,0.1 0,0.3 -0.1,0.4 -0.1,0 0,0.2 -0.1,0.3 0.2,-0.1 0.3,-0.1 0.5,-0.1 0.4,0 0.5,0.1 0.6,0.2 0.2,0.1 0.4,0.1 0.5,0 0,0 0.1,0 0.1,-0.1 0,-0.2 0,-0.2 0,-0.3 0,-0.1 -0.2,0 -0.3,0 -0.1,0 -0.1,0 -0.1,-0.1 -0.1,0 -0.2,-0.1 -0.2,-0.2 0,0 0.1,0.1 0.2,0.1 v 0 c 0,-0.1 0.2,-0.2 0.2,-0.1 v 0 c -0.1,-0.1 -0.2,-0.2 -0.1,-0.2 0,0 0,0 0.1,0 0,-0.1 0.1,-0.2 0.1,-0.2 0,0 0,0.1 0,0.2 h 0.1 c 0.1,0 0,0.2 0.1,0.2 v 0 c 0,-0.1 0,-0.2 0,-0.2 0,0 0,0 0.1,0 0,-0.1 0.1,-0.1 0.2,-0.1 0,0 -0.1,0 -0.1,0.1 l 0.1,0.1 c 0.1,0.2 -0.1,0.2 -0.1,0.3 0,0.1 0.2,0 0.2,0.2 0,0 0,0.1 -0.1,0.1 v 0 0 c 0.1,0 0.1,0 0.1,0.1 -0.2,0 -0.1,0.1 -0.1,0.2 v 0 c 0,0 0.1,0.1 0.1,0.2 0,-0.1 -0.2,-0.2 -0.2,0 0,0 0,0.1 -0.2,0.1 -0.3,0 -0.4,0 -0.9,0.1 0.4,-0.2 1.2,-0.1 1.2,0.2 m -6.1,0.7 c 0,0 0.2,-0.1 0.3,-0.1 -0.1,0 -0.1,-0.1 -0.2,-0.1 -0.1,0 -0.1,0.1 -0.1,0.2 m -0.2,0.1 c 0,-0.1 -0.1,-0.1 -0.2,-0.1 -0.1,0.1 0,0.1 -0.1,0.2 0.1,0 0.3,-0.1 0.3,-0.1 m -0.3,-0.7 c 0,0.1 0,0.1 0,0 0.2,0.1 0.2,0.1 0.2,0.2 0,0.1 0,0.1 -0.1,0.1 0.1,0 0.1,0 0.1,0.1 h -0.1 c 0,0 0,0 0.1,0.1 0,0 0,0 0.1,0 l 0.3,-0.1 c 0,0 0.1,0 0.1,-0.1 v -0.1 c 0,0 0,0.1 -0.1,0.1 0,0 0,0 0,-0.1 -0.1,0 -0.1,0 -0.2,0 v -0.1 -0.1 c 0,-0.1 -0.1,-0.1 -0.2,-0.1 -0.2,0 -0.2,0.1 -0.2,0.1"
             id="path3253"
             inkscape:connector-curvature="0"
             style="fill:#ffffff" /></g><g
           transform="translate(82.0435,797.6415)"
           id="g3255"
           style="fill:#ffffff"><path
             d="m -73.1,109.7 v 0 c 0.1,0.1 0.1,0.1 0.1,0.3 -0.1,-0.1 -0.2,-0.2 -0.2,0 0,0 0,0.1 -0.2,0.1 -0.3,0 -0.5,0 -1,0.1 0,0 -0.1,0 0,0 0.5,0 1.4,0.1 1.4,0.4 0,0.3 -0.3,0.4 -1.1,0.4 -0.8,0 -3.4,-0.3 -3.4,0.2 0,0.3 0.9,0.2 1.5,0.2 0,0 0.1,-0.1 0.2,-0.1 1.1,-0.3 2.3,0.5 3,0.3 -0.8,0.3 -1.4,-0.2 -2.2,0 0.5,0 1,0.1 1,0.2 -0.4,-0.2 -1.4,0.2 -1.9,-0.1 0,0 -0.1,0 -0.1,-0.1 -0.8,0 -1.8,0.1 -1.8,-0.4 0,-0.8 2.9,-0.3 3.6,-0.3 0.7,0 0.9,-0.1 0.9,-0.2 0,-0.2 -0.7,-0.3 -1.1,-0.3 -0.7,0 -3.4,0.4 -4.5,0 0.1,0.2 0.3,0.5 0.2,0.6 0.1,0 0.2,0.1 0.2,0.2 -0.1,0.1 -0.1,0.1 -0.2,0.1 v 0.1 c 0,0 0,0.1 -0.1,0.1 0,0 -0.1,0.1 -0.2,0.2 -0.1,0.1 -0.2,0.1 -0.2,0.1 h -0.1 c -0.1,0 -0.1,0 -0.1,-0.1 -0.1,0 -0.1,0.1 -0.2,0.1 0,-0.1 -0.1,-0.2 0,-0.3 -0.1,0 -0.2,-0.3 -0.3,-0.2 0,-0.1 0.1,-0.1 0.1,-0.1 -0.1,-0.1 -0.1,-0.3 -0.2,-0.3 0.1,-0.1 0.1,-0.1 0.1,-0.1 0,-0.1 0,-0.2 0,-0.2 H -80 c -0.1,0 -0.1,0 -0.1,0 h -0.1 c -0.1,0 -0.2,0.2 -0.5,0.4 -0.2,0.1 -0.2,0.2 -0.2,0.3 0,0.1 0.1,0.3 0.1,0.4 v 0.1 c 0,0.1 -0.1,0.2 -0.2,0.1 l 0.1,-0.1 -0.1,-0.1 v -0.1 0 c 0,0 0,0 0,-0.1 v 0 c 0,0.1 -0.1,0.2 -0.2,0.3 h -0.1 v 0 c 0,0.1 -0.1,0.2 -0.2,0.1 h 0.1 v -0.1 c 0,-0.1 0.1,-0.2 0.2,-0.2 v 0 0 0 c -0.2,0.1 -0.3,0 -0.3,-0.1 v -0.1 c -0.1,0 -0.1,-0.1 0,-0.2 v 0.1 0 c 0,0 0,0 0.1,0 0,0 0,0 0.1,0 v 0 c 0,0 0,0 0.1,0 v 0 c -0.1,-0.1 -0.1,-0.3 0.1,-0.3 v 0 c 0,-0.2 -0.3,-0.2 -0.3,0 -0.2,-0.3 0.1,-0.5 0.4,-0.3 v 0 c 0,0 0,-0.1 0.1,-0.1 0,0 0,0 0.1,0 v 0 c 0,-0.1 0,-0.1 0.1,-0.2 0,0.1 0,0.1 0,0.1 0,0 0.2,-0.3 0.5,-0.5 0,0 0.1,0.1 0.2,0.1 0,-0.1 0.1,-0.1 0.1,-0.2 h 0.1 c 0,-0.2 0.2,-0.3 0.1,-0.3 -0.1,0 -0.4,0 -0.5,0 -0.2,-0.1 -0.5,-0.2 -0.7,-0.1 0,0.1 0,0.1 -0.1,0.2 0,0.1 -0.1,0.1 -0.1,0.1 h -0.1 c -0.1,0.1 -0.2,0.1 -0.3,0 0,0 0.1,0 0.1,-0.1 v -0.1 c 0,-0.1 0,-0.1 0.2,-0.2 v 0 h -0.1 c -0.1,0.1 -0.1,0.2 -0.2,0.1 0,0 0,0 -0.1,0 v 0 c -0.1,0 -0.3,-0.1 -0.2,-0.3 l 0.1,0.1 v -0.1 c 0,-0.1 0.1,-0.2 0.3,-0.1 v 0 c -0.1,-0.1 -0.2,-0.2 -0.1,-0.3 0,0 0,0 0.1,0 v 0 c 0,-0.1 0.1,-0.2 0.2,-0.2 0,0 -0.1,0.1 -0.1,0.2 h 0.1 c 0.1,0 0.1,0.2 0.1,0.2 v 0 c 0,-0.1 0,-0.2 0.2,-0.2 0.1,0 0.2,0.1 0.2,0.2 v 0 c 0,0 0.1,-0.1 0.1,-0.2 l 0.1,0.1 c 0,-0.1 0,-0.2 -0.1,-0.3 0.1,0 0.2,0.1 0.2,0.3 0,0 0,-0.1 0.1,-0.1 v 0 c 0,0 0.1,0 0.3,0 v 0 c 0,-0.1 0,-0.1 0,-0.1 0,0 0,0.1 0.1,0.1 0,0 0,-0.1 0.1,-0.2 0,0.4 0.2,0.2 0.5,0.4 v 0 c 0,0 0,-0.1 -0.1,-0.1 0.1,-0.1 0.4,0.1 0.4,0.3 0,0 0.1,0 0.2,0.1 0.2,0 0.2,0.2 0.3,0.2 1.4,-0.2 0.6,0.6 2.2,0.4 0.1,0 0.1,0.1 0.2,0.2 -0.1,-0.2 -0.1,-0.5 0.1,-0.5 0.1,0 0.2,-0.1 0.3,-0.1 v 0 c -0.1,0 -0.2,0 -0.2,-0.1 -0.2,-0.2 -0.3,0.4 -0.5,0.3 0,0 -0.1,0 -0.1,-0.1 -0.1,0 -0.2,-0.1 -0.2,-0.2 0,0 0.1,0.1 0.2,0.1 v -0.1 c 0,0 0,-0.1 0.1,-0.1 0.1,0 0.1,0 0.1,0 v 0 c 0,-0.1 -0.3,0.1 -0.3,-0.2 0,0 0,-0.1 0.1,-0.1 0,-0.1 0.1,-0.2 0.2,-0.1 l -0.1,0.1 h 0.1 v 0 0 0 c 0,0 0,0 0,-0.1 v -0.1 c 0,-0.1 0.1,-0.2 0.3,-0.1 0,0 -0.1,0 -0.1,0.1 h 0.1 v 0.1 0 c 0,0 0,0 0.1,0 v 0 c 0,-0.1 0.1,-0.1 0.2,-0.1 0.2,0.1 0,0.2 0.2,0.2 h 0.1 c 0.1,0 0.3,0 0.4,0 0,0.1 0,0.3 -0.1,0.4 -0.1,0 0,0.2 -0.1,0.3 0.2,-0.1 0.3,-0.1 0.5,-0.1 0.4,0 0.5,0.1 0.7,0.2 0.2,0.1 0.4,0.1 0.5,0 0,0 0.1,0 0.1,-0.1 -0.1,-0.2 0,-0.2 0,-0.3 0,-0.1 -0.2,0 -0.3,0 -0.1,0 -0.1,0 -0.1,-0.1 -0.1,0 -0.2,-0.1 -0.2,-0.2 0,0 0.1,0.1 0.2,0.1 v 0 c 0,-0.1 0.1,-0.2 0.2,-0.1 v 0 c -0.1,-0.1 -0.2,-0.2 -0.1,-0.2 0,0 0,0 0.1,0 0,-0.1 0,-0.2 0.1,-0.2 0,0 0,0.1 0,0.2 h 0.1 c 0.1,0 0.1,0.2 0.2,0.2 v 0 c 0,-0.1 -0.1,-0.2 0,-0.2 0,0 0,0 0.1,0 0,-0.1 0.1,-0.1 0.2,-0.1 0,0 -0.1,0 -0.1,0.1 l 0.1,0.1 c 0.1,0.2 -0.1,0.2 -0.1,0.3 0,0.1 0.2,0 0.2,0.2 0,0 0,0.1 -0.1,0.1 v 0 0 c 0.1,0 0.1,0 0.2,0.1 -0.5,-0.3 -0.4,-0.1 -0.4,0 m -6.1,1.5 c 0,0 0.2,-0.1 0.3,-0.1 C -79,111 -79,111 -79,111 c -0.1,0 -0.2,0.1 -0.2,0.2 m -0.2,0.1 c 0,-0.1 -0.1,-0.1 -0.2,-0.1 -0.1,0.1 0,0.1 -0.1,0.2 0.1,0 0.3,-0.1 0.3,-0.1 m -0.3,-0.7 c 0,0.1 0.1,0.1 0,0 0.2,0.1 0.2,0.1 0.2,0.2 0,0.1 0,0.1 -0.1,0.1 0.1,0 0.1,0 0.1,0.1 h -0.1 v 0.1 c 0,0 0,0 0.1,0 l 0.3,-0.1 c 0,0 0,0 0,-0.1 v -0.1 c 0,0 0,0.1 -0.1,0.1 0,0 0,0 0,-0.1 -0.1,0 -0.1,0.1 -0.2,0 v -0.1 -0.1 c 0,-0.1 -0.1,-0.1 -0.2,0 0,-0.1 0,0 0,0 m -0.2,0.4 z m 0.1,0.3 v 0 0 m 1.2,-1.9 v 0 0"
             id="path3257"
             inkscape:connector-curvature="0"
             style="fill:#ffffff" /></g><g
           transform="translate(80.7611,796.9224)"
           id="g3259"
           style="fill:#ffffff"><path
             d="m -75.6,108.3 c 0,-0.1 0.1,-0.1 0.2,-0.1 1,-0.3 2.2,0.5 2.8,0.3 -0.8,0.3 -1.3,-0.2 -2.1,0 0.5,0 0.9,0.1 1,0.2 -0.4,-0.2 -1.3,0.1 -1.8,-0.1 0,0 0,0 -0.1,0 -0.6,0 -1,0 -1,-0.4 0,-0.8 2.1,-0.3 2.8,-0.3 0.7,0 0.6,-0.1 0.6,-0.2 0,-0.2 -0.8,-0.2 -1.1,-0.2 -0.6,0 -2.3,0.3 -3.4,0.1 0.1,0.2 0.3,0.4 0.2,0.5 0.1,0 0.2,0.1 0.2,0.2 -0.1,0.1 -0.1,0.1 -0.2,0.1 v 0.1 c 0,0 0,0.1 -0.1,0.1 0,0 -0.1,0.1 -0.2,0.2 -0.1,0.1 -0.2,0.1 -0.2,0.1 h -0.1 c -0.1,0 -0.1,0 -0.1,-0.1 0,0 -0.1,0.1 -0.2,0.1 0,-0.1 -0.1,-0.2 0,-0.3 -0.1,0 -0.2,-0.2 -0.3,-0.2 0,-0.1 0.1,-0.1 0.1,-0.1 -0.1,-0.1 -0.1,-0.3 -0.2,-0.3 l 0.1,-0.1 c 0,-0.1 0,-0.2 -0.1,-0.3 h -0.1 v 0 c -0.1,0 -0.2,0 -0.4,0.1 -0.2,0.1 -0.2,0.2 -0.2,0.3 0,0.1 0.1,0.3 0.1,0.4 v 0.1 c 0,0.1 -0.1,0.2 -0.2,0.1 l 0.1,-0.1 -0.1,-0.1 v -0.1 0 c 0,0 0,0 0,-0.1 v 0 c 0,0.1 -0.1,0.2 -0.2,0.2 0,0 0,0 -0.1,0 v 0 c 0,0.1 -0.1,0.2 -0.2,0.1 h 0.1 v -0.1 c 0,-0.1 0.1,-0.1 0.2,-0.1 v 0 0 0 c -0.2,0.1 -0.3,0 -0.3,-0.1 v -0.1 c -0.1,0 -0.1,-0.1 0,-0.2 v 0.1 0 0 c 0,0 0,0 0.1,0 v 0 c 0,0 0,0 0.1,0 v 0 c -0.1,-0.1 -0.1,-0.2 0.1,-0.3 v 0 c 0,-0.2 -0.3,-0.2 -0.3,0 -0.2,-0.3 0.1,-0.5 0.4,-0.3 v 0 c 0,0 0,-0.1 0.1,-0.1 v 0 0 c 0,-0.1 0,-0.1 0.1,-0.1 v 0.1 c 0,0 0,0.1 0.3,-0.1 0,0 0,-0.1 0.1,-0.1 h 0.2 c 0,-0.2 0,-0.4 0,-0.4 0,0 -0.4,0 -0.5,0 -0.1,-0.1 -0.5,-0.2 -0.6,-0.1 0,0.1 0,0.1 -0.1,0.2 0,0.1 -0.1,0.1 -0.1,0.1 h -0.1 c -0.1,0.1 -0.2,0.1 -0.3,0 0,0 0.1,0 0.1,-0.1 v -0.1 c 0,0 0,-0.1 0.2,-0.2 v 0 h -0.1 c -0.1,0.1 -0.1,0.2 -0.2,0.1 0,0 0,0 -0.1,0 v 0 c -0.1,0 -0.3,-0.1 -0.2,-0.2 0,0 0,0.1 0.1,0.1 v -0.1 c 0,-0.1 0.1,-0.2 0.3,0 v 0 c -0.1,-0.1 -0.2,-0.2 -0.1,-0.3 0,0 0,0 0.1,0 v 0 c 0,-0.1 0.1,-0.2 0.2,-0.2 0,0 -0.1,0.1 -0.1,0.2 h 0.1 c 0.1,0 0.1,0.2 0.1,0.2 v 0 c 0,-0.1 0,-0.2 0.2,-0.2 0.1,0 0.2,0.1 0.2,0.2 v 0 c 0,0 0.1,-0.1 0.1,-0.2 l 0.1,0.1 c 0,-0.1 0,-0.2 -0.1,-0.2 0.1,0 0.2,0.1 0.2,0.2 0,0 0,-0.1 0.1,-0.1 v 0 c 0,0 0.1,0 0.3,0 v 0 c 0,-0.1 0,-0.1 0,-0.1 0,0 0,0.1 0.1,0.1 0,0 0,-0.1 0.1,-0.2 0,0.4 0.3,0.3 0.5,0.4 v 0 c 0,0 0,-0.1 -0.1,-0.1 0.2,-0.1 0.5,0.2 0.6,0.4 0,0 0,0 0.1,0.1 v -0.1 c 0.2,0 0.2,0.2 0.3,0.2 0.7,-0.1 0.2,0.6 1.3,0.4 0.1,0 0.2,0.1 0.3,0.1 -0.1,-0.1 -0.1,-0.5 0.1,-0.5 0.1,0 0.2,-0.1 0.3,-0.1 v 0 c -0.1,0 -0.2,0 -0.2,-0.1 -0.2,-0.2 -0.2,0.4 -0.5,0.3 h -0.1 c -0.1,0 -0.2,-0.1 -0.2,-0.2 0,0 0.1,0.1 0.2,0.1 0,0 0,0 0,-0.1 0,0 0,-0.1 0.1,-0.1 0.1,0 0.1,0 0.1,0 v 0 c 0,-0.1 -0.3,0.1 -0.3,-0.2 v -0.1 c 0,-0.1 0.1,-0.2 0.2,-0.1 l -0.1,0.1 h 0.1 v 0 0 0 c 0,0 0,0 0,-0.1 v -0.1 c 0,-0.1 0.1,-0.2 0.3,-0.1 0,0 -0.1,0 -0.1,0.1 h 0.1 v 0.1 0 c 0,0 0,0 0.1,0 v 0 c 0,-0.1 0.1,-0.1 0.2,-0.1 0.2,0.1 0,0.2 0.2,0.2 h 0.1 c 0.1,0 0.3,0 0.4,0 0,0.1 0,0.3 -0.1,0.4 -0.1,0 0,0.1 -0.1,0.3 0.1,-0.1 0.3,-0.1 0.5,-0.1 0.4,0 0.5,0 0.7,0.1 0.2,0.1 0.4,0.1 0.5,0 0,0 0.1,0 0,-0.1 -0.1,-0.2 0,-0.2 -0.1,-0.3 -0.1,-0.1 -0.2,0 -0.3,0 -0.1,0 -0.1,0 -0.1,0 -0.1,0 -0.2,-0.1 -0.2,-0.2 0,0 0.1,0.1 0.2,0.1 v 0 c 0,-0.1 0.1,-0.2 0.2,-0.1 v 0 c -0.1,-0.1 -0.3,-0.2 -0.2,-0.2 0,0 0,0 0.1,0 0,-0.1 0,-0.2 0.1,-0.2 0,0 0,0.1 0.1,0.2 h 0.1 c 0.1,0 0.1,0.2 0.2,0.2 v 0 c -0.1,-0.1 -0.1,-0.2 0,-0.2 0,0 0,0 0.1,0 0,-0.1 0.1,-0.1 0.2,-0.1 0,0 -0.1,0 -0.1,0.1 l 0.1,0.1 c 0.1,0.2 -0.1,0.2 0,0.3 0,0.1 0.2,0 0.3,0.2 0,0 0,0.1 -0.1,0.1 v 0 0 c 0.1,0 0.1,0 0.2,0.1 -0.1,0 -0.1,0.1 -0.1,0.2 v 0 c 0.1,0 0.1,0.1 0.1,0.2 -0.1,-0.1 -0.2,-0.1 -0.2,0 0,0 0,0.1 -0.1,0.1 -0.2,0 -0.6,0 -1,0.1 v 0 c 0.5,0 1.4,0.1 1.4,0.4 0,0.2 0,0.4 -0.8,0.4 -0.8,0 -2.6,-0.3 -2.6,0.2 -0.5,-0.3 -0.1,-0.3 0.3,-0.3 m -2.6,0 c 0,-0.1 -0.1,-0.1 -0.2,-0.1 -0.1,0.1 0,0.1 -0.1,0.2 0.1,0 0.2,-0.1 0.3,-0.1 m 0.2,-0.5 c -0.1,0 -0.1,0.1 0,0 -0.2,0.1 -0.1,0.1 0,0 -0.1,0 -0.2,0 -0.2,0 0,-0.1 0,-0.1 0,-0.1 v -0.1 c 0,0 -0.1,-0.1 -0.2,-0.1 -0.1,0 -0.1,0.1 -0.1,0.2 0,0.1 0.1,0.1 0.1,0.1 0.1,0 0.1,0 0.1,0.1 0,0.1 0,0.1 -0.1,0.1 0.1,0 0.1,0 0.1,0.1 h -0.1 c 0,0 0,0 0,0.1 0,0 0,0 0.1,0 l 0.3,-0.1 c 0,-0.1 0,-0.1 0,-0.3 0,0.1 0,0.1 0,0 m 0.1,0.2 c -0.1,0 -0.1,0.1 -0.1,0.2 0,0 0.2,-0.1 0.3,-0.1 -0.1,0 -0.1,-0.1 -0.2,-0.1"
             id="path3261"
             inkscape:connector-curvature="0"
             style="fill:#ffffff" /></g><g
           transform="translate(80.4738,795.6606)"
           id="g3263"
           style="fill:#ffffff"><path
             d="m -76.2,105.8 c 0,-0.1 0.1,-0.1 0.2,-0.1 1,-0.3 2.2,0.5 2.8,0.3 -0.8,0.3 -1.3,-0.2 -2.1,0 0.5,0 0.9,0.1 1,0.2 -0.4,-0.2 -1.3,0.2 -1.8,-0.1 0,0 -0.1,0 -0.1,-0.1 -0.3,-0.1 -0.6,-0.2 -0.6,-0.5 0,-0.7 2.6,-0.1 2.6,-0.4 0,-0.2 -0.5,-0.4 -1.2,-0.4 -0.5,0 -1.4,0.3 -2.6,0.1 v 0 c 0.1,0.2 0.3,0.5 0.2,0.6 0.1,0 0.2,0.1 0.2,0.2 -0.1,0.1 -0.1,0.1 -0.2,0.1 0,0.1 0,0.1 0,0.1 0,0 0,0.1 -0.1,0.1 0,0 -0.1,0.1 -0.2,0.1 -0.1,0.1 -0.2,0 -0.2,0.1 h -0.1 c 0,0 -0.1,0 -0.1,-0.1 0,0 -0.1,0.1 -0.2,0.1 0,-0.1 -0.1,-0.2 0,-0.3 -0.1,0 -0.2,-0.2 -0.3,-0.2 0,-0.1 0.1,-0.1 0.1,-0.1 -0.1,-0.1 -0.1,-0.3 -0.2,-0.3 l 0.1,-0.1 c 0,-0.2 -0.1,-0.5 0,-0.6 -0.2,0.2 -0.4,0.5 -0.6,0.6 -0.2,0.1 -0.2,0.2 -0.2,0.3 0,0.1 0.1,0.2 0.1,0.4 v 0.1 c 0,0.1 -0.1,0.1 -0.2,0.1 l 0.1,-0.1 -0.1,-0.1 v -0.1 0 c 0,0 0,0 0,-0.1 v 0 c 0,0.1 -0.1,0.2 -0.2,0.2 0,0 0,0 -0.1,0 v 0 c 0,0.1 -0.1,0.2 -0.2,0.1 h 0.1 v -0.1 c 0,-0.1 0.1,-0.1 0.2,-0.1 v 0 0 0 c -0.2,0.1 -0.2,0 -0.3,-0.1 v -0.1 c -0.1,0 -0.1,-0.1 0,-0.2 v 0.1 0 0 c 0,0 0,0 0.1,0 v 0 c 0,0 0,0 0.1,0 v 0 c -0.1,-0.1 -0.1,-0.2 0.1,-0.2 v 0 c 0,-0.2 -0.3,-0.2 -0.3,0 -0.2,-0.2 0.1,-0.4 0.3,-0.3 v 0 c 0,0 0,-0.1 0.1,-0.1 v 0 0 c 0,-0.1 0,-0.1 0.1,-0.1 v 0.1 c 0,0 0,-0.3 0.3,-0.5 0.1,-0.2 0.2,-0.3 0.4,-0.3 0.1,-0.1 0.1,-0.2 0.1,-0.2 0,0 -0.4,0 -0.5,0 -0.1,0 -0.2,-0.1 -0.3,-0.1 v 0 0 c -0.1,0 -0.2,0 -0.3,0.1 0,0 0,0.1 -0.1,0.2 0,0.1 -0.1,0.1 -0.1,0.1 h -0.1 c -0.1,0.1 -0.2,0.1 -0.2,0 0,0 0.1,0 0.1,-0.1 v -0.1 c 0,0 0,-0.1 0.2,-0.2 v 0 h -0.1 c -0.1,0.1 -0.1,0.2 -0.2,0.1 0,0 0,0 -0.1,0 v 0 c -0.1,0 -0.2,-0.1 -0.2,-0.2 0,0 0,0.1 0.1,0.1 v -0.1 c 0,-0.1 0.1,-0.2 0.3,0 v 0 c -0.1,-0.1 -0.2,-0.2 -0.1,-0.3 v 0 0 c 0,-0.1 0.1,-0.2 0.2,-0.2 0,0 -0.1,0.1 -0.1,0.2 h 0.1 c 0.1,0 0.1,0.2 0.1,0.2 v 0 c 0,-0.1 0,-0.2 0.2,-0.2 0.1,0 0.2,0.1 0.2,0.2 v 0 l 0.1,-0.1 c 0,0 0.1,0 0.1,0.1 0,-0.1 0,-0.1 -0.1,-0.2 0,0 0.2,0.1 0.2,0.2 0,0 0,0 0,-0.1 v 0 c 0,0 0.1,0 0.3,0 v 0 -0.1 c 0,0 0,0.1 0.1,0.1 0,0 0,-0.1 0.1,-0.2 0,0.3 0.2,0.2 0.4,0.3 v 0 c 0,0 0,-0.1 -0.1,-0.1 0.1,0 0.3,0.1 0.3,0.2 0,0 0.2,0.2 0.2,0.6 h 0.1 c 0.3,0 0.4,0.2 0.7,0.2 -0.1,-0.1 -0.1,-0.3 -0.1,-0.4 0,-0.1 0.2,-0.3 0.3,-0.4 v 0 c -0.1,0 -0.2,0 -0.2,-0.1 -0.2,-0.1 -0.2,0.3 -0.5,0.2 0,0 0,0 -0.1,-0.1 -0.1,0 -0.2,-0.1 -0.2,-0.2 0,0 0.1,0.1 0.2,0.1 v 0 c 0,0 0,-0.1 0.1,-0.1 h 0.1 v 0 c 0,-0.1 -0.3,0.1 -0.2,-0.2 v -0.1 c 0,-0.1 0.1,-0.2 0.2,-0.1 l -0.1,0.1 h 0.1 v 0 0 0 c 0,0 0,0 0,-0.1 v -0.1 c 0,-0.1 0.1,-0.2 0.3,-0.1 0,0 -0.1,0 -0.1,0.1 h 0.1 v 0.1 0 c 0,0 0,0 0.1,0 v 0 c 0,0 0.1,-0.1 0.2,-0.1 0.2,0.1 0,0.2 0.2,0.2 h 0.1 c 0.1,0 0.2,-0.1 0.3,0 0,0.1 0,0.3 -0.1,0.4 -0.1,0 0.1,0.5 -0.3,0.8 0.2,0 0.8,-0.1 0.9,0 0.2,0 0.4,-0.2 0.4,-0.2 V 104 c -0.2,-0.1 -0.1,-0.1 -0.2,-0.2 v 0 c 0,0 -0.1,0.1 -0.2,0.2 -0.1,0 -0.1,0 -0.1,0 -0.1,0 -0.2,0 -0.2,-0.1 0,0 0.1,0 0.2,0 v 0 -0.1 0 0 0 0 c -0.1,0 -0.3,0 -0.2,-0.1 0,0 0,0 0,-0.1 -0.1,0 -0.1,-0.1 0,-0.2 0,0 0,0.1 0.1,0.1 0,0 0,0 0,-0.1 0,0 0.1,0.1 0.2,0.1 v 0 c -0.1,0 -0.2,-0.1 -0.1,-0.2 0,0 0,0 0,-0.1 0,-0.1 0,-0.2 0.1,-0.2 v 0.1 h 0.1 c 0.2,0.1 0.1,0.2 0.1,0.3 0.1,0.1 0.1,-0.1 0.3,0 v 0.1 0 0 c 0,0 0.1,-0.1 0.1,0 -0.1,0.1 0,0.1 0.1,0.2 v 0 c 0,0 0.1,0 0.2,0.1 -0.1,0 -0.3,0.1 -0.2,0.1 0.2,0.1 0.2,0.2 0.1,0.3 -0.1,0.2 -0.4,0.2 -0.4,0.4 0.1,0 0.2,0 0.3,0 0.9,0 1.5,0.2 1.4,0.5 0,0.6 -2.7,0 -2.7,0.4 0.4,0.2 0.5,0.3 0.7,0.3 m -1.9,0 c 0,0 0.2,-0.1 0.3,-0.1 -0.1,0 -0.1,-0.1 -0.2,-0.1 -0.1,0 -0.1,0.1 -0.1,0.2 m -0.2,0 c 0,-0.1 -0.1,-0.1 -0.2,-0.1 -0.1,0.1 0,0.1 -0.1,0.2 0.1,0 0.3,0 0.3,-0.1 m -0.2,-0.6 c 0,0.1 0,0.1 0,0 0.1,0.1 0.2,0.1 0.2,0.1 0,0.1 0,0.1 -0.1,0.1 0.1,0 0.1,0 0.1,0.1 h -0.1 v 0.1 c 0,0 0,0 0.1,0 l 0.2,-0.1 c 0,0 0,0 0,-0.1 v -0.1 c 0,0 0,0.1 -0.1,0.1 0,0 0,0 0,-0.1 -0.1,0 -0.1,0 -0.1,0 v -0.1 -0.1 c 0,-0.1 -0.1,-0.1 -0.2,-0.1 -0.1,0.1 -0.1,0.2 0,0.2"
             id="path3265"
             inkscape:connector-curvature="0"
             style="fill:#ffffff" /></g><g
           transform="translate(65.8166,811.4315)"
           id="g3267"
           style="fill:#ffffff"><path
             d="m -104.4,136.2 c 0,0.4 -0.3,0.6 -0.6,0.6 -0.4,0 -0.6,-0.3 -0.6,-0.6 0,-0.3 0.3,-0.6 0.6,-0.6 0.3,0 0.6,0.3 0.6,0.6"
             id="path3269"
             inkscape:connector-curvature="0"
             style="fill:#ffffff" /></g><g
           transform="translate(65.7403,812.0159)"
           id="g3271"
           style="fill:#ffffff"><path
             d="m -104.6,137.4 c 0,0.4 -0.3,0.6 -0.6,0.6 -0.4,0 -0.6,-0.3 -0.6,-0.6 0,-0.3 0.3,-0.6 0.6,-0.6 0.4,-0.1 0.6,0.2 0.6,0.6"
             id="path3273"
             inkscape:connector-curvature="0"
             style="fill:#ffffff" /></g><g
           transform="translate(65.8646,812.2751)"
           id="g3275"
           style="fill:#ffffff"><path
             d="m -104.3,137.9 c 0.4,0 0.6,0.3 0.6,0.6 0,0.3 -0.3,0.6 -0.6,0.6 -0.4,0 -0.6,-0.3 -0.6,-0.6 0,-0.3 0.2,-0.6 0.6,-0.6"
             id="path3277"
             inkscape:connector-curvature="0"
             style="fill:#ffffff" /></g><g
           transform="translate(66.4486,812.3138)"
           id="g3279"
           style="fill:#ffffff"><path
             d="m -103.2,137.9 c 0.4,0 0.6,0.3 0.6,0.6 0,0.4 -0.3,0.6 -0.6,0.6 -0.4,0 -0.6,-0.3 -0.6,-0.6 0,-0.3 0.3,-0.6 0.6,-0.6"
             id="path3281"
             inkscape:connector-curvature="0"
             style="fill:#ffffff" /></g><g
           transform="translate(68.9408,812.7192)"
           id="g3283"
           style="fill:#ffffff"><path
             d="m -98.4,138.7 c 0.3,-0.2 0.7,-0.2 0.9,0 0.2,0.2 0.2,0.7 0,0.9 -0.3,0.3 -0.7,0.3 -0.9,0 -0.2,-0.2 -0.2,-0.6 0,-0.9"
             id="path3285"
             inkscape:connector-curvature="0"
             style="fill:#ffffff" /></g><g
           transform="translate(68.8917,813.1867)"
           id="g3287"
           style="fill:#ffffff"><path
             d="m -98.5,139.6 c 0.3,0.2 0.3,0.7 0,0.9 -0.3,0.2 -0.7,0.3 -0.9,0 -0.3,-0.2 -0.2,-0.7 0,-0.9 0.3,-0.2 0.7,-0.2 0.9,0"
             id="path3289"
             inkscape:connector-curvature="0"
             style="fill:#ffffff" /></g><g
           transform="translate(68.3103,813.2815)"
           id="g3291"
           style="fill:#ffffff"><path
             d="m -99.6,139.8 c 0.2,0.2 0.2,0.7 0,0.9 -0.3,0.3 -0.7,0.3 -0.9,0 -0.2,-0.3 -0.2,-0.7 0,-0.9 0.2,-0.3 0.6,-0.3 0.9,0"
             id="path3293"
             inkscape:connector-curvature="0"
             style="fill:#ffffff" /></g><g
           transform="translate(67.8139,812.913)"
           id="g3295"
           style="fill:#ffffff"><path
             d="m -100.6,139.1 c 0.2,0.2 0.2,0.7 0,0.9 -0.3,0.2 -0.7,0.2 -0.9,0 -0.2,-0.3 -0.2,-0.7 0,-0.9 0.3,-0.3 0.7,-0.3 0.9,0"
             id="path3297"
             inkscape:connector-curvature="0"
             style="fill:#ffffff" /></g><g
           transform="translate(66.415,813.2148)"
           id="g3299"
           style="fill:#ffffff"><path
             d="m -103.3,139.7 0.5,-1.1 0.6,0.8 h 0.1 c 0.1,-0.4 0.1,-1 0.1,-1.4 0,-0.5 0.4,-0.8 0.8,-0.8 0.4,0 0.8,0.4 0.8,0.8 0,0.3 -0.2,0.6 -0.4,0.7 -0.3,0.2 -0.7,0.6 -0.9,0.8 v 0.1 l 1.1,-0.1 -0.4,1.2 -0.8,-0.7 v 0 l -0.1,1.2 -1.1,-0.4 0.7,-0.9 v -0.1 z"
             id="path3301"
             inkscape:connector-curvature="0"
             style="fill:#ffffff" /></g><g
           transform="translate(68.955,812.5322)"
           id="g3303"
           style="fill:#ffffff"><path
             d="m -98.4,138.3 c 0.2,-0.4 0.3,-0.6 0.4,-0.9 -0.2,0.1 -0.4,0.3 -0.7,0.6 l 0.1,-1.5 c 0.2,0.3 0.3,0.4 0.5,0.5 -0.1,-1 -0.4,-1.4 -0.8,-1.4 -0.4,-0.1 -0.7,0.2 -0.8,0.5 -0.1,0.4 0.3,0.7 0.7,0.3 0.1,0.9 -0.7,0.9 -1,0.5 0.4,0.9 0.2,1.4 -0.5,1.9 -0.5,-0.8 -0.3,-1.3 0.3,-2 -0.6,0.3 -1.1,-0.2 -0.6,-0.9 0.1,0.6 0.6,0.4 0.7,0 0.1,-0.4 -0.3,-0.9 -0.9,-1.1 -0.9,-0.3 -1.2,0.3 -1.4,0.8 0.2,0.1 0.7,0.1 1.2,-0.3 l -0.4,1.5 c -0.2,-0.5 -0.5,-0.7 -0.9,-0.9 0,0.4 0.3,1.3 0.3,1.3 l -1.8,-0.7 c 0,0 0.8,-0.4 1.1,-0.7 -0.4,-0.1 -0.7,-0.2 -1.2,0 l 0.7,-1.4 c 0.1,0.6 0.4,1 0.7,1 0.2,-0.5 0.4,-1.1 -0.5,-1.6 -0.6,-0.3 -1.2,-0.2 -1.4,0.1 -0.2,0.4 0,0.9 0.5,0.5 -0.1,0.8 -0.8,0.8 -1,0.2 0,0.9 -0.2,1.4 -1.1,1.6 -0.2,-0.9 0.1,-1.4 0.9,-1.7 -0.5,0.1 -1,-0.4 -0.3,-1 0,0.5 0.5,0.6 0.7,0.2 0.2,-0.3 0.1,-0.7 -0.2,-0.9 -0.3,-0.2 -0.8,-0.2 -1.6,0.5 0.2,0.1 0.4,0.1 0.8,0 l -0.9,1.2 c 0.1,-0.4 0,-0.7 -0.1,-0.9 -0.2,0.2 -0.3,0.4 -0.4,0.9 l -0.7,-0.6 c 0.7,-0.4 1.5,-1.1 2.4,-2.4 1,0.6 2.8,1.5 3.9,2 1.1,0.5 3,1.1 4.2,1.3 -0.2,1.6 -0.1,2.6 0.1,3.4 z"
             id="path3305"
             inkscape:connector-curvature="0"
             style="fill:#ffffff" /></g><g
           transform="translate(73.7679,798.5743)"
           id="g3307"
           style="fill:#ffffff"><path
             d="m -89.1,111.5 c 0.3,0.7 -1,1.5 -1.2,2.4 -0.2,0.9 0,1.9 -1.2,3.2 -1.1,1.3 -4.9,5.4 -6.1,6.7 0.3,0 1,0.2 1.7,-0.5 0.4,-0.4 1.2,-1.2 2,-1.9 1,2.6 2.3,4.5 4.1,6.6 0.2,0.3 0.5,0.5 0.7,0.8 -0.7,-0.2 -1.7,-0.4 -2.3,-0.8 0,1.1 0,2 -0.7,2.8 0.3,1.6 0,3.5 -3.5,5.8 1.8,-0.4 2.9,-2.1 4.3,-0.8 -1.2,0 -1.3,2.7 -5.8,5 1.7,0 3,-2.7 5,-1.2 -1.9,0.2 -2.5,3.5 -5.9,4.6 1.2,-0.1 2.4,-0.7 3.4,0.7 -1.2,-0.3 -1.9,0.8 -3.1,0.9 0.5,1.5 0.4,2.4 -0.1,3.4 -0.9,-0.1 -1.8,-0.3 -2.4,-0.9 -0.1,0.8 -0.9,0.8 -1.7,0.8 0,-0.3 0.2,-0.8 -0.2,-0.9 -0.6,-0.1 -2.6,-0.7 -4.2,-1.3 -1.5,-0.6 -3.3,-1.7 -3.8,-2.1 -0.3,-0.2 -0.6,0.3 -0.8,0.5 -0.5,-0.5 -1.1,-1.1 -0.7,-1.7 -0.9,-0.1 -1.8,-0.3 -2.6,-0.9 0,-1 0.8,-2 2.1,-2.5 -2.1,-2.1 -0.2,-4 -2,-5.8 2.6,-0.1 2.1,3.5 3.4,4 -0.1,-2.5 -1.5,-3 -1.5,-5.7 0,-1.5 0.9,-3 0.1,-4 2.2,0.6 1.6,5.4 2.9,6.8 0.2,-0.8 0.1,-1.6 -0.2,-2.4 -0.8,-2.2 0.1,-5.3 -1.1,-6.2 2.2,0.2 2.5,3.7 4.3,5 -1.6,-3.2 -3.1,-9.9 -5.5,-13.3 -3.7,-5.1 -6,-11.2 -9.4,-11.2 -1.5,0 -2.7,0.9 -2.7,2.8 0,5.7 9.9,9.7 9.9,15.8 0,2.7 -2.2,3.8 -3.6,3.8 -0.9,0 -2.1,-0.5 -3,-1.2 -0.4,0.2 -0.8,0.3 -1.2,0.3 -3.5,0 -2.6,-6.3 -5.6,-6.2 1.2,-0.7 3.3,0.6 4.5,2.4 -0.5,-4.1 -6.4,-3 -5.9,-7.9 0.8,3.8 10.1,3.3 10.1,9.1 0,0.7 -0.3,1.2 -0.8,1.6 0.7,0.4 1.4,0.6 2,0.6 1.1,0 2.1,-0.8 2.1,-2.5 0,-5.1 -9.8,-9.5 -9.8,-15.8 0,-1.1 0.3,-2 0.8,-2.6 -0.7,-0.3 -1.4,-0.2 -2,0.5 -0.1,-1.6 2.3,-2.6 3.7,-1.8 0.3,-0.1 0.7,-0.2 1,-0.2 -0.4,-1.2 -1.9,-1.6 -2.7,-1.5 2.4,-1.9 6.6,0.6 6.4,2.7 1.9,1.5 3.1,4.2 4.5,5.9 -0.1,-0.4 -0.2,-0.8 -0.2,-1.2 -1.4,-2.6 -2.7,-4.8 -3.1,-8.2 -0.3,-2.8 -1.7,-5.4 -3.7,-5.4 -0.4,0 -1.1,0.6 -1.5,0.3 -0.6,-0.5 0,-1.1 0,-1.6 0,-0.8 -1.5,-1.6 -1.5,-4.1 0,-1.1 0.6,-2.4 0.4,-3.2 0.6,0.3 1.5,1.4 1.8,2.7 0.7,-3.3 -1.4,-3.1 0.1,-6 0.2,1 1.1,1.4 1.7,1 0.6,-0.4 0.3,-0.7 -0.1,-1.1 -0.4,-0.4 -0.8,-2.6 1.1,-2.5 -0.4,0.2 -0.4,0.8 0.6,1 1.4,0.3 1.8,-0.4 3.2,-0.4 0.9,0 1.1,1.2 1.9,1.2 0.7,0 0.7,-0.6 0.5,-1 1.1,0.3 1.4,0.9 1.4,1.6 0,0.6 -0.5,1 -0.1,1.3 0.4,0.2 1.7,0 1.2,-1.1 0.7,0.1 1.1,0.6 1.1,1.5 0,0.8 -1,1.3 -1.8,1.2 -0.2,0.5 -0.9,0.8 -1.6,0.8 -1.6,0 -1.4,-1.3 -2.5,-1.3 -1.8,0 -3.5,2.3 -3.5,6.2 0,2.1 2.2,2.6 3.8,3.3 1.6,0.7 4.3,2.4 6,5.2 1.3,2.2 1.3,4.6 1.2,7.4 2.2,-1.3 2.5,-3.1 2.5,-4.4 0,-1.7 -0.9,-2.4 -1.6,-2.7 -0.6,-0.3 -0.8,-0.2 -0.9,-0.5 -0.1,-0.4 0.2,-0.7 0.5,-0.8 0.8,-0.4 0.6,-1.2 0.9,-2 0.2,-0.8 1,-2.1 2.2,-3.1 0.1,0.5 0.1,1.3 0,2.4 1.7,-0.8 0.3,-4.3 3.7,-4.3 -0.6,0.4 -0.4,1.2 -0.1,1.4 0.3,0.2 0.8,-0.2 1.4,-1.1 0.6,-0.9 0.5,-0.8 2,-0.8 1.6,0 0.9,0.5 1.7,0.5 0.8,0 0.8,-1 0.3,-1.7 1.4,0.4 1.8,1.5 1.3,2.6 1.2,0.7 1.9,-0.3 2.1,-1 1.2,1.2 0,2.7 -1,2.8 0,0.4 -0.4,0.9 -0.9,1 -0.5,0 -1,0.1 -1.6,0 -0.6,0 -0.9,-0.9 -1.6,-0.9 -2.1,0 -6.2,3.8 -6.2,5.4 0,1.6 3.9,2.6 3.9,5.1 0,3.3 -3.2,4.4 -6,6.5 1,1.1 3.8,1.4 5.4,0.6 0.2,0.9 0.8,0.7 1,2.3 0.6,-1.4 0,-2.6 0.6,-3.2 0.5,0.7 1.6,0.6 1.6,2.3 0.4,-1.1 -0.5,-2.7 0.4,-3.5 0.1,0.9 0.7,1.1 1,1.1 0.3,0 0.6,-0.2 0.6,-0.8 0,-1.3 -1.6,-0.7 -1.6,-2.2 0,-0.6 0.8,-0.8 0.8,-1.2 0,-0.4 -0.6,-1 -1.4,-0.5 0.3,-0.6 0.8,-1.1 1.5,-1.1 0.7,0 1.5,0.6 1.8,1.3 0.4,-0.9 0.1,-2 -0.6,-2.1 0.7,-0.4 2.4,0 2.2,2.2 1,-0.2 1.5,-0.8 0.9,-2 0.8,0.2 1.5,0.6 1.5,1.4 0,0.6 -0.7,0.8 -0.4,1.7 m -18.6,29.7 c -0.9,-0.1 -0.9,0.8 -2.5,1.2 1.1,0.2 2.5,0.8 3.8,1.3 0.3,-1.1 -0.2,-2.4 -1.3,-2.5 m 6.4,-6.7 c -1.2,-0.5 -2.1,0.5 -2.3,1.2 -0.2,0.7 -0.4,1.3 -0.1,1.5 0.5,0.5 0.7,0.9 0.4,1.5 -0.3,0.7 -1.1,0.4 -1.9,0.2 0.4,0.7 0.4,1.2 -0.1,1.1 -0.6,-0.1 -0.6,-1.1 -1,-0.9 -0.3,0.1 -0.1,0.7 -0.1,1 0,0.4 0.3,0.6 0.7,0.8 l 3.3,1.3 c 0.4,0.2 0.7,0.2 1,-0.1 0.2,-0.2 0.8,-0.5 0.6,-0.8 -0.2,-0.3 -0.9,0.4 -1.4,0 -0.4,-0.3 -0.1,-0.6 0.7,-0.9 -0.7,-0.4 -1.5,-0.7 -1.2,-1.5 0.2,-0.6 0.6,-0.8 1.3,-0.8 0.4,0 0.6,-0.5 1,-1.2 0.2,-0.7 0.3,-1.9 -0.9,-2.4 m 0.2,9.3 c -0.9,-0.7 -2.1,-0.1 -2.6,0.9 1.2,0.5 2.7,1.1 3.6,1.7 -0.9,-1.4 -0.3,-2 -1,-2.6"
             id="path3309"
             inkscape:connector-curvature="0"
             style="fill:#ffffff" /></g><g
           transform="translate(95.226,793.1646)"
           id="g3311"
           style="fill:#ffffff"><path
             d="m -47.7,101 c 0,-1.5 1.2,-2.8 2.8,-2.8 1.5,0 2.8,1.2 2.8,2.8 0,1.6 -1.2,2.8 -2.8,2.8 -1.6,0 -2.8,-1.2 -2.8,-2.8 m 0.7,0 c 0,1.1 0.9,2.1 2.1,2.1 1.1,0 2.1,-0.9 2.1,-2.1 0,-1.2 -1,-2 -2.2,-2 -1.1,0 -2,0.9 -2,2"
             id="path3313"
             inkscape:connector-curvature="0"
             style="fill:#ffffff" /></g><g
           transform="translate(91.6944,792.2925)"
           id="g3315"
           style="fill:#ffffff"><path
             d="m -54.5,99.4 c -0.4,-0.3 -0.6,-0.6 -0.7,-1 -0.1,-0.5 0.1,-1 0.4,-1.4 0.3,-0.4 0.8,-0.6 1.4,-0.7 0.6,-0.1 1.1,0 1.6,0.2 0.5,0.3 0.8,0.7 0.9,1.2 0.2,1 -0.6,1.9 -1.8,2.1 -0.7,0 -1.4,-0.1 -1.8,-0.4 m 1.2,-2.5 c -0.8,0.1 -1.3,0.7 -1.2,1.3 0.1,0.3 0.2,0.5 0.4,0.6 0.3,0.2 0.8,0.3 1.2,0.2 0.7,-0.1 1.3,-0.6 1.3,-1.2 v -0.1 c -0.2,-0.6 -0.9,-1 -1.7,-0.8"
             id="path3317"
             inkscape:connector-curvature="0"
             style="fill:#ffffff" /></g><g
           transform="translate(86.4812,805.5724)"
           id="g3319"
           style="fill:#ffffff"><path
             d="m -64.6,124.9 c -0.9,-0.7 -1.1,-1.8 -0.6,-2.5 v 0 c 0.6,-0.7 1.7,-0.7 2.6,-0.1 0.5,0.4 0.8,0.9 0.8,1.4 0,0.4 0,0.8 -0.3,1.1 -0.2,0.3 -0.6,0.5 -1,0.5 -0.4,0.2 -1,0 -1.5,-0.4 m -0.1,-1.6 c 0,0.4 0.2,0.8 0.6,1.1 0.3,0.2 0.7,0.4 1,0.3 0.2,0 0.4,-0.1 0.5,-0.3 0.1,-0.2 0.2,-0.4 0.1,-0.6 0,-0.3 -0.3,-0.7 -0.6,-0.9 -0.5,-0.4 -1.3,-0.4 -1.6,0 0,0.1 0,0.2 0,0.4"
             id="path3321"
             inkscape:connector-curvature="0"
             style="fill:#ffffff" /></g><g
           transform="translate(90.583,793.8654)"
           id="g3323"
           style="fill:#ffffff"><path
             d="m -56.7,102.4 c -0.4,-0.4 -0.7,-1 -0.7,-1.7 v -0.1 c 0,-0.6 0.2,-1.2 0.6,-1.6 0.3,-0.3 0.7,-0.5 1.1,-0.5 0.4,0 0.8,0.2 1.1,0.5 0.4,0.4 0.7,1 0.7,1.7 0,0.6 -0.2,1.1 -0.5,1.5 -0.3,0.4 -0.8,0.7 -1.3,0.7 -0.3,0 -0.7,-0.2 -1,-0.5 m 1.1,-3.2 v 0 c -0.3,0 -0.5,0.2 -0.6,0.3 -0.3,0.3 -0.4,0.7 -0.4,1.2 0,0.5 0.2,0.9 0.5,1.2 0.1,0.1 0.4,0.3 0.6,0.3 0.6,0 1.1,-0.7 1,-1.5 0,-0.5 -0.2,-0.9 -0.5,-1.2 -0.1,-0.1 -0.3,-0.3 -0.6,-0.3 m 0,-0.7 z"
             id="path3325"
             inkscape:connector-curvature="0"
             style="fill:#ffffff" /></g><g
           transform="translate(85.9512,801.5124)"
           id="g3327"
           style="fill:#ffffff"><path
             d="m -65.6,117.1 c -0.4,-0.1 -0.8,-0.4 -0.9,-0.8 -0.4,-0.9 0.1,-2 1.2,-2.5 0.6,-0.3 1.2,-0.3 1.8,-0.1 0.4,0.1 0.8,0.4 0.9,0.8 0.2,0.4 0.2,0.8 0,1.2 -0.2,0.5 -0.6,1 -1.2,1.3 -0.6,0.3 -1.3,0.3 -1.8,0.1 m 0.5,-2.7 c -0.7,0.3 -1.1,1.1 -0.8,1.6 0.1,0.3 0.4,0.4 0.5,0.4 0.4,0.1 0.8,0.1 1.2,-0.1 0.4,-0.2 0.7,-0.5 0.9,-0.9 0.1,-0.2 0.1,-0.4 0,-0.7 -0.1,-0.3 -0.4,-0.4 -0.5,-0.4 -0.4,-0.1 -0.8,-0.1 -1.3,0.1"
             id="path3329"
             inkscape:connector-curvature="0"
             style="fill:#ffffff" /></g><g
           transform="translate(95.898,802.4852)"
           id="g3331"
           style="fill:#ffffff"><path
             d="m -46.4,119 c 0.9,-2.5 2.7,-3.4 4.1,-2.7 -3.1,0.4 -0.6,5.6 -4.5,5.6 -0.2,0 -0.4,0 -0.6,-0.1 -0.7,0.7 -1.4,1 -2.6,1 -1.7,0 -4.5,-1.6 -4.5,-4.9 0,-7.1 8.3,-7.8 8.3,-14.1 0,-1.8 -1.4,-3 -3,-3 -1.4,0 -2.5,1.6 -3.7,4 -0.6,1.2 -1.8,2.8 -3,4.4 0.4,-0.3 0.8,-0.4 1.2,-0.4 0.4,0 0.9,0.1 1.2,0.4 0.3,0.3 0.5,0.7 0.5,1.1 v 0.1 c 0,0.6 -0.2,1.1 -0.7,1.6 -0.5,0.5 -1,0.8 -1.6,0.8 -0.4,0 -0.9,-0.1 -1.2,-0.4 -0.3,-0.3 -0.5,-0.7 -0.5,-1.1 v -0.1 c 0,-0.2 0,-0.5 0.1,-0.7 -1.8,2.3 -3.4,4.6 -3.4,5.9 0,1.1 0.8,2.1 1.7,3.2 l 0.3,-0.2 0.2,0.3 c 0.3,0.4 1,1.1 2.5,2.7 l 0.1,0.1 v 0 l 0.3,0.4 -0.9,0.7 c 0.2,0.5 0.4,1.1 0.6,1.8 0.3,-1.1 0.9,-1.9 1.7,-1.6 -0.5,1.2 0.5,2.8 -0.2,5.7 0.7,-1.1 1.7,-1.7 2.4,-1.5 -1.8,1.6 0.5,3.9 -1.8,7.4 0.8,-0.3 1.3,-0.1 1.7,0.3 -2.2,0.3 -1.2,3.1 -5,4.1 1,0.2 1.5,0.7 1.4,1.2 -1,-0.7 -1.9,1.4 -5.2,1.3 -0.2,1.2 -1.4,2.6 -2.7,3.2 0.2,-1 0,-1.8 -0.2,-2.6 l -10.8,10.6 c -0.3,0.3 -0.5,0.4 -0.6,0.3 -0.1,-0.1 -0.1,-0.3 0.1,-0.5 l 9.3,-11.7 c -0.7,-0.2 -1.4,-0.5 -2.1,-0.8 -0.5,-0.2 -0.8,-0.6 -0.8,-1.2 -1.7,-0.9 -3.2,-1.9 -4,-2.6 -0.6,-0.5 -1,-0.6 -0.5,-1.8 0.2,-0.4 -0.4,-1.5 0.9,-0.7 0.9,0.5 2.9,1.6 3.2,0.9 0.2,-0.4 -0.8,-0.8 -1.5,-1.1 -0.7,-0.3 -1.4,-0.8 -1.3,-1.1 0.1,-0.3 0.6,0 0.7,-0.3 0,-0.3 0.3,-0.6 0.5,-0.6 0.3,0 0.6,0.6 0.8,0.4 0.2,-0.2 -0.1,-1.5 -0.3,-1.8 1.1,0.1 1.7,1.1 1.8,1.9 0,0.8 0.2,1 0.4,1.1 0.2,0.1 0.4,-0.8 0.1,-1.4 0.6,0.1 1.1,0.9 1.1,2.2 0.3,0.2 0.6,0.4 0.8,0.4 0.4,0 1.1,-1 2.1,-1 1.8,0 2.9,1.5 3,2.2 0.1,0.6 0,1.1 -0.3,1.5 0.7,-0.5 0.9,-1.4 0.9,-2 0,-2.6 -4.6,-3.8 -6.5,-5.6 -0.1,-0.1 -0.1,-0.1 -0.2,-0.2 l -2.2,0.8 -0.1,-0.5 c 0,0 0,-0.1 -0.1,-0.4 -0.2,-0.7 -0.7,-2.3 -1,-3.2 l -0.1,-0.4 0.2,-0.1 c -1.3,-1.7 -2.3,-3.6 -2.5,-5.6 -0.5,0.5 -1,1 -1.6,1.4 0.1,0.2 0.1,0.4 0.1,0.6 0,0.6 -0.1,1.1 -0.5,1.5 -0.3,0.3 -0.6,0.5 -1,0.5 -0.4,0 -0.7,-0.1 -1.1,-0.4 -0.1,-0.1 -0.1,-0.1 -0.2,-0.2 -0.1,0.1 -0.2,0.1 -0.2,0.2 -0.7,0.6 -1.6,1.2 -2.1,1.8 -0.2,0.3 -0.5,0.4 -0.9,0.4 -0.2,0 -0.6,0 -1,0 -0.3,0 -0.5,-0.2 -0.9,-0.6 -0.2,-0.2 -0.7,-0.5 -1.2,-1 0.3,-0.3 0.5,-0.5 0.8,-0.8 0.1,-0.2 0.3,-0.3 0.4,-0.5 0.1,0.1 0.3,0.2 0.4,0.3 0.2,0.2 0.5,0.2 0.8,0.2 0.3,0 0.7,-0.2 0.9,-0.6 0.2,-0.3 1.9,-2.6 3.4,-4.2 -0.2,-0.1 -0.3,-0.1 -0.5,-0.2 -0.6,-0.3 -2,-0.2 -2.6,-0.2 -0.6,0.1 -0.7,0.2 -1.2,-0.5 -0.2,-0.3 -0.4,-0.6 -0.6,-0.8 -0.2,-0.3 -0.4,-0.5 0.1,-1.3 0.6,-1.1 2.2,-3.9 2.8,-5.2 0.5,-1.3 1.1,-1.5 2.2,-1.9 1,-0.4 2.7,-1.4 2.9,-1.6 l 0.1,1 c -0.3,0.3 -1.3,0.7 -1.6,0.8 -0.4,0.1 -0.5,0.3 0,0.3 0.4,0 1.6,-0.4 2.5,-0.8 -0.3,1 -1.2,2 -1.7,2.6 -0.7,0.2 -1.5,0.2 -1.8,0 0,-0.2 -0.1,-0.5 -0.4,-0.5 -0.3,0 -0.5,0.2 -0.4,0.5 0.1,0.3 0.5,0.4 0.4,0.9 -0.1,0.6 -0.8,0.6 -1.2,0.7 -0.6,0.9 -1.3,2.2 -1.7,2.7 -0.3,0.5 -0.1,0.8 0.1,1 0.5,0.4 1.6,-0.2 3.8,-0.4 0.8,0 1.7,-0.1 2.7,-0.1 0.3,-2.6 1.3,-5 4.9,-5.9 1.7,-0.4 3.5,-1.7 4.1,-3.4 -7.1,0.1 -8.2,-2.6 -8.2,-5.3 0,-3 2.5,-2.8 2.5,-5 0,-1.9 -6,-2.7 -7.8,-3 -1.5,-0.2 -2.4,-0.6 -3.1,-1.3 -0.7,-0.7 -1.5,-1.4 -2.8,-2.8 0,0 0.6,-0.1 1.1,-0.1 l 1,1.3 c 0.3,0.4 0.5,0.8 0.7,0.8 0.2,0 0.1,-0.4 -0.2,-0.8 L -81,89.3 c 3.5,-0.2 3.7,1.1 3.7,1.6 0,0.5 -0.9,0.9 -0.4,1.2 0.5,0.3 0.9,0.1 1.3,-0.4 0.4,-0.5 0.5,-0.9 1.5,-0.5 0,0 7.6,3.2 8.6,3.6 0.9,0.4 0.6,0.8 0.1,1.2 -0.6,0.5 -0.7,1.2 -0.7,2 0,2.3 1.4,3 3.9,3 0,-0.4 -0.1,-0.8 -0.1,-1.1 0,-3.6 5.5,-7.1 6.9,-7.1 0.7,0 1.5,0.5 1.6,-1.7 0,-1.6 0.4,-2.7 0.1,-4.6 -0.3,-1.8 -0.8,-2.1 -1.9,-2.9 -1.1,-0.8 -2.2,-3.2 -2.6,-3.7 0.5,-0.3 1,-0.4 1.4,0.8 0.3,1 0.7,1.7 1.2,1.9 -0.4,-1.1 -0.7,-2.7 -1,-3.2 1.4,-0.2 3.7,1 3.7,2 0,1 -0.8,0.9 -0.8,1.6 0,0.3 0.4,0.6 0.8,0.6 0.6,0 1,-0.4 1,-0.7 0.6,0.3 1,0.9 1,2.4 0,0.6 0,1.1 -0.1,1.7 0,-0.1 0.1,-0.2 0.1,-0.2 0.3,-0.4 0.7,-0.7 1.3,-0.7 0.5,0 1.1,0.1 1.5,0.4 0.5,0.4 0.9,0.9 1,1.5 0,0.1 0,0.2 0,0.4 0,0.3 -0.1,0.6 -0.3,0.9 -0.2,0.3 -0.6,0.6 -1,0.7 -0.6,0.1 -1.2,0 -1.8,-0.4 -0.5,-0.3 -0.9,-0.8 -1,-1.3 -0.1,2 -0.3,3.8 -0.2,4.6 0.1,1.1 0.1,1.6 -0.2,1.8 -0.4,0.2 -0.8,-0.5 -1.3,-0.5 -0.5,0 -2.1,1.5 -2.1,3 0,1.6 1.7,3.6 1.6,5.7 0,0.7 0.4,1 0.7,0.4 0.3,-0.7 0.8,-1.7 1.5,-2.5 -0.4,-2.7 2.5,-5.3 4.9,-3.4 -1.2,-0.2 -2,0.9 -2.6,2 0.2,0 0.4,-0.1 0.7,-0.1 0.1,0 0.2,0 0.4,0 0.9,-1.1 3.6,-1 4.3,1.7 -0.5,-0.6 -1.5,-1 -2.2,-0.9 1,0.8 1.6,2.1 1.6,3.5 0,6.8 -8.3,7.6 -8.3,13.8 0,2.3 2,3.8 3.4,3.8 0.5,0 0.9,-0.2 1.3,-0.4 -0.5,-0.5 -0.8,-1.4 -0.8,-2.4 0.2,-4.9 8.2,-4.7 8.3,-7 0.7,3.9 -5.2,2.8 -5.4,7.6 m -21.3,18.8 c 0.4,0.7 0,1.9 1.4,1.9 0.7,0 1.3,-0.7 2.1,-0.9 -1.4,-0.2 -2.6,-0.5 -3.5,-1 m -7.3,-15 c 0,-0.4 -0.2,-0.8 -0.4,-1 -0.1,-0.1 -0.3,-0.2 -0.5,-0.2 -0.5,0 -0.8,0.6 -0.8,1.2 v 0.1 c 0,0.4 0.2,0.8 0.4,1 0.1,0.1 0.3,0.2 0.5,0.2 0.2,0 0.4,-0.2 0.5,-0.3 0.2,-0.3 0.3,-0.6 0.3,-1 m 23.6,-34.4 c 0.1,0.4 0.4,0.8 0.7,1 0.4,0.3 0.8,0.4 1.2,0.3 0.2,0 0.4,-0.1 0.6,-0.4 v 0 c 0.2,-0.2 0.1,-0.5 0.1,-0.7 -0.1,-0.4 -0.4,-0.8 -0.7,-1 -0.7,-0.4 -1.5,-0.4 -1.8,0.1 -0.2,0.3 -0.1,0.5 -0.1,0.7 m -5,22.8 c 0,0.2 0.1,0.4 0.3,0.6 0.2,0.2 0.5,0.2 0.6,0.2 0.4,0 0.8,-0.2 1.1,-0.6 0.3,-0.3 0.5,-0.8 0.5,-1.2 0,-0.2 -0.1,-0.4 -0.3,-0.6 v 0 c -0.2,-0.2 -0.5,-0.2 -0.6,-0.2 -0.4,0 -0.8,0.2 -1.1,0.6 -0.3,0.4 -0.5,0.8 -0.5,1.2 m -13.5,15.4 c 0.4,1.2 1.1,3.6 1.1,3.6 l 1.3,-0.5 c -0.4,-0.1 -0.8,-0.5 -1.2,-0.9 0.3,-0.1 0.8,-0.1 1.1,0.1 l -0.5,-1.3 c -0.1,0.2 -0.5,0.7 -0.8,0.7 -0.3,-1 0.4,-1.4 0.8,-1.6 0.8,-0.4 1.3,-0.5 1.5,-0.1 0.2,0.4 -0.3,1 -0.9,0.8 -0.1,0.7 0.3,1 0.7,1 0.3,0 0.6,-0.3 0.7,-0.7 0,1.1 0.4,1.9 1.4,2.2 0.4,-1 0.1,-1.7 -0.7,-2.5 0.4,0.2 0.9,0.1 1.1,-0.1 0.2,-0.4 0.2,-0.9 -0.4,-1.2 -0.1,0.7 -0.9,0.7 -1.2,0.3 -0.2,-0.4 0.1,-0.9 0.8,-1.3 0.8,-0.5 1.5,-0.2 1.9,0.5 -0.3,0.1 -0.7,0 -1.2,-0.2 l 0.8,1.6 c 0,-0.2 0.2,-0.6 0.5,-0.9 0.1,0.4 0.3,1 0,1.5 l 1.8,-1 c -0.6,-0.1 -1.1,-0.5 -1.3,-0.8 0.4,-0.2 0.8,-0.1 1.1,0 l -0.9,-1.5 c 0,0.5 -0.2,0.9 -0.4,1.1 -0.4,-0.7 -0.3,-1.4 0.5,-1.9 0.7,-0.4 1.2,-0.5 1.5,-0.1 0.3,0.4 -0.2,1.1 -0.8,0.9 0,0.7 0.4,1 0.8,1 0.4,0 0.6,-0.4 0.7,-0.9 0.3,1.1 0.7,1.7 1.8,1.9 0.2,-1 -0.3,-1.8 -1.2,-2.3 0.4,0.1 0.8,0.1 1,-0.2 0.2,-0.4 0.1,-0.9 -0.5,-1.1 -0.1,0.7 -0.9,0.8 -1.1,0.4 -0.2,-0.4 0.1,-0.8 0.8,-1.2 0.4,-0.3 1.1,-0.6 1.8,0.1 -0.2,0.3 -0.8,0.4 -1.1,0.4 l 0.8,1.1 c 0,-0.4 0.2,-0.8 0.5,-1 0.1,0.5 0.2,1.1 0.1,1.5 l 1.1,-0.8 c 0,0 -1.7,-1.8 -2.5,-2.8 z m 11.2,-28.2 c -0.5,-0.6 -1.2,-0.9 -1.7,-0.5 -0.5,0.4 -0.5,1.2 -0.1,1.8 0.4,0.6 1.2,0.9 1.7,0.5 0.5,-0.4 0.5,-1.2 0.1,-1.8 m 3.2,5.1 c -0.5,-0.6 -1.2,-0.9 -1.7,-0.5 -0.5,0.4 -0.5,1.2 -0.1,1.8 0.5,0.6 1.2,0.9 1.7,0.5 0.5,-0.3 0.6,-1.1 0.1,-1.8"
             id="path3333"
             inkscape:connector-curvature="0"
             style="fill:#ffffff" /></g></g></g></g><style
     id="style960"
     type="text/css">
	.st0{fill:#FFFFFF;}
</style></svg>