<?xml version="1.0" encoding="UTF-8" standalone="no"?>
<!-- Created with Inkscape (http://www.inkscape.org/) -->

<svg xmlns:dc="http://purl.org/dc/elements/1.1/" xmlns:cc="http://creativecommons.org/ns#" xmlns:rdf="http://www.w3.org/1999/02/22-rdf-syntax-ns#" xmlns:svg="http://www.w3.org/2000/svg" xmlns="http://www.w3.org/2000/svg" xmlns:sodipodi="http://sodipodi.sourceforge.net/DTD/sodipodi-0.dtd" xmlns:inkscape="http://www.inkscape.org/namespaces/inkscape" width="250" height="91" viewBox="0 0 250 91" id="svg2" version="1.1" inkscape:version="0.91 r13725" sodipodi:docname="calderdale.svg">
  <defs id="defs4" />
  <sodipodi:namedview id="base" pagecolor="#ffffff" bordercolor="#666666" borderopacity="1.0" inkscape:pageopacity="0.0" inkscape:pageshadow="2" inkscape:zoom="1.9799" inkscape:cx="81.884" inkscape:cy="28.488" inkscape:document-units="px" inkscape:current-layer="layer1" showgrid="true" inkscape:window-width="1280" inkscape:window-height="752" inkscape:window-x="0" inkscape:window-y="0" inkscape:window-maximized="1" units="px">
    <inkscape:grid type="xygrid" id="grid5735" />
  </sodipodi:namedview>
  <metadata id="metadata7">
    <rdf:RDF>
      <cc:Work rdf:about="">
        <dc:format>image/svg+xml</dc:format>
        <dc:type rdf:resource="http://purl.org/dc/dcmitype/StillImage" />
        <dc:title></dc:title>
      </cc:Work>
    </rdf:RDF>
  </metadata>
  <g inkscape:label="Layer 1" inkscape:groupmode="layer" id="layer1" transform="translate(0,-961.4)">
    <rect style="opacity:0.001;fill:#ffffff;fill-opacity:1;stroke:none;stroke-width:2.5;stroke-linecap:round;stroke-linejoin:round;stroke-miterlimit:4;stroke-dasharray:none;stroke-dashoffset:0;stroke-opacity:1" id="rect4175" width="250" height="91" x="0" y="961.4" />
    <path style="fill:#ffffff;fill-opacity:1" d="" id="path4239" inkscape:connector-curvature="0" />
    <path inkscape:connector-curvature="0" id="path4382" d="m 128.7,1041.7 c -2.3,-0.3 -6.24,-1.1 -8.88,-1.8 -2.72,-0.7 -9.35,-2.9 -10.58,-3.5 -0.19,-0.1 -0.76,-0.3 -1.27,-0.5 -3.67,-1.5 -3.95,-1.6 -9.052,-4.1 -4.51,-2.2 -5.498,-2.7 -6.852,-3.2 -0.513,-0.2 -1.276,-0.5 -1.695,-0.7 -5.438,-2.2 -13.272,-4.4 -18.654,-5.3 -1.422,-0.2 -2.96,-0.5 -3.425,-0.6 -2.437,-0.5 -8.143,-0.9 -12.495,-1.1 -3.88,-0.1 -11.82,0.3 -14.32,0.7 -2.05,0.4 -5.22,0.9 -5.48,0.9 -0.5,0 -0.27,-0.2 0.94,-1 1.19,-0.8 6.59,-3.5 8.09,-4.2 3.46,-1.4 7.49,-2.9 8.71,-3.3 0.28,-0.1 1.31,-0.4 2.29,-0.6 3.077,-1 3.913,-1.2 6.34,-1.7 1.302,-0.2 2.672,-0.5 3.033,-0.6 2.735,-0.7 13.074,-1.2 17.106,-0.8 2.485,0.2 6.307,0.8 6.767,1 0.183,0.1 0.795,0.2 1.355,0.3 1.124,0.3 8.17,2.3 8.96,2.7 0.29,0.1 1.012,0.4 1.612,0.6 0.61,0.2 1.35,0.5 1.65,0.6 0.3,0.1 1.02,0.4 1.61,0.6 1.02,0.4 5.1,2.2 6.13,2.7 0.28,0.2 1.08,0.5 1.78,0.9 0.7,0.3 1.92,0.9 2.71,1.4 0.79,0.4 1.51,0.7 1.6,0.8 0.1,0 0.7,0.3 1.36,0.6 2.57,1.2 3.29,1.5 3.75,1.6 0.27,0.1 0.55,0.2 0.65,0.3 0.48,0.3 5.81,2.2 8.63,3 0.74,0.2 1.65,0.5 2.03,0.6 0.61,0.2 2.61,0.7 5.41,1.3 2.43,0.6 7.23,1.4 10.66,1.7 1.98,0.3 4,0.4 9.22,0.4 6.45,0 9.21,-0.2 11.93,-0.7 0.56,-0.1 1.17,-0.2 1.35,-0.2 1.45,-0.2 4.32,-0.7 4.72,-0.8 2.09,-0.5 -3.88,3 -8.78,5.2 -0.47,0.1 -1.15,0.4 -1.52,0.6 -2.54,1.2 -7.65,3 -12.27,4.3 -2.06,0.6 -7.53,1.5 -10.57,1.9 -2.81,0.3 -12.08,0.3 -14.55,0 z m 23.52,-16.9 c -1.6,-0.4 -2.75,-1.1 -3.85,-2.2 -1.44,-1.4 -1.42,-1.4 -1.92,-3.1 -0.35,-1.2 -0.42,-1.7 -0.35,-2.7 0.33,-4.5 3.45,-7.4 8.31,-7.8 1.51,-0.1 3.38,0.2 4.53,0.6 0.45,0.2 0.47,0.2 0.47,1.6 0,0.7 0,1.3 -0.1,1.3 -0.1,0 -0.44,-0.2 -0.89,-0.4 -1.23,-0.6 -2.29,-0.8 -3.69,-0.7 -2.1,0.1 -3.67,1.1 -4.75,2.9 -0.42,0.7 -0.49,1.1 -0.55,2.4 -0.1,1.2 0,1.6 0.3,2.5 0.44,1.1 1.72,2.5 2.79,3 1.62,0.7 3.89,0.7 6.37,0.1 0.64,-0.1 1.16,-0.2 1.16,-0.1 0,0.3 -1.39,2.5 -1.65,2.6 -0.58,0.2 -5.33,0.2 -6.21,0 z m 12.31,0.1 c -1.61,-0.3 -2.82,-1.2 -3.62,-2.8 -0.35,-0.8 -0.4,-1.1 -0.4,-2.7 0,-2.1 0.37,-3.1 1.52,-4.1 1.15,-1.1 2,-1.5 3.58,-1.6 2.38,-0.1 4.1,0.8 5.18,2.8 0.41,0.8 0.63,2.6 0.46,3.8 -0.47,3.3 -3.11,5.2 -6.72,4.6 z m 2.1,-2.1 c 0.7,-0.3 1.07,-0.7 1.43,-1.7 0.64,-1.7 0.27,-3.9 -0.81,-4.9 -0.55,-0.5 -0.71,-0.5 -1.41,-0.4 -0.96,0 -1.54,0.4 -2.06,1.3 -0.31,0.6 -0.38,1 -0.39,2.2 0,1.9 0.42,2.8 1.48,3.3 0.82,0.4 1.11,0.5 1.76,0.2 z m 8.91,2.1 c -1.06,-0.2 -1.95,-0.9 -2.39,-1.8 -0.37,-0.7 -0.38,-0.9 -0.34,-5 l 0.1,-4.2 1.36,0 1.35,0 0.1,4 c 0.1,4 0.1,4 0.5,4.4 0.35,0.4 0.59,0.4 1.36,0.4 0.51,0 1.29,-0.1 1.73,-0.3 l 0.8,-0.3 0.1,-4.1 0.1,-4.1 1.01,0 c 0.56,-0.1 1.19,0 1.41,0 l 0.39,0.1 0,5.3 -0.1,5.3 -1.4,0.1 -1.4,0 0,-0.8 c 0,-0.7 -0.1,-0.8 -0.26,-0.5 -0.14,0.1 -0.21,0.3 -0.16,0.4 0.1,0.2 0.1,0.2 0,0.2 -0.1,-0.1 -0.27,0 -0.47,0.3 -0.27,0.3 -0.64,0.4 -1.38,0.6 -1.15,0.1 -1.24,0.1 -2.23,-0.1 z m 25.75,0 c -2.12,-0.2 -3.98,-1.7 -4.52,-3.4 -0.44,-1.4 -0.49,-2.1 -0.29,-3.1 0.41,-2 1.32,-3.3 2.93,-4.1 0.98,-0.5 1.13,-0.5 2.98,-0.5 1.55,0 2.06,0 2.49,0.3 0.53,0.3 0.55,0.3 0.55,1.4 0,0.6 -0.1,1.1 -0.17,1.1 -0.1,0 -0.49,-0.2 -0.88,-0.4 -1.05,-0.6 -2.5,-0.5 -3.46,0.1 -1.8,1.1 -2.05,4 -0.51,5.6 0.62,0.7 2.01,1.1 2.96,1 0.88,-0.1 2.13,-0.4 2.26,-0.6 0.1,-0.1 0.14,-0.1 0.14,0.1 0,0.4 -1.17,2.3 -1.49,2.4 -0.47,0.1 -2.45,0.2 -2.99,0.1 z m -15.11,-0.2 -1.23,0 0.1,-5.4 0.1,-5.4 1.31,0 1.32,0 0,0.8 c 0,0.9 0,0.9 0.3,0.6 0.17,-0.2 0.45,-0.6 0.62,-0.9 0.34,-0.6 0.94,-0.7 2.61,-0.7 1.76,0 3.19,0.9 3.56,2.3 0.1,0.4 0.18,2.4 0.18,4.6 l 0,4 -1.33,0.1 -1.36,0 -0.1,-3.7 c -0.1,-4.1 -0.11,-4.3 -0.92,-4.9 -0.8,-0.5 -3,-0.2 -3.49,0.6 -0.1,0 -0.13,1.9 -0.13,4 0,2.2 -0.1,4 -0.13,4 -0.1,0.1 -0.68,0.1 -1.36,0 z m 21.57,0 -1.3,0 0.1,-5.4 0.1,-5.4 1.35,0 1.35,0 0.1,5.3 c 0,2.9 0,5.3 -0.1,5.4 -0.1,0.1 -0.57,0.2 -1.45,0.1 z m 3.64,-7.6 0,-7.7 1.35,0 1.36,0 0,7.6 0.1,7.7 -1.44,0 -1.44,0 0,-7.6 z m -4.57,-5.7 c -0.54,-0.5 -0.51,-1.5 0.1,-2 0.95,-0.7 2.44,-0.1 2.44,1 0,0.3 -0.15,0.7 -0.36,1 -0.47,0.6 -1.61,0.6 -2.15,0 z m -156.633,-9.6 c -0.37,-0.1 -1.43,-0.2 -2.36,-0.4 -7.96,-1.3 -12.85,-6.9 -12.67,-14.6 0.1,-4.2 1.27,-7.3 3.84,-10.1 1.26,-1.4 3.37,-2.8 4.85,-3.4 2.95,-1.1 4.42,-1.4 7.72,-1.4 2.56,0 4.41,0.3 6.486,0.9 l 1.271,0.4 0.05,2.5 c 0.05,1.7 0,2.5 -0.141,2.5 -0.105,0 -0.623,-0.3 -1.156,-0.6 -2.002,-1.2 -4.342,-1.7 -6.852,-1.6 -3.1,0.2 -5.3,1.1 -7.3,3.1 -2.1,2.1 -2.95,4.3 -2.95,7.6 0,2.1 0.27,3.4 1.14,5.2 2.2,4.4 7.51,6.58 13.57,5.5 1.994,-0.3 4.269,-0.9 4.53,-1.1 0.121,-0.1 0.267,-0.2 0.33,-0.1 0.125,0.1 -0.105,0.6 -0.999,2.08 -0.345,0.5 -0.815,1.4 -1.051,1.82 -0.319,0.7 -0.538,0.9 -0.894,1 -3.026,0.6 -5.856,0.8 -7.406,0.7 z m 15.652,-0.5 c -2.212,-0.6 -3.378,-1.52 -4.215,-3.32 -0.371,-0.78 -0.439,-1.18 -0.439,-2.48 0,-1.8 0.225,-2.6 1.061,-3.7 0.895,-1.2 2.218,-2 3.923,-2.6 1.281,-0.4 1.726,-0.4 3.938,-0.4 1.495,0 2.52,-0.1 2.557,-0.2 0.12,-0.3 -0.22,-2.3 -0.486,-2.8 -0.372,-0.7 -1.391,-1.4 -2.521,-1.5 -1.569,-0.3 -4.168,0.1 -6.171,1 -0.408,0.2 -0.774,0.3 -0.811,0.2 -0.05,0 0.304,-0.6 0.759,-1.4 0.46,-0.8 1.03,-1.8 1.27,-2.2 l 0.445,-0.8 1.401,-0.2 c 1.815,-0.3 5.581,-0.3 6.48,0 2.615,0.8 3.933,2.4 4.304,5 0.09,0.6 0.178,4 0.183,7.4 0,3.5 0.07,6.58 0.152,7 l 0.136,0.7 -2.421,0 -2.422,0 -0.09,-0.7 c -0.05,-0.42 -0.11,-0.92 -0.136,-1.32 l -0.05,-0.6 -0.983,1.4 c -0.67,0.92 -1.156,1.42 -1.528,1.52 -0.747,0.3 -3.226,0.3 -4.34,0 z m 5.471,-3.7 c 0.611,-0.1 1.155,-0.4 1.213,-0.4 0.05,-0.1 0.11,-1.3 0.131,-2.7 l 0.05,-2.4 -1.946,0 c -1.689,0 -2.055,0.1 -2.756,0.5 -1.427,0.6 -2.154,2 -1.793,3.4 0.193,0.7 1.14,1.7 1.731,1.8 0.946,0.18 2.363,0.1 3.383,-0.2 z m 24.388,3.5 c -1.504,-0.4 -1.891,-0.5 -2.874,-1.32 -1.548,-1.2 -2.421,-2.48 -3.159,-4.88 -0.329,-1 -0.392,-1.6 -0.392,-3.4 0,-3.5 0.847,-5.9 2.887,-8 1.935,-2.1 3.758,-2.9 6.838,-2.9 1.722,0 2.712,0.3 4.452,1 0.29,0.2 0.3,-0.1 0.29,-4.4 l 0,-4.5 2.46,0 c 1.35,0 2.46,0 2.46,0.1 0,0.1 0,6.5 0,14.2 l 0,14 -2.45,0 -2.44,0 0,-1.42 0,-1.5 -0.97,1.5 -0.97,1.42 -1.09,0.2 c -1.502,0.5 -3.282,0.4 -4.922,-0.1 z m 6.902,-3.8 1.14,-0.4 0,-5.7 0,-5.7 -0.72,-0.3 c -1.74,-0.9 -3.962,-1 -5.432,-0.2 -1.04,0.5 -2.13,1.8 -2.66,3.1 -0.36,0.9 -0.41,1.3 -0.41,3.2 0,2.7 0.33,3.7 1.6,5 1.54,1.5 3.83,1.88 6.482,1 z m 17.48,4 c -3.58,-0.5 -6.09,-2.22 -7.46,-5 -0.83,-1.7 -1.08,-2.9 -1.09,-5.2 0,-6.3 3.83,-10.5 9.55,-10.5 5.48,0 8.8,3.5 8.94,9.4 l 0,1.5 -6.66,0 -6.67,0.1 0.12,0.9 c 0.14,1 0.67,2.4 1.23,3.1 1.63,2.1 5.24,2.88 9.1,1.8 0.93,-0.2 1.79,-0.5 1.89,-0.6 0.13,-0.1 0.24,-0.1 0.3,0 0.1,0.1 -1.8,3.5 -2.2,4.1 -0.1,0 -0.76,0.2 -1.63,0.3 -1.65,0.4 -3.73,0.4 -5.45,0.1 z m 4.89,-13.8 c -0.33,-2.3 -1.64,-3.5 -3.8,-3.5 -1.7,0 -2.77,0.7 -3.64,2.4 -0.4,0.7 -0.64,1.6 -0.53,1.7 0,0.1 1.88,0.2 4.08,0.2 l 4.01,0 -0.12,-0.8 z m 28.6,13.9 c -0.28,0 -0.89,-0.2 -1.35,-0.3 -2.78,-0.9 -4.48,-2.62 -5.55,-5.6 -0.52,-1.4 -0.54,-1.6 -0.53,-4.1 0,-2.6 0,-2.7 0.55,-4.2 0.86,-2.4 1.99,-3.8 4,-5.2 1.46,-1 2.77,-1.3 4.99,-1.3 1.91,0 2.83,0.1 4.62,0.9 0.27,0.2 0.29,-0.1 0.29,-4.4 l 0,-4.6 2.45,0 2.46,0 0,14.2 0,14.2 -2.49,0 -2.49,-0.1 0,-1.42 c 0.1,-0.8 0,-1.3 -0.11,-1.3 -0.1,0.1 -0.55,0.7 -1.03,1.4 -0.71,1.12 -0.99,1.42 -1.51,1.62 -0.66,0.2 -3.48,0.4 -4.35,0.2 z m 5.81,-4.1 1.19,-0.4 0,-5.7 0,-5.7 -1.06,-0.5 c -0.94,-0.4 -1.24,-0.4 -2.66,-0.4 -1.98,0 -2.81,0.3 -3.95,1.5 -1.84,2.1 -2.31,5.9 -1.06,8.6 1.28,2.8 4.02,3.68 7.52,2.6 z m 13.9,4 c -1.04,-0.1 -2.11,-0.5 -2.76,-1 -2.5,-1.72 -3.19,-5.2 -1.6,-8 1.38,-2.5 4.46,-3.7 8.9,-3.6 l 1.92,0 -0.11,-0.9 c -0.22,-1.9 -0.89,-3 -2.07,-3.4 -1.42,-0.4 -4.97,0 -7.01,0.9 -0.91,0.4 -1.08,0.3 -0.7,-0.3 0.35,-0.5 0.64,-1 1.49,-2.5 0.37,-0.7 0.79,-1.3 0.93,-1.3 0.13,-0.1 1.01,-0.3 1.94,-0.4 5.21,-0.8 8.5,0.4 9.73,3.4 0.41,1 0.41,1 0.51,8.6 0.1,4.2 0.17,7.8 0.24,7.9 0.12,0.3 0,0.3 -2.33,0.3 l -2.46,0 -0.1,-0.7 c -0.1,-0.42 -0.11,-1.02 -0.14,-1.32 l 0,-0.6 -1.05,1.5 c -0.93,1.22 -1.12,1.42 -1.69,1.52 -0.83,0.2 -2.64,0.2 -3.6,-0.1 z m 5.55,-3.8 0.89,-0.4 -0.1,-2.5 0,-2.5 -1.95,0 c -1.73,0 -2.03,0.1 -2.77,0.5 -1.15,0.5 -1.8,1.5 -1.8,2.5 0,1.3 0.41,2 1.44,2.6 0.74,0.38 3.08,0.28 4.28,-0.2 z m 25.5,3.8 c -4.06,-0.7 -6.53,-2.92 -7.75,-6.9 -0.27,-0.9 -0.33,-1.5 -0.33,-3.4 0,-2.1 0.1,-2.4 0.52,-3.7 0.29,-0.9 0.78,-2 1.08,-2.5 2.08,-3.4 6.33,-5 10.52,-3.9 4.05,1 6.23,4.2 6.38,9.2 l 0.1,1.4 -6.61,0 -6.63,0 0,0.6 c 0,1.9 1.4,4.1 3.03,5 2.05,0.88 4.38,1.08 7.32,0.3 0.86,-0.3 1.74,-0.5 1.95,-0.6 0.34,0 0.27,0.1 -0.65,1.78 -0.57,1 -1.13,2.02 -1.27,2.12 -0.32,0.3 -3.29,0.8 -4.97,0.8 -0.79,0 -1.98,-0.1 -2.62,-0.2 z m 5.37,-13.7 c -0.1,-1 -0.55,-1.9 -1.33,-2.6 -2.21,-2 -5.48,-0.8 -6.56,2.3 -0.13,0.4 -0.22,0.8 -0.19,0.9 0,0 1.89,0.1 4.1,0.1 l 4.03,0 -0.1,-0.6 z m -128.124,-0.8 0,-14.2 2.369,0 2.368,0 0,0.4 c 0,0.3 0,6.7 0,14.2 l 0,13.7 -2.374,0.1 -2.374,0 0,-14.1 z m 50.924,4.2 0,-10 2.5,0.1 2.5,0.1 0,1.5 0,1.5 0.36,-0.4 c 0.2,-0.2 0.67,-0.9 1.05,-1.4 0.53,-0.9 0.84,-1.1 1.34,-1.3 0.79,-0.3 3.68,-0.5 4.52,-0.3 l 0.61,0.1 0,2.4 c 0,2.1 0,2.4 -0.3,2.4 -0.17,0 -0.38,-0.1 -0.47,-0.2 -0.1,-0.1 -0.63,-0.3 -1.21,-0.5 -1.45,-0.6 -3.25,-0.4 -4.73,0.2 -0.9,0.4 -1.05,0.6 -1.12,1 -0.1,0.3 -0.1,3.7 -0.1,7.7 l 0,7.1 -2.5,0 -2.49,0 0,-10 z m 56.01,-4.2 0,-14.2 2.41,0 2.41,0.1 0,14.2 0.1,14.1 -2.45,0 -2.45,0 0,-14.2 z" style="fill:#ffffff;fill-opacity:1" />
  </g>
</svg>
