<?xml version="1.0" encoding="UTF-8" standalone="no"?>
<!-- Created with Inkscape (http://www.inkscape.org/) -->
<svg xmlns:dc="http://purl.org/dc/elements/1.1/" xmlns:cc="http://creativecommons.org/ns#" xmlns:rdf="http://www.w3.org/1999/02/22-rdf-syntax-ns#" xmlns:svg="http://www.w3.org/2000/svg" xmlns="http://www.w3.org/2000/svg" xmlns:sodipodi="http://sodipodi.sourceforge.net/DTD/sodipodi-0.dtd" xmlns:inkscape="http://www.inkscape.org/namespaces/inkscape" width="250" height="91" viewBox="0 0 250 91" id="svg2" version="1.1" inkscape:version="0.91 r13725" sodipodi:docname="catapult-future-cities.svg">
  <sodipodi:namedview id="base" pagecolor="#ffffff" bordercolor="#666666" borderopacity="1.0" inkscape:pageopacity="0.0" inkscape:pageshadow="2" inkscape:zoom="2.8" inkscape:cx="134.38" inkscape:cy="13.749" inkscape:document-units="px" inkscape:current-layer="layer1" showgrid="false" inkscape:window-width="1280" inkscape:window-height="751" inkscape:window-x="0" inkscape:window-y="0" inkscape:window-maximized="0" units="px" />
  <metadata id="metadata7">
    <rdf:RDF>
      <cc:Work rdf:about="">
        <dc:format>image/svg+xml</dc:format>
        <dc:type rdf:resource="http://purl.org/dc/dcmitype/StillImage" />
        <dc:title></dc:title>
      </cc:Work>
    </rdf:RDF>
  </metadata>
  <g inkscape:label="Layer 1" inkscape:groupmode="layer" id="layer1" transform="translate(0,-961.4)">
    <path style="fill:#ffffff" d="" id="path5454" inkscape:connector-curvature="0" />
    <path style="fill:#ffffff" d="m 107.56,1037.2 c -0.13,0 -0.47,-0.1 -0.74,-0.1 -0.88,0 -1.81,-0.8 -2.35,-1.9 l -0.3,-0.6 0,-3.5 c 0,-3.6 0,-3.6 0.2,-4 0.31,-0.5 0.76,-0.7 1.55,-0.7 0.76,0 1.19,0.2 1.52,0.8 0.19,0.3 0.2,0.5 0.25,3.2 0,3.3 0.1,3.3 0.8,3.7 0.48,0.2 0.71,0.2 1.19,-0.1 0.7,-0.4 0.71,-0.4 0.76,-3.7 0,-2.8 0.1,-2.9 0.26,-3.2 0.39,-0.5 0.79,-0.7 1.5,-0.7 0.84,0 1.26,0.2 1.57,0.8 l 0.22,0.4 0,3.5 c 0,3.3 0,3.4 -0.25,3.9 -0.46,1.2 -1.43,2 -2.48,2.1 -0.99,0.1 -3.36,0.2 -3.64,0.1 z m 17.95,0 c -0.16,0 -0.51,-0.1 -0.77,-0.1 -0.89,0 -2,-0.9 -2.44,-2 -0.22,-0.6 -0.23,-0.7 -0.26,-4 l 0,-3.5 0.23,-0.4 c 0.31,-0.6 0.73,-0.8 1.56,-0.8 0.71,0 1.11,0.2 1.51,0.7 0.19,0.3 0.2,0.4 0.25,3.2 0.1,3.3 0.1,3.3 0.79,3.7 0.46,0.3 0.69,0.3 1.17,0.1 0.74,-0.4 0.74,-0.4 0.79,-3.7 0,-2.7 0.1,-2.9 0.25,-3.2 0.34,-0.6 0.76,-0.8 1.52,-0.8 0.8,0 1.24,0.2 1.56,0.7 0.22,0.4 0.22,0.4 0.19,4 l 0,3.5 -0.31,0.6 c -0.54,1.2 -1.36,1.8 -2.39,1.9 -0.97,0.1 -3.26,0.2 -3.6,0.1 z m 17.41,0 c -0.17,0 -0.49,-0.1 -0.74,-0.1 -0.6,0 -1.3,-0.4 -1.99,-1.2 -0.95,-1 -1.45,-2.4 -1.45,-4 0,-2.7 1.6,-4.9 3.98,-5.6 0.73,-0.2 2.3,-0.2 2.99,0 1.56,0.4 2.81,1.6 3.37,3.2 0.26,0.7 0.37,2.5 0.18,3 -0.22,0.5 -0.45,0.6 -3.74,0.6 l -2.96,0 0.18,0.3 c 0.3,0.5 1.02,0.8 1.9,0.8 0.66,0 0.84,-0.1 1.63,-0.4 0.77,-0.4 0.99,-0.4 1.54,-0.4 0.74,0 1.09,0.2 1.32,0.7 0.58,1.4 -0.55,2.8 -2.42,3 -1.1,0.1 -3.46,0.2 -3.79,0.1 z m 2.8,-6.8 c 0,-0.2 -0.81,-1 -1.14,-1.1 -0.61,-0.2 -1.29,0.1 -1.78,0.9 l -0.23,0.3 1.58,0 c 1,0 1.57,0 1.57,-0.1 z m 14.9,6.8 c -0.16,0 -0.53,-0.1 -0.82,-0.1 -1.2,0 -2.92,-1.4 -3.72,-2.9 -0.72,-1.4 -0.87,-2.1 -0.87,-4.1 0,-1.5 0,-1.8 0.23,-2.5 0.72,-2.5 2.33,-4.1 4.73,-4.7 0.73,-0.2 1.02,-0.2 2.41,-0.1 1.22,0 1.72,0.1 2.18,0.2 0.78,0.3 1.45,0.7 1.66,1.2 0.23,0.4 0.21,1.5 0,2 -0.47,0.7 -1.29,0.9 -2.72,0.4 -0.62,-0.3 -1.05,-0.3 -1.47,-0.3 -1.14,0 -2.17,0.7 -2.71,1.8 -0.99,2.1 -0.31,4.7 1.47,5.5 0.77,0.4 1.6,0.4 2.86,0 1.38,-0.5 2.2,-0.4 2.64,0.2 0.31,0.5 0.32,1.7 0,2.2 -0.33,0.6 -1.05,1 -1.88,1.1 -1.05,0.1 -3.62,0.2 -3.97,0.1 z m 26.07,0 c -0.17,0 -0.48,-0.1 -0.72,-0.1 -1.15,0 -2.67,-1.5 -3.18,-3.1 -0.29,-1 -0.35,-2.6 -0.14,-3.5 0.46,-2.1 1.92,-3.7 3.84,-4.2 0.34,-0.1 1,-0.1 1.53,-0.1 1.62,0 2.53,0.3 3.6,1.4 1.07,1.1 1.51,2.2 1.51,3.8 0,1 -0.14,1.4 -0.6,1.6 -0.21,0 -1.36,0.1 -3.25,0.1 l -2.95,0 0.16,0.3 c 0.1,0.1 0.36,0.4 0.62,0.5 0.4,0.3 0.56,0.3 1.25,0.3 0.72,0 0.87,0 1.68,-0.4 0.77,-0.4 0.99,-0.4 1.55,-0.4 0.55,0 0.69,0 0.94,0.2 0.32,0.3 0.5,0.8 0.5,1.3 0,1.1 -1.1,2.1 -2.55,2.2 -1.1,0.1 -3.46,0.2 -3.79,0.1 z m 2.8,-6.8 c 0,-0.2 -0.96,-1.1 -1.32,-1.1 -0.59,-0.1 -1.31,0.3 -1.77,1.1 -0.1,0.1 0.28,0.1 1.51,0.1 1.15,0 1.58,0 1.58,-0.1 z m 6.54,6.8 c -0.16,0 -0.54,-0.1 -0.84,-0.1 -0.46,0 -0.65,-0.1 -1.04,-0.3 -0.68,-0.5 -0.92,-0.9 -0.92,-1.6 0,-0.7 0.18,-1.1 0.54,-1.4 0.22,-0.2 0.4,-0.2 0.96,-0.2 0.58,0 0.81,0 1.48,0.3 0.92,0.4 1.5,0.5 1.79,0.3 0.2,-0.1 0.2,-0.1 0,-0.3 -0.11,-0.1 -0.76,-0.4 -1.44,-0.7 -1.54,-0.6 -1.77,-0.7 -2.27,-1.2 -0.61,-0.5 -0.77,-1 -0.77,-2.1 0,-0.9 0,-1.1 0.29,-1.6 0.31,-0.7 0.92,-1.3 1.48,-1.6 0.78,-0.4 1.46,-0.5 2.6,-0.5 1.19,0.1 1.98,0.3 2.64,0.7 0.6,0.5 0.76,0.8 0.76,1.7 0,0.7 0,0.8 -0.32,1.1 -0.25,0.2 -0.45,0.3 -0.81,0.4 -0.5,0 -0.82,0 -1.99,-0.5 -0.55,-0.3 -0.67,-0.3 -0.92,-0.2 -0.58,0.3 -0.25,0.5 1.29,1.1 2.4,0.9 3.13,1.8 3.03,3.7 -0.1,0.9 -0.31,1.6 -0.8,2.1 -0.52,0.5 -0.86,0.7 -1.44,0.8 -0.79,0.1 -2.95,0.2 -3.3,0.1 z m -99.428,-0.1 c -0.489,0 -0.613,-0.1 -0.787,-0.3 -0.204,-0.3 -0.206,-0.4 -0.206,-6.6 l 0,-6.4 0.246,-0.2 c 0.5,-0.6 0.529,-0.6 3.914,-0.6 3.101,0 3.141,0 3.471,0.3 0.45,0.3 0.68,0.7 0.68,1.4 0,0.7 -0.23,1.2 -0.68,1.5 -0.32,0.2 -0.42,0.2 -2.24,0.2 l -1.9,0 0,1 0,0.9 1.75,0.1 c 1.89,0 2.09,0 2.44,0.6 0.26,0.4 0.3,1.4 0.1,1.9 -0.31,0.7 -0.56,0.8 -2.58,0.8 l -1.68,0 0,2.3 c 0,2.1 -0.01,2.3 -0.216,2.6 -0.119,0.2 -0.308,0.4 -0.418,0.4 -0.429,0.1 -1.309,0.2 -1.864,0.1 z m 20.548,0 c -0.28,0 -0.57,-0.1 -0.67,-0.2 -0.45,-0.4 -0.46,-0.5 -0.46,-3.9 l 0,-3.3 -0.47,0 c -0.61,0 -1.11,-0.2 -1.33,-0.7 -0.22,-0.4 -0.22,-1.3 0,-1.8 0.2,-0.4 0.77,-0.7 1.39,-0.7 l 0.42,0 0,-1.2 c 0,-1.5 0.12,-1.8 0.79,-2.1 0.37,-0.2 0.55,-0.3 1.09,-0.2 1.26,0 1.56,0.5 1.56,2.3 l 0,1.2 0.66,0 c 1.28,0 1.8,0.5 1.8,1.6 0,1.2 -0.49,1.6 -1.75,1.6 l -0.71,0 0,3.3 c 0,3.4 0,3.5 -0.46,3.9 -0.19,0.2 -1,0.3 -1.85,0.2 z m 16.38,0 c -0.62,0 -0.76,-0.1 -1,-0.6 -0.16,-0.4 -0.18,-0.8 -0.18,-4.6 0,-2.4 0,-4.2 0.1,-4.4 0.1,-0.2 0.25,-0.5 0.44,-0.7 0.29,-0.3 0.42,-0.4 0.93,-0.4 0.78,-0.1 1.21,0 1.56,0.3 l 0.29,0.3 0.51,-0.4 c 0.58,-0.4 0.96,-0.5 1.77,-0.4 0.71,0.1 1.05,0.3 1.35,0.9 0.4,0.8 0.24,1.8 -0.34,2.2 -0.18,0.1 -0.69,0.3 -1.13,0.5 -1.06,0.3 -1.48,0.6 -1.71,0.9 -0.16,0.3 -0.19,0.6 -0.23,3 0,2.7 -0.1,2.9 -0.51,3.3 -0.15,0.1 -1.07,0.2 -1.85,0.1 z m 34.59,0 c -0.54,0 -0.58,0 -0.84,-0.4 l -0.26,-0.4 0,-4.4 c 0,-4.2 0,-4.4 0.2,-4.7 0.33,-0.6 0.75,-0.8 1.51,-0.8 0.81,0 1.25,0.2 1.55,0.7 0.23,0.4 0.23,0.4 0.23,4.7 0,4.6 0,4.7 -0.45,5.1 -0.2,0.2 -0.99,0.3 -1.94,0.2 z m 5.53,0 c -0.4,0 -0.61,-0.1 -0.73,-0.2 -0.39,-0.4 -0.43,-0.8 -0.44,-4.1 l 0,-3.1 -0.49,0 c -0.53,0 -1.05,-0.3 -1.25,-0.7 -0.1,-0.1 -0.13,-0.5 -0.13,-0.9 0,-0.6 0,-0.8 0.22,-1 0.25,-0.4 0.69,-0.6 1.27,-0.6 l 0.38,0 0,-1.1 c 0,-1 0,-1.2 0.21,-1.6 0.36,-0.7 0.64,-0.8 1.56,-0.8 0.83,0 1.1,0.1 1.51,0.7 0.18,0.2 0.21,0.4 0.24,1.5 l 0,1.3 0.55,0 c 0.77,0 1.24,0.1 1.53,0.5 0.23,0.2 0.26,0.4 0.26,1.1 0,1.2 -0.38,1.6 -1.66,1.6 l -0.7,0 0,3.1 c 0,1.7 0,3.2 -0.1,3.4 0,0.2 -0.18,0.4 -0.33,0.6 -0.21,0.2 -0.33,0.3 -0.84,0.3 -0.33,0 -0.84,0 -1.14,0 z m 5.94,0 c -0.47,0 -0.55,0 -0.79,-0.4 l -0.27,-0.3 0,-4.4 0,-4.4 0.22,-0.4 c 0.32,-0.6 0.73,-0.8 1.57,-0.8 0.71,0 1.11,0.2 1.5,0.7 0.2,0.3 0.21,0.4 0.24,4.5 0,4.4 0,4.8 -0.41,5.2 -0.17,0.2 -0.33,0.3 -0.85,0.3 -0.36,0 -0.88,0 -1.15,0 z m -11.74,-11.3 c -0.91,-0.4 -1.32,-1.3 -1.08,-2.4 0.21,-0.9 0.74,-1.4 1.69,-1.5 0.68,-0.1 1.27,0.1 1.72,0.5 0.47,0.4 0.62,0.8 0.62,1.5 0,0.8 -0.27,1.4 -0.8,1.8 -0.48,0.3 -1.61,0.4 -2.15,0.1 z m 11.56,0.1 c -0.43,-0.2 -0.99,-0.8 -1.12,-1.2 -0.55,-1.8 0.84,-3.2 2.69,-2.7 1.66,0.4 1.79,3.1 0.2,3.8 -0.43,0.2 -1.3,0.2 -1.77,0.1 z m -132.98,-8.3 c -2.704,-0.5 -4.88,-2.2 -6.121,-4.6 -0.709,-1.5 -0.849,-2.3 -0.856,-5.4 0,-2.4 0.135,-3.6 0.537,-4.6 0.645,-1.5 1.957,-3.13 3.289,-4.13 0.668,-0.41 1.994,-1.01 2.878,-1.31 0.643,-0.2 1.047,-0.2 2.536,-0.2 1.513,0 1.896,0 2.636,0.2 2.168,0.6 4.038,1.91 4.454,3.14 0.207,0.7 0.149,1.7 -0.133,2.3 -0.287,0.6 -0.92,1.3 -1.521,1.5 -0.419,0.2 -0.637,0.3 -1.217,0.2 -0.764,0 -1.097,-0.2 -2.055,-0.9 -0.72,-0.6 -1.425,-0.9 -2.214,-0.8 -1.593,0.1 -2.755,1.3 -3.252,3.2 -0.58,2.3 0.309,4.6 2.053,5.5 1.108,0.5 2.174,0.3 3.733,-0.8 0.743,-0.5 1.248,-0.7 2.063,-0.6 0.954,0.1 1.79,0.7 2.313,1.7 0.308,0.5 0.298,1.7 -0.02,2.5 -0.491,1.1 -2.265,2.3 -4.192,2.9 -0.785,0.2 -1.068,0.3 -2.649,0.3 -0.974,0 -1.992,0 -2.263,-0.1 z m 102.83,0 c -5.94,-0.9 -9.47,-4.1 -10.75,-9.9 -0.5,-2.3 -0.51,-2.4 -0.51,-12.64 0,-7.7 0,-9.6 0.14,-10.1 0.43,-1.7 1.56,-2.5 3.82,-2.7 2.25,-0.1 3.9,0.4 4.65,1.5 0.66,1 0.63,0.5 0.7,11 0.1,10.34 0,10.14 0.57,11.64 0.73,2.1 2.37,3.3 4.48,3.3 2.12,0 3.73,-1.2 4.46,-3.2 0.57,-1.6 0.54,-1 0.6,-12.74 0.1,-9.8 0.1,-10.7 0.23,-11.2 0.39,-1.1 1.18,-1.9 2.33,-2.3 0.43,-0.1 0.89,-0.1 2.17,-0.1 1.42,0 1.7,0 2.21,0.2 1.17,0.4 1.77,1.1 2.15,2.2 l 0.21,0.7 0,10.6 c 0,11.24 0,11.34 -0.45,13.54 -0.27,1.4 -0.68,2.6 -1.27,3.8 -1.64,3.4 -4.59,5.5 -8.85,6.3 -1.17,0.2 -5.6,0.3 -6.89,0.1 z m -90.978,-0.2 c -0.762,-0.1 -1.372,-0.4 -1.72,-0.9 -0.292,-0.5 -0.296,-0.5 -0.294,-1.7 l 0,-1.3 1.439,-4.2 c 2.811,-8.4 3.84,-11.34 4.327,-12.34 1.039,-2.2 2.08,-2.7 4.896,-2.6 1.555,0.1 2.178,0.3 2.939,1 0.78,0.7 1.239,1.8 3.119,7.24 2.904,8.3 3.795,11 3.855,11.9 0.102,1.4 -0.44,2.4 -1.653,2.8 -0.724,0.2 -2.573,0.2 -3.298,0 -1.016,-0.3 -1.681,-1.2 -2.1,-2.8 -0.117,-0.4 -0.259,-0.9 -0.314,-1.1 l -0.1,-0.3 -2.959,0 -2.958,0.1 -0.363,1 c -0.779,2.4 -1.374,3 -2.885,3.2 -0.721,0.1 -1.204,0.1 -1.934,0 z m 9.895,-10.1 c -0.03,-0.1 -0.43,-1.5 -0.891,-3.1 -0.461,-1.7 -0.868,-3.1 -0.901,-3.2 -0.05,-0.1 -1.694,6.1 -1.706,6.4 0,0.1 0.796,0.1 1.774,0.1 1.646,0 1.773,0 1.724,-0.2 z m 12.386,10.1 c -0.824,-0.1 -1.58,-0.5 -1.929,-1 -0.594,-0.8 -0.582,-0.6 -0.582,-9.3 l 0,-7.83 -1.893,-0.1 c -1.688,0 -1.947,-0.1 -2.385,-0.2 -1.02,-0.51 -1.425,-1.21 -1.504,-2.71 -0.101,-1.9 0.298,-2.9 1.322,-3.4 l 0.575,-0.3 7.319,0 c 6.267,0 7.391,0 7.825,0.1 0.756,0.2 1.142,0.5 1.47,1.2 0.259,0.5 0.295,0.6 0.334,1.6 0.07,2 -0.282,2.9 -1.324,3.41 -0.561,0.3 -0.623,0.3 -2.42,0.3 l -1.844,0.1 0,7.53 c 0,4.8 -0.04,7.8 -0.103,8.2 -0.202,1.2 -0.819,2 -1.889,2.3 -0.638,0.2 -2.199,0.2 -2.971,0.1 z m 9.068,0 c -1.133,-0.1 -1.986,-0.7 -2.408,-1.5 -0.253,-0.5 -0.27,-0.6 -0.265,-1.7 l 0.01,-1.2 0.748,-2.3 c 1.929,-5.7 6.181,-17.44 6.812,-18.74 0.88,-1.9 1.577,-2.6 2.894,-3.1 0.481,-0.2 0.791,-0.3 2.421,-0.3 2.747,-0.1 3.637,0.2 4.737,1.4 0.93,1 1.39,2.2 3.54,8.6 2.44,7.44 3.89,11.94 4.33,13.44 0.3,1 0.35,1.3 0.36,2.1 0,1.2 -0.19,1.8 -0.79,2.4 -0.79,0.8 -2.44,1.2 -4.23,0.9 -1.15,-0.1 -1.83,-0.4 -2.41,-1 -0.61,-0.6 -0.91,-1.2 -1.39,-2.9 l -0.43,-1.5 -3.779,-0.1 -3.779,0 -0.429,1.3 c -0.781,2.4 -1.319,3.3 -2.341,3.8 -0.876,0.5 -2.18,0.6 -3.597,0.4 z m 11.419,-16.7 c -0.59,-2.44 -1.081,-4.44 -1.096,-4.54 -0.02,-0.1 -0.972,3.31 -2.287,8.04 l -0.226,0.8 2.339,0 2.34,0 -1.07,-4.3 z m 15.61,16.7 c -1.47,-0.2 -2.46,-0.9 -2.91,-2 l -0.24,-0.6 0,-13.1 0,-13.14 0.24,-0.5 c 0.28,-0.7 0.87,-1.4 1.48,-1.7 0.86,-0.5 1.32,-0.5 6.45,-0.4 4.34,0 4.92,0.1 5.9,0.2 5.22,1 8.07,3.5 9.01,7.8 0.25,1.2 0.35,3.9 0.19,5.21 -0.56,4.73 -3.11,7.73 -7.5,8.83 -1.42,0.4 -2.47,0.5 -4.87,0.5 l -2.08,0 0,3.1 c 0,2.7 0,3.2 -0.21,3.6 -0.57,1.5 -1.63,2.2 -3.78,2.3 -0.58,0 -1.32,0 -1.64,-0.1 z m 7.51,-16 c 2.6,-0.3 3.76,-1.63 3.77,-4.24 0,-2.9 -1.64,-4.3 -5.06,-4.3 l -0.86,0 0,4.3 0,4.34 0.67,0 c 0.36,0 1.03,0 1.48,-0.1 z m 70.44,16 c -1.8,-0.3 -3.03,-1.2 -3.57,-2.8 l -0.22,-0.7 0,-13.93 0,-13.91 -2.98,0 c -3.15,0 -3.64,-0.1 -4.49,-0.5 -0.9,-0.4 -1.56,-1.5 -1.78,-2.7 -0.17,-1.1 -0.1,-3.2 0.17,-4 0.43,-1.3 1.19,-2 2.34,-2.2 0.9,-0.1 23.21,-0.1 24.08,0 0.86,0.1 1.43,0.5 1.87,1.2 0.29,0.4 0.35,0.6 0.42,1.3 0.19,2 0.1,4.5 -0.26,5.2 -0.25,0.5 -0.78,1 -1.27,1.2 -0.86,0.5 -1.35,0.5 -4.5,0.5 l -2.98,0 0,13.71 c 0,13.33 0,13.73 -0.19,14.43 -0.43,1.7 -1.3,2.6 -2.95,3.1 -0.64,0.2 -2.83,0.3 -3.64,0.1 z m -23.01,-0.3 c -1.46,-0.4 -2.26,-1.2 -2.62,-2.7 -0.21,-1 -0.21,-32.54 0,-33.34 0.57,-2.2 2.17,-3.1 5.38,-2.9 2.42,0.1 3.64,0.8 4.23,2.6 l 0.23,0.7 0,13.3 0,13.34 3.86,0 c 3.76,0 3.88,0.1 4.5,0.3 0.85,0.3 1.55,1 1.86,1.8 0.32,0.9 0.45,2.3 0.31,3.5 -0.2,1.9 -0.75,2.7 -2.17,3.3 -0.42,0.2 -0.77,0.2 -7.77,0.2 -6.19,0 -7.41,0 -7.86,-0.1 z" id="path5507" inkscape:connector-curvature="0" />
  </g>
</svg>
