<?xml version="1.0" encoding="UTF-8"?>
<svg version="1.1" viewBox="0 0 250 91" xml:space="preserve" xmlns="http://www.w3.org/2000/svg" xmlns:cc="http://creativecommons.org/ns#" xmlns:dc="http://purl.org/dc/elements/1.1/" xmlns:rdf="http://www.w3.org/1999/02/22-rdf-syntax-ns#">
<metadata>
<rdf:RDF>
<cc:Work rdf:about="">
<dc:format>image/svg+xml
</dc:format>
<dc:type rdf:resource="http://purl.org/dc/dcmitype/StillImage"/>
<dc:title/>
</cc:Work>
</rdf:RDF>
</metadata>
<defs>
<clipPath id="a">
<path d="m0 449.28h496.32v351.84h-496.32z" clip-rule="evenodd"/>
</clipPath>
</defs>
<g transform="matrix(0 .1773 .1773 0 17.29 .48093)" fill="#fff">
<g clip-path="url(#a)" fill="#fff">
<path d="m253.68 801.12c-56.64 0-37.68-108.96-37.68-141.36 0-57.36-72 10.8-109.2 10.8-65.04 0-121.68-55.92-32.16-69.12 74.4-10.8 110.4-88.56 166.08-128.88 32.4-23.04 110.4-13.68 146.64-9.6 65.04 7.68 69.12 59.76 85.68 117.36 7.2 25.2 23.04 218.88-52.32 166.56-5.52 29.52-43.44 45.6-65.04 18.72-13.44 26.88-49.44 29.28-65.04 3.36-4.56 19.2-17.04 29.76-36.96 32.16z" fill="#fff"/>
</g>
</g>
<g transform="matrix(0 .1773 .1773 0 17.29 .48093)" fill="#fff">
<path d="m231.6 414c-3.9729 1.3077 1.5247 6.5304-2.4082 8.2624-1.2596 1.485-3.1585 6.036-4.9158 3.2435-1.3047 0.70088-2.6988 1.4565-3.147 0.50022-1.9248 0.22801 1.598-2.4381 2.5989-1.2774 1.2555 0.27367 3.4933-1.1435 1.7213-2.1691 2.0198 0.2054 3.7696-0.4451 3.9719-2.4844 1.5415-1.6684-0.0585-4.56-2.0763-2.5071-1.145 1.2617 0.26729 4.6408-2.0883 2.9319-1.9577 0.46635-0.98204 3.1728-3.4414 3.3779-3.776 0.827-1.2946 5.547 1.6287 5.4559 2.3916-0.48979 3.1744 1.9196 4.6783 2.745 1.8023-0.784 2.3258-3.7378 4.5139-3.9723-0.62454 1.9417-1.5252 4.8002-4.091 4.4089-0.0991 2.9338 4.2284 5.0681 2.0713 8.1318-0.93047 1.4592-2.4817 0.76282-2.2983-0.55212-1.4986-1.6161-4.189 0.46256-4.9765-0.39206 0.10142-3.4769-2.8575 2.6756-3.5672-0.32571 2.6695-2.5278-3.5207-2.3158-1.7155 0.39894 0.13037 1.7564 4.8998 1.4943 2.5558 2.9503-1.9767 0.16537-3.8747-4.0676-5.5678-1.0271-1.6869 0.24092-1.1056-1.0903-0.7659-1.4764-0.32724-1.337 3.2243 1.0147 1.5955-1.0272-0.73217-1.3307 3.4866-3.2373 0.82558-3.3311-1.79 2.1511-6.5551 1.9143-6.2009 5.3512-0.0119-1.6921-1.6753-3.1472-1.9506-0.58949 0.088 0.76009-0.34147 2.6536-1.1307 1.219-2.0514 2.585 2.9732 2.949 4.2157 2.2208 1.1573 1.0695 1.1465 3.6658 3.2087 3.4828-0.81687 1.6092 2.2105-1.3706 0.16028-1.451 2.0775-2.1392 2.4765 3.8127-0.18822 2.8209-0.91409 2.3881 4.5683 5.9991 0.76266 7.172-2.1427-1.3035-4.6105-2.0329-6.0814-4.1025-2.3526-0.79207-2.8021 2.5022-1.2759 3.8175-0.87884 3.2492 2.1245 4.7726 4.8901 5.2097 3.1171 1.4609 6.0543 3.4537 9.4848 4.1255 2.2308 1.6338 3.6354 4.9017 7.0259 4.1413 4.1124-0.35353 3.824-4.9948 1.5248-7.2891-1.7016-3.6819-3.5443-7.3071-4.6367-11.232-2.0431-2.3677-1.3042-5.8388 1.971-6.5308 1.2406-6e-3 4.1318-2.8304 3.4258-0.22242 2.046 0.59509-1.5538 4.1633 1.3024 5.1975 2.7747 2.3464 6.5278 2.9836 9.458 5.0855 3.6245 1.6631 6.0568-2.9173 3.6325-5.6177-1.6696-2.416-2.3355-5.2458-3.2558-7.9836-1.0084-3.1991-2.465-6.2487-4.2992-9.042-1.7325-2.3947-1.7372-6.1378-3.7802-7.9828-2.0736-0.87566-2.0402 3.9052-1.8476 0.95303 0.86751-2.2259 3.9489-4.4161 2.144-7.0135-0.82726-1.3942-2.6616-0.47117-1.896 0.639-2.5624 0.8388 2.1882-4.523-1.0738-4.2347l-0.32353-0.0123zm0.48 4.08c-1.0402 1.198-0.15161-1.3159 0 0zm-3.6 1.2c-1.6641 1.7303-0.63815-1.5332 0 0zm-0.48 2.64c-1.2286 1.7403-0.76254-1.8637 0 0zm3.6 1.68c1.8805 0.30171-1.2131 1.328 0 0zm2.88 1.92c1.7853-0.12107-0.11763 1.3876 0 0zm-10.32 0.72c-0.76506 1.6711-0.97033-1.4451 0 0zm5.52 0.24c0.89997-1.0412 1.0353 0.73754 0 0zm-6.72 1.2c-1.4334 0.79626-0.0579-1.5919 0 0zm-4.32 0c-2.0604-0.0696-5.4823 2.7509-4.2205 4.0574 0.70273-1.1558 4.5763-3.65 3.2216-1.0638 2.6341 0.76565 2.7269-1.7868 0.99895-2.9935zm4.8 0.24c0.46345 1.0792-1.0899-0.20708 0 0zm6.96 0.24c1.0566 0.85286-0.9758 0.11292 0 0zm-2.88 0.96c1.7878 1.069-1.7455 0.71011 0 0zm2.4 0.96c0.95053 0.90012 0.58528-1.1961 0 0zm-9.36 0.96c-0.41048 3.385 1.5067-1.9212 0 0zm-4.32 2.4c0.89249 2.5643 5.2578-2.1266 1.5611-0.48908-0.48138 0.25608-1.0003 0.5018-1.5611 0.48908zm12.96-0.96c1.6856 1.1987-1.8542 0.69689 0 0zm-8.88 1.2c1.9766 0.78162 0.41826-2.3025 0 0zm-8.88 0.24c-2.4016 0.15026 0.98068 2.5305 0 0zm22.56 0.72c0.80556 0.46804-0.96615 0.0131 0 0zm-23.76 2.4c-1.1898 1.6931 1.6803-1.2352 0 0zm-1.92-0.24c-1.1314 2.5079 2.7713-1.4552 0 0zm13.92 0c-2.0761 2.4313 2.1304 0.13828 0 0zm-15.84 0.96c-0.85274 1.8805 1.9887-0.33601 0 0zm10.56 1.44c1.1813 0.51872-0.0965-1.2379 0 0zm23.04 0c-0.77998 1.6067-0.2813 4.4004 1.0134 2.6865 1.1358 2.1256-2.7819 6.4718-3.0288 2.4445 0.2571-1.831 1.4163-3.4089 2.0154-5.131zm-18 2.16c-0.86849-2.2331 2.3626-0.24794 0 0zm2.16-1.2c1.8674 0.27247-0.96413 1.367 0 0zm10.08 0.96c0.71945 2.1498-2.7253-0.21974-0.0246 9e-3l7e-5 -3e-5zm-7.68 0.24c1.74 1.8071-2.2434 1.1539 0 0zm-8.88 0.24c0.72788 1.006-0.83397 3.0716-0.51619 3.4646-2.718 0.19927-0.85459-3.5091 0.51619-3.4646zm12.48 0c2.5512 1.9604-2.1667 0.90851 0 0zm-17.76 0.24c2.315 2.5073-2.5498 0.0744 0 0zm23.04 1.2c1.3273 1.4356-2.629 3.4458-0.87059 0.99031 0.12849-0.41582 1.0586-2.6905 0.87059-0.99031zm-20.16-0.72c0.84665 1.4806-1.5734-0.14566 0 0zm-18.96 5.76c-2.3759 0.74284-2.6161 4.4033-1.2647 4.986-2.8173 2.4329 2.9996 4.9425 5.0209 3.4536 2.0064-0.33475 5.3045-1.5668 4.2424-4.198 1.776 2.158 4.1767-2.284 0.91263-2.0767-0.31902-1.8501 2.3755-5.2352-1.4407-5.1738-1.0401-0.23789-3.5574-2.0103-2.2502 0.11885-1.3178 0.44567-0.90054 2.5416 0.93788 1.8114 0.99205-0.26931 2.1168-1.7037 1.4247 0.15001-1.1654 0.94513-3.5008 0.29155-3.5062 2.1618-1.8657-0.79021-2.5161 1.1049-3.6256 1.7687-1.1036-2.75 4.6739-2.9983 2.1004-5.3564-1.1149 0.27314-1.5714 1.7718-2.5517 2.3545zm22.56-4.8c1.5988-1.2563 1.6439 2.9869 0.47461 0.38422-0.1076-0.0431-1.0014-0.10265-0.47461-0.38422zm2.88 0c1.5767 0.82002-1.4963 0.72726 0 0zm6.96 0.24c-2.7523 2.0616 1.1877 6.6181 3.0118 3.2059 0.55914-2.4685-3.0782-0.74621-2.5201-3.0297l-0.18984-0.13127zm-1.92 0.24c2.0531 0.46695-1.447 0.8875 0 0zm9.6 0.24c1.5922 0.60161-0.95848 0.67782 0 0zm-5.28 0.24c-1.2913-0.76975-0.36618 1.6004 0 0zm-13.2 0.96c3.5696-0.0275-1.7245 1.6084 0 0zm6 0.24c1.5725 1.3669-1.9412 0.21661 0 0zm18.72 0.24c0.17533 2.0709-1.8907 0.85539 0 0zm-44.16 1.2c1.013 1.3362-1.568 0.22335 0 0zm38.16 0.24c1.5767 0.82002-1.4963 0.72726 0 0zm-40.8 2.4c0.87045 0.35569-0.80533 0.2931 0 0zm3.84 0.24c1.2519 1.843-2.0697-0.0318 0 0zm-4.56 0.48c0.76852 2.3128-2.2726 0.17672 0 0zm3.36 0.24c0.71095 0.99312-1.2004 0.0352 0 0zm25.92 0c1.3424 1.2513-1.7314 0.44313 0 0zm-24.96 0.72c0.23462-2.3939 3.8555 1.7945 1.6766 0.0456-1.0988 0.76927-4.998 1.3056-2.0235-0.37888 0.18002-0.0644 0.48662 0.10826 0.34691 0.33328zm39.12 0c2.3321-2.3378 1.2368 2.6968 0 0zm-18 0.48c2.0097-2.0177 4e-3 2.0726 0 0zm-1.92-0.24c-1.2693 1.7548-2.3346-0.77407 0 0zm0.72 0.24c1.5676 0.71516-1.4351 0.86325 0 0zm-0.48 1.68c-1.3515 1.5711-2.1265-0.91645 0 0zm-17.76 0.72c2.8469-1.9715 0.29127 3.0574 0 0zm-5.52 0.48c-1.4124 0.5639 0.23366-1.4095 0 0zm9.6-0.24c-1.4174 0.2146 1.2578 0.30225 0 0zm-6.72 0.48c-0.95245 1.5104-0.65371-1.5685 0 0zm10.32 0c2.3458-1.2426 0.80347 3.8158 0.28545 1.038 0.088-0.32758 0.10881-0.87181-0.28545-1.038zm3.6 0.48c0.93922 1.4409-1.7425 0.0662 0 0zm6.96 0.24c-0.66885 2.3007-2.5868-0.0762 0 0zm-12.24 0.24c-1.6351 0.11094 1.065 0.9889 0 0zm-2.16 0.96c1.3112 0.17592-0.51411-1.2094 0 0zm0.72 0.24c-0.049 1.6465 2.5193 0.0539 0.25728-0.0871l-0.1426 2e-3zm20.4 2.64c0.91962 2.0502-1.8158 1.8455 0 0zm-7.44 1.2c1.8608 0.73827-1.5384 0.71124 0 0zm6.24 1.2c-1.2874 3.2643 5.5196-0.58879 2.4479 1.8178-0.78919 2.6776-5.7106-2.0472-2.4479-1.8178z" fill="#fff"/>
</g>
<g transform="matrix(0 .1773 .1773 0 17.29 .48093)" fill="#fff">
<path d="m186.72 459.12c-2.7041 0.56709-5.2274 1.7305-7.7407 2.8416-1.8789 2.3001-3.9134 4.5344-5.2105 7.2354 0.057 2.5235-1.1903 5.0145-0.40482 7.5279 0.5189 4.0434 2.2714 7.8775 4.7843 11.068 0.5258 2.3548 3.4548 4.2442 5.5581 2.4968 1.8766-1.5517 3.0815-3.754 5.001-5.2798 1.8836-1.8398 4.0615-3.4028 5.7397-5.4371 0.72756-0.94984-0.48096-2.4874-1.5267-1.664-0.56556-1.0446-0.62568-2.8374 1.0002-1.9045 0.0747 1.3993 1.2275 2.7405 2.5298 1.3336 1.0199-1.4051 0.36029-3.1376 1.1467-4.4354-0.2582-1.0744 1.1749-2.0034 0.89637-0.29338 1.1548 0.94746 1.6653 0.0918 0.48901-0.57467 2.6e-4 -0.6431 1.2978-2.0017-0.13736-1.4244-0.9389-0.34348-2.829-0.89681-2.9273 0.63722-0.10757-2.2733 3.393-1.3291 4.5012-1.526 0.10856 0.72072 0.53253 3.3065 0.7704 1.3097 0.0384-2.4325 3.9597-0.0355 1.2051 0.77158-0.94263 1.2802 1.9432-0.23715 1.1551 0.74623-0.1602 1.0137 2.7269 2.0751 0.8241 2.5388-1.1807-0.40571-2.718 0.43687-2.1517-1.5017-0.63212 0.0467 0.0496 1.6338-1.3624 1.1013-1.0592-0.29466-2.1882-2.2316-2.7116-0.22687 0.12647 1.0872-0.25218 2.5259-0.87561 2.9508 1.8388 2.3868 3.6816 5.1461 3.5478 8.2829-0.39646 2.8482-2.8246 5.5038-5.7936 5.6152-2.7141 0.41611-5.4381-0.22537-8.141-0.22014-2.6294 0.70305-2.3568 4.6499-0.19931 5.7924 2.271 1.1093 4.8972 1.196 7.2724 1.7432 1.0791 1.1518 0.62449-1.7678 1.5474-0.44598 2.7358 0.30534 5.0814-1.7128 7.6492-2.3303 2.456-1.1795 3.138-3.9531 5.168-5.3763-6e-3 -0.90833 1.2623-2.7288-0.44461-1.5784-1.4401-6e-3 -0.57462-2.1012 0.53347-1.3368 2.0706-1.2559 2.3625-4.0117 2.5218-6.2153 0.4816-2.2238-1.1491-4.4825-3.5284-4.0481-1.4069-0.0271-4.0449-2.0081-1.3248-2.4218 0.47827-0.71353 1.9174 0.434 2.2084-0.7571 0.6967 1.9329 0.90558-1.8624 0.19762-2.3939-1.1034-2.6632-3.0465-4.8895-5.0049-6.9561-2.5658-2.1952-5.863-3.2176-8.6287-5.1057-2.0698 0.6359-4.015-1.3111-6.1986-0.69677-0.64564-0.0562-1.3173-0.0751-1.9342 0.15781zm2.16 2.64c0.84194 1.655-1.8543 0.0718 0 0zm12.24 4.08c0.51545 0.95159-1.2924 2.786-0.6542 0.76886 0.11024-0.32339 0.32239-0.64153 0.6542-0.76886zm-22.8 6.96c-0.70325 2.4904 3.3727 1.1074 2.1607-0.74583 0.22645-2.4923 3.2204-3.4606 4.7599-4.0965-0.0183-1.4364 2.6271-1.0115 1.4674 0.33673 0.51235 2.4194 5.2466 1.2959 4.6713 4.2745-0.8473 2.361-3.9865 2.4965-5.1468 4.6209-2.0307 2.2119-4.0506-1.134-5.9591-1.7231-1.3846-0.27701-4.0102-0.93259-1.9533-2.6667zm24-5.28c1.4556 1.2485-2.8548 1.8052-0.56006 1.0001 0.16345-0.31357 0.0229-1.028 0.56006-1.0001zm1.92 2.16c1.0884 2.0142-2.1293 0.46855 0 0zm-26.64 1.2c-1.2434 1.285-0.88574-1.597 0 0zm30.24 1.92c1.4832 1.1084-1.4471 0.14504 0 0zm-32.64 0.24c-0.49653 1.5327-1.6492 0.83515-0.45073-0.0922l0.23536-0.0149zm25.2 0.96c0.91593 0.96477 0.22177-1.1867 0 0zm-6.24 0.72c0.76722-1.5995 0.61364 1.3895 0 0zm1.44-0.48c1.3691 1.1365-1.3498 0.9472 0 0zm-16.08 1.44c0.7521 1.001-1.1146-0.0545 0 0zm29.76 0.24c-1.442-0.27671 0.74048 0.98407 0 0zm-11.76 0.48c-1.3194-0.42721 0.20193 1.0799 0 0zm-15.36 0.96c1.5191 0.36714-1.1193 0.90336 0 0zm-4.08 0.72c0.90699 1.5531-1.7351 0.25778 0 0zm24.72 1.2c2.6804-0.98676-1.6036 3.0465-1.697 0.53385 0.0548-0.89533 1.4986-1.9437 1.697-0.53385zm1.92 0c1.4411-0.60753-0.13674 1.1301 0 0zm-4.08 0.24c0.83794 1.4749-1.4419-0.32645 0 0zm6.72 0.48c1.5753 0.0538-0.76754 0.99381 0 0zm-0.48 0.72c-1.2397 1.3397-0.81181-1.3463 0 0zm-4.32 0.72c1.0476 1.1282-2.5612 2.3809-1.5458 0.26162 0.43925-0.37263 1.0898 0.0801 1.5458-0.26162zm-23.76 2.64c-0.37323 1.5439 2.6997-0.98978 1.334 0.90592-0.61737 1.3516-2.3638 0.18848-1.334-0.90592zm26.16 1.2c1.5425-0.32475-0.45107 1.1441 0 0zm-1.44 1.92c2.1288 0.56427-1.0421 1.2619 0 0zm-18.24 0.48c-0.13792 1.5373-0.9799-0.93281 0 0zm19.68 0.96c1.8006 0.27067 0.82462 4.7791-0.66106 3.0784 0.40617-0.95648 1.1306-2.006 0.66106-3.0784zm-4.56 1.68c0.29403 0.91199-0.76943-0.57963 0 0zm0.72 0.48c0.71333 1.2804-1.3845-0.23764 0 0z" fill="#fff"/>
</g>
<g transform="matrix(0 .1773 .1773 0 17.29 .48093)" fill="#fff">
<path d="m147.12 495.6c-2.0166 1.3616-4.4939 2.1739-5.8872 4.2991-0.81068 0.4242-3.488 3.1789-1.101 2.3669 0.50952-0.82007 2.6396-0.97237 1.8318-0.14125-1.5607-0.0331-2.1737 1.813-3.8138 1.3359-1.7174 1.4364-1.9594 4.2406-2.2209 6.2732 0.47614 0.97182 1.6902 1.1108 0.70678 1.908 0.0366 2.1529 0.95443-0.59109 1.118 0.19348 0.0559 1.4138-1.4062 1.1266-0.3306 2.5585 1.2398 2.8554 3.3622 5.1953 5.1338 7.706 1.7866 2.0194 4.9095 1.9956 5.4952 5.0149 1.0938 2.5588 3.4955 4.088 5.1964 6.143-0.51331 1.2505-3.2029 1.7839-2.3364 3.9425 0.35046 3.1262 4.1702 5.0324 6.4337 2.3935 1.1217-1.5389 3.8167-0.99409 4.1967-2.9736 0.63299-1.4198-1.6886-2.1739-1.6148-2.3253 1.0729 0.0795 2.1085-1.5732 2.3947-1.2643 1.7313 1.2289 1.9456-2.2325 0.79324-2.9511-0.48191-2.7283 2.7183-1.8285 4.102-2.0602 0.64518-0.38773 1.7842-2.6301 1.3383-0.6659 3.1099-0.17213 5.5115-2.4187 7.3366-4.7332 1.8221-1.6854 3.1125-4.0547 2.7842-6.5946-0.26897-2.5696-1.2956-5.1162-2.9067-7.1282-1.8434-1.9256-4.3808-2.9-6.5788-4.3305-2.7294-1.1021-5.8516 1.8331-8.1178 0.81324 0.15745-1.5186 3.014-4.0915 0.79595-4.9404-0.76634 0.44153-0.8339 1.2828-0.50116-0.1023 2.4248-2.3636-1.2545-4.29-2.7295-5.8784-1.9225-1.9823-4.6124-1.1185-6.9861-0.79808-2.2707 0.10559-3.706 1.8166-4.4783 3.6424-0.58442-0.34148-0.51301-1.2946-0.0546-1.7032zm5.04-0.48c0.98304 1.2407-1.7269 0.038 0 0zm-5.76 1.92c-0.47977 1.6453-2.5024-0.29125-0.34043-0.17362l0.18908 0.0496zm0.48 0.48c1.2841 1.051-1.4816 0.48066 0 0zm2.16 0c1.8171-0.18524-0.76582 2.8251 0.25934 0.67627l-0.0499-0.36939zm4.32 0.24c-0.91586 0.93168-0.10882 2.6279 0.3186 0.80238 0.81062 0.70645 0.57779 0.72345 1.0691-0.0547 1.2651-0.10397 2.219 3.3991 0.56526 1.4563-1.4234 0.40354-4.516-1.0119-1.953-2.204zm2.16 2.64c-0.65077 1.1243-1.0504-1.019 0 0zm-10.08 1.92c1.2209 0.3703 2.2706 0.94989 3.1552-0.2831 3.1112-0.64636 3.6208 3.3552 5.6377 4.6919 1.4131 0.19605 2.541 2.8703 0.66467 2.3871-1.4673 1.1437-3.6825 2.5086-5.7984 2.5368-1.9212-1.3117-3.6056-3.2952-3.8508-5.7428-1.4856-0.39186 2.4919-1.4006 0.87928-2.8422-0.22818-0.22145-0.87552-0.28713-0.68763-0.74776zm20.4 7.92c0.85678 1.7996-1.9131-0.52221 0 0zm6.48 0.72c1.9717 0.45015-1.0613 1.5998 0 0zm-12.72 0.72c2.1733 0.98545-1.5047 1.3149 0 0zm2.88 0c2.0731 0.62676-1.0932 1.5032 0 0zm-8.88 1.2c-0.65674 1.2501-2.4774-0.0147-0.49687 0.0221 0.16536-0.0403 0.32862-0.0468 0.49687-0.0221zm-1.92 0.48c-0.18379 1.4819-1.133-0.94749 0 0zm7.68 1.44c2.6404-0.22212 6.0564-0.0974 7.4982 2.5329 1.0489 2.1188-1.2463 3.928-3.1435 4.2998-1.6521 0.77842-3.2477-0.15135-4.8794 0.42656 0.36246-2.7841-5.7632-2.1262-3.8685-5.2514 1.2342-1.1237 3.2557-0.72588 4.3932-2.0079zm12.24 6c1.7737 0.6463-1.2521 1.0773 0 0zm-3.6 1.2c1.4889 0.44272-1.123 0.97591 0 0zm-0.96 3.36c0.81785 1.0555-1.3146-0.14344 0 0zm-4.8 0.24c0.99201 1.11-1.3963 0.39073 0 0zm-8.64 1.68c-1.5375 1.707-0.96241-1.7846 0 0zm2.88 3.36c1.6778 0.18999-1.0837 1.0852 0 0zm5.76 3.12c-1.2079 1.1688 0.20181 3.4282 0.98819 1.1978 0.68858-0.71809-0.3041-1.3279-0.98819-1.1978zm-4.8 3.6c1.3704 1.7082-2.0056 0.21911 0 0z" fill="#fff"/>
</g>
<g transform="matrix(0 .1773 .1773 0 17.29 .48093)" fill="#fff">
<path d="m116.4 528.72c-3.3998 1.1733-7.0853 3.2273-8.1311 6.9291-0.30031 4.6053 2.6648 9.7748 7.4605 10.567 2.3724 0.53284 5.242-1.1882 5.0982-3.7999-0.0967-1.9814-1.6317-3.6727-1.3114-5.7027 1.8321-1.4109 3.7505 0.49149 5.2052 1.5513 2.3899 1.4158 5.3181 2.0286 7.3596 4.0291 0.60077 2.3724 2.3715-0.32515 1.9767-1.507 2.3367-1.241 3.2963 2.7118 1.2688 3.8144-1.6082 2.1877 2.6497 2.2245 2.518 0.12403 0.29797-0.99522-0.71177-1.3595 0.30979-0.37271 2.1178 1.0365 2.5024-2.2696 3.1194-2.8838 1.262-0.26542 4.7854-0.46663 2.558-2.1478-0.58142-1.7906-3.3337-1.8397-3.0455 0.31157 2.3577-1.1084 0.86806 2.9661-1.0029 1.7062-2.0701-0.14924 0.61807-3.6768-1.579-2.7141-0.0929 0.60638-0.0322 2.7046-0.98991 1.4396 1.2531-1.9143-1.4957 0.54635-1.2722-1.0904-1.8317-1.0989 2.8429-1.1057 0.79008-2.2977-0.97488-0.86073-3.9733 1.4124-2.8694-0.71778 1.5812-1.2283 5.3877 0.88976 4.7136-2.4552-1.4172-2.268-3.3184-4.1699-5.6191-5.5998-2.3515-1.5012-2.5988-4.5601-0.86995-6.6591 1.1296-2.6332-2.3212-6.1741-4.8125-4.2142-2.9617 1.9651-5.0638 4.958-8.0512 6.8939-1.3528 1.421 1.8876 5.7607-1.5 4.9209-0.4187-0.1401-0.8846-0.29553-1.3238-0.12482zm8.64 2.16c2.2875-1.1958-0.0366 1.7468 0 0zm10.08 0.24c1.492 1.5007-1.776 0.84421 0 0zm3.12 2.16c1.3487 1.2981-1.6164 0.4186 0 0zm-15.12 0c1.1368 0.92794-1.2522 0.28232 0 0zm16.56 1.2c-2.7776-0.10336 0.56368 4.5342 1.0126 1.6398-0.0986-0.66598-0.59849-1.1523-1.0126-1.6398zm11.76 3.6c-2.0531 0.4618 1.6133 0.71071 0 0zm-8.64 0.48c1.3787 0.78119-1.1945 1.0356 0 0zm3.12 2.64c-0.52058 1.8607-0.91629 5.0125-3.4399 4.9032-1.2845-1.2962-3.2434 0.80777-1.4189 1.5781 1.816-0.0783-0.23939 2.5467-1.0771 0.59997-3.0461 0.0522-2.6961 4.5309-5.2461 5.5507-0.53543 2.1886 2.0097 4.9024 3.7493 3.2849 0.29617 2.5311 3.2777-1.2264 0.48092-1.1104 0.34998-1.334 1.9081-2.0401 1.6986-0.39909 2.3256 1.4356 2.9094-2.3155 4.4566-3.3062 1.797-0.86115 3.1114-2.5098 4.6525-3.7715 1.5772-1.6668 3.9437-2.9526 4.2329-5.4494 0.39806-2.3926-3.6016 0.68036-2.1673-1.7506 1.1342-1.2565-0.71356-2.354-0.93042-0.53273-0.46422 1.3272-1.7429 4.1795-3.4281 2.4871 1.6067-0.87002 0.30746-2.3737-0.95235-1.8308-0.0476 0.0173-0.73317-0.82338-0.61062-0.25321zm-13.2-1.44c1.0034 1.0366-1.3009 0.1542 0 0zm16.32 0c-1.0752 1.0954 1.2626 0.0271 0 0zm0.24 0.72c-1.7213 1.5882 2.0353 0.076 0 0zm-11.52 0.96c1.2369-1.0814-0.0439 1.2983 0 0zm4.08 0c-2.4068 0.18386 0.14322 3.9708 1.1354 2.8402-1.3063-0.0395-2.0756-1.9142-1.1354-2.8402zm-7.68 0.96c0.17106 2.7965 1.3699-1.4988 0 0zm7.92 0.72c2.6693 2.4622 0.30048-2.7592 0 0zm2.64 0.24c-1.303 0.99973 1.4776 0.16113 0 0zm2.16 0.96c1.9593 1.2274-0.59021 3.2936-1.2703 1.1126-0.0809-0.44026 1.2179-2.32 1.2703-1.1126zm-7.44 0.48c-3.0545-1.4764-2.2445 5.4534-0.33345 2.9086-0.91801-1.078 3.0749-2.8962 0.33345-2.9086z" fill="#fff"/>
</g>
<g transform="matrix(0 .1773 .1773 0 17.29 .48093)" fill="#fff">
<path d="m100.08 544.08c-2.4948 0.83634-4.8227 2.1898-7.44 2.64-1.7882 2.2866-3.7752 4.4452-5.1943 6.9952-0.34001 3.0144-1.3446 6.0942-0.43816 9.1086 0.53641 3.2244 1.8594 6.3382 3.935 8.8748 0.83318 1.8424 1.8818 4.4053 4.2812 4.3665 2.8933-0.36556 3.8642-3.5643 5.9236-5.173 1.9044-1.5614 3.509-3.545 5.6564-4.7561 1.7716-1.2651 1.0882-3.6851-0.7732-3.7911-0.32181-1.7513 2.1964-1.4473 2.232 7e-3 2.7488 1.2787 2.1783-3.2632 2.8455-4.8049 0.53552-1.2517 2.228 1.7847 1.4985-0.34448 0.29236-1.2257 0.22285-2.4004-1.4595-1.6883-1.278 0.58192-1.6984-0.90699-0.17027-0.85907 1.4284-0.36024 3.862 0.32948 3.4385 2.209-0.52206-1.7246 2.5425-2.7364 2.3489-0.7311-0.513 0.50843-1.5421 1.3772-0.0944 1.2267 0.83935 0.81294 2.595 3.324 0.0751 2.5202-1.1836-0.20511-1.1442-1.1836-2.013 0.017-1.0827-0.0488-2.3631-2.2746-3.333-0.27659-0.69713 1.9743-0.0799 4.2544 1.3961 5.7637 2.5802 3.2328 1.5457 9.0895-2.5364 10.576-3.2178 1.0218-6.5915 0.20324-9.8712 0.18802-2.9315 0.6166-2.4357 5.3888 0.31397 5.9864 2.4474 0.64922 5.2213 1.7148 7.6161 1.4021 0.71456-0.66159 2.5365 0.36926 3.566-0.78864 1.5311-1.1015 3.6194-0.74554 5.057-2.0352 1.9129-1.5616 3.2861-3.6755 4.6997-5.6712 0.57899-0.84054 0.69248-1.527-0.4371-1.1904-1.3611-1.8702 1.8722-0.87847 2.054-2.5578 0.68808-1.8515 1.192-3.8752 1.0723-5.8659 0.0128-2.1455-2.0434-3.545-4.0393-3.0195-2.22-0.42259-1.9483-3.3132 0.45035-2.6026 1.9948 0.107 2.0669-2.1472 1.2374-3.4231-1.2313-2.4744-3.077-4.6322-5.109-6.4856-2.5675-2.0874-5.4724-3.8364-8.5918-4.9526-2.3601-0.61717-4.8187-0.91731-7.2507-0.98741-0.31777 0.0203-0.63451 0.06-0.9466 0.12354zm2.16 2.88c0.81761 1.3049-1.4626-0.26858 0 0zm12.48 4.08c1.026 1.239-2.138 1.9816-0.78138 0.38891 0.15163-0.26136 0.46422-0.49108 0.78138-0.38891zm-23.04 6.72v2.4c0.64972-1.2638 3.4221-1.2958 2.2514-3.2532 0.45038-2.7345 3.7593-2.9551 5.3342-4.6834 1.5849 0.0949 0.93272 2.7904 2.9043 2.7206 2.2758 0.0972 3.6834 2.6784 1.479 4.0074-1.4602 1.3761-3.143 2.5079-4.6912 3.7662-2.232 0.94946-3.5273-1.8159-5.4771-2.2788-1.2814 0.02223-3.4402-1.4569-1.8007-2.6787zm24.24-5.04c0.65272 1.3537-2.5981 1.187-0.5534 0.28516 0.11166-0.17753 0.3184-0.37501 0.5534-0.28516zm1.92 1.92c0.51406 1.5652-1.7117-0.15898 0 0zm-26.64 1.2c-1.1402 1.4674-0.94259-1.3869 0 0zm30.24 1.92c1.2457 1.9817-1.6832-0.10095 0 0zm-32.88 0.24c0.32591 1.8908-1.9693 0.0539 0 0zm25.44 0.96c0.67616 1.2839 0.28421-1.1829 0 0zm-6.48 0.72c0.50636-1.216 0.50372 1.1036 0.0144 0.0458zm1.44-0.24c1.427 0.22173-0.99 0.67175 0 0zm-16.08 1.2c1.3362 0.67704-1.25 0.4149 0 0zm30 0.24c-1.4106-0.6508 0.39653 1.1366 0 0zm-12 0.48c-1.4893-0.11331 0.79928 0.87161 0 0zm-15.12 0.96c1.4183 0.55588-1.1257 0.53906 0 0zm-4.32 0.96c1.1269 0.96053-1.2759 0.24165 0 0zm24.72 1.2c2.3518-0.1702-2.7204 2.9484-1.6501 0.47655 0.18482-0.78703 1.5706-2.1816 1.6501-0.47655zm2.16-0.24c1.4851-0.10747-0.74987 0.82859 0 0zm-4.32 0.24c1.399 1.9042-1.7882 1e-3 0 0zm6.72 0.72c1.339-0.56793-0.19333 1.205 0 0zm-0.24 0.48c-1.1402 1.4674-0.9426-1.3869 0 0zm-4.56 0.72c1.4575 1.6338-3.2815 1.6706-0.99202 0.18217 0.33264-0.0369 0.69459 0.0128 0.99202-0.18217zm-23.76 2.64c-0.01243 1.1754 3.1114-0.27541 1.1606 1.2327-0.72023 0.35327-1.9879-0.47425-1.1606-1.2327zm26.4 1.2c1.9634 0.0872-1.0857 1.1587 0 0zm-1.44 1.92c1.5178 0.29115-0.92943 0.88383 0 0zm-18.48 0.48c-0.30833 2.1594-1.2404-1.1858 0 0zm19.92 0.96c1.2677 0.6675 1.0946 3.9329-0.7099 3.3241 0.47318-1.0464 0.49491-2.2136 0.7099-3.3241zm-4.56 1.68c0.41955 1.2268-1.0286-0.44347 0 0zm0.48 0.48c1.448 1.357-1.4454 0.29258 0 0z" fill="#fff"/>
</g>
<g transform="matrix(0 .1773 .1773 0 17.29 .48093)">
<path d="m258.24 496.08c-2.707 4.5157-4.1925 10.295-2.16 15.36 6e-3 3.0248 2.4392 5.3062 4.9352 6.6222 2.1579 1.392 4.7273 2.2518 7.3106 1.9432 1.9659 0.27231 2.9766-1.7959 3.6746-2.9334 1.7203-0.0927 1.2469-1.8804 1.7016-3.024-0.79794-0.21868-1.6818-2.3627-0.7145-2.2941 1.0566 1.0418-0.61647-1.866-1.4252-2.0056-1.959-1.4064-4.2715-2.4655-6.6721-2.7233-0.97322 0.46085-2.8102 1.7522-2.5806-0.37643-0.47266-2.866 1.6798-5.8855 4.6121-6.1883 2.1196-0.81966 4.365-1.7633 6.6572-0.97602 1.966 0.47963 4.0007 0.80249 6.0062 0.41289 3.0156 0.031 5.5222 2.0125 7.7392 3.8322 1.5861 1.758 1.7084 4.3571 1.2319 6.5684-0.67861 0.58195-1.5285 2.5844 0.17718 1.6887 0.80257 1.4519 0.11537-2.0136 0.87549-0.21972 1.1926 1.6225-1.1037 1.7362-1.7316 2.0296-0.05 0.6075-5e-3 1.862-0.53571 0.68011-0.16677 1.3302-1.464-0.67579-0.78821 0.87835 0.0677 0.90338-2.3645-0.361-1.3028 0.97121 1.1884 0.89533-1.9777 0.38355-1.9729 0.50359-0.61636 1.2847-0.8697-2.1201-0.9172-0.11155-1.1393-0.13455-1.5541-0.17038-2.0673 0.795 0.0274-1.0475-1.5429 2.1503-2.037 0.18278 0.49739 1.2381-0.63015 2.6652 0.823 3.6341 0.52275 0.82872 2.5014 0.85797 1.6682-0.48184 1.0489 1.0998 1.1017-0.80466 0.96191-0.49412 0.52081 0.90377 1.5454 0.68881 0.50585 0.0709 0.0218-1.1193 1.239 0.6109 1.6212-0.74388 1.0634-0.68374 0.2209 0.40042-0.294 0.6703-0.0753 1.0805 0.0958 2.175-1.2924 2.1065-0.38513 1.443 2.2275-0.38152 3.0137-0.46199 1.9335-0.77518 3.6206-1.9992 5.3453-3.1184 1.6302-1.4705 2.408-3.6308 4.0066-5.1306 1.1954-2.3526 1.4274-5.0918 2.4081-7.5339 0.31105-2.4603-1.1633-4.6213-1.1965-7.0578-0.40667-2.801-2.4962-4.9572-4.5822-6.6918-0.7288 0.22351-1.2831 1.1794-0.8626-0.15371-0.97425-2.3171-3.8362-3.1216-5.9695-3.9946-2.2377-0.96553-4.4345-0.18835-6.4287-1.3589-3.1058-0.59565-6.2122 0.21472-9.2674 0.73005-1.4751 0.49128-3.3795 0.87273-4.1777 2.2472-0.10984 0.76663-0.60486 1.473-0.73878 0.244-0.50478 0.3082-1.703 2.4869-1.6595 0.79902-1.1322 1.309-2.596 2.7-3.3314 4.0542-0.0662 0.39524-0.19279 0.83861-0.56927 1.0493zm5.28-3.12c1.7908 0.74055-1.5525 3.9295-0.44883 1.1258-0.0873-0.62901 0.34866-3.0157 0.44883-1.1258zm22.08-0.72c0.35283 1.4697-1.3387-0.8111 0 0zm-24.96 1.2c1.52 0.0921-0.67634 1.4053 0 0zm-0.24 1.2c-0.19 1.6613 2.5794 1.2961 2.5576 2.0118-1.1018 0.42533-3.4987-0.4896-2.5576-2.0118zm34.8 3.36c0.72386 0.51104-1.0782 0.28272 0 0zm-34.08 1.2c0.35033 1.1768 3.1156 1.1092 1.5968 2.6083 0.0216 1.652-1.1118-0.26759-1.7668 0.14932 0.17241-0.95474 0.525-1.8376 0.16997-2.7576zm-2.4 1.92c-0.33828 1.2963-1.3978-0.49878 0 0zm35.28 3.12c1.3293-0.39656-0.47828 1.1034 0 0zm-10.08 11.04c3e-3 3.1279 2.3346-1.5172 0 0zm-23.28 0.72c1.9046-9e-3 -1.2743 2.1868-0.16615 0.17049zm26.16 3.36c1.8708-0.0198-0.40065 1.8804 0 0z"/>
</g>
<g transform="matrix(0 .1773 .1773 0 17.29 .48093)">
<path d="m236.88 520.32c-1.3022 2.9176-2.2019 6.6446-1.2484 9.3134-1.4815 1.4322-0.3287 2.6131 1.0875 1.0696 1.1033-0.40097 1.8973 0.0154 2.542-0.19776 0.57349 2.2469 2.4021 6.7718 5.1202 4.7329 0.861-1.4778 0.82045-1.0716 0.44254 0.0791 1.4038 1.4848 3.9075 0.48952 3.5504-1.1387 0.92-0.60033 0.18384-2.2235-0.21423-0.65853-0.5402-3.0564 3.3954 0.40091 0.36738 0.76585-0.43981 1.92 3.3911 0.69093 2.973 0.61088 0.12152-2.4193 1.6782 1.7618 0.15325 1.2701 1.0933 1.9714 6.4408-0.59738 4.3402 2.6926-2.065 2.0099-3.951 4.3206-4.2391 7.3179-0.82491 3.2684-0.0306 7.1598 2.8404 9.1853 1.0982 1.2022 2.9873-0.74944 2.6847 1.3695 1.4998 2.6762 4.9964 2.7216 7.662 3.3676 4.2121 0.87717 8.5252 1.1283 12.749 1.9399 2.8588-0.68413 5.7746 1.2916 5.3548 4.3052 1.2054 2.406 4.7667 2.3188 6.1829 0.18023 1.6052-1.9371 0.43096-4.5172 1.1245-6.7387 0.47009-2.6035 1.3268-5.2043 1.0398-7.8817 1.8596-2.616-1.7972-5.3829-2.7789-5.2253 2.648-0.53999 6.1793-3.8081 2.3602-5.3495-0.1105 0.30127 2.1577 0.82059 2.0669-0.9465-0.04-2.67 0.33566-5.2686 0.91129-7.8754 0.43685-2.8376 0.38527-6.6111-2.5222-8.1411-3.5816-1.6049-3.7244 3.8722-6.4485 4.6168-5.2604 0.19596-10.561-0.64102-15.597-2.2103-0.70475 0.62722-1.0482 4.217-2.1685 2.3779 2.6222-0.93169-6e-3 -4.0598-1.9591-2.8145-4.024-0.624-8.1339-0.80878-12.087-1.7772-2.8508-0.25369-6.046 1.4412-8.6049-0.48343 0.16713-3.0412-2.3186-6.628-5.5918-6.4383-2.1985 0.0622-2.1798 2.7435-0.86866 1.8784-0.21113 0.34503-0.72839 1.5099-1.2254 0.80383zm3.12-1.2c1.4802 0.0754-1.0252 1.0809 0 0zm2.4 0.48c-0.21431 1.2317-0.61892-0.96108 0 0zm-2.88 0.48c1.0132 1.9051-2.1238-0.0527 0 0zm0 6.24c-0.0656-2.2378 0.56347 1.5442 0.88823-0.39753 1.0896 1.2302 0.4481 2.6076-0.6319 1.413-1.4501 1.018 1.1837 4.3473-0.77325 1.7977-0.61233-0.43741-0.22458-3.268 0.51692-2.8132zm13.2 0.48c-0.89156 1.6246 3.4497 5.6429 1.8363 2.163-0.76081-1.5241 0.87328-3.6888 0.33835-0.80017 0.6404 0.91074 2.3711 4.6478 1.4235 4.4537-0.72629-2.3543-0.79348 0.79803-2.0219 0.5286 1.4055-2.0789-3.5088-4.296-1.5763-6.3452zm6 0.24c1.7808-0.1322-1.2344 1.1742 0 0zm2.64 1.2c0.54889 2.8492 1.2712-1.9795 3.1021-0.14365 1.1186 0.65483-1.0504 0.38755-1.1713 1.4933-1.0978 0.83806-2.9268 0.10967-1.9308-1.3496zm5.04 0.48c0.39639 2.146-1.4104-1.175-0.28471-0.31966l0.26101 0.29106zm3.12-0.24c1.8454 0.22999-1.2067 1.0931 0 0zm-31.44 0c0.68527 0.8855-0.25649 0.83025 0 0zm26.16 0.96c-0.98547-1.6311 1.7602 0.22363 0 0zm-24 0.48c2.3503-1.6078-0.0719 2.5878 0 0zm38.64 0.24c2.7109 0.82396-2.2607 1.6673 0 0zm-20.16 0.24c1.5501 2.4476-1.3379 1.3325 0 0zm-14.16 0.48c2.5525 0.52494-1.4144 2.431 0 0zm-7.92 1.44c-2.3849 1.4217 4.4156 2.4843 2.1055 0.47098 1.7445 0.0987 0.54583-2.0767-0.47528-0.94429-0.76458-0.81474-3.2946 0.13047-1.6302 0.47331zm5.76 0c2.5279 0.0617-0.8093 2.2637 0 0zm1.2 0.24c1.7053-0.43832-0.41154 1.7251 0 0zm34.08 0.96c1.0536 0.61619-1.3353 0.45174 0 0zm-37.44 0.48c-1.6149 0.98273 1.628 0.86656 0 0zm31.68 0c1.6797 0.40556-1.1796 1.3589 0 0zm18 1.2c2.1989-1.2236-0.12545 1.9405 0 0zm-14.88 0c2.4634 0.11187-0.87026 2.3813 0 0zm17.28 0.24c1.636-0.66912-0.7838 1.0139 0 0zm-42.24 0.24c-1.2346 0.45488 0.94854 0.41271 0 0zm9.12 1.2c0.34997-1.4055 0.78032-0.0695 0.1826 0.3856l-0.0647-0.0341zm1.68 7.44c1.974-1.0087 2.0426-3.9215 4.3229-4.8392 1.1417-0.82274 3.5811-3.888 4.72-1.9086-1.7116 0.51286 2.9519 2.4309 4.0201 1.5756 3.7092 1.2391 7.798-0.28279 11.442 1.2586 1.0609 1.5368-1.4702 4.7836 1.4673 5.1787 0.66304 1.7156-2.6508 1.3244-2.1865 3.2904-2.1282 2.7527-5.8954 1.385-8.6855 0.72245-2.6805-0.8103-5.4417-0.0279-8.1682-0.50309-2.6534-0.15455-5.6145-1.4519-6.3308-4.2542 0.40203-0.41894-0.34284-0.69805-0.60118-0.52061zm26.88-5.76c1.3339-1.528 0.23377 1.2704 0 0zm3.12 1.2c1.3568-2.4883 1.6918 1.6119 0 0zm-1.68 1.68c1.6102 0.0716-1.2283 0.8964 0 0zm2.4 2.4c0.44698 2.58-2.7856 1.142 0 0zm-34.8 4.32c-0.42413 1.854 2.4307-0.36192 1.5036 1.821-1.119 0.45651-2.4766-0.73652-1.5036-1.821zm2.64 1.92c1.3201 0.51843-0.68837 1.4032 0 0zm-2.88 4.08c0.47222-1.3916 1.3519-3.9194 1.1783-0.80834-0.19452 1.116-3.0232 3.3912-1.1783 0.80834zm23.04-2.88c0.56483 2.021-1.8363-0.76507 0 0zm4.56 0.96c0.87517-1.6969 0.27647 1.1016 0 0z"/>
</g>
<g transform="matrix(0 .1773 .1773 0 17.29 .48093)">
<path d="m248.64 575.52c-1.3551 1.3123 0.88324 5.1773 1.8143 4.0032-0.75146-0.9869 1.3022-2.5097 0.3972-0.69465-0.28444 3.074 3.8204 1.2096 5.512 2.2987 2.4189 0.76738 4.955 0.65319 7.427 1.0232 4.659 0.9027 9.3836 1.3245 14.109 1.6843 2.2273 0.0825 1.0745 4.289 3.7732 4.6098 2.1138 1.9694 5.831 0.0256 4.7641-2.9181 0.82747-1.2929 0.52426-4.309-1.3124-2.7035 0.0416-1.2063 0.14836-2.6809 1.5528-1.9276 1.038-1.0977 1.4668-3.5208 0.91587-4.7973-0.90863-0.80304 1.0925 0.20295 0.25165-1.0469 0.40148-1.4004 0.34944-4.0406 0.45465-4.5507 1.5888-0.53815-1.9556-2.2081-2.5962-2.3908-0.51488 1.0238-0.68642 3.5814-0.87518 1.5753-1.8698-0.19247 1.1064-1.0157-0.88078-1.5416-3.2128-0.88766-1.89 3.8938-4.8075 4.0127-2.7283 1.1174-5.0026-1.3493-7.7378-0.59989-2.2734 0.0821-4.5353-0.37041-6.8089-0.48327-1.8786-0.08-3.5213-1.1334-5.4029-1.0884-3.0932-0.0143-0.34193-3.2854-2.206-4.372-1.3038-1.1484-1.8238 2.4643-1.3486-0.0429 0.46932-2.5626-4.7628-1.787-4.8421 0.0162-0.70467 3.3182-1.1683 6.6825-2.1539 9.9342zm-13.92-10.32c0.74839 2.2915 1.3262-1.8582 0 0zm-2.16 1.68c-2.0096 1.4592-4.2656 4.6337-1.4862 6.5232-8e-3 1.3323-0.0336 3.0101 1.84 2.4444-0.1672-1.0301 0.20412-1.8567 0.1712-2.8979 0.41536-0.17165 0.37533 1.3866 1.2277 0.11084 1.0642-1.0107 2.1371-3.2316 0.25886-3.4658 0.85831-1.9018 0.98636 0.75224 1.8487 0.58319 0.93933-0.43867 0.10811 1.9968 0.10444 2.2595-1.0156-1.8752-2.8926 2.1199-2.789 2.5667 1.0765-0.95654 0.13632 0.60544 0.96905 1.0132 0.0151 0.91092-1.5744-1.0502-1.2618 0.52503 1.0869 0.72868 1.4861 0.47868 1.9603 1.7616 1.5018 1.5979 3.092-1.0198 3.7015-1.0898-1.1086 0.89655-1.3302 2.2713 0.44166 1.6555 0.55197-0.59521 1.4636-1.2905 1.0069 0.0469 3.1182-0.20139 4.2667-3.7368 5.0681-6.239 0.37916-1.4465-1.0978-2.8785-1.5038-3.1382-0.55474-2.9431-4.1964-3.4519-6.5328-4.2903-2.1535-0.30515-2.4256 2.3263-1.7532 3.2729-0.70613-1.7156-0.59871 1.3901-1.4689-0.38964-0.48072-1.5829 1.1951 0.24274 0.6394-1.3301-0.2392-1.055-1.2933-2.0409-0.8924-0.38474-0.47965 0.24776-1.1917-0.0585-1.5498 0.46266zm0 0.24c0.44267 0.6327 3.3275 2.318 1.526 2.0765-0.9826-1.0882 0.12307 2.1522-0.90536 0.31424-0.46491-0.67545-0.94482-1.5544-0.6206-2.3908zm3.84 0.96c2.8951-0.21803-0.76872 2.3763 0 0zm18.48 0.48c1.2864-1.2075 0.47041 0.84458 0 0zm-15.12 0c1.5333 0.12103-1.2164 1.2505 0 0zm-7.44 1.44c0.5719 0.36186 2.9269 0.75624 1.5578 0.80287-0.98859-1.5-1.1489 1.7605-1.1981 2.1362-0.78047 1.1115-0.48645-1.9384-0.19899-2.1081-0.40069-0.50785-1.6393-0.80951-0.16071-0.83094zm2.16 1.44c-0.0108 2.0568-1.7757 0.23675 0 0zm50.64 1.2c2.0861-0.45289-0.80942 1.5525 0 0zm-0.96 0.72c2.2592-0.0761-0.22805 1.9779 0 0zm-30.96 0c0.85463 2.0842-2.0915 0.77403 0 0zm-12.48 2.16c1.2817-3.1325 1.3916 1.8232 0 0zm13.44 0c0.19566 0.77509 0.44143 2.0877-0.50761 0.89427-0.92107 1.6226-0.82299-0.27235 0.10325-0.73683zm31.68 1.2c0.87666 0.49078 1.318 2.8601 0.27902 0.93893l-0.20309-0.45057zm-10.8 1.44c1.8968-0.2917-0.3388 1.8616 0 0zm11.28 0.72c-0.16621 2.1913-2.6232-0.0549 0 0zm0 0.72c1.3141 0.18206-0.79361 1.1212 0 0zm-1.44 3.84c3.0948 0.52841-1.402 2.7871 0 0z"/>
</g>
<g transform="matrix(0 .1773 .1773 0 17.29 .48093)">
<path d="m227.04 589.44c0.024 2.7662-1.8142 5.9354-0.2378 8.4172 2.906 2.9082 7.3876 1.8352 11.012 2.9269 3.6825-0.0619 7.2468 0.1376 10.811 1.2516 3.2337-0.81651 6.1141 1.7541 9.4379 1.2106 2.1215-0.35903 7.028 2.4722 7.3263-0.28663 1.6074 0.88212 4.2488-2.2937 3.3419 1.06 0.7506-1.9251 4.3492 2.4661 4.3459-0.80609-2.2706-0.24504 2.0971-4.3906 0.89036-1.1398-0.89745 3.0671 3.8582 3.1984 3.1369 6.4987 0.83139 1.6331 1.6264-2.6241 1.2497 0.46558-0.53669 2.796 2.4873-0.7216 2.5811 1.7797 3.8699 0.0331 1.9415-4.3111 3.421-6.7934 0.20201-3.5443 0.15239-6.2753 1.2934-9.5663 0.95514-1.6094-1.2407-4.6171-0.96314-1.545-1.0403 2.6253-0.37587-5.6062-2.8138-2.2489-2.6065-2.7904-3.5242 4.4555-6.6177 3.0198-2.9936 0.75198-7.6272-2.0794-9.0777 2.0709-0.20169 2.0776-1.867 1.0416-1.2163-0.19483-0.4088-0.43614 0.74529-4.981-2.5948-3.6966-4.6019-0.38256-9.1868-0.94192-13.787-1.3477-0.96643 0.42687 1.4574 1.1506-0.21961 2.1948-0.2009-1.8142-1.8777-2.2284-2.0824-1.8708-1.4768-2.0654-5.1062-0.99838-7.2608-1.3065-0.89694-0.13469 1.1876 0.19158-0.18342 1.2195-1.7556 1.1302-0.74928-2.2728-3.2648-1.3776-1.7976-0.19491-1.6702-2.3363-0.17935-1.9669 0.45134-2.8494-2.0057-6.2474-5.1087-5.2845-3.1993 1.0787-2.6074 4.73-3.241 7.3163zm7.2 1.2c2.6041-1.1418 1.9496 1.2187 0.0161 0.39656zm44.88 0.96c2.9386-1.8373 2.2808 3.0686 1.6917 3.794-0.77675-1.3778 0.60342-3.8296-1.6884-3.4063zm-29.28-0.48c3.4074 1.8388-1.3223 1.937 0 0zm4.32 0.96c0.80217 0.65347-1.0124 0.20408 0 0zm11.52 0.24c-1.2262 3.0692 4.6707 0.71952 1.0416-1.6e-4l-0.52248-0.0137zm-0.48 1.2c-0.19744 1.1238 1.1922-0.42695 0 0zm-1.68 0c2.2144-0.0206-1.251 1.2882 0 0zm-35.04 0c1.786 0.57482-1.3228 1.1435 0 0zm26.88 0.24c2.7008 0.21574-1.3537 2.3368 0 0zm-14.4 0.96c2.3604 0.10561-1.3573 1.8595 0 0zm26.88 0.24c1.7529-0.91842-0.34633 1.7509 0 0zm0.24 4.56c2.3428 1.2632 2.5745-1.738 1.3304-2.7957 0.64987-0.6992 3.9635-1.8481 3.5357-0.81996-2.4329-0.76992-2.2376 5.9493-0.0284 3.6108-0.61685 3.258-3.2108 0.14251-4.8378 5e-3zm-41.04-3.84c0.11886 1.3821-1.0287-0.29485 0 0zm29.28 0.24c2.1713 0.25241-1.1794 1.7874 0 0zm-20.64 1.2c1.5105-0.75515 4.1223 1.4152 2.4149 2.7468-0.7294-0.0359 0.52637-1.7368-1.2837-0.86011-0.87149-0.42372-1.6724-1.8813-2.5735-0.032-1.3917-0.37602 0.36321-3.3441 1.4423-1.8547zm37.2-0.24c2.341 0.23731 1.9652 2.8062-0.0732 0.90059l-0.0731-0.42651zm-2.4 0.72c1.007 2.517 0.0797-2.1182 0 0zm-37.68 0.24c2.3654-0.2335-1.8181 1.1414 0 0zm4.08 0c-0.16946 1.4013 1.4433 0.45029 0 0zm-1.68 0.96c1.2823 0.0775-0.521 1.18 0 0zm41.52 1.68c2.0901 0.24766-0.89952 2.0315 0 0zm-10.32 2.64c-0.78539 2.8202 4.1255-0.0395 0 0zm12.48 2.64c0.54451 2.0064-1.5909-0.85658 0 0zm0.72 1.2c1.4594 0.79764-1.6919 1.031 0 0zm2.16 1.2c-0.39465 2.6557-2.0881-1.6302 0 0zm0.96 0.72c1.1575 1.1272-1.5883 0.44172 0 0z"/>
</g>
<g transform="matrix(0 .1773 .1773 0 17.29 .48093)">
<path d="m221.28 633.6c-2.8927 3.2452 0.46867 7.9921 4.3263 7.3371 1.6652-1.6684 1.1606 2.2598 3.8061 0.93791 1.7816-1.1015-0.76457-2.0359 1.2922-2.891 1.9919-3.302-0.69018 5.1261 2.9533 3.4611 4.787-0.49399 9.3127 1.4721 14.064 1.388 5.4807 0.20413 10.792 2.0356 16.274 1.9252 3.1761 0.43817 8.0884 0.37177 8.4118 4.6226 2.2811 3.2837 6.9086 0.84115 6.5939-3.1567 0.67759-1.5676-3.8432-7.2145-0.46025-4.2698 1.8206 2.4965 1.882-6.6648-0.8877-3.0427-0.46137-1.185 1.8076-2.3883-0.6794-2.994 1.8491-3.2854 5.9962-6.4618 5.2382-11.196 0.14267-4.6674-2.4083-8.9141-6.0883-11.62-2.7004-2.9672-6.61-4.6135-10.596-4.6883-3.2156-0.84203-6.5344-0.86751-9.7966-0.57806-3.2562 1.1785-7.0044 1.5954-9.6178 4.0542-4.5403 4.5039-6.1902 12.348-2.6884 17.932-2.0392 1.4169-5.6065-0.33653-7.6489 0.46083-1.59 2.6127-1.4198 0.88105-1.4592-0.8856-3.0338-0.0561-5.5106 0.027-4.8172-3.9272 0.8089-3.9119-5.411-3.6597-2.7335-0.0124 1.0493 2.6858-5.2886 3.8804-1.8064 1.8176 2.8381-1.521-0.96821-8.2419-1.5847-3.2985-2.0093 2.5387 0.91317 4.9588-2.1847 7.3666l-0.12253 0.57926 0.2117 0.67708zm26.64-19.92c1.711 1.2842 2.2733 4.0807-0.31761 2.7427-0.33409 1.2818 0.11412-2.5611 0.31761-2.7427zm-2.4 0c2.3456 0.33664-0.99201 2.2676 0 0zm8.4 3.84c2.4077-0.56601 1.4924 4.3968 0.40844 0.59863zm-4.32 7.92c1.905-4.2257 7.3341-3.5743 11.153-3.5354 4.7502 0.2303 9.3864 1.9333 13.161 4.8072 0.78635-0.75223 3.4034-0.39414 1.8016 1.2451-2.8188 1.1782-4.5631 3.9976-8.4241 5.6088-2.4352 0.65404-5.8516 0.0957-4.213 2.9866 2.7396 0.081 1.1178 5.6904 0.74478 1.7443-0.55166 0.50191-3.3529 2.7939-2.6317 0.46502 3.7136-0.2737-0.71685-4.8867-1.8385-1.866 2.8034-1.7461 1.7635-3.8908-1.335-3.2101-4.1299-0.60396-9.1068-2.5786-8.6434-7.5889zm-24.24-2.16c1.2843 0.78093-0.0427-1.4343 0 0zm3.6 3.12c-1.1602 1.6192-2.0253-1.1631 0 0zm-1.68 1.2c1.5657-0.73563-0.95026 0.94765 0 0zm1.68 0c-0.17967 1.2779-1.219 4.845-0.90918 1.4302 0.14022-0.53515 0.28165-1.2448 0.90918-1.4302zm-1.92 1.2c1.8787-0.26721-0.76287 1.1488 0 0zm-3.84 2.16c1.5019-2.4764 5.7198 1.5166 2.0341 0.93027-0.54809 1.2566 1.1764 3.4166-1.0406 2.2971 0.66577-1.5648 0.26997-4.1175-0.99351-3.2274zm23.76-0.24c2.0885-0.23037-1.2074 1.607 0 0zm-12 2.88c2.3671 3e-3 -0.85692 2.2691 0 0zm31.92 1.68c1.3851 0.76844 1.345-1.4628 3.323-0.70779 1.3528-0.57607-0.52558 6.7943-0.63259 2.365-1.4247 0.27158-3.0905 1.4809-2.0519-1.0914l-0.1613-0.33877zm-41.28-0.24c1.5061 0.21395-1.1329 0.85584 0 0zm-2.16 1.2c-1.9949 2.6976-1.9932-3.0464 0 0zm24.48-0.48c2.4206-0.14805 3.0793 1.7884 4.1461 2.1492 1.6107-0.0676-1.9331 1.5482-2.3259-0.36533-1.5022-1.0658-3.0395 1.0444-1.8202-1.7838zm-23.76 0.96c1.1137-0.58736-0.2517 1.1337 0 0zm-0.48 0.72c1.69 0.23142-1.3 1.4715 0 0zm35.52 0.96c1.7163-1.6892 1.4191 4.2774-0.28591 0.96444l-0.0529-0.19379zm14.88 0c2.2552-0.17674-0.90177 2.1008 0 0zm-24.96 0c1.587-1.01 4e-3 1.793 0 0zm2.88 0.24c1.3787 0.0831-0.69415 1.2482 0 0zm2.16 2.4c1.1664 2.2482-1.8036 2.6713 0 0zm14.88 3.12c1.6478-0.80465-0.17571 1.3137 0 0z"/>
</g>
<g transform="matrix(0 .1773 .1773 0 17.29 .48093)">
<path d="m303.12 508.8c-2.4799 2.7132 3.5497 4.9206 3.6263 1.1605 0.33222-1.1376 1.178-5.0093 1.8915-2.4391-1.028 1.4623-1.3977 3.7611-0.56805 5.1032 0.79529 0.0276 1.4354-3.0054 1.5723-0.79915 1.8981-1.0207 3.5301-3.2227 5.8479-2.0971 1.458-0.24483 3.3589-1.3742 4.3642-0.22436 0.72707-0.97016 1.3294-2.4738 1.7146-0.39862 0.87783 1.3435 1.3346-1.9999 1.6689-3e-3 -0.12532 1.1957 1.8311 1.4278 1.5587 1.2639-0.73278 1.2162 0.49293 2.9062-0.82377 3.6699 0.16198 0.85 1.0625 2.034-0.42667 1.2389-0.85237 2.978 3.9165 3.6008 6.0338 3.2028 3.2346-0.97906 0.45585-6.3068 3.6652-6.846 2.3874 0.40252 4.735 0.54631 7.1394 0.56862 2.4868 0.29983 4.9284 0.893 7.4185 1.1692 1.9165 1.7695 6.9435-0.75219 6.8297 2.5129-0.91346 2.628-0.34767 5.993 2.8279 6.4988 1.6677 1.0847 2.957-3.9279 2.4756-0.90903-0.32279 2.452 1.4572-1.1581 1.2615-2.0528 0.79848-3.5743 1.2339-7.2201 1.4895-10.871-1.2361-0.41311-0.92856-1.3391-1.2071-1.2081-1.0658-1.0081 0.73263-2.6119 0.84248-0.53527 1.5817 0.67113 1.0622-3.5019 1.2432-4.7568-0.48645-1.557-1.5818 3.41-2.5469 0.57415 2.6164-1.0113 2.7742-4.7105-0.35075-5.0415-3.4402-1.3689-3.5788 2.7969-5.3382 4.5158-2.3067 1.3121-4.5631-1.4457-7.1277-0.45596-1.9221-0.65453-3.9216-0.66115-5.9702-0.95704-1.7952-0.37265-3.6815-0.41983-5.4536-0.6885-1.6063-0.85111-2.9919 1.6758-0.67379 1.5593-0.93924 1.6284-1.934 0.38355-2.2699-0.7599-1.1707-0.23827-0.76003 3.0153-1.6304 1.1149 0.67714-1.9427-1.3311 0.27465-0.9027-1.4626 0.26493-1.0318 2.4419-1.5002 1.8435 0.0684 1.9319-1.1072 0.18277-4.6513-1.2822-5.3976-1.7551-1.5811-5.7631-2.3712-5.6935 1.0789 0.12079 3.6668-4.1603 2.2291-6.3582 1.85-3.02-0.30746-5.9378 1.0167-8.7517 1.955-3.2992 1.3152-6.4257 3.7002-7.6997 7.1017-0.26231 1.142 1.3223 3.4405 0.48757 3.6638-0.30889-0.6301-0.47441-1.3159-0.72753-1.9679zm58.56-9.84c1.6366-0.22063-1.1303 1.0219 0 0zm-17.76 2.88c0.72292 1.4954 2.695 0.40773 2.8895 0.58265 0.75771 2.6401-2.6553 0.31885-2.4621 0.87428 0.14561 1.745-1.3374 0.2832-0.80851-0.50721-1.7919 1.7386-0.54646-0.75365 0.38114-0.94972zm-24.96-0.72c1.4033-0.0366-0.64782 1.249 0 0zm-4.32 2.4c-1.118-2.1953 1.5356-0.8745 0.54008 0.54843 1.102 2.0156-2.0939 2.3456-1.5208 0.88265 2.2994 0.18623-1.8616-2.4558 0.98069-1.4311zm0.72-1.68c1.5381 0.13611-0.89511 1.1279 0 0zm20.4 0.24c1.8614 0.22753-1.1664 1.4243 0 0zm12.48 0.48c0.61147 1.5866-1.7051 1.3788 0 0zm-20.64 0c1.7162-0.58002-0.67473 1.4387 0 0zm15.12 1.2c2.173 0.0348-0.81245 1.8928 0 0zm-5.76 2.16c1.3193-2.6604 1.6535 3.1251 0.25669 0.41839zm21.12-0.96c1.6559-0.98492-0.0957 1.6051 0 0zm-52.08 0.24c1.3752-1.4101 0.5405 1.444 0 0zm18.96 0c1.8786-0.39479-0.6937 1.6968 0 0zm4.08 1.68c1.3545-1.1922 0.30918 1.3114 0 0zm23.76 0.96c0.66176-1.9178 0.61781 1.7165 0 0zm-23.52 1.92c-0.32971-2.4417 1.4654 1.1007 0 0zm8.4-0.24c1.7099-0.39384-0.27115 1.2583 0 0zm-7.68 0.72c1.0319 0.5719-1.1846 0.32215 0 0zm1.92 0.24c1.3602-0.21162-0.46124 1.2197 0 0zm15.12 0.72c2.8229-0.1507-1.3526 1.7816 0 0zm-20.16 0.24c1.4622 1.1778-0.78812 2.0306 0 0zm-20.88 9.84c0.66273 0.14128 1.2397-0.47949 1.0454 0.94515 0.91955 0.84454 2.6194-0.0523 2.0886 1.3788 1.9236 0.29664 3.8869-0.42737 5.7517 0.20481 1.5438 0.0593 1.9406-2.0383 1.4218-2.1898 2.9421 1.0029 4.1339-2.4478 3.7023-4.7825 0.14465-2.8075-4.0824-4.3086-3.1828-0.66027 0.11269 2.068 2.2376-1.9486 1.9177 0.33549-0.39724 0.4897-2.0692 2.9444-2.787 1.3139 1.186-0.24724 0.20149-3.1447 0.38664-4.4751-0.6113-2.4216-3.3423 0.27425-4.6196-1.5141-3.515-0.0418-2.8912 4.2562-3.305 6.6406-0.61749 0.85883-0.58783 3.653-1.9596 1.5957-0.26966 0.36595 0.0171 0.96328-0.45999 1.2073zm-2.4-7.2c1.3649-9e-3 3.9471 3.6618 3.4419 1.3418-1.4796 0.35515 0.0157-2.4073 0.15809-0.38181-0.84882-1.0355 1.9564-2.8002-0.62624-2.6923-1.4222-0.51529-2.2689 0.7183-2.9738 1.7323zm22.08-1.2c1.2815-0.72975-0.49127 1.1123 0 0zm-22.32 0c-0.26814 1.4588 1.3139-0.66906 0 0zm8.88 2.64c0.95399 0.2841 1.634-1.2006 1.1946 0.72672-0.308 2.0359-0.641-0.12508-1.1925-0.72388zm-3.84-0.48c-0.81898 1.5322 1.513 0.14023 0 0zm52.8 0.24c1.5928 0.0598-1.2174 1.0595 0 0zm-56.16 0.24c-2.0508 0.21766 0.43113 3.8605 0.17093 1.0349 0.0337-0.33534 0.0827-0.75739-0.17093-1.0349zm9.6 0.48c1.5124-1.2064-0.18094 1.5768 0 0zm43.68-0.24c2.6845 0.46199-1.5405 1.6875 0 0zm1.92 0.24c1.8086-0.49304-0.60371 1.7363 0 0zm-49.68 0.24c1.2048 2.9686-2.2527-0.89136 0 0zm-2.64 0c-2.5678 1.2866 2.1814 1.825 0 0zm-1.92 0.96c0.73138 0.48589 0.23102-0.62521 0 0zm20.64-0.24c3.249-0.5844-0.7403 2.6003 0 0zm-8.64 0.96c2.0393-1.1663 0.324 3.9334 0.56903 1.0188-0.16592-0.35293-0.40912-0.66266-0.56903-1.0188zm-3.36-0.48c1.0145 0.69407 0.16335 2.6681 0.6766 3.0264-1.4674 1.0484-1.0962-2.7405-0.6766-3.0264zm-10.32 2.4c-0.29904 1.408 1.598 0.96904 0.61446-0.1478 2.7552-0.0678-2.1284-3.0014-0.9654-0.21824zm2.4-0.48c-1.2005 0.0885 1.8024 1.107 0.39851-0.5528-0.33973-0.48883-0.39386 0.40216-0.39851 0.5528z"/>
</g>
<g transform="matrix(0 .1773 .1773 0 17.29 .48093)">
<path d="m320.64 542.64c-2.5223 3.3993-4.4714 9.1497-0.52604 12.283 2.9934 2.8612 8.0857 3.6886 11.588 1.3663 2.8384-2.0327 1.7347-6.4099-1.4373-7.4344-3.2407-0.822-2.6588-4.3092 0.71875-3.7122 3.7284-1.1556 8.8531-0.9969 11.798-2.0586-2.8944-3.3882 3.1921-3.7077 2.4706-0.44739-0.89239 4.3193 4.254 0.12638 1.3474-1.4898 2.9491 0.40339 1.764-2.724 1.0808-3.5627 1.9668-1.2766 3.5828-4.9731-0.35931-3.6906-2.572 1.5493-0.69215 2.259 0.34063 1.6171 0.87375 3.4658-2.5236 2.8889-3.4002 0.63802-1.1054 0.62256 1.3029 4.2124-0.59396 1.6274-1.0021 2.4178-2.9783-0.1878-1.3946-1.7263-1.5447-0.54275-3.8575 4.5036-3.2734 0.99449 3.1481-1.6017 3.4982-5.4803-0.78428-5.0244-3.4759-0.97713-8.4268 1.156-9.6036-3.5466 0.26013-3.5626-4.8947-5.4541-6.6951-2.2792-1.1032 3.0787-0.93331 6.5201-1.9036 9.7035-1.3771 3.0975 5.8595 4.7593 0.6274 6.7424zm33.12-14.4c-0.82396 1.3982 1.3957-0.51168 0 0zm-2.4 6c2.2793 2.4507 1.3077 5.8818-1.2249 7.3257 0.60044 0.75731 4.2258 0.84403 1.7792 1.5575-3.6143 0.63149-0.30387 6.1095-0.92288 8.2653 1.004 1.4192 4.6666 2.523 4.4086-0.22322 2.5609 1.4175 0.89339-3.2529-0.33622-1.4011-0.32873-1.7704 0.70543-1.9658 1.582-1.203 2.3533-2.1115 0.44452-6.1522 2.0354-8.9138-0.0384-2.7119 2.8771-9.5509-1.448-8.9463-1.927 3.0831-0.24514-2.7755-2.4433-1.1794 0.42652 1.5038 2.1733 5.96-0.86954 5.1652 1.1017-2.1163-1.9144-1.5663-2.164-0.74903-0.20464-0.33465-1.1297-0.59562-0.3964 0.30203zm1.68-3.12c0.46003 0.7972 0.26425-0.83267 0 0zm0.72 0.48c0.18104 1.8867 1.6134-1.8261 0 0zm-11.28 0.96c-2.5713 2.3086 4.525 2.6822 0.75275 0.17728zm-2.16 0c1.9805 0.0757-0.96536 1.8686 0 0zm-3.6 0.48c2.1474-0.63774-0.56483 1.835 0 0zm10.8 0.96c1.4779-0.20684-0.60825 1.2275 0 0zm6.72 1.92c4.5643 1.2638-2.7165 3.0133-0.31737-0.29742zm-2.16 0.72c-0.7682 1.125 0.96154-0.29805 0 0zm-3.84 0.24c-1.4891 3.0737 4.4181 1.9237 2.7747 1.4241-1.085 0.71565-2.5216-0.30426-2.7747-1.4241zm1.44 0.96c3.811 0.42589-1.6989-2.1687 0 0zm-4.56 1.44c1.0318-1.7372 0.20534 1.5975 0 0zm-16.32-0.48c1.8195-1.6664 0.28296 1.787 0 0zm19.68 2.16c-3.2529 1.2854 2.1101 5.9911 1.2376 2.3351-0.53596-0.82934 0.809-4.2756-1.2376-2.3351zm-8.4 0c1.7865 0.30667-1.0897 1.4063 0 0zm2.88 1.44c1.3145 0.9416-0.0799-1.6845 0 0zm-14.16-0.48c1.345 0.33148-1.0556 0.61789 0 0z"/>
</g>
<g transform="matrix(0 .1773 .1773 0 17.29 .48093)">
<path d="m315.6 568.32c-0.36331 1.3269 0.12359 5.208 1.7628 3.6319 0.6594-2.6861 0.39737 2.8156 2.7674 1.4648 3.947 0.63079 7.8771 1.3346 11.865 1.6969 4.3658 0.85422 8.8007 1.157 13.21 1.6921 2.0353 1.9579 3.0266 6.5345 6.8244 5.0159 2.2484-1.3245 3.0623-6.8483 0.11402-6.711 0.72131-1.9894 3.6198-2.0806 2.5987-5.0585-0.0906-2.679 1.2818-5.6695 0.47042-7.9752-1.2951-1.7182-3.2049-0.2236-3.2643 1.0215-0.68479-1.2235-0.1353-2.547-2.6248-1.9637-1.018 2.3425-3.0913 5.0975-6.328 3.8875-3.1495-1.1216-6.5758-0.36883-9.8235-1.01-2.8903-0.65137-6.5006-0.20577-8.5155-2.5336 0.29917-1.574-0.54008-4.7859-2.0983-2.2016 1.4695-4.3977-5.9784-2.4179-5.2391 1.1346-0.32949 2.6855-0.75964 5.362-1.7193 7.9084zm-13.68-10.08c0.88741 1.336 0.71199-1.7271 0 0zm-2.16 1.44c-2.8075 1.6159-3.7975 4.9952-1.5331 7.2519 0.40341 3.4103 2.4332 1.1244 2.1862-1.0524 2.0705 0.80589 3.0257-3.4298 1.4953-3.7429 2.0036-0.37184 2.7138 3.6358 0.76495 2.7652-2.2999 1.4562-1.4228 2.9576-1.1059 4.1806-2.7761-0.0231 1.1317 1.2548 1.3962 2.3572 1.7676 0.49656 4.137-3.014 2.409 0.0144 0.63025 1.4657 2.1996-1.1569 3.0118 0.14517 2.8688-1.0602 5.1243-5.2809 3.8172-8.1416-1.3681-3.1784-4.6004-5.0548-7.9988-5.3777-2.0551-0.51401-1.4061 5.5335-2.6749 2.3953 1.6935-0.90153-0.56988-2.7698-0.7148-1.3072-0.423 0.0264-0.62082 0.51708-1.0534 0.51194zm0 0.48c1.4091 0.73892 2.4696 1.6813 1.1225 2.2737-0.76527 0.73763-1.617-1.7508-1.1225-2.2737zm3.84 0.72c2.8229-0.206-0.94135 2.2635 0 0zm18.48 0.48c0.83365-1.0668 0.40758 0.9448 0 0zm-15.36 0c1.7652 0.28064-1.1222 1.1945 0 0zm-7.44 1.44c1.2825 0.36755 2.9935 0.94131 1.0247 0.73759-0.7601 1.7039-1.1597 3.0386-0.70004 0.48016 8e-3 -0.4321-1.5162-1.2681-0.3247-1.2178zm2.16 1.44c0.61241 1.5997-1.7239 0.69505 0 0zm50.64 1.2c1.8695-0.52763-0.39562 1.4698 0 0zm-0.96 0.72c2.3054-0.61429-0.14543 2.0266 0 0zm-30.96 0.24c1.122 1.7889-1.7204 0.50858 0 0zm-12.24 1.92c0.55502-2.8364 1.6718 1.5537 0 0zm13.2 0c1.4381 2.425-3.1785 1.5607 0 0zm31.68 1.44c1.7632 0.44121 0.86875 3.2145 0 0zm-10.56 1.44c1.5181-1.0982 0.12786 1.5289 0 0zm11.28 0.48c0.076 2.3682-2.8084-0.1593 0 0zm-0.24 0.96c1.1948-0.68593-0.18428 1.3188 0 0zm-1.2 3.84c2.666 0.18886-1.4981 2.1389 0 0z"/>
</g>
<g transform="matrix(0 .1773 .1773 0 17.29 .48093)">
<path d="m314.4 585.84c-1.1495 3.0834-4.3958 5.539-4.0333 9.0149 0.0601 2.5923-0.80332 7.127 1.281 8.3451 0.5878-1.0456 0.51674 2.6568 1.8811 3.1542 2.5802 3.2302 6.123 5.7515 10.192 6.6706 2.1512 0.68543 4.9237 3.0209 6.8839 0.733 1.9765-2.1895 0.8409-5.256 1.5538-7.8582 0.11851-3.0816 1.2167-6.0346 1.2471-9.1166-0.26853-1.4565-3.0629-0.75049-1.7358 0.58764-1.6173-0.33205-2.4231-3.0635-0.31286-2.8023 0.32215 3.1174 4.1505-1.0965 1.2677-2.4647-1.5687-0.51507 0.72058-1.9789-1.4243-2.357-0.46752-2.5959 2.803 0.88751 2.4138-1.3344-1.6485 0.95444-1.4438-1.1806-1.6781-1.8632-0.86421 0.99279-3.1808 2.6817-2.9502 3.1006-0.9031-1.4904 2.5156-3.4178 2.5467-3.5984 1.5816-1.3615 1.2104 2.8599 2.5649 0.71058-2.6404-0.49111 1.3255-4.3679 1.237-1.1429-1.4326 0.66518-0.44855 1.7206 0.39654 0.63917-0.022 1.3017-0.0704-2.3506 0.60663-0.26061-0.13467 2.053 3.4526-1.2 2.4902 1.7377-1.7674-1.2198-1.1211 0.28216-1.8526 1.2007-0.99808-0.73489-2.3685-1.7233-0.77339-0.47453-0.11818 2.2732-5.2394 0.27239-2.7762 3.2242 1.5461 1.2292 0.17881 2.8371 2.6122 2.5705 3.7236 0.6809 7.5873 3.8656 6.9484 7.9998-0.088 2.9014-2.8033 4.3708-4.6105 6.2012-1.7716 1.5107-5.8679 2.4154-3.7867 5.4996 1.335 2.4955 4.5256 2.0662 6.2949 0.31527 1.1176 0.15324 2.8384-0.20957 2.8989-1.8733 1.0461 1.251 2.6001-0.7479 0.87061-1.1971 1.1378-0.60677 2.1589 1.2272 2.349-0.9944 1.0452-2.5721 3.6353-4.3854 3.6787-7.3348 0.34794-2.041-0.58379-4.0763 0.47578-5.2981-0.8482-0.95995-1.1472-4.9158-1.1003-1.6224-0.38902 2.0407-2.9419-1.0726-0.67853-0.63802 0.69993-2.3632-0.28881-5.3966-2.2773-7.1503-0.9057-1.497-2.858-2.7437-3.7902-1.6099-1.4378 0.464 0.14347 0.96682-1.3389 0.91074-0.70249 1.2596-1.4071-0.6806-1.1513 0.59011-1.092-1.039-2.17 0.6108-1.8243-1.512 1.2408 0.56054 0.36662 0.20997 0.82017-0.88332 0.83994 0.98853 1.2676-1.2707 0.81738-1.5121 0.99891 0.39745 1.6254 1.6044 0.75767-0.24745-1.7536-2.2076-4.7524-2.8088-7.3448-3.4874-3.7821-0.71903-7.6092 0.14766-11.341 0.55991-2.1555 1.2892-4.6187 1.9448-6.6451 3.635-0.64437 0.28455-1.2016 0.69176-1.6601 1.2328zm15.84-3.6c0.99217 0.94055 0.86082 3.3698-0.16529 1.1412-0.21065-0.34544-0.2667-0.93445 0.16529-1.1412zm1.92 0.72c1.6135 0.64513-0.95317 3.1915-0.3377 1.1578 1.441 0.0995-0.90831-1.124 0.3377-1.1578zm2.88 0.24c1.8427 1.0006-1.2581 2.3872 0 0zm4.8 0.24c1.2765 0.90209-1.3764 1.0528 0 0zm2.88 1.68c-0.90252 1.1029 1.1845-0.14671 0 0zm-24.72 1.68c2.5851 0.55963-1.6183 1.9113 0 0zm16.56 2.16c0.94855 1.0545 0.10971-1.1667 0 0zm9.36 0.72c1.3082-1.0917-0.5743 1.1361 0 0zm0 0.72c-0.0549 1.5853-1.6129-0.34139 0 0zm-2.64 0.24c0.8102-0.96473 0.33126 0.88639 0 0zm-1.44 1.44c0.74066-0.024-0.34028-2.4951 0.85376-0.56452-0.15324 1.8045-2.1837 3.7199-2.1914 0.70934-0.12645-0.97743 0.97259-0.46822 1.3376-0.14482zm-23.28 9.84c-0.094 0.85884 1.6307 1.4434 1.0187 0.19687 0.81946 1.1601 1.6692-1.238 0.44554-1.748-2.077-2.3257 0.49164-4.7227 0.9542-6.8289-0.98763-1.1157 1.7065-2.0686 1.6639-0.2514 1.9496 1.0784 5.7979-2.6505 6.1322 1.0469-0.56687 2.3948-0.83896 4.9345-1.7928 7.2098-1.7965 2.3308-5.4924-0.36537-7.3275 2.3011-0.97219 0.0527-1.1849-1.1982-1.0942-1.9263zm14.4-9.36c1.2197-0.86933 0.2046 1.4376 0 0zm9.84 1.2c0.54008-2.2817 0.91821 3.9156-0.96571 1.161 0.0938-0.56597 0.91017-0.51928 0.96571-1.161zm-6.96-0.96c-1.3813 0.67771 0.83261 0.51366 0 0zm-3.84 0.72c0.48302-1.3888 1.332 1.153 0 0zm8.16-0.24c1.5196 0.46884-1.4199 1.5526 0 0zm6.96 1.68c2.0484-0.4491-0.50906 2.0344 0 0zm0.24 2.64c2.0338-0.67423-0.37609 1.682 0 0zm1.92 0.24c2.4146-0.63877 3.3688 5.7129 1.1602 2.3574 0.4356-1.5834-0.45565-1.5292-1.3395-2.0608zm-32.64 2.88c0.54961 1.5218-1.561-0.3084 0 0zm30 1.2c1.4949-0.0179-0.9757 0.91921 0 0zm0.96 0c1.6801 0.71261-1.4553 1.2157 0 0zm-23.28 1.2c1.426-0.61246-0.0889 1.3635 0 0zm-3.12 0.24c1.3146 0.23131-0.82243 0.91982 0 0zm-5.04 0.72c1.2785 2.6708-1.5701 0.62041 0 0zm5.52 2.16c1.6219 0.72236-1.3113 1.3501 0 0zm4.08 4.32c1.3542 2.0389 0.79554-2.7218 1.6859-0.73187 0.73729 1.5782-0.55669 2.7878-1.6859 0.73187zm7.44-1.2c0.56019 1.642-1.6963-0.21118 0 0z"/>
</g>
<g transform="matrix(0 .1773 .1773 0 17.29 .48093)">
<path d="m306.96 637.68c-2.329 1.0874 2.2413 5.9481 1.618 2.6197 1.6661 0.54735 4.548 4.9262 5.1496 1.9593-1.3977-0.70453 1.3608-1.7885 0.44079-3.0307-0.11414 2.3374 3.4568 3.0927 2.4951 0.14957-1.2815-2.7257 0.78826-5.5822 3.152-6.8514 2.1668-1.8048 4.8209-1.2818 7.1386-0.1495 1.8111-0.54583 4.092-1.3013 4.6239-3.5288 0.98572-1.9278 0.21694-4.9808 0.034-6.2486 1.9822-0.10406 2.1324-1.8529-0.0327-1.7085-4.4073-0.9796-9.2436-0.44492-13.288-2.7501-0.095-2.7255-2.8289-5.6904-5.6909-4.7778-2.4461 0.94556-2.1104 3.9164-2.8297 5.9902-0.54525 2.3518-1.0138 4.7658-0.81948 7.1912 1.864 1.1176 3.2273 3.836 1.5122 5.6759-1.4271 1.1953-3.1496 2.2744-3.183 4.3901-0.0853 0.36245-0.18119 0.72382-0.32082 1.0697zm24.24-6.96c-0.63876 2.8 3.1712 2.374 4.8881 2.0043 2.0842-1.1898 3.1058 0.76834 3.3331 2.424 0.84953-1.2192 1.5537 1.5201 3.145 1.0276 1.6493-0.48771 3.6076 3.198 3.4008 0.31148-0.79697-1.1004-1.6064-2.7804 0.24266-3.4106 0.15344-1.3594-2.4678-3.7748 0.52191-3.2584 1.5042-3.3296 1.7594-7.056 1.7442-10.662-0.25131-2.3061-5.0626-1.9984-3.055 0.46549-1.2772-0.0408-3.2589-1.1216-1.306-2.1939-2.4759-1.4327-3.03 2.5867-0.85978 3.169-1.6688 0.74536-4.8725 1.294-3.1346 3.825 0.44303 2.4358-1.585 0.0736-0.5342-0.9566-0.37196-1.2387-1.8797-1.4905-2.1088-0.0174-1.9232 0.086 0.46688-3.22-2.0442-2.3762-2.8839 1.1457 1.4041 4.1083-1.0854 5.6221-0.45692 0.78394-1.5197 2.9308 0.32047 2.3197 1.4449 2.1661-3.5666 4.1724-2.523 1.3419 1.2069-1.4318-0.1928-0.33634-0.67645 0.40229l-0.2689-0.0372zm14.88-12.72c0.2498 0.99928-0.98833-0.19367 0 0zm-26.88 2.64c-0.34293 1.4177-0.80053-1.119 0 0zm22.08-0.24c-1.2157 1.0734 1.4168 0.0768 0 0zm-20.88 0.96c1.7452 1.2275-1.7099 0.87191 0 0zm9.36 1.92c0.52424-1.4722 0.45949 1.3298 0 0zm3.12 0.24c-1.2213 2.6764 2.3328-0.64579 0 0zm-4.8 2.88c1.0839 0.95948 3.5194-2.3829 2.1109 0.31923-0.81779 0.34934-1.6296 3.3048-2.0135 1.0728 0.47018-0.31123 0.66159-1.321-0.0974-1.392zm-1.2-0.48c0.29385-2.6068 1.4866 1.3415 0 0zm13.2 0.72c1.6017 0.22719-1.1262 1.0188 0 0zm-1.44 1.92c0.87353-1.244 0.45675 1.0075 0 0zm0 2.88c0.8493-0.77319 0.96621-3.3397 2.0565-0.99989 0.61035 1.2626-1.5608 0.5655-2.0565 0.99989zm-10.56-1.92c2.1069-0.26042-1.2281 1.4204 0 0zm7.2 0.24c2.4205-0.29503-0.84029 2.0566 0 0zm11.28 0.96c-0.44449 1.4681 1.0241-0.74863 0 0zm0.48 2.4c-2.7142 0.38732 0.98951 2.3452 0 0zm-4.56 0.96c-0.10629 0.82727-0.87569-0.26028 0 0zm0.96 1.2c0.46621-1.2848 0.40611 0.68727 0 0zm-3.36 2.4c2.6727 0.42657-1.975-1.6688-0.0429-0.0268zm-31.92 7.92c-0.33716 2.2057 1.822 3.8346 3.8791 3.2903 1.4514 0.31645 4.7332-2.4935 3.6425 0.17112 0.0984 3.3652 4.4439 5.262 7.2754 3.8694 1.0913-0.90012 0.86124-4.5854 2.7645-2.2356 2.809-0.10293-3.6676 2.5403-0.38715 2.5817 3.2248-0.33576 6.3589 1.9254 9.5448 0.84203 1.7411-1.0201 2.0036-3.3787 2.2137-5.1847 0.25352-2.1749-3.1766-4.2199-3.1699-1.0609 0.20771 1.4433-0.34272-2.9797 0.92909-3.1954 1.0716 0.27435 1.282 1.1838 2.2411 0.27292 1.0606 1.6962-0.26592 4.4642 1.412 5.7875 1.6646-0.2267 2.2837-2.2026 1.2736-3.1905 0.61917-1.3837 3.6076 0.12355 2.7147 0.8253-2.4046-0.794-1.9026 3.0724 0.20003 1.9865 1.0356-1.4866 0.38813-0.1777 1.083 0.77267 2.4302-0.85836 0.27455-4.0654 1.4249-5.8924 0.35024-1.9923 1.0445-4.597-0.63662-6.1762-2.0661-1.7601-2.6078 1.9902-0.54223 2.4885 2.2551 0.4894-0.0547 4.0217-0.53729 3.2991 0.68746-2.1375-0.0463-4.6491-2.6078-4.1903-1.644-2.6617-2.039 2.5642-3.9921 2.6195-3.0041 0.95096-6.0911-0.3527-9.1162-0.53225-2.7022-0.41227-5.4918-1.9018-8.2277-0.94894-1.5013 1.7165-3.6711 2.3771-5.7445 3.3354-0.95852 0.9733-2.9117-2.6531-3.8169-0.16355-0.556 1.0438 0.30204 1.606-0.26343 0.48633-0.21415-0.41374-3.3865-0.19109-1.5565 0.14255zm35.28-6c0.86137-0.81945 0.38374 0.53018-0.0841 0.30028zm-37.68 0.96c-0.76931 2.7392 3.03 3.9831 1.4611 0.81544-0.54627-0.14494-1.4405 0.0163-1.4611-0.81544zm32.4 2.4c1.7251 1.8198 1.5292-2.7314 3.1327-0.36462 0.37137 1.1789-0.58886 4.4292-1.2104 1.6192-0.10256-0.80743-2.1478 1.924-1.5431-0.0146 0.10602-0.41852 0.11682-1.0611-0.37919-1.24zm3.6-1.2c1.7398 1.1594-1.6246 1.381 0 0zm-25.44 0.96c-0.61127 1.888 1.5188-0.54752 0.29026-0.19456zm-8.64 1.2c1.0553 1.1549 2.3688 0.21491 0.98014-0.822-0.65388-0.66093-1.0516 0.22916-0.98014 0.822zm22.8 1.68c1.0844 0.19966 1.9427-2.6604 1.1883-0.32743-0.56141 1.416-0.3038 3.7641 0.43584 4.3181-2.2572 1.1917-1.7999-2.9634-1.8823-3.7939 0.0861-0.0656 0.17213-0.13116 0.2582-0.19674zm-17.76-1.92c-1.029 0.66359 0.70371 0.3433 0 0zm29.04 0.72c1.7383-0.73127-0.3662 1.0908 0 0zm-30 0.48c-1.1786 1.9692-1.0447-1.9069 0 0zm0.24 0.48c0.74721 0.58271-1.0528 0.12525 0 0zm12.48 1.68c0.59269 1.578-1.0718 1e-3 -0.43541-0.33378l0.17919 0.11257zm-0.72 1.44c0.92822 0.67376-1.0873 0.0588 0 0zm1.44 0.24c-0.78846 1.0846-0.78924-1.1358 0 0zm-10.8 1.92c2.5646 1.4903-0.56745-3.3765 0 0zm7.44 0.24c-0.20622-1.7205 1.3921-0.15792 0 0zm-9.6-0.72c1.2794 1.0793 0.29073-1.0595 0 0zm1.2-0.24c-1.1604 1.2292 1.4402-0.12961 0 0zm10.08 0.48c1.1126 0.63838-1.1811 0.0884 0 0zm12.24 4.08c1.7122 1.6429 1.0472 4.7111 3.2066 5.9638 2.1164 0.80569 4.5318-0.62264 4.9446-2.8362 0.76604-1.7499 0.29876-4.359-0.81288-5.0442-0.37233-2.5232-4.9246-1.1438-3.2176 0.46853-1.0682 0.56995 0.72307 4.6816-0.6774 2.6048-0.0967-1.4789-0.86735-5.7927-2.5691-2.8617-0.33077 0.54708-0.60998 1.1233-0.87416 1.7049zm-2.88-2.88c-1.3344 1.2574-1.3638-2.0076-0.24097-0.39847zm10.56 0.48c-1.0254-0.341-0.1351 0.57925 0.17979 0.21158zm-0.72 2.4c1.2444-0.48095-0.46444 1.0557 0 0z"/>
</g>
<g transform="matrix(0 .1773 .1773 0 17.29 .48093)">
<path d="m281.04 683.76c-2.9808 2.8937 0.76131 8.4122 4.5853 7.2338 2.2394 1.9059 4.8493 0.84175 5.2956-2.3744-0.35839 5.0686 4.9637 3.8084 8.4054 4.5686 6.3481 0.67898 12.718 1.1447 18.979 2.4534 4.3886 0.53787 9.3952-0.17301 13.061 2.8499 0.37816 3.556 5.7449 5.0467 7.1119 1.2534 2.3423-2.1362-3.8947-8.7911 0.37624-6.1374 1.6741-1.2664 0.75858-5.7671-1.4817-3.514 0.38298-2.3194-0.99995-4.8531 2.042-6.7008 3.1134-3.1749 3.1062-8.0611 1.8551-12.051-2.1512-5.023-6.6264-9.1664-11.804-10.888-4.4793-0.83959-9.0688-2.2116-13.627-1.2243-5.4502 0.68028-11.267 3.3884-13.208 8.9122-1.7026 3.9228-1.9131 8.7448 0.43308 12.458-2.1719 2.8152-6.745-1.0326-8.7256 2.0915 0.10723-3.3299-2.2895-2.0466-4.1844-2.3828-0.89652-1.807-0.79341-8.0933-3.9559-5.6326 0.52269 1.784 0.23552 5.9276-2.5701 4.8196 4.3154-0.73945 0.73909-9.3779-0.76182-3.6677-0.7179 2.6219-0.43475 5.5053-1.8268 7.932zm26.64-19.92c3.2645-8e-3 -0.25754 5.4478 0.0521 1.6077-0.0982-0.47766-0.76212-1.276-0.0521-1.6077zm-2.4 0.24c2.0921-0.19676-0.87545 1.8043 0 0zm8.4 3.84c3.0374-0.1962 1.0213 4.2732 0 0zm-4.32 7.92c1.9588-4.4233 7.5674-3.916 11.567-3.6457 4.0264-0.17779 7.4325 1.9115 10.845 3.6845 1.679 0.8758 5.4486 1.0145 2.4517 3.1142-3.1597 3.5602-7.9594 4.7827-12.025 6.287-0.30803 1.8118 3.2179 1.0284 2.0583 3.9096-0.61485 1.0081-0.88036-2.1634-1.933 0.14541-1.675 1.6294-1.7634 0.0572-0.0335-0.53185 0.6171-1.5639-2.082-3.8352-2.8127-1.6878 3.0079-4.3184-4.7836-3.0364-7.0322-4.8891-2.1655-0.83698-4.5943-4.2702-3.0863-6.3861zm-24.24-2.16c1.7944 0.66595-0.17549-1.631 0 0zm3.6 3.12c-1.2637 1.902-2.0551-1.5746 0 0zm-1.68 0.96c1.4261 0.10472-1.038 0.67745 0 0zm1.68 0.24c0.27939 1.9483-1.799 3.2024-0.59875 0.54195zm-1.92 0.96c1.9373-0.29223-0.86975 1.2626 0 0zm-3.84 2.4c1.0855-2.7007 5.033 1.2346 2.0886 1.5441-1.4405 5.9338 0.19803-3.1854-2.0886-1.5441zm23.76-0.24c1.7407-1.1666-0.64512 1.9192 0 0zm-12 2.88c2.103-0.11573-0.73144 2.011 0 0zm31.92 1.68c1.5872-0.0179 4.4032-1.9863 3.69 1.301 0.0182 1.3206-1.383 3.0949-1.063 0.56514-2.91 0.24251-1.8918 4e-3 -2.627-1.8662zm-41.28-0.48c1.814 0.62727-1.4703 1.1279 0 0zm-2.16 1.44c-1.2697 3.2922-2.5428-3.4626 0 0zm24.48-0.48c2.0235-0.77558 5.5469 3.0404 3.1784 2.7028-0.37612-1.8706-4.7174 0.0928-3.1784-2.7028zm-23.76 0.96c0.96111-1.2954 0.25727 1.1784 0 0zm-0.48 0.72c1.8546-0.0628-1.2903 1.2482 0 0zm35.52 0.96c2.3363-1.2553 0.78857 4.643-0.24777 0.77969zm15.12-0.24c1.8923 0.40006-1.4372 1.3371 0 0zm-24.96 0c1.3868 0.29818-1.0691 0.765 0 0zm2.64 0.48c1.409-0.4684-0.51034 1.3335 0 0zm2.16 2.16c1.4725 2.0462-1.6973 2.867 0 0zm14.88 3.12c2.698-0.9722-0.86473 1.8711 0 0z"/>
</g>
<g transform="matrix(0 .1773 .1773 0 17.29 .48093)">
<path d="m278.64 702.48c-0.24105 3.4613-2.1733 8.6224 2.541 9.9941 5.713 2.412 12.099 0.84352 18.028 2.274 5.5227 1.1849 11.135 1.7234 16.699 2.5144 1.6136-1.0046 5.1285-2.4182 5.0123-0.28502 2.0482-0.22129 4.9026 1.8352 3.3365-1.8798 3.2586-2.5453 2e-3 3.0067 3.2455 3.491 1.5903 1.519 0.84573 3.3279 3.0708 3.8814 2.3926 3.2004 6.5023-0.46957 5.2182-4.3676 0.39039-3.6598 1.2824-7.2957 1.5808-10.998 0.13359-2.2095-0.76689-1.7766-1.4425-0.92239-0.49486-6.5138-6.4433-0.15501-8.9582 0.94159-3.7306-0.38783-8.0541-1.6617-9.9268 2.7144 0.0656-3.1208-1.1797-6.2236-4.8914-4.8777-3.91 0.24972-9.8425-2.9464-12.226 0.53551-1.3999-3.1904-8.2073-3.6301-9.1533-1.9601-1.8384 1.2945-1.3426-1.0945-3.6776-1.0403-1.5417-2.1075 1.3211-5.5966-2.51-6.9963-4.7064-2.2793-5.2041 4.0404-5.9461 6.9811zm7.2 1.44c2.5719-1.8248 2.712 1.8015 0 0zm45.12 0.96c3.2888-2.2284 1.366 6.6487 1.499 0.9714 0.0785-1.1476-2.1048 0.11959-1.499-0.9714zm-29.52-0.72c3.0642 0.50705-0.55324 2.767 0 0zm4.32 0.96c1.5947 0.49571-1.3117 0.92896 0 0zm11.76 0.48c-1.0534 3.601 4.7708-0.69393 0 0zm-0.48 0.96c-0.97182 1.1768 1.5301 0.0838 0 0zm-1.68 0.24c1.7452-0.2164-1.2362 0.86476 0 0zm-35.04 0c1.5649 0.61469-1.3374 0.64714 0 0zm26.88 0.24c2.6311 0.0169-1.4454 2.117 0 0zm-14.64 0.96c2.5662-1.0418-0.78696 2.3803 0 0zm27.12 0.24c1.5154-1.1132 0.1562 1.4701 0 0zm0.24 4.32c3.756 1.369-0.21172-5.2246 4.4656-3.5916-4.085 1.2001 2.3928 6.02-2.1207 4.7847-0.75752-0.42935-1.4264-1.1318-2.3449-1.1931zm-41.04-3.6c0.0836 1.3195-0.94689-0.3785 0 0zm29.28 0.24c1.4661 0.24514-1.1443 0.77313 0 0zm-20.64 1.2c2.7839-1.5576 3.1151 4.4702 0.29344 1.1781-2.5894 0.69406-3.3116-1.464-0.29344-1.1781zm36.96-0.48c4.2396 1.2903-0.35909 3.0496 0 0zm-2.16 0.96c1.1848 1.2643-0.59676-1.5994 0 0zm-37.68 0c1.7729 0.94654-1.6858 0.72444 0 0zm3.84 0.24c-0.11041 1.5791 1.2343-0.4304 0 0zm-1.68 0.96c1.5428-0.67603-0.23904 1.7032 0 0zm41.76 1.68c2.0556-0.0463-0.8497 1.9258 0 0zm-10.56 2.64c0.0217 3.2952 3.8007-1.0215 0 0zm12.72 2.4c0.3771 2.6024-2.1645-0.73628 0 0zm0.72 1.44c1.3807 0.91765-1.6449 0.26331 0 0zm2.16 0.96c-0.1866 2.6838-2.3413-1.3709 0 0zm0.72 0.96c1.6622-0.0923-0.81602 1.0126 0 0z"/>
</g>
<g transform="matrix(0 .1773 .1773 0 17.29 .48093)">
<path d="m295.2 735.36c3.3508-0.27567-2.5773 3.7714 1.8509 4.1488 3.445 1.1976 1.534-7.1573 3.7871-3.7544 0.91861 2.6839 7.5497 1.3096 5.4828-2.7435 1.8339-2.0308 2.0704 1.848 0.97325 2.7067 3.6847 1.5999-2.8399 5.3117 2.643 6.0587 3.8694 1.6489 2.3318-6.6055 2.6738-0.96797 2.1951 2.9115 3.6597 6.6223-1.6873 5.7445-3.6514 0.63165-7.9002 4.7781-10.863 3.8662 1.7146-4.5346-3.8492-2.3133-2.1224 0.94831 0.60107 3.649-2.6997-2.4216-1.739 1.6776-1.0122 2.6503-3.053 8.513 1.9958 6.0804 3.266-1.1039 4.6971-7.2582 7.5627-5.9879 1.6006-2.0504 0.45856-2.626 1.5178-0.14646 4.504 2.1586 9.202-2.0787 13.731-2.7244 6.2104-2.723 13.262-2.4419 19.302-5.6471 5.0136-2.281 10.015-7.9302 7.8495-13.747-1.9632-4.7133-9.5533-7.4433-13.14-3.032-3.655 4.7541 7.0815 8.0623 2.1079 10.888-4.3082 3.1034-9.8733 0.58527-13.646-0.12293-3.8239 3.3476-0.46428-4.4542-4.6627-4.543-5.5551-3.2067-12.657-5.3922-15.225-11.91-5.5507-1.2876-0.93568 7.0646-3.0292 10.145-1.0121 2.6446-1.8691 3.4938-3.7348 1.5345-0.85449-0.0815-1.7248 0.62223-1.6282 1.5283zm1.68-11.28c-0.88334 2.3018 0.34288 2.2414 1.3368 1.2313 0.66506 3.0398-3.2386 2.8263-1.6268 6.1092-3.1847 2.5975 6.321 1.8784 2.3653-0.8466-1.4028-2.5794 3.8759-8.9425-0.56718-9.0378-0.74842 0.66444-1.2432 1.5882-1.5082 2.544zm1.92-1.44c1.7876 0.0876-1.6327 0.56038 0 0zm4.08 1.68c1.9338-1.1359-0.44116 1.8417 0 0zm-2.16 2.4c1.3613-1.5532-1.5941-1.326 0 0zm3.12-0.72c2.4176 0.27877-1.4248 1.7311 0 0zm38.64 1.68c2.0245 0.31197-1.5548 1.0313 0 0zm1.2 1.44c3.318-1.5788-1.8818 2.3609-0.19084-0.10473zm-1.44-0.24c0.43196 1.4528-1.2462-0.66542 0 0zm-0.24 0.72c2.0356-0.94357-0.74153 1.7978 0 0zm-42.24 0c-0.1414 1.3499 1.1039-0.72729 0 0zm5.52 0.96c1.9664-0.29412-0.97412 1.6281 0 0zm32.16 0.24c1.7511 2.4542-2.9578 1.2155 0 0zm-33.6 2.4c1.4088 0.24774-1.019 0.82836 0 0zm2.64 0.48c-1.2518 1.0969 1.4225-0.13608 0 0zm-3.6 1.44c0.89707 0.80519-1.1692-3e-3 0 0zm-5.04 0.96c2.2259 1.2171-1.5519 2.2221 0 0zm8.64 1.2c0.62223 1.8936 1.0686-1.2392 0 0zm40.32 0c-0.62397 1.2423-0.63445-1.1639 0 0zm-48.72 0.48c0.0732 2.8775-2.0805-1.2959 0 0zm13.68 0c0.42613 1.3833-1.338-0.50507 0 0zm4.32 1.2c0.82905 1.5105-0.0257 4.8277 2.6544 2.1859 2.9506 0.0585-4.1158 4.3658-3.1737 0.25834-4e-3 -0.83523 0.1079-1.7023 0.51934-2.4443zm-11.28-0.72c1.1522 2.3121 3.1694-1.0347 0 0zm-4.8 0.24c-1.5459 2.4148 2.3754-0.53767 0 0zm18.48 0c1.2475 1.5445-1.8818 0.59454 0 0zm-10.08 0.72c0.15331-1.6704 0.61576 0.70103 0 0zm12 0.24c1.0621 0.49621-1.21 0.13448 0 0zm-21.6 1.68c3.8793 2.3514 0.18382-3.9939 0 0zm18.96-1.2c1.6348-0.22693-0.95912 0.94301 0 0zm19.44 2.16c1.2909 1.9921-3.19 1.8707 0 0zm-15.12-0.48c1.7189-0.69377-0.27155 1.5789 0 0zm4.32 0.72c2.5143 1.6042-2.7421 2.7267 0 0zm-31.68 1.44c-1.6709 1.2417 1.4289 0.70264 0 0zm4.32 2.64c2.6777 1.2011-0.32777-2.7885 0 0zm-3.36 0c0.68433 1.5742 0.89221-0.49356 0.0845-0.43344zm2.88-0.48c-1.2851 1.193 1.3426-0.14944 0 0zm17.52 0.96c2.4732 0.5731-1.3547 2.2345 0 0zm-0.72 0.24c0.89205 0.75425-1.1049 0.14427 0 0zm-21.12 2.16c-3.1208 2.4872 3.917 2.2614 0.68967-0.81725-1.0635-1.3466-1.4688 0.0365-0.68967 0.81725zm12.48-0.72c0.8035 1.9845-2.3401 0.14029 0 0zm12 1.2c1.6507-0.18053-0.94221 1.0549 0 0zm-12.96 0.24c0.89379 1.6119-1.521-0.0193 0 0zm-2.16 0.48c3.515 0.83917-1.3639 3.7091 0 0zm-1.2 0.72c1.0526 0.54479-1.3169 0.27208 0 0zm-1.68 3.36c2.338 0.99716-2.0581 1.1352 0 0zm-1.92 1.2c2.017 1.1097-1.8926 1.1237 0 0zm-4.56 1.68c3.4844-0.88345-0.86384 3.4811 0 0z"/>
</g>
<g transform="matrix(0 .1773 .1773 0 17.29 .48093)">
<path d="m372.96 499.44c-1.5209-2.3872-1.5531 1.7164 0 0zm-1.68 0.48c-1.1765 1.8666 3.0551 2.8214 0.43023 4.7115-1.4659 5.8542-1.8094 11.88-2.6694 17.826-1.1706 4.2906 5.7202 5.4997 6.7491 1.5782-0.0485-4.6732 5.4285-4.8234 8.6973-3.7182 4.9351 0.41343 10.18-0.57239 14.735 1.8307 3.5936 1.3492 7.513 0.5775 11.238 1.1467 2.4444 2.7614 10.055-1.058 9.0286 4.798-1.4431 3.1509 0.61373 7.1887-1.7102 9.7706-3.4424 1.7999-6.5076 4.8739-10.726 4.1964-3.4484-0.66232-9.1128 2.1361-5.9244 6.0653 4.1958 3.147 9.9532 0.48961 14.753 1.6099 1.8679 2.0713 7.4557-1.8243 3.6385-1.744-3.287 0.69854-0.88894-5.595 1.3808-3.8101-0.80229-3.1706 4.4503-0.26654 3.561-4.3564 1.0055-3.2028 1.2088-6.552 1.1346-10.09 0.57636-3.7646 2.5616-8.0671 2.2439-12.378-0.62623-3.6143 2.3779-7.2133 0.41666-10.622-3.4049-3.9626-5.9277 1.0179-7.3167 3.7742-2.0359 0.81503-5.1838 3.4098-6.1935 0.46432-3.285 0.1581-6.5816 0.40984-9.7541 0.10633-2.8105 3.957-3.7163-4.7129-7.6497-2.3611-4.7415-0.59849-9.4412-1.6998-14.254-1.3882-5.5685 0.58658-3.2715-6.3768-6.8746-8.0331-1.7145-0.1865-3.2089 1.7487-4.9348 0.62333zm4.56 4.08c2.7113 0.75546-2.4081 3.2433-0.0575 0.18285zm-3.84 0.96c1.4478-0.81372-0.8674 1.0982 0 0zm4.08 0c-0.56012 0.86194 0.9062-0.28908 0 0zm51.6 2.16c3.0957-0.49395-0.58836 2.6118 0 0zm-54 0.48c1.2628-1.3602 0.36576 1.2438 0 0zm4.08 0.48c3.899-2.3009 1.1074 5.6874 8e-3 1.7721 0.31967-0.50463 0.75961-1.4084-8e-3 -1.7721zm-5.28-0.48c0.829 2.4173-2.5219-0.10239 0 0zm0.96 0.96c2.8068 0.22792-1.5856 2.2666 0 0zm17.04 0.24c2.1383 0.3611-1.4422 1.1639 0 0zm13.2 0.96c-2.4601-1.4132 0.0722 3.5497-0.41784 0.28815zm-32.4 0.72c0.70951-1.545-0.0453 1.6847 0 0zm36.48 0.72c1.2922 0.65454-0.22527-1.462 0 0zm14.64-0.24c0.82515 2.5674-2.5309 2.9455 0 0zm-9.36 0.72c1.9635 1.0988-1.8666 0.82891 0 0zm-2.64 3.12c1.3419-0.25279 2.6592-2.0334 2.2048 0.74629-0.52003 1.7265-4.5524 0.86411-2.2048-0.74629zm-6.48-1.44c3.7643-1.831 3.5646 7.449 1.5993 3.2902-0.0692-1.2208-0.12586-2.918-1.5993-3.2902zm9.36 2.4c1.0154-3.1714-0.54725 3.4316 0 0zm13.44-1.92c3.3028-1.2004-0.88054 2.4183 0 0zm-35.04 1.2c0.51789-2.1474 2.0469 0.75242 2.485-0.26336 2.3033 1.4647 0.31108 3.5935-1.426 1.4934-0.85454 0.023-3.1069-0.53269-1.059-1.23zm12-0.48c2.7616 0.29613-1.527 2.456 0 0zm-30.48 3.6c2.246-4.9193 3.2972 2.9734 0.42255 2.131-0.60571-0.68755 0.75936-1.7504-0.42255-2.131zm32.64-2.88c1.1715 0.59588-0.0918-1.3134 0 0zm-3.36 0c0.83582 0.67069-0.68203 1.5734 0 0zm17.76 2.16c2.1501-3.6685 4.831 1.2028 1.2631 1.0491-0.40964-0.33561-0.70637-0.90651-1.2631-1.0491zm3.36-1.2c-1.3188-2.4467-1.108 2.1687 0 0zm-4.8 0.24c0.33322 2.8952-2.8459 0.0349 0 0zm-9.6 0.24c1.5821 0.39333-1.247 1.1301 0 0zm-7.68 0.72c2.1615-3.1201 3.9058 4.2605 1.2301 1.4738-0.19466-0.73772-2.7957-0.47813-1.2301-1.4738zm-10.08-0.48c1.8893-0.63965 2.0687 1.6568 0 0zm-18.24 0.48c-0.0798 2.9146-2.9482-0.50715 0 0zm51.6 0.24c1.3409 2.4887-2.4079 2.3101-0.0644 0.0853zm-17.04 0.96c-1.264 1.0861 0.95553-1.6372 0 0zm-4.08-0.48c-0.0605 1.6708 0.89621-1.1026 0 0zm-0.72 0c-1.9677 1.8467 2.4835 0.66906 0 0zm14.4 0.48c1.8257-1.1517-0.25477 1.8685 0 0zm-21.36 0.24c1.2289-1.5799-0.16536 1.1287 0 0zm30.24 0c2.6201 0.75443-1.7444 2.5082 0 0zm-7.68 0.72c1.6471 2.4253-2.5327 1.7013 0 0zm0.96 0.24c2.1791-0.27423-1.06 1.6782 0 0zm-7.92 0.48c1.2697 1.8827-1.5434 0.60336 0 0zm9.36 1.2c0.17425-2.0038 1.9632 0.25181 1.1864 0.0866 2.2659 1.6474-2.947 2.5655-1.1864-0.0866zm2.64-0.48c1.5845 0.84075-1.6474 0.66838 0 0zm0.96 0.24c1.6306 1.0417-1.607 0.2651 0 0zm1.2 0.96c1.8939 0.87346-1.6998 1.031 0 0zm-55.2 0.24c-1.1112 2.9556-1.6192-2.3322 0 0zm1.92 0.24c0.48655-2.1287 0.71931 0.8008 0 0zm54 0.72c0.87694 2.2975-2.9104 2.6817 0 0zm-1.68 0.48c0.89414 0.74868-1.0516 0.12956 0 0zm0.72 3.12c1.0865-0.47624-0.26815 1.1108 0 0zm-1.68 0.48c1.3841-0.79534 2.3e-4 1.2655 0 0zm2.88 0.48c-2.1598 0.2165 1.2747 1.5316 0 0zm-5.52 8.4c2.4397 1.3162 0.57584-5.8486 3.2325-2.3186 1.165 2.4873-2.8023 7.6419-3.2325 2.3186zm2.16-2.4c1.1697 0.44083-0.33985-1.1557 0 0zm-2.88 0.48c0.13387-1.3891 0.63039 0.68365 0 0zm-0.72 0.48c0.19363 1.3192-1.4458 0.45974 0 0zm1.44 0.24c1.8338 1.1068-1.8426 1.1871 0 0zm4.08 3.36c-1.3456 2.4561 1.5313 2.3685 0 0zm-7.92 1.92c-2.3792 2.363-0.41164-2.4263 0 0zm-0.48 0.96c1.9181-0.58764-0.90795 1.2515 0 0zm-1.68 1.2c2.1608-1.1288 0.99857 2.2756 0 0zm6.96 1.92c0.91956 0.10921-0.4423-0.83621 0 0zm-15.36-0.24c1.1792-0.81536 0.12932 1.1541 0 0zm7.44 0.24c-0.41238 3.2975-1.9948-1.97 0 0zm5.52-0.24c-3.2918 0.85246 1.8965 4.3755 0 0zm2.64 1.92c-3.3201-0.11475 1.357 5.6445 0.86519 1.2967-0.0704-0.527-0.34691-1.0794-0.86519-1.2967zm0.48 0c3.0146 1.5294-0.28866-2.8267 0 0zm0.48 1.44c1.8666 2.2759-0.4052-2.3252 0 0zm-6-0.48c2.6783 2.349-2.6915 0.98357 0 0z"/>
</g>
<g transform="matrix(0 .1773 .1773 0 17.29 .48093)">
<path d="m384.72 554.88c-2.0877 3.3014-4.9873 6.8014-4.2713 10.985-0.73426 3.7389 1.623 7.0756 3.6262 9.9861 2.9914 3.4072 7.1244 5.6545 11.456 6.866 1.6258 1.6132 4.4395 1.0735 5.622-0.79206 1.7312-1.9509 0.43308-4.4663 0.80803-6.7063 0.3855-3.0789 2.3966-6.2812 0.96419-9.3537-0.3309-1.104-2.5397 0.73938-2.714-1.2924 0.29424-1.9661 4.028 0.67384 3.1746-2.1449-0.11413-1.4385-1.9704-3.6281-1.5258-4.3222 0.92215 0.20606 2.3226-0.67779 0.55868-0.74493 0.1011-2.8054-2.6967 0.32257-3.2196 0.34728 0.39306-1.979 3.099-3.388 4.5602-1.6608-1.4648-1.2198 1.2382-4.0808 1.4958-1.5087-0.78509 2.0239 1.9874-1.0398 2.2381 1.0583 2.6407 0.0699-0.64895 1.6235-1.3471 2.0809-0.35707 1.4803-4.0178 0.65406-2.6132 2.9056 0.80144 2.378 3.4312 2.9744 5.5068 3.7616 2.3255 0.79891 3.9326 3.131 4.1748 5.5269 0.19378 3.4986-2.4693 6.3475-5.3846 7.8749-1.5074 0.94457-3.8535 1.9642-3.6398 4.0997 0.35216 2.2895 3.0574 3.129 5.0304 2.4789 1.5374-0.55495 4.0732-1.3365 4.4086-2.8967 1.1541 0.23816 2.1998-0.18346 2.3106-1.3607 2.6066-1.8853 3.7835-5.0296 4.8672-7.9322-0.23853-2.6232 0.77751-5.4878-0.59138-7.9192-0.14782 2.1078-2.6258 0.25875-0.95873-0.63754 1.0698-1.5187-0.24211-4.0591-1.2534-5.5502-1.152-1.372-3.0482-3.7598-4.9316-2.135-1.001 1.0262-3.9959 1.5488-3.4837-0.41943 1.8112-0.85212 2.3405-3.6414 0.14021-4.3869-4.3812-1.8385-9.3841-2.9071-14.046-1.4987-3.812 0.40744-7.4334 2.1651-10.352 4.6031-0.22459 0.20929-0.40587 0.45994-0.60963 0.68868zm15.6-3.6c1.5306 0.0385 0.89543 2.8484-0.0572 1.3946-0.11226-0.46063-0.0357-0.93872 0.0572-1.3946zm1.92 0.48c1.5484 0.55963-0.97144 2.8525-0.11676 0.74666 0.21401-0.24216-0.076-0.4937 0.11676-0.74666zm2.88 0.48c1.7383 0.80009-1.4646 1.5418 0 0zm4.8 0.24c2.3059 0.4672-1.5358 1.0253 0 0zm3.12 1.44c-1.4575 0.26638 0.78949 0.99154 0 0zm-24.96 1.68c1.7535 0.0589 0.33572 1.9451-0.43058 0.89122-0.0106-0.34725 0.23362-0.6321 0.43058-0.89122zm16.8 2.4c1.3874 0.39891-0.47952-0.97977 0 0zm9.12 0.48c1.5092-0.62175-0.55211 1.3156 0 0zm0 0.72c0.24404 1.6423-1.7012-0.33033 0 0zm-2.64 0.24c0.90538-1.2174 0.39547 1.2179 0 0zm-1.44 1.44c1.7216-2.3767-0.32506 3.8097-1.1293 0.8356-0.48536-0.74088 0.62485-1.7408 1.1293-0.8356zm-23.28 9.84c0.53376 2.229 2.8464-0.52297 1.4454-1.7837-0.66658-1.2628-1.4488-3.0929-0.0693-4.196 0.67357-1.3294 1.3664-4.3422 3.4437-2.5123 1.1024 0.28117 2.9339-1.553 4.2911-0.11675 1.7449 1.2017 1.2292 3.6 0.25463 5.0192 0.17405 2.1215-1.3239 4.4882-3.6203 4.466-1.8788-0.84757-4.2748 2.0068-5.6496 0.0144-0.0909-0.28824-0.10628-0.59165-0.0957-0.89086zm14.4-9.36c2.0363-0.54471-0.51244 1.8597 0 0zm10.08 1.2c1.4104 0.95813-1.0502 2.9585-0.98725 1.1848 0.21046-0.47978 0.60287-0.84413 0.98725-1.1848zm-7.2-0.72c-0.99311-0.0567 0.27932 0.65613 0 0zm-3.84 0.72c0.35104-1.6306 1.2916 0.98875 0 0zm8.16-0.24c1.374 0.27234-1.1078 0.74084 0 0zm6.96 1.68c1.9741-1.6117-0.11537 1.8286 0 0zm0.24 2.4c2.1811-0.31674-0.5925 2.0415 0 0zm1.92 0.24c1.5786-1.0404 2.9457 3.0767 1.6126 2.6828-0.71278-0.80753-0.4903-2.2296-1.6126-2.6828zm-32.4 3.12c-0.11423 1.9735-1.5939-0.84602 0 0zm29.76 0.96c1.5153-0.22291-0.81097 1.0783 0 0zm0.96 0.24c1.2105-2e-3 -0.32209 0.77175-0.29445 0.22985zm-23.04 0.96c1.6818-0.0389-1.0291 0.94967 0 0zm-3.36 0.48c1.2373-0.45106-0.42213 1.0265 0 0zm-5.04 0.48c1.4716 1.8424-1.5575 0.83918 0 0zm5.52 2.4c1.5694 0.0371-0.99952 0.99581 0 0zm4.32 4.08c0.762 0.47099 1.9713-1.7588 1.519 0.15102 0.12802 1.3416-2.025 1.1252-1.519-0.15102zm7.2-1.2c0.68444 1.384-1.5116-0.0668 0 0z"/>
</g>
<g transform="matrix(0 .1773 .1773 0 17.29 .48093)">
<path d="m380.16 589.68c-2.2978 3.67-5.1073 7.7407-4.2593 12.308 0.27092 6.0734 4.8749 11.022 10.076 13.644 1.9288 1.1748 4.2544 1.4293 6.1464 2.6108 2.5814 1.227 5.3294-1.2053 5.6279-3.7588 0.13907-2.2279-0.76403-4.4753 0.21609-6.664 0.5205-2.2343 1.7906-4.7291 0.56863-6.9316-0.62458-1.5118-1.5798-0.32005-2.5281-0.57625-0.64805-1.8367 1.6999-1.7153 2.7504-1.6046 1.1766-1.5901-1.1657-3.2798-1.4511-4.91-0.72495-1.6798 2.7974-0.49375 0.98205-1.4717-0.65329-1.4384-1.75-1.5262-2.6258-0.18661-0.71952 1.0637-1.4112 0.8009-0.51428-0.21485 0.81372-1.5261 3.6254-3.3482 4.4016-0.79361-2.1414-1.0408 1.37-3.8801 1.2966-1.4645-0.99966 1.5123 1.5731-0.59934 2.4311 0.48229 1.9 0.76587-0.93733 3.4892-1.7536 1.8301 0.54485 1.7557-3.4899 1.137-2.5182 3.4052 1.2507 2.1531 3.6515 3.2796 5.8215 4.3122 2.3069 0.4777 3.8987 2.7363 3.9182 5.0445 0.0806 2.6478-1.3382 5.3107-3.6189 6.6729-2.5395 0.59419-4.7965 2.8842-5.0789 5.516-0.0583 2.072 2.5171 2.7221 4.1544 2.2779 4.1692-0.77238 7.5706-3.782 9.9326-7.1596 2.23-3.607 3.0238-8.1322 1.9883-12.254-0.57671-0.6269-1.4528 1.2498-1.4474-0.35611 0.37069-1.8068 1.2526-3.9791-0.35747-5.4573-0.58547-2.1678-2.7842-3.6085-5.0009-3.3233-1.3601-0.32318-3.5683 1.4681-4.2061 0.40371-0.50955-1.8219 3.7326-2.6433 1.2616-4.144-5.9143-3.9785-13.746-3.577-20.134-1.0073-2.0166 1.2693-4.4714 1.9159-6.0794 3.7702zm15.84-3.6c0.90492 0.51161 1.0036 3.3567-0.1039 1.6623-0.17226-0.54483-0.0727-1.1332 0.1039-1.6623zm1.92 0.72c1.309 0.74436-0.83588 2.3854-0.42083 0.75902 0.10518-0.27122 0.25664-0.52045 0.42083-0.75902zm2.64 0.48c1.7413 0.67415-1.2597 1.3705 0 0zm4.8 0c2.149 0.39818-1.3902 1.454 0 0zm3.12 1.68c-1.2658 0.84391 1.3242 0.0874 0 0zm-24.72 1.68c1.4685 0.81703-1.4357 0.78099 0 0zm16.56 2.4c1.3201-0.011-0.76845-0.92477 0 0zm9.12 0.48c0.81851-1.2174 0.42134 1.1628 0 0zm0 0.72c0.63165 1.736-1.3649-0.59022 0 0zm-2.4 0.24c0.64296-1.25 0.51493 1.0696 0 0zm-1.68 1.44c2.3374-1.6538-1.6567 3.5036-0.91223 0.49525 0.0379-0.66503 0.42087-1.1538 0.91223-0.49525zm-23.28 9.84c1.9219 1.8899 2.3898-1.2875 1.5363-2.6006-1.2318-1.5652 0.01-3.5988 0.64044-5.2332 0.69638-1.9185 2.7434-1.1173 3.9789-0.94907 1.5753-0.93497 3.9945-0.24522 4.0502 1.8094 0.20194 2.1951-0.67556 4.3648-1.565 6.294-1.9915 2.1874-5.3012 1.903-7.9835 1.6526-0.81723 0.12653-0.52426-0.46888-0.65751-0.97323zm14.64-9.36c1.2119-0.99375-0.0951 1.4168 0 0zm9.84 1.2c1.7933-0.58848-1.1545 3.3442-0.53157 0.94716 0.0446-0.37505 0.35148-0.6338 0.53157-0.94716zm-7.2-0.96c-1.297 0.99473 1.4896 0.10345 0 0zm-3.6 0.72c0.3916-1.2348 0.71939 1.0222 0 0zm8.16-0.24c1.5081 0.86229-1.4659 0.69702 0 0zm6.96 1.92c1.4897-1.5048 0.32254 1.4423 0 0zm0 2.4c1.8277-0.94877-0.15314 2.0306 0 0zm1.92 0.24c1.6871-0.89674 2.9177 2.3355 2.0064 3.0875-0.55761-1.1344-1.0889-2.177-2.0064-3.0875zm-32.4 2.88c0.14864 1.7268-1.3926-0.78311 0 0zm30 1.2c1.2766-0.10352-0.80574 0.70044 0 0zm0.72 0c2.3211 0.4524-1.4665 1.3812 0 0zm-23.04 1.2c1.2095-0.70938-0.10066 1.1698 0 0zm-3.36 0.24c1.9824-0.43599-0.70285 1.525 0 0zm-4.8 0.72c0.90172 1.1921-0.54473 2.082-0.59814 0.39307 0.0926-0.24202 0.36526-0.34974 0.59814-0.39307zm5.28 2.16c1.726 0.31474-0.99465 1.2887 0 0zm4.32 4.32c0.87567 0.87105 2.0046-2.2447 1.5305-0.035 0.10101 1.3154-1.5302 1.2334-1.5305 0.035zm7.44-1.2c0.48111 1.7318-1.4558-0.41909 0 0z"/>
</g>
<g transform="matrix(0 .1773 .1773 0 17.29 .48093)">
<path d="m352.32 643.44c-2.5961 3.021-0.0281 7.4159 3.7154 7.3137 2.1419 0.054 1.4003-1.3718 2.266 0.70986 2.3431 1.5463 3.359-1.4025 3.1226-1.9392 0.56103-1.6277 1.389-2.7667 1.1997-0.10806 0.0346 4.9286 5.7962 2.1377 8.7936 3.1742 4.661 1.5977 9.816 0.73612 14.605 1.9824 4.798 1.2083 9.7477 0.77781 14.55 1.932 2.7889 0.78111 2.2058 5.0268 5.1552 4.8995 3.8908 1.9819 5.9028-5.0691 3.3756-7.5663-1.6257-2.4283-0.26212-2.5744 1.142-0.55706 1.6901-0.81498 0.77488-6.3582-1.2355-3.479-1.7364-1.1525 2.1214-1.8176-0.58668-2.8822-1.3673-2.2543 4.1012-3.4302 4.1006-6.4167 1.8794-5.1538 0.66481-11.344-3.5149-15.049-3.2318-3.8551-7.959-6.031-12.933-6.3232-5.0053-1.0894-10.318-0.82841-15.01 1.3332-5.4566 1.6557-7.8808 7.466-8.404 12.694-1.6193 2.5806 4.4323 8.7566-1.236 7.9105-2.1136-0.43842-5.3925 0.5073-5.9776 1.4013 1.6365-4.716-5.8994-0.18742-4.5536-4.6843 0.64665-2.1826-2.5384-6.6813-3.3542-3.0714 0.88685 2.0539-0.12844 5.8724-2.5627 4.0563 4.0108-0.36479 1.0965-8.8192-0.6141-4.0846-1.1386 2.7064-0.0286 5.5786-2.0776 8.0346l0.0352 0.71973zm26.64-19.92c2.2369 0.88116 1.3141 4.8945-0.26296 2.0847-0.0758-0.7043 0.0646-1.412 0.26296-2.0847zm-2.4 0c2.3755 0.3405-1.0479 2.1951 0 0zm8.4 3.84c2.3258-0.60074 1.1748 3.9427 0.30425 0.45307zm-4.32 7.92c2.2091-4.2944 7.763-3.5792 11.789-3.5239 4.964 0.0579 9.3712 2.9453 13.382 4.9708 2.6554-1.1129-0.0931 3.006-1.6816 2.6474-2.6272 3.4302-7.0402 4.3431-10.552 5.2988-0.0647 1.872 3.9497 2.9957 1.7183 4.8714 0.18829-4.169-2.8377 2.3048-3.0716-0.65424 3.2956 0.28175 0.2265-5.4642-1.3225-2.3964 3.9038-4.3651-3.4583-2.3506-5.7168-3.9803-2.7473-0.85412-5.6993-4.3127-4.5445-7.2336zm-24-2.16c1.5648 0.46098-0.54602-1.1673 0 0zm3.36 3.12c-0.78258 1.2786-1.1997-1.0209 0 0zm-1.68 1.2c1.4348-0.61775-0.94711 0.96373 0 0zm1.68 0c0.0279 2.4179-1.6863 3.807-0.59899 0.6643l0.23551-0.38659zm-1.68 1.2c1.2536 0.80839-1.2291 0.15404 0 0zm-4.08 2.16c1.1414-2.5161 5.5491 1.5033 1.8141 1.2239 1.3588 2.2405-1.0715 3.0993-0.50842 0.27349 0.0571-0.75951-0.20603-2.1284-1.3057-1.4974zm23.76-0.24c2.3365-0.44945-1.1104 1.7391 0 0zm-12 2.88c2.4029 0.0117-0.91359 2.205 0 0zm31.92 1.68c1.7157-0.63866 4.9474-1.7525 3.5557 1.7122-0.37222 2.8662-0.30364 0.57109-1.3049-0.23998-2.4257 2.8081-1.5037-0.41629-2.2508-1.4722zm-41.28-0.24c1.7269 0.0527-1.1363 0.98729 0 0zm-2.16 1.2c-2.2216 2.6395-1.6108-3.1026 0 0zm24.48-0.48c2.0302-0.45853 6.7667 3.3531 2.6755 2.6324-0.85571-2.3051-3.8978 0.36404-2.6755-2.6328zm-23.76 0.96c1.1105-0.74141-0.11829 1.304 0 0zm-0.48 0.72c1.8768-0.089-1.2772 1.4342 0 0zm35.76 0.96c1.7558-0.86521 0.88067 4.3211-0.38539 1.1346-0.29055-0.41466 0.13709-0.85287 0.38539-1.1346zm14.88 0c2.1544-0.0763-0.82647 1.9599 0 0zm-24.96 0c1.0627-0.19708-0.51751 0.90586 0 0zm2.64 0.24c1.3072 7e-3 -0.69591 1.1152 0 0zm2.16 2.4c1.3153 2.1696-1.7892 2.7835 0 0zm14.88 3.12c1.6886-1.0048 0.12764 1.5852 0 0z"/>
</g>
<g transform="matrix(0 .1773 .1773 0 17.29 .48093)">
<path d="m368.16 678c-0.0615 2.3831-4.4445 6.111 0.54301 6.4711 2.1142 1.5699 3.818-0.61096 4.9071 2.2175 1.6562 0.66666 6.48 0.30777 3.7275-1.7638 2.1388-0.94092 1.8855 4.5476 3.5868 0.72234 0.47447-3.2934 2.1332-0.99559 3.1992 0.52174 1.0779 0.20941 1.1726-4.0726 2.2518-1.4656-2.4412 4.0546 4.2029 5.0313 6.8261 5.1341 0.84646-1.7538 1.1307 2.2558 3.3608 1.1605 4.7895 0.26142 7.3503-3.6271 9.9294-6.7424 0.93369-3.7372 2.5772-7.9338 0.86541-11.678-1.7832-3.3847 4.3556-5.8677 0.81796-9.1218-1.3225-2.218-3.3466-0.18847-3.825 0.25769-1.597-2.8812-5.4522-2.0574-8.156-2.8392-4.9835-0.54666-2.953 6.2167 0.4506 7.0012 3.1476 1.5071 4.1502 4.9102 4.0599 8.154 1.0586 2.8765-1.7514 7.3324-4.651 6.6314-1.7113-3.0336-1.1448-6.8134-2.0167-10.133-0.54631-4.5157-2.9213-10.164-8.112-10.583-0.73079 0.14833-2.1668-2.5826-1.8696 9e-3 -1.0986 1.8907-2.8256 2.9972-2.0465 5.3943-2.2014 1.8008-0.52109 4.3374-1.354 6.627 0.18848 2.7489 1.3812 6.1624-0.47275 8.2234-1.1774-0.77402-3.1821-2.579-2.9566 0.2579 1.6105 1.7222-1.9946-0.69947-0.53615-2.0023-1.1272-2.8558-2.7198-5.7852-1.9137-8.9508 0.37889-1.4035-0.70038-3.5714-1.5021-1.2688-3.2017-0.60146 2.3795 2.5697-0.97892 3.6705-0.90558-0.14265 0.99264 1.7183 0.23829 2.9329 1.9349 1.6345-1.9092 1.4097-0.71268-0.72935-0.80916-1.5823-1.7364-2.9328 0.53417-4.1672-1.7173 0.79964-2.6918-3.1744-0.0527-2.7501 2.291-1.2396 6.0205-1.3074 8.5639-1.1446-0.3849-1.5101-1.4524-0.96695-2.0587-2.5868 1.1568-1.4548 1.3457 1.6151 2.1362-1.2166 3.3751-4.4932-4.6818-5.5169-5.5466-1.7335-1.5821 1.8594-4.9569-0.97988-1.2119-0.3423 3.018-1.3082-0.48585-2.9948-1.511-0.63213-1.577 2.6796-5.1266 4.0824-4.687 7.6976-0.78797 3.0756-1.0567 6.6828 1.3262 8.9109-0.0647 0.79074-1.0793 0.38334-1.1528-0.14342zm14.4-17.04c1.4043 0.21933-0.61557-1.3227 0 0zm-1.44 1.2c-1.2329 4.0956-1.3016-2.6885 0 0zm-9.84 4.56c-0.37049-2.939 2.9719-3.5068 2.4262-1.0665-1.8955 0.0777-1.7717 4.6096-3.053 1.3794-0.33059-1.1304 0.0137-1.639 0.62676-0.31283zm15.84-3.36c0.4238 1.6099 1.4196 2.6764-0.59948 0.79067-0.73361-0.58872-0.0311-1.1254 0.59948-0.79067zm-4.32 1.2c2.9176-1.36 0.52841 4.8641 1.1391 1.9471 0.89913-0.60283-1.0576-1.3983-1.1391-1.9471zm-7.44 0.96c1.5468-1.0817 0.53446 1.8205 0 0zm2.88 1.2c2.3858-1.1072-0.45693 1.4979 0 0zm4.56 2.16c1.6565-1.5052 1.7999 2.851 0 0zm-0.96-0.24c1.8676-0.10921-0.56241 1.5993 0 0zm-1.92 2.16c1.5083 1.0943-0.40315-1.7089 0 0zm25.2-0.24c0.79392 1.9591-2.9894 0.71569 0 0zm-18.24 0.48c2.3774-1.0841 0.65239 3.8569-0.60456 1.3258 5e-3 -0.51217 0.28719-0.95325 0.60456-1.3258zm-4.8 0.24c3.0288 0.46061-0.68538 1.6313 0 0zm-7.92 0.72c-0.29569 1.0909-0.5853-0.56758 0 0zm7.2 0.24c0.77335 0.62361 3.7799 3.1471 1.0784 3.236-0.44094-1.05-1.0283-2.0681-1.0784-3.236zm3.6 1.68c1.698 0.97982-1.6029 0.97916 0 0zm3.6 2.64c0.98158-0.75308 4.3597-2.5556 2.6812 0.0566-1.2883-0.25244-1.4443 0.0641-2.1538 1.4849-0.39529-0.41851-0.60541-0.97197-0.5274-1.5415zm0.24-1.68c2.3532-0.2824-0.9156 2.0058 0 0zm-2.88 0c1.9599-1.1488-0.34101 1.8176 0 0zm15.6 0.72c2.5364 0.9241-1.7272 2.0613 0 0zm-13.68 2.16c-0.76733 1.2004-0.65113-1.2683 0 0zm-18 0.72c1.3072-1.544 1.1554 1.7708 0 0zm0.72 2.88c1.5485-1.0816 1.0432-3.9612 1.554-0.68005-0.11574 0.89614 0.20091 3.4114-1.8477 2.9626 1.6012-2.2369-1.0845-0.25004 0.2937-2.2826zm11.04-2.88c1.5296 0.93472-1.5926 0.78972 0 0zm7.92 0.48c1.9436-0.11463-0.59162 1.9751 0 0zm-21.12 1.68c1.3419 0.65999 1.5418-0.95943 1.043 1.1168 0.94478 2.5342-1.213 2.8368-1.2047 0.40276 0.3525-0.31914-0.79522-2.5098 0.16168-1.5196zm6-0.24c1.4258-0.64018-0.0994 1.267 0 0zm15.36 0.24c0.71305 0.63071-0.88964 0.10903 0 0zm12.24 0.24c1.9815 0.7804 5.0445 1.1622 3.9763 3.2221-1.1686-0.45141-1.7124-1.5039-3.5302-1.6543-0.75876-0.28282 0.20996-1.5497-0.44607-1.5678zm0.48 2.64c1.3342-1.0009-4e-3 1.3921 0 0zm0.96 0c2.6034-0.28874-0.67368 2.5584 0 0zm-19.68 1.68c1.3491-0.72521-0.0893 1.3238 0 0zm14.16 4.08c1.7058 1.0494-1.6772 0.8828 0 0zm0.72 0.48c2.0489-0.83171-0.30789 1.6508 0 0z"/>
</g>
</svg>
