<?xml version="1.0" encoding="UTF-8"?>
<svg version="1.1" viewBox="0 0 250 91" xmlns="http://www.w3.org/2000/svg" xmlns:cc="http://creativecommons.org/ns#" xmlns:dc="http://purl.org/dc/elements/1.1/" xmlns:rdf="http://www.w3.org/1999/02/22-rdf-syntax-ns#">
<g transform="translate(-1.9605e-6 -.5)" fill="#fff">
<path class="st2" d="m203.91 44.41-10.592-7.1389c-0.99188-0.67019-1.587-1.7881-1.587-2.9864v-2.8175c0-2.8925 3.2357-4.6029 5.6269-2.9756l10.592 7.2139c0.98384 0.67019 1.5736 1.7854 1.5736 2.9756v2.7451c0 2.8818-3.2223 4.5948-5.6135 2.9837z" opacity=".5" stroke-width=".26808"/>
<path class="st0" d="m46.089 40.47 10.592 7.1389c0.99188 0.67019 1.587 1.7881 1.587 2.9864v2.8202c0 2.8925-3.2357 4.6029-5.6269 2.9756l-10.589-7.2139c-0.98384-0.67019-1.5736-1.7854-1.5736-2.9756v-2.7451c0-2.8845 3.2196-4.5975 5.6108-2.9864z" opacity=".5" stroke-width=".26808"/>
<path class="st1" d="m46.089 44.41 10.594-7.1389c0.99188-0.67019 1.587-1.7881 1.587-2.9864v-2.8175c0-2.8925-3.2357-4.6029-5.6269-2.9756l-10.592 7.2112c-0.98384 0.67287-1.5736 1.7854-1.5736 2.9756v7.5195c0 1.1903 0.58977 2.3055 1.5736 2.9756l4.1016 2.8175s-2.2947-2.1044-2.2947-4.3991c0-2.2947 2.2304-3.1821 2.2304-3.1821z" stroke-width=".26808"/>
<path class="st1" d="m203.91 40.47-10.592 7.1389c-0.99188 0.67019-1.587 1.7881-1.587 2.9864v2.8202c0 2.8925 3.2357 4.6029 5.6269 2.9756l10.592-7.2139c0.98384-0.67019 1.5736-1.7854 1.5736-2.9756v-7.5195c0-1.1903-0.58976-2.3055-1.5736-2.9756l-4.1016-2.8175s2.2947 2.1044 2.2947 4.3991c0 2.2947-2.2331 3.1821-2.2331 3.1821z" stroke-width=".26808"/>
<path class="st3" d="m46.089 44.41 10.594-7.1389c0.99188-0.67019 1.587-1.7881 1.587-2.9864v-2.8175c0-2.8925-3.2357-4.6029-5.6269-2.9756l-10.592 7.2112c-0.98384 0.67287-1.5736 1.7854-1.5736 2.9756v7.5195c0 1.1903 0.58977 2.3055 1.5736 2.9756l4.1016 2.8175s-2.2947-2.1044-2.2947-4.3991c0-2.2947 2.2304-3.1821 2.2304-3.1821z" stroke-width=".26808"/>
<path class="st3" d="m203.91 40.47-10.592 7.1389c-0.99188 0.67019-1.587 1.7881-1.587 2.9864v2.8202c0 2.8925 3.2357 4.6029 5.6269 2.9756l10.592-7.2139c0.98384-0.67019 1.5736-1.7854 1.5736-2.9756v-7.5195c0-1.1903-0.58976-2.3055-1.5736-2.9756l-4.1016-2.8175s2.2947 2.1044 2.2947 4.3991c0 2.2947-2.2331 3.1821-2.2331 3.1821z" stroke-width=".26808"/>
<g transform="matrix(.26808 0 0 .26808 40.478 11)">
<path class="st4" d="m170.72 40.14h-2.44c-0.94 0-1.69-0.85-1.69-1.79v-8.37c0-1.03 0.75-1.79 1.69-1.79h2.44v-10.42c0-0.94 0.85-1.79 1.79-1.79h10.06c0.94 0 1.69 0.85 1.69 1.79v10.43h6.96c1.03 0 1.79 0.75 1.79 1.79v8.37c0 0.94-0.75 1.79-1.79 1.79h-6.96v11.75c0 2.07 1.41 2.26 2.54 2.26 1.32 0 2.73-0.47 3.67-0.66s1.79 0.19 2.07 1.22l2.07 7.8c0.19 0.85-0.28 1.88-1.22 2.16 0 0-6.67 2.07-11.38 2.07-7.14 0-11.28-4.51-11.28-13.07v-13.54z"/>
<path class="st4" d="m201.56 1.79c0-0.94 0.85-1.79 1.79-1.79h10.44c0.94 0 1.79 0.85 1.79 1.79v27.64c2.82-1.41 5.92-2.16 8.74-2.16 11.85 0 17.96 9.31 17.96 19.74v17.02c0 0.94-0.85 1.79-1.79 1.79h-9.97c-1.03 0-1.79-0.85-1.79-1.79v-17.2c0-4.14-2.73-7.43-6.86-7.43-3.01 0-6.3 1.69-6.3 7.43v17.2c0 1.22-0.47 1.79-2.07 1.79h-10.15c-0.94 0-1.79-0.85-1.79-1.79z"/>
<path class="st4" d="m268.02 27.26c9.59 0 17.86 7.33 17.86 17.67 0 0.66-0.09 1.88-0.19 2.54-0.09 0.94-0.94 1.6-1.79 1.6h-22.56c0.28 2.54 2.35 6.2 7.24 6.2 2.35 0 5.08-1.13 6.58-2.26 0.85-0.66 1.79-0.66 2.35 0l4.7 5.64c0.56 0.75 0.75 1.88-0.09 2.73-3.29 3.29-7.99 5.36-13.91 5.36-11.19 0-19.65-8.93-19.65-19.74 0-10.62 8.37-19.74 19.46-19.74zm4.61 14.48c-0.19-2.44-2.54-4.42-4.98-4.42-2.54 0-4.7 1.97-5.08 4.42z"/>
</g>
<g transform="matrix(.26808 0 0 .26808 40.478 11)">
<path class="st5" d="m122.73 79.1c11.73 0 20.85 4.84 27.92 13.4 1.3 1.68 0.74 3.72-0.93 5.21l-11.17 10.61c-0.93 0.93-3.16 0.56-4.1-0.37-2.61-2.79-6.52-4.84-10.8-4.84-8.19 0-14.89 6.89-14.89 15.08 0 8.38 6.33 15.08 14.52 15.08 6.52 0 9.68-2.79 12.66-5.77 1.3-1.3 2.98-1.68 4.1-0.74l11.17 9.68c1.68 1.49 2.61 3.35 1.3 5.21-6.89 10.42-16.57 15.64-29.97 15.64-21.22 0-40.02-16.75-40.02-39.09 0-21.98 18.99-39.1 40.21-39.1z"/>
<path class="st5" d="m199.42 79.1c21.22 0 38.72 17.87 38.72 38.91 0 21.41-17.5 39.28-38.72 39.28s-38.72-17.87-38.72-39.28c0-21.04 17.5-38.91 38.72-38.91zm0 54.17c8.19 0 14.71-6.89 14.71-15.26 0-8.19-6.52-14.89-14.71-14.89s-14.71 6.7-14.71 14.89c0 8.37 6.52 15.26 14.71 15.26z"/>
<path class="st5" d="m284.11 79.1c6.33 0 13.22 2.23 15.45 3.54v-53.99c0-1.86 1.68-3.54 3.54-3.54h20.66c1.86 0 3.54 1.68 3.54 3.54v123.23c0 1.86-1.68 3.54-3.54 3.54h-8.75c-1.86 0-3.16-1.68-3.91-3.72l-2.23-6.14s-8.56 11.73-24.94 11.73c-21.03 0-36.86-17.68-36.86-39.09 0-26.26 17.12-39.1 37.04-39.1zm3.54 54.17c8.56 0 14.89-6.7 14.89-15.26 0-8.38-6.33-14.89-14.89-14.89s-15.08 6.52-15.08 14.89c0 8.55 6.52 15.26 15.08 15.26z"/>
<path class="st5" d="m380.35 79.1c18.99 0 35.37 14.52 35.37 35 0 1.3-0.19 3.72-0.37 5.03-0.19 1.86-1.86 3.16-3.54 3.16h-44.68c0.56 5.03 4.65 12.29 14.33 12.29 4.65 0 10.05-2.23 13.03-4.47 1.68-1.3 3.54-1.3 4.65 0l9.31 11.17c1.12 1.49 1.49 3.72-0.19 5.4-6.52 6.52-15.82 10.61-27.55 10.61-22.15 0-38.91-17.68-38.91-39.09 0.02-21.05 16.58-39.1 38.55-39.1zm9.12 28.66c-0.37-4.84-5.03-8.75-9.87-8.75-5.03 0-9.31 3.91-10.05 8.75z"/>
<path class="st5" d="m429.12 84.49c0-2.05 1.68-3.54 3.54-3.54h8.75c2.05 0 2.79 1.12 3.35 2.23l3.35 8.19c3.72-5.4 10.61-12.29 20.29-12.29 10.24 0 17.5 3.72 14.89 8l-9.12 14.89c-0.74 1.3-2.05 2.42-4.1 1.68-0.93-0.37-2.79-0.93-4.47-0.93-5.58 0-9.87 4.28-9.87 10.61v38.53c0 2.23-1.12 3.54-4.1 3.54h-18.99c-1.86 0-3.54-1.68-3.54-3.54v-67.37z"/>
<path class="st5" d="m489.42 147.23 6.52-12.84c0.56-1.12 2.42-2.23 3.91-1.49 0 0 8.75 4.84 16.75 4.84 1.86 0 3.54-1.12 3.54-3.35 0-1.86-1.12-4.47-10.61-7.82-14.52-5.03-20.85-13.4-20.85-24.94 0-12.47 8.93-22.52 29.04-22.52 11.73 0 20.66 3.16 24.76 5.77 1.68 1.12 2.98 2.79 1.86 4.65l-6.89 12.66c-0.56 1.12-2.42 1.68-3.91 1.12 0 0-8.56-4.28-15.82-4.28-2.42 0-4.1 0.56-4.1 2.61 0 1.86 2.05 3.72 8.38 5.96 15.08 5.21 25.5 11.17 25.5 26.06 0 13.03-10.42 23.64-31.46 23.64-12.29 0-21.59-3.16-25.32-6.14-1.3-1.14-2.23-2.26-1.3-3.93z"/>
</g>
<g transform="matrix(.26808 0 0 .26808 40.478 11)">
<path class="st4" d="m280.64 218.24s-2.73-2.82-2.73-8.56c0-8.74 7.43-16.26 16.55-16.26h17.77c1.03 0 1.79 0.75 1.79 1.79v3.85c0 0.66-0.47 1.32-1.03 1.6l-5.45 1.97s3.57 2.91 3.57 9.12c0 6.86-6.3 14.2-16.26 14.2h-6.77c-1.97 0-3.1 1.03-3.1 2.54 0 1.79 1.6 2.54 3.01 2.54h11.28c8.84 0 16.17 5.36 16.17 13.73 0 9.03-6.3 16.36-21.15 16.36-14.57 0-19.65-6.86-19.65-12.79 0-5.64 4.7-8.46 5.73-9.02v-0.28c-1.22-0.38-7.24-3.01-7.24-10.44-0.01-7.44 7.51-10.35 7.51-10.35zm13.63 31.87c4.7 0 6.77-1.88 6.77-4.42 0-1.97-1.69-3.95-6.77-3.95-3.38 0-6.77 1.22-6.77 3.95 0 2.63 2.26 4.42 6.77 4.42zm0.57-34.69c2.91 0 4.98-2.07 4.98-4.89s-2.07-4.89-4.98-4.89c-2.82 0-4.98 2.07-4.98 4.89-0.01 2.82 2.16 4.89 4.98 4.89z"/>
<path class="st4" d="m320.03 196.15c0-1.03 0.85-1.79 1.79-1.79h10.06c0.94 0 1.79 0.75 1.79 1.79v17.39c0 3.85 2.16 7.24 6.02 7.24 3.67 0 5.64-3.48 5.64-6.67v-17.96c0-1.5 1.03-1.79 1.97-1.79h9.59c0.94 0 1.79 0.75 1.79 1.79v34.03c0 0.94-0.85 1.79-1.79 1.79h-4.42c-0.85 0-1.5-0.66-1.79-1.32l-1.41-3.48c-2.44 2.35-5.45 5.73-12.69 5.73-11.19 0-16.55-9.02-16.55-19.74z"/>
<path class="st4" d="m368.25 175.56c0-4.14 3.29-7.52 7.43-7.52s7.52 3.38 7.52 7.52-3.38 7.43-7.52 7.43c-4.13-0.01-7.43-3.3-7.43-7.43zm0.57 20.59c0-1.03 0.85-1.79 1.79-1.79h10.34c0.94 0 1.79 0.75 1.79 1.79v34.03c0 0.94-0.85 1.79-1.79 1.79h-10.34c-0.94 0-1.79-0.85-1.79-1.79z"/>
<path class="st4" d="m392.88 167.94c0-0.94 0.85-1.79 1.79-1.79h10.34c0.94 0 1.79 0.85 1.79 1.79v62.24c0 0.94-0.85 1.79-1.79 1.79h-10.34c-0.94 0-1.79-0.85-1.79-1.79z"/>
<path class="st4" d="m432.93 193.42c3.2 0 6.67 1.13 7.8 1.79v-27.26c0-0.94 0.85-1.79 1.79-1.79h10.43c0.94 0 1.79 0.85 1.79 1.79v62.24c0 0.94-0.85 1.79-1.79 1.79h-4.42c-0.94 0-1.6-0.85-1.97-1.88l-1.13-3.1s-4.32 5.92-12.6 5.92c-10.62 0-18.61-8.93-18.61-19.74 0-13.27 8.65-19.76 18.71-19.76zm1.79 27.36c4.32 0 7.52-3.38 7.52-7.71 0-4.23-3.2-7.52-7.52-7.52s-7.61 3.29-7.61 7.52c-0.01 4.32 3.29 7.71 7.61 7.71z"/>
</g>
</g>
</svg>
