<?xml version="1.0" encoding="UTF-8"?>
<svg version="1.1" viewBox="0 0 250 91" xmlns="http://www.w3.org/2000/svg" xmlns:cc="http://creativecommons.org/ns#" xmlns:dc="http://purl.org/dc/elements/1.1/" xmlns:rdf="http://www.w3.org/1999/02/22-rdf-syntax-ns#">
<metadata>
<rdf:RDF>
<cc:Work rdf:about="">
<dc:format>image/svg+xml</dc:format>
<dc:type rdf:resource="http://purl.org/dc/dcmitype/StillImage"/>
<dc:title/>
</cc:Work>
</rdf:RDF>
</metadata>
<g transform="translate(0,-961.4)" fill="#fff">
<path d="m97.541 1042.2c-1.573-0.4-2.724-1.6-3.068-3.3-0.09-0.4-0.11-1-0.09-2.7 0.02-2.2 0.02-2.2 0.219-2.8 0.329-0.9 0.838-1.6 1.558-2.1 0.83-0.6 1.55-0.8 2.88-0.8 2.626 0.1 4.286 1.4 4.476 3.7v0.7h-1.32-1.32l-0.1-0.4c-0.1-0.6-0.26-1-0.62-1.3-0.307-0.3-0.887-0.5-1.294-0.5-0.532 0-1.252 0.5-1.558 1.1-0.328 0.6-0.399 1.1-0.399 2.6 0 2 0.149 2.5 0.83 3.2 0.391 0.4 0.744 0.6 1.307 0.6 0.994 0 1.624-0.6 1.734-1.8l0.1-0.4h1.27 1.28v0.7c0 1.8-1.07 3.1-2.88 3.5-0.694 0.2-2.37 0.2-3.059 0zm9.269 0c-1.22-0.3-2.13-1.3-2.5-2.6-0.16-0.6-0.19-2.6-0-3.3 0.37-1.4 1.44-2.5 2.79-2.8 0.57-0.1 1.97-0.1 2.48 0 1.36 0.4 2.33 1.4 2.69 2.8 0.14 0.6 0.14 2.6 0 3.1-0.35 1.4-1.29 2.5-2.56 2.8-0.67 0.2-2.21 0.2-2.86 0zm2.07-2.2c0.32-0.2 0.66-0.9 0.78-1.5 0.15-0.8-0.1-2-0.5-2.5-0.21-0.2-0.67-0.5-0.89-0.5-0.49 0-1.01 0.5-1.27 1.2-0.22 0.5-0.24 1.8-0 2.4 0.39 1 1.2 1.4 1.92 0.9zm6.21 2.2c-0.98-0.3-1.62-1.1-1.97-2.4-0.17-0.7-0.17-2.9 0-3.6 0.3-1.3 1.02-2.3 1.86-2.6 0.37-0.1 0.56-0.2 1.35-0.2 0.9 0 0.94 0 1.38 0.3l0.46 0.2v-2-2h1.32 1.31v6.1 6.2h-1.15-1.17l-0.1-0.3-0.1-0.2-0.32 0.2c-0.45 0.4-0.87 0.5-1.77 0.5-0.58 0-0.88-0.1-1.18-0.2zm2.39-2.1c0.18-0.1 0.41-0.3 0.51-0.4 0.18-0.3 0.18-0.3 0.18-1.8v-1.6l-0.31-0.3c-0.2-0.2-0.43-0.3-0.63-0.4-0.28-0.1-0.35-0.1-0.64 0.1-0.39 0.2-0.56 0.4-0.78 1-0.13 0.4-0.16 0.6-0.16 1.3 0 1.1 0.24 1.8 0.82 2.1 0.35 0.2 0.6 0.2 1.01 0zm7.17 2.1c-1.29-0.3-2.22-1.2-2.63-2.6-0.17-0.6-0.2-2.6-0-3.3 0.37-1.5 1.41-2.5 2.72-2.8 0.56-0.1 1.77-0.1 2.36 0 0.87 0.2 1.64 0.8 2.05 1.6 0.28 0.6 0.37 1.2 0.38 2.5v1.2h-2.43-2.42c0 0.1 0.25 0.6 0.41 0.8 0.25 0.3 0.84 0.6 1.28 0.6 0.43 0 1.08-0.1 1.54-0.4 0.25-0.1 0.47-0.2 0.63-0.1 0.25 0 0.27 0 0.55 0.6 0.36 0.8 0.37 1.1 0 1.3-0.36 0.2-0.87 0.5-1.5 0.6-0.69 0.2-2.34 0.2-2.95 0zm2.22-5.6c-0.11-0.5-0.48-0.9-0.91-1-0.45-0.1-1.07 0.4-1.24 1l-0.1 0.2h1.14 1.14zm3.72-0.2v-5.7h1.67 1.68l1.32 3.8c0.72 2.1 1.32 3.8 1.34 3.8 0-0.1 0.61-1.8 1.33-3.8l1.31-3.8h1.66 1.66v5.7 5.8h-1.32-1.32v-1.6c0-0.9 0-2.4 0.1-3.4 0-0.9 0.1-1.7 0.1-1.7-0-0.1-0.5 1.2-1.08 2.8s-1.14 3.1-1.24 3.4l-0.18 0.5h-0.97-0.96l-1.24-3.4c-0.69-1.9-1.25-3.5-1.26-3.5v1.1c0 0.7 0.1 2.2 0.1 3.5v2.3h-1.32-1.32v-5.8zm13.59 1.5v-4.4h1.32 1.32v4.4 4.3h-1.32-1.32zm4.19-1.9v-6.1h1.32 1.32v6.1 6.2h-1.32-1.32zm4.18 0v-6.1h1.33 1.32v6.1 6.2h-1.32-1.33zm-8.32-4v-1.1-1h1.32 1.32v1 1.1h-1.27-1.32z"/>
<path d="m104.51 1026.8c0-0.2 0.16-0.2 0.7-0.2 0.49 0 0.8 0.1 0.72 0.2-0 0-0.35 0.1-0.73 0.1-0.54 0-0.69-0.1-0.69-0.1zm-4.49-0.1c0-0.2-0.107-0.1 0.85-0.2 0.79 0 1.06 0 0.96 0.2-0 0.1-0.37 0.1-0.93 0.1-0.73 0-0.88 0-0.88-0.1zm-3.52-0.1c0-0.1 0.08-0.1 0.18-0.1 0.227-0.1 1.402-0.1 1.472 0 0.149 0.2-0.102 0.2-0.853 0.2-0.658 0-0.799 0-0.799-0.1zm-2.865-0.1c-0.117-0.1-0.04-0.3 0.09-0.2 0.05 0 0.196 0.1 0.329 0.1s0.235 0.1 0.219 0.1c-0.05 0.2-0.532 0.2-0.642 0zm15.065 0c0-0.1 0.17-0.1 1.13-0.1s1.14 0 1.14 0.1-0.21 0.1-1.14 0.1c-0.92 0-1.13 0-1.13-0.1zm10.6 0v-0.1c0.1-0.1 3.81-0.1 3.93-0.1 0.1 0.1 0.1 0.1 0 0.2s-3.91 0.1-3.98 0zm4.86 0c-0.1-0.2 0-0.2 0.93-0.2 0.97 0 1.24 0 1.24 0.2 0 0.1-0.18 0.1-1.06 0.1-0.68 0-1.08-0.1-1.11-0.1zm13.22-0.1c-0-0.1 0.1-0.2 0.22-0.2 0.14 0 0.28 0.1 0.23 0.2-0 0.1-0.13 0.1-0.23 0.1s-0.19 0-0.22-0.1zm1.98 0v-0.1c0.12-0.1 4.25-0.1 4.43-0.1 0.1 0.1 0.12 0.1 0.12 0.2s-0.38 0.1-2.27 0.1c-1.59 0-2.29 0-2.33-0.1zm-45.678-0.5c-0.09-0.1-0.05-0.4 0.05-0.4 0.125 0 0.204 0.1 0.141 0.3-0.04 0.1-0.117 0.1-0.196 0.1zm13.038-0.1c0-0.1 0.1-0.1 0.1-0.1 0.11 0 0.1 0.2-0 0.2s-0.1 0-0.1-0.1zm1.83-0.3c0-0.5 0.1-0.7 0.22-0.5 0.1 0.2 0.1 0.6 0 0.8-0 0.1-0.1 0.1-0.15 0.1-0.1 0-0.1-0.1-0.1-0.4zm-14.813-0.5c-0.02-0.1-0.02-0.2 0-0.2 0.05-0.2 0.06-0.2 0.157 0 0.101 0.1 0.07 0.3-0.05 0.3-0.04 0-0.09 0-0.11-0.1zm0.09-0.8c-0.09 0-0.06-0.2 0.06-0.2 0.05 0 0.109 0.1 0.109 0.1 0 0.2-0.08 0.2-0.172 0.1zm7.199-0.1c-0.1 0-0.11-0.1-0.1-0.1 0-0.2 1.52-0.1 1.52 0 0 0-0.1 0.1-0.24 0.1h-0.64-0.54zm-3.817-0.1c-0.219-0.1-0.06-0.2 0.391-0.2 0.329 0 0.438 0 0.438 0.1 0 0.2-0.563 0.2-0.829 0.1zm14.247 0c-0.27-0.1-0.1-0.2 0.35-0.2 0.4 0 0.65 0.1 0.53 0.2-0.1 0-0.71 0.1-0.88 0zm-7.54-0.1c0-0.1 0-0.1 0.1-0.1 0 0 0.1 0.1 0 0.1-0.1 0.1-0.1 0.1-0.1 0zm21.4 0.1c-0-0.1-0.1-0.1-0.1-0.2s0.32-0.1 1.95-0.1c1.88 0 2.21 0 1.88 0.2-0.14 0.1-3.55 0.1-3.73 0.1zm17.48-0.1c-0.1 0-0.1-0.1-0.1-0.2s0.41-0.1 0.48 0c0.1 0.2-0.17 0.3-0.39 0.2zm-48.93-0.5c0.03-0.2 0.157-0.2 0.188 0 0.02 0-0.02 0.1-0.09 0.1s-0.11-0.1-0.09-0.1zm0.07-0.8c0.03-0.1 0.164-0.1 0.195 0 0.02 0.1-0.02 0.2-0.101 0.2-0.07 0-0.11-0.1-0.09-0.2zm12.439-2.6h0.1v0.1s-0.1 0-0.1-0.1zm-0.1-1.1v-0.1s0.1 0 0.1 0.1h-0.1zm4.77-0.1c-0-0.2 0-0.4 0.16-0.4 0.1 0 0.1 0.1 0.1 0.2-0 0.3-0.18 0.4-0.25 0.2zm-16.709-0.5c0-0.1 0.05-0.1 0.11-0.1s0.109 0 0.109 0.1-0.05 0.1-0.109 0.1c-0.06 0-0.11 0-0.11-0.1zm14.119-0.3c0-0.3 0-0.4 0.1-0.4s0.11 0.1 0.1 0.2v0.4c0 0.1 0 0.2-0.11 0.2-0.1 0-0.1-0.1-0.1-0.4zm-4.98 0.2c-0.1-0.2 0-0.3 0.12-0.3 0.1 0 0.1 0.3-0 0.3-0 0.1-0.1 0-0.11 0zm-6.321-0.2c-0.06-0.1 0.02-0.2 0.133-0.1 0.07 0.1 0.07 0.1 0 0.2-0.06 0-0.09 0-0.133-0.1zm8.981-0.3c-0.1-0.1 0-0.3 0.15-0.3 0.1 0 0.1 0.1 0.1 0.2 0 0.2-0.17 0.3-0.25 0.1zm-11.728-0.2s0.05-0.1 0.109-0.1c0.06 0 0.11 0.1 0.11 0.1 0 0.1-0.05 0.2-0.11 0.2s-0.109-0.1-0.109-0.2zm31.888 0h0.1 0.1c0 0.1-0 0.1-0.1 0.1-0 0-0.1 0-0.1-0.1zm-29.094-0.3c0-0.1 0.04-0.1 0.09-0.1 0.133 0.1 0.157 0.2 0.02 0.2-0.06 0-0.11 0-0.11-0.1zm6.204-0.2c-0.1-0.1 0-0.3 0.1-0.3 0.12 0 0.15 0.2 0 0.3-0.1 0.1-0.1 0.1-0.14 0zm-8.897-0.1c-0.02-0.1-0.02-0.2 0-0.2 0.05-0.1 0.05-0.1 0.149 0 0.102 0.1 0.07 0.3-0.05 0.3-0.04 0-0.09 0-0.11-0.1zm11.547-0.4c-0.1-0.2 0-0.4 0.15-0.4 0.1 0 0.1 0.1 0.1 0.3 0 0.3-0.17 0.4-0.25 0.1zm-11.476-0.3c-0.02-0.1-0.02-0.2 0-0.3 0.05-0.1 0.05-0.1 0.148 0 0.102 0.2 0.08 0.4-0.05 0.4-0.04 0-0.09-0.1-0.109-0.1zm8.746-0.5c-0-0.2 0-0.3 0.12-0.3 0.1 0 0.1 0.3 0 0.3-0 0.1-0.1 0-0.12 0zm2.64-0.4c-0-0.2 0.1-0.6 0.21-0.5 0.1 0.1 0 0.6-0.1 0.7-0 0-0.11-0.1-0.14-0.2zm-11.292 0.1c-0.09-0.1-0.05-0.3 0.06-0.3 0.06 0 0.11 0.1 0.11 0.2s-0.08 0.1-0.172 0.1zm2.747-0.5s0.04-0.1 0.09-0.1c0.134 0.1 0.157 0.2 0.03 0.2-0.07 0-0.118 0-0.118-0.1zm-2.669-0.3c-0.09-0.1-0.06-0.2 0.06-0.2 0.05 0 0.109 0 0.109 0.1 0 0.2-0.08 0.2-0.172 0.1zm8.484-0.2c0-0.2 0.21-0.2 0.21-0.1s-0 0.1-0.11 0.1h-0.1zm-5.705-0.2h0.08 0.03c0 0.1-0.04 0.1-0.08 0.1s-0.06 0-0.03-0.1zm8.375-0.3c-0.1-0.1 0.1-0.5 0.2-0.3 0.1 0 0 0.4-0.1 0.5-0 0-0.11-0.1-0.13-0.2zm-11.091 0c-0.06-0.1 0.02-0.3 0.109-0.2 0.09 0 0.09 0.2 0 0.2h-0.109zm8.341-0.7c0-0.2 0.21-0.3 0.21-0.1 0 0.1-0 0.2-0.11 0.2-0.1 0-0.1-0.1-0.1-0.1zm2.68-0.5c-0.1-0.2 0-0.4 0.16-0.4 0.1 0 0.1 0.1 0.1 0.3s-0.18 0.3-0.24 0.1zm5.15-0.7c-0.11-0.4-0-0.8 0.14-0.8 0.1 0 0.1 0.1 0.1 0.5s-0.15 0.6-0.23 0.3zm-7.89-0.1c0-0.1 0.2-0.1 0.2 0s-0 0.1-0.11 0.1c-0.1 0-0.1 0-0.1-0.1zm2.67-0.4c-0-0.2 0-0.4 0.15-0.4 0.1 0 0.1 0.1 0.1 0.2-0 0.3-0.16 0.3-0.23 0.2zm2.6-0.7s0-0.1 0.11-0.1c0.1 0 0.11 0.1 0.11 0.1 0 0.1-0.1 0.1-0.11 0.1-0.1 0-0.11 0-0.11-0.1zm-5.35-0.1c0-0.2 0.21-0.2 0.21 0 0 0.1-0.1 0.2-0.12 0.2-0.1 0-0.1-0.1-0.1-0.2zm2.68-0.5s0-0.1 0.1-0.2 0.1-0.1 0.15 0c0.1 0.1 0 0.3-0.1 0.3-0 0-0.1 0-0.11-0.1zm-7.734-0.3c-0.06-0.1 0.02-0.2 0.133-0.1 0.07 0.1 0.07 0.1 0 0.2-0.06 0-0.09 0-0.133-0.1zm4.984-0.3c0-0.1 0.21-0.2 0.21 0 0 0-0.1 0.1-0.12 0.1-0.1 0-0.1-0.1-0.1-0.1zm-7.654-0.1c0-0.1 0.03-0.1 0.08-0.1 0.04 0 0.06 0 0.03 0.1h-0.08-0.03zm2.748-0.3c-0.06-0.2 0.02-0.2 0.133-0.1 0.06 0 0.06 0.1 0 0.1-0.07 0.1-0.102 0.1-0.133 0zm7.606-0.3s0-0.1 0.12-0.1c0.1 0 0.1 0 0.1 0.1-0 0.2-0.21 0.2-0.21 0zm-10.346-0.2c0.02-0.1 0.06-0.2 0.102-0.2 0.04 0 0.08 0.1 0.09 0.2 0.02 0.1-0.02 0.2-0.09 0.2-0.09 0-0.118-0.1-0.102-0.2zm0.06-0.8c0-0.1 0.18-0.2 0.242 0 0.05 0.1-0.02 0.2-0.141 0.2-0.06 0-0.101 0-0.101-0.2zm2.794-0.3c0-0.1 0.04-0.1 0.09-0.1 0.133 0 0.157 0.2 0.02 0.2-0.06 0-0.11-0.1-0.11-0.1zm-2.669-0.3c-0.09 0-0.06-0.3 0.05-0.3 0.117 0 0.18 0.2 0.133 0.3-0.04 0.1-0.118 0.1-0.188 0zm2.74-0.5s0.04-0.1 0.09 0c0.141 0 0.156 0.2 0.03 0.2-0.06 0-0.117-0.1-0.117-0.2zm-2.693-0.3c-0.05-0.1 0.03-0.3 0.125-0.2 0.09 0 0.09 0.3-0 0.3-0.04 0-0.09-0.1-0.117-0.1zm0.06-0.8c0.03-0.2 0.165-0.2 0.196 0 0.02 0-0.02 0.1-0.102 0.1-0.07 0-0.109-0.1-0.09-0.1zm0.07-0.8c0.03-0.1 0.164-0.1 0.196 0 0.02 0.1-0.02 0.1-0.09 0.1s-0.118 0-0.102-0.1zm43.478-0.8s0-0.1 0.1-0.1l0.1 0.1s-0 0.1-0.1 0.1l-0.1-0.1zm-36.56-0.3c-0.1-0.2 0-0.3 0.13-0.3 0.1 0 0.1 0.3-0 0.3-0 0.1-0.1 0-0.12 0zm2.69-0.7s0-0.1 0.11-0.1c0.1 0 0.11 0.1 0.11 0.1 0 0.1-0 0.2-0.11 0.2-0.1 0-0.11-0.1-0.11-0.2zm-2.74-0.4c-0.1-0.1-0.1-0.4 0-0.4 0.1-0.1 0.2 0.1 0.21 0.2 0 0.1-0.2 0.3-0.25 0.2zm2.64-0.7c-0-0.2 0-0.3 0.15-0.3 0.1 0 0.1 0 0.1 0.2s-0.17 0.3-0.25 0.1zm-2.76-0.8s0-0.1 0.1-0.2c0.1 0 0.21 0.1 0.16 0.3-0 0.1-0.24 0.1-0.24-0.1zm-3.57-0.1c-0.06-0.1 0.02-0.2 0.133-0.1 0.06 0.1 0.06 0.1 0 0.2-0.06 0-0.09 0-0.133-0.1zm6.25-0.2c-0.1-0.2 0-0.5 0.15-0.5 0.1 0 0.11 0.1 0.1 0.3-0 0.3-0.17 0.4-0.25 0.2zm-8.998-0.3c0-0.1 0.05-0.1 0.11-0.1s0.11 0 0.11 0.1-0.05 0.1-0.11 0.1-0.11 0-0.11-0.1zm2.819-0.3c-0.06-0.1 0.02-0.2 0.133-0.1 0.07 0.1 0.07 0.1 0 0.2-0.06 0-0.09 0-0.133-0.1zm3.449-0.2c-0-0.13 0-0.27 0.13-0.27 0.1 0 0.1 0.27-0 0.37-0 0-0.1 0-0.12-0.1zm-6.166-0.16c-0.05-0.13 0.03-0.27 0.125-0.22 0.09 0.1 0.09 0.38-0 0.38-0.05 0-0.09-0.1-0.118-0.16zm8.826-0.32c-0.1-0.21 0-0.45 0.15-0.45 0.1 0 0.1 0.1 0.1 0.27-0 0.3-0.17 0.41-0.24 0.18zm-6.031-0c-0.06-0.16 0.02-0.24 0.133-0.13 0.06 0.1 0.06 0.11 0 0.17-0.07 0.1-0.102 0.1-0.133-0zm-2.701-0.31c-0.09-0.1-0.06-0.32 0.05-0.32 0.117 0 0.188 0.14 0.133 0.27-0.04 0.11-0.11 0.12-0.188 0zm2.74-0.51c0-0.1 0.04-0.1 0.09-0.1 0.141 0.1 0.164 0.21 0.03 0.21-0.06 0-0.117-0.1-0.117-0.12zm3.252-0c0-0.18 0.2-0.21 0.2-0 0 0.1-0 0.15-0.11 0.15-0.1 0-0.11-0-0.1-0.12zm-5.937-0.35c-0.05-0.13 0.03-0.28 0.117-0.22 0.09 0.1 0.09 0.33 0 0.33-0.05 0-0.101-0-0.117-0.11zm8.607-0.1c-0-0.16 0-0.34 0.15-0.34 0.1 0 0.1 0.1 0.1 0.2-0 0.22-0.17 0.31-0.24 0.14zm-5.844-0.38c0-0.1 0.04-0.1 0.09-0.1 0.133 0 0.157 0.21 0.02 0.21-0.06 0-0.11-0.1-0.11-0.12zm-2.669-0.3c-0.09-0.1-0.06-0.24 0.05-0.24 0.06 0 0.117 0.1 0.117 0.14 0 0.15-0.08 0.19-0.172 0.1zm5.763-0.1c0-0.19 0.21-0.21 0.21-0 0 0.1-0 0.15-0.12 0.15-0.1 0-0.1-0.1-0.1-0.12zm-3.023-0.37c0-0.12 0.156-0.1 0.203 0 0.02 0-0.02 0.1-0.09 0.1-0.06 0-0.117-0.1-0.117-0.12zm5.703-0.13c-0.1-0.16 0-0.34 0.15-0.34 0.1 0 0.1 0.1 0.1 0.2-0 0.22-0.17 0.31-0.24 0.14zm-8.412-0.28c0.02-0.1 0.06-0.17 0.102-0.17 0.04 0 0.09 0.1 0.09 0.17 0.02 0.11-0.02 0.16-0.09 0.16-0.09 0-0.117-0.1-0.102-0.16zm5.662-0.47c0-0.19 0.21-0.21 0.21-0 0 0.1-0.1 0.15-0.12 0.15-0.1 0-0.11-0.1-0.1-0.12zm-5.552-0.15c-0.09-0.1-0.05-0.24 0.06-0.24 0.06 0 0.11 0.1 0.11 0.14 0 0.15-0.08 0.19-0.172 0.1zm8.232-0.27c-0-0.1 0-0.17 0.1-0.24 0.1-0.13 0.1-0.13 0.15-0 0.1 0.15 0 0.35-0.11 0.35-0 0-0.1-0-0.1-0.1zm-2.75-0.72c0-0.14 0.2-0.16 0.2-0 0 0.1-0 0.11-0.12 0.11-0.1 0-0.1-0-0.1-0.1zm2.71-0.59c0-0.1 0.1-0.16 0.1-0.15 0.11 0 0.1 0.26-0 0.29-0.1 0-0.1-0-0.1-0.14zm-0.1-1.12c0-0.1 0.1-0.12 0.1-0.12 0.11 0 0.1 0.17-0 0.21-0.1 0-0.1-0-0.1-0.1zm-7.731-1s0.04-0.1 0.08-0.1c0.05 0 0.06 0 0.04 0.1-0.03 0-0.06 0.1-0.08 0.1s-0.04-0-0.04-0.1zm2.756-0.25c-0.06-0.16 0.02-0.24 0.133-0.13 0.06 0.1 0.06 0.11 0 0.17-0.07 0.1-0.102 0.1-0.141-0zm-2.701-0.38c-0.09-0.1-0.05-0.25 0.06-0.25 0.05 0 0.109 0.1 0.109 0.15 0 0.14-0.08 0.19-0.172 0.1zm2.771-0.35c-0.06-0.16 0.02-0.24 0.133-0.13 0.06 0.1 0.06 0.1 0 0.17-0.06 0.1-0.09 0.1-0.133-0zm-2.748-0.49c0-0.1 0.05-0.14 0.11-0.14s0.11 0.1 0.11 0.14c0 0.1-0.05 0.15-0.11 0.15s-0.11-0.1-0.11-0.15zm4.733-0.36c-0-0.1 0-0.22 0.12-0.22 0.1 0 0.1 0.19 0 0.25h-0.12zm-4.631-0.33c-0.05-0.13 0.03-0.28 0.125-0.22 0.09 0.1 0.09 0.33-0 0.33-0.05 0-0.09-0-0.118-0.11zm2.764-0.45c0-0.1 0.04-0.1 0.09-0.1 0.13 0.1 0.16 0.21 0 0.21-0.1 0-0.117-0.1-0.117-0.12zm-2.67-0.23c-0.09-0.1-0.06-0.32 0.05-0.32 0.117 0 0.188 0.14 0.133 0.28-0.04 0.1-0.11 0.12-0.188 0zm4.467-0.2c-0-0.12 0-0.26 0.11-0.26 0.1 0 0.1 0.27 0 0.33-0 0-0.1-0-0.11-0.1zm-1.73-0.31c0-0.1 0-0.1 0.1-0.1 0.14 0 0.16 0.2 0 0.2-0.1 0-0.12-0-0.12-0.12zm4.39-0.26c-0-0.15 0-0.28 0.15-0.28 0.1 0 0.1 0.1 0.1 0.16-0 0.18-0.17 0.26-0.23 0.12zm-7.072-0.1c-0.05-0.14 0.03-0.28 0.117-0.22 0.09 0.1 0.09 0.32 0 0.32-0.05 0-0.101-0-0.117-0.1zm4.332-0.59c-0-0.12 0-0.26 0.12-0.26 0.1 0 0.1 0.27-0 0.33-0 0-0.1-0-0.11-0.1zm-4.262-0.15c-0.05-0.13 0.03-0.28 0.126-0.22 0.09 0.1 0.09 0.33-0 0.33-0.04 0-0.09-0-0.118-0.11zm6.932-0.37c-0.1-0.15 0-0.33 0.14-0.33 0.1 0 0.1 0.1 0.1 0.22 0 0.23-0.17 0.31-0.24 0.11zm-6.877-0.44c0.04-0.16 0.165-0.17 0.196-0 0.02 0.1-0.02 0.13-0.09 0.13s-0.11-0.1-0.102-0.11zm4.137-0.28c-0.1-0.14 0-0.34 0.11-0.34s0.14 0.2 0 0.34c-0.1 0.13-0.1 0.13-0.15 0zm2.65-0.41c-0.1-0.21 0-0.45 0.16-0.45 0.1 0 0.1 0.1 0.1 0.27-0 0.3-0.17 0.41-0.24 0.18zm-0.1-1.32c-0.1-0.18 0-0.38 0.16-0.38 0.1 0 0.1 0.1 0.1 0.24-0 0.26-0.17 0.35-0.24 0.14zm-0-1.25c0-0.1 0-0.16 0.12-0.16 0.1 0 0.1 0.1 0.1 0.13-0 0.18-0.2 0.21-0.2 0zm-0.78-4.08c-0.1-0.15 0-0.36 0.12-0.3 0 0 0.1 0.11 0.1 0.18 0 0.18-0.14 0.27-0.19 0.12zm0.6-8.19c-0-0.1 0.1-0.18 0.18-0.12 0.1 0 0 0.19-0.1 0.19-0 0-0.1-0-0.1-0.1z"/>
<path d="m97.69 983.62-4.25 43.18h13.64l-2.68-43.18h-6.71zm2.9 3.13h0.79l2.46 36.95h-6.933l3.683-36.95z" fill-rule="evenodd"/>
<path d="m108.42 1003.3v23.3l48.2-0.2v-12.1l-17.78-10.7v8.8l-15.32-9v8.8l-15.1-8.9zm3.13 5.6 15.32 9.2v-9.2l15.1 9.2v-9.1l11.52 7.2v7.2l-41.94 0.1v-14.6z" fill-rule="evenodd"/>
<g transform="matrix(.07828 0 0 .07828 200.01 970.57)" fill-rule="evenodd">
<path d="m-1224.5 11.057c-11.3-0.176-23.6 4.413-25.1 8.931-1.4 4.517 2.6 13.366 7.2 14.744 4.7 1.379 5.2-2.163 12.4-0.836s24.3 18.12 32.3 19.665c7.6 1.494 15.4 1.307 15.9 1.293 0 0-0.2 6.112 3.5 13.305s24.4 20.089 28.1 27.143c3.8 7.048 1.6 10.738 3.5 12.798s13.8 5.47 15.8 2.88c2.5-3.17 3.9-22.394 1.5-29.569s-8.1-13.13-17-19.924-13-11.212-14-13.775c-1.2-3.213 3.1-4.936 2.4-9.055-0.4-2.964-5.5-7.307-9.7-9.516-2.1-1.154-4.2-1.863-5.6-1.669-4.1 0.477-5.4 4.707-8.9 4.447-2.8-0.238-7.2-3.324-16.2-9.977-9.1-6.655-14.7-10.716-26.1-10.892z"/>
<path d="m-1187.8 160.91c11.3 0.17 23.6-4.42 25.1-8.93 1.4-4.52-2.6-13.37-7.2-14.74-4.7-1.38-5.2 2.16-12.4 0.83s-24.3-18.12-32.3-19.66c-7.6-1.5-15.4-1.31-15.9-1.3 0 0 0.2-6.11-3.5-13.3-3.7-7.195-24.4-20.091-28.1-27.145-3.8-7.051-1.6-10.741-3.5-12.801s-13.8-5.47-15.8-2.88c-2.5 3.17-3.9 22.397-1.5 29.572s8.1 13.134 17 19.924 13 11.21 14 13.78c1.2 3.21-3.1 4.93-2.4 9.05 0.4 2.96 5.5 7.31 9.7 9.52 2.1 1.15 4.2 1.86 5.6 1.67 4.1-0.48 5.4-4.71 8.9-4.45 2.8 0.24 7.2 3.32 16.2 9.98 9.1 6.65 14.7 10.71 26.1 10.89z"/>
</g>
</g>
</svg>
