<?xml version="1.0" encoding="UTF-8"?>
<svg version="1.1" viewBox="0 0 250 91" xmlns="http://www.w3.org/2000/svg" xmlns:cc="http://creativecommons.org/ns#" xmlns:dc="http://purl.org/dc/elements/1.1/" xmlns:rdf="http://www.w3.org/1999/02/22-rdf-syntax-ns#">
<metadata>
<rdf:RDF>
<cc:Work rdf:about="">
<dc:format>image/svg+xml</dc:format>
<dc:type rdf:resource="http://purl.org/dc/dcmitype/StillImage"/>
<dc:title/>
</cc:Work>
</rdf:RDF>
</metadata>
<g transform="translate(0,-961.4)" fill="#fff">
<path d="m119.02 1042.2c-0.96366-0.1969-1.699-0.5875-2.3853-1.2671-0.94716-0.9377-1.4358-2.0765-1.527-3.5586-0.20279-3.2974 2.129-5.7882 5.2328-5.5898 1.8251 0.1168 2.9322 0.8706 2.676 1.8218-0.1068 0.3965-0.35914 0.6381-0.70746 0.6773-0.2301 0.027-0.4371-0.018-0.98138-0.2058-0.60953-0.2108-0.7599-0.2385-1.2925-0.2383-0.46652 2e-4 -0.68379 0.031-0.96138 0.1383-1.0421 0.4014-1.6679 1.4122-1.7478 2.8233-0.10407 1.8383 0.78222 3.1674 2.2724 3.4074 0.54149 0.087 1.1134-0.01 1.89-0.324 0.34538-0.1392 0.68884-0.2532 0.76323-0.2532 0.22204 0 0.54478 0.1633 0.69155 0.3499 0.48435 0.6158 0.21742 1.4148-0.61195 1.8319-0.84436 0.4246-2.2962 0.5942-3.3112 0.3869zm7.8357 0.036c-1.312-0.2832-2.2702-1.1523-2.7435-2.4881-0.21785-0.6147-0.27227-1.761-0.11539-2.4305 0.30773-1.3133 1.2261-2.3898 2.401-2.8145 0.38889-0.1404 0.56295-0.1654 1.1558-0.1654s0.76687 0.026 1.1558 0.1654c1.1749 0.4247 2.0933 1.5012 2.4011 2.8145 0.15687 0.6695 0.10243 1.8158-0.1154 2.4305-0.55025 1.5529-1.7324 2.4604-3.2828 2.5198-0.3315 0.012-0.71695 0-0.85653-0.031zm1.3463-1.9767c0.99623-0.4823 1.2873-2.3244 0.53967-3.4153-0.311-0.4538-0.65479-0.6386-1.1881-0.6386-0.5333 0-0.87708 0.1848-1.1881 0.6386-0.74589 1.0884-0.4589 2.922 0.53427 3.4137 0.36778 0.1821 0.92808 0.1828 1.3022 0zm22.319 1.9431c-1.2481-0.2753-2.088-0.9296-2.6078-2.0316-0.87383-1.8522-0.24678-4.2448 1.3903-5.3049 0.59898-0.388 1.1047-0.5305 1.8838-0.5304 0.6973 0 1.0534 0.082 1.651 0.3814 1.1485 0.5748 2.0308 2.013 2.028 3.3059-9.5e-4 0.5219-0.0864 0.7157-0.38063 0.8631-0.19856 0.099-0.45983 0.111-2.5541 0.1111h-2.3329l0.0419 0.1745c0.17454 0.7261 0.79655 1.2252 1.6418 1.3171 0.5226 0.057 0.89788-0.041 1.6825-0.4411 0.88187-0.4489 1.0667-0.4695 1.4203-0.1591 0.25354 0.2226 0.38311 0.5494 0.3242 0.8176-0.0648 0.2953-0.49256 0.725-0.96562 0.9703-1.0527 0.5459-2.2478 0.741-3.2228 0.5259zm2.286-4.772c-0.11563-0.6165-0.61375-1.2035-1.1482-1.3531-0.33528-0.094-0.88339-0.051-1.1556 0.089-0.43464 0.2248-0.90004 0.9082-0.90151 1.3237l-5.7e-4 0.1745h3.2499l-0.044-0.2343zm5.518 4.8014c-1.2853-0.2562-2.2701-1.1478-2.7435-2.4839-0.21785-0.6147-0.27227-1.761-0.11539-2.4305 0.31299-1.3358 1.2824-2.446 2.478-2.838 1.0309-0.338 2.7296-0.087 3.3051 0.4886l0.14723 0.1472 0.12087-0.2047c0.15552-0.2636 0.48583-0.4181 0.89374-0.4181h0.32353v-0.748c0-0.6496 0.0187-0.7851 0.14275-1.0305 0.18815-0.3724 0.48776-0.5691 0.86691-0.5691 0.38294 0 0.70039 0.1747 0.87685 0.4824 0.12612 0.22 0.14182 0.3363 0.14274 1.0562l9.5e-4 0.809h0.42828c0.77663 0 1.159 0.2997 1.157 0.8995-2e-3 0.5863-0.2835 0.8246-1.0317 0.8734l-0.52178 0.033-0.0317 2.6127c-0.0305 2.5137-0.0367 2.6192-0.16254 2.7877-0.24868 0.3329-0.45141 0.4367-0.85261 0.4367-0.42345 0-0.64627-0.1255-0.85654-0.4824-0.12039-0.2045-0.12784-0.3478-0.14544-2.8009l-0.0185-2.5854h-0.35256c-0.34228 0-0.78415-0.1472-0.78415-0.2611 0-0.1216-0.10363-0.046-0.21147 0.1544-0.13135 0.2439-0.40265 0.4239-0.6391 0.4239-0.0907 0-0.41201-0.086-0.71415-0.1905-0.61235-0.2121-1.1549-0.2486-1.5075-0.1013-0.3506 0.1465-0.70377 0.5161-0.89947 0.9413-0.16449 0.3574-0.18291 0.4642-0.18343 1.0636-5.7e-4 0.5852 0.0195 0.7085 0.16371 1.0151 0.22935 0.4871 0.45164 0.7274 0.8556 0.9251 0.30542 0.1495 0.40012 0.166 0.77432 0.136 0.24306-0.02 0.60365-0.1068 0.83876-0.2029 0.47923-0.1959 0.72875-0.2132 1.0054-0.069 0.24302 0.1258 0.38438 0.3313 0.43274 0.6293 0.052 0.3203-0.0138 0.5176-0.26529 0.7959-0.50088 0.5545-1.9341 0.9003-2.9177 0.7043zm10.659-0.029c-1.2481-0.2754-2.088-0.9296-2.6079-2.0316-0.87382-1.8522-0.24679-4.2448 1.3903-5.3049 0.59896-0.388 1.1047-0.5305 1.8838-0.5304 0.69729 0 1.0534 0.082 1.651 0.3814 1.1484 0.5748 2.0308 2.013 2.028 3.3059-9.5e-4 0.5219-0.0864 0.7156-0.38064 0.8631-0.19855 0.099-0.45981 0.111-2.5541 0.1111h-2.3329l0.0419 0.1745c0.17455 0.7261 0.79657 1.2252 1.6418 1.3171 0.52261 0.057 0.8979-0.041 1.6825-0.4411 0.88186-0.4489 1.0667-0.4695 1.4203-0.1591 0.25354 0.2226 0.38313 0.5494 0.32421 0.8176-0.0648 0.2953-0.49256 0.725-0.96561 0.9703-1.0527 0.5459-2.2478 0.7409-3.2228 0.5259zm2.286-4.7721c-0.11563-0.6164-0.61374-1.2034-1.1482-1.353-0.33528-0.094-0.88338-0.051-1.1556 0.089-0.43463 0.2247-0.90004 0.908-0.9015 1.3237l-5.8e-4 0.1745h3.2499zm5.1691 4.7688c-0.95323-0.2632-1.7067-0.8993-2.1491-1.8143-0.38122-0.7885-0.47128-1.2539-0.43428-2.2443 0.0346-0.9278 0.15741-1.4174 0.53825-2.1465 0.62109-1.1891 1.856-1.8359 3.1498-1.6496 0.44769 0.065 1.0777 0.316 1.4174 0.5661l0.14274 0.1044v-1.5694c0-1.4959 7e-3 -1.5809 0.13859-1.8159 0.18628-0.3315 0.58638-0.5281 0.98333-0.4835 0.36498 0.041 0.58439 0.2007 0.76704 0.5578l0.14413 0.2819-0.0173 4.7267c-0.0193 5.2517 6e-3 4.9558-0.44457 5.277-0.16319 0.1164-0.29031 0.1477-0.59905 0.1477-0.45026 0-0.66872-0.122-0.87742-0.4901l-0.12728-0.2245-0.30287 0.2742c-0.16659 0.1508-0.46621 0.3367-0.66582 0.4132-0.46787 0.1795-1.1943 0.2182-1.6636 0.088zm1.6363-1.9273c0.49846-0.2563 0.85065-0.8478 0.95855-1.6098 0.19372-1.3679-0.49182-2.4566-1.547-2.4566-0.62611 0-1.0583 0.3127-1.381 0.9993-0.46812 0.996-0.18786 2.4397 0.57303 2.9518 0.31285 0.2106 0.36415 0.2255 0.79367 0.2314 0.24518 0.01 0.44565-0.035 0.60275-0.1161zm21.522 1.9277c-0.62405-0.173-1.0262-0.4107-1.4912-0.881-0.76384-0.773-1.1101-1.7051-1.1101-2.9876 0-1.2569 0.36613-2.2383 1.1304-3.03 1.1214-1.1615 2.8889-1.3317 3.8732-0.3728l0.3071 0.2991 0.12169-0.2565c0.32038-0.675 1.4009-0.7125 1.7371-0.06 0.0809 0.157 0.0951 0.665 0.0951 3.3888 0 3.4901 7e-3 3.428-0.36219 3.7005-0.1044 0.078-0.30367 0.137-0.50758 0.1519-0.45148 0.033-0.73271-0.1146-0.93017-0.4897l-0.15031-0.2855-0.26209 0.2463c-0.42257 0.3973-0.96564 0.6201-1.5812 0.6491-0.34218 0.017-0.64063-0.011-0.86984-0.071zm1.6423-1.9297c0.70503-0.3597 1.1005-1.3522 0.95323-2.392-0.10451-0.7382-0.44822-1.2917-0.96612-1.5558-0.37763-0.1926-1.0114-0.147-1.3656 0.098-1.1568 0.8017-1.0746 3.2412 0.12925 3.8371 0.35739 0.1769 0.91561 0.1823 1.2492 0.011zm6.8914 1.962c-1.2853-0.2562-2.2701-1.1478-2.7435-2.4839-0.21784-0.6147-0.27226-1.761-0.11539-2.4305 0.313-1.3358 1.2824-2.446 2.478-2.838 0.36049-0.1182 0.57609-0.1447 1.1423-0.1406 1.4536 0.01 2.4427 0.5201 2.4427 1.2585 0 0.5111-0.38029 0.9888-0.78714 0.9888-0.0907 0-0.41201-0.086-0.71414-0.1904-0.61235-0.2121-1.1549-0.2486-1.5075-0.1013-0.3506 0.1465-0.70377 0.5162-0.89946 0.9414-0.1645 0.3573-0.18292 0.4641-0.18344 1.0634-5.7e-4 0.5852 0.0195 0.7086 0.16372 1.0151 0.22933 0.4871 0.45163 0.7275 0.85561 0.9251 0.30542 0.1495 0.40009 0.1661 0.77431 0.136 0.24304-0.02 0.60365-0.1069 0.83875-0.2028 0.47923-0.1958 0.72876-0.2133 1.0054-0.069 0.24305 0.1257 0.38439 0.3312 0.43275 0.6293 0.052 0.3203-0.0138 0.5174-0.26529 0.7959-0.50088 0.5544-1.9341 0.9003-2.9177 0.7042zm6.4716-0.029c-1.2481-0.2754-2.088-0.9296-2.6078-2.0316-0.87382-1.8522-0.24679-4.2448 1.3903-5.3049 0.59896-0.388 1.1047-0.5305 1.8838-0.5305 0.6973 1e-4 1.0534 0.083 1.651 0.3815 1.1485 0.5748 2.0308 2.013 2.028 3.3059-9.5e-4 0.5219-0.0864 0.7156-0.38063 0.8631-0.19856 0.099-0.45983 0.111-2.5541 0.1111h-2.3329l0.0419 0.1745c0.17453 0.7261 0.79654 1.2251 1.6418 1.3171 0.5226 0.057 0.89788-0.041 1.6825-0.4411 0.88185-0.4489 1.0667-0.4695 1.4203-0.1591 0.25354 0.2226 0.38312 0.5494 0.32421 0.8176-0.0648 0.2953-0.49256 0.725-0.96562 0.9703-1.0527 0.5459-2.2478 0.7409-3.2228 0.5258zm2.286-4.7721c-0.11564-0.6164-0.61375-1.2034-1.1482-1.353-0.33528-0.094-0.88338-0.051-1.1556 0.089-0.43463 0.2247-0.90005 0.908-0.90152 1.3237l-5.6e-4 0.1745h3.2499l-0.044-0.2344zm4.4712 4.7713c-1.7651-0.3545-2.612-1.4194-1.7387-2.1861 0.18501-0.1625 0.27353-0.1937 0.55129-0.1944 0.27365 0 0.44459 0.057 0.98818 0.3305 0.60704 0.3061 0.69213 0.3316 1.113 0.3339 0.51376 0 0.77021-0.1132 0.8369-0.3789 0.1057-0.4211-0.13398-0.6223-1.2634-1.0598-1.2689-0.4914-1.8725-0.9204-2.1433-1.523-0.20715-0.4609-0.21096-1.2717-8e-3 -1.72 0.29223-0.6456 0.71723-1.0235 1.4504-1.2896 1.0972-0.3983 2.7539-0.1367 3.4326 0.5418 0.49474 0.4949 0.40273 1.2639-0.18774 1.5693-0.24186 0.1249-0.39007 0.096-1.1377-0.2235-0.32602-0.1393-0.71119-0.2722-0.8559-0.2954-0.4953-0.08-0.91061 0.1695-0.91061 0.5452 0 0.3155 0.2806 0.5087 1.3237 0.9113 1.7418 0.6723 2.3673 1.3569 2.2762 2.4915-0.12578 1.5669-1.8034 2.5335-3.7268 2.1472zm-88.673-0.1189c-0.24987-0.1132-0.4521-0.3707-0.53607-0.6825-0.0427-0.1583-0.0596-1.3081-0.0478-3.2435 0.0175-2.8663 0.0237-3.0077 0.14512-3.2136 0.21454-0.3643 0.43132-0.4827 0.88165-0.4815 0.45988 0 0.68997 0.1197 0.83887 0.4319l0.0977 0.2046 0.25831-0.2384c0.33107-0.3056 0.82773-0.4898 1.4504-0.5378 1.5663-0.1208 2.7814 0.741 3.0434 2.1584 0.0403 0.2182 0.0586 1.2513 0.0471 2.6581-0.0208 2.5501-0.0205 2.5479-0.44613 2.8516-0.15847 0.113-0.29181 0.1476-0.56732 0.1476-0.38905 0-0.59492-0.1068-0.84141-0.4366-0.12474-0.167-0.13242-0.2801-0.16541-2.4387-0.0219-1.4379-0.0603-2.323-0.10483-2.4259-0.21025-0.4858-0.71293-0.8176-1.2426-0.82-0.5397 0-0.94946 0.2444-1.2093 0.7282-0.13016 0.2426-0.13771 0.3554-0.1683 2.5177-0.0306 2.1608-0.038 2.2717-0.16286 2.4387-0.072 0.096-0.20543 0.2308-0.29663 0.2989-0.21086 0.1575-0.71471 0.2003-0.97376 0.083zm7.9309 0c-0.24985-0.1132-0.45209-0.3707-0.53606-0.6825-0.0427-0.1583-0.0596-1.3081-0.0477-3.2435 0.0175-2.8663 0.0237-3.0077 0.1451-3.2136 0.21456-0.3643 0.43132-0.4827 0.88166-0.4815 0.45987 0 0.68997 0.1197 0.83886 0.4319l0.0977 0.2046 0.2583-0.2384c0.33108-0.3056 0.82774-0.4898 1.4504-0.5378 1.5662-0.1208 2.7814 0.741 3.0434 2.1584 0.0403 0.2182 0.0586 1.2513 0.0472 2.6581-0.0208 2.5501-0.0205 2.5479-0.44612 2.8516-0.15848 0.113-0.29182 0.1476-0.56733 0.1476-0.38904 0-0.59492-0.1068-0.8414-0.4366-0.12476-0.167-0.13243-0.2801-0.1654-2.4387-0.0219-1.4379-0.0603-2.323-0.10483-2.4259-0.21026-0.4858-0.71295-0.8176-1.2426-0.82-0.53968 0-0.94945 0.2444-1.2093 0.7282-0.13015 0.2426-0.1377 0.3554-0.16831 2.5177-0.0306 2.1608-0.038 2.2717-0.16282 2.4387-0.072 0.096-0.20545 0.2308-0.29666 0.2989-0.21085 0.1575-0.71471 0.2003-0.97376 0.083zm46.256 0.02c-0.24014-0.069-0.49704-0.3407-0.59172-0.6241-0.051-0.1525-0.0716-1.4522-0.0707-4.4412 9.5e-4 -3.9644 9e-3 -4.2414 0.11793-4.4795 0.25844-0.5627 0.41753-0.603 2.3804-0.6016 1.8428 0 2.2153 0.056 2.9961 0.4409 1.1891 0.5859 1.8664 1.7936 1.7806 3.1744-0.0797 1.2831-0.75414 2.2905-1.8785 2.8062-0.61458 0.282-1.1158 0.3638-2.2369 0.3652h-0.99477l-0.0204 1.3481c-0.0184 1.2161-0.033 1.3701-0.14872 1.5704-0.23246 0.4022-0.80907 0.5925-1.3333 0.44zm3.6582-5.4395c0.24707-0.1289 0.3914-0.2614 0.53069-0.4866 0.17146-0.2774 0.19132-0.3627 0.19132-0.8221 0-0.6631-0.18722-1.02-0.68495-1.3054-0.3254-0.1866-0.34382-0.1893-1.2661-0.1899h-0.93584v2.982h0.91275c0.87594 0 0.9264-0.01 1.2521-0.1773zm4.145 5.4212c-0.25706-0.1165-0.52235-0.4405-0.56798-0.6934-0.0203-0.1123-0.0286-2.3221-0.0184-4.9106 0.0182-4.6399 0.0204-4.7088 0.14929-4.8816 0.24862-0.3328 0.45138-0.4367 0.85262-0.4367 0.42345 0 0.64627 0.1255 0.85654 0.4824 0.12387 0.2103 0.12689 0.3297 0.12689 5.0057 0 4.6761-3e-3 4.7954-0.12689 5.0058-0.0697 0.1184-0.20329 0.2723-0.29664 0.3419-0.21397 0.1595-0.71644 0.2041-0.97546 0.086zm-170.73-17.089c-1.1953-0.073-2.5562-0.3583-3.5829-0.7501-3.4666-1.3229-6.0057-4.3053-7.009-8.2325-0.37947-1.4854-0.44724-2.0951-0.44602-4.0135 1e-3 -1.5105 0.01852-1.8106 0.14849-2.5379 0.50653-2.8343 1.6915-5.2006 3.5287-7.0465 1.8814-1.8906 4.2796-3.0494 7.0102-3.3874 0.69177-0.0864 2.1816-0.0854 2.9703 4.7e-4 1.906 0.20761 3.6786 0.81081 5.0787 1.7281 2.5236 1.6536 3.1323 3.3833 1.9046 5.4127-1.0164 1.6802-2.8115 2.2398-4.2417 1.3221-0.12213-0.079-0.4933-0.3614-0.82481-0.6287-0.66475-0.5361-1.5114-0.9892-2.1572-1.1544-0.5643-0.1443-1.7361-0.1443-2.2841 1e-4 -0.96992 0.2556-1.8696 0.8402-2.4855 1.6154-0.99662 1.254-1.5246 3.1362-1.4284 5.0916 0.12482 2.5368 1.1487 4.4181 2.867 5.268 0.71187 0.3523 1.2818 0.4605 2.1889 0.4162 1.2346-0.06 1.8637-0.3135 3.1724-1.2776 0.40732-0.3002 0.93985-0.6281 1.2055-0.7425 0.42364-0.1824 0.54234-0.2051 1.0819-0.2072 0.57402 0 0.631 0.01 1.0786 0.233 1.4463 0.7201 2.3677 2.1209 2.2613 3.4378-0.07966 0.9868-0.57828 1.8818-1.4944 2.6827-1.4566 1.2735-3.2037 2.1185-5.2115 2.5208-0.74462 0.1494-2.2964 0.3049-2.7917 0.2799-0.12214-0.011-0.36482-0.02-0.5393-0.03zm135.24-0.027c-10.39-0.5632-16.032-6.5353-16.749-17.727-0.0888-1.387-0.0881-22.571 5.7e-4 -23.436 0.24746-2.4113 1.3214-3.7673 3.4016-4.295 1.7977-0.45604 4.2442-0.29138 5.625 0.37857 1.1744 0.56979 1.8373 1.4459 2.2851 3.0199 0.13534 0.47576 0.13536 0.47685 0.17493 12.404 0.0218 6.5604 0.0565 11.999 0.0773 12.087 0.0207 0.087 0.0704 0.4298 0.11019 0.7614 0.38232 3.1818 1.724 5.3915 3.8626 6.3611 1.455 0.6597 3.8213 0.7392 5.436 0.1827 2.055-0.7084 3.439-2.4325 4.0559-5.0525 0.39396-1.6732 0.36916-0.738 0.41125-15.513l0.0383-13.482 0.13643-0.55346c0.55428-2.2485 1.9162-3.3754 4.4269-3.6629 1.7022-0.19506 3.3365 0.025 4.5307 0.60936 1.136 0.55629 1.8087 1.4417 2.21 2.9091l0.1735 0.63453 0.0196 12.753c0.0138 8.8939-2e-3 13.099-0.0512 13.895-0.52834 8.5015-3.883 13.96-10.066 16.377-2.7686 1.0825-6.3174 1.5569-10.111 1.3512zm58.132-0.3184c-3.4241-0.2447-5.3576-2.083-5.7183-5.4366-0.0496-0.4609-0.0702-5.7905-0.0702-18.13v-17.477l-3.6958-2.1e-4c-3.9889-2.2e-4 -4.3638-0.0251-5.2975-0.34282-1.83-0.62386-2.7758-1.8908-3.1306-4.1934-0.1114-0.72302-0.0963-2.5301 0.0273-3.2702 0.39022-2.3363 1.4694-3.5995 3.563-4.1705l0.63447-0.17303h14.466c15.374 0 14.734-0.012 15.703 0.29673 0.75428 0.2405 1.2638 0.54877 1.8112 1.0962 0.98174 0.98171 1.3867 2.1481 1.4658 4.2222 0.0658 1.7297-0.13476 2.9273-0.67764 4.0427-0.51192 1.0519-1.2806 1.7229-2.4242 2.1163-1.0408 0.35797-1.3003 0.37605-5.3853 0.37605h-3.7342l-0.0186 18.003-0.0186 18.003-0.13502 0.5394c-0.45636 1.8228-1.2576 2.9531-2.6243 3.7022-1.157 0.6342-2.903 0.9273-4.7406 0.7959zm-179.33-0.055c-1.8991-0.3471-2.8151-1.344-2.8008-3.0483 0.0065-0.7537 0.10025-1.1788 0.6261-2.8341 0.74215-2.3362 3.7082-11.14 5.6931-16.898 1.5988-4.638 2.5485-5.9585 4.7087-6.5471 0.45492-0.12403 0.66886-0.13874 2.062-0.14188 1.3969-0.0108 1.6097 0.0108 2.0999 0.13521 1.7542 0.44606 2.7601 1.4359 3.6919 3.6332 0.76574 1.8056 6.8433 19.32 7.3434 21.162 0.16997 0.626 0.2314 1.6462 0.12888 2.14-0.23576 1.1357-1.106 1.9569-2.4463 2.3087-0.61469 0.1614-2.3411 0.1641-2.9756 0.011-0.7536-0.1892-1.2241-0.4547-1.7529-0.9889-0.66258-0.6695-0.90606-1.191-1.448-3.1013l-0.42703-1.5053-4.196-0.017-4.196-0.016-0.45058 1.3805c-0.24781 0.7591-0.56078 1.6126-0.69549 1.8966-0.63098 1.3299-1.3758 2.022-2.5158 2.3379-0.43444 0.1204-1.9883 0.1829-2.4494 0.099zm13.049-12.74c-0.04849-0.1658-0.70661-2.5142-1.4626-5.2185-0.756-2.7045-1.3939-4.9527-1.4175-4.9958-0.02365-0.043-0.62221 2.2551-1.3302 5.1074s-1.3014 5.2361-1.3187 5.2972c-0.02964 0.1046 0.13332 0.111 2.7928 0.111h2.8243zm16.118 12.734c-1.7328-0.2717-2.7186-1.086-3.1838-2.6301-0.10799-0.3584-0.11663-0.9895-0.14804-10.818l-0.03335-10.437-2.3793-0.036c-2.5532-0.038-2.7036-0.056-3.4766-0.4091-0.43263-0.1975-1.0216-0.78829-1.2328-1.2364-0.3371-0.71513-0.39692-1.0738-0.39692-2.3792 0-0.97634 0.02212-1.2839 0.11623-1.6179 0.35106-1.2455 1.0356-1.9316 2.2619-2.2666 0.38619-0.1057 0.99709-0.11268 9.6122-0.11268 8.745 0 9.2202 0.0109 9.6122 0.11693 1.3236 0.37497 2.0322 1.1612 2.3181 2.5717 0.08446 0.41674 0.10102 0.75434 0.07803 1.5852-0.0255 0.91804-0.051 1.1221-0.19528 1.5633-0.38501 1.1774-1.0908 1.8155-2.3084 2.087-0.37088 0.083-0.86813 0.1025-2.6471 0.1025h-2.1904l-0.02049 10.326c-0.01929 9.7414-0.02702 10.351-0.13594 10.77-0.38786 1.4922-1.2035 2.3174-2.6706 2.7019-0.58163 0.1524-2.3217 0.2218-2.9796 0.1186zm11.73-0.029c-2.3128-0.4048-3.5429-1.837-3.4332-3.997 0.04435-0.8748 0.16751-1.4042 0.72123-3.1014 1.0831-3.3199 6.1234-17.49 8.215-23.096 1.8856-5.0538 3.288-6.5351 6.525-6.8927 1.0361-0.11431 3.2041-0.0458 4.013 0.12706 2.4139 0.51563 3.6681 1.8248 5.0273 5.2478 0.48588 1.2236 5.4135 16.059 7.3937 22.259 1.2971 4.0617 1.436 4.6448 1.3788 5.7909-0.0849 1.7006-0.96964 2.8346-2.6648 3.4156-1.6406 0.5623-4.1357 0.4145-5.4954-0.3255-0.9463-0.5151-1.7077-1.4832-2.2047-2.8036-0.12192-0.3239-0.74471-2.4611-1.0362-3.5559l-0.07183-0.2701-10.546 0.034-0.59513 1.7747c-0.84567 2.5218-1.2986 3.4155-2.1625 4.2666-0.47748 0.4706-1.2871 0.8935-2.0455 1.0688-0.64252 0.1485-2.3202 0.1814-3.0187 0.059zm16.123-17.749c-2.0401-8.3059-2.7953-11.278-2.8389-11.172-0.02628 0.0647-0.86346 3.0284-1.8605 6.5878-0.99707 3.5593-1.8277 6.5216-1.8458 6.5826-0.03108 0.1045 0.16583 0.111 3.5152 0.111h3.5481zm19.412 17.773c-0.63242-0.079-1.5073-0.3409-1.9952-0.5973-1.045-0.5492-1.7028-1.4705-2.0511-2.8731l-0.13669-0.5505-0.0216-15.671c-0.0149-10.79-5.6e-4 -15.879 0.046-16.338 0.1585-1.5607 0.54932-2.532 1.3278-3.3004 0.78671-0.77641 1.6908-1.1364 3.1798-1.2664 0.93455-0.0817 7.722-0.0828 9.5406 0 3.6991 0.16531 6.5561 0.79177 8.9543 1.9634 1.3703 0.66951 2.2577 1.2827 3.2586 2.2518 1.9535 1.8914 3.0661 4.2229 3.5746 7.4905 0.18631 1.1973 0.20304 4.1299 0.0306 5.3613-0.86622 6.1843-4.3162 10.005-10.226 11.326-1.6516 0.369-2.3361 0.4242-5.6684 0.4577l-3.0671 0.03 0.0435 3.1498c0.0584 4.2268-0.0243 5.1151-0.58465 6.2907-0.31821 0.6676-1.0651 1.4133-1.739 1.7362-1.1045 0.5292-2.8555 0.741-4.4653 0.5399zm10.006-20.39c1.2885-0.1696 2.2899-0.5394 3.0777-1.1364 0.72283-0.5479 1.2561-1.4002 1.5523-2.4808 0.12521-0.4569 0.13953-0.66593 0.1434-2.0938 4e-3 -1.4502-8e-3 -1.635-0.1404-2.1572-0.23468-0.92623-0.58408-1.5569-1.2172-2.1971-0.47261-0.47794-0.62619-0.58843-1.2077-0.86892-1.1553-0.55738-1.9333-0.69861-4.1399-0.75136l-1.6338-0.0392v11.819h1.4243c0.89725 0 1.6896-0.034 2.1413-0.095zm62.71 20.074c-2.5614-0.3736-3.9479-1.8691-4.2856-4.6232-0.0443-0.3615-0.0657-7.1235-0.0655-20.652 5.7e-4 -17.372 0.013-20.199 0.0937-20.733 0.27516-1.8254 1.0884-3.0538 2.4828-3.75 0.99252-0.4957 2.0335-0.69206 3.6727-0.69305 1.6732 0 2.7387 0.21293 3.8068 0.76432 0.63599 0.32833 1.4473 1.1546 1.7589 1.7914 0.29558 0.6039 0.52402 1.3952 0.61349 2.1254 0.0495 0.40319 0.07 5.5568 0.0702 17.527v16.956h4.2668c2.3467 0 4.5952 0.028 4.9964 0.062 3.2071 0.2669 4.6317 2.0039 4.6317 5.6475 0 2.0482-0.42889 3.4203-1.3574 4.3425-0.49322 0.4897-0.8721 0.7208-1.5762 0.9608-1.0208 0.3479-0.88906 0.3435-10.168 0.3355-4.711-0.011-8.7343-0.031-8.9407-0.062z" stroke-width=".063447"/>
</g>
</svg>
