<?xml version="1.0" encoding="UTF-8" standalone="no"?>
<!-- Created with Inkscape (http://www.inkscape.org/) -->

<svg
   xmlns:dc="http://purl.org/dc/elements/1.1/"
   xmlns:cc="http://creativecommons.org/ns#"
   xmlns:rdf="http://www.w3.org/1999/02/22-rdf-syntax-ns#"
   xmlns:svg="http://www.w3.org/2000/svg"
   xmlns="http://www.w3.org/2000/svg"
   xmlns:sodipodi="http://sodipodi.sourceforge.net/DTD/sodipodi-0.dtd"
   xmlns:inkscape="http://www.inkscape.org/namespaces/inkscape"
   width="250"
   height="91"
   viewBox="0 0 250 91"
   id="svg2"
   version="1.1"
   inkscape:version="0.92.2 (5c3e80d, 2017-08-06)"
   sodipodi:docname="cpcatapult.svg">
  <defs
     id="defs4" />
  <sodipodi:namedview
     id="base"
     pagecolor="#ffffff"
     bordercolor="#666666"
     borderopacity="1.0"
     inkscape:pageopacity="0.0"
     inkscape:pageshadow="2"
     inkscape:zoom="1.31"
     inkscape:cx="183.26"
     inkscape:cy="27.908"
     inkscape:document-units="px"
     inkscape:current-layer="layer1"
     showgrid="false"
     inkscape:window-width="1920"
     inkscape:window-height="1001"
     inkscape:window-x="-9"
     inkscape:window-y="-9"
     inkscape:window-maximized="1"
     units="px" />
  <metadata
     id="metadata7">
    <rdf:RDF>
      <cc:Work
         rdf:about="">
        <dc:format>image/svg+xml</dc:format>
        <dc:type
           rdf:resource="http://purl.org/dc/dcmitype/StillImage" />
        <dc:title></dc:title>
      </cc:Work>
    </rdf:RDF>
  </metadata>
  <g
     inkscape:label="Layer 1"
     inkscape:groupmode="layer"
     id="layer1"
     transform="translate(0,-961.4)">
    <rect
       style="opacity:0.001;fill:#ffffff;fill-opacity:1;stroke:none;stroke-width:2.5;stroke-linecap:round;stroke-linejoin:round;stroke-miterlimit:4;stroke-dasharray:none;stroke-dashoffset:0;stroke-opacity:1"
       id="rect4175"
       width="250"
       height="91"
       x="0"
       y="961.4" />
    <path
       style="fill:#ffffff;stroke-width:0.06344718"
       d="m 119.02427,1042.2272 c -0.96366,-0.1969 -1.69897,-0.5875 -2.38531,-1.2671 -0.94716,-0.9377 -1.43581,-2.0765 -1.52696,-3.5586 -0.20279,-3.2974 2.12904,-5.7882 5.23276,-5.5898 1.82509,0.1168 2.93219,0.8706 2.67602,1.8218 -0.1068,0.3965 -0.35914,0.6381 -0.70746,0.6773 -0.2301,0.027 -0.4371,-0.018 -0.98138,-0.2058 -0.60953,-0.2108 -0.7599,-0.2385 -1.29252,-0.2383 -0.46652,2e-4 -0.68379,0.031 -0.96138,0.1383 -1.04213,0.4014 -1.66794,1.4122 -1.74785,2.8233 -0.10407,1.8383 0.78222,3.1674 2.27238,3.4074 0.54149,0.087 1.11343,-0.01 1.89002,-0.324 0.34538,-0.1392 0.68884,-0.2532 0.76323,-0.2532 0.22204,0 0.54478,0.1633 0.69155,0.3499 0.48435,0.6158 0.21742,1.4148 -0.61195,1.8319 -0.84436,0.4246 -2.29623,0.5942 -3.31115,0.3869 z m 7.83573,0.036 c -1.31196,-0.2832 -2.27019,-1.1523 -2.7435,-2.4881 -0.21785,-0.6147 -0.27227,-1.761 -0.11539,-2.4305 0.30773,-1.3133 1.22613,-2.3898 2.40105,-2.8145 0.38889,-0.1404 0.56295,-0.1654 1.15576,-0.1654 0.59281,0 0.76687,0.026 1.15575,0.1654 1.17494,0.4247 2.09332,1.5012 2.40106,2.8145 0.15687,0.6695 0.10243,1.8158 -0.1154,2.4305 -0.55025,1.5529 -1.73245,2.4604 -3.2828,2.5198 -0.3315,0.012 -0.71695,0 -0.85653,-0.031 z m 1.34633,-1.9767 c 0.99623,-0.4823 1.28731,-2.3244 0.53967,-3.4153 -0.311,-0.4538 -0.65479,-0.6386 -1.18808,-0.6386 -0.5333,0 -0.87708,0.1848 -1.18807,0.6386 -0.74589,1.0884 -0.4589,2.922 0.53427,3.4137 0.36778,0.1821 0.92808,0.1828 1.30221,0 z m 22.31947,1.9431 c -1.24813,-0.2753 -2.08796,-0.9296 -2.60785,-2.0316 -0.87383,-1.8522 -0.24678,-4.2448 1.39027,-5.3049 0.59898,-0.388 1.10473,-0.5305 1.88377,-0.5304 0.6973,0 1.05345,0.082 1.65098,0.3814 1.14846,0.5748 2.03081,2.013 2.02803,3.3059 -9.5e-4,0.5219 -0.0864,0.7157 -0.38063,0.8631 -0.19856,0.099 -0.45983,0.111 -2.55408,0.1111 h -2.33289 l 0.0419,0.1745 c 0.17454,0.7261 0.79655,1.2252 1.64183,1.3171 0.5226,0.057 0.89788,-0.041 1.68249,-0.4411 0.88187,-0.4489 1.06672,-0.4695 1.42034,-0.1591 0.25354,0.2226 0.38311,0.5494 0.3242,0.8176 -0.0648,0.2953 -0.49256,0.725 -0.96562,0.9703 -1.0527,0.5459 -2.24778,0.741 -3.22278,0.5259 z m 2.28596,-4.772 c -0.11563,-0.6165 -0.61375,-1.2035 -1.14821,-1.3531 -0.33528,-0.094 -0.88339,-0.051 -1.1556,0.089 -0.43464,0.2248 -0.90004,0.9082 -0.90151,1.3237 l -5.7e-4,0.1745 h 1.62496 1.62497 l -0.044,-0.2343 z m 5.51805,4.8014 c -1.2853,-0.2562 -2.27006,-1.1478 -2.7435,-2.4839 -0.21785,-0.6147 -0.27227,-1.761 -0.11539,-2.4305 0.31299,-1.3358 1.28242,-2.446 2.47798,-2.838 1.03086,-0.338 2.72965,-0.087 3.30512,0.4886 l 0.14723,0.1472 0.12087,-0.2047 c 0.15552,-0.2636 0.48583,-0.4181 0.89374,-0.4181 h 0.32353 v -0.748 c 0,-0.6496 0.0187,-0.7851 0.14275,-1.0305 0.18815,-0.3724 0.48776,-0.5691 0.86691,-0.5691 0.38294,0 0.70039,0.1747 0.87685,0.4824 0.12612,0.22 0.14182,0.3363 0.14274,1.0562 l 9.5e-4,0.809 h 0.42828 c 0.77663,0 1.15903,0.2997 1.15697,0.8995 -0.002,0.5863 -0.2835,0.8246 -1.03174,0.8734 l -0.52178,0.033 -0.0317,2.6127 c -0.0305,2.5137 -0.0367,2.6192 -0.16254,2.7877 -0.24868,0.3329 -0.45141,0.4367 -0.85261,0.4367 -0.42345,0 -0.64627,-0.1255 -0.85654,-0.4824 -0.12039,-0.2045 -0.12784,-0.3478 -0.14544,-2.8009 l -0.0185,-2.5854 h -0.35256 c -0.34228,0 -0.78415,-0.1472 -0.78415,-0.2611 0,-0.1216 -0.10363,-0.046 -0.21147,0.1544 -0.13135,0.2439 -0.40265,0.4239 -0.6391,0.4239 -0.0907,0 -0.41201,-0.086 -0.71415,-0.1905 -0.61235,-0.2121 -1.15492,-0.2486 -1.50749,-0.1013 -0.3506,0.1465 -0.70377,0.5161 -0.89947,0.9413 -0.16449,0.3574 -0.18291,0.4642 -0.18343,1.0636 -5.7e-4,0.5852 0.0195,0.7085 0.16371,1.0151 0.22935,0.4871 0.45164,0.7274 0.8556,0.9251 0.30542,0.1495 0.40012,0.166 0.77432,0.136 0.24306,-0.02 0.60365,-0.1068 0.83876,-0.2029 0.47923,-0.1959 0.72875,-0.2132 1.00545,-0.069 0.24302,0.1258 0.38438,0.3313 0.43274,0.6293 0.052,0.3203 -0.0138,0.5176 -0.26529,0.7959 -0.50088,0.5545 -1.93409,0.9003 -2.9177,0.7043 z m 10.65913,-0.029 c -1.24814,-0.2754 -2.08796,-0.9296 -2.60786,-2.0316 -0.87382,-1.8522 -0.24679,-4.2448 1.39028,-5.3049 0.59896,-0.388 1.10473,-0.5305 1.88377,-0.5304 0.69729,0 1.05343,0.082 1.65098,0.3814 1.14845,0.5748 2.0308,2.013 2.02802,3.3059 -9.5e-4,0.5219 -0.0864,0.7156 -0.38064,0.8631 -0.19855,0.099 -0.45981,0.111 -2.55408,0.1111 h -2.33287 l 0.0419,0.1745 c 0.17455,0.7261 0.79657,1.2252 1.64183,1.3171 0.52261,0.057 0.8979,-0.041 1.6825,-0.4411 0.88186,-0.4489 1.06673,-0.4695 1.42033,-0.1591 0.25354,0.2226 0.38313,0.5494 0.32421,0.8176 -0.0648,0.2953 -0.49256,0.725 -0.96561,0.9703 -1.05272,0.5459 -2.24777,0.7409 -3.22278,0.5259 z m 2.28596,-4.7721 c -0.11563,-0.6164 -0.61374,-1.2034 -1.14822,-1.353 -0.33528,-0.094 -0.88338,-0.051 -1.1556,0.089 -0.43463,0.2247 -0.90004,0.908 -0.9015,1.3237 l -5.8e-4,0.1745 h 1.62497 1.62496 z m 5.16908,4.7688 c -0.95323,-0.2632 -1.70672,-0.8993 -2.14912,-1.8143 -0.38122,-0.7885 -0.47128,-1.2539 -0.43428,-2.2443 0.0346,-0.9278 0.15741,-1.4174 0.53825,-2.1465 0.62109,-1.1891 1.85602,-1.8359 3.1498,-1.6496 0.44769,0.065 1.07768,0.316 1.41738,0.5661 l 0.14274,0.1044 v -1.5694 c 0,-1.4959 0.007,-1.5809 0.13859,-1.8159 0.18628,-0.3315 0.58638,-0.5281 0.98333,-0.4835 0.36498,0.041 0.58439,0.2007 0.76704,0.5578 l 0.14413,0.2819 -0.0173,4.7267 c -0.0193,5.2517 0.006,4.9558 -0.44457,5.277 -0.16319,0.1164 -0.29031,0.1477 -0.59905,0.1477 -0.45026,0 -0.66872,-0.122 -0.87742,-0.4901 l -0.12728,-0.2245 -0.30287,0.2742 c -0.16659,0.1508 -0.46621,0.3367 -0.66582,0.4132 -0.46787,0.1795 -1.19434,0.2182 -1.66361,0.088 z m 1.63628,-1.9273 c 0.49846,-0.2563 0.85065,-0.8478 0.95855,-1.6098 0.19372,-1.3679 -0.49182,-2.4566 -1.54695,-2.4566 -0.62611,0 -1.05831,0.3127 -1.38105,0.9993 -0.46812,0.996 -0.18786,2.4397 0.57303,2.9518 0.31285,0.2106 0.36415,0.2255 0.79367,0.2314 0.24518,0.01 0.44565,-0.035 0.60275,-0.1161 z m 21.52194,1.9277 c -0.62405,-0.173 -1.02621,-0.4107 -1.49119,-0.881 -0.76384,-0.773 -1.11014,-1.7051 -1.11014,-2.9876 0,-1.2569 0.36613,-2.2383 1.13042,-3.03 1.1214,-1.1615 2.88887,-1.3317 3.87324,-0.3728 l 0.3071,0.2991 0.12169,-0.2565 c 0.32038,-0.675 1.40087,-0.7125 1.73707,-0.06 0.0809,0.157 0.0951,0.665 0.0951,3.3888 0,3.4901 0.007,3.428 -0.36219,3.7005 -0.1044,0.078 -0.30367,0.137 -0.50758,0.1519 -0.45148,0.033 -0.73271,-0.1146 -0.93017,-0.4897 l -0.15031,-0.2855 -0.26209,0.2463 c -0.42257,0.3973 -0.96564,0.6201 -1.58118,0.6491 -0.34218,0.017 -0.64063,-0.011 -0.86984,-0.071 z m 1.6423,-1.9297 c 0.70503,-0.3597 1.1005,-1.3522 0.95323,-2.392 -0.10451,-0.7382 -0.44822,-1.2917 -0.96612,-1.5558 -0.37763,-0.1926 -1.01138,-0.147 -1.36558,0.098 -1.15683,0.8017 -1.07465,3.2412 0.12925,3.8371 0.35739,0.1769 0.91561,0.1823 1.24922,0.011 z m 6.89135,1.962 c -1.2853,-0.2562 -2.27007,-1.1478 -2.7435,-2.4839 -0.21784,-0.6147 -0.27226,-1.761 -0.11539,-2.4305 0.313,-1.3358 1.28242,-2.446 2.47798,-2.838 0.36049,-0.1182 0.57609,-0.1447 1.14228,-0.1406 1.45361,0.01 2.44271,0.5201 2.44271,1.2585 0,0.5111 -0.38029,0.9888 -0.78714,0.9888 -0.0907,0 -0.41201,-0.086 -0.71414,-0.1904 -0.61235,-0.2121 -1.15492,-0.2486 -1.50749,-0.1013 -0.3506,0.1465 -0.70377,0.5162 -0.89946,0.9414 -0.1645,0.3573 -0.18292,0.4641 -0.18344,1.0634 -5.7e-4,0.5852 0.0195,0.7086 0.16372,1.0151 0.22933,0.4871 0.45163,0.7275 0.85561,0.9251 0.30542,0.1495 0.40009,0.1661 0.77431,0.136 0.24304,-0.02 0.60365,-0.1069 0.83875,-0.2028 0.47923,-0.1958 0.72876,-0.2133 1.00544,-0.069 0.24305,0.1257 0.38439,0.3312 0.43275,0.6293 0.052,0.3203 -0.0138,0.5174 -0.26529,0.7959 -0.50088,0.5544 -1.93409,0.9003 -2.9177,0.7042 z m 6.47161,-0.029 c -1.24813,-0.2754 -2.08796,-0.9296 -2.60785,-2.0316 -0.87382,-1.8522 -0.24679,-4.2448 1.39028,-5.3049 0.59896,-0.388 1.10473,-0.5305 1.88377,-0.5305 0.6973,10e-5 1.05343,0.083 1.65097,0.3815 1.14847,0.5748 2.03081,2.013 2.02804,3.3059 -9.5e-4,0.5219 -0.0864,0.7156 -0.38063,0.8631 -0.19856,0.099 -0.45983,0.111 -2.55408,0.1111 h -2.3329 l 0.0419,0.1745 c 0.17453,0.7261 0.79654,1.2251 1.64182,1.3171 0.5226,0.057 0.89788,-0.041 1.6825,-0.4411 0.88185,-0.4489 1.06671,-0.4695 1.42033,-0.1591 0.25354,0.2226 0.38312,0.5494 0.32421,0.8176 -0.0648,0.2953 -0.49256,0.725 -0.96562,0.9703 -1.05271,0.5459 -2.24778,0.7409 -3.22279,0.5258 z m 2.28597,-4.7721 c -0.11564,-0.6164 -0.61375,-1.2034 -1.14822,-1.353 -0.33528,-0.094 -0.88338,-0.051 -1.1556,0.089 -0.43463,0.2247 -0.90005,0.908 -0.90152,1.3237 l -5.6e-4,0.1745 h 1.62495 1.62499 l -0.044,-0.2344 z m 4.47117,4.7713 c -1.76511,-0.3545 -2.61204,-1.4194 -1.73873,-2.1861 0.18501,-0.1625 0.27353,-0.1937 0.55129,-0.1944 0.27365,0 0.44459,0.057 0.98818,0.3305 0.60704,0.3061 0.69213,0.3316 1.11302,0.3339 0.51376,0 0.77021,-0.1132 0.8369,-0.3789 0.1057,-0.4211 -0.13398,-0.6223 -1.26339,-1.0598 -1.26886,-0.4914 -1.87252,-0.9204 -2.1433,-1.523 -0.20715,-0.4609 -0.21096,-1.2717 -0.008,-1.72 0.29223,-0.6456 0.71723,-1.0235 1.45037,-1.2896 1.0972,-0.3983 2.75394,-0.1367 3.43256,0.5418 0.49474,0.4949 0.40273,1.2639 -0.18774,1.5693 -0.24186,0.1249 -0.39007,0.096 -1.13768,-0.2235 -0.32602,-0.1393 -0.71119,-0.2722 -0.8559,-0.2954 -0.4953,-0.08 -0.91061,0.1695 -0.91061,0.5452 0,0.3155 0.2806,0.5087 1.32371,0.9113 1.74183,0.6723 2.36729,1.3569 2.27621,2.4915 -0.12578,1.5669 -1.80344,2.5335 -3.72682,2.1472 z m -88.67283,-0.1189 c -0.24987,-0.1132 -0.4521,-0.3707 -0.53607,-0.6825 -0.0427,-0.1583 -0.0596,-1.3081 -0.0478,-3.2435 0.0175,-2.8663 0.0237,-3.0077 0.14512,-3.2136 0.21454,-0.3643 0.43132,-0.4827 0.88165,-0.4815 0.45988,0 0.68997,0.1197 0.83887,0.4319 l 0.0977,0.2046 0.25831,-0.2384 c 0.33107,-0.3056 0.82773,-0.4898 1.45038,-0.5378 1.56626,-0.1208 2.78137,0.741 3.0434,2.1584 0.0403,0.2182 0.0586,1.2513 0.0471,2.6581 -0.0208,2.5501 -0.0205,2.5479 -0.44613,2.8516 -0.15847,0.113 -0.29181,0.1476 -0.56732,0.1476 -0.38905,0 -0.59492,-0.1068 -0.84141,-0.4366 -0.12474,-0.167 -0.13242,-0.2801 -0.16541,-2.4387 -0.0219,-1.4379 -0.0603,-2.323 -0.10483,-2.4259 -0.21025,-0.4858 -0.71293,-0.8176 -1.24262,-0.82 -0.5397,0 -0.94946,0.2444 -1.20934,0.7282 -0.13016,0.2426 -0.13771,0.3554 -0.1683,2.5177 -0.0306,2.1608 -0.038,2.2717 -0.16286,2.4387 -0.072,0.096 -0.20543,0.2308 -0.29663,0.2989 -0.21086,0.1575 -0.71471,0.2003 -0.97376,0.083 z m 7.93088,0 c -0.24985,-0.1132 -0.45209,-0.3707 -0.53606,-0.6825 -0.0427,-0.1583 -0.0596,-1.3081 -0.0477,-3.2435 0.0175,-2.8663 0.0237,-3.0077 0.1451,-3.2136 0.21456,-0.3643 0.43132,-0.4827 0.88166,-0.4815 0.45987,0 0.68997,0.1197 0.83886,0.4319 l 0.0977,0.2046 0.2583,-0.2384 c 0.33108,-0.3056 0.82774,-0.4898 1.45039,-0.5378 1.56625,-0.1208 2.78138,0.741 3.0434,2.1584 0.0403,0.2182 0.0586,1.2513 0.0472,2.6581 -0.0208,2.5501 -0.0205,2.5479 -0.44612,2.8516 -0.15848,0.113 -0.29182,0.1476 -0.56733,0.1476 -0.38904,0 -0.59492,-0.1068 -0.8414,-0.4366 -0.12476,-0.167 -0.13243,-0.2801 -0.1654,-2.4387 -0.0219,-1.4379 -0.0603,-2.323 -0.10483,-2.4259 -0.21026,-0.4858 -0.71295,-0.8176 -1.24265,-0.82 -0.53968,0 -0.94945,0.2444 -1.20933,0.7282 -0.13015,0.2426 -0.1377,0.3554 -0.16831,2.5177 -0.0306,2.1608 -0.038,2.2717 -0.16282,2.4387 -0.072,0.096 -0.20545,0.2308 -0.29666,0.2989 -0.21085,0.1575 -0.71471,0.2003 -0.97376,0.083 z m 46.256,0.02 c -0.24014,-0.069 -0.49704,-0.3407 -0.59172,-0.6241 -0.051,-0.1525 -0.0716,-1.4522 -0.0707,-4.4412 9.5e-4,-3.9644 0.009,-4.2414 0.11793,-4.4795 0.25844,-0.5627 0.41753,-0.603 2.38044,-0.6016 1.84283,0 2.2153,0.056 2.99608,0.4409 1.18913,0.5859 1.86642,1.7936 1.78055,3.1744 -0.0797,1.2831 -0.75414,2.2905 -1.87851,2.8062 -0.61458,0.282 -1.1158,0.3638 -2.23688,0.3652 h -0.99477 l -0.0204,1.3481 c -0.0184,1.2161 -0.033,1.3701 -0.14872,1.5704 -0.23246,0.4022 -0.80907,0.5925 -1.33331,0.44 z m 3.65824,-5.4395 c 0.24707,-0.1289 0.3914,-0.2614 0.53069,-0.4866 0.17146,-0.2774 0.19132,-0.3627 0.19132,-0.8221 0,-0.6631 -0.18722,-1.02 -0.68495,-1.3054 -0.3254,-0.1866 -0.34382,-0.1893 -1.26606,-0.1899 h -0.93584 v 1.4909 1.4911 h 0.91275 c 0.87594,0 0.9264,-0.01 1.25209,-0.1773 z m 4.14501,5.4212 c -0.25706,-0.1165 -0.52235,-0.4405 -0.56798,-0.6934 -0.0203,-0.1123 -0.0286,-2.3221 -0.0184,-4.9106 0.0182,-4.6399 0.0204,-4.7088 0.14929,-4.8816 0.24862,-0.3328 0.45138,-0.4367 0.85262,-0.4367 0.42345,0 0.64627,0.1255 0.85654,0.4824 0.12387,0.2103 0.12689,0.3297 0.12689,5.0057 0,4.6761 -0.003,4.7954 -0.12689,5.0058 -0.0697,0.1184 -0.20329,0.2723 -0.29664,0.3419 -0.21397,0.1595 -0.71644,0.2041 -0.97546,0.086 z m -170.733249,-17.089 c -1.195286,-0.073 -2.556195,-0.3583 -3.582913,-0.7501 -3.466556,-1.3229 -6.005697,-4.3053 -7.009042,-8.2325 -0.379467,-1.4854 -0.447236,-2.0951 -0.446015,-4.0135 10e-4,-1.5105 0.01852,-1.8106 0.148494,-2.5379 0.506527,-2.8343 1.691482,-5.2006 3.528669,-7.0465 1.881427,-1.8906 4.279648,-3.04939 7.010184,-3.38737 0.691766,-0.0864 2.181619,-0.0854 2.970326,4.7e-4 1.906001,0.20761 3.678632,0.81081 5.078673,1.7281 2.523613,1.6536 3.132266,3.3833 1.904649,5.4127 -1.016442,1.6802 -2.811479,2.2398 -4.241737,1.3221 -0.122134,-0.079 -0.493298,-0.3614 -0.824807,-0.6287 -0.664753,-0.5361 -1.511365,-0.9892 -2.15721,-1.1544 -0.564304,-0.1443 -1.736117,-0.1443 -2.284097,10e-5 -0.969922,0.2556 -1.869571,0.8402 -2.485505,1.6154 -0.996621,1.254 -1.524594,3.1362 -1.428361,5.0916 0.124824,2.5368 1.148733,4.4181 2.866987,5.268 0.711873,0.3523 1.281819,0.4605 2.188921,0.4162 1.234603,-0.06 1.863743,-0.3135 3.172369,-1.2776 0.40732,-0.3002 0.939848,-0.6281 1.205495,-0.7425 0.423645,-0.1824 0.542335,-0.2051 1.081891,-0.2072 0.574023,0 0.631004,0.01 1.0786,0.233 1.446277,0.7201 2.367719,2.1209 2.261331,3.4378 -0.07966,0.9868 -0.578283,1.8818 -1.49443,2.6827 -1.456597,1.2735 -3.203729,2.1185 -5.211487,2.5208 -0.744616,0.1494 -2.296387,0.3049 -2.79168,0.2799 -0.122135,-0.011 -0.364821,-0.02 -0.539305,-0.03 z m 135.237689,-0.027 c -10.38982,-0.5632 -16.03231,-6.5353 -16.74861,-17.7271 -0.0888,-1.387 -0.0881,-22.57059 5.7e-4,-23.43635 0.24746,-2.4113 1.32142,-3.76734 3.40164,-4.29496 1.79774,-0.45604 4.24416,-0.29138 5.62495,0.37857 1.17438,0.56979 1.83732,1.44591 2.28506,3.01989 0.13534,0.47576 0.13536,0.47685 0.17493,12.40384 0.0218,6.56041 0.0565,11.99931 0.0773,12.08661 0.0207,0.087 0.0704,0.4298 0.11019,0.7614 0.38232,3.1818 1.72405,5.3915 3.86257,6.3611 1.455,0.6597 3.82126,0.7392 5.43602,0.1827 2.05495,-0.7084 3.43896,-2.4325 4.05587,-5.0525 0.39396,-1.6732 0.36916,-0.738 0.41125,-15.51313 l 0.0383,-13.48244 0.13643,-0.55346 c 0.55428,-2.24849 1.91617,-3.37536 4.4269,-3.66293 1.70225,-0.19506 3.33654,0.025 4.53068,0.60936 1.13604,0.55629 1.80871,1.44168 2.21005,2.90908 l 0.1735,0.63453 0.0196,12.75276 c 0.0138,8.89393 -0.002,13.09853 -0.0512,13.89483 -0.52834,8.5015 -3.88304,13.9595 -10.06553,16.377 -2.76856,1.0825 -6.31737,1.5569 -10.11079,1.3512 z m 58.13246,-0.3184 c -3.4241,-0.2447 -5.3576,-2.083 -5.7183,-5.4366 -0.0496,-0.4609 -0.0702,-5.7905 -0.0702,-18.1299 v -17.47721 l -3.69581,-2.1e-4 c -3.98894,-2.2e-4 -4.36376,-0.0251 -5.29754,-0.34282 -1.82999,-0.62386 -2.77584,-1.89085 -3.13061,-4.19341 -0.1114,-0.72302 -0.0963,-2.53006 0.0273,-3.27019 0.39022,-2.33633 1.46938,-3.59952 3.56302,-4.17053 l 0.63447,-0.17303 h 14.46597 c 15.37448,0 14.73434,-0.012 15.70317,0.29673 0.75428,0.2405 1.2638,0.54877 1.81121,1.09623 0.98174,0.98171 1.38668,2.14813 1.4658,4.22216 0.0658,1.72969 -0.13476,2.92728 -0.67764,4.0427 -0.51192,1.05189 -1.28061,1.72293 -2.42417,2.11632 -1.04079,0.35797 -1.30026,0.37605 -5.38531,0.37605 h -3.73422 l -0.0186,18.00321 -0.0186,18.003 -0.13502,0.5394 c -0.45636,1.8228 -1.25761,2.9531 -2.62426,3.7022 -1.15703,0.6342 -2.90302,0.9273 -4.74059,0.7959 z m -179.327322,-0.055 c -1.899103,-0.3471 -2.815053,-1.344 -2.800755,-3.0483 0.0065,-0.7537 0.100252,-1.1788 0.626099,-2.8341 0.742154,-2.3362 3.708219,-11.14 5.693104,-16.8979 1.598813,-4.63798 2.548478,-5.95849 4.708686,-6.54712 0.454919,-0.12403 0.668861,-0.13874 2.062036,-0.14188 1.396902,-0.0108 1.609743,0.0108 2.099903,0.13521 1.754172,0.44606 2.760077,1.43593 3.691872,3.63318 0.765736,1.80561 6.843286,19.31951 7.343362,21.16171 0.169972,0.626 0.231399,1.6462 0.128879,2.14 -0.235758,1.1357 -1.105962,1.9569 -2.446264,2.3087 -0.614692,0.1614 -2.341131,0.1641 -2.975644,0.011 -0.753596,-0.1892 -1.224119,-0.4547 -1.752931,-0.9889 -0.662583,-0.6695 -0.906055,-1.191 -1.44802,-3.1013 l -0.427033,-1.5053 -4.195969,-0.017 -4.195982,-0.016 -0.450581,1.3805 c -0.24781,0.7591 -0.560784,1.6126 -0.695493,1.8966 -0.630982,1.3299 -1.375751,2.022 -2.515821,2.3379 -0.434443,0.1204 -1.988252,0.1829 -2.449448,0.099 z m 13.0494,-12.7397 c -0.04849,-0.1658 -0.706607,-2.5142 -1.462611,-5.2185 -0.756004,-2.7045 -1.393884,-4.9527 -1.417519,-4.9958 -0.02365,-0.043 -0.62221,2.2551 -1.330169,5.1074 -0.707959,2.8523 -1.301357,5.2361 -1.318673,5.2972 -0.02964,0.1046 0.133315,0.111 2.79277,0.111 h 2.824261 z m 16.117788,12.734 c -1.732771,-0.2717 -2.718605,-1.086 -3.183777,-2.6301 -0.107989,-0.3584 -0.116631,-0.9895 -0.148036,-10.8177 l -0.03335,-10.4371 -2.37927,-0.036 c -2.553231,-0.038 -2.703566,-0.056 -3.476624,-0.4091 -0.432634,-0.1975 -1.021608,-0.78829 -1.232837,-1.23644 -0.337099,-0.71513 -0.396924,-1.0738 -0.396924,-2.37918 0,-0.97634 0.02212,-1.28393 0.116228,-1.61791 0.351059,-1.24553 1.035643,-1.93162 2.261931,-2.26659 0.386191,-0.1057 0.99709,-0.11268 9.612244,-0.11268 8.745048,0 9.220224,0.0109 9.612245,0.11693 1.323598,0.37497 2.032243,1.16119 2.318051,2.5717 0.08446,0.41674 0.101015,0.75434 0.07803,1.58516 -0.0255,0.91804 -0.051,1.12214 -0.195276,1.56327 -0.385013,1.17741 -1.090804,1.81554 -2.308428,2.08704 -0.370881,0.083 -0.868134,0.1025 -2.647098,0.1025 H 72.96533 l -0.02049,10.3261 c -0.01929,9.7414 -0.02702,10.3511 -0.135939,10.77 -0.387859,1.4922 -1.203535,2.3174 -2.670603,2.7019 -0.58163,0.1524 -2.32168,0.2218 -2.979556,0.1186 z m 11.73028,-0.029 c -2.312799,-0.4048 -3.542899,-1.837 -3.43321,-3.997 0.04435,-0.8748 0.16751,-1.4042 0.721232,-3.1014 1.0831,-3.3199 6.123362,-17.49044 8.215015,-23.09631 1.885647,-5.05378 3.288021,-6.53514 6.525007,-6.89266 1.03606,-0.11431 3.204098,-0.0458 4.012955,0.12706 2.413935,0.51563 3.668119,1.82481 5.027299,5.24776 0.485876,1.22363 5.413506,16.05855 7.393676,22.25925 1.29709,4.0617 1.43596,4.6448 1.37876,5.7909 -0.0849,1.7006 -0.96964,2.8346 -2.6648,3.4156 -1.64062,0.5623 -4.13567,0.4145 -5.49535,-0.3255 -0.946296,-0.5151 -1.707656,-1.4832 -2.204686,-2.8036 -0.12192,-0.3239 -0.744711,-2.4611 -1.036156,-3.5559 l -0.07183,-0.2701 -5.273002,0.017 -5.273021,0.017 -0.595126,1.7747 c -0.845667,2.5218 -1.298602,3.4155 -2.162454,4.2666 -0.477475,0.4706 -1.287061,0.8935 -2.045527,1.0688 -0.642521,0.1485 -2.32023,0.1814 -3.018708,0.059 z m 16.123296,-17.7488 c -2.040105,-8.30591 -2.795306,-11.27789 -2.838862,-11.1718 -0.02628,0.0647 -0.863464,3.02839 -1.860547,6.5878 -0.997074,3.5593 -1.827669,6.5216 -1.84577,6.5826 -0.03108,0.1045 0.165831,0.111 3.515217,0.111 h 3.548124 z m 19.412108,17.773 c -0.63242,-0.079 -1.5073,-0.3409 -1.99519,-0.5973 -1.04505,-0.5492 -1.70281,-1.4705 -2.05108,-2.8731 l -0.13669,-0.5505 -0.0216,-15.6714 c -0.0149,-10.79024 -5.6e-4,-15.87892 0.046,-16.33757 0.1585,-1.56067 0.54932,-2.53204 1.32785,-3.30039 0.78671,-0.77641 1.69081,-1.13645 3.17985,-1.26644 0.93455,-0.0817 7.72204,-0.0828 9.54057,0 3.69909,0.16531 6.55614,0.79177 8.9543,1.96342 1.37027,0.66951 2.25772,1.28269 3.25855,2.25177 1.95351,1.89139 3.06614,4.22288 3.57462,7.49054 0.18631,1.19726 0.20304,4.12991 0.0306,5.36127 -0.86622,6.1843 -4.31623,10.0052 -10.22646,11.3258 -1.65156,0.369 -2.33611,0.4242 -5.66845,0.4577 l -3.06712,0.03 0.0435,3.1498 c 0.0584,4.2268 -0.0243,5.1151 -0.58465,6.2907 -0.31821,0.6676 -1.06514,1.4133 -1.73903,1.7362 -1.10447,0.5292 -2.85551,0.741 -4.46529,0.5399 z m 10.00554,-20.3895 c 1.28846,-0.1696 2.28992,-0.5394 3.07766,-1.1364 0.72283,-0.5479 1.25613,-1.4002 1.5523,-2.4808 0.12521,-0.4569 0.13953,-0.66593 0.1434,-2.09375 0.004,-1.4502 -0.008,-1.63503 -0.1404,-2.15718 -0.23468,-0.92623 -0.58408,-1.55693 -1.21725,-2.19713 -0.47261,-0.47794 -0.62619,-0.58843 -1.20766,-0.86892 -1.15531,-0.55738 -1.93327,-0.69861 -4.13993,-0.75136 l -1.63378,-0.0392 v 5.90969 5.90935 h 1.42432 c 0.89725,0 1.68965,-0.034 2.14134,-0.095 z m 62.71031,20.0735 c -2.56141,-0.3736 -3.94789,-1.8691 -4.28558,-4.6232 -0.0443,-0.3615 -0.0657,-7.1235 -0.0655,-20.65203 5.7e-4,-17.37199 0.013,-20.19868 0.0937,-20.73308 0.27516,-1.82536 1.08841,-3.05377 2.48281,-3.74999 0.99252,-0.4957 2.03351,-0.69206 3.67274,-0.69305 1.67317,0 2.73873,0.21293 3.80683,0.76432 0.63599,0.32833 1.44727,1.15465 1.75889,1.79137 0.29558,0.6039 0.52402,1.39525 0.61349,2.12535 0.0495,0.40319 0.07,5.55684 0.0702,17.52726 v 16.95625 h 4.26684 c 2.34674,0 4.59516,0.028 4.99645,0.062 3.2071,0.2669 4.63166,2.0039 4.63166,5.6475 0,2.0482 -0.42889,3.4203 -1.35736,4.3425 -0.49322,0.4897 -0.8721,0.7208 -1.57619,0.9608 -1.02077,0.3479 -0.88906,0.3435 -10.1683,0.3355 -4.71095,-0.011 -8.73427,-0.031 -8.94068,-0.062 z"
       id="path835"
       inkscape:connector-curvature="0" />
  </g>
</svg>
