<?xml version="1.0" encoding="UTF-8"?>
<svg version="1.1" viewBox="0 0 250 91" xmlns="http://www.w3.org/2000/svg" xmlns:cc="http://creativecommons.org/ns#" xmlns:dc="http://purl.org/dc/elements/1.1/" xmlns:rdf="http://www.w3.org/1999/02/22-rdf-syntax-ns#" xmlns:xlink="http://www.w3.org/1999/xlink">
<metadata>
<rdf:RDF>
<cc:Work rdf:about="">
<dc:format>image/svg+xml</dc:format>
<dc:type rdf:resource="http://purl.org/dc/dcmitype/StillImage"/>
<dc:title/>
</cc:Work>
</rdf:RDF>
</metadata>
<g transform="translate(0,-961.4)" fill="#fff">
<g transform="matrix(.26131 0 0 -.26131 -79.977 1047.8)">
<g transform="matrix(5.2035 0 0 5.2035 -1617.6 -214.81)" fill="#fff">
<g transform="translate(435.8 54.202)">
<path d="m0 0h99.995l1.767-1.469-1.767-1.416h-99.995l1.804 1.443z" fill="#fff"/>
</g>
<g transform="translate(408.05 91.552)">
<path d="m0 0 5.457-11.076c0.44 0.902 0.818 1.843 1.268 2.803l1.127-3.112-0.016-19.51-2.538-3.119-0.024-6.419h-10.637l0.024 6.51-2.492 2.983 0.016 19.464 1.081 3.112c0.501-0.929 0.944-1.827 1.536-2.712zm0.06-15.054c-2.56 0-5.244-1.921-5.244-4.905 0-2.774 2.537-4.905 5.222-4.905 2.323 0 5.221 1.769 5.221 4.905 0 2.865-2.543 4.905-5.199 4.905" fill="#fff" fill-rule="evenodd"/>
</g>
<g transform="translate(418.42 83.208)">
<path d="m0 0c1.262-1.472 1.637-2.657 3.139-4.383 1.364 1.405 2.175 2.708 3.483 4.25 1.075-1.431 1.762-2.779 3.029-4.25 1.243 1.665 1.956 2.663 3.201 4.112v-12.789h-12.852v13.06" fill="#fff"/>
</g>
<path d="m418.38 65.635h12.868v2.957h-12.868z"/>
<g transform="translate(397.69 69.073)">
<path d="m0 0v-17.971h-12.859v17.923c2.02-1.226 4.791-3.216 6.259-5.735 1.976 2.448 4.211 3.81 6.6 5.783" fill="#fff"/>
</g>
<path d="m418.38 51.299h12.881v12.767h-12.881z"/>
<g transform="translate(385.01 83.308)">
<path d="m0 0c1.236-2.544 4.186-3.184 5.462-4.818l-0.035-4.475c-1.774 2.165-5.399 3.018-5.434 4.652l7e-3 4.641" fill="#fff"/>
</g>
<g transform="translate(397.7 83.308)">
<path d="m0 0 0.019-4.712c-0.107-1.705-3.906-2.522-5.434-4.58l0.057 4.594c1.471 1.763 4.171 2.154 5.358 4.698" fill="#fff"/>
</g>
<g transform="translate(391.36 82.843)">
<path d="m0 0c0.727 0 1.348-0.49 1.348-1.264 0-0.785-0.732-1.222-1.348-1.222-0.674 0-1.391 0.437-1.391 1.222 0 0.732 0.717 1.264 1.391 1.264" fill="#fff"/>
</g>
<g transform="translate(385.05 76.481)">
<path d="m0 0c0.874-2.04 3.646-2.857 5.364-4.698v-4.736c-1.576 1.534-4.88 2.81-5.364 4.837v4.597" fill="#fff"/>
</g>
<g transform="translate(397.75 76.429)">
<path d="m0 0v-4.581c-0.462-2.061-5.436-3.737-5.434-4.688v4.262c0.853 1.883 4.086 2.476 5.434 5.007" fill="#fff"/>
</g>
<g transform="translate(437.34 61.776)">
<path d="m0 0h0.982c0.252 0 1.019 0 1.019-0.813 0-0.786-0.748-0.786-0.963-0.786h-1.038zm-9e-3 2.692h1.018c0.197 0 0.403 0 0.608-0.159 0.187-0.149 0.262-0.392 0.262-0.598 0-0.29-0.14-0.533-0.355-0.654-0.159-0.084-0.355-0.084-0.655-0.084h-0.878zm-1.814-5.525h2.982c0.608 0 1.29 0 1.823 0.281 0.739 0.393 0.935 1.01 0.935 1.533 0 1.384-1.206 1.599-1.627 1.674v0.018c0.337 0.084 1.44 0.336 1.44 1.533 0 0.599-0.299 0.963-0.514 1.16-0.617 0.551-1.486 0.551-2.337 0.551h-2.702v-6.75" fill="#fff" fill-rule="evenodd"/>
</g>
<g transform="translate(444.15 62.3)">
<path d="m0 0c0 1.159 0.336 2.225 1.57 2.225 0.412 0 0.851-0.112 1.122-0.486 0.206-0.299 0.43-0.767 0.43-1.711 0-0.935-0.224-2.169-1.561-2.169-1.243 0-1.561 1.066-1.561 2.141m-1.926-9e-3c0-2.515 1.674-3.506 3.468-3.506 1.609 0 3.516 0.823 3.516 3.515 0 1.645-0.73 3.58-3.422 3.58-0.495 0-1.786-0.075-2.636-0.934-0.851-0.861-0.926-2.207-0.926-2.655" fill="#fff" fill-rule="evenodd"/>
</g>
<g transform="translate(452.27 64.45)">
<path d="m0 0h0.701c0.542 0 1.272 0 1.272-0.832 0-0.215-0.085-0.636-0.496-0.766-0.159-0.057-0.364-0.057-0.776-0.057h-0.701zm-1.879-5.506h1.879v2.636h0.785c0.842 0 0.87-0.299 0.954-1.112 0.065-0.599 0.112-1.113 0.224-1.524h2.029c-0.159 0.477-0.253 1.206-0.318 1.664-0.15 1.038-0.224 1.617-1.533 1.655v0.037c0.187 0.028 0.598 0.075 1.028 0.346 0.318 0.196 0.617 0.514 0.617 1.253 0 0.729-0.262 1.103-0.467 1.308-0.402 0.412-0.86 0.486-2.076 0.486h-3.122v-6.749" fill="#fff" fill-rule="evenodd"/>
</g>
<g transform="translate(458.98 62.3)">
<path d="m0 0c0 1.159 0.337 2.225 1.57 2.225 0.412 0 0.851-0.112 1.122-0.486 0.206-0.299 0.43-0.767 0.43-1.711 0-0.935-0.224-2.169-1.561-2.169-1.243 0-1.561 1.066-1.561 2.141m-1.926-9e-3c0-2.515 1.674-3.506 3.469-3.506 1.607 0 3.515 0.823 3.515 3.515 0 1.645-0.73 3.58-3.422 3.58-0.495 0-1.786-0.075-2.636-0.934-0.851-0.861-0.926-2.207-0.926-2.655" fill="#fff" fill-rule="evenodd"/>
</g>
<g transform="translate(465.28 65.693)">
<path d="m0 0-0.01-3.842c0-1.103 0.01-3.085 3.198-3.085 0.85 0 2.056 0.159 2.711 0.963 0.42 0.495 0.523 1.309 0.523 2.056v3.908h-1.823v-3.945c0-0.673-0.159-1.636-1.346-1.636-0.458 0-0.897 0.178-1.15 0.552-0.187 0.28-0.215 0.654-0.215 1.019v4.01h-1.888" fill="#fff"/>
</g>
<g transform="translate(479.69 63.674)">
<path d="m0 0c-0.01 0.327-0.019 0.888-0.505 1.402-0.542 0.561-1.412 0.785-2.468 0.785-0.813 0-1.991-0.14-2.795-0.897-0.767-0.738-1.01-1.87-1.01-2.683 0-1.075 0.393-2.141 1.253-2.786 0.785-0.589 1.795-0.701 2.524-0.701 1 0 2.001 0.14 2.982 0.374v3.609h-3.188v-1.281h1.431v-1.309c-0.346-0.065-0.692-0.112-1.038-0.112-1.131 0-2 0.664-2 2.244 0 1.131 0.467 2.253 1.748 2.253 0.514 0 1.065-0.197 1.168-0.898h1.898" fill="#fff"/>
</g>
<g transform="translate(481.09 58.944)">
<path d="m0 0h1.879v2.73h2.262v-2.73h1.898v6.75h-1.898v-2.637h-2.253v2.637h-1.888z" fill="#fff"/>
</g>
<g transform="translate(498 63.571)">
<path d="m0 0c-9e-3 0.253-0.019 0.86-0.561 1.44-0.533 0.561-1.365 0.822-2.459 0.822-0.981 0-1.869-0.205-2.561-0.991-0.636-0.72-0.851-1.645-0.851-2.57 0-0.702 0.131-1.777 0.869-2.562 0.748-0.785 1.908-0.897 2.562-0.897 0.879 0 3.029 0.177 3.038 2.29h-1.944c-0.038-0.262-0.14-0.982-1.131-0.982-1.449 0-1.459 1.702-1.459 2.113 0 1.234 0.346 2.272 1.477 2.272 0.533 0 1.01-0.253 1.094-0.935h1.926" fill="#fff"/>
</g>
<g transform="translate(500.69 62.3)">
<path d="m0 0c0 1.159 0.337 2.225 1.57 2.225 0.412 0 0.851-0.112 1.122-0.486 0.206-0.299 0.43-0.767 0.43-1.711 0-0.935-0.224-2.169-1.561-2.169-1.243 0-1.561 1.066-1.561 2.141m-1.926-9e-3c0-2.515 1.673-3.506 3.468-3.506 1.609 0 3.515 0.823 3.515 3.515 0 1.645-0.729 3.58-3.421 3.58-0.496 0-1.786-0.075-2.636-0.934-0.851-0.861-0.926-2.207-0.926-2.655" fill="#fff" fill-rule="evenodd"/>
</g>
<g transform="translate(507 65.693)">
<path d="m0 0-9e-3 -3.842c0-1.103 9e-3 -3.085 3.197-3.085 0.85 0 2.056 0.159 2.711 0.963 0.42 0.495 0.523 1.309 0.523 2.056v3.908h-1.822v-3.945c0-0.673-0.159-1.636-1.347-1.636-0.458 0-0.897 0.178-1.15 0.552-0.187 0.28-0.215 0.654-0.215 1.019v4.01h-1.888" fill="#fff"/>
</g>
<g transform="translate(514.88 58.944)">
<path d="m0 0h1.645l-0.018 5.245 2.328-5.245h2.524v6.75h-1.636l0.018-5.03-2.281 5.03h-2.58z" fill="#fff"/>
</g>
<g transform="translate(529.03 63.571)">
<path d="m0 0c-9e-3 0.253-0.019 0.86-0.561 1.44-0.533 0.561-1.365 0.822-2.458 0.822-0.982 0-1.87-0.205-2.562-0.991-0.636-0.72-0.851-1.645-0.851-2.57 0-0.702 0.131-1.777 0.87-2.562 0.748-0.785 1.907-0.897 2.561-0.897 0.879 0 3.029 0.177 3.038 2.29h-1.944c-0.037-0.262-0.14-0.982-1.131-0.982-1.449 0-1.459 1.702-1.459 2.113 0 1.234 0.346 2.272 1.478 2.272 0.532 0 1.009-0.253 1.093-0.935h1.926" fill="#fff"/>
</g>
<path d="m530.17 58.944h1.926v6.749h-1.926z"/>
<g transform="translate(533.49 58.944)">
<path d="m0 0h4.927v1.327h-3.029v5.423h-1.898z" fill="#fff"/>
</g>
<g transform="translate(438.37 77.07)">
<path d="m0 0 1.121-0.014c0.865 0 3.192 0 3.192-3.107 0-2.384-1.206-3.193-3.093-3.207h-1.22zm-2.909-8.3h4.356c0.709 0 1.958 0 3.008 0.397 2.072 0.809 2.795 2.483 2.795 4.753 0 1.518-0.411 3.207-1.93 4.243-1.064 0.723-2.681 0.851-3.901 0.851h-4.328v-10.244" fill="#fff" fill-rule="evenodd"/>
</g>
<g transform="translate(450 72.714)">
<path d="m0 0 1.419 4.299h0.042l1.32-4.299zm-4.2-3.944h2.838l0.695 2.057h4.101l0.709-2.057h3.207l-4.044 10.244h-3.462z" fill="#fff" fill-rule="evenodd"/>
</g>
<g transform="translate(461.5 77.126)">
<path d="m0 0h1.064c0.823 0 1.93 0 1.93-1.263 0-0.326-0.128-0.964-0.752-1.163-0.241-0.085-0.554-0.085-1.178-0.085h-1.064zm-2.852-8.357h2.852v4.001h1.192c1.277 0 1.319-0.454 1.447-1.688 0.1-0.908 0.17-1.689 0.341-2.313h3.078c-0.241 0.724-0.383 1.83-0.482 2.526-0.227 1.575-0.34 2.454-2.327 2.511v0.057c0.284 0.042 0.908 0.113 1.561 0.525 0.482 0.298 0.936 0.78 0.936 1.901 0 1.107-0.397 1.674-0.709 1.986-0.61 0.625-1.305 0.738-3.15 0.738h-4.739v-10.244" fill="#fff" fill-rule="evenodd"/>
</g>
<g transform="translate(469.15 68.769)">
<path d="m0 0h7.477v2.015h-4.597v8.229h-2.88z" fill="#fff"/>
</g>
<path d="m477.94 68.769h2.923v10.244h-2.923z"/>
<g transform="translate(482.99 68.769)">
<path d="m0 0h2.497l-0.028 7.96 3.532-7.96h3.832v10.244h-2.483l0.028-7.633-3.462 7.633h-3.916z" fill="#fff"/>
</g>
<g transform="translate(504.92 75.949)">
<path d="m0 0c-0.014 0.497-0.028 1.348-0.766 2.128-0.823 0.851-2.142 1.192-3.746 1.192-1.234 0-3.022-0.213-4.242-1.362-1.163-1.121-1.532-2.838-1.532-4.072 0-1.632 0.596-3.249 1.901-4.228 1.192-0.894 2.724-1.064 3.83-1.064 1.519 0 3.037 0.213 4.527 0.567v5.477h-4.839v-1.944h2.171v-1.986c-0.525-0.1-1.05-0.171-1.574-0.171-1.717 0-3.037 1.008-3.037 3.406 0 1.716 0.709 3.419 2.653 3.419 0.781 0 1.618-0.298 1.774-1.362h2.88" fill="#fff"/>
</g>
<g transform="translate(509.38 68.769)">
<path d="m0 0h2.866v8.215h3.192v2.029h-9.18v-2.029h3.122z" fill="#fff"/>
</g>
<g transform="translate(518.73 73.863)">
<path d="m0 0c0 1.759 0.511 3.377 2.384 3.377 0.624 0 1.291-0.17 1.702-0.738 0.312-0.454 0.653-1.163 0.653-2.596 0-1.419-0.341-3.292-2.37-3.292-1.887 0-2.369 1.617-2.369 3.249m-2.923-0.014c0-3.817 2.54-5.321 5.264-5.321 2.44 0 5.335 1.249 5.335 5.335 0 2.497-1.107 5.434-5.193 5.434-0.752 0-2.71-0.113-4.001-1.419-1.292-1.305-1.405-3.348-1.405-4.029" fill="#fff" fill-rule="evenodd"/>
</g>
<g transform="translate(528.23 68.769)">
<path d="m0 0h2.497l-0.028 7.96 3.532-7.96h3.832v10.244h-2.484l0.029-7.633-3.462 7.633h-3.916z" fill="#fff"/>
</g>
</g>
</g>
</g>
</svg>
