<?xml version="1.0" encoding="UTF-8" standalone="no"?>
<!-- Created with Inkscape (http://www.inkscape.org/) -->

<svg xmlns:dc="http://purl.org/dc/elements/1.1/" xmlns:cc="http://creativecommons.org/ns#" xmlns:rdf="http://www.w3.org/1999/02/22-rdf-syntax-ns#" xmlns:svg="http://www.w3.org/2000/svg" xmlns="http://www.w3.org/2000/svg" xmlns:sodipodi="http://sodipodi.sourceforge.net/DTD/sodipodi-0.dtd" xmlns:inkscape="http://www.inkscape.org/namespaces/inkscape" width="250" height="91" viewBox="0 0 250 91" id="svg2" version="1.1" inkscape:version="0.91 r13725" sodipodi:docname="datamillnorth.svg">
  <defs id="defs4" />
  <sodipodi:namedview id="base" pagecolor="#ffffff" bordercolor="#666666" borderopacity="1.0" inkscape:pageopacity="0.0" inkscape:pageshadow="2" inkscape:zoom="5.6" inkscape:cx="148.22" inkscape:cy="45.815" inkscape:document-units="px" inkscape:current-layer="layer1" showgrid="false" inkscape:window-width="1280" inkscape:window-height="751" inkscape:window-x="0" inkscape:window-y="1" inkscape:window-maximized="1" units="px" />
  <metadata id="metadata7">
    <rdf:RDF>
      <cc:Work rdf:about="">
        <dc:format>image/svg+xml</dc:format>
        <dc:type rdf:resource="http://purl.org/dc/dcmitype/StillImage" />
        <dc:title></dc:title>
      </cc:Work>
    </rdf:RDF>
  </metadata>
  <g inkscape:label="Layer 1" inkscape:groupmode="layer" id="layer1" transform="translate(0,-961.4)">
    <g id="g4161" transform="matrix(0.09806,0,0,0.09806,96.615,971.89)" style="fill:#ffffff">
      <path inkscape:connector-curvature="0" style="fill:#ffffff;fill-opacity:1;fill-rule:nonzero;stroke:none" d="m 478.84,0.1299 c -4.15,0 -7.56,3.3435 -7.77,7.4914 l -10.38,197.5287 -7.15,-138.818 c -0.33,-4.148 -3.65,-7.387 -7.77,-7.387 l -80.12,0 c -4.1,0 -7.52,3.188 -7.78,7.335 l -9.46,140.03 -4.07,-60.14 0,-0.33 0,-0.96 c -0.73,-3.56 -3.9,-6.15 -7.59,-6.15 l -79.79,0 c -3.74,0 -6.85,2.59 -7.6,6.15 l 0,0.59 0,0.6 -4.09,59.28 -5.42,-93.09 c 0,-2.9 -1.79,-5.44 -4.39,-6.71 -2.55,-1.29 -5.61,-1.03 -7.95,0.65 l -97.7,71.81 -1.94,-65.46 c 0,-2.98 -1.65,-5.6 -4.25,-6.94 -2.62,-1.35 -5.73,-1.09 -8.14,0.59 l -112.2424,82.3 c -2.0485,1.51 -3.2376,3.84 -3.2376,6.36 l 0,511.37 c 0,4.27 3.4774,7.77 7.7742,7.77 l 111.9858,0 2.2,0 113.32,0 7.6,0 116.8,0 101.74,0 0.31,0 113.18,0 c 2.13,0 4.15,-0.85 5.63,-2.41 1.44,-1.5 2.24,-3.55 2.14,-5.7 l -15.57,-698.3986 -0.36,0 c -0.31,-4.1479 -3.58,-7.4914 -7.79,-7.4914 l -80.12,0 z m -297.42,240.5301 17.24,0 c 0.78,0 1.53,0.51 1.79,1.29 l 35.79,114.22 c 0.34,0.36 0.34,0.62 0.34,1.01 0,1.04 -0.83,1.81 -1.87,1.81 l -18.42,0 c -0.81,0 -1.53,-0.51 -1.74,-1.29 l -7.69,-26.31 -33.47,0 -7.57,26.31 c -0.33,0.78 -0.98,1.29 -1.79,1.29 l -18.48,0 c -0.55,0 -1.09,-0.33 -1.46,-0.75 -0.31,-0.49 -0.41,-1.06 -0.31,-1.61 l 0,0 35.96,-114.68 c 0.34,-0.78 0.93,-1.29 1.76,-1.29 z m 169.4,0 17.21,0 c 0.8,0 1.5,0.51 1.76,1.29 l 35.83,114.22 c 0.34,0.36 0.34,0.62 0.34,1.01 0,1.04 -0.83,1.81 -1.87,1.81 l -18.43,0 c -0.81,0 -1.56,-0.51 -1.79,-1.29 l -7.6,-26.31 -33.49,0 -7.59,26.31 c -0.34,0.78 -0.96,1.29 -1.79,1.29 l -18.41,0 c -0.62,0 -1.19,-0.33 -1.49,-0.75 -0.34,-0.49 -0.47,-1.06 -0.34,-1.61 l 35.95,-114.68 0,0 c 0.34,-0.78 0.98,-1.29 1.79,-1.29 z m -301.077,1.34 33.694,0 c 33.573,0 49.873,19.14 49.873,58.54 0,39.32 -16.3,58.45 -49.873,58.45 l -33.694,0 c -1.039,0 -1.839,-0.77 -1.839,-1.81 l 0,-113.28 c 0,-1.04 0.8,-1.9 1.839,-1.9 z m 185.977,0 75.83,0 c 1.01,0 1.87,0.86 1.87,1.9 l 0,15.55 c 0,1.04 -0.86,1.82 -1.87,1.82 l -27.61,0 0,95.91 c 0,1.04 -0.83,1.81 -1.84,1.81 l -16.9,0 c -1.04,0 -1.87,-0.77 -1.87,-1.81 l 0,-95.91 -27.61,0 c -1.03,0 -1.84,-0.78 -1.84,-1.82 l 0,-15.55 c 0,-1.04 0.81,-1.9 1.84,-1.9 z m -167.311,19.27 0,78.51 15.398,0 c 19.153,0 28.023,-12.52 28.023,-39.24 0,-26.8 -8.87,-39.27 -28.023,-39.27 l -15.398,0 z m 121.571,10.88 -12.05,41.61 24.1,0 -12.05,-41.61 z m 169.31,0 -12.02,41.61 24.02,0 -12,-41.61 z m -309.547,121.6 21.743,0 c 0.78,0 1.459,0.49 1.719,1.17 l 28.925,72.83 28.98,-72.83 c 0.31,-0.68 0.96,-1.17 1.71,-1.17 l 21.74,0 c 1.04,0 1.85,0.8 1.85,1.84 l 0,113.32 c 0,1.04 -0.81,1.84 -1.85,1.84 l -16.92,0 c -0.51,0 -0.95,-0.36 -1.29,-0.57 -0.39,-0.34 -0.55,-0.83 -0.55,-1.27 l 0.68,-75.53 -24.63,60.65 c -0.31,0.67 -0.93,1.17 -1.68,1.17 l -16.001,0 c -0.779,0 -1.498,-0.5 -1.758,-1.17 l -24.552,-60.65 0.65,75.5 c 0,0.47 -0.36,0.96 -0.52,1.3 -0.36,0.34 -0.879,0.57 -1.369,0.57 l -16.877,0 c -1.039,0 -1.839,-0.83 -1.839,-1.87 l 0,-113.29 c 0,-1.04 0.8,-1.84 1.839,-1.84 z m 133.237,0 16.92,0 c 0.99,0 1.85,0.8 1.85,1.84 l 0,113.32 c 0,1.04 -0.86,1.84 -1.85,1.84 l -16.92,0 c -1.04,0 -1.85,-0.8 -1.85,-1.84 l 0,-113.32 c 0,-1.04 0.81,-1.84 1.85,-1.84 z m 45.34,0 16.9,0 c 1.04,0 1.8,0.8 1.8,1.84 l 0,95.88 47.47,0 c 1.04,0 1.82,0.86 1.82,1.87 l 0,15.57 c 0,1.04 -0.78,1.84 -1.82,1.84 l -66.17,0 c -1.02,0 -1.85,-0.8 -1.85,-1.84 l 0,-113.32 c 0,-1.04 0.83,-1.84 1.85,-1.84 z m 86.7,0 16.93,0 c 1.03,0 1.84,0.8 1.84,1.84 l 0,95.88 47.4,0 c 0.99,0 1.85,0.86 1.85,1.87 l 0,15.57 c 0,1.04 -0.86,1.84 -1.85,1.84 l -66.17,0 c -1.04,0 -1.86,-0.8 -1.86,-1.84 l 0,-113.32 c 0,-1.04 0.82,-1.84 1.86,-1.84 z m -116.23,149.93 c 40.38,0 45.52,32.24 45.52,60.28 0,28.1 -5.14,60.35 -45.52,60.35 -40.31,0 -45.46,-32.25 -45.46,-60.35 0,-28.04 5.15,-60.28 45.46,-60.28 z m -149.047,1.81 15.418,0 c 0.63,0 1.249,0.31 1.559,0.91 l 45.78,74.8 -0.41,-73.88 c 0,-0.48 0.33,-0.92 0.54,-1.28 0.34,-0.37 0.82,-0.55 1.29,-0.55 l 16.8,0 c 1.01,0 1.84,0.81 1.84,1.83 l 0,113.28 c 0,1.04 -0.83,1.87 -1.84,1.87 l -15.43,0 c -0.64,0 -1.24,-0.33 -1.55,-0.85 l -45.831,-74.89 0.47,73.87 c 0,0.5 -0.36,1.02 -0.6,1.3 -0.31,0.36 -0.799,0.57 -1.319,0.57 l -16.717,0 c -1.039,0 -1.839,-0.83 -1.839,-1.87 l 0,-113.28 c 0,-1.02 0.8,-1.83 1.839,-1.83 z m 217.087,0 36.86,0 c 27.66,0 40.52,11.28 40.52,35.51 0,16.33 -5.62,26.31 -17.7,31.24 l 22.83,47.56 c 0.31,0.6 0.31,1.3 0,1.82 l -0.33,0 c -0.32,0.52 -0.86,0.85 -1.51,0.85 l -19.81,0 c -0.72,0 -1.39,-0.44 -1.67,-1.11 l -20.07,-44.98 -20.5,0 0,44.22 c 0,1.04 -0.86,1.87 -1.84,1.87 l -16.93,0 c -1.01,0 -1.84,-0.83 -1.84,-1.87 l 0,-113.28 c 0,-1.02 0.83,-1.83 1.84,-1.83 z m 90.18,0 75.83,0 c 1.02,0 1.83,0.81 1.83,1.83 l 0,15.56 c 0,1.01 -0.81,1.84 -1.83,1.84 l -27.61,0 0,95.88 c 0,1.04 -0.8,1.87 -1.84,1.87 l -16.93,0 c -0.99,0 -1.84,-0.83 -1.84,-1.87 l 0,-95.88 -27.61,0 c -1.01,0 -1.84,-0.83 -1.84,-1.84 l 0,-15.56 c 0,-1.02 0.83,-1.83 1.84,-1.83 z m 96.69,0 16.93,0 c 0.98,0 1.84,0.81 1.84,1.83 l 0,44.98 42.22,0 0,-44.98 c 0,-1.02 0.8,-1.83 1.84,-1.83 l 16.9,0 c 1.01,0 1.87,0.81 1.87,1.83 l 0,113.28 c 0,1.04 -0.86,1.87 -1.87,1.87 l -16.9,0 c -1.04,0 -1.84,-0.83 -1.84,-1.87 l 0,-49.01 -42.22,0 0,49.01 c 0,1.04 -0.86,1.87 -1.84,1.87 l -16.93,0 c -1.04,0 -1.87,-0.83 -1.87,-1.87 l 0,-113.28 c 0,-1.02 0.83,-1.83 1.87,-1.83 z m -255.01,17.26 c -17.79,0 -24.4,11.22 -24.4,41.21 0,30.05 6.61,41.19 24.4,41.19 17.86,0 24.46,-11.14 24.46,-41.19 0,-29.99 -6.6,-41.21 -24.46,-41.21 z m 86.91,1.97 0,32.61 20.5,0 c 13.3,0 16,-6.25 16,-16.33 0,-10 -2.7,-16.28 -16,-16.28 l -20.5,0 z" id="path4538" />
      <circle cy="229.31" cx="-315.1" id="ellipse4185" style="opacity:1;fill:#ffffff;fill-opacity:1;stroke:none;stroke-width:2.5;stroke-linecap:round;stroke-linejoin:round;stroke-miterlimit:4;stroke-dasharray:none;stroke-dashoffset:0;stroke-opacity:1" r="0" />
    </g>
  </g>
</svg>
