<?xml version="1.0" encoding="UTF-8"?>
<svg version="1.1" viewBox="0 0 250 91" xmlns="http://www.w3.org/2000/svg" xmlns:cc="http://creativecommons.org/ns#" xmlns:dc="http://purl.org/dc/elements/1.1/" xmlns:rdf="http://www.w3.org/1999/02/22-rdf-syntax-ns#">
<metadata>
<rdf:RDF>
<cc:Work rdf:about="">
<dc:format>image/svg+xml</dc:format>
<dc:type rdf:resource="http://purl.org/dc/dcmitype/StillImage"/>
<dc:title/>
</cc:Work>
</rdf:RDF>
</metadata>
<g transform="translate(0,-961.4)">
<g transform="matrix(.09806 0 0 .09806 96.615 971.89)" fill="#fff">
<path d="m478.84 0.1299c-4.15 0-7.56 3.3435-7.77 7.4914l-10.38 197.53-7.15-138.82c-0.33-4.148-3.65-7.387-7.77-7.387h-80.12c-4.1 0-7.52 3.188-7.78 7.335l-9.46 140.03-4.07-60.14v-0.33-0.96c-0.73-3.56-3.9-6.15-7.59-6.15h-79.79c-3.74 0-6.85 2.59-7.6 6.15v0.59 0.6l-4.09 59.28-5.42-93.09c0-2.9-1.79-5.44-4.39-6.71-2.55-1.29-5.61-1.03-7.95 0.65l-97.7 71.81-1.94-65.46c0-2.98-1.65-5.6-4.25-6.94-2.62-1.35-5.73-1.09-8.14 0.59l-112.24 82.3c-2.0485 1.51-3.2376 3.84-3.2376 6.36v511.37c0 4.27 3.4774 7.77 7.7742 7.77h111.99 2.2 113.32 7.6 116.8 101.74 0.31 113.18c2.13 0 4.15-0.85 5.63-2.41 1.44-1.5 2.24-3.55 2.14-5.7l-15.57-698.4h-0.36c-0.31-4.1479-3.58-7.4914-7.79-7.4914h-80.12zm-297.42 240.53h17.24c0.78 0 1.53 0.51 1.79 1.29l35.79 114.22c0.34 0.36 0.34 0.62 0.34 1.01 0 1.04-0.83 1.81-1.87 1.81h-18.42c-0.81 0-1.53-0.51-1.74-1.29l-7.69-26.31h-33.47l-7.57 26.31c-0.33 0.78-0.98 1.29-1.79 1.29h-18.48c-0.55 0-1.09-0.33-1.46-0.75-0.31-0.49-0.41-1.06-0.31-1.61l35.96-114.68c0.34-0.78 0.93-1.29 1.76-1.29zm169.4 0h17.21c0.8 0 1.5 0.51 1.76 1.29l35.83 114.22c0.34 0.36 0.34 0.62 0.34 1.01 0 1.04-0.83 1.81-1.87 1.81h-18.43c-0.81 0-1.56-0.51-1.79-1.29l-7.6-26.31h-33.49l-7.59 26.31c-0.34 0.78-0.96 1.29-1.79 1.29h-18.41c-0.62 0-1.19-0.33-1.49-0.75-0.34-0.49-0.47-1.06-0.34-1.61l35.95-114.68c0.34-0.78 0.98-1.29 1.79-1.29zm-301.08 1.34h33.694c33.573 0 49.873 19.14 49.873 58.54 0 39.32-16.3 58.45-49.873 58.45h-33.694c-1.039 0-1.839-0.77-1.839-1.81v-113.28c0-1.04 0.8-1.9 1.839-1.9zm185.98 0h75.83c1.01 0 1.87 0.86 1.87 1.9v15.55c0 1.04-0.86 1.82-1.87 1.82h-27.61v95.91c0 1.04-0.83 1.81-1.84 1.81h-16.9c-1.04 0-1.87-0.77-1.87-1.81v-95.91h-27.61c-1.03 0-1.84-0.78-1.84-1.82v-15.55c0-1.04 0.81-1.9 1.84-1.9zm-167.31 19.27v78.51h15.398c19.153 0 28.023-12.52 28.023-39.24 0-26.8-8.87-39.27-28.023-39.27h-15.398zm121.57 10.88-12.05 41.61h24.1l-12.05-41.61zm169.31 0-12.02 41.61h24.02l-12-41.61zm-309.55 121.6h21.743c0.78 0 1.459 0.49 1.719 1.17l28.925 72.83 28.98-72.83c0.31-0.68 0.96-1.17 1.71-1.17h21.74c1.04 0 1.85 0.8 1.85 1.84v113.32c0 1.04-0.81 1.84-1.85 1.84h-16.92c-0.51 0-0.95-0.36-1.29-0.57-0.39-0.34-0.55-0.83-0.55-1.27l0.68-75.53-24.63 60.65c-0.31 0.67-0.93 1.17-1.68 1.17h-16.001c-0.779 0-1.498-0.5-1.758-1.17l-24.552-60.65 0.65 75.5c0 0.47-0.36 0.96-0.52 1.3-0.36 0.34-0.879 0.57-1.369 0.57h-16.877c-1.039 0-1.839-0.83-1.839-1.87v-113.29c0-1.04 0.8-1.84 1.839-1.84zm133.24 0h16.92c0.99 0 1.85 0.8 1.85 1.84v113.32c0 1.04-0.86 1.84-1.85 1.84h-16.92c-1.04 0-1.85-0.8-1.85-1.84v-113.32c0-1.04 0.81-1.84 1.85-1.84zm45.34 0h16.9c1.04 0 1.8 0.8 1.8 1.84v95.88h47.47c1.04 0 1.82 0.86 1.82 1.87v15.57c0 1.04-0.78 1.84-1.82 1.84h-66.17c-1.02 0-1.85-0.8-1.85-1.84v-113.32c0-1.04 0.83-1.84 1.85-1.84zm86.7 0h16.93c1.03 0 1.84 0.8 1.84 1.84v95.88h47.4c0.99 0 1.85 0.86 1.85 1.87v15.57c0 1.04-0.86 1.84-1.85 1.84h-66.17c-1.04 0-1.86-0.8-1.86-1.84v-113.32c0-1.04 0.82-1.84 1.86-1.84zm-116.23 149.93c40.38 0 45.52 32.24 45.52 60.28 0 28.1-5.14 60.35-45.52 60.35-40.31 0-45.46-32.25-45.46-60.35 0-28.04 5.15-60.28 45.46-60.28zm-149.05 1.81h15.418c0.63 0 1.249 0.31 1.559 0.91l45.78 74.8-0.41-73.88c0-0.48 0.33-0.92 0.54-1.28 0.34-0.37 0.82-0.55 1.29-0.55h16.8c1.01 0 1.84 0.81 1.84 1.83v113.28c0 1.04-0.83 1.87-1.84 1.87h-15.43c-0.64 0-1.24-0.33-1.55-0.85l-45.831-74.89 0.47 73.87c0 0.5-0.36 1.02-0.6 1.3-0.31 0.36-0.799 0.57-1.319 0.57h-16.717c-1.039 0-1.839-0.83-1.839-1.87v-113.28c0-1.02 0.8-1.83 1.839-1.83zm217.09 0h36.86c27.66 0 40.52 11.28 40.52 35.51 0 16.33-5.62 26.31-17.7 31.24l22.83 47.56c0.31 0.6 0.31 1.3 0 1.82h-0.33c-0.32 0.52-0.86 0.85-1.51 0.85h-19.81c-0.72 0-1.39-0.44-1.67-1.11l-20.07-44.98h-20.5v44.22c0 1.04-0.86 1.87-1.84 1.87h-16.93c-1.01 0-1.84-0.83-1.84-1.87v-113.28c0-1.02 0.83-1.83 1.84-1.83zm90.18 0h75.83c1.02 0 1.83 0.81 1.83 1.83v15.56c0 1.01-0.81 1.84-1.83 1.84h-27.61v95.88c0 1.04-0.8 1.87-1.84 1.87h-16.93c-0.99 0-1.84-0.83-1.84-1.87v-95.88h-27.61c-1.01 0-1.84-0.83-1.84-1.84v-15.56c0-1.02 0.83-1.83 1.84-1.83zm96.69 0h16.93c0.98 0 1.84 0.81 1.84 1.83v44.98h42.22v-44.98c0-1.02 0.8-1.83 1.84-1.83h16.9c1.01 0 1.87 0.81 1.87 1.83v113.28c0 1.04-0.86 1.87-1.87 1.87h-16.9c-1.04 0-1.84-0.83-1.84-1.87v-49.01h-42.22v49.01c0 1.04-0.86 1.87-1.84 1.87h-16.93c-1.04 0-1.87-0.83-1.87-1.87v-113.28c0-1.02 0.83-1.83 1.87-1.83zm-255.01 17.26c-17.79 0-24.4 11.22-24.4 41.21 0 30.05 6.61 41.19 24.4 41.19 17.86 0 24.46-11.14 24.46-41.19 0-29.99-6.6-41.21-24.46-41.21zm86.91 1.97v32.61h20.5c13.3 0 16-6.25 16-16.33 0-10-2.7-16.28-16-16.28h-20.5z"/>
<circle cx="-315.1" cy="229.31" r="0"/>
</g>
</g>
</svg>
