<?xml version="1.0" encoding="UTF-8"?>
<svg enable-background="new 0 0 368.5 180.1" version="1.1" viewBox="0 0 250 91" xml:space="preserve" xmlns="http://www.w3.org/2000/svg" xmlns:cc="http://creativecommons.org/ns#" xmlns:dc="http://purl.org/dc/elements/1.1/" xmlns:rdf="http://www.w3.org/1999/02/22-rdf-syntax-ns#"><metadata><rdf:RDF><cc:Work rdf:about=""><dc:format>image/svg+xml</dc:format><dc:type rdf:resource="http://purl.org/dc/dcmitype/StillImage"/><dc:title/></cc:Work></rdf:RDF></metadata><defs><clipPath id="a"><path d="m42.52 42.52h127.56v65.26h-127.56v-65.26z"/></clipPath></defs><path d="m64.413 76.322h1.131v-61.815h-1.131v61.815z" fill="#fff"/><g transform="matrix(.94994 0 0 -.94994 24.022 116.89)" fill="#fff"><g clip-path="url(#a)" fill="#fff"><g transform="translate(51.003,73.611)"><path d="m0 0h2.24c0.922 0 3.403 0.255 3.403 3.983 0 2.411-0.894 3.871-3.375 3.871h-2.268v-7.854zm-1.347 8.988h3.474c3.119 0 4.862-1.559 4.862-4.82 0-3.388-1.488-5.302-4.862-5.302h-3.474v10.122z" fill="#fff"/></g><g transform="translate(64.254,76.843)"><path d="m0 0c-0.057 1.149-0.922 2.07-2.112 2.07-1.262 0-2.014-0.95-2.099-2.07h4.211zm1.162-2.041c-0.326-1.617-1.488-2.496-3.133-2.496-2.339 0-3.445 1.616-3.516 3.857 0 2.197 1.446 3.813 3.445 3.813 2.595 0 3.389-2.424 3.318-4.196h-5.487c-0.042-1.276 0.681-2.41 2.283-2.41 0.992 0 1.687 0.482 1.9 1.432h1.19z" fill="#fff"/></g><g transform="translate(69.944,78.913)"><path d="m0 0c-1.616 0-2.24-1.389-2.24-2.764 0-1.447 0.652-2.779 2.311-2.779 1.644 0 2.197 1.403 2.197 2.836 0 1.375-0.709 2.707-2.268 2.707m-3.403 0.893h1.206v-0.992h0.028c0.397 0.808 1.333 1.162 2.339 1.162 2.254 0 3.374-1.786 3.374-3.856s-1.105-3.814-3.346-3.814c-0.751 0-1.828 0.284-2.367 1.149h-0.028v-3.786h-1.206v10.137z" fill="#fff"/></g><g transform="translate(79.081,76.262)"><path d="m0 0c-0.468-0.34-1.375-0.355-2.183-0.496-0.794-0.142-1.475-0.425-1.475-1.319 0-0.793 0.681-1.077 1.418-1.077 1.588 0 2.24 0.992 2.24 1.658v1.234zm1.956-3.757c-0.212-0.127-0.482-0.199-0.864-0.199-0.624 0-1.021 0.341-1.021 1.135-0.666-0.78-1.559-1.135-2.58-1.135-1.333 0-2.425 0.596-2.425 2.056 0 1.659 1.234 2.013 2.481 2.255 1.333 0.255 2.467 0.17 2.467 1.077 0 1.049-0.865 1.219-1.63 1.219-1.021 0-1.773-0.312-1.829-1.389h-1.205c0.071 1.815 1.474 2.452 3.105 2.452 1.318 0 2.75-0.297 2.75-2.013v-3.771c0-0.567 0-0.822 0.383-0.822 0.099 0 0.212 0.014 0.368 0.071v-0.936z" fill="#fff"/></g><g transform="translate(81.854,79.807)"><path d="m0 0h1.134v-1.546h0.029c0.581 1.177 1.389 1.759 2.693 1.716v-1.276c-1.942 0-2.651-1.106-2.651-2.963v-3.261h-1.205v7.33z" fill="#fff"/></g><g transform="translate(88.463,79.807)"><path d="m0 0h1.46v-1.063h-1.46v-4.551c0-0.553 0.156-0.652 0.907-0.652h0.553v-1.064h-0.921c-1.248 0-1.744 0.255-1.744 1.602v4.665h-1.248v1.063h1.248v2.197h1.205v-2.197z" fill="#fff"/></g><g transform="translate(90.821,79.807)"><path d="m0 0h1.134v-1.077h0.029c0.538 0.822 1.361 1.247 2.367 1.247 0.893 0 1.716-0.355 2.014-1.247 0.496 0.779 1.361 1.247 2.296 1.247 1.46 0 2.439-0.61 2.439-2.126v-5.374h-1.205v4.806c0 0.908-0.242 1.631-1.418 1.631-1.163 0-1.914-0.738-1.914-1.871v-4.566h-1.205v4.806c0 0.95-0.298 1.631-1.375 1.631-1.432 0-1.957-1.319-1.957-1.871v-4.566h-1.205v7.33z" fill="#fff"/></g><g transform="translate(107.66,76.843)"><path d="m0 0c-0.057 1.149-0.922 2.07-2.113 2.07-1.261 0-2.013-0.95-2.098-2.07h4.211zm1.163-2.041c-0.327-1.617-1.489-2.496-3.134-2.496-2.339 0-3.445 1.616-3.516 3.857 0 2.197 1.447 3.813 3.445 3.813 2.595 0 3.389-2.424 3.318-4.196h-5.487c-0.042-1.276 0.681-2.41 2.283-2.41 0.992 0 1.687 0.482 1.9 1.432h1.191z" fill="#fff"/></g><g transform="translate(109.93,79.807)"><path d="m0 0h1.134v-1.163h0.029c0.51 0.908 1.332 1.333 2.381 1.333 1.928 0 2.524-1.106 2.524-2.68v-4.82h-1.205v4.962c0 0.894-0.567 1.475-1.489 1.475-1.46 0-2.169-0.978-2.169-2.297v-4.14h-1.205v7.33z" fill="#fff"/></g><g transform="translate(119.09,79.807)"><path d="m0 0h1.46v-1.063h-1.46v-4.551c0-0.553 0.156-0.652 0.907-0.652h0.553v-1.064h-0.921c-1.248 0-1.744 0.255-1.744 1.602v4.665h-1.248v1.063h1.248v2.197h1.205v-2.197z" fill="#fff"/></g><g transform="translate(49.954,63.85)"><path d="m0 0h-1.233v1.063h1.233v1.092c0 1.191 0.709 1.815 2.027 1.815 0.227 0 0.553-0.043 0.78-0.113v-1.05c-0.213 0.071-0.468 0.1-0.68 0.1-0.582 0-0.922-0.185-0.922-0.822v-1.022h1.418v-1.063h-1.418v-6.266h-1.205v6.266z" fill="#fff"/></g><g transform="translate(56.349,58.476)"><path d="m0 0c1.262 0 2.282 0.992 2.282 2.765 0 1.786-1.02 2.778-2.282 2.778s-2.283-0.992-2.283-2.778c0-1.773 1.021-2.765 2.283-2.765m0 6.607c2.325 0 3.558-1.688 3.558-3.842 0-2.141-1.233-3.828-3.558-3.828s-3.558 1.687-3.558 3.828c0 2.154 1.233 3.842 3.558 3.842" fill="#fff"/></g><g transform="translate(60.972,64.913)"><path d="m0 0h1.134v-1.546h0.029c0.581 1.177 1.389 1.759 2.693 1.716v-1.276c-1.942 0-2.651-1.106-2.651-2.963v-3.261h-1.205v7.33z" fill="#fff"/></g><g transform="translate(69.592,67.706)"><path d="m0 0h6.99v-1.135h-5.643v-3.218h5.26v-1.134h-5.26v-3.502h5.685v-1.134h-7.032v10.123z" fill="#fff"/></g><g transform="translate(77.615,64.913)"><path d="m0 0h1.134v-1.163h0.029c0.51 0.908 1.332 1.333 2.381 1.333 1.929 0 2.524-1.106 2.524-2.68v-4.82h-1.205v4.963c0 0.893-0.567 1.474-1.489 1.474-1.46 0-2.169-0.978-2.169-2.297v-4.14h-1.205v7.33z" fill="#fff"/></g><g transform="translate(88.183,57.583)"><path d="m0 0h-1.29l-2.722 7.33h1.347l2.056-6.11h0.028l1.999 6.11h1.262l-2.68-7.33z" fill="#fff"/></g><path d="m91.661 64.913h1.205v-7.33h-1.205v7.33zm1.205 1.318h-1.205v1.475h1.205v-1.475z"/><g transform="translate(94.32,64.913)"><path d="m0 0h1.134v-1.546h0.029c0.581 1.177 1.389 1.759 2.693 1.716v-1.276c-1.942 0-2.651-1.106-2.651-2.963v-3.261h-1.205v7.33z" fill="#fff"/></g><g transform="translate(101.87,58.476)"><path d="m0 0c1.262 0 2.282 0.992 2.282 2.765 0 1.786-1.02 2.778-2.282 2.778s-2.283-0.992-2.283-2.778c0-1.773 1.021-2.765 2.283-2.765m0 6.607c2.325 0 3.558-1.688 3.558-3.842 0-2.141-1.233-3.828-3.558-3.828s-3.559 1.687-3.559 3.828c0 2.154 1.234 3.842 3.559 3.842" fill="#fff"/></g><g transform="translate(106.51,64.913)"><path d="m0 0h1.134v-1.163h0.029c0.51 0.908 1.332 1.333 2.381 1.333 1.929 0 2.524-1.106 2.524-2.68v-4.82h-1.205v4.963c0 0.893-0.567 1.474-1.489 1.474-1.46 0-2.169-0.978-2.169-2.297v-4.14h-1.205v7.33z" fill="#fff"/></g><g transform="translate(114.04,64.913)"><path d="m0 0h1.134v-1.077h0.029c0.538 0.822 1.361 1.247 2.367 1.247 0.893 0 1.716-0.354 2.014-1.247 0.496 0.779 1.361 1.247 2.296 1.247 1.46 0 2.439-0.61 2.439-2.126v-5.374h-1.205v4.807c0 0.907-0.242 1.63-1.418 1.63-1.163 0-1.914-0.738-1.914-1.871v-4.566h-1.205v4.807c0 0.949-0.298 1.63-1.375 1.63-1.432 0-1.957-1.319-1.957-1.871v-4.566h-1.205v7.33z" fill="#fff"/></g><g transform="translate(130.88,61.95)"><path d="m0 0c-0.057 1.149-0.922 2.07-2.113 2.07-1.262 0-2.013-0.95-2.098-2.07h4.211zm1.162-2.041c-0.326-1.617-1.488-2.496-3.133-2.496-2.339 0-3.445 1.616-3.516 3.857 0 2.197 1.446 3.813 3.445 3.813 2.595 0 3.389-2.424 3.318-4.196h-5.487c-0.043-1.276 0.681-2.41 2.283-2.41 0.992 0 1.687 0.482 1.899 1.432h1.191z" fill="#fff"/></g><g transform="translate(133.14,64.913)"><path d="m0 0h1.134v-1.163h0.029c0.51 0.908 1.332 1.333 2.381 1.333 1.928 0 2.524-1.106 2.524-2.68v-4.82h-1.205v4.963c0 0.893-0.567 1.474-1.489 1.474-1.46 0-2.169-0.978-2.169-2.297v-4.14h-1.205v7.33z" fill="#fff"/></g><g transform="translate(142.31,64.913)"><path d="m0 0h1.46v-1.063h-1.46v-4.551c0-0.553 0.156-0.652 0.907-0.652h0.553v-1.064h-0.921c-1.248 0-1.744 0.255-1.744 1.602v4.665h-1.248v1.063h1.248v2.197h1.205v-2.197z" fill="#fff"/></g><g transform="translate(49.656,52.813)"><path d="m0 0h6.649v-1.134h-5.302v-3.219h4.65v-1.134h-4.65v-4.636h-1.347v10.123z" fill="#fff"/></g><g transform="translate(60.167,43.583)"><path d="m0 0c1.262 0 2.283 0.992 2.283 2.765 0 1.786-1.021 2.778-2.283 2.778s-2.283-0.992-2.283-2.778c0-1.773 1.021-2.765 2.283-2.765m0 6.607c2.325 0 3.559-1.688 3.559-3.842 0-2.141-1.234-3.828-3.559-3.828s-3.559 1.687-3.559 3.828c0 2.154 1.234 3.842 3.559 3.842" fill="#fff"/></g><g transform="translate(68.011,43.583)"><path d="m0 0c1.262 0 2.283 0.992 2.283 2.765 0 1.786-1.021 2.778-2.283 2.778s-2.283-0.992-2.283-2.778c0-1.773 1.021-2.765 2.283-2.765m0 6.607c2.325 0 3.558-1.688 3.558-3.842 0-2.141-1.233-3.828-3.558-3.828s-3.559 1.687-3.559 3.828c0 2.154 1.234 3.842 3.559 3.842" fill="#fff"/></g><g transform="translate(75.841,43.583)"><path d="m0 0c1.616 0 2.24 1.39 2.24 2.765 0 1.446-0.652 2.778-2.311 2.778-1.644 0-2.197-1.403-2.197-2.835 0-1.375 0.708-2.708 2.268-2.708m3.403-0.893h-1.205v0.992h-0.029c-0.397-0.808-1.332-1.162-2.339-1.162-2.254 0-3.374 1.786-3.374 3.856s1.106 3.814 3.346 3.814c0.751 0 1.829-0.284 2.367-1.149h0.029v3.772h1.205v-10.123z" fill="#fff"/></g><g transform="translate(89.097,50.672)"><path d="m0 0c0 0.581-0.439 1.077-1.163 1.077-0.567 0-1.162-0.339-1.162-1.077 0-0.609 0.539-1.205 0.978-1.758 0.581 0.369 1.347 0.907 1.347 1.758m-1.744-3.091c-0.949-0.538-1.758-1.077-1.758-2.282 0-1.021 0.95-1.716 1.928-1.716 0.922 0 1.659 0.468 2.155 1.205l-2.325 2.793zm2.992-3.629c-0.61-0.95-1.758-1.432-2.864-1.432-2.736 0-3.162 1.942-3.162 2.765 0 1.588 1.078 2.381 2.368 3.062-0.567 0.808-1.12 1.347-1.12 2.382 0 1.106 0.822 2.084 2.283 2.084 1.261 0 2.452-0.695 2.452-2.07 0-1.205-0.921-2.07-1.9-2.623l1.829-2.226c0.185 0.496 0.298 1.035 0.326 1.574h1.149c-0.099-1.191-0.256-1.602-0.681-2.495l1.971-2.283h-1.574l-1.077 1.262z" fill="#fff"/></g><g transform="translate(101.7,48.148)"><path d="m0 0c1.262 0 2.339 0.325 2.339 1.8 0 0.993-0.538 1.73-1.8 1.73h-3.346v-3.53h2.807zm-4.154 4.664h4.764c1.9 0 3.076-1.035 3.076-2.651 0-1.219-0.539-2.226-1.758-2.566v-0.029c1.177-0.227 1.418-1.091 1.517-2.084 0.085-0.992 0.029-2.098 0.596-2.793h-1.503c-0.383 0.412-0.17 1.503-0.369 2.496-0.141 0.992-0.383 1.829-1.687 1.829h-3.289v-4.325h-1.347v10.123z" fill="#fff"/></g><g transform="translate(112.78,42.69)"><path d="m0 0h-1.134v1.163h-0.029c-0.51-0.908-1.332-1.333-2.381-1.333-1.928 0-2.524 1.106-2.524 2.68v4.82h1.205v-4.962c0-0.893 0.567-1.475 1.489-1.475 1.46 0 2.169 0.979 2.169 2.297v4.14h1.205v-7.33z" fill="#fff"/></g><g transform="translate(114.22,50.019)"><path d="m0 0h1.134v-1.546h0.029c0.581 1.177 1.389 1.759 2.693 1.716v-1.276c-1.942 0-2.651-1.106-2.651-2.963v-3.261h-1.205v7.33z" fill="#fff"/></g><g transform="translate(123.23,46.475)"><path d="m0 0c-0.468-0.34-1.375-0.355-2.183-0.496-0.794-0.142-1.475-0.425-1.475-1.319 0-0.793 0.681-1.077 1.418-1.077 1.588 0 2.24 0.992 2.24 1.658v1.234zm1.956-3.757c-0.212-0.128-0.482-0.198-0.864-0.198-0.624 0-1.021 0.34-1.021 1.134-0.666-0.78-1.56-1.134-2.58-1.134-1.333 0-2.425 0.595-2.425 2.055 0 1.659 1.234 2.014 2.481 2.255 1.333 0.255 2.467 0.17 2.467 1.077 0 1.049-0.865 1.219-1.63 1.219-1.021 0-1.772-0.312-1.829-1.389h-1.205c0.071 1.815 1.474 2.452 3.105 2.452 1.318 0 2.75-0.297 2.75-2.013v-3.771c0-0.567 0-0.822 0.383-0.822 0.099 0 0.213 0.014 0.368 0.071v-0.936z" fill="#fff"/></g><path d="m126.08 52.813h1.2v-10.123h-1.2v10.123z"/><g transform="translate(134.75,46.872)"><path d="m0 0h3.431l-1.687 4.721h-0.028l-1.716-4.721zm1.007 5.94h1.488l3.956-10.123h-1.489l-1.106 3.049h-4.281l-1.135-3.049h-1.389l3.956 10.123z" fill="#fff"/></g><g transform="translate(142.07,48.956)"><path d="m0 0h-1.234v1.063h1.234v1.092c0 1.191 0.709 1.815 2.028 1.815 0.226 0 0.552-0.043 0.779-0.113v-1.05c-0.212 0.071-0.468 0.1-0.68 0.1-0.582 0-0.922-0.185-0.922-0.822v-1.022h1.418v-1.063h-1.418v-6.266h-1.205v6.266z" fill="#fff"/></g><g transform="translate(146.33,48.956)"><path d="m0 0h-1.233v1.063h1.233v1.092c0 1.191 0.709 1.815 2.028 1.815 0.226 0 0.552-0.043 0.779-0.113v-1.05c-0.212 0.071-0.468 0.1-0.68 0.1-0.581 0-0.922-0.185-0.922-0.822v-1.022h1.418v-1.063h-1.418v-6.266h-1.205v6.266z" fill="#fff"/></g><g transform="translate(154.18,46.475)"><path d="m0 0c-0.468-0.34-1.375-0.355-2.183-0.496-0.794-0.142-1.475-0.425-1.475-1.319 0-0.793 0.681-1.077 1.418-1.077 1.588 0 2.24 0.992 2.24 1.658v1.234zm1.956-3.757c-0.212-0.128-0.482-0.198-0.864-0.198-0.624 0-1.021 0.34-1.021 1.134-0.666-0.78-1.559-1.134-2.58-1.134-1.333 0-2.424 0.595-2.424 2.055 0 1.659 1.233 2.014 2.48 2.255 1.333 0.255 2.467 0.17 2.467 1.077 0 1.049-0.864 1.219-1.63 1.219-1.021 0-1.772-0.312-1.829-1.389h-1.205c0.071 1.815 1.474 2.452 3.105 2.452 1.318 0 2.75-0.297 2.75-2.013v-3.771c0-0.567 0-0.822 0.383-0.822 0.099 0 0.213 0.014 0.368 0.071v-0.936z" fill="#fff"/></g><path d="m157.03 50.019h1.2v-7.33h-1.2v7.33zm1.2 1.319h-1.2v1.475h1.2v-1.475z"/><g transform="translate(159.69,50.019)"><path d="m0 0h1.134v-1.546h0.029c0.581 1.177 1.389 1.759 2.693 1.716v-1.276c-1.942 0-2.651-1.106-2.651-2.963v-3.261h-1.205v7.33z" fill="#fff"/></g><g transform="translate(165.06,45.001)"><path d="m0 0c0.042-1.077 0.978-1.418 1.971-1.418 0.751 0 1.772 0.17 1.772 1.092 0 0.936-1.191 1.092-2.396 1.361-1.191 0.269-2.396 0.667-2.396 2.07 0 1.474 1.46 2.084 2.736 2.084 1.616 0 2.906-0.51 3.006-2.297h-1.206c-0.084 0.936-0.907 1.234-1.701 1.234-0.723 0-1.559-0.199-1.559-0.936 0-0.865 1.276-1.007 2.396-1.276 1.205-0.269 2.396-0.666 2.396-2.084 0-1.744-1.631-2.311-3.119-2.311-1.645 0-3.034 0.666-3.105 2.481h1.205z" fill="#fff"/></g></g></g><g transform="matrix(.64958 0 0 -.64958 30.376 544)" fill="#fff"><g transform="translate(76.263,810.12)"><path d="m0 0c-1.0975-1.2454 1.2932-1.3955 0 0z" fill="#fff"/></g><g transform="translate(80.777,810.12)"><path d="m0 0c1.0968-1.2452-1.2922-1.3956 0 0z" fill="#fff"/></g><g transform="translate(73.666,810.32)"><path d="m0 0c1.2594 0.61358-1.1662 0.62875 0 0z" fill="#fff"/></g><g transform="translate(73.87,809.88)"><path d="m0 0c-0.622 1.1622-0.50219-1.1185 0 0z" fill="#fff"/></g><g transform="translate(74.018,809.14)"><path d="m0 0c-0.66708 1.224-0.53239-1.1525 0 0z" fill="#fff"/></g><g transform="translate(75.354,811.77)"><path d="m0 0c1.2583 0.61354-1.1658 0.6281 0 0z" fill="#fff"/></g><g transform="translate(74.596,811.54)"><path d="m0 0c1.1387 0.68174-1.1146 0.54043 0 0z" fill="#fff"/></g><g transform="translate(74,811.02)"><path d="m0 0c1.2611 0.61377-1.1672 0.62874 0 0z" fill="#fff"/></g><g transform="translate(76.15,811.7)"><path d="m0 0c1.2015 0.67809-1.1317 0.58701 0 0z" fill="#fff"/></g><g transform="translate(76.906,811.48)"><path d="m0 0c1.2477 0.65317-1.1508 0.53337 0 0z" fill="#fff"/></g><g transform="translate(77.618,811.15)"><path d="m0 0c1.1272 0.65472-1.111 0.60778 0 0z" fill="#fff"/></g><g transform="translate(83.059,810.62)"><path d="m0 0c0.66122-1.2047 0.61843 1.1507 0 0z" fill="#fff"/></g><g transform="translate(83.466,810.19)"><path d="m0 0c-1.139-0.64308 1.0736-0.50685 0 0z" fill="#fff"/></g><g transform="translate(83.317,809.45)"><path d="m0 0c-1.1394-0.64371 1.0755-0.50526 0 0z" fill="#fff"/></g><g transform="translate(81.677,811.77)"><path d="m0 0c1.2441 0.64245-1.1496 0.5228 0 0z" fill="#fff"/></g><g transform="translate(82.435,811.54)"><path d="m0 0c1.2532 0.67586-1.2142 0.59462 0 0z" fill="#fff"/></g><g transform="translate(83.031,811.02)"><path d="m0 0c1.1696 0.64961-1.1545 0.50976 0 0z" fill="#fff"/></g><g transform="translate(80.88,811.7)"><path d="m0 0c1.139 0.6417-1.0731 0.50661 0 0z" fill="#fff"/></g><g transform="translate(80.124,811.48)"><path d="m0 0c1.2457 0.6501-1.1484 0.53559 0 0z" fill="#fff"/></g><g transform="translate(79.108,811.45)"><path d="m0 0c0.64245-1.2441 0.5228 1.1496 0 0z" fill="#fff"/></g><g transform="translate(77.995,809.8)"><path d="m0 0c1.0603 0.6267-0.47335 1.6987 0 0.24637v-0.24637z" fill="#fff"/></g><g transform="translate(79.037,811.21)"><path d="m0 0c-1.0376-0.53547 0.38205-1.8081 0-0.34332v0.34332z" fill="#fff"/></g><g transform="translate(78.32,812.66)"><path d="m0 0c0.40626 1.7083-1.4047-0.53838 0 0z" fill="#fff"/></g><g transform="translate(78.716,812.66)"><path d="m0 0c1.4577-0.41643-0.46771 1.3001 0 0z" fill="#fff"/></g><g transform="translate(77.579,812.28)"><path d="m0 0c-0.07435-1.7513 2.8483 0.48614 0.60845 0h-0.60845z" fill="#fff"/></g><g transform="translate(79.04,813.55)"><path d="m0 0c-0.99813 0.41708 1.2791 0.77446-0.03877 0.98227-0.12024 1.3832-2.3778-0.50085-0.69265-0.65106-0.72468-0.71771 0.48952-0.15924 0.73142-0.33121z" fill="#fff"/></g><g transform="translate(80.163,792.6)"><path d="m0 0c-2.0006 0.48836-4.3645 1.5464-5.2561 3.4647-0.235 2.0597-3.3866 1.4032-2.2108-0.589 0.9104-2.1085 2.6958-3.6032 4.9692-3.9803 1.0428-0.3732 3.9311-0.5403 3.5864 1.0099-0.36964 0.17554-0.72692-0.0917-1.0887 0.09471zm-3.518 1.444c-1.4623 0.4755-1.047-3.1177-1.8821-0.89546-0.2171 0.75676 1.5906 2.0148 1.8825 0.89106m0.621-1.827c-1.6891 1.0686 1.5244 0.73466 0 0zm1.799-0.556c-1.5803 1.0796 1.5038 0.72974 0 0z" fill="#fff"/></g><g transform="translate(79.564,789.77)"><path d="m0 0c0.05282 1.8551-2.3663 1.4-2.2762-0.08924-0.9589-1.402 1.7523-3.4211 2.3378-1.3323 0.53588 0.42646 0.96788 1.2586-0.06162 1.4215zm-1.038-2.507c-1.1364 0.6398 1.0758 0.5738 0 0zm1.368 1.448c-1.0439-0.7139-2.4064-1.0102-2.7245 0.60529 0.2743 0.6297 1.3408-0.93149 0.9713 0.3721-0.1096 1.2769 1.2713-0.10502 0.89528-0.61605 0.48352 0.56503 1.253 0.66566 0.85792-0.36134z" fill="#fff"/></g><g transform="translate(93.051,788.39)"><path d="m0 0c-3.3979-0.27819-5.3957 3.3653-8.6554 3.6263-1.8676-0.1033-3.4216-3.0316-1.6156-4.2382-0.507-1.587-3.6-0.91195-5.195-1.0998-1.028 0.1715-3.45-0.096-3.38 1.1091 2.169 1.2068 0.14 4.3462-1.878 4.2122-2.174-0.1864-3.614-2.124-5.528-2.9729-0.739-0.80041-3.744-0.24047-1.891-1.4437 1.773-1.5063 3.917-0.31782 5.366 0.97317 0.744 0.60098 2.973 1.9093 2.11-0.10197-0.182-2.1773 1.589-4.1191 3.764-4.1422 2.002-0.2524 4.044-0.068 6.031 0.1667 1.8482 0.7425 3.2833 3.2532 2.1263 5.0951 0.7317 0.3981 2.5424-1.1423 3.5391-1.761 1.3534-1.2036 3.4192-1.3596 4.6253 0.13161 0.18954 0.15388 0.38083 0.30598 0.5813 0.44554z" fill="#fff"/></g><g transform="translate(84.97,799.15)"><path d="m0 0c-1.8729 1.3593-0.74203 4.3191-2.7786 5.6423-0.9421 1.2564 1.3599 3.6708 0.3252 4.0946-0.014-1.1077-0.9306 0.4361-0.5324-0.8976 0.7358-1.1936-2.1041-0.086-0.5316 0.4035-0.2835 0.5925-1.2411 0.018-1.535 0.2247 0.3368-0.4726 0.709-1.3191-0.4035-0.9389-0.4428 0.1196-0.872 0.9232-0.081 0.3354 0.5912 0.932-1.0656 1.0019-0.5223 0.8798 0.7845 0.9392-1.9353 0.6622-0.6342-0.1378-0.9818 0.768-0.454-1.0901-0.041-0.7093-0.2322-0.7634-2.3627-0.035-1.0712 0.2788-0.1022 0.9225-1.0412-0.1619-1.423 0.3904-0.784-0.7283 1.2803-0.7137-0.02-1.1187-1.2768-0.5845-0.1995 1.5038-1.1288 0.6622 0.03 1.2466-0.968 0.02-0.173-0.5807 1.3725-1.841 0.08-3.6977-1.388-4.9346-0.499-1.5876 0.612-4.0411 2.3954-4.2699 0.9956 0.1702 2.0145 0.0713 3.0229 0.0973v-4.672c-0.865-1.0383 2.3836-0.368 0.5857-0.025-0.8325 1.2156-0.069 2.7512-0.348 4.1014-0.1398 1.0385 1.2168 0.439 1.8484 0.5961h2.3589c0.1798-2.1922-1.6182-3.7672-2.9985-5.2012 1.1394-1.52 3.218-0.3082 3.9368 1.0221 0.76244 1.4412 1.2079 3.118 1.1374 4.7571zm-6.523-0.323h-4.297c-0.07 2.4016 1.7598 4.988 4.297 5.051v-5.051zm0.074 7.151c-0.9749 0.4509-3.3097-1.5432-3.1794 0.1603 2.0066 0.748 4.3621 0.9133 6.3329-0.03 0.6341-1.9147-2.5669 0.4876-3.1555-0.1297m0.178-7.151v5.046c2.4945-0.1288 4.2648-2.6752 4.196-5.046h-4.196z" fill="#fff"/></g><g transform="translate(82.233,799.65)"><path d="m0 0c-0.2795 1.4197-1.5886 3.5612-2.9739 3.3514-0.1648-1.1881-0.7492-3.9511 1.0276-3.6755 0.5205 0.0457 1.8768-0.4732 1.9463 0.32409zm-1.186 2.173c1.1711-0.8396 0.9216-3.0826-0.7814-2.2806-1.7041-0.30674-1.2619 4.4125 0.1348 2.9286 0.2227-0.2082 0.4183-0.4436 0.6466-0.646" fill="#fff"/></g><g transform="translate(81.498,800.11)"><path d="m0 0c-0.0999 0.33065-0.72902 1.6592-0.3471 0.58515-0.39057 0.69925-0.8012 1.728-1.2484 1.1258-0.7082 0.4893 0.4538-1.0578-0.3811-1.0518 1.2463 0.57125 0.6507-0.72397 0.6817-0.63942 0.63519 0.70032 1.3767-0.65096 1.2949-0.01973z" fill="#fff"/></g><g transform="translate(77.963,797.74)"><path d="m0 0c-1.334 1.3757-4.1833-0.41174-2.074-1.7803 0.6715-1.2426 2.5192-1.7494 1.9478 0.2934 8e-3 0.49787 0.05893 0.99393 0.12615 1.4869zm-2.336-0.177c0.4579-0.45892 2.0029-2.8437 0.4765-1.4981-0.3448 0.4104-0.5484 0.95933-0.4765 1.4981zm1.616-2.041c-0.6852 0.5768-1.6203 2.769-0.3815 1.0461 0.24165-0.2819 0.56306-0.651 0.3815-1.0461zm0.105 0.652c-0.7308 0.3665-0.9926 2.1455-0.11328 0.75967 0.11404-0.23137 0.19448-0.50367 0.11328-0.75967zm0.244 1.593c0.0842-1.9972-1.2445 0.88008 0 0z" fill="#fff"/></g><g transform="translate(77.688,802.3)"><path d="m0 0c0.75827 0.15647-0.92864 1.0764 0.30534 0.98455-1.1949 0.26765 0.36381-1.713-0.91402-0.56166-0.64062-0.026-0.83462-0.54202-0.98282-0.77497 0.2914 0.23453 2.6623-0.39509 1.5782 0.35208m-0.936 0.34303-6e-3 -2e-3 6e-3 2e-3zm0.221 0.054c0.22478 0.15397 0.0146-0.21832 0 0zm-0.062 0.033c-0.16335-0.12871-0.0264 0.26011 0 0zm-0.095-0.207c-0.0878 0.36903 0.31193-0.11056 0 0z" fill="#fff"/></g><g transform="translate(78.112,801.16)"><path d="m0 0c-0.61754 0.10058-1.4305 0.25251-0.24941 0.29774-0.84029 0.45459-1.4293-0.51418-0.25062-0.25836-0.67417-0.4695-2.5188 0.97492-2.1782-0.53612 0.6895 0.15279 3.0367-0.30853 2.4354 0.39757l0.18725 0.0667 0.0288 0.03247m-2.345-0.172v4e-3 -4e-3zm0.476 0.428c0.2625 0.17945 0.015-0.256 0 0zm-0.072 0.037c-0.1873-0.14367-0.037 0.30659 0 0zm-0.112-0.242c-0.024 0.42645 0.3116-0.12241-0.01 0m0.246-0.524v4e-3 -4e-3z" fill="#fff"/></g><g transform="translate(77.979,799.84)"><path d="m0 0c-0.85414 0.14093-1.4025 0.1482-0.32402 0.33177-0.93908 0.12653-1.3942-0.31024-0.19884-0.36714-0.76514-0.17261-2.6574 0.75653-2.2536-0.32783 0.051-0.34557 2.0574-4e-3 2.6661-0.01-0.59037 0.41181-0.22257 0.1356 0.11038 0.37308zm-2.095 0.232c0.2523 0.16831 0.02-0.24909 0 0zm-0.069 0.037c-0.1845-0.13799-0.027 0.2901 0 0zm-0.105-0.23c-0.048 0.40718 0.3172-0.10916 0 0z" fill="#fff"/></g><g transform="translate(82.043,797.64)"><path d="m0 0c-0.50675 0.76056-1.903 0.27539-0.36414 0.57432-0.67136 0.30257-1.6957-0.33337-0.23398-0.27344 0.1734-0.45543-2.9882 0.94712-1.9479-0.37628-0.8684-0.30595 2.4865-0.04944 2.5664 0.0754m-2.059 0.53197c0.2524 0.16794 0.013-0.24511 0 0zm-0.069 0.036c-0.1801-0.14478-0.033 0.28884 0 0zm-0.107-0.231c-0.063 0.40268 0.3423-0.10283 0.01 0m-0.052 0.229-0.01-3e-3 0.01 3e-3z" fill="#fff"/></g><g transform="translate(80.761,796.92)"><path d="m0 0c1.1424-0.17394 0.27846 0.40999-0.20184-0.19905 1.6316-0.31647-2.1105 0.8197-1.2435-0.53936 0.64264 0.0154 3.2656-0.0273 1.5455 0.68383-0.58808-0.16935-0.27961 0.05458-0.10019 0.05458zm-0.885 0.018c-0.1791-0.12553-0.0205 0.2755 0 0zm0.054-0.165c-0.15382-0.31831-0.15545 0.36906 0 0zm0.047 0.061c-0.2184 0.14786 0.24462 0.01157 0 0z" fill="#fff"/></g><g transform="translate(80.474,795.66)"><path d="m0 0c1.4768-0.08437-0.61383 0.35338 0.20839-0.30683-0.80408 0.42231-2.1375 0.18892-1.2873-0.59495 0.84845 0.2318 1.4598-0.12382 1.5285 0.81833-0.0761 0.24264-0.87721-0.24641-0.44963 0.08345zm-0.664-0.03c0.2232 0.16115 0.0214-0.21744 0 0zm-0.06 0.03c-0.17101-0.11987-0.0217 0.26423 0 0zm-0.097-0.205c-0.0905 0.36935 0.31389-0.10734 0 0z" fill="#fff"/></g><g transform="translate(65.817,811.43)"><path d="m0 0c-0.54908 0.97678-0.49319-0.93028 0 0z" fill="#fff"/></g><g transform="translate(65.74,812.02)"><path d="m0 0c-0.54908 0.97678-0.49319-0.93028 0 0z" fill="#fff"/></g><g transform="translate(65.865,812.28)"><path d="m0 0c0.97801 0.54747-0.92843 0.49624 0 0z" fill="#fff"/></g><g transform="translate(66.449,812.31)"><path d="m0 0c0.97752 0.54709-0.92819 0.49601 0 0z" fill="#fff"/></g><g transform="translate(68.941,812.72)"><path d="m0 0c1.0817-0.29986-0.31344 1.007 0 0z" fill="#fff"/></g><g transform="translate(68.892,813.19)"><path d="m0 0c0.30122 1.0809-1.0063-0.31052 0 0z" fill="#fff"/></g><g transform="translate(68.31,813.28)"><path d="m0 0c0.30071 1.0835-1.0064-0.30931 0 0z" fill="#fff"/></g><g transform="translate(67.814,812.91)"><path d="m0 0c0.29867 1.0789-1.008-0.31313 0 0z" fill="#fff"/></g><g transform="translate(66.415,813.21)"><path d="m0 0c0.71282-1.4878 1.3794 0.33394 0.18304 0.3344-0.22215-0.23 0.41767-0.40294-0.18304-0.3344z" fill="#fff"/></g><g transform="translate(68.955,812.53)"><path d="m0 0c0.31744-1.5332-1.0831 0.63628-0.71579-0.86984-0.17747-0.87376-0.67161 1.2394-1.0889-0.10962 0.94896-0.35224-0.4154-0.60554-0.7584 0.0349 0.625-1.0126-0.2382-0.4723-0.466-0.6605 0.8971-1.0715 3.6511 0.2024 3.1902 1.4966-0.0501 0.03003-0.11115 0.07878-0.16108 0.1085z" fill="#fff"/></g><g transform="translate(73.768,798.57)"><path d="m0 0c0.06406 1.4462-2.3775 3.3119-2.2019 3.8168 1.4467-0.39 2.2019 2.0989 1.2167 3.0022-0.13751 0.948-1.1082 1.4936-0.0577 1.6048-0.3039 0.6461-1.9121 1.7462-0.4283 1.2157-0.3167 0.7595-1.3365 1.5855-1.0202 1.9985-0.9188 2.384-3.6053 0.16-5.1422-0.383-0.8919-0.638-0.5258-2.6432-0.4283-3.0912 1.2044 1.9162-0.6628-3.1218 0.7555-1.3944 0.1225 0.6748 0.5863 1.646 0.3436 0.3549-0.5279-0.8004 0.2033-2.3545 0.6417-0.7946 0.6101 0.2202-0.5132-1.8555-0.6904-2.4246-0.8391-1.8272-1.791-3.6747-3.3105-5.0351-2.456-0.3648-1.049 3.2711 0.5314 3.5874 1.1163 0.8857 2.0772 3.5161-0.01 3.7691-1.1908 0.1987-2.9338-1.1813-2.5968-2.3199 1.959 1.0846-2.566-2.1933-0.215-1.2524 1.222 0.6592 2.6445 1.5665 2.8579 3.0598 2.0217-1.6684-1.2659-3.2833-2.0319-4.6679-0.45-1.0709-1.021-2.7787 0.46-3.11-1.139-0.9724 1.5205-0.3799 1.6359 0.5749 0.3893 0.62779 1.6089 2.487 0.8724 0.72329-0.4854-1.5682-0.8979-3.4974-2.5733-4.2052-0.528-0.8031-0.135-2.3735 0.399-2.0247-0.477-0.9574 0.641-1.3838 0.663-1.5525 0.3626-1.6639 2.7003 0.095 3.3677 0.269 0.2886 1.5274-3.5487 0.05-2.9175 2.2869 0.3598 2.1027 3.8113 1.9371 3.6361 4.3234-0.2823 1.4371 1.3431 1.1795 0.7415-0.019-0.6388-1.1163-0.2738-3.0633 0.8001-2.8504 0.7882-1.199 3.288-1.8611 4.0802-0.3084-1.3259 0.4005-4.968 0.9394-3.1324 2.9153 1.3694 1.2843-0.2674 2.3887-1.0387 3.1656 0.3086 0.2777 1.9591 0.7958 1.8086 0.5028 0.222-0.7894 0.9554 0.5033 0.7827-0.528 1.1658-0.63215-0.8431-2.0822 1.0415-2.1246 0.083-0.0129 0.68393 0.42344 1.1552 0.0789 0.16959 0.24964 0.0739 0.57726 0 0.83668zm-6.362 10.174c-1.5809 0.352 1.5451 1.087 0.07 0.02l-0.07-0.03 2e-4 0.01zm2.175-2.305c-0.8198 0.1227-1.3565 2.0215-1.4381 2.145 0.8879 0.626 1.6904 0.342 1.0865-0.5838 0.2417-0.479 1.2462-1.1092 0.3516-1.5632m0.068 3.187c-1.8119-0.315 1.2203 1.817 0 0z" fill="#fff"/></g><g transform="translate(95.226,793.16)"><path d="m0 0c0.21382-2.3795 3.3635 0.96412 0.88422 0.9482-0.47138-0.0385-0.90683-0.45931-0.88422-0.9482zm0.242 0c0.52127 2.0118 1.9302-1.358 0.37347-0.49752-0.17944 0.13484-0.37923 0.24698-0.37347 0.49752z" fill="#fff"/></g><g transform="translate(91.694,792.29)"><path d="m0 0c-1.0928-1.6425 2.6408-0.54878 0.56661 0.1079-0.20987 0.0497-0.3765-0.03001-0.56661-0.1079zm0.429-0.842c-1.6384 1.1648 1.7926 0.31536 0 0z" fill="#fff"/></g><g transform="translate(86.481,805.57)"><path d="m0 0c-1.1579-1.9657 2.4321 0.32374 0 0zm-0.052-0.554c0.36084 1.5016 1.0488-0.7628 0 0z" fill="#fff"/></g><g transform="translate(90.583,793.87)"><path d="m0 0c-1.2028-1.6594 2.3103-0.66272 0.50664 0.08171-0.16508 0.15044-0.37348 0.03296-0.50664-0.08171zm0.368-1.074c-1.3786 1.1238 1.4492 0.97296 0 0zm-6e-3 -0.244h-1e-3 1e-3z" fill="#fff"/></g><g transform="translate(85.951,801.51)"><path d="m0 0c-1.4821-1.2608 2.376-1.2481 0.59505-0.05358-0.19154 0.10978-0.38619 0.0799-0.59505 0.05358zm0.189-0.925c-1.2263 1.264 1.3142 0.31904 0.2861-0.0217l-0.2861 0.0217z" fill="#fff"/></g><g transform="translate(95.898,802.49)"><path d="m0 0c0.59063-1.5591 1.5462-0.43887 0.53761 0.5278-1.3914 1.9542-4.759-0.55135-2.8881-2.3335 0.9177-1.0401 3.6823-3.3196 1.4065-4.2615-1.2744 0.3227-2.4872 2.0975-1.4193 3.0933-0.1486 1.0452-1.1269 0.6303-1.548 0.3059-1.7128 1.5861 0.1554 3.1643 0.9365 4.5807 0.9068-0.6702-0.087 1.9638 1.0386 1.2804 0.1749 2.0889-0.8233 4.37-2.964 4.9391-0.4744 0.7564-1.0222 0.5523-1.3489 0.4173-1.2549 0.8798-2.036 2.2935-3.3629 3.0845 0.7651-1.42 2.5124-2.7875 2.9041-4.0634-0.8205-0.2396-3.0179-1.8016-1.818-2.1139 1.3718 0.1571-0.6483-0.6381 0.5073-1.0191 0.2629-0.177 1.1489 1.0931 2.0421 0.8347 0.9043-0.2423 1.3596 1.7091 1.1502 0.207-0.8031-1.5881-3.616-1.2441-3.5521-3.5227-0.4259-1.1939-1.4115-0.8003-1.8016 0.011-0.595 0.5262-3.057 0.6822-1.585-0.2958 1.011-0.2627 1.64-2.093 0.08-1.9318-0.879-1.4717 1.8684-3.9629 2.2609-2.903 0.3223 0.4093-2.7849 1.7252-1.2329 2.5718 1.9934-0.0819 2.6088-2.5335 4.4429-2.9734-1.526-0.5536-3.4805-1.7153-1.9152-3.4566 0.021-1.9886-2.5307-0.9049-3.5257-2.036-1.072-0.4884 0.678-1.5292 1.039-0.3229 1.5788 0.5708 4.2059 0.4764 3.7867 2.8783 1.3881 1.6242 1.1424-1.6942 2.5628-1.8318 1.7829-0.6188 2.0059-2.5028 0.6862-3.7348-0.4106-0.672-0.3387-0.744-0.1205-0.855 0.6127-0.931 1.2474 1.124 1.7434 1.343-0.098 1.178 1.9845 0.339 1.0884 1.613-0.61805 0.6623-1.392-0.639-1.0268 0.6508-0.087 1.3455-2.256 1.7058-1.0221 3.2607 1.0498 1.4667 1.4944-2.7334 2.2669-0.9181-1.1585 0.3503 2.0415 0.249 0.73574 0.8044 1.2906 2.0015-1.2777 3.494-2.3486 4.8265-1.0238 1.1627 1.5022 3.0793 1.2389 1.2277-0.2178-1.0266 2.6909-2.4873 2.2725-1.3945-0.53165 0.3638-1.3656 0.71954-1.2515 1.5095zm-7.274 6.414c0.069 1.0572 1.7913 0.1316 0 0zm-2.496-5.126c-0.597-1.38-0.689 0.9173-0.077 0.2304l0.077-0.2304zm8.067-11.745c0.99069 1.7429 0.95587-1.282 0 0zm-1.695 7.794c1.1132 0.8256 0.2462-1.4643 0 0zm-4.634 5.259c-0.4705 0.8321 1.3488 1.2405 0.3772 0.3987 0.4334-1.1469 1.5319 1.55 1.3909-0.3149-0.9182-1.7118 1.367 1.1264 1.1009-0.4456-0.8146-0.6365 0.295-0.9539 0.4672-0.077 1.5309 0.3603-0.8513-2.0863 0.9275-1.0315 0.8903-0.024-1.0929-1.0032-1.5769-0.18719-0.9332 0.48879-1.6782 1.3194-2.6868 1.6574zm3.826-9.641c-1.8754-1.0105 0.3995 1.6666 0 0zm1.114 1.76c-1.8765-0.9993 0.4086 1.6637 0 0z" fill="#fff"/></g></g></svg>
