<?xml version="1.0" encoding="UTF-8"?>
<svg version="1.1" viewBox="0 0 250 91" xmlns="http://www.w3.org/2000/svg" xmlns:cc="http://creativecommons.org/ns#" xmlns:dc="http://purl.org/dc/elements/1.1/" xmlns:rdf="http://www.w3.org/1999/02/22-rdf-syntax-ns#">
<metadata>
<rdf:RDF>
<cc:Work rdf:about="">
<dc:format>image/svg+xml</dc:format>
<dc:type rdf:resource="http://purl.org/dc/dcmitype/StillImage"/>
<dc:title/>
</cc:Work>
</rdf:RDF>
</metadata>
<g transform="translate(0,-961.4)" fill="#fff">
<path d="m80.647 1041.9c-3.2471-0.7389-5.1148-3.0011-4.7393-5.7405 0.26338-1.9215 1.3185-3.2686 3.2036-4.0895 0.53749-0.234 1.0051-0.4423 1.0392-0.4628 0.0341-0.02-0.28569-0.3848-0.71059-0.8096-0.66275-0.6629-0.77254-0.9172-0.77254-1.7892 0-1.2575 0.40346-2.0663 1.4713-2.9493 0.66937-0.5534 0.76278-0.7182 0.4965-0.8759-1.1842-0.7006-1.8299-1.3737-2.4051-2.5067-0.56922-1.1213-0.65567-1.5262-0.65381-3.0611 0.0033-2.8579 1.1816-4.7655 3.6055-5.8377 1.2252-0.5418 2.1709-0.5747 8.8004-0.3044l3.7716 0.1537v0.634c0 0.5863-0.06149 0.634-0.81991 0.6358-0.45096 0-1.3142 0.061-1.9183 0.1339l-1.0984 0.1319 0.62478 1.2605c0.81826 1.651 0.98578 3.4251 0.48685 5.1561-0.29761 1.0324-0.60636 1.5227-1.5174 2.4099-1.4793 1.4403-2.6275 1.8379-5.3075 1.8379h-2.0382l-0.87457 0.8745c-0.48101 0.4812-0.88688 1.0223-0.9019 1.2026-0.19803 2.3764 0.1459 2.5512 5.3841 2.7367 4.5168 0.16 5.3463 0.3877 6.5546 1.7994 1.9589 2.2884 1.2929 6.2683-1.3408 8.0127-0.5726 0.3793-1.6848 0.8916-2.4716 1.1385-1.9074 0.5985-5.9059 0.7553-7.8686 0.3086zm7.4802-1.8612c2.3214-0.7171 3.4354-2.1346 3.4389-4.3762 0.0021-1.1014-0.6673-2.1994-1.6516-2.7101-0.71003-0.3685-1.3817-0.4542-4.1416-0.5283-4.0956-0.11-5.5069 0.1414-6.6645 1.1872-1.3668 1.2347-1.6509 3.4333-0.65528 5.0705 0.48408 0.796 1.8344 1.5449 3.2578 1.8067 1.5519 0.2856 4.7645 0.06 6.4162-0.4498zm-2.0303-15.762c2.1707-0.4655 3.2744-2.0436 3.2744-4.6813 0-3.2526-1.7124-4.9195-5.0537-4.9195-2.8202 0-4.6399 1.6453-4.9277 4.4554-0.38539 3.7625 2.5729 6.032 6.707 5.1454zm21.331 9.1146c-1.4794-0.4162-2.6051-1.6308-2.9344-3.1663-0.15138-0.7058-0.24453-3.8012-0.24453-8.126v-6.9859h-3.0887l0.1372-1.4212 2.9517-0.128v-4.5144l0.79941-0.1298c0.43968-0.072 0.88712-0.077 0.99432-0.011 0.10722 0.066 0.16643 1.1203 0.1316 2.3423l-0.0633 2.2217 5.7905 0.122v1.5052l-5.7515 0.122 0.0479 7.106c0.043 6.3671 0.0899 7.2009 0.45151 8.0196 0.59213 1.3407 1.3559 1.6598 3.7507 1.5667l1.9388-0.075-1.2e-4 0.6873c-7e-5 0.4365-0.13157 0.7376-0.36032 0.8254-0.81354 0.3122-3.4984 0.3354-4.5507 0.039zm10.705 0.015c-2.1762-0.7237-3.171-1.6552-3.7116-3.4754-0.42128-1.4185-0.41987-2.2029 7e-3 -3.6391 0.81532-2.7456 4.2193-4.4007 9.0504-4.4007 0.93467 0 2.1559-0.062 2.7138-0.139l1.0144-0.139v-1.2425c0-2.6221-1.1082-4.6851-2.8203-5.2502-1.3052-0.4307-4.1435-0.1822-6.1087 0.5349-0.88247 0.3219-1.6304 0.5532-1.662 0.5136-0.0316-0.039-0.16568-0.3923-0.29784-0.7839-0.23342-0.6919-0.2178-0.7216 0.54673-1.0411 2.6355-1.1011 6.4323-1.4082 8.5216-0.6892 1.3332 0.4588 2.7397 1.8543 3.1549 3.13 0.19172 0.5892 0.2999 3.1997 0.35947 8.6745l0.0852 7.8313-0.7255-0.069c-0.72136-0.069-0.72661-0.078-0.9152-1.5465l-0.18967-1.4769-1.3735 1.2848c-0.87078 0.8147-1.7617 1.4209-2.4341 1.6563-1.4284 0.5003-4.1027 0.6376-5.2148 0.2677zm5.6574-2.1998c1.4164-0.6929 2.6257-2.0995 2.9999-3.4893 0.13164-0.4889 0.25459-1.6799 0.27323-2.6468l0.0339-1.758-1.7492 0.055c-3.8931 0.122-6.5894 0.65-7.7193 1.5118-2.2162 1.6904-1.9985 5.3219 0.39473 6.5867 1.3917 0.7355 3.9704 0.6197 5.7667-0.2591zm-75.295-11.196v-13.25l5.5208 0.096c5.9512 0.1032 6.3263 0.1673 9.024 1.5349 2.5787 1.3073 4.6136 4.3227 5.2732 7.8146 0.41875 2.2164 0.30087 6.3879-0.2368 8.3803-1.2091 4.4804-4.2471 7.2858-8.9383 8.2541-1.569 0.3237-2.9479 0.4146-6.3246 0.4169h-4.3182zm10.57 11.072c2.0114-0.5142 3.296-1.2323 4.6347-2.59 2.2641-2.2966 3.32-6.4798 2.7386-10.849-0.51297-3.8547-2.2467-6.5593-5.0902-7.9405-1.9096-0.9275-3.2369-1.1644-7.3323-1.3081l-3.553-0.1246v23.241h3.4633c2.7241 0 3.821-0.091 5.1389-0.4287zm13.043-7.6611v-9.8389h1.7492v19.678h-1.7492zm24.707 0v-9.8389h1.9678v19.678h-1.9678zm37.169-4.2635v-14.103h1.7492v28.205h-1.7492zm-61.275-7.9368c-0.57324-0.07-0.60127-0.1282-0.60127-1.2608v-1.1881h1.7492v1.2755c0 0.8824-0.08419 1.2709-0.27331 1.2607-0.15032-0.011-0.54388-0.048-0.87457-0.087zm24.219-0.011c-0.0622-0.062-0.1131-0.6379-0.1131-1.2791v-1.1662h1.9678v1.2026c0 0.7979-0.0919 1.2139-0.27331 1.2367-0.82475 0.1032-1.4816 0.1054-1.5814 0.011zm-14.601-11.191c-3.4433-0.44103-6.1375-2.3507-7.4928-5.311-1.3795-3.013-1.3225-7.909 0.13011-11.18 0.56873-1.2809 2.1398-3.0229 3.3679-3.7343 2.8221-1.6349 7.7932-1.7565 10.741-0.26276 3.1597 1.6011 4.4624 4.2766 4.4624 9.1649v2.5779h-12.463v0.47274c0 0.82229 1.0238 2.2856 1.9057 2.7238 1.2041 0.5983 4.9118 0.5529 6.728-0.0826 0.72619-0.25395 1.3638-0.36921 1.432-0.25885 0.06757 0.10929 0.35134 1.1464 0.63057 2.3047 0.42253 1.7527 0.45739 2.1381 0.20783 2.2981-0.87486 0.56098-2.8963 1.1092-4.7585 1.2904-2.3573 0.2295-3.0801 0.229-4.8914 0zm4.7544-14.048c-0.20453-0.98111-0.66097-1.6399-1.4836-2.1414-1.7385-1.0601-3.8241-0.0521-4.3052 2.0818l-0.17371 0.77015h6.1107zm27.007 14.017c-2.8632-0.47313-5.464-2.3948-6.7864-5.0146-1.5998-3.1691-1.6384-8.2776-0.0856-11.353 1.7426-3.451 4.7012-5.1184 9.0585-5.1052 3.2607 0.0108 5.7719 0.9949 7.5343 2.955 3.7123 4.129 3.6358 12.066-0.15403 15.965-2.1332 2.1949-5.8031 3.1739-9.5667 2.5523zm3.4797-5.5347c1.2036-0.62243 1.9003-3.1778 1.6925-6.2078-0.16053-2.3413-0.75632-3.6632-1.8587-4.1237-1.6368-0.68401-3.2328 0.19661-3.7823 2.0867-0.37307 1.2834-0.37588 5.1281-4e-3 6.199 0.71052 2.0492 2.3278 2.8862 3.953 2.0458zm28.858 5.5629c-1.819-0.30763-3.2052-1.2371-3.9087-2.6209-0.70784-1.3922-0.88023-2.9766-0.88023-8.0896v-5.0072l-1.2572-0.0652-1.2572-0.0663v-5.2475l1.2572-0.0663 1.2572-0.0652v-5.3546l3.423-0.58331c1.8827-0.32088 3.5061-0.53194 3.6076-0.46926 0.10156 0.063 0.18458 1.535 0.18458 3.2716v3.1575h4.3729v5.466h-4.3729v4.5916c0 4.2999 0.0278 4.6193 0.43729 5.0288 0.54242 0.54236 2.3396 0.59526 3.717 0.10928 0.51125-0.18043 0.96638-0.32794 1.0114-0.32794s0.0818 1.1862 0.0818 2.636v2.636l-0.92924 0.40818c-0.95078 0.4177-3.799 0.89953-5.0446 0.85343-0.38212-0.014-1.1471-0.1021-1.6999-0.1957zm16.245-0.012c-1.5396-0.27043-2.2471-0.66343-3.2009-1.7777-1.2808-1.4964-1.4538-2.4782-1.502-8.5277l-0.0424-5.3131-1.2638-0.0663-1.2638-0.0652 0.1226-5.3346 1.089-0.0684c0.59895-0.038 1.1632-0.18531 1.2538-0.32783 0.0907-0.14273 0.16637-1.3663 0.16821-2.7191 2e-3 -1.3528 0.0661-2.4597 0.14304-2.4597 0.11581 0 2.8572-0.44341 6.1463-0.99414l0.7106-0.11891v6.5792h4.5915v5.4661h-4.6161l0.0669 4.569c0.0605 4.1314 0.10678 4.6132 0.48344 5.0289 0.51257 0.56572 2.1431 0.62383 3.7576 0.13403 0.59033-0.17901 1.1009-0.32663 1.1347-0.32793 0.0338 0 0.0338 1.2029 0 2.676l-0.0614 2.6784-1.4212 0.4714c-1.6623 0.55143-4.6478 0.78743-6.2962 0.49793zm17.827 0.015c-5.4188-0.69413-8.463-4.5479-8.463-10.713 0-3.825 0.95144-6.4356 3.0554-8.3836 3.6189-3.3504 10.679-3.327 14.156 0.0467 1.7981 1.7449 2.4601 3.793 2.4601 7.6109v2.6934h-12.463l3e-3 0.49196c7e-3 0.85315 0.92864 2.1754 1.8549 2.659 1.2252 0.63959 4.8675 0.617 6.7752-0.0424 0.80817-0.27927 1.36-0.36997 1.4421-0.23713 0.28826 0.46644 1.0859 4.4192 0.92177 4.5682-0.50034 0.45428-2.9998 1.1285-4.852 1.3087-2.3573 0.2295-3.0801 0.229-4.8914 0zm4.7544-14.048c-0.44556-2.137-2.6584-3.2104-4.4128-2.1406-0.71799 0.43776-1.2056 1.1892-1.4599 2.2498l-0.14417 0.60135h6.1651zm10.656 13.768c-0.27434-0.1591-0.44653-0.358-0.38263-0.442s0.0541-0.1065-0.0219-0.051c-0.29067 0.2139-0.97163-0.36998-1.3917-1.1935-0.72794-1.4269-0.46284-3.9319 0.41701-3.9403 0.27733 0 0.28784-0.0413 0.052-0.19052-0.22538-0.14285-0.1214-0.32001 0.43827-0.74703 1.4071-1.0732 2.8482-1.2549 4.2306-0.53345 0.85574 0.44667 1.9428 1.5975 1.7711 1.8752-0.074 0.11982-0.0332 0.25147 0.0906 0.29285 0.12384 0.0413 0.28506 0.44406 0.35826 0.89519 0.19495 1.2014-0.41869 2.6189-1.5067 3.4807-0.74914 0.5933-1.1104 0.7193-2.2252 0.77563-0.82366 0.041-1.521-0.043-1.8297-0.22183zm-147.41-14.047v-14.147l6.1767 0.11274c6.795 0.12392 8.669 0.4043 10.957 1.6393 1.7906 0.96631 3.7414 2.9425 4.6012 4.6611 1.1969 2.3925 1.5123 4.2466 1.3851 8.1434-0.1149 3.5217-0.40819 4.8208-1.6363 7.2466-0.82001 1.6198-3.3651 4.0577-5.0857 4.8715-2.7912 1.3203-3.4776 1.4226-10.222 1.525l-6.1767 0.093zm11.56 7.4305c1.4803-0.43961 2.6623-1.6129 3.322-3.2972 0.42841-1.0938 0.50442-1.7002 0.51704-4.1247 0.02238-4.2867-0.71343-6.0663-2.9737-7.1926-0.97043-0.48361-1.4318-0.5692-3.0671-0.5692h-1.9249v15.524h1.4908c0.81996 0 2.0061-0.15305 2.6358-0.33999zm36.104-7.4219v-14.103h7.2152v28.205h-7.2152zm33.216 14.012c-0.05-0.05-0.0646-4.7728-0.0322-10.495l0.0587-10.404h6.9883v20.99h-3.4619c-1.904 0-3.5029-0.041-3.553-0.092zm0-23.394c-0.05-0.05-0.0601-1.132-0.0224-2.4052l0.0687-2.3149h6.9685v4.8102h-3.4619c-1.904 0-3.5029-0.0413-3.553-0.0901z" stroke-width=".21864"/>
</g>
</svg>
