<?xml version="1.0" encoding="UTF-8" standalone="no"?>
<!-- Created with Inkscape (http://www.inkscape.org/) -->

<svg
   xmlns:dc="http://purl.org/dc/elements/1.1/"
   xmlns:cc="http://creativecommons.org/ns#"
   xmlns:rdf="http://www.w3.org/1999/02/22-rdf-syntax-ns#"
   xmlns:svg="http://www.w3.org/2000/svg"
   xmlns="http://www.w3.org/2000/svg"
   xmlns:sodipodi="http://sodipodi.sourceforge.net/DTD/sodipodi-0.dtd"
   xmlns:inkscape="http://www.inkscape.org/namespaces/inkscape"
   width="250"
   height="91"
   viewBox="0 0 250 91"
   id="svg2"
   version="1.1"
   inkscape:version="0.92.2 (5c3e80d, 2017-08-06)"
   sodipodi:docname="deloittedigital.svg">
  <defs
     id="defs4" />
  <sodipodi:namedview
     id="base"
     pagecolor="#ffffff"
     bordercolor="#666666"
     borderopacity="1.0"
     inkscape:pageopacity="0.0"
     inkscape:pageshadow="2"
     inkscape:zoom="1.9799"
     inkscape:cx="183.26"
     inkscape:cy="27.908"
     inkscape:document-units="px"
     inkscape:current-layer="layer1"
     showgrid="false"
     inkscape:window-width="1920"
     inkscape:window-height="1001"
     inkscape:window-x="-9"
     inkscape:window-y="-9"
     inkscape:window-maximized="1"
     units="px" />
  <metadata
     id="metadata7">
    <rdf:RDF>
      <cc:Work
         rdf:about="">
        <dc:format>image/svg+xml</dc:format>
        <dc:type
           rdf:resource="http://purl.org/dc/dcmitype/StillImage" />
        <dc:title></dc:title>
      </cc:Work>
    </rdf:RDF>
  </metadata>
  <g
     inkscape:label="Layer 1"
     inkscape:groupmode="layer"
     id="layer1"
     transform="translate(0,-961.4)">
    <rect
       style="opacity:0.001;fill:#ffffff;fill-opacity:1;stroke:none;stroke-width:2.5;stroke-linecap:round;stroke-linejoin:round;stroke-miterlimit:4;stroke-dasharray:none;stroke-dashoffset:0;stroke-opacity:1"
       id="rect4175"
       width="250"
       height="91"
       x="0"
       y="961.4" />
    <path
       style="fill:#ffffff;stroke-width:0.2186439"
       d="m 80.64684,1041.9482 c -3.247071,-0.7389 -5.114802,-3.0011 -4.739318,-5.7405 0.263383,-1.9215 1.318523,-3.2686 3.203611,-4.0895 0.537487,-0.234 1.005128,-0.4423 1.039193,-0.4628 0.0341,-0.02 -0.285694,-0.3848 -0.710592,-0.8096 -0.662753,-0.6629 -0.772541,-0.9172 -0.772541,-1.7892 0,-1.2575 0.403456,-2.0663 1.471293,-2.9493 0.669369,-0.5534 0.762775,-0.7182 0.496503,-0.8759 -1.184197,-0.7006 -1.829864,-1.3737 -2.405066,-2.5067 -0.569216,-1.1213 -0.655671,-1.5262 -0.653812,-3.0611 0.0033,-2.8579 1.181643,-4.7655 3.60549,-5.8377 1.225181,-0.5418 2.170946,-0.5747 8.800414,-0.3044 l 3.771609,0.1537 v 0.634 c 0,0.5863 -0.06149,0.634 -0.819912,0.6358 -0.450956,0 -1.314198,0.061 -1.918327,0.1339 l -1.098415,0.1319 0.624777,1.2605 c 0.818261,1.651 0.985783,3.4251 0.486847,5.1561 -0.297611,1.0324 -0.606356,1.5227 -1.517447,2.4099 -1.479254,1.4403 -2.627454,1.8379 -5.307481,1.8379 h -2.038173 l -0.874572,0.8745 c -0.481014,0.4812 -0.886879,1.0223 -0.901902,1.2026 -0.198034,2.3764 0.145905,2.5512 5.384104,2.7367 4.516821,0.16 5.346347,0.3877 6.554636,1.7994 1.95886,2.2884 1.292931,6.2683 -1.340757,8.0127 -0.572595,0.3793 -1.684806,0.8916 -2.471555,1.1385 -1.9074,0.5985 -5.905852,0.7553 -7.868607,0.3086 z m 7.480197,-1.8612 c 2.321423,-0.7171 3.435373,-2.1346 3.438924,-4.3762 0.0021,-1.1014 -0.667304,-2.1994 -1.651566,-2.7101 -0.710026,-0.3685 -1.381687,-0.4542 -4.141587,-0.5283 -4.095573,-0.11 -5.506861,0.1414 -6.664478,1.1872 -1.366784,1.2347 -1.650893,3.4333 -0.65528,5.0705 0.484077,0.796 1.834447,1.5449 3.257771,1.8067 1.551903,0.2856 4.76453,0.06 6.416216,-0.4498 z m -2.030331,-15.7618 c 2.170653,-0.4655 3.274434,-2.0436 3.274434,-4.6813 0,-3.2526 -1.71244,-4.9195 -5.053721,-4.9195 -2.820231,0 -4.639872,1.6453 -4.927729,4.4554 -0.38539,3.7625 2.572892,6.032 6.707016,5.1454 z m 21.330774,9.1146 c -1.47943,-0.4162 -2.60513,-1.6308 -2.93442,-3.1663 -0.15138,-0.7058 -0.24453,-3.8012 -0.24453,-8.126 v -6.9859 h -1.54436 -1.54437 l 0.0686,-0.7106 0.0686,-0.7106 1.47586,-0.064 1.47584,-0.064 v -2.2573 -2.2571 l 0.79941,-0.1298 c 0.43968,-0.072 0.88712,-0.077 0.99432,-0.011 0.10722,0.066 0.16643,1.1203 0.1316,2.3423 l -0.0633,2.2217 2.89527,0.061 2.89526,0.061 v 0.7526 0.7526 l -2.87575,0.061 -2.87576,0.061 0.0479,7.106 c 0.043,6.3671 0.0899,7.2009 0.45151,8.0196 0.59213,1.3407 1.35587,1.6598 3.75074,1.5667 l 1.9388,-0.075 -1.2e-4,0.6873 c -7e-5,0.4365 -0.13157,0.7376 -0.36032,0.8254 -0.81354,0.3122 -3.49836,0.3354 -4.55067,0.039 z m 10.70495,0.015 c -2.17617,-0.7237 -3.17103,-1.6552 -3.71155,-3.4754 -0.42128,-1.4185 -0.41987,-2.2029 0.007,-3.6391 0.81532,-2.7456 4.21933,-4.4007 9.05044,-4.4007 0.93467,0 2.15589,-0.062 2.71381,-0.139 l 1.01441,-0.139 v -1.2425 c 0,-2.6221 -1.10824,-4.6851 -2.82034,-5.2502 -1.30519,-0.4307 -4.14346,-0.1822 -6.10868,0.5349 -0.88247,0.3219 -1.63038,0.5532 -1.66205,0.5136 -0.0316,-0.039 -0.16568,-0.3923 -0.29784,-0.7839 -0.23342,-0.6919 -0.2178,-0.7216 0.54673,-1.0411 2.63548,-1.1011 6.43233,-1.4082 8.52159,-0.6892 1.33317,0.4588 2.73973,1.8543 3.15489,3.13 0.19172,0.5892 0.2999,3.1997 0.35947,8.6745 l 0.0852,7.8313 -0.7255,-0.069 c -0.72136,-0.069 -0.72661,-0.078 -0.9152,-1.5465 l -0.18967,-1.4769 -1.37351,1.2848 c -0.87078,0.8147 -1.7617,1.4209 -2.43406,1.6563 -1.42839,0.5003 -4.10271,0.6376 -5.21476,0.2677 z m 5.65736,-2.1998 c 1.41645,-0.6929 2.62566,-2.0995 2.99991,-3.4893 0.13164,-0.4889 0.25459,-1.6799 0.27323,-2.6468 l 0.0339,-1.758 -1.74916,0.055 c -3.89314,0.122 -6.58945,0.65 -7.7193,1.5118 -2.21615,1.6904 -1.99853,5.3219 0.39473,6.5867 1.39169,0.7355 3.97045,0.6197 5.76669,-0.2591 z m -75.295459,-11.1955 v -13.2498 l 5.520766,0.096 c 5.95117,0.1032 6.326295,0.1673 9.023963,1.5349 2.578735,1.3073 4.613552,4.3227 5.273221,7.8146 0.418749,2.2164 0.300869,6.3879 -0.236803,8.3803 -1.20906,4.4804 -4.247105,7.2858 -8.938291,8.2541 -1.568968,0.3237 -2.947908,0.4146 -6.324634,0.4169 h -4.318222 z m 10.570077,11.0719 c 2.011354,-0.5142 3.296028,-1.2323 4.634669,-2.59 2.264135,-2.2966 3.320045,-6.4798 2.738576,-10.8491 -0.512971,-3.8547 -2.246734,-6.5593 -5.090209,-7.9405 -1.909584,-0.9275 -3.236948,-1.1644 -7.332347,-1.3081 l -3.552971,-0.1246 v 11.6206 11.6204 h 3.463333 c 2.724107,0 3.82097,-0.091 5.138949,-0.4287 z m 13.043468,-7.6611 v -9.8389 h 0.874571 0.874584 v 9.8389 9.8389 h -0.874584 -0.874571 z m 24.706763,0 v -9.8389 h 0.9839 0.9839 v 9.8389 9.8389 h -0.9839 -0.9839 z m 37.169481,-4.2635 v -14.1026 h 0.87456 0.87459 v 14.1026 14.1024 h -0.87459 -0.87456 z M 72.709147,1011.27 c -0.573235,-0.07 -0.601271,-0.1282 -0.601271,-1.2608 v -1.1881 h 0.874571 0.874584 v 1.2755 c 0,0.8824 -0.08419,1.2709 -0.273311,1.2607 -0.150316,-0.011 -0.543875,-0.048 -0.874573,-0.087 z m 24.218592,-0.011 c -0.0622,-0.062 -0.1131,-0.6379 -0.1131,-1.2791 v -1.1662 h 0.9839 0.9839 v 1.2026 c 0,0.7979 -0.0919,1.2139 -0.27331,1.2367 -0.82475,0.1032 -1.48161,0.1054 -1.58139,0.011 z m -14.601242,-11.1906 c -3.443271,-0.44103 -6.137549,-2.35071 -7.492776,-5.31099 -1.379461,-3.01304 -1.322487,-7.90899 0.130111,-11.18033 0.568728,-1.28091 2.139825,-3.02292 3.367873,-3.73431 2.822142,-1.63492 7.793211,-1.75647 10.740901,-0.26276 3.159704,1.60113 4.462379,4.27656 4.462379,9.1649 v 2.57789 H 87.303627 81.07227 v 0.47274 c 0,0.82229 1.023822,2.28557 1.905683,2.72377 1.204064,0.5983 4.911814,0.5529 6.728002,-0.0826 0.72619,-0.25395 1.363819,-0.36921 1.431992,-0.25885 0.06757,0.10929 0.351336,1.14643 0.630568,2.3047 0.422529,1.75273 0.457386,2.13813 0.207832,2.29813 -0.874855,0.56098 -2.896311,1.10918 -4.758479,1.29041 -2.357293,0.2295 -3.080148,0.229 -4.891371,0 z m 4.754394,-14.04769 c -0.204529,-0.98111 -0.660972,-1.63992 -1.483632,-2.14143 -1.738456,-1.06008 -3.824087,-0.0521 -4.30522,2.08179 l -0.173713,0.77015 h 3.05536 3.05537 z m 27.006629,14.01679 c -2.86325,-0.47313 -5.46395,-2.39481 -6.78642,-5.01461 -1.59984,-3.16914 -1.63837,-8.27755 -0.0856,-11.35272 1.74257,-3.45101 4.70125,-5.11841 9.05847,-5.10516 3.26074,0.0108 5.77192,0.9949 7.53431,2.95504 3.71234,4.12905 3.63576,12.06562 -0.15403,15.96514 -2.13321,2.19488 -5.80312,3.17391 -9.56672,2.55231 z m 3.47967,-5.5347 c 1.20357,-0.62243 1.90029,-3.17783 1.69254,-6.20781 -0.16053,-2.34131 -0.75632,-3.66316 -1.85872,-4.12373 -1.6368,-0.68401 -3.23277,0.19661 -3.78226,2.08669 -0.37307,1.2834 -0.37588,5.12806 -0.004,6.199 0.71052,2.04921 2.3278,2.88616 3.95298,2.04585 z m 28.85841,5.5629 c -1.81903,-0.30763 -3.20517,-1.23711 -3.90871,-2.62091 -0.70784,-1.39224 -0.88023,-2.97665 -0.88023,-8.08963 v -5.00717 l -1.2572,-0.0652 -1.25721,-0.0663 v -2.62373 -2.62373 l 1.25721,-0.0663 1.2572,-0.0652 v -2.67728 -2.67728 l 3.42303,-0.58331 c 1.88266,-0.32088 3.5061,-0.53194 3.60762,-0.46926 0.10156,0.063 0.18458,1.53497 0.18458,3.27156 v 3.15751 h 2.18645 2.18644 v 2.73301 2.733 h -2.18644 -2.18645 v 4.59158 c 0,4.29992 0.0278,4.61927 0.43729,5.02879 0.54242,0.54236 2.33965,0.59526 3.71696,0.10928 0.51125,-0.18043 0.96638,-0.32794 1.01138,-0.32794 0.045,0 0.0818,1.18618 0.0818,2.636 v 2.636 l -0.92924,0.40818 c -0.95078,0.4177 -3.79902,0.89953 -5.04463,0.85343 -0.38212,-0.014 -1.14706,-0.1021 -1.69988,-0.1957 z m 16.24531,-0.012 c -1.5396,-0.27043 -2.24711,-0.66343 -3.20091,-1.77771 -1.28085,-1.4964 -1.4538,-2.47825 -1.50201,-8.52769 l -0.0424,-5.31307 -1.26384,-0.0663 -1.26385,-0.0652 0.0613,-2.66729 0.0613,-2.66729 1.089,-0.0684 c 0.59895,-0.038 1.16317,-0.18531 1.25385,-0.32783 0.0907,-0.14273 0.16637,-1.36629 0.16821,-2.7191 0.002,-1.35282 0.0661,-2.4597 0.14304,-2.4597 0.11581,0 2.85723,-0.44341 6.14632,-0.99414 l 0.7106,-0.11891 v 3.28956 3.28961 h 2.29575 2.29577 v 2.733 2.73311 h -2.30803 -2.30804 l 0.0669,4.56899 c 0.0605,4.13144 0.10678,4.61318 0.48344,5.0289 0.51257,0.56572 2.14308,0.62383 3.75764,0.13403 0.59033,-0.17901 1.10093,-0.32663 1.1347,-0.32793 0.0338,0 0.0338,1.20292 0,2.67597 l -0.0614,2.67836 -1.42119,0.4714 c -1.66229,0.55143 -4.64775,0.78743 -6.29623,0.49793 z m 17.82672,0.015 c -5.41876,-0.69413 -8.46301,-4.54791 -8.46301,-10.71347 0,-3.82501 0.95144,-6.43559 3.05541,-8.38356 3.61888,-3.35043 10.67933,-3.32696 14.15602,0.0467 1.79809,1.74494 2.46007,3.79296 2.46007,7.61091 v 2.69336 h -6.23137 -6.23134 l 0.003,0.49196 c 0.007,0.85315 0.92864,2.17543 1.85487,2.65903 1.22517,0.63959 4.86746,0.617 6.77522,-0.0424 0.80817,-0.27927 1.35998,-0.36997 1.4421,-0.23713 0.28826,0.46644 1.08586,4.41919 0.92177,4.56819 -0.50034,0.45428 -2.99978,1.12848 -4.85197,1.30871 -2.35728,0.2295 -3.08013,0.229 -4.89136,0 z m 4.7544,-14.04782 c -0.44556,-2.13698 -2.65836,-3.21041 -4.41285,-2.14056 -0.71799,0.43776 -1.2056,1.18922 -1.45994,2.24984 l -0.14417,0.60135 h 3.08257 3.08254 z m 10.65612,13.76789 c -0.27434,-0.1591 -0.44653,-0.358 -0.38263,-0.442 0.0639,-0.084 0.0541,-0.1065 -0.0219,-0.051 -0.29067,0.2139 -0.97163,-0.36998 -1.39172,-1.19348 -0.72794,-1.4269 -0.46284,-3.93186 0.41701,-3.94033 0.27733,0 0.28784,-0.0413 0.052,-0.19052 -0.22538,-0.14285 -0.1214,-0.32001 0.43827,-0.74703 1.40709,-1.07321 2.84818,-1.25494 4.23064,-0.53345 0.85574,0.44667 1.94276,1.59754 1.77113,1.87519 -0.074,0.11982 -0.0332,0.25147 0.0906,0.29285 0.12384,0.0413 0.28506,0.44406 0.35826,0.89519 0.19495,1.2014 -0.41869,2.6189 -1.50673,3.48068 -0.74914,0.5933 -1.11037,0.7193 -2.22524,0.77563 -0.82366,0.041 -1.52104,-0.043 -1.82973,-0.22183 z M 48.494331,985.74166 v -14.14664 l 6.176698,0.11274 c 6.794979,0.12392 8.668988,0.4043 10.95726,1.63927 1.790605,0.96631 3.741423,2.94253 4.601167,4.66109 1.196907,2.39247 1.512266,4.24658 1.385121,8.1434 -0.114904,3.52173 -0.40819,4.82078 -1.636283,7.24659 -0.820009,1.6198 -3.365092,4.05768 -5.085668,4.87148 -2.791227,1.32028 -3.477639,1.42258 -10.221597,1.52498 l -6.176698,0.093 z m 11.560497,7.4305 c 1.480255,-0.43961 2.662323,-1.61286 3.322045,-3.29721 0.428407,-1.09384 0.504422,-1.70019 0.517044,-4.1247 0.02238,-4.28666 -0.713427,-6.06627 -2.973695,-7.19259 -0.970434,-0.48361 -1.431829,-0.5692 -3.067134,-0.5692 h -1.924867 v 7.76179 7.7619 h 1.490823 c 0.819956,0 2.006053,-0.15305 2.635784,-0.33999 z m 36.103881,-7.42191 v -14.10251 h 3.60762 3.607621 v 14.10251 14.10262 h -3.607621 -3.60762 z m 33.215661,14.01152 c -0.05,-0.05 -0.0646,-4.77276 -0.0322,-10.49489 l 0.0587,-10.40389 h 3.49414 3.49413 v 10.49491 10.49497 h -3.46186 c -1.90403,0 -3.50286,-0.041 -3.55297,-0.092 z m 0,-23.394 c -0.05,-0.05 -0.0601,-1.13198 -0.0224,-2.40518 l 0.0687,-2.31486 h 3.48424 3.48423 v 2.40513 2.40507 h -3.46186 c -1.90403,0 -3.50286,-0.0413 -3.55296,-0.0901 z"
       id="path835"
       inkscape:connector-curvature="0" />
  </g>
</svg>
