<?xml version="1.0" encoding="UTF-8" standalone="no"?>
<!-- Created with Inkscape (http://www.inkscape.org/) -->

<svg xmlns:dc="http://purl.org/dc/elements/1.1/" xmlns:cc="http://creativecommons.org/ns#" xmlns:rdf="http://www.w3.org/1999/02/22-rdf-syntax-ns#" xmlns:svg="http://www.w3.org/2000/svg" xmlns="http://www.w3.org/2000/svg" xmlns:sodipodi="http://sodipodi.sourceforge.net/DTD/sodipodi-0.dtd" xmlns:inkscape="http://www.inkscape.org/namespaces/inkscape" width="70.556mm" height="25.682mm" viewBox="0 0 250 91.003" id="svg2" version="1.1" inkscape:version="0.91 r13725" sodipodi:docname="dft.svg">
  <defs id="defs4" />
  <sodipodi:namedview id="base" pagecolor="#ffffff" bordercolor="#666666" borderopacity="1.0" inkscape:pageopacity="0.0" inkscape:pageshadow="2" inkscape:zoom="1.4" inkscape:cx="22.524" inkscape:cy="58.588" inkscape:document-units="px" inkscape:current-layer="layer1" showgrid="false" fit-margin-top="0" fit-margin-left="0" fit-margin-right="0" fit-margin-bottom="0" inkscape:window-width="1280" inkscape:window-height="751" inkscape:window-x="0" inkscape:window-y="1" inkscape:window-maximized="1" />
  <metadata id="metadata7">
    <rdf:RDF>
      <cc:Work rdf:about="">
        <dc:format>image/svg+xml</dc:format>
        <dc:type rdf:resource="http://purl.org/dc/dcmitype/StillImage" />
        <dc:title></dc:title>
      </cc:Work>
    </rdf:RDF>
  </metadata>
  <g inkscape:label="Layer 1" inkscape:groupmode="layer" id="layer1" transform="translate(28.958,-351.92)">
    <rect style="opacity:0.001;fill:#ff0000;fill-opacity:1;stroke:none;stroke-width:2.5;stroke-linecap:round;stroke-linejoin:round;stroke-miterlimit:4;stroke-dasharray:none;stroke-dashoffset:0;stroke-opacity:1" id="rect4298" width="250" height="91" x="-28.958" y="351.92" />
    <circle r="0" style="opacity:1;fill:#ff0000;fill-opacity:1;stroke:none;stroke-width:2.5;stroke-linecap:round;stroke-linejoin:round;stroke-miterlimit:4;stroke-dasharray:none;stroke-dashoffset:0;stroke-opacity:1" id="ellipse4185" cx="42.636" cy="387.21" />
    <circle r="0" style="opacity:1;fill:#ff0000;fill-opacity:1;stroke:none;stroke-width:2.5;stroke-linecap:round;stroke-linejoin:round;stroke-miterlimit:4;stroke-dasharray:none;stroke-dashoffset:0;stroke-opacity:1" id="ellipse4185-5" cx="9.065" cy="446.32" />
    <g id="g4330" transform="matrix(0.21979,0,0,0.21979,41.688,334.26)" style="fill:#ffffff">
      <rect id="rect4160" height="303.2" width="6.9" y="128.1" x="3.7" style="fill:#ffffff" />
      <g id="g4162" enable-background="new    " style="fill:#ffffff">
        <path id="path4164" d="m 64.9,273.9 c 9,0 15.9,2.3 20.8,6.9 4.9,4.6 7.3,11.6 7.3,20.9 0,4.9 -0.5,9.3 -1.6,13 -1.1,3.8 -2.8,7 -5.1,9.6 -2.3,2.6 -5.2,4.6 -8.8,5.9 -3.5,1.4 -7.7,2 -12.6,2 l -20,0 0,-58.4 20,0 z m 0.7,51.8 c 0.9,0 2,-0.1 3.3,-0.2 1.3,-0.1 2.7,-0.5 4.2,-1 1.5,-0.5 2.9,-1.3 4.4,-2.2 1.4,-1 2.7,-2.3 3.9,-4 1.1,-1.7 2.1,-3.8 2.8,-6.3 0.7,-2.5 1.1,-5.6 1.1,-9.2 0,-3.5 -0.3,-6.6 -1,-9.4 -0.7,-2.8 -1.8,-5.1 -3.4,-7 -1.6,-1.9 -3.6,-3.4 -6,-4.4 -2.5,-1 -5.5,-1.5 -9.1,-1.5 l -13.2,0 0,45.3 13,0 z" inkscape:connector-curvature="0" style="fill:#ffffff" />
        <path id="path4166" d="m 130.3,329.6 c -3.2,2.4 -7.1,3.6 -11.9,3.6 -3.4,0 -6.3,-0.5 -8.8,-1.6 -2.5,-1.1 -4.6,-2.6 -6.3,-4.6 -1.7,-2 -3,-4.3 -3.8,-7 -0.8,-2.7 -1.3,-5.7 -1.4,-8.9 0,-3.2 0.5,-6.2 1.5,-8.8 1,-2.7 2.4,-5 4.1,-7 1.8,-2 3.9,-3.5 6.3,-4.6 2.4,-1.1 5.1,-1.6 8,-1.6 3.8,0 6.9,0.8 9.4,2.3 2.5,1.6 4.5,3.5 6,5.9 1.5,2.4 2.5,5 3.1,7.9 0.6,2.8 0.8,5.5 0.7,8.1 l -31.7,0 c -0.1,1.9 0.2,3.6 0.7,5.3 0.5,1.7 1.3,3.1 2.4,4.4 1.1,1.3 2.5,2.3 4.2,3.1 1.7,0.8 3.7,1.1 6,1.1 2.9,0 5.4,-0.7 7.2,-2 1.9,-1.4 3.1,-3.4 3.7,-6.2 l 6.9,0 c -1.1,4.6 -3.2,8.2 -6.3,10.6 z m -1.7,-27.2 c -0.6,-1.5 -1.5,-2.7 -2.5,-3.8 -1.1,-1.1 -2.3,-1.9 -3.8,-2.5 -1.4,-0.6 -3,-0.9 -4.8,-0.9 -1.8,0 -3.4,0.3 -4.9,0.9 -1.4,0.6 -2.7,1.5 -3.7,2.6 -1,1.1 -1.9,2.4 -2.5,3.8 -0.6,1.4 -1,3 -1.1,4.6 l 24.3,0 c 0,-1.6 -0.4,-3.2 -1,-4.7 z" inkscape:connector-curvature="0" style="fill:#ffffff" />
        <path id="path4168" d="m 150.5,290 0,5.7 0.2,0 c 1.1,-2.3 2.9,-4 5.4,-5.1 2.5,-1.1 5.2,-1.6 8.1,-1.6 3.3,0 6.1,0.6 8.5,1.8 2.4,1.2 4.4,2.8 6.1,4.9 1.6,2 2.8,4.4 3.6,7.1 0.8,2.7 1.2,5.5 1.2,8.5 0,3 -0.4,5.8 -1.2,8.5 -0.8,2.7 -2,5 -3.6,7 -1.6,2 -3.6,3.6 -6.1,4.7 -2.4,1.1 -5.2,1.7 -8.5,1.7 -1,0 -2.2,-0.1 -3.5,-0.3 -1.3,-0.2 -2.5,-0.6 -3.8,-1.1 -1.3,-0.5 -2.4,-1.2 -3.6,-2 -1.1,-0.8 -2.1,-1.9 -2.8,-3.1 l -0.2,0 0,21.8 -7,0 0,-58.5 7.2,0 z m 24.9,15 c -0.5,-1.9 -1.3,-3.6 -2.4,-5 -1.1,-1.5 -2.4,-2.6 -4.1,-3.5 -1.7,-0.9 -3.6,-1.3 -5.8,-1.3 -2.3,0 -4.3,0.5 -6,1.4 -1.6,0.9 -3,2.1 -4,3.6 -1,1.5 -1.8,3.2 -2.2,5.1 -0.5,1.9 -0.7,3.8 -0.7,5.8 0,2.1 0.2,4.1 0.7,6 0.5,1.9 1.3,3.6 2.3,5.1 1.1,1.5 2.4,2.7 4.1,3.6 1.7,0.9 3.7,1.3 6.1,1.3 2.4,0 4.4,-0.5 6,-1.4 1.6,-0.9 2.9,-2.2 3.9,-3.7 1,-1.5 1.7,-3.3 2.1,-5.2 0.4,-2 0.7,-4 0.7,-6.1 0.1,-1.9 -0.1,-3.8 -0.7,-5.7 z" inkscape:connector-curvature="0" style="fill:#ffffff" />
        <path id="path4170" d="m 228.2,332.1 c -1.2,0.7 -2.9,1.1 -5,1.1 -1.8,0 -3.2,-0.5 -4.3,-1.5 -1.1,-1 -1.6,-2.7 -1.6,-4.9 -1.9,2.3 -4.1,3.9 -6.7,4.9 -2.5,1 -5.3,1.5 -8.2,1.5 -1.9,0 -3.7,-0.2 -5.4,-0.7 -1.7,-0.5 -3.2,-1.1 -4.5,-2 -1.3,-0.9 -2.2,-2.1 -3,-3.6 -0.7,-1.5 -1.1,-3.3 -1.1,-5.4 0,-2.4 0.4,-4.4 1.2,-5.9 0.8,-1.5 1.9,-2.8 3.2,-3.7 1.3,-1 2.9,-1.7 4.6,-2.2 1.7,-0.5 3.5,-0.9 5.3,-1.2 1.9,-0.4 3.7,-0.7 5.4,-0.9 1.7,-0.2 3.2,-0.5 4.5,-0.8 1.3,-0.4 2.3,-0.9 3.1,-1.6 0.8,-0.7 1.1,-1.7 1.1,-3 0,-1.5 -0.3,-2.8 -0.9,-3.7 -0.6,-0.9 -1.3,-1.6 -2.2,-2.1 -0.9,-0.5 -1.9,-0.8 -3,-1 -1.1,-0.2 -2.2,-0.2 -3.3,-0.2 -2.9,0 -5.4,0.6 -7.4,1.7 -2,1.1 -3,3.2 -3.2,6.3 l -7,0 c 0.1,-2.6 0.7,-4.8 1.6,-6.6 1,-1.8 2.3,-3.3 3.9,-4.4 1.6,-1.1 3.5,-1.9 5.6,-2.4 2.1,-0.5 4.3,-0.7 6.7,-0.7 1.9,0 3.8,0.1 5.7,0.4 1.9,0.3 3.6,0.8 5.1,1.7 1.5,0.8 2.8,2 3.7,3.6 0.9,1.5 1.4,3.5 1.4,6 l 0,21.7 c 0,1.6 0.1,2.8 0.3,3.6 0.2,0.8 0.8,1.1 1.9,1.1 0.6,0 1.3,-0.1 2.1,-0.3 l 0,5.2 z m -11.2,-21.7 c -0.9,0.7 -2,1.1 -3.4,1.4 -1.4,0.3 -2.9,0.5 -4.5,0.7 -1.6,0.2 -3.1,0.4 -4.7,0.7 -1.6,0.2 -3,0.6 -4.3,1.2 -1.3,0.5 -2.3,1.3 -3.1,2.3 -0.8,1 -1.2,2.4 -1.2,4.1 0,1.1 0.2,2.1 0.7,2.9 0.5,0.8 1.1,1.4 1.8,1.9 0.7,0.5 1.6,0.8 2.6,1.1 1,0.2 2,0.3 3.1,0.3 2.3,0 4.3,-0.3 5.9,-0.9 1.6,-0.6 3,-1.4 4,-2.4 1,-0.9 1.8,-2 2.3,-3.1 0.5,-1.1 0.7,-2.2 0.7,-3.1 l 0,-7.1 z" inkscape:connector-curvature="0" style="fill:#ffffff" />
        <path id="path4172" d="m 240,290 0,8.9 0.2,0 c 1.7,-3.4 3.8,-6 6.2,-7.6 2.4,-1.6 5.6,-2.4 9.3,-2.3 l 0,7.4 c -2.8,0 -5.2,0.4 -7.1,1.1 -2,0.8 -3.5,1.9 -4.7,3.4 -1.2,1.5 -2.1,3.3 -2.6,5.4 -0.5,2.1 -0.8,4.5 -0.8,7.2 l 0,18.8 -7,0 0,-42.3 6.5,0 z" inkscape:connector-curvature="0" style="fill:#ffffff" />
        <path id="path4174" d="m 278,290 0,6.1 -8.4,0 0,26.3 c 0,0.8 0.1,1.5 0.2,2 0.1,0.5 0.4,0.9 0.8,1.1 0.4,0.3 0.9,0.4 1.6,0.5 0.7,0.1 1.6,0.1 2.7,0.1 l 3.2,0 0,6.1 -5.3,0 c -1.8,0 -3.3,-0.1 -4.6,-0.4 -1.3,-0.2 -2.3,-0.7 -3.1,-1.3 -0.8,-0.7 -1.4,-1.6 -1.8,-2.8 -0.4,-1.2 -0.6,-2.8 -0.6,-4.7 l 0,-26.9 -7.2,0 0,-6.1 7.2,0 0,-12.7 7,0 0,12.7 8.3,0 z" inkscape:connector-curvature="0" style="fill:#ffffff" />
        <path id="path4176" d="m 291.3,290 0,6.2 0.2,0 c 3.2,-4.8 7.7,-7.2 13.7,-7.2 2.6,0 5,0.5 7.1,1.6 2.1,1.1 3.6,2.9 4.5,5.6 1.4,-2.3 3.3,-4.1 5.6,-5.3 2.3,-1.3 4.9,-1.9 7.6,-1.9 2.1,0 4,0.2 5.8,0.7 1.7,0.5 3.2,1.2 4.4,2.2 1.2,1 2.2,2.2 2.9,3.8 0.7,1.6 1,3.4 1,5.6 l 0,31 -7,0 0,-27.7 c 0,-1.3 -0.1,-2.5 -0.3,-3.7 -0.2,-1.1 -0.6,-2.1 -1.2,-3 -0.6,-0.8 -1.4,-1.5 -2.5,-2 -1.1,-0.5 -2.4,-0.7 -4.1,-0.7 -3.4,0 -6.1,1 -8.1,2.9 -2,1.9 -2.9,4.6 -2.9,7.9 l 0,26.3 -7,0 0,-27.7 c 0,-1.4 -0.1,-2.6 -0.4,-3.8 -0.2,-1.1 -0.7,-2.1 -1.3,-3 -0.6,-0.8 -1.4,-1.5 -2.4,-2 -1,-0.5 -2.3,-0.7 -3.9,-0.7 -2,0 -3.8,0.4 -5.2,1.2 -1.4,0.8 -2.6,1.8 -3.5,2.9 -0.9,1.1 -1.6,2.3 -2,3.6 -0.4,1.2 -0.6,2.2 -0.6,3.1 l 0,26.3 -7,0 0,-42.2 6.6,0 z" inkscape:connector-curvature="0" style="fill:#ffffff" />
        <path id="path4178" d="m 383.5,329.6 c -3.2,2.4 -7.1,3.6 -11.9,3.6 -3.4,0 -6.3,-0.5 -8.8,-1.6 -2.5,-1.1 -4.6,-2.6 -6.3,-4.6 -1.7,-2 -3,-4.3 -3.8,-7 -0.8,-2.7 -1.3,-5.7 -1.4,-8.9 0,-3.2 0.5,-6.2 1.5,-8.8 1,-2.7 2.4,-5 4.1,-7 1.8,-2 3.9,-3.5 6.3,-4.6 2.4,-1.1 5.1,-1.6 8,-1.6 3.8,0 6.9,0.8 9.4,2.3 2.5,1.6 4.5,3.5 6,5.9 1.5,2.4 2.5,5 3.1,7.9 0.6,2.8 0.8,5.5 0.7,8.1 l -31.7,0 c -0.1,1.9 0.2,3.6 0.7,5.3 0.5,1.7 1.3,3.1 2.4,4.4 1.1,1.3 2.5,2.3 4.2,3.1 1.7,0.8 3.7,1.1 6,1.1 2.9,0 5.4,-0.7 7.2,-2 1.9,-1.4 3.1,-3.4 3.7,-6.2 l 6.9,0 c -1.1,4.6 -3.2,8.2 -6.3,10.6 z m -1.7,-27.2 c -0.6,-1.5 -1.5,-2.7 -2.5,-3.8 -1.1,-1.1 -2.3,-1.9 -3.8,-2.5 -1.4,-0.6 -3,-0.9 -4.8,-0.9 -1.8,0 -3.4,0.3 -4.9,0.9 -1.4,0.6 -2.7,1.5 -3.7,2.6 -1,1.1 -1.9,2.4 -2.5,3.8 -0.6,1.4 -1,3 -1.1,4.6 l 24.3,0 c 0,-1.6 -0.4,-3.2 -1,-4.7 z" inkscape:connector-curvature="0" style="fill:#ffffff" />
        <path id="path4180" d="m 403,290 0,6.7 0.2,0 c 2.9,-5.1 7.5,-7.7 13.7,-7.7 2.8,0 5.1,0.4 7,1.1 1.9,0.8 3.4,1.8 4.5,3.2 1.1,1.4 1.9,3 2.4,4.9 0.5,1.9 0.7,4 0.7,6.3 l 0,27.8 -7,0 0,-28.6 c 0,-2.6 -0.8,-4.7 -2.3,-6.2 -1.5,-1.5 -3.6,-2.3 -6.3,-2.3 -2.1,0 -4,0.3 -5.5,1 -1.6,0.7 -2.9,1.6 -3.9,2.8 -1,1.2 -1.8,2.6 -2.3,4.2 -0.5,1.6 -0.8,3.4 -0.8,5.3 l 0,23.9 -7,0 0,-42.4 6.6,0 z" inkscape:connector-curvature="0" style="fill:#ffffff" />
        <path id="path4182" d="m 459,290 0,6.1 -8.4,0 0,26.3 c 0,0.8 0.1,1.5 0.2,2 0.1,0.5 0.4,0.9 0.8,1.1 0.4,0.3 0.9,0.4 1.6,0.5 0.7,0.1 1.6,0.1 2.7,0.1 l 3.2,0 0,6.1 -5.3,0 c -1.8,0 -3.3,-0.1 -4.6,-0.4 -1.3,-0.3 -2.3,-0.7 -3.1,-1.3 -0.8,-0.7 -1.4,-1.6 -1.8,-2.8 -0.4,-1.2 -0.6,-2.8 -0.6,-4.7 l 0,-26.9 -7.2,0 0,-6.1 7.2,0 0,-12.7 7,0 0,12.7 8.3,0 z" inkscape:connector-curvature="0" style="fill:#ffffff" />
      </g>
      <g id="g4184" enable-background="new    " style="fill:#ffffff">
        <path id="path4186" d="m 39.5,394.2 0,-6.1 7.1,0 0,-6.3 c 0,-3.4 1,-6 3,-7.8 2,-1.8 4.9,-2.7 8.7,-2.7 0.7,0 1.4,0.1 2.2,0.2 0.8,0.1 1.6,0.3 2.2,0.5 l 0,6.1 c -0.6,-0.2 -1.3,-0.4 -2,-0.4 -0.7,-0.1 -1.4,-0.1 -2,-0.1 -1.7,0 -3,0.3 -3.9,1 -0.9,0.7 -1.4,1.9 -1.4,3.8 l 0,5.9 8.2,0 0,6.1 -8.2,0 0,36.2 -7,0 0,-36.2 -6.9,0 z" inkscape:connector-curvature="0" style="fill:#ffffff" />
        <path id="path4188" d="m 66,400.6 c 0.9,-2.7 2.2,-5 3.9,-7 1.7,-2 3.9,-3.6 6.5,-4.7 2.6,-1.1 5.5,-1.7 8.8,-1.7 3.4,0 6.3,0.6 8.9,1.7 2.5,1.1 4.7,2.7 6.4,4.7 1.7,2 3.1,4.3 3.9,7 0.9,2.7 1.3,5.6 1.3,8.7 0,3.1 -0.4,6 -1.3,8.7 -0.9,2.7 -2.2,5 -3.9,7 -1.7,2 -3.9,3.5 -6.4,4.7 -2.5,1.1 -5.5,1.7 -8.9,1.7 -3.3,0 -6.3,-0.6 -8.8,-1.7 -2.6,-1.1 -4.7,-2.7 -6.5,-4.7 -1.7,-2 -3.1,-4.3 -3.9,-7 -0.9,-2.7 -1.3,-5.6 -1.3,-8.7 0,-3.1 0.4,-6 1.3,-8.7 z m 7,15.5 c 0.7,2 1.6,3.7 2.8,5 1.2,1.3 2.6,2.4 4.2,3.1 1.6,0.7 3.3,1.1 5.1,1.1 1.8,0 3.5,-0.4 5.1,-1.1 1.6,-0.7 3,-1.7 4.2,-3.1 1.2,-1.3 2.1,-3 2.8,-5 0.7,-2 1,-4.3 1,-6.8 0,-2.6 -0.3,-4.8 -1,-6.8 -0.7,-2 -1.6,-3.7 -2.8,-5 -1.2,-1.4 -2.6,-2.4 -4.2,-3.1 -1.6,-0.7 -3.3,-1.1 -5.1,-1.1 -1.8,0 -3.5,0.4 -5.1,1.1 -1.6,0.7 -3,1.7 -4.2,3.1 -1.2,1.4 -2.1,3 -2.8,5 -0.7,2 -1,4.3 -1,6.8 0,2.5 0.4,4.8 1,6.8 z" inkscape:connector-curvature="0" style="fill:#ffffff" />
        <path id="path4190" d="m 119.2,388.1 0,8.9 0.2,0 c 1.7,-3.4 3.8,-6 6.2,-7.6 2.4,-1.6 5.6,-2.4 9.3,-2.3 l 0,7.4 c -2.8,0 -5.2,0.4 -7.1,1.1 -2,0.8 -3.5,1.9 -4.7,3.4 -1.2,1.5 -2.1,3.3 -2.6,5.4 -0.5,2.1 -0.8,4.5 -0.8,7.2 l 0,18.8 -7,0 0,-42.3 6.5,0 z" inkscape:connector-curvature="0" style="fill:#ffffff" />
        <path id="path4192" d="m 155.9,378.5 0,-6.5 46.7,0 0,6.5 -19.5,0 0,51.9 -7.8,0 0,-51.9 -19.4,0 z" inkscape:connector-curvature="0" style="fill:#ffffff" />
        <path id="path4194" d="m 205.7,388.1 0,8.9 0.2,0 c 1.7,-3.4 3.8,-6 6.2,-7.6 2.4,-1.6 5.6,-2.4 9.3,-2.3 l 0,7.4 c -2.8,0 -5.2,0.4 -7.1,1.1 -2,0.8 -3.5,1.9 -4.7,3.4 -1.2,1.5 -2.1,3.3 -2.6,5.4 -0.5,2.1 -0.8,4.5 -0.8,7.2 l 0,18.8 -7,0 0,-42.3 6.5,0 z" inkscape:connector-curvature="0" style="fill:#ffffff" />
        <path id="path4196" d="m 263.1,430.2 c -1.2,0.7 -2.9,1.1 -5,1.1 -1.8,0 -3.2,-0.5 -4.3,-1.5 -1.1,-1 -1.6,-2.7 -1.6,-4.9 -1.9,2.3 -4.1,3.9 -6.7,4.9 -2.5,1 -5.3,1.5 -8.2,1.5 -1.9,0 -3.7,-0.2 -5.4,-0.7 -1.7,-0.5 -3.2,-1.1 -4.5,-2 -1.3,-0.9 -2.2,-2.1 -3,-3.6 -0.7,-1.5 -1.1,-3.3 -1.1,-5.4 0,-2.4 0.4,-4.4 1.2,-5.9 0.8,-1.5 1.9,-2.8 3.2,-3.7 1.3,-1 2.9,-1.7 4.6,-2.2 1.7,-0.5 3.5,-0.9 5.3,-1.2 1.9,-0.4 3.7,-0.7 5.4,-0.9 1.7,-0.2 3.2,-0.5 4.5,-0.8 1.3,-0.4 2.3,-0.9 3.1,-1.6 0.8,-0.7 1.1,-1.7 1.1,-3 0,-1.5 -0.3,-2.8 -0.9,-3.7 -0.6,-0.9 -1.3,-1.6 -2.2,-2.1 -0.9,-0.5 -1.9,-0.8 -3,-1 -1.1,-0.2 -2.2,-0.2 -3.3,-0.2 -2.9,0 -5.4,0.6 -7.4,1.7 -2,1.1 -3,3.2 -3.2,6.3 l -7,0 c 0.1,-2.6 0.7,-4.8 1.6,-6.6 1,-1.8 2.3,-3.3 3.9,-4.4 1.6,-1.1 3.5,-1.9 5.6,-2.4 2.1,-0.5 4.3,-0.7 6.7,-0.7 1.9,0 3.8,0.1 5.7,0.4 1.9,0.3 3.6,0.8 5.1,1.7 1.5,0.8 2.8,2 3.7,3.6 0.9,1.5 1.4,3.5 1.4,6 l 0,21.7 c 0,1.6 0.1,2.8 0.3,3.6 0.2,0.8 0.8,1.1 1.9,1.1 0.6,0 1.3,-0.1 2.1,-0.3 l 0,5.2 z m -11.3,-21.7 c -0.9,0.7 -2,1.1 -3.4,1.4 -1.4,0.3 -2.9,0.5 -4.5,0.7 -1.6,0.2 -3.1,0.4 -4.7,0.7 -1.6,0.2 -3,0.6 -4.3,1.2 -1.3,0.5 -2.3,1.3 -3.1,2.3 -0.8,1 -1.2,2.4 -1.2,4.1 0,1.1 0.2,2.1 0.7,2.9 0.5,0.8 1.1,1.4 1.8,1.9 0.7,0.5 1.6,0.8 2.6,1.1 1,0.2 2,0.3 3.1,0.3 2.3,0 4.3,-0.3 5.9,-0.9 1.6,-0.6 3,-1.4 4,-2.4 1,-0.9 1.8,-2 2.3,-3.1 0.5,-1.1 0.7,-2.2 0.7,-3.1 l 0,-7.1 z" inkscape:connector-curvature="0" style="fill:#ffffff" />
        <path id="path4198" d="m 275.1,388.1 0,6.7 0.2,0 c 2.9,-5.1 7.5,-7.7 13.7,-7.7 2.8,0 5.1,0.4 7,1.1 1.9,0.8 3.4,1.8 4.5,3.2 1.1,1.4 1.9,3 2.4,4.9 0.5,1.9 0.7,4 0.7,6.3 l 0,27.8 -7,0 0,-28.6 c 0,-2.6 -0.8,-4.7 -2.3,-6.2 -1.5,-1.5 -3.6,-2.3 -6.3,-2.3 -2.1,0 -4,0.3 -5.5,1 -1.6,0.7 -2.8,1.6 -3.9,2.8 -1,1.2 -1.8,2.6 -2.3,4.2 -0.5,1.6 -0.8,3.4 -0.8,5.3 l 0,23.9 -7,0 0,-42.3 6.6,0 z" inkscape:connector-curvature="0" style="fill:#ffffff" />
        <path id="path4200" d="m 318.4,420.9 c 0.7,1.1 1.5,1.9 2.6,2.5 1.1,0.6 2.3,1.1 3.6,1.3 1.3,0.3 2.7,0.4 4.1,0.4 1.1,0 2.2,-0.1 3.4,-0.2 1.2,-0.2 2.3,-0.5 3.3,-0.9 1,-0.4 1.8,-1.1 2.5,-1.9 0.7,-0.8 1,-1.9 1,-3.2 0,-1.8 -0.7,-3.2 -2,-4.1 -1.4,-0.9 -3.1,-1.7 -5.1,-2.2 -2,-0.5 -4.3,-1.1 -6.7,-1.6 -2.4,-0.5 -4.6,-1.1 -6.7,-2 -2,-0.8 -3.8,-2 -5.1,-3.6 -1.4,-1.5 -2,-3.7 -2,-6.4 0,-2.1 0.5,-4 1.4,-5.5 1,-1.5 2.2,-2.8 3.7,-3.7 1.5,-1 3.2,-1.7 5.1,-2.1 1.9,-0.5 3.7,-0.7 5.6,-0.7 2.4,0 4.6,0.2 6.6,0.6 2,0.4 3.8,1.1 5.4,2.1 1.6,1 2.8,2.4 3.7,4.1 0.9,1.7 1.5,3.9 1.6,6.4 l -7,0 c -0.1,-1.4 -0.5,-2.5 -1.1,-3.4 -0.6,-0.9 -1.4,-1.6 -2.3,-2.2 -0.9,-0.5 -2,-0.9 -3.1,-1.2 -1.1,-0.2 -2.2,-0.4 -3.4,-0.4 -1,0 -2.1,0.1 -3.1,0.2 -1.1,0.2 -2,0.5 -2.9,0.9 -0.9,0.4 -1.6,1 -2.1,1.6 -0.5,0.7 -0.8,1.6 -0.8,2.7 0,1.2 0.4,2.2 1.3,3 0.8,0.8 1.9,1.4 3.2,2 1.3,0.5 2.8,1 4.4,1.3 1.6,0.3 3.3,0.7 4.9,1.1 1.7,0.4 3.4,0.8 5.1,1.4 1.7,0.5 3.1,1.3 4.4,2.2 1.3,0.9 2.3,2 3.1,3.4 0.8,1.4 1.2,3.1 1.2,5.1 0,2.6 -0.5,4.7 -1.6,6.4 -1.1,1.7 -2.5,3.1 -4.2,4.1 -1.7,1 -3.7,1.8 -5.8,2.2 -2.2,0.4 -4.3,0.6 -6.4,0.6 -2.3,0 -4.6,-0.2 -6.7,-0.7 -2.1,-0.5 -4,-1.3 -5.6,-2.4 -1.6,-1.1 -2.9,-2.6 -3.9,-4.4 -1,-1.8 -1.5,-4 -1.6,-6.7 l 7,0 c 0,1.6 0.3,2.9 1,3.9 z" inkscape:connector-curvature="0" style="fill:#ffffff" />
        <path id="path4202" d="m 360.2,388.1 0,5.7 0.2,0 c 1.1,-2.3 2.9,-4 5.4,-5.1 2.5,-1.1 5.2,-1.6 8.1,-1.6 3.3,0 6.1,0.6 8.5,1.8 2.4,1.2 4.4,2.8 6.1,4.9 1.6,2 2.8,4.4 3.6,7.1 0.8,2.7 1.2,5.5 1.2,8.5 0,3 -0.4,5.8 -1.2,8.5 -0.8,2.7 -2,5 -3.6,7 -1.6,2 -3.6,3.6 -6.1,4.7 -2.4,1.1 -5.2,1.7 -8.5,1.7 -1,0 -2.2,-0.1 -3.5,-0.3 -1.3,-0.2 -2.5,-0.6 -3.8,-1.1 -1.3,-0.5 -2.4,-1.2 -3.6,-2 -1.1,-0.8 -2.1,-1.9 -2.8,-3.1 l -0.2,0 0,21.8 -7,0 0,-58.4 7.2,0 z m 24.9,15 c -0.5,-1.9 -1.3,-3.6 -2.4,-5 -1.1,-1.5 -2.4,-2.6 -4.1,-3.5 -1.7,-0.9 -3.6,-1.3 -5.8,-1.3 -2.3,0 -4.3,0.5 -6,1.4 -1.6,0.9 -3,2.1 -4,3.6 -1,1.5 -1.8,3.2 -2.2,5.1 -0.5,1.9 -0.7,3.8 -0.7,5.8 0,2.1 0.2,4.1 0.7,6 0.5,1.9 1.3,3.6 2.3,5.1 1.1,1.5 2.4,2.7 4.1,3.6 1.7,0.9 3.7,1.3 6.1,1.3 2.4,0 4.4,-0.5 6,-1.4 1.6,-0.9 2.9,-2.2 3.9,-3.7 1,-1.5 1.7,-3.3 2.1,-5.2 0.4,-2 0.7,-4 0.7,-6.1 0.1,-1.9 -0.1,-3.8 -0.7,-5.7 z" inkscape:connector-curvature="0" style="fill:#ffffff" />
        <path id="path4204" d="m 399.5,400.6 c 0.9,-2.7 2.2,-5 3.9,-7 1.7,-2 3.9,-3.6 6.5,-4.7 2.6,-1.1 5.5,-1.7 8.8,-1.7 3.4,0 6.3,0.6 8.9,1.7 2.5,1.1 4.7,2.7 6.4,4.7 1.7,2 3.1,4.3 3.9,7 0.9,2.7 1.3,5.6 1.3,8.7 0,3.1 -0.4,6 -1.3,8.7 -0.9,2.7 -2.2,5 -3.9,7 -1.7,2 -3.9,3.5 -6.4,4.7 -2.5,1.1 -5.5,1.7 -8.9,1.7 -3.3,0 -6.3,-0.6 -8.8,-1.7 -2.6,-1.1 -4.7,-2.7 -6.5,-4.7 -1.7,-2 -3.1,-4.3 -3.9,-7 -0.9,-2.7 -1.3,-5.6 -1.3,-8.7 0,-3.1 0.4,-6 1.3,-8.7 z m 7.1,15.5 c 0.7,2 1.6,3.7 2.8,5 1.2,1.3 2.6,2.4 4.2,3.1 1.6,0.7 3.3,1.1 5.1,1.1 1.8,0 3.5,-0.4 5.1,-1.1 1.6,-0.7 3,-1.7 4.2,-3.1 1.2,-1.3 2.1,-3 2.8,-5 0.7,-2 1,-4.3 1,-6.8 0,-2.6 -0.3,-4.8 -1,-6.8 -0.7,-2 -1.6,-3.7 -2.8,-5 -1.2,-1.4 -2.6,-2.4 -4.2,-3.1 -1.6,-0.7 -3.3,-1.1 -5.1,-1.1 -1.8,0 -3.5,0.4 -5.1,1.1 -1.6,0.7 -3,1.7 -4.2,3.1 -1.2,1.4 -2.1,3 -2.8,5 -0.7,2 -1,4.3 -1,6.8 0,2.5 0.3,4.8 1,6.8 z" inkscape:connector-curvature="0" style="fill:#ffffff" />
        <path id="path4206" d="m 452.7,388.1 0,8.9 0.2,0 c 1.7,-3.4 3.8,-6 6.2,-7.6 2.5,-1.6 5.6,-2.4 9.3,-2.3 l 0,7.4 c -2.8,0 -5.2,0.4 -7.1,1.1 -2,0.8 -3.5,1.9 -4.7,3.4 -1.2,1.5 -2.1,3.3 -2.6,5.4 -0.5,2.1 -0.8,4.5 -0.8,7.2 l 0,18.8 -7,0 0,-42.3 6.5,0 z" inkscape:connector-curvature="0" style="fill:#ffffff" />
        <path id="path4208" d="m 490.8,388.1 0,6.1 -8.4,0 0,26.3 c 0,0.8 0.1,1.5 0.2,2 0.1,0.5 0.4,0.9 0.8,1.1 0.4,0.3 0.9,0.4 1.6,0.5 0.7,0.1 1.6,0.1 2.7,0.1 l 3.2,0 0,6.1 -5.3,0 c -1.8,0 -3.3,-0.1 -4.6,-0.4 -1.3,-0.3 -2.3,-0.7 -3.1,-1.3 -0.8,-0.7 -1.4,-1.6 -1.8,-2.8 -0.4,-1.2 -0.6,-2.8 -0.6,-4.7 l 0,-26.9 -7.2,0 0,-6.1 7.2,0 0,-12.7 7,0 0,12.7 8.3,0 z" inkscape:connector-curvature="0" style="fill:#ffffff" />
      </g>
      <g transform="matrix(1.27,0,0,-1.27,-350.49,427.55)" id="g3093" style="fill:#ffffff">
        <g transform="matrix(1.0089,0,0,1.0089,362.12,-731.87)" id="g3551" style="fill:#ffffff">
          <g transform="translate(76.263,810.12)" id="g3111" style="fill:#ffffff">
            <path d="m -84.3,133.7 c -0.5,-1 -1,-1.6 -0.9,-2.3 0.1,-0.8 0.9,-1.3 1.2,-2.1 0.3,0.9 0.9,1.6 0.8,2.3 0.1,0.7 -0.9,1.6 -1.1,2.1" id="path3113" inkscape:connector-curvature="0" style="fill:#ffffff" />
          </g>
          <g transform="translate(80.777,810.12)" id="g3115" style="fill:#ffffff">
            <path d="m -75.6,133.7 c 0.5,-1 1,-1.6 0.9,-2.3 -0.1,-0.8 -0.9,-1.3 -1.2,-2.1 -0.3,0.9 -0.9,1.6 -0.8,2.3 0,0.7 0.9,1.6 1.1,2.1" id="path3117" inkscape:connector-curvature="0" style="fill:#ffffff" />
          </g>
          <g transform="translate(73.666,810.32)" id="g3119" style="fill:#ffffff">
            <path d="m -89.3,134.1 c 0.5,0 0.9,0.4 0.9,0.9 0,0.5 -0.4,0.9 -0.9,0.9 -0.5,0 -0.9,-0.4 -0.9,-0.9 0,-0.5 0.4,-0.9 0.9,-0.9" id="path3121" inkscape:connector-curvature="0" style="fill:#ffffff" />
          </g>
          <g transform="translate(73.87,809.88)" id="g3123" style="fill:#ffffff">
            <path d="m -88.9,133.2 c 0,0.5 -0.4,0.9 -0.9,0.9 -0.5,0 -0.9,-0.4 -0.9,-0.9 0,-0.5 0.4,-0.9 0.9,-0.9 0.5,0.1 0.9,0.4 0.9,0.9" id="path3125" inkscape:connector-curvature="0" style="fill:#ffffff" />
          </g>
          <g transform="translate(74.018,809.14)" id="g3127" style="fill:#ffffff">
            <path d="m -88.6,131.8 c 0,0.5 -0.4,0.9 -0.9,0.9 -0.5,0 -0.9,-0.4 -0.9,-0.9 0,-0.5 0.4,-0.9 0.9,-0.9 0.5,0 0.9,0.4 0.9,0.9" id="path3129" inkscape:connector-curvature="0" style="fill:#ffffff" />
          </g>
          <g transform="translate(75.354,811.77)" id="g3131" style="fill:#ffffff">
            <path d="m -86,136.9 c 0.5,0 0.9,0.4 0.9,0.9 0,0.5 -0.4,0.9 -0.9,0.9 -0.5,0 -0.9,-0.4 -0.9,-0.9 0,-0.5 0.4,-0.9 0.9,-0.9" id="path3133" inkscape:connector-curvature="0" style="fill:#ffffff" />
          </g>
          <g transform="translate(74.596,811.54)" id="g3135" style="fill:#ffffff">
            <path d="m -87.5,136.4 c 0.5,0 0.9,0.4 0.9,0.9 0,0.5 -0.4,0.9 -0.9,0.9 -0.5,0 -0.9,-0.4 -0.9,-0.9 0,-0.5 0.4,-0.9 0.9,-0.9" id="path3137" inkscape:connector-curvature="0" style="fill:#ffffff" />
          </g>
          <g transform="translate(74,811.02)" id="g3139" style="fill:#ffffff">
            <path d="m -88.6,135.4 c 0.5,0 0.9,0.4 0.9,0.9 0,0.5 -0.4,0.9 -0.9,0.9 -0.5,0 -0.9,-0.4 -0.9,-0.9 0,-0.5 0.4,-0.9 0.9,-0.9" id="path3141" inkscape:connector-curvature="0" style="fill:#ffffff" />
          </g>
          <g transform="translate(76.15,811.7)" id="g3143" style="fill:#ffffff">
            <path d="m -84.5,136.7 c 0.5,0 0.9,0.4 0.9,0.9 0,0.5 -0.4,0.9 -0.9,0.9 -0.5,0 -0.9,-0.4 -0.9,-0.9 0,-0.5 0.4,-0.9 0.9,-0.9" id="path3145" inkscape:connector-curvature="0" style="fill:#ffffff" />
          </g>
          <g transform="translate(76.906,811.48)" id="g3147" style="fill:#ffffff">
            <path d="m -83,136.3 c 0.5,0 0.9,0.4 0.9,0.9 0,0.5 -0.4,0.9 -0.9,0.9 -0.5,0 -0.9,-0.4 -0.9,-0.9 0,-0.5 0.4,-0.9 0.9,-0.9" id="path3149" inkscape:connector-curvature="0" style="fill:#ffffff" />
          </g>
          <g transform="translate(77.618,811.15)" id="g3151" style="fill:#ffffff">
            <path d="m -81.7,135.7 c 0.5,0 0.9,0.4 0.9,0.9 0,0.5 -0.4,0.9 -0.9,0.9 -0.5,0 -0.9,-0.4 -0.9,-0.9 0,-0.5 0.4,-0.9 0.9,-0.9" id="path3153" inkscape:connector-curvature="0" style="fill:#ffffff" />
          </g>
          <g transform="translate(83.059,810.62)" id="g3155" style="fill:#ffffff">
            <path d="m -71.2,134.7 c 0,-0.5 0.4,-0.9 0.9,-0.9 0.5,0 0.9,0.4 0.9,0.9 0,0.5 -0.4,0.9 -0.9,0.9 -0.5,0 -0.9,-0.4 -0.9,-0.9" id="path3157" inkscape:connector-curvature="0" style="fill:#ffffff" />
          </g>
          <g transform="translate(83.466,810.19)" id="g3159" style="fill:#ffffff">
            <path d="m -70.4,133.8 c -0.5,0 -0.9,-0.4 -0.9,-0.9 0,-0.5 0.4,-0.9 0.9,-0.9 0.5,0 0.9,0.4 0.9,0.9 0,0.5 -0.4,0.9 -0.9,0.9" id="path3161" inkscape:connector-curvature="0" style="fill:#ffffff" />
          </g>
          <g transform="translate(83.317,809.45)" id="g3163" style="fill:#ffffff">
            <path d="m -70.7,132.4 c -0.5,0 -0.9,-0.4 -0.9,-0.9 0,-0.5 0.4,-0.9 0.9,-0.9 0.5,0 0.9,0.4 0.9,0.9 0,0.5 -0.4,0.9 -0.9,0.9" id="path3165" inkscape:connector-curvature="0" style="fill:#ffffff" />
          </g>
          <g transform="translate(81.677,811.77)" id="g3167" style="fill:#ffffff">
            <path d="m -73.8,136.9 c 0.5,0 0.9,0.4 0.9,0.9 0,0.5 -0.4,0.9 -0.9,0.9 -0.5,0 -0.9,-0.4 -0.9,-0.9 0,-0.5 0.4,-0.9 0.9,-0.9" id="path3169" inkscape:connector-curvature="0" style="fill:#ffffff" />
          </g>
          <g transform="translate(82.435,811.54)" id="g3171" style="fill:#ffffff">
            <path d="m -72.4,136.4 c 0.5,0 0.9,0.4 0.9,0.9 0,0.5 -0.4,0.9 -0.9,0.9 -0.5,0 -0.9,-0.4 -0.9,-0.9 0,-0.5 0.4,-0.9 0.9,-0.9" id="path3173" inkscape:connector-curvature="0" style="fill:#ffffff" />
          </g>
          <g transform="translate(83.031,811.02)" id="g3175" style="fill:#ffffff">
            <path d="m -71.2,135.4 c 0.5,0 0.9,0.4 0.9,0.9 0,0.5 -0.4,0.9 -0.9,0.9 -0.5,0 -0.9,-0.4 -0.9,-0.9 0,-0.5 0.4,-0.9 0.9,-0.9" id="path3177" inkscape:connector-curvature="0" style="fill:#ffffff" />
          </g>
          <g transform="translate(80.88,811.7)" id="g3179" style="fill:#ffffff">
            <path d="m -75.4,136.7 c 0.5,0 0.9,0.4 0.9,0.9 0,0.5 -0.4,0.9 -0.9,0.9 -0.5,0 -0.9,-0.4 -0.9,-0.9 0,-0.5 0.4,-0.9 0.9,-0.9" id="path3181" inkscape:connector-curvature="0" style="fill:#ffffff" />
          </g>
          <g transform="translate(80.124,811.48)" id="g3183" style="fill:#ffffff">
            <path d="m -76.8,136.3 c 0.5,0 0.9,0.4 0.9,0.9 0,0.5 -0.4,0.9 -0.9,0.9 -0.5,0 -0.9,-0.4 -0.9,-0.9 0,-0.5 0.4,-0.9 0.9,-0.9" id="path3185" inkscape:connector-curvature="0" style="fill:#ffffff" />
          </g>
          <g transform="translate(79.108,811.45)" id="g3187" style="fill:#ffffff">
            <path d="m -78.8,136.3 c 0,-0.5 0.4,-0.9 0.9,-0.9 0.5,0 0.9,0.4 0.9,0.9 0,0.5 -0.4,0.9 -0.9,0.9 -0.5,0 -0.9,-0.4 -0.9,-0.9" id="path3189" inkscape:connector-curvature="0" style="fill:#ffffff" />
          </g>
          <g transform="translate(77.995,809.8)" id="g3191" style="fill:#ffffff">
            <path d="m -80.9,133.1 1,0 0,3.8 c -0.4,0.1 -0.7,0.2 -1,0.3 l 0,-4.1 z" id="path3193" inkscape:connector-curvature="0" style="fill:#ffffff" />
          </g>
          <g transform="translate(79.037,811.21)" id="g3195" style="fill:#ffffff">
            <path d="m -78.9,135.8 c -0.3,-0.1 -0.6,-0.3 -1,-0.3 l 0,-3.8 1,0 0,4.1 z" id="path3197" inkscape:connector-curvature="0" style="fill:#ffffff" />
          </g>
          <g transform="translate(78.32,812.66)" id="g3199" style="fill:#ffffff">
            <path d="m -80.3,138.6 0,2.3 c -1.1,-0.2 -2,-1.1 -2.2,-2.3 l 2.2,0 z" id="path3201" inkscape:connector-curvature="0" style="fill:#ffffff" />
          </g>
          <g transform="translate(78.716,812.66)" id="g3203" style="fill:#ffffff">
            <path d="m -79.6,138.6 2.2,0 c -0.2,1.1 -1.1,2 -2.2,2.3 l 0,-2.3 z" id="path3205" inkscape:connector-curvature="0" style="fill:#ffffff" />
          </g>
          <g transform="translate(77.579,812.28)" id="g3207" style="fill:#ffffff">
            <path d="m -81.7,137.9 c 0.3,-1.3 1.4,-2.2 2.7,-2.2 1.3,0 2.5,0.9 2.7,2.2 l -5.4,0 z" id="path3209" inkscape:connector-curvature="0" style="fill:#ffffff" />
          </g>
          <g transform="translate(79.04,813.55)" id="g3211" style="fill:#ffffff">
            <path d="m -78.9,140.3 c -0.6,0.5 -1.1,1.2 -1.2,2 0.7,-0.1 1.5,-0.7 2,-1.3 l 0,3.1 c -0.5,-0.6 -1.3,-1.2 -2,-1.3 0.1,0.7 0.5,1.4 1.2,2.2 l -3,0 c 0.6,-0.8 1.1,-1.5 1.2,-2.2 -0.7,0.1 -1.5,0.7 -2,1.3 l 0,-3.1 c 0.5,0.6 1.3,1.2 2,1.3 -0.1,-0.8 -0.6,-1.5 -1.2,-2 l 3,0 z" id="path3213" inkscape:connector-curvature="0" style="fill:#ffffff" />
          </g>
          <g transform="translate(80.163,792.6)" id="g3215" style="fill:#ffffff">
            <path d="m -76.8,99.9 c -2.8,0.7 -6.2,1.9 -9.3,3.3 l 0,0 c 0.1,0.6 -0.1,1.3 -0.6,1.9 -0.5,0.6 -1.1,0.9 -1.8,0.9 -0.3,0 -0.6,-0.1 -0.9,-0.2 -0.5,0.4 -0.9,0.8 -1.3,1.3 -1.2,1.4 -2.1,3 -2.8,4.8 -0.4,1 -0.6,2.1 -0.8,3.2 -0.1,-0.9 -1.2,-2.1 -2.9,-2.1 0,0.2 0,0.6 -0.2,0.7 -0.5,-0.5 -1.2,-1.1 -2.7,-0.5 0.2,-1.2 0.6,-2.5 1,-3.6 0.9,-2.5 2.3,-4.8 4,-6.8 0.6,-0.6 1.2,-1.2 1.8,-1.8 0,-0.1 0,-0.2 0,-0.4 0,-0.7 0.6,-1.7 1.5,-2.2 0.7,-0.4 1.6,-0.3 2.3,0.3 1.4,-0.7 3.1,-1.4 5,-1.9 2.1,-0.6 4.1,-0.9 5.7,-0.9 1.4,0 3.2,0.6 5,1.8 0.7,0.5 1.4,1 1.9,1.4 0.1,0.1 0.1,0.1 0.2,0.2 -1.3,-0.2 -3.3,0.2 -5.1,0.6 m -10.3,4.3 -0.3,0.2 c -0.5,0.4 -1,0.4 -1.5,0 -0.2,-0.2 -0.4,-0.4 -0.6,-0.7 l -0.3,-0.3 0.2,-0.2 c 0.6,-0.5 0.7,-1 0.5,-1.3 -0.1,-0.1 -0.2,-0.2 -0.3,-0.2 -0.3,-0.1 -0.7,0 -1.1,0.3 l -0.2,0.1 -0.1,-0.2 c 0,-0.1 -0.1,-0.1 -0.1,-0.2 0,-0.1 -0.1,-0.1 -0.2,-0.2 -0.2,-0.4 -0.4,-0.8 -0.4,-1 0,-0.1 0,-0.1 0,-0.2 0.1,-0.3 0.3,-0.5 0.6,-0.6 l 0.1,-0.1 c 0.3,-0.2 0.6,-0.4 0.9,-0.5 -0.5,-0.3 -1,-0.3 -1.5,-0.1 -0.8,0.4 -1.3,1.3 -1.3,1.7 0,0.7 0.3,1.5 0.8,2.4 l 0.1,0.1 -0.1,0.1 c -0.2,0.3 -0.3,0.5 -0.4,0.8 0.3,0 0.6,-0.1 0.9,-0.2 l 0.1,0 0.1,0.1 c 0.3,0.4 1.5,1.6 2.6,1.6 0.5,0 1,-0.3 1.4,-0.7 0.3,-0.3 0.5,-0.7 0.5,-1.1 0,0.1 -0.2,0.2 -0.4,0.4 m 1.9,-5.4 c -0.7,0 -1.2,0.5 -1.2,1.2 0,0.7 0.5,1.2 1.2,1.2 0.7,0 1.2,-0.5 1.2,-1.2 0,-0.7 -0.6,-1.2 -1.2,-1.2 m 5.2,-1.6 c -0.6,0 -1.1,0.5 -1.1,1.1 0,0.6 0.5,1.1 1.1,1.1 0.6,0 1.1,-0.5 1.1,-1.1 0,-0.6 -0.5,-1.1 -1.1,-1.1" id="path3217" inkscape:connector-curvature="0" style="fill:#ffffff" />
          </g>
          <g transform="translate(79.564,789.77)" id="g3219" style="fill:#ffffff">
            <path d="m -77.9,94.5 c -0.2,0 -0.4,0 -0.6,-0.1 l 0,3.4 c -1.5,0 -3.2,0.3 -4.9,0.7 l 0,-4.1 c -0.2,0.1 -0.4,0.1 -0.6,0.1 -1.2,0 -1.9,-1 -1.9,-1.9 0,-0.9 0.5,-1.7 1,-2.2 0.2,0.5 0.4,0.9 0.7,0.9 0.6,0 0.3,-2.9 2,-3 -0.1,-0.1 -0.1,-0.3 -0.1,-0.5 0,-0.7 0.6,-1.3 1.3,-1.3 0.7,0 1.3,0.6 1.3,1.3 0,0.2 0,0.3 -0.1,0.5 1.7,0.1 1.4,3 2,3 0.3,0 0.5,-0.4 0.7,-0.9 0.4,0.5 0.9,1.3 0.9,2.2 0.2,0.9 -0.5,1.9 -1.7,1.9 m -3.1,-7.4 c -0.4,0 -0.7,0.3 -0.7,0.7 0,0.4 0.3,0.7 0.7,0.7 0.4,0 0.7,-0.3 0.7,-0.7 0.1,-0.3 -0.2,-0.7 -0.7,-0.7 m 4,4.3 c -0.2,0.4 -0.5,0.6 -0.8,0.6 -1.2,0 -0.7,-3 -2.1,-3 -0.6,0 -0.9,0.4 -0.9,0.8 0,0.4 0.3,0.6 0.3,0.9 0,0.3 -0.3,0.5 -0.6,0.5 -0.3,0 -0.6,-0.1 -0.6,-0.5 0,-0.3 0.3,-0.5 0.3,-0.9 0,-0.4 -0.3,-0.8 -0.9,-0.8 -1.4,0 -0.9,3 -2.1,3 -0.3,0 -0.6,-0.2 -0.8,-0.6 -0.2,0.4 -0.4,0.9 -0.4,1.2 0,0.6 0.4,1.3 1.3,1.3 1.5,0 1.2,-2.1 1.9,-2.1 0.3,0 0.6,0.2 0.6,0.5 0,0.6 -1.1,1.2 -1.1,2 0,0.8 0.8,1.6 1.6,2.3 0.9,-0.7 1.6,-1.4 1.6,-2.3 0,-0.9 -1.1,-1.4 -1.1,-2 0,-0.3 0.2,-0.5 0.6,-0.5 0.7,0 0.4,2.1 1.9,2.1 0.9,0 1.3,-0.8 1.3,-1.3 0.4,-0.3 0.3,-0.8 0,-1.2" id="path3221" inkscape:connector-curvature="0" style="fill:#ffffff" />
          </g>
          <g transform="translate(93.051,788.39)" id="g3223" style="fill:#ffffff">
            <path d="m -51.9,91.8 c -0.1,0.2 -0.3,0.3 -0.4,0.2 -3.9,-1.1 -8.8,2.1 -13.5,5.3 -4,2.6 -7.7,5.1 -10.9,5.1 -1.2,0 -2.2,-0.3 -3.2,-0.7 -1.1,-0.6 -2,-1.6 -2.5,-2.9 -0.5,-1.3 -1.1,-2.2 -1.6,-2.9 -0.5,-0.9 -0.9,-1.5 -0.9,-2.3 0,-0.6 0.3,-1.2 0.8,-1.8 0.5,-0.5 1.1,-0.9 2.1,-1.4 0.2,-0.1 0.4,-0.2 0.6,-0.3 0.8,-0.4 1.3,-0.6 1.4,-1.1 -1.6,-0.7 -3.6,-1.3 -5.9,-1.7 -2.6,-0.5 -5.4,-0.7 -8.4,-0.7 -3,0 -5.8,0.2 -8.4,0.7 -2.3,0.4 -4.3,1 -5.9,1.7 0.1,0.7 0.5,0.9 1.4,1.3 0.2,0.1 0.4,0.2 0.6,0.3 0.8,0.4 1.5,0.8 2,1.3 0.6,0.5 0.8,1 0.8,1.7 0,0.8 -0.4,1.4 -0.9,2.3 -0.5,0.7 -1,1.6 -1.6,2.9 -0.5,1.3 -1.4,2.3 -2.5,2.9 -0.9,0.5 -2,0.7 -3.1,0.7 -3.2,0 -7,-2.5 -11,-5.2 -4.7,-3.1 -9.6,-6.4 -13.5,-5.3 -0.2,0.1 -0.4,0 -0.4,-0.2 -0.1,-0.2 0,-0.4 0.2,-0.5 1.2,-0.5 2.3,-1.4 3.3,-2.1 1.4,-1.1 2.8,-2.2 4.2,-2.2 1.4,0 2.9,0.4 4.7,1.4 1.6,0.8 3.2,1.9 4.8,3 3.1,2.1 6.3,4.3 9.4,4.6 -0.3,-0.3 -0.6,-0.6 -0.9,-0.9 -0.9,-0.8 -1.7,-1.5 -1.7,-2.9 0,-1.1 0.4,-1.9 0.9,-3 0.2,-0.3 0.3,-0.7 0.5,-1.1 0.3,-0.8 0.5,-1.4 0.7,-2.2 0.1,-0.4 0.2,-0.8 0.3,-1.2 0.2,-0.7 0.6,-2.1 2.8,-3.2 2.6,-1.3 7.1,-2 13.3,-2 6.2,0 10.7,0.7 13.3,2 2.2,1.1 2.6,2.5 2.8,3.2 0.1,0.5 0.2,0.9 0.3,1.2 0.2,0.8 0.3,1.4 0.7,2.2 0.2,0.6 0.5,1 0.7,1.4 0.5,0.9 0.8,1.6 0.8,2.6 0,1.4 -0.8,2.1 -1.8,3 -0.3,0.3 -0.6,0.6 -1,0.9 3.1,-0.2 6.3,-2.4 9.4,-4.6 1.6,-1.1 3.2,-2.2 4.8,-3 1.8,-1 3.3,-1.4 4.7,-1.4 1.5,0 2.8,1 4.2,2.2 1,0.8 2.1,1.6 3.3,2.1 0.1,0.2 0.2,0.4 0.2,0.6" id="path3225" inkscape:connector-curvature="0" style="fill:#ffffff" />
          </g>
          <g transform="translate(84.97,799.15)" id="g3227" style="fill:#ffffff">
            <path d="m -67.5,112.6 c -0.4,0.3 -1.1,1 -1.5,1.8 -0.5,1 -2.4,4.8 -2.7,5.3 -0.3,0.4 -0.4,0.8 -0.4,1.1 0,0.4 0.2,0.7 0.4,1 0.2,0.2 0.6,0.6 0.7,0.9 0.1,0.2 0.2,0.3 0.3,0.5 -0.7,1.2 -1.4,2.2 -2.4,3.2 -1.1,1.3 -2.4,2.4 -3.8,3.3 0.7,0.5 1.5,1.2 1.5,2.4 0,0.7 -0.3,1.2 -0.8,1.7 0.8,2.5 2.2,5.6 3.4,6.9 l -2.5,1.1 c 0.7,-1 0.7,-2.2 0.6,-2.9 -0.7,0.5 -1.2,1.1 -1.4,1.9 -0.1,-0.8 -0.5,-2 -0.9,-2.7 0.7,0.3 1.3,0.5 2.1,0.2 -0.4,-0.6 -1.5,-1.5 -3.2,-1.1 -0.9,0.2 -1.8,0.7 -1.8,1.4 0,0.4 0.3,0.9 0.9,0.9 0.6,-0.1 0.6,-0.9 0.4,-1.3 0.7,0.4 1.5,2.5 0.3,2.8 -0.9,0.2 -1.7,-1 -2,-1.9 -0.2,1.1 -0.6,2.2 -1.5,2.2 -1.2,-0.1 -0.8,-2.2 -0.4,-2.8 0.1,0.8 0.5,1.2 0.8,1.1 0.3,0 0.7,-0.2 0.6,-0.9 -0.1,-0.7 -1,-1.1 -2.2,-1.1 -1.1,0 -2.9,0.3 -3.1,2.4 0.7,-0.1 1.8,-0.7 2.2,-1.3 -0.1,1.2 -0.1,2.1 0,3.4 -0.6,-0.8 -1.5,-1.2 -2.2,-1.3 0.2,0.9 1,1.8 1.8,2.4 l -4.6,0 c 0.9,-0.6 1.6,-1.5 1.8,-2.4 -0.7,0.1 -1.6,0.5 -2.2,1.3 0.1,-1.3 0.1,-2.2 0,-3.4 0.5,0.7 1.5,1.2 2.2,1.3 -0.2,-2.1 -2.1,-2.4 -3.1,-2.4 -1.1,0 -2.1,0.4 -2.2,1.1 -0.1,0.7 0.3,0.9 0.7,0.9 0.3,0 0.8,-0.4 0.8,-1.1 0.4,0.5 0.8,2.7 -0.4,2.8 -0.9,0.1 -1.4,-1 -1.5,-2.2 -0.3,0.9 -1.1,2.2 -2,1.9 -1.1,-0.3 -0.4,-2.4 0.3,-2.8 -0.2,0.4 -0.1,1.2 0.4,1.3 0.6,0.1 0.9,-0.4 0.9,-0.9 0,-0.7 -0.9,-1.2 -1.8,-1.4 -1.7,-0.4 -2.7,0.5 -3.2,1.1 0.8,0.3 1.3,0.2 2.1,-0.2 -0.4,0.7 -0.8,2 -0.9,2.7 -0.2,-0.8 -0.8,-1.5 -1.4,-1.9 -0.1,0.7 -0.1,1.9 0.6,2.9 l -2.5,-1.1 c 1.2,-1.3 2.6,-4.4 3.4,-6.9 -0.5,-0.4 -0.8,-1 -0.8,-1.6 0,-1.2 0.8,-1.9 1.5,-2.4 -1.4,-0.9 -2.7,-2 -3.8,-3.3 -1.7,-1.9 -3.1,-4.2 -4,-6.7 0.4,-0.4 1.9,-2 2.2,-2.5 0.6,-0.8 1,-1.6 1,-2.2 0,-1.1 0.3,-1.6 0.9,-2.4 0.2,-0.2 0.5,-1.1 0.5,-1.7 l 12.6,0 0,-13.8 c -0.5,0 -1,-0.2 -1.4,-0.7 1.5,-0.6 2.8,-1.1 4.2,-1.5 0.1,0.9 0.3,1.4 0.8,2 0,0 -1.8,0.2 -2.8,0.2 l 0,13.7 12.3,0 c 0,-1.9 -0.4,-3.7 -1,-5.4 -0.6,-1.8 -1.6,-3.4 -2.8,-4.8 -1.2,-1.4 -2.5,-2.5 -4.1,-3.2 -0.2,-0.1 -0.2,-0.3 -0.5,-0.4 -0.2,-0.2 -0.4,-0.6 -0.6,-1.1 -0.2,-0.4 -0.2,-0.7 -0.3,-1.2 0.6,-0.2 0.9,-0.3 1.4,-0.4 4.3,-1.1 5.4,-0.8 5.6,-0.6 l 0,0 c 1,0.7 1.9,1.6 2.7,2.5 1.7,2 3.1,4.2 4,6.8 1,2.6 1.5,5.4 1.5,8.3 0.3,0.5 0.3,0.6 0.3,1.2 m -19.1,-1 -12.6,0 c 0,1.9 0.4,3.8 1,5.6 0.6,1.8 1.6,3.4 2.8,4.8 1.2,1.4 2.6,2.5 4.1,3.2 1.5,0.7 3.1,1.1 4.7,1.2 0,0 0,-14.8 0,-14.8 z m 0.2,21 c -4.2,0 -7.1,-1.2 -8.8,-2.4 -1,0.6 -1.4,1.1 -1.4,1.8 0,2.4 6.7,2.6 10.1,2.6 l 0,0 0,0 c 3.4,0 10.1,-0.2 10.1,-2.6 0,-0.7 -0.4,-1.2 -1.4,-1.8 -1.5,1.1 -4.4,2.4 -8.6,2.4 m 0.6,-21 0,14.8 c 1.5,-0.1 3,-0.4 4.4,-1.1 1.5,-0.8 2.9,-1.8 4.1,-3.2 1.2,-1.4 2.1,-3 2.8,-4.8 0.6,-1.8 1,-3.7 1,-5.6 -0.1,-0.1 -12.3,-0.1 -12.3,-0.1 z" id="path3229" inkscape:connector-curvature="0" style="fill:#ffffff" />
          </g>
          <g transform="translate(82.233,799.65)" id="g3231" style="fill:#ffffff">
            <path d="m -72.8,113.5 c 0.2,-0.1 0.1,-0.5 -0.1,-0.4 -0.3,2.2 -1.1,4.4 -2.4,6.2 l 0,0 c 0.2,0.1 0.5,0.3 0.5,0.6 -0.4,0 -0.6,-0.1 -0.8,-0.3 -0.1,0.1 -0.2,0.2 -0.3,0.3 -0.8,1 -1.7,1.8 -2.7,2.5 -0.9,0.6 -1.9,1.1 -3,1.4 0,0.2 0.3,0.3 0.5,0.1 0,0.4 -0.3,0.6 -0.5,0.5 -0.1,0 -0.2,-0.1 -0.2,-0.3 -0.1,0.1 -0.3,0.3 -0.6,0.3 0,-0.3 0.1,-0.4 0.2,-0.6 -0.2,0 -0.3,-0.1 -0.3,-0.2 -0.1,-0.2 0,-0.5 0.4,-0.6 -0.2,0.2 -0.1,0.5 0.1,0.4 l 0,-4.8 c -0.2,0.1 -0.5,0 -0.8,-0.2 0.3,-0.3 0.6,-0.3 0.8,-0.2 l 0,-5.2 c -0.3,0 -0.3,0.3 -0.1,0.4 -0.4,0 -0.6,-0.4 -0.5,-0.5 0.1,-0.1 0.2,-0.2 0.4,-0.2 -0.1,-0.1 -0.2,-0.3 -0.2,-0.6 0.2,0 0.4,0.1 0.5,0.2 0,-0.2 0.1,-0.3 0.2,-0.4 0.2,-0.1 0.5,0.1 0.5,0.5 -0.1,-0.2 -0.5,-0.1 -0.5,0.1 l 3.6,0 c -0.1,-0.2 0,-0.5 0.2,-0.8 0.2,0.3 0.3,0.6 0.2,0.8 l 4,0 c 0,-0.3 -0.3,-0.3 -0.4,-0.1 0,-0.4 0.4,-0.5 0.5,-0.5 0.1,0.1 0.2,0.2 0.2,0.4 0.1,-0.1 0.3,-0.2 0.6,-0.2 0,0.2 -0.1,0.4 -0.2,0.5 0.2,0 0.3,0.1 0.4,0.2 0.4,0.4 0.2,0.7 -0.2,0.7 m -3.4,6.4 c -0.1,-0.1 -0.2,-0.2 -0.1,-0.3 0,-0.1 0.1,-0.2 0.4,-0.2 -0.1,-0.1 -0.2,-0.3 -0.3,-0.5 0.2,0 0.4,0 0.6,0.1 0,-0.2 0,-0.3 0.1,-0.4 0.1,-0.1 0.2,-0.1 0.3,0 0.9,-1.5 1.6,-3.2 1.8,-5 -0.1,0.1 -0.3,0.1 -0.5,0.1 0,-0.3 0.1,-0.4 0.2,-0.6 l -3.1,0 c 0,0.2 -0.1,0.4 -0.2,0.4 -0.1,0 -0.3,0 -0.4,-0.1 0,0.2 -0.1,0.4 -0.2,0.5 -0.2,-0.2 -0.2,-0.4 -0.2,-0.5 -0.1,0.2 -0.3,0.2 -0.4,0.1 -0.1,0 -0.2,-0.2 -0.2,-0.4 l -2.6,0 c 0.1,0.1 0.2,0.3 0.2,0.5 -0.2,0 -0.4,-0.1 -0.5,-0.2 l 0,4.2 c 0.2,0 0.4,0.1 0.4,0.2 0,0.1 0,0.3 -0.1,0.4 0.2,0 0.4,0.1 0.5,0.2 -0.2,0.2 -0.4,0.2 -0.5,0.2 0.2,0.1 0.2,0.3 0.1,0.4 0,0.1 -0.2,0.2 -0.4,0.2 l 0,3.6 c 0.1,-0.1 0.3,-0.2 0.5,-0.2 0,0.2 0,0.4 -0.1,0.5 0.8,-0.3 1.6,-0.7 2.4,-1.2 0.7,-0.4 1.5,-1.1 2.3,-2" id="path3233" inkscape:connector-curvature="0" style="fill:#ffffff" />
          </g>
          <g transform="translate(81.498,800.11)" id="g3235" style="fill:#ffffff">
            <path d="m -74.2,114.4 c 0.2,0.1 0.3,0.2 0.3,0.3 -0.2,-0.1 -0.3,0 -0.3,0 0.1,0.1 0.3,0 0.1,0.2 -0.1,0.2 -0.2,0.2 -0.4,0.1 -0.1,-0.2 -1.1,0 -1.1,0.8 0.1,-0.1 0.2,-0.2 0.3,-0.3 0,0 0.1,0 0.1,-0.1 l 0.1,0 c 0.1,0 0.2,0 0.3,0 0,0 0,0 0.1,0 l 0,0 c 0.2,0 0.4,0.2 0.4,0.4 0,0.4 -0.3,0.6 -0.8,0.9 -0.2,0.1 -0.3,0.3 -0.4,0.4 -0.1,0.3 0,0.6 -0.4,1.1 0,0.1 0,0.3 -0.1,0.5 -0.2,-0.3 -0.3,-1 0.2,-1.5 0.4,-0.5 1.3,-0.9 1.2,-1.3 0,-0.1 -0.1,-0.2 -0.2,-0.2 l -0.1,0 c 0,0 0,0 -0.1,0 -0.1,0 -0.1,0 -0.2,0.1 -0.1,0.1 -0.2,0.1 -0.3,0.2 -0.4,0.3 -0.7,0.8 -0.9,1.1 -0.4,0.5 -0.2,1 -0.2,1.4 0.3,0.4 -0.2,1.2 -0.4,1.4 0,0 0.1,0.2 0,0.4 -0.1,0 -0.2,0 -0.2,0 -0.1,0.1 -0.1,0.2 -0.2,0.2 -0.2,0 -0.2,0.1 -0.2,0.2 -0.1,-0.1 -0.1,-0.2 -0.2,-0.2 -0.1,0 -0.2,0 -0.3,0 -0.1,-0.1 -0.1,-0.1 -0.3,-0.1 -0.2,0 -0.2,-0.1 -0.1,-0.2 0,-0.1 0,-0.2 0.1,-0.2 l 0,0 0.1,-0.2 0.1,0.2 c 0.1,0.1 0.3,0.1 0.3,-0.1 0,-0.1 0,-0.1 -0.1,-0.2 -0.1,0 -0.2,0 -0.4,0 -0.1,0 -0.1,-0.1 -0.1,-0.2 0,-0.1 0.1,-0.1 0.3,-0.1 0.2,0 0.5,0.1 0.5,-0.1 0,-0.4 -0.5,-0.4 -0.6,-0.9 -0.1,0.1 -0.2,0.2 -0.3,0.3 -0.1,0.1 -0.2,0.3 -0.4,0.5 -0.1,0.1 -0.2,0.2 -0.4,0.3 -0.2,0.1 -0.2,0.2 -0.2,0.4 0,0.2 0.1,0.3 0.1,0.4 l 0,0.1 c 0,0.1 -0.2,0.2 -0.2,0.1 0,0 0.1,-0.1 0.1,-0.2 l -0.1,-0.1 0,-0.1 0,0 c 0,0 0,0 0,-0.1 l 0,0 c 0,0.1 -0.1,0.3 -0.2,0.3 0,0 0,0 -0.1,0 l 0,0 c 0,0.1 -0.1,0.2 -0.3,0.1 l 0.1,0 0,-0.1 c 0,-0.1 0.1,-0.2 0.2,-0.2 l 0,0 0,0 0,0 c -0.2,0.1 -0.3,0 -0.3,-0.1 l 0,-0.1 c -0.1,0 -0.1,-0.2 0,-0.2 l 0,0.1 0,0 c 0,0 0,0 0.1,-0.1 0,0 0,0 0.1,0 l 0,0 c 0,0 0,0 0.1,0 l 0,0 c -0.1,-0.1 -0.1,-0.2 0,-0.3 -0.1,-0.1 -0.3,-0.1 -0.3,0.1 -0.2,-0.3 0.1,-0.5 0.3,-0.4 0,-0.1 0,-0.3 0,-0.3 0,0 0,0.1 0.1,0.1 l 0,0 c 0,-0.1 0,-0.1 0.1,-0.2 l 0,0.1 c 0,-0.1 0.1,-0.1 0.1,-0.2 0.1,-0.2 0.3,-0.7 0.9,-0.9 -0.3,-0.2 -0.4,-0.4 -0.6,-0.6 -0.1,-0.1 -0.4,-0.3 -0.5,-0.2 -0.1,0 -0.1,0.1 -0.2,0.2 -0.1,0 -0.1,0.1 -0.2,0 l -0.1,0 c -0.1,0 -0.2,0 -0.3,-0.1 0.1,0 0.1,0 0.2,0 l 0,-0.1 c 0,-0.1 0,-0.1 0.3,-0.1 l 0,0 c 0,0 -0.1,-0.1 -0.1,0 -0.1,0 -0.2,0.1 -0.3,0 0,0 0,0 -0.1,-0.1 l 0,0 c -0.1,0 -0.2,-0.2 -0.1,-0.3 0,0 0,0.1 0.1,0.2 0,0 0,-0.1 0.1,-0.1 0.1,-0.1 0.2,-0.2 0.3,0.1 l 0,0 c 0,-0.1 -0.1,-0.3 0,-0.3 0,0 0,0 0.1,0 l 0,0 c 0,-0.1 0.2,-0.2 0.3,-0.1 -0.1,0 -0.1,0.1 -0.2,0.2 l 0.1,0 c 0.1,0.1 0,0.2 0,0.3 l 0,0 c 0,-0.1 0.1,-0.2 0.3,-0.1 0.1,0 0.1,0.1 0.1,0.2 0.2,0.1 0.3,0.1 0.5,0.1 0,0.1 0.1,0.2 0.3,0.3 0.2,0.1 0.3,0 0.3,-0.1 0,0.1 0.1,0.2 0.2,0.3 0,-0.8 1,-0.7 1.3,-1.2 -0.3,0.1 -0.7,0.2 -0.8,0.2 -0.3,0 -0.7,-0.3 -0.7,-0.6 0,-0.2 0.2,-0.7 0.4,-0.8 -0.3,-0.1 -0.4,0 -0.7,0 l 0,0 c -0.2,0 -0.3,0.4 -0.5,0.3 0,0 -0.1,0 -0.1,-0.1 l 0,0 c -0.1,0 -0.3,-0.1 -0.2,-0.2 0,0 0.1,0.1 0.2,0.1 l 0,-0.1 c 0,0 0,-0.1 0.1,-0.1 0.1,0 0.1,0 0.1,0 l 0,0 c 0,-0.1 -0.3,0.1 -0.3,-0.2 0,0 0,-0.1 0.1,-0.1 0,-0.1 0.1,-0.2 0.2,-0.1 l -0.1,0.1 0.1,0 0,0 0,0 0,0 c 0,0 0,0 0,-0.1 l 0,-0.1 c 0,-0.1 0.1,-0.2 0.3,-0.1 0,0 -0.1,0 -0.1,0.1 l 0.1,0 0,0.1 0,0 0.1,0 0,0 c 0,-0.1 0.1,-0.1 0.2,-0.1 0.1,0 0.1,0.1 0.1,0.1 0,0 0.1,0 0.1,-0.1 0,0.1 0,0.2 0.3,0 l 0.2,0.1 c 0,0 0.2,-0.1 0.3,0 0.1,0.1 0.1,0.1 0.1,0.3 -0.1,0.2 -0.2,0.2 -0.2,0.4 -0.1,0.4 0.5,0.6 0.8,0.5 0.1,-0.2 0.4,-0.9 1,-1.1 0.4,-0.1 0.5,0.3 0.6,0.2 0,0 0,0 0.1,-0.1 0,-0.2 0,-0.3 0,-0.4 0,-0.1 -0.2,0 -0.4,0 -0.1,0 -0.1,0 -0.1,-0.1 -0.1,0 -0.2,-0.1 -0.2,-0.2 0,0 0.1,0.1 0.2,0.1 0,0 0,0 0,-0.1 0,-0.1 0.2,-0.2 0.3,-0.1 0,0 0.1,0 0,0 -0.1,-0.1 -0.2,-0.2 -0.1,-0.3 0,0 0,0 0.1,0 0,-0.1 0.1,-0.2 0.1,-0.2 0,0 0,0.1 0,0.2 l 0.1,0 c 0.1,0 0.1,0.2 0.2,0.2 l 0,0 c 0,-0.1 -0.1,-0.2 0,-0.3 0,0 0,0 0.1,0 0,-0.1 0.1,-0.1 0.3,-0.1 0,0 -0.1,0 -0.1,0.1 l 0.1,0.1 c 0.1,0.2 -0.1,0.2 -0.1,0.3 0,0.1 0.2,0 0.2,0.3 l 0,0 c 0.1,0.1 0.2,0.1 0.3,0.2 0.2,-0.1 0,0 0,0 l 0,0 z" id="path3237" inkscape:connector-curvature="0" style="fill:#ffffff" />
          </g>
          <g transform="translate(77.963,797.74)" id="g3239" style="fill:#ffffff">
            <path d="m -81,109.8 -0.2,0 0,0.2 c 0,0.7 -0.4,1.3 -1.2,1.3 -0.7,0 -2.1,-0.9 -4,-0.9 -0.8,0 -1.8,0.4 -2.4,0.7 l -0.2,-0.6 c 0,0 0,0 0,0.1 0,0.3 -0.2,0.5 -0.5,0.5 -0.3,0 -0.5,-0.2 -0.5,-0.5 0,-0.3 0.2,-0.5 0.5,-0.5 0.1,0 0.3,0.1 0.4,0.2 l -0.2,-0.6 c 0.1,0 0.2,-0.1 0.2,-0.1 -0.3,-2.9 1.9,-6.6 5.6,-7.7 0.6,0.1 1.1,0.1 1.1,-0.5 0,-0.4 -0.2,-0.5 -0.5,-0.5 -0.2,0 -0.4,0.1 -0.4,0.3 0,0.3 0.4,0.1 0.5,0.3 0.1,0.2 -0.1,0.3 -0.4,0.3 -0.3,0 -0.7,-0.2 -0.7,-0.6 0,-0.5 0.4,-0.8 0.9,-0.8 0.4,0 1.3,0.2 1.2,1.3 0.2,0 0.4,0 0.5,0.2 l 0,0.6 -0.2,0 0.2,6.6 0.1,0 c 0.2,0 0.5,0.1 0.5,0.4 0.1,0.2 -0.1,0.3 -0.3,0.3 m -6.8,-0.5 4.6,-6.6 c -2.5,1 -4.9,3.2 -4.6,6.6 m 4.7,-5.9 -4.2,6 c 0.1,0 0.3,0 0.4,0 0.2,0 0.4,0 0.6,0 l 3.4,-4.8 c -0.1,-0.5 -0.2,-0.9 -0.2,-1.2 m 0.3,1.9 -3,4.2 c 0.3,0.1 0.6,0.2 0.9,0.3 l 2.2,-3.2 c 0,-0.4 0,-0.9 -0.1,-1.3 m 0.7,4.6 -0.2,0 c -0.2,0 -0.4,-0.1 -0.5,-0.3 0,-0.3 0.2,-0.4 0.4,-0.4 l 0.1,0 c 0,-0.1 0,-0.1 0,-0.2 -0.1,-0.4 -0.2,-1 -0.3,-1.7 l -1.9,2.7 c 0.9,0.3 1.6,0.7 2,0.7 0.4,0 0.5,-0.2 0.4,-0.8" id="path3241" inkscape:connector-curvature="0" style="fill:#ffffff" />
          </g>
          <g transform="translate(77.688,802.3)" id="g3243" style="fill:#ffffff">
            <path d="m -81.5,118.6 c 0.9,0 1.3,0.3 1.3,0.6 0,1 -2.5,0.4 -2.5,1 0,0.1 0.1,0.2 0.2,0.3 l 0,0 c 1.2,0.1 1.3,1 2.1,1.1 -1.1,0.2 -1.2,-0.7 -1.7,-0.7 0.2,0.1 0.3,0.4 0.3,0.5 -0.2,-0.3 -0.7,-0.3 -1,-0.6 0,-0.1 -0.1,-0.1 0,-0.2 -0.2,-0.1 -0.3,-0.2 -0.3,-0.4 0,-0.9 2.5,-0.3 2.5,-1 0,-0.2 -0.4,-0.4 -1.1,-0.4 -0.5,0 -0.9,0.4 -1.8,0.1 0,0.2 0.3,0.5 0.2,0.6 0.1,0 0.2,0.1 0.2,0.2 -0.1,0.1 -0.1,0.1 -0.2,0.1 l 0,0.1 c 0,0 0,0.1 -0.1,0.1 0,0 -0.1,0.1 -0.2,0.1 -0.1,0.1 -0.2,0.1 -0.2,0.1 l -0.1,0 c -0.1,0 -0.1,0 -0.1,-0.1 0,0 -0.1,0.1 -0.2,0.1 0,-0.1 -0.1,-0.1 0,-0.3 -0.1,0 -0.2,-0.2 -0.3,-0.2 0,-0.1 0.1,-0.1 0.1,-0.1 -0.1,-0.1 -0.1,-0.3 -0.2,-0.3 0,0 0,-0.1 0.1,-0.1 -0.1,-0.2 -0.1,-0.4 -0.1,-0.6 l 0,0 c -0.1,0.1 -0.1,0.1 -0.2,0.2 -0.1,0.1 -0.1,0.2 -0.1,0.3 0,0.1 0.1,0.2 0.1,0.3 l 0,0.1 c 0,0.1 -0.1,0.1 -0.2,0.1 l 0.1,-0.1 -0.1,-0.1 c 0,0 -0.1,-0.1 0,-0.1 l 0,0 c 0,0 0,0 0,-0.1 l 0,0 c 0,0.1 0,0.2 -0.1,0.2 l -0.1,0 0,0 c 0,0.1 -0.1,0.2 -0.2,0.1 l 0.1,0 0,-0.1 c 0,-0.1 0,-0.1 0.2,-0.1 l 0,0 0,0 0,0 c -0.2,0.1 -0.3,0 -0.3,-0.1 0,0 0,0 0,-0.1 -0.1,0 -0.1,-0.1 0,-0.2 0,0 0,0.1 0.1,0.1 l 0,0 0,0 c 0,0 0,0 0.1,0 l 0,0 0,0 0,0 c -0.1,-0.1 -0.1,-0.2 0,-0.2 l 0,0 c 0,-0.2 -0.3,-0.2 -0.3,0 -0.2,-0.2 0.1,-0.4 0.3,-0.3 l 0,0 c 0,0 0,-0.1 0.1,-0.1 0,0 0,0 0.1,0 l 0,0 c 0,0 0,-0.1 0.1,-0.1 l 0,0.1 c 0,0 0.1,-0.2 0.2,-0.3 -0.2,-0.1 -0.5,-0.2 -0.6,-0.2 0,0 -0.3,0 -0.4,0 -0.1,-0.1 -0.5,-0.2 -0.6,-0.1 0,0 0,0.1 -0.1,0.2 l -0.1,0.1 -0.1,0 c -0.1,0.1 -0.2,0.1 -0.2,0 0,0 0.1,0 0.1,-0.1 l 0,-0.1 c 0,0 0,-0.1 0.2,-0.2 l 0,0 -0.1,0 c -0.1,0.1 -0.1,0.2 -0.2,0.1 0,0 0,0 -0.1,0 l 0,0 c -0.1,0 -0.2,-0.1 -0.2,-0.2 0,0 0,0.1 0.1,0.1 l 0,-0.1 c 0,-0.1 0.1,-0.2 0.3,0 l 0,0 c -0.1,-0.1 -0.2,-0.2 -0.1,-0.3 0,0 0,0 0.1,0 l 0,0 c 0,-0.1 0.1,-0.2 0.2,-0.2 0,0 -0.1,0.1 -0.1,0.2 l 0.1,0 c 0.1,0 0.1,0.2 0.1,0.2 l 0,0 c 0,-0.1 0,-0.2 0.2,-0.2 0.1,0 0.2,0.1 0.2,0.2 l 0,0 0.1,-0.1 c 0,0 0.1,0 0.1,0.1 0,-0.1 0,-0.1 0,-0.2 0,0 0.2,0.1 0.2,0.2 0,0 0,0 0,-0.1 l 0,0 c 0.1,0 0.1,0 0.3,0 l 0,0 c 0,-0.1 0,-0.1 0,-0.1 l 0,0.1 c 0,0 0,-0.1 0.1,-0.2 0,0.3 0.2,0.2 0.4,0.3 l 0,0 c 0,0 0,-0.1 -0.1,-0.1 0.1,0 0.3,0.1 0.3,0.2 l 0.1,0.1 c 0.1,0 0.2,0 0.2,0.1 0,0 0,-0.1 0,-0.2 0.2,0 0.4,0.2 0.5,0.3 0.5,0.1 -0.3,0.4 0.7,0.4 0.1,0 0.2,0 0.3,0.1 -0.1,-0.1 -0.1,-0.4 0.1,-0.5 0.1,0 0.2,-0.1 0.2,-0.1 l 0,0 c -0.1,0 -0.2,0 -0.2,-0.1 -0.2,-0.1 -0.2,0.3 -0.5,0.2 0,0 0,0 -0.1,0 -0.1,0 -0.2,-0.1 -0.2,-0.2 0,0 0.1,0.1 0.2,0.1 l 0,0 c 0,0 0,-0.1 0.1,-0.1 l 0.1,0 0,0 c 0,-0.1 -0.3,0 -0.2,-0.2 l 0,-0.1 c 0,-0.1 0.1,-0.2 0.2,-0.1 0,0 -0.1,0 -0.1,0.1 0,0 0,0 0.1,0 l 0,0 0,0 0,0 c 0,0 0,0 0,-0.1 l 0,-0.1 c 0,-0.1 0.1,-0.2 0.3,-0.1 0,0 -0.1,0 -0.1,0.1 l 0.1,0 c 0,0 0,0 0,0.1 l 0,0 c 0,0 0,0 0.1,0 l 0,0 c 0,-0.1 0.1,-0.1 0.2,-0.1 0.2,0.1 0,0.2 0.2,0.2 l 0.1,0 c 0.1,0 0.3,0 0.3,0 0,0.1 0,0.3 -0.1,0.4 -0.1,0 0,0.1 -0.1,0.3 0.1,-0.1 0.3,-0.1 0.5,-0.1 0.3,0 0,0.1 0.2,0.1 0.2,0.1 0.4,0.1 0.4,0 0,0 0.1,0 0.1,-0.1 0,-0.2 0,-0.2 0,-0.3 0,-0.1 -0.2,0 -0.3,0 -0.1,0 -0.1,0 -0.1,0 -0.1,0 -0.2,-0.1 -0.2,-0.2 0,0 0.1,0.1 0.2,0.1 l 0,0 c 0,-0.1 0.1,-0.2 0.2,-0.1 l 0,0 c -0.1,-0.1 -0.2,-0.2 -0.1,-0.2 0,0 0,0 0.1,0 0,-0.1 0,-0.2 0.1,-0.2 l 0,0.1 0.1,0 c 0.1,0 0,0.1 0.1,0.2 l 0,0 c 0,-0.1 0,-0.2 0,-0.2 0,0 0,0 0.1,0 0,-0.1 0.1,-0.1 0.2,-0.1 0,0 -0.1,0 -0.1,0.1 l 0.1,0.1 c 0,0.2 -0.1,0.2 -0.1,0.3 0,0.1 0.2,0 0.2,0.2 0,0 0,0.1 -0.1,0.1 l 0,0 0,0 c 0,0 0.1,0 0.1,0.1 -0.1,0 -0.1,0.1 -0.1,0.2 l 0,0 c 0,0 0.1,0.1 0.1,0.2 0,-0.1 -0.2,-0.1 -0.2,0 0,0 0,0.1 -0.1,0.1 -0.3,-0.1 -0.4,0.1 -0.8,0.1 -0.1,0 -0.1,0 0,0 m -2.8,1 0,0 0,0 m 0.7,0.2 c 0,0 0.2,-0.1 0.3,-0.1 -0.1,0 -0.1,-0.1 -0.2,-0.1 -0.1,0 -0.1,0.1 -0.1,0.2 m -0.2,0.1 c 0,-0.1 -0.1,-0.1 -0.2,-0.1 -0.1,0.1 0,0.1 -0.1,0.2 0.1,0 0.3,-0.1 0.3,-0.1 m -0.3,-0.6 c 0,0 0.1,0.1 0,0 0.1,0.1 0.1,0.1 0.2,0.2 0,0.1 0,0.1 -0.1,0.1 0.1,0 0.1,0 0.1,0.1 l -0.1,0 c 0,0 0,0 0.1,0.1 0,0 0,0 0.1,0 l 0.2,-0.1 c 0,0 0,0 0,-0.1 l 0,-0.1 c 0,0 0,0.1 -0.1,0.1 0,0 0,0 0,-0.1 -0.1,0 -0.1,0 -0.1,0 l 0,-0.1 0,-0.1 c 0,-0.1 -0.1,-0.1 -0.3,0 0,-0.2 0,-0.1 0,0" id="path3245" inkscape:connector-curvature="0" style="fill:#ffffff" />
          </g>
          <g transform="translate(78.112,801.16)" id="g3247" style="fill:#ffffff">
            <path d="m -80.7,116.4 c 0,0.3 -0.3,0.4 -1.2,0.4 -0.9,0 -2.9,-0.3 -2.9,0.2 0,0.2 0.4,0.2 0.8,0.2 0,0 0.1,-0.1 0.2,-0.1 1.1,-0.3 2.5,0.3 3.2,0.1 -0.8,0.6 -1.5,0 -2.3,0.2 0.5,0 0.7,0.1 0.7,0.3 -0.4,-0.3 -1.1,0.1 -1.6,-0.2 0,0 -0.1,0 -0.1,-0.1 -0.6,0 -1.1,0 -1.1,-0.4 0,-0.9 2.4,-0.4 3.1,-0.4 0.7,0 0.9,-0.1 0.9,-0.2 0,-0.2 -0.7,-0.3 -1.1,-0.3 -0.6,0 -2.6,0.3 -3.7,0.1 0.1,0.2 0.3,0.4 0.2,0.6 0.1,0 0.2,0.1 0.2,0.2 -0.1,0.1 -0.1,0.1 -0.2,0.1 0,0.1 0,0.1 -0.1,0.2 0,0 0,0.1 -0.1,0.1 0,0 -0.1,0.1 -0.3,0.2 -0.1,0.1 -0.2,0.1 -0.3,0.1 0,0 -0.1,0 -0.2,0 -0.1,0 -0.1,0 -0.1,-0.1 -0.1,0.1 -0.1,0.1 -0.2,0.1 0,-0.1 -0.1,-0.2 0,-0.3 -0.1,0 -0.2,-0.3 -0.3,-0.2 0,-0.1 0.1,-0.1 0.1,-0.1 -0.1,-0.2 -0.1,-0.3 -0.2,-0.3 0.1,-0.1 0.1,-0.1 0.1,-0.1 0,-0.1 0,-0.2 0,-0.3 l -0.2,0.1 0,0 c 0,0 0,0 -0.1,0 l 0.1,0 -0.1,0 c -0.1,0.1 -0.2,0.2 -0.4,0.3 -0.2,0.1 -0.2,0.2 -0.2,0.4 0,0.2 0.1,0.3 0.1,0.4 l 0,0.1 c 0,0.1 -0.1,0.2 -0.2,0.2 0,0 0.1,-0.1 0.1,-0.2 l -0.1,-0.1 c 0,0 0,-0.1 0,-0.2 l 0,0 c 0,0 0,0 0,-0.1 l 0,0 c 0,0.1 -0.1,0.3 -0.2,0.3 l -0.1,0 0,0 c 0,0.1 -0.1,0.2 -0.3,0.1 l 0.1,0 0,-0.1 c 0,-0.1 0.1,-0.2 0.2,-0.2 l 0,0 c 0,0 0,0 0,-0.1 l 0,0 c -0.2,0.1 -0.3,0 -0.3,-0.1 l 0,-0.1 c -0.1,-0.1 -0.1,-0.2 0,-0.2 l 0,0.1 0,0 0,0 0.1,0 0,0 c 0,0 0,0 0.1,0 l 0,0 c -0.1,-0.1 -0.1,-0.3 0,-0.3 l 0,0 c 0,-0.2 -0.4,-0.2 -0.3,0 -0.2,-0.3 0.1,-0.5 0.4,-0.4 l 0,0 c 0,0 0,-0.1 0.1,-0.1 0,0 0,0.1 0.1,0.1 l 0,0 c 0,-0.1 0,-0.1 0.1,-0.2 l 0,0.1 c 0,0 0.2,-0.2 0.4,-0.3 0.2,-0.1 0.3,-0.2 0.4,-0.1 0,-0.2 0.1,-0.4 0.1,-0.4 -0.1,0 -0.5,0 -0.6,0 -0.2,-0.1 -0.6,-0.2 -0.7,-0.1 0,0.1 0,0.1 -0.1,0.2 0,0.1 -0.1,0.1 -0.1,0.1 l -0.1,0 c -0.1,0.1 -0.2,0.1 -0.3,0 0,0 0.1,0 0.2,-0.1 l 0,-0.1 c 0,-0.1 0,-0.1 0.2,-0.2 l 0,0 -0.1,0 c -0.1,0.1 -0.1,0.2 -0.2,0.1 0,0 0,0 -0.1,0 l 0,0 c -0.1,0 -0.3,-0.1 -0.2,-0.3 l 0.1,0.1 0,-0.1 c 0,-0.1 0.1,-0.2 0.4,-0.1 l 0,0 c -0.1,-0.1 -0.2,-0.2 -0.1,-0.3 0,0 0,0 0.1,0 l 0,0 c 0,-0.2 0.1,-0.3 0.2,-0.3 0,0 -0.1,0.1 -0.1,0.2 l 0.1,0 c 0.1,0.1 0.1,0.2 0.1,0.3 l 0,0 c 0,-0.1 0,-0.2 0.2,-0.2 0.1,0 0.2,0.1 0.2,0.2 l 0,0 c 0,0 0.1,-0.1 0.1,-0.2 0,0 0.1,0 0.1,0.1 0,-0.1 0,-0.2 -0.1,-0.3 0.1,0 0.2,0.1 0.2,0.3 0,0 0,-0.1 0.1,-0.1 l 0,0 c 0,0 0.2,0 0.3,0 l 0,0 c 0,-0.1 0,-0.1 0,-0.1 0,0 0,0.1 0.1,0.1 0,0 0,-0.1 0.1,-0.2 0,0.4 0.2,0.2 0.5,0.4 l 0,0 c 0,0 0,-0.1 -0.1,-0.1 0.3,-0.1 0.7,0.3 0.8,0.5 0.1,0 0.2,0 0.3,0 0.8,-0.1 0.2,0.7 1.5,0.5 0.1,0 0.2,0.1 0.3,0.1 -0.1,-0.2 -0.1,-0.5 0.1,-0.5 0.1,0 0.2,-0.1 0.3,-0.1 l 0,0 c -0.1,0 -0.2,0 -0.2,-0.1 -0.3,-0.2 -0.3,0.4 -0.5,0.3 0,0 -0.1,0 -0.1,-0.1 -0.1,0 -0.3,-0.1 -0.2,-0.2 0,0 0.1,0.1 0.2,0.1 l 0,-0.1 c 0,0 0,-0.1 0.1,-0.1 0.1,0 0.1,0 0.1,0 l 0,0 c 0,-0.1 -0.4,0.1 -0.3,-0.2 l 0,-0.1 c 0,-0.1 0.1,-0.2 0.2,-0.1 l -0.1,0.1 0.1,0 0,0 0,0 0,0 c 0,0 0,0 0,-0.1 l 0,-0.1 c 0,-0.1 0.1,-0.2 0.3,-0.1 0,0 -0.1,0 -0.2,0.1 l 0.1,0 0,0.1 0,0 c 0,0 0,0 0.1,0 0,0 0,0 0.1,0 0,-0.1 0.1,-0.1 0.2,-0.1 0.2,0.1 0,0.2 0.2,0.3 l 0.1,0 c 0.1,0 0.4,0 0.4,0 0,0.1 0,0.3 -0.1,0.4 -0.1,0 0,0.2 -0.1,0.3 0.2,-0.1 0.3,-0.1 0.5,-0.1 0.4,0 0.5,0.1 0.7,0.2 0.2,0.1 0.4,0.1 0.5,0 0,0 0.1,0 0.1,-0.1 0,-0.2 0,-0.2 0,-0.3 0,-0.1 -0.2,0 -0.3,0 -0.1,0 -0.1,0 -0.1,-0.1 -0.1,0 -0.2,-0.1 -0.2,-0.2 0,0 0.1,0.1 0.2,0.1 l 0,0 c 0,-0.1 0.2,-0.2 0.3,-0.1 l 0,0 c -0.1,-0.1 -0.2,-0.2 -0.1,-0.2 0,0 0,0 0.1,0 0,-0.1 0.1,-0.2 0.1,-0.2 0,0 0,0.1 0,0.2 l 0.1,0 c 0.1,0 0,0.2 0.1,0.2 l 0,0 c 0,-0.1 -0.1,-0.2 0,-0.3 0,0 0,0 0.1,0 0,-0.1 0.1,-0.1 0.2,-0.1 0,0 -0.1,0 -0.1,0.1 l 0.1,0.1 c 0.1,0.2 -0.1,0.2 -0.1,0.3 0,0.1 0.2,0 0.2,0.2 0,0 0,0.1 -0.1,0.1 l 0,0 0,0 c 0.1,0 0.1,0 0.2,0.1 -0.2,0 -0.1,0.1 -0.1,0.2 l 0,0 c 0.1,0 0.1,0.1 0.1,0.2 -0.1,-0.1 -0.2,-0.2 -0.2,0 0,0 0,0.1 -0.2,0.1 -0.3,0 -0.5,0 -1,0.1 0.5,0 1.4,0.1 1.4,0.4 m -6.9,-0.5 0,0 0,0 m 1.4,1.3 c 0,0 0.2,-0.1 0.3,-0.1 -0.2,0 -0.1,-0.1 -0.2,-0.1 -0.1,0 -0.1,0.1 -0.1,0.2 m -0.2,0.1 c 0,-0.1 -0.1,-0.1 -0.2,-0.1 -0.1,0.1 0,0.1 -0.1,0.2 0.1,0 0.3,-0.1 0.3,-0.1 m -0.3,-0.7 c 0,0.1 0.1,0.1 0,0 0.2,0.1 0.2,0.1 0.2,0.2 0,0.1 0,0.1 -0.1,0.1 0.1,0 0.1,0 0.1,0.1 l -0.1,0 c 0,0 0,0.1 0.1,0.1 0,0 0,0 0.1,0 l 0.3,-0.1 c 0,0 0.1,0 0.1,-0.1 l 0,-0.1 c 0,0 0,0.1 -0.1,0.1 0,0 0,0 0,-0.1 -0.1,0 -0.1,0.1 -0.2,0 0,-0.1 0,-0.1 0,-0.1 l 0,-0.1 c 0,-0.1 -0.1,-0.2 -0.2,-0.1 -0.3,-0.1 -0.3,0 -0.2,0.1 m 0.7,-1.6 c 0,0 0,0.1 0,0 l 0,0" id="path3249" inkscape:connector-curvature="0" style="fill:#ffffff" />
          </g>
          <g transform="translate(77.979,799.84)" id="g3251" style="fill:#ffffff">
            <path d="m -81,113.9 c 0,0.3 -0.3,0.4 -1.1,0.4 -0.8,0 -3.4,-0.3 -3.4,0.2 0,0.3 0.9,0.2 1.5,0.2 0,0 0.1,-0.1 0.2,-0.1 1.1,-0.3 2.2,0.4 3,0.2 -0.6,0.6 -1.4,-0.1 -2.2,0.1 0.5,0 1,0.1 1,0.2 -0.4,-0.2 -1.4,0.2 -1.9,-0.1 0,0 -0.1,0 -0.1,-0.1 -0.8,0 -1.8,0.1 -1.8,-0.4 0,-0.8 2.9,-0.3 3.6,-0.3 0.7,0 0.9,-0.1 0.9,-0.2 0,-0.2 -0.7,-0.2 -1.1,-0.2 -0.6,0 -3.4,0.4 -4.5,0 0.1,0.2 0.3,0.5 0.2,0.6 0.1,0 0.2,0.1 0.2,0.2 -0.1,0.1 -0.1,0.1 -0.2,0.1 l 0,0.1 c 0,0 0,0.1 -0.1,0.1 0,0 -0.1,0.1 -0.2,0.2 -0.1,0.1 -0.2,0.1 -0.2,0.1 0,0 -0.1,0 -0.2,0 -0.1,0 -0.1,0 -0.1,-0.1 0,0 -0.1,0.1 -0.2,0.1 0,-0.1 -0.1,-0.2 0,-0.3 -0.1,0 -0.2,-0.3 -0.3,-0.2 0,-0.1 0.1,-0.1 0.1,-0.1 -0.1,-0.1 -0.1,-0.3 -0.2,-0.3 l 0.1,-0.1 c 0,-0.1 0,-0.2 0,-0.3 l -0.1,0 c -0.1,0 -0.1,0 -0.1,0 l -0.1,0 c -0.1,0 -0.2,0.2 -0.5,0.4 -0.2,0.1 -0.2,0.2 -0.2,0.3 0,0.1 0.1,0.3 0.1,0.4 l 0,0.1 c 0,0.1 -0.2,0.2 -0.2,0.1 l 0.1,-0.1 -0.1,-0.1 0,-0.1 0,0 c 0,0 0,0 0,-0.1 l 0,0 c 0,0.1 -0.1,0.3 -0.2,0.3 0,0 0,0 -0.1,0 l 0,0 c 0,0.1 -0.1,0.2 -0.2,0.1 l 0.1,0 0,-0.1 c 0,-0.1 0.1,-0.1 0.2,-0.2 l 0,0 0,0 0,0 c -0.2,0.1 -0.3,0 -0.3,-0.1 l 0,-0.1 c -0.1,-0.1 -0.1,-0.1 0,-0.2 l 0,0.1 0,0 c 0,0 0,0 0.1,0 0,0 0,0 0.1,0 l 0,0 c 0,0 0,0 0.1,0 l 0,0 c -0.1,-0.1 -0.1,-0.2 0.1,-0.3 l 0,0 c 0,-0.2 -0.3,-0.2 -0.3,0 -0.2,-0.3 0.1,-0.5 0.4,-0.3 l 0,0 c 0,0 0,-0.1 0.1,-0.1 0,0 0,0 0.1,0 l 0,0 c 0,-0.1 0,-0.1 0.1,-0.2 l 0,0.1 c 0,0 0.2,-0.3 0.6,-0.5 0.1,0 0.2,0 0.2,0.1 0,0 0,-0.1 0.1,-0.1 0,-0.2 0.1,-0.3 0.1,-0.3 0,0 -0.6,0 -0.7,0 -0.2,-0.1 -0.5,-0.2 -0.7,-0.1 0,0.1 0,0.1 -0.1,0.2 0,0.1 -0.1,0.1 -0.1,0.1 l -0.1,0 c -0.1,0.1 -0.2,0.1 -0.3,0 0,0 0.1,0 0.2,-0.1 l 0,-0.1 c 0,-0.1 0,-0.1 0.2,-0.2 l 0,0 -0.1,0 c -0.1,0.1 -0.1,0.2 -0.2,0.1 0,0 0,0 -0.1,0 l 0,0 c -0.1,0 -0.3,-0.1 -0.2,-0.3 l 0.1,0.1 0,-0.1 c 0,-0.1 0.1,-0.2 0.3,-0.1 l 0,0 c -0.1,-0.1 -0.2,-0.2 -0.1,-0.3 0,0 0,0 0.1,0 l 0,0 c 0,-0.1 0.1,-0.3 0.2,-0.2 0,0 -0.1,0.1 -0.1,0.2 l 0.1,0 c 0.1,0 0.1,0.2 0.1,0.2 l 0,0 c 0,-0.1 0,-0.2 0.2,-0.2 0.1,0 0.2,0.1 0.2,0.2 l 0,0 c 0,0 0.1,-0.1 0.1,-0.2 l 0.1,0.1 c 0,-0.1 0,-0.2 -0.1,-0.2 0.1,0 0.2,0.1 0.2,0.2 l 0,-0.1 0,0 c 0,0 0.1,0 0.3,0 l 0,0 c 0,-0.1 0,-0.1 0,-0.1 0,0 0,0.1 0.1,0.1 0,0 0,-0.1 0.1,-0.2 0,0.4 0.5,0.2 0.7,0.3 l 0,0 c 0,0 0,-0.1 -0.1,-0.1 0.1,0 0.2,0 0.3,0.1 l 0,0 0.4,0.2 0,0.1 0.1,0 0,0 c 0.2,0 0.2,0.2 0.3,0.2 1.4,-0.2 0.6,0.6 2.2,0.4 0.1,0 0.1,0 0.2,0.1 -0.1,-0.2 -0.1,-0.4 0.1,-0.4 0.1,0 0.2,-0.1 0.3,-0.1 l 0,0 c -0.1,0 -0.2,0 -0.2,-0.1 -0.3,-0.2 -0.3,0.4 -0.5,0.3 0,0 -0.1,0 -0.1,-0.1 -0.1,0 -0.3,-0.1 -0.2,-0.2 0,0 0.1,0.1 0.2,0.1 0,0 0,0 0,-0.1 0,0 0,-0.1 0.1,-0.1 0.1,0 0.1,0 0.1,0 l 0,0 c 0,-0.1 -0.3,0.1 -0.3,-0.2 l 0,-0.1 c 0,-0.1 0.1,-0.2 0.2,-0.1 l -0.1,0.1 0.1,0 0,0 0,0 0,0 c 0,0 0,0 0,-0.1 l 0,-0.1 c 0,-0.1 0.1,-0.2 0.3,-0.1 0,0 -0.1,0 -0.1,0.1 l 0.1,0 0,0.1 0,0 c 0,0 0,0 0.1,0 0,0 0,0 0.1,0 0,-0.1 0.1,-0.1 0.2,-0.1 0.2,0.1 0,0.2 0.2,0.3 l 0.1,0 c 0.1,0 0.4,0 0.4,0 0,0.1 0,0.3 -0.1,0.4 -0.1,0 0,0.2 -0.1,0.3 0.2,-0.1 0.3,-0.1 0.5,-0.1 0.4,0 0.5,0.1 0.6,0.2 0.2,0.1 0.4,0.1 0.5,0 0,0 0.1,0 0.1,-0.1 0,-0.2 0,-0.2 0,-0.3 0,-0.1 -0.2,0 -0.3,0 -0.1,0 -0.1,0 -0.1,-0.1 -0.1,0 -0.2,-0.1 -0.2,-0.2 0,0 0.1,0.1 0.2,0.1 l 0,0 c 0,-0.1 0.2,-0.2 0.2,-0.1 l 0,0 c -0.1,-0.1 -0.2,-0.2 -0.1,-0.2 0,0 0,0 0.1,0 0,-0.1 0.1,-0.2 0.1,-0.2 0,0 0,0.1 0,0.2 l 0.1,0 c 0.1,0 0,0.2 0.1,0.2 l 0,0 c 0,-0.1 0,-0.2 0,-0.2 0,0 0,0 0.1,0 0,-0.1 0.1,-0.1 0.2,-0.1 0,0 -0.1,0 -0.1,0.1 l 0.1,0.1 c 0.1,0.2 -0.1,0.2 -0.1,0.3 0,0.1 0.2,0 0.2,0.2 0,0 0,0.1 -0.1,0.1 l 0,0 0,0 c 0.1,0 0.1,0 0.1,0.1 -0.2,0 -0.1,0.1 -0.1,0.2 l 0,0 c 0,0 0.1,0.1 0.1,0.2 0,-0.1 -0.2,-0.2 -0.2,0 0,0 0,0.1 -0.2,0.1 -0.3,0 -0.4,0 -0.9,0.1 0.4,-0.2 1.2,-0.1 1.2,0.2 m -6.1,0.7 c 0,0 0.2,-0.1 0.3,-0.1 -0.1,0 -0.1,-0.1 -0.2,-0.1 -0.1,0 -0.1,0.1 -0.1,0.2 m -0.2,0.1 c 0,-0.1 -0.1,-0.1 -0.2,-0.1 -0.1,0.1 0,0.1 -0.1,0.2 0.1,0 0.3,-0.1 0.3,-0.1 m -0.3,-0.7 c 0,0.1 0,0.1 0,0 0.2,0.1 0.2,0.1 0.2,0.2 0,0.1 0,0.1 -0.1,0.1 0.1,0 0.1,0 0.1,0.1 l -0.1,0 c 0,0 0,0 0.1,0.1 0,0 0,0 0.1,0 l 0.3,-0.1 c 0,0 0.1,0 0.1,-0.1 l 0,-0.1 c 0,0 0,0.1 -0.1,0.1 0,0 0,0 0,-0.1 -0.1,0 -0.1,0 -0.2,0 l 0,-0.1 0,-0.1 c 0,-0.1 -0.1,-0.1 -0.2,-0.1 -0.2,0 -0.2,0.1 -0.2,0.1" id="path3253" inkscape:connector-curvature="0" style="fill:#ffffff" />
          </g>
          <g transform="translate(82.043,797.64)" id="g3255" style="fill:#ffffff">
            <path d="m -73.1,109.7 0,0 c 0.1,0.1 0.1,0.1 0.1,0.3 -0.1,-0.1 -0.2,-0.2 -0.2,0 0,0 0,0.1 -0.2,0.1 -0.3,0 -0.5,0 -1,0.1 0,0 -0.1,0 0,0 0.5,0 1.4,0.1 1.4,0.4 0,0.3 -0.3,0.4 -1.1,0.4 -0.8,0 -3.4,-0.3 -3.4,0.2 0,0.3 0.9,0.2 1.5,0.2 0,0 0.1,-0.1 0.2,-0.1 1.1,-0.3 2.3,0.5 3,0.3 -0.8,0.3 -1.4,-0.2 -2.2,0 0.5,0 1,0.1 1,0.2 -0.4,-0.2 -1.4,0.2 -1.9,-0.1 0,0 -0.1,0 -0.1,-0.1 -0.8,0 -1.8,0.1 -1.8,-0.4 0,-0.8 2.9,-0.3 3.6,-0.3 0.7,0 0.9,-0.1 0.9,-0.2 0,-0.2 -0.7,-0.3 -1.1,-0.3 -0.7,0 -3.4,0.4 -4.5,0 0.1,0.2 0.3,0.5 0.2,0.6 0.1,0 0.2,0.1 0.2,0.2 -0.1,0.1 -0.1,0.1 -0.2,0.1 l 0,0.1 c 0,0 0,0.1 -0.1,0.1 0,0 -0.1,0.1 -0.2,0.2 -0.1,0.1 -0.2,0.1 -0.2,0.1 l -0.1,0 c -0.1,0 -0.1,0 -0.1,-0.1 -0.1,0 -0.1,0.1 -0.2,0.1 0,-0.1 -0.1,-0.2 0,-0.3 -0.1,0 -0.2,-0.3 -0.3,-0.2 0,-0.1 0.1,-0.1 0.1,-0.1 -0.1,-0.1 -0.1,-0.3 -0.2,-0.3 0.1,-0.1 0.1,-0.1 0.1,-0.1 0,-0.1 0,-0.2 0,-0.2 l -0.1,0 c -0.1,0 -0.1,0 -0.1,0 l -0.1,0 c -0.1,0 -0.2,0.2 -0.5,0.4 -0.2,0.1 -0.2,0.2 -0.2,0.3 0,0.1 0.1,0.3 0.1,0.4 l 0,0.1 c 0,0.1 -0.1,0.2 -0.2,0.1 l 0.1,-0.1 -0.1,-0.1 0,-0.1 0,0 c 0,0 0,0 0,-0.1 l 0,0 c 0,0.1 -0.1,0.2 -0.2,0.3 l -0.1,0 0,0 c 0,0.1 -0.1,0.2 -0.2,0.1 l 0.1,0 0,-0.1 c 0,-0.1 0.1,-0.2 0.2,-0.2 l 0,0 0,0 0,0 c -0.2,0.1 -0.3,0 -0.3,-0.1 l 0,-0.1 c -0.1,0 -0.1,-0.1 0,-0.2 l 0,0.1 0,0 c 0,0 0,0 0.1,0 0,0 0,0 0.1,0 l 0,0 c 0,0 0,0 0.1,0 l 0,0 c -0.1,-0.1 -0.1,-0.3 0.1,-0.3 l 0,0 c 0,-0.2 -0.3,-0.2 -0.3,0 -0.2,-0.3 0.1,-0.5 0.4,-0.3 l 0,0 c 0,0 0,-0.1 0.1,-0.1 0,0 0,0 0.1,0 l 0,0 c 0,-0.1 0,-0.1 0.1,-0.2 0,0.1 0,0.1 0,0.1 0,0 0.2,-0.3 0.5,-0.5 0,0 0.1,0.1 0.2,0.1 0,-0.1 0.1,-0.1 0.1,-0.2 l 0.1,0 c 0,-0.2 0.2,-0.3 0.1,-0.3 -0.1,0 -0.4,0 -0.5,0 -0.2,-0.1 -0.5,-0.2 -0.7,-0.1 0,0.1 0,0.1 -0.1,0.2 0,0.1 -0.1,0.1 -0.1,0.1 l -0.1,0 c -0.1,0.1 -0.2,0.1 -0.3,0 0,0 0.1,0 0.1,-0.1 l 0,-0.1 c 0,-0.1 0,-0.1 0.2,-0.2 l 0,0 -0.1,0 c -0.1,0.1 -0.1,0.2 -0.2,0.1 0,0 0,0 -0.1,0 l 0,0 c -0.1,0 -0.3,-0.1 -0.2,-0.3 l 0.1,0.1 0,-0.1 c 0,-0.1 0.1,-0.2 0.3,-0.1 l 0,0 c -0.1,-0.1 -0.2,-0.2 -0.1,-0.3 0,0 0,0 0.1,0 l 0,0 c 0,-0.1 0.1,-0.2 0.2,-0.2 0,0 -0.1,0.1 -0.1,0.2 l 0.1,0 c 0.1,0 0.1,0.2 0.1,0.2 l 0,0 c 0,-0.1 0,-0.2 0.2,-0.2 0.1,0 0.2,0.1 0.2,0.2 l 0,0 c 0,0 0.1,-0.1 0.1,-0.2 l 0.1,0.1 c 0,-0.1 0,-0.2 -0.1,-0.3 0.1,0 0.2,0.1 0.2,0.3 0,0 0,-0.1 0.1,-0.1 l 0,0 c 0,0 0.1,0 0.3,0 l 0,0 c 0,-0.1 0,-0.1 0,-0.1 0,0 0,0.1 0.1,0.1 0,0 0,-0.1 0.1,-0.2 0,0.4 0.2,0.2 0.5,0.4 l 0,0 c 0,0 0,-0.1 -0.1,-0.1 0.1,-0.1 0.4,0.1 0.4,0.3 0,0 0.1,0 0.2,0.1 0.2,0 0.2,0.2 0.3,0.2 1.4,-0.2 0.6,0.6 2.2,0.4 0.1,0 0.1,0.1 0.2,0.2 -0.1,-0.2 -0.1,-0.5 0.1,-0.5 0.1,0 0.2,-0.1 0.3,-0.1 l 0,0 c -0.1,0 -0.2,0 -0.2,-0.1 -0.2,-0.2 -0.3,0.4 -0.5,0.3 0,0 -0.1,0 -0.1,-0.1 -0.1,0 -0.2,-0.1 -0.2,-0.2 0,0 0.1,0.1 0.2,0.1 l 0,-0.1 c 0,0 0,-0.1 0.1,-0.1 0.1,0 0.1,0 0.1,0 l 0,0 c 0,-0.1 -0.3,0.1 -0.3,-0.2 0,0 0,-0.1 0.1,-0.1 0,-0.1 0.1,-0.2 0.2,-0.1 l -0.1,0.1 0.1,0 0,0 0,0 0,0 c 0,0 0,0 0,-0.1 l 0,-0.1 c 0,-0.1 0.1,-0.2 0.3,-0.1 0,0 -0.1,0 -0.1,0.1 l 0.1,0 0,0.1 0,0 c 0,0 0,0 0.1,0 l 0,0 c 0,-0.1 0.1,-0.1 0.2,-0.1 0.2,0.1 0,0.2 0.2,0.2 l 0.1,0 c 0.1,0 0.3,0 0.4,0 0,0.1 0,0.3 -0.1,0.4 -0.1,0 0,0.2 -0.1,0.3 0.2,-0.1 0.3,-0.1 0.5,-0.1 0.4,0 0.5,0.1 0.7,0.2 0.2,0.1 0.4,0.1 0.5,0 0,0 0.1,0 0.1,-0.1 -0.1,-0.2 0,-0.2 0,-0.3 0,-0.1 -0.2,0 -0.3,0 -0.1,0 -0.1,0 -0.1,-0.1 -0.1,0 -0.2,-0.1 -0.2,-0.2 0,0 0.1,0.1 0.2,0.1 l 0,0 c 0,-0.1 0.1,-0.2 0.2,-0.1 l 0,0 c -0.1,-0.1 -0.2,-0.2 -0.1,-0.2 0,0 0,0 0.1,0 0,-0.1 0,-0.2 0.1,-0.2 0,0 0,0.1 0,0.2 l 0.1,0 c 0.1,0 0.1,0.2 0.2,0.2 l 0,0 c 0,-0.1 -0.1,-0.2 0,-0.2 0,0 0,0 0.1,0 0,-0.1 0.1,-0.1 0.2,-0.1 0,0 -0.1,0 -0.1,0.1 l 0.1,0.1 c 0.1,0.2 -0.1,0.2 -0.1,0.3 0,0.1 0.2,0 0.2,0.2 0,0 0,0.1 -0.1,0.1 l 0,0 0,0 c 0.1,0 0.1,0 0.2,0.1 -0.5,-0.3 -0.4,-0.1 -0.4,0 m -6.1,1.5 c 0,0 0.2,-0.1 0.3,-0.1 -0.1,-0.1 -0.1,-0.1 -0.1,-0.1 -0.1,0 -0.2,0.1 -0.2,0.2 m -0.2,0.1 c 0,-0.1 -0.1,-0.1 -0.2,-0.1 -0.1,0.1 0,0.1 -0.1,0.2 0.1,0 0.3,-0.1 0.3,-0.1 m -0.3,-0.7 c 0,0.1 0.1,0.1 0,0 0.2,0.1 0.2,0.1 0.2,0.2 0,0.1 0,0.1 -0.1,0.1 0.1,0 0.1,0 0.1,0.1 l -0.1,0 0,0.1 c 0,0 0,0 0.1,0 l 0.3,-0.1 c 0,0 0,0 0,-0.1 l 0,-0.1 c 0,0 0,0.1 -0.1,0.1 0,0 0,0 0,-0.1 -0.1,0 -0.1,0.1 -0.2,0 l 0,-0.1 0,-0.1 c 0,-0.1 -0.1,-0.1 -0.2,0 0,-0.1 0,0 0,0 m -0.2,0.4 0,0 0,0 z m 0.1,0.3 0,0 0,0 m 1.2,-1.9 0,0 0,0" id="path3257" inkscape:connector-curvature="0" style="fill:#ffffff" />
          </g>
          <g transform="translate(80.761,796.92)" id="g3259" style="fill:#ffffff">
            <path d="m -75.6,108.3 c 0,-0.1 0.1,-0.1 0.2,-0.1 1,-0.3 2.2,0.5 2.8,0.3 -0.8,0.3 -1.3,-0.2 -2.1,0 0.5,0 0.9,0.1 1,0.2 -0.4,-0.2 -1.3,0.1 -1.8,-0.1 0,0 0,0 -0.1,0 -0.6,0 -1,0 -1,-0.4 0,-0.8 2.1,-0.3 2.8,-0.3 0.7,0 0.6,-0.1 0.6,-0.2 0,-0.2 -0.8,-0.2 -1.1,-0.2 -0.6,0 -2.3,0.3 -3.4,0.1 0.1,0.2 0.3,0.4 0.2,0.5 0.1,0 0.2,0.1 0.2,0.2 -0.1,0.1 -0.1,0.1 -0.2,0.1 l 0,0.1 c 0,0 0,0.1 -0.1,0.1 0,0 -0.1,0.1 -0.2,0.2 -0.1,0.1 -0.2,0.1 -0.2,0.1 l -0.1,0 c -0.1,0 -0.1,0 -0.1,-0.1 0,0 -0.1,0.1 -0.2,0.1 0,-0.1 -0.1,-0.2 0,-0.3 -0.1,0 -0.2,-0.2 -0.3,-0.2 0,-0.1 0.1,-0.1 0.1,-0.1 -0.1,-0.1 -0.1,-0.3 -0.2,-0.3 l 0.1,-0.1 c 0,-0.1 0,-0.2 -0.1,-0.3 l -0.1,0 0,0 c -0.1,0 -0.2,0 -0.4,0.1 -0.2,0.1 -0.2,0.2 -0.2,0.3 0,0.1 0.1,0.3 0.1,0.4 l 0,0.1 c 0,0.1 -0.1,0.2 -0.2,0.1 l 0.1,-0.1 -0.1,-0.1 0,-0.1 0,0 c 0,0 0,0 0,-0.1 l 0,0 c 0,0.1 -0.1,0.2 -0.2,0.2 0,0 0,0 -0.1,0 l 0,0 c 0,0.1 -0.1,0.2 -0.2,0.1 l 0.1,0 0,-0.1 c 0,-0.1 0.1,-0.1 0.2,-0.1 l 0,0 0,0 0,0 c -0.2,0.1 -0.3,0 -0.3,-0.1 l 0,-0.1 c -0.1,0 -0.1,-0.1 0,-0.2 l 0,0.1 0,0 0,0 c 0,0 0,0 0.1,0 l 0,0 c 0,0 0,0 0.1,0 l 0,0 c -0.1,-0.1 -0.1,-0.2 0.1,-0.3 l 0,0 c 0,-0.2 -0.3,-0.2 -0.3,0 -0.2,-0.3 0.1,-0.5 0.4,-0.3 l 0,0 c 0,0 0,-0.1 0.1,-0.1 l 0,0 0,0 c 0,-0.1 0,-0.1 0.1,-0.1 l 0,0.1 c 0,0 0,0.1 0.3,-0.1 0,0 0,-0.1 0.1,-0.1 l 0.2,0 c 0,-0.2 0,-0.4 0,-0.4 0,0 -0.4,0 -0.5,0 -0.1,-0.1 -0.5,-0.2 -0.6,-0.1 0,0.1 0,0.1 -0.1,0.2 0,0.1 -0.1,0.1 -0.1,0.1 l -0.1,0 c -0.1,0.1 -0.2,0.1 -0.3,0 0,0 0.1,0 0.1,-0.1 l 0,-0.1 c 0,0 0,-0.1 0.2,-0.2 l 0,0 -0.1,0 c -0.1,0.1 -0.1,0.2 -0.2,0.1 0,0 0,0 -0.1,0 l 0,0 c -0.1,0 -0.3,-0.1 -0.2,-0.2 0,0 0,0.1 0.1,0.1 l 0,-0.1 c 0,-0.1 0.1,-0.2 0.3,0 l 0,0 c -0.1,-0.1 -0.2,-0.2 -0.1,-0.3 0,0 0,0 0.1,0 l 0,0 c 0,-0.1 0.1,-0.2 0.2,-0.2 0,0 -0.1,0.1 -0.1,0.2 l 0.1,0 c 0.1,0 0.1,0.2 0.1,0.2 l 0,0 c 0,-0.1 0,-0.2 0.2,-0.2 0.1,0 0.2,0.1 0.2,0.2 l 0,0 c 0,0 0.1,-0.1 0.1,-0.2 l 0.1,0.1 c 0,-0.1 0,-0.2 -0.1,-0.2 0.1,0 0.2,0.1 0.2,0.2 0,0 0,-0.1 0.1,-0.1 l 0,0 c 0,0 0.1,0 0.3,0 l 0,0 c 0,-0.1 0,-0.1 0,-0.1 0,0 0,0.1 0.1,0.1 0,0 0,-0.1 0.1,-0.2 0,0.4 0.3,0.3 0.5,0.4 l 0,0 c 0,0 0,-0.1 -0.1,-0.1 0.2,-0.1 0.5,0.2 0.6,0.4 0,0 0,0 0.1,0.1 l 0,-0.1 c 0.2,0 0.2,0.2 0.3,0.2 0.7,-0.1 0.2,0.6 1.3,0.4 0.1,0 0.2,0.1 0.3,0.1 -0.1,-0.1 -0.1,-0.5 0.1,-0.5 0.1,0 0.2,-0.1 0.3,-0.1 l 0,0 c -0.1,0 -0.2,0 -0.2,-0.1 -0.2,-0.2 -0.2,0.4 -0.5,0.3 l -0.1,0 c -0.1,0 -0.2,-0.1 -0.2,-0.2 0,0 0.1,0.1 0.2,0.1 0,0 0,0 0,-0.1 0,0 0,-0.1 0.1,-0.1 0.1,0 0.1,0 0.1,0 l 0,0 c 0,-0.1 -0.3,0.1 -0.3,-0.2 l 0,-0.1 c 0,-0.1 0.1,-0.2 0.2,-0.1 l -0.1,0.1 0.1,0 0,0 0,0 0,0 c 0,0 0,0 0,-0.1 l 0,-0.1 c 0,-0.1 0.1,-0.2 0.3,-0.1 0,0 -0.1,0 -0.1,0.1 l 0.1,0 0,0.1 0,0 c 0,0 0,0 0.1,0 l 0,0 c 0,-0.1 0.1,-0.1 0.2,-0.1 0.2,0.1 0,0.2 0.2,0.2 l 0.1,0 c 0.1,0 0.3,0 0.4,0 0,0.1 0,0.3 -0.1,0.4 -0.1,0 0,0.1 -0.1,0.3 0.1,-0.1 0.3,-0.1 0.5,-0.1 0.4,0 0.5,0 0.7,0.1 0.2,0.1 0.4,0.1 0.5,0 0,0 0.1,0 0,-0.1 -0.1,-0.2 0,-0.2 -0.1,-0.3 -0.1,-0.1 -0.2,0 -0.3,0 -0.1,0 -0.1,0 -0.1,0 -0.1,0 -0.2,-0.1 -0.2,-0.2 0,0 0.1,0.1 0.2,0.1 l 0,0 c 0,-0.1 0.1,-0.2 0.2,-0.1 l 0,0 c -0.1,-0.1 -0.3,-0.2 -0.2,-0.2 0,0 0,0 0.1,0 0,-0.1 0,-0.2 0.1,-0.2 0,0 0,0.1 0.1,0.2 l 0.1,0 c 0.1,0 0.1,0.2 0.2,0.2 l 0,0 c -0.1,-0.1 -0.1,-0.2 0,-0.2 0,0 0,0 0.1,0 0,-0.1 0.1,-0.1 0.2,-0.1 0,0 -0.1,0 -0.1,0.1 l 0.1,0.1 c 0.1,0.2 -0.1,0.2 0,0.3 0,0.1 0.2,0 0.3,0.2 0,0 0,0.1 -0.1,0.1 l 0,0 0,0 c 0.1,0 0.1,0 0.2,0.1 -0.1,0 -0.1,0.1 -0.1,0.2 l 0,0 c 0.1,0 0.1,0.1 0.1,0.2 -0.1,-0.1 -0.2,-0.1 -0.2,0 0,0 0,0.1 -0.1,0.1 -0.2,0 -0.6,0 -1,0.1 l 0,0 c 0.5,0 1.4,0.1 1.4,0.4 0,0.2 0,0.4 -0.8,0.4 -0.8,0 -2.6,-0.3 -2.6,0.2 -0.5,-0.3 -0.1,-0.3 0.3,-0.3 m -2.6,0 c 0,-0.1 -0.1,-0.1 -0.2,-0.1 -0.1,0.1 0,0.1 -0.1,0.2 0.1,0 0.2,-0.1 0.3,-0.1 m 0.2,-0.5 c -0.1,0 -0.1,0.1 0,0 -0.2,0.1 -0.1,0.1 0,0 -0.1,0 -0.2,0 -0.2,0 0,-0.1 0,-0.1 0,-0.1 l 0,-0.1 c 0,0 -0.1,-0.1 -0.2,-0.1 -0.1,0 -0.1,0.1 -0.1,0.2 0,0.1 0.1,0.1 0.1,0.1 0.1,0 0.1,0 0.1,0.1 0,0.1 0,0.1 -0.1,0.1 0.1,0 0.1,0 0.1,0.1 l -0.1,0 c 0,0 0,0 0,0.1 0,0 0,0 0.1,0 l 0.3,-0.1 c 0,-0.1 0,-0.1 0,-0.3 0,0.1 0,0.1 0,0 m 0.1,0.2 c -0.1,0 -0.1,0.1 -0.1,0.2 0,0 0.2,-0.1 0.3,-0.1 -0.1,0 -0.1,-0.1 -0.2,-0.1" id="path3261" inkscape:connector-curvature="0" style="fill:#ffffff" />
          </g>
          <g transform="translate(80.474,795.66)" id="g3263" style="fill:#ffffff">
            <path d="m -76.2,105.8 c 0,-0.1 0.1,-0.1 0.2,-0.1 1,-0.3 2.2,0.5 2.8,0.3 -0.8,0.3 -1.3,-0.2 -2.1,0 0.5,0 0.9,0.1 1,0.2 -0.4,-0.2 -1.3,0.2 -1.8,-0.1 0,0 -0.1,0 -0.1,-0.1 -0.3,-0.1 -0.6,-0.2 -0.6,-0.5 0,-0.7 2.6,-0.1 2.6,-0.4 0,-0.2 -0.5,-0.4 -1.2,-0.4 -0.5,0 -1.4,0.3 -2.6,0.1 l 0,0 c 0.1,0.2 0.3,0.5 0.2,0.6 0.1,0 0.2,0.1 0.2,0.2 -0.1,0.1 -0.1,0.1 -0.2,0.1 0,0.1 0,0.1 0,0.1 0,0 0,0.1 -0.1,0.1 0,0 -0.1,0.1 -0.2,0.1 -0.1,0.1 -0.2,0 -0.2,0.1 l -0.1,0 c 0,0 -0.1,0 -0.1,-0.1 0,0 -0.1,0.1 -0.2,0.1 0,-0.1 -0.1,-0.2 0,-0.3 -0.1,0 -0.2,-0.2 -0.3,-0.2 0,-0.1 0.1,-0.1 0.1,-0.1 -0.1,-0.1 -0.1,-0.3 -0.2,-0.3 l 0.1,-0.1 c 0,-0.2 -0.1,-0.5 0,-0.6 -0.2,0.2 -0.4,0.5 -0.6,0.6 -0.2,0.1 -0.2,0.2 -0.2,0.3 0,0.1 0.1,0.2 0.1,0.4 l 0,0.1 c 0,0.1 -0.1,0.1 -0.2,0.1 l 0.1,-0.1 -0.1,-0.1 0,-0.1 0,0 c 0,0 0,0 0,-0.1 l 0,0 c 0,0.1 -0.1,0.2 -0.2,0.2 0,0 0,0 -0.1,0 l 0,0 c 0,0.1 -0.1,0.2 -0.2,0.1 l 0.1,0 0,-0.1 c 0,-0.1 0.1,-0.1 0.2,-0.1 l 0,0 0,0 0,0 c -0.2,0.1 -0.2,0 -0.3,-0.1 l 0,-0.1 c -0.1,0 -0.1,-0.1 0,-0.2 l 0,0.1 0,0 0,0 c 0,0 0,0 0.1,0 l 0,0 c 0,0 0,0 0.1,0 l 0,0 c -0.1,-0.1 -0.1,-0.2 0.1,-0.2 l 0,0 c 0,-0.2 -0.3,-0.2 -0.3,0 -0.2,-0.2 0.1,-0.4 0.3,-0.3 l 0,0 c 0,0 0,-0.1 0.1,-0.1 l 0,0 0,0 c 0,-0.1 0,-0.1 0.1,-0.1 l 0,0.1 c 0,0 0,-0.3 0.3,-0.5 0.1,-0.2 0.2,-0.3 0.4,-0.3 0.1,-0.1 0.1,-0.2 0.1,-0.2 0,0 -0.4,0 -0.5,0 -0.1,0 -0.2,-0.1 -0.3,-0.1 l 0,0 0,0 c -0.1,0 -0.2,0 -0.3,0.1 0,0 0,0.1 -0.1,0.2 0,0.1 -0.1,0.1 -0.1,0.1 l -0.1,0 c -0.1,0.1 -0.2,0.1 -0.2,0 0,0 0.1,0 0.1,-0.1 l 0,-0.1 c 0,0 0,-0.1 0.2,-0.2 l 0,0 -0.1,0 c -0.1,0.1 -0.1,0.2 -0.2,0.1 0,0 0,0 -0.1,0 l 0,0 c -0.1,0 -0.2,-0.1 -0.2,-0.2 0,0 0,0.1 0.1,0.1 l 0,-0.1 c 0,-0.1 0.1,-0.2 0.3,0 l 0,0 c -0.1,-0.1 -0.2,-0.2 -0.1,-0.3 l 0,0 0,0 c 0,-0.1 0.1,-0.2 0.2,-0.2 0,0 -0.1,0.1 -0.1,0.2 l 0.1,0 c 0.1,0 0.1,0.2 0.1,0.2 l 0,0 c 0,-0.1 0,-0.2 0.2,-0.2 0.1,0 0.2,0.1 0.2,0.2 l 0,0 0.1,-0.1 c 0,0 0.1,0 0.1,0.1 0,-0.1 0,-0.1 -0.1,-0.2 0,0 0.2,0.1 0.2,0.2 0,0 0,0 0,-0.1 l 0,0 c 0,0 0.1,0 0.3,0 l 0,0 0,-0.1 c 0,0 0,0.1 0.1,0.1 0,0 0,-0.1 0.1,-0.2 0,0.3 0.2,0.2 0.4,0.3 l 0,0 c 0,0 0,-0.1 -0.1,-0.1 0.1,0 0.3,0.1 0.3,0.2 0,0 0.2,0.2 0.2,0.6 l 0.1,0 c 0.3,0 0.4,0.2 0.7,0.2 -0.1,-0.1 -0.1,-0.3 -0.1,-0.4 0,-0.1 0.2,-0.3 0.3,-0.4 l 0,0 c -0.1,0 -0.2,0 -0.2,-0.1 -0.2,-0.1 -0.2,0.3 -0.5,0.2 0,0 0,0 -0.1,-0.1 -0.1,0 -0.2,-0.1 -0.2,-0.2 0,0 0.1,0.1 0.2,0.1 l 0,0 c 0,0 0,-0.1 0.1,-0.1 l 0.1,0 0,0 c 0,-0.1 -0.3,0.1 -0.2,-0.2 l 0,-0.1 c 0,-0.1 0.1,-0.2 0.2,-0.1 l -0.1,0.1 0.1,0 0,0 0,0 0,0 c 0,0 0,0 0,-0.1 l 0,-0.1 c 0,-0.1 0.1,-0.2 0.3,-0.1 0,0 -0.1,0 -0.1,0.1 l 0.1,0 0,0.1 0,0 c 0,0 0,0 0.1,0 l 0,0 c 0,0 0.1,-0.1 0.2,-0.1 0.2,0.1 0,0.2 0.2,0.2 l 0.1,0 c 0.1,0 0.2,-0.1 0.3,0 0,0.1 0,0.3 -0.1,0.4 -0.1,0 0.1,0.5 -0.3,0.8 0.2,0 0.8,-0.1 0.9,0 0.2,0 0.4,-0.2 0.4,-0.2 l 0,-0.1 c -0.2,-0.1 -0.1,-0.1 -0.2,-0.2 l 0,0 c 0,0 -0.1,0.1 -0.2,0.2 -0.1,0 -0.1,0 -0.1,0 -0.1,0 -0.2,0 -0.2,-0.1 0,0 0.1,0 0.2,0 l 0,0 0,-0.1 0,0 0,0 0,0 0,0 c -0.1,0 -0.3,0 -0.2,-0.1 0,0 0,0 0,-0.1 -0.1,0 -0.1,-0.1 0,-0.2 0,0 0,0.1 0.1,0.1 0,0 0,0 0,-0.1 0,0 0.1,0.1 0.2,0.1 l 0,0 c -0.1,0 -0.2,-0.1 -0.1,-0.2 0,0 0,0 0,-0.1 0,-0.1 0,-0.2 0.1,-0.2 l 0,0.1 0.1,0 c 0.2,0.1 0.1,0.2 0.1,0.3 0.1,0.1 0.1,-0.1 0.3,0 l 0,0.1 0,0 0,0 c 0,0 0.1,-0.1 0.1,0 -0.1,0.1 0,0.1 0.1,0.2 l 0,0 c 0,0 0.1,0 0.2,0.1 -0.1,0 -0.3,0.1 -0.2,0.1 0.2,0.1 0.2,0.2 0.1,0.3 -0.1,0.2 -0.4,0.2 -0.4,0.4 0.1,0 0.2,0 0.3,0 0.9,0 1.5,0.2 1.4,0.5 0,0.6 -2.7,0 -2.7,0.4 0.4,0.2 0.5,0.3 0.7,0.3 m -1.9,0 c 0,0 0.2,-0.1 0.3,-0.1 -0.1,0 -0.1,-0.1 -0.2,-0.1 -0.1,0 -0.1,0.1 -0.1,0.2 m -0.2,0 c 0,-0.1 -0.1,-0.1 -0.2,-0.1 -0.1,0.1 0,0.1 -0.1,0.2 0.1,0 0.3,0 0.3,-0.1 m -0.2,-0.6 c 0,0.1 0,0.1 0,0 0.1,0.1 0.2,0.1 0.2,0.1 0,0.1 0,0.1 -0.1,0.1 0.1,0 0.1,0 0.1,0.1 l -0.1,0 0,0.1 c 0,0 0,0 0.1,0 l 0.2,-0.1 c 0,0 0,0 0,-0.1 l 0,-0.1 c 0,0 0,0.1 -0.1,0.1 0,0 0,0 0,-0.1 -0.1,0 -0.1,0 -0.1,0 l 0,-0.1 0,-0.1 c 0,-0.1 -0.1,-0.1 -0.2,-0.1 -0.1,0.1 -0.1,0.2 0,0.2" id="path3265" inkscape:connector-curvature="0" style="fill:#ffffff" />
          </g>
          <g transform="translate(65.817,811.43)" id="g3267" style="fill:#ffffff">
            <path d="m -104.4,136.2 c 0,0.4 -0.3,0.6 -0.6,0.6 -0.4,0 -0.6,-0.3 -0.6,-0.6 0,-0.3 0.3,-0.6 0.6,-0.6 0.3,0 0.6,0.3 0.6,0.6" id="path3269" inkscape:connector-curvature="0" style="fill:#ffffff" />
          </g>
          <g transform="translate(65.74,812.02)" id="g3271" style="fill:#ffffff">
            <path d="m -104.6,137.4 c 0,0.4 -0.3,0.6 -0.6,0.6 -0.4,0 -0.6,-0.3 -0.6,-0.6 0,-0.3 0.3,-0.6 0.6,-0.6 0.4,-0.1 0.6,0.2 0.6,0.6" id="path3273" inkscape:connector-curvature="0" style="fill:#ffffff" />
          </g>
          <g transform="translate(65.865,812.28)" id="g3275" style="fill:#ffffff">
            <path d="m -104.3,137.9 c 0.4,0 0.6,0.3 0.6,0.6 0,0.3 -0.3,0.6 -0.6,0.6 -0.4,0 -0.6,-0.3 -0.6,-0.6 0,-0.3 0.2,-0.6 0.6,-0.6" id="path3277" inkscape:connector-curvature="0" style="fill:#ffffff" />
          </g>
          <g transform="translate(66.449,812.31)" id="g3279" style="fill:#ffffff">
            <path d="m -103.2,137.9 c 0.4,0 0.6,0.3 0.6,0.6 0,0.4 -0.3,0.6 -0.6,0.6 -0.4,0 -0.6,-0.3 -0.6,-0.6 0,-0.3 0.3,-0.6 0.6,-0.6" id="path3281" inkscape:connector-curvature="0" style="fill:#ffffff" />
          </g>
          <g transform="translate(68.941,812.72)" id="g3283" style="fill:#ffffff">
            <path d="m -98.4,138.7 c 0.3,-0.2 0.7,-0.2 0.9,0 0.2,0.2 0.2,0.7 0,0.9 -0.3,0.3 -0.7,0.3 -0.9,0 -0.2,-0.2 -0.2,-0.6 0,-0.9" id="path3285" inkscape:connector-curvature="0" style="fill:#ffffff" />
          </g>
          <g transform="translate(68.892,813.19)" id="g3287" style="fill:#ffffff">
            <path d="m -98.5,139.6 c 0.3,0.2 0.3,0.7 0,0.9 -0.3,0.2 -0.7,0.3 -0.9,0 -0.3,-0.2 -0.2,-0.7 0,-0.9 0.3,-0.2 0.7,-0.2 0.9,0" id="path3289" inkscape:connector-curvature="0" style="fill:#ffffff" />
          </g>
          <g transform="translate(68.31,813.28)" id="g3291" style="fill:#ffffff">
            <path d="m -99.6,139.8 c 0.2,0.2 0.2,0.7 0,0.9 -0.3,0.3 -0.7,0.3 -0.9,0 -0.2,-0.3 -0.2,-0.7 0,-0.9 0.2,-0.3 0.6,-0.3 0.9,0" id="path3293" inkscape:connector-curvature="0" style="fill:#ffffff" />
          </g>
          <g transform="translate(67.814,812.91)" id="g3295" style="fill:#ffffff">
            <path d="m -100.6,139.1 c 0.2,0.2 0.2,0.7 0,0.9 -0.3,0.2 -0.7,0.2 -0.9,0 -0.2,-0.3 -0.2,-0.7 0,-0.9 0.3,-0.3 0.7,-0.3 0.9,0" id="path3297" inkscape:connector-curvature="0" style="fill:#ffffff" />
          </g>
          <g transform="translate(66.415,813.21)" id="g3299" style="fill:#ffffff">
            <path d="m -103.3,139.7 0.5,-1.1 0.6,0.8 0.1,0 c 0.1,-0.4 0.1,-1 0.1,-1.4 0,-0.5 0.4,-0.8 0.8,-0.8 0.4,0 0.8,0.4 0.8,0.8 0,0.3 -0.2,0.6 -0.4,0.7 -0.3,0.2 -0.7,0.6 -0.9,0.8 l 0,0.1 1.1,-0.1 -0.4,1.2 -0.8,-0.7 0,0 -0.1,1.2 -1.1,-0.4 0.7,-0.9 0,-0.1 -1,-0.1 z" id="path3301" inkscape:connector-curvature="0" style="fill:#ffffff" />
          </g>
          <g transform="translate(68.955,812.53)" id="g3303" style="fill:#ffffff">
            <path d="m -98.4,138.3 c 0.2,-0.4 0.3,-0.6 0.4,-0.9 -0.2,0.1 -0.4,0.3 -0.7,0.6 l 0.1,-1.5 c 0.2,0.3 0.3,0.4 0.5,0.5 -0.1,-1 -0.4,-1.4 -0.8,-1.4 -0.4,-0.1 -0.7,0.2 -0.8,0.5 -0.1,0.4 0.3,0.7 0.7,0.3 0.1,0.9 -0.7,0.9 -1,0.5 0.4,0.9 0.2,1.4 -0.5,1.9 -0.5,-0.8 -0.3,-1.3 0.3,-2 -0.6,0.3 -1.1,-0.2 -0.6,-0.9 0.1,0.6 0.6,0.4 0.7,0 0.1,-0.4 -0.3,-0.9 -0.9,-1.1 -0.9,-0.3 -1.2,0.3 -1.4,0.8 0.2,0.1 0.7,0.1 1.2,-0.3 l -0.4,1.5 c -0.2,-0.5 -0.5,-0.7 -0.9,-0.9 0,0.4 0.3,1.3 0.3,1.3 l -1.8,-0.7 c 0,0 0.8,-0.4 1.1,-0.7 -0.4,-0.1 -0.7,-0.2 -1.2,0 l 0.7,-1.4 c 0.1,0.6 0.4,1 0.7,1 0.2,-0.5 0.4,-1.1 -0.5,-1.6 -0.6,-0.3 -1.2,-0.2 -1.4,0.1 -0.2,0.4 0,0.9 0.5,0.5 -0.1,0.8 -0.8,0.8 -1,0.2 0,0.9 -0.2,1.4 -1.1,1.6 -0.2,-0.9 0.1,-1.4 0.9,-1.7 -0.5,0.1 -1,-0.4 -0.3,-1 0,0.5 0.5,0.6 0.7,0.2 0.2,-0.3 0.1,-0.7 -0.2,-0.9 -0.3,-0.2 -0.8,-0.2 -1.6,0.5 0.2,0.1 0.4,0.1 0.8,0 l -0.9,1.2 c 0.1,-0.4 0,-0.7 -0.1,-0.9 -0.2,0.2 -0.3,0.4 -0.4,0.9 l -0.7,-0.6 c 0.7,-0.4 1.5,-1.1 2.4,-2.4 1,0.6 2.8,1.5 3.9,2 1.1,0.5 3,1.1 4.2,1.3 -0.2,1.6 -0.1,2.6 0.1,3.4 l -1,0.1 z" id="path3305" inkscape:connector-curvature="0" style="fill:#ffffff" />
          </g>
          <g transform="translate(73.768,798.57)" id="g3307" style="fill:#ffffff">
            <path d="m -89.1,111.5 c 0.3,0.7 -1,1.5 -1.2,2.4 -0.2,0.9 0,1.9 -1.2,3.2 -1.1,1.3 -4.9,5.4 -6.1,6.7 0.3,0 1,0.2 1.7,-0.5 0.4,-0.4 1.2,-1.2 2,-1.9 1,2.6 2.3,4.5 4.1,6.6 0.2,0.3 0.5,0.5 0.7,0.8 -0.7,-0.2 -1.7,-0.4 -2.3,-0.8 0,1.1 0,2 -0.7,2.8 0.3,1.6 0,3.5 -3.5,5.8 1.8,-0.4 2.9,-2.1 4.3,-0.8 -1.2,0 -1.3,2.7 -5.8,5 1.7,0 3,-2.7 5,-1.2 -1.9,0.2 -2.5,3.5 -5.9,4.6 1.2,-0.1 2.4,-0.7 3.4,0.7 -1.2,-0.3 -1.9,0.8 -3.1,0.9 0.5,1.5 0.4,2.4 -0.1,3.4 -0.9,-0.1 -1.8,-0.3 -2.4,-0.9 -0.1,0.8 -0.9,0.8 -1.7,0.8 0,-0.3 0.2,-0.8 -0.2,-0.9 -0.6,-0.1 -2.6,-0.7 -4.2,-1.3 -1.5,-0.6 -3.3,-1.7 -3.8,-2.1 -0.3,-0.2 -0.6,0.3 -0.8,0.5 -0.5,-0.5 -1.1,-1.1 -0.7,-1.7 -0.9,-0.1 -1.8,-0.3 -2.6,-0.9 0,-1 0.8,-2 2.1,-2.5 -2.1,-2.1 -0.2,-4 -2,-5.8 2.6,-0.1 2.1,3.5 3.4,4 -0.1,-2.5 -1.5,-3 -1.5,-5.7 0,-1.5 0.9,-3 0.1,-4 2.2,0.6 1.6,5.4 2.9,6.8 0.2,-0.8 0.1,-1.6 -0.2,-2.4 -0.8,-2.2 0.1,-5.3 -1.1,-6.2 2.2,0.2 2.5,3.7 4.3,5 -1.6,-3.2 -3.1,-9.9 -5.5,-13.3 -3.7,-5.1 -6,-11.2 -9.4,-11.2 -1.5,0 -2.7,0.9 -2.7,2.8 0,5.7 9.9,9.7 9.9,15.8 0,2.7 -2.2,3.8 -3.6,3.8 -0.9,0 -2.1,-0.5 -3,-1.2 -0.4,0.2 -0.8,0.3 -1.2,0.3 -3.5,0 -2.6,-6.3 -5.6,-6.2 1.2,-0.7 3.3,0.6 4.5,2.4 -0.5,-4.1 -6.4,-3 -5.9,-7.9 0.8,3.8 10.1,3.3 10.1,9.1 0,0.7 -0.3,1.2 -0.8,1.6 0.7,0.4 1.4,0.6 2,0.6 1.1,0 2.1,-0.8 2.1,-2.5 0,-5.1 -9.8,-9.5 -9.8,-15.8 0,-1.1 0.3,-2 0.8,-2.6 -0.7,-0.3 -1.4,-0.2 -2,0.5 -0.1,-1.6 2.3,-2.6 3.7,-1.8 0.3,-0.1 0.7,-0.2 1,-0.2 -0.4,-1.2 -1.9,-1.6 -2.7,-1.5 2.4,-1.9 6.6,0.6 6.4,2.7 1.9,1.5 3.1,4.2 4.5,5.9 -0.1,-0.4 -0.2,-0.8 -0.2,-1.2 -1.4,-2.6 -2.7,-4.8 -3.1,-8.2 -0.3,-2.8 -1.7,-5.4 -3.7,-5.4 -0.4,0 -1.1,0.6 -1.5,0.3 -0.6,-0.5 0,-1.1 0,-1.6 0,-0.8 -1.5,-1.6 -1.5,-4.1 0,-1.1 0.6,-2.4 0.4,-3.2 0.6,0.3 1.5,1.4 1.8,2.7 0.7,-3.3 -1.4,-3.1 0.1,-6 0.2,1 1.1,1.4 1.7,1 0.6,-0.4 0.3,-0.7 -0.1,-1.1 -0.4,-0.4 -0.8,-2.6 1.1,-2.5 -0.4,0.2 -0.4,0.8 0.6,1 1.4,0.3 1.8,-0.4 3.2,-0.4 0.9,0 1.1,1.2 1.9,1.2 0.7,0 0.7,-0.6 0.5,-1 1.1,0.3 1.4,0.9 1.4,1.6 0,0.6 -0.5,1 -0.1,1.3 0.4,0.2 1.7,0 1.2,-1.1 0.7,0.1 1.1,0.6 1.1,1.5 0,0.8 -1,1.3 -1.8,1.2 -0.2,0.5 -0.9,0.8 -1.6,0.8 -1.6,0 -1.4,-1.3 -2.5,-1.3 -1.8,0 -3.5,2.3 -3.5,6.2 0,2.1 2.2,2.6 3.8,3.3 1.6,0.7 4.3,2.4 6,5.2 1.3,2.2 1.3,4.6 1.2,7.4 2.2,-1.3 2.5,-3.1 2.5,-4.4 0,-1.7 -0.9,-2.4 -1.6,-2.7 -0.6,-0.3 -0.8,-0.2 -0.9,-0.5 -0.1,-0.4 0.2,-0.7 0.5,-0.8 0.8,-0.4 0.6,-1.2 0.9,-2 0.2,-0.8 1,-2.1 2.2,-3.1 0.1,0.5 0.1,1.3 0,2.4 1.7,-0.8 0.3,-4.3 3.7,-4.3 -0.6,0.4 -0.4,1.2 -0.1,1.4 0.3,0.2 0.8,-0.2 1.4,-1.1 0.6,-0.9 0.5,-0.8 2,-0.8 1.6,0 0.9,0.5 1.7,0.5 0.8,0 0.8,-1 0.3,-1.7 1.4,0.4 1.8,1.5 1.3,2.6 1.2,0.7 1.9,-0.3 2.1,-1 1.2,1.2 0,2.7 -1,2.8 0,0.4 -0.4,0.9 -0.9,1 -0.5,0 -1,0.1 -1.6,0 -0.6,0 -0.9,-0.9 -1.6,-0.9 -2.1,0 -6.2,3.8 -6.2,5.4 0,1.6 3.9,2.6 3.9,5.1 0,3.3 -3.2,4.4 -6,6.5 1,1.1 3.8,1.4 5.4,0.6 0.2,0.9 0.8,0.7 1,2.3 0.6,-1.4 0,-2.6 0.6,-3.2 0.5,0.7 1.6,0.6 1.6,2.3 0.4,-1.1 -0.5,-2.7 0.4,-3.5 0.1,0.9 0.7,1.1 1,1.1 0.3,0 0.6,-0.2 0.6,-0.8 0,-1.3 -1.6,-0.7 -1.6,-2.2 0,-0.6 0.8,-0.8 0.8,-1.2 0,-0.4 -0.6,-1 -1.4,-0.5 0.3,-0.6 0.8,-1.1 1.5,-1.1 0.7,0 1.5,0.6 1.8,1.3 0.4,-0.9 0.1,-2 -0.6,-2.1 0.7,-0.4 2.4,0 2.2,2.2 1,-0.2 1.5,-0.8 0.9,-2 0.8,0.2 1.5,0.6 1.5,1.4 0,0.6 -0.7,0.8 -0.4,1.7 m -18.6,29.7 c -0.9,-0.1 -0.9,0.8 -2.5,1.2 1.1,0.2 2.5,0.8 3.8,1.3 0.3,-1.1 -0.2,-2.4 -1.3,-2.5 m 6.4,-6.7 c -1.2,-0.5 -2.1,0.5 -2.3,1.2 -0.2,0.7 -0.4,1.3 -0.1,1.5 0.5,0.5 0.7,0.9 0.4,1.5 -0.3,0.7 -1.1,0.4 -1.9,0.2 0.4,0.7 0.4,1.2 -0.1,1.1 -0.6,-0.1 -0.6,-1.1 -1,-0.9 -0.3,0.1 -0.1,0.7 -0.1,1 0,0.4 0.3,0.6 0.7,0.8 l 3.3,1.3 c 0.4,0.2 0.7,0.2 1,-0.1 0.2,-0.2 0.8,-0.5 0.6,-0.8 -0.2,-0.3 -0.9,0.4 -1.4,0 -0.4,-0.3 -0.1,-0.6 0.7,-0.9 -0.7,-0.4 -1.5,-0.7 -1.2,-1.5 0.2,-0.6 0.6,-0.8 1.3,-0.8 0.4,0 0.6,-0.5 1,-1.2 0.2,-0.7 0.3,-1.9 -0.9,-2.4 m 0.2,9.3 c -0.9,-0.7 -2.1,-0.1 -2.6,0.9 1.2,0.5 2.7,1.1 3.6,1.7 -0.9,-1.4 -0.3,-2 -1,-2.6" id="path3309" inkscape:connector-curvature="0" style="fill:#ffffff" />
          </g>
          <g transform="translate(95.226,793.16)" id="g3311" style="fill:#ffffff">
            <path d="m -47.7,101 c 0,-1.5 1.2,-2.8 2.8,-2.8 1.5,0 2.8,1.2 2.8,2.8 0,1.6 -1.2,2.8 -2.8,2.8 -1.6,0 -2.8,-1.2 -2.8,-2.8 m 0.7,0 c 0,1.1 0.9,2.1 2.1,2.1 1.1,0 2.1,-0.9 2.1,-2.1 0,-1.2 -1,-2 -2.2,-2 -1.1,0 -2,0.9 -2,2" id="path3313" inkscape:connector-curvature="0" style="fill:#ffffff" />
          </g>
          <g transform="translate(91.694,792.29)" id="g3315" style="fill:#ffffff">
            <path d="m -54.5,99.4 c -0.4,-0.3 -0.6,-0.6 -0.7,-1 -0.1,-0.5 0.1,-1 0.4,-1.4 0.3,-0.4 0.8,-0.6 1.4,-0.7 0.6,-0.1 1.1,0 1.6,0.2 0.5,0.3 0.8,0.7 0.9,1.2 0.2,1 -0.6,1.9 -1.8,2.1 -0.7,0 -1.4,-0.1 -1.8,-0.4 m 1.2,-2.5 c -0.8,0.1 -1.3,0.7 -1.2,1.3 0.1,0.3 0.2,0.5 0.4,0.6 0.3,0.2 0.8,0.3 1.2,0.2 0.7,-0.1 1.3,-0.6 1.3,-1.2 l 0,-0.1 c -0.2,-0.6 -0.9,-1 -1.7,-0.8" id="path3317" inkscape:connector-curvature="0" style="fill:#ffffff" />
          </g>
          <g transform="translate(86.481,805.57)" id="g3319" style="fill:#ffffff">
            <path d="m -64.6,124.9 c -0.9,-0.7 -1.1,-1.8 -0.6,-2.5 l 0,0 c 0.6,-0.7 1.7,-0.7 2.6,-0.1 0.5,0.4 0.8,0.9 0.8,1.4 0,0.4 0,0.8 -0.3,1.1 -0.2,0.3 -0.6,0.5 -1,0.5 -0.4,0.2 -1,0 -1.5,-0.4 m -0.1,-1.6 c 0,0.4 0.2,0.8 0.6,1.1 0.3,0.2 0.7,0.4 1,0.3 0.2,0 0.4,-0.1 0.5,-0.3 0.1,-0.2 0.2,-0.4 0.1,-0.6 0,-0.3 -0.3,-0.7 -0.6,-0.9 -0.5,-0.4 -1.3,-0.4 -1.6,0 0,0.1 0,0.2 0,0.4" id="path3321" inkscape:connector-curvature="0" style="fill:#ffffff" />
          </g>
          <g transform="translate(90.583,793.87)" id="g3323" style="fill:#ffffff">
            <path d="m -56.7,102.4 c -0.4,-0.4 -0.7,-1 -0.7,-1.7 l 0,-0.1 c 0,-0.6 0.2,-1.2 0.6,-1.6 0.3,-0.3 0.7,-0.5 1.1,-0.5 0.4,0 0.8,0.2 1.1,0.5 0.4,0.4 0.7,1 0.7,1.7 0,0.6 -0.2,1.1 -0.5,1.5 -0.3,0.4 -0.8,0.7 -1.3,0.7 -0.3,0 -0.7,-0.2 -1,-0.5 m 1.1,-3.2 0,0 c -0.3,0 -0.5,0.2 -0.6,0.3 -0.3,0.3 -0.4,0.7 -0.4,1.2 0,0.5 0.2,0.9 0.5,1.2 0.1,0.1 0.4,0.3 0.6,0.3 0.6,0 1.1,-0.7 1,-1.5 0,-0.5 -0.2,-0.9 -0.5,-1.2 -0.1,-0.1 -0.3,-0.3 -0.6,-0.3 m 0,-0.7 0,0 0,0 z" id="path3325" inkscape:connector-curvature="0" style="fill:#ffffff" />
          </g>
          <g transform="translate(85.951,801.51)" id="g3327" style="fill:#ffffff">
            <path d="m -65.6,117.1 c -0.4,-0.1 -0.8,-0.4 -0.9,-0.8 -0.4,-0.9 0.1,-2 1.2,-2.5 0.6,-0.3 1.2,-0.3 1.8,-0.1 0.4,0.1 0.8,0.4 0.9,0.8 0.2,0.4 0.2,0.8 0,1.2 -0.2,0.5 -0.6,1 -1.2,1.3 -0.6,0.3 -1.3,0.3 -1.8,0.1 m 0.5,-2.7 c -0.7,0.3 -1.1,1.1 -0.8,1.6 0.1,0.3 0.4,0.4 0.5,0.4 0.4,0.1 0.8,0.1 1.2,-0.1 0.4,-0.2 0.7,-0.5 0.9,-0.9 0.1,-0.2 0.1,-0.4 0,-0.7 -0.1,-0.3 -0.4,-0.4 -0.5,-0.4 -0.4,-0.1 -0.8,-0.1 -1.3,0.1" id="path3329" inkscape:connector-curvature="0" style="fill:#ffffff" />
          </g>
          <g transform="translate(95.898,802.49)" id="g3331" style="fill:#ffffff">
            <path d="m -46.4,119 c 0.9,-2.5 2.7,-3.4 4.1,-2.7 -3.1,0.4 -0.6,5.6 -4.5,5.6 -0.2,0 -0.4,0 -0.6,-0.1 -0.7,0.7 -1.4,1 -2.6,1 -1.7,0 -4.5,-1.6 -4.5,-4.9 0,-7.1 8.3,-7.8 8.3,-14.1 0,-1.8 -1.4,-3 -3,-3 -1.4,0 -2.5,1.6 -3.7,4 -0.6,1.2 -1.8,2.8 -3,4.4 0.4,-0.3 0.8,-0.4 1.2,-0.4 0.4,0 0.9,0.1 1.2,0.4 0.3,0.3 0.5,0.7 0.5,1.1 l 0,0.1 c 0,0.6 -0.2,1.1 -0.7,1.6 -0.5,0.5 -1,0.8 -1.6,0.8 -0.4,0 -0.9,-0.1 -1.2,-0.4 -0.3,-0.3 -0.5,-0.7 -0.5,-1.1 l 0,-0.1 c 0,-0.2 0,-0.5 0.1,-0.7 -1.8,2.3 -3.4,4.6 -3.4,5.9 0,1.1 0.8,2.1 1.7,3.2 l 0.3,-0.2 0.2,0.3 c 0.3,0.4 1,1.1 2.5,2.7 l 0.1,0.1 0,0 0.3,0.4 -0.9,0.7 c 0.2,0.5 0.4,1.1 0.6,1.8 0.3,-1.1 0.9,-1.9 1.7,-1.6 -0.5,1.2 0.5,2.8 -0.2,5.7 0.7,-1.1 1.7,-1.7 2.4,-1.5 -1.8,1.6 0.5,3.9 -1.8,7.4 0.8,-0.3 1.3,-0.1 1.7,0.3 -2.2,0.3 -1.2,3.1 -5,4.1 1,0.2 1.5,0.7 1.4,1.2 -1,-0.7 -1.9,1.4 -5.2,1.3 -0.2,1.2 -1.4,2.6 -2.7,3.2 0.2,-1 0,-1.8 -0.2,-2.6 l -10.8,10.6 c -0.3,0.3 -0.5,0.4 -0.6,0.3 -0.1,-0.1 -0.1,-0.3 0.1,-0.5 l 9.3,-11.7 c -0.7,-0.2 -1.4,-0.5 -2.1,-0.8 -0.5,-0.2 -0.8,-0.6 -0.8,-1.2 -1.7,-0.9 -3.2,-1.9 -4,-2.6 -0.6,-0.5 -1,-0.6 -0.5,-1.8 0.2,-0.4 -0.4,-1.5 0.9,-0.7 0.9,0.5 2.9,1.6 3.2,0.9 0.2,-0.4 -0.8,-0.8 -1.5,-1.1 -0.7,-0.3 -1.4,-0.8 -1.3,-1.1 0.1,-0.3 0.6,0 0.7,-0.3 0,-0.3 0.3,-0.6 0.5,-0.6 0.3,0 0.6,0.6 0.8,0.4 0.2,-0.2 -0.1,-1.5 -0.3,-1.8 1.1,0.1 1.7,1.1 1.8,1.9 0,0.8 0.2,1 0.4,1.1 0.2,0.1 0.4,-0.8 0.1,-1.4 0.6,0.1 1.1,0.9 1.1,2.2 0.3,0.2 0.6,0.4 0.8,0.4 0.4,0 1.1,-1 2.1,-1 1.8,0 2.9,1.5 3,2.2 0.1,0.6 0,1.1 -0.3,1.5 0.7,-0.5 0.9,-1.4 0.9,-2 0,-2.6 -4.6,-3.8 -6.5,-5.6 -0.1,-0.1 -0.1,-0.1 -0.2,-0.2 l -2.2,0.8 -0.1,-0.5 c 0,0 0,-0.1 -0.1,-0.4 -0.2,-0.7 -0.7,-2.3 -1,-3.2 l -0.1,-0.4 0.2,-0.1 c -1.3,-1.7 -2.3,-3.6 -2.5,-5.6 -0.5,0.5 -1,1 -1.6,1.4 0.1,0.2 0.1,0.4 0.1,0.6 0,0.6 -0.1,1.1 -0.5,1.5 -0.3,0.3 -0.6,0.5 -1,0.5 -0.4,0 -0.7,-0.1 -1.1,-0.4 -0.1,-0.1 -0.1,-0.1 -0.2,-0.2 -0.1,0.1 -0.2,0.1 -0.2,0.2 -0.7,0.6 -1.6,1.2 -2.1,1.8 -0.2,0.3 -0.5,0.4 -0.9,0.4 -0.2,0 -0.6,0 -1,0 -0.3,0 -0.5,-0.2 -0.9,-0.6 -0.2,-0.2 -0.7,-0.5 -1.2,-1 0.3,-0.3 0.5,-0.5 0.8,-0.8 0.1,-0.2 0.3,-0.3 0.4,-0.5 0.1,0.1 0.3,0.2 0.4,0.3 0.2,0.2 0.5,0.2 0.8,0.2 0.3,0 0.7,-0.2 0.9,-0.6 0.2,-0.3 1.9,-2.6 3.4,-4.2 -0.2,-0.1 -0.3,-0.1 -0.5,-0.2 -0.6,-0.3 -2,-0.2 -2.6,-0.2 -0.6,0.1 -0.7,0.2 -1.2,-0.5 -0.2,-0.3 -0.4,-0.6 -0.6,-0.8 -0.2,-0.3 -0.4,-0.5 0.1,-1.3 0.6,-1.1 2.2,-3.9 2.8,-5.2 0.5,-1.3 1.1,-1.5 2.2,-1.9 1,-0.4 2.7,-1.4 2.9,-1.6 l 0.1,1 c -0.3,0.3 -1.3,0.7 -1.6,0.8 -0.4,0.1 -0.5,0.3 0,0.3 0.4,0 1.6,-0.4 2.5,-0.8 -0.3,1 -1.2,2 -1.7,2.6 -0.7,0.2 -1.5,0.2 -1.8,0 0,-0.2 -0.1,-0.5 -0.4,-0.5 -0.3,0 -0.5,0.2 -0.4,0.5 0.1,0.3 0.5,0.4 0.4,0.9 -0.1,0.6 -0.8,0.6 -1.2,0.7 -0.6,0.9 -1.3,2.2 -1.7,2.7 -0.3,0.5 -0.1,0.8 0.1,1 0.5,0.4 1.6,-0.2 3.8,-0.4 0.8,0 1.7,-0.1 2.7,-0.1 0.3,-2.6 1.3,-5 4.9,-5.9 1.7,-0.4 3.5,-1.7 4.1,-3.4 -7.1,0.1 -8.2,-2.6 -8.2,-5.3 0,-3 2.5,-2.8 2.5,-5 0,-1.9 -6,-2.7 -7.8,-3 -1.5,-0.2 -2.4,-0.6 -3.1,-1.3 -0.7,-0.7 -1.5,-1.4 -2.8,-2.8 0,0 0.6,-0.1 1.1,-0.1 l 1,1.3 c 0.3,0.4 0.5,0.8 0.7,0.8 0.2,0 0.1,-0.4 -0.2,-0.8 l -0.8,-1.4 c 3.5,-0.2 3.7,1.1 3.7,1.6 0,0.5 -0.9,0.9 -0.4,1.2 0.5,0.3 0.9,0.1 1.3,-0.4 0.4,-0.5 0.5,-0.9 1.5,-0.5 0,0 7.6,3.2 8.6,3.6 0.9,0.4 0.6,0.8 0.1,1.2 -0.6,0.5 -0.7,1.2 -0.7,2 0,2.3 1.4,3 3.9,3 0,-0.4 -0.1,-0.8 -0.1,-1.1 0,-3.6 5.5,-7.1 6.9,-7.1 0.7,0 1.5,0.5 1.6,-1.7 0,-1.6 0.4,-2.7 0.1,-4.6 -0.3,-1.8 -0.8,-2.1 -1.9,-2.9 -1.1,-0.8 -2.2,-3.2 -2.6,-3.7 0.5,-0.3 1,-0.4 1.4,0.8 0.3,1 0.7,1.7 1.2,1.9 -0.4,-1.1 -0.7,-2.7 -1,-3.2 1.4,-0.2 3.7,1 3.7,2 0,1 -0.8,0.9 -0.8,1.6 0,0.3 0.4,0.6 0.8,0.6 0.6,0 1,-0.4 1,-0.7 0.6,0.3 1,0.9 1,2.4 0,0.6 0,1.1 -0.1,1.7 0,-0.1 0.1,-0.2 0.1,-0.2 0.3,-0.4 0.7,-0.7 1.3,-0.7 0.5,0 1.1,0.1 1.5,0.4 0.5,0.4 0.9,0.9 1,1.5 0,0.1 0,0.2 0,0.4 0,0.3 -0.1,0.6 -0.3,0.9 -0.2,0.3 -0.6,0.6 -1,0.7 -0.6,0.1 -1.2,0 -1.8,-0.4 -0.5,-0.3 -0.9,-0.8 -1,-1.3 -0.1,2 -0.3,3.8 -0.2,4.6 0.1,1.1 0.1,1.6 -0.2,1.8 -0.4,0.2 -0.8,-0.5 -1.3,-0.5 -0.5,0 -2.1,1.5 -2.1,3 0,1.6 1.7,3.6 1.6,5.7 0,0.7 0.4,1 0.7,0.4 0.3,-0.7 0.8,-1.7 1.5,-2.5 -0.4,-2.7 2.5,-5.3 4.9,-3.4 -1.2,-0.2 -2,0.9 -2.6,2 0.2,0 0.4,-0.1 0.7,-0.1 0.1,0 0.2,0 0.4,0 0.9,-1.1 3.6,-1 4.3,1.7 -0.5,-0.6 -1.5,-1 -2.2,-0.9 1,0.8 1.6,2.1 1.6,3.5 0,6.8 -8.3,7.6 -8.3,13.8 0,2.3 2,3.8 3.4,3.8 0.5,0 0.9,-0.2 1.3,-0.4 -0.5,-0.5 -0.8,-1.4 -0.8,-2.4 0.2,-4.9 8.2,-4.7 8.3,-7 0.7,3.9 -5.2,2.8 -5.4,7.6 m -21.3,18.8 c 0.4,0.7 0,1.9 1.4,1.9 0.7,0 1.3,-0.7 2.1,-0.9 -1.4,-0.2 -2.6,-0.5 -3.5,-1 m -7.3,-15 c 0,-0.4 -0.2,-0.8 -0.4,-1 -0.1,-0.1 -0.3,-0.2 -0.5,-0.2 -0.5,0 -0.8,0.6 -0.8,1.2 l 0,0.1 c 0,0.4 0.2,0.8 0.4,1 0.1,0.1 0.3,0.2 0.5,0.2 0.2,0 0.4,-0.2 0.5,-0.3 0.2,-0.3 0.3,-0.6 0.3,-1 m 23.6,-34.4 c 0.1,0.4 0.4,0.8 0.7,1 0.4,0.3 0.8,0.4 1.2,0.3 0.2,0 0.4,-0.1 0.6,-0.4 l 0,0 c 0.2,-0.2 0.1,-0.5 0.1,-0.7 -0.1,-0.4 -0.4,-0.8 -0.7,-1 -0.7,-0.4 -1.5,-0.4 -1.8,0.1 -0.2,0.3 -0.1,0.5 -0.1,0.7 m -5,22.8 c 0,0.2 0.1,0.4 0.3,0.6 0.2,0.2 0.5,0.2 0.6,0.2 0.4,0 0.8,-0.2 1.1,-0.6 0.3,-0.3 0.5,-0.8 0.5,-1.2 0,-0.2 -0.1,-0.4 -0.3,-0.6 l 0,0 c -0.2,-0.2 -0.5,-0.2 -0.6,-0.2 -0.4,0 -0.8,0.2 -1.1,0.6 -0.3,0.4 -0.5,0.8 -0.5,1.2 m -13.5,15.4 c 0.4,1.2 1.1,3.6 1.1,3.6 l 1.3,-0.5 c -0.4,-0.1 -0.8,-0.5 -1.2,-0.9 0.3,-0.1 0.8,-0.1 1.1,0.1 l -0.5,-1.3 c -0.1,0.2 -0.5,0.7 -0.8,0.7 -0.3,-1 0.4,-1.4 0.8,-1.6 0.8,-0.4 1.3,-0.5 1.5,-0.1 0.2,0.4 -0.3,1 -0.9,0.8 -0.1,0.7 0.3,1 0.7,1 0.3,0 0.6,-0.3 0.7,-0.7 0,1.1 0.4,1.9 1.4,2.2 0.4,-1 0.1,-1.7 -0.7,-2.5 0.4,0.2 0.9,0.1 1.1,-0.1 0.2,-0.4 0.2,-0.9 -0.4,-1.2 -0.1,0.7 -0.9,0.7 -1.2,0.3 -0.2,-0.4 0.1,-0.9 0.8,-1.3 0.8,-0.5 1.5,-0.2 1.9,0.5 -0.3,0.1 -0.7,0 -1.2,-0.2 l 0.8,1.6 c 0,-0.2 0.2,-0.6 0.5,-0.9 0.1,0.4 0.3,1 0,1.5 l 1.8,-1 c -0.6,-0.1 -1.1,-0.5 -1.3,-0.8 0.4,-0.2 0.8,-0.1 1.1,0 l -0.9,-1.5 c 0,0.5 -0.2,0.9 -0.4,1.1 -0.4,-0.7 -0.3,-1.4 0.5,-1.9 0.7,-0.4 1.2,-0.5 1.5,-0.1 0.3,0.4 -0.2,1.1 -0.8,0.9 0,0.7 0.4,1 0.8,1 0.4,0 0.6,-0.4 0.7,-0.9 0.3,1.1 0.7,1.7 1.8,1.9 0.2,-1 -0.3,-1.8 -1.2,-2.3 0.4,0.1 0.8,0.1 1,-0.2 0.2,-0.4 0.1,-0.9 -0.5,-1.1 -0.1,0.7 -0.9,0.8 -1.1,0.4 -0.2,-0.4 0.1,-0.8 0.8,-1.2 0.4,-0.3 1.1,-0.6 1.8,0.1 -0.2,0.3 -0.8,0.4 -1.1,0.4 l 0.8,1.1 c 0,-0.4 0.2,-0.8 0.5,-1 0.1,0.5 0.2,1.1 0.1,1.5 l 1.1,-0.8 c 0,0 -1.7,-1.8 -2.5,-2.8 l -11.3,6.2 z m 11.2,-28.2 c -0.5,-0.6 -1.2,-0.9 -1.7,-0.5 -0.5,0.4 -0.5,1.2 -0.1,1.8 0.4,0.6 1.2,0.9 1.7,0.5 0.5,-0.4 0.5,-1.2 0.1,-1.8 m 3.2,5.1 c -0.5,-0.6 -1.2,-0.9 -1.7,-0.5 -0.5,0.4 -0.5,1.2 -0.1,1.8 0.5,0.6 1.2,0.9 1.7,0.5 0.5,-0.3 0.6,-1.1 0.1,-1.8" id="path3333" inkscape:connector-curvature="0" style="fill:#ffffff" />
          </g>
        </g>
      </g>
    </g>
  </g>
</svg>
