<?xml version="1.0" encoding="UTF-8"?>
<svg width="70.556mm" height="25.682mm" version="1.1" viewBox="0 0 250 91.003" xmlns="http://www.w3.org/2000/svg" xmlns:cc="http://creativecommons.org/ns#" xmlns:dc="http://purl.org/dc/elements/1.1/" xmlns:rdf="http://www.w3.org/1999/02/22-rdf-syntax-ns#">
<metadata>
<rdf:RDF>
<cc:Work rdf:about="">
<dc:format>image/svg+xml</dc:format>
<dc:type rdf:resource="http://purl.org/dc/dcmitype/StillImage"/>
<dc:title/>
</cc:Work>
</rdf:RDF>
</metadata>
<g transform="translate(28.958,-351.92)">
<circle cx="42.636" cy="387.21" r="0" fill="#f00"/>
<circle cx="9.065" cy="446.32" r="0" fill="#f00"/>
<g transform="matrix(.21979 0 0 .21979 41.688 334.26)" fill="#fff">
<rect x="3.7" y="128.1" width="6.9" height="303.2"/>
<g enable-background="new    ">
<path d="m64.9 273.9c9 0 15.9 2.3 20.8 6.9s7.3 11.6 7.3 20.9c0 4.9-0.5 9.3-1.6 13-1.1 3.8-2.8 7-5.1 9.6s-5.2 4.6-8.8 5.9c-3.5 1.4-7.7 2-12.6 2h-20v-58.4h20zm0.7 51.8c0.9 0 2-0.1 3.3-0.2s2.7-0.5 4.2-1 2.9-1.3 4.4-2.2c1.4-1 2.7-2.3 3.9-4 1.1-1.7 2.1-3.8 2.8-6.3s1.1-5.6 1.1-9.2c0-3.5-0.3-6.6-1-9.4s-1.8-5.1-3.4-7-3.6-3.4-6-4.4c-2.5-1-5.5-1.5-9.1-1.5h-13.2v45.3h13z"/>
<path d="m130.3 329.6c-3.2 2.4-7.1 3.6-11.9 3.6-3.4 0-6.3-0.5-8.8-1.6s-4.6-2.6-6.3-4.6-3-4.3-3.8-7-1.3-5.7-1.4-8.9c0-3.2 0.5-6.2 1.5-8.8 1-2.7 2.4-5 4.1-7 1.8-2 3.9-3.5 6.3-4.6s5.1-1.6 8-1.6c3.8 0 6.9 0.8 9.4 2.3 2.5 1.6 4.5 3.5 6 5.9s2.5 5 3.1 7.9c0.6 2.8 0.8 5.5 0.7 8.1h-31.7c-0.1 1.9 0.2 3.6 0.7 5.3s1.3 3.1 2.4 4.4 2.5 2.3 4.2 3.1 3.7 1.1 6 1.1c2.9 0 5.4-0.7 7.2-2 1.9-1.4 3.1-3.4 3.7-6.2h6.9c-1.1 4.6-3.2 8.2-6.3 10.6zm-1.7-27.2c-0.6-1.5-1.5-2.7-2.5-3.8-1.1-1.1-2.3-1.9-3.8-2.5-1.4-0.6-3-0.9-4.8-0.9s-3.4 0.3-4.9 0.9c-1.4 0.6-2.7 1.5-3.7 2.6s-1.9 2.4-2.5 3.8-1 3-1.1 4.6h24.3c0-1.6-0.4-3.2-1-4.7z"/>
<path d="m150.5 290v5.7h0.2c1.1-2.3 2.9-4 5.4-5.1s5.2-1.6 8.1-1.6c3.3 0 6.1 0.6 8.5 1.8s4.4 2.8 6.1 4.9c1.6 2 2.8 4.4 3.6 7.1s1.2 5.5 1.2 8.5-0.4 5.8-1.2 8.5-2 5-3.6 7-3.6 3.6-6.1 4.7c-2.4 1.1-5.2 1.7-8.5 1.7-1 0-2.2-0.1-3.5-0.3s-2.5-0.6-3.8-1.1-2.4-1.2-3.6-2c-1.1-0.8-2.1-1.9-2.8-3.1h-0.2v21.8h-7v-58.5h7.2zm24.9 15c-0.5-1.9-1.3-3.6-2.4-5-1.1-1.5-2.4-2.6-4.1-3.5s-3.6-1.3-5.8-1.3c-2.3 0-4.3 0.5-6 1.4-1.6 0.9-3 2.1-4 3.6s-1.8 3.2-2.2 5.1c-0.5 1.9-0.7 3.8-0.7 5.8 0 2.1 0.2 4.1 0.7 6s1.3 3.6 2.3 5.1c1.1 1.5 2.4 2.7 4.1 3.6s3.7 1.3 6.1 1.3 4.4-0.5 6-1.4 2.9-2.2 3.9-3.7 1.7-3.3 2.1-5.2c0.4-2 0.7-4 0.7-6.1 0.1-1.9-0.1-3.8-0.7-5.7z"/>
<path d="m228.2 332.1c-1.2 0.7-2.9 1.1-5 1.1-1.8 0-3.2-0.5-4.3-1.5s-1.6-2.7-1.6-4.9c-1.9 2.3-4.1 3.9-6.7 4.9-2.5 1-5.3 1.5-8.2 1.5-1.9 0-3.7-0.2-5.4-0.7s-3.2-1.1-4.5-2-2.2-2.1-3-3.6c-0.7-1.5-1.1-3.3-1.1-5.4 0-2.4 0.4-4.4 1.2-5.9s1.9-2.8 3.2-3.7c1.3-1 2.9-1.7 4.6-2.2s3.5-0.9 5.3-1.2c1.9-0.4 3.7-0.7 5.4-0.9s3.2-0.5 4.5-0.8c1.3-0.4 2.3-0.9 3.1-1.6s1.1-1.7 1.1-3c0-1.5-0.3-2.8-0.9-3.7s-1.3-1.6-2.2-2.1-1.9-0.8-3-1-2.2-0.2-3.3-0.2c-2.9 0-5.4 0.6-7.4 1.7s-3 3.2-3.2 6.3h-7c0.1-2.6 0.7-4.8 1.6-6.6 1-1.8 2.3-3.3 3.9-4.4s3.5-1.9 5.6-2.4 4.3-0.7 6.7-0.7c1.9 0 3.8 0.1 5.7 0.4s3.6 0.8 5.1 1.7c1.5 0.8 2.8 2 3.7 3.6 0.9 1.5 1.4 3.5 1.4 6v21.7c0 1.6 0.1 2.8 0.3 3.6s0.8 1.1 1.9 1.1c0.6 0 1.3-0.1 2.1-0.3v5.2zm-11.2-21.7c-0.9 0.7-2 1.1-3.4 1.4s-2.9 0.5-4.5 0.7-3.1 0.4-4.7 0.7c-1.6 0.2-3 0.6-4.3 1.2-1.3 0.5-2.3 1.3-3.1 2.3s-1.2 2.4-1.2 4.1c0 1.1 0.2 2.1 0.7 2.9s1.1 1.4 1.8 1.9 1.6 0.8 2.6 1.1c1 0.2 2 0.3 3.1 0.3 2.3 0 4.3-0.3 5.9-0.9s3-1.4 4-2.4c1-0.9 1.8-2 2.3-3.1s0.7-2.2 0.7-3.1v-7.1z"/>
<path d="m240 290v8.9h0.2c1.7-3.4 3.8-6 6.2-7.6s5.6-2.4 9.3-2.3v7.4c-2.8 0-5.2 0.4-7.1 1.1-2 0.8-3.5 1.9-4.7 3.4s-2.1 3.3-2.6 5.4-0.8 4.5-0.8 7.2v18.8h-7v-42.3h6.5z"/>
<path d="m278 290v6.1h-8.4v26.3c0 0.8 0.1 1.5 0.2 2s0.4 0.9 0.8 1.1c0.4 0.3 0.9 0.4 1.6 0.5s1.6 0.1 2.7 0.1h3.2v6.1h-5.3c-1.8 0-3.3-0.1-4.6-0.4-1.3-0.2-2.3-0.7-3.1-1.3-0.8-0.7-1.4-1.6-1.8-2.8s-0.6-2.8-0.6-4.7v-26.9h-7.2v-6.1h7.2v-12.7h7v12.7h8.3z"/>
<path d="m291.3 290v6.2h0.2c3.2-4.8 7.7-7.2 13.7-7.2 2.6 0 5 0.5 7.1 1.6s3.6 2.9 4.5 5.6c1.4-2.3 3.3-4.1 5.6-5.3 2.3-1.3 4.9-1.9 7.6-1.9 2.1 0 4 0.2 5.8 0.7 1.7 0.5 3.2 1.2 4.4 2.2s2.2 2.2 2.9 3.8 1 3.4 1 5.6v31h-7v-27.7c0-1.3-0.1-2.5-0.3-3.7-0.2-1.1-0.6-2.1-1.2-3-0.6-0.8-1.4-1.5-2.5-2s-2.4-0.7-4.1-0.7c-3.4 0-6.1 1-8.1 2.9s-2.9 4.6-2.9 7.9v26.3h-7v-27.7c0-1.4-0.1-2.6-0.4-3.8-0.2-1.1-0.7-2.1-1.3-3-0.6-0.8-1.4-1.5-2.4-2s-2.3-0.7-3.9-0.7c-2 0-3.8 0.4-5.2 1.2s-2.6 1.8-3.5 2.9-1.6 2.3-2 3.6c-0.4 1.2-0.6 2.2-0.6 3.1v26.3h-7v-42.2h6.6z"/>
<path d="m383.5 329.6c-3.2 2.4-7.1 3.6-11.9 3.6-3.4 0-6.3-0.5-8.8-1.6s-4.6-2.6-6.3-4.6-3-4.3-3.8-7-1.3-5.7-1.4-8.9c0-3.2 0.5-6.2 1.5-8.8 1-2.7 2.4-5 4.1-7 1.8-2 3.9-3.5 6.3-4.6s5.1-1.6 8-1.6c3.8 0 6.9 0.8 9.4 2.3 2.5 1.6 4.5 3.5 6 5.9s2.5 5 3.1 7.9c0.6 2.8 0.8 5.5 0.7 8.1h-31.7c-0.1 1.9 0.2 3.6 0.7 5.3s1.3 3.1 2.4 4.4 2.5 2.3 4.2 3.1 3.7 1.1 6 1.1c2.9 0 5.4-0.7 7.2-2 1.9-1.4 3.1-3.4 3.7-6.2h6.9c-1.1 4.6-3.2 8.2-6.3 10.6zm-1.7-27.2c-0.6-1.5-1.5-2.7-2.5-3.8-1.1-1.1-2.3-1.9-3.8-2.5-1.4-0.6-3-0.9-4.8-0.9s-3.4 0.3-4.9 0.9c-1.4 0.6-2.7 1.5-3.7 2.6s-1.9 2.4-2.5 3.8-1 3-1.1 4.6h24.3c0-1.6-0.4-3.2-1-4.7z"/>
<path d="m403 290v6.7h0.2c2.9-5.1 7.5-7.7 13.7-7.7 2.8 0 5.1 0.4 7 1.1 1.9 0.8 3.4 1.8 4.5 3.2s1.9 3 2.4 4.9 0.7 4 0.7 6.3v27.8h-7v-28.6c0-2.6-0.8-4.7-2.3-6.2s-3.6-2.3-6.3-2.3c-2.1 0-4 0.3-5.5 1-1.6 0.7-2.9 1.6-3.9 2.8s-1.8 2.6-2.3 4.2-0.8 3.4-0.8 5.3v23.9h-7v-42.4h6.6z"/>
<path d="m459 290v6.1h-8.4v26.3c0 0.8 0.1 1.5 0.2 2s0.4 0.9 0.8 1.1c0.4 0.3 0.9 0.4 1.6 0.5s1.6 0.1 2.7 0.1h3.2v6.1h-5.3c-1.8 0-3.3-0.1-4.6-0.4s-2.3-0.7-3.1-1.3c-0.8-0.7-1.4-1.6-1.8-2.8s-0.6-2.8-0.6-4.7v-26.9h-7.2v-6.1h7.2v-12.7h7v12.7h8.3z"/>
</g>
<g enable-background="new    ">
<path d="m39.5 394.2v-6.1h7.1v-6.3c0-3.4 1-6 3-7.8s4.9-2.7 8.7-2.7c0.7 0 1.4 0.1 2.2 0.2s1.6 0.3 2.2 0.5v6.1c-0.6-0.2-1.3-0.4-2-0.4-0.7-0.1-1.4-0.1-2-0.1-1.7 0-3 0.3-3.9 1s-1.4 1.9-1.4 3.8v5.9h8.2v6.1h-8.2v36.2h-7v-36.2h-6.9z"/>
<path d="m66 400.6c0.9-2.7 2.2-5 3.9-7s3.9-3.6 6.5-4.7 5.5-1.7 8.8-1.7c3.4 0 6.3 0.6 8.9 1.7 2.5 1.1 4.7 2.7 6.4 4.7s3.1 4.3 3.9 7c0.9 2.7 1.3 5.6 1.3 8.7s-0.4 6-1.3 8.7-2.2 5-3.9 7-3.9 3.5-6.4 4.7c-2.5 1.1-5.5 1.7-8.9 1.7-3.3 0-6.3-0.6-8.8-1.7-2.6-1.1-4.7-2.7-6.5-4.7-1.7-2-3.1-4.3-3.9-7-0.9-2.7-1.3-5.6-1.3-8.7s0.4-6 1.3-8.7zm7 15.5c0.7 2 1.6 3.7 2.8 5s2.6 2.4 4.2 3.1 3.3 1.1 5.1 1.1 3.5-0.4 5.1-1.1 3-1.7 4.2-3.1c1.2-1.3 2.1-3 2.8-5s1-4.3 1-6.8c0-2.6-0.3-4.8-1-6.8s-1.6-3.7-2.8-5c-1.2-1.4-2.6-2.4-4.2-3.1s-3.3-1.1-5.1-1.1-3.5 0.4-5.1 1.1-3 1.7-4.2 3.1-2.1 3-2.8 5-1 4.3-1 6.8 0.4 4.8 1 6.8z"/>
<path d="m119.2 388.1v8.9h0.2c1.7-3.4 3.8-6 6.2-7.6s5.6-2.4 9.3-2.3v7.4c-2.8 0-5.2 0.4-7.1 1.1-2 0.8-3.5 1.9-4.7 3.4s-2.1 3.3-2.6 5.4-0.8 4.5-0.8 7.2v18.8h-7v-42.3h6.5z"/>
<path d="m155.9 378.5v-6.5h46.7v6.5h-19.5v51.9h-7.8v-51.9h-19.4z"/>
<path d="m205.7 388.1v8.9h0.2c1.7-3.4 3.8-6 6.2-7.6s5.6-2.4 9.3-2.3v7.4c-2.8 0-5.2 0.4-7.1 1.1-2 0.8-3.5 1.9-4.7 3.4s-2.1 3.3-2.6 5.4-0.8 4.5-0.8 7.2v18.8h-7v-42.3h6.5z"/>
<path d="m263.1 430.2c-1.2 0.7-2.9 1.1-5 1.1-1.8 0-3.2-0.5-4.3-1.5s-1.6-2.7-1.6-4.9c-1.9 2.3-4.1 3.9-6.7 4.9-2.5 1-5.3 1.5-8.2 1.5-1.9 0-3.7-0.2-5.4-0.7s-3.2-1.1-4.5-2-2.2-2.1-3-3.6c-0.7-1.5-1.1-3.3-1.1-5.4 0-2.4 0.4-4.4 1.2-5.9s1.9-2.8 3.2-3.7c1.3-1 2.9-1.7 4.6-2.2s3.5-0.9 5.3-1.2c1.9-0.4 3.7-0.7 5.4-0.9s3.2-0.5 4.5-0.8c1.3-0.4 2.3-0.9 3.1-1.6s1.1-1.7 1.1-3c0-1.5-0.3-2.8-0.9-3.7s-1.3-1.6-2.2-2.1-1.9-0.8-3-1-2.2-0.2-3.3-0.2c-2.9 0-5.4 0.6-7.4 1.7s-3 3.2-3.2 6.3h-7c0.1-2.6 0.7-4.8 1.6-6.6 1-1.8 2.3-3.3 3.9-4.4s3.5-1.9 5.6-2.4 4.3-0.7 6.7-0.7c1.9 0 3.8 0.1 5.7 0.4s3.6 0.8 5.1 1.7c1.5 0.8 2.8 2 3.7 3.6 0.9 1.5 1.4 3.5 1.4 6v21.7c0 1.6 0.1 2.8 0.3 3.6s0.8 1.1 1.9 1.1c0.6 0 1.3-0.1 2.1-0.3v5.2zm-11.3-21.7c-0.9 0.7-2 1.1-3.4 1.4s-2.9 0.5-4.5 0.7-3.1 0.4-4.7 0.7c-1.6 0.2-3 0.6-4.3 1.2-1.3 0.5-2.3 1.3-3.1 2.3s-1.2 2.4-1.2 4.1c0 1.1 0.2 2.1 0.7 2.9s1.1 1.4 1.8 1.9 1.6 0.8 2.6 1.1c1 0.2 2 0.3 3.1 0.3 2.3 0 4.3-0.3 5.9-0.9s3-1.4 4-2.4c1-0.9 1.8-2 2.3-3.1s0.7-2.2 0.7-3.1v-7.1z"/>
<path d="m275.1 388.1v6.7h0.2c2.9-5.1 7.5-7.7 13.7-7.7 2.8 0 5.1 0.4 7 1.1 1.9 0.8 3.4 1.8 4.5 3.2s1.9 3 2.4 4.9 0.7 4 0.7 6.3v27.8h-7v-28.6c0-2.6-0.8-4.7-2.3-6.2s-3.6-2.3-6.3-2.3c-2.1 0-4 0.3-5.5 1-1.6 0.7-2.8 1.6-3.9 2.8-1 1.2-1.8 2.6-2.3 4.2s-0.8 3.4-0.8 5.3v23.9h-7v-42.3h6.6z"/>
<path d="m318.4 420.9c0.7 1.1 1.5 1.9 2.6 2.5s2.3 1.1 3.6 1.3c1.3 0.3 2.7 0.4 4.1 0.4 1.1 0 2.2-0.1 3.4-0.2 1.2-0.2 2.3-0.5 3.3-0.9s1.8-1.1 2.5-1.9 1-1.9 1-3.2c0-1.8-0.7-3.2-2-4.1-1.4-0.9-3.1-1.7-5.1-2.2s-4.3-1.1-6.7-1.6-4.6-1.1-6.7-2c-2-0.8-3.8-2-5.1-3.6-1.4-1.5-2-3.7-2-6.4 0-2.1 0.5-4 1.4-5.5 1-1.5 2.2-2.8 3.7-3.7 1.5-1 3.2-1.7 5.1-2.1 1.9-0.5 3.7-0.7 5.6-0.7 2.4 0 4.6 0.2 6.6 0.6s3.8 1.1 5.4 2.1 2.8 2.4 3.7 4.1 1.5 3.9 1.6 6.4h-7c-0.1-1.4-0.5-2.5-1.1-3.4s-1.4-1.6-2.3-2.2c-0.9-0.5-2-0.9-3.1-1.2-1.1-0.2-2.2-0.4-3.4-0.4-1 0-2.1 0.1-3.1 0.2-1.1 0.2-2 0.5-2.9 0.9s-1.6 1-2.1 1.6c-0.5 0.7-0.8 1.6-0.8 2.7 0 1.2 0.4 2.2 1.3 3 0.8 0.8 1.9 1.4 3.2 2 1.3 0.5 2.8 1 4.4 1.3s3.3 0.7 4.9 1.1c1.7 0.4 3.4 0.8 5.1 1.4 1.7 0.5 3.1 1.3 4.4 2.2s2.3 2 3.1 3.4 1.2 3.1 1.2 5.1c0 2.6-0.5 4.7-1.6 6.4s-2.5 3.1-4.2 4.1-3.7 1.8-5.8 2.2c-2.2 0.4-4.3 0.6-6.4 0.6-2.3 0-4.6-0.2-6.7-0.7s-4-1.3-5.6-2.4-2.9-2.6-3.9-4.4-1.5-4-1.6-6.7h7c0 1.6 0.3 2.9 1 3.9z"/>
<path d="m360.2 388.1v5.7h0.2c1.1-2.3 2.9-4 5.4-5.1s5.2-1.6 8.1-1.6c3.3 0 6.1 0.6 8.5 1.8s4.4 2.8 6.1 4.9c1.6 2 2.8 4.4 3.6 7.1s1.2 5.5 1.2 8.5-0.4 5.8-1.2 8.5-2 5-3.6 7-3.6 3.6-6.1 4.7c-2.4 1.1-5.2 1.7-8.5 1.7-1 0-2.2-0.1-3.5-0.3s-2.5-0.6-3.8-1.1-2.4-1.2-3.6-2c-1.1-0.8-2.1-1.9-2.8-3.1h-0.2v21.8h-7v-58.4h7.2zm24.9 15c-0.5-1.9-1.3-3.6-2.4-5-1.1-1.5-2.4-2.6-4.1-3.5s-3.6-1.3-5.8-1.3c-2.3 0-4.3 0.5-6 1.4-1.6 0.9-3 2.1-4 3.6s-1.8 3.2-2.2 5.1c-0.5 1.9-0.7 3.8-0.7 5.8 0 2.1 0.2 4.1 0.7 6s1.3 3.6 2.3 5.1c1.1 1.5 2.4 2.7 4.1 3.6s3.7 1.3 6.1 1.3 4.4-0.5 6-1.4 2.9-2.2 3.9-3.7 1.7-3.3 2.1-5.2c0.4-2 0.7-4 0.7-6.1 0.1-1.9-0.1-3.8-0.7-5.7z"/>
<path d="m399.5 400.6c0.9-2.7 2.2-5 3.9-7s3.9-3.6 6.5-4.7 5.5-1.7 8.8-1.7c3.4 0 6.3 0.6 8.9 1.7 2.5 1.1 4.7 2.7 6.4 4.7s3.1 4.3 3.9 7c0.9 2.7 1.3 5.6 1.3 8.7s-0.4 6-1.3 8.7-2.2 5-3.9 7-3.9 3.5-6.4 4.7c-2.5 1.1-5.5 1.7-8.9 1.7-3.3 0-6.3-0.6-8.8-1.7-2.6-1.1-4.7-2.7-6.5-4.7-1.7-2-3.1-4.3-3.9-7-0.9-2.7-1.3-5.6-1.3-8.7s0.4-6 1.3-8.7zm7.1 15.5c0.7 2 1.6 3.7 2.8 5s2.6 2.4 4.2 3.1 3.3 1.1 5.1 1.1 3.5-0.4 5.1-1.1 3-1.7 4.2-3.1c1.2-1.3 2.1-3 2.8-5s1-4.3 1-6.8c0-2.6-0.3-4.8-1-6.8s-1.6-3.7-2.8-5c-1.2-1.4-2.6-2.4-4.2-3.1s-3.3-1.1-5.1-1.1-3.5 0.4-5.1 1.1-3 1.7-4.2 3.1-2.1 3-2.8 5-1 4.3-1 6.8 0.3 4.8 1 6.8z"/>
<path d="m452.7 388.1v8.9h0.2c1.7-3.4 3.8-6 6.2-7.6 2.5-1.6 5.6-2.4 9.3-2.3v7.4c-2.8 0-5.2 0.4-7.1 1.1-2 0.8-3.5 1.9-4.7 3.4s-2.1 3.3-2.6 5.4-0.8 4.5-0.8 7.2v18.8h-7v-42.3h6.5z"/>
<path d="m490.8 388.1v6.1h-8.4v26.3c0 0.8 0.1 1.5 0.2 2s0.4 0.9 0.8 1.1c0.4 0.3 0.9 0.4 1.6 0.5s1.6 0.1 2.7 0.1h3.2v6.1h-5.3c-1.8 0-3.3-0.1-4.6-0.4s-2.3-0.7-3.1-1.3c-0.8-0.7-1.4-1.6-1.8-2.8s-0.6-2.8-0.6-4.7v-26.9h-7.2v-6.1h7.2v-12.7h7v12.7h8.3z"/>
</g>
<g transform="matrix(1.27,0,0,-1.27,-350.49,427.55)">
<g transform="matrix(1.0089,0,0,1.0089,362.12,-731.87)" fill="#fff">
<g transform="translate(76.263,810.12)">
<path d="m-84.3 133.7c-0.5-1-1-1.6-0.9-2.3 0.1-0.8 0.9-1.3 1.2-2.1 0.3 0.9 0.9 1.6 0.8 2.3 0.1 0.7-0.9 1.6-1.1 2.1" fill="#fff"/>
</g>
<g transform="translate(80.777,810.12)">
<path d="m-75.6 133.7c0.5-1 1-1.6 0.9-2.3-0.1-0.8-0.9-1.3-1.2-2.1-0.3 0.9-0.9 1.6-0.8 2.3 0 0.7 0.9 1.6 1.1 2.1" fill="#fff"/>
</g>
<g transform="translate(73.666,810.32)">
<path d="m-89.3 134.1c0.5 0 0.9 0.4 0.9 0.9s-0.4 0.9-0.9 0.9-0.9-0.4-0.9-0.9 0.4-0.9 0.9-0.9" fill="#fff"/>
</g>
<g transform="translate(73.87,809.88)">
<path d="m-88.9 133.2c0 0.5-0.4 0.9-0.9 0.9s-0.9-0.4-0.9-0.9 0.4-0.9 0.9-0.9c0.5 0.1 0.9 0.4 0.9 0.9" fill="#fff"/>
</g>
<g transform="translate(74.018,809.14)">
<path d="m-88.6 131.8c0 0.5-0.4 0.9-0.9 0.9s-0.9-0.4-0.9-0.9 0.4-0.9 0.9-0.9 0.9 0.4 0.9 0.9" fill="#fff"/>
</g>
<g transform="translate(75.354,811.77)">
<path d="m-86 136.9c0.5 0 0.9 0.4 0.9 0.9s-0.4 0.9-0.9 0.9-0.9-0.4-0.9-0.9 0.4-0.9 0.9-0.9" fill="#fff"/>
</g>
<g transform="translate(74.596,811.54)">
<path d="m-87.5 136.4c0.5 0 0.9 0.4 0.9 0.9s-0.4 0.9-0.9 0.9-0.9-0.4-0.9-0.9 0.4-0.9 0.9-0.9" fill="#fff"/>
</g>
<g transform="translate(74,811.02)">
<path d="m-88.6 135.4c0.5 0 0.9 0.4 0.9 0.9s-0.4 0.9-0.9 0.9-0.9-0.4-0.9-0.9 0.4-0.9 0.9-0.9" fill="#fff"/>
</g>
<g transform="translate(76.15,811.7)">
<path d="m-84.5 136.7c0.5 0 0.9 0.4 0.9 0.9s-0.4 0.9-0.9 0.9-0.9-0.4-0.9-0.9 0.4-0.9 0.9-0.9" fill="#fff"/>
</g>
<g transform="translate(76.906,811.48)">
<path d="m-83 136.3c0.5 0 0.9 0.4 0.9 0.9s-0.4 0.9-0.9 0.9-0.9-0.4-0.9-0.9 0.4-0.9 0.9-0.9" fill="#fff"/>
</g>
<g transform="translate(77.618,811.15)">
<path d="m-81.7 135.7c0.5 0 0.9 0.4 0.9 0.9s-0.4 0.9-0.9 0.9-0.9-0.4-0.9-0.9 0.4-0.9 0.9-0.9" fill="#fff"/>
</g>
<g transform="translate(83.059,810.62)">
<path d="m-71.2 134.7c0-0.5 0.4-0.9 0.9-0.9s0.9 0.4 0.9 0.9-0.4 0.9-0.9 0.9-0.9-0.4-0.9-0.9" fill="#fff"/>
</g>
<g transform="translate(83.466,810.19)">
<path d="m-70.4 133.8c-0.5 0-0.9-0.4-0.9-0.9s0.4-0.9 0.9-0.9 0.9 0.4 0.9 0.9-0.4 0.9-0.9 0.9" fill="#fff"/>
</g>
<g transform="translate(83.317,809.45)">
<path d="m-70.7 132.4c-0.5 0-0.9-0.4-0.9-0.9s0.4-0.9 0.9-0.9 0.9 0.4 0.9 0.9-0.4 0.9-0.9 0.9" fill="#fff"/>
</g>
<g transform="translate(81.677,811.77)">
<path d="m-73.8 136.9c0.5 0 0.9 0.4 0.9 0.9s-0.4 0.9-0.9 0.9-0.9-0.4-0.9-0.9 0.4-0.9 0.9-0.9" fill="#fff"/>
</g>
<g transform="translate(82.435,811.54)">
<path d="m-72.4 136.4c0.5 0 0.9 0.4 0.9 0.9s-0.4 0.9-0.9 0.9-0.9-0.4-0.9-0.9 0.4-0.9 0.9-0.9" fill="#fff"/>
</g>
<g transform="translate(83.031,811.02)">
<path d="m-71.2 135.4c0.5 0 0.9 0.4 0.9 0.9s-0.4 0.9-0.9 0.9-0.9-0.4-0.9-0.9 0.4-0.9 0.9-0.9" fill="#fff"/>
</g>
<g transform="translate(80.88,811.7)">
<path d="m-75.4 136.7c0.5 0 0.9 0.4 0.9 0.9s-0.4 0.9-0.9 0.9-0.9-0.4-0.9-0.9 0.4-0.9 0.9-0.9" fill="#fff"/>
</g>
<g transform="translate(80.124,811.48)">
<path d="m-76.8 136.3c0.5 0 0.9 0.4 0.9 0.9s-0.4 0.9-0.9 0.9-0.9-0.4-0.9-0.9 0.4-0.9 0.9-0.9" fill="#fff"/>
</g>
<g transform="translate(79.108,811.45)">
<path d="m-78.8 136.3c0-0.5 0.4-0.9 0.9-0.9s0.9 0.4 0.9 0.9-0.4 0.9-0.9 0.9-0.9-0.4-0.9-0.9" fill="#fff"/>
</g>
<g transform="translate(77.995,809.8)">
<path d="m-80.9 133.1h1v3.8c-0.4 0.1-0.7 0.2-1 0.3v-4.1z" fill="#fff"/>
</g>
<g transform="translate(79.037,811.21)">
<path d="m-78.9 135.8c-0.3-0.1-0.6-0.3-1-0.3v-3.8h1v4.1z" fill="#fff"/>
</g>
<g transform="translate(78.32,812.66)">
<path d="m-80.3 138.6v2.3c-1.1-0.2-2-1.1-2.2-2.3h2.2z" fill="#fff"/>
</g>
<g transform="translate(78.716,812.66)">
<path d="m-79.6 138.6h2.2c-0.2 1.1-1.1 2-2.2 2.3v-2.3z" fill="#fff"/>
</g>
<g transform="translate(77.579,812.28)">
<path d="m-81.7 137.9c0.3-1.3 1.4-2.2 2.7-2.2s2.5 0.9 2.7 2.2h-5.4z" fill="#fff"/>
</g>
<g transform="translate(79.04,813.55)">
<path d="m-78.9 140.3c-0.6 0.5-1.1 1.2-1.2 2 0.7-0.1 1.5-0.7 2-1.3v3.1c-0.5-0.6-1.3-1.2-2-1.3 0.1 0.7 0.5 1.4 1.2 2.2h-3c0.6-0.8 1.1-1.5 1.2-2.2-0.7 0.1-1.5 0.7-2 1.3v-3.1c0.5 0.6 1.3 1.2 2 1.3-0.1-0.8-0.6-1.5-1.2-2h3z" fill="#fff"/>
</g>
<g transform="translate(80.163,792.6)">
<path d="m-76.8 99.9c-2.8 0.7-6.2 1.9-9.3 3.3 0.1 0.6-0.1 1.3-0.6 1.9s-1.1 0.9-1.8 0.9c-0.3 0-0.6-0.1-0.9-0.2-0.5 0.4-0.9 0.8-1.3 1.3-1.2 1.4-2.1 3-2.8 4.8-0.4 1-0.6 2.1-0.8 3.2-0.1-0.9-1.2-2.1-2.9-2.1 0 0.2 0 0.6-0.2 0.7-0.5-0.5-1.2-1.1-2.7-0.5 0.2-1.2 0.6-2.5 1-3.6 0.9-2.5 2.3-4.8 4-6.8l1.8-1.8v-0.4c0-0.7 0.6-1.7 1.5-2.2 0.7-0.4 1.6-0.3 2.3 0.3 1.4-0.7 3.1-1.4 5-1.9 2.1-0.6 4.1-0.9 5.7-0.9 1.4 0 3.2 0.6 5 1.8 0.7 0.5 1.4 1 1.9 1.4l0.2 0.2c-1.3-0.2-3.3 0.2-5.1 0.6m-10.3 4.3-0.3 0.2c-0.5 0.4-1 0.4-1.5 0-0.2-0.2-0.4-0.4-0.6-0.7l-0.3-0.3 0.2-0.2c0.6-0.5 0.7-1 0.5-1.3-0.1-0.1-0.2-0.2-0.3-0.2-0.3-0.1-0.7 0-1.1 0.3l-0.2 0.1-0.1-0.2c0-0.1-0.1-0.1-0.1-0.2s-0.1-0.1-0.2-0.2c-0.2-0.4-0.4-0.8-0.4-1v-0.2c0.1-0.3 0.3-0.5 0.6-0.6l0.1-0.1c0.3-0.2 0.6-0.4 0.9-0.5-0.5-0.3-1-0.3-1.5-0.1-0.8 0.4-1.3 1.3-1.3 1.7 0 0.7 0.3 1.5 0.8 2.4l0.1 0.1-0.1 0.1c-0.2 0.3-0.3 0.5-0.4 0.8 0.3 0 0.6-0.1 0.9-0.2h0.1l0.1 0.1c0.3 0.4 1.5 1.6 2.6 1.6 0.5 0 1-0.3 1.4-0.7 0.3-0.3 0.5-0.7 0.5-1.1 0 0.1-0.2 0.2-0.4 0.4m1.9-5.4c-0.7 0-1.2 0.5-1.2 1.2s0.5 1.2 1.2 1.2 1.2-0.5 1.2-1.2-0.6-1.2-1.2-1.2m5.2-1.6c-0.6 0-1.1 0.5-1.1 1.1s0.5 1.1 1.1 1.1 1.1-0.5 1.1-1.1-0.5-1.1-1.1-1.1" fill="#fff"/>
</g>
<g transform="translate(79.564,789.77)">
<path d="m-77.9 94.5c-0.2 0-0.4 0-0.6-0.1v3.4c-1.5 0-3.2 0.3-4.9 0.7v-4.1c-0.2 0.1-0.4 0.1-0.6 0.1-1.2 0-1.9-1-1.9-1.9s0.5-1.7 1-2.2c0.2 0.5 0.4 0.9 0.7 0.9 0.6 0 0.3-2.9 2-3-0.1-0.1-0.1-0.3-0.1-0.5 0-0.7 0.6-1.3 1.3-1.3s1.3 0.6 1.3 1.3c0 0.2 0 0.3-0.1 0.5 1.7 0.1 1.4 3 2 3 0.3 0 0.5-0.4 0.7-0.9 0.4 0.5 0.9 1.3 0.9 2.2 0.2 0.9-0.5 1.9-1.7 1.9m-3.1-7.4c-0.4 0-0.7 0.3-0.7 0.7s0.3 0.7 0.7 0.7 0.7-0.3 0.7-0.7c0.1-0.3-0.2-0.7-0.7-0.7m4 4.3c-0.2 0.4-0.5 0.6-0.8 0.6-1.2 0-0.7-3-2.1-3-0.6 0-0.9 0.4-0.9 0.8s0.3 0.6 0.3 0.9-0.3 0.5-0.6 0.5-0.6-0.1-0.6-0.5c0-0.3 0.3-0.5 0.3-0.9s-0.3-0.8-0.9-0.8c-1.4 0-0.9 3-2.1 3-0.3 0-0.6-0.2-0.8-0.6-0.2 0.4-0.4 0.9-0.4 1.2 0 0.6 0.4 1.3 1.3 1.3 1.5 0 1.2-2.1 1.9-2.1 0.3 0 0.6 0.2 0.6 0.5 0 0.6-1.1 1.2-1.1 2s0.8 1.6 1.6 2.3c0.9-0.7 1.6-1.4 1.6-2.3s-1.1-1.4-1.1-2c0-0.3 0.2-0.5 0.6-0.5 0.7 0 0.4 2.1 1.9 2.1 0.9 0 1.3-0.8 1.3-1.3 0.4-0.3 0.3-0.8 0-1.2" fill="#fff"/>
</g>
<g transform="translate(93.051,788.39)">
<path d="m-51.9 91.8c-0.1 0.2-0.3 0.3-0.4 0.2-3.9-1.1-8.8 2.1-13.5 5.3-4 2.6-7.7 5.1-10.9 5.1-1.2 0-2.2-0.3-3.2-0.7-1.1-0.6-2-1.6-2.5-2.9s-1.1-2.2-1.6-2.9c-0.5-0.9-0.9-1.5-0.9-2.3 0-0.6 0.3-1.2 0.8-1.8 0.5-0.5 1.1-0.9 2.1-1.4l0.6-0.3c0.8-0.4 1.3-0.6 1.4-1.1-1.6-0.7-3.6-1.3-5.9-1.7-2.6-0.5-5.4-0.7-8.4-0.7s-5.8 0.2-8.4 0.7c-2.3 0.4-4.3 1-5.9 1.7 0.1 0.7 0.5 0.9 1.4 1.3l0.6 0.3c0.8 0.4 1.5 0.8 2 1.3 0.6 0.5 0.8 1 0.8 1.7 0 0.8-0.4 1.4-0.9 2.3-0.5 0.7-1 1.6-1.6 2.9-0.5 1.3-1.4 2.3-2.5 2.9-0.9 0.5-2 0.7-3.1 0.7-3.2 0-7-2.5-11-5.2-4.7-3.1-9.6-6.4-13.5-5.3-0.2 0.1-0.4 0-0.4-0.2-0.1-0.2 0-0.4 0.2-0.5 1.2-0.5 2.3-1.4 3.3-2.1 1.4-1.1 2.8-2.2 4.2-2.2s2.9 0.4 4.7 1.4c1.6 0.8 3.2 1.9 4.8 3 3.1 2.1 6.3 4.3 9.4 4.6l-0.9-0.9c-0.9-0.8-1.7-1.5-1.7-2.9 0-1.1 0.4-1.9 0.9-3 0.2-0.3 0.3-0.7 0.5-1.1 0.3-0.8 0.5-1.4 0.7-2.2l0.3-1.2c0.2-0.7 0.6-2.1 2.8-3.2 2.6-1.3 7.1-2 13.3-2s10.7 0.7 13.3 2c2.2 1.1 2.6 2.5 2.8 3.2 0.1 0.5 0.2 0.9 0.3 1.2 0.2 0.8 0.3 1.4 0.7 2.2 0.2 0.6 0.5 1 0.7 1.4 0.5 0.9 0.8 1.6 0.8 2.6 0 1.4-0.8 2.1-1.8 3-0.3 0.3-0.6 0.6-1 0.9 3.1-0.2 6.3-2.4 9.4-4.6 1.6-1.1 3.2-2.2 4.8-3 1.8-1 3.3-1.4 4.7-1.4 1.5 0 2.8 1 4.2 2.2 1 0.8 2.1 1.6 3.3 2.1 0.1 0.2 0.2 0.4 0.2 0.6" fill="#fff"/>
</g>
<g transform="translate(84.97,799.15)">
<path d="m-67.5 112.6c-0.4 0.3-1.1 1-1.5 1.8-0.5 1-2.4 4.8-2.7 5.3-0.3 0.4-0.4 0.8-0.4 1.1 0 0.4 0.2 0.7 0.4 1 0.2 0.2 0.6 0.6 0.7 0.9 0.1 0.2 0.2 0.3 0.3 0.5-0.7 1.2-1.4 2.2-2.4 3.2-1.1 1.3-2.4 2.4-3.8 3.3 0.7 0.5 1.5 1.2 1.5 2.4 0 0.7-0.3 1.2-0.8 1.7 0.8 2.5 2.2 5.6 3.4 6.9l-2.5 1.1c0.7-1 0.7-2.2 0.6-2.9-0.7 0.5-1.2 1.1-1.4 1.9-0.1-0.8-0.5-2-0.9-2.7 0.7 0.3 1.3 0.5 2.1 0.2-0.4-0.6-1.5-1.5-3.2-1.1-0.9 0.2-1.8 0.7-1.8 1.4 0 0.4 0.3 0.9 0.9 0.9 0.6-0.1 0.6-0.9 0.4-1.3 0.7 0.4 1.5 2.5 0.3 2.8-0.9 0.2-1.7-1-2-1.9-0.2 1.1-0.6 2.2-1.5 2.2-1.2-0.1-0.8-2.2-0.4-2.8 0.1 0.8 0.5 1.2 0.8 1.1 0.3 0 0.7-0.2 0.6-0.9s-1-1.1-2.2-1.1c-1.1 0-2.9 0.3-3.1 2.4 0.7-0.1 1.8-0.7 2.2-1.3-0.1 1.2-0.1 2.1 0 3.4-0.6-0.8-1.5-1.2-2.2-1.3 0.2 0.9 1 1.8 1.8 2.4h-4.6c0.9-0.6 1.6-1.5 1.8-2.4-0.7 0.1-1.6 0.5-2.2 1.3 0.1-1.3 0.1-2.2 0-3.4 0.5 0.7 1.5 1.2 2.2 1.3-0.2-2.1-2.1-2.4-3.1-2.4-1.1 0-2.1 0.4-2.2 1.1s0.3 0.9 0.7 0.9c0.3 0 0.8-0.4 0.8-1.1 0.4 0.5 0.8 2.7-0.4 2.8-0.9 0.1-1.4-1-1.5-2.2-0.3 0.9-1.1 2.2-2 1.9-1.1-0.3-0.4-2.4 0.3-2.8-0.2 0.4-0.1 1.2 0.4 1.3 0.6 0.1 0.9-0.4 0.9-0.9 0-0.7-0.9-1.2-1.8-1.4-1.7-0.4-2.7 0.5-3.2 1.1 0.8 0.3 1.3 0.2 2.1-0.2-0.4 0.7-0.8 2-0.9 2.7-0.2-0.8-0.8-1.5-1.4-1.9-0.1 0.7-0.1 1.9 0.6 2.9l-2.5-1.1c1.2-1.3 2.6-4.4 3.4-6.9-0.5-0.4-0.8-1-0.8-1.6 0-1.2 0.8-1.9 1.5-2.4-1.4-0.9-2.7-2-3.8-3.3-1.7-1.9-3.1-4.2-4-6.7 0.4-0.4 1.9-2 2.2-2.5 0.6-0.8 1-1.6 1-2.2 0-1.1 0.3-1.6 0.9-2.4 0.2-0.2 0.5-1.1 0.5-1.7h12.6v-13.8c-0.5 0-1-0.2-1.4-0.7 1.5-0.6 2.8-1.1 4.2-1.5 0.1 0.9 0.3 1.4 0.8 2 0 0-1.8 0.2-2.8 0.2v13.7h12.3c0-1.9-0.4-3.7-1-5.4-0.6-1.8-1.6-3.4-2.8-4.8s-2.5-2.5-4.1-3.2c-0.2-0.1-0.2-0.3-0.5-0.4-0.2-0.2-0.4-0.6-0.6-1.1-0.2-0.4-0.2-0.7-0.3-1.2 0.6-0.2 0.9-0.3 1.4-0.4 4.3-1.1 5.4-0.8 5.6-0.6 1 0.7 1.9 1.6 2.7 2.5 1.7 2 3.1 4.2 4 6.8 1 2.6 1.5 5.4 1.5 8.3 0.3 0.5 0.3 0.6 0.3 1.2m-19.1-1h-12.6c0 1.9 0.4 3.8 1 5.6s1.6 3.4 2.8 4.8 2.6 2.5 4.1 3.2 3.1 1.1 4.7 1.2v-14.8zm0.2 21c-4.2 0-7.1-1.2-8.8-2.4-1 0.6-1.4 1.1-1.4 1.8 0 2.4 6.7 2.6 10.1 2.6s10.1-0.2 10.1-2.6c0-0.7-0.4-1.2-1.4-1.8-1.5 1.1-4.4 2.4-8.6 2.4m0.6-21v14.8c1.5-0.1 3-0.4 4.4-1.1 1.5-0.8 2.9-1.8 4.1-3.2s2.1-3 2.8-4.8c0.6-1.8 1-3.7 1-5.6-0.1-0.1-12.3-0.1-12.3-0.1z" fill="#fff"/>
</g>
<g transform="translate(82.233,799.65)">
<path d="m-72.8 113.5c0.2-0.1 0.1-0.5-0.1-0.4-0.3 2.2-1.1 4.4-2.4 6.2 0.2 0.1 0.5 0.3 0.5 0.6-0.4 0-0.6-0.1-0.8-0.3l-0.3 0.3c-0.8 1-1.7 1.8-2.7 2.5-0.9 0.6-1.9 1.1-3 1.4 0 0.2 0.3 0.3 0.5 0.1 0 0.4-0.3 0.6-0.5 0.5-0.1 0-0.2-0.1-0.2-0.3-0.1 0.1-0.3 0.3-0.6 0.3 0-0.3 0.1-0.4 0.2-0.6-0.2 0-0.3-0.1-0.3-0.2-0.1-0.2 0-0.5 0.4-0.6-0.2 0.2-0.1 0.5 0.1 0.4v-4.8c-0.2 0.1-0.5 0-0.8-0.2 0.3-0.3 0.6-0.3 0.8-0.2v-5.2c-0.3 0-0.3 0.3-0.1 0.4-0.4 0-0.6-0.4-0.5-0.5s0.2-0.2 0.4-0.2c-0.1-0.1-0.2-0.3-0.2-0.6 0.2 0 0.4 0.1 0.5 0.2 0-0.2 0.1-0.3 0.2-0.4 0.2-0.1 0.5 0.1 0.5 0.5-0.1-0.2-0.5-0.1-0.5 0.1h3.6c-0.1-0.2 0-0.5 0.2-0.8 0.2 0.3 0.3 0.6 0.2 0.8h4c0-0.3-0.3-0.3-0.4-0.1 0-0.4 0.4-0.5 0.5-0.5 0.1 0.1 0.2 0.2 0.2 0.4 0.1-0.1 0.3-0.2 0.6-0.2 0 0.2-0.1 0.4-0.2 0.5 0.2 0 0.3 0.1 0.4 0.2 0.4 0.4 0.2 0.7-0.2 0.7m-3.4 6.4c-0.1-0.1-0.2-0.2-0.1-0.3 0-0.1 0.1-0.2 0.4-0.2-0.1-0.1-0.2-0.3-0.3-0.5 0.2 0 0.4 0 0.6 0.1 0-0.2 0-0.3 0.1-0.4s0.2-0.1 0.3 0c0.9-1.5 1.6-3.2 1.8-5-0.1 0.1-0.3 0.1-0.5 0.1 0-0.3 0.1-0.4 0.2-0.6h-3.1c0 0.2-0.1 0.4-0.2 0.4s-0.3 0-0.4-0.1c0 0.2-0.1 0.4-0.2 0.5-0.2-0.2-0.2-0.4-0.2-0.5-0.1 0.2-0.3 0.2-0.4 0.1-0.1 0-0.2-0.2-0.2-0.4h-2.6c0.1 0.1 0.2 0.3 0.2 0.5-0.2 0-0.4-0.1-0.5-0.2v4.2c0.2 0 0.4 0.1 0.4 0.2s0 0.3-0.1 0.4c0.2 0 0.4 0.1 0.5 0.2-0.2 0.2-0.4 0.2-0.5 0.2 0.2 0.1 0.2 0.3 0.1 0.4 0 0.1-0.2 0.2-0.4 0.2v3.6c0.1-0.1 0.3-0.2 0.5-0.2 0 0.2 0 0.4-0.1 0.5 0.8-0.3 1.6-0.7 2.4-1.2 0.7-0.4 1.5-1.1 2.3-2" fill="#fff"/>
</g>
<g transform="translate(81.498,800.11)">
<path d="m-74.2 114.4c0.2 0.1 0.3 0.2 0.3 0.3-0.2-0.1-0.3 0-0.3 0 0.1 0.1 0.3 0 0.1 0.2-0.1 0.2-0.2 0.2-0.4 0.1-0.1-0.2-1.1 0-1.1 0.8l0.3-0.3s0.1 0 0.1-0.1h0.5c0.2 0 0.4 0.2 0.4 0.4 0 0.4-0.3 0.6-0.8 0.9-0.2 0.1-0.3 0.3-0.4 0.4-0.1 0.3 0 0.6-0.4 1.1 0 0.1 0 0.3-0.1 0.5-0.2-0.3-0.3-1 0.2-1.5 0.4-0.5 1.3-0.9 1.2-1.3 0-0.1-0.1-0.2-0.2-0.2h-0.2c-0.1 0-0.1 0-0.2 0.1s-0.2 0.1-0.3 0.2c-0.4 0.3-0.7 0.8-0.9 1.1-0.4 0.5-0.2 1-0.2 1.4 0.3 0.4-0.2 1.2-0.4 1.4 0 0 0.1 0.2 0 0.4h-0.2c-0.1 0.1-0.1 0.2-0.2 0.2-0.2 0-0.2 0.1-0.2 0.2-0.1-0.1-0.1-0.2-0.2-0.2h-0.3c-0.1-0.1-0.1-0.1-0.3-0.1s-0.2-0.1-0.1-0.2c0-0.1 0-0.2 0.1-0.2l0.1-0.2 0.1 0.2c0.1 0.1 0.3 0.1 0.3-0.1 0-0.1 0-0.1-0.1-0.2h-0.4c-0.1 0-0.1-0.1-0.1-0.2s0.1-0.1 0.3-0.1 0.5 0.1 0.5-0.1c0-0.4-0.5-0.4-0.6-0.9l-0.3 0.3c-0.1 0.1-0.2 0.3-0.4 0.5-0.1 0.1-0.2 0.2-0.4 0.3s-0.2 0.2-0.2 0.4 0.1 0.3 0.1 0.4v0.1c0 0.1-0.2 0.2-0.2 0.1 0 0 0.1-0.1 0.1-0.2l-0.1-0.1v-0.2c0 0.1-0.1 0.3-0.2 0.3h-0.1c0 0.1-0.1 0.2-0.3 0.1h0.1v-0.1c0-0.1 0.1-0.2 0.2-0.2-0.2 0.1-0.3 0-0.3-0.1v-0.1c-0.1 0-0.1-0.2 0-0.2v0.1l0.1-0.1h0.2c-0.1-0.1-0.1-0.2 0-0.3-0.1-0.1-0.3-0.1-0.3 0.1-0.2-0.3 0.1-0.5 0.3-0.4v-0.3s0 0.1 0.1 0.1c0-0.1 0-0.1 0.1-0.2v0.1c0-0.1 0.1-0.1 0.1-0.2 0.1-0.2 0.3-0.7 0.9-0.9-0.3-0.2-0.4-0.4-0.6-0.6-0.1-0.1-0.4-0.3-0.5-0.2-0.1 0-0.1 0.1-0.2 0.2-0.1 0-0.1 0.1-0.2 0h-0.1c-0.1 0-0.2 0-0.3-0.1h0.2v-0.1c0-0.1 0-0.1 0.3-0.1 0 0-0.1-0.1-0.1 0-0.1 0-0.2 0.1-0.3 0l-0.1-0.1c-0.1 0-0.2-0.2-0.1-0.3 0 0 0 0.1 0.1 0.2 0 0 0-0.1 0.1-0.1 0.1-0.1 0.2-0.2 0.3 0.1 0-0.1-0.1-0.3 0-0.3h0.1c0-0.1 0.2-0.2 0.3-0.1-0.1 0-0.1 0.1-0.2 0.2h0.1c0.1 0.1 0 0.2 0 0.3 0-0.1 0.1-0.2 0.3-0.1 0.1 0 0.1 0.1 0.1 0.2 0.2 0.1 0.3 0.1 0.5 0.1 0 0.1 0.1 0.2 0.3 0.3s0.3 0 0.3-0.1c0 0.1 0.1 0.2 0.2 0.3 0-0.8 1-0.7 1.3-1.2-0.3 0.1-0.7 0.2-0.8 0.2-0.3 0-0.7-0.3-0.7-0.6 0-0.2 0.2-0.7 0.4-0.8-0.3-0.1-0.4 0-0.7 0-0.2 0-0.3 0.4-0.5 0.3 0 0-0.1 0-0.1-0.1-0.1 0-0.3-0.1-0.2-0.2 0 0 0.1 0.1 0.2 0.1v-0.1s0-0.1 0.1-0.1h0.1c0-0.1-0.3 0.1-0.3-0.2 0 0 0-0.1 0.1-0.1 0-0.1 0.1-0.2 0.2-0.1l-0.1 0.1h0.1v-0.2c0-0.1 0.1-0.2 0.3-0.1 0 0-0.1 0-0.1 0.1h0.1v0.1h0.1c0-0.1 0.1-0.1 0.2-0.1s0.1 0.1 0.1 0.1 0.1 0 0.1-0.1c0 0.1 0 0.2 0.3 0l0.2 0.1s0.2-0.1 0.3 0 0.1 0.1 0.1 0.3c-0.1 0.2-0.2 0.2-0.2 0.4-0.1 0.4 0.5 0.6 0.8 0.5 0.1-0.2 0.4-0.9 1-1.1 0.4-0.1 0.5 0.3 0.6 0.2l0.1-0.1v-0.4c0-0.1-0.2 0-0.4 0-0.1 0-0.1 0-0.1-0.1-0.1 0-0.2-0.1-0.2-0.2 0 0 0.1 0.1 0.2 0.1v-0.1c0-0.1 0.2-0.2 0.3-0.1 0 0 0.1 0 0 0-0.1-0.1-0.2-0.2-0.1-0.3h0.1c0-0.1 0.1-0.2 0.1-0.2v0.2h0.1c0.1 0 0.1 0.2 0.2 0.2 0-0.1-0.1-0.2 0-0.3h0.1c0-0.1 0.1-0.1 0.3-0.1 0 0-0.1 0-0.1 0.1l0.1 0.1c0.1 0.2-0.1 0.2-0.1 0.3s0.2 0 0.2 0.3c0.1 0.1 0.2 0.1 0.3 0.2 0.2-0.1 0 0 0 0z" fill="#fff"/>
</g>
<g transform="translate(77.963,797.74)">
<path d="m-81 109.8h-0.2v0.2c0 0.7-0.4 1.3-1.2 1.3-0.7 0-2.1-0.9-4-0.9-0.8 0-1.8 0.4-2.4 0.7l-0.2-0.6v0.1c0 0.3-0.2 0.5-0.5 0.5s-0.5-0.2-0.5-0.5 0.2-0.5 0.5-0.5c0.1 0 0.3 0.1 0.4 0.2l-0.2-0.6c0.1 0 0.2-0.1 0.2-0.1-0.3-2.9 1.9-6.6 5.6-7.7 0.6 0.1 1.1 0.1 1.1-0.5 0-0.4-0.2-0.5-0.5-0.5-0.2 0-0.4 0.1-0.4 0.3 0 0.3 0.4 0.1 0.5 0.3s-0.1 0.3-0.4 0.3-0.7-0.2-0.7-0.6c0-0.5 0.4-0.8 0.9-0.8 0.4 0 1.3 0.2 1.2 1.3 0.2 0 0.4 0 0.5 0.2v0.6h-0.2l0.2 6.6h0.1c0.2 0 0.5 0.1 0.5 0.4 0.1 0.2-0.1 0.3-0.3 0.3m-6.8-0.5 4.6-6.6c-2.5 1-4.9 3.2-4.6 6.6m4.7-5.9-4.2 6h1l3.4-4.8c-0.1-0.5-0.2-0.9-0.2-1.2m0.3 1.9-3 4.2c0.3 0.1 0.6 0.2 0.9 0.3l2.2-3.2c0-0.4 0-0.9-0.1-1.3m0.7 4.6h-0.2c-0.2 0-0.4-0.1-0.5-0.3 0-0.3 0.2-0.4 0.4-0.4h0.1v-0.2c-0.1-0.4-0.2-1-0.3-1.7l-1.9 2.7c0.9 0.3 1.6 0.7 2 0.7s0.5-0.2 0.4-0.8" fill="#fff"/>
</g>
<g transform="translate(77.688,802.3)">
<path d="m-81.5 118.6c0.9 0 1.3 0.3 1.3 0.6 0 1-2.5 0.4-2.5 1 0 0.1 0.1 0.2 0.2 0.3 1.2 0.1 1.3 1 2.1 1.1-1.1 0.2-1.2-0.7-1.7-0.7 0.2 0.1 0.3 0.4 0.3 0.5-0.2-0.3-0.7-0.3-1-0.6 0-0.1-0.1-0.1 0-0.2-0.2-0.1-0.3-0.2-0.3-0.4 0-0.9 2.5-0.3 2.5-1 0-0.2-0.4-0.4-1.1-0.4-0.5 0-0.9 0.4-1.8 0.1 0 0.2 0.3 0.5 0.2 0.6 0.1 0 0.2 0.1 0.2 0.2-0.1 0.1-0.1 0.1-0.2 0.1v0.1s0 0.1-0.1 0.1c0 0-0.1 0.1-0.2 0.1-0.1 0.1-0.2 0.1-0.2 0.1h-0.1c-0.1 0-0.1 0-0.1-0.1 0 0-0.1 0.1-0.2 0.1 0-0.1-0.1-0.1 0-0.3-0.1 0-0.2-0.2-0.3-0.2 0-0.1 0.1-0.1 0.1-0.1-0.1-0.1-0.1-0.3-0.2-0.3 0 0 0-0.1 0.1-0.1-0.1-0.2-0.1-0.4-0.1-0.6l-0.2 0.2c-0.1 0.1-0.1 0.2-0.1 0.3s0.1 0.2 0.1 0.3v0.1c0 0.1-0.1 0.1-0.2 0.1l0.1-0.1-0.1-0.1s-0.1-0.1 0-0.1v-0.1c0 0.1 0 0.2-0.1 0.2h-0.1c0 0.1-0.1 0.2-0.2 0.1h0.1v-0.1c0-0.1 0-0.1 0.2-0.1-0.2 0.1-0.3 0-0.3-0.1v-0.1c-0.1 0-0.1-0.1 0-0.2 0 0 0 0.1 0.1 0.1h0.1c-0.1-0.1-0.1-0.2 0-0.2 0-0.2-0.3-0.2-0.3 0-0.2-0.2 0.1-0.4 0.3-0.3 0 0 0-0.1 0.1-0.1h0.1s0-0.1 0.1-0.1v0.1s0.1-0.2 0.2-0.3c-0.2-0.1-0.5-0.2-0.6-0.2h-0.4c-0.1-0.1-0.5-0.2-0.6-0.1 0 0 0 0.1-0.1 0.2l-0.1 0.1h-0.1c-0.1 0.1-0.2 0.1-0.2 0 0 0 0.1 0 0.1-0.1v-0.1s0-0.1 0.2-0.2h-0.1c-0.1 0.1-0.1 0.2-0.2 0.1h-0.1c-0.1 0-0.2-0.1-0.2-0.2 0 0 0 0.1 0.1 0.1v-0.1c0-0.1 0.1-0.2 0.3 0-0.1-0.1-0.2-0.2-0.1-0.3h0.1c0-0.1 0.1-0.2 0.2-0.2 0 0-0.1 0.1-0.1 0.2h0.1c0.1 0 0.1 0.2 0.1 0.2 0-0.1 0-0.2 0.2-0.2 0.1 0 0.2 0.1 0.2 0.2l0.1-0.1s0.1 0 0.1 0.1v-0.2s0.2 0.1 0.2 0.2v-0.1h0.3v-0.1 0.1s0-0.1 0.1-0.2c0 0.3 0.2 0.2 0.4 0.3 0 0 0-0.1-0.1-0.1 0.1 0 0.3 0.1 0.3 0.2l0.1 0.1c0.1 0 0.2 0 0.2 0.1v-0.2c0.2 0 0.4 0.2 0.5 0.3 0.5 0.1-0.3 0.4 0.7 0.4 0.1 0 0.2 0 0.3 0.1-0.1-0.1-0.1-0.4 0.1-0.5 0.1 0 0.2-0.1 0.2-0.1-0.1 0-0.2 0-0.2-0.1-0.2-0.1-0.2 0.3-0.5 0.2h-0.1c-0.1 0-0.2-0.1-0.2-0.2 0 0 0.1 0.1 0.2 0.1 0 0 0-0.1 0.1-0.1h0.1c0-0.1-0.3 0-0.2-0.2v-0.1c0-0.1 0.1-0.2 0.2-0.1 0 0-0.1 0-0.1 0.1h0.1v-0.2c0-0.1 0.1-0.2 0.3-0.1 0 0-0.1 0-0.1 0.1h0.1v0.1h0.1c0-0.1 0.1-0.1 0.2-0.1 0.2 0.1 0 0.2 0.2 0.2h0.4c0 0.1 0 0.3-0.1 0.4-0.1 0 0 0.1-0.1 0.3 0.1-0.1 0.3-0.1 0.5-0.1 0.3 0 0 0.1 0.2 0.1 0.2 0.1 0.4 0.1 0.4 0 0 0 0.1 0 0.1-0.1v-0.3c0-0.1-0.2 0-0.3 0h-0.1c-0.1 0-0.2-0.1-0.2-0.2 0 0 0.1 0.1 0.2 0.1 0-0.1 0.1-0.2 0.2-0.1-0.1-0.1-0.2-0.2-0.1-0.2h0.1c0-0.1 0-0.2 0.1-0.2v0.1h0.1c0.1 0 0 0.1 0.1 0.2v-0.2h0.1c0-0.1 0.1-0.1 0.2-0.1 0 0-0.1 0-0.1 0.1l0.1 0.1c0 0.2-0.1 0.2-0.1 0.3s0.2 0 0.2 0.2c0 0 0 0.1-0.1 0.1 0 0 0.1 0 0.1 0.1-0.1 0-0.1 0.1-0.1 0.2 0 0 0.1 0.1 0.1 0.2 0-0.1-0.2-0.1-0.2 0 0 0 0 0.1-0.1 0.1-0.3-0.1-0.4 0.1-0.8 0.1-0.1 0-0.1 0 0 0m-2.8 1m0.7 0.2s0.2-0.1 0.3-0.1c-0.1 0-0.1-0.1-0.2-0.1s-0.1 0.1-0.1 0.2m-0.2 0.1c0-0.1-0.1-0.1-0.2-0.1-0.1 0.1 0 0.1-0.1 0.2 0.1 0 0.3-0.1 0.3-0.1m-0.3-0.6s0.1 0.1 0 0l0.2 0.2c0 0.1 0 0.1-0.1 0.1 0.1 0 0.1 0 0.1 0.1h-0.1l0.1 0.1h0.1l0.2-0.1v-0.2s0 0.1-0.1 0.1v-0.1h-0.1v-0.2c0-0.1-0.1-0.1-0.3 0" fill="#fff"/>
</g>
<g transform="translate(78.112,801.16)">
<path d="m-80.7 116.4c0 0.3-0.3 0.4-1.2 0.4s-2.9-0.3-2.9 0.2c0 0.2 0.4 0.2 0.8 0.2 0 0 0.1-0.1 0.2-0.1 1.1-0.3 2.5 0.3 3.2 0.1-0.8 0.6-1.5 0-2.3 0.2 0.5 0 0.7 0.1 0.7 0.3-0.4-0.3-1.1 0.1-1.6-0.2 0 0-0.1 0-0.1-0.1-0.6 0-1.1 0-1.1-0.4 0-0.9 2.4-0.4 3.1-0.4s0.9-0.1 0.9-0.2c0-0.2-0.7-0.3-1.1-0.3-0.6 0-2.6 0.3-3.7 0.1 0.1 0.2 0.3 0.4 0.2 0.6 0.1 0 0.2 0.1 0.2 0.2-0.1 0.1-0.1 0.1-0.2 0.1 0 0.1 0 0.1-0.1 0.2 0 0 0 0.1-0.1 0.1 0 0-0.1 0.1-0.3 0.2-0.1 0.1-0.2 0.1-0.3 0.1h-0.2c-0.1 0-0.1 0-0.1-0.1-0.1 0.1-0.1 0.1-0.2 0.1 0-0.1-0.1-0.2 0-0.3-0.1 0-0.2-0.3-0.3-0.2 0-0.1 0.1-0.1 0.1-0.1-0.1-0.2-0.1-0.3-0.2-0.3l0.1-0.1v-0.3l-0.2 0.1h-0.1 0.1-0.1c-0.1 0.1-0.2 0.2-0.4 0.3s-0.2 0.2-0.2 0.4 0.1 0.3 0.1 0.4v0.1c0 0.1-0.1 0.2-0.2 0.2 0 0 0.1-0.1 0.1-0.2l-0.1-0.1v-0.3c0 0.1-0.1 0.3-0.2 0.3h-0.1c0 0.1-0.1 0.2-0.3 0.1h0.1v-0.1c0-0.1 0.1-0.2 0.2-0.2v-0.1c-0.2 0.1-0.3 0-0.3-0.1v-0.1c-0.1-0.1-0.1-0.2 0-0.2v0.1h0.2c-0.1-0.1-0.1-0.3 0-0.3 0-0.2-0.4-0.2-0.3 0-0.2-0.3 0.1-0.5 0.4-0.4 0 0 0-0.1 0.1-0.1 0 0 0 0.1 0.1 0.1 0-0.1 0-0.1 0.1-0.2v0.1s0.2-0.2 0.4-0.3 0.3-0.2 0.4-0.1c0-0.2 0.1-0.4 0.1-0.4h-0.6c-0.2-0.1-0.6-0.2-0.7-0.1 0 0.1 0 0.1-0.1 0.2 0 0.1-0.1 0.1-0.1 0.1h-0.1c-0.1 0.1-0.2 0.1-0.3 0 0 0 0.1 0 0.2-0.1v-0.1c0-0.1 0-0.1 0.2-0.2h-0.1c-0.1 0.1-0.1 0.2-0.2 0.1h-0.1c-0.1 0-0.3-0.1-0.2-0.3l0.1 0.1v-0.1c0-0.1 0.1-0.2 0.4-0.1-0.1-0.1-0.2-0.2-0.1-0.3h0.1c0-0.2 0.1-0.3 0.2-0.3 0 0-0.1 0.1-0.1 0.2h0.1c0.1 0.1 0.1 0.2 0.1 0.3 0-0.1 0-0.2 0.2-0.2 0.1 0 0.2 0.1 0.2 0.2 0 0 0.1-0.1 0.1-0.2 0 0 0.1 0 0.1 0.1 0-0.1 0-0.2-0.1-0.3 0.1 0 0.2 0.1 0.2 0.3 0 0 0-0.1 0.1-0.1h0.3v-0.1s0 0.1 0.1 0.1c0 0 0-0.1 0.1-0.2 0 0.4 0.2 0.2 0.5 0.4 0 0 0-0.1-0.1-0.1 0.3-0.1 0.7 0.3 0.8 0.5h0.3c0.8-0.1 0.2 0.7 1.5 0.5 0.1 0 0.2 0.1 0.3 0.1-0.1-0.2-0.1-0.5 0.1-0.5 0.1 0 0.2-0.1 0.3-0.1-0.1 0-0.2 0-0.2-0.1-0.3-0.2-0.3 0.4-0.5 0.3 0 0-0.1 0-0.1-0.1-0.1 0-0.3-0.1-0.2-0.2 0 0 0.1 0.1 0.2 0.1v-0.1s0-0.1 0.1-0.1h0.1c0-0.1-0.4 0.1-0.3-0.2v-0.1c0-0.1 0.1-0.2 0.2-0.1l-0.1 0.1h0.1v-0.2c0-0.1 0.1-0.2 0.3-0.1 0 0-0.1 0-0.2 0.1h0.1v0.1h0.2c0-0.1 0.1-0.1 0.2-0.1 0.2 0.1 0 0.2 0.2 0.3h0.5c0 0.1 0 0.3-0.1 0.4-0.1 0 0 0.2-0.1 0.3 0.2-0.1 0.3-0.1 0.5-0.1 0.4 0 0.5 0.1 0.7 0.2s0.4 0.1 0.5 0c0 0 0.1 0 0.1-0.1v-0.3c0-0.1-0.2 0-0.3 0s-0.1 0-0.1-0.1c-0.1 0-0.2-0.1-0.2-0.2 0 0 0.1 0.1 0.2 0.1 0-0.1 0.2-0.2 0.3-0.1-0.1-0.1-0.2-0.2-0.1-0.2h0.1c0-0.1 0.1-0.2 0.1-0.2v0.2h0.1c0.1 0 0 0.2 0.1 0.2 0-0.1-0.1-0.2 0-0.3h0.1c0-0.1 0.1-0.1 0.2-0.1 0 0-0.1 0-0.1 0.1l0.1 0.1c0.1 0.2-0.1 0.2-0.1 0.3s0.2 0 0.2 0.2c0 0 0 0.1-0.1 0.1 0.1 0 0.1 0 0.2 0.1-0.2 0-0.1 0.1-0.1 0.2 0.1 0 0.1 0.1 0.1 0.2-0.1-0.1-0.2-0.2-0.2 0 0 0 0 0.1-0.2 0.1-0.3 0-0.5 0-1 0.1 0.5 0 1.4 0.1 1.4 0.4m-6.9-0.5m1.4 1.3s0.2-0.1 0.3-0.1c-0.2 0-0.1-0.1-0.2-0.1s-0.1 0.1-0.1 0.2m-0.2 0.1c0-0.1-0.1-0.1-0.2-0.1-0.1 0.1 0 0.1-0.1 0.2 0.1 0 0.3-0.1 0.3-0.1m-0.3-0.7c0 0.1 0.1 0.1 0 0 0.2 0.1 0.2 0.1 0.2 0.2s0 0.1-0.1 0.1c0.1 0 0.1 0 0.1 0.1h-0.1s0 0.1 0.1 0.1h0.1l0.3-0.1s0.1 0 0.1-0.1v-0.1s0 0.1-0.1 0.1v-0.1c-0.1 0-0.1 0.1-0.2 0v-0.2c0-0.1-0.1-0.2-0.2-0.1-0.3-0.1-0.3 0-0.2 0.1m0.7-1.6" fill="#fff"/>
</g>
<g transform="translate(77.979,799.84)">
<path d="m-81 113.9c0 0.3-0.3 0.4-1.1 0.4s-3.4-0.3-3.4 0.2c0 0.3 0.9 0.2 1.5 0.2 0 0 0.1-0.1 0.2-0.1 1.1-0.3 2.2 0.4 3 0.2-0.6 0.6-1.4-0.1-2.2 0.1 0.5 0 1 0.1 1 0.2-0.4-0.2-1.4 0.2-1.9-0.1 0 0-0.1 0-0.1-0.1-0.8 0-1.8 0.1-1.8-0.4 0-0.8 2.9-0.3 3.6-0.3s0.9-0.1 0.9-0.2c0-0.2-0.7-0.2-1.1-0.2-0.6 0-3.4 0.4-4.5 0 0.1 0.2 0.3 0.5 0.2 0.6 0.1 0 0.2 0.1 0.2 0.2-0.1 0.1-0.1 0.1-0.2 0.1v0.1s0 0.1-0.1 0.1l-0.2 0.2c-0.1 0.1-0.2 0.1-0.2 0.1h-0.2c-0.1 0-0.1 0-0.1-0.1 0 0-0.1 0.1-0.2 0.1 0-0.1-0.1-0.2 0-0.3-0.1 0-0.2-0.3-0.3-0.2 0-0.1 0.1-0.1 0.1-0.1-0.1-0.1-0.1-0.3-0.2-0.3l0.1-0.1v-0.3h-0.3c-0.1 0-0.2 0.2-0.5 0.4-0.2 0.1-0.2 0.2-0.2 0.3s0.1 0.3 0.1 0.4v0.1c0 0.1-0.2 0.2-0.2 0.1l0.1-0.1-0.1-0.1v-0.2c0 0.1-0.1 0.3-0.2 0.3h-0.1c0 0.1-0.1 0.2-0.2 0.1h0.1v-0.1c0-0.1 0.1-0.1 0.2-0.2-0.2 0.1-0.3 0-0.3-0.1v-0.1c-0.1-0.1-0.1-0.1 0-0.2v0.1h0.3c-0.1-0.1-0.1-0.2 0.1-0.3 0-0.2-0.3-0.2-0.3 0-0.2-0.3 0.1-0.5 0.4-0.3 0 0 0-0.1 0.1-0.1h0.1c0-0.1 0-0.1 0.1-0.2v0.1s0.2-0.3 0.6-0.5c0.1 0 0.2 0 0.2 0.1 0 0 0-0.1 0.1-0.1 0-0.2 0.1-0.3 0.1-0.3h-0.7c-0.2-0.1-0.5-0.2-0.7-0.1 0 0.1 0 0.1-0.1 0.2 0 0.1-0.1 0.1-0.1 0.1h-0.1c-0.1 0.1-0.2 0.1-0.3 0 0 0 0.1 0 0.2-0.1v-0.1c0-0.1 0-0.1 0.2-0.2h-0.1c-0.1 0.1-0.1 0.2-0.2 0.1h-0.1c-0.1 0-0.3-0.1-0.2-0.3l0.1 0.1v-0.1c0-0.1 0.1-0.2 0.3-0.1-0.1-0.1-0.2-0.2-0.1-0.3h0.1c0-0.1 0.1-0.3 0.2-0.2 0 0-0.1 0.1-0.1 0.2h0.1c0.1 0 0.1 0.2 0.1 0.2 0-0.1 0-0.2 0.2-0.2 0.1 0 0.2 0.1 0.2 0.2 0 0 0.1-0.1 0.1-0.2l0.1 0.1c0-0.1 0-0.2-0.1-0.2 0.1 0 0.2 0.1 0.2 0.2v-0.1h0.3v-0.1s0 0.1 0.1 0.1c0 0 0-0.1 0.1-0.2 0 0.4 0.5 0.2 0.7 0.3 0 0 0-0.1-0.1-0.1 0.1 0 0.2 0 0.3 0.1l0.4 0.2v0.1h0.1c0.2 0 0.2 0.2 0.3 0.2 1.4-0.2 0.6 0.6 2.2 0.4 0.1 0 0.1 0 0.2 0.1-0.1-0.2-0.1-0.4 0.1-0.4 0.1 0 0.2-0.1 0.3-0.1-0.1 0-0.2 0-0.2-0.1-0.3-0.2-0.3 0.4-0.5 0.3 0 0-0.1 0-0.1-0.1-0.1 0-0.3-0.1-0.2-0.2 0 0 0.1 0.1 0.2 0.1v-0.1s0-0.1 0.1-0.1h0.1c0-0.1-0.3 0.1-0.3-0.2v-0.1c0-0.1 0.1-0.2 0.2-0.1l-0.1 0.1h0.1v-0.2c0-0.1 0.1-0.2 0.3-0.1 0 0-0.1 0-0.1 0.1h0.1v0.1h0.2c0-0.1 0.1-0.1 0.2-0.1 0.2 0.1 0 0.2 0.2 0.3h0.5c0 0.1 0 0.3-0.1 0.4-0.1 0 0 0.2-0.1 0.3 0.2-0.1 0.3-0.1 0.5-0.1 0.4 0 0.5 0.1 0.6 0.2 0.2 0.1 0.4 0.1 0.5 0 0 0 0.1 0 0.1-0.1v-0.3c0-0.1-0.2 0-0.3 0s-0.1 0-0.1-0.1c-0.1 0-0.2-0.1-0.2-0.2 0 0 0.1 0.1 0.2 0.1 0-0.1 0.2-0.2 0.2-0.1-0.1-0.1-0.2-0.2-0.1-0.2h0.1c0-0.1 0.1-0.2 0.1-0.2v0.2h0.1c0.1 0 0 0.2 0.1 0.2v-0.2h0.1c0-0.1 0.1-0.1 0.2-0.1 0 0-0.1 0-0.1 0.1l0.1 0.1c0.1 0.2-0.1 0.2-0.1 0.3s0.2 0 0.2 0.2c0 0 0 0.1-0.1 0.1 0.1 0 0.1 0 0.1 0.1-0.2 0-0.1 0.1-0.1 0.2 0 0 0.1 0.1 0.1 0.2 0-0.1-0.2-0.2-0.2 0 0 0 0 0.1-0.2 0.1-0.3 0-0.4 0-0.9 0.1 0.4-0.2 1.2-0.1 1.2 0.2m-6.1 0.7s0.2-0.1 0.3-0.1c-0.1 0-0.1-0.1-0.2-0.1s-0.1 0.1-0.1 0.2m-0.2 0.1c0-0.1-0.1-0.1-0.2-0.1-0.1 0.1 0 0.1-0.1 0.2 0.1 0 0.3-0.1 0.3-0.1m-0.3-0.7c0.2 0.1 0.2 0.1 0.2 0.2s0 0.1-0.1 0.1c0.1 0 0.1 0 0.1 0.1h-0.1l0.1 0.1h0.1l0.3-0.1s0.1 0 0.1-0.1v-0.1s0 0.1-0.1 0.1v-0.1h-0.2v-0.2c0-0.1-0.1-0.1-0.2-0.1-0.2 0-0.2 0.1-0.2 0.1" fill="#fff"/>
</g>
<g transform="translate(82.043,797.64)">
<path d="m-73.1 109.7c0.1 0.1 0.1 0.1 0.1 0.3-0.1-0.1-0.2-0.2-0.2 0 0 0 0 0.1-0.2 0.1-0.3 0-0.5 0-1 0.1 0 0-0.1 0 0 0 0.5 0 1.4 0.1 1.4 0.4s-0.3 0.4-1.1 0.4-3.4-0.3-3.4 0.2c0 0.3 0.9 0.2 1.5 0.2 0 0 0.1-0.1 0.2-0.1 1.1-0.3 2.3 0.5 3 0.3-0.8 0.3-1.4-0.2-2.2 0 0.5 0 1 0.1 1 0.2-0.4-0.2-1.4 0.2-1.9-0.1 0 0-0.1 0-0.1-0.1-0.8 0-1.8 0.1-1.8-0.4 0-0.8 2.9-0.3 3.6-0.3s0.9-0.1 0.9-0.2c0-0.2-0.7-0.3-1.1-0.3-0.7 0-3.4 0.4-4.5 0 0.1 0.2 0.3 0.5 0.2 0.6 0.1 0 0.2 0.1 0.2 0.2-0.1 0.1-0.1 0.1-0.2 0.1v0.1s0 0.1-0.1 0.1l-0.2 0.2c-0.1 0.1-0.2 0.1-0.2 0.1h-0.1c-0.1 0-0.1 0-0.1-0.1-0.1 0-0.1 0.1-0.2 0.1 0-0.1-0.1-0.2 0-0.3-0.1 0-0.2-0.3-0.3-0.2 0-0.1 0.1-0.1 0.1-0.1-0.1-0.1-0.1-0.3-0.2-0.3l0.1-0.1v-0.2h-0.3c-0.1 0-0.2 0.2-0.5 0.4-0.2 0.1-0.2 0.2-0.2 0.3s0.1 0.3 0.1 0.4v0.1c0 0.1-0.1 0.2-0.2 0.1l0.1-0.1-0.1-0.1v-0.2c0 0.1-0.1 0.2-0.2 0.3h-0.1c0 0.1-0.1 0.2-0.2 0.1h0.1v-0.1c0-0.1 0.1-0.2 0.2-0.2-0.2 0.1-0.3 0-0.3-0.1v-0.1c-0.1 0-0.1-0.1 0-0.2v0.1h0.3c-0.1-0.1-0.1-0.3 0.1-0.3 0-0.2-0.3-0.2-0.3 0-0.2-0.3 0.1-0.5 0.4-0.3 0 0 0-0.1 0.1-0.1h0.1c0-0.1 0-0.1 0.1-0.2v0.1s0.2-0.3 0.5-0.5c0 0 0.1 0.1 0.2 0.1 0-0.1 0.1-0.1 0.1-0.2h0.1c0-0.2 0.2-0.3 0.1-0.3h-0.5c-0.2-0.1-0.5-0.2-0.7-0.1 0 0.1 0 0.1-0.1 0.2 0 0.1-0.1 0.1-0.1 0.1h-0.1c-0.1 0.1-0.2 0.1-0.3 0 0 0 0.1 0 0.1-0.1v-0.1c0-0.1 0-0.1 0.2-0.2h-0.1c-0.1 0.1-0.1 0.2-0.2 0.1h-0.1c-0.1 0-0.3-0.1-0.2-0.3l0.1 0.1v-0.1c0-0.1 0.1-0.2 0.3-0.1-0.1-0.1-0.2-0.2-0.1-0.3h0.1c0-0.1 0.1-0.2 0.2-0.2 0 0-0.1 0.1-0.1 0.2h0.1c0.1 0 0.1 0.2 0.1 0.2 0-0.1 0-0.2 0.2-0.2 0.1 0 0.2 0.1 0.2 0.2 0 0 0.1-0.1 0.1-0.2l0.1 0.1c0-0.1 0-0.2-0.1-0.3 0.1 0 0.2 0.1 0.2 0.3 0 0 0-0.1 0.1-0.1h0.3v-0.1s0 0.1 0.1 0.1c0 0 0-0.1 0.1-0.2 0 0.4 0.2 0.2 0.5 0.4 0 0 0-0.1-0.1-0.1 0.1-0.1 0.4 0.1 0.4 0.3 0 0 0.1 0 0.2 0.1 0.2 0 0.2 0.2 0.3 0.2 1.4-0.2 0.6 0.6 2.2 0.4 0.1 0 0.1 0.1 0.2 0.2-0.1-0.2-0.1-0.5 0.1-0.5 0.1 0 0.2-0.1 0.3-0.1-0.1 0-0.2 0-0.2-0.1-0.2-0.2-0.3 0.4-0.5 0.3 0 0-0.1 0-0.1-0.1-0.1 0-0.2-0.1-0.2-0.2 0 0 0.1 0.1 0.2 0.1v-0.1s0-0.1 0.1-0.1h0.1c0-0.1-0.3 0.1-0.3-0.2 0 0 0-0.1 0.1-0.1 0-0.1 0.1-0.2 0.2-0.1l-0.1 0.1h0.1v-0.2c0-0.1 0.1-0.2 0.3-0.1 0 0-0.1 0-0.1 0.1h0.1v0.1h0.1c0-0.1 0.1-0.1 0.2-0.1 0.2 0.1 0 0.2 0.2 0.2h0.5c0 0.1 0 0.3-0.1 0.4-0.1 0 0 0.2-0.1 0.3 0.2-0.1 0.3-0.1 0.5-0.1 0.4 0 0.5 0.1 0.7 0.2s0.4 0.1 0.5 0c0 0 0.1 0 0.1-0.1-0.1-0.2 0-0.2 0-0.3s-0.2 0-0.3 0-0.1 0-0.1-0.1c-0.1 0-0.2-0.1-0.2-0.2 0 0 0.1 0.1 0.2 0.1 0-0.1 0.1-0.2 0.2-0.1-0.1-0.1-0.2-0.2-0.1-0.2h0.1c0-0.1 0-0.2 0.1-0.2v0.2h0.1c0.1 0 0.1 0.2 0.2 0.2 0-0.1-0.1-0.2 0-0.2h0.1c0-0.1 0.1-0.1 0.2-0.1 0 0-0.1 0-0.1 0.1l0.1 0.1c0.1 0.2-0.1 0.2-0.1 0.3s0.2 0 0.2 0.2c0 0 0 0.1-0.1 0.1 0.1 0 0.1 0 0.2 0.1-0.5-0.3-0.4-0.1-0.4 0m-6.1 1.5s0.2-0.1 0.3-0.1l-0.1-0.1c-0.1 0-0.2 0.1-0.2 0.2m-0.2 0.1c0-0.1-0.1-0.1-0.2-0.1-0.1 0.1 0 0.1-0.1 0.2 0.1 0 0.3-0.1 0.3-0.1m-0.3-0.7c0 0.1 0.1 0.1 0 0 0.2 0.1 0.2 0.1 0.2 0.2s0 0.1-0.1 0.1c0.1 0 0.1 0 0.1 0.1h-0.1v0.1h0.1l0.3-0.1v-0.2s0 0.1-0.1 0.1v-0.1c-0.1 0-0.1 0.1-0.2 0v-0.2c0-0.1-0.1-0.1-0.2 0" fill="#fff"/>
</g>
<g transform="translate(80.761,796.92)">
<path d="m-75.6 108.3c0-0.1 0.1-0.1 0.2-0.1 1-0.3 2.2 0.5 2.8 0.3-0.8 0.3-1.3-0.2-2.1 0 0.5 0 0.9 0.1 1 0.2-0.4-0.2-1.3 0.1-1.8-0.1h-0.1c-0.6 0-1 0-1-0.4 0-0.8 2.1-0.3 2.8-0.3s0.6-0.1 0.6-0.2c0-0.2-0.8-0.2-1.1-0.2-0.6 0-2.3 0.3-3.4 0.1 0.1 0.2 0.3 0.4 0.2 0.5 0.1 0 0.2 0.1 0.2 0.2-0.1 0.1-0.1 0.1-0.2 0.1v0.1s0 0.1-0.1 0.1l-0.2 0.2c-0.1 0.1-0.2 0.1-0.2 0.1h-0.1c-0.1 0-0.1 0-0.1-0.1 0 0-0.1 0.1-0.2 0.1 0-0.1-0.1-0.2 0-0.3-0.1 0-0.2-0.2-0.3-0.2 0-0.1 0.1-0.1 0.1-0.1-0.1-0.1-0.1-0.3-0.2-0.3l0.1-0.1c0-0.1 0-0.2-0.1-0.3h-0.1c-0.1 0-0.2 0-0.4 0.1s-0.2 0.2-0.2 0.3 0.1 0.3 0.1 0.4v0.1c0 0.1-0.1 0.2-0.2 0.1l0.1-0.1-0.1-0.1v-0.2c0 0.1-0.1 0.2-0.2 0.2h-0.1c0 0.1-0.1 0.2-0.2 0.1h0.1v-0.1c0-0.1 0.1-0.1 0.2-0.1-0.2 0.1-0.3 0-0.3-0.1v-0.1c-0.1 0-0.1-0.1 0-0.2v0.1h0.2c-0.1-0.1-0.1-0.2 0.1-0.3 0-0.2-0.3-0.2-0.3 0-0.2-0.3 0.1-0.5 0.4-0.3 0 0 0-0.1 0.1-0.1 0-0.1 0-0.1 0.1-0.1v0.1s0 0.1 0.3-0.1c0 0 0-0.1 0.1-0.1h0.2v-0.4h-0.5c-0.1-0.1-0.5-0.2-0.6-0.1 0 0.1 0 0.1-0.1 0.2 0 0.1-0.1 0.1-0.1 0.1h-0.1c-0.1 0.1-0.2 0.1-0.3 0 0 0 0.1 0 0.1-0.1v-0.1s0-0.1 0.2-0.2h-0.1c-0.1 0.1-0.1 0.2-0.2 0.1h-0.1c-0.1 0-0.3-0.1-0.2-0.2 0 0 0 0.1 0.1 0.1v-0.1c0-0.1 0.1-0.2 0.3 0-0.1-0.1-0.2-0.2-0.1-0.3h0.1c0-0.1 0.1-0.2 0.2-0.2 0 0-0.1 0.1-0.1 0.2h0.1c0.1 0 0.1 0.2 0.1 0.2 0-0.1 0-0.2 0.2-0.2 0.1 0 0.2 0.1 0.2 0.2 0 0 0.1-0.1 0.1-0.2l0.1 0.1c0-0.1 0-0.2-0.1-0.2 0.1 0 0.2 0.1 0.2 0.2 0 0 0-0.1 0.1-0.1h0.3v-0.1s0 0.1 0.1 0.1c0 0 0-0.1 0.1-0.2 0 0.4 0.3 0.3 0.5 0.4 0 0 0-0.1-0.1-0.1 0.2-0.1 0.5 0.2 0.6 0.4l0.1 0.1v-0.1c0.2 0 0.2 0.2 0.3 0.2 0.7-0.1 0.2 0.6 1.3 0.4 0.1 0 0.2 0.1 0.3 0.1-0.1-0.1-0.1-0.5 0.1-0.5 0.1 0 0.2-0.1 0.3-0.1-0.1 0-0.2 0-0.2-0.1-0.2-0.2-0.2 0.4-0.5 0.3h-0.1c-0.1 0-0.2-0.1-0.2-0.2 0 0 0.1 0.1 0.2 0.1v-0.1s0-0.1 0.1-0.1h0.1c0-0.1-0.3 0.1-0.3-0.2v-0.1c0-0.1 0.1-0.2 0.2-0.1l-0.1 0.1h0.1v-0.2c0-0.1 0.1-0.2 0.3-0.1 0 0-0.1 0-0.1 0.1h0.1v0.1h0.1c0-0.1 0.1-0.1 0.2-0.1 0.2 0.1 0 0.2 0.2 0.2h0.5c0 0.1 0 0.3-0.1 0.4-0.1 0 0 0.1-0.1 0.3 0.1-0.1 0.3-0.1 0.5-0.1 0.4 0 0.5 0 0.7 0.1s0.4 0.1 0.5 0c0 0 0.1 0 0-0.1-0.1-0.2 0-0.2-0.1-0.3s-0.2 0-0.3 0h-0.1c-0.1 0-0.2-0.1-0.2-0.2 0 0 0.1 0.1 0.2 0.1 0-0.1 0.1-0.2 0.2-0.1-0.1-0.1-0.3-0.2-0.2-0.2h0.1c0-0.1 0-0.2 0.1-0.2 0 0 0 0.1 0.1 0.2h0.1c0.1 0 0.1 0.2 0.2 0.2-0.1-0.1-0.1-0.2 0-0.2h0.1c0-0.1 0.1-0.1 0.2-0.1 0 0-0.1 0-0.1 0.1l0.1 0.1c0.1 0.2-0.1 0.2 0 0.3 0 0.1 0.2 0 0.3 0.2 0 0 0 0.1-0.1 0.1 0.1 0 0.1 0 0.2 0.1-0.1 0-0.1 0.1-0.1 0.2 0.1 0 0.1 0.1 0.1 0.2-0.1-0.1-0.2-0.1-0.2 0 0 0 0 0.1-0.1 0.1-0.2 0-0.6 0-1 0.1 0.5 0 1.4 0.1 1.4 0.4 0 0.2 0 0.4-0.8 0.4s-2.6-0.3-2.6 0.2c-0.5-0.3-0.1-0.3 0.3-0.3m-2.6 0c0-0.1-0.1-0.1-0.2-0.1-0.1 0.1 0 0.1-0.1 0.2 0.1 0 0.2-0.1 0.3-0.1m0.2-0.5c-0.1 0-0.1 0.1 0 0-0.2 0.1-0.1 0.1 0 0h-0.2v-0.2s-0.1-0.1-0.2-0.1-0.1 0.1-0.1 0.2 0.1 0.1 0.1 0.1c0.1 0 0.1 0 0.1 0.1s0 0.1-0.1 0.1c0.1 0 0.1 0 0.1 0.1h-0.1v0.1h0.1l0.3-0.1v-0.3m0.1 0.2c-0.1 0-0.1 0.1-0.1 0.2 0 0 0.2-0.1 0.3-0.1-0.1 0-0.1-0.1-0.2-0.1" fill="#fff"/>
</g>
<g transform="translate(80.474,795.66)">
<path d="m-76.2 105.8c0-0.1 0.1-0.1 0.2-0.1 1-0.3 2.2 0.5 2.8 0.3-0.8 0.3-1.3-0.2-2.1 0 0.5 0 0.9 0.1 1 0.2-0.4-0.2-1.3 0.2-1.8-0.1 0 0-0.1 0-0.1-0.1-0.3-0.1-0.6-0.2-0.6-0.5 0-0.7 2.6-0.1 2.6-0.4 0-0.2-0.5-0.4-1.2-0.4-0.5 0-1.4 0.3-2.6 0.1 0.1 0.2 0.3 0.5 0.2 0.6 0.1 0 0.2 0.1 0.2 0.2-0.1 0.1-0.1 0.1-0.2 0.1v0.1s0 0.1-0.1 0.1c0 0-0.1 0.1-0.2 0.1-0.1 0.1-0.2 0-0.2 0.1h-0.1s-0.1 0-0.1-0.1c0 0-0.1 0.1-0.2 0.1 0-0.1-0.1-0.2 0-0.3-0.1 0-0.2-0.2-0.3-0.2 0-0.1 0.1-0.1 0.1-0.1-0.1-0.1-0.1-0.3-0.2-0.3l0.1-0.1c0-0.2-0.1-0.5 0-0.6-0.2 0.2-0.4 0.5-0.6 0.6s-0.2 0.2-0.2 0.3 0.1 0.2 0.1 0.4v0.1c0 0.1-0.1 0.1-0.2 0.1l0.1-0.1-0.1-0.1v-0.2c0 0.1-0.1 0.2-0.2 0.2h-0.1c0 0.1-0.1 0.2-0.2 0.1h0.1v-0.1c0-0.1 0.1-0.1 0.2-0.1-0.2 0.1-0.2 0-0.3-0.1v-0.1c-0.1 0-0.1-0.1 0-0.2v0.1h0.2c-0.1-0.1-0.1-0.2 0.1-0.2 0-0.2-0.3-0.2-0.3 0-0.2-0.2 0.1-0.4 0.3-0.3 0 0 0-0.1 0.1-0.1 0-0.1 0-0.1 0.1-0.1v0.1s0-0.3 0.3-0.5c0.1-0.2 0.2-0.3 0.4-0.3 0.1-0.1 0.1-0.2 0.1-0.2h-0.5c-0.1 0-0.2-0.1-0.3-0.1s-0.2 0-0.3 0.1c0 0 0 0.1-0.1 0.2 0 0.1-0.1 0.1-0.1 0.1h-0.1c-0.1 0.1-0.2 0.1-0.2 0 0 0 0.1 0 0.1-0.1v-0.1s0-0.1 0.2-0.2h-0.1c-0.1 0.1-0.1 0.2-0.2 0.1h-0.1c-0.1 0-0.2-0.1-0.2-0.2 0 0 0 0.1 0.1 0.1v-0.1c0-0.1 0.1-0.2 0.3 0-0.1-0.1-0.2-0.2-0.1-0.3 0-0.1 0.1-0.2 0.2-0.2 0 0-0.1 0.1-0.1 0.2h0.1c0.1 0 0.1 0.2 0.1 0.2 0-0.1 0-0.2 0.2-0.2 0.1 0 0.2 0.1 0.2 0.2l0.1-0.1s0.1 0 0.1 0.1c0-0.1 0-0.1-0.1-0.2 0 0 0.2 0.1 0.2 0.2v-0.1h0.3v-0.1s0 0.1 0.1 0.1c0 0 0-0.1 0.1-0.2 0 0.3 0.2 0.2 0.4 0.3 0 0 0-0.1-0.1-0.1 0.1 0 0.3 0.1 0.3 0.2 0 0 0.2 0.2 0.2 0.6h0.1c0.3 0 0.4 0.2 0.7 0.2-0.1-0.1-0.1-0.3-0.1-0.4s0.2-0.3 0.3-0.4c-0.1 0-0.2 0-0.2-0.1-0.2-0.1-0.2 0.3-0.5 0.2l-0.1-0.1c-0.1 0-0.2-0.1-0.2-0.2 0 0 0.1 0.1 0.2 0.1 0 0 0-0.1 0.1-0.1h0.1c0-0.1-0.3 0.1-0.2-0.2v-0.1c0-0.1 0.1-0.2 0.2-0.1l-0.1 0.1h0.1v-0.2c0-0.1 0.1-0.2 0.3-0.1 0 0-0.1 0-0.1 0.1h0.1v0.1h0.1s0.1-0.1 0.2-0.1c0.2 0.1 0 0.2 0.2 0.2h0.1c0.1 0 0.2-0.1 0.3 0 0 0.1 0 0.3-0.1 0.4-0.1 0 0.1 0.5-0.3 0.8 0.2 0 0.8-0.1 0.9 0 0.2 0 0.4-0.2 0.4-0.2v-0.1c-0.2-0.1-0.1-0.1-0.2-0.2l-0.2 0.2h-0.1c-0.1 0-0.2 0-0.2-0.1h0.2v-0.1c-0.1 0-0.3 0-0.2-0.1v-0.1c-0.1 0-0.1-0.1 0-0.2 0 0 0 0.1 0.1 0.1v-0.1s0.1 0.1 0.2 0.1c-0.1 0-0.2-0.1-0.1-0.2v-0.1c0-0.1 0-0.2 0.1-0.2v0.1h0.1c0.2 0.1 0.1 0.2 0.1 0.3 0.1 0.1 0.1-0.1 0.3 0v0.1s0.1-0.1 0.1 0c-0.1 0.1 0 0.1 0.1 0.2 0 0 0.1 0 0.2 0.1-0.1 0-0.3 0.1-0.2 0.1 0.2 0.1 0.2 0.2 0.1 0.3-0.1 0.2-0.4 0.2-0.4 0.4h0.3c0.9 0 1.5 0.2 1.4 0.5 0 0.6-2.7 0-2.7 0.4 0.4 0.2 0.5 0.3 0.7 0.3m-1.9 0s0.2-0.1 0.3-0.1c-0.1 0-0.1-0.1-0.2-0.1s-0.1 0.1-0.1 0.2m-0.2 0c0-0.1-0.1-0.1-0.2-0.1-0.1 0.1 0 0.1-0.1 0.2 0.1 0 0.3 0 0.3-0.1m-0.2-0.6c0.1 0.1 0.2 0.1 0.2 0.1 0 0.1 0 0.1-0.1 0.1 0.1 0 0.1 0 0.1 0.1h-0.1v0.1h0.1l0.2-0.1v-0.2s0 0.1-0.1 0.1v-0.1h-0.1v-0.2c0-0.1-0.1-0.1-0.2-0.1-0.1 0.1-0.1 0.2 0 0.2" fill="#fff"/>
</g>
<g transform="translate(65.817,811.43)">
<path d="m-104.4 136.2c0 0.4-0.3 0.6-0.6 0.6-0.4 0-0.6-0.3-0.6-0.6s0.3-0.6 0.6-0.6 0.6 0.3 0.6 0.6" fill="#fff"/>
</g>
<g transform="translate(65.74,812.02)">
<path d="m-104.6 137.4c0 0.4-0.3 0.6-0.6 0.6-0.4 0-0.6-0.3-0.6-0.6s0.3-0.6 0.6-0.6c0.4-0.1 0.6 0.2 0.6 0.6" fill="#fff"/>
</g>
<g transform="translate(65.865,812.28)">
<path d="m-104.3 137.9c0.4 0 0.6 0.3 0.6 0.6s-0.3 0.6-0.6 0.6c-0.4 0-0.6-0.3-0.6-0.6s0.2-0.6 0.6-0.6" fill="#fff"/>
</g>
<g transform="translate(66.449,812.31)">
<path d="m-103.2 137.9c0.4 0 0.6 0.3 0.6 0.6 0 0.4-0.3 0.6-0.6 0.6-0.4 0-0.6-0.3-0.6-0.6s0.3-0.6 0.6-0.6" fill="#fff"/>
</g>
<g transform="translate(68.941,812.72)">
<path d="m-98.4 138.7c0.3-0.2 0.7-0.2 0.9 0s0.2 0.7 0 0.9c-0.3 0.3-0.7 0.3-0.9 0-0.2-0.2-0.2-0.6 0-0.9" fill="#fff"/>
</g>
<g transform="translate(68.892,813.19)">
<path d="m-98.5 139.6c0.3 0.2 0.3 0.7 0 0.9s-0.7 0.3-0.9 0c-0.3-0.2-0.2-0.7 0-0.9 0.3-0.2 0.7-0.2 0.9 0" fill="#fff"/>
</g>
<g transform="translate(68.31,813.28)">
<path d="m-99.6 139.8c0.2 0.2 0.2 0.7 0 0.9-0.3 0.3-0.7 0.3-0.9 0s-0.2-0.7 0-0.9c0.2-0.3 0.6-0.3 0.9 0" fill="#fff"/>
</g>
<g transform="translate(67.814,812.91)">
<path d="m-100.6 139.1c0.2 0.2 0.2 0.7 0 0.9-0.3 0.2-0.7 0.2-0.9 0-0.2-0.3-0.2-0.7 0-0.9 0.3-0.3 0.7-0.3 0.9 0" fill="#fff"/>
</g>
<g transform="translate(66.415,813.21)">
<path d="m-103.3 139.7 0.5-1.1 0.6 0.8h0.1c0.1-0.4 0.1-1 0.1-1.4 0-0.5 0.4-0.8 0.8-0.8s0.8 0.4 0.8 0.8c0 0.3-0.2 0.6-0.4 0.7-0.3 0.2-0.7 0.6-0.9 0.8v0.1l1.1-0.1-0.4 1.2-0.8-0.7-0.1 1.2-1.1-0.4 0.7-0.9v-0.1l-1-0.1z" fill="#fff"/>
</g>
<g transform="translate(68.955,812.53)">
<path d="m-98.4 138.3c0.2-0.4 0.3-0.6 0.4-0.9-0.2 0.1-0.4 0.3-0.7 0.6l0.1-1.5c0.2 0.3 0.3 0.4 0.5 0.5-0.1-1-0.4-1.4-0.8-1.4-0.4-0.1-0.7 0.2-0.8 0.5-0.1 0.4 0.3 0.7 0.7 0.3 0.1 0.9-0.7 0.9-1 0.5 0.4 0.9 0.2 1.4-0.5 1.9-0.5-0.8-0.3-1.3 0.3-2-0.6 0.3-1.1-0.2-0.6-0.9 0.1 0.6 0.6 0.4 0.7 0s-0.3-0.9-0.9-1.1c-0.9-0.3-1.2 0.3-1.4 0.8 0.2 0.1 0.7 0.1 1.2-0.3l-0.4 1.5c-0.2-0.5-0.5-0.7-0.9-0.9 0 0.4 0.3 1.3 0.3 1.3l-1.8-0.7s0.8-0.4 1.1-0.7c-0.4-0.1-0.7-0.2-1.2 0l0.7-1.4c0.1 0.6 0.4 1 0.7 1 0.2-0.5 0.4-1.1-0.5-1.6-0.6-0.3-1.2-0.2-1.4 0.1-0.2 0.4 0 0.9 0.5 0.5-0.1 0.8-0.8 0.8-1 0.2 0 0.9-0.2 1.4-1.1 1.6-0.2-0.9 0.1-1.4 0.9-1.7-0.5 0.1-1-0.4-0.3-1 0 0.5 0.5 0.6 0.7 0.2 0.2-0.3 0.1-0.7-0.2-0.9s-0.8-0.2-1.6 0.5c0.2 0.1 0.4 0.1 0.8 0l-0.9 1.2c0.1-0.4 0-0.7-0.1-0.9-0.2 0.2-0.3 0.4-0.4 0.9l-0.7-0.6c0.7-0.4 1.5-1.1 2.4-2.4 1 0.6 2.8 1.5 3.9 2s3 1.1 4.2 1.3c-0.2 1.6-0.1 2.6 0.1 3.4l-1 0.1z" fill="#fff"/>
</g>
<g transform="translate(73.768,798.57)">
<path d="m-89.1 111.5c0.3 0.7-1 1.5-1.2 2.4s0 1.9-1.2 3.2c-1.1 1.3-4.9 5.4-6.1 6.7 0.3 0 1 0.2 1.7-0.5 0.4-0.4 1.2-1.2 2-1.9 1 2.6 2.3 4.5 4.1 6.6 0.2 0.3 0.5 0.5 0.7 0.8-0.7-0.2-1.7-0.4-2.3-0.8 0 1.1 0 2-0.7 2.8 0.3 1.6 0 3.5-3.5 5.8 1.8-0.4 2.9-2.1 4.3-0.8-1.2 0-1.3 2.7-5.8 5 1.7 0 3-2.7 5-1.2-1.9 0.2-2.5 3.5-5.9 4.6 1.2-0.1 2.4-0.7 3.4 0.7-1.2-0.3-1.9 0.8-3.1 0.9 0.5 1.5 0.4 2.4-0.1 3.4-0.9-0.1-1.8-0.3-2.4-0.9-0.1 0.8-0.9 0.8-1.7 0.8 0-0.3 0.2-0.8-0.2-0.9-0.6-0.1-2.6-0.7-4.2-1.3-1.5-0.6-3.3-1.7-3.8-2.1-0.3-0.2-0.6 0.3-0.8 0.5-0.5-0.5-1.1-1.1-0.7-1.7-0.9-0.1-1.8-0.3-2.6-0.9 0-1 0.8-2 2.1-2.5-2.1-2.1-0.2-4-2-5.8 2.6-0.1 2.1 3.5 3.4 4-0.1-2.5-1.5-3-1.5-5.7 0-1.5 0.9-3 0.1-4 2.2 0.6 1.6 5.4 2.9 6.8 0.2-0.8 0.1-1.6-0.2-2.4-0.8-2.2 0.1-5.3-1.1-6.2 2.2 0.2 2.5 3.7 4.3 5-1.6-3.2-3.1-9.9-5.5-13.3-3.7-5.1-6-11.2-9.4-11.2-1.5 0-2.7 0.9-2.7 2.8 0 5.7 9.9 9.7 9.9 15.8 0 2.7-2.2 3.8-3.6 3.8-0.9 0-2.1-0.5-3-1.2-0.4 0.2-0.8 0.3-1.2 0.3-3.5 0-2.6-6.3-5.6-6.2 1.2-0.7 3.3 0.6 4.5 2.4-0.5-4.1-6.4-3-5.9-7.9 0.8 3.8 10.1 3.3 10.1 9.1 0 0.7-0.3 1.2-0.8 1.6 0.7 0.4 1.4 0.6 2 0.6 1.1 0 2.1-0.8 2.1-2.5 0-5.1-9.8-9.5-9.8-15.8 0-1.1 0.3-2 0.8-2.6-0.7-0.3-1.4-0.2-2 0.5-0.1-1.6 2.3-2.6 3.7-1.8 0.3-0.1 0.7-0.2 1-0.2-0.4-1.2-1.9-1.6-2.7-1.5 2.4-1.9 6.6 0.6 6.4 2.7 1.9 1.5 3.1 4.2 4.5 5.9-0.1-0.4-0.2-0.8-0.2-1.2-1.4-2.6-2.7-4.8-3.1-8.2-0.3-2.8-1.7-5.4-3.7-5.4-0.4 0-1.1 0.6-1.5 0.3-0.6-0.5 0-1.1 0-1.6 0-0.8-1.5-1.6-1.5-4.1 0-1.1 0.6-2.4 0.4-3.2 0.6 0.3 1.5 1.4 1.8 2.7 0.7-3.3-1.4-3.1 0.1-6 0.2 1 1.1 1.4 1.7 1s0.3-0.7-0.1-1.1-0.8-2.6 1.1-2.5c-0.4 0.2-0.4 0.8 0.6 1 1.4 0.3 1.8-0.4 3.2-0.4 0.9 0 1.1 1.2 1.9 1.2 0.7 0 0.7-0.6 0.5-1 1.1 0.3 1.4 0.9 1.4 1.6 0 0.6-0.5 1-0.1 1.3 0.4 0.2 1.7 0 1.2-1.1 0.7 0.1 1.1 0.6 1.1 1.5 0 0.8-1 1.3-1.8 1.2-0.2 0.5-0.9 0.8-1.6 0.8-1.6 0-1.4-1.3-2.5-1.3-1.8 0-3.5 2.3-3.5 6.2 0 2.1 2.2 2.6 3.8 3.3s4.3 2.4 6 5.2c1.3 2.2 1.3 4.6 1.2 7.4 2.2-1.3 2.5-3.1 2.5-4.4 0-1.7-0.9-2.4-1.6-2.7-0.6-0.3-0.8-0.2-0.9-0.5-0.1-0.4 0.2-0.7 0.5-0.8 0.8-0.4 0.6-1.2 0.9-2 0.2-0.8 1-2.1 2.2-3.1 0.1 0.5 0.1 1.3 0 2.4 1.7-0.8 0.3-4.3 3.7-4.3-0.6 0.4-0.4 1.2-0.1 1.4s0.8-0.2 1.4-1.1 0.5-0.8 2-0.8c1.6 0 0.9 0.5 1.7 0.5s0.8-1 0.3-1.7c1.4 0.4 1.8 1.5 1.3 2.6 1.2 0.7 1.9-0.3 2.1-1 1.2 1.2 0 2.7-1 2.8 0 0.4-0.4 0.9-0.9 1-0.5 0-1 0.1-1.6 0-0.6 0-0.9-0.9-1.6-0.9-2.1 0-6.2 3.8-6.2 5.4s3.9 2.6 3.9 5.1c0 3.3-3.2 4.4-6 6.5 1 1.1 3.8 1.4 5.4 0.6 0.2 0.9 0.8 0.7 1 2.3 0.6-1.4 0-2.6 0.6-3.2 0.5 0.7 1.6 0.6 1.6 2.3 0.4-1.1-0.5-2.7 0.4-3.5 0.1 0.9 0.7 1.1 1 1.1s0.6-0.2 0.6-0.8c0-1.3-1.6-0.7-1.6-2.2 0-0.6 0.8-0.8 0.8-1.2s-0.6-1-1.4-0.5c0.3-0.6 0.8-1.1 1.5-1.1s1.5 0.6 1.8 1.3c0.4-0.9 0.1-2-0.6-2.1 0.7-0.4 2.4 0 2.2 2.2 1-0.2 1.5-0.8 0.9-2 0.8 0.2 1.5 0.6 1.5 1.4 0 0.6-0.7 0.8-0.4 1.7m-18.6 29.7c-0.9-0.1-0.9 0.8-2.5 1.2 1.1 0.2 2.5 0.8 3.8 1.3 0.3-1.1-0.2-2.4-1.3-2.5m6.4-6.7c-1.2-0.5-2.1 0.5-2.3 1.2s-0.4 1.3-0.1 1.5c0.5 0.5 0.7 0.9 0.4 1.5-0.3 0.7-1.1 0.4-1.9 0.2 0.4 0.7 0.4 1.2-0.1 1.1-0.6-0.1-0.6-1.1-1-0.9-0.3 0.1-0.1 0.7-0.1 1 0 0.4 0.3 0.6 0.7 0.8l3.3 1.3c0.4 0.2 0.7 0.2 1-0.1 0.2-0.2 0.8-0.5 0.6-0.8s-0.9 0.4-1.4 0c-0.4-0.3-0.1-0.6 0.7-0.9-0.7-0.4-1.5-0.7-1.2-1.5 0.2-0.6 0.6-0.8 1.3-0.8 0.4 0 0.6-0.5 1-1.2 0.2-0.7 0.3-1.9-0.9-2.4m0.2 9.3c-0.9-0.7-2.1-0.1-2.6 0.9 1.2 0.5 2.7 1.1 3.6 1.7-0.9-1.4-0.3-2-1-2.6" fill="#fff"/>
</g>
<g transform="translate(95.226,793.16)">
<path d="m-47.7 101c0-1.5 1.2-2.8 2.8-2.8 1.5 0 2.8 1.2 2.8 2.8s-1.2 2.8-2.8 2.8-2.8-1.2-2.8-2.8m0.7 0c0 1.1 0.9 2.1 2.1 2.1 1.1 0 2.1-0.9 2.1-2.1s-1-2-2.2-2c-1.1 0-2 0.9-2 2" fill="#fff"/>
</g>
<g transform="translate(91.694,792.29)">
<path d="m-54.5 99.4c-0.4-0.3-0.6-0.6-0.7-1-0.1-0.5 0.1-1 0.4-1.4s0.8-0.6 1.4-0.7 1.1 0 1.6 0.2c0.5 0.3 0.8 0.7 0.9 1.2 0.2 1-0.6 1.9-1.8 2.1-0.7 0-1.4-0.1-1.8-0.4m1.2-2.5c-0.8 0.1-1.3 0.7-1.2 1.3 0.1 0.3 0.2 0.5 0.4 0.6 0.3 0.2 0.8 0.3 1.2 0.2 0.7-0.1 1.3-0.6 1.3-1.2v-0.1c-0.2-0.6-0.9-1-1.7-0.8" fill="#fff"/>
</g>
<g transform="translate(86.481,805.57)">
<path d="m-64.6 124.9c-0.9-0.7-1.1-1.8-0.6-2.5 0.6-0.7 1.7-0.7 2.6-0.1 0.5 0.4 0.8 0.9 0.8 1.4 0 0.4 0 0.8-0.3 1.1-0.2 0.3-0.6 0.5-1 0.5-0.4 0.2-1 0-1.5-0.4m-0.1-1.6c0 0.4 0.2 0.8 0.6 1.1 0.3 0.2 0.7 0.4 1 0.3 0.2 0 0.4-0.1 0.5-0.3s0.2-0.4 0.1-0.6c0-0.3-0.3-0.7-0.6-0.9-0.5-0.4-1.3-0.4-1.6 0v0.4" fill="#fff"/>
</g>
<g transform="translate(90.583,793.87)">
<path d="m-56.7 102.4c-0.4-0.4-0.7-1-0.7-1.7v-0.1c0-0.6 0.2-1.2 0.6-1.6 0.3-0.3 0.7-0.5 1.1-0.5s0.8 0.2 1.1 0.5c0.4 0.4 0.7 1 0.7 1.7 0 0.6-0.2 1.1-0.5 1.5s-0.8 0.7-1.3 0.7c-0.3 0-0.7-0.2-1-0.5m1.1-3.2c-0.3 0-0.5 0.2-0.6 0.3-0.3 0.3-0.4 0.7-0.4 1.2s0.2 0.9 0.5 1.2c0.1 0.1 0.4 0.3 0.6 0.3 0.6 0 1.1-0.7 1-1.5 0-0.5-0.2-0.9-0.5-1.2-0.1-0.1-0.3-0.3-0.6-0.3" fill="#fff"/>
</g>
<g transform="translate(85.951,801.51)">
<path d="m-65.6 117.1c-0.4-0.1-0.8-0.4-0.9-0.8-0.4-0.9 0.1-2 1.2-2.5 0.6-0.3 1.2-0.3 1.8-0.1 0.4 0.1 0.8 0.4 0.9 0.8 0.2 0.4 0.2 0.8 0 1.2-0.2 0.5-0.6 1-1.2 1.3s-1.3 0.3-1.8 0.1m0.5-2.7c-0.7 0.3-1.1 1.1-0.8 1.6 0.1 0.3 0.4 0.4 0.5 0.4 0.4 0.1 0.8 0.1 1.2-0.1s0.7-0.5 0.9-0.9c0.1-0.2 0.1-0.4 0-0.7s-0.4-0.4-0.5-0.4c-0.4-0.1-0.8-0.1-1.3 0.1" fill="#fff"/>
</g>
<g transform="translate(95.898,802.49)">
<path d="m-46.4 119c0.9-2.5 2.7-3.4 4.1-2.7-3.1 0.4-0.6 5.6-4.5 5.6-0.2 0-0.4 0-0.6-0.1-0.7 0.7-1.4 1-2.6 1-1.7 0-4.5-1.6-4.5-4.9 0-7.1 8.3-7.8 8.3-14.1 0-1.8-1.4-3-3-3-1.4 0-2.5 1.6-3.7 4-0.6 1.2-1.8 2.8-3 4.4 0.4-0.3 0.8-0.4 1.2-0.4s0.9 0.1 1.2 0.4 0.5 0.7 0.5 1.1v0.1c0 0.6-0.2 1.1-0.7 1.6s-1 0.8-1.6 0.8c-0.4 0-0.9-0.1-1.2-0.4s-0.5-0.7-0.5-1.1v-0.1c0-0.2 0-0.5 0.1-0.7-1.8 2.3-3.4 4.6-3.4 5.9 0 1.1 0.8 2.1 1.7 3.2l0.3-0.2 0.2 0.3c0.3 0.4 1 1.1 2.5 2.7l0.1 0.1 0.3 0.4-0.9 0.7c0.2 0.5 0.4 1.1 0.6 1.8 0.3-1.1 0.9-1.9 1.7-1.6-0.5 1.2 0.5 2.8-0.2 5.7 0.7-1.1 1.7-1.7 2.4-1.5-1.8 1.6 0.5 3.9-1.8 7.4 0.8-0.3 1.3-0.1 1.7 0.3-2.2 0.3-1.2 3.1-5 4.1 1 0.2 1.5 0.7 1.4 1.2-1-0.7-1.9 1.4-5.2 1.3-0.2 1.2-1.4 2.6-2.7 3.2 0.2-1 0-1.8-0.2-2.6l-10.8 10.6c-0.3 0.3-0.5 0.4-0.6 0.3s-0.1-0.3 0.1-0.5l9.3-11.7c-0.7-0.2-1.4-0.5-2.1-0.8-0.5-0.2-0.8-0.6-0.8-1.2-1.7-0.9-3.2-1.9-4-2.6-0.6-0.5-1-0.6-0.5-1.8 0.2-0.4-0.4-1.5 0.9-0.7 0.9 0.5 2.9 1.6 3.2 0.9 0.2-0.4-0.8-0.8-1.5-1.1s-1.4-0.8-1.3-1.1 0.6 0 0.7-0.3c0-0.3 0.3-0.6 0.5-0.6 0.3 0 0.6 0.6 0.8 0.4s-0.1-1.5-0.3-1.8c1.1 0.1 1.7 1.1 1.8 1.9 0 0.8 0.2 1 0.4 1.1s0.4-0.8 0.1-1.4c0.6 0.1 1.1 0.9 1.1 2.2 0.3 0.2 0.6 0.4 0.8 0.4 0.4 0 1.1-1 2.1-1 1.8 0 2.9 1.5 3 2.2 0.1 0.6 0 1.1-0.3 1.5 0.7-0.5 0.9-1.4 0.9-2 0-2.6-4.6-3.8-6.5-5.6l-0.2-0.2-2.2 0.8-0.1-0.5s0-0.1-0.1-0.4c-0.2-0.7-0.7-2.3-1-3.2l-0.1-0.4 0.2-0.1c-1.3-1.7-2.3-3.6-2.5-5.6-0.5 0.5-1 1-1.6 1.4 0.1 0.2 0.1 0.4 0.1 0.6 0 0.6-0.1 1.1-0.5 1.5-0.3 0.3-0.6 0.5-1 0.5s-0.7-0.1-1.1-0.4l-0.2-0.2c-0.1 0.1-0.2 0.1-0.2 0.2-0.7 0.6-1.6 1.2-2.1 1.8-0.2 0.3-0.5 0.4-0.9 0.4h-1c-0.3 0-0.5-0.2-0.9-0.6-0.2-0.2-0.7-0.5-1.2-1l0.8-0.8c0.1-0.2 0.3-0.3 0.4-0.5 0.1 0.1 0.3 0.2 0.4 0.3 0.2 0.2 0.5 0.2 0.8 0.2s0.7-0.2 0.9-0.6c0.2-0.3 1.9-2.6 3.4-4.2-0.2-0.1-0.3-0.1-0.5-0.2-0.6-0.3-2-0.2-2.6-0.2-0.6 0.1-0.7 0.2-1.2-0.5-0.2-0.3-0.4-0.6-0.6-0.8-0.2-0.3-0.4-0.5 0.1-1.3 0.6-1.1 2.2-3.9 2.8-5.2 0.5-1.3 1.1-1.5 2.2-1.9 1-0.4 2.7-1.4 2.9-1.6l0.1 1c-0.3 0.3-1.3 0.7-1.6 0.8-0.4 0.1-0.5 0.3 0 0.3 0.4 0 1.6-0.4 2.5-0.8-0.3 1-1.2 2-1.7 2.6-0.7 0.2-1.5 0.2-1.8 0 0-0.2-0.1-0.5-0.4-0.5s-0.5 0.2-0.4 0.5 0.5 0.4 0.4 0.9c-0.1 0.6-0.8 0.6-1.2 0.7-0.6 0.9-1.3 2.2-1.7 2.7-0.3 0.5-0.1 0.8 0.1 1 0.5 0.4 1.6-0.2 3.8-0.4 0.8 0 1.7-0.1 2.7-0.1 0.3-2.6 1.3-5 4.9-5.9 1.7-0.4 3.5-1.7 4.1-3.4-7.1 0.1-8.2-2.6-8.2-5.3 0-3 2.5-2.8 2.5-5 0-1.9-6-2.7-7.8-3-1.5-0.2-2.4-0.6-3.1-1.3s-1.5-1.4-2.8-2.8c0 0 0.6-0.1 1.1-0.1l1 1.3c0.3 0.4 0.5 0.8 0.7 0.8s0.1-0.4-0.2-0.8l-0.8-1.4c3.5-0.2 3.7 1.1 3.7 1.6s-0.9 0.9-0.4 1.2 0.9 0.1 1.3-0.4 0.5-0.9 1.5-0.5c0 0 7.6 3.2 8.6 3.6 0.9 0.4 0.6 0.8 0.1 1.2-0.6 0.5-0.7 1.2-0.7 2 0 2.3 1.4 3 3.9 3 0-0.4-0.1-0.8-0.1-1.1 0-3.6 5.5-7.1 6.9-7.1 0.7 0 1.5 0.5 1.6-1.7 0-1.6 0.4-2.7 0.1-4.6-0.3-1.8-0.8-2.1-1.9-2.9s-2.2-3.2-2.6-3.7c0.5-0.3 1-0.4 1.4 0.8 0.3 1 0.7 1.7 1.2 1.9-0.4-1.1-0.7-2.7-1-3.2 1.4-0.2 3.7 1 3.7 2s-0.8 0.9-0.8 1.6c0 0.3 0.4 0.6 0.8 0.6 0.6 0 1-0.4 1-0.7 0.6 0.3 1 0.9 1 2.4 0 0.6 0 1.1-0.1 1.7 0-0.1 0.1-0.2 0.1-0.2 0.3-0.4 0.7-0.7 1.3-0.7 0.5 0 1.1 0.1 1.5 0.4 0.5 0.4 0.9 0.9 1 1.5v0.4c0 0.3-0.1 0.6-0.3 0.9s-0.6 0.6-1 0.7c-0.6 0.1-1.2 0-1.8-0.4-0.5-0.3-0.9-0.8-1-1.3-0.1 2-0.3 3.8-0.2 4.6 0.1 1.1 0.1 1.6-0.2 1.8-0.4 0.2-0.8-0.5-1.3-0.5s-2.1 1.5-2.1 3c0 1.6 1.7 3.6 1.6 5.7 0 0.7 0.4 1 0.7 0.4 0.3-0.7 0.8-1.7 1.5-2.5-0.4-2.7 2.5-5.3 4.9-3.4-1.2-0.2-2 0.9-2.6 2 0.2 0 0.4-0.1 0.7-0.1h0.4c0.9-1.1 3.6-1 4.3 1.7-0.5-0.6-1.5-1-2.2-0.9 1 0.8 1.6 2.1 1.6 3.5 0 6.8-8.3 7.6-8.3 13.8 0 2.3 2 3.8 3.4 3.8 0.5 0 0.9-0.2 1.3-0.4-0.5-0.5-0.8-1.4-0.8-2.4 0.2-4.9 8.2-4.7 8.3-7 0.7 3.9-5.2 2.8-5.4 7.6m-21.3 18.8c0.4 0.7 0 1.9 1.4 1.9 0.7 0 1.3-0.7 2.1-0.9-1.4-0.2-2.6-0.5-3.5-1m-7.3-15c0-0.4-0.2-0.8-0.4-1-0.1-0.1-0.3-0.2-0.5-0.2-0.5 0-0.8 0.6-0.8 1.2v0.1c0 0.4 0.2 0.8 0.4 1 0.1 0.1 0.3 0.2 0.5 0.2s0.4-0.2 0.5-0.3c0.2-0.3 0.3-0.6 0.3-1m23.6-34.4c0.1 0.4 0.4 0.8 0.7 1 0.4 0.3 0.8 0.4 1.2 0.3 0.2 0 0.4-0.1 0.6-0.4 0.2-0.2 0.1-0.5 0.1-0.7-0.1-0.4-0.4-0.8-0.7-1-0.7-0.4-1.5-0.4-1.8 0.1-0.2 0.3-0.1 0.5-0.1 0.7m-5 22.8c0 0.2 0.1 0.4 0.3 0.6s0.5 0.2 0.6 0.2c0.4 0 0.8-0.2 1.1-0.6 0.3-0.3 0.5-0.8 0.5-1.2 0-0.2-0.1-0.4-0.3-0.6s-0.5-0.2-0.6-0.2c-0.4 0-0.8 0.2-1.1 0.6s-0.5 0.8-0.5 1.2m-13.5 15.4c0.4 1.2 1.1 3.6 1.1 3.6l1.3-0.5c-0.4-0.1-0.8-0.5-1.2-0.9 0.3-0.1 0.8-0.1 1.1 0.1l-0.5-1.3c-0.1 0.2-0.5 0.7-0.8 0.7-0.3-1 0.4-1.4 0.8-1.6 0.8-0.4 1.3-0.5 1.5-0.1s-0.3 1-0.9 0.8c-0.1 0.7 0.3 1 0.7 1 0.3 0 0.6-0.3 0.7-0.7 0 1.1 0.4 1.9 1.4 2.2 0.4-1 0.1-1.7-0.7-2.5 0.4 0.2 0.9 0.1 1.1-0.1 0.2-0.4 0.2-0.9-0.4-1.2-0.1 0.7-0.9 0.7-1.2 0.3-0.2-0.4 0.1-0.9 0.8-1.3 0.8-0.5 1.5-0.2 1.9 0.5-0.3 0.1-0.7 0-1.2-0.2l0.8 1.6c0-0.2 0.2-0.6 0.5-0.9 0.1 0.4 0.3 1 0 1.5l1.8-1c-0.6-0.1-1.1-0.5-1.3-0.8 0.4-0.2 0.8-0.1 1.1 0l-0.9-1.5c0 0.5-0.2 0.9-0.4 1.1-0.4-0.7-0.3-1.4 0.5-1.9 0.7-0.4 1.2-0.5 1.5-0.1s-0.2 1.1-0.8 0.9c0 0.7 0.4 1 0.8 1s0.6-0.4 0.7-0.9c0.3 1.1 0.7 1.7 1.8 1.9 0.2-1-0.3-1.8-1.2-2.3 0.4 0.1 0.8 0.1 1-0.2 0.2-0.4 0.1-0.9-0.5-1.1-0.1 0.7-0.9 0.8-1.1 0.4s0.1-0.8 0.8-1.2c0.4-0.3 1.1-0.6 1.8 0.1-0.2 0.3-0.8 0.4-1.1 0.4l0.8 1.1c0-0.4 0.2-0.8 0.5-1 0.1 0.5 0.2 1.1 0.1 1.5l1.1-0.8s-1.7-1.8-2.5-2.8l-11.3 6.2zm11.2-28.2c-0.5-0.6-1.2-0.9-1.7-0.5s-0.5 1.2-0.1 1.8 1.2 0.9 1.7 0.5 0.5-1.2 0.1-1.8m3.2 5.1c-0.5-0.6-1.2-0.9-1.7-0.5s-0.5 1.2-0.1 1.8c0.5 0.6 1.2 0.9 1.7 0.5 0.5-0.3 0.6-1.1 0.1-1.8" fill="#fff"/>
</g>
</g>
</g>
</g>
</g>
</svg>
