<?xml version="1.0" encoding="UTF-8"?>
<svg version="1.1" viewBox="0 0 250 91" xmlns="http://www.w3.org/2000/svg" xmlns:cc="http://creativecommons.org/ns#" xmlns:dc="http://purl.org/dc/elements/1.1/" xmlns:rdf="http://www.w3.org/1999/02/22-rdf-syntax-ns#">
<metadata>
<rdf:RDF>
<cc:Work rdf:about="">
<dc:format>image/svg+xml</dc:format>
<dc:type rdf:resource="http://purl.org/dc/dcmitype/StillImage"/>
<dc:title/>
</cc:Work>
</rdf:RDF>
</metadata>
<g transform="translate(0,-961.4)">
<g transform="matrix(.31046 0 0 .31046 77.818 966.76)" fill="#fff">
<g transform="matrix(1.6821,0,0,1.6821,319.98,-94.199)">
<path d="m-140.76 184.8v-7.62h2.2q0.91 0 1.53 0.26 0.62 0.25 1 0.75 0.4 0.48 0.56 1.18 0.18 0.69 0.18 1.57 0 0.9-0.19 1.55-0.18 0.63-0.47 1.06-0.29 0.42-0.66 0.67-0.35 0.25-0.73 0.39-0.37 0.12-0.7 0.16-0.33 0-0.55 0h-2.17zm-1.31-8.72v9.82h3.37q1.23 0 2.12-0.34 0.89-0.35 1.47-0.99 0.58-0.66 0.85-1.61 0.28-0.97 0.28-2.2 0-2.37-1.22-3.52-1.23-1.16-3.5-1.16h-3.37z"/>
<path d="m-132.71 176.08v9.82h1.3v-9.82h-1.3z"/>
<path d="m-122.22 184.68 0.34 1.22h0.83v-5.17h-4.31v1.1h3.14q0 0.67-0.18 1.26-0.21 0.58-0.62 1.02-0.4 0.43-0.99 0.68-0.59 0.24-1.36 0.24-0.83 0-1.46-0.31-0.62-0.33-1.04-0.87-0.43-0.55-0.65-1.25-0.22-0.72-0.22-1.49 0-0.78 0.19-1.52 0.19-0.76 0.59-1.34 0.42-0.59 1.05-0.94 0.64-0.36 1.54-0.36 0.55 0 1.03 0.14 0.49 0.12 0.88 0.38 0.38 0.26 0.65 0.67 0.26 0.4 0.35 0.97h1.31q-0.14-0.87-0.52-1.47-0.37-0.62-0.94-1.02-0.55-0.4-1.26-0.58-0.7-0.19-1.5-0.19-1.17 0-2.05 0.44-0.87 0.42-1.46 1.15-0.58 0.73-0.88 1.71-0.29 0.96-0.29 2.03 0 0.97 0.32 1.86t0.92 1.58q0.61 0.69 1.47 1.1 0.87 0.4 1.97 0.4 0.86 0 1.72-0.33 0.85-0.34 1.43-1.11z"/>
<path d="m-119.43 176.08v9.82h1.3v-9.82h-1.3z"/>
<path d="m-114.06 177.18v8.72h1.31v-8.72h3.27v-1.1h-7.85v1.1h3.27z"/>
<path d="m-107.07 181.84 1.66-4.58 1.64 4.58h-3.33zm0.98-5.76-3.83 9.82h1.34l1.1-2.96h4.15l1.07 2.96h1.45l-3.84-9.82h-1.44z"/>
<path d="m-100.22 176.08v9.82h6.508v-1.1h-5.198v-8.72h-1.31z"/>
<path d="m-89.489 176.08v9.82h1.307v-4.5h5.17v4.5h1.306v-9.82h-1.306v4.22h-5.17v-4.22h-1.307z"/>
<path d="m-79.922 176.08v9.82h6.82v-1.1h-5.514v-3.4h5.101v-1.1h-5.101v-3.12h5.473v-1.1h-6.779z"/>
<path d="m-70.195 181.84 1.664-4.58h0.03l1.636 4.58h-3.327zm0.976-5.76-3.822 9.82h1.333l1.1-2.96h4.153l1.072 2.96h1.444l-3.836-9.82h-1.444z"/>
<path d="m-63.34 176.08v9.82h6.503v-1.1h-5.197v-8.72h-1.306z"/>
<path d="m-53.829 177.18v8.72h1.306v-8.72h3.273v-1.1h-7.852v1.1h3.273z"/>
<path d="m-48.531 176.08v9.82h1.306v-4.5h5.17v4.5h1.306v-9.82h-1.306v4.22h-5.17v-4.22h-1.306z"/>
<path d="m-142.07 189.83v9.82h6.82v-1.1h-5.51v-3.4h5.1v-1.1h-5.1v-3.12h5.47v-1.1h-6.78z"/>
<path d="m-134.04 189.83v9.82h1.23v-7.88l5.13 7.88h1.43v-9.82h-1.24v7.96l-5.17-7.96h-1.39z"/>
<path d="m-122.26 190.93v8.72h1.3v-8.72h3.28v-1.1h-7.86v1.1h3.28z"/>
<path d="m-116.96 189.83v9.82h6.82v-1.1h-5.52v-3.4h5.1v-1.1h-5.1v-3.12h5.47v-1.1h-6.77z"/>
<path d="m-108.93 189.83v9.82h1.31v-4.19h3.19q0.48 0 0.77 0.15 0.29 0.13 0.46 0.38 0.18 0.24 0.27 0.57 0.1 0.31 0.13 0.67 0.1 0.36 0.1 0.73t0 0.7q0 0.32 0.1 0.58 0 0.26 0.19 0.41h1.46q-0.21-0.25-0.32-0.56-0.1-0.33-0.15-0.69 0-0.36-0.1-0.73 0-0.37 0-0.73t-0.12-0.69q-0.1-0.33-0.24-0.59-0.15-0.27-0.42-0.47-0.26-0.19-0.69-0.27 0.89-0.25 1.29-0.92 0.41-0.67 0.41-1.57 0-1.19-0.79-1.88t-2.19-0.69h-4.62zm4.03 4.53h-2.72v-3.43h3.24q0.92 0 1.34 0.47 0.41 0.47 0.41 1.21 0 0.54-0.19 0.88-0.18 0.33-0.5 0.54-0.3 0.19-0.71 0.26-0.42 0.1-0.87 0.1z"/>
<path d="m-98.567 194.53v-3.6h2.558q1.114 0 1.622 0.47 0.523 0.45 0.523 1.33t-0.523 1.35q-0.508 0.47-1.622 0.45h-2.558zm-1.306-4.7v9.82h1.306v-4.02h2.998q1.485 0 2.241-0.75 0.77-0.77 0.77-2.15 0-1.37-0.77-2.13-0.756-0.77-2.241-0.77h-4.304z"/>
<path d="m-91.327 189.83v9.82h1.306v-4.19h3.19q0.482 0 0.77 0.15 0.289 0.13 0.468 0.38 0.179 0.24 0.261 0.57 0.08 0.31 0.138 0.67 0.07 0.36 0.08 0.73t0.03 0.7q0.01 0.32 0.06 0.58t0.192 0.41h1.458q-0.207-0.25-0.317-0.56-0.1-0.33-0.151-0.69-0.06-0.36-0.07-0.73t-0.04-0.73q-0.04-0.36-0.124-0.69-0.07-0.33-0.233-0.59-0.152-0.27-0.427-0.47-0.261-0.19-0.687-0.27 0.894-0.25 1.292-0.92 0.413-0.67 0.413-1.57 0-1.19-0.798-1.88-0.783-0.69-2.186-0.69h-4.62zm4.029 4.53h-2.723v-3.43h3.245q0.922 0 1.334 0.47 0.413 0.47 0.413 1.21 0 0.54-0.193 0.88-0.179 0.33-0.495 0.54-0.302 0.19-0.715 0.26-0.412 0.1-0.866 0.1z"/>
<path d="m-82.216 189.83v9.82h1.307v-9.82h-1.307z"/>
<path d="m-73.39 192.71h1.238q-0.03-0.82-0.317-1.39-0.275-0.59-0.77-0.98-0.481-0.38-1.127-0.56t-1.403-0.18q-0.673 0-1.32 0.18-0.632 0.16-1.141 0.52-0.495 0.34-0.797 0.89-0.303 0.54-0.303 1.28 0 0.68 0.261 1.13 0.275 0.44 0.715 0.73 0.454 0.27 1.018 0.45 0.564 0.17 1.141 0.3 0.591 0.13 1.155 0.25 0.564 0.13 1.004 0.33 0.454 0.19 0.715 0.51 0.275 0.32 0.275 0.83 0 0.53-0.22 0.88-0.22 0.34-0.578 0.55-0.357 0.19-0.811 0.27-0.44 0.1-0.88 0.1-0.55 0-1.072-0.13-0.523-0.14-0.922-0.43-0.385-0.29-0.632-0.73-0.234-0.45-0.234-1.07h-1.237q0 0.89 0.316 1.55 0.33 0.65 0.88 1.07 0.564 0.42 1.292 0.62 0.743 0.21 1.568 0.21 0.674 0 1.347-0.17 0.688-0.15 1.238-0.49 0.55-0.36 0.894-0.91 0.357-0.56 0.357-1.35 0-0.72-0.275-1.21-0.261-0.48-0.715-0.79-0.44-0.32-1.004-0.5-0.563-0.19-1.155-0.33-0.577-0.14-1.141-0.25-0.564-0.12-1.017-0.3-0.44-0.18-0.715-0.45-0.262-0.29-0.262-0.74 0-0.49 0.179-0.8 0.193-0.33 0.495-0.52 0.316-0.2 0.715-0.28 0.399-0.1 0.811-0.1 1.018 0 1.664 0.48 0.66 0.47 0.77 1.53z"/>
<path d="m-70.523 189.83v9.82h6.82v-1.1h-5.513v-3.4h5.101v-1.1h-5.101v-3.12h5.472v-1.1h-6.779z"/>
<path d="m-59.813 198.55v1.1h7.81v-1.1h-6.257l6.092-7.62v-1.1h-7.178v1.1h5.638l-6.105 7.62z"/>
<path d="m-50.251 194.74q0-0.74 0.192-1.46 0.193-0.73 0.605-1.3 0.413-0.58 1.059-0.92 0.646-0.36 1.54-0.36t1.54 0.36q0.646 0.34 1.059 0.92 0.412 0.57 0.605 1.3 0.192 0.72 0.192 1.46t-0.192 1.47q-0.193 0.72-0.605 1.29-0.413 0.58-1.059 0.94-0.646 0.34-1.54 0.34t-1.54-0.34q-0.646-0.36-1.059-0.94-0.412-0.57-0.605-1.29-0.192-0.73-0.192-1.47zm-1.307 0q0 1 0.289 1.94 0.303 0.92 0.894 1.64 0.591 0.71 1.471 1.14 0.88 0.41 2.049 0.41t2.049-0.41q0.88-0.43 1.471-1.14 0.591-0.72 0.88-1.64 0.302-0.94 0.302-1.94t-0.302-1.92q-0.289-0.94-0.88-1.65-0.591-0.72-1.471-1.15-0.88-0.42-2.049-0.42t-2.049 0.42q-0.88 0.43-1.471 1.15-0.591 0.71-0.894 1.65-0.289 0.92-0.289 1.92z"/>
<path d="m-40.972 189.83v9.82h1.238v-7.88h0.03l5.129 7.88h1.43v-9.82h-1.237v7.96h-0.03l-5.17-7.96h-1.389z"/>
<path d="m-31.418 189.83v9.82h6.82v-1.1h-5.514v-3.4h5.101v-1.1h-5.101v-3.12h5.473v-1.1h-6.779z"/>
</g>
<g transform="matrix(1.6821,0,0,1.6821,319.98,-94.199)" fill-rule="evenodd">
<path d="m-118.44 117.98c-3.79 0-5.56 2.52-5.56 2.52v15.66s-2.26-4.04-9.85-4.04c-10.35 0-15.4 8.84-15.4 17.42 0 8.59 6.06 16.67 18.94 16.67 15.41 0 16.67-14.14 16.67-14.14v-31.57s-1.01-2.52-4.8-2.52zm-13.51 23.98a7.4499 7.4499 0 0 1 7.45 7.45 7.4499 7.4499 0 0 1-7.45 7.45 7.4499 7.4499 0 0 1-7.45-7.45 7.4499 7.4499 0 0 1 7.45-7.45z"/>
<path d="m-101.01 135.91v-15.66s-1.77-2.52-5.56-2.52-4.8 2.52-4.8 2.52v44.95l9.73 0.1v-16.42s-0.7-7.31 6.158-7.26c6.858 0.1 5.902 7.39 5.902 7.39l-0.216 16.41 10.232 0.1s-0.01-7.81-0.01-16.4c0-8.58-1.259-17.17-11.609-17.17-7.58 0-9.857 4.04-9.857 4.04z"/>
<path d="m-59.99 132.05c-0.386 0-0.76 0-1.123 0.1-5.809 0.51-15.659 4.3-16.164 15.91-0.505 11.62 7.435 16.41 13.384 17.68s16.416-2.27 16.416-2.27l-2.527-7.33s-6.059 2.78-10.857 2.02c-4.798-0.75-6.063-4.54-6.063-4.54l13.639-1.52s8.081-0.25 7.576-9.09c-0.473-8.29-8.495-11.02-14.281-10.92zm-0.1 7.85c4.841 0.11 5.285 4.33 5.285 4.33-2.059 2.75-12.879 2.78-12.879 2.78s0.759-6.56 6.567-7.07h1.027z"/>
<path d="m-44.194 132.87v6.82s-0.253 0 0.505 1.01 2.525 0.76 2.525 0.76h14.9l-18.057 15.91 0.127 8.08h30.809v-7.96h-18.435l18.056-17.55 1e-3 -3.79s-0.126-1.39-1.642-2.4c-1.515-1.01-2.541-0.82-2.541-0.82z"/>
</g>
<path d="m31.447 16.562 25.869 20 35.181-19.398z" fill-rule="evenodd" opacity=".504"/>
<path d="m57.56 36.387-51.075 18.022 25.105 57.141z" fill-rule="evenodd" opacity=".206"/>
<path d="m57.56 36.387 29.134 29.138-55.528 45.775z" fill-rule="evenodd" opacity=".092"/>
<path d="m89.402 111.48-3.011-45.656 28.829-9.011z" fill-rule="evenodd" opacity=".408"/>
<path d="m56.954 35.787 58.316 21.063-28.667 9.223z" fill-rule="evenodd" opacity=".333"/>
<path d="m57.565 36.517-25.909-19.753-25.07 37.595z" fill-rule="evenodd" opacity=".092"/>
<path d="m86.442 65.19 2.977 45.87h-58.201z" fill-rule="evenodd" opacity=".326"/>
<path d="m57.56 36.303 34.836-19.539 22.944 40.141z" fill-rule="evenodd" opacity=".401"/>
</g>
</g>
</svg>
