<?xml version="1.0" encoding="UTF-8" standalone="no"?>
<!-- Created with Inkscape (http://www.inkscape.org/) -->

<svg xmlns:dc="http://purl.org/dc/elements/1.1/" xmlns:cc="http://creativecommons.org/ns#" xmlns:rdf="http://www.w3.org/1999/02/22-rdf-syntax-ns#" xmlns:svg="http://www.w3.org/2000/svg" xmlns="http://www.w3.org/2000/svg" xmlns:sodipodi="http://sodipodi.sourceforge.net/DTD/sodipodi-0.dtd" xmlns:inkscape="http://www.inkscape.org/namespaces/inkscape" width="250" height="91" viewBox="0 0 250 91" id="svg2" version="1.1" inkscape:version="0.91 r13725" sodipodi:docname="dhez.svg">
  <defs id="defs4" />
  <sodipodi:namedview id="base" pagecolor="#ffffff" bordercolor="#666666" borderopacity="1.0" inkscape:pageopacity="0.0" inkscape:pageshadow="2" inkscape:zoom="1.4" inkscape:cx="104.4" inkscape:cy="31.537" inkscape:document-units="px" inkscape:current-layer="layer1" showgrid="false" inkscape:window-width="1280" inkscape:window-height="752" inkscape:window-x="0" inkscape:window-y="0" inkscape:window-maximized="1" units="px" />
  <metadata id="metadata7">
    <rdf:RDF>
      <cc:Work rdf:about="">
        <dc:format>image/svg+xml</dc:format>
        <dc:type rdf:resource="http://purl.org/dc/dcmitype/StillImage" />
        <dc:title />
      </cc:Work>
    </rdf:RDF>
  </metadata>
  <g inkscape:label="Layer 1" inkscape:groupmode="layer" id="layer1" transform="translate(0,-961.4)">
    <rect style="opacity:0.001;fill:#000000;fill-opacity:1;stroke:none;stroke-width:2.5;stroke-linecap:round;stroke-linejoin:round;stroke-miterlimit:4;stroke-dasharray:none;stroke-dashoffset:0;stroke-opacity:1" id="rect4175" width="250" height="91" x="0" y="961.4" />
    <g id="g4174" transform="matrix(0.31046,0,0,0.31046,77.818,966.76)" style="fill:#ffffff;fill-opacity:1">
      <g transform="matrix(1.6821,0,0,1.6821,319.98,-94.199)" id="g4325" style="fill:#ffffff;fill-opacity:1">
        <path inkscape:connector-curvature="0" id="path4244" style="font-style:normal;font-variant:normal;font-weight:normal;font-stretch:normal;font-size:13.75px;line-height:100%;font-family:'Helvetica Neue';-inkscape-font-specification:'Helvetica Neue';text-align:start;letter-spacing:-0.37px;word-spacing:0px;writing-mode:lr-tb;text-anchor:start;fill:#ffffff;fill-opacity:1;stroke:none;stroke-width:1px;stroke-linecap:butt;stroke-linejoin:miter;stroke-opacity:1" d="m -140.76,184.8 0,-7.62 2.2,0 q 0.91,0 1.53,0.26 0.62,0.25 1,0.75 0.4,0.48 0.56,1.18 0.18,0.69 0.18,1.57 0,0.9 -0.19,1.55 -0.18,0.63 -0.47,1.06 -0.29,0.42 -0.66,0.67 -0.35,0.25 -0.73,0.39 -0.37,0.12 -0.7,0.16 -0.33,0 -0.55,0 l -2.17,0 z m -1.31,-8.72 0,9.82 3.37,0 q 1.23,0 2.12,-0.34 0.89,-0.35 1.47,-0.99 0.58,-0.66 0.85,-1.61 0.28,-0.97 0.28,-2.2 0,-2.37 -1.22,-3.52 -1.23,-1.16 -3.5,-1.16 l -3.37,0 z" />
        <path inkscape:connector-curvature="0" id="path4246" style="font-style:normal;font-variant:normal;font-weight:normal;font-stretch:normal;font-size:13.75px;line-height:100%;font-family:'Helvetica Neue';-inkscape-font-specification:'Helvetica Neue';text-align:start;letter-spacing:-0.37px;word-spacing:0px;writing-mode:lr-tb;text-anchor:start;fill:#ffffff;fill-opacity:1;stroke:none;stroke-width:1px;stroke-linecap:butt;stroke-linejoin:miter;stroke-opacity:1" d="m -132.71,176.08 0,9.82 1.3,0 0,-9.82 -1.3,0 z" />
        <path inkscape:connector-curvature="0" id="path4248" style="font-style:normal;font-variant:normal;font-weight:normal;font-stretch:normal;font-size:13.75px;line-height:100%;font-family:'Helvetica Neue';-inkscape-font-specification:'Helvetica Neue';text-align:start;letter-spacing:-0.37px;word-spacing:0px;writing-mode:lr-tb;text-anchor:start;fill:#ffffff;fill-opacity:1;stroke:none;stroke-width:1px;stroke-linecap:butt;stroke-linejoin:miter;stroke-opacity:1" d="m -122.22,184.68 0.34,1.22 0.83,0 0,-5.17 -4.31,0 0,1.1 3.14,0 q 0,0.67 -0.18,1.26 -0.21,0.58 -0.62,1.02 -0.4,0.43 -0.99,0.68 -0.59,0.24 -1.36,0.24 -0.83,0 -1.46,-0.31 -0.62,-0.33 -1.04,-0.87 -0.43,-0.55 -0.65,-1.25 -0.22,-0.72 -0.22,-1.49 0,-0.78 0.19,-1.52 0.19,-0.76 0.59,-1.34 0.42,-0.59 1.05,-0.94 0.64,-0.36 1.54,-0.36 0.55,0 1.03,0.14 0.49,0.12 0.88,0.38 0.38,0.26 0.65,0.67 0.26,0.4 0.35,0.97 l 1.31,0 q -0.14,-0.87 -0.52,-1.47 -0.37,-0.62 -0.94,-1.02 -0.55,-0.4 -1.26,-0.58 -0.7,-0.19 -1.5,-0.19 -1.17,0 -2.05,0.44 -0.87,0.42 -1.46,1.15 -0.58,0.73 -0.88,1.71 -0.29,0.96 -0.29,2.03 0,0.97 0.32,1.86 0.32,0.89 0.92,1.58 0.61,0.69 1.47,1.1 0.87,0.4 1.97,0.4 0.86,0 1.72,-0.33 0.85,-0.34 1.43,-1.11 z" />
        <path inkscape:connector-curvature="0" id="path4250" style="font-style:normal;font-variant:normal;font-weight:normal;font-stretch:normal;font-size:13.75px;line-height:100%;font-family:'Helvetica Neue';-inkscape-font-specification:'Helvetica Neue';text-align:start;letter-spacing:-0.37px;word-spacing:0px;writing-mode:lr-tb;text-anchor:start;fill:#ffffff;fill-opacity:1;stroke:none;stroke-width:1px;stroke-linecap:butt;stroke-linejoin:miter;stroke-opacity:1" d="m -119.43,176.08 0,9.82 1.3,0 0,-9.82 -1.3,0 z" />
        <path inkscape:connector-curvature="0" id="path4252" style="font-style:normal;font-variant:normal;font-weight:normal;font-stretch:normal;font-size:13.75px;line-height:100%;font-family:'Helvetica Neue';-inkscape-font-specification:'Helvetica Neue';text-align:start;letter-spacing:-0.37px;word-spacing:0px;writing-mode:lr-tb;text-anchor:start;fill:#ffffff;fill-opacity:1;stroke:none;stroke-width:1px;stroke-linecap:butt;stroke-linejoin:miter;stroke-opacity:1" d="m -114.06,177.18 0,8.72 1.31,0 0,-8.72 3.27,0 0,-1.1 -7.85,0 0,1.1 3.27,0 z" />
        <path inkscape:connector-curvature="0" id="path4254" style="font-style:normal;font-variant:normal;font-weight:normal;font-stretch:normal;font-size:13.75px;line-height:100%;font-family:'Helvetica Neue';-inkscape-font-specification:'Helvetica Neue';text-align:start;letter-spacing:-0.37px;word-spacing:0px;writing-mode:lr-tb;text-anchor:start;fill:#ffffff;fill-opacity:1;stroke:none;stroke-width:1px;stroke-linecap:butt;stroke-linejoin:miter;stroke-opacity:1" d="m -107.07,181.84 1.66,-4.58 0,0 1.64,4.58 -3.33,0 z m 0.98,-5.76 -3.83,9.82 1.34,0 1.1,-2.96 4.15,0 1.07,2.96 1.45,0 -3.84,-9.82 -1.44,0 z" />
        <path inkscape:connector-curvature="0" id="path4256" style="font-style:normal;font-variant:normal;font-weight:normal;font-stretch:normal;font-size:13.75px;line-height:100%;font-family:'Helvetica Neue';-inkscape-font-specification:'Helvetica Neue';text-align:start;letter-spacing:-0.37px;word-spacing:0px;writing-mode:lr-tb;text-anchor:start;fill:#ffffff;fill-opacity:1;stroke:none;stroke-width:1px;stroke-linecap:butt;stroke-linejoin:miter;stroke-opacity:1" d="m -100.22,176.08 0,9.82 6.508,0 0,-1.1 -5.198,0 0,-8.72 -1.31,0 z" />
        <path inkscape:connector-curvature="0" id="path4258" style="font-style:normal;font-variant:normal;font-weight:normal;font-stretch:normal;font-size:13.75px;line-height:100%;font-family:'Helvetica Neue';-inkscape-font-specification:'Helvetica Neue';text-align:start;letter-spacing:-0.37px;word-spacing:0px;writing-mode:lr-tb;text-anchor:start;fill:#ffffff;fill-opacity:1;stroke:none;stroke-width:1px;stroke-linecap:butt;stroke-linejoin:miter;stroke-opacity:1" d="m -89.489,176.08 0,9.82 1.307,0 0,-4.5 5.17,0 0,4.5 1.306,0 0,-9.82 -1.306,0 0,4.22 -5.17,0 0,-4.22 -1.307,0 z" />
        <path inkscape:connector-curvature="0" id="path4260" style="font-style:normal;font-variant:normal;font-weight:normal;font-stretch:normal;font-size:13.75px;line-height:100%;font-family:'Helvetica Neue';-inkscape-font-specification:'Helvetica Neue';text-align:start;letter-spacing:-0.37px;word-spacing:0px;writing-mode:lr-tb;text-anchor:start;fill:#ffffff;fill-opacity:1;stroke:none;stroke-width:1px;stroke-linecap:butt;stroke-linejoin:miter;stroke-opacity:1" d="m -79.922,176.08 0,9.82 6.82,0 0,-1.1 -5.514,0 0,-3.4 5.101,0 0,-1.1 -5.101,0 0,-3.12 5.473,0 0,-1.1 -6.779,0 z" />
        <path inkscape:connector-curvature="0" id="path4262" style="font-style:normal;font-variant:normal;font-weight:normal;font-stretch:normal;font-size:13.75px;line-height:100%;font-family:'Helvetica Neue';-inkscape-font-specification:'Helvetica Neue';text-align:start;letter-spacing:-0.37px;word-spacing:0px;writing-mode:lr-tb;text-anchor:start;fill:#ffffff;fill-opacity:1;stroke:none;stroke-width:1px;stroke-linecap:butt;stroke-linejoin:miter;stroke-opacity:1" d="m -70.195,181.84 1.664,-4.58 0.03,0 1.636,4.58 -3.327,0 z m 0.976,-5.76 -3.822,9.82 1.333,0 1.1,-2.96 4.153,0 1.072,2.96 1.444,0 -3.836,-9.82 -1.444,0 z" />
        <path inkscape:connector-curvature="0" id="path4264" style="font-style:normal;font-variant:normal;font-weight:normal;font-stretch:normal;font-size:13.75px;line-height:100%;font-family:'Helvetica Neue';-inkscape-font-specification:'Helvetica Neue';text-align:start;letter-spacing:-0.37px;word-spacing:0px;writing-mode:lr-tb;text-anchor:start;fill:#ffffff;fill-opacity:1;stroke:none;stroke-width:1px;stroke-linecap:butt;stroke-linejoin:miter;stroke-opacity:1" d="m -63.34,176.08 0,9.82 6.503,0 0,-1.1 -5.197,0 0,-8.72 -1.306,0 z" />
        <path inkscape:connector-curvature="0" id="path4266" style="font-style:normal;font-variant:normal;font-weight:normal;font-stretch:normal;font-size:13.75px;line-height:100%;font-family:'Helvetica Neue';-inkscape-font-specification:'Helvetica Neue';text-align:start;letter-spacing:-0.37px;word-spacing:0px;writing-mode:lr-tb;text-anchor:start;fill:#ffffff;fill-opacity:1;stroke:none;stroke-width:1px;stroke-linecap:butt;stroke-linejoin:miter;stroke-opacity:1" d="m -53.829,177.18 0,8.72 1.306,0 0,-8.72 3.273,0 0,-1.1 -7.852,0 0,1.1 3.273,0 z" />
        <path inkscape:connector-curvature="0" id="path4268" style="font-style:normal;font-variant:normal;font-weight:normal;font-stretch:normal;font-size:13.75px;line-height:100%;font-family:'Helvetica Neue';-inkscape-font-specification:'Helvetica Neue';text-align:start;letter-spacing:-0.37px;word-spacing:0px;writing-mode:lr-tb;text-anchor:start;fill:#ffffff;fill-opacity:1;stroke:none;stroke-width:1px;stroke-linecap:butt;stroke-linejoin:miter;stroke-opacity:1" d="m -48.531,176.08 0,9.82 1.306,0 0,-4.5 5.17,0 0,4.5 1.306,0 0,-9.82 -1.306,0 0,4.22 -5.17,0 0,-4.22 -1.306,0 z" />
        <path inkscape:connector-curvature="0" id="path4270" style="font-style:normal;font-variant:normal;font-weight:normal;font-stretch:normal;font-size:13.75px;line-height:100%;font-family:'Helvetica Neue';-inkscape-font-specification:'Helvetica Neue';text-align:start;letter-spacing:-0.37px;word-spacing:0px;writing-mode:lr-tb;text-anchor:start;fill:#ffffff;fill-opacity:1;stroke:none;stroke-width:1px;stroke-linecap:butt;stroke-linejoin:miter;stroke-opacity:1" d="m -142.07,189.83 0,9.82 6.82,0 0,-1.1 -5.51,0 0,-3.4 5.1,0 0,-1.1 -5.1,0 0,-3.12 5.47,0 0,-1.1 -6.78,0 z" />
        <path inkscape:connector-curvature="0" id="path4272" style="font-style:normal;font-variant:normal;font-weight:normal;font-stretch:normal;font-size:13.75px;line-height:100%;font-family:'Helvetica Neue';-inkscape-font-specification:'Helvetica Neue';text-align:start;letter-spacing:-0.37px;word-spacing:0px;writing-mode:lr-tb;text-anchor:start;fill:#ffffff;fill-opacity:1;stroke:none;stroke-width:1px;stroke-linecap:butt;stroke-linejoin:miter;stroke-opacity:1" d="m -134.04,189.83 0,9.82 1.23,0 0,-7.88 0,0 5.13,7.88 1.43,0 0,-9.82 -1.24,0 0,7.96 0,0 -5.17,-7.96 -1.39,0 z" />
        <path inkscape:connector-curvature="0" id="path4274" style="font-style:normal;font-variant:normal;font-weight:normal;font-stretch:normal;font-size:13.75px;line-height:100%;font-family:'Helvetica Neue';-inkscape-font-specification:'Helvetica Neue';text-align:start;letter-spacing:-0.37px;word-spacing:0px;writing-mode:lr-tb;text-anchor:start;fill:#ffffff;fill-opacity:1;stroke:none;stroke-width:1px;stroke-linecap:butt;stroke-linejoin:miter;stroke-opacity:1" d="m -122.26,190.93 0,8.72 1.3,0 0,-8.72 3.28,0 0,-1.1 -7.86,0 0,1.1 3.28,0 z" />
        <path inkscape:connector-curvature="0" id="path4276" style="font-style:normal;font-variant:normal;font-weight:normal;font-stretch:normal;font-size:13.75px;line-height:100%;font-family:'Helvetica Neue';-inkscape-font-specification:'Helvetica Neue';text-align:start;letter-spacing:-0.37px;word-spacing:0px;writing-mode:lr-tb;text-anchor:start;fill:#ffffff;fill-opacity:1;stroke:none;stroke-width:1px;stroke-linecap:butt;stroke-linejoin:miter;stroke-opacity:1" d="m -116.96,189.83 0,9.82 6.82,0 0,-1.1 -5.52,0 0,-3.4 5.1,0 0,-1.1 -5.1,0 0,-3.12 5.47,0 0,-1.1 -6.77,0 z" />
        <path inkscape:connector-curvature="0" id="path4278" style="font-style:normal;font-variant:normal;font-weight:normal;font-stretch:normal;font-size:13.75px;line-height:100%;font-family:'Helvetica Neue';-inkscape-font-specification:'Helvetica Neue';text-align:start;letter-spacing:-0.37px;word-spacing:0px;writing-mode:lr-tb;text-anchor:start;fill:#ffffff;fill-opacity:1;stroke:none;stroke-width:1px;stroke-linecap:butt;stroke-linejoin:miter;stroke-opacity:1" d="m -108.93,189.83 0,9.82 1.31,0 0,-4.19 3.19,0 q 0.48,0 0.77,0.15 0.29,0.13 0.46,0.38 0.18,0.24 0.27,0.57 0.1,0.31 0.13,0.67 0.1,0.36 0.1,0.73 0,0.37 0,0.7 0,0.32 0.1,0.58 0,0.26 0.19,0.41 l 1.46,0 q -0.21,-0.25 -0.32,-0.56 -0.1,-0.33 -0.15,-0.69 0,-0.36 -0.1,-0.73 0,-0.37 0,-0.73 0,-0.36 -0.12,-0.69 -0.1,-0.33 -0.24,-0.59 -0.15,-0.27 -0.42,-0.47 -0.26,-0.19 -0.69,-0.27 l 0,0 q 0.89,-0.25 1.29,-0.92 0.41,-0.67 0.41,-1.57 0,-1.19 -0.79,-1.88 -0.79,-0.69 -2.19,-0.69 l -4.62,0 z m 4.03,4.53 -2.72,0 0,-3.43 3.24,0 q 0.92,0 1.34,0.47 0.41,0.47 0.41,1.21 0,0.54 -0.19,0.88 -0.18,0.33 -0.5,0.54 -0.3,0.19 -0.71,0.26 -0.42,0.1 -0.87,0.1 z" />
        <path inkscape:connector-curvature="0" id="path4280" style="font-style:normal;font-variant:normal;font-weight:normal;font-stretch:normal;font-size:13.75px;line-height:100%;font-family:'Helvetica Neue';-inkscape-font-specification:'Helvetica Neue';text-align:start;letter-spacing:-0.37px;word-spacing:0px;writing-mode:lr-tb;text-anchor:start;fill:#ffffff;fill-opacity:1;stroke:none;stroke-width:1px;stroke-linecap:butt;stroke-linejoin:miter;stroke-opacity:1" d="m -98.567,194.53 0,-3.6 2.558,0 q 1.114,0 1.622,0.47 0.523,0.45 0.523,1.33 0,0.88 -0.523,1.35 -0.508,0.47 -1.622,0.45 l -2.558,0 z m -1.306,-4.7 0,9.82 1.306,0 0,-4.02 2.998,0 q 1.485,0 2.241,-0.75 0.77,-0.77 0.77,-2.15 0,-1.37 -0.77,-2.13 -0.756,-0.77 -2.241,-0.77 l -4.304,0 z" />
        <path inkscape:connector-curvature="0" id="path4282" style="font-style:normal;font-variant:normal;font-weight:normal;font-stretch:normal;font-size:13.75px;line-height:100%;font-family:'Helvetica Neue';-inkscape-font-specification:'Helvetica Neue';text-align:start;letter-spacing:-0.37px;word-spacing:0px;writing-mode:lr-tb;text-anchor:start;fill:#ffffff;fill-opacity:1;stroke:none;stroke-width:1px;stroke-linecap:butt;stroke-linejoin:miter;stroke-opacity:1" d="m -91.327,189.83 0,9.82 1.306,0 0,-4.19 3.19,0 q 0.482,0 0.77,0.15 0.289,0.13 0.468,0.38 0.179,0.24 0.261,0.57 0.08,0.31 0.138,0.67 0.07,0.36 0.08,0.73 0.01,0.37 0.03,0.7 0.01,0.32 0.06,0.58 0.05,0.26 0.192,0.41 l 1.458,0 q -0.207,-0.25 -0.317,-0.56 -0.1,-0.33 -0.151,-0.69 -0.06,-0.36 -0.07,-0.73 -0.01,-0.37 -0.04,-0.73 -0.04,-0.36 -0.124,-0.69 -0.07,-0.33 -0.233,-0.59 -0.152,-0.27 -0.427,-0.47 -0.261,-0.19 -0.687,-0.27 l 0,0 q 0.894,-0.25 1.292,-0.92 0.413,-0.67 0.413,-1.57 0,-1.19 -0.798,-1.88 -0.783,-0.69 -2.186,-0.69 l -4.62,0 z m 4.029,4.53 -2.723,0 0,-3.43 3.245,0 q 0.922,0 1.334,0.47 0.413,0.47 0.413,1.21 0,0.54 -0.193,0.88 -0.179,0.33 -0.495,0.54 -0.302,0.19 -0.715,0.26 -0.412,0.1 -0.866,0.1 z" />
        <path inkscape:connector-curvature="0" id="path4284" style="font-style:normal;font-variant:normal;font-weight:normal;font-stretch:normal;font-size:13.75px;line-height:100%;font-family:'Helvetica Neue';-inkscape-font-specification:'Helvetica Neue';text-align:start;letter-spacing:-0.37px;word-spacing:0px;writing-mode:lr-tb;text-anchor:start;fill:#ffffff;fill-opacity:1;stroke:none;stroke-width:1px;stroke-linecap:butt;stroke-linejoin:miter;stroke-opacity:1" d="m -82.216,189.83 0,9.82 1.307,0 0,-9.82 -1.307,0 z" />
        <path inkscape:connector-curvature="0" id="path4286" style="font-style:normal;font-variant:normal;font-weight:normal;font-stretch:normal;font-size:13.75px;line-height:100%;font-family:'Helvetica Neue';-inkscape-font-specification:'Helvetica Neue';text-align:start;letter-spacing:-0.37px;word-spacing:0px;writing-mode:lr-tb;text-anchor:start;fill:#ffffff;fill-opacity:1;stroke:none;stroke-width:1px;stroke-linecap:butt;stroke-linejoin:miter;stroke-opacity:1" d="m -73.39,192.71 1.238,0 q -0.03,-0.82 -0.317,-1.39 -0.275,-0.59 -0.77,-0.98 -0.481,-0.38 -1.127,-0.56 -0.646,-0.18 -1.403,-0.18 -0.673,0 -1.32,0.18 -0.632,0.16 -1.141,0.52 -0.495,0.34 -0.797,0.89 -0.303,0.54 -0.303,1.28 0,0.68 0.261,1.13 0.275,0.44 0.715,0.73 0.454,0.27 1.018,0.45 0.564,0.17 1.141,0.3 0.591,0.13 1.155,0.25 0.564,0.13 1.004,0.33 0.454,0.19 0.715,0.51 0.275,0.32 0.275,0.83 0,0.53 -0.22,0.88 -0.22,0.34 -0.578,0.55 -0.357,0.19 -0.811,0.27 -0.44,0.1 -0.88,0.1 -0.55,0 -1.072,-0.13 -0.523,-0.14 -0.922,-0.43 -0.385,-0.29 -0.632,-0.73 -0.234,-0.45 -0.234,-1.07 l -1.237,0 q 0,0.89 0.316,1.55 0.33,0.65 0.88,1.07 0.564,0.42 1.292,0.62 0.743,0.21 1.568,0.21 0.674,0 1.347,-0.17 0.688,-0.15 1.238,-0.49 0.55,-0.36 0.894,-0.91 0.357,-0.56 0.357,-1.35 0,-0.72 -0.275,-1.21 -0.261,-0.48 -0.715,-0.79 -0.44,-0.32 -1.004,-0.5 -0.563,-0.19 -1.155,-0.33 -0.577,-0.14 -1.141,-0.25 -0.564,-0.12 -1.017,-0.3 -0.44,-0.18 -0.715,-0.45 -0.262,-0.29 -0.262,-0.74 0,-0.49 0.179,-0.8 0.193,-0.33 0.495,-0.52 0.316,-0.2 0.715,-0.28 0.399,-0.1 0.811,-0.1 1.018,0 1.664,0.48 0.66,0.47 0.77,1.53 z" />
        <path inkscape:connector-curvature="0" id="path4288" style="font-style:normal;font-variant:normal;font-weight:normal;font-stretch:normal;font-size:13.75px;line-height:100%;font-family:'Helvetica Neue';-inkscape-font-specification:'Helvetica Neue';text-align:start;letter-spacing:-0.37px;word-spacing:0px;writing-mode:lr-tb;text-anchor:start;fill:#ffffff;fill-opacity:1;stroke:none;stroke-width:1px;stroke-linecap:butt;stroke-linejoin:miter;stroke-opacity:1" d="m -70.523,189.83 0,9.82 6.82,0 0,-1.1 -5.513,0 0,-3.4 5.101,0 0,-1.1 -5.101,0 0,-3.12 5.472,0 0,-1.1 -6.779,0 z" />
        <path inkscape:connector-curvature="0" id="path4290" style="font-style:normal;font-variant:normal;font-weight:normal;font-stretch:normal;font-size:13.75px;line-height:100%;font-family:'Helvetica Neue';-inkscape-font-specification:'Helvetica Neue';text-align:start;letter-spacing:-0.37px;word-spacing:0px;writing-mode:lr-tb;text-anchor:start;fill:#ffffff;fill-opacity:1;stroke:none;stroke-width:1px;stroke-linecap:butt;stroke-linejoin:miter;stroke-opacity:1" d="m -59.813,198.55 0,1.1 7.81,0 0,-1.1 -6.257,0 6.092,-7.62 0,-1.1 -7.178,0 0,1.1 5.638,0 -6.105,7.62 z" />
        <path inkscape:connector-curvature="0" id="path4292" style="font-style:normal;font-variant:normal;font-weight:normal;font-stretch:normal;font-size:13.75px;line-height:100%;font-family:'Helvetica Neue';-inkscape-font-specification:'Helvetica Neue';text-align:start;letter-spacing:-0.37px;word-spacing:0px;writing-mode:lr-tb;text-anchor:start;fill:#ffffff;fill-opacity:1;stroke:none;stroke-width:1px;stroke-linecap:butt;stroke-linejoin:miter;stroke-opacity:1" d="m -50.251,194.74 q 0,-0.74 0.192,-1.46 0.193,-0.73 0.605,-1.3 0.413,-0.58 1.059,-0.92 0.646,-0.36 1.54,-0.36 0.894,0 1.54,0.36 0.646,0.34 1.059,0.92 0.412,0.57 0.605,1.3 0.192,0.72 0.192,1.46 0,0.74 -0.192,1.47 -0.193,0.72 -0.605,1.29 -0.413,0.58 -1.059,0.94 -0.646,0.34 -1.54,0.34 -0.894,0 -1.54,-0.34 -0.646,-0.36 -1.059,-0.94 -0.412,-0.57 -0.605,-1.29 -0.192,-0.73 -0.192,-1.47 z m -1.307,0 q 0,1 0.289,1.94 0.303,0.92 0.894,1.64 0.591,0.71 1.471,1.14 0.88,0.41 2.049,0.41 1.169,0 2.049,-0.41 0.88,-0.43 1.471,-1.14 0.591,-0.72 0.88,-1.64 0.302,-0.94 0.302,-1.94 0,-1 -0.302,-1.92 -0.289,-0.94 -0.88,-1.65 -0.591,-0.72 -1.471,-1.15 -0.88,-0.42 -2.049,-0.42 -1.169,0 -2.049,0.42 -0.88,0.43 -1.471,1.15 -0.591,0.71 -0.894,1.65 -0.289,0.92 -0.289,1.92 z" />
        <path inkscape:connector-curvature="0" id="path4294" style="font-style:normal;font-variant:normal;font-weight:normal;font-stretch:normal;font-size:13.75px;line-height:100%;font-family:'Helvetica Neue';-inkscape-font-specification:'Helvetica Neue';text-align:start;letter-spacing:-0.37px;word-spacing:0px;writing-mode:lr-tb;text-anchor:start;fill:#ffffff;fill-opacity:1;stroke:none;stroke-width:1px;stroke-linecap:butt;stroke-linejoin:miter;stroke-opacity:1" d="m -40.972,189.83 0,9.82 1.238,0 0,-7.88 0.03,0 5.129,7.88 1.43,0 0,-9.82 -1.237,0 0,7.96 -0.03,0 -5.17,-7.96 -1.389,0 z" />
        <path inkscape:connector-curvature="0" id="path4296" style="font-style:normal;font-variant:normal;font-weight:normal;font-stretch:normal;font-size:13.75px;line-height:100%;font-family:'Helvetica Neue';-inkscape-font-specification:'Helvetica Neue';text-align:start;letter-spacing:-0.37px;word-spacing:0px;writing-mode:lr-tb;text-anchor:start;fill:#ffffff;fill-opacity:1;stroke:none;stroke-width:1px;stroke-linecap:butt;stroke-linejoin:miter;stroke-opacity:1" d="m -31.418,189.83 0,9.82 6.82,0 0,-1.1 -5.514,0 0,-3.4 5.101,0 0,-1.1 -5.101,0 0,-3.12 5.473,0 0,-1.1 -6.779,0 z" />
      </g>
      <g transform="matrix(1.6821,0,0,1.6821,319.98,-94.199)" id="g4171" style="fill:#ffffff;fill-opacity:1">
        <path style="fill:#ffffff;fill-opacity:1;fill-rule:evenodd;stroke:none;stroke-width:1px;stroke-linecap:butt;stroke-linejoin:miter;stroke-opacity:1" d="m -118.44,117.98 c -3.79,0 -5.56,2.52 -5.56,2.52 l 0,15.66 c 0,0 -2.26,-4.04 -9.85,-4.04 -10.35,0 -15.4,8.84 -15.4,17.42 0,8.59 6.06,16.67 18.94,16.67 15.41,0 16.67,-14.14 16.67,-14.14 l 0,-31.57 c 0,0 -1.01,-2.52 -4.8,-2.52 z m -13.51,23.98 a 7.4499,7.4499 0 0 1 7.45,7.45 7.4499,7.4499 0 0 1 -7.45,7.45 7.4499,7.4499 0 0 1 -7.45,-7.45 7.4499,7.4499 0 0 1 7.45,-7.45 z" id="path4153" inkscape:connector-curvature="0" />
        <path sodipodi:nodetypes="ccscccczcccssc" inkscape:connector-curvature="0" id="path4160" d="m -101.01,135.91 0,-15.66 c 0,0 -1.77,-2.52 -5.56,-2.52 -3.79,0 -4.8,2.52 -4.8,2.52 l 0,44.95 9.73,0.1 0,-16.42 c 0,0 -0.7,-7.31 6.158,-7.26 6.858,0.1 5.902,7.39 5.902,7.39 l -0.216,16.41 10.232,0.1 c 0,0 -0.01,-7.81 -0.01,-16.4 0,-8.58 -1.259,-17.17 -11.609,-17.17 -7.58,0 -9.857,4.04 -9.857,4.04 z" style="fill:#ffffff;fill-opacity:1;fill-rule:evenodd;stroke:none;stroke-width:1px;stroke-linecap:butt;stroke-linejoin:miter;stroke-opacity:1" />
        <path style="fill:#ffffff;fill-opacity:1;fill-rule:evenodd;stroke:none;stroke-width:1px;stroke-linecap:butt;stroke-linejoin:miter;stroke-opacity:1" d="m -59.99,132.05 c -0.386,0 -0.76,0 -1.123,0.1 -5.809,0.51 -15.659,4.3 -16.164,15.91 -0.505,11.62 7.435,16.41 13.384,17.68 5.949,1.27 16.416,-2.27 16.416,-2.27 l -2.527,-7.33 c 0,0 -6.059,2.78 -10.857,2.02 -4.798,-0.75 -6.063,-4.54 -6.063,-4.54 l 13.639,-1.52 c 0,0 8.081,-0.25 7.576,-9.09 -0.473,-8.29 -8.495,-11.02 -14.281,-10.92 z m -0.1,7.85 c 4.841,0.11 5.285,4.33 5.285,4.33 -2.059,2.75 -12.879,2.78 -12.879,2.78 0,0 0.759,-6.56 6.567,-7.07 0.363,0 0.704,0 1.027,0 z" id="path4162" inkscape:connector-curvature="0" />
        <path style="fill:#ffffff;fill-opacity:1;fill-rule:evenodd;stroke:none;stroke-width:1px;stroke-linecap:butt;stroke-linejoin:miter;stroke-opacity:1" d="m -44.194,132.87 0,6.82 c 0,0 -0.253,0 0.505,1.01 0.758,1.01 2.525,0.76 2.525,0.76 l 14.9,0 -18.057,15.91 0.127,8.08 30.809,0 0,-7.96 -18.435,0 18.056,-17.55 10e-4,-3.79 c 0,0 -0.126,-1.39 -1.642,-2.4 -1.515,-1.01 -2.541,-0.82 -2.541,-0.82 z" id="path4169" inkscape:connector-curvature="0" sodipodi:nodetypes="ccscccccccccccc" />
      </g>
      <path sodipodi:nodetypes="cccc" inkscape:connector-curvature="0" id="path4179" d="m 31.447,16.562 25.869,20 35.181,-19.398 z" style="opacity:0.504;fill:#ffffff;fill-opacity:1;fill-rule:evenodd;stroke:none;stroke-width:1px;stroke-linecap:butt;stroke-linejoin:miter;stroke-opacity:1" />
      <path sodipodi:nodetypes="cccc" inkscape:connector-curvature="0" id="path4181" d="m 57.56,36.387 -51.0753,18.022 25.1053,57.141 z" style="opacity:0.206;fill:#ffffff;fill-opacity:1;fill-rule:evenodd;stroke:none;stroke-width:1px;stroke-linecap:butt;stroke-linejoin:miter;stroke-opacity:1" />
      <path sodipodi:nodetypes="cccc" inkscape:connector-curvature="0" id="path4183" d="m 57.56,36.387 29.134,29.138 -55.528,45.775 z" style="opacity:0.092;fill:#ffffff;fill-opacity:1;fill-rule:evenodd;stroke:none;stroke-width:1px;stroke-linecap:butt;stroke-linejoin:miter;stroke-opacity:1" />
      <path inkscape:connector-curvature="0" id="path4185" d="m 89.402,111.48 -3.011,-45.656 28.829,-9.011 z" style="opacity:0.408;fill:#ffffff;fill-opacity:1;fill-rule:evenodd;stroke:none;stroke-width:1px;stroke-linecap:butt;stroke-linejoin:miter;stroke-opacity:1" />
      <path sodipodi:nodetypes="cccc" inkscape:connector-curvature="0" id="path4187" d="m 56.954,35.787 58.316,21.063 -28.667,9.223 z" style="opacity:0.333;fill:#ffffff;fill-opacity:1;fill-rule:evenodd;stroke:none;stroke-width:1px;stroke-linecap:butt;stroke-linejoin:miter;stroke-opacity:1" />
      <path sodipodi:nodetypes="cccc" inkscape:connector-curvature="0" id="path4189" d="m 57.565,36.517 -25.909,-19.753 -25.0704,37.595 z" style="opacity:0.092;fill:#ffffff;fill-opacity:1;fill-rule:evenodd;stroke:none;stroke-width:1px;stroke-linecap:butt;stroke-linejoin:miter;stroke-opacity:1" />
      <path sodipodi:nodetypes="cccc" inkscape:connector-curvature="0" id="path4191" d="m 86.442,65.19 2.977,45.87 -58.201,0 z" style="opacity:0.326;fill:#ffffff;fill-opacity:1;fill-rule:evenodd;stroke:none;stroke-width:1px;stroke-linecap:butt;stroke-linejoin:miter;stroke-opacity:1" />
      <path sodipodi:nodetypes="cccc" inkscape:connector-curvature="0" id="path4193" d="m 57.56,36.303 34.836,-19.539 22.944,40.141 z" style="opacity:0.401;fill:#ffffff;fill-opacity:1;fill-rule:evenodd;stroke:none;stroke-width:1px;stroke-linecap:butt;stroke-linejoin:miter;stroke-opacity:1" />
    </g>
  </g>
</svg>
