<?xml version="1.0" encoding="UTF-8"?>
<svg version="1.1" viewBox="0 0 250 91" xmlns="http://www.w3.org/2000/svg" xmlns:cc="http://creativecommons.org/ns#" xmlns:dc="http://purl.org/dc/elements/1.1/" xmlns:rdf="http://www.w3.org/1999/02/22-rdf-syntax-ns#">
<metadata>
<rdf:RDF>
<cc:Work rdf:about="">
<dc:format>image/svg+xml</dc:format>
<dc:type rdf:resource="http://purl.org/dc/dcmitype/StillImage"/>
<dc:title/>
</cc:Work>
</rdf:RDF>
</metadata>
<g transform="translate(0,-961.4)">
<g transform="matrix(.13458 0 0 .13458 75.767 960.67)" fill="#fff">
<path d="m33.453 587.8c0-14.12-0.857-16.96-9.228-30.57-9.842-15.99-11.205-20.77-5.937-20.77 1.81 0 6.559 5.7 10.552 12.69 3.993 7 7.628 12.69 8.075 12.69 0.448 0 4.082-5.69 8.076-12.69 3.993-6.99 8.742-12.69 10.551-12.69 5.269 0 3.906 4.78-5.937 20.77-8.371 13.61-9.227 16.45-9.227 30.57 0 12.3-0.729 15.58-3.463 15.58s-3.461-3.28-3.462-15.58zm43.292 11.95c-17.742-9.62-19.867-43.86-3.574-57.59 9.947-8.35 26.388-8.05 34.689 0.65 26.18 27.43 0.64 74.18-31.115 56.94zm19.894-5.51c20.091-7.64 14.981-50.85-6.011-50.85-20.274 0-27.627 39.5-9.215 49.49 7.586 4.1 7.937 4.13 15.226 1.36zm30.191 6.32c-0.68-1.75-0.94-16.63-0.58-33.06l0.65-29.88 14.04-0.67c18.49-0.9 25.08 3.83 25.08 17.97 0 11.15-6.65 18.46-16.8 18.46-5.69 0-5.34 0.69 6.5 12.67 10.19 10.33 11.96 13.22 9.51 15.57-2.43 2.36-5.55 0.23-16.5-11.9l-13.5-14.82-0.71 13.48c-0.67 12.9-4.87 19.54-7.69 12.18zm26.75-36.5c2.86-1.52 4.47-4.82 4.47-9.14 0-7.75-5.24-11.53-16-11.53-6.95 0-7.08 0.23-7.08 11.53 0 11.33 0.12 11.54 7.08 11.54 3.89 0 9.08-1.09 11.53-2.4zm22.21 37.82c-0.88-0.86-1.59-16.02-1.59-33.67 0-29.3 0.35-32.02 4.04-31.31 3.12 0.58 4.19 3.51 4.73 12.99l0.71 12.21 13.85-12.81c13.07-12.11 20.51-15.87 20.51-10.4 0 1.34-6.3 8.26-13.99 15.39l-13.98 12.94 15.14 15.25c8.32 8.4 15.13 16.52 15.13 18.09 0 6.05-6.5 2.22-20.83-12.27l-14.93-15.09-1.15 14.32c-1.07 13.25-3.74 18.28-7.64 14.36zm48.85-2.91c-7.21-5.86-4.04-8.54 6.32-5.35 10.52 3.23 18.78 0.3 20.69-7.34 1.92-7.66 0-10.31-11.89-15.53-5.49-2.42-11.59-6.02-13.55-7.98-4.98-4.99-4.44-16.2 1.05-21.69 5.75-5.75 23.33-6.41 27.78-1.06 4.32 5.21-0.39 9.27-6.39 5.54-5.57-3.49-15.74-1.27-17.71 3.87-2.04 5.31 2.2 9.53 15.22 15.14 13.13 5.63 16.71 10.91 14.68 21.64-2.87 15.37-23.86 22.75-36.2 12.76zm43-0.62c-0.74-2.96-1.04-17.79-0.67-33.02 0.58-24.18 1.18-27.76 4.71-28.43 3.48-0.67 4.04 1.13 4.04 13.25v14h17.3 17.31v-13.84c0-10.78 0.76-13.85 3.46-13.85 2.9 0 3.46 5.27 3.46 33.46s-0.56 33.46-3.46 33.46c-2.73 0-3.46-3.21-3.46-15v-15h-17.19-17.19l-0.69 14.24c-0.72 14.6-5.13 20.81-7.62 10.73zm61.14-28.43c0-28.19 0.56-33.46 3.46-33.46 2.91 0 3.47 5.27 3.47 33.46s-0.56 33.46-3.47 33.46c-2.9 0-3.46-5.27-3.46-33.46zm20.05 31.96c-0.87-0.86-1.59-15.95-1.59-33.51v-31.91h14.61c12.25 0 15.39 0.86 19.61 5.33 10.29 10.99 3.16 31.59-10.94 31.59-4.77 0-4.27 1.09 5.35 11.79 9.72 10.82 13.29 18.21 8.8 18.21-1.02 0-7.5-5.77-14.42-12.81l-12.63-12.78-1.15 12.04c-1.08 11.24-3.94 15.76-7.64 12.05zm27.09-39.04c7.66-7.69 0.72-19.45-11.51-19.45h-7.94v11.53 11.54h7.91c4.34 0 9.53-1.64 11.54-3.62zm19.77 7.2v-33.58h15c11.79 0 15 0.74 15 3.47 0 2.63-2.84 3.46-11.65 3.46h-11.68l0.72 10.96 0.69 10.96 10.38 1.15c13.22 1.48 12.53 5.56-1.11 6.46l-10.42 0.71v10.13 10.13l10.96 0.72c7.89 0.48 10.95 1.66 10.95 4.15 0 2.63-3.43 3.62-14.42 4.15l-14.42 0.7v-33.57zm-374.48-81.2c-0.812-0.8-0.924-2.37-0.249-3.46 0.677-1.08 156.93-1.98 348.34-1.98 307 0 347.1 0.39 347.1 3.46s-40.07 3.46-346.85 3.46c-190.78 0-347.53-0.67-348.34-1.48zm38.776-53.11c-2.538-0.53-6.871-1.45-9.628-2.03-7.875-1.66-19.467-12.67-24.105-22.89-2.803-6.16-4.253-14.83-4.286-25.59-0.1-31.84 16.861-51.79 43.99-51.79 17.888 0 35.261 11.6 28.107 18.75-1.525 1.53-5.228 0.3-11.01-3.62-23.973-16.26-48.925 2.63-49.426 37.43-0.344 23.88 10.41 37.53 30.868 39.24 10.005 0.83 14.342 0 20.916-3.85 10.555-6.23 13.145-6.16 12.225 0.3-1.17 8.26-24.23 16.87-37.651 14.05zm204.79-3.83c-2.47-2.77-15.8-21.64-29.65-41.95l-25.17-36.91-0.63 40.95c-0.6 39.04-0.84 40.96-5.19 40.96-4.41 0-4.56-1.73-4.56-50.76 0-65.53-0.93-65.28 36.72-9.99l27.77 40.76 0.64-40.19c0.6-38.44 0.83-40.19 5.24-40.19 4.45 0 4.64 1.75 5.24 49.93 0.5 41.28 0 50.14-2.63 51.15-1.8 0.69-5.29-0.99-7.78-3.76zm59.67 2.4c-1.73-1.73-2.59-17.28-2.59-47.11v-44.53h-11.4c-11.83 0-14.9-1.69-11.92-6.53 1.29-2.08 9.59-2.68 30.43-2.2 23.65 0.53 28.65 1.25 28.65 4.11 0 2.54-3.18 3.65-12.11 4.15l-12.11 0.7v45.8c0 36.75-0.62 46-3.19 46.97-1.75 0.69-4.33 0-5.76-1.36zm57.45-1.59c-2.52-4.69-3.35-89.39-0.95-95.64 1.11-2.86 5.03-3.64 18.53-3.64 28.26 0 40.05 8 40.05 27.15 0 17.45-6.74 25.5-24.99 29.93l-7.7 1.84 17.65 19.15c15.11 16.43 17.21 19.68 14.65 22.78-2.61 3.13-5.88 0.57-25.52-19.96l-22.54-23.58v21.85c0 17.21-0.74 22.15-3.41 23.19-2.01 0.76-4.41-0.53-5.77-3.07zm34.77-53.16c13.66-3.79 17.69-18.09 8.21-29.1-4.54-5.28-7.71-6.46-19.61-7.33l-14.19-1.02v19.89 19.89h8.65c4.75 0 12.39-1.04 16.94-2.31zm-293.23 4.73v-50.85h21.92c20.21 0 21.92 0.34 21.92 4.52 0 3.99-1.9 4.59-16.73 5.19l-16.73 0.67-0.67 17.79-0.67 17.76 16.82 0.7c13.11 0.53 16.82 1.43 16.82 4.13s-3.7 3.6-16.73 4.13l-16.72 0.69v18.25 18.27l17.88 0.67c14.05 0.53 17.88 1.41 17.88 4.13 0 2.79-4.33 3.6-22.5 4.13l-22.49 0.65v-50.83zm344.84 47.8c-0.65-1.66-0.88-24.29-0.53-50.27l0.62-47.23h21.9c19.01 0 21.99 0.53 22.66 4.04 0.69 3.55-1.3 4.04-16.71 4.04h-17.46v18.45 18.46h16.15c14.6 0 16.15 0.44 16.15 4.62 0 4.17-1.55 4.61-16.15 4.61h-16.15v18.37 18.36l17.88 0.67c14.05 0.53 17.88 1.41 17.88 4.13 0 4.78-44.44 6.46-46.24 1.75zm-405.98-118.13c-1.269-0.48-5.189-1.52-8.71-2.3-9.66-2.13-23.951-16.36-28.566-28.45-15.494-40.56 12.711-80.62 53.394-75.81 20.006 2.36 30.507 15.84 19.856 25.49-3.892 3.5-5.772 3.76-11.988 1.59-9.351-3.25-21.78-3.28-27.793 0-5.913 3.16-11.19 15.66-11.19 26.51 0 19.33 12.348 30.92 29.457 27.59 4.736-0.9 11.377-2.19 14.752-2.81 4.762-0.92 7.002 0.23 9.973 4.66 4.41 6.74 2.24 13.08-6.434 18.76-4.983 3.27-28.049 6.69-32.751 4.84zm438.8-2.33c-11.03-3.92-17-9.27-22.59-20.21-3.69-7.27-4.36-13.75-4.36-42.8 0-36.93 0.85-39.78 11.86-39.78 11.35 0 13.52 6.55 13.52 40.89 0 27.57 0.46 31.1 4.62 35.25 6.8 6.81 21.64 6.28 28.95-1.03 5.47-5.47 5.65-6.79 5.65-37.61 0-34.5 0.95-37.5 11.86-37.5 11.12 0 13.52 6.76 13.5 38.01 0 33.52-2.49 43.49-13.54 54.56-12.81 12.78-31.45 16.66-49.47 10.22zm-383.38-2.7c-2.52-2.53-3.29-5.83-2.34-10.13 2.26-10.31 28.16-78.2 32.15-84.3 7.32-11.16 23.17-9.38 28.96 3.25 7.54 16.45 30.02 79.6 30.02 84.33 0 7.13-5.12 11.1-13.13 10.18-5.07-0.58-7.48-2.89-11.04-10.55l-4.55-9.8h-17.69c-17.38 0-17.72 0.23-19.28 6.34-3.32 13.31-15.03 18.74-23.1 10.68zm48.85-56.55-4.8-16.45-5.2 13.57c-7.21 18.83-7.08 19.33 4.68 19.33h10.12l-4.8-16.45zm63.47 57.52c-1.92-1.94-2.77-14.21-2.77-40.37v-37.61h-9.92c-11.52 0-15.46-3.03-15.46-11.92 0-9.44 5.67-11.16 36.92-11.16 31.24 0 36.92 1.72 36.92 11.16 0 8.89-3.93 11.92-15.46 11.92h-9.92v37.61c0 40.3-0.76 43.14-11.54 43.14-3.3 0-7.24-1.24-8.77-2.77zm43.96 0c-1.6-1.59-2.89-5.12-2.89-7.84 0-4.48 23.05-69.31 30.02-84.42 5.86-12.76 21.67-14.4 29.09-3.03 4.11 6.25 29.68 73.4 32.01 84.03 1.68 7.64-3.42 13.92-11.33 13.92-6.3 0-11.93-5.77-14.1-14.42-1.55-6.23-1.89-6.35-19.27-6.35h-17.69l-4.57 9.81c-3.69 7.96-5.84 9.94-11.47 10.49-3.83 0.37-8.23-0.62-9.8-2.19zm51.86-45.22c-0.64-2.21-2.53-8.97-4.22-15-1.66-6.02-3.64-10.96-4.38-10.96-0.76 0-3.56 6.74-6.26 15l-4.86 15h10.45c8.84 0 10.27-0.62 9.27-4.04zm56.09 43.42c-1.4-2.63-2.4-22.45-2.4-48.1 0-53.08-0.99-51.27 27.97-51.27 34.08 0 49.47 12.54 47.53 38.74-1.55 20.88-12.55 30.52-36.85 32.35l-13.27 0.99v12.06c0 8.75-1.15 13.09-4.22 15.88-5.79 5.21-15.8 4.89-18.76-0.65zm43.75-55.53c9.62-9.62 3.34-20.77-11.7-20.77h-9.07v12.69 12.69h8.08c5.01 0 9.83-1.75 12.69-4.61zm164.32 56.39c-4.98-3.49-5.12-4.71-5.12-48.29 0-48.37 0.88-51.94 12.69-51.94 11.47 0 12.69 4.23 12.69 44v36.75h14.42c16.08 0 18.85 1.16 21.16 8.49 1.1 3.56 0.23 6.49-3.16 9.81-4.09 4.08-7.64 4.73-26.15 4.73-15.64 0-22.77-0.97-26.53-3.6zm77.64-0.23c-2.31-2.8-3.37-13.66-3.9-40.38l-0.74-36.57h-8.6c-10.25 0-14.15-3.28-14.15-11.92 0-9.48 5.68-11.15 37.75-11.15 23.14 0 29.56 0.71 32.46 3.62 8.61 8.6 1.53 19.45-12.69 19.45h-9.06v37.61c0 26.16-0.83 38.44-2.77 40.37-3.99 4-14.61 3.4-18.3-1.03zm-528.77-120.1c-7.07-1.83-8.52-11.02-8.52-53.91 0-38.301 0.34-41.721 4.61-45.991 5.55-5.54 12.21-5.93 17.15-0.99 3.05 3.05 3.62 10.87 3.62 49.481 0 44.76-0.12 45.93-5.13 49.44-2.82 1.97-5.67 3.47-6.34 3.32-0.67-0.14-3.1-0.75-5.39-1.35zm66.45-2.68c-23.44-10.65-34.41-38.94-26.35-67.97 2.99-10.77 15.55-25.121 26.58-30.351 19.31-9.16 54.68-1.26 59.68 13.331 4.55 13.25-6.83 19.39-20.39 11.01-18.63-11.51-38.64-2.5-41.84 18.81-1.83 12.23 4.54 29.71 12.35 33.89 6.19 3.31 19.06 3.07 23.64-0.45 3.48-2.67 9.03-11.4 9.03-14.2 0-0.71-4.64-1.3-10.3-1.3-7.83 0-10.88-1.08-12.69-4.46-3.39-6.34-3.01-8.77 2.22-14 5.96-5.96 33.02-6.63 41.03-1.02 10.03 7.03 4.64 36.21-9.02 48.78-13.34 12.25-36.82 15.7-53.94 7.93zm98.07 2.7c-8.37-3-9.22-7.74-9.22-51.4 0-46.481 1.56-53.141 12.45-53.141 11.77 0 12.92 4.75 12.92 52.681 0 41.15-0.32 44.55-4.61 48.84-4.8 4.81-5.79 5.07-11.54 3.02zm60.5-1.99c-4.94-3.46-5.12-4.98-5.12-40.38v-36.79h-7.57c-9.62 0-17.81-5.68-17.81-12.361 0-9.62 3.76-10.71 36.91-10.71 33.16 0 36.92 1.09 36.92 10.71 0 6.681-8.19 12.361-17.81 12.361h-7.57v36.79c0 35.4-0.23 36.92-5.12 40.38-2.82 1.97-5.7 3.59-6.42 3.59-0.71 0-3.59-1.62-6.41-3.59zm43.84 0c-2.82-1.98-5.12-5.87-5.1-8.66 0-7.84 29.26-84.971 33.92-89.511 7.33-7.15 19.88-6.56 24.96 1.17 2.01 3.06 10.41 24.011 18.69 46.571 12.23 33.3 14.6 41.99 12.71 46.16-5.26 11.55-18.92 8.74-23.39-4.81l-2.68-8.1h-18.23-18.25l-3.3 7.89c-1.82 4.34-5.4 9.01-7.96 10.39-5.83 3.12-5.26 3.17-11.37-1.1zm50.25-43.3c0-4.02-7.06-25.27-9.21-27.64-0.9-1.02-3.43 4.17-5.63 11.53-2.16 7.37-4.49 14.69-5.14 16.28-0.83 2.05 1.85 2.88 9.41 2.88 7.22 0 10.57-0.96 10.57-3.05zm-431 41.81c-3.91-3.91-3.91-92.071 0-95.981 1.805-1.8 11.282-2.77 27.235-2.77 23.008 0 25.094 0.4 34.969 6.66 17.162 10.881 25.302 33.141 20.542 56.121-3.15 15.17-13.361 28.4-26.516 34.37-11.239 5.11-51.577 6.25-56.23 1.6zm45.474-23.65c8.712-4.51 12.593-14.72 11.181-29.42-1.542-16.04-8.789-22.61-24.944-22.61h-11.407v27.69 27.69h9.344c5.138 0 12.261-1.51 15.826-3.35zm442.21 22.8c-3.05-3.05-3.62-10.75-3.62-48.1 0-40.151 0.41-44.841 4.22-48.291 5.61-5.07 10.94-4.81 16.54 0.8 4.22 4.22 4.62 7.69 4.62 40.381v35.76h12.85c16.17 0 21.76 2.86 21.76 11.15 0 10.5-3.49 11.92-29.14 11.92-18.37 0-24.39-0.8-27.23-3.62z" fill="#fff"/>
</g>
</g>
</svg>
