<?xml version="1.0" encoding="UTF-8" standalone="no"?>
<!-- Created with Inkscape (http://www.inkscape.org/) -->

<svg
   xmlns:dc="http://purl.org/dc/elements/1.1/"
   xmlns:cc="http://creativecommons.org/ns#"
   xmlns:rdf="http://www.w3.org/1999/02/22-rdf-syntax-ns#"
   xmlns:svg="http://www.w3.org/2000/svg"
   xmlns="http://www.w3.org/2000/svg"
   xmlns:sodipodi="http://sodipodi.sourceforge.net/DTD/sodipodi-0.dtd"
   xmlns:inkscape="http://www.inkscape.org/namespaces/inkscape"
   width="250"
   height="91"
   viewBox="0 0 250 91"
   id="svg2"
   version="1.1"
   inkscape:version="0.92.2 (5c3e80d, 2017-08-06)"
   sodipodi:docname="digicatapult.svg">
  <defs
     id="defs4" />
  <sodipodi:namedview
     id="base"
     pagecolor="#ffffff"
     bordercolor="#666666"
     borderopacity="1.0"
     inkscape:pageopacity="0.0"
     inkscape:pageshadow="2"
     inkscape:zoom="1.9799"
     inkscape:cx="25.51251"
     inkscape:cy="-23.762286"
     inkscape:document-units="px"
     inkscape:current-layer="layer1"
     showgrid="false"
     inkscape:window-width="1920"
     inkscape:window-height="1001"
     inkscape:window-x="-9"
     inkscape:window-y="-9"
     inkscape:window-maximized="1"
     units="px" />
  <metadata
     id="metadata7">
    <rdf:RDF>
      <cc:Work
         rdf:about="">
        <dc:format>image/svg+xml</dc:format>
        <dc:type
           rdf:resource="http://purl.org/dc/dcmitype/StillImage" />
        <dc:title></dc:title>
      </cc:Work>
    </rdf:RDF>
  </metadata>
  <g
     inkscape:label="Layer 1"
     inkscape:groupmode="layer"
     id="layer1"
     transform="translate(0,-961.4)">
    <rect
       style="opacity:0.001;fill:#ffffff;fill-opacity:1;stroke:none;stroke-width:2.5;stroke-linecap:round;stroke-linejoin:round;stroke-miterlimit:4;stroke-dasharray:none;stroke-dashoffset:0;stroke-opacity:1"
       id="rect4175"
       width="250"
       height="91"
       x="0"
       y="961.4" />
    <path
       style="fill:#ffffff;stroke-width:0.12231869"
       d="m 158.06527,1039.9509 c -2.50534,-0.392 -3.85779,-1.2832 -3.85779,-2.5423 0,-0.4426 0.0701,-0.6043 0.40868,-0.9429 0.61915,-0.6192 0.93418,-0.6471 2.02279,-0.179 1.74401,0.7499 3.04928,0.8808 4.1592,0.4171 0.85683,-0.3581 1.30205,-1.0421 1.43949,-2.2117 l 0.0837,-0.7124 -0.45018,0.3952 c -0.64328,0.5648 -1.03948,0.7411 -2.03403,0.9054 -3.49811,0.5777 -6.06967,-2.2525 -5.83936,-6.4268 0.12747,-2.3102 1.09377,-4.1344 2.7475,-5.1869 1.70692,-1.0862 4.07862,-0.9927 5.2171,0.2058 l 0.35462,0.3733 0.4463,-0.5029 c 0.40157,-0.4526 0.5131,-0.5079 1.11319,-0.5524 0.81299,-0.06 1.318,0.2087 1.63138,0.8691 0.19228,0.4052 0.20733,0.9462 0.16979,6.0998 -0.0401,5.5113 -0.0482,5.6739 -0.31602,6.3891 -0.88183,2.3548 -2.61391,3.4999 -5.5358,3.66 -0.56728,0.031 -1.35954,0.01 -1.76057,-0.057 z m 2.43886,-7.959 c 1.38256,-0.3838 2.12643,-2.3099 1.58988,-4.1167 -0.72936,-2.456 -3.79038,-2.456 -4.51975,0 -0.51973,1.7502 0.14744,3.6037 1.4648,4.0695 0.60078,0.2124 0.84223,0.2202 1.46507,0.048 z m 26.97403,3.2785 c -1.96738,-0.4486 -3.61895,-2.2249 -4.17235,-4.4875 -0.25643,-1.0484 -0.20722,-2.8384 0.10594,-3.853 0.7573,-2.4537 2.56745,-4.054 4.74333,-4.1936 1.18926,-0.076 1.94874,0.1252 2.74578,0.7284 l 0.65695,0.4972 0.23577,-0.3236 c 0.72459,-0.9947 2.3445,-0.8618 2.90139,0.2381 0.2608,0.5152 0.27365,9.6896 0.0144,10.304 -0.47413,1.1238 -1.96934,1.2922 -2.82467,0.318 l -0.37611,-0.4283 -0.54016,0.4754 c -0.83508,0.7351 -2.20119,1.0188 -3.49028,0.7249 z m 2.87297,-3.683 c 0.94229,-0.7187 1.32887,-2.4854 0.85085,-3.8884 -0.7062,-2.0725 -3.31279,-2.256 -4.26955,-0.3004 -0.58199,1.1895 -0.43354,2.8825 0.33443,3.8142 0.51018,0.6189 0.96996,0.8048 1.8785,0.7597 0.60073,-0.03 0.84047,-0.1065 1.20577,-0.3851 z m -40.90538,3.3847 c -0.23069,-0.1176 -0.53343,-0.3692 -0.67276,-0.5591 -0.24426,-0.3328 -0.25468,-0.5147 -0.29101,-5.0762 -0.024,-3.0161 0.008,-4.888 0.089,-5.1642 0.2053,-0.702 0.74685,-1.128 1.50553,-1.1841 0.49366,-0.037 0.7367,0.01 1.03648,0.1984 0.78635,0.4941 0.78198,0.4589 0.74378,5.9976 l -0.0345,5.0038 -0.3058,0.3313 c -0.34265,0.3712 -0.95117,0.6669 -1.37216,0.6666 -0.15352,-2e-4 -0.46788,-0.097 -0.69856,-0.2141 z m 19.80936,0.01 c -0.23412,-0.1212 -0.55062,-0.4075 -0.70333,-0.636 -0.27694,-0.4146 -0.27766,-0.428 -0.27766,-5.2413 0,-4.2543 0.0242,-4.8765 0.20428,-5.2561 0.56777,-1.1964 2.45346,-1.1862 3.02414,0.016 0.16999,0.3582 0.19649,1.0552 0.19631,5.166 0,4.2824 -0.0213,4.7934 -0.21406,5.1714 -0.43576,0.8546 -1.42023,1.1988 -2.22968,0.7796 z m 7.90457,0.082 c -0.19224,-0.057 -0.4613,-0.2043 -0.59791,-0.3259 -0.54273,-0.4831 -0.58157,-0.7998 -0.58157,-4.743 v -3.7346 h -0.42564 c -0.64642,0 -1.39258,-0.3471 -1.59731,-0.743 -0.21817,-0.4219 -0.22956,-1.2887 -0.0224,-1.7034 0.20295,-0.4061 0.88346,-0.7334 1.52547,-0.7337 l 0.51985,-2e-4 v -1.3761 c 0,-1.0683 0.048,-1.4699 0.21406,-1.7955 0.62468,-1.225 2.35794,-1.2967 2.98716,-0.1234 0.18019,0.3359 0.22351,0.6957 0.22351,1.8559 v 1.4391 l 0.82565,3e-4 c 1.39096,4e-4 1.9821,0.4663 1.98589,1.5654 0.004,1.0973 -0.66114,1.6147 -2.07529,1.6147 h -0.72662 l -0.0354,3.9656 -0.0354,3.9657 -0.3058,0.3313 c -0.53448,0.5789 -1.15512,0.7577 -1.87849,0.5408 z m 21.02137,-0.041 c -0.20183,-0.093 -0.50457,-0.3178 -0.67276,-0.5 l -0.30579,-0.3312 -0.0332,-7.6359 c -0.0368,-8.444 -0.0642,-8.1259 0.74254,-8.6178 0.83667,-0.5102 1.98708,-0.1607 2.44024,0.7413 0.19641,0.3909 0.21389,1.0172 0.21406,7.6706 0,7.9496 0,7.9504 -0.72993,8.4703 -0.45178,0.3217 -1.19768,0.413 -1.65509,0.2027 z m -64.06558,-0.1302 c -0.58997,-0.2105 -0.75789,-0.3551 -0.9967,-0.8584 -0.17068,-0.3596 -0.19475,-1.2299 -0.19475,-7.0398 0,-7.3366 -0.0104,-7.2349 0.78529,-7.7201 0.34257,-0.2088 0.66002,-0.2297 3.50075,-0.2301 2.39276,-4e-4 3.29465,0.043 3.85304,0.1852 2.58941,0.6595 4.49436,2.6918 5.21036,5.5588 0.36118,1.4461 0.28105,3.6546 -0.18433,5.0807 -0.95254,2.919 -3.08367,4.6945 -6.08699,5.0711 -1.48919,0.1867 -5.317,0.1559 -5.88667,-0.048 z m 5.86895,-3.4348 c 0.8006,-0.2377 1.7561,-1.0894 2.16896,-1.9333 0.44742,-0.9145 0.64049,-2.392 0.46231,-3.538 -0.25666,-1.651 -0.87807,-2.6422 -2.03574,-3.2475 -0.57255,-0.2993 -0.76274,-0.3291 -2.36564,-0.3706 l -1.74304,-0.045 v 4.6595 4.6596 h 1.44562 c 0.93307,0 1.66613,-0.066 2.06753,-0.1847 z m 9.51378,-9.7845 c -1.44981,-0.5126 -1.81137,-2.3814 -0.66168,-3.4201 0.54821,-0.4953 0.90004,-0.6082 1.63635,-0.5252 1.72965,0.1949 2.39322,2.4242 1.05643,3.549 -0.34379,0.2893 -1.08002,0.587 -1.4195,0.574 -0.0673,0 -0.34249,-0.082 -0.6116,-0.1777 z m 19.81564,0 c -1.6659,-0.5849 -1.85413,-2.9417 -0.29835,-3.7355 1.68945,-0.8619 3.54266,0.7593 2.87285,2.5132 -0.24216,0.6341 -0.74762,1.0999 -1.3857,1.2771 -0.56438,0.1568 -0.58954,0.1556 -1.1888,-0.055 z m -17.67506,-8.2698 c -3.56297,-0.278 -6.68814,-1.8005 -8.41969,-4.1019 -1.18873,-1.58 -1.96436,-3.5259 -2.42972,-6.0957 -0.16941,-0.9356 -0.20769,-2.4411 -0.25013,-9.83955 -0.0332,-5.7895 -0.006,-9.0624 0.0806,-9.706 0.30717,-2.2825 1.43842,-3.1483 4.11337,-3.1483 1.49083,0 2.28568,0.2193 2.99513,0.8266 0.63745,0.5456 0.94517,1.1629 1.09446,2.1954 0.0691,0.4778 0.1221,4.4178 0.12472,9.271 0.005,9.22355 0.0159,9.38985 0.7183,10.89085 0.66747,1.4264 1.58112,2.137 3.08864,2.4026 0.87928,0.1549 2.04995,-0.01 2.78492,-0.3829 0.9426,-0.4833 1.77216,-1.6089 2.16118,-2.9325 0.36879,-1.2548 0.42115,-2.7474 0.42115,-12.00425 0,-10.054 -0.002,-10.019 0.62215,-10.9299 0.62398,-0.9106 1.68315,-1.3174 3.47553,-1.3349 1.63234,-0.016 2.48124,0.2501 3.25125,1.0186 1.02559,1.0237 0.99232,0.5779 0.93567,12.5385 -0.043,9.07505 -0.0752,10.52935 -0.25327,11.43685 -1.22855,6.2606 -4.7208,9.3909 -11.04994,9.9048 -1.67619,0.1362 -1.59625,0.1364 -3.46428,-0.01 z m -91.315638,-0.2404 c -1.367557,-0.1802 -2.135848,-0.9772 -2.135848,-2.2155 0,-0.5559 0.729997,-2.8276 3.51083,-10.9257 1.96592,-5.72495 2.43714,-6.83655 3.237081,-7.63655 0.642087,-0.6421 1.365178,-0.8785 2.916798,-0.9537 2.177588,-0.1054 3.379446,0.3535 4.197402,1.603 0.615616,0.9405 0.943898,1.8297 3.572611,9.67825 2.677988,7.9957 2.768625,8.3726 2.233635,9.2901 -0.191743,0.3288 -0.491096,0.5925 -0.937413,0.8257 -0.587583,0.3069 -0.778167,0.3422 -1.834348,0.3398 -2.267073,-0.01 -2.496152,-0.2643 -3.674985,-4.1562 l -0.09263,-0.3057 -3.264956,-0.032 c -2.551106,-0.026 -3.275076,0 -3.311235,0.1224 -0.723811,2.4226 -0.975554,3.051 -1.428435,3.5655 -0.653141,0.7421 -1.570739,0.988 -2.988511,0.8012 z m 9.856251,-9.6245 c 0.01092,-0.2059 -2.028452,-8.10275 -2.09265,-8.10315 -0.05899,-4e-4 -0.47391,1.7592 -1.708888,7.24695 l -0.213339,0.9479 h 2.005007 c 1.102753,0 2.007192,-0.041 2.00987,-0.092 z m 12.593171,9.5183 c -0.651561,-0.1982 -1.114173,-0.5238 -1.436977,-1.0115 l -0.335852,-0.5075 -0.03404,-7.9291 -0.03398,-7.92925 h -1.556137 c -0.855878,-4e-4 -1.760841,-0.057 -2.011035,-0.127 -1.132176,-0.3144 -1.632795,-1.2443 -1.61043,-2.9915 0.02019,-1.5786 0.374372,-2.2479 1.420895,-2.6851 0.389618,-0.1628 1.35762,-0.1892 6.909335,-0.1886 4.127787,5e-4 6.622878,0.047 6.918277,0.1289 1.087513,0.3021 1.678544,1.3116 1.678544,2.8672 0,1.492 -0.568226,2.5213 -1.577816,2.8581 -0.228689,0.076 -1.123141,0.1387 -1.987682,0.1387 h -1.571892 v 7.80255 7.8025 l -0.275212,0.5448 c -0.298547,0.591 -0.847965,1.0239 -1.545177,1.2176 -0.50938,0.1414 -2.496409,0.1481 -2.950827,0.01 z m 9.246948,-0.078 c -0.734505,-0.2691 -1.299663,-0.7645 -1.57044,-1.3766 -0.401166,-0.907 -0.257947,-1.7493 0.869458,-5.1142 1.490369,-4.4481 5.44801,-15.78205 5.824267,-16.67965 0.779791,-1.8602 1.742203,-2.9775 2.917793,-3.3878 0.5164,-0.1801 1.02526,-0.2206 2.77303,-0.2206 2.06039,0 2.16649,0.012 2.83233,0.3244 1.44281,0.6763 2.24069,1.9559 3.39418,5.4434 0.80907,2.4462 4.09169,12.69335 4.97034,15.51575 0.9041,2.9041 0.86088,3.9664 -0.19828,4.873 -0.68832,0.5892 -1.50102,0.8148 -2.93499,0.8148 -2.60231,0 -3.27427,-0.6473 -4.16009,-4.0076 l -0.39544,-1.5001 -3.90785,0.032 -3.90785,0.032 -0.588612,1.6851 c -0.859209,2.4598 -1.357199,3.1916 -2.429393,3.5698 -0.690123,0.2436 -2.819413,0.2409 -3.488453,-0.01 z m 12.893528,-11.6593 c 0,-0.1374 -2.19408,-9.67155 -2.2831,-9.92095 -0.0509,-0.1427 -0.0877,-0.1261 -0.16529,0.075 -0.10235,0.2647 -2.56668,9.75425 -2.56668,9.88375 0,0.04 1.12839,0.072 2.50754,0.072 1.39005,0 2.50753,-0.049 2.50753,-0.1092 z m 13.84525,11.677 c -1.13361,-0.367 -1.85597,-1.1628 -2.105,-2.3189 -0.0944,-0.4383 -0.12336,-4.1946 -0.0968,-12.55155 l 0.0379,-11.9261 0.34586,-0.7043 c 0.3772,-0.7682 0.8435,-1.1914 1.68079,-1.5254 0.48307,-0.1927 1.02109,-0.2162 4.94551,-0.2164 4.57086,-3e-4 5.58305,0.076 7.37774,0.5582 3.64523,0.9788 5.90447,3.1991 6.77502,6.6583 0.24009,0.9541 0.27608,1.4027 0.2698,3.3638 -0.008,2.6602 -0.18089,3.4968 -1.10897,5.3817 -0.47389,0.96255 -0.75208,1.34185 -1.62223,2.21205 -0.87015,0.8701 -1.24947,1.1484 -2.21198,1.6223 -1.8994,0.9351 -3.89009,1.3034 -7.04597,1.3034 h -1.51602 v 2.685 c 0,1.4791 -0.06,2.9647 -0.13359,3.3079 -0.17461,0.8142 -0.75447,1.5577 -1.51772,1.946 -0.53924,0.2744 -0.78524,0.315 -2.07941,0.3429 -1.00126,0.021 -1.6354,-0.023 -1.99502,-0.1389 z m 8.30832,-14.62965 c 2.23301,-0.4138 3.19735,-1.8906 3.00592,-4.6033 -0.17763,-2.5169 -1.37403,-3.5639 -4.21241,-3.6861 l -1.37608,-0.059 v 4.2354 4.2354 h 0.96185 c 0.52901,0 1.25833,-0.055 1.62072,-0.1221 z m 66.45445,14.55015 c -0.95386,-0.3025 -1.75351,-0.9949 -2.14223,-1.8552 l -0.29227,-0.6468 -0.0327,-13.24105 -0.0327,-13.241 h -2.3525 c -3.46681,0 -4.41706,-0.2171 -5.2142,-1.1842 -0.63304,-0.768 -0.80787,-1.4777 -0.80787,-3.2795 0,-1.8018 0.17483,-2.5114 0.80787,-3.2794 0.47821,-0.5802 1.08685,-0.891 2.07914,-1.0619 0.53853,-0.093 3.89122,-0.1233 10.75152,-0.098 10.93676,0.04 10.44725,0.01 11.44949,0.7713 1.64608,1.2555 1.63704,6.0712 -0.0138,7.3303 -0.83501,0.6369 -1.24565,0.7106 -4.30801,0.773 l -2.84126,0.058 -0.0333,13.1656 -0.0332,13.16585 -0.31595,0.6735 c -0.76182,1.6239 -1.95337,2.2025 -4.51564,2.1926 -1.0397,-0.01 -1.60123,-0.067 -2.15246,-0.2418 z m -145.052319,-0.01 c -2.111409,-0.3221 -3.947623,-1.4956 -5.135102,-3.2818 -1.666592,-2.5069 -2.188265,-6.2445 -1.341861,-9.6142 0.313854,-1.24945 1.203669,-2.89255 2.077831,-3.83675 0.971595,-1.0494 1.844267,-1.6388 3.146298,-2.1252 0.858726,-0.3207 1.21282,-0.3821 2.470242,-0.4281 1.795542,-0.066 2.91681,0.1424 4.219993,0.7825 1.186496,0.5828 2.361981,1.7208 2.568024,2.486 0.43436,1.613 -1.10734,3.51455 -2.646966,3.26475 -0.230678,-0.037 -0.761397,-0.32655 -1.179364,-0.64235 -0.999719,-0.7553 -1.457896,-0.9355 -2.36544,-0.9303 -0.926035,0.01 -1.559618,0.3022 -2.172269,1.018 -0.835008,0.97555 -1.248686,2.76545 -1.049549,4.54105 0.260876,2.3263 1.369076,3.6377 3.074054,3.6377 0.865468,0 1.333449,-0.1612 2.24084,-0.7718 0.937407,-0.6308 1.616549,-0.8425 2.192676,-0.6834 0.974029,0.269 1.836788,1.4408 1.836788,2.4949 0,2.4112 -4.325449,4.6398 -7.936195,4.089 z m 124.404789,4e-4 c -1.46713,-0.2232 -2.46274,-1.028 -2.86088,-2.3125 -0.1931,-0.623 -0.20954,-1.871 -0.20954,-15.90475 0,-14.0874 0.0157,-15.2678 0.20932,-15.7505 0.34573,-0.8619 0.79916,-1.3435 1.66735,-1.7709 0.80145,-0.3945 0.82633,-0.3983 2.59773,-0.3983 h 1.78852 l 0.83874,0.4281 c 0.57867,0.2954 0.94372,0.5799 1.17725,0.9174 0.72442,1.0471 0.71151,0.7883 0.71151,14.2675 v 12.32025 l 3.57782,0.039 c 3.12491,0.034 3.63977,0.067 4.0671,0.2591 0.67855,0.3048 1.21787,0.8617 1.54917,1.5995 0.24442,0.5445 0.28132,0.8256 0.28287,2.1551 0.001,0.8744 -0.0634,1.7436 -0.15038,2.0304 -0.30309,0.9988 -0.99102,1.705 -1.97307,2.0258 -0.54542,0.1781 -12.17911,0.2609 -13.27351,0.094 z"
       id="path849"
       inkscape:connector-curvature="0" />
  </g>
</svg>
