<?xml version="1.0" encoding="UTF-8"?>
<svg version="1.1" viewBox="0 0 250 91" xmlns="http://www.w3.org/2000/svg" xmlns:cc="http://creativecommons.org/ns#" xmlns:dc="http://purl.org/dc/elements/1.1/">
<g transform="translate(0,-961.4)" fill="#fff">
<path d="m158.07 1040c-2.5053-0.392-3.8578-1.2832-3.8578-2.5423 0-0.4426 0.0701-0.6043 0.40868-0.9429 0.61915-0.6192 0.93418-0.6471 2.0228-0.179 1.744 0.7499 3.0493 0.8808 4.1592 0.4171 0.85683-0.3581 1.302-1.0421 1.4395-2.2117l0.0837-0.7124-0.45018 0.3952c-0.64328 0.5648-1.0395 0.7411-2.034 0.9054-3.4981 0.5777-6.0697-2.2525-5.8394-6.4268 0.12747-2.3102 1.0938-4.1344 2.7475-5.1869 1.7069-1.0862 4.0786-0.9927 5.2171 0.2058l0.35462 0.3733 0.4463-0.5029c0.40157-0.4526 0.5131-0.5079 1.1132-0.5524 0.81299-0.06 1.318 0.2087 1.6314 0.8691 0.19228 0.4052 0.20733 0.9462 0.16979 6.0998-0.0401 5.5113-0.0482 5.6739-0.31602 6.3891-0.88183 2.3548-2.6139 3.4999-5.5358 3.66-0.56728 0.031-1.3595 0.01-1.7606-0.057zm2.4389-7.959c1.3826-0.3838 2.1264-2.3099 1.5899-4.1167-0.72936-2.456-3.7904-2.456-4.5198 0-0.51973 1.7502 0.14744 3.6037 1.4648 4.0695 0.60078 0.2124 0.84223 0.2202 1.4651 0.048zm26.974 3.2785c-1.9674-0.4486-3.619-2.2249-4.1724-4.4875-0.25643-1.0484-0.20722-2.8384 0.10594-3.853 0.7573-2.4537 2.5674-4.054 4.7433-4.1936 1.1893-0.076 1.9487 0.1252 2.7458 0.7284l0.65695 0.4972 0.23577-0.3236c0.72459-0.9947 2.3445-0.8618 2.9014 0.2381 0.2608 0.5152 0.27365 9.6896 0.0144 10.304-0.47413 1.1238-1.9693 1.2922-2.8247 0.318l-0.37611-0.4283-0.54016 0.4754c-0.83508 0.7351-2.2012 1.0188-3.4903 0.7249zm2.873-3.683c0.94229-0.7187 1.3289-2.4854 0.85085-3.8884-0.7062-2.0725-3.3128-2.256-4.2696-0.3004-0.58199 1.1895-0.43354 2.8825 0.33443 3.8142 0.51018 0.6189 0.96996 0.8048 1.8785 0.7597 0.60073-0.03 0.84047-0.1065 1.2058-0.3851zm-40.905 3.3847c-0.23069-0.1176-0.53343-0.3692-0.67276-0.5591-0.24426-0.3328-0.25468-0.5147-0.29101-5.0762-0.024-3.0161 8e-3 -4.888 0.089-5.1642 0.2053-0.702 0.74685-1.128 1.5055-1.1841 0.49366-0.037 0.7367 0.01 1.0365 0.1984 0.78635 0.4941 0.78198 0.4589 0.74378 5.9976l-0.0345 5.0038-0.3058 0.3313c-0.34265 0.3712-0.95117 0.6669-1.3722 0.6666-0.15352-2e-4 -0.46788-0.097-0.69856-0.2141zm19.809 0.01c-0.23412-0.1212-0.55062-0.4075-0.70333-0.636-0.27694-0.4146-0.27766-0.428-0.27766-5.2413 0-4.2543 0.0242-4.8765 0.20428-5.2561 0.56777-1.1964 2.4535-1.1862 3.0241 0.016 0.16999 0.3582 0.19649 1.0552 0.19631 5.166 0 4.2824-0.0213 4.7934-0.21406 5.1714-0.43576 0.8546-1.4202 1.1988-2.2297 0.7796zm7.9046 0.082c-0.19224-0.057-0.4613-0.2043-0.59791-0.3259-0.54273-0.4831-0.58157-0.7998-0.58157-4.743v-3.7346h-0.42564c-0.64642 0-1.3926-0.3471-1.5973-0.743-0.21817-0.4219-0.22956-1.2887-0.0224-1.7034 0.20295-0.4061 0.88346-0.7334 1.5255-0.7337l0.51985-2e-4v-1.3761c0-1.0683 0.048-1.4699 0.21406-1.7955 0.62468-1.225 2.3579-1.2967 2.9872-0.1234 0.18019 0.3359 0.22351 0.6957 0.22351 1.8559v1.4391l0.82565 3e-4c1.391 4e-4 1.9821 0.4663 1.9859 1.5654 4e-3 1.0973-0.66114 1.6147-2.0753 1.6147h-0.72662l-0.0354 3.9656-0.0354 3.9657-0.3058 0.3313c-0.53448 0.5789-1.1551 0.7577-1.8785 0.5408zm21.021-0.041c-0.20183-0.093-0.50457-0.3178-0.67276-0.5l-0.30579-0.3312-0.0332-7.6359c-0.0368-8.444-0.0642-8.1259 0.74254-8.6178 0.83667-0.5102 1.9871-0.1607 2.4402 0.7413 0.19641 0.3909 0.21389 1.0172 0.21406 7.6706 0 7.9496 0 7.9504-0.72993 8.4703-0.45178 0.3217-1.1977 0.413-1.6551 0.2027zm-64.066-0.1302c-0.58997-0.2105-0.75789-0.3551-0.9967-0.8584-0.17068-0.3596-0.19475-1.2299-0.19475-7.0398 0-7.3366-0.0104-7.2349 0.78529-7.7201 0.34257-0.2088 0.66002-0.2297 3.5008-0.2301 2.3928-4e-4 3.2946 0.043 3.853 0.1852 2.5894 0.6595 4.4944 2.6918 5.2104 5.5588 0.36118 1.4461 0.28105 3.6546-0.18433 5.0807-0.95254 2.919-3.0837 4.6945-6.087 5.0711-1.4892 0.1867-5.317 0.1559-5.8867-0.048zm5.869-3.4348c0.8006-0.2377 1.7561-1.0894 2.169-1.9333 0.44742-0.9145 0.64049-2.392 0.46231-3.538-0.25666-1.651-0.87807-2.6422-2.0357-3.2475-0.57255-0.2993-0.76274-0.3291-2.3656-0.3706l-1.743-0.045v9.3191h1.4456c0.93307 0 1.6661-0.066 2.0675-0.1847zm9.5138-9.7845c-1.4498-0.5126-1.8114-2.3814-0.66168-3.4201 0.54821-0.4953 0.90004-0.6082 1.6364-0.5252 1.7296 0.1949 2.3932 2.4242 1.0564 3.549-0.34379 0.2893-1.08 0.587-1.4195 0.574-0.0673 0-0.34249-0.082-0.6116-0.1777zm19.816 0c-1.6659-0.5849-1.8541-2.9417-0.29835-3.7355 1.6894-0.8619 3.5427 0.7593 2.8728 2.5132-0.24216 0.6341-0.74762 1.0999-1.3857 1.2771-0.56438 0.1568-0.58954 0.1556-1.1888-0.055zm-17.675-8.2698c-3.563-0.278-6.6881-1.8005-8.4197-4.1019-1.1887-1.58-1.9644-3.5259-2.4297-6.0957-0.16941-0.9356-0.20769-2.4411-0.25013-9.8396-0.0332-5.7895-6e-3 -9.0624 0.0806-9.706 0.30717-2.2825 1.4384-3.1483 4.1134-3.1483 1.4908 0 2.2857 0.2193 2.9951 0.8266 0.63745 0.5456 0.94517 1.1629 1.0945 2.1954 0.0691 0.4778 0.1221 4.4178 0.12472 9.271 5e-3 9.2236 0.0159 9.3898 0.7183 10.891 0.66747 1.4264 1.5811 2.137 3.0886 2.4026 0.87928 0.1549 2.05-0.01 2.7849-0.3829 0.9426-0.4833 1.7722-1.6089 2.1612-2.9325 0.36879-1.2548 0.42115-2.7474 0.42115-12.004 0-10.054-2e-3 -10.019 0.62215-10.93 0.62398-0.9106 1.6832-1.3174 3.4755-1.3349 1.6323-0.016 2.4812 0.2501 3.2512 1.0186 1.0256 1.0237 0.99232 0.5779 0.93567 12.538-0.043 9.075-0.0752 10.529-0.25327 11.437-1.2286 6.2606-4.7208 9.3909-11.05 9.9048-1.6762 0.1362-1.5962 0.1364-3.4643-0.01zm-91.316-0.2404c-1.3676-0.1802-2.1358-0.9772-2.1358-2.2155 0-0.5559 0.73-2.8276 3.5108-10.926 1.9659-5.725 2.4371-6.8366 3.2371-7.6366 0.64209-0.6421 1.3652-0.8785 2.9168-0.9537 2.1776-0.1054 3.3794 0.3535 4.1974 1.603 0.61562 0.9405 0.9439 1.8297 3.5726 9.6782 2.678 7.9957 2.7686 8.3726 2.2336 9.2901-0.19174 0.3288-0.4911 0.5925-0.93741 0.8257-0.58758 0.3069-0.77817 0.3422-1.8343 0.3398-2.2671-0.01-2.4962-0.2643-3.675-4.1562l-0.09263-0.3057-3.265-0.032c-2.5511-0.026-3.2751 0-3.3112 0.1224-0.72381 2.4226-0.97555 3.051-1.4284 3.5655-0.65314 0.7421-1.5707 0.988-2.9885 0.8012zm9.8563-9.6245c0.01092-0.2059-2.0285-8.1028-2.0926-8.1032-0.05899-4e-4 -0.47391 1.7592-1.7089 7.247l-0.21334 0.9479h2.005c1.1028 0 2.0072-0.041 2.0099-0.092zm12.593 9.5183c-0.65156-0.1982-1.1142-0.5238-1.437-1.0115l-0.33585-0.5075-0.03404-7.9291-0.03398-7.9292h-1.5561c-0.85588-4e-4 -1.7608-0.057-2.011-0.127-1.1322-0.3144-1.6328-1.2443-1.6104-2.9915 0.02019-1.5786 0.37437-2.2479 1.4209-2.6851 0.38962-0.1628 1.3576-0.1892 6.9093-0.1886 4.1278 5e-4 6.6229 0.047 6.9183 0.1289 1.0875 0.3021 1.6785 1.3116 1.6785 2.8672 0 1.492-0.56823 2.5213-1.5778 2.8581-0.22869 0.076-1.1231 0.1387-1.9877 0.1387h-1.5719v15.605l-0.27521 0.5448c-0.29855 0.591-0.84796 1.0239-1.5452 1.2176-0.50938 0.1414-2.4964 0.1481-2.9508 0.01zm9.2469-0.078c-0.7345-0.2691-1.2997-0.7645-1.5704-1.3766-0.40117-0.907-0.25795-1.7493 0.86946-5.1142 1.4904-4.4481 5.448-15.782 5.8243-16.68 0.77979-1.8602 1.7422-2.9775 2.9178-3.3878 0.5164-0.1801 1.0253-0.2206 2.773-0.2206 2.0604 0 2.1665 0.012 2.8323 0.3244 1.4428 0.6763 2.2407 1.9559 3.3942 5.4434 0.80907 2.4462 4.0917 12.693 4.9703 15.516 0.9041 2.9041 0.86088 3.9664-0.19828 4.873-0.68832 0.5892-1.501 0.8148-2.935 0.8148-2.6023 0-3.2743-0.6473-4.1601-4.0076l-0.39544-1.5001-7.8157 0.064-0.58861 1.6851c-0.85921 2.4598-1.3572 3.1916-2.4294 3.5698-0.69012 0.2436-2.8194 0.2409-3.4885-0.01zm12.894-11.659c0-0.1374-2.1941-9.6716-2.2831-9.921-0.0509-0.1427-0.0877-0.1261-0.16529 0.075-0.10235 0.2647-2.5667 9.7542-2.5667 9.8838 0 0.04 1.1284 0.072 2.5075 0.072 1.39 0 2.5075-0.049 2.5075-0.1092zm13.845 11.677c-1.1336-0.367-1.856-1.1628-2.105-2.3189-0.0944-0.4383-0.12336-4.1946-0.0968-12.552l0.0379-11.926 0.34586-0.7043c0.3772-0.7682 0.8435-1.1914 1.6808-1.5254 0.48307-0.1927 1.0211-0.2162 4.9455-0.2164 4.5709-3e-4 5.583 0.076 7.3777 0.5582 3.6452 0.9788 5.9045 3.1991 6.775 6.6583 0.24009 0.9541 0.27608 1.4027 0.2698 3.3638-8e-3 2.6602-0.18089 3.4968-1.109 5.3817-0.47389 0.96255-0.75208 1.3418-1.6222 2.212-0.87015 0.8701-1.2495 1.1484-2.212 1.6223-1.8994 0.9351-3.8901 1.3034-7.046 1.3034h-1.516v2.685c0 1.4791-0.06 2.9647-0.13359 3.3079-0.17461 0.8142-0.75447 1.5577-1.5177 1.946-0.53924 0.2744-0.78524 0.315-2.0794 0.3429-1.0013 0.021-1.6354-0.023-1.995-0.1389zm8.3083-14.63c2.233-0.4138 3.1974-1.8906 3.0059-4.6033-0.17763-2.5169-1.374-3.5639-4.2124-3.6861l-1.3761-0.059v8.4708h0.96185c0.52901 0 1.2583-0.055 1.6207-0.1221zm66.454 14.55c-0.95386-0.3025-1.7535-0.9949-2.1422-1.8552l-0.29227-0.6468-0.0327-13.241-0.0327-13.241h-2.3525c-3.4668 0-4.4171-0.2171-5.2142-1.1842-0.63304-0.768-0.80787-1.4777-0.80787-3.2795s0.17483-2.5114 0.80787-3.2794c0.47821-0.5802 1.0868-0.891 2.0791-1.0619 0.53853-0.093 3.8912-0.1233 10.752-0.098 10.937 0.04 10.447 0.01 11.449 0.7713 1.6461 1.2555 1.637 6.0712-0.0138 7.3303-0.83501 0.6369-1.2456 0.7106-4.308 0.773l-2.8413 0.058-0.0333 13.166-0.0332 13.166-0.31595 0.6735c-0.76182 1.6239-1.9534 2.2025-4.5156 2.1926-1.0397-0.01-1.6012-0.067-2.1525-0.2418zm-145.05-0.01c-2.1114-0.3221-3.9476-1.4956-5.1351-3.2818-1.6666-2.5069-2.1883-6.2445-1.3419-9.6142 0.31385-1.2494 1.2037-2.8926 2.0778-3.8368 0.9716-1.0494 1.8443-1.6388 3.1463-2.1252 0.85873-0.3207 1.2128-0.3821 2.4702-0.4281 1.7955-0.066 2.9168 0.1424 4.22 0.7825 1.1865 0.5828 2.362 1.7208 2.568 2.486 0.43436 1.613-1.1073 3.5146-2.647 3.2648-0.23068-0.037-0.7614-0.32655-1.1794-0.64235-0.99972-0.7553-1.4579-0.9355-2.3654-0.9303-0.92604 0.01-1.5596 0.3022-2.1723 1.018-0.83501 0.97555-1.2487 2.7654-1.0495 4.541 0.26088 2.3263 1.3691 3.6377 3.0741 3.6377 0.86547 0 1.3334-0.1612 2.2408-0.7718 0.93741-0.6308 1.6165-0.8425 2.1927-0.6834 0.97403 0.269 1.8368 1.4408 1.8368 2.4949 0 2.4112-4.3254 4.6398-7.9362 4.089zm124.4 4e-4c-1.4671-0.2232-2.4627-1.028-2.8609-2.3125-0.1931-0.623-0.20954-1.871-0.20954-15.905 0-14.087 0.0157-15.268 0.20932-15.75 0.34573-0.8619 0.79916-1.3435 1.6674-1.7709 0.80145-0.3945 0.82633-0.3983 2.5977-0.3983h1.7885l0.83874 0.4281c0.57867 0.2954 0.94372 0.5799 1.1772 0.9174 0.72442 1.0471 0.71151 0.7883 0.71151 14.268v12.32l3.5778 0.039c3.1249 0.034 3.6398 0.067 4.0671 0.2591 0.67855 0.3048 1.2179 0.8617 1.5492 1.5995 0.24442 0.5445 0.28132 0.8256 0.28287 2.1551 1e-3 0.8744-0.0634 1.7436-0.15038 2.0304-0.30309 0.9988-0.99102 1.705-1.9731 2.0258-0.54542 0.1781-12.179 0.2609-13.274 0.094z" stroke-width=".12232"/>
</g>
</svg>
