<?xml version="1.0" encoding="UTF-8"?>
<svg version="1.1" viewBox="0 0 250 91" xml:space="preserve" xmlns="http://www.w3.org/2000/svg" xmlns:cc="http://creativecommons.org/ns#" xmlns:dc="http://purl.org/dc/elements/1.1/">
<g transform="matrix(1.0169 0 0 1.0169 27.063 -.77057)" fill="#fff">
	<g transform="matrix(2.0253 0 0 2.0253 40.358 12.682)">
	<path class="st0" d="m32.913 23.196h1.3803c0.35625 0 0.56294-0.09363 0.71755-0.25174 0.16899-0.17367 0.25796-0.42426 0.25796-0.71524 0-0.32053-0.0847-0.56217-0.25952-0.72379-0.20902-0.19309-0.48252-0.24437-0.88226-0.24437h-1.2141zm-1.4549-2.2475c0-0.59986 0.29098-0.86016 0.86906-0.86016h2.1154c0.70006 0 1.2793 0.15501 1.6853 0.53225 0.38266 0.35588 0.6111 0.89084 0.6111 1.6065 0 1.1748-0.71445 2.1399-2.1398 2.1399h-1.6861v1.5672c0 0.439-0.27933 0.73505-0.72648 0.73505-0.44832 0-0.72843-0.29604-0.72843-0.73505z"/>
	<path class="st0" d="m41.227 23.196h1.3803c0.35625 0 0.56294-0.09363 0.71717-0.25174 0.1694-0.17367 0.25835-0.42426 0.25835-0.71524 0-0.32053-0.08508-0.56217-0.25952-0.72379-0.209-0.19309-0.4825-0.24437-0.88266-0.24437h-1.2137zm-1.4553-2.2475c0-0.59986 0.29099-0.86016 0.86906-0.86016h2.1154c0.70006 0 1.2797 0.15501 1.6857 0.53225 0.38266 0.35588 0.61071 0.89084 0.61071 1.6065 0 1.1748-0.71445 2.1399-2.1394 2.1399h-1.6861v1.5672c0 0.439-0.27933 0.73505-0.72688 0.73505-0.44794 0-0.72843-0.29604-0.72843-0.73505z"/>
	<path class="st0" d="m55.298 24.112c0.7226-0.3473 1.0855-1.0703 1.0855-1.9068 0-0.71561-0.22843-1.2288-0.61109-1.5847-0.40598-0.37724-0.98522-0.53225-1.6853-0.53225h-2.1305c-0.57809 0-0.86945 0.2603-0.86945 0.86016v4.9857c0 0.439 0.28048 0.73505 0.72882 0.73505 0.44715 0 0.72648-0.29604 0.72648-0.73505v-1.6022h1.3562l1.0792 1.9021c0.15268 0.28711 0.33606 0.43047 0.68533 0.43047 0.28553 0 0.6651-0.17055 0.6651-0.67134 0-0.13443-0.05751-0.27506-0.1251-0.38657-0.08352-0.13713-0.56566-0.93279-0.9052-1.4946zm-2.7556-2.8512h1.2292c0.44055 0 0.70629 0.08157 0.88227 0.24437 0.17482 0.16162 0.25952 0.3815 0.25952 0.70203 0 0.29992-0.08936 0.53303-0.24902 0.6958-0.1795 0.1826-0.44367 0.25797-0.7766 0.25797h-1.3454z"/>
	<path class="st1" d="m15.762 20.763c-0.49612-0.46582-1.0996-0.67446-2.0319-0.67446h-1.8132c-0.51903 0-0.82876 0.20514-0.82876 0.85899v4.7988c0 0.65385 0.30972 0.85899 0.82876 0.85899h1.9413c1.7118 0 2.8112-1.0653 2.8112-3.2044-1e-6 -1.1877-0.31333-2.0804-0.90733-2.6379zm-1.0326 4.2269c-0.24194 0.2595-0.58778 0.39005-1.073 0.39005h-1.1132v-4.0657h0.93259c0.53019 0 0.90112 0.07304 1.1969 0.37609 0.33168 0.33955 0.52166 0.90755 0.52166 1.7176 0 0.68922-0.15396 1.2487-0.46485 1.582z"/>
	<path class="st0" d="m27.801 25.466c-0.07089-0.20707-1.3236-3.7821-1.5236-4.3563-0.12452-0.35781-0.23796-0.56915-0.39326-0.72767-0.22075-0.22533-0.50155-0.29409-0.7799-0.29409-0.33206 0-0.58527 0.10879-0.77641 0.28711-0.1755 0.16357-0.29371 0.39628-0.38946 0.66551-0.18395 0.51632-1.5625 4.2646-1.6218 4.4255-0.06954 0.18921-0.14005 0.40443-0.14005 0.55634 0 0.38735 0.27641 0.63366 0.67365 0.63366 0.31935 0 0.5335-0.14181 0.63908-0.45106 0.05458-0.15734 0.19318-0.561 0.37121-1.0797h2.3838c0.11917 0.352 0.23968 0.70786 0.35905 1.0614 0.10083 0.27078 0.2806 0.46932 0.65821 0.46932 0.36948 0 0.68113-0.28168 0.68113-0.63366 0-0.16007-0.07079-0.34925-0.1417-0.55634zm-3.5513-1.4763c0.28633-0.83608 0.59218-1.7308 0.80769-2.3633 0.20094 0.59247 0.486 1.4316 0.80194 2.3633z"/>
	<path class="st0" d="m38.819 25.934c0 0.439-0.27933 0.73505-0.7265 0.73505-0.44832 0-0.72881-0.29604-0.72881-0.73505v-5.1108c0-0.439 0.28048-0.73505 0.72881-0.73505 0.44717 0 0.7265 0.29604 0.7265 0.73505z"/>
	<path class="st0" d="m18.176 26.606c-0.51901 0-0.83954-0.20552-0.83954-0.85937v-4.9228c0-0.439 0.2804-0.73505 0.72863-0.73505 0.44717 0 0.7265 0.29604 0.7265 0.73505v4.5599h2.2467c0.27088 0 0.46328 0.05011 0.5911 0.18066 0.10121 0.10334 0.14743 0.24787 0.14743 0.4262 0 0.17675-0.04507 0.32166-0.14403 0.42657-0.11744 0.12432-0.31032 0.18881-0.5945 0.18881z"/>
	<path class="st0" d="m46.508 26.606c-0.51904 0-0.83954-0.20552-0.83954-0.85937v-4.7988c0-0.65385 0.34032-0.85899 0.86013-0.85899h3.0644c0.27039 0 0.46308 0.0505 0.5909 0.18105 0.10141 0.10296 0.14726 0.24747 0.14726 0.42619 0 0.17638-0.04508 0.32169-0.14376 0.42618-0.11771 0.12472-0.3104 0.18766-0.5944 0.18766h-2.4693v1.4421h2.1363c0.26612 0 0.46776 0.05128 0.58935 0.16862 0.10488 0.10061 0.15229 0.24437 0.15229 0.42657 0 0.18026-0.04662 0.32324-0.14878 0.42425-0.11111 0.10916-0.30031 0.17287-0.5975 0.17287h-2.1317v1.4398h2.5377c0.27077 0 0.46308 0.0505 0.5909 0.18105 0.10138 0.10296 0.14763 0.24747 0.14763 0.42619 0 0.17676-0.04507 0.32166-0.14413 0.42657-0.11734 0.12432-0.31002 0.18803-0.5944 0.18803z"/>
	</g>
	<path d="m49.053 79.917c-2.5331 0-4.2498-0.4815-5.7362-1.3398-1.7167-0.98394-3.1193-2.4285-4.0405-4.187-0.96301-1.7585-1.2142-3.6218-1.2142-6.0502v-45.68c0-2.4075 0.25122-4.2917 1.1933-6.0502 0.92114-1.7585 2.3447-3.2031 4.0405-4.187 1.5073-0.85834 3.2031-1.3398 5.7571-1.3398h46.936c2.5331 0 4.2498 0.48151 5.7362 1.3398 1.7167 0.98394 3.1193 2.4285 4.0614 4.187 0.92114 1.7585 1.1933 3.6218 1.1933 6.0502v23.07c0 1.0049-0.56525 1.5283-1.5073 1.5283s-1.4445-0.52338-1.5701-1.5283c-0.92114-7.0342-3.4124-12.666-7.7878-17.104-4.9616-5.0244-11.996-8.1228-20.328-8.1228-16.811-0.02093-28.283 12.519-28.283 28.262 0 7.9344 2.91 15.052 7.9553 20.16 4.2917 4.3545 10.007 7.1807 17.062 7.9344 1.3817 0.14654 1.8423 0.69086 1.8423 1.5911 0 0.4187-0.12561 0.79553-0.39776 1.0467-0.27216 0.27216-0.73272 0.4187-1.3817 0.4187z" stroke-width="2.0935"/>
</g>
</svg>
