<?xml version="1.0" encoding="UTF-8" standalone="no"?>
<!-- Created with Inkscape (http://www.inkscape.org/) -->

<svg xmlns:dc="http://purl.org/dc/elements/1.1/" xmlns:cc="http://creativecommons.org/ns#" xmlns:rdf="http://www.w3.org/1999/02/22-rdf-syntax-ns#" xmlns:svg="http://www.w3.org/2000/svg" xmlns="http://www.w3.org/2000/svg" xmlns:sodipodi="http://sodipodi.sourceforge.net/DTD/sodipodi-0.dtd" xmlns:inkscape="http://www.inkscape.org/namespaces/inkscape" width="250" height="91" viewBox="0 0 250 91" id="svg2" version="1.1" inkscape:version="0.91 r13725" sodipodi:docname="drupalyorkshire.svg">
  <defs id="defs4" />
  <sodipodi:namedview id="base" pagecolor="#ffffff" bordercolor="#666666" borderopacity="1.0" inkscape:pageopacity="0.0" inkscape:pageshadow="2" inkscape:zoom="0.98995" inkscape:cx="288.8" inkscape:cy="15.597" inkscape:document-units="px" inkscape:current-layer="layer1" showgrid="false" inkscape:window-width="1280" inkscape:window-height="752" inkscape:window-x="0" inkscape:window-y="0" inkscape:window-maximized="1" units="px" showguides="false" />
  <metadata id="metadata7">
    <rdf:RDF>
      <cc:Work rdf:about="">
        <dc:format>image/svg+xml</dc:format>
        <dc:type rdf:resource="http://purl.org/dc/dcmitype/StillImage" />
        <dc:title></dc:title>
      </cc:Work>
    </rdf:RDF>
  </metadata>
  <g inkscape:label="Layer 1" inkscape:groupmode="layer" id="layer1" transform="translate(0,-961.4)">
    <rect style="opacity:0.001;fill:#d02626;fill-opacity:1;stroke:none;stroke-width:2.5;stroke-linecap:round;stroke-linejoin:round;stroke-miterlimit:4;stroke-dasharray:none;stroke-dashoffset:0;stroke-opacity:1" id="rect4298" width="250" height="91" x="0" y="961.4" />
    <path style="fill:#ffffff;fill-opacity:1;fill-rule:evenodd;stroke:none;stroke-width:1px;stroke-linecap:butt;stroke-linejoin:miter;stroke-opacity:1" d="m 125,971.91 a 34.998,34.998 0 0 0 -35,34.99 34.998,34.998 0 0 0 35,35 34.998,34.998 0 0 0 35,-35 34.998,34.998 0 0 0 -35,-34.99 z m -0.43,2.5 0.44,0 0.83,0 0.82,0 0,0 0.16,0.1 0.17,0.2 -0.1,0.3 -0.28,0.1 0,0 -0.81,0 -0.82,0 -0.41,0 -0.16,-0.1 -0.19,-0.2 0.1,-0.3 0.27,-0.1 z m -2.12,0.1 0.17,0 0.2,0.2 0,0.3 -0.26,0.2 -0.76,0.1 -0.8,0 -0.5,0.1 -0.16,0 -0.22,-0.2 0,-0.3 0.25,-0.2 0.51,-0.1 0.81,-0.1 0.78,0 z m 6.37,0.1 0.33,0 0.8,0.2 0.8,0.1 0.15,0 0.15,0.1 0.13,0.3 -0.12,0.2 -0.3,0.1 -0.14,0 -0.78,-0.2 -0.79,-0.1 -0.32,0 -0.16,-0.1 -0.15,-0.2 0.1,-0.3 0.3,-0.1 z m -10.58,0.5 0.17,0 0.23,0.2 0,0.3 -0.24,0.2 -0.59,0.1 -0.76,0.2 -0.67,0.2 -0.16,0 -0.24,-0.2 0,-0.3 0.23,-0.2 0.67,-0.2 0.78,-0.2 0.58,-0.1 z m 14.74,0.3 0.15,0 0.77,0.2 0.76,0.2 0.34,0.1 0.14,0.1 0.1,0.3 -0.15,0.3 -0.3,0 -0.34,-0.1 -0.75,-0.2 -0.75,-0.2 -0.14,-0.1 -0.15,0 -0.12,-0.3 0.14,-0.3 0.3,0 z m -18.64,0.8 0.25,0.2 0,0.3 -0.21,0.2 -0.35,0.1 -0.72,0.3 -0.71,0.3 -0.14,0 -0.16,0.1 -0.27,-0.2 0,-0.3 0.2,-0.2 0.15,-0.1 0.72,-0.3 0.74,-0.3 0.35,-0.1 0.17,0 z m 22.69,0.5 0.63,0.2 0.72,0.4 0.57,0.2 0.13,0.1 0.1,0.3 -0.19,0.3 -0.3,0 -0.57,-0.3 -0.71,-0.3 -0.62,-0.3 -0.14,-0.1 -0.1,-0.3 0.18,-0.2 0.31,0 z m -26.6,1.2 0.27,0.1 0.1,0.3 -0.19,0.2 -0.1,0.1 -0.67,0.3 -0.67,0.4 -0.38,0.2 -0.16,0.1 -0.28,-0.1 -0.1,-0.3 0.17,-0.3 0.4,-0.2 0.67,-0.4 0.69,-0.4 0.1,0 0.16,0 z m 14.29,0.5 0,0 0.28,0 0.16,0 0.14,0 0.26,0 c 7.34,0.1 12.62,3 12.62,3 0,0 1.89,1 1.98,2.5 0.1,1.5 -1.15,3.1 -1.15,3.1 -1.04,1.4 -2.02,2.8 -3,4.2 l -11.03,-10.5 -10.84,10.1 c 0,0 -0.12,0.2 -0.16,0.2 -0.91,-1.2 -1.82,-2.5 -2.74,-3.8 0,0 -1.24,-1.5 -1.15,-3.1 0.1,-1.5 1.98,-2.4 1.98,-2.4 0,0 5.32,-3.2 12.64,-3.3 z m 15.82,0.1 0.3,0 0.34,0.2 0.67,0.4 0.66,0.4 0.13,0.1 0.11,0.1 0,0.3 -0.22,0.2 -0.3,0 -0.12,-0.1 -0.65,-0.4 -0.65,-0.4 -0.33,-0.2 -0.12,-0.1 0,-0.3 0.2,-0.2 z m -33.77,1.5 0.29,0.1 0.11,0.3 -0.15,0.2 -0.43,0.3 -0.62,0.5 -0.6,0.4 -0.14,0.1 -0.3,-0.1 -0.12,-0.2 0.13,-0.3 0.61,-0.5 0.63,-0.4 0.44,-0.3 0.15,-0.1 z m 37.34,0.7 0.3,0.1 0,0 0.61,0.5 0.6,0.5 0.38,0.3 0.1,0.1 0,0.3 -0.24,0.2 -0.29,-0.1 -0.37,-0.3 -0.6,-0.4 -0.6,-0.5 0,0 -0.1,-0.2 0,-0.3 0.23,-0.2 z m -1.49,1.7 c 0,0 0.15,0.8 0.27,1.1 0.11,0.4 0.41,1.2 0.41,1.2 0,0 -0.76,-0.1 -1.21,0.1 -0.46,0 -1.26,0.5 -1.26,0.5 0,0 0.1,-0.9 0,-1.3 -0.1,-0.5 -0.42,-1 -0.42,-1 0,0 0.8,-0.1 1.13,-0.2 l 1.08,-0.4 z m -39.19,0.2 0.3,0.1 0.14,0.2 -0.12,0.3 -0.14,0.1 -0.56,0.6 -0.54,0.5 -0.24,0.2 -0.13,0.1 -0.3,0 -0.16,-0.3 0.1,-0.3 0.25,-0.2 0.55,-0.5 0.56,-0.6 0.15,-0.1 0.15,-0.1 z m 4.1,0.5 c 0,0 0.71,0.1 1.04,0.1 0.33,0 1.12,-0.1 1.12,-0.1 0,0 -0.25,0.7 -0.29,1.1 0,0.4 0.1,1.3 0.1,1.3 0,0 -0.71,-0.4 -1.12,-0.4 -0.42,-0.1 -1,0.1 -1,0.1 0,0 0.16,-0.7 0.16,-1.1 l 0,-1 z m 39.82,0.4 0.29,0.1 0.35,0.3 0.54,0.6 0.52,0.5 0,0.1 0.1,0.1 -0.1,0.3 -0.26,0.1 -0.28,-0.1 0,0 -0.51,-0.6 -0.53,-0.5 -0.35,-0.3 -0.1,-0.2 0,-0.3 0.26,-0.1 z m -4.73,1.9 c 1.29,0.1 2.39,1.2 2.39,1.2 0,0 4.66,4.1 7.06,11 0.1,0.1 0.1,0.2 0.1,0.2 l 0,0.1 0,0.1 0.1,0.2 c 0.1,0.1 0,0.2 0.1,0.2 2.14,6.99 0.99,12.99 0.99,12.99 0,0 -0.31,2.1 -1.74,2.6 -1.44,0.6 -3.27,-0.1 -3.27,-0.1 -0.77,-0.3 -1.52,-0.5 -2.26,-0.7 0.27,-1.3 0.4,-2.6 0.4,-3.7 0,-8.1 -7.78,-15.79 -7.78,-15.79 l -2.17,-2.1 c 0.97,-1.3 1.96,-2.7 2.98,-4.1 0,0 1.07,-1.6 2.58,-2 0.19,-0.1 0.38,-0.1 0.56,-0.1 z m -42.17,0.2 0.3,0 0.18,0.3 -0.1,0.3 -0.4,0.4 -0.481,0.6 -0.418,0.6 -0.126,0.1 -0.301,0 -0.191,-0.2 0.06,-0.3 0.422,-0.6 0.486,-0.6 0.409,-0.5 0.14,-0.1 z m 7.34,0.2 c 0.18,0 0.37,0 0.56,0 1.48,0.4 2.56,2.1 2.56,2.1 0.93,1.2 1.8,2.4 2.65,3.6 -2.17,2.3 -9.78,10.99 -9.78,17.49 0,1.4 0.21,3 0.64,4.8 -0.62,0.2 -1.24,0.4 -1.87,0.6 0,0 -1.84,0.7 -3.276,0.1 -1.435,-0.6 -1.745,-2.6 -1.745,-2.6 0,0 -1.341,-6.1 0.765,-13.09 0.03,-0.1 0.05,-0.2 0.08,-0.3 l 0,0 0.05,-0.1 0.05,-0.2 c 0.03,0 0.05,-0.1 0.08,-0.2 2.406,-6.9 6.816,-11.1 6.816,-11.1 0,0 1.13,-1.1 2.42,-1.1 z m 42.42,0.8 0.27,0.1 0.1,0.1 0.47,0.6 0.46,0.7 0.22,0.3 0.1,0.1 -0.1,0.3 -0.28,0.1 -0.26,-0.1 -0.22,-0.3 -0.44,-0.7 -0.47,-0.6 -0.1,-0.1 -0.1,-0.1 0.1,-0.3 0.28,-0.1 z m -52.018,2.4 0.205,0.2 -0.04,0.3 -0.163,0.2 -0.404,0.7 -0.385,0.6 -0.114,0.2 -0.112,0.2 -0.299,0 -0.221,-0.2 0.02,-0.3 0.119,-0.2 0.394,-0.7 0.411,-0.6 0.165,-0.3 0.122,-0.1 0.301,0 z m 54.458,1 0.25,0.2 0.31,0.5 0.38,0.7 0.33,0.6 0,0.2 -0.12,0.3 -0.3,0 -0.24,-0.1 -0.33,-0.7 -0.37,-0.6 -0.31,-0.6 -0.1,-0.1 0.12,-0.3 0.29,-0.1 z m -56.563,2.6 0.236,0.2 0,0.3 -0.327,0.7 -0.308,0.7 -0.203,0.5 -0.09,0.1 -0.29,0.1 -0.245,-0.2 -0.02,-0.3 0.205,-0.4 0,-0.1 0.315,-0.7 0,0 0.327,-0.7 0.103,-0.1 0.305,-0.1 z m 58.513,1.2 0.23,0.2 0.12,0.2 0,0.1 0.3,0.7 0.28,0.7 0.1,0.2 0,0.2 -0.17,0.3 -0.3,0 -0.21,-0.2 -0.1,-0.2 -0.27,-0.8 -0.29,-0.7 -0.12,-0.3 0,-0.1 0.14,-0.3 0.29,0 z m -60.132,2.7 0.257,0.2 0.04,0.3 -0.152,0.4 0,0.1 -0.221,0.7 0,0 -0.203,0.7 -0.08,0.18 -0.275,0.1 -0.269,-0.1 -0.06,-0.28 0.207,-0.8 0,0 0.227,-0.8 0,0 0.156,-0.4 0.09,-0.2 0.285,-0.1 z m 61.302,1.2 0.27,0 0.2,0.2 0,0.1 0,0 0.21,0.8 0.19,0.78 0.1,0.4 0,0.21 -0.2,0.2 -0.3,0 -0.18,-0.2 -0.1,-0.51 -0.18,-0.78 -0.21,-0.7 0,0 0,-0.2 0.18,-0.3 z m -62.387,2.89 0.275,0.1 0.08,0.3 -0.05,0.3 -0.13,0.7 -0.11,0.8 -0.02,0.2 -0.06,0.2 -0.257,0.1 -0.285,-0.1 -0.1,-0.2 0.02,-0.2 0,-0.1 0.112,-0.7 0.13,-0.9 0.06,-0.2 0.07,-0.2 0.273,-0.1 z m 22.567,0.8 a 3.5352,3.5352 0 0 1 3.53,3.6 3.5352,3.5352 0 0 1 -3.53,3.5 3.5352,3.5352 0 0 1 -3.54,-3.5 3.5352,3.5352 0 0 1 3.54,-3.6 z m 17.47,0 a 3.5352,3.5352 0 0 1 3.53,3.6 3.5352,3.5352 0 0 1 -3.53,3.5 3.5352,3.5352 0 0 1 -3.54,-3.5 3.5352,3.5352 0 0 1 3.54,-3.6 z m 23.27,0.4 0.3,0.1 0.16,0.2 0.1,0.6 0,0.1 0.1,0.8 0,0 0,0.6 0,0.2 -0.22,0.2 -0.3,-0.1 -0.15,-0.2 -0.1,-0.6 0,-0.1 -0.1,-0.8 -0.1,-0.6 0,-0.2 0.2,-0.2 z m -40.86,1.5 a 1.532,1.532 0 0 0 -1.53,1.6 1.532,1.532 0 0 0 1.53,1.5 1.532,1.532 0 0 0 1.53,-1.5 1.532,1.532 0 0 0 -1.53,-1.6 z m 17.47,0 a 1.532,1.532 0 0 0 -1.53,1.6 1.532,1.532 0 0 0 1.53,1.5 1.532,1.532 0 0 0 1.53,-1.5 1.532,1.532 0 0 0 -1.53,-1.6 z m -16.99,0.5 a 0.76598,0.76598 0 0 1 0.76,0.8 0.76598,0.76598 0 0 1 -0.76,0.7 0.76598,0.76598 0 0 1 -0.77,-0.7 0.76598,0.76598 0 0 1 0.77,-0.8 z m 17.46,0 a 0.76598,0.76598 0 0 1 0.77,0.8 0.76598,0.76598 0 0 1 -0.77,0.7 0.76598,0.76598 0 0 1 -0.76,-0.7 0.76598,0.76598 0 0 1 0.76,-0.8 z m -40.94,0.9 0.287,0.1 0.112,0.3 0,0.2 -0.03,0.8 -0.02,0.8 0,0.3 -0.03,0.1 -0.238,0.2 -0.294,0 -0.13,-0.3 0,-0.3 0.02,-0.8 0.03,-0.9 0,-0.1 0.05,-0.2 0.252,-0.2 z m 64.25,1.3 0.3,0.1 0.13,0.2 0,0.6 0,0.8 0,0.9 0,0.4 0,0.2 -0.25,0.2 -0.29,-0.1 -0.11,-0.3 0,-0.5 0,-0.8 0,-0.8 0,-0.6 0,-0.1 0.23,-0.2 z m -64.25,3 0.296,0 0.147,0.3 0,0.1 0.07,0.7 0,0.1 0.09,0.8 0.05,0.3 -0.02,0.2 -0.212,0.2 -0.299,0 -0.168,-0.3 -0.05,-0.3 0,-0.1 -0.09,-0.8 0,0 -0.07,-0.8 0,-0.1 0.03,-0.2 0.236,-0.1 z m 64.04,1.8 0.28,0 0.1,0.3 -0.1,0.7 -0.13,0.9 -0.11,0.5 -0.1,0.2 -0.27,0.1 -0.27,-0.1 -0.1,-0.3 0.11,-0.6 0.13,-0.7 0.1,-0.8 0.1,-0.1 0.26,-0.1 z m -42.48,1.3 20.74,0 c 0,0 -1.89,5.9 -10.37,5.9 -8.48,0 -10.37,-5.9 -10.37,-5.9 z m -21.033,1 0.301,0 0.185,0.3 0.158,0.7 0.185,0.8 0.142,0.5 0,0.2 -0.182,0.2 -0.301,0 -0.196,-0.2 -0.147,-0.6 -0.189,-0.7 -0.159,-0.8 0,-0.2 0.203,-0.2 z m 59.403,0.8 c 0,0 0.34,0.7 0.56,1.1 l 0.72,0.9 c 0,0 -0.72,0.4 -1.05,0.6 -0.29,0.2 -1.01,0.8 -1.01,0.8 0,0 -0.19,-0.8 -0.45,-1.2 -0.23,-0.4 -0.9,-1.1 -0.9,-1.1 0,0 0.87,-0.1 1.28,-0.4 0.42,-0.2 0.85,-0.7 0.85,-0.7 z m -6.91,0.2 0,0 c 0,0 0,0 0,0 0.71,0.2 1.41,0.4 2.13,0.7 0,0 1.89,0.5 2.76,1.8 0.81,1.3 -0.16,3.1 -0.16,3.1 0,0 -2.44,5.7 -8.29,10.2 -0.1,0.1 -0.16,0.1 -0.2,0.1 l 0,0.1 -0.12,0 -0.11,0.1 c -0.1,0.1 -0.17,0.1 -0.21,0.2 -6.03,4.2 -12.04,4.9 -12.04,4.9 0,0 -2.07,0.3 -3.03,-0.8 -1,-1.2 -0.89,-3.2 -0.89,-3.2 l 0,-0.6 c 12.19,-0.5 18.38,-9.2 20.2,-16.6 0,0 0,0 0,0 z m -41.3,0.2 0,0 c 0,0 0,0 0,0 2.04,7.5 8.25,16.6 20.44,16.4 l 0.21,0 0,0.4 c 0,0 0.1,2 -0.88,3.1 -0.98,1.2 -3.05,0.9 -3.05,0.9 0,0 -6.16,-0.6 -12.19,-4.8 -0.1,0 -0.16,-0.1 -0.22,-0.1 l 0,0 -0.12,-0.1 -0.11,-0.1 c -0.1,-0.1 -0.14,-0.1 -0.2,-0.2 -5.86,-4.4 -8.42,-9.9 -8.42,-9.9 0,0 -0.973,-1.8 -0.14,-3.2 0.83,-1.2 2.74,-1.7 2.74,-1.7 0.67,-0.3 1.32,-0.5 1.97,-0.7 0,0 0,0 0,0 z m -6.781,0 c 0,0 0.591,0.5 0.997,0.7 0.406,0.2 1.284,0.3 1.284,0.3 0,0 -0.566,0.6 -0.748,1 -0.175,0.4 -0.24,1.1 -0.24,1.1 0,0 -0.658,-0.4 -0.994,-0.5 l -1.047,-0.4 c 0,0 0.315,-0.7 0.424,-1 0.107,-0.3 0.324,-1.2 0.324,-1.2 z m 58.331,0.6 0.27,0.1 0,0.3 -0.13,0.5 0,0 -0.23,0.8 0,0 -0.24,0.7 -0.1,0.2 -0.28,0.1 -0.26,-0.2 0,-0.3 0.24,-0.7 0,0 0.22,-0.8 0.14,-0.5 0.1,-0.1 0.28,-0.1 z m -61.364,2.2 0.213,0.3 0.165,0.4 0.273,0.8 0.29,0.7 0,0 0.03,0.2 -0.147,0.2 -0.297,0.1 -0.226,-0.2 0,0 0,-0.1 -0.299,-0.7 -0.28,-0.7 -0.168,-0.5 -0.02,-0.2 0.163,-0.2 0.308,-0.1 z m 60.064,1.7 0.24,0.2 0,0.3 -0.1,0.2 0,0.1 -0.31,0.7 0,0 -0.33,0.7 -0.13,0.3 -0.1,0.1 -0.3,0 -0.23,-0.1 0,-0.4 0.12,-0.2 0.32,-0.7 0.31,-0.7 0.1,-0.2 0.1,-0.2 0.29,-0.1 z m -58.477,2.2 0.236,0.2 0.09,0.2 0.36,0.7 0.371,0.6 0.158,0.3 0.05,0.2 -0.114,0.2 -0.287,0.1 -0.25,-0.1 -0.163,-0.3 -0.38,-0.7 0,0 -0.364,-0.7 0,0 -0.1,-0.2 -0.04,-0.2 0.133,-0.2 0.292,-0.1 z m 56.677,1.6 0.21,0.2 0,0.3 -0.37,0.7 -0.41,0.6 -0.32,0.5 -0.12,0.1 -0.3,0.1 -0.21,-0.3 0,-0.3 0.32,-0.4 0.4,-0.7 0.37,-0.6 0.12,-0.1 0.3,-0.1 z m -54.598,2 0.261,0.2 0.383,0.5 0,0 0.445,0.6 0.39,0.6 0.06,0.1 -0.08,0.3 -0.275,0.1 -0.268,-0.1 -0.395,-0.5 -0.455,-0.7 -0.389,-0.5 -0.06,-0.2 0.09,-0.3 0.28,-0.1 z m 51.998,1.5 0.3,0 0.19,0.3 -0.1,0.2 -0.25,0.4 0,0 -0.48,0.6 0,0 -0.5,0.6 -0.1,0.1 -0.14,0.1 -0.3,0 -0.17,-0.3 0.1,-0.3 0.1,-0.1 0,0 0.49,-0.5 0,-0.1 0.47,-0.6 0.25,-0.3 0.13,-0.1 z m -49.46,1.8 0.27,0.1 0.23,0.3 0.52,0.6 0.52,0.5 0.15,0.2 0.1,0.1 0,0.3 -0.26,0.1 -0.28,-0.1 -0.15,-0.1 0,0 -0.54,-0.6 -0.53,-0.5 -0.23,-0.3 -0.1,-0.1 0.1,-0.3 0.26,-0.2 z m 46.74,1.4 0.29,0 0.17,0.3 -0.1,0.2 -0.1,0.1 0,0 -0.56,0.5 -0.56,0.6 -0.36,0.3 -0.15,0.1 -0.29,-0.1 -0.15,-0.2 0.12,-0.3 0.36,-0.3 0.56,-0.6 0.54,-0.5 0,-0.1 0.13,0 z m -43.8,1.6 0.28,0.1 0.58,0.4 0.59,0.5 0.43,0.4 0.1,0.1 0,0.3 -0.23,0.2 -0.29,-0.1 -0.44,-0.3 0,0 -0.6,-0.5 0,0 -0.59,-0.5 -0.1,-0.1 0,-0.3 0.24,-0.2 z m 40.7,1.1 0.3,0.1 0.12,0.3 -0.14,0.3 -0.4,0.3 -0.62,0.4 -0.64,0.5 0,0 -0.16,0 -0.28,0 -0.1,-0.3 0.15,-0.3 0,0 0.62,-0.5 0.61,-0.4 0.4,-0.3 0.15,-0.1 z m -37.41,1.4 0.3,0.1 0.37,0.2 0.64,0.4 0.65,0.4 0.1,0.1 0.12,0.1 0,0.3 -0.2,0.2 -0.3,0 -0.1,-0.1 -0.67,-0.4 -0.66,-0.4 -0.37,-0.2 -0.11,-0.2 0,-0.3 0.21,-0.2 z m 18.34,0.3 c 0,0 0.44,0.8 0.78,1.1 0.37,0.3 0.97,0.6 0.97,0.6 0,0 -0.62,0.5 -0.84,0.8 l -0.7,1 c 0,0 -0.6,-0.5 -0.91,-0.8 -0.29,-0.2 -1.05,-0.7 -1.05,-0.7 0,0 0.68,-0.4 0.99,-0.8 0.31,-0.3 0.76,-1.2 0.76,-1.2 z m 15.62,0.7 0.28,0.1 0.1,0.3 -0.17,0.2 -0.16,0.1 -0.68,0.4 0,0 -0.68,0.4 -0.33,0.1 -0.16,0.1 -0.27,-0.2 -0.1,-0.3 0.19,-0.2 0.31,-0.1 0.69,-0.4 0.67,-0.4 0.14,-0.1 0.15,0 z m -30.35,1.1 0.3,0 0.11,0.1 0.7,0.3 0.7,0.3 0.37,0.2 0.13,0.1 0.1,0.3 -0.18,0.2 -0.3,0 -0.37,-0.1 -0.72,-0.3 -0.7,-0.4 -0.13,0 -0.12,-0.2 -0.1,-0.2 0.19,-0.3 z m 26.65,0.7 0.26,0.2 0,0.3 -0.2,0.2 -0.61,0.3 -0.74,0.2 -0.61,0.3 -0.17,0 -0.25,-0.2 0,-0.3 0.21,-0.2 0.61,-0.2 0.73,-0.3 0.6,-0.2 0.16,-0.1 z m -22.52,0.9 0.61,0.2 0.75,0.2 0.63,0.2 0.15,0.1 0.11,0.3 -0.14,0.2 -0.3,0.1 -0.64,-0.2 -0.76,-0.2 -0.61,-0.2 -0.14,-0.1 -0.1,-0.3 0.16,-0.3 0.28,0 z m 18.44,0.5 0.15,0 0.24,0.2 0,0.3 -0.23,0.2 -0.4,0.1 -0.78,0.2 -0.78,0.2 0,0 -0.1,0 -0.16,0 -0.23,-0.2 0,-0.3 0.25,-0.2 0.1,0 0.76,-0.2 0.77,-0.2 0.39,-0.1 z m -14.42,0.5 0.41,0.1 0.79,0.2 0.79,0.1 0,0 0.16,0 0.15,0.3 -0.1,0.3 -0.29,0.1 -0.1,0 -0.8,-0.1 -0.79,-0.2 -0.43,-0.1 -0.15,0 -0.13,-0.3 0.12,-0.3 0.28,-0.1 z m 10.32,0.3 0.17,0 0.21,0.3 0,0.3 -0.25,0.1 -0.23,0.1 -0.81,0.1 -0.81,0 -0.24,0 -0.16,0 -0.2,-0.2 0,-0.3 0.27,-0.2 0.23,0 0.8,0 0.79,-0.1 0.21,-0.1 z m -6.2,0.3 0.3,0 0.81,0 0.81,0 0.14,0 0.16,0.1 0.18,0.2 -0.1,0.3 -0.27,0.1 -0.14,0 -0.83,0 -0.82,0 -0.3,0 -0.16,-0.1 -0.17,-0.2 0.1,-0.3 0.27,-0.1 z" id="path5304" inkscape:connector-curvature="0" />
    <circle r="0" style="opacity:1;fill:#666666;fill-opacity:1;stroke:none;stroke-width:2.5;stroke-linecap:round;stroke-linejoin:round;stroke-miterlimit:4;stroke-dasharray:none;stroke-dashoffset:0;stroke-opacity:1" id="ellipse4185" cx="71.594" cy="996.69" />
    <circle r="0" style="opacity:1;fill:#414141;fill-opacity:1;stroke:none;stroke-width:2.5;stroke-linecap:round;stroke-linejoin:round;stroke-miterlimit:4;stroke-dasharray:none;stroke-dashoffset:0;stroke-opacity:1" id="ellipse4185-5" cx="38.023" cy="1055.8" />
  </g>
</svg>
