<?xml version="1.0" encoding="UTF-8"?>
<svg version="1.1" viewBox="0 0 250 91" xmlns="http://www.w3.org/2000/svg" xmlns:cc="http://creativecommons.org/ns#" xmlns:dc="http://purl.org/dc/elements/1.1/" xmlns:rdf="http://www.w3.org/1999/02/22-rdf-syntax-ns#">
<metadata>
<rdf:RDF>
<cc:Work rdf:about="">
<dc:format>image/svg+xml</dc:format>
<dc:type rdf:resource="http://purl.org/dc/dcmitype/StillImage"/>
<dc:title/>
</cc:Work>
</rdf:RDF>
</metadata>
<g transform="translate(0,-961.4)">
<path d="m125 971.91a34.998 34.998 0 0 0-35 34.99 34.998 34.998 0 0 0 35 35 34.998 34.998 0 0 0 35-35 34.998 34.998 0 0 0-35-34.99zm-0.43 2.5h0.44 0.83 0.82l0.16 0.1 0.17 0.2-0.1 0.3-0.28 0.1h-0.81-0.82-0.41l-0.16-0.1-0.19-0.2 0.1-0.3 0.27-0.1zm-2.12 0.1h0.17l0.2 0.2v0.3l-0.26 0.2-0.76 0.1h-0.8l-0.5 0.1h-0.16l-0.22-0.2v-0.3l0.25-0.2 0.51-0.1 0.81-0.1h0.78zm6.37 0.1h0.33l0.8 0.2 0.8 0.1h0.15l0.15 0.1 0.13 0.3-0.12 0.2-0.3 0.1h-0.14l-0.78-0.2-0.79-0.1h-0.32l-0.16-0.1-0.15-0.2 0.1-0.3 0.3-0.1zm-10.58 0.5h0.17l0.23 0.2v0.3l-0.24 0.2-0.59 0.1-0.76 0.2-0.67 0.2h-0.16l-0.24-0.2v-0.3l0.23-0.2 0.67-0.2 0.78-0.2 0.58-0.1zm14.74 0.3h0.15l0.77 0.2 0.76 0.2 0.34 0.1 0.14 0.1 0.1 0.3-0.15 0.3h-0.3l-0.34-0.1-1.5-0.4-0.14-0.1h-0.15l-0.12-0.3 0.14-0.3h0.3zm-18.64 0.8 0.25 0.2v0.3l-0.21 0.2-0.35 0.1-0.72 0.3-0.71 0.3h-0.14l-0.16 0.1-0.27-0.2v-0.3l0.2-0.2 0.15-0.1 0.72-0.3 0.74-0.3 0.35-0.1h0.17zm22.69 0.5 0.63 0.2 0.72 0.4 0.57 0.2 0.13 0.1 0.1 0.3-0.19 0.3h-0.3l-0.57-0.3-0.71-0.3-0.62-0.3-0.14-0.1-0.1-0.3 0.18-0.2h0.31zm-26.6 1.2 0.27 0.1 0.1 0.3-0.19 0.2-0.1 0.1-0.67 0.3-0.67 0.4-0.38 0.2-0.16 0.1-0.28-0.1-0.1-0.3 0.17-0.3 0.4-0.2 0.67-0.4 0.69-0.4h0.1 0.16zm14.29 0.5h0.28 0.16 0.14 0.26c7.34 0.1 12.62 3 12.62 3s1.89 1 1.98 2.5c0.1 1.5-1.15 3.1-1.15 3.1-1.04 1.4-2.02 2.8-3 4.2l-11.03-10.5-10.84 10.1s-0.12 0.2-0.16 0.2c-0.91-1.2-1.82-2.5-2.74-3.8 0 0-1.24-1.5-1.15-3.1 0.1-1.5 1.98-2.4 1.98-2.4s5.32-3.2 12.64-3.3zm15.82 0.1h0.3l0.34 0.2 0.67 0.4 0.66 0.4 0.13 0.1 0.11 0.1v0.3l-0.22 0.2h-0.3l-0.12-0.1-1.3-0.8-0.33-0.2-0.12-0.1v-0.3l0.2-0.2zm-33.77 1.5 0.29 0.1 0.11 0.3-0.15 0.2-0.43 0.3-0.62 0.5-0.6 0.4-0.14 0.1-0.3-0.1-0.12-0.2 0.13-0.3 0.61-0.5 0.63-0.4 0.44-0.3 0.15-0.1zm37.34 0.7 0.3 0.1 0.61 0.5 0.6 0.5 0.38 0.3 0.1 0.1v0.3l-0.24 0.2-0.29-0.1-0.37-0.3-0.6-0.4-0.6-0.5-0.1-0.2v-0.3l0.23-0.2zm-1.49 1.7s0.15 0.8 0.27 1.1c0.11 0.4 0.41 1.2 0.41 1.2s-0.76-0.1-1.21 0.1c-0.46 0-1.26 0.5-1.26 0.5s0.1-0.9 0-1.3c-0.1-0.5-0.42-1-0.42-1s0.8-0.1 1.13-0.2l1.08-0.4zm-39.19 0.2 0.3 0.1 0.14 0.2-0.12 0.3-0.14 0.1-0.56 0.6-0.54 0.5-0.24 0.2-0.13 0.1h-0.3l-0.16-0.3 0.1-0.3 0.25-0.2 0.55-0.5 0.56-0.6 0.3-0.2zm4.1 0.5s0.71 0.1 1.04 0.1 1.12-0.1 1.12-0.1-0.25 0.7-0.29 1.1c0 0.4 0.1 1.3 0.1 1.3s-0.71-0.4-1.12-0.4c-0.42-0.1-1 0.1-1 0.1s0.16-0.7 0.16-1.1v-1zm39.82 0.4 0.29 0.1 0.35 0.3 0.54 0.6 0.52 0.5v0.1l0.1 0.1-0.1 0.3-0.26 0.1-0.28-0.1-0.51-0.6-0.53-0.5-0.35-0.3-0.1-0.2v-0.3l0.26-0.1zm-4.73 1.9c1.29 0.1 2.39 1.2 2.39 1.2s4.66 4.1 7.06 11c0.1 0.1 0.1 0.2 0.1 0.2v0.1 0.1l0.1 0.2c0.1 0.1 0 0.2 0.1 0.2 2.14 6.99 0.99 12.99 0.99 12.99s-0.31 2.1-1.74 2.6c-1.44 0.6-3.27-0.1-3.27-0.1-0.77-0.3-1.52-0.5-2.26-0.7 0.27-1.3 0.4-2.6 0.4-3.7 0-8.1-7.78-15.79-7.78-15.79l-2.17-2.1c0.97-1.3 1.96-2.7 2.98-4.1 0 0 1.07-1.6 2.58-2 0.19-0.1 0.38-0.1 0.56-0.1zm-42.17 0.2h0.3l0.18 0.3-0.1 0.3-0.4 0.4-0.481 0.6-0.418 0.6-0.126 0.1h-0.301l-0.191-0.2 0.06-0.3 0.422-0.6 0.486-0.6 0.409-0.5 0.14-0.1zm7.34 0.2h0.56c1.48 0.4 2.56 2.1 2.56 2.1 0.93 1.2 1.8 2.4 2.65 3.6-2.17 2.3-9.78 10.99-9.78 17.49 0 1.4 0.21 3 0.64 4.8-0.62 0.2-1.24 0.4-1.87 0.6 0 0-1.84 0.7-3.276 0.1-1.435-0.6-1.745-2.6-1.745-2.6s-1.341-6.1 0.765-13.09c0.03-0.1 0.05-0.2 0.08-0.3l0.05-0.1 0.05-0.2c0.03 0 0.05-0.1 0.08-0.2 2.406-6.9 6.816-11.1 6.816-11.1s1.13-1.1 2.42-1.1zm42.42 0.8 0.27 0.1 0.1 0.1 0.47 0.6 0.46 0.7 0.22 0.3 0.1 0.1-0.1 0.3-0.28 0.1-0.26-0.1-0.22-0.3-0.44-0.7-0.47-0.6-0.2-0.2 0.1-0.3 0.28-0.1zm-52.018 2.4 0.205 0.2-0.04 0.3-0.163 0.2-0.404 0.7-0.385 0.6-0.114 0.2-0.112 0.2h-0.299l-0.221-0.2 0.02-0.3 0.119-0.2 0.394-0.7 0.411-0.6 0.165-0.3 0.122-0.1h0.301zm54.458 1 0.25 0.2 0.31 0.5 0.38 0.7 0.33 0.6v0.2l-0.12 0.3h-0.3l-0.24-0.1-0.33-0.7-0.37-0.6-0.31-0.6-0.1-0.1 0.12-0.3 0.29-0.1zm-56.563 2.6 0.236 0.2v0.3l-0.327 0.7-0.308 0.7-0.203 0.5-0.09 0.1-0.29 0.1-0.245-0.2-0.02-0.3 0.205-0.4v-0.1l0.315-0.7 0.327-0.7 0.103-0.1 0.305-0.1zm58.513 1.2 0.23 0.2 0.12 0.2v0.1l0.3 0.7 0.28 0.7 0.1 0.2v0.2l-0.17 0.3h-0.3l-0.21-0.2-0.1-0.2-0.27-0.8-0.29-0.7-0.12-0.3v-0.1l0.14-0.3h0.29zm-60.132 2.7 0.257 0.2 0.04 0.3-0.152 0.4v0.1l-0.221 0.7-0.203 0.7-0.08 0.18-0.275 0.1-0.269-0.1-0.06-0.28 0.207-0.8 0.227-0.8 0.156-0.4 0.09-0.2 0.285-0.1zm61.302 1.2h0.27l0.2 0.2v0.1l0.21 0.8 0.19 0.78 0.1 0.4v0.21l-0.2 0.2h-0.3l-0.18-0.2-0.1-0.51-0.18-0.78-0.21-0.7v-0.2l0.18-0.3zm-62.387 2.89 0.275 0.1 0.08 0.3-0.05 0.3-0.13 0.7-0.11 0.8-0.02 0.2-0.06 0.2-0.257 0.1-0.285-0.1-0.1-0.2 0.02-0.2v-0.1l0.112-0.7 0.13-0.9 0.06-0.2 0.07-0.2 0.273-0.1zm22.567 0.8a3.5352 3.5352 0 0 1 3.53 3.6 3.5352 3.5352 0 0 1-3.53 3.5 3.5352 3.5352 0 0 1-3.54-3.5 3.5352 3.5352 0 0 1 3.54-3.6zm17.47 0a3.5352 3.5352 0 0 1 3.53 3.6 3.5352 3.5352 0 0 1-3.53 3.5 3.5352 3.5352 0 0 1-3.54-3.5 3.5352 3.5352 0 0 1 3.54-3.6zm23.27 0.4 0.3 0.1 0.16 0.2 0.1 0.6v0.1l0.1 0.8v0.6 0.2l-0.22 0.2-0.3-0.1-0.15-0.2-0.1-0.6v-0.1l-0.1-0.8-0.1-0.6v-0.2l0.2-0.2zm-40.86 1.5a1.532 1.532 0 0 0-1.53 1.6 1.532 1.532 0 0 0 1.53 1.5 1.532 1.532 0 0 0 1.53-1.5 1.532 1.532 0 0 0-1.53-1.6zm17.47 0a1.532 1.532 0 0 0-1.53 1.6 1.532 1.532 0 0 0 1.53 1.5 1.532 1.532 0 0 0 1.53-1.5 1.532 1.532 0 0 0-1.53-1.6zm-16.99 0.5a0.76598 0.76598 0 0 1 0.76 0.8 0.76598 0.76598 0 0 1-0.76 0.7 0.76598 0.76598 0 0 1-0.77-0.7 0.76598 0.76598 0 0 1 0.77-0.8zm17.46 0a0.76598 0.76598 0 0 1 0.77 0.8 0.76598 0.76598 0 0 1-0.77 0.7 0.76598 0.76598 0 0 1-0.76-0.7 0.76598 0.76598 0 0 1 0.76-0.8zm-40.94 0.9 0.287 0.1 0.112 0.3v0.2l-0.03 0.8-0.02 0.8v0.3l-0.03 0.1-0.238 0.2h-0.294l-0.13-0.3v-0.3l0.02-0.8 0.03-0.9v-0.1l0.05-0.2 0.252-0.2zm64.25 1.3 0.3 0.1 0.13 0.2v0.6 0.8 0.9 0.4 0.2l-0.25 0.2-0.29-0.1-0.11-0.3v-0.5-0.8-0.8-0.6-0.1l0.23-0.2zm-64.25 3h0.296l0.147 0.3v0.1l0.07 0.7v0.1l0.09 0.8 0.05 0.3-0.02 0.2-0.212 0.2h-0.299l-0.168-0.3-0.05-0.3v-0.1l-0.09-0.8-0.07-0.8v-0.1l0.03-0.2 0.236-0.1zm64.04 1.8h0.28l0.1 0.3-0.1 0.7-0.13 0.9-0.11 0.5-0.1 0.2-0.27 0.1-0.27-0.1-0.1-0.3 0.11-0.6 0.13-0.7 0.1-0.8 0.1-0.1 0.26-0.1zm-42.48 1.3h20.74s-1.89 5.9-10.37 5.9-10.37-5.9-10.37-5.9zm-21.033 1h0.301l0.185 0.3 0.158 0.7 0.185 0.8 0.142 0.5v0.2l-0.182 0.2h-0.301l-0.196-0.2-0.147-0.6-0.189-0.7-0.159-0.8v-0.2l0.203-0.2zm59.403 0.8s0.34 0.7 0.56 1.1l0.72 0.9s-0.72 0.4-1.05 0.6c-0.29 0.2-1.01 0.8-1.01 0.8s-0.19-0.8-0.45-1.2c-0.23-0.4-0.9-1.1-0.9-1.1s0.87-0.1 1.28-0.4c0.42-0.2 0.85-0.7 0.85-0.7zm-6.91 0.2c0.71 0.2 1.41 0.4 2.13 0.7 0 0 1.89 0.5 2.76 1.8 0.81 1.3-0.16 3.1-0.16 3.1s-2.44 5.7-8.29 10.2c-0.1 0.1-0.16 0.1-0.2 0.1v0.1h-0.12l-0.11 0.1c-0.1 0.1-0.17 0.1-0.21 0.2-6.03 4.2-12.04 4.9-12.04 4.9s-2.07 0.3-3.03-0.8c-1-1.2-0.89-3.2-0.89-3.2v-0.6c12.19-0.5 18.38-9.2 20.2-16.6zm-41.3 0.2c2.04 7.5 8.25 16.6 20.44 16.4h0.21v0.4s0.1 2-0.88 3.1c-0.98 1.2-3.05 0.9-3.05 0.9s-6.16-0.6-12.19-4.8c-0.1 0-0.16-0.1-0.22-0.1l-0.12-0.1-0.11-0.1c-0.1-0.1-0.14-0.1-0.2-0.2-5.86-4.4-8.42-9.9-8.42-9.9s-0.973-1.8-0.14-3.2c0.83-1.2 2.74-1.7 2.74-1.7 0.67-0.3 1.32-0.5 1.97-0.7zm-6.781 0s0.591 0.5 0.997 0.7 1.284 0.3 1.284 0.3-0.566 0.6-0.748 1c-0.175 0.4-0.24 1.1-0.24 1.1s-0.658-0.4-0.994-0.5l-1.047-0.4s0.315-0.7 0.424-1c0.107-0.3 0.324-1.2 0.324-1.2zm58.331 0.6 0.27 0.1v0.3l-0.13 0.5-0.23 0.8-0.24 0.7-0.1 0.2-0.28 0.1-0.26-0.2v-0.3l0.24-0.7 0.22-0.8 0.14-0.5 0.1-0.1 0.28-0.1zm-61.364 2.2 0.213 0.3 0.165 0.4 0.273 0.8 0.29 0.7 0.03 0.2-0.147 0.2-0.297 0.1-0.226-0.2v-0.1l-0.299-0.7-0.28-0.7-0.168-0.5-0.02-0.2 0.163-0.2 0.308-0.1zm60.064 1.7 0.24 0.2v0.3l-0.1 0.2v0.1l-0.31 0.7-0.33 0.7-0.13 0.3-0.1 0.1h-0.3l-0.23-0.1v-0.4l0.12-0.2 0.32-0.7 0.31-0.7 0.2-0.4 0.29-0.1zm-58.477 2.2 0.236 0.2 0.09 0.2 0.36 0.7 0.371 0.6 0.158 0.3 0.05 0.2-0.114 0.2-0.287 0.1-0.25-0.1-0.163-0.3-0.38-0.7-0.364-0.7-0.1-0.2-0.04-0.2 0.133-0.2 0.292-0.1zm56.677 1.6 0.21 0.2v0.3l-0.37 0.7-0.41 0.6-0.32 0.5-0.12 0.1-0.3 0.1-0.21-0.3v-0.3l0.32-0.4 0.4-0.7 0.37-0.6 0.12-0.1 0.3-0.1zm-54.598 2 0.261 0.2 0.383 0.5 0.445 0.6 0.39 0.6 0.06 0.1-0.08 0.3-0.275 0.1-0.268-0.1-0.395-0.5-0.455-0.7-0.389-0.5-0.06-0.2 0.09-0.3 0.28-0.1zm51.998 1.5h0.3l0.19 0.3-0.1 0.2-0.25 0.4-0.48 0.6-0.5 0.6-0.1 0.1-0.14 0.1h-0.3l-0.17-0.3 0.1-0.3 0.1-0.1 0.49-0.5v-0.1l0.47-0.6 0.25-0.3 0.13-0.1zm-49.46 1.8 0.27 0.1 0.23 0.3 0.52 0.6 0.52 0.5 0.15 0.2 0.1 0.1v0.3l-0.26 0.1-0.28-0.1-0.15-0.1-0.54-0.6-0.53-0.5-0.23-0.3-0.1-0.1 0.1-0.3 0.26-0.2zm46.74 1.4h0.29l0.17 0.3-0.1 0.2-0.1 0.1-0.56 0.5-0.56 0.6-0.36 0.3-0.15 0.1-0.29-0.1-0.15-0.2 0.12-0.3 0.36-0.3 0.56-0.6 0.54-0.5v-0.1h0.13zm-43.8 1.6 0.28 0.1 0.58 0.4 0.59 0.5 0.43 0.4 0.1 0.1v0.3l-0.23 0.2-0.29-0.1-0.44-0.3-0.6-0.5-0.59-0.5-0.1-0.1v-0.3l0.24-0.2zm40.7 1.1 0.3 0.1 0.12 0.3-0.14 0.3-0.4 0.3-0.62 0.4-0.64 0.5h-0.16-0.28l-0.1-0.3 0.15-0.3 0.62-0.5 0.61-0.4 0.4-0.3 0.15-0.1zm-37.41 1.4 0.3 0.1 0.37 0.2 0.64 0.4 0.65 0.4 0.1 0.1 0.12 0.1v0.3l-0.2 0.2h-0.3l-0.1-0.1-0.67-0.4-0.66-0.4-0.37-0.2-0.11-0.2v-0.3l0.21-0.2zm18.34 0.3s0.44 0.8 0.78 1.1c0.37 0.3 0.97 0.6 0.97 0.6s-0.62 0.5-0.84 0.8l-0.7 1s-0.6-0.5-0.91-0.8c-0.29-0.2-1.05-0.7-1.05-0.7s0.68-0.4 0.99-0.8c0.31-0.3 0.76-1.2 0.76-1.2zm15.62 0.7 0.28 0.1 0.1 0.3-0.17 0.2-0.16 0.1-1.36 0.8-0.33 0.1-0.16 0.1-0.27-0.2-0.1-0.3 0.19-0.2 0.31-0.1 0.69-0.4 0.67-0.4 0.14-0.1h0.15zm-30.35 1.1h0.3l0.11 0.1 1.4 0.6 0.37 0.2 0.13 0.1 0.1 0.3-0.18 0.2h-0.3l-0.37-0.1-0.72-0.3-0.7-0.4h-0.13l-0.12-0.2-0.1-0.2 0.19-0.3zm26.65 0.7 0.26 0.2v0.3l-0.2 0.2-0.61 0.3-0.74 0.2-0.61 0.3h-0.17l-0.25-0.2v-0.3l0.21-0.2 0.61-0.2 0.73-0.3 0.6-0.2 0.16-0.1zm-22.52 0.9 0.61 0.2 0.75 0.2 0.63 0.2 0.15 0.1 0.11 0.3-0.14 0.2-0.3 0.1-0.64-0.2-0.76-0.2-0.61-0.2-0.14-0.1-0.1-0.3 0.16-0.3h0.28zm18.44 0.5h0.15l0.24 0.2v0.3l-0.23 0.2-0.4 0.1-1.56 0.4h-0.1-0.16l-0.23-0.2v-0.3l0.25-0.2h0.1l0.76-0.2 0.77-0.2 0.39-0.1zm-14.42 0.5 0.41 0.1 0.79 0.2 0.79 0.1h0.16l0.15 0.3-0.1 0.3-0.29 0.1h-0.1l-0.8-0.1-0.79-0.2-0.43-0.1h-0.15l-0.13-0.3 0.12-0.3 0.28-0.1zm10.32 0.3h0.17l0.21 0.3v0.3l-0.25 0.1-0.23 0.1-0.81 0.1h-0.81-0.24-0.16l-0.2-0.2v-0.3l0.27-0.2h0.23 0.8l0.79-0.1 0.21-0.1zm-6.2 0.3h0.3 0.81 0.81 0.14l0.16 0.1 0.18 0.2-0.1 0.3-0.27 0.1h-0.14-0.83-0.82-0.3l-0.16-0.1-0.17-0.2 0.1-0.3 0.27-0.1z" fill="#fff" fill-rule="evenodd"/>
<circle cx="71.594" cy="996.69" r="0" fill="#666"/>
<circle cx="38.023" cy="1055.8" r="0" fill="#414141"/>
</g>
</svg>
