<?xml version="1.0" encoding="UTF-8" standalone="no"?>
<!-- Created with Inkscape (http://www.inkscape.org/) -->

<svg
   xmlns:dc="http://purl.org/dc/elements/1.1/"
   xmlns:cc="http://creativecommons.org/ns#"
   xmlns:rdf="http://www.w3.org/1999/02/22-rdf-syntax-ns#"
   xmlns:svg="http://www.w3.org/2000/svg"
   xmlns="http://www.w3.org/2000/svg"
   xmlns:sodipodi="http://sodipodi.sourceforge.net/DTD/sodipodi-0.dtd"
   xmlns:inkscape="http://www.inkscape.org/namespaces/inkscape"
   width="250"
   height="91"
   viewBox="0 0 250 91"
   id="svg2"
   version="1.1"
   inkscape:version="0.92.2 (5c3e80d, 2017-08-06)"
   sodipodi:docname="dxw.svg">
  <defs
     id="defs4" />
  <sodipodi:namedview
     id="base"
     pagecolor="#ffffff"
     bordercolor="#666666"
     borderopacity="1.0"
     inkscape:pageopacity="0.0"
     inkscape:pageshadow="2"
     inkscape:zoom="2.79"
     inkscape:cx="118.47302"
     inkscape:cy="28.488"
     inkscape:document-units="px"
     inkscape:current-layer="layer1"
     showgrid="true"
     inkscape:window-width="1920"
     inkscape:window-height="1001"
     inkscape:window-x="-9"
     inkscape:window-y="-9"
     inkscape:window-maximized="1"
     units="px">
    <inkscape:grid
       type="xygrid"
       id="grid5735" />
  </sodipodi:namedview>
  <metadata
     id="metadata7">
    <rdf:RDF>
      <cc:Work
         rdf:about="">
        <dc:format>image/svg+xml</dc:format>
        <dc:type
           rdf:resource="http://purl.org/dc/dcmitype/StillImage" />
        <dc:title></dc:title>
      </cc:Work>
    </rdf:RDF>
  </metadata>
  <g
     inkscape:label="Layer 1"
     inkscape:groupmode="layer"
     id="layer1"
     transform="translate(0,-961.4)">
    <path
       style="fill:#ffffff;fill-opacity:1"
       d=""
       id="path4239"
       inkscape:connector-curvature="0" />
    <path
       style="fill:#ffffff;stroke-width:0.70513743"
       inkscape:connector-curvature="0"
       class="st0"
       d="m 36.64628,1015.4322 -9.80141,-5.7116 v 11.3527 l 9.80141,5.6411 9.871924,5.7116 v -11.3527 z"
       id="path5158" />
    <path
       style="fill:#ffffff;stroke-width:0.70513743;opacity:0.75"
       inkscape:connector-curvature="0"
       class="st1"
       d="m 36.64628,992.72676 -9.80141,5.6411 v 11.35274 l 9.80141,5.7116 v -11.3527 l 9.871924,-5.71164 v -11.35271 z m 19.673335,22.70544 -9.801411,5.6411 v 11.3527 l 9.801411,-5.7116 9.80141,-5.6411 v -11.3527 z"
       id="path5160" />
    <path
       style="fill:#ffffff;stroke-width:0.70513743"
       inkscape:connector-curvature="0"
       class="st0"
       d="m 56.319615,981.37405 v 34.05815 l 9.80141,-5.7116 v -22.70545 z"
       id="path5162" />
    <g
       style="enable-background:new;fill:#ffffff;opacity:0.75"
       class="st2"
       id="g5166"
       transform="matrix(0.70513743,0,0,0.70513743,26.84487,981.37405)">
      <path
         style="fill:#ffffff"
         inkscape:connector-curvature="0"
         class="st3"
         d="m 95.2,54.2 c -1,0.3 -2.3,0.6 -3.9,0.9 -1.6,0.3 -3.2,0.4 -5,0.4 -1.8,0 -3.4,-0.3 -4.8,-0.8 -1.4,-0.5 -2.6,-1.3 -3.6,-2.4 -1,-1 -1.8,-2.3 -2.3,-3.7 -0.5,-1.5 -0.8,-3.1 -0.8,-4.9 0,-1.8 0.2,-3.4 0.7,-4.9 0.4,-1.5 1.1,-2.7 2,-3.7 0.9,-1 1.9,-1.8 3.2,-2.4 1.2,-0.6 2.7,-0.8 4.3,-0.8 1.1,0 2.1,0.1 2.9,0.4 0.8,0.3 1.6,0.5 2.2,0.9 v -11 l 5.2,-0.9 V 54.2 Z M 80.1,43.5 c 0,2.3 0.5,4.1 1.6,5.4 1.1,1.3 2.6,2 4.5,2 0.8,0 1.5,0 2.1,-0.1 0.6,-0.1 1.1,-0.2 1.4,-0.2 v -13 c -0.5,-0.3 -1.1,-0.6 -1.8,-0.9 -0.8,-0.3 -1.6,-0.4 -2.4,-0.4 -1.9,0 -3.3,0.6 -4.2,1.9 -0.7,1.3 -1.2,3.1 -1.2,5.3 z m 29.8,-4.3 4.8,-6.9 h 5.5 l -7.6,10.8 c 1.6,2 3.1,4 4.6,6 1.5,2 2.7,4 3.6,5.7 h -5.7 c -0.3,-0.5 -0.6,-1.1 -1,-1.7 -0.4,-0.6 -0.9,-1.3 -1.3,-2 -0.5,-0.7 -1,-1.4 -1.5,-2 -0.5,-0.7 -1,-1.3 -1.5,-1.9 -1,1.2 -2,2.5 -3,3.9 -1,1.4 -1.8,2.7 -2.4,3.8 H 99 c 0.4,-0.9 1,-1.8 1.6,-2.7 0.6,-1 1.3,-1.9 2,-2.9 0.7,-1 1.4,-2 2.2,-3 0.8,-1 1.5,-2 2.2,-2.9 L 99.3,32.3 h 5.8 z"
         id="path5164" />
    </g>
    <g
       style="enable-background:new;fill:#ffffff;opacity:0.75"
       class="st2"
       id="g5170"
       transform="matrix(0.70513743,0,0,0.70513743,26.84487,981.37405)">
      <path
         style="fill:#ffffff"
         inkscape:connector-curvature="0"
         class="st3"
         d="m 138.2,40.7 c -0.7,2.5 -1.4,5 -2.1,7.4 -0.8,2.4 -1.5,4.7 -2.3,6.8 h -4.3 c -0.6,-1.3 -1.2,-2.8 -1.8,-4.5 -0.6,-1.7 -1.3,-3.5 -1.9,-5.5 -0.6,-1.9 -1.3,-4 -1.9,-6.1 -0.6,-2.1 -1.3,-4.3 -1.9,-6.5 h 5.5 c 0.3,1.2 0.6,2.5 0.9,3.9 0.3,1.4 0.7,2.8 1.1,4.3 0.4,1.5 0.8,2.9 1.2,4.3 0.4,1.4 0.8,2.7 1.2,3.8 0.4,-1.3 0.9,-2.7 1.3,-4.1 l 1.2,-4.2 c 0.4,-1.4 0.7,-2.8 1.1,-4.1 0.3,-1.3 0.6,-2.6 0.9,-3.8 h 4 c 0.3,1.2 0.5,2.4 0.9,3.8 0.3,1.3 0.7,2.7 1,4.1 0.4,1.4 0.7,2.8 1.2,4.2 0.5,1.4 0.8,2.8 1.3,4.1 0.4,-1.2 0.8,-2.4 1.2,-3.8 0.4,-1.4 0.8,-2.8 1.2,-4.3 0.4,-1.5 0.8,-2.9 1.1,-4.3 0.3,-1.4 0.7,-2.7 0.9,-3.9 h 5.4 c -0.6,2.2 -1.2,4.4 -1.9,6.5 -0.6,2.1 -1.3,4.2 -1.9,6.1 -0.6,1.9 -1.3,3.8 -1.9,5.5 -0.6,1.7 -1.3,3.2 -1.9,4.5 h -4.3 c -0.7,-2.1 -1.5,-4.4 -2.3,-6.8 -0.8,-2.4 -1.5,-4.9 -2.2,-7.4 z"
         id="path5168" />
    </g>
    <g
       style="enable-background:new;fill:#ffffff"
       class="st2"
       id="g5174"
       transform="matrix(0.70513743,0,0,0.70513743,26.84487,981.37405)">
      <path
         style="fill:#ffffff"
         inkscape:connector-curvature="0"
         class="st4"
         d="m 180.9,54.2 c -0.8,0.3 -1.9,0.6 -3.2,0.8 -1.3,0.2 -2.9,0.4 -4.9,0.4 -1.6,0 -3.1,-0.3 -4.5,-0.8 -1.4,-0.5 -2.5,-1.3 -3.5,-2.3 -1,-1 -1.7,-2.2 -2.2,-3.7 -0.5,-1.4 -0.8,-3.1 -0.8,-4.9 0,-1.7 0.2,-3.3 0.7,-4.7 0.4,-1.4 1.1,-2.7 2,-3.7 0.9,-1 1.9,-1.8 3.2,-2.4 1.3,-0.6 2.7,-0.9 4.3,-0.9 1.5,0 2.7,0.2 3.8,0.6 1.1,0.4 1.9,0.8 2.4,1.2 v -12 l 2.8,-0.5 v 32.9 z m -2.8,-17.6 c -0.3,-0.2 -0.6,-0.4 -1,-0.6 -0.4,-0.2 -0.8,-0.4 -1.4,-0.6 -0.5,-0.2 -1.1,-0.4 -1.7,-0.5 -0.6,-0.1 -1.2,-0.2 -1.9,-0.2 -1.4,0 -2.5,0.2 -3.5,0.7 -0.9,0.5 -1.7,1.1 -2.3,2 -0.6,0.8 -1,1.8 -1.3,2.9 -0.3,1.1 -0.4,2.3 -0.4,3.5 0,2.9 0.7,5.2 2.2,6.8 1.5,1.6 3.4,2.4 5.8,2.4 1.4,0 2.5,-0.1 3.4,-0.2 0.9,-0.1 1.5,-0.3 1.9,-0.4 V 36.6 Z m 13.7,-10.8 c 0,0.7 -0.2,1.2 -0.6,1.6 -0.4,0.4 -0.9,0.6 -1.5,0.6 -0.6,0 -1.1,-0.2 -1.5,-0.6 -0.4,-0.4 -0.6,-0.9 -0.6,-1.6 0,-0.7 0.2,-1.2 0.6,-1.6 0.4,-0.4 0.9,-0.6 1.5,-0.6 0.6,0 1.1,0.2 1.5,0.6 0.4,0.4 0.6,0.9 0.6,1.6 z m -0.6,29.1 h -2.8 V 32.5 h 2.8 z m 22,-2.6 c -0.2,0.1 -0.4,0.3 -0.8,0.5 -0.3,0.2 -0.8,0.4 -1.3,0.6 -0.5,0.2 -1.1,0.4 -1.7,0.5 -0.6,0.1 -1.4,0.2 -2.2,0.2 -1.3,0 -2.6,-0.2 -3.8,-0.6 -1.2,-0.4 -2.3,-1 -3.2,-1.9 -0.9,-0.9 -1.6,-2 -2.2,-3.4 -0.5,-1.4 -0.8,-3 -0.8,-5 0,-1.6 0.2,-3.1 0.7,-4.4 0.5,-1.4 1.2,-2.5 2.1,-3.5 0.9,-1 2,-1.8 3.3,-2.3 1.3,-0.6 2.8,-0.8 4.4,-0.8 2.1,0 3.7,0.1 5,0.4 1.3,0.3 2.3,0.5 3.1,0.8 v 20.4 c 0,3.3 -0.9,5.7 -2.6,7.2 -1.7,1.5 -4.2,2 -7.6,2 -1.4,0 -2.7,-0.1 -3.9,-0.3 -1.2,-0.2 -2.2,-0.5 -3,-0.8 l 0.6,-2.6 c 0.7,0.3 1.6,0.6 2.8,0.8 1.2,0.2 2.4,0.3 3.6,0.3 2.7,0 4.6,-0.5 5.8,-1.5 1.2,-1 1.8,-2.8 1.8,-5.3 v -1.3 z m 0,-17 c -0.5,-0.1 -1.1,-0.3 -1.9,-0.4 -0.8,-0.1 -1.9,-0.2 -3.3,-0.2 -1.2,0 -2.3,0.2 -3.2,0.6 -0.9,0.4 -1.7,1 -2.4,1.8 -0.7,0.8 -1.2,1.7 -1.5,2.7 -0.3,1.1 -0.5,2.2 -0.5,3.5 0,1.5 0.2,2.7 0.6,3.8 0.4,1.1 0.9,1.9 1.6,2.6 0.6,0.7 1.4,1.1 2.2,1.4 0.8,0.3 1.7,0.5 2.6,0.5 1.3,0 2.4,-0.2 3.5,-0.6 1.1,-0.4 1.9,-0.8 2.4,-1.3 V 35.3 Z m 13.7,-9.5 c 0,0.7 -0.2,1.2 -0.6,1.6 -0.4,0.4 -0.9,0.6 -1.5,0.6 -0.6,0 -1.1,-0.2 -1.5,-0.6 -0.4,-0.4 -0.6,-0.9 -0.6,-1.6 0,-0.7 0.2,-1.2 0.6,-1.6 0.4,-0.4 0.9,-0.6 1.5,-0.6 0.6,0 1.1,0.2 1.5,0.6 0.4,0.4 0.6,0.9 0.6,1.6 z m -0.7,29.1 h -2.8 V 32.5 h 2.8 z m 10.1,-22.4 h 8.9 v 2.4 h -8.9 v 11.9 c 0,1.3 0.1,2.3 0.3,3.1 0.2,0.8 0.5,1.4 0.9,1.8 0.4,0.4 0.9,0.7 1.5,0.9 0.6,0.1 1.2,0.2 1.9,0.2 1.2,0 2.1,-0.1 2.9,-0.4 0.7,-0.3 1.3,-0.5 1.7,-0.8 l 0.7,2.3 c -0.4,0.3 -1.1,0.6 -2.1,0.9 -1,0.3 -2.1,0.5 -3.3,0.5 -1.4,0 -2.5,-0.2 -3.5,-0.5 -0.9,-0.4 -1.7,-0.9 -2.2,-1.6 -0.5,-0.7 -1,-1.7 -1.2,-2.7 -0.2,-1.1 -0.3,-2.4 -0.3,-3.9 V 26 l 2.8,-0.5 v 7 z M 257.2,32 c 1.5,0 2.7,0.2 3.7,0.6 1,0.4 1.9,1 2.5,1.7 0.6,0.7 1.1,1.6 1.4,2.6 0.3,1 0.4,2.1 0.4,3.3 v 14.1 c -0.3,0.1 -0.7,0.2 -1.3,0.3 -0.5,0.1 -1.2,0.2 -1.9,0.3 -0.7,0.1 -1.5,0.2 -2.4,0.3 -0.9,0.1 -1.8,0.1 -2.7,0.1 -1.2,0 -2.3,-0.1 -3.3,-0.4 -1,-0.3 -1.9,-0.7 -2.6,-1.2 -0.7,-0.6 -1.3,-1.3 -1.7,-2.2 -0.4,-0.9 -0.6,-2 -0.6,-3.2 0,-1.2 0.2,-2.2 0.7,-3.1 0.5,-0.9 1.1,-1.6 1.9,-2.1 0.8,-0.6 1.8,-1 3,-1.2 1.2,-0.2 2.4,-0.4 3.8,-0.4 0.4,0 0.8,0 1.3,0.1 0.4,0 0.9,0.1 1.3,0.2 0.4,0.1 0.8,0.1 1.1,0.2 0.3,0.1 0.5,0.1 0.6,0.2 v -1.4 c 0,-0.8 -0.1,-1.5 -0.2,-2.3 -0.1,-0.8 -0.4,-1.4 -0.8,-2 -0.4,-0.6 -0.9,-1.1 -1.6,-1.4 -0.7,-0.4 -1.6,-0.5 -2.8,-0.5 -1.6,0 -2.9,0.1 -3.7,0.3 -0.8,0.2 -1.4,0.4 -1.8,0.6 L 251.1,33 c 0.5,-0.2 1.2,-0.4 2.3,-0.6 1.1,-0.3 2.4,-0.4 3.8,-0.4 z m 0.3,20.9 c 1.1,0 2.1,0 2.9,-0.1 0.8,-0.1 1.5,-0.2 2.1,-0.3 v -7.9 c -0.3,-0.1 -0.8,-0.3 -1.5,-0.5 -0.7,-0.2 -1.6,-0.2 -2.9,-0.2 -0.7,0 -1.4,0.1 -2.2,0.2 -0.8,0.1 -1.4,0.3 -2.1,0.6 -0.6,0.3 -1.2,0.8 -1.6,1.4 -0.4,0.6 -0.6,1.3 -0.6,2.3 0,0.8 0.1,1.5 0.4,2.1 0.3,0.6 0.7,1 1.2,1.4 0.5,0.3 1.1,0.6 1.8,0.8 0.8,0.1 1.6,0.2 2.5,0.2 z m 20.6,2.4 c -1,0 -1.8,-0.2 -2.5,-0.4 -0.7,-0.2 -1.3,-0.5 -1.8,-1 -0.5,-0.4 -0.8,-1 -1.1,-1.7 -0.2,-0.7 -0.4,-1.6 -0.4,-2.7 V 21.8 l 2.8,-0.5 v 28.1 c 0,0.7 0.1,1.2 0.2,1.7 0.1,0.5 0.3,0.8 0.6,1 0.3,0.2 0.6,0.4 1,0.5 0.4,0.1 0.9,0.2 1.5,0.3 z"
         id="path5172" />
    </g>
  </g>
  <style
     id="style5154">.st0{fill:#1aa3dd}.st1{fill:#006a97}.st2{enable-background:new}.st3{fill:#0c6e99}.st4{fill:#10a5de}</style>
</svg>
