<?xml version="1.0" encoding="UTF-8"?>
<svg version="1.1" viewBox="0 0 250 91" xmlns="http://www.w3.org/2000/svg" xmlns:cc="http://creativecommons.org/ns#" xmlns:dc="http://purl.org/dc/elements/1.1/" xmlns:rdf="http://www.w3.org/1999/02/22-rdf-syntax-ns#">
<g transform="translate(0,-961.4)" fill="white">
	<path d="m36.646 1015.4-9.8014-5.7116v11.353l9.8014 5.6411 9.8719 5.7116v-11.353z" stroke-width=".70514"/>
	<path d="m36.646 992.73-9.8014 5.6411v11.353l9.8014 5.7116v-11.353l9.8719-5.7116v-11.353zm19.673 22.705-9.8014 5.6411v11.353l9.8014-5.7116 9.8014-5.6411v-11.353z" opacity=".75" stroke-width=".70514"/>
	<path d="m56.32 981.37v34.058l9.8014-5.7116v-22.705z" stroke-width=".70514"/>
	<g transform="matrix(.70514 0 0 .70514 26.845 981.37)" enable-background="new" opacity=".75">
		<path d="m95.2 54.2c-1 0.3-2.3 0.6-3.9 0.9s-3.2 0.4-5 0.4-3.4-0.3-4.8-0.8-2.6-1.3-3.6-2.4c-1-1-1.8-2.3-2.3-3.7-0.5-1.5-0.8-3.1-0.8-4.9s0.2-3.4 0.7-4.9c0.4-1.5 1.1-2.7 2-3.7s1.9-1.8 3.2-2.4c1.2-0.6 2.7-0.8 4.3-0.8 1.1 0 2.1 0.1 2.9 0.4s1.6 0.5 2.2 0.9v-11l5.2-0.9v32.9zm-15.1-10.7c0 2.3 0.5 4.1 1.6 5.4s2.6 2 4.5 2c0.8 0 1.5 0 2.1-0.1s1.1-0.2 1.4-0.2v-13c-0.5-0.3-1.1-0.6-1.8-0.9-0.8-0.3-1.6-0.4-2.4-0.4-1.9 0-3.3 0.6-4.2 1.9-0.7 1.3-1.2 3.1-1.2 5.3zm29.8-4.3 4.8-6.9h5.5l-7.6 10.8c1.6 2 3.1 4 4.6 6s2.7 4 3.6 5.7h-5.7c-0.3-0.5-0.6-1.1-1-1.7s-0.9-1.3-1.3-2c-0.5-0.7-1-1.4-1.5-2-0.5-0.7-1-1.3-1.5-1.9-1 1.2-2 2.5-3 3.9s-1.8 2.7-2.4 3.8h-5.4c0.4-0.9 1-1.8 1.6-2.7 0.6-1 1.3-1.9 2-2.9s1.4-2 2.2-3 1.5-2 2.2-2.9l-7.7-11.1h5.8z" />
	</g>
	<g transform="matrix(.70514 0 0 .70514 26.845 981.37)" enable-background="new" opacity=".75">
		<path d="m138.2 40.7c-0.7 2.5-1.4 5-2.1 7.4-0.8 2.4-1.5 4.7-2.3 6.8h-4.3c-0.6-1.3-1.2-2.8-1.8-4.5s-1.3-3.5-1.9-5.5c-0.6-1.9-1.3-4-1.9-6.1s-1.3-4.3-1.9-6.5h5.5c0.3 1.2 0.6 2.5 0.9 3.9s0.7 2.8 1.1 4.3 0.8 2.9 1.2 4.3 0.8 2.7 1.2 3.8c0.4-1.3 0.9-2.7 1.3-4.1l1.2-4.2c0.4-1.4 0.7-2.8 1.1-4.1 0.3-1.3 0.6-2.6 0.9-3.8h4c0.3 1.2 0.5 2.4 0.9 3.8 0.3 1.3 0.7 2.7 1 4.1 0.4 1.4 0.7 2.8 1.2 4.2s0.8 2.8 1.3 4.1c0.4-1.2 0.8-2.4 1.2-3.8s0.8-2.8 1.2-4.3 0.8-2.9 1.1-4.3 0.7-2.7 0.9-3.9h5.4c-0.6 2.2-1.2 4.4-1.9 6.5-0.6 2.1-1.3 4.2-1.9 6.1s-1.3 3.8-1.9 5.5-1.3 3.2-1.9 4.5h-4.3c-0.7-2.1-1.5-4.4-2.3-6.8s-1.5-4.9-2.2-7.4z" />
	</g>
	<g transform="matrix(.70514 0 0 .70514 26.845 981.37)" enable-background="new">
		<path d="m180.9 54.2c-0.8 0.3-1.9 0.6-3.2 0.8s-2.9 0.4-4.9 0.4c-1.6 0-3.1-0.3-4.5-0.8s-2.5-1.3-3.5-2.3-1.7-2.2-2.2-3.7c-0.5-1.4-0.8-3.1-0.8-4.9 0-1.7 0.2-3.3 0.7-4.7 0.4-1.4 1.1-2.7 2-3.7s1.9-1.8 3.2-2.4 2.7-0.9 4.3-0.9c1.5 0 2.7 0.2 3.8 0.6s1.9 0.8 2.4 1.2v-12l2.8-0.5v32.9zm-2.8-17.6c-0.3-0.2-0.6-0.4-1-0.6s-0.8-0.4-1.4-0.6c-0.5-0.2-1.1-0.4-1.7-0.5s-1.2-0.2-1.9-0.2c-1.4 0-2.5 0.2-3.5 0.7-0.9 0.5-1.7 1.1-2.3 2-0.6 0.8-1 1.8-1.3 2.9s-0.4 2.3-0.4 3.5c0 2.9 0.7 5.2 2.2 6.8s3.4 2.4 5.8 2.4c1.4 0 2.5-0.1 3.4-0.2s1.5-0.3 1.9-0.4v-15.8zm13.7-10.8c0 0.7-0.2 1.2-0.6 1.6s-0.9 0.6-1.5 0.6-1.1-0.2-1.5-0.6-0.6-0.9-0.6-1.6 0.2-1.2 0.6-1.6 0.9-0.6 1.5-0.6 1.1 0.2 1.5 0.6 0.6 0.9 0.6 1.6zm-0.6 29.1h-2.8v-22.4h2.8zm22-2.6c-0.2 0.1-0.4 0.3-0.8 0.5-0.3 0.2-0.8 0.4-1.3 0.6s-1.1 0.4-1.7 0.5-1.4 0.2-2.2 0.2c-1.3 0-2.6-0.2-3.8-0.6s-2.3-1-3.2-1.9-1.6-2-2.2-3.4c-0.5-1.4-0.8-3-0.8-5 0-1.6 0.2-3.1 0.7-4.4 0.5-1.4 1.2-2.5 2.1-3.5s2-1.8 3.3-2.3c1.3-0.6 2.8-0.8 4.4-0.8 2.1 0 3.7 0.1 5 0.4s2.3 0.5 3.1 0.8v20.4c0 3.3-0.9 5.7-2.6 7.2s-4.2 2-7.6 2c-1.4 0-2.7-0.1-3.9-0.3s-2.2-0.5-3-0.8l0.6-2.6c0.7 0.3 1.6 0.6 2.8 0.8s2.4 0.3 3.6 0.3c2.7 0 4.6-0.5 5.8-1.5s1.8-2.8 1.8-5.3v-1.3zm0-17c-0.5-0.1-1.1-0.3-1.9-0.4s-1.9-0.2-3.3-0.2c-1.2 0-2.3 0.2-3.2 0.6s-1.7 1-2.4 1.8-1.2 1.7-1.5 2.7c-0.3 1.1-0.5 2.2-0.5 3.5 0 1.5 0.2 2.7 0.6 3.8s0.9 1.9 1.6 2.6c0.6 0.7 1.4 1.1 2.2 1.4s1.7 0.5 2.6 0.5c1.3 0 2.4-0.2 3.5-0.6s1.9-0.8 2.4-1.3v-14.4zm13.7-9.5c0 0.7-0.2 1.2-0.6 1.6s-0.9 0.6-1.5 0.6-1.1-0.2-1.5-0.6-0.6-0.9-0.6-1.6 0.2-1.2 0.6-1.6 0.9-0.6 1.5-0.6 1.1 0.2 1.5 0.6 0.6 0.9 0.6 1.6zm-0.7 29.1h-2.8v-22.4h2.8zm10.1-22.4h8.9v2.4h-8.9v11.9c0 1.3 0.1 2.3 0.3 3.1s0.5 1.4 0.9 1.8 0.9 0.7 1.5 0.9c0.6 0.1 1.2 0.2 1.9 0.2 1.2 0 2.1-0.1 2.9-0.4 0.7-0.3 1.3-0.5 1.7-0.8l0.7 2.3c-0.4 0.3-1.1 0.6-2.1 0.9s-2.1 0.5-3.3 0.5c-1.4 0-2.5-0.2-3.5-0.5-0.9-0.4-1.7-0.9-2.2-1.6s-1-1.7-1.2-2.7c-0.2-1.1-0.3-2.4-0.3-3.9v-20.6l2.8-0.5v7zm20.9-0.5c1.5 0 2.7 0.2 3.7 0.6s1.9 1 2.5 1.7 1.1 1.6 1.4 2.6 0.4 2.1 0.4 3.3v14.1c-0.3 0.1-0.7 0.2-1.3 0.3-0.5 0.1-1.2 0.2-1.9 0.3s-1.5 0.2-2.4 0.3-1.8 0.1-2.7 0.1c-1.2 0-2.3-0.1-3.3-0.4s-1.9-0.7-2.6-1.2c-0.7-0.6-1.3-1.3-1.7-2.2s-0.6-2-0.6-3.2 0.2-2.2 0.7-3.1 1.1-1.6 1.9-2.1c0.8-0.6 1.8-1 3-1.2s2.4-0.4 3.8-0.4c0.4 0 0.8 0 1.3 0.1 0.4 0 0.9 0.1 1.3 0.2s0.8 0.1 1.1 0.2 0.5 0.1 0.6 0.2v-1.4c0-0.8-0.1-1.5-0.2-2.3s-0.4-1.4-0.8-2-0.9-1.1-1.6-1.4c-0.7-0.4-1.6-0.5-2.8-0.5-1.6 0-2.9 0.1-3.7 0.3s-1.4 0.4-1.8 0.6l-0.4-2.5c0.5-0.2 1.2-0.4 2.3-0.6 1.1-0.3 2.4-0.4 3.8-0.4zm0.3 20.9c1.1 0 2.1 0 2.9-0.1s1.5-0.2 2.1-0.3v-7.9c-0.3-0.1-0.8-0.3-1.5-0.5s-1.6-0.2-2.9-0.2c-0.7 0-1.4 0.1-2.2 0.2s-1.4 0.3-2.1 0.6c-0.6 0.3-1.2 0.8-1.6 1.4s-0.6 1.3-0.6 2.3c0 0.8 0.1 1.5 0.4 2.1s0.7 1 1.2 1.4c0.5 0.3 1.1 0.6 1.8 0.8 0.8 0.1 1.6 0.2 2.5 0.2zm20.6 2.4c-1 0-1.8-0.2-2.5-0.4s-1.3-0.5-1.8-1c-0.5-0.4-0.8-1-1.1-1.7-0.2-0.7-0.4-1.6-0.4-2.7v-27.7l2.8-0.5v28.1c0 0.7 0.1 1.2 0.2 1.7s0.3 0.8 0.6 1 0.6 0.4 1 0.5 0.9 0.2 1.5 0.3z" />
	</g>
</g>
</svg>

