<?xml version="1.0" encoding="UTF-8"?>
<svg version="1.1" viewBox="0 0 250 91" xmlns="http://www.w3.org/2000/svg" xmlns:cc="http://creativecommons.org/ns#" xmlns:dc="http://purl.org/dc/elements/1.1/" xmlns:rdf="http://www.w3.org/1999/02/22-rdf-syntax-ns#">
<metadata>
<rdf:RDF>
<cc:Work rdf:about="">
<dc:format>image/svg+xml</dc:format>
<dc:type rdf:resource="http://purl.org/dc/dcmitype/StillImage"/>
<dc:title/>
</cc:Work>
</rdf:RDF>
</metadata>
<g transform="translate(0,-961.4)" fill="#fff">
<path d="m41.984 1038c-2.1581-0.143-5.2893-0.6725-5.2893-0.8944 0-0.1562 0.8507-2.0756 1.9893-4.4883 0.90013-1.9075 4.7294-9.5155 5.3853-10.699 0.33208-0.5994 0.35625-0.6216 0.48153-0.4427 0.22227 0.3173 4.6983 9.2153 5.6282 11.188 0.85959 1.8239 1.9195 4.1778 1.9195 4.2629 0 0.1425-3.0217 0.7452-4.6397 0.9253-1.622 0.1805-4.0095 0.2452-5.4749 0.1481zm-10.79-2.6859c-6.6656-3.0646-11.865-8.1146-15.053-14.621-1.4845-3.0294-2.3522-5.868-2.8935-9.4651-0.24037-1.5975-0.2396-6.6419 9.24e-4 -8.2587 0.80372-5.395 2.7097-10.103 5.7597-14.227 1.4872-2.0108 3.6746-4.2966 5.5302-5.7791 6.965-5.5642 15.829-7.8618 24.637-6.386 11.586 1.9413 21.211 10.512 24.499 21.816 0.84622 2.9088 1.1896 5.4215 1.1896 8.7049 0 2.6172-0.12363 3.9307-0.58484 6.214-1.7875 8.849-7.4578 16.551-15.407 20.928-1.244 0.6849-2.7195 1.3562-2.7955 1.2717-0.03227-0.036-0.20594-0.4619-0.38588-0.9467-1.4176-3.8196-4.0826-10.187-6.2564-14.947l-0.82964-1.8169 0.12174-1.4309c0.12104-1.4228 0.30582-2.982 0.52143-4.4003l0.11286-0.7423 0.69596-0.213c3.9692-1.2146 7.67-3.2195 10.784-5.8421l0.71569-0.6029-0.99407-1.4726c-0.54673-0.8099-1.026-1.4728-1.0651-1.4731-0.03911-3e-4 -0.35224 0.2038-0.69596 0.4533-1.3959 1.0136-3.6433 2.2616-5.5064 3.0576-1.9261 0.8231-4.107 1.4478-6.2538 1.7915-1.1311 0.181-4.2247 0.1553-5.5179-0.046-3.6626-0.5699-7.3792-2.0693-10.903-4.3986-0.71411-0.4721-1.3203-0.8567-1.3472-0.8547-0.07461 0.01-1.9511 2.8135-1.951 2.9194 1.85e-4 0.2278 2.5444 2.1646 4.2091 3.2043 2.0634 1.2888 3.7643 2.0856 6.2302 2.9191l1.6703 0.5644 0.15326 1.0174c0.19433 1.2902 0.43619 3.4234 0.53092 4.6828l0.07332 0.9743-1.1332 2.5055c-2.076 4.5899-4.8993 11.367-6.0791 14.592-0.21088 0.5765-0.36054 0.8574-0.45574 0.8555-0.07794 0-0.67528-0.2482-1.3274-0.548zm-4.5062-18.048c1.8609-0.3638 3.3191-1.227 4.4519-2.635 0.47331-0.5884 1.008-1.4603 1.008-1.6437 0-0.031-0.21665 0.1329-0.48144 0.3645-1.5695 1.3729-4.2976 1.9381-6.5104 1.3487-0.21189-0.056-0.71932-0.2752-1.1276-0.4862-1.8876-0.9753-3.0221-2.9448-3.173-5.5089-0.1187-2.0161 0.45556-3.7288 1.7246-5.144l0.46792-0.5219-0.30877-0.6136c-0.16981-0.3376-0.36145-0.862-0.42584-1.1654-0.16382-0.772-0.08266-2.1386 0.16814-2.8315 0.8237-2.2754 2.9782-3.7346 5.2123-3.53 0.95646 0.0878 1.9495 0.35522 2.5952 0.69934 0.47723 0.25435 1.7591 1.4114 1.8432 1.6638 0.0171 0.0518 0.07332 0.0935 0.12494 0.0935 0.13965 0 0.0037-0.85929-0.26321-1.6668-0.26775-0.80928-0.87453-1.7646-1.4684-2.3121-0.58691-0.54106-1.44-1.0748-1.9426-1.2155l-0.42511-0.11899v-0.5785c0-1.3784 0.49675-2.6035 1.4309-3.5288 2.0102-1.9912 5.1154-1.8901 7.0332 0.2291l0.52573 0.58091 0.3072-0.35568c0.52292-0.6055 0.93117-0.96377 1.6212-1.4224 2.1359-1.42 4.9552-1.5872 7.2529-0.4301 0.7922 0.39895 1.6743 1.0623 2.1488 1.6159 0.43309 0.50527 0.4764 0.39682 0.1973-0.494-0.40584-1.2953-1.0036-2.2532-1.951-3.1263-1.0681-0.98448-2.1727-1.5453-3.5633-1.8094-0.88735-0.16855-2.2108-0.12001-3.0788 0.11289-0.82431 0.22115-1.9636 0.80474-2.6248 1.3446l-0.58328 0.47624-0.76224-0.32295c-1.108-0.4694-1.9767-0.64386-3.1749-0.63758-3.2621 0.0167-6.1617 2.1046-7.1796 5.1689-0.27423 0.82555-0.47591 1.9476-0.47591 2.6478 0 0.34708-0.01507 0.36465-0.39437 0.46034-2.458 0.62011-4.2812 2.1394-5.2335 4.3614-0.76322 1.7807-0.77746 3.7264-0.04114 5.6227l0.284 0.7313-0.45173 0.4654c-1.7524 1.8054-2.6353 4.363-2.3329 6.7579 0.44646 3.5363 2.965 6.5111 6.1746 7.2931 0.91084 0.222 2.4393 0.2494 3.402 0.061zm41.295-9.3161c2.2683-2.4501 2.7924-5.9349 1.3284-8.8333-0.9365-1.8541-2.6658-3.3355-4.6034-3.9433l-0.52067-0.16337-0.05612-0.7991c-0.28449-4.053-3.0172-6.7843-6.788-6.7843-1.6548 0-3.8023 0.68066-4.8274 1.5301l-0.27839 0.23068 0.41758-0.1458c0.22966-0.0804 0.83685-0.16883 1.3493-0.19684 1.2921-0.0703 2.2211 0.12546 3.476 0.73336 0.81959 0.39701 1.0854 0.58414 1.6734 1.1785 1.1723 1.1848 1.6677 2.4404 1.6666 4.2243-4.62e-4 0.83211-0.03735 1.1821-0.24785 2.3514-0.05122 0.28477-0.03892 0.3016 0.2214 0.3016 0.46196 0 1.7054 0.35595 2.411 0.69028 1.8335 0.86863 3.0586 2.1104 3.9244 3.978 0.81584 1.7598 0.95119 3.7965 0.37528 5.647-0.09272 0.2978-0.13569 0.5416-0.0955 0.5416 0.04022 0 0.29847-0.2435 0.57396-0.541zm-22.334-3.642c0.27621-0.1178 0.27404-0.1192-0.27839-0.1799-0.97738-0.1071-1.7744-0.6955-2.1979-1.6223-0.32292-0.7068-0.30338-1.7682 0.04567-2.479 0.68342-1.3917 2.2314-1.9438 3.572-1.2738 0.65087 0.32526 0.97243 0.66614 1.2996 1.3779 0.23761 0.517 0.31787 1.4469 0.16894 1.9573-0.0649 0.2225-0.06185 0.2246 0.07628 0.052 0.32823-0.4106 0.54003-1.2024 0.58479-2.1862 0.03985-0.87686 0.01969-1.0476-0.20194-1.7066-0.67243-1.9994-2.2714-3.217-4.2303-3.2213-0.86504 0-1.3438 0.11381-2.0751 0.50148-1.4546 0.771-2.4732 2.4999-2.4691 4.1907 0.0055 2.1617 1.4285 4.0744 3.4566 4.6456 0.56435 0.1589 1.8182 0.1278 2.2489-0.056zm58.745 30.72c-1.4942-0.3148-2.5293-0.9808-2.9934-1.9259-0.36113-0.7354-0.36804-1.7714-0.0168-2.5262 0.40677-0.8741 1.2807-1.5726 2.4369-1.9475l0.36101-0.117-0.62037-0.3275c-1.3939-0.7358-1.9631-1.9954-1.3968-3.0905 0.0787-0.1522 0.50056-0.467 1.1056-0.8251 0.53808-0.3185 0.978-0.6059 0.97761-0.6387 0-0.033-0.16201-0.1517-0.35917-0.2643-1.1968-0.6833-2.0217-1.9323-2.1181-3.2073-0.21137-2.7948 1.6691-4.6789 4.937-4.9465 0.91162-0.075 1.8204 0.053 3.4798 0.4893 1.0922 0.2871 1.4014 0.3306 2.4126 0.3396 0.63796 0.01 1.3165-0.022 1.5079-0.062l0.34798-0.072v1.7077l-1.3455-0.058c-0.74003-0.032-1.3455-0.043-1.3455-0.026 0 0.018 0.11119 0.2752 0.24709 0.5721 0.29833 0.6516 0.38826 1.641 0.21568 2.3728-0.57776 2.4502-3.0631 3.9117-6.1229 3.6008l-0.78844-0.08-0.30013 0.2909c-0.57457 0.5569-0.62689 1.3466-0.11761 1.7751 0.42763 0.3598 1.0214 0.4313 3.5999 0.4333 1.3117 0 2.6635 0.042 3.004 0.092 1.9446 0.2812 2.9373 1.2847 2.963 2.995 0.0124 0.8237-0.11337 1.3159-0.54866 2.148-0.89823 1.7167-2.7612 2.9412-5.0939 3.3479-1.1399 0.1988-3.3692 0.1741-4.4287-0.049zm3.8445-1.0723c0.64128-0.077 1.5812-0.3629 2.1658-0.6588 1.0291-0.5206 1.652-1.4242 1.652-2.3964 0-0.9187-0.50517-1.5447-1.54-1.9084-1.4098-0.4955-4.6172-0.4088-5.738 0.1552-0.87353 0.4395-1.3316 1.2835-1.2499 2.3023 0.11124 1.3857 1.1851 2.3205 2.9304 2.551 0.61065 0.081 0.76797 0.077 1.7798-0.045zm-0.30064-11.006c0.56732-0.1433 1.146-0.6926 1.4668-1.3921 0.24607-0.5365 0.26862-0.6744 0.27029-1.6526 2e-3 -1.2297-0.15079-1.8572-0.62374-2.5604-1.1474-1.7056-3.4679-1.3943-4.2547 0.5708-0.18943 0.4732-0.22075 0.7091-0.22103 1.6649 0 0.8259 0.0421 1.2359 0.16401 1.5872 0.37999 1.0954 1.0322 1.7463 1.8893 1.8858 0.46983 0.077 0.65467 0.062 1.309-0.1036zm48.831 12.094c-0.69339-0.3689-0.92957-1.297-0.52516-2.0636 0.38632-0.7323 1.2682-1.0232 2.0771-0.6852 0.18602 0.078 0.36841 0.1091 0.40532 0.069 0.0687-0.073 1.2802-2.8064 1.6634-3.7523l0.21292-0.5256-2.108-5.3204c-1.1594-2.9263-2.1991-5.4199-2.3104-5.5415-0.26523-0.2897-0.86776-0.5631-1.2463-0.5656h-0.30158v-1.0139h6.2172v0.9834l-0.51422 0.043c-0.70896 0.059-1.0221 0.3034-1.0013 0.7822 0.0129 0.2961 2.5796 6.9743 2.7435 7.1382 0.0544 0.055 2.3895-5.6148 2.628-6.3799 0.2883-0.9252-0.0343-1.4289-0.98972-1.5455-0.27496-0.033-0.4895-0.092-0.47674-0.1307 0.0128-0.038 0.0232-0.256 0.0232-0.4839v-0.4143h5.1037v0.9842l-0.45279 0.06c-0.57124 0.076-0.99824 0.36-1.3686 0.9111-0.15967 0.2375-1.365 2.9506-2.6785 6.0291s-2.8464 6.6718-3.4066 7.9852c-1.1158 2.616-1.3631 3.0567-1.8969 3.3799-0.45975 0.2783-1.3188 0.2999-1.7974 0.045zm-37.302-6.0164c-1.5692-0.2624-2.9082-1.2797-3.7087-2.8178-0.6492-1.2473-0.79304-1.9362-0.78361-3.7529 0.01-1.8637 0.15591-2.5511 0.83716-3.9348 1.1132-2.2612 3.5169-3.6135 5.8153-3.2716 2.385 0.3546 3.8356 1.7877 4.1764 4.1256 0.0897 0.6151 0.0845 0.7666-0.0333 0.9765l-0.13939 0.2484-8.1588 0.092 0.017 1.0418c0.0283 1.7347 0.49601 3.0425 1.4609 4.0847 1.6454 1.7773 3.9735 1.6581 6.0848-0.3115l0.32478-0.303 0.30159 0.2713c0.16587 0.1492 0.30157 0.2986 0.30157 0.3318 0 0.033-0.23636 0.3495-0.52525 0.7027-1.0052 1.2286-2.307 2.1107-3.6004 2.4395-0.50916 0.1293-1.8036 0.1712-2.37 0.077zm3.3406-9.6133c0.20034-0.101 0.23576-0.1888 0.25969-0.6438 0.0553-1.0519-0.59674-1.9632-1.6169-2.2598-1.5799-0.4593-3.1278 0.5643-3.6825 2.4352-0.0781 0.2635-0.11752 0.5036-0.0876 0.5335 0.03 0.03 1.1436 0.054 2.4748 0.053 1.7596 0 2.4837-0.033 2.6524-0.1182zm24.373 9.4378c-0.81113-0.1964-1.9099-0.8086-2.5199-1.4042-1.3613-1.3291-1.9882-3.0487-1.8704-5.1302 0.072-1.2727 0.32725-2.2556 0.86744-3.3406 0.36616-0.7355 0.57784-1.0204 1.2776-1.7196 0.92273-0.922 1.6284-1.3523 2.8338-1.7281 0.59073-0.1842 0.89237-0.2168 1.9951-0.2162 0.77793 5e-4 1.5039 0.051 1.8095 0.1265 0.74254 0.183 1.6206 0.6213 1.8927 0.9448 0.9163 1.0889 0.0364 2.7891-1.1803 2.2807-0.1928-0.081-0.52213-0.3886-0.83622-0.7823-0.65441-0.8202-0.8948-1.0072-1.5325-1.1927-1.7945-0.5216-3.6419 0.7539-4.3415 2.9976-0.22573 0.7241-0.23994 0.8699-0.19579 2.0069 0.0688 1.7717 0.42214 2.813 1.2577 3.7062 0.71407 0.7634 1.4874 1.1286 2.7198 1.2843 1.2708 0.1606 2.4414-0.1332 3.5841-0.8994l0.61353-0.4114 0.35568 0.3472 0.35568 0.3474-0.5809 0.5913c-1.0476 1.0664-2.2433 1.7974-3.518 2.1507-0.80627 0.2234-2.1576 0.242-2.9873 0.041zm-8.8532-0.2026-2.8998-0.024v-1.018h0.72462c1.19 0 1.0849 0.4421 1.0849-4.5628 0-4.2278-4e-3 -4.3053-0.20029-4.6703-0.77193-1.4305-2.4981-1.5731-4.7874-0.3956l-0.71915 0.3699v8.8032l0.22776 0.2278c0.20329 0.2033 0.30637 0.2278 0.95888 0.2278 0.4021 0 0.74851 0.017 0.76976 0.039 0.0213 0.021 0.0242 0.2509 6e-3 0.5104l-0.0322 0.4718h-6.3849v-1.0208h0.74236c1.2102 0 1.1135 0.4034 1.1135-4.6488 0-3.8118-0.0169-4.3135-0.15569-4.6059-0.16647-0.3507-0.79574-0.8095-1.2462-0.9084-0.24428-0.054-0.26813-0.094-0.26556-0.446l3e-3 -0.387 1.0875-0.352c0.59812-0.1937 1.5051-0.5173 2.0154-0.7193 0.51037-0.202 0.98014-0.3476 1.0439-0.3237 0.0822 0.031 0.116 0.3149 0.116 0.9745 0 0.5992 0.0354 0.9309 0.0993 0.9309 0.0546 0 0.27382-0.1191 0.48717-0.2646 2.4192-1.6502 4.4815-2.0738 6.0315-1.2389 0.53389 0.2875 0.90535 0.6908 1.2343 1.3398 0.43994 0.8682 0.49249 1.5122 0.496 6.0793 4e-3 4.9773-0.0998 4.5701 1.1632 4.5701h0.78875v0.5002c0 0.4957-3e-3 0.5006-0.30158 0.5336-0.16587 0.018-1.6065 0.022-3.2014 0.01zm-57.927-0.4857v-0.4641h0.35433c0.6211 0 1.2974-0.2598 1.685-0.6473 0.20914-0.2092 0.55318-0.7585 0.82495-1.3172 0.6876-1.4136 5.2725-12.568 5.4488-13.256 0.09923-0.3874 0.13256-0.7673 0.09701-1.1058l-0.05418-0.5156 0.46328-0.2165c0.25482-0.1191 0.67017-0.3801 0.92304-0.58 0.35263-0.2788 0.54216-0.3634 0.81352-0.3634h0.35378l3.099 7.4003c1.7045 4.0702 3.308 7.8998 3.5633 8.5102 0.68875 1.6464 1.2237 2.0915 2.5128 2.0915h0.42289v0.928h-7.9803v-0.928h0.69893c0.81607 0 1.2963-0.1681 1.4512-0.5081 0.13973-0.3067 0.05316-0.5834-1.017-3.25l-0.81929-2.0415h-6.8286l-0.5087 1.392c-0.67408 1.8445-0.98298 3.0437-0.91141 3.5386 0.09854 0.6815 0.5164 0.8817 1.8311 0.877h0.90722v0.9232h-7.3307v-0.464zm12.222-7.7252c-0.44393-1.0974-2.8834-6.815-2.9279-6.8623-0.05205-0.055-2.7055 6.7244-2.7055 6.9126 0 0.036 1.2781 0.066 2.8402 0.066 2.2353 0 2.8302-0.025 2.7932-0.116zm59.694-16.331c-2.8437-0.28-4.956-2.0268-5.6797-4.6971-0.25779-0.9511-0.27946-3.0858-0.0411-4.0499 0.62183-2.5152 2.5674-4.3954 5.1056-4.9338 0.8488-0.18011 3.0916-0.11946 3.9095 0.10567 1.7516 0.48226 3.2264 1.6543 3.9242 3.1186 0.47197 0.99049 0.66089 1.745 0.73177 2.9227 0.14183 2.3567-0.59326 4.3205-2.1676 5.7908-0.75226 0.7025-1.9233 1.3501-2.8595 1.5811-0.6573 0.1623-2.1046 0.2424-2.923 0.1618zm2.4461-1.3983c1.0317-0.4723 1.7225-1.3404 2.2083-2.7749 0.25253-0.74584 0.29784-1.0279 0.33641-2.0947 0.0684-1.8913-0.25181-3.3579-1.0077-4.6158-1.5197-2.529-4.8611-2.3451-6.2176 0.34228-0.55123 1.0919-0.68921 1.8126-0.6811 3.5576 6e-3 1.4413 0.0292 1.6493 0.26078 2.4102 0.57582 1.8916 1.4945 2.9813 2.8339 3.3613 0.62406 0.1771 1.6597 0.093 2.267-0.186zm-35.15 1.1236c-0.0702-0.1684-1.071-2.594-2.2241-5.3901-1.1531-2.7961-2.1859-5.2598-2.2951-5.4749-0.41921-0.82564-0.79077-1.1325-1.4876-1.2283l-0.44856-0.062v-0.47846l1e-5 -0.47846h6.5884l-1e-5 0.478v0.47809l-0.57185 0.0666c-0.42644 0.049-0.62977 0.12426-0.79968 0.29419-0.40035 0.40034-0.28834 0.83461 1.1323 4.3901 0.70351 1.7608 1.3199 3.3058 1.3698 3.4334l0.0907 0.23205 0.12123-0.23205c0.0667-0.12759 0.6897-1.5551 1.3845-3.1723 1.3508-3.1443 1.6088-3.9382 1.4384-4.427-0.12814-0.36751-0.30417-0.46099-1.006-0.5344l-0.56105-0.0583v-0.94786h5.1965v0.96589l-0.34798 0.061c-0.53551 0.0938-1.0883 0.45757-1.3918 0.91579-0.21932 0.33108-2.4296 5.3638-4.6895 10.677l-0.31571 0.7425-0.52764 0.028c-0.51902 0.028-0.52971 0.023-0.6552-0.2784zm85.622 0.1541c-2.3167-0.624-3.8826-2.8683-4.0762-5.8425-0.10271-1.5776 0.1923-3.132 0.84536-4.4541 0.66353-1.3434 1.4921-2.203 2.7176-2.8193 0.80452-0.40468 1.5061-0.56796 2.4328-0.56639 1.9665 0 3.5491 0.86873 4.3412 2.3736 0.52944 1.0058 0.73876 2.4012 0.43076 2.8712l-0.14987 0.22874h-4.0151c-4.6811 0-4.1644-0.17659-4.0372 1.3797 0.14671 1.7944 0.71431 3.0807 1.794 4.0653 1.5002 1.3683 3.5282 1.2239 5.4658-0.3891l0.62447-0.5199 0.32025 0.2555c0.40929 0.3266 0.39186 0.3601-0.81911 1.5744-1.4982 1.5024-2.5874 1.9909-4.4134 1.9794-0.53699 0-1.1946-0.065-1.4612-0.1366zm3.9307-9.651c0.21437-0.21432 0.22993-0.28005 0.17015-0.71913-0.12695-0.93233-0.65017-1.6652-1.4177-1.986-0.17716-0.074-0.60833-0.13314-0.96312-0.13203-0.79861 0-1.4349 0.27404-2.0064 0.85605-0.42749 0.43538-0.92475 1.3684-1.0103 1.8957l-0.0521 0.32129h5.0436zm22.619 9.6485c-0.56072-0.2059-1.092-0.7059-1.3449-1.2659l-0.22196-0.4911-0.0276-4.9878-0.0277-4.9877h-1.8469l3e-3 -0.348c3e-3 -0.32933 0.0402-0.37279 0.7021-0.81196 0.79728-0.52894 2.2534-1.98 2.7745-2.7648 0.31147-0.46913 0.38696-0.52932 0.66312-0.52932h0.31165v2.8766h4.1757v1.5775h-4.1843l0.0275 4.3382 0.0275 4.3381 0.22003 0.4469c0.24567 0.499 0.70544 0.8522 1.2337 0.9477 0.45428 0.082 1.2343-0.1518 1.7485-0.5243l0.40656-0.2945 0.26028 0.3118c0.14315 0.1715 0.26028 0.3412 0.26028 0.3771 0 0.1911-1.2548 1.1624-1.9414 1.5027-0.76116 0.3773-0.8081 0.3879-1.8095 0.4082-0.73174 0.015-1.1381-0.019-1.4099-0.1194zm-150.27-0.7481-9e-6 -0.4759 0.81664-0.039c1.0031-0.048 1.452-0.2501 1.7292-0.7784 0.18886-0.36 0.19158-0.4689 0.19158-7.666 0-7.2304-0.0018-7.3032-0.19158-7.5628-0.30179-0.41264-0.77075-0.592-1.7068-0.65265l-0.83906-0.0545v-0.90044h15.404v4.2499l-0.83086 0.0666-0.18388-0.60365c-0.35202-1.1557-0.91886-1.7949-1.8965-2.1384-0.8333-0.2929-1.6308-0.36372-4.1179-0.36566h-2.3431v7.0634l2.4823-0.0287c2.286-0.0268 2.5071-0.0435 2.7965-0.21431 0.4112-0.24288 0.62713-0.66486 0.76746-1.5l0.11438-0.68066h0.84569l-0.06879 1.0439c-0.03781 0.57415-0.04262 1.9939-0.01072 3.155l0.05797 2.1111h-0.43019c-0.42861 0-0.43019 0-0.43019-0.32018 0-1.1503-0.48864-1.8905-1.3733-2.0799-0.28587-0.061-1.3834-0.10531-2.6214-0.10531h-2.1297v2.9184c0 3.3687 0.0478 3.7389 0.54722 4.2387 0.50059 0.501 1.0041 0.5761 3.4861 0.5199 2.2112-0.05 2.9825-0.186 3.8187-0.6736 0.55508-0.3237 1.2586-1.1378 1.6642-1.9257l0.35355-0.68676 0.42402 0.0888c0.2332 0.049 0.43346 0.0969 0.44502 0.1067 0.0116 0.0102-0.0568 0.22421-0.15186 0.47633-0.16429 0.43581-0.9579 3.1658-1.0644 3.6618l-0.0502 0.2338h-15.504v-0.4758zm17.724-0.011v-0.4872l0.48717-0.01c0.75928-0.012 1.0308-0.076 1.2063-0.2841 0.14948-0.1774 0.16223-0.5257 0.16034-4.3814-2e-3 -3.8768-0.0149-4.2168-0.17392-4.5672-0.20203-0.44481-0.51198-0.70988-1.0868-0.92938-0.40709-0.15542-0.41619-0.1679-0.38901-0.53153l0.0278-0.37232 1.2063-0.402c0.66347-0.22106 1.5272-0.53089 1.9194-0.68834 1.0338-0.41531 1.0407-0.41078 1.0964 0.71968l0.0464 0.94176 0.74235-0.46588c0.92224-0.57869 2.2716-1.2239 2.8481-1.3619 0.23951-0.0573 0.79235-0.1042 1.2285-0.1042 1.5651 0 2.5474 0.66467 3.1345 2.1209 0.20745 0.51461 0.21198 0.60568 0.25819 5.1842 0.0455 4.5049 0.0533 4.6665 0.23262 4.8435 0.20759 0.2047 0.49344 0.267 1.2759 0.2782l0.53356 0.01v0.9743h-6.4956v-0.9743h0.58932c0.79951 0 1.136-0.1294 1.2598-0.4845 0.1306-0.3747 0.1351-7.4676 6e-3 -8.1559-0.2135-1.1309-0.91636-1.7378-2.1092-1.821-0.81028-0.0564-1.5802 0.13942-2.6914 0.68519l-0.85835 0.42151v4.4051c0 2.6959 0.0352 4.4709 0.0909 4.5747 0.12862 0.2404 0.58387 0.3749 1.2685 0.3749h0.58932v0.9743h-6.4028v-0.4871zm28.859 0.013v-0.474l0.80842-0.051c1.2418-0.078 1.1406 0.3482 1.1382-4.7882-2e-3 -3.9981-0.015-4.3564-0.17238-4.7028-0.18823-0.41439-0.65589-0.85337-1.0588-0.99381-0.22899-0.0795-0.25788-0.13175-0.23323-0.41883l0.0281-0.32767 1.3919-0.4338c0.76556-0.23863 1.5536-0.50389 1.7512-0.5895 0.45109-0.19536 0.76425-0.1986 0.83708-9e-3 0.031 0.0804 0.0563 2.7296 0.0563 5.8863 0 3.3076 0.0365 5.8357 0.0862 5.9663 0.11126 0.2926 0.52791 0.435 1.2732 0.435h0.58932v0.9743h-6.4956v-0.4741zm7.5163 0v-0.4782l0.87911-0.032c0.76703-0.028 0.90606-0.059 1.0903-0.2436l0.21122-0.2114v-4.2427c0-3.8471-0.015-4.2701-0.16054-4.5361-0.20706-0.37842-0.56089-0.6533-1.0166-0.78985-0.34028-0.10198-0.3615-0.12907-0.33541-0.42854 0.0268-0.30825 0.0593-0.33349 0.90938-0.70738 0.48485-0.21321 1.2748-0.58618 1.7554-0.82878 0.53056-0.26785 0.96805-0.4302 1.1135-0.41328l0.23964 0.0277 0.0464 1.1346 0.0464 1.1345 0.43805-0.54799c0.50238-0.62842 1.4429-1.3355 2.1171-1.5917 1.0293-0.39109 2.1418-0.12333 2.5755 0.61992 0.27355 0.46867 0.25446 1.3821-0.037 1.7726-0.35714 0.47828-0.6585 0.63323-1.2263 0.63046-0.43707 0-0.60939-0.0555-1.012-0.31417-0.5578-0.35827-1.0108-0.40302-1.5132-0.1495-0.44197 0.2231-0.90199 0.67281-1.1415 1.1159-0.19444 0.35965-0.20157 0.48475-0.23019 4.0366-0.0197 2.4392 4e-3 3.7789 0.0707 4.0047 0.13574 0.4593 0.41517 0.5422 1.8286 0.5422h1.1461v0.9744h-7.7947zm25.982 0v-0.4738l0.74905-0.052c1.2104-0.083 1.1068 0.3551 1.1068-4.6817 0-2.9962-0.0316-4.3684-0.10393-4.5094-0.20707-0.40376-0.68031-0.80483-1.1235-0.95202-0.44838-0.14895-0.45241-0.15385-0.42459-0.51591l0.0281-0.36548 1.0671-0.35725c0.58693-0.19647 1.4576-0.50814 1.9348-0.6925 1.2757-0.49298 1.2202-0.5221 1.2202 0.63906 0 0.53587 0.0164 0.9743 0.0364 0.9743 0.0201 0 0.40627-0.23336 0.85835-0.51849 1.8544-1.1699 2.7344-1.4698 4.1437-1.4124 0.97849 0.0398 1.363 0.16513 2.0372 0.66356 0.35875 0.26526 0.79314 0.9683 1.0268 1.6618 0.1849 0.54883 0.19802 0.82296 0.2454 5.1267 0.0275 2.5009 0.0829 4.5976 0.12301 4.6596 0.10821 0.167 0.69101 0.3039 1.2958 0.3044l0.53357 6e-4v0.9744h-6.4028v-0.9506l0.75763-0.043c1.1859-0.068 1.0982 0.2883 1.0982-4.474 0-4.5401-0.0237-4.7381-0.63864-5.3531-0.59549-0.59551-1.7558-0.79845-2.8011-0.48993-0.6826 0.20156-1.5172 0.55724-1.9534 0.83267l-0.36004 0.22726v8.7099l0.21642 0.2517c0.19474 0.2263 0.29236 0.256 0.97434 0.2955l0.75792 0.043v0.4753l-1e-5 0.4753h-6.4028v-0.4739zm15.682 0v-0.4756l0.80287-0.042c1.2461-0.066 1.1462 0.3532 1.1438-4.7935-2e-3 -3.9982-0.015-4.3564-0.17239-4.7029-0.18737-0.41254-0.65551-0.85319-1.0538-0.99206-0.21799-0.0758-0.25593-0.14025-0.25301-0.42835l4e-3 -0.33885 1.5973-0.53939c1.8123-0.61206 2.2072-0.69685 2.3643-0.50759 0.0589 0.0712 0.11922 0.5112 0.13403 0.97829l0.0269 0.84921 0.7224-0.49686c1.6295-1.1205 2.7094-1.4839 4.2358-1.4253 0.83531 0.0324 1.0512 0.074 1.4565 0.28393 0.5998 0.31038 1.0001 0.70868 1.2929 1.2866 0.12617 0.24889 0.24623 0.45266 0.26682 0.45266 0.0206 0 0.36438-0.22457 0.764-0.49889 0.9197-0.63157 1.8486-1.0982 2.7014-1.3573 0.94789-0.28791 2.2559-0.24215 2.9977 0.10475 0.82346 0.38517 1.4097 1.0968 1.7862 2.1681 0.061 0.17364 0.11757 2.0244 0.1495 4.8933 0.0607 5.4421-0.0468 4.991 1.2057 5.0635l0.74794 0.043v0.9505h-6.4028v-0.9547l0.74037-0.033c0.61941-0.028 0.7748-0.068 0.95114-0.2444 0.21027-0.2101 0.21083-0.2184 0.23944-3.5719 0.0307-3.6026-0.0493-4.8295-0.36076-5.5337-0.6814-1.5404-2.3163-1.6678-4.6092-0.3591l-0.67275 0.38397v4.3972c0 2.7882 0.0343 4.4615 0.0939 4.5727 0.1194 0.2231 0.63861 0.368 1.3212 0.3686l0.53357 6e-4v0.9744h-6.4956v-0.9511l0.79219-0.042c0.58344-0.031 0.83406-0.083 0.95114-0.2007 0.14523-0.1452 0.15896-0.5092 0.15896-4.2153 0-3.6826-0.0158-4.1076-0.17148-4.6123-0.36215-1.174-1.4014-1.7833-2.6127-1.5318-0.65364 0.13564-1.514 0.48577-2.2481 0.91477l-0.57819 0.33783-2e-3 4.332c-9.3e-4 2.4463 0.0357 4.4308 0.0844 4.5588 0.11126 0.2927 0.52791 0.435 1.2732 0.435h0.58932v0.9744h-6.4956v-0.4756zm36.19 3e-4v-0.4752l0.75763-0.044c1.189-0.068 1.0982 0.318 1.0982-4.6793 0-3.3674-0.0257-4.2763-0.12766-4.5204-0.16212-0.38804-0.70275-0.83627-1.1818-0.97976-0.36031-0.10799-0.37023-0.12186-0.34276-0.48253l0.0283-0.3714 1.2991-0.44361c0.71451-0.24399 1.5738-0.55474 1.9096-0.69046 1.0113-0.40903 1.0026-0.41522 1.0335 0.73087l0.0264 0.97772 0.83515-0.53042c1.0371-0.65866 2.1577-1.1854 2.8396-1.3347 0.30251-0.0666 0.88428-0.0966 1.3919-0.073 0.70603 0.0333 0.96056 0.0869 1.3362 0.28199 0.80682 0.41911 1.398 1.1788 1.6843 2.1647 0.13945 0.48013 0.1647 1.135 0.19534 5.0664 0.0411 5.2822-0.0747 4.8021 1.1777 4.8802l0.79364 0.05v0.9482h-6.4956v-0.9743h0.58932c0.74528 0 1.1619-0.1424 1.2732-0.435 0.12287-0.3233 0.111-7.7916-0.0133-8.3712-0.27262-1.2712-1.6265-1.95-3.1608-1.5847-0.62377 0.14849-1.8284 0.6508-2.2068 0.92031l-0.28623 0.20378v4.3026c0 2.4233 0.0376 4.4016 0.0862 4.5293 0.11126 0.2926 0.52791 0.435 1.2732 0.435h0.58932v0.9743h-6.4028zm-82.927-15.723c-0.85353-0.54679-0.95956-1.6861-0.22525-2.4204 0.94145-0.94148 2.595-0.25324 2.6046 1.084 3e-3 0.40949-0.3666 1.076-0.73084 1.3181-0.42046 0.27941-1.227 0.28837-1.6485 0.0185z" stroke-width=".092794"/>
</g>
</svg>
