<?xml version="1.0" encoding="UTF-8" standalone="no"?>
<!-- Created with Inkscape (http://www.inkscape.org/) -->

<svg
   xmlns:dc="http://purl.org/dc/elements/1.1/"
   xmlns:cc="http://creativecommons.org/ns#"
   xmlns:rdf="http://www.w3.org/1999/02/22-rdf-syntax-ns#"
   xmlns:svg="http://www.w3.org/2000/svg"
   xmlns="http://www.w3.org/2000/svg"
   xmlns:sodipodi="http://sodipodi.sourceforge.net/DTD/sodipodi-0.dtd"
   xmlns:inkscape="http://www.inkscape.org/namespaces/inkscape"
   width="250"
   height="91"
   viewBox="0 0 250 91"
   id="svg2"
   version="1.1"
   inkscape:version="0.92.2 (5c3e80d, 2017-08-06)"
   sodipodi:docname="ea.svg">
  <defs
     id="defs4" />
  <sodipodi:namedview
     id="base"
     pagecolor="#ffffff"
     bordercolor="#666666"
     borderopacity="1.0"
     inkscape:pageopacity="0.0"
     inkscape:pageshadow="2"
     inkscape:zoom="1.9799"
     inkscape:cx="183.26"
     inkscape:cy="27.908"
     inkscape:document-units="px"
     inkscape:current-layer="layer1"
     showgrid="false"
     inkscape:window-width="1920"
     inkscape:window-height="1001"
     inkscape:window-x="-9"
     inkscape:window-y="-9"
     inkscape:window-maximized="1"
     units="px" />
  <metadata
     id="metadata7">
    <rdf:RDF>
      <cc:Work
         rdf:about="">
        <dc:format>image/svg+xml</dc:format>
        <dc:type
           rdf:resource="http://purl.org/dc/dcmitype/StillImage" />
        <dc:title></dc:title>
      </cc:Work>
    </rdf:RDF>
  </metadata>
  <g
     inkscape:label="Layer 1"
     inkscape:groupmode="layer"
     id="layer1"
     transform="translate(0,-961.4)">
    <rect
       style="opacity:0.001;fill:#ffffff;fill-opacity:1;stroke:none;stroke-width:2.5;stroke-linecap:round;stroke-linejoin:round;stroke-miterlimit:4;stroke-dasharray:none;stroke-dashoffset:0;stroke-opacity:1"
       id="rect4175"
       width="250"
       height="91"
       x="0"
       y="961.4" />
    <path
       style="fill:#ffffff;stroke-width:0.09279419"
       d="m 41.984013,1037.9802 c -2.158146,-0.143 -5.289267,-0.6725 -5.289267,-0.8944 0,-0.1562 0.850701,-2.0756 1.989256,-4.4883 0.900128,-1.9075 4.729434,-9.5155 5.385293,-10.6994 0.332075,-0.5994 0.356253,-0.6216 0.481531,-0.4427 0.222266,0.3173 4.698295,9.2153 5.628222,11.1885 0.859586,1.8239 1.919535,4.1778 1.919535,4.2629 0,0.1425 -3.021699,0.7452 -4.639715,0.9253 -1.622037,0.1805 -4.00954,0.2452 -5.474855,0.1481 z m -10.789797,-2.6859 c -6.665611,-3.0646 -11.864919,-8.1146 -15.053252,-14.6208 -1.484472,-3.0294 -2.35224,-5.868 -2.893452,-9.4651 -0.240369,-1.5975 -0.239601,-6.6419 9.24e-4,-8.2587 0.803715,-5.39499 2.709742,-10.10296 5.759723,-14.22662 1.487227,-2.01083 3.674599,-4.29663 5.530209,-5.77908 6.964967,-5.56421 15.828933,-7.86176 24.636862,-6.38597 11.58569,1.94131 21.211027,10.5124 24.499407,21.81603 0.846217,2.90884 1.1896,5.42154 1.1896,8.70494 0,2.6172 -0.123633,3.9307 -0.584842,6.214 -1.787507,8.849 -7.457769,16.5512 -15.407175,20.9282 -1.243974,0.6849 -2.719542,1.3562 -2.795486,1.2717 -0.03227,-0.036 -0.205937,-0.4619 -0.385885,-0.9467 -1.417589,-3.8196 -4.082581,-10.1866 -6.256417,-14.9474 l -0.82964,-1.8169 0.121738,-1.4309 c 0.121044,-1.4228 0.305818,-2.982 0.521426,-4.4003 l 0.112862,-0.7423 0.695957,-0.213 c 3.969211,-1.2146 7.67003,-3.2195 10.783852,-5.8421 l 0.715687,-0.6029 -0.994073,-1.4726 c -0.546732,-0.8099 -1.026017,-1.4728 -1.06508,-1.4731 -0.03911,-3e-4 -0.352241,0.2038 -0.695957,0.4533 -1.39588,1.0136 -3.64333,2.2616 -5.506429,3.0576 -1.926071,0.8231 -4.107036,1.4478 -6.25381,1.7915 -1.131057,0.181 -4.224733,0.1553 -5.517949,-0.046 -3.662625,-0.5699 -7.379208,-2.0693 -10.902557,-4.3986 -0.714106,-0.4721 -1.320325,-0.8567 -1.347174,-0.8547 -0.07461,0.01 -1.951118,2.8135 -1.951025,2.9194 1.85e-4,0.2278 2.544355,2.1646 4.209089,3.2043 2.063369,1.2888 3.7643,2.0856 6.230197,2.9191 l 1.67029,0.5644 0.153256,1.0174 c 0.194334,1.2902 0.436191,3.4234 0.530922,4.6828 l 0.07332,0.9743 -1.133211,2.5055 c -2.076036,4.5899 -4.899342,11.3668 -6.079114,14.5918 -0.210884,0.5765 -0.360543,0.8574 -0.455745,0.8555 -0.07794,0 -0.675275,-0.2482 -1.327351,-0.548 z m -4.506208,-18.0482 c 1.860908,-0.3638 3.319104,-1.227 4.451853,-2.635 0.473312,-0.5884 1.007969,-1.4603 1.007969,-1.6437 0,-0.031 -0.216653,0.1329 -0.481439,0.3645 -1.569513,1.3729 -4.297644,1.9381 -6.510442,1.3487 -0.211891,-0.056 -0.71932,-0.2752 -1.127608,-0.4862 -1.887646,-0.9753 -3.022096,-2.9448 -3.17305,-5.5089 -0.118695,-2.0161 0.455561,-3.7288 1.724646,-5.144 l 0.467922,-0.5219 -0.308768,-0.6136 c -0.169814,-0.3376 -0.361449,-0.862 -0.425845,-1.1654 -0.163823,-0.772 -0.08266,-2.13863 0.168142,-2.8315 0.823703,-2.27545 2.978235,-3.73459 5.212325,-3.52999 0.956462,0.0878 1.949527,0.35522 2.595178,0.69934 0.477233,0.25435 1.759142,1.41144 1.84324,1.66376 0.0171,0.0518 0.07332,0.0935 0.124936,0.0935 0.139647,0 0.0037,-0.85929 -0.263214,-1.6668 -0.267754,-0.80928 -0.874527,-1.76463 -1.46844,-2.31206 -0.586913,-0.54106 -1.439981,-1.07481 -1.942621,-1.21553 l -0.425114,-0.11899 v -0.5785 c 0,-1.37843 0.49675,-2.60348 1.430911,-3.52878 2.010179,-1.99124 5.115431,-1.89009 7.033181,0.2291 l 0.525726,0.58091 0.307196,-0.35568 c 0.522915,-0.6055 0.931166,-0.96377 1.621205,-1.42245 2.13592,-1.42003 4.955176,-1.5872 7.252876,-0.4301 0.792195,0.39895 1.67434,1.06232 2.148845,1.61586 0.433094,0.50527 0.476401,0.39682 0.197302,-0.494 -0.405837,-1.29531 -1.003577,-2.25316 -1.951034,-3.12632 -1.068113,-0.98448 -2.172653,-1.54532 -3.563318,-1.80937 -0.887351,-0.16855 -2.210773,-0.12001 -3.078837,0.11289 -0.824314,0.22115 -1.963618,0.80474 -2.624756,1.34459 l -0.58328,0.47624 -0.762238,-0.32295 c -1.108026,-0.4694 -1.976701,-0.64386 -3.174881,-0.63758 -3.262113,0.0167 -6.161705,2.10459 -7.179604,5.16887 -0.274226,0.82555 -0.475911,1.9476 -0.475911,2.64777 0,0.34708 -0.01507,0.36465 -0.394373,0.46034 -2.458047,0.62011 -4.281177,2.13935 -5.233479,4.36136 -0.763218,1.78071 -0.777457,3.72637 -0.04114,5.62267 l 0.283999,0.7313 -0.451733,0.4654 c -1.752383,1.8054 -2.635305,4.363 -2.332945,6.7579 0.446463,3.5363 2.965014,6.5111 6.174603,7.2931 0.910844,0.222 2.439306,0.2494 3.402028,0.061 z m 41.295306,-9.3161 c 2.268308,-2.4501 2.792351,-5.9349 1.328368,-8.8333 -0.936501,-1.85412 -2.665788,-3.33546 -4.603389,-3.94327 l -0.520668,-0.16337 -0.05612,-0.7991 c -0.284489,-4.05301 -3.017206,-6.78427 -6.787987,-6.78427 -1.654804,0 -3.80229,0.68066 -4.827392,1.53006 l -0.278386,0.23068 0.41758,-0.1458 c 0.229662,-0.0804 0.836851,-0.16883 1.349309,-0.19684 1.292107,-0.0703 2.221091,0.12546 3.475984,0.73336 0.819589,0.39701 1.085374,0.58414 1.673415,1.17854 1.172302,1.18483 1.667665,2.44039 1.666639,4.22434 -4.62e-4,0.83211 -0.03735,1.18206 -0.247848,2.35144 -0.05122,0.28477 -0.03892,0.3016 0.221405,0.3016 0.461959,0 1.705415,0.35595 2.410969,0.69028 1.833485,0.86863 3.058552,2.11045 3.924351,3.97805 0.815836,1.7598 0.951192,3.7965 0.375281,5.647 -0.09272,0.2978 -0.135689,0.5416 -0.0955,0.5416 0.04022,0 0.298468,-0.2435 0.573961,-0.541 z m -22.333929,-3.642 c 0.276213,-0.1178 0.274041,-0.1192 -0.278387,-0.1799 -0.977375,-0.1071 -1.774424,-0.6955 -2.197893,-1.6223 -0.322923,-0.7068 -0.303377,-1.7682 0.04567,-2.479 0.68342,-1.39171 2.231418,-1.94376 3.572028,-1.27382 0.650866,0.32526 0.972429,0.66614 1.299605,1.37792 0.237613,0.517 0.317874,1.4469 0.168936,1.9573 -0.0649,0.2225 -0.06185,0.2246 0.07628,0.052 0.328229,-0.4106 0.540029,-1.2024 0.584787,-2.18619 0.03985,-0.87686 0.01969,-1.04763 -0.201944,-1.70656 -0.672426,-1.99937 -2.271433,-3.21703 -4.230326,-3.22128 -0.865041,0 -1.343771,0.11381 -2.075074,0.50148 -1.454562,0.771 -2.47322,2.49993 -2.469078,4.19069 0.0055,2.16166 1.42848,4.07436 3.456559,4.64556 0.564354,0.1589 1.818211,0.1278 2.248911,-0.056 z m 58.745145,30.7201 c -1.49415,-0.3148 -2.52929,-0.9808 -2.99339,-1.9259 -0.36113,-0.7354 -0.36804,-1.7714 -0.0168,-2.5262 0.40677,-0.8741 1.28074,-1.5726 2.43687,-1.9475 l 0.36101,-0.117 -0.62037,-0.3275 c -1.39387,-0.7358 -1.96314,-1.9954 -1.3968,-3.0905 0.0787,-0.1522 0.50056,-0.467 1.10558,-0.8251 0.53808,-0.3185 0.978,-0.6059 0.97761,-0.6387 0,-0.033 -0.16201,-0.1517 -0.35917,-0.2643 -1.19677,-0.6833 -2.02166,-1.9323 -2.11809,-3.2073 -0.21137,-2.7948 1.66911,-4.6789 4.93702,-4.9465 0.91162,-0.075 1.82041,0.053 3.47978,0.4893 1.09219,0.2871 1.40137,0.3306 2.41265,0.3396 0.63796,0.01 1.31651,-0.022 1.50791,-0.062 l 0.34798,-0.072 v 0.8539 0.8538 l -1.34552,-0.058 c -0.74003,-0.032 -1.34552,-0.043 -1.34552,-0.026 0,0.018 0.11119,0.2752 0.24709,0.5721 0.29833,0.6516 0.38826,1.641 0.21568,2.3728 -0.57776,2.4502 -3.06313,3.9117 -6.12291,3.6008 l -0.78844,-0.08 -0.30013,0.2909 c -0.57457,0.5569 -0.62689,1.3466 -0.11761,1.7751 0.42763,0.3598 1.02136,0.4313 3.5999,0.4333 1.31168,0 2.66349,0.042 3.00401,0.092 1.94458,0.2812 2.93727,1.2847 2.96299,2.995 0.0124,0.8237 -0.11337,1.3159 -0.54866,2.148 -0.89823,1.7167 -2.76122,2.9412 -5.09392,3.3479 -1.13986,0.1988 -3.36922,0.1741 -4.4287,-0.049 z m 3.84452,-1.0723 c 0.64128,-0.077 1.58115,-0.3629 2.16584,-0.6588 1.02909,-0.5206 1.65199,-1.4242 1.65199,-2.3964 0,-0.9187 -0.50517,-1.5447 -1.54003,-1.9084 -1.40979,-0.4955 -4.61723,-0.4088 -5.73805,0.1552 -0.87353,0.4395 -1.33165,1.2835 -1.24987,2.3023 0.11124,1.3857 1.18509,2.3205 2.93035,2.551 0.61065,0.081 0.76797,0.077 1.77977,-0.045 z m -0.30064,-11.0065 c 0.56732,-0.1433 1.14601,-0.6926 1.46685,-1.3921 0.24607,-0.5365 0.26862,-0.6744 0.27029,-1.6526 0.002,-1.2297 -0.15079,-1.8572 -0.62374,-2.5604 -1.14738,-1.7056 -3.46788,-1.3943 -4.25468,0.5708 -0.18943,0.4732 -0.22075,0.7091 -0.22103,1.6649 0,0.8259 0.0421,1.2359 0.16401,1.5872 0.37999,1.0954 1.03215,1.7463 1.8893,1.8858 0.46983,0.077 0.65467,0.062 1.309,-0.1036 z m 48.83056,12.0943 c -0.69339,-0.3689 -0.92957,-1.297 -0.52516,-2.0636 0.38632,-0.7323 1.26819,-1.0232 2.07712,-0.6852 0.18602,0.078 0.36841,0.1091 0.40532,0.069 0.0687,-0.073 1.28018,-2.8064 1.66337,-3.7523 l 0.21292,-0.5256 -2.10805,-5.3204 c -1.15942,-2.9263 -2.19911,-5.4199 -2.31043,-5.5415 -0.26523,-0.2897 -0.86776,-0.5631 -1.24633,-0.5656 h -0.30158 v -0.507 -0.5069 h 3.1086 3.10861 v 0.4917 0.4917 l -0.51422,0.043 c -0.70896,0.059 -1.02214,0.3034 -1.0013,0.7822 0.0129,0.2961 2.5796,6.9743 2.74348,7.1382 0.0544,0.055 2.38954,-5.6148 2.62795,-6.3799 0.2883,-0.9252 -0.0343,-1.4289 -0.98972,-1.5455 -0.27496,-0.033 -0.4895,-0.092 -0.47674,-0.1307 0.0128,-0.038 0.0232,-0.256 0.0232,-0.4839 v -0.4143 h 2.55183 2.55185 v 0.4921 0.4921 l -0.45279,0.06 c -0.57124,0.076 -0.99824,0.36 -1.36862,0.9111 -0.15967,0.2375 -1.36497,2.9506 -2.67846,6.0291 -1.31349,3.0785 -2.84645,6.6718 -3.4066,7.9852 -1.11575,2.616 -1.3631,3.0567 -1.8969,3.3799 -0.45975,0.2783 -1.31885,0.2999 -1.79736,0.045 z m -37.30182,-6.0164 c -1.56921,-0.2624 -2.90821,-1.2797 -3.70872,-2.8178 -0.6492,-1.2473 -0.79304,-1.9362 -0.78361,-3.7529 0.01,-1.8637 0.15591,-2.5511 0.83716,-3.9348 1.11325,-2.2612 3.51692,-3.6135 5.81526,-3.2716 2.38496,0.3546 3.8356,1.7877 4.17635,4.1256 0.0897,0.6151 0.0845,0.7666 -0.0333,0.9765 l -0.13939,0.2484 -4.07942,0.046 -4.07943,0.046 0.017,1.0418 c 0.0283,1.7347 0.49601,3.0425 1.46089,4.0847 1.64542,1.7773 3.97347,1.6581 6.08484,-0.3115 l 0.32478,-0.303 0.30159,0.2713 c 0.16587,0.1492 0.30157,0.2986 0.30157,0.3318 0,0.033 -0.23636,0.3495 -0.52525,0.7027 -1.00515,1.2286 -2.30704,2.1107 -3.60039,2.4395 -0.50916,0.1293 -1.80358,0.1712 -2.36995,0.077 z m 3.34059,-9.6133 c 0.20034,-0.101 0.23576,-0.1888 0.25969,-0.6438 0.0553,-1.0519 -0.59674,-1.9632 -1.61687,-2.2598 -1.57992,-0.4593 -3.12785,0.5643 -3.68247,2.4352 -0.0781,0.2635 -0.11752,0.5036 -0.0876,0.5335 0.03,0.03 1.14363,0.054 2.47485,0.053 1.75955,0 2.48372,-0.033 2.65236,-0.1182 z m 24.37299,9.4378 c -0.81113,-0.1964 -1.90991,-0.8086 -2.5199,-1.4042 -1.36127,-1.3291 -1.98821,-3.0487 -1.87037,-5.1302 0.072,-1.2727 0.32725,-2.2556 0.86744,-3.3406 0.36616,-0.7355 0.57784,-1.0204 1.27764,-1.7196 0.92273,-0.922 1.62836,-1.3523 2.83384,-1.7281 0.59073,-0.1842 0.89237,-0.2168 1.99507,-0.2162 0.77793,5e-4 1.50387,0.051 1.80949,0.1265 0.74254,0.183 1.62055,0.6213 1.89272,0.9448 0.9163,1.0889 0.0364,2.7891 -1.18028,2.2807 -0.1928,-0.081 -0.52213,-0.3886 -0.83622,-0.7823 -0.65441,-0.8202 -0.8948,-1.0072 -1.53253,-1.1927 -1.7945,-0.5216 -3.6419,0.7539 -4.34147,2.9976 -0.22573,0.7241 -0.23994,0.8699 -0.19579,2.0069 0.0688,1.7717 0.42214,2.813 1.2577,3.7062 0.71407,0.7634 1.48744,1.1286 2.71976,1.2843 1.27082,0.1606 2.44144,-0.1332 3.58413,-0.8994 l 0.61353,-0.4114 0.35568,0.3472 0.35568,0.3474 -0.5809,0.5913 c -1.04758,1.0664 -2.24327,1.7974 -3.51796,2.1507 -0.80627,0.2234 -2.15758,0.242 -2.98726,0.041 z m -8.85316,-0.2026 -2.89982,-0.024 v -0.5091 -0.5089 h 0.72462 c 1.19001,0 1.08487,0.4421 1.08487,-4.5628 0,-4.2278 -0.004,-4.3053 -0.20029,-4.6703 -0.77193,-1.4305 -2.49813,-1.5731 -4.7874,-0.3956 l -0.71915,0.3699 v 4.4016 4.4016 l 0.22776,0.2278 c 0.20329,0.2033 0.30637,0.2278 0.95888,0.2278 0.4021,0 0.74851,0.017 0.76976,0.039 0.0213,0.021 0.0242,0.2509 0.006,0.5104 l -0.0322,0.4718 h -3.19245 -3.19244 v -0.5104 -0.5104 h 0.74236 c 1.21015,0 1.11352,0.4034 1.11352,-4.6488 0,-3.8118 -0.0169,-4.3135 -0.15569,-4.6059 -0.16647,-0.3507 -0.79574,-0.8095 -1.24622,-0.9084 -0.24428,-0.054 -0.26813,-0.094 -0.26556,-0.446 l 0.003,-0.387 1.08751,-0.352 c 0.59812,-0.1937 1.50508,-0.5173 2.01544,-0.7193 0.51037,-0.202 0.98014,-0.3476 1.04394,-0.3237 0.0822,0.031 0.116,0.3149 0.116,0.9745 0,0.5992 0.0354,0.9309 0.0993,0.9309 0.0546,0 0.27382,-0.1191 0.48717,-0.2646 2.41925,-1.6502 4.48154,-2.0738 6.03153,-1.2389 0.53389,0.2875 0.90535,0.6908 1.23426,1.3398 0.43994,0.8682 0.49249,1.5122 0.496,6.0793 0.004,4.9773 -0.0998,4.5701 1.16317,4.5701 h 0.78875 v 0.5002 c 0,0.4957 -0.003,0.5006 -0.30158,0.5336 -0.16587,0.018 -1.6065,0.022 -3.2014,0.01 z m -57.926763,-0.4857 v -0.4641 h 0.35433 c 0.621104,0 1.297442,-0.2598 1.684964,-0.6473 0.209145,-0.2092 0.553185,-0.7585 0.824951,-1.3172 0.687599,-1.4136 5.272505,-12.5681 5.448764,-13.2562 0.09923,-0.3874 0.132564,-0.7673 0.09701,-1.1058 l -0.05418,-0.5156 0.463281,-0.2165 c 0.254819,-0.1191 0.670171,-0.3801 0.923039,-0.58 0.352629,-0.2788 0.542155,-0.3634 0.813515,-0.3634 h 0.353785 l 3.099038,7.4003 c 1.704472,4.0702 3.307966,7.8998 3.563346,8.5102 0.68875,1.6464 1.22366,2.0915 2.51277,2.0915 h 0.42289 v 0.4641 0.4639 h -3.990144 -3.990153 v -0.4639 -0.4641 h 0.698934 c 0.816067,0 1.296314,-0.1681 1.451234,-0.5081 0.139729,-0.3067 0.05316,-0.5834 -1.017031,-3.25 l -0.819293,-2.0415 H 89.827579 86.4133 l -0.508695,1.392 c -0.674081,1.8445 -0.982979,3.0437 -0.911408,3.5386 0.09854,0.6815 0.516397,0.8817 1.831128,0.877 h 0.90722 v 0.4615 0.4617 h -3.665372 -3.665371 v -0.464 z m 12.221763,-7.7252 c -0.44393,-1.0974 -2.883402,-6.815 -2.927902,-6.8623 -0.05205,-0.055 -2.705479,6.7244 -2.705479,6.9126 0,0.036 1.278063,0.066 2.840151,0.066 2.235283,0 2.830157,-0.025 2.79323,-0.116 z m 59.69372,-16.3307 c -2.84371,-0.28 -4.95605,-2.0268 -5.67973,-4.69707 -0.25779,-0.9511 -0.27946,-3.08582 -0.0411,-4.04987 0.62183,-2.51518 2.56737,-4.39538 5.10559,-4.93384 0.8488,-0.18011 3.09158,-0.11946 3.90946,0.10567 1.75161,0.48226 3.22639,1.65433 3.92419,3.11865 0.47197,0.99049 0.66089,1.74503 0.73177,2.92274 0.14183,2.35671 -0.59326,4.32052 -2.16762,5.79082 -0.75226,0.7025 -1.92328,1.3501 -2.85952,1.5811 -0.6573,0.1623 -2.10456,0.2424 -2.92302,0.1618 z m 2.44606,-1.3983 c 1.03169,-0.4723 1.72254,-1.3404 2.20827,-2.77491 0.25253,-0.74584 0.29784,-1.02793 0.33641,-2.09469 0.0684,-1.89129 -0.25181,-3.35793 -1.00771,-4.6158 -1.51973,-2.52896 -4.86109,-2.34506 -6.21762,0.34228 -0.55123,1.09191 -0.68921,1.8126 -0.6811,3.55763 0.006,1.4413 0.0292,1.64933 0.26078,2.41015 0.57582,1.89164 1.49451,2.98134 2.83394,3.36134 0.62406,0.1771 1.65967,0.093 2.26703,-0.186 z m -35.14991,1.1236 c -0.0702,-0.1684 -1.071,-2.594 -2.2241,-5.39011 -1.15309,-2.79607 -2.18586,-5.25975 -2.29506,-5.4749 -0.41921,-0.82564 -0.79077,-1.1325 -1.48758,-1.22828 l -0.44856,-0.062 v -0.47846 l 1e-5,-0.47846 h 3.2942 3.2942 l -10e-6,0.478 v 0.47809 l -0.57185,0.0666 c -0.42644,0.049 -0.62977,0.12426 -0.79968,0.29419 -0.40035,0.40034 -0.28834,0.83461 1.13226,4.39011 0.70351,1.76084 1.31991,3.30578 1.36979,3.43337 l 0.0907,0.23205 0.12123,-0.23205 c 0.0667,-0.12759 0.6897,-1.55511 1.38447,-3.17227 1.35078,-3.14426 1.60876,-3.93818 1.43838,-4.427 -0.12814,-0.36751 -0.30417,-0.46099 -1.00599,-0.5344 l -0.56105,-0.0583 v -0.47393 -0.47393 h 2.59823 2.59824 v 0.4829 0.48299 l -0.34798,0.061 c -0.53551,0.0938 -1.08833,0.45757 -1.39182,0.91579 -0.21932,0.33108 -2.42962,5.36376 -4.68946,10.6773 l -0.31571,0.7425 -0.52764,0.028 c -0.51902,0.028 -0.52971,0.023 -0.6552,-0.2784 z m 85.62201,0.1541 c -2.31674,-0.624 -3.88256,-2.8683 -4.0762,-5.84247 -0.10271,-1.57759 0.1923,-3.13197 0.84536,-4.45409 0.66353,-1.3434 1.49208,-2.20296 2.71756,-2.81928 0.80452,-0.40468 1.50609,-0.56796 2.43278,-0.56639 1.96654,0 3.54913,0.86873 4.34118,2.37355 0.52944,1.00583 0.73876,2.40118 0.43076,2.87123 l -0.14987,0.22874 h -4.01506 c -4.68112,0 -4.16445,-0.17659 -4.03721,1.37973 0.14671,1.79439 0.71431,3.08068 1.79402,4.06528 1.50017,1.3683 3.52824,1.2239 5.46576,-0.3891 l 0.62447,-0.5199 0.32025,0.2555 c 0.40929,0.3266 0.39186,0.3601 -0.81911,1.5744 -1.49825,1.5024 -2.58735,1.9909 -4.41345,1.9794 -0.53699,0 -1.19455,-0.065 -1.46124,-0.1366 z m 3.93066,-9.65103 c 0.21437,-0.21432 0.22993,-0.28005 0.17015,-0.71913 -0.12695,-0.93233 -0.65017,-1.66523 -1.41773,-1.98596 -0.17716,-0.074 -0.60833,-0.13314 -0.96312,-0.13203 -0.79861,0 -1.43493,0.27404 -2.00638,0.85605 -0.42749,0.43538 -0.92475,1.36845 -1.01032,1.89573 l -0.0521,0.32129 h 2.52179 2.52181 z m 22.61877,9.64853 c -0.56072,-0.2059 -1.09195,-0.7059 -1.34491,-1.2659 l -0.22196,-0.4911 -0.0276,-4.98775 -0.0277,-4.98766 h -0.92344 -0.92347 l 0.003,-0.348 c 0.003,-0.32933 0.0402,-0.37279 0.7021,-0.81196 0.79728,-0.52894 2.25343,-1.97995 2.77451,-2.76481 0.31147,-0.46913 0.38696,-0.52932 0.66312,-0.52932 h 0.31165 v 1.43826 1.43834 h 2.08787 2.08787 v 0.78875 0.78874 h -2.09215 -2.09216 l 0.0275,4.33815 0.0275,4.33806 0.22003,0.4469 c 0.24567,0.499 0.70544,0.8522 1.23366,0.9477 0.45428,0.082 1.23429,-0.1518 1.74854,-0.5243 l 0.40656,-0.2945 0.26028,0.3118 c 0.14315,0.1715 0.26028,0.3412 0.26028,0.3771 0,0.1911 -1.25479,1.1624 -1.94137,1.5027 -0.76116,0.3773 -0.8081,0.3879 -1.80949,0.4082 -0.73174,0.015 -1.13809,-0.019 -1.40986,-0.1194 z m -150.269537,-0.7481 -9e-6,-0.4759 0.81664,-0.039 c 1.003079,-0.048 1.452038,-0.2501 1.729213,-0.7784 0.188861,-0.36 0.191579,-0.4689 0.191579,-7.66595 0,-7.23037 -0.0018,-7.30323 -0.191579,-7.56275 -0.301787,-0.41264 -0.770754,-0.592 -1.706792,-0.65265 l -0.839061,-0.0545 v -0.45026 -0.45018 h 7.701919 7.701918 v 2.12493 2.12493 l -0.415435,0.0333 -0.415425,0.0333 -0.183877,-0.60365 c -0.352019,-1.15571 -0.91886,-1.79486 -1.896495,-2.13843 -0.833301,-0.2929 -1.630765,-0.36372 -4.117927,-0.36566 h -2.343059 v 3.53174 3.53165 l 2.482252,-0.0287 c 2.285967,-0.0268 2.507096,-0.0435 2.796521,-0.21431 0.4112,-0.24288 0.627132,-0.66486 0.767463,-1.50002 l 0.114378,-0.68066 h 0.42284 0.42285 l -0.06879,1.04393 c -0.03781,0.57415 -0.04262,1.99391 -0.01072,3.15498 l 0.05797,2.11106 h -0.43019 c -0.42861,0 -0.430191,0 -0.430191,-0.32018 0,-1.15034 -0.488642,-1.89046 -1.373274,-2.0799 -0.285866,-0.061 -1.38338,-0.10531 -2.621437,-0.10531 h -2.129706 v 2.91839 c 0,3.3687 0.0478,3.7389 0.547222,4.2387 0.500587,0.501 1.004095,0.5761 3.48607,0.5199 2.21118,-0.05 2.982535,-0.186 3.818665,-0.6736 0.55508,-0.3237 1.258581,-1.1378 1.664179,-1.92568 l 0.353553,-0.68676 0.424022,0.0888 c 0.2332,0.049 0.43346,0.0969 0.44502,0.1067 0.0116,0.0102 -0.0568,0.22421 -0.15186,0.47633 -0.16429,0.43581 -0.957901,3.16581 -1.064439,3.66181 l -0.0502,0.2338 h -7.7519 -7.75191 v -0.4758 z m 17.723677,-0.011 v -0.4872 l 0.48717,-0.01 c 0.75928,-0.012 1.03082,-0.076 1.20633,-0.2841 0.14948,-0.1774 0.16223,-0.5257 0.16034,-4.38145 -0.002,-3.87679 -0.0149,-4.21685 -0.17392,-4.56716 -0.20203,-0.44481 -0.51198,-0.70988 -1.08675,-0.92938 -0.40709,-0.15542 -0.41619,-0.1679 -0.38901,-0.53153 l 0.0278,-0.37232 1.20632,-0.402 c 0.66347,-0.22106 1.5272,-0.53089 1.91939,-0.68834 1.03381,-0.41531 1.04074,-0.41078 1.09642,0.71968 l 0.0464,0.94176 0.74235,-0.46588 c 0.92224,-0.57869 2.27163,-1.22394 2.84811,-1.36189 0.23951,-0.0573 0.79235,-0.1042 1.22854,-0.1042 1.56511,0 2.5474,0.66467 3.13446,2.12086 0.20745,0.51461 0.21198,0.60568 0.25819,5.18422 0.0455,4.50493 0.0533,4.66653 0.23262,4.84353 0.20759,0.2047 0.49344,0.267 1.27592,0.2782 l 0.53356,0.01 v 0.4872 0.4871 h -3.24779 -3.2478 v -0.4871 -0.4872 h 0.58932 c 0.79951,0 1.13604,-0.1294 1.25984,-0.4845 0.1306,-0.3747 0.1351,-7.46755 0.006,-8.15589 -0.2135,-1.13093 -0.91636,-1.73781 -2.10918,-1.82102 -0.81028,-0.0564 -1.58023,0.13942 -2.69136,0.68519 l -0.85835,0.42151 v 4.40509 c 0,2.69592 0.0352,4.47092 0.0909,4.57472 0.12862,0.2404 0.58387,0.3749 1.26853,0.3749 h 0.58932 v 0.4872 0.4871 h -3.20141 -3.20139 v -0.4871 z m 28.85899,0.013 v -0.474 l 0.80842,-0.051 c 1.24185,-0.078 1.14064,0.3482 1.13822,-4.78818 -0.002,-3.99809 -0.015,-4.35636 -0.17238,-4.7028 -0.18823,-0.41439 -0.65589,-0.85337 -1.05882,-0.99381 -0.22899,-0.0795 -0.25788,-0.13175 -0.23323,-0.41883 l 0.0281,-0.32767 1.39191,-0.4338 c 0.76556,-0.23863 1.55361,-0.50389 1.75123,-0.5895 0.45109,-0.19536 0.76425,-0.1986 0.83708,-0.009 0.031,0.0804 0.0563,2.72959 0.0563,5.88633 0,3.30763 0.0365,5.83566 0.0862,5.96626 0.11126,0.2926 0.52791,0.435 1.27319,0.435 h 0.58932 v 0.4872 0.4871 h -3.2478 -3.2478 v -0.4741 z m 7.51633,0 v -0.4782 l 0.87911,-0.032 c 0.76703,-0.028 0.90606,-0.059 1.09034,-0.2436 l 0.21122,-0.2114 v -4.24272 c 0,-3.84711 -0.015,-4.2701 -0.16054,-4.5361 -0.20706,-0.37842 -0.56089,-0.6533 -1.0166,-0.78985 -0.34028,-0.10198 -0.3615,-0.12907 -0.33541,-0.42854 0.0268,-0.30825 0.0593,-0.33349 0.90938,-0.70738 0.48485,-0.21321 1.2748,-0.58618 1.75543,-0.82878 0.53056,-0.26785 0.96805,-0.4302 1.11354,-0.41328 l 0.23964,0.0277 0.0464,1.13463 0.0464,1.13453 0.43805,-0.54799 c 0.50238,-0.62842 1.44286,-1.33553 2.11709,-1.59173 1.02928,-0.39109 2.14176,-0.12333 2.57549,0.61992 0.27355,0.46867 0.25446,1.38213 -0.037,1.77258 -0.35714,0.47828 -0.6585,0.63323 -1.22626,0.63046 -0.43707,0 -0.60939,-0.0555 -1.01197,-0.31417 -0.5578,-0.35827 -1.01077,-0.40302 -1.51321,-0.1495 -0.44197,0.2231 -0.90199,0.67281 -1.14152,1.11586 -0.19444,0.35965 -0.20157,0.48475 -0.23019,4.03655 -0.0197,2.43921 0.004,3.77891 0.0707,4.00471 0.13574,0.4593 0.41517,0.5422 1.82855,0.5422 h 1.14608 v 0.4872 0.4872 h -3.89736 -3.89736 z m 25.98237,0 v -0.4738 l 0.74905,-0.052 c 1.2104,-0.083 1.10684,0.3551 1.10684,-4.6817 0,-2.99624 -0.0316,-4.36838 -0.10393,-4.50938 -0.20707,-0.40376 -0.68031,-0.80483 -1.12347,-0.95202 -0.44838,-0.14895 -0.45241,-0.15385 -0.42459,-0.51591 l 0.0281,-0.36548 1.06713,-0.35725 c 0.58693,-0.19647 1.45758,-0.50814 1.93479,-0.6925 1.27573,-0.49298 1.22021,-0.5221 1.22021,0.63906 0,0.53587 0.0164,0.9743 0.0364,0.9743 0.0201,0 0.40627,-0.23336 0.85835,-0.51849 1.85436,-1.16986 2.73442,-1.46978 4.14371,-1.41237 0.97849,0.0398 1.363,0.16513 2.03717,0.66356 0.35875,0.26526 0.79314,0.9683 1.0268,1.66181 0.1849,0.54883 0.19802,0.82296 0.2454,5.12671 0.0275,2.50086 0.0829,4.59756 0.12301,4.65956 0.10821,0.167 0.69101,0.3039 1.29576,0.3044 l 0.53357,6e-4 v 0.4871 0.4873 h -3.2014 -3.2014 v -0.4753 -0.4753 l 0.75763,-0.043 c 1.18587,-0.068 1.09825,0.2883 1.09825,-4.47398 0,-4.54008 -0.0237,-4.73812 -0.63864,-5.35314 -0.59549,-0.59551 -1.75576,-0.79845 -2.8011,-0.48993 -0.6826,0.20156 -1.51715,0.55724 -1.95345,0.83267 l -0.36004,0.22726 v 4.35497 4.35495 l 0.21642,0.2517 c 0.19474,0.2263 0.29236,0.256 0.97434,0.2955 l 0.75792,0.043 v 0.4753 l -1e-5,0.4753 h -3.20139 -3.20141 v -0.4739 z m 15.68222,0 v -0.4756 l 0.80287,-0.042 c 1.24607,-0.066 1.1462,0.3532 1.14377,-4.79347 -0.002,-3.99819 -0.015,-4.35645 -0.17239,-4.70289 -0.18737,-0.41254 -0.65551,-0.85319 -1.05384,-0.99206 -0.21799,-0.0758 -0.25593,-0.14025 -0.25301,-0.42835 l 0.004,-0.33885 1.59727,-0.53939 c 1.81234,-0.61206 2.20719,-0.69685 2.36427,-0.50759 0.0589,0.0712 0.11922,0.5112 0.13403,0.97829 l 0.0269,0.84921 0.7224,-0.49686 c 1.62946,-1.12048 2.7094,-1.48393 4.23576,-1.42531 0.83531,0.0324 1.0512,0.074 1.45654,0.28393 0.5998,0.31038 1.00012,0.70868 1.29294,1.28663 0.12617,0.24889 0.24623,0.45266 0.26682,0.45266 0.0206,0 0.36438,-0.22457 0.764,-0.49889 0.9197,-0.63157 1.84857,-1.0982 2.70139,-1.35726 0.94789,-0.28791 2.25587,-0.24215 2.99767,0.10475 0.82346,0.38517 1.40969,1.09681 1.78617,2.1681 0.061,0.17364 0.11757,2.02443 0.1495,4.89326 0.0607,5.44209 -0.0468,4.99099 1.20572,5.06349 l 0.74794,0.043 v 0.4753 0.4752 h -3.2014 -3.20139 v -0.4774 -0.4773 l 0.74037,-0.033 c 0.61941,-0.028 0.7748,-0.068 0.95114,-0.2444 0.21027,-0.2101 0.21083,-0.2184 0.23944,-3.57193 0.0307,-3.60256 -0.0493,-4.82946 -0.36076,-5.5337 -0.6814,-1.54042 -2.31626,-1.66782 -4.60921,-0.3591 l -0.67275,0.38397 v 4.39723 c 0,2.78823 0.0343,4.46153 0.0939,4.57273 0.1194,0.2231 0.63861,0.368 1.32122,0.3686 l 0.53357,6e-4 v 0.4871 0.4873 h -3.2478 -3.2478 v -0.4756 -0.4755 l 0.79219,-0.042 c 0.58344,-0.031 0.83406,-0.083 0.95114,-0.2007 0.14523,-0.1452 0.15896,-0.5092 0.15896,-4.21534 0,-3.68264 -0.0158,-4.10757 -0.17148,-4.61229 -0.36215,-1.17401 -1.4014,-1.7833 -2.61274,-1.53182 -0.65364,0.13564 -1.51395,0.48577 -2.24809,0.91477 l -0.57819,0.33783 -0.002,4.33205 c -9.3e-4,2.4463 0.0357,4.4308 0.0844,4.5588 0.11126,0.2927 0.52791,0.435 1.2732,0.435 h 0.58932 v 0.4871 0.4873 h -3.2478 -3.24779 v -0.4756 z m 36.18973,3e-4 v -0.4752 l 0.75763,-0.044 c 1.18903,-0.068 1.09825,0.318 1.09825,-4.67931 0,-3.36745 -0.0257,-4.2763 -0.12766,-4.52038 -0.16212,-0.38804 -0.70275,-0.83627 -1.18175,-0.97976 -0.36031,-0.10799 -0.37023,-0.12186 -0.34276,-0.48253 l 0.0283,-0.3714 1.29913,-0.44361 c 0.71451,-0.24399 1.57381,-0.55474 1.90956,-0.69046 1.0113,-0.40903 1.00264,-0.41522 1.03351,0.73087 l 0.0264,0.97772 0.83515,-0.53042 c 1.03707,-0.65866 2.15772,-1.18538 2.8396,-1.3347 0.30251,-0.0666 0.88428,-0.0966 1.39191,-0.073 0.70603,0.0333 0.96056,0.0869 1.33615,0.28199 0.80682,0.41911 1.39799,1.17882 1.68429,2.16468 0.13945,0.48013 0.1647,1.135 0.19534,5.06643 0.0411,5.28218 -0.0747,4.80208 1.17769,4.88018 l 0.79364,0.05 v 0.4741 0.4741 h -3.24781 -3.24779 v -0.4872 -0.4871 h 0.58932 c 0.74528,0 1.16193,-0.1424 1.27319,-0.435 0.12287,-0.3233 0.111,-7.79158 -0.0133,-8.37119 -0.27262,-1.27119 -1.62648,-1.95 -3.16075,-1.58471 -0.62377,0.14849 -1.8284,0.6508 -2.20679,0.92031 l -0.28623,0.20378 v 4.30255 c 0,2.42326 0.0376,4.40156 0.0862,4.52926 0.11126,0.2926 0.52791,0.435 1.27319,0.435 h 0.58932 v 0.4871 0.4872 h -3.2014 -3.2014 z M 130.5409,987.49565 c -0.85353,-0.54679 -0.95956,-1.68613 -0.22525,-2.42042 0.94145,-0.94148 2.59495,-0.25324 2.60462,1.08405 0.003,0.40949 -0.3666,1.07601 -0.73084,1.31806 -0.42046,0.27941 -1.227,0.28837 -1.64853,0.0185 z"
       id="path835"
       inkscape:connector-curvature="0" />
  </g>
</svg>
