<?xml version="1.0" encoding="UTF-8" standalone="no"?>
<!-- Created with Inkscape (http://www.inkscape.org/) -->

<svg
   xmlns:dc="http://purl.org/dc/elements/1.1/"
   xmlns:cc="http://creativecommons.org/ns#"
   xmlns:rdf="http://www.w3.org/1999/02/22-rdf-syntax-ns#"
   xmlns:svg="http://www.w3.org/2000/svg"
   xmlns="http://www.w3.org/2000/svg"
   xmlns:sodipodi="http://sodipodi.sourceforge.net/DTD/sodipodi-0.dtd"
   xmlns:inkscape="http://www.inkscape.org/namespaces/inkscape"
   width="250"
   height="91"
   viewBox="0 0 250 91"
   id="svg2"
   version="1.1"
   inkscape:version="0.92.2 (5c3e80d, 2017-08-06)"
   sodipodi:docname="ecobee.svg"
   inkscape:export-filename="C:\Users\Amy\Desktop\Assets\arup.png"
   inkscape:export-xdpi="90"
   inkscape:export-ydpi="90">
  <defs
     id="defs4" />
  <sodipodi:namedview
     id="base"
     pagecolor="#ffffff"
     bordercolor="#666666"
     borderopacity="1.0"
     inkscape:pageopacity="0.0"
     inkscape:pageshadow="2"
     inkscape:zoom="2.8000014"
     inkscape:cx="211.29257"
     inkscape:cy="84.848646"
     inkscape:document-units="px"
     inkscape:current-layer="layer1"
     showgrid="false"
     inkscape:window-width="1920"
     inkscape:window-height="1001"
     inkscape:window-x="-9"
     inkscape:window-y="-9"
     inkscape:window-maximized="1"
     units="px" />
  <metadata
     id="metadata7">
    <rdf:RDF>
      <cc:Work
         rdf:about="">
        <dc:format>image/svg+xml</dc:format>
        <dc:type
           rdf:resource="http://purl.org/dc/dcmitype/StillImage" />
        <dc:title></dc:title>
      </cc:Work>
    </rdf:RDF>
  </metadata>
  <g
     inkscape:label="Layer 1"
     inkscape:groupmode="layer"
     id="layer1"
     transform="translate(0,-961.4)">
    <rect
       style="opacity:0.001;fill:none;fill-opacity:1;stroke:none;stroke-width:2.5;stroke-linecap:round;stroke-linejoin:round;stroke-miterlimit:4;stroke-dasharray:none;stroke-dashoffset:0;stroke-opacity:1"
       id="rect4175"
       width="250"
       height="91"
       x="0"
       y="961.4" />
    <path
       style="fill:#ffffff;stroke-width:0.13173173"
       d="m 30.934057,1028.8874 c -1.340368,-0.01 -2.940909,-0.065 -3.556757,-0.1242 -0.61584,-0.058 -1.505032,-0.1771 -1.97597,-0.2635 -0.470946,-0.087 -1.386608,-0.3289 -2.034813,-0.5389 -0.648204,-0.2099 -1.648924,-0.6316 -2.223824,-0.937 -0.574908,-0.3054 -1.436691,-0.8834 -1.915089,-1.2844 -0.47839,-0.401 -1.137489,-1.0625 -1.464658,-1.47 -0.327169,-0.4075 -0.797398,-1.0766 -1.044961,-1.4871 -0.247563,-0.4104 -0.654913,-1.2902 -0.905228,-1.955 -0.250315,-0.6649 -0.574377,-1.7424 -0.720146,-2.3944 -0.224783,-1.0056 -0.274255,-1.8105 -0.325859,-5.3008 -0.03956,-2.6759 -0.0089,-4.509 0.08906,-5.2414 0.08248,-0.6195 0.295344,-1.7021 0.473124,-2.4056 0.177771,-0.7036 0.594174,-1.8424 0.925335,-2.5307 0.331169,-0.6884 0.938831,-1.6922 1.350376,-2.2308 0.411554,-0.5386 1.184854,-1.3263 1.718468,-1.7503 0.533605,-0.4241 1.571168,-1.0628 2.305687,-1.4194 0.734519,-0.3567 1.780082,-0.76885 2.323476,-0.9159 0.543393,-0.14705 1.580779,-0.35658 2.305306,-0.46559 0.921538,-0.13869 2.380842,-0.19846 4.857166,-0.19899 2.52169,-4.2e-4 3.935398,0.058 4.915046,0.2034 0.756352,0.11229 1.877025,0.34962 2.490378,0.52737 0.613362,0.17776 1.632331,0.58287 2.264384,0.90031 0.632062,0.3174 1.577575,0.9123 2.101144,1.322 0.523578,0.4097 1.222237,1.0766 1.552574,1.4822 0.330346,0.4055 0.838782,1.1382 1.12986,1.6281 0.291087,0.49 0.736254,1.4701 0.989277,2.178 0.253014,0.7079 0.578439,1.9736 0.723173,2.8127 0.172408,0.9994 0.290999,2.4681 0.343922,4.259 l 0.0808,2.7334 h -14.84047 -14.84047 l 7.79e-4,0.5598 c 4.16e-4,0.3079 0.08914,1.1527 0.197126,1.8772 0.107988,0.7245 0.320629,1.7322 0.47254,2.2394 0.151902,0.5072 0.520914,1.3964 0.82001,1.976 0.386526,0.7491 0.830675,1.341 1.535591,2.0467 0.761405,0.762 1.251867,1.1201 2.111499,1.5415 0.61584,0.3019 1.593948,0.6703 2.173573,0.8185 0.579617,0.1482 1.498447,0.327 2.04184,0.3973 0.543394,0.07 2.234409,0.1296 3.757813,0.1318 1.523404,0 3.272139,-0.058 3.886085,-0.1316 0.613946,-0.074 1.590496,-0.2559 2.170113,-0.4025 0.579625,-0.1466 1.557733,-0.5088 2.173582,-0.805 0.877607,-0.4219 1.335615,-0.755 2.118216,-1.5406 0.625486,-0.6278 1.135674,-1.2852 1.365705,-1.7597 l 0.367215,-0.7574 h 1.762913 c 0.969612,0 1.762922,0.02 1.762922,0.045 0,0.025 -0.110307,0.3657 -0.24512,0.7574 -0.134821,0.3918 -0.456016,1.1272 -0.713774,1.6344 -0.257749,0.5072 -0.756034,1.2758 -1.107284,1.708 -0.351241,0.4323 -1.022977,1.0988 -1.492729,1.4812 -0.469761,0.3825 -1.387618,0.959 -2.03969,1.2813 -0.652072,0.3223 -1.550538,0.7028 -1.99659,0.8458 -0.446051,0.1429 -1.275956,0.353 -1.844245,0.4667 -0.56828,0.1137 -1.685307,0.2669 -2.48229,0.3404 -0.796973,0.073 -2.545718,0.1256 -3.886085,0.1158 z m 0.197604,-18.1609 h 13.107301 l -7.79e-4,-0.6257 c -3.98e-4,-0.3442 -0.0862,-1.1888 -0.190532,-1.8772 -0.104369,-0.6882 -0.317416,-1.6663 -0.473434,-2.1735 -0.156026,-0.5072 -0.527614,-1.3933 -0.825745,-1.9693 -0.377889,-0.7298 -0.832277,-1.3372 -1.500191,-2.0051 -0.755936,-0.756 -1.215564,-1.0831 -2.17821,-1.5504 -0.671056,-0.3258 -1.725823,-0.7119 -2.34392,-0.858 -0.618105,-0.1463 -1.685129,-0.325 -2.371177,-0.3972 -0.686038,-0.072 -2.115437,-0.1324 -3.176435,-0.1336 -1.060997,0 -2.526663,0.059 -3.257049,0.1339 -0.730387,0.075 -1.759232,0.2473 -2.286332,0.383 -0.527101,0.1357 -1.307658,0.3782 -1.734584,0.5389 -0.426918,0.1607 -1.226689,0.5985 -1.777259,0.973 -0.555341,0.3778 -1.274497,1.0204 -1.615224,1.4433 -0.337807,0.4193 -0.79377,1.0993 -1.01326,1.5111 -0.21949,0.4118 -0.548818,1.2075 -0.731846,1.7681 -0.183028,0.5607 -0.424095,1.6345 -0.535703,2.3862 -0.111608,0.7516 -0.202923,1.611 -0.202923,1.9097 v 0.5428 z m 38.136333,18.1147 c -1.847537,0.025 -3.848118,-0.01 -4.445745,-0.068 -0.597626,-0.063 -1.563645,-0.211 -2.146704,-0.3299 -0.583068,-0.119 -1.457533,-0.3516 -1.943251,-0.5169 -0.485708,-0.1653 -1.268434,-0.4948 -1.739372,-0.732 -0.470946,-0.2374 -1.123018,-0.6132 -1.449054,-0.8352 -0.326036,-0.2221 -0.940602,-0.7329 -1.365696,-1.1352 -0.425095,-0.4023 -1.025784,-1.0872 -1.334872,-1.5219 -0.309079,-0.4347 -0.768025,-1.2053 -1.01988,-1.7125 -0.251864,-0.5072 -0.583581,-1.3074 -0.737165,-1.7784 -0.153584,-0.4709 -0.36618,-1.2746 -0.472443,-1.7859 -0.106262,-0.5114 -0.263997,-1.7267 -0.350524,-2.7005 -0.09872,-1.1112 -0.128042,-2.8011 -0.07876,-4.5372 0.04319,-1.5215 0.168824,-3.2999 0.279104,-3.952 0.110289,-0.6521 0.323549,-1.6261 0.47392,-2.1647 0.150372,-0.5384 0.470301,-1.4052 0.710961,-1.9261 0.240659,-0.5209 0.693074,-1.3251 1.005366,-1.7873 0.312292,-0.462 0.927273,-1.1992 1.366616,-1.638 0.439352,-0.4388 1.083521,-0.9922 1.431505,-1.2296 0.347976,-0.2375 1.088973,-0.6601 1.64665,-0.939 0.557669,-0.27886 1.529033,-0.65623 2.158573,-0.83847 0.629539,-0.18228 1.763452,-0.42331 2.519805,-0.53561 0.979647,-0.14544 2.393355,-0.20399 4.915045,-0.2034 2.474139,4.1e-4 3.934973,0.0603 4.852299,0.19858 0.721855,0.1088 1.75924,0.32171 2.305306,0.47312 0.546066,0.15142 1.477366,0.50067 2.069541,0.77608 0.592175,0.2755 1.362802,0.696 1.712512,0.9345 0.349701,0.2386 0.890873,0.6447 1.202598,0.9025 0.311726,0.2578 0.898591,0.8837 1.304136,1.3909 0.405544,0.5071 1.02534,1.5149 1.377316,2.2394 0.351966,0.7245 0.785513,1.8943 0.963417,2.5996 0.177912,0.7053 0.363162,1.5815 0.411669,1.9472 l 0.08815,0.6648 -1.691891,-0.037 -1.691883,-0.037 -0.146592,-0.7246 c -0.08062,-0.3985 -0.25335,-1.0506 -0.383836,-1.449 -0.130485,-0.3985 -0.479726,-1.1958 -0.776096,-1.7717 -0.378119,-0.7347 -0.824639,-1.3328 -1.496969,-2.0052 -0.755936,-0.7559 -1.215555,-1.0831 -2.178202,-1.5503 -0.671064,-0.3258 -1.725822,-0.7119 -2.343928,-0.8581 -0.618105,-0.1462 -1.68513,-0.3249 -2.371177,-0.3972 -0.686039,-0.072 -2.136536,-0.1313 -3.223323,-0.1313 -1.086786,0 -2.539124,0.059 -3.227428,0.1305 -0.688296,0.072 -1.75532,0.255 -2.371169,0.4071 -0.615848,0.1521 -1.53467,0.469 -2.04184,0.7042 -0.50717,0.2351 -1.284408,0.6968 -1.727203,1.0259 -0.442795,0.3291 -1.071883,0.9454 -1.397981,1.3696 -0.326098,0.4241 -0.772096,1.1268 -0.991109,1.5615 -0.219012,0.4347 -0.526755,1.2054 -0.683861,1.7125 -0.157106,0.5072 -0.371039,1.4853 -0.475398,2.1736 -0.122414,0.8073 -0.189852,2.3035 -0.190011,4.2154 -1.33e-4,2.0296 0.06319,3.355 0.200896,4.2044 0.110635,0.6821 0.387243,1.8014 0.614689,2.4873 0.24097,0.7267 0.668958,1.6385 1.025642,2.1848 0.336665,0.5157 0.985719,1.2758 1.442355,1.689 0.475894,0.4306 1.287347,0.9761 1.901302,1.2781 0.589086,0.2897 1.545299,0.6481 2.124924,0.7964 0.579617,0.1482 1.498447,0.327 2.04184,0.3973 0.543394,0.07 2.232851,0.1278 3.754352,0.1278 1.521502,0 3.210968,-0.058 3.754361,-0.1278 0.543394,-0.07 1.462215,-0.2491 2.041841,-0.3973 0.579616,-0.1483 1.557724,-0.5164 2.173573,-0.818 0.877704,-0.4298 1.348651,-0.7773 2.178874,-1.6075 0.830304,-0.8302 1.177624,-1.301 1.607444,-2.1788 0.301557,-0.6159 0.669666,-1.5631 0.81802,-2.1051 0.148353,-0.5419 0.269732,-1.1199 0.269732,-1.2844 0,-0.2956 0.01947,-0.299 1.724875,-0.299 h 1.724876 l -0.09361,0.6916 c -0.05151,0.3804 -0.199507,1.1083 -0.328921,1.6177 -0.129415,0.5094 -0.425529,1.4195 -0.65802,2.0223 -0.232499,0.6029 -0.766405,1.6101 -1.186464,2.2381 -0.420059,0.628 -1.080309,1.4402 -1.467233,1.805 -0.386916,0.3649 -1.081583,0.9194 -1.543688,1.2324 -0.462115,0.3129 -1.266372,0.7659 -1.787242,1.0065 -0.52087,0.2407 -1.387644,0.5606 -1.926161,0.711 -0.538526,0.1504 -1.512643,0.366 -2.164715,0.4791 -0.796664,0.1382 -2.287544,0.2207 -4.54475,0.2513 z m 37.148356,0 c -1.84754,0.023 -3.59627,0.018 -3.88609,-0.011 -0.28981,-0.029 -1.00116,-0.1155 -1.58078,-0.1929 -0.57961,-0.077 -1.508949,-0.2555 -2.065193,-0.3957 -0.556235,-0.1403 -1.478251,-0.4519 -2.04892,-0.6925 -0.570678,-0.2407 -1.460781,-0.7114 -1.978031,-1.046 -0.517251,-0.3346 -1.29263,-0.9606 -1.72307,-1.391 -0.43044,-0.4304 -1.018509,-1.1304 -1.306817,-1.5554 -0.288299,-0.425 -0.701854,-1.1284 -0.91899,-1.5631 -0.217136,-0.4348 -0.525941,-1.189 -0.686233,-1.676 -0.160283,-0.4871 -0.411271,-1.4355 -0.557748,-2.1077 -0.216909,-0.9954 -0.279258,-1.8893 -0.336102,-4.8186 -0.0469,-2.4142 -0.01664,-4.0814 0.09202,-5.0716 0.08901,-0.8115 0.299215,-2.0189 0.467118,-2.6833 0.167903,-0.6642 0.512905,-1.687 0.76668,-2.2726 0.253776,-0.5856 0.731395,-1.4708 1.061378,-1.9671 0.329975,-0.4964 1.038837,-1.3194 1.57523,-1.8289 0.536411,-0.5096 1.39568,-1.1762 1.909497,-1.4815 0.513816,-0.3052 1.342137,-0.72093 1.840723,-0.92384 0.498576,-0.2029 1.404105,-0.49135 2.012289,-0.64103 0.608178,-0.14968 1.629359,-0.33971 2.269289,-0.42233 0.75811,-0.0978 2.57115,-0.12778 5.20341,-0.0859 3.42794,0.0545 4.21949,0.10481 5.22548,0.33229 0.65207,0.14742 1.68225,0.44942 2.28929,0.67105 0.60703,0.22168 1.43694,0.59066 1.84424,0.81996 0.4073,0.2294 1.06658,0.6677 1.46507,0.9741 0.39848,0.3064 0.99374,0.8463 1.32279,1.1998 0.32904,0.3534 0.78065,0.9094 1.00355,1.2354 0.22292,0.3261 0.61358,1.0077 0.86815,1.5149 0.25457,0.5072 0.61924,1.418 0.81036,2.024 0.19114,0.606 0.44947,1.6434 0.57407,2.3053 0.18351,0.9747 0.22656,1.9796 0.22656,5.2872 0,3.3559 -0.0417,4.3066 -0.23414,5.3351 -0.12877,0.6883 -0.35579,1.6664 -0.50447,2.1735 -0.14868,0.5072 -0.53009,1.4557 -0.84758,2.1078 -0.31747,0.652 -0.90441,1.5956 -1.3043,2.0968 -0.39989,0.5012 -1.06845,1.2019 -1.48569,1.5573 -0.41725,0.3553 -1.10621,0.8512 -1.53101,1.1022 -0.42482,0.2509 -1.13617,0.6102 -1.58079,0.7982 -0.44461,0.1881 -1.19371,0.4538 -1.66465,0.5907 -0.47094,0.1368 -1.38977,0.3414 -2.04184,0.4548 -0.80459,0.1397 -2.2651,0.2193 -4.54475,0.2474 z m -0.79039,-3.2385 c 1.99641,0.01 3.3833,-0.051 4.24856,-0.1815 0.70651,-0.1064 1.74391,-0.3477 2.30531,-0.5361 0.56139,-0.1883 1.37638,-0.5284 1.8111,-0.7558 0.47014,-0.2459 1.22258,-0.8423 1.85705,-1.472 0.84252,-0.8362 1.18203,-1.2939 1.61571,-2.1784 0.30197,-0.6159 0.69636,-1.7054 0.87643,-2.4212 0.18827,-0.7484 0.38882,-2.0919 0.47195,-3.1616 0.0833,-1.0718 0.10721,-2.7253 0.0564,-3.9019 -0.0485,-1.123 -0.17541,-2.5457 -0.28204,-3.1616 -0.10664,-0.6158 -0.36233,-1.6093 -0.5682,-2.208 -0.20588,-0.5985 -0.57382,-1.4264 -0.81763,-1.8397 -0.24383,-0.4134 -0.85827,-1.17 -1.36544,-1.6813 -0.64785,-0.6532 -1.24122,-1.0951 -1.99496,-1.4858 -0.59006,-0.3059 -1.62745,-0.7017 -2.30531,-0.8795 -0.67785,-0.1779 -1.80811,-0.3856 -2.51166,-0.4617 -0.70356,-0.076 -2.17305,-0.1383 -3.26555,-0.1383 -1.0925,0 -2.562,0.062 -3.26556,0.1368 -0.70355,0.075 -1.75342,0.2523 -2.33304,0.3934 -0.579628,0.1411 -1.617013,0.5326 -2.305308,0.87 -1.013633,0.4969 -1.439479,0.8039 -2.240843,1.6156 -0.642178,0.6504 -1.156543,1.3256 -1.465675,1.9242 -0.261944,0.5072 -0.599494,1.3075 -0.750086,1.7784 -0.150593,0.4709 -0.368322,1.3601 -0.483833,1.9759 -0.11552,0.6159 -0.244394,2.1571 -0.286388,3.4251 -0.04469,1.3499 -0.01398,2.9877 0.07425,3.9519 0.08284,0.9057 0.274219,2.1506 0.425343,2.7664 0.151132,0.6158 0.506621,1.6184 0.789991,2.2279 0.283361,0.6096 0.777495,1.4268 1.09807,1.8162 0.320567,0.3894 0.86673,0.9426 1.213688,1.2293 0.346957,0.2867 1.01765,0.7236 1.490429,0.971 0.472787,0.2473 1.298196,0.5822 1.834253,0.7441 0.536059,0.1618 1.454889,0.3689 2.041839,0.4601 0.59813,0.093 2.36998,0.1712 4.03116,0.1781 z m 38.86087,3.2399 c -1.84754,0.022 -3.59628,0.017 -3.88609,-0.012 -0.28981,-0.029 -1.00116,-0.1147 -1.58078,-0.1911 -0.57962,-0.076 -1.60417,-0.2831 -2.27678,-0.4592 -0.67262,-0.1762 -1.66419,-0.5242 -2.20351,-0.7734 -0.53932,-0.2492 -1.42874,-0.7629 -1.97651,-1.1416 -0.54776,-0.3786 -1.29187,-1.0123 -1.65359,-1.408 -0.36171,-0.3958 -0.83354,-0.9752 -1.0485,-1.2877 -0.21496,-0.3124 -0.62662,-1.0405 -0.91482,-1.6181 -0.28818,-0.5775 -0.67071,-1.5564 -0.85006,-2.1753 -0.17935,-0.6189 -0.41798,-1.7441 -0.5303,-2.5005 -0.17549,-1.1818 -0.20419,-3.5535 -0.20419,-16.8697 v -15.49448 h 1.64563 1.64563 l 0.034,7.97751 0.034,7.97747 0.51962,-0.6814 c 0.28579,-0.3748 0.90823,-0.9945 1.38318,-1.377 0.47496,-0.3826 1.24888,-0.906 1.71982,-1.1632 0.47093,-0.25715 1.38976,-0.64494 2.04184,-0.86168 0.65207,-0.21673 1.81562,-0.48678 2.58567,-0.60015 0.99574,-0.14656 2.40339,-0.20584 4.87407,-0.2053 2.41768,4.1e-4 3.87454,0.0611 4.79131,0.199 0.72452,0.109 1.75503,0.31813 2.29003,0.46472 0.53498,0.14659 1.38077,0.44015 1.87949,0.65236 0.49874,0.21225 1.30586,0.64475 1.79366,0.96115 0.48777,0.3164 1.21878,0.8795 1.62446,1.2514 0.40566,0.3718 1.0474,1.1243 1.42607,1.672 0.37866,0.5477 0.89236,1.4372 1.14154,1.9765 0.24919,0.5393 0.59673,1.5309 0.77234,2.2036 0.17561,0.6726 0.39642,1.6971 0.49069,2.2767 0.11362,0.6987 0.16961,2.3415 0.16613,4.8741 -0.004,3.091 -0.0506,4.0717 -0.24303,5.1376 -0.13076,0.7244 -0.38673,1.7915 -0.56881,2.3712 -0.18207,0.5795 -0.53932,1.4687 -0.79389,1.9759 -0.25457,0.5071 -0.64457,1.1888 -0.86667,1.5149 -0.2221,0.326 -0.73298,0.9406 -1.13529,1.3657 -0.40232,0.4251 -1.08715,1.0258 -1.52187,1.3349 -0.43471,0.3091 -1.20534,0.7693 -1.71251,1.0228 -0.50717,0.2535 -1.39636,0.6097 -1.97598,0.7916 -0.57961,0.1819 -1.617,0.4315 -2.3053,0.5548 -0.90594,0.1621 -2.17891,0.2351 -4.61061,0.2641 z m -0.85626,-3.2432 c 1.59396,0.01 3.34269,-0.049 3.88609,-0.1189 0.54339,-0.07 1.46222,-0.2491 2.04184,-0.3973 0.57962,-0.1483 1.53909,-0.5082 2.13213,-0.7999 0.64741,-0.3185 1.41604,-0.8399 1.92352,-1.3049 0.46488,-0.426 1.08832,-1.1478 1.38542,-1.6041 0.29711,-0.4562 0.69455,-1.2398 0.88321,-1.7414 0.18865,-0.5016 0.46535,-1.3907 0.61487,-1.976 0.22757,-0.8907 0.28241,-1.608 0.33663,-4.4025 0.0429,-2.214 0.0108,-3.7668 -0.0952,-4.6099 -0.088,-0.6991 -0.3025,-1.7629 -0.47665,-2.3639 -0.17416,-0.6009 -0.51853,-1.4935 -0.76524,-1.9834 -0.24672,-0.4899 -0.72524,-1.2304 -1.06335,-1.6455 -0.33814,-0.4151 -1.02855,-1.0453 -1.53426,-1.4004 -0.50571,-0.3552 -1.34725,-0.8238 -1.87005,-1.0415 -0.52281,-0.2176 -1.57153,-0.5297 -2.33049,-0.6935 -1.23311,-0.2661 -1.75132,-0.2983 -4.87082,-0.3024 -2.83293,0 -3.70969,0.04 -4.65172,0.2292 -0.63844,0.1285 -1.58691,0.3856 -2.1077,0.5712 -0.52079,0.1857 -1.26449,0.5171 -1.65268,0.7366 -0.38818,0.2195 -1.08222,0.7512 -1.5423,1.1815 -0.46008,0.4305 -1.06485,1.1486 -1.34393,1.5959 -0.27907,0.4475 -0.63235,1.1098 -0.78506,1.4721 -0.1527,0.3623 -0.4006,1.1408 -0.55088,1.7302 -0.15028,0.5893 -0.3405,1.686 -0.42271,2.4371 -0.0923,0.8428 -0.12124,2.4496 -0.0757,4.1977 0.0547,2.0989 0.14075,3.1392 0.33242,4.0179 0.14225,0.652 0.4054,1.5852 0.58477,2.0736 0.17937,0.4884 0.52632,1.2273 0.77101,1.6421 0.24469,0.4146 0.83698,1.1452 1.31621,1.6237 0.57699,0.576 1.22225,1.0518 1.91012,1.4085 0.57132,0.2963 1.47737,0.6711 2.01342,0.8331 0.53606,0.162 1.45489,0.3691 2.04184,0.4603 0.59891,0.093 2.33889,0.1697 3.9653,0.1748 z m 38.3998,3.2393 c -1.84754,0.024 -3.59627,0.02 -3.88608,-0.01 -0.28982,-0.029 -1.00117,-0.1148 -1.58078,-0.1911 -0.57963,-0.076 -1.61701,-0.286 -2.30531,-0.4656 -0.68829,-0.1797 -1.78497,-0.5862 -2.43704,-0.9033 -0.65207,-0.3172 -1.57587,-0.8729 -2.05287,-1.2349 -0.47701,-0.3621 -1.12278,-0.9453 -1.43505,-1.2962 -0.31229,-0.3508 -0.82821,-1.0369 -1.14652,-1.5247 -0.31831,-0.4878 -0.75237,-1.2949 -0.96461,-1.7937 -0.21221,-0.4987 -0.50579,-1.3444 -0.65237,-1.8794 -0.14657,-0.5351 -0.35571,-1.5656 -0.46473,-2.29 -0.13904,-0.9242 -0.19821,-2.3791 -0.19821,-4.8741 0,-2.4929 0.0592,-3.9494 0.19781,-4.8693 0.10879,-0.7218 0.32171,-1.7592 0.47311,-2.3053 0.15142,-0.546 0.49916,-1.4741 0.77275,-2.0623 0.27361,-0.5883 0.73532,-1.4198 1.02604,-1.8479 0.2907,-0.4281 0.87454,-1.1243 1.29741,-1.5472 0.42287,-0.4229 1.11911,-1.0067 1.5472,-1.2974 0.42809,-0.2907 1.2607,-0.7546 1.85024,-1.03087 0.58955,-0.27627 1.51541,-0.62383 2.05751,-0.77236 0.54207,-0.14853 1.57838,-0.35921 2.3029,-0.46822 0.92154,-0.13869 2.38085,-0.19846 4.85718,-0.199 2.52168,-4.1e-4 3.93539,0.058 4.91503,0.2034 0.75636,0.1123 1.89027,0.35333 2.51981,0.53558 0.62954,0.18228 1.6009,0.5596 2.15857,0.83857 0.55768,0.2789 1.29867,0.7014 1.64665,0.9389 0.34798,0.2375 0.99216,0.7908 1.4315,1.2296 0.43935,0.4388 1.05433,1.1759 1.36662,1.6381 0.31231,0.4621 0.76471,1.2664 1.00537,1.7872 0.24066,0.5209 0.56058,1.3877 0.71095,1.9262 0.15037,0.5385 0.36446,1.5127 0.47575,2.1647 0.11129,0.6521 0.23729,2.4453 0.28003,3.9849 l 0.0777,2.7993 h -14.83917 -14.83919 l 8.8e-4,0.3623 c 0,0.1992 0.062,0.8943 0.13654,1.5446 0.0745,0.6504 0.25518,1.6582 0.40151,2.2396 0.14633,0.5812 0.52492,1.5904 0.84129,2.2425 0.32452,0.6689 0.86457,1.5081 1.23907,1.9256 0.3651,0.4071 1.0662,1.0148 1.55801,1.3507 0.50615,0.3456 1.44429,0.807 2.16189,1.0633 0.69722,0.249 1.89042,0.5453 2.65153,0.6583 0.91272,0.1355 2.31988,0.2054 4.1333,0.2051 1.51221,-3e-4 3.28297,-0.066 3.93504,-0.1457 0.65207,-0.08 1.63018,-0.2572 2.17358,-0.394 0.54339,-0.1368 1.49186,-0.4954 2.10771,-0.7969 0.867,-0.4246 1.34405,-0.774 2.11363,-1.5487 0.57025,-0.5739 1.15986,-1.3232 1.38318,-1.7575 l 0.38927,-0.7572 1.74797,-2e-4 1.74794,-4e-4 -0.0844,0.3624 c -0.0465,0.1992 -0.2472,0.7574 -0.44618,1.2405 -0.19899,0.483 -0.63718,1.2924 -0.97375,1.7987 -0.33656,0.5064 -0.98032,1.2616 -1.43057,1.6785 -0.45025,0.4168 -1.14261,0.9651 -1.5386,1.2184 -0.39599,0.2533 -1.14518,0.6571 -1.66489,0.8972 -0.51971,0.2401 -1.50446,0.5819 -2.18838,0.7596 -0.68391,0.1777 -1.68477,0.3908 -2.22411,0.4735 -0.53937,0.083 -2.49229,0.1703 -4.33982,0.1945 z m -0.72167,-18.1079 h 13.14418 l -0.0804,-1.2186 c -0.0442,-0.6701 -0.1689,-1.6389 -0.27717,-2.1529 -0.10826,-0.5139 -0.37382,-1.4193 -0.59011,-2.0119 -0.2163,-0.5927 -0.6671,-1.4895 -1.00179,-1.9929 -0.33468,-0.5035 -0.94594,-1.218 -1.35834,-1.588 -0.4232,-0.3795 -1.26625,-0.9243 -1.9354,-1.2506 -0.65207,-0.3179 -1.68946,-0.6984 -2.3053,-0.8455 -0.61585,-0.1471 -1.80144,-0.335 -2.63464,-0.4176 -0.92549,-0.092 -2.51437,-0.1196 -4.08369,-0.072 -1.78292,0.055 -2.93146,0.1568 -3.75435,0.3337 -0.65207,0.1403 -1.58522,0.4018 -2.07367,0.5811 -0.48844,0.1794 -1.22344,0.5263 -1.63332,0.771 -0.40988,0.2447 -1.10691,0.8066 -1.54895,1.2487 -0.44205,0.442 -1.00665,1.1436 -1.25468,1.5589 -0.24802,0.4154 -0.61536,1.2198 -0.81629,1.7877 -0.20093,0.5678 -0.45269,1.4964 -0.55947,2.0636 -0.10679,0.5672 -0.23616,1.5203 -0.28751,2.1181 l -0.0934,1.0868 z m 38.26522,18.1165 c -1.84754,0.024 -3.87,-0.01 -4.49433,-0.066 -0.62435,-0.06 -1.62001,-0.2086 -2.21259,-0.3295 -0.59256,-0.1209 -1.4748,-0.3551 -1.96051,-0.5204 -0.48572,-0.1653 -1.26844,-0.4939 -1.73938,-0.7301 -0.47094,-0.2362 -1.21474,-0.6838 -1.65288,-0.9944 -0.43814,-0.3107 -1.16384,-0.9574 -1.61264,-1.4372 -0.44883,-0.4798 -1.08437,-1.3301 -1.41233,-1.8895 -0.32794,-0.5595 -0.76728,-1.4619 -0.97629,-2.0053 -0.20899,-0.5434 -0.50275,-1.5579 -0.65279,-2.2543 -0.15005,-0.6964 -0.34117,-2.1191 -0.42474,-3.1616 -0.0897,-1.1194 -0.11983,-2.9198 -0.0735,-4.3981 0.0483,-1.5437 0.17864,-3.0876 0.34004,-4.0284 0.14392,-0.8391 0.46869,-2.1049 0.7217,-2.8127 0.25302,-0.708 0.69818,-1.6879 0.98927,-2.178 0.29109,-0.4899 0.80127,-1.2248 1.13375,-1.6329 0.33248,-0.4082 0.97187,-1.0402 1.42088,-1.4045 0.44901,-0.3642 1.38388,-0.9544 2.07751,-1.3114 0.69362,-0.35706 1.77186,-0.79721 2.39607,-0.9781 0.62422,-0.18088 1.75378,-0.42076 2.51015,-0.5331 0.97963,-0.14544 2.39334,-0.20394 4.91503,-0.2034 2.47633,4.1e-4 3.93562,0.0603 4.85717,0.19899 0.72452,0.10902 1.7619,0.31855 2.3053,0.4656 0.54339,0.14704 1.58896,0.5592 2.32348,0.91591 0.73452,0.3566 1.77208,0.9953 2.3057,1.4194 0.53359,0.424 1.3069,1.2117 1.71845,1.7503 0.41154,0.5386 1.01921,1.5424 1.35038,2.2308 0.33116,0.6883 0.74543,1.8187 0.9206,2.512 0.17518,0.6933 0.38243,1.7202 0.46056,2.2819 0.0781,0.5617 0.14205,2.2026 0.14205,3.6465 v 2.6251 h -14.75395 -14.75396 l 8.9e-4,0.6257 c 0,0.3442 0.0883,1.2069 0.19543,1.9171 0.10706,0.7103 0.37689,1.8354 0.59962,2.5002 0.22272,0.6648 0.58954,1.536 0.81513,1.936 0.2256,0.4 0.85942,1.1734 1.40852,1.7187 0.75906,0.7539 1.2667,1.1234 2.11805,1.5416 0.61585,0.3026 1.59396,0.6716 2.17358,0.8198 0.57962,0.1482 1.49844,0.327 2.04184,0.3973 0.54339,0.07 2.23441,0.1296 3.75781,0.1318 1.52341,0 3.27215,-0.058 3.88608,-0.1346 0.61395,-0.076 1.5905,-0.2578 2.17013,-0.4033 0.57961,-0.1456 1.55772,-0.506 2.17357,-0.8008 0.88917,-0.4258 1.32314,-0.7428 2.1077,-1.5397 0.60736,-0.6169 1.12912,-1.2954 1.35432,-1.761 l 0.36631,-0.7575 h 1.77433 c 0.97588,0 1.77432,0.02 1.77432,0.045 0,0.025 -0.11037,0.3661 -0.24524,0.7581 -0.13489,0.3921 -0.42485,1.0687 -0.64438,1.5035 -0.21952,0.4349 -0.68139,1.1662 -1.02638,1.6251 -0.345,0.459 -0.9735,1.1226 -1.39667,1.4748 -0.42318,0.3521 -1.17872,0.8834 -1.67899,1.1807 -0.50027,0.2972 -1.48878,0.7474 -2.19668,1.0003 -0.7079,0.253 -1.97359,0.5818 -2.81265,0.7306 -1.20806,0.2142 -2.2246,0.2795 -4.8847,0.3135 z m -0.72453,-18.1165 h 13.10731 v -0.543 c 0,-0.2986 -0.0913,-1.1579 -0.20293,-1.9097 -0.11163,-0.7516 -0.35269,-1.8254 -0.53571,-2.3861 -0.18302,-0.5607 -0.51235,-1.3563 -0.73184,-1.7681 -0.2195,-0.4119 -0.67547,-1.0918 -1.01327,-1.5111 -0.34072,-0.423 -1.05989,-1.0656 -1.61521,-1.4433 -0.55058,-0.3745 -1.35034,-0.8123 -1.77728,-0.973 -0.42692,-0.1607 -1.20747,-0.4032 -1.73457,-0.5389 -0.5271,-0.1357 -1.55595,-0.308 -2.28634,-0.383 -0.73037,-0.075 -2.19605,-0.1352 -3.25705,-0.1339 -1.06099,0 -2.49039,0.061 -3.17644,0.1336 -0.68603,0.072 -1.75305,0.2509 -2.37117,0.3972 -0.61809,0.1461 -1.67097,0.5313 -2.33969,0.8559 -0.9497,0.461 -1.42638,0.799 -2.1774,1.5437 -0.68388,0.6781 -1.11831,1.2577 -1.50442,2.0072 -0.29859,0.5796 -0.67053,1.4688 -0.82655,1.976 -0.15603,0.5071 -0.36908,1.4852 -0.47344,2.1736 -0.10437,0.6882 -0.1901,1.533 -0.19053,1.8772 l -8.8e-4,0.6257 h 13.1073 z"
       id="path906"
       inkscape:connector-curvature="0" />
  </g>
</svg>
