<?xml version="1.0" encoding="UTF-8"?>
<svg version="1.1" viewBox="0 0 250 91" xmlns="http://www.w3.org/2000/svg" xmlns:cc="http://creativecommons.org/ns#" xmlns:dc="http://purl.org/dc/elements/1.1/" xmlns:rdf="http://www.w3.org/1999/02/22-rdf-syntax-ns#">
<metadata>
<rdf:RDF>
<cc:Work rdf:about="">
<dc:format>image/svg+xml</dc:format>
<dc:type rdf:resource="http://purl.org/dc/dcmitype/StillImage"/>
<dc:title/>
</cc:Work>
</rdf:RDF>
</metadata>
<g transform="translate(0,-961.4)">
<path d="m30.934 1028.9c-1.3404-0.01-2.9409-0.065-3.5568-0.1242-0.61584-0.058-1.505-0.1771-1.976-0.2635-0.47095-0.087-1.3866-0.3289-2.0348-0.5389-0.6482-0.2099-1.6489-0.6316-2.2238-0.937-0.57491-0.3054-1.4367-0.8834-1.9151-1.2844-0.47839-0.401-1.1375-1.0625-1.4647-1.47s-0.7974-1.0766-1.045-1.4871c-0.24756-0.4104-0.65491-1.2902-0.90523-1.955-0.25032-0.6649-0.57438-1.7424-0.72015-2.3944-0.22478-1.0056-0.27426-1.8105-0.32586-5.3008-0.03956-2.6759-0.0089-4.509 0.08906-5.2414 0.08248-0.6195 0.29534-1.7021 0.47312-2.4056 0.17777-0.7036 0.59417-1.8424 0.92534-2.5307 0.33117-0.6884 0.93883-1.6922 1.3504-2.2308 0.41155-0.5386 1.1849-1.3263 1.7185-1.7503 0.5336-0.4241 1.5712-1.0628 2.3057-1.4194 0.73452-0.3567 1.7801-0.76885 2.3235-0.9159 0.54339-0.14705 1.5808-0.35658 2.3053-0.46559 0.92154-0.13869 2.3808-0.19846 4.8572-0.19899 2.5217-4.2e-4 3.9354 0.058 4.915 0.2034 0.75635 0.11229 1.877 0.34962 2.4904 0.52737 0.61336 0.17776 1.6323 0.58287 2.2644 0.90031 0.63206 0.3174 1.5776 0.9123 2.1011 1.322 0.52358 0.4097 1.2222 1.0766 1.5526 1.4822 0.33035 0.4055 0.83878 1.1382 1.1299 1.6281 0.29109 0.49 0.73625 1.4701 0.98928 2.178 0.25301 0.7079 0.57844 1.9736 0.72317 2.8127 0.17241 0.9994 0.291 2.4681 0.34392 4.259l0.0808 2.7334h-29.681l7.79e-4 0.5598c4.16e-4 0.3079 0.08914 1.1527 0.19713 1.8772 0.10799 0.7245 0.32063 1.7322 0.47254 2.2394 0.1519 0.5072 0.52091 1.3964 0.82001 1.976 0.38653 0.7491 0.83068 1.341 1.5356 2.0467 0.7614 0.762 1.2519 1.1201 2.1115 1.5415 0.61584 0.3019 1.5939 0.6703 2.1736 0.8185 0.57962 0.1482 1.4984 0.327 2.0418 0.3973 0.54339 0.07 2.2344 0.1296 3.7578 0.1318 1.5234 0 3.2721-0.058 3.8861-0.1316 0.61395-0.074 1.5905-0.2559 2.1701-0.4025 0.57962-0.1466 1.5577-0.5088 2.1736-0.805 0.87761-0.4219 1.3356-0.755 2.1182-1.5406 0.62549-0.6278 1.1357-1.2852 1.3657-1.7597l0.36722-0.7574h1.7629c0.96961 0 1.7629 0.02 1.7629 0.045s-0.11031 0.3657-0.24512 0.7574c-0.13482 0.3918-0.45602 1.1272-0.71377 1.6344-0.25775 0.5072-0.75603 1.2758-1.1073 1.708-0.35124 0.4323-1.023 1.0988-1.4927 1.4812-0.46976 0.3825-1.3876 0.959-2.0397 1.2813s-1.5505 0.7028-1.9966 0.8458c-0.44605 0.1429-1.276 0.353-1.8442 0.4667-0.56828 0.1137-1.6853 0.2669-2.4823 0.3404-0.79697 0.073-2.5457 0.1256-3.8861 0.1158zm0.1976-18.161h13.107l-7.79e-4 -0.6257c-3.98e-4 -0.3442-0.0862-1.1888-0.19053-1.8772-0.10437-0.6882-0.31742-1.6663-0.47343-2.1735-0.15603-0.5072-0.52761-1.3933-0.82574-1.9693-0.37789-0.7298-0.83228-1.3372-1.5002-2.0051-0.75594-0.756-1.2156-1.0831-2.1782-1.5504-0.67106-0.3258-1.7258-0.7119-2.3439-0.858-0.6181-0.1463-1.6851-0.325-2.3712-0.3972-0.68604-0.072-2.1154-0.1324-3.1764-0.1336-1.061 0-2.5267 0.059-3.257 0.1339-0.73039 0.075-1.7592 0.2473-2.2863 0.383-0.5271 0.1357-1.3077 0.3782-1.7346 0.5389-0.42692 0.1607-1.2267 0.5985-1.7773 0.973-0.55534 0.3778-1.2745 1.0204-1.6152 1.4433-0.33781 0.4193-0.79377 1.0993-1.0133 1.5111s-0.54882 1.2075-0.73185 1.7681c-0.18303 0.5607-0.4241 1.6345-0.5357 2.3862-0.11161 0.7516-0.20292 1.611-0.20292 1.9097v0.5428zm38.136 18.115c-1.8475 0.025-3.8481-0.01-4.4457-0.068-0.59763-0.063-1.5636-0.211-2.1467-0.3299-0.58307-0.119-1.4575-0.3516-1.9433-0.5169-0.48571-0.1653-1.2684-0.4948-1.7394-0.732-0.47095-0.2374-1.123-0.6132-1.4491-0.8352-0.32604-0.2221-0.9406-0.7329-1.3657-1.1352-0.4251-0.4023-1.0258-1.0872-1.3349-1.5219-0.30908-0.4347-0.76802-1.2053-1.0199-1.7125-0.25186-0.5072-0.58358-1.3074-0.73716-1.7784-0.15358-0.4709-0.36618-1.2746-0.47244-1.7859-0.10626-0.5114-0.264-1.7267-0.35052-2.7005-0.09872-1.1112-0.12804-2.8011-0.07876-4.5372 0.04319-1.5215 0.16882-3.2999 0.2791-3.952 0.11029-0.6521 0.32355-1.6261 0.47392-2.1647 0.15037-0.5384 0.4703-1.4052 0.71096-1.9261 0.24066-0.5209 0.69307-1.3251 1.0054-1.7873 0.31229-0.462 0.92727-1.1992 1.3666-1.638 0.43935-0.4388 1.0835-0.9922 1.4315-1.2296 0.34798-0.2375 1.089-0.6601 1.6466-0.939 0.55767-0.27886 1.529-0.65623 2.1586-0.83847 0.62954-0.18228 1.7635-0.42331 2.5198-0.53561 0.97965-0.14544 2.3934-0.20399 4.915-0.2034 2.4741 4.1e-4 3.935 0.0603 4.8523 0.19858 0.72186 0.1088 1.7592 0.32171 2.3053 0.47312 0.54607 0.15142 1.4774 0.50067 2.0695 0.77608 0.59218 0.2755 1.3628 0.696 1.7125 0.9345 0.3497 0.2386 0.89087 0.6447 1.2026 0.9025 0.31173 0.2578 0.89859 0.8837 1.3041 1.3909 0.40554 0.5071 1.0253 1.5149 1.3773 2.2394 0.35197 0.7245 0.78551 1.8943 0.96342 2.5996 0.17791 0.7053 0.36316 1.5815 0.41167 1.9472l0.08815 0.6648-3.3838-0.074-0.14659-0.7246c-0.08062-0.3985-0.25335-1.0506-0.38384-1.449-0.13048-0.3985-0.47973-1.1958-0.7761-1.7717-0.37812-0.7347-0.82464-1.3328-1.497-2.0052-0.75594-0.7559-1.2156-1.0831-2.1782-1.5503-0.67106-0.3258-1.7258-0.7119-2.3439-0.8581-0.6181-0.1462-1.6851-0.3249-2.3712-0.3972-0.68604-0.072-2.1365-0.1313-3.2233-0.1313-1.0868 0-2.5391 0.059-3.2274 0.1305-0.6883 0.072-1.7553 0.255-2.3712 0.4071-0.61585 0.1521-1.5347 0.469-2.0418 0.7042-0.50717 0.2351-1.2844 0.6968-1.7272 1.0259s-1.0719 0.9454-1.398 1.3696c-0.3261 0.4241-0.7721 1.1268-0.99111 1.5615-0.21901 0.4347-0.52676 1.2054-0.68386 1.7125-0.15711 0.5072-0.37104 1.4853-0.4754 2.1736-0.12241 0.8073-0.18985 2.3035-0.19001 4.2154-1.33e-4 2.0296 0.06319 3.355 0.2009 4.2044 0.11064 0.6821 0.38724 1.8014 0.61469 2.4873 0.24097 0.7267 0.66896 1.6385 1.0256 2.1848 0.33666 0.5157 0.98572 1.2758 1.4424 1.689 0.47589 0.4306 1.2873 0.9761 1.9013 1.2781 0.58909 0.2897 1.5453 0.6481 2.1249 0.7964 0.57962 0.1482 1.4984 0.327 2.0418 0.3973 0.54339 0.07 2.2329 0.1278 3.7544 0.1278 1.5215 0 3.211-0.058 3.7544-0.1278 0.54339-0.07 1.4622-0.2491 2.0418-0.3973 0.57962-0.1483 1.5577-0.5164 2.1736-0.818 0.8777-0.4298 1.3487-0.7773 2.1789-1.6075 0.8303-0.8302 1.1776-1.301 1.6074-2.1788 0.30156-0.6159 0.66967-1.5631 0.81802-2.1051 0.14835-0.5419 0.26973-1.1199 0.26973-1.2844 0-0.2956 0.01947-0.299 1.7249-0.299h1.7249l-0.09361 0.6916c-0.05151 0.3804-0.19951 1.1083-0.32892 1.6177-0.12942 0.5094-0.42553 1.4195-0.65802 2.0223-0.2325 0.6029-0.7664 1.6101-1.1865 2.2381s-1.0803 1.4402-1.4672 1.805c-0.38692 0.3649-1.0816 0.9194-1.5437 1.2324-0.46212 0.3129-1.2664 0.7659-1.7872 1.0065-0.52087 0.2407-1.3876 0.5606-1.9262 0.711-0.53853 0.1504-1.5126 0.366-2.1647 0.4791-0.79666 0.1382-2.2875 0.2207-4.5448 0.2513zm37.148 0c-1.8475 0.023-3.5963 0.018-3.8861-0.011-0.28981-0.029-1.0012-0.1155-1.5808-0.1929-0.57961-0.077-1.5089-0.2555-2.0652-0.3957-0.55624-0.1403-1.4783-0.4519-2.0489-0.6925-0.57068-0.2407-1.4608-0.7114-1.978-1.046-0.51725-0.3346-1.2926-0.9606-1.7231-1.391s-1.0185-1.1304-1.3068-1.5554c-0.2883-0.425-0.70185-1.1284-0.91899-1.5631-0.21714-0.4348-0.52594-1.189-0.68623-1.676-0.16028-0.4871-0.41127-1.4355-0.55775-2.1077-0.21691-0.9954-0.27926-1.8893-0.3361-4.8186-0.0469-2.4142-0.01664-4.0814 0.09202-5.0716 0.08901-0.8115 0.29922-2.0189 0.46712-2.6833 0.1679-0.6642 0.5129-1.687 0.76668-2.2726 0.25378-0.5856 0.7314-1.4708 1.0614-1.9671 0.32998-0.4964 1.0388-1.3194 1.5752-1.8289 0.53641-0.5096 1.3957-1.1762 1.9095-1.4815 0.51382-0.3052 1.3421-0.72093 1.8407-0.92384 0.49858-0.2029 1.4041-0.49135 2.0123-0.64103 0.60818-0.14968 1.6294-0.33971 2.2693-0.42233 0.75811-0.0978 2.5712-0.12778 5.2034-0.0859 3.4279 0.0545 4.2195 0.10481 5.2255 0.33229 0.65207 0.14742 1.6822 0.44942 2.2893 0.67105 0.60703 0.22168 1.4369 0.59066 1.8442 0.81996 0.4073 0.2294 1.0666 0.6677 1.4651 0.9741 0.39848 0.3064 0.99374 0.8463 1.3228 1.1998 0.32904 0.3534 0.78065 0.9094 1.0036 1.2354 0.22292 0.3261 0.61358 1.0077 0.86815 1.5149s0.61924 1.418 0.81036 2.024c0.19114 0.606 0.44947 1.6434 0.57407 2.3053 0.18351 0.9747 0.22656 1.9796 0.22656 5.2872 0 3.3559-0.0417 4.3066-0.23414 5.3351-0.12877 0.6883-0.35579 1.6664-0.50447 2.1735-0.14868 0.5072-0.53009 1.4557-0.84758 2.1078-0.31747 0.652-0.90441 1.5956-1.3043 2.0968s-1.0684 1.2019-1.4857 1.5573c-0.41725 0.3553-1.1062 0.8512-1.531 1.1022-0.42482 0.2509-1.1362 0.6102-1.5808 0.7982-0.44461 0.1881-1.1937 0.4538-1.6646 0.5907-0.47094 0.1368-1.3898 0.3414-2.0418 0.4548-0.80459 0.1397-2.2651 0.2193-4.5448 0.2474zm-0.79039-3.2385c1.9964 0.01 3.3833-0.051 4.2486-0.1815 0.70651-0.1064 1.7439-0.3477 2.3053-0.5361 0.56139-0.1883 1.3764-0.5284 1.8111-0.7558 0.47014-0.2459 1.2226-0.8423 1.857-1.472 0.84252-0.8362 1.182-1.2939 1.6157-2.1784 0.30197-0.6159 0.69636-1.7054 0.87643-2.4212 0.18827-0.7484 0.38882-2.0919 0.47195-3.1616 0.0833-1.0718 0.10721-2.7253 0.0564-3.9019-0.0485-1.123-0.17541-2.5457-0.28204-3.1616-0.10664-0.6158-0.36233-1.6093-0.5682-2.208-0.20588-0.5985-0.57382-1.4264-0.81763-1.8397-0.24383-0.4134-0.85827-1.17-1.3654-1.6813-0.64785-0.6532-1.2412-1.0951-1.995-1.4858-0.59006-0.3059-1.6274-0.7017-2.3053-0.8795-0.67785-0.1779-1.8081-0.3856-2.5117-0.4617-0.70356-0.076-2.173-0.1383-3.2656-0.1383s-2.562 0.062-3.2656 0.1368c-0.70355 0.075-1.7534 0.2523-2.333 0.3934-0.57963 0.1411-1.617 0.5326-2.3053 0.87-1.0136 0.4969-1.4395 0.8039-2.2408 1.6156-0.64218 0.6504-1.1565 1.3256-1.4657 1.9242-0.26194 0.5072-0.59949 1.3075-0.75009 1.7784-0.15059 0.4709-0.36832 1.3601-0.48383 1.9759-0.11552 0.6159-0.24439 2.1571-0.28639 3.4251-0.04469 1.3499-0.01398 2.9877 0.07425 3.9519 0.08284 0.9057 0.27422 2.1506 0.42534 2.7664 0.15113 0.6158 0.50662 1.6184 0.78999 2.2279 0.28336 0.6096 0.7775 1.4268 1.0981 1.8162 0.32057 0.3894 0.86673 0.9426 1.2137 1.2293 0.34696 0.2867 1.0176 0.7236 1.4904 0.971 0.47279 0.2473 1.2982 0.5822 1.8343 0.7441 0.53606 0.1618 1.4549 0.3689 2.0418 0.4601 0.59813 0.093 2.37 0.1712 4.0312 0.1781zm38.861 3.2399c-1.8475 0.022-3.5963 0.017-3.8861-0.012s-1.0012-0.1147-1.5808-0.1911c-0.57962-0.076-1.6042-0.2831-2.2768-0.4592-0.67262-0.1762-1.6642-0.5242-2.2035-0.7734s-1.4287-0.7629-1.9765-1.1416c-0.54776-0.3786-1.2919-1.0123-1.6536-1.408-0.36171-0.3958-0.83354-0.9752-1.0485-1.2877-0.21496-0.3124-0.62662-1.0405-0.91482-1.6181-0.28818-0.5775-0.67071-1.5564-0.85006-2.1753s-0.41798-1.7441-0.5303-2.5005c-0.17549-1.1818-0.20419-3.5535-0.20419-16.87v-15.494h3.2913l0.034 7.9775 0.034 7.9775 0.51962-0.6814c0.28579-0.3748 0.90823-0.9945 1.3832-1.377 0.47496-0.3826 1.2489-0.906 1.7198-1.1632 0.47093-0.25715 1.3898-0.64494 2.0418-0.86168 0.65207-0.21673 1.8156-0.48678 2.5857-0.60015 0.99574-0.14656 2.4034-0.20584 4.8741-0.2053 2.4177 4.1e-4 3.8745 0.0611 4.7913 0.199 0.72452 0.109 1.755 0.31813 2.29 0.46472 0.53498 0.14659 1.3808 0.44015 1.8795 0.65236 0.49874 0.21225 1.3059 0.64475 1.7937 0.96115 0.48777 0.3164 1.2188 0.8795 1.6245 1.2514 0.40566 0.3718 1.0474 1.1243 1.4261 1.672 0.37866 0.5477 0.89236 1.4372 1.1415 1.9765 0.24919 0.5393 0.59673 1.5309 0.77234 2.2036 0.17561 0.6726 0.39642 1.6971 0.49069 2.2767 0.11362 0.6987 0.16961 2.3415 0.16613 4.8741-4e-3 3.091-0.0506 4.0717-0.24303 5.1376-0.13076 0.7244-0.38673 1.7915-0.56881 2.3712-0.18207 0.5795-0.53932 1.4687-0.79389 1.9759-0.25457 0.5071-0.64457 1.1888-0.86667 1.5149-0.2221 0.326-0.73298 0.9406-1.1353 1.3657-0.40232 0.4251-1.0872 1.0258-1.5219 1.3349-0.43471 0.3091-1.2053 0.7693-1.7125 1.0228s-1.3964 0.6097-1.976 0.7916c-0.57961 0.1819-1.617 0.4315-2.3053 0.5548-0.90594 0.1621-2.1789 0.2351-4.6106 0.2641zm-0.85626-3.2432c1.594 0.01 3.3427-0.049 3.8861-0.1189 0.54339-0.07 1.4622-0.2491 2.0418-0.3973 0.57962-0.1483 1.5391-0.5082 2.1321-0.7999 0.64741-0.3185 1.416-0.8399 1.9235-1.3049 0.46488-0.426 1.0883-1.1478 1.3854-1.6041 0.29711-0.4562 0.69455-1.2398 0.88321-1.7414 0.18865-0.5016 0.46535-1.3907 0.61487-1.976 0.22757-0.8907 0.28241-1.608 0.33663-4.4025 0.0429-2.214 0.0108-3.7668-0.0952-4.6099-0.088-0.6991-0.3025-1.7629-0.47665-2.3639-0.17416-0.6009-0.51853-1.4935-0.76524-1.9834-0.24672-0.4899-0.72524-1.2304-1.0634-1.6455-0.33814-0.4151-1.0286-1.0453-1.5343-1.4004-0.50571-0.3552-1.3472-0.8238-1.87-1.0415-0.52281-0.2176-1.5715-0.5297-2.3305-0.6935-1.2331-0.2661-1.7513-0.2983-4.8708-0.3024-2.8329 0-3.7097 0.04-4.6517 0.2292-0.63844 0.1285-1.5869 0.3856-2.1077 0.5712-0.52079 0.1857-1.2645 0.5171-1.6527 0.7366-0.38818 0.2195-1.0822 0.7512-1.5423 1.1815-0.46008 0.4305-1.0648 1.1486-1.3439 1.5959-0.27907 0.4475-0.63235 1.1098-0.78506 1.4721-0.1527 0.3623-0.4006 1.1408-0.55088 1.7302-0.15028 0.5893-0.3405 1.686-0.42271 2.4371-0.0923 0.8428-0.12124 2.4496-0.0757 4.1977 0.0547 2.0989 0.14075 3.1392 0.33242 4.0179 0.14225 0.652 0.4054 1.5852 0.58477 2.0736s0.52632 1.2273 0.77101 1.6421c0.24469 0.4146 0.83698 1.1452 1.3162 1.6237 0.57699 0.576 1.2222 1.0518 1.9101 1.4085 0.57132 0.2963 1.4774 0.6711 2.0134 0.8331 0.53606 0.162 1.4549 0.3691 2.0418 0.4603 0.59891 0.093 2.3389 0.1697 3.9653 0.1748zm38.4 3.2393c-1.8475 0.024-3.5963 0.02-3.8861-0.01-0.28982-0.029-1.0012-0.1148-1.5808-0.1911-0.57963-0.076-1.617-0.286-2.3053-0.4656-0.68829-0.1797-1.785-0.5862-2.437-0.9033-0.65207-0.3172-1.5759-0.8729-2.0529-1.2349-0.47701-0.3621-1.1228-0.9453-1.435-1.2962-0.31229-0.3508-0.82821-1.0369-1.1465-1.5247s-0.75237-1.2949-0.96461-1.7937c-0.21221-0.4987-0.50579-1.3444-0.65237-1.8794-0.14657-0.5351-0.35571-1.5656-0.46473-2.29-0.13904-0.9242-0.19821-2.3791-0.19821-4.8741 0-2.4929 0.0592-3.9494 0.19781-4.8693 0.10879-0.7218 0.32171-1.7592 0.47311-2.3053 0.15142-0.546 0.49916-1.4741 0.77275-2.0623 0.27361-0.5883 0.73532-1.4198 1.026-1.8479 0.2907-0.4281 0.87454-1.1243 1.2974-1.5472s1.1191-1.0067 1.5472-1.2974 1.2607-0.7546 1.8502-1.0309c0.58955-0.27627 1.5154-0.62383 2.0575-0.77236 0.54207-0.14853 1.5784-0.35921 2.3029-0.46822 0.92154-0.13869 2.3808-0.19846 4.8572-0.199 2.5217-4.1e-4 3.9354 0.058 4.915 0.2034 0.75636 0.1123 1.8903 0.35333 2.5198 0.53558 0.62954 0.18228 1.6009 0.5596 2.1586 0.83857 0.55768 0.2789 1.2987 0.7014 1.6466 0.9389s0.99216 0.7908 1.4315 1.2296c0.43935 0.4388 1.0543 1.1759 1.3666 1.6381 0.31231 0.4621 0.76471 1.2664 1.0054 1.7872 0.24066 0.5209 0.56058 1.3877 0.71095 1.9262s0.36446 1.5127 0.47575 2.1647c0.11129 0.6521 0.23729 2.4453 0.28003 3.9849l0.0777 2.7993h-29.678l8.8e-4 0.3623c0 0.1992 0.062 0.8943 0.13654 1.5446 0.0745 0.6504 0.25518 1.6582 0.40151 2.2396 0.14633 0.5812 0.52492 1.5904 0.84129 2.2425 0.32452 0.6689 0.86457 1.5081 1.2391 1.9256 0.3651 0.4071 1.0662 1.0148 1.558 1.3507 0.50615 0.3456 1.4443 0.807 2.1619 1.0633 0.69722 0.249 1.8904 0.5453 2.6515 0.6583 0.91272 0.1355 2.3199 0.2054 4.1333 0.2051 1.5122-3e-4 3.283-0.066 3.935-0.1457 0.65207-0.08 1.6302-0.2572 2.1736-0.394 0.54339-0.1368 1.4919-0.4954 2.1077-0.7969 0.867-0.4246 1.344-0.774 2.1136-1.5487 0.57025-0.5739 1.1599-1.3232 1.3832-1.7575l0.38927-0.7572 1.748-2e-4 1.7479-4e-4 -0.0844 0.3624c-0.0465 0.1992-0.2472 0.7574-0.44618 1.2405-0.19899 0.483-0.63718 1.2924-0.97375 1.7987-0.33656 0.5064-0.98032 1.2616-1.4306 1.6785-0.45025 0.4168-1.1426 0.9651-1.5386 1.2184s-1.1452 0.6571-1.6649 0.8972-1.5045 0.5819-2.1884 0.7596c-0.68391 0.1777-1.6848 0.3908-2.2241 0.4735-0.53937 0.083-2.4923 0.1703-4.3398 0.1945zm-0.72167-18.108h13.144l-0.0804-1.2186c-0.0442-0.6701-0.1689-1.6389-0.27717-2.1529-0.10826-0.5139-0.37382-1.4193-0.59011-2.0119-0.2163-0.5927-0.6671-1.4895-1.0018-1.9929-0.33468-0.5035-0.94594-1.218-1.3583-1.588-0.4232-0.3795-1.2662-0.9243-1.9354-1.2506-0.65207-0.3179-1.6895-0.6984-2.3053-0.8455-0.61585-0.1471-1.8014-0.335-2.6346-0.4176-0.92549-0.092-2.5144-0.1196-4.0837-0.072-1.7829 0.055-2.9315 0.1568-3.7544 0.3337-0.65207 0.1403-1.5852 0.4018-2.0737 0.5811-0.48844 0.1794-1.2234 0.5263-1.6333 0.771s-1.1069 0.8066-1.549 1.2487c-0.44205 0.442-1.0066 1.1436-1.2547 1.5589-0.24802 0.4154-0.61536 1.2198-0.81629 1.7877-0.20093 0.5678-0.45269 1.4964-0.55947 2.0636-0.10679 0.5672-0.23616 1.5203-0.28751 2.1181l-0.0934 1.0868zm38.265 18.116c-1.8475 0.024-3.87-0.01-4.4943-0.066-0.62435-0.06-1.62-0.2086-2.2126-0.3295-0.59256-0.1209-1.4748-0.3551-1.9605-0.5204-0.48572-0.1653-1.2684-0.4939-1.7394-0.7301s-1.2147-0.6838-1.6529-0.9944c-0.43814-0.3107-1.1638-0.9574-1.6126-1.4372-0.44883-0.4798-1.0844-1.3301-1.4123-1.8895-0.32794-0.5595-0.76728-1.4619-0.97629-2.0053-0.20899-0.5434-0.50275-1.5579-0.65279-2.2543-0.15005-0.6964-0.34117-2.1191-0.42474-3.1616-0.0897-1.1194-0.11983-2.9198-0.0735-4.3981 0.0483-1.5437 0.17864-3.0876 0.34004-4.0284 0.14392-0.8391 0.46869-2.1049 0.7217-2.8127 0.25302-0.708 0.69818-1.6879 0.98927-2.178 0.29109-0.4899 0.80127-1.2248 1.1338-1.6329 0.33248-0.4082 0.97187-1.0402 1.4209-1.4045 0.44901-0.3642 1.3839-0.9544 2.0775-1.3114 0.69362-0.35706 1.7719-0.79721 2.3961-0.9781 0.62422-0.18088 1.7538-0.42076 2.5102-0.5331 0.97963-0.14544 2.3933-0.20394 4.915-0.2034 2.4763 4.1e-4 3.9356 0.0603 4.8572 0.19899 0.72452 0.10902 1.7619 0.31855 2.3053 0.4656 0.54339 0.14704 1.589 0.5592 2.3235 0.91591 0.73452 0.3566 1.7721 0.9953 2.3057 1.4194 0.53359 0.424 1.3069 1.2117 1.7184 1.7503 0.41154 0.5386 1.0192 1.5424 1.3504 2.2308 0.33116 0.6883 0.74543 1.8187 0.9206 2.512 0.17518 0.6933 0.38243 1.7202 0.46056 2.2819 0.0781 0.5617 0.14205 2.2026 0.14205 3.6465v2.6251h-29.508l8.9e-4 0.6257c0 0.3442 0.0883 1.2069 0.19543 1.9171 0.10706 0.7103 0.37689 1.8354 0.59962 2.5002 0.22272 0.6648 0.58954 1.536 0.81513 1.936 0.2256 0.4 0.85942 1.1734 1.4085 1.7187 0.75906 0.7539 1.2667 1.1234 2.118 1.5416 0.61585 0.3026 1.594 0.6716 2.1736 0.8198s1.4984 0.327 2.0418 0.3973c0.54339 0.07 2.2344 0.1296 3.7578 0.1318 1.5234 0 3.2722-0.058 3.8861-0.1346 0.61395-0.076 1.5905-0.2578 2.1701-0.4033 0.57961-0.1456 1.5577-0.506 2.1736-0.8008 0.88917-0.4258 1.3231-0.7428 2.1077-1.5397 0.60736-0.6169 1.1291-1.2954 1.3543-1.761l0.36631-0.7575h1.7743c0.97588 0 1.7743 0.02 1.7743 0.045s-0.11037 0.3661-0.24524 0.7581c-0.13489 0.3921-0.42485 1.0687-0.64438 1.5035-0.21952 0.4349-0.68139 1.1662-1.0264 1.6251-0.345 0.459-0.9735 1.1226-1.3967 1.4748-0.42318 0.3521-1.1787 0.8834-1.679 1.1807-0.50027 0.2972-1.4888 0.7474-2.1967 1.0003-0.7079 0.253-1.9736 0.5818-2.8126 0.7306-1.2081 0.2142-2.2246 0.2795-4.8847 0.3135zm-0.72453-18.116h13.107v-0.543c0-0.2986-0.0913-1.1579-0.20293-1.9097-0.11163-0.7516-0.35269-1.8254-0.53571-2.3861s-0.51235-1.3563-0.73184-1.7681c-0.2195-0.4119-0.67547-1.0918-1.0133-1.5111-0.34072-0.423-1.0599-1.0656-1.6152-1.4433-0.55058-0.3745-1.3503-0.8123-1.7773-0.973-0.42692-0.1607-1.2075-0.4032-1.7346-0.5389s-1.556-0.308-2.2863-0.383c-0.73037-0.075-2.196-0.1352-3.257-0.1339-1.061 0-2.4904 0.061-3.1764 0.1336-0.68603 0.072-1.753 0.2509-2.3712 0.3972-0.61809 0.1461-1.671 0.5313-2.3397 0.8559-0.9497 0.461-1.4264 0.799-2.1774 1.5437-0.68388 0.6781-1.1183 1.2577-1.5044 2.0072-0.29859 0.5796-0.67053 1.4688-0.82655 1.976-0.15603 0.5071-0.36908 1.4852-0.47344 2.1736-0.10437 0.6882-0.1901 1.533-0.19053 1.8772l-8.8e-4 0.6257h13.107z" fill="#fff" stroke-width=".13173"/>
</g>
</svg>
