<?xml version="1.0" encoding="UTF-8" standalone="no"?>
<svg
   xmlns:dc="http://purl.org/dc/elements/1.1/"
   xmlns:cc="http://creativecommons.org/ns#"
   xmlns:rdf="http://www.w3.org/1999/02/22-rdf-syntax-ns#"
   xmlns:svg="http://www.w3.org/2000/svg"
   xmlns="http://www.w3.org/2000/svg"
   xmlns:sodipodi="http://sodipodi.sourceforge.net/DTD/sodipodi-0.dtd"
   xmlns:inkscape="http://www.inkscape.org/namespaces/inkscape"
   width="250"
   height="91"
   viewBox="0 0 250 91"
   id="svg2"
   version="1.1"
   inkscape:version="1.0 (4035a4fb49, 2020-05-01)"
   sodipodi:docname="eit-kic.svg">
  <defs
     id="defs4">
    <style
       id="style1418">.cls-1{fill:#fff;fill-rule:evenodd}</style>
    <clipPath
       id="clipPath885"
       clipPathUnits="userSpaceOnUse">
      <path
         id="path883"
         d="M 42.52,35.681 H 193.335 V 82.205 H 42.52 Z" />
    </clipPath>
    <clipPath
       id="clipPath947"
       clipPathUnits="userSpaceOnUse">
      <path
         id="path945"
         d="m 318.676,276.55 h 171.517 v 64.314 H 318.676 Z" />
    </clipPath>
    <clipPath
       id="clipPath1073"
       clipPathUnits="userSpaceOnUse">
      <path
         id="path1071"
         d="M 283.521,104.882 H 524.41 v 122.93 H 283.521 Z" />
    </clipPath>
    <clipPath
       id="clipPath1091"
       clipPathUnits="userSpaceOnUse">
      <path
         id="path1089"
         d="m 318.676,140.036 h 170.579 v 52.62 H 318.676 Z" />
    </clipPath>
    <clipPath
       id="clipPath1103"
       clipPathUnits="userSpaceOnUse">
      <path
         id="path1101"
         d="m 318.691,140.036 h 170.564 v 52.62 H 318.691 Z" />
    </clipPath>
    <clipPath
       id="clipPath1119"
       clipPathUnits="userSpaceOnUse">
      <path
         id="path1117"
         d="m 318.676,140.036 h 170.579 v 52.62 H 318.676 Z" />
    </clipPath>
    <clipPath
       id="clipPath1181"
       clipPathUnits="userSpaceOnUse">
      <path
         id="path1179"
         d="m 318.676,563.957 h 170.579 v 52.619 H 318.676 Z" />
    </clipPath>
    <clipPath
       id="clipPath1193"
       clipPathUnits="userSpaceOnUse">
      <path
         id="path1191"
         d="m 318.691,563.957 h 170.564 v 52.619 H 318.691 Z" />
    </clipPath>
    <clipPath
       id="clipPath1209"
       clipPathUnits="userSpaceOnUse">
      <path
         id="path1207"
         d="m 318.676,563.957 h 170.579 v 52.619 H 318.676 Z" />
    </clipPath>
    <clipPath
       id="clipPath1303"
       clipPathUnits="userSpaceOnUse">
      <path
         id="path1301"
         d="m 318.676,426.1 h 170.579 v 52.619 H 318.676 Z" />
    </clipPath>
    <clipPath
       id="clipPath1315"
       clipPathUnits="userSpaceOnUse">
      <path
         id="path1313"
         d="m 318.691,426.1 h 170.564 v 52.619 H 318.691 Z" />
    </clipPath>
    <clipPath
       id="clipPath1331"
       clipPathUnits="userSpaceOnUse">
      <path
         id="path1329"
         d="m 318.676,426.1 h 170.579 v 52.619 H 318.676 Z" />
    </clipPath>
    <clipPath
       id="clipPath1399"
       clipPathUnits="userSpaceOnUse">
      <path
         id="path1397"
         d="M 0,0 H 595.275 V 841.89 H 0 Z" />
    </clipPath>
  </defs>
  <sodipodi:namedview
     id="base"
     pagecolor="#ffffff"
     bordercolor="#666666"
     borderopacity="1.0"
     inkscape:pageopacity="0.0"
     inkscape:pageshadow="2"
     inkscape:zoom="2.8000014"
     inkscape:cx="138.05784"
     inkscape:cy="55.07377"
     inkscape:document-units="px"
     inkscape:current-layer="layer1"
     showgrid="false"
     inkscape:window-width="1920"
     inkscape:window-height="1046"
     inkscape:window-x="-11"
     inkscape:window-y="-11"
     inkscape:window-maximized="1"
     units="px"
     inkscape:document-rotation="0" />
  <metadata
     id="metadata7">
    <rdf:RDF>
      <cc:Work
         rdf:about="">
        <dc:format>image/svg+xml</dc:format>
        <dc:type
           rdf:resource="http://purl.org/dc/dcmitype/StillImage" />
        <dc:title></dc:title>
      </cc:Work>
    </rdf:RDF>
  </metadata>
  <g
     inkscape:label="Layer 1"
     inkscape:groupmode="layer"
     id="layer1"
     transform="translate(0,-961.4)">
    <rect
       style="opacity:0.001;fill:none;fill-opacity:1;stroke:none;stroke-width:2.5;stroke-linecap:round;stroke-linejoin:round;stroke-miterlimit:4;stroke-dasharray:none;stroke-dashoffset:0;stroke-opacity:1"
       id="rect4175"
       width="250"
       height="91"
       x="0"
       y="961.4" />
    <g
       id="g949"
       transform="matrix(1.1766471,0,0,-1.1766471,186.43951,1040.6489)">
      <path
         d="m 0,0 v 2.466 c 0,0 0.419,0.225 0.857,0.225 0.565,0 0.656,-0.298 0.656,-1.1 V 0 h 0.449 v 1.604 c 0,1.081 -0.188,1.493 -1.026,1.493 -0.45,0 -0.942,-0.273 -0.942,-0.273 V 3.036 H -0.455 V 0 Z m -2.496,0.334 c -0.717,0 -0.832,0.358 -0.832,1.221 0,0.844 0.188,1.148 0.832,1.148 0.65,0 0.832,-0.304 0.832,-1.148 0,-0.863 -0.109,-1.221 -0.832,-1.221 m 0,2.763 c -0.96,0 -1.299,-0.497 -1.299,-1.542 0,-1.106 0.279,-1.615 1.299,-1.615 1.027,0 1.3,0.509 1.3,1.615 0,1.045 -0.334,1.542 -1.3,1.542 m -2.496,0.626 h 0.454 V 4.25 h -0.454 z m 0,-3.723 h 0.454 v 3.036 h -0.454 z m -2.807,0 v 2.466 c 0,0 0.42,0.225 0.857,0.225 0.566,0 0.657,-0.298 0.657,-1.1 V 0 h 0.448 v 1.604 c 0,1.081 -0.188,1.493 -1.026,1.493 -0.449,0 -0.942,-0.273 -0.942,-0.273 V 3.036 H -8.254 V 0 Z m -3.85,1.263 v 2.939 h -0.467 V 1.275 c 0,-0.966 0.527,-1.335 1.451,-1.335 0.96,0 1.488,0.376 1.488,1.335 V 4.202 H -9.638 V 1.263 c 0,-0.656 -0.371,-0.911 -1.027,-0.911 -0.62,0 -0.984,0.255 -0.984,0.911 M -16.308,0 v 2.466 c 0,0 0.42,0.225 0.857,0.225 0.565,0 0.656,-0.298 0.656,-1.1 V 0 h 0.449 v 1.604 c 0,1.081 -0.188,1.493 -1.026,1.493 -0.449,0 -0.942,-0.273 -0.942,-0.273 v 0.212 h -0.449 V 0 Z m -1.809,1.513 V 0.51 c 0,0 -0.505,-0.189 -0.954,-0.189 -0.31,0 -0.462,0.207 -0.462,0.56 0,0.334 0.146,0.511 0.517,0.547 z m 0.455,0.608 c 0,0.661 -0.291,0.976 -0.978,0.976 -0.522,0 -1.19,-0.133 -1.19,-0.133 l 0.018,-0.346 c 0,0 0.723,0.079 1.148,0.079 0.365,0 0.547,-0.152 0.547,-0.576 V 1.86 L -19.071,1.769 C -19.697,1.708 -20,1.453 -20,0.869 c 0,-0.614 0.303,-0.929 0.856,-0.929 0.547,0 1.094,0.242 1.094,0.242 0.182,-0.182 0.4,-0.242 0.722,-0.242 l 0.018,0.357 c -0.194,0.024 -0.34,0.091 -0.352,0.268 z m -4.89,-0.427 c 0.007,0.735 0.298,1.021 0.815,1.021 0.534,0 0.765,-0.267 0.765,-1.021 z m 0.803,-1.354 c -0.596,0 -0.796,0.34 -0.796,0.991 h 2.004 l 0.024,0.345 c 0,0.996 -0.412,1.421 -1.22,1.421 -0.772,0 -1.269,-0.443 -1.269,-1.597 0,-1.033 0.297,-1.56 1.202,-1.56 0.492,0 1.184,0.096 1.184,0.096 l -0.012,0.358 c 0,0 -0.662,-0.054 -1.117,-0.054 m -3.031,2.351 c 0.443,0 0.705,-0.304 0.705,-1.136 0,-0.875 -0.219,-1.221 -0.887,-1.221 -0.262,0 -0.578,0.054 -0.657,0.067 v 2.047 c 0,0 0.425,0.243 0.839,0.243 m -1.294,-4.04 h 0.455 v 1.355 c 0.085,-0.018 0.395,-0.066 0.681,-0.066 0.935,0 1.323,0.424 1.323,1.615 0,1.075 -0.333,1.542 -1.098,1.542 -0.45,0 -0.912,-0.279 -0.912,-0.279 v 0.218 h -0.449 z m -2.041,1.683 c -0.716,0 -0.832,0.358 -0.832,1.221 0,0.844 0.188,1.148 0.832,1.148 0.651,0 0.833,-0.304 0.833,-1.148 0,-0.863 -0.11,-1.221 -0.833,-1.221 m 0,2.763 c -0.96,0 -1.299,-0.497 -1.299,-1.542 0,-1.106 0.279,-1.615 1.299,-1.615 1.027,0 1.3,0.509 1.3,1.615 0,1.045 -0.334,1.542 -1.3,1.542 M -31.321,0 h 0.454 v 2.229 c 0,0 0.535,0.298 1.106,0.413 v 0.461 c -0.583,-0.115 -1.112,-0.479 -1.112,-0.479 v 0.412 h -0.448 z m -1.33,3.036 V 0.571 c 0,0 -0.383,-0.226 -0.833,-0.226 -0.565,0 -0.638,0.274 -0.638,1.112 v 1.579 h -0.455 V 1.451 c 0,-1.117 0.176,-1.511 1.026,-1.511 0.443,0 0.9,0.273 0.9,0.273 V 0 h 0.455 V 3.036 Z M -37.778,0 h 2.557 v 0.413 h -2.09 v 1.519 h 1.725 v 0.406 h -1.725 V 3.79 h 2.09 v 0.412 h -2.557 z m -4.161,1.694 c 0.006,0.735 0.298,1.021 0.814,1.021 0.535,0 0.766,-0.267 0.766,-1.021 z m 0.802,-1.354 c -0.595,0 -0.796,0.34 -0.796,0.991 h 2.005 l 0.024,0.345 c 0,0.996 -0.413,1.421 -1.221,1.421 -0.771,0 -1.269,-0.443 -1.269,-1.597 0,-1.033 0.298,-1.56 1.202,-1.56 0.493,0 1.185,0.096 1.185,0.096 l -0.012,0.358 c 0,0 -0.662,-0.054 -1.118,-0.054 M -45.067,0 v 2.508 c 0,0 0.425,0.183 0.857,0.183 0.559,0 0.65,-0.298 0.65,-1.1 V 0 h 0.455 v 1.604 c 0,1.081 -0.194,1.493 -1.026,1.493 -0.45,0 -0.936,-0.23 -0.936,-0.23 v 1.494 h -0.454 V 0 Z m -1.014,2.643 v 0.393 h -0.966 v 0.93 h -0.449 v -0.93 h -0.431 V 2.643 h 0.431 V 1.044 c 0,-0.874 0.213,-1.11 0.838,-1.11 0.212,0 0.62,0.066 0.62,0.066 l -0.031,0.376 c 0,0 -0.371,-0.036 -0.54,-0.036 -0.396,0 -0.438,0.188 -0.438,0.85 v 1.453 z m -4.337,0 h 0.881 v 0.393 h -0.881 v 0.268 c 0,0.565 0.11,0.711 0.45,0.711 0.182,0 0.522,-0.012 0.522,-0.012 l 0.006,0.375 c 0,10e-4 -0.407,0.043 -0.613,0.043 -0.595,0 -0.82,-0.236 -0.82,-1.111 V 3.036 h -0.382 V 2.643 h 0.382 V 0 h 0.455 z m -2.623,-2.309 c -0.717,0 -0.833,0.358 -0.833,1.221 0,0.844 0.189,1.148 0.833,1.148 0.65,0 0.832,-0.304 0.832,-1.148 0,-0.863 -0.109,-1.221 -0.832,-1.221 m 0,2.763 c -0.96,0 -1.299,-0.497 -1.299,-1.542 0,-1.106 0.278,-1.615 1.299,-1.615 1.026,0 1.299,0.509 1.299,1.615 0,1.045 -0.333,1.542 -1.299,1.542 M -58.762,3.036 -57.9,0 h 0.449 l -0.394,-1.349 h 0.455 l 1.263,4.385 h -0.455 l -0.766,-2.642 h -0.2 l -0.759,2.642 z m -1.914,-2.691 c -0.358,0 -0.68,0.165 -0.68,1.149 0,0.79 0.188,1.209 0.826,1.209 0.249,0 0.626,-0.055 0.723,-0.073 V 0.571 c 0,0 -0.437,-0.226 -0.869,-0.226 m 1.318,4.016 h -0.449 V 3.018 c -0.091,0.018 -0.486,0.079 -0.747,0.079 -0.924,0 -1.269,-0.534 -1.269,-1.603 0,-1.312 0.497,-1.554 1.092,-1.554 0.456,0 0.924,0.266 0.924,0.266 V 0 h 0.449 z m -4.373,-4.027 c -0.717,0 -0.832,0.358 -0.832,1.221 0,0.844 0.188,1.148 0.832,1.148 0.65,0 0.833,-0.304 0.833,-1.148 0,-0.863 -0.11,-1.221 -0.833,-1.221 m 0,2.763 c -0.96,0 -1.299,-0.497 -1.299,-1.542 0,-1.106 0.279,-1.615 1.299,-1.615 1.027,0 1.3,0.509 1.3,1.615 0,1.045 -0.334,1.542 -1.3,1.542 m -3.353,-2.752 c -0.164,0 -0.559,0.031 -0.559,0.031 v 2.139 c 0,0 0.426,0.176 0.845,0.176 0.535,0 0.693,-0.34 0.693,-1.124 0,-0.851 -0.146,-1.222 -0.979,-1.222 m 0.335,2.752 c -0.432,0 -0.894,-0.212 -0.894,-0.212 v 1.476 h -0.449 V 0.006 c 0,0 0.65,-0.066 1.015,-0.066 1.105,0 1.433,0.418 1.433,1.627 0,1.094 -0.279,1.53 -1.105,1.53 M -70.782,1.513 V 0.51 c 0,0 -0.504,-0.189 -0.954,-0.189 -0.31,0 -0.462,0.207 -0.462,0.56 0,0.334 0.146,0.511 0.516,0.547 z m 0.455,0.608 c 0,0.661 -0.291,0.976 -0.978,0.976 -0.522,0 -1.19,-0.133 -1.19,-0.133 l 0.018,-0.346 c 0,0 0.723,0.079 1.148,0.079 0.365,0 0.547,-0.152 0.547,-0.576 V 1.86 l -0.954,-0.091 c -0.626,-0.061 -0.929,-0.316 -0.929,-0.9 0,-0.614 0.303,-0.929 0.856,-0.929 0.547,0 1.094,0.242 1.094,0.242 0.181,-0.182 0.4,-0.242 0.722,-0.242 l 0.018,0.357 c -0.194,0.024 -0.34,0.091 -0.352,0.268 z m -5.065,-2.868 h 0.376 l 0.407,1.396 h -0.504 z m -2.94,4.531 h 1.294 V 0 h 0.461 v 3.784 h 1.281 v 0.418 h -3.036 z M -79.388,0 h 0.467 v 4.203 h -0.467 z m -3.359,0 h 2.556 v 0.413 h -2.089 v 1.519 h 1.725 V 2.338 H -82.28 V 3.79 h 2.089 v 0.412 h -2.556 z"
         style="fill:#ffffff;fill-opacity:1;fill-rule:nonzero;stroke:none"
         id="path951" />
    </g>
    <g
       id="g953"
       transform="matrix(1.1766471,0,0,-1.1766471,186.51129,1028.8295)">
      <path
         d="M 0,0 C 0.006,0.736 0.298,1.021 0.814,1.021 1.349,1.021 1.58,0.754 1.58,0 Z m 0.802,-1.354 c -0.596,0 -0.796,0.34 -0.796,0.99 h 2.005 l 0.024,0.346 c 0,0.996 -0.413,1.421 -1.221,1.421 -0.772,0 -1.269,-0.442 -1.269,-1.597 0,-1.033 0.297,-1.561 1.202,-1.561 0.493,0 1.185,0.097 1.185,0.097 L 1.919,-1.3 c 0,0 -0.661,-0.054 -1.117,-0.054 m -3.93,-0.34 v 2.508 c 0,0 0.425,0.183 0.857,0.183 0.559,0 0.65,-0.298 0.65,-1.099 v -1.592 h 0.455 v 1.604 c 0,1.081 -0.194,1.493 -1.026,1.493 -0.45,0 -0.936,-0.23 -0.936,-0.23 v 1.493 h -0.455 v -4.36 z m -1.015,2.642 v 0.394 h -0.965 v 0.93 H -5.557 V 1.342 H -5.988 V 0.948 h 0.431 v -1.597 c 0,-0.875 0.212,-1.112 0.838,-1.112 0.212,0 0.619,0.067 0.619,0.067 l -0.03,0.376 c 0,0 -0.371,-0.036 -0.541,-0.036 -0.395,0 -0.437,0.188 -0.437,0.85 v 1.452 z m -6.127,0.394 0.862,-3.036 h 0.45 l -0.395,-1.348 h 0.456 l 1.262,4.384 H -8.09 L -8.855,-1.3 h -0.2 l -0.759,2.642 z m -1.847,-2.691 c -0.164,0 -0.559,0.031 -0.559,0.031 v 2.139 c 0,0 0.426,0.176 0.845,0.176 0.534,0 0.693,-0.34 0.693,-1.124 0,-0.851 -0.146,-1.222 -0.979,-1.222 m 0.334,2.752 c -0.431,0 -0.893,-0.212 -0.893,-0.212 v 1.475 h -0.448 v -4.354 c 0,0 0.649,-0.067 1.013,-0.067 1.106,0 1.433,0.419 1.433,1.628 0,1.093 -0.279,1.53 -1.105,1.53 m -4.877,-2.752 c -0.358,0 -0.68,0.165 -0.68,1.149 0,0.79 0.188,1.209 0.826,1.209 0.249,0 0.626,-0.055 0.723,-0.073 v -2.06 c 0,0 -0.437,-0.225 -0.869,-0.225 m 1.318,4.015 h -0.449 V 1.324 c -0.091,0.018 -0.486,0.079 -0.747,0.079 -0.923,0 -1.269,-0.534 -1.269,-1.603 0,-1.312 0.497,-1.555 1.093,-1.555 0.455,0 0.923,0.267 0.923,0.267 v -0.206 h 0.449 z M -20.42,0 c 0.006,0.736 0.298,1.021 0.815,1.021 0.534,0 0.765,-0.267 0.765,-1.021 z m 0.802,-1.354 c -0.595,0 -0.796,0.34 -0.796,0.99 h 2.005 l 0.024,0.346 c 0,0.996 -0.412,1.421 -1.22,1.421 -0.772,0 -1.27,-0.442 -1.27,-1.597 0,-1.033 0.297,-1.561 1.203,-1.561 0.492,0 1.184,0.097 1.184,0.097 L -18.5,-1.3 c 0,0 -0.662,-0.054 -1.118,-0.054 m -1.683,2.302 v 0.394 h -0.965 v 0.93 h -0.449 v -0.93 h -0.431 V 0.948 h 0.431 v -1.597 c 0,-0.875 0.212,-1.112 0.838,-1.112 0.212,0 0.619,0.067 0.619,0.067 l -0.03,0.376 c 0,0 -0.371,-0.036 -0.541,-0.036 -0.395,0 -0.437,0.188 -0.437,0.85 v 1.452 z m -3.673,-2.642 h 0.455 v 2.229 c 0,0 0.534,0.298 1.105,0.413 V 1.409 C -23.997,1.293 -24.526,0.93 -24.526,0.93 v 0.412 h -0.448 z m -2.041,0.333 c -0.717,0 -0.833,0.359 -0.833,1.222 0,0.844 0.188,1.148 0.833,1.148 0.65,0 0.832,-0.304 0.832,-1.148 0,-0.863 -0.109,-1.222 -0.832,-1.222 m 0,2.764 c -0.96,0 -1.3,-0.497 -1.3,-1.542 0,-1.106 0.279,-1.616 1.3,-1.616 1.026,0 1.299,0.51 1.299,1.616 0,1.045 -0.333,1.542 -1.299,1.542 m -3.074,-0.406 c 0.444,0 0.705,-0.304 0.705,-1.136 0,-0.875 -0.218,-1.222 -0.887,-1.222 -0.261,0 -0.577,0.055 -0.656,0.067 v 2.048 c 0,0 0.425,0.243 0.838,0.243 m -1.293,-4.039 h 0.455 v 1.354 c 0.085,-0.018 0.395,-0.067 0.681,-0.067 0.935,0 1.323,0.425 1.323,1.616 0,1.075 -0.334,1.542 -1.099,1.542 -0.449,0 -0.912,-0.279 -0.912,-0.279 v 0.218 h -0.448 z m -1.908,4.039 c 0.444,0 0.705,-0.304 0.705,-1.136 0,-0.875 -0.218,-1.222 -0.887,-1.222 -0.261,0 -0.577,0.055 -0.656,0.067 v 2.048 c 0,0 0.425,0.243 0.838,0.243 m -1.293,-4.039 h 0.455 v 1.354 c 0.085,-0.018 0.395,-0.067 0.681,-0.067 0.935,0 1.323,0.425 1.323,1.616 0,1.075 -0.333,1.542 -1.099,1.542 -0.449,0 -0.911,-0.279 -0.911,-0.279 v 0.218 h -0.449 z m -1.33,4.384 v -2.466 c 0,0 -0.383,-0.225 -0.832,-0.225 -0.566,0 -0.639,0.274 -0.639,1.112 v 1.579 h -0.455 v -1.585 c 0,-1.118 0.176,-1.512 1.026,-1.512 0.444,0 0.9,0.273 0.9,0.273 v -0.212 h 0.455 v 3.036 z m -2.691,-0.054 c 0,0 -0.643,0.115 -1.099,0.115 -0.554,0 -1.094,-0.218 -1.094,-0.886 0,-0.608 0.328,-0.735 1.015,-0.845 0.662,-0.103 0.82,-0.182 0.82,-0.498 0,-0.413 -0.268,-0.523 -0.766,-0.523 -0.31,0 -1.001,0.104 -1.001,0.104 l -0.025,-0.394 c 0,0 0.68,-0.116 1.069,-0.116 0.729,0 1.178,0.237 1.178,0.947 0,0.59 -0.285,0.742 -1.045,0.869 -0.644,0.11 -0.79,0.189 -0.79,0.474 0,0.359 0.286,0.462 0.663,0.462 0.389,0 1.063,-0.097 1.063,-0.097 z m -4.161,0 c 0,0 -0.643,0.115 -1.099,0.115 -0.553,0 -1.093,-0.218 -1.093,-0.886 0,-0.608 0.328,-0.735 1.014,-0.845 0.663,-0.103 0.82,-0.182 0.82,-0.498 0,-0.413 -0.267,-0.523 -0.765,-0.523 -0.31,0 -1.002,0.104 -1.002,0.104 l -0.024,-0.394 c 0,0 0.679,-0.116 1.068,-0.116 0.73,0 1.178,0.237 1.178,0.947 0,0.59 -0.285,0.742 -1.044,0.869 -0.644,0.11 -0.79,0.189 -0.79,0.474 0,0.359 0.286,0.462 0.663,0.462 0.388,0 1.062,-0.097 1.062,-0.097 z m -3.358,0.741 h 0.455 v 0.528 h -0.455 z m 0,-3.723 h 0.455 v 3.036 h -0.455 z m -2.041,0.467 c -0.292,-0.054 -0.741,-0.109 -1.081,-0.109 -0.96,0 -1.112,0.559 -1.112,1.731 0,1.197 0.164,1.756 1.099,1.756 0.328,0 0.82,-0.061 1.094,-0.11 l 0.018,0.395 c -0.267,0.055 -0.729,0.133 -1.16,0.133 -1.263,0 -1.536,-0.752 -1.536,-2.174 0,-1.385 0.279,-2.15 1.536,-2.15 0.401,0 0.862,0.067 1.16,0.128 z m -4.014,-0.467 h 0.467 v 4.203 h -0.467 z m -1.173,0 h 0.553 l -1.27,2.089 1.203,2.113 H -53.4 l -1.075,-1.931 -0.692,-0.024 v 1.955 h -0.467 v -4.202 h 0.467 v 1.835 l 0.698,0.024 z m -5.047,1.458 h 1.84 v 0.424 h -1.84 z M -61.119,0 c 0.006,0.736 0.297,1.021 0.814,1.021 0.535,0 0.766,-0.267 0.766,-1.021 z m 0.802,-1.354 c -0.596,0 -0.796,0.34 -0.796,0.99 h 2.004 l 0.024,0.346 c 0,0.996 -0.412,1.421 -1.22,1.421 -0.772,0 -1.269,-0.442 -1.269,-1.597 0,-1.033 0.297,-1.561 1.202,-1.561 0.492,0 1.184,0.097 1.184,0.097 L -59.2,-1.3 c 0,0 -0.661,-0.054 -1.117,-0.054 M -62,0.948 v 0.394 h -0.966 v 0.93 h -0.449 v -0.93 h -0.431 V 0.948 h 0.431 v -1.597 c 0,-0.875 0.213,-1.112 0.838,-1.112 0.212,0 0.619,0.067 0.619,0.067 l -0.03,0.376 c 0,0 -0.37,-0.036 -0.54,-0.036 -0.395,0 -0.438,0.188 -0.438,0.85 v 1.452 z m -2.927,-1.129 v -1.003 c 0,0 -0.504,-0.189 -0.954,-0.189 -0.31,0 -0.462,0.207 -0.462,0.56 0,0.334 0.146,0.511 0.517,0.547 z m 0.455,0.608 c 0,0.661 -0.291,0.976 -0.978,0.976 -0.522,0 -1.19,-0.133 -1.19,-0.133 l 0.018,-0.346 c 0,0 0.723,0.079 1.148,0.079 0.365,0 0.547,-0.152 0.547,-0.576 V 0.166 l -0.954,-0.091 c -0.626,-0.061 -0.929,-0.317 -0.929,-0.9 0,-0.614 0.303,-0.93 0.856,-0.93 0.547,0 1.094,0.243 1.094,0.243 0.182,-0.182 0.4,-0.243 0.722,-0.243 l 0.018,0.358 c -0.194,0.024 -0.34,0.091 -0.352,0.268 z m -6.766,-2.121 v 2.466 c 0,0 0.382,0.225 0.814,0.225 0.553,0 0.638,-0.286 0.638,-1.124 v -1.567 h 0.455 v 1.579 c 0,0.365 -0.024,0.747 -0.079,0.887 0,0 0.407,0.225 0.857,0.225 0.547,0 0.638,-0.298 0.638,-1.099 v -1.592 h 0.454 v 1.604 c 0,1.099 -0.199,1.493 -1.026,1.493 -0.54,0 -1.081,-0.309 -1.081,-0.309 -0.157,0.218 -0.382,0.309 -0.789,0.309 -0.432,0 -0.887,-0.273 -0.887,-0.273 v 0.212 h -0.449 v -3.036 z m -1.785,3.723 h 0.455 v 0.528 h -0.455 z m 0,-3.723 h 0.455 v 3.036 h -0.455 z m -1.367,0 h 0.455 v 4.36 h -0.455 z m -0.741,0.467 c -0.292,-0.054 -0.742,-0.109 -1.082,-0.109 -0.959,0 -1.111,0.559 -1.111,1.731 0,1.197 0.164,1.756 1.099,1.756 0.328,0 0.82,-0.061 1.094,-0.11 l 0.018,0.395 c -0.268,0.055 -0.729,0.133 -1.16,0.133 -1.264,0 -1.536,-0.752 -1.536,-2.174 0,-1.385 0.279,-2.15 1.536,-2.15 0.4,0 0.862,0.067 1.16,0.128 z"
         style="fill:#ffffff;fill-opacity:1;fill-rule:nonzero;stroke:none"
         id="path955" />
    </g>
    <path
       transform="translate(0,961.4)"
       d="M 193.94141 61.623047 L 193.94141 82.263672 L 224.83398 82.263672 L 224.83398 61.623047 L 193.94141 61.623047 z M 209.38477 63.667969 L 209.63867 64.496094 L 210.52734 64.505859 L 209.81836 65.005859 L 210.08594 65.847656 L 209.39258 65.330078 L 208.66992 65.84375 L 208.94922 65.025391 L 208.23633 64.498047 L 209.10156 64.511719 L 209.38477 63.667969 z M 205.91797 64.607422 L 206.17383 65.435547 L 207.06055 65.445312 L 206.35156 65.943359 L 206.62109 66.787109 L 205.92773 66.267578 L 205.20508 66.783203 L 205.48438 65.964844 L 204.76953 65.435547 L 205.63672 65.449219 L 205.91797 64.607422 z M 212.88672 64.642578 L 213.14062 65.470703 L 214.0293 65.480469 L 213.32031 65.978516 L 213.58789 66.822266 L 212.89453 66.302734 L 212.17188 66.818359 L 212.45117 65.998047 L 211.73828 65.470703 L 212.60352 65.484375 L 212.88672 64.642578 z M 203.31836 67.134766 L 203.57227 67.960938 L 204.46094 67.970703 L 203.75195 68.46875 L 204.01953 69.3125 L 203.32617 68.794922 L 202.60547 69.310547 L 202.88477 68.490234 L 202.17188 67.962891 L 203.03516 67.976562 L 203.31836 67.134766 z M 215.37891 67.169922 L 215.63281 67.998047 L 216.51953 68.007812 L 215.8125 68.505859 L 216.08008 69.349609 L 215.38672 68.830078 L 214.66406 69.345703 L 214.94531 68.527344 L 214.23047 67.998047 L 215.0957 68.013672 L 215.37891 67.169922 z M 202.38086 70.636719 L 202.63477 71.464844 L 203.52344 71.474609 L 202.81445 71.972656 L 203.08203 72.816406 L 202.38867 72.296875 L 201.66602 72.8125 L 201.94727 71.994141 L 201.23242 71.464844 L 202.09766 71.478516 L 202.38086 70.636719 z M 216.31641 70.671875 L 216.57031 71.5 L 217.45898 71.509766 L 216.75 72.007812 L 217.01758 72.851562 L 216.32422 72.332031 L 215.60156 72.847656 L 215.88281 72.029297 L 215.16797 71.5 L 216.0332 71.515625 L 216.31641 70.671875 z M 203.31836 74.208984 L 203.57227 75.037109 L 204.46094 75.046875 L 203.75195 75.544922 L 204.01953 76.388672 L 203.32617 75.869141 L 202.60547 76.384766 L 202.88477 75.566406 L 202.17188 75.039062 L 203.03516 75.052734 L 203.31836 74.208984 z M 215.44922 74.208984 L 215.70312 75.037109 L 216.5918 75.046875 L 215.88477 75.544922 L 216.15039 76.388672 L 215.45703 75.869141 L 214.73633 76.384766 L 215.01758 75.566406 L 214.30273 75.039062 L 215.16797 75.052734 L 215.44922 74.208984 z M 205.8457 76.808594 L 206.09961 77.636719 L 206.98828 77.646484 L 206.2793 78.144531 L 206.54688 78.988281 L 205.85352 78.46875 L 205.13086 78.986328 L 205.41211 78.166016 L 204.69727 77.638672 L 205.56445 77.650391 L 205.8457 76.808594 z M 212.84961 76.808594 L 213.10547 77.636719 L 213.99219 77.646484 L 213.28516 78.144531 L 213.55273 78.988281 L 212.85938 78.46875 L 212.13672 78.986328 L 212.41797 78.166016 L 211.70312 77.638672 L 212.56836 77.650391 L 212.84961 76.808594 z M 209.34961 77.748047 L 209.60352 78.576172 L 210.49219 78.585938 L 209.7832 79.083984 L 210.05078 79.927734 L 209.35742 79.408203 L 208.63477 79.923828 L 208.91602 79.105469 L 208.20117 78.576172 L 209.06641 78.589844 L 209.34961 77.748047 z "
       style="fill:#ffffff;fill-opacity:1;fill-rule:nonzero;stroke:none;stroke-width:1.17665"
       id="path957" />
    <g
       id="g959"
       transform="matrix(1.1766471,0,0,-1.1766471,193.94064,1023.0239)">
      <path
         d="M 0,0 H 26.256 V -17.542 H 0 Z"
         style="fill:none;stroke:#ffffff;stroke-width:0.281;stroke-linecap:butt;stroke-linejoin:miter;stroke-miterlimit:10;stroke-dasharray:none;stroke-opacity:1"
         id="path961" />
    </g>
    <path
       d="m 57.540177,990.50373 h 1.740261 v 1.74026 h -1.740261 z"
       style="fill:#ffffff;fill-opacity:1;fill-rule:nonzero;stroke:none;stroke-width:1.17665"
       id="path1011" />
    <path
       d="m 57.540177,993.94072 h 1.740261 v 13.70318 h -1.740261 z"
       style="fill:#ffffff;fill-opacity:1;fill-rule:nonzero;stroke:none;stroke-width:1.17665"
       id="path1013" />
    <g
       id="g1015"
       transform="matrix(1.1766471,0,0,-1.1766471,62.673888,990.50373)">
      <path
         d="M 0,0 H 1.479 V -2.921 H 7.284 V -4.363 H 1.479 v -7.283 c 0,-0.814 0.629,-1.479 1.442,-1.479 h 4.363 v -1.442 H 2.921 c -1.516,0 -2.921,1.22 -2.921,2.921 v 7.283 h -2.181 v 1.442 H 0 Z"
         style="fill:#ffffff;fill-opacity:1;fill-rule:evenodd;stroke:none"
         id="path1017" />
    </g>
    <g
       id="g1019"
       transform="matrix(1.1766471,0,0,-1.1766471,42.443794,1000.8147)">
      <path
         d="m 0,0 h 11.387 c 0,1.294 -0.073,2.255 -0.221,2.884 C 11.018,3.512 10.759,4.067 10.389,4.548 9.909,5.102 9.317,5.509 8.541,5.694 7.801,5.879 6.544,5.99 4.843,5.99 3.106,5.99 1.885,5.879 1.109,5.694 0.333,5.509 -0.259,5.102 -0.702,4.548 -1.109,4.067 -1.368,3.512 -1.479,2.884 -1.627,2.255 -1.701,1.294 -1.738,0 c 0.037,-1.257 0.111,-2.218 0.259,-2.847 0.111,-0.628 0.37,-1.183 0.777,-1.664 0.443,-0.554 1.035,-0.961 1.811,-1.146 0.776,-0.222 1.997,-0.296 3.734,-0.296 1.701,0 2.958,0.074 3.698,0.296 0.776,0.185 1.368,0.592 1.848,1.146 0.296,0.37 0.518,0.814 0.666,1.257 H 9.317 C 9.206,-3.401 9.095,-3.549 8.947,-3.697 8.614,-3.956 8.134,-4.178 7.542,-4.289 6.914,-4.4 6.026,-4.437 4.88,-4.437 3.697,-4.437 2.81,-4.4 2.218,-4.289 1.59,-4.178 1.146,-3.956 0.813,-3.697 0.37,-3.327 0.111,-2.699 0.037,-1.849 0,-1.257 0,-0.591 0,0 M 9.724,1.479 H 0 C 0.037,2.551 0.296,3.291 0.813,3.697 1.146,3.993 1.59,4.178 2.218,4.289 2.81,4.437 3.697,4.474 4.88,4.474 6.026,4.474 6.914,4.437 7.542,4.289 8.134,4.178 8.614,3.993 8.947,3.697 9.465,3.291 9.724,2.551 9.724,1.479"
         style="fill:#ffffff;fill-opacity:1;fill-rule:nonzero;stroke:none"
         id="path1021" />
    </g>
    <g
       id="g1023"
       transform="matrix(1.1766471,0,0,-1.1766471,55.843452,1031.6146)">
      <path
         d="M 0,0 C 14.456,0 26.214,11.72 26.214,26.177 26.214,40.67 14.456,52.39 0,52.39 c -4.77,0 -9.243,-1.257 -13.088,-3.512 l 1.442,-2.514 C -8.208,48.36 -4.252,49.469 0,49.469 12.866,49.469 23.293,39.043 23.293,26.177 23.293,13.347 12.866,2.884 0,2.884 c -12.866,0 -23.293,10.463 -23.293,23.293 h -2.921 C -26.214,11.72 -14.456,0 0,0"
         style="fill:#ffffff;fill-opacity:1;fill-rule:evenodd;stroke:none"
         id="path1025" />
    </g>
    <g
       id="g1027"
       transform="matrix(1.1766471,0,0,-1.1766471,55.843452,1024.7853)">
      <path
         d="m 0,0 c 7.542,0 14.123,4.104 17.636,10.204 l -2.514,1.442 C 12.09,6.433 6.47,2.921 0,2.921 c -9.65,0 -17.451,7.838 -17.451,17.451 0,9.65 7.801,17.488 17.451,17.488 6.47,0 12.09,-3.512 15.122,-8.726 l 2.514,1.442 C 14.123,36.677 7.542,40.781 0,40.781 -11.24,40.781 -20.372,31.649 -20.372,20.372 -20.372,9.132 -11.24,0 0,0"
         style="fill:#ffffff;fill-opacity:1;fill-rule:evenodd;stroke:none"
         id="path1029" />
    </g>
    <g
       id="g1031"
       transform="matrix(1.1766471,0,0,-1.1766471,109.17263,1002.9668)">
      <path
         d="M 0,0 H 1.509 C 1.469,-1.057 1.407,-1.785 1.321,-2.183 1.134,-3.047 0.557,-3.578 -0.409,-3.776 c -0.784,-0.16 -2.18,-0.239 -4.186,-0.239 -2.603,0 -4.362,0.09 -5.277,0.272 -0.87,0.176 -1.455,0.632 -1.756,1.369 -0.301,0.736 -0.452,2.078 -0.452,4.028 0,1.858 0.114,3.208 0.341,4.049 0.273,0.995 0.975,1.574 2.106,1.739 1.091,0.165 2.69,0.248 4.799,0.248 2.012,0 3.453,-0.1 4.323,-0.299 C -0.08,7.294 0.294,7.105 0.61,6.824 0.925,6.543 1.125,6.218 1.21,5.848 1.296,5.501 1.344,4.822 1.355,3.811 h -1.44 c -0.006,0.198 -0.009,0.332 -0.009,0.4 0,0.557 -0.054,0.954 -0.162,1.189 -0.108,0.236 -0.318,0.417 -0.631,0.542 -0.574,0.233 -1.915,0.349 -4.023,0.349 -1.53,0 -2.677,-0.041 -3.445,-0.123 -0.767,-0.083 -1.267,-0.215 -1.5,-0.397 -0.222,-0.182 -0.385,-0.557 -0.49,-1.125 -0.105,-0.568 -0.158,-1.358 -0.158,-2.37 0,-0.477 0.02,-1.094 0.06,-1.85 0.039,-0.756 0.079,-1.276 0.119,-1.56 0.063,-0.449 0.206,-0.774 0.431,-0.976 0.224,-0.202 0.578,-0.326 1.061,-0.371 0.881,-0.091 2.14,-0.136 3.777,-0.136 0.5,0 1.155,0.015 1.965,0.047 0.809,0.031 1.325,0.061 1.547,0.089 0.432,0.057 0.753,0.144 0.963,0.26 0.211,0.116 0.355,0.291 0.435,0.524 C -0.071,-1.492 -0.023,-0.927 0,0"
         style="fill:#ffffff;fill-opacity:1;fill-rule:nonzero;stroke:none"
         id="path1033" />
    </g>
    <path
       d="m 112.83553,993.95954 h 1.50493 v 13.69266 h -1.50493 z"
       style="fill:#ffffff;fill-opacity:1;fill-rule:nonzero;stroke:none;stroke-width:1.17665"
       id="path1035" />
    <path
       d="m 116.33135,998.13193 h 1.50493 v 9.51907 h -1.50493 z m 0,-4.17239 h 1.50493 v 1.78615 h -1.50493 z"
       style="fill:#ffffff;fill-opacity:1;fill-rule:nonzero;stroke:none;stroke-width:1.17665"
       id="path1037" />
    <g
       id="g1039"
       transform="matrix(1.1766471,0,0,-1.1766471,120.06485,998.13193)">
      <path
         d="m 0,0 h 1.287 v -1.066 c 0.404,0.489 0.81,0.806 1.22,0.951 0.408,0.145 1.108,0.217 2.096,0.217 1.325,0 2.275,-0.096 2.852,-0.289 0.577,-0.194 1.024,-0.566 1.343,-1.117 0.261,0.528 0.665,0.895 1.21,1.099 0.546,0.205 1.398,0.307 2.558,0.307 1.103,0 1.928,-0.071 2.476,-0.213 0.549,-0.142 0.994,-0.398 1.335,-0.767 0.261,-0.296 0.431,-0.627 0.511,-0.993 0.08,-0.367 0.119,-1.022 0.119,-1.965 V -8.09 h -1.278 v 4.552 c 0,0.994 -0.148,1.637 -0.444,1.927 -0.397,0.392 -1.307,0.588 -2.728,0.588 -0.812,0 -1.432,-0.054 -1.858,-0.162 C 10.273,-1.293 9.949,-1.475 9.727,-1.731 9.505,-1.992 9.355,-2.34 9.275,-2.775 9.196,-3.21 9.156,-3.919 9.156,-4.902 V -8.09 H 7.877 v 4.552 c 0,0.574 -0.031,0.998 -0.093,1.27 -0.063,0.273 -0.18,0.489 -0.35,0.648 -0.415,0.398 -1.33,0.597 -2.745,0.597 C 3.87,-1.023 3.241,-1.078 2.8,-1.189 2.36,-1.3 2.02,-1.489 1.782,-1.756 1.577,-1.989 1.442,-2.308 1.377,-2.711 1.311,-3.115 1.279,-3.845 1.279,-4.902 V -8.09 H 0 Z"
         style="fill:#ffffff;fill-opacity:1;fill-rule:nonzero;stroke:none"
         id="path1041" />
    </g>
    <g
       id="g1043"
       transform="matrix(1.1766471,0,0,-1.1766471,147.14774,1003.308)">
      <path
         d="m 0,0 c -1.052,0 -1.787,-0.019 -2.208,-0.056 -0.421,-0.037 -0.719,-0.106 -0.895,-0.208 -0.336,-0.199 -0.503,-0.566 -0.503,-1.1 0,-0.529 0.199,-0.887 0.597,-1.074 0.324,-0.154 1.415,-0.23 3.273,-0.23 1.359,0 2.256,0.088 2.694,0.264 0.438,0.176 0.657,0.534 0.657,1.074 0,0.523 -0.244,0.875 -0.734,1.057 C 2.392,-0.091 1.432,0 0,0 m -3.274,1.969 h -1.329 c -0.012,0.148 -0.018,0.265 -0.018,0.35 0,0.846 0.319,1.423 0.955,1.73 0.637,0.307 1.83,0.461 3.581,0.461 C 1.29,4.51 2.279,4.447 2.881,4.322 3.484,4.197 3.956,3.958 4.297,3.606 4.581,3.322 4.765,2.986 4.851,2.6 4.936,2.213 4.979,1.537 4.979,0.571 v -4.262 h -1.27 l 0.025,0.946 H 3.666 C 3.348,-3.189 2.965,-3.474 2.519,-3.602 2.073,-3.73 1.231,-3.794 -0.008,-3.794 c -1.416,0 -2.399,0.034 -2.95,0.103 -0.551,0.068 -0.969,0.21 -1.254,0.426 -0.284,0.204 -0.481,0.448 -0.592,0.733 -0.111,0.284 -0.166,0.682 -0.166,1.194 0,0.625 0.084,1.105 0.251,1.44 0.168,0.336 0.451,0.586 0.849,0.751 0.431,0.187 1.44,0.281 3.026,0.281 1.659,0 2.745,-0.05 3.257,-0.149 0.511,-0.1 0.906,-0.34 1.185,-0.721 h 0.111 v 0.87 c 0,0.71 -0.128,1.222 -0.384,1.534 C 3.098,2.947 2.752,3.136 2.289,3.235 1.826,3.334 1.069,3.384 0.017,3.384 -1.364,3.384 -2.258,3.303 -2.664,3.141 -3.07,2.979 -3.274,2.626 -3.274,2.08 Z"
         style="fill:#ffffff;fill-opacity:1;fill-rule:nonzero;stroke:none"
         id="path1045" />
    </g>
    <g
       id="g1047"
       transform="matrix(1.1766471,0,0,-1.1766471,155.81963,995.77511)">
      <path
         d="m 0,0 h 1.279 v -2.004 h 5.66 V -3.095 H 1.279 V -6.607 C 1.29,-7.374 1.31,-7.843 1.338,-8.014 1.367,-8.184 1.449,-8.355 1.586,-8.525 1.745,-8.724 1.983,-8.865 2.302,-8.947 2.62,-9.03 3.086,-9.071 3.7,-9.071 c 0.574,0 0.992,0.04 1.253,0.12 0.261,0.079 0.466,0.224 0.614,0.434 0.097,0.148 0.16,0.324 0.192,0.529 0.031,0.204 0.047,0.551 0.047,1.04 v 0.512 h 1.27 v -0.512 c 0,-0.62 -0.03,-1.09 -0.089,-1.411 C 6.926,-8.68 6.815,-8.963 6.65,-9.207 6.411,-9.56 6.056,-9.812 5.584,-9.966 c -0.472,-0.153 -1.134,-0.23 -1.987,-0.23 -0.874,0 -1.558,0.071 -2.049,0.213 C 1.056,-9.841 0.691,-9.608 0.452,-9.284 0.276,-9.045 0.157,-8.77 0.094,-8.457 0.031,-8.145 0,-7.67 0,-7.033 v 3.938 h -1.986 v 1.091 H 0 Z"
         style="fill:#ffffff;fill-opacity:1;fill-rule:nonzero;stroke:none"
         id="path1049" />
    </g>
    <g
       id="g1051"
       transform="matrix(1.1766471,0,0,-1.1766471,175.73202,1001.9443)">
      <path
         d="M 0,0 C -0.006,0.79 -0.216,1.341 -0.631,1.654 -0.904,1.864 -1.286,2.011 -1.778,2.093 -2.269,2.175 -2.989,2.216 -3.939,2.216 -4.769,2.216 -5.4,2.178 -5.836,2.101 -6.27,2.025 -6.61,1.89 -6.854,1.696 -7.258,1.384 -7.491,0.818 -7.553,0 Z M 0.059,-2.353 H 1.398 C 1.375,-3.319 1.035,-3.994 0.375,-4.378 c -0.659,-0.383 -1.807,-0.575 -3.444,-0.575 -1.353,0 -2.38,0.053 -3.082,0.158 -0.702,0.105 -1.232,0.282 -1.59,0.532 -0.818,0.58 -1.227,1.725 -1.227,3.436 0,1.199 0.173,2.1 0.52,2.703 0.329,0.573 0.805,0.961 1.428,1.163 0.621,0.202 1.661,0.303 3.115,0.303 1.393,0 2.399,-0.074 3.018,-0.222 C -0.267,2.972 0.227,2.688 0.597,2.267 0.904,1.915 1.114,1.506 1.228,1.04 1.341,0.574 1.403,-0.136 1.415,-1.091 h -9.011 c 0.034,-1.006 0.233,-1.697 0.597,-2.072 0.244,-0.256 0.635,-0.43 1.172,-0.524 0.537,-0.094 1.411,-0.141 2.621,-0.141 0.916,0 1.586,0.043 2.012,0.128 0.427,0.085 0.745,0.242 0.955,0.469 0.159,0.176 0.259,0.469 0.298,0.878"
         style="fill:#ffffff;fill-opacity:1;fill-rule:nonzero;stroke:none"
         id="path1053" />
    </g>
    <path
       d="m 178.46185,1001.9043 h 8.05532 v 1.7755 h -8.05532 z"
       style="fill:#ffffff;fill-opacity:1;fill-rule:nonzero;stroke:none;stroke-width:1.17665"
       id="path1055" />
    <g
       id="g1057"
       transform="matrix(1.1766471,0,0,-1.1766471,187.53968,993.95954)">
      <path
         d="M 0,0 H 1.551 V -5.004 H 3.572 L 11.116,0 h 2.72 l -8.653,-5.678 9.105,-5.959 H 11.543 L 3.572,-6.368 H 1.551 v -5.269 H 0 Z"
         style="fill:#ffffff;fill-opacity:1;fill-rule:nonzero;stroke:none"
         id="path1059" />
    </g>
    <path
       d="m 205.24469,993.95954 h 1.82615 v 13.69266 h -1.82615 z"
       style="fill:#ffffff;fill-opacity:1;fill-rule:nonzero;stroke:none;stroke-width:1.17665"
       id="path1061" />
    <g
       id="g1063"
       transform="matrix(1.1766471,0,0,-1.1766471,223.05912,1002.9668)">
      <path
         d="M 0,0 H 1.509 C 1.469,-1.057 1.407,-1.785 1.321,-2.183 1.134,-3.047 0.557,-3.578 -0.409,-3.776 c -0.785,-0.16 -2.18,-0.239 -4.186,-0.239 -2.603,0 -4.362,0.09 -5.277,0.272 -0.87,0.176 -1.455,0.632 -1.756,1.369 -0.301,0.736 -0.452,2.078 -0.452,4.028 0,1.858 0.114,3.208 0.341,4.049 0.273,0.995 0.975,1.574 2.106,1.739 1.091,0.165 2.69,0.248 4.8,0.248 2.011,0 3.452,-0.1 4.322,-0.299 C -0.08,7.294 0.294,7.105 0.61,6.824 0.925,6.543 1.125,6.218 1.21,5.848 1.296,5.501 1.344,4.822 1.355,3.811 h -1.44 c -0.006,0.198 -0.009,0.332 -0.009,0.4 0,0.557 -0.054,0.954 -0.162,1.189 -0.108,0.236 -0.318,0.417 -0.63,0.542 -0.575,0.233 -1.916,0.349 -4.024,0.349 -1.53,0 -2.677,-0.041 -3.444,-0.123 -0.768,-0.083 -1.268,-0.215 -1.501,-0.397 -0.222,-0.182 -0.385,-0.557 -0.491,-1.125 -0.104,-0.568 -0.157,-1.358 -0.157,-2.37 0,-0.477 0.02,-1.094 0.06,-1.85 0.039,-0.756 0.08,-1.276 0.119,-1.56 0.063,-0.449 0.206,-0.774 0.431,-0.976 0.224,-0.202 0.578,-0.326 1.061,-0.371 0.881,-0.091 2.14,-0.136 3.777,-0.136 0.5,0 1.155,0.015 1.965,0.047 0.809,0.031 1.325,0.061 1.547,0.089 0.432,0.057 0.753,0.144 0.963,0.26 0.211,0.116 0.355,0.291 0.435,0.524 C -0.071,-1.492 -0.022,-0.927 0,0"
         style="fill:#ffffff;fill-opacity:1;fill-rule:nonzero;stroke:none"
         id="path1065" />
    </g>
  </g>
</svg>
