<?xml version="1.0" encoding="UTF-8"?>
<svg version="1.1" viewBox="0 0 250 91" xmlns="http://www.w3.org/2000/svg" xmlns:cc="http://creativecommons.org/ns#" xmlns:dc="http://purl.org/dc/elements/1.1/" xmlns:rdf="http://www.w3.org/1999/02/22-rdf-syntax-ns#">
<defs>
<style>.cls-1{fill:#fff;fill-rule:evenodd}</style>
</defs>
<metadata>
<rdf:RDF>
<cc:Work rdf:about="">
<dc:format>image/svg+xml</dc:format>
<dc:type rdf:resource="http://purl.org/dc/dcmitype/StillImage"/>
<dc:title/>
</cc:Work>
</rdf:RDF>
</metadata>
<g transform="translate(0,-961.4)">
<g transform="matrix(1.1766 0 0 -1.1766 186.44 1040.6)">
<path d="m0 0v2.466s0.419 0.225 0.857 0.225c0.565 0 0.656-0.298 0.656-1.1v-1.591h0.449v1.604c0 1.081-0.188 1.493-1.026 1.493-0.45 0-0.942-0.273-0.942-0.273v0.212h-0.449v-3.036zm-2.496 0.334c-0.717 0-0.832 0.358-0.832 1.221 0 0.844 0.188 1.148 0.832 1.148 0.65 0 0.832-0.304 0.832-1.148 0-0.863-0.109-1.221-0.832-1.221m0 2.763c-0.96 0-1.299-0.497-1.299-1.542 0-1.106 0.279-1.615 1.299-1.615 1.027 0 1.3 0.509 1.3 1.615 0 1.045-0.334 1.542-1.3 1.542m-2.496 0.626h0.454v0.527h-0.454zm0-3.723h0.454v3.036h-0.454zm-2.807 0v2.466s0.42 0.225 0.857 0.225c0.566 0 0.657-0.298 0.657-1.1v-1.591h0.448v1.604c0 1.081-0.188 1.493-1.026 1.493-0.449 0-0.942-0.273-0.942-0.273v0.212h-0.449v-3.036zm-3.85 1.263v2.939h-0.467v-2.927c0-0.966 0.527-1.335 1.451-1.335 0.96 0 1.488 0.376 1.488 1.335v2.927h-0.461v-2.939c0-0.656-0.371-0.911-1.027-0.911-0.62 0-0.984 0.255-0.984 0.911m-4.659-1.263v2.466s0.42 0.225 0.857 0.225c0.565 0 0.656-0.298 0.656-1.1v-1.591h0.449v1.604c0 1.081-0.188 1.493-1.026 1.493-0.449 0-0.942-0.273-0.942-0.273v0.212h-0.449v-3.036zm-1.809 1.513v-1.003s-0.505-0.189-0.954-0.189c-0.31 0-0.462 0.207-0.462 0.56 0 0.334 0.146 0.511 0.517 0.547zm0.455 0.608c0 0.661-0.291 0.976-0.978 0.976-0.522 0-1.19-0.133-1.19-0.133l0.018-0.346s0.723 0.079 1.148 0.079c0.365 0 0.547-0.152 0.547-0.576v-0.261l-0.954-0.091c-0.626-0.061-0.929-0.316-0.929-0.9 0-0.614 0.303-0.929 0.856-0.929 0.547 0 1.094 0.242 1.094 0.242 0.182-0.182 0.4-0.242 0.722-0.242l0.018 0.357c-0.194 0.024-0.34 0.091-0.352 0.268zm-4.89-0.427c7e-3 0.735 0.298 1.021 0.815 1.021 0.534 0 0.765-0.267 0.765-1.021zm0.803-1.354c-0.596 0-0.796 0.34-0.796 0.991h2.004l0.024 0.345c0 0.996-0.412 1.421-1.22 1.421-0.772 0-1.269-0.443-1.269-1.597 0-1.033 0.297-1.56 1.202-1.56 0.492 0 1.184 0.096 1.184 0.096l-0.012 0.358s-0.662-0.054-1.117-0.054m-3.031 2.351c0.443 0 0.705-0.304 0.705-1.136 0-0.875-0.219-1.221-0.887-1.221-0.262 0-0.578 0.054-0.657 0.067v2.047s0.425 0.243 0.839 0.243m-1.294-4.04h0.455v1.355c0.085-0.018 0.395-0.066 0.681-0.066 0.935 0 1.323 0.424 1.323 1.615 0 1.075-0.333 1.542-1.098 1.542-0.45 0-0.912-0.279-0.912-0.279v0.218h-0.449zm-2.041 1.683c-0.716 0-0.832 0.358-0.832 1.221 0 0.844 0.188 1.148 0.832 1.148 0.651 0 0.833-0.304 0.833-1.148 0-0.863-0.11-1.221-0.833-1.221m0 2.763c-0.96 0-1.299-0.497-1.299-1.542 0-1.106 0.279-1.615 1.299-1.615 1.027 0 1.3 0.509 1.3 1.615 0 1.045-0.334 1.542-1.3 1.542m-3.206-3.097h0.454v2.229s0.535 0.298 1.106 0.413v0.461c-0.583-0.115-1.112-0.479-1.112-0.479v0.412h-0.448zm-1.33 3.036v-2.465s-0.383-0.226-0.833-0.226c-0.565 0-0.638 0.274-0.638 1.112v1.579h-0.455v-1.585c0-1.117 0.176-1.511 1.026-1.511 0.443 0 0.9 0.273 0.9 0.273v-0.213h0.455v3.036zm-5.127-3.036h2.557v0.413h-2.09v1.519h1.725v0.406h-1.725v1.452h2.09v0.412h-2.557zm-4.161 1.694c6e-3 0.735 0.298 1.021 0.814 1.021 0.535 0 0.766-0.267 0.766-1.021zm0.802-1.354c-0.595 0-0.796 0.34-0.796 0.991h2.005l0.024 0.345c0 0.996-0.413 1.421-1.221 1.421-0.771 0-1.269-0.443-1.269-1.597 0-1.033 0.298-1.56 1.202-1.56 0.493 0 1.185 0.096 1.185 0.096l-0.012 0.358s-0.662-0.054-1.118-0.054m-3.93-0.34v2.508s0.425 0.183 0.857 0.183c0.559 0 0.65-0.298 0.65-1.1v-1.591h0.455v1.604c0 1.081-0.194 1.493-1.026 1.493-0.45 0-0.936-0.23-0.936-0.23v1.494h-0.454v-4.361zm-1.014 2.643v0.393h-0.966v0.93h-0.449v-0.93h-0.431v-0.393h0.431v-1.599c0-0.874 0.213-1.11 0.838-1.11 0.212 0 0.62 0.066 0.62 0.066l-0.031 0.376s-0.371-0.036-0.54-0.036c-0.396 0-0.438 0.188-0.438 0.85v1.453zm-4.337 0h0.881v0.393h-0.881v0.268c0 0.565 0.11 0.711 0.45 0.711 0.182 0 0.522-0.012 0.522-0.012l6e-3 0.375c0 1e-3 -0.407 0.043-0.613 0.043-0.595 0-0.82-0.236-0.82-1.111v-0.274h-0.382v-0.393h0.382v-2.643h0.455zm-2.623-2.309c-0.717 0-0.833 0.358-0.833 1.221 0 0.844 0.189 1.148 0.833 1.148 0.65 0 0.832-0.304 0.832-1.148 0-0.863-0.109-1.221-0.832-1.221m0 2.763c-0.96 0-1.299-0.497-1.299-1.542 0-1.106 0.278-1.615 1.299-1.615 1.026 0 1.299 0.509 1.299 1.615 0 1.045-0.333 1.542-1.299 1.542m-5.721-0.061 0.862-3.036h0.449l-0.394-1.349h0.455l1.263 4.385h-0.455l-0.766-2.642h-0.2l-0.759 2.642zm-1.914-2.691c-0.358 0-0.68 0.165-0.68 1.149 0 0.79 0.188 1.209 0.826 1.209 0.249 0 0.626-0.055 0.723-0.073v-2.059s-0.437-0.226-0.869-0.226m1.318 4.016h-0.449v-1.343c-0.091 0.018-0.486 0.079-0.747 0.079-0.924 0-1.269-0.534-1.269-1.603 0-1.312 0.497-1.554 1.092-1.554 0.456 0 0.924 0.266 0.924 0.266v-0.206h0.449zm-4.373-4.027c-0.717 0-0.832 0.358-0.832 1.221 0 0.844 0.188 1.148 0.832 1.148 0.65 0 0.833-0.304 0.833-1.148 0-0.863-0.11-1.221-0.833-1.221m0 2.763c-0.96 0-1.299-0.497-1.299-1.542 0-1.106 0.279-1.615 1.299-1.615 1.027 0 1.3 0.509 1.3 1.615 0 1.045-0.334 1.542-1.3 1.542m-3.353-2.752c-0.164 0-0.559 0.031-0.559 0.031v2.139s0.426 0.176 0.845 0.176c0.535 0 0.693-0.34 0.693-1.124 0-0.851-0.146-1.222-0.979-1.222m0.335 2.752c-0.432 0-0.894-0.212-0.894-0.212v1.476h-0.449v-4.355s0.65-0.066 1.015-0.066c1.105 0 1.433 0.418 1.433 1.627 0 1.094-0.279 1.53-1.105 1.53m-4.033-1.584v-1.003s-0.504-0.189-0.954-0.189c-0.31 0-0.462 0.207-0.462 0.56 0 0.334 0.146 0.511 0.516 0.547zm0.455 0.608c0 0.661-0.291 0.976-0.978 0.976-0.522 0-1.19-0.133-1.19-0.133l0.018-0.346s0.723 0.079 1.148 0.079c0.365 0 0.547-0.152 0.547-0.576v-0.261l-0.954-0.091c-0.626-0.061-0.929-0.316-0.929-0.9 0-0.614 0.303-0.929 0.856-0.929 0.547 0 1.094 0.242 1.094 0.242 0.181-0.182 0.4-0.242 0.722-0.242l0.018 0.357c-0.194 0.024-0.34 0.091-0.352 0.268zm-5.065-2.868h0.376l0.407 1.396h-0.504zm-2.94 4.531h1.294v-3.784h0.461v3.784h1.281v0.418h-3.036zm-1.056-3.784h0.467v4.203h-0.467zm-3.359 0h2.556v0.413h-2.089v1.519h1.725v0.406h-1.725v1.452h2.089v0.412h-2.556z" fill="#fff"/>
</g>
<g transform="matrix(1.1766 0 0 -1.1766 186.51 1028.8)">
<path d="m0 0c6e-3 0.736 0.298 1.021 0.814 1.021 0.535 0 0.766-0.267 0.766-1.021zm0.802-1.354c-0.596 0-0.796 0.34-0.796 0.99h2.005l0.024 0.346c0 0.996-0.413 1.421-1.221 1.421-0.772 0-1.269-0.442-1.269-1.597 0-1.033 0.297-1.561 1.202-1.561 0.493 0 1.185 0.097 1.185 0.097l-0.013 0.358s-0.661-0.054-1.117-0.054m-3.93-0.34v2.508s0.425 0.183 0.857 0.183c0.559 0 0.65-0.298 0.65-1.099v-1.592h0.455v1.604c0 1.081-0.194 1.493-1.026 1.493-0.45 0-0.936-0.23-0.936-0.23v1.493h-0.455v-4.36zm-1.015 2.642v0.394h-0.965v0.93h-0.449v-0.93h-0.431v-0.394h0.431v-1.597c0-0.875 0.212-1.112 0.838-1.112 0.212 0 0.619 0.067 0.619 0.067l-0.03 0.376s-0.371-0.036-0.541-0.036c-0.395 0-0.437 0.188-0.437 0.85v1.452zm-6.127 0.394 0.862-3.036h0.45l-0.395-1.348h0.456l1.262 4.384h-0.455l-0.765-2.642h-0.2l-0.759 2.642zm-1.847-2.691c-0.164 0-0.559 0.031-0.559 0.031v2.139s0.426 0.176 0.845 0.176c0.534 0 0.693-0.34 0.693-1.124 0-0.851-0.146-1.222-0.979-1.222m0.334 2.752c-0.431 0-0.893-0.212-0.893-0.212v1.475h-0.448v-4.354s0.649-0.067 1.013-0.067c1.106 0 1.433 0.419 1.433 1.628 0 1.093-0.279 1.53-1.105 1.53m-4.877-2.752c-0.358 0-0.68 0.165-0.68 1.149 0 0.79 0.188 1.209 0.826 1.209 0.249 0 0.626-0.055 0.723-0.073v-2.06s-0.437-0.225-0.869-0.225m1.318 4.015h-0.449v-1.342c-0.091 0.018-0.486 0.079-0.747 0.079-0.923 0-1.269-0.534-1.269-1.603 0-1.312 0.497-1.555 1.093-1.555 0.455 0 0.923 0.267 0.923 0.267v-0.206h0.449zm-5.078-2.666c6e-3 0.736 0.298 1.021 0.815 1.021 0.534 0 0.765-0.267 0.765-1.021zm0.802-1.354c-0.595 0-0.796 0.34-0.796 0.99h2.005l0.024 0.346c0 0.996-0.412 1.421-1.22 1.421-0.772 0-1.27-0.442-1.27-1.597 0-1.033 0.297-1.561 1.203-1.561 0.492 0 1.184 0.097 1.184 0.097l-0.012 0.358s-0.662-0.054-1.118-0.054m-1.683 2.302v0.394h-0.965v0.93h-0.449v-0.93h-0.431v-0.394h0.431v-1.597c0-0.875 0.212-1.112 0.838-1.112 0.212 0 0.619 0.067 0.619 0.067l-0.03 0.376s-0.371-0.036-0.541-0.036c-0.395 0-0.437 0.188-0.437 0.85v1.452zm-3.673-2.642h0.455v2.229s0.534 0.298 1.105 0.413v0.461c-0.583-0.116-1.112-0.479-1.112-0.479v0.412h-0.448zm-2.041 0.333c-0.717 0-0.833 0.359-0.833 1.222 0 0.844 0.188 1.148 0.833 1.148 0.65 0 0.832-0.304 0.832-1.148 0-0.863-0.109-1.222-0.832-1.222m0 2.764c-0.96 0-1.3-0.497-1.3-1.542 0-1.106 0.279-1.616 1.3-1.616 1.026 0 1.299 0.51 1.299 1.616 0 1.045-0.333 1.542-1.299 1.542m-3.074-0.406c0.444 0 0.705-0.304 0.705-1.136 0-0.875-0.218-1.222-0.887-1.222-0.261 0-0.577 0.055-0.656 0.067v2.048s0.425 0.243 0.838 0.243m-1.293-4.039h0.455v1.354c0.085-0.018 0.395-0.067 0.681-0.067 0.935 0 1.323 0.425 1.323 1.616 0 1.075-0.334 1.542-1.099 1.542-0.449 0-0.912-0.279-0.912-0.279v0.218h-0.448zm-1.908 4.039c0.444 0 0.705-0.304 0.705-1.136 0-0.875-0.218-1.222-0.887-1.222-0.261 0-0.577 0.055-0.656 0.067v2.048s0.425 0.243 0.838 0.243m-1.293-4.039h0.455v1.354c0.085-0.018 0.395-0.067 0.681-0.067 0.935 0 1.323 0.425 1.323 1.616 0 1.075-0.333 1.542-1.099 1.542-0.449 0-0.911-0.279-0.911-0.279v0.218h-0.449zm-1.33 4.384v-2.466s-0.383-0.225-0.832-0.225c-0.566 0-0.639 0.274-0.639 1.112v1.579h-0.455v-1.585c0-1.118 0.176-1.512 1.026-1.512 0.444 0 0.9 0.273 0.9 0.273v-0.212h0.455v3.036zm-2.691-0.054s-0.643 0.115-1.099 0.115c-0.554 0-1.094-0.218-1.094-0.886 0-0.608 0.328-0.735 1.015-0.845 0.662-0.103 0.82-0.182 0.82-0.498 0-0.413-0.268-0.523-0.766-0.523-0.31 0-1.001 0.104-1.001 0.104l-0.025-0.394s0.68-0.116 1.069-0.116c0.729 0 1.178 0.237 1.178 0.947 0 0.59-0.285 0.742-1.045 0.869-0.644 0.11-0.79 0.189-0.79 0.474 0 0.359 0.286 0.462 0.663 0.462 0.389 0 1.063-0.097 1.063-0.097zm-4.161 0s-0.643 0.115-1.099 0.115c-0.553 0-1.093-0.218-1.093-0.886 0-0.608 0.328-0.735 1.014-0.845 0.663-0.103 0.82-0.182 0.82-0.498 0-0.413-0.267-0.523-0.765-0.523-0.31 0-1.002 0.104-1.002 0.104l-0.024-0.394s0.679-0.116 1.068-0.116c0.73 0 1.178 0.237 1.178 0.947 0 0.59-0.285 0.742-1.044 0.869-0.644 0.11-0.79 0.189-0.79 0.474 0 0.359 0.286 0.462 0.663 0.462 0.388 0 1.062-0.097 1.062-0.097zm-3.358 0.741h0.455v0.528h-0.455zm0-3.723h0.455v3.036h-0.455zm-2.041 0.467c-0.292-0.054-0.741-0.109-1.081-0.109-0.96 0-1.112 0.559-1.112 1.731 0 1.197 0.164 1.756 1.099 1.756 0.328 0 0.82-0.061 1.094-0.11l0.018 0.395c-0.267 0.055-0.729 0.133-1.16 0.133-1.263 0-1.536-0.752-1.536-2.174 0-1.385 0.279-2.15 1.536-2.15 0.401 0 0.862 0.067 1.16 0.128zm-4.014-0.467h0.467v4.203h-0.467zm-1.173 0h0.553l-1.27 2.089 1.203 2.113h-0.535l-1.075-1.931-0.692-0.024v1.955h-0.467v-4.202h0.467v1.835l0.698 0.024zm-5.047 1.458h1.84v0.424h-1.84zm-2.721 0.236c6e-3 0.736 0.297 1.021 0.814 1.021 0.535 0 0.766-0.267 0.766-1.021zm0.802-1.354c-0.596 0-0.796 0.34-0.796 0.99h2.004l0.024 0.346c0 0.996-0.412 1.421-1.22 1.421-0.772 0-1.269-0.442-1.269-1.597 0-1.033 0.297-1.561 1.202-1.561 0.492 0 1.184 0.097 1.184 0.097l-0.012 0.358s-0.661-0.054-1.117-0.054m-1.683 2.302v0.394h-0.966v0.93h-0.449v-0.93h-0.431v-0.394h0.431v-1.597c0-0.875 0.213-1.112 0.838-1.112 0.212 0 0.619 0.067 0.619 0.067l-0.03 0.376s-0.37-0.036-0.54-0.036c-0.395 0-0.438 0.188-0.438 0.85v1.452zm-2.927-1.129v-1.003s-0.504-0.189-0.954-0.189c-0.31 0-0.462 0.207-0.462 0.56 0 0.334 0.146 0.511 0.517 0.547zm0.455 0.608c0 0.661-0.291 0.976-0.978 0.976-0.522 0-1.19-0.133-1.19-0.133l0.018-0.346s0.723 0.079 1.148 0.079c0.365 0 0.547-0.152 0.547-0.576v-0.261l-0.954-0.091c-0.626-0.061-0.929-0.317-0.929-0.9 0-0.614 0.303-0.93 0.856-0.93 0.547 0 1.094 0.243 1.094 0.243 0.182-0.182 0.4-0.243 0.722-0.243l0.018 0.358c-0.194 0.024-0.34 0.091-0.352 0.268zm-6.766-2.121v2.466s0.382 0.225 0.814 0.225c0.553 0 0.638-0.286 0.638-1.124v-1.567h0.455v1.579c0 0.365-0.024 0.747-0.079 0.887 0 0 0.407 0.225 0.857 0.225 0.547 0 0.638-0.298 0.638-1.099v-1.592h0.454v1.604c0 1.099-0.199 1.493-1.026 1.493-0.54 0-1.081-0.309-1.081-0.309-0.157 0.218-0.382 0.309-0.789 0.309-0.432 0-0.887-0.273-0.887-0.273v0.212h-0.449v-3.036zm-1.785 3.723h0.455v0.528h-0.455zm0-3.723h0.455v3.036h-0.455zm-1.367 0h0.455v4.36h-0.455zm-0.741 0.467c-0.292-0.054-0.742-0.109-1.082-0.109-0.959 0-1.111 0.559-1.111 1.731 0 1.197 0.164 1.756 1.099 1.756 0.328 0 0.82-0.061 1.094-0.11l0.018 0.395c-0.268 0.055-0.729 0.133-1.16 0.133-1.264 0-1.536-0.752-1.536-2.174 0-1.385 0.279-2.15 1.536-2.15 0.4 0 0.862 0.067 1.16 0.128z" fill="#fff"/>
</g>
<path transform="translate(0,961.4)" d="m193.94 61.623v20.641h30.893v-20.641h-30.893zm15.443 2.0449 0.2539 0.82812 0.88867 0.009765-0.70898 0.5 0.26758 0.8418-0.69336-0.51758-0.72266 0.51367 0.2793-0.81836-0.71289-0.52734 0.86523 0.013672 0.28321-0.84375zm-3.4668 0.93945 0.25586 0.82812 0.88672 0.009765-0.70899 0.49805 0.26953 0.84375-0.69336-0.51953-0.72265 0.51562 0.2793-0.81836-0.71485-0.5293 0.86719 0.013672 0.28125-0.8418zm6.9688 0.035156 0.2539 0.82812 0.88868 0.009766-0.70899 0.49805 0.26758 0.84375-0.69336-0.51953-0.72265 0.51562 0.27929-0.82031-0.71289-0.52734 0.86524 0.013672 0.2832-0.8418zm-9.5684 2.4922 0.25391 0.82617 0.88867 0.009765-0.70899 0.49805 0.26758 0.84375-0.69336-0.51758-0.7207 0.51562 0.2793-0.82031-0.71289-0.52734 0.86328 0.013671 0.2832-0.8418zm12.061 0.035156 0.2539 0.82812 0.88672 0.009765-0.70703 0.49805 0.26758 0.84375-0.69336-0.51953-0.72266 0.51562 0.28125-0.81836-0.71484-0.5293 0.86523 0.015625 0.28321-0.84375zm-12.998 3.4668 0.25391 0.82812 0.88867 0.009765-0.70899 0.49805 0.26758 0.84375-0.69336-0.51953-0.72265 0.51562 0.28125-0.81836-0.71485-0.5293 0.86524 0.013672 0.2832-0.8418zm13.936 0.035156 0.2539 0.82812 0.88867 0.009766-0.70898 0.49805 0.26758 0.84375-0.69336-0.51953-0.72266 0.51562 0.28125-0.81836-0.71484-0.5293 0.86523 0.015625 0.28321-0.84375zm-12.998 3.5371 0.25391 0.82812 0.88867 0.009766-0.70899 0.49805 0.26758 0.84375-0.69336-0.51953-0.7207 0.51562 0.2793-0.81836-0.71289-0.52734 0.86328 0.013672 0.2832-0.84375zm12.131 0 0.2539 0.82812 0.88868 0.009766-0.70703 0.49805 0.26562 0.84375-0.69336-0.51953-0.7207 0.51562 0.28125-0.81836-0.71485-0.52734 0.86524 0.013672 0.28125-0.84375zm-9.6035 2.5996 0.25391 0.82812 0.88867 0.009765-0.70898 0.49805 0.26758 0.84375-0.69336-0.51953-0.72266 0.51758 0.28125-0.82031-0.71484-0.52734 0.86718 0.011719 0.28125-0.8418zm7.0039 0 0.25586 0.82812 0.88672 0.009765-0.70703 0.49805 0.26757 0.84375-0.69335-0.51953-0.72266 0.51758 0.28125-0.82031-0.71485-0.52734 0.86524 0.011719 0.28125-0.8418zm-3.5 0.93945 0.25391 0.82812 0.88867 0.009766-0.70899 0.49805 0.26758 0.84375-0.69336-0.51953-0.72265 0.51562 0.28125-0.81836-0.71485-0.5293 0.86524 0.013672 0.2832-0.8418z" fill="#fff"/>
<g transform="matrix(1.1766 0 0 -1.1766 193.94 1023)">
<path d="m0 0h26.256v-17.542h-26.256z" fill="none" stroke="#fff" stroke-miterlimit="10" stroke-width=".281"/>
</g>
<path d="m57.54 990.5h1.7403v1.7403h-1.7403z" fill="#fff"/>
<path d="m57.54 993.94h1.7403v13.703h-1.7403z" fill="#fff"/>
<g transform="matrix(1.1766 0 0 -1.1766 62.674 990.5)">
<path d="m0 0h1.479v-2.921h5.805v-1.442h-5.805v-7.283c0-0.814 0.629-1.479 1.442-1.479h4.363v-1.442h-4.363c-1.516 0-2.921 1.22-2.921 2.921v7.283h-2.181v1.442h2.181z" fill="#fff" fill-rule="evenodd"/>
</g>
<g transform="matrix(1.1766 0 0 -1.1766 42.444 1000.8)">
<path d="m0 0h11.387c0 1.294-0.073 2.255-0.221 2.884-0.148 0.628-0.407 1.183-0.777 1.664-0.48 0.554-1.072 0.961-1.848 1.146-0.74 0.185-1.997 0.296-3.698 0.296-1.737 0-2.958-0.111-3.734-0.296s-1.368-0.592-1.811-1.146c-0.407-0.481-0.666-1.036-0.777-1.664-0.148-0.629-0.222-1.59-0.259-2.884 0.037-1.257 0.111-2.218 0.259-2.847 0.111-0.628 0.37-1.183 0.777-1.664 0.443-0.554 1.035-0.961 1.811-1.146 0.776-0.222 1.997-0.296 3.734-0.296 1.701 0 2.958 0.074 3.698 0.296 0.776 0.185 1.368 0.592 1.848 1.146 0.296 0.37 0.518 0.814 0.666 1.257h-1.738c-0.111-0.147-0.222-0.295-0.37-0.443-0.333-0.259-0.813-0.481-1.405-0.592-0.628-0.111-1.516-0.148-2.662-0.148-1.183 0-2.07 0.037-2.662 0.148-0.628 0.111-1.072 0.333-1.405 0.592-0.443 0.37-0.702 0.998-0.776 1.848-0.037 0.592-0.037 1.258-0.037 1.849m9.724 1.479h-9.724c0.037 1.072 0.296 1.812 0.813 2.218 0.333 0.296 0.777 0.481 1.405 0.592 0.592 0.148 1.479 0.185 2.662 0.185 1.146 0 2.034-0.037 2.662-0.185 0.592-0.111 1.072-0.296 1.405-0.592 0.518-0.406 0.777-1.146 0.777-2.218" fill="#fff"/>
</g>
<g transform="matrix(1.1766 0 0 -1.1766 55.843 1031.6)">
<path d="m0 0c14.456 0 26.214 11.72 26.214 26.177 0 14.493-11.758 26.213-26.214 26.213-4.77 0-9.243-1.257-13.088-3.512l1.442-2.514c3.438 1.996 7.394 3.105 11.646 3.105 12.866 0 23.293-10.426 23.293-23.292 0-12.83-10.427-23.293-23.293-23.293s-23.293 10.463-23.293 23.293h-2.921c0-14.457 11.758-26.177 26.214-26.177" fill="#fff" fill-rule="evenodd"/>
</g>
<g transform="matrix(1.1766 0 0 -1.1766 55.843 1024.8)">
<path d="m0 0c7.542 0 14.123 4.104 17.636 10.204l-2.514 1.442c-3.032-5.213-8.652-8.725-15.122-8.725-9.65 0-17.451 7.838-17.451 17.451 0 9.65 7.801 17.488 17.451 17.488 6.47 0 12.09-3.512 15.122-8.726l2.514 1.442c-3.513 6.101-10.094 10.205-17.636 10.205-11.24 0-20.372-9.132-20.372-20.409 0-11.24 9.132-20.372 20.372-20.372" fill="#fff" fill-rule="evenodd"/>
</g>
<g transform="matrix(1.1766 0 0 -1.1766 109.17 1003)">
<path d="m0 0h1.509c-0.04-1.057-0.102-1.785-0.188-2.183-0.187-0.864-0.764-1.395-1.73-1.593-0.784-0.16-2.18-0.239-4.186-0.239-2.603 0-4.362 0.09-5.277 0.272-0.87 0.176-1.455 0.632-1.756 1.369-0.301 0.736-0.452 2.078-0.452 4.028 0 1.858 0.114 3.208 0.341 4.049 0.273 0.995 0.975 1.574 2.106 1.739 1.091 0.165 2.69 0.248 4.799 0.248 2.012 0 3.453-0.1 4.323-0.299 0.431-0.097 0.805-0.286 1.121-0.567 0.315-0.281 0.515-0.606 0.6-0.976 0.086-0.347 0.134-1.026 0.145-2.037h-1.44c-6e-3 0.198-9e-3 0.332-9e-3 0.4 0 0.557-0.054 0.954-0.162 1.189-0.108 0.236-0.318 0.417-0.631 0.542-0.574 0.233-1.915 0.349-4.023 0.349-1.53 0-2.677-0.041-3.445-0.123-0.767-0.083-1.267-0.215-1.5-0.397-0.222-0.182-0.385-0.557-0.49-1.125s-0.158-1.358-0.158-2.37c0-0.477 0.02-1.094 0.06-1.85 0.039-0.756 0.079-1.276 0.119-1.56 0.063-0.449 0.206-0.774 0.431-0.976 0.224-0.202 0.578-0.326 1.061-0.371 0.881-0.091 2.14-0.136 3.777-0.136 0.5 0 1.155 0.015 1.965 0.047 0.809 0.031 1.325 0.061 1.547 0.089 0.432 0.057 0.753 0.144 0.963 0.26 0.211 0.116 0.355 0.291 0.435 0.524 0.074 0.205 0.122 0.77 0.145 1.697" fill="#fff"/>
</g>
<path d="m112.84 993.96h1.5049v13.693h-1.5049z" fill="#fff"/>
<path d="m116.33 998.13h1.5049v9.5191h-1.5049zm0-4.1724h1.5049v1.7862h-1.5049z" fill="#fff"/>
<g transform="matrix(1.1766 0 0 -1.1766 120.06 998.13)">
<path d="m0 0h1.287v-1.066c0.404 0.489 0.81 0.806 1.22 0.951 0.408 0.145 1.108 0.217 2.096 0.217 1.325 0 2.275-0.096 2.852-0.289 0.577-0.194 1.024-0.566 1.343-1.117 0.261 0.528 0.665 0.895 1.21 1.099 0.546 0.205 1.398 0.307 2.558 0.307 1.103 0 1.928-0.071 2.476-0.213 0.549-0.142 0.994-0.398 1.335-0.767 0.261-0.296 0.431-0.627 0.511-0.993 0.08-0.367 0.119-1.022 0.119-1.965v-4.254h-1.278v4.552c0 0.994-0.148 1.637-0.444 1.927-0.397 0.392-1.307 0.588-2.728 0.588-0.812 0-1.432-0.054-1.858-0.162s-0.75-0.29-0.972-0.546c-0.222-0.261-0.372-0.609-0.452-1.044-0.079-0.435-0.119-1.144-0.119-2.127v-3.188h-1.279v4.552c0 0.574-0.031 0.998-0.093 1.27-0.063 0.273-0.18 0.489-0.35 0.648-0.415 0.398-1.33 0.597-2.745 0.597-0.819 0-1.448-0.055-1.889-0.166-0.44-0.111-0.78-0.3-1.018-0.567-0.205-0.233-0.34-0.552-0.405-0.955-0.066-0.404-0.098-1.134-0.098-2.191v-3.188h-1.279z" fill="#fff"/>
</g>
<g transform="matrix(1.1766 0 0 -1.1766 147.15 1003.3)">
<path d="m0 0c-1.052 0-1.787-0.019-2.208-0.056s-0.719-0.106-0.895-0.208c-0.336-0.199-0.503-0.566-0.503-1.1 0-0.529 0.199-0.887 0.597-1.074 0.324-0.154 1.415-0.23 3.273-0.23 1.359 0 2.256 0.088 2.694 0.264s0.657 0.534 0.657 1.074c0 0.523-0.244 0.875-0.734 1.057-0.489 0.182-1.449 0.273-2.881 0.273m-3.274 1.969h-1.329c-0.012 0.148-0.018 0.265-0.018 0.35 0 0.846 0.319 1.423 0.955 1.73 0.637 0.307 1.83 0.461 3.581 0.461 1.375 0 2.364-0.063 2.966-0.188 0.603-0.125 1.075-0.364 1.416-0.716 0.284-0.284 0.468-0.62 0.554-1.006 0.085-0.387 0.128-1.063 0.128-2.029v-4.262h-1.27l0.025 0.946h-0.068c-0.318-0.444-0.701-0.729-1.147-0.857s-1.288-0.192-2.527-0.192c-1.416 0-2.399 0.034-2.95 0.103-0.551 0.068-0.969 0.21-1.254 0.426-0.284 0.204-0.481 0.448-0.592 0.733-0.111 0.284-0.166 0.682-0.166 1.194 0 0.625 0.084 1.105 0.251 1.44 0.168 0.336 0.451 0.586 0.849 0.751 0.431 0.187 1.44 0.281 3.026 0.281 1.659 0 2.745-0.05 3.257-0.149 0.511-0.1 0.906-0.34 1.185-0.721h0.111v0.87c0 0.71-0.128 1.222-0.384 1.534-0.227 0.279-0.573 0.468-1.036 0.567s-1.22 0.149-2.272 0.149c-1.381 0-2.275-0.081-2.681-0.243s-0.61-0.515-0.61-1.061z" fill="#fff"/>
</g>
<g transform="matrix(1.1766 0 0 -1.1766 155.82 995.78)">
<path d="m0 0h1.279v-2.004h5.66v-1.091h-5.66v-3.512c0.011-0.767 0.031-1.236 0.059-1.407 0.029-0.17 0.111-0.341 0.248-0.511 0.159-0.199 0.397-0.34 0.716-0.422 0.318-0.083 0.784-0.124 1.398-0.124 0.574 0 0.992 0.04 1.253 0.12 0.261 0.079 0.466 0.224 0.614 0.434 0.097 0.148 0.16 0.324 0.192 0.529 0.031 0.204 0.047 0.551 0.047 1.04v0.512h1.27v-0.512c0-0.62-0.03-1.09-0.089-1.411-0.061-0.321-0.172-0.604-0.337-0.848-0.239-0.353-0.594-0.605-1.066-0.759-0.472-0.153-1.134-0.23-1.987-0.23-0.874 0-1.558 0.071-2.049 0.213-0.492 0.142-0.857 0.375-1.096 0.699-0.176 0.239-0.295 0.514-0.358 0.827-0.063 0.312-0.094 0.787-0.094 1.424v3.938h-1.986v1.091h1.986z" fill="#fff"/>
</g>
<g transform="matrix(1.1766 0 0 -1.1766 175.73 1001.9)">
<path d="m0 0c-6e-3 0.79-0.216 1.341-0.631 1.654-0.273 0.21-0.655 0.357-1.147 0.439-0.491 0.082-1.211 0.123-2.161 0.123-0.83 0-1.461-0.038-1.897-0.115-0.434-0.076-0.774-0.211-1.018-0.405-0.404-0.312-0.637-0.878-0.699-1.696zm0.059-2.353h1.339c-0.023-0.966-0.363-1.641-1.023-2.025-0.659-0.383-1.807-0.575-3.444-0.575-1.353 0-2.38 0.053-3.082 0.158s-1.232 0.282-1.59 0.532c-0.818 0.58-1.227 1.725-1.227 3.436 0 1.199 0.173 2.1 0.52 2.703 0.329 0.573 0.805 0.961 1.428 1.163 0.621 0.202 1.661 0.303 3.115 0.303 1.393 0 2.399-0.074 3.018-0.222 0.62-0.148 1.114-0.432 1.484-0.853 0.307-0.352 0.517-0.761 0.631-1.227 0.113-0.466 0.175-1.176 0.187-2.131h-9.011c0.034-1.006 0.233-1.697 0.597-2.072 0.244-0.256 0.635-0.43 1.172-0.524s1.411-0.141 2.621-0.141c0.916 0 1.586 0.043 2.012 0.128 0.427 0.085 0.745 0.242 0.955 0.469 0.159 0.176 0.259 0.469 0.298 0.878" fill="#fff"/>
</g>
<path d="m178.46 1001.9h8.0553v1.7755h-8.0553z" fill="#fff"/>
<g transform="matrix(1.1766 0 0 -1.1766 187.54 993.96)">
<path d="m0 0h1.551v-5.004h2.021l7.544 5.004h2.72l-8.653-5.678 9.105-5.959h-2.745l-7.971 5.269h-2.021v-5.269h-1.551z" fill="#fff"/>
</g>
<path d="m205.24 993.96h1.8262v13.693h-1.8262z" fill="#fff"/>
<g transform="matrix(1.1766 0 0 -1.1766 223.06 1003)">
<path d="m0 0h1.509c-0.04-1.057-0.102-1.785-0.188-2.183-0.187-0.864-0.764-1.395-1.73-1.593-0.785-0.16-2.18-0.239-4.186-0.239-2.603 0-4.362 0.09-5.277 0.272-0.87 0.176-1.455 0.632-1.756 1.369-0.301 0.736-0.452 2.078-0.452 4.028 0 1.858 0.114 3.208 0.341 4.049 0.273 0.995 0.975 1.574 2.106 1.739 1.091 0.165 2.69 0.248 4.8 0.248 2.011 0 3.452-0.1 4.322-0.299 0.431-0.097 0.805-0.286 1.121-0.567 0.315-0.281 0.515-0.606 0.6-0.976 0.086-0.347 0.134-1.026 0.145-2.037h-1.44c-6e-3 0.198-9e-3 0.332-9e-3 0.4 0 0.557-0.054 0.954-0.162 1.189-0.108 0.236-0.318 0.417-0.63 0.542-0.575 0.233-1.916 0.349-4.024 0.349-1.53 0-2.677-0.041-3.444-0.123-0.768-0.083-1.268-0.215-1.501-0.397-0.222-0.182-0.385-0.557-0.491-1.125-0.104-0.568-0.157-1.358-0.157-2.37 0-0.477 0.02-1.094 0.06-1.85 0.039-0.756 0.08-1.276 0.119-1.56 0.063-0.449 0.206-0.774 0.431-0.976 0.224-0.202 0.578-0.326 1.061-0.371 0.881-0.091 2.14-0.136 3.777-0.136 0.5 0 1.155 0.015 1.965 0.047 0.809 0.031 1.325 0.061 1.547 0.089 0.432 0.057 0.753 0.144 0.963 0.26 0.211 0.116 0.355 0.291 0.435 0.524 0.074 0.205 0.123 0.77 0.145 1.697" fill="#fff"/>
</g>
</g>
</svg>
