<?xml version="1.0" encoding="UTF-8"?>
<svg width="66.146mm" height="24.077mm" version="1.1" viewBox="0 0 66.146 24.077" xmlns="http://www.w3.org/2000/svg" xmlns:cc="http://creativecommons.org/ns#" xmlns:dc="http://purl.org/dc/elements/1.1/" xmlns:rdf="http://www.w3.org/1999/02/22-rdf-syntax-ns#">
<metadata>
<rdf:RDF>
<cc:Work rdf:about="">
<dc:format>image/svg+xml</dc:format>
<dc:type rdf:resource="http://purl.org/dc/dcmitype/StillImage"/>
<dc:title/>
</cc:Work>
</rdf:RDF>
</metadata>
<g transform="translate(380.06 15.908)">
<circle cx="-361.11" cy="-6.5705" r="0" fill="#f00"/>
<circle cx="-369.99" cy="9.0691" r="0" fill="#f00"/>
<g transform="matrix(1.0049 0 0 1.0049 2.0082 .48146)" fill="#fff" stroke-width=".061924">
<path d="m-372.24-2.2322c-0.36925-0.09734-0.55554-0.1984-0.82709-0.44868-0.73081-0.67357-0.75165-2.3154-0.0397-3.1263 0.45934-0.52316 1.3498-0.73479 2.1333-0.50702 0.52485 0.15258 0.9664 0.60751 1.1423 1.1769 0.16174 0.52367 0.16306 0.74316 5e-3 0.90082-0.11434 0.11434-0.20641 0.12385-1.1992 0.12385-0.9941 0-1.0876 0.0097-1.2385 0.12834-0.22521 0.17715-0.21538 0.42712 0.0277 0.70397 0.36062 0.41072 0.85078 0.41223 1.3641 0.0042 0.32779-0.26057 0.59037-0.28355 0.83505-0.073076 0.2144 0.18441 0.17418 0.38437-0.13834 0.68789-0.43459 0.42207-1.3612 0.6146-2.065 0.42907zm1.0848-2.5894c0.2692-0.11248 0.29161-0.34034 0.055-0.55958-0.31327-0.29033-0.8144-0.27819-1.1066 0.02681-0.20232 0.21118-0.18498 0.43694 0.042 0.54632 0.20369 0.09816 0.7601 0.0907 1.0096-0.01355zm5.3234 2.6018c-0.86841-0.20979-1.3717-0.84778-1.4383-1.8233-0.0602-0.88129 0.26655-1.6774 0.83849-2.0429 0.81381-0.52012 2.0557-0.38492 2.6073 0.28385 0.25202 0.30555 0.43847 0.81244 0.43847 1.1921 0 0.48743-0.025 0.49734-1.2584 0.4984-1.2353 0.0011-1.3633 0.03611-1.3922 0.38153-0.015 0.17875 0.0205 0.26962 0.17339 0.44374 0.3731 0.42495 0.83231 0.42841 1.3558 0.010232 0.33863-0.27049 0.61993-0.2908 0.8494-0.061339 0.112 0.112 0.1449 0.19474 0.11696 0.29414-0.0623 0.22149-0.5619 0.64601-0.88764 0.7542-0.39466 0.13108-1.0199 0.16199-1.4033 0.069373zm1.01-2.5791c0.5421-0.18898 0.0532-0.86322-0.56575-0.78021-0.35972 0.04825-0.56807 0.22453-0.56807 0.48062 0 0.15994 0.0359 0.22638 0.15481 0.28654 0.19053 0.09639 0.71968 0.10345 0.97901 0.01305zm10.149 2.6034c-0.58233-0.097866-1.0626-0.4379-1.3139-0.93018-0.44999-0.88169-0.26235-2.2047 0.3972-2.8006 0.48613-0.43919 1.3232-0.5946 2.0461-0.37989 0.64912 0.19277 1.1562 0.86879 1.2251 1.6331 0.0485 0.53857 0.0254 0.5485-1.3286 0.57197-1.0592 0.01836-1.1363 0.02772-1.2616 0.1531-0.19323 0.19346-0.12078 0.51576 0.16977 0.75526 0.39509 0.32566 0.78588 0.29979 1.2686-0.083968 0.3165-0.2516 0.57659-0.27958 0.81987-0.088217 0.2022 0.15905 0.20683 0.32906 0.0158 0.57952-0.2053 0.26916-0.68119 0.51166-1.1549 0.58852-0.44468 0.072145-0.46262 0.072175-0.88351 0.00144zm0.91832-2.626c0.26621-0.11123 0.28697-0.31655 0.0554-0.5481-0.3019-0.30191-0.80979-0.29488-1.107 0.01533-0.20232 0.21118-0.18497 0.43694 0.042 0.54632 0.20369 0.09816 0.7601 0.0907 1.0096-0.01355zm7.5951 2.6233c-0.41263-0.040678-0.6187-0.15106-0.84355-0.45182-0.11559-0.15462-0.1306-0.28316-0.15863-1.3585-0.0328-1.2585-0.0448-1.3114-0.36622-1.6173-0.26577-0.25295-0.25111-0.44652 0.0566-0.74698 0.16038-0.15661 0.24781-0.29746 0.24804-0.39959 6.2e-4 -0.2851 0.12655-0.61943 0.26028-0.69099 0.0722-0.03867 0.25912-0.06797 0.41527-0.06513 0.34918 0.0064 0.56258 0.21006 0.56258 0.53702 0 0.26726 0.11114 0.51344 0.25198 0.55814 0.2359 0.07487 0.42918 0.28509 0.42918 0.46678 0 0.14258-0.0509 0.21264-0.24238 0.3335-0.41319 0.26084-0.43905 0.33431-0.43659 1.2401 1e-3 0.51506 0.0294 0.85452 0.0774 0.93896 0.0414 0.072738 0.2006 0.22717 0.35386 0.34319 0.33673 0.2549 0.40374 0.53101 0.18531 0.76352-0.16355 0.17409-0.29277 0.19838-0.79314 0.14905zm-22.647-0.050342c-0.30755-0.13274-0.3062-0.12213-0.32672-2.5701-0.0106-1.2635-2e-3 -2.3894 0.0189-2.5019 0.0611-0.32757 0.22511-0.44549 0.61955-0.44549 0.25802 0 0.37061 0.03002 0.46443 0.12385 0.1198 0.1198 0.12385 0.20641 0.12385 2.6531 0 2.4332-5e-3 2.5334-0.12134 2.6391-0.13745 0.12439-0.58921 0.18326-0.77871 0.10147zm6.302-0.00857c-0.0771-0.030985-0.16769-0.12856-0.20126-0.21684-0.0886-0.23303-0.0796-3.202 0.0103-3.3993 0.0966-0.2121 0.22202-0.24017 0.85049-0.19043 0.42114 0.03333 0.61712 0.01964 0.90125-0.06296 0.43975-0.12784 0.78047-0.09283 1.2088 0.1242 0.38688 0.19604 0.46163 0.19491 0.90834-0.01384 0.47325-0.22115 1.1713-0.24184 1.5069-0.04466 0.43633 0.25633 0.46416 0.37381 0.48692 2.0548l0.0203 1.4996-0.16417 0.16418c-0.13788 0.13787-0.20062 0.15826-0.39164 0.12726-0.36214-0.058768-0.38236-0.12727-0.38539-1.3055-3e-3 -1.1918-0.0843-1.5699-0.3847-1.7913-0.34875-0.25702-0.82756-0.10373-1.0522 0.33685-0.0912 0.17887-0.10828 0.38824-0.10836 1.3287-1.3e-4 1.2316-0.0302 1.3476-0.36951 1.4221-0.10812 0.023747-0.25435 0.00641-0.35599-0.042214l-0.17249-0.082515-0.0348-1.2378c-0.0368-1.3085-0.0697-1.4635-0.36784-1.7333-0.17607-0.15934-0.59301-0.16464-0.82822-0.01052-0.31427 0.20592-0.37031 0.44995-0.40733 1.7738l-0.0337 1.2058-0.15481 0.078155c-0.17942 0.090583-0.28594 0.094083-0.4808 0.015795zm11.025 0.00433c-0.0756-0.032246-0.1531-0.12253-0.17218-0.20064-0.0191-0.078105-0.0269-0.91926-0.0173-1.8692l0.0174-1.7272 0.16795-0.12536c0.15939-0.11896 0.19438-0.12124 0.68639-0.04471 0.46448 0.07226 0.55226 0.06941 0.84349-0.02732 0.22529-0.07483 0.45588-0.10057 0.75136-0.08387 0.45544 0.02573 0.64894 0.12271 0.89087 0.44647 0.12013 0.16076 0.12875 0.26666 0.1459 1.792 0.0209 1.8626 0.027 1.8377-0.45678 1.8818-0.54177 0.049428-0.54634 0.038669-0.58905-1.3857-0.0374-1.2477-0.0761-1.4649-0.30128-1.6901-0.19738-0.19737-0.6149-0.17389-0.826 0.04646-0.22654 0.23646-0.2911 0.63686-0.2911 1.8054 0 0.70267-0.0224 1.0011-0.0812 1.0815-0.0945 0.12923-0.5587 0.18994-0.76842 0.1005z"/>
<path d="m-324.17-0.96996c-0.21811-0.28188-0.12035-0.56788 0.22997-0.67284 0.34034-0.10197 0.55785-0.31256 0.55785-0.5401 0-0.099894-0.25079-0.96672-0.55732-1.9263-0.30652-0.95956-0.55731-1.7932-0.55731-1.8524 0-0.1835 0.13555-0.25639 0.47681-0.25639 0.43404 0 0.53242 0.10618 0.66673 0.71961 0.27165 1.2407 0.33705 1.4697 0.45283 1.5854 0.0977 0.097661 0.14749 0.10898 0.24651 0.055983 0.16001-0.085632 0.1642-0.09804 0.41916-1.2393 0.14317-0.64091 0.25112-0.993 0.32017-1.0443 0.12607-0.09366 0.66143-0.10227 0.82767-0.0133 0.0659 0.03526 0.11977 0.11366 0.11977 0.17422 0 0.16988-1.2958 4.0911-1.456 4.406-0.16424 0.32283-0.3605 0.52171-0.607 0.61511-0.24677 0.093499-1.065 0.085347-1.1398-0.011356zm-3.6801-0.13238c-0.5356-0.14427-0.8195-0.42947-0.7844-0.78801 0.0161-0.16422 0.0541-0.21094 0.2055-0.25225 0.28555-0.077919 0.50799-0.00107 0.83337 0.28791 0.37656 0.33444 0.64345 0.39391 1.0201 0.2273 0.43323-0.19164 0.60827-0.68909 0.35328-1.004-0.11414-0.14095-0.12179-0.14169-0.69664-0.06698-0.49685 0.064569-0.62744 0.061736-0.89946-0.019508-0.63447-0.1895-0.97692-0.81171-0.97213-1.7663 4e-3 -0.89041 0.27943-1.4435 0.84963-1.709 0.36705-0.1709 0.72386-0.18744 1.2148-0.05629 0.24327 0.06499 0.48917 0.07966 0.86057 0.05135 0.46166-0.03519 0.52939-0.02678 0.60376 0.07492 0.0663 0.09074 0.0838 0.53424 0.0838 2.1331 0 1.9703-3e-3 2.0251-0.13933 2.2943-0.25154 0.49792-0.71866 0.68278-1.706 0.67512-0.29633-0.0023-0.6684-0.039092-0.82682-0.081762zm1.3099-2.308c0.4639-0.27403 0.61214-1.1105 0.30619-1.7278-0.16275-0.32837-0.47839-0.58444-0.7204-0.58444-0.28231 0-0.61782 0.22764-0.7559 0.51287-0.26772 0.55304-0.12909 1.4516 0.2727 1.7677 0.20998 0.16517 0.64541 0.18054 0.89741 0.031672zm-16.905 1.1232c-0.89506-0.2471-1.3253-0.89946-1.314-1.9924 9e-3 -0.89354 0.32395-1.5074 0.94462-1.8426 0.43491-0.23487 1.2255-0.29499 1.7199-0.13079 0.6501 0.21593 1.1035 0.82952 1.1721 1.5862 0.0482 0.53103-6e-3 0.55406-1.302 0.55406-1.2408 0-1.4032 0.05164-1.4054 0.44679-1e-3 0.23272 0.32578 0.58752 0.62403 0.67687 0.31485 0.094332 0.62479 0.00466 0.99155-0.28689 0.31237-0.24831 0.52512-0.2733 0.75918-0.089194 0.21756 0.17113 0.20572 0.36164-0.0381 0.61269-0.45694 0.4705-1.3967 0.67367-2.1518 0.46519zm1.1432-2.5057c0.47149-0.17926 0.0977-0.80594-0.48075-0.80594-0.40723 0-0.78625 0.2388-0.78625 0.49539 0 0.25487 0.21264 0.37154 0.67713 0.37154 0.23619 0 0.50163-0.02745 0.58987-0.061zm7.5571 2.5169c-0.58022-0.19196-0.92281-0.4883-1.1568-1.0007-0.20122-0.44059-0.20067-1.4484 1e-3 -1.9594 0.17816-0.45134 0.60712-0.86152 1.0573-1.0111 0.44731-0.14858 1.293-0.11029 1.6465 0.07453 0.52874 0.27646 0.88335 0.84118 0.94329 1.5022 0.0487 0.53666-1e-3 0.55782-1.3218 0.55782-0.93915 0-1.0794 0.01325-1.2034 0.1137-0.28246 0.22872-0.11578 0.72053 0.31946 0.94257 0.39688 0.20248 0.65281 0.15372 1.1383-0.21684 0.15866-0.12111 0.35224-0.22019 0.43018-0.22019 0.20063 0 0.46804 0.2288 0.46804 0.40045 0 0.20918-0.30845 0.50635-0.72251 0.69609-0.4294 0.19677-1.1952 0.25463-1.5996 0.12085zm1.2379-2.5792c0.19198-0.15932 0.0802-0.49742-0.21492-0.65003-0.42177-0.21811-1.0621-0.0078-1.105 0.3629-0.0232 0.20022 0.12427 0.3945 0.32073 0.42258 0.23862 0.0341 0.90354-0.05603 0.99922-0.13544zm-6.575 2.5517c-0.17196-0.10934-0.20513-0.43301-0.20513-2.0017v-1.6088l0.152-0.15199c0.16899-0.16899 0.32645-0.18526 0.85226-0.08806 0.29044 0.05369 0.42414 0.04364 0.83455-0.06275 0.7252-0.18798 1.2785-0.06209 1.5506 0.35283 0.096 0.14627 0.11157 0.36357 0.1284 1.7868 0.0219 1.8489 0.0286 1.8223-0.46113 1.8223-0.52404 0-0.51785 0.014049-0.51785-1.1757 0-0.57611-0.0298-1.1863-0.0661-1.3559-0.11696-0.54535-0.52296-0.79669-0.95542-0.59147-0.38795 0.18409-0.42882 0.3372-0.45351 1.6988-0.0253 1.3941-0.0361 1.4248-0.5006 1.4233-0.1565-4.954e-4 -0.31763-0.021988-0.35807-0.047703zm8.65-0.075196c-0.11816-0.11815-0.12385-0.20641-0.12385-1.9196s6e-3 -1.8015 0.12385-1.9196c0.15207-0.15207 0.58314-0.16606 1.0245-0.03324 0.2371 0.07136 0.35838 0.07618 0.57081 0.02269 0.19835-0.04995 0.31056-0.04932 0.42398 0.0024 0.142 0.0647 0.15276 0.09852 0.13567 0.42626l-0.0186 0.35598-0.41928 0.20189c-0.63876 0.30757-0.66387 0.37077-0.66416 1.6713-2.4e-4 1.275-0.0186 1.3159-0.5885 1.3159-0.25802 0-0.37061-0.030024-0.46443-0.12385z" opacity=".699"/>
</g>
</g>
</svg>
