<?xml version="1.0" encoding="UTF-8" standalone="no"?>
<!-- Created with Inkscape (http://www.inkscape.org/) -->

<svg
   xmlns:dc="http://purl.org/dc/elements/1.1/"
   xmlns:cc="http://creativecommons.org/ns#"
   xmlns:rdf="http://www.w3.org/1999/02/22-rdf-syntax-ns#"
   xmlns:svg="http://www.w3.org/2000/svg"
   xmlns="http://www.w3.org/2000/svg"
   xmlns:sodipodi="http://sodipodi.sourceforge.net/DTD/sodipodi-0.dtd"
   xmlns:inkscape="http://www.inkscape.org/namespaces/inkscape"
   width="66.145836mm"
   height="24.077084mm"
   viewBox="0 0 66.145836 24.077084"
   version="1.1"
   id="svg8"
   inkscape:version="0.92.4 (5da689c313, 2019-01-14)"
   sodipodi:docname="element-energy.svg">
  <defs
     id="defs2" />
  <sodipodi:namedview
     id="base"
     pagecolor="#ffffff"
     bordercolor="#666666"
     borderopacity="1.0"
     inkscape:pageopacity="0.0"
     inkscape:pageshadow="2"
     inkscape:zoom="4"
     inkscape:cx="111.03796"
     inkscape:cy="12.202672"
     inkscape:document-units="mm"
     inkscape:current-layer="layer1"
     showgrid="false"
     fit-margin-top="0"
     fit-margin-left="0"
     fit-margin-right="0"
     fit-margin-bottom="0"
     inkscape:window-width="1920"
     inkscape:window-height="1046"
     inkscape:window-x="-11"
     inkscape:window-y="-11"
     inkscape:window-maximized="1" />
  <metadata
     id="metadata5">
    <rdf:RDF>
      <cc:Work
         rdf:about="">
        <dc:format>image/svg+xml</dc:format>
        <dc:type
           rdf:resource="http://purl.org/dc/dcmitype/StillImage" />
        <dc:title></dc:title>
      </cc:Work>
    </rdf:RDF>
  </metadata>
  <g
     inkscape:label="Layer 1"
     inkscape:groupmode="layer"
     id="layer1"
     transform="translate(380.05506,15.90759)">
    <rect
       style="opacity:0.00100002;fill:#ff0000;fill-opacity:1;stroke:none;stroke-width:0.66145831;stroke-linecap:round;stroke-linejoin:round;stroke-miterlimit:4;stroke-dasharray:none;stroke-dashoffset:0;stroke-opacity:1"
       id="rect4298"
       width="66.145836"
       height="24.077084"
       x="-380.05505"
       y="-15.90759" />
    <circle
       r="0"
       style="opacity:1;fill:#ff0000;fill-opacity:1;stroke:none;stroke-width:0.66145831;stroke-linecap:round;stroke-linejoin:round;stroke-miterlimit:4;stroke-dasharray:none;stroke-dashoffset:0;stroke-opacity:1"
       id="ellipse4185"
       cx="-361.11249"
       cy="-6.5704503" />
    <circle
       r="0"
       style="opacity:1;fill:#ff0000;fill-opacity:1;stroke:none;stroke-width:0.66145831;stroke-linecap:round;stroke-linejoin:round;stroke-miterlimit:4;stroke-dasharray:none;stroke-dashoffset:0;stroke-opacity:1"
       id="ellipse4185-5"
       cx="-369.99481"
       cy="9.0690823" />
    <g
       id="g846"
       transform="matrix(1.0048692,0,0,1.0048692,2.0081602,0.48146117)">
      <path
         sodipodi:nodetypes="ccscccssccccccccccccccccsccccccccccscccccccccccccccccccccccccccccccscsccccccccccscsccccccccccccccccccccccccccccccccccccccccscccsccc"
         inkscape:connector-curvature="0"
         id="path840"
         d="m -372.24114,-2.2321989 c -0.36925,-0.09734 -0.55554,-0.1983987 -0.82709,-0.4486796 -0.73081,-0.6735651 -0.75165,-2.3153845 -0.0397,-3.1262565 0.45934,-0.523163 1.3498,-0.734794 2.13332,-0.507019 0.52485,0.152581 0.9664,0.607513 1.14227,1.176902 0.16174,0.523666 0.16306,0.743159 0.005,0.900815 -0.11434,0.114338 -0.20641,0.123847 -1.19916,0.123847 -0.9941,0 -1.08764,0.0097 -1.23847,0.1283422 -0.22521,0.177149 -0.21538,0.4271215 0.0277,0.7039696 0.36062,0.4107223 0.85078,0.4122314 1.36407,0.0042 0.32779,-0.2605684 0.59037,-0.2835464 0.83505,-0.073076 0.2144,0.1844139 0.17418,0.3843744 -0.13834,0.6878912 -0.43459,0.4220735 -1.36123,0.614605 -2.06505,0.4290653 z m 1.08483,-2.5893541 c 0.2692,-0.112479 0.29161,-0.340339 0.055,-0.559585 -0.31327,-0.29033 -0.8144,-0.278186 -1.10661,0.02681 -0.20232,0.211178 -0.18498,0.436943 0.042,0.546319 0.20369,0.09816 0.7601,0.0907 1.0096,-0.01355 z m 5.32345,2.6017556 c -0.86841,-0.2097859 -1.37169,-0.8477807 -1.43831,-1.8233006 -0.0602,-0.88129 0.26655,-1.677356 0.83849,-2.042893 0.81381,-0.520125 2.05572,-0.384925 2.60734,0.283847 0.25202,0.30555 0.43847,0.812444 0.43847,1.192064 0,0.48743 -0.025,0.497345 -1.25838,0.498403 -1.23534,0.0011 -1.36326,0.03611 -1.39224,0.3815302 -0.015,0.1787534 0.0205,0.2696241 0.17339,0.4437425 0.3731,0.4249456 0.83231,0.4284108 1.35584,0.010232 0.33863,-0.2704879 0.61993,-0.2908026 0.8494,-0.061339 0.112,0.1120009 0.1449,0.1947446 0.11696,0.2941378 -0.0623,0.2214914 -0.5619,0.6460078 -0.88764,0.7542034 -0.39466,0.1310846 -1.01991,0.1619938 -1.40332,0.069373 z m 1.00998,-2.5791296 c 0.5421,-0.188977 0.0532,-0.863224 -0.56575,-0.780208 -0.35972,0.04825 -0.56807,0.224529 -0.56807,0.480619 0,0.159935 0.0359,0.226384 0.15481,0.286543 0.19053,0.09639 0.71968,0.103446 0.97901,0.01305 z m 10.14882,2.6034 c -0.58233,-0.097866 -1.06262,-0.4379019 -1.31387,-0.9301839 -0.44999,-0.8816921 -0.26235,-2.2047491 0.3972,-2.8006101 0.48613,-0.439192 1.32316,-0.594597 2.04614,-0.379893 0.64912,0.192768 1.15625,0.868791 1.22507,1.633055 0.0485,0.538566 0.0254,0.548499 -1.32864,0.571973 -1.05921,0.01836 -1.13633,0.02772 -1.26157,0.1531023 -0.19323,0.193456 -0.12078,0.5157617 0.16977,0.7552586 0.39509,0.3256601 0.78588,0.2997945 1.26864,-0.083968 0.3165,-0.2515962 0.57659,-0.279582 0.81987,-0.088217 0.2022,0.1590487 0.20683,0.3290634 0.0158,0.5795227 -0.2053,0.2691566 -0.68119,0.5116648 -1.1549,0.5885215 -0.44468,0.072145 -0.46262,0.072175 -0.88351,0.00144 z m 0.91832,-2.626026 c 0.26621,-0.111229 0.28697,-0.316551 0.0554,-0.548101 -0.3019,-0.301908 -0.80979,-0.294875 -1.10699,0.01533 -0.20232,0.211178 -0.18497,0.436943 0.042,0.546319 0.20369,0.09816 0.7601,0.0907 1.00959,-0.01355 z m 7.59508,2.6233292 c -0.41263,-0.040678 -0.6187,-0.1510562 -0.84355,-0.4518204 -0.11559,-0.1546236 -0.1306,-0.2831563 -0.15863,-1.3584969 -0.0328,-1.2584679 -0.0448,-1.3113729 -0.36622,-1.6172849 -0.26577,-0.252946 -0.25111,-0.446516 0.0566,-0.746981 0.16038,-0.156612 0.24781,-0.297463 0.24804,-0.399591 6.2e-4,-0.285098 0.12655,-0.619428 0.26028,-0.690994 0.0722,-0.03867 0.25912,-0.06797 0.41527,-0.06513 0.34918,0.0064 0.56258,0.210061 0.56258,0.537016 0,0.267256 0.11114,0.513435 0.25198,0.558136 0.2359,0.07487 0.42918,0.285088 0.42918,0.466785 0,0.14258 -0.0509,0.212643 -0.24238,0.333504 -0.41319,0.260835 -0.43905,0.334309 -0.43659,1.240131 0.001,0.5150565 0.0294,0.8545243 0.0774,0.9389623 0.0414,0.072738 0.2006,0.2271747 0.35386,0.3431926 0.33673,0.2549017 0.40374,0.5310123 0.18531,0.763523 -0.16355,0.1740936 -0.29277,0.1983758 -0.79314,0.1490473 z m -22.64669,-0.050342 c -0.30755,-0.1327441 -0.3062,-0.1221279 -0.32672,-2.5700892 -0.0106,-1.26348 -0.002,-2.389354 0.0189,-2.501943 0.0611,-0.327567 0.22511,-0.445493 0.61955,-0.445493 0.25802,0 0.37061,0.03002 0.46443,0.123847 0.1198,0.119805 0.12385,0.206413 0.12385,2.653124 0,2.4331727 -0.005,2.5334484 -0.12134,2.6390828 -0.13745,0.1243919 -0.58921,0.1832597 -0.77871,0.1014714 z m 6.302,-0.00857 c -0.0771,-0.030985 -0.16769,-0.128563 -0.20126,-0.2168396 -0.0886,-0.2330272 -0.0796,-3.2020226 0.0103,-3.3993336 0.0966,-0.212101 0.22202,-0.240174 0.85049,-0.190432 0.42114,0.03333 0.61712,0.01964 0.90125,-0.06296 0.43975,-0.127839 0.78047,-0.09283 1.20876,0.124201 0.38688,0.196045 0.46163,0.194906 0.90834,-0.01384 0.47325,-0.221149 1.1713,-0.241836 1.50694,-0.04466 0.43633,0.256333 0.46416,0.37381 0.48692,2.0547719 l 0.0203,1.499649 -0.16417,0.1641754 c -0.13788,0.1378732 -0.20062,0.1582616 -0.39164,0.1272632 -0.36214,-0.058768 -0.38236,-0.1272719 -0.38539,-1.305531 -0.003,-1.1917825 -0.0843,-1.5698765 -0.3847,-1.7912995 -0.34875,-0.257015 -0.82756,-0.103731 -1.05222,0.336847 -0.0912,0.178873 -0.10828,0.388241 -0.10836,1.3286618 -1.3e-4,1.2316108 -0.0302,1.3475587 -0.36951,1.4220765 -0.10812,0.023747 -0.25435,0.00641 -0.35599,-0.042214 l -0.17249,-0.082515 -0.0348,-1.2378007 c -0.0368,-1.3085226 -0.0697,-1.4635356 -0.36784,-1.7333366 -0.17607,-0.159343 -0.59301,-0.164638 -0.82822,-0.01052 -0.31427,0.205916 -0.37031,0.449946 -0.40733,1.7738276 l -0.0337,1.2058492 -0.15481,0.078155 c -0.17942,0.090583 -0.28594,0.094083 -0.4808,0.015795 z m 11.02518,0.00433 c -0.0756,-0.032246 -0.1531,-0.1225323 -0.17218,-0.2006373 -0.0191,-0.078105 -0.0269,-0.9192575 -0.0173,-1.8692279 l 0.0174,-1.727219 0.16795,-0.125355 c 0.15939,-0.118965 0.19438,-0.121244 0.68639,-0.04471 0.46448,0.07226 0.55226,0.06941 0.84349,-0.02732 0.22529,-0.07483 0.45588,-0.100571 0.75136,-0.08387 0.45544,0.02573 0.64894,0.122711 0.89087,0.446473 0.12013,0.160763 0.12875,0.266664 0.1459,1.791962 0.0209,1.8626107 0.027,1.8376629 -0.45678,1.8818003 -0.54177,0.049428 -0.54634,0.038669 -0.58905,-1.3856697 -0.0374,-1.2477166 -0.0761,-1.4649306 -0.30128,-1.6900866 -0.19738,-0.197372 -0.6149,-0.173888 -0.826,0.04646 -0.22654,0.236458 -0.2911,0.636864 -0.2911,1.8053956 0,0.7026674 -0.0224,1.0011269 -0.0812,1.0814996 -0.0945,0.1292287 -0.5587,0.1899412 -0.76842,0.100501 z"
         style="fill:#ffffff;stroke-width:0.06192375" />
      <path
         sodipodi:nodetypes="ccscssccccccsccccccccscsccccscsccccccscccccsccsccccccccsssccccccccscccsscccccccccsccccccsscccccccsccccccccscc"
         style="opacity:0.69899998;fill:#ffffff;stroke-width:0.06192375"
         d="m -324.17194,-0.96995937 c -0.21811,-0.28187883 -0.12035,-0.56787733 0.22997,-0.67283743 0.34034,-0.1019668 0.55785,-0.3125577 0.55785,-0.5400977 0,-0.099894 -0.25079,-0.9667221 -0.55732,-1.9262855 -0.30652,-0.959562 -0.55731,-1.793155 -0.55731,-1.852429 0,-0.1835 0.13555,-0.256388 0.47681,-0.256388 0.43404,0 0.53242,0.106181 0.66673,0.719609 0.27165,1.240669 0.33705,1.469666 0.45283,1.5854472 0.0977,0.097661 0.14749,0.1089766 0.24651,0.055983 0.16001,-0.085632 0.1642,-0.09804 0.41916,-1.2393242 0.14317,-0.640906 0.25112,-0.993004 0.32017,-1.044311 0.12607,-0.09366 0.66143,-0.102269 0.82767,-0.0133 0.0659,0.03526 0.11977,0.113655 0.11977,0.174219 0,0.169879 -1.29579,4.0910619 -1.45599,4.4059603 -0.16424,0.3228325 -0.3605,0.5217143 -0.607,0.61511273 -0.24677,0.093499 -1.06502,0.085347 -1.13985,-0.011356 z m -3.68007,-0.13238443 c -0.5356,-0.1442687 -0.8195,-0.4294714 -0.7844,-0.7880075 0.0161,-0.1642236 0.0541,-0.2109414 0.2055,-0.2522451 0.28555,-0.077919 0.50799,-0.00107 0.83337,0.287912 0.37656,0.3344384 0.64345,0.39391 1.02009,0.2273047 0.43323,-0.1916373 0.60827,-0.6890881 0.35328,-1.0039883 -0.11414,-0.140949 -0.12179,-0.1416853 -0.69664,-0.06698 -0.49685,0.064569 -0.62744,0.061736 -0.89946,-0.019508 -0.63447,-0.1895028 -0.97692,-0.8117083 -0.97213,-1.766276 0.004,-0.890412 0.27943,-1.443458 0.84963,-1.708962 0.36705,-0.170905 0.72386,-0.18744 1.21476,-0.05629 0.24327,0.06499 0.48917,0.07966 0.86057,0.05135 0.46166,-0.03519 0.52939,-0.02678 0.60376,0.07492 0.0663,0.09074 0.0838,0.534242 0.0838,2.1330849 0,1.9702875 -0.003,2.0251185 -0.13933,2.2943246 -0.25154,0.4979188 -0.71866,0.6827798 -1.70595,0.6751217 -0.29633,-0.0023 -0.6684,-0.039092 -0.82682,-0.081762 z m 1.30986,-2.3080263 c 0.4639,-0.2740318 0.61214,-1.1105099 0.30619,-1.7277929 -0.16275,-0.32837 -0.47839,-0.584444 -0.7204,-0.584444 -0.28231,0 -0.61782,0.227643 -0.7559,0.51287 -0.26772,0.553039 -0.12909,1.4516415 0.2727,1.7676948 0.20998,0.1651692 0.64541,0.1805368 0.89741,0.031672 z m -16.90527,1.1232423 c -0.89506,-0.2471048 -1.32528,-0.8994586 -1.31396,-1.9923892 0.009,-0.893537 0.32395,-1.507367 0.94462,-1.842556 0.43491,-0.234871 1.22553,-0.294991 1.7199,-0.130787 0.6501,0.215928 1.10351,0.829519 1.17212,1.586221 0.0482,0.53103 -0.006,0.554055 -1.30205,0.554055 -1.24078,0 -1.40322,0.05164 -1.40545,0.446792 -10e-4,0.2327206 0.32578,0.5875152 0.62403,0.6768718 0.31485,0.094332 0.62479,0.00466 0.99155,-0.2868909 0.31237,-0.2483086 0.52512,-0.2733048 0.75918,-0.089194 0.21756,0.1711331 0.20572,0.3616421 -0.0381,0.6126854 -0.45694,0.4705047 -1.39671,0.673666 -2.15185,0.4651916 z m 1.14315,-2.5056882 c 0.47149,-0.179261 0.0977,-0.805938 -0.48075,-0.805938 -0.40723,0 -0.78625,0.238805 -0.78625,0.49539 0,0.254868 0.21264,0.371543 0.67713,0.371543 0.23619,0 0.50163,-0.02745 0.58987,-0.061 z m 7.55714,2.5168587 c -0.58022,-0.1919581 -0.92281,-0.4882986 -1.15681,-1.0006563 -0.20122,-0.4405887 -0.20067,-1.4483764 10e-4,-1.9594444 0.17816,-0.451338 0.60712,-0.861524 1.05733,-1.01106 0.44731,-0.148575 1.29302,-0.110292 1.6465,0.07453 0.52874,0.276461 0.88335,0.841179 0.94329,1.502181 0.0487,0.53666 -10e-4,0.557822 -1.32175,0.557822 -0.93915,0 -1.07939,0.01325 -1.20344,0.1137048 -0.28246,0.2287209 -0.11578,0.7205262 0.31946,0.9425662 0.39688,0.2024752 0.65281,0.153722 1.13827,-0.2168409 0.15866,-0.1211062 0.35224,-0.2201928 0.43018,-0.2201928 0.20063,0 0.46804,0.2287977 0.46804,0.4004497 0,0.2091797 -0.30845,0.5063493 -0.72251,0.6960917 -0.4294,0.1967739 -1.19525,0.2546317 -1.59963,0.120848 z m 1.2379,-2.5792397 c 0.19198,-0.159323 0.0802,-0.497425 -0.21492,-0.650031 -0.42177,-0.218107 -1.0621,-0.0078 -1.10503,0.362897 -0.0232,0.200218 0.12427,0.394502 0.32073,0.422576 0.23862,0.0341 0.90354,-0.05603 0.99922,-0.135442 z m -6.57495,2.5516743 c -0.17196,-0.1093406 -0.20513,-0.4330093 -0.20513,-2.0016793 v -1.608801 l 0.152,-0.151994 c 0.16899,-0.168993 0.32645,-0.185263 0.85226,-0.08806 0.29044,0.05369 0.42414,0.04364 0.83455,-0.06275 0.7252,-0.187981 1.27849,-0.06209 1.55065,0.352834 0.096,0.146274 0.11157,0.36357 0.1284,1.786813 0.0219,1.8488829 0.0286,1.8222873 -0.46113,1.8222873 -0.52404,0 -0.51785,0.014049 -0.51785,-1.1756819 0,-0.5761125 -0.0298,-1.1862804 -0.0661,-1.3559264 -0.11696,-0.545349 -0.52296,-0.796691 -0.95542,-0.591474 -0.38795,0.184092 -0.42882,0.337203 -0.45351,1.698836 -0.0253,1.3940857 -0.0361,1.4248463 -0.5006,1.4232983 -0.1565,-4.954e-4 -0.31763,-0.021988 -0.35807,-0.047703 z m 8.64997,-0.075196 c -0.11816,-0.1181536 -0.12385,-0.2064123 -0.12385,-1.9196363 0,-1.713224 0.006,-1.801483 0.12385,-1.919636 0.15207,-0.152073 0.58314,-0.166059 1.02448,-0.03324 0.2371,0.07136 0.35838,0.07618 0.57081,0.02269 0.19835,-0.04995 0.31056,-0.04932 0.42398,0.0024 0.142,0.0647 0.15276,0.09852 0.13567,0.426257 l -0.0186,0.355985 -0.41928,0.201888 c -0.63876,0.307566 -0.66387,0.370774 -0.66416,1.6713051 -2.4e-4,1.2750199 -0.0186,1.3158797 -0.5885,1.3158797 -0.25802,0 -0.37061,-0.030024 -0.46443,-0.1238475 z"
         id="path842"
         inkscape:connector-curvature="0" />
    </g>
  </g>
</svg>
