<?xml version="1.0" encoding="UTF-8" standalone="no"?>
<svg
   xmlns:dc="http://purl.org/dc/elements/1.1/"
   xmlns:cc="http://creativecommons.org/ns#"
   xmlns:rdf="http://www.w3.org/1999/02/22-rdf-syntax-ns#"
   xmlns:svg="http://www.w3.org/2000/svg"
   xmlns="http://www.w3.org/2000/svg"
   xmlns:sodipodi="http://sodipodi.sourceforge.net/DTD/sodipodi-0.dtd"
   xmlns:inkscape="http://www.inkscape.org/namespaces/inkscape"
   width="250"
   height="91"
   viewBox="0 0 250 91"
   id="svg2"
   version="1.1"
   inkscape:version="1.0 (4035a4fb49, 2020-05-01)"
   sodipodi:docname="emergent.svg">
  <defs
     id="defs4" />
  <sodipodi:namedview
     id="base"
     pagecolor="#ffffff"
     bordercolor="#666666"
     borderopacity="1.0"
     inkscape:pageopacity="0.0"
     inkscape:pageshadow="2"
     inkscape:zoom="1.9799"
     inkscape:cx="183.26"
     inkscape:cy="27.908"
     inkscape:document-units="px"
     inkscape:current-layer="layer1"
     showgrid="false"
     inkscape:window-width="1920"
     inkscape:window-height="986"
     inkscape:window-x="-11"
     inkscape:window-y="-11"
     inkscape:window-maximized="1"
     units="px"
     inkscape:document-rotation="0" />
  <metadata
     id="metadata7">
    <rdf:RDF>
      <cc:Work
         rdf:about="">
        <dc:format>image/svg+xml</dc:format>
        <dc:type
           rdf:resource="http://purl.org/dc/dcmitype/StillImage" />
        <dc:title />
      </cc:Work>
    </rdf:RDF>
  </metadata>
  <g
     inkscape:label="Layer 1"
     inkscape:groupmode="layer"
     id="layer1"
     transform="translate(0,-961.4)">
    <rect
       style="opacity:0.001;fill:#c87137;fill-opacity:1;stroke:none;stroke-width:2.5;stroke-linecap:round;stroke-linejoin:round;stroke-miterlimit:4;stroke-dasharray:none;stroke-dashoffset:0;stroke-opacity:1"
       id="rect4175"
       width="250"
       height="91"
       x="0"
       y="961.4" />
    <g
       aria-label="EMER²GENT"
       id="text859"
       style="font-style:normal;font-weight:normal;font-size:33.2086px;line-height:1.25;font-family:sans-serif;letter-spacing:0px;word-spacing:0px;fill:#ffffff;fill-opacity:1;stroke:none;stroke-width:1.77903">
      <path
         d="M 40.908308,1018.9803 H 25.00126 v -24.14435 h 15.907048 v 2.85386 H 28.211857 v 6.61579 h 12.696451 v 2.8539 H 28.211857 v 8.9669 h 12.696451 z"
         style="font-style:normal;font-variant:normal;font-weight:normal;font-stretch:normal;font-family:sans-serif;-inkscape-font-specification:sans-serif;text-align:center;text-anchor:middle;fill:#ffffff;stroke-width:1.77903"
         id="path861" />
      <path
         d="M 67.517347,1018.9803 H 64.30675 v -20.80403 l -6.713067,14.15583 h -1.913386 l -6.664421,-14.15583 v 20.80403 h -2.9998 v -24.14435 h 4.378087 l 6.437409,13.44235 6.226612,-13.44235 h 4.459163 z"
         style="font-style:normal;font-variant:normal;font-weight:normal;font-stretch:normal;font-family:sans-serif;-inkscape-font-specification:sans-serif;text-align:center;text-anchor:middle;fill:#ffffff;stroke-width:1.77903"
         id="path863" />
      <path
         d="M 89.942881,1018.9803 H 74.035832 v -24.14435 h 15.907049 v 2.85386 H 77.246429 v 6.61579 h 12.696452 v 2.8539 H 77.246429 v 8.9669 h 12.696452 z"
         style="font-style:normal;font-variant:normal;font-weight:normal;font-stretch:normal;font-family:sans-serif;-inkscape-font-specification:sans-serif;text-align:center;text-anchor:middle;fill:#ffffff;stroke-width:1.77903"
         id="path865" />
      <path
         d="m 115.0277,1018.9803 h -4.16729 l -8.07514,-9.5994 h -4.524021 v 9.5994 h -3.210596 v -24.14435 h 6.761707 q 2.18905,0 3.64841,0.29187 1.45936,0.27566 2.62685,1.00534 1.31343,0.82697 2.04311,2.09175 0.7459,1.24857 0.7459,3.17819 0,2.6106 -1.31343,4.3781 -1.31343,1.7512 -3.61598,2.643 z m -7.50761,-17.3502 q 0,-1.0378 -0.37295,-1.83232 -0.35673,-0.81076 -1.19992,-1.36207 -0.69725,-0.47024 -1.65394,-0.64861 -0.95669,-0.19458 -2.2539,-0.19458 h -3.778131 v 9.11288 h 3.243031 q 1.52422,0 2.65928,-0.2594 1.13506,-0.2757 1.9296,-1.0054 0.72968,-0.681 1.0702,-1.5566 0.35673,-0.8918 0.35673,-2.2539 z"
         style="font-style:normal;font-variant:normal;font-weight:normal;font-stretch:normal;font-family:sans-serif;-inkscape-font-specification:sans-serif;text-align:center;text-anchor:middle;fill:#ffffff;stroke-width:1.77903"
         id="path867" />
      <path
         d="m 130.57801,1009.8025 h -12.3235 v -2.5295 q 1.62151,-1.0054 2.96737,-1.8972 1.36207,-0.8918 2.18904,-1.5567 2.12418,-1.6701 2.72414,-2.4971 0.59996,-0.8432 0.59996,-2.20526 0,-1.11884 -0.87562,-1.73502 -0.8594,-0.61617 -2.31876,-0.61617 -1.44315,0 -2.83765,0.50267 -1.3945,0.48645 -2.17283,0.98912 h -0.21079 v -2.91872 q 1.15127,-0.4216 2.56199,-0.69725 1.42693,-0.29188 2.83765,-0.29188 2.91872,0 4.42673,1.281 1.52422,1.26478 1.52422,3.29167 0,1.60534 -0.79454,2.83764 -0.77833,1.2161 -2.64307,2.6755 -0.89183,0.6973 -2.15661,1.5242 -1.24857,0.827 -2.31876,1.4918 h 8.82103 z"
         style="font-style:normal;font-variant:normal;font-weight:normal;font-stretch:normal;font-family:sans-serif;-inkscape-font-specification:sans-serif;text-align:center;text-anchor:middle;fill:#ffffff;stroke-width:1.77903"
         id="path869" />
      <path
         d="m 156.31143,1017.1966 q -1.97824,0.9081 -4.32944,1.5891 -2.33498,0.6648 -4.52402,0.6648 -2.82143,0 -5.17263,-0.7783 -2.35119,-0.7783 -4.00514,-2.335 -1.67016,-1.5728 -2.5782,-3.924 -0.90805,-2.3675 -0.90805,-5.5294 0,-5.7888 3.37275,-9.12913 3.38896,-3.35653 9.29127,-3.35653 2.05932,0 4.19972,0.50267 2.15661,0.48645 4.63753,1.67016 v 3.81053 h -0.29187 q -0.50267,-0.38914 -1.45937,-1.02153 -0.95669,-0.63239 -1.88095,-1.05398 -1.11885,-0.50267 -2.54578,-0.82698 -1.41072,-0.34051 -3.2106,-0.34051 -4.05378,0 -6.42119,2.61063 -2.35119,2.59447 -2.35119,7.03737 0,4.6862 2.4647,7.2968 2.4647,2.5944 6.71306,2.5944 1.55666,0 3.09709,-0.3081 1.55666,-0.308 2.72415,-0.7945 v -5.9185 h -6.46984 v -2.8215 h 9.648 z"
         style="font-style:normal;font-variant:normal;font-weight:normal;font-stretch:normal;font-family:sans-serif;-inkscape-font-specification:sans-serif;text-align:center;text-anchor:middle;fill:#ffffff;stroke-width:1.77903"
         id="path871" />
      <path
         d="m 177.82892,1018.9803 h -15.90705 v -24.14435 h 15.90705 v 2.85386 h -12.69645 v 6.61579 h 12.69645 v 2.8539 h -12.69645 v 8.9669 h 12.69645 z"
         style="font-style:normal;font-variant:normal;font-weight:normal;font-stretch:normal;font-family:sans-serif;-inkscape-font-specification:sans-serif;text-align:center;text-anchor:middle;fill:#ffffff;stroke-width:1.77903"
         id="path873" />
      <path
         d="m 201.35708,1018.9803 h -3.97271 l -11.44789,-21.59858 v 21.59858 h -2.9998 v -24.14435 h 4.97805 l 10.44255,19.71765 v -19.71765 h 2.9998 z"
         style="font-style:normal;font-variant:normal;font-weight:normal;font-stretch:normal;font-family:sans-serif;-inkscape-font-specification:sans-serif;text-align:center;text-anchor:middle;fill:#ffffff;stroke-width:1.77903"
         id="path875" />
      <path
         d="m 224.99874,997.68981 h -8.62645 v 21.29049 h -3.2106 v -21.29049 h -8.62645 v -2.85386 h 20.4635 z"
         style="font-style:normal;font-variant:normal;font-weight:normal;font-stretch:normal;font-family:sans-serif;-inkscape-font-specification:sans-serif;text-align:center;text-anchor:middle;fill:#ffffff;stroke-width:1.77903"
         id="path877" />
    </g>
  </g>
</svg>
