<?xml version="1.0" encoding="UTF-8"?>
<svg version="1.1" viewBox="0 0 250 91" xmlns="http://www.w3.org/2000/svg" xmlns:cc="http://creativecommons.org/ns#" xmlns:dc="http://purl.org/dc/elements/1.1/" xmlns:rdf="http://www.w3.org/1999/02/22-rdf-syntax-ns#">
<metadata>
<rdf:RDF>
<cc:Work rdf:about="">
<dc:format>image/svg+xml</dc:format>
<dc:type rdf:resource="http://purl.org/dc/dcmitype/StillImage"/>
<dc:title/>
</cc:Work>
</rdf:RDF>
</metadata>
<g transform="translate(0,-961.4)">
<g fill="#fff" stroke-width="1.779" aria-label="EMER²GENT">
<path d="m40.908 1019h-15.907v-24.144h15.907v2.8539h-12.696v6.6158h12.696v2.8539h-12.696v8.9669h12.696z"/>
<path d="m67.517 1019h-3.2106v-20.804l-6.7131 14.156h-1.9134l-6.6644-14.156v20.804h-2.9998v-24.144h4.3781l6.4374 13.442 6.2266-13.442h4.4592z"/>
<path d="m89.943 1019h-15.907v-24.144h15.907v2.8539h-12.696v6.6158h12.696v2.8539h-12.696v8.9669h12.696z"/>
<path d="m115.03 1019h-4.1673l-8.0751-9.5994h-4.524v9.5994h-3.2106v-24.144h6.7617q2.189 0 3.6484 0.29187 1.4594 0.27566 2.6268 1.0053 1.3134 0.82697 2.0431 2.0918 0.7459 1.2486 0.7459 3.1782 0 2.6106-1.3134 4.3781-1.3134 1.7512-3.616 2.643zm-7.5076-17.35q0-1.0378-0.37295-1.8323-0.35673-0.81076-1.1999-1.3621-0.69725-0.47024-1.6539-0.64861-0.95669-0.19458-2.2539-0.19458h-3.7781v9.1129h3.243q1.5242 0 2.6593-0.2594 1.1351-0.2757 1.9296-1.0054 0.72968-0.681 1.0702-1.5566 0.35673-0.8918 0.35673-2.2539z"/>
<path d="m130.58 1009.8h-12.324v-2.5295q1.6215-1.0054 2.9674-1.8972 1.3621-0.8918 2.189-1.5567 2.1242-1.6701 2.7241-2.4971 0.59996-0.8432 0.59996-2.2053 0-1.1188-0.87562-1.735-0.8594-0.61617-2.3188-0.61617-1.4432 0-2.8376 0.50267-1.3945 0.48645-2.1728 0.98912h-0.21079v-2.9187q1.1513-0.4216 2.562-0.69725 1.4269-0.29188 2.8376-0.29188 2.9187 0 4.4267 1.281 1.5242 1.2648 1.5242 3.2917 0 1.6053-0.79454 2.8376-0.77833 1.2161-2.6431 2.6755-0.89183 0.6973-2.1566 1.5242-1.2486 0.827-2.3188 1.4918h8.821z"/>
<path d="m156.31 1017.2q-1.9782 0.9081-4.3294 1.5891-2.335 0.6648-4.524 0.6648-2.8214 0-5.1726-0.7783-2.3512-0.7783-4.0051-2.335-1.6702-1.5728-2.5782-3.924-0.90805-2.3675-0.90805-5.5294 0-5.7888 3.3728-9.1291 3.389-3.3565 9.2913-3.3565 2.0593 0 4.1997 0.50267 2.1566 0.48645 4.6375 1.6702v3.8105h-0.29187q-0.50267-0.38914-1.4594-1.0215-0.95669-0.63239-1.881-1.054-1.1188-0.50267-2.5458-0.82698-1.4107-0.34051-3.2106-0.34051-4.0538 0-6.4212 2.6106-2.3512 2.5945-2.3512 7.0374 0 4.6862 2.4647 7.2968 2.4647 2.5944 6.7131 2.5944 1.5567 0 3.0971-0.3081 1.5567-0.308 2.7242-0.7945v-5.9185h-6.4698v-2.8215h9.648z"/>
<path d="m177.83 1019h-15.907v-24.144h15.907v2.8539h-12.696v6.6158h12.696v2.8539h-12.696v8.9669h12.696z"/>
<path d="m201.36 1019h-3.9727l-11.448-21.599v21.599h-2.9998v-24.144h4.978l10.443 19.718v-19.718h2.9998z"/>
<path d="m225 997.69h-8.6264v21.29h-3.2106v-21.29h-8.6264v-2.8539h20.464z"/>
</g>
</g>
</svg>
