<?xml version="1.0" encoding="UTF-8"?>
<svg version="1.1" viewBox="0 0 250 91" xmlns="http://www.w3.org/2000/svg" xmlns:cc="http://creativecommons.org/ns#" xmlns:dc="http://purl.org/dc/elements/1.1/" xmlns:rdf="http://www.w3.org/1999/02/22-rdf-syntax-ns#">
<metadata>
<rdf:RDF>
<cc:Work rdf:about="">
<dc:format>image/svg+xml</dc:format>
<dc:type rdf:resource="http://purl.org/dc/dcmitype/StillImage"/>
<dc:title/>
</cc:Work>
</rdf:RDF>
</metadata>
<g transform="translate(0,-961.4)" fill="#fff">
<path d="m45.405 1030.4c-3.6826-4.0692 2.4197-9.6799 6.3037-5.7959 1.6609 1.6609 1.5001 4.3571-0.37143 6.2286-2.1002 2.1001-3.7489 1.9799-5.9322-0.4327zm9.5852-3.3639c-1.1448-1.8525-2.0816-4.5616-2.0816-6.0204v-2.6522l-3.7556 1.9159c-5.656 2.8855-11.865 4.2865-15.759 3.5559-4.2917-0.8051-4.5542-2.0964-0.44981-2.2131 1.6694-0.048 4.707-0.6319 6.75-1.2987 4.0101-1.3088 13.572-7.0712 14.663-8.8364 1.5-2.4272 2.0549-0.6836 2.1237 6.6739 0.0399 4.2587 0.61818 8.7556 1.2852 9.9931 1.928 3.577-0.47165 2.6106-2.7761-1.118zm7.5711-6.1497c-0.81831-5.9702-3.4234-11.777-7.9004-17.61l-3.5517-4.6273 7.6498-0.5437c4.2074-0.2989 8.7748-0.8748 10.15-1.2796 2.4943-0.7344 2.4956-0.7311 0.5872 1.4295-1.052 1.1911-3.6395 2.683-5.75 3.3153s-3.8372 1.2588-3.8372 1.3921 1.1206 2.6496 2.4902 5.5917c2.5019 5.3744 3.305 13.047 1.6404 15.672-0.55197 0.8706-1.0573-0.2717-1.478-3.3406zm12.797 0.2472c-0.28407-0.7402-0.38897-6.7197-0.2331-13.288l0.28339-11.942h9.5c7.7778 0 9.5 0.2719 9.5 1.5 0 1.1792-1.6576 1.5625-7.75 1.7921l-7.75 0.292v6.9159h7.5733c6.6732 0 7.5336 0.208 7.2394 1.75-0.27492 1.4408-1.6131 1.8019-7.5733 2.0438l-7.2394 0.2938v7.9124h8.0733c7.1497 0 8.035 0.2002 7.7386 1.75-0.28516 1.4908-1.7058 1.7926-9.5902 2.0377-7.0396 0.2189-9.3791-0.034-9.772-1.0582zm22.238 0.6247c-0.37812-0.3782-0.6875-4.8875-0.6875-10.021 0-7.4597 0.28927-9.3333 1.441-9.3333 0.79255 0 1.7433 0.4892 2.1129 1.0871 0.48383 0.7829 0.97618 0.7829 1.759 0 1.749-1.7489 7.2085-1.2734 9.0764 0.7906 2.309 2.5514 1.9761 17.622-0.38928 17.622-1.1665 0-1.5649-1.5923-1.792-7.1624-0.33674-8.2587-1.7232-10.335-5.6929-8.5264-2.1946 0.9999-2.4538 1.7923-2.7204 8.317-0.26927 6.5906-1.3137 9.0194-3.1072 7.226zm21.075-1.3219c-7.5521-5.9533-3.9219-18.032 5.4195-18.032 4.9941 0 9.1019 3.6968 8.6328 7.7691-0.30405 2.6395-0.54054 2.7408-7.0646 3.0266-7.3792 0.3232-8.7805 1.8278-4.385 4.7078 2.4547 1.6084 6.6763 0.8566 8.0969-1.4418 1.0524-1.7028 2.5381-1.2252 2.5381 0.8159 0 4.6102-8.747 6.6947-13.238 3.1547zm10.238-11.497c0-1.5862-2.9566-3.5352-5.3628-3.5352-1.6545 0-4.6372 2.6188-4.6372 4.0714 0 0.5107 2.25 0.9286 5 0.9286 3.7244 0 5-0.3737 5-1.4648zm6.6875 12.819c-0.37812-0.3782-0.6875-4.8875-0.6875-10.021 0-7.4597 0.28927-9.3333 1.441-9.3333 0.79254 0 1.7326 0.4719 2.089 1.0486 0.44371 0.7179 1.0889 0.6826 2.0463-0.1119 1.5118-1.2547 4.4237-0.6114 4.4237 0.9773 0 0.5373-1.2375 1.5676-2.75 2.2896-2.5204 1.2031-2.7917 1.8898-3.25 8.2262-0.45958 6.3546-1.5671 8.6698-3.3125 6.9244zm32.827-1.1042c-3.7698-9.4359-8.4064-23.617-7.9586-24.341 2.0233-3.2738 5.4165 2.4825 8.6998 14.758 0.63732 2.3829 1.4029 4.3287 1.7014 4.324 0.29843 0 1.3993-2.8172 2.4463-6.25 3.0535-10.011 4.7219-13.742 6.1458-13.742 0.73282 0 1.5852 0.4091 1.8942 0.9091 0.62912 1.0179-6.9174 22.752-8.6068 24.787-1.516 1.8267-3.4956 1.6222-4.3221-0.4465zm13.654-0.7619c-3.5111-4.4636-1.1934-8.0761 5.9654-9.2982 2.8336-0.4838 4.4579-1.313 4.6635-2.3807 0.46664-2.423-3.4277-3.282-6.312-1.3921-2.9566 1.9372-4.4862 2.0183-4.4862 0.2379 0-2.4911 3.5672-4.655 7.6738-4.655 5.997 0 7.3262 2.0447 7.3262 11.27 0 7.4298-1.2575 10.55-3.0702 7.6168-0.67421-1.0909-1.0993-1.117-2.0882-0.1281-2.1964 2.1963-7.4926 1.5008-9.6723-1.2703zm8.2656-1.4633c1.8069-0.687 2.5651-1.7123 2.5651-3.4687 0-1.5334-0.48126-2.3451-1.25-2.1082-0.6875 0.2118-2.4875 0.6562-4 0.9876-2.8851 0.6322-3.8959 3.9355-1.5 4.9022 0.6875 0.2774 1.3332 0.5399 1.4349 0.5834 0.1017 0.043 1.3392-0.36 2.75-0.8963zm11.565-4.0248c0-6.4444-0.29167-8-1.5-8-0.825 0-1.5-0.6891-1.5-1.5314 0-0.8422 0.675-1.7904 1.5-2.107s1.5-1.6259 1.5-2.9096c0-1.2837 0.39901-2.5806 0.88669-2.882 1.2818-0.7921 3.4347 2.15 2.7944 3.8187-0.32534 0.8478 0.2306 1.6164 1.3881 1.9191 2.409 0.63 2.5226 2.7252 0.1808 3.3354-1.4556 0.3793-1.6919 1.3816-1.4045 5.9577 0.4238 6.7482-0.40636 10.399-2.3646 10.399-1.1845 0-1.481-1.6013-1.481-8zm12.303 6.803c-1.2086-0.584-2.9479-2.6433-3.8652-4.5762-3.0735-6.477 1.1416-14.227 7.7381-14.227 5.7474 0 10.499 4.2378 9.6628 8.6186-0.30209 1.5833-1.4269 1.9283-7.0986 2.1771-7.462 0.3274-8.7654 1.8309-4.1873 4.8306 2.4336 1.5945 2.6942 1.5675 5.5978-0.5792 2.322-1.7167 3.3191-1.9732 4.1976-1.0798 0.87318 0.888 0.47272 1.7604-1.6535 3.6023-2.9589 2.5631-6.7164 3.009-10.392 1.2334zm9.6974-12.324c0-2.4217-4.5116-4.0222-7.5-2.6606-4.4357 2.0211-3.144 4.182 2.5 4.182 3.8091 0 5-0.3624 5-1.5214zm-198.16 6.5572c1.2896-1.1053 4.0765-2.476 6.1932-3.046l3.8486-1.0363-2.4335-5.2268c-2.5284-5.4306-3.388-15.031-1.453-16.227 0.58313-0.3604 1 0.6527 1 2.4303 0 4.3742 3.231 12.261 7.4014 18.065 1.9792 2.755 3.5986 5.1205 3.5986 5.2567s-2.8125 0.2477-6.25 0.2477-8.05 0.3477-10.25 0.7727l-4 0.7728zm-2.4534-5.5614c-1.5496-2.3651-1.5413-2.6512 0.13193-4.5 0.98273-1.0859 2.5473-1.9744 3.4768-1.9744 0.92952 0 2.4941 0.8885 3.4768 1.9744 1.6732 1.8488 1.6816 2.1349 0.13194 4.5-2.1135 3.2256-5.104 3.2256-7.2175 0zm41.809-0.6744c-2.0693-2.0693-1.4159-5.7445 1.2362-6.9529 1.3399-0.6105 3.1265-0.8451 3.9702-0.5214 2.1098 0.8096 3.1092 5.348 1.5828 7.1873-1.4861 1.7907-5.1315 1.9448-6.7892 0.287zm80.323 0.2367c-0.35718-0.578-8e-3 -1.297 0.77593-1.5978 2.3002-0.8827 12.702-0.031 12.963 1.0611 0.32671 1.3699-12.904 1.8867-13.739 0.5367zm-106.69-12.566c0.1852-3.5937-0.15433-7.9426-0.75451-9.6643s-0.83344-3.3881-0.51834-3.7032c1.0338-1.0338 4.412 4.3201 5.0304 7.9723l0.6054 3.5752 4.1277-2.0423c2.3563-1.1657 6.8533-2.2157 10.479-2.4466 7.7598-0.4941 10.548 1.2644 3.5068 2.212-5.5972 0.7533-14.255 4.5591-18.503 8.1331-1.6298 1.3714-3.2663 2.4944-3.6366 2.4956-0.3703 0-0.52175-2.9382-0.33654-6.5318zm5.9941-6.7203c-2.6333-2.1217-2.9346-4.6463-0.80819-6.7727 2.4608-2.4608 4.193-2.5015 6.3223-0.1486 2.1631 2.3902 2.0877 3.7386-0.34502 6.1713-2.3354 2.3354-3.0693 2.4419-5.1691 0.75z"/>
</g>
</svg>
