<?xml version="1.0" encoding="UTF-8" standalone="no"?>
<!-- Created with Inkscape (http://www.inkscape.org/) -->

<svg
   xmlns:dc="http://purl.org/dc/elements/1.1/"
   xmlns:cc="http://creativecommons.org/ns#"
   xmlns:rdf="http://www.w3.org/1999/02/22-rdf-syntax-ns#"
   xmlns:svg="http://www.w3.org/2000/svg"
   xmlns="http://www.w3.org/2000/svg"
   xmlns:sodipodi="http://sodipodi.sourceforge.net/DTD/sodipodi-0.dtd"
   xmlns:inkscape="http://www.inkscape.org/namespaces/inkscape"
   width="250"
   height="91"
   viewBox="0 0 250 91"
   id="svg2"
   version="1.1"
   inkscape:version="0.92.2 (5c3e80d, 2017-08-06)"
   sodipodi:docname="enervate.svg">
  <defs
     id="defs4" />
  <sodipodi:namedview
     id="base"
     pagecolor="#ffffff"
     bordercolor="#666666"
     borderopacity="1.0"
     inkscape:pageopacity="0.0"
     inkscape:pageshadow="2"
     inkscape:zoom="3.16"
     inkscape:cx="172.82975"
     inkscape:cy="27.431056"
     inkscape:document-units="px"
     inkscape:current-layer="layer1"
     showgrid="false"
     inkscape:window-width="1920"
     inkscape:window-height="1001"
     inkscape:window-x="-9"
     inkscape:window-y="-9"
     inkscape:window-maximized="1"
     units="px" />
  <metadata
     id="metadata7">
    <rdf:RDF>
      <cc:Work
         rdf:about="">
        <dc:format>image/svg+xml</dc:format>
        <dc:type
           rdf:resource="http://purl.org/dc/dcmitype/StillImage" />
        <dc:title></dc:title>
      </cc:Work>
    </rdf:RDF>
  </metadata>
  <g
     inkscape:label="Layer 1"
     inkscape:groupmode="layer"
     id="layer1"
     transform="translate(0,-961.4)">
    <rect
       style="opacity:0.001;fill:#ffffff;fill-opacity:1;stroke:none;stroke-width:2.5;stroke-linecap:round;stroke-linejoin:round;stroke-miterlimit:4;stroke-dasharray:none;stroke-dashoffset:0;stroke-opacity:1"
       id="rect4175"
       width="250"
       height="91"
       x="0"
       y="961.4" />
    <path
       style="fill:#ffffff"
       d="m 45.40524,1030.3919 c -3.68258,-4.0692 2.41967,-9.6799 6.30367,-5.7959 1.66088,1.6609 1.50009,4.3571 -0.37143,6.2286 -2.10016,2.1001 -3.74891,1.9799 -5.93224,-0.4327 z m 9.58523,-3.3639 c -1.14485,-1.8525 -2.08156,-4.5616 -2.08156,-6.0204 v -2.6522 l -3.75562,1.9159 c -5.65605,2.8855 -11.86494,4.2865 -15.75919,3.5559 -4.29172,-0.8051 -4.55417,-2.0964 -0.44981,-2.2131 1.66945,-0.048 4.70695,-0.6319 6.75,-1.2987 4.01012,-1.3088 13.57236,-7.0712 14.66334,-8.8364 1.50005,-2.4272 2.05489,-0.6836 2.12374,6.6739 0.0399,4.2587 0.61818,8.7556 1.28518,9.9931 1.92799,3.577 -0.47165,2.6106 -2.77608,-1.118 z m 7.57107,-6.1497 c -0.81831,-5.9702 -3.4234,-11.7769 -7.90039,-17.6096 l -3.55174,-4.62731 7.64975,-0.5437 c 4.20737,-0.2989 8.77475,-0.8748 10.14975,-1.2796 2.4943,-0.7344 2.49564,-0.7311 0.5872,1.4295 -1.05204,1.19109 -3.63954,2.68301 -5.75,3.31531 -2.11046,0.6323 -3.8372,1.2588 -3.8372,1.3921 0,0.1333 1.12061,2.6496 2.49023,5.5917 2.5019,5.3744 3.30496,13.0468 1.64038,15.6722 -0.55197,0.8706 -1.05733,-0.2717 -1.47798,-3.3406 z m 12.79708,0.2472 c -0.28407,-0.7402 -0.38897,-6.7197 -0.2331,-13.2877 l 0.28339,-11.94181 h 9.5 c 7.777779,0 9.499999,0.2719 9.499999,1.5 0,1.1792 -1.65758,1.56249 -7.749999,1.79209 l -7.75,0.292 v 3.45802 3.4579 h 7.57333 c 6.673229,0 7.533629,0.208 7.239389,1.75 -0.27492,1.4408 -1.61306,1.8019 -7.573319,2.0438 l -7.2394,0.2938 v 3.9562 3.9562 h 8.07333 c 7.149729,0 8.035019,0.2002 7.738569,1.75 -0.28516,1.4908 -1.7058,1.7926 -9.590219,2.0377 -7.03961,0.2189 -9.37913,-0.034 -9.77197,-1.0582 z m 22.237789,0.6247 c -0.37812,-0.3782 -0.6875,-4.8875 -0.6875,-10.0209 0,-7.4597 0.28927,-9.3333 1.44098,-9.3333 0.79255,0 1.743341,0.4892 2.112871,1.0871 0.48383,0.7829 0.97618,0.7829 1.75902,0 1.74897,-1.7489 7.20853,-1.2734 9.07641,0.7906 2.30904,2.5514 1.97612,17.6223 -0.38928,17.6223 -1.16653,0 -1.56492,-1.5923 -1.79204,-7.1624 -0.33674,-8.2587 -1.72315,-10.3352 -5.69292,-8.5264 -2.19464,0.9999 -2.4538,1.7923 -2.72039,8.317 -0.26927,6.5906 -1.313681,9.0194 -3.107151,7.226 z m 21.074791,-1.3219 c -7.55214,-5.9533 -3.92186,-18.0323 5.41953,-18.0323 4.99408,0 9.10186,3.6968 8.63276,7.7691 -0.30405,2.6395 -0.54054,2.7408 -7.06458,3.0266 -7.37917,0.3232 -8.78051,1.8278 -4.38498,4.7078 2.45471,1.6084 6.67633,0.8566 8.09686,-1.4418 1.05237,-1.7028 2.53812,-1.2252 2.53812,0.8159 0,4.6102 -8.74702,6.6947 -13.23771,3.1547 z m 10.23771,-11.4971 c 0,-1.5862 -2.95665,-3.5352 -5.36283,-3.5352 -1.65448,0 -4.63717,2.6188 -4.63717,4.0714 0,0.5107 2.25,0.9286 5,0.9286 3.7244,0 5,-0.3737 5,-1.4648 z m 6.6875,12.819 c -0.37812,-0.3782 -0.6875,-4.8875 -0.6875,-10.0209 0,-7.4597 0.28927,-9.3333 1.44098,-9.3333 0.79254,0 1.73261,0.4719 2.08903,1.0486 0.44371,0.7179 1.08891,0.6826 2.04628,-0.1119 1.51182,-1.2547 4.42371,-0.6114 4.42371,0.9773 0,0.5373 -1.2375,1.5676 -2.75,2.2896 -2.52045,1.2031 -2.79174,1.8898 -3.25,8.2262 -0.45958,6.3546 -1.56711,8.6698 -3.3125,6.9244 z m 32.82732,-1.1042 c -3.7698,-9.4359 -8.40635,-23.61651 -7.95861,-24.34091 2.0233,-3.2738 5.41652,2.4825 8.69984,14.75841 0.63732,2.3829 1.40293,4.3287 1.70135,4.324 0.29843,0 1.39928,-2.8172 2.44634,-6.25 3.05353,-10.01122 4.72192,-13.74151 6.14582,-13.74151 0.73282,0 1.58523,0.4091 1.89423,0.9091 0.62912,1.0179 -6.91745,22.75181 -8.60684,24.78741 -1.51605,1.8267 -3.49564,1.6222 -4.32213,-0.4465 z m 13.65449,-0.7619 c -3.51109,-4.4636 -1.19344,-8.0761 5.9654,-9.2982 2.83355,-0.4838 4.45789,-1.313 4.66351,-2.3807 0.46664,-2.423 -3.42774,-3.282 -6.312,-1.3921 -2.95658,1.9372 -4.48622,2.0183 -4.48622,0.2379 0,-2.4911 3.56717,-4.655 7.67375,-4.655 5.99703,0 7.32625,2.0447 7.32625,11.2697 0,7.4298 -1.25754,10.5497 -3.07016,7.6168 -0.67421,-1.0909 -1.09934,-1.117 -2.0882,-0.1281 -2.19636,2.1963 -7.49261,1.5008 -9.67233,-1.2703 z m 8.26559,-1.4633 c 1.80686,-0.687 2.5651,-1.7123 2.5651,-3.4687 0,-1.5334 -0.48126,-2.3451 -1.25,-2.1082 -0.6875,0.2118 -2.4875,0.6562 -4,0.9876 -2.88512,0.6322 -3.89587,3.9355 -1.5,4.9022 0.6875,0.2774 1.33321,0.5399 1.4349,0.5834 0.1017,0.043 1.3392,-0.36 2.75,-0.8963 z m 11.5651,-4.0248 c 0,-6.4444 -0.29167,-8 -1.5,-8 -0.825,0 -1.5,-0.6891 -1.5,-1.5314 0,-0.8422 0.675,-1.7904 1.5,-2.107 0.825,-0.3166 1.5,-1.6259 1.5,-2.90962 0,-1.28369 0.39901,-2.58059 0.88669,-2.88199 1.28176,-0.7921 3.43472,2.14999 2.79438,3.81871 -0.32534,0.8478 0.2306,1.6164 1.38813,1.9191 2.40898,0.63 2.52256,2.7252 0.1808,3.3354 -1.45559,0.3793 -1.69187,1.3816 -1.40447,5.9577 0.4238,6.7482 -0.40636,10.3991 -2.36458,10.3991 -1.18452,0 -1.48095,-1.6013 -1.48095,-8 z m 12.30255,6.803 c -1.20859,-0.584 -2.94792,-2.6433 -3.86518,-4.5762 -3.07353,-6.477 1.14165,-14.2268 7.73808,-14.2268 5.7474,0 10.49869,4.2378 9.66285,8.6186 -0.30209,1.5833 -1.42693,1.9283 -7.09864,2.1771 -7.46204,0.3274 -8.76535,1.8309 -4.18728,4.8306 2.43355,1.5945 2.69416,1.5675 5.59778,-0.5792 2.32196,-1.7167 3.3191,-1.9732 4.19761,-1.0798 0.87318,0.888 0.47272,1.7604 -1.65353,3.6023 -2.95891,2.5631 -6.71643,3.009 -10.39169,1.2334 z m 9.69745,-12.3244 c 0,-2.4217 -4.51159,-4.0222 -7.5,-2.6606 -4.43574,2.0211 -3.14395,4.182 2.5,4.182 3.80909,0 5,-0.3624 5,-1.5214 z m -198.155333,6.5572 c 1.28956,-1.1053 4.076513,-2.476 6.193223,-3.046 l 3.84856,-1.0363 -2.43346,-5.2268 c -2.52836,-5.4306 -3.38799,-15.03081 -1.45299,-16.22671 0.58313,-0.3604 1,0.6527 1,2.4303 0,4.3742 3.23101,12.26051 7.40138,18.06531 1.97924,2.755 3.59862,5.1205 3.59862,5.2567 0,0.1362 -2.8125,0.2477 -6.25,0.2477 -3.4375,0 -8.05,0.3477 -10.250003,0.7727 l -4,0.7728 z m -2.45341,-5.5614 c -1.54965,-2.3651 -1.54126,-2.6512 0.13193,-4.5 0.98273,-1.0859 2.5473,-1.9744 3.47681,-1.9744 0.92952,0 2.494083,0.8885 3.476813,1.9744 1.6732,1.8488 1.68159,2.1349 0.13194,4.5 -2.113543,3.2256 -5.103953,3.2256 -7.217493,0 z m 41.808743,-0.6744 c -2.06934,-2.0693 -1.4159,-5.7445 1.23623,-6.9529 1.33993,-0.6105 3.12652,-0.8451 3.9702,-0.5214 2.10977,0.8096 3.10923,5.348 1.5828,7.1873 -1.48613,1.7907 -5.13146,1.9448 -6.78923,0.287 z m 80.32266,0.2367 c -0.35718,-0.578 -0.008,-1.297 0.77593,-1.5978 2.30022,-0.8827 12.7024,-0.031 12.96291,1.0611 0.32671,1.3699 -12.90448,1.8867 -13.73884,0.5367 z M 38.74565,996.86629 c 0.1852,-3.5937 -0.15433,-7.9426 -0.75451,-9.6643 -0.60018,-1.7217 -0.83344,-3.3881 -0.51834,-3.7032 1.03376,-1.0338 4.41196,4.3201 5.03041,7.9723 l 0.6054,3.5752 4.12772,-2.0423 c 2.35627,-1.1657 6.85331,-2.2157 10.47866,-2.4466 7.75981,-0.4941 10.54765,1.2644 3.50676,2.212 -5.59718,0.7533 -14.25549,4.5591 -18.50298,8.13311 -1.62982,1.3714 -3.26628,2.4944 -3.63658,2.4956 -0.3703,0 -0.52175,-2.9382 -0.33654,-6.53181 z m 5.99413,-6.7203 c -2.6333,-2.1217 -2.93456,-4.6463 -0.80819,-6.7727 2.46079,-2.4608 4.19298,-2.5015 6.32234,-0.1486 2.16309,2.3902 2.08771,3.7386 -0.34502,6.1713 -2.33543,2.3354 -3.06928,2.4419 -5.16913,0.75 z"
       id="path4549"
       inkscape:connector-curvature="0" />
  </g>
</svg>
