<?xml version="1.0" encoding="UTF-8" standalone="no"?>
<!-- Created with Inkscape (http://www.inkscape.org/) -->

<svg xmlns:dc="http://purl.org/dc/elements/1.1/" xmlns:cc="http://creativecommons.org/ns#" xmlns:rdf="http://www.w3.org/1999/02/22-rdf-syntax-ns#" xmlns:svg="http://www.w3.org/2000/svg" xmlns="http://www.w3.org/2000/svg" xmlns:sodipodi="http://sodipodi.sourceforge.net/DTD/sodipodi-0.dtd" xmlns:inkscape="http://www.inkscape.org/namespaces/inkscape" width="250" height="91" viewBox="0 0 250 91" id="svg2" version="1.1" inkscape:version="0.91 r13725" sodipodi:docname="esri.svg">
  <defs id="defs4">
    <radialGradient fx="0" fy="0" cx="0" cy="0" r="1" gradientUnits="userSpaceOnUse" gradientTransform="matrix(16.513,0,0,16.513,8.022,1093)" spreadMethod="pad" id="radialGradient3658">
      <stop style="stop-opacity:1;stop-color:#bfe6f9" offset="0" id="stop3660" />
      <stop style="stop-opacity:1;stop-color:#1478c7" offset="1" id="stop3662" />
    </radialGradient>
    <radialGradient fx="0" fy="0" cx="0" cy="0" r="1" gradientUnits="userSpaceOnUse" gradientTransform="matrix(20.257,0,0,20.257,131.13,151.54)" spreadMethod="pad" id="radialGradient3684">
      <stop style="stop-opacity:1;stop-color:#a6d71c" offset="0" id="stop3686" />
      <stop style="stop-opacity:1;stop-color:#23a03d" offset="0.960678" id="stop3688" />
      <stop style="stop-opacity:1;stop-color:#23a03d" offset="1" id="stop3690" />
    </radialGradient>
    <radialGradient fx="0" fy="0" cx="0" cy="0" r="1" gradientUnits="userSpaceOnUse" gradientTransform="matrix(25.746,0,0,25.746,136.25,150.22)" spreadMethod="pad" id="radialGradient3712">
      <stop style="stop-opacity:1;stop-color:#a6d71c" offset="0" id="stop3714" />
      <stop style="stop-opacity:1;stop-color:#23a03d" offset="0.960678" id="stop3716" />
      <stop style="stop-opacity:1;stop-color:#23a03d" offset="1" id="stop3718" />
    </radialGradient>
    <radialGradient fx="0" fy="0" cx="0" cy="0" r="1" gradientUnits="userSpaceOnUse" gradientTransform="matrix(34.031,0,0,34.031,138.13,139.23)" spreadMethod="pad" id="radialGradient3740">
      <stop style="stop-opacity:1;stop-color:#a6d71c" offset="0" id="stop3742" />
      <stop style="stop-opacity:1;stop-color:#23a03d" offset="0.960678" id="stop3744" />
      <stop style="stop-opacity:1;stop-color:#23a03d" offset="1" id="stop3746" />
    </radialGradient>
  </defs>
  <sodipodi:namedview id="base" pagecolor="#ffffff" bordercolor="#666666" borderopacity="1.0" inkscape:pageopacity="0.0" inkscape:pageshadow="2" inkscape:zoom="1.9799" inkscape:cx="199.8" inkscape:cy="-37.8" inkscape:document-units="px" inkscape:current-layer="layer1" showgrid="false" inkscape:window-width="1280" inkscape:window-height="751" inkscape:window-x="0" inkscape:window-y="0" inkscape:window-maximized="0" units="px" />
  <metadata id="metadata7">
    <rdf:RDF>
      <cc:Work rdf:about="">
        <dc:format>image/svg+xml</dc:format>
        <dc:type rdf:resource="http://purl.org/dc/dcmitype/StillImage" />
        <dc:title></dc:title>
      </cc:Work>
    </rdf:RDF>
  </metadata>
  <g inkscape:label="Layer 1" inkscape:groupmode="layer" id="layer1" transform="translate(0,-961.4)">
    <g id="g5365" transform="translate(10.28,-1.145)">
      <g id="g5357">
        <path d="m 26.936,1005.5 c 0,10 8.202,18.3 18.313,18.3 l 0,0 c 10.113,0 18.313,-8.3 18.313,-18.3 l 0,0 c 0,-10.19 -8.2,-18.37 -18.313,-18.37 l 0,0 c -10.111,0 -18.313,8.18 -18.313,18.37" style="fill:#ffffff;fill-opacity:0.74874;stroke:none" id="ocean" inkscape:connector-curvature="0" />
        <g id="continents" transform="matrix(0.78655,0,0,0.78655,-64.467,883.02)" style="fill:#ffffff;fill-opacity:0.74874">
          <path id="na" style="fill:#ffffff;fill-opacity:0.74874;stroke:none" d="m 129.67,137.31 c -1.8,0.1 -3.52,0.31 -5.23,0.57 l 0,0 c -4.86,4.12 -8,10.2 -8.21,17.02 l 0,0 c 1.38,1.44 3.19,4.71 5.28,6.6 l 0,0 c 0.27,-0.12 0.57,-0.23 0.9,-0.32 l 0,0 c -1.03,-1.2 -2.46,-2.78 -2.68,-3.5 l 0,0 c -1.06,-3.56 0.17,-6.9 2.81,-7.16 l 0,0 c 2.37,-0.24 4.4,-3.77 6.07,-6.08 l 0,0 c 3.44,-4.75 8.72,-3.96 8.45,-6.34 l 0,0 c -0.3,-1.39 -1.12,-1.81 -2.17,-1.81 l 0,0 c -1.58,0 -3.66,0.96 -5.22,1.02" inkscape:connector-curvature="0" />
          <path id="sa" style="fill:#ffffff;fill-opacity:0.74874;stroke:none" d="m 123.4,160.89 c -0.34,0.1 -0.67,0.19 -0.99,0.29 l 0,0 c -0.29,0.1 -0.51,0.19 -0.9,0.32 l 0,0 c -0.86,0.38 -1.47,0.97 -1.62,2.21 l 0,0 c -0.26,2.27 1.89,4.04 3.7,4.56 l 0,0 c 2.3,0.66 2.5,-0.11 3.7,1.52 l 0,0 c 0.85,1.14 1.01,3.25 1.44,4.64 l 0,0 c 0.24,0.78 0.57,1.56 0.96,2.31 l 0,0 c 1.64,0.77 3.38,1.35 5.21,1.71 l 0,0 c 0.45,-2.68 0.25,-6.3 0.84,-7.86 l 0,0 c 1.23,-3.2 1.93,-4.62 0.27,-7.92 l 0,0 c -3.66,-1.04 -4.77,-1.36 -8.45,-2.12 l 0,0 c -0.75,-0.15 -1.22,-0.23 -1.65,-0.23 l 0,0 c -0.65,0 -1.19,0.19 -2.51,0.57" inkscape:connector-curvature="0" />
          <path id="africa" style="fill:#ffffff;fill-opacity:0.74874;stroke:none" d="m 146.04,142.33 c -1.07,1.54 -4.86,1.96 -6.07,3.7 l 0,0 c -0.95,1.35 0,4.01 -0.79,5.54 l 0,0 c -0.38,0.71 -0.21,2.76 0.26,3.43 l 0,0 c 1.45,2.12 3.87,0.94 5.7,1.71 l 0,0 c 2.22,0.92 2.47,3.5 4.32,5.39 l 0,0 c 1.84,1.88 -2.36,4.79 1.07,11.66 l 0,0 c 0.37,0.74 0.79,1.28 1.25,1.65 l 0,0 c 2.32,-1.45 4.36,-3.29 6.04,-5.43 l 0,0 c 0.52,-3.46 -0.65,-4.57 0.82,-7.75 l 0,0 c 0.9,-1.96 2.45,-5.34 4.11,-7.64 l 0,0 c -0.28,-6.43 -3.17,-12.18 -7.63,-16.23 l 0,0 c -0.42,0.12 -0.95,0.14 -1.68,0 l 0,0 c -0.63,-0.12 -1.19,-0.17 -1.7,-0.17 l 0,0 c -3.44,0 -4.47,2.37 -5.7,4.13" inkscape:connector-curvature="0" />
        </g>
        <path d="m 43.157,1024.9 c -0.607,-0.4 -1.368,-0.9 -2.077,-1.4 -0.294,0.3 -0.533,0.7 -0.767,1 0.812,0.2 1.91,0.2 2.844,0.4 m -3.203,-2.2 c -1.299,-1 -4.514,-4 -5.846,-5.8 -0.489,0.2 -1.029,1 -1.744,1.1 -0.28,0.1 -0.906,0.2 -1.092,0.1 -0.184,-0.1 0.04,-0.5 0.243,-0.8 0.347,-0.4 0.853,-1 1.593,-1.5 -1.585,-2.4 -2.337,-4.1 -3.415,-6.9 -0.623,0.4 -1.075,0.7 -1.618,1.2 -0.183,0.1 -0.686,0.2 -0.93,0 -0.443,-0.4 -0.45,-1.1 0.172,-1.5 0.257,-0.2 1.523,-1.1 1.819,-1.3 -0.78,-2.3 -1.432,-5.2 -1.604,-6.8 -0.519,0.5 -1.249,1 -1.455,1.1 -0.295,0.2 -0.492,0 -0.577,0 -0.296,3.2 0.05,6.7 0.99,9.8 1.623,5.5 6.177,10.6 12.32,12.6 0.144,-0.2 0.849,-1.1 1.144,-1.3 m -12.611,-23.78 c -0.08,-1.18 -0.171,-2.83 -0.171,-2.83 -0.864,1.89 -1.38,2.99 -1.62,5.21 0.604,-1 1.791,-2.38 1.791,-2.38 m 9.218,-13.44 c 3.569,-1.5 7.043,-2.28 11.054,-1.73 0.446,0 0.409,0.39 -0.06,0.39 l -0.566,0 c -3.231,0.1 -7.982,1.1 -10.44,2.52 -0.05,1.65 0.259,4.24 0.587,6.29 2.235,-0.95 5.688,-1.89 8.312,-2.2 -1.49,-1.58 -3.516,-3.07 -3.757,-3.23 -0.243,-0.24 -0.364,-0.47 -0.364,-0.86 0.03,-0.71 0.648,-0.79 0.977,-0.71 1.092,-0.24 2.177,-0.47 4.025,-0.4 7.815,-0.39 14.954,4.02 17.679,9.13 6.902,10.82 0,25.92 -9.037,29.92 -3.865,1.8 -7.18,2.5 -13.291,1.6 -6.122,-0.9 -11.128,-3.8 -15.015,-10.1 -4.789,-7.7 -2.093,-16.78 -1.421,-18.67 2.884,-6.84 7.609,-10.38 11.322,-11.95 m -8.077,8.25 c -0.105,0.79 0,2.28 0.209,4.09 1.662,-1.49 4.872,-3.38 7.557,-4.56 -0.311,-2.04 -0.641,-5.35 -0.607,-6.21 -2.483,1.34 -5.207,4.09 -7.203,6.92 m 0.408,5.51 c 0.235,1.62 1.013,5.12 1.714,6.92 1.662,-1.3 5.427,-3.6 7.558,-4.6 -0.746,-2.64 -1.247,-4.37 -1.664,-7.12 -3.011,1.33 -6.196,3.46 -7.608,4.8 m 2.363,8.52 c 0.987,2.7 1.942,4.9 3.188,6.7 1.457,-1.3 4.446,-3.3 6.732,-4.4 -0.753,-1.6 -1.839,-4.6 -2.597,-6.9 -2.943,1.4 -5.142,2.8 -7.323,4.6 m 4.119,7.9 c 1.55,2 3.977,4.5 5.664,5.9 1.599,-1.2 3.409,-2.5 4.915,-3.2 -1.299,-2 -3.22,-5 -4.024,-6.8 -2.883,1.4 -4.519,2.4 -6.555,4.1 m 6.658,6.8 c 0.615,0.6 3.05,2.3 3.05,2.3 1.621,0 3.668,-0.2 5.13,-0.4 -0.807,-1 -2.818,-3.8 -3.429,-4.8 -1.558,0.7 -3.531,1.9 -4.751,2.9 m 9.886,1.5 c 0.821,-0.3 2.914,-1.3 3.349,-1.6 0.103,-1.7 0.09,-3.5 0.02,-4.7 -2.2,0 -5.296,0.6 -7.071,1.4 1.029,1.6 2.45,3.5 3.706,4.9 m 4.508,-2.2 c 1.651,-1.1 3.202,-2.2 4.328,-3.6 -0.969,-0.3 -3.133,-0.6 -4.207,-0.5 0,0 -0.03,2.6 -0.121,4.1 m 4.847,-4.3 c 0.312,-0.3 0.779,-1 0.961,-1.3 0.181,-1.6 0.188,-4.8 0.121,-5.8 -1.887,-0.7 -4.803,-1.3 -6.934,-1.5 0.692,2.6 1.039,6.3 1.092,7.5 1.022,0.1 3.6,0.6 4.76,1.1 m 2.77,-7.2 c -0.09,0.2 -0.607,0.5 -0.85,0.5 0.04,0.5 -0.09,3.1 -0.224,4.1 0.363,-0.8 1.055,-2.6 1.263,-3.4 l 0.294,-1.1 c 0.293,-1 1.238,-4.4 0.381,-8.8 -0.95,-4.92 -2.734,-6.65 -3.357,-7.44 -1.585,-0.86 -3.982,-1.65 -3.982,-1.65 2.173,2.91 2.925,4.33 4.225,7.79 0.754,0.4 2.12,1.2 2.29,1.4 0.137,0.2 0.14,0.4 -0.289,0.4 -0.358,0 -1.05,-0.3 -1.587,-0.5 0.572,1.9 1.013,5.5 0.981,7.9 0,0 0.941,0.5 0.855,0.8 m -3.635,-17.79 c -3.013,-3.7 -9.833,-6.84 -17.425,-6.37 1.697,1.1 3.109,2.83 4.346,4.17 1.896,-0.16 5.878,0.16 7.374,0.55 -0.255,-0.24 -0.568,-0.55 -0.649,-0.79 -0.213,-0.39 0.299,-0.55 0.709,-0.23 0.52,0.31 1.118,0.71 1.594,1.18 0.88,0.23 3.046,0.94 4.051,1.49 m 1.93,16.59 c -0.131,-2.4 -0.494,-5.5 -1.377,-7.8 -2.337,-0.8 -5.531,-1.5 -8.335,-1.5 0.865,2 1.871,5.4 2.363,7.6 2.025,0.2 5.193,0.8 7.349,1.7 m -6.571,-16.98 c -2.111,-0.4 -5.192,-0.63 -7.477,-0.47 1.558,2.12 2.7,4.01 3.773,6.68 2.891,0.1 6.82,0.95 8.43,1.57 -0.96,-2.59 -2.787,-5.82 -4.726,-7.78 m -13.243,17.38 c 3.446,-1.6 7.228,-2.3 11.037,-2.2 -1.04,-3.6 -1.636,-5.3 -2.519,-7.5 -4.232,0.2 -7.842,1.3 -11.131,2.9 0,0 1.212,3.8 2.613,6.8 m 11.427,-0.7 c -4.312,0 -8.074,1 -10.646,2.3 1.089,2.3 3.244,5.4 4.05,6.7 1.402,-0.5 2.909,-0.9 4.077,-1.1 1.169,-0.2 2.726,-0.4 3.782,-0.4 -0.191,-2.6 -0.511,-4.5 -1.263,-7.5 m -14.529,-7.6 c 3.117,-1.4 6.494,-2.48 11.049,-2.79 -1.161,-2.83 -2.441,-4.8 -3.949,-6.61 -3.355,0.32 -6.42,1.18 -9.07,2.28 0.389,2.05 1.126,4.57 1.97,7.12" style="fill:#ffffff;fill-opacity:1;fill-rule:nonzero;stroke:none" id="grid" inkscape:connector-curvature="0" />
      </g>
      <g style="fill:#ffffff;fill-opacity:1" id="g5327">
        <path inkscape:connector-curvature="0" id="esri" d="m 141.38,982.09 c -2.24,0 -3.87,1.81 -3.87,3.78 0,1.97 1.63,3.77 3.87,3.77 2.25,0 3.99,-1.65 3.99,-3.77 0,-2.12 -1.74,-3.78 -3.99,-3.78 z m -55.824,11.33 c -7.14,0 -12.855,4.95 -12.855,12.38 0,7.4 5.715,12.5 12.855,12.5 3.259,0 6.326,-1.1 8.886,-3.6 l -3.73,-3.7 c -1.393,1.5 -3.178,2.6 -5.741,2.6 -3.303,0 -5.965,-2.2 -6.36,-5.7 l 18.032,0 0,-1.6 c 0,-8.24 -4.48,-12.88 -11.087,-12.88 z m 22.934,0 c -4.78,0 -9.512,2.36 -9.512,7.58 0,9.1 12.762,5.2 12.762,10.1 0,1.9 -2.22,2.7 -3.94,2.7 -2.51,0 -4.08,-1.2 -5.61,-2.8 l -3.814,3.7 c 2.394,2.6 5.504,3.6 9.074,3.6 4.83,0 10.21,-2 10.21,-7.7 0,-9.2 -12.77,-5.7 -12.77,-9.9 0,-1.78 1.87,-2.56 3.45,-2.56 2.01,0 3.49,0.86 4.62,2.46 l 3.76,-3.8 c -1.95,-2.44 -5.18,-3.38 -8.23,-3.38 z m 24.9,0 c -3.11,0 -5.73,1.65 -7,4.32 l -0.11,0 0,-3.69 -5.9,0 0,23.55 5.9,0 0,-12.6 c 0,-1.3 0.79,-6 6.37,-6 0.85,0 1.7,0.24 2.6,0.4 l 0.24,-5.67 c -0.69,-0.15 -1.37,-0.31 -2.1,-0.31 z m 5.09,0.63 0,23.55 5.91,0 0,-23.55 -5.91,0 z m -53.759,3.77 c 3.694,0 5.961,2.18 6.014,5.68 l -12.124,0 c 0.444,-3.4 2.613,-5.68 6.11,-5.68 z" style="fill:#ffffff;fill-opacity:1;fill-rule:nonzero;stroke:none" />
        <g style="font-style:normal;font-variant:normal;font-weight:normal;font-stretch:normal;font-size:1.27473px;line-height:125%;font-family:'Source Code Pro';-inkscape-font-specification:'Source Code Pro, Normal';text-align:center;letter-spacing:0px;word-spacing:0px;writing-mode:lr-tb;text-anchor:middle;fill:#ffffff;fill-opacity:1;stroke:none;stroke-width:1px;stroke-linecap:butt;stroke-linejoin:miter;stroke-opacity:1" id="text5192">
          <path d="m 147.25,995.98 0,-1.61 -0.6,0 0,-0.22 1.44,0 0,0.22 -0.6,0 0,1.61 -0.24,0 z" style="font-style:normal;font-variant:normal;font-weight:normal;font-stretch:normal;font-size:2.54944px;font-family:Arial;-inkscape-font-specification:Arial;fill:#ffffff;fill-opacity:1" id="path5209" inkscape:connector-curvature="0" />
          <path d="m 148.33,995.98 0,-1.83 0.37,0 0.43,1.29 q 0.1,0.19 0.1,0.27 0,-0.1 0.1,-0.29 l 0.44,-1.27 0.33,0 0,1.83 -0.24,0 0,-1.53 -0.53,1.53 -0.21,0 -0.53,-1.56 0,1.56 -0.24,0 z" style="font-style:normal;font-variant:normal;font-weight:normal;font-stretch:normal;font-size:2.54944px;font-family:Arial;-inkscape-font-specification:Arial;fill:#ffffff;fill-opacity:1" id="path5211" inkscape:connector-curvature="0" />
        </g>
        <g style="font-style:normal;font-variant:normal;font-weight:normal;font-stretch:normal;font-size:4.75025px;line-height:125%;font-family:'Source Code Pro';-inkscape-font-specification:'Source Code Pro, Normal';text-align:center;letter-spacing:0px;word-spacing:0px;writing-mode:lr-tb;text-anchor:middle;fill:#ffffff;fill-opacity:1;stroke:none;stroke-width:1px;stroke-linecap:butt;stroke-linejoin:miter;stroke-opacity:1" id="text5196">
          <path d="m 163.05,995.23 3.06,0 0,13.67 q 0,3.6 1.31,5.2 1.31,1.6 4.25,1.6 2.93,0 4.24,-1.6 1.31,-1.6 1.31,-5.2 l 0,-13.67 3.06,0 0,14.07 q 0,4.4 -2.18,6.6 -2.17,2.3 -6.43,2.3 -4.26,0 -6.45,-2.3 -2.17,-2.2 -2.17,-6.6 l 0,-14.07 z" style="font-style:normal;font-variant:normal;font-weight:normal;font-stretch:normal;font-size:30.8766px;font-family:'Arial Hebrew';-inkscape-font-specification:'Arial Hebrew';fill:#ffffff;fill-opacity:1" id="path5271" inkscape:connector-curvature="0" />
          <path d="m 186.01,995.23 3.05,0 0,9.47 10.1,-9.47 3.92,0 -11.17,10.47 11.97,12 -4.01,0 -10.81,-10.8 0,10.8 -3.05,0 0,-22.47 z" style="font-style:normal;font-variant:normal;font-weight:normal;font-stretch:normal;font-size:30.8766px;font-family:'Arial Hebrew';-inkscape-font-specification:'Arial Hebrew';fill:#ffffff;fill-opacity:1" id="path5273" inkscape:connector-curvature="0" />
        </g>
        <g style="fill:#ffffff;fill-opacity:1" id="g5275">
          <path d="m 76.302,1028.1 -2.02,0 0.19,-1.4 5.6,0 -0.19,1.4 -2.02,0 -0.8,5.7 -1.56,0 0.8,-5.7 z" style="font-style:oblique;font-variant:normal;font-weight:800;font-stretch:normal;font-size:10px;line-height:125%;font-family:Avenir;-inkscape-font-specification:'Avenir Ultra-Bold Oblique';text-align:center;letter-spacing:0.21px;word-spacing:0px;writing-mode:lr-tb;text-anchor:middle;fill:#ffffff;fill-opacity:1;stroke:none;stroke-width:1px;stroke-linecap:butt;stroke-linejoin:miter;stroke-opacity:1" id="path5214" inkscape:connector-curvature="0" />
          <path d="m 81.074,1026.7 1.56,0 -0.37,2.7 3.03,0 0.37,-2.7 1.56,0 -0.99,7.1 -1.56,0 0.43,-3 -3.03,0 -0.43,3 -1.56,0 0.99,-7.1 z" style="font-style:oblique;font-variant:normal;font-weight:800;font-stretch:normal;font-size:10px;line-height:125%;font-family:Avenir;-inkscape-font-specification:'Avenir Ultra-Bold Oblique';text-align:center;letter-spacing:0.21px;word-spacing:0px;writing-mode:lr-tb;text-anchor:middle;fill:#ffffff;fill-opacity:1;stroke:none;stroke-width:1px;stroke-linecap:butt;stroke-linejoin:miter;stroke-opacity:1" id="path5216" inkscape:connector-curvature="0" />
          <path d="m 88.941,1026.7 4.81,0 -0.2,1.5 -3.25,0 -0.19,1.3 3.07,0 -0.2,1.4 -3.07,0 -0.2,1.5 3.43,0 -0.2,1.4 -4.99,0 0.99,-7.1 z" style="font-style:oblique;font-variant:normal;font-weight:800;font-stretch:normal;font-size:10px;line-height:125%;font-family:Avenir;-inkscape-font-specification:'Avenir Ultra-Bold Oblique';text-align:center;letter-spacing:0.21px;word-spacing:0px;writing-mode:lr-tb;text-anchor:middle;fill:#ffffff;fill-opacity:1;stroke:none;stroke-width:1px;stroke-linecap:butt;stroke-linejoin:miter;stroke-opacity:1" id="path5218" inkscape:connector-curvature="0" />
          <path d="m 101.84,1028.5 q -0.16,-0.3 -0.47,-0.4 -0.31,-0.1 -0.6,-0.1 -0.17,0 -0.36,0 -0.19,0.1 -0.36,0.2 -0.161,0.1 -0.281,0.2 -0.12,0.1 -0.15,0.3 -0.03,0.3 0.08,0.4 0.12,0.2 0.331,0.3 0.22,0.1 0.5,0.2 0.29,0.1 0.58,0.2 0.29,0.1 0.56,0.2 0.28,0.1 0.48,0.4 0.2,0.2 0.29,0.5 0.1,0.3 0,0.8 -0.1,0.6 -0.37,1 -0.28,0.4 -0.7,0.7 -0.41,0.3 -0.93,0.5 -0.511,0.1 -1.061,0.1 -0.69,0 -1.25,-0.2 -0.56,-0.2 -1.01,-0.7 l 1.29,-1.2 q 0.2,0.3 0.53,0.5 0.34,0.2 0.73,0.2 0.19,0 0.391,-0.1 0.2,0 0.37,-0.1 0.17,-0.1 0.28,-0.2 0.12,-0.2 0.15,-0.4 0,-0.3 -0.18,-0.5 -0.22,-0.2 -0.57,-0.3 -0.351,-0.1 -0.761,-0.3 -0.41,-0.1 -0.75,-0.3 -0.34,-0.2 -0.54,-0.6 -0.19,-0.3 -0.11,-0.9 0.08,-0.6 0.36,-1 0.29,-0.5 0.71,-0.8 0.42,-0.2 0.93,-0.4 0.511,-0.1 1.031,-0.1 0.6,0 1.13,0.1 0.54,0.2 0.93,0.6 l -1.23,1.2 z" style="font-style:oblique;font-variant:normal;font-weight:800;font-stretch:normal;font-size:10px;line-height:125%;font-family:Avenir;-inkscape-font-specification:'Avenir Ultra-Bold Oblique';text-align:center;letter-spacing:0.21px;word-spacing:0px;writing-mode:lr-tb;text-anchor:middle;fill:#ffffff;fill-opacity:1;stroke:none;stroke-width:1px;stroke-linecap:butt;stroke-linejoin:miter;stroke-opacity:1" id="path5220" inkscape:connector-curvature="0" />
          <path d="m 108.9,1028.6 q -0.2,-0.3 -0.51,-0.4 -0.31,-0.2 -0.75,-0.2 -0.44,0 -0.84,0.2 -0.4,0.1 -0.72,0.5 -0.31,0.3 -0.53,0.7 -0.21,0.4 -0.28,0.9 -0.1,0.5 0,0.9 0.1,0.4 0.32,0.7 0.23,0.3 0.57,0.5 0.35,0.2 0.77,0.2 0.48,0 0.88,-0.2 0.4,-0.2 0.69,-0.6 l 1.16,1 q -0.54,0.6 -1.27,0.9 -0.73,0.3 -1.46,0.3 -0.83,0 -1.5,-0.3 -0.66,-0.2 -1.1,-0.7 -0.44,-0.5 -0.63,-1.2 -0.19,-0.7 -0.1,-1.5 0.12,-0.9 0.5,-1.6 0.39,-0.6 0.96,-1.1 0.58,-0.5 1.32,-0.8 0.74,-0.2 1.57,-0.2 0.3,0 0.61,0 0.32,0.1 0.62,0.2 0.3,0.1 0.56,0.3 0.27,0.2 0.45,0.5 l -1.34,1 z" style="font-style:oblique;font-variant:normal;font-weight:800;font-stretch:normal;font-size:10px;line-height:125%;font-family:Avenir;-inkscape-font-specification:'Avenir Ultra-Bold Oblique';text-align:center;letter-spacing:0.21px;word-spacing:0px;writing-mode:lr-tb;text-anchor:middle;fill:#ffffff;fill-opacity:1;stroke:none;stroke-width:1px;stroke-linecap:butt;stroke-linejoin:miter;stroke-opacity:1" id="path5222" inkscape:connector-curvature="0" />
          <path d="m 111.58,1026.7 1.56,0 -0.99,7.1 -1.56,0 0.99,-7.1 z" style="font-style:oblique;font-variant:normal;font-weight:800;font-stretch:normal;font-size:10px;line-height:125%;font-family:Avenir;-inkscape-font-specification:'Avenir Ultra-Bold Oblique';text-align:center;letter-spacing:0.21px;word-spacing:0px;writing-mode:lr-tb;text-anchor:middle;fill:#ffffff;fill-opacity:1;stroke:none;stroke-width:1px;stroke-linecap:butt;stroke-linejoin:miter;stroke-opacity:1" id="path5224" inkscape:connector-curvature="0" />
          <path d="m 114.84,1026.7 4.81,0 -0.2,1.5 -3.25,0 -0.19,1.3 3.07,0 -0.2,1.4 -3.07,0 -0.2,1.5 3.43,0 -0.2,1.4 -4.99,0 0.99,-7.1 z" style="font-style:oblique;font-variant:normal;font-weight:800;font-stretch:normal;font-size:10px;line-height:125%;font-family:Avenir;-inkscape-font-specification:'Avenir Ultra-Bold Oblique';text-align:center;letter-spacing:0.21px;word-spacing:0px;writing-mode:lr-tb;text-anchor:middle;fill:#ffffff;fill-opacity:1;stroke:none;stroke-width:1px;stroke-linecap:butt;stroke-linejoin:miter;stroke-opacity:1" id="path5226" inkscape:connector-curvature="0" />
          <path d="m 121.29,1026.7 2.12,0 2.32,5 0,0 0.69,-5 1.56,0 -0.99,7.1 -2.04,0 -2.39,-5 0,0 -0.7,5 -1.56,0 0.99,-7.1 z" style="font-style:oblique;font-variant:normal;font-weight:800;font-stretch:normal;font-size:10px;line-height:125%;font-family:Avenir;-inkscape-font-specification:'Avenir Ultra-Bold Oblique';text-align:center;letter-spacing:0.21px;word-spacing:0px;writing-mode:lr-tb;text-anchor:middle;fill:#ffffff;fill-opacity:1;stroke:none;stroke-width:1px;stroke-linecap:butt;stroke-linejoin:miter;stroke-opacity:1" id="path5228" inkscape:connector-curvature="0" />
          <path d="m 134.02,1028.6 q -0.2,-0.3 -0.51,-0.4 -0.31,-0.2 -0.75,-0.2 -0.44,0 -0.84,0.2 -0.4,0.1 -0.72,0.5 -0.31,0.3 -0.53,0.7 -0.21,0.4 -0.28,0.9 -0.1,0.5 0,0.9 0.1,0.4 0.32,0.7 0.23,0.3 0.57,0.5 0.35,0.2 0.77,0.2 0.48,0 0.88,-0.2 0.4,-0.2 0.69,-0.6 l 1.16,1 q -0.54,0.6 -1.27,0.9 -0.73,0.3 -1.46,0.3 -0.83,0 -1.5,-0.3 -0.66,-0.2 -1.1,-0.7 -0.44,-0.5 -0.63,-1.2 -0.19,-0.7 -0.1,-1.5 0.12,-0.9 0.5,-1.6 0.39,-0.6 0.96,-1.1 0.58,-0.5 1.32,-0.8 0.74,-0.2 1.57,-0.2 0.3,0 0.61,0 0.32,0.1 0.62,0.2 0.3,0.1 0.56,0.3 0.27,0.2 0.45,0.5 l -1.34,1 z" style="font-style:oblique;font-variant:normal;font-weight:800;font-stretch:normal;font-size:10px;line-height:125%;font-family:Avenir;-inkscape-font-specification:'Avenir Ultra-Bold Oblique';text-align:center;letter-spacing:0.21px;word-spacing:0px;writing-mode:lr-tb;text-anchor:middle;fill:#ffffff;fill-opacity:1;stroke:none;stroke-width:1px;stroke-linecap:butt;stroke-linejoin:miter;stroke-opacity:1" id="path5230" inkscape:connector-curvature="0" />
          <path d="m 136.77,1026.7 4.81,0 -0.2,1.5 -3.25,0 -0.19,1.3 3.07,0 -0.2,1.4 -3.07,0 -0.2,1.5 3.43,0 -0.2,1.4 -4.99,0 0.99,-7.1 z" style="font-style:oblique;font-variant:normal;font-weight:800;font-stretch:normal;font-size:10px;line-height:125%;font-family:Avenir;-inkscape-font-specification:'Avenir Ultra-Bold Oblique';text-align:center;letter-spacing:0.21px;word-spacing:0px;writing-mode:lr-tb;text-anchor:middle;fill:#ffffff;fill-opacity:1;stroke:none;stroke-width:1px;stroke-linecap:butt;stroke-linejoin:miter;stroke-opacity:1" id="path5232" inkscape:connector-curvature="0" />
          <path d="m 145.53,1030.3 q 0.12,-0.9 0.5,-1.6 0.39,-0.6 0.96,-1.1 0.58,-0.5 1.32,-0.8 0.74,-0.2 1.57,-0.2 0.83,0 1.49,0.2 0.66,0.3 1.1,0.8 0.44,0.5 0.63,1.1 0.19,0.7 0.1,1.6 -0.12,0.8 -0.5,1.5 -0.38,0.7 -0.96,1.2 -0.58,0.5 -1.32,0.7 -0.73,0.3 -1.56,0.3 -0.83,0 -1.5,-0.3 -0.66,-0.2 -1.1,-0.7 -0.44,-0.5 -0.63,-1.2 -0.19,-0.7 -0.1,-1.5 z m 1.62,0 q -0.1,0.5 0,0.9 0.1,0.4 0.34,0.7 0.25,0.3 0.63,0.5 0.38,0.2 0.88,0.2 0.5,0 0.93,-0.2 0.43,-0.2 0.76,-0.5 0.33,-0.3 0.54,-0.7 0.22,-0.4 0.29,-0.9 0.1,-0.5 0,-0.9 -0.1,-0.4 -0.34,-0.7 -0.25,-0.4 -0.63,-0.5 -0.38,-0.2 -0.88,-0.2 -0.5,0 -0.93,0.2 -0.43,0.1 -0.76,0.5 -0.33,0.3 -0.55,0.7 -0.21,0.4 -0.28,0.9 z" style="font-style:oblique;font-variant:normal;font-weight:800;font-stretch:normal;font-size:10px;line-height:125%;font-family:Avenir;-inkscape-font-specification:'Avenir Ultra-Bold Oblique';text-align:center;letter-spacing:0.21px;word-spacing:0px;writing-mode:lr-tb;text-anchor:middle;fill:#ffffff;fill-opacity:1;stroke:none;stroke-width:1px;stroke-linecap:butt;stroke-linejoin:miter;stroke-opacity:1" id="path5234" inkscape:connector-curvature="0" />
          <path d="m 155,1026.7 4.75,0 -0.2,1.5 -3.19,0 -0.2,1.4 2.95,0 -0.21,1.5 -2.95,0 -0.38,2.7 -1.56,0 0.99,-7.1 z" style="font-style:oblique;font-variant:normal;font-weight:800;font-stretch:normal;font-size:10px;line-height:125%;font-family:Avenir;-inkscape-font-specification:'Avenir Ultra-Bold Oblique';text-align:center;letter-spacing:0.21px;word-spacing:0px;writing-mode:lr-tb;text-anchor:middle;fill:#ffffff;fill-opacity:1;stroke:none;stroke-width:1px;stroke-linecap:butt;stroke-linejoin:miter;stroke-opacity:1" id="path5236" inkscape:connector-curvature="0" />
          <path d="m 163.53,1026.7 1.7,0 0.49,4.6 0,0 2.12,-4.6 1.45,0 0.82,4.7 0,0 1.84,-4.7 1.58,0 -3.06,7.1 -1.39,0 -0.88,-4.9 0,0 -2.24,4.9 -1.34,0 -1.11,-7.1 z" style="font-style:oblique;font-variant:normal;font-weight:800;font-stretch:normal;font-size:10px;line-height:125%;font-family:Avenir;-inkscape-font-specification:'Avenir Ultra-Bold Oblique';text-align:center;letter-spacing:0.21px;word-spacing:0px;writing-mode:lr-tb;text-anchor:middle;fill:#ffffff;fill-opacity:1;stroke:none;stroke-width:1px;stroke-linecap:butt;stroke-linejoin:miter;stroke-opacity:1" id="path5238" inkscape:connector-curvature="0" />
          <path d="m 174.48,1026.7 1.56,0 -0.37,2.7 3.03,0 0.37,-2.7 1.56,0 -0.99,7.1 -1.56,0 0.43,-3 -3.03,0 -0.43,3 -1.56,0 0.99,-7.1 z" style="font-style:oblique;font-variant:normal;font-weight:800;font-stretch:normal;font-size:10px;line-height:125%;font-family:Avenir;-inkscape-font-specification:'Avenir Ultra-Bold Oblique';text-align:center;letter-spacing:0.21px;word-spacing:0px;writing-mode:lr-tb;text-anchor:middle;fill:#ffffff;fill-opacity:1;stroke:none;stroke-width:1px;stroke-linecap:butt;stroke-linejoin:miter;stroke-opacity:1" id="path5240" inkscape:connector-curvature="0" />
          <path d="m 182.35,1026.7 4.81,0 -0.2,1.5 -3.25,0 -0.19,1.3 3.07,0 -0.2,1.4 -3.07,0 -0.2,1.5 3.43,0 -0.2,1.4 -4.99,0 0.99,-7.1 z" style="font-style:oblique;font-variant:normal;font-weight:800;font-stretch:normal;font-size:10px;line-height:125%;font-family:Avenir;-inkscape-font-specification:'Avenir Ultra-Bold Oblique';text-align:center;letter-spacing:0.21px;word-spacing:0px;writing-mode:lr-tb;text-anchor:middle;fill:#ffffff;fill-opacity:1;stroke:none;stroke-width:1px;stroke-linecap:butt;stroke-linejoin:miter;stroke-opacity:1" id="path5242" inkscape:connector-curvature="0" />
          <path d="m 188.8,1026.7 2.74,0 q 0.54,0 1.01,0.2 0.47,0.1 0.8,0.3 0.33,0.2 0.49,0.7 0.16,0.4 0.1,1 -0.11,0.7 -0.57,1.3 -0.46,0.5 -1.23,0.6 l 1.38,3 -1.87,0 -1.09,-2.8 -0.77,0 -0.39,2.8 -1.56,0 0.99,-7.1 z m 1.15,3 0.92,0 q 0.21,0 0.44,0 0.24,-0.1 0.44,-0.1 0.2,-0.1 0.35,-0.3 0.15,-0.1 0.19,-0.4 0,-0.3 0,-0.4 -0.1,-0.2 -0.25,-0.3 -0.16,-0.1 -0.38,-0.1 -0.21,0 -0.42,0 l -1.02,0 -0.22,1.6 z" style="font-style:oblique;font-variant:normal;font-weight:800;font-stretch:normal;font-size:10px;line-height:125%;font-family:Avenir;-inkscape-font-specification:'Avenir Ultra-Bold Oblique';text-align:center;letter-spacing:0.21px;word-spacing:0px;writing-mode:lr-tb;text-anchor:middle;fill:#ffffff;fill-opacity:1;stroke:none;stroke-width:1px;stroke-linecap:butt;stroke-linejoin:miter;stroke-opacity:1" id="path5244" inkscape:connector-curvature="0" />
          <path d="m 195.56,1026.7 4.81,0 -0.2,1.5 -3.25,0 -0.19,1.3 3.07,0 -0.2,1.4 -3.07,0 -0.2,1.5 3.43,0 -0.2,1.4 -4.99,0 0.99,-7.1 z" style="font-style:oblique;font-variant:normal;font-weight:800;font-stretch:normal;font-size:10px;line-height:125%;font-family:Avenir;-inkscape-font-specification:'Avenir Ultra-Bold Oblique';text-align:center;letter-spacing:0.21px;word-spacing:0px;writing-mode:lr-tb;text-anchor:middle;fill:#ffffff;fill-opacity:1;stroke:none;stroke-width:1px;stroke-linecap:butt;stroke-linejoin:miter;stroke-opacity:1" id="path5246" inkscape:connector-curvature="0" />
          <g id="text5204" style="font-style:normal;font-variant:normal;font-weight:normal;font-stretch:normal;font-size:2.64332px;line-height:125%;font-family:'Source Code Pro';-inkscape-font-specification:'Source Code Pro, Normal';text-align:center;letter-spacing:0px;word-spacing:0px;writing-mode:lr-tb;text-anchor:middle;fill:#ffffff;fill-opacity:1;stroke:none;stroke-width:1px;stroke-linecap:butt;stroke-linejoin:miter;stroke-opacity:1">
            <path id="path5266" style="font-style:oblique;font-variant:normal;font-weight:800;font-stretch:normal;font-size:2.64332px;font-family:Avenir;-inkscape-font-specification:'Avenir Ultra-Bold Oblique';letter-spacing:0.11102px;fill:#ffffff;fill-opacity:1" d="m 202.13,1027.1 -0.54,0 0,-0.4 1.48,0 -0.1,0.4 -0.53,0 -0.21,1.5 -0.41,0 0.21,-1.5 z" inkscape:connector-curvature="0" />
            <path id="path5268" style="font-style:oblique;font-variant:normal;font-weight:800;font-stretch:normal;font-size:2.64332px;font-family:Avenir;-inkscape-font-specification:'Avenir Ultra-Bold Oblique';letter-spacing:0.11102px;fill:#ffffff;fill-opacity:1" d="m 203.44,1026.7 0.63,0 0.26,1.2 0,0 0.61,-1.2 0.62,0 -0.26,1.9 -0.41,0 0.2,-1.5 0,0 -0.69,1.5 -0.32,0 -0.27,-1.5 0,0 -0.2,1.5 -0.42,0 0.26,-1.9 z" inkscape:connector-curvature="0" />
          </g>
        </g>
      </g>
    </g>
  </g>
</svg>
