<?xml version="1.0" encoding="UTF-8"?>
<svg version="1.1" viewBox="0 0 250 91" xmlns="http://www.w3.org/2000/svg" xmlns:cc="http://creativecommons.org/ns#" xmlns:dc="http://purl.org/dc/elements/1.1/" xmlns:rdf="http://www.w3.org/1999/02/22-rdf-syntax-ns#">
<metadata>
<rdf:RDF>
<cc:Work rdf:about="">
<dc:format>image/svg+xml</dc:format>
<dc:type rdf:resource="http://purl.org/dc/dcmitype/StillImage"/>
<dc:title/>
</cc:Work>
</rdf:RDF>
</metadata>
<g transform="translate(0,-961.4)">
<path d="m104.22 1048.3h-14.405v-40.986h20.445l2.3803 4.6984 2.3803 4.6985-7.182 0.018-7.182 0.017v6.7263h12.974v8.6687h-12.974v6.7269h17.968v9.4316zm27.348 0h-5.3905v-16.217l-12.546-24.734 5.953-0.018c5.1059-0.015 5.9621-0.01 6.0172 0.081 0.0353 0.054 1.4026 3.0351 3.0385 6.6234 1.6359 3.5884 2.9927 6.5244 3.0152 6.5244 0.0225 0 1.4-2.9726 3.0612-6.6056l3.0204-6.6056 11.825-0.036-0.6435 1.2659c-0.35394 0.6963-3.1897 6.2794-6.3017 12.407l-5.6582 11.141v16.173zm-41.723-53.425c-0.15523 0.0247-0.1644 0.0186-0.0609-0.0412 0.067-0.0385 15.935-6.6396 35.262-14.669 19.327-8.0294 35.163-14.599 35.19-14.599 0.0275 0 0.0501 3.4094 0.0501 7.5765v7.5765l-35.129 7.0635c-19.321 3.885-35.212 7.0766-35.312 7.0927z" fill="#fff" stroke-width=".064993"/>
</g>
</svg>
