<?xml version="1.0" encoding="UTF-8"?>
<svg enable-background="new 0 0 368.5 180.1" version="1.1" viewBox="0 0 250 91" xml:space="preserve" xmlns="http://www.w3.org/2000/svg" xmlns:cc="http://creativecommons.org/ns#" xmlns:dc="http://purl.org/dc/elements/1.1/" xmlns:rdf="http://www.w3.org/1999/02/22-rdf-syntax-ns#" xmlns:xlink="http://www.w3.org/1999/xlink"><metadata><rdf:RDF><cc:Work rdf:about=""><dc:format>image/svg+xml</dc:format><dc:type rdf:resource="http://purl.org/dc/dcmitype/StillImage"/><dc:title/></cc:Work></rdf:RDF></metadata><defs><path id="f" d="m685.01 374.23h17.68v12.202h-17.68v-12.202zm25.847 0h17.677v12.202h-17.677v-12.202zm25.83 0h17.712v12.202h-17.712v-12.202zm25.839 0h17.736v12.202h-17.736v-12.202zm25.892 0h17.657v12.202h-17.657v-12.202zm25.862 0h17.659v12.202h-17.659v-12.202zm25.846 0h17.701v12.202h-17.701v-12.202zm25.861 0h17.684v12.202h-17.684v-12.202zm-180.98-62.629h17.68v12.233h-17.68v-12.233zm25.847 0h17.677v12.233h-17.677v-12.233zm25.83 0h17.712v12.233h-17.712v-12.233zm25.839 0h17.736v12.233h-17.736v-12.233zm25.892 0h17.657v12.233h-17.657v-12.233zm25.862 0h17.659v12.233h-17.659v-12.233zm25.846 0h17.701v12.233h-17.701v-12.233zm25.861 0h17.684v12.233h-17.684v-12.233zm-181.07-8.162v91.851h213.64v-8.859h-6.721v-12.201h6.721v-50.395h-6.721v-12.234h6.721v-8.162h-213.64z"/><path id="e" d="m685.01 525.27h17.68v12.25h-17.68v-12.25zm25.847 0h17.678v12.25h-17.678v-12.25zm25.83 0h17.714v12.25h-17.714v-12.25zm25.839 0h17.736v12.25h-17.736v-12.25zm25.892 0h17.657v12.25h-17.657v-12.25zm25.862 0h17.659v12.25h-17.659v-12.25zm-129.27-62.608h17.68v12.265h-17.68v-12.265zm25.847 0h17.678v12.265h-17.678v-12.265zm25.83 0h17.714v12.265h-17.714v-12.265zm25.839 0h17.736v12.265h-17.736v-12.265zm25.892 0h17.657v12.265h-17.657v-12.265zm25.862 0h17.659v12.265h-17.659v-12.265zm-131.31-10.208v93.876h170.09v-8.828h-12.93v-12.232h12.93v-50.344h-12.93v-12.264h12.93v-10.208h-170.09z"/><path id="d" d="m601.31 647.73h12.25v17.705h-12.25v-17.705zm62.603 0h12.271v17.705h-12.271v-17.705zm-62.603-25.844h12.25v17.684h-12.25v-17.684zm62.603 0h12.271v17.684h-12.271v-17.684zm-62.603-25.862h12.25v17.698h-12.25v-17.698zm62.603 0h12.271v17.698h-12.271v-17.698zm-62.603-25.864h12.25v17.687h-12.25v-17.687zm62.603 0h12.271v17.687h-12.271v-17.687zm-62.603-25.873h12.25v17.728h-12.25v-17.728zm62.603 0h12.271v17.728h-12.271v-17.728zm-62.603-25.818h12.25v17.683h-12.25v-17.683zm62.603 0h12.271v17.683h-12.271v-17.683zm-62.603-25.864h12.25v17.687h-12.25v-17.687zm62.603 0h12.271v17.687h-12.271v-17.687zm-62.603-25.857h12.25v17.668h-12.25v-17.668zm62.603 0h12.271v17.668h-12.271v-17.668zm-62.603-25.88h12.25v17.671h-12.25v-17.671zm62.603 0h12.271v17.671h-12.271v-17.671zm-62.603-25.845h12.25v17.7h-12.25v-17.7zm62.603 0h12.271v17.7h-12.271v-17.7zm-62.603-25.846h12.25v17.713h-12.25v-17.713zm62.603 0h12.271v17.713h-12.271v-17.713zm0-25.866h12.271v17.687h-12.271v-17.687zm0-25.845h12.271v17.687h-12.271v-17.687zm18.926-34.023-8.379 8.161h1.725v17.672h-12.271v-7.385l-50.354 49.089v10.018h-10.272l-12.384 12.066 0.031 0.028v293.91h10.375v-13.412h12.25v13.412h50.354v-13.412h12.271v13.412h8.625v-292.02l0.216-0.232v-91.308h-2.187z"/><clipPath id="a"><use width="100%" height="100%" overflow="visible" xlink:href="#d"/></clipPath><clipPath id="b"><use width="100%" height="100%" overflow="visible" xlink:href="#e"/></clipPath><clipPath id="c"><use width="100%" height="100%" overflow="visible" xlink:href="#f"/></clipPath></defs><g transform="matrix(1.2811 0 0 1.2811 -10.771 -28.786)" fill="#fff"><polygon transform="matrix(.081556 0 0 .081556 64.092 -12.247)" points="278.76 836.79 206.33 836.79 206.33 870.53 275.18 870.53 275.18 901.16 206.33 901.16 206.33 962.41 171.45 962.41 171.45 806.16 278.76 806.16"/><rect x="92.879" y="53.499" width="2.8436" height="12.744" stroke-width=".081556"/><polygon transform="matrix(.081556 0 0 .081556 64.092 -12.247)" points="505.86 931.35 572.48 931.35 572.48 962.41 470.98 962.41 470.98 806.16 505.86 806.16"/><polygon transform="matrix(.081556 0 0 .081556 64.092 -12.247)" points="729.84 892 770.3 806.16 817.24 806.16 817.24 962.41 782.36 962.41 782.36 864.06 740.12 949.45 719.34 949.45 677.3 864.06 677.3 962.41 642.43 962.41 642.43 806.16 689.6 806.16"/><rect x="137.52" y="53.499" width="2.8443" height="12.744" stroke-width=".081556"/><polygon transform="matrix(.081556 0 0 .081556 64.092 -12.247)" points="1133.5 962.41 1018.4 962.41 1018.4 806.16 1131.1 806.16 1131.1 837.23 1053.3 837.23 1053.3 869.42 1123.3 869.42 1123.3 899.15 1053.3 899.15 1053.3 931.56 1133.5 931.56"/><path d="m165.7 56.043c-0.2724 0.2246-0.40908 0.52277-0.40908 0.89263 0 0.37149 0.16678 0.66582 0.50124 0.88439 0.33373 0.21841 1.1056 0.4771 2.3151 0.77511 1.2085 0.29817 2.1488 0.7442 2.8167 1.3403 0.66819 0.59495 1.0029 1.4637 1.0029 2.6066 0 1.1423-0.4285 2.0688-1.286 2.7799-0.85601 0.71125-1.9841 1.0663-3.3811 1.0663-2.018 0-3.8355-0.74656-5.451-2.2418l1.6953-2.0789c1.3724 1.2034 2.6432 1.8061 3.8099 1.8061 0.52327 0 0.93235-0.1123 1.2304-0.33846 0.29817-0.22346 0.44742-0.52791 0.44742-0.91065 0-0.38274-0.15773-0.68703-0.47376-0.91212-0.3175-0.2246-0.94255-0.45206-1.8785-0.6832-1.4825-0.35216-2.5671-0.81189-3.2546-1.3766-0.68751-0.56592-1.0292-1.4524-1.0292-2.6624 0-1.2088 0.4347-2.142 1.3038-2.7978 0.86858-0.65644 1.9524-0.98487 3.2532-0.98487 0.85112 0 1.7008 0.14656 2.5523 0.43836 0.85152 0.29164 1.5927 0.70473 2.224 1.2389l-1.4396 2.079c-1.1062-0.83897-2.2495-1.2584-3.428-1.2584-0.47319 8.2e-5 -0.84704 0.11263-1.1214 0.33756" stroke-width=".081556"/><path d="m79.632 76.238c0.32704 0 0.59324-0.13106 0.80064-0.39506l0.42678 0.44709c-0.3387 0.38772-0.73612 0.58076-1.1947 0.58076-0.45826 0-0.83644-0.14639-1.1332-0.44203-0.29646-0.29401-0.44562-0.66664-0.44562-1.1164 0-0.44937 0.1517-0.82461 0.45484-1.1265 0.30184-0.30045 0.67202-0.45076 1.1084-0.45076 0.48926 0 0.89752 0.18921 1.2267 0.5682l-0.41341 0.47751c-0.2096-0.26669-0.47082-0.39905-0.78269-0.39905-0.25013 0-0.46365 0.08318-0.64185 0.25005-0.17649 0.16531-0.2662 0.39008-0.2662 0.67169 0 0.28178 0.08425 0.50769 0.25103 0.67822 0.16784 0.17168 0.37157 0.25625 0.6093 0.25625" fill-opacity=".78431" stroke-width=".081556"/><path d="m84.019 75.304c0-0.27028-0.08465-0.50125-0.25535-0.69225-0.1698-0.19051-0.3794-0.28659-0.62839-0.28659-0.24785 0-0.45737 0.09607-0.62839 0.28659-0.17029 0.191-0.25486 0.42197-0.25486 0.69225 0 0.27044 0.08457 0.50018 0.25486 0.68956 0.17102 0.18954 0.38054 0.2843 0.62839 0.2843 0.24899 0 0.45859-0.09477 0.62839-0.2843 0.1707-0.18937 0.25535-0.41904 0.25535-0.68956m0.22632 1.1152c-0.30062 0.29931-0.67202 0.44839-1.1114 0.44839-0.44105 0-0.81124-0.14908-1.1114-0.44839-0.30217-0.29931-0.45231-0.67202-0.45231-1.1176 0-0.4444 0.15014-0.81743 0.45231-1.1164 0.30013-0.29931 0.67031-0.4497 1.1114-0.4497 0.43934 0 0.81075 0.15039 1.1114 0.4497 0.30013 0.29899 0.45068 0.67202 0.45068 1.1164 8.1e-5 0.44554-0.15055 0.81826-0.45068 1.1176" fill-opacity=".78431" stroke-width=".081556"/><polygon transform="matrix(.081556 0 0 .081556 64.092 -12.247)" points="298.44 1055.1 298.44 1092.3 290.29 1092.3 272.9 1069 272.9 1092.3 264.76 1092.3 264.76 1055.1 272.38 1055.1 290.29 1079.1 290.29 1055.1" fill-opacity=".78431"/><polygon transform="matrix(.081556 0 0 .081556 64.092 -12.247)" points="346.33 1055.1 346.33 1092.3 338.2 1092.3 320.81 1069 320.81 1092.3 312.65 1092.3 312.65 1055.1 320.28 1055.1 338.2 1079.1 338.2 1055.1" fill-opacity=".78431"/><polygon transform="matrix(.081556 0 0 .081556 64.092 -12.247)" points="387.44 1092.3 360.54 1092.3 360.54 1055.1 386.86 1055.1 386.86 1062.5 368.68 1062.5 368.68 1070.2 385.04 1070.2 385.04 1077.3 368.68 1077.3 368.68 1085 387.44 1085" fill-opacity=".78431"/><path d="m98.073 76.238c0.32753 0 0.59365-0.13106 0.80112-0.39506l0.42678 0.44709c-0.3383 0.38772-0.73661 0.58076-1.1948 0.58076-0.4581 0-0.83636-0.14639-1.1332-0.44203-0.29629-0.29401-0.44554-0.66664-0.44554-1.1164 0-0.44937 0.15161-0.82461 0.45525-1.1265 0.30094-0.30045 0.67153-0.45076 1.108-0.45076 0.48917 0 0.89712 0.18921 1.2262 0.5682l-0.41259 0.47751c-0.20992-0.26669-0.47115-0.39905-0.7831-0.39905-0.24981 0-0.46405 0.08318-0.64193 0.25005-0.17649 0.16531-0.26653 0.39008-0.26653 0.67169 0 0.28178 0.08457 0.50769 0.25152 0.67822 0.16776 0.17168 0.37165 0.25625 0.60882 0.25625" fill-opacity=".78431" stroke-width=".081556"/><polygon transform="matrix(.081556 0 0 .081556 64.092 -12.247)" points="440.32 1055.1 469.16 1055.1 469.16 1062.3 458.82 1062.3 458.82 1092.3 450.67 1092.3 450.67 1062.3 440.32 1062.3" fill-opacity=".78431"/><rect x="104.82" y="73.444" width=".35428" height="4.0557" fill-opacity=".78431" stroke-width=".081556"/><path d="m109.68 76.005c0.16311-0.15658 0.24532-0.38405 0.24532-0.68222 0-0.29662-0.0822-0.52644-0.24532-0.68703-0.16344-0.1601-0.41415-0.241-0.75211-0.241h-0.37059v1.8437h0.42172c0.30307 0 0.53754-0.07837 0.70098-0.2335m0.48795-1.8036c0.28422 0.26506 0.42548 0.63271 0.42548 1.1052 0 0.47098-0.13865 0.84378-0.41586 1.119-0.27623 0.27411-0.69771 0.41178-1.2665 0.41178h-1.0178v-3.0324h1.0518c0.53027-8.1e-5 0.93862 0.13237 1.2228 0.39645" fill-opacity=".78431" stroke-width=".081556"/><rect x="111.59" y="73.804" width=".66411" height="3.0326" fill-opacity=".78431" stroke-width=".081556"/><path d="m114.11 74.409c-0.0636 0.05432-0.096 0.12519-0.096 0.21343 0 0.08841 0.039 0.15805 0.11736 0.20976 0.0779 0.05163 0.25902 0.11345 0.5399 0.18432 0.28349 0.07071 0.50361 0.17698 0.65807 0.31937 0.15692 0.14158 0.23489 0.34882 0.23489 0.6204 0 0.27158-0.0993 0.49252-0.30021 0.66166-0.19957 0.16931-0.46324 0.2525-0.78946 0.2525-0.47246 0-0.89712-0.17665-1.274-0.5328l0.39611-0.49504c0.32085 0.28659 0.61787 0.43053 0.89044 0.43053 0.12119 0 0.21718-0.02742 0.28691-0.08074 0.0696-0.05285 0.10463-0.12633 0.10463-0.21726 0-0.09094-0.0364-0.16295-0.11148-0.21596-0.0734-0.05448-0.21963-0.10863-0.43755-0.16278-0.34678-0.0849-0.60034-0.19321-0.76051-0.32826-0.16099-0.13416-0.24018-0.34498-0.24018-0.63304 0-0.28781 0.10145-0.51021 0.30477-0.6655 0.20201-0.15659 0.45606-0.2348 0.75994-0.2348 0.19786 0 0.39661 0.0354 0.59658 0.1048 0.19826 0.06932 0.37108 0.16792 0.51903 0.29401l-0.33675 0.49537c-0.2587-0.19973-0.52489-0.29931-0.80064-0.29931-0.11091 8e-5 -0.19818 0.02619-0.26187 0.07935" fill-opacity=".78431" stroke-width=".081556"/><path d="m117.93 76.238c0.32704 0 0.59365-0.13106 0.80031-0.39506l0.42711 0.44709c-0.3387 0.38772-0.73612 0.58076-1.1951 0.58076-0.45826 0-0.83554-0.14639-1.1323-0.44203-0.29735-0.29401-0.44578-0.66664-0.44578-1.1164 0-0.44937 0.15104-0.82461 0.4541-1.1265 0.30233-0.30045 0.67194-0.45076 1.1093-0.45076 0.48835 0 0.89663 0.18921 1.2265 0.5682l-0.41324 0.47751c-0.20952-0.26669-0.47107-0.39905-0.78319-0.39905-0.25021 0-0.46324 0.08318-0.64136 0.25005-0.17738 0.16531-0.2666 0.39008-0.2666 0.67169 0 0.28178 0.0846 0.50769 0.25151 0.67822 0.16769 0.17168 0.37109 0.25625 0.60874 0.25625" fill-opacity=".78431" stroke-width=".081556"/><path d="m122.31 75.304c0-0.27028-0.0842-0.50125-0.25535-0.69225-0.17021-0.19051-0.37981-0.28659-0.62839-0.28659-0.24785 0-0.45704 0.09607-0.62757 0.28659-0.17111 0.191-0.25535 0.42197-0.25535 0.69225 0 0.27044 0.0842 0.50018 0.25535 0.68956 0.17062 0.18954 0.37972 0.2843 0.62757 0.2843 0.24858 0 0.45818-0.09477 0.62839-0.2843 0.17111-0.18937 0.25535-0.41904 0.25535-0.68956m0.2264 1.1152c-0.30061 0.29931-0.67202 0.44839-1.1114 0.44839-0.44106 0-0.81116-0.14908-1.1118-0.44839-0.30135-0.29931-0.4524-0.67202-0.4524-1.1176 0-0.4444 0.15105-0.81743 0.4524-1.1164 0.30069-0.29931 0.67079-0.4497 1.1118-0.4497 0.43934 0 0.81075 0.15039 1.1114 0.4497 0.30013 0.29899 0.4506 0.67202 0.4506 1.1164 0 0.44554-0.15055 0.81826-0.4506 1.1176" fill-opacity=".78431" stroke-width=".081556"/><polygon transform="matrix(.081556 0 0 .081556 64.092 -12.247)" points="746.93 1078.8 756.23 1055.1 765.05 1055.1 750.39 1092.3 743.48 1092.3 728.81 1055.1 737.65 1055.1" fill-opacity=".78431"/><polygon transform="matrix(.081556 0 0 .081556 64.092 -12.247)" points="801.51 1092.3 774.6 1092.3 774.6 1055.1 800.93 1055.1 800.93 1062.5 782.75 1062.5 782.75 1070.2 799.11 1070.2 799.11 1077.3 782.75 1077.3 782.75 1085 801.51 1085" fill-opacity=".78431"/><path d="m132.09 75.171c0.0827-0.0747 0.12454-0.19484 0.12454-0.35762 0-0.16425-0.0436-0.27541-0.12789-0.33593-0.0864-0.06198-0.2352-0.09241-0.44709-0.09241h-0.49887v0.89826h0.48501c0.22721 0 0.38217-0.03678 0.4643-0.1123m0.80112-0.36015c0 0.48632-0.18856 0.79966-0.56583 0.94075l0.75276 1.0851h-0.81744l-0.6606-0.96733h-0.4594v0.96733h-0.66436v-3.0324h1.1289c0.46226 0 0.79215 0.07936 0.9905 0.23863 0.19655 0.15911 0.29547 0.41561 0.29547 0.76793" fill-opacity=".78431" stroke-width=".081556"/><rect x="135.56" y="73.444" width=".3533" height="4.0557" fill-opacity=".78431" stroke-width=".081556"/><path d="m140.24 75.171c0.082-0.0747 0.12405-0.19484 0.12405-0.35762 0-0.16425-0.0428-0.27541-0.1274-0.33593-0.0855-0.06198-0.2348-0.09241-0.44725-0.09241h-0.49839v0.89826h0.48469c0.22746 0 0.38258-0.03678 0.4643-0.1123m0.80112-0.36015c0 0.48632-0.18831 0.79966-0.56592 0.94075l0.75268 1.0851h-0.81686l-0.66044-0.96733h-0.45957v0.96733h-0.66435v-3.0324h1.1289c0.46176 0 0.79231 0.07936 0.99049 0.23863 0.19664 0.15911 0.29507 0.41561 0.29507 0.76793" fill-opacity=".78431" stroke-width=".081556"/><polygon transform="matrix(.081556 0 0 .081556 64.092 -12.247)" points="983.96 1092.3 957.06 1092.3 957.06 1055.1 983.39 1055.1 983.39 1062.5 965.21 1062.5 965.21 1070.2 981.56 1070.2 981.56 1077.3 965.21 1077.3 965.21 1085 983.96 1085" fill-opacity=".78431"/><path d="m146.72 76.238c0.32655 0 0.59316-0.13106 0.79982-0.39506l0.42768 0.44709c-0.33878 0.38772-0.73653 0.58076-1.1951 0.58076s-0.83595-0.14639-1.1329-0.44203c-0.29678-0.29401-0.44554-0.66664-0.44554-1.1164 0-0.44937 0.15088-0.82461 0.45394-1.1265 0.30266-0.30045 0.67251-0.45076 1.1096-0.45076 0.48885 0 0.89679 0.18921 1.2264 0.5682l-0.413 0.47751c-0.2096-0.26669-0.47066-0.39905-0.78351-0.39905-0.24988 0-0.46324 0.08318-0.64144 0.25005-0.17681 0.16531-0.26619 0.39008-0.26619 0.67169 0 0.28178 0.0847 0.50769 0.25119 0.67822 0.16808 0.17168 0.37132 0.25625 0.60914 0.25625" fill-opacity=".78431" stroke-width=".081556"/><path d="m151.11 75.304c0-0.27028-0.0839-0.50125-0.25486-0.69225-0.17029-0.19051-0.38038-0.28659-0.62888-0.28659-0.24736 0-0.45704 0.09607-0.62757 0.28659-0.17111 0.191-0.25535 0.42197-0.25535 0.69225 0 0.27044 0.0842 0.50018 0.25535 0.68956 0.17062 0.18954 0.38021 0.2843 0.62757 0.2843 0.2485 0 0.45859-0.09477 0.62888-0.2843 0.17086-0.18937 0.25486-0.41904 0.25486-0.68956m0.22632 1.1152c-0.30061 0.29931-0.67153 0.44839-1.111 0.44839-0.44089 0-0.81107-0.14908-1.1122-0.44839-0.3011-0.29931-0.45157-0.67202-0.45157-1.1176 0-0.4444 0.15055-0.81743 0.45157-1.1164 0.30103-0.29931 0.67121-0.4497 1.1122-0.4497 0.43951 0 0.81051 0.15039 1.111 0.4497 0.30062 0.29899 0.4506 0.67202 0.4506 1.1164 0 0.44554-0.14998 0.81826-0.4506 1.1176" fill-opacity=".78431" stroke-width=".081556"/><polygon transform="matrix(.081556 0 0 .081556 64.092 -12.247)" points="1107.8 1075.6 1117.3 1055.1 1128.2 1055.1 1128.2 1092.3 1120.1 1092.3 1120.1 1068.9 1110.2 1089.2 1105.4 1089.2 1095.6 1068.9 1095.6 1092.3 1087.4 1092.3 1087.4 1055.1 1098.4 1055.1" fill-opacity=".78431"/><polygon transform="matrix(.081556 0 0 .081556 64.092 -12.247)" points="1162.9 1075.6 1172.3 1055.1 1183.3 1055.1 1183.3 1092.3 1175.1 1092.3 1175.1 1068.9 1165.3 1089.2 1160.4 1089.2 1150.6 1068.9 1150.6 1092.3 1142.4 1092.3 1142.4 1055.1 1153.5 1055.1" fill-opacity=".78431"/><polygon transform="matrix(.081556 0 0 .081556 64.092 -12.247)" points="1224.4 1092.3 1197.5 1092.3 1197.5 1055.1 1223.8 1055.1 1223.8 1062.5 1205.6 1062.5 1205.6 1070.2 1222 1070.2 1222 1077.3 1205.6 1077.3 1205.6 1085 1224.4 1085" fill-opacity=".78431"/><polygon transform="matrix(.081556 0 0 .081556 64.092 -12.247)" points="1270.5 1055.1 1270.5 1092.3 1262.4 1092.3 1245 1069 1245 1092.3 1236.9 1092.3 1236.9 1055.1 1244.5 1055.1 1262.4 1079.1 1262.4 1055.1" fill-opacity=".78431"/><path d="m170.66 76.005c0.16262-0.15658 0.24532-0.38405 0.24532-0.68222 0-0.29662-0.0827-0.52644-0.24532-0.68703-0.16441-0.1601-0.41414-0.241-0.75292-0.241h-0.37019v1.8437h0.42214c0.30322 0 0.53664-0.07837 0.70097-0.2335m0.48762-1.8036c0.28382 0.26506 0.42548 0.63271 0.42548 1.1052 0 0.47098-0.13921 0.84378-0.41544 1.119-0.27672 0.27411-0.69829 0.41178-1.2665 0.41178h-1.0181v-3.0324h1.0521c0.53085-8.1e-5 0.93863 0.13237 1.2225 0.39645" fill-opacity=".78431" stroke-width=".081556"/><g transform="matrix(1.2476 0 0 1.2476 -100.06 22.876)" fill-opacity=".78431"><rect transform="matrix(.081556 0 0 .081556 64.092 -12.247)" x="684.92" y="303.44" width="213.64" height="91.851" clip-path="url(#c)"/><rect transform="matrix(.081556 0 0 .081556 64.092 -12.247)" x="682.97" y="452.45" width="170.09" height="93.876" clip-path="url(#b)"/><rect transform="matrix(.081556 0 0 .081556 64.092 -12.247)" x="590.9" y="303.44" width="94.122" height="383.56" clip-path="url(#a)"/></g></g></svg>
