<?xml version="1.0" encoding="UTF-8" standalone="no"?>
<svg
   xmlns:dc="http://purl.org/dc/elements/1.1/"
   xmlns:cc="http://creativecommons.org/ns#"
   xmlns:rdf="http://www.w3.org/1999/02/22-rdf-syntax-ns#"
   xmlns:svg="http://www.w3.org/2000/svg"
   xmlns="http://www.w3.org/2000/svg"
   xmlns:xlink="http://www.w3.org/1999/xlink"
   xmlns:sodipodi="http://sodipodi.sourceforge.net/DTD/sodipodi-0.dtd"
   xmlns:inkscape="http://www.inkscape.org/namespaces/inkscape"
   version="1.1"
   id="Layer_1"
   x="0px"
   y="0px"
   viewBox="0 0 250 91"
   enable-background="new 0 0 368.5 180.1"
   xml:space="preserve"
   inkscape:version="0.92.2 (5c3e80d, 2017-08-06)"
   sodipodi:docname="filmies.svg"
   width="250"
   height="91"><metadata
     id="metadata49"><rdf:RDF><cc:Work
         rdf:about=""><dc:format>image/svg+xml</dc:format><dc:type
           rdf:resource="http://purl.org/dc/dcmitype/StillImage" /><dc:title></dc:title></cc:Work></rdf:RDF></metadata><defs
     id="defs47"><path
       d="M685.014,374.232h17.68v12.202h-17.68V374.232z M710.861,374.232h17.677v12.202h-17.677V374.232z      M736.691,374.232h17.712v12.202h-17.712V374.232z M762.53,374.232h17.736v12.202H762.53V374.232z M788.422,374.232h17.657     v12.202h-17.657V374.232z M814.284,374.232h17.659v12.202h-17.659V374.232z M840.13,374.232h17.701v12.202H840.13V374.232z      M865.991,374.232h17.684v12.202h-17.684V374.232z M685.014,311.603h17.68v12.233h-17.68V311.603z M710.861,311.603h17.677     v12.233h-17.677V311.603z M736.691,311.603h17.712v12.233h-17.712V311.603z M762.53,311.603h17.736v12.233H762.53V311.603z      M788.422,311.603h17.657v12.233h-17.657V311.603z M814.284,311.603h17.659v12.233h-17.659V311.603z M840.13,311.603h17.701     v12.233H840.13V311.603z M865.991,311.603h17.684v12.233h-17.684V311.603z M684.918,303.441v91.851H898.56v-8.859h-6.721v-12.201     h6.721v-50.395h-6.721v-12.234h6.721v-8.162H684.918z"
       id="SVGID_10_" /><path
       d="M685.014,525.266h17.68v12.25h-17.68V525.266z M710.861,525.266h17.678v12.25h-17.678V525.266z      M736.691,525.266h17.714v12.25h-17.714V525.266z M762.53,525.266h17.736v12.25H762.53V525.266z M788.422,525.266h17.657v12.25     h-17.657V525.266z M814.284,525.266h17.659v12.25h-17.659V525.266z M685.014,462.658h17.68v12.265h-17.68V462.658z      M710.861,462.658h17.678v12.265h-17.678V462.658z M736.691,462.658h17.714v12.265h-17.714V462.658z M762.53,462.658h17.736     v12.265H762.53V462.658z M788.422,462.658h17.657v12.265h-17.657V462.658z M814.284,462.658h17.659v12.265h-17.659V462.658z      M682.971,452.45v93.876H853.06v-8.828h-12.93v-12.232h12.93v-50.344h-12.93v-12.264h12.93V452.45H682.971z"
       id="SVGID_13_" /><path
       d="M601.311,647.729h12.25v17.705h-12.25V647.729z M663.914,647.729h12.271v17.705h-12.271V647.729z      M601.311,621.885h12.25v17.684h-12.25V621.885z M663.914,621.885h12.271v17.684h-12.271V621.885z M601.311,596.023h12.25v17.698     h-12.25V596.023z M663.914,596.023h12.271v17.698h-12.271V596.023z M601.311,570.159h12.25v17.687h-12.25V570.159z      M663.914,570.159h12.271v17.687h-12.271V570.159z M601.311,544.286h12.25v17.728h-12.25V544.286z M663.914,544.286h12.271     v17.728h-12.271V544.286z M601.311,518.468h12.25v17.683h-12.25V518.468z M663.914,518.468h12.271v17.683h-12.271V518.468z      M601.311,492.604h12.25v17.687h-12.25V492.604z M663.914,492.604h12.271v17.687h-12.271V492.604z M601.311,466.747h12.25v17.668     h-12.25V466.747z M663.914,466.747h12.271v17.668h-12.271V466.747z M601.311,440.867h12.25v17.671h-12.25V440.867z      M663.914,440.867h12.271v17.671h-12.271V440.867z M601.311,415.022h12.25v17.7h-12.25V415.022z M663.914,415.022h12.271v17.7     h-12.271V415.022z M601.311,389.176h12.25v17.713h-12.25V389.176z M663.914,389.176h12.271v17.713h-12.271V389.176z      M663.914,363.31h12.271v17.687h-12.271V363.31z M663.914,337.465h12.271v17.687h-12.271V337.465z M682.84,303.442l-8.379,8.161     h1.725v17.672h-12.271v-7.385l-50.354,49.089v10.018h-10.272l-12.384,12.066l0.031,0.028v293.914h10.375v-13.412h12.25v13.412     h50.354v-13.412h12.271v13.412h8.625V394.982l0.216-0.232v-91.308H682.84z"
       id="SVGID_16_" /><defs
       id="defs5494"><path
         d="m 601.311,647.729 h 12.25 v 17.705 h -12.25 z m 62.603,0 h 12.271 v 17.705 h -12.271 z m -62.603,-25.844 h 12.25 v 17.684 h -12.25 z m 62.603,0 h 12.271 v 17.684 h -12.271 z m -62.603,-25.862 h 12.25 v 17.698 h -12.25 z m 62.603,0 h 12.271 v 17.698 h -12.271 z m -62.603,-25.864 h 12.25 v 17.687 h -12.25 z m 62.603,0 h 12.271 v 17.687 h -12.271 z m -62.603,-25.873 h 12.25 v 17.728 h -12.25 z m 62.603,0 h 12.271 v 17.728 h -12.271 z m -62.603,-25.818 h 12.25 v 17.683 h -12.25 z m 62.603,0 h 12.271 v 17.683 h -12.271 z m -62.603,-25.864 h 12.25 v 17.687 h -12.25 z m 62.603,0 h 12.271 v 17.687 h -12.271 z m -62.603,-25.857 h 12.25 v 17.668 h -12.25 z m 62.603,0 h 12.271 v 17.668 h -12.271 z m -62.603,-25.88 h 12.25 v 17.671 h -12.25 z m 62.603,0 h 12.271 v 17.671 h -12.271 z m -62.603,-25.845 h 12.25 v 17.7 h -12.25 z m 62.603,0 h 12.271 v 17.7 h -12.271 z m -62.603,-25.846 h 12.25 v 17.713 h -12.25 z m 62.603,0 h 12.271 v 17.713 h -12.271 z m 0,-25.866 h 12.271 v 17.687 h -12.271 z m 0,-25.845 h 12.271 v 17.687 h -12.271 z m 18.926,-34.023 -8.379,8.161 h 1.725 v 17.672 h -12.271 v -7.385 l -50.354,49.089 v 10.018 h -10.272 l -12.384,12.066 0.031,0.028 v 293.914 h 10.375 v -13.412 h 12.25 v 13.412 h 50.354 v -13.412 h 12.271 v 13.412 h 8.625 V 394.982 l 0.216,-0.232 v -91.308 z"
         id="path5585"
         inkscape:connector-curvature="0" /></defs><clipPath
       id="SVGID_8_"><use
         id="use5496"
         overflow="visible"
         xlink:href="#SVGID_16_"
         style="overflow:visible"
         x="0"
         y="0"
         width="100%"
         height="100%" /></clipPath><linearGradient
       gradientTransform="matrix(0,126.2238,126.2238,0,-447526.31,256805.25)"
       y2="3550.5542"
       x2="-2029.0815"
       y1="3550.5542"
       x1="-2030.0815"
       gradientUnits="userSpaceOnUse"
       id="SVGID_9_"><stop
         id="stop5499"
         style="stop-color:#AEB0C9"
         offset="0" /><stop
         id="stop5501"
         style="stop-color:#AEB0C9"
         offset="0.6727" /><stop
         id="stop5503"
         style="stop-color:#5B5E76"
         offset="1" /></linearGradient><defs
       id="defs5477"><path
         d="m 685.014,525.266 h 17.68 v 12.25 h -17.68 z m 25.847,0 h 17.678 v 12.25 h -17.678 z m 25.83,0 h 17.714 v 12.25 h -17.714 z m 25.839,0 h 17.736 v 12.25 H 762.53 Z m 25.892,0 h 17.657 v 12.25 h -17.657 z m 25.862,0 h 17.659 v 12.25 h -17.659 z m -129.27,-62.608 h 17.68 v 12.265 h -17.68 z m 25.847,0 h 17.678 v 12.265 h -17.678 z m 25.83,0 h 17.714 v 12.265 h -17.714 z m 25.839,0 h 17.736 v 12.265 H 762.53 Z m 25.892,0 h 17.657 v 12.265 h -17.657 z m 25.862,0 h 17.659 v 12.265 H 814.284 Z M 682.971,452.45 v 93.876 H 853.06 v -8.828 h -12.93 v -12.232 h 12.93 v -50.344 h -12.93 v -12.264 h 12.93 V 452.45 Z"
         id="path5574"
         inkscape:connector-curvature="0" /></defs><clipPath
       id="SVGID_5_"><use
         id="use5479"
         overflow="visible"
         xlink:href="#SVGID_13_"
         style="overflow:visible"
         x="0"
         y="0"
         width="100%"
         height="100%" /></clipPath><linearGradient
       gradientTransform="matrix(-50.513,0,0,50.513,-104272.38,-180224.83)"
       y2="3577.7788"
       x2="-2077.791"
       y1="3577.7788"
       x1="-2078.791"
       gradientUnits="userSpaceOnUse"
       id="SVGID_6_"><stop
         id="stop5482"
         style="stop-color:#AEB0C9"
         offset="0" /><stop
         id="stop5484"
         style="stop-color:#AEB0C9"
         offset="0.703" /><stop
         id="stop5486"
         style="stop-color:#5B5E76"
         offset="1" /></linearGradient><defs
       id="defs5460"><path
         d="m 685.014,374.232 h 17.68 v 12.202 h -17.68 z m 25.847,0 h 17.677 v 12.202 h -17.677 z m 25.83,0 h 17.712 v 12.202 h -17.712 z m 25.839,0 h 17.736 v 12.202 H 762.53 Z m 25.892,0 h 17.657 v 12.202 h -17.657 z m 25.862,0 h 17.659 v 12.202 h -17.659 z m 25.846,0 h 17.701 v 12.202 H 840.13 Z m 25.861,0 h 17.684 v 12.202 H 865.991 Z M 685.014,311.603 h 17.68 v 12.233 h -17.68 z m 25.847,0 h 17.677 v 12.233 h -17.677 z m 25.83,0 h 17.712 v 12.233 h -17.712 z m 25.839,0 h 17.736 v 12.233 H 762.53 Z m 25.892,0 h 17.657 v 12.233 h -17.657 z m 25.862,0 h 17.659 v 12.233 h -17.659 z m 25.846,0 h 17.701 v 12.233 H 840.13 Z m 25.861,0 h 17.684 v 12.233 h -17.684 z m -181.073,-8.162 v 91.851 H 898.56 v -8.859 h -6.721 v -12.201 h 6.721 v -50.395 h -6.721 v -12.234 h 6.721 v -8.162 z"
         id="path5563"
         inkscape:connector-curvature="0" /></defs><clipPath
       id="SVGID_2_"><use
         id="use5462"
         overflow="visible"
         xlink:href="#SVGID_10_"
         style="overflow:visible"
         x="0"
         y="0"
         width="100%"
         height="100%" /></clipPath><linearGradient
       gradientTransform="matrix(-63.4472,0,0,63.4472,-130726.64,-226138.08)"
       y2="3569.6968"
       x2="-2071.1943"
       y1="3569.6968"
       x1="-2072.1943"
       gradientUnits="userSpaceOnUse"
       id="SVGID_3_"><stop
         id="stop5465"
         style="stop-color:#AEB0C9"
         offset="0" /><stop
         id="stop5467"
         style="stop-color:#AEB0C9"
         offset="0.703" /><stop
         id="stop5469"
         style="stop-color:#5B5E76"
         offset="1" /></linearGradient></defs><sodipodi:namedview
     pagecolor="#ffffff"
     bordercolor="#666666"
     borderopacity="1"
     objecttolerance="10"
     gridtolerance="10"
     guidetolerance="10"
     inkscape:pageopacity="0"
     inkscape:pageshadow="2"
     inkscape:window-width="1700"
     inkscape:window-height="1034"
     id="namedview45"
     showgrid="false"
     inkscape:zoom="4"
     inkscape:cx="146.1203"
     inkscape:cy="49.709809"
     inkscape:window-x="11"
     inkscape:window-y="0"
     inkscape:window-maximized="0"
     inkscape:current-layer="Layer_1" /><g
     id="g5817"
     transform="matrix(0.4726907,0,0,0.4726907,57.147801,17.688374)"><polygon
       transform="matrix(0.17253575,0,0,0.17253575,14.689988,-63.330678)"
       id="polygon5377"
       points="206.326,870.531 275.182,870.531 275.182,901.162 206.326,901.162 206.326,962.412 171.448,962.412 171.448,806.156 278.758,806.156 278.758,836.787 206.326,836.787 "
       style="fill:#ffffff" /><rect
       id="rect5379"
       height="26.959745"
       width="6.0158043"
       y="75.760056"
       x="75.590103"
       style="fill:#ffffff;stroke-width:0.17253575" /><polygon
       transform="matrix(0.17253575,0,0,0.17253575,14.689988,-63.330678)"
       id="polygon5381"
       points="470.982,806.156 505.859,806.156 505.859,931.347 572.482,931.347 572.482,962.412 470.982,962.412 "
       style="fill:#ffffff" /><polygon
       transform="matrix(0.17253575,0,0,0.17253575,14.689988,-63.330678)"
       id="polygon5383"
       points="782.361,864.056 740.115,949.451 719.343,949.451 677.305,864.056 677.305,962.412 642.434,962.412 642.434,806.156 689.605,806.156 729.835,891.996 770.3,806.156 817.237,806.156 817.237,962.412 782.361,962.412 "
       style="fill:#ffffff" /><rect
       id="rect5385"
       height="26.959745"
       width="6.0171843"
       y="75.760056"
       x="170.04065"
       style="fill:#ffffff;stroke-width:0.17253575" /><polygon
       transform="matrix(0.17253575,0,0,0.17253575,14.689988,-63.330678)"
       id="polygon5387"
       points="1131.075,837.234 1053.292,837.234 1053.292,869.416 1123.257,869.416 1123.257,899.148 1053.292,899.148 1053.292,931.56 1133.542,931.56 1133.542,962.412 1018.419,962.412 1018.419,806.156 1131.075,806.156 "
       style="fill:#ffffff" /><path
       style="fill:#ffffff;stroke-width:0.17253575"
       inkscape:connector-curvature="0"
       d="m 229.64503,81.14127 c -0.57627,0.475163 -0.86544,1.105954 -0.86544,1.888403 0,0.785901 0.35284,1.408582 1.06041,1.870978 0.70601,0.462051 2.33906,1.009334 4.89777,1.63978 2.55663,0.630791 4.54597,1.574389 5.95887,2.835452 1.41358,1.258649 2.12167,3.096499 2.12167,5.514415 0,2.416536 -0.9065,4.376715 -2.72054,5.881052 -1.81094,1.50469 -4.19745,2.25573 -7.15282,2.25573 -4.26922,0 -8.11418,-1.57939 -11.53194,-4.742658 l 3.5865,-4.397937 c 2.90343,2.545938 5.59188,3.820805 8.06,3.820805 1.10699,0 1.97243,-0.237582 2.60288,-0.716024 0.63079,-0.472748 0.94653,-1.116824 0.94653,-1.926534 0,-0.80971 -0.33368,-1.453441 -1.00226,-1.92964 -0.67168,-0.475163 -1.994,-0.956365 -3.97402,-1.445332 -3.13635,-0.745009 -5.4309,-1.717593 -6.88521,-2.912231 -1.45447,-1.197225 -2.17723,-3.072689 -2.17723,-5.632429 0,-2.557325 0.91962,-4.531479 2.75816,-5.918839 1.83751,-1.38874 4.13033,-2.083542 6.88228,-2.083542 1.80058,0 3.59823,0.310047 5.39951,0.92738 1.80144,0.616988 3.36945,1.490881 4.70505,2.62099 l -3.04561,4.398282 c -2.34027,-1.774876 -4.75888,-2.662227 -7.25219,-2.662227 -1.00105,1.73e-4 -1.79196,0.238272 -2.37237,0.714126"
       id="path5389" /><path
       style="fill:#ffffff;fill-opacity:0.78431373;stroke-width:0.17253575"
       inkscape:connector-curvature="0"
       d="m 47.566675,123.8644 c 0.691869,0 1.255025,-0.27727 1.693784,-0.83576 l 0.902879,0.94584 c -0.716541,0.82023 -1.557307,1.22862 -2.527476,1.22862 -0.969478,0 -1.769527,-0.3097 -2.397384,-0.93514 -0.627168,-0.62199 -0.942736,-1.41031 -0.942736,-2.36184 0,-0.95067 0.320917,-1.74451 0.962232,-2.38307 0.638555,-0.63562 1.421695,-0.9536 2.344934,-0.9536 1.035042,0 1.898756,0.40028 2.59511,1.20206 l -0.874584,1.01019 c -0.443417,-0.56419 -0.996049,-0.84421 -1.655825,-0.84421 -0.529168,0 -0.980866,0.17598 -1.357857,0.52899 -0.373367,0.34973 -0.563156,0.82524 -0.563156,1.421 0,0.59612 0.178229,1.07404 0.531065,1.43481 0.355078,0.36319 0.786072,0.54211 1.289014,0.54211"
       id="path5391" /><path
       style="fill:#ffffff;fill-opacity:0.78431373;stroke-width:0.17253575"
       inkscape:connector-curvature="0"
       d="m 56.848063,121.88766 c 0,-0.57179 -0.179092,-1.06041 -0.540209,-1.46449 -0.35922,-0.40304 -0.802636,-0.60629 -1.329388,-0.60629 -0.524336,0 -0.967581,0.20325 -1.329388,0.60629 -0.360255,0.40408 -0.539174,0.8927 -0.539174,1.46449 0,0.57213 0.178919,1.05816 0.539174,1.45879 0.361807,0.40097 0.805052,0.60146 1.329388,0.60146 0.526752,0 0.970168,-0.20049 1.329388,-0.60146 0.361117,-0.40063 0.540209,-0.88649 0.540209,-1.45879 m 0.478787,2.35925 c -0.635967,0.63321 -1.421695,0.9486 -2.351145,0.9486 -0.933073,0 -1.716213,-0.31539 -2.351144,-0.9486 -0.639245,-0.6332 -0.956884,-1.42169 -0.956884,-2.36426 0,-0.94014 0.317639,-1.72932 0.956884,-2.36184 0.634931,-0.6332 1.418071,-0.95136 2.351144,-0.95136 0.92945,0 1.715178,0.31816 2.351145,0.95136 0.634932,0.63252 0.953433,1.4217 0.953433,2.36184 1.72e-4,0.94257 -0.318501,1.73106 -0.953433,2.36426"
       id="path5393" /><polygon
       transform="matrix(0.17253575,0,0,0.17253575,14.689988,-63.330678)"
       id="polygon5397"
       points="290.289,1092.308 272.903,1069.017 272.903,1092.308 264.762,1092.308 264.762,1055.126 272.375,1055.126 290.289,1079.068 290.289,1055.126 298.44,1055.126 298.44,1092.308 "
       style="fill:#ffffff;fill-opacity:0.78431373" /><polygon
       transform="matrix(0.17253575,0,0,0.17253575,14.689988,-63.330678)"
       id="polygon5399"
       points="338.196,1092.308 320.807,1069.017 320.807,1092.308 312.654,1092.308 312.654,1055.126 320.277,1055.126 338.196,1079.068 338.196,1055.126 346.333,1055.126 346.333,1092.308 "
       style="fill:#ffffff;fill-opacity:0.78431373" /><polygon
       transform="matrix(0.17253575,0,0,0.17253575,14.689988,-63.330678)"
       id="polygon5401"
       points="386.865,1062.529 368.684,1062.529 368.684,1070.177 385.041,1070.177 385.041,1077.257 368.684,1077.257 368.684,1084.964 387.441,1084.964 387.441,1092.308 360.535,1092.308 360.535,1055.126 386.865,1055.126 "
       style="fill:#ffffff;fill-opacity:0.78431373" /><path
       style="fill:#ffffff;fill-opacity:0.78431373;stroke-width:0.17253575"
       inkscape:connector-curvature="0"
       d="m 86.578389,123.8644 c 0.692903,0 1.255887,-0.27727 1.694818,-0.83576 l 0.90288,0.94584 c -0.715679,0.82023 -1.558343,1.22862 -2.527649,1.22862 -0.969133,0 -1.769354,-0.3097 -2.397384,-0.93514 -0.626823,-0.62199 -0.942563,-1.41031 -0.942563,-2.36184 0,-0.95067 0.320744,-1.74451 0.963095,-2.38307 0.636656,-0.63562 1.420659,-0.9536 2.34407,-0.9536 1.03487,0 1.897893,0.40028 2.594075,1.20206 l -0.872858,1.01019 c -0.444107,-0.56419 -0.996739,-0.84421 -1.656688,-0.84421 -0.528477,0 -0.981729,0.17598 -1.358029,0.52899 -0.373368,0.34973 -0.563847,0.82524 -0.563847,1.421 0,0.59612 0.178919,1.07404 0.5321,1.43481 0.354906,0.36319 0.786246,0.54211 1.28798,0.54211"
       id="path5403" /><polygon
       transform="matrix(0.17253575,0,0,0.17253575,14.689988,-63.330678)"
       id="polygon5407"
       points="440.32,1055.126 469.162,1055.126 469.162,1062.31 458.82,1062.31 458.82,1092.308 450.667,1092.308 450.667,1062.31 440.32,1062.31 "
       style="fill:#ffffff;fill-opacity:0.78431373" /><rect
       id="rect5409"
       height="8.5800304"
       width="0.74949527"
       y="117.95435"
       x="100.86279"
       style="fill:#ffffff;fill-opacity:0.78431373;stroke-width:0.17253575" /><path
       style="fill:#ffffff;fill-opacity:0.78431373;stroke-width:0.17253575"
       inkscape:connector-curvature="0"
       d="m 111.1304,123.37077 c 0.34507,-0.33126 0.51899,-0.81247 0.51899,-1.44326 0,-0.62751 -0.17392,-1.11372 -0.51899,-1.45344 -0.34576,-0.33869 -0.87614,-0.50984 -1.59113,-0.50984 h -0.784 v 3.90051 h 0.89218 c 0.64115,0 1.13719,-0.1658 1.48295,-0.49397 m 1.03228,-3.81562 c 0.60129,0.56074 0.90012,1.33853 0.90012,2.33803 0,0.99639 -0.29331,1.78505 -0.87976,2.36736 -0.58438,0.57989 -1.47604,0.87113 -2.67931,0.87113 h -2.15324 v -6.41522 h 2.22519 c 1.12183,-1.7e-4 1.98571,0.28003 2.587,0.8387"
       id="path5411" /><rect
       id="rect5415"
       height="6.4155688"
       width="1.4049586"
       y="118.7161"
       x="115.18154"
       style="fill:#ffffff;fill-opacity:0.78431373;stroke-width:0.17253575" /><path
       style="fill:#ffffff;fill-opacity:0.78431373;stroke-width:0.17253575"
       inkscape:connector-curvature="0"
       d="m 120.51013,119.9958 c -0.13458,0.11491 -0.20307,0.26485 -0.20307,0.45153 0,0.18703 0.0825,0.33437 0.24828,0.44376 0.16477,0.10922 0.54797,0.24 1.14218,0.38993 0.59974,0.14959 1.06541,0.3744 1.39219,0.67565 0.33196,0.29952 0.49691,0.73794 0.49691,1.31248 0,0.57455 -0.21015,1.04194 -0.63511,1.39978 -0.42219,0.35819 -0.98,0.53417 -1.67014,0.53417 -0.9995,0 -1.8979,-0.37371 -2.69518,-1.12717 l 0.838,-1.04729 c 0.67876,0.60629 1.30713,0.91081 1.88375,0.91081 0.25639,0 0.45946,-0.058 0.60698,-0.17081 0.14717,-0.1118 0.22136,-0.26726 0.22136,-0.45963 0,-0.19238 -0.0771,-0.34473 -0.23586,-0.45688 -0.15528,-0.11525 -0.46463,-0.22982 -0.92565,-0.34438 -0.73362,-0.17961 -1.27004,-0.40874 -1.6089,-0.69446 -0.34058,-0.28382 -0.50811,-0.72982 -0.50811,-1.33922 0,-0.60888 0.21463,-1.07938 0.64476,-1.40789 0.42737,-0.33127 0.96482,-0.49673 1.60769,-0.49673 0.41857,0 0.83904,0.0749 1.2621,0.22171 0.41943,0.14665 0.78504,0.35525 1.09802,0.62199 l -0.7124,1.04798 c -0.54729,-0.42254 -1.11044,-0.6332 -1.69379,-0.6332 -0.23464,1.7e-4 -0.41926,0.0554 -0.55401,0.16787"
       id="path5417" /><path
       style="fill:#ffffff;fill-opacity:0.78431373;stroke-width:0.17253575"
       inkscape:connector-curvature="0"
       d="m 128.57911,123.8644 c 0.69187,0 1.25589,-0.27727 1.69309,-0.83576 l 0.90357,0.94584 c -0.71654,0.82023 -1.5573,1.22862 -2.52833,1.22862 -0.96948,0 -1.76763,-0.3097 -2.39549,-0.93514 -0.62907,-0.62199 -0.94308,-1.41031 -0.94308,-2.36184 0,-0.95067 0.31953,-1.74451 0.96068,-2.38307 0.63959,-0.63562 1.42152,-0.9536 2.34683,-0.9536 1.03314,0 1.89686,0.40028 2.59476,1.20206 l -0.87423,1.01019 c -0.44325,-0.56419 -0.99657,-0.84421 -1.65687,-0.84421 -0.52934,0 -0.98,0.17598 -1.35682,0.52899 -0.37526,0.34973 -0.56402,0.82524 -0.56402,1.421 0,0.59612 0.17892,1.07404 0.5321,1.43481 0.35474,0.36319 0.78504,0.54211 1.28781,0.54211"
       id="path5419" /><path
       style="fill:#ffffff;fill-opacity:0.78431373;stroke-width:0.17253575"
       inkscape:connector-curvature="0"
       d="m 137.85791,121.88766 c 0,-0.57179 -0.17823,-1.06041 -0.54021,-1.46449 -0.36008,-0.40304 -0.8035,-0.60629 -1.32939,-0.60629 -0.52433,0 -0.96689,0.20325 -1.32766,0.60629 -0.36198,0.40408 -0.54021,0.8927 -0.54021,1.46449 0,0.57213 0.17823,1.05816 0.54021,1.45879 0.36095,0.40097 0.80333,0.60146 1.32766,0.60146 0.52589,0 0.96931,-0.20049 1.32939,-0.60146 0.36198,-0.40063 0.54021,-0.88649 0.54021,-1.45879 m 0.47896,2.35925 c -0.63597,0.63321 -1.42169,0.9486 -2.35114,0.9486 -0.93308,0 -1.71604,-0.31539 -2.35218,-0.9486 -0.63752,-0.6332 -0.95706,-1.42169 -0.95706,-2.36426 0,-0.94014 0.31954,-1.72932 0.95706,-2.36184 0.63614,-0.6332 1.4191,-0.95136 2.35218,-0.95136 0.92945,0 1.71517,0.31816 2.35114,0.95136 0.63493,0.63252 0.95326,1.4217 0.95326,2.36184 0,0.94257 -0.3185,1.73106 -0.95326,2.36426"
       id="path5421" /><polygon
       transform="matrix(0.17253575,0,0,0.17253575,14.689988,-63.330678)"
       id="polygon5425"
       points="737.647,1055.126 746.932,1078.802 756.23,1055.126 765.05,1055.126 750.391,1092.308 743.482,1092.308 728.811,1055.126 "
       style="fill:#ffffff;fill-opacity:0.78431373" /><polygon
       transform="matrix(0.17253575,0,0,0.17253575,14.689988,-63.330678)"
       id="polygon5427"
       points="800.928,1062.529 782.752,1062.529 782.752,1070.177 799.109,1070.177 799.109,1077.257 782.752,1077.257 782.752,1084.964 801.51,1084.964 801.51,1092.308 774.601,1092.308 774.601,1055.126 800.928,1055.126 "
       style="fill:#ffffff;fill-opacity:0.78431373" /><path
       style="fill:#ffffff;fill-opacity:0.78431373;stroke-width:0.17253575"
       inkscape:connector-curvature="0"
       d="m 158.54547,121.60763 c 0.17495,-0.15804 0.26346,-0.41219 0.26346,-0.75657 0,-0.34748 -0.0923,-0.58265 -0.27054,-0.71067 -0.18271,-0.13113 -0.49759,-0.19549 -0.94584,-0.19549 h -1.0554 v 1.90031 h 1.02607 c 0.48068,0 0.8085,-0.0778 0.98225,-0.23758 m 1.69481,-0.76192 c 0,1.02883 -0.3989,1.69172 -1.19705,1.9902 l 1.59251,2.29559 h -1.72933 l -1.39754,-2.04644 h -0.97189 v 2.04644 h -1.40548 v -6.41522 h 2.38824 c 0.97793,0 1.67584,0.16788 2.09545,0.50484 0.41581,0.33661 0.62509,0.87924 0.62509,1.62459"
       id="path5429" /><rect
       id="rect5433"
       height="8.5800304"
       width="0.74742484"
       y="117.95435"
       x="165.88031"
       style="fill:#ffffff;fill-opacity:0.78431373;stroke-width:0.17253575" /><path
       style="fill:#ffffff;fill-opacity:0.78431373;stroke-width:0.17253575"
       inkscape:connector-curvature="0"
       d="m 175.77851,121.60763 c 0.17357,-0.15804 0.26243,-0.41219 0.26243,-0.75657 0,-0.34748 -0.0906,-0.58265 -0.26951,-0.71067 -0.18099,-0.13113 -0.49673,-0.19549 -0.94618,-0.19549 h -1.05437 v 1.90031 h 1.02538 c 0.4812,0 0.80937,-0.0778 0.98225,-0.23758 m 1.69482,-0.76192 c 0,1.02883 -0.39839,1.69172 -1.19723,1.9902 l 1.59233,2.29559 h -1.72811 l -1.3972,-2.04644 h -0.97224 v 2.04644 h -1.40547 v -6.41522 h 2.38824 c 0.97689,0 1.67618,0.16788 2.09544,0.50484 0.41599,0.33661 0.62424,0.87924 0.62424,1.62459"
       id="path5435" /><polygon
       transform="matrix(0.17253575,0,0,0.17253575,14.689988,-63.330678)"
       id="polygon5439"
       points="983.388,1062.529 965.212,1062.529 965.212,1070.177 981.558,1070.177 981.558,1077.257 965.212,1077.257 965.212,1084.964 983.964,1084.964 983.964,1092.308 957.06,1092.308 957.06,1055.126 983.388,1055.126 "
       style="fill:#ffffff;fill-opacity:0.78431373" /><path
       style="fill:#ffffff;fill-opacity:0.78431373;stroke-width:0.17253575"
       inkscape:connector-curvature="0"
       d="m 189.50355,123.8644 c 0.69084,0 1.25486,-0.27727 1.69206,-0.83576 l 0.90478,0.94584 c -0.71671,0.82023 -1.55817,1.22862 -2.52834,1.22862 -0.97017,0 -1.76849,-0.3097 -2.39669,-0.93514 -0.62786,-0.62199 -0.94257,-1.41031 -0.94257,-2.36184 0,-0.95067 0.3192,-1.74451 0.96034,-2.38307 0.64028,-0.63562 1.42273,-0.9536 2.34735,-0.9536 1.03418,0 1.8972,0.40028 2.59442,1.20206 l -0.87372,1.01019 c -0.44342,-0.56419 -0.99571,-0.84421 -1.65755,-0.84421 -0.52865,0 -0.98001,0.17598 -1.357,0.52899 -0.37406,0.34973 -0.56315,0.82524 -0.56315,1.421 0,0.59612 0.17926,1.07404 0.53141,1.43481 0.35559,0.36319 0.78555,0.54211 1.28866,0.54211"
       id="path5441" /><path
       style="fill:#ffffff;fill-opacity:0.78431373;stroke-width:0.17253575"
       inkscape:connector-curvature="0"
       d="m 198.78149,121.88766 c 0,-0.57179 -0.17754,-1.06041 -0.53917,-1.46449 -0.36026,-0.40304 -0.80471,-0.60629 -1.33042,-0.60629 -0.52331,0 -0.9669,0.20325 -1.32767,0.60629 -0.36198,0.40408 -0.54021,0.8927 -0.54021,1.46449 0,0.57213 0.17823,1.05816 0.54021,1.45879 0.36095,0.40097 0.80436,0.60146 1.32767,0.60146 0.52571,0 0.97016,-0.20049 1.33042,-0.60146 0.36146,-0.40063 0.53917,-0.88649 0.53917,-1.45879 m 0.47879,2.35925 c -0.63597,0.63321 -1.42066,0.9486 -2.35046,0.9486 -0.93272,0 -1.71586,-0.31539 -2.35287,-0.9486 -0.637,-0.6332 -0.95533,-1.42169 -0.95533,-2.36426 0,-0.94014 0.31851,-1.72932 0.95533,-2.36184 0.63683,-0.6332 1.41997,-0.95136 2.35287,-0.95136 0.9298,0 1.71466,0.31816 2.35046,0.95136 0.63597,0.63252 0.95326,1.4217 0.95326,2.36184 0,0.94257 -0.31729,1.73106 -0.95326,2.36426"
       id="path5443" /><polygon
       transform="matrix(0.17253575,0,0,0.17253575,14.689988,-63.330678)"
       id="polygon5447"
       points="1120.101,1068.906 1110.237,1089.224 1105.374,1089.224 1095.55,1068.906 1095.55,1092.308 1087.409,1092.308 1087.409,1055.126 1098.433,1055.126 1107.835,1075.552 1117.284,1055.126 1128.249,1055.126 1128.249,1092.308 1120.101,1092.308 "
       style="fill:#ffffff;fill-opacity:0.78431373" /><polygon
       transform="matrix(0.17253575,0,0,0.17253575,14.689988,-63.330678)"
       id="polygon5449"
       points="1175.138,1068.906 1165.272,1089.224 1160.411,1089.224 1150.589,1068.906 1150.589,1092.308 1142.44,1092.308 1142.44,1055.126 1153.476,1055.126 1162.868,1075.552 1172.321,1055.126 1183.28,1055.126 1183.28,1092.308 1175.138,1092.308 "
       style="fill:#ffffff;fill-opacity:0.78431373" /><polygon
       transform="matrix(0.17253575,0,0,0.17253575,14.689988,-63.330678)"
       id="polygon5451"
       points="1223.827,1062.529 1205.642,1062.529 1205.642,1070.177 1221.993,1070.177 1221.993,1077.257 1205.642,1077.257 1205.642,1084.964 1224.399,1084.964 1224.399,1092.308 1197.503,1092.308 1197.503,1055.126 1223.827,1055.126 "
       style="fill:#ffffff;fill-opacity:0.78431373" /><polygon
       transform="matrix(0.17253575,0,0,0.17253575,14.689988,-63.330678)"
       id="polygon5453"
       points="1262.401,1092.308 1245.011,1069.017 1245.011,1092.308 1236.864,1092.308 1236.864,1055.126 1244.481,1055.126 1262.401,1079.068 1262.401,1055.126 1270.548,1055.126 1270.548,1092.308 "
       style="fill:#ffffff;fill-opacity:0.78431373" /><path
       style="fill:#ffffff;fill-opacity:0.78431373;stroke-width:0.17253575"
       inkscape:connector-curvature="0"
       d="m 240.13538,123.37077 c 0.34403,-0.33126 0.51899,-0.81247 0.51899,-1.44326 0,-0.62751 -0.17496,-1.11372 -0.51899,-1.45344 -0.34783,-0.33869 -0.87614,-0.50984 -1.59285,-0.50984 h -0.78314 v 3.90051 h 0.89304 c 0.64149,0 1.13529,-0.1658 1.48295,-0.49397 m 1.03159,-3.81562 c 0.60042,0.56074 0.90012,1.33853 0.90012,2.33803 0,0.99639 -0.29452,1.78505 -0.8789,2.36736 -0.58541,0.57989 -1.47725,0.87113 -2.67931,0.87113 h -2.15393 v -6.41522 h 2.22571 c 1.12303,-1.7e-4 1.98571,0.28003 2.58631,0.8387"
       id="path5455" /><rect
       transform="matrix(0.17253575,0,0,0.17253575,14.689988,-63.330678)"
       style="fill:#ffffff;fill-opacity:0.78431373"
       x="684.91803"
       y="303.44101"
       clip-path="url(#SVGID_2_)"
       width="213.642"
       height="91.850998"
       id="rect5472" /><rect
       transform="matrix(0.17253575,0,0,0.17253575,14.689988,-63.330678)"
       style="fill:#ffffff;fill-opacity:0.78431373"
       x="682.97101"
       y="452.45001"
       clip-path="url(#SVGID_5_)"
       width="170.089"
       height="93.875999"
       id="rect5489" /><rect
       transform="matrix(0.17253575,0,0,0.17253575,14.689988,-63.330678)"
       style="fill:#ffffff;fill-opacity:0.78431373"
       x="590.90399"
       y="303.44199"
       clip-path="url(#SVGID_8_)"
       width="94.122002"
       height="383.56299"
       id="rect5506" /></g></svg>