<?xml version="1.0" encoding="UTF-8" standalone="no"?>
<svg
   xmlns:dc="http://purl.org/dc/elements/1.1/"
   xmlns:cc="http://creativecommons.org/ns#"
   xmlns:rdf="http://www.w3.org/1999/02/22-rdf-syntax-ns#"
   xmlns:svg="http://www.w3.org/2000/svg"
   xmlns="http://www.w3.org/2000/svg"
   xmlns:xlink="http://www.w3.org/1999/xlink"
   xmlns:sodipodi="http://sodipodi.sourceforge.net/DTD/sodipodi-0.dtd"
   xmlns:inkscape="http://www.inkscape.org/namespaces/inkscape"
   version="1.1"
   id="Layer_1"
   x="0px"
   y="0px"
   viewBox="0 0 250 91"
   enable-background="new 0 0 368.5 180.1"
   xml:space="preserve"
   inkscape:version="0.92.2 (5c3e80d, 2017-08-06)"
   sodipodi:docname="filmies.svg"
   width="250"
   height="91"><metadata
     id="metadata49"><rdf:RDF><cc:Work
         rdf:about=""><dc:format>image/svg+xml</dc:format><dc:type
           rdf:resource="http://purl.org/dc/dcmitype/StillImage" /><dc:title /></cc:Work></rdf:RDF></metadata><defs
     id="defs47"><path
       d="M685.014,374.232h17.68v12.202h-17.68V374.232z M710.861,374.232h17.677v12.202h-17.677V374.232z      M736.691,374.232h17.712v12.202h-17.712V374.232z M762.53,374.232h17.736v12.202H762.53V374.232z M788.422,374.232h17.657     v12.202h-17.657V374.232z M814.284,374.232h17.659v12.202h-17.659V374.232z M840.13,374.232h17.701v12.202H840.13V374.232z      M865.991,374.232h17.684v12.202h-17.684V374.232z M685.014,311.603h17.68v12.233h-17.68V311.603z M710.861,311.603h17.677     v12.233h-17.677V311.603z M736.691,311.603h17.712v12.233h-17.712V311.603z M762.53,311.603h17.736v12.233H762.53V311.603z      M788.422,311.603h17.657v12.233h-17.657V311.603z M814.284,311.603h17.659v12.233h-17.659V311.603z M840.13,311.603h17.701     v12.233H840.13V311.603z M865.991,311.603h17.684v12.233h-17.684V311.603z M684.918,303.441v91.851H898.56v-8.859h-6.721v-12.201     h6.721v-50.395h-6.721v-12.234h6.721v-8.162H684.918z"
       id="SVGID_10_" /><path
       d="M685.014,525.266h17.68v12.25h-17.68V525.266z M710.861,525.266h17.678v12.25h-17.678V525.266z      M736.691,525.266h17.714v12.25h-17.714V525.266z M762.53,525.266h17.736v12.25H762.53V525.266z M788.422,525.266h17.657v12.25     h-17.657V525.266z M814.284,525.266h17.659v12.25h-17.659V525.266z M685.014,462.658h17.68v12.265h-17.68V462.658z      M710.861,462.658h17.678v12.265h-17.678V462.658z M736.691,462.658h17.714v12.265h-17.714V462.658z M762.53,462.658h17.736     v12.265H762.53V462.658z M788.422,462.658h17.657v12.265h-17.657V462.658z M814.284,462.658h17.659v12.265h-17.659V462.658z      M682.971,452.45v93.876H853.06v-8.828h-12.93v-12.232h12.93v-50.344h-12.93v-12.264h12.93V452.45H682.971z"
       id="SVGID_13_" /><path
       d="M601.311,647.729h12.25v17.705h-12.25V647.729z M663.914,647.729h12.271v17.705h-12.271V647.729z      M601.311,621.885h12.25v17.684h-12.25V621.885z M663.914,621.885h12.271v17.684h-12.271V621.885z M601.311,596.023h12.25v17.698     h-12.25V596.023z M663.914,596.023h12.271v17.698h-12.271V596.023z M601.311,570.159h12.25v17.687h-12.25V570.159z      M663.914,570.159h12.271v17.687h-12.271V570.159z M601.311,544.286h12.25v17.728h-12.25V544.286z M663.914,544.286h12.271     v17.728h-12.271V544.286z M601.311,518.468h12.25v17.683h-12.25V518.468z M663.914,518.468h12.271v17.683h-12.271V518.468z      M601.311,492.604h12.25v17.687h-12.25V492.604z M663.914,492.604h12.271v17.687h-12.271V492.604z M601.311,466.747h12.25v17.668     h-12.25V466.747z M663.914,466.747h12.271v17.668h-12.271V466.747z M601.311,440.867h12.25v17.671h-12.25V440.867z      M663.914,440.867h12.271v17.671h-12.271V440.867z M601.311,415.022h12.25v17.7h-12.25V415.022z M663.914,415.022h12.271v17.7     h-12.271V415.022z M601.311,389.176h12.25v17.713h-12.25V389.176z M663.914,389.176h12.271v17.713h-12.271V389.176z      M663.914,363.31h12.271v17.687h-12.271V363.31z M663.914,337.465h12.271v17.687h-12.271V337.465z M682.84,303.442l-8.379,8.161     h1.725v17.672h-12.271v-7.385l-50.354,49.089v10.018h-10.272l-12.384,12.066l0.031,0.028v293.914h10.375v-13.412h12.25v13.412     h50.354v-13.412h12.271v13.412h8.625V394.982l0.216-0.232v-91.308H682.84z"
       id="SVGID_16_" /><defs
       id="defs5494"><path
         d="m 601.311,647.729 h 12.25 v 17.705 h -12.25 z m 62.603,0 h 12.271 v 17.705 h -12.271 z m -62.603,-25.844 h 12.25 v 17.684 h -12.25 z m 62.603,0 h 12.271 v 17.684 h -12.271 z m -62.603,-25.862 h 12.25 v 17.698 h -12.25 z m 62.603,0 h 12.271 v 17.698 h -12.271 z m -62.603,-25.864 h 12.25 v 17.687 h -12.25 z m 62.603,0 h 12.271 v 17.687 h -12.271 z m -62.603,-25.873 h 12.25 v 17.728 h -12.25 z m 62.603,0 h 12.271 v 17.728 h -12.271 z m -62.603,-25.818 h 12.25 v 17.683 h -12.25 z m 62.603,0 h 12.271 v 17.683 h -12.271 z m -62.603,-25.864 h 12.25 v 17.687 h -12.25 z m 62.603,0 h 12.271 v 17.687 h -12.271 z m -62.603,-25.857 h 12.25 v 17.668 h -12.25 z m 62.603,0 h 12.271 v 17.668 h -12.271 z m -62.603,-25.88 h 12.25 v 17.671 h -12.25 z m 62.603,0 h 12.271 v 17.671 h -12.271 z m -62.603,-25.845 h 12.25 v 17.7 h -12.25 z m 62.603,0 h 12.271 v 17.7 h -12.271 z m -62.603,-25.846 h 12.25 v 17.713 h -12.25 z m 62.603,0 h 12.271 v 17.713 h -12.271 z m 0,-25.866 h 12.271 v 17.687 h -12.271 z m 0,-25.845 h 12.271 v 17.687 h -12.271 z m 18.926,-34.023 -8.379,8.161 h 1.725 v 17.672 h -12.271 v -7.385 l -50.354,49.089 v 10.018 h -10.272 l -12.384,12.066 0.031,0.028 v 293.914 h 10.375 v -13.412 h 12.25 v 13.412 h 50.354 v -13.412 h 12.271 v 13.412 h 8.625 V 394.982 l 0.216,-0.232 v -91.308 z"
         id="path5585"
         inkscape:connector-curvature="0" /></defs><clipPath
       id="SVGID_8_"><use
         id="use5496"
         overflow="visible"
         xlink:href="#SVGID_16_"
         style="overflow:visible"
         x="0"
         y="0"
         width="100%"
         height="100%" /></clipPath><linearGradient
       gradientTransform="matrix(0,126.2238,126.2238,0,-447526.31,256805.25)"
       y2="3550.5542"
       x2="-2029.0815"
       y1="3550.5542"
       x1="-2030.0815"
       gradientUnits="userSpaceOnUse"
       id="SVGID_9_"><stop
         id="stop5499"
         style="stop-color:#AEB0C9"
         offset="0" /><stop
         id="stop5501"
         style="stop-color:#AEB0C9"
         offset="0.6727" /><stop
         id="stop5503"
         style="stop-color:#5B5E76"
         offset="1" /></linearGradient><defs
       id="defs5477"><path
         d="m 685.014,525.266 h 17.68 v 12.25 h -17.68 z m 25.847,0 h 17.678 v 12.25 h -17.678 z m 25.83,0 h 17.714 v 12.25 h -17.714 z m 25.839,0 h 17.736 v 12.25 H 762.53 Z m 25.892,0 h 17.657 v 12.25 h -17.657 z m 25.862,0 h 17.659 v 12.25 h -17.659 z m -129.27,-62.608 h 17.68 v 12.265 h -17.68 z m 25.847,0 h 17.678 v 12.265 h -17.678 z m 25.83,0 h 17.714 v 12.265 h -17.714 z m 25.839,0 h 17.736 v 12.265 H 762.53 Z m 25.892,0 h 17.657 v 12.265 h -17.657 z m 25.862,0 h 17.659 v 12.265 H 814.284 Z M 682.971,452.45 v 93.876 H 853.06 v -8.828 h -12.93 v -12.232 h 12.93 v -50.344 h -12.93 v -12.264 h 12.93 V 452.45 Z"
         id="path5574"
         inkscape:connector-curvature="0" /></defs><clipPath
       id="SVGID_5_"><use
         id="use5479"
         overflow="visible"
         xlink:href="#SVGID_13_"
         style="overflow:visible"
         x="0"
         y="0"
         width="100%"
         height="100%" /></clipPath><linearGradient
       gradientTransform="matrix(-50.513,0,0,50.513,-104272.38,-180224.83)"
       y2="3577.7788"
       x2="-2077.791"
       y1="3577.7788"
       x1="-2078.791"
       gradientUnits="userSpaceOnUse"
       id="SVGID_6_"><stop
         id="stop5482"
         style="stop-color:#AEB0C9"
         offset="0" /><stop
         id="stop5484"
         style="stop-color:#AEB0C9"
         offset="0.703" /><stop
         id="stop5486"
         style="stop-color:#5B5E76"
         offset="1" /></linearGradient><defs
       id="defs5460"><path
         d="m 685.014,374.232 h 17.68 v 12.202 h -17.68 z m 25.847,0 h 17.677 v 12.202 h -17.677 z m 25.83,0 h 17.712 v 12.202 h -17.712 z m 25.839,0 h 17.736 v 12.202 H 762.53 Z m 25.892,0 h 17.657 v 12.202 h -17.657 z m 25.862,0 h 17.659 v 12.202 h -17.659 z m 25.846,0 h 17.701 v 12.202 H 840.13 Z m 25.861,0 h 17.684 v 12.202 H 865.991 Z M 685.014,311.603 h 17.68 v 12.233 h -17.68 z m 25.847,0 h 17.677 v 12.233 h -17.677 z m 25.83,0 h 17.712 v 12.233 h -17.712 z m 25.839,0 h 17.736 v 12.233 H 762.53 Z m 25.892,0 h 17.657 v 12.233 h -17.657 z m 25.862,0 h 17.659 v 12.233 h -17.659 z m 25.846,0 h 17.701 v 12.233 H 840.13 Z m 25.861,0 h 17.684 v 12.233 h -17.684 z m -181.073,-8.162 v 91.851 H 898.56 v -8.859 h -6.721 v -12.201 h 6.721 v -50.395 h -6.721 v -12.234 h 6.721 v -8.162 z"
         id="path5563"
         inkscape:connector-curvature="0" /></defs><clipPath
       id="SVGID_2_"><use
         id="use5462"
         overflow="visible"
         xlink:href="#SVGID_10_"
         style="overflow:visible"
         x="0"
         y="0"
         width="100%"
         height="100%" /></clipPath><linearGradient
       gradientTransform="matrix(-63.4472,0,0,63.4472,-130726.64,-226138.08)"
       y2="3569.6968"
       x2="-2071.1943"
       y1="3569.6968"
       x1="-2072.1943"
       gradientUnits="userSpaceOnUse"
       id="SVGID_3_"><stop
         id="stop5465"
         style="stop-color:#AEB0C9"
         offset="0" /><stop
         id="stop5467"
         style="stop-color:#AEB0C9"
         offset="0.703" /><stop
         id="stop5469"
         style="stop-color:#5B5E76"
         offset="1" /></linearGradient></defs><sodipodi:namedview
     pagecolor="#ffffff"
     bordercolor="#666666"
     borderopacity="1"
     objecttolerance="10"
     gridtolerance="10"
     guidetolerance="10"
     inkscape:pageopacity="0"
     inkscape:pageshadow="2"
     inkscape:window-width="1700"
     inkscape:window-height="1034"
     id="namedview45"
     showgrid="false"
     inkscape:zoom="4"
     inkscape:cx="104.3703"
     inkscape:cy="49.709809"
     inkscape:window-x="11"
     inkscape:window-y="0"
     inkscape:window-maximized="0"
     inkscape:current-layer="Layer_1" /><g
     id="g991"
     transform="matrix(1.2811088,0,0,1.2811088,-10.771427,-28.78594)"><g
       id="g946"><polygon
         style="fill:#ffffff"
         points="278.758,836.787 206.326,836.787 206.326,870.531 275.182,870.531 275.182,901.162 206.326,901.162 206.326,962.412 171.448,962.412 171.448,806.156 278.758,806.156 "
         id="polygon5377"
         transform="matrix(0.08155604,0,0,0.08155604,64.091622,-12.247449)" /><rect
         style="fill:#ffffff;stroke-width:0.08155604"
         x="92.87854"
         y="53.499447"
         width="2.8436148"
         height="12.743621"
         id="rect5379" /><polygon
         style="fill:#ffffff"
         points="505.859,931.347 572.482,931.347 572.482,962.412 470.982,962.412 470.982,806.156 505.859,806.156 "
         id="polygon5381"
         transform="matrix(0.08155604,0,0,0.08155604,64.091622,-12.247449)" /><polygon
         style="fill:#ffffff"
         points="729.835,891.996 770.3,806.156 817.237,806.156 817.237,962.412 782.361,962.412 782.361,864.056 740.115,949.451 719.343,949.451 677.305,864.056 677.305,962.412 642.434,962.412 642.434,806.156 689.605,806.156 "
         id="polygon5383"
         transform="matrix(0.08155604,0,0,0.08155604,64.091622,-12.247449)" /><rect
         style="fill:#ffffff;stroke-width:0.08155604"
         x="137.52443"
         y="53.499447"
         width="2.8442671"
         height="12.743621"
         id="rect5385" /><polygon
         style="fill:#ffffff"
         points="1133.542,962.412 1018.419,962.412 1018.419,806.156 1131.075,806.156 1131.075,837.234 1053.292,837.234 1053.292,869.416 1123.257,869.416 1123.257,899.148 1053.292,899.148 1053.292,931.56 1133.542,931.56 "
         id="polygon5387"
         transform="matrix(0.08155604,0,0,0.08155604,64.091622,-12.247449)" /><path
         id="path5389"
         d="m 165.69887,56.043098 c -0.2724,0.224605 -0.40908,0.522774 -0.40908,0.89263 0,0.371488 0.16678,0.665824 0.50124,0.884394 0.33373,0.218407 1.10565,0.477103 2.31513,0.775109 1.2085,0.298169 2.14884,0.744199 2.8167,1.340292 0.66819,0.594951 1.0029,1.463686 1.0029,2.606612 0,1.142274 -0.4285,2.068833 -1.28598,2.779919 -0.85601,0.711253 -1.98409,1.066263 -3.38107,1.066263 -2.01802,0 -3.83549,-0.746563 -5.45104,-2.241811 l 1.69531,-2.078864 c 1.37242,1.203442 2.64323,1.806059 3.80988,1.806059 0.52327,0 0.93235,-0.112302 1.23036,-0.338458 0.29817,-0.223463 0.44742,-0.527912 0.44742,-0.910654 0,-0.382743 -0.15773,-0.687028 -0.47376,-0.912123 -0.3175,-0.224605 -0.94255,-0.452065 -1.87848,-0.683195 -1.48253,-0.352159 -2.56714,-0.81189 -3.25458,-1.376585 -0.68751,-0.565917 -1.02916,-1.452431 -1.02916,-2.662396 0,-1.208824 0.4347,-2.141988 1.30376,-2.797781 0.86858,-0.656444 1.95237,-0.984871 3.25319,-0.984871 0.85112,0 1.70085,0.146557 2.5523,0.438364 0.85152,0.291645 1.59271,0.704726 2.22403,1.238918 l -1.43963,2.079027 c -1.10622,-0.838967 -2.24948,-1.25841 -3.42804,-1.25841 -0.47319,8.2e-5 -0.84704,0.112629 -1.1214,0.337561"
         inkscape:connector-curvature="0"
         style="fill:#ffffff;stroke-width:0.08155604" /><path
         id="path5391"
         d="m 79.632126,76.237924 c 0.32704,0 0.593239,-0.131063 0.800636,-0.395056 l 0.426782,0.44709 c -0.338702,0.387715 -0.736124,0.580757 -1.194714,0.580757 -0.458263,0 -0.836439,-0.146392 -1.133221,-0.442032 -0.296457,-0.294009 -0.445623,-0.66664 -0.445623,-1.11642 0,-0.449373 0.151695,-0.824613 0.454838,-1.126455 0.301839,-0.300451 0.672022,-0.450758 1.108429,-0.450758 0.489255,0 0.897524,0.189209 1.226684,0.568203 L 80.46253,74.78076 c -0.2096,-0.266687 -0.470824,-0.39905 -0.782694,-0.39905 -0.250132,0 -0.463646,0.08318 -0.641846,0.250049 -0.176487,0.165314 -0.266199,0.390083 -0.266199,0.671693 0,0.281781 0.08425,0.507689 0.25103,0.678222 0.167842,0.171676 0.371569,0.25625 0.609305,0.25625"
         inkscape:connector-curvature="0"
         style="fill:#ffffff;fill-opacity:0.78431373;stroke-width:0.08155604" /><path
         id="path5393"
         d="m 84.019352,75.303537 c 0,-0.270279 -0.08465,-0.501246 -0.255352,-0.69225 -0.1698,-0.190514 -0.379399,-0.286588 -0.628389,-0.286588 -0.247849,0 -0.457367,0.09607 -0.62839,0.286588 -0.170289,0.191004 -0.254862,0.421971 -0.254862,0.69225 0,0.270441 0.08457,0.500183 0.254862,0.689557 0.171023,0.189535 0.380541,0.284304 0.62839,0.284304 0.24899,0 0.458589,-0.09477 0.628389,-0.284304 0.170697,-0.189374 0.255352,-0.419036 0.255352,-0.689557 m 0.226318,1.115196 c -0.300616,0.299312 -0.672022,0.448394 -1.111365,0.448394 -0.441054,0 -0.811237,-0.149082 -1.111363,-0.448394 -0.302166,-0.299308 -0.452311,-0.67202 -0.452311,-1.117564 0,-0.444395 0.150145,-0.817433 0.452311,-1.11642 0.300126,-0.299307 0.670309,-0.449699 1.111363,-0.449699 0.439343,0 0.810749,0.150392 1.111365,0.449699 0.300126,0.298987 0.450679,0.672025 0.450679,1.11642 8.1e-5,0.445544 -0.150553,0.818256 -0.450679,1.117564"
         inkscape:connector-curvature="0"
         style="fill:#ffffff;fill-opacity:0.78431373;stroke-width:0.08155604" /><polygon
         style="fill:#ffffff;fill-opacity:0.78431373"
         points="298.44,1055.126 298.44,1092.308 290.289,1092.308 272.903,1069.017 272.903,1092.308 264.762,1092.308 264.762,1055.126 272.375,1055.126 290.289,1079.068 290.289,1055.126 "
         id="polygon5397"
         transform="matrix(0.08155604,0,0,0.08155604,64.091622,-12.247449)" /><polygon
         style="fill:#ffffff;fill-opacity:0.78431373"
         points="346.333,1055.126 346.333,1092.308 338.196,1092.308 320.807,1069.017 320.807,1092.308 312.654,1092.308 312.654,1055.126 320.277,1055.126 338.196,1079.068 338.196,1055.126 "
         id="polygon5399"
         transform="matrix(0.08155604,0,0,0.08155604,64.091622,-12.247449)" /><polygon
         style="fill:#ffffff;fill-opacity:0.78431373"
         points="387.441,1092.308 360.535,1092.308 360.535,1055.126 386.865,1055.126 386.865,1062.529 368.684,1062.529 368.684,1070.177 385.041,1070.177 385.041,1077.257 368.684,1077.257 368.684,1084.964 387.441,1084.964 "
         id="polygon5401"
         transform="matrix(0.08155604,0,0,0.08155604,64.091622,-12.247449)" /><path
         id="path5403"
         d="m 98.0726,76.237924 c 0.327529,0 0.593646,-0.131063 0.801125,-0.395056 l 0.426783,0.44709 c -0.338295,0.387715 -0.736614,0.580757 -1.194796,0.580757 -0.4581,0 -0.836357,-0.146392 -1.133221,-0.442032 -0.296294,-0.294009 -0.445541,-0.66664 -0.445541,-1.11642 0,-0.449373 0.151613,-0.824613 0.455246,-1.126455 0.300941,-0.300451 0.671532,-0.450758 1.10802,-0.450758 0.489173,0 0.897116,0.189209 1.226195,0.568203 l -0.412592,0.477507 c -0.209925,-0.266687 -0.471149,-0.39905 -0.783101,-0.39905 -0.249806,0 -0.464054,0.08318 -0.641927,0.250049 -0.176488,0.165314 -0.266526,0.390083 -0.266526,0.671693 0,0.281781 0.08457,0.507689 0.251519,0.678222 0.167761,0.171676 0.371651,0.25625 0.608816,0.25625"
         inkscape:connector-curvature="0"
         style="fill:#ffffff;fill-opacity:0.78431373;stroke-width:0.08155604" /><polygon
         style="fill:#ffffff;fill-opacity:0.78431373"
         points="440.32,1055.126 469.162,1055.126 469.162,1062.31 458.82,1062.31 458.82,1092.308 450.667,1092.308 450.667,1062.31 440.32,1062.31 "
         id="polygon5407"
         transform="matrix(0.08155604,0,0,0.08155604,64.091622,-12.247449)" /><rect
         style="fill:#ffffff;fill-opacity:0.78431373;stroke-width:0.08155604"
         x="104.82471"
         y="73.444298"
         width="0.35427943"
         height="4.0557008"
         id="rect5409" /><path
         id="path5411"
         d="m 109.67811,76.00459 c 0.16311,-0.156584 0.24532,-0.384047 0.24532,-0.682216 0,-0.296618 -0.0822,-0.526445 -0.24532,-0.687028 -0.16344,-0.160095 -0.41415,-0.240996 -0.75211,-0.240996 h -0.37059 v 1.843735 h 0.42172 c 0.30307,0 0.53754,-0.07837 0.70098,-0.233495 m 0.48795,-1.803608 c 0.28422,0.265056 0.42548,0.63271 0.42548,1.105165 0,0.470984 -0.13865,0.843776 -0.41586,1.119029 -0.27623,0.274108 -0.69771,0.411775 -1.26648,0.411775 h -1.01782 v -3.032415 h 1.05183 c 0.53027,-8.1e-5 0.93862,0.132367 1.22285,0.396446"
         inkscape:connector-curvature="0"
         style="fill:#ffffff;fill-opacity:0.78431373;stroke-width:0.08155604" /><rect
         style="fill:#ffffff;fill-opacity:0.78431373;stroke-width:0.08155604"
         x="111.59305"
         y="73.804375"
         width="0.66411084"
         height="3.0325797"
         id="rect5415" /><path
         id="path5417"
         d="m 114.11182,74.409273 c -0.0636,0.05432 -0.096,0.125192 -0.096,0.213434 0,0.08841 0.039,0.158053 0.11736,0.209761 0.0779,0.05163 0.25902,0.113446 0.5399,0.184316 0.28349,0.07071 0.50361,0.176976 0.65807,0.319374 0.15692,0.14158 0.23489,0.348817 0.23489,0.620397 0,0.271584 -0.0993,0.492515 -0.30021,0.661663 -0.19957,0.169313 -0.46324,0.252497 -0.78946,0.252497 -0.47246,0 -0.89712,-0.176649 -1.27399,-0.532803 l 0.39611,-0.495044 c 0.32085,0.286588 0.61787,0.430531 0.89044,0.430531 0.12119,0 0.21718,-0.02742 0.28691,-0.08074 0.0696,-0.05285 0.10463,-0.126331 0.10463,-0.217263 0,-0.09094 -0.0364,-0.16295 -0.11148,-0.215963 -0.0734,-0.05448 -0.21963,-0.108633 -0.43755,-0.162785 -0.34678,-0.0849 -0.60034,-0.193207 -0.76051,-0.328265 -0.16099,-0.134159 -0.24018,-0.344979 -0.24018,-0.633037 0,-0.287811 0.10145,-0.510212 0.30477,-0.665496 0.20201,-0.156588 0.45606,-0.2348 0.75994,-0.2348 0.19786,0 0.39661,0.0354 0.59658,0.104801 0.19826,0.06932 0.37108,0.167923 0.51903,0.294008 l -0.33675,0.495371 c -0.2587,-0.199731 -0.52489,-0.299308 -0.80064,-0.299308 -0.11091,8e-5 -0.19818,0.02619 -0.26187,0.07935"
         inkscape:connector-curvature="0"
         style="fill:#ffffff;fill-opacity:0.78431373;stroke-width:0.08155604" /><path
         id="path5419"
         d="m 117.92595,76.237924 c 0.32704,0 0.59365,-0.131063 0.80031,-0.395056 l 0.42711,0.44709 c -0.3387,0.387715 -0.73612,0.580757 -1.19512,0.580757 -0.45826,0 -0.83554,-0.146392 -1.13233,-0.442032 -0.29735,-0.294009 -0.44578,-0.66664 -0.44578,-1.11642 0,-0.449373 0.15104,-0.824613 0.4541,-1.126455 0.30233,-0.300451 0.67194,-0.450758 1.10933,-0.450758 0.48835,0 0.89663,0.189209 1.22652,0.568203 l -0.41324,0.477507 c -0.20952,-0.266687 -0.47107,-0.39905 -0.78319,-0.39905 -0.25021,0 -0.46324,0.08318 -0.64136,0.250049 -0.17738,0.165314 -0.2666,0.390083 -0.2666,0.671693 0,0.281781 0.0846,0.507689 0.25151,0.678222 0.16769,0.171676 0.37109,0.25625 0.60874,0.25625"
         inkscape:connector-curvature="0"
         style="fill:#ffffff;fill-opacity:0.78431373;stroke-width:0.08155604" /><path
         id="path5421"
         d="m 122.31195,75.303537 c 0,-0.270279 -0.0842,-0.501246 -0.25535,-0.69225 -0.17021,-0.190514 -0.37981,-0.286588 -0.62839,-0.286588 -0.24785,0 -0.45704,0.09607 -0.62757,0.286588 -0.17111,0.191004 -0.25535,0.421971 -0.25535,0.69225 0,0.270441 0.0842,0.500183 0.25535,0.689557 0.17062,0.189535 0.37972,0.284304 0.62757,0.284304 0.24858,0 0.45818,-0.09477 0.62839,-0.284304 0.17111,-0.189374 0.25535,-0.419036 0.25535,-0.689557 m 0.2264,1.115196 c -0.30061,0.299312 -0.67202,0.448394 -1.11136,0.448394 -0.44106,0 -0.81116,-0.149082 -1.11185,-0.448394 -0.30135,-0.299308 -0.4524,-0.67202 -0.4524,-1.117564 0,-0.444395 0.15105,-0.817433 0.4524,-1.11642 0.30069,-0.299307 0.67079,-0.449699 1.11185,-0.449699 0.43934,0 0.81075,0.150392 1.11136,0.449699 0.30013,0.298987 0.4506,0.672025 0.4506,1.11642 0,0.445544 -0.15055,0.818256 -0.4506,1.117564"
         inkscape:connector-curvature="0"
         style="fill:#ffffff;fill-opacity:0.78431373;stroke-width:0.08155604" /><polygon
         style="fill:#ffffff;fill-opacity:0.78431373"
         points="746.932,1078.802 756.23,1055.126 765.05,1055.126 750.391,1092.308 743.482,1092.308 728.811,1055.126 737.647,1055.126 "
         id="polygon5425"
         transform="matrix(0.08155604,0,0,0.08155604,64.091622,-12.247449)" /><polygon
         style="fill:#ffffff;fill-opacity:0.78431373"
         points="801.51,1092.308 774.601,1092.308 774.601,1055.126 800.928,1055.126 800.928,1062.529 782.752,1062.529 782.752,1070.177 799.109,1070.177 799.109,1077.257 782.752,1077.257 782.752,1084.964 801.51,1084.964 "
         id="polygon5427"
         transform="matrix(0.08155604,0,0,0.08155604,64.091622,-12.247449)" /><path
         id="path5429"
         d="m 132.09077,75.17117 c 0.0827,-0.0747 0.12454,-0.194839 0.12454,-0.357624 0,-0.16425 -0.0436,-0.275413 -0.12789,-0.335927 -0.0864,-0.06198 -0.2352,-0.09241 -0.44709,-0.09241 h -0.49887 v 0.898259 h 0.48501 c 0.22721,0 0.38217,-0.03678 0.4643,-0.112302 m 0.80112,-0.360153 c 0,0.486319 -0.18856,0.799661 -0.56583,0.940749 l 0.75276,1.085104 h -0.81744 l -0.6606,-0.967333 h -0.4594 v 0.967333 h -0.66436 v -3.032415 h 1.1289 c 0.46226,0 0.79215,0.07936 0.9905,0.238634 0.19655,0.159112 0.29547,0.415608 0.29547,0.767928"
         inkscape:connector-curvature="0"
         style="fill:#ffffff;fill-opacity:0.78431373;stroke-width:0.08155604" /><rect
         style="fill:#ffffff;fill-opacity:0.78431373;stroke-width:0.08155604"
         x="135.55788"
         y="73.444298"
         width="0.35330078"
         height="4.0557008"
         id="rect5433" /><path
         id="path5435"
         d="m 140.23667,75.17117 c 0.082,-0.0747 0.12405,-0.194839 0.12405,-0.357624 0,-0.16425 -0.0428,-0.275413 -0.1274,-0.335927 -0.0855,-0.06198 -0.2348,-0.09241 -0.44725,-0.09241 h -0.49839 v 0.898259 h 0.48469 c 0.22746,0 0.38258,-0.03678 0.4643,-0.112302 m 0.80112,-0.360153 c 0,0.486319 -0.18831,0.799661 -0.56592,0.940749 l 0.75268,1.085104 h -0.81686 l -0.66044,-0.967333 h -0.45957 v 0.967333 h -0.66435 v -3.032415 h 1.1289 c 0.46176,0 0.79231,0.07936 0.99049,0.238634 0.19664,0.159112 0.29507,0.415608 0.29507,0.767928"
         inkscape:connector-curvature="0"
         style="fill:#ffffff;fill-opacity:0.78431373;stroke-width:0.08155604" /><polygon
         style="fill:#ffffff;fill-opacity:0.78431373"
         points="983.964,1092.308 957.06,1092.308 957.06,1055.126 983.388,1055.126 983.388,1062.529 965.212,1062.529 965.212,1070.177 981.558,1070.177 981.558,1077.257 965.212,1077.257 965.212,1084.964 983.964,1084.964 "
         id="polygon5439"
         transform="matrix(0.08155604,0,0,0.08155604,64.091622,-12.247449)" /><path
         id="path5441"
         d="m 146.72437,76.237924 c 0.32655,0 0.59316,-0.131063 0.79982,-0.395056 l 0.42768,0.44709 c -0.33878,0.387715 -0.73653,0.580757 -1.19512,0.580757 -0.45859,0 -0.83595,-0.146392 -1.1329,-0.442032 -0.29678,-0.294009 -0.44554,-0.66664 -0.44554,-1.11642 0,-0.449373 0.15088,-0.824613 0.45394,-1.126455 0.30266,-0.300451 0.67251,-0.450758 1.10957,-0.450758 0.48885,0 0.89679,0.189209 1.22636,0.568203 l -0.413,0.477507 c -0.2096,-0.266687 -0.47066,-0.39905 -0.78351,-0.39905 -0.24988,0 -0.46324,0.08318 -0.64144,0.250049 -0.17681,0.165314 -0.26619,0.390083 -0.26619,0.671693 0,0.281781 0.0847,0.507689 0.25119,0.678222 0.16808,0.171676 0.37132,0.25625 0.60914,0.25625"
         inkscape:connector-curvature="0"
         style="fill:#ffffff;fill-opacity:0.78431373;stroke-width:0.08155604" /><path
         id="path5443"
         d="m 151.10996,75.303537 c 0,-0.270279 -0.0839,-0.501246 -0.25486,-0.69225 -0.17029,-0.190514 -0.38038,-0.286588 -0.62888,-0.286588 -0.24736,0 -0.45704,0.09607 -0.62757,0.286588 -0.17111,0.191004 -0.25535,0.421971 -0.25535,0.69225 0,0.270441 0.0842,0.500183 0.25535,0.689557 0.17062,0.189535 0.38021,0.284304 0.62757,0.284304 0.2485,0 0.45859,-0.09477 0.62888,-0.284304 0.17086,-0.189374 0.25486,-0.419036 0.25486,-0.689557 m 0.22632,1.115196 c -0.30061,0.299312 -0.67153,0.448394 -1.11104,0.448394 -0.44089,0 -0.81107,-0.149082 -1.11218,-0.448394 -0.3011,-0.299308 -0.45157,-0.67202 -0.45157,-1.117564 0,-0.444395 0.15055,-0.817433 0.45157,-1.11642 0.30103,-0.299307 0.67121,-0.449699 1.11218,-0.449699 0.43951,0 0.81051,0.150392 1.11104,0.449699 0.30062,0.298987 0.4506,0.672025 0.4506,1.11642 0,0.445544 -0.14998,0.818256 -0.4506,1.117564"
         inkscape:connector-curvature="0"
         style="fill:#ffffff;fill-opacity:0.78431373;stroke-width:0.08155604" /><polygon
         style="fill:#ffffff;fill-opacity:0.78431373"
         points="1107.835,1075.552 1117.284,1055.126 1128.249,1055.126 1128.249,1092.308 1120.101,1092.308 1120.101,1068.906 1110.237,1089.224 1105.374,1089.224 1095.55,1068.906 1095.55,1092.308 1087.409,1092.308 1087.409,1055.126 1098.433,1055.126 "
         id="polygon5447"
         transform="matrix(0.08155604,0,0,0.08155604,64.091622,-12.247449)" /><polygon
         style="fill:#ffffff;fill-opacity:0.78431373"
         points="1162.868,1075.552 1172.321,1055.126 1183.28,1055.126 1183.28,1092.308 1175.138,1092.308 1175.138,1068.906 1165.272,1089.224 1160.411,1089.224 1150.589,1068.906 1150.589,1092.308 1142.44,1092.308 1142.44,1055.126 1153.476,1055.126 "
         id="polygon5449"
         transform="matrix(0.08155604,0,0,0.08155604,64.091622,-12.247449)" /><polygon
         style="fill:#ffffff;fill-opacity:0.78431373"
         points="1224.399,1092.308 1197.503,1092.308 1197.503,1055.126 1223.827,1055.126 1223.827,1062.529 1205.642,1062.529 1205.642,1070.177 1221.993,1070.177 1221.993,1077.257 1205.642,1077.257 1205.642,1084.964 1224.399,1084.964 "
         id="polygon5451"
         transform="matrix(0.08155604,0,0,0.08155604,64.091622,-12.247449)" /><polygon
         style="fill:#ffffff;fill-opacity:0.78431373"
         points="1270.548,1055.126 1270.548,1092.308 1262.401,1092.308 1245.011,1069.017 1245.011,1092.308 1236.864,1092.308 1236.864,1055.126 1244.481,1055.126 1262.401,1079.068 1262.401,1055.126 "
         id="polygon5453"
         transform="matrix(0.08155604,0,0,0.08155604,64.091622,-12.247449)" /><path
         id="path5455"
         d="m 170.65756,76.00459 c 0.16262,-0.156584 0.24532,-0.384047 0.24532,-0.682216 0,-0.296618 -0.0827,-0.526445 -0.24532,-0.687028 -0.16441,-0.160095 -0.41414,-0.240996 -0.75292,-0.240996 h -0.37019 v 1.843735 h 0.42214 c 0.30322,0 0.53664,-0.07837 0.70097,-0.233495 m 0.48762,-1.803608 c 0.28382,0.265056 0.42548,0.63271 0.42548,1.105165 0,0.470984 -0.13921,0.843776 -0.41544,1.119029 -0.27672,0.274108 -0.69829,0.411775 -1.26649,0.411775 h -1.01814 v -3.032415 h 1.05207 c 0.53085,-8.1e-5 0.93863,0.132367 1.22252,0.396446"
         inkscape:connector-curvature="0"
         style="fill:#ffffff;fill-opacity:0.78431373;stroke-width:0.08155604" /></g><g
       transform="matrix(1.2476422,0,0,1.2476422,-100.05614,22.875781)"
       id="g951"><rect
         id="rect5472"
         height="91.850998"
         width="213.642"
         clip-path="url(#SVGID_2_)"
         y="303.44101"
         x="684.91803"
         style="fill:#ffffff;fill-opacity:0.78431373"
         transform="matrix(0.08155604,0,0,0.08155604,64.091622,-12.247449)" /><rect
         id="rect5489"
         height="93.875999"
         width="170.089"
         clip-path="url(#SVGID_5_)"
         y="452.45001"
         x="682.97101"
         style="fill:#ffffff;fill-opacity:0.78431373"
         transform="matrix(0.08155604,0,0,0.08155604,64.091622,-12.247449)" /><rect
         id="rect5506"
         height="383.56299"
         width="94.122002"
         clip-path="url(#SVGID_8_)"
         y="303.44199"
         x="590.90399"
         style="fill:#ffffff;fill-opacity:0.78431373"
         transform="matrix(0.08155604,0,0,0.08155604,64.091622,-12.247449)" /></g></g></svg>