<?xml version="1.0" encoding="UTF-8" standalone="no"?>
<!-- Generator: Adobe Illustrator 19.1.0, SVG Export Plug-In . SVG Version: 6.00 Build 0)  -->

<svg
   xmlns:dc="http://purl.org/dc/elements/1.1/"
   xmlns:cc="http://creativecommons.org/ns#"
   xmlns:rdf="http://www.w3.org/1999/02/22-rdf-syntax-ns#"
   xmlns:svg="http://www.w3.org/2000/svg"
   xmlns="http://www.w3.org/2000/svg"
   xmlns:sodipodi="http://sodipodi.sourceforge.net/DTD/sodipodi-0.dtd"
   xmlns:inkscape="http://www.inkscape.org/namespaces/inkscape"
   version="1.1"
   id="Layer_1"
   x="0px"
   y="0px"
   viewBox="0 0 250 91"
   enable-background="new 0 0 181.3 182"
   xml:space="preserve"
   sodipodi:docname="futuregov.svg"
   width="250"
   height="91"
   inkscape:version="0.92.2 (5c3e80d, 2017-08-06)"><metadata
     id="metadata31"><rdf:RDF><cc:Work
         rdf:about=""><dc:format>image/svg+xml</dc:format><dc:type
           rdf:resource="http://purl.org/dc/dcmitype/StillImage" /><dc:title></dc:title></cc:Work></rdf:RDF></metadata><defs
     id="defs29"><clipPath
       clipPathUnits="userSpaceOnUse"
       id="clipPath6084"><path
         d="M 0,0 H 595.276 V 841.89 H 0 Z"
         id="path6082"
         inkscape:connector-curvature="0" /></clipPath></defs><sodipodi:namedview
     pagecolor="#ffffff"
     bordercolor="#666666"
     borderopacity="1"
     objecttolerance="10"
     gridtolerance="10"
     guidetolerance="10"
     inkscape:pageopacity="0"
     inkscape:pageshadow="2"
     inkscape:window-width="1920"
     inkscape:window-height="1046"
     id="namedview27"
     showgrid="false"
     fit-margin-top="0"
     fit-margin-left="0"
     fit-margin-right="0"
     fit-margin-bottom="0"
     inkscape:zoom="2.8284271"
     inkscape:cx="133.74191"
     inkscape:cy="1.494197"
     inkscape:window-x="-11"
     inkscape:window-y="-11"
     inkscape:window-maximized="1"
     inkscape:current-layer="Layer_1" /><rect
     style="opacity:0.00100002;fill:#ffffff;fill-opacity:1;stroke:none;stroke-width:2.5;stroke-linecap:round;stroke-linejoin:round;stroke-miterlimit:4;stroke-dasharray:none;stroke-dashoffset:0;stroke-opacity:1"
     id="rect4175"
     width="250"
     height="91"
     x="0"
     y="-4.0454324e-014" /><style
     id="style960"
     type="text/css">
	.st0{fill:#FFFFFF;}
</style><g
     id="g1582"
     transform="matrix(0.76192218,0,0,0.76192218,25,33.058573)"
     style="fill:#ffffff"><g
       id="g1580"
       style="fill:#ffffff"><path
         id="path1562"
         d="m 11.747,7.759 -0.811,5.118 h 8.732 L 18.6,19.619 H 9.867 L 7.961,31.643 H 0 L 4.855,1.016 h 17.588 l -1.069,6.743 z"
         inkscape:connector-curvature="0"
         style="fill:#ffffff" /><path
         id="path1564"
         d="m 53.438,1.016 -2.73,17.223 c -0.624,3.94 -1.405,7.84 -4.922,10.805 -2.958,2.519 -7.121,3.412 -10.695,3.412 -3.574,0 -7.454,-0.894 -9.613,-3.412 C 22.901,26.079 23.357,22.18 23.982,18.239 L 26.711,1.016 h 7.962 l -2.557,16.126 c -0.631,3.98 -1.036,8.327 4.082,8.327 5.118,0 6.092,-4.347 6.723,-8.327 L 45.478,1.016 Z"
         inkscape:connector-curvature="0"
         style="fill:#ffffff" /><path
         id="path1566"
         d="M 66.623,31.643 H 58.662 L 62.448,7.759 h -6.58 l 1.068,-6.743 h 21.122 l -1.069,6.743 h -6.58 z"
         inkscape:connector-curvature="0"
         style="fill:#ffffff" /><path
         id="path1568"
         d="m 108.323,1.016 -2.73,17.223 c -0.624,3.94 -1.405,7.84 -4.922,10.805 -2.958,2.519 -7.121,3.412 -10.695,3.412 -3.574,0 -7.454,-0.894 -9.613,-3.412 C 77.786,26.079 78.242,22.18 78.867,18.239 L 81.596,1.016 h 7.962 l -2.557,16.126 c -0.631,3.98 -1.036,8.327 4.082,8.327 5.118,0 6.092,-4.347 6.723,-8.327 l 2.557,-16.126 z"
         inkscape:connector-curvature="0"
         style="fill:#ffffff" /><path
         id="path1570"
         d="m 133.978,31.643 h -9.911 l -5.646,-11.779 h -0.081 l -1.868,11.779 h -7.961 l 4.855,-30.627 h 11.901 c 6.052,0 10.185,2.884 9.147,9.424 -0.669,4.225 -3.604,7.88 -8.073,8.652 z M 119.149,14.745 h 0.772 c 2.6,0 5.602,-0.487 6.129,-3.818 0.528,-3.33 -2.319,-3.818 -4.919,-3.818 h -0.771 z"
         inkscape:connector-curvature="0"
         style="fill:#ffffff" /><path
         id="path1572"
         d="m 147.882,7.759 -0.811,5.118 h 8.977 l -1.069,6.742 h -8.977 l -0.837,5.28 h 9.464 l -1.068,6.743 H 136.135 L 140.99,1.015 h 17.425 l -1.068,6.743 h -9.465 z"
         inkscape:connector-curvature="0"
         style="fill:#ffffff" /><path
         id="path1574"
         d="m 191.734,14.542 c -0.789,4.468 -1.72,8.286 -5.046,12.104 -3.669,4.184 -8.468,6.012 -13.586,6.012 -9.626,0 -15.292,-6.54 -13.766,-16.166 C 160.914,6.54 168.694,0 178.564,0 c 6.296,0 10.72,2.844 12.451,8.571 l -8.057,3.168 c -0.634,-2.925 -2.64,-4.874 -5.849,-4.874 -5.239,0 -8.753,4.996 -9.494,9.667 -0.753,4.753 1.324,9.586 6.563,9.586 3.453,0 6.377,-1.787 7.262,-5.321 h -6.499 l 0.992,-6.255 z"
         inkscape:connector-curvature="0"
         style="fill:#ffffff" /><path
         id="path1576"
         d="m 227.535,15.761 c -1.571,9.911 -9.787,16.897 -19.617,16.897 -9.829,0 -15.83,-6.986 -14.259,-16.897 C 195.127,6.499 204.281,0 213.096,0 c 8.813,0 15.907,6.499 14.439,15.761 z m -25.597,0.04 c -0.837,5.281 2.451,9.14 7.203,9.14 4.752,0 9.264,-3.858 10.101,-9.14 0.67,-4.224 -2.618,-8.083 -7.37,-8.083 -4.753,0 -9.264,3.859 -9.934,8.083 z"
         inkscape:connector-curvature="0"
         style="fill:#ffffff" /><path
         id="path1578"
         d="M 243.46,19.619 253.843,1.015 h 8.651 L 244.56,31.642 h -6.175 L 230.364,1.015 h 8.651 z"
         inkscape:connector-curvature="0"
         style="fill:#ffffff" /></g></g></svg>