<?xml version="1.0" encoding="UTF-8"?>
<svg enable-background="new 0 0 181.3 182" version="1.1" viewBox="0 0 250 91" xml:space="preserve" xmlns="http://www.w3.org/2000/svg" xmlns:cc="http://creativecommons.org/ns#" xmlns:dc="http://purl.org/dc/elements/1.1/" xmlns:rdf="http://www.w3.org/1999/02/22-rdf-syntax-ns#"><metadata><rdf:RDF><cc:Work rdf:about=""><dc:format>image/svg+xml</dc:format><dc:type rdf:resource="http://purl.org/dc/dcmitype/StillImage"/><dc:title/></cc:Work></rdf:RDF></metadata><style type="text/css">
	.st0{fill:#FFFFFF;}
</style><g transform="matrix(.76192 0 0 .76192 25 33.059)" fill="#fff"><g fill="#fff"><path d="m11.747 7.759-0.811 5.118h8.732l-1.068 6.742h-8.733l-1.906 12.024h-7.961l4.855-30.627h17.588l-1.069 6.743z"/><path d="m53.438 1.016-2.73 17.223c-0.624 3.94-1.405 7.84-4.922 10.805-2.958 2.519-7.121 3.412-10.695 3.412s-7.454-0.894-9.613-3.412c-2.577-2.965-2.121-6.864-1.496-10.805l2.729-17.223h7.962l-2.557 16.126c-0.631 3.98-1.036 8.327 4.082 8.327s6.092-4.347 6.723-8.327l2.557-16.126z"/><path d="m66.623 31.643h-7.961l3.786-23.884h-6.58l1.068-6.743h21.122l-1.069 6.743h-6.58z"/><path d="m108.32 1.016-2.73 17.223c-0.624 3.94-1.405 7.84-4.922 10.805-2.958 2.519-7.121 3.412-10.695 3.412s-7.454-0.894-9.613-3.412c-2.577-2.965-2.121-6.864-1.496-10.805l2.729-17.223h7.962l-2.557 16.126c-0.631 3.98-1.036 8.327 4.082 8.327s6.092-4.347 6.723-8.327l2.557-16.126z"/><path d="m133.98 31.643h-9.911l-5.646-11.779h-0.081l-1.868 11.779h-7.961l4.855-30.627h11.901c6.052 0 10.185 2.884 9.147 9.424-0.669 4.225-3.604 7.88-8.073 8.652zm-14.829-16.898h0.772c2.6 0 5.602-0.487 6.129-3.818 0.528-3.33-2.319-3.818-4.919-3.818h-0.771z"/><path d="m147.88 7.759-0.811 5.118h8.977l-1.069 6.742h-8.977l-0.837 5.28h9.464l-1.068 6.743h-17.426l4.855-30.627h17.425l-1.068 6.743h-9.465z"/><path d="m191.73 14.542c-0.789 4.468-1.72 8.286-5.046 12.104-3.669 4.184-8.468 6.012-13.586 6.012-9.626 0-15.292-6.54-13.766-16.166 1.578-9.952 9.358-16.492 19.228-16.492 6.296 0 10.72 2.844 12.451 8.571l-8.057 3.168c-0.634-2.925-2.64-4.874-5.849-4.874-5.239 0-8.753 4.996-9.494 9.667-0.753 4.753 1.324 9.586 6.563 9.586 3.453 0 6.377-1.787 7.262-5.321h-6.499l0.992-6.255z"/><path d="m227.54 15.761c-1.571 9.911-9.787 16.897-19.617 16.897-9.829 0-15.83-6.986-14.259-16.897 1.468-9.262 10.622-15.761 19.437-15.761 8.813 0 15.907 6.499 14.439 15.761zm-25.597 0.04c-0.837 5.281 2.451 9.14 7.203 9.14s9.264-3.858 10.101-9.14c0.67-4.224-2.618-8.083-7.37-8.083-4.753 0-9.264 3.859-9.934 8.083z"/><path d="m243.46 19.619 10.383-18.604h8.651l-17.934 30.627h-6.175l-8.021-30.627h8.651z"/></g></g></svg>
