<?xml version="1.0" encoding="UTF-8"?>
<svg version="1.1" viewBox="0 0 250 91" xmlns="http://www.w3.org/2000/svg" xmlns:cc="http://creativecommons.org/ns#" xmlns:dc="http://purl.org/dc/elements/1.1/">
<g transform="matrix(.71096 0 0 .71096 15 13.943)">
<g fill="#fff">
<path d="m300.44 0.94h9l-20.7 41.06h-8.93z"/>
<path d="m49.61 10.3v31.7h-7.15v-4.53h-0.11a10.79 10.79 0 0 1-3.79 3.89 11.34 11.34 0 0 1-6.17 1.64 12.59 12.59 0 0 1-5-1 11 11 0 0 1-3.9-2.77 12.63 12.63 0 0 1-2.56-4.26 15.64 15.64 0 0 1-0.93-5.5v-19.17h7.75v18.19a6.73 6.73 0 0 0 0.55 2.73 7.13 7.13 0 0 0 1.5 2.22 6.51 6.51 0 0 0 2.25 1.56 7.12 7.12 0 0 0 9.27-3.73 6.73 6.73 0 0 0 0.55-2.73v-18.24z"/>
<path d="m70.68 42h-3.76a9.42 9.42 0 0 1-3.74-0.74 9.63 9.63 0 0 1-5.12-5 8.77 8.77 0 0 1-0.78-3.67v-15.49h-2.87v-6.8h2.87v-7.17h7.72v7.17h4.7v6.8h-4.7v15.55a1.86 1.86 0 0 0 1.88 1.91h3.76z"/>
<path d="m104.74 10.3v31.7h-7.14v-4.53h-0.11a10.79 10.79 0 0 1-3.79 3.89 11.32 11.32 0 0 1-6.17 1.64 12.62 12.62 0 0 1-5-1 11.16 11.16 0 0 1-3.91-2.77 12.76 12.76 0 0 1-2.62-4.3 15.64 15.64 0 0 1-0.89-5.46v-19.17h7.75v18.19a6.73 6.73 0 0 0 0.55 2.73 7.31 7.31 0 0 0 1.5 2.22 6.51 6.51 0 0 0 2.28 1.56 7.1 7.1 0 0 0 9.27-3.73 6.73 6.73 0 0 0 0.54-2.78v-18.19z"/>
<path d="m168.18 19.48a16.57 16.57 0 0 0-3.7-5.3 18 18 0 0 0-5.48-3.53 17.14 17.14 0 0 0-6.67-1.32 18.54 18.54 0 0 0-6.79 1.26 17.34 17.34 0 0 0-5.54 3.54 16.22 16.22 0 0 0-3.76 5.3 16.8 16.8 0 0 0 0 13.37 16.44 16.44 0 0 0 3.76 5.3 18 18 0 0 0 12.35 4.82 18.14 18.14 0 0 0 8.61-2.06 17.17 17.17 0 0 0 6.25-5.5l-6-3.84a8.72 8.72 0 0 1-3.74 3.27 11.87 11.87 0 0 1-5.19 1.21 9 9 0 0 1-5.36-1.71 9.2 9.2 0 0 1-3.37-4.59h25.52a15.25 15.25 0 0 0 0.34-1.77 12.94 12.94 0 0 0 0.11-1.77 16 16 0 0 0-1.34-6.68zm-24.62 3.52a9.13 9.13 0 0 1 3.37-4.6 9.42 9.42 0 0 1 10.8 0 9.13 9.13 0 0 1 3.38 4.6z"/>
<path d="m245.72 19.45a16.9 16.9 0 0 0-9.3-8.84 19.28 19.28 0 0 0-13.71 0 16.62 16.62 0 0 0-9.27 22.2 17 17 0 0 0 3.74 5.31 16.69 16.69 0 0 0 5.53 3.53 19.28 19.28 0 0 0 13.71 0 16.66 16.66 0 0 0 5.58-3.53 17.33 17.33 0 0 0 3.74-5.31 16.75 16.75 0 0 0 0-13.36zm-6.72 6.68a9 9 0 0 1-0.74 3.65 9.44 9.44 0 0 1-8.72 5.72 8.87 8.87 0 0 1-3.63-0.74 9.91 9.91 0 0 1-3-2 9.42 9.42 0 0 1-2-3 9 9 0 0 1-0.74-3.65 8.89 8.89 0 0 1 0.74-3.62 9.63 9.63 0 0 1 5-5 8.87 8.87 0 0 1 3.63-0.74 9.28 9.28 0 0 1 3.71 0.74 9.44 9.44 0 0 1 5 5 8.9 8.9 0 0 1 0.75 3.62z"/>
<polygon points="264.02 27.23 272.2 10.3 280.68 10.3 263.88 44.02 247.16 10.33 255.58 10.33 263.77 27.23"/>
<path d="m10.52 9.37a1.89 1.89 0 0 1 1.89-1.86 2.31 2.31 0 0 1 1.7 0.59l3.33-6.61a9.57 9.57 0 0 0-1.52-0.8 9 9 0 0 0-3.51-0.69 9.5 9.5 0 0 0-3.69 0.74 9.74 9.74 0 0 0-5.17 5 8.55 8.55 0 0 0-0.78 3.62v0.93h-2.77v6.8h2.77v24.91h7.75v-24.9h4.71v-6.8h-4.71z"/>
<path d="m199.71 10.3v4.06h-0.11a16.42 16.42 0 0 0-1.86-1.87 15.09 15.09 0 0 0-2.29-1.59 12.47 12.47 0 0 0-2.82-1.12 13.39 13.39 0 0 0-3.39-0.41 16.14 16.14 0 0 0-6.24 1.21 15.68 15.68 0 0 0-5.13 3.36 16.19 16.19 0 0 0-3.45 5.1 15.75 15.75 0 0 0-1.28 6.38 16 16 0 0 0 1.28 6.4 15.75 15.75 0 0 0 8.58 8.52 16 16 0 0 0 6.25 1.24 11.5 11.5 0 0 0 3.14-0.44 13.63 13.63 0 0 0 2.66-1.14 12.72 12.72 0 0 0 2.28-1.55 19.93 19.93 0 0 0 1.79-1.77l0.11 0.12a8.37 8.37 0 0 1-1.16 3.36 9.8 9.8 0 0 1-2.36 2.65 11.43 11.43 0 0 1-3.09 1.77 9.73 9.73 0 0 1-3.42 0.63 14.85 14.85 0 0 1-5.11-0.88 21.17 21.17 0 0 1-4.57-2.33l-3.37 6.72a27.27 27.27 0 0 0 5.95 2.56 24.26 24.26 0 0 0 7.14 1 17.09 17.09 0 0 0 6.84-1.37 18.37 18.37 0 0 0 5.59-3.69 17 17 0 0 0 3.8-5.47 16.57 16.57 0 0 0 1.38-6.72v-24.72zm-1.24 18.81a9 9 0 0 1-1.91 2.83 9.52 9.52 0 0 1-2.86 1.92 8.67 8.67 0 0 1-3.51 0.7 8.58 8.58 0 0 1-3.47-0.7 9.36 9.36 0 0 1-2.85-1.92 8.79 8.79 0 0 1 0-12.49 9.36 9.36 0 0 1 2.85-1.92 8.42 8.42 0 0 1 3.47-0.71 8.68 8.68 0 0 1 3.51 0.71 9.52 9.52 0 0 1 2.86 1.92 8.78 8.78 0 0 1 1.91 9.66z"/>
<path d="m127.52 16.88a8 8 0 0 1 4.09 1l3.37-6.7a17.78 17.78 0 0 0-3.28-1.3 15.52 15.52 0 0 0-4.18-0.54 9.63 9.63 0 0 0-3 0.44 9 9 0 0 0-2.39 1.22 10.52 10.52 0 0 0-1.94 1.7 13.09 13.09 0 0 0-1.48 2v-4.43h-7.19v31.73h7.75v-17a7.89 7.89 0 0 1 0.64-3.18 8.05 8.05 0 0 1 1.79-2.61 8.4 8.4 0 0 1 2.63-1.77 8.11 8.11 0 0 1 3.19-0.56z"/>
<path d="m24.25 81.44h-6.61v-19.1h6.42c4 0 5.93 2.13 5.93 4.8a4.4 4.4 0 0 1-3.42 4.43 4.82 4.82 0 0 1 3.86 4.76c0 2.87-2.16 5.11-6.18 5.11zm-0.33-17.44h-4.37v6.83h4.45c2.6 0 4.05-1.31 4.05-3.44s-1.37-3.39-4.13-3.39zm0.08 8.36h-4.45v7.47h4.56c2.76 0 4.4-1.4 4.4-3.69s-1.75-3.78-4.51-3.78z"/>
<path d="m40.4 81.66c-4.24 0-7.33-3-7.33-7.68s3-7.68 7.33-7.68a6.7 6.7 0 0 1 7.05 6.91 12.05 12.05 0 0 1-0.06 1.51h-12.39a5.21 5.21 0 0 0 5.4 5.28 4.62 4.62 0 0 0 4.81-3.33h2c-0.66 2.85-3.07 4.99-6.81 4.99zm-5.4-8.5h10.51a4.88 4.88 0 0 0-5.19-5.22 5.14 5.14 0 0 0-5.32 5.22z"/>
<path d="m57.31 66.3c3.75 0 6.18 2 6.86 5.08h-2.05c-0.49-2.13-2.29-3.44-4.81-3.44-2.92 0-5.3 2-5.3 6s2.38 6.06 5.3 6.06c2.52 0 4.29-1.28 4.81-3.47h2.05c-0.68 3-3.11 5.09-6.86 5.09-4.2 0-7.24-3-7.24-7.68s3.04-7.64 7.24-7.64z"/>
<path d="m74.23 81.66c-4.21 0-7.41-3-7.41-7.68s3.28-7.68 7.46-7.68 7.46 2.92 7.46 7.68a7.27 7.27 0 0 1-7.51 7.68zm0-1.67c2.81 0 5.55-1.91 5.55-6s-2.68-6-5.52-6-5.5 1.91-5.5 6 2.63 6.01 5.47 6.01z"/>
<path d="m107.05 72.91c0-3.31-1.72-5-4.37-5s-4.62 1.8-4.62 5.44v8.09h-1.89v-8.53c0-3.31-1.75-5-4.4-5s-4.62 1.8-4.62 5.44v8.09h-1.91v-14.92h1.91v2.57a5.34 5.34 0 0 1 4.95-2.85 5.51 5.51 0 0 1 5.52 3.67 5.44 5.44 0 0 1 5.38-3.67c3.3 0 5.92 2.08 5.92 6.45v8.75h-1.88z"/>
<path d="m112.73 62.28a1.4 1.4 0 0 1 2.79 0 1.4 1.4 0 1 1-2.79 0zm0.44 4.24h1.91v14.92h-1.91z"/>
<path d="m130.6 72.91c0-3.31-1.8-5-4.53-5s-4.73 1.75-4.73 5.38v8.15h-1.91v-14.92h1.91v2.54a5.46 5.46 0 0 1 5.08-2.82c3.39 0 6.07 2.08 6.07 6.45v8.75h-1.89z"/>
<path d="m143 66.3a6.28 6.28 0 0 1 5.91 3.47v-3.25h1.91v15.3a6.61 6.61 0 0 1-7 6.94c-3.85 0-6.53-2-7.13-5.08h1.88c0.63 2 2.52 3.42 5.25 3.42s5.06-1.89 5.06-5.28v-3.69a6.32 6.32 0 0 1-5.88 3.53c-4.1 0-7.13-3-7.13-7.71s3.01-7.65 7.13-7.65zm0.36 1.67c-3.15 0-5.55 2.18-5.55 6s2.4 6 5.55 6 5.55-2.3 5.55-6-2.51-5.97-5.57-5.97z"/>
<path d="m231.17 67.33a5 5 0 0 0-4.17 2.23 5 5 0 0 0-7.47-1v-0.9h-5v13.77h5v-7.91a1.67 1.67 0 0 1 3.33 0v7.91h5v-7.91a1.67 1.67 0 0 1 3.33 0v7.91h5v-9.13a5 5 0 0 0-5.02-4.97z"/>
<path d="m246 67.38a6.48 6.48 0 0 0-3.78 1.22v-0.89h-5v19.44h5v-6.6a6.55 6.55 0 0 0 3.78 1.21 7.2 7.2 0 0 0 0-14.38zm-1 10a2.81 2.81 0 1 1 2.83-2.81 2.82 2.82 0 0 1-2.83 2.81z"/>
<path d="m264.18 68.6a6.48 6.48 0 0 0-3.78-1.22 7.2 7.2 0 0 0 0 14.38 6.55 6.55 0 0 0 3.78-1.21v0.88h5v-13.72h-5zm-2.79 8.78a2.81 2.81 0 1 1 2.79-2.81 2.83 2.83 0 0 1-2.79 2.81z"/>
<path d="m270.05 74.57a7.2 7.2 0 0 0 10.58 6.35v-4.37a4.88 4.88 0 0 1-2.83 0.83 2.81 2.81 0 1 1 0-5.62 4.88 4.88 0 0 1 2.83 0.83v-4.37a7.2 7.2 0 0 0-10.58 6.35z"/>
<path d="m211 62a2.81 2.81 0 1 0 2.83 2.81 2.82 2.82 0 0 0-2.83-2.81z"/>
<path d="m211 68.63a3.72 3.72 0 0 1-2.33-0.81l-0.13-0.1v13.71h5v-13.72l-0.14 0.11a3.79 3.79 0 0 1-2.4 0.81z"/>
<path d="m288.56 63.73-5 2v2h-1.86v4.07h1.86v4.72c0 3.24 1.65 5.24 5 5.24a8.5 8.5 0 0 0 3.21-0.6v-4.3a2.73 2.73 0 0 1-1.64 0.48 1.57 1.57 0 0 1-1.58-1.55v-4h3.22v-4.08h-3.22z"/>
<path d="m183.76 62.25h-23v5h5.1v14.18h5v-14.22h5.1v14.22h5v-5.91h2.9a6.64 6.64 0 0 0 0-13.27zm-0.46 8.67h-2.44v-4.07h2.44a2.035 2.035 0 0 1 0 4.07z"/>
<polygon points="194.44 62.25 188.51 62.25 201.07 81.43 207 81.43"/>
<polygon points="188.51 81.43 194.44 81.43 207 62.25 201.07 62.25"/>
</g>
</g>
</svg>
