<?xml version="1.0" encoding="UTF-8"?>
<svg version="1.1" viewBox="0 0 250 91" xmlns="http://www.w3.org/2000/svg" xmlns:cc="http://creativecommons.org/ns#" xmlns:dc="http://purl.org/dc/elements/1.1/" xmlns:rdf="http://www.w3.org/1999/02/22-rdf-syntax-ns#" xmlns:xlink="http://www.w3.org/1999/xlink">
<defs>
<polygon id="e" points="240.4 0.104 0.06 0.104 0.06 127.3 480.74 127.3 480.74 0.104"/>
<polygon id="f" points="0.453 61.94 312.52 61.94 312.52 31.38 312.52 0.82 0.453 0.82"/>
</defs>
<metadata>
<rdf:RDF>
<cc:Work rdf:about="">
<dc:format>image/svg+xml</dc:format>
<dc:type rdf:resource="http://purl.org/dc/dcmitype/StillImage"/>
<dc:title/>
</cc:Work>
</rdf:RDF>
</metadata>
<g transform="translate(0,-961.4)" fill="#fff">
<g transform="matrix(.41363 0 0 .41363 25 977.17)" fill-rule="evenodd">
<g fill="#fff">
<path d="m130.33 83.912-1.45 5.142c-1.47-1.125-3.56-1.687-6.24-1.688-4.15 0-7.65 2.075-10.5 6.223-2.83 4.131-4.24 8.591-4.24 13.391 0 7.26 3.01 10.89 9.04 10.89 3.11 0 6.13-1.27 9.07-3.82l-0.42 5.59c-2.17 1.99-5.51 2.98-10.05 2.98-4.22 0-7.48-1.3-9.78-3.9s-3.46-6.19-3.46-10.76c0-7.07 1.92-13.044 5.75-17.931 3.85-4.904 8.82-7.356 14.9-7.356 3.06 0 5.52 0.414 7.38 1.239"/>
<path d="m138.09 111.26c0 4.76 1.99 7.14 5.98 7.14 2.97 0 5.33-1.44 7.07-4.32 1.76-2.89 2.63-6.22 2.63-10 0-4.532-1.99-6.8-5.98-6.8-2.02 0-3.81 0.721-5.35 2.162-1.53 1.438-2.64 3.288-3.33 5.538-0.68 2.25-1.02 4.34-1.02 6.28zm-5.28 0.31c0-5.04 1.48-9.37 4.43-12.971 2.96-3.604 6.71-5.405 11.26-5.406 3.43 0 6.05 0.932 7.86 2.795 1.81 1.846 2.71 4.472 2.71 7.882 0 2.71-0.54 5.52-1.63 8.44-1.07 2.92-2.84 5.34-5.3 7.28-2.44 1.93-5.38 2.9-8.81 2.9-3.39 0-5.99-0.95-7.8-2.85-1.81-1.92-2.72-4.61-2.72-8.07z"/>
<path d="m171.23 93.721-3.3 18.009c-0.14 0.77-0.21 1.49-0.21 2.13 0 2.94 1.53 4.41 4.59 4.41 1.88 0 3.68-0.71 5.41-2.11 1.74-1.41 2.78-3.08 3.13-5.04l3.22-17.399h5.27l-5.16 28.239h-5.28l0.74-3.98c-1.97 3-5.38 4.51-10.23 4.51-2.2 0-3.91-0.65-5.14-1.95s-1.85-3.15-1.85-5.54c0-0.84 0.09-1.76 0.27-2.74l3.27-18.539h5.27"/>
<path d="m209.12 121.96 2.95-16.43c0.27-1.45 0.4-2.67 0.4-3.64 0-2.983-1.56-4.477-4.67-4.478-1.2 0-2.48 0.352-3.85 1.055-1.35 0.704-2.43 1.533-3.24 2.503l-3.67 20.99h-5.06l3.8-21.41c0.08-0.49 0.13-1.072 0.13-1.741 0-1.793-0.19-3.348-0.55-4.666l4.85-0.95c0.47 2.567 0.7 3.964 0.68 4.193 2.15-2.795 5.24-4.193 9.28-4.193 5.1 0 7.65 2.603 7.65 7.807 0 1.04-0.12 2.2-0.34 3.48l-3.04 17.48h-5.32"/>
<path d="m243.9 94.617-0.93 4.298c-1.26-1.002-2.96-1.503-5.09-1.503-3.23 0-5.85 1.284-7.85 3.848-1.99 2.55-2.98 5.69-2.98 9.42 0 2.28 0.64 4.11 1.92 5.48 1.3 1.35 2.78 2.03 4.43 2.03 2.55 0 5-0.78 7.33-2.35l-0.55 5.12c-2.3 1.02-4.83 1.53-7.57 1.53-3.48 0-6.15-1-8.01-2.98-1.87-2.01-2.8-4.66-2.8-7.97 0-5.37 1.48-9.78 4.43-13.205 2.95-3.428 6.72-5.142 11.29-5.142 2.7 0 4.83 0.475 6.38 1.424"/>
<path d="m247.9 121.96 4.28-24.021h-3.75l0.93-4.139h8.62l-4.99 28.16zm8.1-39.314c0.97 0 1.79 0.343 2.48 1.029 0.68 0.668 1.03 1.495 1.03 2.478 0 0.967-0.35 1.793-1.03 2.479-0.69 0.668-1.51 1.002-2.48 1.002s-1.79-0.334-2.48-1.002c-0.68-0.686-1.03-1.512-1.03-2.479 0-0.983 0.35-1.81 1.03-2.478 0.69-0.686 1.51-1.029 2.48-1.029z"/>
<path d="m273.72 118.8-0.58 3.69c-5.64 0-8.46-2.09-8.46-6.28 0-1.26 0.43-4.09 1.31-8.46l5.07-25.605h5.22l-4.83 24.045c-1 4.99-1.5 8.12-1.5 9.39 0 2.14 1.25 3.22 3.77 3.22"/>
<path d="m143.24 58.027c-5.58 3.907-12.42 5.859-20.51 5.86-6.23 0-11.3-1.99-15.2-5.971-3.89-4.006-5.83-9.075-5.83-15.208 0-10.756 2.96-19.274 8.87-25.556 5.93-6.305 14.01-9.458 24.22-9.458 5.54 0 9.65 1.237 12.35 3.71l-2.89 8.048c-3.64-2.2-7.26-3.3-10.87-3.301-6.53 0-11.77 2.4-15.73 7.196-3.95 4.773-5.93 10.756-5.93 17.952 0 4.451 1.22 7.926 3.67 10.422 2.45 2.474 5.8 3.71 10.05 3.71 3.54 0 6.63-0.977 9.27-2.931l1.97-10.756h-7.53l1.48-8.086h17.1l-4.49 24.369"/>
<path d="m175.88 30.06c-4.15 0-7.46 1.992-9.94 5.972-2.47 3.957-3.7 8.519-3.7 13.686 0 4.279 2.1 6.417 6.3 6.417 2.67 0 5-1.643 6.98-4.933 2-3.288 3.78-10.087 5.34-20.4-1.76-0.494-3.42-0.741-4.98-0.742zm10.72 18.657c-0.17 0.916-0.26 1.929-0.26 3.041 0 5.441 0.42 9.175 1.27 11.202h-5.79c-1.73 0-3.02-1.323-3.86-3.969-3.16 3.142-7.11 4.71-11.83 4.71-4.3 0-7.64-1.211-10.01-3.634-2.35-2.423-3.53-5.798-3.53-10.126 0-7.541 2.28-13.995 6.83-19.361 4.57-5.39 10.33-8.085 17.28-8.086 6.7 0 11.54 0.618 14.5 1.854z"/>
<path d="m226.18 30.691h-10.94l-4.01 17.618c-0.32 1.409-0.48 2.585-0.48 3.524 0 2.72 1.53 4.08 4.6 4.08 1.36 0 3.59-0.643 6.68-1.929v8.345c-2.67 0.915-6.31 1.372-10.91 1.372-3.02 0-5.44-0.938-7.27-2.818-1.83-1.879-2.74-4.327-2.74-7.344 0-0.989 0.11-1.965 0.33-2.93l4.49-19.918h-4.6l1.59-7.456h4.6l1.56-8.123 10.61-3.857-2.78 11.98h10.87l-1.6 7.456"/>
<path d="m242.76 38.702c1.61 0.471 3.35 0.705 5.23 0.705 3.36 0 6.21-0.506 8.53-1.521 2.32-1.038 3.49-2.522 3.49-4.451 0-2.151-2.35-3.226-7.05-3.226-1.85 0-3.75 0.816-5.67 2.448-1.93 1.607-3.44 3.623-4.53 6.045zm-1.78 7.01c-0.05 0.644-0.07 1.2-0.07 1.67 0 2.77 0.81 4.896 2.44 6.379 1.66 1.484 3.95 2.226 6.87 2.226 1.55 0 3.34-0.42 5.37-1.261 2.03-0.865 3.63-1.829 4.79-2.893l-1.08 9.755c-3.14 1.409-6.97 2.113-11.5 2.113-4.89 0-8.86-1.544-11.9-4.636-3.04-3.09-4.56-7.331-4.56-12.722 0-6.825 2.18-12.499 6.56-17.025 4.4-4.549 10.15-6.823 17.25-6.824 4.18 0 7.56 0.89 10.16 2.67 2.6 1.756 3.9 4.278 3.9 7.567 0 4.476-1.95 7.987-5.83 10.533-3.85 2.548-8.62 3.821-14.28 3.821-2.77 0-5.48-0.457-8.12-1.373z"/>
<path d="m299.51 34.103c-2.97-2.596-5.69-3.894-8.16-3.894-1.53 0-2.87 0.359-4.01 1.075-1.11 0.693-1.66 1.632-1.66 2.819 0 1.459 1.33 2.869 4 4.229 2.7 1.36 4.76 2.447 6.2 3.263 1.43 0.792 2.6 1.88 3.52 3.265 0.91 1.36 1.37 2.93 1.37 4.71 0 4.377-1.64 7.826-4.93 10.348-3.27 2.523-7.45 3.783-12.54 3.783-4.35 0-8.6-1.223-12.76-3.671l4.9-8.42c3.09 2.919 6.12 4.377 9.08 4.377 1.88 0 3.43-0.469 4.64-1.41 1.24-0.938 1.86-2.212 1.86-3.82 0-1.335-1.17-2.608-3.49-3.82-2.33-1.212-4.38-2.312-6.16-3.302-1.78-1.013-3.14-2.236-4.08-3.671-0.91-1.459-1.37-3.066-1.37-4.822 0-3.858 1.53-6.923 4.6-9.199 3.09-2.3 6.87-3.449 11.35-3.449 3.07 0 7.05 1.038 11.94 3.115l-4.3 8.494"/>
<path d="m345.09 38.665-4.56 24.295h-9.53l4.67-24.666c0.15-0.79 0.23-1.593 0.23-2.41 0-3.71-1.86-5.564-5.57-5.564-3.34 0-6.34 1.409-9.01 4.228l-5.27 28.412h-9.46l10.09-56.008h9.24l-3.04 18.694c3.28-2.101 6.76-3.151 10.42-3.152 3.81 0 6.79 1.064 8.94 3.19 2.17 2.126 3.26 5.094 3.26 8.901 0 1.261-0.13 2.622-0.41 4.08"/>
<path d="m362.23 38.702c1.61 0.471 3.35 0.705 5.23 0.705 3.36 0 6.21-0.506 8.53-1.521 2.33-1.038 3.49-2.522 3.49-4.451 0-2.151-2.35-3.226-7.05-3.226-1.85 0-3.75 0.816-5.67 2.448-1.93 1.607-3.44 3.623-4.53 6.045zm-1.78 7.01c-0.05 0.644-0.07 1.2-0.07 1.67 0 2.77 0.81 4.896 2.44 6.379 1.66 1.484 3.95 2.226 6.87 2.226 1.55 0 3.35-0.42 5.37-1.261 2.03-0.865 3.63-1.829 4.79-2.893l-1.08 9.755c-3.14 1.409-6.97 2.113-11.49 2.113-4.9 0-8.87-1.544-11.91-4.636-3.04-3.09-4.56-7.331-4.56-12.722 0-6.825 2.19-12.499 6.56-17.025 4.4-4.549 10.15-6.823 17.25-6.824 4.18 0 7.56 0.89 10.16 2.67 2.6 1.756 3.9 4.278 3.9 7.567 0 4.476-1.94 7.987-5.83 10.533-3.85 2.548-8.61 3.821-14.28 3.821-2.77 0-5.47-0.457-8.12-1.373z"/>
<path d="m415.57 30.06c-4.16 0-7.47 1.992-9.94 5.972-2.48 3.957-3.71 8.519-3.71 13.686 0 4.279 2.1 6.417 6.3 6.417 2.67 0 5-1.643 6.98-4.933 2-3.288 3.78-10.087 5.34-20.4-1.76-0.494-3.42-0.741-4.97-0.742zm10.72 18.657c-0.18 0.916-0.26 1.929-0.26 3.041 0 5.441 0.42 9.175 1.26 11.202h-5.79c-1.73 0-3.02-1.323-3.86-3.969-3.16 3.142-7.1 4.71-11.83 4.71-4.3 0-7.64-1.211-10.01-3.634-2.35-2.423-3.53-5.798-3.53-10.126 0-7.541 2.28-13.995 6.83-19.361 4.57-5.39 10.34-8.085 17.28-8.086 6.7 0 11.54 0.618 14.51 1.854z"/>
<mask id="a" fill="white">
<use width="100%" height="100%" xlink:href="#e"/>
</mask>
<path d="m460.89 30.32c-4.28 0-7.69 1.57-10.23 4.71-2.53 3.141-3.79 7.135-3.79 11.981 0 6.034 2.5 9.05 7.49 9.05 5.39 0 8.89-4.303 10.5-12.908l1.78-9.495c-1.18-2.226-3.1-3.338-5.75-3.338zm9.72 32.64h-9.24l0.71-3.709c-2.05 2.967-5.45 4.45-10.2 4.45-4.65 0-8.28-1.359-10.9-4.079-2.63-2.745-3.94-6.466-3.94-11.165 0-7.591 2.12-13.809 6.34-18.656 4.23-4.871 9.86-7.306 16.88-7.307 1.34 0 2.83 0.259 4.49 0.779 1.66 0.519 2.85 1.088 3.6 1.706l3.41-18.027h8.98z" mask="url(#a)"/>
<path d="m71.263 33.584-27.74-3.348-27.74 3.348v-5.262l27.74-5.261 27.74 5.261zm14.827 25.826c-2.464-8.623-1.743-11.864-1.106-17.324 0.187-1.601 0.886-5.243 0.838-8.099-0.049-2.856 0.171-7.477-2.619-13.011-3.53-7.004-9.061-9.327-11.411-10.177-3.187-1.153-11.652-3.16-14.558-3.808-11.507-2.567-13.711-6.887-13.711-6.887s-2.203 4.32-13.711 6.887c-2.906 0.648-11.37 2.655-14.557 3.808-2.351 0.85-7.882 3.173-11.412 10.177-2.789 5.534-2.57 10.155-2.618 13.011-0.049 2.856 0.651 6.498 0.838 8.099 0.637 5.46 1.357 8.701-1.106 17.324l-0.957 3.348s8.7-1.088 11.713-1.421c3.012-0.332 9.555-1.163 14.163-1.458s12.419-0.282 14.956 0.133 2.691 0.551 2.691 0.551 0.154-0.136 2.691-0.551 10.348-0.428 14.957-0.133c4.608 0.295 11.15 1.126 14.163 1.458 3.012 0.333 11.712 1.421 11.712 1.421z" mask="url(#a)"/>
<path d="m10.522 93.368h8.609v-8.609h-8.609zm19.131 0h8.609v-8.609h-8.609zm19.131 0h8.609v-8.609h-8.609zm19.131 0h8.609v-8.609h-8.609zm0 14.352h8.609v-8.613h-8.609zm-19.131 0h8.609v-8.613h-8.609zm-19.131 0h8.609v-8.613h-8.609zm-19.131 0h8.609v-8.613h-8.609zm-10.522-8.613v-34.436h87.046v57.389l-5.261 5.24-5.261-5.24v-8.6h-8.609v8.6l-5.261 5.24-5.261-5.24v-8.6h-8.609v8.6l-5.261 5.24-5.261-5.24v-8.6h-8.609v8.6l-5.261 5.24-5.261-5.24v-8.6h-8.609v8.6l-5.261 5.24-5.261-5.24zm10.522-20.087h8.609v-8.609h-8.609zm19.131 0h8.609v-8.609h-8.609zm19.131 0h8.609v-8.609h-8.609zm19.131 0h8.609v-8.609h-8.609z" mask="url(#a)"/>
<polyline points="290.07 132.27 290.74 132.15 290.81 132.5 291.04 132.47 291.08 132.67 290.86 132.72 290.9 132.9 290.64 132.96 290.69 133.13 290.22 133.18 290.2 133.02 289.73 133.08 289.7 132.9 289.98 132.87 289.88 132.52 290.12 132.47 290.07 132.27"/>
<polyline points="318.57 128.56 318.59 128.75 318.85 128.7 318.8 128.52 318.57 128.56"/>
<polyline points="318.96 128.29 319.04 128.7 319.25 128.67 319.3 128.83 320.21 128.66 320.17 128.48 320.39 128.43 320.34 128.27 320.12 128.29 320.1 128.12 319.39 128.22 318.96 128.29"/>
<polyline points="317.41 128.6 317.45 128.78 317.68 128.72 317.76 128.92 317.93 128.87 317.94 129.04 317.72 129.1 317.77 129.33 318.5 129.15 318.4 128.97 318.19 129.02 318.13 128.82 318.38 128.77 318.34 128.6 317.92 128.69 317.87 128.47 317.41 128.6"/>
<polyline points="323.87 127.44 323.9 127.65 324.14 127.6 324.18 127.78 324.39 127.73 324.4 127.92 325.07 127.79 325.09 128.02 325.79 127.87 325.8 128.07 326.28 127.97 326.28 128.14 326.54 128.12 326.49 127.91 326.7 127.87 326.72 128.09 326.99 128.04 326.96 127.86 327.38 127.76 327.37 127.6 328.25 127.44 328.3 127.6 328.93 127.5 328.96 127.68 330.33 127.42 330.28 127.26 330.5 127.21 330.51 127.39 330.79 127.35 330.74 127.17 330.94 127.12 330.89 126.96 330.69 127.01 330.54 126.26 329.49 126.44 329.52 126.62 328.8 126.75 328.8 126.57 328.1 126.7 328.1 126.49 327.82 126.54 327.84 126.73 327.68 126.77 327.63 126.59 325.62 126.93 325.64 127.12 325.48 127.16 325.43 126.98 324.96 127.06 325.01 127.27 324.76 127.27 324.76 127.09 324.29 127.16 324.31 127.39 323.87 127.44"/>
<polyline points="329.45 130.42 329.49 130.61 329.94 130.51 329.86 130.16 329.65 130.19 329.66 130.38 329.45 130.42"/>
<polyline points="331.62 129.65 332.08 129.58 332.11 129.78 332.29 129.73 332.34 129.93 332.61 129.86 332.56 129.68 332.76 129.63 332.79 129.83 333.05 129.76 333 129.6 333.2 129.55 333.17 129.39 332.74 129.47 332.7 129.29 332.26 129.36 332.22 129.19 331.99 129.21 331.94 129.05 331.73 129.08 331.72 128.88 331.26 128.97 331.21 128.8 330.58 128.9 330.63 129.28 331.16 129.16 331.18 129.32 331.34 129.31 331.38 129.5 331.6 129.44 331.62 129.65"/>
<polyline points="331.99 126.57 332.03 126.78 332.47 126.7 332.48 126.9 333.64 126.68 333.59 126.47 334.05 126.41 333.96 126.03 333.72 126.07 333.75 126.26 333.56 126.31 333.49 125.92 332.81 126.05 332.84 126.26 332.63 126.29 332.6 126.08 332.16 126.16 332.21 126.52 331.99 126.57"/>
<polyline points="339.34 127.92 339.44 128.46 339.67 128.41 339.72 128.62 339.91 128.58 339.96 128.8 341.07 128.59 341.1 128.8 341.57 128.7 341.47 128.3 341.69 128.23 341.65 128.09 341.42 128.1 341.36 127.91 340.09 128.14 340.04 127.97 339.84 128 339.86 128.17 339.63 128.2 339.57 127.87 339.34 127.92"/>
<polyline points="335.95 125.69 336.08 126.44 336.33 126.41 336.31 126.2 336.51 126.13 336.49 125.98 336.68 125.97 336.65 125.76 336.46 125.77 336.41 125.61 335.95 125.69"/>
<polyline points="337.21 124.89 337.26 125.3 337.53 125.25 337.52 125.07 337.7 125.02 337.73 125.24 337.96 125.19 337.92 124.99 338.14 124.96 338.05 124.57 337.4 124.67 337.42 124.86 337.21 124.89"/>
<polyline points="337.16 125.84 337.21 126.23 338.12 126.08 338.07 125.69 337.79 125.72 337.82 125.9 337.61 125.94 337.55 125.76 337.16 125.84"/>
<polyline points="338.82 124.98 338.85 125.19 339.76 125.02 339.78 125.22 340.06 125.14 340.02 124.96 340.22 124.93 340.19 124.76 339.94 124.8 339.91 124.6 339.03 124.73 339.06 124.91 338.82 124.98"/>
<polyline points="341.7 124.49 341.75 124.84 342.21 124.76 342.22 124.98 343.58 124.72 343.61 124.89 343.85 124.84 343.82 124.68 344.03 124.63 344.06 124.81 344.31 124.78 344.32 124.98 344.58 124.94 344.54 124.73 344.75 124.68 344.76 124.89 345.02 124.84 344.96 124.65 345.2 124.62 345.27 124.99 345.51 124.98 345.46 124.76 345.69 124.7 345.72 124.91 345.97 124.88 345.9 124.68 347.03 124.5 346.93 124.16 347.18 124.1 347.13 123.92 346.69 123.96 346.65 123.77 345.51 123.96 345.48 123.8 345.27 123.84 345.2 123.66 343.69 123.93 343.69 124.13 343.3 124.19 343.25 124 342.83 124.1 342.78 123.92 342.55 123.95 342.55 124.14 342.34 124.16 342.29 123.96 342.09 123.98 342.09 124.18 341.9 124.21 341.93 124.4 341.7 124.49"/>
<polyline points="345.25 127.63 345.35 128.23 346.72 128 346.65 127.74 347.14 127.66 347 127.12 345.46 127.39 345.51 127.61 345.25 127.63"/>
<polyline points="350.03 127.55 350.3 127.48 350.35 127.7 351.04 127.58 350.97 127.39 351.2 127.32 351.22 127.53 351.49 127.48 351.41 127.32 351.64 127.24 351.57 127.08 353.61 126.72 353.66 127.08 354.34 126.98 354.29 126.78 354.54 126.73 354.57 126.96 354.81 126.9 354.73 126.73 354.98 126.68 355.03 126.88 355.48 126.78 355.42 126.59 356.98 126.33 357.01 126.51 358.12 126.29 358.14 126.52 359.47 126.25 359.49 126.44 361.75 126.03 361.72 125.84 362.39 125.72 362.36 125.56 361.66 125.68 361.64 125.5 361.41 125.53 361.35 125.35 361.15 125.38 361.07 125.02 360.45 125.12 360.47 125.28 360.24 125.32 360.27 125.53 359.85 125.63 359.8 125.45 359.55 125.46 359.47 125.12 359.29 125.15 359.24 124.98 359.49 124.93 359.44 124.76 359.24 124.76 359.2 124.6 359.64 124.5 359.68 124.73 359.91 124.68 359.94 124.88 360.37 124.76 360.4 124.94 360.63 124.91 360.5 124.19 360.71 124.14 360.66 123.96 360.92 123.93 360.96 124.11 361.15 124.08 361.2 124.29 361.4 124.19 361.43 124.4 361.67 124.36 361.7 124.55 362.39 124.42 362.32 124.23 362.58 124.18 362.62 124.37 362.8 124.34 362.83 124.52 363.3 124.44 363.35 124.84 363.79 124.73 363.81 124.91 364.03 124.84 364.1 125.06 364.29 125.02 364.36 125.33 364.16 125.4 364.18 125.61 365.92 125.28 365.96 125.5 366.25 125.45 366.22 125.25 366.43 125.22 366.46 125.43 367.39 125.25 367.29 125.02 368.63 124.8 368.64 125.02 368.92 124.96 368.87 124.76 370 124.58 369.88 124.03 369.23 124.14 369.18 123.96 368.94 124.01 368.87 123.62 368.45 123.7 368.42 123.54 367.72 123.66 367.75 123.82 367.54 123.85 367.49 123.69 366.87 123.8 366.82 123.64 366.61 123.67 366.61 123.85 366.4 123.88 366.36 123.7 366.15 123.75 366.15 123.93 365.52 124.05 365.47 123.88 365.3 123.9 365.24 123.72 365.01 123.74 364.91 123.38 364.52 123.46 364.47 123.3 364 123.38 364.03 123.56 363.59 123.64 363.54 123.46 363.12 123.52 363.09 123.35 362.66 123.41 362.6 123.23 362.42 123.26 362.36 123.09 361.02 123.33 361.05 123.49 360.82 123.54 360.78 123.35 360.34 123.43 360.35 123.61 360.17 123.64 360.19 123.82 359.75 123.92 359.78 124.06 359.57 124.1 359.54 123.95 359.33 123.98 359.26 123.82 359.08 123.84 359.02 123.69 358.79 123.72 358.74 123.54 358.54 123.57 358.54 123.75 358.12 123.84 358.14 124.01 356.78 124.26 356.82 124.44 355.53 124.68 355.47 124.49 355.29 124.52 355.29 124.68 355.06 124.7 355.03 124.57 353.94 124.78 353.95 124.96 353.54 125.02 353.56 125.22 353.33 125.27 353.27 125.07 353.07 125.09 353.07 125.3 352.89 125.32 352.83 125.12 352.42 125.2 352.42 125.38 351.96 125.48 351.98 125.64 351.82 125.68 351.85 125.86 351.62 125.89 351.64 126.08 351.44 126.1 351.41 125.98 351.23 126 351.17 125.86 350.73 125.92 350.64 125.71 350.22 125.79 350.16 125.63 349.31 125.76 349.24 125.59 348.85 125.66 348.79 125.48 347.45 125.72 347.4 125.56 346.59 125.69 346.56 125.51 346.25 125.56 346.26 125.74 345.84 125.81 345.82 125.64 345.14 125.76 345.11 125.56 344.49 125.66 344.44 125.5 344.19 125.54 344.18 125.74 343.32 125.9 343.33 126.03 343.15 126.05 343.17 126.29 343.4 126.25 343.41 126.44 344.13 126.33 344.13 126.56 344.83 126.39 344.85 126.6 345.5 126.46 345.53 126.68 346.44 126.51 346.44 126.7 346.95 126.57 346.93 126.8 347.39 126.7 347.42 126.91 347.89 126.82 347.84 126.64 348.51 126.52 348.54 126.68 348.74 126.67 348.79 126.86 349.49 126.72 349.52 126.9 349.94 126.82 350.03 127.55"/>
<polyline points="368.61 122.19 368.66 122.38 368.86 122.34 368.87 122.53 369.15 122.5 369.16 122.65 369.38 122.61 369.46 123.02 369.67 122.96 369.72 123.14 370.19 123.04 370.22 123.25 370.63 123.17 370.66 123.35 371.12 123.25 371.15 123.43 371.36 123.4 371.44 123.75 371.66 123.72 371.66 123.88 371.46 123.92 371.46 124.11 372.37 123.93 372.32 123.75 372.83 123.69 372.83 123.88 373.06 123.84 372.99 123.48 373.24 123.44 373.16 123.26 372.98 123.28 372.96 123.14 372.47 123.18 372.46 123.04 372.02 123.1 371.92 122.58 371.46 122.65 371.43 122.45 371.25 122.47 371.15 122.08 371.84 121.98 371.79 121.8 372.02 121.75 372.05 121.96 372.24 121.93 372.26 122.11 372.98 121.98 372.94 121.8 373.17 121.75 373.19 121.96 373.86 121.85 373.87 122.03 374.56 121.9 374.57 122.09 375.24 121.96 375.26 122.19 375.96 122.03 375.97 122.22 376.66 122.09 376.72 122.47 376.93 122.43 376.97 122.76 375.63 123 375.66 123.18 375.01 123.31 374.98 123.12 374.77 123.12 374.8 123.33 374.59 123.4 374.59 123.52 374.38 123.59 374.41 123.74 374.65 123.7 374.65 123.61 375.94 123.36 375.99 123.57 376.66 123.4 376.67 123.61 376.93 123.56 376.85 123.38 377.1 123.33 376.97 122.86 377.47 122.74 377.46 122.92 377.68 122.84 377.76 123.22 378.66 123.07 378.68 123.23 379.57 123.07 379.59 123.28 380.08 123.18 380.03 123.02 380.24 122.97 380.29 123.14 380.52 123.09 380.47 122.92 380.68 122.86 380.71 123.09 381.18 122.97 381.12 122.81 381.35 122.74 381.4 122.94 383.19 122.63 383.14 122.43 383.38 122.38 383.32 122.21 384.02 122.11 383.95 121.88 384.2 121.85 384.1 121.34 383.43 121.44 383.48 121.8 382.83 121.94 382.76 121.75 382.6 121.77 382.55 121.64 382.73 121.56 382.73 121.42 383.19 121.33 383.11 121.13 382.42 121.29 382.49 121.52 382.06 121.62 382.11 121.85 381.27 122.01 381.27 122.17 381.04 122.21 381.01 122.06 380.58 122.14 380.52 121.96 380.09 122.04 380.04 121.86 379.6 121.93 379.56 121.77 379.36 121.78 379.26 121.41 379.77 121.34 379.7 121.18 380.62 121 380.55 120.84 380.76 120.77 380.81 120.98 381.27 120.89 381.3 121.1 381.72 121.03 381.74 121.23 382.02 121.15 381.97 120.98 382.15 120.92 382.18 121.15 382.67 121.03 382.6 120.84 382.85 120.79 382.76 120.45 382.55 120.45 382.49 120.15 382.73 120.1 382.65 119.91 382.47 119.93 382.44 119.75 382.68 119.71 382.62 119.34 382.39 119.37 382.39 119.63 382.2 119.65 382.05 118.87 381.85 118.88 381.85 119.05 381.66 119.05 381.58 118.92 381.4 118.92 381.35 118.78 381.14 118.82 381.15 119.06 381.4 119.03 381.4 119.19 381.62 119.14 381.71 119.5 381.92 119.44 381.97 119.8 381.74 119.86 381.76 120.01 381.38 120.09 381.4 120.28 380.91 120.38 380.88 120.2 380.7 120.25 380.71 120.41 380.48 120.46 380.42 120.27 380.22 120.32 380.16 120.14 378.86 120.38 378.82 120.19 377.06 120.5 377.08 120.68 376.88 120.71 376.82 120.54 376.62 120.58 376.64 120.76 376.43 120.79 376.38 120.63 375.96 120.69 375.89 120.5 375.03 120.66 374.98 120.5 375.24 120.46 375.16 120.07 375.37 120.06 375.34 119.86 375.55 119.83 375.58 120.02 375.83 119.98 375.89 120.32 377.47 120.04 377.42 119.88 377.65 119.83 377.57 119.49 377.34 119.52 377.29 119.32 375.97 119.55 375.92 119.39 375.04 119.54 375 119.36 374.82 119.39 374.77 119.21 374.54 119.22 374.57 119.44 373.94 119.55 373.9 119.37 373.66 119.4 373.69 119.6 372.34 119.83 372.39 120.17 372.18 120.2 372.21 120.46 372.68 120.38 372.68 120.54 373.61 120.36 373.58 120.17 373.77 120.12 373.79 120.33 374.07 120.3 374.04 120.09 374.46 120.02 374.49 120.2 374.72 120.17 374.78 120.69 374.57 120.74 374.52 120.56 374.33 120.59 374.36 120.77 374.13 120.8 374.1 120.64 373.86 120.69 373.87 120.85 373.69 120.89 373.66 120.72 373.43 120.76 373.46 120.95 373.25 120.98 373.2 120.8 372.99 120.84 373.01 121 372.81 121.03 372.76 120.89 372.32 120.95 372.36 121.15 372.11 121.16 372.1 121.02 370.97 121.21 370.97 121.38 370.81 121.39 370.74 121.24 370.09 121.36 370.14 121.7 369.91 121.77 369.95 121.94 368.61 122.19"/>
<polyline points="383.58 119.73 383.63 120.1 383.86 120.07 383.95 120.63 384.18 120.58 384.18 120.77 384.88 120.63 384.92 120.85 385.39 120.76 385.4 121.08 385.21 121.12 385.24 121.28 385.01 121.34 385.18 122.34 385.37 122.29 385.4 122.43 385.66 122.4 385.62 122.22 385.83 122.17 385.83 121.99 386.04 121.94 386.01 121.77 386.22 121.72 386.27 122.09 386.48 122.06 386.5 122.22 387.21 122.12 387.2 121.91 387.39 121.88 387.39 121.7 387.16 121.72 387.13 121.56 386.36 121.67 386.3 121.31 385.92 121.38 385.86 121.03 385.68 121.07 385.63 120.89 386.07 120.79 386.09 121 386.98 120.82 387.05 121.21 387.26 121.18 387.26 121.33 387.52 121.28 387.49 121.13 387.7 121.07 387.73 121.26 388.66 121.1 388.56 120.74 388.79 120.69 388.81 120.89 389.04 120.85 389.04 121.02 388.86 121.03 388.87 121.24 389.12 121.21 389.13 121.42 389.61 121.31 389.64 121.51 390.29 121.39 390.32 121.6 390.78 121.52 390.78 121.7 391.71 121.52 391.71 121.7 391.95 121.65 391.92 121.46 392.15 121.44 392.18 121.6 392.85 121.49 392.8 121.31 393.03 121.26 393.06 121.46 393.29 121.42 393.26 121.26 393.45 121.2 393.48 121.36 393.73 121.34 393.7 121.16 395.28 120.87 395.24 120.72 395.4 120.66 395.45 120.84 395.73 120.79 395.68 120.54 395.42 120.56 395.4 120.27 395.19 120.32 395.06 119.58 395.5 119.52 395.54 119.68 395.7 119.66 395.76 119.84 395.98 119.81 396.02 119.98 395.8 120.02 395.84 120.2 396.28 120.14 396.33 120.5 396.54 120.46 396.59 120.69 397.26 120.54 397.34 120.92 397.8 120.84 397.82 121.05 398.7 120.87 398.68 120.66 399.12 120.56 399.14 120.79 400.08 120.61 400 120.41 400.19 120.36 400.18 119.99 399.93 120.09 399.88 119.88 399.02 120.02 399.04 120.2 398.81 120.25 398.76 120.06 398.34 120.12 398.32 119.98 398.11 119.99 398.03 119.63 397.57 119.68 397.54 119.52 397.13 119.58 397.07 119.4 397.28 119.37 397.23 119.05 397.67 118.96 397.73 119.16 398.63 118.96 398.56 118.77 398.81 118.75 398.73 118.38 398.29 118.44 398.21 118.08 398 118.13 397.96 117.96 397.51 118.02 397.47 117.84 396.54 118.02 396.58 118.17 396.38 118.2 396.35 118.05 396.15 118.07 396.15 118.26 395.94 118.3 395.91 118.12 395.06 118.28 395.01 118.08 394.56 118.15 394.59 118.38 394.38 118.41 394.35 118.22 393.89 118.3 393.87 118.1 390.54 118.69 390.57 118.88 390.32 118.93 390.4 119.44 389.96 119.54 389.93 119.37 389.74 119.39 389.67 119.05 389.44 119.08 389.43 118.88 386.71 119.37 386.68 119.19 384.66 119.54 384.62 119.34 384.88 119.31 384.85 119.13 384.18 119.26 384.22 119.42 383.95 119.47 383.97 119.66 383.58 119.73"/>
<polyline points="388.11 116.86 388.14 117.06 388.38 117.01 388.58 118.13 388.82 118.08 388.79 117.89 388.99 117.84 388.92 117.48 389.38 117.38 389.41 117.78 389.66 117.74 389.66 117.92 390.36 117.79 390.36 117.99 390.63 117.92 390.58 117.78 390.81 117.73 390.78 117.52 390.54 117.55 390.52 117.38 390.29 117.4 390.26 117.25 390.03 117.27 390.01 117.11 389.79 117.14 389.77 116.96 389.51 116.99 389.54 117.17 389.35 117.21 389.26 116.86 389.05 116.88 389.04 116.73 388.11 116.86"/>
<polyline points="390.93 117.12 390.96 117.3 391.19 117.25 391.25 117.64 391.46 117.61 391.45 117.79 391.72 117.76 391.68 117.52 391.92 117.5 391.94 117.69 392.16 117.66 392.18 117.84 392.64 117.78 392.65 117.97 394.02 117.71 393.97 117.52 394.18 117.48 394.22 117.71 394.48 117.64 394.43 117.47 394.66 117.43 394.59 117.24 394.15 117.29 394.09 117.12 393.47 117.24 393.42 117.06 393 117.12 392.96 116.94 392.75 116.96 392.72 116.8 391.61 116.98 391.54 116.82 391.33 116.85 391.37 117.03 390.93 117.12"/>
<polyline points="373.4 123.22 373.51 123.78 374.16 123.66 374.14 123.48 374.38 123.42 374.34 123.26 374.13 123.28 374.08 123.1 373.4 123.22"/>
<polyline points="218.76 144.29 218.79 144.49 219.01 144.44 218.97 144.26 219.2 144.22 219.23 144.39 219.66 144.32 219.63 144.13 219.86 144.29 220.13 144.23 220.11 144.02 219.84 144.07 219.8 143.73 219.57 143.75 219.6 143.96 218.94 144.06 218.95 144.2 218.76 144.29"/>
<polyline points="222.43 143.07 222.47 143.26 222.69 143.22 222.65 143.02 222.88 143 222.9 143.18 223.15 143.15 223.1 142.95 223.54 142.87 223.52 142.69 222.63 142.84 222.64 142.92 222.43 143.07"/>
<g transform="translate(171,101)">
<mask id="b" fill="white">
<use width="100%" height="100%" xlink:href="#f"/>
</mask>
<polyline points="44.505 44.429 44.727 44.392 44.702 44.183 45.135 44.121 45.097 43.936 44.443 44.059 44.505 44.429" mask="url(#b)"/>
<path d="m74.128 39.377 0.047 0.181-0.887 0.157-0.062-0.346 0.219-0.039-0.031-0.212 0.651-0.117 0.039 0.196 0.439-0.071 0.039 0.173zm-1.953 0.534 0.031 0.188-0.227 0.031-0.032-0.172-0.235 0.039 0.039 0.172-1.106 0.212 0.039 0.173-0.243 0.047 0.032 0.165-0.651 0.125-0.032-0.18-0.682 0.125 0.039 0.173-1.349 0.243 0.047 0.18-0.235 0.039-0.024-0.18-0.235 0.047 0.031 0.173-1.098 0.196-0.054-0.361 0.219-0.031-0.023-0.197 0.211-0.023-0.031-0.212 0.659-0.094-0.032-0.196 0.22-0.031 0.039 0.172 1.122-0.196-0.024-0.18 0.22-0.04 0.031 0.165 0.424-0.07-0.024-0.173 0.212-0.031-0.024-0.181 0.675-0.11 0.047 0.165 0.204-0.031-0.055-0.369 0.212-0.031 0.078 0.361 0.22-0.032-0.071-0.384 0.228-0.039 0.063 0.368 0.878-0.157-0.039-0.18 0.227-0.047-0.031-0.18 0.227-0.04 0.063 0.369 0.235-0.031 0.032 0.164zm-0.604-2.157 0.204-0.024 0.086 0.526-0.424 0.086-0.062-0.353 0.227-0.047zm-7.655 4.745-0.251 0.039-0.024-0.165-0.227 0.04 0.047 0.164-0.212 0.039-0.023-0.18-0.463 0.079 0.031 0.18-0.219 0.031-0.032-0.164-0.235 0.039 0.039 0.172-0.447 0.079-0.031-0.173 0.227-0.047-0.031-0.18 1.325-0.228-0.023-0.196 0.219-0.031 0.032 0.18 0.447-0.07 0.023 0.172-0.211 0.047zm-2.753 0.11-0.22 0.031 0.063 0.377-0.675 0.117 0.032 0.188-0.667 0.11 0.047 0.181-0.447 0.078-0.031-0.173-0.235 0.048 0.039 0.164-0.447 0.071-0.032-0.173-0.235 0.032-0.024-0.173 0.22-0.055-0.07-0.337 0.462-0.094-0.015-0.181 1.545-0.282-0.04-0.18 0.228-0.032 0.023 0.173 0.228-0.031-0.032-0.189 0.44-0.07 0.047 0.18-0.236 0.039zm-3.522-0.51-0.062-0.377 0.666-0.078-0.031-0.204 0.431-0.078 0.032 0.18 0.447-0.078-0.024-0.181 0.879-0.188-0.024-0.165 0.204-0.023 0.055 0.196-0.228 0.039 0.047 0.157-0.447 0.078 0.032 0.189-0.228 0.039-0.023-0.173-0.243 0.032 0.039 0.172-0.667 0.126 0.024 0.18zm2.989-1.271 0.666-0.11 0.039 0.189-0.674 0.117 0.023 0.157-0.219 0.032-0.032-0.165 0.22-0.079zm-3.899 1.428-0.031-0.173-0.219 0.039-0.016-0.18 0.439-0.094 0.055 0.376zm-0.235 2.494-0.447 0.086 0.047 0.173-0.69 0.109-0.024-0.164-0.219 0.047 0.031 0.172-0.227 0.04 0.031 0.188-0.212 0.031-0.055-0.361-0.235 0.04 0.032 0.18-0.22 0.031-0.024-0.172-0.917 0.149-0.024-0.165 0.251-0.039-0.031-0.18 0.267-0.048-0.024-0.172-0.29 0.031-0.032-0.188 0.432-0.07 0.031 0.172 0.228-0.031-0.016-0.196 0.196-0.04 0.039 0.196 0.22-0.031-0.032-0.196 1.334-0.235 0.023 0.18 0.228-0.047-0.032-0.18 0.236-0.024 0.023 0.165 0.22-0.039 0.07 0.376-0.219 0.039zm-3.976 0.886-0.039-0.18-0.22 0.031 0.039 0.181-0.455 0.094 0.039 0.164-0.651 0.126-0.078-0.353 0.894-0.149-0.039-0.188 0.674-0.118 0.055 0.345zm-2.894 0.518 0.031 0.172-0.439 0.079 0.031 0.188-0.667 0.125 0.04 0.181-0.934 0.157-0.023-0.181-0.267 0.04 0.039 0.188-0.384 0.063-0.063-0.361 0.432-0.071-0.024-0.172-0.219 0.031-0.055-0.361 0.431-0.078-0.024-0.196 0.204-0.04 0.055 0.197 0.228-0.032-0.039-0.204 1.545-0.266 0.031 0.18 0.22-0.039 0.039 0.188 0.674-0.125 0.024 0.18zm-3.247 1.153 0.039 0.164-0.439 0.079-0.032-0.181-0.243 0.04 0.039 0.188-0.212 0.039-0.031-0.18-0.219 0.031-0.032-0.18 0.204-0.024-0.031-0.196-0.44 0.079 0.027 0.167-0.216 0.064-0.021-0.172 0.101-0.028-0.016-0.11 0.125-0.016-7e-3 -0.086 0.658-0.118-0.031-0.196 0.431-0.078 0.063 0.376 0.235-0.039 0.024 0.196 0.22-0.031 0.031 0.172zm-2.88 0.673 0.065 0.172-0.69 0.13 0.021 0.172-0.647 0.108 0.022 0.194-0.216 0.065-0.043-0.216-0.884 0.216 0.064 0.151-1.358 0.237v0.151l-0.195 0.022v-0.13l-0.237 0.043v0.173l-0.453 0.065 0.022 0.194-0.194 0.043v-0.173l-0.496 0.13-0.043-0.194 0.28-0.044-0.065-0.409-0.453 0.064-0.021-0.172-0.259 0.043-0.022-0.194 0.691-0.108v-0.173l0.625-0.129-0.022-0.194 1.553-0.28v-0.173h0.216l0.043 0.151 0.151-0.043 0.022-0.173 0.194-0.021 0.021 0.172 0.475-0.086 0.043 0.173-0.28 0.064 0.021 0.151-0.625 0.13v0.194l0.625-0.108 0.043 0.172 0.281-0.086v-0.172l1.315-0.216-0.064-0.367-0.194 0.043-0.044-0.345 0.367-0.043-0.022-0.237 0.216-0.022 0.043 0.151 1.122-0.194 0.021 0.216-0.215 0.043 0.086 0.324 0.173 0.021 0.021 0.151zm268.76-43.034 0.26-0.034-0.07-0.407-0.24 0.034-0.1-0.696-0.24 0.051-0.02-0.187-0.23 0.051-0.04-0.187h-0.2l-0.1-0.34h-0.21l-0.05-0.17-0.18 0.017-0.02-0.152-0.26 0.051-0.03-0.187-0.49 0.034v-0.136l-0.22 0.051 0.01-0.187-0.49 0.085-0.02-0.204-0.22 0.034v-0.187l-0.47 0.102-0.04-0.187-0.18 0.017v-0.203l-0.31 0.051-0.02-0.17-0.39 0.079-0.05-0.198-0.25 0.034-0.02-0.204-0.25 0.068 0.01-0.17-0.93 0.136-0.02-0.187-0.71 0.153-0.02-0.187-0.64 0.136-0.04-0.22-0.44 0.084-0.05-0.203-0.9 0.186v-0.186l-0.95 0.152-0.02-0.186-0.63 0.136v-0.187l-0.47 0.068-0.02-0.204-1.12 0.238-0.07-0.204-0.88 0.17v-0.204l-0.93 0.153v-0.17l-0.94 0.17-0.03-0.204-1.09 0.187v-0.187l-0.88 0.136-0.03-0.187-0.26 0.068 0.05 0.187-0.24 0.051v-0.204l-0.49 0.102-0.02-0.204-0.69 0.153v-0.221l-2.23 0.408-0.03-0.221-0.25 0.068 0.05 0.17-0.21 0.068-0.03-0.221-0.26 0.051 0.07 0.203-0.24 0.051v-0.186l-1.13 0.203v-0.186l-0.72 0.118 0.02-0.186-0.93 0.17-0.02-0.204-2 0.373-0.02-0.203-0.46 0.101-0.03-0.203-0.24 0.051 0.03 0.203-0.24 0.051-0.01-0.22-0.9 0.152-0.02-0.186-0.9 0.169 0.05 0.187-1.07 0.187-0.03-0.204-0.24 0.051-0.03-0.221-0.28 0.051 0.07 0.187-0.27 0.051 0.05 0.204-0.22 0.034 0.05 0.204-0.24 0.034-0.08-0.357 0.29-0.017-0.04-0.255-0.91 0.17-0.05-0.221-0.28 0.051 0.09 0.374 0.63-0.102 0.08 0.187-1.78 0.322-0.02-0.169-0.86 0.135-0.02-0.186-0.71 0.135-0.05-0.356-0.89 0.136 0.04 0.203-0.24 0.051-0.05-0.373-0.22 0.034-0.04-0.204-0.25 0.051 0.12 0.56-0.46 0.068 0.08 0.221-0.28 0.088 0.01-0.258-0.46 0.068-0.03-0.204-0.31 0.034 0.08 0.234-1.1 0.157 0.07 0.221-0.25 0.034v-0.187l-0.27 0.051 0.05 0.186-0.26 0.051v-0.203l-1.76 0.305-0.04-0.186-0.24 0.05 0.06 0.187-0.26 0.051v-0.187l-0.93 0.153-0.02-0.204-2.87 0.51-0.02-0.187-1.1 0.204-0.03-0.204-0.28 0.051 0.04 0.204-0.24 0.034-0.02-0.187-0.83 0.153-0.03-0.204-0.97 0.17 0.07 0.204-0.67 0.101-0.01-0.186-0.27 0.051 0.06 0.186-0.23 0.051-0.02-0.186-0.24 0.051-0.01-0.17-0.46 0.068-0.04-0.187-0.24 0.034-0.03-0.221 2.01-0.34 0.03 0.221 0.97-0.153-0.05-0.237-0.26 0.034-0.02-0.17-0.25 0.051-0.02-0.187-2.26 0.408-0.01-0.204-1.12 0.17 0.03 0.186-0.22 0.034 0.05 0.204 0.87-0.153 0.08 0.374-0.24 0.034-0.03-0.221-0.24 0.068 0.04 0.204-2.62 0.458-0.02-0.204-1.34 0.255-0.01-0.187-0.96 0.153 0.07 0.221-0.91 0.17v-0.238l-1.16 0.204 0.02-0.221-1.62 0.34-0.03-0.221-0.66 0.119 0.05 0.203-0.9 0.17-0.02-0.187-0.25 0.051 0.05 0.187-0.26 0.051v-0.221l-1.12 0.187-0.01-0.17-1.79 0.34v-0.238l-0.23 0.051 0.03 0.221-0.22 0.034-0.02-0.204-0.29 0.034 0.05 0.187-0.22 0.034v-0.187l-0.46 0.102-0.05-0.408-0.27 0.051 0.04 0.204-0.21 0.034v-0.204l-0.27 0.034 0.05 0.204-0.25 0.034 0.06 0.187-1.13 0.221v-0.255l-0.92 0.204v-0.187l-1.77 0.339-0.03-0.237-0.29 0.085 0.07 0.152-0.2 0.068-0.02-0.203-0.27 0.068 0.05 0.169-0.24 0.051-0.03-0.187-1.96 0.34-0.03-0.204-0.27 0.051 0.05 0.221-1.33 0.238-0.01-0.187-1.14 0.204-0.07-0.442-0.25 0.068 0.05 0.187-1.29 0.238-0.05-0.204-0.26 0.068 0.02 0.187-0.22 0.017v-0.17l-0.26 0.034 0.07 0.203-0.9 0.102-0.01-0.135-0.26 0.05 0.05 0.204-0.24 0.034v-0.204l-1.56 0.255-0.02-0.17-0.25 0.034 0.03 0.204-0.22 0.034v-0.17l-0.69 0.119 0.03 0.17-0.25 0.051 0.01-0.187-0.27 0.034 0.05 0.187-0.22 0.034v-0.187l-0.27 0.051 0.05 0.17-0.2 0.034-0.02-0.204-0.27 0.068 0.05 0.187-0.22 0.051-0.02-0.204-1.12 0.204-0.03-0.187-0.26 0.051 0.07 0.186-0.2 0.051-0.02-0.22-0.29 0.068 0.05 0.169-0.24 0.051v-0.22l-0.47 0.067 0.05 0.221-0.24 0.051v-0.221l-1.15 0.204-0.02-0.153 0.26-0.051-0.02-0.22-0.44 0.068-0.04-0.136 0.85-0.17 0.05-0.153 0.12-0.017 0.02 0.153 0.49-0.068v-0.238l-0.51 0.068v-0.153l-0.9 0.187-0.03-0.204-2.48 0.408 0.05 0.204 0.24-0.051 0.03 0.204 1.29-0.221 0.05 0.187 0.41-0.068 0.08 0.153 0.19-0.051 0.05 0.186-0.46 0.051 0.09 0.221-0.24 0.051-0.03-0.221-3.11 0.561-0.03-0.187-3.13 0.577-0.03-0.204-3.76 0.697-0.01-0.221-0.31 0.068 0.07 0.187-0.46 0.067-0.02-0.186-1.35 0.22 0.06 0.187-0.93 0.187-0.02-0.187-1.98 0.34-0.02-0.221-0.25 0.051 0.06 0.187-0.44 0.085-0.02-0.187-0.45 0.085-0.04-0.204-0.29 0.051 0.07 0.187-0.66 0.136-0.02-0.187-0.27 0.034 0.05 0.187-0.2 0.034-0.04-0.187-0.23 0.051 0.05 0.186-0.9 0.17-0.02-0.204-0.7 0.119 0.05 0.187-1.56 0.289-0.03-0.204-3.11 0.543-0.03-0.203-0.26 0.051 0.07 0.186-0.27 0.068 0.03-0.187-0.29 0.018 0.05 0.186-0.2 0.051-0.02-0.204-0.27 0.051 0.05 0.17-0.44 0.085v-0.17l-0.27 0.017 0.05 0.204-0.22 0.034-0.02-0.17-0.25 0.051 0.03 0.187-0.2 0.068v-0.221l-0.72 0.136-0.03-0.204-1.76 0.306 0.05 0.204-0.26 0.068v-0.238l-0.93 0.153 0.07 0.186-0.9 0.17-0.02-0.187-1.36 0.238v-0.187l-1.12 0.204v-0.204l-0.29 0.034 0.05 0.221-0.22 0.034v-0.204l-0.52 0.068 0.08 0.221-1.8 0.306v-0.187l-0.26 0.034 0.04 0.187-0.68 0.101v-0.169l-0.46 0.084 0.04 0.17-0.43 0.068v0.204l-0.22 0.034-0.02-0.17-0.25 0.034v-0.17l-3.79 0.697-0.01-0.221-0.68 0.102 0.01 0.186-3.55 0.646-0.01-0.221-0.26 0.034 0.05 0.204-0.22 0.051-0.02-0.204-0.25 0.051 0.05 0.187-0.24 0.034v-0.187l-0.25 0.034 0.05 0.203-0.22 0.051-0.04-0.203-0.91 0.135 0.07 0.221-0.21 0.034-0.07-0.204-0.27 0.034 0.09 0.204-0.22 0.051-0.02-0.204-0.51 0.085 0.07 0.187-0.22 0.051-0.02-0.221-0.25 0.051 0.05 0.187-0.66 0.119-0.02-0.17-0.92 0.153 0.05 0.187-0.24 0.034-0.03-0.187-0.92 0.153 0.09 0.203-0.22 0.051-0.02-0.22-0.27 0.033 0.07 0.204-1.4 0.238v-0.187l-5.36 0.917 0.07 0.187-0.22 0.068-0.02-0.204-0.27 0.051 0.03 0.204-0.2 0.034-0.04-0.204-3.58 0.645 0.07 0.187-0.24 0.034-0.02-0.204-1.12 0.204-0.03-0.187-0.29 0.034 0.09 0.187-0.85 0.17v0.153l-0.26 0.05v-0.203l-0.2 0.102v0.152l-0.22 0.051v-0.203l-0.22 0.068v0.169l-0.24 0.034v-0.203l-0.19 0.101v0.17h-0.24v-0.17l-2.49 0.425 0.07 0.17-0.24 0.051v-0.153h-0.29l0.07 0.204-0.46 0.101v-0.203h-0.22v0.22l-0.19 0.034v-0.169l-0.46 0.051v0.186l-0.45 0.102v-0.204l-0.52 0.119v-0.254l-0.42 0.084v0.187l-1.58 0.306v-0.153h-0.18v0.136l-0.7 0.17v-0.17h-0.19v0.204l-0.64 0.102v0.169l-0.7 0.17v-0.17l-1.39 0.255 0.07 0.119-0.41 0.102v-0.221l-0.53 0.085 0.07 0.187-0.93 0.17 0.06 0.186-0.88 0.204v-0.272l-0.51 0.102 0.07 0.204-0.25 0.051v-0.187h-0.21v0.204l-1.82 0.323 0.07 0.186-0.49 0.085v-0.169h-0.2v0.203l-0.24 0.051v-0.187l-0.89 0.153v-0.22l-0.45 0.101v0.238l-1.14 0.187v-0.187h-0.19v0.17l-0.85 0.119v0.255l-0.45 0.084v-0.22l-0.31 0.068 0.08 0.169-0.25 0.068v-0.237l-0.2 0.068v0.186l-0.65 0.153v-0.255l-0.71 0.153v-0.153h-0.28l0.07 0.153-0.71 0.136 0.07 0.204-0.22 0.051v-0.221l-0.48 0.119v-0.221l-0.46 0.068v0.17l-0.18 0.068v0.204l-0.24 0.05v-0.203h-0.22v0.237l-0.44 0.119v-0.271l-0.19 0.068v0.373l-2.17 0.391v0.169l-0.22 0.051v-0.203l-0.46 0.085v0.169l-0.22 0.068v-0.204l-0.73 0.153v-0.203l-0.22 0.034v0.203l-0.85 0.153-0.04-0.204-0.29 0.051 0.12 0.204-0.24 0.051-0.11-0.577 0.18-0.034 0.09 0.203 0.22-0.034v-0.152l0.66-0.136-0.08-0.391-0.21 0.068v0.136l-0.25 0.051v-0.187l-1.73 0.289v0.221l-0.23 0.034v-0.204l-0.45 0.068 0.03 0.203-0.25 0.051-0.02-0.186h-0.29l0.05 0.186-2.43 0.408 0.02 0.221-0.42 0.085 0.03 0.186 1.1-0.169-0.03-0.204 0.2-0.034 0.05 0.187 0.65-0.119-0.04-0.238 0.24-0.034 0.04 0.17 1.37-0.238v0.255h-0.17v0.221h-0.2v0.203l-0.43 0.068v-0.203l-0.44 0.084v0.204l-1.54 0.238v0.204l-0.24 0.102v-0.238l-1.12 0.221v0.152l-1.78 0.323 0.03 0.204-1.32 0.204 0.05 0.22-0.22 0.034-0.02-0.187-0.24 0.051-0.05-0.203-0.24 0.017 0.07 0.22-0.25 0.051-0.09-0.424 0.25-0.034-0.03-0.17 0.44-0.051-0.03-0.204 1.1-0.169-0.01-0.204h0.2l0.07 0.187 0.68-0.136-0.04-0.204 0.17-0.017 0.05 0.187 0.28-0.017-0.09-0.425-3.09 0.527v0.203l-0.48 0.085v-0.169h-0.2v0.203l-1.26 0.238v0.221l-0.27 0.051v-0.221l-0.46 0.068v0.187l-2.88 0.475 0.07 0.204-0.48 0.085 0.05 0.221 0.85-0.17 0.07 0.17 0.18-0.034-0.01-0.153 0.2-0.051 0.02 0.221 0.47-0.102-0.01-0.187h0.22l0.01 0.085 0.45-0.085 0.06 0.238h-0.18v0.152l-0.92 0.187v0.17l-0.17 0.034v-0.119h-0.25v0.204l-0.46 0.102v-0.221l-1.09 0.187v0.204l-0.83 0.101v0.238l-0.24 0.085v-0.238l-0.25 0.034v0.204l-0.17 0.051-0.07-0.221-0.19 0.051v0.187l-1.12 0.187 0.07 0.204-0.22 0.017-0.04-0.204-0.25 0.051 0.07 0.22-1.09 0.187-0.07-0.204-0.25 0.051 0.06 0.204-0.66 0.119-0.01-0.17-0.45 0.068-0.03-0.17 0.41-0.085v-0.237l1.73-0.255-0.02-0.204 0.41-0.102 0.04 0.204 0.28-0.034-0.03-0.187 0.44-0.068-0.03-0.169 0.42-0.085v-0.221l-2.68 0.475v0.17l-0.22 0.051v-0.221l-0.29 0.068 0.1 0.187-0.22 0.068-0.07-0.17h-0.25l0.07 0.187-1.516 0.289v0.187l-0.696 0.101v-0.203l-0.22 0.068v0.152l-0.204 0.068v-0.22l-0.221 0.084v0.17l-0.866 0.153v0.238h-0.441l0.034 0.238h-0.221l0.085 0.356h0.203v0.17l-0.441 0.068 0.068 0.204-3.294 0.56v0.204l-0.238 0.034-0.068-0.204-0.221 0.051 0.068 0.204-0.679 0.085-0.034-0.17-0.441 0.102v-0.204l0.628-0.119-0.017-0.17h0.238l-0.051-0.136 0.288-0.085-0.085-0.22h-0.22v0.22l-0.248 0.034v-0.19l-1.562 0.271v0.167l-0.875 0.104v0.229l-0.23 0.104 0.084 0.167-0.188 0.083v-0.25l-0.958 0.167v0.146l-0.208 0.021v-0.167l-0.875 0.208v0.125l-0.875 0.146v0.229l-1.98 0.396v0.125l-0.187 0.063v-0.188l-1.417 0.167 0.084 0.25-0.584 0.292-0.041-0.146-0.75 0.083 0.062 0.146-0.396 0.125 0.042 0.187 1.479-0.25v-0.208h0.417l0.041 0.146 0.667-0.146v0.167l-0.187 0.083 0.083 0.146-1.813 0.354v0.146l-0.187 0.042v-0.188h-0.271v0.208l-1.729 0.292v0.208l-0.396 0.084v-0.167h-0.229v0.208l-0.667 0.084v0.104l-0.25 0.125v-0.125h-0.229l0.083 0.187-0.291 0.063v-0.25l-0.667 0.187 0.083 0.167-0.479 0.083v-0.208l-0.271 0.042v0.187l-1.312 0.209 0.062 0.229-0.27 0.021-0.042-0.313 0.437-0.104v-0.208l0.188-0.042v-0.167l-0.667 0.042v-0.125h-0.291v0.229l-0.188 0.042v-0.146h-0.229v0.187l-0.646 0.125v0.146l-0.187 0.042v-0.125h-0.23v0.167l-0.895 0.166v0.209l-1.313 0.208 0.021 0.187-0.188 0.042v0.188l0.438-0.063 0.208 0.125v-0.167l0.17-0.02v-0.209l0.268-0.041v0.166h0.25l-0.021-0.208 0.958-0.208v0.333h-0.416v0.229h-0.688v0.229l-0.625 0.146-0.229-0.125v0.146l-1.083 0.208-0.105-0.604-0.916 0.146v0.229l-0.167 0.063v-0.188h-0.25v0.208l-2.042 0.355 0.105 0.208-0.709 0.104 0.063 0.188-0.229 0.041v-0.229l-1.167 0.167 0.021 0.166-0.229 0.125 0.125 0.355 0.395-0.021-0.041-0.25 0.25-0.063 0.062 0.209h0.209l-0.042-0.167 0.937-0.188v0.167l-0.458 0.104v0.125l-0.646 0.104v0.188l-1.083 0.25v-0.125h-0.229v0.125l-0.834 0.167v0.166l-0.25 0.084v-0.23l-0.25 0.063v0.208l-0.854 0.146-0.021-0.229 0.167-0.167v-0.229l-0.229 0.083v0.188l-0.25 0.021v-0.396l-0.625 0.125v0.187l-0.833 0.188v0.167l-0.292 0.062v-0.229l-0.25 0.083 0.042 0.167-0.188 0.021-0.042-0.188-0.458 0.104 0.021 0.25h-0.229l0.041 0.167h-0.479l0.042 0.292 0.687-0.146v0.187h0.25l-0.041-0.229 0.5-0.104v0.167l-0.209 0.083v0.146l-0.416 0.104v0.146l-1.5 0.312-0.125-0.187h-0.188l0.104 0.375-0.27 0.062v-0.166l-0.167 0.021v0.166l-0.271 0.063v-0.209l-0.479 0.125-0.042-0.145 0.229-0.105v-0.187l-0.708 0.125v-0.125h-0.208v0.146l-0.688 0.125 0.042 0.208-1.104 0.208 0.021 0.188 0.479-0.083 0.041 0.187 0.209-0.021-0.063-0.229 0.25-0.021 0.021 0.167 0.229-0.063-0.021-0.125 0.459-0.104v0.188h-0.146v0.187l-0.896 0.188v0.166l-0.708 0.146 0.083 0.125-1.062 0.25v0.146l-0.271 0.083v-0.229l-0.271 0.042 0.104 0.187-0.687 0.146v-0.166h-0.125l-0.125-0.146 0.354-0.084v-0.187l-0.25 0.042v-0.209l-0.459 0.104 0.084 0.5h0.271v0.167l-0.625 0.104v0.209l-0.313 0.062v-0.146h-0.167v0.146l-0.833 0.208v0.125l-0.896 0.167v0.188l-1.541 0.312 0.083 0.125-1.188 0.25v-0.187l-0.125 0.041v0.188l-0.291 0.041v-0.25l-0.209 0.063v0.167l-1.729 0.354 0.042 0.166-0.229 0.042-0.084-0.229 0.209-0.146 0.187-0.042v-0.125l0.209-0.104 0.104 0.167 0.666-0.125-0.104-0.396-0.875 0.208v0.125l-1.146 0.23 0.105 0.416 0.458-0.104v0.208h-0.188v0.209h-0.25l0.105 0.166-1.125 0.209v0.166l-0.167 0.042v-0.208l-0.313 0.146v0.104l-0.166 0.021v-0.125h-0.209v0.187l-3.104 0.729 0.077-0.11 0.069-0.306-0.187 0.083-0.25 0.354-0.209 0.063-0.021-0.146 0.23-0.021v-0.25l-0.709 0.125 0.063 0.208 0.271-0.083v0.354l-0.375 0.104v0.188l-0.438 0.125v0.146l-0.208 0.062v-0.208l-0.938 0.104v0.208l-0.208 0.084v-0.209h-0.208v0.209l-0.167 0.083-0.104-0.375h-0.209v0.271h-0.479l0.104 0.187-0.291 0.042v-0.125h-0.167v0.146l-0.208 0.083v0.188l-0.209 0.041v-0.229l-0.25 0.104v0.125l-0.187 0.063v-0.188l-0.458 0.084v0.395h-0.146v0.167l-0.646 0.125v0.188l-0.271 0.104v-0.229l-0.896 0.104v0.208l-0.333 0.083v0.209l-0.292 0.062v-0.166h-0.25v0.145l-0.833 0.146v0.188l-0.646 0.166v-0.166h-0.208v0.187l-0.229 0.042v-0.229h-0.271l0.125 0.25-0.334 0.104v-0.354h-0.187v0.166l-0.229 0.063v-0.229h-0.25v0.229l-1.729 0.312v0.23h-0.188v0.229h-0.5l0.104 0.25h-0.208v0.229l-0.688 0.125v-0.271l-0.875 0.188v0.187l-0.416 0.125v0.146l-0.25 0.062v-0.208l-0.875 0.167v0.146l-0.375 0.104v0.187l-1.125 0.167v0.292h-0.625v0.25h-0.396v0.229l-1.313 0.291-0.083-0.187h-0.187v0.229h-0.396v0.208l-1.063 0.209v0.208h-0.396v0.188l-0.291 0.104v-0.229l-0.854 0.083v0.333h-0.438v0.229h-0.479l0.104 0.25-1.604 0.209 0.083 0.229-1.125 0.146v0.25h-0.25l0.125 0.354-0.479 0.125v-0.229h-0.187v0.25l-0.5 0.083v-0.208l-0.188 0.083v0.25h-0.625v0.229h-0.667v0.271l-1.25 0.167v0.291h-0.291v0.209l-0.792 0.125v0.208l-0.625 0.104v0.167l-0.469 0.146v0.166h-0.198l0.105 0.188h0.145v0.208h-0.145v0.167h0.291v0.354l0.681-0.107-0.017-0.204 0.663-0.102-0.017-0.203 0.9-0.17-0.034-0.136 0.203-0.051 0.051 0.153 0.187-0.034-0.051-0.187 1.596-0.306-0.051-0.186 0.9-0.153-0.034-0.136 0.697-0.102v-0.204l1.528-0.288-0.017-0.136 1.307-0.255v0.153l-0.204 0.017 0.034 0.221-0.186 0.034-0.085-0.204-0.204 0.034 0.051 0.204-0.272 0.051 0.051 0.169-1.579 0.306 0.051 0.17-1.121 0.204 0.034 0.152-0.866 0.17 0.017 0.204-0.424 0.068-0.034-0.204-0.238 0.051 0.017 0.17-0.238 0.051 0.068 0.187-0.662 0.118v0.153l-0.204 0.051-0.034-0.17-0.254 0.034 0.034 0.187-1.104 0.187 0.051 0.187-1.121 0.187 0.034 0.169-0.424 0.068 0.05 0.187-0.22 0.051-0.051-0.187-0.238 0.051 0.017 0.153-0.221 0.051v0.204l-0.153 0.017v-0.221l-0.322 0.068s0.102 0.187 0.051 0.187-1.104 0.254-1.104 0.254l0.085 0.374 1.138-0.238-0.034-0.153 0.475-0.068 0.017-0.186 1.647-0.323-0.017-0.17 0.917-0.17-0.034-0.203h0.204l0.034 0.135 0.238-0.016-0.051-0.187 0.679-0.119-0.034-0.153 0.917-0.187-0.051-0.187 1.358-0.254v-0.136l0.187-0.034 0.034 0.187 0.662-0.153-0.017-0.187 0.849-0.153-0.034-0.169 0.493-0.068-0.034-0.204 0.883-0.187-0.034-0.153 0.17-0.034 0.051 0.153 0.254-0.034-0.051-0.17 2.259-0.39-0.034-0.187 1.087-0.187-0.017-0.153 0.22-0.051-0.051-0.186 0.68-0.102-0.017-0.204h0.169l0.068 0.17 0.238-0.034-0.034-0.221 1.341-0.187-0.05-0.237 1.782-0.306v-0.187l0.357-0.085v-0.186l0.238-0.034 0.017 0.186 0.204-0.017-0.017-0.203 1.358-0.255-0.034-0.187 0.221-0.017v0.187l0.254-0.034v-0.17l0.832-0.17-0.033-0.169 0.254-0.017 0.034 0.135 0.238-0.034v-0.186l0.373-0.085-0.016-0.187 0.203-0.017 0.017 0.187 0.255-0.068v-0.187l0.441-0.051-0.017-0.17 1.07-0.186-0.034-0.204 0.73-0.119-0.051-0.204 0.357-0.051 0.068 0.221 1.138-0.221-0.034-0.221 0.237-0.016-0.051-0.187 0.221-0.068-0.034-0.17h0.204l0.068 0.17 0.204-0.034v-0.187l0.407-0.068-0.034-0.221-1.562 0.289v-0.221l-0.238 0.068 0.017 0.17-2.02 0.374-0.034-0.187 0.237-0.051-0.017-0.153 0.68-0.153-0.017-0.17 1.154-0.203-0.068-0.204 0.663-0.068-0.068-0.221h0.203l0.034 0.17h0.289l-0.068-0.238h0.204l0.085 0.34 1.341-0.221-0.017-0.221 1.104-0.186-0.034-0.187 0.611-0.085 0.051 0.17 0.883-0.17 0.051 0.187-1.12 0.17 0.034 0.169-0.68 0.102 0.034 0.221-0.475 0.068 0.051 0.221 1.817-0.323-0.034-0.187 0.254-0.034-0.034-0.203h0.187l0.034 0.152 0.883-0.152v-0.17l0.425-0.102-0.034-0.153 0.441-0.102v-0.187l-0.662 0.085-0.034-0.17 0.221-0.017-0.034-0.135 0.39-0.085-0.017-0.204 0.798-0.153 0.051 0.153-0.169 0.034 0.033 0.221 0.306-0.034-0.034-0.204 0.17-0.034 0.051 0.357 0.221-0.034 0.034 0.22 0.237-0.068-0.017-0.203 1.546-0.255 0.017 0.17-0.221 0.034 0.034 0.203-0.221 0.034 0.034 0.153-0.255 0.068 0.051 0.204 3.362-0.611-0.034-0.187 1.172-0.204-0.051-0.187 1.087-0.186-0.034-0.187 0.883-0.17-0.017-0.187 0.187-0.017 0.034 0.187 0.271-0.051-0.068-0.153 0.238-0.051v0.17l0.255-0.017-0.068-0.221 0.255-0.017 0.017 0.17 0.22-0.034-0.034-0.17 0.696-0.118-0.033-0.204 1.069-0.187 0.017 0.221 0.713-0.153-0.017-0.204 0.849-0.136-0.067-0.356 0.441-0.085 0.034 0.17 0.238-0.034-0.034-0.187 0.237-0.051 0.051 0.204 0.204-0.051-0.034-0.17 1.325-0.238-0.034-0.187 0.883-0.152-0.034-0.204 0.237-0.034 0.034 0.221 1.155-0.221-0.051-0.17 0.187-0.017 0.068 0.187 0.238-0.051-0.017-0.221 0.611-0.102 0.034 0.204 0.221-0.034v0.187l1.392-0.238-0.034-0.187 0.679-0.118-0.017-0.221 0.628-0.102-0.034-0.187 0.204-0.034 0.051 0.187 0.238-0.034-0.034-0.204 0.424-0.051-0.034-0.186 0.221-0.068 0.051 0.186 0.425-0.051 0.034 0.17 0.237-0.034 0.017 0.153-0.203 0.051 0.051 0.187 0.186-0.034 0.034 0.187 0.408-0.085 0.051 0.17 1.375-0.221-0.119-0.51 0.425-0.101v-0.221l-0.476 0.068 0.017 0.17-0.186 0.05v-0.169l-0.289 0.034 0.034 0.203-0.153 0.017-0.034-0.169-0.272 0.034 0.034 0.169-0.203 0.051-0.034-0.153-0.238 0.034-0.034-0.169 0.696-0.119-0.017-0.17 0.153-0.051-0.017-0.187 0.221-0.034 0.051 0.204 0.203-0.051 0.068 0.119 0.238-0.051-0.017-0.17 0.17-0.034-0.017-0.153 0.611-0.101-0.051-0.204 0.272-0.017-0.034-0.238 0.9-0.136 0.068 0.238 0.153-0.068 0.068 0.204 0.169-0.017v-0.204l0.187-0.051 0.034 0.204 0.73-0.136 0.119 0.34-0.509 0.051 0.034 0.152-0.425 0.085-0.051-0.339-0.271 0.051 0.034 0.22h-0.17l-0.017-0.22-0.289 0.068 0.017 0.169-0.424 0.068 0.05 0.204-0.407 0.085-0.017-0.17-0.272 0.034 0.017 0.17-0.237 0.051 0.067 0.204 1.342-0.187 0.034 0.17 0.475-0.102-0.034-0.204 1.121-0.221v-0.136l0.17-0.034-0.034-0.169 0.187-0.034v-0.204l0.169-0.017 0.102 0.357 0.17-0.068 0.119 0.407 0.238-0.051-0.051-0.407 0.17-0.034-0.051-0.204h-0.153l-0.017-0.119 0.187-0.034-0.017-0.238-0.476 0.102-0.034-0.136-0.22 0.017-0.068-0.356 0.288-0.034-0.051-0.187 1.07-0.221-0.051-0.186h0.221l0.085 0.22 0.255-0.068-0.068-0.203 0.356-0.051 0.068 0.153 0.255-0.068-0.017-0.153 0.441-0.034-0.085-0.391 0.663-0.136 0.017 0.187 0.458-0.068 0.034 0.187 0.238-0.034-0.034-0.221 0.204-0.017 0.067 0.17 0.204-0.051-0.034-0.204 0.238-0.016-0.017 0.237 0.442-0.136 0.033 0.153 0.034 0.238 0.187-0.017 0.102 0.187 0.272-0.051-0.034-0.221h-0.238l-0.017-0.153 0.391-0.068v-0.169l0.22-0.018 0.068 0.391 0.238-0.068-0.068-0.424 0.187-0.017-0.034-0.17 0.424-0.102-0.017-0.153 0.255-0.017v0.119l0.679-0.102 0.068 0.357-0.271 0.051 0.068 0.186h0.186l0.051 0.17 0.662-0.136 0.051 0.17 0.204-0.034 0.068 0.221 1.342-0.238-0.051-0.204 0.186-0.016 0.068 0.203 0.272-0.068-0.051-0.186 0.408-0.085-0.017-0.238 0.203-0.017 0.051 0.204 2.649-0.476-0.051-0.203 0.238-0.034 0.034 0.22 0.255-0.085-0.051-0.169 0.22-0.034-0.033-0.136 0.254-0.034-0.085-0.442-0.254 0.051-0.085-0.56-0.442 0.068-0.034-0.136 0.272-0.051-0.153-0.713-0.204 0.034-0.051-0.255-0.254 0.051 0.051 0.204-0.646 0.136 0.017 0.153-0.237 0.067v-0.186l-1.121 0.203-0.017-0.186h-0.238l-0.085-0.289-0.237 0.051v-0.238l0.628-0.085 0.051 0.187 0.407-0.068 0.068 0.204 0.272-0.034-0.034-0.238 0.408-0.068v0.187l0.492-0.051-0.017-0.204 0.204-0.034 0.051 0.17 0.237-0.068-0.017-0.169 0.204-0.034-0.034-0.187 0.204-0.017-0.068-0.408 0.866-0.119 0.102 0.357 0.187-0.034 0.034 0.187 1.579-0.323 0.051 0.374-0.221 0.085-0.034-0.221-0.238 0.034 0.017 0.204-0.22 0.068v-0.238l-0.221 0.017v0.204l-0.204 0.017 0.017 0.186-0.458 0.068 0.051 0.238 0.9-0.187 0.016 0.238 0.867-0.187 0.05 0.187 0.459-0.068 0.085 0.323-0.255 0.017 0.017 0.203-0.611 0.136v-0.17l-1.613 0.255 0.034 0.153-0.221 0.085 0.085 0.356 0.407-0.034 0.051 0.17 0.849-0.136 0.085 0.221 0.425-0.102-0.051-0.22 1.766-0.323 0.034 0.187 0.458-0.085 0.034 0.17 0.255-0.051-0.017-0.17 0.187-0.034-0.051-0.374 0.22-0.051-0.034-0.288 0.17-0.017-0.068-0.459-0.628 0.119v-0.187l-0.747 0.153-0.051-0.187 0.255-0.051-0.051-0.186h0.288l0.017 0.186 0.476-0.101-0.034-0.187 0.407-0.017-0.034-0.272-0.237 0.051-0.034-0.153h0.237l-0.067-0.458 0.39-0.051 0.085 0.204 0.221-0.017-0.017-0.204 0.22-0.068 0.017 0.17 0.442-0.068 0.051 0.153-0.238 0.051 0.068 0.169-0.696 0.119 0.051 0.221-0.255 0.034 0.068 0.204 0.408-0.085v0.17l-0.187 0.017 0.017 0.186-0.187 0.017 0.085 0.374 0.204-0.017 0.119 0.34 0.152-0.017 0.085 0.22 0.17-0.017-0.068-0.22 0.272-0.034 0.017 0.22 0.628-0.118v-0.187l0.204-0.034 0.017 0.119 0.288-0.051-0.05-0.374-0.459 0.051-0.085-0.306 0.442-0.067-0.034-0.187 0.237-0.034 0.068 0.153 0.204-0.017-0.085-0.323 0.238-0.051-0.051-0.221-0.221 0.051v-0.187l-0.237 0.034v-0.203l-0.255 0.068-0.017-0.221-0.493 0.085-0.017-0.17 0.204-0.034-0.017-0.17 0.866-0.17 0.068 0.187 0.187-0.034 0.119 0.323h0.221l0.033 0.153 0.204-0.034v-0.17l0.408-0.034-0.017-0.221-0.238 0.068-0.034-0.136 0.187-0.068-0.017-0.203 1.562-0.238 0.068 0.322 0.459-0.084 0.067 0.356-0.662 0.102-0.034-0.204-0.271 0.085 0.084 0.17-0.203 0.051-0.085-0.187-0.221 0.017v0.204l-0.153 0.017 0.017-0.17-0.289 0.034v0.204l-0.441 0.068 0.034 0.17-0.204 0.033 0.034 0.357-0.187 0.017 0.085 0.238 0.153-0.034v0.153l0.934-0.153 0.051 0.17 0.849-0.153v-0.153l0.204-0.017 0.034 0.221 0.475-0.085-0.051-0.221 2.666-0.458 0.051 0.169 0.425-0.068-0.017-0.203 0.9-0.153-0.034-0.17 1.545-0.306 0.017 0.204 1.341-0.255 0.017 0.221 1.121-0.203 0.068 0.186 0.187-0.051 0.034 0.204 3.595-0.645-0.03-0.187 0.92-0.153-0.05-0.221 1.32-0.22 0.04 0.22 0.4-0.084-0.02-0.204 0.21-0.017 0.05 0.187 0.48-0.119-0.02-0.153 0.22-0.034-0.07-0.221 0.24-0.017 0.05 0.187 0.37-0.068 0.07 0.204 0.88-0.17-0.01-0.204 0.68-0.102-0.04-0.254 1.28-0.221 0.01 0.221 0.28-0.051-0.02-0.17 0.44-0.085 0.03 0.204 2.41-0.459v-0.22l0.22-0.017-0.03-0.119 0.24-0.068-0.05-0.187-0.43 0.068-0.01-0.136-0.22 0.017-0.02-0.153-0.49 0.085-0.04-0.204 0.65-0.118-0.05-0.425-0.21 0.034v-0.221l-1.85 0.323 0.05 0.187-0.66 0.102-0.05-0.34-0.24 0.068 0.05 0.204-0.23 0.051v-0.204l-0.7 0.119 0.03 0.17-0.23 0.05v-0.203l-0.43 0.085-0.02-0.187-0.27 0.034 0.02 0.153-0.24 0.034 0.05 0.203-0.24 0.051 0.06 0.221-0.22 0.017 0.03 0.17-1.12 0.221-0.02-0.204-2.02 0.356-0.02-0.169-0.25 0.034 0.05 0.186-0.68 0.102 0.07 0.17-0.26 0.051-0.01-0.187-1.33 0.238-0.01-0.153-0.46 0.085-0.02-0.204-0.679 0.136-0.068-0.408-0.221 0.034 0.017 0.221-0.221 0.034-0.05-0.373-0.238 0.051-0.068-0.408-0.221 0.051-0.017-0.119 0.204-0.051-0.017-0.187 3.089-0.577 0.05 0.204 0.22-0.034v-0.238h0.19l0.05 0.187 0.41-0.068 0.05 0.357 0.22-0.017 0.03 0.186 0.26-0.068v-0.203l0.42-0.085-0.03-0.153 0.2-0.051 0.05 0.17 0.26-0.051-0.04-0.153 0.41-0.051 0.05 0.136 0.44-0.068-0.01-0.238 1.05-0.152 0.02 0.169-0.21 0.068 0.05 0.204 0.29-0.034-0.01-0.187 0.18-0.034-0.05-0.203 0.51-0.051-0.07-0.221 0.58-0.102 0.07 0.153 0.41-0.068 0.06 0.187 0.7-0.136v-0.153l0.41-0.085-0.04-0.238h0.17l0.04 0.204 0.68-0.119 0.07 0.221 0.71-0.136-0.05-0.221-0.26 0.034-0.05-0.169 0.27-0.017-0.08-0.408 0.41-0.068 0.05 0.187 0.91-0.153-0.05-0.221 1.51-0.288 0.05 0.22 0.48-0.084 0.05 0.203-0.29 0.034 0.05 0.238 0.17-0.051 0.09 0.306-0.15 0.017 0.01 0.203-0.22 0.051 0.09 0.595 0.27-0.085v-0.17l0.39-0.085v-0.136l0.22-0.034-0.03-0.237-0.46 0.067v-0.186l0.18-0.034-0.01-0.204 0.17-0.017 0.05 0.187 0.42-0.051 0.04 0.153 0.23-0.034 0.09 0.339-0.26 0.051 0.06 0.17-0.26 0.051 0.07 0.204-0.22 0.051 0.03 0.186-0.44 0.068-0.02-0.22-0.25 0.068 0.08 0.543-0.22 0.034 0.09 0.39 0.18-0.017 0.04 0.204 1.8-0.288v-0.204l0.22-0.051-0.02-0.204 0.85-0.119-0.05-0.424 0.82-0.119 0.08 0.356 0.27-0.034-0.03-0.254 0.18-0.017 0.06 0.221 0.27-0.017-0.04-0.221 0.19-0.051-0.03-0.187 0.23-0.034-0.13-0.747 0.85-0.119-0.02-0.238-0.22 0.051-0.02-0.135 0.22-0.034-0.05-0.374 1.12-0.187-0.03-0.254-0.46 0.084-0.05-0.322 1.71-0.306-0.03-0.204 0.49-0.102-0.01-0.169 0.18-0.017 0.07 0.17 0.64-0.102 0.09 0.169 1.51-0.254 0.12 0.679-0.2 0.051-0.04-0.187-1.36 0.221 0.06 0.238-0.24 0.034 0.05 0.186-0.21 0.034-0.05-0.373-1.78 0.322-0.03-0.203-0.26 0.034 0.09 0.543-0.21 0.051 0.07 0.577-0.24 0.034 0.12 0.391 0.21-0.068 0.08 0.356 0.2-0.034 0.06 0.221 2.02-0.356-0.04-0.221 0.19-0.051 0.05 0.204 0.24-0.051-0.05-0.17 0.22-0.017 0.01 0.187 1.33-0.255 0.03 0.17 0.7-0.119v-0.17l0.42-0.051-0.05-0.238 1.34-0.186-0.05-0.221 0.28-0.017 0.01 0.204 0.63-0.102-0.08-0.764 0.2-0.051 0.05 0.187 0.43-0.102v-0.17l0.18-0.017 0.02 0.17 0.44-0.068-0.03-0.187 0.2-0.017 0.03 0.187 0.24-0.051v-0.204l0.2-0.034 0.07 0.153 0.63-0.119 0.05 0.187 0.19-0.017 0.05 0.17 1.56-0.272 0.02 0.153 0.27-0.017 0.02 0.17 0.18-0.017 0.04 0.186 0.64-0.135 0.02 0.203 1.41-0.288-0.03-0.136 0.2-0.034-0.03-0.221-0.21 0.017-0.02-0.119-0.45 0.051-0.02-0.153-0.24 0.034v-0.186l0.21-0.034-0.04-0.187 0.16-0.017 0.08 0.187 0.25-0.051-0.05-0.238h0.21l0.05 0.187 0.69-0.085-0.05-0.204 0.41-0.051-0.07-0.39 0.43-0.102 0.05 0.373 0.25-0.051 0.07 0.187 0.39-0.034 0.09 0.255 0.4-0.102-0.01-0.204 0.91-0.17-0.05-0.458-0.27 0.068-0.02-0.153 0.41-0.068-0.03-0.238 0.25-0.051 0.02 0.204 0.44-0.051 0.07 0.204 0.22-0.034 0.02 0.17 0.66-0.136-0.04-0.221 0.23-0.017 0.05 0.221 0.86-0.17 0.05 0.17 0.92-0.17v-0.203l0.36-0.068-0.07-0.357-0.42 0.068-0.06-0.391-0.2 0.051-0.05-0.305 0.44-0.068-0.05-0.221-0.42 0.068-0.02-0.187-0.27 0.051 0.05 0.187-0.22 0.051-0.04-0.187-0.22 0.034-0.05-0.187-0.2 0.017-0.04-0.153h-0.22l-0.01-0.356 0.16-0.034-0.06-0.357 1.3-0.22 0.06 0.152h0.2l0.14 0.527 0.44-0.034 0.05 0.458-0.39 0.068 0.06 0.238 0.18-0.017 0.11 0.526 0.19-0.017-0.1-0.56 0.66-0.102 0.09 0.153 0.42-0.034 0.03 0.136 0.43-0.085 0.03 0.17 0.41-0.068 0.07 0.203 0.88-0.135 0.07 0.186 0.2-0.017v-0.186l0.63-0.102-0.03-0.255h0.2l0.07 0.17 0.25-0.034-0.06-0.221 0.88-0.119 0.03 0.119 0.41-0.068 0.07 0.221 0.22-0.034-0.02-0.221 0.16-0.051 0.05 0.221 0.28-0.068-0.03-0.187h0.17l0.03 0.153 0.28-0.068-0.02-0.119 0.17-0.017 0.05 0.187 0.22-0.068-0.05-0.22 0.44-0.085 0.07 0.22 0.24-0.034-0.04-0.203h0.16l0.08 0.203 0.22-0.067-0.03-0.238 0.2-0.017 0.07 0.238 3.07-0.561 0.04 0.204 0.25-0.034-0.07-0.221 0.24-0.051 0.05 0.204 0.22-0.051-0.05-0.221 2.65-0.458 0.05 0.187 0.44-0.068 0.04 0.187 0.93-0.119-0.03-0.238 1.58-0.221-0.05-0.254 1.3-0.221-0.03-0.187 0.2-0.017 0.04 0.187 0.25-0.034-0.05-0.187 1.32-0.221 0.04 0.17 0.25-0.034-0.03-0.238 0.2-0.017 0.04 0.204 1.1-0.17-0.02-0.203 0.21-0.051 0.05 0.187 0.69-0.153-0.05-0.187 0.21-0.051 0.05 0.204 0.22-0.017-0.05-0.187 0.2-0.034 0.07 0.204 1.77-0.323-0.04-0.204 0.87-0.152 0.05 0.203 0.44-0.051 0.07 0.34 0.91-0.153-0.03-0.221 0.87-0.135 0.03 0.186 1.09-0.203 0.06 0.186 0.19-0.017-0.01-0.22 0.22-0.017 0.1 0.186 0.18-0.016-0.01-0.255h0.18l0.05 0.187 1.08-0.187 0.05 0.221 0.23-0.051-0.03-0.238 0.9-0.153 0.05 0.204 0.37-0.085 0.07 0.34-0.18 0.033 0.01 0.187-0.44 0.068 0.03 0.204 0.24-0.017 0.05 0.153 0.19-0.017 0.05 0.187 0.22-0.051 0.05 0.186 0.43-0.067-0.04-0.187 0.65-0.119 0.05 0.17 0.19-0.017 0.06 0.169 0.19-0.033v-0.187l0.49-0.085-0.08-0.374-0.7 0.102v-0.153l-0.24 0.034-0.03-0.237-0.47 0.084-0.02-0.169 0.25-0.017-0.1-0.544-0.47 0.085-0.02-0.187h0.2l-0.01-0.22 0.2-0.034 0.03 0.17 0.46-0.085-0.02-0.187 0.19-0.017 0.04 0.187 0.28-0.017-0.05-0.238 0.65-0.085 0.03 0.17 0.46-0.068 0.07 0.34 0.22-0.034-0.05-0.187 0.22-0.017 0.05 0.17 0.2-0.051-0.03-0.17 0.42-0.051 0.06 0.204 0.23-0.068-0.05-0.204 0.66-0.102 0.06 0.187 0.25-0.068-0.03-0.153 0.18-0.051 0.09 0.204 0.39-0.085v0.187l0.3-0.034-0.05-0.187 0.21-0.068v0.187l0.46-0.085 0.05 0.187-0.29 0.034 0.07 0.187-2.01 0.356v-0.187l-0.66 0.102 0.02 0.187-0.39 0.085-0.07-0.204-0.27 0.068 0.05 0.204 0.18-0.034 0.06 0.374 0.22-0.068 0.08 0.169 0.46-0.034 0.03 0.187 0.68-0.119-0.03-0.237h0.2l0.05 0.152 0.63-0.084 0.02 0.169 0.68-0.135 0.07 0.169 0.44-0.051v-0.186l0.17-0.051 0.05 0.39 0.29-0.051-0.02-0.187 0.17-0.016 0.05 0.152 0.19-0.051 0.07 0.17h0.22l-0.04-0.221 0.43-0.034-0.04-0.203 0.24-0.034 0.03 0.187 1.75-0.306 0.04 0.204 1.17-0.204-0.07-0.238h-0.2l-0.04-0.153 0.21-0.017-0.09-0.339 0.17-0.034 0.07 0.204 0.27-0.051v-0.204l0.2-0.034 0.06 0.238 0.59-0.136 0.03 0.153-0.22 0.017 0.04 0.203-0.22 0.034 0.06 0.17 0.43-0.085v-0.204l0.2-0.051v-0.152h0.17l0.04 0.17 0.2-0.034 0.03 0.152 0.48-0.118-0.02-0.136 0.19-0.017 0.05 0.153 0.2-0.034-0.03-0.204 0.22-0.017 0.04 0.204 0.3-0.034-0.03-0.153 0.2-0.034-0.02-0.238-0.51 0.068-0.01-0.17 0.2-0.051-0.1-0.543-0.21 0.051v-0.153l-0.23 0.017-0.04-0.204-0.49 0.085-0.02-0.187 0.28-0.034-0.04-0.186 0.39-0.068-0.01-0.17 0.64-0.119 0.02 0.17-0.19 0.017 0.12 0.39 0.19-0.017 0.03 0.136 0.22-0.034 0.1 0.595 0.67-0.119 0.01 0.186 0.22-0.05 0.05 0.203 0.67-0.136 0.05 0.136 0.17-0.017 0.05 0.204 0.25-0.051-0.03-0.187 0.2-0.034-0.03-0.203-0.21 0.034-0.01-0.17 0.22-0.034-0.03-0.187 0.18-0.034 0.04 0.17 0.45-0.068 0.07 0.204 0.19-0.017 0.01 0.17 0.43-0.102 0.07 0.373 1.12-0.187 0.07 0.357 0.29-0.034-0.06-0.187 1.11-0.186-0.07-0.442-1.82 0.323-0.12-0.697-0.44 0.068v-0.203l-0.49 0.102-0.03-0.17-0.48 0.085-0.02-0.204-0.44 0.085-0.02-0.187-0.91 0.187 0.02-0.221-1.01 0.187-0.17-0.136 0.9-0.187-0.03-0.187 0.22-0.034 0.05 0.204 0.22-0.051v-0.22l0.17-0.018 0.04 0.204 0.23-0.051v-0.203l0.65-0.119-0.02-0.187 0.39-0.017 0.04 0.153 0.49-0.068-0.04-0.187 0.24-0.051-0.01-0.17 0.37-0.051-0.04-0.254h0.24l0.07 0.169 0.19-0.017 0.05 0.17 0.2-0.017 0.14 0.73-0.21 0.051-0.05-0.186-0.2 0.034v0.152l-0.2 0.068 0.05 0.323 0.2-0.051 0.09 0.204 0.17-0.017 0.05 0.17 0.44-0.068 0.07 0.169h0.17l0.08 0.136 0.41-0.034 0.03 0.17 0.61-0.102 0.02 0.136-0.39 0.102 0.07 0.374 0.25-0.051-0.03-0.187 0.25-0.034-0.03-0.153 0.44-0.068-0.03-0.238-0.22 0.017-0.02-0.169-0.48 0.068-0.08-0.323-0.43 0.034-0.06-0.34-0.44 0.051-0.09-0.356h-0.24l-0.01-0.136h0.22l-0.04-0.204-0.2 0.017-0.07-0.34 0.68-0.118-0.05-0.238 0.2-0.017 0.04 0.221 0.27-0.017-0.05-0.408 0.2-0.051-0.03-0.136 0.2-0.017 0.05 0.17 0.43-0.102 0.01 0.17-0.22 0.034 0.04 0.204 1.12-0.204 0.03 0.187 1.33-0.221 0.03 0.187 0.42-0.119 0.05 0.153 0.45-0.051-0.04-0.187 0.19-0.017 0.07 0.17 0.25-0.017-0.03-0.204h0.18l0.04 0.153 0.42-0.068 0.02 0.17 0.29-0.068v-0.187l0.17-0.017 0.05 0.187 0.2-0.034-0.03-0.204 0.66-0.119 0.05 0.187 0.87-0.136 0.07 0.187 0.66-0.102 0.02 0.136 0.23-0.034-0.05-0.17 0.24-0.051 0.05 0.221 0.26-0.051-0.07-0.204 0.2-0.051 0.04 0.204 0.45-0.085-0.03-0.17 1.09-0.203 0.06 0.186 0.21-0.05-0.04-0.17 0.22-0.034 0.07 0.136 0.17-0.034-0.01-0.153 0.23-0.017 0.02 0.153 0.26-0.051-0.02-0.17 0.37-0.085 0.07 0.187 0.41-0.051 0.07 0.17 0.22-0.051-0.04-0.187 0.44-0.051 0.04 0.153 0.32-0.068 0.19 0.153-0.26 0.034v0.203l0.24-0.051v0.136l-0.22 0.034 0.05 0.204 0.42-0.068-0.05-0.322 0.26-0.051v-0.153l-0.24 0.017-0.03-0.17h-0.24l-0.05-0.323 0.2-0.034v-0.186l0.21-0.051 0.11 0.509h0.21l0.03 0.17 0.24-0.017-0.05-0.187 0.2-0.034v-0.187l0.44-0.102-0.05-0.169 0.21-0.034-0.02-0.204 1.36-0.238 0.03 0.204 1.09-0.17v0.187l0.71-0.153-0.03-0.153 0.44-0.068 0.05 0.136 0.24-0.017-0.07-0.237 0.22-0.034 0.05 0.203h0.22v0.17l0.48-0.068 0.01 0.187 0.92-0.17-0.03-0.204 0.42-0.067 0.04 0.169 0.64-0.102 0.04 0.204 0.25-0.051-0.05-0.22 0.2-0.017 0.04 0.203 0.25-0.068-0.03-0.186 0.22-0.034 0.02 0.169 1.57-0.271-0.03-0.187 0.21-0.017 0.01 0.187 0.24-0.034-0.03-0.187 0.22-0.051 0.03 0.187 0.25-0.034-0.05-0.187 0.43-0.068 0.03 0.17 0.67-0.119 0.03 0.17h0.25v0.17l0.24-0.034 0.04 0.17-0.23 0.034v0.186l-0.86 0.153 0.05 0.187 0.44-0.051v0.153l-0.2 0.051 0.03 0.187 0.22-0.034 0.05 0.169 0.66-0.118v0.186l0.89-0.153-0.04-0.152 0.7-0.119 0.09 0.339 0.18-0.034 0.05 0.153-0.22 0.051v0.17l-0.19 0.017 0.11 0.594 0.18-0.051 0.04 0.187 0.44-0.068 0.07 0.153 0.44-0.051 0.05 0.136 0.19-0.017 0.03 0.204 0.44-0.102 0.05 0.204 0.66-0.136 0.06 0.204 0.66-0.119 0.02 0.203 0.67-0.118-0.03-0.221 0.44-0.051 0.05 0.153 0.43-0.034 0.06 0.339 0.4-0.051 0.1 0.527-0.61 0.119v-0.204l-0.68 0.136 0.03 0.17-0.25 0.033 0.05 0.187-0.27 0.051v-0.187l-0.45 0.068-0.03-0.169-0.24 0.034 0.02 0.203-0.19 0.034-0.01-0.203-0.24 0.033 0.03 0.187-0.9 0.136 0.07 0.391 0.22-0.034 0.05 0.169 0.2-0.033 0.02 0.186 2.87-0.492v-0.187l0.24-0.051 0.03 0.204 0.22-0.051 0.04 0.17 0.24-0.017-0.07-0.357 0.22-0.068-0.05-0.186h-0.22l-0.04-0.102-0.18 0.017-0.02-0.17 0.17-0.034-0.03-0.221 0.64-0.119 0.07 0.17 0.2-0.034 0.05 0.221 0.19-0.034 0.05 0.17 0.44-0.085 0.09 0.339 0.2-0.017 0.05 0.187 0.21-0.034 0.05 0.153 0.18-0.017 0.04 0.17 3.38-0.544-0.05-0.237 0.23-0.017 0.04 0.187 0.85-0.17-0.09-0.527-0.2 0.017-0.05-0.356 1.24-0.238 0.03 0.17-0.15 0.034 0.01 0.221 0.28-0.051v-0.204l0.39-0.051 0.07 0.119 0.18-0.017-0.02-0.17 0.22-0.051-0.03-0.17 1.31-0.221 0.08 0.17 0.22-0.034-0.05-0.203 0.43-0.034 0.05 0.169 0.44-0.084 0.07 0.356 0.2-0.017 0.04 0.17 0.25-0.051-0.03-0.187 0.2-0.017 0.03 0.17 0.21-0.017-0.02-0.238h0.17l-0.07-0.373 0.51-0.085 0.05 0.187 0.39-0.068 0.05 0.203 0.24-0.067 0.05 0.203 0.41-0.085 0.05 0.204 0.85-0.187 0.02 0.187 0.47-0.068 0.05 0.17 1.3-0.238 0.08 0.17 0.64-0.102 0.06 0.187 1.98-0.357 0.05 0.204 3.31-0.594 0.07 0.17 0.41-0.068 0.03 0.17 1.14-0.221-0.05-0.374-0.24 0.051-0.01-0.153-0.24 0.034-0.03-0.39-0.24 0.051-0.04-0.17-0.27 0.051-0.02-0.187 0.46-0.102-0.05-0.17 0.22-0.017 0.07 0.136 0.19-0.017 0.06 0.187 0.65-0.102 0.03 0.204 2.01-0.374 0.01 0.17 0.43-0.085 0.05 0.204 0.66-0.136 0.04 0.204 0.66-0.136 0.05 0.17 0.24-0.051-0.04-0.17 0.22-0.051 0.09 0.374 0.2-0.017 0.04 0.17 0.18-0.034 0.06 0.237 0.67-0.118-0.03-0.221 0.68-0.119v0.153l0.24-0.017 0.01 0.204 0.72-0.153-0.05-0.187 0.44-0.068-0.04-0.204 0.24-0.034 0.05 0.204 1.05-0.204 0.04 0.204 0.9-0.17 0.08 0.17 0.17-0.017 0.02 0.204 0.9-0.187 0.03 0.153 1.55-0.272 0.07 0.238 0.24-0.051-0.02-0.221 0.17-0.017 0.03 0.187 0.26-0.068v-0.153l0.17-0.017 0.05 0.204 0.22-0.068-0.04-0.221 0.45-0.067-0.07-0.391 0.22 0.034-0.05-0.425 0.2-0.051 0.03 0.221 0.26-0.051-0.02-0.17 0.44-0.067-0.05-0.238 0.45-0.034 0.05 0.17h0.2l0.05 0.153 0.19-0.017 0.01 0.152 0.24-0.017 0.05 0.136h0.21l0.06 0.357 0.43-0.085 0.05 0.17 1.55-0.255-0.05-0.187 0.27-0.034-0.04-0.204-0.46 0.068-0.05-0.169-0.2 0.034-0.05-0.187-0.43 0.068-0.03-0.187-0.24 0.034-0.03-0.153-0.19 0.034-0.02-0.204-0.28 0.034 0.05 0.204-0.21 0.034-0.05-0.357-0.22 0.051-0.07-0.373-0.49 0.068-0.02-0.187-0.4 0.085v-0.187l-0.29 0.051-0.07-0.374-0.26 0.051-0.11-0.747 0.25-0.017-0.03-0.17 0.23-0.017-0.01-0.22 0.2-0.017 0.07 0.339 0.68-0.136 0.03 0.17h0.19l0.07 0.17 0.18-0.051 0.09 0.391 0.22-0.034-0.03-0.204 0.2-0.034 0.05 0.187 0.22-0.051-0.05-0.187 0.22-0.051 0.05 0.204 0.22-0.034 0.04 0.17-0.26 0.051 0.05 0.203 0.44-0.085 0.11 0.357 0.18-0.051 0.05 0.17 0.65-0.102 0.02 0.187 0.47-0.068v0.153l-0.19 0.051v0.186l0.46-0.034 0.05 0.153 0.65-0.119 0.02 0.187 1.36-0.271 0.03 0.22 1.1-0.186 0.05 0.186 0.22-0.034-0.01-0.237 0.22-0.034 0.03 0.203 2.45-0.441-0.16-0.9 0.67-0.085-0.05-0.255 0.23-0.017 0.04 0.204 1.8-0.272-0.04-0.237 2.19-0.425 0.09 0.204 0.61-0.102 0.07 0.17 3.48-0.611 0.07 0.186 0.23-0.05-0.01-0.204 0.17-0.017 0.08 0.187 0.24-0.017-0.05-0.238h0.22l0.05 0.17 0.19-0.017v-0.187l0.81-0.153 0.05 0.17 0.24-0.034-0.03-0.187 0.2-0.051 0.05 0.221 0.26-0.034-0.07-0.238 0.25-0.034 0.05 0.187 0.43-0.051-0.05-0.221 0.24-0.034 0.06 0.187 0.21-0.017-0.04-0.187 1.07-0.22 0.07 0.22 0.26-0.017-0.05-0.271 0.2-0.034 0.03 0.187h0.21v-0.204l0.2-0.034 0.03 0.204 0.21-0.051-0.02-0.204 0.24-0.034 0.02 0.17 0.23-0.017-0.01-0.187 0.86-0.153 0.07 0.17 0.19-0.017v-0.221l0.17-0.034 0.05 0.221 0.24-0.051v-0.17l0.16-0.051 0.04 0.204 0.25-0.051-0.05-0.204 0.17-0.034 0.09 0.221 0.25-0.034-0.03-0.17 4.02-0.696-0.03-0.22 1.03-0.17-0.01-0.204 1.13-0.204-0.01-0.221 0.86-0.169-0.03-0.17 0.2-0.034v-0.204l0.17-0.034 0.07 0.187 0.24-0.034-0.05-0.187 0.68-0.102v-0.203l0.39-0.051-0.02-0.221 0.48-0.068-0.04-0.17 0.24-0.017-0.05-0.221 0.2-0.034-0.01-0.169 0.2-0.017z" mask="url(#b)"/>
</g>
</g>
</g>
</g>
</svg>
