<?xml version="1.0" encoding="UTF-8"?>
<svg version="1.1" viewBox="0 0 250 91" xmlns="http://www.w3.org/2000/svg" xmlns:cc="http://creativecommons.org/ns#" xmlns:dc="http://purl.org/dc/elements/1.1/" xmlns:rdf="http://www.w3.org/1999/02/22-rdf-syntax-ns#">
<metadata>
<rdf:RDF>
<cc:Work rdf:about="">
<dc:format>image/svg+xml</dc:format>
<dc:type rdf:resource="http://purl.org/dc/dcmitype/StillImage"/>
<dc:title/>
</cc:Work>
</rdf:RDF>
</metadata>
<g transform="translate(0,-961.4)">
<path d="m35.363 1022.5c-0.118 0-0.711-0.2-1.312-0.3-3.82-0.5-7.347-2.6-9.526-5.5-1.002-1.3-2.096-3.6-2.561-5.3-0.365-1.4-0.383-1.7-0.383-4.5 0-2.7 0-3.1 0.392-4.5 0.975-3.63 2.981-6.4 6.007-8.5 2.288-1.46 4.585-2.28 7.712-2.55 2.178-0.18 4.858 0 6.756 0.46 2.762 0.73 6.207 2.91 6.207 4.01 0 0.27-0.515 0.82-2.785 3.05-1.807 1.73-2.913 2.73-3.146 2.73-0.242 0-0.536-0.1-0.896-0.4-0.777-0.7-2.436-1.43-3.612-1.63-4.156-0.6-7.83 2.83-7.82 7.43 0 4.7 3.591 8.1 7.903 7.5 1.786-0.2 2.771-0.7 3.625-1.5 0.495-0.5 1.327-1.6 1.327-1.9 0 0-1.48-0.1-3.284-0.1h-3.291v-3.3-3.3h7.659 7.657l0.105 1c0.19 1.8-0.02 4.9-0.437 6.5-1.429 5.6-5.711 9.5-11.402 10.4-1.13 0.2-4.22 0.3-4.895 0.2zm57.99 0c-0.122 0-0.713-0.2-1.314-0.3-0.604-0.1-1.655-0.4-2.337-0.5-4.769-1.7-8.08-5.3-9.463-10.3-0.377-1.3-0.397-1.5-0.39-4.6 0.03-3.1 0.03-3.2 0.412-4.5 1.355-4.43 3.771-7.39 7.612-9.31 1.877-0.91 3.547-1.46 5.84-1.64 8.417-0.82 15.417 3.65 17.317 11.05 0.69 2.8 0.66 6.7-0.1 9.3-1.62 5.7-6.09 9.6-12.029 10.6-1.193 0.2-4.811 0.3-5.56 0.2zm4.453-8.8c2.924-0.9 4.674-3.5 4.654-6.9 0-2.6-1.19-4.7-3.235-6-2.108-1.43-5.086-1.43-7.172 0-2.052 1.3-3.23 3.5-3.24 6.1-0.03 3.7 2.271 6.5 5.855 7.2 0.672 0.2 2.273 0 3.138-0.4zm-43.308-6.8v-15.09h11.908 11.904l-0.04 3.92-0.04 3.94h-7.487l-7.486 0.1v1.43 1.6l6.975 0.1h6.976v3.9 3.8l-6.976 0.1h-6.975v1.7 1.8h7.522 7.524v3.9 3.8h-11.905-11.905v-15zm59.452 0v-15.09h4.31 4.31v11.09 11h7.15 7.16v4 4h-11.47-11.46v-15zm28.63 9.6v-5.6l-5.55-9.1c-3.2-5.34-5.56-9.45-5.56-9.63v-0.36h4.95 4.94l2.77 5.2c1.51 2.86 2.79 5.19 2.83 5.19 0.1 0 1.31-2.33 2.82-5.19l2.76-5.2h17.51 17.51v4.01 4.05h-4.23-4.24v11.03 11h-4.31-4.3v-11-11.03h-4.24-4.24v-3.51-3.46l-5.29 9-5.3 8.9v5.6 5.5h-4.38-4.38v-5.4zm46.59-9.6v-15.09h4.38 4.38v15.09 15h-4.38-4.38v-15zm10.24 14.7c0-0.1 2.06-3.6 4.58-7.5l4.55-7.2-4.53-7.13c-2.48-3.95-4.55-7.33-4.58-7.6l-0.1-0.36h4.92l4.9 0.1 2.36 3.92c1.3 2.15 2.4 4.05 2.47 3.95 0.1 0 1.14-1.8 2.42-4.04l2.31-3.92h4.85 4.86v0.36c0 0.1-2.05 3.46-4.54 7.4-2.5 4.02-4.52 7.32-4.47 7.42 0 0.1 2.07 3.3 4.54 7.3 2.45 3.9 4.47 7.2 4.47 7.4s-0.1 0.2-4.92 0.2l-4.92-0.1-2.34-3.9c-1.3-2.2-2.38-3.9-2.43-3.9-0.1 0-1.14 1.8-2.4 4l-2.33 3.9h-4.87-4.85v-0.2z" fill="#fff"/>
</g>
</svg>
