<?xml version="1.0" encoding="UTF-8" standalone="no"?>
<!-- Created with Inkscape (http://www.inkscape.org/) -->

<svg xmlns:dc="http://purl.org/dc/elements/1.1/" xmlns:cc="http://creativecommons.org/ns#" xmlns:rdf="http://www.w3.org/1999/02/22-rdf-syntax-ns#" xmlns:svg="http://www.w3.org/2000/svg" xmlns="http://www.w3.org/2000/svg" xmlns:sodipodi="http://sodipodi.sourceforge.net/DTD/sodipodi-0.dtd" xmlns:inkscape="http://www.inkscape.org/namespaces/inkscape" width="250" height="91" viewBox="0 0 250 91" id="svg2" version="1.1" inkscape:version="0.91 r13725" sodipodi:docname="geolytix.svg">
  <defs id="defs4">
    <radialGradient fx="0" fy="0" cx="0" cy="0" r="1" gradientUnits="userSpaceOnUse" gradientTransform="matrix(16.513,0,0,16.513,8.022,1093)" spreadMethod="pad" id="radialGradient3658">
      <stop style="stop-opacity:1;stop-color:#bfe6f9" offset="0" id="stop3660" />
      <stop style="stop-opacity:1;stop-color:#1478c7" offset="1" id="stop3662" />
    </radialGradient>
    <radialGradient fx="0" fy="0" cx="0" cy="0" r="1" gradientUnits="userSpaceOnUse" gradientTransform="matrix(20.257,0,0,20.257,131.13,151.54)" spreadMethod="pad" id="radialGradient3684">
      <stop style="stop-opacity:1;stop-color:#a6d71c" offset="0" id="stop3686" />
      <stop style="stop-opacity:1;stop-color:#23a03d" offset="0.960678" id="stop3688" />
      <stop style="stop-opacity:1;stop-color:#23a03d" offset="1" id="stop3690" />
    </radialGradient>
    <radialGradient fx="0" fy="0" cx="0" cy="0" r="1" gradientUnits="userSpaceOnUse" gradientTransform="matrix(25.746,0,0,25.746,136.25,150.22)" spreadMethod="pad" id="radialGradient3712">
      <stop style="stop-opacity:1;stop-color:#a6d71c" offset="0" id="stop3714" />
      <stop style="stop-opacity:1;stop-color:#23a03d" offset="0.960678" id="stop3716" />
      <stop style="stop-opacity:1;stop-color:#23a03d" offset="1" id="stop3718" />
    </radialGradient>
    <radialGradient fx="0" fy="0" cx="0" cy="0" r="1" gradientUnits="userSpaceOnUse" gradientTransform="matrix(34.031,0,0,34.031,138.13,139.23)" spreadMethod="pad" id="radialGradient3740">
      <stop style="stop-opacity:1;stop-color:#a6d71c" offset="0" id="stop3742" />
      <stop style="stop-opacity:1;stop-color:#23a03d" offset="0.960678" id="stop3744" />
      <stop style="stop-opacity:1;stop-color:#23a03d" offset="1" id="stop3746" />
    </radialGradient>
  </defs>
  <sodipodi:namedview id="base" pagecolor="#ffffff" bordercolor="#666666" borderopacity="1.0" inkscape:pageopacity="0.0" inkscape:pageshadow="2" inkscape:zoom="1.9799" inkscape:cx="192.48" inkscape:cy="-35.322" inkscape:document-units="px" inkscape:current-layer="layer1" showgrid="false" inkscape:window-width="1280" inkscape:window-height="751" inkscape:window-x="0" inkscape:window-y="0" inkscape:window-maximized="0" units="px" />
  <metadata id="metadata7">
    <rdf:RDF>
      <cc:Work rdf:about="">
        <dc:format>image/svg+xml</dc:format>
        <dc:type rdf:resource="http://purl.org/dc/dcmitype/StillImage" />
        <dc:title></dc:title>
      </cc:Work>
    </rdf:RDF>
  </metadata>
  <g inkscape:label="Layer 1" inkscape:groupmode="layer" id="layer1" transform="translate(0,-961.4)">
    <path style="fill:#ffffff" d="m 35.363,1022.5 c -0.118,0 -0.711,-0.2 -1.312,-0.3 -3.82,-0.5 -7.347,-2.6 -9.526,-5.5 -1.002,-1.3 -2.096,-3.6 -2.561,-5.3 -0.365,-1.4 -0.383,-1.7 -0.383,-4.5 0,-2.7 0,-3.1 0.392,-4.5 0.975,-3.63 2.981,-6.4 6.007,-8.5 2.288,-1.46 4.585,-2.28 7.712,-2.55 2.178,-0.18 4.858,0 6.756,0.46 2.762,0.73 6.207,2.91 6.207,4.01 0,0.27 -0.515,0.82 -2.785,3.05 -1.807,1.73 -2.913,2.73 -3.146,2.73 -0.242,0 -0.536,-0.1 -0.896,-0.4 -0.777,-0.7 -2.436,-1.43 -3.612,-1.63 -4.156,-0.6 -7.83,2.83 -7.82,7.43 0,4.7 3.591,8.1 7.903,7.5 1.786,-0.2 2.771,-0.7 3.625,-1.5 0.495,-0.5 1.327,-1.6 1.327,-1.9 0,0 -1.48,-0.1 -3.284,-0.1 l -3.291,0 0,-3.3 0,-3.3 7.659,0 7.657,0 0.105,1 c 0.19,1.8 -0.02,4.9 -0.437,6.5 -1.429,5.6 -5.711,9.5 -11.402,10.4 -1.13,0.2 -4.22,0.3 -4.895,0.2 z m 57.99,0 c -0.122,0 -0.713,-0.2 -1.314,-0.3 -0.604,-0.1 -1.655,-0.4 -2.337,-0.5 -4.769,-1.7 -8.08,-5.3 -9.463,-10.3 -0.377,-1.3 -0.397,-1.5 -0.39,-4.6 0.03,-3.1 0.03,-3.2 0.412,-4.5 1.355,-4.43 3.771,-7.39 7.612,-9.31 1.877,-0.91 3.547,-1.46 5.84,-1.64 8.417,-0.82 15.417,3.65 17.317,11.05 0.69,2.8 0.66,6.7 -0.1,9.3 -1.62,5.7 -6.09,9.6 -12.029,10.6 -1.193,0.2 -4.811,0.3 -5.56,0.2 z m 4.453,-8.8 c 2.924,-0.9 4.674,-3.5 4.654,-6.9 0,-2.6 -1.19,-4.7 -3.235,-6 -2.108,-1.43 -5.086,-1.43 -7.172,0 -2.052,1.3 -3.23,3.5 -3.24,6.1 -0.03,3.7 2.271,6.5 5.855,7.2 0.672,0.2 2.273,0 3.138,-0.4 z m -43.308,-6.8 0,-15.09 11.908,0 11.904,0 -0.04,3.92 -0.04,3.94 -7.487,0 -7.486,0.1 0,1.43 0,1.6 6.975,0.1 6.976,0 0,3.9 0,3.8 -6.976,0.1 -6.975,0 0,1.7 0,1.8 7.522,0 7.524,0 0,3.9 0,3.8 -11.905,0 -11.905,0 0,-15 z m 59.452,0 0,-15.09 4.31,0 4.31,0 0,11.09 0,11 7.15,0 7.16,0 0,4 0,4 -11.47,0 -11.46,0 0,-15 z m 28.63,9.6 0,-5.6 -5.55,-9.1 c -3.2,-5.34 -5.56,-9.45 -5.56,-9.63 l 0,-0.36 4.95,0 4.94,0 2.77,5.2 c 1.51,2.86 2.79,5.19 2.83,5.19 0.1,0 1.31,-2.33 2.82,-5.19 l 2.76,-5.2 17.51,0 17.51,0 0,4.01 0,4.05 -4.23,0 -4.24,0 0,11.03 0,11 -4.31,0 -4.3,0 0,-11 0,-11.03 -4.24,0 -4.24,0 0,-3.51 0,-3.46 -5.29,9 -5.3,8.9 0,5.6 0,5.5 -4.38,0 -4.38,0 0,-5.4 z m 46.59,-9.6 0,-15.09 4.38,0 4.38,0 0,15.09 0,15 -4.38,0 -4.38,0 0,-15 z m 10.24,14.7 c 0,-0.1 2.06,-3.6 4.58,-7.5 l 4.55,-7.2 -4.53,-7.13 c -2.48,-3.95 -4.55,-7.33 -4.58,-7.6 l -0.1,-0.36 4.92,0 4.9,0.1 2.36,3.92 c 1.3,2.15 2.4,4.05 2.47,3.95 0.1,0 1.14,-1.8 2.42,-4.04 l 2.31,-3.92 4.85,0 4.86,0 0,0.36 c 0,0.1 -2.05,3.46 -4.54,7.4 -2.5,4.02 -4.52,7.32 -4.47,7.42 0,0.1 2.07,3.3 4.54,7.3 2.45,3.9 4.47,7.2 4.47,7.4 0,0.2 -0.1,0.2 -4.92,0.2 l -4.92,-0.1 -2.34,-3.9 c -1.3,-2.2 -2.38,-3.9 -2.43,-3.9 -0.1,0 -1.14,1.8 -2.4,4 l -2.33,3.9 -4.87,0 -4.85,0 0,-0.2 z" id="path5456" inkscape:connector-curvature="0" />
    <path style="fill:#000000" d="" id="path5454" inkscape:connector-curvature="0" />
  </g>
</svg>
