<?xml version="1.0" encoding="UTF-8" standalone="no"?>
<!-- Generator: Adobe Illustrator 19.1.0, SVG Export Plug-In . SVG Version: 6.00 Build 0)  -->

<svg
   xmlns:dc="http://purl.org/dc/elements/1.1/"
   xmlns:cc="http://creativecommons.org/ns#"
   xmlns:rdf="http://www.w3.org/1999/02/22-rdf-syntax-ns#"
   xmlns:svg="http://www.w3.org/2000/svg"
   xmlns="http://www.w3.org/2000/svg"
   xmlns:sodipodi="http://sodipodi.sourceforge.net/DTD/sodipodi-0.dtd"
   xmlns:inkscape="http://www.inkscape.org/namespaces/inkscape"
   version="1.1"
   id="Layer_1"
   x="0px"
   y="0px"
   viewBox="0 0 250 91"
   enable-background="new 0 0 181.3 182"
   xml:space="preserve"
   sodipodi:docname="hambleton.svg"
   width="250"
   height="91"
   inkscape:version="0.92.2 (5c3e80d, 2017-08-06)"><metadata
     id="metadata31"><rdf:RDF><cc:Work
         rdf:about=""><dc:format>image/svg+xml</dc:format><dc:type
           rdf:resource="http://purl.org/dc/dcmitype/StillImage" /><dc:title></dc:title></cc:Work></rdf:RDF></metadata><defs
     id="defs29"><clipPath
       clipPathUnits="userSpaceOnUse"
       id="clipPath6084"><path
         d="M 0,0 H 595.276 V 841.89 H 0 Z"
         id="path6082"
         inkscape:connector-curvature="0" /></clipPath></defs><sodipodi:namedview
     pagecolor="#ffffff"
     bordercolor="#666666"
     borderopacity="1"
     objecttolerance="10"
     gridtolerance="10"
     guidetolerance="10"
     inkscape:pageopacity="0"
     inkscape:pageshadow="2"
     inkscape:window-width="1920"
     inkscape:window-height="1046"
     id="namedview27"
     showgrid="false"
     fit-margin-top="0"
     fit-margin-left="0"
     fit-margin-right="0"
     fit-margin-bottom="0"
     inkscape:zoom="2.8284271"
     inkscape:cx="133.74191"
     inkscape:cy="1.494197"
     inkscape:window-x="-11"
     inkscape:window-y="-11"
     inkscape:window-maximized="1"
     inkscape:current-layer="Layer_1" /><rect
     style="opacity:0.00100002;fill:#ffffff;fill-opacity:1;stroke:none;stroke-width:2.5;stroke-linecap:round;stroke-linejoin:round;stroke-miterlimit:4;stroke-dasharray:none;stroke-dashoffset:0;stroke-opacity:1"
     id="rect4175"
     width="250"
     height="91"
     x="0"
     y="-4.0454324e-014" /><style
     id="style960"
     type="text/css">
	.st0{fill:#FFFFFF;}
</style><g
     id="g945"
     transform="matrix(0.66666667,0,0,0.66666667,25,15.533333)"><path
       id="path895"
       d="M 0,0 V 89.9 H 300 V 0 Z M 294.4,84.2 H 5.8 V 57.4 h 288.6 z m 0,-32.5 H 5.8 V 5.8 h 288.6 z"
       inkscape:connector-curvature="0"
       style="fill:#ffffff" /><polygon
       id="polygon897"
       points="37.6,27.6 25.8,27.6 25.8,20 18.9,20 18.9,39.1 25.8,39.1 25.8,31.5 37.6,31.5 37.6,39.1 44.5,39.1 44.5,20 37.6,20 "
       style="fill:#ffffff" /><path
       id="path899"
       d="m 56.2,35.3 h 13.9 l 2.2,3.8 h 7.8 L 67.7,20 H 59.4 L 46.8,39.1 h 7.1 z m 7.1,-11.6 4.7,8.1 h -9.6 z"
       inkscape:connector-curvature="0"
       style="fill:#ffffff" /><polygon
       id="polygon901"
       points="111.3,39.1 117.8,39.1 117.8,20 107.5,20 100,34.2 93,20 82.3,20 82.3,39.1 88.2,39.1 88.2,23.6 96.2,39.1 103.3,39.1 111.2,23.6 111.3,23.6 "
       style="fill:#ffffff" /><path
       id="path903"
       d="m 146.8,33.8 c 0,-2.4 -2.4,-4.3 -6.1,-4.5 v -0.1 c 3.1,-0.6 5.1,-2.3 5.1,-4.5 0,-2.4 -2.5,-4.7 -8.9,-4.7 h -14 V 39.1 H 137 c 7.5,0 9.8,-2.7 9.8,-5.3 z M 129.6,23.6 h 4.9 c 2.7,0 4.2,0.5 4.2,2.1 0,1.5 -1.8,2.1 -4.7,2.1 h -4.3 v -4.2 z m 0,12 v -4.4 h 6.5 c 1.7,0 3.5,0.6 3.5,2.2 0,1.7 -1.7,2.2 -3.9,2.2 z"
       inkscape:connector-curvature="0"
       style="fill:#ffffff" /><polygon
       id="polygon905"
       points="171.3,35.2 157.8,35.2 157.8,20 150.9,20 150.9,39.1 171.3,39.1 "
       style="fill:#ffffff" /><polygon
       id="polygon907"
       points="181,23.9 194.6,23.9 194.6,20 174.1,20 174.1,39.1 194.9,39.1 194.9,35.2 181,35.2 181,31.4 193.8,31.4 193.8,27.5 181,27.5 "
       style="fill:#ffffff" /><polygon
       id="polygon909"
       points="197.2,23.9 206.4,23.9 206.4,39.1 213.3,39.1 213.3,23.9 222.5,23.9 222.5,20 197.2,20 "
       style="fill:#ffffff" /><path
       id="path911"
       d="m 236.7,39.6 c 10,0 14.2,-4.3 14.2,-10 0,-5.8 -4.2,-10 -14.2,-10 -10,0 -14.2,4.3 -14.2,10 0.1,5.7 4.3,10 14.2,10 z m 0,-16.2 c 5.3,0 7,2.8 7,6.1 0,3.4 -1.8,6.1 -7,6.1 -5.3,0 -7,-2.8 -7,-6.1 0,-3.3 1.8,-6.1 7,-6.1 z"
       inkscape:connector-curvature="0"
       style="fill:#ffffff" /><polygon
       id="polygon913"
       points="274.2,33.8 274.2,33.8 263.3,20 254.2,20 254.2,39.1 260.3,39.1 260.3,25.4 260.4,25.4 271.2,39.1 280.4,39.1 280.4,20 274.2,20 "
       style="fill:#ffffff" /><path
       id="path915"
       d="m 30.1,76.7 c 0.8,-1 1.2,-2.9 1.2,-6.2 0,-0.5 -0.1,-3.5 -0.8,-4.8 -1,-1.6 -2.7,-2.3 -5.1,-2.3 h -5.9 v 15.3 h 4.4 c 3.3,0 5.2,-0.7 6.2,-2 z M 21.9,65.1 h 3.2 c 2.5,0 3.7,1.1 3.7,4.2 v 3.1 c 0,3.6 -1.2,4.6 -4.6,4.6 h -2.3 z"
       inkscape:connector-curvature="0"
       style="fill:#ffffff" /><rect
       id="rect917"
       height="15.3"
       width="2.4000001"
       y="63.400002"
       x="39.700001"
       style="fill:#ffffff" /><path
       id="path919"
       d="m 55.6,79 c 3.1,0 5.9,-1 5.9,-4.3 0,-4.8 -8.6,-4.4 -8.6,-7.7 0,-1.6 1.5,-2.2 2.9,-2.2 2.3,0 3,1.1 2.9,2.8 h 2.5 c 0.2,-3.1 -1.8,-4.5 -5.3,-4.5 -3.2,0 -5.6,1.4 -5.6,4.1 0,4.6 8.6,4.2 8.6,7.6 0,1.8 -1.5,2.5 -3.4,2.5 -1.6,0 -3.2,-0.7 -3.2,-2.7 V 74.2 H 50 c 0,1.4 0,4.8 5.6,4.8 z"
       inkscape:connector-curvature="0"
       style="fill:#ffffff" /><polygon
       id="polygon921"
       points="67.3,65.1 72.3,65.1 72.3,78.7 74.8,78.7 74.8,65.1 79.8,65.1 79.8,63.4 67.3,63.4 "
       style="fill:#ffffff" /><path
       id="path923"
       d="m 88.5,71.6 h 2.9 c 0.8,0 2.7,0.1 2.9,1.9 0.2,2 0.1,4 0.7,5.1 h 2.5 c -0.4,-1 -0.6,-3.3 -0.7,-4 -0.1,-3.1 -0.9,-3.7 -3.1,-3.9 v 0 c 2.2,-0.3 3.5,-1.7 3.5,-3.5 0,-1.9 -1.2,-3.8 -4.6,-3.8 H 86 v 15.3 h 2.4 v -7.1 z m 0,-6.5 h 3.7 c 1.9,0 2.6,1.2 2.6,2.3 0,1.3 -0.8,2.5 -2.6,2.5 h -3.6 v -4.8 z"
       inkscape:connector-curvature="0"
       style="fill:#ffffff" /><rect
       id="rect925"
       height="15.3"
       width="2.4000001"
       y="63.400002"
       x="105"
       style="fill:#ffffff" /><path
       id="path927"
       d="m 121.7,79 c 1.2,0 5.5,0 5.4,-4.8 h -2.5 c 0,3 -2.3,3.2 -3,3.2 -1.9,0 -3.4,-0.4 -3.4,-4.2 v -4.1 c 0,-2.6 0.5,-3 0.6,-3.2 0.1,-0.2 0.9,-1.2 2.9,-1.2 0.5,0 1.6,0.2 2.1,0.7 0.5,0.5 0.6,1.4 0.6,2.2 h 2.5 c 0.2,-3 -1.2,-4.5 -5,-4.5 -3.8,0 -6.1,1.2 -6.1,5.5 v 4.3 c -0.1,6 3.5,6.1 5.9,6.1 z"
       inkscape:connector-curvature="0"
       style="fill:#ffffff" /><polygon
       id="polygon929"
       points="132.6,65.1 137.7,65.1 137.7,78.7 140.1,78.7 140.1,65.1 145.1,65.1 145.1,63.4 132.6,63.4 "
       style="fill:#ffffff" /><path
       id="path931"
       d="m 167,79 c 1.2,0 5.5,0 5.4,-4.8 h -2.5 c 0,3 -2.3,3.2 -3,3.2 -1.9,0 -3.4,-0.4 -3.4,-4.2 v -4.1 c 0,-2.6 0.5,-3 0.6,-3.2 0.1,-0.2 0.9,-1.2 2.9,-1.2 0.5,0 1.6,0.2 2.1,0.7 0.5,0.5 0.6,1.4 0.6,2.2 h 2.5 c 0.2,-3 -1.2,-4.5 -5,-4.5 -3.8,0 -6.1,1.2 -6.1,5.5 v 4.3 c -0.2,6 3.5,6.1 5.9,6.1 z"
       inkscape:connector-curvature="0"
       style="fill:#ffffff" /><path
       id="path933"
       d="m 185.6,79 c 4,0 6,-1.7 6,-5.9 v -5 c 0,-3 -2,-5 -6,-5 -4,0 -6,1.9 -6,5 v 5 c 0,4.2 2,5.9 6,5.9 z m -3.5,-11 c 0,-3.2 2.7,-3.3 3.5,-3.3 0.8,0 3.5,0.1 3.5,3.3 v 5.2 c 0,3.3 -1.2,4.2 -3.5,4.2 -2.3,0 -3.5,-0.8 -3.5,-4.2 z"
       inkscape:connector-curvature="0"
       style="fill:#ffffff" /><path
       id="path935"
       d="m 205.6,79 c 4,0 6,-1.7 6,-5.9 v -9.7 h -2.4 v 9.8 c 0,3.3 -1.3,4.2 -3.6,4.2 -2.3,0 -3.6,-0.8 -3.6,-4.2 v -9.8 h -2.4 v 9.7 c 0,4.2 2,5.9 6,5.9 z"
       inkscape:connector-curvature="0"
       style="fill:#ffffff" /><polygon
       id="polygon937"
       points="230.7,76.5 230.7,76.5 223.2,63.4 219.8,63.4 219.8,78.7 222,78.7 222,65.4 229.6,78.7 232.9,78.7 232.9,63.4 230.7,63.4 "
       style="fill:#ffffff" /><path
       id="path939"
       d="m 247,79 c 1.2,0 5.5,0 5.4,-4.8 h -2.5 c 0,3 -2.3,3.2 -3,3.2 -1.9,0 -3.4,-0.4 -3.4,-4.2 v -4.1 c 0,-2.6 0.5,-3 0.6,-3.2 0.1,-0.2 0.9,-1.2 2.9,-1.2 0.5,0 1.6,0.2 2.1,0.7 0.5,0.5 0.6,1.4 0.6,2.2 h 2.5 c 0.2,-3 -1.2,-4.5 -5,-4.5 -3.8,0 -6.1,1.2 -6.1,5.5 v 4.3 c -0.2,6 3.5,6.1 5.9,6.1 z"
       inkscape:connector-curvature="0"
       style="fill:#ffffff" /><rect
       id="rect941"
       height="15.3"
       width="2.4000001"
       y="63.400002"
       x="260"
       style="fill:#ffffff" /><polygon
       id="polygon943"
       points="280.3,77 273.3,77 273.3,63.4 270.9,63.4 270.9,78.7 280.3,78.7 "
       style="fill:#ffffff" /></g></svg>