<?xml version="1.0" encoding="UTF-8"?>
<svg enable-background="new 0 0 181.3 182" version="1.1" viewBox="0 0 250 91" xml:space="preserve" xmlns="http://www.w3.org/2000/svg" xmlns:cc="http://creativecommons.org/ns#" xmlns:dc="http://purl.org/dc/elements/1.1/" xmlns:rdf="http://www.w3.org/1999/02/22-rdf-syntax-ns#"><metadata><rdf:RDF><cc:Work rdf:about=""><dc:format>image/svg+xml</dc:format><dc:type rdf:resource="http://purl.org/dc/dcmitype/StillImage"/><dc:title/></cc:Work></rdf:RDF></metadata><style type="text/css">
	.st0{fill:#FFFFFF;}
</style><g transform="matrix(.66667 0 0 .66667 25 15.533)" fill="#fff"><path d="m0 0v89.9h300v-89.9zm294.4 84.2h-288.6v-26.8h288.6zm0-32.5h-288.6v-45.9h288.6z"/><polygon points="37.6 27.6 25.8 27.6 25.8 20 18.9 20 18.9 39.1 25.8 39.1 25.8 31.5 37.6 31.5 37.6 39.1 44.5 39.1 44.5 20 37.6 20"/><path d="m56.2 35.3h13.9l2.2 3.8h7.8l-12.4-19.1h-8.3l-12.6 19.1h7.1zm7.1-11.6 4.7 8.1h-9.6z"/><polygon points="111.3 39.1 117.8 39.1 117.8 20 107.5 20 100 34.2 93 20 82.3 20 82.3 39.1 88.2 39.1 88.2 23.6 96.2 39.1 103.3 39.1 111.2 23.6 111.3 23.6"/><path d="m146.8 33.8c0-2.4-2.4-4.3-6.1-4.5v-0.1c3.1-0.6 5.1-2.3 5.1-4.5 0-2.4-2.5-4.7-8.9-4.7h-14v19.1h14.1c7.5 0 9.8-2.7 9.8-5.3zm-17.2-10.2h4.9c2.7 0 4.2 0.5 4.2 2.1 0 1.5-1.8 2.1-4.7 2.1h-4.3v-4.2zm0 12v-4.4h6.5c1.7 0 3.5 0.6 3.5 2.2 0 1.7-1.7 2.2-3.9 2.2z"/><polygon points="171.3 35.2 157.8 35.2 157.8 20 150.9 20 150.9 39.1 171.3 39.1"/><polygon points="181 23.9 194.6 23.9 194.6 20 174.1 20 174.1 39.1 194.9 39.1 194.9 35.2 181 35.2 181 31.4 193.8 31.4 193.8 27.5 181 27.5"/><polygon points="197.2 23.9 206.4 23.9 206.4 39.1 213.3 39.1 213.3 23.9 222.5 23.9 222.5 20 197.2 20"/><path d="m236.7 39.6c10 0 14.2-4.3 14.2-10 0-5.8-4.2-10-14.2-10s-14.2 4.3-14.2 10c0.1 5.7 4.3 10 14.2 10zm0-16.2c5.3 0 7 2.8 7 6.1 0 3.4-1.8 6.1-7 6.1-5.3 0-7-2.8-7-6.1s1.8-6.1 7-6.1z"/><polygon points="274.2 33.8 274.2 33.8 263.3 20 254.2 20 254.2 39.1 260.3 39.1 260.3 25.4 260.4 25.4 271.2 39.1 280.4 39.1 280.4 20 274.2 20"/><path d="m30.1 76.7c0.8-1 1.2-2.9 1.2-6.2 0-0.5-0.1-3.5-0.8-4.8-1-1.6-2.7-2.3-5.1-2.3h-5.9v15.3h4.4c3.3 0 5.2-0.7 6.2-2zm-8.2-11.6h3.2c2.5 0 3.7 1.1 3.7 4.2v3.1c0 3.6-1.2 4.6-4.6 4.6h-2.3z"/><rect x="39.7" y="63.4" width="2.4" height="15.3"/><path d="m55.6 79c3.1 0 5.9-1 5.9-4.3 0-4.8-8.6-4.4-8.6-7.7 0-1.6 1.5-2.2 2.9-2.2 2.3 0 3 1.1 2.9 2.8h2.5c0.2-3.1-1.8-4.5-5.3-4.5-3.2 0-5.6 1.4-5.6 4.1 0 4.6 8.6 4.2 8.6 7.6 0 1.8-1.5 2.5-3.4 2.5-1.6 0-3.2-0.7-3.2-2.7v-0.4h-2.3c0 1.4 0 4.8 5.6 4.8z"/><polygon points="67.3 65.1 72.3 65.1 72.3 78.7 74.8 78.7 74.8 65.1 79.8 65.1 79.8 63.4 67.3 63.4"/><path d="m88.5 71.6h2.9c0.8 0 2.7 0.1 2.9 1.9 0.2 2 0.1 4 0.7 5.1h2.5c-0.4-1-0.6-3.3-0.7-4-0.1-3.1-0.9-3.7-3.1-3.9 2.2-0.3 3.5-1.7 3.5-3.5 0-1.9-1.2-3.8-4.6-3.8h-6.6v15.3h2.4v-7.1zm0-6.5h3.7c1.9 0 2.6 1.2 2.6 2.3 0 1.3-0.8 2.5-2.6 2.5h-3.6v-4.8z"/><rect x="105" y="63.4" width="2.4" height="15.3"/><path d="m121.7 79c1.2 0 5.5 0 5.4-4.8h-2.5c0 3-2.3 3.2-3 3.2-1.9 0-3.4-0.4-3.4-4.2v-4.1c0-2.6 0.5-3 0.6-3.2s0.9-1.2 2.9-1.2c0.5 0 1.6 0.2 2.1 0.7s0.6 1.4 0.6 2.2h2.5c0.2-3-1.2-4.5-5-4.5s-6.1 1.2-6.1 5.5v4.3c-0.1 6 3.5 6.1 5.9 6.1z"/><polygon points="132.6 65.1 137.7 65.1 137.7 78.7 140.1 78.7 140.1 65.1 145.1 65.1 145.1 63.4 132.6 63.4"/><path d="m167 79c1.2 0 5.5 0 5.4-4.8h-2.5c0 3-2.3 3.2-3 3.2-1.9 0-3.4-0.4-3.4-4.2v-4.1c0-2.6 0.5-3 0.6-3.2s0.9-1.2 2.9-1.2c0.5 0 1.6 0.2 2.1 0.7s0.6 1.4 0.6 2.2h2.5c0.2-3-1.2-4.5-5-4.5s-6.1 1.2-6.1 5.5v4.3c-0.2 6 3.5 6.1 5.9 6.1z"/><path d="m185.6 79c4 0 6-1.7 6-5.9v-5c0-3-2-5-6-5s-6 1.9-6 5v5c0 4.2 2 5.9 6 5.9zm-3.5-11c0-3.2 2.7-3.3 3.5-3.3s3.5 0.1 3.5 3.3v5.2c0 3.3-1.2 4.2-3.5 4.2s-3.5-0.8-3.5-4.2z"/><path d="m205.6 79c4 0 6-1.7 6-5.9v-9.7h-2.4v9.8c0 3.3-1.3 4.2-3.6 4.2s-3.6-0.8-3.6-4.2v-9.8h-2.4v9.7c0 4.2 2 5.9 6 5.9z"/><polygon points="230.7 76.5 230.7 76.5 223.2 63.4 219.8 63.4 219.8 78.7 222 78.7 222 65.4 229.6 78.7 232.9 78.7 232.9 63.4 230.7 63.4"/><path d="m247 79c1.2 0 5.5 0 5.4-4.8h-2.5c0 3-2.3 3.2-3 3.2-1.9 0-3.4-0.4-3.4-4.2v-4.1c0-2.6 0.5-3 0.6-3.2s0.9-1.2 2.9-1.2c0.5 0 1.6 0.2 2.1 0.7s0.6 1.4 0.6 2.2h2.5c0.2-3-1.2-4.5-5-4.5s-6.1 1.2-6.1 5.5v4.3c-0.2 6 3.5 6.1 5.9 6.1z"/><rect x="260" y="63.4" width="2.4" height="15.3"/><polygon points="280.3 77 273.3 77 273.3 63.4 270.9 63.4 270.9 78.7 280.3 78.7"/></g></svg>
