<?xml version="1.0" encoding="UTF-8" standalone="no"?>
<!-- Created with Inkscape (http://www.inkscape.org/) -->

<svg
   xmlns:dc="http://purl.org/dc/elements/1.1/"
   xmlns:cc="http://creativecommons.org/ns#"
   xmlns:rdf="http://www.w3.org/1999/02/22-rdf-syntax-ns#"
   xmlns:svg="http://www.w3.org/2000/svg"
   xmlns="http://www.w3.org/2000/svg"
   xmlns:sodipodi="http://sodipodi.sourceforge.net/DTD/sodipodi-0.dtd"
   xmlns:inkscape="http://www.inkscape.org/namespaces/inkscape"
   width="250"
   height="91"
   viewBox="0 0 250 91"
   id="svg2"
   version="1.1"
   inkscape:version="0.92.2 (5c3e80d, 2017-08-06)"
   sodipodi:docname="harrogate.svg">
  <defs
     id="defs4" />
  <sodipodi:namedview
     id="base"
     pagecolor="#ffffff"
     bordercolor="#666666"
     borderopacity="1.0"
     inkscape:pageopacity="0.0"
     inkscape:pageshadow="2"
     inkscape:zoom="2.8"
     inkscape:cx="123.85"
     inkscape:cy="28.341"
     inkscape:document-units="px"
     inkscape:current-layer="layer1"
     showgrid="true"
     inkscape:window-width="1920"
     inkscape:window-height="1046"
     inkscape:window-x="-11"
     inkscape:window-y="-11"
     inkscape:window-maximized="1"
     units="px">
    <inkscape:grid
       type="xygrid"
       id="grid5735" />
  </sodipodi:namedview>
  <metadata
     id="metadata7">
    <rdf:RDF>
      <cc:Work
         rdf:about="">
        <dc:format>image/svg+xml</dc:format>
        <dc:type
           rdf:resource="http://purl.org/dc/dcmitype/StillImage" />
        <dc:title></dc:title>
      </cc:Work>
    </rdf:RDF>
  </metadata>
  <g
     inkscape:label="Layer 1"
     inkscape:groupmode="layer"
     id="layer1"
     transform="translate(0,-961.4)">
    <rect
       style="opacity:0.001;fill:#ffffff;fill-opacity:1;stroke:none;stroke-width:2.5;stroke-linecap:round;stroke-linejoin:round;stroke-miterlimit:4;stroke-dasharray:none;stroke-dashoffset:0;stroke-opacity:1"
       id="rect4175"
       width="250"
       height="91"
       x="0"
       y="961.4" />
    <path
       style="fill:#ffffff;fill-opacity:1"
       d=""
       id="path4239"
       inkscape:connector-curvature="0" />
    <g
       id="g855"
       transform="matrix(0.52186619,0,0,0.52186619,20.261456,971.35827)"
       style="fill:#ffffff">
      <path
         id="path841"
         d="m 9.78,105.78 h 10.33 q 4.59,0 6.87,1.64 a 5.65,5.65 0 0 1 2.28,4.91 5.52,5.52 0 0 1 -1.09,3.44 6,6 0 0 1 -3.17,2.07 v 0.09 a 7,7 0 0 1 4.47,2.16 6.65,6.65 0 0 1 1.57,4.6 6.41,6.41 0 0 1 -2.63,5.68 q -2.63,1.81 -8.27,1.81 H 9.78 Z m 4.1,3.44 v 7.38 H 20 a 6.84,6.84 0 0 0 4,-0.88 3.26,3.26 0 0 0 1.2,-2.83 3.08,3.08 0 0 0 -1.38,-2.77 7.87,7.87 0 0 0 -4.24,-0.9 h -5.69 z m 0,10.7 v 8.77 h 7 a 7.31,7.31 0 0 0 4.38,-1.07 3.84,3.84 0 0 0 1.44,-3.28 3.89,3.89 0 0 0 -1.4,-3.34 7.22,7.22 0 0 0 -4.37,-1.09 h -7 z M 48.2,105 a 14.29,14.29 0 0 1 5,0.84 12.06,12.06 0 0 1 4,2.45 13,13 0 0 1 3.26,4.71 16.73,16.73 0 0 1 0.06,11.68 13.22,13.22 0 0 1 -2.9,4.56 12.12,12.12 0 0 1 -4.17,2.76 14.14,14.14 0 0 1 -5.24,0.93 A 13.83,13.83 0 0 1 43,132 a 12.3,12.3 0 0 1 -4.27,-2.85 13.13,13.13 0 0 1 -2.84,-4.49 15.87,15.87 0 0 1 -0.94,-5.61 15.71,15.71 0 0 1 1,-5.65 13.23,13.23 0 0 1 2.93,-4.53 12.2,12.2 0 0 1 4.12,-2.87 13.75,13.75 0 0 1 5.2,-1 z m 0,3.47 a 7.59,7.59 0 0 0 -6.2,2.97 11.75,11.75 0 0 0 -2.39,7.67 11.21,11.21 0 0 0 2.4,7.46 7.72,7.72 0 0 0 6.2,2.86 7.63,7.63 0 0 0 6.17,-2.88 13.19,13.19 0 0 0 0,-15.13 7.68,7.68 0 0 0 -6.18,-2.91 z m 18.15,-2.73 h 10.33 q 4.94,0 7.47,1.77 a 6,6 0 0 1 2.53,5.22 6.12,6.12 0 0 1 -1.35,4.07 5.44,5.44 0 0 1 -3.64,1.9 v 0.13 a 4.93,4.93 0 0 1 3.47,1.37 5.8,5.8 0 0 1 1,3.87 v 1.43 a 21.6,21.6 0 0 0 0.32,4.54 4.28,4.28 0 0 0 1.12,2.1 h -5 A 5,5 0 0 1 81.98,130.5 13.15,13.15 0 0 1 81.79,128 c 0,0 0,-0.27 0,-0.77 0,-0.5 0,-1 0,-1.49 q 0,-3.06 -0.84,-4 -0.84,-0.94 -3.26,-0.94 h -7.12 v 11.33 h -4.22 v -26.35 0 z m 4.21,3.47 v 8.12 H 77 a 6.72,6.72 0 0 0 4.1,-1 3.7,3.7 0 0 0 1.38,-3.15 3.36,3.36 0 0 0 -1.48,-2.9 6.84,6.84 0 0 0 -4.05,-1 H 70.57 Z M 104,105 a 14.29,14.29 0 0 1 5,0.84 12.06,12.06 0 0 1 4,2.45 13,13 0 0 1 3.25,4.67 16.73,16.73 0 0 1 0.06,11.68 13.22,13.22 0 0 1 -2.9,4.56 12.12,12.12 0 0 1 -4.18,2.77 14.14,14.14 0 0 1 -5.23,1.03 13.83,13.83 0 0 1 -5.24,-1 12.3,12.3 0 0 1 -4.27,-2.85 13.13,13.13 0 0 1 -2.84,-4.49 15.87,15.87 0 0 1 -0.94,-5.61 15.71,15.71 0 0 1 1,-5.65 13.23,13.23 0 0 1 2.93,-4.53 12.2,12.2 0 0 1 4.18,-2.87 13.75,13.75 0 0 1 5.18,-1 z m 0,3.47 a 7.59,7.59 0 0 0 -6.17,2.93 11.75,11.75 0 0 0 -2.39,7.67 11.21,11.21 0 0 0 2.4,7.46 7.72,7.72 0 0 0 6.2,2.86 7.63,7.63 0 0 0 6.17,-2.88 13.19,13.19 0 0 0 0,-15.13 7.68,7.68 0 0 0 -6.21,-2.87 z m 18.15,-2.73 h 4.3 v 15.33 q 0,4.59 1.59,6.44 1.59,1.85 5.41,1.84 3.76,0 5.4,-1.8 1.64,-1.8 1.64,-6.08 v -15.69 h 4.28 v 16.47 q 0,5.5 -2.76,8.1 -2.76,2.6 -8.56,2.6 -5.8,0 -8.55,-2.6 -2.75,-2.6 -2.75,-8.11 v -16.46 z m 52.36,8 h -4.41 a 7.07,7.07 0 0 0 -2.52,-3.94 7.18,7.18 0 0 0 -4.48,-1.39 7.87,7.87 0 0 0 -6.35,2.86 13.27,13.27 0 0 0 0,15.28 7.78,7.78 0 0 0 6.27,2.94 7,7 0 0 0 7.29,-7.09 h -4.66 v -3 h 8.9 v 12.69 h -3.15 l -0.27,-4.07 a 8.32,8.32 0 0 1 -3.49,3.65 11.36,11.36 0 0 1 -5.5,1.23 12.77,12.77 0 0 1 -4.29,-0.71 10.53,10.53 0 0 1 -3.53,-2.07 13.58,13.58 0 0 1 -3.53,-4.92 16.64,16.64 0 0 1 -0.59,-10.91 13.13,13.13 0 0 1 2,-3.93 12.59,12.59 0 0 1 4.71,-4.06 14.3,14.3 0 0 1 6.35,-1.35 11.67,11.67 0 0 1 7.38,2.39 10.45,10.45 0 0 1 3.86,6.47 z m 5.62,-8 h 4.27 v 10.7 h 12.47 v -10.7 h 4.25 v 26.4 h -4.25 V 120 h -12.48 v 12.18 h -4.27 v -26.4 z m 61.76,8 h -4.7 a 6.71,6.71 0 0 0 -2.41,-3.8 7,7 0 0 0 -4.37,-1.36 8.1,8.1 0 0 0 -6.45,2.88 11.15,11.15 0 0 0 -2.48,7.53 10.86,10.86 0 0 0 2.48,7.42 8.17,8.17 0 0 0 6.45,2.83 7.23,7.23 0 0 0 4.77,-1.56 6.15,6.15 0 0 0 2.19,-4.21 h 4.74 a 10.47,10.47 0 0 1 -3.91,6.9 13,13 0 0 1 -8.2,2.49 12.65,12.65 0 0 1 -9.64,-3.86 q -3.65,-3.86 -3.65,-10.21 a 15.48,15.48 0 0 1 1,-5.46 13.51,13.51 0 0 1 2.75,-4.5 11.29,11.29 0 0 1 4.25,-2.86 15,15 0 0 1 5.53,-1 12.5,12.5 0 0 1 7.7,2.26 10.79,10.79 0 0 1 3.94,6.54 z m 16.8,-8.73 a 14.28,14.28 0 0 1 5,0.84 12.06,12.06 0 0 1 4,2.45 13,13 0 0 1 3.25,4.67 16.72,16.72 0 0 1 0.06,11.68 13.21,13.21 0 0 1 -2.9,4.56 12.1,12.1 0 0 1 -4.18,2.77 14.13,14.13 0 0 1 -5.24,0.93 13.83,13.83 0 0 1 -5.24,-1 12.31,12.31 0 0 1 -4.27,-2.85 13.13,13.13 0 0 1 -2.84,-4.49 15.87,15.87 0 0 1 -0.94,-5.61 15.71,15.71 0 0 1 1,-5.65 13.23,13.23 0 0 1 2.93,-4.53 12.22,12.22 0 0 1 4.18,-2.78 13.75,13.75 0 0 1 5.17,-1 z m 0,3.47 a 7.59,7.59 0 0 0 -6.16,2.93 11.75,11.75 0 0 0 -2.39,7.67 11.21,11.21 0 0 0 2.4,7.46 7.72,7.72 0 0 0 6.2,2.86 7.63,7.63 0 0 0 6.17,-2.88 13.18,13.18 0 0 0 0,-15.13 7.68,7.68 0 0 0 -6.24,-2.88 z m 18.15,-2.73 h 4.3 v 15.33 q 0,4.59 1.59,6.44 1.59,1.85 5.4,1.84 3.76,0 5.4,-1.8 1.64,-1.8 1.64,-6.08 v -15.7 h 4.28 v 16.47 q 0,5.5 -2.76,8.1 -2.76,2.6 -8.56,2.6 -5.8,0 -8.55,-2.6 -2.75,-2.6 -2.75,-8.11 v -16.46 0 z m 28.76,0 h 5.4 l 13.4,20.88 0.11,-0.11 v -20.74 h 4.23 v 26.4 h -5.4 L 309.89,111 h -0.2 l 0.11,21.13 h -4.21 v -26.4 0 z m 53.1,8 H 354 a 6.71,6.71 0 0 0 -2.41,-3.8 7,7 0 0 0 -4.36,-1.36 8.1,8.1 0 0 0 -6.45,2.88 11.15,11.15 0 0 0 -2.48,7.53 10.86,10.86 0 0 0 2.48,7.42 8.17,8.17 0 0 0 6.45,2.83 7.23,7.23 0 0 0 4.77,-1.56 6.15,6.15 0 0 0 2.19,-4.21 h 4.74 a 10.47,10.47 0 0 1 -3.91,6.9 13,13 0 0 1 -8.2,2.49 12.65,12.65 0 0 1 -9.64,-3.86 q -3.65,-3.86 -3.65,-10.21 a 15.48,15.48 0 0 1 1,-5.46 13.52,13.52 0 0 1 2.75,-4.5 11.29,11.29 0 0 1 4.25,-2.86 15,15 0 0 1 5.53,-1 12.5,12.5 0 0 1 7.7,2.26 10.8,10.8 0 0 1 3.92,6.53 z m 5,-8 h 4.41 v 26.4 h -4.41 z m 10.85,0 h 4.41 v 22.87 h 13.18 v 3.52 H 374.52 V 105.78 Z M 9.08,3.21 h 9.65 V 27.42 H 46.95 V 3.21 h 9.61 V 62.92 H 46.95 V 35.35 H 18.73 V 62.92 H 9.08 Z m 94.3,35.33 v 14.07 a 33.61,33.61 0 0 0 0.43,5.62 21.73,21.73 0 0 0 1.33,4.68 H 95.86 A 24.19,24.19 0 0 1 95.29,60.07 Q 95.08,58.62 95,57 a 20.62,20.62 0 0 1 -6.58,5.71 16.92,16.92 0 0 1 -7.89,1.82 q -6.34,0 -10.12,-3.48 a 12,12 0 0 1 -3.78,-9.24 12.4,12.4 0 0 1 0.78,-4.48 10.17,10.17 0 0 1 2.33,-3.58 q 3.23,-3.19 14.8,-4.37 l 2.17,-0.25 Q 91,38.68 92.8,37.43 A 4.17,4.17 0 0 0 94.6,33.77 4.56,4.56 0 0 0 92.39,29.82 10.44,10.44 0 0 0 86.46,28.33 11.27,11.27 0 0 0 80,30 6.67,6.67 0 0 0 77.06,34.64 h -9 a 13.73,13.73 0 0 1 5.79,-9.18 q 4.56,-3 12.37,-3 9.24,0 13.21,3.72 3.97,3.72 3.95,12.36 z m -8.63,2.25 Q 92.71,43 86,44.31 l -2.17,0.45 q -4.58,1 -6.4,2.58 a 5.61,5.61 0 0 0 -1.82,4.46 6.16,6.16 0 0 0 2,4.85 7.94,7.94 0 0 0 5.48,1.82 q 5.77,0 8.75,-3.58 2.98,-3.58 3,-10.57 0,-1 -0.16,-3.27 v -0.26 z m 47.32,-18.4 v 8.71 h -0.29 q -2,-0.12 -2.86,-0.12 -7,0 -10.45,3.76 -3.45,3.76 -3.47,11.33 v 16.85 h -8.79 V 24 H 125 v 7.77 a 18.46,18.46 0 0 1 6.65,-7.09 18.63,18.63 0 0 1 9.51,-2.27 h 0.9 z m 33,0 v 8.71 h -0.29 q -2,-0.12 -2.86,-0.12 -7,0 -10.45,3.76 -3.45,3.76 -3.47,11.33 v 16.85 h -8.79 V 24 H 158 v 7.77 a 18.46,18.46 0 0 1 6.65,-7.09 18.63,18.63 0 0 1 9.51,-2.27 h 0.9 z m 23.07,0 q 9.41,0 15.07,5.77 5.66,5.77 5.66,15.33 0,9.45 -5.68,15.23 -5.68,5.78 -15,5.79 -9.45,0 -15.11,-5.75 -5.66,-5.75 -5.66,-15.27 0,-9.53 5.68,-15.31 5.68,-5.78 15.04,-5.79 z m 0,6.63 a 9.75,9.75 0 0 0 -8.16,3.9 q -3,3.91 -3,10.65 0,6.74 3,10.49 a 10.66,10.66 0 0 0 16.36,0 q 3,-3.82 3,-10.49 0,-6.67 -3,-10.67 a 9.82,9.82 0 0 0 -8.2,-3.9 z m 40,40 a 6.17,6.17 0 0 0 2.54,4.44 10.2,10.2 0 0 0 5.93,1.49 q 4.5,0 6.77,-2.64 2.27,-2.64 2.27,-7.75 v -7.2 a 15.14,15.14 0 0 1 -5.6,5.48 16,16 0 0 1 -7.77,1.8 15.33,15.33 0 0 1 -12.39,-5.93 Q 225,52.73 225,43.49 q 0,-9.24 4.89,-15.11 a 15.14,15.14 0 0 1 12.21,-6 15.56,15.56 0 0 1 8.34,2.13 14,14 0 0 1 5.36,6.42 l -0.16,-7 h 8.87 V 63 q 0,9 -4.89,13.6 -4.89,4.6 -14.62,4.55 -7.93,0 -12.31,-3.09 a 12.17,12.17 0 0 1 -5,-9.14 z m 7,-39.63 a 9.26,9.26 0 0 0 -7.69,4 q -3,4 -3,10.39 0,6.39 3,10.28 a 9.37,9.37 0 0 0 7.8,3.94 9.07,9.07 0 0 0 7.63,-4 q 2.92,-3.95 2.92,-10.37 0,-6.42 -2.92,-10.41 a 9.18,9.18 0 0 0 -7.71,-3.88 z m 65.35,9.2 v 14.02 a 33.6,33.6 0 0 0 0.43,5.62 21.68,21.68 0 0 0 1.33,4.68 H 303 a 24.18,24.18 0 0 1 -0.57,-2.84 q -0.21,-1.45 -0.29,-3.09 a 20.6,20.6 0 0 1 -6.58,5.71 16.92,16.92 0 0 1 -7.89,1.82 q -6.34,0 -10.12,-3.48 a 12,12 0 0 1 -3.78,-9.24 12.42,12.42 0 0 1 0.78,-4.48 10.17,10.17 0 0 1 2.33,-3.58 q 3.23,-3.19 14.8,-4.37 l 2.17,-0.25 q 4.29,-0.45 6.09,-1.7 a 4.17,4.17 0 0 0 1.8,-3.66 4.56,4.56 0 0 0 -2.21,-3.95 10.44,10.44 0 0 0 -5.93,-1.49 11.27,11.27 0 0 0 -6.43,1.69 6.67,6.67 0 0 0 -2.94,4.64 h -9 a 13.73,13.73 0 0 1 5.77,-9.2 q 4.56,-3 12.37,-3 9.24,0 13.21,3.72 3.97,3.72 3.94,12.38 z m -8.63,2.25 q -2,2.21 -8.71,3.52 l -2.17,0.45 q -4.58,1 -6.4,2.58 a 5.61,5.61 0 0 0 -1.82,4.46 6.17,6.17 0 0 0 2,4.85 7.94,7.94 0 0 0 5.48,1.82 q 5.77,0 8.75,-3.58 2.98,-3.58 3,-10.57 0,-1 -0.16,-3.27 v -0.31 0 z m 24.46,-29.4 h 8.79 V 24 h 9.57 v 6.5 h -9.57 v 18.43 q 0,5.44 0.94,6.91 a 3.76,3.76 0 0 0 3.44,1.47 8.56,8.56 0 0 0 2.06,-0.31 25.57,25.57 0 0 0 2.88,-1 v 7 a 36.64,36.64 0 0 1 -4.43,1.12 22.09,22.09 0 0 1 -3.9,0.39 q -5.52,0 -7.63,-2.62 -2.11,-2.62 -2.11,-10.71 V 30.49 h -5.52 V 24 h 5.52 v -12.61 0 z m 66,34 h -31.7 q 0.33,6 3.62,9.32 a 11.92,11.92 0 0 0 8.85,3.24 11.71,11.71 0 0 0 6.09,-1.55 10,10 0 0 0 4,-4.37 H 392 a 17.19,17.19 0 0 1 -6.81,9.14 20.39,20.39 0 0 1 -11.63,3.25 q -10.14,0 -16,-5.66 -5.86,-5.66 -5.85,-15.36 0,-9.41 5.7,-15.25 5.7,-5.84 15,-5.85 9.45,0 14.68,5.6 5.23,5.6 5.23,15.83 v 1.59 z m -9.12,-6 a 13,13 0 0 0 -3.52,-8.2 10.68,10.68 0 0 0 -7.81,-2.88 10.5,10.5 0 0 0 -7.52,3 14.23,14.23 0 0 0 -4,8.12 h 22.86 z"
         inkscape:connector-curvature="0"
         style="fill:#ffffff" />
      <path
         id="path843"
         d="M 391.61,92.16 C 370.87,96.48 316.11,92 252.69,86.82 157.76,79.07 50.16,70.27 10.47,86.5 l -0.31,0.13 V 99.7 l 0.68,-0.28 C 52.71,82.19 186,89.94 283.38,95.59 c 55.82,3.24 99.9,5.8 108.5,2.57 l 0.32,-0.12 V 92 Z"
         inkscape:connector-curvature="0"
         style="fill:#ffffff" />
    </g>
  </g>
</svg>
