<?xml version="1.0" encoding="UTF-8"?>
<svg version="1.1" viewBox="0 0 250 91" xmlns="http://www.w3.org/2000/svg" xmlns:cc="http://creativecommons.org/ns#" xmlns:dc="http://purl.org/dc/elements/1.1/" xmlns:rdf="http://www.w3.org/1999/02/22-rdf-syntax-ns#">
<metadata>
<rdf:RDF>
<cc:Work rdf:about="">
<dc:format>image/svg+xml</dc:format>
<dc:type rdf:resource="http://purl.org/dc/dcmitype/StillImage"/>
<dc:title/>
</cc:Work>
</rdf:RDF>
</metadata>
<g transform="translate(0,-961.4)" fill="#fff">
<g transform="matrix(.52187 0 0 .52187 20.261 971.36)">
<path d="m9.78 105.78h10.33q4.59 0 6.87 1.64a5.65 5.65 0 0 1 2.28 4.91 5.52 5.52 0 0 1-1.09 3.44 6 6 0 0 1-3.17 2.07v0.09a7 7 0 0 1 4.47 2.16 6.65 6.65 0 0 1 1.57 4.6 6.41 6.41 0 0 1-2.63 5.68q-2.63 1.81-8.27 1.81h-10.36zm4.1 3.44v7.38h6.12a6.84 6.84 0 0 0 4-0.88 3.26 3.26 0 0 0 1.2-2.83 3.08 3.08 0 0 0-1.38-2.77 7.87 7.87 0 0 0-4.24-0.9h-5.69zm0 10.7v8.77h7a7.31 7.31 0 0 0 4.38-1.07 3.84 3.84 0 0 0 1.44-3.28 3.89 3.89 0 0 0-1.4-3.34 7.22 7.22 0 0 0-4.37-1.09h-7zm34.32-14.92a14.29 14.29 0 0 1 5 0.84 12.06 12.06 0 0 1 4 2.45 13 13 0 0 1 3.26 4.71 16.73 16.73 0 0 1 0.06 11.68 13.22 13.22 0 0 1-2.9 4.56 12.12 12.12 0 0 1-4.17 2.76 14.14 14.14 0 0 1-5.24 0.93 13.83 13.83 0 0 1-5.21-0.93 12.3 12.3 0 0 1-4.27-2.85 13.13 13.13 0 0 1-2.84-4.49 15.87 15.87 0 0 1-0.94-5.61 15.71 15.71 0 0 1 1-5.65 13.23 13.23 0 0 1 2.93-4.53 12.2 12.2 0 0 1 4.12-2.87 13.75 13.75 0 0 1 5.2-1zm0 3.47a7.59 7.59 0 0 0-6.2 2.97 11.75 11.75 0 0 0-2.39 7.67 11.21 11.21 0 0 0 2.4 7.46 7.72 7.72 0 0 0 6.2 2.86 7.63 7.63 0 0 0 6.17-2.88 13.19 13.19 0 0 0 0-15.13 7.68 7.68 0 0 0-6.18-2.91zm18.15-2.73h10.33q4.94 0 7.47 1.77a6 6 0 0 1 2.53 5.22 6.12 6.12 0 0 1-1.35 4.07 5.44 5.44 0 0 1-3.64 1.9v0.13a4.93 4.93 0 0 1 3.47 1.37 5.8 5.8 0 0 1 1 3.87v1.43a21.6 21.6 0 0 0 0.32 4.54 4.28 4.28 0 0 0 1.12 2.1h-5a5 5 0 0 1-0.62-1.64 13.15 13.15 0 0 1-0.19-2.5v-0.77-1.49q0-3.06-0.84-4t-3.26-0.94h-7.12v11.33h-4.22v-26.35zm4.21 3.47v8.12h6.44a6.72 6.72 0 0 0 4.1-1 3.7 3.7 0 0 0 1.38-3.15 3.36 3.36 0 0 0-1.48-2.9 6.84 6.84 0 0 0-4.05-1h-6.38zm33.44-4.21a14.29 14.29 0 0 1 5 0.84 12.06 12.06 0 0 1 4 2.45 13 13 0 0 1 3.25 4.67 16.73 16.73 0 0 1 0.06 11.68 13.22 13.22 0 0 1-2.9 4.56 12.12 12.12 0 0 1-4.18 2.77 14.14 14.14 0 0 1-5.23 1.03 13.83 13.83 0 0 1-5.24-1 12.3 12.3 0 0 1-4.27-2.85 13.13 13.13 0 0 1-2.84-4.49 15.87 15.87 0 0 1-0.94-5.61 15.71 15.71 0 0 1 1-5.65 13.23 13.23 0 0 1 2.93-4.53 12.2 12.2 0 0 1 4.18-2.87 13.75 13.75 0 0 1 5.18-1zm0 3.47a7.59 7.59 0 0 0-6.17 2.93 11.75 11.75 0 0 0-2.39 7.67 11.21 11.21 0 0 0 2.4 7.46 7.72 7.72 0 0 0 6.2 2.86 7.63 7.63 0 0 0 6.17-2.88 13.19 13.19 0 0 0 0-15.13 7.68 7.68 0 0 0-6.21-2.87zm18.15-2.73h4.3v15.33q0 4.59 1.59 6.44t5.41 1.84q3.76 0 5.4-1.8t1.64-6.08v-15.69h4.28v16.47q0 5.5-2.76 8.1t-8.56 2.6-8.55-2.6-2.75-8.11v-16.46zm52.36 8h-4.41a7.07 7.07 0 0 0-2.52-3.94 7.18 7.18 0 0 0-4.48-1.39 7.87 7.87 0 0 0-6.35 2.86 13.27 13.27 0 0 0 0 15.28 7.78 7.78 0 0 0 6.27 2.94 7 7 0 0 0 7.29-7.09h-4.66v-3h8.9v12.69h-3.15l-0.27-4.07a8.32 8.32 0 0 1-3.49 3.65 11.36 11.36 0 0 1-5.5 1.23 12.77 12.77 0 0 1-4.29-0.71 10.53 10.53 0 0 1-3.53-2.07 13.58 13.58 0 0 1-3.53-4.92 16.64 16.64 0 0 1-0.59-10.91 13.13 13.13 0 0 1 2-3.93 12.59 12.59 0 0 1 4.71-4.06 14.3 14.3 0 0 1 6.35-1.35 11.67 11.67 0 0 1 7.38 2.39 10.45 10.45 0 0 1 3.86 6.47zm5.62-8h4.27v10.7h12.47v-10.7h4.25v26.4h-4.25v-12.14h-12.48v12.18h-4.27v-26.4zm61.76 8h-4.7a6.71 6.71 0 0 0-2.41-3.8 7 7 0 0 0-4.37-1.36 8.1 8.1 0 0 0-6.45 2.88 11.15 11.15 0 0 0-2.48 7.53 10.86 10.86 0 0 0 2.48 7.42 8.17 8.17 0 0 0 6.45 2.83 7.23 7.23 0 0 0 4.77-1.56 6.15 6.15 0 0 0 2.19-4.21h4.74a10.47 10.47 0 0 1-3.91 6.9 13 13 0 0 1-8.2 2.49 12.65 12.65 0 0 1-9.64-3.86q-3.65-3.86-3.65-10.21a15.48 15.48 0 0 1 1-5.46 13.51 13.51 0 0 1 2.75-4.5 11.29 11.29 0 0 1 4.25-2.86 15 15 0 0 1 5.53-1 12.5 12.5 0 0 1 7.7 2.26 10.79 10.79 0 0 1 3.94 6.54zm16.8-8.73a14.28 14.28 0 0 1 5 0.84 12.06 12.06 0 0 1 4 2.45 13 13 0 0 1 3.25 4.67 16.72 16.72 0 0 1 0.06 11.68 13.21 13.21 0 0 1-2.9 4.56 12.1 12.1 0 0 1-4.18 2.77 14.13 14.13 0 0 1-5.24 0.93 13.83 13.83 0 0 1-5.24-1 12.31 12.31 0 0 1-4.27-2.85 13.13 13.13 0 0 1-2.84-4.49 15.87 15.87 0 0 1-0.94-5.61 15.71 15.71 0 0 1 1-5.65 13.23 13.23 0 0 1 2.93-4.53 12.22 12.22 0 0 1 4.18-2.78 13.75 13.75 0 0 1 5.17-1zm0 3.47a7.59 7.59 0 0 0-6.16 2.93 11.75 11.75 0 0 0-2.39 7.67 11.21 11.21 0 0 0 2.4 7.46 7.72 7.72 0 0 0 6.2 2.86 7.63 7.63 0 0 0 6.17-2.88 13.18 13.18 0 0 0 0-15.13 7.68 7.68 0 0 0-6.24-2.88zm18.15-2.73h4.3v15.33q0 4.59 1.59 6.44t5.4 1.84q3.76 0 5.4-1.8t1.64-6.08v-15.7h4.28v16.47q0 5.5-2.76 8.1t-8.56 2.6-8.55-2.6-2.75-8.11v-16.46zm28.76 0h5.4l13.4 20.88 0.11-0.11v-20.74h4.23v26.4h-5.4l-13.45-21.18h-0.2l0.11 21.13h-4.21v-26.4zm53.1 8h-4.7a6.71 6.71 0 0 0-2.41-3.8 7 7 0 0 0-4.36-1.36 8.1 8.1 0 0 0-6.45 2.88 11.15 11.15 0 0 0-2.48 7.53 10.86 10.86 0 0 0 2.48 7.42 8.17 8.17 0 0 0 6.45 2.83 7.23 7.23 0 0 0 4.77-1.56 6.15 6.15 0 0 0 2.19-4.21h4.74a10.47 10.47 0 0 1-3.91 6.9 13 13 0 0 1-8.2 2.49 12.65 12.65 0 0 1-9.64-3.86q-3.65-3.86-3.65-10.21a15.48 15.48 0 0 1 1-5.46 13.52 13.52 0 0 1 2.75-4.5 11.29 11.29 0 0 1 4.25-2.86 15 15 0 0 1 5.53-1 12.5 12.5 0 0 1 7.7 2.26 10.8 10.8 0 0 1 3.92 6.53zm5-8h4.41v26.4h-4.41zm10.85 0h4.41v22.87h13.18v3.52h-17.62v-26.36zm-365.47-102.54h9.65v24.21h28.22v-24.21h9.61v59.71h-9.61v-27.57h-28.22v27.57h-9.65zm94.3 35.33v14.07a33.61 33.61 0 0 0 0.43 5.62 21.73 21.73 0 0 0 1.33 4.68h-9.28a24.19 24.19 0 0 1-0.57-2.84q-0.21-1.45-0.29-3.07a20.62 20.62 0 0 1-6.58 5.71 16.92 16.92 0 0 1-7.89 1.82q-6.34 0-10.12-3.48a12 12 0 0 1-3.78-9.24 12.4 12.4 0 0 1 0.78-4.48 10.17 10.17 0 0 1 2.33-3.58q3.23-3.19 14.8-4.37l2.17-0.25q4.29-0.45 6.09-1.7a4.17 4.17 0 0 0 1.8-3.66 4.56 4.56 0 0 0-2.21-3.95 10.44 10.44 0 0 0-5.93-1.49 11.27 11.27 0 0 0-6.46 1.67 6.67 6.67 0 0 0-2.94 4.64h-9a13.73 13.73 0 0 1 5.79-9.18q4.56-3 12.37-3 9.24 0 13.21 3.72t3.95 12.36zm-8.63 2.25q-2.04 2.21-8.75 3.52l-2.17 0.45q-4.58 1-6.4 2.58a5.61 5.61 0 0 0-1.82 4.46 6.16 6.16 0 0 0 2 4.85 7.94 7.94 0 0 0 5.48 1.82q5.77 0 8.75-3.58t3-10.57q0-1-0.16-3.27v-0.26zm47.32-18.4v8.71h-0.29q-2-0.12-2.86-0.12-7 0-10.45 3.76t-3.47 11.33v16.85h-8.79v-38.92h8.79v7.77a18.46 18.46 0 0 1 6.65-7.09 18.63 18.63 0 0 1 9.51-2.27h0.9zm33 0v8.71h-0.29q-2-0.12-2.86-0.12-7 0-10.45 3.76t-3.47 11.33v16.85h-8.79v-38.92h8.79v7.77a18.46 18.46 0 0 1 6.65-7.09 18.63 18.63 0 0 1 9.51-2.27h0.9zm23.07 0q9.41 0 15.07 5.77t5.66 15.33q0 9.45-5.68 15.23t-15 5.79q-9.45 0-15.11-5.75t-5.66-15.27q0-9.53 5.68-15.31t15.04-5.79zm0 6.63a9.75 9.75 0 0 0-8.16 3.9q-3 3.91-3 10.65t3 10.49a10.66 10.66 0 0 0 16.36 0q3-3.82 3-10.49t-3-10.67a9.82 9.82 0 0 0-8.2-3.9zm40 40a6.17 6.17 0 0 0 2.54 4.44 10.2 10.2 0 0 0 5.93 1.49q4.5 0 6.77-2.64t2.27-7.75v-7.2a15.14 15.14 0 0 1-5.6 5.48 16 16 0 0 1-7.77 1.8 15.33 15.33 0 0 1-12.39-5.93q-4.89-5.98-4.89-15.22t4.89-15.11a15.14 15.14 0 0 1 12.21-6 15.56 15.56 0 0 1 8.34 2.13 14 14 0 0 1 5.36 6.42l-0.16-7h8.87v39.07q0 9-4.89 13.6t-14.62 4.55q-7.93 0-12.31-3.09a12.17 12.17 0 0 1-5-9.14zm7-39.63a9.26 9.26 0 0 0-7.69 4q-3 4-3 10.39t3 10.28a9.37 9.37 0 0 0 7.8 3.94 9.07 9.07 0 0 0 7.63-4q2.92-3.95 2.92-10.37t-2.92-10.41a9.18 9.18 0 0 0-7.71-3.88zm65.35 9.2v14.02a33.6 33.6 0 0 0 0.43 5.62 21.68 21.68 0 0 0 1.33 4.68h-9.25a24.18 24.18 0 0 1-0.57-2.84q-0.21-1.45-0.29-3.09a20.6 20.6 0 0 1-6.58 5.71 16.92 16.92 0 0 1-7.89 1.82q-6.34 0-10.12-3.48a12 12 0 0 1-3.78-9.24 12.42 12.42 0 0 1 0.78-4.48 10.17 10.17 0 0 1 2.33-3.58q3.23-3.19 14.8-4.37l2.17-0.25q4.29-0.45 6.09-1.7a4.17 4.17 0 0 0 1.8-3.66 4.56 4.56 0 0 0-2.21-3.95 10.44 10.44 0 0 0-5.93-1.49 11.27 11.27 0 0 0-6.43 1.69 6.67 6.67 0 0 0-2.94 4.64h-9a13.73 13.73 0 0 1 5.77-9.2q4.56-3 12.37-3 9.24 0 13.21 3.72t3.94 12.38zm-8.63 2.25q-2 2.21-8.71 3.52l-2.17 0.45q-4.58 1-6.4 2.58a5.61 5.61 0 0 0-1.82 4.46 6.17 6.17 0 0 0 2 4.85 7.94 7.94 0 0 0 5.48 1.82q5.77 0 8.75-3.58t3-10.57q0-1-0.16-3.27v-0.31zm24.46-29.4h8.79v12.56h9.57v6.5h-9.57v18.43q0 5.44 0.94 6.91a3.76 3.76 0 0 0 3.44 1.47 8.56 8.56 0 0 0 2.06-0.31 25.57 25.57 0 0 0 2.88-1v7a36.64 36.64 0 0 1-4.43 1.12 22.09 22.09 0 0 1-3.9 0.39q-5.52 0-7.63-2.62t-2.11-10.71v-20.69h-5.52v-6.49h5.52v-12.61zm66 34h-31.7q0.33 6 3.62 9.32a11.92 11.92 0 0 0 8.85 3.24 11.71 11.71 0 0 0 6.09-1.55 10 10 0 0 0 4-4.37h8.82a17.19 17.19 0 0 1-6.81 9.14 20.39 20.39 0 0 1-11.63 3.25q-10.14 0-16-5.66t-5.85-15.36q0-9.41 5.7-15.25t15-5.85q9.45 0 14.68 5.6t5.23 15.83v1.59zm-9.12-6a13 13 0 0 0-3.52-8.2 10.68 10.68 0 0 0-7.81-2.88 10.5 10.5 0 0 0-7.52 3 14.23 14.23 0 0 0-4 8.12h22.86z"/>
<path d="m391.61 92.16c-20.74 4.32-75.5-0.16-138.92-5.34-94.93-7.75-202.53-16.55-242.22-0.32l-0.31 0.13v13.07l0.68-0.28c41.87-17.23 175.16-9.48 272.54-3.83 55.82 3.24 99.9 5.8 108.5 2.57l0.32-0.12v-6.04z"/>
</g>
</g>
</svg>
