<?xml version="1.0" encoding="UTF-8" standalone="no"?>
<!-- Created with Inkscape (http://www.inkscape.org/) -->

<svg xmlns:dc="http://purl.org/dc/elements/1.1/" xmlns:cc="http://creativecommons.org/ns#" xmlns:rdf="http://www.w3.org/1999/02/22-rdf-syntax-ns#" xmlns:svg="http://www.w3.org/2000/svg" xmlns="http://www.w3.org/2000/svg" xmlns:sodipodi="http://sodipodi.sourceforge.net/DTD/sodipodi-0.dtd" xmlns:inkscape="http://www.inkscape.org/namespaces/inkscape" width="250" height="91" viewBox="0 0 250 91" id="svg2" version="1.1" inkscape:version="0.91 r13725" sodipodi:docname="highwaysengland.svg">
  <defs id="defs4">
    <clipPath clipPathUnits="userSpaceOnUse" id="clipPath4245">
      <path d="m 0,0 595.276,0 0,841.89 L 0,841.89 0,0 z" id="path4247" inkscape:connector-curvature="0" />
    </clipPath>
    <clipPath clipPathUnits="userSpaceOnUse" id="clipPath4273">
      <path d="m 0,0 595.276,0 0,841.89 L 0,841.89 0,0 z" id="path4275" inkscape:connector-curvature="0" />
    </clipPath>
    <clipPath clipPathUnits="userSpaceOnUse" id="clipPath4289">
      <path d="m 0,0 595.276,0 0,841.89 L 0,841.89 0,0 z" id="path4291" inkscape:connector-curvature="0" />
    </clipPath>
    <clipPath clipPathUnits="userSpaceOnUse" id="clipPath4315">
      <path d="m 0,0 595.276,0 0,841.89 L 0,841.89 0,0 z" id="path4317" inkscape:connector-curvature="0" />
    </clipPath>
    <clipPath clipPathUnits="userSpaceOnUse" id="clipPath4351">
      <path d="m 0,0 595.276,0 0,841.89 L 0,841.89 0,0 z" id="path4353" inkscape:connector-curvature="0" />
    </clipPath>
    <clipPath clipPathUnits="userSpaceOnUse" id="clipPath4387">
      <path d="m 0,0 595.276,0 0,841.89 L 0,841.89 0,0 z" id="path4389" inkscape:connector-curvature="0" />
    </clipPath>
    <clipPath clipPathUnits="userSpaceOnUse" id="clipPath4419">
      <path d="m 0,98.049 75.868,-43.428 519.407,30.425 0,287.415 L 0,517.592 0,98.049 z" id="path4421" inkscape:connector-curvature="0" />
    </clipPath>
    <clipPath id="clipPath4245-6" clipPathUnits="userSpaceOnUse">
      <path inkscape:connector-curvature="0" id="path4247-3" d="m 0,0 595.276,0 0,841.89 L 0,841.89 0,0 z" />
    </clipPath>
    <clipPath id="clipPath4273-7" clipPathUnits="userSpaceOnUse">
      <path inkscape:connector-curvature="0" id="path4275-1" d="m 0,0 595.276,0 0,841.89 L 0,841.89 0,0 z" />
    </clipPath>
    <clipPath id="clipPath4289-7" clipPathUnits="userSpaceOnUse">
      <path inkscape:connector-curvature="0" id="path4291-4" d="m 0,0 595.276,0 0,841.89 L 0,841.89 0,0 z" />
    </clipPath>
    <clipPath id="clipPath4315-1" clipPathUnits="userSpaceOnUse">
      <path inkscape:connector-curvature="0" id="path4317-1" d="m 0,0 595.276,0 0,841.89 L 0,841.89 0,0 z" />
    </clipPath>
    <clipPath id="clipPath4351-6" clipPathUnits="userSpaceOnUse">
      <path inkscape:connector-curvature="0" id="path4353-4" d="m 0,0 595.276,0 0,841.89 L 0,841.89 0,0 z" />
    </clipPath>
    <clipPath id="clipPath4387-1" clipPathUnits="userSpaceOnUse">
      <path inkscape:connector-curvature="0" id="path4389-2" d="m 0,0 595.276,0 0,841.89 L 0,841.89 0,0 z" />
    </clipPath>
    <clipPath id="clipPath4419-5" clipPathUnits="userSpaceOnUse">
      <path inkscape:connector-curvature="0" id="path4421-9" d="m 0,98.049 75.868,-43.428 519.407,30.425 0,287.415 L 0,517.592 0,98.049 z" />
    </clipPath>
  </defs>
  <sodipodi:namedview id="base" pagecolor="#ffffff" bordercolor="#666666" borderopacity="1.0" inkscape:pageopacity="0.0" inkscape:pageshadow="2" inkscape:zoom="1.9799" inkscape:cx="136.06" inkscape:cy="46.398" inkscape:document-units="px" inkscape:current-layer="layer1" showgrid="true" inkscape:window-width="1280" inkscape:window-height="752" inkscape:window-x="0" inkscape:window-y="0" inkscape:window-maximized="1" units="px">
    <inkscape:grid type="xygrid" id="grid5735" />
  </sodipodi:namedview>
  <metadata id="metadata7">
    <rdf:RDF>
      <cc:Work rdf:about="">
        <dc:format>image/svg+xml</dc:format>
        <dc:type rdf:resource="http://purl.org/dc/dcmitype/StillImage" />
        <dc:title></dc:title>
      </cc:Work>
    </rdf:RDF>
  </metadata>
  <g inkscape:label="Layer 1" inkscape:groupmode="layer" id="layer1" transform="translate(0,-961.4)">
    <rect style="opacity:0.001;fill:#ffffff;fill-opacity:1;stroke:none;stroke-width:2.5;stroke-linecap:round;stroke-linejoin:round;stroke-miterlimit:4;stroke-dasharray:none;stroke-dashoffset:0;stroke-opacity:1" id="rect4175" width="250" height="91" x="0" y="961.4" />
    <path style="fill:#ffffff;fill-opacity:1" d="" id="path4239" inkscape:connector-curvature="0" />
    <g id="g6259" style="fill:#ffffff;fill-opacity:1">
      <g transform="matrix(1.1087,0,0,-1.1087,60.609,976.24)" id="g4217" style="fill:#ffffff;fill-opacity:1">
        <path id="path4219" transform="matrix(0.90196,0,0,-0.90196,-54.667,13.385)" d="M 50.914 13.221 L 51.781 18.684 L 60.607 14.844 L 60.609 14.84 L 50.914 13.221 z " style="fill:#ffffff;fill-opacity:1;fill-rule:nonzero;stroke:none" />
      </g>
      <g transform="matrix(1.1087,0,0,-1.1087,64.353,984.65)" id="g4221" style="fill:#ffffff;fill-opacity:1">
        <path sodipodi:nodetypes="cccccc" inkscape:connector-curvature="0" id="path4223" style="opacity:0.532;fill:#ffffff;fill-opacity:1;fill-rule:nonzero;stroke:none" d="m 0,0 -4.478,-2.197 -10.672,-4.2952 -5.341,6.6272 17.116,7.448 z" />
      </g>
      <g transform="matrix(1.1087,0,0,-1.1087,41.631,984.5)" id="g4225" style="fill:#ffffff;fill-opacity:1">
        <path id="path4227" transform="matrix(0.90196,0,0,-0.90196,-37.549,20.835)" d="M 41.631 23.1 L 40.379 35.012 L 48.561 35.506 L 65.844 26.625 L 41.631 23.1 z " style="fill:#ffffff;fill-opacity:1;fill-rule:nonzero;stroke:none" />
      </g>
      <g transform="matrix(1.1087,0,0,-1.1087,70.392,998.21)" id="g4229" style="fill:#ffffff;fill-opacity:1">
        <path sodipodi:nodetypes="cccccc" inkscape:connector-curvature="0" id="path4231" style="opacity:0.532;fill:#ffffff;fill-opacity:1;fill-rule:nonzero;stroke:none" d="m 0,0 -6.975,-4.084 -13.391,-5.7349 -7.174,6.9649 23.447,12.044 z" />
      </g>
      <g transform="matrix(1.1087,0,0,-1.1087,39.858,1001.4)" id="g4233" style="fill:#ffffff;fill-opacity:1">
        <path id="path4235" transform="matrix(0.90196,0,0,-0.90196,-35.95,36.078)" d="M 39.857 40 L 38.211 55.672 L 51.559 55.111 L 72.674 41.961 L 39.857 40 z " style="fill:#ffffff;fill-opacity:1;fill-rule:nonzero;stroke:none" />
      </g>
      <g transform="matrix(1.1087,0,0,-1.1087,78.034,1015.4)" id="g4237" style="fill:#ffffff;fill-opacity:1">
        <path inkscape:connector-curvature="0" id="path4239-2" style="opacity:0.532;fill:#ffffff;fill-opacity:1;fill-rule:nonzero;stroke:none" d="m 0,0 -4.834,10.858 -52.019,-32.394 31.327,3.293 25.526,18.243 z" />
      </g>
      <g transform="matrix(1.1087,0,0,-1.1087,-29.003,1870.3)" id="g4241" style="fill:#ffffff;fill-opacity:1">
        <g clip-path="url(#clipPath4245-6)" id="g4243" style="fill:#ffffff;fill-opacity:1">
          <g transform="translate(112.31,794.89)" id="g4249" style="fill:#ffffff;fill-opacity:1">
            <path inkscape:connector-curvature="0" id="path4251" style="fill:#ffffff;fill-opacity:1;fill-rule:nonzero;stroke:none" d="m 0,0 c -0.591,0 -1.135,-0.111 -1.634,-0.337 -0.5,-0.223 -0.913,-0.509 -1.238,-0.854 l 10e-4,-11.734 -4.555,0 0,22.306 4.553,0 -10e-4,-7.515 c 0.49,0.404 1.081,0.742 1.774,1.006 0.691,0.266 1.466,0.397 2.321,0.397 2.037,0 3.622,-0.625 4.751,-1.879 1.131,-1.251 1.696,-3.111 1.696,-5.576 l 0,-8.739 -4.552,0 -10e-4,8.679 c 0,1.506 -0.259,2.591 -0.778,3.251 -0.521,0.664 -1.3,0.995 -2.337,0.995" />
          </g>
          <g transform="translate(123.09,801.98)" id="g4253" style="fill:#ffffff;fill-opacity:1">
            <path inkscape:connector-curvature="0" id="path4255" style="fill:#ffffff;fill-opacity:1;fill-rule:nonzero;stroke:none" d="m 0,0 c 0,0.755 0.199,1.325 0.595,1.711 0.398,0.387 1.064,0.581 2.002,0.581 0.937,0 1.604,-0.194 2,-0.581 0.398,-0.386 0.598,-0.956 0.597,-1.711 0,-0.775 -0.199,-1.349 -0.597,-1.726 -0.396,-0.375 -1.064,-0.564 -1.999,-0.564 -0.938,0 -1.605,0.189 -2.002,0.564 -0.398,0.377 -0.596,0.951 -0.596,1.726 m 0.305,-4.185 4.552,0 10e-4,-15.829 -4.554,0 0.001,15.829 z" />
          </g>
          <g transform="translate(130.65,790.07)" id="g4257" style="fill:#ffffff;fill-opacity:1">
            <path inkscape:connector-curvature="0" id="path4259" style="fill:#ffffff;fill-opacity:1;fill-rule:nonzero;stroke:none" d="m 0,0 c 0,1.242 0.185,2.363 0.551,3.361 0.367,0.997 0.872,1.85 1.513,2.552 0.642,0.702 1.385,1.243 2.233,1.617 0.841,0.379 1.755,0.566 2.733,0.566 0.813,0 1.563,-0.126 2.244,-0.38 0.682,-0.255 1.239,-0.597 1.665,-1.023 l 0,1.038 4.553,0 10e-4,-14.332 c 0,-1.345 -0.154,-2.493 -0.459,-3.453 -0.308,-0.956 -0.789,-1.741 -1.452,-2.351 -0.662,-0.612 -1.52,-1.065 -2.567,-1.361 -1.049,-0.297 -2.318,-0.445 -3.804,-0.445 -1.038,0 -2.028,0.1 -2.964,0.276 -0.936,0.184 -1.803,0.481 -2.596,0.888 l 0.242,3.574 c 0.715,-0.51 1.503,-0.896 2.369,-1.16 0.866,-0.265 1.746,-0.397 2.643,-0.397 1.222,0 2.199,0.282 2.933,0.84 0.734,0.559 1.101,1.492 1.1,2.796 l 0,0.702 c -0.428,-0.43 -0.985,-0.768 -1.667,-1.023 -0.682,-0.255 -1.431,-0.382 -2.245,-0.382 -0.978,0 -1.89,0.188 -2.734,0.563 -0.846,0.379 -1.588,0.917 -2.229,1.622 -0.643,0.701 -1.148,1.551 -1.515,2.551 -0.366,0.996 -0.548,2.116 -0.548,3.361 m 4.612,0 c 0,-1.631 0.33,-2.84 0.993,-3.637 0.662,-0.794 1.472,-1.192 2.428,-1.192 0.572,0 1.112,0.101 1.622,0.307 0.51,0.202 0.936,0.498 1.283,0.885 l 10e-4,7.274 c -0.348,0.365 -0.776,0.657 -1.285,0.87 -0.51,0.215 -1.05,0.32 -1.62,0.32 -0.957,0 -1.767,-0.397 -2.428,-1.19 -0.664,-0.796 -0.995,-2.008 -0.994,-3.637" />
          </g>
          <g transform="translate(157.11,794.89)" id="g4261" style="fill:#ffffff;fill-opacity:1">
            <path inkscape:connector-curvature="0" id="path4263" style="fill:#ffffff;fill-opacity:1;fill-rule:nonzero;stroke:none" d="m 0,0 c -0.591,0 -1.136,-0.111 -1.634,-0.337 -0.501,-0.223 -0.915,-0.509 -1.24,-0.854 l 0,-11.734 -4.551,0 0,22.306 4.554,0 0,-7.515 c 0.49,0.404 1.08,0.742 1.774,1.006 0.691,0.266 1.466,0.397 2.321,0.397 2.039,0 3.621,-0.625 4.753,-1.879 1.128,-1.251 1.695,-3.111 1.694,-5.576 l 10e-4,-8.739 -4.554,0 0,8.679 c 0,1.506 -0.26,2.591 -0.778,3.251 -0.52,0.664 -1.301,0.995 -2.34,0.995" />
          </g>
        </g>
      </g>
      <g transform="matrix(1.1087,0,0,-1.1087,171.19,985.79)" id="g4265" style="fill:#ffffff;fill-opacity:1">
        <path inkscape:connector-curvature="0" id="path4267" style="fill:#ffffff;fill-opacity:1;fill-rule:nonzero;stroke:none" d="m 0,0 2.872,-10.51 2.933,10.51 4.646,0 -5.166,-15.829 -4.645,0 -2.688,10.175 -2.689,-10.175 -4.644,0 -5.164,15.829 4.643,0 2.934,-10.51 2.871,10.51 4.097,0 z" />
      </g>
      <g transform="matrix(1.1087,0,0,-1.1087,-29.003,1870.3)" id="g4269" style="fill:#ffffff;fill-opacity:1">
        <g clip-path="url(#clipPath4273-7)" id="g4271" style="fill:#ffffff;fill-opacity:1">
          <g transform="translate(197.49,781.6)" id="g4277" style="fill:#ffffff;fill-opacity:1">
            <path inkscape:connector-curvature="0" id="path4279" style="fill:#ffffff;fill-opacity:1;fill-rule:nonzero;stroke:none" d="m 0,0 c -0.815,0 -1.58,0.11 -2.291,0.335 -0.715,0.224 -1.336,0.55 -1.865,0.978 -0.528,0.428 -0.947,0.957 -1.253,1.589 -0.306,0.631 -0.458,1.355 -0.456,2.169 0,1.65 0.62,2.969 1.862,3.957 1.241,0.987 3.056,1.482 5.44,1.482 l 2.932,0 0,0.726 c 0,0.766 -0.227,1.301 -0.687,1.602 -0.459,0.303 -1.237,0.452 -2.338,0.452 -0.977,0 -1.935,-0.123 -2.873,-0.372 -0.937,-0.252 -1.792,-0.585 -2.566,-1.002 l -0.428,3.24 c 0.795,0.405 1.758,0.743 2.889,1.007 1.129,0.266 2.275,0.396 3.437,0.396 2.463,0 4.268,-0.463 5.409,-1.387 1.139,-0.929 1.71,-2.485 1.71,-4.662 l 10e-4,-10.144 -4.554,0 0,1.039 c -0.672,-0.509 -1.327,-0.873 -1.97,-1.085 -0.642,-0.213 -1.442,-0.32 -2.399,-0.32 m 1.099,3.147 c 0.633,0 1.244,0.105 1.836,0.32 0.589,0.214 1.067,0.545 1.432,0.995 l 0,2.932 -2.781,0 c -1.039,0 -1.772,-0.199 -2.199,-0.596 -0.428,-0.399 -0.643,-0.945 -0.643,-1.634 0,-0.696 0.209,-1.201 0.628,-1.53 0.417,-0.324 0.993,-0.487 1.725,-0.487" />
          </g>
        </g>
      </g>
      <g transform="matrix(1.1087,0,0,-1.1087,208.17,1003.3)" id="g4281" style="fill:#ffffff;fill-opacity:1">
        <path inkscape:connector-curvature="0" id="path4283" style="fill:#ffffff;fill-opacity:1;fill-rule:nonzero;stroke:none" d="m 0,0 -6.355,15.8 4.766,0 3.757,-10.511 3.73,10.511 4.767,0 -8.097,-21.728 -4.769,0 2.201,5.928 z" />
      </g>
      <g transform="matrix(1.1087,0,0,-1.1087,-29.003,1870.3)" id="g4285" style="fill:#ffffff;fill-opacity:1">
        <g clip-path="url(#clipPath4289-7)" id="g4287" style="fill:#ffffff;fill-opacity:1">
          <g transform="translate(231.45,781.6)" id="g4293" style="fill:#ffffff;fill-opacity:1">
            <path inkscape:connector-curvature="0" id="path4295" style="fill:#ffffff;fill-opacity:1;fill-rule:nonzero;stroke:none" d="m 0,0 c -1.081,0 -2.12,0.101 -3.116,0.304 -1,0.206 -1.926,0.521 -2.784,0.948 l 0.215,3.666 c 0.774,-0.53 1.607,-0.939 2.491,-1.221 0.886,-0.287 1.809,-0.43 2.766,-0.43 1.649,0 2.475,0.531 2.475,1.589 0,0.226 -0.048,0.43 -0.138,0.612 -0.091,0.183 -0.259,0.362 -0.504,0.535 -0.243,0.171 -0.572,0.34 -0.979,0.506 -0.407,0.162 -0.916,0.333 -1.528,0.517 -1.65,0.469 -2.851,1.117 -3.603,1.941 -0.755,0.825 -1.132,1.799 -1.131,2.918 -10e-4,1.528 0.553,2.688 1.664,3.483 1.112,0.795 2.714,1.191 4.813,1.191 0.957,0 1.881,-0.09 2.764,-0.274 0.887,-0.184 1.717,-0.437 2.492,-0.764 l -0.335,-3.361 c -0.654,0.347 -1.366,0.621 -2.14,0.825 -0.774,0.202 -1.559,0.305 -2.353,0.305 -0.835,0 -1.426,-0.111 -1.772,-0.337 -0.348,-0.222 -0.519,-0.516 -0.519,-0.885 0,-0.449 0.202,-0.835 0.61,-1.162 0.408,-0.326 1.202,-0.661 2.386,-1.004 0.936,-0.287 1.712,-0.603 2.334,-0.951 0.623,-0.347 1.122,-0.722 1.5,-1.129 0.378,-0.408 0.645,-0.847 0.808,-1.313 0.164,-0.471 0.245,-0.96 0.245,-1.467 0,-1.632 -0.554,-2.878 -1.666,-3.746 -1.111,-0.864 -2.775,-1.296 -4.995,-1.296" />
          </g>
          <g transform="translate(106.75,763.81)" id="g4297" style="fill:#ffffff;fill-opacity:1">
            <path inkscape:connector-curvature="0" id="path4299" style="fill:#ffffff;fill-opacity:1;fill-rule:nonzero;stroke:none" d="m 0,0 c 0.087,-1.306 0.533,-2.349 1.335,-3.134 0.803,-0.782 1.891,-1.176 3.265,-1.176 0.812,0 1.556,0.091 2.234,0.277 0.679,0.184 1.318,0.525 1.918,1.018 l 0.239,-2.142 c -0.565,-0.352 -1.222,-0.625 -1.971,-0.82 -0.75,-0.193 -1.572,-0.289 -2.472,-0.289 -1.128,0 -2.121,0.184 -2.976,0.554 -0.853,0.371 -1.572,0.876 -2.141,1.52 -0.572,0.645 -1.004,1.402 -1.295,2.276 -0.292,0.871 -0.437,1.818 -0.437,2.842 0,1.073 0.145,2.049 0.437,2.921 0.291,0.872 0.705,1.621 1.243,2.247 0.537,0.625 1.19,1.11 1.956,1.455 0.766,0.345 1.617,0.515 2.552,0.515 0.987,0 1.868,-0.176 2.643,-0.53 0.776,-0.351 1.428,-0.848 1.958,-1.493 0.527,-0.644 0.928,-1.41 1.203,-2.301 0.273,-0.891 0.411,-1.863 0.411,-2.921 l 0,-0.409 c 0,-0.131 -0.01,-0.27 -0.03,-0.41 l -10.072,0 z m 7.801,1.903 c -0.09,1.287 -0.474,2.309 -1.15,3.067 -0.679,0.756 -1.6,1.137 -2.764,1.137 -1.164,0 -2.08,-0.381 -2.751,-1.137 -0.67,-0.758 -1.049,-1.78 -1.136,-3.067 l 7.801,0 z" />
          </g>
          <g transform="translate(125.3,769.91)" id="g4301" style="fill:#ffffff;fill-opacity:1">
            <path inkscape:connector-curvature="0" id="path4303" style="fill:#ffffff;fill-opacity:1;fill-rule:nonzero;stroke:none" d="m 0,0 c -0.792,0 -1.503,-0.16 -2.129,-0.474 -0.625,-0.319 -1.132,-0.734 -1.519,-1.245 l 0,-10.338 -2.221,0 0,13.696 2.221,0 0,-1.11 c 0.458,0.423 1.019,0.767 1.678,1.031 0.662,0.265 1.416,0.396 2.261,0.396 1.762,0 3.152,-0.525 4.165,-1.574 1.013,-1.047 1.519,-2.614 1.519,-4.693 l 0,-7.746 -2.22,0 0,7.8 c 0,1.498 -0.312,2.581 -0.939,3.252 -0.627,0.671 -1.565,1.005 -2.816,1.005" />
          </g>
          <g transform="translate(143.93,771.55)" id="g4305" style="fill:#ffffff;fill-opacity:1">
            <path inkscape:connector-curvature="0" id="path4307" style="fill:#ffffff;fill-opacity:1;fill-rule:nonzero;stroke:none" d="m 0,0 2.221,0 0,-12.693 c 0,-2.22 -0.514,-3.823 -1.535,-4.811 -1.022,-0.987 -2.626,-1.481 -4.812,-1.481 -1.727,0 -3.262,0.362 -4.601,1.084 l 0.159,2.273 c 0.689,-0.456 1.405,-0.806 2.154,-1.043 0.75,-0.239 1.547,-0.357 2.393,-0.357 1.375,0 2.388,0.296 3.042,0.886 0.653,0.591 0.979,1.635 0.979,3.135 l 0,0.686 c -0.46,-0.441 -1.015,-0.789 -1.668,-1.046 -0.652,-0.255 -1.382,-0.382 -2.194,-0.382 -0.846,0 -1.649,0.163 -2.405,0.489 -0.759,0.327 -1.425,0.793 -1.997,1.4 -0.574,0.609 -1.023,1.349 -1.349,2.223 -0.325,0.871 -0.489,1.854 -0.489,2.948 0,1.091 0.164,2.07 0.489,2.936 0.326,0.861 0.775,1.599 1.349,2.208 0.572,0.607 1.238,1.074 1.997,1.4 0.756,0.327 1.559,0.489 2.405,0.489 0.812,0 1.542,-0.123 2.194,-0.37 0.653,-0.249 1.208,-0.59 1.668,-1.03 l 0,1.056 z m 0,-3.33 c -0.407,0.563 -0.922,0.992 -1.547,1.28 -0.626,0.292 -1.337,0.438 -2.129,0.438 -0.581,0 -1.129,-0.112 -1.639,-0.332 -0.512,-0.221 -0.952,-0.542 -1.323,-0.965 -0.37,-0.421 -0.661,-0.949 -0.872,-1.586 -0.213,-0.634 -0.317,-1.366 -0.317,-2.194 0,-0.83 0.104,-1.559 0.317,-2.195 0.211,-0.635 0.502,-1.167 0.872,-1.6 0.371,-0.433 0.811,-0.758 1.323,-0.978 0.51,-0.221 1.058,-0.331 1.639,-0.331 0.792,0 1.503,0.15 2.129,0.451 0.625,0.298 1.14,0.731 1.547,1.294 l 0,6.718 z" />
          </g>
        </g>
      </g>
      <path inkscape:connector-curvature="0" id="path4309" style="fill:#ffffff;fill-opacity:1;fill-rule:nonzero;stroke:none" d="m 136.96,1008.7 2.47,0 0,21.4 -2.47,0 0,-21.4 z" />
      <g transform="matrix(1.1087,0,0,-1.1087,-29.003,1870.3)" id="g4311" style="fill:#ffffff;fill-opacity:1">
        <g clip-path="url(#clipPath4315-1)" id="g4313" style="fill:#ffffff;fill-opacity:1">
          <g transform="translate(159.71,757.54)" id="g4319" style="fill:#ffffff;fill-opacity:1">
            <path inkscape:connector-curvature="0" id="path4321" style="fill:#ffffff;fill-opacity:1;fill-rule:nonzero;stroke:none" d="m 0,0 c -0.758,0 -1.459,0.091 -2.101,0.277 -0.645,0.184 -1.204,0.458 -1.681,0.82 -0.475,0.361 -0.844,0.81 -1.109,1.348 -0.265,0.538 -0.397,1.167 -0.397,1.89 0,1.394 0.52,2.499 1.559,3.319 1.04,0.819 2.522,1.23 4.443,1.23 l 3.437,0 0,0.949 c 0,0.954 -0.278,1.616 -0.832,1.985 -0.556,0.37 -1.45,0.555 -2.685,0.555 -0.739,0 -1.516,-0.09 -2.326,-0.279 -0.811,-0.183 -1.535,-0.452 -2.168,-0.806 l -0.238,1.984 c 0.651,0.317 1.397,0.573 2.234,0.768 0.837,0.194 1.687,0.29 2.553,0.29 0.916,0 1.726,-0.09 2.432,-0.265 0.704,-0.175 1.3,-0.463 1.784,-0.859 0.485,-0.398 0.85,-0.917 1.097,-1.56 0.247,-0.645 0.371,-1.431 0.371,-2.367 l 0,-8.963 -2.222,0 0,1.06 c -0.474,-0.462 -1.07,-0.805 -1.782,-1.035 -0.716,-0.227 -1.506,-0.341 -2.369,-0.341 m 0.212,1.956 c 0.847,0 1.616,0.14 2.313,0.423 0.696,0.281 1.238,0.705 1.626,1.269 l 0,3.33 -3.33,0 c -1.324,0 -2.293,-0.231 -2.91,-0.7 -0.616,-0.466 -0.926,-1.096 -0.926,-1.889 0,-0.847 0.3,-1.464 0.899,-1.853 0.6,-0.388 1.376,-0.58 2.328,-0.58" />
          </g>
          <g transform="translate(175.23,769.91)" id="g4323" style="fill:#ffffff;fill-opacity:1">
            <path inkscape:connector-curvature="0" id="path4325" style="fill:#ffffff;fill-opacity:1;fill-rule:nonzero;stroke:none" d="m 0,0 c -0.793,0 -1.503,-0.16 -2.128,-0.474 -0.626,-0.319 -1.132,-0.734 -1.519,-1.245 l 0,-10.338 -2.222,0 0,13.696 2.222,0 0,-1.11 c 0.458,0.423 1.018,0.767 1.678,1.031 0.661,0.265 1.415,0.396 2.26,0.396 1.763,0 3.152,-0.525 4.165,-1.574 1.014,-1.047 1.521,-2.614 1.521,-4.693 l 0,-7.746 -2.221,0 0,7.8 c 0,1.498 -0.313,2.581 -0.939,3.252 -0.626,0.671 -1.566,1.005 -2.817,1.005" />
          </g>
          <g transform="translate(193.9,758.92)" id="g4327" style="fill:#ffffff;fill-opacity:1">
            <path inkscape:connector-curvature="0" id="path4329" style="fill:#ffffff;fill-opacity:1;fill-rule:nonzero;stroke:none" d="m 0,0 c -0.458,-0.426 -1.018,-0.759 -1.68,-1.006 -0.66,-0.247 -1.379,-0.37 -2.152,-0.37 -0.902,0 -1.738,0.161 -2.514,0.489 -0.776,0.325 -1.452,0.802 -2.023,1.427 -0.574,0.625 -1.024,1.379 -1.35,2.26 -0.324,0.883 -0.489,1.877 -0.489,2.989 0,1.11 0.165,2.106 0.489,2.989 0.326,0.879 0.776,1.632 1.35,2.26 0.571,0.625 1.247,1.1 2.023,1.427 0.776,0.327 1.612,0.488 2.514,0.488 0.773,0 1.492,-0.122 2.152,-0.37 0.662,-0.246 1.222,-0.582 1.68,-1.003 l 0,6.664 2.221,0 0,-19.304 -2.221,0 0,1.06 z m 0,9.306 c -0.406,0.545 -0.927,0.963 -1.56,1.255 -0.635,0.29 -1.323,0.436 -2.065,0.436 -0.615,0 -1.187,-0.111 -1.716,-0.329 -0.529,-0.222 -0.988,-0.554 -1.376,-0.991 -0.388,-0.443 -0.688,-0.984 -0.9,-1.628 -0.21,-0.644 -0.316,-1.398 -0.316,-2.26 0,-0.865 0.106,-1.621 0.316,-2.274 0.212,-0.653 0.512,-1.194 0.9,-1.628 0.388,-0.431 0.847,-0.757 1.376,-0.978 0.529,-0.219 1.101,-0.329 1.716,-0.329 0.742,0 1.43,0.144 2.065,0.436 0.633,0.291 1.154,0.71 1.56,1.256 l 0,7.034 z" />
          </g>
        </g>
      </g>
    </g>
    <g transform="matrix(1.1087,0,0,-1.1087,70.392,998.21)" id="g6249" />
    <g transform="matrix(1.1087,0,0,-1.1087,64.353,984.65)" id="g6254" />
  </g>
</svg>
