<?xml version="1.0" encoding="UTF-8"?>
<svg version="1.1" viewBox="0 0 250 91" xmlns="http://www.w3.org/2000/svg" xmlns:cc="http://creativecommons.org/ns#" xmlns:dc="http://purl.org/dc/elements/1.1/" xmlns:rdf="http://www.w3.org/1999/02/22-rdf-syntax-ns#">
<defs>
<clipPath id="d">
<path d="m0 0h595.28v841.89h-595.28v-841.89z"/>
</clipPath>
<clipPath id="c">
<path d="m0 0h595.28v841.89h-595.28v-841.89z"/>
</clipPath>
<clipPath id="b">
<path d="m0 0h595.28v841.89h-595.28v-841.89z"/>
</clipPath>
<clipPath id="a">
<path d="m0 0h595.28v841.89h-595.28v-841.89z"/>
</clipPath>
</defs>
<metadata>
<rdf:RDF>
<cc:Work rdf:about="">
<dc:format>image/svg+xml</dc:format>
<dc:type rdf:resource="http://purl.org/dc/dcmitype/StillImage"/>
<dc:title/>
</cc:Work>
</rdf:RDF>
</metadata>
<g transform="translate(0,-961.4)">
<g fill="#fff">
<g transform="matrix(1.1087,0,0,-1.1087,60.609,976.24)">
<path transform="matrix(.90196 0 0 -.90196 -54.667 13.385)" d="m50.914 13.221 0.867 5.463 8.826-3.84 2e-3 -4e-3 -9.695-1.619z" fill="#fff"/>
</g>
<g transform="matrix(1.1087,0,0,-1.1087,64.353,984.65)">
<path d="m0 0-4.478-2.197-10.672-4.2952-5.341 6.6272 17.116 7.448z" fill="#fff" opacity=".532"/>
</g>
<g transform="matrix(1.1087,0,0,-1.1087,41.631,984.5)">
<path transform="matrix(.90196 0 0 -.90196 -37.549 20.835)" d="m41.631 23.1-1.252 11.912 8.182 0.494 17.283-8.881-24.213-3.525z" fill="#fff"/>
</g>
<g transform="matrix(1.1087,0,0,-1.1087,70.392,998.21)">
<path d="m0 0-6.975-4.084-13.391-5.7349-7.174 6.9649 23.447 12.044z" fill="#fff" opacity=".532"/>
</g>
<g transform="matrix(1.1087,0,0,-1.1087,39.858,1001.4)">
<path transform="matrix(.90196 0 0 -.90196 -35.95 36.078)" d="m39.857 40-1.646 15.672 13.348-0.561 21.115-13.15-32.817-1.961z" fill="#fff"/>
</g>
<g transform="matrix(1.1087,0,0,-1.1087,78.034,1015.4)">
<path d="m0 0-4.834 10.858-52.019-32.394 31.327 3.293 25.526 18.243z" fill="#fff" opacity=".532"/>
</g>
<g transform="matrix(1.1087,0,0,-1.1087,-29.003,1870.3)">
<g clip-path="url(#d)" fill="#fff">
<g transform="translate(112.31,794.89)">
<path d="m0 0c-1.1897 0-2.0361-0.53124-2.872-1.191l1e-3 -11.734h-4.555v22.306h4.553l-1e-3 -7.515c1.223 0.9399 2.6908 1.3948 4.095 1.403 2.037 0 3.622-0.625 4.751-1.879 1.131-1.251 1.696-3.111 1.696-5.576v-8.739h-4.552l-1e-3 8.679c0 2.2673-0.9183 4.219-3.115 4.246" fill="#fff"/>
</g>
<g transform="translate(123.09,801.98)">
<path d="m0 0c0.07493 1.6789 1.2429 2.2812 2.597 2.292 1.7557-0.029 2.3891-0.865 2.597-2.292-0.07-1.6929-1.2317-2.2794-2.596-2.29-1.7699 0.022-2.3936 0.8589-2.598 2.29m0.305-4.185h4.552l1e-3 -15.829h-4.554z" fill="#fff"/>
</g>
<g transform="translate(130.65,790.07)">
<path d="m0 0c-0.05849 2.858 1.2193 5.9142 3.831 7.3021 2.1331 1.1437 5.0269 1.1251 6.942-0.4533 0.318-0.3508 0.166 0.8815 0.166 0.8815s3.032 7e-4 4.553 7e-4c-0.01-5.0225 0.02-10.046-0.02-15.068-0.06-2.0938-0.687-4.4212-2.573-5.5952-2.085-1.289-4.6515-1.358-7.0273-1.224-1.4579 0.117-2.9205 0.429-4.2257 1.109 0.081 1.191 0.1613 2.383 0.242 3.574 1.9506-1.357 4.5311-1.94 6.8419-1.29 1.2059 0.326 2.1021 1.4238 2.1651 2.6746 0.06 0.4635 0.03 0.9309 0.04 1.3964-1.7522-1.6292-4.5208-1.7582-6.646-0.842-2.9037 1.2616-4.3601 4.4949-4.289 7.534zm4.612 0c-0.027-1.6532 0.3809-3.5792 1.9467-4.4516 1.4084-0.7542 3.3098-0.3409 4.3793 0.8146 0 2.4247 1e-3 4.8493 1e-3 7.274-1.3168 1.3949-3.8914 1.7085-5.2073 0.144-0.9308-1.0119-1.1122-2.464-1.1197-3.781z" fill="#fff"/>
</g>
<g transform="translate(157.11,794.89)">
<path d="m0 0c-1.1899 0-2.0375-0.53167-2.874-1.191v-11.734h-4.551v22.306h4.554v-7.515c1.223 0.9401 2.6904 1.3947 4.095 1.403 2.039 0 3.621-0.625 4.753-1.879 1.128-1.251 1.695-3.111 1.694-5.576l1e-3 -8.739h-4.554v8.679c0 2.2698-0.9202 4.219-3.118 4.246" fill="#fff"/>
</g>
</g>
</g>
<g transform="matrix(1.1087,0,0,-1.1087,171.19,985.79)">
<path d="m0 0 2.872-10.51 2.933 10.51h4.646l-5.166-15.829h-4.645l-2.688 10.175-2.689-10.175h-4.644l-5.164 15.829h4.643l2.934-10.51 2.871 10.51h4.097z" fill="#fff"/>
</g>
<g transform="matrix(1.1087,0,0,-1.1087,-29.003,1870.3)">
<g clip-path="url(#c)" fill="#fff">
<g transform="translate(197.49,781.6)" fill="#fff">
<path d="m0 0c-1.5912-0.01646-2.9439 0.51429-4.156 1.313-1.2244 1.0177-1.5784 2.3824-1.709 3.758 0 1.65 0.62 2.969 1.862 3.957 1.241 0.987 3.056 1.482 5.44 1.482h2.932c0.1255 0.932-0.2632 1.745-0.687 2.328-0.459 0.303-1.237 0.452-2.338 0.452-1.9574-0.04-3.8186-0.511-5.439-1.374l-0.428 3.24c2.042 0.945 4.2231 1.394 6.326 1.403 2.463 0 4.268-0.463 5.409-1.387 1.139-0.929 1.71-2.485 1.71-4.662l1e-3 -10.144h-4.554v1.039c-1.3182-1.0326-2.9097-1.405-4.369-1.405m1.099 3.147c1.3496-0.015 2.3656 0.5248 3.268 1.315v2.932h-2.781c-1.8179-0.018-2.526-0.7509-2.842-2.23 0.1023-1.5461 1.1526-1.8717 2.353-2.017" fill="#fff"/>
</g>
</g>
</g>
<g transform="matrix(1.1087,0,0,-1.1087,208.17,1003.3)">
<path d="m0 0-6.355 15.8h4.766l3.757-10.511 3.73 10.511h4.767l-8.097-21.728h-4.769l2.201 5.928z" fill="#fff"/>
</g>
<g transform="matrix(1.1087,0,0,-1.1087,-29.003,1870.3)">
<g clip-path="url(#b)" fill="#fff">
<g transform="translate(231.45,781.6)">
<path d="m0 0c-2.0913 0.02793-4.1442 0.38957-5.9 1.252l0.215 3.666c1.6197-1.0638 3.4688-1.6408 5.257-1.651 1.649 0 2.475 0.531 2.475 1.589-0.307 1.4643-1.9612 1.7905-3.149 2.17-1.65 0.469-2.851 1.117-3.603 1.941-0.755 0.825-1.132 1.799-1.131 2.918-1e-3 1.528 0.553 2.688 1.664 3.483 1.112 0.795 2.714 1.191 4.813 1.191 1.8569-0.02 3.6551-0.37 5.256-1.038l-0.335-3.361c-1.4448 0.778-2.9917 1.035-4.493 1.13-1.2234 0.02-1.8924-0.269-2.291-1.222 0.3127-1.47 1.9055-1.846 2.996-2.166 1.4966-0.4055 2.743-1.1407 3.834-2.08 0.7768-0.8185 0.9418-1.7939 1.053-2.78 0-1.632-0.554-2.878-1.666-3.746-1.111-0.864-2.775-1.296-4.995-1.296" fill="#fff"/>
</g>
<g transform="translate(106.75,763.81)">
<path d="m0 0c0.29875-2.6866 2.2306-4.2839 4.6-4.31 1.6044-0.052 2.9718 0.4971 4.152 1.295l0.239-2.142c-1.3948-0.8094-2.9793-1.103-4.443-1.109-1.9813 0.049-3.8685 0.6865-5.117 2.074-1.2296 1.5092-1.7224 3.3516-1.732 5.118 0.044 1.9109 0.5143 3.7893 1.68 5.168 1.2354 1.3173 2.8676 1.9586 4.508 1.97 1.8246-0.047 3.5117-0.7204 4.601-2.023 1.1718-1.5666 1.605-3.4498 1.614-5.222v-0.409c0-0.131-0.01-0.27-0.03-0.41zm7.801 1.903c-0.2347 2.3774-1.7061 4.1762-3.914 4.204-2.5188-0.1534-3.7252-2.099-3.887-4.204z" fill="#fff"/>
</g>
<g transform="translate(125.3,769.91)">
<path d="m0 0c-1.5777 0-2.655-0.73765-3.648-1.719v-10.338h-2.221v13.696h2.221v-1.11c1.1469 0.9793 2.5776 1.4189 3.939 1.427 3.8849-0.1674 5.654-3.0658 5.684-6.267v-7.746h-2.22v7.8c-0.01 2.6184-1.4252 4.233-3.755 4.257" fill="#fff"/>
</g>
<g transform="translate(143.93,771.55)">
<path d="m0 0h2.221v-12.693c0.083-4.319-2.8458-6.261-6.347-6.292-1.727 0-3.262 0.362-4.601 1.084l0.159 2.273c1.4116-0.911 3.007-1.392 4.547-1.4 2.793-0 4.0018 1.736 4.021 4.021v0.686c-1.1213-1.05-2.5178-1.32-3.862-1.428-1.7293 0.07-3.2944 0.731-4.402 1.889-1.2951 1.501-1.828 3.3838-1.838 5.171 0.05 1.9376 0.5967 3.8052 1.838 5.144 1.2402 1.2113 2.8013 1.8773 4.402 1.889 1.5445 0.0295 2.7478-0.57872 3.862-1.4zm0-3.33c-0.96182 1.2657-2.3092 1.5886-3.676 1.718-2.8763-0.1646-4.1388-2.5414-4.151-5.077-0.038-1.473 0.4562-2.6752 1.189-3.795 0.8257-0.94 1.8727-1.181 2.962-1.309 1.5872 0 2.7249 0.712 3.676 1.745z" fill="#fff"/>
</g>
</g>
</g>
<path d="m136.96 1008.7h2.47v21.4h-2.47v-21.4z"/>
<g transform="matrix(1.1087,0,0,-1.1087,-29.003,1870.3)">
<g clip-path="url(#a)" fill="#fff">
<g transform="translate(159.71,757.54)">
<path d="m0 0c-3.6687 0.01389-5.4726 1.8178-5.288 4.335 0 1.394 0.52 2.499 1.559 3.319 1.04 0.819 2.522 1.23 4.443 1.23h3.437v0.949c-0.1372 2.177-1.8701 2.53-3.517 2.54-1.6382-0-3.1071-0.445-4.494-1.085l-0.238 1.984c1.5533 0.701 3.2002 1.051 4.787 1.058 2.416-0.103 4.2847-0.717 5.313-2.684 0.247-0.645 0.371-1.431 0.371-2.367v-8.963h-2.222v1.06c-1.201-1.037-2.724-1.376-4.151-1.376m0.212 1.956c1.6511 0 2.9243 0.6063 3.939 1.692v3.33h-3.33c-2.1197 0-3.4479-0.7547-3.836-2.589 0.1944-1.8649 1.6943-2.4211 3.227-2.433" fill="#fff"/>
</g>
<g transform="translate(175.23,769.91)">
<path d="m0 0c-1.5773 0-2.6546-0.73765-3.647-1.719v-10.338h-2.222v13.696h2.222v-1.11c1.1467 0.9792 2.5765 1.4189 3.938 1.427 3.8841-0.1673 5.6559-3.0659 5.686-6.267v-7.746h-2.221v7.8c-0.01 2.6187-1.4255 4.233-3.756 4.257" fill="#fff"/>
</g>
<g transform="translate(193.9,758.92)">
<path d="m0 0c-1.1239-1.0029-2.4982-1.2687-3.832-1.376-1.7801 0.063-3.4107 0.70287-4.537 1.916-1.296 1.5317-1.829 3.4428-1.839 5.249 1e-3 2.7639 1.5768 5.643 3.862 6.676 0.776 0.327 1.612 0.488 2.514 0.488 1.5189 0.02 2.7136-0.577 3.832-1.373v6.664h2.221v-19.304h-2.221zm0 9.306c-0.96203 1.215-2.2747 1.557-3.625 1.691-2.9951-0.143-4.2956-2.5763-4.308-5.208 0.01-2.9922 1.4891-4.8937 4.308-5.209 1.5442 0.0133 2.6764 0.698 3.625 1.692z" fill="#fff"/>
</g>
</g>
</g>
</g>
</g>
</svg>
