<?xml version="1.0" encoding="UTF-8" standalone="no"?>
<!-- Created with Inkscape (http://www.inkscape.org/) -->

<svg xmlns:dc="http://purl.org/dc/elements/1.1/" xmlns:cc="http://creativecommons.org/ns#" xmlns:rdf="http://www.w3.org/1999/02/22-rdf-syntax-ns#" xmlns:svg="http://www.w3.org/2000/svg" xmlns="http://www.w3.org/2000/svg" xmlns:sodipodi="http://sodipodi.sourceforge.net/DTD/sodipodi-0.dtd" xmlns:inkscape="http://www.inkscape.org/namespaces/inkscape" width="250" height="91" viewBox="0 0 250 91" id="svg2" version="1.1" inkscape:version="0.91 r13725" sodipodi:docname="highwaysengland.svg">
  <defs id="defs4">
    <clipPath clipPathUnits="userSpaceOnUse" id="clipPath4245">
      <path d="m 0,0 595.276,0 0,841.89 L 0,841.89 0,0 z" id="path4247" inkscape:connector-curvature="0" />
    </clipPath>
    <clipPath clipPathUnits="userSpaceOnUse" id="clipPath4273">
      <path d="m 0,0 595.276,0 0,841.89 L 0,841.89 0,0 z" id="path4275" inkscape:connector-curvature="0" />
    </clipPath>
    <clipPath clipPathUnits="userSpaceOnUse" id="clipPath4289">
      <path d="m 0,0 595.276,0 0,841.89 L 0,841.89 0,0 z" id="path4291" inkscape:connector-curvature="0" />
    </clipPath>
    <clipPath clipPathUnits="userSpaceOnUse" id="clipPath4315">
      <path d="m 0,0 595.276,0 0,841.89 L 0,841.89 0,0 z" id="path4317" inkscape:connector-curvature="0" />
    </clipPath>
    <clipPath clipPathUnits="userSpaceOnUse" id="clipPath4351">
      <path d="m 0,0 595.276,0 0,841.89 L 0,841.89 0,0 z" id="path4353" inkscape:connector-curvature="0" />
    </clipPath>
    <clipPath clipPathUnits="userSpaceOnUse" id="clipPath4387">
      <path d="m 0,0 595.276,0 0,841.89 L 0,841.89 0,0 z" id="path4389" inkscape:connector-curvature="0" />
    </clipPath>
    <clipPath clipPathUnits="userSpaceOnUse" id="clipPath4419">
      <path d="m 0,98.049 75.868,-43.428 519.407,30.425 0,287.415 L 0,517.592 0,98.049 z" id="path4421" inkscape:connector-curvature="0" />
    </clipPath>
    <clipPath id="clipPath4245-6" clipPathUnits="userSpaceOnUse">
      <path inkscape:connector-curvature="0" id="path4247-3" d="m 0,0 595.276,0 0,841.89 L 0,841.89 0,0 z" />
    </clipPath>
    <clipPath id="clipPath4273-7" clipPathUnits="userSpaceOnUse">
      <path inkscape:connector-curvature="0" id="path4275-1" d="m 0,0 595.276,0 0,841.89 L 0,841.89 0,0 z" />
    </clipPath>
    <clipPath id="clipPath4289-7" clipPathUnits="userSpaceOnUse">
      <path inkscape:connector-curvature="0" id="path4291-4" d="m 0,0 595.276,0 0,841.89 L 0,841.89 0,0 z" />
    </clipPath>
    <clipPath id="clipPath4315-1" clipPathUnits="userSpaceOnUse">
      <path inkscape:connector-curvature="0" id="path4317-1" d="m 0,0 595.276,0 0,841.89 L 0,841.89 0,0 z" />
    </clipPath>
    <clipPath id="clipPath4351-6" clipPathUnits="userSpaceOnUse">
      <path inkscape:connector-curvature="0" id="path4353-4" d="m 0,0 595.276,0 0,841.89 L 0,841.89 0,0 z" />
    </clipPath>
    <clipPath id="clipPath4387-1" clipPathUnits="userSpaceOnUse">
      <path inkscape:connector-curvature="0" id="path4389-2" d="m 0,0 595.276,0 0,841.89 L 0,841.89 0,0 z" />
    </clipPath>
    <clipPath id="clipPath4419-5" clipPathUnits="userSpaceOnUse">
      <path inkscape:connector-curvature="0" id="path4421-9" d="m 0,98.049 75.868,-43.428 519.407,30.425 0,287.415 L 0,517.592 0,98.049 z" />
    </clipPath>
  </defs>
  <sodipodi:namedview id="base" pagecolor="#ffffff" bordercolor="#666666" borderopacity="1.0" inkscape:pageopacity="0.0" inkscape:pageshadow="2" inkscape:zoom="2.8" inkscape:cx="150.22" inkscape:cy="-1.1152" inkscape:document-units="px" inkscape:current-layer="layer1" showgrid="true" inkscape:window-width="1280" inkscape:window-height="751" inkscape:window-x="0" inkscape:window-y="1" inkscape:window-maximized="1" units="px">
    <inkscape:grid type="xygrid" id="grid5735" />
  </sodipodi:namedview>
  <metadata id="metadata7">
    <rdf:RDF>
      <cc:Work rdf:about="">
        <dc:format>image/svg+xml</dc:format>
        <dc:type rdf:resource="http://purl.org/dc/dcmitype/StillImage" />
        <dc:title />
      </cc:Work>
    </rdf:RDF>
  </metadata>
  <g inkscape:label="Layer 1" inkscape:groupmode="layer" id="layer1" transform="translate(0,-961.4)">
    <rect style="opacity:0.001;fill:none;fill-opacity:1;stroke:none;stroke-width:2.5;stroke-linecap:round;stroke-linejoin:round;stroke-miterlimit:4;stroke-dasharray:none;stroke-dashoffset:0;stroke-opacity:1" id="rect4175" width="250" height="91" x="0" y="961.4" />
    <path style="fill:#ffffff;fill-opacity:1" d="" id="path4239" inkscape:connector-curvature="0" />
    <g id="g6259" style="fill:#ffffff;fill-opacity:1">
      <g transform="matrix(1.1087,0,0,-1.1087,60.609,976.24)" id="g4217" style="fill:#ffffff;fill-opacity:1">
        <path id="path4219" transform="matrix(0.90196,0,0,-0.90196,-54.667,13.385)" d="M 50.914 13.221 L 51.781 18.684 L 60.607 14.844 L 60.609 14.84 L 50.914 13.221 z " style="fill:#ffffff;fill-opacity:1;fill-rule:nonzero;stroke:none" />
      </g>
      <g transform="matrix(1.1087,0,0,-1.1087,64.353,984.65)" id="g4221" style="fill:#ffffff;fill-opacity:1">
        <path sodipodi:nodetypes="cccccc" inkscape:connector-curvature="0" id="path4223" style="opacity:0.532;fill:#ffffff;fill-opacity:1;fill-rule:nonzero;stroke:none" d="m 0,0 -4.478,-2.197 -10.672,-4.2952 -5.341,6.6272 17.116,7.448 z" />
      </g>
      <g transform="matrix(1.1087,0,0,-1.1087,41.631,984.5)" id="g4225" style="fill:#ffffff;fill-opacity:1">
        <path id="path4227" transform="matrix(0.90196,0,0,-0.90196,-37.549,20.835)" d="M 41.631 23.1 L 40.379 35.012 L 48.561 35.506 L 65.844 26.625 L 41.631 23.1 z " style="fill:#ffffff;fill-opacity:1;fill-rule:nonzero;stroke:none" />
      </g>
      <g transform="matrix(1.1087,0,0,-1.1087,70.392,998.21)" id="g4229" style="fill:#ffffff;fill-opacity:1">
        <path sodipodi:nodetypes="cccccc" inkscape:connector-curvature="0" id="path4231" style="opacity:0.532;fill:#ffffff;fill-opacity:1;fill-rule:nonzero;stroke:none" d="m 0,0 -6.975,-4.084 -13.391,-5.7349 -7.174,6.9649 23.447,12.044 z" />
      </g>
      <g transform="matrix(1.1087,0,0,-1.1087,39.858,1001.4)" id="g4233" style="fill:#ffffff;fill-opacity:1">
        <path id="path4235" transform="matrix(0.90196,0,0,-0.90196,-35.95,36.078)" d="M 39.857 40 L 38.211 55.672 L 51.559 55.111 L 72.674 41.961 L 39.857 40 z " style="fill:#ffffff;fill-opacity:1;fill-rule:nonzero;stroke:none" />
      </g>
      <g transform="matrix(1.1087,0,0,-1.1087,78.034,1015.4)" id="g4237" style="fill:#ffffff;fill-opacity:1">
        <path inkscape:connector-curvature="0" id="path4239-2" style="opacity:0.532;fill:#ffffff;fill-opacity:1;fill-rule:nonzero;stroke:none" d="m 0,0 -4.834,10.858 -52.019,-32.394 31.327,3.293 25.526,18.243 z" />
      </g>
      <g transform="matrix(1.1087,0,0,-1.1087,-29.003,1870.3)" id="g4241" style="fill:#ffffff;fill-opacity:1">
        <g clip-path="url(#clipPath4245-6)" id="g4243" style="fill:#ffffff;fill-opacity:1">
          <g transform="translate(112.31,794.89)" id="g4249" style="fill:#ffffff;fill-opacity:1">
            <path inkscape:connector-curvature="0" id="path4251" style="fill:#ffffff;fill-opacity:1;fill-rule:nonzero;stroke:none" d="m 0,0 c -1.1897,0 -2.0361,-0.53124 -2.872,-1.191 l 10e-4,-11.734 -4.555,0 0,22.306 4.553,0 -10e-4,-7.515 c 1.223,0.9399 2.69077,1.3948 4.095,1.403 2.037,0 3.622,-0.625 4.751,-1.879 1.131,-1.251 1.696,-3.111 1.696,-5.576 l 0,-8.739 -4.552,0 -10e-4,8.679 c 0,2.2673 -0.9183,4.21898 -3.115,4.246" sodipodi:nodetypes="cccccccccscccc" />
          </g>
          <g transform="translate(123.09,801.98)" id="g4253" style="fill:#ffffff;fill-opacity:1">
            <path inkscape:connector-curvature="0" id="path4255" style="fill:#ffffff;fill-opacity:1;fill-rule:nonzero;stroke:none" d="m 0,0 c 0.07493,1.6789 1.2429,2.2812 2.597,2.292 1.7557,-0.029 2.3891,-0.865 2.597,-2.292 -0.07,-1.6929 -1.2317,-2.2794 -2.596,-2.29 -1.76988,0.022 -2.39361,0.8589 -2.598,2.29 m 0.305,-4.185 4.552,0 10e-4,-15.829 -4.554,0 z" sodipodi:nodetypes="cccccccccc" />
          </g>
          <g transform="translate(130.65,790.07)" id="g4257" style="fill:#ffffff;fill-opacity:1">
            <path style="fill:#ffffff;fill-opacity:1;fill-rule:nonzero;stroke:none" d="m 0,0 c -0.05849,2.858 1.2193,5.9142 3.831,7.3021 2.1331,1.1437 5.0269,1.1251 6.942,-0.4533 0.318,-0.3508 0.166,0.8815 0.166,0.8815 0,0 3.032,7e-4 4.553,7e-4 -0.01,-5.0225 0.02,-10.0457 -0.02,-15.0678 -0.06,-2.0938 -0.687,-4.4212 -2.573,-5.5952 -2.085,-1.289 -4.6515,-1.358 -7.0273,-1.224 -1.4579,0.117 -2.9205,0.429 -4.2257,1.109 0.081,1.191 0.1613,2.383 0.242,3.574 1.9506,-1.357 4.5311,-1.94 6.8419,-1.29 1.2059,0.326 2.1021,1.4238 2.1651,2.6746 0.06,0.4635 0.03,0.9309 0.04,1.3964 -1.7522,-1.6292 -4.5208,-1.7582 -6.646,-0.842 -2.9037,1.2616 -4.36006,4.4949 -4.289,7.534 z m 4.612,0 c -0.027,-1.6532 0.3809,-3.5792 1.9467,-4.4516 1.4084,-0.7542 3.3098,-0.3409 4.3793,0.8146 0,2.4247 10e-4,4.8493 10e-4,7.274 -1.3168,1.3949 -3.8914,1.7085 -5.2073,0.144 -0.9308,-1.0119 -1.1122,-2.464 -1.1197,-3.781 z" id="path4259" inkscape:connector-curvature="0" sodipodi:nodetypes="ccccccccccccccccccccc" />
          </g>
          <g transform="translate(157.11,794.89)" id="g4261" style="fill:#ffffff;fill-opacity:1">
            <path inkscape:connector-curvature="0" id="path4263" style="fill:#ffffff;fill-opacity:1;fill-rule:nonzero;stroke:none" d="m 0,0 c -1.1899,0 -2.0375,-0.53167 -2.874,-1.191 l 0,-11.734 -4.551,0 0,22.306 4.554,0 0,-7.515 c 1.223,0.9401 2.6904,1.3947 4.095,1.403 2.039,0 3.621,-0.625 4.753,-1.879 1.128,-1.251 1.695,-3.111 1.694,-5.576 l 10e-4,-8.739 -4.554,0 0,8.679 c 0,2.2698 -0.9202,4.21901 -3.118,4.246" sodipodi:nodetypes="cccccccccccccc" />
          </g>
        </g>
      </g>
      <g transform="matrix(1.1087,0,0,-1.1087,171.19,985.79)" id="g4265" style="fill:#ffffff;fill-opacity:1">
        <path inkscape:connector-curvature="0" id="path4267" style="fill:#ffffff;fill-opacity:1;fill-rule:nonzero;stroke:none" d="m 0,0 2.872,-10.51 2.933,10.51 4.646,0 -5.166,-15.829 -4.645,0 -2.688,10.175 -2.689,-10.175 -4.644,0 -5.164,15.829 4.643,0 2.934,-10.51 2.871,10.51 4.097,0 z" />
      </g>
      <g transform="matrix(1.1087,0,0,-1.1087,-29.003,1870.3)" id="g4269" style="fill:#ffffff;fill-opacity:1">
        <g clip-path="url(#clipPath4273-7)" id="g4271" style="fill:#ffffff;fill-opacity:1">
          <g transform="translate(197.49,781.6)" id="g4277" style="fill:#ffffff;fill-opacity:1">
            <path inkscape:connector-curvature="0" id="path4279" style="fill:#ffffff;fill-opacity:1;fill-rule:nonzero;stroke:none" d="m 0,0 c -1.5912,-0.01646 -2.9439,0.51429 -4.156,1.313 -1.2244,1.0177 -1.5784,2.3824 -1.709,3.758 0,1.65 0.62,2.969 1.862,3.957 1.241,0.987 3.056,1.482 5.44,1.482 l 2.932,0 c 0.1255,0.932 -0.2632,1.745 -0.687,2.328 -0.459,0.303 -1.237,0.452 -2.338,0.452 -1.95735,-0.04 -3.8186,-0.511 -5.439,-1.374 l -0.428,3.24 c 2.042,0.945 4.22311,1.394 6.326,1.403 2.463,0 4.268,-0.463 5.409,-1.387 1.139,-0.929 1.71,-2.485 1.71,-4.662 l 10e-4,-10.144 -4.554,0 0,1.039 c -1.3182,-1.03259 -2.9097,-1.405 -4.369,-1.405 m 1.099,3.147 c 1.3496,-0.015 2.3656,0.5248 3.268,1.315 l 0,2.932 -2.781,0 c -1.81791,-0.018 -2.52596,-0.7509 -2.842,-2.23 0.1023,-1.5461 1.15258,-1.8717 2.353,-2.017" sodipodi:nodetypes="ccccscccccccccccccccccc" />
          </g>
        </g>
      </g>
      <g transform="matrix(1.1087,0,0,-1.1087,208.17,1003.3)" id="g4281" style="fill:#ffffff;fill-opacity:1">
        <path inkscape:connector-curvature="0" id="path4283" style="fill:#ffffff;fill-opacity:1;fill-rule:nonzero;stroke:none" d="m 0,0 -6.355,15.8 4.766,0 3.757,-10.511 3.73,10.511 4.767,0 -8.097,-21.728 -4.769,0 2.201,5.928 z" />
      </g>
      <g transform="matrix(1.1087,0,0,-1.1087,-29.003,1870.3)" id="g4285" style="fill:#ffffff;fill-opacity:1">
        <g clip-path="url(#clipPath4289-7)" id="g4287" style="fill:#ffffff;fill-opacity:1">
          <g transform="translate(231.45,781.6)" id="g4293" style="fill:#ffffff;fill-opacity:1">
            <path inkscape:connector-curvature="0" id="path4295" style="fill:#ffffff;fill-opacity:1;fill-rule:nonzero;stroke:none" d="m 0,0 c -2.0913,0.02793 -4.1442,0.38957 -5.9,1.252 l 0.215,3.666 c 1.6197,-1.0638 3.4688,-1.6408 5.257,-1.651 1.649,0 2.475,0.531 2.475,1.589 -0.307,1.4643 -1.96115,1.7905 -3.149,2.17 -1.65,0.469 -2.851,1.117 -3.603,1.941 -0.755,0.825 -1.132,1.799 -1.131,2.918 -10e-4,1.528 0.553,2.688 1.664,3.483 1.112,0.795 2.714,1.191 4.813,1.191 1.8569,-0.02 3.6551,-0.37 5.256,-1.038 l -0.335,-3.361 c -1.4448,0.778 -2.9917,1.035 -4.493,1.13 -1.22342,0.02 -1.8924,-0.269 -2.291,-1.222 0.3127,-1.47 1.90546,-1.846 2.996,-2.166 1.4966,-0.4055 2.743,-1.1407 3.834,-2.08 0.7768,-0.8185 0.9418,-1.7939 1.053,-2.78 0,-1.632 -0.554,-2.878 -1.666,-3.746 -1.111,-0.864 -2.775,-1.296 -4.995,-1.296" sodipodi:nodetypes="ccccccccccccccccccc" />
          </g>
          <g transform="translate(106.75,763.81)" id="g4297" style="fill:#ffffff;fill-opacity:1">
            <path inkscape:connector-curvature="0" id="path4299" style="fill:#ffffff;fill-opacity:1;fill-rule:nonzero;stroke:none" d="m 0,0 c 0.29875,-2.6866 2.2306,-4.2839 4.6,-4.31 1.6044,-0.052 2.9718,0.4971 4.152,1.295 l 0.239,-2.142 c -1.3948,-0.8094 -2.9793,-1.103 -4.443,-1.109 -1.9813,0.049 -3.86852,0.6865 -5.117,2.074 -1.2296,1.5092 -1.7224,3.35165 -1.732,5.118 0.044,1.9109 0.5143,3.7893 1.68,5.168 1.23537,1.3173 2.8676,1.9586 4.508,1.97 1.8246,-0.047 3.5117,-0.7204 4.601,-2.023 1.1718,-1.5666 1.605,-3.4498 1.614,-5.222 l 0,-0.409 c 0,-0.131 -0.01,-0.27 -0.03,-0.41 z m 7.801,1.903 c -0.2347,2.3774 -1.7061,4.1762 -3.914,4.204 -2.5188,-0.1534 -3.72521,-2.099 -3.887,-4.204 z" sodipodi:nodetypes="cccccccccccscccccc" />
          </g>
          <g transform="translate(125.3,769.91)" id="g4301" style="fill:#ffffff;fill-opacity:1">
            <path inkscape:connector-curvature="0" id="path4303" style="fill:#ffffff;fill-opacity:1;fill-rule:nonzero;stroke:none" d="m 0,0 c -1.5777,0 -2.655,-0.73765 -3.648,-1.719 l 0,-10.338 -2.221,0 0,13.696 2.221,0 0,-1.11 c 1.1469,0.9793 2.5776,1.4189 3.939,1.427 3.8849,-0.1674 5.654,-3.0658 5.684,-6.267 l 0,-7.746 -2.22,0 0,7.8 c -0.01,2.6184 -1.4252,4.23302 -3.755,4.257" sodipodi:nodetypes="ccccccccccccc" />
          </g>
          <g transform="translate(143.93,771.55)" id="g4305" style="fill:#ffffff;fill-opacity:1">
            <path inkscape:connector-curvature="0" id="path4307" style="fill:#ffffff;fill-opacity:1;fill-rule:nonzero;stroke:none" d="m 0,0 2.221,0 0,-12.693 c 0.083,-4.319 -2.84583,-6.261 -6.347,-6.292 -1.727,0 -3.262,0.362 -4.601,1.084 l 0.159,2.273 c 1.4116,-0.911 3.007,-1.392 4.547,-1.4 2.793,-0 4.00182,1.736 4.021,4.021 l 0,0.686 c -1.1213,-1.05 -2.5178,-1.32 -3.862,-1.428 -1.7293,0.07 -3.2944,0.731 -4.402,1.889 -1.2951,1.501 -1.828,3.3838 -1.838,5.171 0.05,1.9376 0.5967,3.8052 1.838,5.144 1.2402,1.21132 2.8013,1.87727 4.402,1.889 1.5445,0.0295 2.7478,-0.57872 3.862,-1.4 z m 0,-3.33 c -0.96182,1.2657 -2.3092,1.5886 -3.676,1.718 -2.8763,-0.1646 -4.1388,-2.5414 -4.151,-5.077 -0.038,-1.473 0.4562,-2.6752 1.189,-3.795 0.8257,-0.94 1.8727,-1.181 2.962,-1.309 1.5872,0 2.72486,0.712 3.676,1.745 z" sodipodi:nodetypes="ccccccccccccccccccccccc" />
          </g>
        </g>
      </g>
      <path inkscape:connector-curvature="0" id="path4309" style="fill:#ffffff;fill-opacity:1;fill-rule:nonzero;stroke:none" d="m 136.96,1008.7 2.47,0 0,21.4 -2.47,0 0,-21.4 z" />
      <g transform="matrix(1.1087,0,0,-1.1087,-29.003,1870.3)" id="g4311" style="fill:#ffffff;fill-opacity:1">
        <g clip-path="url(#clipPath4315-1)" id="g4313" style="fill:#ffffff;fill-opacity:1">
          <g transform="translate(159.71,757.54)" id="g4319" style="fill:#ffffff;fill-opacity:1">
            <path inkscape:connector-curvature="0" id="path4321" style="fill:#ffffff;fill-opacity:1;fill-rule:nonzero;stroke:none" d="m 0,0 c -3.6687,0.01389 -5.4726,1.8178 -5.288,4.335 0,1.394 0.52,2.499 1.559,3.319 1.04,0.819 2.522,1.23 4.443,1.23 l 3.437,0 0,0.949 c -0.1372,2.177 -1.8701,2.53 -3.517,2.54 -1.6382,-0 -3.1071,-0.445 -4.494,-1.085 l -0.238,1.984 c 1.5533,0.701 3.20021,1.051 4.787,1.058 2.416,-0.103 4.2847,-0.717 5.313,-2.684 0.247,-0.645 0.371,-1.431 0.371,-2.367 l 0,-8.963 -2.222,0 0,1.06 c -1.201,-1.03704 -2.724,-1.376 -4.151,-1.376 m 0.212,1.956 c 1.6511,0 2.9243,0.6063 3.939,1.692 l 0,3.33 -3.33,0 c -2.1197,0 -3.4479,-0.7547 -3.836,-2.589 0.1944,-1.8649 1.6943,-2.4211 3.227,-2.433" sodipodi:nodetypes="cccscccccccscccccccccc" />
          </g>
          <g transform="translate(175.23,769.91)" id="g4323" style="fill:#ffffff;fill-opacity:1">
            <path inkscape:connector-curvature="0" id="path4325" style="fill:#ffffff;fill-opacity:1;fill-rule:nonzero;stroke:none" d="m 0,0 c -1.5773,0 -2.6546,-0.73765 -3.647,-1.719 l 0,-10.338 -2.222,0 0,13.696 2.222,0 0,-1.11 c 1.1467,0.9792 2.5765,1.4189 3.938,1.427 3.8841,-0.1673 5.6559,-3.0659 5.686,-6.267 l 0,-7.746 -2.221,0 0,7.8 c -0.01,2.6187 -1.4255,4.23302 -3.756,4.257" sodipodi:nodetypes="ccccccccccccc" />
          </g>
          <g transform="translate(193.9,758.92)" id="g4327" style="fill:#ffffff;fill-opacity:1">
            <path inkscape:connector-curvature="0" id="path4329" style="fill:#ffffff;fill-opacity:1;fill-rule:nonzero;stroke:none" d="m 0,0 c -1.1239,-1.0029 -2.4982,-1.2687 -3.832,-1.376 -1.7801,0.063 -3.4107,0.70287 -4.537,1.916 -1.296,1.5317 -1.829,3.4428 -1.839,5.249 10e-4,2.7639 1.5768,5.643 3.862,6.676 0.776,0.327 1.612,0.488 2.514,0.488 1.5189,0.02 2.7136,-0.577 3.832,-1.373 l 0,6.664 2.221,0 0,-19.304 -2.221,0 z m 0,9.306 c -0.96203,1.215 -2.2747,1.557 -3.625,1.691 -2.9951,-0.143 -4.2956,-2.5763 -4.308,-5.208 0.01,-2.9922 1.4891,-4.89372 4.308,-5.209 1.5442,0.0133 2.67639,0.698 3.625,1.692 z" sodipodi:nodetypes="cccccccccccccccccc" />
          </g>
        </g>
      </g>
    </g>
    <g transform="matrix(1.1087,0,0,-1.1087,70.392,998.21)" id="g6249" />
    <g transform="matrix(1.1087,0,0,-1.1087,64.353,984.65)" id="g6254" />
  </g>
</svg>
