<?xml version="1.0" encoding="UTF-8"?>
<svg version="1.1" viewBox="0 0 250 91" xml:space="preserve" xmlns="http://www.w3.org/2000/svg" xmlns:cc="http://creativecommons.org/ns#" xmlns:dc="http://purl.org/dc/elements/1.1/" xmlns:rdf="http://www.w3.org/1999/02/22-rdf-syntax-ns#"><defs><style>.cls-1{fill:#fff}.cls-2{clip-path:url(#b)}.cls-3{fill:none}</style><clipPath id="b"><rect class="cls-3" x="75.11" y="25.54" width="599.77" height="198.91"/></clipPath><clipPath id="c" transform="translate(0)"><rect width="83.35" height="80.85" fill="none"/></clipPath></defs><g transform="matrix(.74212 0 0 .74212 94.056 15.5)" fill="#fff"><rect width="1.81" height="76.19"/><polygon points="21.01 46.64 12.9 46.64 12.9 53.69 10.85 53.69 10.85 38.3 12.9 38.3 12.9 44.92 21.01 44.92 21.01 38.3 23.06 38.3 23.06 53.69 21.01 53.69"/><g clip-path="url(#c)"><path d="m25.37 45.83a5.17 5.17 0 0 1 1-1.85 4.82 4.82 0 0 1 1.7-1.24 6.28 6.28 0 0 1 4.67 0 4.79 4.79 0 0 1 1.73 1.26 5.17 5.17 0 0 1 1 1.85 7.44 7.44 0 0 1 0.34 2.3 7.27 7.27 0 0 1-0.34 2.28 5.25 5.25 0 0 1-1 1.85 4.89 4.89 0 0 1-1.69 1.23 6.42 6.42 0 0 1-4.67 0 4.93 4.93 0 0 1-1.7-1.23 5.25 5.25 0 0 1-1-1.85 7.27 7.27 0 0 1-0.41-2.3 7.44 7.44 0 0 1 0.34-2.3m1.87 4.1a4 4 0 0 0 0.79 1.32 3.21 3.21 0 0 0 1.11 0.8 3.39 3.39 0 0 0 2.7 0 3.21 3.21 0 0 0 1.11-0.8 4 4 0 0 0 0.74-1.32 6.14 6.14 0 0 0 0-3.6 4 4 0 0 0-0.76-1.33 3.27 3.27 0 0 0-1.11-0.82 3.39 3.39 0 0 0-2.7 0 3.27 3.27 0 0 0-1.09 0.82 4 4 0 0 0-0.74 1.33 6.14 6.14 0 0 0 0 3.6"/><path d="m39.27 42.54v1.64a4.36 4.36 0 0 1 5.48-1.46 2.39 2.39 0 0 1 1.25 1.46 3.87 3.87 0 0 1 1.47-1.4 4.19 4.19 0 0 1 2-0.49 5.92 5.92 0 0 1 1.52 0.18 3.07 3.07 0 0 1 1.16 0.57 2.54 2.54 0 0 1 0.76 1 3.69 3.69 0 0 1 0.27 1.48v8.17h-1.83v-7.31a5 5 0 0 0-0.09-1 2.1 2.1 0 0 0-0.32-0.78 1.59 1.59 0 0 0-0.66-0.53 2.62 2.62 0 0 0-1.09-0.2 2.89 2.89 0 0 0-2.14 0.78 2.83 2.83 0 0 0-0.77 2.07v6.94h-1.83v-7.28a5 5 0 0 0-0.1-1 2.25 2.25 0 0 0-0.35-0.78 1.52 1.52 0 0 0-0.63-0.51 2.37 2.37 0 0 0-1-0.19 2.72 2.72 0 0 0-1.37 0.33 2.93 2.93 0 0 0-0.92 0.77 3.14 3.14 0 0 0-0.52 0.94 2.55 2.55 0 0 0-0.16 0.81v6.94h-1.85v-11.15z"/><path d="m63.33 53a5.06 5.06 0 0 1-3.15 1 5.72 5.72 0 0 1-2.32-0.43 4.65 4.65 0 0 1-1.65-1.21 5.24 5.24 0 0 1-1-1.85 9.17 9.17 0 0 1-0.38-2.35 6.66 6.66 0 0 1 0.39-2.33 5.54 5.54 0 0 1 1.09-1.84 4.94 4.94 0 0 1 1.69-1.27 5 5 0 0 1 2.1-0.43 4.55 4.55 0 0 1 2.47 0.61 4.91 4.91 0 0 1 1.58 1.56 6.64 6.64 0 0 1 0.82 2.07 8.89 8.89 0 0 1 0.18 2.14h-8.38a4.53 4.53 0 0 0 0.23 1.39 3 3 0 0 0 0.62 1.16 3.12 3.12 0 0 0 1.1 0.81 3.84 3.84 0 0 0 1.58 0.3 3.14 3.14 0 0 0 1.9-0.54 2.57 2.57 0 0 0 1-1.63h1.8a4.48 4.48 0 0 1-1.67 2.84m-0.44-7.16a3.19 3.19 0 0 0-0.67-1 3.26 3.26 0 0 0-1-0.67 3.22 3.22 0 0 0-1.22-0.27 3.3 3.3 0 0 0-1.29 0.25 3 3 0 0 0-1 0.68 3.38 3.38 0 0 0-0.65 1 4.1 4.1 0 0 0-0.28 1.22h6.41a4 4 0 0 0-0.29-1.23"/><path d="m68.11 51.2a2 2 0 0 0 0.68 0.67 3.18 3.18 0 0 0 0.95 0.36 5.52 5.52 0 0 0 1.09 0.1 7 7 0 0 0 0.9-0.06 3.09 3.09 0 0 0 0.88-0.24 1.55 1.55 0 0 0 0.65-0.51 1.29 1.29 0 0 0 0.26-0.85 1.23 1.23 0 0 0-0.52-1.08 4.62 4.62 0 0 0-1.36-0.59c-0.54-0.15-1.13-0.29-1.76-0.41a8.59 8.59 0 0 1-1.76-0.52 3.62 3.62 0 0 1-1.35-0.93 2.45 2.45 0 0 1-0.53-1.68 2.67 2.67 0 0 1 0.37-1.46 3.13 3.13 0 0 1 1-1 4.46 4.46 0 0 1 1.34-0.56 6.3 6.3 0 0 1 1.48-0.18 8.58 8.58 0 0 1 1.74 0.16 4.06 4.06 0 0 1 1.42 0.56 2.85 2.85 0 0 1 1 1.08 4.23 4.23 0 0 1 0.41 1.72h-1.86a1.88 1.88 0 0 0-0.29-0.9 1.82 1.82 0 0 0-0.6-0.57 2.62 2.62 0 0 0-0.81-0.31 3.8 3.8 0 0 0-0.89-0.1 4.65 4.65 0 0 0-0.83 0.07 3 3 0 0 0-0.77 0.22 1.64 1.64 0 0 0-0.56 0.43 1.13 1.13 0 0 0-0.21 0.71 1 1 0 0 0 0.33 0.78 2.72 2.72 0 0 0 0.85 0.52 8.12 8.12 0 0 0 1.17 0.35l1.29 0.29q0.69 0.15 1.35 0.36a4.82 4.82 0 0 1 1.16 0.57 2.83 2.83 0 0 1 0.82 0.9 2.61 2.61 0 0 1 0.31 1.34 3.12 3.12 0 0 1-0.46 1.68 3.34 3.34 0 0 1-1.1 1.08 4.67 4.67 0 0 1-1.53 0.57 8.79 8.79 0 0 1-1.69 0.16 7.8 7.8 0 0 1-1.77-0.2 4.33 4.33 0 0 1-1.49-0.63 3.25 3.25 0 0 1-1-1.17 4 4 0 0 1-0.42-1.75h1.83a2 2 0 0 0 0.28 1"/><polygon points="12.9 74.62 21.55 74.62 21.55 76.34 10.85 76.34 10.85 60.95 21.48 60.95 21.48 62.67 12.9 62.67 12.9 67.57 20.9 67.57 20.9 69.29 12.9 69.29"/><path d="m24.79 65.2v1.8a3.85 3.85 0 0 1 3.62-2 4.88 4.88 0 0 1 1.84 0.3 3 3 0 0 1 1.18 0.84 3.16 3.16 0 0 1 0.64 1.28 7.07 7.07 0 0 1 0.22 1.58v7.33h-1.83v-7.53a2.19 2.19 0 0 0-0.61-1.64 2.24 2.24 0 0 0-1.66-0.61 3.76 3.76 0 0 0-1.45 0.26 2.75 2.75 0 0 0-1 0.74 3.14 3.14 0 0 0-0.61 1.11 4.36 4.36 0 0 0-0.2 1.39v6.29h-1.87v-11.14z"/><path d="m42.94 79.49a5.07 5.07 0 0 1-3.94 1.36 8 8 0 0 1-1.59-0.17 4.92 4.92 0 0 1-1.41-0.56 3.43 3.43 0 0 1-1.09-1 2.83 2.83 0 0 1-0.48-1.53h1.84a1.35 1.35 0 0 0 0.31 0.84 2.18 2.18 0 0 0 0.71 0.56 3.45 3.45 0 0 0 0.92 0.32 5.26 5.26 0 0 0 1 0.09 3.39 3.39 0 0 0 1.53-0.31 3 3 0 0 0 1-0.86 3.61 3.61 0 0 0 0.6-1.33 7.51 7.51 0 0 0 0.18-1.7v-0.74a3.16 3.16 0 0 1-1.52 1.54 4.5 4.5 0 0 1-2 0.48 4.89 4.89 0 0 1-2.22-0.48 4.58 4.58 0 0 1-1.56-1.22 5.17 5.17 0 0 1-0.93-1.78 7.35 7.35 0 0 1-0.29-2.18 8.5 8.5 0 0 1 0.26-2 5.56 5.56 0 0 1 0.86-1.9 4.73 4.73 0 0 1 1.6-1.4 4.92 4.92 0 0 1 2.44-0.55 4.11 4.11 0 0 1 1.94 0.46 3.25 3.25 0 0 1 1.38 1.39v-1.6h1.72v10.2a5.83 5.83 0 0 1-1.25 4.1m-2.34-5a3 3 0 0 0 1-1 4.48 4.48 0 0 0 0.57-1.4 6.77 6.77 0 0 0 0.18-1.55 6.3 6.3 0 0 0-0.17-1.44 4.26 4.26 0 0 0-0.55-1.29 2.85 2.85 0 0 0-1-0.91 2.91 2.91 0 0 0-1.47-0.35 3.21 3.21 0 0 0-1.51 0.34 2.93 2.93 0 0 0-1 0.89 3.75 3.75 0 0 0-0.58 1.3 5.89 5.89 0 0 0-0.19 1.53 7.81 7.81 0 0 0 0.15 1.51 4.43 4.43 0 0 0 0.52 1.37 3 3 0 0 0 1 1 2.82 2.82 0 0 0 1.51 0.38 3 3 0 0 0 1.54-0.38"/><rect x="46.5" y="60.95" width="1.83" height="15.4"/><path d="m60.57 76.3a2.53 2.53 0 0 1-1.31 0.28 1.55 1.55 0 0 1-1.13-0.4 1.72 1.72 0 0 1-0.42-1.3 4.4 4.4 0 0 1-1.71 1.3 5.74 5.74 0 0 1-2.17 0.4 6 6 0 0 1-1.43-0.17 3.56 3.56 0 0 1-1.18-0.54 2.63 2.63 0 0 1-0.78-1 3.16 3.16 0 0 1-0.3-1.44 3.21 3.21 0 0 1 0.33-1.55 2.79 2.79 0 0 1 0.85-1 3.86 3.86 0 0 1 1.21-0.57 12.24 12.24 0 0 1 1.39-0.32c0.5-0.1 1-0.18 1.43-0.23a7.17 7.17 0 0 0 1.2-0.22 2.1 2.1 0 0 0 0.82-0.4 1 1 0 0 0 0.3-0.79 1.83 1.83 0 0 0-0.23-1 1.48 1.48 0 0 0-0.58-0.56 2.28 2.28 0 0 0-0.8-0.26 5.1 5.1 0 0 0-0.87-0.07 3.81 3.81 0 0 0-1.99 0.54 1.86 1.86 0 0 0-0.84 1.67h-1.83a3.83 3.83 0 0 1 0.47-1.75 3.27 3.27 0 0 1 1-1.15 4.29 4.29 0 0 1 1.48-0.64 7.77 7.77 0 0 1 1.78-0.19 10.8 10.8 0 0 1 1.5 0.1 3.93 3.93 0 0 1 1.34 0.45 2.48 2.48 0 0 1 1 0.93 2.94 2.94 0 0 1 0.33 1.58v5.72a4.2 4.2 0 0 0 0.08 1c0.05 0.2 0.22 0.3 0.5 0.3a2.51 2.51 0 0 0 0.56-0.08zm-3-5.71a2.31 2.31 0 0 1-0.91 0.37c-0.37 0.08-0.76 0.14-1.17 0.19s-0.83 0.11-1.24 0.18a4.08 4.08 0 0 0-1.12 0.31 2 2 0 0 0-0.81 0.61 1.67 1.67 0 0 0-0.32 1.08 1.47 1.47 0 0 0 0.18 0.76 1.54 1.54 0 0 0 0.47 0.51 2.07 2.07 0 0 0 0.68 0.28 4.3 4.3 0 0 0 0.82 0.08 4.43 4.43 0 0 0 1.55-0.24 3.27 3.27 0 0 0 1.06-0.63 2.51 2.51 0 0 0 0.6-0.81 2.05 2.05 0 0 0 0.2-0.83z"/><path d="m63.6 65.2v1.8a3.84 3.84 0 0 1 3.62-2 4.86 4.86 0 0 1 1.83 0.3 3.06 3.06 0 0 1 1.19 0.84 3.14 3.14 0 0 1 0.63 1.28 7.05 7.05 0 0 1 0.24 1.58v7.33h-1.84v-7.53a2.22 2.22 0 0 0-0.6-1.64 2.26 2.26 0 0 0-1.67-0.61 3.81 3.81 0 0 0-1.46 0.26 2.64 2.64 0 0 0-1 0.74 3 3 0 0 0-0.61 1.11 4.36 4.36 0 0 0-0.21 1.39v6.29h-1.84v-11.14z"/><path d="m81.52 76.34v-1.51a2.68 2.68 0 0 1-1.43 1.34 5.43 5.43 0 0 1-2.13 0.41 5.11 5.11 0 0 1-2.25-0.47 4.58 4.58 0 0 1-1.6-1.28 5.71 5.71 0 0 1-1-1.85 8.16 8.16 0 0 1 0-4.49 5.45 5.45 0 0 1 1-1.84 4.62 4.62 0 0 1 1.6-1.25 5 5 0 0 1 2.23-0.46 6.25 6.25 0 0 1 0.92 0.08 5.39 5.39 0 0 1 1 0.29 4.34 4.34 0 0 1 0.93 0.54 3 3 0 0 1 0.75 0.83v-5.68h1.83v15.34zm-6.59-4a4.24 4.24 0 0 0 0.63 1.32 3 3 0 0 0 1.08 0.93 3.27 3.27 0 0 0 1.54 0.34 3.17 3.17 0 0 0 1.57-0.36 3.27 3.27 0 0 0 1.06-1 4.11 4.11 0 0 0 0.59-1.35 6.54 6.54 0 0 0 0.19-1.53 6.33 6.33 0 0 0-0.2-1.58 4 4 0 0 0-0.61-1.35 3.21 3.21 0 0 0-1.09-0.94 3.4 3.4 0 0 0-1.62-0.36 3.17 3.17 0 0 0-1.57 0.37 2.94 2.94 0 0 0-1 1 4.26 4.26 0 0 0-0.56 1.38 7.69 7.69 0 0 0-0.17 1.6 6 6 0 0 0 0.2 1.52"/><path d="m9.89 14.37"/><path d="m31.45 15.6a5.08 5.08 0 0 0-0.85-2.18 0.32 0.32 0 0 0 0.13-0.2 0.26 0.26 0 0 0-0.23 0.06l-0.09-0.12a4.08 4.08 0 0 0-2-1.4 0.15 0.15 0 0 0-0.18-0.15 0.11 0.11 0 0 0-0.08 0.09 0.29 0.29 0 0 0-0.17-0.07 0.31 0.31 0 0 0 0.05 0.2 0.12 0.12 0 0 0-0.1 0.06 0.15 0.15 0 0 0 0.1 0.2v1.6a0.28 0.28 0 0 0-0.19 0.09 0.33 0.33 0 0 0 0.19 0.09v1.73a0.14 0.14 0 0 0-0.11 0.18 0.11 0.11 0 0 0 0.11 0.07 0.42 0.42 0 0 0 0 0.16 0.24 0.24 0 0 0 0.15 0h0.05a0.11 0.11 0 0 0 0.07 0.11c0.05 0 0.15 0 0.18-0.11h1.16a0.28 0.28 0 0 0 0.09 0.2 0.28 0.28 0 0 0 0.09-0.2h1.31c0 0.11 0.14 0.16 0.2 0.13a0.13 0.13 0 0 0 0.07-0.13 0.35 0.35 0 0 0 0.18 0 0.33 0.33 0 0 0-0.05-0.15v-0.05a0.11 0.11 0 0 0 0.11-0.07c0-0.06 0-0.17-0.14-0.19m-1.12-2.38a4.94 4.94 0 0 1 1 2.68h-3.27v-4.05a3.87 3.87 0 0 1 2.22 1.42"/><path d="m31.29 15.78a4.77 4.77 0 0 0-1-2.51 3.91 3.91 0 0 0-0.94-0.88 3.33 3.33 0 0 0-1.09-0.49h-0.06v4h3.1zm-1.14-2.5a0.1 0.1 0 0 0 0 0.1 0.15 0.15 0 0 0 0.14 0.09 0.32 0.32 0 0 0-0.11 0.19 0.28 0.28 0 0 0 0.21-0.05 0.12 0.12 0 0 0 0.05 0.15 0.09 0.09 0 0 0 0.09 0 4.92 4.92 0 0 1 0.66 1.82 0.33 0.33 0 0 0-0.15 0 0.38 0.38 0 0 0 0.06 0.17h-1.1a0.13 0.13 0 0 0-0.07-0.12 0.14 0.14 0 0 0-0.15 0.06 0.33 0.33 0 0 0-0.09-0.2 0.28 0.28 0 0 0-0.09 0.2 0.14 0.14 0 0 0-0.15-0.06 0.15 0.15 0 0 0-0.08 0.12h-0.97a0.38 0.38 0 0 0 0.06-0.17 0.35 0.35 0 0 0-0.18 0.06v-1.55a0.15 0.15 0 0 0 0.14-0.07 0.13 0.13 0 0 0-0.06-0.15 0.33 0.33 0 0 0 0.2-0.09 0.28 0.28 0 0 0-0.2-0.09 0.13 0.13 0 0 0 0.06-0.15 0.16 0.16 0 0 0-0.14-0.08v-1.29l0.15 0.05a0.43 0.43 0 0 0 0-0.17 3.78 3.78 0 0 1 1.75 1.23"/><path d="m30.68 15.15a0.26 0.26 0 0 0 0.13-0.12 0.18 0.18 0 0 1-0.14 0s0.11 0 0-0.08-0.09-0.09-0.15 0-0.43 0-0.43-0.3a0.26 0.26 0 0 0 0.13 0.1c0.18 0.11 0.35 0 0.37-0.11s-0.13-0.23-0.3-0.36l-0.16-0.15c-0.05-0.11 0-0.21-0.15-0.41v-0.17a0.5 0.5 0 0 0 0.08 0.59c0.16 0.17 0.49 0.34 0.48 0.49a0.09 0.09 0 0 1-0.09 0.07 0.35 0.35 0 0 1-0.23-0.11 5.16 5.16 0 0 1-0.35-0.42 0.67 0.67 0 0 1-0.06-0.56c0.11-0.15-0.06-0.46-0.17-0.53a0.28 0.28 0 0 0 0-0.17 0.18 0.18 0 0 1-0.1 0c0-0.06 0-0.07-0.08-0.08s-0.06 0-0.07-0.07-0.05 0.07-0.09 0.07h-0.1a0.16 0.16 0 0 1-0.12 0c-0.06 0-0.06 0-0.06 0.08s0 0.07 0.05 0.09l0.05 0.06v-0.07h0.13c0.02 0 0 0.05 0 0.06h-0.13v0.08c0 0.03 0.05 0.05 0.12 0s0.21 0 0.21 0-0.2 0.16-0.24 0.36a0.27 0.27 0 0 1-0.11-0.1 0.6 0.6 0 0 0-0.15-0.18 0.55 0.55 0 0 0-0.14-0.12c-0.07 0-0.07-0.07-0.07-0.14v-0.17-0.05a0.11 0.11 0 0 0-0.09-0.06 0.15 0.15 0 0 1 0 0.06v0.06s0-0.1-0.08-0.1 0 0 0 0-0.05-0.08-0.1 0c0 0 0 0.07 0.07 0.07h-0.11v0.09-0.05h0.05v0.11a0.07 0.07 0 0 1-0.12-0.05c-0.06 0.1 0.05 0.18 0.14 0.14s0 0.11 0 0.11 0 0.06 0.05 0.06 0 0 0 0l0.05 0.08a0.68 0.68 0 0 0 0.33 0.36 1.05 1.05 0 0 0-0.24 0.23c-0.05 0.06-0.13 0.11-0.18 0.08s0 0-0.06-0.06-0.05 0-0.06 0a0.08 0.08 0 0 0-0.1 0 0.09 0.09 0 0 1 0.07 0h0.12c0.12 0 0 0 0 0a0.03 0 0 0 0-0.06 0s-0.06-0.05-0.1 0c0 0-0.08 0.09 0 0.13a0.07 0.07 0 0 1 0-0.07s0.06 0.07 0.13 0 0 0 0 0v0.12a0.09 0.09 0 0 0 0.12 0.05 0.07 0.07 0 0 1-0.06-0.06v-0.11s0.05 0.07 0.1 0a0.12 0.12 0 0 0 0.05-0.07 0.24 0.24 0 0 1 0.18 0s0-0.09 0.1-0.11 0.11 0 0.13 0a0.31 0.31 0 0 1 0.08-0.13c0 0.29 0.39 0.28 0.48 0.46a0.61 0.61 0 0 0-0.33-0.06c-0.09 0-0.26 0.11-0.28 0.22a0.37 0.37 0 0 0 0.17 0.31h-0.26c-0.09 0-0.11-0.15-0.21-0.11 0 0-0.1 0-0.09 0.09a0.15 0.15 0 0 1 0.06 0h0.31s-0.13 0-0.11 0.09c0 0 0 0.07 0.08 0h0.03s0.05 0.08 0.11 0-0.06 0-0.06 0h0.06a0.06 0.06 0 0 0 0.08 0h0.05s0-0.07 0.11 0l0.06-0.05h0.12c0.03 0 0 0 0-0.1s-0.06-0.08-0.08-0.16 0.17-0.23 0.29-0.21a0.67 0.67 0 0 0 0.38 0.41c0.13 0 0.19-0.1 0.23-0.08v0.16c0 0.03-0.09 0-0.14 0s-0.09 0-0.09 0.09h0.08a0.06 0.06 0 0 0 0.11 0s-0.09 0.08 0 0.1a0.08 0.08 0 0 0 0.05 0.08v-0.07s0-0.07 0.06-0.09v0.1a0.06 0.06 0 0 0 0.1 0s-0.05-0.09-0.05-0.13 0.08 0 0.08-0.1c0 0 0.09 0 0.09-0.09a0.15 0.15 0 0 1-0.11 0"/><polyline points="29.15 13.01 29.15 13.01 29.15 13.01"/><path d="m27 17.43h-0.1v-0.07a0.42 0.42 0 0 0-0.44-0.48 7.47 7.47 0 0 1-1.48 0.34 2 2 0 0 1-0.88-0.28l-0.09 0.21a0.18 0.18 0 0 0-0.18-0.17 0.18 0.18 0 0 0-0.17 0.17 0.18 0.18 0 0 0 0.17 0.18 0.17 0.17 0 0 0 0.14-0.07l-0.09 0.21h0.09a2.88 2.88 0 0 0 2.03 2.86c0.21-0.06 0.45 0 0.45 0.21a0.18 0.18 0 0 1-0.2 0.2c-0.08 0-0.14 0-0.14-0.1s0.17 0 0.19-0.11 0-0.12-0.14-0.12a0.23 0.23 0 0 0-0.24 0.23 0.3 0.3 0 0 0 0.32 0.3 0.41 0.41 0 0 0 0.44-0.47c0.07 0 0.16 0 0.18-0.08v-0.22h-0.07l0.06-2.46h0.15a0.15 0.15 0 0 0 0.18-0.13 0.15 0.15 0 0 0-0.15-0.15m-2.54 0.19 1.71 2.45a2.43 2.43 0 0 1-1.71-2.45m1.76 2.21-1.6-2.23h0.38l1.24 1.79c0 0.17-0.05 0.33-0.07 0.45m-1-2.28a2 2 0 0 0 0.35-0.1l0.82 1.18c0 0.16-0.05 0.33-0.08 0.5zm1.36-0.15h-0.06c-0.08 0-0.17 0-0.18 0.13s0.06 0.15 0.15 0.16h0.05l-0.11 0.7-0.69-1a3.63 3.63 0 0 1 0.72-0.26c0.12 0 0.14 0.05 0.12 0.28"/><polyline points="26.42 12.19 26.42 12.19 26.42 12.19"/><path d="m26.78 12.89c0.34 0 0.51-0.11 0.51-0.22 0-0.38-0.94-0.15-0.94-0.38 0 0 0-0.07 0.07-0.1 0.47 0 0.49-0.38 0.83-0.44-0.41-0.06-0.47 0.26-0.64 0.28a0.23 0.23 0 0 0 0.12-0.2c-0.08 0.11-0.27 0.12-0.37 0.25a0.1 0.1 0 0 0 0 0.07c-0.06 0-0.1 0.08-0.1 0.14 0 0.36 1 0.11 1 0.37 0 0.09-0.16 0.16-0.43 0.16s-0.34-0.15-0.7-0.05c0-0.06 0.12-0.18 0.07-0.23a0.09 0.09 0 0 0 0.06-0.08 0.09 0.09 0 0 0-0.07 0 0.11 0.11 0 0 0 0-0.05 0.32 0.32 0 0 0-0.08-0.06 0.18 0.18 0 0 0-0.09 0h-0.05-0.05a0.09 0.09 0 0 0-0.07 0 0.16 0.16 0 0 0 0 0.1s-0.07 0.09-0.1 0.08 0 0 0 0 0 0.11-0.07 0.11 0 0 0 0a0.82 0.82 0 0 0-0.05 0.22l-0.07-0.06c-0.06 0-0.05-0.06-0.05-0.11s0.05-0.09 0.05-0.14c0 0 0-0.06-0.07-0.05a0.06 0.06 0 0 1 0 0.05v0.05s0-0.08-0.06-0.08c0 0 0-0.07-0.08 0 0 0 0 0.05 0.06 0.05h-0.1v0.07s-0.05 0.08 0 0.09c0 0.08-0.13 0.06-0.11 0-0.08 0.09 0 0.16 0.11 0.12v0.05s0 0.06 0.09 0.12l-0.22 0.06a0.46 0.46 0 0 0-0.16 0c-0.06 0-0.19 0.08-0.23 0s0 0 0-0.06a0.08 0.08 0 0 0-0.09 0s0 0.05 0.08 0.08 0 0 0 0a0.05 0.05 0 0 1-0.05 0s0-0.06-0.08 0c0 0-0.1 0.05-0.07 0.09a0.11 0.11 0 0 1 0.05 0s0 0.07 0.12 0c0 0-0.08 0.08 0 0.1a0.07 0.07 0 0 0 0.07 0.08 0.07 0.07 0 0 1 0-0.07s0-0.06 0.05-0.08 0 0 0 0a0.06 0.06 0 0 0 0.06 0.06 0.08 0.08 0 0 0 0.07-0.07 0.06 0.06 0 0 1 0 0.06 0.06 0.06 0 0 1 0 0.09 0.15 0.15 0 0 0 0.09-0.09 0.19 0.19 0 0 0 0.1 0 0.025 0-90 0 0 0 0.05v0.07c0 0.07 0.08-0.07 0.16-0.12 0 0 0.09 0 0.09-0.07h0.06a0.11 0.11 0 0 0 0.09 0v0.06c0 0.06 0.18-0.09 0.21-0.09s-0.11-0.17 0.26-0.15a0.18 0.18 0 0 0 0.1 0v0.18a0.18 0.18 0 0 1 0.1 0h-0.07c-0.09 0.05-0.09-0.14-0.19-0.1 0 0-0.09 0-0.08 0.08a0.09 0.09 0 0 1 0.06 0s-0.11 0-0.09 0.07c0 0 0 0.06 0.08 0.05s0 0 0 0a0.06 0.06 0 0 0 0.1 0h-0.05 0.06a0.035 0-180 0 0 0.07 0c0.06 0 0-0.07 0.06-0.08h0.14a0.15 0.15 0 0 0-0.05-0.14v-0.09a0.53 0.53 0 0 0 0.18 0h0.07a0.2 0.2 0 0 1 0.16 0v0.11c0 0.03-0.07 0-0.11 0a0.1 0.1 0 0 0-0.07 0.08h0.06a0.05 0.05 0 0 0 0.09 0s-0.08 0.06 0 0.08a0.03 0-90 0 0 0 0.06v-0.05-0.08 0.09s0 0.05 0.08 0v-0.1c0-0.03 0.07 0 0.07-0.09h0.05c0.05 0 0 0 0-0.07v0-0.07c0-0.07-0.07 0-0.08 0h-0.05-0.3c-0.16 0 0 0 0 0m-0.88-0.49a0.035 0 0 0 0-0.07 0v-0.08l0.1 0.05m0.06 0.18h-0.05c-0.05 0 0 0.05-0.07 0s0-0.05 0-0.07v0-0.05 0h0.09m0.05-0.07v-0.07l0.12 0.05h-0.08"/><path d="m24.7 14a0.94 0.94 0 0 0-0.14-0.12c-0.06 0-0.06-0.07 0-0.13s0-0.11 0-0.16-0.05-0.06-0.08-0.06a0.07 0.07 0 0 1 0 0.06 0.06 0.06 0 0 0 0 0.06s0-0.09-0.07-0.1c0 0 0-0.07-0.09 0s0 0 0 0 0 0.06 0.07 0.06h-0.11a0.06 0.06 0 0 0 0 0.09h0.05v0.1 0s-0.13 0.07-0.12 0c-0.07 0.11 0 0.18 0.13 0.13a0.06 0.06 0 0 0 0 0.06s0.06 0.07 0.13 0.11 0.1 0.09 0.14 0 0.05 0.14 0 0.14h-0.23c-0.04 0-0.21 0.08-0.25 0a0.36 0.36 0 0 0 0-0.07 0.05 0.05 0 0 0-0.05 0 0.08 0.08 0 0 0-0.1 0 0.06 0.06 0 0 1 0.06 0l0.09 0.09c0.09 0.09 0 0 0 0h-0.05c-0.05 0 0-0.07-0.09 0-0.05 0-0.11 0.05-0.08 0.1a0.08 0.08 0 0 1 0.05-0.05s0 0.08 0.13 0c0 0-0.09 0.08 0 0.11a0.08 0.08 0 0 0 0.08 0.09 0.07 0.07 0 0 1 0-0.08c0.05 0 0-0.08 0.06-0.1s0 0.08 0.07 0.07a0.07 0.07 0 0 0 0.07-0.08 0.06 0.06 0 0 1 0 0.06 0.09 0.09 0 0 1 0 0.1 0.16 0.16 0 0 0 0.1-0.1 0.23 0.23 0 0 0 0.11 0v0.06 0 0.09c0-0.15 0.09-0.09 0.18-0.15 0.1 0 0.25-0.12 0.27-0.19h0.1c0.28 0 0.08-0.26 0.54-0.18 0 0 0.08 0 0.11-0.05s0 0.18 0 0.2a0.21 0.21 0 0 1 0.1 0h-0.09c-0.09 0.07-0.1-0.14-0.2-0.1 0 0-0.09 0-0.08 0.09a0.15 0.15 0 0 1 0.06 0h0.05s-0.13 0-0.1 0.08c0 0 0 0.07 0.07 0.05s0 0 0 0h0.05s0 0.08 0.1 0-0.05 0-0.05 0a0.07 0.07 0 0 0 0.08 0c0.07 0 0-0.08 0.07-0.1h0.14a0.14 0.14 0 0 0-0.05-0.16v-0.1a0.6 0.6 0 0 0 0.21 0 0.34 0.34 0 0 0 0.25-0.06 0.2 0.2 0 0 1 0.17 0v0.12c0 0.03-0.08 0-0.12 0a0.1 0.1 0 0 0-0.08 0.09h0.07a0.045 0-180 0 0 0.09 0s-0.08 0.07 0 0.09a0.06 0.06 0 0 0 0.05 0.06v-0.06s0-0.06 0.05-0.08v0.09a0.06 0.06 0 0 0 0.09 0v-0.11c0-0.03 0.08 0 0.08-0.1v0h0.06c0.01 0 0-0.05-0.05-0.08a0.11 0.11 0 0 0 0-0.09s-0.09 0.06-0.09 0 0-0.05-0.07 0a1.7 1.7 0 0 1-0.34 0c0.21 0 0.52-0.06 0.52-0.17s-0.11-0.17-0.43-0.17-1.05 0.12-1.05-0.06 0.14-0.08 0.31-0.07h0.07c0.42 0.12 0.9-0.1 1.15 0-0.29-0.22-0.54 0-0.85-0.06 0.18 0 0.25-0.05 0.26-0.1-0.15 0.09-0.42-0.05-0.59 0.06-0.23 0-0.42 0-0.42 0.14 0 0.32 0.86 0.14 1.13 0.14s0.33 0 0.33 0.07-0.27 0.1-0.42 0.1a7.15 7.15 0 0 0-1.36 0c0-0.07 0.11-0.16 0.06-0.21a0.08 0.08 0 0 0 0.07-0.08 0.11 0.11 0 0 0-0.08 0v-0.06a0.21 0.21 0 0 0 0-0.06l-0.09-0.06h-0.23a0.16 0.16 0 0 0 0 0.12s-0.07 0.1-0.11 0.09c0 0.05-0.05 0.12-0.08 0.13s0 0 0.05 0a0.62 0.62 0 0 0 0 0.13h-0.07zm0.51-0.29h0.12-0.08c-0.08 0-0.05-0.05 0-0.08m-0.08 0s-0.05 0.05-0.08 0 0 0 0-0.09a0.41 0.41 0 0 0 0.11 0.06m-0.2 0.4v-0.06 0l0.1 0.05h-0.06c-0.06 0 0 0 0 0.05a0.028284 0 45 0 0-0.04-0.04m0.26 0.56"/><path d="m24.91 15.9h0.09c0.1 0 0.09-0.09 0.12-0.08 0.53 0.07 0.23-0.23 0.85-0.17h0.07c0.07 0 0 0.15 0 0.17a0.21 0.21 0 0 1 0.11 0h-0.09c-0.09 0.07-0.1-0.14-0.2-0.1 0 0-0.09 0.05-0.08 0.09h0.11s-0.13 0-0.1 0.08c0 0 0 0.06 0.07 0s0 0 0 0v0.06a0.07 0.07 0 0 0 0.11 0h-0.05a0.06 0.06 0 0 0 0.08 0c0.07 0 0-0.08 0.07-0.09h0.15a0.17 0.17 0 0 0-0.06-0.16v-0.1a0.59 0.59 0 0 0 0.2 0.05 0.31 0.31 0 0 0 0.25-0.07 0.23 0.23 0 0 1 0.18 0v0.12c0 0.03-0.08 0-0.12 0a0.1 0.1 0 0 0-0.08 0.09h0.06a0.045 0-180 0 0 0.09 0s-0.08 0.07 0 0.09a0.08 0.08 0 0 0 0.05 0.07v-0.07l0.21 0.12v0.09 0s0 0.05 0.09 0v-0.11c0-0.03 0.08 0 0.08-0.09a0.05 0.05 0 0 0 0-0.05h0.06c0.01 0 0-0.05-0.05-0.08v-0.09c0-0.09-0.08 0.06-0.09 0s0 0-0.07 0a1.84 1.84 0 0 1-0.35 0c0.19 0 0.53 0 0.53-0.17s-0.11-0.16-0.43-0.16-1.32 0.11-1.32-0.07 0.34-0.07 0.58-0.06a0.16 0.16 0 0 0 0.08 0c0.41 0.11 0.85-0.16 1.14-0.06-0.23-0.22-0.54 0-0.85-0.05 0.18 0 0.37 0 0.39-0.08-0.15 0.09-0.55-0.07-0.72 0-0.3 0-0.67 0-0.67 0.14s1.12 0.14 1.39 0.14 0.33 0 0.33 0.08-0.27 0.09-0.42 0.09a7.51 7.51 0 0 0-1.72 0c0-0.07 0.12-0.18 0.08-0.23a0.11 0.11 0 0 0 0.06-0.09 0.11 0.11 0 0 0-0.07 0v-0.06-0.06a0.26 0.26 0 0 0-0.09-0.06h-0.16-0.05-0.07a0.13 0.13 0 0 0 0 0.12s-0.08 0.1-0.12 0.09 0 0 0 0-0.05 0.12-0.08 0.13a0.28 0.28 0 0 0 0 0.09h-0.14c-0.05 0-0.09-0.09-0.17-0.14s-0.07-0.07-0.07-0.13v-0.16-0.05a0.11 0.11 0 0 0-0.09-0.06v0.06a0.06 0.06 0 0 0-0.01 0.08s0-0.09-0.07-0.1c0 0 0-0.07-0.09 0s0 0 0 0 0 0.06 0.07 0.06h-0.1v0.09-0.05 0.1c0 0.09-0.13 0.07-0.12 0-0.07 0.11 0 0.18 0.14 0.13s0 0 0 0a0.06 0.06 0 0 0 0.05 0.06 0.78 0.78 0 0 0 0.21 0.2h0.07v0.13a0.8 0.8 0 0 0-0.26 0c-0.06 0-0.21 0.08-0.25 0s0 0 0-0.07h-0.05a0.08 0.08 0 0 0-0.1 0h0.06s0 0.06 0.09 0.09h0.15s0-0.07-0.08-0.05c0 0-0.11 0.05-0.08 0.1s0 0 0 0c0 0.05 0 0.09 0.13 0 0 0-0.09 0.08 0 0.12a0.09 0.09 0 0 0 0.08 0.1v-0.09s0-0.08 0.05-0.09 0 0 0 0 0 0.08 0.07 0.07a0.08 0.08 0 0 0 0.08-0.08 0.06 0.06 0 0 1 0 0.06 0.1 0.1 0 0 1 0 0.1 0.15 0.15 0 0 0 0.09-0.1 0.39 0.39 0 0 0 0.11 0v0.06 0 0.09c0-0.14 0.18-0.07 0.27-0.13a0.19 0.19 0 0 0 0.1 0c0.06 0 0.17-0.07 0.16-0.11m-0.04-0.69s-0.06 0.06-0.08 0 0 0 0-0.09a0.41 0.41 0 0 0 0.11 0.06m0.06 0.2h-0.06a0.03 0-90 0 0 0 0.06s0 0.05-0.07 0a0.06 0.06 0 0 1 0-0.08v-0.05 0h0.1m0.06-0.07s-0.05-0.05-0.05-0.09a0.39 0.39 0 0 0 0.13 0.05h-0.08"/><path d="m31.29 17.62a0.09 0.09 0 0 0 0-0.08s-0.09 0.06-0.1 0 0 0-0.06 0a2 2 0 0 1-0.37 0c0.22 0 0.52 0 0.52-0.16s-0.11-0.16-0.43-0.16-1.31 0.12-1.31-0.06 0.33-0.07 0.58-0.06a0.14 0.14 0 0 0 0.07 0c0.42 0.12 0.89-0.19 1.14-0.12-0.33-0.11-0.53 0.08-0.85 0 0.19 0 0.38 0 0.39-0.09-0.14 0.09-0.54-0.06-0.71 0-0.31 0-0.68 0-0.68 0.14s1.13 0.13 1.4 0.13 0.33 0 0.33 0.08-0.27 0.1-0.42 0.1a8.17 8.17 0 0 0-1.73 0c0-0.07 0.13-0.18 0.08-0.23s0.07-0.05 0.07-0.08 0 0-0.08 0 0 0 0-0.06a0.17 0.17 0 0 0 0-0.05l-0.1-0.07a0.18 0.18 0 0 0-0.09 0h-0.06-0.05a0.11 0.11 0 0 0-0.08 0 0.13 0.13 0 0 0 0 0.11s-0.08 0.1-0.11 0.09 0 0 0 0 0 0.13-0.08 0.13 0 0.05 0.05 0.05v0.09h-0.16c-0.05 0-0.09-0.08-0.18-0.13s-0.06-0.07-0.06-0.14v-0.15a0.21 0.21 0 0 0 0-0.06 0.07 0.07 0 0 0-0.08 0v0.06s0-0.1-0.06-0.1c0 0 0-0.07-0.09 0s0 0 0 0c0 0.05 0 0.06 0.08 0.06h-0.11v0.08 0h0.08c-0.05 0.05 0 0.1 0 0.11 0 0.1-0.12 0.08-0.12 0-0.06 0.1 0.05 0.18 0.14 0.13s0 0 0 0v0.06s0.08 0.13 0.21 0.2 0.05 0 0.08-0.05a0.07 0.07 0 0 0 0 0.06c0 0.06 0.06 0.12 0.05 0.12a0.64 0.64 0 0 0-0.19 0c-0.06 0-0.2 0.09-0.25 0a0.26 0.26 0 0 0 0-0.08 0.07 0.07 0 0 0-0.05 0h-0.1a0.05 0.05 0 0 1 0.05 0l0.09 0.08c0.09 0.08 0-0.07-0.09 0 0 0-0.1 0-0.07 0.09s0 0 0.05 0c0 0.05 0 0.08 0.13 0s0 0 0 0-0.09 0.08 0 0.11c0 0.05 0.05 0.09 0.09 0.09a0.08 0.08 0 0 1 0-0.08s0-0.07 0.06-0.09 0 0 0 0a0.07 0.07 0 0 0 0.07 0.07c0.05 0 0.08-0.05 0.07-0.08v0.06h0.05a0.08 0.08 0 0 1 0 0.1 0.13 0.13 0 0 0 0.09-0.1h0.13a0.025 0-90 0 0 0 0.05v0.09c0-0.14 0.09-0.08 0.18-0.14s0 0 0 0 0.16-0.06 0.16-0.11h0.09c0.09 0 0.08-0.06 0.12-0.06 0.53 0.07 0.22-0.22 0.84-0.17 0 0 0.05 0 0.07-0.05s0 0.18 0 0.19 0.09 0 0.11 0.05h-0.08c-0.1 0.06-0.1-0.15-0.2-0.11 0 0-0.1 0.05-0.09 0.09a0.09 0.09 0 0 1 0.07 0s-0.12 0-0.1 0.09c0 0 0.31 0.34 0.31 0.34s0.05 0.08 0.11 0h-0.06 0.05a0.05 0.05 0 0 0 0.08 0c0.06 0 0-0.08 0.06-0.09h0.15c0.01 0 0-0.13-0.05-0.16s0-0.06 0-0.11a0.42 0.42 0 0 0 0.2 0.05 0.41 0.41 0 0 0 0.26-0.06 0.24 0.24 0 0 1 0.18 0v0.12c0 0.04-0.08 0-0.12 0h-0.05s-0.08 0-0.08 0.08a0.11 0.11 0 0 1 0.07 0c0 0.06 0 0.07 0.09 0s0 0 0 0 0.04 0.17 0.11 0.17a0.06 0.06 0 0 0 0 0.07v-0.06s0-0.07 0.06-0.09 0 0 0 0v0.09a0.06 0.06 0 0 0 0.09 0v-0.12c0-0.04 0.07 0 0.08-0.09a0.025 0 90 0 0 0-0.05 0.06 0.06 0 0 0 0.06 0c-0.06 0 0 0 0-0.07m-2.29-0.68 0.12 0.05h-0.08c-0.08 0-0.04 0-0.04-0.05m-0.08 0s-0.05 0.05-0.08 0 0 0 0-0.09a0.28 0.28 0 0 0 0.11 0.07m-0.12 0.26v-0.05 0l0.1 0.05h-0.06a0.09 0.09 0 0 0 0 0.05v0.05c0 0.05 0 0.06-0.08 0a0.06 0.06 0 0 1 0-0.08"/><path d="m29.86 18.28 0.08 0.06c0.39 0.11 0.84-0.19 1.08-0.12-0.31-0.11-0.51 0.08-0.8 0 0.17 0 0.36 0 0.36-0.08s-0.51-0.06-0.68 0c-0.16 0-0.39 0-0.39 0.13 0 0.31 0.82 0.13 1.07 0.13s0.23 0 0.23 0.07-0.3 0.09-0.44 0.09a6.62 6.62 0 0 0-1.3 0c0-0.07 0.11-0.15 0.07-0.2a0.1 0.1 0 0 0 0.06-0.08 0.11 0.11 0 0 0-0.07 0v-0.06 0l-0.13-0.09h-0.15a0.11 0.11 0 0 0-0.07 0 0.1 0.1 0 0 0 0 0.11s-0.08 0.09-0.11 0.08 0 0 0 0 0 0.12-0.08 0.12a0.36 0.36 0 0 0 0 0.11h-0.09a0.32 0.32 0 0 1-0.15-0.05c-0.07 0-0.07-0.06-0.07-0.13v-0.15 0a0.09 0.09 0 0 0-0.08-0.06 0.09 0.09 0 0 1 0 0.06v0.06s0-0.1-0.06-0.1c0 0 0-0.07-0.09 0 0 0 0 0.06 0.07 0.06s0 0 0 0h-0.1v0.08 0c-0.05 0.05 0 0.09 0 0.1v0s-0.12 0.07-0.11 0c-0.06 0.1 0 0.17 0.13 0.13s0 0 0 0a0.06 0.06 0 0 0 0 0.06h0.11c0.11 0 0 0 0 0h0.08v0.15h-0.18c-0.04 0-0.2 0.08-0.24 0a0.36 0.36 0 0 0 0-0.07 0.08 0.08 0 0 0-0.09 0h0.05l0.08 0.09h-0.05c-0.05 0 0.2 0.22 0.2 0.22s-0.1 0.05-0.08 0.09a0.11 0.11 0 0 1 0.05 0c0 0.05 0 0.08 0.12 0 0 0-0.08 0.08 0 0.11 0 0.05 0 0.09 0.08 0.09a0.15 0.15 0 0 1 0-0.08s0-0.08 0.05-0.09a0.07 0.07 0 1 0 0.13 0 0.06 0.06 0 0 1 0 0.06 0.07 0.07 0 0 1 0 0.09s0.08 0 0.09-0.09 0 0 0 0a0.13 0.13 0 0 0 0.11 0v0.09c0-0.13 0.12-0.1 0.2-0.16 0.09 0.06 0.19-0.07 0.22-0.14 0 0 0.07-0.07 0.11-0.06 0.27 0 0.06-0.23 0.49-0.15a0.27 0.27 0 0 0 0.11-0.05v0.18l0.1 0.05h-0.08c-0.09 0.06-0.09-0.14-0.19-0.1 0 0-0.09 0-0.08 0.08a0.09 0.09 0 0 1 0.06 0s-0.12 0-0.1 0.08c0 0 0 0.06 0.07 0.05s0 0 0 0a0.06 0.06 0 0 0 0.1 0h0.05a0.06 0.06 0 0 0 0.08 0c0.06 0 0-0.08 0.06-0.09h0.14a0.16 0.16 0 0 0-0.05-0.15v-0.1a0.53 0.53 0 0 0 0.19 0.05 0.51 0.51 0 0 0 0.28-0.06 0.28 0.28 0 0 1 0.17 0v0.12c0 0.04-0.07 0-0.11 0a0.08 0.08 0 0 0-0.05 0 0.14 0.14 0 0 0-0.1 0.08 0.19 0.19 0 0 1 0.08 0c0 0.05 0.05 0.07 0.09 0s0 0 0 0-0.09 0.07-0.06 0.09a0.05 0.05 0 0 0 0 0.07v-0.06s0-0.06 0.07-0.08v0.09s0 0.05 0.08 0v-0.11c0-0.03 0.07 0 0.09-0.09s0 0 0-0.05h0.06c0.06 0 0-0.05 0-0.07a0.12 0.12 0 0 0 0-0.08s-0.1 0.06-0.09 0 0 0 0 0h-0.4s0.53 0 0.53-0.17 0-0.15-0.32-0.14-1 0.12-1-0.06 0.19-0.07 0.29-0.07m-0.92 0 0.12 0.05h-0.08c-0.08 0-0.05-0.05 0-0.08m-0.07 0h-0.08c-0.03 0 0 0 0-0.08l0.11 0.05m-0.12 0.25v-0.05 0h0.1-0.06c-0.06 0 0 0 0 0.05v0.05a0.06 0.06 0 0 1-0.07 0 0.07 0.07 0 0 1 0-0.08"/><path d="m29.56 19.56a0.1 0.1 0 0 0 0.07 0.05c0.39 0.11 0.85-0.19 1.08-0.12-0.31-0.1-0.5 0.08-0.8 0 0.18 0 0.36 0 0.37-0.08-0.14 0.08-0.52-0.06-0.68 0s0 0 0 0-0.23 0.09-0.23 0.18 0.15 0.15 0.43 0.13 0.58 0 0.58 0-0.2 0.13-0.46 0.13a2.78 2.78 0 0 0-1 0c0-0.08 0.13-0.19 0.09-0.24a0.09 0.09 0 0 0 0.06-0.07 0.11 0.11 0 0 0-0.07 0v-0.05a0.14 0.14 0 0 0 0-0.06l-0.09-0.05h-0.14-0.05-0.06a0.13 0.13 0 0 0 0 0.11s-0.07 0.09-0.1 0.08c0 0.06 0 0.12-0.08 0.12a0.65 0.65 0 0 0 0 0.24c-0.06-0.06-0.15-0.21-0.21-0.24s-0.06-0.06-0.06-0.12v-0.15s-0.05-0.06-0.07 0 0 0 0 0a0.025 0-90 0 0 0 0.05s0-0.09-0.06-0.09c0 0 0-0.07-0.09 0 0 0 0 0.06 0.06 0.06h-0.1v0.08 0 0.1 0s-0.11 0.07-0.11 0c-0.06 0.1 0 0.17 0.13 0.12a0.05 0.05 0 0 0 0 0.06 0.28 0.28 0 0 0 0.11 0.19 0.13 0.13 0 0 0 0.14 0.1s0.05 0.09 0 0.09a0.65 0.65 0 0 0-0.19 0h-0.11-0.1c-0.02 0 0 0 0-0.06v0a0.08 0.08 0 0 0-0.09 0 0.05 0.05 0 0 1 0.05 0s0 0.05 0.08 0.08 0 0 0 0a0.05 0.05 0 0 1-0.05 0s0-0.06-0.07 0c0 0-0.09 0.05-0.07 0.09a0.11 0.11 0 0 1 0.05 0s0 0.08 0.11 0 0 0 0 0-0.08 0.08 0 0.1c0 0.05 0.05 0.08 0.08 0.08a0.06 0.06 0 0 1 0-0.07v-0.08 0s0 0.06 0.07 0.06 0.07-0.05 0.06-0.07a0.06 0.06 0 0 1 0 0.06 0.08 0.08 0 0 1 0 0.09 0.12 0.12 0 0 0 0.08-0.09 0.19 0.19 0 0 0 0.1 0v0.05 0.08c0-0.12 0.08-0.07 0.16-0.12 0 0 0.12 0 0.12-0.08a0.6 0.6 0 0 0 0.08-0.22c0.11 0 0.15-0.09 0.26-0.1a0.38 0.38 0 0 0 0 0.16c0 0.06 0.07 0.12 0.1 0.14h-0.08c-0.08 0-0.09-0.13-0.18-0.1s0 0 0 0-0.09 0.05-0.08 0.08a0.09 0.09 0 0 1 0.06 0s-0.12 0-0.09 0.08 0 0.05 0.07 0h0.36a0.06 0.06 0 0 0 0.1 0h-0.05a0.06 0.06 0 0 0 0.07 0c0.07 0 0-0.08 0.07-0.09h0.1a0.11 0.11 0 0 0-0.05-0.14s0.05-0.21-0.1-0.3h0.33a0.38 0.38 0 0 1 0.16 0.08c-0.06 0-0.05 0-0.08 0.06l-0.06-0.06a0.08 0.08 0 0 0-0.1 0 0.08 0.08 0 0 1 0.07 0h-0.09a0.035 0-90 0 0 0 0.07h0.08s-0.07 0-0.06 0.07v0.07 0c0.06 0 0-0.08 0-0.1s0.06 0.05 0.11 0 0 0 0 0h0.05c0.05 0 0-0.05 0-0.08h0.07c0.07 0-0.11 0-0.06-0.06s0.08-0.06 0.05-0.09-0.16-0.08-0.17-0.15h0.1c0.35 0 0.56-0.09 0.56-0.2s-0.1-0.12-0.35-0.1-0.68 0.06-0.68 0 0.06-0.09 0.14-0.11m-0.81 0h-0.07c-0.02 0 0 0 0-0.08l0.1 0.06m0.06 0.17h-0.06c-0.06 0 0 0 0 0s0 0.05-0.07 0a0.05 0.05 0 0 1 0-0.07v-0.05 0l0.09 0.05m0.05-0.06s-0.05-0.05 0-0.08l0.11 0.05h-0.07"/><path d="m22.35 15.8a1.7 1.7 0 0 0-0.35-1.11c-0.38-0.44-1.64-1.83-2-2.28 0.1 0 0.22 0 0.46 0.24l0.8 0.78a7.89 7.89 0 0 1 1.37-2.43c0.11-0.12 0.22-0.24 0.34-0.35a2.62 2.62 0 0 0-0.81 0.35 1.35 1.35 0 0 0-0.37-1c0.1-0.54 0-1.19-1.2-2 0.62 0.15 1 0.71 1.46 0.28-0.42 0-0.43-0.94-2-1.71 0.59 0 1.05 0.93 1.73 0.4-0.65-0.08-0.86-1.22-2-1.57 0.4 0 0.81 0.24 1.15-0.23-0.4 0.1-0.63-0.27-1.06-0.3a1.44 1.44 0 0 0-0.05-1.18 1.48 1.48 0 0 0-0.82 0.31c0-0.27-0.32-0.29-0.58-0.27 0 0.12 0.07 0.29-0.06 0.32a10.16 10.16 0 0 0-1.36 0.45 7.37 7.37 0 0 0-1.32 0.7c-0.1 0.08-0.2-0.1-0.26-0.18-0.19 0.16-0.37 0.37-0.24 0.57a1.66 1.66 0 0 0-0.89 0.33 1 1 0 0 0 0.71 0.86c-0.72 0.71-0.07 1.36-0.7 2 0.88 0 0.73-1.2 1.18-1.37 0 0.87-0.53 1-0.53 2 0 0.5 0.29 1 0 1.37 0.74-0.2 0.54-1.84 1-2.33a1.32 1.32 0 0 1-0.06 0.83c-0.26 0.76 0 1.81-0.37 2.15 0.66-0.07 0.81-1 1.25-1.54a25.52 25.52 0 0 1-1.67 4.38c-1.3 1.66-2.1 3.73-3.24 3.73a0.87 0.87 0 0 1-0.91-1c0-2 3.38-3.33 3.38-5.43a1.25 1.25 0 0 0-1.23-1.29 1.73 1.73 0 0 0-1 0.43 1 1 0 0 0-0.4-0.09c-1.19 0-0.88 2.15-1.92 2.13 0.42 0.23 1.13-0.22 1.55-0.82-0.18 1.39-2.18 1-2 2.69 0.28-1.31 3.48-1.12 3.48-3.1a0.75 0.75 0 0 0-0.28-0.56 1.19 1.19 0 0 1 0.68-0.21 0.75 0.75 0 0 1 0.73 0.84c0 1.76-3.36 3.25-3.36 5.41a1.56 1.56 0 0 0 0.28 0.91 0.57 0.57 0 0 1-0.69-0.19c0 0.56 0.78 0.91 1.28 0.63a1.36 1.36 0 0 0 0.35 0.07 1 1 0 0 1-0.93 0.52c0.82 0.65 2.26-0.2 2.18-0.94a11.62 11.62 0 0 0 1.54-2c0 0.14-0.06 0.27-0.08 0.41a7 7 0 0 0-1 2.82c-0.11 1-0.6 1.83-1.28 1.83-0.15 0-0.39-0.19-0.51-0.1s0 0.38 0 0.56-0.53 0.55-0.53 1.39c0 0.38 0.23 0.84 0.14 1.09a1.48 1.48 0 0 0 0.62-0.94c0.24 1.12-0.47 1.07 0 2.07a0.41 0.41 0 0 1 0.59-0.33c0.2 0.14 0.11 0.23 0 0.38s-0.29 0.89 0.39 0.85c-0.12-0.08-0.13-0.28 0.2-0.35s0.61 0.12 1.11 0.12c0.3 0 0.39-0.4 0.63-0.4s0.25 0.19 0.16 0.33c0.39-0.11 0.47-0.32 0.47-0.54s-0.18-0.36 0-0.45 0.6 0 0.42 0.38a0.44 0.44 0 0 0 0.36-0.5c0-0.28-0.33-0.45-0.64-0.4-0.05-0.18-0.32-0.28-0.56-0.28-0.55 0-0.47 0.44-0.84 0.44-0.61 0-1.2-0.79-1.2-2.11 0-0.71 0.77-0.89 1.31-1.13a4.58 4.58 0 0 0 2-1.76 4.27 4.27 0 0 0 0.41-2.54 1.61 1.61 0 0 1 0.85 1.53 0.93 0.93 0 0 1-0.55 0.94c-0.21 0.1-0.27 0.06-0.3 0.18a0.26 0.26 0 0 0 0.17 0.28c0.27 0.14 0.22 0.41 0.29 0.69a2.2 2.2 0 0 0 0.76 1.07 3.59 3.59 0 0 0 0-0.83c0.58 0.29 0.11 1.46 1.25 1.46a0.29 0.29 0 0 1 0-0.47c0.12 0 0.27 0.08 0.49 0.38s0.16 0.29 0.7 0.29 0.3-0.19 0.58-0.19 0.26 0.33 0.11 0.57a0.61 0.61 0 0 0 0.46-0.89 0.46 0.46 0 0 1 0.71 0.33 0.56 0.56 0 0 0-0.32-0.95 0.34 0.34 0 0 0-0.46-0.23 4.82 4.82 0 0 0-0.54 0c-0.2 0-0.31 0.29-0.54 0.29-0.71 0-2.12-1.29-2.12-1.85s1.35-0.89 1.35-1.76c0-1.14-1.12-1.52-2-2.25a1.89 1.89 0 0 1 1.86-0.19c0.06-0.32 0.27-0.24 0.34-0.78 0.2 0.47-0.07 0.87 0.14 1.07 0.15-0.23 0.56-0.2 0.53-0.79 0.13 0.37-0.15 0.94 0.13 1.19 0-0.31 0.23-0.36 0.34-0.36s0.22 0.08 0.22 0.26c0 0.45-0.55 0.33-0.55 0.84 0 0.21 0.27 0.29 0.27 0.43a0.3 0.3 0 0 1-0.49 0.17 0.57 0.57 0 0 0 0.5 0.37 0.74 0.74 0 0 0 0.62-0.45c0.13 0.32 0 0.68-0.21 0.73 0.25 0.12 0.84 0 0.77-0.74 0.33 0.05 0.5 0.28 0.31 0.68 0.27-0.07 0.51-0.2 0.51-0.49s-0.22-0.38-0.18-0.68-0.31-0.49-0.36-0.83m-5.98-9.41c-0.31 0-0.3-0.27-0.85-0.4a9.4 9.4 0 0 0 1.3-0.43c0.08 0.35-0.06 0.79-0.45 0.83m2.18 2.31a0.6 0.6 0 0 1-0.78-0.41c-0.08-0.24-0.14-0.43-0.05-0.53a0.37 0.37 0 0 0 0.12-0.51c-0.11-0.24-0.37-0.12-0.65-0.06 0.13-0.23 0.14-0.4 0-0.37s-0.21 0.36-0.33 0.32-0.05-0.24-0.05-0.34 0.1-0.2 0.24-0.26l1.15-0.44c0.15 0 0.25-0.08 0.35 0s0.26 0.17 0.2 0.28-0.29-0.14-0.46 0 0 0.22 0.23 0.3c-0.24 0.14-0.51 0.24-0.42 0.5s0.2 0.28 0.44 0.28 0.22 0.19 0.33 0.41a0.57 0.57 0 0 1-0.28 0.81m0.07-3.2a0.62 0.62 0 0 1-0.9-0.29 8.4 8.4 0 0 0 1.19-0.56c-0.3 0.47-0.1 0.68-0.34 0.87"/><path d="m14.82 3.76a0.22 0.22 0 0 0-0.44 0 0.22 0.22 0 1 0 0.44 0"/><path d="m14.75 3.17a0.22 0.22 0 0 0-0.22-0.17 0.22 0.22 0 0 0 0 0.44 0.22 0.22 0 0 0 0.22-0.22"/><path d="m14.87 2.91a0.22 0.22 0 1 0-0.22-0.22 0.22 0.22 0 0 0 0.22 0.22"/><path d="m15.46 2.87a0.22 0.22 0 1 0-0.22-0.22 0.22 0.22 0 0 0 0.22 0.22"/><path d="m18 2.46a0.21 0.21 0 0 0 0.31 0 0.22 0.22 0 1 0-0.31-0.31 0.21 0.21 0 0 0 0 0.31"/><path d="m17.91 2a0.21 0.21 0 0 0 0-0.31 0.23 0.23 0 0 0-0.31 0 0.22 0.22 0 0 0 0.31 0.31"/><path d="m17.33 1.9a0.23 0.23 0 0 0 0-0.31 0.22 0.22 0 0 0-0.32 0 0.22 0.22 0 0 0 0 0.31 0.23 0.23 0 0 0 0.31 0"/><path d="m16.83 2.27a0.23 0.23 0 0 0 0-0.31 0.22 0.22 0 1 0-0.31 0.31 0.23 0.23 0 0 0 0.31 0"/><path d="m15.42 2 0.18 0.38 0.22-0.27a4 4 0 0 1 0 0.48 0.27 0.27 0 0 0 0.28 0.28 0.28 0.28 0 0 0 0.28-0.28 0.27 0.27 0 0 0-0.15-0.24 2.93 2.93 0 0 1-0.23-0.35h0.38l-0.15-0.39-0.28 0.23v-0.41l-0.38 0.14 0.26 0.31z"/><path d="m18 2.65a0.58 0.58 0 0 1 0.13 0.3 0.5 0.5 0 0 1-0.23-0.2v0.51a0.43 0.43 0 0 1 0.19-0.19c0 0.34-0.16 0.48-0.27 0.5a0.22 0.22 0 0 1-0.26-0.17c0-0.15 0.1-0.24 0.23-0.11 0-0.31-0.23-0.3-0.33-0.17a0.46 0.46 0 0 0-0.19-0.66 0.47 0.47 0 0 0 0.11 0.67c-0.2-0.1-0.38 0.08-0.2 0.3 0-0.2 0.21-0.15 0.25 0s-0.1 0.31-0.32 0.37-0.41-0.11-0.49-0.28a0.44 0.44 0 0 1 0.41 0.09l-0.15-0.5a0.49 0.49 0 0 1-0.3 0.3 1.69 1.69 0 0 1 0.1-0.41l-0.6 0.25a1.29 1.29 0 0 1 0.37 0.25 0.54 0.54 0 0 1-0.43 0l0.25 0.46a0.45 0.45 0 0 1 0.23-0.35c0.06 0.18 0.13 0.4-0.16 0.55a0.37 0.37 0 0 1-0.49 0c-0.08-0.14 0-0.29 0.18-0.18 0-0.29-0.28-0.28-0.35-0.07a0.49 0.49 0 0 0-0.39-0.56 0.45 0.45 0 0 0 0.32 0.6c-0.17 0-0.35 0.15-0.12 0.36 0-0.19 0.16-0.21 0.25-0.09a0.23 0.23 0 0 1-0.08 0.31c-0.09 0.06-0.28 0.06-0.53-0.17a0.45 0.45 0 0 1 0.26 0l-0.32-0.4a0.87 0.87 0 0 1 0 0.31 0.52 0.52 0 0 1-0.13-0.3l-0.24 0.22a3.09 3.09 0 0 1 0.83 0.82 12 12 0 0 1 1.34-0.67 11.91 11.91 0 0 1 1.43-0.46 3 3 0 0 1 0-1.16z"/><path d="m44.24 22a0.95 0.95 0 1 0 0.95-0.95 0.95 0.95 0 0 0-0.95 0.95m0.24 0a0.7 0.7 0 0 1 0.71-0.7 0.7 0.7 0 0 1 0.7 0.7 0.7 0.7 0 0 1-0.7 0.71 0.71 0.71 0 0 1-0.71-0.71"/><path d="m40.69 22.9a0.54 0.54 0 0 0-0.09 0.82 0.79 0.79 0 0 0 0.48 0.26 0.83 0.83 0 0 0 0.54-0.07 0.58 0.58 0 0 0 0.3-0.4 0.69 0.69 0 0 0-0.62-0.73 0.8 0.8 0 0 0-0.61 0.12m0.43 0.84c-0.27 0-0.46-0.25-0.42-0.45a0.27 0.27 0 0 1 0.13-0.19 0.55 0.55 0 0 1 0.42-0.08 0.47 0.47 0 0 1 0.43 0.4 0.45 0.45 0 0 1-0.56 0.27"/><path d="m35.46 9.57a0.62 0.62 0 0 0-0.19 0.86 0.63 0.63 0 0 0 0.88 0 0.76 0.76 0 0 0 0.29-0.48 0.56 0.56 0 0 0-0.1-0.38 0.52 0.52 0 0 0-0.34-0.16 0.69 0.69 0 0 0-0.54 0.16m-0.05 0.55a0.48 0.48 0 0 1 0.2-0.36 0.46 0.46 0 0 1 0.39-0.11 0.31 0.31 0 0 1 0.18 0.09 0.26 0.26 0 0 1 0 0.2 0.45 0.45 0 0 1-0.19 0.32 0.4 0.4 0 0 1-0.54 0 0.28 0.28 0 0 1-0.05-0.16"/><path d="m39.58 21.32a0.76 0.76 0 0 0-0.23 0.57 0.79 0.79 0 0 0 0.21 0.56 0.52 0.52 0 0 0 0.38 0.17 0.54 0.54 0 0 0 0.39-0.16 0.76 0.76 0 0 0 0.23-0.57 0.81 0.81 0 0 0-0.15-0.51 0.57 0.57 0 0 0-0.44-0.24 0.51 0.51 0 0 0-0.39 0.16m0.36 1.08a0.35 0.35 0 0 1-0.21-0.1 0.57 0.57 0 0 1-0.14-0.41 0.56 0.56 0 0 1 0.16-0.4 0.32 0.32 0 0 1 0.25-0.07 0.45 0.45 0 0 1 0.36 0.51 0.56 0.56 0 0 1-0.16 0.4 0.32 0.32 0 0 1-0.22 0.09"/><path d="m34.93 13.64a0.53 0.53 0 0 0-0.32 0.28 0.68 0.68 0 0 0 0.4 0.87 0.84 0.84 0 0 0 0.62 0.05 0.53 0.53 0 0 0 0.33-0.7 0.8 0.8 0 0 0-0.42-0.45 0.87 0.87 0 0 0-0.61 0m0.19 0.93c-0.25-0.12-0.38-0.36-0.29-0.55a0.32 0.32 0 0 1 0.18-0.15 0.57 0.57 0 0 1 0.42 0 0.53 0.53 0 0 1 0.3 0.31 0.33 0.33 0 0 1 0 0.24 0.31 0.31 0 0 1-0.18 0.15 0.55 0.55 0 0 1-0.43 0"/><path d="m44.91 12.67c0.31 0.85 0.93 1.15 1.39 0.93-1-0.12-0.19-1.91-1.54-1.91a0.78 0.78 0 0 0-0.22 0 1.1 1.1 0 0 0-0.88-0.34 1.67 1.67 0 0 0-1.55 1.69c0 2.45 2.84 2.66 2.84 4.83a1 1 0 0 1-1 1c-0.48 0-0.86-0.54-1.27-1.38a10.13 10.13 0 0 0-1-1.52 0.86 0.86 0 0 0 0.42 0.15 0.59 0.59 0 0 0 0.4-0.15 0.51 0.51 0 0 0 0.16-0.38 0.82 0.82 0 0 0-0.23-0.56 0.84 0.84 0 0 0-0.56-0.26 0.58 0.58 0 0 0-0.39 0.14 0.61 0.61 0 0 0-0.17 0.39 0.7 0.7 0 0 0 0.05 0.25 5.2 5.2 0 0 1-1.18-2 1.93 1.93 0 0 1 0.58-1.12l0.11 0.06 0.09-0.09c0.11-0.13 0.35-0.39 0.84-0.91l0.12-0.13-0.31-0.25a4.2 4.2 0 0 0 0.21-0.6c0.09 0.4 0.29 0.65 0.57 0.57-0.18-0.41 0.19-0.95 0-1.95 0.23 0.38 0.56 0.59 0.81 0.52-0.64-0.56 0.18-1.34-0.64-2.55a0.48 0.48 0 0 0 0.57-0.1c-0.75-0.1-0.41-1.06-1.72-1.4 0.32-0.06 0.51-0.25 0.46-0.42-0.34 0.25-0.65-0.47-1.79-0.45a1.65 1.65 0 0 0-0.91-1.09 1.46 1.46 0 0 1-0.08 0.87l-3.78-3.63c-0.11-0.1-0.17-0.13-0.2-0.09s0 0.11 0 0.18l3.19 4-0.72 0.27a0.44 0.44 0 0 0-0.28 0.42 6.36 6.36 0 0 0-1.3 0.89c-0.2 0.18-0.35 0.22-0.18 0.62 0.07 0.15-0.14 0.53 0.32 0.25s1-0.55 1.1-0.32-0.29 0.29-0.52 0.38-0.49 0.27-0.45 0.36 0.22 0 0.23 0.09a0.21 0.21 0 0 0 0.18 0.2c0.09 0 0.21-0.2 0.29-0.13s0 0.5-0.11 0.61a0.73 0.73 0 0 0 0.6-0.66c0-0.27 0.08-0.33 0.14-0.37s0.12 0.29 0 0.48c0.2 0 0.39-0.29 0.37-0.76a0.53 0.53 0 0 1 0.26-0.13c0.13 0 0.37 0.33 0.71 0.33a1.06 1.06 0 0 0 1-0.75 0.7 0.7 0 0 0-0.09-0.52 0.89 0.89 0 0 1 0.3 0.68c0 0.89-1.58 1.31-2.23 1.93a0.23 0.23 0 0 0-0.07 0.07l-0.74-0.29v0.16a0.51 0.51 0 0 0-0.05 0.14c-0.07 0.26-0.24 0.79-0.34 1.09v0.13h0.07a4.13 4.13 0 0 0-0.87 1.91c-0.18-0.18-0.35-0.33-0.54-0.49a0.64 0.64 0 0 0 0-0.2 0.7 0.7 0 0 0-0.16-0.53 0.55 0.55 0 0 0-0.35-0.17 0.5 0.5 0 0 0-0.36 0.13l-0.06 0.07-0.08-0.06a5.74 5.74 0 0 1-0.73-0.61 0.38 0.38 0 0 0-0.33-0.14h-0.31c-0.11 0-0.17 0.08-0.29 0.19l-0.55 0.43a3.51 3.51 0 0 1 0.33 0.34l0.09 0.11 0.24-0.19a0.4 0.4 0 0 1 0.28-0.08 0.43 0.43 0 0 1 0.32 0.21c0.07 0.1 0.67 0.89 1.17 1.44l-0.16 0.06a2.54 2.54 0 0 1-0.91 0.05c-0.21 0-0.25-0.07-0.4 0.16a2.22 2.22 0 0 1-0.19 0.27c-0.08 0.09-0.13 0.19 0 0.44a20.06 20.06 0 0 1 0.94 1.79 1 1 0 0 0 0.74 0.65 5.18 5.18 0 0 1 1 0.56v-0.34a2.23 2.23 0 0 0-0.56-0.27c-0.12-0.05-0.15-0.1 0-0.1a3.62 3.62 0 0 1 0.85 0.27 2.47 2.47 0 0 0-0.59-0.9 0.79 0.79 0 0 0-0.6 0 0.14 0.14 0 0 1-0.14 0.16 0.14 0.14 0 0 1-0.14-0.18c0-0.1 0.18-0.13 0.15-0.32s-0.26-0.22-0.41-0.23c-0.22-0.31-0.46-0.76-0.57-0.94s0-0.28 0-0.34 0.56 0.07 1.31 0.12l0.94 0.05a2.07 2.07 0 0 0 1.67 2 2.07 2.07 0 0 1 1.48 1.21c-2.44 0-2.82 0.91-2.82 1.8s0.86 1 0.86 1.73-2 0.94-2.67 1a1.74 1.74 0 0 0-1.07 0.45l-1 0.95a1.29 1.29 0 0 0 0.39 0l0.35-0.44c0.1-0.15 0.17-0.28 0.24-0.27s0 0.13-0.06 0.29l-0.28 0.48c1.2 0.08 1.28-0.37 1.28-0.55s-0.3-0.31-0.13-0.42 0.32 0 0.46 0.12 0.18 0.3 0.52 0.18c0 0 2.62-1.09 3-1.24s0.21-0.27 0-0.41a0.88 0.88 0 0 1-0.23-0.7c0-0.79 0.48-1 1.33-1v0.38c0 1.24 1.87 2.45 2.37 2.45 0.23 0 0.53-0.17 0.55 0.57a6.78 6.78 0 0 1 0 1.57 1.17 1.17 0 0 1-0.66 1c-0.38 0.27-0.74 1.11-0.9 1.28 0.17 0.12 0.35 0.13 0.49-0.28a1.22 1.22 0 0 1 0.4-0.66c-0.15 0.37-0.26 0.92-0.33 1.08 0.48 0.09 1.25-0.35 1.25-0.69s-0.27-0.31-0.27-0.53a0.27 0.27 0 0 1 0.27-0.21 0.38 0.38 0 0 1 0.35 0.22c0.22-0.11 0.35-0.32 0.34-0.81v-0.6 0.08a0.59 0.59 0 0 0 0.44 0.24 0.78 0.78 0 0 0 0.52-0.14 0.81 0.81 0 0 0 0.36-0.5v-0.12a0.53 0.53 0 0 0-0.09-0.3 0.51 0.51 0 0 0-0.35-0.23 0.83 0.83 0 0 0-0.6 0.13 0.87 0.87 0 0 0-0.35 0.46c0-0.67-0.09-1.31-0.07-1.56s0-0.55-0.08-0.61-0.27 0.16-0.45 0.16a1.23 1.23 0 0 1-0.74-1c0-0.54 0.58-1.23 0.55-2 0-0.23 0.14-0.35 0.23-0.14a3.56 3.56 0 0 0 0.52 0.87c-0.15 0.92 0.86 1.81 1.7 1.15-0.42 0.06-0.7-0.31-0.88-0.67h0.35a0.9 0.9 0 0 0 1.46-0.57 1 1 0 0 1-0.74 0.3 1.47 1.47 0 0 0 0.53-1.19c0-2.34-2.83-2.61-2.83-4.73a1.31 1.31 0 0 1 1.17-1.3 0.77 0.77 0 0 1 0.44 0.14 1 1 0 0 0-0.27 0.81c0.08 1.68 2.82 1.6 2.85 2.41 0.31-1.22-1.73-0.84-1.81-2.48m-7.27-6.39c0.13-0.26 0-0.64 0.46-0.64 0.23 0 0.43 0.23 0.71 0.31a2.77 2.77 0 0 0-1.17 0.33m-2.51 5.14a0.49 0.49 0 0 1-0.15 0.34 0.27 0.27 0 0 1-0.18 0.07c-0.15 0-0.28-0.2-0.28-0.41a0.45 0.45 0 0 1 0.15-0.33 0.24 0.24 0 0 1 0.18-0.08 0.26 0.26 0 0 1 0.17 0.04 0.44 0.44 0 0 1 0.11 0.34m8.1 11.79a0.61 0.61 0 0 1 0.25-0.35 0.6 0.6 0 0 1 0.42-0.09 0.27 0.27 0 0 1 0.2 0.13 0.33 0.33 0 0 1 0 0.23 0.58 0.58 0 0 1-0.26 0.35 0.44 0.44 0 0 1-0.61 0 0.29 0.29 0 0 1 0-0.23m-1.7-7.82a0.28 0.28 0 0 1 0.09-0.22 0.3 0.3 0 0 1 0.22-0.08 0.65 0.65 0 0 1 0.39 0.19 0.6 0.6 0 0 1 0.16 0.4 0.32 0.32 0 0 1-0.09 0.22 0.29 0.29 0 0 1-0.22 0.07 0.57 0.57 0 0 1-0.39-0.18 0.56 0.56 0 0 1-0.16-0.4m-4.69-5.28c0.13-0.41 0.38-1.22 0.38-1.23l0.53 0.21h-0.07a1.33 1.33 0 0 0-0.37 0.26 0.45 0.45 0 0 0 0.32 0l0.08-0.05-0.23 0.57v-0.05a0.59 0.59 0 0 0-0.24-0.23 0.43 0.43 0 0 0 0.28 0.5c0.26 0.13 0.41 0.14 0.47 0a0.14 0.14 0 0 0 0.03-0.05 0.19 0.19 0 0 0 0-0.12 0.22 0.22 0 0 0-0.25 0 0.31 0.31 0 0 1 0.08-0.29 0.25 0.25 0 0 1 0.42 0 0.72 0.72 0 0 1 0.51-0.65 0.71 0.71 0 0 1-0.17 0.81 0.28 0.28 0 0 1 0.29 0.09 0.25 0.25 0 0 1 0 0.22 0.34 0.34 0 0 1-0.2 0.23 0.21 0.21 0 0 0-0.17-0.18 0.16 0.16 0 0 0-0.17 0.08q-0.1 0.19 0.27 0.39a0.4 0.4 0 0 0 0.59-0.13 0.48 0.48 0 0 0-0.34 0.08l-0.09 0.06 0.38-0.7v0.08a0.61 0.61 0 0 0 0.14 0.27 0.86 0.86 0 0 0 0.05-0.26 0.45 0.45 0 0 0 0-0.2v-0.09l0.77 0.45h-0.09a0.64 0.64 0 0 0-0.39 0.24 0.54 0.54 0 0 0 0.31 0h0.07l-0.42 0.68v-0.13a0.5 0.5 0 0 0-0.09-0.31 0.51 0.51 0 0 0-0.06 0.22 0.41 0.41 0 0 0 0.24 0.36c0.24 0.14 0.4 0.16 0.47 0a0.15 0.15 0 0 0-0.15-0.2 0.2 0.2 0 0 0-0.23-0.06 0.37 0.37 0 0 1 0.09-0.28 0.32 0.32 0 0 1 0.14-0.16 0.3 0.3 0 0 1 0.23 0.22 0.72 0.72 0 0 1 0.61-0.56 1 1 0 0 1 0 0.17 0.73 0.73 0 0 1-0.33 0.59 0.26 0.26 0 0 1 0.24 0.12 0.33 0.33 0 0 1 0 0.14 0.24 0.24 0 0 1 0 0.08 0.35 0.35 0 0 1-0.21 0.21 0.22 0.22 0 0 0-0.16-0.19 0.15 0.15 0 0 0-0.17 0.06c-0.06 0.11 0 0.23 0.27 0.39a0.42 0.42 0 0 0 0.57 0 0.55 0.55 0 0 0-0.31-0.09h-0.06l0.38-0.49v0.1a0.43 0.43 0 0 0 0.13 0.29 1.63 1.63 0 0 0 0-0.35 0.31 0.31 0 0 0 0-0.1v-0.09l0.45 0.35-0.88 0.95zm3.87 9.68a0.44 0.44 0 0 1-0.59 0.17 0.44 0.44 0 0 1 0-0.62 0.39 0.39 0 1 1 0.62 0.45m1.09-1.75a0.39 0.39 0 1 1-0.62-0.44 0.44 0.44 0 0 1 0.59-0.18 0.43 0.43 0 0 1 0 0.62"/><path d="m28.58 25.48h-0.2v-1.1a7.22 7.22 0 0 1-1.68-0.27v1.4a0.66 0.66 0 0 0-0.21 0 0.65 0.65 0 0 0-0.65 0.65 1.23 1.23 0 0 0 0.32 0.75c0.08-0.18 0.15-0.33 0.25-0.33s0.11 1 0.7 1a0.41 0.41 0 0 0 0 0.16 0.46 0.46 0 1 0 0.91 0 0.41 0.41 0 0 0 0-0.16c0.59 0 0.49-1 0.69-1s0.17 0.14 0.26 0.33a1.23 1.23 0 0 0 0.32-0.75 0.65 0.65 0 0 0-0.65-0.65m-1 2.51a0.25 0.25 0 0 1-0.26-0.25 0.26 0.26 0 1 1 0.51 0 0.25 0.25 0 0 1-0.25 0.25m1.37-1.45a0.33 0.33 0 0 0-0.26-0.2c-0.39 0-0.24 1-0.71 1a0.28 0.28 0 0 1-0.31-0.27c0-0.15 0.1-0.19 0.1-0.31s-0.09-0.16-0.19-0.16-0.2 0-0.2 0.16 0.1 0.16 0.1 0.31a0.28 0.28 0 0 1-0.31 0.27c-0.47 0-0.31-1-0.71-1a0.33 0.33 0 0 0-0.26 0.2 1.09 1.09 0 0 1-0.12-0.41 0.45 0.45 0 0 1 0.45-0.45c0.53 0 0.41 0.71 0.66 0.71a0.17 0.17 0 0 0 0.19-0.17c0-0.2-0.36-0.4-0.36-0.69s0.26-0.54 0.56-0.77c0.29 0.23 0.56 0.48 0.56 0.77s-0.37 0.49-0.37 0.69a0.17 0.17 0 0 0 0.19 0.17c0.25 0 0.13-0.71 0.66-0.71a0.45 0.45 0 0 1 0.45 0.45 1.09 1.09 0 0 1-0.12 0.41"/><path d="m25.27 5c-0.18 0.34-0.33 0.54-0.31 0.8s0.3 0.44 0.43 0.71c0.11-0.31 0.31-0.54 0.29-0.78s-0.36-0.55-0.41-0.73"/><path d="m29.79 5c0.18 0.34 0.33 0.54 0.31 0.8s-0.3 0.44-0.43 0.71c-0.11-0.31-0.31-0.54-0.29-0.78s0.36-0.55 0.41-0.73"/><path d="m22.66 4.85a0.3 0.3 0 0 0 0.3-0.31 0.29 0.29 0 0 0-0.3-0.3 0.3 0.3 0 0 0-0.31 0.3 0.31 0.31 0 0 0 0.31 0.31"/><path d="m22.86 5.29a0.31 0.31 0 1 0-0.61 0 0.31 0.31 0 0 0 0.61 0"/><path d="m23 6a0.31 0.31 0 1 0-0.61 0 0.31 0.31 0 0 0 0.61 0"/><path d="m24.35 3.39a0.31 0.31 0 1 0 0-0.61 0.31 0.31 0 0 0 0 0.61"/><path d="m23.59 3.62a0.3 0.3 0 0 0 0.31-0.3 0.31 0.31 0 1 0-0.62 0 0.3 0.3 0 0 0 0.31 0.3"/><path d="m23 4.15a0.31 0.31 0 0 0 0.31-0.31 0.3 0.3 0 0 0-0.31-0.3 0.29 0.29 0 0 0-0.3 0.3 0.3 0.3 0 0 0 0.3 0.31"/><path d="m25.15 3.46a0.3 0.3 0 0 0 0.31-0.3 0.31 0.31 0 0 0-0.62 0 0.3 0.3 0 0 0 0.31 0.3"/><path d="m25.91 3.68a0.3 0.3 0 0 0 0.31-0.3 0.31 0.31 0 1 0-0.62 0 0.3 0.3 0 0 0 0.31 0.3"/><path d="m26.62 4a0.31 0.31 0 0 0 0.31-0.31 0.3 0.3 0 0 0-0.31-0.3 0.29 0.29 0 0 0-0.3 0.3 0.3 0.3 0 0 0 0.3 0.31"/><path d="m32.09 4.54a0.31 0.31 0 1 0 0.61 0 0.31 0.31 0 0 0-0.61 0"/><path d="m32.49 5a0.31 0.31 0 0 0-0.3 0.31 0.31 0.31 0 0 0 0.61 0 0.31 0.31 0 0 0-0.31-0.31"/><path d="M 32.34,5.72 A 0.3,0.3 0 0 0 32,6 0.29,0.29 0 0 0 32.3,6.3 0.3,0.3 0 0 0 32.61,6 0.31,0.31 0 0 0 32.3,5.69"/><path d="m30.7 3.39a0.31 0.31 0 1 0-0.31-0.31 0.31 0.31 0 0 0 0.31 0.31"/><path d="m31.46 3.62a0.3 0.3 0 0 0 0.31-0.3 0.31 0.31 0 0 0-0.62 0 0.3 0.3 0 0 0 0.31 0.3"/><path d="m32.06 4.15a0.3 0.3 0 0 0 0.3-0.31 0.29 0.29 0 0 0-0.3-0.3 0.3 0.3 0 0 0-0.31 0.3 0.31 0.31 0 0 0 0.31 0.31"/><path d="m29.9 3.46a0.29 0.29 0 0 0 0.3-0.3 0.3 0.3 0 0 0-0.3-0.31 0.31 0.31 0 0 0-0.31 0.31 0.3 0.3 0 0 0 0.31 0.3"/><path d="m29.14 3.68a0.3 0.3 0 0 0 0.31-0.3 0.31 0.31 0 1 0-0.62 0 0.3 0.3 0 0 0 0.31 0.3"/><path d="m28.12 3.71a0.31 0.31 0 0 0 0.31 0.31 0.31 0.31 0 0 0 0-0.62 0.31 0.31 0 0 0-0.31 0.31"/><path d="m27 5.37h0.34v-1.31a1.35 1.35 0 0 1-0.34-0.06z"/><path d="m28.05 4a1.35 1.35 0 0 1-0.34 0.11v1.26h0.34z"/><path d="m27.33 2.5v-0.77a1 1 0 0 0-0.75 0.77z"/><path d="m27.73 2.5h0.74a1 1 0 0 0-0.74-0.77z"/><path d="m26.59 2.88a1 1 0 0 0 0.94 0.75 1 1 0 0 0 0.93-0.75z"/><path d="m28.05 1.6a1.08 1.08 0 0 1-0.42-0.67 1.2 1.2 0 0 1 0.7 0.44v-1.06a1.27 1.27 0 0 1-0.7 0.45 1.55 1.55 0 0 1 0.37-0.76h-1a1.61 1.61 0 0 1 0.4 0.76 1.27 1.27 0 0 1-0.7-0.45v1.06a1.2 1.2 0 0 1 0.7-0.44 1.08 1.08 0 0 1-0.4 0.67z"/><path d="m29.18 22.63a18.88 18.88 0 0 1-3.18-1.14 0.82 0.82 0 0 0-0.22-0.65 0.83 0.83 0 0 0-0.61-0.3 0.72 0.72 0 0 0-0.29 0.06 4.83 4.83 0 0 1-0.44-0.46 5 5 0 0 1-1-1.64 5.81 5.81 0 0 1-0.28-1.09 1 1 0 0 1-1 0.68c0-0.06 0-0.16-0.06-0.17-0.16 0.17-0.37 0.35-0.92 0.16a9.35 9.35 0 0 0 0.36 1.25 7.33 7.33 0 0 0 1.46 2.31 7.25 7.25 0 0 0 0.62 0.62 0.49 0.49 0 0 0 0 0.12 1 1 0 0 0 0.53 0.74 0.76 0.76 0 0 0 0.79-0.09 8.85 8.85 0 0 0 1.71 0.66 7.67 7.67 0 0 0 2 0.31 3.49 3.49 0 0 0 1.7-0.6 4.58 4.58 0 0 0 0.65-0.49l0.06-0.07a5.26 5.26 0 0 1-1.78-0.21m-7.29-3.41a0.77 0.77 0 0 1 0-0.58 0.68 0.68 0 0 1 0.39-0.37 0.7 0.7 0 0 1 0.55 0 0.77 0.77 0 0 1 0.4 0.43 0.93 0.93 0 0 1 0.05 0.29 0.64 0.64 0 0 1-0.06 0.28 0.72 0.72 0 0 1-0.94 0.37 0.77 0.77 0 0 1-0.4-0.43m1.16 2-0.24-0.34 0.42-0.29s-0.21-0.29-0.24-0.33l-0.41 0.29-0.24-0.33 1.15-0.81 0.24 0.33-0.41 0.3 0.23 0.33 0.41-0.3 0.24 0.34zm2.6-0.06-0.1-0.07a0.36 0.36 0 0 0-0.51 0 2.66 2.66 0 0 0-0.23 0.24l-0.1 0.12 0.07 0.05c0.2 0.16 0.23 0.33 0.17 0.44a0.13 0.13 0 0 1-0.1 0.07 0.53 0.53 0 0 1-0.38-0.09h-0.07v0.12l-0.06 0.08a0.8 0.8 0 0 0-0.12 0.35 0.22 0.22 0 0 0 0 0.08 0.37 0.37 0 0 0 0.19 0.2h0.05l0.31 0.19a0.56 0.56 0 0 1-0.53 0 0.81 0.81 0 0 1-0.43-0.58 1.57 1.57 0 0 1 0.29-0.81v-0.05a2.34 2.34 0 0 1-0.14-0.27 1.59 1.59 0 0 1 0.3 0.06 1.56 1.56 0 0 1 0.9-0.54 0.66 0.66 0 0 1 0.48 0.24 0.7 0.7 0 0 1 0.17 0.37l-0.17-0.13m0.54 1.78a0.42 0.42 0 1 1 0.42-0.42 0.42 0.42 0 0 1-0.42 0.42m1.81 0.55a0.38 0.38 0 1 1 0.38-0.37 0.38 0.38 0 0 1-0.38 0.37"/><path d="m22.89 19a0.31 0.31 0 0 0 0-0.13 0.32 0.32 0 1 0-0.59 0.23 0.29 0.29 0 0 0 0.17 0.19 0.33 0.33 0 0 0 0.24 0 0.3 0.3 0 0 0 0.21-0.28"/><path d="m23.09 12.85a0.3 0.3 0 0 0-0.41 0.14 0.34 0.34 0 0 0 0 0.24 0.35 0.35 0 0 0 0.15 0.17 0.32 0.32 0 0 0 0.23 0 0.29 0.29 0 0 0 0.18-0.16 0.28 0.28 0 0 0 0-0.15 0.31 0.31 0 0 0-0.16-0.27"/><polygon points="31.36 12.14 31.44 12.25 31.52 12.1"/><path d="m33.34 15-0.13-0.26a0.44 0.44 0 0 0-0.08 0.11 0.21 0.21 0 0 0 0 0.06h0.08l0.17 0.06"/><path d="m33.22 16.76s0.05 0 0.05-0.07v-0.08h-0.11v0.07a0.12 0.12 0 0 0 0 0.07"/><path d="m26.11 10.14a0.31 0.31 0 0 0-0.25 0 0.38 0.38 0 0 0-0.2 0.17 0.31 0.31 0 0 0 0 0.25 0.3 0.3 0 0 0 0.43 0.18 0.31 0.31 0 0 0 0.21-0.3 0.52 0.52 0 0 0 0-0.11 0.3 0.3 0 0 0-0.17-0.18"/><path d="m34 15.94a1.37 1.37 0 0 1-0.4-0.47l-0.74-0.27h-0.1l-0.58 0.16-0.1-0.4 0.57-0.16a0.22 0.22 0 0 0 0.06-0.07l0.31-0.4c-0.14-0.26-0.28-0.5-0.38-0.66a0.93 0.93 0 0 1-0.13-0.4l-0.53 0.27 0.23 0.47-0.35 0.18-0.41-0.84 1.26-0.62v0.11l0.1-0.15 0.12-0.15a7.07 7.07 0 0 0-0.85-1.18 6.37 6.37 0 0 0-1.31-1.13 1 1 0 0 0 0.52-0.81 0.74 0.74 0 0 0-0.27-0.57 7.38 7.38 0 0 1 1.17-2.37l-0.87-0.36a1.38 1.38 0 0 1 0.19 1 1.11 1.11 0 0 1-0.48-0.66 4.18 4.18 0 0 1-0.32 0.94 0.76 0.76 0 0 1 0.7-0.06 1 1 0 0 1-1.09 0.36c-0.31-0.07-0.61-0.24-0.6-0.48a0.29 0.29 0 0 1 0.31-0.29c0.18 0 0.2 0.31 0.14 0.43 0.24-0.14 0.5-0.86 0.12-1s-0.59 0.33-0.69 0.66c-0.06-0.39-0.22-0.76-0.53-0.74s-0.27 0.76-0.13 1c0-0.26 0.17-0.4 0.29-0.39s0.24 0.09 0.22 0.32-0.36 0.38-0.74 0.38a0.94 0.94 0 0 1-1.07-0.82 1.33 1.33 0 0 1 0.77 0.46 4.58 4.58 0 0 1 0-1.17 1.27 1.27 0 0 1-0.76 0.46 1.36 1.36 0 0 1 0.63-0.82h-1.54a1.37 1.37 0 0 1 0.63 0.81 1.19 1.19 0 0 1-0.74-0.51 4.58 4.58 0 0 1 0 1.17 1.35 1.35 0 0 1 0.76-0.46 1 1 0 0 1-1.08 0.82c-0.38 0-0.71-0.14-0.74-0.38s0.12-0.31 0.22-0.32 0.26 0.13 0.29 0.39c0.14-0.19 0.27-0.92-0.13-1s-0.47 0.35-0.53 0.74c-0.1-0.33-0.38-0.74-0.68-0.66s-0.13 0.83 0.11 1c-0.05-0.12 0-0.41 0.15-0.43a0.29 0.29 0 0 1 0.3 0.29c0 0.24-0.29 0.41-0.6 0.48a1 1 0 0 1-1.09-0.36 0.8 0.8 0 0 1 0.72 0.06 3.37 3.37 0 0 1-0.33-0.93 1.12 1.12 0 0 1-0.5 0.66 1.39 1.39 0 0 1 0.19-1l-0.86 0.36a7.7 7.7 0 0 1 1.17 2.39 0.78 0.78 0 0 0-0.26 0.57 1 1 0 0 0 0.52 0.81 7 7 0 0 0-1.26 1.13 7.39 7.39 0 0 0-1.38 2.31l-0.05 0.12 0.29 0.31a0.71 0.71 0 0 1 0.27-0.3l0.43 0.17c-0.18 0.13-0.39 0.3-0.35 0.35s0.12-0.06 0.16-0.09a0.57 0.57 0 0 1 0.58-0.16 0.42 0.42 0 0 1 0.24 0.23 0.43 0.43 0 0 1 0 0.35 0.77 0.77 0 0 1-0.32 0.35l-0.39-0.15a1.32 1.32 0 0 0 0.34-0.33 0.08 0.08 0 0 0 0-0.07s-0.12 0-0.2 0.11a0.86 0.86 0 0 1-0.3 0.16 1.45 1.45 0 0 1 0.32 0.71 1.11 1.11 0 0 0 0.3 0.81c0.32 0.4 0 0.37 0.27 0.86v-0.42h4.31v4.71a0.59 0.59 0 0 0-0.51 0.2c0.49 0.2 1 0.38 1.47 0.53a1.22 1.22 0 0 1 0.28-0.65l-1-0.08v-4.75h4.22a6 6 0 0 1-0.35 1.88 5.15 5.15 0 0 1-0.95 1.64 4.42 4.42 0 0 1-1.39 1.1 1 1 0 0 0-0.29 0.44 1.75 1.75 0 0 0-0.14 0.47c0.2 0.05 0.24 0.09 0.43 0.14 1.48 0.37 1.87 0.3 2 0.23a6.32 6.32 0 0 0 0.93-0.87 7.33 7.33 0 0 0 1.38-2.32 8 8 0 0 0 0.4-2.85 4.7 4.7 0 0 0 0-0.53m-2-4.38 0.17 0.22-0.74 1.44-0.28-0.37 0.14-0.25-0.29-0.35-0.24 0.08-0.34-0.33zm-1-0.92 0.25 0.2-0.85 1.16-0.34-0.24 0.43-0.57-0.42 0.11-0.07-0.45-0.4 0.57-0.36-0.19 0.82-1.18 0.28 0.14 0.09 0.6zm-6.94-1.25c0-0.82 2.3-0.89 3.47-0.89s3.47 0.07 3.47 0.89c0 0.23-0.14 0.42-0.47 0.62a5.42 5.42 0 0 0-3-0.81 5.43 5.43 0 0 0-3 0.81c-0.33-0.2-0.47-0.39-0.47-0.62m4.94 0.32-0.28 1.42-0.41-0.08 0.28-1.42zm-2.08 1.08-0.18 0.39a1.63 1.63 0 0 1-0.71 0 0.71 0.71 0 0 1-0.74-1 0.78 0.78 0 0 1 0.45-0.4 0.71 0.71 0 0 1 0.94 0.43 0.64 0.64 0 0 1 0 0.24 0.77 0.77 0 0 1-0.11 0.39 0.89 0.89 0 0 0 0.31 0m-2.72-0.19 0.26 0.29-0.28 0.26 0.65 0.71-0.29 0.27-0.65-0.71-0.28 0.26-0.27-0.28zm-1 1 1.06 0.84-0.25 0.31-1.06-0.83zm0 2.21a0.63 0.63 0 0 1-0.52-0.05 0.67 0.67 0 0 1-0.34-0.4 0.71 0.71 0 0 1 0.06-0.55 0.68 0.68 0 0 1 0.94-0.32 0.66 0.66 0 0 1 0.34 0.41 0.64 0.64 0 0 1 0 0.2 0.76 0.76 0 0 1-0.51 0.71m0 2.54a5.85 5.85 0 0 1 0.34-1.9 5.26 5.26 0 0 1 1-1.64 4.42 4.42 0 0 1 1.39-1.1 3.77 3.77 0 0 1 1.63-0.4v5zm4.41-5.4a0.57 0.57 0 0 1-0.62-0.57v-0.83h0.41v0.81 0.15a0.21 0.21 0 0 0 0.16 0.06 0.27 0.27 0 0 0 0.19-0.07v-0.16-0.8h0.41v0.84a0.55 0.55 0 0 1-0.15 0.4 0.62 0.62 0 0 1-0.47 0.19m0.17 5.34v-5a3.78 3.78 0 0 1 1.53 0.4 4.42 4.42 0 0 1 1.39 1.1 5.26 5.26 0 0 1 0.95 1.64 6.14 6.14 0 0 1 0.35 1.9zm3.61 5.64-0.25-0.25 0.34-0.35-0.07-0.08-0.33 0.34-0.29-0.27 0.34-0.34-0.12-0.05-0.36 0.35-0.28-0.35 0.65-0.64 1 1zm1.14-1.28a0.81 0.81 0 0 1-0.33 0.24l-0.39-0.27c0.41-0.13 0.44-0.25 0.42-0.27s-0.08 0-0.16 0.06a0.55 0.55 0 0 1-0.61 0 0.42 0.42 0 0 1-0.18-0.27 0.45 0.45 0 0 1 0.07-0.34 0.8 0.8 0 0 1 0.39-0.28l0.4 0.26h-0.07a0.76 0.76 0 0 0-0.38 0.2v0.06s0.14 0 0.22-0.06a0.54 0.54 0 0 1 0.55 0 0.41 0.41 0 0 1 0.18 0.27 0.19 0.19 0 0 1 0 0.08 0.51 0.51 0 0 1-0.1 0.29m0.84-1.69-0.87 0.3 0.64 0.26-0.15 0.37-1.3-0.52 0.12-0.3 0.86-0.3-0.64-0.26 0.15-0.37 1.31 0.53zm0.22-0.68-0.39-0.07 0.09-0.48h-0.1l-0.09 0.46-0.39-0.07 0.09-0.46h-0.12l-0.09 0.5-0.39-0.07 0.17-0.9 1.38 0.25zm0.22-1.69a0.5 0.5 0 0 1-0.14 0.37 0.46 0.46 0 0 1-0.33 0.12 0.44 0.44 0 0 1-0.3-0.13 0.52 0.52 0 0 1-0.13-0.38v-0.01h-0.51v-0.41h1.41z"/><path d="m16.37 26.49-0.09 0.05 0.36 0.59 0.09-0.05c0.31-0.16 0.27-0.38 0.19-0.5s-0.36-0.18-0.55-0.09"/><path d="m35.59 24.67v-0.05a0.09 0.09 0 0 0-0.06-0.08l-0.12-0.07a1.5 1.5 0 0 1-0.1 0.16l0.11 0.06a0.12 0.12 0 0 0 0.1 0"/><path d="m33.74 24.46c0.28 0.07 0.46 0 0.56-0.24s0-0.36-0.3-0.45h-0.11c0 0.07-0.23 0.67-0.24 0.69h0.09"/><path d="m36.54 26a0.4 0.4 0 0 0 0.3 0 0.37 0.37 0 0 0 0.24-0.17 0.32 0.32 0 0 0 0-0.27 0.41 0.41 0 0 0-0.18-0.23 0.46 0.46 0 0 0-0.3-0.05 0.36 0.36 0 0 0-0.24 0.18 0.33 0.33 0 0 0 0 0.27 0.34 0.34 0 0 0 0.18 0.23"/><path d="m29.56 29.21a0.39 0.39 0 0 0-0.28-0.1 0.48 0.48 0 0 0-0.3 0.12 0.37 0.37 0 0 0-0.11 0.28 0.33 0.33 0 0 0 0.11 0.27 0.35 0.35 0 0 0 0.29 0.09 0.38 0.38 0 0 0 0.29-0.12 0.36 0.36 0 0 0 0.12-0.28 0.34 0.34 0 0 0-0.12-0.26"/><path d="m39.48 28.08c0.8 0 1.52-1 2.52-1.46-2.54 0.74-6-3.57-8.43-3.57a1.86 1.86 0 0 0-1.83 1.18c-0.4 1-0.85 1.3-0.85 1.74s0.34 0.67 0.92 1c0.38 0.2 0.77 0.3 0.74 0.66a12.83 12.83 0 0 1-5 0.84 12.9 12.9 0 0 1-5-0.84c0-0.36 0.37-0.46 0.75-0.66 0.58-0.31 0.92-0.6 0.92-1s-0.45-0.76-0.85-1.74a1.86 1.86 0 0 0-1.83-1.18c-2.38 0-5.89 4.31-8.43 3.57 1 0.45 1.72 1.46 2.52 1.46 2.02 0 4.37-3.08 6.64-3.08h0.1c-0.52 0.64-1.25 0.78-1.25 1.43 0 0.46 0.4 0.73 0.67 1.34a7.32 7.32 0 0 1 0.35 1.2c0.13 0.47 0.46 1.69 5.39 1.69s5.27-1.22 5.4-1.69a7.32 7.32 0 0 1 0.35-1.2c0.27-0.61 0.67-0.88 0.67-1.34 0-0.66-0.73-0.79-1.25-1.44h0.1c2.23 0 4.62 3.09 6.68 3.09m0.34-1.48-0.2 0.36-0.47-0.22c-0.14 0.21-0.51 0.81-0.58 0.92l-0.41-0.17s0.46-0.71 0.6-0.95l-0.4-0.23 0.2-0.36c0.33 0.19 1 0.53 1.26 0.65m-1.4-0.77-0.82 1.34-0.38-0.24 0.78-1.32zm-1.89-0.91a0.81 0.81 0 0 1 0.62 0.1 0.79 0.79 0 0 1 0.39 0.49 0.64 0.64 0 0 1 0 0.2 0.77 0.77 0 0 1-0.12 0.4 0.74 0.74 0 0 1-0.51 0.35 0.85 0.85 0 0 1-0.62-0.1 0.83 0.83 0 0 1-0.39-0.48 0.76 0.76 0 0 1 0.09-0.6 0.79 0.79 0 0 1 0.51-0.36m-0.71-0.76a0.63 0.63 0 0 1 0.23 0.23 0.41 0.41 0 0 1 0 0.44 0.37 0.37 0 0 1-0.24 0.19h-0.12v0.23c0 0.32 0.06 0.68 0.06 0.68l-0.47-0.3v-0.45c0-0.16 0-0.23-0.07-0.26l-0.29 0.48-0.38-0.2 0.77-1.35 0.53 0.3m-2.21-0.91 0.59 0.14a0.68 0.68 0 0 1 0.52 0.95 0.84 0.84 0 0 1-1.11 0.52l-0.53-0.13zm-16.68 4.2-0.45 0.25-0.79-1.31 0.48-0.27a1.15 1.15 0 0 1 0.45-0.14 0.84 0.84 0 0 1 0.69 0.4 0.73 0.73 0 0 1-0.38 1.07m1.19-0.71-0.82-1.31 0.36-0.23 0.82 1.31zm0.86-0.57-0.82-1.31 0.85-0.55 0.22 0.35-0.49 0.33 0.07 0.12 0.48-0.32 0.22 0.35-0.48 0.32 0.09 0.14 0.51-0.34 0.22 0.35zm1.77-1a0.61 0.61 0 0 1-0.89-0.33l-0.36-0.83 0.39-0.21 0.38 0.84c0.08 0.17 0.16 0.23 0.33 0.15s0.19-0.18 0.12-0.34l-0.38-0.87 0.43-0.15 0.36 0.85a0.6 0.6 0 0 1-0.37 0.88m1.57 2.34c-0.6-0.31-0.94-0.67-0.94-1 0-0.61 1-1 1.34-1.43 0.56 0.09 1.31 0.36 1.31 0.86s-1.88 0.82-1.71 1.61m1 2.27-0.09-1.58c0.25 0.07 0.78 0.21 1.05 0.26v0.43l-0.59-0.13a0.57 0.57 0 0 1 0 0.14l0.55 0.14v0.43l-0.53-0.13v0.17a5.52 5.52 0 0 0 0.58 0.14v0.44a5 5 0 0 1-1-0.31m2.46-0.68-0.46-0.05v1.2l-0.45-0.07v-1.2l-0.45-0.07v-0.43c0.39 0.07 0.93 0.15 1.36 0.2zm2.51 1.25h-0.45v-0.87l-0.38 0.45-0.37-0.45v0.86h-0.44v-1.6h0.38s0.38 0.47 0.45 0.54l0.43-0.54h0.39zm1.62-0.28a1 1 0 0 1-0.63 0.24 0.82 0.82 0 0 1-0.61-0.21 0.73 0.73 0 0 1-0.25-0.58 0.8 0.8 0 0 1 0.25-0.6 0.89 0.89 0 0 1 0.62-0.25 0.85 0.85 0 0 1 0.62 0.21 0.76 0.76 0 0 1 0.25 0.59 0.82 0.82 0 0 1-0.25 0.6m1.86-0.27-0.33 0.12-0.67-0.67c0 0.16-0.05 0.86-0.05 0.86l-0.44 0.08 0.1-1.65 0.32-0.06 0.67 0.69v-0.84l0.44-0.12zm1.94-3.33c0 0.37-0.34 0.73-0.94 1 0.17-0.79-1.71-1-1.71-1.61s0.75-0.77 1.31-0.86c0.38 0.47 1.34 0.82 1.34 1.43"/></g></g></svg>
