<?xml version="1.0" encoding="UTF-8"?>
<svg version="1.1" viewBox="0 0 250 91" xmlns="http://www.w3.org/2000/svg" xmlns:cc="http://creativecommons.org/ns#" xmlns:dc="http://purl.org/dc/elements/1.1/" xmlns:rdf="http://www.w3.org/1999/02/22-rdf-syntax-ns#">
<metadata>
<rdf:RDF>
<cc:Work rdf:about="">
<dc:format>image/svg+xml</dc:format>
<dc:type rdf:resource="http://purl.org/dc/dcmitype/StillImage"/>
<dc:title/>
</cc:Work>
</rdf:RDF>
</metadata>
<g transform="translate(0,-961.4)" fill="#fff">
<g transform="matrix(.73169 0 0 .73169 61.503 155)" stroke-width=".41684">
<path d="m-37.948 1217.9c-0.48993-1.2692 0.25727-34.702 0.77554-34.701 0.2524 4e-4 2.1471 0.7262 4.2104 1.6126 3.7684 1.6189 8.4011 2.9716 10.177 2.9716 2.2988 0 9.9306-2.6295 12.813-4.4146 3.8216-2.3669 5.5739-3.087 7.5303-3.0945 1.4524-0.01 1.8884 0.3174 5.5365 4.101 2.178 2.2589 4.6238 4.5984 5.4351 5.1989 4.0452 2.9939 13.983 3.146 19.563 0.2995 0.89601-0.4571 3.3576-2.331 5.4703-4.1642 7.0412-6.1099 8.7124-6.3259 15.101-1.9519 4.3279 2.963 5.978 3.292 16.504 3.2905 12.416 0 16.178-0.5088 27.337-3.6856 3.5093-0.9989 4.9262-1.1849 8.962-1.1759 4.6314 0.01 4.9911 0.079 10.629 2.0211 8.8544 3.0502 7.3456 3.1085 37.515-1.4486 1.3756-0.2078 5.3418-0.3816 8.8139-0.3862 5.0646-0.01 6.8367 0.1509 8.962 0.797 4.5052 1.3697 7.3377 1.6956 14.736 1.6956 6.9813 0 16.459-0.7154 24.386-1.8408 2.178-0.3092 4.0859-0.4436 4.2398-0.2986 0.22143 0.2086 0.57928 32.28 0.39247 35.174-0.0447 0.693-6.2658 0.7295-124.43 0.7295-118.07 0-124.4-0.037-124.66-0.7295zm49.987-42.391c-8.256-1.2833-13.844-4.3859-18.658-10.36-8.1333-10.093-9.0167-25.825-2.1108-37.59 2.392-4.0751 7.6221-9.3872 11.407-11.586 5.3876-3.1295 13-4.7796 19.976-4.3304 2.1954 0.1413 4.7134 0.4629 5.5954 0.7146 1.5099 0.4308 1.5898 0.5351 1.3659 1.7815-0.13082 0.7282-0.36321 2.1372-0.51643 3.1312-0.15322 0.994-0.51101 1.8965-0.79509 2.0055-0.28407 0.109-2.0602-0.095-3.947-0.4526-9.1207-1.7301-17.55 0.4592-22.462 5.8344-2.6365 2.8848-5.2779 8.1615-6.1432 12.272-0.87289 4.1471-0.57886 11.232 0.62277 15.006 2.0065 6.302 6.92 12.2 12.331 14.803 5.7353 2.7585 11.475 3.3009 19.316 1.8251 2.5904-0.4876 4.821-0.7754 4.9568-0.6396 0.13585 0.1359 0.07976 1.6117-0.12463 3.2796-0.36808 3.0036-0.38596 3.0372-1.8742 3.5229-4.2103 1.3743-12.837 1.7304-18.939 0.7819zm108.39 0.358c-5.4704-0.7848-9.0508-1.5852-9.2347-2.0644-0.33343-0.8689 1.1328-6.8605 1.6788-6.8605 0.26882 0 2.3602 0.4797 4.6476 1.0661 11.104 2.8464 22.543 1.1664 25.414-3.7325 1.2872-2.1965 1.3953-5.4848 0.26226-7.9791-1.3489-2.9695-4.1869-4.9549-14.015-9.8043-10.034-4.9512-12.393-6.4825-14.574-9.4606-2.0381-2.7833-2.7249-5.0827-2.7249-9.1225 0-7.6507 4.2311-12.96 12.297-15.432 4.5591-1.3969 22.39-0.8485 23.359 0.7183 0.13136 0.2126 0.0163 1.9087-0.25578 3.7692l-0.49462 3.3827-1.3001-0.2323c-0.71505-0.1278-2.6131-0.5239-4.218-0.8801-1.6048-0.3563-4.9176-0.769-7.3616-0.917-9.7783-0.5924-14.939 2.164-14.939 7.979 0 3.7914 2.2074 6.5356 7.1295 8.8633 16.694 7.8946 19.854 9.8448 22.56 13.921 2.1925 3.3031 2.9746 6.4042 2.7239 10.801-0.60822 10.667-7.8559 15.661-23.243 16.015-3.5535 0.082-7.0237 0.068-7.7115-0.031zm-158.32-1.3177c-0.0975-0.1719-7e-5 -3.689 0.2166-7.8157 0.47459-9.0388 0.11943-25.363-0.68927-31.68-0.32285-2.5219-0.439-4.738-0.2581-4.9246 0.1809-0.1867 2.0894-0.5876 4.2412-0.8909 2.9214-0.4118 4.0276-0.4315 4.3674-0.077 0.32366 0.3372 0.35475 3.7247 0.10766 11.729-0.19565 6.3376-0.18371 16.08 0.0273 22.299 0.20612 6.0743 0.28728 11.186 0.18036 11.359-0.25305 0.4095-7.961 0.4113-8.1932 0zm79.327-0.342c0-1.0295 3.7429-10.311 11.25-27.899 7.0906-16.612 11.065-26.376 12.3-30.221 0.40517-1.2609 0.92689-2.5325 1.1594-2.8256 0.31184-0.3933 1.7748-0.5026 5.579-0.4169l5.1563 0.1162 1.6386 4.7936c0.90122 2.6365 3.628 9.6707 6.0596 15.631 11.381 27.9 13.337 32.788 14.665 36.641 0.82174 2.3853 1.2668 4.2833 1.0543 4.4958-0.2023 0.2023-2.411 0.3143-4.9082 0.2488-4.4438-0.1164-4.5466-0.1411-4.8321-1.1611-0.16045-0.5731-1.5714-4.9811-3.1355-9.7956l-2.8437-8.7536h-27.904l-1.8129 5.2105c-0.99709 2.8657-2.3463 7.2738-2.9983 9.7956l-1.1854 4.5852-4.6211 0.1179c-4.0486 0.1033-4.6211 0.033-4.6211-0.5641zm40.433-26.078c0-0.2598-1.9943-5.5588-4.4318-11.776-2.4375-6.2168-4.8427-12.512-5.345-13.988-0.50224-1.4767-1.0911-2.7441-1.3085-2.8166-0.21744-0.072-0.92794 1.3233-1.5789 3.1016-0.65095 1.7784-3.1324 8.0374-5.5143 13.909-2.3819 5.8715-4.3307 10.983-4.3307 11.359 0 0.6164 1.1032 0.6834 11.255 0.6834 8.1068 0 11.255-0.1322 11.255-0.4724zm88.76 26.643c-0.0141-0.065-0.061-13.933-0.10421-30.816l-0.0785-30.698 10.604-0.3059c14.632-0.422 18.383-0.025 23.278 2.4618 6.0917 3.095 8.9135 9.3067 7.6167 16.767-1.8706 10.76-11.25 16.798-27.326 17.591l-5.8357 0.2879v6.2525c0 3.4389 0.0938 8.9724 0.20842 12.297l0.20841 6.0441-4.2726 0.1188c-2.3499 0.065-4.2842 0.065-4.2983 0zm20.709-31.817c8.7449-1.5215 12.823-5.3857 12.779-12.11-0.0354-5.4989-2.7039-8.9697-8.234-10.71-2.4865-0.7824-3.8694-0.9194-9.18-0.9096-3.4389 0.01-6.7834 0.1543-7.4322 0.3289l-1.1796 0.3175 0.29491 11.551c0.1622 6.353 0.37585 11.692 0.47478 11.864 0.31883 0.5541 8.6609 0.3325 12.477-0.3315zm-226.81-22.263c-2.8561-1.1814-4.0033-5.2891-2.2172-7.9391 1.7028-2.5264 5.0241-3.5945 7.4152-2.3846 1.4348 0.726 2.9305 3.0921 2.9297 4.6346-2e-3 4.0787-4.4664 7.2035-8.1277 5.6891z" opacity=".657"/>
<path d="m-37.478 1217.9c-0.10336-0.1719-0.21507-3.4323-0.24825-7.2453l-0.0603-6.9327 3.2457 0.1226c2.9299 0.1106 4.5343 0.345 9.9151 1.4483 4.3708 0.8962 4.6398 0.9069 6.2191 0.2471 2.3177-0.9684 4.3731-0.8431 6.1671 0.376 1.9898 1.3521 3.0428 1.3052 5.3188-0.2368 2.0221-1.37 3.246-1.3916 6.8478-0.1208 0.9008 0.3178 2.2163 0.4709 2.9234 0.3403 0.70706-0.1306 2.5048 0.052 3.995 0.4048 1.4902 0.3532 3.8382 0.645 5.2179 0.6484 1.9823 0 2.8302 0.2248 4.042 1.0483 1.9832 1.3476 3.014 1.3132 6.2298-0.2081 2.9989-1.4187 5.2621-1.5853 8.4404-0.6211 2.4631 0.7472 4.313 0.7785 8.0582 0.1363 2.6458-0.4537 3.0369-0.414 6.1575 0.6252 3.8442 1.2802 6.1607 1.3819 9.8609 0.4329 3.8846-0.9963 8.0194-0.5977 10.901 1.0507 3.7802 2.1629 10.083 2.4355 15.88 0.6872 2.9833-0.8997 5.6769-0.6771 8.2386 0.6807 1.538 0.8153 2.4069 0.9518 5.9684 0.9375 3.5987-0.014 4.5387-0.1741 6.8778-1.1689 4.5088-1.9174 5.2834-2.0455 10.421-1.7241 5.0847 0.3181 5.2388 0.3198 20.425 0.2268 5.3876-0.033 11.202 0.1416 12.922 0.388 5.0955 0.7302 23.449 1.3196 44.602 1.4325l19.8 0.1056 0.0358 2.8862c0.0197 1.5874-0.0399 3.2144-0.1323 3.6156-0.15958 0.6927-6.4126 0.7295-124.12 0.7295-68.176 0-124.04-0.1407-124.14-0.3127zm53.759-15.614c-1.8446-0.8131-2.2019-0.8448-3.9599-0.3508-3.4753 0.9766-3.5366 0.9708-5.4809-0.5133-2.6881-2.052-3.4153-2.191-4.9052-0.9373-1.5086 1.2694-2.3959 1.3179-4.0514 0.2214-1.8104-1.199-3.1681-1.0385-5.256 0.6212-2.2453 1.7849-3.385 1.8312-5.2286 0.2125-1.7067-1.4985-3.4241-1.6219-5.6878-0.4086-1.8712 1.0029-6.9917 1.3809-8.1177 0.5993-0.39602-0.2749-2.7834-0.63-5.3052-0.7892-2.5219-0.1591-4.9135-0.3836-5.3147-0.4987-0.66409-0.1907-0.72946-0.9727-0.72946-8.7266 0-6.5362 0.12117-8.5168 0.52104-8.516 0.28658 4e-4 2.2092 0.7262 4.2726 1.6126 3.7684 1.6189 8.4011 2.9716 10.177 2.9716 2.2988 0 9.9306-2.6295 12.813-4.4146 3.8216-2.3669 5.5739-3.087 7.5303-3.0945 1.4524-0.01 1.8884 0.3174 5.5365 4.101 2.178 2.2589 4.6238 4.5984 5.4351 5.1989 4.0452 2.9939 13.983 3.146 19.563 0.2995 0.89601-0.4571 3.3576-2.331 5.4703-4.1642 7.0412-6.1099 8.7124-6.3259 15.101-1.9519 4.3279 2.963 5.978 3.292 16.504 3.2905 12.416 0 16.178-0.5088 27.337-3.6856 3.5093-0.9989 4.9262-1.1849 8.962-1.1759 4.6314 0.01 4.9911 0.079 10.629 2.0211 8.8544 3.0502 7.3456 3.1085 37.515-1.4486 1.3756-0.2078 5.3418-0.3816 8.8139-0.3862 5.0646-0.01 6.8367 0.1509 8.962 0.797 4.5052 1.3697 7.3377 1.6956 14.736 1.6956 6.9813 0 16.459-0.7154 24.386-1.8408 2.178-0.3092 4.106-0.4288 4.2845-0.2658s0.27227 2.9985 0.20842 6.3012l-0.11609 6.0049-4.1684 0.7065c-10.286 1.7435-15.821 2.128-26.678 1.8535-7.413-0.1875-13.068-0.084-19.591 0.36-17.605 1.1969-27.441 0.7941-35.444-1.4517-4.3584-1.223-7.6543-0.9858-13.881 0.999-5.8918 1.8781-8.7973 1.9792-12.866 0.4476-5.4268-2.0427-8.7762-1.8304-13.206 0.837-3.2498 1.9569-7.7829 3.5502-10.939 3.8449-2.4216 0.2262-2.7894 0.1345-6.1258-1.526l-3.5495-1.7667-3.6819 0.8642c-2.025 0.4753-4.9949 0.9793-6.5998 1.12-2.8415 0.2492-2.9833 0.2151-5.4189-1.3064-3.0668-1.9158-4.8425-2.0526-7.131-0.5493-3.5664 2.3427-6.1437 2.5846-9.8442 0.9239-2.3082-1.0359-2.6318-1.0801-4.4289-0.6053-1.0663 0.2818-3.2198 1.1598-4.7856 1.9512-3.3196 1.6779-3.5858 1.6999-6.2669 0.5179z"/>
<path d="m-37.478 1217.9c-0.10336-0.1719-0.21507-3.4323-0.24825-7.2453l-0.0603-6.9327 3.2457 0.1226c2.9299 0.1106 4.5343 0.345 9.9151 1.4483 4.3708 0.8962 4.6398 0.9069 6.2191 0.2471 2.3177-0.9684 4.3731-0.8431 6.1671 0.376 1.9898 1.3521 3.0428 1.3052 5.3188-0.2368 2.0221-1.37 3.246-1.3916 6.8478-0.1208 0.9008 0.3178 2.2163 0.4709 2.9234 0.3403 0.70706-0.1306 2.5048 0.052 3.995 0.4048 1.4902 0.3532 3.8382 0.645 5.2179 0.6484 1.9823 0 2.8302 0.2248 4.042 1.0483 1.9832 1.3476 3.014 1.3132 6.2298-0.2081 2.9989-1.4187 5.2621-1.5853 8.4404-0.6211 2.4631 0.7472 4.313 0.7785 8.0582 0.1363 2.6458-0.4537 3.0369-0.414 6.1575 0.6252 3.8442 1.2802 6.1607 1.3819 9.8609 0.4329 3.8846-0.9963 8.0194-0.5977 10.901 1.0507 3.7802 2.1629 10.083 2.4355 15.88 0.6872 2.9833-0.8997 5.6769-0.6771 8.2386 0.6807 1.538 0.8153 2.4069 0.9518 5.9684 0.9375 3.5987-0.014 4.5387-0.1741 6.8778-1.1689 4.5088-1.9174 5.2834-2.0455 10.421-1.7241 5.0847 0.3181 5.2388 0.3198 20.425 0.2268 5.3876-0.033 11.202 0.1416 12.922 0.388 5.0955 0.7302 23.449 1.3196 44.602 1.4325l19.8 0.1056 0.0358 2.8862c0.0197 1.5874-0.0399 3.2144-0.1323 3.6156-0.15958 0.6927-6.4126 0.7295-124.12 0.7295-68.176 0-124.04-0.1407-124.14-0.3127z" opacity=".287"/>
</g>
</g>
</svg>
