<?xml version="1.0" encoding="UTF-8" standalone="no"?>
<!-- Created with Inkscape (http://www.inkscape.org/) -->

<svg
   xmlns:dc="http://purl.org/dc/elements/1.1/"
   xmlns:cc="http://creativecommons.org/ns#"
   xmlns:rdf="http://www.w3.org/1999/02/22-rdf-syntax-ns#"
   xmlns:svg="http://www.w3.org/2000/svg"
   xmlns="http://www.w3.org/2000/svg"
   xmlns:sodipodi="http://sodipodi.sourceforge.net/DTD/sodipodi-0.dtd"
   xmlns:inkscape="http://www.inkscape.org/namespaces/inkscape"
   width="250"
   height="91"
   viewBox="0 0 250 91"
   id="svg2"
   version="1.1"
   inkscape:version="0.92.2 (5c3e80d, 2017-08-06)"
   sodipodi:docname="icasp.svg">
  <defs
     id="defs4" />
  <sodipodi:namedview
     id="base"
     pagecolor="#ffffff"
     bordercolor="#666666"
     borderopacity="1.0"
     inkscape:pageopacity="0.0"
     inkscape:pageshadow="2"
     inkscape:zoom="3.4296751"
     inkscape:cx="89.524551"
     inkscape:cy="13.523639"
     inkscape:document-units="px"
     inkscape:current-layer="layer1"
     showgrid="false"
     inkscape:window-width="1920"
     inkscape:window-height="1001"
     inkscape:window-x="-9"
     inkscape:window-y="-9"
     inkscape:window-maximized="1"
     units="px" />
  <metadata
     id="metadata7">
    <rdf:RDF>
      <cc:Work
         rdf:about="">
        <dc:format>image/svg+xml</dc:format>
        <dc:type
           rdf:resource="http://purl.org/dc/dcmitype/StillImage" />
        <dc:title></dc:title>
      </cc:Work>
    </rdf:RDF>
  </metadata>
  <g
     inkscape:label="Layer 1"
     inkscape:groupmode="layer"
     id="layer1"
     transform="translate(0,-961.4)"
     style="opacity:1">
    <rect
       style="opacity:0.001;fill:#ffffff;fill-opacity:1;stroke:none;stroke-width:2.5;stroke-linecap:round;stroke-linejoin:round;stroke-miterlimit:4;stroke-dasharray:none;stroke-dashoffset:0;stroke-opacity:1"
       id="rect4175"
       width="250"
       height="91"
       x="0"
       y="961.4" />
    <g
       id="g880"
       transform="matrix(0.73169285,0,0,0.73169285,61.502971,154.99932)">
      <path
         style="opacity:0.65700001;fill:#ffffff;stroke-width:0.41683656"
         d="m -37.948433,1217.9376 c -0.48993,-1.2692 0.25727,-34.7017 0.77554,-34.7006 0.2524,4e-4 2.14711,0.7262 4.21045,1.6126 3.76843,1.6189 8.40109,2.9716 10.17692,2.9716 2.29881,0 9.93056,-2.6295 12.81269,-4.4146 3.82159,-2.3669 5.57387,-3.087 7.53027,-3.0945 1.452367,-0.01 1.888407,0.3174 5.536477,4.101 2.177971,2.2589 4.62378,4.5984 5.435132,5.1989 4.045173,2.9939 13.983398,3.146 19.563072,0.2995 0.896011,-0.4571 3.357635,-2.331 5.470275,-4.1642 7.041244,-6.1099 8.712388,-6.3259 15.101237,-1.9519 4.327859,2.963 5.978036,3.292 16.504334,3.2905 12.41646,0 16.177872,-0.5088 27.337386,-3.6856 3.509334,-0.9989 4.926249,-1.1849 8.96199,-1.1759 4.63141,0.01 4.99109,0.079 10.62933,2.0211 8.85441,3.0502 7.34563,3.1085 37.51529,-1.4486 1.37555,-0.2078 5.3418,-0.3816 8.81386,-0.3862 5.06458,-0.01 6.83668,0.1509 8.96199,0.797 4.5052,1.3697 7.33771,1.6956 14.73584,1.6956 6.98131,0 16.45864,-0.7154 24.38649,-1.8408 2.17797,-0.3092 4.08589,-0.4436 4.23983,-0.2986 0.22143,0.2086 0.57928,32.2801 0.39247,35.1737 -0.0447,0.693 -6.26584,0.7295 -124.428204,0.7295 -118.073049,0 -124.395389,-0.037 -124.662669,-0.7295 z m 49.987492,-42.3913 c -8.255997,-1.2833 -13.843642,-4.3859 -18.657982,-10.3603 -8.13326,-10.0928 -9.01667,-25.8248 -2.11083,-37.5899 2.39203,-4.0751 7.622101,-9.3872 11.406897,-11.5857 5.387617,-3.1295 12.999523,-4.7796 19.976362,-4.3304 2.195419,0.1413 4.713358,0.4629 5.595421,0.7146 1.509895,0.4308 1.589828,0.5351 1.36589,1.7815 -0.13082,0.7282 -0.363214,2.1372 -0.516431,3.1312 -0.153221,0.994 -0.511008,1.8965 -0.795086,2.0055 -0.284074,0.109 -2.060227,-0.095 -3.947005,-0.4526 -9.1207,-1.7301 -17.549843,0.4592 -22.462428,5.8344 -2.636541,2.8848 -5.27787,8.1615 -6.14318,12.2725 -0.87289,4.1471 -0.57886,11.2321 0.62277,15.0061 2.006528,6.302 6.920009,12.2005 12.33111,14.8032 5.735329,2.7585 11.475326,3.3009 19.315755,1.8251 2.590405,-0.4876 4.820981,-0.7754 4.956828,-0.6396 0.135847,0.1359 0.07976,1.6117 -0.12463,3.2796 -0.368083,3.0036 -0.385965,3.0372 -1.874172,3.5229 -4.21027,1.3743 -12.837127,1.7304 -18.939289,0.7819 z m 108.394341,0.358 c -5.47041,-0.7848 -9.05081,-1.5852 -9.23471,-2.0644 -0.33343,-0.8689 1.13277,-6.8605 1.67884,-6.8605 0.26882,0 2.36023,0.4797 4.64757,1.0661 11.1041,2.8464 22.54332,1.1664 25.41429,-3.7325 1.28721,-2.1965 1.39529,-5.4848 0.26226,-7.9791 -1.34888,-2.9695 -4.18689,-4.9549 -14.01469,-9.8043 -10.03418,-4.9512 -12.39302,-6.4825 -14.57378,-9.4606 -2.03808,-2.7833 -2.72493,-5.0827 -2.72493,-9.1225 0,-7.6507 4.23109,-12.9605 12.29668,-15.4317 4.55908,-1.3969 22.39037,-0.8485 23.35872,0.7183 0.13136,0.2126 0.0163,1.9087 -0.25578,3.7692 l -0.49462,3.3827 -1.30008,-0.2323 c -0.71505,-0.1278 -2.61313,-0.5239 -4.21795,-0.8801 -1.60482,-0.3563 -4.91755,-0.769 -7.36161,-0.917 -9.77827,-0.5924 -14.93914,2.164 -14.93914,7.979 0,3.7914 2.20739,6.5356 7.12954,8.8633 16.69383,7.8946 19.85424,9.8448 22.56002,13.9213 2.1925,3.3031 2.97457,6.4042 2.72389,10.8008 -0.60822,10.6672 -7.85592,15.6611 -23.24305,16.015 -3.55353,0.082 -7.02369,0.068 -7.71147,-0.031 z m -158.317613,-1.3177 c -0.0975,-0.1719 -7e-5,-3.689 0.2166,-7.8157 0.47459,-9.0388 0.11943,-25.3626 -0.68927,-31.6795 -0.32285,-2.5219 -0.439,-4.738 -0.2581,-4.9246 0.1809,-0.1867 2.08945,-0.5876 4.24123,-0.8909 2.92143,-0.4118 4.02759,-0.4315 4.36744,-0.077 0.32366,0.3372 0.35475,3.7247 0.10766,11.7287 -0.19565,6.3376 -0.18371,16.0797 0.0273,22.2988 0.20612,6.0743 0.28728,11.1858 0.18036,11.3588 -0.25305,0.4095 -7.96103,0.4113 -8.19324,0 z m 79.327088,-0.342 c 0,-1.0295 3.742863,-10.3114 11.24993,-27.8986 7.090577,-16.6116 11.064701,-26.3757 12.300217,-30.2207 0.405173,-1.2609 0.926886,-2.5325 1.15936,-2.8256 0.311839,-0.3933 1.774823,-0.5026 5.578973,-0.4169 l 5.156297,0.1162 1.638576,4.7936 c 0.901222,2.6365 3.628025,9.6707 6.059566,15.6314 11.381058,27.8999 13.337293,32.7877 14.664863,36.6412 0.821743,2.3853 1.266833,4.2833 1.054293,4.4958 -0.2023,0.2023 -2.410983,0.3143 -4.908176,0.2488 -4.443811,-0.1164 -4.546561,-0.1411 -4.83209,-1.1611 -0.160453,-0.5731 -1.571419,-4.9811 -3.135482,-9.7956 l -2.843746,-8.7536 H 70.633575 56.681693 L 54.8688,1160.31 c -0.997089,2.8657 -2.346331,7.2738 -2.998309,9.7956 l -1.185416,4.5852 -4.6211,0.1179 c -4.048613,0.1033 -4.6211,0.033 -4.6211,-0.5641 z m 40.433143,-26.0784 c 0,-0.2598 -1.994312,-5.5588 -4.43181,-11.7756 -2.437497,-6.2168 -4.842736,-12.5115 -5.344982,-13.9881 -0.502242,-1.4767 -1.091074,-2.7441 -1.308512,-2.8166 -0.217439,-0.072 -0.927941,1.3233 -1.578898,3.1016 -0.650953,1.7784 -3.132372,8.0374 -5.514264,13.9089 -2.381887,5.8715 -4.330706,10.983 -4.330706,11.3588 0,0.6164 1.103162,0.6834 11.254586,0.6834 8.106791,0 11.254586,-0.1322 11.254586,-0.4724 z m 88.760462,26.6434 c -0.0141,-0.065 -0.061,-13.9327 -0.10421,-30.8164 l -0.0785,-30.6976 10.60371,-0.3059 c 14.63188,-0.422 18.38309,-0.025 23.2785,2.4618 6.09168,3.095 8.91354,9.3067 7.61671,16.7667 -1.87059,10.7604 -11.24979,16.7982 -27.32648,17.5914 l -5.83571,0.2879 v 6.2525 c 0,3.4389 0.0938,8.9724 0.20842,12.2967 l 0.20841,6.0441 -4.27257,0.1188 c -2.34992,0.065 -4.28415,0.065 -4.2983,0 z m 20.70873,-31.8172 c 8.74488,-1.5215 12.82263,-5.3857 12.77929,-12.1099 -0.0354,-5.4989 -2.70387,-8.9697 -8.23405,-10.7098 -2.48648,-0.7824 -3.86942,-0.9194 -9.18004,-0.9096 -3.43891,0.01 -6.78339,0.1543 -7.4322,0.3289 l -1.17965,0.3175 0.29491,11.5509 c 0.1622,6.353 0.37585,11.6915 0.47478,11.8635 0.31883,0.5541 8.66088,0.3325 12.47696,-0.3315 z m -226.808673,-22.2627 c -2.85612,-1.1814 -4.00333,-5.2891 -2.21723,-7.9391 1.70284,-2.5264 5.02412,-3.5945 7.41517,-2.3846 1.43481,0.726 2.9305,3.0921 2.92972,4.6346 -0.002,4.0787 -4.46635,7.2035 -8.12766,5.6891 z"
         id="path867"
         inkscape:connector-curvature="0" />
      <path
         style="opacity:1;fill:#ffffff;stroke-width:0.41683656"
         d="m -37.477953,1217.9376 c -0.10336,-0.1719 -0.21507,-3.4323 -0.24825,-7.2453 l -0.0603,-6.9327 3.24571,0.1226 c 2.92989,0.1106 4.53434,0.345 9.91509,1.4483 4.37077,0.8962 4.63985,0.9069 6.21908,0.2471 2.31771,-0.9684 4.3731,-0.8431 6.16714,0.376 1.98975,1.3521 3.04285,1.3052 5.31883,-0.2368 2.02209,-1.37 3.24598,-1.3916 6.847753,-0.1208 0.900797,0.3178 2.216308,0.4709 2.923362,0.3403 0.707055,-0.1306 2.5048,0.052 3.994991,0.4048 1.490191,0.3532 3.838247,0.645 5.217905,0.6484 1.982283,0 2.83015,0.2248 4.042039,1.0483 1.983229,1.3476 3.014045,1.3132 6.229789,-0.2081 2.998859,-1.4187 5.26214,-1.5853 8.440406,-0.6211 2.463133,0.7472 4.312991,0.7785 8.058213,0.1363 2.645845,-0.4537 3.036883,-0.414 6.157497,0.6252 3.84415,1.2802 6.16074,1.3819 9.860893,0.4329 3.88455,-0.9963 8.019372,-0.5977 10.900567,1.0507 3.780199,2.1629 10.082546,2.4355 15.880255,0.6872 2.983253,-0.8997 5.676922,-0.6771 8.238607,0.6807 1.538027,0.8153 2.406852,0.9518 5.968428,0.9375 3.598679,-0.014 4.538658,-0.1741 6.877798,-1.1689 4.50882,-1.9174 5.28337,-2.0455 10.42092,-1.7241 5.08472,0.3181 5.23882,0.3198 20.42499,0.2268 5.38761,-0.033 11.20248,0.1416 12.92193,0.388 5.09546,0.7302 23.44895,1.3196 44.60151,1.4325 l 19.79974,0.1056 0.0358,2.8862 c 0.0197,1.5874 -0.0399,3.2144 -0.1323,3.6156 -0.15958,0.6927 -6.41263,0.7295 -124.124228,0.7295 -68.175899,0 -124.040745,-0.1407 -124.144105,-0.3127 z m 53.758862,-15.6145 c -1.844581,-0.8131 -2.201918,-0.8448 -3.959947,-0.3508 -3.475271,0.9766 -3.536608,0.9708 -5.480888,-0.5133 -2.688137,-2.052 -3.415317,-2.191 -4.90517,-0.9373 -1.508606,1.2694 -2.395851,1.3179 -4.051447,0.2214 -1.81042,-1.199 -3.16807,-1.0385 -5.256,0.6212 -2.24532,1.7849 -3.385,1.8312 -5.2286,0.2125 -1.70673,-1.4985 -3.42408,-1.6219 -5.68785,-0.4086 -1.8712,1.0029 -6.99172,1.3809 -8.11771,0.5993 -0.39602,-0.2749 -2.78337,-0.63 -5.30523,-0.7892 -2.52186,-0.1591 -4.91346,-0.3836 -5.31467,-0.4987 -0.66409,-0.1907 -0.72946,-0.9727 -0.72946,-8.7266 0,-6.5362 0.12117,-8.5168 0.52104,-8.516 0.28658,4e-4 2.20924,0.7262 4.27258,1.6126 3.76843,1.6189 8.40109,2.9716 10.17692,2.9716 2.29881,0 9.93056,-2.6295 12.81269,-4.4146 3.82159,-2.3669 5.57387,-3.087 7.53027,-3.0945 1.452367,-0.01 1.888407,0.3174 5.536477,4.101 2.177971,2.2589 4.62378,4.5984 5.435132,5.1989 4.045173,2.9939 13.983398,3.146 19.563072,0.2995 0.896011,-0.4571 3.357635,-2.331 5.470275,-4.1642 7.041244,-6.1099 8.712388,-6.3259 15.101237,-1.9519 4.327859,2.963 5.978036,3.292 16.504334,3.2905 12.41646,0 16.177872,-0.5088 27.337386,-3.6856 3.509334,-0.9989 4.926249,-1.1849 8.96199,-1.1759 4.63141,0.01 4.99109,0.079 10.62933,2.0211 8.85441,3.0502 7.34563,3.1085 37.51529,-1.4486 1.37555,-0.2078 5.3418,-0.3816 8.81386,-0.3862 5.06458,-0.01 6.83668,0.1509 8.96199,0.797 4.5052,1.3697 7.33771,1.6956 14.73584,1.6956 6.98131,0 16.45864,-0.7154 24.38649,-1.8408 2.17797,-0.3092 4.10598,-0.4288 4.28446,-0.2658 0.17848,0.163 0.27227,2.9985 0.20842,6.3012 l -0.11609,6.0049 -4.16837,0.7065 c -10.28609,1.7435 -15.82131,2.128 -26.67754,1.8535 -7.41301,-0.1875 -13.06787,-0.084 -19.59132,0.36 -17.60501,1.1969 -27.44054,0.7941 -35.44408,-1.4517 -4.35842,-1.223 -7.65427,-0.9858 -13.88083,0.999 -5.89182,1.8781 -8.79727,1.9792 -12.866429,0.4476 -5.426786,-2.0427 -8.776222,-1.8304 -13.205794,0.837 -3.249753,1.9569 -7.782888,3.5502 -10.939237,3.8449 -2.421562,0.2262 -2.789441,0.1345 -6.125767,-1.526 l -3.549492,-1.7667 -3.681913,0.8642 c -2.02505,0.4753 -4.994948,0.9793 -6.599769,1.12 -2.841524,0.2492 -2.983282,0.2151 -5.418875,-1.3064 -3.066783,-1.9158 -4.84254,-2.0526 -7.130977,-0.5493 -3.566361,2.3427 -6.143653,2.5846 -9.844215,0.9239 -2.308199,-1.0359 -2.631835,-1.0801 -4.428909,-0.6053 -1.06631,0.2818 -3.219825,1.1598 -4.785588,1.9512 -3.319586,1.6779 -3.585769,1.6999 -6.266916,0.5179 z"
         id="path865"
         inkscape:connector-curvature="0" />
      <path
         style="opacity:0.28699999;fill:#ffffff;stroke-width:0.41683656"
         d="m -37.477953,1217.9376 c -0.10336,-0.1719 -0.21507,-3.4323 -0.24825,-7.2453 l -0.0603,-6.9327 3.24571,0.1226 c 2.92989,0.1106 4.53434,0.345 9.91509,1.4483 4.37077,0.8962 4.63985,0.9069 6.21908,0.2471 2.31771,-0.9684 4.3731,-0.8431 6.16714,0.376 1.98975,1.3521 3.04285,1.3052 5.31883,-0.2368 2.02209,-1.37 3.24598,-1.3916 6.847753,-0.1208 0.900797,0.3178 2.216308,0.4709 2.923362,0.3403 0.707055,-0.1306 2.5048,0.052 3.994991,0.4048 1.490191,0.3532 3.838247,0.645 5.217905,0.6484 1.982283,0 2.83015,0.2248 4.042039,1.0483 1.983229,1.3476 3.014045,1.3132 6.229789,-0.2081 2.998859,-1.4187 5.26214,-1.5853 8.440406,-0.6211 2.463133,0.7472 4.312991,0.7785 8.058213,0.1363 2.645845,-0.4537 3.036883,-0.414 6.157497,0.6252 3.84415,1.2802 6.16074,1.3819 9.860893,0.4329 3.88455,-0.9963 8.019372,-0.5977 10.900567,1.0507 3.780199,2.1629 10.082546,2.4355 15.880255,0.6872 2.983253,-0.8997 5.676922,-0.6771 8.238607,0.6807 1.538027,0.8153 2.406852,0.9518 5.968428,0.9375 3.598679,-0.014 4.538658,-0.1741 6.877798,-1.1689 4.50882,-1.9174 5.28337,-2.0455 10.42092,-1.7241 5.08472,0.3181 5.23882,0.3198 20.42499,0.2268 5.38761,-0.033 11.20248,0.1416 12.92193,0.388 5.09546,0.7302 23.44895,1.3196 44.60151,1.4325 l 19.79974,0.1056 0.0358,2.8862 c 0.0197,1.5874 -0.0399,3.2144 -0.1323,3.6156 -0.15958,0.6927 -6.41263,0.7295 -124.124228,0.7295 -68.175899,0 -124.040745,-0.1407 -124.144105,-0.3127 z"
         id="path863"
         inkscape:connector-curvature="0" />
    </g>
  </g>
</svg>
