<?xml version="1.0" encoding="UTF-8"?>
<svg version="1.1" viewBox="0 0 250 91" xmlns="http://www.w3.org/2000/svg" xmlns:cc="http://creativecommons.org/ns#" xmlns:dc="http://purl.org/dc/elements/1.1/" xmlns:rdf="http://www.w3.org/1999/02/22-rdf-syntax-ns#">
<metadata>
<rdf:RDF>
<cc:Work rdf:about="">
<dc:format>image/svg+xml</dc:format>
<dc:type rdf:resource="http://purl.org/dc/dcmitype/StillImage"/>
<dc:title/>
</cc:Work>
</rdf:RDF>
</metadata>
<g transform="translate(0,-961.4)">
<g transform="matrix(.31088 0 0 .31088 372.82 963.97)" fill="#fff">
<path d="m-1058.5 90.427c0-5.113-4.1-9.257-9.3-9.257h-73.9c-5.1 0-9.3 4.144-9.3 9.257v73.963c0 5.12 4.2 9.26 9.3 9.26h39.4c0.1-0.1 0.2-0.11 0.3-0.15 6.7-3.53 9.3-9.76 10-14.66h-7.2c5.8-1.48 14.4-5.23 14.7-14.47 0-0.1-0.1-0.17-0.1-0.25 0-0.18 0.1-0.36 0.1-0.54v-32.34c0-2.23-1.8-4.05-4.1-4.05h-32.3c-2.3 0-4.1 1.82-4.1 4.05v32.34c0 2.24 1.8 4.05 4.1 4.05h23.8c-0.3 3.46-1.6 8.46-6.4 11.15v0.1h-26c-3.5 0-6.2-2.78-6.2-6.21v-49.59c0-3.425 2.7-6.203 6.2-6.203h49.5c3.5 0 6.3 2.778 6.3 6.203v49.59c0 12.82-11.6 18.55-20 21.02h8.9c-0.9 6.44-4 14.61-13.3 19.3-0.6 0.29-0.9 0.97-0.7 1.58s0.8 1.01 1.4 0.96c1.1-0.1 38.3-6.5 38.9-30.34v-0.18-0.57-73.971z"/>
<g transform="translate(-1105.7,-427.11)">
<path d="m80.813 518.45v-10.69h11.375v10.69h-11.375zm-0.06 80.31v-64.12h11.438v64.12h-11.438z"/>
<path d="m106.56 598.76v-47.37q0-3.25-0.69-16.75h11.94l0.13 10.37q2.56-5.62 8.18-8.81 5.63-3.19 12.32-3.19 6.87 0 12 3.63 5.18 3.62 7.5 10.25 3.5-6.5 9.43-10.19 6-3.69 13.5-3.69 10.94 0 16.57 7 5.68 6.94 5.68 19.5v39.25h-11.5v-38.31q0-8.5-2.87-13.25-2.88-4.81-8.88-4.81-7.68 0-13.25 5.62-5.5 5.57-5.87 13.75v37h-11.5v-39.31q0-7.69-3-12.37-3-4.69-9.56-4.69-7.57 0-12.82 5.06t-5.75 12.25v39.06h-11.56z"/>
<path d="m244.44 590.76q9.56 0 14.56-6.62 5.06-6.69 5.06-17.94 0-10.62-5.12-17.19-5.13-6.62-14.63-6.62-10 0-15.25 6.62-5.19 6.63-5.19 17.38 0 10.81 5.25 17.62 5.25 6.75 15.32 6.75zm-1.63 9.38q-7.19 0-13.06-2.69-5.81-2.69-9.63-7.25-3.75-4.62-5.81-10.62-2-6.07-2-12.88 0-9.37 3.63-16.94 3.68-7.62 10.68-12.18 7-4.57 16.19-4.57 6.81 0 12.38 3.32 5.62 3.31 8.5 8.5v-10.19h11.37v64.12h-11.5v-10.93q-2.75 5.75-8.19 9.06-5.43 3.25-12.56 3.25z"/>
<path d="m320.5 600.14q-14.88 0-23.81-9.25-8.88-9.31-8.88-23.81 0-15.19 9.06-24.63 9.07-9.44 23.88-9.44 13.44 0 21.19 7.63l-4.07 7.62q-6.68-5.81-16.31-5.81-9.81 0-15.87 6.44-6 6.37-6 18.12 0 10.88 5.81 17.32 5.87 6.43 15.87 6.43 9.69 0 17.5-6l3.63 8.32q-9.13 7.06-22 7.06z"/>
<path d="m388 598.76h-5.31q-13.63-0.12-18.69-4.87-5-4.75-5-17.31v-34.25h-12.31v-7.69h12.56v-16.5l11.25-3.31v19.81h17.37v7.69h-17.37v34.87q0 3.44 0.44 5.56 0.5 2.13 1.5 3.63 1 1.44 3.18 2.12 2.19 0.69 4.94 1 2.75 0.25 7.44 0.25v9z"/>
<path d="m401.06 518.45v-10.69h11.38v10.69h-11.38zm-0.1 80.31v-64.12h11.44v64.12h-11.44z"/>
<path d="m446.31 598.76-26.87-64.12h12.56q2.25 5.87 6.37 16.44 4.19 10.56 7.57 19.31 3.43 8.69 6.31 16.5 2.69-7.94 5.94-16.63 3.31-8.75 7.37-19.25 4.13-10.5 6.31-16.37h12.32l-26.88 64.12h-11z"/>
<path d="m517.19 590.76q9.56 0 14.56-6.62 5.06-6.69 5.06-17.94 0-10.62-5.12-17.19-5.13-6.62-14.63-6.62-10 0-15.25 6.62-5.19 6.63-5.19 17.38 0 10.81 5.25 17.62 5.25 6.75 15.32 6.75zm-1.63 9.38q-7.19 0-13.06-2.69-5.81-2.69-9.63-7.25-3.75-4.62-5.81-10.62-2-6.07-2-12.88 0-9.37 3.63-16.94 3.68-7.62 10.68-12.18 7-4.57 16.19-4.57 6.81 0 12.38 3.32 5.62 3.31 8.5 8.5v-10.19h11.37v64.12h-11.5v-10.93q-2.75 5.75-8.19 9.06-5.43 3.25-12.56 3.25z"/>
<path d="m598.25 598.76h-5.31q-13.63-0.12-18.69-4.87-5-4.75-5-17.31v-34.25h-12.31v-7.69h12.56v-16.5l11.25-3.31v19.81h17.37v7.69h-17.37v34.87q0 3.44 0.44 5.56 0.5 2.13 1.5 3.63 1 1.44 3.18 2.12 2.19 0.69 4.94 1 2.75 0.25 7.44 0.25v9z"/>
<path d="m615 560.45h36.81q-0.62-8.81-5.12-13.56t-12-4.75q-7.88 0-13.19 4.87-5.25 4.88-6.5 13.44zm21.12 39.69q-15.31 0-24.31-9.06-9-9.13-9-24.19 0-14.81 8.63-24.31 8.68-9.57 22.93-9.57 9 0 15.38 4.19 6.44 4.19 9.5 11.38 3.12 7.18 3.12 16.68 0 1.19-0.18 3.07h-47.5q0.18 10.75 6.18 16.62 6 5.81 15.88 5.81 11.5 0 20.37-7.12l3.44 8.5q-10.31 8-24.44 8z"/>
</g>
</g>
</g>
</svg>
