<?xml version="1.0" encoding="UTF-8" standalone="no"?>
<!-- Created with Inkscape (http://www.inkscape.org/) -->

<svg xmlns:dc="http://purl.org/dc/elements/1.1/" xmlns:cc="http://creativecommons.org/ns#" xmlns:rdf="http://www.w3.org/1999/02/22-rdf-syntax-ns#" xmlns:svg="http://www.w3.org/2000/svg" xmlns="http://www.w3.org/2000/svg" xmlns:sodipodi="http://sodipodi.sourceforge.net/DTD/sodipodi-0.dtd" xmlns:inkscape="http://www.inkscape.org/namespaces/inkscape" width="250" height="91" viewBox="0 0 250 91" id="svg2" version="1.1" inkscape:version="0.91 r13725" sodipodi:docname="imactivate.svg">
  <defs id="defs4" />
  <sodipodi:namedview id="base" pagecolor="#ffffff" bordercolor="#666666" borderopacity="1.0" inkscape:pageopacity="0.0" inkscape:pageshadow="2" inkscape:zoom="1.9799" inkscape:cx="183.26" inkscape:cy="27.908" inkscape:document-units="px" inkscape:current-layer="layer1" showgrid="false" inkscape:window-width="1280" inkscape:window-height="752" inkscape:window-x="0" inkscape:window-y="0" inkscape:window-maximized="1" units="px" />
  <metadata id="metadata7">
    <rdf:RDF>
      <cc:Work rdf:about="">
        <dc:format>image/svg+xml</dc:format>
        <dc:type rdf:resource="http://purl.org/dc/dcmitype/StillImage" />
        <dc:title></dc:title>
      </cc:Work>
    </rdf:RDF>
  </metadata>
  <g inkscape:label="Layer 1" inkscape:groupmode="layer" id="layer1" transform="translate(0,-961.4)">
    <rect style="opacity:0.001;fill:#000000;fill-opacity:1;stroke:none;stroke-width:2.5;stroke-linecap:round;stroke-linejoin:round;stroke-miterlimit:4;stroke-dasharray:none;stroke-dashoffset:0;stroke-opacity:1" id="rect4175" width="250" height="91" x="0" y="961.4" />
    <g transform="matrix(0.31088,0,0,0.31088,372.82,963.97)" id="layer1-9" inkscape:label="Layer 1" style="fill:#ffffff;fill-opacity:1">
      <path inkscape:export-ydpi="96.056252" inkscape:export-xdpi="96.056252" inkscape:export-filename="C:\Users\thoma\Desktop\imactivate_meterexplorer_white.png" inkscape:connector-curvature="0" d="m -1058.5,90.427 c 0,-5.113 -4.1,-9.257 -9.3,-9.257 l -73.9,0 c -5.1,0 -9.3,4.144 -9.3,9.257 l 0,73.963 c 0,5.12 4.2,9.26 9.3,9.26 l 39.4,0 c 0.1,-0.1 0.2,-0.11 0.3,-0.15 6.7,-3.53 9.3,-9.76 10,-14.66 l -7.2,0 c 5.8,-1.48 14.4,-5.23 14.7,-14.47 0,-0.1 -0.1,-0.17 -0.1,-0.25 0,-0.18 0.1,-0.36 0.1,-0.54 l 0,-32.34 c 0,-2.23 -1.8,-4.05 -4.1,-4.05 l -32.3,0 c -2.3,0 -4.1,1.82 -4.1,4.05 l 0,32.34 c 0,2.24 1.8,4.05 4.1,4.05 l 23.8,0 c -0.3,3.46 -1.6,8.46 -6.4,11.15 0,0 0,0 0,0.1 l -26,0 c -3.5,0 -6.2,-2.78 -6.2,-6.21 l 0,-49.59 c 0,-3.425 2.7,-6.203 6.2,-6.203 l 49.5,0 c 3.5,0 6.3,2.778 6.3,6.203 l 0,49.59 c 0,12.82 -11.6,18.55 -20,21.02 l 8.9,0 c -0.9,6.44 -4,14.61 -13.3,19.3 -0.6,0.29 -0.9,0.97 -0.7,1.58 0.2,0.61 0.8,1.01 1.4,0.96 0,0 0,0 0,0 1.1,-0.1 38.3,-6.5 38.9,-30.34 0,-0.1 0,-0.12 0,-0.18 0,-0.19 0,-0.38 0,-0.57 l 0,-73.971 z" style="fill:#ffffff;fill-opacity:1;fill-rule:nonzero;stroke:none" id="path3034-8-0-6-0-1-1-4-2-5-6" />
      <g id="flowRoot3053-6-5-9-7-7-5-7-9-1" style="font-style:normal;font-variant:normal;font-weight:300;font-stretch:normal;font-size:40px;line-height:125%;font-family:Muli;-inkscape-font-specification:'Muli Light';letter-spacing:0px;word-spacing:0px;fill:#ffffff;fill-opacity:1;stroke:none" transform="translate(-1105.7,-427.11)">
        <path id="path4143" style="font-style:normal;font-variant:normal;font-weight:normal;font-stretch:normal;font-family:Muli;-inkscape-font-specification:Muli;letter-spacing:-7px;word-spacing:-2.95px;fill:#ffffff;fill-opacity:1" d="m 80.813,518.45 0,-10.69 11.375,0 0,10.69 -11.375,0 z m -0.06,80.31 0,-64.12 11.438,0 0,64.12 -11.438,0 z" inkscape:connector-curvature="0" />
        <path id="path4145" style="font-style:normal;font-variant:normal;font-weight:normal;font-stretch:normal;font-family:Muli;-inkscape-font-specification:Muli;letter-spacing:-7px;word-spacing:-17.07999px;fill:#ffffff;fill-opacity:1" d="m 106.56,598.76 0,-47.37 q 0,-3.25 -0.69,-16.75 l 11.94,0 0.13,10.37 q 2.56,-5.62 8.18,-8.81 5.63,-3.19 12.32,-3.19 6.87,0 12,3.63 5.18,3.62 7.5,10.25 3.5,-6.5 9.43,-10.19 6,-3.69 13.5,-3.69 10.94,0 16.57,7 5.68,6.94 5.68,19.5 l 0,39.25 -11.5,0 0,-38.31 q 0,-8.5 -2.87,-13.25 -2.88,-4.81 -8.88,-4.81 -7.68,0 -13.25,5.62 -5.5,5.57 -5.87,13.75 l 0,37 -11.5,0 0,-39.31 q 0,-7.69 -3,-12.37 -3,-4.69 -9.56,-4.69 -7.57,0 -12.82,5.06 -5.25,5.06 -5.75,12.25 l 0,39.06 -11.56,0 z" inkscape:connector-curvature="0" />
        <path id="path4147" style="font-style:normal;font-variant:normal;font-weight:normal;font-stretch:normal;font-size:128px;font-family:Muli;-inkscape-font-specification:Muli;letter-spacing:-4px;word-spacing:-2.95px;fill:#ffffff;fill-opacity:1" d="m 244.44,590.76 q 9.56,0 14.56,-6.62 5.06,-6.69 5.06,-17.94 0,-10.62 -5.12,-17.19 -5.13,-6.62 -14.63,-6.62 -10,0 -15.25,6.62 -5.19,6.63 -5.19,17.38 0,10.81 5.25,17.62 5.25,6.75 15.32,6.75 z m -1.63,9.38 q -7.19,0 -13.06,-2.69 -5.81,-2.69 -9.63,-7.25 -3.75,-4.62 -5.81,-10.62 -2,-6.07 -2,-12.88 0,-9.37 3.63,-16.94 3.68,-7.62 10.68,-12.18 7,-4.57 16.19,-4.57 6.81,0 12.38,3.32 5.62,3.31 8.5,8.5 l 0,-10.19 11.37,0 0,64.12 -11.5,0 0,-10.93 q -2.75,5.75 -8.19,9.06 -5.43,3.25 -12.56,3.25 z" inkscape:connector-curvature="0" />
        <path id="path4149" style="font-style:normal;font-variant:normal;font-weight:normal;font-stretch:normal;font-size:128px;font-family:Muli;-inkscape-font-specification:Muli;letter-spacing:-4px;word-spacing:-2.95px;fill:#ffffff;fill-opacity:1" d="m 320.5,600.14 q -14.88,0 -23.81,-9.25 -8.88,-9.31 -8.88,-23.81 0,-15.19 9.06,-24.63 9.07,-9.44 23.88,-9.44 13.44,0 21.19,7.63 l -4.07,7.62 q -6.68,-5.81 -16.31,-5.81 -9.81,0 -15.87,6.44 -6,6.37 -6,18.12 0,10.88 5.81,17.32 5.87,6.43 15.87,6.43 9.69,0 17.5,-6 l 3.63,8.32 q -9.13,7.06 -22,7.06 z" inkscape:connector-curvature="0" />
        <path id="path4151" style="font-style:normal;font-variant:normal;font-weight:normal;font-stretch:normal;font-size:128px;font-family:Muli;-inkscape-font-specification:Muli;letter-spacing:-4px;word-spacing:-2.95px;fill:#ffffff;fill-opacity:1" d="m 388,598.76 -5.31,0 q -13.63,-0.12 -18.69,-4.87 -5,-4.75 -5,-17.31 l 0,-34.25 -12.31,0 0,-7.69 12.56,0 0,-16.5 11.25,-3.31 0,19.81 17.37,0 0,7.69 -17.37,0 0,34.87 q 0,3.44 0.44,5.56 0.5,2.13 1.5,3.63 1,1.44 3.18,2.12 2.19,0.69 4.94,1 2.75,0.25 7.44,0.25 l 0,9 z" inkscape:connector-curvature="0" />
        <path id="path4153" style="font-style:normal;font-variant:normal;font-weight:normal;font-stretch:normal;font-size:128px;font-family:Muli;-inkscape-font-specification:Muli;letter-spacing:-4px;word-spacing:-2.95px;fill:#ffffff;fill-opacity:1" d="m 401.06,518.45 0,-10.69 11.38,0 0,10.69 -11.38,0 z m -0.1,80.31 0,-64.12 11.44,0 0,64.12 -11.44,0 z" inkscape:connector-curvature="0" />
        <path id="path4155" style="font-style:normal;font-variant:normal;font-weight:normal;font-stretch:normal;font-family:Muli;-inkscape-font-specification:Muli;letter-spacing:-6px;word-spacing:-2.95px;fill:#ffffff;fill-opacity:1" d="m 446.31,598.76 -26.87,-64.12 12.56,0 q 2.25,5.87 6.37,16.44 4.19,10.56 7.57,19.31 3.43,8.69 6.31,16.5 2.69,-7.94 5.94,-16.63 3.31,-8.75 7.37,-19.25 4.13,-10.5 6.31,-16.37 l 12.32,0 -26.88,64.12 -11,0 z" inkscape:connector-curvature="0" />
        <path id="path4157" style="font-style:normal;font-variant:normal;font-weight:normal;font-stretch:normal;font-size:128px;font-family:Muli;-inkscape-font-specification:Muli;letter-spacing:-4px;word-spacing:-2.95px;fill:#ffffff;fill-opacity:1" d="m 517.19,590.76 q 9.56,0 14.56,-6.62 5.06,-6.69 5.06,-17.94 0,-10.62 -5.12,-17.19 -5.13,-6.62 -14.63,-6.62 -10,0 -15.25,6.62 -5.19,6.63 -5.19,17.38 0,10.81 5.25,17.62 5.25,6.75 15.32,6.75 z m -1.63,9.38 q -7.19,0 -13.06,-2.69 -5.81,-2.69 -9.63,-7.25 -3.75,-4.62 -5.81,-10.62 -2,-6.07 -2,-12.88 0,-9.37 3.63,-16.94 3.68,-7.62 10.68,-12.18 7,-4.57 16.19,-4.57 6.81,0 12.38,3.32 5.62,3.31 8.5,8.5 l 0,-10.19 11.37,0 0,64.12 -11.5,0 0,-10.93 q -2.75,5.75 -8.19,9.06 -5.43,3.25 -12.56,3.25 z" inkscape:connector-curvature="0" />
        <path id="path4159" style="font-style:normal;font-variant:normal;font-weight:normal;font-stretch:normal;font-family:Muli;-inkscape-font-specification:Muli;letter-spacing:-8px;fill:#ffffff;fill-opacity:1" d="m 598.25,598.76 -5.31,0 q -13.63,-0.12 -18.69,-4.87 -5,-4.75 -5,-17.31 l 0,-34.25 -12.31,0 0,-7.69 12.56,0 0,-16.5 11.25,-3.31 0,19.81 17.37,0 0,7.69 -17.37,0 0,34.87 q 0,3.44 0.44,5.56 0.5,2.13 1.5,3.63 1,1.44 3.18,2.12 2.19,0.69 4.94,1 2.75,0.25 7.44,0.25 l 0,9 z" inkscape:connector-curvature="0" />
        <path id="path4161" style="font-style:normal;font-variant:normal;font-weight:normal;font-stretch:normal;font-size:128px;font-family:Muli;-inkscape-font-specification:Muli;letter-spacing:-4px;word-spacing:-2.95px;fill:#ffffff;fill-opacity:1" d="m 615,560.45 36.81,0 q -0.62,-8.81 -5.12,-13.56 -4.5,-4.75 -12,-4.75 -7.88,0 -13.19,4.87 -5.25,4.88 -6.5,13.44 z m 21.12,39.69 q -15.31,0 -24.31,-9.06 -9,-9.13 -9,-24.19 0,-14.81 8.63,-24.31 8.68,-9.57 22.93,-9.57 9,0 15.38,4.19 6.44,4.19 9.5,11.38 3.12,7.18 3.12,16.68 0,1.19 -0.18,3.07 l -47.5,0 q 0.18,10.75 6.18,16.62 6,5.81 15.88,5.81 11.5,0 20.37,-7.12 l 3.44,8.5 q -10.31,8 -24.44,8 z" inkscape:connector-curvature="0" />
      </g>
    </g>
  </g>
</svg>
