<?xml version="1.0" encoding="UTF-8"?>
<svg version="1.1" viewBox="0 0 250 91" xml:space="preserve" xmlns="http://www.w3.org/2000/svg"><path d="m136.76 50.412c-2.7732 0.0096-4.873-2.1525-4.8816-5.0071-0.0115-2.9332 2.0366-5.0694 4.8692-5.078 2.7933-0.0096 4.9113 2.0921 4.92 5.0454 0.01 2.7751-2.0739 5.0301-4.9075 5.0387m-0.0211-12.629c-4.1747 0.01245-7.5198 3.324-7.5054 7.6319 0.0144 4.1565 3.3624 7.5763 7.5179 7.5619 4.1938-0.01533 7.6338-3.439 7.6175-7.6328-0.0125-4.1938-3.438-7.5753-7.63-7.561m103.21-3.5626v-2.6314h-6.8435v-5.9459h5.2773v-2.6822h-5.2773v-5.1709h6.8933v-2.7339h-10.166v19.164zm-20.753-16.226v16.227h3.2714v-16.228h4.599v-2.937h-12.474v2.938zm-14.733 13.596h-8e-3c-1.3574 0-2.4274-0.46651-3.142-1.2271-0.72324-0.7606-1.0863-1.8028-1.0863-2.9294v-12.378h-3.2714v12.478c0.0268 4.0904 2.2214 7.0475 7.5591 7.0734 4.9554-0.01628 7.3301-3.2177 7.3522-7.2774l-3e-3 -12.274h-3.2713v12.174c0 1.1237-0.26247 2.21-0.92153 3.0271-0.66098 0.81808-1.7176 1.3334-3.1995 1.3334h-0.01zm-18.071-13.596v16.227h3.2733v-16.228h4.601v-2.937h-12.476v2.938zm-10.534 16.228h3.2733v-19.165h-3.2733zm-10.534-16.228v16.227h3.2733v-16.228h4.6v-2.9351h-12.474v2.9361zm-45.663 16.228h3.2733v-19.165h-3.2733zm-40.631 41.487v-2.6343h-6.8464v-5.9459h5.2801v-2.6813h-5.2801v-5.1728h6.8971v-2.7339h-10.168v19.168zm-23.037-0.0019h3.1152l7.6558-19.168h-3.3882l-5.7572 15.081-5.3874-15.081h-3.644zm-17.013-2.7464c-3.7695-0.0057-6.6155-2.9658-6.6193-6.8119v-0.01916c0-1.9743 0.69354-3.6957 1.8756-4.92 1.1811-1.2252 2.846-1.9513 4.7628-1.9513h-0.0067 0.01629c1.89 0 3.5626 0.71845 4.7552 1.9408 1.1974 1.2223 1.9101 2.9456 1.9101 4.9353-0.0057 3.7599-2.8479 6.8205-6.694 6.8262zm0.02491-16.817c-5.487 0.0019-9.8878 4.3251-9.8897 9.9913 0.0096 5.4602 4.3825 9.9616 9.838 9.9683 5.511-0.0067 10.033-4.485 10.043-9.9922-0.0096-5.5081-4.4812-9.9587-9.9913-9.9673zm140.88 3.3374v16.228h3.2723v-16.228h4.5301v-2.9409h-12.335v2.9409zm-27.839 16.228v-2.6343h-6.8444v-5.9459h5.2801v-2.6813h-5.2801v-5.1728h6.8971v-2.7339h-10.167v19.168zm-39.738-0.0019h3.3729v-19.162h-3.1679v14.737l-10.33-14.742h-3.4352v19.166h3.2742v-14.576zm56.974 0.0019h3.3719l-13.411-19.168h-3.5108v19.168h3.2733v-14.584zm3.3834-19.168h-3.1679v10.729l3.1679 4.4994zm-28.877-22.32-13.43-19.168h-3.4035v19.168h3.2723v-14.583l10.229 14.583zm0.0996-19.169h-3.1708v10.644l3.1708 4.5502zm-24.221 60.657h3.1708v-14.91l6.1154 8.7239 6.058-8.7306v14.912h3.1708v-19.163h-3.2838l-5.9718 8.5984-5.9756-8.5984h-3.2838zm-95.992-9.0889v5.602l-0.04119 0.02395-0.07663 0.04502c-0.93782 0.5307-2.3182 0.79317-3.5405 0.79509-3.7685-0.0057-6.6145-2.9888-6.6184-6.8483 0.0038-3.939 2.7445-7.0763 6.5599-7.105v-0.0077h0.03161-0.0019 0.0096c1.5107-0.0019 2.8776 0.4531 3.9754 1.2424l1.7875-2.4878a10.157 10.157 0 0 0-5.7668-1.7913c-0.07472 0-0.14944 0.0029-0.2232 0.0048v0.0019c-5.4324 0.06514-9.77 4.3624-9.77 9.9884 0.0038 5.9516 4.4716 10.068 9.9405 10.071 3.0031-0.0019 5.4229-0.9905 6.9354-2.5701v-6.9661zm62.067-1.1926v-6.1461h3.0002c0.2232 0 0.44352 0.01437 0.65714 0.04023 1.6237 0.14082 2.8968 1.4465 2.8968 3.0395 0 1.4369-1.0394 2.6391-2.437 2.9629-0.17051 0.0479-0.34007 0.07759-0.5077 0.09579l0.0067 0.0077h-3.6172zm4.7418 2.277c2.7723-0.48855 5.032-2.2559 5.032-5.3529 0-3.5386-2.6305-5.8147-5.8147-5.8147h-7.2065v19.173h3.2474v-9.7518l6.8914 9.7518h3.506l-5.6566-8.0055zm64.186-44.165c-0.79892-0.30654-1.2645-0.51441-2.0519-0.8449-1.048-0.43873-1.9858-1.1572-1.9829-2.4619v-0.0096l9.6e-4 -0.01054c0.0191-1.4426 1.2875-2.5903 2.6774-2.5941h0.0144c1.5557-0.0038 2.4782 0.74527 3.188 1.3775l1.5844-2.2626c-1.2683-1.2185-2.8709-1.8852-4.9314-1.8871-3.1353 0.0038-5.7926 2.2818-5.7926 5.4823 0.023 2.6391 0.9359 3.9601 4.2216 5.329 0.706 0.2778 1.3172 0.47897 1.8574 0.68588 1.2166 0.44161 2.1841 1.3363 2.1937 2.6956l2e-3 0.0019v0.02682c-6e-3 1.662-1.4829 2.8374-3.096 2.8403h-3e-3c-1.5394 0-2.7052-0.62457-3.5664-1.4244-0.0766-0.07184-0.13795-0.1322-0.19351-0.18584l-1.6716 2.3853c1.6256 1.5643 3.1861 2.1199 5.5369 2.1295 3.2666-0.0038 6.3003-2.4044 6.3042-5.6959-0.01-2.755-1.6141-4.5406-4.2915-5.5771m-2.1649 23.208-0.13028-0.18488-1.2147-1.7358h-2.4006v-4.3969h2.8384v0.0019c0.61212 0.02107 1.2357 0.3506 1.6457 0.9359 0.56327 0.80179 0.53645 1.8172-0.01 2.4523l1.32 1.8852c1.001-0.69354 1.6601-1.7655 1.6601-3.2263 0-2.6995-2.0059-4.4352-4.4352-4.4352h-5.4985v14.628h2.4791v-7.4412l5.2552 7.4403h2.6372l-4.1478-5.9229zm-24.39-6.309v-2.3623h-8.448v14.607h2.7933v-6.3971h3.7963v-2.3335h-3.7963v-3.5137z" fill="#fff" fill-rule="evenodd" stroke-width=".95793"/><rect x="13.519" y="10.5" width="222.96" height="70" fill="none"/></svg>
