<?xml version="1.0" encoding="UTF-8"?>
<svg version="1.1" viewBox="0 0 250 91" xmlns="http://www.w3.org/2000/svg" xmlns:cc="http://creativecommons.org/ns#" xmlns:dc="http://purl.org/dc/elements/1.1/" xmlns:rdf="http://www.w3.org/1999/02/22-rdf-syntax-ns#">
<metadata>
<rdf:RDF>
<cc:Work rdf:about="">
<dc:format>image/svg+xml</dc:format>
<dc:type rdf:resource="http://purl.org/dc/dcmitype/StillImage"/>
<dc:title/>
</cc:Work>
</rdf:RDF>
</metadata>
<g transform="translate(0,-961.4)">
<circle cx="71.594" cy="996.69" r="0" fill="#666"/>
<g transform="matrix(1.0248,0,0,1.0248,-1.6472,-25.861)" fill="#fff">
<path transform="translate(0,961.4)" d="m106.32 32.404a24.496 24.496 0 0 0-24.496 24.496 24.496 24.496 0 0 0 24.496 24.496 24.496 24.496 0 0 0 24.5-24.496 24.496 24.496 0 0 0-24.5-24.496zm0 9.09a15.405 15.405 0 0 1 15.4 15.406 15.405 15.405 0 0 1-15.4 15.405 15.405 15.405 0 0 1-15.406-15.405 15.405 15.405 0 0 1 15.406-15.406z"/>
<path transform="translate(0,961.4)" d="m71.848 13.971a5.4296 5.4296 0 0 0-5.43 5.429 5.4296 5.4296 0 0 0 5.43 5.43 5.4296 5.4296 0 0 0 5.429-5.43 5.4296 5.4296 0 0 0-5.429-5.429zm-0.153 14.613a4.5465 4.5465 0 0 0-4.547 4.547 4.5465 4.5465 0 0 0 0.04 0.539h-0.02v41.127a4.5465 4.5465 0 0 0-0.02 0.303 4.5465 4.5465 0 0 0 4.547 4.546 4.5465 4.5465 0 0 0 4.547-4.546 4.5465 4.5465 0 0 0-0-0.102h0.02v-41.328h-0.05a4.5465 4.5465 0 0 0 0.04-0.539 4.5465 4.5465 0 0 0-4.547-4.547z"/>
<path transform="translate(0,961.4)" d="m154.7 40.699a2.4035 2.4038 0 0 0-2.4 2.401 2.4035 2.4038 0 0 0 0 0.197v9.902c0.35 4.354 3.95 7.901 8.4 7.901 4.5 0 8.17-3.6 8.42-8v-9.7a2.4035 2.4038 0 0 0 0-0.3 2.4035 2.4038 0 0 0-2.4-2.401 2.4035 2.4038 0 0 0-2.4 2.401 2.4035 2.4038 0 0 0 0 0.3v9.7c-0.29 1.7-1.9 2.9-3.61 2.9-1.67 0-3.3-1.168-3.61-2.828v-10.172a2.4035 2.4038 0 0 0-2.4-2.301z"/>
<path transform="translate(0,961.4)" d="m142.2 13.09a4.5465 4.5465 0 0 0-4.55 4.551 4.5465 4.5465 0 0 0 0 0.539v7.65h-5.76a4.5465 4.5465 0 0 0-0.41-0.02 4.5465 4.5465 0 0 0-4.55 4.548 4.5465 4.5465 0 0 0 4.49 4.547v0.01h6.23v39.855a4.5465 4.5465 0 0 0-0 0.325 4.5465 4.5465 0 0 0 4.55 4.5 4.5465 4.5465 0 0 0 4.54-4.401v-40.279h6.56v-0.02a4.5465 4.5465 0 0 0 4.19-4.536 4.5465 4.5465 0 0 0-4.55-4.548 4.5465 4.5465 0 0 0-0.39 0.02h-5.81v-7.65a4.5465 4.5465 0 0 0 0-0.539 4.5465 4.5465 0 0 0-4.55-4.551z"/>
<path transform="translate(0,961.4)" d="m184.15 40.475c-0.53-0.02-1.05 0.175-1.45 0.625h-0.1l-6.19 6.197-0.12-0.119v-4.377-0.201c0-1.1-1.09-2.1-2.41-2.1-1.31 0-2.39 1-2.4 2.1v0.201 15.898 0.102c0 1.2 1.06 2.099 2.4 2.099s2.42-0.899 2.41-2.099v-4.973l0.1-0.07 6.52 6.547h0.1c0.81 0.9 2.14 0.799 3.04-0.201 0.91-0.8 1.03-2.2 0.21-3l-6.62-6.606 6.27-6.295c0.8-0.8 0.68-2.1-0.21-3-0.44-0.45-0.98-0.699-1.52-0.724z"/>
<path transform="translate(0,961.4)" d="m142.2 13.09a4.5465 4.5465 0 0 0-4.55 4.551 4.5465 4.5465 0 0 0 0 0.539v7.65h-5.76a4.5465 4.5465 0 0 0-0.41-0.02 4.5465 4.5465 0 0 0-4.55 4.548 4.5465 4.5465 0 0 0 4.49 4.547v0.01h6.23v39.855a4.5465 4.5465 0 0 0-0 0.325 4.5465 4.5465 0 0 0 4.55 4.5 4.5465 4.5465 0 0 0 4.54-4.401v-40.279h6.56v-0.02a4.5465 4.5465 0 0 0 4.19-4.536 4.5465 4.5465 0 0 0-4.55-4.548 4.5465 4.5465 0 0 0-0.39 0.02h-5.81v-7.65a4.5465 4.5465 0 0 0 0-0.539 4.5465 4.5465 0 0 0-4.55-4.551z"/>
</g>
</g>
</svg>
