<?xml version="1.0" encoding="UTF-8" standalone="no"?>
<!-- Created with Inkscape (http://www.inkscape.org/) -->

<svg xmlns:dc="http://purl.org/dc/elements/1.1/" xmlns:cc="http://creativecommons.org/ns#" xmlns:rdf="http://www.w3.org/1999/02/22-rdf-syntax-ns#" xmlns:svg="http://www.w3.org/2000/svg" xmlns="http://www.w3.org/2000/svg" xmlns:sodipodi="http://sodipodi.sourceforge.net/DTD/sodipodi-0.dtd" xmlns:inkscape="http://www.inkscape.org/namespaces/inkscape" width="250" height="91" viewBox="0 0 250 91" id="svg2" version="1.1" inkscape:version="0.91 r13725" sodipodi:docname="iot.svg">
  <defs id="defs4" />
  <sodipodi:namedview id="base" pagecolor="#ffffff" bordercolor="#666666" borderopacity="1.0" inkscape:pageopacity="0.0" inkscape:pageshadow="2" inkscape:zoom="2.8" inkscape:cx="139.24" inkscape:cy="11.262" inkscape:document-units="px" inkscape:current-layer="layer1" showgrid="false" inkscape:window-width="1280" inkscape:window-height="752" inkscape:window-x="0" inkscape:window-y="0" inkscape:window-maximized="1" units="px" />
  <metadata id="metadata7">
    <rdf:RDF>
      <cc:Work rdf:about="">
        <dc:format>image/svg+xml</dc:format>
        <dc:type rdf:resource="http://purl.org/dc/dcmitype/StillImage" />
        <dc:title></dc:title>
      </cc:Work>
    </rdf:RDF>
  </metadata>
  <g inkscape:label="Layer 1" inkscape:groupmode="layer" id="layer1" transform="translate(0,-961.4)">
    <rect style="opacity:0.001;fill:#d02626;fill-opacity:1;stroke:none;stroke-width:2.5;stroke-linecap:round;stroke-linejoin:round;stroke-miterlimit:4;stroke-dasharray:none;stroke-dashoffset:0;stroke-opacity:1" id="rect4298" width="250" height="91" x="0" y="961.4" />
    <circle r="0" style="opacity:1;fill:#666666;fill-opacity:1;stroke:none;stroke-width:2.5;stroke-linecap:round;stroke-linejoin:round;stroke-miterlimit:4;stroke-dasharray:none;stroke-dashoffset:0;stroke-opacity:1" id="ellipse4185" cx="71.594" cy="996.69" />
    <g id="g4289" style="fill:#ffffff;fill-opacity:1" transform="matrix(1.0248,0,0,1.0248,-1.6472,-25.861)">
      <g style="fill:#ffffff;fill-opacity:1" id="g4282">
        <path style="opacity:1;fill:#ffffff;fill-opacity:1;stroke:none;stroke-width:2.5;stroke-linecap:round;stroke-linejoin:round;stroke-miterlimit:4;stroke-dasharray:none;stroke-dashoffset:0;stroke-opacity:1" d="m 106.32,32.404 a 24.496,24.496 0 0 0 -24.496,24.496 24.496,24.496 0 0 0 24.496,24.496 24.496,24.496 0 0 0 24.5,-24.496 24.496,24.496 0 0 0 -24.5,-24.496 z m 0,9.09 a 15.405,15.405 0 0 1 15.4,15.406 15.405,15.405 0 0 1 -15.4,15.405 15.405,15.405 0 0 1 -15.406,-15.405 15.405,15.405 0 0 1 15.406,-15.406 z" transform="translate(0,961.4)" id="path4217" inkscape:connector-curvature="0" />
        <path style="opacity:1;fill:#ffffff;fill-opacity:1;stroke:none;stroke-width:2.5;stroke-linecap:round;stroke-linejoin:round;stroke-miterlimit:4;stroke-dasharray:none;stroke-dashoffset:0;stroke-opacity:1" d="m 71.848,13.971 a 5.4296,5.4296 0 0 0 -5.43,5.429 5.4296,5.4296 0 0 0 5.43,5.43 5.4296,5.4296 0 0 0 5.429,-5.43 5.4296,5.4296 0 0 0 -5.429,-5.429 z m -0.153,14.613 a 4.5465,4.5465 0 0 0 -4.547,4.547 4.5465,4.5465 0 0 0 0.04,0.539 l -0.02,0 0,41.127 a 4.5465,4.5465 0 0 0 -0.02,0.303 4.5465,4.5465 0 0 0 4.547,4.546 4.5465,4.5465 0 0 0 4.547,-4.546 4.5465,4.5465 0 0 0 -0,-0.102 l 0.02,0 0,-41.328 -0.05,0 a 4.5465,4.5465 0 0 0 0.04,-0.539 4.5465,4.5465 0 0 0 -4.547,-4.547 z" transform="translate(0,961.4)" id="path4179" inkscape:connector-curvature="0" />
        <path style="opacity:1;fill:#ffffff;fill-opacity:1;stroke:none;stroke-width:2.5;stroke-linecap:round;stroke-linejoin:round;stroke-miterlimit:4;stroke-dasharray:none;stroke-dashoffset:0;stroke-opacity:1" d="m 154.7,40.699 a 2.4035,2.4038 0 0 0 -2.4,2.401 2.4035,2.4038 0 0 0 0,0.197 l 0,9.902 0,0 c 0.35,4.354 3.95,7.901 8.4,7.901 4.5,0 8.17,-3.6 8.42,-8 l -0,0 0,-9.7 -0,0 a 2.4035,2.4038 0 0 0 0,-0.3 2.4035,2.4038 0 0 0 -2.4,-2.401 2.4035,2.4038 0 0 0 -2.4,2.401 2.4035,2.4038 0 0 0 0,0.3 l -0,0 0,9.7 0,0 c -0.29,1.7 -1.9,2.9 -3.61,2.9 -1.67,0 -3.3,-1.168 -3.61,-2.828 l 0,-10.172 -0,0 a 2.4035,2.4038 0 0 0 -2.4,-2.301 z" transform="translate(0,961.4)" id="circle4224" inkscape:connector-curvature="0" />
        <path id="path4273" d="m 142.2,13.09 a 4.5465,4.5465 0 0 0 -4.55,4.551 4.5465,4.5465 0 0 0 0,0.539 l -0,0 0,7.65 -5.76,0 a 4.5465,4.5465 0 0 0 -0.41,-0.02 4.5465,4.5465 0 0 0 -4.55,4.548 4.5465,4.5465 0 0 0 4.49,4.547 l 0,0.01 6.23,0 0,39.855 a 4.5465,4.5465 0 0 0 -0,0.325 4.5465,4.5465 0 0 0 4.55,4.5 4.5465,4.5465 0 0 0 4.54,-4.401 l 0,0 0,-40.279 6.56,0 0,-0.02 a 4.5465,4.5465 0 0 0 4.19,-4.536 4.5465,4.5465 0 0 0 -4.55,-4.548 4.5465,4.5465 0 0 0 -0.39,0.02 l -5.81,0 0,-7.65 -0,0 a 4.5465,4.5465 0 0 0 0,-0.539 4.5465,4.5465 0 0 0 -4.55,-4.551 z" style="opacity:1;fill:#ffffff;fill-opacity:1;stroke:none;stroke-width:2.5;stroke-linecap:round;stroke-linejoin:round;stroke-miterlimit:4;stroke-dasharray:none;stroke-dashoffset:0;stroke-opacity:1" transform="translate(0,961.4)" inkscape:connector-curvature="0" />
        <path style="opacity:1;fill:#ffffff;fill-opacity:1;stroke:none;stroke-width:2.5;stroke-linecap:round;stroke-linejoin:round;stroke-miterlimit:4;stroke-dasharray:none;stroke-dashoffset:0;stroke-opacity:1" d="m 184.15,40.475 c -0.53,-0.02 -1.05,0.175 -1.45,0.625 l -0.1,0 -6.19,6.197 -0.12,-0.119 0,-4.377 0,-0.201 c 0,-1.1 -1.09,-2.1 -2.41,-2.1 -1.31,0 -2.39,1 -2.4,2.1 l 0,0.201 0,15.898 0,0.102 c 0,1.2 1.06,2.099 2.4,2.099 1.34,0 2.42,-0.899 2.41,-2.099 l 0,-4.973 0.1,-0.07 6.52,6.547 0.1,0 c 0.81,0.9 2.14,0.799 3.04,-0.201 0.91,-0.8 1.03,-2.2 0.21,-3 l -6.62,-6.606 6.27,-6.295 c 0.8,-0.8 0.68,-2.1 -0.21,-3 -0.44,-0.45 -0.98,-0.699 -1.52,-0.724 z" transform="translate(0,961.4)" id="path4275" inkscape:connector-curvature="0" />
      </g>
      <path id="circle4189" transform="translate(0,961.4)" d="m 142.2,13.09 a 4.5465,4.5465 0 0 0 -4.55,4.551 4.5465,4.5465 0 0 0 0,0.539 l -0,0 0,7.65 -5.76,0 a 4.5465,4.5465 0 0 0 -0.41,-0.02 4.5465,4.5465 0 0 0 -4.55,4.548 4.5465,4.5465 0 0 0 4.49,4.547 l 0,0.01 6.23,0 0,39.855 a 4.5465,4.5465 0 0 0 -0,0.325 4.5465,4.5465 0 0 0 4.55,4.5 4.5465,4.5465 0 0 0 4.54,-4.401 l 0,0 0,-40.279 6.56,0 0,-0.02 a 4.5465,4.5465 0 0 0 4.19,-4.536 4.5465,4.5465 0 0 0 -4.55,-4.548 4.5465,4.5465 0 0 0 -0.39,0.02 l -5.81,0 0,-7.65 -0,0 a 4.5465,4.5465 0 0 0 0,-0.539 4.5465,4.5465 0 0 0 -4.55,-4.551 z" style="opacity:1;fill:#ffffff;fill-opacity:1;stroke:none;stroke-width:2.5;stroke-linecap:round;stroke-linejoin:round;stroke-miterlimit:4;stroke-dasharray:none;stroke-dashoffset:0;stroke-opacity:1" inkscape:connector-curvature="0" />
    </g>
  </g>
</svg>
