<?xml version="1.0" encoding="UTF-8" standalone="no"?>
<!-- Created with Inkscape (http://www.inkscape.org/) -->

<svg
   xmlns:dc="http://purl.org/dc/elements/1.1/"
   xmlns:cc="http://creativecommons.org/ns#"
   xmlns:rdf="http://www.w3.org/1999/02/22-rdf-syntax-ns#"
   xmlns:svg="http://www.w3.org/2000/svg"
   xmlns="http://www.w3.org/2000/svg"
   xmlns:sodipodi="http://sodipodi.sourceforge.net/DTD/sodipodi-0.dtd"
   xmlns:inkscape="http://www.inkscape.org/namespaces/inkscape"
   width="250"
   height="91"
   viewBox="0 0 250 91"
   id="svg2"
   version="1.1"
   inkscape:version="0.92.2 (5c3e80d, 2017-08-06)"
   sodipodi:docname="iotleeds.svg">
  <defs
     id="defs4" />
  <sodipodi:namedview
     id="base"
     pagecolor="#ffffff"
     bordercolor="#666666"
     borderopacity="1.0"
     inkscape:pageopacity="0.0"
     inkscape:pageshadow="2"
     inkscape:zoom="1.9799"
     inkscape:cx="183.26"
     inkscape:cy="-79.594691"
     inkscape:document-units="px"
     inkscape:current-layer="layer1"
     showgrid="false"
     inkscape:window-width="1920"
     inkscape:window-height="1001"
     inkscape:window-x="-9"
     inkscape:window-y="-9"
     inkscape:window-maximized="1"
     units="px" />
  <metadata
     id="metadata7">
    <rdf:RDF>
      <cc:Work
         rdf:about="">
        <dc:format>image/svg+xml</dc:format>
        <dc:type
           rdf:resource="http://purl.org/dc/dcmitype/StillImage" />
        <dc:title></dc:title>
      </cc:Work>
    </rdf:RDF>
  </metadata>
  <g
     inkscape:label="Layer 1"
     inkscape:groupmode="layer"
     id="layer1"
     transform="translate(0,-961.4)"
     style="opacity:1">
    <rect
       style="opacity:0.001;fill:#ffffff;fill-opacity:1;stroke:none;stroke-width:2.5;stroke-linecap:round;stroke-linejoin:round;stroke-miterlimit:4;stroke-dasharray:none;stroke-dashoffset:0;stroke-opacity:1"
       id="rect4175"
       width="250"
       height="91"
       x="0"
       y="961.4" />
    <path
       inkscape:connector-curvature="0"
       id="path876"
       d="m 113.45004,1042.3736 c -1.06435,-0.4054 -1.6791,-0.8149 -2.55624,-1.7033 -0.88056,-0.8917 -1.35867,-1.6793 -1.76452,-2.9068 -0.33148,-1.0025 -0.35798,-3.0309 -0.0528,-4.0439 0.62776,-2.0842 2.29032,-3.9241 4.20596,-4.6547 0.33939,-0.1295 1.01054,-0.2923 1.49145,-0.3619 l 0.87437,-0.1266 0.99246,-2.9434 c 0.92836,-2.7533 1.01306,-2.9522 1.31156,-3.0796 0.3921,-0.1673 0.77515,-0.1831 0.86631,-0.036 0.0735,0.1189 -2.19611,7.0854 -2.36748,7.2669 -0.0567,0.06 -0.33428,0.099 -0.6169,0.086 -2.6566,-0.121 -5.08645,1.8354 -5.6627,4.5595 -0.5861,2.7706 0.90872,5.6896 3.41932,6.6771 0.86218,0.3391 2.48837,0.4136 3.38859,0.1553 1.6759,-0.4809 3.07609,-1.8542 3.70375,-3.6326 0.2115,-0.5993 0.26181,-0.961 0.26368,-1.8957 0.004,-1.8972 -0.48897,-3.0743 -1.84856,-4.4162 -0.55559,-0.5483 -0.77174,-0.8396 -0.77042,-1.0383 10e-4,-0.1519 0.82809,-2.7599 1.83795,-5.7955 1.28623,-3.8665 1.88654,-5.5291 2.00453,-5.5518 0.16687,-0.032 0.63685,0.8648 0.63685,1.2155 0,0.088 -0.71317,2.3221 -1.58481,4.9658 -0.87164,2.6437 -1.5848,4.8421 -1.5848,4.8853 0,0.043 0.29513,0.4055 0.65583,0.8051 1.25191,1.3872 1.858,2.9799 1.858,4.8829 0,2.9235 -1.6705,5.5001 -4.26258,6.5747 -0.63419,0.2629 -0.87462,0.2984 -2.24058,0.3305 -1.38824,0.033 -1.59211,0.012 -2.19819,-0.2185 z m 35.69763,-14.8889 c -1.16735,-0.4069 -1.94962,-0.9205 -2.8178,-1.8501 -0.78233,-0.8377 -1.54552,-2.1626 -1.58709,-2.7551 -0.0206,-0.2934 0.003,-0.3098 0.49339,-0.3414 l 0.51502,-0.033 0.45618,0.9075 c 1.737,3.4555 5.95022,4.1999 8.6143,1.5218 0.83627,-0.8406 1.36612,-1.8311 1.60932,-3.0085 0.0881,-0.4265 0.26983,-0.9476 0.4039,-1.158 0.13406,-0.2103 0.30261,-0.5177 0.37455,-0.683 0.18588,-0.4272 0.43822,-0.3819 0.5276,0.095 0.1967,1.0485 -0.28725,3.0743 -1.02648,4.2969 -0.51541,0.8524 -1.55095,1.9069 -2.34333,2.3862 -1.02741,0.6216 -1.7478,0.8201 -3.14292,0.8664 -1.13543,0.038 -1.33614,0.014 -2.07664,-0.2441 z m -16.30224,-0.5244 c -1.52589,-0.5663 -2.48514,-1.7158 -2.72671,-3.2674 -0.14363,-0.9225 -0.0254,-1.2347 0.52528,-1.3877 0.22829,-0.063 0.44564,-0.1155 0.483,-0.1158 0.0374,0 0.0905,0.3805 0.11816,0.8464 0.0579,0.9767 0.24302,1.4092 0.89036,2.0802 0.75418,0.7818 1.792,0.9811 2.74893,0.5279 1.06826,-0.5059 1.58481,-1.3243 1.58481,-2.5109 0,-0.8233 0.11179,-0.9197 0.7642,-0.6586 0.52936,0.2118 0.59229,0.3939 0.43528,1.2598 -0.34676,1.9123 -1.82984,3.2674 -3.65866,3.3428 -0.45352,0.019 -0.92779,-0.029 -1.16465,-0.1167 z m -18.41619,-4.8792 c -1.09863,-0.288 -1.62778,-0.5875 -2.39524,-1.3556 -0.70028,-0.7009 -1.0438,-1.387 -1.25679,-2.51 -0.25247,-1.3313 -0.008,-3.2322 0.55868,-4.3429 0.30654,-0.6008 1.18981,-1.4577 1.84489,-1.7896 1.16384,-0.5898 2.99843,-0.7966 4.43479,-0.5 1.4174,0.2926 2.61769,1.242 3.23308,2.557 0.51162,1.0933 0.69817,3.2747 0.31911,3.7315 -0.11555,0.1392 -0.63863,0.164 -3.46364,0.164 h -3.32753 l 0.0759,0.2459 c 0.1723,0.5585 0.39525,0.8368 0.84477,1.0544 0.88489,0.4284 2.23464,0.189 2.57963,-0.4575 0.0836,-0.1566 0.21496,-0.3089 0.29191,-0.3384 0.23151,-0.089 2.68998,0.7336 2.82293,0.9444 0.16378,0.2596 -0.25454,1.0441 -0.83769,1.571 -0.53454,0.4829 -1.5776,0.9823 -2.36255,1.1312 -0.91977,0.1744 -2.48146,0.1254 -3.36221,-0.1054 z m 3.34787,-6.3682 c -0.004,-0.2533 -0.40205,-1.0093 -0.64413,-1.2248 -0.16938,-0.1508 -0.4398,-0.225 -0.91713,-0.2518 -0.82523,-0.046 -1.26796,0.1857 -1.60153,0.8395 -0.40196,0.7879 -0.42895,0.7737 1.4711,0.7737 1.28369,0 1.69351,-0.033 1.69169,-0.1366 z m -2.65815,-0.4837 c -0.0966,-0.097 0.36072,-0.5819 0.54832,-0.5819 0.20875,0 0.17819,0.2638 -0.055,0.4749 -0.21269,0.1925 -0.37308,0.2273 -0.49334,0.107 z m 11.33891,6.9134 c -1.29868,-0.2961 -2.48828,-1.0678 -3.08159,-1.9989 -0.60352,-0.9472 -0.82493,-1.7951 -0.82162,-3.1465 0.005,-1.8952 0.34937,-2.9333 1.33056,-4.0069 0.96745,-1.0585 2.23149,-1.5359 4.05889,-1.5329 1.20656,0 1.83024,0.125 2.68534,0.5299 1.6356,0.7744 2.5609,2.4645 2.5609,4.6776 0,1.4974 0.33424,1.3706 -3.6121,1.3706 h -3.38582 l 0.16693,0.4098 c 0.35642,0.8752 1.15319,1.2416 2.3225,1.0681 0.42491,-0.063 0.60172,-0.1653 0.97391,-0.5635 l 0.45475,-0.4866 1.38242,0.4497 c 0.76094,0.2476 1.40964,0.5207 1.44296,0.6075 0.0863,0.225 -0.60423,1.3227 -1.05711,1.6804 -0.92821,0.7331 -1.77803,0.992 -3.44284,1.0489 -0.87938,0.03 -1.53119,-0.01 -1.97808,-0.1072 z m 3.12569,-6.4771 c 0,-0.3487 -0.43321,-1.0781 -0.75229,-1.2665 -0.39628,-0.2341 -1.32876,-0.2488 -1.75641,-0.028 -0.33929,0.1755 -0.70941,0.7018 -0.82818,1.1776 l -0.075,0.3006 h 1.70594 c 1.52649,0 1.70595,-0.019 1.70595,-0.1841 z m 7.97866,6.4817 c -1.47511,-0.4249 -2.40183,-1.4628 -2.8416,-3.1823 -0.2694,-1.0533 -0.29354,-2.9482 -0.0507,-3.9785 0.53194,-2.2566 2.02503,-3.5292 4.15101,-3.5379 1.06237,0 1.73887,0.255 2.43003,0.9315 l 0.46451,0.4548 v -2.5823 c 0,-1.4203 0.0299,-2.6601 0.0663,-2.7552 0.0568,-0.1479 0.32489,-0.1729 1.85596,-0.1729 1.76539,0 1.79043,0 1.84919,0.2459 0.0328,0.1353 0.046,3.4429 0.0294,7.3502 l -0.0302,7.1043 -1.6533,0.03 c -1.8765,0.034 -1.78487,0.083 -1.78805,-0.9514 l -0.001,-0.4841 -0.49888,0.5207 c -0.71475,0.746 -1.52136,1.0925 -2.61608,1.1237 -0.4809,0.014 -1.09569,-0.039 -1.3662,-0.1166 z m 3.28416,-2.9371 c 0.63093,-0.4252 0.80549,-0.8625 0.85263,-2.136 0.0493,-1.3329 -0.11747,-1.906 -0.70484,-2.4217 -0.31919,-0.2803 -0.46951,-0.333 -0.94925,-0.3326 -0.74991,0 -1.18043,0.2705 -1.50688,0.9448 -0.21704,0.4484 -0.25628,0.6986 -0.25628,1.6346 0,0.9595 0.0354,1.174 0.26869,1.627 0.46203,0.8973 1.51415,1.2107 2.29593,0.6839 z m -0.82498,-2.8268 c -1.1721,-0.7383 -1.21703,-0.7863 -1.05931,-1.1325 0.0699,-0.1534 0.24857,-0.3342 0.39707,-0.4019 0.23596,-0.1075 0.36602,-0.066 1.03139,0.3293 0.79237,0.4708 1.0612,0.8727 0.97758,1.4618 -0.057,0.4017 -0.40738,0.3349 -1.34673,-0.2567 z m 9.946,5.736 c -1.01877,-0.2144 -1.98536,-0.6748 -2.55608,-1.2178 -0.38186,-0.3632 -0.44688,-0.4803 -0.35777,-0.644 0.18708,-0.3436 1.66823,-1.8941 1.80945,-1.8941 0.0738,0 0.24326,0.1474 0.37647,0.3276 0.13321,0.1801 0.49905,0.4597 0.81296,0.6211 0.46607,0.2397 0.75116,0.3008 1.55442,0.3331 1.08601,0.044 1.50678,-0.087 1.56411,-0.4848 0.0445,-0.3087 -0.16079,-0.4103 -1.47477,-0.73 -2.38176,-0.5795 -3.33556,-1.0157 -3.93767,-1.8009 -1.17156,-1.5279 -0.46333,-3.6508 1.5316,-4.5911 0.92072,-0.4339 1.61635,-0.561 3.05986,-0.5591 1.40037,0 2.37455,0.1951 3.17258,0.6295 0.58348,0.3175 1.49448,1.1367 1.49448,1.3438 0,0.1768 -1.51956,1.7231 -1.77209,1.8032 -0.14887,0.047 -0.31901,-0.047 -0.58986,-0.3255 -0.49521,-0.5099 -0.85384,-0.6877 -1.64434,-0.815 -0.68158,-0.1097 -1.59106,0 -1.85676,0.2171 -0.24915,0.2068 -0.16847,0.5174 0.18136,0.6983 0.1813,0.094 0.87056,0.2926 1.53167,0.4418 2.10167,0.4744 2.82889,0.7968 3.51751,1.559 0.50664,0.5608 0.66627,1.075 0.61168,1.9703 -0.0531,0.8709 -0.30819,1.4428 -0.8997,2.0168 -0.5568,0.5404 -1.07554,0.8027 -2.11146,1.0676 -1.00697,0.2575 -2.87755,0.2729 -4.01765,0.033 z m -50.701983,-0.2127 c -0.111887,-0.2916 -0.07288,-13.2003 0.04043,-13.3799 0.08189,-0.1298 0.417263,-0.1713 1.610453,-0.199 0.87304,-0.02 1.63303,0.013 1.80654,0.079 l 0.29952,0.1139 0.0284,5.2767 0.0284,5.2767 3.33356,0.055 3.33354,0.055 0.0318,1.2022 c 0.0175,0.6613 0.004,1.313 -0.0294,1.4482 l -0.0612,0.2459 h -5.17782 c -4.620663,0 -5.184951,-0.019 -5.244155,-0.1728 z m 11.106243,-1.3089 c -0.41853,-0.2931 -0.28499,-1.2388 0.1552,-1.0991 0.25209,0.08 0.75773,0.9698 0.65007,1.144 -0.10995,0.1779 -0.51982,0.1551 -0.80527,-0.045 z m 22.96105,-0.4478 c -0.0382,-0.099 3.3e-4,-0.3822 0.0854,-0.6284 0.11277,-0.3262 0.22313,-0.4574 0.40671,-0.4834 0.34069,-0.048 0.54164,0.1417 0.69646,0.6584 0.15722,0.5248 0.0488,0.63 -0.65126,0.6325 -0.33556,0 -0.48757,-0.049 -0.53732,-0.1791 z m -0.65033,-1.2393 c -0.52104,-0.2102 -0.39961,-0.5422 0.1996,-0.5456 0.31723,0 0.63626,0.2479 0.63626,0.498 0,0.1753 -0.45517,0.2012 -0.83586,0.048 z m -24.87901,-0.3744 c -0.50854,-0.5085 -0.53894,-2.5243 -0.054,-3.5825 0.52998,-1.1565 1.73444,-2.0653 2.95992,-2.2332 0.62617,-0.086 0.75155,0.1076 0.44447,0.6857 -0.15355,0.2891 -0.37142,0.4622 -0.86486,0.6869 -1.56577,0.7134 -2.17813,2.3604 -1.45197,3.9053 0.11997,0.2552 0.1863,0.5155 0.1474,0.5784 -0.10507,0.17 -1.00112,0.1392 -1.18093,-0.041 z m 38.49958,-1.8879 c -0.36917,-0.2527 -0.43056,-0.3609 -0.4325,-0.7625 -0.004,-0.7373 0.29155,-0.8972 0.79491,-0.4307 0.28615,0.2652 0.48177,0.9129 0.36647,1.2133 -0.0835,0.2176 -0.39406,0.209 -0.72888,-0.02 z m -51.134329,-0.4247 c -1.7274,-0.4646 -3.434977,-1.8887 -4.249209,-3.5437 -0.65113,-1.3234 -0.828463,-2.1826 -0.755729,-3.6614 0.03253,-0.6613 0.134132,-1.4374 0.225795,-1.7247 0.692888,-2.1719 2.416688,-3.9174 4.616019,-4.6741 0.775095,-0.2667 2.435065,-0.2896 3.368138,-0.047 1.55356,0.4046 3.320935,1.7616 4.105775,3.1522 0.19103,0.3385 0.38264,0.6154 0.42581,0.6154 0.0978,0 0.88524,-0.1053 7.76191,-1.0378 1.58855,-0.2154 2.95339,-0.3667 3.03299,-0.3361 0.0908,0.035 0.14472,0.241 0.14472,0.5531 0,0.6315 0.008,0.6283 -2.29524,0.9259 -1.76562,0.2282 -3.20528,0.4228 -6.50315,0.879 -0.9017,0.1248 -1.93349,0.2372 -2.29286,0.2498 l -0.65341,0.023 -0.49421,-0.9277 c -1.24388,-2.3348 -3.615362,-3.4954 -6.013687,-2.943 -2.425713,0.5586 -4.267692,2.9613 -4.282836,5.5866 -0.0146,2.5302 1.433016,4.7016 3.699967,5.5497 0.859938,0.3218 2.107318,0.4 2.927201,0.1836 0.470574,-0.1242 0.689512,-0.139 0.7924,-0.054 0.180897,0.1501 0.184277,0.7579 0.0055,0.9981 -0.29242,0.3931 -2.446392,0.5333 -3.565943,0.2322 z m 57.656429,-1.1366 c -0.90572,-0.2112 -1.13111,-0.3363 -0.99707,-0.5531 0.1259,-0.2037 1.48575,-0.072 1.92864,0.1862 0.40568,0.237 0.48033,0.518 0.14546,0.5477 -0.12022,0.011 -0.60489,-0.071 -1.07703,-0.1808 z m -31.66121,-1.2321 c -0.3549,-0.575 -0.36127,-0.7891 -0.0511,-1.7203 0.44731,-1.3432 0.2851,-1.4951 -0.75642,-0.7087 -0.35613,0.2689 -0.70042,0.4888 -0.76508,0.4886 -0.24779,0 -0.82776,-0.4425 -0.82264,-0.6265 0.007,-0.2354 1.85802,-1.6684 2.15556,-1.6684 0.11535,0 0.3023,0.1023 0.41545,0.2274 0.11315,0.125 0.46506,0.3824 0.78202,0.572 0.31696,0.1895 0.57629,0.4171 0.57629,0.5056 0,0.088 -0.22541,0.8639 -0.5009,1.7232 -0.54023,1.6849 -0.65524,1.8193 -1.03313,1.2071 z m 11.40128,-2.1657 c -1.79994,-1.1273 -2.13231,-1.2987 -2.32126,-1.1976 -0.12129,0.065 -0.25103,0.2396 -0.28832,0.3881 -0.0551,0.2195 -0.13583,0.2701 -0.43136,0.2701 -0.48465,0 -0.92429,-0.1762 -0.92429,-0.3705 0,-0.087 0.23362,-0.3298 0.51916,-0.5405 0.28554,-0.2107 0.68866,-0.5591 0.89582,-0.7744 0.20716,-0.2152 0.44086,-0.3913 0.51933,-0.3913 0.28097,0 4.95138,3.0016 4.95138,3.1822 0,0.2553 -0.4215,0.7528 -0.63638,0.751 -0.10084,0 -1.12867,-0.5935 -2.28408,-1.3171 z m -8.00921,-0.1489 c 0,-0.1013 0.0935,-0.1719 0.22771,-0.1719 0.26636,0 0.22871,0.2554 -0.0455,0.3085 -0.10785,0.021 -0.18221,-0.035 -0.18221,-0.1366 z m -0.78992,-0.8884 c -1.65391,-0.4009 -2.8527,-1.4536 -3.47807,-3.0543 -0.2246,-0.5748 -0.25657,-0.8445 -0.25917,-2.1859 -0.003,-1.3888 0.0232,-1.5981 0.28048,-2.2659 0.60827,-1.579 1.87542,-2.6481 3.5909,-3.0296 0.76066,-0.16911 2.55786,-0.13745 3.31778,0.058 2.41152,0.6217 3.78271,2.5201 3.78271,5.237 0,2.1615 -0.94824,3.9374 -2.54619,4.7687 -1.13922,0.5926 -3.29476,0.8094 -4.68844,0.4715 z m 2.42066,-2.7357 c 0.7487,-0.2995 1.0038,-0.9446 1.00191,-2.5336 -0.002,-1.8364 -0.41817,-2.5335 -1.56247,-2.618 -0.80529,-0.06 -1.26567,0.195 -1.61013,0.8901 -0.22883,0.4618 -0.26702,0.6946 -0.26891,1.6395 -0.001,0.6056 0.0616,1.3191 0.1396,1.5854 0.29894,1.0207 1.25871,1.4533 2.3,1.0366 z m -22.65214,2.6142 c -0.1004,-0.1004 -0.0922,-0.9952 0.01,-1.0582 0.0454,-0.028 0.86925,-0.1565 1.83072,-0.2853 0.96147,-0.1288 2.23996,-0.3042 2.84109,-0.3896 3.55086,-0.5047 5.32661,-0.7214 5.46818,-0.667 0.19133,0.073 0.22647,0.9985 0.0423,1.1124 -0.12883,0.08 -0.45069,0.1266 -5.91163,0.8638 -3.7916,0.5119 -4.1563,0.548 -4.28034,0.4239 z m 10.82038,0 c -0.0401,-0.04 -0.0729,-3.1118 -0.0729,-6.8261 v -6.75319 l 0.36577,-0.0686 c 0.50371,-0.0945 3.20237,-0.017 3.3142,0.0951 0.10021,0.1005 0.18921,12.98609 0.0924,13.37979 -0.0596,0.2425 -0.0852,0.2459 -1.84356,0.2459 -0.9807,0 -1.81589,-0.033 -1.85596,-0.073 z m 20.19826,-0.064 c -0.0282,-0.075 -0.0635,-2.4729 -0.0785,-5.3283 l -0.0274,-5.19151 -2.1288,-0.0547 -2.12881,-0.0546 -0.0988,-0.2814 c -0.055,-0.15648 -0.0636,-0.79795 -0.0195,-1.44516 l 0.0793,-1.16376 0.34491,-0.0626 c 0.18969,-0.0344 2.96573,-0.0481 6.16898,-0.0304 5.03418,0.0277 5.83813,0.0544 5.92767,0.19616 0.15569,0.2464 0.1351,2.55125 -0.0242,2.71057 -0.0927,0.0927 -0.73351,0.13113 -2.18594,0.13113 h -2.05478 v 5.18267 c 0,2.8505 -0.0299,5.2605 -0.0663,5.3555 -0.0568,0.148 -0.32537,0.1729 -1.86147,0.1729 -1.33594,0 -1.80823,-0.035 -1.84634,-0.1366 z m -16.04499,-0.1549 c -0.0401,-0.04 -0.0729,-0.302 -0.0729,-0.582 0,-0.4013 0.0577,-0.5634 0.27198,-0.7648 l 0.27199,-0.2555 -0.24466,-0.1213 c -0.17945,-0.089 -0.25407,-0.2359 -0.27995,-0.5515 -0.0437,-0.5333 0.16234,-0.7123 0.82016,-0.7123 h 0.46986 l 0.32898,0.7256 c 0.18094,0.399 0.32898,0.8142 0.32898,0.9227 0,0.1146 -0.32527,0.4518 -0.77625,0.8046 -0.75005,0.5869 -0.96373,0.6891 -1.11823,0.5345 z m 27.43348,-1.4208 c -0.0401,-0.04 -0.0729,-0.2504 -0.0729,-0.4675 0,-0.2905 0.11533,-0.548 0.43741,-0.9767 0.61339,-0.8163 0.83075,-1.615 0.67192,-2.4691 -0.14465,-0.7778 -0.54272,-1.3936 -1.19906,-1.8549 -0.38401,-0.2699 -0.59933,-0.3351 -1.22176,-0.3703 -1.25458,-0.071 -1.91042,0.3569 -2.62175,1.7101 l -0.38398,0.7305 -1.31032,0.031 c -1.44215,0.034 -1.58604,-0.024 -1.58604,-0.6453 0,-0.517 0.24175,-0.6426 1.2374,-0.6428 l 0.89389,-3e-4 0.30791,-0.4873 c 0.44567,-0.7055 1.40131,-1.5363 2.00291,-1.7412 0.663,-0.2259 1.9308,-0.2253 2.59576,0 0.73732,0.2512 1.72577,1.1995 2.15135,2.064 0.32515,0.6604 0.3384,0.7402 0.3025,1.8207 -0.0449,1.3523 -0.26784,1.9029 -1.13112,2.7942 -0.50938,0.5259 -0.87866,0.699 -1.07415,0.5035 z m -13.40921,-0.8668 c -0.63001,-0.4 -1.17989,-0.7815 -1.22194,-0.8477 -0.0992,-0.1562 0.0193,-1.0676 0.16244,-1.2491 0.0807,-0.1023 0.43697,-0.1318 1.32379,-0.1093 l 1.21336,0.031 v 0.5454 c 0,0.5193 -0.0155,0.5481 -0.3247,0.6016 l -0.32469,0.056 0.3588,0.2808 c 0.33076,0.2588 0.35612,0.3228 0.32469,0.8182 -0.0238,0.375 -0.0843,0.5469 -0.20019,0.5689 -0.0913,0.017 -0.68154,-0.2959 -1.31156,-0.6959 z m 8.36334,-0.8091 c -0.16698,-0.1845 -0.33663,-0.2186 -1.08805,-0.2186 -0.99039,0 -1.15253,-0.085 -1.15253,-0.6011 0,-0.5519 0.13211,-0.6012 1.61224,-0.6012 h 1.34992 l 0.16517,0.3953 c 0.18301,0.438 0.13799,0.6977 -0.12095,0.6977 -0.0935,0 -0.21683,0.123 -0.27396,0.2733 -0.12562,0.3304 -0.23163,0.3421 -0.49184,0.055 z m -22.32932,-1.8799 c -0.16968,-0.1697 -0.16968,-0.8796 0,-1.0492 0.10201,-0.1021 0.10201,-0.1603 0,-0.2624 -0.19543,-0.1954 -0.16901,-1.0634 0.0348,-1.1416 0.20886,-0.08 0.74549,0.1374 0.9811,0.3977 0.15651,0.173 0.16423,0.3064 0.0611,1.0557 -0.12319,0.895 -0.27245,1.1309 -0.71529,1.1309 -0.12677,0 -0.28951,-0.059 -0.36165,-0.1311 z m 12.95409,-0.2427 c -0.14737,-0.1474 -0.31536,-1.0937 -0.34057,-1.9185 -0.0112,-0.3651 0.0384,-0.4145 1.29223,-1.2868 0.71711,-0.499 1.3565,-0.8899 1.42086,-0.8687 0.0644,0.021 0.13168,0.287 0.1496,0.5907 0.0383,0.6482 0.007,0.6884 -1.13931,1.4619 -1.04512,0.7053 -1.05135,0.8651 -0.0337,0.8651 0.99568,0 1.19508,0.1064 1.19508,0.6378 0,0.2263 -0.059,0.4705 -0.13116,0.5426 -0.1973,0.1973 -2.21174,0.1772 -2.41303,-0.024 z m -11.94985,-4.0303 c -0.42752,-0.2527 -0.85787,-0.5271 -0.95635,-0.6096 -0.23097,-0.1934 -0.24895,-1.08689 -0.0236,-1.17337 0.0855,-0.0327 0.63013,0.19627 1.21034,0.50907 0.66984,0.3611 1.093,0.5306 1.15925,0.4643 0.0663,-0.066 -0.6205,-1.318 -1.88139,-3.42925 -1.09215,-1.82874 -2.06025,-3.41105 -2.15134,-3.51626 -0.1215,-0.14032 -0.33116,-0.19126 -0.78708,-0.19126 -2.2494,0 -3.97155,-1.98045 -3.80054,-4.37056 0.0646,-0.90327 0.50515,-1.84144 1.18915,-2.53251 1.89557,-1.91515 4.90877,-1.32124 6.09092,1.20051 0.25457,0.54303 0.29059,0.75633 0.28933,1.71324 -0.001,0.96098 -0.0377,1.1707 -0.30159,1.73685 l -0.30014,0.64391 0.67607,1.15948 c 1.23473,2.11763 3.38161,5.63844 3.53122,5.79112 0.20989,0.21416 0.23686,-0.13969 0.49872,-6.54431 0.12412,-3.03572 0.26698,-6.52774 0.31747,-7.76007 0.0505,-1.2323 0.0709,-2.27548 0.0453,-2.3181 -0.0256,-0.0427 -0.35105,-0.23939 -0.72326,-0.43719 -1.43654,-0.76345 -2.68434,-2.37114 -3.24816,-4.18506 -0.30615,-0.98493 -0.33834,-2.73167 -0.0695,-3.77071 0.53262,-2.05854 1.88818,-3.75552 3.70164,-4.63393 1.44917,-0.70199 3.25611,-0.818 4.7267,-0.30348 1.05638,0.36958 1.65689,0.73859 2.48122,1.52465 0.82248,0.78429 1.46104,1.78449 1.84679,2.89267 0.27902,0.80159 0.31434,1.0518 0.31564,2.23587 0.001,1.11616 -0.0424,1.47205 -0.26791,2.18593 -0.60802,1.92471 -1.95285,3.48464 -3.71509,4.30931 -0.39329,0.18404 -0.74026,0.37536 -0.77105,0.4252 -0.0947,0.15324 -0.7593,15.942 -0.6746,16.02667 0.0257,0.0257 0.35673,-0.43482 0.73576,-1.02324 0.37903,-0.58843 1.35023,-2.09252 2.15822,-3.34242 l 1.46907,-2.27251 -0.28619,-0.86595 c -0.34013,-1.02909 -0.36429,-1.80546 -0.0842,-2.70539 0.60271,-1.93649 2.43935,-3.12464 4.25747,-2.75419 1.26478,0.25769 2.22005,1.02525 2.83421,2.27722 0.26472,0.53966 0.30158,0.74144 0.30198,1.65302 3.4e-4,0.94094 -0.0322,1.10721 -0.34772,1.7733 -0.67791,1.43103 -1.72965,2.14411 -3.33281,2.25962 -0.52171,0.0376 -0.97016,0.0924 -0.99656,0.12168 -0.0264,0.0294 -0.47649,0.71728 -1.00022,1.52883 -0.52373,0.81151 -1.03146,1.53698 -1.12829,1.6121 -0.23442,0.1819 -0.95048,0.17446 -1.10481,-0.0113 -0.0957,-0.11537 0.0858,-0.47179 0.82131,-1.61211 0.51933,-0.80523 1.16121,-1.80025 1.42639,-2.21115 l 0.48216,-0.74711 0.90887,0.0757 c 0.79552,0.0663 0.97546,0.0463 1.44289,-0.16042 0.69775,-0.30853 1.10363,-0.70039 1.42115,-1.37205 0.48353,-1.02278 0.31202,-2.23079 -0.43763,-3.08245 -0.54239,-0.61619 -1.14172,-0.9013 -1.90119,-0.90447 -1.48755,-0.006 -2.64336,1.21874 -2.64587,2.80405 -0.001,0.56021 0.0641,0.80013 0.38147,1.40906 0.2104,0.40365 0.38254,0.78302 0.38254,0.84304 0,0.11597 -2.86476,4.59065 -3.14652,4.91477 -0.0942,0.10836 -0.31927,0.19129 -0.51913,0.19129 h -0.35286 l -0.0441,0.68309 c -0.0396,0.61411 -0.1099,0.78505 -0.69584,1.69263 -0.35846,0.55522 -0.70562,1.03029 -0.77148,1.05571 -0.20848,0.0805 -1.36543,-0.2942 -1.46047,-0.473 -0.0501,-0.0942 -0.0488,-1.03209 0.003,-2.08406 0.0518,-1.052 0.16974,-3.78167 0.26217,-6.06597 0.32144,-7.94351 0.40222,-9.62001 0.47916,-9.94323 0.0674,-0.28327 0.17868,-0.36254 0.86407,-0.61551 1.98348,-0.73216 3.23448,-2.10057 3.74492,-4.09638 0.25416,-0.99375 0.26949,-1.68866 0.0591,-2.681 -0.45894,-2.16516 -2.05901,-3.86244 -4.15581,-4.40831 -2.88247,-0.75036 -5.90561,1.27836 -6.56905,4.40831 -0.19538,0.92173 -0.19343,1.51617 0.008,2.47174 0.37395,1.77327 1.56414,3.29966 3.16607,4.0604 0.51748,0.24577 0.87339,0.48703 0.9271,0.62845 0.1165,0.30675 -0.57312,17.87735 -0.7163,18.25048 -0.0374,0.0973 -0.0995,0.17779 -0.13818,0.17883 -0.0387,0 -0.404,0.0726 -0.81187,0.15905 -0.40788,0.0865 -0.80228,0.13388 -0.87644,0.10542 -0.18318,-0.0703 -4.9018,-7.95507 -4.96802,-8.30151 -0.034,-0.17809 0.0421,-0.41985 0.2151,-0.68335 0.38817,-0.5911 0.52357,-1.06269 0.52357,-1.82346 0,-1.51792 -1.13906,-2.68295 -2.62312,-2.68295 -0.67103,0 -1.13983,0.18381 -1.68116,0.65911 -1.25882,1.10524 -1.25041,3.14715 0.0176,4.26328 0.61101,0.53782 1.16747,0.69658 2.11459,0.60325 0.58465,-0.0576 0.75865,-0.0378 0.89885,0.10241 0.35018,0.35018 4.87871,8.0197 4.82222,8.16693 -0.0321,0.084 -0.19202,0.2321 -0.35545,0.33 -0.16342,0.098 -0.5165,0.3782 -0.7846,0.6227 -0.2681,0.2445 -0.5632,0.4424 -0.65578,0.4397 -0.0926,0 -0.5181,-0.2117 -0.94562,-0.4645 z m -6.32699,-0.012 c -0.27585,-0.1826 -8.83673,-5.00299 -9.32075,-5.24825 -0.39216,-0.19874 -0.38367,-0.20151 -1.17173,0.38214 -1.16552,0.86318 -2.44593,1.29736 -3.837794,1.3013 -1.04675,0.003 -1.765862,-0.17518 -2.838888,-0.70336 -0.809759,-0.39857 -1.136932,-0.64016 -1.770999,-1.30765 -0.916552,-0.96489 -1.339142,-1.65789 -1.738405,-2.85078 -0.253241,-0.75663 -0.292387,-1.05103 -0.290667,-2.18593 0.0017,-1.17288 0.03671,-1.41117 0.33034,-2.25347 0.804773,-2.30855 2.683974,-4.08639 4.845522,-4.58413 0.862362,-0.19861 2.334331,-0.17309 3.114951,0.054 2.16179,0.62884 3.99213,2.41497 4.65176,4.53934 0.30159,0.97134 0.44105,2.05701 0.36172,2.81601 -0.0493,0.47166 -0.0277,0.66799 0.0831,0.75717 0.0823,0.0662 1.87108,1.09205 3.97504,2.27966 2.10396,1.18757 3.91376,2.23603 4.02176,2.32989 0.25466,0.22128 0.22471,1.14619 -0.0387,1.19613 -0.0936,0.0177 -1.24945,-0.57731 -2.56847,-1.32232 -1.31902,-0.74504 -3.33271,-1.88181 -4.47486,-2.52615 -1.14215,-0.64435 -2.14468,-1.23758 -2.22785,-1.31831 -0.12432,-0.12065 -0.1295,-0.29286 -0.0291,-0.968 0.37875,-2.54646 -0.8581,-5.09016 -2.99903,-6.16778 -2.122617,-1.0684 -4.554823,-0.64771 -6.218494,1.07555 -2.978959,3.08566 -1.765551,8.39052 2.206762,9.64767 1.853767,0.58669 3.589212,0.18417 5.267932,-1.22184 l 0.80614,-0.67517 0.6678,0.36838 c 1.24865,0.68883 5.35998,3.00145 7.55348,4.24885 l 2.18593,1.24312 v 0.59473 c 0,0.6464 -0.13618,0.7708 -0.54648,0.4992 z m 16.13555,-0.2933 c -0.30842,-0.2456 -0.56076,-0.4887 -0.56076,-0.5402 0,-0.052 0.10463,-0.27115 0.23253,-0.48792 0.30544,-0.51769 0.56889,-0.47276 0.64184,0.10945 l 0.0547,0.43617 0.59264,0.055 c 0.32596,0.03 0.61034,0.1085 0.63195,0.1744 0.0383,0.1168 -0.74059,0.7 -0.93473,0.7 -0.0536,0 -0.34971,-0.2009 -0.65812,-0.4465 z m 6.0452,-4.37307 c -0.0407,-0.0659 -0.007,-0.18394 0.0755,-0.26234 0.0823,-0.0784 2.14108,-1.49964 4.57518,-3.1583 l 4.42563,-3.01575 -0.0358,-1.50365 c -0.0393,-1.65011 0.0489,-2.18416 0.54315,-3.29024 0.85668,-1.91706 2.41747,-3.31065 4.35062,-3.88455 0.76383,-0.22672 2.48185,-0.23147 3.33532,-0.009 1.80894,0.47115 3.41245,1.81548 4.248,3.56132 0.63824,1.33357 0.78589,1.97935 0.77184,3.37591 -0.009,0.91763 -0.0686,1.32329 -0.29642,2.02427 -0.68884,2.11977 -2.3261,3.85041 -4.30015,4.54536 -0.8983,0.31627 -2.60801,0.39871 -3.50242,0.16891 -0.68916,-0.17706 -1.79896,-0.68549 -2.35809,-1.08029 -0.16831,-0.11885 -0.39342,-0.1932 -0.50025,-0.16527 -0.10682,0.0281 -1.11202,0.67239 -2.23378,1.43217 l -2.03956,1.3814 h -0.6984 c -1.18287,0 -1.14798,-0.17325 0.22624,-1.12328 2.78203,-1.92323 4.77697,-3.24859 4.88985,-3.24859 0.0667,0 0.39038,0.20215 0.71924,0.44925 1.42006,1.06703 2.72303,1.44165 4.20997,1.21049 2.0475,-0.31832 3.66905,-1.71071 4.40202,-3.77987 0.37144,-1.04863 0.38998,-2.60398 0.0445,-3.7318 -0.58348,-1.9047 -2.23007,-3.47602 -4.04675,-3.8618 -1.87868,-0.39891 -3.5722,0.1169 -4.94176,1.50525 -0.843,0.85453 -1.23721,1.54928 -1.53108,2.69831 -0.25368,0.99191 -0.26737,1.69053 -0.0523,2.66844 0.086,0.39073 0.15799,0.81743 0.1601,0.94816 0.003,0.19082 -0.70246,0.7217 -3.57562,2.69036 -5.53379,3.79169 -5.16745,3.57508 -6.04622,3.57508 -0.42197,0 -0.77668,-0.0519 -0.81864,-0.11981 z M 97.91267,994.4833 c -0.830608,-0.2334 -1.197536,-0.44911 -1.894306,-1.11372 -2.831436,-2.70075 -0.703583,-7.47767 3.218745,-7.22596 1.134051,0.0728 1.982811,0.48332 2.795551,1.35215 0.83747,0.89524 1.13624,1.63515 1.14397,2.83298 0.009,1.4299 -0.55983,2.57448 -1.71346,3.44642 -0.97761,0.73886 -2.418421,1.02625 -3.5505,0.70813 z"
       style="fill:#ffffff;stroke-width:0.10929672;opacity:1" />
  </g>
</svg>
