<?xml version="1.0" encoding="UTF-8"?>
<svg version="1.1" viewBox="0 0 250 91" xmlns="http://www.w3.org/2000/svg" xmlns:cc="http://creativecommons.org/ns#" xmlns:dc="http://purl.org/dc/elements/1.1/" xmlns:rdf="http://www.w3.org/1999/02/22-rdf-syntax-ns#">
<metadata>
<rdf:RDF>
<cc:Work rdf:about="">
<dc:format>image/svg+xml</dc:format>
<dc:type rdf:resource="http://purl.org/dc/dcmitype/StillImage"/>
<dc:title/>
</cc:Work>
</rdf:RDF>
</metadata>
<g transform="translate(0,-961.4)" fill="#fff">
<path d="m113.45 1042.4c-1.0644-0.4054-1.6791-0.8149-2.5562-1.7033-0.88056-0.8917-1.3587-1.6793-1.7645-2.9068-0.33148-1.0025-0.35798-3.0309-0.0528-4.0439 0.62776-2.0842 2.2903-3.9241 4.206-4.6547 0.33939-0.1295 1.0105-0.2923 1.4914-0.3619l0.87437-0.1266 0.99246-2.9434c0.92836-2.7533 1.0131-2.9522 1.3116-3.0796 0.3921-0.1673 0.77515-0.1831 0.86631-0.036 0.0735 0.1189-2.1961 7.0854-2.3675 7.2669-0.0567 0.06-0.33428 0.099-0.6169 0.086-2.6566-0.121-5.0864 1.8354-5.6627 4.5595-0.5861 2.7706 0.90872 5.6896 3.4193 6.6771 0.86218 0.3391 2.4884 0.4136 3.3886 0.1553 1.6759-0.4809 3.0761-1.8542 3.7038-3.6326 0.2115-0.5993 0.26181-0.961 0.26368-1.8957 4e-3 -1.8972-0.48897-3.0743-1.8486-4.4162-0.55559-0.5483-0.77174-0.8396-0.77042-1.0383 1e-3 -0.1519 0.82809-2.7599 1.838-5.7955 1.2862-3.8665 1.8865-5.5291 2.0045-5.5518 0.16687-0.032 0.63685 0.8648 0.63685 1.2155 0 0.088-0.71317 2.3221-1.5848 4.9658s-1.5848 4.8421-1.5848 4.8853c0 0.043 0.29513 0.4055 0.65583 0.8051 1.2519 1.3872 1.858 2.9799 1.858 4.8829 0 2.9235-1.6705 5.5001-4.2626 6.5747-0.63419 0.2629-0.87462 0.2984-2.2406 0.3305-1.3882 0.033-1.5921 0.012-2.1982-0.2185zm35.698-14.889c-1.1674-0.4069-1.9496-0.9205-2.8178-1.8501-0.78233-0.8377-1.5455-2.1626-1.5871-2.7551-0.0206-0.2934 3e-3 -0.3098 0.49339-0.3414l0.51502-0.033 0.45618 0.9075c1.737 3.4555 5.9502 4.1999 8.6143 1.5218 0.83627-0.8406 1.3661-1.8311 1.6093-3.0085 0.0881-0.4265 0.26983-0.9476 0.4039-1.158 0.13406-0.2103 0.30261-0.5177 0.37455-0.683 0.18588-0.4272 0.43822-0.3819 0.5276 0.095 0.1967 1.0485-0.28725 3.0743-1.0265 4.2969-0.51541 0.8524-1.551 1.9069-2.3433 2.3862-1.0274 0.6216-1.7478 0.8201-3.1429 0.8664-1.1354 0.038-1.3361 0.014-2.0766-0.2441zm-16.302-0.5244c-1.5259-0.5663-2.4851-1.7158-2.7267-3.2674-0.14363-0.9225-0.0254-1.2347 0.52528-1.3877 0.22829-0.063 0.44564-0.1155 0.483-0.1158 0.0374 0 0.0905 0.3805 0.11816 0.8464 0.0579 0.9767 0.24302 1.4092 0.89036 2.0802 0.75418 0.7818 1.792 0.9811 2.7489 0.5279 1.0683-0.5059 1.5848-1.3243 1.5848-2.5109 0-0.8233 0.11179-0.9197 0.7642-0.6586 0.52936 0.2118 0.59229 0.3939 0.43528 1.2598-0.34676 1.9123-1.8298 3.2674-3.6587 3.3428-0.45352 0.019-0.92779-0.029-1.1646-0.1167zm-18.416-4.8792c-1.0986-0.288-1.6278-0.5875-2.3952-1.3556-0.70028-0.7009-1.0438-1.387-1.2568-2.51-0.25247-1.3313-8e-3 -3.2322 0.55868-4.3429 0.30654-0.6008 1.1898-1.4577 1.8449-1.7896 1.1638-0.5898 2.9984-0.7966 4.4348-0.5 1.4174 0.2926 2.6177 1.242 3.2331 2.557 0.51162 1.0933 0.69817 3.2747 0.31911 3.7315-0.11555 0.1392-0.63863 0.164-3.4636 0.164h-3.3275l0.0759 0.2459c0.1723 0.5585 0.39525 0.8368 0.84477 1.0544 0.88489 0.4284 2.2346 0.189 2.5796-0.4575 0.0836-0.1566 0.21496-0.3089 0.29191-0.3384 0.23151-0.089 2.69 0.7336 2.8229 0.9444 0.16378 0.2596-0.25454 1.0441-0.83769 1.571-0.53454 0.4829-1.5776 0.9823-2.3626 1.1312-0.91977 0.1744-2.4815 0.1254-3.3622-0.1054zm3.3479-6.3682c-4e-3 -0.2533-0.40205-1.0093-0.64413-1.2248-0.16938-0.1508-0.4398-0.225-0.91713-0.2518-0.82523-0.046-1.268 0.1857-1.6015 0.8395-0.40196 0.7879-0.42895 0.7737 1.4711 0.7737 1.2837 0 1.6935-0.033 1.6917-0.1366zm-2.6582-0.4837c-0.0966-0.097 0.36072-0.5819 0.54832-0.5819 0.20875 0 0.17819 0.2638-0.055 0.4749-0.21269 0.1925-0.37308 0.2273-0.49334 0.107zm11.339 6.9134c-1.2987-0.2961-2.4883-1.0678-3.0816-1.9989-0.60352-0.9472-0.82493-1.7951-0.82162-3.1465 5e-3 -1.8952 0.34937-2.9333 1.3306-4.0069 0.96745-1.0585 2.2315-1.5359 4.0589-1.5329 1.2066 0 1.8302 0.125 2.6853 0.5299 1.6356 0.7744 2.5609 2.4645 2.5609 4.6776 0 1.4974 0.33424 1.3706-3.6121 1.3706h-3.3858l0.16693 0.4098c0.35642 0.8752 1.1532 1.2416 2.3225 1.0681 0.42491-0.063 0.60172-0.1653 0.97391-0.5635l0.45475-0.4866 1.3824 0.4497c0.76094 0.2476 1.4096 0.5207 1.443 0.6075 0.0863 0.225-0.60423 1.3227-1.0571 1.6804-0.92821 0.7331-1.778 0.992-3.4428 1.0489-0.87938 0.03-1.5312-0.01-1.9781-0.1072zm3.1257-6.4771c0-0.3487-0.43321-1.0781-0.75229-1.2665-0.39628-0.2341-1.3288-0.2488-1.7564-0.028-0.33929 0.1755-0.70941 0.7018-0.82818 1.1776l-0.075 0.3006h1.7059c1.5265 0 1.706-0.019 1.706-0.1841zm7.9787 6.4817c-1.4751-0.4249-2.4018-1.4628-2.8416-3.1823-0.2694-1.0533-0.29354-2.9482-0.0507-3.9785 0.53194-2.2566 2.025-3.5292 4.151-3.5379 1.0624 0 1.7389 0.255 2.43 0.9315l0.46451 0.4548v-2.5823c0-1.4203 0.0299-2.6601 0.0663-2.7552 0.0568-0.1479 0.32489-0.1729 1.856-0.1729 1.7654 0 1.7904 0 1.8492 0.2459 0.0328 0.1353 0.046 3.4429 0.0294 7.3502l-0.0302 7.1043-1.6533 0.03c-1.8765 0.034-1.7849 0.083-1.788-0.9514l-1e-3 -0.4841-0.49888 0.5207c-0.71475 0.746-1.5214 1.0925-2.6161 1.1237-0.4809 0.014-1.0957-0.039-1.3662-0.1166zm3.2842-2.9371c0.63093-0.4252 0.80549-0.8625 0.85263-2.136 0.0493-1.3329-0.11747-1.906-0.70484-2.4217-0.31919-0.2803-0.46951-0.333-0.94925-0.3326-0.74991 0-1.1804 0.2705-1.5069 0.9448-0.21704 0.4484-0.25628 0.6986-0.25628 1.6346 0 0.9595 0.0354 1.174 0.26869 1.627 0.46203 0.8973 1.5142 1.2107 2.2959 0.6839zm-0.82498-2.8268c-1.1721-0.7383-1.217-0.7863-1.0593-1.1325 0.0699-0.1534 0.24857-0.3342 0.39707-0.4019 0.23596-0.1075 0.36602-0.066 1.0314 0.3293 0.79237 0.4708 1.0612 0.8727 0.97758 1.4618-0.057 0.4017-0.40738 0.3349-1.3467-0.2567zm9.946 5.736c-1.0188-0.2144-1.9854-0.6748-2.5561-1.2178-0.38186-0.3632-0.44688-0.4803-0.35777-0.644 0.18708-0.3436 1.6682-1.8941 1.8094-1.8941 0.0738 0 0.24326 0.1474 0.37647 0.3276 0.13321 0.1801 0.49905 0.4597 0.81296 0.6211 0.46607 0.2397 0.75116 0.3008 1.5544 0.3331 1.086 0.044 1.5068-0.087 1.5641-0.4848 0.0445-0.3087-0.16079-0.4103-1.4748-0.73-2.3818-0.5795-3.3356-1.0157-3.9377-1.8009-1.1716-1.5279-0.46333-3.6508 1.5316-4.5911 0.92072-0.4339 1.6164-0.561 3.0599-0.5591 1.4004 0 2.3746 0.1951 3.1726 0.6295 0.58348 0.3175 1.4945 1.1367 1.4945 1.3438 0 0.1768-1.5196 1.7231-1.7721 1.8032-0.14887 0.047-0.31901-0.047-0.58986-0.3255-0.49521-0.5099-0.85384-0.6877-1.6443-0.815-0.68158-0.1097-1.5911 0-1.8568 0.2171-0.24915 0.2068-0.16847 0.5174 0.18136 0.6983 0.1813 0.094 0.87056 0.2926 1.5317 0.4418 2.1017 0.4744 2.8289 0.7968 3.5175 1.559 0.50664 0.5608 0.66627 1.075 0.61168 1.9703-0.0531 0.8709-0.30819 1.4428-0.8997 2.0168-0.5568 0.5404-1.0755 0.8027-2.1115 1.0676-1.007 0.2575-2.8776 0.2729-4.0176 0.033zm-50.702-0.2127c-0.11189-0.2916-0.07288-13.2 0.04043-13.38 0.08189-0.1298 0.41726-0.1713 1.6105-0.199 0.87304-0.02 1.633 0.013 1.8065 0.079l0.29952 0.1139 0.0568 10.553 6.6671 0.11 0.0318 1.2022c0.0175 0.6613 4e-3 1.313-0.0294 1.4482l-0.0612 0.2459h-5.1778c-4.6207 0-5.185-0.019-5.2442-0.1728zm11.106-1.3089c-0.41853-0.2931-0.28499-1.2388 0.1552-1.0991 0.25209 0.08 0.75773 0.9698 0.65007 1.144-0.10995 0.1779-0.51982 0.1551-0.80527-0.045zm22.961-0.4478c-0.0382-0.099 3.3e-4 -0.3822 0.0854-0.6284 0.11277-0.3262 0.22313-0.4574 0.40671-0.4834 0.34069-0.048 0.54164 0.1417 0.69646 0.6584 0.15722 0.5248 0.0488 0.63-0.65126 0.6325-0.33556 0-0.48757-0.049-0.53732-0.1791zm-0.65033-1.2393c-0.52104-0.2102-0.39961-0.5422 0.1996-0.5456 0.31723 0 0.63626 0.2479 0.63626 0.498 0 0.1753-0.45517 0.2012-0.83586 0.048zm-24.879-0.3744c-0.50854-0.5085-0.53894-2.5243-0.054-3.5825 0.52998-1.1565 1.7344-2.0653 2.9599-2.2332 0.62617-0.086 0.75155 0.1076 0.44447 0.6857-0.15355 0.2891-0.37142 0.4622-0.86486 0.6869-1.5658 0.7134-2.1781 2.3604-1.452 3.9053 0.11997 0.2552 0.1863 0.5155 0.1474 0.5784-0.10507 0.17-1.0011 0.1392-1.1809-0.041zm38.5-1.8879c-0.36917-0.2527-0.43056-0.3609-0.4325-0.7625-4e-3 -0.7373 0.29155-0.8972 0.79491-0.4307 0.28615 0.2652 0.48177 0.9129 0.36647 1.2133-0.0835 0.2176-0.39406 0.209-0.72888-0.02zm-51.134-0.4247c-1.7274-0.4646-3.435-1.8887-4.2492-3.5437-0.65113-1.3234-0.82846-2.1826-0.75573-3.6614 0.03253-0.6613 0.13413-1.4374 0.2258-1.7247 0.69289-2.1719 2.4167-3.9174 4.616-4.6741 0.7751-0.2667 2.4351-0.2896 3.3681-0.047 1.5536 0.4046 3.3209 1.7616 4.1058 3.1522 0.19103 0.3385 0.38264 0.6154 0.42581 0.6154 0.0978 0 0.88524-0.1053 7.7619-1.0378 1.5886-0.2154 2.9534-0.3667 3.033-0.3361 0.0908 0.035 0.14472 0.241 0.14472 0.5531 0 0.6315 8e-3 0.6283-2.2952 0.9259-1.7656 0.2282-3.2053 0.4228-6.5032 0.879-0.9017 0.1248-1.9335 0.2372-2.2929 0.2498l-0.65341 0.023-0.49421-0.9277c-1.2439-2.3348-3.6154-3.4954-6.0137-2.943-2.4257 0.5586-4.2677 2.9613-4.2828 5.5866-0.0146 2.5302 1.433 4.7016 3.7 5.5497 0.85994 0.3218 2.1073 0.4 2.9272 0.1836 0.47057-0.1242 0.68951-0.139 0.7924-0.054 0.1809 0.1501 0.18428 0.7579 0.0055 0.9981-0.29242 0.3931-2.4464 0.5333-3.5659 0.2322zm57.656-1.1366c-0.90572-0.2112-1.1311-0.3363-0.99707-0.5531 0.1259-0.2037 1.4858-0.072 1.9286 0.1862 0.40568 0.237 0.48033 0.518 0.14546 0.5477-0.12022 0.011-0.60489-0.071-1.077-0.1808zm-31.661-1.2321c-0.3549-0.575-0.36127-0.7891-0.0511-1.7203 0.44731-1.3432 0.2851-1.4951-0.75642-0.7087-0.35613 0.2689-0.70042 0.4888-0.76508 0.4886-0.24779 0-0.82776-0.4425-0.82264-0.6265 7e-3 -0.2354 1.858-1.6684 2.1556-1.6684 0.11535 0 0.3023 0.1023 0.41545 0.2274 0.11315 0.125 0.46506 0.3824 0.78202 0.572 0.31696 0.1895 0.57629 0.4171 0.57629 0.5056 0 0.088-0.22541 0.8639-0.5009 1.7232-0.54023 1.6849-0.65524 1.8193-1.0331 1.2071zm11.401-2.1657c-1.7999-1.1273-2.1323-1.2987-2.3213-1.1976-0.12129 0.065-0.25103 0.2396-0.28832 0.3881-0.0551 0.2195-0.13583 0.2701-0.43136 0.2701-0.48465 0-0.92429-0.1762-0.92429-0.3705 0-0.087 0.23362-0.3298 0.51916-0.5405s0.68866-0.5591 0.89582-0.7744c0.20716-0.2152 0.44086-0.3913 0.51933-0.3913 0.28097 0 4.9514 3.0016 4.9514 3.1822 0 0.2553-0.4215 0.7528-0.63638 0.751-0.10084 0-1.1287-0.5935-2.2841-1.3171zm-8.0092-0.1489c0-0.1013 0.0935-0.1719 0.22771-0.1719 0.26636 0 0.22871 0.2554-0.0455 0.3085-0.10785 0.021-0.18221-0.035-0.18221-0.1366zm-0.78992-0.8884c-1.6539-0.4009-2.8527-1.4536-3.4781-3.0543-0.2246-0.5748-0.25657-0.8445-0.25917-2.1859-3e-3 -1.3888 0.0232-1.5981 0.28048-2.2659 0.60827-1.579 1.8754-2.6481 3.5909-3.0296 0.76066-0.16911 2.5579-0.13745 3.3178 0.058 2.4115 0.6217 3.7827 2.5201 3.7827 5.237 0 2.1615-0.94824 3.9374-2.5462 4.7687-1.1392 0.5926-3.2948 0.8094-4.6884 0.4715zm2.4207-2.7357c0.7487-0.2995 1.0038-0.9446 1.0019-2.5336-2e-3 -1.8364-0.41817-2.5335-1.5625-2.618-0.80529-0.06-1.2657 0.195-1.6101 0.8901-0.22883 0.4618-0.26702 0.6946-0.26891 1.6395-1e-3 0.6056 0.0616 1.3191 0.1396 1.5854 0.29894 1.0207 1.2587 1.4533 2.3 1.0366zm-22.652 2.6142c-0.1004-0.1004-0.0922-0.9952 0.01-1.0582 0.0454-0.028 0.86925-0.1565 1.8307-0.2853s2.24-0.3042 2.8411-0.3896c3.5509-0.5047 5.3266-0.7214 5.4682-0.667 0.19133 0.073 0.22647 0.9985 0.0423 1.1124-0.12883 0.08-0.45069 0.1266-5.9116 0.8638-3.7916 0.5119-4.1563 0.548-4.2803 0.4239zm10.82 0c-0.0401-0.04-0.0729-3.1118-0.0729-6.8261v-6.7532l0.36577-0.0686c0.50371-0.0945 3.2024-0.017 3.3142 0.0951 0.10021 0.1005 0.18921 12.986 0.0924 13.38-0.0596 0.2425-0.0852 0.2459-1.8436 0.2459-0.9807 0-1.8159-0.033-1.856-0.073zm20.198-0.064c-0.0282-0.075-0.0635-2.4729-0.0785-5.3283l-0.0274-5.1915-4.2576-0.1093-0.0988-0.2814c-0.055-0.15648-0.0636-0.79795-0.0195-1.4452l0.0793-1.1638 0.34491-0.0626c0.18969-0.0344 2.9657-0.0481 6.169-0.0304 5.0342 0.0277 5.8381 0.0544 5.9277 0.19616 0.15569 0.2464 0.1351 2.5512-0.0242 2.7106-0.0927 0.0927-0.73351 0.13113-2.1859 0.13113h-2.0548v5.1827c0 2.8505-0.0299 5.2605-0.0663 5.3555-0.0568 0.148-0.32537 0.1729-1.8615 0.1729-1.3359 0-1.8082-0.035-1.8463-0.1366zm-16.045-0.1549c-0.0401-0.04-0.0729-0.302-0.0729-0.582 0-0.4013 0.0577-0.5634 0.27198-0.7648l0.27199-0.2555-0.24466-0.1213c-0.17945-0.089-0.25407-0.2359-0.27995-0.5515-0.0437-0.5333 0.16234-0.7123 0.82016-0.7123h0.46986l0.32898 0.7256c0.18094 0.399 0.32898 0.8142 0.32898 0.9227 0 0.1146-0.32527 0.4518-0.77625 0.8046-0.75005 0.5869-0.96373 0.6891-1.1182 0.5345zm27.433-1.4208c-0.0401-0.04-0.0729-0.2504-0.0729-0.4675 0-0.2905 0.11533-0.548 0.43741-0.9767 0.61339-0.8163 0.83075-1.615 0.67192-2.4691-0.14465-0.7778-0.54272-1.3936-1.1991-1.8549-0.38401-0.2699-0.59933-0.3351-1.2218-0.3703-1.2546-0.071-1.9104 0.3569-2.6218 1.7101l-0.38398 0.7305-1.3103 0.031c-1.4422 0.034-1.586-0.024-1.586-0.6453 0-0.517 0.24175-0.6426 1.2374-0.6428l0.89389-3e-4 0.30791-0.4873c0.44567-0.7055 1.4013-1.5363 2.0029-1.7412 0.663-0.2259 1.9308-0.2253 2.5958 0 0.73732 0.2512 1.7258 1.1995 2.1514 2.064 0.32515 0.6604 0.3384 0.7402 0.3025 1.8207-0.0449 1.3523-0.26784 1.9029-1.1311 2.7942-0.50938 0.5259-0.87866 0.699-1.0742 0.5035zm-13.409-0.8668c-0.63001-0.4-1.1799-0.7815-1.2219-0.8477-0.0992-0.1562 0.0193-1.0676 0.16244-1.2491 0.0807-0.1023 0.43697-0.1318 1.3238-0.1093l1.2134 0.031v0.5454c0 0.5193-0.0155 0.5481-0.3247 0.6016l-0.32469 0.056 0.3588 0.2808c0.33076 0.2588 0.35612 0.3228 0.32469 0.8182-0.0238 0.375-0.0843 0.5469-0.20019 0.5689-0.0913 0.017-0.68154-0.2959-1.3116-0.6959zm8.3633-0.8091c-0.16698-0.1845-0.33663-0.2186-1.088-0.2186-0.99039 0-1.1525-0.085-1.1525-0.6011 0-0.5519 0.13211-0.6012 1.6122-0.6012h1.3499l0.16517 0.3953c0.18301 0.438 0.13799 0.6977-0.12095 0.6977-0.0935 0-0.21683 0.123-0.27396 0.2733-0.12562 0.3304-0.23163 0.3421-0.49184 0.055zm-22.329-1.8799c-0.16968-0.1697-0.16968-0.8796 0-1.0492 0.10201-0.1021 0.10201-0.1603 0-0.2624-0.19543-0.1954-0.16901-1.0634 0.0348-1.1416 0.20886-0.08 0.74549 0.1374 0.9811 0.3977 0.15651 0.173 0.16423 0.3064 0.0611 1.0557-0.12319 0.895-0.27245 1.1309-0.71529 1.1309-0.12677 0-0.28951-0.059-0.36165-0.1311zm12.954-0.2427c-0.14737-0.1474-0.31536-1.0937-0.34057-1.9185-0.0112-0.3651 0.0384-0.4145 1.2922-1.2868 0.71711-0.499 1.3565-0.8899 1.4209-0.8687 0.0644 0.021 0.13168 0.287 0.1496 0.5907 0.0383 0.6482 7e-3 0.6884-1.1393 1.4619-1.0451 0.7053-1.0514 0.8651-0.0337 0.8651 0.99568 0 1.1951 0.1064 1.1951 0.6378 0 0.2263-0.059 0.4705-0.13116 0.5426-0.1973 0.1973-2.2117 0.1772-2.413-0.024zm-11.95-4.0303c-0.42752-0.2527-0.85787-0.5271-0.95635-0.6096-0.23097-0.1934-0.24895-1.0869-0.0236-1.1734 0.0855-0.0327 0.63013 0.19627 1.2103 0.50907 0.66984 0.3611 1.093 0.5306 1.1592 0.4643 0.0663-0.066-0.6205-1.318-1.8814-3.4292-1.0922-1.8287-2.0602-3.411-2.1513-3.5163-0.1215-0.14032-0.33116-0.19126-0.78708-0.19126-2.2494 0-3.9716-1.9804-3.8005-4.3706 0.0646-0.90327 0.50515-1.8414 1.1892-2.5325 1.8956-1.9152 4.9088-1.3212 6.0909 1.2005 0.25457 0.54303 0.29059 0.75633 0.28933 1.7132-1e-3 0.96098-0.0377 1.1707-0.30159 1.7368l-0.30014 0.64391 0.67607 1.1595c1.2347 2.1176 3.3816 5.6384 3.5312 5.7911 0.20989 0.21416 0.23686-0.13969 0.49872-6.5443 0.12412-3.0357 0.26698-6.5277 0.31747-7.7601 0.0505-1.2323 0.0709-2.2755 0.0453-2.3181-0.0256-0.0427-0.35105-0.23939-0.72326-0.43719-1.4365-0.76345-2.6843-2.3711-3.2482-4.1851-0.30615-0.98493-0.33834-2.7317-0.0695-3.7707 0.53262-2.0585 1.8882-3.7555 3.7016-4.6339 1.4492-0.70199 3.2561-0.818 4.7267-0.30348 1.0564 0.36958 1.6569 0.73859 2.4812 1.5246 0.82248 0.78429 1.461 1.7845 1.8468 2.8927 0.27902 0.80159 0.31434 1.0518 0.31564 2.2359 1e-3 1.1162-0.0424 1.472-0.26791 2.1859-0.60802 1.9247-1.9528 3.4846-3.7151 4.3093-0.39329 0.18404-0.74026 0.37536-0.77105 0.4252-0.0947 0.15324-0.7593 15.942-0.6746 16.027 0.0257 0.0257 0.35673-0.43482 0.73576-1.0232 0.37903-0.58843 1.3502-2.0925 2.1582-3.3424l1.4691-2.2725-0.28619-0.86595c-0.34013-1.0291-0.36429-1.8055-0.0842-2.7054 0.60271-1.9365 2.4394-3.1246 4.2575-2.7542 1.2648 0.25769 2.22 1.0252 2.8342 2.2772 0.26472 0.53966 0.30158 0.74144 0.30198 1.653 3.4e-4 0.94094-0.0322 1.1072-0.34772 1.7733-0.67791 1.431-1.7296 2.1441-3.3328 2.2596-0.52171 0.0376-0.97016 0.0924-0.99656 0.12168-0.0264 0.0294-0.47649 0.71728-1.0002 1.5288-0.52373 0.81151-1.0315 1.537-1.1283 1.6121-0.23442 0.1819-0.95048 0.17446-1.1048-0.0113-0.0957-0.11537 0.0858-0.47179 0.82131-1.6121 0.51933-0.80523 1.1612-1.8002 1.4264-2.2112l0.48216-0.74711 0.90887 0.0757c0.79552 0.0663 0.97546 0.0463 1.4429-0.16042 0.69775-0.30853 1.1036-0.70039 1.4212-1.372 0.48353-1.0228 0.31202-2.2308-0.43763-3.0824-0.54239-0.61619-1.1417-0.9013-1.9012-0.90447-1.4876-6e-3 -2.6434 1.2187-2.6459 2.804-1e-3 0.56021 0.0641 0.80013 0.38147 1.4091 0.2104 0.40365 0.38254 0.78302 0.38254 0.84304 0 0.11597-2.8648 4.5906-3.1465 4.9148-0.0942 0.10836-0.31927 0.19129-0.51913 0.19129h-0.35286l-0.0441 0.68309c-0.0396 0.61411-0.1099 0.78505-0.69584 1.6926-0.35846 0.55522-0.70562 1.0303-0.77148 1.0557-0.20848 0.0805-1.3654-0.2942-1.4605-0.473-0.0501-0.0942-0.0488-1.0321 3e-3 -2.0841 0.0518-1.052 0.16974-3.7817 0.26217-6.066 0.32144-7.9435 0.40222-9.62 0.47916-9.9432 0.0674-0.28327 0.17868-0.36254 0.86407-0.61551 1.9835-0.73216 3.2345-2.1006 3.7449-4.0964 0.25416-0.99375 0.26949-1.6887 0.0591-2.681-0.45894-2.1652-2.059-3.8624-4.1558-4.4083-2.8825-0.75036-5.9056 1.2784-6.569 4.4083-0.19538 0.92173-0.19343 1.5162 8e-3 2.4717 0.37395 1.7733 1.5641 3.2997 3.1661 4.0604 0.51748 0.24577 0.87339 0.48703 0.9271 0.62845 0.1165 0.30675-0.57312 17.877-0.7163 18.25-0.0374 0.0973-0.0995 0.17779-0.13818 0.17883-0.0387 0-0.404 0.0726-0.81187 0.15905-0.40788 0.0865-0.80228 0.13388-0.87644 0.10542-0.18318-0.0703-4.9018-7.9551-4.968-8.3015-0.034-0.17809 0.0421-0.41985 0.2151-0.68335 0.38817-0.5911 0.52357-1.0627 0.52357-1.8235 0-1.5179-1.1391-2.683-2.6231-2.683-0.67103 0-1.1398 0.18381-1.6812 0.65911-1.2588 1.1052-1.2504 3.1472 0.0176 4.2633 0.61101 0.53782 1.1675 0.69658 2.1146 0.60325 0.58465-0.0576 0.75865-0.0378 0.89885 0.10241 0.35018 0.35018 4.8787 8.0197 4.8222 8.1669-0.0321 0.084-0.19202 0.2321-0.35545 0.33-0.16342 0.098-0.5165 0.3782-0.7846 0.6227s-0.5632 0.4424-0.65578 0.4397c-0.0926 0-0.5181-0.2117-0.94562-0.4645zm-6.327-0.012c-0.27585-0.1826-8.8367-5.003-9.3208-5.2482-0.39216-0.19874-0.38367-0.20151-1.1717 0.38214-1.1655 0.86318-2.4459 1.2974-3.8378 1.3013-1.0468 3e-3 -1.7659-0.17518-2.8389-0.70336-0.80976-0.39857-1.1369-0.64016-1.771-1.3076-0.91655-0.96489-1.3391-1.6579-1.7384-2.8508-0.25324-0.75663-0.29239-1.051-0.29067-2.1859 0.0017-1.1729 0.03671-1.4112 0.33034-2.2535 0.80477-2.3086 2.684-4.0864 4.8455-4.5841 0.86236-0.19861 2.3343-0.17309 3.115 0.054 2.1618 0.62884 3.9921 2.415 4.6518 4.5393 0.30159 0.97134 0.44105 2.057 0.36172 2.816-0.0493 0.47166-0.0277 0.66799 0.0831 0.75717 0.0823 0.0662 1.8711 1.092 3.975 2.2797 2.104 1.1876 3.9138 2.236 4.0218 2.3299 0.25466 0.22128 0.22471 1.1462-0.0387 1.1961-0.0936 0.0177-1.2494-0.57731-2.5685-1.3223-1.319-0.74504-3.3327-1.8818-4.4749-2.5262-1.1422-0.64435-2.1447-1.2376-2.2278-1.3183-0.12432-0.12065-0.1295-0.29286-0.0291-0.968 0.37875-2.5465-0.8581-5.0902-2.999-6.1678-2.1226-1.0684-4.5548-0.64771-6.2185 1.0756-2.979 3.0857-1.7656 8.3905 2.2068 9.6477 1.8538 0.58669 3.5892 0.18417 5.2679-1.2218l0.80614-0.67517 0.6678 0.36838c1.2486 0.68883 5.36 3.0014 7.5535 4.2488l2.1859 1.2431v0.59473c0 0.6464-0.13618 0.7708-0.54648 0.4992zm16.136-0.2933c-0.30842-0.2456-0.56076-0.4887-0.56076-0.5402 0-0.052 0.10463-0.27115 0.23253-0.48792 0.30544-0.51769 0.56889-0.47276 0.64184 0.10945l0.0547 0.43617 0.59264 0.055c0.32596 0.03 0.61034 0.1085 0.63195 0.1744 0.0383 0.1168-0.74059 0.7-0.93473 0.7-0.0536 0-0.34971-0.2009-0.65812-0.4465zm6.0452-4.3731c-0.0407-0.0659-7e-3 -0.18394 0.0755-0.26234 0.0823-0.0784 2.1411-1.4996 4.5752-3.1583l4.4256-3.0158-0.0358-1.5036c-0.0393-1.6501 0.0489-2.1842 0.54315-3.2902 0.85668-1.9171 2.4175-3.3106 4.3506-3.8846 0.76383-0.22672 2.4818-0.23147 3.3353-9e-3 1.8089 0.47115 3.4124 1.8155 4.248 3.5613 0.63824 1.3336 0.78589 1.9794 0.77184 3.3759-9e-3 0.91763-0.0686 1.3233-0.29642 2.0243-0.68884 2.1198-2.3261 3.8504-4.3002 4.5454-0.8983 0.31627-2.608 0.39871-3.5024 0.16891-0.68916-0.17706-1.799-0.68549-2.3581-1.0803-0.16831-0.11885-0.39342-0.1932-0.50025-0.16527-0.10682 0.0281-1.112 0.67239-2.2338 1.4322l-2.0396 1.3814h-0.6984c-1.1829 0-1.148-0.17325 0.22624-1.1233 2.782-1.9232 4.777-3.2486 4.8898-3.2486 0.0667 0 0.39038 0.20215 0.71924 0.44925 1.4201 1.067 2.723 1.4416 4.21 1.2105 2.0475-0.31832 3.669-1.7107 4.402-3.7799 0.37144-1.0486 0.38998-2.604 0.0445-3.7318-0.58348-1.9047-2.2301-3.476-4.0468-3.8618-1.8787-0.39891-3.5722 0.1169-4.9418 1.5052-0.843 0.85453-1.2372 1.5493-1.5311 2.6983-0.25368 0.99191-0.26737 1.6905-0.0523 2.6684 0.086 0.39073 0.15799 0.81743 0.1601 0.94816 3e-3 0.19082-0.70246 0.7217-3.5756 2.6904-5.5338 3.7917-5.1674 3.5751-6.0462 3.5751-0.42197 0-0.77668-0.0519-0.81864-0.11981zm-37.512-1.9002c-0.83061-0.2334-1.1975-0.44911-1.8943-1.1137-2.8314-2.7008-0.70358-7.4777 3.2187-7.226 1.1341 0.0728 1.9828 0.48332 2.7956 1.3522 0.83747 0.89524 1.1362 1.6352 1.144 2.833 9e-3 1.4299-0.55983 2.5745-1.7135 3.4464-0.97761 0.73886-2.4184 1.0262-3.5505 0.70813z" stroke-width=".1093"/>
</g>
</svg>
