<?xml version="1.0" encoding="UTF-8"?>
<svg version="1.1" viewBox="0 0 250 91" xmlns="http://www.w3.org/2000/svg" xmlns:cc="http://creativecommons.org/ns#" xmlns:dc="http://purl.org/dc/elements/1.1/" xmlns:rdf="http://www.w3.org/1999/02/22-rdf-syntax-ns#" xmlns:xlink="http://www.w3.org/1999/xlink">
<metadata>
<rdf:RDF>
<cc:Work rdf:about="">
<dc:format>image/svg+xml</dc:format>
<dc:type rdf:resource="http://purl.org/dc/dcmitype/StillImage"/>
<dc:title/>
</cc:Work>
</rdf:RDF>
</metadata>
<g transform="translate(0,-961.4)" fill="#fff">
<path d="m138.42 1034.1c-2.1783-0.7773-3.4208-2.4803-3.62-4.9614-0.19471-2.4256 1.1441-4.8103 3.2354-5.7628 1.7866-0.8136 5.2285-0.3937 6.1778 0.7538 0.23101 0.2792 0.20219 0.4143-0.15787 0.7402-0.42202 0.382-0.47169 0.3765-1.1845-0.1311-0.55348-0.3942-1.1227-0.5496-2.2228-0.6073-1.3225-0.069-1.5893-0.01-2.5232 0.5934-1.3458 0.8644-2.0166 2.1873-2.0166 3.9771 0 3.7104 3.5685 5.7576 6.8588 3.9347 0.82995-0.4598 0.85026-0.5024 0.85026-1.7802v-1.3091l-1.7572-0.066c-1.7055-0.064-1.7572-0.083-1.7572-0.6331 0-0.5636 0.0135-0.5672 2.324-0.6314l2.324-0.064v2.334c0 2.1733-0.0351 2.3565-0.51016 2.6585-2.0644 1.3119-4.1114 1.6369-6.0207 0.9555zm48.186 0.1043c-3.4388-1.2821-4.876-4.8659-3.2978-8.2233 0.92291-1.9634 2.7668-3.0282 5.2439-3.0282 1.3956 0 2.172 0.2317 3.2746 0.9768 0.81263 0.5493 0.90992 0.8661 0.39676 1.2919-0.28134 0.2335-0.51164 0.1683-1.3037-0.369-0.83819-0.5686-1.171-0.6526-2.5848-0.6526-1.4772 0-1.7009 0.063-2.4941 0.7043-1.342 1.0846-1.7782 1.9965-1.7782 3.717 0 1.1863 0.11729 1.6734 0.60129 2.4965 1.4005 2.3822 4.6787 2.8376 6.8314 0.9491 0.36676-0.3217 0.43823-0.32 0.77842 0.02 0.34827 0.3483 0.34379 0.4086-0.0638 0.8593-1.1327 1.2524-3.9329 1.881-5.6039 1.2579zm-142.1-5.5831v-5.6684h1.1337v11.337h-1.1337zm8.442 0.057 0.06067-5.6117 0.56684-0.056c0.48888-0.048 1.0169 0.522 3.8392 4.1445 1.7998 2.3101 3.4068 4.3118 3.5711 4.4481 0.24536 0.2036 0.29868-0.5464 0.29868-4.2012v-4.4491h1.1337v11.337l-0.51016-0.01c-0.38955-0.01-1.341-1.0713-4.0246-4.5036l-3.5144-4.4949-0.1227 9.0072h-1.359l0.06067-5.6117zm19.673 0.6327v-4.979l-1.8706-0.066c-1.8266-0.064-1.8706-0.08-1.8706-0.6326v-0.5669l8.7293-0.124v1.3702h-3.6278v9.9764h-1.3604zm11.337-0.6894v-5.6684h8.1625v1.3605h-6.8021v3.6278h6.1219v1.3604h-6.1219v3.8545h6.8021v1.1336h-8.1625zm14.738 0v-5.6684h1.3604v10.203h6.3486v1.1336h-7.709zm14.058 0v-5.6684h1.1337v10.203h6.3486v1.1336h-7.4823zm13.884 0.057 0.0607-5.6117 1.247-0.144v11.367h-1.3683zm25.115-0.057v-5.6684h8.1625v1.3605h-6.8021v3.6146l6.0085 0.126v1.1337l-6.0085 0.126v3.8413h6.8021v1.1337h-8.1625zm14.738-0.015v-5.6835l0.61312 0.072c0.4943 0.058 1.2742 0.9145 4.0246 4.4208l3.4115 4.349 0.11336-4.3491 0.11337-4.349 1.247-0.144v11.367h-0.51818c-0.40354 0-1.3191-1.0159-4.1379-4.5914l-3.6197-4.5914-0.0614 4.5914-0.0613 4.5914h-1.1243v-5.6835zm32.476 0.072 0.0607-5.6117 8.0491-0.124v1.3708h-6.8021v3.6278h6.1219v1.3604h-6.1219v3.8546h6.8021v1.1337h-8.1704zm-91.835-33.655c-2.1574-7.7716-3.9803-14.36-4.051-14.64-0.12417-0.4929-0.0745-0.5102 1.4675-0.5102h1.596l0.23437 0.7369c0.1289 0.4053 1.5206 5.3793 3.0927 11.053 1.5721 5.674 3.062 11.011 3.3109 11.859l0.45261 1.5429 1.7439-0.9393c2.0321-1.0946 4.6814-2.9602 6.4798-4.5631l1.267-1.1292-1.2083-1.5148c-1.7143-2.1493-2.5772-3.4745-3.3945-5.2135-0.64127-1.3645-0.71301-1.7321-0.71624-3.6703-3e-3 -1.9043 0.07-2.3039 0.63135-3.4469 2.285-4.6531 8.6785-5.7611 12.291-2.1299 1.5486 1.5567 2.1964 2.9859 2.3222 5.1233 0.16008 2.7207-0.95209 5.2677-3.9683 9.0879l-1.4177 1.7955 0.85086 0.7645c2.1619 1.9423 5.1498 4.0387 7.3122 5.1303l1.3291 0.6709 0.23151-0.7321c0.12734-0.4027 1.5178-5.3745 3.0899-11.049s3.0609-11.005 3.3085-11.847l0.45014-1.5305h1.604c1.5511 0 1.5997 0.017 1.4727 0.5102-0.0722 0.2805-1.8952 6.868-4.051 14.639l-3.9197 14.129-0.68021-0.1273c-0.37411-0.07-2.0066-0.7898-3.6278-1.5995-3.0054-1.5011-5.9224-3.4487-8.3007-5.5423l-1.3278-1.1688-1.761 1.5063c-3.2867 2.8111-9.304 6.3627-11.525 6.8024l-0.66609 0.1319zm19.502-0.8762c3.4798-4.5065 3.7955-7.5858 1.0076-9.8312-0.80744-0.6503-1.0012-0.7018-2.6431-0.7018-1.6419 0-1.8357 0.052-2.6431 0.7018-2.4123 1.9429-2.4999 4.5608-0.26864 8.0276 1.2497 1.9417 2.69 3.6637 2.9844 3.5681 0.14708-0.047 0.85034-0.8419 1.5628-1.7645zm-101.74 14.14c-2.4075-0.5393-4.6884-1.9794-5.952-3.7578l-0.73704-1.0374 1.0524-0.9263c0.57881-0.5095 1.1283-0.9263 1.2211-0.9263 0.09281 0 0.33114 0.2478 0.52962 0.5508 0.59372 0.9061 2.0129 2.186 2.9625 2.6717 1.1713 0.5992 3.2298 0.7752 4.5949 0.3929 1.3663-0.3825 2.7975-1.7798 3.3705-3.2907 0.38752-1.0218 0.43078-2.023 0.50133-11.605l0.07725-10.487h3.1736l-0.07565 10.827c-0.07294 10.444-0.09292 10.872-0.56543 12.126-1.0582 2.8085-2.9416 4.5767-5.6094 5.2662-1.2674 0.3276-3.5206 0.4243-4.5438 0.1951zm191.56-0.2944c-3.897-1.0218-7.0312-3.5692-8.6874-7.0612-4.225-8.908 0.43842-19.259 9.5533-21.205 2.3938-0.511 5.8975-0.305 8.2511 0.485 1.8607 0.6247 4.0148 1.8041 4.7217 2.5851 0.39829 0.4401 0.38365 0.4823-0.55377 1.5939l-0.96286 1.1419-1.045-0.7608c-2.2568-1.6434-4.5822-2.3979-7.3936-2.3991-2.9226 0-5.4342 1.0277-7.473 3.0614-2.1902 2.1846-3.2969 5.0747-3.2969 8.6095 0 3.5412 1.1203 6.4706 3.2951 8.616 2.2745 2.2437 5.8582 3.3723 9.174 2.8891 2.1693-0.3162 4.0141-0.9518 5.4654-1.8831l1.1114-0.7132v-7.2083h-7.2555v-2.7208h10.43v11.298l-1.0988 0.8067c-1.6109 1.1825-4.6802 2.5854-6.4968 2.9696-2.2107 0.4676-5.7362 0.4197-7.7379-0.105zm-172.37-0.2091c0.04358-0.1242 2.681-6.5034 5.861-14.176l5.7818-13.95 2.9484-0.02 5.7151 13.774c3.1433 7.5758 5.7813 13.953 5.8623 14.171 0.1312 0.3537-0.02166 0.3966-1.4075 0.3958h-1.5547l-1.5096-3.6834-1.5096-3.6834h-14.211l-1.5099 3.6277-1.5099 3.6278-1.5179 0.068c-0.93875 0.041-1.4877-0.019-1.4387-0.1584zm18.712-10.736c-0.16841-0.4053-1.4687-3.5683-2.8895-7.0289-1.4208-3.4605-2.6476-6.2919-2.7262-6.2919-0.10687 0-4.7121 10.902-5.7724 13.665-0.14032 0.3656 0.25069 0.3922 5.7719 0.3922h5.9224zm20.48 6.0876v-4.8523l-5.1016-9.1195c-2.8059-5.0156-5.1016-9.158-5.1016-9.2052 0-0.047 0.80612-0.086 1.7914-0.086h1.7914l4.0471 7.5918c2.2259 4.1754 4.0981 7.5924 4.1604 7.5931 0.06236 0 1.9499-3.4131 4.1946-7.5863l4.0812-7.5878 3.5477-0.02-0.68786 1.2022c-0.37833 0.6613-2.6811 4.768-5.1172 9.1262l-4.4294 7.9238-7.11e-4 4.9316-7.11e-4 4.9314h-3.1743zm73.462-9.2053v-14.058h3.1743v28.115h-3.1743zm15.191 0v-14.058l3.2877 0.02 18.592 23.147 0.0587-11.582 0.0587-11.582h3.1702v28.115h-3.1479l-9.2007-11.326c-5.0604-6.2295-9.3006-11.388-9.4227-11.464-0.14378-0.089-0.22204 3.9035-0.22204 11.326v11.463h-3.1743z" stroke-width=".22674"/>
</g>
</svg>
