<?xml version="1.0" encoding="UTF-8"?>
<svg version="1.1" viewBox="0 0 250 91" xml:space="preserve" xmlns="http://www.w3.org/2000/svg" xmlns:cc="http://creativecommons.org/ns#" xmlns:dc="http://purl.org/dc/elements/1.1/" xmlns:rdf="http://www.w3.org/1999/02/22-rdf-syntax-ns#"><g fill="#fff" stroke-width="1.5148"><path d="m137.69 34.847c-0.0757-0.07574-0.0757-0.15148-0.0757-0.22722l0.45292-0.75436c0.0757-0.07574 0.15147-0.15148 0.22721-0.07574 0.67862 0.60439 1.3572 0.90583 2.1146 0.90583 0.75739 0 1.5102-0.22722 1.9647-0.75587 0.45292-0.45292 0.75587-1.2088 0.75587-2.2661v-6.5726c0-0.07422 0.0757-0.14996 0.15148-0.14996h0.98157c0.0757 0 0.15147 0.07574 0.15147 0.14996v6.7241c0 1.436-0.45443 2.4176-1.133 3.022-0.75436 0.68013-1.7374 0.98157-2.7963 0.98157-1.1315 0.07574-2.1146-0.37718-2.7948-0.98157z"/><path d="m151.59 35.904c-3.0992 0-5.5895-2.4176-5.5895-5.5153s2.4918-5.5153 5.5895-5.5153c3.0204 0 5.588 2.4176 5.588 5.5153s-2.5675 5.5153-5.588 5.5153zm0-9.8203c-2.4191 0-4.3065 1.9631-4.3065 4.3065 0 2.4176 1.8874 4.305 4.3065 4.305 2.4161 0 4.2308-1.9631 4.2308-4.305 0-2.3434-1.8904-4.3065-4.2308-4.3065z"/><path d="m158.31 34.847c-0.0757-0.07574-0.15299-0.15148-0.0757-0.22722l0.37717-0.83009c0-0.07574 0.0757-0.07574 0.2257-0.07574 0.68014 0.45292 1.6632 1.0588 3.0977 1.0588 0.75436 0 1.3603-0.15148 1.7374-0.45292 0.45292-0.37869 0.67862-0.90735 0.67862-1.5117 0-0.8301-0.60288-1.2845-1.3588-1.6617-0.90735-0.37869-1.9647-0.53017-3.0977-1.1346-0.90583-0.45292-1.586-1.133-1.586-2.3403 0-0.83161 0.30144-1.586 0.90583-2.0404 0.68013-0.52866 1.586-0.83009 2.872-0.83009 1.2845 0 2.4176 0.37869 3.0977 0.75587 0.0757 0.07574 0.0757 0.15148 0.0757 0.2257l-0.37718 0.75738c-0.0757 0.07574-0.15147 0.14996-0.22721 0.07574-0.75436-0.45292-1.7359-0.75587-2.6433-0.75587-0.90734 0-1.5102 0.22722-1.8889 0.52866-0.30144 0.30144-0.52865 0.68013-0.52865 1.2088 0 0.75587 0.60439 1.2088 1.586 1.586 1.0573 0.37869 2.1904 0.52866 3.1734 1.133 0.75587 0.45292 1.436 1.133 1.436 2.3418 0 1.0573-0.45443 1.8117-1.1346 2.4176-0.68013 0.52866-1.586 0.75587-2.719 0.75587-1.7374 0.07271-2.872-0.53168-3.6264-0.9846z"/><path d="m174.71 25.026c0.0757 0 0.15148 0.07422 0.15148 0.15148v0.83161c0 0.07574-0.0757 0.15148-0.15148 0.15148h-6.2712v3.7021h5.4395c0.0742 0 0.15148 0.07574 0.15148 0.14996v0.83161c0 0.07574-0.0773 0.15148-0.15148 0.15148h-5.4395v3.7006h6.2712c0.0757 0 0.15148 0.07574 0.15148 0.15148v0.8301c0 0.07574-0.0757 0.15148-0.15148 0.15148h-7.4042c-0.0757 0-0.15148-0.07574-0.15148-0.15148v-10.426c0-0.07574 0.0757-0.15148 0.15148-0.15148h7.4042z"/><path d="m180.6 25.026c0.90735 0 1.7359 0.15148 2.4933 0.75587 0.75739 0.60439 1.2845 1.586 1.2845 2.7948 0 1.2088-0.52865 2.2676-1.3588 2.8705-0.75435 0.53017-1.5875 0.68013-2.4933 0.68013h-2.9462v3.5506c0 0.07574-0.0757 0.15148-0.15148 0.15148h-0.98005c-0.0773 0-0.153-0.07574-0.153-0.15148v-10.426c0-0.07574 0.0757-0.15148 0.153-0.15148h4.1535v-0.07422zm1.5102 1.586c-0.45292-0.37869-1.0573-0.45292-1.7359-0.45292h-2.872v4.8351h2.7205c0.67862 0 1.2845-0.07574 1.8132-0.45292 0.60288-0.37869 0.98006-1.133 0.98006-1.9647 2e-3 -0.90735-0.29992-1.586-0.90583-1.9647z"/><path d="m194.57 25.026c0.0757 0 0.15148 0.07422 0.15148 0.15148v10.425c0 0.07574-0.0757 0.15148-0.15148 0.15148h-0.98157c-0.0757 0-0.15148-0.07574-0.15148-0.15148v-4.6837h-6.4211v4.6837c0 0.07574-0.0757 0.15148-0.15148 0.15148h-0.98157c-0.0757 0-0.15148-0.07574-0.15148-0.15148v-10.426c0-0.07574 0.0757-0.15148 0.15148-0.15148h0.98157c0.0757 0 0.15148 0.07422 0.15148 0.15148v4.6079h6.4211v-4.6079c0-0.07574 0.0757-0.15148 0.15148-0.15148h0.98157z"/><path d="m144.03 47.159 3.0235 4.0066c0.0742 0.15148 0.0742 0.2257-0.0773 0.2257h-1.0573c-0.15148 0-0.2257 0-0.30295-0.15148l-2.9447-4.0035h-2.719v4.0035c0 0.07574-0.0757 0.15148-0.15299 0.15148h-0.98006c-0.0772 0-0.15148-0.07574-0.15148-0.15148v-10.426c0-0.07574 0.0742-0.15148 0.15148-0.15148h4.2308c1.0573 0 1.8874 0.15148 2.6433 0.60439 0.75587 0.52866 1.2845 1.436 1.2845 2.6448 0 1.133-0.45292 2.0404-1.2088 2.5675-0.60439 0.45595-1.1346 0.60591-1.739 0.68013zm-4.1535-5.3623v4.3822h2.8705c0.75587 0 1.4345-0.07422 1.8889-0.37718 0.53017-0.30295 0.90735-0.90583 0.90735-1.8132 0-0.90583-0.37718-1.5102-0.90735-1.8117-0.52865-0.30295-1.133-0.37869-1.8132-0.37869h-2.9462z"/><path d="m153.55 51.543c-3.0977 0-5.588-2.4176-5.588-5.5138 0-3.0977 2.4918-5.5153 5.588-5.5153 3.022 0 5.5895 2.4161 5.5895 5.5153 0 3.1719-2.5675 5.5138-5.5895 5.5138zm0-9.8218c-2.4176 0-4.3065 1.9647-4.3065 4.3065 0 2.4176 1.8889 4.305 4.3065 4.305 2.4191 0 4.2308-1.9647 4.2308-4.305 0-2.3418-1.8117-4.3065-4.2308-4.3065z"/><path d="m173.95 40.891c0-0.07574 0.0773-0.15148 0.153-0.15148h0.98157c0.0757 0 0.15147 0.07574 0.15147 0.15148v6.6468c0 1.3603-0.37717 2.2661-0.98157 2.9462-0.75435 0.83161-1.8889 1.133-2.9462 1.133-0.67862 0-1.3572-0.14996-1.9632-0.52866-0.53017-0.37718-1.0573-0.90735-1.3603-1.7374-0.29993 0.83161-0.8301 1.3603-1.3588 1.7374-0.60288 0.37869-1.2845 0.52866-1.9647 0.52866-1.1315 0-2.1888-0.30144-2.9462-1.133-0.60288-0.68013-0.98005-1.586-0.98005-2.9462v-6.6468c0-0.07574 0.0742-0.15148 0.15299-0.15148h0.90583c0.0757 0 0.15148 0.07574 0.15148 0.15148v6.6468c0 0.98157 0.2257 1.6632 0.68013 2.1161 0.53017 0.60288 1.2845 0.75436 2.0389 0.75436 0.68013 0 1.286-0.2257 1.7374-0.60439 0.6044-0.52866 0.90735-1.4345 0.90735-2.4918v-6.4226c0-0.07574 0.0757-0.15148 0.15148-0.15148h0.98157c0.0742 0 0.15148 0.07574 0.15148 0.15148v6.4226c0 1.133 0.37869 1.9631 0.98157 2.4918 0.45443 0.37869 1.0573 0.60439 1.7359 0.60439 0.75588 0 1.5118-0.2257 2.0404-0.75436 0.37718-0.45443 0.68013-1.1346 0.68013-2.1161v-6.6468z"/><path d="m185.21 40.891c0-0.07574 0.0742-0.15148 0.14996-0.15148h0.90735c0.0757 0 0.15299 0.07574 0.15299 0.15148v10.425c0 0.07574-0.0772 0.15299-0.15299 0.15299h-0.90735c-0.14996 0-0.14996 0-0.30144-0.15299l-6.7226-8.4615v8.5372c0 0.07725-0.0757 0.15148-0.15148 0.15148h-0.90886c-0.0742 0-0.14996-0.07422-0.14996-0.15148v-10.425c0-0.07574 0.0757-0.15148 0.14996-0.15148h0.83313c0.15147 0 0.15147 0 0.30143 0.15148l6.7226 8.5372v-8.613z"/><path d="m196.01 40.739c0.0772 0 0.15147 0.07574 0.15147 0.15148v0.83009c0 0.07574-0.0742 0.15148-0.15147 0.15148h-3.6264v9.4431c0 0.07574-0.0757 0.15299-0.15148 0.15299h-0.90735c-0.0757 0-0.15147-0.07725-0.15147-0.15299v-9.4431h-3.6279c-0.0742 0-0.15148-0.07574-0.15148-0.15148v-0.83009c0-0.07574 0.0773-0.15148 0.15148-0.15148z"/><path d="m202.73 47.159 3.022 4.0066c0.0772 0.15148 0.0772 0.2257-0.0757 0.2257h-1.0573c-0.15147 0-0.2257 0-0.30144-0.15148l-2.9462-4.0035h-2.719v4.0035c0 0.07574-0.0772 0.15148-0.15148 0.15148h-0.98308c-0.0742 0-0.15148-0.07574-0.15148-0.15148v-10.426c0-0.07574 0.0772-0.15148 0.15148-0.15148h4.2308c1.0573 0 1.8889 0.15148 2.6448 0.60439 0.75587 0.52866 1.2845 1.436 1.2845 2.6448 0 1.133-0.45292 2.0404-1.2088 2.5675-0.60439 0.45595-1.0588 0.60591-1.739 0.68013zm-4.0793-5.3623v4.3822h2.8705c0.75587 0 1.4345-0.07422 1.8889-0.37718 0.53017-0.30295 0.90734-0.90583 0.90734-1.8132 0-0.90583-0.37717-1.5102-0.90734-1.8117-0.52866-0.30295-1.133-0.37869-1.8117-0.37869h-2.9477z"/><path d="m214.59 40.739c0.0742 0 0.14996 0.07574 0.14996 0.15148v0.83009c0 0.07574-0.0757 0.15148-0.14996 0.15148h-6.1954v3.7021h5.4395c0.0757 0 0.14996 0.07422 0.14996 0.15148v0.83161c0 0.07574-0.0742 0.15148-0.14996 0.15148h-5.4395v3.7006h6.2696c0.0757 0 0.15299 0.07574 0.15299 0.15299v0.83009c0 0.07725-0.0773 0.15148-0.15299 0.15148h-7.4027c-0.0757 0-0.15148-0.07422-0.15148-0.15148v-10.425c0-0.07574 0.0757-0.15148 0.15148-0.15148h7.3285z"/><path d="m223.73 40.739c0.0757 0 0.15147 0.07574 0.15147 0.15148v0.83009c0 0.07574-0.0757 0.15148-0.15147 0.15148h-6.2712v3.7021h5.4395c0.0757 0 0.15147 0.07422 0.15147 0.15148v0.83161c0 0.07574-0.0757 0.15148-0.15147 0.15148h-5.4395v3.7006h6.2712c0.0757 0 0.15147 0.07574 0.15147 0.15299v0.83009c0 0.07725-0.0757 0.15148-0.15147 0.15148h-7.4042c-0.0757 0-0.15148-0.07422-0.15148-0.15148v-10.425c0-0.07574 0.0757-0.15148 0.15148-0.15148h7.4042z"/></g><g fill="#fff" fill-opacity=".75" stroke-width="1.5148"><path d="m17.117 63.706c-0.52866-0.37869-0.60439-0.90735-0.22722-1.5117l4.155-6.9498c0.30295-0.45292 0.90735-0.68013 1.436-0.15148 2.1146 1.9647 4.5322 3.1734 7.027 3.1734 1.6617 0 3.0962-0.37869 3.9278-1.0588 1.3587-1.2845 1.7374-3.2492 1.7374-6.3439v-25.083c0-0.60439 0.52866-1.1346 1.133-1.1346h8.8387c0.60439 0 1.133 0.53017 1.133 1.1346v26.139c0 6.2696-2.0404 10.502-5.4395 13.068-2.8705 2.1146-6.7226 3.1734-11.181 3.1734-4.9866-0.07422-9.4431-1.8117-12.541-4.4549z"/><path d="m81.181 51.391 8.1586 14.125c0.52866 0.90886 0.60439 1.9662-0.60439 1.9662h-9.6703c-0.98157 0-1.6617-0.15148-2.1146-1.133l-6.7241-12.844h-6.7226v12.844c0 0.60439-0.52866 1.133-1.133 1.133h-8.8387c-0.60439 0-1.133-0.52866-1.133-1.133v-40.569c0-0.60439 0.52865-1.1346 1.133-1.1346h19.038c4.2292 0 8.1586 0.90735 11.029 3.0977 3.1734 2.4933 4.9851 6.7241 4.9851 11.256 0 3.7778-1.2845 7.5557-4.6837 10.578-0.98157 0.68013-1.8132 1.3603-2.719 1.8132zm-17.755-17.376v10.199h7.4027c1.9647 0 3.4764-0.22722 4.458-0.90583 1.2088-0.75587 1.9647-2.1919 1.9647-4.155 0-1.8904-0.60591-3.1734-1.739-4.0051-0.98157-0.75587-2.4176-1.0573-3.7006-1.0573h-8.3858z"/><path d="m105.43 66.349c0 0.60439-0.52866 1.133-1.133 1.133h-8.8387c-0.60439 0-1.133-0.52866-1.133-1.133v-40.569c0-0.60439 0.52866-1.1346 1.133-1.1346h29.009c0.6044 0 1.133 0.53017 1.133 1.1346v7.5542c0 0.60439-0.52865 1.1346-1.133 1.1346h-19.038v6.5726h16.394c0.60288 0 1.133 0.52866 1.133 1.133v7.5526c0 0.60439-0.53017 1.1346-1.133 1.1346h-16.394z"/><path d="m139.88 66.954c0 0.07574-0.0772 0.14996-0.15148 0.14996h-0.98308c-0.0742 0-0.14996-0.07422-0.14996-0.14996v-10.425c0-0.07725 0.0757-0.15148 0.14996-0.15148h6.874c0.0772 0 0.15299 0.07422 0.15299 0.15148v0.83161c0 0.07574-0.0757 0.15148-0.15299 0.15148h-5.7395v3.7021h4.9851c0.0757 0 0.15148 0.07422 0.15148 0.14996v0.83161c0 0.07725-0.0757 0.15148-0.15148 0.15148h-4.9851z"/><path d="m152.04 67.255c-3.0962 0-5.588-2.4176-5.588-5.5138 0-3.0977 2.4933-5.5168 5.588-5.5168 3.022 0 5.591 2.4191 5.591 5.5168 0 3.1734-2.569 5.5138-5.591 5.5138zm0-9.8203c-2.4176 0-4.3065 1.9631-4.3065 4.3065 0 2.4191 1.8889 4.3065 4.3065 4.3065 2.4191 0 4.2308-1.9647 4.2308-4.3065 0-2.3434-1.8859-4.3065-4.2308-4.3065z"/><path d="m167 56.603c0-0.07574 0.0757-0.15299 0.15148-0.15299h0.98006c0.0772 0 0.15299 0.07725 0.15299 0.15299v6.3454c0 1.2103-0.37869 2.2661-1.0573 3.022-0.75436 0.83161-1.9647 1.3587-3.4749 1.3587-1.5117 0-2.7205-0.45443-3.4764-1.3587-0.67862-0.75587-1.0573-1.8117-1.0573-3.022v-6.3454c0-0.07574 0.0773-0.15299 0.15299-0.15299h0.90583c0.0773 0 0.15148 0.07725 0.15148 0.15299v6.1954c0 1.0573 0.30295 1.8889 0.83312 2.4176 0.52866 0.6771 1.433 0.98006 2.4176 0.98006 1.0573 0 1.8874-0.30295 2.4933-0.98006 0.53017-0.60439 0.83161-1.4345 0.83161-2.4176v-6.1954z"/><path d="m178.18 56.603c0-0.07574 0.0757-0.15299 0.15148-0.15299h0.90735c0.0757 0 0.15299 0.07725 0.15299 0.15299v10.426c0 0.07422-0.0772 0.15148-0.15299 0.15148h-0.90735c-0.15148 0-0.15148 0-0.30144-0.15148l-6.7241-8.4615v8.4615c0 0.07422-0.0742 0.15148-0.15148 0.15148h-0.90583c-0.0757 0-0.153-0.07725-0.153-0.15148v-10.426c0-0.07574 0.0773-0.15299 0.153-0.15299h0.83009c0.15299 0 0.15299 0 0.30295 0.15299l6.7226 8.5357v-8.5357z"/><path d="m188.61 66.349c-1.0573 0.60439-2.2661 0.75436-3.4749 0.75436h-3.6264c-0.0772 0-0.15148-0.07422-0.15148-0.14996v-10.425c0-0.07725 0.0742-0.15148 0.15148-0.15148h3.8521c1.739 0 3.3249 0.45292 4.4565 1.6617 0.75587 0.83161 1.2845 2.0404 1.2845 3.6264 0 2.1919-0.82858 3.7763-2.4918 4.6837zm-5.9682-0.30144h2.3418c1.0588 0 2.0404-0.15451 2.7963-0.60439 1.2845-0.68013 1.9647-1.9631 1.9647-3.7006 0-1.286-0.37718-2.2661-0.98157-2.9462-0.83313-0.90735-2.0419-1.3587-3.6279-1.3587h-2.4933z"/><path d="m201.22 66.954c0 0.07574-0.0757 0.14996-0.15148 0.14996h-0.98157c-0.0757 0-0.15148-0.07422-0.15148-0.14996v-3.5521h-6.0439v3.5521c0 0.07574-0.0757 0.14996-0.15148 0.14996h-0.90735c-0.0757 0-0.14996-0.07422-0.14996-0.14996v-6.1182c0-1.2103 0.37718-2.4948 1.3572-3.4007 0.68013-0.68013 1.6632-1.2103 2.9462-1.2103s2.2661 0.45595 2.9462 1.2103c0.90584 0.90583 1.2845 2.1904 1.2845 3.4007v6.1182zm-6.4968-8.613c-0.52866 0.60591-0.83161 1.5875-0.83161 2.5691v1.3603h6.0439v-1.3603c0-0.98157-0.30295-1.9631-0.83161-2.5691-0.53017-0.52866-1.2845-0.90583-2.1904-0.90583-0.90584 0-1.6632 0.37718-2.1904 0.90583z"/><path d="m210.29 56.452c0.0773 0 0.15148 0.07725 0.15148 0.15299v0.83161c0 0.07574-0.0742 0.15148-0.15148 0.15148h-3.6279v9.4431c0 0.07422-0.0742 0.15148-0.14996 0.15148h-0.90735c-0.0757 0-0.14996-0.07725-0.14996-0.15148v-9.4431h-3.6294c-0.0757 0-0.14997-0.07574-0.14997-0.15148v-0.83161c0-0.07574 0.0742-0.15299 0.14997-0.15299z"/><path d="m212.86 56.452c0.0757 0 0.15147 0.07725 0.15147 0.15299v10.426c0 0.07422-0.0757 0.15148-0.15147 0.15148h-0.98158c-0.0757 0-0.15299-0.07725-0.15299-0.15148v-10.426c0-0.07574 0.0773-0.15299 0.15299-0.15299z"/><path d="m220.18 67.255c-3.0977 0-5.5895-2.4176-5.5895-5.5138 0-3.0977 2.4933-5.5168 5.5895-5.5168 3.0205 0 5.5895 2.4191 5.5895 5.5168 2e-3 3.1734-2.4918 5.5138-5.5895 5.5138zm0-9.8203c-2.4176 0-4.3065 1.9631-4.3065 4.3065 0 2.4191 1.8889 4.3065 4.3065 4.3065 2.4176 0 4.2292-1.9647 4.2292-4.3065 0.0757-2.3434-1.8117-4.3065-4.2292-4.3065z"/><path d="m235.44 56.603c0-0.07574 0.0772-0.15299 0.15299-0.15299h0.90735c0.0757 0 0.15147 0.07725 0.15147 0.15299v10.426c0 0.07422-0.0757 0.15148-0.15147 0.15148h-0.90735c-0.15299 0-0.15299 0-0.30295-0.15148l-6.7226-8.4615v8.4615c0 0.07422-0.0757 0.15148-0.14996 0.15148h-0.90735c-0.0772 0-0.15299-0.07725-0.15299-0.15148v-10.426c0-0.07574 0.0757-0.15299 0.15299-0.15299h0.8301c0.15148 0 0.15148 0 0.30144 0.15299l6.7241 8.5357v-8.5357z"/></g></svg>
