<?xml version="1.0" encoding="UTF-8" standalone="no"?>
<!-- Created with Inkscape (http://www.inkscape.org/) -->

<svg
   xmlns:dc="http://purl.org/dc/elements/1.1/"
   xmlns:cc="http://creativecommons.org/ns#"
   xmlns:rdf="http://www.w3.org/1999/02/22-rdf-syntax-ns#"
   xmlns:svg="http://www.w3.org/2000/svg"
   xmlns="http://www.w3.org/2000/svg"
   xmlns:sodipodi="http://sodipodi.sourceforge.net/DTD/sodipodi-0.dtd"
   xmlns:inkscape="http://www.inkscape.org/namespaces/inkscape"
   width="250"
   height="91"
   viewBox="0 0 250 91"
   id="svg2"
   version="1.1"
   inkscape:version="0.92.2 (5c3e80d, 2017-08-06)"
   sodipodi:docname="kirklees.svg">
  <defs
     id="defs4" />
  <sodipodi:namedview
     id="base"
     pagecolor="#ffffff"
     bordercolor="#666666"
     borderopacity="1.0"
     inkscape:pageopacity="0.0"
     inkscape:pageshadow="2"
     inkscape:zoom="3.959798"
     inkscape:cx="140.95847"
     inkscape:cy="25.360769"
     inkscape:document-units="px"
     inkscape:current-layer="layer1"
     showgrid="true"
     inkscape:window-width="1920"
     inkscape:window-height="1046"
     inkscape:window-x="-11"
     inkscape:window-y="-11"
     inkscape:window-maximized="1"
     units="px">
    <inkscape:grid
       type="xygrid"
       id="grid5735" />
  </sodipodi:namedview>
  <metadata
     id="metadata7">
    <rdf:RDF>
      <cc:Work
         rdf:about="">
        <dc:format>image/svg+xml</dc:format>
        <dc:type
           rdf:resource="http://purl.org/dc/dcmitype/StillImage" />
        <dc:title></dc:title>
      </cc:Work>
    </rdf:RDF>
  </metadata>
  <g
     inkscape:label="Layer 1"
     inkscape:groupmode="layer"
     id="layer1"
     transform="translate(0,-961.4)">
    <rect
       style="opacity:0.001;fill:#ffffff;fill-opacity:1;stroke:none;stroke-width:2.5;stroke-linecap:round;stroke-linejoin:round;stroke-miterlimit:4;stroke-dasharray:none;stroke-dashoffset:0;stroke-opacity:1"
       id="rect4175"
       width="250"
       height="91"
       x="0"
       y="961.4" />
    <path
       style="fill:#ffffff;fill-opacity:1"
       d=""
       id="path4239"
       inkscape:connector-curvature="0" />
    <path
       style="fill:#ffffff;fill-opacity:1;stroke-width:0.31635761"
       d="m 38.559317,979.40034 c -2.102203,-0.0281 -4.456141,1.20348 -6.523836,3.50322 -1.275647,1.41885 -2.320252,3.09536 -3.115107,4.90885 -0.121995,0.27838 -0.239502,0.5592 -0.34931,0.84386 -0.232917,0.57829 -0.452855,1.16821 -0.639558,1.78191 -0.135817,0.44652 -0.243521,0.99035 -0.337499,1.56938 -0.485166,2.38037 -0.565269,4.84471 -0.168748,7.19551 0.762441,4.52023 3.682056,8.85423 7.160019,10.62773 0.218991,0.1117 0.383649,0.1807 0.57881,0.2718 0.06479,0.035 0.153262,0.09 0.205873,0.1148 0.464257,0.2592 0.848842,0.4657 0.896056,0.4657 0.0085,2e-4 -0.08151,-0.099 -0.0945,-0.1215 0.0059,-5e-4 0.02966,0.011 0.03206,0.011 0.0045,-0.011 -0.02488,-0.043 -0.03206,-0.059 0.02454,0 0.06909,0.018 0.07594,0.012 0.05123,-0.049 -0.379678,-0.5077 -0.946682,-1.0395 -0.184688,-0.2014 -0.330601,-0.3713 -0.550123,-0.599 -0.226576,-0.2351 -0.430252,-0.4682 -0.627745,-0.7038 -0.986722,-1.3216 -1.774799,-3.1153 -2.203863,-4.9644 -0.118385,-0.7972 -0.178394,-1.6698 -0.185622,-2.6529 -0.01003,-1.36023 0.09573,-2.60413 0.330747,-3.79683 1.270008,-4.84256 4.819346,-9.9523 9.011196,-12.53971 0.448629,-0.27691 0.845045,-0.55736 1.167743,-0.80662 0.414576,-0.29739 0.69862,-0.55291 0.69862,-0.66318 0,-0.007 -0.0048,-0.0175 -0.0051,-0.0253 1.3e-4,-0.002 0.0051,-0.006 0.0051,-0.008 -0.0028,-0.81068 -1.275056,-2.33893 -2.384422,-2.86536 -0.624919,-0.29654 -1.297254,-0.44623 -1.997989,-0.45563 z m 89.435263,0.89605 c -0.0837,6.1e-4 -0.16292,0.0132 -0.24468,0.0203 -0.27436,-0.003 -0.51537,0.012 -0.69525,0.14682 -0.26411,0.1051 -0.47285,0.25975 -0.58218,0.46405 -0.0371,0.0695 -0.0718,0.37776 -0.10296,0.7965 -0.13612,1.09171 -0.18978,3.67204 -0.21093,8.96904 -0.0434,4.75743 -0.0458,10.3717 0,15.3258 0.006,1.7465 0.0209,3.1498 0.0354,4.4212 0.0148,2.9652 0.0538,4.8911 0.15019,5.719 0.0455,0.5953 0.10169,0.9155 0.16706,1.0411 0.005,0.011 0.007,0.06 0.0118,0.066 0.003,0 0.0106,0.011 0.0135,0.011 6.2e-4,7e-4 8.6e-4,0.011 0.002,0.011 0.0443,0.044 0.12271,0.08 0.2025,0.1165 0.0232,0.011 0.0353,0.025 0.0607,0.035 0.002,6e-4 0.005,0 0.006,0 0.16089,0.063 0.37079,0.1066 0.59569,0.1399 0.43467,0.1013 0.93642,0.1137 1.36855,0.035 0.002,-7e-4 0.006,5e-4 0.008,0 0.0115,0 0.0207,0 0.032,-0.011 0.0192,0 0.0401,0 0.0591,-0.011 0.16008,-0.019 0.30782,-0.045 0.44042,-0.078 l 0.46913,-0.03 0.006,-0.194 c 0.0148,-0.015 0.0453,-0.026 0.0557,-0.043 0.14075,-0.2176 0.32812,-3.2185 0.41512,-6.669 l 0.15525,-6.1797 c 0.19233,0.2183 0.59227,0.7177 1.1998,1.4952 l 3.8306,5.0794 5.02872,6.6689 h 1.62337 c 0.002,-10e-5 0.006,0 0.008,0 0.0678,-2e-4 0.12169,0 0.19574,0 0.29668,0 0.55373,-0.024 0.78807,-0.061 0.006,0 0.015,0 0.022,0 0.0135,0 0.0291,0 0.0422,-0.011 0.0147,0 0.0328,0 0.0473,-0.011 0.006,0 0.014,-7e-4 0.0203,0 0.0207,0 0.0372,-0.011 0.0574,-0.014 0.002,-2e-4 0.003,0 0.005,0 0.12424,-0.024 0.24411,-0.049 0.34762,-0.083 0.004,0 0.006,0 0.008,0 0.002,-3e-4 0.002,0 0.003,0 0.11739,-0.038 0.22228,-0.085 0.31386,-0.1382 0.002,0 0.003,0 0.006,0 0.36914,-0.2171 0.53323,-0.5518 0.53323,-1.0328 0,0 -0.006,-0.012 -0.006,-0.015 1.7e-4,-0.014 0.003,-0.026 0.003,-0.038 0,-4e-4 -0.002,0 -0.002,0 3.3e-4,-0.014 0.005,-0.026 0.005,-0.04 0,0 -0.006,-0.011 -0.006,-0.012 8.6e-4,-0.028 0.006,-0.051 0.006,-0.08 0,-0.052 -0.25915,-0.4339 -0.62941,-0.9532 -0.86756,-1.3147 -2.57359,-3.6388 -4.58491,-6.2051 l -4.82792,-6.1595 c -0.14985,-0.2076 -0.17834,-0.2599 -0.24131,-0.3576 0.005,-0.1088 0.0391,-0.2348 0.12488,-0.3916 l 0.57037,-0.5771 3.88123,-3.88623 c 2.25212,-2.25564 3.48274,-3.55071 4.12928,-4.38913 0.3958,-0.44843 0.68987,-0.79924 0.72057,-0.88919 0.30267,-0.8876 -0.64546,-1.85628 -1.81744,-1.85628 -0.058,0 -0.11381,0.0117 -0.17044,0.017 -0.0861,-0.0106 -0.16942,-0.0181 -0.25987,-0.0181 -0.0415,-4.3e-4 -0.14326,0.0619 -0.27506,0.15705 -0.79676,0.36832 -2.02095,1.56468 -5.57209,5.22273 -2.86243,2.94852 -5.24695,5.35415 -5.32233,5.36955 -0.005,0 -0.007,-0.038 -0.0118,-0.046 -0.058,-0.1544 -0.0677,-4.47443 -0.0203,-9.79584 0.0793,-8.86667 0.0356,-9.9108 -0.4438,-10.44042 -0.0389,-0.0429 -0.0943,-0.0747 -0.14007,-0.11306 -0.0139,-0.0298 -0.0272,-0.0811 -0.0422,-0.0961 -0.0629,-0.063 -0.1452,-0.11551 -0.23793,-0.162 -0.21342,-0.10719 -0.49358,-0.17113 -0.79819,-0.19406 -0.17509,-0.0275 -0.35312,-0.0435 -0.52987,-0.0422 z m -50.871057,0.008 c -0.06017,8.6e-4 -0.121507,0.0135 -0.182249,0.0186 -0.564032,8.2e-4 -1.095433,0.11499 -1.35168,0.37124 -0.0098,0.01 -0.01766,0.0662 -0.027,0.086 -0.02701,0.0199 -0.0668,0.0369 -0.08943,0.0574 -0.547214,0.49523 -0.578809,1.47377 -0.578809,18.05444 0,11.47883 0.112931,17.74003 0.327372,18.14053 0.05264,0.098 0.119044,0.1737 0.190687,0.2448 0.003,0.014 0.0054,0.1523 0.0084,0.1553 0.06758,0.067 0.385698,0.1216 0.782995,0.1602 0.241392,0.032 0.521614,0.052 0.897743,0.052 0.0022,0 0.0045,0 0.0067,0 0.01124,-10e-5 0.02087,0 0.03206,0 0.0038,0 0.0064,0 0.01014,0 0.53398,0 0.896497,-0.033 1.172807,-0.1079 0.0014,-4e-4 0.002,0 0.0034,0 0.05208,-0.014 0.104904,-0.03 0.150187,-0.048 0.202384,-0.06 0.367268,-0.1363 0.431998,-0.2362 0.0057,-0.011 0.01278,-0.1095 0.01855,-0.13 0.0208,-0.031 0.04872,-0.052 0.0675,-0.087 0.200688,-0.3751 0.331363,-3.7752 0.337498,-8.7801 v -0.14 l 0.148499,-7.8503 7.593705,8.6821 7.592016,8.6806 h 0.156933 l 0.01687,0.02 h 0.01852 0.0018 1.658752 c 0.02081,0 0.03694,0 0.05738,0 h 0.10296 c 0.430008,0 0.755488,-0.011 1.01925,-0.028 0.236068,-0.017 0.418943,-0.047 0.57374,-0.088 0.0046,0 0.01118,-5e-4 0.01522,0 5.68e-4,-10e-5 8.71e-4,3e-4 0.0018,0 0.07847,-0.021 0.148839,-0.047 0.210934,-0.076 0.0018,0 0.0073,0 0.01063,0 0.03951,-0.019 0.07242,-0.044 0.106269,-0.066 0.02108,-0.014 0.04657,-0.026 0.06582,-0.04 8.62e-4,0 0.0018,0 0.0028,0 0.09645,-0.079 0.168951,-0.1763 0.234557,-0.2971 0.0018,0 0.0028,0 0.0055,-0.011 2.38e-4,-4e-4 -2.3e-4,0 0,0 0.0018,0 0.0028,-0.011 0.0055,-0.012 0.177374,-0.3346 0.322317,-0.7502 0.322317,-0.9299 0,-0.1816 -3.481568,-4.1959 -7.737141,-8.9216 l -7.673021,-8.52183 c 0.02567,-0.079 0.277575,-0.3987 0.648,-0.8438 l 2.67636,-2.90254 c 0.01531,-0.016 0.04519,-0.049 0.06077,-0.0662 1.880548,-2.02934 5.171991,-5.57855 7.367579,-7.94473 0.07837,-0.0842 0.111494,-0.12558 0.187311,-0.20752 0.509996,-0.54639 1.571861,-1.70008 1.844432,-1.9879 0.845101,-0.89235 1.392781,-1.6358 1.707738,-2.25955 0.190749,-0.2538 0.280317,-0.4123 0.281811,-0.50118 7.3e-5,-8.6e-4 0.0028,-0.006 0.0028,-0.006 0,-0.005 -0.0018,-0.007 -0.0018,-0.0118 0,-0.003 0.0018,-0.007 0.0018,-0.0118 0,-0.0106 -0.0046,-0.0202 -0.0055,-0.0304 -1.29e-4,-0.002 -0.0018,-0.006 -0.0018,-0.008 2.85e-4,-0.002 0.0073,-0.01 0.0073,-0.0118 0,-0.0309 -0.0096,-0.0591 -0.01183,-0.0894 0.123731,-0.57456 -0.07993,-0.9786 -0.605806,-1.21162 -0.0096,-0.005 -0.01861,-0.007 -0.02869,-0.0118 -0.193288,-0.0817 -0.441576,-0.13386 -0.718885,-0.17045 -0.08644,-0.0125 -0.169602,-0.0238 -0.259875,-0.032 -0.194544,-0.0319 -0.393827,-0.0428 -0.597363,-0.0253 -0.139627,-0.003 -0.269115,-0.003 -0.383056,0.002 h -0.779624 -0.04895 l -7.9312,8.86444 -7.507645,8.38845 c -0.123508,0.123 -0.202129,0.1952 -0.268309,0.2531 l -0.08269,-8.10327 c -0.06398,-6.25668 -0.134965,-7.95079 -0.453935,-8.60622 -0.02805,-0.0753 -0.06047,-0.13413 -0.09281,-0.19575 l -0.0017,-0.12657 -0.07255,-0.005 c -0.283083,-0.41599 -0.731122,-0.45956 -1.383741,-0.46407 -0.08907,-0.006 -0.176963,-0.0169 -0.268311,-0.0152 z m 27.335647,0.008 c -0.005,0 -0.0106,0.003 -0.0152,0.003 -5.8e-4,0 -8.7e-4,0 -0.002,0 -0.006,-4e-5 -0.011,-0.002 -0.0169,-0.002 -0.0905,0 -0.17706,0.008 -0.26323,0.0169 -0.56849,0.0465 -1.00318,0.22405 -1.323,0.53663 -0.0477,0.0467 -0.0992,0.0889 -0.14176,0.14174 -0.23595,0.24651 -0.40733,0.54033 -0.49781,0.8623 -0.0584,0.10978 -0.0978,0.21431 -0.0978,0.30377 0,0.082 0.0106,0.16871 0.0236,0.25649 1.9e-4,0.0638 0.006,0.12797 0.0118,0.19237 0.002,0.18062 0.037,0.35205 0.11307,0.51975 0.10727,0.2999 0.28279,0.59538 0.5383,0.86738 0.3574,0.38041 0.77891,0.59754 1.20656,0.67836 0.0286,0.005 0.0587,0.006 0.0877,0.01 0.15778,0.0229 0.31492,0.03 0.47081,0.0169 0.003,2.2e-4 0.0106,0.003 0.0135,0.003 0.005,2.5e-4 0.0116,-0.003 0.0169,-0.003 4.9e-4,1e-5 8.6e-4,0 0.002,0 0.12531,-0.0125 0.2473,-0.0399 0.36785,-0.0743 0.87844,-0.19194 1.57613,-0.98176 1.57613,-2.16843 0,-0.0159 -0.003,-0.0298 -0.003,-0.0456 1.4e-4,-0.01 0.003,-0.0188 0.003,-0.0287 0,-0.002 -0.002,-0.006 -0.002,-0.008 3e-5,-0.002 0.002,-0.006 0.002,-0.008 0,-0.0547 -0.0147,-0.10907 -0.0202,-0.1637 -6.4e-4,-0.006 -8.6e-4,-0.0124 -0.002,-0.0186 -0.006,-0.0653 -0.006,-0.1349 -0.0151,-0.19743 -0.0714,-0.45172 -0.24919,-0.82385 -0.51806,-1.10362 -0.0465,-0.0484 -0.10158,-0.0872 -0.15356,-0.12994 -0.0512,-0.043 -0.0991,-0.0894 -0.15525,-0.12655 -0.32087,-0.21243 -0.71974,-0.32906 -1.18125,-0.32906 -0.002,0 -0.005,0 -0.006,0 -0.006,-8e-5 -0.0124,-0.002 -0.0186,-0.002 z m 45.22979,0.003 c -0.17984,-0.007 -0.39097,0.002 -0.62437,0.003 -0.0208,8e-5 -0.0344,10e-5 -0.0557,0 -2.05909,-0.01 -2.02896,-0.27472 -1.92204,16.96928 0.0698,11.25883 0.12498,14.43533 0.40836,15.85583 l 0.003,0.5923 0.48769,0.7357 c 0.97586,1.9077 2.232,2.8504 4.25753,3.1944 0.47018,0.079 0.81783,0.1369 1.10361,0.1738 0.72187,0.1922 1.29623,-0.02 1.61663,-0.5535 0.74779,-0.7786 0.7218,-1.6916 0.0776,-2.3979 -0.20436,-0.4662 -0.5619,-0.7064 -1.07156,-0.7205 -0.10179,-0.043 -0.19268,-0.093 -0.30376,-0.13 -0.57596,-0.1914 -1.34512,-0.751 -1.70941,-1.2421 -0.64432,-0.8683 -0.66679,-1.3009 -0.82012,-16.31123 -10e-6,-0.03 0,-0.04 0,-0.07 -1.8e-4,-0.018 1.8e-4,-0.022 0,-0.04 0,-0.13569 0,-0.19064 0,-0.3239 -8.7e-4,-8.32873 -0.0119,-11.95486 -0.15018,-13.54717 -4.8e-4,-0.006 -8.7e-4,-0.008 -0.002,-0.0152 -1.7e-4,-0.002 1.6e-4,-0.005 0,-0.006 -2.6e-4,-0.003 -0.002,-0.005 -0.002,-0.008 -0.0106,-0.11496 -0.0221,-0.21288 -0.0338,-0.30882 -0.0676,-0.67364 -0.15994,-1.00439 -0.28519,-1.18293 l -0.002,-0.19237 -0.189,-0.0152 c -8.6e-4,-8.7e-4 -0.002,-0.002 -0.003,-0.003 -0.13403,-0.24921 -0.29879,-0.37267 -0.50793,-0.42018 -0.0827,-0.0188 -0.17515,-0.0301 -0.27168,-0.0338 -6e-4,-3e-5 -8.6e-4,2e-5 -0.002,0 z m -98.205157,3.03175 c -2.872477,0.005 -4.725737,0.28241 -6.967646,1.15425 -1.211975,0.41347 -2.363753,0.96374 -3.474542,1.65551 -0.203237,0.1195 -0.397092,0.25404 -0.595684,0.38133 -2.06559,1.3243 -3.868378,3.05671 -5.248094,5.0439 -0.365754,0.48216 -0.687022,0.93689 -0.865682,1.26733 -0.210264,0.38891 -0.400472,0.79178 -0.575433,1.2032 -0.806251,1.64374 -1.027675,2.30061 -1.074932,3.92671 -0.215416,1.5265 -0.221127,3.07903 0.02362,4.55983 0.02927,0.177 0.05832,0.2477 0.08774,0.3829 0.02926,0.2736 0.06018,0.4818 0.0945,0.5654 0.0072,0.017 0.01464,0.021 0.02194,0.038 l 0.0051,0.044 0.0051,-0.026 c 0.304275,0.6804 0.637083,0.617 0.440434,-0.1349 -0.03663,-0.14 -0.05449,-0.3128 -0.05738,-0.508 0.03175,-0.2402 0.06406,-0.4779 0.08437,-0.8386 0.0056,-0.098 0.02062,-0.1983 0.03038,-0.2971 0.196651,-1.1338 0.637702,-2.51643 1.18293,-3.60283 0.02229,-0.041 0.04297,-0.082 0.06581,-0.1232 0.05198,-0.099 0.106877,-0.1882 0.160311,-0.2817 0.115201,-0.1944 0.234196,-0.3878 0.361124,-0.5788 0.02003,-0.03 0.04212,-0.06 0.06243,-0.09 0.270662,-0.4004 0.564816,-0.79286 0.882557,-1.1728 0.02319,-0.0278 0.04407,-0.0566 0.0675,-0.0842 0.136479,-0.16079 0.281089,-0.31667 0.425248,-0.47256 0.07334,-0.0789 0.146091,-0.15876 0.221062,-0.23633 0.136999,-0.14191 0.277163,-0.28135 0.420184,-0.41845 0.112101,-0.10692 0.227176,-0.21063 0.34256,-0.31391 0.104006,-0.0939 0.207165,-0.18916 0.313874,-0.28007 0.252929,-0.21371 0.510415,-0.42241 0.777932,-0.61936 0.282364,-0.20784 0.574224,-0.40502 0.872433,-0.59397 0.02696,-0.0171 0.05394,-0.0341 0.08101,-0.0501 0.232893,-0.14553 0.473278,-0.28114 0.715495,-0.41515 0.143756,-0.0779 0.287616,-0.15759 0.433686,-0.22951 0.02721,-0.0138 0.05538,-0.0267 0.08269,-0.0405 0.360938,-0.17552 0.710853,-0.33812 1.054682,-0.48771 0.09233,-0.0384 0.185006,-0.0768 0.278436,-0.11469 0.142894,-0.0598 0.284126,-0.1148 0.425246,-0.1705 2.477629,-0.91438 5.320787,-1.32718 8.456012,-1.19979 3.154174,0.12825 4.32066,0.39168 7.423268,1.67064 0.150062,0.0619 0.275635,0.0726 0.391497,0.0288 l 0.104625,0.0352 0.126562,-0.23623 c 0.135102,-0.16389 0.271476,-0.408 0.438748,-0.80832 1.089244,-2.60699 -0.23781,-5.29011 -3.322668,-6.71796 -1.519648,-0.70329 -2.204193,-0.82369 -4.77897,-0.81505 z m -27.398087,6.14761 c -0.331835,-8.5e-4 -0.651301,0.0373 -0.960181,0.10797 -0.153877,0.0256 -0.303211,0.0566 -0.448872,0.096 -0.457637,0.0544 -0.756248,0.18267 -1.081681,0.46413 -1.097633,0.67654 -1.86469,1.91528 -2.320299,3.68717 -0.01131,0.0416 -0.02139,0.0832 -0.03206,0.12483 -0.0321,0.13102 -0.07423,0.24614 -0.10294,0.38304 -0.02208,0.10562 -0.02985,0.22448 -0.04725,0.33417 -0.01072,0.0662 -0.01777,0.13272 -0.02701,0.19909 -0.02527,0.19343 -0.04912,0.3873 -0.06075,0.59236 -0.04653,0.65075 -0.03081,1.32466 0.06243,2.01486 0.02428,0.1796 0.06724,0.3827 0.104625,0.5788 0.286331,1.7584 0.902125,3.68963 1.825865,5.58233 0.300738,0.616 0.65867,1.2271 1.058055,1.8275 0.05583,0.09 0.11155,0.193 0.167061,0.2767 0.368143,0.5546 0.813602,1.1059 1.290931,1.6504 0.0089,0.011 0.01988,0.026 0.02869,0.038 0.05896,0.072 0.137187,0.1424 0.199125,0.2144 0.0898,0.1013 0.18307,0.1992 0.27506,0.2987 0.231481,0.2521 0.466144,0.5024 0.728995,0.7509 2.144838,2.1105 4.745142,3.8262 7.274768,4.6929 0.509263,0.1816 1.004478,0.324 1.476553,0.4168 0.162211,0.032 0.322666,0.051 0.48431,0.078 0.05379,0.011 0.106077,0.019 0.160313,0.027 0.03412,0.011 0.06708,0.02 0.101254,0.027 0.584838,0.1248 1.279103,0.1801 2.019924,0.1789 0.0071,2e-4 0.02864,0.011 0.03545,0.011 0.136078,0 0.303515,0 0.469123,-0.012 0.870636,-0.011 1.726059,-0.098 2.566672,-0.258 1.337027,-0.2207 2.580295,-0.5928 3.552165,-1.1087 0.106482,-0.057 0.147635,-0.087 0.217687,-0.13 l 0.485997,-0.2076 h -0.318937 c -0.104017,-0.041 -0.489436,-0.034 -1.091807,0 h -1.522107 c -0.6867,0 -1.223646,0 -1.677366,-0.028 -0.0056,-2e-4 -0.0097,0 -0.01519,0 -1.054922,-0.1418 -2.079383,-0.4352 -3.120168,-0.901 -0.134514,-0.064 -0.240972,-0.1073 -0.391498,-0.1805 -0.167257,-0.081 -0.335749,-0.1699 -0.504559,-0.2599 -0.191708,-0.1014 -0.381441,-0.2068 -0.568685,-0.3174 -0.06606,-0.038 -0.132725,-0.08 -0.199123,-0.1198 -0.10311,-0.063 -0.206881,-0.1258 -0.308811,-0.1922 -0.172877,-0.1118 -0.340974,-0.2319 -0.509622,-0.3512 -0.396904,-0.2832 -0.785429,-0.5858 -1.160993,-0.9129 -0.264802,-0.2347 -0.528424,-0.4716 -0.784683,-0.734 -0.03158,-0.031 -0.06311,-0.063 -0.0945,-0.095 -2.231008,-2.3219 -4.095052,-5.6258 -5.005094,-9.04503 -0.478004,-1.796 -0.618578,-5.00774 -0.38306,-8.42401 0.01909,-0.1401 0.02687,-0.2597 0.03038,-0.3729 l 0.109688,-0.66995 -0.273375,-0.0501 c -0.05579,-0.0405 -0.132572,-0.0726 -0.22781,-0.0982 -0.291881,-0.13572 -0.763162,-0.1721 -1.486679,-0.17551 z m 98.007724,0.972 c -0.19167,-0.017 -0.43394,0 -0.74249,0.0341 -0.21962,0 -0.45573,0.0224 -0.71044,0.0522 -2.48008,0.29149 -4.76352,1.38095 -6.55422,3.01051 -0.0356,0.032 -0.073,0.0619 -0.10799,0.0939 -0.30969,0.28872 -0.60015,0.596 -0.87749,0.91641 -0.0115,0.0128 -0.0224,0.0267 -0.0338,0.0405 -0.85353,0.99472 -1.54578,2.1313 -2.02498,3.3751 -0.002,0.011 -0.005,0.012 -0.006,0.018 -0.0861,0.2016 -0.15888,0.4036 -0.22106,0.6193 -0.005,0.016 -0.0106,0.03 -0.0152,0.046 -0.0957,0.3055 -0.18364,0.8893 -0.26663,1.61003 -0.38061,2.1904 -0.51162,5.2466 -0.51637,10.3004 -10e-5,0.096 0.002,0.1415 0.002,0.2345 -0.02,1.9414 0.005,3.6307 0.0827,4.7672 7.9e-4,0.012 8.6e-4,0.03 0.002,0.04 0.0469,0.661 0.10864,1.1703 0.19575,1.333 0.2461,0.4599 0.57677,0.6268 1.31794,0.6683 0.28725,0.038 0.59185,0.039 0.89098,0 0.19184,-0.011 0.37184,-0.02 0.51637,-0.061 0.18116,-0.034 0.34778,-0.079 0.47081,-0.1417 0,0 0.002,0 0.002,0 0.0469,-0.023 0.0731,-0.054 0.11137,-0.082 0.0471,-0.027 0.10863,-0.051 0.13668,-0.079 0.22129,-0.2215 0.32847,-1.7382 0.36281,-4.9595 0.0298,-1.0449 0.0541,-2.2133 0.0709,-3.5218 0.0456,-3.5451 0.0847,-5.469 0.17719,-6.7551 0.0291,-0.3419 0.0577,-0.7028 0.0894,-0.8708 0.66223,-3.50803 3.18783,-6.0334 6.5677,-6.56772 0.67927,-0.10734 1.18476,-0.23548 1.57106,-0.4016 l 0.55519,-0.10969 0.0152,-0.24978 c 0.32769,-0.31154 0.46068,-0.7269 0.46068,-1.32461 0,-0.65084 -0.15557,-1.12553 -0.46575,-1.45469 l -0.01,-0.13838 -0.15526,-0.0106 c -0.0163,-0.0128 -0.0286,-0.0288 -0.0456,-0.0405 -0.008,-0.0106 -0.021,-0.0192 -0.0304,-0.0288 -8.7e-4,-6.3e-4 -0.002,-8.5e-4 -0.003,0 -0.0684,-0.0704 -0.15687,-0.12995 -0.26662,-0.17722 -0.15855,-0.0982 -0.32321,-0.16804 -0.54338,-0.18736 z m 100.18965,0.0619 c -0.6041,0 -1.22118,0.0405 -1.84444,0.13668 -1.10284,0.17071 -2.07736,0.43232 -2.93622,0.77962 -0.1716,0.064 -0.33354,0.13944 -0.49275,0.21606 -0.11773,0.0555 -0.23836,0.10947 -0.35101,0.16868 -0.0152,0.0106 -0.0304,0.0181 -0.0455,0.0267 -2.04595,1.09352 -3.24232,2.8175 -3.61798,5.19918 -0.0956,0.508 -0.1339,1.0206 -0.11644,1.5339 -0.006,2.23823 0.81421,3.93973 2.43843,5.04403 0.20153,0.1434 0.41428,0.2748 0.63955,0.3897 0.006,0 0.0221,0.011 0.0287,0.012 0.0138,0.011 0.0249,0.016 0.0389,0.024 0.22416,0.1144 0.66086,0.2841 1.16944,0.4709 0.0892,0.034 0.18864,0.07 0.28517,0.1024 1.0171,0.3636 2.33627,0.7927 3.63318,1.1661 2.11669,0.6092 4.30398,1.39 4.86165,1.7347 0.12723,0.079 0.24368,0.163 0.35605,0.2497 0.0324,0.026 0.0638,0.05 0.0945,0.076 0.0957,0.079 0.18921,0.1587 0.27338,0.2429 0.24654,0.2548 0.43754,0.5298 0.58723,0.8438 0.32426,0.6799 0.37014,1.4617 0.19406,2.1987 -0.002,0.011 -0.002,0.011 -0.003,0.017 -0.25119,0.7936 -0.82993,1.5518 -1.73136,2.1364 -1.13945,0.7388 -1.67158,0.8674 -3.56904,0.8674 -1.66941,0 -2.93684,-0.3249 -3.9116,-1.021 -0.0192,-0.013 -0.0366,-0.028 -0.0557,-0.043 -0.5703,-0.4208 -1.04141,-0.9704 -1.4293,-1.6655 -0.19534,-0.35 -0.35706,-0.6005 -0.5248,-0.7881 -0.30001,-0.4744 -0.58727,-0.5681 -1.19813,-0.5467 -0.12651,-0.03 -0.25169,-0.051 -0.37292,-0.051 -0.15859,0 -0.30698,0.02 -0.4472,0.057 -0.76579,0.052 -1.19702,0.3525 -1.30948,0.935 -0.0897,0.3595 -0.0301,0.8395 0.1603,1.4748 0.01,0.032 0.0267,0.065 0.0371,0.096 0.0446,0.1379 0.10414,0.2717 0.16032,0.4067 0.0304,0.069 0.0552,0.136 0.0894,0.2042 0.79209,1.7067 2.48865,3.1622 4.73677,3.964 1.01162,0.3609 2.74639,0.4964 4.46174,0.4336 0.30912,-0.011 0.61143,-0.025 0.91292,-0.047 0.34986,-0.027 0.68796,-0.065 1.01756,-0.1129 0.12163,-0.016 0.235,-0.038 0.35268,-0.056 0.11942,-0.02 0.24274,-0.036 0.35775,-0.061 0.0248,-0.011 0.0446,-0.013 0.0692,-0.019 0.4766,-0.093 0.92358,-0.1988 1.28082,-0.3324 1.01535,-0.3798 1.95184,-1.0084 2.74385,-1.7736 0.11883,-0.1097 0.23202,-0.225 0.34257,-0.3426 0.0394,-0.043 0.0831,-0.081 0.12149,-0.1248 0.16725,-0.1868 0.32212,-0.3854 0.46913,-0.5905 0.0941,-0.1276 0.17931,-0.2582 0.26493,-0.3899 0.46988,-0.7229 0.82157,-1.4987 0.9855,-2.2883 0.39231,-1.8897 0.22013,-3.481 -0.50626,-4.8447 -0.006,-0.015 -0.01,-0.034 -0.0152,-0.049 -0.0908,-0.2188 -0.19356,-0.4086 -0.30712,-0.562 -0.32844,-0.4433 -0.64666,-0.8067 -1.04794,-1.1374 -0.0511,-0.047 -0.0921,-0.098 -0.14512,-0.1451 -1.06361,-0.9339 -1.89908,-1.2454 -8.63151,-3.2163 -0.26428,-0.077 -0.496,-0.159 -0.73068,-0.2413 -0.18232,-0.066 -0.36474,-0.135 -0.5265,-0.1992 -2.00024,-0.8168 -2.74812,-1.89493 -2.55487,-3.60953 0.0926,-0.8221 0.37911,-1.50536 0.82519,-2.05697 0.0896,-0.0875 0.1486,-0.15748 0.25482,-0.2565 0.22505,-0.20997 0.45977,-0.39082 0.69861,-0.55695 0.0925,-0.0555 0.18076,-0.11554 0.28013,-0.16537 0.20298,-0.10243 0.42898,-0.18288 0.65643,-0.26151 0.0847,-0.0278 0.15969,-0.0651 0.24806,-0.0897 0.0437,-0.0128 0.0939,-0.0181 0.13838,-0.031 0.55601,-0.14063 1.17494,-0.2214 1.86805,-0.22791 0.55412,0 1.04511,0.0373 1.49174,0.12495 0.0288,0.0106 0.061,0.0106 0.0894,0.0138 0.0761,0.016 0.14279,0.0427 0.21601,0.063 0.16941,0.0459 0.33921,0.0918 0.49611,0.15354 8.8e-4,4.3e-4 0.002,8.6e-4 0.003,0 0.01,0 0.0188,0.0106 0.0287,0.0138 0.18684,0.0757 0.36364,0.16324 0.53325,0.26161 0.7176,0.43105 1.27961,1.09736 1.76848,2.05711 0.18107,0.3554 0.37034,0.6458 0.567,0.8943 0.12332,0.1948 0.25281,0.3377 0.40162,0.4405 0.59579,0.5259 1.33095,0.6095 2.18361,0.221 0.005,0 0.008,-0.011 0.0135,-0.011 0.01,0 0.0176,-0.011 0.0269,-0.011 0.16411,-0.075 0.28453,-0.1433 0.38643,-0.216 0.0122,-0.011 0.0342,-0.016 0.0456,-0.026 0.0521,-0.041 0.0954,-0.082 0.13163,-0.1299 7.4e-4,0 8.6e-4,0 0.002,0 0.0357,-0.048 0.0643,-0.099 0.086,-0.1587 5.6e-4,0 8.6e-4,0 0.002,-0.011 0.0208,-0.058 0.0363,-0.1253 0.0456,-0.1991 1.9e-4,0 -1.9e-4,0 0,-0.011 0.005,-0.033 0.005,-0.077 0.006,-0.1147 8.7e-4,-0.017 8.7e-4,-0.035 0.002,-0.053 2.6e-4,0 -2.6e-4,0 0,0 0.14992,-0.6139 -0.0133,-1.41456 -0.41851,-2.24103 -0.0157,-0.0363 -0.0374,-0.0715 -0.054,-0.10797 -0.008,-0.0171 -0.0164,-0.0341 -0.0253,-0.0512 -0.48718,-1.07314 -1.32899,-1.99232 -2.4131,-2.69822 -0.22761,-0.15694 -0.46166,-0.30695 -0.70707,-0.43541 -0.0649,-0.0341 -0.15527,-0.0587 -0.22612,-0.0907 -0.31519,-0.15247 -0.6406,-0.29416 -0.98212,-0.41345 -0.002,-8.5e-4 -0.005,0 -0.006,0 -0.01,0 -0.0206,0 -0.0304,-0.0106 -0.19475,-0.0757 -0.38824,-0.13155 -0.58725,-0.17722 -0.87485,-0.2422 -1.81225,-0.3825 -2.78774,-0.38975 z m -53.71956,0.15524 c -0.94297,0 -1.87706,0.1067 -2.78942,0.29362 -1.13654,0.0982 -1.73805,0.34335 -3.01892,0.95013 -0.20518,0.0971 -0.4043,0.21296 -0.60581,0.32221 -0.039,0.0203 -0.0776,0.0405 -0.11643,0.0608 -0.13927,0.0768 -0.27964,0.15002 -0.41681,0.23281 -1.76357,1.00219 -3.30966,2.37781 -4.47523,4.07191 -0.567,0.8241 -1.02041,1.7478 -1.37193,2.7253 -0.35474,0.81483 -0.54783,1.44143 -0.6193,2.35073 -0.0668,0.3859 -0.1192,0.7746 -0.15526,1.166 -0.0213,0.2307 -0.0351,0.4622 -0.0456,0.6936 -0.002,0.046 -0.005,0.092 -0.006,0.1384 -0.037,1.0254 0.0312,2.0509 0.20924,3.0459 0.0933,1.1506 0.32822,1.7572 0.92306,3.0003 0.006,0.013 0.0138,0.025 0.0202,0.038 2.2e-4,5e-4 -2.2e-4,0 0,0 0.008,0.018 0.0186,0.034 0.0271,0.052 0.20257,0.4181 0.4113,0.8174 0.62942,1.1947 0.004,0.011 0.007,0.012 0.0118,0.018 0.70479,1.2151 1.50635,2.2257 2.46036,3.0982 1.33575,1.2679 2.9082,2.2579 4.67098,2.9111 0.41736,0.1545 0.81921,0.2586 1.23862,0.3425 0.55371,0.1348 1.14919,0.194 2.00809,0.2025 0.98705,0.053 2.04209,0.027 3.05437,-0.079 0.16417,-0.011 0.39204,-0.013 0.53831,-0.024 0.24635,-0.017 0.46791,-0.038 0.675,-0.064 0.006,-8e-4 0.01,0 0.0152,0 0.2044,-0.026 0.3928,-0.057 0.57375,-0.095 8.7e-4,-4e-4 0.002,0 0.004,0 0.15948,-0.033 0.31203,-0.073 0.46405,-0.1181 0.0221,-0.011 0.0455,-0.011 0.0675,-0.017 5e-4,-2e-4 8.6e-4,10e-5 0.002,0 0.0926,-0.029 0.18838,-0.065 0.28182,-0.098 0.0872,-0.031 0.17544,-0.059 0.26494,-0.095 0.27094,-0.1074 0.59939,-0.2661 0.92811,-0.4235 0.094,-0.045 0.16517,-0.072 0.26663,-0.1215 0.002,0 0.004,0 0.006,0 0.0327,-0.015 0.0525,-0.022 0.0861,-0.038 2.47561,-1.2188 5.24134,-3.6993 5.24134,-4.6995 0,0 0,-0.011 0,-0.011 0,0 0,0 0,0 0,-0.011 -0.005,-0.021 -0.005,-0.03 -7e-5,0 9e-5,0 0,-0.011 6.4e-4,-0.011 0.005,-0.022 0.005,-0.032 0,-0.1175 -0.0178,-0.2306 -0.0473,-0.3409 -0.0336,-0.2521 -0.18229,-0.4809 -0.44889,-0.7474 -0.39522,-0.3954 -0.87662,-0.5512 -1.42422,-0.4963 -0.0106,0 -0.02,0 -0.0304,0 -0.01,0 -0.0204,0.011 -0.0304,0.011 -0.003,0 -0.006,0 -0.01,0 -0.20551,0 -0.41748,0.052 -0.63618,0.1282 -0.10854,0.028 -0.22101,0.082 -0.33412,0.1401 -0.11721,0.06 -0.24304,0.1424 -0.36788,0.2245 -0.30271,0.1915 -0.62122,0.423 -0.98211,0.7408 -0.82429,0.7255 -1.5846,1.2767 -2.35405,1.6874 -0.0214,0.012 -0.0427,0.022 -0.0642,0.034 -0.24504,0.1283 -0.49109,0.2421 -0.7408,0.3425 -0.008,0 -0.0168,0.011 -0.0253,0.012 -0.002,0 -0.006,0 -0.008,0 -1.06312,0.4219 -2.19104,0.6022 -3.56736,0.6127 -0.27539,0 -0.50099,-0.011 -0.74081,-0.017 -0.002,-10e-5 -0.005,1e-4 -0.006,0 -1.44474,-0.098 -2.78403,-0.4802 -3.96898,-1.107 -1.36732,-0.8099 -2.58973,-1.9718 -3.44248,-3.2654 -0.0508,-0.074 -0.1004,-0.1483 -0.15019,-0.2243 -0.13831,-0.2237 -0.26699,-0.4506 -0.38137,-0.68 l -0.33918,-0.6785 -0.37632,-0.8437 c 0.0319,-0.045 0.0841,-0.083 0.13669,-0.1215 l 10.76619,-0.082 c 4.12708,-0.031 6.76217,-0.04 8.57752,-0.1418 0.60372,-0.021 1.23605,-0.044 1.58116,-0.083 l 1.13231,-0.011 0.0894,-0.1603 h 0.10627 l 0.0708,-0.1569 h 0.0743 l 0.008,-0.1789 0.0151,-0.032 c 0.0322,-0.021 0.0566,-0.048 0.0844,-0.071 0.0178,-0.016 0.0378,-0.033 0.054,-0.051 0.15279,-0.1502 0.23604,-0.3333 0.27338,-0.5569 0.0593,-0.2722 0.0639,-0.5959 0.0405,-0.9872 0.048,-0.6105 -0.002,-1.3116 -0.14513,-2.069 -0.0596,-0.4411 -0.14059,-0.8755 -0.243,-1.3044 -0.0349,-0.151 -0.0679,-0.3136 -0.11136,-0.4623 -0.71775,-2.59483 -2.20528,-4.91043 -4.19511,-6.66397 -0.0908,-0.0811 -0.17842,-0.16494 -0.27167,-0.24304 -0.19017,-0.15888 -0.38869,-0.30718 -0.58726,-0.45559 -0.0968,-0.0715 -0.19094,-0.14638 -0.29025,-0.21606 -0.26062,-0.18426 -0.52984,-0.35572 -0.80325,-0.52142 -0.0386,-0.0235 -0.0757,-0.048 -0.11474,-0.0704 -0.23289,-0.13785 -0.47076,-0.26599 -0.71212,-0.38975 -0.0556,-0.0288 -0.1111,-0.0566 -0.16707,-0.0842 -0.0395,-0.0203 -0.0749,-0.0427 -0.11475,-0.063 -0.0497,-0.0246 -0.0755,-0.0341 -0.12319,-0.0577 -0.12581,-0.0587 -0.25015,-0.12014 -0.37798,-0.1754 -0.90755,-0.43319 -1.52533,-0.67059 -2.38442,-0.76447 -0.32659,-0.0715 -0.65414,-0.13817 -0.98888,-0.18395 -0.64998,-0.0886 -1.30025,-0.13081 -1.94737,-0.12824 z m 28.94552,0.0171 c -6.24596,0.0246 -11.12003,3.99264 -12.8688,9.16138 -0.0483,0.1304 -0.0933,0.26683 -0.13162,0.39483 -0.006,0.017 -0.0115,0.035 -0.0169,0.052 -0.026,0.09 -0.0493,0.1846 -0.0709,0.2768 -3.9e-4,0 -8.6e-4,0 -0.002,0.011 -0.0181,0.066 -0.0335,0.1315 -0.0507,0.1974 -0.003,0.018 -0.01,0.035 -0.0135,0.053 -0.511,2.0058 -0.55952,4.1571 -0.0523,6.3095 0.0136,0.1046 0.0232,0.2163 0.0405,0.3139 3.7e-4,0 0.002,0.011 0.002,0.011 0.0328,0.1835 0.073,0.3566 0.12151,0.5281 8.6e-4,0 7.7e-4,0.011 0.002,0.011 0.0479,0.1682 0.10455,0.3347 0.17043,0.5079 0.13881,0.3693 0.31975,0.7683 0.55856,1.2723 0.859,1.8133 1.87575,3.2295 3.18766,4.4044 1.32723,1.2403 2.88971,2.2145 4.61528,2.8502 0.38534,0.142 0.7583,0.2421 1.14582,0.3241 0.46921,0.1222 0.9897,0.177 1.63687,0.1973 1.15901,0.1179 2.38717,0.1003 3.59772,-0.056 1.48451,-0.076 2.26675,-0.2626 3.34629,-0.7543 0.82082,-0.3131 1.58259,-0.7426 2.35067,-1.3079 1.88904,-1.2914 3.63655,-3.0259 3.63655,-3.7732 0,0 0,0 0,0 0,-6e-4 0,0 0,0 0,-0.011 -0.002,-0.011 -0.002,-0.016 -0.006,-0.5283 -0.29597,-0.973 -0.75262,-1.2605 -0.29827,-0.296 -0.73052,-0.4121 -1.242,-0.3426 -5.7e-4,0 -8.6e-4,10e-5 -0.002,0 -0.006,0 -0.01,0 -0.0152,0 -0.0148,0 -0.0291,0.011 -0.0438,0.011 -0.0733,0.011 -0.14575,0.012 -0.22106,0.027 -0.63927,0.074 -1.25171,0.4202 -2.14311,1.2268 -1.07571,0.9736 -2.03722,1.6305 -3.07123,2.0503 -0.01,0 -0.0177,0.011 -0.0269,0.014 -0.004,0 -0.007,0 -0.0118,0 -1.04135,0.416 -2.1589,0.592 -3.54205,0.6024 -0.38894,0 -0.72534,-0.011 -1.04626,-0.024 -0.97613,-0.079 -1.85988,-0.2715 -2.67805,-0.5889 -0.0802,-0.031 -0.15553,-0.072 -0.23454,-0.1066 -1.45405,-0.6947 -2.80351,-1.805 -3.79348,-3.0931 -0.19558,-0.2673 -0.38615,-0.5466 -0.57207,-0.8303 -0.13163,-0.2147 -0.25658,-0.4314 -0.36618,-0.6514 l -0.73912,-1.4833 c 0.01,-0.018 0.01,-0.04 0.022,-0.057 0.0271,-0.038 0.0782,-0.067 0.11981,-0.099 0.004,-4e-4 0.0181,0 0.022,0 l 10.74087,-0.081 c 5.10205,-0.038 8.07693,-0.029 9.81445,-0.2211 0.005,-7e-4 0.01,0 0.0152,0 l 1.50018,-0.011 0.15188,-0.3173 h 0.12656 l 0.0405,-0.1501 c 0.57922,-0.3979 0.5497,-1.0834 0.44888,-2.1448 -0.0201,-0.2516 -0.0388,-0.4863 -0.0591,-0.7864 -0.28585,-4.22163 -2.49221,-8.02104 -6.02939,-10.38317 -2.34751,-1.56756 -4.68349,-2.25724 -7.61566,-2.24604 z m -93.15282,0.0522 c -0.16218,0 -0.32741,0.0106 -0.48769,0.0309 -0.002,2.2e-4 -0.005,0 -0.006,0 -0.002,2.2e-4 -0.003,-2.1e-4 -0.005,0 -0.0204,0 -0.0389,0.0106 -0.0591,0.0106 -0.40412,0.0437 -0.75366,0.14511 -0.94836,0.30547 -0.0143,0.0106 -0.041,0.0203 -0.0523,0.032 0,0 0,0 0,0 0,0 0,0 0,0 -0.0339,0.0352 -0.0665,0.16207 -0.0962,0.37461 -2.6e-4,0 2.4e-4,0 0,0 -0.0117,0.0842 -0.021,0.23675 -0.032,0.3459 -3.3e-4,0 -0.002,0.0106 -0.002,0.0106 -0.005,0.0213 -0.01,0.0299 -0.0135,0.0522 -2.5e-4,0 2.4e-4,0 0,0 -0.10243,0.58384 -0.15388,1.92222 -0.18731,3.88798 -0.007,0.35604 -0.0165,0.79352 -0.022,1.20322 -0.005,0.4443 -0.008,0.948 -0.0118,1.4664 -7e-5,0.012 7e-5,0.032 0,0.044 -0.005,0.3417 -0.0145,0.6169 -0.0185,0.9703 -2e-5,0 1e-5,0 0,0 -0.017,1.50253 -0.0253,3.10163 -0.0253,4.69963 0,0 0,0 0,0 1e-5,1.598 0.008,3.1955 0.0253,4.698 0,0 0,0 0,0 0.003,0.3195 0.0125,0.5674 0.0169,0.8774 2e-4,0.014 -2e-4,0.026 0,0.038 2e-5,0 -3e-5,0 0,0.011 0.0115,2.089 0.0307,3.7384 0.0725,4.7554 0.0331,0.8679 0.0783,1.429 0.14006,1.8141 0.0148,0.1558 0.0311,0.2905 0.0473,0.3881 0.003,0.028 0.007,0.08 0.0106,0.1067 1.2e-4,7e-4 -1.1e-4,0 0,0 0.0297,0.2103 0.0624,0.3391 0.0961,0.3729 0,0 0,0 0,0 0,0 0,0 0,0 0.18084,0.1808 0.71817,0.3269 1.26562,0.3645 0.27739,0.031 0.55769,0.03 0.82518,0 0.0655,0 0.12953,-0.011 0.19239,-0.011 0.0296,0 0.0714,0 0.0995,-0.011 0.0226,0 0.0358,-0.011 0.0574,-0.012 0.4047,-0.044 0.73101,-0.1302 0.81842,-0.2717 0.007,-0.013 0.0143,-0.099 0.022,-0.1349 0.0424,-0.052 0.0905,-0.098 0.12488,-0.1621 0.0259,-0.048 0.0511,-0.1651 0.0742,-0.3425 1.2e-4,-8e-4 -9e-5,0 0,0 0.023,-0.1782 0.0457,-0.4212 0.0658,-0.724 1.4e-4,0 -1.3e-4,-0.011 0,-0.011 0.0406,-0.6145 0.0751,-1.4831 0.10296,-2.5818 0.028,-1.0997 0.0482,-2.4356 0.0624,-3.9875 0.0142,-1.5368 0.0217,-3.2941 0.022,-5.2431 0,-0.021 1e-5,-0.037 0,-0.057 0,-5.87613 0.002,-9.07535 -0.15862,-10.91468 -0.0475,-0.96623 -0.10136,-1.67799 -0.16875,-1.80388 -0.13535,-0.25299 -0.33755,-0.40673 -0.64969,-0.49955 -0.26008,-0.11118 -0.60346,-0.11385 -1.02093,-0.11139 -0.002,1.1e-4 -0.005,0 -0.007,0 -8.7e-4,0 -0.002,0 -0.004,0 -0.0593,4.2e-4 -0.10242,0 -0.16537,0 z m -55.906535,0.34089 c -0.244137,1.1e-4 -0.483369,0.0203 -0.725621,0.031 -0.0051,2.2e-4 -0.01014,-2.1e-4 -0.01519,0 -2.326839,0.095 -4.555413,0.6134 -6.422588,1.56597 -0.462518,0.23601 -1.211783,0.81131 -1.984488,1.44615 -0.101936,0.0779 -0.203702,0.15684 -0.303747,0.23793 -0.621973,0.48151 -1.16202,0.97476 -1.562615,1.42427 -0.631078,0.61617 -1.137369,1.16027 -1.137369,1.33647 0,0.05 0.101478,0.026 0.239624,-0.029 l -0.08101,0.1067 0.163687,-0.1231 -0.09619,0.1502 0.251436,-0.2312 c 0.01981,-0.015 0.04378,-0.03 0.06919,-0.051 0.279354,-0.149 0.629261,-0.3598 1.031057,-0.6362 0.57186,-0.39334 1.185858,-0.71642 1.827551,-0.97878 0.08989,-0.0352 0.180588,-0.0683 0.271686,-0.10136 0.154841,-0.0577 0.312715,-0.10947 0.47081,-0.16036 0.190407,-0.0587 0.382366,-0.11257 0.577121,-0.16197 0.122901,-0.0299 0.245958,-0.0598 0.371247,-0.0864 0.103303,-0.0224 0.207867,-0.0426 0.312187,-0.063 0.789021,-0.14435 1.62094,-0.22107 2.494109,-0.22107 0.427203,0 0.846935,0.031 1.265618,0.0662 2.638492,0.28189 5.379449,1.31587 7.868765,3.04594 0.933807,0.6818 1.85254,1.4762 2.759046,2.38783 1.014996,1.0207 1.856917,1.9803 2.561609,2.9294 1.174494,1.7143 2.075028,3.6923 3.083044,6.5949 0.0028,0.011 0.01789,0.057 0.02025,0.064 6.67e-4,0 0.0027,0 0.0034,0.011 0.0027,0.011 0.0057,0.014 0.0084,0.021 0.09156,0.2649 0.439988,0.3353 1.015869,0.2059 0.587162,-0.1319 1.134433,-0.3905 1.61999,-0.7442 0.0071,0 0.01322,-0.011 0.02025,-0.011 0.699952,-0.3746 1.217833,-1.0414 1.545741,-1.8764 0.453298,-0.8971 0.676564,-1.9203 0.548435,-2.9431 -0.39203,-3.1292 -2.205499,-5.96703 -5.509654,-8.62138 -1.735945,-1.39441 -3.286904,-2.34677 -5.030408,-3.06269 -0.0027,-9.2e-4 -0.0057,0 -0.0084,0 -0.537407,-0.23782 -1.071251,-0.43905 -1.594678,-0.60069 -0.921065,-0.28455 -1.835559,-0.49464 -2.74217,-0.64466 -0.03994,-0.0106 -0.07985,-0.0117 -0.119813,-0.0181 -0.457397,-0.0725 -0.912079,-0.13156 -1.363491,-0.1705 -0.0625,-0.0106 -0.124831,-0.0138 -0.187312,-0.0181 -0.424384,-0.032 -0.846291,-0.0501 -1.263929,-0.0522 -0.08349,-8.6e-4 -0.168119,-0.0106 -0.251437,-0.0106 z m 148.845045,3.29389 c 2.71611,-0.0384 5.47455,1.12051 7.57345,3.505 0.80688,0.9167 1.56343,2.32403 1.944,3.45603 0.0891,0.3069 0.16728,0.6159 0.21767,0.9264 l 0.0186,0.1113 c 0.0203,0.2196 0.0191,0.4152 -0.032,0.5486 -0.0606,0.158 -0.40492,0.2619 -1.31287,0.3307 l -8.14214,0.071 c -1.71824,0.015 -2.6976,0.02 -3.88459,0.028 -2.16246,-0.028 -3.92915,-0.079 -4.88023,-0.1418 -0.4749,-0.092 -0.7348,-0.2296 -0.83868,-0.432 0.0246,-0.7838 0.67959,-2.534 1.404,-3.78333 0.80953,-1.2729 1.92101,-2.3986 3.18091,-3.20792 0.13481,-0.0832 0.27071,-0.16484 0.40836,-0.24123 0.10627,-0.0619 0.21272,-0.121 0.32063,-0.17722 0.26938,-0.13625 0.54391,-0.2597 0.82181,-0.36789 0.0284,-0.0117 0.0557,-0.0246 0.0843,-0.0352 0.30052,-0.11373 0.60489,-0.20912 0.91293,-0.29032 0.0272,-0.0106 0.0536,-0.017 0.0809,-0.0235 0.29705,-0.0757 0.59763,-0.1321 0.89943,-0.17723 0.0653,-0.0106 0.13001,-0.017 0.19574,-0.0256 0.24143,-0.0309 0.48428,-0.049 0.72732,-0.0608 0.10019,0 0.19998,-0.0106 0.30037,-0.0138 z m -28.94383,0.0106 c 2.59579,-0.0181 5.17057,1.05821 7.12458,3.1962 1.00115,1.0954 1.86324,2.60533 2.25954,3.79513 0.062,0.24 0.12624,0.4793 0.16538,0.724 l 0.0676,0.4186 c 8.7e-4,0.1602 -0.0174,0.3003 -0.0607,0.4133 -0.0562,0.1467 -0.29615,0.2491 -0.9855,0.3189 -0.002,2e-4 -0.002,-10e-5 -0.003,0 l -8.4982,0.072 -4.36046,0.038 c -1.45446,-0.016 -2.85679,-0.028 -3.70067,-0.057 -0.81796,-0.072 -1.25798,-0.2008 -1.44787,-0.4252 0.003,-0.6019 0.34991,-1.8319 0.80831,-2.8924 0.50133,-1.00773 1.16942,-1.94623 1.96086,-2.75903 0.0571,-0.058 0.11374,-0.1157 0.17212,-0.1721 0.17618,-0.1731 0.36332,-0.3329 0.55012,-0.4928 0.0327,-0.028 0.0649,-0.055 0.0978,-0.083 1.6773,-1.31431 3.60075,-2.00409 5.52822,-2.08571 0.10993,0 0.20357,-0.0106 0.3223,-0.0106 z m -124.302189,1.06652 0.155249,0.0662 -0.788056,-0.0513 0.03713,0.0117 h -0.03713 l 1.598052,0.5721 c 1.068546,0.38288 2.033277,0.86128 2.90417,1.43438 0.933515,0.6848 1.851623,1.5405 2.647672,2.4704 0.587612,0.73833 1.118418,1.54713 1.572739,2.41483 0.01465,0.03 0.03107,0.058 0.04556,0.087 0.50452,1.0471 0.917417,2.2113 1.24368,3.5016 1.246389,4.9286 0.203743,11.1647 -2.559922,15.3122 -0.42198,0.6333 -0.744714,1.1596 -0.977056,1.566 l -0.300374,0.4371 0.05231,0.044 c -0.0048,0.015 -0.04862,0.084 -0.04893,0.093 -0.005,0.133 0.453753,0.5241 1.019243,0.869 0.209125,0.1275 0.462284,0.2285 0.730683,0.3171 0.474627,0.2256 0.994129,0.3105 1.856238,0.3105 0.120991,0 0.239261,-0.011 0.357748,-0.017 0.747353,-0.025 1.463124,-0.1607 1.976051,-0.4285 4.52642,-2.3648 6.139804,-11.6706 3.229856,-18.6232 -2.067595,-4.9401 -5.710162,-8.42643 -9.96294,-9.70326 -1.255751,-0.42603 -2.535226,-0.64721 -3.790103,-0.62267 l -0.398247,0.0106 z m 5.658153,5.23471 c -0.100624,0.055 -0.01527,0.4147 0.312186,1.0479 0.714813,1.3823 0.937746,3.7949 0.546748,5.9332 -0.544843,2.9796 -2.114342,5.7548 -4.358787,8.0578 -1.146293,1.1385 -2.448602,2.1813 -3.852539,3.0763 -2.502675,1.5394 -5.403216,2.6059 -8.484699,3.0037 l -1.194744,0.1536 -1.43774,0.1519 v 0.034 l -0.07256,0.011 0.07256,0.7493 v 0.3998 c 0,0.2073 0.02011,0.4132 0.05569,0.6178 0.04449,0.2866 0.12325,0.5592 0.219374,0.8235 0.174299,0.5873 0.461742,1.0414 1.015869,1.6132 0.585726,0.6043 1.496954,1.2337 2.0233,1.3973 0.23681,0.073 0.661946,0.1276 1.152556,0.1635 0.876742,0.1718 1.81777,0.1461 2.910918,-0.076 2.308727,-0.325 4.543749,-1.4194 6.863023,-3.3548 0.07636,-0.061 0.152132,-0.1221 0.227811,-0.1839 0.858252,-0.6801 1.67424,-1.4407 2.418173,-2.268 0.02532,-0.028 0.05824,-0.075 0.08437,-0.1046 0.148221,-0.1645 0.281933,-0.3228 0.396559,-0.4725 1.107738,-1.2401 1.726953,-2.2257 2.490736,-3.8271 1.604093,-3.3637 2.073849,-5.5106 1.916988,-8.7716 -0.002,-0.044 -0.001,-0.083 -0.0034,-0.1267 -0.143999,-2.7305 -0.963113,-5.1124 -2.499171,-7.2696 -0.055,-0.077 -0.08634,-0.1014 -0.136687,-0.1671 -0.234768,-0.3476 -0.390355,-0.5219 -0.460685,-0.5214 -0.09196,-0.072 -0.166766,-0.1111 -0.205874,-0.09 z m -28.984325,6.3753 -0.388123,0.4236 c -0.38627,0.1158 -0.743982,0.5128 -1.231867,1.1744 -0.552295,0.7491 -0.808315,1.6378 -0.794808,2.5769 -0.03658,0.9299 0.244109,1.8914 0.845432,2.8719 0.08157,0.1444 0.173487,0.2849 0.266624,0.4271 0.05199,0.079 0.109811,0.1576 0.165374,0.2362 0.03883,0.058 0.08063,0.1148 0.1215,0.1721 0.09145,0.1227 0.174906,0.2461 0.27506,0.3663 0.221769,0.2746 0.472324,0.5395 0.742495,0.7948 0.01512,0.015 0.02692,0.028 0.04218,0.044 0.01765,0.016 0.0363,0.031 0.054,0.047 0.0444,0.04 0.08429,0.083 0.129936,0.1233 0.06346,0.056 0.135163,0.1074 0.200812,0.1621 0.06946,0.061 0.13891,0.1217 0.209249,0.1805 0.05473,0.047 0.105383,0.094 0.160311,0.14 0.06555,0.053 0.132713,0.1057 0.199125,0.1571 0.38581,0.3135 0.764387,0.5981 1.068181,0.7761 0.131368,0.077 0.294871,0.1611 0.462371,0.2447 1.748346,1.0018 3.84502,1.6834 6.667273,2.1921 0.82883,0.1493 2.064984,0.1774 3.364855,0.118 0.193287,-0.011 0.385996,-0.015 0.578809,-0.026 0.0084,-6e-4 0.01687,0 0.02532,0 0.02543,0 0.0505,-0.011 0.07594,-0.011 0.267834,-0.018 0.535125,-0.038 0.801557,-0.067 1.213458,-0.1179 2.378302,-0.3068 3.218044,-0.5534 2.553607,-0.7502 5.867851,-2.6246 7.463767,-4.2205 1.573813,-1.5739 3.302195,-4.5513 3.668603,-6.323 0.10056,-0.4861 0.148898,-0.7428 0.08943,-0.761 -0.0058,-0.087 -0.06117,-0.041 -0.20756,0.2092 -0.148431,0.1882 -0.354832,0.4812 -0.718871,1.0193 -1.122142,1.6584 -3.096998,3.1809 -5.312218,4.1494 -0.1399,0.059 -0.278089,0.1203 -0.420185,0.1756 -0.188014,0.075 -0.376471,0.1477 -0.566998,0.2143 -0.261444,0.09 -0.528424,0.1651 -0.794807,0.2414 -0.307812,0.085 -0.620351,0.1615 -0.938245,0.226 -0.964697,0.175 -1.964804,0.2846 -2.996982,0.2936 -0.236299,0 -0.468854,0 -0.701996,-0.011 -0.286785,-0.011 -0.56807,-0.021 -0.84712,-0.038 -3.212783,-0.2557 -6.542668,-1.3465 -9.411131,-3.1252 -0.09707,-0.061 -0.193899,-0.1226 -0.290247,-0.1857 -0.191779,-0.1234 -0.379824,-0.2533 -0.566997,-0.383 -0.179589,-0.1254 -0.359935,-0.2503 -0.536621,-0.3813 -0.188141,-0.1398 -0.371019,-0.2843 -0.553498,-0.4305 -0.111536,-0.089 -0.223929,-0.1744 -0.334122,-0.2649 -0.313872,-0.2631 -0.620611,-0.533 -0.914619,-0.815 -0.481255,-0.4615 -0.864649,-0.809 -1.204869,-1.0884 l -0.195748,-0.1805 -0.877495,-0.832 v 0 l -0.0084,0.011 -0.0084,-0.011 z m 118.392601,14.322 v 0.046 h -0.31725 v 6.3264 5.3459 l -0.0135,0.9805 h 0.0135 0.31725 v 0 h 2.86873 c 0.749,0 1.27881,-0.011 1.6858,-0.02 0.29587,-0.012 0.51059,-0.031 0.67161,-0.064 0.24257,-0.048 0.38097,-0.1236 0.41682,-0.2479 0,0 0,0 0,0 6.3e-4,0 0.002,0 0.003,0 0,0 0,0 0,0 0.047,-0.1105 0.0473,-0.2586 0.0473,-0.4539 0,0 0,0 0,0 0,-0.1899 -0.005,-0.3342 -0.0422,-0.4438 0,0 0,0 0,0 -0.0188,-0.054 -0.0457,-0.099 -0.0844,-0.1384 0,0 0,0 0,0 -0.0391,-0.039 -0.0904,-0.07 -0.15693,-0.095 -0.0664,-0.026 -0.14899,-0.046 -0.24976,-0.061 -0.0149,0 -0.0382,0 -0.054,-0.011 -0.0666,-0.011 -0.14358,-0.015 -0.22611,-0.02 0,0 -0.002,0 -0.002,0 -0.0669,-0.011 -0.16454,-0.011 -0.243,-0.011 -0.0511,0 -0.10692,0 -0.16537,0 -0.24164,-0.011 -0.47288,-0.011 -0.82518,-0.011 h -0.006 -1.47993 l -0.56193,-0.027 -0.0152,-0.9584 v -4.5513 -0.021 -5.5131 -0.044 l -0.37968,0.044 h -0.55181 c -0.006,0 -0.0106,0 -0.0169,0 -0.006,0 -0.01,0 -0.0152,0 h -0.29701 z m -39.229081,0 v 0.043 4.195 0.3257 c 0,2.9561 0.04207,4.0728 0.308811,4.9444 0.0198,0.065 0.0468,0.133 0.0692,0.1958 0.006,0.019 0.0136,0.038 0.0202,0.056 0.2878,1.1381 0.77362,1.8042 1.57782,2.3018 0.18097,0.1484 0.36453,0.2792 0.55011,0.3763 0.59408,0.311 1.22781,0.4728 1.863,0.5197 0.17021,0.016 0.34092,0.02 0.51299,0.011 0.67154,-0.021 1.33078,-0.1755 1.93724,-0.4658 0.35921,-0.1623 0.69196,-0.3749 1.00068,-0.6277 0.14651,-0.1077 0.27521,-0.2322 0.39825,-0.3611 0.0353,-0.038 0.0754,-0.066 0.10969,-0.1046 0.0202,-0.024 0.0396,-0.048 0.0591,-0.072 0.16842,-0.1949 0.32659,-0.4028 0.46574,-0.6311 0.0464,-0.076 0.0833,-0.1518 0.12318,-0.2278 0.0325,-0.061 0.0644,-0.1275 0.0928,-0.1924 0.36449,-0.7649 0.40162,-1.7311 0.40162,-5.3831 v -0.032 -0.1569 -0.046 c 1e-5,-0.011 0,-0.015 0,-0.024 v -4.2812 -0.3139 0 h -0.76779 -0.022 -0.74588 -0.0456 v 0 0.3139 1.8073 l -0.0557,2.5971 c -0.0157,0.7261 -0.0327,1.1937 -0.0489,1.7195 -0.0606,1.0495 -0.12356,2.0474 -0.19743,2.6579 -0.002,0.012 -0.005,0.025 -0.007,0.035 -0.0141,0.063 -0.0261,0.1401 -0.0422,0.1958 -0.0184,0.064 -0.0429,0.1115 -0.0642,0.167 -0.0181,0.047 -0.0353,0.098 -0.0557,0.1401 -0.0922,0.1294 -0.20158,0.262 -0.33412,0.4083 l -0.3105,0.3106 c -0.0896,0.09 -0.15057,0.137 -0.2295,0.2127 -0.23632,0.1936 -0.47981,0.3414 -0.72731,0.4537 -0.44777,0.1676 -0.92967,0.2134 -1.43269,0.1402 -0.56706,-0.1305 -1.16064,-0.3923 -1.6031,-0.7223 -0.0182,-0.016 -0.0313,-0.038 -0.0489,-0.056 -0.6888,-0.7766 -0.85388,-2.3101 -0.85388,-5.9399 v -4.4449 h -0.31553 -0.63281 -0.58725 z m 21.196561,0 -0.33582,0.04 h -0.44717 -0.783 l -0.002,0.1486 -0.0844,0.011 0.032,2.83 -0.032,1.6791 -0.0776,4.1276 c -0.0293,0.1875 -0.0616,0.2873 -0.0978,0.2649 -0.0691,-0.043 -0.43138,-0.5337 -0.93319,-1.2471 l -2.11273,-3.1454 c -0.68863,-1.0253 -1.22813,-1.8061 -1.68411,-2.4452 -0.0266,-0.038 -0.0398,-0.051 -0.0658,-0.087 -1.13521,-1.6082 -1.63833,-2.0933 -2.07223,-2.1245 -0.016,0 -0.0331,-0.011 -0.0489,-0.011 -0.002,0 -0.003,0 -0.005,0 h -0.7408 v 0 0.3156 6.0108 0 0.1569 5.1874 l -0.0135,0.9804 h 0.0135 v 0.011 h 0.78129 0.78299 v -0.011 l 0.0877,-4.6322 v -0.019 -0.011 -0.011 l 0.0253,-1.3348 0.0625,-3.2636 0.86399,1.296 2.14142,3.3091 c 2.57383,3.9758 3.07475,4.5978 3.80192,4.6423 0.0184,0 0.0372,0.011 0.0557,0.011 0.005,5e-4 0.0126,0.011 0.0169,0.011 0.005,0 0.008,0 0.0135,0 0.0207,0 0.0416,0.011 0.0624,0.011 h 0.7948 v -0.011 h 0.0135 l -0.0135,-0.9788 v -5.3441 0 -0.021 -3.0274 l 0.0405,-2.9616 h -0.0405 v -0.3122 -0.011 z m -39.964819,0.011 c -0.360417,-0.011 -0.718565,0.022 -1.071555,0.076 -0.593632,0.042 -1.148989,0.1368 -1.572741,0.297 -0.928038,0.3506 -1.757495,1.0442 -2.418173,1.9136 -0.73201,0.8884 -1.179304,1.9395 -1.353367,3.0358 -0.01746,0.095 -0.03394,0.1884 -0.04725,0.2835 -0.01139,0.099 -0.01673,0.1988 -0.02362,0.2987 -0.01674,0.1804 -0.04472,0.3611 -0.04556,0.5417 -0.01281,2.7756 1.87785,5.5052 4.321661,6.2387 0.503245,0.151 1.025203,0.2335 1.552491,0.2581 0.08846,0.013 0.225912,0.048 0.286874,0.049 0.195591,0 0.422629,-0.021 0.659804,-0.057 0.127316,-0.013 0.2552,-0.034 0.383066,-0.056 0.03502,-0.011 0.06967,-0.013 0.104619,-0.018 0.09102,-0.018 0.181893,-0.034 0.273377,-0.057 0.855698,-0.1751 1.691449,-0.5007 2.446864,-0.9873 0.671347,-0.4323 0.679157,-0.4842 0.168749,-1.161 l -0.534939,-0.7087 -1.059738,0.6244 c -0.84611,0.4993 -1.729024,0.6798 -2.568362,0.6175 -0.719651,-0.079 -1.428531,-0.3274 -2.057049,-0.7187 -1.231326,-0.8342 -2.087333,-2.3153 -2.085738,-4.1546 3.93e-4,-0.4576 0.06708,-0.8914 0.182248,-1.3011 0.434109,-1.2998 1.375416,-2.3949 2.544736,-2.9633 0.222886,-0.099 0.452253,-0.1781 0.68512,-0.243 0.27287,-0.024 0.593338,-0.03 1.000682,-0.03 0.514037,0 0.912521,0.031 1.260551,0.084 0.290977,0.093 0.580112,0.2107 0.86062,0.3764 0.220908,0.1302 0.374311,0.2145 0.52481,0.2953 0.01183,0.011 0.03245,0.02 0.04391,0.026 3.57e-4,10e-5 9.17e-4,-4e-4 0.0018,0 0.03273,0.017 0.08149,0.046 0.111375,0.061 0.112044,0.079 0.20097,0.1126 0.28687,0.1014 0.267557,0.065 0.407,-0.045 0.631125,-0.3511 0.118268,-0.1617 0.195625,-0.3021 0.246372,-0.4337 0.06994,-0.092 0.115133,-0.1806 0.113061,-0.2649 9.17e-4,-0.014 5.78e-4,-0.028 0,-0.043 0,0 0,0 0,0 -0.0018,-0.033 -0.01357,-0.066 -0.0253,-0.099 -0.01512,-0.077 -0.05234,-0.1532 -0.135006,-0.2311 0,0 -0.0018,0 -0.0018,0 0,0 -0.0018,0 -0.0018,0 -0.0363,-0.034 -0.09193,-0.071 -0.141753,-0.1067 -0.191959,-0.1837 -0.491378,-0.3721 -0.931488,-0.5959 -0.309109,-0.157 -0.711836,-0.2811 -1.160993,-0.3711 -0.482377,-0.1316 -0.969713,-0.2076 -1.454617,-0.2194 z m 10.955189,0.011 c -0.11439,0.011 -0.22681,0.028 -0.34088,0.038 -0.880237,0.02 -1.691119,0.1595 -2.222419,0.437 -0.885196,0.4624 -1.638392,1.157 -2.227487,1.9779 -0.03557,0.048 -0.06893,0.099 -0.102942,0.1484 -0.07645,0.1045 -0.151946,0.2087 -0.221063,0.3171 -0.0064,0.012 -0.01357,0.022 -0.02026,0.034 -0.478967,0.7627 -0.774573,1.6156 -0.89099,2.4993 -0.0092,0.059 -0.01311,0.118 -0.02026,0.1772 -6.42e-4,0.011 -9.17e-4,0.012 -0.0018,0.018 -0.0083,0.066 -0.01586,0.1326 -0.02191,0.1991 -0.0046,0.067 -0.01256,0.1346 -0.01522,0.2025 -0.0027,0.048 -0.01677,0.1045 -0.01687,0.1485 -5.5e-5,0.041 0.0093,0.084 0.01017,0.1248 3.7e-5,0 -3.7e-5,0 0,0.011 -3.21e-4,0.029 -0.0073,0.061 -0.0064,0.091 2.8e-5,0.011 0.0018,0.013 0.0018,0.02 -9.17e-4,0.3286 0.01962,0.6553 0.06582,0.9787 0.02136,0.1667 0.05949,0.3247 0.09112,0.4861 0.01513,0.07 0.02658,0.1389 0.04391,0.2075 0.353191,1.5592 1.186174,2.8419 2.397923,3.6906 0.147767,0.1097 0.302793,0.2097 0.462366,0.3054 0.02887,0.016 0.05683,0.033 0.08607,0.049 0.365007,0.2101 0.749805,0.3946 1.1728,0.5216 0.506568,0.1519 1.003721,0.2215 1.493431,0.2531 0.02035,0 0.04042,0 0.06068,0.011 0.174844,0.011 0.349735,0.024 0.521426,0.019 0.0073,-3e-4 0.01577,2e-4 0.02356,0 2.416651,-0.02 4.612907,-1.3376 5.631148,-3.5792 0.271297,-0.5972 0.444666,-1.2313 0.52987,-1.8748 0.165146,-0.985 0.09347,-2.0302 -0.249746,-3.0763 -0.483788,-1.6303 -1.511123,-3.0377 -2.936235,-3.7276 -0.07489,-0.037 -0.164495,-0.065 -0.244676,-0.098 -0.135346,-0.061 -0.277933,-0.1134 -0.42019,-0.1653 -0.0046,0 -0.0083,0 -0.01357,-0.011 -0.813935,-0.3213 -1.718188,-0.4633 -2.618986,-0.4287 z m 37.08933,0.017 c -0.78759,-0.018 -1.58836,0.084 -2.28655,0.3475 -0.0238,0.011 -0.0501,0.026 -0.0743,0.035 -0.28585,0.099 -0.55998,0.2123 -0.80493,0.3511 -1.15397,0.6535 -2.04731,1.7125 -2.56836,2.9649 -0.002,0.011 -0.007,0.014 -0.01,0.02 -6.7e-4,0 -8.6e-4,0 -0.002,0.011 -0.32043,0.7795 -0.49752,1.633 -0.49949,2.5111 -0.002,1.0147 0.14011,2.2078 0.31556,2.6526 0.27024,0.6852 0.79243,1.423 1.41918,2.0638 0.37954,0.4176 0.81718,0.7778 1.30612,1.0732 0.21648,0.1392 0.43382,0.2656 0.64799,0.3629 0.0467,0.02 0.0949,0.035 0.14174,0.055 0.10659,0.049 0.21046,0.085 0.31557,0.1249 0.0632,0.024 0.12538,0.05 0.189,0.071 0.0189,0.011 0.0385,0.016 0.0574,0.021 0.052,0.015 0.10627,0.024 0.15863,0.037 1.05004,0.3014 2.14629,0.3137 3.20792,0.039 0.091,-0.022 0.18045,-0.047 0.27,-0.074 0.10757,-0.033 0.21408,-0.071 0.32062,-0.1096 0.12161,-0.044 0.24296,-0.087 0.36112,-0.1401 0.0307,-0.013 0.0622,-0.024 0.0928,-0.038 0.14228,-0.065 0.21731,-0.1171 0.33918,-0.1772 0.0408,-0.022 0.0829,-0.04 0.12319,-0.064 0.54796,-0.2816 0.92012,-0.5319 1.04119,-0.778 0.16851,-0.1726 0.20227,-0.2964 0.10466,-0.4539 -6.2e-4,0 -0.002,0 -0.003,0 -0.0298,-0.047 -0.0926,-0.1123 -0.14344,-0.1688 -0.035,-0.039 -0.0533,-0.068 -0.0978,-0.1131 -0.003,0 -0.005,0 -0.008,-0.011 -0.0106,-0.011 -0.0128,-0.016 -0.0236,-0.027 -0.005,-0.011 -0.01,-0.011 -0.0151,-0.012 -0.037,-0.047 -0.0663,-0.092 -0.11138,-0.1418 -0.50641,-0.5596 -0.60559,-0.5708 -1.10025,-0.1232 -0.10684,0.097 -0.22426,0.1784 -0.34087,0.2598 -0.14278,0.066 -0.25413,0.114 -0.43705,0.2025 -0.17399,0.084 -0.29687,0.1321 -0.44044,0.1958 -0.45149,0.1472 -0.90401,0.2265 -1.34661,0.2396 -8.6e-4,0 -0.002,0 -0.003,0 -0.54154,-0.019 -1.09723,-0.1419 -1.63856,-0.3814 -0.82595,-0.3653 -1.49287,-0.8772 -1.98448,-1.4848 -0.0198,-0.026 -0.0393,-0.051 -0.0591,-0.076 -0.35037,-0.4522 -0.60323,-0.9554 -0.75601,-1.4918 -0.0645,-0.3929 -0.0978,-0.8264 -0.0978,-1.3297 0,-0.3197 0.0106,-0.5861 0.027,-0.8386 0.0877,-0.4342 0.23097,-0.8716 0.44212,-1.3078 0.81847,-1.6908 2.61493,-2.6911 4.24573,-2.6679 0.0677,0 0.13521,0 0.20249,0.011 0.0289,0 0.0573,0.011 0.0861,0.011 0.188,0.022 0.3744,0.054 0.55687,0.099 0.024,0.011 0.0469,0.015 0.0709,0.021 0.10729,0.028 0.21138,0.066 0.31556,0.1024 0.0699,0.027 0.13906,0.057 0.20756,0.088 0.24014,0.1179 0.46726,0.2655 0.67162,0.4505 0.47644,0.4309 0.61628,0.4837 0.98212,0.1924 0.0878,-0.038 0.16974,-0.1116 0.25819,-0.2161 0.005,-0.011 0.008,-0.011 0.0135,-0.012 0,0 0,0 0,0 0.007,-0.011 0.0128,-0.012 0.0203,-0.019 0.0133,-0.012 0.0214,-0.016 0.0354,-0.028 0.30215,-0.2735 0.4766,-0.4687 0.49951,-0.6464 0.002,-0.012 -0.002,-0.024 -0.002,-0.035 0.0337,-0.3028 -0.32791,-0.5528 -1.18631,-0.9906 -0.5727,-0.292 -1.25641,-0.4741 -1.96929,-0.5687 -0.002,-2e-4 -0.003,0 -0.006,0 -0.002,-4e-4 -0.005,0 -0.008,0 -0.15766,-0.02 -0.31407,-0.039 -0.47419,-0.051 -0.11607,-0.011 -0.23162,-0.014 -0.34762,-0.017 -0.067,0 -0.13349,-0.011 -0.20082,-0.012 z m 5.84041,0.014 v 6.3265 6.3263 h 0.78973 0.79145 v -6.3263 -6.3265 h -0.79145 z m -43.000616,1.6402 c 0.04822,0 0.09389,0 0.141744,0 0.179217,9e-4 0.356628,4e-4 0.545058,0.019 0.162763,0.016 0.275174,0.039 0.413434,0.059 0.627467,0.1193 1.213885,0.3602 1.722928,0.7223 0.04116,0.028 0.07618,0.067 0.116435,0.098 0.167145,0.1529 0.335362,0.3124 0.538321,0.53 0.282965,0.3033 0.510152,0.6087 0.710415,0.9145 0.263881,0.5709 0.407027,1.25 0.455638,2.1145 0.0517,0.9203 -0.03337,1.696 -0.248059,2.3506 -0.316396,0.6542 -0.841664,1.3625 -1.292626,1.7567 -0.05399,0.041 -0.106159,0.087 -0.160307,0.1249 -0.0018,0 -0.0046,0 -0.0064,0.011 -0.109744,0.07 -0.216911,0.14 -0.337498,0.2007 -1.450916,0.7312 -2.384769,0.8264 -3.69561,0.378 -0.164706,-0.067 -0.333006,-0.142 -0.50962,-0.2311 -1.326067,-0.6696 -2.160333,-1.7986 -2.510985,-3.0359 -0.622746,-2.3734 0.667983,-4.6443 2.532921,-5.5991 0.53855,-0.2377 1.071151,-0.3711 1.584547,-0.4083 z"
       id="path1446"
       inkscape:connector-curvature="0" />
  </g>
</svg>
