<?xml version="1.0" encoding="UTF-8"?>
<svg version="1.1" viewBox="0 0 250 91" xmlns="http://www.w3.org/2000/svg" xmlns:cc="http://creativecommons.org/ns#" xmlns:dc="http://purl.org/dc/elements/1.1/" xmlns:rdf="http://www.w3.org/1999/02/22-rdf-syntax-ns#">
<metadata>
<rdf:RDF>
<cc:Work rdf:about="">
<dc:format>image/svg+xml</dc:format>
<dc:type rdf:resource="http://purl.org/dc/dcmitype/StillImage"/>
<dc:title/>
</cc:Work>
</rdf:RDF>
</metadata>
<g transform="translate(0,-961.4)" fill="#fff">
<path d="m38.559 979.4c-2.1022-0.0281-4.4561 1.2035-6.5238 3.5032-1.2756 1.4188-2.3203 3.0954-3.1151 4.9088-0.122 0.27838-0.2395 0.5592-0.34931 0.84386-0.23292 0.57829-0.45286 1.1682-0.63956 1.7819-0.13582 0.44652-0.24352 0.99035-0.3375 1.5694-0.48517 2.3804-0.56527 4.8447-0.16875 7.1955 0.76244 4.5202 3.6821 8.8542 7.16 10.628 0.21899 0.1117 0.38365 0.1807 0.57881 0.2718 0.06479 0.035 0.15326 0.09 0.20587 0.1148 0.46426 0.2592 0.84884 0.4657 0.89606 0.4657 0.0085 2e-4 -0.08151-0.099-0.0945-0.1215 0.0059-5e-4 0.02966 0.011 0.03206 0.011 0.0045-0.011-0.02488-0.043-0.03206-0.059 0.02454 0 0.06909 0.018 0.07594 0.012 0.05123-0.049-0.37968-0.5077-0.94668-1.0395-0.18469-0.2014-0.3306-0.3713-0.55012-0.599-0.22658-0.2351-0.43025-0.4682-0.62774-0.7038-0.98672-1.3216-1.7748-3.1153-2.2039-4.9644-0.11838-0.7972-0.17839-1.6698-0.18562-2.6529-0.01003-1.3602 0.09573-2.6041 0.33075-3.7968 1.27-4.8426 4.8193-9.9523 9.0112-12.54 0.44863-0.27691 0.84504-0.55736 1.1677-0.80662 0.41458-0.29739 0.69862-0.55291 0.69862-0.66318 0-7e-3 -0.0048-0.0175-0.0051-0.0253 1.3e-4 -2e-3 0.0051-6e-3 0.0051-8e-3 -0.0028-0.81068-1.2751-2.3389-2.3844-2.8654-0.62492-0.29654-1.2973-0.44623-1.998-0.45563zm89.435 0.89605c-0.0837 6.1e-4 -0.16292 0.0132-0.24468 0.0203-0.27436-3e-3 -0.51537 0.012-0.69525 0.14682-0.26411 0.1051-0.47285 0.25975-0.58218 0.46405-0.0371 0.0695-0.0718 0.37776-0.10296 0.7965-0.13612 1.0917-0.18978 3.672-0.21093 8.969-0.0434 4.7574-0.0458 10.372 0 15.326 6e-3 1.7465 0.0209 3.1498 0.0354 4.4212 0.0148 2.9652 0.0538 4.8911 0.15019 5.719 0.0455 0.5953 0.10169 0.9155 0.16706 1.0411 5e-3 0.011 7e-3 0.06 0.0118 0.066 3e-3 0 0.0106 0.011 0.0135 0.011 6.2e-4 7e-4 8.6e-4 0.011 2e-3 0.011 0.0443 0.044 0.12271 0.08 0.2025 0.1165 0.0232 0.011 0.0353 0.025 0.0607 0.035 2e-3 6e-4 5e-3 0 6e-3 0 0.16089 0.063 0.37079 0.1066 0.59569 0.1399 0.43467 0.1013 0.93642 0.1137 1.3686 0.035 2e-3 -7e-4 6e-3 5e-4 8e-3 0 0.0115 0 0.0207 0 0.032-0.011 0.0192 0 0.0401 0 0.0591-0.011 0.16008-0.019 0.30782-0.045 0.44042-0.078l0.46913-0.03 6e-3 -0.194c0.0148-0.015 0.0453-0.026 0.0557-0.043 0.14075-0.2176 0.32812-3.2185 0.41512-6.669l0.15525-6.1797c0.19233 0.2183 0.59227 0.7177 1.1998 1.4952l3.8306 5.0794 5.0287 6.6689h1.6234c2e-3 -1e-4 6e-3 0 8e-3 0 0.0678-2e-4 0.12169 0 0.19574 0 0.29668 0 0.55373-0.024 0.78807-0.061h0.022c0.0135 0 0.0291 0 0.0422-0.011 0.0147 0 0.0328 0 0.0473-0.011 6e-3 0 0.014-7e-4 0.0203 0 0.0207 0 0.0372-0.011 0.0574-0.014 2e-3 -2e-4 3e-3 0 5e-3 0 0.12424-0.024 0.24411-0.049 0.34762-0.083h8e-3c2e-3 -3e-4 2e-3 0 3e-3 0 0.11739-0.038 0.22228-0.085 0.31386-0.1382h6e-3c0.36914-0.2171 0.53323-0.5518 0.53323-1.0328 0 0-6e-3 -0.012-6e-3 -0.015 1.7e-4 -0.014 3e-3 -0.026 3e-3 -0.038 0-4e-4 -2e-3 0-2e-3 0 3.3e-4 -0.014 5e-3 -0.026 5e-3 -0.04 0 0-6e-3 -0.011-6e-3 -0.012 8.6e-4 -0.028 6e-3 -0.051 6e-3 -0.08 0-0.052-0.25915-0.4339-0.62941-0.9532-0.86756-1.3147-2.5736-3.6388-4.5849-6.2051l-4.8279-6.1595c-0.14985-0.2076-0.17834-0.2599-0.24131-0.3576 5e-3 -0.1088 0.0391-0.2348 0.12488-0.3916l0.57037-0.5771 3.8812-3.8862c2.2521-2.2556 3.4827-3.5507 4.1293-4.3891 0.3958-0.44843 0.68987-0.79924 0.72057-0.88919 0.30267-0.8876-0.64546-1.8563-1.8174-1.8563-0.058 0-0.11381 0.0117-0.17044 0.017-0.0861-0.0106-0.16942-0.0181-0.25987-0.0181-0.0415-4.3e-4 -0.14326 0.0619-0.27506 0.15705-0.79676 0.36832-2.021 1.5647-5.5721 5.2227-2.8624 2.9485-5.247 5.3542-5.3223 5.3696-5e-3 0-7e-3 -0.038-0.0118-0.046-0.058-0.1544-0.0677-4.4744-0.0203-9.7958 0.0793-8.8667 0.0356-9.9108-0.4438-10.44-0.0389-0.0429-0.0943-0.0747-0.14007-0.11306-0.0139-0.0298-0.0272-0.0811-0.0422-0.0961-0.0629-0.063-0.1452-0.11551-0.23793-0.162-0.21342-0.10719-0.49358-0.17113-0.79819-0.19406-0.17509-0.0275-0.35312-0.0435-0.52987-0.0422zm-50.871 8e-3c-0.06017 8.6e-4 -0.12151 0.0135-0.18225 0.0186-0.56403 8.2e-4 -1.0954 0.11499-1.3517 0.37124-0.0098 0.01-0.01766 0.0662-0.027 0.086-0.02701 0.0199-0.0668 0.0369-0.08943 0.0574-0.54721 0.49523-0.57881 1.4738-0.57881 18.054 0 11.479 0.11293 17.74 0.32737 18.141 0.05264 0.098 0.11904 0.1737 0.19069 0.2448 3e-3 0.014 0.0054 0.1523 0.0084 0.1553 0.06758 0.067 0.3857 0.1216 0.783 0.1602 0.24139 0.032 0.52161 0.052 0.89774 0.052h0.0067c0.01124-1e-4 0.02087 0 0.03206 0h0.01014c0.53398 0 0.8965-0.033 1.1728-0.1079 0.0014-4e-4 2e-3 0 0.0034 0 0.05208-0.014 0.1049-0.03 0.15019-0.048 0.20238-0.06 0.36727-0.1363 0.432-0.2362 0.0057-0.011 0.01278-0.1095 0.01855-0.13 0.0208-0.031 0.04872-0.052 0.0675-0.087 0.20069-0.3751 0.33136-3.7752 0.3375-8.7801v-0.14l0.1485-7.8503 7.5937 8.6821 7.592 8.6806h0.15693l0.01687 0.02h1.6791 0.05738 0.10296c0.43001 0 0.75549-0.011 1.0192-0.028 0.23607-0.017 0.41894-0.047 0.57374-0.088 0.0046 0 0.01118-5e-4 0.01522 0 5.68e-4 -1e-4 8.71e-4 3e-4 0.0018 0 0.07847-0.021 0.14884-0.047 0.21093-0.076h0.01063c0.03951-0.019 0.07242-0.044 0.10627-0.066 0.02108-0.014 0.04657-0.026 0.06582-0.04h0.0028c0.09645-0.079 0.16895-0.1763 0.23456-0.2971 0.0018 0 0.0028 0 0.0055-0.011 2.38e-4 -4e-4 -2.3e-4 0 0 0 0.0018 0 0.0028-0.011 0.0055-0.012 0.17737-0.3346 0.32232-0.7502 0.32232-0.9299 0-0.1816-3.4816-4.1959-7.7371-8.9216l-7.673-8.5218c0.02567-0.079 0.27758-0.3987 0.648-0.8438l2.6764-2.9025c0.01531-0.016 0.04519-0.049 0.06077-0.0662 1.8805-2.0293 5.172-5.5786 7.3676-7.9447 0.07837-0.0842 0.11149-0.12558 0.18731-0.20752 0.51-0.54639 1.5719-1.7001 1.8444-1.9879 0.8451-0.89235 1.3928-1.6358 1.7077-2.2596 0.19075-0.2538 0.28032-0.4123 0.28181-0.50118 7.3e-5 -8.6e-4 0.0028-6e-3 0.0028-6e-3 0-5e-3 -0.0018-7e-3 -0.0018-0.0118 0-3e-3 0.0018-7e-3 0.0018-0.0118 0-0.0106-0.0046-0.0202-0.0055-0.0304-1.29e-4 -2e-3 -0.0018-6e-3 -0.0018-8e-3 2.85e-4 -2e-3 0.0073-0.01 0.0073-0.0118 0-0.0309-0.0096-0.0591-0.01183-0.0894 0.12373-0.57456-0.07993-0.9786-0.60581-1.2116-0.0096-5e-3 -0.01861-7e-3 -0.02869-0.0118-0.19329-0.0817-0.44158-0.13386-0.71888-0.17045-0.08644-0.0125-0.1696-0.0238-0.25988-0.032-0.19454-0.0319-0.39383-0.0428-0.59736-0.0253-0.13963-3e-3 -0.26912-3e-3 -0.38306 2e-3h-0.82857l-7.9312 8.8644-7.5076 8.3884c-0.12351 0.123-0.20213 0.1952-0.26831 0.2531l-0.08269-8.1033c-0.06398-6.2567-0.13496-7.9508-0.45394-8.6062-0.02805-0.0753-0.06047-0.13413-0.09281-0.19575l-0.0017-0.12657-0.07255-5e-3c-0.28308-0.41599-0.73112-0.45956-1.3837-0.46407-0.08907-6e-3 -0.17696-0.0169-0.26831-0.0152zm27.336 8e-3c-5e-3 0-0.0106 3e-3 -0.0152 3e-3h-2e-3c-6e-3 -4e-5 -0.011-2e-3 -0.0169-2e-3 -0.0905 0-0.17706 8e-3 -0.26323 0.0169-0.56849 0.0465-1.0032 0.22405-1.323 0.53663-0.0477 0.0467-0.0992 0.0889-0.14176 0.14174-0.23595 0.24651-0.40733 0.54033-0.49781 0.8623-0.0584 0.10978-0.0978 0.21431-0.0978 0.30377 0 0.082 0.0106 0.16871 0.0236 0.25649 1.9e-4 0.0638 6e-3 0.12797 0.0118 0.19237 2e-3 0.18062 0.037 0.35205 0.11307 0.51975 0.10727 0.2999 0.28279 0.59538 0.5383 0.86738 0.3574 0.38041 0.77891 0.59754 1.2066 0.67836 0.0286 5e-3 0.0587 6e-3 0.0877 0.01 0.15778 0.0229 0.31492 0.03 0.47081 0.0169 3e-3 2.2e-4 0.0106 3e-3 0.0135 3e-3 5e-3 2.5e-4 0.0116-3e-3 0.0169-3e-3 4.9e-4 1e-5 8.6e-4 0 2e-3 0 0.12531-0.0125 0.2473-0.0399 0.36785-0.0743 0.87844-0.19194 1.5761-0.98176 1.5761-2.1684 0-0.0159-3e-3 -0.0298-3e-3 -0.0456 1.4e-4 -0.01 3e-3 -0.0188 3e-3 -0.0287 0-2e-3 -2e-3 -6e-3 -2e-3 -8e-3 3e-5 -2e-3 2e-3 -6e-3 2e-3 -8e-3 0-0.0547-0.0147-0.10907-0.0202-0.1637-6.4e-4 -6e-3 -8.6e-4 -0.0124-2e-3 -0.0186-6e-3 -0.0653-6e-3 -0.1349-0.0151-0.19743-0.0714-0.45172-0.24919-0.82385-0.51806-1.1036-0.0465-0.0484-0.10158-0.0872-0.15356-0.12994-0.0512-0.043-0.0991-0.0894-0.15525-0.12655-0.32087-0.21243-0.71974-0.32906-1.1812-0.32906h-6e-3c-6e-3 -8e-5 -0.0124-2e-3 -0.0186-2e-3zm45.23 3e-3c-0.17984-7e-3 -0.39097 2e-3 -0.62437 3e-3 -0.0208 8e-5 -0.0344 1e-4 -0.0557 0-2.0591-0.01-2.029-0.27472-1.922 16.969 0.0698 11.259 0.12498 14.435 0.40836 15.856l3e-3 0.5923 0.48769 0.7357c0.97586 1.9077 2.232 2.8504 4.2575 3.1944 0.47018 0.079 0.81783 0.1369 1.1036 0.1738 0.72187 0.1922 1.2962-0.02 1.6166-0.5535 0.74779-0.7786 0.7218-1.6916 0.0776-2.3979-0.20436-0.4662-0.5619-0.7064-1.0716-0.7205-0.10179-0.043-0.19268-0.093-0.30376-0.13-0.57596-0.1914-1.3451-0.751-1.7094-1.2421-0.64432-0.8683-0.66679-1.3009-0.82012-16.311-1e-5 -0.03 0-0.04 0-0.07-1.8e-4 -0.018 1.8e-4 -0.022 0-0.04v-0.3239c-8.7e-4 -8.3287-0.0119-11.955-0.15018-13.547-4.8e-4 -6e-3 -8.7e-4 -8e-3 -2e-3 -0.0152-1.7e-4 -2e-3 1.6e-4 -5e-3 0-6e-3 -2.6e-4 -3e-3 -2e-3 -5e-3 -2e-3 -8e-3 -0.0106-0.11496-0.0221-0.21288-0.0338-0.30882-0.0676-0.67364-0.15994-1.0044-0.28519-1.1829l-2e-3 -0.19237-0.189-0.0152c-8.6e-4 -8.7e-4 -2e-3 -2e-3 -3e-3 -3e-3 -0.13403-0.24921-0.29879-0.37267-0.50793-0.42018-0.0827-0.0188-0.17515-0.0301-0.27168-0.0338-6e-4 -3e-5 -8.6e-4 2e-5 -2e-3 0zm-98.205 3.0318c-2.8725 5e-3 -4.7257 0.28241-6.9676 1.1542-1.212 0.41347-2.3638 0.96374-3.4745 1.6555-0.20324 0.1195-0.39709 0.25404-0.59568 0.38133-2.0656 1.3243-3.8684 3.0567-5.2481 5.0439-0.36575 0.48216-0.68702 0.93689-0.86568 1.2673-0.21026 0.38891-0.40047 0.79178-0.57543 1.2032-0.80625 1.6437-1.0277 2.3006-1.0749 3.9267-0.21542 1.5265-0.22113 3.079 0.02362 4.5598 0.02927 0.177 0.05832 0.2477 0.08774 0.3829 0.02926 0.2736 0.06018 0.4818 0.0945 0.5654 0.0072 0.017 0.01464 0.021 0.02194 0.038l0.0051 0.044 0.0051-0.026c0.30428 0.6804 0.63708 0.617 0.44043-0.1349-0.03663-0.14-0.05449-0.3128-0.05738-0.508 0.03175-0.2402 0.06406-0.4779 0.08437-0.8386 0.0056-0.098 0.02062-0.1983 0.03038-0.2971 0.19665-1.1338 0.6377-2.5164 1.1829-3.6028 0.02229-0.041 0.04297-0.082 0.06581-0.1232 0.05198-0.099 0.10688-0.1882 0.16031-0.2817 0.1152-0.1944 0.2342-0.3878 0.36112-0.5788 0.02003-0.03 0.04212-0.06 0.06243-0.09 0.27066-0.4004 0.56482-0.79286 0.88256-1.1728 0.02319-0.0278 0.04407-0.0566 0.0675-0.0842 0.13648-0.16079 0.28109-0.31667 0.42525-0.47256 0.07334-0.0789 0.14609-0.15876 0.22106-0.23633 0.137-0.14191 0.27716-0.28135 0.42018-0.41845 0.1121-0.10692 0.22718-0.21063 0.34256-0.31391 0.10401-0.0939 0.20716-0.18916 0.31387-0.28007 0.25293-0.21371 0.51042-0.42241 0.77793-0.61936 0.28236-0.20784 0.57422-0.40502 0.87243-0.59397 0.02696-0.0171 0.05394-0.0341 0.08101-0.0501 0.23289-0.14553 0.47328-0.28114 0.7155-0.41515 0.14376-0.0779 0.28762-0.15759 0.43369-0.22951 0.02721-0.0138 0.05538-0.0267 0.08269-0.0405 0.36094-0.17552 0.71085-0.33812 1.0547-0.48771 0.09233-0.0384 0.18501-0.0768 0.27844-0.11469 0.14289-0.0598 0.28413-0.1148 0.42525-0.1705 2.4776-0.91438 5.3208-1.3272 8.456-1.1998 3.1542 0.12825 4.3207 0.39168 7.4233 1.6706 0.15006 0.0619 0.27564 0.0726 0.3915 0.0288l0.10462 0.0352 0.12656-0.23623c0.1351-0.16389 0.27148-0.408 0.43875-0.80832 1.0892-2.607-0.23781-5.2901-3.3227-6.718-1.5196-0.70329-2.2042-0.82369-4.779-0.81505zm-27.398 6.1476c-0.33184-8.5e-4 -0.6513 0.0373-0.96018 0.10797-0.15388 0.0256-0.30321 0.0566-0.44887 0.096-0.45764 0.0544-0.75625 0.18267-1.0817 0.46413-1.0976 0.67654-1.8647 1.9153-2.3203 3.6872-0.01131 0.0416-0.02139 0.0832-0.03206 0.12483-0.0321 0.13102-0.07423 0.24614-0.10294 0.38304-0.02208 0.10562-0.02985 0.22448-0.04725 0.33417-0.01072 0.0662-0.01777 0.13272-0.02701 0.19909-0.02527 0.19343-0.04912 0.3873-0.06075 0.59236-0.04653 0.65075-0.03081 1.3247 0.06243 2.0149 0.02428 0.1796 0.06724 0.3827 0.10462 0.5788 0.28633 1.7584 0.90212 3.6896 1.8259 5.5823 0.30074 0.616 0.65867 1.2271 1.0581 1.8275 0.05583 0.09 0.11155 0.193 0.16706 0.2767 0.36814 0.5546 0.8136 1.1059 1.2909 1.6504 0.0089 0.011 0.01988 0.026 0.02869 0.038 0.05896 0.072 0.13719 0.1424 0.19912 0.2144 0.0898 0.1013 0.18307 0.1992 0.27506 0.2987 0.23148 0.2521 0.46614 0.5024 0.729 0.7509 2.1448 2.1105 4.7451 3.8262 7.2748 4.6929 0.50926 0.1816 1.0045 0.324 1.4766 0.4168 0.16221 0.032 0.32267 0.051 0.48431 0.078 0.05379 0.011 0.10608 0.019 0.16031 0.027 0.03412 0.011 0.06708 0.02 0.10125 0.027 0.58484 0.1248 1.2791 0.1801 2.0199 0.1789 0.0071 2e-4 0.02864 0.011 0.03545 0.011 0.13608 0 0.30352 0 0.46912-0.012 0.87064-0.011 1.7261-0.098 2.5667-0.258 1.337-0.2207 2.5803-0.5928 3.5522-1.1087 0.10648-0.057 0.14764-0.087 0.21769-0.13l0.486-0.2076h-0.31894c-0.10402-0.041-0.48944-0.034-1.0918 0h-1.5221c-0.6867 0-1.2236 0-1.6774-0.028-0.0056-2e-4 -0.0097 0-0.01519 0-1.0549-0.1418-2.0794-0.4352-3.1202-0.901-0.13451-0.064-0.24097-0.1073-0.3915-0.1805-0.16726-0.081-0.33575-0.1699-0.50456-0.2599-0.19171-0.1014-0.38144-0.2068-0.56868-0.3174-0.06606-0.038-0.13272-0.08-0.19912-0.1198-0.10311-0.063-0.20688-0.1258-0.30881-0.1922-0.17288-0.1118-0.34097-0.2319-0.50962-0.3512-0.3969-0.2832-0.78543-0.5858-1.161-0.9129-0.2648-0.2347-0.52842-0.4716-0.78468-0.734-0.03158-0.031-0.06311-0.063-0.0945-0.095-2.231-2.3219-4.0951-5.6258-5.0051-9.045-0.478-1.796-0.61858-5.0077-0.38306-8.424 0.01909-0.1401 0.02687-0.2597 0.03038-0.3729l0.10969-0.66995-0.27338-0.0501c-0.05579-0.0405-0.13257-0.0726-0.22781-0.0982-0.29188-0.13572-0.76316-0.1721-1.4867-0.17551zm98.008 0.972c-0.19167-0.017-0.43394 0-0.74249 0.0341-0.21962 0-0.45573 0.0224-0.71044 0.0522-2.4801 0.29149-4.7635 1.381-6.5542 3.0105-0.0356 0.032-0.073 0.0619-0.10799 0.0939-0.30969 0.28872-0.60015 0.596-0.87749 0.91641-0.0115 0.0128-0.0224 0.0267-0.0338 0.0405-0.85353 0.99472-1.5458 2.1313-2.025 3.3751-2e-3 0.011-5e-3 0.012-6e-3 0.018-0.0861 0.2016-0.15888 0.4036-0.22106 0.6193-5e-3 0.016-0.0106 0.03-0.0152 0.046-0.0957 0.3055-0.18364 0.8893-0.26663 1.61-0.38061 2.1904-0.51162 5.2466-0.51637 10.3-1e-4 0.096 2e-3 0.1415 2e-3 0.2345-0.02 1.9414 5e-3 3.6307 0.0827 4.7672 7.9e-4 0.012 8.6e-4 0.03 2e-3 0.04 0.0469 0.661 0.10864 1.1703 0.19575 1.333 0.2461 0.4599 0.57677 0.6268 1.3179 0.6683 0.28725 0.038 0.59185 0.039 0.89098 0 0.19184-0.011 0.37184-0.02 0.51637-0.061 0.18116-0.034 0.34778-0.079 0.47081-0.1417h2e-3c0.0469-0.023 0.0731-0.054 0.11137-0.082 0.0471-0.027 0.10863-0.051 0.13668-0.079 0.22129-0.2215 0.32847-1.7382 0.36281-4.9595 0.0298-1.0449 0.0541-2.2133 0.0709-3.5218 0.0456-3.5451 0.0847-5.469 0.17719-6.7551 0.0291-0.3419 0.0577-0.7028 0.0894-0.8708 0.66223-3.508 3.1878-6.0334 6.5677-6.5677 0.67927-0.10734 1.1848-0.23548 1.5711-0.4016l0.55519-0.10969 0.0152-0.24978c0.32769-0.31154 0.46068-0.7269 0.46068-1.3246 0-0.65084-0.15557-1.1255-0.46575-1.4547l-0.01-0.13838-0.15526-0.0106c-0.0163-0.0128-0.0286-0.0288-0.0456-0.0405-8e-3 -0.0106-0.021-0.0192-0.0304-0.0288-8.7e-4 -6.3e-4 -2e-3 -8.5e-4 -3e-3 0-0.0684-0.0704-0.15687-0.12995-0.26662-0.17722-0.15855-0.0982-0.32321-0.16804-0.54338-0.18736zm100.19 0.0619c-0.6041 0-1.2212 0.0405-1.8444 0.13668-1.1028 0.17071-2.0774 0.43232-2.9362 0.77962-0.1716 0.064-0.33354 0.13944-0.49275 0.21606-0.11773 0.0555-0.23836 0.10947-0.35101 0.16868-0.0152 0.0106-0.0304 0.0181-0.0455 0.0267-2.046 1.0935-3.2423 2.8175-3.618 5.1992-0.0956 0.508-0.1339 1.0206-0.11644 1.5339-6e-3 2.2382 0.81421 3.9397 2.4384 5.044 0.20153 0.1434 0.41428 0.2748 0.63955 0.3897 6e-3 0 0.0221 0.011 0.0287 0.012 0.0138 0.011 0.0249 0.016 0.0389 0.024 0.22416 0.1144 0.66086 0.2841 1.1694 0.4709 0.0892 0.034 0.18864 0.07 0.28517 0.1024 1.0171 0.3636 2.3363 0.7927 3.6332 1.1661 2.1167 0.6092 4.304 1.39 4.8616 1.7347 0.12723 0.079 0.24368 0.163 0.35605 0.2497 0.0324 0.026 0.0638 0.05 0.0945 0.076 0.0957 0.079 0.18921 0.1587 0.27338 0.2429 0.24654 0.2548 0.43754 0.5298 0.58723 0.8438 0.32426 0.6799 0.37014 1.4617 0.19406 2.1987-2e-3 0.011-2e-3 0.011-3e-3 0.017-0.25119 0.7936-0.82993 1.5518-1.7314 2.1364-1.1394 0.7388-1.6716 0.8674-3.569 0.8674-1.6694 0-2.9368-0.3249-3.9116-1.021-0.0192-0.013-0.0366-0.028-0.0557-0.043-0.5703-0.4208-1.0414-0.9704-1.4293-1.6655-0.19534-0.35-0.35706-0.6005-0.5248-0.7881-0.30001-0.4744-0.58727-0.5681-1.1981-0.5467-0.12651-0.03-0.25169-0.051-0.37292-0.051-0.15859 0-0.30698 0.02-0.4472 0.057-0.76579 0.052-1.197 0.3525-1.3095 0.935-0.0897 0.3595-0.0301 0.8395 0.1603 1.4748 0.01 0.032 0.0267 0.065 0.0371 0.096 0.0446 0.1379 0.10414 0.2717 0.16032 0.4067 0.0304 0.069 0.0552 0.136 0.0894 0.2042 0.79209 1.7067 2.4886 3.1622 4.7368 3.964 1.0116 0.3609 2.7464 0.4964 4.4617 0.4336 0.30912-0.011 0.61143-0.025 0.91292-0.047 0.34986-0.027 0.68796-0.065 1.0176-0.1129 0.12163-0.016 0.235-0.038 0.35268-0.056 0.11942-0.02 0.24274-0.036 0.35775-0.061 0.0248-0.011 0.0446-0.013 0.0692-0.019 0.4766-0.093 0.92358-0.1988 1.2808-0.3324 1.0154-0.3798 1.9518-1.0084 2.7438-1.7736 0.11883-0.1097 0.23202-0.225 0.34257-0.3426 0.0394-0.043 0.0831-0.081 0.12149-0.1248 0.16725-0.1868 0.32212-0.3854 0.46913-0.5905 0.0941-0.1276 0.17931-0.2582 0.26493-0.3899 0.46988-0.7229 0.82157-1.4987 0.9855-2.2883 0.39231-1.8897 0.22013-3.481-0.50626-4.8447-6e-3 -0.015-0.01-0.034-0.0152-0.049-0.0908-0.2188-0.19356-0.4086-0.30712-0.562-0.32844-0.4433-0.64666-0.8067-1.0479-1.1374-0.0511-0.047-0.0921-0.098-0.14512-0.1451-1.0636-0.9339-1.8991-1.2454-8.6315-3.2163-0.26428-0.077-0.496-0.159-0.73068-0.2413-0.18232-0.066-0.36474-0.135-0.5265-0.1992-2.0002-0.8168-2.7481-1.8949-2.5549-3.6095 0.0926-0.8221 0.37911-1.5054 0.82519-2.057 0.0896-0.0875 0.1486-0.15748 0.25482-0.2565 0.22505-0.20997 0.45977-0.39082 0.69861-0.55695 0.0925-0.0555 0.18076-0.11554 0.28013-0.16537 0.20298-0.10243 0.42898-0.18288 0.65643-0.26151 0.0847-0.0278 0.15969-0.0651 0.24806-0.0897 0.0437-0.0128 0.0939-0.0181 0.13838-0.031 0.55601-0.14063 1.1749-0.2214 1.868-0.22791 0.55412 0 1.0451 0.0373 1.4917 0.12495 0.0288 0.0106 0.061 0.0106 0.0894 0.0138 0.0761 0.016 0.14279 0.0427 0.21601 0.063 0.16941 0.0459 0.33921 0.0918 0.49611 0.15354 8.8e-4 4.3e-4 2e-3 8.6e-4 3e-3 0 0.01 0 0.0188 0.0106 0.0287 0.0138 0.18684 0.0757 0.36364 0.16324 0.53325 0.26161 0.7176 0.43105 1.2796 1.0974 1.7685 2.0571 0.18107 0.3554 0.37034 0.6458 0.567 0.8943 0.12332 0.1948 0.25281 0.3377 0.40162 0.4405 0.59579 0.5259 1.331 0.6095 2.1836 0.221 5e-3 0 8e-3 -0.011 0.0135-0.011 0.01 0 0.0176-0.011 0.0269-0.011 0.16411-0.075 0.28453-0.1433 0.38643-0.216 0.0122-0.011 0.0342-0.016 0.0456-0.026 0.0521-0.041 0.0954-0.082 0.13163-0.1299h2e-3c0.0357-0.048 0.0643-0.099 0.086-0.1587 5.6e-4 0 8.6e-4 0 2e-3 -0.011 0.0208-0.058 0.0363-0.1253 0.0456-0.1991 1.9e-4 0-1.9e-4 0 0-0.011 5e-3 -0.033 5e-3 -0.077 6e-3 -0.1147 8.7e-4 -0.017 8.7e-4 -0.035 2e-3 -0.053 2.6e-4 0-2.6e-4 0 0 0 0.14992-0.6139-0.0133-1.4146-0.41851-2.241-0.0157-0.0363-0.0374-0.0715-0.054-0.10797-8e-3 -0.0171-0.0164-0.0341-0.0253-0.0512-0.48718-1.0731-1.329-1.9923-2.4131-2.6982-0.22761-0.15694-0.46166-0.30695-0.70707-0.43541-0.0649-0.0341-0.15527-0.0587-0.22612-0.0907-0.31519-0.15247-0.6406-0.29416-0.98212-0.41345-2e-3 -8.5e-4 -5e-3 0-6e-3 0-0.01 0-0.0206 0-0.0304-0.0106-0.19475-0.0757-0.38824-0.13155-0.58725-0.17722-0.87485-0.2422-1.8122-0.3825-2.7877-0.38975zm-53.72 0.15524c-0.94297 0-1.8771 0.1067-2.7894 0.29362-1.1365 0.0982-1.738 0.34335-3.0189 0.95013-0.20518 0.0971-0.4043 0.21296-0.60581 0.32221-0.039 0.0203-0.0776 0.0405-0.11643 0.0608-0.13927 0.0768-0.27964 0.15002-0.41681 0.23281-1.7636 1.0022-3.3097 2.3778-4.4752 4.0719-0.567 0.8241-1.0204 1.7478-1.3719 2.7253-0.35474 0.81483-0.54783 1.4414-0.6193 2.3507-0.0668 0.3859-0.1192 0.7746-0.15526 1.166-0.0213 0.2307-0.0351 0.4622-0.0456 0.6936-2e-3 0.046-5e-3 0.092-6e-3 0.1384-0.037 1.0254 0.0312 2.0509 0.20924 3.0459 0.0933 1.1506 0.32822 1.7572 0.92306 3.0003 6e-3 0.013 0.0138 0.025 0.0202 0.038 2.2e-4 5e-4 -2.2e-4 0 0 0 8e-3 0.018 0.0186 0.034 0.0271 0.052 0.20257 0.4181 0.4113 0.8174 0.62942 1.1947 4e-3 0.011 7e-3 0.012 0.0118 0.018 0.70479 1.2151 1.5064 2.2257 2.4604 3.0982 1.3358 1.2679 2.9082 2.2579 4.671 2.9111 0.41736 0.1545 0.81921 0.2586 1.2386 0.3425 0.55371 0.1348 1.1492 0.194 2.0081 0.2025 0.98705 0.053 2.0421 0.027 3.0544-0.079 0.16417-0.011 0.39204-0.013 0.53831-0.024 0.24635-0.017 0.46791-0.038 0.675-0.064 6e-3 -8e-4 0.01 0 0.0152 0 0.2044-0.026 0.3928-0.057 0.57375-0.095 8.7e-4 -4e-4 2e-3 0 4e-3 0 0.15948-0.033 0.31203-0.073 0.46405-0.1181 0.0221-0.011 0.0455-0.011 0.0675-0.017 5e-4 -2e-4 8.6e-4 1e-4 2e-3 0 0.0926-0.029 0.18838-0.065 0.28182-0.098 0.0872-0.031 0.17544-0.059 0.26494-0.095 0.27094-0.1074 0.59939-0.2661 0.92811-0.4235 0.094-0.045 0.16517-0.072 0.26663-0.1215h6e-3c0.0327-0.015 0.0525-0.022 0.0861-0.038 2.4756-1.2188 5.2413-3.6993 5.2413-4.6995v-0.011c0-0.011-5e-3 -0.021-5e-3 -0.03-7e-5 0 9e-5 0 0-0.011 6.4e-4 -0.011 5e-3 -0.022 5e-3 -0.032 0-0.1175-0.0178-0.2306-0.0473-0.3409-0.0336-0.2521-0.18229-0.4809-0.44889-0.7474-0.39522-0.3954-0.87662-0.5512-1.4242-0.4963h-0.0304c-0.01 0-0.0204 0.011-0.0304 0.011h-0.01c-0.20551 0-0.41748 0.052-0.63618 0.1282-0.10854 0.028-0.22101 0.082-0.33412 0.1401-0.11721 0.06-0.24304 0.1424-0.36788 0.2245-0.30271 0.1915-0.62122 0.423-0.98211 0.7408-0.82429 0.7255-1.5846 1.2767-2.354 1.6874-0.0214 0.012-0.0427 0.022-0.0642 0.034-0.24504 0.1283-0.49109 0.2421-0.7408 0.3425-8e-3 0-0.0168 0.011-0.0253 0.012h-8e-3c-1.0631 0.4219-2.191 0.6022-3.5674 0.6127-0.27539 0-0.50099-0.011-0.74081-0.017-2e-3 -1e-4 -5e-3 1e-4 -6e-3 0-1.4447-0.098-2.784-0.4802-3.969-1.107-1.3673-0.8099-2.5897-1.9718-3.4425-3.2654-0.0508-0.074-0.1004-0.1483-0.15019-0.2243-0.13831-0.2237-0.26699-0.4506-0.38137-0.68l-0.33918-0.6785-0.37632-0.8437c0.0319-0.045 0.0841-0.083 0.13669-0.1215l10.766-0.082c4.1271-0.031 6.7622-0.04 8.5775-0.1418 0.60372-0.021 1.236-0.044 1.5812-0.083l1.1323-0.011 0.0894-0.1603h0.10627l0.0708-0.1569h0.0743l8e-3 -0.1789 0.0151-0.032c0.0322-0.021 0.0566-0.048 0.0844-0.071 0.0178-0.016 0.0378-0.033 0.054-0.051 0.15279-0.1502 0.23604-0.3333 0.27338-0.5569 0.0593-0.2722 0.0639-0.5959 0.0405-0.9872 0.048-0.6105-2e-3 -1.3116-0.14513-2.069-0.0596-0.4411-0.14059-0.8755-0.243-1.3044-0.0349-0.151-0.0679-0.3136-0.11136-0.4623-0.71775-2.5948-2.2053-4.9104-4.1951-6.664-0.0908-0.0811-0.17842-0.16494-0.27167-0.24304-0.19017-0.15888-0.38869-0.30718-0.58726-0.45559-0.0968-0.0715-0.19094-0.14638-0.29025-0.21606-0.26062-0.18426-0.52984-0.35572-0.80325-0.52142-0.0386-0.0235-0.0757-0.048-0.11474-0.0704-0.23289-0.13785-0.47076-0.26599-0.71212-0.38975-0.0556-0.0288-0.1111-0.0566-0.16707-0.0842-0.0395-0.0203-0.0749-0.0427-0.11475-0.063-0.0497-0.0246-0.0755-0.0341-0.12319-0.0577-0.12581-0.0587-0.25015-0.12014-0.37798-0.1754-0.90755-0.43319-1.5253-0.67059-2.3844-0.76447-0.32659-0.0715-0.65414-0.13817-0.98888-0.18395-0.64998-0.0886-1.3002-0.13081-1.9474-0.12824zm28.946 0.0171c-6.246 0.0246-11.12 3.9926-12.869 9.1614-0.0483 0.1304-0.0933 0.26683-0.13162 0.39483-6e-3 0.017-0.0115 0.035-0.0169 0.052-0.026 0.09-0.0493 0.1846-0.0709 0.2768-3.9e-4 0-8.6e-4 0-2e-3 0.011-0.0181 0.066-0.0335 0.1315-0.0507 0.1974-3e-3 0.018-0.01 0.035-0.0135 0.053-0.511 2.0058-0.55952 4.1571-0.0523 6.3095 0.0136 0.1046 0.0232 0.2163 0.0405 0.3139 3.7e-4 0 2e-3 0.011 2e-3 0.011 0.0328 0.1835 0.073 0.3566 0.12151 0.5281 8.6e-4 0 7.7e-4 0.011 2e-3 0.011 0.0479 0.1682 0.10455 0.3347 0.17043 0.5079 0.13881 0.3693 0.31975 0.7683 0.55856 1.2723 0.859 1.8133 1.8758 3.2295 3.1877 4.4044 1.3272 1.2403 2.8897 2.2145 4.6153 2.8502 0.38534 0.142 0.7583 0.2421 1.1458 0.3241 0.46921 0.1222 0.9897 0.177 1.6369 0.1973 1.159 0.1179 2.3872 0.1003 3.5977-0.056 1.4845-0.076 2.2668-0.2626 3.3463-0.7543 0.82082-0.3131 1.5826-0.7426 2.3507-1.3079 1.889-1.2914 3.6366-3.0259 3.6366-3.7732v0c0-0.011-2e-3 -0.011-2e-3 -0.016-6e-3 -0.5283-0.29597-0.973-0.75262-1.2605-0.29827-0.296-0.73052-0.4121-1.242-0.3426-5.7e-4 0-8.6e-4 1e-4 -2e-3 0h-0.0152c-0.0148 0-0.0291 0.011-0.0438 0.011-0.0733 0.011-0.14575 0.012-0.22106 0.027-0.63927 0.074-1.2517 0.4202-2.1431 1.2268-1.0757 0.9736-2.0372 1.6305-3.0712 2.0503-0.01 0-0.0177 0.011-0.0269 0.014h-0.0118c-1.0414 0.416-2.1589 0.592-3.542 0.6024-0.38894 0-0.72534-0.011-1.0463-0.024-0.97613-0.079-1.8599-0.2715-2.678-0.5889-0.0802-0.031-0.15553-0.072-0.23454-0.1066-1.454-0.6947-2.8035-1.805-3.7935-3.0931-0.19558-0.2673-0.38615-0.5466-0.57207-0.8303-0.13163-0.2147-0.25658-0.4314-0.36618-0.6514l-0.73912-1.4833c0.01-0.018 0.01-0.04 0.022-0.057 0.0271-0.038 0.0782-0.067 0.11981-0.099 4e-3 -4e-4 0.0181 0 0.022 0l10.741-0.081c5.102-0.038 8.0769-0.029 9.8144-0.2211 5e-3 -7e-4 0.01 0 0.0152 0l1.5002-0.011 0.15188-0.3173h0.12656l0.0405-0.1501c0.57922-0.3979 0.5497-1.0834 0.44888-2.1448-0.0201-0.2516-0.0388-0.4863-0.0591-0.7864-0.28585-4.2216-2.4922-8.021-6.0294-10.383-2.3475-1.5676-4.6835-2.2572-7.6157-2.246zm-93.153 0.0522c-0.16218 0-0.32741 0.0106-0.48769 0.0309-2e-3 2.2e-4 -5e-3 0-6e-3 0-2e-3 2.2e-4 -3e-3 -2.1e-4 -5e-3 0-0.0204 0-0.0389 0.0106-0.0591 0.0106-0.40412 0.0437-0.75366 0.14511-0.94836 0.30547-0.0143 0.0106-0.041 0.0203-0.0523 0.032-0.0339 0.0352-0.0665 0.16207-0.0962 0.37461-2.6e-4 0 2.4e-4 0 0 0-0.0117 0.0842-0.021 0.23675-0.032 0.3459-3.3e-4 0-2e-3 0.0106-2e-3 0.0106-5e-3 0.0213-0.01 0.0299-0.0135 0.0522-2.5e-4 0 2.4e-4 0 0 0-0.10243 0.58384-0.15388 1.9222-0.18731 3.888-7e-3 0.35604-0.0165 0.79352-0.022 1.2032-5e-3 0.4443-8e-3 0.948-0.0118 1.4664-7e-5 0.012 7e-5 0.032 0 0.044-5e-3 0.3417-0.0145 0.6169-0.0185 0.9703-2e-5 0 1e-5 0 0 0-0.017 1.5025-0.0253 3.1016-0.0253 4.6996 1e-5 1.598 8e-3 3.1955 0.0253 4.698 3e-3 0.3195 0.0125 0.5674 0.0169 0.8774 2e-4 0.014-2e-4 0.026 0 0.038 2e-5 0-3e-5 0 0 0.011 0.0115 2.089 0.0307 3.7384 0.0725 4.7554 0.0331 0.8679 0.0783 1.429 0.14006 1.8141 0.0148 0.1558 0.0311 0.2905 0.0473 0.3881 3e-3 0.028 7e-3 0.08 0.0106 0.1067 1.2e-4 7e-4 -1.1e-4 0 0 0 0.0297 0.2103 0.0624 0.3391 0.0961 0.3729 0.18084 0.1808 0.71817 0.3269 1.2656 0.3645 0.27739 0.031 0.55769 0.03 0.82518 0 0.0655 0 0.12953-0.011 0.19239-0.011 0.0296 0 0.0714 0 0.0995-0.011 0.0226 0 0.0358-0.011 0.0574-0.012 0.4047-0.044 0.73101-0.1302 0.81842-0.2717 7e-3 -0.013 0.0143-0.099 0.022-0.1349 0.0424-0.052 0.0905-0.098 0.12488-0.1621 0.0259-0.048 0.0511-0.1651 0.0742-0.3425 1.2e-4 -8e-4 -9e-5 0 0 0 0.023-0.1782 0.0457-0.4212 0.0658-0.724 1.4e-4 0-1.3e-4 -0.011 0-0.011 0.0406-0.6145 0.0751-1.4831 0.10296-2.5818 0.028-1.0997 0.0482-2.4356 0.0624-3.9875 0.0142-1.5368 0.0217-3.2941 0.022-5.2431 0-0.021 1e-5 -0.037 0-0.057 0-5.8761 2e-3 -9.0754-0.15862-10.915-0.0475-0.96623-0.10136-1.678-0.16875-1.8039-0.13535-0.25299-0.33755-0.40673-0.64969-0.49955-0.26008-0.11118-0.60346-0.11385-1.0209-0.11139-2e-3 1.1e-4 -5e-3 0-7e-3 0h-4e-3c-0.0593 4.2e-4 -0.10242 0-0.16537 0zm-55.907 0.34089c-0.24414 1.1e-4 -0.48337 0.0203-0.72562 0.031-0.0051 2.2e-4 -0.01014-2.1e-4 -0.01519 0-2.3268 0.095-4.5554 0.6134-6.4226 1.566-0.46252 0.23601-1.2118 0.81131-1.9845 1.4462-0.10194 0.0779-0.2037 0.15684-0.30375 0.23793-0.62197 0.48151-1.162 0.97476-1.5626 1.4243-0.63108 0.61617-1.1374 1.1603-1.1374 1.3365 0 0.05 0.10148 0.026 0.23962-0.029l-0.08101 0.1067 0.16369-0.1231-0.09619 0.1502 0.25144-0.2312c0.01981-0.015 0.04378-0.03 0.06919-0.051 0.27935-0.149 0.62926-0.3598 1.0311-0.6362 0.57186-0.39334 1.1859-0.71642 1.8276-0.97878 0.08989-0.0352 0.18059-0.0683 0.27169-0.10136 0.15484-0.0577 0.31272-0.10947 0.47081-0.16036 0.19041-0.0587 0.38237-0.11257 0.57712-0.16197 0.1229-0.0299 0.24596-0.0598 0.37125-0.0864 0.1033-0.0224 0.20787-0.0426 0.31219-0.063 0.78902-0.14435 1.6209-0.22107 2.4941-0.22107 0.4272 0 0.84694 0.031 1.2656 0.0662 2.6385 0.28189 5.3794 1.3159 7.8688 3.0459 0.93381 0.6818 1.8525 1.4762 2.759 2.3878 1.015 1.0207 1.8569 1.9803 2.5616 2.9294 1.1745 1.7143 2.075 3.6923 3.083 6.5949 0.0028 0.011 0.01789 0.057 0.02025 0.064 6.67e-4 0 0.0027 0 0.0034 0.011 0.0027 0.011 0.0057 0.014 0.0084 0.021 0.09156 0.2649 0.43999 0.3353 1.0159 0.2059 0.58716-0.1319 1.1344-0.3905 1.62-0.7442 0.0071 0 0.01322-0.011 0.02025-0.011 0.69995-0.3746 1.2178-1.0414 1.5457-1.8764 0.4533-0.8971 0.67656-1.9203 0.54844-2.9431-0.39203-3.1292-2.2055-5.967-5.5097-8.6214-1.7359-1.3944-3.2869-2.3468-5.0304-3.0627-0.0027-9.2e-4 -0.0057 0-0.0084 0-0.53741-0.23782-1.0713-0.43905-1.5947-0.60069-0.92106-0.28455-1.8356-0.49464-2.7422-0.64466-0.03994-0.0106-0.07985-0.0117-0.11981-0.0181-0.4574-0.0725-0.91208-0.13156-1.3635-0.1705-0.0625-0.0106-0.12483-0.0138-0.18731-0.0181-0.42438-0.032-0.84629-0.0501-1.2639-0.0522-0.08349-8.6e-4 -0.16812-0.0106-0.25144-0.0106zm148.85 3.2939c2.7161-0.0384 5.4746 1.1205 7.5734 3.505 0.80688 0.9167 1.5634 2.324 1.944 3.456 0.0891 0.3069 0.16728 0.6159 0.21767 0.9264l0.0186 0.1113c0.0203 0.2196 0.0191 0.4152-0.032 0.5486-0.0606 0.158-0.40492 0.2619-1.3129 0.3307l-8.1421 0.071c-1.7182 0.015-2.6976 0.02-3.8846 0.028-2.1625-0.028-3.9292-0.079-4.8802-0.1418-0.4749-0.092-0.7348-0.2296-0.83868-0.432 0.0246-0.7838 0.67959-2.534 1.404-3.7833 0.80953-1.2729 1.921-2.3986 3.1809-3.2079 0.13481-0.0832 0.27071-0.16484 0.40836-0.24123 0.10627-0.0619 0.21272-0.121 0.32063-0.17722 0.26938-0.13625 0.54391-0.2597 0.82181-0.36789 0.0284-0.0117 0.0557-0.0246 0.0843-0.0352 0.30052-0.11373 0.60489-0.20912 0.91293-0.29032 0.0272-0.0106 0.0536-0.017 0.0809-0.0235 0.29705-0.0757 0.59763-0.1321 0.89943-0.17723 0.0653-0.0106 0.13001-0.017 0.19574-0.0256 0.24143-0.0309 0.48428-0.049 0.72732-0.0608 0.10019 0 0.19998-0.0106 0.30037-0.0138zm-28.944 0.0106c2.5958-0.0181 5.1706 1.0582 7.1246 3.1962 1.0012 1.0954 1.8632 2.6053 2.2595 3.7951 0.062 0.24 0.12624 0.4793 0.16538 0.724l0.0676 0.4186c8.7e-4 0.1602-0.0174 0.3003-0.0607 0.4133-0.0562 0.1467-0.29615 0.2491-0.9855 0.3189-2e-3 2e-4 -2e-3 -1e-4 -3e-3 0l-8.4982 0.072-4.3605 0.038c-1.4545-0.016-2.8568-0.028-3.7007-0.057-0.81796-0.072-1.258-0.2008-1.4479-0.4252 3e-3 -0.6019 0.34991-1.8319 0.80831-2.8924 0.50133-1.0077 1.1694-1.9462 1.9609-2.759 0.0571-0.058 0.11374-0.1157 0.17212-0.1721 0.17618-0.1731 0.36332-0.3329 0.55012-0.4928 0.0327-0.028 0.0649-0.055 0.0978-0.083 1.6773-1.3143 3.6008-2.0041 5.5282-2.0857 0.10993 0 0.20357-0.0106 0.3223-0.0106zm-124.3 1.0665 0.15525 0.0662-0.78806-0.0513 0.03713 0.0117h-0.03713l1.5981 0.5721c1.0685 0.38288 2.0333 0.86128 2.9042 1.4344 0.93352 0.6848 1.8516 1.5405 2.6477 2.4704 0.58761 0.73833 1.1184 1.5471 1.5727 2.4148 0.01465 0.03 0.03107 0.058 0.04556 0.087 0.50452 1.0471 0.91742 2.2113 1.2437 3.5016 1.2464 4.9286 0.20374 11.165-2.5599 15.312-0.42198 0.6333-0.74471 1.1596-0.97706 1.566l-0.30037 0.4371 0.05231 0.044c-0.0048 0.015-0.04862 0.084-0.04893 0.093-5e-3 0.133 0.45375 0.5241 1.0192 0.869 0.20912 0.1275 0.46228 0.2285 0.73068 0.3171 0.47463 0.2256 0.99413 0.3105 1.8562 0.3105 0.12099 0 0.23926-0.011 0.35775-0.017 0.74735-0.025 1.4631-0.1607 1.9761-0.4285 4.5264-2.3648 6.1398-11.671 3.2299-18.623-2.0676-4.9401-5.7102-8.4264-9.9629-9.7033-1.2558-0.42603-2.5352-0.64721-3.7901-0.62267l-0.39825 0.0106zm5.6582 5.2347c-0.10062 0.055-0.01527 0.4147 0.31219 1.0479 0.71481 1.3823 0.93775 3.7949 0.54675 5.9332-0.54484 2.9796-2.1143 5.7548-4.3588 8.0578-1.1463 1.1385-2.4486 2.1813-3.8525 3.0763-2.5027 1.5394-5.4032 2.6059-8.4847 3.0037l-1.1947 0.1536-1.4377 0.1519v0.034l-0.07256 0.011 0.07256 0.7493v0.3998c0 0.2073 0.02011 0.4132 0.05569 0.6178 0.04449 0.2866 0.12325 0.5592 0.21937 0.8235 0.1743 0.5873 0.46174 1.0414 1.0159 1.6132 0.58573 0.6043 1.497 1.2337 2.0233 1.3973 0.23681 0.073 0.66195 0.1276 1.1526 0.1635 0.87674 0.1718 1.8178 0.1461 2.9109-0.076 2.3087-0.325 4.5437-1.4194 6.863-3.3548 0.07636-0.061 0.15213-0.1221 0.22781-0.1839 0.85825-0.6801 1.6742-1.4407 2.4182-2.268 0.02532-0.028 0.05824-0.075 0.08437-0.1046 0.14822-0.1645 0.28193-0.3228 0.39656-0.4725 1.1077-1.2401 1.727-2.2257 2.4907-3.8271 1.6041-3.3637 2.0738-5.5106 1.917-8.7716-2e-3 -0.044-1e-3 -0.083-0.0034-0.1267-0.144-2.7305-0.96311-5.1124-2.4992-7.2696-0.055-0.077-0.08634-0.1014-0.13669-0.1671-0.23477-0.3476-0.39036-0.5219-0.46068-0.5214-0.09196-0.072-0.16677-0.1111-0.20587-0.09zm-28.984 6.3753-0.38812 0.4236c-0.38627 0.1158-0.74398 0.5128-1.2319 1.1744-0.5523 0.7491-0.80832 1.6378-0.79481 2.5769-0.03658 0.9299 0.24411 1.8914 0.84543 2.8719 0.08157 0.1444 0.17349 0.2849 0.26662 0.4271 0.05199 0.079 0.10981 0.1576 0.16537 0.2362 0.03883 0.058 0.08063 0.1148 0.1215 0.1721 0.09145 0.1227 0.17491 0.2461 0.27506 0.3663 0.22177 0.2746 0.47232 0.5395 0.7425 0.7948 0.01512 0.015 0.02692 0.028 0.04218 0.044 0.01765 0.016 0.0363 0.031 0.054 0.047 0.0444 0.04 0.08429 0.083 0.12994 0.1233 0.06346 0.056 0.13516 0.1074 0.20081 0.1621 0.06946 0.061 0.13891 0.1217 0.20925 0.1805 0.05473 0.047 0.10538 0.094 0.16031 0.14 0.06555 0.053 0.13271 0.1057 0.19912 0.1571 0.38581 0.3135 0.76439 0.5981 1.0682 0.7761 0.13137 0.077 0.29487 0.1611 0.46237 0.2447 1.7483 1.0018 3.845 1.6834 6.6673 2.1921 0.82883 0.1493 2.065 0.1774 3.3649 0.118 0.19329-0.011 0.386-0.015 0.57881-0.026 0.0084-6e-4 0.01687 0 0.02532 0 0.02543 0 0.0505-0.011 0.07594-0.011 0.26783-0.018 0.53512-0.038 0.80156-0.067 1.2135-0.1179 2.3783-0.3068 3.218-0.5534 2.5536-0.7502 5.8679-2.6246 7.4638-4.2205 1.5738-1.5739 3.3022-4.5513 3.6686-6.323 0.10056-0.4861 0.1489-0.7428 0.08943-0.761-0.0058-0.087-0.06117-0.041-0.20756 0.2092-0.14843 0.1882-0.35483 0.4812-0.71887 1.0193-1.1221 1.6584-3.097 3.1809-5.3122 4.1494-0.1399 0.059-0.27809 0.1203-0.42018 0.1756-0.18801 0.075-0.37647 0.1477-0.567 0.2143-0.26144 0.09-0.52842 0.1651-0.79481 0.2414-0.30781 0.085-0.62035 0.1615-0.93824 0.226-0.9647 0.175-1.9648 0.2846-2.997 0.2936-0.2363 0-0.46885 0-0.702-0.011-0.28678-0.011-0.56807-0.021-0.84712-0.038-3.2128-0.2557-6.5427-1.3465-9.4111-3.1252-0.09707-0.061-0.1939-0.1226-0.29025-0.1857-0.19178-0.1234-0.37982-0.2533-0.567-0.383-0.17959-0.1254-0.35994-0.2503-0.53662-0.3813-0.18814-0.1398-0.37102-0.2843-0.5535-0.4305-0.11154-0.089-0.22393-0.1744-0.33412-0.2649-0.31387-0.2631-0.62061-0.533-0.91462-0.815-0.48126-0.4615-0.86465-0.809-1.2049-1.0884l-0.19575-0.1805-0.8775-0.832-0.0084 0.011-0.0084-0.011zm118.39 14.322v0.046h-0.31725v11.672l-0.0135 0.9805h3.1995c0.749 0 1.2788-0.011 1.6858-0.02 0.29587-0.012 0.51059-0.031 0.67161-0.064 0.24257-0.048 0.38097-0.1236 0.41682-0.2479h3e-3c0.047-0.1105 0.0473-0.2586 0.0473-0.4539 0-0.1899-5e-3 -0.3342-0.0422-0.4438-0.0188-0.054-0.0457-0.099-0.0844-0.1384-0.0391-0.039-0.0904-0.07-0.15693-0.095-0.0664-0.026-0.14899-0.046-0.24976-0.061-0.0149 0-0.0382 0-0.054-0.011-0.0666-0.011-0.14358-0.015-0.22611-0.02h-2e-3c-0.0669-0.011-0.16454-0.011-0.243-0.011h-0.16537c-0.24164-0.011-0.47288-0.011-0.82518-0.011h-1.4859l-0.56193-0.027-0.0152-0.9584v-10.129l-0.37968 0.044h-0.55181-0.0169-0.0152-0.29701zm-39.229 0v4.5637c0 2.9561 0.04207 4.0728 0.30881 4.9444 0.0198 0.065 0.0468 0.133 0.0692 0.1958 6e-3 0.019 0.0136 0.038 0.0202 0.056 0.2878 1.1381 0.77362 1.8042 1.5778 2.3018 0.18097 0.1484 0.36453 0.2792 0.55011 0.3763 0.59408 0.311 1.2278 0.4728 1.863 0.5197 0.17021 0.016 0.34092 0.02 0.51299 0.011 0.67154-0.021 1.3308-0.1755 1.9372-0.4658 0.35921-0.1623 0.69196-0.3749 1.0007-0.6277 0.14651-0.1077 0.27521-0.2322 0.39825-0.3611 0.0353-0.038 0.0754-0.066 0.10969-0.1046 0.0202-0.024 0.0396-0.048 0.0591-0.072 0.16842-0.1949 0.32659-0.4028 0.46574-0.6311 0.0464-0.076 0.0833-0.1518 0.12318-0.2278 0.0325-0.061 0.0644-0.1275 0.0928-0.1924 0.36449-0.7649 0.40162-1.7311 0.40162-5.3831v-0.2349c1e-5 -0.011 0-0.015 0-0.024v-4.5951h-1.5813v2.1212l-0.0557 2.5971c-0.0157 0.7261-0.0327 1.1937-0.0489 1.7195-0.0606 1.0495-0.12356 2.0474-0.19743 2.6579-2e-3 0.012-5e-3 0.025-7e-3 0.035-0.0141 0.063-0.0261 0.1401-0.0422 0.1958-0.0184 0.064-0.0429 0.1115-0.0642 0.167-0.0181 0.047-0.0353 0.098-0.0557 0.1401-0.0922 0.1294-0.20158 0.262-0.33412 0.4083l-0.3105 0.3106c-0.0896 0.09-0.15057 0.137-0.2295 0.2127-0.23632 0.1936-0.47981 0.3414-0.72731 0.4537-0.44777 0.1676-0.92967 0.2134-1.4327 0.1402-0.56706-0.1305-1.1606-0.3923-1.6031-0.7223-0.0182-0.016-0.0313-0.038-0.0489-0.056-0.6888-0.7766-0.85388-2.3101-0.85388-5.9399v-4.4449h-1.5356zm21.197 0-0.33582 0.04h-1.2302l-2e-3 0.1486-0.0844 0.011 0.032 2.83-0.032 1.6791-0.0776 4.1276c-0.0293 0.1875-0.0616 0.2873-0.0978 0.2649-0.0691-0.043-0.43138-0.5337-0.93319-1.2471l-2.1127-3.1454c-0.68863-1.0253-1.2281-1.8061-1.6841-2.4452-0.0266-0.038-0.0398-0.051-0.0658-0.087-1.1352-1.6082-1.6383-2.0933-2.0722-2.1245-0.016 0-0.0331-0.011-0.0489-0.011h-5e-3 -0.7408v11.671l-0.0135 0.9804h0.0135v0.011h1.5643v-0.011l0.0877-4.6322v-0.041l0.0253-1.3348 0.0625-3.2636 0.86399 1.296 2.1414 3.3091c2.5738 3.9758 3.0748 4.5978 3.8019 4.6423 0.0184 0 0.0372 0.011 0.0557 0.011 5e-3 5e-4 0.0126 0.011 0.0169 0.011h0.0135c0.0207 0 0.0416 0.011 0.0624 0.011h0.7948v-0.011h0.0135l-0.0135-0.9788v-8.3925l0.0405-2.9616h-0.0405v-0.3232zm-39.965 0.011c-0.36042-0.011-0.71856 0.022-1.0716 0.076-0.59363 0.042-1.149 0.1368-1.5727 0.297-0.92804 0.3506-1.7575 1.0442-2.4182 1.9136-0.73201 0.8884-1.1793 1.9395-1.3534 3.0358-0.01746 0.095-0.03394 0.1884-0.04725 0.2835-0.01139 0.099-0.01673 0.1988-0.02362 0.2987-0.01674 0.1804-0.04472 0.3611-0.04556 0.5417-0.01281 2.7756 1.8778 5.5052 4.3217 6.2387 0.50324 0.151 1.0252 0.2335 1.5525 0.2581 0.08846 0.013 0.22591 0.048 0.28687 0.049 0.19559 0 0.42263-0.021 0.6598-0.057 0.12732-0.013 0.2552-0.034 0.38307-0.056 0.03502-0.011 0.06967-0.013 0.10462-0.018 0.09102-0.018 0.18189-0.034 0.27338-0.057 0.8557-0.1751 1.6914-0.5007 2.4469-0.9873 0.67135-0.4323 0.67916-0.4842 0.16875-1.161l-0.53494-0.7087-1.0597 0.6244c-0.84611 0.4993-1.729 0.6798-2.5684 0.6175-0.71965-0.079-1.4285-0.3274-2.057-0.7187-1.2313-0.8342-2.0873-2.3153-2.0857-4.1546 3.93e-4 -0.4576 0.06708-0.8914 0.18225-1.3011 0.43411-1.2998 1.3754-2.3949 2.5447-2.9633 0.22289-0.099 0.45225-0.1781 0.68512-0.243 0.27287-0.024 0.59334-0.03 1.0007-0.03 0.51404 0 0.91252 0.031 1.2606 0.084 0.29098 0.093 0.58011 0.2107 0.86062 0.3764 0.22091 0.1302 0.37431 0.2145 0.52481 0.2953 0.01183 0.011 0.03245 0.02 0.04391 0.026 3.57e-4 1e-4 9.17e-4 -4e-4 0.0018 0 0.03273 0.017 0.08149 0.046 0.11138 0.061 0.11204 0.079 0.20097 0.1126 0.28687 0.1014 0.26756 0.065 0.407-0.045 0.63112-0.3511 0.11827-0.1617 0.19562-0.3021 0.24637-0.4337 0.06994-0.092 0.11513-0.1806 0.11306-0.2649 9.17e-4 -0.014 5.78e-4 -0.028 0-0.043-0.0018-0.033-0.01357-0.066-0.0253-0.099-0.01512-0.077-0.05234-0.1532-0.13501-0.2311h-0.0018-0.0018c-0.0363-0.034-0.09193-0.071-0.14175-0.1067-0.19196-0.1837-0.49138-0.3721-0.93149-0.5959-0.30911-0.157-0.71184-0.2811-1.161-0.3711-0.48238-0.1316-0.96971-0.2076-1.4546-0.2194zm10.955 0.011c-0.11439 0.011-0.22681 0.028-0.34088 0.038-0.88024 0.02-1.6911 0.1595-2.2224 0.437-0.8852 0.4624-1.6384 1.157-2.2275 1.9779-0.03557 0.048-0.06893 0.099-0.10294 0.1484-0.07645 0.1045-0.15195 0.2087-0.22106 0.3171-0.0064 0.012-0.01357 0.022-0.02026 0.034-0.47897 0.7627-0.77457 1.6156-0.89099 2.4993-0.0092 0.059-0.01311 0.118-0.02026 0.1772-6.42e-4 0.011-9.17e-4 0.012-0.0018 0.018-0.0083 0.066-0.01586 0.1326-0.02191 0.1991-0.0046 0.067-0.01256 0.1346-0.01522 0.2025-0.0027 0.048-0.01677 0.1045-0.01687 0.1485-5.5e-5 0.041 0.0093 0.084 0.01017 0.1248 3.7e-5 0-3.7e-5 0 0 0.011-3.21e-4 0.029-0.0073 0.061-0.0064 0.091 2.8e-5 0.011 0.0018 0.013 0.0018 0.02-9.17e-4 0.3286 0.01962 0.6553 0.06582 0.9787 0.02136 0.1667 0.05949 0.3247 0.09112 0.4861 0.01513 0.07 0.02658 0.1389 0.04391 0.2075 0.35319 1.5592 1.1862 2.8419 2.3979 3.6906 0.14777 0.1097 0.30279 0.2097 0.46237 0.3054 0.02887 0.016 0.05683 0.033 0.08607 0.049 0.36501 0.2101 0.7498 0.3946 1.1728 0.5216 0.50657 0.1519 1.0037 0.2215 1.4934 0.2531 0.02035 0 0.04042 0 0.06068 0.011 0.17484 0.011 0.34974 0.024 0.52143 0.019 0.0073-3e-4 0.01577 2e-4 0.02356 0 2.4167-0.02 4.6129-1.3376 5.6311-3.5792 0.2713-0.5972 0.44467-1.2313 0.52987-1.8748 0.16515-0.985 0.09347-2.0302-0.24975-3.0763-0.48379-1.6303-1.5111-3.0377-2.9362-3.7276-0.07489-0.037-0.1645-0.065-0.24468-0.098-0.13535-0.061-0.27793-0.1134-0.42019-0.1653-0.0046 0-0.0083 0-0.01357-0.011-0.81394-0.3213-1.7182-0.4633-2.619-0.4287zm37.089 0.017c-0.78759-0.018-1.5884 0.084-2.2866 0.3475-0.0238 0.011-0.0501 0.026-0.0743 0.035-0.28585 0.099-0.55998 0.2123-0.80493 0.3511-1.154 0.6535-2.0473 1.7125-2.5684 2.9649-2e-3 0.011-7e-3 0.014-0.01 0.02-6.7e-4 0-8.6e-4 0-2e-3 0.011-0.32043 0.7795-0.49752 1.633-0.49949 2.5111-2e-3 1.0147 0.14011 2.2078 0.31556 2.6526 0.27024 0.6852 0.79243 1.423 1.4192 2.0638 0.37954 0.4176 0.81718 0.7778 1.3061 1.0732 0.21648 0.1392 0.43382 0.2656 0.64799 0.3629 0.0467 0.02 0.0949 0.035 0.14174 0.055 0.10659 0.049 0.21046 0.085 0.31557 0.1249 0.0632 0.024 0.12538 0.05 0.189 0.071 0.0189 0.011 0.0385 0.016 0.0574 0.021 0.052 0.015 0.10627 0.024 0.15863 0.037 1.05 0.3014 2.1463 0.3137 3.2079 0.039 0.091-0.022 0.18045-0.047 0.27-0.074 0.10757-0.033 0.21408-0.071 0.32062-0.1096 0.12161-0.044 0.24296-0.087 0.36112-0.1401 0.0307-0.013 0.0622-0.024 0.0928-0.038 0.14228-0.065 0.21731-0.1171 0.33918-0.1772 0.0408-0.022 0.0829-0.04 0.12319-0.064 0.54796-0.2816 0.92012-0.5319 1.0412-0.778 0.16851-0.1726 0.20227-0.2964 0.10466-0.4539h-3e-3c-0.0298-0.047-0.0926-0.1123-0.14344-0.1688-0.035-0.039-0.0533-0.068-0.0978-0.1131-3e-3 0-5e-3 0-8e-3 -0.011-0.0106-0.011-0.0128-0.016-0.0236-0.027-5e-3 -0.011-0.01-0.011-0.0151-0.012-0.037-0.047-0.0663-0.092-0.11138-0.1418-0.50641-0.5596-0.60559-0.5708-1.1002-0.1232-0.10684 0.097-0.22426 0.1784-0.34087 0.2598-0.14278 0.066-0.25413 0.114-0.43705 0.2025-0.17399 0.084-0.29687 0.1321-0.44044 0.1958-0.45149 0.1472-0.90401 0.2265-1.3466 0.2396h-3e-3c-0.54154-0.019-1.0972-0.1419-1.6386-0.3814-0.82595-0.3653-1.4929-0.8772-1.9845-1.4848-0.0198-0.026-0.0393-0.051-0.0591-0.076-0.35037-0.4522-0.60323-0.9554-0.75601-1.4918-0.0645-0.3929-0.0978-0.8264-0.0978-1.3297 0-0.3197 0.0106-0.5861 0.027-0.8386 0.0877-0.4342 0.23097-0.8716 0.44212-1.3078 0.81847-1.6908 2.6149-2.6911 4.2457-2.6679 0.0677 0 0.13521 0 0.20249 0.011 0.0289 0 0.0573 0.011 0.0861 0.011 0.188 0.022 0.3744 0.054 0.55687 0.099 0.024 0.011 0.0469 0.015 0.0709 0.021 0.10729 0.028 0.21138 0.066 0.31556 0.1024 0.0699 0.027 0.13906 0.057 0.20756 0.088 0.24014 0.1179 0.46726 0.2655 0.67162 0.4505 0.47644 0.4309 0.61628 0.4837 0.98212 0.1924 0.0878-0.038 0.16974-0.1116 0.25819-0.2161 5e-3 -0.011 8e-3 -0.011 0.0135-0.012 7e-3 -0.011 0.0128-0.012 0.0203-0.019 0.0133-0.012 0.0214-0.016 0.0354-0.028 0.30215-0.2735 0.4766-0.4687 0.49951-0.6464 2e-3 -0.012-2e-3 -0.024-2e-3 -0.035 0.0337-0.3028-0.32791-0.5528-1.1863-0.9906-0.5727-0.292-1.2564-0.4741-1.9693-0.5687-2e-3 -2e-4 -3e-3 0-6e-3 0-2e-3 -4e-4 -5e-3 0-8e-3 0-0.15766-0.02-0.31407-0.039-0.47419-0.051-0.11607-0.011-0.23162-0.014-0.34762-0.017-0.067 0-0.13349-0.011-0.20082-0.012zm5.8404 0.014v12.653h1.5812v-12.653h-0.79145zm-43.001 1.6402h0.14174c0.17922 9e-4 0.35663 4e-4 0.54506 0.019 0.16276 0.016 0.27517 0.039 0.41343 0.059 0.62747 0.1193 1.2139 0.3602 1.7229 0.7223 0.04116 0.028 0.07618 0.067 0.11644 0.098 0.16714 0.1529 0.33536 0.3124 0.53832 0.53 0.28296 0.3033 0.51015 0.6087 0.71042 0.9145 0.26388 0.5709 0.40703 1.25 0.45564 2.1145 0.0517 0.9203-0.03337 1.696-0.24806 2.3506-0.3164 0.6542-0.84166 1.3625-1.2926 1.7567-0.05399 0.041-0.10616 0.087-0.16031 0.1249-0.0018 0-0.0046 0-0.0064 0.011-0.10974 0.07-0.21691 0.14-0.3375 0.2007-1.4509 0.7312-2.3848 0.8264-3.6956 0.378-0.16471-0.067-0.33301-0.142-0.50962-0.2311-1.3261-0.6696-2.1603-1.7986-2.511-3.0359-0.62275-2.3734 0.66798-4.6443 2.5329-5.5991 0.53855-0.2377 1.0712-0.3711 1.5845-0.4083z" stroke-width=".31636"/>
</g>
</svg>
