<?xml version="1.0" encoding="UTF-8"?>
<svg enable-background="new 0 0 368.5 180.1" version="1.1" viewBox="0 0 250 91" xml:space="preserve" xmlns="http://www.w3.org/2000/svg" xmlns:cc="http://creativecommons.org/ns#" xmlns:dc="http://purl.org/dc/elements/1.1/" xmlns:rdf="http://www.w3.org/1999/02/22-rdf-syntax-ns#"><metadata><rdf:RDF><cc:Work rdf:about=""><dc:format>image/svg+xml</dc:format><dc:type rdf:resource="http://purl.org/dc/dcmitype/StillImage"/><dc:title/></cc:Work></rdf:RDF></metadata><g transform="translate(1.6654 -.14137)" fill="#fff" stroke-width=".10604"><path d="m70.093 75.397c-1.6977-0.47563-2.8768-1.835-3.1871-3.6744-0.34946-2.0718 0.68821-4.1266 2.5228-4.9957 0.68519-0.32458 0.76959-0.33859 2.0402-0.33859 1.2626 0 1.3584 0.01559 2.0197 0.32899 1.3351 0.63267 2.1825 1.6812 2.4954 3.0876 0.52814 2.3739-0.59812 4.6373-2.7125 5.4513-0.77514 0.29842-2.3646 0.36883-3.1785 0.1408zm2.7668-1.5605c0.78161-0.40462 1.2848-0.99935 1.5224-1.7993 0.45948-1.5473-0.09531-3.1614-1.3541-3.9396-0.63853-0.39477-1.7945-0.50429-2.5622-0.24273-1.5055 0.51296-2.4034 2.3758-1.9301 4.0039 0.43157 1.4845 1.4979 2.3077 3.0034 2.3184 0.53585 4e-3 0.77354-0.0575 1.3206-0.34072zm90.839 1.5814c-1.0637-0.29897-1.7703-0.99906-2.11-2.0905-0.17931-0.57611-0.20197-0.99876-0.20197-3.7675v-3.1186h1.4705l0.0335 3.2076c0.0373 3.5735 0.0444 3.6113 0.7833 4.1748 0.65787 0.50178 1.9773 0.48662 2.591-0.02978 0.67267-0.56602 0.68334-0.62528 0.74156-4.1185l0.053-3.1811 0.72128-0.0315 0.72127-0.03146-0.0321 3.3716c-0.031 3.2612-0.0401 3.3893-0.27717 3.9132-0.30591 0.67585-0.86863 1.2326-1.5575 1.5409-0.65233 0.29197-2.1739 0.37532-2.9368 0.16087zm10.942 0.0434c-0.67367-0.20492-1.3901-0.78034-1.6832-1.3519-0.18949-0.36957-0.14965-0.4384 0.4214-0.72776l0.54014-0.27372 0.39281 0.42549c0.44887 0.48621 0.7998 0.64855 1.402 0.64855 0.7862 0 1.2602-0.43923 1.2602-1.1677 0-0.49534-0.51361-0.96425-1.7298-1.5792-1.9347-0.97832-2.4914-1.8091-2.1888-3.2668 0.10015-0.48245 0.21427-0.68313 0.61579-1.0829 0.29794-0.29665 0.66548-0.542 0.92931-0.62036 0.53744-0.1596 1.5461-0.1668 2.093-0.01495 0.45345 0.12591 1.2721 0.82324 1.5127 1.2886l0.15559 0.30087-1.2127 0.5363-0.24779-0.31662c-0.36462-0.46589-1.0497-0.69995-1.6083-0.54952-0.51386 0.13837-0.77902 0.47761-0.77902 0.99665 0 0.5894 0.27718 0.86621 1.4886 1.4866 1.4888 0.76244 1.9558 1.1144 2.2298 1.6803 0.25865 0.53431 0.29739 1.3565 0.0957 2.0314-0.18706 0.62604-0.88303 1.2841-1.5756 1.4898-0.58176 0.17277-1.6526 0.20674-2.112 0.067zm-156.67-0.12407c-0.03126-0.0815-0.04439-2.1045-0.02914-4.4955l0.02773-4.3473 1.1664-0.03182c1.7371-0.04741 2.708 0.10843 3.6536 0.58647 1.4627 0.73943 2.139 1.9701 2.1424 3.8989 4e-3 2.1754-0.96713 3.6062-2.8399 4.1846-0.88875 0.2745-4.0344 0.43079-4.1211 0.20475zm3.3596-1.3287c0.79219-0.22228 1.4556-0.7952 1.7896-1.5457 0.20348-0.45706 0.24893-0.73705 0.24596-1.515-0.0044-1.1553-0.2698-1.8657-0.91454-2.4482-0.56478-0.51024-1.0251-0.68733-1.9729-0.75901-0.68898-0.05211-0.80992-0.03451-0.93458 0.13597-0.11193 0.15308-0.14319 0.8263-0.14319 3.084 0 2.4842 0.02332 2.9114 0.16662 3.0548 0.21866 0.21866 0.96976 0.21577 1.763-0.0068zm8.0378-3.0607v-4.5065h4.3576l-0.03158 0.66272-0.03158 0.66272-2.7569 0.10604-0.03042 1.1047c-0.02236 0.81238 0.0057 1.1276 0.10603 1.1913 0.07505 0.04761 0.62554 0.08731 1.2233 0.0882l1.0869 0.0016v1.2655l-2.3858 0.05996v2.4388l2.916 0.059v0.61997c0 0.60953-0.0056 0.62108-0.33136 0.68624-0.18225 0.03643-1.1843 0.06627-2.2267 0.06627h-1.8954zm11.583 4.374c-0.05874-0.0729-0.41874-0.99143-0.80001-2.0412-0.38126-1.0497-1.0786-2.9542-1.5497-4.2322-0.47109-1.278-0.85652-2.3873-0.85652-2.4653 0-0.10491 0.19398-0.14178 0.74601-0.14178h0.74602l0.19105 0.45065c0.10508 0.24786 0.63946 1.7978 1.1875 3.4444 0.92301 2.773 1.1511 3.2752 1.3753 3.0273 0.04128-0.04565 0.58601-1.6218 1.2105-3.5026l1.1354-3.4196h0.78644c0.51991 0 0.78644 0.04114 0.78644 0.12139 0 0.17496-3.0886 8.6007-3.2108 8.7591-0.06517 0.08446-0.38137 0.13254-0.87157 0.13254-0.48779 0-0.80838-0.0485-0.8761-0.13254zm9.1432 2e-3c-0.02845-0.07415-0.03923-2.0911-0.02401-4.4822l0.02773-4.3474h4.3474v1.2724l-1.3934 0.0295c-1.6176 0.03426-1.5187-0.0512-1.5211 1.3149-2e-3 1.1142 0.03972 1.1475 1.4376 1.1475h1.1058v1.2724h-1.1627c-1.3893 0-1.3822-0.0066-1.3822 1.2724 0 1.3072-0.04518 1.2724 1.6523 1.2724h1.4328l-0.03158 0.66272-0.03158 0.66272-2.2027 0.02866c-1.7053 0.0222-2.2144-0.0016-2.2545-0.10614zm9.0697-4.3809v-4.5114l1.4315 0.06268 0.10604 7.5285 2.916 0.059v1.3725h-4.4535zm21.446 4.4435c-0.10304-0.043412-0.13254-1.0452-0.13254-4.5005v-4.4447h1.5152c1.739 0 2.5775 0.16601 3.1503 0.6237 1.1513 0.91995 1.273 2.7923 0.25524 3.9244-0.59166 0.65807-1.1115 0.86617-2.3759 0.9511l-1.0073 0.06767-0.05302 1.6966-0.05302 1.6966-0.5832 0.02052c-0.32076 0.01126-0.64284-0.0046-0.71574-0.03535zm3.1245-4.8808c1.0488-0.49771 1.0272-2.2009-0.0335-2.6441-0.2342-0.09785-0.62492-0.14564-1.0315-0.12616l-0.65453 0.03134-0.02994 1.3196c-0.01647 0.72576-0.0061 1.3818 0.02316 1.458 0.079 0.20586 1.2671 0.17926 1.7263-0.03863zm6.6042 0.44722v-4.5116h0.99436c0.66985 0 1.028 0.04326 1.0974 0.13254 0.05666 0.0729 0.63883 1.4209 1.2937 2.9955 0.65488 1.5746 1.2585 2.9328 1.3414 3.0182 0.13236 0.13633 0.16802 0.13633 0.29238 0 0.0779-0.08539 0.67961-1.4436 1.3371-3.0182 0.65753-1.5746 1.2438-2.9226 1.3028-2.9955 0.07207-0.089 0.43436-0.13254 1.1028-0.13254h0.99551l-0.0277 4.48-0.0277 4.48-1.3223 0.06308-0.02805-3.2126c-0.02697-3.0879-0.03599-3.2126-0.23172-3.2126-0.16648 0-0.41102 0.50314-1.3399 2.7569l-1.1362 2.7569h-1.5522l-1.1329-2.7569c-1.5408-3.7496-1.5107-3.7577-1.5804 0.42414l-0.05302 3.1811-1.3254 0.06316zm14.613 4.4219c-0.018-0.04374-0.0193-2.0717-3e-3 -4.5065l0.0299-4.427h4.3407v0.62472c0 0.75784-8e-3 0.76146-1.6486 0.74529-0.61826-0.0061-1.1471 0.01194-1.1753 0.04008-0.0281 0.02813-0.0604 0.53529-0.0716 1.127-0.0163 0.85696 0.0119 1.0963 0.1386 1.1764 0.0875 0.0553 0.64814 0.10128 1.2459 0.10217l1.0869 0.0016v1.2724h-1.1697c-1.3752 0-1.3138-0.05947-1.3138 1.2724 0 1.3522-0.099 1.2724 1.5789 1.2724h1.4348v1.3785h-2.2205c-1.2213 0-2.2352-0.03579-2.2532-0.07953zm9.0333-4.4221v-4.5114h1.5714l1.8281 2.9425c1.949 3.1371 2.0889 3.3397 2.2657 3.2809 0.0759-0.02525 0.13145-1.0598 0.16679-3.1041l0.053-3.0663 1.4338-0.06276-0.0276 4.4849-0.0277 4.4849-0.67198 0.03182c-0.39214 0.01856-0.73226-0.01823-0.81672-0.08832-0.0796-0.06607-0.98683-1.4522-2.016-3.0803-1.0292-1.6281-1.9142-2.9602-1.9667-2.9602-0.0525 0-0.13121-6.8e-5 -0.17495-1.08e-4 -0.0437-8.4e-5 -0.10339 1.3718-0.13255 3.0485l-0.053 3.0487-1.4315 0.06268v-4.5114zm13.728 4.3691c-0.0272-0.0729-0.0615-1.7787-0.0762-3.7908l-0.0267-3.6582-0.79526-0.02681c-1.2899-0.04352-1.2724-0.03294-1.2724-0.77216v-0.6359l5.7789 0.05642v1.2724l-1.0037 0.03078c-0.6389 0.0196-1.0334 0.07741-1.0852 0.15906-0.0448 0.07054-0.0822 1.7864-0.0831 3.813l-2e-3 3.6847h-0.69256c-0.45697 0-0.70939-0.04509-0.74204-0.13254zm15.43-3.4413c-1e-3 -1.9709-0.0298-3.6892-0.0644-3.8184-0.0587-0.21905-0.13185-0.23691-1.0854-0.26508l-1.0224-0.03022-0.0316-0.66272-0.0316-0.66272h5.8522l-0.0316 0.66272-0.0316 0.66272-2.0147 0.10604-0.106 7.5285-1.4315 0.06268-2e-3 -3.5835zm7.9232 3.5076c-0.0413-0.04134-0.0752-2.0768-0.0752-4.5232v-4.448l1.7761 0.0443c1.9825 0.04945 2.4242 0.16748 3.0796 0.82286 0.47882 0.47883 0.65852 0.97059 0.65578 1.7946-3e-3 0.87574-0.24239 1.434-0.83155 1.9383-0.2412 0.20646-0.43854 0.43985-0.43854 0.51864 0 0.0788 0.42944 0.94337 0.95432 1.9213 0.52487 0.9779 0.95432 1.8295 0.95432 1.8924 0 0.07417-0.27029 0.10343-0.76876 0.08323l-0.76876-0.03114-0.85517-1.6901c-0.47035-0.92957-0.9136-1.7527-0.98501-1.8291-0.16881-0.1807-1.0158-0.17993-1.1661 0.0012-0.0706 0.08503-0.12773 0.80363-0.14552 1.8291l-0.0293 1.6891-0.64056 0.03098c-0.35231 0.01703-0.67439-0.0028-0.71574-0.04418zm3.0298-4.9568c1.1156-0.47537 1.2261-2.0103 0.18216-2.5318-0.42864-0.21413-1.4829-0.25093-1.6754-0.05848-0.0839 0.08389-0.12724 0.53372-0.12724 1.3202 0 1.0243 0.0262 1.2082 0.18556 1.301 0.26673 0.15536 1.0367 0.1388 1.4349-0.03086zm30.38 1.2722c-0.0167-2.0682-0.0635-3.7934-0.10398-3.8338-0.0405-0.04041-0.41429-0.06829-0.83068-0.06195-1.2265 0.01867-1.2695-0.0064-1.2695-0.74179v-0.62472h5.8421l-0.0316 0.66272-0.0316 0.66272-0.93341 0.0109c-0.51338 6e-3 -0.98479 0.06228-1.0476 0.12509-0.0767 0.07667-0.11838 1.327-0.12695 3.8064l-0.0128 3.6922-1.4237 0.06252z" fill-opacity=".78431"/><path d="m209.42 75.618c-0.0875-0.02116-0.51422-0.09646-0.94833-0.16735-2.9088-0.475-6.3811-2.7734-7.4298-4.9179-0.6226-1.2732-1.015-3.4549-0.92599-5.1485 0.058-1.1035 0.48111-2.6156 1.0458-3.7375 0.36486-0.72481 1.7278-2.4524 2.2719-2.8796 1.946-1.528 2.6328-1.9251 4.161-2.4053 0.59983-0.1885 1.0737-0.39354 1.053-0.45563-0.0207-0.06209-0.45902-0.19584-0.97406-0.29721-1.3187-0.25955-2.5456-0.87104-3.4066-1.6979-0.41844-0.4018-0.72107-0.61796-0.78074-0.55765-0.0536 0.05417-0.31106 0.70142-0.57214 1.4383-0.5965 1.6836-1.0775 2.7277-1.6998 3.6897-0.67962 1.0506-1.0888 1.1729-2.3437 0.70058-1.9703-0.74163-3.7066-2.4343-4.192-4.0866-0.0771-0.26244-0.24544-0.59645-0.37412-0.74225-0.29101-0.32973-0.50965-0.99074-0.443-1.3394 0.0277-0.14472-5e-3 -0.32009-0.0725-0.38969-0.155-0.15978-0.48632-1.3508-0.48632-1.7482 0-0.35807-0.21778-0.68495-0.38412-0.57658-0.0655 0.04265-0.28718 0.41156-0.4927 0.8198-0.42507 0.84438-1.4226 2.3842-2.0769 3.2061-0.44902 0.564-1.092 0.98233-1.5098 0.98233-0.36046 0-2.0959-0.87075-2.8014-1.4055-0.58972-0.44706-1.324-1.3018-1.324-1.5413 0-0.05623-0.0708-0.16096-0.15726-0.23274-0.0865-0.07178-0.23919-0.39971-0.33932-0.72872-0.10012-0.32902-0.26561-0.6814-0.36774-0.78308-0.2062-0.2053-0.40661-0.82829-0.40751-1.2669 0-0.15694-0.0408-0.31016-0.0898-0.34048-0.14761-0.09123-0.43481-1.5282-0.54249-2.7143-0.0556-0.61235-0.15526-1.519-0.22147-2.0147-0.26845-2.0099 0.12697-7.2101 0.72968-9.5962 0.17678-0.69983 0.44566-1.9141 0.59754-2.6984 0.15187-0.78427 0.41357-1.8579 0.58156-2.3858 0.16799-0.52791 0.38454-1.2379 0.48121-1.5778 0.14996-0.52717 1.606-3.5025 3.0966-6.3274 1.7544-3.3251 3.76-5.0615 5.2705-4.563 0.55491 0.18314 1.1903 0.96324 1.4382 1.7657 0.29458 0.95373 0.46319 2.3841 0.39139 3.3201-0.26444 3.4471-0.37106 4.1275-1.0146 6.4755-0.68245 2.4898-1.0486 3.4679-2.9771 7.9527-1.7505 4.071-1.7218 3.9759-1.7952 5.9368-0.0537 1.4345-0.0844 1.6468-0.24243 1.6769-0.13357 0.02553-0.29666-0.19564-0.62316-0.84502-0.4249-0.84508-0.43994-0.90877-0.38345-1.6239 0.064-0.80995 0.7548-2.9033 1.3347-4.0446 0.18149-0.35713 0.32997-0.68308 0.32997-0.72433 0-0.04125 0.1723-0.41708 0.38289-0.83516 0.76306-1.5149 1.5174-3.3637 1.6333-4.0028 0.0651-0.35927 0.23767-0.92184 0.38339-1.2502 0.14573-0.32832 0.33498-0.8973 0.42058-1.2644 0.0856-0.3671 0.24329-0.89198 0.35044-1.1664 0.10715-0.27441 0.25132-0.83294 0.32042-1.2412 0.0691-0.40824 0.29564-1.3864 0.50348-2.1737 0.43473-1.6468 0.47194-2.4637 0.20208-4.4361-0.17359-1.2688-0.33097-1.7445-0.59385-1.7951-0.25836-0.04975-0.91128 0.9372-1.328 2.0074-0.21199 0.54439-0.4504 1.1091-0.52981 1.2549-0.57877 1.0627-0.68458 1.2859-0.68458 1.4441 0 0.09827-0.23645 0.80367-0.52546 1.5675-0.28902 0.76388-0.59698 1.7467-0.68437 2.1841-0.0874 0.4374-0.26319 1.177-0.39068 1.6435-0.12747 0.46656-0.25365 1.1036-0.28038 1.4156-0.0312 0.36362-0.14146 0.70417-0.30718 0.94837-0.18993 0.27988-0.24096 0.46115-0.19225 0.68291 0.0365 0.16604 0.0212 0.35958-0.0339 0.43009s-0.15942 0.43836-0.23181 0.81743c-0.0724 0.37908-0.16274 0.73695-0.20077 0.79527-0.0639 0.09801-0.25658 1.6031-0.39006 3.0474-0.031 0.33475-0.0954 0.71437-0.14318 0.84361-0.0478 0.12924-0.0523 0.38834-0.0101 0.57578 0.0838 0.3715 0.0241 0.87037-0.12711 1.0625-0.0991 0.12593-0.11073 0.72388-0.054 2.7829 0.0212 0.76814-0.018 1.4051-0.10769 1.7496-0.22057 0.84778-0.0899 3.7251 0.23808 5.2421 0.1429 0.66088 0.2598 1.3253 0.2598 1.4764s0.0796 0.36276 0.17697 0.47032c0.10189 0.11259 0.19746 0.44253 0.22525 0.77769 0.0415 0.5001 0.0992 0.62689 0.40992 0.89966 0.40868 0.35883 0.55606 0.38311 0.98359 0.16202 0.74785-0.38673 1.4751-1.4957 2.6284-4.0079l0.69299-1.5095-0.0206-1.4315c-0.0461-3.2141 0.3684-7.4797 0.90589-9.3216 0.14617-0.50093 0.45481-1.8651 0.68586-3.0315 0.23107-1.1664 0.51082-2.3354 0.62168-2.5979s0.27509-0.7942 0.36495-1.1817c0.28023-1.2084 1.2083-3.2518 2.714-5.9757 0.29013-0.52488 0.699-1.3122 0.90859-1.7496 1.2183-2.5426 3.4368-4.8269 4.901-5.0464 1.3405-0.20103 2.3121 0.80832 2.7142 2.8197 0.24834 1.2422 0.31429 2.601 0.175 3.6052-0.0687 0.49572-0.12548 1.1637-0.12606 1.4845-1e-3 0.68278-0.43607 3.0603-0.72721 3.9763-0.11122 0.34992-0.30737 0.99408-0.43587 1.4315-0.44068 1.4998-2.9351 6.1337-6.0178 11.179-0.96868 1.5854-1.2876 2.1945-1.2769 2.4388 0.051 1.1686-0.0392 2.4909-0.20612 3.0218-0.19925 0.63356-0.0369 4.0909 0.26176 5.5744 0.14086 0.69974 0.25612 1.4479 0.25612 1.6625s0.0714 0.46162 0.15864 0.54887c0.22457 0.22456 0.37154 0.65654 0.37154 1.092 0 0.4427 0.58399 1.3343 0.84247 1.2863 0.19548-0.03631 1.204-2.0226 2.1958-4.3244l0.70814-1.6435 0.0148-2.1207c0.013-1.8647 0.0479-2.2679 0.28973-3.3401 0.33233-1.4738 0.66295-2.3708 1.366-3.7064 0.87371-1.6596 1.871-3.0475 3.0128-4.1928 0.97103-0.97396 1.1812-1.1268 2.4953-1.8147 1.9818-1.0374 2.54-1.2392 3.4512-1.2478 0.6035-0.0057 0.85314 0.04544 1.2724 0.2606 0.4466 0.22918 0.57498 0.37211 0.89274 0.99401l0.37112 0.72634-4e-3 1.4949c-3e-3 1.2068-0.0504 1.6686-0.24398 2.3962-0.51007 1.9168-1.7507 3.9199-3.0111 4.8615-1.2994 0.97079-2.4597 1.3315-5.008 1.557-0.98948 0.08756-1.8363 0.1964-1.8817 0.24186-0.16818 0.16818-0.3134 1.3653-0.27844 2.2953 0.042 1.1166 0.27589 1.7038 0.94537 2.3733 1.1048 1.1048 3.0039 1.2734 4.7062 0.41769 1.7278-0.86855 2.9136-1.8954 4.5739-3.961 1.6004-1.9911 1.6125-2.0127 1.8457-3.3077 0.36476-2.0257 2.0856-7.5783 2.8173-9.0905 0.19752-0.40824 0.48316-0.8308 0.63475-0.93904 0.26243-0.18738 0.29796-0.18826 0.74309-0.01824 0.50236 0.19185 0.77469 0.50155 1.092 1.2418 0.32294 0.75338 0.37556 1.2863 0.16687 1.6898-0.27603 0.53377-0.78869 2.1122-0.78869 2.4283 0 0.1543-0.0307 0.31126-0.0683 0.34879-0.0721 0.07215-0.41371 0.87036-0.82535 1.9288-0.13609 0.34992-0.56548 1.3262-0.95421 2.1695-1.2165 2.6392-1.5299 3.7708-1.2143 4.3852 0.21146 0.4116 0.65673 0.8148 0.8998 0.8148 0.4746 0 1.5687-1.3026 3.9634-4.7186 2.5369-3.6188 3.0536-4.1884 3.7993-4.1884 0.24479 0 0.39341 0.08746 0.59272 0.34875 0.28474 0.37331 0.59307 1.3856 0.59307 1.947 0 0.18842 0.0424 0.36882 0.0943 0.40089 0.15538 0.09604 0.23494 4.2152 0.12096 6.2633-0.23313 4.1891-0.32702 5.5784-0.47661 7.0514-0.0859 0.84563-0.18314 1.9908-0.21614 2.5448-0.11745 1.972-0.58333 4.1293-1.2242 5.6688-0.33801 0.81193-1.113 2.1771-1.3088 2.3053-0.30672 0.20092-0.70082 0.57018-0.70082 0.65666 0 0.17219-1.5299 1.5885-2.1799 2.018-0.34652 0.22899-0.8287 0.55108-1.0715 0.71574-0.24281 0.16467-0.49166 0.29939-0.553 0.29939-0.0613 0-0.26826 0.13632-0.45982 0.30294-0.19156 0.16662-0.52845 0.36158-0.74863 0.43325-0.22018 0.07168-0.53835 0.24646-0.70707 0.38842-0.1687 0.14196-0.52338 0.35394-0.78817 0.47107-0.2648 0.11713-0.5101 0.25933-0.54512 0.31599-0.035 0.05666-0.20119 0.10302-0.36926 0.10302-0.16808 0-0.33509 0.04771-0.37113 0.10603-0.036 0.05832-0.18385 0.10603-0.32847 0.10603-0.1643 0-0.43041 0.16277-0.70947 0.43395-0.64708 0.62881-1.2418 0.82566-1.2418 0.41101 0-0.37182-0.2879-0.35112-1.302 0.09363-0.54086 0.2372-1.2923 0.50548-1.6698 0.59616-0.65474 0.15727-2.5241 0.30066-2.8602 0.21939zm0.63622-3.1398c1.4974-0.24262 3.8915-1.2637 5.0774-2.1656 0.64198-0.48822 1.5409-1.3559 3.0915-2.9841 0.97837-1.0273 2.7412-3.2716 2.9324-3.7332 0.0884-0.21341 0.53843-1.017 1.0001-1.7858 1.1587-1.9295 1.347-2.3733 2.2632-5.3354 0.89062-2.8794 1.1666-4.1131 1.6368-7.3164 0.61789-4.2097 0.67792-4.9837 0.38651-4.9837-0.0845 0-0.38015 0.32208-0.65694 0.71574-3.1366 4.4611-4.8189 6.7052-5.4911 7.3249-0.4293 0.39571-0.5354 0.44224-1.0086 0.44224-0.44236 0-0.59126-0.0548-0.91047-0.33507-0.50581-0.44411-0.86085-1.1706-1.0084-2.0635-0.20144-1.2186-0.20291-1.2231-0.39222-1.1866-0.0973 0.01872-0.34605 0.33258-0.55291 0.69746-0.51991 0.91709-1.2756 1.8636-2.7354 3.4259-1.0957 1.1727-1.58 1.6074-2.4121 2.1654-0.38971 0.26134-0.0642 0.30111 1.3143 0.16056 2.4167-0.2464 3.9869 0.05216 5.8397 1.1104 1.2647 0.72233 1.6265 1.0702 1.9251 1.851 0.53422 1.3969 0.26453 3.671-0.45775 3.8599-0.191 0.04995-0.21388 0.09014-0.11029 0.19374 0.0719 0.07189 0.13072 0.21966 0.13072 0.32838 0 0.20728-1.0234 1.2334-1.2371 1.2404-0.068 0.0024-0.22221 0.13526-0.34261 0.29564-0.18493 0.24632-0.23586 0.2669-0.32801 0.13254-0.15709-0.22904-0.0456-0.57903 0.48485-1.5224 0.25769-0.45826 0.46852-0.8741 0.46852-0.92408 0-0.04998 0.0886-0.1383 0.19695-0.19627 0.14239-0.07621 0.21549-0.27551 0.26385-0.71947 0.0368-0.33774 0.0962-0.82928 0.13209-1.0923 0.20168-1.4798-0.85958-2.488-3.4028-3.2327-1.311-0.38387-3.2173-0.47996-4.3171-0.2176-1.1048 0.26355-4.5894 1.3153-5.1409 1.5517-0.83157 0.35645-2.3267 1.5163-2.5752 1.9977-0.10764 0.20851-0.46537 0.71312-0.79493 1.1214-0.69701 0.86339-1.4484 2.3522-1.6892 3.3469-0.47946 1.9806 0.0581 3.721 1.7173 5.5602 0.72219 0.80055 1.0747 1.1008 1.6134 1.3743 0.94132 0.47785 1.5977 0.69369 2.5979 0.85423 1.08 0.17337 1.6326 0.1831 2.4918 0.04388zm7.0603-6.3039c-0.0702-0.27975-0.011-0.47513 0.14398-0.47513 0.14947 0 0.19573 0.52284 0.0565 0.63839-0.098 0.08134-0.14965 0.03932-0.20049-0.16326zm-8.74-22.824c0.25314-0.11882 0.67498-0.30834 0.93742-0.42116 0.51395-0.22093 2.7224-1.6882 3.2186-2.1384 0.87895-0.79745 1.765-2.2844 1.765-2.962 0-0.86237-0.62658-0.89739-2.146-0.11996-1.5089 0.77204-3.448 2.2921-3.7971 2.9764-0.11625 0.22787-0.44799 0.77679-0.7372 1.2198-0.52235 0.80016-0.79177 1.4671-0.67137 1.6619 0.094 0.15209 0.90751 0.02889 1.4306-0.21662zm-11.96-0.18422c0.0886-0.231-0.11145-0.68831-0.30116-0.68831-0.19725 0-0.2227 0.53279-0.0344 0.72104 0.16938 0.16938 0.26148 0.1604 0.3356-0.03274zm3.2662-4.2694c2.6196-3.9905 4.1105-6.9657 4.8476-9.6734 0.68106-2.5021 1.1807-4.8675 1.1797-5.5849-1e-3 -0.80223-0.37463-3.5994-0.53797-4.029-0.11821-0.31089-0.36882-0.41977-0.57407-0.24943-0.44799 0.3718-1.646 2.7898-1.646 3.3222 0 0.08947-0.10851 0.29756-0.24114 0.46241-0.30838 0.38329-0.71249 1.2179-0.71551 1.4777-1e-3 0.11025-0.10051 0.41518-0.2205 0.67762-0.32016 0.70019-1.017 2.939-1.1057 3.5522-0.0421 0.2916-0.10992 0.57789-0.15058 0.63621-0.0407 0.05832-0.13542 0.44005-0.21058 0.84828-0.0752 0.40824-0.20289 0.84793-0.28384 0.9771-0.0809 0.12917-0.14715 0.4691-0.14715 0.7554 0 0.36133-0.083 0.6691-0.27143 1.0062-0.20881 0.37358-0.24666 0.53191-0.1641 0.68619 0.0776 0.14499 0.0661 0.25935-0.0413 0.41277-0.0817 0.11672-0.14749 0.30303-0.14609 0.41402 3e-3 0.24993-0.19545 1.0826-0.32631 1.3682-0.0535 0.11664-0.12418 0.47451-0.15718 0.79527-0.033 0.32076-0.10831 0.89335-0.16732 1.2724-0.059 0.37908-0.1289 0.99633-0.15526 1.3717-0.0264 0.37534-0.0736 0.74944-0.10507 0.83134-0.0752 0.19596 0.0233 0.34558 0.18552 0.28185 0.071-0.02789 0.59048-0.75349 1.1543-1.6124zm-45.539 21.56c-1.6489-0.58813-2.8282-2.704-3.4018-6.103-0.55054-3.2626-0.70809-6.3737-0.71391-14.097-4e-3 -5.0711 0.0327-6.9068 0.17386-8.7338 0.19323-2.5012 0.13468-3.7284-0.22014-4.6153-0.4232-1.0577-1.5399-0.94012-2.1299 0.22423-0.69868 1.3788-0.75702 4.0142-0.188 8.4921 0.12567 0.98897 0.13431 1.3807 0.0404 1.8328-0.11374 0.54793-0.53989 1.2256-0.68174 1.0841-0.14358-0.14318-0.50647-1.9422-0.81004-4.0157-0.31164-2.1286-0.31582-2.2122-0.20134-4.0293 0.15902-2.5244 0.27586-3.5114 0.47094-3.9783 0.0908-0.21728 0.16533-0.56816 0.16566-0.77974 1e-3 -0.61204 0.18513-1.115 0.52892-1.4444 0.17533-0.16797 0.32109-0.35612 0.32393-0.41811 7e-3 -0.15897 1.0594-1.0063 1.7199-1.3851 1.1809-0.67724 2.842-0.29156 4.0431 0.9387 1.2233 1.253 2.3978 4.3528 2.9186 7.7032 0.22569 1.4519 0.54091 4.3723 0.54616 5.0601 3e-3 0.39538 0.0718 1.0529 0.15292 1.4611 0.0811 0.40824 0.17872 1.6011 0.21696 2.6509 0.18012 4.9441 0.46877 9.8352 0.58793 9.962 0.21688 0.23087 0.20261 0.26636 3.8784-9.6439 2.1713-5.8541 4.0714-10.768 5.0431-13.042 0.34884-0.81647 0.92031-2.248 1.2699-3.1811 1.2028-3.21 1.9618-4.7226 3.1741-6.3254 0.93971-1.2424 1.7626-1.8205 2.7925-1.9616 0.42373-0.05808 0.49834-0.03289 0.80203 0.2708 0.49478 0.49479 0.54409 0.33288-1.3272 4.358-1.116 2.4006-2.0995 5.8758-2.8582 10.1-0.15237 0.84836-0.7505 0.29846-1.6094-1.4796-0.51227-1.0605-0.62609-1.192-0.84145-0.9718-0.20613 0.21071-1.9966 4.7159-3.0496 7.6736-0.49833 1.3997-1.3883 4.0571-1.9776 5.9054-1.2206 3.8279-1.8954 5.7368-3.0352 8.5857-0.43986 1.0995-1.0844 2.9848-1.4324 4.1894-0.84721 2.9332-1.4533 4.3604-2.1587 5.0834-0.72736 0.74553-1.3736 0.92957-2.213 0.63018zm-78.116-0.54491c-0.26244-0.0799-0.76346-0.22203-1.1134-0.31584-0.52108-0.13969-0.72742-0.26712-1.1402-0.70414-0.58853-0.62306-1.2191-1.8398-1.3106-2.5289-0.17143-1.2914 1.2929-4.3009 2.5281-5.1956 0.75603-0.54767 1.8824-1.6791 1.8238-1.8319-0.0303-0.07899-0.35115-0.36176-0.71297-0.62837-0.36182-0.26661-0.798-0.63207-0.96929-0.81214-0.17129-0.18007-0.36716-0.3274-0.43527-0.3274s-0.42086 0.45608-0.78388 1.0135c-0.82498 1.2668-1.7475 2.2548-2.1812 2.336-0.50344 0.09432-2.1722-1.0513-4.3769-3.0049-0.54299-0.48114-1.0316-0.87479-1.0859-0.87479-0.15226 0-0.40592 0.44034-0.64872 1.1262-0.1686 0.47622-0.25554 1.1492-0.36822 2.8502-0.19591 2.9575-0.32697 3.627-0.83023 4.2411-0.66322 0.80938-0.93721 0.84529-2.1328 0.27952-0.74558-0.35282-1.3151-0.9598-1.5841-1.6883-0.10147-0.27478-0.28062-0.6666-0.3981-0.87072-0.30945-0.53764-0.77168-2.4121-0.88844-3.6029-0.03731-0.38034-0.11578-0.78442-0.17441-0.89794-0.11093-0.21479-0.12019-3.453-0.01158-4.0518 0.03699-0.20396 0.13781-0.35501 0.2579-0.38641 0.18333-0.04794 0.19473-0.16572 0.16255-1.6798-0.01904-0.89554-0.0691-1.7571-0.11126-1.9146-0.04516-0.16869-0.0075-0.56232 0.09182-0.95811 0.09266-0.36948 0.19947-0.9683 0.23734-1.3307l0.06888-0.65893h-0.30182c-0.166 0-0.75732 0.22118-1.314 0.49151-0.83674 0.4063-1.1609 0.64068-1.8698 1.3519-0.4877 0.48934-1.0427 1.1806-1.2868 1.6027-0.94279 1.6301-1.8003 3.4396-2.0351 4.2944-0.2292 0.83443-0.24629 1.0823-0.23033 3.3401 0.02401 3.3945-0.26387 6.3993-0.70087 7.3157-0.27636 0.57953-0.99654 0.84239-2.3118 0.84375-0.87994 8.02e-4 -1.1506-0.04008-1.5905-0.24084-1.0798-0.49276-1.7549-1.4989-1.6671-2.4843 0.02469-0.27702 0.0024-0.50367-0.04933-0.50367-0.05182 0-0.29701 0.30844-0.54485 0.68541-1.0902 1.6582-2.8999 2.3898-4.525 1.8295-0.64158-0.22122-1.8192-0.9834-2.0836-1.3485-0.21928-0.30286-0.60892-1.5986-0.96166-3.1978-0.5959-2.7018-0.10153-7.7252 1.1912-12.104 0.61703-2.0899 0.97831-2.919 1.4761-3.3872 0.38038-0.35779 0.47894-0.39726 0.98354-0.39386 0.73668 5e-3 1.747 0.25137 2.0112 0.49055 0.34495 0.31218 0.53106 0.88639 0.57409 1.7713 0.03126 0.64264 4e-5 0.90271-0.13595 1.1329-0.14071 0.23821-0.15027 0.33043-0.04715 0.45468 0.16664 0.20079 0.04921 0.68012-0.19918 0.81305-0.18163 0.09721-0.40723 0.89039-0.46727 1.6429-0.01395 0.17496-0.07624 0.43739-0.1384 0.58319-0.31506 0.73901-0.78788 2.4834-0.8766 3.2341-0.05514 0.46655-0.1496 1.0195-0.2099 1.2288-0.16313 0.5661-0.29072 3.5968-0.20408 4.8475 0.1291 1.8638 0.73382 2.7198 1.6232 2.2978 0.90142-0.42775 2.2831-2.4452 2.451-3.5789 0.04805-0.32432 0.14394-0.54348 0.26648-0.60906 0.34133-0.18268 0.53504-1.111 0.63007-3.0197 0.08735-1.7543 0.36434-3.9215 0.52856-4.1354 0.18944-0.24671 0.44493-1.2618 0.46628-1.8526 0.01266-0.35054 0.08072-0.69503 0.15122-0.76554 0.0705-0.07051 0.12795-0.27372 0.12766-0.4516-4.01e-4 -0.30173 0.15622-0.87065 0.48337-1.7549 0.07552-0.20412 0.16339-0.52522 0.19527-0.71356 0.09257-0.54691 0.6701-1.6861 0.97732-1.9277 0.60858-0.47871 1.3934-0.18769 1.9229 0.71307l0.292 0.49674 8.02e-4 2.3328c0.0012 3.2678 0.02248 3.6582 0.19789 3.6582 0.08021 0 0.43788-0.52149 0.79482-1.1589 0.8444-1.5079 1.7268-2.6063 2.7448-3.4166 1.106-0.88045 1.7613-1.1628 2.8881-1.2443l0.90061-0.06514 0.1747-0.68923c0.09608-0.37908 0.22983-1.2618 0.2972-1.9617 0.06737-0.69983 0.31702-2.2029 0.55477-3.3401 1.2495-5.9767 2.9634-11.357 4.2344-13.293 0.50989-0.77669 1.2237-1.4457 1.5425-1.4457 0.07873 0 0.14314-0.04772 0.14314-0.10604 0-0.39884 1.2104 0.31635 1.6581 0.97976 0.44347 0.65708 0.64244 1.6293 0.78713 3.8458 0.13609 2.0848 0.03378 3.2819-0.30384 3.5556-0.28309 0.22949-0.45566 0.58621-0.37956 0.78454 0.03547 0.09245 4e-3 0.24098-0.06993 0.33006-0.07394 0.08909-0.14281 0.40014-0.15305 0.69122-0.01026 0.29108-0.07046 0.58108-0.13382 0.64445-0.06358 0.06358-0.08913 0.27591-0.05701 0.47382 0.03863 0.238 0.01603 0.35861-0.06712 0.35861-0.20941 0-0.46624 0.74314-0.34716 1.0045 0.07287 0.15993 0.061 0.30277-0.04038 0.48581-0.07897 0.1426-0.14528 0.36664-0.14735 0.49786-2e-3 0.13122-0.04778 0.23858-0.10157 0.23858-0.11976 0-0.29597 0.52604-0.39072 1.1664-0.03883 0.26244-0.10375 0.52488-0.14425 0.5832-0.04051 0.05832-0.18208 0.41619-0.3146 0.79526-0.13252 0.37908-0.51928 1.238-0.85947 1.9086l-0.61853 1.2194-0.16212 2.1737c-0.2231 2.9913-0.32179 7.6994-0.16344 7.7973 0.22129 0.13676 0.4012-0.20624 0.78054-1.4882 0.54399-1.8383 1.3332-3.715 2.6507-6.303 1.2328-2.4216 1.8299-3.2371 2.3193-3.1676 0.20341 0.02893 0.2388 0.108 0.26678 0.59598 0.02553 0.44497-0.024 0.6633-0.23683 1.0441-0.148 0.2648-0.62242 1.3715-1.0543 2.4594-0.43185 1.0879-1.0824 2.6698-1.4457 3.5154-0.91023 2.1189-0.97324 2.3103-0.84172 2.556 0.09715 0.18153 0.40096 0.55762 1.3186 1.6324 0.55923 0.65495 0.99674 1.2292 1.2312 1.6158 0.13299 0.21937 0.45318 0.64936 0.71152 0.95554 0.58306 0.69102 0.84604 0.72136 1.3789 0.15905 0.44074-0.46509 1.6099-2.2366 1.6099-2.4393 0-0.07652-0.13122-0.38806-0.2916-0.69229-0.27335-0.51854-0.29152-0.63611-0.29024-1.8786 0.0016-1.6439 0.23624-2.4584 1.0715-3.7207 0.31385-0.47431 0.57064-0.90479 0.57064-0.95664 0-0.05184 0.05965-0.09708 0.13254-0.10053 0.2196-0.01038 1.7761-1.8008 1.7761-2.043 0-0.18449 0.35391-0.42439 0.46387-0.31443 0.03719 0.03719 0.24019-0.134 0.45111-0.38042 0.32256-0.37684 0.42866-0.43811 0.6677-0.38561 0.23466 0.05154 0.39184-0.03178 0.90172-0.47796 0.88342-0.77305 0.96491-0.815 2.1561-1.1097 1.3581-0.33602 2.3249-0.35301 2.7131-0.04768 0.61238 0.4817 1.3413 2.2209 1.3413 3.2003 0 0.8265-0.36846 1.3858-1.4227 2.1596-0.56253 0.41289-1.253 1.1545-2.5602 2.7499-0.6821 0.83248-1.0955 1.4816-1.4779 2.3207-0.31328 0.68744-0.67098 1.1209-0.92498 1.1209-0.16681 0-0.0749-0.66098 0.19563-1.407 0.15294-0.42172 0.30151-0.89798 0.33014-1.0584 0.07822-0.43804-0.20419-0.37266-0.65246 0.15104-1.0827 1.2649-1.2015 2.6957-0.31972 3.8518 0.3085 0.40446 0.68152 0.48481 1.0561 0.22749 0.77062-0.52936 2.2985-0.75102 3.2719-0.47466 0.56211 0.15959 0.66205 0.25133 0.49416 0.45362-0.13379 0.1612-0.37533 0.12341-0.27268-0.04267 0.14389-0.23282-0.59055-0.4654-1.0624-0.33643-0.22437 0.06132-0.311 0.14866-0.30549 0.30794 0.0078 0.22445-0.38536 0.41592-0.59189 0.28828-0.12824-0.07925-0.95331 0.74945-0.95331 0.9575 0 0.08889 0.16283 0.39833 0.36186 0.68766 0.52413 0.76196 1.0413 2.3878 1.0363 3.2577-0.01202 2.0818-0.8274 4.3282-1.9948 5.4956-0.61448 0.61448-2.2413 1.628-2.8495 1.7753-0.11664 0.02825-0.42679-0.01403-0.68923-0.09392zm-0.12706-2.8431c0.21568-0.13738 0.71546-0.54736 1.1106-0.91106 0.56533-0.52033 0.80739-0.8452 1.1357-1.5242 0.83218-1.7212 0.93214-2.8686 0.34122-3.917-0.34331-0.60904-0.57221-0.7087-1.0547-0.45916-0.50396 0.26061-0.93475 0.7771-1.8291 2.1929-1.2266 1.9418-1.6359 2.8582-1.6318 3.6531 0.0036 0.71028 0.15308 1.0773 0.49806 1.2235 0.33897 0.1436 0.9814 0.02765 1.43-0.25811zm-16.202-10.986c0-0.05832-0.0449-0.10604-0.09978-0.10604s-0.12927 0.04772-0.16531 0.10604c-0.03603 0.05832 0.0089 0.10603 0.09978 0.10603 0.09092 0 0.16531-0.04771 0.16531-0.10603zm18.132-8.3768c0-0.05832-0.02104-0.10604-0.04676-0.10604-0.02573 0-0.07625 0.04771-0.11229 0.10604-0.03603 0.05832-0.01499 0.10603 0.04676 0.10603 0.06176 0 0.11229-0.04772 0.11229-0.10603zm-0.32188-0.4171c0.06035-0.11277 0.24096-0.22013 0.40136-0.23858 0.4542-0.05226 0.37355-0.34488-0.106-0.38457-0.30366-0.02513-0.39763 0.0062-0.39763 0.13254 0 0.10473-0.095 0.16546-0.25883 0.16546-0.29214 0-0.42468 0.14792-0.33709 0.3762 0.08665 0.22581 0.56888 0.19055 0.69818-0.05105zm2.1775-1.2265c0-0.31579-0.41392-0.28424-0.45914 0.03499-0.02914 0.20558 0.0065 0.24119 0.21207 0.21207 0.16471-0.02332 0.24707-0.10568 0.24707-0.24707zm1.5184-0.76876c0.04175-0.29399-0.19447-0.31773-0.44182-0.04441-0.20275 0.22404-0.12064 0.35866 0.1915 0.31397 0.13135-0.0188 0.22975-0.12478 0.25032-0.26956zm-15.204-4.302c1.1451-1.5013 2.3097-6.0181 2.5614-9.9339 0.11931-1.8563-0.26148-3.3483-0.83379-3.267-0.30547 0.04342-0.50361 0.77411-1.3462 4.9642-0.91376 4.5442-1.3397 7.8606-1.0735 8.358 0.17342 0.32403 0.37998 0.28782 0.69206-0.12134zm39.24 28.834c-0.445-0.19483-1.6656-1.5206-1.9601-2.1291-0.72369-1.4949-0.72726-4.2001-9e-3 -7.1605 0.24851-1.025 0.2743-1.4384 0.0966-1.5483-0.17086-0.1056-0.44975 0.25471-1.8041 2.3308-1.347 2.0648-2.3657 3.1873-3.0007 3.3064-0.98214 0.18425-2.057-0.29138-2.878-1.2735-0.22187-0.26543-0.45294-0.48242-0.51349-0.4822-0.06055 2.12e-4 -0.50172 0.77561-0.98037 1.7231-0.95307 1.8866-1.4905 2.7573-2.1268 3.4458l-0.41651 0.45065h-0.8985c-0.87513 0-0.90988-0.0097-1.336-0.37451-0.35907-0.30735-0.48416-0.52126-0.69757-1.1929-0.14303-0.45011-0.3104-0.96154-0.37193-1.1365-0.06154-0.17496-0.18989-1.0577-0.28523-1.9617-0.13892-1.3172-0.16529-2.4753-0.13278-5.8319 0.03911-4.0403 0.05624-4.3346 0.48379-8.3238 0.42635-3.9779 0.82145-7.2949 0.92212-7.7415 0.02641-0.11712 0.01419-0.26498-0.02713-0.32857-0.0486-0.07482-0.97326-0.14027-2.62-0.18547-2.8313-0.07771-4.0507-0.26061-5.0417-0.75622-1.0712-0.53576-1.6565-1.3236-1.5536-2.0913 0.11385-0.8488 0.63741-1.2277 2.0305-1.4694 1.0922-0.18955 4.1302-0.0687 5.7841 0.23009 1.7785 0.32128 1.9351 0.32046 2.0298-0.0107 0.14902-0.52111 0.64652-2.6189 0.90332-3.8089 0.32583-1.51 0.67202-2.2351 1.0672-2.2351 0.08256 0 0.38531 0.19833 0.67279 0.44074l0.52269 0.44074v0.81192c0 0.95487-0.24574 2.9274-0.47486 3.8116-0.08875 0.34248-0.16136 0.76871-0.16136 0.94719 0 0.29348 0.03803 0.33032 0.39763 0.38534 0.2187 0.03346 0.63621 0.10567 0.92781 0.16047 0.2916 0.0548 0.84033 0.13139 1.2194 0.1702 0.37908 0.03881 0.83238 0.14477 1.0073 0.23548 0.17496 0.0907 0.50897 0.19169 0.74225 0.22442 0.39803 0.05584 0.42612 0.08317 0.45627 0.44395 0.02028 0.24259-0.02866 0.44523-0.13262 0.54918-0.21757 0.21757-0.99718 0.4339-2.5504 0.7077-1.5371 0.27095-2.3186 0.48272-2.4745 0.67053-0.09858 0.11878-0.34189 2.3082-0.97452 8.7688-0.05996 0.61236-0.11964 2.3301-0.13262 3.8173-0.03386 3.8801 0.15144 13.146 0.26429 13.215 0.20271 0.12528 0.94954-0.52533 1.5061-1.3121 0.73527-1.0393 2.0089-3.5793 2.0077-4.0038-4.01e-4 -0.17496-0.05553-0.65602-0.1223-1.069-0.21163-1.309 0.05644-3.1248 0.8207-5.559 0.08662-0.2759 1.6396-2.7293 2.315-3.6574 0.37655-0.51737 2.5627-2.4643 3.5914-3.1985 1.4442-1.0307 3.873-2.1715 5.1987-2.4418 0.96442-0.19668 1.3179-0.12153 2.3895 0.50798 0.49918 0.29324 0.8625 0.61448 1.2194 1.0782 0.48326 0.62785 0.51081 0.69979 0.55762 1.456 0.11547 1.8652-0.0177 3.5001-0.73406 9.0133-0.1705 1.3122-0.33957 2.8082-0.3757 3.3246-0.0362 0.51632-0.18387 1.6854-0.3283 2.5979-0.51755 3.2699-0.58669 3.7936-0.63203 4.7872-0.0253 0.55404-0.0462 1.0385-0.0464 1.0765-2e-3 0.30021-2.7205 0.42586-3.3406 0.1544zm-6.7564-7.3362c0.93823-0.46754 1.6497-1.3904 3.6315-4.7103 1.5251-2.5549 2.4413-4.2113 2.8859-5.2176 0.46418-1.0505 0.90814-2.6857 0.95174-3.5056l0.0295-0.55493-0.54587 0.01379c-0.76853 0.0194-1.5968 0.43133-2.7349 1.3602-1.4369 1.1727-1.9603 1.765-3.0023 3.3976-1.2998 2.0365-1.8479 3.0928-2.2884 4.4108-0.87425 2.6154-0.90316 4.4738-0.0766 4.9233 0.38161 0.20756 0.52719 0.19269 1.1494-0.11737zm76.528 7.3362c-0.43609-0.19093-1.6632-1.5158-1.9471-2.1021-0.43345-0.8954-0.57038-1.8852-0.51024-3.6884 0.0443-1.3289 0.11821-1.9172 0.38596-3.0729 0.34834-1.5034 0.37405-1.9638 0.10969-1.9638-0.089 0-0.75993 0.90593-1.5239 2.0577-1.5499 2.3368-2.5429 3.4469-3.1923 3.5687-1.6281 0.30544-3.3493-1.179-3.8803-3.3467-0.17959-0.73311-0.15191-2.8115 0.048-3.6052 0.58621-2.3272 0.7274-2.7073 1.4177-3.8173 1.2472-2.0052 1.9767-2.8956 3.3516-4.0904 1.5517-1.3485 2.6004-2.0652 4.1589-2.8421 1.3067-0.65142 2.4766-1.0703 3.2848-1.1762 0.98105-0.12853 2.4529 0.6485 3.246 1.7136 0.42547 0.57144 0.46245 0.67408 0.50853 1.4115 0.11635 1.8617-7e-3 3.3757-0.73334 9.013-0.1691 1.3122-0.33786 2.8082-0.37501 3.3246-0.0372 0.51632-0.18572 1.6854-0.33016 2.5979-0.51755 3.2699-0.5867 3.7936-0.63203 4.7872-0.0253 0.55404-0.0462 1.0385-0.0464 1.0765-2e-3 0.30021-2.7205 0.42586-3.3406 0.1544zm-6.7564-7.3362c0.93735-0.46711 1.6438-1.3829 3.6334-4.7103 1.5509-2.5937 2.4991-4.3112 2.9162-5.2822 0.44929-1.0458 0.87736-2.6477 0.91956-3.441l0.0295-0.55493-0.54586 0.01379c-0.76853 0.0194-1.5968 0.43133-2.7349 1.3602-1.4376 1.1733-1.9607 1.7655-3.0012 3.3976-1.352 2.1207-1.7973 2.9789-2.263 4.3616-0.90327 2.6817-0.94129 4.5167-0.10304 4.9726 0.38162 0.20756 0.5272 0.19269 1.1494-0.11737zm-129.67 7.0227c-0.2132-0.0788-0.59493-0.26701-0.84828-0.41826-0.62465-0.3729-3.5019-3.2029-4.3885-4.3164-0.3947-0.49571-1.1786-1.3785-1.742-1.9617-1.1329-1.1727-1.9844-2.2399-3.2713-4.1001-0.47074-0.68044-1.2299-1.7302-1.6871-2.3328-0.45716-0.60259-1.1311-1.6042-1.4975-2.2258-0.68684-1.165-0.98805-1.5343-1.1632-1.426-0.12517 0.07736-0.22585 0.65232-0.26693 1.5245-0.01723 0.36564-0.08764 0.72113-0.15648 0.78996-0.17468 0.17468-0.15618 0.4723 0.0339 0.54524 0.08915 0.03423 0.15905 0.19194 0.15905 0.35888 0 0.16381 0.06813 0.39511 0.1514 0.51399 0.18158 0.25925 0.35745 2.5187 0.43666 5.61 0.0299 1.1664 0.10829 2.4426 0.17423 2.8361 0.14551 0.8683-0.0094 1.7375-0.36905 2.0707-0.3135 0.29045-1.4619 0.66449-2.2565 0.73496-1.1167 0.09904-2.4681-0.43051-3.1215-1.2232-0.17434-0.2115-0.31697-0.43417-0.31697-0.49482 0-0.06065-0.12742-0.2978-0.28316-0.52699-0.15574-0.22919-0.32061-0.58621-0.36638-0.79337-0.19799-0.89615-0.23646-1.0169-0.34709-1.0892-0.1361-0.08892-0.11738-1.6776 0.02088-1.7717 0.16011-0.10901 0.77151-7.2407 0.7597-8.8616-0.0088-1.2025 0.15022-2.889 0.48981-5.1957 0.14595-0.99143 0.33674-2.3991 0.42398-3.128 0.08724-0.72899 0.30349-2.3036 0.48056-3.4992 0.24607-1.6614 0.32884-2.6235 0.35122-4.0824 0.04495-2.9298 0.64981-7.1825 1.1666-8.2024 0.51462-1.0156 1.3186-1.712 1.9765-1.712 0.42575 0 0.95104 0.33982 1.2097 0.78256 0.5641 0.96567 0.69462 1.8182 0.71806 4.6898 0.02212 2.7106-0.2702 9.3773-0.45356 10.344-0.05652 0.29806-0.10277 0.78304-0.10277 1.0778 0 0.29471-0.04664 0.80114-0.10364 1.1254-0.057 0.32427-0.18113 1.2576-0.27584 2.0741-0.09471 0.81647-0.19624 1.6634-0.22561 1.8821-0.04651 0.34634-0.02565 0.39763 0.16166 0.39763 0.35475 0 1.4162-1.728 2.9764-4.8454 0.46126-0.92165 1.2712-2.4757 1.7998-3.4534 0.52864-0.9777 0.93537-1.8449 0.90384-1.927-0.0325-0.08464 0.03815-0.20048 0.16297-0.26728 0.12768-0.06833 0.22029-0.2233 0.22029-0.3686 0-0.13789 0.16646-0.49806 0.3699-0.80038 0.4015-0.59663 0.54051-0.8519 2.8303-5.1976 1.7513-3.3238 2.5927-4.8487 2.823-5.1162 0.08785-0.10206 0.26792-0.18556 0.40016-0.18556 0.55272 0 0.62683 1.6441 0.11772 2.6117-0.1494 0.28397-0.63933 1.3036-1.0887 2.2659-1.2385 2.6519-2.9054 5.9648-3.1212 6.2031-0.15552 0.17178-2.2728 4.411-3.0716 6.1501-0.92316 2.0097-1.4435 3.0999-1.5437 3.2341-0.06532 0.08748-0.20121 0.38268-0.30199 0.656s-0.32272 0.70277-0.4932 0.95432-0.31084 0.50733-0.3119 0.56839c-0.0012 0.06106 0.1935 0.29965 0.43236 0.53018 0.50634 0.4887 1.2826 1.5047 2.2019 2.882 0.35918 0.53811 0.78726 1.1346 0.9513 1.3254 0.16404 0.19089 0.47081 0.63336 0.68171 0.98328 0.2109 0.34992 0.60107 0.86528 0.86705 1.1452 0.26598 0.27997 0.4836 0.54529 0.4836 0.5896 0 0.04431 0.40838 0.50298 0.90752 1.0193 0.49913 0.51627 0.98314 1.0849 1.0756 1.2637 0.09243 0.17874 0.72405 0.97021 1.4036 1.7588 0.67954 0.7886 1.6043 1.8993 2.0549 2.4683 0.45067 0.56894 1.1046 1.3491 1.4532 1.7338 0.34856 0.38462 0.63375 0.74092 0.63375 0.79176 0 0.05085 0.11526 0.34426 0.25612 0.65203 0.36 0.78656 0.5117 1.3193 0.44 1.5452-0.03382 0.10653-0.2162 0.34348-0.4053 0.52656-0.41268 0.39952-1.0129 0.51597-1.5798 0.30648zm-2.7414-6.2457c-0.0024-0.3122-0.67479-1.2574-1.4899-2.0942-0.48285-0.49572-1.1293-1.2899-1.4365-1.7649-0.91433-1.4135-1.4294-1.8976-1.5858-1.4902-0.05572 0.14521 0.32262 1.0924 0.46034 1.1524 0.104 0.04535 0.87174 1.1007 0.87174 1.1983 0 0.04104 0.51295 0.59428 1.1399 1.2294 0.62693 0.63514 1.2963 1.3228 1.4875 1.5282 0.35925 0.38592 0.55442 0.47097 0.55269 0.24087zm-13.225-5.5156c0.02838-0.07388 0.03363-0.70421 0.01166-1.4007-0.03879-1.2319-0.04785-1.2729-0.3318-1.5054-0.16393-0.13421-0.4409-0.24068-0.63173-0.24282-0.301-0.0032-0.34725 0.03583-0.40491 0.34319-0.03579 0.19085-0.0499 0.56065-0.0313 0.82177 0.02745 0.38585 0.07488 0.48065 0.25316 0.50614 0.15384 0.022 0.27279 0.18039 0.39816 0.53018 0.09833 0.27435 0.17854 0.57277 0.17825 0.66316-0.0012 0.3353 0.45071 0.56543 0.55851 0.2845zm0.54299-7.774c0.03539-0.09225 0.06839-0.46205 0.07331-0.82177 0.0049-0.35973 0.04549-0.94034 0.09014-1.2903 0.09831-0.77032 0.05915-0.9013-0.26949-0.9013-0.25601 0-0.31617 0.17154-0.27887 0.79527 7e-3 0.11664-0.03234 0.44149-0.08733 0.7219-0.1436 0.73199-0.0194 1.6639 0.22175 1.6639 0.10237 0 0.21509-0.07548 0.25049-0.16772zm105.91 19.206c-1.979-0.77885-3.6829-2.4517-4.1634-4.0874-0.0771-0.26244-0.24544-0.59645-0.37412-0.74225-0.29102-0.32973-0.50965-0.99074-0.443-1.3394 0.0277-0.14472-5e-3 -0.32009-0.0725-0.38969-0.15501-0.15978-0.48632-1.3508-0.48632-1.7482 0-0.35807-0.21778-0.68495-0.38413-0.57658-0.0655 0.04265-0.28718 0.41156-0.49269 0.8198-0.8453 1.6791-2.3024 3.6508-2.9375 3.9748-0.58363 0.29775-0.75001 0.27544-1.8463-0.24748-1.8432-0.87919-2.9984-2.0565-3.4499-3.5158-0.093-0.30041-0.25038-0.62758-0.34984-0.72705-0.19938-0.19938-0.3994-0.81861-0.40032-1.2393-3.2e-4 -0.14872-0.0419-0.31572-0.0924-0.37112-0.17567-0.19266-0.43745-1.4867-0.54592-2.6986-0.06-0.67067-0.15982-1.6011-0.22176-2.0677-0.261-1.9657 0.15338-7.312 0.74379-9.5962 0.17335-0.67067 0.44322-1.8874 0.59971-2.7039 0.15649-0.81647 0.37252-1.709 0.48006-1.9834 0.10754-0.27441 0.26785-0.81079 0.35625-1.1919 0.0884-0.38116 0.28449-0.99166 0.43576-1.3567 0.28096-0.67799 0.47753-1.0739 1.777-3.5797 0.40831-0.78731 0.9152-1.7655 1.1264-2.1737 1.6598-3.2079 3.7481-5.0038 5.2444-4.51 0.5549 0.18314 1.1903 0.96324 1.4382 1.7657 0.29022 0.93964 0.46406 2.3842 0.39327 3.2681-0.29556 3.6906-0.37007 4.169-1.0165 6.5275-0.68245 2.4898-1.0486 3.4679-2.9771 7.9527-1.7505 4.071-1.7218 3.9759-1.7952 5.9368-0.0537 1.4345-0.0844 1.6468-0.24242 1.6769-0.13324 0.02545-0.29394-0.19022-0.6097-0.81825-0.59745-1.1882-0.5868-1.6191 0.088-3.5614 0.28365-0.81647 0.66515-1.7767 0.84776-2.1338 0.18262-0.35713 0.33204-0.68308 0.33204-0.72433 0-0.04125 0.1723-0.41708 0.38289-0.83516 0.76305-1.5149 1.5174-3.3637 1.6333-4.0028 0.0651-0.35927 0.23767-0.92184 0.38339-1.2502 0.14572-0.32832 0.33509-0.89779 0.42083-1.2655 0.0857-0.3677 0.24693-0.91643 0.35822-1.2194s0.25576-0.86102 0.32106-1.2401c0.0653-0.37908 0.28835-1.3334 0.4957-2.1207 0.4337-1.6468 0.47082-2.4653 0.20118-4.4361-0.17359-1.2688-0.33096-1.7445-0.59385-1.7951-0.25835-0.04975-0.91128 0.9372-1.328 2.0074-0.21199 0.54439-0.4504 1.1091-0.52981 1.2549-0.57877 1.0627-0.68458 1.2859-0.68458 1.4441 0 0.09827-0.23646 0.80367-0.52547 1.5675-0.28901 0.76388-0.59697 1.7467-0.68436 2.1841-0.0874 0.4374-0.26319 1.177-0.39067 1.6435-0.12749 0.46656-0.25366 1.1036-0.2804 1.4156-0.0311 0.36362-0.14145 0.70417-0.30717 0.94837-0.18993 0.27988-0.24096 0.46115-0.19226 0.68291 0.0365 0.16604 0.0212 0.35958-0.0339 0.43009s-0.15943 0.43836-0.23182 0.81743c-0.0724 0.37907-0.16273 0.73694-0.20076 0.79526-0.0639 0.09801-0.25658 1.6031-0.39007 3.0474-0.0309 0.33475-0.0954 0.71437-0.14318 0.84361-0.0478 0.12924-0.0523 0.38834-0.0101 0.57578 0.0838 0.3715 0.0241 0.87037-0.12712 1.0625-0.0991 0.12593-0.11072 0.72388-0.054 2.7829 0.0208 0.75425-0.0183 1.4069-0.10423 1.7379-0.22978 0.88586-0.1112 3.678 0.22089 5.201 0.15044 0.68992 0.27353 1.378 0.27353 1.5292s0.0796 0.36276 0.17697 0.47032c0.10189 0.11259 0.19746 0.44253 0.22526 0.77769 0.0415 0.5001 0.0992 0.62689 0.40991 0.89966 0.40868 0.35883 0.55606 0.38311 0.98359 0.16202 0.74933-0.3875 1.4804-1.5034 2.6258-4.0079l0.69032-1.5095-0.0168-1.5375c-0.0355-3.2434 0.37149-7.3787 0.90673-9.2129 0.14659-0.5024 0.45559-1.8678 0.68664-3.0342 0.23106-1.1664 0.51082-2.3354 0.62167-2.5979 0.11086-0.26244 0.27509-0.7942 0.36496-1.1817 0.27645-1.1921 1.1256-3.0692 2.6793-5.9227 0.26992-0.49572 0.6927-1.3069 0.93952-1.8026 1.3282-2.6675 3.4246-4.8245 4.9047-5.0464 1.3405-0.20103 2.3121 0.80832 2.7142 2.8197 0.2728 1.3647 0.31402 2.5876 0.13308 3.949-0.091 0.6848-0.13853 1.3153-0.1056 1.4011 0.0743 0.19347-0.43054 2.8524-0.70544 3.7159-0.11139 0.34992-0.30856 0.99408-0.43816 1.4315-0.45302 1.529-2.9844 6.2308-6.0148 11.172-0.98332 1.6033-1.2883 2.1854-1.2776 2.4388 0.0487 1.1614-0.043 2.4939-0.20837 3.029-0.19697 0.63734-0.0332 4.0996 0.26374 5.5744 0.14087 0.69974 0.25613 1.4479 0.25613 1.6625s0.0714 0.46162 0.15864 0.54887c0.22456 0.22456 0.37153 0.65654 0.37153 1.092 0 0.44241 0.58391 1.3342 0.84248 1.2866 0.0933-0.01715 0.48373-0.6744 0.89978-1.5148 2.0134-4.067 3.7365-9.017 4.6139-13.254l0.28543-1.3785 0.576-0.06256c0.3168-0.03443 0.59578-0.04644 0.61996-0.02673 0.17369 0.14156-3.2121 11.676-4.1932 14.285-0.50741 1.3493-1.3527 2.9972-1.8318 3.5711-0.39231 0.46993-1.0708 0.52362-1.9993 0.15821zm-2.4256-16.017c0.0886-0.231-0.11146-0.68831-0.30117-0.68831-0.19724 0-0.22269 0.53279-0.0344 0.72104 0.16938 0.16938 0.26148 0.1604 0.3356-0.03274zm3.2662-4.2694c2.6196-3.9905 4.1105-6.9657 4.8475-9.6734 0.68107-2.5021 1.1807-4.8675 1.1797-5.5849-1e-3 -0.80223-0.37462-3.5994-0.53797-4.029-0.11821-0.31089-0.36881-0.41977-0.57406-0.24943-0.44799 0.3718-1.646 2.7898-1.646 3.3222 0 0.08947-0.10852 0.29756-0.24115 0.46241-0.30837 0.38329-0.71248 1.2179-0.7155 1.4777-1e-3 0.11025-0.10051 0.41518-0.2205 0.67762-0.32017 0.70019-1.017 2.939-1.1057 3.5522-0.0422 0.2916-0.10992 0.57789-0.15058 0.63621-0.0407 0.05832-0.13543 0.44005-0.21059 0.84828-0.0752 0.40824-0.20288 0.84793-0.28383 0.9771-0.0809 0.12917-0.14716 0.4691-0.14716 0.7554 0 0.36133-0.083 0.6691-0.27143 1.0062-0.21468 0.3841-0.24797 0.52946-0.15926 0.69522 0.0851 0.15902 0.074 0.24778-0.0462 0.36791-0.0871 0.08708-0.15491 0.26933-0.15075 0.405 9e-3 0.28158-0.17712 1.0977-0.32165 1.4131-0.0534 0.11664-0.12418 0.47451-0.15718 0.79527-0.033 0.32076-0.10856 0.89335-0.16793 1.2724-0.0594 0.37908-0.1299 0.97553-0.15673 1.3254-0.0268 0.34992-0.0728 0.73649-0.10219 0.85905-0.0608 0.25357 0.0129 0.368 0.1917 0.29769 0.0672-0.02645 0.5835-0.75081 1.1473-1.6097zm-86.377-5.8296c-0.57156-0.61367-1.0182-1.225-1.0827-1.482-0.11446-0.45604 0.04644-2.1636 0.28233-2.9962 0.43132-1.5224 1.3343-2.8496 2.0633-3.0325 0.6125-0.15373 1.21 0.24629 1.7026 1.1399 0.47555 0.86262 0.43986 1.6166-0.14471 3.0573-0.24847 0.61235-0.56882 1.2913-0.7119 1.5087-0.14308 0.21745-0.26014 0.51662-0.26014 0.66483 0 0.3219-0.42574 1.0284-0.76142 1.2635-0.36576 0.25619-0.7773 0.20947-1.0874-0.12344z"/></g></svg>
