<?xml version="1.0" encoding="UTF-8" standalone="no"?>
<svg
   xmlns:dc="http://purl.org/dc/elements/1.1/"
   xmlns:cc="http://creativecommons.org/ns#"
   xmlns:rdf="http://www.w3.org/1999/02/22-rdf-syntax-ns#"
   xmlns:svg="http://www.w3.org/2000/svg"
   xmlns="http://www.w3.org/2000/svg"
   viewBox="0 0 150 60"
   height="60"
   width="150"
   version="1.1"
   id="svg3336">
  <metadata
     id="metadata3342">
    <rdf:RDF>
      <cc:Work
         rdf:about="">
        <dc:format>image/svg+xml</dc:format>
        <dc:type
           rdf:resource="http://purl.org/dc/dcmitype/StillImage" />
        <dc:title></dc:title>
      </cc:Work>
    </rdf:RDF>
  </metadata>
  <defs
     id="defs3340" />
  <path
     id="path3346"
     d="m 119.80176,60.254658 c -0.2194,-0.0131 -1.0028,-0.0592 -1.7409,-0.10236 -2.1312,-0.12465 -2.8185,-0.26727 -4.969,-1.03115 -2.0184,-0.71692 -3.4317,-1.79517 -4.8161,-3.6741 -0.7491,-1.01668 -0.9906,-1.49163 -1.3505,-2.65623 -0.535,-1.7314 -0.6159,-2.23256 -0.6159,-3.81634 l 0,-1.37027 -2.2808,0 c -1.3621,0 -2.2978,0.0278 -2.3233,0.0689 -0.023,0.0379 -0.5961,2.67382 -1.2726,5.8576 -0.676495,3.18379 -1.247495,5.86215 -1.268795,5.95192 l -0.039,0.16321 -3.8795,0 c -2.133699,0 -3.879499,-0.0185 -3.879499,-0.0412 0,-0.0429 2.444699,-11.55024 2.514799,-11.83721 l 0.04,-0.16321 -2.502199,0 -2.5021,0 -3.8348,6.01702 -3.8349,6.01703 -3.307303,0.004 -3.3073,0.004 -0.048,-1.2085 c -0.026,-0.66467 -0.048,-2.14459 -0.048,-3.2887 0,-1.14411 -0.022,-3.30966 -0.048,-4.81233 l -0.048,-2.73212 -1.7629,0 c -1.6066,0 -1.7684,0.0113 -1.8257,0.12695 -0.035,0.0698 -0.7947,2.77909 -1.6891,6.0206 l -1.6263,5.89367 -3.9353,0 c -2.4574,0 -3.9353,-0.0259 -3.9353,-0.0692 0,-0.0494 2.932,-10.31926 3.3818,-11.84529 0.035,-0.12045 -0.4565,-0.12694 -9.6176,-0.12694 -9.128,0 -9.6577,0.007 -9.7045,0.12694 -0.027,0.0698 -0.8378,2.77103 -1.8014,6.00269 l -1.752,5.87575 -3.9583,0.0187 -3.9583,0.0187 0.059,-0.2001 c 0.033,-0.11006 0.8628,-2.80144 1.8449,-5.98085 0.9822,-3.17941 1.7857,-5.79901 1.7857,-5.82134 0,-0.0223 -2.989,-0.0406 -6.6423,-0.0406 -6.425,0 -6.6409,0.004 -6.5998,0.13393 0.023,0.0737 1.3313,2.76452 2.9065,5.97969 1.5752,3.21517 2.864,5.86427 2.864,5.88689 0,0.0226 -1.9422,0.0411 -4.316,0.0411 l -4.3161,0 -3.0121,-6.02397 -3.0122,-6.02397 -0.517,0.0213 -0.5169,0.0213 -1.8518,6.00269 -1.8519005,6.00269 -3.574,0 -3.5741004,0 0.066,-0.19949 c 0.036,-0.10971 1.8791004,-6.26312 4.0947004,-13.67422 l 4.0285005,-13.47474 0,-15.08791 0,-15.0879001 16.1039,0 16.1039,0 0,13.2385601 0,13.23856 1.3419,0 1.342,0 0,-13.23856 0,-13.2385601 16.0677,0 16.0676,0 0,13.2385601 0,13.23856 1.342,0 1.342003,0 0,-13.23856 0,-13.2385601 16.103799,0 16.103895,0 0,15.7889501 0,15.78895 0.7798,-0.75594 c 0.4289,-0.41576 1.0328,-0.98137 1.342,-1.2569 l 0.5622,-0.50097 0,-14.53204 0,-14.5320501 16.1039,0 16.1039,0 0,22.7413101 0,22.7413 -4.4497,0 -4.4498,0 -0.079,0.27202 c -0.043,0.14962 -0.672,2.57336 -1.3972,5.3861 -0.7252,2.81274 -1.356,5.14961 -1.4017,5.19304 -0.1895,0.17986 -6.9092,1.43358 -8.0989,1.51102 -3.5879,0.23355 -6.3404,0.34294 -7.254,0.28828 z m 6.9823,-6.2602 c 0.7483,-0.11044 1.3717,-0.21426 1.3854,-0.23071 0.042,-0.0498 1.4978,-5.93225 1.4978,-6.05045 0,-0.0974 -0.7836,-0.10773 -6.9457,-0.0913 l -6.9458,0.0185 0.021,0.39897 c 0.059,1.12553 0.1787,1.79399 0.4416,2.46636 0.388,0.99246 0.8741,1.61101 1.8225,2.31902 1.1229,0.83832 2.1121,1.19424 3.8446,1.38327 1.0102,0.11023 3.3906,0.006 4.8786,-0.21364 z m -90.479697,-7.82292 c 0.1258,-0.50467 4.4559,-14.73798 4.7158,-15.50091 l 0.2208,-0.64833 0,-13.37003 0,-13.3700301 -14.9796,0 -14.9795,0 0,12.6582401 0,12.65824 3.5545,0 c 1.9549,0 3.5544,0.0184 3.5544,0.0408 0,0.0225 -0.85,2.86655 -1.8889,6.32018 -1.0389,3.45363 -1.8763,6.29199 -1.8608,6.30746 0.015,0.0155 2.6853,-2.82801 5.933,-6.31884 l 5.905,-6.34697 4.8592,-0.001 4.8592,-0.001 -1.0162,1.03369 c -0.5589,0.56853 -1.6531,1.68656 -2.4315,2.4845 -0.7784,0.79794 -2.1178,2.16895 -2.9765,3.04668 -0.8587,0.87774 -2.9286,2.99953 -4.5997,4.7151 -1.6711,1.71558 -3.3008,3.38864 -3.6216,3.71792 l -0.5833,0.59869 0.4946,0.99719 c 0.272,0.54845 0.5415,1.07063 0.5988,1.1604 l 0.1042,0.16322 7.0261,0 7.0261,0 0.086,-0.34457 z m 29.7141,-8.61413 2.5492,-8.92242 3.71,-0.0188 3.7099,-0.0188 0,-12.65758 0,-12.6575801 -14.9069,0 -14.907,0 0,12.6544401 0,12.65445 5.4586,0.0282 c 5.9679,0.0309 5.8373,0.0224 7.4195,0.48359 1.4849,0.43287 2.7056,1.47005 3.3799,2.87185 0.3121,0.64874 0.3664,0.83757 0.4971,1.72681 0.081,0.54913 0.1467,1.17931 0.1467,1.40041 0,0.51979 -0.3842,2.77991 -0.6114,3.59675 -0.3986,1.43323 -1.0801,2.97204 -1.7593,3.9727 -0.8695,1.28084 -2.7688,2.75009 -4.4481,3.44086 -0.379,0.15591 -0.7204,0.31082 -0.7586,0.34424 -0.038,0.0334 1.7396,0.0523 3.9509,0.042 l 4.0204,-0.0188 2.5491,-8.92243 z m 8.401,4.51562 c -0.025,-2.44369 -0.066,-4.95881 -0.091,-5.58915 l -0.045,-1.14608 -1.5067,5.53475 c -0.8287,3.04411 -1.5061,5.55923 -1.5052,5.58915 9e-4,0.0299 0.72,0.0544 1.5981,0.0544 l 1.5965,0 -0.046,-4.44308 z m 13.023203,-4.53375 5.6881,-8.94056 6.322599,0 6.322595,0 -1.909,8.90429 c -1.0499,4.89736 -1.9092,8.92877 -1.9095,8.95869 0,0.0299 1.0086,0.0544 2.242,0.0544 l 2.2426,0 0.048,-0.56219 c 0.075,-0.87268 0.8502,-3.7293 1.3493,-4.97256 0.6161,-1.53443 1.6054,-3.4693 2.4145,-4.72202 l 0.6977,-1.08046 0,-15.94832 0,-15.9483201 -14.979495,0 -14.979499,0 0,21.6207201 0,21.62073 0.3808,-0.0219 0.3809,-0.0219 5.6881,-8.94056 z m 6.717899,8.88615 c 0.057,-0.1552 2.2861,-10.59421 2.266,-10.61318 -0.021,-0.0199 -6.678199,10.51816 -6.716799,10.63233 -0.039,0.11506 4.408399,0.0959 4.450799,-0.0191 z m 29.153895,-0.43524 c 0.065,-0.28925 0.3218,-1.40728 0.571,-2.4845 l 0.453,-1.95858 7.5246,-0.0185 c 4.5807,-0.0112 7.5245,0.008 7.5245,0.0487 0,0.0369 -0.2448,1.12783 -0.544,2.42419 -0.2992,1.29636 -0.5441,2.39246 -0.5441,2.43579 0,0.0557 1.1067,0.0788 3.7721,0.0788 l 3.7721,0 0,-21.61694 0,-21.6169301 -14.9795,0 -14.9795,0 0,13.5364801 c 0,11.77629 0.014,13.53125 0.1048,13.49624 0.058,-0.0221 0.423,-0.24067 0.8119,-0.48565 1.3996,-0.88174 3.6558,-1.72592 6.0176,-2.25147 1.7928,-0.39894 2.3451,-0.4672 4.6358,-0.57293 3.5117,-0.16209 5.3071,-0.0402 7.5079,0.50967 1.9821,0.49525 3.3866,1.30319 4.5177,2.59882 0.6305,0.72225 0.9299,1.29667 1.2345,2.36833 0.2614,0.91984 0.2685,0.97711 0.2663,2.13993 0,1.08383 -0.021,1.26216 -0.2057,1.92019 l -0.2033,0.7254 -4.455,0 -4.4551,0 -0.042,-0.7254 c -0.055,-0.95749 -0.1684,-1.35469 -0.5484,-1.92231 -0.4729,-0.70663 -0.5497,-0.77817 -1.1267,-1.05033 -0.6566,-0.30964 -1.1108,-0.4285 -2.0974,-0.54883 -0.6684,-0.0815 -0.9025,-0.0777 -1.811,0.0298 -1.4065,0.1664 -2.0611,0.34352 -3.0069,0.81354 -0.6728,0.33432 -0.9915,0.55997 -2.0312,1.43828 -1.3371,1.12957 -1.6359,1.44908 -2.0675,2.21063 -0.1554,0.27433 -0.53,0.87977 -0.8323,1.34542 -1.1811,1.81915 -2.2067,5.10822 -2.2126,7.09585 l 0,0.56219 3.656,0 3.656,0 0.1179,-0.52592 z m -73.513797,-3.85791 c 1.924,-0.24668 2.6192,-0.5004 3.6171,-1.32004 0.5826,-0.47855 0.6249,-0.53425 1.0672,-1.40506 0.4703,-0.9258 0.9747,-2.39573 1.108,-3.22903 0.1727,-1.07918 -0.3264,-2.0538 -1.1881,-2.32024 -0.6833,-0.21128 -2.2306,-0.32489 -4.4359,-0.32569 l -2.1166,-7.8e-4 -0.1095,0.38083 c -0.3969,1.38003 -0.9438,3.4248 -1.1302,4.22546 -0.1207,0.51866 -0.4108,1.64485 -0.6447,2.50263 -0.2338,0.85779 -0.4102,1.58677 -0.3919,1.61996 0.055,0.10093 3.1765,0.006 4.2246,-0.12804 z"
     style="fill:#ffffff;fill-opacity:1" />
</svg>
