<?xml version="1.0" encoding="UTF-8" standalone="no"?>
<!-- Created with Inkscape (http://www.inkscape.org/) -->

<svg xmlns:dc="http://purl.org/dc/elements/1.1/" xmlns:cc="http://creativecommons.org/ns#" xmlns:rdf="http://www.w3.org/1999/02/22-rdf-syntax-ns#" xmlns:svg="http://www.w3.org/2000/svg" xmlns="http://www.w3.org/2000/svg" xmlns:sodipodi="http://sodipodi.sourceforge.net/DTD/sodipodi-0.dtd" xmlns:inkscape="http://www.inkscape.org/namespaces/inkscape" width="250" height="91" viewBox="0 0 250 91" id="svg2" version="1.1" inkscape:version="0.91 r13725" sodipodi:docname="kpmg.svg">
  <defs id="defs4" />
  <sodipodi:namedview id="base" pagecolor="#ffffff" bordercolor="#666666" borderopacity="1.0" inkscape:pageopacity="0.0" inkscape:pageshadow="2" inkscape:zoom="1.9799" inkscape:cx="183.26" inkscape:cy="27.908" inkscape:document-units="px" inkscape:current-layer="layer1" showgrid="false" inkscape:window-width="1280" inkscape:window-height="752" inkscape:window-x="0" inkscape:window-y="0" inkscape:window-maximized="1" units="px" />
  <metadata id="metadata7">
    <rdf:RDF>
      <cc:Work rdf:about="">
        <dc:format>image/svg+xml</dc:format>
        <dc:type rdf:resource="http://purl.org/dc/dcmitype/StillImage" />
        <dc:title></dc:title>
      </cc:Work>
    </rdf:RDF>
  </metadata>
  <g inkscape:label="Layer 1" inkscape:groupmode="layer" id="layer1" transform="translate(0,-961.4)">
    <rect style="opacity:0.001;fill:#ffffff;fill-opacity:1;stroke:none;stroke-width:2.5;stroke-linecap:round;stroke-linejoin:round;stroke-miterlimit:4;stroke-dasharray:none;stroke-dashoffset:0;stroke-opacity:1" id="rect4175" width="250" height="91" x="0" y="961.4" />
    <g id="g5489" transform="matrix(0.25362,0,0,0.25362,37.77,971.9)" style="fill:#ffffff;fill-opacity:1">
      <path id="path5491" d="m 682.42,210.49 -35.79,0 5.46,-23.66 -71.58,0 -5.46,23.66 -34.57,0 0,-4.86 0,0 1.21,-8.49 0,0 3.03,-9.7 3.64,-9.1 5.46,-8.5 2.43,-4.24 3.03,-3.64 3.64,-3.03 3.64,-3.04 3.64,-3.03 4.25,-2.42 4.24,-1.82 4.85,-1.22 4.86,-0.6 5.46,-0.61 0,0 4.24,0.61 4.25,0.6 3.64,1.22 3.64,1.82 2.43,3.03 1.81,3.03 1.22,4.85 0,5.46 42.46,0 0,0 1.82,-6.67 0,-3.64 0,-4.25 0,-4.24 -1.21,-4.25 -1.22,-4.24 -2.42,-4.25 0,0 -4.25,-4.85 -4.25,-3.64 -5.45,-3.04 -6.07,-2.42 -7.28,-1.82 -7.28,-1.22 -7.88,-0.6 -9.1,0 0,0 -13.96,0.6 -7.27,0.61 -8.5,1.82 -7.88,1.82 -8.49,3.03 -8.5,3.64 -7.88,4.86 0,-128.601 141.94,0 0,205.031 0,0 z m -83.71,34.57 0,0 -12.13,1.82 -12.14,0.61 0,0 -7.27,-0.61 -6.68,-1.21 -6.06,-2.43 -4.86,-3.64 -2.42,-1.82 -1.82,-2.42 -1.82,-2.43 -1.21,-3.03 -1.22,-3.04 -0.6,-3.63 -0.61,-7.28 66.12,0 -7.28,29.11 0,0 z m -81.89,-117.07 0,29.12 0,0 -6.68,10.31 -5.46,10.92 -4.24,10.31 -2.43,9.1 0,0 -1.82,6.67 -0.6,6.07 -21.23,0 18.19,-84.92 -60.05,0 -53.99,84.92 -3.64,0 0,-205.031 141.95,0 0,122.531 0,0 z m -79.47,82.5 -21.23,0 32.15,-50.96 -10.92,50.96 0,0 z m -86.13,-84.93 -35.18,0 -24.27,84.93 -38.21,0 0,0 7.28,-3.03 6.06,-3.64 5.46,-4.25 4.85,-4.86 3.64,-5.45 3.04,-6.07 2.42,-6.67 1.82,-6.68 0,0 1.82,-10.91 0,-4.86 -0.6,-4.24 -0.61,-4.25 -1.22,-3.03 -1.82,-3.64 -2.42,-3.03 0,0 -3.64,-3.64 -4.85,-3.04 -5.46,-1.82 -6.07,-1.21 -6.07,-0.61 -6.67,0 -12.74,0 0,0 -27.9,0 0,-120.101 141.34,0 0,120.101 0,0 z m -22.45,84.93 14.56,-53.38 0.61,53.38 -15.17,0 0,0 z m -103.12,-20.63 0,0 0,0 -4.85,0.61 0,0 -4.85,0 -9.1,0 4.24,-15.77 1.82,-7.89 4.86,-17.59 0,0 6.06,0 0,0 7.28,0 0,0 7.89,0 6.67,0.61 4.85,1.21 1.21,1.21 1.22,1.22 0,0 1.21,2.42 0.61,3.64 -0.61,4.25 -1.82,5.46 0,0 -1.21,4.24 -2.43,4.25 -1.82,3.64 -3.03,2.43 -3.03,2.42 -4.25,1.82 -5.46,1.22 -5.46,0.6 0,0 z m -39.43,-57.02 -2.42,7.28 -20.63,67.94 -0.6,2.43 -66.729,0 -5.458,-10.92 72.187,-74.01 -46.1,0 -56.417,60.66 18.198,-60.66 -33.97,0 0,-120.101 141.939,0 0,127.381 0,0 z m 348.79,-132.84 0,137.7 0,0 -6.67,6.06 -6.06,6.07 0,-149.83 -152.86,0 0,125.56 -12.74,0 0,-125.56 -152.26,0 0,125.56 -12.74,0 0,-125.56 -152.859,0 0,143.16 -38.821,129.81 33.969,0 17.591,-57.02 4.853,0 28.51,57.02 41.247,0 -27.902,-57.02 63.082,0 -17.59,57.02 37.61,0 16.99,-57.02 7.88,0 0,0 12.13,0 0.61,0 70.97,0 -16.38,57.02 37.61,0 15.77,-57.02 16.99,0 0.6,57.02 31.55,0 36.39,-57.02 23.66,0 -12.13,57.02 37,0 12.13,-57.02 21.84,0 0,0 0,6.06 0,6.68 1.21,6.06 1.82,6.07 1.82,5.46 3.03,4.85 3.64,4.85 3.64,4.25 0,0 6.07,4.85 6.06,3.64 6.68,2.43 7.28,2.42 6.67,1.22 7.28,0.6 13.34,0.61 0,0 16.38,-0.61 17.59,-1.21 16.99,-3.03 17.59,-3.64 13.35,-51.56 42.46,0 0,-215.95 -152.87,0 0,0 z" inkscape:connector-curvature="0" style="fill:#ffffff;fill-opacity:1" />
    </g>
  </g>
</svg>
