<?xml version="1.0" encoding="UTF-8"?>
<svg version="1.1" viewBox="0 0 250 91" xmlns="http://www.w3.org/2000/svg" xmlns:cc="http://creativecommons.org/ns#" xmlns:dc="http://purl.org/dc/elements/1.1/" xmlns:rdf="http://www.w3.org/1999/02/22-rdf-syntax-ns#">
<metadata>
<rdf:RDF>
<cc:Work rdf:about="">
<dc:format>image/svg+xml</dc:format>
<dc:type rdf:resource="http://purl.org/dc/dcmitype/StillImage"/>
<dc:title/>
</cc:Work>
</rdf:RDF>
</metadata>
<g transform="translate(0,-961.4)" fill="#fff">
<g transform="matrix(.25362 0 0 .25362 37.77 971.9)">
<path d="m682.42 210.49h-35.79l5.46-23.66h-71.58l-5.46 23.66h-34.57v-4.86l1.21-8.49 3.03-9.7 3.64-9.1 5.46-8.5 2.43-4.24 3.03-3.64 3.64-3.03 3.64-3.04 3.64-3.03 4.25-2.42 4.24-1.82 4.85-1.22 4.86-0.6 5.46-0.61 4.24 0.61 4.25 0.6 3.64 1.22 3.64 1.82 2.43 3.03 1.81 3.03 1.22 4.85v5.46h42.46l1.82-6.67v-3.64-4.25-4.24l-1.21-4.25-1.22-4.24-2.42-4.25-4.25-4.85-4.25-3.64-5.45-3.04-6.07-2.42-7.28-1.82-7.28-1.22-7.88-0.6h-9.1l-13.96 0.6-7.27 0.61-8.5 1.82-7.88 1.82-8.49 3.03-8.5 3.64-7.88 4.86v-128.6h141.94v205.03zm-83.71 34.57-12.13 1.82-12.14 0.61-7.27-0.61-6.68-1.21-6.06-2.43-4.86-3.64-2.42-1.82-1.82-2.42-1.82-2.43-1.21-3.03-1.22-3.04-0.6-3.63-0.61-7.28h66.12l-7.28 29.11zm-81.89-117.07v29.12l-6.68 10.31-5.46 10.92-4.24 10.31-2.43 9.1-1.82 6.67-0.6 6.07h-21.23l18.19-84.92h-60.05l-53.99 84.92h-3.64v-205.03h141.95v122.53zm-79.47 82.5h-21.23l32.15-50.96-10.92 50.96zm-86.13-84.93h-35.18l-24.27 84.93h-38.21l7.28-3.03 6.06-3.64 5.46-4.25 4.85-4.86 3.64-5.45 3.04-6.07 2.42-6.67 1.82-6.68 1.82-10.91v-4.86l-0.6-4.24-0.61-4.25-1.22-3.03-1.82-3.64-2.42-3.03-3.64-3.64-4.85-3.04-5.46-1.82-6.07-1.21-6.07-0.61h-6.67-12.74-27.9v-120.1h141.34v120.1zm-22.45 84.93 14.56-53.38 0.61 53.38h-15.17zm-103.12-20.63-4.85 0.61h-4.85-9.1l4.24-15.77 1.82-7.89 4.86-17.59h6.06 7.28 7.89l6.67 0.61 4.85 1.21 2.43 2.43 1.21 2.42 0.61 3.64-0.61 4.25-1.82 5.46-1.21 4.24-2.43 4.25-1.82 3.64-3.03 2.43-3.03 2.42-4.25 1.82-5.46 1.22-5.46 0.6zm-39.43-57.02-2.42 7.28-20.63 67.94-0.6 2.43h-66.729l-5.458-10.92 72.187-74.01h-46.1l-56.417 60.66 18.198-60.66h-33.97v-120.1h141.94v127.38zm348.79-132.84v137.7l-6.67 6.06-6.06 6.07v-149.83h-152.86v125.56h-12.74v-125.56h-152.26v125.56h-12.74v-125.56h-152.86v143.16l-38.821 129.81h33.969l17.591-57.02h4.853l28.51 57.02h41.247l-27.902-57.02h63.082l-17.59 57.02h37.61l16.99-57.02h7.88 12.13 0.61 70.97l-16.38 57.02h37.61l15.77-57.02h16.99l0.6 57.02h31.55l36.39-57.02h23.66l-12.13 57.02h37l12.13-57.02h21.84v6.06 6.68l1.21 6.06 1.82 6.07 1.82 5.46 3.03 4.85 3.64 4.85 3.64 4.25 6.07 4.85 6.06 3.64 6.68 2.43 7.28 2.42 6.67 1.22 7.28 0.6 13.34 0.61 16.38-0.61 17.59-1.21 16.99-3.03 17.59-3.64 13.35-51.56h42.46v-215.95h-152.87z" fill="#fff"/>
</g>
</g>
</svg>
