<?xml version="1.0" encoding="UTF-8"?>
<svg version="1.1" viewBox="0 0 250 91" xmlns="http://www.w3.org/2000/svg" xmlns:cc="http://creativecommons.org/ns#" xmlns:dc="http://purl.org/dc/elements/1.1/" xmlns:rdf="http://www.w3.org/1999/02/22-rdf-syntax-ns#">
<metadata>
<rdf:RDF>
<cc:Work rdf:about="">
<dc:format>image/svg+xml</dc:format>
<dc:type rdf:resource="http://purl.org/dc/dcmitype/StillImage"/>
<dc:title/>
</cc:Work>
</rdf:RDF>
</metadata>
<g transform="translate(0,-961.4)">
<g fill="#fff" stroke-width="1px">
<path d="m15 1014.2v-1.6h2.529v-16.58h-2.529v-1.6h10.17v1.6h-2.543v16.38h7.786v-3.1h1.788v4.9h-17.201z"/>
<path d="m43.669 1006.2q0-2.7-0.517-3.8-0.516-1.2-1.761-1.2-1.205 0-1.735 1.1-0.516 1.1-0.516 3.7v0.2h4.529zm5.151 1.6h-9.68v0.1q0 2.8 0.821 4t2.648 1.2q1.523 0 2.463-0.8t1.205-2.4h2.198q-0.569 2.4-2.264 3.5-1.695 1.2-4.741 1.2-3.654 0-5.614-1.9-1.947-2-1.947-5.6 0-3.5 2-5.4 1.999-1.97 5.561-1.97 3.496 0 5.363 2.07 1.867 2 1.987 6z"/>
<path d="m60.936 1006.2q0-2.7-0.516-3.8-0.517-1.2-1.762-1.2-1.205 0-1.734 1.1-0.517 1.1-0.517 3.7v0.2h4.529zm5.151 1.6h-9.68v0.1q0 2.8 0.821 4t2.649 1.2q1.522 0 2.463-0.8 0.94-0.8 1.205-2.4h2.198q-0.57 2.4-2.265 3.5-1.695 1.2-4.74 1.2-3.655 0-5.615-1.9-1.946-2-1.946-5.6 0-3.5 1.999-5.4 2-1.97 5.562-1.97 3.496 0 5.363 2.07 1.867 2 1.986 6z"/>
<path d="m78.971 1007.8v-1.3q0-2.5-0.635-3.6-0.636-1.1-2.026-1.1-1.457 0-2.053 1.2-0.582 1.1-0.582 4.1 0 3.1 0.595 4.2 0.596 1.2 2.04 1.2 1.39 0 2.026-1.1 0.635-1.1 0.635-3.6zm4.688 4.8h1.999v1.6h-6.687v-1.8q-0.596 1.1-1.615 1.6-1.007 0.6-2.49 0.6-2.992 0-4.714-2-1.708-2-1.708-5.5 0-3.4 1.708-5.4 1.722-1.97 4.714-1.97 1.483 0 2.49 0.57 1.019 0.5 1.615 1.6v-6.73h-2.012v-1.58h6.7v19.01z"/>
<path d="m87.512 1013.8v-4h1.497q0.185 1.6 1.178 2.5 0.993 0.8 2.702 0.8 1.43 0 2.184-0.5 0.768-0.5 0.768-1.4t-0.49-1.4q-0.476-0.4-1.867-0.8l-1.933-0.5q-2.185-0.5-3.165-1.5t-0.98-2.7q0-2.3 1.589-3.4 1.589-1.17 4.9-1.17 1.245 0 2.648 0.21 1.417 0.16 3.125 0.66v3.5h-1.496q-0.119-1.4-1.033-2.1-0.9-0.8-2.595-0.8-1.43 0-2.172 0.5-0.728 0.4-0.728 1.3 0 0.7 0.424 1.1 0.423 0.4 1.522 0.7l1.92 0.5q2.768 0.7 3.827 1.8 1.063 1 1.063 2.8 0 2.4-1.712 3.5-1.695 1.2-5.283 1.2-1.311 0-2.781-0.2t-3.112-0.6z"/>
<path d="m131.13 1008.5q-0.78 3.1-2.81 4.6-2.02 1.5-5.44 1.5-5 0-7.92-2.8-2.9-2.7-2.9-7.5 0-4.72 2.9-7.47 2.92-2.77 7.92-2.77 1.76 0 3.67 0.43 1.91 0.42 4.04 1.28v4.83h-1.68q-0.52-2.46-1.88-3.69-1.37-1.25-3.61-1.25-2.88 0-4.29 2.14-1.4 2.11-1.4 6.5 0 4.4 1.4 6.6 1.41 2.1 4.32 2.1 1.97 0 3.22-1.1 1.26-1.1 1.83-3.4h2.63z"/>
<path d="m134.97 996.13q0-1.07 0.74-1.8 0.74-0.74 1.82-0.74 1.04 0 1.77 0.74 0.74 0.73 0.74 1.8 0 1.04-0.74 1.79-0.73 0.72-1.77 0.72-1.08 0-1.82-0.72-0.74-0.73-0.74-1.79zm5.13 16.47h2.01v1.6h-8.7v-1.6h2v-10.9h-2v-1.6h6.69v12.5z"/>
<path d="m145.45 1001.7h-2.04v-1.6h2.04v-4.36h4.68v4.36h3.91v1.6h-3.91v8.6q0 1.9 0.29 2.3 0.3 0.5 1.06 0.5 0.85 0 1.26-0.6t0.44-1.8h1.97q-0.12 2.2-1.16 3-1.04 0.9-3.58 0.9-2.9 0-3.93-0.9t-1.03-3.4v-8.6z"/>
<path d="m163.72 1017.4q-0.64 1.5-1.54 2.2-0.9 0.6-2.42 0.6-0.65 0-1.44-0.1-0.8-0.2-1.74-0.5v-2.9h1.5q0 1 0.47 1.5 0.46 0.5 1.34 0.5 0.86 0 1.39-0.5 0.53-0.4 1.06-1.7l0.21-0.5-6.13-14.3h-1.52v-1.6h8.12v1.6h-1.68l3.57 8.3 3.34-8.3h-1.87v-1.6h5.28v1.6h-1.7l-6.24 15.7z"/>
<path d="m181.74 1014.2v-1.6h2.53v-16.58h-2.53v-1.6h10.17v1.6h-2.54v16.38h7.78v-3.1h1.79v4.9h-17.2z"/>
<path d="m214.48 1005.5v7.1h2.01v1.6h-6.7v-1.8q-0.93 1.1-2.07 1.6-1.14 0.6-2.59 0.6-2.16 0-3.33-1.2-1.15-1.1-1.15-3.3 0-2.4 1.66-3.6 1.66-1.1 5.01-1.1h2.47v-0.9q0-1.7-0.81-2.5t-2.5-0.8q-1.41 0-2.17 0.6t-1.08 1.9h-1.49v-3.1q1.25-0.4 2.61-0.65 1.35-0.22 2.84-0.22 3.78 0 5.52 1.37 1.77 1.4 1.77 4.4zm-4.69 4.3v-2.9h-1.76q-1.31 0-2.02 0.8-0.7 0.7-0.7 2 0 1.4 0.5 2 0.52 0.7 1.57 0.7 1.08 0 1.75-0.7 0.66-0.8 0.66-1.9z"/>
<path d="m219.76 1012.6v-17.43h-2.01v-1.58h6.7v8.31q0.59-1.1 1.6-1.6 1-0.57 2.49-0.57 3 0 4.73 1.97 1.73 2 1.73 5.4 0 3.5-1.73 5.5t-4.73 2q-1.49 0-2.49-0.6-1.01-0.5-1.6-1.6v1.8h-6.7v-1.6h2.01zm4.69-4.8q0 2.5 0.62 3.6 0.63 1.1 2.04 1.1 1.44 0 2.02-1.2 0.6-1.1 0.6-4.2 0-3-0.6-4.1-0.58-1.2-2.02-1.2-1.41 0-2.04 1.1-0.62 1.1-0.62 3.6v1.3z"/>
</g>
</g>
</svg>
