<?xml version="1.0" encoding="UTF-8"?>
<svg version="1.1" viewBox="0 0 250 91" xmlns="http://www.w3.org/2000/svg" xmlns:cc="http://creativecommons.org/ns#" xmlns:dc="http://purl.org/dc/elements/1.1/" xmlns:rdf="http://www.w3.org/1999/02/22-rdf-syntax-ns#">
<metadata>
<rdf:RDF>
<cc:Work rdf:about="">
<dc:format>image/svg+xml</dc:format>
<dc:type rdf:resource="http://purl.org/dc/dcmitype/StillImage"/>
<dc:title/>
</cc:Work>
</rdf:RDF>
</metadata>
<g transform="translate(0,-961.4)">
<g transform="matrix(.06706 0 0 .06706 58.129 1081.9)" fill="#f00">
<path transform="translate(53.14,416.02)" d="m1606.6-1207.2c-7.4 0.1-10.5 0.6-15.7 2.3-18.9 6.4-36.2 21.4-44.5 38.7-8.3 17.1-8.1 37.4 0.4 54.3 10 19.7 30.3 34.8 51.6 38.5 1.4 0.2 6.1 0.5 10.6 0.6 28.2 0.4 57.4-20.7 67.1-48.6 3.6-10.5 3.8-26.3 0.4-36.3-7.2-21-26.1-39.9-46.6-46.7-8.7-3-14.9-2.6-23.3-2.8zm-202.2 2.5c-4 0-7.8 0.3-11.2 0.9-22.7 4.4-46 26.5-51.3 48.6-1.9 7.8-1.9 20.6 0 29.4 5 24.1 28 46 53 50.6 13.7 2.5 33.2 0.2 41.8-5 5-2.9 14.7-12.3 14.7-14.2l0.2-0.3-0.4-0.8c-1-2.5-4.4-7.9-5.8-8.7-0.6-0.4-2.7 0.9-4.6 2.9-4.7 4.8-9.4 7.1-18.7 9-5.6 1.6-10.6 1-15.8 1.3-9.3-0.8-16.8-4.9-24.6-12.9-20.6-21.3-21-56.1-0.8-74.7 8.1-7.4 18.1-10.8 29.4-9.8 13.2 1.2 22.3 6.7 27.8 17 2.1 3.8 2.7 4.8 4.8 5.2 3 1.2 5.9-0.4 8.8-0.6l0.7-0.1c1.1-5.2 0.8-9.6 1-13.5 0-6.8-0.5-13.3-1-14.4-0.8-1.4-2.1-1.9-5-1.9-2.1 0-8.9-1.6-15.2-3.6-9-2.9-19-4.4-27.8-4.4zm822 0c-4 0-7.8 0.3-11.2 0.9-18.3 3.5-38.6 19.5-47.2 37.3-7.8 16.2-7.5 38.4 0.9 54.7 9.9 19.6 29.2 33.6 51 37.2 10.9 1.7 31.3-1.1 38.4-5.3 1.9-1.1 4.7-3.4 7.4-5.8 1.5-1.3 2.8-2.6 4-3.9 2.1-2.2 3.6-4 3.7-4.8l0.2-0.3c-1.7-3.6-4.6-7-6.7-10-0.2 0-2.1 1.6-4.2 3.6-5.2 4.9-9.5 6.9-18.6 8.8-5.1 1.5-10.2 1.1-14.9 1.4-0.2 0-0.4 0-0.6-0.1-2.5-0.2-4.8-0.6-7.2-1.3-19.4-5.8-35.7-32.3-33.5-54.7 1.1-11.8 4.8-20.5 12-28.6 7.2-7.9 16.1-12.2 26.1-12.9 4.3-0.6 8.7 0.6 12.6 0.9 9.6 2 16.8 7.5 21.7 16.6 1.8 3.3 2.5 4.3 4.5 4.8 0.8 0.2 1.7 0.3 2.8 0.3 2.2 0.7 4.7-0.7 6.1-0.9l0.7-0.1c1.1-5.2 0.8-9.6 1-13.5 0-6.8-0.5-13.3-1-14.4-0.8-1.4-2.1-1.9-5-1.9-2.1 0-8.9-1.6-15.2-3.6-9-2.9-19-4.4-27.8-4.4zm-1720.1 0c-5.18-0.1-10.05 0.4-14.29 1.4-22.3 5.2-43.1 25.6-49.2 48.1-1.6 5.9-1.8 23.3-0.3 29 4 15.2 12 27.7 24.2 37.3 10 8 19.7 12.2 32.2 14.3 5.7 0.9 19.7 0.3 27-1.3 2.7-0.5 7.2-2.1 10-3.5 5.3-2.6 16.5-12.8 16.5-15.1l0.2-0.3-0.52-0.8c-1.22-2.8-5.63-9.1-6.58-9.1-0.4 0-2 1.4-3.7 3.1-4.5 4.8-10.2 7.6-18.6 9.3-5.2 1.5-10.22 1.1-15 1.4-2.68-0.1-5.53-1-7.8-1.4-15.9-4.7-30.8-24.2-32.8-42.9-1.9-16.8 1.9-30 11.5-40.6 8.7-9.4 19.7-13.7 32.2-12.6 13.4 1.2 22.2 6.6 27.7 17.1l2.9 5.6c0.87 0.2 1.63 0 2.45 0h2.75c6.8 0 7.3-1 7.3-14.9 0-14.2-0.7-16.1-5.9-16.1-2.2 0-9-1.6-15.3-3.6-8.81-2.8-18.29-4.3-26.91-4.4zm581.5 1.8c-3.8-0.1-7.8 0.7-9.8 2.5-1.3 1.2-5.9 8.5-10.2 16.2-10.2 18.6-19.8 34.7-21.9 37.2h-0.2c-0.2 0.1-0.4 0-0.8-0.2-13.8-20.7-20.2-34-33.8-54-2.5-1.5-5.5-1.1-7.9-1.5-3.63-0.2-7.78-0.2-11.08 0.1-1.98 0-3.97 1-5.67 1.4-2.5 3-1.7 4.2 35.55 55 2.7 2.8 4.4 6.4 6.6 9.5l-0.6 27.8c-0.4 19-0.3 28.9 0.4 30.2 1 1.8 2.2 2 13 2 11.1 0 12-0.1 13.1-2.1 0.8-1.6 0.8-8.8 0-28.6-1.1-24.9-1.1-26.7 0.6-29.4 1-1.6 9.2-13.5 18.3-26.5 22.4-32.2 24-34.5 24-35.5 0-1.2-1.1-2.1-2.8-2.8-2.1-1.1-4.8-0.9-6.8-1.3zm1414.9 1.2h-0.1v0.1c-0.1 0-0.3 0.1-0.4 0.2 0 0.1-0.1 0.2-0.2 0.4-2.7 2-2.2 7.3-1.6 21.3 0.3 5.4 0.5 11.7 0.6 18.4v21.9c0 6.8 0.1 13.1 0.1 19.2-0.2 7.7-0.4 14.9-0.7 21-0.6 12.6-0.5 17.7 0.3 19.5l1.2 2.5 29 0.5c16 0.3 33.6 0.6 39.3 0.8l10.3 0.2c2.4-4 2.6-9 3.6-13.1 0.5-4.9 0.3-5.8-1.4-6.7-1.5-0.9-2.9-0.7-5.9 0.8-5.8 2.9-15.1 4-33 4h-15.4c-0.1-0.1-0.3-0.2-0.5-0.3-2-7.5-1.6-16.3-1.9-22.7 0-5.4 0-11.5-0.1-20.2 0-10.8 0.1-21.9 0.2-31.3 0-2.8 0.1-5.5 0.2-7.9 1.4-28.5 2.2-29.9-8.7-29.5-5-0.7-9.9 0.4-14.9 0.9zm-728.4-0.9c-3.4 0.2-5.2 0.6-5.7 1.1 0 0.1-0.1 0.5-0.2 0.9-1.5 4.3-0.3 7.4-0.4 11.5-0.2 24.2 1.4 76 2.8 82.6 3 13.6 7.9 20.4 18.6 25.8 7.6 3.9 13.1 5.3 23 5.9 9.1 0.6 20.4-0.2 25.8-1.8 12-3.6 25-18.5 29.3-32.8l0.4-0.8c-0.1-0.8 0.3-1.6 0.4-2.3 0.7-3.2 1.1-17.4 1.1-36 0-16.9 0.5-35 1-40.1 1.2-10.6 0.8-13.3-4.6-13.9-0.5-0.1-1.1-0.1-1.7-0.2h-2.3-0.1c-2.9-0.5-5.6 0.8-8 1.2 0 0.1-0.1 0.9-0.1 1.8-1.1 1.7-1 4.7-0.5 17.1-0.1 7.1-0.2 15.2-0.2 24.4 0 34.1 0 44.2-2.9 50.4-0.2 0.3-0.3 0.6-0.5 1-1.4 2.5-3.4 4.4-4.8 6.1-7.8 8.7-16.7 11.9-27.5 10-14.6-2.7-20.7-9.4-23.4-25.9-1.7-10.3-1.8-40.2-0.4-64.5 1.1-16.9 1.6-20.6-4.6-21.4-5.2-0.4-9.6-0.1-14.5-0.1zm-1116.4 0.4-1.5 3c-1.3 2.5-1.4 5.8-0.7 21 0.23 4.5 0.36 12.4 0.42 21.6 0 11.9 0 25-0.12 36.2-0.4 26.7-0.3 40.5 0.4 41.8 1 1.7 2.2 1.9 11.9 1.9 8.6 0 11.1-0.3 12.2-1.6 1.63-7.7 1.01-13.9 1.05-19.7 0.46-22.7 0.43-59.7 0-82.7 0.83-6.9-0.47-13.9-1.1-20.5-6.66-2.5-14.76-1.3-22.55-1zm119.5-0.5-0.6 0.9c-0.9 0.3-1.18 0.6-1.4 1.1-1.42 2.7-2.53 9-2.12 11.4l-0.18 1.6c9.69 0.3 18.4 0.4 25.5 0.5h24.3l0.8 10c0.5 5.5 0.6 29.8 0.3 54.1-0.4 32.9-0.2 44.4 0.7 45.3 0.6 0.6 3.06 0.9 7.54 0.9 5.37 0.5 10.99-0.4 16.16-0.8 0.77-0.5 1.16-1.4 1.6-2 0.8-1.8 0.9-8.2 0.2-23.5-0.7-21.7-0.32-45.5-0.1-67 0.35-9.1 0.85-15.5 1.45-16.2 0.21-0.3 0.5-0.5 0.98-0.7 2-0.3 5.7-0.5 11.97-0.6 12.72 0.5 25.51 0.2 36.15 0h0.67v-0.7c0.82-2.3-0.51-11-2.1-12.9-0.13-0.2-0.42-0.3-0.92-0.4-0.1-0.1-0.12-0.1-0.18-0.2-0.12 0-1.25-0.1-2.81-0.2-6.19-0.5-21.48-0.6-58.09-0.6h-0.1-59.8zm1192.9 0-1.5 3.6c-1.3 3.1-1.3 6.8-0.3 28.7 0.8 16.3 0.9 35.9 0.5 55.7-0.9 35.8-0.9 34.9 0.5 36.6 0.8 0.9 3.4 1.4 7.9 1.4 2.5 0 4.3 0 5.6-0.4 2.6-0.6 3.4-1.9 3.5-4.7 0-1.3-0.3-18-0.7-37-0.5-25.3-0.4-34.8 0.4-35.3 1.3-0.8 5.5 4.8 26.5 34.9 8.1 11.5 16.6 23.5 18.9 26.6 3.9 5 7.6 10.2 11.3 15.4 5.1 0.1 10.7 0.3 14.9 0.5 5 0 7.8 0 9.5-0.3h0.1c2.2-0.1 3.1-0.5 3.5-1 0.1-0.1 0.2-0.7 0.2-1.6 0.7-1.8 0.8-6.2 0.5-18.2 0.3-24 0.3-63.7 0-86.4 0.6-5.8-0.3-11.7-0.6-17.4-0.4-0.7-3.5-1.1-7.6-1.1-10.2 0-10.3 0.1-9 22.6 0.4 6.7 0.7 16.9 0.8 27.6v0.7c0.1 8 0.2 13.8 0.2 19.4 0 13.1-0.2 23.9-0.6 25.5-0.4 1.3-1 2.2-1.4 2-2.2-0.8-51.9-73-63.8-92.6l-3.2-5.2h-8zm408.7 0.5-1.7 3c-1.5 2.7-1.6 4.8-0.9 19.5 1.1 21 1.1 62.1 0 81.5-0.6 11.8-0.5 15.7 0.6 18.2l1.3 3.3h11.5 0.1 0.1 10.5c1.6-1.2 1.2-3.2 1.7-4.7 0.5-2.7 0.6-8.5 0.4-20.2 0.1-10.7 0.1-24.1 0.1-38.9 0-15.4-0.1-26.9-0.2-35.8 0.4-13.8 0.2-20-0.6-23-0.2-1.1-0.3-1.8-0.5-2-6.7-2.3-14.2-1.3-22.4-0.9zm-756.1 13.9c12.4 6.1 23.6 19.9 28.1 34.4 2.2 6.9 2.8 19 1.4 26.9-2.4 14.8-12.8 29.8-24.6 35.8-4.8 2.4-7.2 2.9-14.3 3.2-10.1 0.3-14.5-0.9-22.4-6.1-15.9-10.6-24.7-27.6-25-48.1-0.2-16.1 5-29.2 15.5-39.1 14.7-11.1 24.5-12.1 41.3-7zm475.5-705.4c-2.4 4.8-4.9 9.6-7.3 14.4 0.7 26.9 1.9 55 3.4 80.1 2.1 34.6 3.7 99.5 2.5 99.5-0.3 0-3.8-2.7-7.7-5.9-34.8-29.3-80.7-43.7-132.9-41.8-25.6 0.9-51.2 5.8-72.9 13.7-54.3 19.8-103.2 64.5-128.6 117.5-15.2 31.4-21.5 60.1-21.5 97.5 0 54.7 15.8 100.7 48.7 141.5 9.2 11.4 27.5 29.8 37.8 38 38 30.4 82.1 47.1 129.8 49.3 45.6 2 76.8-5.6 108.2-26.4 9-5.9 23.6-18.3 28.3-24 1.6-2 3.5-3.4 4.1-3 0.7 0.5 1.1 6.6 1.1 18.1v17.5c1.8 4.8 5 9 7.5 13.4v0.1h0.1c25.8 2.5 53.8 1.5 80.1 0.7 0.2-0.1 0.4-0.4 0.6-0.7h0.1c1.4-2.6 2.6-5.4 3.7-7.6 3.1-7.3 3.2-7.7 2.6-18.4-4.4-78.4-8-199.7-8.6-286.9 0-23.3 0-46.8 0.1-68.2 1.5-80.5 4.3-131.5 9.1-202.9-2.2-5.2-4.4-10.3-6.6-15.5h-40.8zm-1603.9 68c-23.27 0-35.45 0.1-41.3 0.5-8.89 2.5-7.6 8.2-11.9 16.7 5.72 79.9 7.59 163.1 7.6 214.8-0.1 81.5-0.9 114.9-5 195-2.9 56.4-4.1 83.7-3.7 86.5 0.4 3.7 5.6 15.6 7.1 16.4 0.9 0.5 59.9 1.1 131.1 1.4 117.89 0.5 174.69 1.4 211.99 3.6 24.5 1.4 25.6 1.4 27.2-1.2 12.73-28.9 24.32-58.5 25.4-90.2v-0.1l-0.1-0.9c-10.49-6.2-11.77-2-19.04 1.2-7.8 11.7-20 22.5-32.5 28.8-26 13.1-77 19.4-145.49 18.1-41.2-0.8-99.6-3.4-100.7-4.4-0.4-0.5-1.2-9.8-1.8-20.8-0.9-19.1-1.6-39.3-4.1-127.4-0.6-21.8-1.2-69.2-1.3-105.5-0.54-88.1 5.73-137.6 9.5-215.3-0.89-10.7-7.87-12.6-11.83-16.7-5.76-0.4-17.9-0.5-41.17-0.5zm1857.4 73c-45.6 4.5-78.5 21-100.3 50.3-19.4 26.1-25.1 43-23.9 70.2 3.4 38.3 19.6 72 49.7 93.7 35.3 22.6 77.2 31.9 116.5 41.8 60.5 15.2 78.6 23.4 98.4 44.6 13.7 14.2 17.7 34 19.1 49.9-4.4 38.6-33.7 61.9-67 74.5-25.9 9.5-60.8 7.5-97-5.5-10.6-3.8-32.2-14.5-41.1-20.3-29.5-20.4-47.3-53.3-67.1-78-2.6 0.9-7.4 20.6-9.8 39.8-0.5 4.6-1.3 18.4-1.7 30.5l-0.6 22.1c24 10.3 49.7 19.3 70.3 28.4 25.4 12.9 54.2 20.9 85.2 23.9 22.8 1.7 47.8 0.2 67.3-2.4 23.2-4.3 44.8-12.4 62.4-23.4 47.9-29.7 70.3-67.2 70.4-117.6 0.1-35.2-10.4-60.8-34.7-85.1-31.1-30.5-71.5-42.3-109.1-53-46.7-13.2-57.5-16.6-77.4-24.5-36.6-14.6-55-29.8-59.6-49.1-5.4-23 5.2-44.2 30.5-61 16.8-11.2 26.8-13.8 56.5-14.5 41.1-1.1 69.8 6.5 100.5 26.7 30 25.5 54 54.9 72.6 79.8 8.3-35.8 7.9-73.8 5.7-114-27.6-7-52.4-11.6-82.3-17.8-46.4-10.1-88-13.4-133.5-10zm-1287.6 2.9c-9.5 0-19.2 0.5-29 1.5-65.55 7-123.5 42.5-160.1 98.1-16.5 25.1-26.1 49.3-32.4 82-1.97 10.3-2.59 15.2-2.97 30.3-0.52 9-0.61 18-0.28 27 0.1 9.7 0.28 17.1 0.75 20.9 6.9 53.2 26.5 94.9 61.6 131.1 37.4 38.6 86.85 61.6 144.7 67.1 23.8 1.6 48.5 0.4 68.3-2.8 40-8.5 74.8-25.4 116.1-56.2 13.7-7.7 22.4-20.7 26.4-29.8 3.9-17.3 3.7-32.6-2.8-48.2-0.1 0-0.1 0-0.1-0.1-0.4-0.3-0.7-0.5-1.1-0.6-0.9-0.2-5 3.9-9.8 9.7-27.9 33.4-59.9 55-98.2 66.5-31.6 9.4-74.8 9.3-103.5-0.4-25.5-8.6-46.75-24.3-61.85-45.4-10.4-14.7-33.25-54.4-32.4-56.7 56.05-27.8 122.45-57.5 174.25-81.4 44.2-20.9 88.7-39.8 132.1-62.2 0.2-0.1 0.4-0.3 0.4-0.3 0.1 0 0.1-0.1 0.1-0.2 0.3-0.3 0.5-0.6 0.6-0.9 5.9-16.1-1.4-29.5-9.8-41-17.2-26-30.8-44.8-37.9-52.3-7.5-8-22.7-20.1-34.1-27.1-30.2-18.8-67.9-28.6-109-28.6zm443.5 0.1c-64.6-0.1-117.1 21.1-160.8 64.6-34.3 34.1-54.6 74.8-62.2 124.5-2.5 16.6-3 52.7-0.9 70.5 4.3 37.5 15.8 70 35 98.9 33.7 50.6 84.4 84.1 144.5 95.4 31.2 6.1 65.9 5.5 94.8 1.2 42.9-9.1 83.9-30.1 128-65.4 10.4-8.4 11.3-9.4 12.7-14.2 3.5-12.7 4.4-24.7 4.2-36.5 0.2-7.9-3.3-13.3-6.3-19.7-0.6-0.2-3.3 2.4-6 5.9-7.3 9.3-23.7 26.1-33.7 34.4-34.9 29.2-74.4 43.5-120.2 43.7-46.1 0.2-81.8-14.6-106.8-44.1-10.3-12.4-38.9-59.1-39.6-64.9 0-0.1 0.1-0.3 0.2-0.5 68-32.7 85.9-40.1 158.2-73.8 47.8-22.1 95.5-44.1 145.3-67.2 8.3-9.9 6.1-16.4 5.9-26-1.7-4.1-5.4-9.7-13-20.9-23.3-35-30.4-44.5-39.8-53.6-36-34.7-82.8-52.3-139.5-52.3zm-431.3 42.8c29.6 7.8 48.7 22.4 66.2 50.9 9.9 16.1 16.9 32.3 22.3 51.6 1.4 5 2.7 10 3 10.9-29.6 18.6-69.6 32.6-115.1 52.8-39.8 17.2-74.23 32.6-109.5 48-5.01 2.5-7.6 3.2-8.36 2.2 0-0.1 0-0.1-0.1-0.1-1.1-2-3.48-19.9-4.08-31.8-1.2-21.1 2.3-60.7 7.5-85.3 7.8-36.3 18.45-59.5 35.45-76.9 10.1-10.4 20-16.6 33.39-21.2 24.3-7.1 44.3-5.3 69.3-1.1zm464.6 7.8c21.9 10.7 38.4 28.7 52.8 57.4 9.7 19.4 19 48.1 16.3 50.5-48.3 22.3-93.9 41.7-139.8 61.8-33.4 12.8-63.5 30.8-92.5 38.5-3-8.8-4.3-44.9-2.6-69.8 3.1-45.4 13.7-84.3 29.7-108.8 12.7-19.5 28.4-31.4 50.1-37.8 29.1-5.8 61.3-3.7 86 8.2zm459.2-1.6c48.5 16 78.4 50.4 94.1 108.5 6.8 23.9 2.9 49.8 2.6 74.5-0.4 34.3-1.1 72.6-1.6 85-0.9 24.5-1.2 26.1-8.3 41-16.2 34.2-50 59.9-87.7 66.8-8.3 1.6-23.5 2.1-33 1.1-24.5-2.3-51-16.4-70.6-37.2-31.4-33.6-52.2-78.7-61.7-133.7-3.1-18-4.9-31.7-5.8-43.6-0.5-40.8 8.6-89 28.6-120.9 16.1-24.3 35.9-39.5 60.3-46.3 25.7-4.8 56.4-3.5 83.1 4.8zm-2348.1-320c-40.93-15.7-52.48 58.8-28.03 49.4 4.48-14.8 37.26-33.3 28.03-49.4zm325.98 1c-13.394 19 34.695 43.2 35.74 51 14.654-32.3-2.778-49.6-35.74-51zm-192.23 14c-26.78 4.7-103.95-2.1-57.17 28.6 28.56 8.1 15.37 38.6 47.82 39.6 8.14 28.1 30.21-9.1 50.38-9.7-1.53-19 77.545-55.2 14.9-51.9-18.76-1-37.22-6.4-55.93-6.6zm-329.15 10.7c-18.18 4.4-52.86-7.6-25.68 20.1-59.72 11.8 9.36 59.9 32.19 36.7-28.17 44 53.67 4.8 45.52-25.3 52.55-37.3-35.49-5.8-52.03-31.5zm714.81 0.7c-15.42 19.7-64.43 7-65.93 17.7 14.16 16.2 48.7 82.1 68.18 50.8-24.45-32.6 55.8 21.3 49.17-32.2-5.4-20.9-40.55-8.1-13.7-35.1-12.9 3.5-24.9-0.1-37.72-1.2zm-377.72 4.5c24.29-4.5 69.04 18.8 19.04 20.8-21.27 1.7-24.83 52.5-33.81 8.2-10.32-14.6-60.37-25.5-13.4-27.4 9.36-0.8 18.76-1.7 28.17-1.6zm-152.87 8.6c-9.74 28-46.09 16.8-20.94 51.2 1.18 36.1 10.58-1.6 30.68 21.8 27.08 14.5 39.71 56.5 65.66 63.5-36.51 3.2-60.02-82-86.99-56-16.86 11.7-10.63-58.8-42.74-65.3-15.1-31.8-100.14 3.8-44.7-1.2 47.44 18 46.52 83.8 88.69 109.8 25.3 23 65.89 19.3 92.56 29.2-43.36 24.5-9.55 35.1 10.31 31.6-35.69 47.9-69.03-71.3-77.08-12.9 0.93 60.1 72.36 12 89.41 31.5 10.4 37.8 35.37 73 55.52 103.2 7.26 29-43.92 10.6-45.91 37.1-38.44 0.7-77.46-1.6-115.48 1.6-1.29 66.3-0.1 132.8-0.86 199.1-38.82 0.2-11.38 73.2-51.83 62.8-33.59 8.7-14.83-40.7-14.47-59 32.88-73.5 71.86-155.9 41.8-237.2-19.12-31.1-44.72-44.9-27.63-83.8-20.48-46.2 1.1 61.8-43.65 42.1-18.1-4.7-39.66-8.2-14.59 11.5 48.59-14.1 82.85 26.2 79.28 73 4.29 69.1-23.3 135.4-56.64 194.1-27.23 36.1-69.72 56.1-102.52 84.3-26.79 33.7-18.16 103.3-62.1 117.7-32.08 2.4 20.95-82.7-6.89-84-14.34 24.8-7.3 62.8-17.96 91-17.08-16.2 10.13-82.3 8.81-115.8 17.33-25 47-43.7 66.23-68.9 51.97-55.8 99.08-138.2 66.95-215.5-18.37-28.6-14.76-63.3-44.55-72.4 17.16 14.1 71.53-12.1 47.77-17.5-27.81 20.4-85.87-12.6-41.42-14.4-23.9-5.4-25.41-65.4-35.38-16.2 10.62 36 6.73 60.4-20.26 89.5-56.51 86.9-45.79 194.4-75.48 290-4.98 27.4-59.45 86.9 2.82 65.7 31.93-2-3.59 66.9 1.84 91.7 8.23 15.2 61.14-6.7 77.39-18.6 2.62-33 28.31-64.5 56.52-40.2 23.65 36.5-72.83 56.8-34.11 76.2 30.48-42.3 86.75-28.8 120.93 1.9 22.14-49-59.29-30.3-63.57-61.2 2.45-43.5 41.37-95.7 89.29-100.5 46.81 8.1 56.67 73.3 89.79 104.9 38.56 43.9 84.69 87.4 141.31 104.6 78.72-31.3 145.51-94.3 181.91-170.6 17.822-35.7 55.283-54.1 89.653-23.2 18.15 22 49.18 46.1 48.32 76 7.01 42.7-87.52 18.1-63.82 69.7 36.45-32.8 90.87-41.4 124.39-1.5 26.3-28.7-63.15-39.2-37.02-81.8 41.36-13.5 47.1 22.2 61.96 52 26.01 3.8 87.85 43.6 68.66-8.9 0.8-30.3-30.76-94.2 24.63-67.6 32.68-3.5-25.46-56.2-20.79-80.4-25.06-92.9-17.99-195.6-72.4-279.1-20.92-27.4-37.42-49.2-19.47-82.3-0.45-26.3-14.12-38.4-17.81-5.5-22.34 13.9-26.66 25.9 2.4 20.4-8.47 39.7-87.8-15-62.15 23.5 16.27 12.8 75.67-6.2 26.12 13.3 14.42 24.9-35.81 60-31.66 93.7-10.91 98.7 63.98 176.3 130.38 238.6 27.65 35.3 17.05 89.7 28.2 132.6-28.24-16.7-0.26-84.3-33.34-94.3-5.82 25.8 37.88 106.5-13.46 80.8-22.94-38.3-28.31-86.8-55.2-123-58.76-31.6-107.87-83.2-130.06-146.9-20.991-56.5-33.405-123.2-6.025-179.7 16.758-30.7 56.948-0.7 74.738-25.5-7.72-4.8-76.225 3.4-55.95-47.9-9.89-29.5-17.641 20.6-9.49 33.2 4.16 28.8-49.798 51.8-40.207 93-10.515 72.8 26.495 139.2 52.397 204.2-2.18 17.8 16.46 62.7-15.857 54.4-34.876 10.7-19.855-42.2-37.346-57.8-24.802-6.9-9.231-40.4-13.675-60.4-0.169-48.3-0.04-96.7-0.82-145-41.338-2.4-84.889 2.1-125.27-2.8-12.51-3.5-43.87-41.8-21.19-29.1 15.38 23.9 84.298 41.6 54.342-11.3-7.842-23.9 49.502 8.9 21.811-24.6-14.528-25.1-50.213-99.9 6.272-70.9 36.587 20.2 59.885-61.9 28.417-44.5-4.496 30.3-62.052 41.2-59.292 20.1 68.155 32 3.697-34.8 0.15-31.4 55.819 4.2 117.82-19.5 138.76-75.4 5.664-36.6 54.789-66.3 69.029-61.5-34.48-29.2-92.645 9.7-92.82 51.1-2.504 18.4-16.636 34.6-17.085 9.5-42.889 11-58.769 88.3-112.34 58.2-22.01-28.9-52.35-55.4-33.74-91-4.69-13.7-44.91 28.6-10.28 17.2-11.98 15.6-39.29 10.9-54.97 4.3-39.98 15.8-46.27-22.9-53.07-49.4-13.53 33.8 24.19 59.4-10.71 86.1-27.35 48.9-18.6-69.9-44.03-73-18.53 42.7-11.15-24.3-36.99-25.6zm347.3 0.9c-25.365 6.6-18.693 65.4-38.867 24.1-27.071 31.9-4.708 94.5-59.455 105.4 53.438 27.3 75.717-86.5 115.31-58.9 1.691-25.9 25.428-47.7-6.7-55-2.334-5-3.345-14.6-10.291-15.6zm-603.8 1.7c-56.27 25.2 81.96 82.5 20.54 31.6-4.7-10.7-4.48-31.6-20.54-31.6zm860.81 0.9c-18.87 6.1-47.24 54.5-37.72 52.7 23.02 4.7 75.68-39 37.72-52.7zm-479.9 16.7c23.37 9.3-21.94 18.5 0 0zm44.73 2.8c24.2 14.5-24.14 14.9 0 0zm-23.81 42.7c13.78 20.3 53.92-0.7 31.33 19.4-7.36 20.9-41.15 53.5-21.96 86.7 14.67 45.3 63.12 68.6 90.24 101.6 4.89 19.5 12.09 75.1-2.91 26.9-4.77-34.9-28.4-23.7-8.71 4.1 5.59 42.2-32.15-21-35.3-38.5-34.31-18.7-78.7-37-91.78-82.6-16.73-31.7-30.59-79.2 2.52-106 11.97-5.2 28.79 3.1 36.57-11.6zm340.81 13.9c-45.55 20.9 43.39 20.6 0 0zm-619.9 0.2c-48.44 16.3 42.43 24.8 0 0zm-79.32 12.7c-37 13.2 33.89 33.6 15.17 65.4 36.07-9 107.63 19.4 125.33-11.9-15.51-29.1 55.98-46.6 8.3-52.8-16.95 26.5-62.79 52.8-71.58 9.3-12.28 11.4-27.43 42.9-51.61 12-10.99-5.5-10.84-23.1-25.61-22zm625.52 0c-41.116 9.9 29.68 30 11.38 61.2 21.31 11.3 58.39 2 86.1 4.5 13.32-3.9 43.57 9.8 39.49-12.2-8.72-26.1 56.29-51 7.38-52.3-16.19 31.4-59.28 48.5-69.86 7.9-13.76 10.2-19.08 44.8-46.19 16.1-15.21-4.2-14.12-22.4-28.3-25.2zm-307.75 16c-16.9 19.3 18.88 18.4 0 0zm3.34 37.2c-16.83 18.9 24.49 18.4 0 0zm300 10.8c-35.28 21.3 39.27 40 18.45 62 20.87 4.3 45.34 27.2 53.92 33.8 9.6-28 61.08-11.9 51.73-46.1 25.97 4.6 51.45-49.9 17.3-37.8-6.65 34.8-71.84 20.6-72.19 62.3-1.45-48.5-56.7-38.7-69.21-74.2zm-463.1 0.1c-20.09 9.9-23.21 36.5-53.87 39-21.27 18.4-14.34 52.9-30.56 11.7-25.88-16-54.04-22-70.08-43.3-27.93 31.3 42.32 34.1 30.26 60.1 16.01 16.4 46.88 8.3 54.97 29.8 5.61-32 61.22-20.3 46.62-54.2 14.86-8.3 43.68-25.6 22.66-43.1zm178.04 28.4c-14.37 18.5 56.9 54.5 16.87 19.8-7.13-5.1-9.18-15.8-16.87-19.8zm326.84 21.5c28.9 23.4-32.3 16.5 0 0zm-551.03 0c29.08 20.2-28.61 16.3 0 0zm609.52 3c31.16 24.9-31.9 15.9 0 0zm-668.43 0.1c27.8 19.1-27.82 18.5 0 0zm83.3 78.9c-20.42 20.3 41.71 38.3 10.25 5.5-2.64-2.3-6.3-5.5-10.25-5.5zm504.07 0c-34.223 11.9-5.54 44.9 6.17 5.2-0.89-2.5-2.96-5.6-6.17-5.2zm47.7 3c-42.2 14.7-5.05 35.4 5.31 4.5 0.73-2.6-2.6-5.5-5.31-4.5zm-598.64 0.1c-18.62 25.2 51.64 28.1 4.87 1.3l-4.87-1.3zm296.18 15.8c26.17-6.2 4.78 36.9-0.1 3.8 1.08-1.1-0.46-2.6 0.1-3.8zm3.85 28.1c41.29 13-57.16 9.5-4.64 0.9l4.64-0.9zm28.8 3.3c11.85 4.4 0.54 7.2 0 0zm-66.78 1c8.51 6.8-13.99 1.6 0 0zm-235.58 6.7c-26.18 35.2 28.99 37.9 0 0zm504.64 0c-22.855 14.6 11.5 42.7 5.94 10.9 2.05-3.3-1.24-11.4-5.94-10.9zm-463.25 0.1c-17.07 5.2-1.32 40.8 5.22 19.8-0.95-6.2 2.74-17.4-5.22-19.8zm503.77 0.4c-29.86 20.9 25.01 47.2 0 0zm-272.57 20.3c-2.55 33.5 32.99 36.8 46.98 36.9-29.76 8.8-26.69 39.5-19.06 54.7-16.31-30.7-64.33-3.4-56.34-4.6 20.92-31.9-12.54-42-14.94-51.5 30 3.6 37.08-6 43.36-35.5zm112.11 0c-3.62 34 33.297 36.3 45.94 37.2-29.377 9.3-26.966 32.2-16.199 55.1-19.902-21.5-39.416-21.6-59.575-1.4 22.611-25.8-7.49-46.7-17.63-55.7 31.72 2.9 39.903-1.1 47.464-35.2zm-222.07 0.4c-0.63 40.2 41.26 34 43.63 38.6-29.22 8.3-19.39 39.8-15.23 53.4-17.39-28.4-44.88-12.2-58.28-3 26.39-25.2-10.04-45.9-17.45-54.2 30.42 4 40.68-3 47.33-34.8zm346.53 46.8c-23.455 35.2 39.37 39.8 0 0zm-473.78 0.8c-29.78 19.7 6.11 44.7 6.18 6.6 7.92-3.7-9.68-6.6-6.18-6.6zm243.5 60.4c28.32 5 12.17 39 44.39 38.1 40.258 18.9 63.771 60.7 71.091 106-10.323 24.6 17.707 66.9-21.71 72.9 3.22 24.4 3.123 97-34.901 78.3-1.99-19.7 9.19-86.6-10.42-76.2 3.1 19.8 5.56 77.3-28.38 57.9 3.73-44.2-9.64-88.6-6.89-131.5 9.3-20.2-8.97-75.2-23.28-36.1 23.3 52.4-24.9 81.9-22.74 132.1-3.32 20.7 19.52 92.4-21.36 66.8-3.25-18.3-8.45-111.9-13.68-52.6 17.13 38.4-31.88 46.8-27.92 6.5 3.89-37.2-18.34-61.9-34.7-92.7-43.28-24.4 17.32-59.7 33.19-83.8 6.16-36.5 56-44.2 76.4-58.2-3.35-13.3 6.74-27.7 20.91-27.5zm0.68 9.8c-36.89 13.7 24.34 36.9 6.54 3.1l-6.54-3.1zm-267.27 1.9c-8.53 20.7-45.89 79.8-47.64 70.5 16.59-13.2 65.63-49.1 47.64-70.5zm520.76 0.1c-20.18 17.3 43.69 72.6 49.6 66.6-21.3-18.6-33.47-45.7-49.6-66.6zm-230.48 29c-21.67 1.1-6.35 31.3-10.95 45.7 26.34 36.3 1.79 88.8 14.77 131.7-4.88 24.5 7.58 79.7 14.17 31 8.42-36.5-11.18-94.7 18.98-116.4-20.22 30.3-4.39 67.6 8.55 98.2 0.79 21.8-6.14 90.2 16.144 35.5 5.053-26.4-12.714-101.8 5.243-96.5-12.959 29.2 27.246 47.8 14.958 5.6-4.654-37.4-6.686-75.1-35.065-103-6.05-22.2-35.75-12.5-46.8-31.8zm-48.55 0c-26.89 13.5-59.06 26.2-67.27 55.6-18.17 15.8-14.84 50.6-46.42 52.6 14.66 17.1 39.49 91 59.98 36.5-19.2-12-11.6-57.6 14.17-35.1-23.91-1.6-18.89 27.2 7.24 12.6 15.9-38.4-27.45-31.7-41.4-23.4 17.67-64 94.98 27.8 28.98 39.7-6.52 40.8 32.13 76.5 20.23 122.6 29.53 7.8 2.52-58.2 8.74-82.9-4.22-33.4 33.32-48.5 22.83-82.3-10.69-27.2 8.94-50.3 4.55-77.5-0.25-9.9 3.71-21.1-11.63-18.4zm-159.24 56c1.92 24 4.71 108.8-13.56 50.5-1.58-17.8 4.58-35.4 13.56-50.5zm356.72 2c29.902 19.4-2.993 108.8-0.841 45.3 0.04-15.1-0.241-30.2 0.841-45.3zm-250.72 111.2c-30.14 4.1-7.01 38.5-10.76 57.2 22.79 57.9 13.82-47.3 10.76-57.2zm427.09 144.8c-44.56 0.7-90.78-1.4-134.28 1.6-18.217 40.9 46.736 1.9 36.706 35-16.14 56.7 54.22 27 85.8 34.2 51.16-0.7 102.45 1 153.54-1.6-25.23-20.7-32.9-42.8-8.4-67.7-44.27-3-88.97-0.7-133.37-1.5zm-639.54 0.1c-68.45 1.4-138.62-2.4-206.1 2.4 25.93 25 15.03 46.5-9.05 67.5 79.48 1 160.23 2.5 238.98-0.5 6.14-16.1-12.05-55.5 17.94-47.3 40.49 8 12.17-38.1-15.83-22.1h-25.94zm284.86 34.9c-82.35 0-164.69 0-247.04 0.5 4.81 26.7-20.16 86.5 31.25 68.1 153.93 0.3 307.88 0.7 461.81-0.1-6.56-19.7 17.12-71.7-13.87-68-77.378-0.9-154.77-0.4-232.15-0.5z" fill="#fff"/>
</g>
</g>
</svg>
