<?xml version="1.0" encoding="UTF-8"?>
<svg version="1.1" viewBox="0 0 250 91" xml:space="preserve" xmlns="http://www.w3.org/2000/svg"><g transform="matrix(4.3054 0 0 4.3054 25.859 6.7077)" fill="#fff"><path d="m45.587 14.346c-0.175-0.446-0.51-0.749-0.933-0.964-0.032-0.016-0.072-0.032-0.112-0.056a0.53 0.53 0 0 1 0.088-0.055c0.654-0.406 0.934-1.107 0.734-1.848-0.167-0.62-0.582-1.01-1.157-1.265-0.415-0.184-0.846-0.247-1.293-0.247-0.503 0-0.998 0.071-1.453 0.294-0.582 0.279-0.981 0.709-1.093 1.362-0.04 0.239-0.04 0.477 0.016 0.708h1.445c-8e-3 -0.047-0.016-0.08-0.016-0.111-0.04-0.342 0.055-0.637 0.343-0.852 0.375-0.263 1.077-0.27 1.452-8e-3a0.773 0.773 0 0 1 0.088 1.21c-0.191 0.183-0.43 0.263-0.694 0.279s-0.527 0.016-0.782 0.016h-0.096v1.051c0.032 0 0.064 8e-3 0.096 8e-3h0.534c0.28 0 0.551 0.032 0.806 0.135 0.232 0.096 0.431 0.231 0.56 0.454a0.9 0.9 0 0 1-0.36 1.234c-0.543 0.303-1.101 0.303-1.66 0.024a0.883 0.883 0 0 1-0.503-0.685c-0.024-0.159-8e-3 -0.318-8e-3 -0.485l-1.492 0.223c-0.04 0.51 0.072 0.979 0.399 1.393s0.766 0.66 1.269 0.796a4.396 4.396 0 0 0 1.931 0.08c0.479-0.088 0.926-0.263 1.309-0.581 0.638-0.502 0.87-1.362 0.582-2.11zm-9.114 1.425c0.296-0.136 0.6-0.255 0.886-0.406 0.575-0.287 1.118-0.621 1.549-1.091 0.766-0.828 0.99-1.784 0.59-2.835-0.287-0.748-0.886-1.178-1.66-1.393a3.987 3.987 0 0 0-2.075-0.016c-0.59 0.151-1.093 0.438-1.444 0.932-0.559 0.764-0.575 1.879-0.064 2.683h1.548c-0.335-0.462-0.47-0.971-0.351-1.529 0.096-0.47 0.367-0.796 0.854-0.931 0.295-0.088 0.59-0.088 0.894-0.024 0.415 0.087 0.694 0.334 0.846 0.716 0.111 0.271 0.135 0.558 0.104 0.852-0.056 0.47-0.272 0.868-0.615 1.203-0.391 0.382-0.854 0.668-1.34 0.923-0.695 0.366-1.413 0.677-2.132 0.964-0.056 0.023-0.08 0.047-0.08 0.111v1.051h5.69v-1.161h-3.263c0.016-0.024 0.04-0.032 0.064-0.048zm-12.785 0c0.296-0.136 0.599-0.255 0.894-0.406 0.575-0.287 1.11-0.621 1.549-1.091 0.766-0.828 0.99-1.784 0.59-2.835-0.287-0.748-0.886-1.178-1.66-1.393a3.987 3.987 0 0 0-2.075-0.016c-0.59 0.151-1.093 0.438-1.444 0.932-0.56 0.764-0.575 1.879-0.064 2.683h1.548c-0.335-0.462-0.47-0.971-0.351-1.529 0.096-0.47 0.367-0.796 0.854-0.931 0.295-0.088 0.59-0.088 0.894-0.024 0.415 0.087 0.694 0.334 0.846 0.716 0.111 0.271 0.135 0.558 0.103 0.852-0.055 0.47-0.271 0.868-0.614 1.203-0.391 0.382-0.854 0.668-1.34 0.923-0.695 0.366-1.413 0.677-2.132 0.964-0.056 0.023-0.08 0.047-0.08 0.111v1.051h5.69v-1.161h-3.264c8e-3 -0.024 0.032-0.032 0.056-0.048zm-10.287-0.128c0 0.558-0.215 0.844-0.646 0.844s-0.647-0.286-0.647-0.844v-1.592h-0.638v1.64c0 0.876 0.455 1.354 1.285 1.354 0.822 0 1.285-0.494 1.285-1.354v-1.64h-0.647v1.592zm4.988-4.1h-1.237v-0.709h1.453v-0.533h-2.1v2.938h0.64v-1.163h1.236v-0.533zm-2.498 3.838h-0.758v-0.797h0.758c0.272 0 0.407 0.136 0.407 0.399 0 0.254-0.135 0.398-0.407 0.398zm0.59 0.318c0.312-0.143 0.48-0.406 0.48-0.764 0-0.558-0.4-0.884-1.062-0.884h-1.404v2.938h0.638v-1.099h0.655c0.398 0 0.558 0.287 0.598 1.083v0.024h0.646v-0.024c-0.04-0.685-0.215-1.083-0.55-1.274zm-1.835-4.912c0.495 0 0.83 0.39 0.83 0.979s-0.335 0.987-0.83 0.987-0.83-0.398-0.83-0.987c0-0.59 0.335-0.98 0.83-0.98zm8e-3 2.508c0.878 0 1.493-0.63 1.493-1.537 0-0.9-0.615-1.52-1.493-1.52s-1.492 0.628-1.492 1.52 0.622 1.537 1.492 1.537zm17.159 1.608c-0.112 0.294-0.264 0.557-0.519 0.756-0.519 0.414-1.628 0.399-2.09-0.39a2.628 2.628 0 0 1-0.336-0.995 4.741 4.741 0 0 1 0.08-1.895c0.064-0.247 0.167-0.486 0.319-0.7 0.519-0.765 1.875-0.757 2.37 0.087 0.2 0.334 0.303 0.7 0.351 1.075 0.024 0.223 0.04 0.446 0.048 0.573-0.016 0.581-0.056 1.043-0.223 1.489zm0.718-4.14c-0.582-0.59-1.309-0.852-2.147-0.844-0.415 0-0.822 0.071-1.205 0.239-0.662 0.286-1.125 0.772-1.428 1.393-0.24 0.486-0.352 0.995-0.392 1.52-0.055 0.701 0 1.394 0.24 2.063 0.423 1.162 1.245 1.879 2.562 1.99a2.934 2.934 0 0 0 1.476-0.23c0.647-0.28 1.102-0.741 1.405-1.346 0.327-0.637 0.43-1.322 0.439-2.023 0-0.43-0.048-0.844-0.152-1.258-0.136-0.565-0.383-1.074-0.798-1.504zm-8.73-3.13h-1.246v-4.123h1.245c1.197 0 1.924 0.693 1.924 2.054 0 1.425-0.807 2.07-1.924 2.07zm0-5.501h-2.666v6.887h2.673c2.035 0 3.376-1.386 3.376-3.456 0-2.062-1.357-3.431-3.384-3.431zm-4.885 5.47-4.054 0.016c-0.168 0-0.687 0-1.046-0.048-0.535-0.08-0.535-0.295-0.59-0.637-0.048-0.319-0.44-0.382-0.687-0.414-0.399-0.056-1.452-0.175-2.969-0.183-0.75 0-1.404 0.023-1.93 0.055v-1.321a26.72 26.72 0 0 1 1.93-0.056c1.668 8e-3 2.57 0.12 2.818 0.151 0.247 0.032 0.63 0.12 0.686 0.438 0.056 0.334 0.056 0.557 0.59 0.637 0.352 0.048 0.87 0.048 1.038 0.048h4.206v1.314zm-5.38-5.486c-0.534-0.08-0.534-0.295-0.59-0.637-0.047-0.319-0.439-0.398-0.686-0.438-0.247-0.032-1.021-0.152-2.69-0.16-2.075-7e-3 -3.4 0.207-3.4 0.207v1.41s1.325-0.215 3.4-0.207c1.668 8e-3 2.443 0.12 2.69 0.159 0.247 0.032 0.63 0.111 0.686 0.438 0.056 0.334 0.056 0.557 0.59 0.637 0.352 0.048 0.87 0.048 1.038 0.048h4.334v1.305l-4.206 0.016c-0.168 0-0.686 0-1.045-0.047-0.535-0.08-0.535-0.295-0.591-0.637-0.048-0.319-0.439-0.406-0.686-0.438-0.248-0.032-1.15-0.144-2.817-0.152-2.075-7e-3 -3.4 0.207-3.4 0.207v4.109s1.325-0.183 3.4-0.175c1.667 8e-3 2.72 0.143 2.968 0.183 0.248 0.032 0.63 0.096 0.687 0.414 0.056 0.334 0.056 0.557 0.59 0.637 0.351 0.048 0.87 0.048 1.038 0.048h5.53v-6.896l-5.794 0.016c-0.167 0-0.686 0-1.045-0.047zm4.534 13.623h1.245v-0.534h-1.245v-0.629h1.453v-0.533h-2.1v2.938h2.14v-0.533h-1.501v-0.709zm-9.56-1.155h0.98v2.405h0.647v-2.405h0.982v-0.533h-2.61v0.533zm-0.935-3.718 0.455 1.282h-0.91zm0.63 1.792 0.216 0.58h0.663l-1.15-2.937h-0.758l-1.141 2.938h0.694l0.216-0.581zm-6.623 0.58h0.638v-1.018l1.213-1.911h-0.702l-0.838 1.266-0.814-1.274h-0.734l1.237 1.91v1.028zm4.23-0.533h-1.5v-0.708h1.244v-0.534h-1.245v-0.629h1.453v-0.533h-2.091v2.938h2.139zm-0.12 2.938c0 0.558-0.216 0.844-0.647 0.844-0.43 0-0.646-0.286-0.646-0.844v-1.592h-0.638v1.64c0 0.876 0.454 1.354 1.284 1.354 0.822 0 1.285-0.494 1.285-1.354v-1.64h-0.638zm5.044-4.013h-0.759v-0.796h0.759c0.271 0 0.407 0.136 0.407 0.398 0 0.263-0.144 0.399-0.407 0.399zm1.133 1.585c-0.04-0.669-0.216-1.075-0.543-1.266 0.311-0.143 0.48-0.406 0.48-0.764 0-0.558-0.4-0.884-1.062-0.884h-1.405v2.938h0.638v-1.099h0.655c0.399 0 0.55 0.287 0.598 1.083v0.024h0.647zm-4.445 0.836h-0.639v2.938h2.139v-0.533h-1.5v-2.406zm22.96-4.88c1.716 0 2.825-0.837 2.825-2.222 0-2.668-4.15-1.402-4.15-2.93 0-0.526 0.487-0.86 1.245-0.86 0.918 0 1.421 0.461 1.301 1.266h1.429c0.175-1.465-0.91-2.445-2.706-2.445-1.644 0-2.713 0.82-2.713 2.182 0 2.707 4.142 1.401 4.142 2.93 0 0.533-0.503 0.892-1.34 0.892-0.966 0-1.51-0.47-1.461-1.282h-1.429c-0.12 1.513 1.038 2.468 2.857 2.468zm-24.82-1.188v-1.464c-1.325 0.159-2.721 0.406-3.52 0.581v-5.55s-0.853 0.144-1.524 0.303v7.166c-8e-3 8e-3 1.812-0.597 5.044-1.035zm-2.81 7.898a0.712 0.712 0 0 1-0.733 0.613c-0.503 0-0.854-0.406-0.854-0.987 0-0.573 0.343-0.98 0.846-0.98 0.215 0 0.399 0.072 0.51 0.208a0.65 0.65 0 0 1 0.12 0.541l-8e-3 0.024h0.663v-0.016a1.045 1.045 0 0 0-0.224-0.868c-0.24-0.278-0.63-0.446-1.07-0.446-0.877 0-1.492 0.63-1.492 1.53 0 0.915 0.623 1.544 1.509 1.544 0.758 0 1.309-0.454 1.404-1.155v-0.024h-0.678l8e-3 0.016z" fill="#fff"/></g></svg>
