<?xml version="1.0" encoding="UTF-8" standalone="no"?>
<!-- Created with Inkscape (http://www.inkscape.org/) -->

<svg xmlns:dc="http://purl.org/dc/elements/1.1/" xmlns:cc="http://creativecommons.org/ns#" xmlns:rdf="http://www.w3.org/1999/02/22-rdf-syntax-ns#" xmlns:svg="http://www.w3.org/2000/svg" xmlns="http://www.w3.org/2000/svg" xmlns:sodipodi="http://sodipodi.sourceforge.net/DTD/sodipodi-0.dtd" xmlns:inkscape="http://www.inkscape.org/namespaces/inkscape" width="250" height="91" viewBox="0 0 250 91" id="svg2" version="1.1" inkscape:version="0.91 r13725" sodipodi:docname="leeds.svg">
  <defs id="defs4">
    <clipPath clipPathUnits="userSpaceOnUse" id="clipPath4245">
      <path d="m 0,0 595.276,0 0,841.89 L 0,841.89 0,0 z" id="path4247" inkscape:connector-curvature="0" />
    </clipPath>
    <clipPath clipPathUnits="userSpaceOnUse" id="clipPath4273">
      <path d="m 0,0 595.276,0 0,841.89 L 0,841.89 0,0 z" id="path4275" inkscape:connector-curvature="0" />
    </clipPath>
    <clipPath clipPathUnits="userSpaceOnUse" id="clipPath4289">
      <path d="m 0,0 595.276,0 0,841.89 L 0,841.89 0,0 z" id="path4291" inkscape:connector-curvature="0" />
    </clipPath>
    <clipPath clipPathUnits="userSpaceOnUse" id="clipPath4315">
      <path d="m 0,0 595.276,0 0,841.89 L 0,841.89 0,0 z" id="path4317" inkscape:connector-curvature="0" />
    </clipPath>
    <clipPath clipPathUnits="userSpaceOnUse" id="clipPath4351">
      <path d="m 0,0 595.276,0 0,841.89 L 0,841.89 0,0 z" id="path4353" inkscape:connector-curvature="0" />
    </clipPath>
    <clipPath clipPathUnits="userSpaceOnUse" id="clipPath4387">
      <path d="m 0,0 595.276,0 0,841.89 L 0,841.89 0,0 z" id="path4389" inkscape:connector-curvature="0" />
    </clipPath>
    <clipPath clipPathUnits="userSpaceOnUse" id="clipPath4419">
      <path d="m 0,98.049 75.868,-43.428 519.407,30.425 0,287.415 L 0,517.592 0,98.049 z" id="path4421" inkscape:connector-curvature="0" />
    </clipPath>
  </defs>
  <sodipodi:namedview id="base" pagecolor="#ffffff" bordercolor="#666666" borderopacity="1.0" inkscape:pageopacity="0.0" inkscape:pageshadow="2" inkscape:zoom="2.8" inkscape:cx="119.5" inkscape:cy="52.722" inkscape:document-units="px" inkscape:current-layer="layer1" showgrid="true" inkscape:window-width="1280" inkscape:window-height="752" inkscape:window-x="0" inkscape:window-y="0" inkscape:window-maximized="1" units="px">
    <inkscape:grid type="xygrid" id="grid5735" />
  </sodipodi:namedview>
  <metadata id="metadata7">
    <rdf:RDF>
      <cc:Work rdf:about="">
        <dc:format>image/svg+xml</dc:format>
        <dc:type rdf:resource="http://purl.org/dc/dcmitype/StillImage" />
        <dc:title></dc:title>
      </cc:Work>
    </rdf:RDF>
  </metadata>
  <g inkscape:label="Layer 1" inkscape:groupmode="layer" id="layer1" transform="translate(0,-961.4)">
    <rect style="opacity:0.001;fill:#ffffff;fill-opacity:1;stroke:none;stroke-width:2.5;stroke-linecap:round;stroke-linejoin:round;stroke-miterlimit:4;stroke-dasharray:none;stroke-dashoffset:0;stroke-opacity:1" id="rect4175" width="250" height="91" x="0" y="961.4" />
    <path style="fill:#ffffff;fill-opacity:1" d="" id="path4239" inkscape:connector-curvature="0" />
    <g transform="matrix(0.06706,0,0,0.06706,58.129,1081.9)" id="layer1-8" inkscape:label="Layer 1" style="fill:#ffffff;fill-opacity:1">
      <path inkscape:connector-curvature="0" id="path4239-7" d="" style="fill:#ffffff;fill-opacity:1" />
      <path id="path4960" transform="translate(53.14,416.02)" d="m -347.81,-2020.7 c -1.92,0.1 -4.86,0.6 -9.27,1.5 -10.69,2.3 -22.05,6.5 -25.94,9.7 -0.97,0.8 -1.78,1.6 -2.46,2.5 -0.55,0.6 -0.93,1.2 -1.2,2 -1.69,3.6 -1.94,8.7 -1.36,18.2 0.82,13.3 1.18,14.6 5.53,19.5 1.76,2 3.7,3.5 4.32,3.3 0.61,-0.2 1.67,-3.5 2.35,-7.3 1.29,-7.2 2.61,-9.1 9.07,-12.6 6.18,-3.3 22.19,-28.3 22.19,-34.6 0,-1.5 -0.77,-2.2 -3.23,-2.2 z m 325.984,1 c -0.882,0 -1.546,0 -2.069,0.1 -1.437,0 -1.681,0.5 -1.681,1.6 0,0.1 0.01,0.1 0.02,0.2 0,0.1 -0.02,0.2 -0.02,0.4 0,7.2 15.189,29.9 23.6893,35.4 5.7999,3.7 6.6295,5.1 7.7695,12.8 0.4,2.8 0.9412,5.4 1.2012,5.8 0.82,1.3 3.91,-1.1 6.83,-5.3 2.45,-3.5 2.95,-5.5 3.68,-14.3 0.47,-5.6 0.58,-12.8 0.25,-15.9 -0.52,-4.9 -1.11,-6.2 -4.03,-8.7 -1.88,-1.7 -4.68,-3.7 -6.23,-4.5 -4.24,-2.2 -25.14,-7.6 -29.41,-7.6 z m -192.234,14 c -7.73,0 -40.35,3.2 -57.26,5.5 -5.81,0.8 -12.23,1.5 -14.27,1.5 -5.07,0 -6.55,2 -4.5,5.9 1.81,3.5 4.64,5.2 12.81,7.5 1.93,0.6 3.19,1 4.01,1.4 0.77,0.5 1.12,1.1 1.31,1.8 0,0.3 -0.1,0.6 -0.18,1 -0.86,3.4 0.5,4.7 8.34,7.8 7.61,3.1 11.34,5.9 13.67,10.4 1.97,3.9 1.96,5.7 -0.1,9.2 -0.91,1.5 -1.38,3.5 -1.05,4.4 1.02,2.6 9.95,6.4 17.75,7.5 3.82,0.5 5.79,0.9 7.24,1.7 0.43,0.3 0.83,0.5 1.23,0.8 0.54,0.5 1.06,1.1 1.65,1.8 1.48,1.8 3.93,5.9 5.45,9.1 l 0,0 c 1.51,3.1 3.3,5.7 3.97,5.7 0.67,0 2.61,-2.4 4.31,-5.5 2.93,-5.2 7.1,-8.7 12.23,-10.4 1.83,-0.5 3.84,-0.8 6.06,-1.1 0.45,0 0.89,0 1.34,0 5.16,0 6.81,-0.5 11.33,-3.4 6.87,-4.4 6.61,-4 5.11,-7.7 -1.13,-2.7 -1.07,-3.5 0.43,-6.3 2.09,-3.9 10.26,-9 17.1,-10.7 6.55,-1.7 7.5,-2.5 7.5,-6.4 0,-2.7 0.84,-4.1 4.25,-7 2.34,-2 6.19,-4.8 8.54,-6.3 4.88,-3.1 6.32,-6.5 3.81,-9 -1.37,-1.4 -4.7,-1.8 -18.87,-2.3 -9.48,-0.3 -20.61,-1.3 -24.73,-2.2 -11.25,-2.3 -30.5,-4.7 -38.52,-4.7 z m -329.15,10.7 c -3.65,0 -7.86,0.6 -12.97,1.7 -7.92,1.7 -13.69,1.4 -21.14,-0.9 -1.78,-0.6 -2.24,-0.3 -2.24,1.1 0,2.6 5.16,11.3 8.38,14.3 3.97,3.7 3.31,4.8 -3.48,5.5 -7.19,0.7 -13.48,3.3 -16.8,6.9 -2.11,2.3 -2.32,3.3 -1.77,7.9 1.05,8.9 3.42,14.3 8.24,18.8 5.02,4.6 7.49,5.7 15.68,7.2 7.79,1.4 11.75,0.5 17.23,-4.1 11.96,-9.9 21.06,-5.7 11.41,5.3 -4.83,5.5 -6.49,12 -3.27,13 2.88,0.8 13.32,-0.2 18.73,-1.9 14.05,-4.2 25.32,-16.7 30.5,-33.7 1.12,-3.7 2.72,-8 3.53,-9.6 1.82,-3.5 7.75,-8.9 15.06,-13.8 3.02,-2 5.23,-4.1 4.88,-4.7 -0.42,-0.6 -7.46,-0.8 -20.73,-0.3 -11.06,0.3 -21.79,0.2 -23.87,-0.3 -2.07,-0.5 -5.53,-2.5 -7.7,-4.4 -6.32,-5.7 -11.65,-8.1 -19.67,-8 z m 714.81,0.7 c -7.04,0.1 -11.87,2.5 -18.4,7.7 l -6.11,4.9 -23.33,0 c -12.84,0 -23.34,0.4 -23.34,0.8 0,0.5 2.36,2.4 5.25,4.3 2.89,1.8 7.54,5.6 10.34,8.4 4.36,4.3 5.48,6.3 7.87,13.8 5.88,18.5 16.63,30.6 31.11,35.1 2.95,0.9 7.95,1.4 12.43,1.3 l 7.5,-0.2 -0.1,-3.7 c -0.1,-2.8 -1.1,-4.8 -4.14,-8.2 -4.62,-5.3 -5.56,-7.8 -3.81,-10.2 1.92,-2.6 7.45,-1 14.65,4.3 l 6.2,4.6 8.7,-0.5 c 7.2,-0.3 9.4,-0.8 13.4,-3.1 7.8,-4.6 11.4,-10.9 13.2,-23 0.6,-4.6 0.5,-4.9 -3.4,-8.6 -4.3,-4.1 -10,-6.1 -17.6,-6.1 -2.5,0 -4.6,-0.3 -4.6,-0.6 0,-0.3 1.6,-2.4 3.5,-4.5 3.6,-4 9.3,-14.4 8.4,-15.3 -0.3,-0.3 -3.8,0.1 -7.9,0.9 -6.2,1.1 -8.3,1.1 -13.9,0 -6.67,-1.4 -11.69,-2.2 -15.92,-2.1 z m -377.72,4.5 c 6.61,0.1 11.53,0.6 18.22,1.8 1.11,0.2 2.27,0.5 3.5,0.7 15.71,3.3 21.5,5.2 22.51,8 0.1,0.1 0.12,0.3 0.14,0.5 0.13,0.9 0.1,1.7 -0.23,2.4 -0.1,0.2 -0.23,0.5 -0.38,0.7 0,0 0,0 0,0 -1.78,2.7 -7.29,4.3 -18.22,5.5 -4.71,0.6 -8.63,1.5 -11.99,2.9 -2.61,1.1 -4.89,2.5 -6.9,4.2 -4.9,4.2 -6.9,7.8 -9.06,15.9 -0.16,0.6 -0.31,1.2 -0.46,1.7 -0.15,0.5 -0.29,0.9 -0.43,1.3 0,0 0,0 0,0 -0.83,2.4 -1.58,3.2 -2.93,3.3 -2.53,0.4 -3.75,-2 -5.32,-10.3 -1.15,-6.2 -4.85,-13.9 -7.76,-16.4 -0.19,-0.1 -0.38,-0.3 -0.57,-0.4 -1.3,-0.9 -3.66,-1.9 -5.23,-2.3 -3.99,-1 -21.92,-8.8 -23.8,-10.3 -1.06,-0.9 -1.57,-2.1 -1.5,-3.1 0.1,-0.5 0.36,-1.1 0.88,-1.4 0.14,-0.1 0.39,-0.2 0.72,-0.3 5.32,-1.5 34.6,-4.4 45.35,-4.4 1.21,0 2.36,0 3.46,0 z m -152.87,8.6 c -0.62,0 -1.21,0.3 -2.1,0.9 -2.92,1.9 -5.23,6.1 -7.45,13.6 -2.07,6.9 -5.4,9.1 -15.06,9.8 l -6.86,0.5 2.86,3.6 c 3.89,4.9 6.4,14.1 10.48,38.3 0.58,3.5 2.55,5.4 2.55,2.5 0,-2.6 2.13,-8.7 3.05,-8.7 0.53,0 3.6,1.8 6.83,4 3.23,2.2 10.18,6.1 15.44,8.5 11.48,5.5 14.32,8.5 32.44,34.1 6.65,9.4 13.41,18.2 15.02,19.6 1.62,1.3 5.58,3.2 8.82,4.1 3.24,1 6.98,2.1 8.31,2.5 3.17,0.9 3.92,3.2 1.07,3.2 -3.13,0 -12.81,-2.9 -17.49,-5.3 -9.21,-4.6 -12.34,-7.8 -23.04,-23.8 -12.95,-19.4 -17.87,-24.1 -29.96,-28.9 -4.82,-1.9 -9.84,-4.3 -11.16,-5.3 -4.18,-3.3 -5.34,-1.7 -5.34,7.3 0,4.4 -0.34,8 -0.75,8 -1.04,-0.1 -7.39,-8.3 -9.5,-12.3 -0.96,-1.8 -2.65,-8.2 -3.74,-14.2 -1.1,-5.9 -2.95,-14.5 -4.12,-18.9 -1.52,-5.9 -2.09,-7.6 -5.37,-11.1 -0.77,-0.9 -1.73,-1.9 -2.99,-3 -0.48,-0.5 -0.93,-1 -1.49,-1.5 -9.16,-8.9 -20.13,-16.7 -30.33,-21.6 -1.73,-0.8 -3.08,-1.4 -4.31,-1.9 l -1.89,-1 -1.24,0 c -2.74,-0.6 -6.02,-0.6 -12.84,-0.7 -8.01,-0.1 -11.52,0 -14.31,0.7 l -0.69,0 -0.73,0.4 c -0.56,0.2 -1.11,0.4 -1.69,0.7 -1.98,0.9 -5.1,3.1 -8.01,5.5 -2.16,1.6 -3.94,3.2 -4.97,4.5 -1.39,1.4 -2.25,2.5 -1.95,2.8 0.31,0.3 3.24,-0.4 6.5,-1.5 11.08,-3.9 23.14,-1.8 33.21,5.9 7.56,5.7 16.91,20.3 34.03,52.9 11.15,21.3 16.14,28.8 25.33,38.2 21.87,22.2 51.16,33.8 90.85,35.7 6.87,0.4 13.06,1.1 13.75,1.7 0.39,0.3 0.69,0.6 0.9,0.9 l 0.16,1.9 c 0,0.1 0,0.2 0,0.4 -0.64,1.5 -2.67,3.3 -6.21,5.5 -10.27,6.5 -19.92,18.2 -18.36,22.3 0.96,2.4 9.33,5.7 14.82,5.7 5.59,0 10.39,-1.9 14.41,-5.6 3.37,-3.1 4.08,-3 5.37,0.6 1.02,3 0.88,3.2 -3.47,6 -8.88,5.6 -22.53,6.5 -31.22,2.1 -6.7,-3.4 -11.27,-8.2 -22.85,-23.7 -3.5,-4.7 -6.81,-8.8 -9.1,-11.4 l -2.53,-3.4 -0.36,0.4 c 0,0 -0.1,0 -0.12,0 -0.73,0 -2.5,2.6 -3.93,5.7 -3.79,8.4 -4.37,20.9 -1.29,28.1 4.19,9.7 14.92,16.9 28.76,19.2 14.95,2.5 36.57,-2.6 48.9,-11.6 2.07,-1.5 2.29,-1.3 5.12,2.8 6.62,9.6 12.11,21.3 13.16,27.9 1.7,10.7 1.82,10.9 20.53,42.9 3.7,6.3 8.03,13.7 9.61,16.5 3.63,6.3 6.19,9.2 12.17,14 l 4.37,3.4 0.38,0.3 0,9.8 0,9.4 c -0.1,0.1 -0.16,0.2 -0.25,0.3 -0.16,0.1 -0.67,0.3 -1.42,0.5 l -4.08,0.8 c -3.16,0.6 -7.1,1.3 -8.75,1.6 -1.65,0.3 -6.97,1.5 -11.82,2.6 -8.24,1.9 -9,2.3 -11.75,6 -1.61,2.3 -3.4,5.8 -3.97,7.9 l -1.04,3.9 -57.24,0 -1.61,0 c -27.29,0 -41.97,0.1 -50,0.3 -4.21,0.1 -7.23,0.2 -7.49,0.3 -0.1,0 -0.17,0.1 -0.26,0.2 -1.14,0.2 -1.59,0.5 -1.71,0.8 -0.34,0.8 -0.61,46.1 -0.61,100.5 l 0,97.8 c -0.1,0.4 -0.16,0.7 -0.25,0.8 -0.2,0.2 -0.67,0.4 -1.24,0.6 l -1.26,0.3 c -15.63,3.5 -13.96,0.9 -23.74,36.4 -3.1,11.3 -5.98,21.6 -6.4,23 l -0.78,2.5 -18.41,0 -18.41,0 -0.3,-17 c -0.51,-29.2 2.05,-41.1 14.24,-66.5 31.98,-66.6 44.04,-111.7 42.19,-157.8 -1,-24.9 -7.88,-53.6 -16.41,-68.2 -4.8,-8.3 -17.11,-20.8 -24.48,-25 -3.16,-1.7 -5.75,-3.6 -5.75,-4 0,-0.5 0.92,-2.4 2.03,-4.3 2.6,-4.4 4.96,-16.8 4.97,-26.1 0,-0.2 0,-0.4 0.1,-0.6 0.27,-2.7 0.56,-5.6 0.82,-8.2 0.21,-0.9 0.44,-1.7 0.7,-2.3 1.98,-4.8 1.16,-9.9 -2.1,-13.1 -2.89,-2.9 -4.5,-3 -7.61,-0.5 -1.32,1.1 -1.9,1.9 -2.26,5.6 -0.41,2.8 -0.56,7 -0.59,13.1 0,0.6 0,0.9 -0.1,1.6 -0.61,20.5 -1.76,24.9 -7.84,30.1 -4.31,3.6 -8.39,4.5 -23.15,5.3 -9.77,0.5 -13.89,0.3 -17.02,-1.6 -0.76,-0.5 -1.54,-1.2 -2.39,-1.9 -0.32,-0.3 -0.64,-0.6 -0.96,-1 -2.23,-2.5 -6.13,-2.8 -6.98,-0.5 -0.18,0.5 -0.14,1.1 0.1,2 0.28,1.8 1.63,4.3 3.53,6.8 0.93,1.3 1.96,2.5 3.03,3.5 1.91,1.8 3.38,3 5.19,3.8 0.3,0.1 0.61,0.3 0.91,0.4 1.07,0.5 2.83,0.7 5.86,0.7 3.1,0.1 7.22,-0.1 13.15,-0.5 12.76,-0.7 17.39,-0.7 22.06,0.4 0.5,0.1 0.99,0.2 1.48,0.4 15.11,4 25.62,15.8 29.59,33.1 0.87,3.8 1.64,7.2 2.32,10.3 0,0 0,0 0,0 4.07,18.3 4.95,24.6 5.12,37.1 0,0 0,0 0,0 0,2.1 0,4.4 0,6.9 0,29.9 -4.15,53 -16.68,92.5 -4.35,13.6 -7.8,21.9 -15.8,38 -9.85,19.7 -15.5,31.9 -16.94,36.7 -0.1,0.2 -0.17,0.5 -0.29,0.8 -1.97,3.4 -4.37,7 -7.23,10.7 -5.71,7 -13.94,15.6 -22.64,23.7 -11.17,10.1 -25.07,21.1 -41.93,33.4 -3.12,2.2 -6.04,4.3 -8.49,5.9 -2.51,1.6 -5.16,3.2 -7.61,4.6 -0.35,0.1 -0.63,0.2 -0.81,0.2 -4.28,0.1 -12.81,5.8 -17.8,12 -4.82,5.9 -6.68,10 -17.18,37.4 -9.04,23.7 -22.09,57.3 -28.84,74.3 l -2.07,5.2 -8.57,2.7 c -13.71,4.2 -18.48,5.3 -19.21,4.6 -0.1,-0.1 -0.14,-0.5 -0.16,-1 0,-1.5 0.29,-4.7 0.85,-8.2 0.75,-4.7 2.75,-18.2 4.45,-30 1.7,-11.8 3.97,-27.2 5.05,-34.1 1.07,-6.9 1.95,-13.1 1.95,-13.7 0,0 0,0 0,0 0,0 0,-0.1 0,-0.1 0,-1.9 -4.15,-1.3 -8.5,1.1 l -4,2.3 -2.15,15 c -1.18,8.2 -3.78,26.9 -5.79,41.4 -4.75,34.7 -3.94,31.6 -8.75,33.5 -2.23,0.9 -4.3,1.4 -4.59,1.1 -0.1,-0.1 -0.12,-0.2 -0.14,-0.4 0,-0.2 0,-0.6 0,-1.1 0.18,-3.1 1.47,-12.3 5.42,-40 1.29,-9.1 3.76,-26.6 5.49,-39 1.73,-12.4 3.77,-26.8 4.54,-32 l 1.4,-9.5 10.28,-9.5 c 57.24,-52.6 91.94,-95 113.3,-138.5 0.65,-1.3 1.28,-2.7 1.89,-3.9 0,0 0,0 0,0 9.16,-19.4 13.36,-34.3 16.13,-56.5 0.89,-7.1 1.37,-13.8 1.47,-20.2 0,-1.2 0,-2.5 0,-3.7 0,0 0,0 0,0 -0.11,-12.4 -1.76,-23.4 -4.94,-32.4 -1.03,-2.9 -3.52,-10.1 -5.53,-15.8 -1.02,-2.9 -2.13,-5.8 -3.3,-8.7 -0.22,-0.6 -0.45,-1.1 -0.68,-1.7 -0.11,-0.3 -0.21,-0.5 -0.32,-0.8 -0.48,-1.1 -1.01,-2.3 -1.54,-3.5 -0.3,-0.7 -0.6,-1.3 -0.91,-2 -0.24,-0.5 -0.5,-1 -0.74,-1.5 -3.86,-8.2 -8.33,-16 -13.46,-23.7 -4.18,-6.3 -7.56,-11.7 -7.56,-12 0,-0.3 1.48,-1.5 3.25,-2.6 1.85,-1.2 3.21,-2.9 3.21,-4 0,0 0,0 0,-0.1 0,0 0,0 0,0 0,-1.9 -1.79,-3.2 -10.29,-6.4 -1.22,-0.4 -2.57,-0.9 -4.07,-1.5 -4.47,-1.7 -8.14,-3.4 -8.14,-3.9 0,-0.4 1.01,-0.6 2.25,-0.2 1.24,0.3 6.41,1.1 11.5,1.7 1.38,0.2 2.83,0.3 4.32,0.4 10.42,0.5 22.76,-0.9 27.76,-3.4 3.01,-1.5 5.55,-4.6 7.05,-8.3 0.84,-1.9 1.46,-4 1.76,-6.2 0.48,-3.6 0.42,-4.4 -0.69,-4.6 -0.29,-0.3 -0.74,-0.3 -1.45,-0.2 -1.1,0.2 -3.23,1.7 -4.73,3.3 -4.25,4.6 -8.49,5.9 -19.49,5.9 -22.64,0 -36.18,-3.5 -40.36,-10.4 -2.7,-4.4 -2.56,-7 0.33,-6.2 8.41,2.4 11.79,2.8 16.35,2 3.25,-0.6 4.9,-1.4 4.9,-2.4 0,-0.3 -0.5,-0.9 -1.29,-1.7 -0.43,-0.5 -1.04,-1 -1.86,-1.6 -0.95,-0.7 -2,-1.5 -3.19,-2.3 -13.42,-8.8 -19.1,-16.5 -19.91,-27.2 -0.89,-11.7 -3.76,-12.3 -8.16,-1.8 -4.05,9.8 -5.56,20.5 -4.15,29.7 1.32,8.5 4.44,17.1 8.21,22.6 1.57,2.3 2.85,4.9 2.85,5.9 0,0.9 -2.38,4.6 -5.29,8.3 -24.68,30.8 -45.44,70.4 -60.22,114.6 -6.28,18.8 -8.15,28.6 -17,89 -9.34,63.7 -15.46,96.4 -22.08,118 -4.69,15.3 -19.01,47.7 -27.53,62.3 -1.8,3.1 -3.34,6.1 -4.33,8.3 -0.31,0.6 -0.53,1.1 -0.66,1.5 -0.38,1 -0.59,1.7 -0.49,2 1.15,3 23.9,1 39.92,-3.5 5.51,-1.5 6.93,-1.6 7.34,-0.6 0.28,0.8 -0.88,11.9 -2.58,24.7 -1.71,12.8 -4.23,31.8 -5.62,42.3 -1.39,10.4 -2.99,22.5 -3.57,26.9 -0.57,4.3 -0.67,8.2 -0.21,8.6 0.88,0.9 4.77,-0.2 38.82,-10.5 12.1,-3.7 24.47,-7.4 27.5,-8.2 3.69,-1 6.02,-1.8 7.66,-3 l 1.05,-0.4 0.39,-1 c 0.88,-1 1.53,-2.3 2.18,-4.1 0.89,-2.4 4.57,-12.4 8.19,-22.3 3.61,-9.9 7.32,-19.7 8.24,-21.9 1.83,-4.2 1.01,-4 12,-1.5 3.91,0.8 7.79,0.9 15.46,0.1 7.3,-0.8 10.62,-0.8 11.54,0 1.98,1.6 1.8,29.9 -0.21,33.8 -2.06,4 -6.69,7.1 -15.21,10.4 -8.66,3.3 -11.72,5.6 -14.27,10.5 -2.7,5.3 -6.7,9.9 -11.19,12.7 -3.27,2.1 -3.83,2.9 -3.83,6 0,7.4 3.99,10.2 11.69,8.2 3.27,-0.8 5.6,-2.3 8.19,-5.2 16.84,-19 29.48,-24.8 48.79,-22.5 17.3,2.1 42.88,13.3 57.62,25.4 5.76,4.6 8.11,5.5 9.01,3.1 0.64,-1.7 -3.68,-25.6 -5.1,-28.2 -1.1,-2.1 -2.51,-3.4 -6.79,-5.1 -0.93,-0.5 -1.9,-0.8 -2.91,-1.1 -0.13,0 -0.27,-0.1 -0.39,-0.1 -4.53,-1.5 -11.22,-3.3 -21.44,-6 -14.75,-3.8 -27.46,-7.5 -28.25,-8.2 -0.21,-0.1 -0.39,-0.4 -0.54,-0.8 -0.26,-1.1 -0.47,-2.5 -0.65,-4.9 0,0 0,0 0,0 -0.17,-3 -0.23,-7.5 -0.23,-14.3 0,-10.4 0.38,-18.9 0.86,-18.9 1.69,0 13.82,-12.6 17.82,-18.5 2.23,-3.3 5.52,-9.5 7.31,-13.8 2.3,-5.6 4.91,-9.7 8.83,-13.9 5.17,-5.6 14.76,-13 18.9,-14.5 0.97,-0.4 5.13,-2.7 9.24,-5.1 4.11,-2.5 9.51,-5.1 12,-5.8 5.13,-1.6 23.43,-1.9 29.4,-0.5 6.08,1.4 9.98,6 13.55,16 3.25,9.1 6.51,13.3 12.7,16.4 4.62,2.4 11.82,10.9 13.27,15.7 1.6,5.4 9.49,20.4 15.16,29 12.1,18.3 26.32,35.3 45.45,54.6 32.81,32.9 65.29,56.3 100,72 l 0,0 c 6.17,2.8 9.8,4.2 12.35,4.8 0.91,0.3 1.58,0.5 1.75,0.5 0.35,0 1.02,-0.1 1.85,-0.4 7.15,-1.2 32.44,-13.8 51.06,-25.4 36.175,-22.5 72.094,-55.9 100.684,-93.7 11.53,-15.2 23.4405,-35.6 25.7505,-44.2 1.2599,-4.7 6.45846,-10.4 12.1484,-13.3 5.3601,-2.7 9.4211,-8 11.8611,-15.3 2.5,-7.5 5.339,-12.1 9.369,-15.1 0.602,-0.4 1.185,-0.8 1.881,-1 1.214,-0.4 2.663,-0.7 4.307,-1 2.095,-0.2 4.947,-0.3 9.123,-0.4 7.336,-0.2 14.355,0.1 17.045,0.8 6,1.5 28.91,14.3 36.25,20.2 6.581,5.3 12.031,13 15.101,21.2 3.1,8.3 8.91,16.4 17.86,24.9 l 7.95,7.5 -0.54,17.9 c -0.34,11.3 -0.95,18.3 -1.69,19.1 -0.63,0.7 -4.51,2.1 -8.63,3.1 -4.11,1.1 -13.56,3.6 -20.98,5.5 -7.421,2 -16.201,4.2 -19.501,5.1 -9.2,2.3 -10.601,4.4 -13.871,20.9 -1.51,7.5 -2.459,14.1 -2.119,14.7 1.16,1.8 3.151,0.9 11.06,-5.1 4.36,-3.3 13.33,-8.6 19.931,-11.9 14.59,-7.1 26.6,-11.3 37.11,-12.4 1.57,0 3.29,-0.1 5.41,-0.1 1.82,0 3.32,0 4.67,0 11.85,1.1 21.96,6.9 32.31,17.5 9.7,9.9 11.3,10.9 16.9,10.9 0.13,0 0.25,0 0.38,0 0.11,0 0.23,0 0.34,0 0.44,0 0.88,0 1.31,-0.1 3.45,-0.6 5.74,-2.8 6.67,-6.3 0.9,-3.6 0,-5.1 -4.4,-7.9 -4.16,-2.7 -8.57,-7.8 -11.24,-13 -0.13,-0.7 -0.57,-1.5 -1.26,-2.3 -2.18,-3.5 -5.98,-5.9 -13.2,-8.4 -7.62,-2.6 -12.31,-5.6 -14.6,-9.4 -1.64,-2.6 -1.88,-5.1 -1.88,-18.1 0,-8.2 0.39,-15.6 0.86,-16.3 0.17,-0.3 0.44,-0.5 0.88,-0.6 l 10.25,0.3 c 0,0 0.1,0 0.1,0 10.39,1 17.99,0.4 23.09,-1.7 2,-0.8 2.9,-0.7 3.7,0.2 1,1.2 4.2,9.7 15.2,40.1 2.2,6.1 4.5,11.6 5.2,12.2 1,1 16.6,5.9 50.2,15.9 4.4,1.3 11.6,3.4 16,4.8 4.4,1.3 8.4,2.1 8.9,1.6 0.5,-0.5 0,-7.8 -1.3,-17.7 -4.5,-33.9 -7,-53.1 -9.1,-69.1 -1.11,-8.3 -1.87,-15.3 -1.82,-16.4 0.1,-0.2 0.12,-0.3 0.2,-0.3 0.75,0 3.93,0.6 7.62,1.6 18,4.7 38.49,6.5 39.59,3.5 0.1,-0.3 0,-0.9 -0.25,-1.6 -0.1,-0.4 -0.23,-0.8 -0.43,-1.2 -0.69,-1.8 -1.82,-4.1 -3.21,-6.5 -5.6,-9.5 -15.6,-30.3 -19.1,-39.7 -1.5,-3.8 -3,-7.4 -3.5,-8 -0.5,-0.6 -2.7,-6.5 -4.9,-13.1 -7.8,-23.2 -14,-56.4 -25.7,-136.4 -5.9,-40.9 -8.6,-54.4 -13.6,-70.5 -14.1,-44.7 -38.6,-91.6 -62.6,-120.2 -4.4,-5.3 -5.3,-8.3 -3,-10.2 0.8,-0.6 3,-4.6 5,-8.9 5,-10.8 6.3,-21.1 4.3,-33.1 -1.83,-10.3 -5.59,-19.4 -8.37,-20.1 0,0 0,0 0,0 -0.1,0 -0.2,0 -0.29,0 0,0 0,0 0,0 0,0 0,0 0,0 -2.08,0 -2.49,1.3 -3.28,10.3 -0.8,9.6 -6.1,16.6 -19.33,25.6 -1.57,1.1 -3,2.2 -4.16,3.1 -0.53,0.4 -0.93,0.8 -1.24,1.2 -0.85,0.8 -1.37,1.5 -1.37,1.8 0,2.5 9.9,3.5 16.7,1.6 7.1,-2 6.8,-2 6.8,0.1 0,3.6 -3.9,8 -9.2,10.6 -3.9,1.9 -11.43,3.4 -20.38,4.1 -1.84,0.1 -3.78,0.2 -5.93,0.3 -4.48,0.1 -7.72,0.2 -10.28,0.2 -7.56,-0.2 -11.11,-1.7 -16.01,-6.2 -4.08,-3.7 -6.46,-4.2 -6.96,-1.9 -0.14,0.3 -0.23,0.7 -0.23,1.1 0,1.4 0.55,3.6 1.34,5.9 0,0.2 0.1,0.3 0.15,0.5 1.01,3.1 2.14,5.5 3.7,7.3 0.1,0.1 0.11,0.1 0.16,0.2 0.13,0.1 0.26,0.3 0.39,0.4 0.16,0.2 0.33,0.3 0.49,0.5 0.2,0.2 0.4,0.3 0.61,0.5 0.1,0.1 0.2,0.2 0.31,0.3 1.94,1.5 4.46,2.5 8.12,3.2 0.4,0.1 0.79,0.2 1.21,0.3 0.36,0 0.76,0.1 1.14,0.2 0.59,0 1.21,0.1 1.85,0.2 0.31,0.1 0.63,0.1 0.95,0.1 1.03,0.2 2.1,0.3 3.25,0.4 0,0 0,0 0,0 1.09,0.1 2.26,0.2 3.48,0.3 1.23,0 2.51,0.1 3.81,0.1 5.22,0 10.89,-0.3 15.59,-0.9 2.36,-0.3 4.47,-0.7 6.16,-1.1 0.31,-0.1 0.61,-0.1 0.88,-0.1 0.27,-0.1 0.51,-0.1 0.72,0 0.41,0 0.67,0.2 0.67,0.4 0,0.5 -4.73,2.6 -10.5,4.8 -5.78,2.1 -10.96,4.4 -11.52,5.1 -1.5,1.8 -0.21,4.2 3.59,6.5 l 3.36,2.1 -4,5.6 -0.69,0.9 c -0.15,0.2 -0.29,0.4 -0.43,0.6 -6.86,9.5 -12.87,20.4 -18.06,32.5 -0.26,0.6 -0.51,1.3 -0.76,1.9 -1.08,2.5 -2.14,5.2 -3.14,7.9 -1.63,4.4 -4.47,11.8 -6.31,16.5 -4.94,12.5 -6.89,25.2 -6.26,40.7 1.31,32.2 6.51,53.7 19.47,80.3 20.2,41.4 55.65,84.7 111.95,136.8 9.7,9 12.3,11.9 12.3,14 0,1.4 2.5,19.9 5.5,41.1 3,21.2 6.7,47.2 8.2,57.7 1.5,10.6 2.5,19.5 2.2,19.8 0,0 -0.12,0.1 -0.2,0.1 -0.1,0 -0.2,0 -0.32,0 0,0 0,0 0,0 -1.78,-0.1 -7.07,-2.3 -7.77,-3.4 -0.7,-1.1 -9.3,-59.9 -11.1,-76.2 -1.3,-11 -2.1,-12.6 -7,-14.5 -1.66,-0.6 -3.05,-1 -4.15,-1.1 -0.43,-0.1 -0.82,-0.1 -1.17,-0.1 -1.57,0.2 -2.19,1.2 -1.79,3 0.3,1.2 1,5.8 1.6,10.2 1.1,7.8 3.2,22.4 8.5,57.9 1.4,9.3 2.3,17.1 2.1,17.4 0,0 -0.16,0 -0.34,0 0,0 0,0 0,0 -1.34,-0.1 -6.25,-1.4 -11.84,-3.1 -6.4,-2 -12.2,-3.7 -12.9,-3.7 0,0 0,0 0,0 -0.14,0 -0.28,0 -0.42,0 -2.11,-0.4 -4.01,-4.3 -9.07,-17.5 -2.9,-7.7 -7.6,-20 -10.6,-27.5 -2.9,-7.4 -7.8,-20 -10.9,-28 -14.1,-36.5 -14.9,-38.2 -19.6,-44.4 -3.4,-4.5 -6.5,-7.3 -10.54,-9.5 -3.14,-1.7 -6.29,-3.1 -7,-3.1 -0.31,0 -1.31,-0.5 -2.75,-1.3 -0.22,-0.2 -0.45,-0.3 -0.67,-0.4 -3.11,-2 -7.91,-5.2 -13.12,-9 -18.13,-13.2 -38.98,-31.9 -55.624,-50.1 -10.653,-11.8 -18.952,-22.7 -22.037,-29.6 -1.96,-4.4 -7.871,-16.6 -13.131,-27 -8.94,-17.8 -11.624,-24.8 -20.074,-52 -2.71,-8.8 -7.541,-30.4 -9.631,-43 -1.37,-8.4 -1.82,-16.5 -1.82,-33.5 0,-21.7 0.131,-23.2 3.281,-38 5.41,-25.6 9.058,-34.3 17.578,-41.8 6.24,-5.5 12.794,-8.4 21.688,-9.3 2.423,-0.2 5.019,-0.3 7.83,-0.2 0,0 0,0 0.01,0 0.935,0 1.894,0.1 2.878,0.1 0,0 0,0 0.01,0 0.985,0.1 1.995,0.1 3.031,0.2 0,0 0,0 0.01,0 2.411,0.2 4.551,0.4 6.459,0.5 0,0 0,0 0.01,0 1.907,0.1 3.585,0.2 5.07,0.3 1.492,0.1 2.792,0.1 3.94,0.1 1.713,0 3.089,0 4.262,-0.2 2.74,-0.4 4.37,-1.2 6.6,-2.7 2.85,-1.9 5.51,-4.9 7.26,-8.1 0,0 0,-0.1 0.1,-0.1 1.62,-2.7 2.58,-5.2 2.12,-6.4 -0.1,-0.2 -0.14,-0.3 -0.23,-0.4 -0.3,-0.9 -1.07,-1.2 -2.26,-0.9 -1.64,0.1 -3.94,1.3 -6.7,3.4 -5.17,3.9 -7.89,4.2 -25.042,2.5 -10.8,-1 -15.95,-3.3 -19.6,-8.7 -3.91,-5.8 -4.138,-7.5 -4.238,-26.1 l 0,-17.2 -2.65,-2.7 c -0.02,0 -0.05,0 -0.07,-0.1 -0.106,-0.1 -0.219,-0.2 -0.336,-0.3 -1.806,-1.6 -2.983,-2.1 -4.836,-1.6 -5.206,1.3 -7.516,9 -4.836,16.2 0.197,0.5 0.427,1.7 0.662,3.2 0.175,1.6 0.351,3.2 0.514,4.8 0.261,2.5 0.503,4.7 0.736,6.7 0.03,0.5 0.08,0.9 0.104,1.3 0.76,11 1.311,13.8 3.561,18.2 1.092,2.1 2.032,4.2 2.437,5.3 0.04,0.5 -0.02,0.9 -0.162,1.3 -0.813,0.8 -2.911,2.3 -5.375,3.7 -10.326,5.8 -23.097,20.4 -28.117,32.1 -3.42,8 -8.079,24.8 -10.369,37.4 -2.9004,15.9 -3.091,46.2 -0.391,63.5 5.42,34.4 18.19,71.8 40.105,117.5 12.57,26.1 14.02,32.6 14.02,62.4 l 0,21.5 -18.154,0.3 -17.608,0.3 c -0.274,-0.1 -0.471,-0.2 -0.552,-0.3 -0.06,-0.1 -0.12,-0.2 -0.178,-0.3 l -1.332,-4.2 c -0.83,-2.6 -2.921,-9.9 -4.651,-16.3 -8.019,-29.3 -9.037,-32.8 -11.6207,-35.6 -0.1618,-0.3 -0.3055,-0.6 -0.418,-0.7 -0.2099,-0.2 -0.5627,-0.5 -0.9863,-0.7 -2.1405,-1.9 -4.3999,-3 -7.3653,-3.5 -2.5099,-0.4 -5.0298,-1.2 -5.5898,-1.9 -0.2359,-0.3 -0.4382,-4.7 -0.6133,-12.6 l -0.2168,-86 c -0.1426,-57.1 -0.25,-81.6 -0.6855,-92.3 l -0.024,-9.1 -8.0163,-0.1 c -7.904,-0.3 -23.998,-0.4 -53.14,-0.4 l -0.383,0 -61.533,-0.5 -4.21,-3.4 c -2.31,-1.8 -4.94,-4.6 -5.87,-6.1 -1.88,-3.2 -3.61,-4.3 -10.84,-6.6 -7.21,-2.3 -8.99,-3.7 -10.32,-8.2 -1.73,-5.8 -1.47,-9.7 0.77,-11.7 2.86,-2.6 4.45,-1.4 7.08,5.1 3.39,8.5 4.86,10.4 9.66,12.4 4.76,2.1 37.03,10.4 44.554,11.5 l 4.75,0.7 0,-4 c 0,-2.2 -0.671,-7.6 -1.481,-11.9 -2.56,-13.6 -4.559,-29.7 -3.769,-30.4 0.41,-0.4 5.918,0.4 12.248,1.7 21.87,4.5 22.061,4.2 10.191,-15.9 -14.53,-24.6 -17.57,-32.7 -23.17,-62.1 -1.653,-8.7 -3.013,-16 -3.013,-16.2 0,0 0,0 0,0 0,-1.1 3.561,-0.2 8.023,2.1 5.71,2.9 15.215,4.7 24.432,5.3 1.72,0.1 3.365,0.2 4.857,0.2 0.816,0 1.773,-0.1 2.797,-0.1 4.01,-0.2 7.721,-0.6 10.723,-1.4 11.56,-3.1 21.839,-11.9 24.269,-20.9 2.44,-9.1 -1.818,-29.6 -6.308,-30.4 -1.21,-0.3 -5.101,4.2 -13.272,15.2 -7.22,9.7 -13.349,16.9 -16.299,19.1 -5.553,4.1 -12.053,6.2 -18.672,6.3 -0.79,0 -1.595,0 -2.437,-0.1 -0.409,0 -0.808,-0.1 -1.211,-0.1 -9.939,-1.3 -21.262,-8.7 -19.572,-13.1 0.52,-1.3 1.12,-1.2 4.25,0.9 4.364,3 9.462,4.5 14.912,4.5 4.48,0 13.9,-3.9 14.76,-6.2 0.96,-2.5 -2.98,-9.6 -8.09,-14.6 -6.1,-5.9 -17.25,-11.9 -25.452,-13.6 -5.96,-1.2 -5.27,-1.3 16.782,-1.8 24.8,-0.7 36.94,-2.3 52.15,-7.2 28.8204,-9.2 51.309,-27 65.059,-51.5 1.7,-3.1 7.46,-13.9 12.81,-24 16.696,-31.8 25.476,-43.5 37.116,-49.2 5.5,-2.7 7.56,-3.1 13.67,-3.1 4.849,0 8.963,0.7 12.633,2.1 2.99,1.2 5.66,1.9 5.94,1.6 0.96,-0.9 -8.15,-9.3 -13.243,-12.1 -1.875,-1 -3.14,-1.7 -4.694,-2.1 l -0.367,-0.2 -0.689,0 c -2.455,-0.5 -5.861,-0.5 -12.93,-0.5 -13.46,0 -13.58,0.1 -21,3.6 -8.77,4.3 -16.755,9.8 -27.785,19.2 -9.79,8.4 -10.951,10.8 -15.151,31.7 -1.71,8.5 -3.699,16.8 -4.429,18.5 -1.6198,3.6 -9.2889,13.5 -10.53889,13.5 -0.51999,0 -0.68187,-3.3 -0.42188,-7.3 0.68,-10.1 -0.05273,-10.9 -7.29883,-7 -3.2104,1.6 -8.6194,4 -12.0294,5.3 -8.21,2.9 -16.101,11.1 -27.721,28.7 -4.79,7.2 -10.469,14.7 -12.609,16.7 -8.23,7.4 -20.04,11.4 -33.549,11.5 -0.717,-0.1 -1.442,-0.1 -2.192,-0.1 -0.733,0 -1.382,-0.1 -2.049,-0.1 -14.673,-0.9 -22.353,-6.7 -32.143,-23.7 -4.95,-8.7 -13.69,-21.1 -22.74,-32.4 -3.47,-4.3 -6.3,-8.2 -6.3,-8.7 0,-0.5 1.15,-2 2.56,-3.4 3.65,-3.7 7.76,-13.2 8.23,-19 0.49,-6.3 -2.18,-14.2 -4.89,-14.9 -0.43,-0.2 -0.84,-0.2 -1.3,0.1 -1.04,0.5 -2.09,1.9 -3.29,4.4 -2.34,5 -3.58,6.1 -12.31,11.2 -2.75,1.6 -4.42,2.9 -5.12,4 -0.72,0.8 -0.85,1.4 -0.32,1.8 0.19,1.1 1.02,1.3 3.44,1.3 1.92,0 5.11,-0.3 7.09,-0.6 5.7,-1 6.95,0.5 3.44,4.1 -3.87,4.1 -7.17,4.8 -25.03,5.6 l -15,0.6 -4.81,-3.2 c -3.43,-2.3 -5.13,-2.9 -5.89,-2.1 -0.1,0.1 -0.19,0.2 -0.29,0.2 -0.57,0 -1.26,-0.2 -1.95,-0.4 -0.1,0 -0.17,-0.1 -0.27,-0.2 -1.8,-1.8 -5.06,-1.8 -8.29,0.1 -1.68,1 -5.63,1.5 -12.56,1.5 -0.19,0 -0.34,0 -0.53,0 -12.21,0 -15.48,-1.2 -20.2,-7.8 -2.69,-3.7 -3.1,-5.3 -3.91,-14.9 -2.2,-26.4 -2.05,-25.6 -5.02,-27.3 -2.48,-1.3 -2.88,-1.3 -4.41,0.2 -1.54,1.5 -1.58,3.3 -0.46,21.5 0.67,10.9 1.71,21.5 2.33,23.6 1.07,3.7 6.52,9.6 8.95,9.7 0.1,0.1 0.13,0.1 0.19,0.2 -0.1,0.5 -1.73,2.3 -4.15,4.4 -8.59,7.5 -15.79,21.6 -18.61,36.4 -1.48,7.8 -2.9,8.4 -8.04,3.9 -8.1,-7.1 -13.96,-25.5 -15.58,-48.9 -1.39,-20.2 -2.64,-24.5 -10.39,-35.2 -4.42,-6.1 -6.1,-7 -7.13,-3.7 -0.89,2.8 -10.44,15.3 -11.96,15.7 -0.84,0.2 -1.4,-2 -1.79,-7 -0.31,-4 -1.44,-9.3 -2.51,-11.8 -2.42,-5.6 -9.46,-14.3 -15.62,-19.4 -2.38,-2 -3.57,-2.9 -4.51,-3.1 l 0,0 0,0 c -0.16,0 -0.31,0 -0.47,0 z m 347.302,0.9 c -0.236,0 -0.473,0 -0.708,0.1 -3.2,1 -15.869,15 -18.809,20.7 -2.02,4 -2.81,7.3 -3.16,13.1 -0.51,8.5 -1.82,9.8 -4.92,5 -0.96,-1.5 -3.451,-5 -5.522,-7.6 -2.07,-2.7 -3.769,-5.5 -3.769,-6.3 0,-3 -2.83,-1.1 -7.34,5 -6.97,9.5 -8.679,15.4 -9.689,33.1 -0.95,16.6 -4.071,31.1 -8.731,40.4 -4.59,9.2 -12.378,15 -30.984,23.1 -2.88,1.3 -5,2.6 -4.69,2.9 0.31,0.4 2.9,1.1 5.75,1.8 15.724,3.4 32.204,-0.5 39.264,-9.3 5.279,-6.6 12.65,-16.5 19.42,-25.9 9.42,-13.2 15.159,-19.3 19.849,-20.9 4.65,-1.7 13.441,-6.4 20.7504,-11.2 2.81,-1.9 5.58044,-3.4 6.1504,-3.4 0.58,0 1.59,2.3 2.25,5 0.66,2.8 1.4989,5 1.8789,5 0.37,0 1.9615,-6.8 3.5215,-15.2 3.3698,-17.9 5.0388,-23.4 8.2288,-26.8 1.3,-1.4 2.371,-2.8 2.371,-3.1 0,-0.3 -2.97,-0.9 -6.61,-1.2 -8.8994,-0.8 -12.5305,-3.1 -14.2105,-8.7 -3.1124,-10.5 -6.7429,-16 -10.2915,-15.6 z m -603.802,1.7 c -2.61,0 -5.26,0.5 -6.99,1.4 -6.72,3.4 -7.99,15.9 -2.57,25.1 7.75,13.3 20.08,21.2 38.48,24.9 13.86,2.8 16.68,1.3 6.93,-3.7 -6.58,-3.3 -13.22,-10.3 -15.31,-16.1 -0.85,-2.3 -2.51,-7.9 -3.69,-12.5 -2.29,-8.8 -6.2,-15.7 -10.07,-17.8 -1.59,-0.9 -4.16,-1.3 -6.78,-1.3 z m 860.81,0.9 c -4.7,0 -6.3,0.5 -8.7,2.5 -3.8,3.2 -6.8,9.5 -9.1,19.5 -3.4,14.1 -8.2,20.5 -19.9,26.4 -3,1.5 -5,3.1 -4.6,3.7 1.6,2.6 24.1,-2.6 33.1,-7.7 19.3,-10.7 28.3,-32.1 17.7,-41.9 -2.2,-2 -3.7,-2.5 -8.5,-2.5 z m -479.9,16.7 c 1.79,0 3.57,0.6 4.52,1.7 0.1,0.1 0.16,0.2 0.24,0.3 0.13,0.2 0.24,0.4 0.34,0.6 0.1,0.1 0.14,0.2 0.2,0.3 1.13,2.4 0.74,5.1 -1.13,6.8 -5.44,4.9 -13.13,-1.9 -8.81,-7.9 0.91,-1.2 2.77,-1.8 4.64,-1.8 z m 44.73,2.8 c 0.92,0 1.86,0.3 2.75,0.9 3.25,2.1 4.03,5.2 2.08,8.2 -1.18,1.8 -2.5,2.4 -4.96,2.4 -4.17,0 -5.83,-1.9 -5.42,-6.2 0.32,-3.3 2.82,-5.4 5.55,-5.3 z m -23.81,42.7 c 0.42,-0.1 0.91,0.2 1.56,0.9 0.27,0.3 0.55,0.6 0.88,1 0.32,0.4 0.67,0.9 1.07,1.4 4.74,6.2 7.05,6.8 23.77,6.3 8.14,-0.3 14.8,-0.2 14.8,0.2 0,0.9 -3.96,2.5 -9.75,4 -5.13,1.3 -5.49,3.3 -1,5.6 1.75,0.9 3.31,1.7 3.58,2 0,0 0,0 0,0 -0.48,0.9 -2.21,3.1 -4.3,5.4 -0.1,0.1 -0.15,0.2 -0.24,0.3 -0.22,0.3 -0.49,0.6 -0.73,0.8 -1.84,2.1 -3.85,4.6 -5.66,7 -0.48,0.7 -0.88,1.2 -1.28,1.8 0,0.1 -0.1,0.1 -0.1,0.1 -0.25,0.4 -0.55,0.8 -0.76,1.1 -1.47,2.3 -3.75,5.2 -5.73,7.6 -0.66,0.7 -1.29,1.4 -1.84,2 -2.2,2.3 -5.06,6.8 -6.34,10 -2.1,5.2 -2.32,7.2 -2.2,20.3 0.2,22.4 4.29,35.8 15.69,51.5 17.17,23.6 38.06,43.8 65.17,63 6.05,4.3 11.28,8.2 11.63,8.8 0.35,0.5 2.08,10 3.85,21.1 1.78,11 3.86,23.2 4.64,27 0.78,3.8 1.04,7.3 0.59,7.8 -2,2 -4.37,-3 -10.6,-22.4 -0.91,-2.9 -1.82,-5.6 -2.7,-8.2 -2.62,-7.6 -4.86,-13.4 -5.49,-14.1 -1.49,-1.4 -5.41,-1.8 -7.59,-1.2 -0.73,0.3 -1.26,0.6 -1.45,1.1 0,0.1 0,0.3 0,0.5 0,0 0,0 0,0 0.14,1.8 1.61,6.9 3.59,12.3 7.91,21.7 10.26,28.9 9.63,29.5 -0.67,0.7 -15.64,-3.4 -16.72,-4.5 -0.35,-0.4 -4.34,-9 -8.87,-19.2 -2.55,-5.7 -4.83,-10.8 -6.86,-15.1 -6.11,-13.2 -10,-20.5 -12.07,-22.7 -2.05,-2.1 -7.75,-4.1 -12.31,-4.7 -0.77,-0.1 -1.5,-0.1 -2.17,-0.1 -0.68,0 -1.3,0 -1.85,0.1 -2,0.4 -5.12,-0.4 -8.92,-2 -11.68,-5.2 -27.89,-17.2 -37.47,-28.4 0,0 0,0 0,0 -2.95,-3.6 -5.78,-7.8 -9.32,-13.6 -2.68,-4.4 -6.91,-11.3 -9.39,-15.4 -6.75,-11 -18.76,-41.1 -22.14,-55.4 -0.29,-1.2 -0.54,-2.5 -0.75,-3.8 -0.1,-0.7 -0.19,-1.4 -0.27,-2.1 -0.17,-1.3 -0.29,-2.7 -0.37,-4.1 0,-0.7 -0.1,-1.5 -0.1,-2.2 0,0 0,0 0,0 0,-0.7 0,-1.4 0,-2.1 0,0 0,0 0,0 0,-0.8 0,-1.5 0,-2.2 0,0 0,0 0,0 0,-0.7 0.1,-1.5 0.1,-2.2 0.3,-5 1.11,-10.1 2.41,-14.6 4.48,-15.7 9.98,-24.5 17.81,-28.6 3.13,-1.7 5.01,-2.1 11.03,-2 0.86,0 1.81,0 2.85,0 8.73,0.2 10.25,0 14.79,-2.3 2.8,-1.4 5.56,-3.7 6.18,-5 0.65,-1.4 1.12,-2.2 1.72,-2.3 z m 340.81,13.9 c -4.37,-0.1 -8.86,1.3 -11.75,4.4 -4.53,4.9 -1.73,12.3 5.46,14.5 4.35,1.3 12.59,0.4 15.55,-1.8 3.28,-2.5 4.67,-6.4 3.45,-9.8 -1.63,-4.6 -7.08,-7.2 -12.71,-7.3 z m -619.9,0.2 c -2.38,-0.1 -4.88,0.3 -7.33,1.2 -2.47,0.9 -5.17,2.6 -5.99,3.8 -0.91,1.3 -1.37,2.7 -1.44,4.2 0,0.2 -0.1,0.4 -0.1,0.6 0,0.2 0,0.5 0.1,0.7 0.36,3.2 2.61,6.2 6.29,7.8 4.28,2 12.95,1.3 16.4,-1.3 4.15,-3 5.62,-6.7 4.01,-9.9 -2.13,-4.4 -6.74,-7 -11.97,-7.1 z m 2591.15,7.7 -3.6,7.2 -3.7,7.2 0.7,23.1 c 0.4,12.6 1.6,38.3 2.7,57 2.1,34.6 3.7,99.5 2.5,99.5 -0.3,0 -3.8,-2.7 -7.7,-5.9 -34.8,-29.3 -80.7,-43.7 -132.9,-41.8 -25.6,0.9 -51.2,5.8 -72.9,13.7 -54.3,19.8 -103.2,64.5 -128.6,117.5 -15.2,31.4 -21.5,60.1 -21.5,97.5 0,54.7 15.8,100.7 48.7,141.5 9.2,11.4 27.5,29.8 37.8,38 38,30.4 82.1,47.1 129.8,49.3 45.6,2 76.8,-5.6 108.2,-26.4 9,-5.9 23.6,-18.3 28.3,-24 1.6,-2 3.5,-3.4 4.1,-3 0.7,0.5 1.1,6.6 1.1,18.1 l 0,17.5 3.4,6.9 c 1.4,2.7 3,5.1 4.1,6.5 l 0,0.1 0.1,0 c 0.4,0.4 0.7,0.7 0.9,0.8 2.4,0.9 77.8,0.8 79.2,-0.1 0.2,-0.1 0.4,-0.4 0.6,-0.7 l 0.1,0 0.2,-0.5 c 0.9,-1.5 2.3,-4.1 3.5,-7.1 3.1,-7.3 3.2,-7.7 2.6,-18.4 -4.4,-78.4 -8,-199.7 -8.6,-286.9 0,-23.3 0,-46.8 0.1,-68.2 0.6,-57.3 2.5,-102.1 6.9,-169.9 l 2.2,-33 -3.3,-7.8 -3.3,-7.7 -40.8,0 -40.9,0 z m -2670.47,5 c -7.96,0 -13.5,4.2 -13.5,10.1 0,3.1 0.59,4.3 3.25,6.3 1.79,1.3 5.05,2.8 7.25,3.2 5.14,0.9 5.88,1.5 10.18,8.8 5.71,9.7 7.32,15.6 7.32,26.6 0,5.3 0.3,10 0.67,10.4 0.8,0.8 121.53,0.9 123.62,0.1 0.11,0 0.2,-0.1 0.29,-0.2 1.17,-0.6 1.42,-2.8 1.42,-11.8 0,-12.8 1.93,-20.8 6.94,-28.7 0.79,-1.3 1.42,-2.2 2.01,-2.9 0.79,-0.7 1.6,-1.3 2.57,-1.7 0.49,-0.2 1.04,-0.2 1.7,-0.2 4.27,0 11.32,-3.3 12.69,-5.8 1.02,-1.9 1.3,-3.8 1,-5.6 -0.1,-0.6 -0.25,-1.2 -0.52,-1.7 -1.67,-4 -6.5,-6.9 -12.9,-6.9 -7.3,0 -13.49,4.2 -13.49,9.2 0,2.2 -1.31,3.8 -6.05,7.8 -14.69,12.2 -27.44,19 -35.62,19 -4.43,0 -5.61,-0.4 -8.22,-3 -3.07,-3.1 -4.67,-7.2 -5.68,-14.5 -0.68,-4.9 -0.87,-7 -2.01,-7.9 l 0,0 0,0 c -0.97,-0.7 -2.59,-0.6 -5.7,-0.6 l -6.31,0 -1.12,6.1 c -2.3,12.3 -8.55,19.9 -16.42,19.9 -5.44,0 -13.86,-3.5 -21.03,-8.7 -9,-6.5 -18.78,-16.3 -18.78,-18.8 0,-4.3 -6.68,-8.5 -13.5,-8.5 z m 625.515,0 c -0.963,0 -2.098,0.1 -3.496,0.2 -5.486,0.3 -6.956,0.9 -9.506,3.3 -3.21,3.1 -3.919,7 -1.939,10.7 1.35,2.5 8.386,5.8 12.516,5.8 3.859,0 5.439,1.7 9.589,10.5 3.15,6.7 3.321,7.7 3.661,20.5 0.23,8.7 0.76,13.8 1.5,14.3 l 0,-0.1 c 0.111,0.1 1.357,0.1 3.08,0.2 6.275,0.5 22.799,0.6 59.45,0.4 l 61.62,-0.3 0.5,-12 c 0.5,-11.5 0.7,-12.4 4.4,-19.5 5.1,-10 8.2,-14 10.9,-14 4.1,-0.1 10.5,-3.7 12.2,-7 1.4,-2.8 1.4,-3.3 0,-6.4 -2.4,-5 -6.8,-7 -14.3,-6.4 -0.1,0 -0.1,0 -0.14,0 -0.27,0 -0.53,0 -0.8,0.1 -4.34,0.3 -5.93,1 -8.26,3.2 -1.7,1.6 -3,3.7 -3,4.7 0,2.5 -8.8,11.7 -17.1,17.9 -6.92,5.1 -15.79,9.3 -20.82,9.8 -0.44,0.1 -0.86,0.1 -1.28,0.1 -8.25,-0.1 -14.44,-7.6 -16.85,-20.3 -0.53,-2.8 -1.53,-5.5 -2.21,-5.9 -1.58,-1 -8.87,-1 -10.43,0 -0.16,0.1 -0.34,0.4 -0.54,0.8 l -0.14,0 -0.1,0.6 c -0.55,1.5 -1.13,3.8 -1.52,6.3 -2.73,17.3 -9.84,22 -24.151,16 -10.83,-4.6 -30.861,-19.2 -30.861,-22.5 0,-3.3 -1.979,-6.4 -5.539,-8.9 -2.205,-1.5 -3.544,-2 -6.434,-2.1 z m -307.745,16 c -0.39,0 -0.75,0.1 -1.09,0.2 -0.99,0.3 -1.71,1 -2.21,2.3 -0.56,1.5 -0.88,4 -0.95,6.2 0,0.5 0,1 0,1.5 0,0 0,0 0,0 0,0.5 0.1,1 0.1,1.4 0.11,0.8 0.28,1.5 0.53,1.7 0.36,0.4 2.39,0.7 4.5,0.7 l 3.83,0 0,-5.8 c 0,-5.6 -0.88,-7.7 -3.63,-8.1 0,0 0,0 0,0 -0.16,-0.1 -0.33,-0.1 -0.5,-0.1 0,0 -0.1,0 -0.15,0 -0.14,0 -0.29,0 -0.44,0 z m 3.34,37.2 c -0.52,0 -1.08,0.1 -1.67,0.3 -2.77,0.9 -3.11,3.3 -1.28,9.1 l 1.7,5.4 4.81,0 c 5.7,0 5.87,-0.6 2.44,-8.3 -1.96,-4.5 -3.72,-6.4 -6,-6.5 z m 745.47,9.8 c -23.27,0 -35.45,0.1 -41.3,0.5 l -5.2,0 -3.3,8.3 -3.4,8.4 2.5,41.1 c 4.7,76.5 5.1,91.9 5.1,173.7 -0.1,81.5 -0.9,114.9 -5,195 -2.9,56.4 -4.1,83.7 -3.7,86.5 0.4,3.7 5.6,15.6 7.1,16.4 0.9,0.5 59.9,1.1 131.1,1.4 117.89,0.5 174.69,1.4 211.99,3.6 24.5,1.4 25.6,1.4 27.2,-1.2 2.9,-4.6 9.3,-20.8 15,-38.2 9.3,-28.2 13.2,-47.8 10.4,-52 0,0 0,-0.1 0,-0.1 l -0.1,-0.9 -2.33,-0.8 c -3.17,-1.7 -8.48,-3.5 -11.37,-3.7 l -0.3,-0.1 -0.1,0.1 c 0,0 -0.1,0 -0.14,0 -0.5,0 -2.7,2.6 -4.8,5.7 -7.8,11.7 -20,22.5 -32.5,28.8 -26,13.1 -77,19.4 -145.49,18.1 -41.2,-0.8 -99.6,-3.4 -100.7,-4.4 -0.4,-0.5 -1.2,-9.8 -1.8,-20.8 -0.9,-19.1 -1.6,-39.3 -4.1,-127.4 -0.6,-21.8 -1.2,-69.2 -1.3,-105.5 -0.1,-68.4 0.5,-85.2 5.9,-152 0.7,-9.9 1.9,-28.2 2.5,-40.6 l 1.1,-22.7 -3.5,-8.3 -3.4,-8.4 -4.93,0 c -5.76,-0.4 -17.9,-0.5 -41.17,-0.5 z m -445.471,1 c -7.766,0 -10.876,4.7 -8.006,12.1 0.95,2.5 1.639,6.7 1.539,9.5 -0.19,5.9 1.042,7.4 7.348,9.4 18.85,6 28.179,19.1 18.459,26.1 -3.43,2.4 -3.881,4.9 -0.891,4.9 2.67,0 6.091,1.9 7.731,4.2 2.45,3.4 9.609,6.8 14.449,6.8 5.827,0 14.482,4.4 19.222,9.4 0.33,0.3 0.65,0.7 0.96,1.1 0.1,0.1 0.14,0.1 0.2,0.2 0,0.1 0.1,0.1 0.12,0.2 1.79,2.4 3.95,6.7 4.81,9.7 0.63,2.2 1.35,3.7 2.09,4.6 0,0 0,0.1 0,0.1 0.3,0.5 0.63,0.8 1.01,0.7 1.14,0.4 2.31,-0.6 3.33,-3.2 2.23,-5.7 8.07,-13.9 11.33,-15.9 2.53,-1.5 5.05,-1.9 12.92,-1.9 8.78,0 13.05,-0.7 16.46,-3.3 0.5,-0.3 0.91,-0.7 1.23,-1.1 0,0 0,0 0,0 0.34,-0.3 0.68,-0.6 1.02,-1 1.37,-1.5 4.19,-3.6 6.25,-4.7 2.05,-1.1 3.19,-1.8 3.49,-2.7 l 0.46,-0.3 -0.41,-0.4 c -0.14,-0.9 -0.95,-1.8 -2.4,-3.2 -0.78,-0.7 -1.32,-1.3 -1.67,-1.9 -0.23,-0.5 -0.39,-1 -0.5,-1.5 0,-0.6 0,-1.3 0.18,-2.1 0.35,-1.8 1.87,-4.5 3.37,-6.1 3.33,-3.5 12.83,-8 20.23,-9.7 8.2,-1.8 10,-3.3 10,-8 0,-2.8 0.7,-4.6 2.5,-6.4 7.1,-7.1 -1.6,-22.7 -10.3,-18.2 -2.44,1.2 -4.05,2.6 -5.13,4.5 -1,1.5 -1.44,3.2 -1.77,6.1 -0.3,2.8 -0.67,4.9 -1.35,6.7 -0.1,0.2 -0.17,0.3 -0.25,0.5 -2.19,4.8 -7.2,6.3 -20.9,8.7 -13.08,2.3 -20.29,4.6 -26.25,8.7 -1.98,1.4 -3.83,3 -5.71,4.9 -5.53,5.6 -10.03,13.7 -12.44,22.3 -0.96,3.5 -2.23,6.1 -2.82,5.9 -0.22,-0.1 -0.46,-0.6 -0.7,-1.5 -0.39,-1.4 -0.75,-3.7 -0.94,-6.3 -1.13,-15.1 -10.55,-27.5 -25.899,-34.7 -3.542,-1.7 -7.399,-3.1 -11.543,-4.2 -6.353,-1.7 -12.949,-4.2 -15.809,-6 -0.377,-0.3 -0.704,-0.5 -0.941,-0.7 -0.24,-0.2 -0.469,-0.5 -0.678,-0.8 0,0 0,0 0,0 -0.627,-1 -1.072,-2.4 -1.072,-3.6 0,-1 -0.236,-3 -0.57,-5 -0.159,-1 -0.334,-2 -0.53,-3 -0.26,-1.3 -0.627,-2.5 -1.089,-3.5 -1.848,-4.2 -5.287,-6.4 -10.19,-6.4 z m -463.099,0.1 c -0.75,0 -1.66,0.1 -2.79,0.2 -3.92,0.4 -5.63,1.1 -7.36,3.1 -0.63,0.7 -1.2,1.6 -1.71,2.5 -0.26,0.5 -0.51,0.9 -0.71,1.4 -0.11,0.3 -0.22,0.6 -0.34,1 -0.89,2.4 -1.45,5.2 -1.56,7.9 -0.3,2.5 -0.69,4.3 -1.25,5.5 -1.69,2.2 -5.49,3.8 -13.58,6.3 -27.49,8.4 -39.14,19.9 -41.06,40.4 -0.36,3.9 -1.13,7.1 -1.71,7.3 -0.31,0.1 -0.74,-0.4 -1.18,-1.3 -0.18,-0.4 -0.37,-0.8 -0.55,-1.3 0,0 0,0 0,0 -0.21,-0.6 -0.4,-1.2 -0.58,-1.9 -0.55,-2.2 -1.23,-4.3 -2.04,-6.3 -0.27,-0.7 -0.55,-1.4 -0.84,-2.1 0,0 0,0 0,0 -0.3,-0.7 -0.61,-1.3 -0.92,-2 0,0 0,0 0,0 -3.51,-7.3 -8.47,-13.5 -14.05,-17.5 -6.38,-4.5 -12.97,-6.8 -27.26,-9.3 -19.32,-3.4 -20.5,-4.3 -22.05,-15.3 -0.1,-0.6 -0.18,-1.2 -0.27,-1.7 -0.65,-3.7 -1.48,-5.3 -3.66,-7.2 -1.39,-1.3 -2.85,-2.1 -4.3,-2.5 -0.1,0 -0.12,0 -0.19,0 -0.32,-0.1 -0.62,-0.1 -0.89,-0.2 -5.06,-0.7 -9.72,3.6 -10.41,10.8 -0.42,4.4 -0.16,5.3 2.14,7.6 1.94,1.9 2.62,3.6 2.62,6.5 0,5 1.59,6.1 12.71,9 9.51,2.6 16.45,6.6 19.29,11.3 2.61,4.2 2.52,6 -0.5,9.5 -1.38,1.7 -2.5,3.3 -2.5,3.6 0,0.3 1.46,1.3 3.25,2.2 1.79,0.9 5.18,3.5 7.54,5.8 l 4.29,4.1 12.26,0.5 c 9.53,0.4 12.87,0.9 15.01,2.3 0.3,0.2 0.65,0.5 1.01,0.8 l 1.08,1.2 c 3.16,3.5 7.4,10 8.75,13.9 0.76,2.1 1.57,2.9 3.06,2.6 0,0 0.1,0 0.1,0 0,0 0,0 0,0 1.49,-0.3 2.36,-1.7 3.43,-5.5 2.9,-10.5 13.4,-19.1 24.46,-20 6.74,-0.6 10.58,-2.4 15.18,-7.2 1.6,-1.7 4.42,-3.3 6.25,-3.7 4.16,-0.8 4.2,-2.2 0.18,-5.5 -2.59,-2.1 -3.14,-3.3 -3.14,-6.6 0,-2.6 0.8,-5.2 2.13,-7.1 2.76,-3.8 10.42,-8.7 17.79,-11.3 6.4,-2.2 8.69,-3.6 9.07,-6.6 0.14,-0.6 0.15,-1.2 0,-1.9 0,-0.4 -0.1,-0.8 -0.13,-1.2 -0.44,-3.2 -0.1,-5.2 1.4,-7.9 2.72,-5.1 2.54,-8.8 -0.58,-11.9 -1.71,-1.7 -2.65,-2.3 -4.92,-2.3 z m 178.04,28.4 c -0.48,0 -0.97,0.1 -1.48,0.4 -1.39,0.8 -2.17,1.6 -2.32,2.8 0,0.2 0,0.4 0,0.6 0,0.9 0.36,2 0.99,3.2 0.77,1.6 2.01,3.6 3.74,6 4.63,6.5 13.14,14.3 22.28,20.5 3.16,2.2 6.29,4 6.94,4 1.1,0 1.64,-0.3 1.57,-1 -0.1,-1 -1.37,-2.8 -4.08,-5.7 0,0 0,0 0,0 -0.77,-0.8 -1.65,-1.8 -2.65,-2.8 -1,-1 -2.12,-2.1 -3.36,-3.3 -6.71,-6.6 -12.18,-12.9 -14.09,-16.3 -3.39,-6.2 -5.42,-8.5 -7.52,-8.4 z m 326.836,21.5 c 2.753,0 5.244,1.7 6.582,5 1.48,3.5 -0.01,8.4 -3.05,10.1 -3.61,1.9 -7.63,1.1 -10.34,-2.2 -3.35,-3.9 -3.27,-6.3 0.33,-10 2.039,-2 4.338,-3 6.478,-2.9 z m -551.026,0 c 3.18,0.1 7.25,3.3 8.05,6.5 0.37,1.5 0,3.7 -0.87,5.4 -3.35,6.5 -12.74,5.1 -15.03,-1 -0.17,-0.5 -0.29,-0.9 -0.38,-1.4 -0.1,-0.4 -0.13,-0.9 -0.13,-1.4 0,-0.1 0,-0.1 0,-0.1 0,-2.9 5.13,-7.9 8.16,-8 0.1,0 0.13,0 0.2,0 z m 609.52,3 c 1.98,0.1 3.87,1.1 5.52,3.1 3.25,3.9 3.29,7.3 0.14,10.5 -2.73,2.7 -8.03,3.3 -10.81,1.2 -4.3,-3.3 -4.08,-10 0.42,-13.2 1.59,-1.1 3.19,-1.6 4.73,-1.6 z m -668.43,0.1 c 1.44,0 2.9,0.5 4.39,1.5 5.04,3.6 4.55,11.1 -0.9,14 -1.09,0.5 -1.85,0.9 -2.5,1.1 -0.47,0.1 -0.93,0.1 -1.4,0.1 -0.84,-0.1 -1.74,-0.5 -3.26,-1.3 -5.49,-3 -6.25,-8.2 -1.86,-12.6 1.84,-1.8 3.67,-2.7 5.53,-2.8 z m 2915.12,17.1 c -14.8,0 -32.1,0.6 -44.1,1.8 -45.6,4.5 -78.5,21 -100.3,50.3 -19.4,26.1 -25.1,43 -23.9,70.2 0.9,19.1 6.7,40.3 15,55.5 7.4,13.4 21.5,28.9 34.7,38.2 11.8,8.3 33.4,18.6 47.2,22.6 1.8,0.5 8.7,2.6 15.3,4.6 15.5,4.8 21.4,6.4 54,14.6 60.5,15.2 78.6,23.4 98.4,44.6 5.3,5.7 8.3,10.1 11.6,16.8 5.8,12.1 7.5,19.7 7.5,33.1 -0.1,18 -5.2,29.4 -20,44.5 -12.5,12.7 -29.4,23.5 -47,30 -25.9,9.5 -60.8,7.5 -97,-5.5 -10.6,-3.8 -32.2,-14.5 -41.1,-20.3 -9.8,-6.4 -18.8,-14.9 -30.2,-28.6 -10.1,-12 -17.3,-21.9 -28.6,-38.9 -4,-6 -7.7,-10.7 -8.3,-10.5 -2.6,0.9 -7.4,20.6 -9.8,39.8 -0.5,4.6 -1.3,18.4 -1.7,30.5 l -0.6,22.1 6.4,2.7 c 10.2,4.2 31.4,12.5 43.4,16.9 6.1,2.2 15.3,6.2 20.5,8.8 25.4,12.9 54.2,20.9 85.2,23.9 5.1,0.5 19.2,0.8 31.3,0.6 18.5,-0.3 24.2,-0.8 36,-3 23.2,-4.3 44.8,-12.4 62.4,-23.4 47.9,-29.7 70.3,-67.2 70.4,-117.6 0.1,-35.2 -10.4,-60.8 -34.7,-85.1 -14.6,-14.6 -33.8,-27.4 -51.6,-34.5 -11.7,-4.6 -35.5,-12.3 -57.5,-18.5 -46.7,-13.2 -57.5,-16.6 -77.4,-24.5 -36.6,-14.6 -55,-29.8 -59.6,-49.1 -5.4,-23 5.2,-44.2 30.5,-61 16.8,-11.2 26.8,-13.8 56.5,-14.5 41.1,-1.1 69.8,6.5 100.5,26.7 18.7,12.2 42.7,38.9 66,73.3 4.3,6.4 5.5,7.6 6.6,6.5 1.3,-1.4 3.5,-14.3 5.6,-33.8 1.6,-15.6 1.7,-78.5 0.1,-80.2 -0.7,-0.6 -16.2,-4.2 -34.5,-7.9 -18.3,-3.8 -39.8,-8.2 -47.8,-9.9 -21.9,-4.6 -52.9,-9.7 -67.4,-11.1 -5.3,-0.5 -13.2,-0.7 -22,-0.7 z m -1331.7,4.7 c -9.5,0 -19.2,0.5 -29,1.5 -65.55,7 -123.5,42.5 -160.1,98.1 -16.5,25.1 -26.1,49.3 -32.4,82 -1.97,10.3 -2.59,15.2 -2.97,30.3 -0.52,9 -0.61,18 -0.28,27 0.1,9.7 0.28,17.1 0.75,20.9 6.9,53.2 26.5,94.9 61.6,131.1 37.4,38.6 86.85,61.6 144.7,67.1 3.5,0.4 11.2,0.6 19.6,0.6 1.9,0.1 5.6,0.3 6.2,0.3 1.5,0.1 6.4,-0.1 12,-0.5 15.2,-0.3 19.2,-0.8 30.5,-3.2 40,-8.5 74.8,-25.4 116.1,-56.2 7.1,-5.4 15.5,-12.2 18.6,-15.1 5.4,-5.2 5.7,-5.7 7.8,-14.7 2.6,-11.5 3.6,-27.6 2.2,-35.3 -1,-5.7 -3.2,-11 -5,-12.9 -0.1,0 -0.1,0 -0.1,-0.1 -0.4,-0.3 -0.7,-0.5 -1.1,-0.6 -0.9,-0.2 -5,3.9 -9.8,9.7 -27.9,33.4 -59.9,55 -98.2,66.5 -31.6,9.4 -74.8,9.3 -103.5,-0.4 -25.5,-8.6 -46.75,-24.3 -61.85,-45.4 -10.4,-14.7 -33.25,-54.4 -32.4,-56.7 0.2,-0.6 14.3,-7.5 31.3,-15.4 17.1,-7.8 48.75,-22.4 70.45,-32.5 21.7,-10 54.3,-25.1 72.5,-33.5 18.2,-8.4 47.8,-22.1 66,-30.5 52.3,-24.1 63.2,-29.2 66.1,-31.7 0.2,-0.1 0.4,-0.3 0.4,-0.3 0.1,0 0.1,-0.1 0.1,-0.2 0.3,-0.3 0.5,-0.6 0.6,-0.9 0.6,-1.3 1.7,-6.5 2.4,-11.5 l 1.2,-9.1 -13.4,-20.4 c -17.2,-26 -30.8,-44.8 -37.9,-52.3 -7.5,-8 -22.7,-20.1 -34.1,-27.1 -30.2,-18.8 -67.9,-28.6 -109,-28.6 z m 443.5,0.1 c -64.6,-0.1 -117.1,21.1 -160.8,64.6 -34.3,34.1 -54.6,74.8 -62.2,124.5 -2.5,16.6 -3,52.7 -0.9,70.5 4.3,37.5 15.8,70 35,98.9 33.7,50.6 84.4,84.1 144.5,95.4 10.7,2 22.9,3.8 31,4.5 l 0,-0.1 c 1.7,0.2 7.4,0.2 14.5,0.2 8.1,0.4 11.8,0.3 19.1,-0.2 14.8,-0.3 18.8,-0.8 30.2,-3.2 42.9,-9.1 83.9,-30.1 128,-65.4 10.4,-8.4 11.3,-9.4 12.7,-14.2 3.1,-10.6 4.5,-21.8 4.4,-31.5 0.1,-1.8 0,-3.4 -0.2,-5 -0.4,-5.3 -1.3,-9.9 -2.8,-13.5 -1.3,-3.2 -2.9,-6 -3.5,-6.2 -0.6,-0.2 -3.3,2.4 -6,5.9 -7.3,9.3 -23.7,26.1 -33.7,34.4 -34.9,29.2 -74.4,43.5 -120.2,43.7 -46.1,0.2 -81.8,-14.6 -106.8,-44.1 -10.3,-12.4 -38.9,-59.1 -39.6,-64.9 0,-0.1 0.1,-0.3 0.2,-0.5 2.5,-1.8 23.9,-11.8 116.2,-54.3 18.2,-8.4 37.1,-17.2 42,-19.5 5,-2.3 23,-10.7 40,-18.5 53.8,-24.8 100.8,-46.6 105.3,-48.7 4.5,-2.1 4.6,-2.3 6.2,-12.8 0.6,-3.7 1,-6.2 0.9,-8.5 0,0 0,0 0,0 0.1,-0.9 0.1,-1.6 0.1,-2.2 0,-0.2 -0.5,-1.1 -1.3,-2.5 -1.7,-4.1 -5.4,-9.7 -13,-20.9 -23.3,-35 -30.4,-44.5 -39.8,-53.6 -36,-34.7 -82.8,-52.3 -139.5,-52.3 z m -466.2,39.1 c 2.1,0 4.4,0 6.7,0.1 14.2,0.5 18.3,1 28.2,3.6 29.6,7.8 48.7,22.4 66.2,50.9 9.9,16.1 16.9,32.3 22.3,51.6 1.4,5 2.7,10 3,10.9 0.6,2.1 -1.6,3.2 -35.1,17.8 -44.1,19.2 -66.5,29 -80,35 -7.7,3.4 -19,8.3 -25,10.9 -10,4.4 -20.1,8.8 -56.45,24.8 -6.9,3 -15.2,6.6 -18.5,8 -3.3,1.4 -7.65,3.3 -9.55,4.3 -5.01,2.5 -7.6,3.2 -8.36,2.2 0,-0.1 0,-0.1 -0.1,-0.1 -1.1,-2 -3.48,-19.9 -4.08,-31.8 -1.2,-21.1 2.3,-60.7 7.5,-85.3 7.8,-36.3 18.45,-59.5 35.45,-76.9 10.1,-10.4 20,-16.6 33.39,-21.2 10.8,-3.7 19.6,-5 34.4,-4.8 z m 447.3,0 c 20.9,0.2 36.1,3.6 52.2,11.5 21.9,10.7 38.4,28.7 52.8,57.4 9.7,19.4 19,48.1 16.3,50.5 -0.7,0.6 -6.2,3.3 -12.3,5.9 -6,2.6 -16.4,7.2 -23,10.1 -6.6,2.9 -23,10.1 -36.5,16 -13.5,5.9 -29.9,13.1 -36.5,16 -6.6,2.9 -20.8,9.1 -31.5,13.8 -10.7,4.7 -21.5,9.4 -24,10.5 -2.5,1.1 -13.3,5.8 -24,10.5 -10.7,4.7 -24.1,10.5 -29.7,13 -13.1,5.8 -14.2,6.1 -14.8,4.5 -3,-8.8 -4.3,-44.9 -2.6,-69.8 3.1,-45.4 13.7,-84.3 29.7,-108.8 12.7,-19.5 28.4,-31.4 50.1,-37.8 7.3,-2.2 11.5,-2.7 24.4,-3.2 3.3,-0.1 6.4,-0.1 9.4,-0.1 z m 451.7,2.4 c 1.9,0 4,0 6.3,0 22.6,0.1 36.9,2.1 53.4,7.5 48.5,16 78.4,50.4 94.1,108.5 l 3.3,12 -0.7,62.5 c -0.4,34.3 -1.1,72.6 -1.6,85 -0.9,24.5 -1.2,26.1 -8.3,41 -16.2,34.2 -50,59.9 -87.7,66.8 -8.3,1.6 -23.5,2.1 -33,1.1 -24.5,-2.3 -51,-16.4 -70.6,-37.2 -31.4,-33.6 -52.2,-78.7 -61.7,-133.7 -3.1,-18 -4.9,-31.7 -5.8,-43.6 -0.2,-4.6 -0.3,-9.3 -0.3,-13.9 0,-4.5 0.1,-8.8 0.3,-13.1 0,-0.2 0,-0.5 0,-0.7 2.8,-39.1 11.6,-67.6 28.6,-93.2 16.1,-24.3 35.9,-39.5 60.3,-46.3 8,-2.3 10.4,-2.7 23.4,-2.7 z m -2376.42,15.5 c -5.1,0 -6.5,6 -2.33,10 1.33,1.2 3.79,5.1 5.47,8.6 3,6.3 4.3,7.5 5.66,5.3 0.1,-0.1 0.2,-0.2 0.36,-0.3 1.06,-0.6 3.78,-0.3 7.83,1 1.37,0.4 2.08,0.3 2.19,-0.7 0,-0.1 0,-0.3 0,-0.4 0,0 0,0 0,0 0,-0.2 0,-0.3 0,-0.5 0,0 0,0 0,0 -0.1,-0.4 -0.14,-0.9 -0.26,-1.4 0,0 0,0 0,0 -0.12,-0.5 -0.27,-1.2 -0.46,-1.8 -0.2,-0.7 -0.42,-1.5 -0.69,-2.4 -2.48,-8.4 -11.66,-17.4 -17.74,-17.4 z m 504.07,0 c -3.975,0.2 -9.054,3.9 -12.922,9.2 0,0 0,0 0,0 -0.257,0.4 -0.512,0.7 -0.758,1.1 0,0 10e-4,0 0,0 -0.246,0.4 -0.485,0.7 -0.718,1.1 -0.234,0.4 -0.462,0.8 -0.682,1.2 -0.22,0.3 -0.431,0.7 -0.635,1.1 -0.204,0.4 -0.399,0.8 -0.586,1.3 -0.187,0.4 -0.366,0.8 -0.535,1.2 -0.675,1.6 -1.198,3.4 -1.525,5.1 -0.62,3.3 -0.469,3.7 1.361,3.7 1.13,0 2.33,-0.4 2.67,-1 0.34,-0.5 1.69,-1 3,-1 1.31,0 2.66,0.5 3,1 0.09,0.1 0.177,0.3 0.269,0.4 10e-4,0 0,0 0,0 1.383,1.7 3.254,0.1 4.661,-4.1 0.87,-2.7 3.38,-7 5.58,-9.6 2.19,-2.7 3.988,-5.2 3.988,-5.5 0,0 -0.01,0 -0.02,-0.1 0,0 0.02,0 0.02,0 0,-0.2 -0.423,-1 -0.953,-1.9 -0.201,-0.3 -0.369,-0.6 -0.606,-1 -1.139,-1.6 -2.754,-2.3 -4.609,-2.2 z m 47.7,3 c -1.84,0.1 -3.92,0.7 -5.77,1.6 -5.57,2.9 -13.774,11.7 -16.369,16.6 0,0 0,0 0,0 -0.216,0.4 -0.394,0.8 -0.528,1.2 -0.401,1 -0.408,1.8 0.106,2.1 0.53,0.4 2.8,-0.3 5.05,-1.5 4.491,-2.3 7.401,-1.9 9.021,1.1 1.53,2.9 2.56,2.4 4.35,-2.1 0.22,-0.5 0.54,-1.2 0.94,-1.9 0,0 0,0 0,-0.1 0.34,-0.6 0.75,-1.2 1.17,-1.8 0.16,-0.3 0.33,-0.5 0.5,-0.8 0.22,-0.3 0.46,-0.6 0.69,-0.9 0.75,-1.1 1.53,-2 2.28,-2.8 2.3,-2.5 3.57,-4.5 3.87,-6.2 0,-0.2 0,-0.3 0.1,-0.5 0,0 0,0 0,0 0,-0.2 0,-0.4 0,-0.5 0,0 0,0 0,0 0,-0.2 0,-0.4 -0.1,-0.5 -0.15,-0.7 -0.5,-1.3 -1.03,-1.8 -0.85,-0.8 -2.43,-1.2 -4.27,-1.2 z m -598.64,0.1 c -2.52,0 -4.58,1.1 -5.31,3.2 -0.85,2.4 -0.54,3.2 2.62,6.5 1.54,1.6 3.34,4 4.5,5.8 0.32,0.5 0.61,1 0.82,1.4 0.96,2 2.19,4.1 2.74,4.8 0.1,0.1 0.19,0.2 0.29,0.3 0.69,0.6 1.47,0.2 3.04,-1.5 2.45,-2.7 2.44,-3.1 6.5,-1.3 0.58,0.3 1.25,0.6 2.02,0.9 2.73,1.2 5.23,1.9 5.55,1.5 2.03,-2 -10.89,-16.7 -17.9,-20.3 -1.67,-0.9 -3.35,-1.3 -4.87,-1.3 z m 296.18,15.8 6.18,0.3 4.57,0.2 c 0.68,0.2 1.26,0.4 1.68,0.5 l 0,7.1 0,7.3 c 0,0 0,0.1 -0.1,0.1 0,0 -0.1,0.1 -0.13,0.1 l -2.8,0.2 c -1.65,0.1 -4.46,-0.4 -6.25,-1.2 -3.15,-1.4 -3.25,-1.5 -3.25,-8 l 0,-6.3 0.1,-0.3 z m 3.85,28.1 c 2.46,0 13.08,5.8 13.08,7.1 0,0.5 -7.96,0.9 -18.06,0.9 -10.83,0 -17.83,-0.4 -17.49,-0.9 0.71,-1.2 19.56,-7.1 22.47,-7.1 z m 28.8,3.3 c 1.52,0 5.29,2.5 5.29,3.7 0,1.5 -1.55,1.2 -4.14,-0.9 -1.31,-1.1 -2.05,-2.3 -1.65,-2.7 0.11,-0.1 0.28,-0.1 0.5,-0.1 z m -66.78,1 c 0.18,0 0.32,0.1 0.48,0.1 0.73,0.2 1.24,0.7 1.46,1.3 0,0.1 0,0.1 0,0.2 0,0.2 0.1,0.4 0.1,0.6 0,1 -1.18,1.4 -4.49,1.5 -4.21,-0.1 -4.52,-1.4 -0.57,-3 1.2,-0.5 2.21,-0.7 3,-0.7 z m -235.58,6.7 c -4.25,0 -5.88,4.2 -5.55,14.4 0.16,5 0.53,9.9 0.81,10.8 0.58,2 1.93,2.3 2.94,0.7 0.43,-0.7 2.3,-0.9 5.19,-0.4 l 4.51,0.7 0,-0.1 0,0 -0.72,-10.8 c -0.78,-11.8 -2.44,-15.3 -7.18,-15.3 z m 504.64,0 c -0.302,0 -0.59,0 -0.863,0 -3.562,0.4 -4.807,2.8 -5.075,10.9 -0.04,1.2 -0.06,2.6 -0.06,4.1 l 0,10.6 5.996,0 6,0 0,-10.6 c 0,-1.5 -0.02,-2.9 -0.06,-4.1 -0.267,-8.1 -1.512,-10.5 -5.076,-10.9 -0.274,0 -0.561,0 -0.863,0 z m -463.25,0.1 c -1.41,0 -2.95,0.7 -4.44,2 -1.6,1.6 -2.09,2.5 -2.24,7 0,0.7 0,1.6 -0.1,2.5 0,1 0,2.1 0,3.3 l 0,0.1 0,10.6 6,0 6,0 0,-10.6 c 0,-2 0,-3.7 -0.1,-5.1 0,-0.7 -0.1,-1.4 -0.11,-2 0,0 0,0 0,0 -0.22,-3 -0.64,-4.6 -1.37,-5.7 -0.99,-1.4 -2.28,-2.1 -3.7,-2.1 z m 503.771,0.4 c -1.698,-0.1 -3.376,0.8 -4.591,2.5 -1.35,1.9 -1.862,4.9 -2.102,12.5 l -0.33,10 4.16,-0.3 c 2.29,-0.2 4.46,0.2 4.84,0.8 1.81,2.9 3.05,-0.3 3.83,-10 0.191,-2.4 0.328,-4.2 0.398,-5.7 0.03,-0.7 0.05,-1.3 0.05,-1.9 0,0 0,0 0,0 0,-2.9 -0.446,-3.9 -1.553,-5.3 -1.29,-1.7 -3.008,-2.6 -4.707,-2.6 z m -272.571,20.3 c 0.34,-0.4 3.02,6.8 5.94,16 2.92,9.2 6.03,17.3 6.9,17.9 1.14,0.9 6.59,1.3 19.01,1.3 l 17.42,0 -14.68,10.7 c -8.32,6 -12.38,8.3 -13.5,11.6 l -0.48,0.4 0.23,0.7 c -0.5,3.5 1.63,8.4 5.23,19.2 2.73,8.2 4.98,15 4.98,15.1 0,1 -3.17,-1.1 -15.5,-10.2 -7.7,-5.7 -14.75,-10.4 -15.67,-10.4 -0.92,-0.1 -3.62,1.4 -6,3.2 -2.38,1.7 -5.46,4 -6.83,4.9 -1.38,1 -5.62,4 -9.42,6.8 -3.81,2.7 -7.09,4.8 -7.28,4.6 -0.19,-0.2 1.91,-7.3 4.68,-15.8 2.76,-8.6 5.02,-16.3 5.02,-17.2 0,-0.9 -6.25,-6.2 -14.53,-12.3 l -14.53,-10.8 17.78,-0.5 c 9.78,-0.3 18.31,-0.8 18.95,-1.3 0.65,-0.4 3.54,-8 6.42,-17 2.88,-8.9 5.51,-16.5 5.86,-16.9 z m 112.114,0 c 0.35,0.4 2.99,8 5.85,17 3.599,11.2 5.79,16.5 7.09,17.2 1.03,0.6 9.409,1 18.68,1 l 16.82,0 -2.5,2 c -1.38,1.1 -7.76,5.7 -14.19,10.2 -9.32,6.6 -11.75,8.8 -11.75,10.7 -0.03,1.4 2.211,9.4 4.991,17.9 2.78,8.5 4.92,15.8 4.75,16.3 -0.16,0.4 -2.781,-1 -5.801,-3.2 -3.02,-2.2 -9.48,-6.9 -14.35,-10.4 -4.869,-3.6 -9.6,-6.4 -10.5,-6.4 -0.91,0 -7.73,4.5 -15.15,9.9 -7.42,5.5 -13.624,9.4 -13.774,8.7 -0.15,-0.6 1.994,-7.9 4.754,-16.1 2.76,-8.3 5.02,-15.6 5.02,-16.2 0,-0.7 -6.799,-6.2 -15.124,-12.3 l -15.11,-11.1 17.69,0 c 9.715,0 18.455,-0.4 19.395,-0.9 1.12,-0.6 3.639,-7 7.149,-18 2.98,-9.4 5.71,-16.7 6.06,-16.3 z m -222.074,0.4 c 0,-0.1 0.1,0 0.1,0 0.4,0.7 3.05,8.4 5.89,17 2.84,8.7 5.69,16.1 6.34,16.5 0.65,0.5 8.99,1 18.54,1.3 l 17.35,0.5 -13.85,10 c -10.67,7.7 -13.92,10.6 -14.14,12.5 -0.15,1.4 2.19,9.9 5.2,19 3.01,9 5.38,16.5 5.27,16.6 -0.1,0.1 -1.14,-0.5 -2.3,-1.4 -1.17,-1 -5.57,-4.2 -9.8,-7.2 -4.22,-3 -9.95,-7.2 -12.73,-9.3 -2.79,-2 -5.72,-3.7 -6.52,-3.7 -0.81,0 -7.62,4.5 -15.15,10 -7.53,5.5 -14.02,10 -14.42,10 -0.39,0 -0.24,-1.2 0.34,-2.8 3.42,-8.8 9.69,-30.7 9.1,-31.8 -0.69,-1.2 -3.36,-3.2 -21.05,-16.3 l -8.33,-6.1 18.01,0 c 14.81,0 18.29,-0.3 19.54,-1.5 0.84,-0.9 3.88,-9 6.76,-18.1 2.83,-8.9 5.23,-15.1 5.85,-15.2 z m 346.529,46.8 c -2.08,0 -5.519,4.9 -5.519,7.9 0,2.2 2.879,14.2 4.539,18.9 0.3,0.9 1.111,1.1 2.221,0.7 3.54,-1.5 6.068,-1.7 8.238,-0.5 2.229,1.2 3.361,1.1 3.426,-0.7 0.09,-1.8 -0.867,-5.3 -2.856,-11 -3.63,-10.5 -6.799,-15.3 -10.049,-15.3 z m -473.779,0.8 c -1.43,0 -2.86,0.7 -4.02,2 -1.34,1.6 -8.71,22 -8.71,24.2 0,0.2 0,0.3 0,0.4 0.24,0.9 1.4,0.7 4.89,-0.5 2.18,-0.8 3.44,-0.9 4.98,-0.2 0.22,0.1 0.45,0.2 0.69,0.3 1.57,0.9 2.79,1 3.41,0.4 1.16,-1.1 4.11,-12.5 4.83,-18 0,0 0,0 0,-0.1 0.1,-0.3 0.1,-0.7 0.11,-1 0,0 0,0 0,0 0,-0.4 0,-0.7 0,-0.9 0,-4.1 -3.11,-6.8 -6.26,-6.6 z m 243.5,60.4 c 3.64,0 7.43,1 11.1,3.2 2.89,1.7 5.54,4.4 7.3,7.4 2.41,4.1 2.76,5.7 2.66,12.3 l -0.12,7.6 6.64,0.5 c 9.83,0.7 16.41,4.6 20.15,11.9 1.78,3.5 2.13,3.6 8.64,4.3 7.99,0.8 14.62,3.5 18.98,7.7 3.006,3 4.524,6.9 5.814,15 0.49,3.1 1.41,4.2 6.41,7.2 7.03,4.4 12.651,10.4 15.301,16.4 1.55,3.5 1.899,6.2 1.699,13.2 -0.24,8.4 -0.109,9 2.491,12.1 8.429,10 10.809,22.8 6.33,33.9 l -2.541,6.3 2.261,4.2 c 1.67,3.2 2.58,7.4 3.45,16.2 1.65,16.6 0.05,24.2 -6.411,30.7 -2.29,2.2 -3.589,2.7 -8.019,2.7 -9.32,0 -10.18,2.6 -8.41,25.5 0.99,12.5 1.009,18.7 0.1,27.6 -1.15,11.1 -1.279,11.5 -5.849,18.3 -2.57,3.8 -6.801,9.1 -9.401,11.7 -2.775,2.9 -5.065,4.4 -7.585,4.9 -0.54,0 -1.13,0 -1.81,0 -0.47,0 -0.88,0 -1.28,0 -1.42,-0.3 -2.96,-0.7 -4.72,-1.5 -1.03,-0.4 -1.88,-0.8 -2.56,-1.4 0,0 0,0 0,0 l -0.1,0 c -2.92,-2.5 -2.8,-7.7 -1.38,-28.8 2.45,-36.5 2.03,-42.7 -3.7,-52.7 -2.62,-4.6 -3.91,-5.3 -6.11,-3.1 -1.26,1.3 -1.45,2.6 -0.88,5.8 0.41,2.3 0.72,13.6 0.72,25.2 l 0,18 c -0.2,1.7 -0.46,3.2 -0.79,4.5 l -2.65,4.9 c -4.99,9.3 -11.12,12.4 -19.7,10 -3.69,-1 -4.79,-1.9 -5.96,-4.7 -0.6,-1.4 -0.9,-2.4 -0.91,-3.5 0.1,-0.3 0.13,-0.7 0.22,-1.1 0.1,-0.4 0.15,-0.9 0.22,-1.5 0.16,-0.6 0.36,-1.3 0.62,-2.1 1.38,-4.1 1.45,-7.4 0.55,-25.6 -1.04,-21.1 -2.45,-30.1 -7,-44.9 -2.71,-8.8 -2.3,-16.6 1.34,-25.2 3.29,-7.8 3.31,-11.5 0.1,-20.6 -3.4,-9.6 -3.99,-17.2 -2.49,-31.9 1.43,-14.1 0.59,-19.5 -3.62,-23.4 -2.12,-1.9 -2.94,-2.1 -5.18,-1.3 -0.39,0.2 -0.89,0.3 -1.43,0.4 -0.53,0 -1.04,0 -1.67,0 -1.43,0 -2.55,0 -3.51,0 -5.54,-0.7 -7,1.9 -7.41,13.1 -0.28,7.7 0.1,10.5 1.84,15.6 1.83,5.3 2.27,9.3 2.74,25 0.67,22.8 0.45,23.6 -7.82,27.4 -6.38,3 -6.31,2.8 -7.94,12.4 -0.61,3.6 -2.19,8.4 -3.52,10.5 -6.16,10.1 -6.4,11.2 -7.66,32.9 -1.31,22.5 -0.23,42.5 2.81,52.1 0.87,2.7 1.62,8.1 1.72,12 0.17,8.6 -2.44,14.4 -7.67,16.8 l -0.11,0 c -3.9,1.9 -6.79,2 -11.15,0.4 -1.62,-0.5 -2.96,-1.2 -4.09,-2 -1.17,-1.2 -2.3,-2.6 -3.25,-4.2 -1.71,-3.9 -2.47,-10.1 -3.16,-21.2 -2.38,-38.4 -3.02,-46.1 -4.13,-49.4 -0.36,-1.1 -0.83,-2.1 -1.32,-3 -0.47,-1.2 -0.99,-2 -1.57,-2.4 -0.77,-0.9 -1.49,-1.4 -1.96,-1.1 -1.41,0.9 -2.15,32.9 -0.93,40.3 2.2,13.3 -1.54,20.2 -10.94,20.2 -5.86,0 -9.68,-2.6 -13.67,-9.4 -2.12,-3.6 -2.69,-6.6 -3.92,-20.1 -0.79,-8.8 -2.13,-18.9 -2.97,-22.5 -0.83,-3.5 -1.55,-9.8 -1.55,-13.8 l 0,-7.3 -5.88,-6.5 c -5.71,-6.2 -8.42,-11 -17.87,-31.4 -4.83,-10.4 -7.99,-14.2 -12.94,-15.8 -9.29,-2.9 -14.65,-12.9 -11.43,-21.3 1.41,-3.7 5.9,-7.6 9.62,-8.3 3.03,-0.6 3.58,-1.1 4.54,-4.8 3.16,-12.2 8.27,-19 15.56,-20.9 3.55,-0.9 4.54,-1.6 5,-3.7 2.14,-9.8 5.12,-14 12.51,-17.7 3.58,-1.8 5.01,-3.2 5.43,-5.2 2.76,-13.2 3.77,-15.5 9.55,-21.7 4.79,-5.2 13.56,-9.3 21.7,-10.2 3.31,-0.3 6.42,-0.9 6.9,-1.2 0.48,-0.4 2.54,-2.9 4.56,-5.7 6.62,-9.2 14.71,-13.3 26.08,-13.4 l 6.83,0 -0.75,-3.3 c -0.17,-0.8 -0.3,-1.5 -0.4,-2.2 -0.64,-9 1.88,-15.5 7.81,-20.4 3.76,-3.1 8.25,-4.7 12.73,-4.9 0.1,0 0.13,0 0.2,0 0.18,0 0.37,0 0.56,0 z m 0.68,9.8 c -12.1,0 -16.44,16.7 -5.61,21.6 8.13,3.6 17.84,-3.6 16.25,-12.2 -0.82,-4.3 -6.57,-9.4 -10.64,-9.4 z m -267.27,1.9 c -1.41,0 -2.78,0.6 -3.8,1.8 -0.18,0.2 -0.44,0.6 -0.73,1.1 -1.03,1.7 -2.65,4.9 -4.09,8.2 -6.94,15.5 -15.39,27.5 -32.91,46.7 -6.12,6.7 -11.11,12.7 -11.11,13.2 0,0.2 0,0.3 0.1,0.4 0,0.1 0.1,0.2 0.18,0.3 2.44,2.3 22.35,-12.7 34.86,-26.7 0.79,-0.9 1.58,-1.8 2.36,-2.7 11.32,-13.3 20.89,-28.9 21.5,-35.5 0,-0.2 0,-0.4 0,-0.6 0,-3.6 -3.26,-6.2 -6.36,-6.2 z m 520.76,0.1 c -3.098,0 -6.412,2.3 -6.412,5.7 0,3.7 6.548,16.4 13.068,25.5 0.435,0.6 0.87,1.2 1.303,1.8 7.74,10.3 26.791,28.9 35.561,34.7 6.54,4.4 9.05,5.2 9.05,3 0,-0.7 -4.56,-6.2 -10.11,-12.2 -17.58,-19.2 -25.621,-30.4 -32.981,-46 -2.33,-5 -4.911,-9.8 -5.721,-10.8 -0.988,-1.2 -2.35,-1.7 -3.758,-1.7 z m -230.48,29 c -2.78,0 -6.38,0.7 -8,1.5 l -2.95,1.5 0,21.4 0,21.3 3.86,3.1 c 7.41,5.9 10.31,16 7.54,26.3 -2.49,9.2 -2.31,22.6 0.44,31.5 2.88,9.4 2.88,18 0,24.2 -2.64,5.6 -2.8,13 -0.48,21.7 2.73,10.3 3.71,21.9 4.34,51.3 0.34,15.5 1.02,28.5 1.52,28.8 1.44,0.9 5.61,-2.3 8.22,-6.4 0.42,-0.6 0.8,-1.4 1.15,-2.2 0.1,-0.1 0.14,-0.2 0.2,-0.4 0.25,-0.4 0.46,-1.2 0.66,-2.3 1.44,-5.8 1.87,-15.9 2.01,-38.3 0.12,-22.2 0.25,-23.8 2.35,-27.8 2.63,-5.1 2.8,-10 0.72,-20.9 -3.09,-16.1 -0.99,-29.5 6.08,-38.7 1.39,-1.8 2.34,-2.9 3.21,-3.6 0.11,-0.1 0.22,-0.2 0.33,-0.3 0.95,-0.6 1.86,-0.7 3.22,-0.5 4.49,0.4 4.6,3.5 0.34,9.5 -1.98,2.7 -3.51,5.2 -4.66,7.7 l -1.44,2.1 0,1.7 c -1.8,5.9 -1.78,12.8 -0.64,24.6 0.22,2.3 0.42,4.2 0.64,5.9 l 0,3.8 1.3,2.9 c 0.77,2.7 1.87,5.3 3.73,9.3 7.8,16.8 11.11,25.6 11.83,31.5 1.08,8.9 0.81,33.1 -0.51,45 -0.69,5.9 -0.91,11.4 -0.59,12.2 l 0,0 c 0.49,1.3 1.31,1.8 2.42,1.5 0.1,0.1 0.2,0.1 0.29,0.1 0.31,0 0.84,-0.4 1.51,-1 1.32,-0.9 2.88,-2.5 4.66,-4.8 4.376,-5.6 6.411,-8 7.423,-12.8 l 0.941,-1.9 0,-9.1 c 0.102,-3.3 0.171,-7.1 0.25,-12.2 0.28,-18.4 0.03,-24.8 -1.24,-31.1 -2.01,-9.9 -2.319,-51 -0.389,-52.9 1.71,-1.7 5.48,-1.5 6.19,0.4 0.34,0.8 0.609,8.5 0.609,17 l 0,15.5 1.557,1.6 0.02,0.8 1.698,0.9 c 3.87,3.6 8.78,3.6 11.652,0 4.12,-5.3 2.29,-21.4 -4.01,-35.2 -3.57,-7.9 -3.68,-11.1 -0.5,-14.1 3.33,-3.2 4.921,-7.5 4.201,-11.4 -0.35,-1.8 -3.721,-7.3 -7.621,-12.4 -3.85,-5.1 -7,-9.9 -7,-10.8 0,-0.8 0.94,-3.4 2.1,-5.8 1.85,-3.8 1.95,-4.8 0.91,-8.7 -1.38,-5.1 -9.7,-14 -17.831,-19 -2.85,-1.7 -5.21,-3.5 -5.21,-3.8 0,-0.4 -0.14,-3.3 -0.25,-6.4 -0.38,-10.3 -7.02,-15.4 -21.53,-16.5 l -8.01,-0.6 -1.11,-1.6 -1.05,-2.1 c -1.02,-2 -3.71,-5.3 -5.95,-7.3 -3.56,-3.2 -4.7,-3.7 -9.12,-3.7 z m -48.55,0 c -7.54,0.2 -14.17,4.1 -20.77,12.1 -4.51,5.5 -4.63,5.6 -12.13,6.7 -9.95,1.6 -16.25,4.4 -21.29,9.5 -4.72,4.8 -7.05,10.6 -7.88,19.4 l -0.5,5.3 c -0.34,0.5 -0.77,1 -1.31,1.4 l -3.39,1.2 c -9.26,3.4 -12.19,8.3 -12.58,21 -0.16,5 -0.74,8 -1.76,9.2 -0.85,0.9 -2.48,3.6 -3.62,5.9 -1.15,2.2 -3.78,5.5 -5.85,7.2 -3.06,2.5 -4.69,3.2 -8.78,3.2 -10.03,0.1 -15.5,4.1 -13.95,10.3 0.7,2.8 6.68,8.6 8.85,8.6 0.74,0 2.94,1.8 4.88,3.9 2.75,3.1 4.35,6.6 7.19,15.8 5.78,18.7 11.38,25.3 21.36,25.3 5.51,0 8.64,-1.6 11.42,-5.9 7.19,-11.1 8.76,-22 3.37,-23.7 -8.17,-2.5 -12.56,-16.1 -8.01,-24.9 2.92,-5.6 6.35,-7.8 13.15,-8.3 5.18,-0.4 6.17,-0.1 9.02,2.3 3.51,2.9 4.06,5.5 1.62,7.6 -1.3,1 -2.15,1 -4.75,0 -5.86,-2.4 -7.11,-2.4 -10.04,0.4 -2.27,2 -2.69,3.1 -2.17,5.3 2.34,9.6 18.33,11.7 25.62,3.4 3.09,-3.5 3.14,-3.7 2.73,-11.7 -0.76,-14.4 -6.78,-21.5 -18.22,-21.5 -7.63,0 -12.01,2.2 -16.16,8.1 -2.26,3.2 -4.51,4.8 -6.32,4.9 -1.54,-0.1 -2.77,-1.2 -3.43,-3.2 -0.36,-1.4 -0.43,-3.3 -0.1,-5.6 0.9,-6.1 4.88,-10.1 12.9,-13.2 8.1,-3.1 21.26,-3.4 26.85,-0.6 11.99,5.9 19.13,34.7 11.49,46.3 -3.49,5.2 -10.68,9.9 -17.43,11.3 -5.41,1.1 -5.41,1.2 -5.41,4.8 0,2.1 -0.73,6.4 -1.62,9.7 -1.73,6.4 -2.43,8.8 -1.8,10.7 l 0,0 0.1,0.1 c 0.44,1.2 1.42,2.2 3.03,3.9 5.62,6.2 16.15,24.7 17.27,30.4 0.95,5 2.92,37.7 3.34,55.7 0.22,9.4 0.35,10 3.04,12.3 l 0,0 c 3.28,2.8 3.85,2.9 7.66,0.9 5.6,-2.9 6.27,-11.6 2.06,-27 -1.6,-5.8 -2.08,-12.7 -2.87,-40.5 l -0.95,-33.5 2.44,-2.9 c 4.47,-5.3 6.33,-10.3 7.29,-19.6 0.52,-4.9 1.17,-9.4 1.45,-9.8 0.28,-0.5 2.32,-1.4 4.53,-2.2 2.2,-0.7 5.02,-2.4 6.24,-3.7 0.55,-0.5 0.96,-1 1.27,-1.7 l 0.84,-0.7 -0.12,-2.7 c 0.13,-2 0.11,-4.9 0,-9.5 -0.25,-14.2 -0.71,-18.7 -2.84,-28 -0.4,-1.7 -0.7,-3.7 -0.91,-5.7 -0.16,-1.8 -0.27,-3.7 -0.34,-5.5 -0.18,-7.6 0.77,-15.4 2.66,-19.1 1.16,-2.2 2.82,-4.6 3.69,-5.3 0.59,-0.5 0.95,-1.5 1.19,-4 l 0.38,-0.6 0,-19.1 0,-0.3 0,-21.1 0,-0.9 -3.75,-1 c -2.74,-0.8 -5.36,-1.1 -7.87,-1.1 z m -159.24,56 c 0.47,0 0.86,17.3 0.86,38.5 0,24.8 -0.35,38.5 -0.99,38.5 -1.53,0 -6.91,-7.8 -10.39,-15 -2.2,-4.6 -2.86,-6.4 -3.04,-11.5 -0.1,-1.9 -0.1,-4.1 -0.1,-7 0,-0.1 0,-0.2 0,-0.3 0.1,-7.8 0.56,-11.6 2.32,-17.2 2.53,-8.1 8.33,-21.8 10.56,-25.2 0.28,-0.4 0.52,-0.6 0.72,-0.8 0,0 0,0 0,0 z m 356.7232,2 c 0.48,0 2.0503,2.6 3.4902,5.8 12.6996,28.3 12.8796,45.9 0.66996,63.7 -1.70996,2.4 -3.54036,4.5 -4.07036,4.5 -0.5782,0 -0.9469,-14.2 -0.9492,-36.8 0,-0.1 0,-0.1 0,-0.1 0,-0.1 0,-0.1 0,-0.1 0,-1.1 0.012,-2 0.014,-3 0.038,-18.9 0.4005,-34 0.8457,-34 z m -250.7232,111.2 -7.64,3.6 -7.64,3.7 0,0.6 -0.11,0 0.27,3.9 0.27,7 c 0.24,6.3 0.94,12.6 1.56,14 0.61,1.4 1.5,8.9 1.98,16.7 0.78,12.6 1.15,14.6 3.53,18.7 1.46,2.5 3.44,5 4.39,5.5 l 0,0 c 2.56,1.5 5.88,1.3 7.66,-0.5 2.06,-2.1 2.02,-9.6 -0.1,-13.7 -0.57,-1.1 -0.93,-2.4 -1.13,-4.8 -0.13,-2.6 -0.18,-6.5 -0.17,-11.6 0,-3.3 0.1,-7 0.21,-11.9 0.52,-23.3 0.42,-25.4 -1.28,-28.2 l -1.84,-3 z m 1866.04,88.2 c -1.3,0 -2.6,0.1 -4,0.1 -7.4,0.1 -10.5,0.6 -15.7,2.3 -18.9,6.4 -36.2,21.4 -44.5,38.7 -8.3,17.1 -8.1,37.4 0.4,54.3 10,19.7 30.3,34.8 51.6,38.5 1.4,0.2 6.1,0.5 10.6,0.6 28.2,0.4 57.4,-20.7 67.1,-48.6 3.6,-10.5 3.8,-26.3 0.4,-36.3 -7.2,-21 -26.1,-39.9 -46.6,-46.7 -5.5,-1.9 -8.6,-2.5 -15.2,-2.7 -1.3,-0.1 -2.7,-0.2 -4.1,-0.2 z m -206.2,2.6 c -4,0 -7.8,0.3 -11.2,0.9 -22.7,4.4 -46,26.5 -51.3,48.6 -1.9,7.8 -1.9,20.6 0,29.4 5,24.1 28,46 53,50.6 13.7,2.5 33.2,0.2 41.8,-5 5,-2.9 14.7,-12.3 14.7,-14.2 0,0 0,0 0,0 l 0.2,-0.3 -0.4,-0.8 c -1,-2.5 -4.4,-7.9 -5.8,-8.7 -0.6,-0.4 -2.7,0.9 -4.6,2.9 -4.7,4.8 -9.4,7.1 -18.7,9 -4.4,0.9 -8.4,1.4 -12.1,1.4 0,0 0,0 0,0 -0.7,0 -1.4,0 -2.1,0 -0.5,0 -1.1,-0.1 -1.6,-0.1 -9.3,-0.8 -16.8,-4.9 -24.6,-12.9 -20.6,-21.3 -21,-56.1 -0.8,-74.7 8.1,-7.4 18.1,-10.8 29.4,-9.8 13.2,1.2 22.3,6.7 27.8,17 2.1,3.8 2.7,4.8 4.8,5.2 0.8,0.3 1.7,0.3 2.7,0.3 0.1,0 0.1,0 0.1,0 3.1,0.2 4.9,0.2 6,-0.9 l 0.7,-0.1 0,-0.9 c 1,-1.9 1,-5.6 1,-12.6 0,-6.8 -0.5,-13.3 -1,-14.4 -0.8,-1.4 -2.1,-1.9 -5,-1.9 -2.1,0 -8.9,-1.6 -15.2,-3.6 -9,-2.9 -19,-4.4 -27.8,-4.4 z m 822,0 c -4,0 -7.8,0.3 -11.2,0.9 -18.3,3.5 -38.6,19.5 -47.2,37.3 -7.8,16.2 -7.5,38.4 0.9,54.7 9.9,19.6 29.2,33.6 51,37.2 10.9,1.7 31.3,-1.1 38.4,-5.3 1.9,-1.1 4.7,-3.4 7.4,-5.8 1.5,-1.3 2.8,-2.6 4,-3.9 2.1,-2.2 3.6,-4 3.7,-4.8 l 0.2,-0.3 -0.7,-1.2 c -1.4,-2.8 -5.3,-8.8 -6,-8.8 -0.2,0 -2.1,1.6 -4.2,3.6 -5.2,4.9 -9.5,6.9 -18.6,8.8 -4.8,1 -8.8,1.5 -12.4,1.5 -0.8,0 -1.6,-0.1 -2.5,-0.1 -0.2,0 -0.4,0 -0.6,-0.1 -2.5,-0.2 -4.8,-0.6 -7.2,-1.3 -19.4,-5.8 -35.7,-32.3 -33.5,-54.7 1.1,-11.8 4.8,-20.5 12,-28.6 7.2,-7.9 16.1,-12.2 26.1,-12.9 1.7,-0.1 3.3,-0.1 4.9,-0.1 2.5,0.1 5.1,0.4 7.7,1 9.6,2 16.8,7.5 21.7,16.6 1.8,3.3 2.5,4.3 4.5,4.8 0.8,0.2 1.7,0.3 2.8,0.3 0.1,0 0.1,0 0.1,0 3.1,0.2 4.9,0.2 6,-0.9 l 0.7,-0.1 0,-0.9 c 1,-1.9 1,-5.6 1,-12.6 0,-6.8 -0.5,-13.3 -1,-14.4 -0.8,-1.4 -2.1,-1.9 -5,-1.9 -2.1,0 -8.9,-1.6 -15.2,-3.6 -9,-2.9 -19,-4.4 -27.8,-4.4 z m -1720.1,0 c -5.18,-0.1 -10.05,0.4 -14.29,1.4 -22.3,5.2 -43.1,25.6 -49.2,48.1 -1.6,5.9 -1.8,23.3 -0.3,29 4,15.2 12,27.7 24.2,37.3 10,8 19.7,12.2 32.2,14.3 5.7,0.9 19.7,0.3 27,-1.3 2.7,-0.5 7.2,-2.1 10,-3.5 5.3,-2.6 16.5,-12.8 16.5,-15.1 0,0 0,0 0,0 l 0.2,-0.3 -0.52,-0.8 c -1.22,-2.8 -5.63,-9.1 -6.58,-9.1 -0.4,0 -2,1.4 -3.7,3.1 -4.5,4.8 -10.2,7.6 -18.6,9.3 -4.88,1 -8.86,1.5 -12.48,1.5 -0.83,0 -1.67,-0.1 -2.52,-0.1 -0.23,0 -0.44,0 -0.67,-0.1 -2.42,-0.2 -4.74,-0.6 -7.13,-1.3 -15.9,-4.7 -30.8,-24.2 -32.8,-42.9 -1.9,-16.8 1.9,-30 11.5,-40.6 8.7,-9.4 19.7,-13.7 32.2,-12.6 13.4,1.2 22.2,6.6 27.7,17.1 l 2.9,5.6 0.78,0 0.12,0.2 1.55,-0.2 2.75,0 c 6.8,0 7.3,-1 7.3,-14.9 0,-14.2 -0.7,-16.1 -5.9,-16.1 -2.2,0 -9,-1.6 -15.3,-3.6 -8.81,-2.8 -18.29,-4.3 -26.91,-4.4 z m 581.5,1.8 c -3.8,-0.1 -7.8,0.7 -9.8,2.5 -1.3,1.2 -5.9,8.5 -10.2,16.2 -10.2,18.6 -19.8,34.7 -21.9,37.2 -0.1,0 -0.1,0 -0.2,0 -0.2,0.1 -0.4,0 -0.8,-0.2 -2.3,-2.6 -11.5,-17.6 -23.9,-39 -4.3,-7.4 -8.8,-14.2 -9.9,-15 -0.5,-0.4 -1.6,-0.7 -3.1,-1 -1.1,-0.3 -2.6,-0.4 -4.8,-0.5 -3.63,-0.2 -7.78,-0.2 -11.08,0.1 -0.82,0.1 -1.52,0.2 -2.08,0.3 -1.84,0.2 -3.19,0.6 -3.59,1.1 -2.5,3 -1.7,4.2 35.55,55 l 5.1,6.8 c 0.8,1.3 1.4,2.3 1.5,2.7 l -0.6,27.8 c -0.4,19 -0.3,28.9 0.4,30.2 l 0,0 c 1,1.8 2.2,2 13,2 11.1,0 12,-0.1 13.1,-2.1 0.8,-1.6 0.8,-8.8 0,-28.6 -1.1,-24.9 -1.1,-26.7 0.6,-29.4 1,-1.6 9.2,-13.5 18.3,-26.5 22.4,-32.2 24,-34.5 24,-35.5 0,-1.2 -1.1,-2.1 -2.8,-2.8 0,-0.1 0,-0.1 -0.1,-0.1 -0.4,-0.2 -1.1,-0.4 -1.9,-0.6 -1.4,-0.3 -3.1,-0.5 -4.8,-0.6 z m 1425.5,0.1 c -4.5,0 -8.9,0.4 -10.6,1.1 l -0.1,0 0,0.1 c -0.1,0 -0.3,0.1 -0.4,0.2 0,0.1 -0.1,0.2 -0.2,0.4 -2.7,2 -2.2,7.3 -1.6,21.3 0.3,5.4 0.5,11.7 0.6,18.4 0,6.6 0,13 0,21.9 0,6.8 0.1,13.1 0.1,19.2 -0.2,7.7 -0.4,14.9 -0.7,21 -0.6,12.6 -0.5,17.7 0.3,19.5 l 1.2,2.5 29,0.5 c 16,0.3 33.6,0.6 39.3,0.8 l 10.3,0.2 1.6,-3.7 c 0.8,-2.1 1.8,-6.3 2,-9.4 0.5,-4.9 0.3,-5.8 -1.4,-6.7 -1.5,-0.9 -2.9,-0.7 -5.9,0.8 -5.8,2.9 -15.1,4 -33,4 l -15.4,0 c -0.1,-0.1 -0.3,-0.2 -0.5,-0.3 -0.1,-0.1 -0.2,-0.2 -0.4,-0.4 l -0.5,-3.6 c -0.4,-3.3 -0.8,-10.2 -1,-18.7 0,-5.4 0,-11.5 -0.1,-20.2 0,-10.8 0.1,-21.9 0.2,-31.3 0,-2.8 0.1,-5.5 0.2,-7.9 1.4,-28.5 2.2,-29.9 -8.7,-29.5 -1.4,-0.1 -2.8,-0.2 -4.3,-0.2 z m -728.2,0.1 c -1.3,0 -2.8,0 -4.6,0 0,0 0,0 -0.1,0 -2.5,0 -4.5,0 -6.1,0.1 -3.4,0.2 -5.2,0.6 -5.7,1.1 0,0.1 -0.1,0.5 -0.2,0.9 -1,1.5 -0.9,3.9 -0.6,7.8 0.1,0.6 0.2,2.2 0.2,3.7 -0.2,24.2 1.4,76 2.8,82.6 3,13.6 7.9,20.4 18.6,25.8 7.6,3.9 13.1,5.3 23,5.9 9.1,0.6 20.4,-0.2 25.8,-1.8 12,-3.6 25,-18.5 29.3,-32.8 l 0.4,-0.8 0,-0.7 c 0.2,-0.5 0.3,-1.1 0.4,-1.6 0.7,-3.2 1.1,-17.4 1.1,-36 0,-16.9 0.5,-35 1,-40.1 1.2,-10.6 0.8,-13.3 -4.6,-13.9 -0.5,-0.1 -1.1,-0.1 -1.7,-0.2 -0.6,0 -1.3,0 -2,0 -0.1,0 -0.2,0 -0.3,0 0,0 -0.1,0 -0.1,0 -0.1,0 -0.2,0 -0.3,0 -0.2,0 -0.3,0 -0.6,0 -0.2,0 -0.4,0 -0.5,0 -3.7,0.1 -6.1,0.5 -6.6,1.2 0,0.1 -0.1,0.9 -0.1,1.8 -1.1,1.7 -1,4.7 -0.5,17.1 -0.1,7.1 -0.2,15.2 -0.2,24.4 0,34.1 0,44.2 -2.9,50.4 -0.1,0.1 -0.1,0.3 -0.2,0.4 -0.1,0.2 -0.2,0.4 -0.3,0.6 0,0 0,0 0,0 0,0 0,0 0,0 -1.2,2.1 -2.7,3.8 -4.8,6.1 -7.8,8.7 -16.7,11.9 -27.5,10 -14.6,-2.7 -20.7,-9.4 -23.4,-25.9 -1.7,-10.3 -1.8,-40.2 -0.4,-64.5 1.1,-16.9 1.6,-20.6 -4.6,-21.4 -1,-0.2 -2.2,-0.2 -3.7,-0.2 z m -1113.1,0 c -3.13,-0.1 -6.66,0.1 -9.43,0.4 l -4.67,0.1 -1.5,3 c -1.3,2.5 -1.4,5.8 -0.7,21 0.23,4.5 0.36,12.4 0.42,21.6 0,5.5 0,9.6 0,16.7 0,2.7 0,4.2 0,6.7 0,4.3 -0.1,8.6 -0.12,12.8 -0.4,26.7 -0.3,40.5 0.4,41.8 1,1.7 2.2,1.9 11.9,1.9 8.6,0 11.1,-0.3 12.2,-1.6 0.1,-0.1 0.19,-0.6 0.28,-1.4 0.93,-2.3 1.09,-7.1 0.77,-18.3 0.46,-22.7 0.43,-59.7 0,-82.7 0.3,-11.6 0.13,-16.8 -0.82,-19.2 -0.1,-0.7 -0.18,-1.2 -0.28,-1.3 -0.58,-0.7 -1.49,-1.1 -3.44,-1.2 -1.31,-0.2 -3.04,-0.3 -4.96,-0.3 z m 105.4,0 -0.6,0.9 c -0.9,0.3 -1.18,0.6 -1.4,1.1 -1.42,2.7 -2.53,9 -2.12,11.4 l -0.18,1.6 3.24,0 c 3.27,0.4 9.8,0.5 22.26,0.5 l 24.3,0 0.8,10 c 0.5,5.5 0.6,29.8 0.3,54.1 -0.4,32.9 -0.2,44.4 0.7,45.3 0.6,0.6 3.06,0.9 7.54,0.9 0,0 0,0 0,0 6.34,0.3 14.91,-0.1 16.16,-0.8 0.1,-0.1 0.11,-0.1 0.16,-0.2 0.74,-0.4 1.04,-1 1.44,-1.8 0.8,-1.8 0.9,-8.2 0.2,-23.5 -0.14,-3 -0.25,-6.3 -0.34,-9.8 0,-5.7 0,-11.1 0,-18.9 0,-14.8 0.1,-28.4 0.25,-38.3 0.35,-9.1 0.85,-15.5 1.45,-16.2 0.21,-0.3 0.5,-0.5 0.98,-0.7 2,-0.3 5.7,-0.5 11.97,-0.6 0,0 0,0 0,0 3.17,0.1 7.03,0.2 12.02,0.3 15.77,0.4 22.35,0.3 24.13,-0.3 l 0.67,0 0,-0.7 c 0.82,-2.3 -0.51,-11 -2.1,-12.9 -0.13,-0.2 -0.42,-0.3 -0.92,-0.4 -0.1,-0.1 -0.12,-0.1 -0.18,-0.2 -0.12,0 -1.25,-0.1 -2.81,-0.2 -6.19,-0.5 -21.48,-0.6 -58.09,-0.6 0,0 -0.1,0 -0.1,0 l -59.8,0 z m 1192.9,0 -1.5,3.6 c -1.3,3.1 -1.3,6.8 -0.3,28.7 0.8,16.3 0.9,35.9 0.5,55.7 -0.9,35.8 -0.9,34.9 0.5,36.6 0.8,0.9 3.4,1.4 7.9,1.4 2.5,0 4.3,0 5.6,-0.4 2.6,-0.6 3.4,-1.9 3.5,-4.7 0,-1.3 -0.3,-18 -0.7,-37 -0.5,-25.3 -0.4,-34.8 0.4,-35.3 1.3,-0.8 5.5,4.8 26.5,34.9 8.1,11.5 16.6,23.5 18.9,26.6 2.4,3.1 5.9,7.8 7.8,10.5 l 3.5,4.9 5.4,0.1 c 2.3,0.3 5.4,0.4 9.5,0.4 5,0 7.8,0 9.5,-0.3 0.1,0 0.1,0 0.1,0 2.2,-0.1 3.1,-0.5 3.5,-1 0.1,-0.1 0.2,-0.7 0.2,-1.6 0.7,-1.8 0.8,-6.2 0.5,-18.2 0.3,-24 0.3,-63.7 0,-86.4 0.2,-8.2 0.1,-12.7 -0.3,-14.7 -0.1,-1.4 -0.2,-2.5 -0.3,-2.7 -0.4,-0.7 -3.5,-1.1 -7.6,-1.1 -10.2,0 -10.3,0.1 -9,22.6 0.4,6.7 0.7,16.9 0.8,27.6 0,0.3 0,0.4 0,0.7 0.1,8 0.2,13.8 0.2,19.4 0,13.1 -0.2,23.9 -0.6,25.5 -0.4,1.3 -1,2.2 -1.4,2 -2.2,-0.8 -51.9,-73 -63.8,-92.6 l -3.2,-5.2 -8,0 -8.1,0 z m 419.4,0 c -3.3,0 -5.8,0.1 -7.5,0.4 l -3.2,0.1 -1.7,3 c -1.5,2.7 -1.6,4.8 -0.9,19.5 1.1,21 1.1,62.1 0,81.5 -0.6,11.8 -0.5,15.7 0.6,18.2 l 1.3,3.3 11.5,0 c 0.1,0 0.1,0 0.1,0 0,0 0.1,0 0.1,0 l 10.5,0 0.3,-0.6 c 0.7,-0.4 1,-0.9 1.2,-1.7 0.1,-0.2 0.1,-1.1 0.2,-2.4 0.5,-2.7 0.6,-8.5 0.4,-20.2 0.1,-10.7 0.1,-24.1 0.1,-38.9 0,-15.4 -0.1,-26.9 -0.2,-35.8 0.4,-13.8 0.2,-20 -0.6,-23 -0.2,-1.1 -0.3,-1.8 -0.5,-2 -0.7,-0.9 -2.3,-1.3 -6.8,-1.3 -1.5,0 -3.1,-0.1 -4.9,-0.1 z m -778,11 c 4.3,0.1 5.9,0.8 11.2,3.4 12.4,6.1 23.6,19.9 28.1,34.4 2.2,6.9 2.8,19 1.4,26.9 -2.4,14.8 -12.8,29.8 -24.6,35.8 -4.8,2.4 -7.2,2.9 -14.3,3.2 -10.1,0.3 -14.5,-0.9 -22.4,-6.1 -15.9,-10.6 -24.7,-27.6 -25,-48.1 -0.2,-16.1 5,-29.2 15.5,-39.1 8,-7.6 13.4,-9.8 24.7,-10.3 2.3,-0.1 4,-0.1 5.4,-0.1 z m -1440.05,41 c -94.116,0 -127.814,0.2 -133.185,1 l -1.111,0 0.02,0.6 c -1.133,3 -1.337,17.2 -0.141,19.1 0.09,0.2 0.344,0.3 0.68,0.4 l 0.01,0.4 2.068,0 c 2.822,0.4 7.918,0.6 15.967,0.7 l 17.959,0.3 0.271,23.5 c 0.11,9.4 0.282,15.5 0.561,19.3 0.101,2.2 0.211,3.9 0.338,4 0,0 0.155,0 0.191,0 0.125,0.5 0.259,0.8 0.41,0.9 0.68,0.4 54.332,0.7 119.232,0.5 96.53,-0.2 114.6,-0.3 117.49,-1.4 0.6,-0.1 1.01,-0.1 1.01,-0.1 0,-0.1 -0.46,-0.8 -1.23,-1.7 -1.79,-2.7 -6.95,-8.8 -13.07,-15.5 -10.5,-11.6 -13.8,-15.8 -13.5,-17.4 0.3,-1.1 4.9,-8.8 10.2,-16.9 5.9,-8.8 9.6,-15.3 9.2,-16.2 -0.5,-1.3 -16.2,-1.5 -133.37,-1.5 z m -639.54,0.1 c -18.31,0 -42.15,0.1 -73.18,0.1 -114.35,0.2 -130.4,0.3 -132.59,1.6 0,0 -0.12,0 -0.12,0 0,0 0,0 0,0.1 -0.21,0.2 -0.22,0.4 -0.21,0.6 0,1.1 4.43,8.5 9.75,16.6 5.32,8 9.68,15.3 9.68,16.2 0,0.9 -4.81,6.9 -10.69,13.4 -5.88,6.5 -12.43,13.7 -14.55,16.1 -2.11,2.3 -3.58,4.7 -3.24,5.2 0.72,1.2 236.35,1.4 238.2,0.2 0.14,-0.1 0.26,-0.4 0.37,-0.7 l 0.41,0 0,-2.5 c 0.36,-3.5 0.57,-10.1 0.69,-21 l 0.28,-23.5 17.95,-0.3 c 8.05,-0.1 13.15,-0.3 15.97,-0.7 l 2.07,0 0,-0.4 c 0.35,-0.1 0.61,-0.2 0.7,-0.4 1.29,-2 0.93,-17.2 -0.45,-19 -0.87,-1.2 -6.12,-1.6 -61.06,-1.6 z m 284.86,34.9 c -119.34,0 -219.8,0.2 -241.46,0.5 l -5.58,0 0,3.2 c -0.4,3.8 -0.47,12.3 -0.47,30.8 0,11.7 0.1,19.5 0.21,24.7 0.1,4.8 0.13,8.2 0.24,8.5 0,0 0.21,0.1 0.5,0.1 0,0.1 0,0.1 0.1,0.1 l 0,0.1 0,0 c 0.1,0.1 0.15,0.2 0.24,0.3 0.17,0.1 8.08,0.1 21.37,0.2 21.35,0.3 65.07,0.3 133.58,0.3 28.28,0.1 58.81,0.1 91,0.1 151.931,0 209.487,0.1 231.591,-0.4 l 14.697,0 0,-6.3 c 0.686,-12.1 0.686,-43.3 0,-55.5 l 0,-6.2 -13.869,0 c -21.389,-0.5 -78.24,-0.5 -232.079,-0.5 z" style="fill:#ffffff;fill-opacity:1" inkscape:connector-curvature="0" />
    </g>
  </g>
</svg>
