<?xml version="1.0" encoding="UTF-8"?>
<svg enable-background="new 0 0 368.5 180.1" version="1.1" viewBox="0 0 250 91" xml:space="preserve" xmlns="http://www.w3.org/2000/svg" xmlns:cc="http://creativecommons.org/ns#" xmlns:dc="http://purl.org/dc/elements/1.1/" xmlns:rdf="http://www.w3.org/1999/02/22-rdf-syntax-ns#"><metadata><rdf:RDF><cc:Work rdf:about=""><dc:format>image/svg+xml</dc:format><dc:type rdf:resource="http://purl.org/dc/dcmitype/StillImage"/><dc:title/></cc:Work></rdf:RDF></metadata><defs><clipPath id="a"><path d="m0 1112.4h1573.3v-1112.4h-1573.3z"/></clipPath></defs><g transform="matrix(.12179 0 0 .12179 -85.637 23.309)"><path d="m1097.6 299.9v47.08h-189.18v-299.32h54.417v252.24z" fill="#fff"/><g transform="matrix(1.3333 0 0 -1.3333 690.09 938.08)" clip-path="url(#a)"><g transform="translate(419 544.72)"><path d="m0 0c0 5.396-0.759 10.528-2.268 15.387-1.512 4.86-3.725 9.071-6.639 12.633-2.918 3.564-6.478 6.368-10.692 8.423-4.21 2.05-9.23 3.078-15.062 3.078-6.049 0-11.337-1.134-15.874-3.402-4.532-2.267-8.371-5.238-11.498-8.908-3.135-3.674-5.565-7.885-7.289-12.633-1.733-4.753-2.915-9.612-3.565-14.578zm-113.7-17.493c0 14.902 2.213 27.966 6.642 39.197 4.424 11.227 10.311 20.569 17.655 28.02 7.341 7.451 15.76 13.064 25.265 16.844 9.503 3.777 19.222 5.669 29.157 5.669 23.324 0 41.514-7.237 54.584-21.702 13.062-14.472 19.595-36.069 19.595-64.788 0-2.161-0.055-4.59-0.162-7.288-0.109-2.703-0.271-5.132-0.484-7.289h-111.76c1.079-13.606 5.881-24.133 14.417-31.584 8.526-7.451 20.892-11.176 37.088-11.176 9.502 0 18.193 0.861 26.077 2.591 7.884 1.727 14.094 3.564 18.626 5.507l5.186-32.068c-2.162-1.085-5.134-2.218-8.911-3.402-3.78-1.189-8.096-2.267-12.956-3.239-4.859-0.973-10.097-1.782-15.713-2.43-5.615-0.648-11.336-0.973-17.166-0.973-14.9 0-27.86 2.219-38.874 6.642-11.014 4.424-20.084 10.579-27.21 18.464-7.125 7.881-12.42 17.168-15.872 27.859-3.457 10.69-5.185 22.402-5.185 35.146" fill="#fff"/></g><g transform="translate(581.29 544.72)"><path d="m0 0c0 5.396-0.76 10.528-2.269 15.387-1.511 4.86-3.725 9.071-6.639 12.633-2.918 3.564-6.478 6.368-10.692 8.423-4.21 2.05-9.23 3.078-15.062 3.078-6.048 0-11.337-1.134-15.873-3.402-4.533-2.267-8.372-5.238-11.499-8.908-3.135-3.674-5.565-7.885-7.289-12.633-1.733-4.753-2.914-9.612-3.565-14.578zm-113.7-17.493c0 14.902 2.214 27.966 6.643 39.197 4.423 11.227 10.31 20.569 17.654 28.02 7.341 7.451 15.761 13.064 25.265 16.844 9.503 3.777 19.222 5.669 29.157 5.669 23.324 0 41.514-7.237 54.584-21.702 13.062-14.472 19.595-36.069 19.595-64.788 0-2.161-0.055-4.59-0.162-7.288-0.109-2.703-0.271-5.132-0.484-7.289h-111.76c1.079-13.606 5.88-24.133 14.416-31.584 8.526-7.451 20.892-11.176 37.088-11.176 9.502 0 18.193 0.861 26.077 2.591 7.884 1.727 14.094 3.564 18.626 5.507l5.187-32.068c-2.163-1.085-5.135-2.218-8.912-3.402-3.78-1.189-8.096-2.267-12.956-3.239-4.859-0.973-10.096-1.782-15.712-2.43s-11.337-0.973-17.166-0.973c-14.901 0-27.861 2.219-38.875 6.642-11.014 4.424-20.084 10.579-27.21 18.464-7.124 7.881-12.42 17.168-15.871 27.859-3.458 10.69-5.186 22.402-5.186 35.146" fill="#fff"/></g><g transform="translate(670.05 528.53)"><path d="m0 0c0-17.279 4.1-30.83 12.31-40.653 8.203-9.831 19.541-14.74 34.012-14.74 6.262 0 11.606 0.268 16.035 0.809 4.423 0.538 8.041 1.134 10.853 1.782v97.182c-3.457 2.373-8.049 4.585-13.767 6.64-5.725 2.05-11.826 3.077-18.303 3.077-14.255 0-24.675-4.859-31.26-14.576-6.591-9.719-9.88-22.893-9.88-39.521m112.4-80.011c-7.773-2.38-17.547-4.536-29.314-6.48-11.774-1.943-24.135-2.916-37.091-2.916-13.393 0-25.379 2.055-35.957 6.155-10.585 4.1-19.6 9.987-27.05 17.656-7.45 7.661-13.176 16.95-17.169 27.859-3.997 10.901-5.994 23.16-5.994 36.766 0 13.388 1.674 25.534 5.025 36.442 3.343 10.903 8.258 20.247 14.736 28.02 6.481 7.776 14.361 13.767 23.647 17.979 9.286 4.211 19.974 6.316 32.071 6.316 8.207 0 15.437-0.971 21.706-2.914 6.26-1.943 11.66-4.105 16.196-6.48v81.309l39.194 6.478z" fill="#fff"/></g><g transform="translate(853.07 471.51)"><path d="m0 0c10.368 0 17.922 1.239 22.675 3.725 4.75 2.48 7.128 6.746 7.128 12.795 0 5.613-2.54 10.254-7.613 13.93-5.076 3.669-13.444 7.662-25.104 11.985-7.127 2.591-13.66 5.344-19.599 8.26-5.942 2.916-11.069 6.317-15.385 10.205-4.324 3.887-7.726 8.583-10.207 14.09-2.485 5.508-3.726 12.255-3.726 20.247 0 15.549 5.723 27.802 17.17 36.766 11.443 8.96 26.994 13.443 46.648 13.443 9.928 0 19.434-0.921 28.507-2.753 9.069-1.837 15.87-3.619 20.406-5.346l-7.128-31.745c-4.319 1.945-9.828 3.725-16.519 5.345-6.694 1.621-14.472 2.43-23.324 2.43-7.991 0-14.468-1.352-19.434-4.05-4.973-2.703-7.451-6.858-7.451-12.472 0-2.809 0.485-5.293 1.457-7.45 0.973-2.16 2.644-4.16 5.021-5.992 2.375-1.838 5.505-3.675 9.396-5.507 3.887-1.837 8.633-3.725 14.252-5.669 9.282-3.457 17.169-6.859 23.646-10.205 6.479-3.35 11.823-7.125 16.036-11.337 4.21-4.212 7.289-9.019 9.231-14.415 1.945-5.4 2.917-11.88 2.917-19.435 0-16.197-5.993-28.457-17.979-36.767-11.984-8.311-29.106-12.473-51.343-12.473-14.902 0-26.889 1.246-35.958 3.725-9.07 2.482-15.444 4.48-19.111 5.994l6.801 32.718c5.832-2.38 12.795-4.646 20.895-6.803 8.096-2.161 17.331-3.239 27.695-3.239" fill="#fff"/></g><g transform="translate(1067.2 462.44)"><path d="m0 0v-19.113h-127.63v224.49h22.028v-205.38z" fill="#fff"/></g><path d="m1101.5 443.33h-21.056v167.48h21.056zm4.86 218.01c0-4.971-1.512-8.91-4.533-11.824-3.028-2.916-6.698-4.373-11.014-4.373-4.324 0-7.993 1.457-11.015 4.373-3.027 2.914-4.536 6.853-4.536 11.824 0 4.964 1.509 8.908 4.536 11.824 3.022 2.915 6.691 4.373 11.015 4.373 4.316 0 7.986-1.458 11.014-4.373 3.021-2.916 4.533-6.86 4.533-11.824" fill="#fff"/><g transform="translate(1185.9 466.01)"><path d="m0 0c4.546 9.282 9.203 19.922 13.97 31.907 4.769 11.986 9.368 24.402 13.811 37.253 4.44 12.846 8.557 25.804 12.348 38.872 3.79 13.064 6.983 25.319 9.585 36.768h21.066c-3.911-15.338-8.261-30.45-13.039-45.351-4.783-14.902-9.835-29.48-15.158-43.733-5.324-14.253-10.867-27.968-16.627-41.139-5.76-13.175-11.354-25.591-16.784-37.253h-19.63c-5.653 11.662-11.307 24.078-16.956 37.253-5.647 13.171-11.135 26.886-16.458 41.139-5.327 14.253-10.382 28.831-15.166 43.733-4.783 14.901-9.131 30.013-13.038 45.351h22.351c2.602-11.449 5.798-23.704 9.588-36.768 3.791-13.068 7.905-26.026 12.348-38.872 4.44-12.851 9.045-25.267 13.815-37.253 4.767-11.985 9.423-22.625 13.974-31.907" fill="#fff"/></g><g transform="translate(1373.6 540.51)"><path d="m0 0c-0.437 17.492-4.536 31.098-12.31 40.815-7.774 9.719-18.788 14.578-33.043 14.578-7.56 0-14.306-1.514-20.245-4.537-5.942-3.025-11.125-7.075-15.548-12.146-4.429-5.078-7.886-10.963-10.368-17.656-2.484-6.696-3.941-13.715-4.371-21.054zm-118.89-13.283c0 14.683 2.107 27.48 6.317 38.387 4.213 10.903 9.718 20.029 16.523 27.373 6.801 7.339 14.574 12.794 23.32 16.358 8.747 3.564 17.764 5.346 27.05 5.346 20.517 0 36.875-6.697 49.078-20.084 12.197-13.394 18.3-34.014 18.3-61.872 0-1.731-0.055-3.457-0.161-5.183-0.11-1.732-0.271-3.351-0.485-4.859h-117.59c0.649-20.52 5.721-36.28 15.227-47.295 9.499-11.014 24.617-16.521 45.35-16.521 11.443 0 20.513 1.079 27.211 3.239 6.691 2.156 11.551 3.995 14.578 5.507l3.887-18.14c-3.028-1.73-8.698-3.781-17.008-6.155-8.316-2.373-18.09-3.562-29.317-3.562-14.689 0-27.208 2.159-37.577 6.478-10.365 4.318-18.897 10.367-25.588 18.14-6.699 7.775-11.558 17.006-14.579 27.697-3.027 10.69-4.536 22.402-4.536 35.146" fill="#fff"/></g></g></g></svg>
