<?xml version="1.0" encoding="UTF-8"?>
<svg version="1.1" viewBox="0 0 250 91" xmlns="http://www.w3.org/2000/svg" xmlns:cc="http://creativecommons.org/ns#" xmlns:dc="http://purl.org/dc/elements/1.1/" xmlns:rdf="http://www.w3.org/1999/02/22-rdf-syntax-ns#">
<metadata>
<rdf:RDF>
<cc:Work rdf:about="">
<dc:format>image/svg+xml</dc:format>
<dc:type rdf:resource="http://purl.org/dc/dcmitype/StillImage"/>
<dc:title/>
</cc:Work>
</rdf:RDF>
</metadata>
<g transform="translate(0,-961.4)">
<circle cx="71.594" cy="996.69" r="0" fill="#666"/>
<g transform="matrix(.20972 0 0 .20972 74.873 957.83)" fill="#fff">
<path d="m158.21 67.104c-16.67 0-37.89 2.02-42.43 4.54-4.55 2.53-10.61 16.16-10.61 27.28 0 1.436 0.1 2.896 0.18 4.356-6.786-0.55-13.856-0.82-19.866-0.82-16.67 0-37.89 2.02-42.43 4.54-4.55 2.53-10.61 16.16-10.61 27.28 0 11.11 4.04 25.25 9.6 28.79 5.55 3.53 21.21 5.55 32.83 6.06 11.61 0.5 17.17 1.01 17.17 1.01s7.58 9.59 19.696 17.17c12.12 7.58 38.89 15.66 38.89 15.66s-16.16-14.15-21.72-20.21c-5.55-6.06-14.14-16.16-14.14-16.16s11.11 0.51 14.14-2.52 9.09-15.16 9.6-23.74c0.18-3.05-0.1-7.31-0.72-11.74 6.11 0.61 11.95 1.26 17.38 2.14 12.23 22.78 29.99 46.19 49 65.15-10.17-21.58-20.2-45.05-26.27-66.67 0 0 4.99 0.6 10.43 0.87 1.63 7.6 4.61 14.49 8.26 16.81 11.42 4.83 21.48 6.2 33.84 6.56 2.74 10.98 6.32 22.54 13.13 42.43 2.46-14.51 4.55-27.88 6.06-42.93 0 0 30.81-2.02 33.84-5.05 2.19-2.19 5.94-9.12 8.06-16.03 6.29 1.43 13.52 2.39 13.52 2.39-4.04 22.63-11.04 45.6-19.19 68.69 18-20.98 30.7-41.36 43.44-68.18 3.69 0 7.08 0 10.32-0.18-0.14 2.15-0.17 4.11-0.1 5.73 0.51 8.58 6.57 20.71 9.6 23.74s14.14 2.52 14.14 2.52-8.59 10.1-14.14 16.16c-5.56 6.06-21.72 20.21-21.72 20.21s26.77-8.08 38.89-15.66 19.7-17.17 19.7-17.17 5.56-0.51 17.17-1.01c11.62-0.51 27.24-2.53 32.84-6.06 5.6-3.54 9.6-17.68 9.6-28.79 0-11.12-6.1-24.75-10.6-27.28-4.6-2.52-25.78-4.54-42.45-4.54-4.11 0-8.73 0.12-13.4 0.38 0.1-1.37 0.13-2.69 0.13-3.906 0-11.12-6.06-24.75-10.61-27.28-4.54-2.52-25.76-4.54-42.43-4.54-16.66 0-41.41 2.02-45.96 6.57-2.41 2.41-4.38 8.65-5.64 15.27-9.88-1.81-23.91-2.65-34.62-2.65-10.04 0-21.66 0.74-30.37 1.87-1.26-6.32-3.18-12.18-5.49-14.49-4.55-4.55-29.3-6.57-45.96-6.57zm65.97 148.37c-2.77 0-7.15 1.13-7.15 1.13l2.5 7.5s-5.71 4.29-6.07 18.57c-0.36 14.29 6.07 16.79 6.07 16.79l-4.28 6.79s-7.86 1.78-11.07 7.85c-3.22 6.07-2.15 16.43-2.15 16.43l4.29 30h2.14s3.93 18.57 8.57 29.29c4.65 10.71 11.07 22.14 11.07 22.14s-6.07 6.43-7.14 8.21c-1.07 1.79-1.43 4.29-1.43 4.29s-7.5 0.71-9.64 2.5-0.71 2.5-0.71 2.5-4.65 6.07-3.93 8.57c0.71 2.5 3.93 2.86 3.93 2.86s-1.08-1.79-1.43-3.22c-0.36-1.42 1.43-2.5 2.5-3.21s6.07-0.71 6.07-0.71l18.93-0.36 2.14 3.57 0.98-1.65 0.99 1.65 2.14-3.57 18.93 0.36s5 0 6.07 0.71 2.86 1.79 2.5 3.21c-0.35 1.43-1.43 3.22-1.43 3.22s3.22-0.36 3.93-2.86c0.72-2.5-3.93-8.57-3.93-8.57s1.43-0.71-0.71-2.5-9.64-2.5-9.64-2.5-0.36-2.5-1.43-4.29c-1.07-1.78-7.14-8.21-7.14-8.21s6.42-11.43 11.07-22.14c4.64-10.72 8.57-29.29 8.57-29.29h2.14l4.29-30s1.07-10.36-2.15-16.43c-3.21-6.07-11.07-7.85-11.07-7.85l-4.28-6.79s6.43-2.5 6.07-16.79c-0.36-14.28-6.07-18.57-6.07-18.57l2.5-7.5s-5.72-1.43-8.22-1.07-7.5 3.22-7.5 3.22-2.64-0.66-5.38-0.71h-0.16-0.1-0.1-0.16c-2.74 0.1-5.38 0.71-5.38 0.71s-5-2.86-7.5-3.22c-0.31-0.1-0.68-0.1-1.07-0.1zm86 0c-2.77 0-7.15 1.13-7.15 1.13l2.5 7.5s-5.71 4.29-6.07 18.57c-0.36 14.29 6.07 16.79 6.07 16.79l-4.28 6.79s-7.86 1.78-11.07 7.85c-3.22 6.07-2.15 16.43-2.15 16.43l4.29 30h2.14s3.93 18.57 8.57 29.29c4.65 10.71 11.07 22.14 11.07 22.14s-6.07 6.43-7.14 8.21c-1.07 1.79-1.43 4.29-1.43 4.29s-7.5 0.71-9.64 2.5-0.71 2.5-0.71 2.5-4.65 6.07-3.93 8.57c0.71 2.5 3.93 2.86 3.93 2.86s-1.08-1.79-1.43-3.22c-0.36-1.42 1.43-2.5 2.5-3.21s6.07-0.71 6.07-0.71l18.93-0.36 2.14 3.57 0.98-1.65 0.99 1.65 2.14-3.57 18.93 0.36s5 0 6.07 0.71 2.86 1.79 2.5 3.21c-0.35 1.43-1.43 3.22-1.43 3.22s3.22-0.36 3.93-2.86c0.72-2.5-3.93-8.57-3.93-8.57s1.43-0.71-0.71-2.5-9.64-2.5-9.64-2.5-0.36-2.5-1.43-4.29c-1.07-1.78-7.14-8.21-7.14-8.21s6.42-11.43 11.07-22.14c4.64-10.72 8.57-29.29 8.57-29.29h2.14l4.29-30s1.07-10.36-2.15-16.43c-3.21-6.07-11.07-7.85-11.07-7.85l-4.28-6.79s6.43-2.5 6.07-16.79c-0.36-14.28-6.07-18.57-6.07-18.57l2.5-7.5s-5.72-1.43-8.22-1.07-7.5 3.22-7.5 3.22-2.64-0.66-5.38-0.71h-0.16-0.1-0.1-0.16c-2.74 0.1-5.38 0.71-5.38 0.71s-5-2.86-7.5-3.22c-0.31-0.1-0.68-0.1-1.07-0.1zm-171.97 0c-2.77 0-7.15 1.13-7.15 1.13l2.5 7.5s-5.71 4.29-6.07 18.57c-0.36 14.29 6.07 16.79 6.07 16.79l-4.28 6.79s-7.86 1.78-11.07 7.85c-3.22 6.07-2.15 16.43-2.15 16.43l4.29 30h2.14s3.93 18.57 8.57 29.29c4.65 10.71 11.07 22.14 11.07 22.14s-6.07 6.43-7.14 8.21c-1.07 1.79-1.43 4.29-1.43 4.29s-7.5 0.71-9.64 2.5-0.71 2.5-0.71 2.5-4.65 6.07-3.93 8.57c0.71 2.5 3.93 2.86 3.93 2.86s-1.08-1.79-1.43-3.22c-0.36-1.42 1.43-2.5 2.5-3.21s6.07-0.71 6.07-0.71l18.93-0.36 2.14 3.57 0.98-1.65 0.99 1.65 2.14-3.57 18.93 0.36s5 0 6.07 0.71 2.86 1.79 2.5 3.21c-0.35 1.43-1.43 3.22-1.43 3.22s3.22-0.36 3.93-2.86c0.72-2.5-3.93-8.57-3.93-8.57s1.43-0.71-0.71-2.5-9.64-2.5-9.64-2.5-0.36-2.5-1.43-4.29c-1.07-1.78-7.14-8.21-7.14-8.21s6.42-11.43 11.07-22.14c4.64-10.72 8.57-29.29 8.57-29.29h2.14l4.29-30s1.07-10.36-2.15-16.43c-3.21-6.07-11.07-7.85-11.07-7.85l-4.28-6.79s6.43-2.5 6.07-16.79c-0.36-14.28-6.07-18.57-6.07-18.57l2.5-7.5s-5.72-1.43-8.22-1.07-7.5 3.22-7.5 3.22-2.64-0.66-5.38-0.71h-0.16-0.1-0.1-0.16c-2.74 0.1-5.38 0.71-5.38 0.71s-5-2.86-7.5-3.22c-0.31-0.1-0.68-0.1-1.07-0.1z" fill="#fff" fill-rule="evenodd"/>
</g>
</g>
</svg>
