<?xml version="1.0" encoding="UTF-8"?>
<svg version="1.1" viewBox="0 0 250 91" xmlns="http://www.w3.org/2000/svg" xmlns:cc="http://creativecommons.org/ns#" xmlns:dc="http://purl.org/dc/elements/1.1/" xmlns:rdf="http://www.w3.org/1999/02/22-rdf-syntax-ns#">
<metadata>
<rdf:RDF>
<cc:Work rdf:about="">
<dc:format>image/svg+xml</dc:format>
<dc:type rdf:resource="http://purl.org/dc/dcmitype/StillImage"/>
<dc:title/>
</cc:Work>
</rdf:RDF>
</metadata>
<g transform="translate(0,-961.4)">
<g transform="translate(24.111,2.0956)" fill="#fff">
<path transform="translate(0,961.4)" d="m101.1 8.3809a34.85 35.02 0 0 0-25.907 11.658h4.946a31.198 31.35 0 0 1 20.861-8.09 31.198 31.35 0 0 1 26.82 15.41h4.22a34.85 35.02 0 0 0-30.94-18.978zm-30.895 18.848a34.85 35.02 0 0 0-3.955 16.171 34.85 35.02 0 0 0 0.08 1.534c0.526-0.05 1.175-0.124 1.733-0.235 0.488-0.145 1.183-0.409 1.771-0.64a31.198 31.35 0 0 1-0.03-0.758 31.198 31.35 0 0 1 3.646-14.67h-3.244v-1.402zm4.041 5.941s1.39 1.769 1.643 2.779c0.03 0.126 0.04 0.269 0.05 0.424-1.541 0.137-3.04 0.341-4.422 0.611l-0.196 2.631c0.649-0.228 1.244-0.418 1.664-0.515 0.541-0.126 1.366-0.228 2.34-0.311-0.241 0.592-0.515 1.184-0.826 1.711-0.884 1.5-2.147 3.499-4.672 4.699-2.526 1.1-5.809 1.402-5.43-0.898 0.1-0.592 0.578-1.189 1.264-1.76v-3.287c-2.368 1.653-3.662 3.865-3.662 5.547 0 2.3 1.894 3.999 5.43 3.799 3.535-0.3 6.693-1.3 9.092-7 0.502-1.184 0.808-2.126 1.019-2.944 2.205-0.113 4.503-0.16 6.25-0.174-0.162 0.493-1.608 4.881-2.539 7.819-0.982 3-2.232 7.398-2.232 7.398s-0.626 1.9 0.802 2c1.429 0.1 1.788-0.4 2.235-2 0.446-1.6 2.319-8.999 2.765-10.599 0.385-1.291 0.95-3.801 1.123-4.579 1.779 0.08 3.291 0.264 4.356 0.409-0.332 0.971-0.636 2.033-0.846 3.17-0.535 2.8-0.803 8.5-0.803 8.5l-1.607 1.599s-0.982 0.901-1.607 0.401c-0.625-0.4-0.178-2.7-0.178-2.7l-0.08-0.9s-1.252 0.599-1.52 2.699c-0.268 2.2 0.446 2.9 1.16 3 0.715 0.2 1.697-0.3 2.59-1s1.34-1.099 1.34-1.099-0.179 0.5-0.09 1.4c0.09 0.9 0.626 1 0.983 1s0.98-0.301 1.605-1.801 1.519-2.8 2.055-3.5c0.535-0.8 1.785-1.799 1.785-1.799s-1.519 2.7-1.34 4.5 1.073 2.6 2.145 2.6c1.071 0 3.66-1.1 3.66-1.1s0.538 0.9 1.698 1.1 4.38-1.301 4.38-1.301-0.18 1.401 1.07 1.401 1.51-0.799 1.51-0.799l1.88-3.801 0.8-1.6s-0.26 2.8-0.1 4.2c0.18 1.3 0.63 2 1.43 2 0.81 0 3.04-1 3.04-1s0.44 1 1.96 1 2.59-0.901 2.59-0.901l-0.1 0.602s-4.82 4.398-5 7.398c-0.18 3.1 2.41 3.401 3.84 2.901 1.43-0.4 2.86-2 3.22-5 0.35-3 0.44-4.7 0.44-4.7s2.77-1.401 4.65-1.201c1.87 0.2 2.23 1.501 2.14 2.401 0 0.292-0.15 0.701-0.29 1.119a31.198 31.35 0 0 1-27.68 16.937 31.198 31.35 0 0 1-30.69-25.779c-0.49 0.135-1.027 0.261-1.622 0.328-0.736 0.125-1.374 0.117-1.906 0.08a34.85 35.02 0 0 0 34.318 29.143 34.85 35.02 0 0 0 30.57-18.322s3.93-5.6 0.44-7.5c-3.48-1.9-7.05-0.6-7.05-0.6l-2.77 1.1 0.27-3.299s1.43-3.901 0.54-4.301c-0.9-0.5-1.7-0.301-1.7-0.301s-0.72-0.898-1.61-0.898-3.12 1.099-4.28 3.799c-1.16 2.8-0.99 4-0.99 4s-0.53 0.8-1.16 0.4c-0.62-0.3-0.53-2.499-0.18-4.199 0.36-1.7 0.72-3.601-0.35-3.901-1.07-0.4-1.97 0.4-2.41 1.2-0.45 0.8-1.88 3.5-1.88 3.5s0.81-3.901 0.1-4.401c-0.71-0.6-1.61-0.1-1.96 0.401-0.36 0.5-1.07 6.201-1.07 6.201s-1.52 1.699-2.5 1.599c-0.99-0.1-0.72-1.9-0.72-1.9l1.43-5s0.54-1.201 0-1.301c-0.54-0.2-1.43-0.298-2.14 0.102-0.72 0.5-1.88 6-1.88 6l-1.698 1.398s-0.535 0.501-1.16 0.301-0.268-2.8 0.447-3.9c0.714-1.2 1.964-3.9 0.803-4.7-1.16-0.7-3.392 1.799-3.392 1.799l-2.411 2.701s1.608-2.8 2.858-5.9c1.25-3 2.41-7.04 0.713-7.93-0.424-0.222-0.831-0.323-1.217-0.334-1.159-0.03-2.131 0.737-2.801 1.405-0.222 0.223-0.455 0.557-0.687 0.974-0.891-0.06-2.838-0.208-6.412-0.416-1.889-0.11-4.419-0.113-7.02 0.04-0.104-1.194-0.664-1.715-1.063-2.183-0.758-0.88-2.525-0.881-2.525-0.881zm56.874 2.019a31.198 31.35 0 0 1 1.08 8.112 31.198 31.35 0 0 1-0.1 1.597s-0.35 3 1.74 3.1c1.14 0.05 1.62-0.449 1.84-0.922a34.85 35.02 0 0 0 0.23-3.678 34.85 35.02 0 0 0-1.01-8.211h-3.82zm-36.655 1.35c0.357 0.17-0.09 2.962-0.625 4.262-0.535 1.4-2.59 5.599-2.59 5.599s0.536-5 1.25-6.8c0.714-1.9 1.608-3.241 1.965-3.061zm9.415 3a1.7796 2.0119 69.665 0 0-2 1.361 1.7796 2.0119 69.665 0 0 1.27 2.299 1.7796 2.0119 69.665 0 0 2.43-1.5 1.7796 2.0119 69.665 0 0-1.16-2.099 1.7796 2.0119 69.665 0 0-0.54-0.06zm16.48 6.861s-0.27 2.801-0.54 3.901-0.98 2.8-1.96 2.5c-0.98-0.4-0.36-2.901 0.18-3.901 0.53-1.1 2.32-2.5 2.32-2.5zm-0.9 11.7s-0.35 2.7-0.71 3.5-1.07 1.5-1.52 1.4c-0.44-0.2-0.18-1.101 0.18-1.801s2.05-3.099 2.05-3.099z"/>
<path transform="translate(0,961.4)" d="m66.164 19.15 2.982 5.35-3.107 5.391h33.334 7.077l-7.077 6.808v0.01h40.407l-3.11-5.391 2.98-5.349h-33.21v-6.821h-40.276zm32.774 2.93c0.973 0 1.792 0.223 2.452 0.67l-0.46 0.5c-0.67-0.34-1.351-0.51-2.047-0.51-0.463 0-0.817 0.05-1.063 0.16-0.246 0.107-0.369 0.256-0.369 0.45 0 0.2 0.132 0.346 0.395 0.439 0.187 0.07 0.493 0.114 0.918 0.141 0.625 0.07 1.037 0.1 1.236 0.1 0.57 0.07 0.99 0.214 1.26 0.42 0.27 0.2 0.4 0.488 0.4 0.862 0 0.48-0.21 0.852-0.63 1.119-0.43 0.26-1.038 0.39-1.835 0.39-1.154 0-2.052-0.253-2.693-0.759l0.41-0.551c0.709 0.433 1.473 0.65 2.289 0.65 0.53 0 0.939-0.07 1.229-0.211 0.28-0.146 0.42-0.343 0.42-0.59 0-0.286-0.18-0.477-0.55-0.57-0.19-0.07-0.709-0.118-1.548-0.158-0.746-0.07-1.27-0.168-1.57-0.301-0.35-0.173-0.526-0.467-0.526-0.881 0-0.426 0.2-0.76 0.596-1 0.4-0.246 0.96-0.369 1.686-0.369zm-25.504 0.109h0.75v3.84h3.494v0.682h-4.244v-4.522zm5.127 0h4.562v0.68h-3.812v1.16h2.65v0.682h-2.65v1.318h3.988v0.682h-4.738v-4.522zm5.873 0h4.56v0.68h-3.81v1.16h2.648v0.682h-2.648v1.318h3.986v0.682h-4.736v-4.522zm5.871 0h2.863c0.787 0 1.408 0.211 1.867 0.631 0.463 0.42 0.695 0.98 0.695 1.68 0 0.647-0.244 1.183-0.732 1.609-0.454 0.4-1.017 0.602-1.687 0.602h-3.006v-4.522zm0.75 0.68v3.16h2.318c0.45 0 0.819-0.143 1.107-0.429 0.292-0.294 0.438-0.666 0.438-1.12 0-0.48-0.158-0.869-0.471-1.169-0.308-0.294-0.713-0.442-1.217-0.442h-2.175zm19.165 6.281h2.86c0.79 0 1.41 0.209 1.87 0.629 0.47 0.42 0.7 0.985 0.7 1.692 0 0.64-0.25 1.176-0.74 1.609-0.45 0.4-1.01 0.6-1.68 0.6h-3.01v-4.53zm8.4 0h0.94l2.39 4.53h-0.81l-0.53-1.01h-3.04l-0.53 1.01h-0.82l2.4-4.53zm3.55 0h5.08v0.68h-2.16v3.85h-0.75v-3.85h-2.17v-0.68zm7.69 0h0.94l2.4 4.53h-0.82l-0.53-1.01h-3.04l-0.53 1.01h-0.81l2.39-4.53zm-10.77 0.651-1.15 2.179h2.3l-1.15-2.179zm11.24 0-1.15 2.179h2.3l-1.15-2.179zm-19.36 0.03v3.17h2.32c0.45 0 0.82-0.143 1.11-0.43 0.29-0.293 0.43-0.667 0.43-1.121 0-0.486-0.16-0.876-0.47-1.17-0.31-0.3-0.71-0.449-1.21-0.449h-2.18z" fill-rule="evenodd"/>
<path d="m99.374 998.1 7.076-6.81h-7.076z" fill-opacity=".58824" fill-rule="evenodd"/>
</g>
<circle cx="71.594" cy="996.69" r="0" fill="#666"/>
</g>
</svg>
