<?xml version="1.0" encoding="UTF-8" standalone="no"?>
<!-- Created with Inkscape (http://www.inkscape.org/) -->

<svg xmlns:dc="http://purl.org/dc/elements/1.1/" xmlns:cc="http://creativecommons.org/ns#" xmlns:rdf="http://www.w3.org/1999/02/22-rdf-syntax-ns#" xmlns:svg="http://www.w3.org/2000/svg" xmlns="http://www.w3.org/2000/svg" xmlns:sodipodi="http://sodipodi.sourceforge.net/DTD/sodipodi-0.dtd" xmlns:inkscape="http://www.inkscape.org/namespaces/inkscape" width="250" height="91" viewBox="0 0 250 91" id="svg2" version="1.1" inkscape:version="0.91 r13725" sodipodi:docname="leedsdatamill.svg">
  <defs id="defs4" />
  <sodipodi:namedview id="base" pagecolor="#ffffff" bordercolor="#666666" borderopacity="1.0" inkscape:pageopacity="0.0" inkscape:pageshadow="2" inkscape:zoom="1.4" inkscape:cx="104.4" inkscape:cy="31.537" inkscape:document-units="px" inkscape:current-layer="layer1" showgrid="false" inkscape:window-width="1280" inkscape:window-height="752" inkscape:window-x="0" inkscape:window-y="0" inkscape:window-maximized="1" units="px" />
  <metadata id="metadata7">
    <rdf:RDF>
      <cc:Work rdf:about="">
        <dc:format>image/svg+xml</dc:format>
        <dc:type rdf:resource="http://purl.org/dc/dcmitype/StillImage" />
        <dc:title></dc:title>
      </cc:Work>
    </rdf:RDF>
  </metadata>
  <g inkscape:label="Layer 1" inkscape:groupmode="layer" id="layer1" transform="translate(0,-961.4)">
    <g transform="matrix(1,0,0,0.99978,0,-199.73)" id="layer1-1" inkscape:label="Layer 1">
      <g transform="translate(177.14,80)" id="g4147">
        <path inkscape:connector-curvature="0" id="path4149" d="m -80.619,1161.7 c -0.198,-0.2 -0.198,-0.3 -0.198,-25.6 0,-19.9 0.03,-25.4 0.122,-25.7 0.116,-0.4 0.386,-0.6 5.342,-4.2 2.872,-2.1 5.38,-3.9 5.581,-4.1 0.604,-0.4 1.487,-0.3 1.69,0.3 0.06,0.1 0.139,1.6 0.186,3.2 0.05,1.6 0.11,3 0.142,3 0.03,0 2.146,-1.5 4.698,-3.3 l 4.646,-3.4 0.531,0 c 0.912,0.1 0.903,0.1 1.106,3.8 l 0.125,2.2 0.07,-1 c 0.08,-1.2 0.169,-1.5 0.523,-1.6 0.154,0 1.983,-0.1 4.556,-0.1 l 4.303,0 0.264,0.2 c 0.244,0.3 0.273,0.4 0.346,1.2 0.04,0.6 0.09,1.1 0.09,1.1 0.03,0.1 0.665,-8.9 0.674,-9.4 0,-0.3 0.08,-0.4 0.29,-0.6 l 0.288,-0.3 4.314,0 c 2.579,0 4.419,0 4.569,0.1 0.136,0 0.301,0.2 0.356,0.3 0.06,0.1 0.205,2.1 0.325,4.4 0.135,2.5 0.245,4 0.285,3.7 0.05,-0.2 0.195,-3.1 0.36,-6.3 0.165,-3.3 0.325,-6.3 0.355,-6.7 l 0.06,-0.8 0.38,-0.1 c 0.465,-0.1 8.721,-0.2 8.991,0 0.09,0 0.245,0.1 0.34,0.1 0.135,0.1 0.17,0.2 0.175,0.6 0,0.3 0.22,10.3 0.495,22.2 0.275,12 0.535,25.7 0.585,30.7 0.05,5.1 0.115,10.7 0.15,12.5 0.07,3.3 0.07,3.3 -0.14,3.6 l -0.215,0.2 -28.281,0 c -28.161,0 -28.295,0 -28.486,-0.2 z m 7.427,-9.3 -0.05,-3.6 0.255,0 c 0.241,0.1 0.34,0.3 1.431,2.9 l 1.167,2.9 0.639,0 0.636,0 0.506,-1.3 c 0.273,-0.6 0.804,-1.9 1.172,-2.8 0.61,-1.5 0.691,-1.7 0.912,-1.7 l 0.241,0 -0.03,3.6 -0.03,3.6 0.706,0.1 0.709,0 0,-5.2 0,-5.2 -0.921,0 -0.923,0 -1.362,3.4 c -1.268,3.2 -1.382,3.4 -1.617,3.4 -0.244,0.1 -0.291,0 -1.617,-3.3 l -1.368,-3.4 -0.926,0 -0.924,0 -0.03,5 c -0.03,2.8 0,5.1 0.03,5.2 0.03,0 0.279,0.1 0.752,0.1 l 0.703,0 -0.05,-3.7 z m 13.164,-1.5 0,-5.2 -0.688,0 -0.685,0 0,5.2 0,5.2 0.685,0 0.688,0 0,-5.2 z m 9.509,4.6 0,-0.7 -2.302,0 -2.306,0 0,-4.5 0,-4.6 -0.685,0 -0.688,0 0,5.2 0,5.2 2.994,0 2.987,0 0,-0.6 z m 8.827,0 0,-0.7 -2.306,0 -2.302,0 0,-4.5 0,-4.6 -0.711,0 -0.712,0.1 -0.03,5 c -0.03,2.8 0,5.1 0.03,5.2 0.04,0 0.735,0.1 3.04,0.1 l 2.994,0 0,-0.6 z m -28.487,-13.8 c 1.908,-0.5 2.898,-1.9 3.055,-4.5 0.133,-2.2 -0.549,-4.1 -1.791,-4.9 -0.904,-0.6 -1.336,-0.7 -3.618,-0.8 l -2.056,0 -0.03,5.2 c -0.03,4 0,5.1 0.1,5.2 0.206,0.1 3.673,0 4.337,-0.1 z m -2.99,-5 0,-4 1.301,0.1 c 1.411,0 1.864,0.2 2.36,0.6 0.657,0.7 0.892,1.5 0.877,3.4 -0.03,1.8 -0.215,2.5 -0.842,3.2 -0.543,0.5 -0.958,0.6 -2.456,0.6 l -1.24,0 0,-3.9 z m 9.671,5.2 c 0.06,-0.1 0.186,-0.3 0.276,-0.7 0.09,-0.3 0.256,-0.8 0.366,-1.2 l 0.197,-0.7 1.804,0 1.8,0 0.241,0.8 c 0.133,0.5 0.299,1 0.369,1.3 0.07,0.2 0.168,0.4 0.223,0.5 0.169,0.1 1.333,0.1 1.333,0 0,-0.1 -0.729,-2.5 -1.62,-5.3 -0.889,-2.8 -1.618,-5.1 -1.618,-5.2 0,0 -0.319,0 -0.714,0 l -0.714,0 -1.638,5.2 c -0.903,2.9 -1.643,5.2 -1.64,5.3 0,0.1 1.19,0.1 1.335,0 z m 1.31,-4.1 c 0,-0.1 0.203,-0.9 0.45,-1.8 0.685,-2.3 0.613,-2.2 0.897,-2.1 0.238,0 0.282,0.1 0.825,1.9 0.316,1.1 0.575,2.1 0.575,2.2 0,0.2 -0.131,0.2 -1.374,0.2 l -1.373,0 0,-0.4 z m 10.473,4 c 0.09,0 0.119,-1.2 0.119,-4.5 l 0,-4.5 1.379,0 1.376,0 -0.03,-0.7 -0.03,-0.6 -3.458,0 -3.455,0 0,0.6 0,0.7 1.374,0 1.373,0 0,4.5 c 0,3.6 0.03,4.6 0.119,4.6 0.247,0.1 1.118,0.1 1.231,-0.1 z m 5.482,0 c 0.05,0 0.235,-0.6 0.421,-1.3 l 0.345,-1.2 1.818,0 1.821,0 0.328,1.2 c 0.45,1.5 0.386,1.5 1.132,1.5 0.342,0 0.645,-0.1 0.671,-0.1 0.03,-0.1 -0.694,-2.4 -1.594,-5.3 l -1.638,-5.2 -0.699,0 -0.701,0 -0.444,1.4 c -2.168,6.8 -2.863,9.1 -2.819,9.1 0.107,0.1 1.281,0.1 1.359,-0.1 z m 1.202,-3.8 c 0,-0.1 0.252,-1.1 0.563,-2.2 0.549,-1.9 0.575,-2 0.822,-2 0.247,0 0.273,0.1 0.81,1.9 0.308,1.1 0.558,2 0.558,2.2 l 0,0.3 -1.374,0 c -1.243,0 -1.373,-0.1 -1.379,-0.2 z m 12.703,-10.3 c 1.62,-0.3 2.615,-1.5 2.62,-3.1 0,-1.1 -0.45,-1.8 -1.395,-2.3 -0.42,-0.2 -0.875,-0.3 -2.79,-0.7 -1.125,-0.2 -1.28,-0.4 -1.28,-1.4 0,-0.8 0.05,-0.9 0.29,-1.2 0.16,-0.1 0.445,-0.3 0.635,-0.4 0.585,-0.1 2.615,-0.1 3.365,0.1 l 0.66,0.2 0,-0.6 0,-0.6 -0.71,-0.3 c -1.035,-0.3 -2.91,-0.3 -3.73,0 -0.815,0.3 -1.345,0.8 -1.661,1.4 -0.775,1.5 -0.19,3.2 1.351,3.7 0.31,0.2 1.1,0.3 1.75,0.4 1.9,0.4 2.06,0.5 2.01,1.9 -0.05,0.9 -0.05,0.9 -0.39,1.2 -0.24,0.2 -0.525,0.4 -0.865,0.5 -1.015,0.2 -2.635,0 -3.7,-0.3 l -0.521,-0.2 0,0.6 c 0,0.6 0,0.6 0.33,0.8 0.356,0.1 1.541,0.4 2.116,0.5 0.455,0 1.305,0 1.915,-0.2 z m -36.23,-0.6 0,-0.6 -2.306,0 -2.305,0 0,-4.6 0,-4.6 -0.712,0.1 -0.708,0 -0.03,5.1 c -0.03,2.7 0,5.1 0.03,5.1 0.04,0.1 0.737,0.1 3.043,0.1 l 2.994,0 0,-0.6 z m 9.021,0 0,-0.6 -2.404,0 -2.401,0 0,-1.8 0,-1.8 2.209,0 2.213,0 -0.03,-0.6 -0.03,-0.6 -2.181,0 -2.18,0 0,-1.5 0,-1.6 2.401,0 2.404,0 0,-0.6 0,-0.6 -3.142,0 -3.135,0 0,5.1 c 0,2.8 0.03,5.1 0.07,5.2 0.03,0 1.445,0 3.135,0 l 3.075,0 0,-0.6 z m 9.393,0 0.03,-0.6 -2.457,0 -2.456,0 0,-1.8 0,-1.8 2.207,0 2.207,0 0,-0.6 0,-0.6 -2.207,0 -2.207,0 0,-1.5 0,-1.6 2.427,0 2.428,0 0.03,-0.6 0.03,-0.7 -3.142,0 -3.144,0 0,5.2 0,5.2 3.112,0 3.116,0 0.03,-0.6 z m 7.787,0.4 c 1.545,-0.6 2.346,-1.7 2.686,-3.6 0.366,-2.1 -0.113,-4.3 -1.176,-5.4 -0.97,-1 -1.672,-1.1 -4.297,-1.1 l -1.94,0 0,5.1 c 0,2.8 0.03,5.1 0.07,5.2 0.04,0 0.978,0 2.081,0 1.731,0 2.091,-0.1 2.573,-0.2 z m -3.258,-5 0,-3.9 1.4,0 c 1.272,0.1 1.434,0.1 1.832,0.3 0.938,0.5 1.306,1.5 1.312,3.6 0.03,1.8 -0.244,2.7 -0.882,3.3 -0.494,0.5 -0.95,0.6 -2.361,0.7 l -1.301,0 0,-4 z" style="fill:#ffffff;fill-opacity:1" />
      </g>
    </g>
  </g>
</svg>
