<?xml version="1.0" encoding="UTF-8" standalone="no"?>
<!-- Created with Inkscape (http://www.inkscape.org/) -->

<svg xmlns:dc="http://purl.org/dc/elements/1.1/" xmlns:cc="http://creativecommons.org/ns#" xmlns:rdf="http://www.w3.org/1999/02/22-rdf-syntax-ns#" xmlns:svg="http://www.w3.org/2000/svg" xmlns="http://www.w3.org/2000/svg" xmlns:sodipodi="http://sodipodi.sourceforge.net/DTD/sodipodi-0.dtd" xmlns:inkscape="http://www.inkscape.org/namespaces/inkscape" width="250" height="91" viewBox="0 0 250 91" id="svg2" version="1.1" inkscape:version="0.91 r13725" sodipodi:docname="leedsgovjam.svg">
  <defs id="defs4" />
  <sodipodi:namedview id="base" pagecolor="#ffffff" bordercolor="#666666" borderopacity="1.0" inkscape:pageopacity="0.0" inkscape:pageshadow="2" inkscape:zoom="1.4" inkscape:cx="90.591" inkscape:cy="20.502" inkscape:document-units="px" inkscape:current-layer="layer1" showgrid="false" inkscape:window-width="1280" inkscape:window-height="752" inkscape:window-x="0" inkscape:window-y="0" inkscape:window-maximized="1" units="px" showguides="false" />
  <metadata id="metadata7">
    <rdf:RDF>
      <cc:Work rdf:about="">
        <dc:format>image/svg+xml</dc:format>
        <dc:type rdf:resource="http://purl.org/dc/dcmitype/StillImage" />
        <dc:title></dc:title>
      </cc:Work>
    </rdf:RDF>
  </metadata>
  <g inkscape:label="Layer 1" inkscape:groupmode="layer" id="layer1" transform="translate(0,-961.4)">
    <rect style="opacity:0.001;fill:#d02626;fill-opacity:1;stroke:none;stroke-width:2.5;stroke-linecap:round;stroke-linejoin:round;stroke-miterlimit:4;stroke-dasharray:none;stroke-dashoffset:0;stroke-opacity:1" id="rect4298" width="250" height="91" x="0" y="961.4" />
    <circle r="0" style="opacity:1;fill:#666666;fill-opacity:1;stroke:none;stroke-width:2.5;stroke-linecap:round;stroke-linejoin:round;stroke-miterlimit:4;stroke-dasharray:none;stroke-dashoffset:0;stroke-opacity:1" id="ellipse4185" cx="71.594" cy="996.69" />
    <g id="layer1-8" inkscape:label="Layer 1" transform="matrix(0.20972,0,0,0.20972,74.873,957.83)" style="fill:#ffffff;fill-opacity:1">
      <path inkscape:connector-curvature="0" id="path4299" d="m 158.21,67.104 c -16.67,0 -37.89,2.02 -42.43,4.54 -4.55,2.53 -10.61,16.16 -10.61,27.28 0,1.436 0.1,2.896 0.18,4.356 -6.786,-0.55 -13.856,-0.82 -19.866,-0.82 -16.67,0 -37.89,2.02 -42.43,4.54 -4.55,2.53 -10.61,16.16 -10.61,27.28 0,11.11 4.04,25.25 9.6,28.79 5.55,3.53 21.21,5.55 32.83,6.06 11.61,0.5 17.17,1.01 17.17,1.01 0,0 7.58,9.59 19.696,17.17 12.12,7.58 38.89,15.66 38.89,15.66 0,0 -16.16,-14.15 -21.72,-20.21 -5.55,-6.06 -14.14,-16.16 -14.14,-16.16 0,0 11.11,0.51 14.14,-2.52 3.03,-3.03 9.09,-15.16 9.6,-23.74 0.18,-3.05 -0.1,-7.31 -0.72,-11.74 6.11,0.61 11.95,1.26 17.38,2.14 12.23,22.78 29.99,46.19 49,65.15 -10.17,-21.58 -20.2,-45.05 -26.27,-66.67 0,0 4.99,0.6 10.43,0.87 1.63,7.6 4.61,14.49 8.26,16.81 11.42,4.83 21.48,6.2 33.84,6.56 2.74,10.98 6.32,22.54 13.13,42.43 2.46,-14.51 4.55,-27.88 6.06,-42.93 0,0 30.81,-2.02 33.84,-5.05 2.19,-2.19 5.94,-9.12 8.06,-16.03 6.29,1.43 13.52,2.39 13.52,2.39 -4.04,22.63 -11.04,45.6 -19.19,68.69 18,-20.98 30.7,-41.36 43.44,-68.18 3.69,0 7.08,0 10.32,-0.18 -0.14,2.15 -0.17,4.11 -0.1,5.73 0.51,8.58 6.57,20.71 9.6,23.74 3.03,3.03 14.14,2.52 14.14,2.52 0,0 -8.59,10.1 -14.14,16.16 -5.56,6.06 -21.72,20.21 -21.72,20.21 0,0 26.77,-8.08 38.89,-15.66 12.12,-7.58 19.7,-17.17 19.7,-17.17 0,0 5.56,-0.51 17.17,-1.01 11.62,-0.51 27.24,-2.53 32.84,-6.06 5.6,-3.54 9.6,-17.68 9.6,-28.79 0,-11.12 -6.1,-24.75 -10.6,-27.28 -4.6,-2.52 -25.78,-4.54 -42.45,-4.54 -4.11,0 -8.73,0.12 -13.4,0.38 0.1,-1.37 0.13,-2.69 0.13,-3.906 0,-11.12 -6.06,-24.75 -10.61,-27.28 -4.54,-2.52 -25.76,-4.54 -42.43,-4.54 -16.66,0 -41.41,2.02 -45.96,6.57 -2.41,2.41 -4.38,8.65 -5.64,15.27 -9.88,-1.81 -23.91,-2.65 -34.62,-2.65 -10.04,0 -21.66,0.74 -30.37,1.87 -1.26,-6.32 -3.18,-12.18 -5.49,-14.49 -4.55,-4.55 -29.3,-6.57 -45.96,-6.57 z m 65.97,148.366 0,0 c -2.77,0 -7.15,1.13 -7.15,1.13 l 2.5,7.5 c 0,0 -5.71,4.29 -6.07,18.57 -0.36,14.29 6.07,16.79 6.07,16.79 l -4.28,6.79 c 0,0 -7.86,1.78 -11.07,7.85 -3.22,6.07 -2.15,16.43 -2.15,16.43 l 4.29,30 2.14,0 c 0,0 3.93,18.57 8.57,29.29 4.65,10.71 11.07,22.14 11.07,22.14 0,0 -6.07,6.43 -7.14,8.21 -1.07,1.79 -1.43,4.29 -1.43,4.29 0,0 -7.5,0.71 -9.64,2.5 -2.14,1.79 -0.71,2.5 -0.71,2.5 0,0 -4.65,6.07 -3.93,8.57 0.71,2.5 3.93,2.86 3.93,2.86 0,0 -1.08,-1.79 -1.43,-3.22 -0.36,-1.42 1.43,-2.5 2.5,-3.21 1.07,-0.71 6.07,-0.71 6.07,-0.71 l 18.93,-0.36 2.14,3.57 0.98,-1.65 0.99,1.65 2.14,-3.57 18.93,0.36 c 0,0 5,0 6.07,0.71 1.07,0.71 2.86,1.79 2.5,3.21 -0.35,1.43 -1.43,3.22 -1.43,3.22 0,0 3.22,-0.36 3.93,-2.86 0.72,-2.5 -3.93,-8.57 -3.93,-8.57 0,0 1.43,-0.71 -0.71,-2.5 -2.14,-1.79 -9.64,-2.5 -9.64,-2.5 0,0 -0.36,-2.5 -1.43,-4.29 -1.07,-1.78 -7.14,-8.21 -7.14,-8.21 0,0 6.42,-11.43 11.07,-22.14 4.64,-10.72 8.57,-29.29 8.57,-29.29 l 2.14,0 4.29,-30 c 0,0 1.07,-10.36 -2.15,-16.43 -3.21,-6.07 -11.07,-7.85 -11.07,-7.85 l -4.28,-6.79 c 0,0 6.43,-2.5 6.07,-16.79 -0.36,-14.28 -6.07,-18.57 -6.07,-18.57 l 2.5,-7.5 c 0,0 -5.72,-1.43 -8.22,-1.07 -2.5,0.36 -7.5,3.22 -7.5,3.22 0,0 -2.64,-0.66 -5.38,-0.71 l -0.16,0 -0.1,0 -0.1,0 -0.16,0 c -2.74,0.1 -5.38,0.71 -5.38,0.71 0,0 -5,-2.86 -7.5,-3.22 -0.31,-0.1 -0.68,-0.1 -1.07,-0.1 z m 86,0 0,0 c -2.77,0 -7.15,1.13 -7.15,1.13 l 2.5,7.5 c 0,0 -5.71,4.29 -6.07,18.57 -0.36,14.29 6.07,16.79 6.07,16.79 l -4.28,6.79 c 0,0 -7.86,1.78 -11.07,7.85 -3.22,6.07 -2.15,16.43 -2.15,16.43 l 4.29,30 2.14,0 c 0,0 3.93,18.57 8.57,29.29 4.65,10.71 11.07,22.14 11.07,22.14 0,0 -6.07,6.43 -7.14,8.21 -1.07,1.79 -1.43,4.29 -1.43,4.29 0,0 -7.5,0.71 -9.64,2.5 -2.14,1.79 -0.71,2.5 -0.71,2.5 0,0 -4.65,6.07 -3.93,8.57 0.71,2.5 3.93,2.86 3.93,2.86 0,0 -1.08,-1.79 -1.43,-3.22 -0.36,-1.42 1.43,-2.5 2.5,-3.21 1.07,-0.71 6.07,-0.71 6.07,-0.71 l 18.93,-0.36 2.14,3.57 0.98,-1.65 0.99,1.65 2.14,-3.57 18.93,0.36 c 0,0 5,0 6.07,0.71 1.07,0.71 2.86,1.79 2.5,3.21 -0.35,1.43 -1.43,3.22 -1.43,3.22 0,0 3.22,-0.36 3.93,-2.86 0.72,-2.5 -3.93,-8.57 -3.93,-8.57 0,0 1.43,-0.71 -0.71,-2.5 -2.14,-1.79 -9.64,-2.5 -9.64,-2.5 0,0 -0.36,-2.5 -1.43,-4.29 -1.07,-1.78 -7.14,-8.21 -7.14,-8.21 0,0 6.42,-11.43 11.07,-22.14 4.64,-10.72 8.57,-29.29 8.57,-29.29 l 2.14,0 4.29,-30 c 0,0 1.07,-10.36 -2.15,-16.43 -3.21,-6.07 -11.07,-7.85 -11.07,-7.85 l -4.28,-6.79 c 0,0 6.43,-2.5 6.07,-16.79 -0.36,-14.28 -6.07,-18.57 -6.07,-18.57 l 2.5,-7.5 c 0,0 -5.72,-1.43 -8.22,-1.07 -2.5,0.36 -7.5,3.22 -7.5,3.22 0,0 -2.64,-0.66 -5.38,-0.71 l -0.16,0 -0.1,0 -0.1,0 -0.16,0 c -2.74,0.1 -5.38,0.71 -5.38,0.71 0,0 -5,-2.86 -7.5,-3.22 -0.31,-0.1 -0.68,-0.1 -1.07,-0.1 z m -171.97,0 c -2.77,0 -7.15,1.13 -7.15,1.13 l 2.5,7.5 c 0,0 -5.71,4.29 -6.07,18.57 -0.36,14.29 6.07,16.79 6.07,16.79 l -4.28,6.79 c 0,0 -7.86,1.78 -11.07,7.85 -3.22,6.07 -2.15,16.43 -2.15,16.43 l 4.29,30 2.14,0 c 0,0 3.93,18.57 8.57,29.29 4.65,10.71 11.07,22.14 11.07,22.14 0,0 -6.07,6.43 -7.14,8.21 -1.07,1.79 -1.43,4.29 -1.43,4.29 0,0 -7.5,0.71 -9.64,2.5 -2.14,1.79 -0.71,2.5 -0.71,2.5 0,0 -4.65,6.07 -3.93,8.57 0.71,2.5 3.93,2.86 3.93,2.86 0,0 -1.08,-1.79 -1.43,-3.22 -0.36,-1.42 1.43,-2.5 2.5,-3.21 1.07,-0.71 6.07,-0.71 6.07,-0.71 l 18.93,-0.36 2.14,3.57 0.98,-1.65 0.99,1.65 2.14,-3.57 18.93,0.36 c 0,0 5,0 6.07,0.71 1.07,0.71 2.86,1.79 2.5,3.21 -0.35,1.43 -1.43,3.22 -1.43,3.22 0,0 3.22,-0.36 3.93,-2.86 0.72,-2.5 -3.93,-8.57 -3.93,-8.57 0,0 1.43,-0.71 -0.71,-2.5 -2.14,-1.79 -9.64,-2.5 -9.64,-2.5 0,0 -0.36,-2.5 -1.43,-4.29 -1.07,-1.78 -7.14,-8.21 -7.14,-8.21 0,0 6.42,-11.43 11.07,-22.14 4.64,-10.72 8.57,-29.29 8.57,-29.29 l 2.14,0 4.29,-30 c 0,0 1.07,-10.36 -2.15,-16.43 -3.21,-6.07 -11.07,-7.85 -11.07,-7.85 l -4.28,-6.79 c 0,0 6.43,-2.5 6.07,-16.79 -0.36,-14.28 -6.07,-18.57 -6.07,-18.57 l 2.5,-7.5 c 0,0 -5.72,-1.43 -8.22,-1.07 -2.5,0.36 -7.5,3.22 -7.5,3.22 0,0 -2.64,-0.66 -5.38,-0.71 -0.1,0 -0.1,0 -0.16,0 l -0.1,0 -0.1,0 c -0.1,0 -0.1,0 -0.16,0 -2.74,0.1 -5.38,0.71 -5.38,0.71 0,0 -5,-2.86 -7.5,-3.22 -0.31,-0.1 -0.68,-0.1 -1.07,-0.1 z" style="fill:#ffffff;fill-opacity:1;fill-rule:evenodd;stroke:none;stroke-width:1px;stroke-linecap:butt;stroke-linejoin:miter;stroke-opacity:1" />
    </g>
  </g>
</svg>
