<?xml version="1.0" encoding="UTF-8" standalone="no"?>
<!-- Created with Inkscape (http://www.inkscape.org/) -->

<svg xmlns:dc="http://purl.org/dc/elements/1.1/" xmlns:cc="http://creativecommons.org/ns#" xmlns:rdf="http://www.w3.org/1999/02/22-rdf-syntax-ns#" xmlns:svg="http://www.w3.org/2000/svg" xmlns="http://www.w3.org/2000/svg" xmlns:sodipodi="http://sodipodi.sourceforge.net/DTD/sodipodi-0.dtd" xmlns:inkscape="http://www.inkscape.org/namespaces/inkscape" width="250" height="91" viewBox="0 0 250 91" id="svg2" version="1.1" inkscape:version="0.91 r13725" sodipodi:docname="leedsdigitalfestival.svg">
  <defs id="defs4" />
  <sodipodi:namedview id="base" pagecolor="#ffffff" bordercolor="#666666" borderopacity="1.0" inkscape:pageopacity="0.0" inkscape:pageshadow="2" inkscape:zoom="1.4" inkscape:cx="185.56" inkscape:cy="160.83" inkscape:document-units="px" inkscape:current-layer="layer1" showgrid="false" inkscape:window-width="1280" inkscape:window-height="752" inkscape:window-x="0" inkscape:window-y="0" inkscape:window-maximized="1" units="px" showguides="false" />
  <metadata id="metadata7">
    <rdf:RDF>
      <cc:Work rdf:about="">
        <dc:format>image/svg+xml</dc:format>
        <dc:type rdf:resource="http://purl.org/dc/dcmitype/StillImage" />
        <dc:title></dc:title>
      </cc:Work>
    </rdf:RDF>
  </metadata>
  <g inkscape:label="Layer 1" inkscape:groupmode="layer" id="layer1" transform="translate(0,-961.4)">
    <rect style="opacity:0.001;fill:#d02626;fill-opacity:1;stroke:none;stroke-width:2.5;stroke-linecap:round;stroke-linejoin:round;stroke-miterlimit:4;stroke-dasharray:none;stroke-dashoffset:0;stroke-opacity:1" id="rect4298" width="250" height="91" x="0" y="961.4" />
    <path style="opacity:1;fill:#ffffff;fill-opacity:1;stroke:none;stroke-width:15;stroke-linecap:round;stroke-linejoin:round;stroke-miterlimit:4;stroke-dasharray:none;stroke-dashoffset:0;stroke-opacity:1" d="m 89.998,971.9 0,70 70.002,0 0,-70 -70.002,0 z m 19.192,15.9 a 3.6499,3.6499 0 0 1 3.65,3.7 3.6499,3.6499 0 0 1 -1.78,3.1 l 0,28.9 31.63,0 0,-4.9 -24.05,0 a 1.9655,1.9655 0 0 1 -1.97,-1.9 l 0,-9.1 a 1.9655,1.9655 0 0 1 0,-0.6 l 0,-16 a 1.9655,1.9655 0 0 1 1.97,-1.9 l 8.79,0 -0.22,0 c 0,0 0.53,-0.1 1.42,-0.1 l 0,0 c 2.67,-0.1 8.57,0.4 13.01,4.9 5.97,6 4.97,15.2 4.97,15.2 a 1.9655,1.9655 0 1 1 -3.91,-0.3 c 0,0 0.46,-7.8 -3.85,-12.2 -4.36,-4.3 -11.19,-3.6 -11.19,-3.6 a 1.9655,1.9655 0 0 1 -0.23,0 l -6.83,0 0,3.9 11.33,0 a 1.9655,1.9655 0 1 1 0,3.9 l -11.33,0 0,4.5 5.52,0 a 2,2 0 0 1 0,4 l -5.52,0 0,5.4 24.05,0 a 1.9655,1.9655 0 0 1 1.97,2 l 0,8.8 a 1.9655,1.9655 0 0 1 -1.97,1.9 l -35.56,0 a 1.9655,1.9655 0 0 1 -1.96,-1.9 l 0,-31 a 3.6499,3.6499 0 0 1 -1.59,-3 3.6499,3.6499 0 0 1 3.65,-3.7 z" id="rect4342" inkscape:connector-curvature="0" />
    <circle r="0" style="opacity:1;fill:#666666;fill-opacity:1;stroke:none;stroke-width:2.5;stroke-linecap:round;stroke-linejoin:round;stroke-miterlimit:4;stroke-dasharray:none;stroke-dashoffset:0;stroke-opacity:1" id="ellipse4185" cx="71.594" cy="996.69" />
  </g>
</svg>
