<?xml version="1.0" encoding="UTF-8"?>
<svg version="1.1" viewBox="0 0 250 91" xmlns="http://www.w3.org/2000/svg" xmlns:cc="http://creativecommons.org/ns#" xmlns:dc="http://purl.org/dc/elements/1.1/" xmlns:rdf="http://www.w3.org/1999/02/22-rdf-syntax-ns#">
<metadata>
<rdf:RDF>
<cc:Work rdf:about="">
<dc:format>image/svg+xml</dc:format>
<dc:type rdf:resource="http://purl.org/dc/dcmitype/StillImage"/>
<dc:title/>
</cc:Work>
</rdf:RDF>
</metadata>
<g transform="translate(0,-961.4)">
<g transform="translate(0,-200)" fill="#fff">
<g transform="translate(177.14,80)" fill="#fff">
<g transform="matrix(.65929 0 0 .66026 180.1 522)" fill="#fff" stroke="#3c3c3c" stroke-width="2.2735">
<path d="m-392.24 863.18-0.1 94.65 0.17 0.16 11.09 11.18 68.93-0.1v-22.13l-11.76-11.32h-31.47v-61.27l-11.26-11.22h-25.64zm4.4 1.13h20.26l-1.5 5.72-18.76-5.72zm-2.71 0.36 21.17 6.45-6.27 23.75-14.9-30.2zm24.57 0.71 8.1 8.06-7.22-2.2-0.88-5.86zm-24.8 1.37 14.69 29.77-8.31 31.44-6.38-61.21zm24 0.9 0.49 3.23-0.88-0.27 0.39-2.96zm-0.54 4.1 1.22 0.37 2.76 18.33-6.76 15.68-1.41-2.86 4.19-31.52zm-1.24 0.69-3.84 29-2.49-5.03 6.33-23.97zm3.65 0 8.22 2.51-5.81 13.5-2.41-16.01zm-26.18 2.2 5.88 56.35-5.92 22.38 0.1-78.73zm34.63 4.21v49.71l-4.77-31.68 4.77-18.03zm-1.95 2.93-3.24 12.29-0.53-3.51 3.77-8.78zm-4.61 10.74 0.64 4.29-4.3 16.22-2.76-5.61 6.42-14.9zm-12.31 5.51 2.66 5.39-1.67 12.52-9.1 21.15-0.63-6 8.74-33.06zm13.37 1.59 4.98 33.05-8.93-18.1 3.95-14.95zm-9.81 5.62 1.09 2.21-2 4.65 0.91-6.86zm1.74 3.54 2.92 5.91-8.66 32.7-1.74 1.04 4.28-32.21 3.2-7.44zm3.68 7.45 9.73 19.73-17.76 10.61 8.03-30.34zm-8.53 3.84-3.87 29.11-3.22 1.92-1.24-11.7 8.33-19.33zm-10 14.1 0.52 5.05-4.81 11.2 4.29-16.24zm33.58 2.59h23.61l-10.49 3.33-13.12-3.33zm-4.47 0.19 8.19 6.12-17.06 5.41 8.87-11.53zm31.38 0.1 2.55 7.23-10.54-2.67 7.99-4.56zm-28.84 0.42 13.01 3.31-6.03 1.91-6.98-5.22zm-4.89 0.73-8.4 10.92-9.3 2.95 1.03-3.89 16.67-9.98zm35.36 0.1 8.13 7.81-5.89-1.48-2.24-6.32zm-6.31 0.12-4.89 2.78-2.16-0.54 7.05-2.24zm-9.09 2.88 2.79 0.71-6.69 3.81-3.09-2.31 6.99-2.21zm-45.96 0.25 1.08 10.24-7.38 4.41 6.3-14.65zm50.32 0.86 12.42 3.14 0.74 2.11-16.12 2.13-4.31-3.22 7.27-4.16zm-12.67 1.52 3.34 2.51-9.55 5.44-16.18 2.13 3.02-3.93 19.37-6.15zm26.4 1.97 4.41 1.11-3.83 0.51-0.58-1.62zm-22.07 1.27 3.78 2.83-11.35 1.49 7.57-4.32zm28.92 0.76v17.32l-5.53-15.59 5.52-1.73zm-7.03 0.83 0.1 0.17-12.47 3.92-2.81-2.09 15.21-2zm-55.94 0.25-0.91 3.47-0.98 0.3 0.39-2.86 1.5-0.91zm56.38 0.99 6 16.93-17.73-13.25 11.73-3.68zm-59.13 0.65-0.33 2.52-2.42 0.76-0.16-1.54 2.91-1.74zm11.22 0-2.72 3.53-6.17 0.82 0.45-1.67 8.44-2.68zm30.66 0.29 3.08 2.3-25.94 8.14-5.78-0.8 13.39-7.64 15.25-2zm-45.86 2.06 0.13 1.25-4.73 1.5 4.6-2.75zm27.64 0.33-12.26 7-5.6-0.78 3.31-4.3 14.55-1.92zm-22.17 0.41-0.37 1.42-0.59 0.1 0.16-1.25 0.8-0.25zm44.59 0.33 18.17 13.58-42.62-5.9 24.45-7.67zm-46.58 0.3-0.13 1.02-1.94 0.25-0.1-0.6 2.14-0.67zm-3.23 1.02 0.1 0.4-2.19 0.29 2.15-0.69zm11.25 0.1-3.01 3.91-3.22-0.44 0.73-2.74 5.5-0.73zm-6.71 0.89-0.64 2.42h-0.1l0.31-2.35 0.43-0.1zm-1.59 0.21-0.28 2.05-1.22-0.17-0.17-1.68 1.67-0.2zm-2.79 0.37 0.14 1.35-5.08-0.7 4.94-0.65zm-7.61 1.42 7.87 1.08 0.8 7.66-8.67-8.74zm9.02 1.24 0.95 0.15-0.52 3.94-0.43-4.08zm3.17 0.44 2.71 0.38-4.29 5.58 1.58-5.96zm3.99 0.56 4.78 0.67-9.43 5.38 4.65-6.05zm6.63 0.92 4.87 0.68-13.49 4.23 8.62-4.91zm7.48 1.04 39.13 5.43-56.53 0.1 17.4-5.47z" color="#000000" color-rendering="auto" fill="#fff" fill-rule="evenodd" image-rendering="auto" shape-rendering="auto" solid-color="#000000" stroke="none" style="block-progression:tb;isolation:auto;mix-blend-mode:normal;text-decoration-color:#000000;text-decoration-line:none;text-decoration-style:solid;text-indent:0;text-transform:none;white-space:normal"/>
</g>
</g>
</g>
</g>
</svg>
