<?xml version="1.0" encoding="UTF-8"?>
<svg version="1.1" viewBox="0 0 250 91" xmlns="http://www.w3.org/2000/svg" xmlns:cc="http://creativecommons.org/ns#" xmlns:dc="http://purl.org/dc/elements/1.1/" xmlns:rdf="http://www.w3.org/1999/02/22-rdf-syntax-ns#">
<metadata>
<rdf:RDF>
<cc:Work rdf:about="">
<dc:format>image/svg+xml</dc:format>
<dc:type rdf:resource="http://purl.org/dc/dcmitype/StillImage"/>
<dc:title/>
</cc:Work>
</rdf:RDF>
</metadata>
<g transform="translate(0,-961.4)">
<path d="m89.998 971.9v70h70.002v-70h-70.002zm19.192 15.9a3.6499 3.6499 0 0 1 3.65 3.7 3.6499 3.6499 0 0 1-1.78 3.1v28.9h31.63v-4.9h-24.05a1.9655 1.9655 0 0 1-1.97-1.9v-9.1a1.9655 1.9655 0 0 1 0-0.6v-16a1.9655 1.9655 0 0 1 1.97-1.9h8.79-0.22s0.53-0.1 1.42-0.1c2.67-0.1 8.57 0.4 13.01 4.9 5.97 6 4.97 15.2 4.97 15.2a1.9655 1.9655 0 1 1-3.91-0.3s0.46-7.8-3.85-12.2c-4.36-4.3-11.19-3.6-11.19-3.6a1.9655 1.9655 0 0 1-0.23 0h-6.83v3.9h11.33a1.9655 1.9655 0 1 1 0 3.9h-11.33v4.5h5.52a2 2 0 0 1 0 4h-5.52v5.4h24.05a1.9655 1.9655 0 0 1 1.97 2v8.8a1.9655 1.9655 0 0 1-1.97 1.9h-35.56a1.9655 1.9655 0 0 1-1.96-1.9v-31a3.6499 3.6499 0 0 1-1.59-3 3.6499 3.6499 0 0 1 3.65-3.7z" fill="#fff"/>
<circle cx="71.594" cy="996.69" r="0" fill="#666"/>
</g>
</svg>
