<?xml version="1.0" encoding="UTF-8"?>
<svg version="1.1" viewBox="0 0 250 91" xmlns="http://www.w3.org/2000/svg" xmlns:cc="http://creativecommons.org/ns#" xmlns:dc="http://purl.org/dc/elements/1.1/" xmlns:rdf="http://www.w3.org/1999/02/22-rdf-syntax-ns#">
<metadata>
<rdf:RDF>
<cc:Work rdf:about="">
<dc:format>image/svg+xml</dc:format>
<dc:type rdf:resource="http://purl.org/dc/dcmitype/StillImage"/>
<dc:title/>
</cc:Work>
</rdf:RDF>
</metadata>
<g transform="translate(0,-961.4)">
<circle cx="71.594" cy="996.69" r="0" fill="#666"/>
<circle cx="38.023" cy="1055.8" r="0" fill="#414141"/>
<path d="m79.906 1041.4c-0.23-0.3-0.448-1.4-0.508-2.7-0.122-2.5 0.415-4.4 1.312-4.5 0.837-0.1 1.36 1 1.545 3.5 0.242 3.2-1.061 5.2-2.349 3.7zm13.679 0.1c-0.627-0.7-0.908-2.3-0.714-4.2 0.497-4.8 2.914-4 2.905 0.9 0 3-0.989 4.4-2.191 3.3zm-17.208-1.1c-0.505-0.9-0.386-3.9 0.203-5.1 0.598-1.2 1.497-1.5 2.071-0.7 0.58 0.8 0.499 3.9-0.128 5.2-0.616 1.2-1.662 1.5-2.146 0.6zm6.697-0.4c-0.508-1.3-0.589-4.5-0.135-5.3 0.431-0.8 1.378-0.7 1.96 0.2 0.652 0.9 0.873 4.2 0.353 5.2-0.215 0.4-0.696 0.8-1.067 0.8-0.525 0.1-0.765-0.1-1.111-0.9zm6.846 0.2c-0.382-0.6-0.46-1.2-0.34-2.6 0.167-2.1 0.818-3.5 1.664-3.5 0.953 0 1.248 0.6 1.248 2.7 0 3.6-1.326 5.3-2.572 3.4zm6.848 0c-0.621-0.9-0.875-4.1-0.424-5.2 0.383-1 1.21-1.1 1.999-0.3 0.682 0.8 0.986 4.6 0.445 5.6-0.466 0.9-1.395 0.8-2.02-0.1zm21.872-5.9c-4.44-0.9-7.36-2.4-8.5-4.4-0.62-1.1-0.62-1.3-0.54-21.1l0.1-20.03 1.41-2.86c1.45-2.92 1.65-3.63 1.13-3.95-0.2-0.13-0.2-0.38 0-0.75 0.48-0.91 0.35-1.15-0.68-1.25-0.96-0.1-0.97-0.11-1.06-1.8-0.1-1.39 0-1.82 0.53-2.31 0.6-0.61 0.89-0.62 15.34-0.62 11.54 0 14.85 0.1 15.26 0.39 0.59 0.42 0.96 2.46 0.67 3.63-0.15 0.61-0.37 0.77-1.12 0.77-0.88 0-0.92 0-0.74 0.93 0.1 0.52 0.1 1.11-0.12 1.31-0.22 0.27 0.15 1.25 1.27 3.45l1.57 3.09 0.1 19.4c0.1 10.7 0 19.9-0.1 20.4-0.39 2.2-3.01 4.1-7.27 5.3-1.91 0.5-3.35 0.6-8.71 0.7-4.55 0-7.04 0-8.52-0.3zm7.56-4.1c0.88-0.8 1.39-1.9 1.82-3.9 0.44-2.1 0.94-2.6 1.99-2.1 0.89 0.4 0.97 1.6 0.29 3.8-0.24 0.8-0.45 1.6-0.45 1.7 0 0.2 1.37 0.8 1.78 0.8 0.51 0 1.33-3.1 1.34-5.1 0-2-0.1-2.2-0.96-3-0.8-0.7-1.24-0.8-2.45-0.8-2.18 0-2.9 0.7-3.73 3.8-0.71 2.7-1.12 3.2-2.37 2.9-1.58-0.4-1.66-2.9-0.15-5 0.72-1 0.72-1-0.33-1.4-0.74-0.3-1-0.3-1.4 0-1.36 1.1-2.01 4.7-1.25 6.8 0.46 1.4 1.83 2.1 3.71 2.1 1.11 0 1.69-0.1 2.16-0.6zm5.51-11.3 0.98-0.9 0.1-3.8 0.1-3.7h-6.45-6.45v0.9c0 0.7 0.16 1 0.57 1.1 0.56 0.2 0.56 0.2 0 1.4-0.83 1.8-0.76 3.8 0.18 4.9 0.96 1.2 1.25 1.2 6.04 1.2l3.95-0.1 0.98-1zm-9-1.8c-0.54-0.4-0.3-2.3 0.41-3.4 0.51-0.8 0.58-0.8 3.92-0.8h3.41v1.9c0 1-0.16 2-0.37 2.2-0.42 0.4-6.72 0.5-7.37 0.1zm-0.33-11.4v-3h1.79 1.79v2.1 2.1h1.05 1.04v-2.1-2.1h1.2 1.2v3 3h1.19 1.2v-4.4-4.3h-6.43-6.42v4.3 4.4h1.19 1.2v-3zm0-10.45v-2.98h1.79 1.79v2.09 2.09h1.05 1.04v-2.09-2.09h1.2 1.2v2.98 2.99h1.19 1.2v-4.18-4.18h-6.43-6.42v4.18 4.18h1.19 1.2v-2.99zm0-9.86v-2.98h5.23 5.23v-1.35-1.34h-6.43-6.42v4.33 4.33h1.19 1.2v-2.99zm35.37 48.91c-4.7-0.9-7.62-2.4-8.76-4.4-0.62-1.1-0.63-1.3-0.54-21.1l0.1-20.03 1.42-2.86c1.45-2.92 1.65-3.63 1.12-3.95-0.2-0.13-0.2-0.38 0-0.75 0.49-0.91 0.35-1.15-0.67-1.25-0.96-0.1-0.98-0.11-1.07-1.8-0.1-1.4 0-1.81 0.53-2.32 0.62-0.61 0.79-0.62 15.55-0.54 10.58 0.1 15.02 0.18 15.25 0.42 0.44 0.44 0.72 2.55 0.47 3.53-0.15 0.61-0.37 0.77-1.12 0.77-0.88 0-0.92 0-0.74 0.93 0.11 0.52 0.1 1.11-0.11 1.31-0.22 0.26 0.15 1.26 1.27 3.47l1.57 3.1 0.1 19.47c0.1 10.7 0 19.8-0.1 20.3-0.39 2.2-3.01 4.1-7.27 5.3-2.95 0.8-13.56 1-16.97 0.4zm3.75-17.5h2.32l0.36 1.2c0.2 0.6 0.52 1.2 0.72 1.2 0.8 0 1.71-0.4 1.71-0.8 0-0.1-0.83-2.7-1.86-5.6l-1.86-5.3h-1.36-1.35l-1.91 5.4c-1.06 2.9-1.9 5.4-1.87 5.6 0 0.1 0.5 0.4 1.02 0.5 0.97 0.4 0.97 0.4 1.36-0.9l0.39-1.3h2.33zm-1.39-2.5c0.1-0.2 0.37-1.1 0.65-1.9 0.28-0.9 0.61-1.6 0.72-1.6s0.46 0.7 0.76 1.6c0.31 0.8 0.62 1.7 0.7 1.9 0.1 0.3-0.29 0.4-1.41 0.4s-1.52-0.1-1.42-0.4zm-6.66 4.4c1.61-0.8 1.79-1.5 1.8-6.6v-4.6h-1.2-1.19v4.3c0 4.1-0.1 4.4-0.66 4.8-0.37 0.3-0.95 0.5-1.3 0.5-0.47 0-0.61 0.2-0.56 0.7 0.1 0.3 0.1 0.8 0.1 1 0.1 0.5 1.8 0.5 3.01-0.1zm16.74-2.9v-3.1l1.34 2c0.74 1.1 1.47 2.1 1.63 2.2 0.17 0.1 0.95-0.8 1.73-1.9l1.43-2.2 0.1 3 0.1 3.1h1.18 1.19v-5.7-5.6l-0.78-0.2c-0.43-0.1-0.85-0.2-0.93-0.1-0.1 0.1-0.98 1.5-2 3.1l-1.86 3-1.92-3.1c-1.9-3.1-2.41-3.5-3.29-2.8-0.35 0.4-0.41 1.4-0.33 5.9l0.1 5.4h1.17 1.17v-3zm-15.61-10.5c0.5-0.4 0.48-1.8 0-2.3-0.22-0.1-0.83-0.4-1.35-0.5-0.55-0.1-0.94-0.4-0.94-0.6 0-0.4 0.26-0.5 1.18-0.3 0.83 0.1 1.21 0.1 1.33-0.3 0.19-0.5 0-0.6-1.36-0.8-1.46-0.3-2.34 0.2-2.34 1.3 0 1 0.45 1.4 1.75 1.7 0.67 0.1 0.93 0.3 0.93 0.8 0 0.6-0.46 0.6-2.09 0.2-0.75-0.2-0.5 0.7 0.3 1.1 0.77 0.4 1.95 0.3 2.62-0.3zm8.97 0.4c0.3-0.2 0.25-0.4-0.25-1-0.51-0.7-0.55-0.8-0.18-1 0.61-0.2 0.86-1.4 0.51-2.3-0.27-0.7-0.44-0.8-2.1-0.8h-1.8v2.6c0 2.3 0.1 2.5 0.6 2.5 0.47 0 0.6-0.2 0.6-0.9 0-1.2 0.27-1.1 1.2 0.1 0.81 1.2 0.86 1.2 1.42 0.8zm-2.62-3.4c0-0.7 0.11-0.8 0.82-0.7 0.6 0.1 0.83 0.2 0.83 0.7 0 0.4-0.23 0.6-0.83 0.6-0.71 0.1-0.82 0-0.82-0.6zm14.15 3.1c0.54-0.5-0.15-0.9-1.32-0.7l-1.18 0.2v-1.7-1.8l1.27 0.1c0.98 0.1 1.28 0 1.28-0.3s-0.47-0.5-1.28-0.7c-1.89-0.4-2.46 0.2-2.46 2.7 0 1.6 0.1 1.9 0.68 2.3 0.67 0.5 2.45 0.4 3.01-0.1zm-15.94-0.2c0-0.3-0.33-0.4-1.2-0.4-1.07 0-1.19-0.1-1.19-0.7 0-0.7 0.14-0.8 0.9-0.8 0.59 0 0.89-0.1 0.89-0.4s-0.3-0.5-0.89-0.5c-0.6 0-0.9-0.1-0.9-0.4 0-0.4 0.33-0.5 1.19-0.5 0.87 0 1.2-0.1 1.2-0.4 0-0.4-0.4-0.5-1.79-0.5h-1.8v2.6 2.5h1.8c1.39 0 1.79-0.1 1.79-0.5zm9.01-2c0.68-1.9 0.78-2.4 0.49-2.6-0.64-0.4-0.72-0.3-1.29 1.5-0.29 1-0.63 1.8-0.73 1.8-0.11 0-0.43-0.7-0.72-1.6-0.55-1.8-0.76-2.1-1.32-1.7-0.28 0.1-0.18 0.7 0.37 2.3 0.91 2.7 0.98 2.9 1.72 2.7 0.46-0.1 0.83-0.6 1.48-2.4zm2.64-0.1c0-2.4-0.1-2.6-0.6-2.6-0.54 0-0.59 0.2-0.59 2.6 0 2.3 0.1 2.5 0.59 2.5 0.56 0 0.6-0.2 0.6-2.5zm8.67 2.1c0-0.4-0.34-0.5-1.3-0.5-1.23 0-1.3-0.1-1.16-0.7 0.1-0.6 0.33-0.8 0.85-0.8 0.43 0 0.71-0.1 0.71-0.4s-0.28-0.5-0.71-0.5c-0.4 0-0.8-0.2-0.89-0.4-0.14-0.4 0.1-0.5 1.16-0.5 0.99 0 1.34-0.1 1.34-0.4 0-0.4-0.4-0.5-1.79-0.5h-1.8v2.6 2.5h1.8c1.39 0 1.79-0.1 1.79-0.4zm-102.87 27.7c-0.879-0.5-1.429-1.3-1.429-2.1 0-0.4 0.147-0.4 0.769 0.3 0.424 0.4 1.15 0.8 1.613 0.9 1.04 0.2 2.833-0.4 3.266-1.2 0.269-0.5 0.186-0.7-0.588-1-0.496-0.2-1.118-0.8-1.381-1.3-0.433-0.9-0.496-0.9-0.699-0.4-0.556 1.5-2.606 2.5-4.049 1.8-1.094-0.4-1.566-1-1.931-2.3l-0.284-0.9 0.67 0.7c1.324 1.6 3.155 2 4.518 0.9 0.909-0.7 1.034-1.5 0.245-1.5-0.72 0-2.02-1.4-2.274-2.5l-0.203-0.9 1.022 1.1c0.849 0.9 1.228 1.1 2.232 1.1 1.336 0 3.051-1.1 3.051-2 0-0.3 0.224-0.2 0.583 0.4 0.72 1.2 1.456 1.6 2.854 1.6 1.422 0 2.128-0.4 2.728-1.6 0.463-0.9 0.511-0.9 0.727-0.3 0.391 1.1 1.742 1.9 3.051 1.9 0.965 0 1.37-0.2 2.126-1l0.936-1 0.926 1c0.78 0.9 1.133 1 2.238 1 1.357 0 2.304-0.5 2.904-1.6 0.33-0.6 0.33-0.6 0.34 0 0 0.9-1.092 2.5-1.923 2.7-0.983 0.2-0.953 0.5 0.164 1.4 1.419 1.2 3.309 1 4.529-0.5l0.52-0.7v0.7c0 0.8-1.28 2.2-2.3 2.4-0.61 0.1-0.97 0.4-1.33 1.3-0.602 1.4-1.998 2.2-3.394 2-1.115-0.3-2.537-1.5-2.537-2.4 0-0.2-0.451-0.7-1.121-1-0.678-0.4-1.325-1-1.642-1.6-0.323-0.7-0.523-0.9-0.523-0.5 0 0.7-1.605 2.3-2.379 2.3-0.547 0-0.585 0.1-0.296 0.6 0.446 0.9 2.227 1.6 3.282 1.3 0.463-0.1 1.188-0.5 1.612-0.9 0.679-0.7 0.768-0.7 0.762-0.2 0 1.1-1.651 2.5-3.035 2.5-0.962 0-2.54-1-2.788-1.8-0.197-0.7-0.245-0.7-1.085 0.4-1.548 1.9-3.831 1.7-5.221-0.4l-0.651-0.9-0.188 0.8c-0.221 0.9-1.79 1.9-2.863 1.9-0.41 0-1.115-0.3-1.56-0.5zm9.637-1.4c1.312-0.9 1.342-1.1 0.212-1.9-0.523-0.3-1.111-0.9-1.305-1.2l-0.353-0.8-0.475 0.9c-0.29 0.6-0.876 1.1-1.521 1.3-1.234 0.5-1.264 0.6-0.377 1.4 1.282 1.2 2.421 1.3 3.819 0.3zm12.548 0.2c1.219-0.6 1.676-1.5 0.902-1.8-0.319 0-0.915-0.5-1.321-1l-0.735-0.9-1.04 1c-0.57 0.6-1.255 1.1-1.518 1.1-0.664 0-0.598 0.4 0.194 1.1 1.181 1.1 2.179 1.2 3.518 0.5zm-15.27-3.6c0.508-0.4 0.92-0.8 0.92-1 0-0.1-0.433-0.3-0.965-0.5-0.564-0.1-1.246-0.7-1.644-1.2-0.373-0.6-0.678-0.9-0.678-0.7 0 0.5-1.494 2.1-1.999 2.1-0.645 0-0.445 0.5 0.529 1.3 0.589 0.5 1.279 0.8 1.919 0.8 0.639 0 1.332-0.3 1.918-0.8zm6.225 0.2c1.046-0.6 1.3-1.5 0.448-1.5-0.714 0-1.47-0.6-1.981-1.7l-0.425-0.8-0.403 0.9c-0.221 0.4-0.861 1.1-1.416 1.3l-1.011 0.6 0.915 0.9c1.094 1.1 2.42 1.2 3.873 0.3zm6.624-0.2c1.072-0.9 1.168-1.3 0.298-1.3-0.758 0-2.36-1.6-2.378-2.3 0-0.4-0.161-0.2-0.424 0.4-0.338 0.8-0.906 1.3-2.184 2-0.277 0.2 0.428 1.2 1.087 1.6 1.231 0.6 2.564 0.5 3.601-0.4zm-24.154-1.9c-1.419-1.6-1.521-2.6-1.521-15.4v-11.88l1.569 1.68c2.615 2.8 5.758 4.8 9.413 6l1.569 0.5v2.6c0 1.4 0.186 3.3 0.41 4.2 0.355 1.4 0.352 1.6-0.03 1.8-0.687 0.2-1.987-1-2.483-2.3-0.248-0.6-0.565-1.3-0.699-1.4-0.359-0.4 0.114 5.2 0.55 6.5 0.316 0.9 0.304 1.1-0.08 1.3-1.318 0.5-2.791-1.9-3.353-5.4-0.182-1.1-0.407-2.1-0.499-2.2-0.323-0.3 0.117 9.1 0.466 9.9 0.679 1.7-1.159 1.6-2.155-0.1-0.693-1.1-1.395-4-1.419-5.8-0.03-1.1-0.09-1.3-0.278-0.9-0.595 1.4-0.272 9.1 0.457 11 0.302 0.8-1.174 0.6-1.927-0.1zm29.021-0.1c0.26-0.5 0.4-2.4 0.44-6.3l0.1-5.7-0.42 2.8c-0.71 4.7-1.525 6.3-3.163 6.3-0.831 0-0.86 0-0.505-0.7 0.26-0.4 0.394-2.3 0.433-6 0.04-4.1 0-4.9-0.185-3.3-0.251 2.3-0.962 4.7-1.587 5.6-0.2 0.2-0.681 0.6-1.07 0.8-0.956 0.5-1.35 0.1-0.929-1 0.182-0.5 0.391-2.3 0.466-4 0.131-3.2 0.131-3.2-0.317-1.8-0.502 1.5-1.745 2.9-2.589 2.9-0.652 0-0.646 0.1-0.242-1.5 0.17-0.7 0.406-2.6 0.522-4.2l0.21-2.9 1.989-0.8c2.889-0.9 5.483-2.6 7.947-5l2.17-2.17v12.07c0 12.7-0.1 13.7-1.36 15-0.28 0.3-0.91 0.6-1.38 0.6-0.81 0-0.83 0-0.48-0.7zm-16.945-19.5c-6.347-1.2-11.896-5.4-14.506-10.9-1.422-3.04-1.61-4.74-0.905-8.19 0.332-1.62 0.792-3.57 1.025-4.34 0.403-1.34 0.397-1.41-0.185-1.49-0.514-0.1-0.434-0.22 0.559-0.95l1.162-0.84-1.195 0.18-1.196 0.18 0.798-0.61c0.44-0.34 1.1-0.86 1.471-1.15l0.666-0.55-1.467-0.38-1.468-0.39 1.447-0.38c0.792-0.22 1.497-0.44 1.56-0.5 0.07-0.1-0.852-0.38-2.041-0.69l-2.161-0.56 1.249-0.31c0.688-0.18 1.327-0.4 1.423-0.5 0.09-0.1-0.505-0.54-1.33-0.98-0.861-0.48-1.416-0.96-1.303-1.14 0.23-0.38 4.716-0.12 6.425 0.36 2.426 0.68 3.828 2.77 3.84 5.71 0 2.31-0.457 3.52-1.443 3.72-5.744 1.23-8.744 7.2-6.157 12.26 0.989 1.94 3.016 3.7 4.904 4.26 1.761 0.53 4.465 0.41 5.948-0.26 0.717-0.32 1.344-0.59 1.395-0.59 0.05 0 0.188 0.43 0.305 0.97 0.403 1.76 1.32 3.46 2.707 4.96 0.765 0.8 1.563 1.5 1.769 1.5 0.207 0 1.097-0.8 1.976-1.7 1.515-1.7 2.653-3.87 2.65-5.24 0-0.41 0.135-0.5 0.519-0.34 2.253 0.91 3.266 1.11 5.11 0.97 2.464-0.15 4.064-0.96 5.664-2.77 1.92-2.18 2.62-5.16 1.86-7.92-0.77-2.74-3.58-5.47-6.066-5.86-1.637-0.27-2.145-1.17-2.142-3.82 0-4.66 2.504-6.44 9.038-6.45 2.23 0 2.2 0.26-0.19 1.48-1.76 0.89-1.75 0.94 0.25 1.45l1.04 0.27-1.34 0.36c-3.16 0.84-3.15 0.83-0.9 1.45l1.05 0.29-1.46 0.38-1.47 0.39 0.77 0.56c0.42 0.31 1.08 0.83 1.46 1.16l0.7 0.61-0.97-0.19c-0.54-0.1-0.97-0.12-0.97 0 0 0.1 0.6 0.58 1.34 1.11s1.31 1.01 1.26 1.05c0 0.1-0.58 0-1.19-0.17-0.61-0.13-1.11-0.2-1.11-0.14 0 0 0.64 0.59 1.42 1.2 1.28 1 1.33 1.08 0.58 0.95-0.69-0.12-0.81-0.1-0.66 0.33 0.7 1.81 1.09 4.6 0.95 6.73-0.4 6.18-6.22 12.66-13.358 14.96-2.891 0.9-6.391 1.2-9.107 0.6zm1.868-3.6c-1.979-2-3.072-5.44-2.175-6.8 1.272-1.95 5.259-2.19 7.019-0.43 0.78 0.77 0.789 2.22 0.03 4.23-0.568 1.5-2.767 4.1-3.445 4.1-0.18 0-0.816-0.5-1.417-1.1zm0.152-6.51c0.272-0.26-0.1-1.03-0.406-0.84-0.15 0.1-0.269 0.36-0.269 0.59 0 0.44 0.355 0.58 0.675 0.25zm3.21-0.43c0-0.34-0.135-0.53-0.299-0.43-0.165 0.1-0.299 0.38-0.299 0.61 0 0.24 0.134 0.43 0.299 0.43 0.164 0 0.299-0.27 0.299-0.61zm-13.857 1.39c-2.98-1.11-4.976-3.99-4.964-7.18 0-2.21 0.687-3.79 2.274-5.31 1.515-1.45 2.985-2.03 5.122-2.03 6.616 0 9.933 7.98 5.257 12.65-1.925 1.93-5.314 2.75-7.689 1.87zm5.393-1.33c3.772-1.93 4.71-6.7 1.949-9.93-4.04-4.72-11.415-1.87-11.415 4.41 0 2.47 2.151 5.28 4.67 6.08 1.216 0.39 3.461 0.13 4.796-0.56zm-3.705-2.94c-0.887-0.17-2.176-1.75-2.176-2.67 0-2.74 3.428-4.09 5.078-1.99 0.657 0.84 0.789 2.46 0.278 3.42-0.263 0.49-2.113 1.56-2.433 1.41-0.05 0-0.382-0.1-0.747-0.17zm17.843 4.43c-2.373-0.78-4.41-2.71-5.029-4.78-0.513-1.71-0.415-4.2 0.222-5.57 0.693-1.49 2.512-3.26 3.979-3.87 0.609-0.25 1.894-0.46 2.853-0.46 3.346 0 6.196 2.13 7.136 5.33 1.01 3.45-0.6 7.07-3.91 8.77-1.28 0.66-4.062 0.97-5.251 0.58zm4.991-1.49c3.99-2.05 4.7-7.42 1.39-10.56-4.032-3.82-10.86-0.86-10.86 4.73 0 4.93 5.094 8.06 9.47 5.83zm-3.71-2.94c-0.887-0.17-2.175-1.75-2.175-2.67 0-2.74 3.428-4.09 5.077-1.99 0.658 0.84 0.788 2.46 0.278 3.42-0.263 0.49-2.112 1.56-2.432 1.41-0.05 0-0.383-0.1-0.748-0.17zm-10.362 0.21c0.388-0.94 0.481-4.43 0.149-5.44-1.025-3.11-3.502-5.33-6.625-5.94l-1.712-0.34 0.269-0.94c0.149-0.52 0.269-1.43 0.269-2.02 0-1.25-0.08-1.22 3.825-1.78 2.881-0.41 10.488-0.23 12.795 0.3l1.527 0.35 0.182 1.4c0.102 0.78 0.266 1.7 0.365 2.05 0.164 0.56 0.03 0.67-1.112 0.86-2.809 0.47-5.679 2.64-6.692 5.07-0.67 1.6-0.822 4.02-0.353 5.53l0.418 1.35h-1.745c-1.434 0-1.709-0.1-1.56-0.45z" fill="#fff"/>
</g>
</svg>
