<?xml version="1.0" encoding="UTF-8" standalone="no"?>
<!-- Created with Inkscape (http://www.inkscape.org/) -->

<svg xmlns:dc="http://purl.org/dc/elements/1.1/" xmlns:cc="http://creativecommons.org/ns#" xmlns:rdf="http://www.w3.org/1999/02/22-rdf-syntax-ns#" xmlns:svg="http://www.w3.org/2000/svg" xmlns="http://www.w3.org/2000/svg" xmlns:sodipodi="http://sodipodi.sourceforge.net/DTD/sodipodi-0.dtd" xmlns:inkscape="http://www.inkscape.org/namespaces/inkscape" width="250" height="91" viewBox="0 0 250 91" id="svg2" version="1.1" inkscape:version="0.91 r13725" sodipodi:docname="leedscitylab.svg">
  <defs id="defs4" />
  <sodipodi:namedview id="base" pagecolor="#ffffff" bordercolor="#666666" borderopacity="1.0" inkscape:pageopacity="0.0" inkscape:pageshadow="2" inkscape:zoom="1.9799" inkscape:cx="183.26" inkscape:cy="27.908" inkscape:document-units="px" inkscape:current-layer="layer1" showgrid="false" inkscape:window-width="1280" inkscape:window-height="752" inkscape:window-x="0" inkscape:window-y="0" inkscape:window-maximized="1" units="px" />
  <metadata id="metadata7">
    <rdf:RDF>
      <cc:Work rdf:about="">
        <dc:format>image/svg+xml</dc:format>
        <dc:type rdf:resource="http://purl.org/dc/dcmitype/StillImage" />
        <dc:title></dc:title>
      </cc:Work>
    </rdf:RDF>
  </metadata>
  <g inkscape:label="Layer 1" inkscape:groupmode="layer" id="layer1" transform="translate(0,-961.4)">
    <rect style="opacity:0.001;fill:#000000;fill-opacity:1;stroke:none;stroke-width:2.5;stroke-linecap:round;stroke-linejoin:round;stroke-miterlimit:4;stroke-dasharray:none;stroke-dashoffset:0;stroke-opacity:1" id="rect4175" width="250" height="91" x="0" y="961.4" />
    <g style="font-style:normal;font-variant:normal;font-weight:normal;font-stretch:normal;font-size:18.07953px;line-height:125%;font-family:'Source Code Pro';-inkscape-font-specification:'Source Code Pro, Normal';text-align:start;letter-spacing:0px;word-spacing:0px;writing-mode:lr-tb;text-anchor:start;fill:#ffffff;fill-opacity:1;stroke:none;stroke-width:1px;stroke-linecap:butt;stroke-linejoin:miter;stroke-opacity:1" id="text4859">
      <path d="m 15,1014.2 0,-1.6 2.529,0 0,-16.58 -2.529,0 0,-1.6 10.17,0 0,1.6 -2.543,0 0,16.38 7.786,0 0,-3.1 1.788,0 0,4.9 -17.201,0 z" style="font-style:normal;font-variant:normal;font-weight:bold;font-stretch:normal;font-size:27.1193px;font-family:'Bitstream Vera Serif';-inkscape-font-specification:'Bitstream Vera Serif Bold';fill:#ffffff;fill-opacity:1" id="path5067" />
      <path d="m 43.669,1006.2 q 0,-2.7 -0.517,-3.8 -0.516,-1.2 -1.761,-1.2 -1.205,0 -1.735,1.1 -0.516,1.1 -0.516,3.7 l 0,0.2 4.529,0 z m 5.151,1.6 -9.68,0 0,0.1 q 0,2.8 0.821,4 0.821,1.2 2.648,1.2 1.523,0 2.463,-0.8 0.94,-0.8 1.205,-2.4 l 2.198,0 q -0.569,2.4 -2.264,3.5 -1.695,1.2 -4.741,1.2 -3.654,0 -5.614,-1.9 -1.947,-2 -1.947,-5.6 0,-3.5 2,-5.4 1.999,-1.97 5.561,-1.97 3.496,0 5.363,2.07 1.867,2 1.987,6 z" style="font-style:normal;font-variant:normal;font-weight:bold;font-stretch:normal;font-size:27.1193px;font-family:'Bitstream Vera Serif';-inkscape-font-specification:'Bitstream Vera Serif Bold';fill:#ffffff;fill-opacity:1" id="path5069" />
      <path d="m 60.936,1006.2 q 0,-2.7 -0.516,-3.8 -0.517,-1.2 -1.762,-1.2 -1.205,0 -1.734,1.1 -0.517,1.1 -0.517,3.7 l 0,0.2 4.529,0 z m 5.151,1.6 -9.68,0 0,0.1 q 0,2.8 0.821,4 0.821,1.2 2.649,1.2 1.522,0 2.463,-0.8 0.94,-0.8 1.205,-2.4 l 2.198,0 q -0.57,2.4 -2.265,3.5 -1.695,1.2 -4.74,1.2 -3.655,0 -5.615,-1.9 -1.946,-2 -1.946,-5.6 0,-3.5 1.999,-5.4 2,-1.97 5.562,-1.97 3.496,0 5.363,2.07 1.867,2 1.986,6 z" style="font-style:normal;font-variant:normal;font-weight:bold;font-stretch:normal;font-size:27.1193px;font-family:'Bitstream Vera Serif';-inkscape-font-specification:'Bitstream Vera Serif Bold';fill:#ffffff;fill-opacity:1" id="path5071" />
      <path d="m 78.971,1007.8 0,-1.3 q 0,-2.5 -0.635,-3.6 -0.636,-1.1 -2.026,-1.1 -1.457,0 -2.053,1.2 -0.582,1.1 -0.582,4.1 0,3.1 0.595,4.2 0.596,1.2 2.04,1.2 1.39,0 2.026,-1.1 0.635,-1.1 0.635,-3.6 z m 4.688,4.8 1.999,0 0,1.6 -6.687,0 0,-1.8 q -0.596,1.1 -1.615,1.6 -1.007,0.6 -2.49,0.6 -2.992,0 -4.714,-2 -1.708,-2 -1.708,-5.5 0,-3.4 1.708,-5.4 1.722,-1.97 4.714,-1.97 1.483,0 2.49,0.57 1.019,0.5 1.615,1.6 l 0,-6.73 -2.012,0 0,-1.58 6.7,0 0,19.01 z" style="font-style:normal;font-variant:normal;font-weight:bold;font-stretch:normal;font-size:27.1193px;font-family:'Bitstream Vera Serif';-inkscape-font-specification:'Bitstream Vera Serif Bold';fill:#ffffff;fill-opacity:1" id="path5073" />
      <path d="m 87.512,1013.8 0,-4 1.497,0 q 0.185,1.6 1.178,2.5 0.993,0.8 2.702,0.8 1.43,0 2.184,-0.5 0.768,-0.5 0.768,-1.4 0,-0.9 -0.49,-1.4 -0.476,-0.4 -1.867,-0.8 l -1.933,-0.5 q -2.185,-0.5 -3.165,-1.5 -0.98,-1 -0.98,-2.7 0,-2.3 1.589,-3.4 1.589,-1.17 4.9,-1.17 1.245,0 2.648,0.21 1.417,0.16 3.125,0.66 l 0,3.5 -1.496,0 q -0.119,-1.4 -1.033,-2.1 -0.9,-0.8 -2.595,-0.8 -1.43,0 -2.172,0.5 -0.728,0.4 -0.728,1.3 0,0.7 0.424,1.1 0.423,0.4 1.522,0.7 l 1.92,0.5 q 2.768,0.7 3.827,1.8 1.063,1 1.063,2.8 0,2.4 -1.712,3.5 -1.695,1.2 -5.283,1.2 -1.311,0 -2.781,-0.2 -1.47,-0.2 -3.112,-0.6 z" style="font-style:normal;font-variant:normal;font-weight:bold;font-stretch:normal;font-size:27.1193px;font-family:'Bitstream Vera Serif';-inkscape-font-specification:'Bitstream Vera Serif Bold';fill:#ffffff;fill-opacity:1" id="path5075" />
      <path d="m 131.13,1008.5 q -0.78,3.1 -2.81,4.6 -2.02,1.5 -5.44,1.5 -5,0 -7.92,-2.8 -2.9,-2.7 -2.9,-7.5 0,-4.72 2.9,-7.47 2.92,-2.77 7.92,-2.77 1.76,0 3.67,0.43 1.91,0.42 4.04,1.28 l 0,4.83 -1.68,0 q -0.52,-2.46 -1.88,-3.69 -1.37,-1.25 -3.61,-1.25 -2.88,0 -4.29,2.14 -1.4,2.11 -1.4,6.5 0,4.4 1.4,6.6 1.41,2.1 4.32,2.1 1.97,0 3.22,-1.1 1.26,-1.1 1.83,-3.4 l 2.63,0 z" style="font-style:normal;font-variant:normal;font-weight:bold;font-stretch:normal;font-size:27.1193px;font-family:'Bitstream Vera Serif';-inkscape-font-specification:'Bitstream Vera Serif Bold';fill:#ffffff;fill-opacity:1" id="path5077" />
      <path d="m 134.97,996.13 q 0,-1.07 0.74,-1.8 0.74,-0.74 1.82,-0.74 1.04,0 1.77,0.74 0.74,0.73 0.74,1.8 0,1.04 -0.74,1.79 -0.73,0.72 -1.77,0.72 -1.08,0 -1.82,-0.72 -0.74,-0.73 -0.74,-1.79 z m 5.13,16.47 2.01,0 0,1.6 -8.7,0 0,-1.6 2,0 0,-10.9 -2,0 0,-1.6 6.69,0 0,12.5 z" style="font-style:normal;font-variant:normal;font-weight:bold;font-stretch:normal;font-size:27.1193px;font-family:'Bitstream Vera Serif';-inkscape-font-specification:'Bitstream Vera Serif Bold';fill:#ffffff;fill-opacity:1" id="path5079" />
      <path d="m 145.45,1001.7 -2.04,0 0,-1.6 2.04,0 0,-4.36 4.68,0 0,4.36 3.91,0 0,1.6 -3.91,0 0,8.6 q 0,1.9 0.29,2.3 0.3,0.5 1.06,0.5 0.85,0 1.26,-0.6 0.41,-0.6 0.44,-1.8 l 1.97,0 q -0.12,2.2 -1.16,3 -1.04,0.9 -3.58,0.9 -2.9,0 -3.93,-0.9 -1.03,-0.9 -1.03,-3.4 l 0,-8.6 z" style="font-style:normal;font-variant:normal;font-weight:bold;font-stretch:normal;font-size:27.1193px;font-family:'Bitstream Vera Serif';-inkscape-font-specification:'Bitstream Vera Serif Bold';fill:#ffffff;fill-opacity:1" id="path5081" />
      <path d="m 163.72,1017.4 q -0.64,1.5 -1.54,2.2 -0.9,0.6 -2.42,0.6 -0.65,0 -1.44,-0.1 -0.8,-0.2 -1.74,-0.5 l 0,-2.9 1.5,0 q 0,1 0.47,1.5 0.46,0.5 1.34,0.5 0.86,0 1.39,-0.5 0.53,-0.4 1.06,-1.7 l 0.21,-0.5 -6.13,-14.3 -1.52,0 0,-1.6 8.12,0 0,1.6 -1.68,0 3.57,8.3 3.34,-8.3 -1.87,0 0,-1.6 5.28,0 0,1.6 -1.7,0 -6.24,15.7 z" style="font-style:normal;font-variant:normal;font-weight:bold;font-stretch:normal;font-size:27.1193px;font-family:'Bitstream Vera Serif';-inkscape-font-specification:'Bitstream Vera Serif Bold';fill:#ffffff;fill-opacity:1" id="path5083" />
      <path d="m 181.74,1014.2 0,-1.6 2.53,0 0,-16.58 -2.53,0 0,-1.6 10.17,0 0,1.6 -2.54,0 0,16.38 7.78,0 0,-3.1 1.79,0 0,4.9 -17.2,0 z" style="font-style:normal;font-variant:normal;font-weight:bold;font-stretch:normal;font-size:27.1193px;font-family:'Bitstream Vera Serif';-inkscape-font-specification:'Bitstream Vera Serif Bold';fill:#ffffff;fill-opacity:1" id="path5085" />
      <path d="m 214.48,1005.5 0,7.1 2.01,0 0,1.6 -6.7,0 0,-1.8 q -0.93,1.1 -2.07,1.6 -1.14,0.6 -2.59,0.6 -2.16,0 -3.33,-1.2 -1.15,-1.1 -1.15,-3.3 0,-2.4 1.66,-3.6 1.66,-1.1 5.01,-1.1 l 2.47,0 0,-0.9 q 0,-1.7 -0.81,-2.5 -0.81,-0.8 -2.5,-0.8 -1.41,0 -2.17,0.6 -0.76,0.6 -1.08,1.9 l -1.49,0 0,-3.1 q 1.25,-0.4 2.61,-0.65 1.35,-0.22 2.84,-0.22 3.78,0 5.52,1.37 1.77,1.4 1.77,4.4 z m -4.69,4.3 0,-2.9 -1.76,0 q -1.31,0 -2.02,0.8 -0.7,0.7 -0.7,2 0,1.4 0.5,2 0.52,0.7 1.57,0.7 1.08,0 1.75,-0.7 0.66,-0.8 0.66,-1.9 z" style="font-style:normal;font-variant:normal;font-weight:bold;font-stretch:normal;font-size:27.1193px;font-family:'Bitstream Vera Serif';-inkscape-font-specification:'Bitstream Vera Serif Bold';fill:#ffffff;fill-opacity:1" id="path5087" />
      <path d="m 219.76,1012.6 0,-17.43 -2.01,0 0,-1.58 6.7,0 0,8.31 q 0.59,-1.1 1.6,-1.6 1,-0.57 2.49,-0.57 3,0 4.73,1.97 1.73,2 1.73,5.4 0,3.5 -1.73,5.5 -1.73,2 -4.73,2 -1.49,0 -2.49,-0.6 -1.01,-0.5 -1.6,-1.6 l 0,1.8 -6.7,0 0,-1.6 2.01,0 z m 4.69,-4.8 q 0,2.5 0.62,3.6 0.63,1.1 2.04,1.1 1.44,0 2.02,-1.2 0.6,-1.1 0.6,-4.2 0,-3 -0.6,-4.1 -0.58,-1.2 -2.02,-1.2 -1.41,0 -2.04,1.1 -0.62,1.1 -0.62,3.6 l 0,1.3 z" style="font-style:normal;font-variant:normal;font-weight:bold;font-stretch:normal;font-size:27.1193px;font-family:'Bitstream Vera Serif';-inkscape-font-specification:'Bitstream Vera Serif Bold';fill:#ffffff;fill-opacity:1" id="path5089" />
    </g>
  </g>
</svg>
