<?xml version="1.0" encoding="UTF-8" standalone="no"?>
<!-- Created with Inkscape (http://www.inkscape.org/) -->

<svg xmlns:dc="http://purl.org/dc/elements/1.1/" xmlns:cc="http://creativecommons.org/ns#" xmlns:rdf="http://www.w3.org/1999/02/22-rdf-syntax-ns#" xmlns:svg="http://www.w3.org/2000/svg" xmlns="http://www.w3.org/2000/svg" xmlns:sodipodi="http://sodipodi.sourceforge.net/DTD/sodipodi-0.dtd" xmlns:inkscape="http://www.inkscape.org/namespaces/inkscape" width="250" height="91" viewBox="0 0 250 91" id="svg2" version="1.1" inkscape:version="0.91 r13725" sodipodi:docname="leedsdevops.svg">
  <defs id="defs4" />
  <sodipodi:namedview id="base" pagecolor="#ffffff" bordercolor="#666666" borderopacity="1.0" inkscape:pageopacity="0.0" inkscape:pageshadow="2" inkscape:zoom="0.98995" inkscape:cx="288.8" inkscape:cy="15.597" inkscape:document-units="px" inkscape:current-layer="layer1" showgrid="false" inkscape:window-width="1280" inkscape:window-height="752" inkscape:window-x="0" inkscape:window-y="0" inkscape:window-maximized="1" units="px" showguides="false" />
  <metadata id="metadata7">
    <rdf:RDF>
      <cc:Work rdf:about="">
        <dc:format>image/svg+xml</dc:format>
        <dc:type rdf:resource="http://purl.org/dc/dcmitype/StillImage" />
        <dc:title></dc:title>
      </cc:Work>
    </rdf:RDF>
  </metadata>
  <g inkscape:label="Layer 1" inkscape:groupmode="layer" id="layer1" transform="translate(0,-961.4)">
    <rect style="opacity:0.001;fill:#d02626;fill-opacity:1;stroke:none;stroke-width:2.5;stroke-linecap:round;stroke-linejoin:round;stroke-miterlimit:4;stroke-dasharray:none;stroke-dashoffset:0;stroke-opacity:1" id="rect4298" width="250" height="91" x="0" y="961.4" />
    <path inkscape:connector-curvature="0" id="path5217" d="m 101.43,1025.1 c 1.65,-0.4 2.81,-1 3.84,-2.2 1.86,-2 2.58,-5.7 1.82,-9.2 -0.65,-3.2 -2.07,-5.2 -6.43,-9.3 -2.365,-2.3 -2.805,-2.8 -3.465,-4.1 -0.7,-1.38 -0.76,-1.68 -0.76,-3.18 0,-1.4 0.1,-1.8 0.42,-2.2 1.25,-1.7 3.775,-1.6 4.695,0.2 0.16,0.3 0.33,1.2 0.38,2 l 0.1,1.5 2.72,0 2.72,0 -0.13,-1.7 c -0.25,-3.3 -0.84,-4.8 -2.33,-6.3 -1.1,-1.1 -1.97,-1.6 -3.89,-2 -3.455,-0.7 -7.134,0.4 -8.787,2.6 -1.104,1.5 -1.464,2.8 -1.564,5.6 -0.106,2.8 0.169,4.28 1.152,6.18 0.961,1.9 1.807,2.9 4.534,5.4 4.005,3.7 5.185,5.6 5.195,8.2 0,2.2 -0.7,3.2 -2.495,3.4 -1.11,0.2 -2.1,-0.3 -2.75,-1.2 -0.39,-0.7 -0.453,-1 -0.453,-2.7 l 0,-2 -2.716,0 -2.72,0 0,1.9 c 0,2.3 0.243,3.6 0.935,5.2 0.549,1.2 1.912,2.6 3.058,3.3 1.696,0.8 4.556,1.1 6.941,0.6 z m 87.97,0.1 c 1.79,-0.3 3.16,-1.1 4.29,-2.4 1.26,-1.3 1.81,-2.8 2.07,-5.3 0.28,-2.8 0.1,-21.88 -0.21,-23.08 -1.17,-4.4 -4.94,-6.6 -9.9,-5.9 -2.97,0.4 -4.99,1.8 -6.06,4.1 -0.93,1.9 -0.96,2.6 -0.96,14.28 0,13.2 0,13.5 1.94,15.8 1.71,2.1 5.29,3.1 8.83,2.5 z m -3.53,-5.4 c -0.37,-0.2 -0.87,-0.7 -1.09,-1.1 -0.41,-0.7 -0.41,-1 -0.41,-11.9 0,-10.28 0,-11.18 0.36,-11.68 0.51,-1 1.23,-1.4 2.47,-1.4 1.25,0 2.01,0.4 2.55,1.5 0.32,0.7 0.35,1.6 0.35,11.58 0,11.8 0,11.7 -1.07,12.7 -0.71,0.7 -2.19,0.8 -3.15,0.3 z m 43.15,5.3 c 1.65,-0.4 2.8,-1 3.82,-2.2 1.87,-2 2.59,-5.7 1.84,-9.2 -0.65,-3.2 -2.09,-5.2 -6.43,-9.3 -2.39,-2.3 -2.82,-2.8 -3.47,-4.1 -0.72,-1.38 -0.78,-1.68 -0.78,-3.18 0,-1.4 0.1,-1.8 0.42,-2.2 1.25,-1.7 3.79,-1.6 4.71,0.2 0.16,0.3 0.32,1.2 0.37,2 l 0.1,1.5 2.75,0 2.72,0 -0.16,-1.7 c -0.24,-3.3 -0.81,-4.8 -2.33,-6.3 -1.09,-1.1 -1.95,-1.6 -3.88,-2 -3.46,-0.7 -7.15,0.4 -8.8,2.6 -1.1,1.5 -1.46,2.8 -1.56,5.6 -0.1,2.8 0.18,4.28 1.16,6.18 0.97,1.9 1.81,2.9 4.53,5.4 4.03,3.7 5.19,5.6 5.19,8.2 0,2.2 -0.68,3.2 -2.49,3.4 -1.11,0.2 -2.1,-0.3 -2.74,-1.2 -0.4,-0.7 -0.47,-1 -0.47,-2.7 l 0,-2 -2.71,0 -2.72,0 0,1.9 c 0,2.3 0.25,3.6 0.93,5.2 0.56,1.2 1.91,2.6 3.06,3.3 1.69,0.8 4.57,1.1 6.96,0.6 z m -198.885,-2.7 0,-2.7 -4.68,0 -4.68,-0.1 -0.1,-15.4 -0.1,-15.48 -2.81,0 -2.82,0 0,18.08 0,18.2 7.54,0 7.55,0 z m 17.7,0 0,-2.7 -4.876,0 -4.881,-0.1 -0.05,-5.2 -0.05,-5.1 3.925,0 3.926,0 0,-2.6 0,-2.7 -3.873,0 -3.872,-0.1 0,-4.88 0,-4.9 4.881,-0.1 4.876,0 0,-2.6 0,-2.7 -7.744,0 -7.745,0 0,18.08 0,18.2 7.745,0 7.744,0 z m 18.918,0 0,-2.7 -4.881,0 -4.876,-0.1 -0.06,-5.2 -0.05,-5.1 3.93,0 3.926,0 0,-2.6 0,-2.7 -3.873,0 -3.872,-0.1 0,-4.88 0,-4.9 4.876,-0.1 4.881,0 0,-2.6 0,-2.7 -7.75,0 -7.744,0 0,18.08 0,18.2 7.744,0 7.75,0 z m 16.007,2.1 c 2.33,-0.8 3.915,-2.4 4.655,-4.9 0.332,-1.1 0.364,-2.1 0.364,-12.7 0,-10.48 -0.05,-11.48 -0.37,-12.68 -0.586,-2.2 -1.938,-3.8 -3.788,-4.6 -1.436,-0.7 -3.233,-0.9 -8.368,-0.9 l -4.876,0 0,18.18 0,18.1 5.684,-0.1 c 4.618,0 5.87,-0.1 6.699,-0.4 z m -6.656,-5 c -0.05,-0.1 -0.07,-5.9 -0.05,-12.9 l 0.05,-12.48 2.113,0 c 1.875,0 2.187,0 2.752,0.4 1.157,0.9 1.173,1 1.173,12.38 0,10.1 0,10.6 -0.401,11.3 -0.592,1.2 -1.395,1.5 -3.683,1.5 -1.31,0 -1.896,0 -1.96,-0.2 z m 54.756,5 c 2.33,-0.8 3.91,-2.4 4.65,-4.9 0.33,-1.1 0.37,-2.1 0.37,-12.7 0,-10.48 -0.1,-11.48 -0.37,-12.68 -0.59,-2.2 -1.94,-3.8 -3.79,-4.6 -1.44,-0.7 -3.24,-0.9 -8.37,-0.9 l -4.88,0 0,18.18 0,18.1 5.69,-0.1 c 4.61,0 5.87,-0.1 6.7,-0.4 z m -6.66,-5 c -0.1,-0.1 -0.1,-5.9 -0.1,-12.9 l 0.1,-12.48 2.11,0 c 1.88,0 2.19,0 2.75,0.4 1.16,0.9 1.18,1 1.18,12.38 0,10.1 0,10.6 -0.4,11.3 -0.6,1.2 -1.4,1.5 -3.69,1.5 -1.31,0 -1.89,0 -1.96,-0.2 z m 30.89,2.9 0,-2.7 -4.88,0 -4.87,-0.1 -0.1,-5.2 0,-5.1 3.91,0 3.94,0 0,-2.6 0,-2.7 -3.88,0 -3.87,-0.1 0,-4.88 0,-4.9 4.87,-0.1 4.88,0 0,-2.6 0,-2.7 -7.74,0 -7.75,0 0,18.08 0,18.2 7.75,0 7.74,0 z m 18.78,-15.4 c 1.52,-9.88 2.75,-17.98 2.75,-18.08 0,-0.1 -1.19,-0.2 -2.62,-0.2 -1.44,0 -2.62,0.1 -2.62,0.2 0,0.4 -4.04,27.78 -4.17,28.18 -0.15,0.7 0.1,2 -2.34,-14.3 l -2.06,-13.98 -2.86,0 c -1.57,0 -2.86,0 -2.86,0.1 0,0.1 1.24,8.2 2.75,18.08 l 2.76,18 4.26,0 4.24,0 z m 31.38,11.2 0.1,-6.7 2.41,-0.1 c 3.25,-0.1 4.73,-0.6 6.2,-1.9 2.13,-2 2.65,-4.1 2.51,-10.38 -0.1,-3.4 -0.16,-4.2 -0.54,-5.3 -0.91,-2.8 -2.8,-4.3 -5.86,-4.9 -0.72,-0.1 -3.37,-0.2 -5.88,-0.2 l -4.58,0 0,18.08 0,18.2 2.81,0 2.81,0 z m 0.1,-12.2 c -0.1,-0.2 -0.1,-2.9 -0.1,-6.08 l 0.1,-5.8 1.54,-0.1 c 1.87,0 2.81,0.3 3.38,1.2 0.37,0.7 0.41,1 0.41,4.88 0,4.1 0,4.3 -0.46,4.9 -0.26,0.5 -0.76,0.8 -1.15,1 -0.97,0.3 -3.6,0.3 -3.73,0 z" style="fill-opacity:1;fill:#ffffff" sodipodi:nodetypes="cccccsccccccccccccccccscccsccccccccccccccscccsccccccccsccccccccccccccccscccsccccccccccccccccccccccccccccccccccccccccccccccccccccccccccccccccccccsccsccccccccscscscccsccsccccccccscscsccccccccccccccccccccccccccccsscccccccccccccccccscccccccccccccccc" />
    <circle r="0" style="opacity:1;fill:#666666;fill-opacity:1;stroke:none;stroke-width:2.5;stroke-linecap:round;stroke-linejoin:round;stroke-miterlimit:4;stroke-dasharray:none;stroke-dashoffset:0;stroke-opacity:1" id="ellipse4185" cx="71.594" cy="996.69" />
    <circle r="0" style="opacity:1;fill:#414141;fill-opacity:1;stroke:none;stroke-width:2.5;stroke-linecap:round;stroke-linejoin:round;stroke-miterlimit:4;stroke-dasharray:none;stroke-dashoffset:0;stroke-opacity:1" id="ellipse4185-5" cx="38.023" cy="1055.8" />
  </g>
</svg>
