<?xml version="1.0" encoding="UTF-8"?>
<svg version="1.1" viewBox="0 0 250 91" xml:space="preserve" xmlns="http://www.w3.org/2000/svg"><path d="m68.983 80.266c-0.05899-0.23506-0.02636-0.48303 0.13951-1.0606 0.05593-0.19466 0.1355-0.49329 0.17689-0.66361 0.04139-0.17033 0.19509-0.76758 0.34159-1.3272 0.14649-0.55964 0.36529-1.3958 0.48621-1.8581 0.85061-3.252 0.93366-3.483 1.3616-3.7873 0.45129-0.32086 0.94856-0.41733 1.4668-0.28457 0.58728 0.15044 0.90287 0.3864 1.1195 0.83696 0.14646 0.30466 0.53733 1.6659 0.80188 2.7925 0.04 0.17033 0.15866 0.62822 0.26368 1.0175 0.10503 0.38932 0.22448 0.84721 0.26544 1.0175 0.04097 0.17033 0.16042 0.62822 0.26544 1.0175s0.22501 0.84721 0.26662 1.0175c0.0416 0.17033 0.11855 0.48008 0.17099 0.68835 0.05245 0.20826 0.07066 0.47702 0.04049 0.59724-0.05203 0.20728-0.08801 0.2186-0.69517 0.2186-0.49777 0-0.67131-0.0345-0.77958-0.15484-0.11544-0.12835-0.29897-0.78532-0.64328-2.3027-0.0455-0.20042-0.05162-0.20116-1.4728-0.17696l-1.4272 0.02428-0.24335 1.0374c-0.13384 0.5706-0.29666 1.1579-0.36182 1.3051-0.11713 0.26462-0.12625 0.26766-0.80304 0.26766-0.65734 0-0.68678-0.0088-0.74037-0.22234zm4.5996-3.8322c0.02477-0.04007-0.15836-0.89807-0.40693-1.9067-0.41634-1.6893-0.46648-1.8317-0.63615-1.8074-0.10509 0.0151-0.19504 0.10244-0.20946 0.20341-0.01391 0.09733-0.06407 0.32628-0.1115 0.50877-0.21134 0.81311-0.27066 1.0506-0.48634 1.9472-0.12592 0.52349-0.20452 0.99133-0.17465 1.0397 0.06539 0.10575 1.9603 0.1198 2.025 0.01503zm3.8772 3.9184c-0.06275-0.07114-0.21066-0.12936-0.32869-0.12936-0.27883 0-0.4148-0.262-0.38059-0.73335l0.02706-0.37267h1.4448c1.328 0 1.4549-0.01384 1.5705-0.17175 0.32369-0.44205 0.11201-0.74209-0.97122-1.3767-1.693-0.99182-2.1136-1.4548-2.1136-2.3267 0-1.4325 1.2635-2.0653 3.4761-1.741 1.0156 0.14888 1.1503 0.24078 1.1503 0.78508 0 0.5426-0.10665 0.63486-0.61937 0.53582-0.61182-0.11818-2.1577-0.10358-2.2828 0.02156-0.05836 0.05843-0.10618 0.23433-0.10618 0.39095 0 0.29017 0.05753 0.34373 0.89151 0.82994 1.8866 1.0999 2.2953 1.5395 2.2933 2.4666-0.0014 0.70558-0.39361 1.3197-1.0268 1.6082-0.21363 0.09733-0.38843 0.21577-0.38843 0.26322 0 0.05217-0.49852 0.08495-1.2609 0.08291-0.99202-0.0028-1.2852-0.03096-1.3749-0.13272zm5.6051 6.96e-4c-0.09446-0.07145-0.26228-0.1299-0.37293-0.1299-0.26457 0-0.40066-0.27182-0.36718-0.73336l0.02706-0.373h1.424c1.5579 0 1.7171-0.04515 1.7171-0.48698 0-0.23212-0.4541-0.796-0.64102-0.796-0.04209 0-0.3033-0.15038-0.58045-0.33419-0.27715-0.18381-0.61082-0.38823-0.74147-0.45428-0.75691-0.38261-1.372-1.3183-1.2864-1.9568 0.18446-1.3752 1.5409-1.9463 3.6917-1.5544 0.97791 0.1782 0.9733 0.17485 0.9733 0.70794 0 0.58035-0.08346 0.66628-0.55793 0.57443-0.20412-0.03951-0.79824-0.07358-1.3203-0.0757-0.91171-0.0035-0.95474 0.0049-1.0912 0.21302-0.08154 0.12444-0.11822 0.29211-0.08607 0.39341 0.05036 0.15864 0.82998 0.68592 1.764 1.193 0.5181 0.28129 1.1935 0.92251 1.3393 1.2715 0.07103 0.17 0.12914 0.5187 0.12914 0.77491 0 0.61453-0.39636 1.2364-0.9733 1.527-0.219 0.11031-0.41144 0.23971-0.42766 0.28756-0.01746 0.05155-0.52264 0.08585-1.2387 0.08419-0.92287-0.0021-1.2499-0.0336-1.381-0.13272zm6.7071 0.0028c-0.02804-0.07299-0.10917-0.13272-0.18036-0.13272-0.24852 0-0.89232-0.52676-1.167-0.95489-0.42498-0.66228-0.54065-1.1644-0.54175-2.3515-0.0014-1.3757 0.19328-1.9922 0.83731-2.6536 0.34706-0.35647 0.57355-0.50027 1.0315-0.65487 0.91281-0.3082 1.5442-0.2617 2.45 0.18042 0.53592 0.26159 0.8828 0.63815 1.1778 1.2786 0.24245 0.52641 0.25381 0.60852 0.25381 1.835 0 1.4031-0.10908 1.8772-0.57127 2.4832-0.2616 0.34298-0.93958 0.83777-1.1479 0.83777-0.0764 0-0.1389 0.05975-0.1389 0.13272 0 0.10996-0.16744 0.13272-0.97607 0.13272-0.786 0-0.986-0.02581-1.027-0.13272zm1.6493-1.4298c0.50071-0.29578 0.61924-0.67496 0.61924-1.981 0-1.0885-0.016-1.202-0.21783-1.5464-0.26672-0.45512-0.60397-0.60999-1.203-0.55242-0.53235 0.05113-0.89064 0.34524-1.0439 0.85687-0.05565 0.18572-0.1003 0.77103-0.09923 1.3007 0.0021 1.129 0.16076 1.6011 0.63441 1.8899 0.35932 0.21908 0.96872 0.23408 1.3104 0.03228zm4.8663 1.4759c0-0.04744-0.16922-0.16385-0.37604-0.25867-0.70541-0.3234-1.1944-1.0009-1.3879-1.923-0.15409-0.73412-0.0862-2.4101 0.12142-2.9967 0.50063-1.4146 1.8662-2.0568 3.6408-1.7122 0.28795 0.05593 0.5733 0.14042 0.63413 0.1878 0.13505 0.10518 0.14854 0.96443 0.0172 1.0958-0.0598 0.05983-0.22689 0.06755-0.46453 0.02157-0.64328-0.12453-1.409-0.09133-1.7396 0.07543-0.50019 0.25233-0.64868 0.61567-0.69321 1.6962-0.0489 1.1875 0.0862 1.894 0.42765 2.2354 0.24755 0.24755 0.2554 0.24894 1.406 0.24894h1.1571v0.51424c0 0.46723-0.0239 0.53196-0.26186 0.70785-0.23661 0.17494-0.36884 0.19361-1.3715 0.19361-0.66178 0-1.1096-0.03485-1.1096-0.08627zm3.9145-0.08949c-0.0822-0.13164-0.10976-0.99542-0.10976-3.4405v-3.2647l0.19908-0.05336c0.25596-0.06859 0.85006-0.06859 1.106 0l0.19909 0.05336v3.3343c0 2.4754-0.0273 3.3616-0.10618 3.4405-0.0592 0.0592-0.3433 0.10618-0.64232 0.10618-0.43911 0-0.55602-0.03179-0.64592-0.17576zm3.6065 0.04306c0-0.07299-0.0578-0.13272-0.12847-0.13272-0.22649 0-0.74377-0.6243-0.8953-1.0805-0.29497-0.88802-0.0289-1.8387 0.64834-2.3173 0.53771-0.37992 0.71453-0.42458 1.9238-0.48583l1.0618-0.05377-0.0226-0.35393c-0.0753-1.1772-0.17544-1.2379-1.9351-1.172-0.84936 0.03179-1.2867 0.01572-1.3521-0.04967-0.15697-0.15697-0.11768-0.81132 0.0582-0.969 0.10218-0.09161 0.50736-0.17725 1.1913-0.2518 1.1026-0.12018 1.9235-0.03764 2.4923 0.25058 0.40643 0.20594 0.89313 0.75904 1.0094 1.1471 0.1585 0.52901 0.14461 5.2351-0.0161 5.4468-0.15228 0.2006-1.204 0.22939-1.204 0.03297 0-0.26529-0.24769-0.3547-0.63164-0.22798-0.19825 0.06539-0.38039 0.17092-0.40476 0.23441-0.0323 0.08419-0.28138 0.11546-0.91966 0.11546-0.7191 0-0.87535-0.02365-0.87535-0.13273zm2.2035-1.3341 0.34897-0.13962 0.0311-0.67883c0.0171-0.37335-5e-3 -0.7286-0.0483-0.78942-0.19005-0.26471-1.6462-0.05169-1.8744 0.27423-0.18244 0.26047-0.1718 1.1033 0.0166 1.3115 0.1885 0.2083 1.0304 0.22053 1.5262 0.02219zm4.875 1.3341c0-0.07299-0.0592-0.13272-0.13147-0.13272-0.0723 0-0.24153-0.16619-0.37604-0.36932l-0.24459-0.36933-0.0442-2.3957-0.0442-2.3957-0.53089-0.0733c-0.71945-0.09933-0.79182-0.14958-0.82327-0.57151-0.0341-0.45865 0.15545-0.5775 0.85438-0.53548l0.49978 0.03005 0.0262-0.59658c0.0293-0.6674-0.0228-0.62306 0.90291-0.76892 0.3147-0.0496 0.52574-0.04473 0.59726 0.01377 0.0701 0.05732 0.1106 0.32652 0.1106 0.73481v0.64439l0.51383-0.04661c0.6136-0.05565 0.81339 0.08244 0.81339 0.56216 0 0.55624-0.11039 0.65147-0.75521 0.65147h-0.57201v2.157c0 1.6486 0.0268 2.1792 0.11366 2.2513 0.0625 0.0519 0.35118 0.10653 0.64149 0.12144l0.52783 0.02713 0.0289 0.30374c0.0159 0.16707 4e-3 0.43583-0.0262 0.59725l-0.055 0.29351h-1.0135c-0.84192 0-1.0135-0.02247-1.0135-0.13273zm3.0305-0.10681c-0.082-0.17652-0.1106-1.0571-0.1106-3.4027 0-3.0382 7e-3 -3.1682 0.17115-3.2562 0.23555-0.12607 1.1852-0.11554 1.3153 0.01461 0.1616 0.1616 0.14556 6.5149-0.017 6.729-0.0905 0.1192-0.24768 0.15468-0.68292 0.15415-0.52712-6.95e-4 -0.57286-0.01683-0.67598-0.23884zm4.4904 0.15519c0-0.0464-0.16921-0.16165-0.37604-0.25614-1.0836-0.49501-1.5706-1.5115-1.5706-3.2784 0-0.98842 0.0579-1.2832 0.38316-1.9486 0.5736-1.1737 2.0534-1.7765 3.376-1.3753 0.85911 0.26059 1.3844 0.71478 1.7872 1.5454 0.22123 0.45609 0.23645 0.56719 0.24257 1.7696 6e-3 1.2499-0.0196 1.4168-0.32957 2.1235-0.15869 0.36174-0.78704 0.97352-1.1902 1.1588-0.20683 0.09505-0.37605 0.21165-0.37605 0.2591 0 0.05078-0.40006 0.08627-0.9733 0.08627-0.55802 0-0.9733-0.03597-0.9733-0.08435zm1.5864-1.4608c0.13772-0.07122 0.34347-0.28025 0.45722-0.46452 0.18955-0.30704 0.20708-0.43489 0.20974-1.5295 3e-3 -1.2708-0.06-1.5189-0.48398-1.9026-0.15501-0.14028-0.31972-0.17676-0.79826-0.17676-0.51422 0-0.63613 0.03116-0.8284 0.2118-0.37572 0.35298-0.51644 0.94451-0.48154 2.0244 0.035 1.0831 0.19298 1.5264 0.64142 1.7999 0.3274 0.19966 0.93572 0.21735 1.2838 0.03736zm3.3907 1.3057c-0.0819-0.17631-0.1106-1.0476-0.1106-3.3553 0-3.5372-0.0288-3.3961 0.69205-3.394 0.58381 0.0014 0.81214 0.07889 0.81214 0.27456 0 0.20492 0.10319 0.20935 0.46892 0.02011 0.78141-0.40428 1.6633-0.47798 2.4039-0.20088 0.66965 0.25055 1.0037 0.7149 1.1921 1.6568 0.13695 0.68499 0.12342 4.6966-0.0168 4.9986-0.10488 0.22585-0.14322 0.23819-0.74177 0.23884-0.57466 6.95e-4 -0.63758-0.01711-0.70275-0.19839-0.0394-0.10949-0.0938-1.3223-0.12093-2.695-0.0467-2.3615-0.0589-2.5031-0.2263-2.6295-0.34039-0.25699-0.75256-0.26932-1.4144-0.04236l-0.62064 0.21284-0.0442 2.4775c-0.0529 2.9637-0.026 2.876-0.88397 2.875-0.53863-6.96e-4 -0.58315-0.01614-0.68658-0.23884zm-23.29-7.8062c-0.14541-0.2717-0.11399-1.121 0.0474-1.2825 0.17103-0.17102 1.2726-0.19624 1.4359-0.03283 0.0611 0.06115 0.10618 0.35393 0.10618 0.69016 0 0.33623-0.0451 0.62902-0.10618 0.69016-0.0631 0.0631-0.36699 0.10618-0.74898 0.10618-0.54496 0-0.65674-0.02602-0.73439-0.17114zm13.761-0.02553c-0.0758-0.10816-0.13774-0.37802-0.13774-0.59969 0-0.22167 0.062-0.49152 0.13774-0.59968 0.11962-0.17077 0.21776-0.19665 0.74578-0.19665 0.77782 0 0.88611 0.09732 0.88611 0.79633 0 0.69901-0.10829 0.79633-0.88611 0.79633-0.52802 0-0.62616-0.02588-0.74578-0.19664zm-40.574-7.0737c-0.54167-0.1613-1.2705-0.45849-1.6669-0.67967-1.0417-0.58129-2.1447-1.978-2.5608-3.2429-0.38273-1.1633-0.46191-1.9414-0.46024-4.5228 0.0021-3.4775 0.24473-4.6778 1.2416-6.1457 0.61221-0.90151 1.8091-1.8036 2.8713-2.164 0.8905-0.30217 2.9607-0.40709 4.3186-0.21887 0.34997 0.04849 0.97476 0.13129 1.3884 0.18396 0.41365 0.05266 0.8815 0.15169 1.0397 0.22005l0.28756 0.1243v1.0081c0 0.7932-0.02859 1.0319-0.13423 1.1195-0.10043 0.08335-0.40674 0.09715-1.2166 0.05482-3.7955-0.19854-4.1712-0.18569-4.9795 0.1703-0.64739 0.28512-1.2563 1.1884-1.5064 2.2348-0.16889 0.70646-0.17089 6.045-0.0028 6.741 0.34073 1.4086 1.0266 2.2348 2.1008 2.5306 0.5532 0.15232 2.5496 0.08804 2.6625-0.08573 0.03576-0.05503 0.0656-1.3979 0.06636-2.9841 0.0014-2.6807 0.01273-2.8944 0.16316-3.0305 0.13372-0.12101 0.36886-0.14643 1.3546-0.14643 0.81483 0 1.2405 0.03506 1.3435 0.1106 0.13882 0.10186 0.14889 0.43556 0.12752 4.2246l-0.02323 4.114-0.35393 0.11652c-0.19466 0.06407-0.61273 0.15754-0.92905 0.20766-0.81196 0.12864-4.7468 0.17456-5.1319 0.05989zm11.703-0.02943c-0.73462-0.1794-1.6083-0.64648-2.13-1.1388-0.50191-0.47357-1.1669-1.3749-1.1669-1.5815 0-0.06595-0.0329-0.15771-0.0731-0.20394-0.06894-0.07929-0.13644-0.29465-0.3623-1.1561-0.14129-0.53889-0.11846-4.1175 0.03012-4.7235 0.51386-2.0957 1.755-3.4335 3.6706-3.9567 0.71976-0.19659 2.5478-0.1866 3.2381 0.01767 1.9396 0.57407 3.1199 1.8533 3.6342 3.939 0.16623 0.67416 0.16623 4.1923 0 4.8665-0.26258 1.0649-0.68013 1.8573-1.3584 2.5779-0.60936 0.64738-1.4309 1.1235-2.3464 1.3598-0.62982 0.16257-2.4695 0.16238-3.1357-3.55e-4zm2.5235-2.5702c0.61734-0.25718 1.076-0.81384 1.3378-1.6237 0.12858-0.39776 0.1296-3.9512 0.0014-4.3534-0.20597-0.64556-0.48881-1.0938-0.85188-1.3501-0.90066-0.63567-1.8376-0.66425-2.7697-0.08449-0.43922 0.2732-0.73488 0.71286-0.9647 1.4346-0.12816 0.40246-0.12697 3.9561 0.0014 4.3534 0.25814 0.79856 0.71429 1.359 1.3185 1.62 0.41335 0.17854 1.5025 0.18061 1.9273 0.0035zm9.1771 2.5983c-0.45666-0.16949-1.0023-0.59312-1.2645-0.98173-0.29074-0.43091-0.40222-0.69779-0.59958-1.4353-0.14246-0.53238-0.22742-0.83904-0.39217-1.4157-0.2348-0.82178-0.28266-0.99528-0.35393-1.283-0.0762-0.30779-0.20479-0.77522-0.3528-1.283-0.0426-0.146-0.16251-0.58398-0.26657-0.9733-0.10405-0.38932-0.22281-0.8273-0.26389-0.9733-0.0411-0.14599-0.13488-0.48443-0.20844-0.75209-0.0735-0.26766-0.31589-1.1333-0.53854-1.9237-0.22266-0.7904-0.40483-1.4545-0.40483-1.4757 0-0.02129 0.0625-0.10122 0.13904-0.1777 0.11266-0.11266 0.36556-0.13904 1.333-0.13904 0.65669 0 1.2638 0.03736 1.3492 0.08305 0.15329 0.08204 0.26716 0.37906 0.44307 1.1557 0.0496 0.21899 0.15047 0.65697 0.22416 0.9733 0.0737 0.31632 0.27569 1.1923 0.44892 1.9466 0.17323 0.7543 0.37524 1.6303 0.44893 1.9466 0.0737 0.31632 0.16986 0.7344 0.21373 0.92906 0.0439 0.19466 0.15923 0.69237 0.25632 1.106 0.0971 0.41365 0.22383 0.97108 0.28164 1.2387 0.18616 0.86208 0.30371 1.1032 0.55259 1.1334 0.33019 0.04014 0.31116 0.08991 0.8561-2.2395 0.10248-0.43798 0.2463-1.0551 0.3196-1.3715 0.0733-0.31632 0.21294-0.91358 0.31029-1.3272 0.0973-0.41365 0.21184-0.91136 0.25444-1.106 0.0426-0.19466 0.11812-0.5331 0.16781-0.75209 0.0497-0.219 0.13661-0.61716 0.19313-0.88482 0.0566-0.26766 0.1381-0.57811 0.18128-0.68989 0.0432-0.11179 0.0785-0.28814 0.0785-0.39189 0-0.18081 0.0275-0.29209 0.26832-1.086 0.19659-0.64808 0.23324-0.66361 1.5651-0.66361 0.65263 0 1.2636 0.04118 1.3578 0.09159 0.18455 0.09877 0.22138 0.39281 0.0905 0.7227-0.0443 0.11179-0.16781 0.54169-0.27436 0.95534-0.10656 0.41365-0.22493 0.85164-0.26305 0.9733-0.0381 0.12166-0.11394 0.38047-0.16852 0.57513-0.237 0.84541-1.097 3.9359-1.2188 4.3798-0.0734 0.26766-0.16714 0.6061-0.20823 0.75209-0.041 0.146-0.15983 0.58398-0.26388 0.9733-0.51443 1.9248-0.66685 2.2856-1.1646 2.7573-0.56643 0.53675-0.99539 0.69139-1.9765 0.71249-0.48665 0.0105-1.0043-0.02532-1.1503-0.07948zm10.927-0.0021c-1.5893-0.45544-2.5687-1.1691-3.3748-2.4591-0.1729-0.27668-0.46299-1.1296-0.60192-1.7696-0.12643-0.58248-0.0812-3.992 0.061-4.601 0.3027-1.2962 0.92121-2.3437 1.7824-3.0183 0.97408-0.76316 1.9582-1.0752 3.409-1.0809 1.511-0.0063 2.4563 0.26557 3.3806 0.9711 1.0186 0.77752 1.5766 1.6979 1.9768 3.2609 0.13132 0.51285 0.11969 3.0776-0.0145 3.2119-0.0793 0.07928-1.0657 0.10618-3.8932 0.10618h-3.787v0.414c0 1.0357 0.57019 1.9567 1.4441 2.3327 0.43197 0.18583 0.52262 0.19063 2.6207 0.13868 1.1953-0.02956 2.3793-0.0774 2.6313-0.10623 0.44232-0.05064 0.46284-0.0432 0.59725 0.21673 0.16061 0.31062 0.18501 1.2154 0.0463 1.7151-0.0705 0.25396-0.14774 0.34331-0.33132 0.38343-0.13165 0.0288-0.2908 0.06831-0.35366 0.08782-0.0629 0.01955-0.51783 0.09583-1.011 0.16958-1.0217 0.15277-4.0802 0.17097-4.5817 0.02727zm3.7346-7.5749c0.11024-0.10887-0.086-1.1495-0.29616-1.5702-0.58355-1.1684-1.962-1.5881-3.2055-0.9759-0.54412 0.2679-0.84649 0.62869-1.1035 1.3167-0.16848 0.45102-0.25759 1.2057-0.15458 1.3092 0.063 0.06323 4.6935-0.01433 4.7597-0.07967zm45.557 7.5491c-1.7876-0.44863-3.3017-1.913-3.7052-3.5836-0.0529-0.219-0.13845-0.58502-0.19012-0.8134-0.14501-0.64097-0.11846-3.3597 0.0403-4.1204 0.21917-1.0505 0.52837-1.8362 0.92759-2.357 0.69066-0.90092 1.4133-1.4212 2.4921-1.7942 0.57327-0.19823 0.79357-0.22459 1.8878-0.22589 1.102-0.0014 1.3104 0.02344 1.8877 0.22442 0.89064 0.30999 1.5409 0.72078 2.0884 1.3192 0.46363 0.50682 0.91805 1.3092 1.1166 1.9718 0.0584 0.19465 0.14382 0.45203 0.18996 0.57194 0.0461 0.1199 0.10668 0.86057 0.13452 1.6459 0.0488 1.3771 0.0439 1.4347-0.13944 1.618-0.18849 0.18848-0.22159 0.19008-3.9505 0.19008h-3.7605v0.32154c0 0.69768 0.4002 1.6763 0.83519 2.0423 0.58776 0.49458 0.88935 0.55597 2.7335 0.55652 0.93276 2.64e-4 2.1031-0.04661 2.6007-0.10416 0.83812-0.09695 0.91796-0.09272 1.0839 0.05746 0.15506 0.14032 0.17896 0.27025 0.17784 0.96685-1e-3 0.99632-0.1 1.2206-0.57586 1.3134-1.1415 0.2224-1.6012 0.26143-3.4045 0.28905-1.4707 0.02254-2.116-6.95e-4 -2.4698-0.08972zm3.8463-7.9413c-0.10319-0.85916-0.23972-1.2125-0.64097-1.6587-1.1041-1.2281-3.1045-0.96259-3.8677 0.51332-0.17216 0.33294-0.36155 1.282-0.29199 1.4633 0.0505 0.13159 0.30312 0.14668 2.4564 0.14668h2.4001zm19.726 7.9743c-0.8244-0.28935-1.2263-0.61027-1.5082-1.2043-0.35839-0.75525-0.38774-1.1561-0.39102-5.3401l-3e-3 -4.0338-0.77421-0.10934c-0.99983-0.1412-1.5404-0.26314-1.68-0.37897-0.0724-0.0601-0.11174-0.33353-0.11174-0.77607 0-0.95922 0.0251-0.97617 1.4448-0.97617h1.1212v-1.0155c0-0.98006 8e-3 -1.0205 0.2168-1.1576 0.11925-0.07813 0.73291-0.22618 1.3637-0.329 0.95505-0.15568 1.1704-0.16744 1.2874-0.07035 0.11599 0.09625 0.14049 0.33081 0.14049 1.3445v1.2279l1.0839 0.0028c1.4369 0.0042 1.4821 0.03729 1.4821 1.0941 0 1.1042-0.0138 1.115-1.4354 1.115h-1.1306v4.0161c0 3.8222 8e-3 4.0262 0.16913 4.225 0.15867 0.19598 0.23792 0.21082 1.283 0.2401l1.1139 0.03124v0.94999c0 0.94788-7e-4 0.95027-0.24332 1.0716-0.30696 0.15344-3.0338 0.21115-3.4286 0.07256zm-64.586-0.27395c-0.12136-0.17328-0.13774-0.90765-0.13774-6.1783v-5.9816l0.20479-0.19239c0.18712-0.1758 0.29775-0.19238 1.283-0.19238 0.96022 0 1.0976 0.01934 1.2552 0.17696 0.0973 0.09733 0.17696 0.2765 0.17696 0.39816 0 0.2675 0.18389 0.28882 0.51723 0.05996 0.62446-0.42874 1.5256-0.71425 2.3528-0.74541 0.79692-0.03005 0.8462 0.0409 0.8462 1.2178 0 0.82293-0.0168 0.91254-0.20479 1.0891-0.16219 0.15238-0.3127 0.19239-0.72369 0.19239-0.28539 0-0.64118 0.03729-0.79063 0.0829-0.14945 0.04556-0.47081 0.14068-0.71413 0.21131-0.24332 0.07063-0.61162 0.20199-0.81845 0.2919l-0.37605 0.16349v4.6952c0 3.5338-0.0263 4.7214-0.10617 4.8014-0.0727 0.07265-0.50422 0.10618-1.3664 0.10618-1.202 0-1.2666-0.0091-1.398-0.19664zm7.6181 0.03485c-0.13326-0.14725-0.14643-0.70725-0.14643-6.2242 0-5.7608 8e-3 -6.0697 0.1618-6.2089 0.13269-0.12008 0.35962-0.14593 1.2609-0.14362 1.234 0.0035 1.4087 0.06713 1.4087 0.51571 0 0.3538 0.13188 0.35707 0.78395 0.01934 1.0465-0.54197 1.541-0.65574 2.8438-0.65425 1.0146 0.0014 1.2698 0.03047 1.6946 0.19471 0.94633 0.36585 1.6368 1.0801 1.9774 2.0454 0.32797 0.92957 0.38467 1.803 0.394 6.0688 8e-3 3.6552-8e-3 4.1743-0.13116 4.3497-0.13411 0.19039-0.19463 0.19908-1.3863 0.19908-1.083 0-1.2615-0.02024-1.3636-0.15484-0.0939-0.12376-0.1181-1.027-0.12035-4.4994-3e-3 -4.2622-0.0215-4.5895-0.29479-5.1531-0.17897-0.36904-0.6743-0.545-1.5342-0.545-0.87008 0-1.1732 0.0743-2.2203 0.54429l-0.46297 0.2078-1e-3 4.6537c-1e-3 4.3949-0.0106 4.6618-0.16338 4.8001-0.13373 0.12106-0.36904 0.14643-1.3577 0.14643-1.0462 0-1.2143-0.02024-1.3424-0.16181zm12.033 0c-0.13324-0.14723-0.14643-0.70513-0.14643-6.1937 0-5.9139 3e-3 -6.0354 0.17696-6.2089 0.15741-0.1574 0.29494-0.17696 1.2446-0.17696 0.58718 0 1.1446 0.04118 1.2387 0.09159 0.11866 0.06351 0.17115 0.18563 0.17115 0.39817 0 0.38864 0.11498 0.39289 0.82819 0.03061 1.0774-0.54726 1.4306-0.63777 2.4899-0.63793 1.0388-1.74e-4 1.6274 0.16251 2.2173 0.61281 0.21694 0.16559 0.43885 0.30108 0.49314 0.30108 0.0543 0 0.41201-0.14147 0.79495-0.31437 1.0756-0.48565 1.5728-0.58922 2.8653-0.59683 1.1247-7e-3 1.1637-3.48e-4 1.7562 0.28389 1.0593 0.50818 1.5266 1.1486 1.878 2.5739 0.1644 0.6667 0.18283 9.7295 0.0201 9.8922-0.15237 0.15237-2.599 0.14836-2.6979-0.0042-0.0394-0.0608-0.0915-2.1612-0.11582-4.6674-0.0421-4.3353-0.0529-4.574-0.22159-4.9101-0.37479-0.74654-1.4383-0.86438-3.0522-0.3382-0.54224 0.17678-0.54909 0.19216-0.44717 1.005 0.0526 0.4195 0.0932 2.4337 0.0932 4.6214 0 3.3029-0.02 3.9165-0.135 4.1388l-0.13499 0.26105h-1.263c-0.86437 0-1.2965-0.03353-1.3692-0.10618-0.0795-0.07948-0.10618-1.1239-0.10618-4.155 0-4.1132-0.0658-5.2155-0.33601-5.6308-0.41202-0.63324-1.7577-0.58692-3.099 0.10666l-0.28124 0.14543-3e-3 4.6651c-2e-3 3.7389-0.0262 4.6959-0.12035 4.82-0.10209 0.13448-0.28024 0.15484-1.3549 0.15484-1.0864 0-1.2553-0.01976-1.3838-0.16181zm29.544-0.03485c-0.12137-0.17328-0.13773-0.90752-0.13773-6.177 0-5.8961 3e-3 -5.9831 0.18041-6.174 0.16695-0.1792 0.26268-0.19365 1.283-0.19365 0.9846 0 1.1215 0.01892 1.2795 0.17696 0.0973 0.09733 0.17696 0.2765 0.17696 0.39816 0 0.2859 0.12607 0.27932 0.71426-0.03729 0.9504-0.51158 1.5961-0.65697 2.9135-0.65603 1.1822 6.96e-4 1.2014 0.0042 1.8581 0.31335 0.94683 0.44587 1.4801 1.0563 1.7619 2.0169 0.0643 0.21899 0.15859 0.51761 0.20966 0.66361 0.0582 0.1662 0.10707 1.9784 0.13093 4.8469 0.0342 4.1146 0.0235 4.6037-0.10519 4.8001-0.141 0.21518-0.16296 0.21869-1.3692 0.21869-1.0318 0-1.2451-0.02316-1.3473-0.14618-0.0981-0.11815-0.12992-1.0215-0.16567-4.7116-0.0426-4.3997-0.0508-4.5767-0.22554-4.8751-0.26847-0.4586-0.65298-0.61081-1.5441-0.61121-0.89234-4.45e-4 -1.607 0.1795-2.398 0.60365l-0.30071 0.16126-0.0229 4.6287c-0.0206 4.1523-0.0379 4.6453-0.16856 4.7896-0.12739 0.14076-0.29853 0.16092-1.3656 0.16092-1.1604 0-1.2267-0.0096-1.3578-0.19664zm-64.906-20.066-32.605-0.044243-0.38772-0.2212c-0.41682-0.23781-0.87822-0.7246-1.0654-1.124-0.06379-0.13609-0.15113-0.31657-0.19412-0.40108-0.04431-0.08714-0.07816-6.7762-0.07816-15.454v-15.301l0.27728-0.54175c0.26713-0.52195 0.87302-1.1547 1.1057-1.1547 0.06184 0 0.14585-0.05976 0.18674-0.13285 0.06595-0.11781 3.6002-0.13033 31.235-0.1106l31.161 0.02226-0.59717 0.61937c-1.5864 1.6453-2.5108 3.1795-2.889 4.7946-0.0776 0.33154-0.17966 0.74677-0.22673 0.92274-0.0471 0.17597-0.0856 0.98759-0.0856 1.8036 0 1.3421-0.0577 1.8605-0.26625 2.389-0.0384 0.09733-0.12164 0.31632-0.185 0.48664-0.19619 0.52746-0.59536 1.1452-1.3102 2.0276-1.4753 1.8211-1.8882 2.5385-1.8486 3.2119 0.0251 0.4262 0.0459 0.46117 0.37677 0.63241 0.32479 0.16811 0.52807 0.21402 1.6599 0.3749 0.23298 0.03311 0.48372 0.1326 0.5675 0.22517 0.1726 0.19072 0.14449 0.26713-0.43156 1.1733-0.27319 0.42972-0.33216 0.60334-0.33216 0.97786 0 0.42088 0.0305 0.4868 0.40328 0.8703l0.40328 0.41492-0.24694 0.32376c-0.2091 0.27414-0.24717 0.40891-0.24844 0.87937l-1e-3 0.55562 0.46452 0.43403c0.3501 0.3271 0.46453 0.49613 0.46453 0.68608 0 0.21884-0.21094 0.94384-0.4372 1.5026-0.0394 0.09733-0.11643 0.28833-0.17115 0.42445-0.0548 0.13612-0.0995 0.55965-0.0995 0.94118 0 0.63546 0.0241 0.72977 0.28757 1.1235 0.2206 0.32977 0.42146 0.49674 0.86269 0.71717 0.31632 0.15802 0.68724 0.28761 0.82426 0.28799 0.13704 3.55e-4 0.31621 0.03569 0.39817 0.07843 0.082 0.04278 0.68656 0.10258 1.3435 0.13293 3.4064 0.15738 3.4545 0.16181 3.5424 0.32608 0.0459 0.08577 0.10493 0.56747 0.13119 1.0704 0.0743 1.4232 0.32045 2.6154 0.81213 3.9336 0.0204 0.05454-0.0151 0.11428-0.0787 0.13272-0.0636 0.01843-14.788 0.01364-32.721-0.01071zm-21.897-3.4268c0.57644-0.06483 1.1004-0.16138 1.1644-0.2145 0.16078-0.13344 0.16593-2.1559 0.0056-2.2596-0.0608-0.03937-1.4046-0.09149-2.9862-0.11582-2.6714-0.04111-2.897-0.05683-3.1761-0.2212-0.38651-0.22766-0.61996-0.54508-0.72087-0.98014-0.04424-0.1909-0.08145-3.1311-0.0826-6.5338-0.0021-5.6308-0.01523-6.2013-0.14855-6.3485-0.1297-0.14332-0.30103-0.16181-1.4992-0.16181-1.2976 0-1.3583 8e-3 -1.4905 0.19665-0.12147 0.17342-0.13756 0.91795-0.13619 6.3043 0.0014 6.3206 0.0345 7.0051 0.38317 7.9778 0.45926 1.2811 1.4898 2.0472 3.1988 2.3779 0.79518 0.15388 4.0437 0.14134 5.488-0.02115zm8.9511 0.0137c1.6236-0.37526 2.8803-1.4426 3.4821-2.9575 0.3609-0.90848 0.43868-1.532 0.43868-3.5158 0-1.8842-0.0426-2.2587-0.36653-3.2233-0.45333-1.3498-1.4723-2.4479-2.7303-2.9424-1.3318-0.52354-3.3831-0.52528-4.6895-0.0042-1.0292 0.41069-2.0475 1.3508-2.492 2.3006-0.53229 1.1375-0.63062 1.8774-0.58161 4.3766 0.03471 1.7696 0.06108 2.0547 0.23719 2.566 0.61815 1.7941 1.876 2.9815 3.6008 3.399 0.71672 0.17349 2.3526 0.174 3.1012 6.96e-4zm-2.5146-2.7055c-1.133-0.54956-1.479-1.5288-1.4184-4.0143 0.04125-1.6899 0.15036-2.1781 0.62681-2.8035 0.4595-0.60321 0.93682-0.82267 1.7853-0.82083 0.85734 0.0021 1.322 0.20937 1.7354 0.77509 0.54376 0.74405 0.69156 1.4101 0.69156 3.1166 0 2.285-0.42902 3.3339-1.5562 3.8049-0.46471 0.19417-1.405 0.16498-1.8645-0.05788zm14.951 2.7138c0.47435-0.07151 0.9621-0.1953 1.0839-0.2751 0.21475-0.14071 0.22145-0.17549 0.22145-1.1493 0-0.87162-0.0207-1.0154-0.1572-1.0884-0.0997-0.05336-0.65853-0.05183-1.5263 0.0042-1.5893 0.10238-2.2538 0.05669-2.7331-0.18778-0.37452-0.19107-0.8473-0.70798-0.92301-1.0092-0.27595-1.0978-0.31723-1.4495-0.32009-2.7272-6e-3 -2.5011 0.35903-3.4585 1.4765-3.8766 0.55647-0.2082 1.2543-0.22684 2.8299-0.07556 0.86852 0.08339 1.1066 0.08147 1.2166-0.0098 0.17759-0.14738 0.19937-1.9284 0.0262-2.1392-0.35501-0.43206-3.2868-0.67314-4.6837-0.38515-1.8815 0.38788-3.2346 1.7258-3.713 3.6713-0.16499 0.67101-0.1687 5.0059-5e-3 5.5743 0.59261 2.0549 1.6263 3.1378 3.4686 3.6339 0.73829 0.19878 2.555 0.21811 3.7381 0.03979zm7.9777-0.09035c0.37302-0.12177 0.87449-0.32085 1.1144-0.44241 0.23987-0.12156 0.45737-0.22101 0.48332-0.22101 0.026 0 0.0472 0.11148 0.0472 0.24775 0 0.42399 0.11236 0.46011 1.4314 0.46011 1.1965 0 1.2216-0.0042 1.3612-0.21708 0.12729-0.19427 0.13843-0.70335 0.10597-4.8444-0.0321-4.0904-0.0541-4.682-0.19001-5.099-0.61901-1.8994-2.2295-2.8469-4.8374-2.846-1.4924 5.36e-4 -3.4564 0.2185-4.0427 0.44865-0.19024 0.07468-0.19909 0.12294-0.19909 1.0867 0 0.78783 0.029 1.0327 0.1325 1.1186 0.10404 0.08634 0.33686 0.08862 1.0839 0.01057 0.52327-0.05468 1.5885-0.09814 2.3671-0.09663 1.2919 0.0028 1.4505 0.02024 1.8139 0.20325 0.58056 0.29238 0.78793 0.75365 0.79269 1.7632l3e-3 0.77421-0.95117 0.0021c-3.4383 0.0087-5.2396 0.77824-5.8185 2.4859-0.22431 0.66167-0.22961 2.4974-9e-3 3.1303 0.538 1.5436 1.6674 2.2313 3.6927 2.2484 0.77743 0.0063 1.0571-0.03033 1.6181-0.21348zm-1.7616-2.3405c-0.0973-0.04028-0.27651-0.18036-0.39817-0.31134-0.20255-0.21805-0.2212-0.30654-0.2212-1.0493 0-0.70823 0.0262-0.84796 0.20653-1.1008 0.11359-0.15926 0.35249-0.36341 0.53089-0.45366 0.46364-0.23457 1.4422-0.38152 2.3152-0.3477l0.7521 0.02915 0.0243 1.3831 0.0243 1.3831-0.37823 0.15276c-0.20803 0.08402-0.55742 0.20776-0.77641 0.27497-0.4313 0.13238-1.7924 0.15838-2.0793 0.03972zm10.611 2.2459c0.12444-0.12444 0.13904-1.018 0.13904-8.5094 0-7.6645-0.0124-8.384-0.14644-8.5321-0.12843-0.14191-0.29705-0.16181-1.3715-0.16181-1.107 0-1.2421 0.01704-1.402 0.17696-0.17445 0.17445-0.17696 0.29494-0.17696 8.4745 0 7.3667 0.0154 8.3196 0.13774 8.4942 0.13147 0.1877 0.1956 0.19665 1.4094 0.19665 1.0381 0 1.2972-0.02553 1.4107-0.13905zm24.698 3.3939c-0.076-0.10857-0.13826-0.25538-0.13826-0.32627 0-0.07088-0.0396-0.25115-0.088-0.40059-0.0484-0.14945-0.2707-0.9088-0.49401-1.6874-0.75062-2.6173-1.2413-3.9168-1.5875-4.2044-0.12746-0.10593-0.64474-0.14225-2.6883-0.1888-2.6229-0.05976-3.179-0.11971-3.846-0.41474-0.75632-0.33456-0.87592-0.77257-0.50553-1.8513 0.14997-0.43677 0.27267-0.9463 0.27267-1.1323 0-0.29552-0.0607-0.39453-0.48121-0.78583-0.57671-0.53654-0.6544-0.77845-0.44081-1.3724l0.15837-0.44039-0.23754-0.22015c-0.13065-0.12108-0.24078-0.25191-0.24473-0.29073-4e-3 -0.03882-0.019-0.19004-0.0335-0.33603-0.0161-0.16208 0.0901-0.51482 0.27263-0.90587 0.16441-0.35222 0.29892-0.71167 0.29892-0.79876 0-0.26594-0.23395-0.51485-0.96616-1.0279-0.3857-0.27027-0.72528-0.56704-0.75462-0.65948-0.0747-0.23549 0.0465-0.50606 0.50588-1.1287 0.75858-1.0283 2.4241-3.5325 2.5347-3.811 0.0783-0.19724 0.0964-0.58939 0.0614-1.3272-0.15001-3.1628-0.15564-3.5517-0.0606-4.1849 0.38157-2.5416 1.4971-5.2619 2.6956-6.5732l0.22239-0.24332h6.2878l-0.12764 0.28756c-0.0702 0.15816-0.2519 0.70564-0.40375 1.2166-0.27261 0.91728-0.31492 1.0783-0.53472 2.0351-0.14729 0.64112-0.14664 2.6839 7e-4 3.1262 0.10027 0.30043 0.0914 0.39876-0.0784 0.86429-0.21224 0.5821-0.78142 1.5349-1.6724 2.7996-1.0943 1.5532-1.2609 1.8592-1.2717 2.3353-0.0129 0.56596 0.23993 0.83694 1.2377 1.3266 0.57145 0.28046 0.78908 0.44102 0.9558 0.7051 0.36551 0.57903 0.26776 1.3581-0.22655 1.8054-0.25384 0.22973-0.44241 0.60005-0.44241 0.86886 0 0.11772 0.16374 0.41969 0.36387 0.67103l0.36386 0.457-0.22095 0.32878c-0.4213 0.62691-0.38166 1.1869 0.12526 1.7697 0.28504 0.32774 0.30378 0.56498 0.17265 2.1868-0.0394 0.48664-0.0407 0.98435-3e-3 1.106 0.0377 0.12166 0.0909 0.32446 0.11829 0.45067 0.0618 0.2849 0.43303 0.66399 0.86712 0.88545 0.22931 0.11699 0.51203 0.16757 0.93022 0.16643 0.9772-0.0028 4.6129 0.17836 5.3788 0.2678 0.38932 0.0455 1.1391 0.1299 1.6661 0.18764 1.3224 0.14486 1.2401-0.03777 1.3078 2.9043 0.0297 1.2919 0.0994 2.568 0.15484 2.8356 0.0554 0.26766 0.13628 0.66582 0.17962 0.88482 0.0433 0.21899 0.12897 0.61715 0.1903 0.88481 0.0614 0.26766 0.11546 0.62601 0.12029 0.79633l9e-3 0.30969-9.7661 0.04578-0.13826-0.1974z" fill="#fff" stroke-width=".088482"/></svg>
