<?xml version="1.0" encoding="UTF-8"?>
<svg enable-background="new 0 0 368.5 180.1" version="1.1" viewBox="0 0 250 91" xml:space="preserve" xmlns="http://www.w3.org/2000/svg" xmlns:cc="http://creativecommons.org/ns#" xmlns:dc="http://purl.org/dc/elements/1.1/" xmlns:rdf="http://www.w3.org/1999/02/22-rdf-syntax-ns#"><metadata><rdf:RDF><cc:Work rdf:about=""><dc:format>image/svg+xml</dc:format><dc:type rdf:resource="http://purl.org/dc/dcmitype/StillImage"/><dc:title/></cc:Work></rdf:RDF></metadata><path d="m102.23 59.548c-3.52-0.946-6.394-4.146-6.91-7.73 2.163-1.83 6.07-2.309 6.56 1.346 2.72 4.62 9.76 0.1 6.22-4.145-3-3.524-8.212-4.364-10.903-8.294-3.061-4.012-1.002-10.64 3.873-12.116 4.14-1.611 9.29-0.493 11.85 3.316 3.57 3.002-1.2 5.061-3.9 4.457-0.33-3.795-6.71-5.065-7.42-0.806 0 3.603 4.35 4.625 6.76 6.435 3.22 1.914 6.64 4.762 6.39 8.916 0.35 4.398-3.12 8.3-7.46 8.754-1.67 0.315-3.44 0.273-5.06-0.133zm-82.332-15.722v-15.471h5.722v25.991h9.488v4.95h-15.21v-15.47zm16.861 0v-15.471h16.13c-0.08 1.719-0.165 3.438-0.247 5.157-3.371 0.08-6.737 0.144-10.108 0.223v7.013h7.839v5.363h-7.839v8.251h10.727v4.951h-16.502v-15.487zm18.977 0v-15.471h16.131c-0.08 1.719-0.165 3.438-0.248 5.157-3.519 0.09-7.034 0.14-10.553 0.227 0.08 2.269 0.161 4.538 0.239 6.807 2.682 0.08 5.363 0.159 8.045 0.235v5.305c-2.682 0.08-5.363 0.155-8.045 0.236v7.838c3.577 0.137 7.15 0.275 10.727 0.413 0.08 1.581 0.165 3.163 0.247 4.744h-16.543v-15.491zm18.565 0v-15.471c4.835 0.177 9.942-0.649 14.48 1.377 3.255 1.594 4.357 5.271 4.216 8.65-0.06 5.218 0.5 10.54-0.528 15.687-1.328 3.764-5.573 5.408-9.311 5.178-2.954 0.08-5.904 0.03-8.857 0.05v-15.466zm11.048 9.876c2.954-2.239 1.856-6.452 2.153-9.662-0.392-3.249 0.949-8.028-2.388-10.009-1.366-0.09-4.237-0.866-5.038 0.09v20.227c1.766-0.05 3.655 0.233 5.273-0.644z" fill="#fff"/><path d="m206.21 59.184v-0.176-0.215l1.77-6.486h-1.55l0.16-0.768 1.63-0.02 0.76-2.461 1.29-0.02-0.61 2.522h1.59l-0.16 0.745h-1.67l-1.62 6.232v0.342c0.1 0.104 0.14 0.156 0.26 0.156 0.17 0 0.41-0.169 0.72-0.508 0.18-0.182 0.47-0.544 0.89-1.085l0.25 0.147-0.14 0.205c-0.55 0.84-1.05 1.427-1.48 1.759-0.42 0.326-0.83 0.489-1.21 0.489-0.33 0-0.58-0.09-0.73-0.264-0.14-0.176-0.22-0.375-0.22-0.596z" fill="#fff"/><path d="m143.92 59.184v-0.176-0.215l1.77-6.486h-1.55l0.16-0.768 1.63-0.02 0.76-2.461 1.29-0.02-0.62 2.522h1.6l-0.17 0.745h-1.66l-1.62 6.232v0.342c0 0.104 0.14 0.156 0.26 0.156 0.17 0 0.41-0.169 0.72-0.508 0.17-0.182 0.47-0.544 0.89-1.085l0.25 0.147-0.14 0.205c-0.56 0.84-1.05 1.427-1.48 1.759-0.43 0.326-0.83 0.489-1.22 0.489-0.33 0-0.57-0.09-0.72-0.264-0.15-0.176-0.22-0.375-0.22-0.596z" fill="#fff"/><path d="m167.45 40.753v-0.176-0.215l1.77-6.486h-1.55l0.16-0.768 1.63-0.02 0.76-2.462 1.29-0.02-0.62 2.522h1.6l-0.17 0.745h-1.66l-1.62 6.232v0.342c0 0.104 0.14 0.156 0.26 0.156 0.17 0 0.41-0.169 0.72-0.508 0.17-0.182 0.47-0.544 0.88-1.085l0.26 0.147-0.14 0.205c-0.56 0.84-1.05 1.427-1.48 1.759-0.43 0.326-0.83 0.489-1.22 0.489-0.33 0-0.57-0.09-0.72-0.264-0.15-0.176-0.22-0.375-0.22-0.596z" fill="#fff"/><path d="m153.15 40.753v-0.176-0.215l1.76-6.486h-1.54l0.16-0.768 1.63-0.02 0.75-2.462 1.3-0.02-0.62 2.522h1.59l-0.16 0.745h-1.66l-1.62 6.232v0.342c0.1 0.104 0.14 0.156 0.27 0.156 0.17 0 0.41-0.169 0.71-0.508 0.18-0.182 0.47-0.544 0.89-1.085l0.26 0.147-0.14 0.205c-0.56 0.84-1.06 1.427-1.49 1.759-0.42 0.326-0.82 0.489-1.21 0.489-0.33 0-0.57-0.09-0.72-0.264-0.15-0.176-0.23-0.375-0.23-0.596z" fill="#fff"/><path d="m174.76 59.602 1.69-6.04c0.15-0.508 0.23-0.814 0.25-0.919v-0.352c-0.1-0.437-0.71 0.331-1.43 1.052l-0.27-0.288c1.09-1.362 1.77-1.901 3.67-2.298 0 0.02 0.1 0.05 0.1 0.09l-1.01 3.608c-0.39 1.402 1.04-0.678 1.57-1.271 0.94-1.049 2.29-2.042 3.03-2.042 0.29 0 0.54 0.06 0.74 0.167 0.4 0.215 0.6 0.602 0.6 1.163 0 0.156 0 0.319-0.1 0.488-0 0.17-0.1 0.352-0.12 0.548l-1.67 4.299c-0 0.1-0.1 0.218-0.1 0.361v0.293c0 0.1 0 0.186 0.1 0.264 0 0.08 0.13 0.118 0.23 0.118 0.17 0 0.36-0.1 0.59-0.294 0.22-0.201 0.58-0.628 1.08-1.28l0.29 0.254c-0.54 0.723-0.97 1.231-1.28 1.525-0.53 0.515-1.04 0.772-1.53 0.772-0.22 0-0.44-0.07-0.65-0.215-0.2-0.15-0.3-0.417-0.3-0.802v-0.351c0-0.124 0-0.232 0.1-0.323l1.49-3.984c0.1-0.261 0.1-0.473 0.12-0.636 0.1-0.169 0.1-0.29 0.1-0.362 0-0.156-0.1-0.29-0.12-0.4-0.1-0.118-0.21-0.176-0.39-0.176-0.49 0-1.49 0.528-2.23 1.414-0.44 0.528-0.88 1.156-1.33 1.886-0.35 0.566-0.62 1.121-0.82 1.662-0.2 0.534-0.38 0.658-0.81 2.072h-1.52z" fill="#fff"/><path d="m119.66 41.075c0.47-0.04 0.8-0.124 0.97-0.254 0.28-0.195 0.5-0.603 0.68-1.221l2.02-8.855c0.3-0.742 0.15-1.278-0.12-1.848-0.21-0.123-0.58-0.202-1.11-0.234v-0.323h4.96v0.323c-1.1 0.09-1.34 0.7-1.64 1.476l-2.03 8.855c-0.31 0.78-0.15 1.311 0.15 1.886 0.24 0.111 0.58 0.176 1.03 0.195v0.323h-4.91z" fill="#fff"/><path d="m126.29 41.398 1.69-6.04s0.26-0.805 0.24-1.271c0-0.466-0.71 0.331-1.44 1.052l-0.27-0.288c1.09-1.362 1.77-1.901 3.67-2.298 0 0.03 0.1 0.05 0.1 0.09l-1 3.607c-0.39 1.402 1.03-0.678 1.57-1.271 0.94-1.049 2.29-2.042 3.03-2.042 0.29 0 0.53 0.06 0.74 0.166 0.4 0.215 0.6 0.603 0.6 1.163 0 0.157 0 0.32-0.1 0.489 0 0.17-0.1 0.352-0.13 0.547l-1.66 4.3s-0.34 0.789-0.1 0.918 0.55 0.06 0.81-0.176c0.22-0.202 0.59-0.629 1.09-1.28l0.28 0.254c-0.53 0.723-0.96 1.231-1.27 1.524-0.53 0.515-1.05 0.773-1.53 0.773-0.23 0-0.44-0.07-0.65-0.215-0.2-0.15-0.3-0.398-0.34-0.712-0-0.313 0.14-0.764 0.14-0.764l1.48-3.984c0.22-0.493 0.33-0.959 0.24-1.269-0.1-0.311-0.43-0.305-0.62-0.305-0.49 0-1.48 0.528-2.23 1.414-0.43 0.528-0.88 1.156-1.33 1.886-0.34 0.566-0.62 1.12-0.82 1.662-0.19 0.533-0.38 0.658-0.81 2.072h-1.51z" fill="#fff"/><path d="m136.04 38.485h0.32q0.21 1.183 0.51 1.73 0.53 1.007 1.6 1.007 0.6 0 1-0.42 0.41-0.421 0.41-1.115 0-0.429-0.11-0.703-0.1-0.274-0.25-0.499l-0.82-1.202q-0.73-1.094-0.91-1.466-0.29-0.557-0.29-1.114 0-0.85 0.61-1.495 0.61-0.655 1.74-0.655 0.48 0 1.09 0.185 0.62 0.176 0.84 0.176 0.25 0 0.36-0.1 0.12-0.1 0.22-0.264h0.28l-0.4 2.775h-0.32q-0.13-0.948-0.38-1.427-0.47-0.889-1.49-0.889-0.43 0-0.77 0.274-0.33 0.264-0.33 0.782 0 0.4 0.14 0.703 0.16 0.303 0.7 1.076l0.69 0.996q0.54 0.773 0.77 1.261 0.22 0.489 0.22 1.056 0 1.055-0.9 1.778t-2.14 0.723q-0.4 0-1.14-0.165-0.75-0.167-0.86-0.167-0.2 0-0.3 0.09t-0.16 0.264h-0.33l0.4-3.196z" fill="#fff"/><path d="m143.24 40.753v-0.176-0.215l1.76-6.486h-1.54l0.16-0.768 1.63-0.02 0.75-2.462 1.3-0.02-0.62 2.522h1.59l-0.16 0.745h-1.66l-1.63 6.232v0.342c0.1 0.104 0.14 0.156 0.27 0.156 0.17 0 0.4-0.169 0.71-0.508 0.18-0.182 0.47-0.544 0.89-1.085l0.25 0.147-0.13 0.205c-0.56 0.84-1.06 1.427-1.49 1.759-0.42 0.326-0.83 0.489-1.21 0.489-0.33 0-0.57-0.09-0.72-0.264-0.15-0.176-0.23-0.375-0.23-0.596z" fill="#fff"/><path d="m151.73 28.262c-0.26 0-0.49 0.103-0.68 0.312-0.18 0.208-0.28 0.465-0.28 0.764 0 0.293 0.09 0.543 0.28 0.752 0.19 0.208 0.42 0.312 0.68 0.312 0.27 0 0.5-0.1 0.69-0.302 0.19-0.209 0.29-0.462 0.29-0.762 0-0.299-0.1-0.556-0.29-0.764-0.19-0.209-0.42-0.312-0.69-0.312zm0.24 4.281-0.03 2e-3c-0.32 0.075-0.57 0.16-0.79 0.25-1.34 0.387-2.01 0.941-2.94 2.1l0.27 0.287c0.72-0.721 1.33-1.488 1.43-1.051v0.351c-0.02 0.104-0.1 0.41-0.25 0.911 0.01-4e-3 0.01-7e-3 0.01-0.01l-1.07 3.935c-0.04 0.274-0.14 0.481-0.14 0.625v0.489c0 0.319 0.09 0.597 0.27 0.832 0.19 0.235 0.43 0.351 0.71 0.351 0.47 0 0.96-0.236 1.46-0.705 0.32-0.3 0.73-0.79 1.22-1.474l0.1-0.137-0.25-0.217c-0.31 0.424-0.58 0.751-0.79 0.979-0.37 0.384-0.66 0.576-0.88 0.576-0.13 0-0.25-0.037-0.25-0.117-0.1-0.071-0.1-0.154-0.1-0.254 0-0.072 0.04-0.293 0.14-0.664l1.98-6.979c0-0.03-0.1-0.06-0.1-0.08zm-2.31 2.85c0 3e-3 -0.01 6e-3 -0.01 9e-3l0.01-2e-3v-7e-3z" fill="#fff"/><path d="m161.56 32.51c-0.04 8e-3 -0.06 0.019-0.1 0.027-0.02-5e-3 -0.05-4e-3 -0.05-4e-3 -0.1 0.023-0.2 0.069-0.3 0.102-1.53 0.389-2.22 0.939-3.22 2.174l0.27 0.287c0.73-0.721 1.34-1.488 1.44-1.051v0.119 0.178l-0.01 6e-3 -0.24 0.961c0 2e-3 -0.01 5e-3 -0.01 7e-3h0.01l-1.13 4.514c-0.1 0.15-0.1 0.262-0.1 0.352v0.332c0 0.469 0.17 0.795 0.51 0.978 0.18 0.087 0.37 0.137 0.59 0.137 0.79 0 1.64-0.531 2.53-1.594 0.51-0.619 1.22-1.674 2.12-3.166h0.1l-0.22 0.83-0.45 1.711c-0.05 0.254-0.15 0.482-0.15 0.684v0.556c0 0.332 0.09 0.579 0.27 0.735 0.19 0.155 0.42 0.234 0.71 0.234 0.55 0 1.15-0.363 1.79-1.086 0.33-0.359 0.64-0.784 0.94-1.279l-0.27-0.186c-0.24 0.293-0.42 0.512-0.54 0.655-0.19 0.234-0.29 0.389-0.39 0.459-0.16 0.156-0.29 0.271-0.39 0.351-0.1 0.067-0.2 0.108-0.3 0.108s-0.21-0.03-0.21-0.09c-0.1-0.066-0.1-0.145-0.1-0.225v-0.273c0-0.111 0.1-0.233 0.1-0.364l1.85-6.927h-1.48c-0.39 1.095-0.69 1.892-0.9 2.394-0.33 0.807-0.71 1.541-1.11 2.199-0.45 0.736-0.96 1.445-1.54 2.129s-1.06 1.028-1.44 1.028c-0.14 0-0.23-0.037-0.33-0.127-0.13-0.084-0.13-0.204-0.13-0.354v-0.193c0-0.091 0.1-0.22 0.1-0.383l1.7-6.531c0.06-0.111 0.12-0.202 0.18-0.324 0-0.04 0-0.06-0.1-0.09z" fill="#fff"/><path d="m172.28 38.808q0-2.17 1.95-4.203 1.94-2.033 4-2.033 0.76 0 1.21 0.352t0.45 1.046q0 1.407-1.65 2.414-1.64 0.997-3.46 1.222l-0.56 0.07q-0.12 0.401-0.17 0.645-0.1 0.235-0.1 0.596 0 0.86 0.55 1.339 0.57 0.479 1.34 0.479 0.74 0 1.56-0.489 0.47-0.283 1.36-1.016l0.25 0.225q-0.44 0.557-1.26 1.143-1.46 1.046-2.92 1.046-1.04 0-1.82-0.733t-0.78-2.101zm2.08-1.574q1.87-0.274 3.04-1.309 1.17-1.046 1.17-2.072 0-0.372-0.17-0.587-0.18-0.225-0.52-0.225-0.64 0-1.25 0.548-0.61 0.537-1.1 1.221-0.52 0.802-0.82 1.535-0.16 0.391-0.35 0.889z" fill="#fff"/><path d="m191.27 28.331c-0.84-0.08-1.72 0.96-1.94 1.485-0.24 0.606-0.46 1.838-0.77 3.272h2.18l-0.17 0.825h-2.19s-1.16 4.137-1.73 6.343c-0.56 2.205-1.61 5.315-1.61 5.315l-0.9-0.03s1.05-4.178 1.37-5.577c0.32-1.4 1.3-6.047 1.3-6.047h-1.81l0.18-0.825h1.85c0.4-1.518 0.8-2.855 1.3-3.584 0.98-1.241 1.98-2.688 4.17-2.448 0.86 0.437 0.35 1.614-1.23 1.275z" fill="#fff"/><path d="m191.47 39.296q0 0.812 0.4 1.349 0.41 0.528 1.19 0.528 1.59 0 2.83-2.404 1.04-2.063 1.04-3.792 0-0.733-0.17-1.183-0.34-0.85-1.26-0.85-1.49 0-2.8 2.238-1.23 2.091-1.23 4.114zm4.14-6.763q1.64 0 2.32 0.88 0.67 0.87 0.67 2.062 0 2.072-1.83 4.066-1.88 2.072-4.02 2.072-1.35 0-2.16-0.782t-0.81-2.199q0-2.141 1.82-4.095 1.85-2.004 4.01-2.004z" fill="#fff"/><path d="m205.56 32.537c-0.57 0-1.17 0.382-1.8 1.145-0.63 0.756-1.17 1.592-1.64 2.511l-0.22 0.42 1.07-3.654v-0.147c0-0.018-0.02-4e-3 -0.04 6e-3 0.02-0.084 0.05-0.163 0.05-0.179-1.9 0.397-2.57 0.935-3.66 2.297l0.27 0.289c0.72-0.721 1.33-1.49 1.43-1.053v0.351c-0.02 0.098-0.1 0.41-0.23 0.864 0.02-0.013 0.03-0.023 0.05-0.035-0.02 0.059-0.02 0.104-0.04 0.166l-1.63 5.882h1.51c0.29-0.958 0.53-1.697 0.71-2.218 0.28-0.827 0.53-1.492 0.75-1.994 0.38-0.827 0.81-1.595 1.29-2.305s0.85-1.067 1.1-1.067c0.03 0 0.13 9e-3 0.13 0.039 0 0.02 0 0.05 0.1 0.09l0.11 0.215c0.06 0.104 0.15 0.194 0.25 0.274 0.1 0.078 0.25 0.119 0.46 0.119 0.29 0 0.52-0.096 0.68-0.285 0.15-0.195 0.25-0.44 0.25-0.733 0-0.26-0.08-0.491-0.25-0.693-0.16-0.202-0.39-0.305-0.7-0.305zm-4.77 2.85c-0.02 0.02-0.04 0.035-0.07 0.056h0.06c0.01-0.031 0.01-0.026 0.01-0.056z" fill="#fff"/><path d="m124.6 59.182c2.91 0 4.95-1.199 6.13-3.597 0.6-1.244 0.91-2.512 0.91-3.802 0-1.244-0.31-2.293-0.92-3.147s-2.32-1.34-3.92-1.34c-0.43 0-0.75 0.04-0.93 0.127-0.19 0.09-0.31 0.234-0.37 0.449l-2.13 9.863c-0.1 0.196-0.1 0.339-0.1 0.431v0.273c0 0.287 0.1 0.482 0.26 0.586 0.18 0.105 0.54 0.157 1.09 0.157zm-4.94 0.313c0.47-0.04 0.8-0.124 0.97-0.254 0.28-0.196 0.5-0.603 0.68-1.222l1.85-8.915c0.1-0.267 0.13-0.496 0.16-0.685 0.1-0.195 0.1-0.364 0.1-0.507 0-0.326-0.11-0.551-0.33-0.675-0.22-0.13-0.63-0.202-1.22-0.215v-0.322h5.17c0.96 0 2.4 0.144 3.12 0.314 0.73 0.169 1.4 0.518 2.02 1.046 0.43 0.39 0.8 0.853 1.09 1.388 0.43 0.807 0.65 1.716 0.65 2.726 0 2.007-0.78 3.747-2.32 5.219-1.7 1.616-3.9 2.424-6.61 2.424h-5.3z" fill="#fff"/><path d="m141 52.761q0-0.704-0.33-1.036-0.32-0.333-0.78-0.333-1.59 0-2.96 2.444-1.2 2.15-1.2 3.704 0 0.782 0.33 1.143 0.34 0.352 0.84 0.352 1.48 0 2.84-2.375 1.26-2.16 1.26-3.899zm-1.23-1.808q0.78 0 1.2 0.4 0.22 0.215 0.35 0.567l0.1 0.137 0.21-0.743q0-0.127 0.1-0.166 0-0.05 0.14-0.06l1.1-0.127q0.1 0 0.1 0.04 0 0.03 0 0.117-0 0.127-0.1 0.205-0 0.07-0.1 0.205l-0.9 3.499q-0.29 1.144-0.5 1.975-0.36 1.505-0.36 1.72 0 0.136 0.1 0.205 0.1 0.06 0.19 0.06 0.1 0 0.18-0.06 0.11-0.06 0.26-0.176l0.16-0.137q0.1-0.07 0.18-0.156 0.1-0.1 0.23-0.235l0.61-0.625 0.23 0.205q-1.01 1.3-1.63 1.769-0.61 0.459-1.17 0.459-0.36 0-0.57-0.254-0.19-0.254-0.19-0.635 0-0.352 0.12-1.007 0.14-0.664 0.27-1.114-0.18 0.293-0.6 0.86-0.41 0.557-1.02 1.085-0.71 0.635-1.36 0.899-0.51 0.176-0.98 0.176-0.79 0-1.44-0.645-0.64-0.655-0.64-1.847 0-2.053 1.83-4.281 1.9-2.316 3.93-2.316z" fill="#fff"/><path d="m155.33 52.761q0-0.704-0.32-1.036-0.32-0.333-0.78-0.333-1.59 0-2.96 2.444-1.2 2.15-1.2 3.704 0 0.782 0.33 1.143 0.34 0.352 0.84 0.352 1.47 0 2.84-2.375 1.25-2.16 1.25-3.899zm-1.22-1.808q0.77 0 1.19 0.4 0.23 0.215 0.36 0.567l0.1 0.137 0.21-0.743q0-0.127 0.1-0.166 0-0.05 0.14-0.06l1.1-0.127q0.1 0 0.1 0.04 0 0.03 0 0.117-0 0.127-0.1 0.205-0 0.07-0.1 0.205l-0.9 3.499q-0.29 1.144-0.5 1.975-0.36 1.505-0.36 1.72 0 0.136 0.1 0.205 0.1 0.06 0.19 0.06 0.1 0 0.18-0.06 0.11-0.06 0.26-0.176l0.16-0.137q0.1-0.07 0.18-0.156 0.1-0.1 0.23-0.235l0.61-0.625 0.23 0.205q-1.01 1.3-1.63 1.769-0.62 0.459-1.17 0.459-0.36 0-0.57-0.254-0.2-0.254-0.2-0.635 0-0.352 0.13-1.007 0.14-0.664 0.27-1.114-0.18 0.293-0.6 0.86-0.41 0.557-1.02 1.085-0.71 0.635-1.37 0.899-0.5 0.176-0.97 0.176-0.79 0-1.44-0.645-0.64-0.655-0.64-1.847 0-2.053 1.83-4.281 1.9-2.316 3.93-2.316z" fill="#fff"/><path d="m169.7 54.588-0.88-5.19-2.98 5.19h3.86zm-8.4 4.907q0.66-0.166 1.04-0.616 0.39-0.45 1.55-2.414l5.84-10.008h0.44l1.93 11.327q0.18 1.095 0.44 1.368 0.25 0.264 1.08 0.343v0.322h-4.93v-0.322q0.88-0.09 1.15-0.216 0.42-0.195 0.42-0.762 0-0.146-0-0.313-0-0.166-0-0.283l-0.4-2.619h-4.4l-1.16 2.248q-0.13 0.224-0.23 0.479-0.16 0.449-0.16 0.752 0 0.381 0.25 0.538 0.27 0.156 0.93 0.176v0.322h-3.75v-0.322z" fill="#fff"/><path d="m190.97 52.761q0-0.704-0.32-1.036-0.32-0.333-0.78-0.333-1.59 0-2.96 2.444-1.2 2.15-1.2 3.704 0 0.782 0.33 1.143 0.34 0.352 0.84 0.352 1.47 0 2.84-2.375 1.25-2.16 1.25-3.899zm-1.22-1.808q0.77 0 1.19 0.4 0.23 0.215 0.36 0.567v0.137l0.21-0.743q0-0.127 0.1-0.166 0-0.05 0.14-0.06l1.1-0.127q0.1 0 0.1 0.04 0 0.03 0 0.117-0 0.127-0.1 0.205-0 0.07-0.1 0.205l-0.9 3.499q-0.29 1.144-0.5 1.975-0.36 1.505-0.36 1.72 0 0.136 0.1 0.205 0.1 0.06 0.19 0.06 0.1 0 0.18-0.06 0.11-0.06 0.26-0.176l0.16-0.137q0.1-0.07 0.17-0.156 0.1-0.1 0.24-0.235l0.61-0.625 0.23 0.205q-1.01 1.3-1.63 1.769-0.62 0.459-1.17 0.459-0.37 0-0.57-0.254t-0.2-0.635q0-0.352 0.13-1.007 0.14-0.664 0.26-1.114-0.17 0.293-0.59 0.86-0.41 0.557-1.02 1.085-0.71 0.635-1.36 0.899-0.52 0.176-0.98 0.176-0.79 0-1.44-0.645-0.64-0.655-0.64-1.847 0-2.053 1.83-4.281 1.9-2.316 3.93-2.316z" fill="#fff"/><path d="m196.16 47.06c0-0.09 0-0.169 0.1-0.254v-0.205c0-0.222-0.1-0.356-0.27-0.401-0.18-0.05-0.53-0.08-1.07-0.07v-0.322c0.3-0.04 0.63-0.09 1.01-0.137 0.38-0.05 0.63-0.09 0.75-0.107 0.37-0.07 0.81-0.163 1.33-0.294 0 0 0.1 0.03 0.14 0.1l-3.35 12.65c-0.1 0.28-0.12 0.449-0.13 0.508v0.176c0 0.124 0 0.231 0.1 0.322 0 0.09 0.13 0.127 0.26 0.127 0.23 0 0.54-0.208 0.91-0.625 0.38-0.417 0.7-0.821 0.96-1.212l0.26 0.186c-0.55 0.827-0.99 1.401-1.31 1.72-0.54 0.541-1.08 0.811-1.63 0.811-0.23 0-0.44-0.06-0.62-0.176-0.28-0.176-0.42-0.475-0.42-0.899 0-0.163 0-0.381 0.1-0.655 0-0.163 0.1-0.352 0.12-0.567l2.87-10.675z" fill="#fff"/><path d="m200.37 50.91c-2.45 0.109-2.82 1.236-3.14 2.951l0.37 0.125c0.3-0.979 1.15-1.647 1.64-1.425 0.11 0.05 0.2 0.115 0.28 0.191 0.21 0.455 0.45 1.075 0.69 2 0.23 0.834 0.47 1.784 0.71 2.853 0.25 1.069 0.37 1.786 0.37 2.151 0 0.385-0.35 0.997-1.07 1.838-0.7 0.847-1.21 1.269-1.53 1.269-0.06 0-0.07-0.011-0.17-0.031-0.02-0.01-0.12-0.038-0.12-0.068l-0.14-0.102c-0.14-0.117-0.26-0.201-0.39-0.271-0.12-0.06-0.27-0.09-0.43-0.09-0.25 0-0.44 0.074-0.57 0.224-0.09 0.149-0.19 0.33-0.19 0.537l-0.04 4e-3c0 0.28 0.1 0.501 0.31 0.664 0.2 0.164 0.44 0.245 0.7 0.245 0.69 0 1.55-0.59 2.58-1.77 0.65-0.75 1.43-1.814 2.34-3.195 0.72-1.108 1.38-2.251 1.97-3.43 0.76-1.544 1.14-2.665 1.14-3.363 0-0.462-0.1-0.788-0.31-0.977-0.2-0.193-0.46-0.293-0.78-0.293-0.26 0-0.46 0.068-0.59 0.205-0.1 0.137-0.2 0.306-0.2 0.508 0 0.241 0.07 0.433 0.21 0.576s0.27 0.243 0.37 0.293l0.16 0.09c0.15 0.078 0.18 0.174 0.28 0.285 0.1 0.104 0.1 0.212 0.1 0.323 0 0.482-0.32 1.326-0.94 2.531-0.32 0.613-0.82 1.491-1.51 2.638l-0.39-2.326c-0.1-0.606-0.36-1.577-0.78-2.912-0.44-1.439-0.76-2.156-0.92-2.183 0-9e-3 -0.01-0.065-0.01-0.065z" fill="#fff"/><path d="m214.7 46.682c-0.27 0-0.5 0.104-0.69 0.312-0.18 0.209-0.28 0.463-0.28 0.762 0 0.294 0.1 0.546 0.28 0.754 0.19 0.209 0.42 0.312 0.69 0.312s0.49-0.1 0.68-0.302c0.2-0.208 0.3-0.464 0.3-0.764 0-0.299-0.1-0.553-0.3-0.762-0.19-0.208-0.41-0.312-0.68-0.312zm0.12 4.265c-1.9 0.398-2.58 0.937-3.67 2.299l0.27 0.289c0.73-0.721 1.34-1.49 1.44-1.053v0.266l-0.27 0.982c-0.01 9e-3 -0.02 0.015-0.03 0.024h0.03l-1.09 3.98c-0.05 0.274-0.15 0.484-0.15 0.627v0.489c0 0.319 0.09 0.596 0.27 0.83 0.19 0.235 0.43 0.351 0.71 0.351 0.47 0 0.96-0.234 1.46-0.703 0.32-0.3 0.72-0.79 1.21-1.474l0.1-0.137-0.25-0.215c-0.32 0.424-0.58 0.749-0.79 0.977-0.37 0.385-0.66 0.576-0.88 0.576-0.13 0-0.25-0.038-0.25-0.117-0.1-0.071-0.1-0.154-0.1-0.254 0-0.071 0.04-0.293 0.14-0.664l1.73-6.649h-0.01c0.01-0.033 0.02-0.06 0.03-0.094 0 0 0.1-0.31 0.1-0.33z" fill="#fff"/><path d="m221.6 50.992q1.19 0 1.72 0.537 0.52 0.538 0.52 1.046 0 0.459-0.27 0.713t-0.64 0.254-0.61-0.224q-0.24-0.225-0.24-0.557 0-0.254 0.15-0.548 0.17-0.293 0.17-0.381 0-0.176-0.21-0.293-0.19-0.127-0.63-0.127-1.58 0-2.74 1.788-1.15 1.789-1.15 3.753 0 1.105 0.47 1.73 0.47 0.626 1.4 0.626 0.76 0 1.46-0.43 0.71-0.44 1.31-1.114l0.1-0.08 0.28 0.214q-0.68 0.871-1.32 1.34-1.12 0.811-2.49 0.811-1.31 0-2.12-0.831-0.81-0.841-0.81-2.287 0-2.219 1.8-4.085 1.79-1.857 3.88-1.857z" fill="#fff"/><path d="m223.49 56.905h0.33q0.21 1.182 0.5 1.73 0.54 1.006 1.61 1.006 0.59 0 0.99-0.42 0.41-0.42 0.41-1.114 0-0.43-0.11-0.704-0.1-0.273-0.25-0.498l-0.81-1.202q-0.73-1.095-0.92-1.467-0.28-0.557-0.28-1.114 0-0.85 0.61-1.495 0.61-0.655 1.73-0.655 0.48 0 1.1 0.186 0.62 0.176 0.84 0.176 0.25 0 0.36-0.1 0.12-0.1 0.22-0.264h0.28l-0.4 2.776h-0.32q-0.13-0.948-0.39-1.427-0.46-0.89-1.48-0.89-0.43 0-0.77 0.274-0.34 0.264-0.34 0.782 0 0.401 0.15 0.704 0.16 0.303 0.7 1.075l0.69 0.997q0.54 0.772 0.76 1.261 0.23 0.488 0.23 1.055 0 1.056-0.9 1.779t-2.14 0.723q-0.4 0-1.14-0.166-0.75-0.166-0.87-0.166-0.19 0-0.29 0.09t-0.16 0.263h-0.33l0.39-3.195z" fill="#fff"/></svg>
