<?xml version="1.0" encoding="UTF-8" standalone="no"?>
<svg xmlns:dc="http://purl.org/dc/elements/1.1/" xmlns:cc="http://creativecommons.org/ns#" xmlns:rdf="http://www.w3.org/1999/02/22-rdf-syntax-ns#" xmlns:svg="http://www.w3.org/2000/svg" xmlns="http://www.w3.org/2000/svg" xmlns:sodipodi="http://sodipodi.sourceforge.net/DTD/sodipodi-0.dtd" xmlns:inkscape="http://www.inkscape.org/namespaces/inkscape" version="1.1" id="Layer_1" x="0px" y="0px" viewBox="0 0 250 91" enable-background="new 0 0 368.5 180.1" xml:space="preserve" inkscape:version="0.91 r13725" sodipodi:docname="lida.svg" width="250" height="91"><metadata id="metadata49"><rdf:RDF><cc:Work rdf:about=""><dc:format>image/svg+xml</dc:format><dc:type rdf:resource="http://purl.org/dc/dcmitype/StillImage" /><dc:title /></cc:Work></rdf:RDF></metadata><defs id="defs47"><clipPath clipPathUnits="userSpaceOnUse" id="clipPath3093"><path d="m 42.52,42.52 127.559,0 0,65.26 -127.559,0 0,-65.26 z" id="path3095" inkscape:connector-curvature="0" /></clipPath></defs><sodipodi:namedview pagecolor="#ffffff" bordercolor="#666666" borderopacity="1" objecttolerance="10" gridtolerance="10" guidetolerance="10" inkscape:pageopacity="0" inkscape:pageshadow="2" inkscape:window-width="1234" inkscape:window-height="728" id="namedview45" showgrid="false" inkscape:zoom="1.7151" inkscape:cx="150.64" inkscape:cy="-21.079" inkscape:window-x="11" inkscape:window-y="18" inkscape:window-maximized="0" inkscape:current-layer="Layer_1" /><path inkscape:connector-curvature="0" id="path4553" d="m 102.23,59.548 c -3.52,-0.946 -6.394,-4.146 -6.91,-7.73 2.163,-1.83 6.07,-2.309 6.56,1.346 2.72,4.62 9.76,0.1 6.22,-4.145 -3,-3.524 -8.212,-4.364 -10.903,-8.294 -3.061,-4.012 -1.002,-10.64 3.873,-12.116 4.14,-1.611 9.29,-0.493 11.85,3.316 3.57,3.002 -1.2,5.061 -3.9,4.457 -0.33,-3.795 -6.71,-5.065 -7.42,-0.806 0,3.603 4.35,4.625 6.76,6.435 3.22,1.914 6.64,4.762 6.39,8.916 0.35,4.398 -3.12,8.3 -7.46,8.754 -1.67,0.315 -3.44,0.273 -5.06,-0.133 z m -82.332,-15.722 c 0,-5.157 0,-10.314 0,-15.471 1.906,0 3.816,0 5.722,0 0,8.664 0,17.327 0,25.991 3.164,0 6.324,0 9.488,0 0,1.65 0,3.3 0,4.95 -5.07,0 -10.14,0 -15.21,0 0,-5.157 0,-10.313 0,-15.47 z m 16.861,0 c 0,-5.157 0,-10.314 0,-15.471 5.375,0 10.755,0 16.13,0 -0.08,1.719 -0.165,3.438 -0.247,5.157 -3.371,0.08 -6.737,0.144 -10.108,0.223 0,2.338 0,4.675 0,7.013 2.612,0 5.227,0 7.839,0 0,1.788 0,3.576 0,5.363 -2.612,0 -5.227,0 -7.839,0 0,2.751 0,5.501 0,8.251 3.577,0 7.15,0 10.727,0 0,1.65 0,3.301 0,4.951 -5.5,0 -11.003,0 -16.502,0 0,-5.162 0,-10.325 0,-15.487 z m 18.977,0 c 0,-5.157 0,-10.314 0,-15.471 5.375,0 10.755,0 16.131,0 -0.08,1.719 -0.165,3.438 -0.248,5.157 -3.519,0.09 -7.034,0.14 -10.553,0.227 0.08,2.269 0.161,4.538 0.239,6.807 2.682,0.08 5.363,0.159 8.045,0.235 0,1.769 0,3.537 0,5.305 -2.682,0.08 -5.363,0.155 -8.045,0.236 0,2.612 0,5.225 0,7.838 3.577,0.137 7.15,0.275 10.727,0.413 0.08,1.581 0.165,3.163 0.247,4.744 -5.516,0 -11.027,0 -16.543,0 0,-5.164 0,-10.327 0,-15.491 z m 18.565,0 c 0,-5.157 0,-10.314 0,-15.471 4.835,0.177 9.942,-0.649 14.48,1.377 3.255,1.594 4.357,5.271 4.216,8.65 -0.06,5.218 0.5,10.54 -0.528,15.687 -1.328,3.764 -5.573,5.408 -9.311,5.178 -2.954,0.08 -5.904,0.03 -8.857,0.05 0,-5.153 0,-10.327 0,-15.466 z m 11.048,9.876 c 2.954,-2.239 1.856,-6.452 2.153,-9.662 -0.392,-3.249 0.949,-8.028 -2.388,-10.009 -1.366,-0.09 -4.237,-0.866 -5.038,0.09 0,6.742 0,13.484 0,20.227 1.766,-0.05 3.655,0.233 5.273,-0.644 z" style="fill:#ffffff" /><path inkscape:connector-curvature="0" id="path4451" style="font-style:italic;font-variant:normal;font-weight:500;font-stretch:normal;font-size:medium;line-height:125%;font-family:Times;-inkscape-font-specification:'Times Medium Italic';text-align:start;letter-spacing:-1.48px;word-spacing:0px;writing-mode:lr-tb;text-anchor:start;fill:#ffffff;fill-opacity:1;stroke:none;stroke-width:1px;stroke-linecap:butt;stroke-linejoin:miter;stroke-opacity:1" d="m 206.21,59.184 c 0,-0.05 0,-0.111 0,-0.176 0,-0.07 0,-0.144 0,-0.215 l 1.77,-6.486 -1.55,0 0.16,-0.768 1.63,-0.02 0.76,-2.461 1.29,-0.02 -0.61,2.522 1.59,0 -0.16,0.745 -1.67,0 -1.62,6.232 c -0,0.117 -0,0.231 0,0.342 0.1,0.104 0.14,0.156 0.26,0.156 0.17,0 0.41,-0.169 0.72,-0.508 0.18,-0.182 0.47,-0.544 0.89,-1.085 l 0.25,0.147 -0.14,0.205 c -0.55,0.84 -1.05,1.427 -1.48,1.759 -0.42,0.326 -0.83,0.489 -1.21,0.489 -0.33,0 -0.58,-0.09 -0.73,-0.264 -0.14,-0.176 -0.22,-0.375 -0.22,-0.596 z" sodipodi:nodetypes="cccccccccccccccscccccsccc" /><path sodipodi:nodetypes="cccccccccccccccscccccsccc" d="m 143.92,59.184 c 0,-0.05 0,-0.111 0,-0.176 0,-0.07 0,-0.144 0,-0.215 l 1.77,-6.486 -1.55,0 0.16,-0.768 1.63,-0.02 0.76,-2.461 1.29,-0.02 -0.62,2.522 1.6,0 -0.17,0.745 -1.66,0 -1.62,6.232 c -0,0.117 -0,0.231 0,0.342 0,0.104 0.14,0.156 0.26,0.156 0.17,0 0.41,-0.169 0.72,-0.508 0.17,-0.182 0.47,-0.544 0.89,-1.085 l 0.25,0.147 -0.14,0.205 c -0.56,0.84 -1.05,1.427 -1.48,1.759 -0.43,0.326 -0.83,0.489 -1.22,0.489 -0.33,0 -0.57,-0.09 -0.72,-0.264 -0.15,-0.176 -0.22,-0.375 -0.22,-0.596 z" style="font-style:italic;font-variant:normal;font-weight:500;font-stretch:normal;font-size:medium;line-height:125%;font-family:Times;-inkscape-font-specification:'Times Medium Italic';text-align:start;letter-spacing:-1.48px;word-spacing:0px;writing-mode:lr-tb;text-anchor:start;fill:#ffffff;fill-opacity:1;stroke:none;stroke-width:1px;stroke-linecap:butt;stroke-linejoin:miter;stroke-opacity:1" id="path4449" inkscape:connector-curvature="0" /><path sodipodi:nodetypes="cccccccccccccccscccccsccc" d="m 167.45,40.753 c 0,-0.05 0,-0.111 0,-0.176 0,-0.07 0,-0.144 0,-0.215 l 1.77,-6.486 -1.55,0 0.16,-0.768 1.63,-0.02 0.76,-2.462 1.29,-0.02 -0.62,2.522 1.6,0 -0.17,0.745 -1.66,0 -1.62,6.232 c -0,0.117 -0,0.231 0,0.342 0,0.104 0.14,0.156 0.26,0.156 0.17,0 0.41,-0.169 0.72,-0.508 0.17,-0.182 0.47,-0.544 0.88,-1.085 l 0.26,0.147 -0.14,0.205 c -0.56,0.84 -1.05,1.427 -1.48,1.759 -0.43,0.326 -0.83,0.489 -1.22,0.489 -0.33,0 -0.57,-0.09 -0.72,-0.264 -0.15,-0.176 -0.22,-0.375 -0.22,-0.596 z" style="font-style:italic;font-variant:normal;font-weight:500;font-stretch:normal;font-size:medium;line-height:125%;font-family:Times;-inkscape-font-specification:'Times Medium Italic';text-align:start;letter-spacing:-1.48px;word-spacing:0px;writing-mode:lr-tb;text-anchor:start;fill:#ffffff;fill-opacity:1;stroke:none;stroke-width:1px;stroke-linecap:butt;stroke-linejoin:miter;stroke-opacity:1" id="path4447" inkscape:connector-curvature="0" /><path sodipodi:nodetypes="cccccccccccccccscccccsccc" d="m 153.15,40.753 c 0,-0.05 0,-0.111 0,-0.176 0,-0.07 0,-0.144 0,-0.215 l 1.76,-6.486 -1.54,0 0.16,-0.768 1.63,-0.02 0.75,-2.462 1.3,-0.02 -0.62,2.522 1.59,0 -0.16,0.745 -1.66,0 -1.62,6.232 c -0,0.117 -0,0.231 0,0.342 0.1,0.104 0.14,0.156 0.27,0.156 0.17,0 0.41,-0.169 0.71,-0.508 0.18,-0.182 0.47,-0.544 0.89,-1.085 l 0.26,0.147 -0.14,0.205 c -0.56,0.84 -1.06,1.427 -1.49,1.759 -0.42,0.326 -0.82,0.489 -1.21,0.489 -0.33,0 -0.57,-0.09 -0.72,-0.264 -0.15,-0.176 -0.23,-0.375 -0.23,-0.596 z" style="font-style:italic;font-variant:normal;font-weight:500;font-stretch:normal;font-size:medium;line-height:125%;font-family:Times;-inkscape-font-specification:'Times Medium Italic';text-align:start;letter-spacing:-1.48px;word-spacing:0px;writing-mode:lr-tb;text-anchor:start;fill:#ffffff;fill-opacity:1;stroke:none;stroke-width:1px;stroke-linecap:butt;stroke-linejoin:miter;stroke-opacity:1" id="path4445" inkscape:connector-curvature="0" /><path sodipodi:nodetypes="ccccccccscscsccccscsccccscsccccscscssccc" d="m 174.76,59.602 1.69,-6.04 c 0.15,-0.508 0.23,-0.814 0.25,-0.919 0,-0.111 0,-0.228 0,-0.352 -0.1,-0.437 -0.71,0.331 -1.43,1.052 l -0.27,-0.288 c 1.09,-1.362 1.77,-1.901 3.67,-2.298 0,0.02 0.1,0.05 0.1,0.09 l -1.01,3.608 c -0.39,1.402 1.04,-0.678 1.57,-1.271 0.94,-1.049 2.29,-2.042 3.03,-2.042 0.29,0 0.54,0.06 0.74,0.167 0.4,0.215 0.6,0.602 0.6,1.163 0,0.156 0,0.319 -0.1,0.488 -0,0.17 -0.1,0.352 -0.12,0.548 l -1.67,4.299 c -0,0.1 -0.1,0.218 -0.1,0.361 -0,0.137 -0,0.235 -0,0.293 0,0.1 0,0.186 0.1,0.264 0,0.08 0.13,0.118 0.23,0.118 0.17,0 0.36,-0.1 0.59,-0.294 0.22,-0.201 0.58,-0.628 1.08,-1.28 l 0.29,0.254 c -0.54,0.723 -0.97,1.231 -1.28,1.525 -0.53,0.515 -1.04,0.772 -1.53,0.772 -0.22,0 -0.44,-0.07 -0.65,-0.215 -0.2,-0.15 -0.3,-0.417 -0.3,-0.802 0,-0.111 0,-0.228 0,-0.351 0,-0.124 0,-0.232 0.1,-0.323 l 1.49,-3.984 c 0.1,-0.261 0.1,-0.473 0.12,-0.636 0.1,-0.169 0.1,-0.29 0.1,-0.362 0,-0.156 -0.1,-0.29 -0.12,-0.4 -0.1,-0.118 -0.21,-0.176 -0.39,-0.176 -0.49,0 -1.49,0.528 -2.23,1.414 -0.44,0.528 -0.88,1.156 -1.33,1.886 -0.35,0.566 -0.62,1.121 -0.82,1.662 -0.2,0.534 -0.38,0.658 -0.81,2.072 l -1.52,0 z" style="font-style:italic;font-variant:normal;font-weight:500;font-stretch:normal;font-size:medium;line-height:125%;font-family:Times;-inkscape-font-specification:'Times Medium Italic';text-align:start;letter-spacing:-1.48px;word-spacing:0px;writing-mode:lr-tb;text-anchor:start;fill:#ffffff;fill-opacity:1;stroke:none;stroke-width:1px;stroke-linecap:butt;stroke-linejoin:miter;stroke-opacity:1" id="path4443" inkscape:connector-curvature="0" /><path inkscape:connector-curvature="0" id="path4358" style="font-style:italic;font-variant:normal;font-weight:500;font-stretch:normal;font-size:medium;line-height:125%;font-family:Times;-inkscape-font-specification:'Times Medium Italic';text-align:start;letter-spacing:-1.48px;word-spacing:0px;writing-mode:lr-tb;text-anchor:start;fill:#ffffff;fill-opacity:1;stroke:none;stroke-width:1px;stroke-linecap:butt;stroke-linejoin:miter;stroke-opacity:1" d="m 119.66,41.075 c 0.47,-0.04 0.8,-0.124 0.97,-0.254 0.28,-0.195 0.5,-0.603 0.68,-1.221 l 2.02,-8.855 c 0.3,-0.742 0.15,-1.278 -0.12,-1.848 -0.21,-0.123 -0.58,-0.202 -1.11,-0.234 l 0,-0.323 4.96,0 0,0.323 c -1.1,0.09 -1.34,0.7 -1.64,1.476 l -2.03,8.855 c -0.31,0.78 -0.15,1.311 0.15,1.886 0.24,0.111 0.58,0.176 1.03,0.195 l 0,0.323 -4.91,0 z" sodipodi:nodetypes="cccccccccccccccc" /><path inkscape:connector-curvature="0" id="path4360" style="font-style:italic;font-variant:normal;font-weight:500;font-stretch:normal;font-size:medium;line-height:125%;font-family:Times;-inkscape-font-specification:'Times Medium Italic';text-align:start;letter-spacing:-1.48px;word-spacing:0px;writing-mode:lr-tb;text-anchor:start;fill:#ffffff;fill-opacity:1;stroke:none;stroke-width:1px;stroke-linecap:butt;stroke-linejoin:miter;stroke-opacity:1" d="m 126.29,41.398 1.69,-6.04 c 0,0 0.26,-0.805 0.24,-1.271 0,-0.466 -0.71,0.331 -1.44,1.052 l -0.27,-0.288 c 1.09,-1.362 1.77,-1.901 3.67,-2.298 0,0.03 0.1,0.05 0.1,0.09 l -1,3.607 c -0.39,1.402 1.03,-0.678 1.57,-1.271 0.94,-1.049 2.29,-2.042 3.03,-2.042 0.29,0 0.53,0.06 0.74,0.166 0.4,0.215 0.6,0.603 0.6,1.163 0,0.157 0,0.32 -0.1,0.489 0,0.17 -0.1,0.352 -0.13,0.547 l -1.66,4.3 c 0,0 -0.34,0.789 -0.1,0.918 0.24,0.129 0.55,0.06 0.81,-0.176 0.22,-0.202 0.59,-0.629 1.09,-1.28 l 0.28,0.254 c -0.53,0.723 -0.96,1.231 -1.27,1.524 -0.53,0.515 -1.05,0.773 -1.53,0.773 -0.23,0 -0.44,-0.07 -0.65,-0.215 -0.2,-0.15 -0.3,-0.398 -0.34,-0.712 -0,-0.313 0.14,-0.764 0.14,-0.764 l 1.48,-3.984 c 0.22,-0.493 0.33,-0.959 0.24,-1.269 -0.1,-0.311 -0.43,-0.305 -0.62,-0.305 -0.49,0 -1.48,0.528 -2.23,1.414 -0.43,0.528 -0.88,1.156 -1.33,1.886 -0.34,0.566 -0.62,1.12 -0.82,1.662 -0.19,0.533 -0.38,0.658 -0.81,2.072 l -1.51,0 z" sodipodi:nodetypes="cczccccscscsccczccccsczcczscssccc" /><path inkscape:connector-curvature="0" id="path4362" style="font-style:italic;font-variant:normal;font-weight:500;font-stretch:normal;font-size:medium;line-height:125%;font-family:Times;-inkscape-font-specification:'Times Medium Italic';text-align:start;letter-spacing:-1.48px;word-spacing:0px;writing-mode:lr-tb;text-anchor:start;fill:#ffffff;fill-opacity:1;stroke:none;stroke-width:1px;stroke-linecap:butt;stroke-linejoin:miter;stroke-opacity:1" d="m 136.04,38.485 0.32,0 q 0.21,1.183 0.51,1.73 0.53,1.007 1.6,1.007 0.6,0 1,-0.42 0.41,-0.421 0.41,-1.115 0,-0.429 -0.11,-0.703 -0.1,-0.274 -0.25,-0.499 l -0.82,-1.202 q -0.73,-1.094 -0.91,-1.466 -0.29,-0.557 -0.29,-1.114 0,-0.85 0.61,-1.495 0.61,-0.655 1.74,-0.655 0.48,0 1.09,0.185 0.62,0.176 0.84,0.176 0.25,0 0.36,-0.1 0.12,-0.1 0.22,-0.264 l 0.28,0 -0.4,2.775 -0.32,0 q -0.13,-0.948 -0.38,-1.427 -0.47,-0.889 -1.49,-0.889 -0.43,0 -0.77,0.274 -0.33,0.264 -0.33,0.782 0,0.4 0.14,0.703 0.16,0.303 0.7,1.076 l 0.69,0.996 q 0.54,0.773 0.77,1.261 0.22,0.489 0.22,1.056 0,1.055 -0.9,1.778 -0.9,0.723 -2.14,0.723 -0.4,0 -1.14,-0.165 -0.75,-0.167 -0.86,-0.167 -0.2,0 -0.3,0.09 -0.1,0.09 -0.16,0.264 l -0.33,0 0.4,-3.196 z" /><path inkscape:connector-curvature="0" id="path4364" style="font-style:italic;font-variant:normal;font-weight:500;font-stretch:normal;font-size:medium;line-height:125%;font-family:Times;-inkscape-font-specification:'Times Medium Italic';text-align:start;letter-spacing:-1.48px;word-spacing:0px;writing-mode:lr-tb;text-anchor:start;fill:#ffffff;fill-opacity:1;stroke:none;stroke-width:1px;stroke-linecap:butt;stroke-linejoin:miter;stroke-opacity:1" d="m 143.24,40.753 c 0,-0.05 0,-0.111 0,-0.176 0,-0.07 0,-0.144 0,-0.215 l 1.76,-6.486 -1.54,0 0.16,-0.768 1.63,-0.02 0.75,-2.462 1.3,-0.02 -0.62,2.522 1.59,0 -0.16,0.745 -1.66,0 -1.63,6.232 c -0,0.117 -0,0.231 0,0.342 0.1,0.104 0.14,0.156 0.27,0.156 0.17,0 0.4,-0.169 0.71,-0.508 0.18,-0.182 0.47,-0.544 0.89,-1.085 l 0.25,0.147 -0.13,0.205 c -0.56,0.84 -1.06,1.427 -1.49,1.759 -0.42,0.326 -0.83,0.489 -1.21,0.489 -0.33,0 -0.57,-0.09 -0.72,-0.264 -0.15,-0.176 -0.23,-0.375 -0.23,-0.596 z" sodipodi:nodetypes="cccccccccccccccscccccsccc" /><path style="font-style:italic;font-variant:normal;font-weight:500;font-stretch:normal;font-size:medium;line-height:125%;font-family:Times;-inkscape-font-specification:'Times Medium Italic';text-align:start;letter-spacing:-1.48px;word-spacing:0px;writing-mode:lr-tb;text-anchor:start;fill:#ffffff;fill-opacity:1;stroke:none;stroke-width:1px;stroke-linecap:butt;stroke-linejoin:miter;stroke-opacity:1" d="M 151.73 28.262 C 151.47 28.262 151.24 28.365 151.05 28.574 C 150.87 28.782 150.77 29.039 150.77 29.338 C 150.77 29.631 150.86 29.881 151.05 30.09 C 151.24 30.298 151.47 30.402 151.73 30.402 C 152 30.402 152.23 30.302 152.42 30.1 C 152.61 29.891 152.71 29.638 152.71 29.338 C 152.71 29.039 152.61 28.782 152.42 28.574 C 152.23 28.365 152 28.262 151.73 28.262 z M 151.97 32.543 L 151.94 32.545 C 151.62 32.62 151.37 32.705 151.15 32.795 C 149.81 33.182 149.14 33.736 148.21 34.895 L 148.48 35.182 C 149.2 34.461 149.81 33.694 149.91 34.131 L 149.91 34.482 C 149.89 34.586 149.81 34.892 149.66 35.393 C 149.67 35.389 149.67 35.386 149.67 35.383 L 148.6 39.318 C 148.56 39.592 148.46 39.799 148.46 39.943 L 148.46 40.432 C 148.46 40.751 148.55 41.029 148.73 41.264 C 148.92 41.499 149.16 41.615 149.44 41.615 C 149.91 41.615 150.4 41.379 150.9 40.91 C 151.22 40.61 151.63 40.12 152.12 39.436 L 152.22 39.299 L 151.97 39.082 C 151.66 39.506 151.39 39.833 151.18 40.061 C 150.81 40.445 150.52 40.637 150.3 40.637 C 150.17 40.637 150.05 40.6 150.05 40.52 C 149.95 40.449 149.95 40.366 149.95 40.266 C 149.95 40.194 149.99 39.973 150.09 39.602 L 152.07 32.623 C 152.07 32.593 151.97 32.563 151.97 32.543 z M 149.66 35.393 C 149.66 35.396 149.65 35.399 149.65 35.402 L 149.66 35.4 C 149.66 35.396 149.66 35.397 149.66 35.393 z " id="path4366" /><path style="font-style:italic;font-variant:normal;font-weight:500;font-stretch:normal;font-size:medium;line-height:125%;font-family:Times;-inkscape-font-specification:'Times Medium Italic';text-align:start;letter-spacing:-1.48px;word-spacing:0px;writing-mode:lr-tb;text-anchor:start;fill:#ffffff;fill-opacity:1;stroke:none;stroke-width:1px;stroke-linecap:butt;stroke-linejoin:miter;stroke-opacity:1" d="M 161.56 32.51 C 161.52 32.518 161.5 32.529 161.46 32.537 C 161.44 32.532 161.41 32.533 161.41 32.533 C 161.31 32.556 161.21 32.602 161.11 32.635 C 159.58 33.024 158.89 33.574 157.89 34.809 L 158.16 35.096 C 158.89 34.375 159.5 33.608 159.6 34.045 L 159.6 34.164 L 159.6 34.342 L 159.59 34.348 L 159.35 35.309 C 159.35 35.311 159.34 35.314 159.34 35.316 L 159.35 35.316 L 158.22 39.83 C 158.12 39.98 158.12 40.092 158.12 40.182 L 158.12 40.514 C 158.12 40.983 158.29 41.309 158.63 41.492 C 158.81 41.579 159 41.629 159.22 41.629 C 160.01 41.629 160.86 41.098 161.75 40.035 C 162.26 39.416 162.97 38.361 163.87 36.869 L 163.97 36.869 L 163.75 37.699 L 163.3 39.41 C 163.25 39.664 163.15 39.892 163.15 40.094 L 163.15 40.65 C 163.15 40.982 163.24 41.229 163.42 41.385 C 163.61 41.54 163.84 41.619 164.13 41.619 C 164.68 41.619 165.28 41.256 165.92 40.533 C 166.25 40.174 166.56 39.749 166.86 39.254 L 166.59 39.068 C 166.35 39.361 166.17 39.58 166.05 39.723 C 165.86 39.957 165.76 40.112 165.66 40.182 C 165.5 40.338 165.37 40.453 165.27 40.533 C 165.17 40.6 165.07 40.641 164.97 40.641 C 164.87 40.641 164.76 40.611 164.76 40.551 C 164.66 40.485 164.66 40.406 164.66 40.326 L 164.66 40.053 C 164.66 39.942 164.76 39.82 164.76 39.689 L 166.61 32.762 L 165.13 32.762 C 164.74 33.857 164.44 34.654 164.23 35.156 C 163.9 35.963 163.52 36.697 163.12 37.355 C 162.67 38.091 162.16 38.8 161.58 39.484 C 161 40.168 160.52 40.512 160.14 40.512 C 160 40.512 159.91 40.475 159.81 40.385 C 159.68 40.301 159.68 40.181 159.68 40.031 L 159.68 39.838 C 159.68 39.747 159.78 39.618 159.78 39.455 L 161.48 32.924 C 161.54 32.813 161.6 32.722 161.66 32.6 C 161.66 32.56 161.66 32.54 161.56 32.51 z " id="path4370" /><path inkscape:connector-curvature="0" id="path4374" style="font-style:italic;font-variant:normal;font-weight:500;font-stretch:normal;font-size:medium;line-height:125%;font-family:Times;-inkscape-font-specification:'Times Medium Italic';text-align:start;letter-spacing:-1.48px;word-spacing:0px;writing-mode:lr-tb;text-anchor:start;fill:#ffffff;fill-opacity:1;stroke:none;stroke-width:1px;stroke-linecap:butt;stroke-linejoin:miter;stroke-opacity:1" d="m 172.28,38.808 q 0,-2.17 1.95,-4.203 1.94,-2.033 4,-2.033 0.76,0 1.21,0.352 0.45,0.352 0.45,1.046 0,1.407 -1.65,2.414 -1.64,0.997 -3.46,1.222 l -0.56,0.07 q -0.12,0.401 -0.17,0.645 -0.1,0.235 -0.1,0.596 0,0.86 0.55,1.339 0.57,0.479 1.34,0.479 0.74,0 1.56,-0.489 0.47,-0.283 1.36,-1.016 l 0.25,0.225 q -0.44,0.557 -1.26,1.143 -1.46,1.046 -2.92,1.046 -1.04,0 -1.82,-0.733 -0.78,-0.733 -0.78,-2.101 z m 2.08,-1.574 q 1.87,-0.274 3.04,-1.309 1.17,-1.046 1.17,-2.072 0,-0.372 -0.17,-0.587 -0.18,-0.225 -0.52,-0.225 -0.64,0 -1.25,0.548 -0.61,0.537 -1.1,1.221 -0.52,0.802 -0.82,1.535 -0.16,0.391 -0.35,0.889 z" /><path inkscape:connector-curvature="0" id="path4376" style="font-style:italic;font-variant:normal;font-weight:500;font-stretch:normal;font-size:medium;line-height:125%;font-family:Times;-inkscape-font-specification:'Times Medium Italic';text-align:start;letter-spacing:-1.48px;word-spacing:0px;writing-mode:lr-tb;text-anchor:start;fill:#ffffff;fill-opacity:1;stroke:none;stroke-width:1px;stroke-linecap:butt;stroke-linejoin:miter;stroke-opacity:1" d="m 191.27,28.331 c -0.84,-0.08 -1.72,0.96 -1.94,1.485 -0.24,0.606 -0.46,1.838 -0.77,3.272 l 2.18,0 -0.17,0.825 -2.19,0 c 0,0 -1.16,4.137 -1.73,6.343 -0.56,2.205 -1.61,5.315 -1.61,5.315 l -0.9,-0.03 c 0,0 1.05,-4.178 1.37,-5.577 0.32,-1.4 1.3,-6.047 1.3,-6.047 l -1.81,0 0.18,-0.825 1.85,0 c 0.4,-1.518 0.8,-2.855 1.3,-3.584 0.98,-1.241 1.98,-2.688 4.17,-2.448 0.86,0.437 0.35,1.614 -1.23,1.275 z" sodipodi:nodetypes="cccccczcczcccccccc" /><path inkscape:connector-curvature="0" id="path4378" style="font-style:italic;font-variant:normal;font-weight:500;font-stretch:normal;font-size:medium;line-height:125%;font-family:Times;-inkscape-font-specification:'Times Medium Italic';text-align:start;letter-spacing:-1.48px;word-spacing:0px;writing-mode:lr-tb;text-anchor:start;fill:#ffffff;fill-opacity:1;stroke:none;stroke-width:1px;stroke-linecap:butt;stroke-linejoin:miter;stroke-opacity:1" d="m 191.47,39.296 q 0,0.812 0.4,1.349 0.41,0.528 1.19,0.528 1.59,0 2.83,-2.404 1.04,-2.063 1.04,-3.792 0,-0.733 -0.17,-1.183 -0.34,-0.85 -1.26,-0.85 -1.49,0 -2.8,2.238 -1.23,2.091 -1.23,4.114 z m 4.14,-6.763 q 1.64,0 2.32,0.88 0.67,0.87 0.67,2.062 0,2.072 -1.83,4.066 -1.88,2.072 -4.02,2.072 -1.35,0 -2.16,-0.782 -0.81,-0.782 -0.81,-2.199 0,-2.141 1.82,-4.095 1.85,-2.004 4.01,-2.004 z" /><path style="font-style:italic;font-variant:normal;font-weight:500;font-stretch:normal;font-size:medium;line-height:125%;font-family:Times;-inkscape-font-specification:'Times Medium Italic';text-align:start;letter-spacing:-1.48px;word-spacing:0px;writing-mode:lr-tb;text-anchor:start;fill:#ffffff;fill-opacity:1;stroke:none;stroke-width:1px;stroke-linecap:butt;stroke-linejoin:miter;stroke-opacity:1" d="M 205.56 32.537 C 204.99 32.537 204.39 32.919 203.76 33.682 C 203.13 34.438 202.59 35.274 202.12 36.193 L 201.9 36.613 L 202.97 32.959 L 202.97 32.812 C 202.97 32.794 202.95 32.808 202.93 32.818 C 202.95 32.734 202.98 32.655 202.98 32.639 C 201.08 33.036 200.41 33.574 199.32 34.936 L 199.59 35.225 C 200.31 34.504 200.92 33.735 201.02 34.172 L 201.02 34.523 C 201 34.621 200.92 34.933 200.79 35.387 C 200.81 35.374 200.82 35.364 200.84 35.352 C 200.82 35.411 200.82 35.456 200.8 35.518 L 199.17 41.4 L 200.68 41.4 C 200.97 40.442 201.21 39.703 201.39 39.182 C 201.67 38.355 201.92 37.69 202.14 37.188 C 202.52 36.361 202.95 35.593 203.43 34.883 C 203.91 34.173 204.28 33.816 204.53 33.816 C 204.56 33.816 204.66 33.825 204.66 33.855 C 204.66 33.875 204.66 33.905 204.76 33.945 L 204.87 34.16 C 204.93 34.264 205.02 34.354 205.12 34.434 C 205.22 34.512 205.37 34.553 205.58 34.553 C 205.87 34.553 206.1 34.457 206.26 34.268 C 206.41 34.073 206.51 33.828 206.51 33.535 C 206.51 33.275 206.43 33.044 206.26 32.842 C 206.1 32.64 205.87 32.537 205.56 32.537 z M 200.79 35.387 C 200.77 35.407 200.75 35.422 200.72 35.443 L 200.78 35.443 C 200.79 35.412 200.79 35.417 200.79 35.387 z " id="path4380" /><path inkscape:connector-curvature="0" id="path4382" style="font-style:italic;font-variant:normal;font-weight:500;font-stretch:normal;font-size:medium;line-height:125%;font-family:Times;-inkscape-font-specification:'Times Medium Italic';text-align:start;letter-spacing:-1.48px;word-spacing:0px;writing-mode:lr-tb;text-anchor:start;fill:#ffffff;fill-opacity:1;stroke:none;stroke-width:1px;stroke-linecap:butt;stroke-linejoin:miter;stroke-opacity:1" d="m 124.6,59.182 c 2.91,0 4.95,-1.199 6.13,-3.597 0.6,-1.244 0.91,-2.512 0.91,-3.802 0,-1.244 -0.31,-2.293 -0.92,-3.147 -0.61,-0.854 -2.32,-1.34 -3.92,-1.34 -0.43,0 -0.75,0.04 -0.93,0.127 -0.19,0.09 -0.31,0.234 -0.37,0.449 l -2.13,9.863 c -0.1,0.196 -0.1,0.339 -0.1,0.431 -0,0.09 -0,0.182 -0,0.273 0,0.287 0.1,0.482 0.26,0.586 0.18,0.105 0.54,0.157 1.09,0.157 z m -4.94,0.313 c 0.47,-0.04 0.8,-0.124 0.97,-0.254 0.28,-0.196 0.5,-0.603 0.68,-1.222 l 1.85,-8.915 c 0.1,-0.267 0.13,-0.496 0.16,-0.685 0.1,-0.195 0.1,-0.364 0.1,-0.507 0,-0.326 -0.11,-0.551 -0.33,-0.675 -0.22,-0.13 -0.63,-0.202 -1.22,-0.215 l 0,-0.322 5.17,0 c 0.96,0 2.4,0.144 3.12,0.314 0.73,0.169 1.4,0.518 2.02,1.046 0.43,0.39 0.8,0.853 1.09,1.388 0.43,0.807 0.65,1.716 0.65,2.726 0,2.007 -0.78,3.747 -2.32,5.219 -1.7,1.616 -3.9,2.424 -6.61,2.424 l -5.3,0 z" sodipodi:nodetypes="scscsccccscsscccccscccscccscscc" /><path inkscape:connector-curvature="0" id="path4384" style="font-style:italic;font-variant:normal;font-weight:500;font-stretch:normal;font-size:medium;line-height:125%;font-family:Times;-inkscape-font-specification:'Times Medium Italic';text-align:start;letter-spacing:-1.48px;word-spacing:0px;writing-mode:lr-tb;text-anchor:start;fill:#ffffff;fill-opacity:1;stroke:none;stroke-width:1px;stroke-linecap:butt;stroke-linejoin:miter;stroke-opacity:1" d="m 141,52.761 q 0,-0.704 -0.33,-1.036 -0.32,-0.333 -0.78,-0.333 -1.59,0 -2.96,2.444 -1.2,2.15 -1.2,3.704 0,0.782 0.33,1.143 0.34,0.352 0.84,0.352 1.48,0 2.84,-2.375 1.26,-2.16 1.26,-3.899 z m -1.23,-1.808 q 0.78,0 1.2,0.4 0.22,0.215 0.35,0.567 l 0.1,0.137 0.21,-0.743 q 0,-0.127 0.1,-0.166 0,-0.05 0.14,-0.06 l 1.1,-0.127 q 0.1,0 0.1,0.04 0,0.03 0,0.117 -0,0.127 -0.1,0.205 -0,0.07 -0.1,0.205 l -0.9,3.499 q -0.29,1.144 -0.5,1.975 -0.36,1.505 -0.36,1.72 0,0.136 0.1,0.205 0.1,0.06 0.19,0.06 0.1,0 0.18,-0.06 0.11,-0.06 0.26,-0.176 l 0.16,-0.137 q 0.1,-0.07 0.18,-0.156 0.1,-0.1 0.23,-0.235 l 0.61,-0.625 0.23,0.205 q -1.01,1.3 -1.63,1.769 -0.61,0.459 -1.17,0.459 -0.36,0 -0.57,-0.254 -0.19,-0.254 -0.19,-0.635 0,-0.352 0.12,-1.007 0.14,-0.664 0.27,-1.114 -0.18,0.293 -0.6,0.86 -0.41,0.557 -1.02,1.085 -0.71,0.635 -1.36,0.899 -0.51,0.176 -0.98,0.176 -0.79,0 -1.44,-0.645 -0.64,-0.655 -0.64,-1.847 0,-2.053 1.83,-4.281 1.9,-2.316 3.93,-2.316 z" /><path inkscape:connector-curvature="0" id="path4388" style="font-style:italic;font-variant:normal;font-weight:500;font-stretch:normal;font-size:medium;line-height:125%;font-family:Times;-inkscape-font-specification:'Times Medium Italic';text-align:start;letter-spacing:-1.48px;word-spacing:0px;writing-mode:lr-tb;text-anchor:start;fill:#ffffff;fill-opacity:1;stroke:none;stroke-width:1px;stroke-linecap:butt;stroke-linejoin:miter;stroke-opacity:1" d="m 155.33,52.761 q 0,-0.704 -0.32,-1.036 -0.32,-0.333 -0.78,-0.333 -1.59,0 -2.96,2.444 -1.2,2.15 -1.2,3.704 0,0.782 0.33,1.143 0.34,0.352 0.84,0.352 1.47,0 2.84,-2.375 1.25,-2.16 1.25,-3.899 z m -1.22,-1.808 q 0.77,0 1.19,0.4 0.23,0.215 0.36,0.567 l 0.1,0.137 0.21,-0.743 q 0,-0.127 0.1,-0.166 0,-0.05 0.14,-0.06 l 1.1,-0.127 q 0.1,0 0.1,0.04 0,0.03 0,0.117 -0,0.127 -0.1,0.205 -0,0.07 -0.1,0.205 l -0.9,3.499 q -0.29,1.144 -0.5,1.975 -0.36,1.505 -0.36,1.72 0,0.136 0.1,0.205 0.1,0.06 0.19,0.06 0.1,0 0.18,-0.06 0.11,-0.06 0.26,-0.176 l 0.16,-0.137 q 0.1,-0.07 0.18,-0.156 0.1,-0.1 0.23,-0.235 l 0.61,-0.625 0.23,0.205 q -1.01,1.3 -1.63,1.769 -0.62,0.459 -1.17,0.459 -0.36,0 -0.57,-0.254 -0.2,-0.254 -0.2,-0.635 0,-0.352 0.13,-1.007 0.14,-0.664 0.27,-1.114 -0.18,0.293 -0.6,0.86 -0.41,0.557 -1.02,1.085 -0.71,0.635 -1.37,0.899 -0.5,0.176 -0.97,0.176 -0.79,0 -1.44,-0.645 -0.64,-0.655 -0.64,-1.847 0,-2.053 1.83,-4.281 1.9,-2.316 3.93,-2.316 z" /><path inkscape:connector-curvature="0" id="path4390" style="font-style:italic;font-variant:normal;font-weight:500;font-stretch:normal;font-size:medium;line-height:125%;font-family:Times;-inkscape-font-specification:'Times Medium Italic';text-align:start;letter-spacing:-1.48px;word-spacing:0px;writing-mode:lr-tb;text-anchor:start;fill:#ffffff;fill-opacity:1;stroke:none;stroke-width:1px;stroke-linecap:butt;stroke-linejoin:miter;stroke-opacity:1" d="m 169.7,54.588 -0.88,-5.19 -2.98,5.19 3.86,0 z m -8.4,4.907 q 0.66,-0.166 1.04,-0.616 0.39,-0.45 1.55,-2.414 l 5.84,-10.008 0.44,0 1.93,11.327 q 0.18,1.095 0.44,1.368 0.25,0.264 1.08,0.343 l 0,0.322 -4.93,0 0,-0.322 q 0.88,-0.09 1.15,-0.216 0.42,-0.195 0.42,-0.762 0,-0.146 -0,-0.313 -0,-0.166 -0,-0.283 l -0.4,-2.619 -4.4,0 -1.16,2.248 q -0.13,0.224 -0.23,0.479 -0.16,0.449 -0.16,0.752 0,0.381 0.25,0.538 0.27,0.156 0.93,0.176 l 0,0.322 -3.75,0 0,-0.322 z" /><path inkscape:connector-curvature="0" id="path4394" style="font-style:italic;font-variant:normal;font-weight:500;font-stretch:normal;font-size:medium;line-height:125%;font-family:Times;-inkscape-font-specification:'Times Medium Italic';text-align:start;letter-spacing:-1.48px;word-spacing:0px;writing-mode:lr-tb;text-anchor:start;fill:#ffffff;fill-opacity:1;stroke:none;stroke-width:1px;stroke-linecap:butt;stroke-linejoin:miter;stroke-opacity:1" d="m 190.97,52.761 q 0,-0.704 -0.32,-1.036 -0.32,-0.333 -0.78,-0.333 -1.59,0 -2.96,2.444 -1.2,2.15 -1.2,3.704 0,0.782 0.33,1.143 0.34,0.352 0.84,0.352 1.47,0 2.84,-2.375 1.25,-2.16 1.25,-3.899 z m -1.22,-1.808 q 0.77,0 1.19,0.4 0.23,0.215 0.36,0.567 l 0,0.137 0.21,-0.743 q 0,-0.127 0.1,-0.166 0,-0.05 0.14,-0.06 l 1.1,-0.127 q 0.1,0 0.1,0.04 0,0.03 0,0.117 -0,0.127 -0.1,0.205 -0,0.07 -0.1,0.205 l -0.9,3.499 q -0.29,1.144 -0.5,1.975 -0.36,1.505 -0.36,1.72 0,0.136 0.1,0.205 0.1,0.06 0.19,0.06 0.1,0 0.18,-0.06 0.11,-0.06 0.26,-0.176 l 0.16,-0.137 q 0.1,-0.07 0.17,-0.156 0.1,-0.1 0.24,-0.235 l 0.61,-0.625 0.23,0.205 q -1.01,1.3 -1.63,1.769 -0.62,0.459 -1.17,0.459 -0.37,0 -0.57,-0.254 -0.2,-0.254 -0.2,-0.635 0,-0.352 0.13,-1.007 0.14,-0.664 0.26,-1.114 -0.17,0.293 -0.59,0.86 -0.41,0.557 -1.02,1.085 -0.71,0.635 -1.36,0.899 -0.52,0.176 -0.98,0.176 -0.79,0 -1.44,-0.645 -0.64,-0.655 -0.64,-1.847 0,-2.053 1.83,-4.281 1.9,-2.316 3.93,-2.316 z" /><path inkscape:connector-curvature="0" id="path4396" style="font-style:italic;font-variant:normal;font-weight:500;font-stretch:normal;font-size:medium;line-height:125%;font-family:Times;-inkscape-font-specification:'Times Medium Italic';text-align:start;letter-spacing:-1.48px;word-spacing:0px;writing-mode:lr-tb;text-anchor:start;fill:#ffffff;fill-opacity:1;stroke:none;stroke-width:1px;stroke-linecap:butt;stroke-linejoin:miter;stroke-opacity:1" d="m 196.16,47.06 c 0,-0.09 0,-0.169 0.1,-0.254 l 0,-0.205 c 0,-0.222 -0.1,-0.356 -0.27,-0.401 -0.18,-0.05 -0.53,-0.08 -1.07,-0.07 l 0,-0.322 c 0.3,-0.04 0.63,-0.09 1.01,-0.137 0.38,-0.05 0.63,-0.09 0.75,-0.107 0.37,-0.07 0.81,-0.163 1.33,-0.294 0,0 0.1,0.03 0.14,0.1 l -3.35,12.65 c -0.1,0.28 -0.12,0.449 -0.13,0.508 -0,0.06 -0,0.117 -0,0.176 0,0.124 0,0.231 0.1,0.322 0,0.09 0.13,0.127 0.26,0.127 0.23,0 0.54,-0.208 0.91,-0.625 0.38,-0.417 0.7,-0.821 0.96,-1.212 l 0.26,0.186 c -0.55,0.827 -0.99,1.401 -1.31,1.72 -0.54,0.541 -1.08,0.811 -1.63,0.811 -0.23,0 -0.44,-0.06 -0.62,-0.176 -0.28,-0.176 -0.42,-0.475 -0.42,-0.899 0,-0.163 0,-0.381 0.1,-0.655 0,-0.163 0.1,-0.352 0.12,-0.567 l 2.87,-10.675 z" sodipodi:nodetypes="ccscccccccccscsccccscscccc" /><path style="font-style:italic;font-variant:normal;font-weight:500;font-stretch:normal;font-size:medium;line-height:125%;font-family:Times;-inkscape-font-specification:'Times Medium Italic';text-align:start;letter-spacing:-1.48px;word-spacing:0px;writing-mode:lr-tb;text-anchor:start;fill:#ffffff;fill-opacity:1;stroke:none;stroke-width:1px;stroke-linecap:butt;stroke-linejoin:miter;stroke-opacity:1" d="M 200.37 50.91 C 197.92 51.019 197.55 52.146 197.23 53.861 L 197.6 53.986 C 197.9 53.007 198.75 52.339 199.24 52.561 C 199.35 52.611 199.44 52.676 199.52 52.752 C 199.73 53.207 199.97 53.827 200.21 54.752 C 200.44 55.586 200.68 56.536 200.92 57.605 C 201.17 58.674 201.29 59.391 201.29 59.756 C 201.29 60.141 200.94 60.753 200.22 61.594 C 199.52 62.441 199.01 62.863 198.69 62.863 C 198.63 62.863 198.62 62.852 198.52 62.832 C 198.5 62.822 198.4 62.794 198.4 62.764 L 198.26 62.662 C 198.12 62.545 198 62.461 197.87 62.391 C 197.75 62.331 197.6 62.301 197.44 62.301 C 197.19 62.301 197 62.375 196.87 62.525 C 196.78 62.674 196.68 62.855 196.68 63.062 L 196.64 63.066 C 196.64 63.346 196.74 63.567 196.95 63.73 C 197.15 63.894 197.39 63.975 197.65 63.975 C 198.34 63.975 199.2 63.385 200.23 62.205 C 200.88 61.455 201.66 60.391 202.57 59.01 C 203.29 57.902 203.95 56.759 204.54 55.58 C 205.3 54.036 205.68 52.915 205.68 52.217 C 205.68 51.755 205.58 51.429 205.37 51.24 C 205.17 51.047 204.91 50.947 204.59 50.947 C 204.33 50.947 204.13 51.015 204 51.152 C 203.9 51.289 203.8 51.458 203.8 51.66 C 203.8 51.901 203.87 52.093 204.01 52.236 C 204.15 52.379 204.28 52.479 204.38 52.529 L 204.54 52.619 C 204.69 52.697 204.72 52.793 204.82 52.904 C 204.92 53.008 204.92 53.116 204.92 53.227 C 204.92 53.709 204.6 54.553 203.98 55.758 C 203.66 56.371 203.16 57.249 202.47 58.396 L 202.08 56.07 C 201.98 55.464 201.72 54.493 201.3 53.158 C 200.86 51.719 200.54 51.002 200.38 50.975 C 200.38 50.966 200.37 50.91 200.37 50.91 z " id="path4398" /><path style="font-style:italic;font-variant:normal;font-weight:500;font-stretch:normal;font-size:medium;line-height:125%;font-family:Times;-inkscape-font-specification:'Times Medium Italic';text-align:start;letter-spacing:-1.48px;word-spacing:0px;writing-mode:lr-tb;text-anchor:start;fill:#ffffff;fill-opacity:1;stroke:none;stroke-width:1px;stroke-linecap:butt;stroke-linejoin:miter;stroke-opacity:1" d="M 214.7 46.682 C 214.43 46.682 214.2 46.786 214.01 46.994 C 213.83 47.203 213.73 47.457 213.73 47.756 C 213.73 48.05 213.83 48.302 214.01 48.51 C 214.2 48.719 214.43 48.822 214.7 48.822 C 214.97 48.822 215.19 48.722 215.38 48.52 C 215.58 48.312 215.68 48.056 215.68 47.756 C 215.68 47.457 215.58 47.203 215.38 46.994 C 215.19 46.786 214.97 46.682 214.7 46.682 z M 214.82 50.947 C 212.92 51.345 212.24 51.884 211.15 53.246 L 211.42 53.535 C 212.15 52.814 212.76 52.045 212.86 52.482 L 212.86 52.748 L 212.59 53.73 C 212.58 53.739 212.57 53.745 212.56 53.754 L 212.59 53.754 L 211.5 57.734 C 211.45 58.008 211.35 58.218 211.35 58.361 L 211.35 58.85 C 211.35 59.169 211.44 59.446 211.62 59.68 C 211.81 59.915 212.05 60.031 212.33 60.031 C 212.8 60.031 213.29 59.797 213.79 59.328 C 214.11 59.028 214.51 58.538 215 57.854 L 215.1 57.717 L 214.85 57.502 C 214.53 57.926 214.27 58.251 214.06 58.479 C 213.69 58.864 213.4 59.055 213.18 59.055 C 213.05 59.055 212.93 59.017 212.93 58.938 C 212.83 58.867 212.83 58.784 212.83 58.684 C 212.83 58.613 212.87 58.391 212.97 58.02 L 214.7 51.371 L 214.69 51.371 C 214.7 51.338 214.71 51.311 214.72 51.277 C 214.72 51.277 214.82 50.967 214.82 50.947 z " id="path4402" /><path inkscape:connector-curvature="0" id="path4404" style="font-style:italic;font-variant:normal;font-weight:500;font-stretch:normal;font-size:medium;line-height:125%;font-family:Times;-inkscape-font-specification:'Times Medium Italic';text-align:start;letter-spacing:-1.48px;word-spacing:0px;writing-mode:lr-tb;text-anchor:start;fill:#ffffff;fill-opacity:1;stroke:none;stroke-width:1px;stroke-linecap:butt;stroke-linejoin:miter;stroke-opacity:1" d="m 221.6,50.992 q 1.19,0 1.72,0.537 0.52,0.538 0.52,1.046 0,0.459 -0.27,0.713 -0.27,0.254 -0.64,0.254 -0.37,0 -0.61,-0.224 -0.24,-0.225 -0.24,-0.557 0,-0.254 0.15,-0.548 0.17,-0.293 0.17,-0.381 0,-0.176 -0.21,-0.293 -0.19,-0.127 -0.63,-0.127 -1.58,0 -2.74,1.788 -1.15,1.789 -1.15,3.753 0,1.105 0.47,1.73 0.47,0.626 1.4,0.626 0.76,0 1.46,-0.43 0.71,-0.44 1.31,-1.114 l 0.1,-0.08 0.28,0.214 q -0.68,0.871 -1.32,1.34 -1.12,0.811 -2.49,0.811 -1.31,0 -2.12,-0.831 -0.81,-0.841 -0.81,-2.287 0,-2.219 1.8,-4.085 1.79,-1.857 3.88,-1.857 z" /><path inkscape:connector-curvature="0" id="path4406" style="font-style:italic;font-variant:normal;font-weight:500;font-stretch:normal;font-size:medium;line-height:125%;font-family:Times;-inkscape-font-specification:'Times Medium Italic';text-align:start;letter-spacing:-1.48px;word-spacing:0px;writing-mode:lr-tb;text-anchor:start;fill:#ffffff;fill-opacity:1;stroke:none;stroke-width:1px;stroke-linecap:butt;stroke-linejoin:miter;stroke-opacity:1" d="m 223.49,56.905 0.33,0 q 0.21,1.182 0.5,1.73 0.54,1.006 1.61,1.006 0.59,0 0.99,-0.42 0.41,-0.42 0.41,-1.114 0,-0.43 -0.11,-0.704 -0.1,-0.273 -0.25,-0.498 l -0.81,-1.202 q -0.73,-1.095 -0.92,-1.467 -0.28,-0.557 -0.28,-1.114 0,-0.85 0.61,-1.495 0.61,-0.655 1.73,-0.655 0.48,0 1.1,0.186 0.62,0.176 0.84,0.176 0.25,0 0.36,-0.1 0.12,-0.1 0.22,-0.264 l 0.28,0 -0.4,2.776 -0.32,0 q -0.13,-0.948 -0.39,-1.427 -0.46,-0.89 -1.48,-0.89 -0.43,0 -0.77,0.274 -0.34,0.264 -0.34,0.782 0,0.401 0.15,0.704 0.16,0.303 0.7,1.075 l 0.69,0.997 q 0.54,0.772 0.76,1.261 0.23,0.488 0.23,1.055 0,1.056 -0.9,1.779 -0.9,0.723 -2.14,0.723 -0.4,0 -1.14,-0.166 -0.75,-0.166 -0.87,-0.166 -0.19,0 -0.29,0.09 -0.1,0.09 -0.16,0.263 l -0.33,0 0.39,-3.195 z" /></svg>