<?xml version="1.0" encoding="UTF-8" standalone="no"?>
<!-- Created with Inkscape (http://www.inkscape.org/) -->

<svg
   xmlns:dc="http://purl.org/dc/elements/1.1/"
   xmlns:cc="http://creativecommons.org/ns#"
   xmlns:rdf="http://www.w3.org/1999/02/22-rdf-syntax-ns#"
   xmlns:svg="http://www.w3.org/2000/svg"
   xmlns="http://www.w3.org/2000/svg"
   xmlns:sodipodi="http://sodipodi.sourceforge.net/DTD/sodipodi-0.dtd"
   xmlns:inkscape="http://www.inkscape.org/namespaces/inkscape"
   width="250"
   height="91"
   viewBox="0 0 250 91"
   id="svg2"
   version="1.1"
   inkscape:version="0.92.2 (5c3e80d, 2017-08-06)"
   sodipodi:docname="liquorice.svg"
   inkscape:export-filename="C:\Users\Amy\Desktop\Assets\arup.png"
   inkscape:export-xdpi="90"
   inkscape:export-ydpi="90">
  <defs
     id="defs4" />
  <sodipodi:namedview
     id="base"
     pagecolor="#ffffff"
     bordercolor="#666666"
     borderopacity="1.0"
     inkscape:pageopacity="0.0"
     inkscape:pageshadow="2"
     inkscape:zoom="2.8000014"
     inkscape:cx="211.29257"
     inkscape:cy="84.848646"
     inkscape:document-units="px"
     inkscape:current-layer="layer1"
     showgrid="false"
     inkscape:window-width="1920"
     inkscape:window-height="1001"
     inkscape:window-x="-9"
     inkscape:window-y="-9"
     inkscape:window-maximized="1"
     units="px" />
  <metadata
     id="metadata7">
    <rdf:RDF>
      <cc:Work
         rdf:about="">
        <dc:format>image/svg+xml</dc:format>
        <dc:type
           rdf:resource="http://purl.org/dc/dcmitype/StillImage" />
        <dc:title></dc:title>
      </cc:Work>
    </rdf:RDF>
  </metadata>
  <g
     inkscape:label="Layer 1"
     inkscape:groupmode="layer"
     id="layer1"
     transform="translate(0,-961.4)">
    <rect
       style="opacity:0.001;fill:none;fill-opacity:1;stroke:none;stroke-width:2.5;stroke-linecap:round;stroke-linejoin:round;stroke-miterlimit:4;stroke-dasharray:none;stroke-dashoffset:0;stroke-opacity:1"
       id="rect4175"
       width="250"
       height="91"
       x="0"
       y="961.4" />
    <path
       style="fill:#ffffff;stroke-width:0.46654639"
       d="m 26.795502,1006.8985 v -18.42859 h 88.643808 88.64381 v 18.42859 18.4286 H 115.43931 26.795502 Z m 55.525387,8.5145 c 0.0037,-0.834 0.132966,-1.9887 0.287692,-2.5661 0.253605,-0.9463 0.115852,-1.0497 -1.398524,-1.0497 h -1.679838 l 1.018877,-1.9548 c 0.562515,-1.0791 1.100051,-3.1166 1.200102,-4.5488 0.484643,-6.93731 -6.960117,-12.82828 -14.175482,-11.21694 -5.923232,1.32276 -9.519607,5.49363 -9.519607,11.04024 0,3.9054 2.276219,7.3157 6.242513,9.3524 1.98219,1.0179 2.924411,1.2087 5.537783,1.1215 5.607356,-0.1872 6.142107,-0.154 8.981018,0.5581 1.539603,0.3862 2.956738,0.7197 3.149188,0.7412 0.192451,0.022 0.352775,-0.6432 0.356278,-1.4771 z m -15.169125,-4.2744 c -0.769802,-0.3421 -1.924504,-1.1906 -2.566005,-1.8855 -0.967402,-1.0479 -1.166366,-1.7293 -1.166366,-3.9945 0,-2.3903 0.172211,-2.9108 1.380265,-4.1717 2.769364,-2.8906 7.140057,-3.0236 9.863502,-0.3002 2.138966,2.139 2.627268,5.4647 1.137119,7.7447 -0.371996,0.5691 -0.612305,0.5923 -1.287127,0.1241 -2.554794,-1.7729 -4.724123,-2.8652 -5.961749,-3.0019 -1.379388,-0.1525 -1.401658,-0.1199 -1.539197,2.2525 -0.135979,2.3455 -0.103076,2.4153 1.283002,2.7197 0.782408,0.1718 1.422561,0.5058 1.422561,0.742 0,0.5902 -0.903924,0.5095 -2.566005,-0.2292 z m 32.208915,3.6261 c 0.989581,-0.5135 2.440281,-1.725 3.223751,-2.6922 l 1.4245,-1.7585 0.14671,-8.1228 0.14671,-8.12275 h -2.59608 -2.596081 v 6.96005 c 0,3.828 -0.13041,7.2999 -0.28981,7.7153 -0.37686,0.982 -2.600592,2.1203 -4.142379,2.1203 -1.541786,0 -3.765514,-1.1383 -4.142381,-2.1203 -0.159396,-0.4154 -0.289809,-3.8873 -0.289809,-7.7153 v -6.96005 h -2.566006 -2.566005 v 7.51085 c 0,6.0149 0.15341,7.8342 0.770184,9.1339 0.877411,1.8491 3.172964,3.8384 5.406368,4.6853 2.085952,0.791 5.902474,0.4913 8.070328,-0.6338 z m 24.709741,-0.5843 c 4.59322,-2.5506 6.70727,-7.6113 5.19011,-12.4243 -1.51032,-4.79131 -7.71976,-8.77951 -12.34428,-7.92857 -4.77059,0.87781 -8.50851,3.99747 -9.70584,8.10067 -2.77727,9.5175 7.86181,17.2489 16.86001,12.2522 z m -8.39783,-3.9463 c -3.90304,-1.7907 -4.93696,-5.9874 -2.25915,-9.1698 3.23318,-3.8424 10.0396,-2.13341 11.1215,2.7924 0.37967,1.7286 -0.86001,4.4554 -2.60437,5.7285 -1.57961,1.1528 -4.49977,1.4557 -6.25798,0.6489 z m 59.39234,5.0464 c 1.32537,-0.3936 2.99056,-1.222 3.70041,-1.8409 l 1.29065,-1.1254 -1.64414,-1.6616 -1.64414,-1.6616 -1.83697,0.9366 c -5.73132,2.922 -12.3258,-2.0509 -9.7251,-7.3336 1.63419,-3.31951 6.54691,-4.63071 9.90898,-2.64471 l 1.45267,0.85811 1.74434,-1.76121 c 1.7111,-1.7276 1.72656,-1.7751 0.81126,-2.489 -3.24837,-2.53329 -8.85468,-3.33995 -12.5116,-1.80016 -4.65751,1.96106 -7.74963,6.87507 -7.13731,11.34247 0.59114,4.3128 3.36431,7.4617 7.9755,9.0562 2.91768,1.0089 4.54851,1.0356 7.61545,0.1248 z m -126.808295,-2.0836 v -2.3328 h -4.898737 -4.898736 v -8.3978 -8.39785 h -2.566006 -2.566005 v 10.73055 10.7306 h 7.464742 7.464742 z m 7.464742,-8.3979 v -10.73055 h -2.566005 -2.566005 v 10.73055 10.7306 h 2.566005 2.566005 z m 81.744743,6.5298 0.13415,-4.2009 3.18954,4.2009 3.18955,4.2008 h 3.00034 3.00034 l -2.53273,-3.783 -2.53274,-3.783 1.56984,-1.3783 c 2.8772,-2.5262 2.94794,-7.12961 0.15385,-10.01241 -1.9719,-2.03449 -3.75694,-2.49865 -9.62118,-2.50182 l -4.7821,-0.005 v 10.73053 10.7306 h 2.5485 2.5485 z m -0.0991,-9.5623 v -2.56601 h 2.13013 c 2.85161,0 3.93497,0.6376 3.93497,2.31581 0,1.9984 -1.09353,2.8162 -3.76569,2.8162 h -2.29941 z m 19.59495,3.0325 v -10.73055 h -2.56601 -2.566 v 10.73055 10.7306 h 2.566 2.56601 z m 40.58953,8.3979 v -2.3328 h -4.89873 -4.89874 v -1.8662 -1.8661 h 3.73237 3.73237 v -2.3328 -2.3327 h -3.73237 -3.73237 v -1.8662 -1.86621 h 4.89874 4.89873 v -2.33271 -2.33273 h -7.46474 -7.46474 v 10.73055 10.7306 h 7.46474 7.46474 z m 8.86439,10.4666 c 0,-0.915 0.21733,-2.0697 0.48296,-2.566 0.64785,-1.2106 3.04788,-1.2125 3.80315,0 0.54724,0.8763 0.61316,0.8691 2.56996,-0.2777 1.64689,-0.9651 2.00831,-1.044 2.00831,-0.4386 0,0.4061 -0.83979,1.2684 -1.86619,1.9164 -1.0264,0.6479 -1.86618,1.3854 -1.86618,1.6387 0,0.2534 0.83978,0.4607 1.86618,0.4607 1.0264,0 1.86619,0.21 1.86619,0.4666 0,0.2783 -1.78843,0.4665 -4.43219,0.4665 h -4.43219 z m 3.64672,-0.5525 c -0.10618,-0.9228 -0.40962,-1.283 -1.08072,-1.283 -0.6711,0 -0.97454,0.3602 -1.08072,1.283 -0.12797,1.1121 0.016,1.283 1.08072,1.283 1.06477,0 1.20869,-0.1709 1.08072,-1.283 z m 6.06327,1.8974 c 0.33679,-0.1348 0.73919,-0.1183 0.89422,0.037 0.15503,0.155 -0.12053,0.2653 -0.61234,0.245 -0.54351,-0.022 -0.65406,-0.1329 -0.28188,-0.2818 z m 3.00339,-0.015 c 0.70566,-0.1069 1.86036,-0.1069 2.56601,0 0.70565,0.1069 0.1283,0.1943 -1.283,0.1943 -1.41131,0 -1.98866,-0.087 -1.28301,-0.1943 z m -0.95441,-3.1649 0.13796,-1.8662 2.21609,-0.1422 c 1.33299,-0.086 2.2161,0.054 2.2161,0.3499 0,0.2706 -0.85518,0.4921 -1.90039,0.4921 -1.55782,0 -1.87251,0.1472 -1.74568,0.8164 0.10814,0.5706 0.68041,0.8601 1.9004,0.9613 2.52852,0.2097 2.14198,0.9043 -0.60838,1.0932 l -2.35406,0.1616 z m -8.18757,-3.4192 c -1.02484,-1.1325 -0.98202,-3.4778 0.0811,-4.4398 1.13244,-1.0249 3.4777,-0.9821 4.43978,0.081 1.02485,1.1324 0.98202,3.4777 -0.0811,4.4398 -1.13245,1.0248 -3.47771,0.982 -4.43979,-0.081 z m 4.13074,-1.4863 c 0.43404,-0.7023 -0.17133,-2.2008 -1.02072,-2.5268 -0.91311,-0.3503 -2.94905,0.9047 -2.94905,1.818 0,1.0752 1.87314,2.1443 2.84542,1.6239 0.45924,-0.2458 0.9652,-0.6576 1.12435,-0.9151 z m 3.96152,-2.7926 c 0,-1.5804 0.69733,-1.885 1.06827,-0.4665 0.1869,0.7147 0.63637,0.9331 1.9206,0.9331 0.92212,0 1.67659,0.2099 1.67659,0.4665 0,0.2566 -1.04973,0.4666 -2.33273,0.4666 -2.2809,0 -2.33273,-0.031 -2.33273,-1.3997 z m 0.55985,-1.9595 c -0.88712,-0.8871 -0.6802,-3.0752 0.34257,-3.6226 1.54302,-0.8258 1.89685,-0.5491 1.89685,1.4832 0,1.8537 0.0455,1.9206 0.79646,1.1697 0.62209,-0.6221 0.67316,-0.9198 0.23328,-1.3597 -0.74955,-0.7495 -0.71275,-1.3096 0.0861,-1.3096 0.87483,0 1.35912,2.1284 0.74528,3.2754 -0.56441,1.0546 -3.17778,1.2863 -4.10049,0.3636 z m 1.30633,-1.5396 c 0,-0.6415 -0.20995,-1.1663 -0.46655,-1.1663 -0.52121,0 -0.63949,1.5377 -0.15551,2.0217 0.51429,0.5143 0.62206,0.3661 0.62206,-0.8554 z m -9.79747,0.6999 c -1.99044,-1.9905 -0.65564,-5.1321 2.18052,-5.1321 1.75004,0 2.95149,1.2675 2.95149,3.1137 0,2.6878 -3.20288,3.9475 -5.13201,2.0184 z m 3.71379,-1.144 c 0.74454,-0.8971 0.20785,-2.4655 -0.97182,-2.8399 -0.98885,-0.3138 -2.74197,0.8775 -2.74197,1.8634 0,1.5334 2.66912,2.2352 3.71379,0.9765 z m 4.51584,-2.9122 c -0.50507,-0.505 -0.33007,-2.7237 0.26151,-3.3153 0.30792,-0.3079 1.33141,-0.5598 2.27441,-0.5598 1.54919,0 1.74285,0.1414 2.00785,1.4664 0.32686,1.6343 -0.30952,2.7325 -1.5835,2.7325 -0.87797,0 -1.39243,-0.8862 -1.39243,-2.3984 0,-0.5423 -0.20787,-0.7941 -0.50435,-0.6108 -0.27739,0.1714 -0.38159,0.8008 -0.23156,1.3986 0.26854,1.07 -0.24872,1.8701 -0.83193,1.2868 z m 3.242,-2.3565 c -0.50966,-0.5096 -0.85914,0.3009 -0.49323,1.1439 0.34696,0.7993 0.37212,0.7986 0.56543,-0.016 0.11127,-0.4691 0.0788,-0.9765 -0.0722,-1.1275 z m -12.40473,0.1143 c 0,-0.3849 -0.31491,-0.6998 -0.69982,-0.6998 -0.3849,0 -0.69982,-0.21 -0.69982,-0.4666 0,-0.2566 0.31492,-0.4665 0.69982,-0.4665 0.38879,0 0.69982,-0.4147 0.69982,-0.9331 0,-0.5184 0.31104,-0.9331 0.69982,-0.9331 0.38879,0 0.69982,0.4147 0.69982,0.9331 0,0.76 0.31104,0.9331 1.67659,0.9331 1.28423,0 1.7337,-0.2184 1.9206,-0.9331 0.36661,-1.4019 1.15202,-1.1223 0.98263,0.3499 -0.13519,1.1749 -0.33429,1.295 -2.36372,1.4252 -1.5559,0.1 -2.2161,0.343 -2.2161,0.8164 0,0.3709 -0.31492,0.6743 -0.69982,0.6743 -0.3849,0 -0.69982,-0.3149 -0.69982,-0.6998 z m 12.48373,-2.368 c -0.17638,-0.1764 -0.11756,-0.7003 0.1307,-1.1641 0.29484,-0.5509 0.28884,-0.944 -0.0173,-1.1331 -0.25777,-0.1594 -0.67857,0.2623 -0.9351,0.9371 -0.34454,0.9062 -0.74054,1.1878 -1.5154,1.0778 -0.81377,-0.1156 -1.04896,-0.4541 -1.04896,-1.5098 0,-0.7484 0.27159,-1.45131 0.60353,-1.56191 0.4378,-0.1459 0.52,0.1317 0.29933,1.01081 -0.18131,0.7225 -0.10841,1.2121 0.18048,1.2121 0.26657,0 0.55176,-0.4724 0.63376,-1.0497 0.26678,-1.87851 3.14682,-1.53611 3.17449,0.3773 0.0111,0.7721 -1.14817,2.1609 -1.50552,1.8035 z m -10.15099,-1.4967 c -2.27006,-0.7226 -3.09393,-3.46641 -1.47954,-4.92739 1.64892,-1.49225 2.41263,-1.00289 2.41263,1.54598 0,1.842 0.14007,2.26431 0.68206,2.0563 0.92017,-0.3531 1.39906,-2.0134 0.76392,-2.6485 -0.71598,-0.71598 -0.63916,-1.25937 0.17804,-1.25937 0.83362,0 1.38334,1.90677 0.99538,3.45247 -0.29431,1.17261 -2.3017,2.17871 -3.55249,1.78051 z m 0,-3.00021 c 0,-1.3489 -0.0721,-1.4276 -0.71696,-0.7827 -0.40562,0.4057 -0.58654,1.0569 -0.41664,1.4997 0.49499,1.28991 1.1336,0.886 1.1336,-0.717 z m 7.30377,-0.2867 c -0.90318,-0.998 -1.01279,-2.9184 -0.21227,-3.71894 0.92799,-0.92797 3.04576,-0.6653 3.84588,0.47704 0.95986,1.37039 0.91612,2.0391 -0.20682,3.162 -1.16223,1.1623 -2.42073,1.1916 -3.42679,0.08 z m 3.11156,-1.2009 c 0.42016,-1.09489 -0.7866,-2.30222 -1.93641,-1.93729 -0.96504,0.30629 -1.3686,1.61528 -0.70315,2.28069 0.56188,0.5619 2.38309,0.325 2.63956,-0.3434 z m -11.52838,-2.65278 c -1.06497,-0.83769 -1.27223,-1.31604 -1.12322,-2.59237 0.17899,-1.53321 0.14659,-1.56512 -1.58979,-1.56512 -1.26452,0 -1.7725,-0.20057 -1.7725,-0.69982 0,-0.57479 0.82264,-0.69982 4.60451,-0.69982 h 4.60451 l 0.0509,2.25738 c 0.0574,2.54632 -0.55226,3.62614 -2.28188,4.04184 -0.83192,0.19996 -1.57687,-0.0219 -2.49249,-0.74209 z m 3.20248,-1.18158 c 0.95615,-0.95614 0.76264,-1.97498 -0.53896,-2.83772 -0.91373,-0.60567 -1.11249,-0.57619 -1.98282,0.29416 -1.15973,1.15974 -1.19999,1.60104 -0.23415,2.56689 0.93701,0.93701 1.80294,0.92969 2.75593,-0.0233 z m 4.44222,-1.71624 c 0,-2.00129 0.71575,-2.65931 2.89258,-2.65931 2.29234,0 2.31134,0.83218 0.0233,1.02155 -1.39025,0.1151 -1.74955,0.33643 -1.74955,1.07791 0,0.74148 0.3593,0.96281 1.74955,1.07791 2.58609,0.214 2.12509,1.02155 -0.58318,1.02155 -2.32802,0 -2.33273,-0.005 -2.33273,-1.53961 z"
       id="path972"
       inkscape:connector-curvature="0" />
  </g>
</svg>
