<?xml version="1.0" encoding="UTF-8"?>
<svg version="1.1" viewBox="0 0 250 91" xmlns="http://www.w3.org/2000/svg" xmlns:cc="http://creativecommons.org/ns#" xmlns:dc="http://purl.org/dc/elements/1.1/" xmlns:rdf="http://www.w3.org/1999/02/22-rdf-syntax-ns#">
<metadata>
<rdf:RDF>
<cc:Work rdf:about="">
<dc:format>image/svg+xml</dc:format>
<dc:type rdf:resource="http://purl.org/dc/dcmitype/StillImage"/>
<dc:title/>
</cc:Work>
</rdf:RDF>
</metadata>
<g transform="translate(0,-961.4)">
<path d="m26.796 1006.9v-18.429h177.29v36.857h-177.29zm55.525 8.5145c0.0037-0.834 0.13297-1.9887 0.28769-2.5661 0.2536-0.9463 0.11585-1.0497-1.3985-1.0497h-1.6798l1.0189-1.9548c0.56252-1.0791 1.1001-3.1166 1.2001-4.5488 0.48464-6.9373-6.9601-12.828-14.175-11.217-5.9232 1.3228-9.5196 5.4936-9.5196 11.04 0 3.9054 2.2762 7.3157 6.2425 9.3524 1.9822 1.0179 2.9244 1.2087 5.5378 1.1215 5.6074-0.1872 6.1421-0.154 8.981 0.5581 1.5396 0.3862 2.9567 0.7197 3.1492 0.7412 0.19245 0.022 0.35278-0.6432 0.35628-1.4771zm-15.169-4.2744c-0.7698-0.3421-1.9245-1.1906-2.566-1.8855-0.9674-1.0479-1.1664-1.7293-1.1664-3.9945 0-2.3903 0.17221-2.9108 1.3803-4.1717 2.7694-2.8906 7.1401-3.0236 9.8635-0.3002 2.139 2.139 2.6273 5.4647 1.1371 7.7447-0.372 0.5691-0.6123 0.5923-1.2871 0.1241-2.5548-1.7729-4.7241-2.8652-5.9617-3.0019-1.3794-0.1525-1.4017-0.1199-1.5392 2.2525-0.13598 2.3455-0.10308 2.4153 1.283 2.7197 0.78241 0.1718 1.4226 0.5058 1.4226 0.742 0 0.5902-0.90392 0.5095-2.566-0.2292zm32.209 3.6261c0.98958-0.5135 2.4403-1.725 3.2238-2.6922l1.4245-1.7585 0.14671-8.1228 0.14671-8.1228h-5.1922v6.96c0 3.828-0.13041 7.2999-0.28981 7.7153-0.37686 0.982-2.6006 2.1203-4.1424 2.1203-1.5418 0-3.7655-1.1383-4.1424-2.1203-0.1594-0.4154-0.28981-3.8873-0.28981-7.7153v-6.96h-5.132v7.5108c0 6.0149 0.15341 7.8342 0.77018 9.1339 0.87741 1.8491 3.173 3.8384 5.4064 4.6853 2.086 0.791 5.9025 0.4913 8.0703-0.6338zm24.71-0.5843c4.5932-2.5506 6.7073-7.6113 5.1901-12.424-1.5103-4.7913-7.7198-8.7795-12.344-7.9286-4.7706 0.87781-8.5085 3.9975-9.7058 8.1007-2.7773 9.5175 7.8618 17.249 16.86 12.252zm-8.3978-3.9463c-3.903-1.7907-4.937-5.9874-2.2592-9.1698 3.2332-3.8424 10.04-2.1334 11.122 2.7924 0.37967 1.7286-0.86001 4.4554-2.6044 5.7285-1.5796 1.1528-4.4998 1.4557-6.258 0.6489zm59.392 5.0464c1.3254-0.3936 2.9906-1.222 3.7004-1.8409l1.2906-1.1254-3.2883-3.3232-1.837 0.9366c-5.7313 2.922-12.326-2.0509-9.7251-7.3336 1.6342-3.3195 6.5469-4.6307 9.909-2.6447l1.4527 0.85811 1.7443-1.7612c1.7111-1.7276 1.7266-1.7751 0.81126-2.489-3.2484-2.5333-8.8547-3.34-12.512-1.8002-4.6575 1.9611-7.7496 6.8751-7.1373 11.342 0.59114 4.3128 3.3643 7.4617 7.9755 9.0562 2.9177 1.0089 4.5485 1.0356 7.6154 0.1248zm-126.81-2.0836v-2.3328h-9.7975v-16.796h-5.132v21.461h14.929zm7.4647-8.3979v-10.731h-5.132v21.461h5.132zm81.745 6.5298 0.13415-4.2009 6.3791 8.4017h6.0007l-5.0655-7.566 1.5698-1.3783c2.8772-2.5262 2.9479-7.1296 0.15385-10.012-1.9719-2.0345-3.7569-2.4986-9.6212-2.5018l-4.7821-5e-3v21.461h5.097zm-0.0991-9.5623v-2.566h2.1301c2.8516 0 3.935 0.6376 3.935 2.3158 0 1.9984-1.0935 2.8162-3.7657 2.8162h-2.2994zm19.595 3.0325v-10.731h-5.132v21.461h5.132zm40.59 8.3979v-2.3328h-9.7975v-3.7323h7.4647v-4.6655h-7.4647v-3.7324h9.7975v-4.6654h-14.929v21.461h14.929zm8.8644 10.467c0-0.915 0.21733-2.0697 0.48296-2.566 0.64785-1.2106 3.0479-1.2125 3.8032 0 0.54724 0.8763 0.61316 0.8691 2.57-0.2777 1.6469-0.9651 2.0083-1.044 2.0083-0.4386 0 0.4061-0.83979 1.2684-1.8662 1.9164-1.0264 0.6479-1.8662 1.3854-1.8662 1.6387 0 0.2534 0.83978 0.4607 1.8662 0.4607s1.8662 0.21 1.8662 0.4666c0 0.2783-1.7884 0.4665-4.4322 0.4665h-4.4322zm3.6467-0.5525c-0.10618-0.9228-0.40962-1.283-1.0807-1.283s-0.97454 0.3602-1.0807 1.283c-0.12797 1.1121 0.016 1.283 1.0807 1.283 1.0648 0 1.2087-0.1709 1.0807-1.283zm6.0633 1.8974c0.33679-0.1348 0.73919-0.1183 0.89422 0.037 0.15503 0.155-0.12053 0.2653-0.61234 0.245-0.54351-0.022-0.65406-0.1329-0.28188-0.2818zm3.0034-0.015c0.70566-0.1069 1.8604-0.1069 2.566 0s0.1283 0.1943-1.283 0.1943c-1.4113 0-1.9887-0.087-1.283-0.1943zm-0.95441-3.1649 0.13796-1.8662 2.2161-0.1422c1.333-0.086 2.2161 0.054 2.2161 0.3499 0 0.2706-0.85518 0.4921-1.9004 0.4921-1.5578 0-1.8725 0.1472-1.7457 0.8164 0.10814 0.5706 0.68041 0.8601 1.9004 0.9613 2.5285 0.2097 2.142 0.9043-0.60838 1.0932l-2.3541 0.1616zm-8.1876-3.4192c-1.0248-1.1325-0.98202-3.4778 0.0811-4.4398 1.1324-1.0249 3.4777-0.9821 4.4398 0.081 1.0248 1.1324 0.98202 3.4777-0.0811 4.4398-1.1324 1.0248-3.4777 0.982-4.4398-0.081zm4.1307-1.4863c0.43404-0.7023-0.17133-2.2008-1.0207-2.5268-0.91311-0.3503-2.949 0.9047-2.949 1.818 0 1.0752 1.8731 2.1443 2.8454 1.6239 0.45924-0.2458 0.9652-0.6576 1.1244-0.9151zm3.9615-2.7926c0-1.5804 0.69733-1.885 1.0683-0.4665 0.1869 0.7147 0.63637 0.9331 1.9206 0.9331 0.92212 0 1.6766 0.2099 1.6766 0.4665s-1.0497 0.4666-2.3327 0.4666c-2.2809 0-2.3327-0.031-2.3327-1.3997zm0.55985-1.9595c-0.88712-0.8871-0.6802-3.0752 0.34257-3.6226 1.543-0.8258 1.8968-0.5491 1.8968 1.4832 0 1.8537 0.0455 1.9206 0.79646 1.1697 0.62209-0.6221 0.67316-0.9198 0.23328-1.3597-0.74955-0.7495-0.71275-1.3096 0.0861-1.3096 0.87483 0 1.3591 2.1284 0.74528 3.2754-0.56441 1.0546-3.1778 1.2863-4.1005 0.3636zm1.3063-1.5396c0-0.6415-0.20995-1.1663-0.46655-1.1663-0.52121 0-0.63949 1.5377-0.15551 2.0217 0.51429 0.5143 0.62206 0.3661 0.62206-0.8554zm-9.7975 0.6999c-1.9904-1.9905-0.65564-5.1321 2.1805-5.1321 1.75 0 2.9515 1.2675 2.9515 3.1137 0 2.6878-3.2029 3.9475-5.132 2.0184zm3.7138-1.144c0.74454-0.8971 0.20785-2.4655-0.97182-2.8399-0.98885-0.3138-2.742 0.8775-2.742 1.8634 0 1.5334 2.6691 2.2352 3.7138 0.9765zm4.5158-2.9122c-0.50507-0.505-0.33007-2.7237 0.26151-3.3153 0.30792-0.3079 1.3314-0.5598 2.2744-0.5598 1.5492 0 1.7428 0.1414 2.0078 1.4664 0.32686 1.6343-0.30952 2.7325-1.5835 2.7325-0.87797 0-1.3924-0.8862-1.3924-2.3984 0-0.5423-0.20787-0.7941-0.50435-0.6108-0.27739 0.1714-0.38159 0.8008-0.23156 1.3986 0.26854 1.07-0.24872 1.8701-0.83193 1.2868zm3.242-2.3565c-0.50966-0.5096-0.85914 0.3009-0.49323 1.1439 0.34696 0.7993 0.37212 0.7986 0.56543-0.016 0.11127-0.4691 0.0788-0.9765-0.0722-1.1275zm-12.405 0.1143c0-0.3849-0.31491-0.6998-0.69982-0.6998-0.3849 0-0.69982-0.21-0.69982-0.4666s0.31492-0.4665 0.69982-0.4665c0.38879 0 0.69982-0.4147 0.69982-0.9331s0.31104-0.9331 0.69982-0.9331c0.38879 0 0.69982 0.4147 0.69982 0.9331 0 0.76 0.31104 0.9331 1.6766 0.9331 1.2842 0 1.7337-0.2184 1.9206-0.9331 0.36661-1.4019 1.152-1.1223 0.98263 0.3499-0.13519 1.1749-0.33429 1.295-2.3637 1.4252-1.5559 0.1-2.2161 0.343-2.2161 0.8164 0 0.3709-0.31492 0.6743-0.69982 0.6743s-0.69982-0.3149-0.69982-0.6998zm12.484-2.368c-0.17638-0.1764-0.11756-0.7003 0.1307-1.1641 0.29484-0.5509 0.28884-0.944-0.0173-1.1331-0.25777-0.1594-0.67857 0.2623-0.9351 0.9371-0.34454 0.9062-0.74054 1.1878-1.5154 1.0778-0.81377-0.1156-1.049-0.4541-1.049-1.5098 0-0.7484 0.27159-1.4513 0.60353-1.5619 0.4378-0.1459 0.52 0.1317 0.29933 1.0108-0.18131 0.7225-0.10841 1.2121 0.18048 1.2121 0.26657 0 0.55176-0.4724 0.63376-1.0497 0.26678-1.8785 3.1468-1.5361 3.1745 0.3773 0.0111 0.7721-1.1482 2.1609-1.5055 1.8035zm-10.151-1.4967c-2.2701-0.7226-3.0939-3.4664-1.4795-4.9274 1.6489-1.4922 2.4126-1.0029 2.4126 1.546 0 1.842 0.14007 2.2643 0.68206 2.0563 0.92017-0.3531 1.3991-2.0134 0.76392-2.6485-0.71598-0.71598-0.63916-1.2594 0.17804-1.2594 0.83362 0 1.3833 1.9068 0.99538 3.4525-0.29431 1.1726-2.3017 2.1787-3.5525 1.7805zm0-3.0002c0-1.3489-0.0721-1.4276-0.71696-0.7827-0.40562 0.4057-0.58654 1.0569-0.41664 1.4997 0.49499 1.2899 1.1336 0.886 1.1336-0.717zm7.3038-0.2867c-0.90318-0.998-1.0128-2.9184-0.21227-3.7189 0.92799-0.92797 3.0458-0.6653 3.8459 0.47704 0.95986 1.3704 0.91612 2.0391-0.20682 3.162-1.1622 1.1623-2.4207 1.1916-3.4268 0.08zm3.1116-1.2009c0.42016-1.0949-0.7866-2.3022-1.9364-1.9373-0.96504 0.30629-1.3686 1.6153-0.70315 2.2807 0.56188 0.5619 2.3831 0.325 2.6396-0.3434zm-11.528-2.6528c-1.065-0.83769-1.2722-1.316-1.1232-2.5924 0.17899-1.5332 0.14659-1.5651-1.5898-1.5651-1.2645 0-1.7725-0.20057-1.7725-0.69982 0-0.57479 0.82264-0.69982 4.6045-0.69982h4.6045l0.0509 2.2574c0.0574 2.5463-0.55226 3.6261-2.2819 4.0418-0.83192 0.19996-1.5769-0.0219-2.4925-0.74209zm3.2025-1.1816c0.95615-0.95614 0.76264-1.975-0.53896-2.8377-0.91373-0.60567-1.1125-0.57619-1.9828 0.29416-1.1597 1.1597-1.2 1.601-0.23415 2.5669 0.93701 0.93701 1.8029 0.92969 2.7559-0.0233zm4.4422-1.7162c0-2.0013 0.71575-2.6593 2.8926-2.6593 2.2923 0 2.3113 0.83218 0.0233 1.0216-1.3902 0.1151-1.7496 0.33643-1.7496 1.0779s0.3593 0.96281 1.7496 1.0779c2.5861 0.214 2.1251 1.0216-0.58318 1.0216-2.328 0-2.3327-5e-3 -2.3327-1.5396z" fill="#fff" stroke-width=".46655"/>
</g>
</svg>
