<?xml version="1.0" encoding="UTF-8"?>
<svg version="1.1" viewBox="0 0 250 91" xmlns="http://www.w3.org/2000/svg" xmlns:cc="http://creativecommons.org/ns#" xmlns:dc="http://purl.org/dc/elements/1.1/" xmlns:rdf="http://www.w3.org/1999/02/22-rdf-syntax-ns#">
<defs>
<style>.cls-1{fill:#fff;fill-rule:evenodd}</style>
</defs>
<metadata>
<rdf:RDF>
<cc:Work rdf:about="">
<dc:format>image/svg+xml</dc:format>
<dc:type rdf:resource="http://purl.org/dc/dcmitype/StillImage"/>
<dc:title/>
</cc:Work>
</rdf:RDF>
</metadata>
<g transform="translate(0,-961.4)">
<path d="m53.924 1041.7c-6.0209-0.4861-21.66-0.5361-26.857-0.085l-1.4649 0.1269 1.3387-1.2788c1.6805-1.6053 3.1063-2.4759 5.2142-3.1842 0.90929-0.3057 1.7607-0.6221 1.892-0.7033 0.4737-0.2927 3.3567-4.8239 4.4173-6.9425 2.1504-4.2956 2.0949-4.4119-4.7906-10.032-4.277-3.4908-5.8782-5.3405-7.2937-8.4251-0.99499-2.1682-1.3266-3.8503-1.2242-6.2101 0.13568-3.1265 1.288-5.7976 3.5602-8.2524 0.48953-0.5289 0.89006-0.9816 0.89006-1.0059 0-0.025-0.32263-0.3669-0.71695-0.7612-0.65504-0.6551-0.73386-0.6863-0.91264-0.3614-0.10763 0.1956-0.75183 0.934-1.4316 1.6408-1.1851 1.2326-1.4623 1.7746-1.0406 2.0353 0.10743 0.067 0.19532 0.2056 0.19532 0.3095 0 0.2912-1.1103-0.3508-1.453-0.8401-0.35144-0.5018-0.41762-2.5655-0.10836-3.3789 0.19353-0.509 0.18692-0.5144-0.43947-0.3545-0.92792 0.2367-2.8649 0.1765-3.733-0.1162l-0.75322-0.2539 0.77342-0.34624c0.48437-0.21687 1.1037-0.77434 1.6572-1.4917 0.48607-0.63004 1.0634-1.3067 1.283-1.5039 0.57092-0.51238 1.7592-0.62315 2.6578-0.24771 0.96452 0.40302 0.99004 0.39984 1.2432-0.15569 0.26095-0.57272 0.13066-0.73221-0.47416-0.5804-0.25333 0.0635-0.78705 0.0543-1.186-0.0202-0.64506-0.12099-0.68279-0.15848-0.34052-0.33819 1.7601-0.92399 2.047-1.1533 1.855-1.4824-0.64478-1.1056-0.62499-1.1025-2.2554-0.34926l-1.5033 0.69456 0.13516-0.72043c0.1852-0.98729 0.73117-1.9949 1.4519-2.6796 0.50236-0.47721 0.60403-0.72337 0.60493-1.4649 0.0015-0.88364 0.31736-2.3561 0.5061-2.3561 0.16704 0 1.2507 0.59093 1.2507 0.68202 0 0.0473-0.14759 0.3955-0.32798 0.7738-0.18039 0.37831-0.28187 0.73392-0.2255 0.79032 0.05639 0.0566 0.51363-0.0794 1.0162-0.3017 0.50253-0.22231 1.4917-0.5251 2.1982-0.67288 0.70648-0.14788 1.3024-0.29667 1.3243-0.33067 0.02192-0.0341 0.20837-0.44903 0.41439-0.92214 0.44314-1.0176 1.4954-1.8448 2.9081-2.2861 0.62448-0.19512 2.263-0.36971 4.4116-0.47024 4.0764-0.19063 5.4171-0.53555 7.2087-1.8545 0.65512-0.48225 1.2289-0.87682 1.2751-0.87682 0.15782 0-1.4306 3.7233-2.0511 4.8078-0.34058 0.59527-0.90714 1.4595-1.259 1.9204-0.5741 0.75212-0.66239 1.0463-0.85993 2.8657-0.28581 2.6323-0.85078 4.6894-1.7951 6.5359-0.41844 0.81819-0.76079 1.5283-0.76079 1.5781 0 0.24005 2.0218-1.3887 3.6687-2.9553 2.0494-1.9496 4.3018-4.6602 6.1226-7.3682 1.4923-2.2194 4.1559-6.9873 5.0533-9.0455l0.67162-1.5404 0.14285 0.67296c0.31107 1.4654 0.57151 6.4645 0.45226 8.6811-0.11773 2.1882-0.7198 7.0286-1.0057 8.0857-0.1177 0.43516-0.08656 0.4584 0.44078 0.32882 0.95885-0.23572 6.6708-2.5429 9.4545-3.8189 5.3505-2.4526 10.867-5.6584 14.796-8.5986 1.0024-0.75002 1.0096-0.78008-0.6384 2.6358-4.3341 8.9833-12.081 16.841-20.111 20.399-1.6324 0.7233-1.6565 0.7437-1.0052 0.8494 0.67471 0.1096 4.0245-0.1225 5.3447-0.3702l0.71682-0.1345-0.60523 0.7617c-1.0528 1.3248-4.9697 5.0239-6.8665 6.4847-1.0044 0.7734-2.6304 1.901-3.6134 2.5057s-1.8166 1.1247-1.8525 1.1556c-0.03586 0.031 0.39025 0.3628 0.94689 0.7377 5.8368 3.9307 10.882 11.26 12.482 18.134l0.34914 1.4995-2.3643-2.09c-2.6657-2.3565-5.4319-4.5897-7.4123-5.9838-1.5266-1.0748-1.3629-1.1458-2.4032 1.0403-1.33 2.795-2.682 7.7733-3.0854 11.361l-0.12078 1.0742 0.85724 0.3497c1.2946 0.5279 3.6255 2.134 4.7144 3.2484 0.53309 0.5455 0.84072 0.9791 0.68362 0.9636-0.1571-0.015-1.1646-0.099-2.2388-0.1861zm-0.46804-1.226c-0.12259-0.1477-1.231-0.785-2.463-1.4162-2.5869-1.3251-2.4331-0.9809-1.9416-4.3451 0.6707-4.5904 1.8105-8.6715 3.1002-11.1 0.38026-0.7162 0.66568-1.3278 0.63428-1.3592-0.03137-0.032-1.9416-0.984-4.2448-2.1167-4.557-2.2412-4.5628-2.4402-0.02803-0.9611 4.4284 1.4446 7.6271 3.291 12.247 7.0698 0.85941 0.7029 1.6768 1.3662 1.8165 1.474 0.16142 0.1247 0.10962-0.1701-0.14221-0.809-0.69994-1.7758-1.7142-3.6393-3.167-5.819-1.7165-2.5752-5.1732-6.1135-7.5444-7.7225l-1.615-1.0959-1.7383 0.7494c-3.4387 1.4825-7.1681 2.0534-10.14 1.5522-3.8209-0.6446-7.0024-3.4752-8.113-7.2185-0.43211-1.4563-0.37701-1.8795 0.09367-0.7192 0.98165 2.4197 2.7815 4.3167 5.296 5.5817 2.0105 1.0115 3.2708 1.2489 6.0147 1.1332 1.9039-0.08 2.563-0.2013 4.3252-0.7935 4.5677-1.5347 9.6564-4.7439 13.937-8.7896l1.3672-1.2921-1.8555-0.012c-1.0206-0.012-2.3829-0.094-3.0275-0.1985-1.5174-0.2445-3.6134-0.8076-3.6134-0.9706 0-0.07 0.85057-0.3663 1.8902-0.6584 7.3334-2.0612 13.952-6.8816 19.338-14.085 1.4369-1.9215 3.2082-4.6777 3.4898-5.4303 0.07898-0.21116-0.85307 0.25297-2.481 1.2354-3.2862 1.9831-9.8912 5.2398-13.835 6.8216-6.1635 2.4721-13.699 4.7002-20.121 5.9498-3.5248 0.6858-4.715 1.2681-6.7682 3.3112-1.5659 1.5584-1.5847 1.57-1.1358 0.7011 0.61007-1.1809 1.9221-2.7341 3.2784-3.8809 2.904-2.4554 4.7342-6.0912 5.3146-10.558 0.1272-0.97883 0.11081-1.0441-0.22711-0.90541-2.4415 1.0024-3.58 1.1258-2.2467 0.24346 1.2695-0.84012 3.6454-3.1814 4.4341-4.3697 0.39032-0.58806 0.66957-1.1093 0.62055-1.1583-0.04904-0.0488-0.60352 0.0449-1.2322 0.20859-0.68346 0.17808-2.0101 0.2993-3.2994 0.30163-5.0564 9e-3 -7.1743 0.88496-7.47 3.0894l-0.10907 0.81323h-1.4453c-1.5763 0-3.3012 0.47606-4.5258 1.2491-0.65815 0.41549-2.1809 1.9338-2.1809 2.1746 0 0.0558 0.27563-0.0403 0.61252-0.21464 2.2529-1.165 4.7621-1.708 7.0308-1.5214l1.4907 0.12261-0.61179 0.52602c-0.88779 0.76343-2.2183 1.6365-3.4145 2.2406-0.57467 0.29023-0.99992 0.57265-0.94501 0.62756 0.16641 0.16638 5.219-0.91811 6.6027-1.4172 0.71171-0.2567 1.3538-0.46676 1.4268-0.46676 0.23491 0 0.69886 1.3338 0.69886 2.0091 0 1.81-1.2355 4.0779-3.3874 6.2179l-1.3003 1.293-0.0054 1.5391-0.0054 1.539-0.60934-1.1231c-0.33514-0.6176-0.67699-1.123-0.75969-1.123-0.08269 0-0.64765 0.5493-1.2555 1.2207-1.3465 1.4874-2.5386 3.833-2.9533 5.8107-0.7511 3.5828 0.84147 8.0443 4.0968 11.477 0.76654 0.8084 2.6682 2.5035 4.2259 3.7671 5.9301 4.8102 6.5303 5.6276 6.0531 8.2431-0.35031 1.9197-3.1212 6.9503-5.4147 9.8306-0.72079 0.9051-0.90719 1.0208-2.1302 1.3225-1.2981 0.3203-4.3677 1.6322-4.3679 1.8668-1.01e-4 0.1039 9.3068 0.075 11.231-0.035l0.78127-0.044-1.1792-0.879c-0.64859-0.4834-1.3783-1.0108-1.6215-1.1719l-0.44222-0.2929 0.60492-1.4649c2.4924-6.0358 8.0696-12.982 11.458-14.27 0.44107-0.1677 0.39995-0.075-0.35131 0.7997-1.6869 1.9621-1.5951 1.7607-1.203 2.6374 0.27401 0.6127 0.34576 1.3022 0.34473 3.313-0.0015 2.3595-0.05864 2.7532-0.81248 5.5665-1.0888 4.0637-1.1051 4.1016-1.7632 4.1029-0.61345 0-1.7165 0.2719-2.9243 0.7179-0.8042 0.297-0.81399 0.3117-0.51466 0.7684 0.29436 0.4493 0.39579 0.4666 2.8707 0.4906 1.411 0.014 3.5324 0.086 4.714 0.1621 3.6442 0.2326 3.4925 0.2356 3.243-0.065zm-14.945-30.913c-2.4611-0.5276-5.3991-2.1858-6.2886-3.5493-0.32053-0.4914-0.29642-0.4844 0.38514 0.112 0.9073 0.7939 2.6188 1.6673 4.1385 2.1116 1.27 0.3713 4.0531 0.4782 5.6661 0.2176l0.98859-0.1599 0.21052 0.686c0.11579 0.3773 0.16167 0.7348 0.10196 0.7945-0.2186 0.2187-3.8907 0.068-5.2021-0.2126zm6.8298-0.314c-0.04082-0.134-0.16378-0.5251-0.2733-0.8693-0.1986-0.6237-0.19585-0.6272 1.0485-1.3231l1.2476-0.6977 0.98239 0.542c0.54032 0.2979 0.9835 0.5857 0.98486 0.6395 0.0047 0.1999-1.695 1.1386-2.7864 1.5385-0.84565 0.3099-1.148 0.3527-1.2035 0.1701zm-10.712-27.296c-0.09258-0.35407-0.42775-0.47242-1.2566-0.44399-0.33147 0.0117 0.03184-0.64415 0.44481-0.80263 0.53206-0.20418 2.0093-0.13347 2.1556 0.10314 0.09735 0.15747-0.01494 0.18527-0.37911 0.0939-0.57998-0.14554-0.61884-0.0841-0.28504 0.45034 0.18226 0.29187 0.1771 0.43881-0.02393 0.68102-0.34262 0.41277-0.53256 0.38907-0.65572-0.0818zm8.1624 56.162c0.75198-0.2654 1.7304-0.5741 2.1742-0.6858 0.94688-0.2385 0.98488-0.3113 1.8381-3.521 0.70765-2.6624 0.94487-5.5014 0.585-7.0013-0.13284-0.5538-0.31185-1.0069-0.39778-1.0069-0.48999 0-3.5787 3.9045-5.1762 6.5432-0.95761 1.5818-2.5166 4.7753-2.392 4.8999 0.15846 0.1585 1.8146 1.246 1.9037 1.2501 0.05368 0 0.71292-0.2127 1.4649-0.4782zm-16.146-43.044c1.0893-1.2414 1.1811-1.5187 0.837-2.5292-0.17238-0.50618-0.32844-0.94932-0.34681-0.98472-0.01836-0.0356-0.34836 0.27219-0.73332 0.68357-1.1274 1.2049-2.1616 3.7366-1.7792 4.3554 0.13891 0.2248 1.1676-0.551 2.0224-1.5251zm4.643-0.08c-0.31173-2.039-1.8676-4.1521-2.9505-4.0074-1.0054 0.13439 0.14866 2.7895 1.7579 4.0444 0.53713 0.4189 1.0538 0.7687 1.1481 0.7773 0.0943 0.01 0.11435-0.3577 0.04453-0.8143zm1.9034-2.136c0.59199-0.6646 1.313-1.6762 1.6024-2.248 0.54775-1.0826 0.8723-2.7939 0.52986-2.7939-0.10663 0-0.91345 0.17909-1.7929 0.39799-0.87946 0.21889-2.4309 0.51308-3.4477 0.65382-1.0168 0.14074-1.8842 0.2914-1.9277 0.33485-0.04346 0.0434-0.14293 0.3337-0.22104 0.64492-0.09983 0.39774-0.07684 0.52555 0.0773 0.43036 0.12061-0.0743 0.56343-0.0426 0.98404 0.0705 0.97572 0.26275 2.035 1.4185 2.5 2.7277 0.19345 0.54462 0.41197 0.99022 0.4856 0.99022 0.07366 0 0.61823-0.54368 1.2102-1.2083zm13.604-0.36514c0.8057-0.21363 2.7188-0.75584 4.2513-1.2049l2.7864-0.81649 0.18459-0.69286c0.6948-2.6081 1.223-7.5954 1.1387-10.752l-0.05995-2.2461-1.1524 2.0509c-1.501 2.6711-3.6683 5.9295-5.3265 8.0081-1.4952 1.8742-4.898 5.3176-5.9835 6.0549-0.39541 0.26854-0.71953 0.54468-0.72026 0.61362-0.0015 0.13541 2.5215-0.3893 4.8817-1.0152zm-22.755 0.52121c0.53713-0.25437 1.2776-0.77891 1.6455-1.1657l0.66895-0.70323-0.7115-0.2973c-1.5446-0.64538-2.1077-0.37017-3.6573 1.7876l-0.60675 0.8449h0.84224c0.47704 0 1.2657-0.20247 1.8189-0.46436zm4.7501-6.4187c0.83921-0.5828 0.87561-0.64027 0.44408-0.70123-0.52781-0.0743-2.1668 0.13765-2.1668 0.28063 0 0.14523 0.62065 1.0554 0.71973 1.0554 0.04887 0 0.5002-0.28566 1.003-0.63477zm59.608 20.362v-34.962h1.1719v69.925h-1.1719zm43.996 24.481c-0.15315-0.062-0.24416-0.493-0.24416-1.1566v-1.0579h0.86381c0.814 0 0.87679 0.04 1.0894 0.6835 0.2622 0.7945 0.52163 0.8465 1.2735 0.2551 0.48616-0.3825 1.8516-2.9364 1.8516-3.4634 0-0.1132-0.89438-2.4133-1.9875-5.1106-1.8591-4.5874-2.0294-4.9242-2.6368-5.2138-0.35712-0.1703-0.64931-0.4252-0.64931-0.5665 0-0.2008 0.63917-0.2568 2.9298-0.2568 2.3204 0 2.9298 0.055 2.9298 0.262 0 0.1442-0.35158 0.3674-0.78129 0.4962-0.4297 0.1287-0.78245 0.2965-0.78389 0.3728-1e-3 0.077 0.4902 1.5009 1.0926 3.1661 0.60234 1.6651 1.1387 3.1592 1.192 3.3205 0.089 0.2695 2.3717-5.6434 2.3954-6.2047 6e-3 -0.136-0.29721-0.3939-0.6732-0.5733-1.2837-0.6121-0.88686-0.8396 1.4649-0.8396 2.3737 0 2.7169 0.2121 1.5026 0.9285-0.59374 0.3503-0.85597 0.9004-3.2445 6.8067-1.4292 3.5341-2.7778 6.6775-2.997 6.9854-0.57435 0.8071-1.7727 1.2892-3.1716 1.276-0.64455-0.012-1.2818-0.056-1.4161-0.1096zm36.66-4.8129c-1.2886-0.365-2.1421-0.9202-2.8585-1.8594-0.76483-1.0027-1.0336-1.9028-1.035-3.466-4e-3 -3.3589 2.0088-5.6124 5.253-5.8844 3.6099-0.3026 6.068 1.8927 6.0725 5.4234 3e-3 2.6114-0.97624 4.3631-2.9912 5.3491-1.2513 0.6122-3.16 0.8001-4.4408 0.4373zm3.3032-1.4112c0.89343-0.7518 1.2987-2.031 1.2978-4.0962-7.7e-4 -2.129-0.40195-3.3265-1.4108-4.2122-0.62968-0.5529-0.80083-0.6074-1.6495-0.5258-1.1037 0.1061-1.6418 0.5146-2.1241 1.6128-1.0457 2.3811-0.37925 6.5846 1.1783 7.4323 0.82249 0.4475 2.0382 0.3529 2.7083-0.2109zm13.701 1.078c0-0.2855-0.0455-0.5646-0.10104-0.6201-0.0555-0.056-0.80902 0.1494-1.6744 0.4557-1.848 0.654-2.9606 0.7045-3.8306 0.174-1.1871-0.7238-1.3207-1.2446-1.3916-5.4264l-0.0637-3.7584-0.91285-0.2659c-1.6146-0.4704-1.2854-0.7727 1.3278-1.22l2.3494-0.4021 1e-3 3.8235c1e-3 4.0161 0.1395 5.0014 0.78431 5.585 0.47279 0.4278 2.2041 0.609 2.9745 0.3111l0.53712-0.2076v-7.591l-0.9766-0.2504c-0.67897-0.1739-0.9766-0.3489-0.9766-0.5743 0-0.2624 0.44621-0.3978 2.3438-0.7112l2.3438-0.3872v9.649l0.88789 0.2487c0.62677 0.1754 0.87049 0.3388 0.82876 0.5555-0.0436 0.2265-0.63578 0.4152-2.2551 0.7192l-2.1961 0.412zm-78.639 0.1166c-2.1223-0.5149-3.8331-2.0062-4.5741-3.9867-0.85278-2.2794-0.63531-5.643 0.48886-7.5614 0.95287-1.6258 2.8436-2.9942 4.726-3.4204 1.2485-0.2827 4.3838-0.2485 5.7299 0.063l1.0743 0.2481 0.0559 1.9002c0.0554 1.8831 0.0518 1.9003-0.40567 1.9003-0.40124 0-0.53234-0.2034-1.0031-1.5556-0.38353-1.1018-0.65638-1.592-0.93533-1.6806-0.72746-0.2308-2.8254 0.1284-4.0036 0.6857-2.2026 1.0415-3.2298 2.9611-3.2463 6.0662-8e-3 1.6218 0.0577 2.0031 0.52695 3.0275 0.29529 0.6445 0.7736 1.4218 1.063 1.7272 0.85714 0.9049 2.3196 1.5419 3.782 1.6472 2.04 0.147 2.1409 0.088 2.8823-1.7083 0.55208-1.3373 0.71572-1.5684 1.1101-1.5684 0.46225 0 0.46249 0 0.3374 1.8067-0.0688 0.9937-0.21737 1.8667-0.33002 1.9401-0.42171 0.2746-3.5944 0.7457-4.9118 0.7293-0.75198-0.012-1.8169-0.1261-2.3666-0.2595zm18.679-0.066c-1.1048-0.5541-1.1686-0.8568-1.1718-5.5663l-4e-3 -4.2482h-0.87895c-0.71661 0-0.87893-0.065-0.87893-0.352 0-0.2452 0.29503-0.4583 0.9722-0.7017 0.99128-0.3565 1.8881-1.1882 2.4473-2.2695 0.18032-0.3487 0.45673-0.5833 0.68726-0.5833 0.34968 0 0.38562 0.1366 0.38562 1.465v1.4649h1.7579c1.7449 0 1.7579 0 1.7579 0.4883 0 0.4847-0.0131 0.4883-1.7579 0.4883h-1.7579v3.8848c0 4.7801-0.0105 4.7554 2.1779 4.9046 1.1288 0.077 1.4449 0.1662 1.4934 0.4214 0.0483 0.2544-0.23107 0.3902-1.3063 0.6348-1.7763 0.404-3.0779 0.3937-3.9248-0.032zm29.832 0.1301c-3.2715-0.771-5.224-3.4969-5.224-7.2929 0-3.9948 2.0127-6.7467 5.6508-7.7264 1.1076-0.2983 4.484-0.2693 5.8731 0.05l1.0742 0.2472 0.1118 3.8006h-0.47886c-0.41761 0-0.55246-0.1938-1.0541-1.5138-0.70198-1.8473-0.9701-1.9954-2.9874-1.6495-1.7641 0.3026-2.6732 0.7766-3.6776 1.9177-2.3462 2.6654-2.0107 8.0945 0.61977 10.029 1.0495 0.7719 2.4229 1.1777 3.9844 1.1777 1.3988 0 1.3567 0.039 2.1834-1.9531 0.43106-1.0381 0.61663-1.2802 1.0176-1.3273l0.49038-0.058-0.14349 1.7957c-0.0789 0.9878-0.21393 1.8596-0.30002 1.9375-0.0861 0.078-0.88345 0.2845-1.7719 0.4593-1.7276 0.3398-4.1707 0.3878-5.3681 0.105zm53.246-0.1061c-0.97683-0.3463-2.0657-1.363-2.6522-2.4763-0.35343-0.671-0.43091-1.1372-0.42836-2.5771 4e-3 -2.0556 0.26495-2.7944 1.4387-4.0678 1.4513-1.5745 3.8655-2.2014 6.5364-1.6974l1.2868 0.2428v2.4949h-1.8718l-0.52871-1.078c-0.49068-1.0006-0.5674-1.0688-1.0661-0.9492-1.3204 0.3166-1.9568 0.8672-2.5732 2.2261-0.46106 1.0164-0.53735 2.9298-0.16621 4.1685 0.55298 1.8456 2.3693 2.8227 4.8234 2.5947 1.2156-0.1131 1.3465-0.09 1.4365 0.2542 0.0872 0.3334-0.10594 0.4268-1.613 0.7807-1.978 0.4643-3.4724 0.4914-4.6222 0.084zm-92.421-0.1943c0.0347-0.1743 0.45868-0.4713 0.94209-0.66l0.87895-0.3431 0.0527-4.0152 0.0527-4.0153-0.93019-0.2627c-0.51854-0.1464-0.95531-0.3932-0.98695-0.5573-0.0448-0.2325 0.43869-0.3792 2.2935-0.6954l2.3503-0.4007v9.8513l0.9766 0.4201c0.53943 0.232 0.9766 0.5488 0.9766 0.7077 0 0.242-0.52873 0.2875-3.3348 0.2875-2.972 0-3.3279-0.034-3.2716-0.3169zm75.198 0c0.0346-0.1743 0.45868-0.4713 0.94209-0.66l0.87894-0.3431 0.0527-4.0086 0.0527-4.0087-0.98738-0.253c-1.5524-0.3979-1.2398-0.7749 0.98058-1.1827 2.6378-0.4844 2.7335-0.4771 2.7335 0.2121v0.5723l1.5682-0.5723c1.8057-0.659 2.944-0.7221 3.8887-0.2155 1.2456 0.6679 1.3793 1.2036 1.3793 5.5225v3.8345l0.97659 0.4059c0.57939 0.2409 0.9766 0.5294 0.9766 0.7097 0 0.2618-0.41865 0.3038-3.0274 0.3038-2.5904 0-3.0275-0.043-3.0275-0.2995 0-0.1648 0.30763-0.4812 0.68362-0.7029l0.68362-0.4034v-3.3109c0-2.5305-0.0677-3.4417-0.28705-3.866-0.43184-0.835-1.6767-1.1714-3.2043-0.8659l-0.61037 0.122v7.9732l0.87894 0.3767c0.49652 0.213 0.87894 0.5073 0.87894 0.6767 0 0.2577-0.4566 0.3-3.2371 0.3-2.8819 0-3.2302-0.035-3.174-0.3169zm25.162 0.013c0-0.1803 0.39831-0.4693 0.98057-0.7113l0.98055-0.4075-0.0527-3.9275-0.0529-3.9276-0.92676-0.293c-0.58834-0.1859-0.92711-0.4054-0.92777-0.6007 0-0.2383 0.45164-0.3848 2.001-0.6481 1.1011-0.1871 2.1558-0.384 2.3438-0.4377 0.31918-0.091 0.34181 0.2334 0.34181 4.9031v5.0008l0.87894 0.3767c0.49654 0.2129 0.87894 0.5073 0.87894 0.6767 0 0.2576-0.45516 0.2999-3.2228 0.2999-2.7855 0-3.2228-0.041-3.2228-0.3038zm7.2268 0c0-0.1802 0.39721-0.4689 0.9766-0.7097l0.9766-0.4058v-6.2173c0-6.9418 0.10652-6.4376-1.4197-6.7237-0.49936-0.093-0.72886-0.2406-0.72886-0.4662 0-0.2657 0.39331-0.3964 2.0336-0.6757 1.1184-0.1904 2.2171-0.3943 2.4415-0.4529l0.40794-0.1061v14.708l0.87895 0.3767c0.49653 0.2129 0.87893 0.5073 0.87893 0.6767 0 0.2576-0.45515 0.2999-3.2228 0.2999-2.7855 0-3.2228-0.041-3.2228-0.3038zm-105.08-12.952c-1.1116-0.3216-1.1477-1.9696-0.0524-2.3901 0.60919-0.234 1.7054-0.1156 2.1206 0.229 0.34104 0.283 0.36322 1.623 0.0314 1.8973-0.34364 0.284-1.5194 0.4317-2.0997 0.2638zm100.3 0.033c-0.66677-0.1738-0.87894-0.4712-0.87894-1.2318 0-0.9528 0.40164-1.2696 1.6098-1.2696 0.7773 0 1.0361 0.09 1.3372 0.4611 0.46411 0.5732 0.47355 1.038 0.0316 1.5582-0.35357 0.4163-1.4166 0.6604-2.0997 0.4821zm-65.691-7.213c0.0347-0.1743 0.45866-0.4713 0.94208-0.66l0.87895-0.3432 0.0515-6.5668 0.0514-6.5668-0.88154-0.23578c-0.59474-0.1591-0.88154-0.34089-0.88154-0.55878 0-0.25886 0.43614-0.39814 2.1974-0.70138l2.1974-0.37839 0.0616 0.66026c0.0392 0.42028 0.14566 0.62307 0.29299 0.55809 2.9991-1.3233 4.035-1.4286 5.418-0.5505 1.2402 0.78736 1.9782 2.2149 2.0963 4.0546 0.12606 1.9643-0.32707 3.3283-1.5502 4.6667-1.3109 1.4343-2.5223 1.9469-4.616 1.9533l-1.6179 0.012 0.0553 1.832 0.0553 1.8322 1.0728 0.3229c0.69021 0.2078 1.0959 0.4425 1.1374 0.6582 0.0591 0.3069-0.23555 0.3354-3.4798 0.3354-3.1654 0-3.5376-0.034-3.4813-0.317zm7.6806-6.1971c1.2331-0.6626 1.8556-2.0769 1.8552-4.2148-5.1e-4 -2.7562-0.93213-3.9202-3.1377-3.9202-1.8736 0-1.745-0.3244-1.745 4.4013 0 3.8001 0.0299 4.1723 0.34181 4.2576 0.59242 0.1621 1.8746-0.089 2.6856-0.52394zm10.591 1.6306c-1.8099-0.3181-3.3699-1.6054-3.9642-3.2709-0.36875-1.0332-0.34392-3.3038 0.0488-4.4562 0.21647-0.63527 0.6711-1.3046 1.3416-1.9751 1.2732-1.2732 2.5852-1.7185 4.6634-1.5827 1.5755 0.1029 2.6281 0.56173 3.5582 1.551 1.1325 1.2045 1.3403 1.8204 1.3403 3.9724 0 1.8234-0.0403 2.0246-0.60594 3.0274-1.2317 2.1837-3.6415 3.2161-6.3821 2.7341zm2.7531-1.3728c1.0595-0.64594 1.4949-1.8667 1.4957-4.1935 5.9e-4 -1.7471-0.0575-2.0722-0.55037-3.0795-0.6212-1.2697-1.2469-1.7057-2.4476-1.7057-0.95829 0-1.8073 0.65631-2.2365 1.7289-0.9804 2.4502-0.33805 6.3571 1.2024 7.3128 0.70852 0.4396 1.7549 0.4137 2.5365-0.063zm9.9488 1.2986c-1.46-0.3187-2.6139-1.1727-3.3586-2.4855-0.55085-0.9711-0.5974-1.1981-0.59653-2.9088 7.7e-4 -1.6383 0.0628-1.9731 0.52931-2.8591 1.1092-2.1066 3.0819-3.1272 5.7176-2.9581 2.3884 0.15329 4.268 1.5461 4.8134 3.5666 0.30392 1.126 0.25004 3.0796-0.11527 4.1795-0.88596 2.6674-3.8696 4.1464-6.9899 3.4653zm3.0546-1.3111c1.3108-1.0311 1.8774-4.0033 1.2045-6.318-0.57131-1.9652-1.2984-2.6482-2.8192-2.6482-1.624 0-2.6073 1.6605-2.6073 4.4035 0 2.1024 0.34328 3.2973 1.2085 4.2069 0.63689 0.66954 0.83772 0.76494 1.6105 0.76494 0.60038 0 1.0492-0.1309 1.4029-0.4091zm-62.342 1.0554c-0.0987-0.1944-0.99427-2.4815-1.9902-5.0826-1.7727-4.6296-1.8248-4.7339-2.4704-4.947-0.445-0.14686-0.65958-0.33981-0.65958-0.59317 0-0.35376 0.16961-0.37552 2.9298-0.37552 2.7146 0 2.9298 0.0264 2.9298 0.35941 0 0.24647-0.24706 0.44089-0.78654 0.61897-0.43261 0.14275-0.76222 0.32152-0.73246 0.39727 0.0298 0.076 0.53753 1.51 1.1284 3.1873 0.59085 1.6773 1.1283 3.0508 1.1944 3.0521 0.066 0 0.65366-1.3818 1.3057-3.0739l1.1856-3.0762-0.76856-0.38031c-0.46975-0.23246-0.76857-0.51719-0.76857-0.73245 0-0.31797 0.20848-0.3522 2.1485-0.3522 1.9837 0 2.1485 0.0287 2.1485 0.37273 0 0.21068-0.26575 0.52896-0.6115 0.73244-0.53095 0.31239-0.88882 1.003-2.7166 5.2428-2.0476 4.7496-2.1213 4.8847-2.696 4.9432-0.41512 0.042-0.64416-0.044-0.77018-0.2929zm10.186 0.065c-1.236-0.4067-2.1535-1.2198-2.7525-2.4395-0.47421-0.9655-0.54067-1.3232-0.53171-2.8614 0.0125-2.1446 0.45051-3.2012 1.8479-4.4577 1.0789-0.97001 2.018-1.306 3.6334-1.3 2.5455 9e-3 3.9283 1.3526 4.2643 4.1418l0.13474 1.1186-7.1562 0.106 0.0482 0.7813c0.0653 1.0595 0.8112 2.4445 1.6043 2.9789 1.0578 0.713 2.0708 0.90564 3.6212 0.6887 0.75198-0.105 1.3809-0.1824 1.3975-0.1716 0.0167 0.012 0.0606 0.1859 0.0976 0.38884 0.14677 0.8037-4.5335 1.5767-6.2089 1.0255zm3.6022-7.2878c0.099-0.69537-0.34753-2.0291-0.8464-2.528-0.86526-0.86529-2.3367-0.43601-2.8763 0.83911-0.35175 0.83128-0.60639 2.136-0.46234 2.369 0.0516 0.083 1.0007 0.06 2.1092-0.052 1.8454-0.1866 2.0206-0.2396 2.0759-0.6281zm-37.074 7.0544c0-0.1803 0.39722-0.4689 0.97661-0.7097l0.9766-0.40594v-12.409l-0.9766-0.35112c-0.68083-0.24484-0.97661-0.45785-0.97661-0.70323 0-0.32541 0.25152-0.35206 3.3204-0.35206 3.1096 0 3.3204 0.0232 3.3204 0.36406 0 0.25158-0.27161 0.46785-0.87894 0.69976l-0.87895 0.3357v12.664h3.6356l0.66143-1.3673c0.53867-1.1136 0.74606-1.3673 1.1174-1.3673 0.44392 0 0.45301 0.035 0.34294 1.3184-0.0622 0.7252-0.15651 1.6041-0.20961 1.9533l-0.0966 0.6348h-5.1671c-4.5446 0-5.1671-0.036-5.1671-0.3038zm11.915 0c0-0.1803 0.39722-0.4689 0.9766-0.7097l0.9766-0.40594v-7.9442l-0.92777-0.27033c-1.5925-0.46389-1.3156-0.80456 0.9683-1.1912 1.1057-0.18715 2.1641-0.38296 2.3521-0.43509 0.31906-0.0885 0.34181 0.23587 0.34181 4.873v4.9677l0.9766 0.40594c0.57938 0.2408 0.9766 0.5294 0.9766 0.7097 0 0.2629-0.44657 0.3038-3.3204 0.3038s-3.3204-0.041-3.3204-0.3038zm29.493 0c0-0.1803 0.39721-0.4689 0.9766-0.7097l0.9766-0.40594v-7.9442l-0.92777-0.27033c-1.5925-0.46389-1.3156-0.80456 0.9683-1.1912 1.1057-0.18715 2.1641-0.38296 2.3521-0.43509 0.28042-0.0777 0.34181 0.0333 0.34181 0.61828 0 0.39217 0.0659 0.68325 0.14649 0.64677 0.0806-0.0364 0.58596-0.29543 1.1231-0.57559 1.2008-0.62633 2.2298-0.82881 2.9057-0.5718 0.48586 0.18474 0.51239 0.26584 0.51239 1.5669v1.3721h-1.0774c-1.0344 0-1.0902-0.0264-1.3962-0.66839-0.36397-0.76328-0.68162-0.89596-1.5793-0.65956l-0.6348 0.16715v7.9644l1.1231 0.37434c0.69109 0.2303 1.1474 0.4994 1.1862 0.6999 0.0571 0.2942-0.27675 0.3256-3.4669 0.3256-3.0635 0-3.5301-0.041-3.5301-0.3038zm49.807 0c0-0.1803 0.3972-0.4689 0.9766-0.7097l0.9766-0.40594v-12.594l-1.0254-0.2852c-1.6978-0.47219-1.4531-0.81216 0.87142-1.2105 1.1052-0.18938 2.2073-0.39062 2.449-0.44709l0.43946-0.10279v14.643l0.9766 0.42014c0.53944 0.232 0.9766 0.5489 0.9766 0.7077 0 0.2418-0.52701 0.2876-3.3204 0.2876-2.8739 0-3.3204-0.041-3.3204-0.3038zm-77.362-13.289c-0.31433-0.37878-0.34031-1.56-0.0408-1.8594 0.39166-0.39163 1.9509-0.45174 2.4937-0.096 0.63796 0.41804 0.71145 1.7449 0.11433 2.0644-0.60206 0.32224-2.268 0.25151-2.5672-0.10897z" fill="#fff" stroke-width=".19532"/>
</g>
</svg>
