<?xml version="1.0" encoding="UTF-8" standalone="no"?>
<svg
   xmlns:dc="http://purl.org/dc/elements/1.1/"
   xmlns:cc="http://creativecommons.org/ns#"
   xmlns:rdf="http://www.w3.org/1999/02/22-rdf-syntax-ns#"
   xmlns:svg="http://www.w3.org/2000/svg"
   xmlns="http://www.w3.org/2000/svg"
   xmlns:sodipodi="http://sodipodi.sourceforge.net/DTD/sodipodi-0.dtd"
   xmlns:inkscape="http://www.inkscape.org/namespaces/inkscape"
   width="250"
   height="91"
   viewBox="0 0 250 91"
   id="svg2"
   version="1.1"
   inkscape:version="1.0 (4035a4fb49, 2020-05-01)"
   sodipodi:docname="liverpool.svg">
  <defs
     id="defs4">
    <style
       id="style1418">.cls-1{fill:#fff;fill-rule:evenodd}</style>
  </defs>
  <sodipodi:namedview
     id="base"
     pagecolor="#ffffff"
     bordercolor="#666666"
     borderopacity="1.0"
     inkscape:pageopacity="0.0"
     inkscape:pageshadow="2"
     inkscape:zoom="1.9799"
     inkscape:cx="239.01222"
     inkscape:cy="108.72016"
     inkscape:document-units="px"
     inkscape:current-layer="layer1"
     showgrid="false"
     inkscape:window-width="1920"
     inkscape:window-height="1017"
     inkscape:window-x="-8"
     inkscape:window-y="-8"
     inkscape:window-maximized="1"
     units="px"
     inkscape:document-rotation="0" />
  <metadata
     id="metadata7">
    <rdf:RDF>
      <cc:Work
         rdf:about="">
        <dc:format>image/svg+xml</dc:format>
        <dc:type
           rdf:resource="http://purl.org/dc/dcmitype/StillImage" />
        <dc:title></dc:title>
      </cc:Work>
    </rdf:RDF>
  </metadata>
  <g
     inkscape:label="Layer 1"
     inkscape:groupmode="layer"
     id="layer1"
     transform="translate(0,-961.4)">
    <rect
       style="opacity:0.001;fill:none;fill-opacity:1;stroke:none;stroke-width:2.5;stroke-linecap:round;stroke-linejoin:round;stroke-miterlimit:4;stroke-dasharray:none;stroke-dashoffset:0;stroke-opacity:1"
       id="rect4175"
       width="250"
       height="91"
       x="0"
       y="961.4" />
    <path
       id="path856"
       d="m 53.924259,1041.6854 c -6.020864,-0.4861 -21.660465,-0.5361 -26.856514,-0.085 l -1.464899,0.1269 1.338749,-1.2788 c 1.680459,-1.6053 3.106271,-2.4759 5.21423,-3.1842 0.90929,-0.3057 1.760711,-0.6221 1.89205,-0.7033 0.473696,-0.2927 3.356732,-4.8239 4.417321,-6.9425 2.15042,-4.2956 2.094891,-4.4119 -4.790608,-10.0319 -4.276968,-3.4908 -5.878224,-5.3405 -7.293736,-8.4251 -0.99499,-2.1682 -1.326597,-3.8503 -1.224198,-6.2101 0.135685,-3.1265 1.288008,-5.79764 3.560193,-8.25244 0.489528,-0.5289 0.890057,-0.9816 0.890057,-1.0059 0,-0.025 -0.322629,-0.3669 -0.716954,-0.7612 -0.655041,-0.6551 -0.733863,-0.6863 -0.912644,-0.3614 -0.107626,0.1956 -0.751833,0.934 -1.431561,1.6408 -1.185127,1.2326 -1.462304,1.7746 -1.040559,2.0353 0.107427,0.067 0.195319,0.2056 0.195319,0.3095 0,0.2912 -1.110303,-0.3508 -1.45304,-0.8401 -0.351444,-0.5018 -0.417624,-2.5655 -0.10836,-3.3789 0.19353,-0.509 0.186915,-0.5144 -0.439467,-0.3545 -0.927919,0.2367 -2.864895,0.1765 -3.733017,-0.1162 l -0.75322,-0.2539 0.773421,-0.34624 c 0.484369,-0.21687 1.103726,-0.77434 1.657197,-1.49168 0.486074,-0.63004 1.06344,-1.30673 1.283042,-1.50386 0.570922,-0.51238 1.759202,-0.62315 2.657788,-0.24771 0.964525,0.40302 0.990041,0.39984 1.243159,-0.15569 0.260949,-0.57272 0.130664,-0.73221 -0.474161,-0.5804 -0.253328,0.0635 -0.787047,0.0543 -1.186042,-0.0202 -0.645065,-0.12099 -0.682794,-0.15848 -0.340522,-0.33819 1.760085,-0.92399 2.046952,-1.15327 1.854994,-1.48239 -0.644778,-1.10564 -0.624988,-1.10254 -2.255376,-0.34926 l -1.503256,0.69456 0.135157,-0.72043 c 0.185202,-0.98729 0.731168,-1.99486 1.451893,-2.6796 0.502364,-0.47721 0.604028,-0.72337 0.604934,-1.46489 0.0015,-0.88364 0.317363,-2.35612 0.506097,-2.35612 0.167039,0 1.250696,0.59093 1.250696,0.68202 0,0.0473 -0.147589,0.3955 -0.327982,0.7738 -0.180392,0.37831 -0.281871,0.73392 -0.225504,0.79032 0.05639,0.0566 0.513634,-0.0794 1.016152,-0.3017 0.502526,-0.22231 1.491715,-0.5251 2.198189,-0.67288 0.706482,-0.14788 1.302422,-0.29667 1.324304,-0.33067 0.02192,-0.0341 0.208371,-0.44903 0.414394,-0.92214 0.443139,-1.01758 1.495433,-1.84483 2.908087,-2.28611 0.624484,-0.19512 2.262966,-0.36971 4.411567,-0.47024 4.076396,-0.19063 5.417051,-0.53555 7.208739,-1.85452 0.65512,-0.48225 1.228907,-0.87682 1.275088,-0.87682 0.15782,0 -1.430631,3.72334 -2.051111,4.80783 -0.340576,0.59527 -0.907137,1.45948 -1.259015,1.92043 -0.574105,0.75212 -0.662392,1.0463 -0.859927,2.86572 -0.285813,2.63234 -0.850785,4.6894 -1.795103,6.53593 -0.418437,0.81819 -0.760788,1.52833 -0.760788,1.57806 0,0.24005 2.021848,-1.38867 3.668743,-2.95534 2.049407,-1.94963 4.301754,-4.6602 6.122597,-7.36815 1.492326,-2.21941 4.155931,-6.98728 5.053339,-9.0455 l 0.671618,-1.54041 0.142849,0.67296 c 0.311073,1.46543 0.57151,6.46452 0.452263,8.68106 -0.117728,2.18819 -0.719796,7.02863 -1.005726,8.08571 -0.117698,0.43516 -0.08656,0.4584 0.440784,0.32882 0.958849,-0.23572 6.670817,-2.54289 9.454504,-3.81893 5.350532,-2.45264 10.866786,-5.65841 14.795989,-8.59865 1.002365,-0.75002 1.009646,-0.78008 -0.638395,2.63583 -4.334148,8.9833 -12.080759,16.84057 -20.111464,20.39861 -1.632355,0.7233 -1.656538,0.7437 -1.005222,0.8494 0.674708,0.1096 4.024532,-0.1225 5.344668,-0.3702 l 0.716815,-0.1345 -0.605228,0.7617 c -1.052783,1.3248 -4.969732,5.0239 -6.866507,6.4847 -1.004371,0.7734 -2.630406,1.901 -3.613421,2.5057 -0.983015,0.6047 -1.816638,1.1247 -1.852485,1.1556 -0.03586,0.031 0.390251,0.3628 0.946889,0.7377 5.836792,3.9307 10.881711,11.2599 12.482418,18.1342 l 0.349136,1.4995 -2.364267,-2.09 c -2.665681,-2.3565 -5.431902,-4.5897 -7.412294,-5.9838 -1.526633,-1.0748 -1.362855,-1.1458 -2.40315,1.0403 -1.330014,2.795 -2.68201,7.7733 -3.085358,11.361 l -0.120781,1.0742 0.857239,0.3497 c 1.294583,0.5279 3.625482,2.134 4.714413,3.2484 0.533092,0.5455 0.840717,0.9791 0.683616,0.9636 -0.157101,-0.015 -1.164578,-0.099 -2.238838,-0.1861 z m -0.468042,-1.226 c -0.122593,-0.1477 -1.230967,-0.785 -2.463049,-1.4162 -2.586929,-1.3251 -2.433135,-0.9809 -1.94157,-4.3451 0.670703,-4.5904 1.81051,-8.6715 3.100159,-11.1001 0.380259,-0.7162 0.665685,-1.3278 0.634276,-1.3592 -0.03137,-0.032 -1.941562,-0.984 -4.244784,-2.1167 -4.556956,-2.2412 -4.562766,-2.4402 -0.02803,-0.9611 4.428398,1.4446 7.627061,3.291 12.247278,7.0698 0.859407,0.7029 1.676825,1.3662 1.816482,1.474 0.161422,0.1247 0.109621,-0.1701 -0.142213,-0.809 -0.699937,-1.7758 -1.71423,-3.6393 -3.167022,-5.819 -1.71653,-2.5752 -5.173176,-6.1135 -7.544438,-7.7225 l -1.615028,-1.0959 -1.738303,0.7494 c -3.438683,1.4825 -7.168052,2.0534 -10.139956,1.5522 -3.820862,-0.6446 -7.002391,-3.4752 -8.112995,-7.2185 -0.432109,-1.4563 -0.377006,-1.8795 0.09367,-0.7192 0.981653,2.4197 2.781535,4.3167 5.296047,5.5817 2.010524,1.0115 3.270794,1.2489 6.014729,1.1332 1.903916,-0.08 2.562971,-0.2013 4.325217,-0.7935 4.567715,-1.5347 9.656352,-4.7439 13.937208,-8.7896 l 1.36724,-1.2921 -1.855537,-0.012 c -1.020551,-0.012 -2.382911,-0.094 -3.027465,-0.1985 -1.517439,-0.2445 -3.613421,-0.8076 -3.613421,-0.9706 0,-0.07 0.850569,-0.3663 1.890161,-0.6584 7.333355,-2.06124 13.951701,-6.88164 19.33808,-14.08458 1.436929,-1.92151 3.208237,-4.67772 3.489845,-5.43029 0.07898,-0.21116 -0.853072,0.25297 -2.480951,1.23538 -3.286214,1.98308 -9.891244,5.23982 -13.83501,6.8216 -6.163534,2.47208 -13.698792,4.70025 -20.121331,5.94985 -3.524817,0.6858 -4.715032,1.2681 -6.768242,3.3112 -1.565905,1.5584 -1.584712,1.57 -1.135833,0.7011 0.610068,-1.1809 1.922111,-2.7341 3.278437,-3.8809 2.904011,-2.45543 4.734173,-6.09125 5.314605,-10.55804 0.127195,-0.97883 0.110811,-1.04413 -0.227114,-0.90541 -2.441539,1.00239 -3.580037,1.12578 -2.246662,0.24346 1.269548,-0.84012 3.645372,-3.18145 4.434099,-4.36974 0.39032,-0.58806 0.669573,-1.10927 0.620549,-1.15831 -0.04904,-0.0488 -0.603515,0.0449 -1.232222,0.20859 -0.68346,0.17808 -2.01012,0.2993 -3.299406,0.30163 -5.056398,0.009 -7.174309,0.88496 -7.469975,3.08935 l -0.109072,0.81323 h -1.445342 c -1.576284,0 -3.301156,0.47606 -4.525771,1.24909 -0.658147,0.41549 -2.180892,1.93382 -2.180892,2.17457 0,0.0558 0.275627,-0.0403 0.612516,-0.21464 2.252929,-1.16505 4.762098,-1.70803 7.030789,-1.52143 l 1.490731,0.12261 -0.611789,0.52602 c -0.887788,0.76343 -2.218274,1.63646 -3.414516,2.24064 -0.574671,0.29023 -0.999925,0.57265 -0.945014,0.62756 0.166411,0.16638 5.219038,-0.91811 6.602706,-1.41725 0.71171,-0.2567 1.353793,-0.46676 1.426844,-0.46676 0.234908,0 0.698859,1.33382 0.698859,2.0091 0,1.81005 -1.235467,4.07787 -3.387389,6.21793 l -1.300293,1.293 -0.0054,1.5391 -0.0054,1.539 -0.609342,-1.1231 c -0.335138,-0.6176 -0.676992,-1.123 -0.759687,-1.123 -0.08269,0 -0.647652,0.5493 -1.25546,1.2207 -1.34648,1.4874 -2.53864,3.83304 -2.953267,5.81074 -0.751098,3.5828 0.841468,8.0443 4.096784,11.4768 0.766543,0.8084 2.668182,2.5035 4.225861,3.7671 5.930121,4.8102 6.530337,5.6276 6.053108,8.2431 -0.350313,1.9197 -3.121164,6.9503 -5.414681,9.8306 -0.720789,0.9051 -0.907192,1.0208 -2.130242,1.3225 -1.298109,0.3203 -4.367664,1.6322 -4.367912,1.8668 -1.01e-4,0.1039 9.30683,0.075 11.231033,-0.035 l 0.781274,-0.044 -1.179247,-0.879 c -0.64859,-0.4834 -1.378253,-1.0108 -1.621473,-1.1719 l -0.442224,-0.2929 0.604917,-1.4649 c 2.492413,-6.0358 8.06955,-12.9817 11.457676,-14.2699 0.441071,-0.1677 0.399948,-0.075 -0.351312,0.7997 -1.686895,1.9621 -1.59506,1.7607 -1.203028,2.6374 0.274009,0.6127 0.345759,1.3022 0.344728,3.313 -0.0015,2.3595 -0.05864,2.7532 -0.812475,5.5665 -1.088801,4.0637 -1.105075,4.1016 -1.76323,4.1029 -0.613446,0 -1.716483,0.2719 -2.924336,0.7179 -0.804204,0.297 -0.813994,0.3117 -0.514664,0.7684 0.294357,0.4493 0.395788,0.4666 2.870666,0.4906 1.411042,0.014 3.53236,0.086 4.714048,0.1621 3.644243,0.2326 3.492471,0.2356 3.24304,-0.065 z m -14.944924,-30.9133 c -2.461129,-0.5276 -5.399145,-2.1858 -6.288599,-3.5493 -0.32053,-0.4914 -0.296425,-0.4844 0.385138,0.112 0.9073,0.7939 2.618811,1.6673 4.138472,2.1116 1.270045,0.3713 4.053074,0.4782 5.666057,0.2176 l 0.988593,-0.1599 0.210524,0.686 c 0.115793,0.3773 0.161671,0.7348 0.101956,0.7945 -0.218602,0.2187 -3.890683,0.068 -5.202135,-0.2126 z m 6.829805,-0.314 c -0.04082,-0.134 -0.163778,-0.5251 -0.273296,-0.8693 -0.198595,-0.6237 -0.195853,-0.6272 1.04846,-1.3231 l 1.247567,-0.6977 0.982387,0.542 c 0.540319,0.2979 0.983504,0.5857 0.98486,0.6395 0.0047,0.1999 -1.69499,1.1386 -2.786431,1.5385 -0.845651,0.3099 -1.148001,0.3527 -1.203547,0.1701 z M 34.628633,981.93657 c -0.09258,-0.35407 -0.427747,-0.47242 -1.256605,-0.44399 -0.331468,0.0117 0.03184,-0.64415 0.444811,-0.80263 0.532062,-0.20418 2.00933,-0.13347 2.15558,0.10314 0.09735,0.15747 -0.01494,0.18527 -0.379112,0.0939 -0.579985,-0.14554 -0.618837,-0.0841 -0.285039,0.45034 0.182259,0.29187 0.1771,0.43881 -0.02393,0.68102 -0.342621,0.41277 -0.532565,0.38907 -0.655723,-0.0818 z m 8.162383,56.16203 c 0.751981,-0.2654 1.730364,-0.5741 2.174185,-0.6858 0.946881,-0.2385 0.984882,-0.3113 1.838086,-3.521 0.70765,-2.6624 0.944867,-5.5014 0.585003,-7.0013 -0.132841,-0.5538 -0.311847,-1.0069 -0.397779,-1.0069 -0.489994,0 -3.578736,3.9045 -5.17615,6.5432 -0.95761,1.5818 -2.516566,4.7753 -2.391974,4.8999 0.158457,0.1585 1.814622,1.246 1.903723,1.2501 0.05368,0 0.712919,-0.2127 1.464906,-0.4782 z M 26.644838,995.05436 c 1.089288,-1.2414 1.181099,-1.5187 0.836998,-2.52918 -0.172375,-0.50618 -0.328438,-0.94932 -0.346812,-0.98472 -0.01836,-0.0356 -0.348361,0.27219 -0.73332,0.68357 -1.127382,1.20494 -2.161628,3.73663 -1.77924,4.35543 0.138914,0.2248 1.167552,-0.551 2.022374,-1.5251 z m 4.642965,-0.08 c -0.311731,-2.03899 -1.86755,-4.15213 -2.950479,-4.00736 -1.005361,0.13439 0.148658,2.78946 1.757885,4.04436 0.537127,0.4189 1.053751,0.7687 1.148056,0.7773 0.0943,0.01 0.114346,-0.3577 0.04453,-0.8143 z m 1.903407,-2.13604 c 0.591989,-0.6646 1.313049,-1.6762 1.602356,-2.248 0.547754,-1.08256 0.872296,-2.79392 0.529861,-2.79392 -0.106634,0 -0.91345,0.17909 -1.792904,0.39799 -0.879462,0.21889 -2.430928,0.51308 -3.447706,0.65382 -1.016773,0.14074 -1.884243,0.2914 -1.927697,0.33485 -0.04346,0.0434 -0.142927,0.3337 -0.221043,0.64492 -0.09983,0.39774 -0.07684,0.52555 0.0773,0.43036 0.120611,-0.0743 0.563432,-0.0426 0.984038,0.0705 0.975719,0.26275 2.035031,1.41849 2.499998,2.7277 0.193451,0.54462 0.411969,0.99022 0.4856,0.99022 0.07366,0 0.618226,-0.54368 1.210217,-1.20827 z m 13.603866,-0.36514 c 0.805697,-0.21363 2.718801,-0.75584 4.251337,-1.20494 l 2.786437,-0.81649 0.184592,-0.69286 c 0.6948,-2.6081 1.222996,-7.59541 1.138713,-10.75191 l -0.05995,-2.24614 -1.15244,2.05087 c -1.500994,2.67106 -3.668269,5.92951 -5.326526,8.0081 -1.495233,1.87425 -4.897968,5.31759 -5.983545,6.05492 -0.39541,0.26854 -0.719526,0.54468 -0.720261,0.61362 -0.0015,0.13541 2.521546,-0.3893 4.881669,-1.01517 z m -22.754789,0.52121 c 0.537127,-0.25437 1.277621,-0.77891 1.645532,-1.16567 l 0.668946,-0.70323 -0.711502,-0.2973 c -1.544604,-0.64538 -2.107732,-0.37017 -3.657316,1.7876 l -0.606754,0.8449 h 0.842243 c 0.477041,0 1.265714,-0.20247 1.818851,-0.46436 z m 4.750145,-6.41873 c 0.839214,-0.5828 0.875612,-0.64027 0.444084,-0.70123 -0.527808,-0.0743 -2.166771,0.13765 -2.166771,0.28063 0,0.14523 0.62065,1.05537 0.719726,1.05537 0.04887,0 0.500195,-0.28566 1.002961,-0.63477 z m 59.607822,20.36214 v -34.96233 h 0.585964 0.585957 v 34.96233 34.9623 h -0.585957 -0.585964 z m 43.995856,24.4811 c -0.15315,-0.062 -0.24416,-0.493 -0.24416,-1.1566 v -1.0579 h 0.86381 c 0.814,0 0.87679,0.04 1.08939,0.6835 0.2622,0.7945 0.52163,0.8465 1.2735,0.2551 0.48616,-0.3825 1.85163,-2.9364 1.85163,-3.4634 0,-0.1132 -0.89438,-2.4133 -1.9875,-5.1106 -1.85914,-4.5874 -2.02945,-4.9242 -2.63683,-5.2138 -0.35712,-0.1703 -0.64931,-0.4252 -0.64931,-0.5665 0,-0.2008 0.63917,-0.2568 2.9298,-0.2568 2.32043,0 2.9298,0.055 2.9298,0.262 0,0.1442 -0.35158,0.3674 -0.78129,0.4962 -0.4297,0.1287 -0.78245,0.2965 -0.78389,0.3728 -10e-4,0.077 0.4902,1.5009 1.09256,3.1661 0.60234,1.6651 1.13873,3.1592 1.19197,3.3205 0.089,0.2695 2.3717,-5.6434 2.39535,-6.2047 0.006,-0.136 -0.29721,-0.3939 -0.6732,-0.5733 -1.2837,-0.6121 -0.88686,-0.8396 1.46489,-0.8396 2.37374,0 2.71688,0.2121 1.5026,0.9285 -0.59374,0.3503 -0.85597,0.9004 -3.24452,6.8067 -1.42921,3.5341 -2.77785,6.6775 -2.99699,6.9854 -0.57435,0.8071 -1.77269,1.2892 -3.17155,1.276 -0.64455,-0.012 -1.28178,-0.056 -1.41606,-0.1096 z m 36.65951,-4.8129 c -1.28855,-0.365 -2.1421,-0.9202 -2.85846,-1.8594 -0.76483,-1.0027 -1.03358,-1.9028 -1.03502,-3.466 -0.004,-3.3589 2.00875,-5.6124 5.25302,-5.8844 3.60988,-0.3026 6.06799,1.8927 6.07254,5.4234 0.003,2.6114 -0.97624,4.3631 -2.99124,5.3491 -1.25127,0.6122 -3.16,0.8001 -4.44084,0.4373 z m 3.30325,-1.4112 c 0.89343,-0.7518 1.29873,-2.031 1.29784,-4.0962 -7.7e-4,-2.129 -0.40195,-3.3265 -1.41079,-4.2122 -0.62968,-0.5529 -0.80083,-0.6074 -1.64952,-0.5258 -1.10367,0.1061 -1.6418,0.5146 -2.12411,1.6128 -1.04568,2.3811 -0.37925,6.5846 1.1783,7.4323 0.82249,0.4475 2.03815,0.3529 2.70828,-0.2109 z m 13.70143,1.078 c 0,-0.2855 -0.0455,-0.5646 -0.10104,-0.6201 -0.0555,-0.056 -0.80902,0.1494 -1.67437,0.4557 -1.84802,0.654 -2.96056,0.7045 -3.83057,0.174 -1.18714,-0.7238 -1.32071,-1.2446 -1.39164,-5.4264 l -0.0637,-3.7584 -0.91285,-0.2659 c -1.61455,-0.4704 -1.28542,-0.7727 1.32778,-1.22 l 2.34938,-0.4021 0.001,3.8235 c 0.001,4.0161 0.1395,5.0014 0.78431,5.585 0.47279,0.4278 2.20409,0.609 2.97451,0.3111 l 0.53712,-0.2076 v -3.7955 -3.7955 l -0.9766,-0.2504 c -0.67897,-0.1739 -0.9766,-0.3489 -0.9766,-0.5743 0,-0.2624 0.44621,-0.3978 2.34384,-0.7112 l 2.34385,-0.3872 v 4.8246 4.8244 l 0.88789,0.2487 c 0.62677,0.1754 0.87049,0.3388 0.82876,0.5555 -0.0436,0.2265 -0.63578,0.4152 -2.25514,0.7192 l -2.19608,0.412 z m -78.63908,0.1166 c -2.12227,-0.5149 -3.83309,-2.0062 -4.57413,-3.9867 -0.85278,-2.2794 -0.63531,-5.643 0.48886,-7.5614 0.95287,-1.6258 2.84356,-2.9942 4.72604,-3.4204 1.2485,-0.2827 4.38381,-0.2485 5.72988,0.063 l 1.07427,0.2481 0.0559,1.9002 c 0.0554,1.8831 0.0518,1.9003 -0.40567,1.9003 -0.40124,0 -0.53234,-0.2034 -1.00308,-1.5556 -0.38353,-1.1018 -0.65638,-1.592 -0.93533,-1.6806 -0.72746,-0.2308 -2.82545,0.1284 -4.00365,0.6857 -2.20255,1.0415 -3.22975,2.9611 -3.24633,6.0662 -0.008,1.6218 0.0577,2.0031 0.52695,3.0275 0.29529,0.6445 0.7736,1.4218 1.06296,1.7272 0.85714,0.9049 2.31965,1.5419 3.78197,1.6472 2.03997,0.147 2.14094,0.088 2.8823,-1.7083 0.55208,-1.3373 0.71572,-1.5684 1.11011,-1.5684 0.46225,0 0.46249,0 0.3374,1.8067 -0.0688,0.9937 -0.21737,1.8667 -0.33002,1.9401 -0.42171,0.2746 -3.59437,0.7457 -4.91185,0.7293 -0.75198,-0.012 -1.81694,-0.1261 -2.36659,-0.2595 z m 18.67853,-0.066 c -1.10483,-0.5541 -1.16857,-0.8568 -1.17176,-5.5663 l -0.004,-4.2482 h -0.87895 c -0.71661,0 -0.87893,-0.065 -0.87893,-0.352 0,-0.2452 0.29503,-0.4583 0.9722,-0.7017 0.99128,-0.3565 1.88812,-1.1882 2.44727,-2.2695 0.18032,-0.3487 0.45673,-0.5833 0.68726,-0.5833 0.34968,0 0.38562,0.1366 0.38562,1.465 v 1.4649 h 1.75789 c 1.74486,0 1.75788,0 1.75788,0.4883 0,0.4847 -0.0131,0.4883 -1.75788,0.4883 h -1.75789 v 3.8848 c 0,4.7801 -0.0105,4.7554 2.17788,4.9046 1.12879,0.077 1.44487,0.1662 1.49337,0.4214 0.0483,0.2544 -0.23107,0.3902 -1.3063,0.6348 -1.7763,0.404 -3.07792,0.3937 -3.92479,-0.032 z m 29.83163,0.1301 c -3.27146,-0.771 -5.22402,-3.4969 -5.22402,-7.2929 0,-3.9948 2.0127,-6.7467 5.65081,-7.7264 1.10764,-0.2983 4.48405,-0.2693 5.87309,0.05 l 1.07425,0.2472 0.0559,1.9003 0.0559,1.9003 h -0.47886 c -0.41761,0 -0.55246,-0.1938 -1.0541,-1.5138 -0.70198,-1.8473 -0.9701,-1.9954 -2.98735,-1.6495 -1.76412,0.3026 -2.67324,0.7766 -3.67765,1.9177 -2.34621,2.6654 -2.0107,8.0945 0.61977,10.029 1.04954,0.7719 2.42292,1.1777 3.98443,1.1777 1.39879,0 1.35666,0.039 2.18343,-1.9531 0.43106,-1.0381 0.61663,-1.2802 1.01757,-1.3273 l 0.49038,-0.058 -0.14349,1.7957 c -0.0789,0.9878 -0.21393,1.8596 -0.30002,1.9375 -0.0861,0.078 -0.88345,0.2845 -1.7719,0.4593 -1.72757,0.3398 -4.17074,0.3878 -5.36813,0.105 z m 53.24562,-0.1061 c -0.97683,-0.3463 -2.06572,-1.363 -2.65221,-2.4763 -0.35343,-0.671 -0.43091,-1.1372 -0.42836,-2.5771 0.004,-2.0556 0.26495,-2.7944 1.43866,-4.0678 1.4513,-1.5745 3.86546,-2.2014 6.53645,-1.6974 l 1.28678,0.2428 v 1.2475 1.2474 h -0.93592 -0.93592 l -0.52871,-1.078 c -0.49068,-1.0006 -0.5674,-1.0688 -1.06611,-0.9492 -1.32041,0.3166 -1.95685,0.8672 -2.57324,2.2261 -0.46106,1.0164 -0.53735,2.9298 -0.16621,4.1685 0.55298,1.8456 2.36933,2.8227 4.82341,2.5947 1.21563,-0.1131 1.34654,-0.09 1.43653,0.2542 0.0872,0.3334 -0.10594,0.4268 -1.61298,0.7807 -1.978,0.4643 -3.47242,0.4914 -4.62217,0.084 z m -92.42083,-0.1943 c 0.0347,-0.1743 0.45868,-0.4713 0.94209,-0.66 l 0.87895,-0.3431 0.0527,-4.0152 0.0527,-4.0153 -0.93019,-0.2627 c -0.51854,-0.1464 -0.95531,-0.3932 -0.98695,-0.5573 -0.0448,-0.2325 0.43869,-0.3792 2.29352,-0.6954 l 2.35026,-0.4007 v 4.9256 4.9257 l 0.9766,0.4201 c 0.53943,0.232 0.9766,0.5488 0.9766,0.7077 0,0.242 -0.52873,0.2875 -3.33477,0.2875 -2.97195,0 -3.32788,-0.034 -3.2716,-0.3169 z m 75.19824,0 c 0.0346,-0.1743 0.45868,-0.4713 0.94209,-0.66 l 0.87894,-0.3431 0.0527,-4.0086 0.0527,-4.0087 -0.98738,-0.253 c -1.55242,-0.3979 -1.23983,-0.7749 0.98058,-1.1827 2.63779,-0.4844 2.73347,-0.4771 2.73347,0.2121 v 0.5723 l 1.56818,-0.5723 c 1.80573,-0.659 2.94402,-0.7221 3.88872,-0.2155 1.24555,0.6679 1.3793,1.2036 1.3793,5.5225 v 3.8345 l 0.97659,0.4059 c 0.57939,0.2409 0.9766,0.5294 0.9766,0.7097 0,0.2618 -0.41865,0.3038 -3.02745,0.3038 -2.59045,0 -3.02746,-0.043 -3.02746,-0.2995 0,-0.1648 0.30763,-0.4812 0.68362,-0.7029 l 0.68362,-0.4034 v -3.3109 c 0,-2.5305 -0.0677,-3.4417 -0.28705,-3.866 -0.43184,-0.835 -1.67673,-1.1714 -3.2043,-0.8659 l -0.61037,0.122 v 3.9867 3.9865 l 0.87894,0.3767 c 0.49652,0.213 0.87894,0.5073 0.87894,0.6767 0,0.2577 -0.4566,0.3 -3.23711,0.3 -2.88187,0 -3.23017,-0.035 -3.17395,-0.3169 z m 25.16178,0.013 c 0,-0.1803 0.39831,-0.4693 0.98057,-0.7113 l 0.98055,-0.4075 -0.0527,-3.9275 -0.0529,-3.9276 -0.92676,-0.293 c -0.58834,-0.1859 -0.92711,-0.4054 -0.92777,-0.6007 0,-0.2383 0.45164,-0.3848 2.00102,-0.6481 1.10112,-0.1871 2.15584,-0.384 2.34384,-0.4377 0.31918,-0.091 0.34181,0.2334 0.34181,4.9031 v 5.0008 l 0.87894,0.3767 c 0.49654,0.2129 0.87894,0.5073 0.87894,0.6767 0,0.2576 -0.45516,0.2999 -3.22278,0.2999 -2.78552,0 -3.22279,-0.041 -3.22279,-0.3038 z m 7.22685,0 c 0,-0.1802 0.39721,-0.4689 0.9766,-0.7097 l 0.9766,-0.4058 v -6.2173 c 0,-6.9418 0.10652,-6.4376 -1.41966,-6.7237 -0.49936,-0.093 -0.72886,-0.2406 -0.72886,-0.4662 0,-0.2657 0.39331,-0.3964 2.03355,-0.6757 1.11845,-0.1904 2.21712,-0.3943 2.44151,-0.4529 l 0.40794,-0.1061 v 7.3542 7.3543 l 0.87895,0.3767 c 0.49653,0.2129 0.87893,0.5073 0.87893,0.6767 0,0.2576 -0.45515,0.2999 -3.22277,0.2999 -2.78552,0 -3.22279,-0.041 -3.22279,-0.3038 z m -105.08221,-12.9519 c -1.11165,-0.3216 -1.14773,-1.9696 -0.0524,-2.3901 0.60919,-0.234 1.70541,-0.1156 2.12062,0.229 0.34104,0.283 0.36322,1.623 0.0314,1.8973 -0.34364,0.284 -1.51945,0.4317 -2.09969,0.2638 z m 100.29687,0.033 c -0.66677,-0.1738 -0.87894,-0.4712 -0.87894,-1.2318 0,-0.9528 0.40164,-1.2696 1.60982,-1.2696 0.7773,0 1.03612,0.09 1.33725,0.4611 0.46411,0.5732 0.47355,1.038 0.0316,1.5582 -0.35357,0.4163 -1.41663,0.6604 -2.0997,0.4821 z m -65.6907,-7.213 c 0.0347,-0.1743 0.45866,-0.4713 0.94208,-0.66 l 0.87895,-0.3432 0.0515,-6.56684 0.0514,-6.56684 -0.88154,-0.23578 c -0.59474,-0.1591 -0.88154,-0.34089 -0.88154,-0.55878 0,-0.25886 0.43614,-0.39814 2.19735,-0.70138 l 2.19735,-0.37839 0.0616,0.66026 c 0.0392,0.42028 0.14566,0.62307 0.29299,0.55809 2.99907,-1.3233 4.03496,-1.42857 5.41798,-0.5505 1.24016,0.78736 1.97824,2.21491 2.09631,4.05462 0.12606,1.9643 -0.32707,3.3283 -1.55024,4.6667 -1.31091,1.43434 -2.5223,1.94694 -4.61604,1.95334 l -1.61788,0.012 0.0553,1.832 0.0553,1.8322 1.07284,0.3229 c 0.69021,0.2078 1.09586,0.4425 1.13741,0.6582 0.0591,0.3069 -0.23555,0.3354 -3.47983,0.3354 -3.16535,0 -3.53765,-0.034 -3.48126,-0.317 z m 7.68063,-6.19714 c 1.23306,-0.6626 1.85562,-2.0769 1.85524,-4.2148 -5.1e-4,-2.75625 -0.93213,-3.9202 -3.13773,-3.9202 -1.87361,0 -1.74497,-0.3244 -1.74497,4.4013 0,3.8001 0.0299,4.17234 0.34181,4.25764 0.59242,0.1621 1.87465,-0.089 2.68565,-0.52394 z m 10.59077,1.63064 c -1.80986,-0.3181 -3.36987,-1.60544 -3.96419,-3.27094 -0.36875,-1.0332 -0.34392,-3.3038 0.0488,-4.4562 0.21647,-0.63527 0.6711,-1.30459 1.3416,-1.97507 1.27318,-1.27318 2.58524,-1.71849 4.66339,-1.5827 1.5755,0.1029 2.6281,0.56173 3.55823,1.55102 1.13246,1.20448 1.34028,1.82045 1.34028,3.97235 0,1.8234 -0.0403,2.0246 -0.60594,3.0274 -1.23167,2.18374 -3.64152,3.21614 -6.3821,2.73414 z m 2.75312,-1.3728 c 1.05954,-0.64594 1.49489,-1.86674 1.49566,-4.19354 5.9e-4,-1.7471 -0.0575,-2.0722 -0.55037,-3.07949 -0.6212,-1.2697 -1.24687,-1.70571 -2.44763,-1.70571 -0.95829,0 -1.80732,0.65631 -2.23647,1.72887 -0.9804,2.45023 -0.33805,6.35713 1.20235,7.31277 0.70852,0.4396 1.75489,0.4137 2.53646,-0.063 z m 9.94884,1.2986 c -1.45999,-0.3187 -2.61392,-1.1727 -3.35857,-2.48554 -0.55085,-0.9711 -0.5974,-1.1981 -0.59653,-2.9088 7.7e-4,-1.6383 0.0628,-1.9731 0.52931,-2.85909 1.1092,-2.10663 3.08188,-3.12723 5.71761,-2.95806 2.38836,0.15329 4.26798,1.54608 4.81338,3.56665 0.30392,1.126 0.25004,3.0796 -0.11527,4.1795 -0.88596,2.66744 -3.86955,4.14644 -6.9899,3.46534 z m 3.05458,-1.3111 c 1.31081,-1.03114 1.87745,-4.00334 1.20454,-6.31804 -0.57131,-1.96525 -1.29836,-2.6482 -2.81917,-2.6482 -1.62405,0 -2.60726,1.66054 -2.60726,4.4035 0,2.1024 0.34328,3.2973 1.2085,4.2069 0.63689,0.66954 0.83772,0.76494 1.61046,0.76494 0.60038,0 1.04925,-0.1309 1.40293,-0.4091 z m -62.34196,1.0554 c -0.0987,-0.1944 -0.99427,-2.48154 -1.99025,-5.08264 -1.77266,-4.62956 -1.82476,-4.73389 -2.47041,-4.94698 -0.445,-0.14686 -0.65958,-0.33981 -0.65958,-0.59317 0,-0.35376 0.16961,-0.37552 2.92981,-0.37552 2.71462,0 2.92979,0.0264 2.92979,0.35941 0,0.24647 -0.24706,0.44089 -0.78654,0.61897 -0.43261,0.14275 -0.76222,0.32152 -0.73246,0.39727 0.0298,0.076 0.53753,1.50997 1.12837,3.18732 0.59085,1.6773 1.12832,3.0508 1.1944,3.0521 0.066,0 0.65366,-1.3818 1.3057,-3.0739 l 1.18555,-3.07621 -0.76856,-0.38031 c -0.46975,-0.23246 -0.76857,-0.51719 -0.76857,-0.73245 0,-0.31797 0.20848,-0.3522 2.14853,-0.3522 1.98374,0 2.14851,0.0287 2.14851,0.37273 0,0.21068 -0.26575,0.52896 -0.6115,0.73244 -0.53095,0.31239 -0.88882,1.003 -2.71665,5.2428 -2.04764,4.74964 -2.12129,4.88474 -2.69596,4.94324 -0.41512,0.042 -0.64416,-0.044 -0.77018,-0.2929 z m 10.18638,0.065 c -1.23601,-0.4067 -2.15353,-1.21984 -2.75247,-2.43954 -0.47421,-0.9655 -0.54067,-1.3232 -0.53171,-2.8614 0.0125,-2.1446 0.45051,-3.20124 1.84793,-4.45769 1.07894,-0.97001 2.018,-1.30603 3.63345,-1.29998 2.54549,0.009 3.92832,1.35257 4.26429,4.14177 l 0.13474,1.1186 -3.57809,0.053 -3.57809,0.053 0.0482,0.7813 c 0.0653,1.0595 0.8112,2.4445 1.60429,2.9789 1.05783,0.713 2.0708,0.90564 3.62118,0.6887 0.75198,-0.105 1.38086,-0.1824 1.3975,-0.1716 0.0167,0.012 0.0606,0.1859 0.0976,0.38884 0.14677,0.8037 -4.53352,1.5767 -6.20886,1.0255 z m 3.6022,-7.28784 c 0.099,-0.69537 -0.34753,-2.02906 -0.8464,-2.52796 -0.86526,-0.86529 -2.33672,-0.43601 -2.8763,0.83911 -0.35175,0.83128 -0.60639,2.13595 -0.46234,2.36905 0.0516,0.083 1.00066,0.06 2.10917,-0.052 1.8454,-0.1866 2.02055,-0.2396 2.07587,-0.6281 z m -37.07358,7.05444 c 0,-0.1803 0.39722,-0.4689 0.97661,-0.7097 l 0.9766,-0.40594 v -6.2045 -6.20466 l -0.9766,-0.35112 c -0.68083,-0.24484 -0.97661,-0.45785 -0.97661,-0.70323 0,-0.32541 0.25152,-0.35206 3.32045,-0.35206 3.10956,0 3.32044,0.0232 3.32044,0.36406 0,0.25158 -0.27161,0.46785 -0.87894,0.69976 l -0.87895,0.3357 v 6.33175 6.33184 h 1.81781 1.81781 l 0.66143,-1.36734 c 0.53867,-1.1136 0.74606,-1.3673 1.11743,-1.3673 0.44392,0 0.45301,0.035 0.34294,1.3184 -0.0622,0.7252 -0.15651,1.60414 -0.20961,1.95334 l -0.0966,0.6348 h -5.16714 c -4.54461,0 -5.16712,-0.036 -5.16712,-0.3038 z m 11.91453,0 c 0,-0.1803 0.39722,-0.4689 0.9766,-0.7097 l 0.9766,-0.40594 v -3.9721 -3.97205 l -0.92777,-0.27033 c -1.59253,-0.46389 -1.31564,-0.80456 0.9683,-1.19115 1.10568,-0.18715 2.16414,-0.38296 2.35214,-0.43509 0.31906,-0.0885 0.34181,0.23587 0.34181,4.87302 v 4.9677 l 0.9766,0.40594 c 0.57938,0.2408 0.9766,0.5294 0.9766,0.7097 0,0.2629 -0.44657,0.3038 -3.32044,0.3038 -2.87387,0 -3.32044,-0.041 -3.32044,-0.3038 z m 29.49333,0 c 0,-0.1803 0.39721,-0.4689 0.9766,-0.7097 l 0.9766,-0.40594 v -3.9721 -3.97205 l -0.92777,-0.27033 c -1.59252,-0.46389 -1.31564,-0.80456 0.9683,-1.19115 1.10569,-0.18715 2.16414,-0.38296 2.35214,-0.43509 0.28042,-0.0777 0.34181,0.0333 0.34181,0.61828 0,0.39217 0.0659,0.68325 0.14649,0.64677 0.0806,-0.0364 0.58596,-0.29543 1.12309,-0.57559 1.20081,-0.62633 2.22975,-0.82881 2.90571,-0.5718 0.48586,0.18474 0.51239,0.26584 0.51239,1.5669 v 1.37211 h -1.07741 c -1.03437,0 -1.09017,-0.0264 -1.39617,-0.66839 -0.36397,-0.76328 -0.68162,-0.89596 -1.5793,-0.65956 l -0.6348,0.16715 v 3.98225 3.9822 l 1.12309,0.37434 c 0.69109,0.2303 1.14739,0.4994 1.18624,0.6999 0.0571,0.2942 -0.27675,0.3256 -3.46693,0.3256 -3.06353,0 -3.53008,-0.041 -3.53008,-0.3038 z m 49.80663,0 c 0,-0.1803 0.3972,-0.4689 0.9766,-0.7097 l 0.9766,-0.40594 v -6.2968 -6.29686 l -1.02544,-0.2852 c -1.69781,-0.47219 -1.45307,-0.81216 0.87142,-1.21052 1.10525,-0.18938 2.20732,-0.39062 2.44903,-0.44709 l 0.43946,-0.10279 v 7.32167 7.32159 l 0.9766,0.42014 c 0.53944,0.232 0.9766,0.5489 0.9766,0.7077 0,0.2418 -0.52701,0.2876 -3.32043,0.2876 -2.87388,0 -3.32044,-0.041 -3.32044,-0.3038 z m -77.36191,-13.28924 c -0.31433,-0.37878 -0.34031,-1.56001 -0.0408,-1.85939 0.39166,-0.39163 1.95092,-0.45174 2.49374,-0.096 0.63796,0.41804 0.71145,1.7449 0.11433,2.06442 -0.60206,0.32224 -2.26796,0.25151 -2.56715,-0.10897 z"
       style="fill:#ffffff;stroke-width:0.19532" />
  </g>
</svg>
