<?xml version="1.0" encoding="UTF-8"?>
<svg version="1.1" viewBox="0 0 250 91" xml:space="preserve" xmlns="http://www.w3.org/2000/svg"><g transform="matrix(.13496 0 0 .13496 139.28 153.85)" fill="#fff"><path d="m-616.57-544.02c8.2222-1.2402-1.1627 1.7161 0 0zm69 0c8.2222-1.2402-1.1627 1.7161 0 0zm-85.456-0.99012c5.5906-0.86332-1.7194 1.7144 0 0zm9.4375-34.006c7.7454-1.5562 1.4871 1.6085 0 0zm70.019-4e-3c8.2222-1.2402-1.1627 1.7161 0 0zm-88.456-0.99012c5.5906-0.86332-1.7194 1.7144 0 0zm106 0c5.5906-0.86332-1.7194 1.7144 0 0zm-4-43c5.5906-0.86332-1.7194 1.7144 0 0zm-82-1c5.5906-0.86332-1.7194 1.7144 0 0zm73 0c5.5906-0.86332-1.7194 1.7144 0 0zm-59.544-1.0099c8.2222-1.2402-1.1627 1.7161 0 0zm47.481 0.0307c6.2228-0.992 0.0776 1.7302 0 0zm-240.34-4.5874c-6.1738-7.0067 7.6595 7.0038 0 0zm189.37-16.484c11.448-0.92184 9.7773 1.1603 0 0zm23.51-7e-3c15.424-0.86599 13.74 1.078 0 0zm-50.018-0.95291c8.2222-1.2402-1.1627 1.7161 0 0zm90.981 4e-3c7.7454-1.5562 1.4871 1.6085 0 0zm-106.5-0.97295c6.2228-0.992 0.0776 1.7302 0 0zm127 0c6.2228-0.992 0.0776 1.7302 0 0zm-138.94-1.0208c5.5906-0.86332-1.7194 1.7144 0 0zm155 0c5.5906-0.86332-1.7194 1.7144 0 0zm-165-1c5.5906-0.86332-1.7194 1.7144 0 0zm178 0c5.5906-0.86332-1.7194 1.7144 0 0zm11-1c5.5906-0.86332-1.7194 1.7144 0 0zm-207-1c5.5906-0.86332-1.7194 1.7144 0 0zm21-47c5.5906-0.86332-1.7194 1.7144 0 0zm161-2c5.5906-0.86332-1.7194 1.7144 0 0zm-135-1c5.5906-0.86332-1.7194 1.7144 0 0zm126 0c5.5906-0.86332-1.7194 1.7144 0 0zm-318.89-3.0668c-7.4561-8.2154 8.9727 8.3668 0 0zm203.89 2.0669c5.5906-0.86332-1.7194 1.7144 0 0zm105 0c5.5906-0.86332-1.7194 1.7144 0 0zm-93.062-0.97917c6.2228-0.992 0.0776 1.7302 0 0zm81 0c6.2228-0.992 0.0776 1.7302 0 0zm-64.481-1.0307c8.2222-1.2402-1.1627 1.7161 0 0zm47.981 4e-3c7.7454-1.5562 1.4871 1.6085 0 0zm-71.488-20.018c10.763-1.325-1.0678 1.6739 0 0zm55.502-0.0103c13.288-1.3494-0.99548 1.636 0 0zm-74.514-0.94506c6.2228-0.992 0.0776 1.7302 0 0zm101.5-0.027c7.7454-1.5562 1.4871 1.6085 0 0zm-114.5-0.97295c6.2228-0.992 0.0776 1.7302 0 0zm134 0c6.2228-0.992 0.0776 1.7302 0 0zm15-1c6.2228-0.992 0.0776 1.7302 0 0zm-168.94-1.0208c5.5906-0.86332-1.7194 1.7144 0 0zm182.94 0.0208c6.2228-0.992 0.0776 1.7302 0 0zm-339.75-2.8377c9.4582-9.0388-7.115 8.8841 0 0zm147.81 1.8169c5.5906-0.86332-1.7194 1.7144 0 0zm204 0c5.5906-0.86332-1.7194 1.7144 0 0zm-212-1c5.5906-0.86332-1.7194 1.7144 0 0zm223 0c5.5906-0.86332-1.7194 1.7144 0 0zm10-1c5.5906-0.86332-1.7194 1.7144 0 0zm9-1c5.5906-0.86332-1.7194 1.7144 0 0zm-130.02-1.0583c13.613-0.75683 16.271 1.1498 0 4.1e-4zm138.02 0.0583c5.5906-0.86332-1.7194 1.7144 0 0zm-173.56-1.0062c7.7454-1.5562 1.4871 1.6085 0 0zm82.019-4e-3c8.2222-1.2402-1.1627 1.7161 0 0zm-101-1c8.2222-1.2402-1.1627 1.7161 0 0zm120.48 0.0307c6.2228-0.992 0.0776 1.7302 0 0zm-136-0.99965c6.2228-0.992 0.0776 1.7302 0 0zm151.06-0.0208c5.5906-0.86332-1.7194 1.7144 0 0zm-164-1c5.5906-0.86332-1.7194 1.7144 0 0zm187-1c5.5906-0.86332-1.7194 1.7144 0 0zm-218-2c5.5906-0.86332-1.7194 1.7144 0 0zm331.69-20.014c-132.19-40.883-275.42-39.318-409.09-6.1958-23.441 11.521-48.162-0.6069-67.609-14.41-31.945-24.197 12.269-48.929 34.703-54.7 23.5-13.745 48.286 2.6385 72.718 4.7268 94.541 16.858 191.77 15.627 286.79 3.5561 25.731-2.7296 50.731-10.323 76.018-14.653 23.283 6.9774 49.42 14.738 64.691 34.921 7.597 26.95-29.768 35.752-48.212 44.488-3.1704 1.2383-6.436 2.9937-10.004 2.2677zm-289.69-23.986c5.5906-0.86332-1.7194 1.7144 0 0zm149 0c5.5906-0.86332-1.7194 1.7144 0 0zm-138-1c5.5906-0.86332-1.7194 1.7144 0 0zm127 0c5.5906-0.86332-1.7194 1.7144 0 0zm-114-1c5.5906-0.86332-1.7194 1.7144 0 0zm101 0c5.5906-0.86332-1.7194 1.7144 0 0zm-83.051-1.0242c10.763-1.325-1.0678 1.6739 0 0zm63.488 0.0179c7.7454-1.5562 1.4871 1.6085 0 0zm-40-41.052c22.385-0.57129 14.606 1.0473 0 0zm32.5 9e-3c11.34-0.90791 11.166 1.1137 0 0zm-68.5-0.95712c7.7454-1.5562 1.4871 1.6085 0 0zm100.02-4e-3c8.2222-1.2402-1.1627 1.7161 0 0zm-118-1c8.2222-1.2402-1.1627 1.7161 0 0zm132.48 0.0307c6.2228-0.992 0.0776 1.7302 0 0zm-147-0.99931c6.2228-0.992 0.0776 1.7302 0 0zm160.06-0.0208c5.5906-0.86332-1.7194 1.7144 0 0zm-172-1c5.5906-0.86332-1.7194 1.7144 0 0zm182 0c5.5906-0.86332-1.7194 1.7144 0 0zm-192-1c5.5906-0.86332-1.7194 1.7144 0 0zm201 0c5.5906-0.86332-1.7194 1.7144 0 0zm-211-1c5.5906-0.86332-1.7194 1.7144 0 0zm219 0c5.5906-0.86332-1.7194 1.7144 0 0zm86.188-16.317c2.7459-3.733 0.90657 3.4492 0 0zm-305.19-14.683c5.5906-0.86332-1.7194 1.7144 0 0zm-19-1c5.5906-0.86332-1.7194 1.7144 0 0zm231 0c5.5906-0.86332-1.7194 1.7144 0 0zm-196-1c5.5906-0.86332-1.7194 1.7144 0 0zm187 0c5.5906-0.86332-1.7194 1.7144 0 0zm-178-1c5.5906-0.86332-1.7194 1.7144 0 0zm169 0c5.5906-0.86332-1.7194 1.7144 0 0zm33 0c5.5906-0.86332-1.7194 1.7144 0 0zm-222-1c5.5906-0.86332-1.7194 1.7144 0 0zm30 0c5.5906-0.86332-1.7194 1.7144 0 0zm149 0c5.5906-0.86332-1.7194 1.7144 0 0zm-169-1c5.5906-0.86332-1.7194 1.7144 0 0zm30.938 0.0208c6.2228-0.992 0.0776 1.7302 0 0zm127.06-0.0208c5.5906-0.86332-1.7194 1.7144 0 0zm38 0c5.5906-0.86332-1.7194 1.7144 0 0zm-186.06-0.97917c6.2228-0.992 0.0776 1.7302 0 0zm36 0c6.2228-0.992 0.0776 1.7302 0 0zm98 0c6.2228-0.992 0.0776 1.7302 0 0zm-122-1c6.2228-0.992 0.0776 1.7302 0 0zm47.018-0.0624c9.0435-0.96229 3.2362 1.3599 0 0zm54.994 0.0175c10.763-1.325-1.0678 1.6739 0 0zm54.051 0.0241c5.5906-0.86332-1.7194 1.7144 0 0zm-143.06-0.9792c6.2228-0.992 0.0776 1.7302 0 0zm132.06-0.0208c5.5906-0.86332-1.7194 1.7144 0 0zm-116.06-0.9792c6.2228-0.992 0.0776 1.7302 0 0zm103 0c6.2228-0.992 0.0776 1.7302 0 0zm-82.988-1.045c10.763-1.325-1.0678 1.6739 0 0zm66.488 0.0179c7.7454-1.5562 1.4871 1.6085 0 0zm211.75-1.8106c9.4582-9.0388-7.115 8.8841 0 0zm-283.23-26.225c9.0435-0.96229 3.2362 1.3599 0 0zm62.982 0.019c9.9765-1.504 1.9514 1.5316 0 0zm-86.481-0.98726c8.2222-1.2402-1.1627 1.7161 0 0zm107.48 0.0307c6.2228-0.992 0.0776 1.7302 0 0zm-122-1c6.2228-0.992 0.0776 1.7302 0 0zm136.06-0.0208c5.5906-0.86332-1.7194 1.7144 0 0zm-321.81-0.69447c6.7661-7.888 1.4857 1.0619 0 0zm174.81-0.30555c5.5906-0.86332-1.7194 1.7144 0 0zm158 0c5.5906-0.86332-1.7194 1.7144 0 0zm-168-1c5.5906-0.86332-1.7194 1.7144 0 0zm177 0c5.5906-0.86332-1.7194 1.7144 0 0zm126.19-45.694c6.7662-7.888 1.4856 1.0619 0 0zm-331.19-1.3056c5.5906-0.86332-1.7194 1.7144 0 0zm9-1c5.5906-0.86332-1.7194 1.7144 0 0zm10-1c5.5906-0.86332-1.7194 1.7144 0 0zm10-1c5.5906-0.86332-1.7194 1.7144 0 0zm180 0c5.5906-0.86332-1.7194 1.7144 0 0zm-168-1c5.5906-0.86332-1.7194 1.7144 0 0zm158 0c5.5906-0.86332-1.7194 1.7144 0 0zm-146-1c5.5906-0.86332-1.7194 1.7144 0 0zm135 0c5.5906-0.86332-1.7194 1.7144 0 0zm-121.06-0.97917c6.2228-0.992 0.0776 1.7302 0 0zm107 0c6.2228-0.992 0.0776 1.7302 0 0zm-89.5-1.027c7.7454-1.5562 1.4871 1.6085 0 0zm72 0c7.7454-1.5562 1.4871 1.6085 0 0zm-39-1.0457c12.652-0.88862 12.504 1.0889 0 0zm214.62-14.015c-3.4518-4.9131 6.1414 5.9729 0 0zm-237.62-4.9662c12.204-1.459 2.4075 1.4756 0 0zm27.5-7e-3c8.7277-0.95544 8.4775 1.1763 0 0zm-48-0.93889c6.2228-0.992 0.0776 1.7302 0 0zm76 0c6.2228-0.992 0.0776 1.7302 0 0zm-87.938-1.0208c5.5906-0.8633-1.7194 1.7144 0 0zm103 0c5.5906-0.8633-1.7194 1.7144 0 0zm-66.051-7.0242c10.763-1.325-1.0678 1.6739 0 0zm32.988 2e-3c9.9765-1.504 1.9514 1.5316 0 0zm-53-0.95655c6.2228-0.992 0.0775 1.7302 0 0zm76.062-0.0208c5.5906-0.86332-1.7194 1.7144 0 0zm13-1c5.5906-0.86332-1.7194 1.7144 0 0zm-105-30c5.5906-0.8633-1.7194 1.7148 0 0zm100 0c5.5906-0.8633-1.7194 1.7148 0 0zm-85.544-1.0098c8.2224-1.2401-1.163 1.7157 0 0zm67 0c8.2224-1.2401-1.163 1.7157 0 0zm-35.507-1.0143c10.763-1.3249-1.0684 1.6733 0 0z" fill-opacity=".25"/><path d="m-611.59-544.01c7.7454-1.5562 1.4871 1.6085 0 0zm58 0c7.7454-1.5562 1.4871 1.6085 0 0zm-76.5-0.97295c6.2228-0.992 0.0776 1.7302 0 0zm95 0c6.2228-0.992 0.0776 1.7302 0 0zm-106.94-1.0208c5.5906-0.86332-1.7194 1.7144 0 0zm119 0c5.5906-0.86332-1.7194 1.7144 0 0zm-213.94-27.067c-3.2433-4.6018 5.5797 5.2594 0 0zm107.38-5.9393c7.7454-1.5562 1.4871 1.6085 0 0zm80.5 0.027c6.2228-0.992 0.0776 1.7302 0 0zm-97-1c6.2228-0.992 0.0776 1.7302 0 0zm113.06-0.0208c5.5906-0.86332-1.7194 1.7144 0 0zm-125-1c5.5906-0.86332-1.7194 1.7144 0 0zm137 0c5.5906-0.86332-1.7194 1.7144 0 0zm10-1c5.5906-0.86332-1.7194 1.7144 0 0zm-91.562-6.0331c12.204-1.459 2.4075 1.4756 0 0zm44.014-1e-3c13.288-1.3494-0.99548 1.636 0 0zm-72.014-0.97208c7.7454-1.5562 1.4871 1.6085 0 0zm95.5 0.027c6.2228-0.992 0.0776 1.7302 0 0zm-113.48-1.0307c8.2222-1.2402-1.1627 1.7161 0 0zm128.54 0.01c5.5906-0.86332-1.7194 1.7144 0 0zm-143.06-0.97924c6.2228-0.992 0.0776 1.7302 0 0zm154.06-0.0208c5.5906-0.86332-1.7194 1.7144 0 0zm-165-1c5.5906-0.86332-1.7194 1.7144 0 0zm175 0c5.5906-0.86332-1.7194 1.7144 0 0zm-185-1c5.5906-0.86332-1.7194 1.7144 0 0zm48-26c5.5906-0.86332-1.7194 1.7144 0 0zm98 0c5.5906-0.86332-1.7194 1.7144 0 0zm-87-1c5.5906-0.86332-1.7194 1.7144 0 0zm77 0c5.5906-0.86332-1.7194 1.7144 0 0zm-63.544-1.0099c8.2222-1.2402-1.1627 1.7161 0 0zm49.481 0.0307c6.2228-0.992 0.0776 1.7302 0 0zm-54.988-35.045c10.763-1.325-1.0678 1.6739 0 0zm59 0c10.763-1.325-1.0678 1.6739 0 0zm-80.493-0.98573c8.2222-1.2402-1.1627 1.7161 0 0zm104 0c8.2222-1.2402-1.1627 1.7161 0 0zm-121.52-0.96931c6.2228-0.992 0.0776 1.7302 0 0zm138.52-0.0307c8.2222-1.2402-1.1627 1.7161 0 0zm-151.46-0.99013c5.5906-0.86332-1.7194 1.7144 0 0zm166 0c5.5906-0.86332-1.7194 1.7144 0 0zm-178-1c5.5906-0.86332-1.7194 1.7144 0 0zm190 0c5.5906-0.86332-1.7194 1.7144 0 0zm-200-1c5.5906-0.86332-1.7194 1.7144 0 0zm210 0c5.5906-0.86332-1.7194 1.7144 0 0zm18-2c5.5906-0.86332-1.7194 1.7144 0 0zm60.688-11.317c3.07-3.3313-0.0437 3.3626 0 0zm-380.12-3.5696c-22.581-8.8653-60.284-15.201-62.915-44.18 8.7411-14.485 28.09-28.341 45.315-27.907 90.179 23.52 184.14 30.088 276.93 22.924 53.227-3.8107 107.16-7.9268 158.35-23.991 16.267 7.9758 41.668 15.29 40.193 37.192-12.587 22.922-41.355 27.626-64.126 36.19-12.67 2.8468-25.569-7.3287-38.438-7.935-113.71-28.301-235.77-26.376-347.44 9.9859-2.6229-0.75977-5.2459-1.5195-7.8688-2.2793zm107.43-18.114c5.5906-0.86332-1.7194 1.7144 0 0zm172 0c5.5906-0.86332-1.7194 1.7144 0 0zm-164-1c5.5906-0.86332-1.7194 1.7144 0 0zm146-1c5.5906-0.86332-1.7194 1.7144 0 0zm-127-1c5.5906-0.86332-1.7194 1.7144 0 0zm116 0c5.5906-0.86332-1.7194 1.7144 0 0zm-105.06-0.97917c6.2228-0.992 0.0776 1.7302 0 0zm92 0c6.2228-0.992 0.0776 1.7302 0 0zm-75.481-1.0307c8.2222-1.2402-1.1627 1.7161 0 0zm60 0c8.2222-1.2402-1.1627 1.7161 0 0zm-28.501-1.0317c8.8122-0.97463 7.1216 1.2427 0 0zm-35.268-32.895c-56.916-4.0474-114.91-6.7178-169.69-23.708 50.433-15.803 103.68-23.332 156.39-27.836 87.604-5.4197 176.86 2.1684 260.8 28.195-80.139 23.228-164.67 24.345-247.51 23.35zm18-94.505c-57.1-1.9543-115.23-5.0396-170.32-20.949 114.4-27.429 234.45-29.548 350.05-7.9092 12.582 2.5262 52.731 5.9454 21.56 10.98-65.939 15.217-133.77 19.895-201.29 17.877zm-191-26.358c-19.253-7.6443-60.835-21.843-42.683-48.335 16.181-14.572 37.494-20.931 57.683-27.903 86.834 30.984 180.83 31.056 271.75 26.007 41.651-4.0657 83.209-11.52 122.61-25.928 22.055 8.1348 48.251 13.927 62.163 34.445 4.9539 26.168-30.257 33.981-48.916 42.004-11.071 4.0292-22.895-3.9134-34.315-4.0981-63.142-11.946-127.31-18.483-191.62-16.134-62.557 1.4574-125.44 7.6323-186.13 23.415-3.5561-1.0288-7.0447-2.285-10.543-3.4732zm172.75-58.206c7.7454-1.5562 1.4871 1.6085 0 0zm70 0c7.7454-1.5562 1.4871 1.6085 0 0zm-87.5-0.97295c6.2228-0.992 0.0776 1.7302 0 0zm106 0c6.2228-0.992 0.0776 1.7302 0 0zm-118.94-1.0208c5.5906-0.86332-1.7194 1.7144 0 0zm133 0c5.5906-0.86332-1.7194 1.7144 0 0zm38-38c5.5906-0.86332-1.7194 1.7144 0 0zm-10-0.99999c5.5906-0.86332-1.7194 1.7144 0 0zm-172-1c5.5906-0.86332-1.7194 1.7144 0 0zm161 0c5.5906-0.86332-1.7194 1.7144 0 0zm-149-1c5.5906-0.86332-1.7194 1.7144 0 0zm134.94 0.0208c6.2228-0.992 0.0776 1.7302 0 0zm-122-1c6.2228-0.992 0.0776 1.7302 0 0zm106.52-0.0307c8.2222-1.2402-1.1627 1.7158 0 0zm-86.507-1.0143c10.763-1.325-1.0678 1.6739 0 0zm64 0c10.763-1.325-1.0678 1.6739 0 0zm-33.512-32.034c22.385-0.57129 14.606 1.0473 0 0zm-27.5-0.92073c6.2228-0.992 0.0776 1.7302 0 0zm67.519-0.0307c8.2222-1.2402-1.1627 1.7161 0 0zm-82.456-0.99012c5.5906-0.8633-1.7194 1.7144 0 0zm97 0c5.5906-0.8633-1.7194 1.7144 0 0zm-108-1c5.5906-0.8633-1.7194 1.7144 0 0zm146-25c5.5906-0.8632-1.7194 1.7146 0 0zm-159-2c5.5906-0.8632-1.7194 1.7146 0 0zm10-1c5.5906-0.8632-1.7194 1.7146 0 0zm119 0c5.5906-0.8632-1.7194 1.7146 0 0zm-140-1c5.5906-0.8632-1.7194 1.7146 0 0zm33 0c5.5906-0.8632-1.7194 1.7146 0 0zm92.938 0.021c6.2228-0.992 0.0776 1.7303 0 0zm-76.481-1.0307c8.2224-1.2403-1.1631 1.716 0 0zm55.981 0c7.7454-1.5561 1.4871 1.6084 0 0zm-87.438-0.9938c5.5906-0.8633-1.7193 1.7146 0 0zm121 0c5.5906-0.8633-1.7193 1.7146 0 0zm-210.65-2.3169c0.74985-5.5286 0.74985 5.5286 0 0zm100.65 1.3169c5.5906-0.8632-1.7193 1.7145 0 0zm97.938 0.021c6.2228-0.992 0.0776 1.7303 0 0zm-83.481-1.0307c8.2224-1.2401-1.163 1.7156 0 0zm69 0c8.2224-1.2401-1.163 1.7156 0 0zm-89.456-32.99c5.5906-0.8633-1.7194 1.7148 0 0zm125 0c5.5906-0.8633-1.7194 1.7148 0 0zm-114.06-0.9791c6.2228-0.992 0.0776 1.7303 0 0zm103.06-0.021c5.5906-0.8632-1.7193 1.7145 0 0zm-87.562-1.0063c7.7454-1.5565 1.4871 1.6087 0 0zm72.019 0c8.2222-1.2405-1.1627 1.7161 0 0z" fill-opacity=".5"/><path d="m-742.34-603.92c-34.647-9.4233-56.808-20.365-62.143-30.683-2.103-4.0668-1.249-9.864 2.0999-14.255 3.1851-4.1759 12.582-10.701 20.751-14.409l5.9904-2.7192 10.151 2.2834c39.314 8.843 92.432 15.408 141.85 17.532 68.372 2.9382 168.43-4.9063 218.56-17.135l11.316-2.7604 8.7122 4.3654c13.974 7.0019 21.212 14.488 21.212 21.939 0 12.425-23.39 25.67-63.5 35.957l-11 2.8214-16.5-4.6571c-30.915-8.7257-63.499-15.115-93.068-18.249-12.04-1.2762-21.586-1.5232-43.432-1.1236-48.512 0.88726-88.85 7.2362-124.74 19.633-6.4566 2.2302-12.982 4.022-14.5 3.9817s-6.8107-1.1748-11.761-2.5211zm-44.159-340.87c-7.8622-3.9333-15.647-10.292-17.875-14.599-7.7728-15.031 12.422-29.1 60.721-42.301l12.688-3.468 7.8121 3.0467c39.571 15.432 97.453 22.7 159.09 19.976 51.823-2.2907 90.607-8.6711 117.05-19.256 4.029-1.6129 8.3398-2.9326 9.5795-2.9326s7.8432 1.537 14.674 3.4155c42.472 11.679 63.405 25.496 58.974 38.924-1.5327 4.6441-9.0189 11.353-17.732 15.891l-6.8213 3.5525-15.19-2.8591c-66.998-12.61-143.45-19.046-200.56-16.882-46.052 1.7448-98.941 6.7153-138.75 13.04-12.002 1.9067-31.811 6.067-35.053 7.3618-0.8609 0.34381-4.6962-0.95227-8.6059-2.9082z" fill-opacity=".75"/><path d="m-611.84-543.91c-39.866-3.0894-82.01-4.5689-117.86-24.156-22.526-12.115 4.9869-29.729 20.086-19.335 65.601 11.163 132.65 10.891 198.81 5.7963 23.556-2.7092 47.091-5.6845 70.472-9.6483 23.849 14.19-7.253 30.023-21.925 33.711-48.267 15.086-99.588 13.806-149.58 13.632zm-5.5-112.01c-50.586-2.8393-101.73-5.4274-151-18.11 91.712-30.581 190.86-32.792 285.88-18.893 27.175 4.209 54.299 9.67 80.481 18.126-25.22 8.6642-52.868 10.306-79.365 13.93-45.167 4.6015-90.634 5.4525-136 4.9466zm-7-258c-49.414-3.105-99.557-8.4236-146.52-24.648 19.834-6.8981 42.553-8.6584 63.712-12.262 90.896-12.732 183.61-10.024 274.24 3.5888 11.08 3.1861 33.322 2.4761 37.458 9.2723-50.556 15.715-103.91 21.398-156.68 23.586-24.061 0.62309-48.145 0.8128-72.212 0.46298zm4.5-78.099c-32.732-2.9647-66.566-4.816-97.27-17.446 14.455-6.6722 39.42-7.9089 58.425-10.997 67.808-6.3794 136.73-4.2495 203.74 8.4106 10.387 4.9435-21.854 9.4383-29.014 11.944-44.644 9.5876-90.484 9.1758-135.88 8.0885zm-111.23-24.339c-22.503-20.713 23.643-32.052 38.98-35.679 55.762-12.75 113.53-10.765 170.25-7.9843 29.691 4.3953 62.077 7.1273 87.031 25.346 13.825 24.15-24.962 22.048-39.398 16.579-53.375-8.8528-107.56-11.002-161.54-7.9053-30.126 1.6644-59.86 7.2038-89.476 12.676l-2.2468-0.8906-3.6085-2.1413z"/><path d="m-603.84-588c-18.567-0.50761-51.742-2.4086-68-3.8965-23.572-2.1573-49-5.984-49-7.3742 0-0.8966 19.421-7.2248 30.5-9.9384 34.398-8.425 63.887-11.639 106-11.553 25.418 0.0521 34.243 0.45674 49.011 2.2475 30.869 3.7432 59.969 9.4885 80.489 15.891l8.5 2.6522-6.5 1.2881c-3.575 0.70844-14.15 2.4073-23.5 3.7752-40.798 5.9687-81.394 8.168-127.5 6.9075z"/><path d="m463.03-688.07c-1.2438-1.5861-1.2085-1.6214 0.3776-0.37756 1.6657 1.3064 2.1955 2.1276 1.3724 2.1276-0.2076 0-0.9951-0.7875-1.75-1.75z"/><path d="m-189.39-655.67c-7.1672-3.2656-10.392-11.058-9.0975-21.986 1.0226-8.6346 6.2982-13.726 14.968-14.445 8.3885-0.69564 14.097 2.6734 16.143 9.5267 0.58834 1.9713 0.31148 2.25-2.2354 2.25-2.1364 0-3.2112-0.66793-4.0551-2.5201-1.28-2.8093-4.7622-4.4799-9.3379-4.4799-2.1181 0-4.062 1.0271-6.4349 3.4-3.164 3.164-3.4 3.8478-3.4 9.8521 0 5.0606 0.4925 7.1849 2.2836 9.85 4.3966 6.5418 13.501 6.0894 16.716-0.83048 1.1726-2.5237 2.1239-3.2331 4.3584-3.25 2.6185-0.0198 2.8017 0.20914 2.1823 2.7284-0.91394 3.7172-3.0747 6.8986-5.9772 8.8003-3.372 2.2094-12.339 2.8239-16.113 1.1042zm53.644 0.0983c-1.8728-0.68905-4.7978-2.9816-6.5-5.0946-2.9362-3.6449-3.0949-4.2946-3.0949-12.673 0-9.5742 1.0425-12.061 6.8851-16.423 3.9448-2.9452 15.285-2.9452 19.23 0 5.8491 4.367 6.8851 6.8405 6.8851 16.438 0 9.4997-1.0537 12.084-6.6206 16.241-3.1626 2.3612-12.251 3.18-16.784 1.5121zm13.706-6.2389c3.8014-3.1987 5.5908-9.8083 4.2623-15.744-2.077-9.2804-11.592-12.843-18.298-6.8517-3.1828 2.8437-3.2658 3.1255-3.2658 11.082s0.083 8.2382 3.2658 11.082c4.2846 3.8283 9.7973 3.998 14.035 0.43193zm413.2 5.7344c-5.7885-2.8917-6.9967-6.6893-6.9984-21.998v-13.25h6v13.277c0 14.803 0.7544 17.07 6.0673 18.237 3.9664 0.87117 8.3697-0.98367 9.803-4.1294 0.6464-1.4187 1.1297-7.807 1.1297-14.932l-2e-3 -12.453h6.227l-0.4133 13.75c-0.3083 10.254-0.8344 14.542-2.0695 16.865-3.1471 5.9197-12.688 8.1585-19.744 4.6333zm152.02-0.43309c-5.8425-3.0215-8.1874-7.2217-8.735-15.646-0.3623-5.5735-0.052-7.3987 1.8893-11.111 3.5339-6.7572 6.6537-8.5585 14.823-8.5585 7.6754 0 10.694 1.5448 14.833 7.592 2.0649 3.0168 2.2945 4.3469 2 11.585-0.3557 8.7413-1.6543 11.607-7.1031 15.675-4.1391 3.0903-12.218 3.3015-17.707 0.46286zm15.487-6.1256c4.3494-4.3494 5.4796-10.809 3.0187-17.253-3.5898-9.3999-15.474-10.246-20.035-1.4257-2.1806 4.2167-1.9171 12.783 0.5158 16.774 3.7797 6.1994 11.334 7.0716 16.5 1.9052zm-547.51-10.69v-18h4.3417c4.2478 0 4.3684 0.0919 5.5747 4.25 5.1093 17.611 7.3627 23.988 8.0183 22.693 0.40148-0.79349 2.4593-7.1802 4.5729-14.193l3.8429-12.75h8.6494v36h-5v-14.667c0-8.0667-0.3375-14.337-0.75-13.934-0.4125 0.40287-2.5988 6.8904-4.8586 14.417-4.0021 13.33-4.1848 13.692-7.0506 13.983l-2.9421 0.29849-3.819-13.298c-2.1004-7.3142-4.2015-13.973-4.669-14.798-0.49695-0.877-0.8626 4.6262-0.88038 13.25l-0.0304 14.75h-5zm59 0v-18h9.953c5.4741 0 11.05 0.49962 12.39 1.1103 4.6107 2.1008 6.0609 8.9348 2.7608 13.01-1.8771 2.3181-1.872 2.3648 0.5 4.563 1.7803 1.6499 2.3965 3.2786 2.3965 6.3345 0 8.6182-3.975 10.982-18.468 10.982h-9.5321zm19.495 12.364c2.0624-0.79142 3.5448-4.496 2.8549-7.1344-0.72332-2.766-4.4934-4.2292-10.897-4.2292h-5.453v12h5.9182c3.255 0 6.6645-0.28637 7.5766-0.63638zm-0.71733-16.92c2.4179-1.6936 2.9318-5.334 1.0225-7.2433-0.67937-0.67937-3.9333-1.2-7.5-1.2h-6.3v10h5.2775c3.1581 0 6.17-0.62516 7.5-1.5567zm32.223 4.5567v-18h6v36h-6zm30 0v-18l3.25 5e-3c3.0895 4e-3 3.6437 0.6462 11.225 13 4.386 7.1475 8.3235 12.995 8.75 12.995 0.42647-4.3e-4 0.77539-5.8504 0.77539-13v-13h5v36.127l-3.2152-0.31336c-2.9329-0.28585-3.9008-1.4106-11.027-12.813-4.2963-6.875-8.2495-12.65-8.7848-12.833-0.59851-0.20497-0.97334 4.705-0.97334 12.75v13.083h-5zm53 0v-18h26v5h-20v10h9c8.3333 0 9 0.14815 9 2s-0.66667 2-9 2h-9v12h21v5h-27zm49 0v-18h9.0321c10.671 0 15.098 1.5214 17.917 6.1572 4.4115 7.2541 3.4853 20.136-1.8127 25.212-3.6468 3.4939-7.9144 4.631-17.38 4.631h-7.7566zm18.405 11.861c7.045-3.2099 7.5078-20.162 0.6506-23.832-1.0582-0.5663-4.4285-1.0296-7.4897-1.0296h-5.5657v26h4.9529c2.7242 0 6.0775-0.51235 7.4519-1.1386zm60.595 5.8765c0-0.14414 2.8856-8.1316 6.4125-17.75l6.4125-17.488 6.9471-0.60714 3.0356 8.3036c1.6696 4.567 4.6482 12.72 6.6191 18.117l3.5834 9.8137-3.1281-0.31374c-2.6952-0.27033-3.3566-0.93643-4.7795-4.8137l-1.6515-4.5-6.3129-0.29998c-3.472-0.16499-6.8757 0.16716-7.5637 0.73812-0.6879 0.57096-1.7917 2.8434-2.4528 5.05-1.0511 3.5082-1.5736 4.0119-4.1618 4.0119-1.628 0-2.9599-0.11793-2.9599-0.26207zm21.424-15.988c-0.3909-1.2375-1.7098-4.9119-2.9309-8.1652l-2.2202-5.9153-2.2828 6.9153c-1.2556 3.8034-2.4901 7.4778-2.7435 8.1652-0.3344 0.90726 1.0952 1.25 5.2137 1.25 5.4284 0 5.6436-0.0975 4.9637-2.25zm91.576 0.75v-15.5h-6c-5.7333 0-6-0.11111-6-2.5v-2.5h28v2.5c0 2.3636-0.3 2.5-5.5 2.5h-5.5v31h-5zm37-2.5v-18h6v14h18v-7c0-6.8 0.071-7 2.5-7h2.5v36h-2.4596c-2.3905 0-2.4677-0.23157-2.75-8.25l-0.2904-8.25-17.5-0.57787v17.078h-6zm109 0v-18h10.944c10.128 0 11.154 0.18012 13.75 2.4134 3.699 3.1817 4.0128 10.324 0.6034 13.733-1.9986 1.9986-2.0517 2.3125-0.5735 3.3934 1.1108 0.81224 1.7694 3.2215 2.0708 7.5754 0.243 3.5114 0.8937 6.9469 1.446 7.6344 0.7656 0.95323 0.1716 1.25-2.5018 1.25-3.9525 0-4.7017-1.3816-4.7254-8.7148-0.017-5.1836-1.6728-6.2852-9.448-6.2852h-5.5657v15h-6zm20.429-3.5714c0.8643-0.86428 1.5714-2.6321 1.5714-3.9286 0-4.0676-2.4927-5.5-9.5714-5.5h-6.4286v11h6.4286c4.5108 0 6.8973-0.46878 8-1.5714zm30.571 3.5714v-18h6v36h-6zm38 2.5v-15.5h-5.5c-5.2 0-5.5-0.13636-5.5-2.5v-2.5h28v2.5c0 2.3636-0.3 2.5-5.5 2.5h-5.5v31h-6zm47 8.3889c0-6.7879-0.2354-7.5038-5.1803-15.75-2.8492-4.7514-5.826-9.6514-6.615-10.889-1.3904-2.1805-1.3249-2.25 2.1215-2.25 3.4185 0 3.7287 0.315 8.0081 8.1322l4.4518 8.1322 4.093-7.3822c2.2511-4.0602 4.2237-7.7557 4.3836-8.2122 0.1598-0.45651 1.7038-0.68151 3.431-0.5l3.1404 0.33001-5.9171 10.496c-5.7143 10.136-5.917 10.744-5.917 17.75v7.2543h-6z"/><path d="m-175.84-733.93c-24.299-6.5013-38.158-33.893-31.479-62.222 5.9358-25.179 27.542-39.011 55.053-35.246 18.943 2.5928 31.642 14.775 34.1 32.71l0.59762 4.3601-27.772-0.0472-2.1446-4.8844c-2.6798-6.1032-6.0361-8.3492-13.227-8.852-4.6704-0.32654-6.2193 8e-3 -9.1041 1.9688-4.796 3.2591-7.6966 7.9214-9.0829 14.599-2.7185 13.095 1.2053 28.894 8.2418 33.186 9.9172 6.0488 20.646 2.0099 23.949-9.0159l1.1849-3.9549h28.911l-0.65489 4.75c-0.3602 2.6125-2.2213 7.9831-4.1359 11.935-5.1654 10.661-13.941 17.752-25.936 20.956-6.533 1.7451-21.546 1.6167-28.5-0.2438zm525.49-0.14187c-19.903-7.0956-30.799-23.827-30.772-47.255 0.018-16.51 4.3243-28.009 14.106-37.668 17.47-17.252 49.615-17.403 65.605-0.30894 4.9691 5.3123 9.3023 13.521 10.263 19.441l0.5737 3.5353h-14.131c-12.27 0-14.131-0.21007-14.131-1.5956 0-2.4235-3.8056-7.2525-7.0292-8.9195-3.9095-2.0217-10.612-1.8307-15.625 0.44518-2.9644 1.346-4.9668 3.2728-6.9922 6.728-2.5375 4.3289-2.8766 5.9618-3.2005 15.414-0.3159 9.2168-0.076 11.236 1.8685 15.757 4.5559 10.591 14.319 15.246 25.16 11.998 3.6405-1.0907 9.818-6.6668 9.818-8.8621 0-0.53086-2.925-0.9652-6.5-0.9652h-6.5v-20h39v52h-19v-4.5c0-5.1819-0.7075-5.5119-4.0757-1.901-1.3334 1.4294-4.6743 3.7689-7.4243 5.1987-4.2759 2.2232-6.5206 2.6464-15.5 2.9221-8.1691 0.25082-11.613-0.0744-15.513-1.4648zm139.28-0.59963c-21.17-7.2146-32.836-26.006-31.45-50.655 1.3904-24.728 14.612-40.716 37.702-45.592 13.364-2.8221 28.872 0.16963 39.194 7.5616 18.883 13.522 25.134 42.106 14.358 65.646-3.0592 6.6822-11.921 16.166-18.402 19.693-11.26 6.1283-29.026 7.5643-41.402 3.3465zm23.728-22.536c4.955-2.2754 6.8125-4.3273 9.6458-10.656 2.8921-6.4599 3.1388-19.496 0.5139-27.151-5.6675-16.527-25.737-18.038-33.362-2.5108-2.468 5.0259-2.7982 6.8192-2.7982 15.198 0 14.155 3.3611 21.215 11.959 25.12 5.1139 2.3229 8.9811 2.3226 14.041-1e-3zm-622.5-24.619v-47.5h29v95h-29zm62 12v-35.5h-27v-23.862l41.25-0.31918c22.688-0.17556 47.489-0.0942 55.114 0.18081l13.864 0.5 7.3899 16.421c4.0644 9.0315 7.6109 16.642 7.8811 16.912 0.27018 0.27018 4.1778-7.2317 8.6837-16.671l8.1925-17.162h31.665l-1.9418 3.75c-1.068 2.0625-8.7255 15.675-17.017 30.25l-15.075 26.5-4e-3 17.25-3e-3 17.25h-29v-35.161l-27.5-49.339-0.59138 13.5h-26.909v71h-29zm186-12.049v-47.549l33.75 0.29942c33.245 0.29494 33.817 0.33474 38.25 2.6594 5.8382 3.0619 9.6653 6.6748 12.33 11.64 3.0901 5.7586 3.0725 19.26-0.033 25.095-2.2288 4.1882-8.4861 10.405-10.472 10.405-0.6083 0 0.9197 1.783 3.3955 3.9623 6.1865 5.4456 8.4846 11.301 9.765 24.878 0.5767 6.1144 1.4798 12.252 2.007 13.638l0.9586 2.5213h-14.416c-7.929 0-14.676-0.42019-14.993-0.93376-0.3174-0.51358-1.2211-6.1255-2.0083-12.471-1.56-12.575-2.2033-14.404-6.1611-17.518-2.2879-1.7999-4.0261-2.0776-13.006-2.0776h-10.365v33h-29zm48.971-6.4002c7.7392-1.4931 10.936-7.4617 7.5275-14.053-1.9523-3.7754-6.3717-4.9842-18.248-4.9913l-9.25-6e-3v20l7.75-0.0435c4.2625-0.024 9.7619-0.43171 12.221-0.90612zm45.029 6.4497v-47.5h79v24h-50v12h45v21.962l-44.5 0.53826-0.5954 12.5h51.095v24h-80zm188 0v-47.5h30v95h-30zm142 0v-47.5h29.763l13.193 24.25c7.2562 13.338 13.61 24.678 14.119 25.2 0.5682 0.58314 0.9257-8.7814 0.9257-24.25v-25.2h27v95.055l-28.34-0.55491-29.16-51.88-0.5332 52.38h-26.967zm-260-84.578c-18.407-3.2568-33.302-18.426-37.058-37.738-2.4223-12.456 0.2516-30.116 5.933-39.184 9.0111-14.383 23.213-22 41.02-22 14.467 0 24.473 3.5229 33.206 11.691 10.65 9.9614 15.12 20.894 15.256 37.309 0.1067 12.859-2.3324 21.74-8.5122 30.994-9.9007 14.826-29.965 22.446-49.845 18.928zm17.329-24.286c3.5797-1.4957 8.3092-6.5738 9.8533-10.58 3.5672-9.2542 2.8782-23.748-1.4999-31.553-5.7405-10.234-18.196-12.259-27.134-4.4121-5.0888 4.468-7.0483 10.578-7.0483 21.979 0 8.6798 0.2814 10.121 3.0226 15.481 4.7575 9.3027 13.73 12.877 22.806 9.0844zm83.033 23.87c-9.3657-2.0368-16.65-6.0953-23.219-12.936-9.7364-10.139-13.233-19.513-13.313-35.69-0.054-10.917 1.6738-18.226 6.426-27.182 5.3749-10.131 17.108-18.929 28.856-21.637 6.2343-1.4372 20.499-1.2746 26.388 0.30081 16.585 4.4369 29.065 17.207 32.959 33.725 1.9515 8.2788 1.9561 21.9 0.01 29.372-6.6297 25.453-31.261 39.886-58.107 34.048zm19.677-24.526c4.6893-2.3923 8.3926-7.6561 10.027-14.252 1.7229-6.9525 0.7709-20.283-1.8017-25.228-8.3198-15.992-28.114-14.511-33.773 2.5261-2.4028 7.2342-1.7401 22.809 1.2116 28.474 5.0362 9.6652 15.123 13.18 24.336 8.4802zm-628.04-24.48v-47.5h29v71h42v24h-71zm79 0v-47.5h58.962l0.56741 2.25c4.7171 18.705 15.252 55.885 15.636 55.181 0.27885-0.51211 3.8433-13.641 7.921-29.175l7.414-28.244 14.75-6e-3c8.3772-3e-3 14.75 0.39387 14.75 0.9194 0 0.75557-22.079 72.14-27.635 89.348l-1.5413 4.7738-33.207-0.54756-28.116-94-0.51958 94.5h-28.98v-47.5zm121 0v-47.5h79v24h-50.095l0.29771 6.25 0.29772 6.25 44.5 0.53826v21.962h-45v12h51v24h-80zm89-0.0612v-47.561l33.25 0.31119c32.505 0.30422 33.368 0.36431 38.492 2.6808 5.7348 2.5925 11.661 8.4555 13.856 13.709 1.7254 4.1296 1.8253 15.26 0.1867 20.806-0.768 2.5991-3.0713 5.9661-6.25 9.1361l-5.0339 5.0201 3.9104 3.4799c5.6748 5.0501 7.5303 10.156 9.0942 25.024 0.7479 7.1104 1.6419 13.384 1.9867 13.942 0.4126 0.66771-4.3236 1.0142-13.865 1.0142-16.745 0-15.036 1.3189-16.619-12.826-1.1576-10.341-2.6259-14.687-5.9713-17.674-1.8882-1.6858-3.9522-2.0532-13.138-2.3385l-10.898-0.33847v33.177h-29zm52.452-6.8541c8.2145-3.4322 7.4343-14.911-1.1762-17.306-1.5265-0.42447-7.0504-0.77342-12.275-0.77544l-9.5-4e-3 -0.29313 8.4164c-0.16122 4.629-0.0629 9.0165 0.21861 9.75 0.72553 1.8907 18.456 1.8278 23.026-0.0817zm41.548 6.8494v-47.566l30.25 0.31598c29.092 0.30389 30.441 0.4039 35.25 2.6138 5.7919 2.6618 12.873 9.1642 15.467 14.202 6.6222 12.864 4.2735 29.89-5.4671 39.631-7.4014 7.4014-14.144 9.3693-32.105 9.3693h-13.395v29h-30zm51.452-4.8494c1.8631-0.77844 3.8736-2.3239 4.4679-3.4343 1.8723-3.4983 1.2816-8.8051-1.3162-11.825-2.3088-2.6841-2.8042-2.8003-13.5-3.1664l-11.103-0.38004v20.221h9.0321c5.5262 0 10.347-0.54938 12.42-1.4153zm241.55 4.9153v-47.5h29v71h42v24h-71z"/></g></svg>
