<?xml version="1.0" encoding="UTF-8"?>
<svg version="1.1" viewBox="0 0 250 91" xml:space="preserve" xmlns="http://www.w3.org/2000/svg"><g transform="matrix(.13496 0 0 .13496 139.28 153.85)" fill="#fff"><path d="m-616.57-544.02c0.973-0.25354 2.323-0.23687 3 0.0371 0.6771 0.27393-0.119 0.48137-1.769 0.46099-1.65-0.0204-2.2039-0.2445-1.231-0.49804zm69 0c0.973-0.25354 2.323-0.23687 3 0.0371 0.6771 0.27393-0.119 0.48137-1.769 0.46099-1.65-0.0204-2.2039-0.2445-1.231-0.49804zm-85.456-0.99012c0.7219-0.28887 1.5844-0.25335 1.9167 0.0789 0.3323 0.33229-0.2584 0.56864-1.3125 0.52522-1.165-0.048-1.4019-0.28494-0.6042-0.60416zm9.4375-34.006c0.9625-0.25152 2.5375-0.25152 3.5 0 0.9625 0.25153 0.175 0.45733-1.75 0.45733s-2.7125-0.2058-1.75-0.45733zm70.019-4e-3c0.973-0.25354 2.323-0.23687 3 0.0371 0.6771 0.27393-0.119 0.48137-1.769 0.46099-1.65-0.0204-2.2039-0.2445-1.231-0.49804zm-88.456-0.99012c0.7219-0.28887 1.5844-0.25335 1.9167 0.0789 0.3323 0.33229-0.2584 0.56864-1.3125 0.52522-1.165-0.048-1.4019-0.28494-0.6042-0.60416zm106 0c0.7219-0.28887 1.5844-0.25335 1.9167 0.0789 0.3323 0.33229-0.2584 0.56864-1.3125 0.52522-1.165-0.048-1.4019-0.28494-0.6042-0.60416zm-4-43c0.7219-0.28887 1.5844-0.25335 1.9167 0.0789 0.3323 0.33229-0.2584 0.56864-1.3125 0.52522-1.165-0.048-1.4019-0.28494-0.6042-0.60416zm-82-1c0.7219-0.28887 1.5844-0.25335 1.9167 0.0789 0.3323 0.33229-0.2584 0.56864-1.3125 0.52522-1.165-0.048-1.4019-0.28494-0.6042-0.60416zm73 0c0.7219-0.28887 1.5844-0.25335 1.9167 0.0789 0.3323 0.33229-0.2584 0.56864-1.3125 0.52522-1.165-0.048-1.4019-0.28494-0.6042-0.60416zm-59.544-1.0099c0.973-0.25354 2.323-0.23687 3 0.0371 0.6771 0.27393-0.119 0.48137-1.769 0.46099-1.65-0.0204-2.2039-0.2445-1.231-0.49804zm47.481 0.0307c0.6875-0.27741 1.8125-0.27741 2.5 0s0.125 0.50439-1.25 0.50439-1.9375-0.22698-1.25-0.50439zm-240.34-4.5874-1.905-2.25 2.25 1.905c1.2375 1.0477 2.25 2.0602 2.25 2.25 0 0.80025-0.8048 0.20945-2.595-1.905zm189.37-16.484c2.3521-0.21124 5.9521-0.20827 8 7e-3 2.048 0.21487 0.1236 0.38771-4.2764 0.38408-4.4-4e-3 -6.0756-0.17944-3.7236-0.39069zm23.51-7e-3c3.1826-0.19905 8.1326-0.1972 11 4e-3 2.8674 0.20131 0.2635 0.36417-5.7865 0.36191-6.05-2e-3 -8.3961-0.16696-5.2135-0.36601zm-50.018-0.95291c0.973-0.25354 2.323-0.23687 3 0.0371 0.6771 0.27393-0.119 0.48137-1.769 0.46099-1.65-0.0204-2.2039-0.2445-1.231-0.49804zm90.981 4e-3c0.9625-0.25152 2.5375-0.25152 3.5 0 0.9625 0.25153 0.175 0.45733-1.75 0.45733s-2.7125-0.2058-1.75-0.45733zm-106.5-0.97295c0.6875-0.27741 1.8125-0.27741 2.5 0s0.125 0.50439-1.25 0.50439-1.9375-0.22698-1.25-0.50439zm127 0c0.6875-0.27741 1.8125-0.27741 2.5 0s0.125 0.50439-1.25 0.50439-1.9375-0.22698-1.25-0.50439zm-138.94-1.0208c0.7219-0.28887 1.5844-0.25335 1.9167 0.0789 0.3323 0.33229-0.2584 0.56864-1.3125 0.52522-1.165-0.048-1.4019-0.28494-0.6042-0.60416zm155 0c0.7219-0.28887 1.5844-0.25335 1.9167 0.0789 0.3323 0.33229-0.2584 0.56864-1.3125 0.52522-1.165-0.048-1.4019-0.28494-0.6042-0.60416zm-165-1c0.7219-0.28887 1.5844-0.25335 1.9167 0.0789 0.3323 0.33229-0.2584 0.56864-1.3125 0.52522-1.165-0.048-1.4019-0.28494-0.6042-0.60416zm178 0c0.7219-0.28887 1.5844-0.25335 1.9167 0.0789 0.3323 0.33229-0.2584 0.56864-1.3125 0.52522-1.165-0.048-1.4019-0.28494-0.6042-0.60416zm11-1c0.7219-0.28887 1.5844-0.25335 1.9167 0.0789 0.3323 0.33229-0.2584 0.56864-1.3125 0.52522-1.165-0.048-1.4019-0.28494-0.6042-0.60416zm-207-1c0.7219-0.28887 1.5844-0.25335 1.9167 0.0789 0.3323 0.33229-0.2584 0.56864-1.3125 0.52522-1.165-0.048-1.4019-0.28494-0.6042-0.60416zm21-47c0.7219-0.28887 1.5844-0.25335 1.9167 0.0789 0.3323 0.33229-0.2584 0.56864-1.3125 0.52522-1.165-0.048-1.4019-0.28494-0.6042-0.60416zm161-2c0.7219-0.28887 1.5844-0.25335 1.9167 0.0789 0.3323 0.33229-0.2584 0.56864-1.3125 0.52522-1.165-0.048-1.4019-0.28494-0.6042-0.60416zm-135-1c0.7219-0.28887 1.5844-0.25335 1.9167 0.0789 0.3323 0.33229-0.2584 0.56864-1.3125 0.52522-1.165-0.048-1.4019-0.28494-0.6042-0.60416zm126 0c0.7219-0.28887 1.5844-0.25335 1.9167 0.0789 0.3323 0.33229-0.2584 0.56864-1.3125 0.52522-1.165-0.048-1.4019-0.28494-0.6042-0.60416zm-318.89-3.0668-2.4243-2.75 2.75 2.4243c1.5125 1.3334 2.75 2.5709 2.75 2.75 0 0.78428-0.8098 0.14598-3.0757-2.4243zm203.89 2.0669c0.7219-0.28887 1.5844-0.25335 1.9167 0.0789 0.3323 0.33229-0.2584 0.56864-1.3125 0.52522-1.165-0.048-1.4019-0.28494-0.6042-0.60416zm105 0c0.7219-0.28887 1.5844-0.25335 1.9167 0.0789 0.3323 0.33229-0.2584 0.56864-1.3125 0.52522-1.165-0.048-1.4019-0.28494-0.6042-0.60416zm-93.062-0.97917c0.6875-0.27741 1.8125-0.27741 2.5 0s0.125 0.50439-1.25 0.50439-1.9375-0.22698-1.25-0.50439zm81 0c0.6875-0.27741 1.8125-0.27741 2.5 0s0.125 0.50439-1.25 0.50439-1.9375-0.22698-1.25-0.50439zm-64.481-1.0307c0.973-0.25354 2.323-0.23687 3 0.0371 0.6771 0.27393-0.119 0.48137-1.769 0.46099-1.65-0.0204-2.2039-0.2445-1.231-0.49804zm47.981 4e-3c0.9625-0.25152 2.5375-0.25152 3.5 0 0.9625 0.25153 0.175 0.45733-1.75 0.45733s-2.7125-0.2058-1.75-0.45733zm-71.488-20.018c1.2439-0.23919 3.0439-0.23011 4 0.0202 0.9561 0.25029-0.062 0.446-2.2617 0.4349-2.2-0.0111-2.9823-0.21589-1.7383-0.45508zm55.502-0.0103c1.52-0.22986 3.77-0.22371 5 0.0136 1.2299 0.23736-0.014 0.42542-2.7638 0.41792-2.75-8e-3 -3.7563-0.20172-2.2362-0.43157zm-74.514-0.94506c0.6875-0.27741 1.8125-0.27741 2.5 0s0.125 0.50439-1.25 0.50439-1.9375-0.22698-1.25-0.50439zm101.5-0.027c0.9625-0.25152 2.5375-0.25152 3.5 0 0.9625 0.25153 0.175 0.45733-1.75 0.45733s-2.7125-0.2058-1.75-0.45733zm-114.5-0.97295c0.6875-0.27741 1.8125-0.27741 2.5 0s0.125 0.50439-1.25 0.50439-1.9375-0.22698-1.25-0.50439zm134 0c0.6875-0.27741 1.8125-0.27741 2.5 0s0.125 0.50439-1.25 0.50439-1.9375-0.22698-1.25-0.50439zm15-1c0.6875-0.27741 1.8125-0.27741 2.5 0s0.125 0.50439-1.25 0.50439-1.9375-0.22698-1.25-0.50439zm-168.94-1.0208c0.7219-0.28887 1.5844-0.25335 1.9167 0.0789 0.3323 0.33229-0.2584 0.56864-1.3125 0.52522-1.165-0.048-1.4019-0.28494-0.6042-0.60416zm182.94 0.0208c0.6875-0.27741 1.8125-0.27741 2.5 0s0.125 0.50439-1.25 0.50439-1.9375-0.22698-1.25-0.50439zm-339.75-2.8377c1.2917-1.375 2.5736-2.5 2.8486-2.5s-0.5569 1.125-1.8486 2.5-2.5736 2.5-2.8486 2.5 0.5569-1.125 1.8486-2.5zm147.81 1.8169c0.7219-0.28887 1.5844-0.25335 1.9167 0.0789 0.3323 0.33229-0.2584 0.56864-1.3125 0.52522-1.165-0.048-1.4019-0.28494-0.6042-0.60416zm204 0c0.7219-0.28887 1.5844-0.25335 1.9167 0.0789 0.3323 0.33229-0.2584 0.56864-1.3125 0.52522-1.165-0.048-1.4019-0.28494-0.6042-0.60416zm-212-1c0.7219-0.28887 1.5844-0.25335 1.9167 0.0789 0.3323 0.33229-0.2584 0.56864-1.3125 0.52522-1.165-0.048-1.4019-0.28494-0.6042-0.60416zm223 0c0.7219-0.28887 1.5844-0.25335 1.9167 0.0789 0.3323 0.33229-0.2584 0.56864-1.3125 0.52522-1.165-0.048-1.4019-0.28494-0.6042-0.60416zm10-1c0.7219-0.28887 1.5844-0.25335 1.9167 0.0789 0.3323 0.33229-0.2584 0.56864-1.3125 0.52522-1.165-0.048-1.4019-0.28494-0.6042-0.60416zm9-1c0.7219-0.28887 1.5844-0.25335 1.9167 0.0789 0.3323 0.33229-0.2584 0.56864-1.3125 0.52522-1.165-0.048-1.4019-0.28494-0.6042-0.60416zm-130.02-1.0583c3.459-0.19583 8.859-0.19422 12 4e-3 3.1409 0.19781 0.3108 0.35803-6.2892 0.35606-6.6-2e-3 -9.1699-0.16382-5.7108-0.35965zm138.02 0.0583c0.7219-0.28887 1.5844-0.25335 1.9167 0.0789 0.3323 0.33229-0.2584 0.56864-1.3125 0.52522-1.165-0.048-1.4019-0.28494-0.6042-0.60416zm-173.56-1.0062c0.9625-0.25152 2.5375-0.25152 3.5 0 0.9625 0.25153 0.175 0.45733-1.75 0.45733s-2.7125-0.2058-1.75-0.45733zm82.019-4e-3c0.973-0.25354 2.323-0.23687 3 0.0371 0.6771 0.27393-0.119 0.48137-1.769 0.46099-1.65-0.0204-2.2039-0.2445-1.231-0.49804zm-101-1c0.973-0.25354 2.323-0.23687 3 0.0371 0.6771 0.27393-0.119 0.48137-1.769 0.46099-1.65-0.0204-2.2039-0.2445-1.231-0.49804zm120.48 0.0307c0.6875-0.27741 1.8125-0.27741 2.5 0s0.125 0.50439-1.25 0.50439-1.9375-0.22698-1.25-0.50439zm-136-0.99965c0.6875-0.27741 1.8125-0.27741 2.5 0s0.125 0.50439-1.25 0.50439-1.9375-0.22698-1.25-0.50439zm151.06-0.0208c0.7219-0.28887 1.5844-0.25335 1.9167 0.0789 0.3323 0.33229-0.2584 0.56864-1.3125 0.52522-1.165-0.048-1.4019-0.28494-0.6042-0.60416zm-164-1c0.7219-0.28887 1.5844-0.25335 1.9167 0.0789 0.3323 0.33229-0.2584 0.56864-1.3125 0.52522-1.165-0.048-1.4019-0.28494-0.6042-0.60416zm187-1c0.7219-0.28887 1.5844-0.25335 1.9167 0.0789 0.3323 0.33229-0.2584 0.56864-1.3125 0.52522-1.165-0.048-1.4019-0.28494-0.6042-0.60416zm-218-2c0.7219-0.28887 1.5844-0.25335 1.9167 0.0789 0.3323 0.33229-0.2584 0.56864-1.3125 0.52522-1.165-0.048-1.4019-0.28494-0.6042-0.60416zm331.69-20.014c-1.1-0.24329-3.8-1.0453-6-1.7823-5.2003-1.742-14.326-4.3965-17.5-5.0907-2.7373-0.59857-2.7282-0.59619-8.5-2.2141-2.2-0.6167-5.125-1.3216-6.5-1.5664-1.375-0.24484-5.2-1.1319-8.5-1.9713-5.1812-1.3179-21.749-4.7191-29.5-6.056-1.375-0.23716-6.325-1.1258-11-1.9748s-10.632-1.8037-13.237-2.1216c-2.6052-0.31791-5.3052-0.76055-6-0.98365s-3.9633-0.68649-7.2633-1.0298-7.35-0.81174-9-1.0411c-41.816-5.8116-107.01-6.6439-155-1.9789-2.2 0.21384-6.925 0.66616-10.5 1.0051s-7.85 0.78412-9.5 0.98919-6.375 0.67786-10.5 1.0506-7.7419 0.82191-8.0375 0.99805c-0.2957 0.17614-3.4457 0.61498-7 0.9752-6.0366 0.61178-42.421 6.6331-47.962 7.9374-1.375 0.32363-4.075 0.83494-6 1.1362s-5.3 1.0206-7.5 1.5984c-2.2 0.57781-5.1675 1.2392-6.5945 1.4696s-9.302 2.2353-17.5 4.4551c-25.16 6.8128-23.379 6.6886-34.906 2.434-22.519-8.3124-37.155-17.856-42.75-27.876-3.3731-6.0405-1.5626-15.315 4.1745-21.386 5.1149-5.4122 18.605-13.294 32.076-18.741 3.575-1.4455 7.4-3.0392 8.5-3.5415 2.5592-1.1686 17.4-6.0606 19.904-6.5612 1.0473-0.20931 6.8973 0.93965 13 2.5532 6.1028 1.6136 12.221 3.1272 13.596 3.3635s4.3 0.89945 6.5 1.4736c2.2 0.57411 5.35 1.2646 7 1.5344s5.25 0.93825 8 1.4854c2.75 0.54719 6.818 1.2633 9.04 1.5914 2.2221 0.32805 5.1471 0.81204 6.5 1.0755 18.984 3.6969 52.578 7.461 84.96 9.5195 21.489 1.366 84.728 1.3482 109.26-0.0308 19.33-1.0868 61.942-4.698 64.744-5.4869 0.825-0.23224 4.2-0.70056 7.5-1.0407s8.925-1.0778 12.5-1.6392 7.85-1.2292 9.5-1.484c11.018-1.7013 21.922-3.6776 27.5-4.9842 3.575-0.8374 7.625-1.7298 9-1.9831s7.6128-1.8127 13.862-3.4653c10.785-2.8522 11.597-2.9309 16-1.5503 2.551 0.79997 5.9726 1.7523 7.6035 2.1163 1.6309 0.36402 4.8687 1.529 7.1951 2.5888 2.3264 1.0598 4.7106 1.9269 5.2982 1.9269 0.58764 0 1.8498 0.42075 2.8049 0.93499 0.95504 0.51425 5.3032 2.5687 9.6626 4.5655 20.034 9.1764 31.264 19.701 31.476 29.5 0.12998 6.0049-5.5758 13.961-14.245 19.861-5.3635 3.6509-18.496 10.264-26.157 13.171-3.3 1.2523-7.8 3.0538-10 4.0033-5.2818 2.2797-7.5843 2.8017-10 2.2674zm-289.69-23.986c0.7219-0.28887 1.5844-0.25335 1.9167 0.0789 0.3323 0.33229-0.2584 0.56864-1.3125 0.52522-1.165-0.048-1.4019-0.28494-0.6042-0.60416zm149 0c0.7219-0.28887 1.5844-0.25335 1.9167 0.0789 0.3323 0.33229-0.2584 0.56864-1.3125 0.52522-1.165-0.048-1.4019-0.28494-0.6042-0.60416zm-138-1c0.7219-0.28887 1.5844-0.25335 1.9167 0.0789 0.3323 0.33229-0.2584 0.56864-1.3125 0.52522-1.165-0.048-1.4019-0.28494-0.6042-0.60416zm127 0c0.7219-0.28887 1.5844-0.25335 1.9167 0.0789 0.3323 0.33229-0.2584 0.56864-1.3125 0.52522-1.165-0.048-1.4019-0.28494-0.6042-0.60416zm-114-1c0.7219-0.28887 1.5844-0.25335 1.9167 0.0789 0.3323 0.33229-0.2584 0.56864-1.3125 0.52522-1.165-0.048-1.4019-0.28494-0.6042-0.60416zm101 0c0.7219-0.28887 1.5844-0.25335 1.9167 0.0789 0.3323 0.33229-0.2584 0.56864-1.3125 0.52522-1.165-0.048-1.4019-0.28494-0.6042-0.60416zm-83.051-1.0242c1.2439-0.23919 3.0439-0.23011 4 0.0202 0.9561 0.25029-0.062 0.446-2.2617 0.4349-2.2-0.0111-2.9823-0.21589-1.7383-0.45508zm63.488 0.0179c0.9625-0.25152 2.5375-0.25152 3.5 0 0.9625 0.25153 0.175 0.45733-1.75 0.45733s-2.7125-0.2058-1.75-0.45733zm-40-41.052c3.7125-0.19241 9.7875-0.19241 13.5 0s0.675 0.34983-6.75 0.34983-10.462-0.15742-6.75-0.34983zm32.5 9e-3c2.3375-0.21053 6.1625-0.21053 8.5 0 2.3375 0.21054 0.425 0.3828-4.25 0.3828s-6.5875-0.17226-4.25-0.3828zm-68.5-0.95712c0.9625-0.25152 2.5375-0.25152 3.5 0 0.9625 0.25153 0.175 0.45733-1.75 0.45733s-2.7125-0.2058-1.75-0.45733zm100.02-4e-3c0.973-0.25354 2.323-0.23687 3 0.0371 0.6771 0.27393-0.119 0.48137-1.769 0.46099-1.65-0.0204-2.2039-0.2445-1.231-0.49804zm-118-1c0.973-0.25354 2.323-0.23687 3 0.0371 0.6771 0.27393-0.119 0.48137-1.769 0.46099-1.65-0.0204-2.2039-0.2445-1.231-0.49804zm132.48 0.0307c0.6875-0.27741 1.8125-0.27741 2.5 0s0.125 0.50439-1.25 0.50439-1.9375-0.22698-1.25-0.50439zm-147-0.99931c0.6875-0.27741 1.8125-0.27741 2.5 0s0.125 0.50439-1.25 0.50439-1.9375-0.22698-1.25-0.50439zm160.06-0.0208c0.7219-0.28887 1.5844-0.25335 1.9167 0.0789 0.3323 0.33229-0.2584 0.56864-1.3125 0.52522-1.165-0.048-1.4019-0.28494-0.6042-0.60416zm-172-1c0.7219-0.28887 1.5844-0.25335 1.9167 0.0789 0.3323 0.33229-0.2584 0.56864-1.3125 0.52522-1.165-0.048-1.4019-0.28494-0.6042-0.60416zm182 0c0.7219-0.28887 1.5844-0.25335 1.9167 0.0789 0.3323 0.33229-0.2584 0.56864-1.3125 0.52522-1.165-0.048-1.4019-0.28494-0.6042-0.60416zm-192-1c0.7219-0.28887 1.5844-0.25335 1.9167 0.0789 0.3323 0.33229-0.2584 0.56864-1.3125 0.52522-1.165-0.048-1.4019-0.28494-0.6042-0.60416zm201 0c0.7219-0.28887 1.5844-0.25335 1.9167 0.0789 0.3323 0.33229-0.2584 0.56864-1.3125 0.52522-1.165-0.048-1.4019-0.28494-0.6042-0.60416zm-211-1c0.7219-0.28887 1.5844-0.25335 1.9167 0.0789 0.3323 0.33229-0.2584 0.56864-1.3125 0.52522-1.165-0.048-1.4019-0.28494-0.6042-0.60416zm219 0c0.7219-0.28887 1.5844-0.25335 1.9167 0.0789 0.3323 0.33229-0.2584 0.56864-1.3125 0.52522-1.165-0.048-1.4019-0.28494-0.6042-0.60416zm86.188-16.317c0-0.55 0.47656-1 1.059-1s0.7809 0.45 0.44098 1-0.81648 1-1.059 1-0.44098-0.45-0.44098-1zm-305.19-14.683c0.7219-0.28887 1.5844-0.25335 1.9167 0.0789 0.3323 0.33229-0.2584 0.56864-1.3125 0.52522-1.165-0.048-1.4019-0.28494-0.6042-0.60416zm-19-1c0.7219-0.28887 1.5844-0.25335 1.9167 0.0789 0.3323 0.33229-0.2584 0.56864-1.3125 0.52522-1.165-0.048-1.4019-0.28494-0.6042-0.60416zm231 0c0.7219-0.28887 1.5844-0.25335 1.9167 0.0789 0.3323 0.33229-0.2584 0.56864-1.3125 0.52522-1.165-0.048-1.4019-0.28494-0.6042-0.60416zm-196-1c0.7219-0.28887 1.5844-0.25335 1.9167 0.0789 0.3323 0.33229-0.2584 0.56864-1.3125 0.52522-1.165-0.048-1.4019-0.28494-0.6042-0.60416zm187 0c0.7219-0.28887 1.5844-0.25335 1.9167 0.0789 0.3323 0.33229-0.2584 0.56864-1.3125 0.52522-1.165-0.048-1.4019-0.28494-0.6042-0.60416zm-178-1c0.7219-0.28887 1.5844-0.25335 1.9167 0.0789 0.3323 0.33229-0.2584 0.56864-1.3125 0.52522-1.165-0.048-1.4019-0.28494-0.6042-0.60416zm169 0c0.7219-0.28887 1.5844-0.25335 1.9167 0.0789 0.3323 0.33229-0.2584 0.56864-1.3125 0.52522-1.165-0.048-1.4019-0.28494-0.6042-0.60416zm33 0c0.7219-0.28887 1.5844-0.25335 1.9167 0.0789 0.3323 0.33229-0.2584 0.56864-1.3125 0.52522-1.165-0.048-1.4019-0.28494-0.6042-0.60416zm-222-1c0.7219-0.28887 1.5844-0.25335 1.9167 0.0789 0.3323 0.33229-0.2584 0.56864-1.3125 0.52522-1.165-0.048-1.4019-0.28494-0.6042-0.60416zm30 0c0.7219-0.28887 1.5844-0.25335 1.9167 0.0789 0.3323 0.33229-0.2584 0.56864-1.3125 0.52522-1.165-0.048-1.4019-0.28494-0.6042-0.60416zm149 0c0.7219-0.28887 1.5844-0.25335 1.9167 0.0789 0.3323 0.33229-0.2584 0.56864-1.3125 0.52522-1.165-0.048-1.4019-0.28494-0.6042-0.60416zm-169-1c0.7219-0.28887 1.5844-0.25335 1.9167 0.0789 0.3323 0.33229-0.2584 0.56864-1.3125 0.52522-1.165-0.048-1.4019-0.28494-0.6042-0.60416zm30.938 0.0208c0.6875-0.27741 1.8125-0.27741 2.5 0s0.125 0.50439-1.25 0.50439-1.9375-0.22698-1.25-0.50439zm127.06-0.0208c0.7219-0.28887 1.5844-0.25335 1.9167 0.0789 0.3323 0.33229-0.2584 0.56864-1.3125 0.52522-1.165-0.048-1.4019-0.28494-0.6042-0.60416zm38 0c0.7219-0.28887 1.5844-0.25335 1.9167 0.0789 0.3323 0.33229-0.2584 0.56864-1.3125 0.52522-1.165-0.048-1.4019-0.28494-0.6042-0.60416zm-186.06-0.97917c0.6875-0.27741 1.8125-0.27741 2.5 0s0.125 0.50439-1.25 0.50439-1.9375-0.22698-1.25-0.50439zm36 0c0.6875-0.27741 1.8125-0.27741 2.5 0s0.125 0.50439-1.25 0.50439-1.9375-0.22698-1.25-0.50439zm98 0c0.6875-0.27741 1.8125-0.27741 2.5 0s0.125 0.50439-1.25 0.50439-1.9375-0.22698-1.25-0.50439zm-122-1c0.6875-0.27741 1.8125-0.27741 2.5 0s0.125 0.50439-1.25 0.50439-1.9375-0.22698-1.25-0.50439zm47.018-0.0624c1.7974-0.22256 4.4974-0.21797 6 0.0102 1.5027 0.22818 0.032 0.41027-3.2679 0.40466-3.3-6e-3 -4.5294-0.1923-2.7321-0.41486zm54.994 0.0175c1.2439-0.23919 3.0439-0.23011 4 0.0202 0.9561 0.25029-0.062 0.446-2.2617 0.4349-2.2-0.0111-2.9823-0.21589-1.7383-0.45508zm54.051 0.0241c0.7219-0.28887 1.5844-0.25335 1.9167 0.0789 0.3323 0.33229-0.2584 0.56864-1.3125 0.52522-1.165-0.048-1.4019-0.28494-0.6042-0.60416zm-143.06-0.9792c0.6875-0.27741 1.8125-0.27741 2.5 0s0.125 0.50439-1.25 0.50439-1.9375-0.22698-1.25-0.50439zm132.06-0.0208c0.7219-0.28887 1.5844-0.25335 1.9167 0.0789 0.3323 0.33229-0.2584 0.56864-1.3125 0.52522-1.165-0.048-1.4019-0.28494-0.6042-0.60416zm-116.06-0.9792c0.6875-0.27741 1.8125-0.27741 2.5 0s0.125 0.50439-1.25 0.50439-1.9375-0.22698-1.25-0.50439zm103 0c0.6875-0.27741 1.8125-0.27741 2.5 0s0.125 0.50439-1.25 0.50439-1.9375-0.22698-1.25-0.50439zm-82.988-1.045c1.2439-0.23919 3.0439-0.23011 4 0.0202 0.9561 0.25029-0.062 0.446-2.2617 0.4349-2.2-0.0111-2.9823-0.21589-1.7383-0.45508zm66.488 0.0179c0.9625-0.25152 2.5375-0.25152 3.5 0 0.9625 0.25153 0.175 0.45733-1.75 0.45733s-2.7125-0.2058-1.75-0.45733zm211.75-1.8106c1.2918-1.375 2.5736-2.5 2.8486-2.5s-0.55688 1.125-1.8486 2.5-2.5736 2.5-2.8486 2.5 0.55688-1.125 1.8486-2.5zm-283.23-26.225c1.7974-0.22256 4.4974-0.21797 6 0.0102 1.5027 0.22818 0.032 0.41027-3.2679 0.40466-3.3-6e-3 -4.5294-0.1923-2.7321-0.41486zm62.982 0.019c1.2375-0.23836 3.2625-0.23836 4.5 0 1.2375 0.23835 0.225 0.43337-2.25 0.43337s-3.4875-0.19502-2.25-0.43337zm-86.481-0.98726c0.973-0.25354 2.323-0.23687 3 0.0371 0.6771 0.27393-0.119 0.48137-1.769 0.46099-1.65-0.0204-2.2039-0.2445-1.231-0.49804zm107.48 0.0307c0.6875-0.27741 1.8125-0.27741 2.5 0s0.125 0.50439-1.25 0.50439-1.9375-0.22698-1.25-0.50439zm-122-1c0.6875-0.27741 1.8125-0.27741 2.5 0s0.125 0.50439-1.25 0.50439-1.9375-0.22698-1.25-0.50439zm136.06-0.0208c0.7219-0.28887 1.5844-0.25335 1.9167 0.0789 0.3323 0.33229-0.2584 0.56864-1.3125 0.52522-1.165-0.048-1.4019-0.28494-0.6042-0.60416zm-321.81-0.69447c0-0.20765 0.7875-0.99515 1.75-1.75 1.5861-1.2439 1.6214-1.2085 0.3776 0.37756-1.3064 1.6658-2.1276 2.1955-2.1276 1.3724zm174.81-0.30555c0.7219-0.28887 1.5844-0.25335 1.9167 0.0789 0.3323 0.33229-0.2584 0.56864-1.3125 0.52522-1.165-0.048-1.4019-0.28494-0.6042-0.60416zm158 0c0.7219-0.28887 1.5844-0.25335 1.9167 0.0789 0.3323 0.33229-0.2584 0.56864-1.3125 0.52522-1.165-0.048-1.4019-0.28494-0.6042-0.60416zm-168-1c0.7219-0.28887 1.5844-0.25335 1.9167 0.0789 0.3323 0.33229-0.2584 0.56864-1.3125 0.52522-1.165-0.048-1.4019-0.28494-0.6042-0.60416zm177 0c0.7219-0.28887 1.5844-0.25335 1.9167 0.0789 0.3323 0.33229-0.2584 0.56864-1.3125 0.52522-1.165-0.048-1.4019-0.28494-0.6042-0.60416zm126.19-45.694c0-0.20765 0.7875-0.99515 1.75-1.75 1.5861-1.2439 1.6214-1.2085 0.37756 0.37756-1.3064 1.6658-2.1276 2.1955-2.1276 1.3724zm-331.19-1.3056c0.7219-0.28887 1.5844-0.25335 1.9167 0.0789 0.3323 0.3323-0.2584 0.56864-1.3125 0.52522-1.165-0.048-1.4019-0.28494-0.6042-0.60416zm9-1c0.7219-0.28887 1.5844-0.25335 1.9167 0.0789 0.3323 0.3323-0.2584 0.56864-1.3125 0.52522-1.165-0.048-1.4019-0.28494-0.6042-0.60416zm10-1c0.7219-0.28887 1.5844-0.25335 1.9167 0.0789 0.3323 0.3323-0.2584 0.56864-1.3125 0.52522-1.165-0.048-1.4019-0.28494-0.6042-0.60416zm10-1c0.7219-0.28887 1.5844-0.25335 1.9167 0.0789 0.3323 0.3323-0.2584 0.56864-1.3125 0.52522-1.165-0.048-1.4019-0.28494-0.6042-0.60416zm180 0c0.7219-0.28887 1.5844-0.25335 1.9167 0.0789 0.3323 0.3323-0.2584 0.56864-1.3125 0.52522-1.165-0.048-1.4019-0.28494-0.6042-0.60416zm-168-1c0.7219-0.28887 1.5844-0.25335 1.9167 0.0789 0.3323 0.3323-0.2584 0.56864-1.3125 0.52522-1.165-0.048-1.4019-0.28494-0.6042-0.60416zm158 0c0.7219-0.28887 1.5844-0.25335 1.9167 0.0789 0.3323 0.3323-0.2584 0.56864-1.3125 0.52522-1.165-0.048-1.4019-0.28494-0.6042-0.60416zm-146-1c0.7219-0.28887 1.5844-0.25335 1.9167 0.0789 0.3323 0.3323-0.2584 0.56864-1.3125 0.52522-1.165-0.048-1.4019-0.28494-0.6042-0.60416zm135 0c0.7219-0.28887 1.5844-0.25335 1.9167 0.0789 0.3323 0.3323-0.2584 0.56864-1.3125 0.52522-1.165-0.048-1.4019-0.28494-0.6042-0.60416zm-121.06-0.97917c0.6875-0.27741 1.8125-0.27741 2.5 0s0.125 0.50439-1.25 0.50439-1.9375-0.22698-1.25-0.50439zm107 0c0.6875-0.27741 1.8125-0.27741 2.5 0s0.125 0.50439-1.25 0.50439-1.9375-0.22698-1.25-0.50439zm-89.5-1.027c0.9625-0.25152 2.5375-0.25152 3.5 0 0.9625 0.25153 0.175 0.45733-1.75 0.45733s-2.7125-0.2058-1.75-0.45733zm72 0c0.9625-0.25152 2.5375-0.25152 3.5 0 0.9625 0.25153 0.175 0.45733-1.75 0.45733s-2.7125-0.2058-1.75-0.45733zm-39-1.0457c2.6125-0.206 6.8875-0.206 9.5 0s0.475 0.37454-4.75 0.37454-7.3625-0.16854-4.75-0.37454zm214.62-14.015c-1.2439-1.5861-1.2085-1.6214 0.37756-0.37755 1.6658 1.3064 2.1955 2.1276 1.3724 2.1276-0.20765 0-0.99515-0.7875-1.75-1.75zm-237.62-4.9662c1.5125-0.22913 3.9875-0.22913 5.5 0 1.5125 0.22912 0.275 0.41659-2.75 0.41659s-4.2625-0.18747-2.75-0.41659zm27.5-7e-3c1.7875-0.22183 4.7125-0.22183 6.5 0 1.7875 0.22182 0.325 0.40332-3.25 0.40332s-5.0375-0.1815-3.25-0.40332zm-48-0.93889c0.6875-0.27741 1.8125-0.27741 2.5 0s0.125 0.50439-1.25 0.50439-1.9375-0.22698-1.25-0.50439zm76 0c0.6875-0.27741 1.8125-0.27741 2.5 0s0.125 0.50439-1.25 0.50439-1.9375-0.22698-1.25-0.50439zm-87.938-1.0208c0.7219-0.28887 1.5844-0.25335 1.9167 0.0789 0.3323 0.33229-0.2584 0.56864-1.3125 0.52522-1.165-0.048-1.4019-0.28494-0.6042-0.60417zm103 0c0.7219-0.28887 1.5844-0.25335 1.9167 0.0789 0.3323 0.33229-0.2584 0.56864-1.3125 0.52522-1.165-0.048-1.4019-0.28494-0.6042-0.60417zm-66.051-7.0242c1.2439-0.23919 3.0439-0.23011 4 0.0202 0.9561 0.25029-0.062 0.446-2.2617 0.4349-2.2-0.0111-2.9823-0.21589-1.7383-0.45508zm32.988 2e-3c1.2375-0.23835 3.2625-0.23835 4.5 0s0.225 0.43337-2.25 0.43337-3.4875-0.19502-2.25-0.43337zm-53-0.95655c0.6875-0.27741 1.8125-0.27741 2.5 0 0.6875 0.27742 0.125 0.50439-1.25 0.50439s-1.9375-0.22697-1.25-0.50439zm76.062-0.0208c0.7219-0.28887 1.5844-0.25334 1.9167 0.0789 0.3323 0.33229-0.2584 0.56864-1.3125 0.52522-1.165-0.048-1.4019-0.28494-0.6042-0.60416zm13-1c0.7219-0.28887 1.5844-0.25334 1.9167 0.0789 0.3323 0.33229-0.2584 0.56864-1.3125 0.52522-1.165-0.048-1.4019-0.28494-0.6042-0.60416zm-105-30c0.7219-0.2888 1.5844-0.2533 1.9167 0.079s-0.2584 0.5687-1.3125 0.5253c-1.165-0.048-1.4019-0.285-0.6042-0.6042zm100 0c0.7219-0.2888 1.5844-0.2533 1.9167 0.079s-0.2584 0.5687-1.3125 0.5253c-1.165-0.048-1.4019-0.285-0.6042-0.6042zm-85.544-1.0098c0.973-0.2536 2.323-0.2369 3 0.037 0.6771 0.2739-0.119 0.4813-1.769 0.4609-1.65-0.02-2.2039-0.2444-1.231-0.498zm67 0c0.973-0.2536 2.323-0.2369 3 0.037 0.6771 0.2739-0.119 0.4813-1.769 0.4609-1.65-0.02-2.2039-0.2444-1.231-0.498zm-35.507-1.0143c1.2439-0.2392 3.0439-0.2301 4 0.02 0.9561 0.2503-0.062 0.446-2.2617 0.4349-2.2-0.011-2.9823-0.2159-1.7383-0.4551z" fill-opacity=".25"/><path d="m-611.59-544.01c0.9625-0.25152 2.5375-0.25152 3.5 0 0.9625 0.25153 0.175 0.45733-1.75 0.45733s-2.7125-0.2058-1.75-0.45733zm58 0c0.9625-0.25152 2.5375-0.25152 3.5 0 0.9625 0.25153 0.175 0.45733-1.75 0.45733s-2.7125-0.2058-1.75-0.45733zm-76.5-0.97295c0.6875-0.27741 1.8125-0.27741 2.5 0s0.125 0.50439-1.25 0.50439-1.9375-0.22698-1.25-0.50439zm95 0c0.6875-0.27741 1.8125-0.27741 2.5 0s0.125 0.50439-1.25 0.50439-1.9375-0.22698-1.25-0.50439zm-106.94-1.0208c0.7219-0.28887 1.5844-0.25335 1.9167 0.0789 0.3323 0.33229-0.2584 0.56864-1.3125 0.52522-1.165-0.048-1.4019-0.28494-0.6042-0.60416zm119 0c0.7219-0.28887 1.5844-0.25335 1.9167 0.0789 0.3323 0.33229-0.2584 0.56864-1.3125 0.52522-1.165-0.048-1.4019-0.28494-0.6042-0.60416zm-213.94-27.067c-1.2438-1.5861-1.2085-1.6214 0.3776-0.37756 0.9625 0.75485 1.75 1.5424 1.75 1.75 0 0.82304-0.8212 0.29331-2.1276-1.3724zm107.38-5.9393c0.9625-0.25152 2.5375-0.25152 3.5 0 0.9625 0.25153 0.175 0.45733-1.75 0.45733s-2.7125-0.2058-1.75-0.45733zm80.5 0.027c0.6875-0.27741 1.8125-0.27741 2.5 0s0.125 0.50439-1.25 0.50439-1.9375-0.22698-1.25-0.50439zm-97-1c0.6875-0.27741 1.8125-0.27741 2.5 0s0.125 0.50439-1.25 0.50439-1.9375-0.22698-1.25-0.50439zm113.06-0.0208c0.7219-0.28887 1.5844-0.25335 1.9167 0.0789 0.3323 0.33229-0.2584 0.56864-1.3125 0.52522-1.165-0.048-1.4019-0.28494-0.6042-0.60416zm-125-1c0.7219-0.28887 1.5844-0.25335 1.9167 0.0789 0.3323 0.33229-0.2584 0.56864-1.3125 0.52522-1.165-0.048-1.4019-0.28494-0.6042-0.60416zm137 0c0.7219-0.28887 1.5844-0.25335 1.9167 0.0789 0.3323 0.33229-0.2584 0.56864-1.3125 0.52522-1.165-0.048-1.4019-0.28494-0.6042-0.60416zm10-1c0.7219-0.28887 1.5844-0.25335 1.9167 0.0789 0.3323 0.33229-0.2584 0.56864-1.3125 0.52522-1.165-0.048-1.4019-0.28494-0.6042-0.60416zm-91.562-6.0331c1.5125-0.22913 3.9875-0.22913 5.5 0 1.5125 0.22912 0.275 0.41659-2.75 0.41659s-4.2625-0.18747-2.75-0.41659zm44.014-1e-3c1.52-0.22986 3.77-0.22371 5 0.0136 1.2299 0.23736-0.014 0.42542-2.7638 0.41792-2.75-8e-3 -3.7563-0.20172-2.2362-0.43157zm-72.014-0.97208c0.9625-0.25152 2.5375-0.25152 3.5 0 0.9625 0.25153 0.175 0.45733-1.75 0.45733s-2.7125-0.2058-1.75-0.45733zm95.5 0.027c0.6875-0.27741 1.8125-0.27741 2.5 0s0.125 0.50439-1.25 0.50439-1.9375-0.22698-1.25-0.50439zm-113.48-1.0307c0.973-0.25354 2.323-0.23687 3 0.0371 0.6771 0.27393-0.119 0.48137-1.769 0.46099-1.65-0.0204-2.2039-0.2445-1.231-0.49804zm128.54 0.01c0.7219-0.28887 1.5844-0.25335 1.9167 0.0789 0.3323 0.33229-0.2584 0.56864-1.3125 0.52522-1.165-0.048-1.4019-0.28494-0.6042-0.60416zm-143.06-0.97924c0.6875-0.27741 1.8125-0.27741 2.5 0s0.125 0.50439-1.25 0.50439-1.9375-0.22698-1.25-0.50439zm154.06-0.0208c0.7219-0.28887 1.5844-0.25335 1.9167 0.0789 0.3323 0.33229-0.2584 0.56864-1.3125 0.52522-1.165-0.048-1.4019-0.28494-0.6042-0.60416zm-165-1c0.7219-0.28887 1.5844-0.25335 1.9167 0.0789 0.3323 0.33229-0.2584 0.56864-1.3125 0.52522-1.165-0.048-1.4019-0.28494-0.6042-0.60416zm175 0c0.7219-0.28887 1.5844-0.25335 1.9167 0.0789 0.3323 0.33229-0.2584 0.56864-1.3125 0.52522-1.165-0.048-1.4019-0.28494-0.6042-0.60416zm-185-1c0.7219-0.28887 1.5844-0.25335 1.9167 0.0789 0.3323 0.33229-0.2584 0.56864-1.3125 0.52522-1.165-0.048-1.4019-0.28494-0.6042-0.60416zm48-26c0.7219-0.28887 1.5844-0.25335 1.9167 0.0789 0.3323 0.33229-0.2584 0.56864-1.3125 0.52522-1.165-0.048-1.4019-0.28494-0.6042-0.60416zm98 0c0.7219-0.28887 1.5844-0.25335 1.9167 0.0789 0.3323 0.33229-0.2584 0.56864-1.3125 0.52522-1.165-0.048-1.4019-0.28494-0.6042-0.60416zm-87-1c0.7219-0.28887 1.5844-0.25335 1.9167 0.0789 0.3323 0.33229-0.2584 0.56864-1.3125 0.52522-1.165-0.048-1.4019-0.28494-0.6042-0.60416zm77 0c0.7219-0.28887 1.5844-0.25335 1.9167 0.0789 0.3323 0.33229-0.2584 0.56864-1.3125 0.52522-1.165-0.048-1.4019-0.28494-0.6042-0.60416zm-63.544-1.0099c0.973-0.25354 2.323-0.23687 3 0.0371 0.6771 0.27393-0.119 0.48137-1.769 0.46099-1.65-0.0204-2.2039-0.2445-1.231-0.49804zm49.481 0.0307c0.6875-0.27741 1.8125-0.27741 2.5 0s0.125 0.50439-1.25 0.50439-1.9375-0.22698-1.25-0.50439zm-54.988-35.045c1.2439-0.23919 3.0439-0.23011 4 0.0202 0.9561 0.25029-0.062 0.446-2.2617 0.4349-2.2-0.0111-2.9823-0.21589-1.7383-0.45508zm59 0c1.2439-0.23919 3.0439-0.23011 4 0.0202 0.9561 0.25029-0.062 0.446-2.2617 0.4349-2.2-0.0111-2.9823-0.21589-1.7383-0.45508zm-80.493-0.98573c0.973-0.25354 2.323-0.23687 3 0.0371 0.6771 0.27393-0.119 0.48137-1.769 0.46099-1.65-0.0204-2.2039-0.2445-1.231-0.49804zm104 0c0.973-0.25354 2.323-0.23687 3 0.0371 0.6771 0.27393-0.119 0.48137-1.769 0.46099-1.65-0.0204-2.2039-0.2445-1.231-0.49804zm-121.52-0.96931c0.6875-0.27741 1.8125-0.27741 2.5 0s0.125 0.50439-1.25 0.50439-1.9375-0.22698-1.25-0.50439zm138.52-0.0307c0.973-0.25354 2.323-0.23687 3 0.0371 0.6771 0.27393-0.119 0.48137-1.769 0.46099-1.65-0.0204-2.2039-0.2445-1.231-0.49804zm-151.46-0.99013c0.7219-0.28887 1.5844-0.25335 1.9167 0.0789 0.3323 0.33229-0.2584 0.56864-1.3125 0.52522-1.165-0.048-1.4019-0.28494-0.6042-0.60416zm166 0c0.7219-0.28887 1.5844-0.25335 1.9167 0.0789 0.3323 0.33229-0.2584 0.56864-1.3125 0.52522-1.165-0.048-1.4019-0.28494-0.6042-0.60416zm-178-1c0.7219-0.28887 1.5844-0.25335 1.9167 0.0789 0.3323 0.33229-0.2584 0.56864-1.3125 0.52522-1.165-0.048-1.4019-0.28494-0.6042-0.60416zm190 0c0.7219-0.28887 1.5844-0.25335 1.9167 0.0789 0.3323 0.33229-0.2584 0.56864-1.3125 0.52522-1.165-0.048-1.4019-0.28494-0.6042-0.60416zm-200-1c0.7219-0.28887 1.5844-0.25335 1.9167 0.0789 0.3323 0.33229-0.2584 0.56864-1.3125 0.52522-1.165-0.048-1.4019-0.28494-0.6042-0.60416zm210 0c0.7219-0.28887 1.5844-0.25335 1.9167 0.0789 0.3323 0.33229-0.2584 0.56864-1.3125 0.52522-1.165-0.048-1.4019-0.28494-0.6042-0.60416zm18-2c0.7219-0.28887 1.5844-0.25335 1.9167 0.0789 0.3323 0.33229-0.2584 0.56864-1.3125 0.52522-1.165-0.048-1.4019-0.28494-0.6042-0.60416zm60.688-11.317c0.3399-0.55 0.8165-1 1.059-1 0.2426 0 0.441 0.45 0.441 1s-0.4766 1-1.059 1c-0.5825 0-0.7809-0.45-0.441-1zm-380.12-3.5696c-27.636-7.9905-48.649-18.376-57.82-28.575-4.866-5.4121-6.2091-9.526-5.0948-15.605 1.4318-7.8116 17.319-19.731 36.035-27.035l5-1.9514 13.106 3.3049c42.679 10.762 100.23 19.452 148.39 22.41 52.768 3.2396 148.85-1.5959 209.4-10.539 22.602-3.338 44.481-7.832 57.823-11.877l10.839-3.2862 9.7176 4.3674c26.712 12.005 36.365 24.849 28.27 37.613-5.8834 9.2771-22.239 18.31-49.346 27.253l-16.794 5.5405-14.206-4.0185c-52.842-14.947-110.25-23.616-163.71-24.72-64.782-1.3382-140.4 8.7406-192.12 25.608l-11.621 3.7896zm107.43-18.114c0.7219-0.28887 1.5844-0.25335 1.9167 0.0789 0.3323 0.33229-0.2584 0.56864-1.3125 0.52522-1.165-0.048-1.4019-0.28494-0.6042-0.60416zm172 0c0.7219-0.28887 1.5844-0.25335 1.9167 0.0789 0.3323 0.33229-0.2584 0.56864-1.3125 0.52522-1.165-0.048-1.4019-0.28494-0.6042-0.60416zm-164-1c0.7219-0.28887 1.5844-0.25335 1.9167 0.0789 0.3323 0.33229-0.2584 0.56864-1.3125 0.52522-1.165-0.048-1.4019-0.28494-0.6042-0.60416zm146-1c0.7219-0.28887 1.5844-0.25335 1.9167 0.0789 0.3323 0.33229-0.2584 0.56864-1.3125 0.52522-1.165-0.048-1.4019-0.28494-0.6042-0.60416zm-127-1c0.7219-0.28887 1.5844-0.25335 1.9167 0.0789 0.3323 0.33229-0.2584 0.56864-1.3125 0.52522-1.165-0.048-1.4019-0.28494-0.6042-0.60416zm116 0c0.7219-0.28887 1.5844-0.25335 1.9167 0.0789 0.3323 0.33229-0.2584 0.56864-1.3125 0.52522-1.165-0.048-1.4019-0.28494-0.6042-0.60416zm-105.06-0.97917c0.6875-0.27741 1.8125-0.27741 2.5 0s0.125 0.50439-1.25 0.50439-1.9375-0.22698-1.25-0.50439zm92 0c0.6875-0.27741 1.8125-0.27741 2.5 0s0.125 0.50439-1.25 0.50439-1.9375-0.22698-1.25-0.50439zm-75.481-1.0307c0.973-0.25354 2.323-0.23687 3 0.0371 0.6771 0.27393-0.119 0.48137-1.769 0.46099-1.65-0.0204-2.2039-0.2445-1.231-0.49804zm60 0c0.973-0.25354 2.323-0.23687 3 0.0371 0.6771 0.27393-0.119 0.48137-1.769 0.46099-1.65-0.0204-2.2039-0.2445-1.231-0.49804zm-28.501-1.0317c1.7974-0.22256 4.4974-0.21797 6 0.0102 1.5027 0.22818 0.032 0.41027-3.2679 0.40466-3.3-6e-3 -4.5294-0.1923-2.7321-0.41486zm-35.268-32.895c-76.598-4.6883-118.28-9.9377-157.16-19.794-16.305-4.1332-16.196-3.8378-2.7286-7.4014 41.507-10.982 92.129-19.716 137.39-23.703 9.625-0.8478 31.225-1.8123 48-2.1434 54.16-1.0688 103.2 3.0966 155.99 13.248 29.266 5.6288 66.015 14.783 66.015 16.444 0 0.42971-6.6375 2.3794-14.75 4.3326-34.532 8.3143-68.157 13.284-116.56 17.228-18.009 1.4674-100.65 2.7397-116.19 1.7887zm18-94.505c-60.389-1.3098-113.59-7.0484-157.32-16.97-8.0923-1.836-13.745-3.5661-13-3.9786 4.1347-2.2883 59.215-12.308 87.319-15.885 45.501-5.7903 96.648-8.1023 137.36-6.209 47.992 2.2319 80.804 6.3343 158.89 19.866 1.7875 0.30975 3.25 0.88824 3.25 1.2855 0 0.95014-33.424 8.2299-52.68 11.474-53.291 8.9773-98.293 11.839-163.82 10.418zm-191-26.358c-5.5-1.9045-14.95-5.9196-21-8.9225-24.162-11.993-32.378-24.185-24.372-36.165 5.6569-8.4647 23.715-18.649 47.372-26.717l13-4.4335 16 5.2764c31.838 10.499 70.33 17.38 121 21.629 23.984 2.0112 107.44 1.7012 130.5-0.48482 45.564-4.3187 83.282-11.603 114.18-22.053l12.68-4.2881 10.82 3.6529c38.627 13.04 56.496 27.194 52.33 41.449-2.7782 9.5061-19.694 20.717-44.351 29.394l-10.685 3.7598-13.237-2.7707c-31.872-6.6714-78.603-13.601-118.24-17.534-22.326-2.2151-99.034-2.5286-126-0.51493-59.569 4.4482-100.75 10.097-133.33 18.289-8.5682 2.1542-15.824 3.9122-16.124 3.9067-0.2999-5e-3 -5.0452-1.5683-10.545-3.4728zm172.75-58.206c0.9625-0.25152 2.5375-0.25152 3.5 0 0.9625 0.25153 0.175 0.45733-1.75 0.45733s-2.7125-0.2058-1.75-0.45733zm70 0c0.9625-0.25152 2.5375-0.25152 3.5 0 0.9625 0.25153 0.175 0.45733-1.75 0.45733s-2.7125-0.2058-1.75-0.45733zm-87.5-0.97295c0.6875-0.27741 1.8125-0.27741 2.5 0s0.125 0.50439-1.25 0.50439-1.9375-0.22698-1.25-0.50439zm106 0c0.6875-0.27741 1.8125-0.27741 2.5 0s0.125 0.50439-1.25 0.50439-1.9375-0.22698-1.25-0.50439zm-118.94-1.0208c0.7219-0.28887 1.5844-0.25335 1.9167 0.0789 0.3323 0.33229-0.2584 0.56864-1.3125 0.52522-1.165-0.048-1.4019-0.28494-0.6042-0.60416zm133 0c0.7219-0.28887 1.5844-0.25335 1.9167 0.0789 0.3323 0.33229-0.2584 0.56864-1.3125 0.52522-1.165-0.048-1.4019-0.28494-0.6042-0.60416zm38-38c0.7219-0.28887 1.5844-0.25335 1.9167 0.0789 0.3323 0.3323-0.2584 0.56864-1.3125 0.52522-1.165-0.048-1.4019-0.28494-0.6042-0.60416zm-10-0.99999c0.7219-0.28887 1.5844-0.25335 1.9167 0.0789 0.3323 0.3323-0.2584 0.56864-1.3125 0.52522-1.165-0.048-1.4019-0.28494-0.6042-0.60416zm-172-1c0.7219-0.28887 1.5844-0.25335 1.9167 0.0789 0.3323 0.3323-0.2584 0.56864-1.3125 0.52522-1.165-0.048-1.4019-0.28494-0.6042-0.60416zm161 0c0.7219-0.28887 1.5844-0.25335 1.9167 0.0789 0.3323 0.3323-0.2584 0.56864-1.3125 0.52522-1.165-0.048-1.4019-0.28494-0.6042-0.60416zm-149-1c0.7219-0.28887 1.5844-0.25335 1.9167 0.0789 0.3323 0.3323-0.2584 0.56864-1.3125 0.52522-1.165-0.048-1.4019-0.28494-0.6042-0.60416zm134.94 0.0208c0.6875-0.27741 1.8125-0.27741 2.5 0s0.125 0.50439-1.25 0.50439-1.9375-0.22698-1.25-0.50439zm-122-1c0.6875-0.27741 1.8125-0.27741 2.5 0s0.125 0.50439-1.25 0.50439-1.9375-0.22698-1.25-0.50439zm106.52-0.0307c0.973-0.25354 2.323-0.23687 3 0.037 0.6771 0.27393-0.119 0.48137-1.769 0.46099-1.65-0.0204-2.2039-0.2445-1.231-0.49804zm-86.507-1.0143c1.2439-0.23919 3.0439-0.23011 4 0.0202 0.9561 0.25029-0.062 0.446-2.2617 0.4349-2.2-0.0111-2.9823-0.21589-1.7383-0.45508zm64 0c1.2439-0.23919 3.0439-0.23011 4 0.0202 0.9561 0.25029-0.062 0.446-2.2617 0.4349-2.2-0.0111-2.9823-0.21589-1.7383-0.45508zm-33.512-32.034c3.7125-0.19241 9.7875-0.19241 13.5 0s0.675 0.34983-6.75 0.34983-10.462-0.15742-6.75-0.34983zm-27.5-0.92073c0.6875-0.27741 1.8125-0.27741 2.5 0s0.125 0.50439-1.25 0.50439-1.9375-0.22698-1.25-0.50439zm67.519-0.0307c0.973-0.25354 2.323-0.23687 3 0.0371 0.6771 0.27392-0.119 0.48137-1.769 0.46099-1.65-0.0204-2.2039-0.2445-1.231-0.49804zm-82.456-0.99012c0.7219-0.28888 1.5844-0.25335 1.9167 0.0789 0.3323 0.33229-0.2584 0.56864-1.3125 0.52522-1.165-0.048-1.4019-0.28494-0.6042-0.60417zm97 0c0.7219-0.28888 1.5844-0.25335 1.9167 0.0789 0.3323 0.33229-0.2584 0.56864-1.3125 0.52522-1.165-0.048-1.4019-0.28494-0.6042-0.60417zm-108-1c0.7219-0.28888 1.5844-0.25335 1.9167 0.0789 0.3323 0.33229-0.2584 0.56864-1.3125 0.52522-1.165-0.048-1.4019-0.28494-0.6042-0.60417zm146-25c0.7219-0.2889 1.5844-0.2533 1.9167 0.079s-0.2584 0.5686-1.3125 0.5252c-1.165-0.048-1.4019-0.2849-0.6042-0.6041zm-159-2c0.7219-0.2889 1.5844-0.2533 1.9167 0.079s-0.2584 0.5686-1.3125 0.5252c-1.165-0.048-1.4019-0.2849-0.6042-0.6041zm10-1c0.7219-0.2889 1.5844-0.2533 1.9167 0.079s-0.2584 0.5686-1.3125 0.5252c-1.165-0.048-1.4019-0.2849-0.6042-0.6041zm119 0c0.7219-0.2889 1.5844-0.2533 1.9167 0.079s-0.2584 0.5686-1.3125 0.5252c-1.165-0.048-1.4019-0.2849-0.6042-0.6041zm-140-1c0.7219-0.2889 1.5844-0.2533 1.9167 0.079s-0.2584 0.5686-1.3125 0.5252c-1.165-0.048-1.4019-0.2849-0.6042-0.6041zm33 0c0.7219-0.2889 1.5844-0.2533 1.9167 0.079s-0.2584 0.5686-1.3125 0.5252c-1.165-0.048-1.4019-0.2849-0.6042-0.6041zm92.938 0.021c0.6875-0.2774 1.8125-0.2774 2.5 0s0.125 0.5044-1.25 0.5044-1.9375-0.227-1.25-0.5044zm-76.481-1.0307c0.973-0.2536 2.323-0.2369 3 0.037 0.6771 0.2739-0.119 0.4814-1.769 0.461-1.65-0.02-2.2039-0.2445-1.231-0.4981zm55.981 0c0.9625-0.2515 2.5375-0.2515 3.5 0s0.175 0.4573-1.75 0.4573-2.7125-0.2058-1.75-0.4573zm-87.438-0.9938c0.7219-0.2889 1.5844-0.2534 1.9167 0.079 0.3323 0.3323-0.2584 0.5686-1.3125 0.5252-1.165-0.048-1.4019-0.2849-0.6042-0.6042zm121 0c0.7219-0.2889 1.5844-0.2534 1.9167 0.079 0.3323 0.3323-0.2584 0.5686-1.3125 0.5252-1.165-0.048-1.4019-0.2849-0.6042-0.6042zm-210.65-2.3169c0-1.375 0.227-1.9375 0.5044-1.25s0.2774 1.8125 0 2.5-0.5044 0.125-0.5044-1.25zm100.65 1.3169c0.7219-0.2889 1.5844-0.2534 1.9167 0.079 0.3323 0.3323-0.2584 0.5686-1.3125 0.5252-1.165-0.048-1.4019-0.285-0.6042-0.6042zm97.938 0.021c0.6875-0.2775 1.8125-0.2775 2.5 0 0.6875 0.2774 0.125 0.5044-1.25 0.5044s-1.9375-0.227-1.25-0.5044zm-83.481-1.0307c0.973-0.2536 2.323-0.2369 3 0.037 0.6771 0.2739-0.119 0.4813-1.769 0.4609-1.65-0.02-2.2039-0.2445-1.231-0.498zm69 0c0.973-0.2536 2.323-0.2369 3 0.037 0.6771 0.2739-0.119 0.4813-1.769 0.4609-1.65-0.02-2.2039-0.2445-1.231-0.498zm-89.456-32.99c0.7219-0.2888 1.5844-0.2533 1.9167 0.079s-0.2584 0.5687-1.3125 0.5253c-1.165-0.048-1.4019-0.285-0.6042-0.6042zm125 0c0.7219-0.2888 1.5844-0.2533 1.9167 0.079s-0.2584 0.5687-1.3125 0.5253c-1.165-0.048-1.4019-0.285-0.6042-0.6042zm-114.06-0.9791c0.6875-0.2774 1.8125-0.2774 2.5 0s0.125 0.5044-1.25 0.5044-1.9375-0.227-1.25-0.5044zm103.06-0.021c0.7219-0.2889 1.5844-0.2534 1.9167 0.079 0.3323 0.3323-0.2584 0.5686-1.3125 0.5252-1.165-0.048-1.4019-0.285-0.6042-0.6042zm-87.562-1.0063c0.9625-0.2515 2.5375-0.2515 3.5 0 0.9625 0.2516 0.175 0.4574-1.75 0.4574s-2.7125-0.2058-1.75-0.4574zm72.019 0c0.973-0.2535 2.323-0.2368 3 0.037 0.6771 0.274-0.119 0.4814-1.769 0.461-1.65-0.02-2.2039-0.2445-1.231-0.498z" fill-opacity=".5"/><path d="m-742.34-603.92c-34.647-9.4233-56.808-20.365-62.143-30.683-2.103-4.0668-1.249-9.864 2.0999-14.255 3.1851-4.1759 12.582-10.701 20.751-14.409l5.9904-2.7192 10.151 2.2834c39.314 8.843 92.432 15.408 141.85 17.532 68.372 2.9382 168.43-4.9063 218.56-17.135l11.316-2.7604 8.7122 4.3654c13.974 7.0019 21.212 14.488 21.212 21.939 0 12.425-23.39 25.67-63.5 35.957l-11 2.8214-16.5-4.6571c-30.915-8.7257-63.499-15.115-93.068-18.249-12.04-1.2762-21.586-1.5232-43.432-1.1236-48.512 0.88726-88.85 7.2362-124.74 19.633-6.4566 2.2302-12.982 4.022-14.5 3.9817s-6.8107-1.1748-11.761-2.5211zm-44.159-340.87c-7.8622-3.9333-15.647-10.292-17.875-14.599-7.7728-15.031 12.422-29.1 60.721-42.301l12.688-3.468 7.8121 3.0467c39.571 15.432 97.453 22.7 159.09 19.976 51.823-2.2907 90.607-8.6711 117.05-19.256 4.029-1.6129 8.3398-2.9326 9.5795-2.9326s7.8432 1.537 14.674 3.4155c42.472 11.679 63.405 25.496 58.974 38.924-1.5327 4.6441-9.0189 11.353-17.732 15.891l-6.8213 3.5525-15.19-2.8591c-66.998-12.61-143.45-19.046-200.56-16.882-46.052 1.7448-98.941 6.7153-138.75 13.04-12.002 1.9067-31.811 6.067-35.053 7.3618-0.8609 0.34381-4.6962-0.95227-8.6059-2.9082z" fill-opacity=".75"/><path d="m-611.84-543.91c-25.816-1.6912-38.412-2.8071-50-4.4294-36.072-5.0501-61.457-13.237-72.752-23.464-3.8039-3.4439-4.5488-4.7046-4.4766-7.5768 0.069-2.7296 0.9592-4.2247 4.2863-7.1955 2.3099-2.0625 5.0299-3.75 6.0444-3.75 1.0144 0 9.6191 1.3162 19.121 2.9249 20.792 3.52 47.989 6.6059 71.891 8.1568 24.366 1.5811 98.285 0.6555 118.89-1.4886 20.024-2.0841 52.366-6.2567 67-8.6441l11.5-1.8761 3.5 2.7846c4.1581 3.3082 6.9994 8.4287 6.2555 11.273-1.6643 6.3642-19.676 16.526-38.756 21.865-14.058 3.9334-34.798 7.5602-54.5 9.5301-14.55 1.4549-74.866 2.75-88 1.8896zm-5.5-112.01c-3.3-0.20096-14.775-0.83697-25.5-1.4134-46.288-2.4876-93.147-8.3786-118.5-14.897l-7-1.7998 13-4.1272c31.854-10.113 69.556-17.059 116-21.371 21.079-1.9572 82.301-1.6608 105.5 0.51084 34.392 3.2194 59.939 6.8735 86.435 12.363 15.036 3.1152 44.335 10.763 45.43 11.858 2.2258 2.2258-43.677 10.282-79.365 13.93-28.891 2.9527-60.297 4.5889-95 4.9495-19.25 0.2-37.7 0.19921-41-2e-3zm-7-258c-2.75-0.20105-12.2-0.85093-21-1.4442-40.329-2.7188-85.907-10.554-117.35-20.175-12.398-3.7929-12.832-3.5042 12.505-8.3027 32.158-6.0903 64.446-10.261 105.85-13.672 19.86-1.6365 92.796-1.6382 116-3e-3 40.457 2.8514 76.919 6.9969 107 12.165 21.674 3.7238 27.5 4.9949 27.5 6 0 3.0465-36.02 11.58-71.5 16.94-40.141 6.0634-68.545 8.1741-115 8.5455-21.45 0.17149-41.25 0.14731-44-0.0537zm4.5-78.099c-26.565-1.56-61.372-6.367-78.433-10.832-10.698-2.7996-21.238-6.9428-19.847-7.802 1.483-0.9166 25.906-5.2843 42.28-7.5613 33.602-4.6727 47.806-5.5612 88-5.5045 40.025 0.056 59.665 1.2016 94 5.4811 16.049 2.0004 42.987 6.5651 43.853 7.4311 0.9209 0.9209-9.9527 4.7997-22.353 7.9738-20.383 5.2175-41.835 8.3867-71 10.489-12.659 0.91257-62.86 1.1255-76.5 0.32445zm-111.23-24.339c-12.08-8.0013-10.122-15.804 6.1045-24.33 17.71-9.3064 47.741-16.027 88.63-19.834 21.78-2.028 94.739-1.7088 114.5 0.5008 49.449 5.5292 84.493 17.176 90.673 30.135 1.5137 3.1743 1.4964 3.586-0.2793 6.6246-1.0413 1.7819-4.1397 4.7877-6.8854 6.6794-4.166 2.8703-5.5724 3.3377-8.5 2.8244-29.099-5.102-73.271-10.75-98.65-12.614-21.938-1.6115-85.826-0.7299-105.36 1.4538-21.846 2.4424-41.834 5.4142-58.301 8.668-8.1403 1.6085-15.376 2.9246-16.078 2.9246s-3.3378-1.3644-5.8553-3.0319z"/><path d="m-603.84-588c-18.567-0.50761-51.742-2.4086-68-3.8965-23.572-2.1573-49-5.984-49-7.3742 0-0.8966 19.421-7.2248 30.5-9.9384 34.398-8.425 63.887-11.639 106-11.553 25.418 0.0521 34.243 0.45674 49.011 2.2475 30.869 3.7432 59.969 9.4885 80.489 15.891l8.5 2.6522-6.5 1.2881c-3.575 0.70844-14.15 2.4073-23.5 3.7752-40.798 5.9687-81.394 8.168-127.5 6.9075z"/><path d="m463.03-688.07c-1.2438-1.5861-1.2085-1.6214 0.3776-0.37756 1.6657 1.3064 2.1955 2.1276 1.3724 2.1276-0.2076 0-0.9951-0.7875-1.75-1.75z"/><path d="m-189.39-655.67c-7.1672-3.2656-10.392-11.058-9.0975-21.986 1.0226-8.6346 6.2982-13.726 14.968-14.445 8.3885-0.69564 14.097 2.6734 16.143 9.5267 0.58834 1.9713 0.31148 2.25-2.2354 2.25-2.1364 0-3.2112-0.66793-4.0551-2.5201-1.28-2.8093-4.7622-4.4799-9.3379-4.4799-2.1181 0-4.062 1.0271-6.4349 3.4-3.164 3.164-3.4 3.8478-3.4 9.8521 0 5.0606 0.4925 7.1849 2.2836 9.85 4.3966 6.5418 13.501 6.0894 16.716-0.83048 1.1726-2.5237 2.1239-3.2331 4.3584-3.25 2.6185-0.0198 2.8017 0.20914 2.1823 2.7284-0.91394 3.7172-3.0747 6.8986-5.9772 8.8003-3.372 2.2094-12.339 2.8239-16.113 1.1042zm53.644 0.0983c-1.8728-0.68905-4.7978-2.9816-6.5-5.0946-2.9362-3.6449-3.0949-4.2946-3.0949-12.673 0-9.5742 1.0425-12.061 6.8851-16.423 3.9448-2.9452 15.285-2.9452 19.23 0 5.8491 4.367 6.8851 6.8405 6.8851 16.438 0 9.4997-1.0537 12.084-6.6206 16.241-3.1626 2.3612-12.251 3.18-16.784 1.5121zm13.706-6.2389c3.8014-3.1987 5.5908-9.8083 4.2623-15.744-2.077-9.2804-11.592-12.843-18.298-6.8517-3.1828 2.8437-3.2658 3.1255-3.2658 11.082s0.083 8.2382 3.2658 11.082c4.2846 3.8283 9.7973 3.998 14.035 0.43193zm413.2 5.7344c-5.7885-2.8917-6.9967-6.6893-6.9984-21.998v-13.25h6v13.277c0 14.803 0.7544 17.07 6.0673 18.237 3.9664 0.87117 8.3697-0.98367 9.803-4.1294 0.6464-1.4187 1.1297-7.807 1.1297-14.932l-2e-3 -12.453h6.227l-0.4133 13.75c-0.3083 10.254-0.8344 14.542-2.0695 16.865-3.1471 5.9197-12.688 8.1585-19.744 4.6333zm152.02-0.43309c-5.8425-3.0215-8.1874-7.2217-8.735-15.646-0.3623-5.5735-0.052-7.3987 1.8893-11.111 3.5339-6.7572 6.6537-8.5585 14.823-8.5585 7.6754 0 10.694 1.5448 14.833 7.592 2.0649 3.0168 2.2945 4.3469 2 11.585-0.3557 8.7413-1.6543 11.607-7.1031 15.675-4.1391 3.0903-12.218 3.3015-17.707 0.46286zm15.487-6.1256c4.3494-4.3494 5.4796-10.809 3.0187-17.253-3.5898-9.3999-15.474-10.246-20.035-1.4257-2.1806 4.2167-1.9171 12.783 0.5158 16.774 3.7797 6.1994 11.334 7.0716 16.5 1.9052zm-547.51-10.69v-18h4.3417c4.2478 0 4.3684 0.0919 5.5747 4.25 5.1093 17.611 7.3627 23.988 8.0183 22.693 0.40148-0.79349 2.4593-7.1802 4.5729-14.193l3.8429-12.75h8.6494v36h-5v-14.667c0-8.0667-0.3375-14.337-0.75-13.934-0.4125 0.40287-2.5988 6.8904-4.8586 14.417-4.0021 13.33-4.1848 13.692-7.0506 13.983l-2.9421 0.29849-3.819-13.298c-2.1004-7.3142-4.2015-13.973-4.669-14.798-0.49695-0.877-0.8626 4.6262-0.88038 13.25l-0.0304 14.75h-5zm59 0v-18h9.953c5.4741 0 11.05 0.49962 12.39 1.1103 4.6107 2.1008 6.0609 8.9348 2.7608 13.01-1.8771 2.3181-1.872 2.3648 0.5 4.563 1.7803 1.6499 2.3965 3.2786 2.3965 6.3345 0 8.6182-3.975 10.982-18.468 10.982h-9.5321zm19.495 12.364c2.0624-0.79142 3.5448-4.496 2.8549-7.1344-0.72332-2.766-4.4934-4.2292-10.897-4.2292h-5.453v12h5.9182c3.255 0 6.6645-0.28637 7.5766-0.63638zm-0.71733-16.92c2.4179-1.6936 2.9318-5.334 1.0225-7.2433-0.67937-0.67937-3.9333-1.2-7.5-1.2h-6.3v10h5.2775c3.1581 0 6.17-0.62516 7.5-1.5567zm32.223 4.5567v-18h6v36h-6zm30 0v-18l3.25 5e-3c3.0895 4e-3 3.6437 0.6462 11.225 13 4.386 7.1475 8.3235 12.995 8.75 12.995 0.42647-4.3e-4 0.77539-5.8504 0.77539-13v-13h5v36.127l-3.2152-0.31336c-2.9329-0.28585-3.9008-1.4106-11.027-12.813-4.2963-6.875-8.2495-12.65-8.7848-12.833-0.59851-0.20497-0.97334 4.705-0.97334 12.75v13.083h-5zm53 0v-18h26v5h-20v10h9c8.3333 0 9 0.14815 9 2s-0.66667 2-9 2h-9v12h21v5h-27zm49 0v-18h9.0321c10.671 0 15.098 1.5214 17.917 6.1572 4.4115 7.2541 3.4853 20.136-1.8127 25.212-3.6468 3.4939-7.9144 4.631-17.38 4.631h-7.7566zm18.405 11.861c7.045-3.2099 7.5078-20.162 0.6506-23.832-1.0582-0.5663-4.4285-1.0296-7.4897-1.0296h-5.5657v26h4.9529c2.7242 0 6.0775-0.51235 7.4519-1.1386zm60.595 5.8765c0-0.14414 2.8856-8.1316 6.4125-17.75l6.4125-17.488 6.9471-0.60714 3.0356 8.3036c1.6696 4.567 4.6482 12.72 6.6191 18.117l3.5834 9.8137-3.1281-0.31374c-2.6952-0.27033-3.3566-0.93643-4.7795-4.8137l-1.6515-4.5-6.3129-0.29998c-3.472-0.16499-6.8757 0.16716-7.5637 0.73812-0.6879 0.57096-1.7917 2.8434-2.4528 5.05-1.0511 3.5082-1.5736 4.0119-4.1618 4.0119-1.628 0-2.9599-0.11793-2.9599-0.26207zm21.424-15.988c-0.3909-1.2375-1.7098-4.9119-2.9309-8.1652l-2.2202-5.9153-2.2828 6.9153c-1.2556 3.8034-2.4901 7.4778-2.7435 8.1652-0.3344 0.90726 1.0952 1.25 5.2137 1.25 5.4284 0 5.6436-0.0975 4.9637-2.25zm91.576 0.75v-15.5h-6c-5.7333 0-6-0.11111-6-2.5v-2.5h28v2.5c0 2.3636-0.3 2.5-5.5 2.5h-5.5v31h-5zm37-2.5v-18h6v14h18v-7c0-6.8 0.071-7 2.5-7h2.5v36h-2.4596c-2.3905 0-2.4677-0.23157-2.75-8.25l-0.2904-8.25-17.5-0.57787v17.078h-6zm109 0v-18h10.944c10.128 0 11.154 0.18012 13.75 2.4134 3.699 3.1817 4.0128 10.324 0.6034 13.733-1.9986 1.9986-2.0517 2.3125-0.5735 3.3934 1.1108 0.81224 1.7694 3.2215 2.0708 7.5754 0.243 3.5114 0.8937 6.9469 1.446 7.6344 0.7656 0.95323 0.1716 1.25-2.5018 1.25-3.9525 0-4.7017-1.3816-4.7254-8.7148-0.017-5.1836-1.6728-6.2852-9.448-6.2852h-5.5657v15h-6zm20.429-3.5714c0.8643-0.86428 1.5714-2.6321 1.5714-3.9286 0-4.0676-2.4927-5.5-9.5714-5.5h-6.4286v11h6.4286c4.5108 0 6.8973-0.46878 8-1.5714zm30.571 3.5714v-18h6v36h-6zm38 2.5v-15.5h-5.5c-5.2 0-5.5-0.13636-5.5-2.5v-2.5h28v2.5c0 2.3636-0.3 2.5-5.5 2.5h-5.5v31h-6zm47 8.3889c0-6.7879-0.2354-7.5038-5.1803-15.75-2.8492-4.7514-5.826-9.6514-6.615-10.889-1.3904-2.1805-1.3249-2.25 2.1215-2.25 3.4185 0 3.7287 0.315 8.0081 8.1322l4.4518 8.1322 4.093-7.3822c2.2511-4.0602 4.2237-7.7557 4.3836-8.2122 0.1598-0.45651 1.7038-0.68151 3.431-0.5l3.1404 0.33001-5.9171 10.496c-5.7143 10.136-5.917 10.744-5.917 17.75v7.2543h-6z"/><path d="m-175.84-733.93c-24.299-6.5013-38.158-33.893-31.479-62.222 5.9358-25.179 27.542-39.011 55.053-35.246 18.943 2.5928 31.642 14.775 34.1 32.71l0.59762 4.3601-27.772-0.0472-2.1446-4.8844c-2.6798-6.1032-6.0361-8.3492-13.227-8.852-4.6704-0.32654-6.2193 8e-3 -9.1041 1.9688-4.796 3.2591-7.6966 7.9214-9.0829 14.599-2.7185 13.095 1.2053 28.894 8.2418 33.186 9.9172 6.0488 20.646 2.0099 23.949-9.0159l1.1849-3.9549h28.911l-0.65489 4.75c-0.3602 2.6125-2.2213 7.9831-4.1359 11.935-5.1654 10.661-13.941 17.752-25.936 20.956-6.533 1.7451-21.546 1.6167-28.5-0.2438zm525.49-0.14187c-19.903-7.0956-30.799-23.827-30.772-47.255 0.018-16.51 4.3243-28.009 14.106-37.668 17.47-17.252 49.615-17.403 65.605-0.30894 4.9691 5.3123 9.3023 13.521 10.263 19.441l0.5737 3.5353h-14.131c-12.27 0-14.131-0.21007-14.131-1.5956 0-2.4235-3.8056-7.2525-7.0292-8.9195-3.9095-2.0217-10.612-1.8307-15.625 0.44518-2.9644 1.346-4.9668 3.2728-6.9922 6.728-2.5375 4.3289-2.8766 5.9618-3.2005 15.414-0.3159 9.2168-0.076 11.236 1.8685 15.757 4.5559 10.591 14.319 15.246 25.16 11.998 3.6405-1.0907 9.818-6.6668 9.818-8.8621 0-0.53086-2.925-0.9652-6.5-0.9652h-6.5v-20h39v52h-19v-4.5c0-5.1819-0.7075-5.5119-4.0757-1.901-1.3334 1.4294-4.6743 3.7689-7.4243 5.1987-4.2759 2.2232-6.5206 2.6464-15.5 2.9221-8.1691 0.25082-11.613-0.0744-15.513-1.4648zm139.28-0.59963c-21.17-7.2146-32.836-26.006-31.45-50.655 1.3904-24.728 14.612-40.716 37.702-45.592 13.364-2.8221 28.872 0.16963 39.194 7.5616 18.883 13.522 25.134 42.106 14.358 65.646-3.0592 6.6822-11.921 16.166-18.402 19.693-11.26 6.1283-29.026 7.5643-41.402 3.3465zm23.728-22.536c4.955-2.2754 6.8125-4.3273 9.6458-10.656 2.8921-6.4599 3.1388-19.496 0.5139-27.151-5.6675-16.527-25.737-18.038-33.362-2.5108-2.468 5.0259-2.7982 6.8192-2.7982 15.198 0 14.155 3.3611 21.215 11.959 25.12 5.1139 2.3229 8.9811 2.3226 14.041-1e-3zm-622.5-24.619v-47.5h29v95h-29zm62 12v-35.5h-27v-23.862l41.25-0.31918c22.688-0.17556 47.489-0.0942 55.114 0.18081l13.864 0.5 7.3899 16.421c4.0644 9.0315 7.6109 16.642 7.8811 16.912 0.27018 0.27018 4.1778-7.2317 8.6837-16.671l8.1925-17.162h31.665l-1.9418 3.75c-1.068 2.0625-8.7255 15.675-17.017 30.25l-15.075 26.5-4e-3 17.25-3e-3 17.25h-29v-35.161l-27.5-49.339-0.59138 13.5h-26.909v71h-29zm186-12.049v-47.549l33.75 0.29942c33.245 0.29494 33.817 0.33474 38.25 2.6594 5.8382 3.0619 9.6653 6.6748 12.33 11.64 3.0901 5.7586 3.0725 19.26-0.033 25.095-2.2288 4.1882-8.4861 10.405-10.472 10.405-0.6083 0 0.9197 1.783 3.3955 3.9623 6.1865 5.4456 8.4846 11.301 9.765 24.878 0.5767 6.1144 1.4798 12.252 2.007 13.638l0.9586 2.5213h-14.416c-7.929 0-14.676-0.42019-14.993-0.93376-0.3174-0.51358-1.2211-6.1255-2.0083-12.471-1.56-12.575-2.2033-14.404-6.1611-17.518-2.2879-1.7999-4.0261-2.0776-13.006-2.0776h-10.365v33h-29zm48.971-6.4002c7.7392-1.4931 10.936-7.4617 7.5275-14.053-1.9523-3.7754-6.3717-4.9842-18.248-4.9913l-9.25-6e-3v20l7.75-0.0435c4.2625-0.024 9.7619-0.43171 12.221-0.90612zm45.029 6.4497v-47.5h79v24h-50v12h45v21.962l-44.5 0.53826-0.5954 12.5h51.095v24h-80zm188 0v-47.5h30v95h-30zm142 0v-47.5h29.763l13.193 24.25c7.2562 13.338 13.61 24.678 14.119 25.2 0.5682 0.58314 0.9257-8.7814 0.9257-24.25v-25.2h27v95.055l-28.34-0.55491-14.58-25.94-14.58-25.94-0.5332 52.38h-26.967zm-260-84.578c-18.407-3.2568-33.302-18.426-37.058-37.738-2.4223-12.456 0.2516-30.116 5.933-39.184 9.0111-14.383 23.213-22 41.02-22 14.467 0 24.473 3.5229 33.206 11.691 10.65 9.9614 15.12 20.894 15.256 37.309 0.1067 12.859-2.3324 21.74-8.5122 30.994-9.9007 14.826-29.965 22.446-49.845 18.928zm17.329-24.286c3.5797-1.4957 8.3092-6.5738 9.8533-10.58 3.5672-9.2542 2.8782-23.748-1.4999-31.553-5.7405-10.234-18.196-12.259-27.134-4.4121-5.0888 4.468-7.0483 10.578-7.0483 21.979 0 8.6798 0.2814 10.121 3.0226 15.481 4.7575 9.3027 13.73 12.877 22.806 9.0844zm83.033 23.87c-9.3657-2.0368-16.65-6.0953-23.219-12.936-9.7364-10.139-13.233-19.513-13.313-35.69-0.054-10.917 1.6738-18.226 6.426-27.182 5.3749-10.131 17.108-18.929 28.856-21.637 6.2343-1.4372 20.499-1.2746 26.388 0.30081 16.585 4.4369 29.065 17.207 32.959 33.725 1.9515 8.2788 1.9561 21.9 0.01 29.372-6.6297 25.453-31.261 39.886-58.107 34.048zm19.677-24.526c4.6893-2.3923 8.3926-7.6561 10.027-14.252 1.7229-6.9525 0.7709-20.283-1.8017-25.228-8.3198-15.992-28.114-14.511-33.773 2.5261-2.4028 7.2342-1.7401 22.809 1.2116 28.474 5.0362 9.6652 15.123 13.18 24.336 8.4802zm-628.04-24.48v-47.5h29v71h42v24h-71zm79 0v-47.5h58.962l0.56741 2.25c4.7171 18.705 15.252 55.885 15.636 55.181 0.27885-0.51211 3.8433-13.641 7.921-29.175l7.414-28.244 14.75-6e-3c8.3772-3e-3 14.75 0.39387 14.75 0.9194 0 0.75557-22.079 72.14-27.635 89.348l-1.5413 4.7738-33.207-0.54756-28.116-94-0.51958 94.5h-28.98v-47.5zm121 0v-47.5h79v24h-50.095l0.29771 6.25 0.29772 6.25 44.5 0.53826v21.962h-45v12h51v24h-80zm89-0.0612v-47.561l33.25 0.31119c32.505 0.30422 33.368 0.36431 38.492 2.6808 5.7348 2.5925 11.661 8.4555 13.856 13.709 1.7254 4.1296 1.8253 15.26 0.1867 20.806-0.768 2.5991-3.0713 5.9661-6.25 9.1361l-5.0339 5.0201 3.9104 3.4799c5.6748 5.0501 7.5303 10.156 9.0942 25.024 0.7479 7.1104 1.6419 13.384 1.9867 13.942 0.4126 0.66771-4.3236 1.0142-13.865 1.0142-16.745 0-15.036 1.3189-16.619-12.826-1.1576-10.341-2.6259-14.687-5.9713-17.674-1.8882-1.6858-3.9522-2.0532-13.138-2.3385l-10.898-0.33847v33.177h-29zm52.452-6.8541c8.2145-3.4322 7.4343-14.911-1.1762-17.306-1.5265-0.42447-7.0504-0.77342-12.275-0.77544l-9.5-4e-3 -0.29313 8.4164c-0.16122 4.629-0.0629 9.0165 0.21861 9.75 0.72553 1.8907 18.456 1.8278 23.026-0.0817zm41.548 6.8494v-47.566l30.25 0.31598c29.092 0.30389 30.441 0.4039 35.25 2.6138 5.7919 2.6618 12.873 9.1642 15.467 14.202 6.6222 12.864 4.2735 29.89-5.4671 39.631-7.4014 7.4014-14.144 9.3693-32.105 9.3693h-13.395v29h-30zm51.452-4.8494c1.8631-0.77844 3.8736-2.3239 4.4679-3.4343 1.8723-3.4983 1.2816-8.8051-1.3162-11.825-2.3088-2.6841-2.8042-2.8003-13.5-3.1664l-11.103-0.38004v20.221h9.0321c5.5262 0 10.347-0.54938 12.42-1.4153zm241.55 4.9153v-47.5h29v71h42v24h-71z"/></g></svg>
