<?xml version="1.0" encoding="UTF-8"?>
<svg version="1.1" viewBox="0 0 250 91" xmlns="http://www.w3.org/2000/svg" xmlns:cc="http://creativecommons.org/ns#" xmlns:dc="http://purl.org/dc/elements/1.1/" xmlns:rdf="http://www.w3.org/1999/02/22-rdf-syntax-ns#">
<defs>
<style>.cls-1{fill:#fff;fill-rule:evenodd}</style>
</defs>
<metadata>
<rdf:RDF>
<cc:Work rdf:about="">
<dc:format>image/svg+xml</dc:format>
<dc:type rdf:resource="http://purl.org/dc/dcmitype/StillImage"/>
<dc:title/>
</cc:Work>
</rdf:RDF>
</metadata>
<g transform="translate(0,-961.4)">
<path class="cls-1" d="m216.91 1007.2v7.362h-1.596v-7.362l-5.244-8.03h1.71l4.332 6.692 4.173-6.692h1.71zm-5.684 7.362h-8.619v-15.393h1.596v13.962h7.023zm-11.401-4.315c0 1.454-0.479 2.607-1.413 3.345-0.503 0.416-1.095 0.669-1.733 0.808-0.548 0.093-1.163 0.162-1.802 0.162h-4.743v-15.392h2.691c2.576 0 3.489 0.207 4.515 1.015 0.797 0.599 1.209 1.569 1.209 2.723 0 1.592-0.685 2.7-2.007 3.184 0.729 0.162 1.026 0.254 1.459 0.508 1.209 0.669 1.824 1.939 1.824 3.647zm-2.918-7.247c0-1.684-1.004-2.4-3.376-2.4h-1.801v5.053h1.597c1.322 0 1.505-0.021 2.074-0.23 0.959-0.323 1.506-1.2 1.506-2.423zm-0.433 4.407c-0.685-0.253-1.255-0.322-2.737-0.322h-2.007v6.046h3.102c1.048-0.023 1.664-0.138 2.211-0.461 0.73-0.439 1.163-1.316 1.163-2.377 0-0.947-0.342-1.847-0.935-2.401a2.225 2.225 0 0 0-0.797-0.485zm-11.584-6.068-5.472 7.477-5.495-7.455v13.201h-1.619v-15.393h1.915l5.199 7.085 5.176-7.085h1.916v15.393h-1.62zm-24.26-2.169h8.847v1.43h-7.229v4.823h6.134v1.431h-6.134v6.278h7.479v1.43h-9.097zm-6.704 6.322c0.752 0.37 1.346 0.739 1.824 1.086 1.048 0.785 1.688 2.122 1.688 3.646 0 2.63-1.938 4.615-4.515 4.615-2.098 0-3.58-1.016-4.56-3.092l1.253-0.808c0.251 0.554 0.388 0.785 0.639 1.084 0.661 0.831 1.573 1.293 2.6 1.293 1.663 0 2.872-1.293 2.872-3.047 0-0.438-0.068-0.876-0.25-1.245-0.366-0.808-0.959-1.339-2.394-2.123-2.28-1.247-2.554-1.409-3.148-1.939-0.706-0.623-1.116-1.57-1.116-2.631 0-2.053 1.618-3.462 3.945-3.462 1.572 0 2.667 0.646 3.488 1.985l-1.231 0.808c-0.594-0.946-1.277-1.362-2.257-1.362-1.323 0-2.258 0.855-2.258 2.031 0 0.508 0.181 1.016 0.524 1.362 0.547 0.531 1.117 0.9 2.896 1.799zm-11.332 0c0.752 0.37 1.345 0.739 1.824 1.086 1.049 0.785 1.687 2.122 1.687 3.646 0 2.63-1.937 4.615-4.515 4.615-2.098 0-3.579-1.016-4.56-3.092l1.254-0.808c0.251 0.554 0.388 0.785 0.638 1.084 0.662 0.831 1.574 1.293 2.6 1.293 1.664 0 2.874-1.293 2.874-3.047 0-0.438-0.069-0.876-0.251-1.245-0.366-0.808-0.959-1.339-2.395-2.123-2.28-1.247-2.554-1.409-3.146-1.939-0.707-0.623-1.117-1.57-1.117-2.631 0-2.053 1.618-3.462 3.943-3.462 1.574 0 2.668 0.646 3.49 1.985l-1.232 0.808c-0.593-0.946-1.276-1.362-2.258-1.362-1.321 0-2.257 0.855-2.257 2.031 0 0.508 0.183 1.016 0.525 1.362 0.548 0.531 1.117 0.9 2.896 1.799zm-10.146 5.169h-7.206l-1.527 3.901h-1.711l6.021-15.393h1.481l6.225 15.393h-1.71zm-3.671-9.345-2.965 7.846h6.043zm-19.312 3.888v9.222h-3.551v-15.264h3.212l7.077 9.337v-9.337h3.549v15.264h-3.211zm-13.748 9.542c-4.568 0-8.074-3.477-8.074-7.987 0-4.462 3.484-7.895 8.006-7.895 4.544 0 8.072 3.479 8.072 7.965 0 4.484-3.46 7.917-8.004 7.917zm-0.046-12.655c-2.554 0-4.544 2.037-4.544 4.645 0 2.655 2.057 4.783 4.59 4.783 2.509 0 4.499-2.081 4.499-4.736 0-2.678-1.945-4.692-4.545-4.692zm-15.24 12.061c-1.062 0.252-1.945 0.297-4.681 0.297-1.017 0-2.035 0-3.074-0.023v-15.264h4.499c2.94 0 4.319 0.366 5.879 1.511 1.831 1.372 2.917 3.592 2.917 6.064 0 2.173-0.814 4.188-2.239 5.583-0.949 0.938-2.08 1.579-3.301 1.832zm0.747-10.802c-0.974-0.893-2.127-1.236-4.229-1.236-0.158 0-0.384 0-0.725 0.023v9.268h0.996c1.085 0 1.424-0.022 2.035-0.16 2.036-0.457 3.279-2.15 3.279-4.486 0-1.441-0.475-2.608-1.356-3.409zm-21.731 1.854v9.222h-3.55v-15.264h3.212l7.077 9.337v-9.337h3.551v15.264h-3.212zm-13.747 9.542c-4.567 0-8.072-3.477-8.072-7.987 0-4.462 3.482-7.895 8.004-7.895 4.546 0 8.072 3.479 8.072 7.965 0 4.484-3.459 7.917-8.004 7.917zm-0.045-12.655c-2.555 0-4.545 2.037-4.545 4.645 0 2.655 2.058 4.783 4.59 4.783 2.51 0 4.5-2.081 4.5-4.736 0-2.678-1.944-4.692-4.545-4.692zm-17.659-2.93h3.55v12.038h5.789v3.228h-9.339z" fill="#fff"/>
</g>
</svg>
