<?xml version="1.0" encoding="UTF-8" standalone="no"?>
<svg
   xmlns:dc="http://purl.org/dc/elements/1.1/"
   xmlns:cc="http://creativecommons.org/ns#"
   xmlns:rdf="http://www.w3.org/1999/02/22-rdf-syntax-ns#"
   xmlns:svg="http://www.w3.org/2000/svg"
   xmlns="http://www.w3.org/2000/svg"
   xmlns:sodipodi="http://sodipodi.sourceforge.net/DTD/sodipodi-0.dtd"
   xmlns:inkscape="http://www.inkscape.org/namespaces/inkscape"
   sodipodi:docname="london-assembly.svg"
   inkscape:version="1.0 (4035a4fb49, 2020-05-01)"
   version="1.1"
   id="svg2"
   viewBox="0 0 250 91"
   height="91"
   width="250">
  <defs
     id="defs4">
    <style
       id="style1418">.cls-1{fill:#fff;fill-rule:evenodd}</style>
  </defs>
  <sodipodi:namedview
     inkscape:document-rotation="0"
     units="px"
     inkscape:window-maximized="1"
     inkscape:window-y="-11"
     inkscape:window-x="-11"
     inkscape:window-height="986"
     inkscape:window-width="1920"
     showgrid="false"
     inkscape:current-layer="layer1"
     inkscape:document-units="px"
     inkscape:cy="27.908"
     inkscape:cx="183.26"
     inkscape:zoom="1.9799"
     inkscape:pageshadow="2"
     inkscape:pageopacity="0.0"
     borderopacity="1.0"
     bordercolor="#666666"
     pagecolor="#ffffff"
     id="base" />
  <metadata
     id="metadata7">
    <rdf:RDF>
      <cc:Work
         rdf:about="">
        <dc:format>image/svg+xml</dc:format>
        <dc:type
           rdf:resource="http://purl.org/dc/dcmitype/StillImage" />
        <dc:title></dc:title>
      </cc:Work>
    </rdf:RDF>
  </metadata>
  <g
     transform="translate(0,-961.4)"
     id="layer1"
     inkscape:groupmode="layer"
     inkscape:label="Layer 1">
    <rect
       y="961.4"
       x="0"
       height="91"
       width="250"
       id="rect4175"
       style="opacity:0.001;fill:none;fill-opacity:1;stroke:none;stroke-width:2.5;stroke-linecap:round;stroke-linejoin:round;stroke-miterlimit:4;stroke-dasharray:none;stroke-dashoffset:0;stroke-opacity:1" />
    <path
       style="fill:#ffffff"
       d="m 216.9145,1007.2485 v 7.362 h -1.596 v -7.362 l -5.244,-8.02998 h 1.71 l 4.332,6.69198 4.173,-6.69198 h 1.71 z m -5.684,7.362 h -8.619 v -15.39298 h 1.596 v 13.96198 h 7.023 z m -11.401,-4.315 c 0,1.454 -0.479,2.607 -1.413,3.345 -0.503,0.416 -1.095,0.669 -1.733,0.808 -0.548,0.093 -1.163,0.162 -1.802,0.162 h -4.743 v -15.39198 h 2.691 c 2.576,0 3.489,0.207 4.515,1.01498 0.797,0.599 1.209,1.569 1.209,2.723 0,1.592 -0.685,2.7 -2.007,3.184 0.729,0.162 1.026,0.254 1.459,0.508 1.209,0.669 1.824,1.939 1.824,3.647 z m -2.918,-7.247 c 0,-1.684 -1.004,-2.4 -3.376,-2.4 h -1.801 v 5.053 h 1.597 c 1.322,0 1.505,-0.021 2.074,-0.23 0.959,-0.323 1.506,-1.2 1.506,-2.423 z m -0.433,4.407 c -0.685,-0.253 -1.255,-0.322 -2.737,-0.322 h -2.007 v 6.046 h 3.102 c 1.048,-0.023 1.664,-0.138 2.211,-0.461 0.73,-0.439 1.163,-1.316 1.163,-2.377 0,-0.947 -0.342,-1.847 -0.935,-2.401 a 2.225,2.225 0 0 0 -0.797,-0.485 z m -11.584,-6.068 -5.472,7.477 -5.495,-7.455 v 13.201 h -1.619 v -15.39298 h 1.915 l 5.199,7.08498 5.176,-7.08498 h 1.916 v 15.39298 h -1.62 z m -24.26,-2.16898 h 8.847 v 1.42998 h -7.229 v 4.823 h 6.134 v 1.431 h -6.134 v 6.278 h 7.479 v 1.43 h -9.097 z m -6.704,6.32198 c 0.752,0.37 1.346,0.739 1.824,1.086 1.048,0.785 1.688,2.122 1.688,3.646 0,2.63 -1.938,4.615 -4.515,4.615 -2.098,0 -3.58,-1.016 -4.56,-3.092 l 1.253,-0.808 c 0.251,0.554 0.388,0.785 0.639,1.084 0.661,0.831 1.573,1.293 2.6,1.293 1.663,0 2.872,-1.293 2.872,-3.047 0,-0.438 -0.068,-0.876 -0.25,-1.245 -0.366,-0.808 -0.959,-1.339 -2.394,-2.123 -2.28,-1.247 -2.554,-1.409 -3.148,-1.939 -0.706,-0.623 -1.116,-1.57 -1.116,-2.631 0,-2.053 1.618,-3.46198 3.945,-3.46198 1.572,0 2.667,0.646 3.488,1.98498 l -1.231,0.808 c -0.594,-0.946 -1.277,-1.362 -2.257,-1.362 -1.323,0 -2.258,0.855 -2.258,2.031 0,0.508 0.181,1.016 0.524,1.362 0.547,0.531 1.117,0.9 2.896,1.799 z m -11.332,0 c 0.752,0.37 1.345,0.739 1.824,1.086 1.049,0.785 1.687,2.122 1.687,3.646 0,2.63 -1.937,4.615 -4.515,4.615 -2.098,0 -3.579,-1.016 -4.56,-3.092 l 1.254,-0.808 c 0.251,0.554 0.388,0.785 0.638,1.084 0.662,0.831 1.574,1.293 2.6,1.293 1.664,0 2.874,-1.293 2.874,-3.047 0,-0.438 -0.069,-0.876 -0.251,-1.245 -0.366,-0.808 -0.959,-1.339 -2.395,-2.123 -2.28,-1.247 -2.554,-1.409 -3.146,-1.939 -0.707,-0.623 -1.117,-1.57 -1.117,-2.631 0,-2.053 1.618,-3.46198 3.943,-3.46198 1.574,0 2.668,0.646 3.49,1.98498 l -1.232,0.808 c -0.593,-0.946 -1.276,-1.362 -2.258,-1.362 -1.321,0 -2.257,0.855 -2.257,2.031 0,0.508 0.183,1.016 0.525,1.362 0.548,0.531 1.117,0.9 2.896,1.799 z m -10.146,5.169 h -7.206 l -1.527,3.901 h -1.711 l 6.021,-15.39298 h 1.481 l 6.225,15.39298 h -1.71 z m -3.671,-9.345 -2.965,7.846 h 6.043 z m -19.312,3.888 v 9.222 h -3.551 v -15.26398 h 3.212 l 7.077,9.33698 v -9.33698 h 3.549 v 15.26398 h -3.211 z m -13.748,9.542 c -4.568001,0 -8.074001,-3.477 -8.074001,-7.987 0,-4.462 3.484,-7.89498 8.006001,-7.89498 4.544,0 8.072,3.47898 8.072,7.96498 0,4.484 -3.46,7.917 -8.004,7.917 z m -0.046,-12.655 c -2.554001,0 -4.544001,2.037 -4.544001,4.645 0,2.655 2.057,4.783 4.590001,4.783 2.509,0 4.499,-2.081 4.499,-4.736 0,-2.678 -1.945,-4.692 -4.545,-4.692 z m -15.240001,12.061 c -1.062,0.252 -1.945,0.297 -4.681,0.297 -1.017,0 -2.035,0 -3.074,-0.023 v -15.26398 h 4.499 c 2.94,0 4.319,0.366 5.879,1.51098 1.831,1.372 2.917,3.592 2.917,6.064 0,2.173 -0.813999,4.188 -2.239,5.583 -0.949,0.938 -2.08,1.579 -3.301,1.832 z m 0.747,-10.802 c -0.974,-0.893 -2.127,-1.236 -4.229,-1.236 -0.158,0 -0.384,0 -0.725,0.023 v 9.268 h 0.996 c 1.085,0 1.424,-0.022 2.035,-0.16 2.036,-0.457 3.279,-2.15 3.279,-4.486 0,-1.441 -0.475,-2.608 -1.356,-3.409 z m -21.731,1.854 v 9.222 h -3.55 v -15.26398 h 3.212 l 7.077,9.33698 v -9.33698 h 3.551 v 15.26398 h -3.212 z m -13.747,9.542 c -4.567,0 -8.072,-3.477 -8.072,-7.987 0,-4.462 3.482,-7.89498 8.004,-7.89498 4.546,0 8.072,3.47898 8.072,7.96498 0,4.484 -3.459,7.917 -8.004,7.917 z m -0.045,-12.655 c -2.555,0 -4.545,2.037 -4.545,4.645 0,2.655 2.058,4.783 4.59,4.783 2.51,0 4.5,-2.081 4.5,-4.736 0,-2.678 -1.944,-4.692 -4.545,-4.692 z m -17.659,-2.92998 h 3.55 v 12.03798 h 5.789 v 3.228 h -9.339 z"
       class="cls-1"
       id="path1422" />
  </g>
</svg>
