<?xml version="1.0" encoding="UTF-8"?>
<svg version="1.1" viewBox="0 0 250 91" xml:space="preserve" xmlns="http://www.w3.org/2000/svg" xmlns:cc="http://creativecommons.org/ns#" xmlns:dc="http://purl.org/dc/elements/1.1/" xmlns:rdf="http://www.w3.org/1999/02/22-rdf-syntax-ns#"><defs><style>.cls-1{fill:#fff}.cls-2{clip-path:url(#a)}.cls-3{fill:none}</style><clipPath id="a"><rect class="cls-3" x="75.11" y="25.54" width="599.77" height="198.91"/></clipPath></defs><g transform="matrix(.41805 0 0 .41805 9.0394 4.9736)" fill="#fff"><path d="m488.76 86.66v-27h-18.54a50.7 50.7 0 0 0-50.69 50.7v51.75h27.19v-51.75a23.54 23.54 0 0 1 23.54-23.54z" data-color="1"/><path d="m153.68 156.07a49.38 49.38 0 0 1-19.74-18.43 50.75 50.75 0 0 1-7.1-26.75 50.79 50.79 0 0 1 7.1-26.76 49.45 49.45 0 0 1 19.74-18.43 60.45 60.45 0 0 1 28.53-6.64 59.91 59.91 0 0 1 28.44 6.64 49.66 49.66 0 0 1 19.65 18.43 50.89 50.89 0 0 1 7.11 26.76 50.85 50.85 0 0 1-7.11 26.75 49.59 49.59 0 0 1-19.65 18.43 59.8 59.8 0 0 1-28.44 6.64 60.33 60.33 0 0 1-28.53-6.64zm47-24.88q7.2-7.57 7.2-20.3t-7.2-20.3q-7.24-7.59-18.47-7.59t-18.52 7.58q-7.29 7.57-7.29 20.3t7.29 20.3q7.31 7.58 18.52 7.57t18.43-7.56z" data-color="1"/><path d="m120.51 135.72v27h-18.51a50.7 50.7 0 0 1-50.72-50.72v-80.84h27.19v80.86a23.54 23.54 0 0 0 23.53 23.54z" data-color="1"/><path d="m408.35 87.24v28.89q0 22.26-12.16 34.42t-34.61 12.16a50.69 50.69 0 0 1-19.17-3.37 32.25 32.25 0 0 1-13.94-10.85 32.47 32.47 0 0 1-13.85 10.85 51.1 51.1 0 0 1-19.45 3.37q-22.65 0-34.62-12.16t-12-34.42v-53.13l29.19 4.85v46q0 12.54 4.3 18.43t13.47 5.89q9.34 0 13.84-6t4.49-18.34v-41.14l29.19 4.85v36.34q0 12.35 4.49 18.34t13.84 6q9.17 0 13.48-5.89t4.3-18.43v-31.51z" data-color="1"/><path d="m503.41 147.46c0 8.091-6.559 14.65-14.65 14.65s-14.65-6.559-14.65-14.65 6.559-14.65 14.65-14.65 14.65 6.559 14.65 14.65z" fill-opacity=".75" data-color="2"/></g></svg>
