<?xml version="1.0" encoding="UTF-8"?>
<svg version="1.1" viewBox="0 0 250 91" xmlns="http://www.w3.org/2000/svg" xmlns:cc="http://creativecommons.org/ns#" xmlns:dc="http://purl.org/dc/elements/1.1/" xmlns:rdf="http://www.w3.org/1999/02/22-rdf-syntax-ns#">
<metadata>
<rdf:RDF>
<cc:Work rdf:about="">
<dc:format>image/svg+xml</dc:format>
<dc:type rdf:resource="http://purl.org/dc/dcmitype/StillImage"/>
<dc:title/>
</cc:Work>
</rdf:RDF>
</metadata>
<g transform="translate(0,-961.4)" fill="#fff">
<g transform="matrix(.28894 0 0 .28894 22.969 905.44)">
<path d="m73.198 414.33-4e-3 -8e-3c0.43-0.711 0.161-1.841-0.169-2.946-0.426-1.447-0.985-2.287-1.656-2.54 0.366-0.832 0.25-1.479 0.25-1.479s-0.796 0.189-1.291 0.688c-0.551-0.599-1.7-0.688-2.854-0.728-1.483-0.04-2.464 0.221-2.922 0.768-0.43-0.522-1.318-0.688-1.318-0.688s-0.133 0.849 0.253 1.459c-0.755 0.33-1.206 1.387-1.592 2.469-0.506 1.41-0.55 2.428-0.161 3.026-0.687 0.297-1.053 1.009-1.053 1.009s0.615 0.346 1.439 0.192c0.052 0.824 0.944 1.588 1.881 2.3 1.206 0.94 2.167 1.29 2.866 1.093 8e-3 8e-3 0.016 8e-3 0.024 0.017-4e-3 -9e-3 -8e-3 -9e-3 -8e-3 -9e-3 0 0.486 0.599 1.286 0.599 1.286s0.495-0.559 0.611-1.286c0.812 0.209 1.816-0.401 2.789-1.069 0.515-0.354 2.15-1.651 1.913-2.375 0.615 0.133 1.455-0.205 1.455-0.205s-0.474-0.729-1.052-0.974zm-9.627-2.327c0.346-0.973 0.688-1.664 1.049-1.672 0.365-8e-3 0.667 0.281 1.101 1.254 0.157 0.35 0.546 0.619 0.997 0.768-0.281 0.229-0.466 0.555-0.466 0.94 0 0.093 8e-3 0.186 0.028 0.27-0.55-0.093-1.033-0.125-1.354 0.053-0.928 0.542-1.198 0.559-1.487 0.354-0.282-0.227-0.214-0.998 0.132-1.967zm3.4 3.682c0.229 1.033 0.229 1.395-0.077 1.612-0.297 0.213-1.017-0.085-1.836-0.724-0.82-0.631-1.367-1.162-1.258-1.512 0.104-0.354 0.378-0.522 1.443-0.643 0.361-0.04 0.747-0.374 1.097-0.704 0.053 0.161 0.149 0.306 0.27 0.438 0.209 0.201 0.482 0.33 0.776 0.346-0.314 0.448-0.483 0.833-0.415 1.187zm0.499-3.606c-0.225 0-0.442 0.072-0.635 0.201 0-0.47-0.04-0.848-0.31-1.117-0.8-0.703-1.081-1.17-0.96-1.507 0.121-0.338 0.88-0.499 1.905-0.475 1.037 0.032 1.805 0.137 1.913 0.475 0.121 0.337-0.108 0.804-0.913 1.507-0.269 0.266-0.354 0.644-0.354 1.109-0.192-0.128-0.409-0.193-0.646-0.193zm2.415 4.495c-0.856 0.579-1.536 0.937-1.833 0.724-0.297-0.218-0.382-0.579-0.153-1.612 0.073-0.354-0.088-0.715-0.341-1.186 0.285-0.016 0.567-0.145 0.771-0.346 0.129-0.133 0.221-0.277 0.273-0.438 0.286 0.41 0.579 0.632 0.94 0.672 1.069 0.112 1.491 0.321 1.6 0.675 0.11 0.345-0.404 0.916-1.257 1.511zm1.616-2.609c-0.293 0.205-0.917 0.173-1.849-0.374-0.322-0.177-0.627-0.201-0.997-0.032 0.012-0.084 0.032-0.177 0.032-0.27 0-0.317-0.125-0.631-0.354-0.855-0.032-0.024-0.068-0.053-0.101-0.085 0.542-0.185 0.844-0.41 1.005-0.752 0.434-0.984 0.723-1.277 1.089-1.27 0.362 8e-3 0.764 0.679 1.057 1.672 0.287 0.99 0.416 1.744 0.118 1.966z"/>
<path d="m116.08 414.34c0.394-0.604 0.346-1.62-0.157-3.026-0.386-1.082-0.832-2.139-1.592-2.469 0.382-0.606 0.253-1.459 0.253-1.459s-0.88 0.165-1.318 0.688c-0.458-0.547-1.431-0.804-2.922-0.768-1.149 0.04-2.303 0.129-2.85 0.728-0.499-0.498-1.294-0.688-1.294-0.688s-0.117 0.647 0.249 1.479c-0.671 0.253-1.23 1.097-1.656 2.536-0.333 1.109-0.603 2.238-0.173 2.95 0 8e-3 -4e-3 8e-3 -4e-3 8e-3 -0.579 0.249-1.041 0.965-1.041 0.965s0.84 0.338 1.455 0.205c-0.237 0.724 1.407 2.021 1.921 2.375 0.968 0.667 1.978 1.278 2.785 1.069 0.113 0.731 0.599 1.286 0.599 1.286s0.607-0.796 0.607-1.286c0 0-4e-3 0-8e-3 8e-3 8e-3 -8e-3 0.016-8e-3 0.024-0.016 0.699 0.2 1.656-0.153 2.866-1.094 0.932-0.711 1.821-1.471 1.885-2.299 0.815 0.152 1.435-0.192 1.435-0.192s-0.381-0.703-1.064-1zm-9.651-2.344c0.285-0.993 0.687-1.664 1.049-1.672 0.374-8e-3 0.659 0.281 1.097 1.271 0.161 0.341 0.458 0.566 1.001 0.751-0.036 0.032-0.08 0.061-0.108 0.085-0.221 0.225-0.358 0.538-0.358 0.855 0 0.093 0.012 0.186 0.032 0.27-0.362-0.169-0.671-0.145-1.001 0.032-0.92 0.547-1.547 0.579-1.841 0.374-0.289-0.226-0.164-0.98 0.129-1.966zm3.477 3.682c0.229 1.033 0.149 1.395-0.153 1.612-0.297 0.213-0.977-0.145-1.833-0.724-0.852-0.595-1.366-1.162-1.258-1.512 0.104-0.354 0.531-0.562 1.6-0.675 0.362-0.04 0.659-0.262 0.929-0.672 0.064 0.161 0.161 0.306 0.277 0.438 0.213 0.201 0.49 0.33 0.788 0.346-0.262 0.472-0.418 0.833-0.35 1.187zm-0.205-3.412c0-0.462-0.088-0.84-0.366-1.109-0.792-0.703-1.029-1.17-0.912-1.512 0.116-0.333 0.876-0.438 1.913-0.47 1.029-0.024 1.789 0.137 1.905 0.47 0.112 0.342-0.161 0.809-0.957 1.512-0.273 0.266-0.317 0.644-0.317 1.117-0.181-0.129-0.398-0.201-0.631-0.201-0.229-1e-3 -0.45 0.064-0.635 0.193zm3.042 4.301c-0.815 0.635-1.539 0.937-1.829 0.724-0.301-0.218-0.301-0.579-0.081-1.612 0.073-0.354-0.104-0.739-0.418-1.186 0.286-0.016 0.567-0.145 0.772-0.346 0.137-0.133 0.221-0.277 0.281-0.438 0.346 0.33 0.728 0.664 1.089 0.704 1.069 0.12 1.334 0.289 1.447 0.643 0.106 0.345-0.436 0.875-1.261 1.511zm1.624-2.609c-0.293 0.205-0.555 0.188-1.491-0.354-0.321-0.178-0.8-0.146-1.358-0.053 0.02-0.084 0.036-0.177 0.036-0.27 0-0.386-0.185-0.711-0.458-0.94 0.442-0.145 0.836-0.418 0.997-0.768 0.43-0.969 0.731-1.262 1.089-1.254 0.366 0.012 0.711 0.695 1.057 1.672 0.341 0.974 0.413 1.745 0.128 1.967z"/>
<path d="m113.57 397.41-0.29-0.137-0.446 0.893 0.338 0.156c0.41 0.205 0.655 0.241 0.828-0.101 0.168-0.345 0.012-0.582-0.43-0.811z"/>
<polygon points="108.58 395.17 107.53 396.57 108.42 396.9"/>
<path d="m118.84 400.24c-0.816-0.45-1.427-0.104-1.833 0.591-0.398 0.691-0.418 1.427 0.366 1.869 0.84 0.486 1.451 0.112 1.857-0.587 0.406-0.714 0.378-1.434-0.39-1.873z"/>
<path d="m112.92 399-0.406-0.201-0.479 0.933 0.486 0.232c0.499 0.25 0.812 0.241 0.973-0.072 0.178-0.35-0.035-0.619-0.574-0.892z"/>
<path d="m167.63 336.41c-1.495 2.235-4.12 3.067-5.246 2.541 1.5-1.483 1.174-2.613 0.382-3.392-2.355 4.429-10.165 0.293-11.326 6.961-8.634 5.511-0.394 15.853 0.659 16.909-1.672 0.374-5.032-0.908-4.968-3.87-2.87 1.929-0.933 5.089 0.193 5.575-0.394 1.072-0.185 3.982 4.116 4.955-3.215 0.849-2.689 5.178 0.084 6.174-1.166-1.896 0.768-3.629 2.375-2.717 1.905 1.081 2.082 4.574-0.667 5.402-2.645 0.783-4.687-1.508-5.748-3.959-1.391-3.22-1.29-6.926-5.691-11.303-3.577-3.577-3.428-10.181-0.804-13.244 1.435 0.864 2.85 0.896 4.879 0.615-2.645-1.636-3.208-4.69-2.311-7.52 0.49 0.217 1.109 0.82 2.616 0.82-1.539-1.531 0.599-5.953-1.423-9.312 1.15 0.132 2.211 0.188 2.991-0.599-1.266-0.37-2.833-1.813-2.833-1.813s2.162-0.739 1.611-1.985c-1.985 0.205-2.15-0.454-2.15-0.454s1.712-1.552 1.712-2.77c0-0.764-2.07-0.836-3.561-0.39 0.659-0.917 2.548-3.525 4.225-5.889-1.029-0.651-1.6-0.956-2.332-1.374l-0.832 1.415-1.829-0.924 0.688-1.483c-0.708-0.342-1.765-0.816-2.548-1.077l-0.535 1.52s-1.338-0.471-2.568-0.684c0.052-0.217 0.342-1.583 0.342-1.583-0.868-0.169-1.772-0.322-2.746-0.41l-0.172 1.636s-1.154-0.101-2.042-0.165c0-0.177 0.024-1.62 0.024-1.62-0.856-0.032-1.752-0.048-2.717-0.048 0 1.041 0.499 7.335 0.499 7.335s-2.416-2.568-3.014-1.974c-1.077 1.085-0.354 3.473-0.354 3.473s-1.407 0.7-3.698-0.394c-0.205 1.495 0.772 2.335 0.772 2.335s-2.786 1.101-3.4 3.831c0.953-0.547 2.459-0.39 2.966-0.229-2.544 1.552-2.834 6.451-6.286 8.626 0.361 0.808 1.242 1.378 2.677 0.482-1.149 1.411-1.817 4.964-1.817 4.964h-1.202c-3.983-2.608-5.627-1.571-9.072-3.464-1.045 0-2.383 0.341-3.517 0.715-0.217-0.016-0.43-0.028-0.643-0.044-0.337-1.234-1.411-4.252-3.702-4.453-0.607-0.426-1.351-1.214-1.644-2.729-0.269-1.387 1.182-4.819 1.994-8.682 0.021-0.04 0.028-0.096 0.036-0.177-2.383 4.2-4.956 8.863-1.989 11.817-1.463 0.949-2.557 2.725-2.557 2.725 2.995-2.617 4.486-1.632 5.221-0.896 0.599 0.595 0.941 1.668 1.125 2.295-0.486-0.032-4.47-0.237-7.48-0.257-0.41 0.406-0.824 0.784-1.234 1.149 7.002-0.084 17.83 1.166 17.83 1.166s-0.088 16.64-0.092 16.901c-0.148 0.559-1.077 0.82-1.077 0.82s-0.016-15.551 0.02-16.66c-6.837-0.856-14.289-1.029-17.995-1.129-1.495 1.158-3.002 2.046-4.429 2.584-4.337 1.636-8.015 0.45-8.791-2.347v-0.016c-3.01 0.185-6.849 0.502-10.643 0.892v14.241l-1.194-1.938v-13.356c5.097-0.619 10-0.896 11.713-0.98-0.017-0.551 0.036-1.045 0.197-1.419 0.305-0.715 0.836-1.25 1.511-1.041 0.707 0 1.274-0.137 1.905-0.611 0 0.434-2.428 4.759 6.326 3.087-4.361 2.44-6.688 1.427-7.403 0.286-0.161-0.25-0.253-0.422-0.382-0.458-0.43-0.104-0.688 0.892 0.145 1.885 1.539 1.837 5.209 1.206 7.709-0.113 2.552-1.266 5.257-3.778 5.639-4.16-1.081-0.036-2.195-0.104-3.002-0.563-0.876 0.43-4.108 2.146-6.592 0.824 3.469-0.116 5.33-1.081 6.017-1.459-0.683-3.026-1.138-8.275-1.138-10.076-3.38-0.141-5.281-1.495-5.876-2.243 2.11 0.132 6.72-0.72 8.167-1.174 1.443-0.458 2.392-0.924 1.885-3.858 0.354-0.032 0.731-0.02 1.001-0.109-0.378-0.237-0.973-0.715-1.234-0.973-0.478 0.048-1.342 0.129-1.841 0.121 0.313 0.579 1.25 2.528 0.077 3.693-0.82 0.816-13.344 2.456-15.796 1.367-0.679-0.402 1.567-1.378 2.817-1.62-0.193 1.021 1.833 0.748 3.698 0.526 0.752-3.188 2.48-5.856 3.461-6.97 0.824 0.021 1.539-0.012 2.291-0.329 0.703 0.426 2.612 0.494 3.509-0.024 0.442 0.342 1.346 0.342 1.64 0.342 0.688-0.016 0.944-0.113 1.178-0.342 0.848 0.494 1.736 0.342 2.122 0.285 0.889 0.611 1.367 1.966 4.088 2.878 2.568 0.74 5.233 1.062 6.455 0.185 2.753-1.969 2.11-7.163-0.784-10.338 4.791 3.545 3.839 10.157 2.054 11.938 0.35 0.153 0.671 0.35 0.957 0.567h0.048c5.51-2.106 5.535-6.897 6.901-7.79-2.299-0.751-3.746-0.261-3.746-0.261s-0.213-1.857-0.804-3.629c3.562 2.058 7.979 4.859 11.817 5-4e-3 -4e-3 -0.016-8e-3 -0.02-8e-3 5.036 0.113 9.466-6.583 0.317-12.781 8.139 4.292 6.885 9.229 5.205 11.499 2.737-1.684 3.831-4.783 3.356-8.083-0.667-4.711-5.531-9.337-1.885-12.404-4.192-0.35-6.536 0.78-7.123 4.289-2.861-0.494-6.342-2.021-6.495-2.705-0.551-1.447 0.495-3.288 2.09-4.027-1.443-0.506-3.891 0.157-5.253 2.026-3.738 5.108 5.108 12.323 5.108 12.323s-0.016 0.016-0.052 0.048c-2.942 0-6.082-4.172-8.477-4.852-2.19-0.627-3.356 0.382-3.553 1.082-0.82 2.978-1.491 4.276-3.251 7.633-1.431 2.753 1.692 4.939 2.48 7.198 0.454 1.278 0.667 2.946-1.978 2.946-0.94 0-2.954-0.245-4.506-1.089-1.081-0.583-1.539-1.423-1.978-1.925 1.548-0.587 1.672-2.062 0.953-2.777 2.432-2.428 3.939-5.768 3.939-9.458 0-7.391-6.045-13.4-13.489-13.4-7.432 0-13.477 6.009-13.477 13.4 0 3.678 1.495 7.014 3.911 9.425-1.278 1.278 0.101 3.216 2.597 3.015-0.097 0.112-0.193 0.229-0.294 0.346-2.082 1.093-6.193 2.464-7.805 2.464-2.641 0-2.428-1.668-1.982-2.946 0.792-2.259 3.919-4.445 2.48-7.198-1.753-3.356-2.428-4.655-3.256-7.633-0.193-0.695-1.358-1.708-3.549-1.082-2.396 0.684-5.531 4.852-8.489 4.852-0.02-0.032-0.036-0.048-0.036-0.048s8.843-7.215 5.113-12.323c-1.371-1.869-3.818-2.532-5.261-2.026 1.596 0.74 2.645 2.577 2.094 4.027-0.165 0.688-3.642 2.215-6.507 2.705-0.571-3.509-2.918-4.638-7.114-4.289 3.653 3.067-1.214 7.693-1.877 12.404-0.466 3.228 0.571 6.258 3.179 7.966-1.624-2.323-2.673-7.154 5.31-11.359-9.087 6.158-4.787 12.802 0.209 12.778 3.883-0.073 8.36-2.926 11.978-5.008-0.591 1.776-0.804 3.629-0.804 3.629s-1.459-0.486-3.75 0.261c1.358 0.884 1.391 5.607 6.765 7.741 0.052 0.016 0.125 0.044 0.177 0.044 0.27-0.209 0.567-0.394 0.9-0.543-1.789-1.776-2.741-8.388 2.054-11.929-2.898 3.171-3.537 8.36-0.784 10.333 1.881 1.351 7.203-0.132 10.293-1.664-1.503 1.576-2.403 3.208-2.821 3.886-3.284 0-10.873 0.382-9.996 8.111-1.676-1.527-2.07-5.061-0.515-7.267-1.58 1.958-2.789 4.992-0.181 8.658v4e-3s1.877 3.376-0.41 6.752c2.717 0 4.293-2.283 4.293-2.283s1.86 0.82 6.72-0.285c-3.279-1.516-4.115-4.02-4.115-4.02s1.346-1.431 0.92-4.257c-3.46 1.616-5.94-0.518-5.94-0.518 1.206-3.987 6.548-3.847 8.457-4.072-0.017 0.036-0.041 0.081-0.068 0.117-1.399 0.466-2.95 1.455-2.914 1.901 7.323 6.041 7.713 11.821 7.689 12.118 0 0-0.366 0.724-1.756 1.045-0.515-0.506-1.419-0.261-1.696 1.037-0.057 0.253-0.185 0.832-0.237 1.552-1.503 0.08-3.103 0.177-4.743 0.31l-0.679-0.317s-0.973-0.965-1.945-0.965c-2.464 0.8-5.961 0.097-9.812 1.704-1.978-1.974-4.107-2.906-4.546-3.344 0.853-1.21-0.615-1.668-1.423-1.142-0.357-0.237-1.62-0.965-1.841-1.194 0.273-0.438-0.41-1.692-2.106-1.025-2.295-1.491-2.878-2.753-2.878-2.753s3.638-2.926 5.109 0.675c0-2.01 1.495-2.021 1.442-3.075-0.016-0.35-0.092-0.337-0.538-0.571-0.33-0.173 0.068-0.595 0.068-1.25-0.619 0.148-0.748 0.108-1.399 0.273-1.149 1.796-2.062 0.989-1.668 0.595-0.446 0-0.502-0.012-0.933 0.097-0.237 0.45-0.792 0.723-1.31 0.723 1.045-1.929 2.841-2.48 4.075-2.355 1.423 0.148 2.858 0.94 4.972 0.418 1.809-0.446 3.199-2.577 2.432-3.867-0.277 1.732-3.179 2.677-5.201 2.086-2.021-0.595-4.228 0.056-5.362 1.198-1.543 1.535-2.086 1.909-3.07 1.909-1.037 0-0.35-3.035 2.837-3.939 0.643-0.189 0.792 0.751 0.792 0.751s0.921-0.205 1.226-0.313c0.25-0.723 1.041-1.351 1.705-1.543 1.278-0.374 1.049 1.117 1.049 1.117s0.546 0.101 1.451-0.273c0.595-1.744 2.114-2.85 3.288-1.889 0.197-1.873-1.905-3.473-2.492-3.473-2.653 0-2.367-1.467-3.449-1.025-0.474 0.205-0.655 0.82-0.341 1.129-0.788 0.788-2.938 0.466-4.98 1.017 0.659-0.659-0.587-1.415-2.006-0.756-0.703 0.342-1.861 0.499-3.099 0.748-0.949-1.744-2.504-5.153-4.369-7.315-2.946-3.433-4.035-3.115-6.354-4.281-1.435-0.728-3.151-1.764-4.108-2.725-0.957-0.944-0.603 0.362-0.603 0.362 0.981 3.34 5.068 5.478 6.688 6.154-1.105 0.112-1.395 0.141-2.396-0.173-2.408-1.471-5.137-1.226-7.979-4.361-0.739-0.816-1.455-1.869-1.455-0.546 0 1.169 1.013 3.878 4.486 5.704-0.306 0.281-1.765 0.554-3.364 0.554-1.592 0-0.169 0.688-0.169 0.688 2.026 1.057 6.821-0.599 8.682 1.258-0.064 0.092-2.231 0.997-5.197 0.655-2.97-0.346-1.226 0.836-0.233 1.282 2.09 0.94 7.119-0.185 8.983 1.66-0.39 0.39-2.014 1.097-5.374 0.201-2.098-0.559 0.426 2.034 3.376 2.034 1.383 0 2.906-0.716 4.072 0.076-1.54 0.402-3.075 1.885-4.53 1.885 0.542 0.844 1.969 1.13 3.605 1.062-0.201 0.394-0.357 0.812-0.486 1.254-2.85-0.438-6.318-0.31-7.801 2.806-1.286 2.681-5.39 3.4-5.94 0.579-1.986 5.326 3.545 7.058 8.48 5.422-2.391 1.487-2.914 4.743 1.202 5.711-1.146-3.111 2.034-3.798 4.482-2.81-3.075 1.685-3.646 6.789 0.313 8.618-0.542-1.202 0.261-3.702 2.725-3.867 0.225 0.41 0.406 0.691 0.502 0.792-0.997 2.134 1.133 1.274 1.133 1.274s0.985 1.379 1.459 1.849c-1.142 1.587 0.149 1.796 0.9 1.587-0.402 2.681 0.354 5.43 0.097 7.552-0.522 4.377-2.955 6.536-4.747 9.964-1.797 3.429-1.933 5.459-3.465 6.981-1.535 1.527-5.145 3.714-10.43 2.243-1.914-0.547-3.694-3.798-2.066-5.916 1.825-2.396 6.282-0.017 2.999 2.411 4.205-0.538 3.505-5.562-0.285-6.153 5.108 0.434 8.396-2.106 7.785-5.072 1.19-1.732 0.394-4.116-1.925-5.157 0.675 4.397-4.341 4.992-4.779 3.729 4.337-5.956 3.336-11.555 2.46-13.412-2.291-4.811-8.369-8.188-16.218-4.015 0.784 0 1.52 0 1.865 0.221-4.232 2.407-2.399 7.705-1.431 10.257 0.35 0.908 1.214 4.087-0.884 5.157-1.752 0.9-4.574-0.731-2.452-5.149-5.913 5.88 0.386 11.21 4.474 8.529 0.293 1.383-0.092 1.981-0.45 3.087 7.327-4.188 5.458-9.823 4.12-12.11 5 2.741 8.144-1.278 5.302-4.111 0.181 1.427-0.917 2.58-2.348 2.403-2.347-0.281-2.419-3.38-0.643-4.658 2.187-1.592 4.65-0.057 5.534 1.202 1.371 1.917 1.443 5.615-1.628 9.996-1.853 2.653-10.193 12.13-2.668 19.619-8.569 2.411-4.626 10.152-0.828 11.065-0.519-0.535-1.941-3.69 0.221-4.965 0 2.545 2.854 4.707 6.214 4.707-5.559-8.155 5.571-7.046 10.145-12.215 0 3.967 2.697 5.357 2.235 6.479-1.182 2.846-4.923 2.741-6.069 2.299 0.555 2.371 2.777 2.134 2.777 2.134s-0.885 0.869-2.375 0.676c0.611 1.25 0.703 4.67 0.539 7.857-0.028 0.6-1.142 2.585-2.287 3.107 0.711 0.703 1.596 0.72 2.572 0.354-0.868 0.864-0.969 2.251-0.326 2.898 0.382-0.64 0.792-1.363 1.564-1.363 0.639 0.294 0.623 1.113 0.623 1.113s-0.932 2.589 2.552 3.485c1.656 0.414 3.425 0.482 3.425 0.482s-0.245-2.895-1.282-3.943c0.217-2.006-4.944-7.021-1.294-12.198 1.54-2.195 5.277-2.428 7.938-6.246 0.454-0.45 1.76-3.928 1.226-6.001 7.062-0.177 7.303 6.897 2.488 8.979 0.571 0.582 1.267 0.305 2.573-0.057-0.635 1.049-1.455 1.765-2.074 1.997 4.992 0 7.359 1.021 8.819 1.869 1.029 0.604 0.9 1.396 0.406 2.89 1 0 1.845-0.759 1.845-0.759s0.197 1.286 1.322 1.286c0-0.579 0.333-1.033 0.937-1.033 0.362 0.68 0.39 1.025 0.684 1.343 2.291 0.555 5.478-0.097 5.478-0.097s-0.446-1.89-3.231-3.123c-1.25-2.846-7.484-4.164-8.376-5.064-0.229-0.229-0.109-1.162 0.156-1.785 0.792-1.896 2.971-4.859 1.439-8.095-0.575-1.21 0.422-5.872-4.792-6.186-2.548-0.137-5.233 0.969-5.233 0.969s3.143-2.761 4.839-4.438c1.692-1.688 4.317-5.257 4.317-5.257s2.709 1.298 4.055 2.299c0.096 0.302 0.253 0.752 0.402 1.182 0 1.33-4e-3 2.616-4e-3 3.843-0.112 0.285-0.249 0.591-0.398 0.88-0.366 0.712-0.695 1.552-0.981 2.002-0.221 0.361 0.535 1.242-0.076 1.845-0.346 0.346-0.724 0.703-1.041 1.262 0 2.034 0.78 4.614 0.78 4.614s0.9-0.703 1.688-1.607c0.012 0.201 0.032 0.397 0.032 0.43 0.161 5.832 4.289 11.729 9.04 16.604 0.522-9e-3 1.101 0 1.712 0.048-6.186-6.198-9.55-11.7-9.55-16.861 0-0.257-0.024-2.287-0.024-3.83 0.072-0.498 0.201-0.94 0.422-1.21 0.157-0.209 0.298-1.113 0.414-1.531 0.181-0.688 0.266-1.142 0.302-1.379-0.374 0.398-1.001 0.583-1.254 0.209-0.562-0.836-0.611-2.476-0.382-3.36 0.225-0.84-0.084-2.113-0.607-3.396-2.439-2.186-7.85-4.155-9.2-6.157-2.942-0.635-5.84-3.26-7.729-5.406 2.331 5.181 4.875 5.924 6.583 6.338 0.141 0.137 0.338 0.784 1.178 1.258 0.024 1.077-0.249 2.239-1.31 3.514-3.328 3.999-8.184 5.582-9.828 7.463-1.366 1.564-0.779 3.514-0.779 3.514s0.711-0.812 1.696-0.949c-0.615 2.002 1.479 6.584-0.032 9.052-1.873 3.067-4.747 3.794-4.747 3.794s-1.74 0.27-0.836-0.639c0.924-0.92 1.238-2.91-0.024-4.493-2.793-3.514-1.503-8.083-0.33-11.198 1.17-3.111 4.57-6.632 5.282-10.539 0.575-3.179-0.961-7.05 0.37-10.246-0.398 0.394-1.109 0.808-1.447 1.094-0.209 0.177-0.651 0.145-0.72-0.097-0.076-0.249 0.229-0.731 0.575-1.033 2.741-2.468 7.034-5.595 10.844-7.781 0.551-0.317 0.784-0.201 0.937-0.052 0.129 0.128-0.129 0.607-0.338 0.735-4.104 2.343-6.037 3.939-6.893 4.65 0.506 1.411 1.568 2.46 2.175 3.087 0.539-0.751 0.394-1.644 1.041-2.287 3.557 0 5.832 6.314 5.9 6.535 0.189-0.189 1.226-1.125 2.537-1.073-0.322 0.322-0.808 0.888-1.065 2.399 0.491 0.213 2.203 1.817 3.823 3.746 0.764 0.913 1.8 2.074 2.91 3.264 0.246 0.266 0.527 0.78 0.631 1.218 0.12 0.555 0.092 0.703 0.177 1.025 0.306 1.21 0.888 1.664 1.142 1.567 0.41-0.148 0.759-1.415 0.759-3.412 0.193 0.711 0.333 1.805 0.386 2.761 8e-3 0.209 0.08 0.599 0.012 1.018-0.088 0.574-0.249 1.226-0.494 1.651-0.257 0.435-0.45 0.435-0.667 1.314 3.011-0.169 7.098-0.241 11.025-0.273-0.438-1.391-1.266-1.989-1.696-3.066-1.467-0.889-5.683-2.762-6.082-2.942-0.285-0.121-0.193-0.426 0.173-0.281 1.246 0.479 5.68 2.219 7.633 2.986 3.593 1.21 9.212 1.459 14.968 1.29 0.221 0 0.836-0.679 1.037-0.688h0.125c-3.127-1.475-6.877-1.278-7.524-0.365-1.133-2.384-0.587-4.257 0.233-5.137-0.82-0.061-0.121-0.334 0.257-0.398 0.382-0.064 3.625-0.599 7.179-0.852 0.559 0 0.426 0.237-0.141 0.341-1.102 1.628-0.29 4.623 0.679 6.383 1.877-0.04 4.944-0.084 6.334-0.168-0.277 0.534-0.526 1.129-0.728 1.539-0.097 0.097-0.635 0.369-0.98 0.595-0.064 0.161-0.161 0.599-0.257 1.001 1.712 0.057 4.353 0.16 6.065 0.241-0.153-0.583 8e-3 -1.162 0.221-1.563 0.31-0.583 0.699-0.856 1.209-1.09-0.751-1.049-0.104-2.95 1.741-3.099 0.168-0.036-2.09 1.017-0.917 2.773 0.213 0 1.025-0.354 1.592-0.812-0.121 0.514-0.836 1.201-1.499 1.523-0.664 0.321-1.274 0.618-1.431 1.482-0.084 0.475 0.121 1.049 0.571 0.949 0.169-0.032 0.177-0.241 0.346-0.491 0.289-0.441 0.812-1.04 1.809-1.04-2.219 1.322-1.166 3.062-0.486 2.934 0.72-0.125 0.655-1.025 1.33-1.166-0.192 0.374-1.081 2.902 1.926 2.541 0.205-0.032 0.406-0.105 0.586-0.197l-4e-3 8e-3s0.973 0.486 1.507-0.032c-0.306 0-0.551-0.361-0.691-0.635 0.273-0.374 0.475-0.856 0.559-1.507 1.118-1.109 1.311-2.456 1.849-3.184 0.575-0.881 3.119-2.018 5.755-2.83 1.705 2.488 7.332 5.024 9.221 6.311-0.362-0.064-0.76-0.125-1.206-0.201-0.088-0.016-0.188-0.032-0.277-0.04-3.416-0.397-5.506-0.542-7.198 0.201h-0.012c-0.306 0.112-0.579 0.233-0.804 0.394-1.925 1.307-2.966 3.497-3.702 6.479-0.611 2.5 2.327 5.486 3.529 7.479 1.186 1.966 0.828 3.734-0.426 4.739-3.103 2.548-6.125 2.339-6.125 2.339s-1.149 0.072-1.861-0.112c-0.346-0.346-1.053-0.475-1.278-0.494-1.969-0.133-2.588 2.033-1.941 2.673-0.562 0.201-0.836 1.001-0.836 1.651 0.804-0.796 1.358-0.743 1.358-0.743s0.161 0.599 0.832 0.691c-0.599 0.603-0.47 1.246-0.35 1.656 0.382-0.695 0.8-0.856 1.403-0.856 0.229 0.217 0.446 0.442 1.045 0.442-0.173 0.253-0.161 0.912 0.161 1.543 0.302-0.595 0.571-1.146 1.041-1.153 0.607-0.024 1.917 0.965 4.112 0.466 3.195-3.175 5.852-3.175 5.852-3.175s2.589 0.43 4.888 0.04c-1.748-0.302-1.897-2.335-1.897-2.335s2.11 0.591 3.489 0.209c-5.872-5.856-4.888-12.19 3.239-13.393-0.852 3.106-0.55 7.821 1.146 9.514 1.105 1.093 4.261 5.201 4.261 6.776 0 0.977 8e-3 1.881-0.828 3.007 0 0-1.684 1.592-3.714 1.913-3.308-2.508-5.526 1.178-4.602 2.114-0.161 0.237-0.619 0.486-0.619 1.592 0.699-0.68 1.523-0.704 1.523-0.704l0.664 0.463s-0.398 0.555-0.153 1.993c0.434-0.555 0.631-1.073 1.093-1.274 0.551 0.543 1.033 0.551 1.583 0.551-0.189 0.6 0.028 1.403 0.253 1.934 0.273-0.961 0.944-1.479 0.944-1.479s1.194 1.386 3.489 0.603c2.154-2.344 3.851-4.349 5.052-5.82 1.338 0 1.68 0.917 4.968-0.354-2.399-1.632-2.745-2.484-2.745-2.484s1.845 1.073 3.119-0.192c-2.17-1.121-2.597-1.966-3.417-2.789-1.351-1.335-2.396-2.183-2.396-5.153 0-2.986 1.99-6.953 1.99-9.24 1.419 4.075 9.976 4.675 8.36 9.369 1.708-0.169 3.834-3.666 1.415-6.681 1.893-0.631 8.296-6.824-0.9-17.283-3.485-3.975-8.208-12.729-1.387-14.992 2.681-0.892 7.323 0.515 6.053 5.43 4.035 0 5.157-5.141 2.066-7.082 3.89 0.761 6.124-2.297 5.683-6.168zm-62.16-31.737c1.909-2.311 2.062-5.462 3.139-5.655 3.312-0.607 4.727 4.136 10.808 5.088-1.202 1.705-0.909 3.26-0.788 4.064 0.221-0.921 1.76-2.054 4.2-2.287 4.24-0.398 3.219 5.422-0.322 5.257-5.099-0.221-13.516-8.3-17.037-6.467zm-19.256 6.362c3.686-1.037 3.71 1.222 4.683 1.749-3.626 0.7-3.658-1.222-4.683-1.749zm6.242-0.019c2.87-0.941 3.513 1.358 4.172 1.768-2.97 0.711-3.573-1.173-4.172-1.768zm-12.058-15.567c2.914-0.743 5.494 1.013 6.64 1.986 0.012-0.157 0.036-0.318 0.032-0.442-0.442-0.326-0.35-1.21 0.165-1.58-0.277-0.325-0.679-0.888-0.768-1.563-0.321-0.281-0.281-1.937 0.036-1.66 0.185 0.153 0.515 1.511 0.277 1.692 0.342 0.495 0.522 1.029 0.724 1.395 0.193-0.06 0.43-0.056 0.695 0.053 0.129-0.446 0.547-0.76 0.663-0.844l8e-3 -4e-3c0.016-0.012 0.016-0.012 0.052 0l8e-3 4e-3c0.117 0.084 0.539 0.394 0.663 0.844 0.27-0.109 0.507-0.113 0.704-0.053 0.193-0.365 0.402-0.9 0.751-1.395-0.253-0.181 0.061-1.543 0.245-1.692 0.313-0.273 0.354 1.378 0.032 1.66-0.084 0.675-0.478 1.238-0.76 1.563 0.511 0.37 0.611 1.258 0.165 1.58-8e-3 0.124 8e-3 0.285 0.024 0.442 1.157-0.973 3.726-2.729 6.644-1.986 2.44 0.796 2.066 4-0.366 4.972 1.536 2.572-2.207 5.784-5.257 1.543 1.339 3.22 0.45 6.274-2.87 6.23-3.26 0.048-4.22-3.006-2.898-6.23-3.199 4.188-6.781 1.029-5.245-1.543-2.434-0.973-2.808-4.177-0.364-4.972zm0.189 16.54c-0.173-0.853 0.764-1.479 1.861-1.082 0.828 0.297 1.56 1.451 2.018 1.772-1.853 0.415-3.67 0.382-3.879-0.69zm-25.358-0.825c-3.541 0.161-4.558-5.659-0.321-5.253 2.439 0.233 3.979 1.367 4.204 2.283 0.113-0.808 0.406-2.359-0.796-4.063 6.085-0.949 7.496-5.696 10.812-5.084 1.073 0.197 1.226 3.344 3.135 5.651-3.517-1.833-11.934 6.241-17.034 6.466zm-21.15 14.55c-2.633-0.31-4.63 1.314-6.134 3.473 0.969-2.805 4.036-4.373 6.085-4.373 2.602 0 1.786 1.097 0.049 0.9zm-21.471 30.378c1.246-0.377 5.454-2.998 3.81-8.062 3.65 6.166-1.848 8.392-3.81 8.062zm13.364-14.791c-3.035-2.608-6.5-1.672-7.564 1.291-0.337-1.925 0.751-3.823 2.617-3.823-0.37-0.37-0.868-0.792-1.636-0.856 2.311-0.884 5.462 0.442 6.861 3.251 0.12 0.226-0.069 0.318-0.278 0.137zm1.226 17.774c0.526 0 3.396 0.217 5.233-1.615-0.997 3.002-4.068 2.854-5.149 2.451-0.619-0.225-0.607-0.836-0.084-0.836zm1.596 15.29c-2.5 1.041-4.385 1.684-5.382 3.3-0.012-0.35-0.044-1.6 0.704-2.348-2.05-0.543-3.879 1.307-4.072 1.676 0-4.613 6.905-2.725 9.643-3.766 0.682-0.274 0.506 0.543-0.893 1.138zm10.84 20.936 0.49 1.282s-1.089 0.522-1.989 0.024c-0.338-0.957-0.792-2.971-0.519-4.852 0.06-0.402 0.599-0.322 0.711 0.016 0.596 1.608 0.997 2.71 1.307 3.53zm22.552-11.861c1.68 0.471 2.705 1.09 4.04 1.99 0.43 0.289-0.651 1.322-1.411 0.812-1.053-0.684-1.652-1.499-3.188-2.388-0.671-0.382-0.313-0.667 0.559-0.414zm3.722-14.707c0.482 0.475-0.466 2.203-1.411 3.147-0.165-0.583-0.538-1.873-0.538-1.873s1.483-1.748 1.949-1.274zm-15.494-1.997c2.275-0.743 6.994-3.007 9.083 1.073 0.334 0.684-3.593-0.651-5.896 3.557-1.403-0.595-3.047-0.49-4.208-0.49-0.342-1.669 0.325-3.445 1.021-4.14zm-3.601-48.027c-0.277 1.463-1.439 1.636-3.814 1.591 2.395-0.84 2.431-2.214 3.814-1.591zm-4.711-1.142-0.9 0.273s-2.15-4.795-4.626-8.031c2.165 0.97 5.526 7.758 5.526 7.758zm-4.582-4.533c-0.056 0.221-0.688 0.442-0.984 0.49-0.366-0.386-1.078-1.105-1.383-1.411 1.342 0 2.021 0.345 2.367 0.921zm-8.26-3.996c4.345 2.078 8.71 6.921 10.74 9.2-0.519 0-1.21 0.088-1.576 0.188-1.732-2.716-5.551-6.719-9.164-9.388zm8.316 14.293c1.419-2.484 2.677-2.516 4.277-1.684-1.552 1.893-0.776 4.908 2.383 5.864 0.213 0.072 0.82-0.185 0.446-0.997-0.282-0.627-0.51-2.488 0.957-3.947-0.913 1.945-0.326 5.868 3.059 4.735-1.628 2.492-6.009 3.059-8.051 0.651 0.82 3.208 4.461 2.962 4.461 2.962l2.239 3.022-5.836 4.586c0 1e-3 -6.813-8.335-3.935-15.192zm14.835 9.875c-1.998 0.9-6.439 4.088-6.989 4.751 0.667-0.334 1.547-1.105 3.408-1.596-0.989 0.78-1.934 1.616-2.532 2.327 1.149-0.86 2.601-1.616 3.062-1.752-1.226 0.937-1.969 1.905-2.504 2.596-1.415 1.017-2.416 1.917-2.416 1.917s-1.423-2.074-1.889-1.684c-0.386 0.326-0.78-0.088-0.398-0.39 4.586-3.65 7.982-5.88 9.638-6.64 0.958-0.453 1.597 0.029 0.62 0.471zm11.339 15.153s1.233-0.917 0.39-4.092c0.506 0 1.045-0.341 1.443-0.679 4e-3 2.757 4e-3 5.334 4e-3 7.77-0.933-1.604-1.837-2.999-1.837-2.999zm1.824-9.425v1.371c-1.105 0.531-1.157 0.82-2.09 0.997-0.691-0.9-1.001-1.736-1.001-1.736 0.945-0.47 1.282-0.446 3.324-0.663zm16.448 6.198c1.138-0.277 2.689-0.55 3.851-0.683 0.506-0.077 0.45 0.133 0.024 0.229-0.302 1.274 0.088 2.584 0.707 3.312 0.137 0.137 0.036 0.148-4e-3 0.137-4.196-1.318-5.225 0.241-5.442 0.755-0.04 0.088-0.112 0.056-0.125-0.036-0.08-0.51-0.301-2.163 0.985-3.489-0.422 0-0.314-0.137 4e-3 -0.225zm4.988 15.016c-4.305-2.379-6.705-1.68-7.348-0.739-1.041-1.113-2.126-2.846 0.157-4.614-0.546 0-0.502-0.197 0.061-0.298 2.625-0.43 3.967-0.65 6.692-0.868-5.397-1.813-6.398 0.02-6.583 0.583-0.036 0.101-0.104 0.053-0.128-0.044-0.101-0.313-0.302-1.033-0.31-1.869-1.395 1.685-1.845 3.312-2.287 5.511-0.016 0.112-0.084 0.068-0.161 0.04-1.809-1.077-3.215-1.415-4.216-0.969-0.157-0.021-0.185-0.064-0.104-0.137 0.688-0.61 3.569-2.813 6.776-4.847 0.057-0.856 0.358-1.781 1.218-2.468-0.498 0-0.269-0.185 0.153-0.253 1.777-0.41 4.072-0.735 5.704-0.876 0.101-0.012 0.289 0 0.289 0.052 0 0.093-0.173 0.125-0.45 0.185-1.081 1.644-0.876 2.621 0.241 5.097 0.085-8e-3 0.161-0.016 0.253-0.024 0.205 0 0.201 0.201-0.221 0.233-1.274 0.675-0.438 4.14 0.362 6.245 0.01 0.044-0.058 0.076-0.098 0.06zm11.013-16.733c0-0.321 0.225-0.454 0.225 0.044 0.02 1.073 0.016 3.251 0 3.629-4e-3 0.366-0.168 0.434-0.197 0.205-0.052-0.398 4e-3 -1.556-0.068-1.716-0.708 0.703-1.752-0.326-2.649 0.068 0.153-0.41 0.482-1.077-0.374-1.938 0.321-0.862 2.13 0.633 3.063-0.292zm-8.216 0.314c0.944-0.289 2.588-0.655 4.373-0.848 0.153-0.024 0.233 8e-3 0.225 0.048-4e-3 0.044-0.04 0.101-0.31 0.165-0.703 0.896-0.165 3.26 0.502 4.12 0.024 0.044-4e-3 0.092-0.056 0.081-3.368-0.736-5.277-0.044-5.72 0.844-0.068 0.097-0.145 0.052-0.157-0.012-0.096-0.547-0.474-3.075 1.149-4.196-0.46 0.083-0.339-0.118-6e-3 -0.202zm5.394 9.719c-2.508-0.703-6.379-0.969-7.03 0.604-0.08 0.209-0.152 0.084-0.192 0.031-1.314-1.692-0.712-4.497 0.872-5.574-0.173 0.016-0.418 0.016-0.418-0.084 0-0.088 0.31-0.145 0.534-0.189 2.279-0.454 5.527-0.731 5.688-0.74 0.418-0.04 0.579 0.125-0.044 0.221-0.374 0.454-1.483 2.05 0.699 5.611 0.104 0.18-0.036 0.144-0.109 0.12zm8.674 5.112c-0.294 0.041-6.922 0.647-6.922 0.647s-0.984-2.802 0.169-4.489c0.27-0.262 1.391-1.359 2.589-2.537-2.621-0.771-3.722 0.852-3.722 0.852s-1.487-2.399 0.76-4.875c-0.422 0.036-0.313-0.125-0.092-0.189 0.526-0.141 2.399-0.462 4.003-0.606 0.358-0.032 0.506 0.141-0.012 0.261-0.104 0.341-0.446 1.672 0.024 3.621 0.494-0.478 0.953-0.944 1.351-1.33 0.148-0.149 0.289-0.217 0.337-0.141 0.061 0.109-0.185 0.334-0.502 0.712-0.687 2.632 0.868 6.776 1.572 7.753 0.891-4e-3 1.092 0.249 0.445 0.321zm13.043 30.097s-1.423-0.293-1.994 0.748c-0.695 0-0.924-1.113 0.048-1.443-0.522-0.209-1.113-0.209-1.797 0.475-0.88-0.414-0.273-1.314 0.197-1.499-0.591-0.177-1.387 0-1.833 0.442-1.198-0.205 0.708-2.564 2.588-0.712 0.543-0.108 2.046 0.237 1.736 1.041 1.822 0.176 1.055 0.948 1.055 0.948zm-4.695-47.882c1.113 0.241 3.429 0.816 4.092 1.467 0.868 0.86-0.108 2.649-0.108 2.649s-2.339-1.6-3.979-2.263v-1.853zm0 6.254c0.873 0.873 1.889 1.841 3.292 3.236 1.001 0 3.123-1.877 3.786-0.225-2.733 2.038-4.662 3.682-6.833 5.057-0.064 0.052-0.141 0.137-0.245 0.253zm4.811 12.086c-1.435 1.636-2.07 3.774-2.773 4.47-0.748 0.744-1.841 2.38-2.01 0.575-0.169-1.801 1.583-2.143 2.741-4.386 0.378-0.723 1.21-0.932 1.881-0.992 0.177-0.012 0.266 0.209 0.161 0.333zm7.36 26.965c-1.298 1.299-3.987 2.882-4.984 2.882-0.993 0-1.406-0.771-0.852-1.101 0.266-0.169 2.146-0.68 3.453-1.327 2.294-1.149 2.897-0.972 2.383-0.454zm10.542-14.409c-1.817-0.635-4.795 0.081-6.069 1.358-0.816-2.178-2.726-3.898-7.163-3.175-1.029 0.052 1.435-6.423 11.431-3.794 2.722 0.716 2.159 4.365 1.801 5.611zm1.086 26.026c-0.7 0-0.917-1.121 0.052-1.451-0.446-0.116-0.969-0.217-1.873 0.41-0.595 0-0.197-1.246 0.257-1.431-0.583-0.189-1.125 0.044-1.821 0.43-1.201-0.446 0.676-3.167 2.456-0.848 0.543-0.129 2.163 0.394 1.869 1.193 1.302-0.112 1.543 1.105 1.543 1.105s-1.913-0.449-2.483 0.592zm4.698-1.294c-1.089 0.699-2.259-0.788-1.82-1.018 0.808-0.414 2.476-1.242 3.315-2.576 0.342-0.329 1.809 0.712-1.495 3.594zm2.014-15.986c-5.631-2.476-5.072-8.682-3.669-11.801 0.744-2.098 0.382-4.586-2.544-5.101 0.422-0.551 0.86-1.064 2.528-1.064-0.511-1.685-5.442-0.849-8.489-1.648-2.898-0.775-4.245-3.469-4.245-3.469s3.236-0.201 4.441 1.001c0.651-1.282 0.012-2.331 0.012-2.331s3.891 1.189 5.394-0.229c-1.347 0-3.312-0.864-3.312-0.864s2.167-0.719 2.805-2.009c-1.024-0.077-4.208 0.49-5.39-0.036-4.707 2.114-9.067 3.497-11.029 3.312-1.137-0.112-0.916-0.571-0.606-0.86 2.335-2.211 4.498-3.851 6.31-5.273 0.47-1.174 3.251-6.547 10.623-8.095-3.271 0.233-8.316 1.318-11.833 6.523-1.62-2.577-1.447-5.607 0.313-7.91-1.652 0.663-2.568 1.909-3.123 2.689 0.759-2.074-0.547-8.485 3.682-12.231 0.402 0.764 0.973 1.552 1.764 2.335-1.125-4.176-0.269-6.053 0.619-7.202 0 0.993 0.273 2.954 1.19 4.481 0.088-1.21 0.957-2.577 0.957-2.577s-0.378-0.812-0.378-2.227c0.253 0.848 1.306 1.974 1.306 1.974s-0.953 2.428-0.784 3.075c0.241 0.912 0.667 1.117 1.077 1.27-0.181 0.519-0.032 1.21-0.032 1.21s0.511-0.856 1.146-1.142c0.499 0 1.118 0.108 1.399-0.177 0.281-0.281 0.587-1.327 0.587-1.327s-1.745-0.9-0.909-2.62c0.591-0.157 0.929 0.148 1.636 0.852 0.764-0.37 1.455-0.08 1.455-0.08s0.595-1.358 0.406-2.914c-0.061-0.539-2.038-1.616-3.324-0.333-0.261 0.924-2.287 0.74-2.793-1.792 1.029-0.394 1.242 0.751 2.444 0.788h0.024 0.028 0.024c0.289-0.012 0.944-0.024 1.133-0.643 0.084-0.302-0.229-1.479-0.985-2.235 0 0.699-0.061 1.302-0.185 1.636-0.547-0.687-1.407-2.608-5.226-1.113-0.201 0.072-0.414 0.133-0.631 0.181 0.679-0.856 2.042-1.592 5.02-2.006 0 0 3.175 0.362 7.014 1.736 0.495-0.908 1.411-2.48 1.411-2.48s-3.308-1.331-5.334-1.889c2.138-0.064 4.586 0.76 5.691 1.158 0.092-0.229 0.177-0.454 0.547-1.162 0.96 0.326 2.572 1.21 2.572 1.21l-2.681 4.208c0.266 0.326 0.515 0.691 0.74 1.073 0.595-0.092 1.986-0.257 2.227 0.249 0.233 0.486-0.732 1.507-1.202 1.958 0.153 0.418 0.29 0.848 0.402 1.274 0.169 0.611 1.178 1.64 1.841 2.291-0.543 0.132-0.977 0.048-1.367-0.044 0.108 0.808 0.257 2.154 0.257 2.745 0 0.43-0.036 0.8-0.089 1.125-0.205-0.86-0.619-1.809-1.362-2.781 0 4.296-4.027 5.036-2.83 8.806 0.844-2.001 1.616-2.392 2.383-2.922 0 8.026-9.096 12.894-1.439 23.565 2.725 3.802 3.754 5.454 4.076 7.857 0.979 7.062-2.159 9.634-1.693 12.005zm13.304-15.309c-0.519-0.257-1.19-0.361-2.142-0.361 2.383 0.973 3.159 3.074 2.315 5.012-2.327-2.323-4.984-1.78-5.539-0.262-0.499-1.354 0.771-3.404 3.71-2.468-1.435-3.002-4.317-1.555-5.8-4.823 0.828 0.668 2.022 0.607 3.027 0.985 0-0.486-3.746-0.933-3.746-4.168 2.19 3.304 7.029 2.825 8.175 6.085zm4.996-18.602c-1.166-2.677-2.966-3.915-5.884-3.46 2.588-3.392 7.656 0.305 5.884 3.46z"/>
<path d="m110.34 328.66c2.468-3.465 1.527-6.354 0.088-8.316 1.354 2.138 1.069 5.233-0.84 6.796 0.759-7.271-6.029-7.958-9.51-8.006-0.868 0-2.472-0.237-3.959-0.764 1.27 0.933 2.785 1.471 4.264 1.608 1.889 0.233 7.283 0.072 8.489 4.076 0 0-2.48 2.134-5.945 0.518-0.422 2.826 0.92 4.257 0.92 4.257s-0.828 2.504-4.104 4.02c4.851 1.109 6.716 0.285 6.716 0.285s1.58 2.283 4.289 2.283c-2.285-3.376-0.408-6.753-0.408-6.757z"/>
<ellipse cx="95.597" cy="319.85" rx=".752" ry=".913"/>
<path d="m140.57 327.05c-0.507 0-1.789 1.318-3.135 0.651 0.74 0.731 0.587 0.989 0.993 1.403 0.92 0.145 2.154-0.583 2.154-0.583-0.45 1.041-0.619 1.202-1.636 2.219-0.313 0.832-0.265 1.801-1.065 2.894 1.7-0.744 3.067-4.088 3.235-4.968 0.069-0.366-0.088-1.769-0.546-1.616z"/>
<path d="m49.697 405.41c-0.82 0.446-0.844 1.154-0.454 1.861 0.39 0.703 1.013 1.098 1.796 0.679 0.848-0.466 0.848-1.177 0.458-1.896-0.398-0.72-1.021-1.069-1.8-0.644z"/>
<path d="m76.144 393.78c-0.933 0.057-1.25 0.68-1.202 1.487 0.052 0.776 0.442 1.419 1.334 1.343 0.96-0.049 1.266-0.695 1.218-1.499-0.056-0.808-0.466-1.386-1.35-1.331z"/>
<path d="m132.7 335.19c0 0.759-0.354 2.343-2.648 3.231 1.471-1.459 1.776-2.822 1.881-3.618-0.587-0.374-0.86-0.828-0.908-0.663-0.378 1.307-1.029 1.978-1.945 2.894-0.925 0.917-1.371 3.151 1.841 2.283 1.061-0.289 3.066-1.391 2.685-3.525-0.668-0.421-0.684-0.602-0.906-0.602z"/>
<path d="m135.51 329.86c-0.301 0.631-1.744 0.96-1.744 0.96s-0.253 0.904-0.253 1.306c0 0.414 0.748 0.884 1.025 1.085 0.281 0.201 0.177 1.463 0.177 1.463s0.426-0.515 0.623-1.113c1.371 0.285 1.487-2.154 1.487-2.476-1e-3 -0.478-0.338-1.225-1.315-1.225z"/>
<path d="m140.75 326.35c0-0.446-0.426-3.031-2.922-1.339 0-0.382 0.181-0.997 0.8-1.611-1.246 0.293-2.705 1.684-1.246 2.58 0.944 0.41 1.612-0.623 3.368 0.37z"/>
<path d="m123.58 403.14-0.434-0.266-0.671 1.125 0.313 0.193c0.539 0.317 0.904 0.225 1.113-0.141 0.23-0.369 0.162-0.622-0.321-0.911z"/>
<path d="m89.114 304.58c-0.088 4e-3 -0.362 4e-3 -0.474 0-0.475-0.032-1.467-0.141-2.344-0.491-0.57 2.802 2.597 2.705 2.597 2.705s3.175 0.093 2.601-2.705c-0.905 0.362-1.922 0.463-2.38 0.491z"/>
<path d="m96.304 390.59c0.876-0.646 1.994-1.041 3.087-1.282 0.51-0.49 1.158-1.121 1.555-1.515-4.481-6.351-12.773-16.62-18.4-23.356-2.275 0.016-4.73 0.023-7.106 0.064 5.454 6.483 16.226 19.554 20.864 26.089z"/>
<path d="m84.351 362.08c-1.833-0.104-2.918-0.048-3.601 0.876 2.335-8e-3 4.554-8e-3 6.378-8e-3v-0.017c0.7 0 1.616 9e-3 2.689 0.017h0.052v8e-3c2.058 0.036 4.671 0.093 7.408 0.165-1.391-0.904-6.069-0.494-7.351-1.058-1.552 0.379-4.261 0.833-5.575 0.017z"/>
<path d="m86.497 300.26c-2.046 1.037-3.762 0.844-5.072 0.422-1.073 1.475 1.467 4.301 5.306 0.028-0.073 0.293-0.258 1.037-0.298 1.459 0.31 0.297 1.5 0.539 2.464 0.539h4e-3c0.973 0 2.163-0.246 2.464-0.539-0.044-0.422-0.225-1.166-0.293-1.459 3.83 4.272 6.375 1.447 5.305-0.028-1.31 0.422-3.039 0.619-5.072-0.422 3.042 1.009 6.897-0.599 6.515-2.858-0.45-2.621-5.333-0.342-7.042 0.884 1.077 2.657-1.52 2.833-1.865 2.842h-0.016-0.016c-0.337-8e-3 -2.934-0.185-1.853-2.842-1.716-1.226-6.591-3.505-7.042-0.884-0.394 2.259 3.464 3.867 6.511 2.858z"/>
<path d="m90.159 364.45c5.153 6.318 10.909 13.529 14.783 18.871 1.238-1.584 2.319-3.212 3.151-4.859-3.392-4.63-8.155-10.575-10.8-13.851-2.62-0.083-5.133-0.132-7.134-0.161z"/>
<path d="m141.3 401.11c-0.077 1.209-0.129 3.299-1.52 4.199-7.999 1.813-28.513-20.977-42.967-13.854-1.021 0.519-1.809 1.194-2.355 2.078-4e-3 8e-3 -0.012 8e-3 -0.02 0.017-0.454 0.695-0.691 1.032-0.471 1.881-1.286 0.965-3.195 2.359-5.064 3.638-1.741-1.154-3.565-2.492-5.037-3.666 0.061-0.397 0.077-1.024-0.51-1.869 4e-3 0 4e-3 8e-3 0.012 8e-3 2.279 1.805 4.28 3.231 5.535 4.08 0.86-0.575 2.074-1.438 3.485-2.484-5.053-7.162-18.795-23.999-24.39-30.35l-0.016 0.503c-4e-3 2.363-4e-3 4.582-4e-3 6.672 0 5.992 5.113 12.335 10.438 17.319 3.827 0.735 4.956 3.243 4.956 4.26-8e-3 0-8e-3 -8e-3 -0.012-8e-3 -0.55-0.884-1.334-1.56-2.355-2.078-14.45-7.118-34.972 15.672-42.963 13.854-1.387-0.904-1.451-2.994-1.515-4.199-0.104-1.914-3.794-3.196-11.037 0.232 0 0 4.313 5.406 4.964 10.98l0.117 1.01s2.725-1.736 6.085-2.649c0-1.776-1.117-4.529-0.964-4.497 2.146 2.873 3.489 7.664 3.709 8.746 0.229 1.146 1.572 1.575 5.913 0.646 6.515-1.419 20.796-13.71 29.992-14.951 2.396-0.33 4.783-0.146 5.438 2.033-1.101-1.109-3.733-1.402-4.919-1.033-0.635 0.627-1.515 1.52-1.065 2.931 4e-3 0 4e-3 8e-3 4e-3 8e-3 0.904 2.299 2.335 6.351 2.335 7.468 0 2.794 7.247 3.826 11.809 3.826 4.574 0 11.817-1.032 11.817-3.826 0-1.117 1.443-5.173 2.339-7.468v-8e-3c0.446-1.411-0.426-2.304-1.053-2.931-1.189-0.369-3.826-0.076-4.924 1.033 0.659-2.179 3.047-2.363 5.442-2.033 9.188 1.241 23.477 13.532 29.992 14.951 4.341 0.933 5.679 0.499 5.912-0.646 0.217-1.082 1.572-5.873 3.714-8.746 0.149-0.032-0.964 2.721-0.964 4.497 3.364 0.913 6.081 2.649 6.081 2.649l0.109-1.01c0.659-5.57 4.968-10.98 4.968-10.98-7.251-3.434-10.94-2.148-11.041-0.233zm-94.607 9.922c-1.511 0.522-2.552 0.072-3.022-1.286-0.51-1.431 8e-3 -2.407 1.503-2.922 0.615-0.233 1.013-0.249 1.375-0.217l-0.012 0.82c-0.426 0.035-0.603 0.052-1.057 0.188-0.756 0.253-1.125 0.853-0.82 1.716 0.305 0.864 1.017 1.126 1.853 0.828 0.402-0.133 0.631-0.253 0.917-0.438l0.474 0.659c-0.359 0.303-0.681 0.476-1.211 0.652zm4.735-2.363c-1.355 0.739-2.432 0.354-3.111-0.88-0.671-1.21-0.281-2.42 1.033-3.135 1.395-0.768 2.46-0.25 3.095 0.892 0.667 1.218 0.353 2.376-1.017 3.123zm5.808-3.557-2.934-1.677 0.317 0.491 1.19 2.009-0.904 0.543-2.219-3.778 1.045-0.599 3.015 1.708-0.277-0.418-1.27-2.154 0.904-0.534 2.218 3.778zm4.622-2.488c-1.402 0.78-2.504 0.499-3.203-0.747-0.752-1.322-0.418-2.372 0.973-3.151 0.566-0.317 0.953-0.402 1.314-0.431l0.132 0.792c-0.418 0.104-0.586 0.153-1.013 0.386-0.7 0.391-0.96 1.041-0.506 1.833 0.45 0.796 1.198 0.937 1.965 0.499 0.378-0.209 0.579-0.362 0.828-0.604l0.583 0.583c-0.294 0.35-0.583 0.567-1.073 0.84zm2.801-1.514-2.01-3.915 0.94-0.482 2.01 3.902zm2.649-1.416-1.596-4.056 0.981-0.378 1.294 3.28 1.772-0.684 0.297 0.779zm4.381-1.599-1.182-4.217 1.017-0.273 1.182 4.2zm4.618-0.644c-1.531 0.084-2.343-0.728-2.419-2.122-0.084-1.375 0.771-2.283 2.263-2.384 1.58-0.092 2.323 0.8 2.408 2.106 0.079 1.384-0.7 2.296-2.252 2.4zm11.383 12.69-0.036 0.771-1.684-0.089-0.048 0.989 1.965 0.101-0.044 0.808-3.011-0.141 0.221-4.361 2.87 0.137-0.044 0.832-1.817-0.097-0.056 0.969zm4.417 2.464-1.049 0.048-0.165-3.541-1.371 0.061-0.036-0.824 3.794-0.169 0.04 0.816-1.371 0.063zm8.851-9.643c0.201 1.801-4.678 2.263-4.678 2.263-1.913 0.31-4.815 0.479-7.38 0.479-2.556 0-5.458-0.165-7.367-0.479 0 0-4.875-0.462-4.674-2.263 0.896 0.904 2.902 1.237 4.289 1.338 0.273-0.31 0.515-0.711 0.691-1.218 0.181-0.51 0.177-1.033 0.145-1.551 0.117-1.628 0.599-3.252 1.443-4.9 2.806 2.131 4.956 3.521 5.479 3.855 0.53-0.33 2.681-1.717 5.486-3.855 0.848 1.648 1.326 3.276 1.443 4.9-0.028 0.518-0.04 1.041 0.148 1.551 0.173 0.507 0.422 0.913 0.691 1.218 1.374-0.101 3.376-0.434 4.284-1.338zm2.818-5.402-2.93-0.397 0.586-4.321 1.041 0.129-0.47 3.517 1.885 0.254zm5.602 1.853-1.029-0.378 0.048-1.339-1.395-0.511-0.885 1.05-0.997-0.362 3.083-3.541 1.282 0.467zm5.599-0.837c-0.161 0.33-0.482 0.475-0.74 0.499l-8e-3 8e-3c0.209 0.233 0.479 0.728 0.209 1.258-0.362 0.72-1.029 0.993-2.183 0.414l-1.543-0.768 1.982-3.906 1.375 0.695c0.957 0.462 1.278 1.065 0.908 1.8zm1.962 4.828c-1.342-0.752-1.56-1.89-0.86-3.107 0.688-1.202 1.921-1.491 3.22-0.752 1.387 0.78 1.511 1.962 0.856 3.1-0.692 1.205-1.854 1.547-3.216 0.759zm7.906 1.173c-0.253 0.427-0.68 0.68-1.218 0.663l0.136 0.644c0.077 0.346 0.217 0.635 0.571 0.997l-0.623 0.559c-0.711-0.475-0.888-1.098-1.009-1.785l-0.133-0.751c-0.068-0.032-0.132-0.077-0.205-0.112l-0.273-0.178-0.784 1.307-0.904-0.547 2.247-3.762 1.467 0.88c0.852 0.506 1.234 1.249 0.728 2.085zm5.028 2.179-1.587-0.9-0.475 0.856 1.467 0.815-0.382 0.676-1.463-0.832-0.486 0.864 1.708 0.96-0.402 0.712-2.637-1.479 2.15-3.798 2.5 1.402z"/>
<path d="m107.61 364.98c-0.631-0.04-1.724-0.08-2.6-0.112 1.998 2.5 3.316 4.221 4.827 6.21v-4.498c-0.346 0-0.691-0.063-0.828-0.108-0.121 0.153-0.31 0.41-0.269 0.776-0.257-0.177-0.635-0.708-0.515-1.162-0.342-0.246-0.567-0.877-0.615-1.106z"/>
<path d="m101.39 389c0.776-0.063 1.419-0.072 1.785-0.063 4.847-4.98 9.056-11.018 9.056-16.974 0-1.604-4e-3 -3.268-4e-3 -5.032l4e-3 -9e-3c-0.655 0.29-1.258-0.031-1.258-0.031 0 1.752 0.012 3.673 0.012 5.269-1e-3 6.198-5.19 12.52-9.595 16.84z"/>
<path d="m193.3 295.25h9.349l18.224 52.814 20.246-52.814h9.036v56.745h-6.391v-40.611l0.237-8.75-18.77 49.361h-9.188l-16.821-49.442 0.466 8.991v40.451h-6.387v-56.745z" fill="#fff"/>
<path d="m279.17 295.36h8.662l19.904 56.745h-6.869l-7.259-21.19h-21.861l-8.119 21.19h-6.479zm12.641 30.257-8.585-25.603-9.445 25.603z" fill="#fff"/>
<path d="m315.28 295.35h9.164l28.023 51.126-0.233-7.062v-44.064h6.519v56.745h-10.016l-27.4-50.406 0.31 5.86v44.546h-6.367z" fill="#fff"/>
<path d="m368.7 324.04c0-17.898 10.515-29.534 29.06-29.534 9.312 0 14.928 3.127 16.616 4.333l-1.93 5.382c-2.09-1.367-7.388-3.935-14.525-3.935-11.801 0-22.315 6.419-22.315 22.955 0 16.934 10.916 24.08 23.919 24.08 5.294 0 10.201-1.764 12.927-3.372l2.09 4.815c-1.527 1.206-6.986 4.253-16.455 4.253-18.711-1e-3 -29.387-12.039-29.387-28.977z" fill="#fff"/>
<path d="m422.78 295.41h6.431v25.523h30.41v-25.523h6.423v56.745h-6.423v-25.764h-30.41v25.764h-6.431z" fill="#fff"/>
<path d="m477.87 295.41h30.768v5.382h-24.389v20.145h22.686v5.458h-22.686v20.306h26.178v5.458h-32.557z" fill="#fff"/>
<path d="m519.15 348.55 2.363-5.313c2.758 1.772 7.557 4.108 12.834 4.108 6.226 0 13.389-2.17 13.389-9.498 0-14.249-27.243-10.953-27.243-29.546 0-9.26 7.557-13.77 16.455-13.77 6.138 0 10.944 2.014 13.706 4.027l-2.203 4.908c-2.604-1.692-6.696-3.461-11.342-3.461-5.989 0-10.475 2.416-10.475 8.055 0 12.721 27.484 11.109 27.484 29.309 0 10.868-8.823 15.78-19.619 15.78-8.11-5e-3 -12.591-2.661-15.349-4.599z" fill="#fff"/>
<path d="m578.53 300.82h-18.721v-5.619h43.89v5.619h-18.722v51.126h-6.447z" fill="#fff"/>
<path d="m612.37 295.28h31.78v5.378h-25.201v20.145h23.441v5.458h-23.441v20.31h27.051v5.454h-33.63z" fill="#fff"/>
<path d="m684.36 344.32-10.273-15.173c-1.33 0.241-3.525 0.402-5.177 0.402h-7.532v22.552h-6.512v-56.745h18.119c10.595 0 17.967 5.137 17.967 16.616 0 6.664-3.063 12.681-10.435 15.571l8.634 12.601c3.762 5.298 7.998 6.825 10.9 7.629l-1.419 5.217c-3.047-0.242-9.481-1.765-14.272-8.67zm-14.972-20.306c8.625 0 14.742-2.649 14.742-11.556 0-8.669-4.389-11.72-12.861-11.72h-9.888v23.276z" fill="#fff"/>
<path d="m187.51 393.47c0-12.777 6.981-20.458 19.815-20.458 6.013 0 9.715 1.945 11.222 2.95l-1.555 4.614c-2.146-1.117-4.832-2.452-9.558-2.452-7.625 0-14.011 4.284-14.011 14.791 0 10.72 6.66 15.507 15.088 15.507 3.598 0 6.873-1.174 8.859-2.166l1.342 4.613c-1.985 1.054-5.261 2.613-11.17 2.613-12.942 1e-3 -20.032-7.953-20.032-20.012z" fill="#fff"/>
<path d="m225.32 373.73h5.944v39.293h-5.944z" fill="#fff"/>
<path d="m249.42 378.58h-12.625v-4.879h30.977v4.879h-12.625v34.325h-5.728v-34.325z" fill="#fff"/>
<path d="m283.54 398.7-12.765-24.9h6.543l9.309 19.771 9.948-19.771h6.278l-13.561 24.792v14.236h-5.748v-14.128z" fill="#fff"/>
<path d="m317.91 393.44c0-12.781 7.054-20.458 20.02-20.458 6.082 0 9.823 1.945 11.343 2.95l-1.576 4.614c-2.167-1.117-4.884-2.456-9.658-2.456-7.705 0-14.165 4.285-14.165 14.795 0 10.72 6.732 15.507 15.25 15.507 3.638 0 6.949-1.174 8.959-2.17l1.351 4.614c-2.002 1.057-5.317 2.616-11.282 2.616-13.083-4e-3 -20.242-7.958-20.242-20.012z" fill="#fff"/>
<path d="m397.71 398.49v-24.787h5.925v24.397c0 7.793 4.518 10.329 10.06 10.329 5.86 0 10.173-2.926 10.173-11.596v-23.127h5.647v23.353c0 12.806-8.501 16.343-15.82 16.343-7.801-8e-3 -15.985-3.211-15.985-14.912z" fill="#fff"/>
<path d="m352.64 393.2c0-12.34 7.914-20.125 19.976-20.125 12.701 0 18.891 8.674 18.891 20.233 0 12.17-7.314 20.289-19.911 20.289-12.279 5e-3 -18.956-8.227-18.956-20.397zm32.995 0.056c0-8.722-4.622-15.342-13.505-15.342-9.261 0-13.674 6.616-13.674 15.226 0 8.393 4.252 15.562 13.296 15.562 9.63 4e-3 13.883-6.715 13.883-15.446z" fill="#fff"/>
<path d="m437.9 373.7h7.576l18.039 32.886-0.214-4.767v-28.119h5.856v39.2h-8.055l-17.669-32.327 0.217 4.377v27.95h-5.747v-39.2z" fill="#fff"/>
<path d="m476.41 393.52c0-12.777 6.994-20.45 19.855-20.45 6.029 0 9.739 1.949 11.242 2.941l-1.56 4.614c-2.143-1.109-4.839-2.443-9.574-2.443-7.641 0-14.052 4.276-14.052 14.783 0 10.731 6.673 15.511 15.125 15.511 3.609 0 6.89-1.166 8.879-2.171l1.351 4.614c-1.989 1.062-5.281 2.612-11.198 2.612-12.974-4e-3 -20.068-7.942-20.068-20.011z" fill="#fff"/>
<path d="m514.93 373.64h5.944v39.293h-5.944z" fill="#fff"/>
<path d="m531 373.64h5.771v34.341h16.58v4.952h-22.355v-39.293z" fill="#fff"/>
</g>
</g>
</svg>
