<?xml version="1.0" encoding="UTF-8"?>
<svg version="1.1" viewBox="0 0 250 91" xml:space="preserve" xmlns="http://www.w3.org/2000/svg"><defs><clipPath id="a"><path d="M 0,841.89 H 595.276 V 0 H 0 Z"/></clipPath></defs><path transform="matrix(.8395 0 0 -.8395 -118.8 225.22)" d="m351.28 251.69c-0.532 0-0.93293-0.40194-0.93293-0.93294v-19.541h1.3587v18.438l12.859-14.422v-4.0156h1.361v20.436h-1.361v-14.376l-12.393 13.941c-0.273 0.273-0.46907 0.47229-0.89107 0.47229zm-109.19-0.03723c-0.65505 0-1.4355-0.27961-1.4355-1.6146v-18.822h1.3587v18.822c0 0.20905 0.03278 0.26992 0.07678 0.25592h0.53975c0.216 0 0.2747-5.1e-4 0.4467-0.28151l4.4995-6.7842c0.801-1.204 1.1656-1.7542 2.4336-1.7542 1.266 0 1.6326 0.5502 2.4336 1.7542l4.5065 6.7981c0.16399 0.266 0.19649 0.26755 0.40248 0.26755l0.61654-0.00233s0.03489-0.05359 0.03489-0.25359v-18.822h1.361v18.822c0 1.335-0.80069 1.6146-1.4727 1.6146h-0.61188c-0.62799 0-1.1221-0.28555-1.4611-0.83755l-4.4506-6.7842c-0.78499-1.196-0.8077-1.1958-1.3587-1.1958-0.55196 0-0.57502-1.6e-4 -1.361 1.1958l-4.4414 6.7725c-0.343 0.556-0.86226 0.84918-1.5053 0.84918h-0.61188zm31.034 0c-2.002 0-2.5586-1.3661-3.0966-2.6941l-2.3033-5.9071c-0.434-1.1428-0.64445-2.3439-0.64445-3.6689v-8.1661h1.3587v6.1909h13.038v-6.1909h1.361v8.1661c0 1.325-0.21043 2.5266-0.65143 3.6876l-2.4824 5.8605c-0.574 1.399-1.1178 2.722-3.0547 2.722h-3.5247zm17.391 0v-20.436h1.361v7.0913h6.9144c5.1978 0 5.9001 2.6709 5.9001 5.2859v2.6639c0 2.668-0.70229 5.3952-5.9001 5.3952h-8.2755zm20.953 0v-20.436h1.3587v7.0913h6.9168c5.198 0 5.8978 2.6709 5.8978 5.2859v2.6639c0 2.668-0.69976 5.3952-5.8978 5.3952h-8.2755zm19.582 0v-1.3587h5.579v-17.719h-5.579v-1.3587h12.445v1.3587h-5.5046v17.719h5.5046v1.3587h-12.445zm48.811 0c-4.6798 0-6.2607-1.3163-6.2607-5.2161v-10.079c0-3.8928 1.6968-5.1416 6.9796-5.1416h7.6636v8.2359h-1.3587v-6.8772h-6.3049c-4.8377 0-5.6186 1.1151-5.6186 3.7829v10.079c0 2.719 0.68088 3.8574 4.8997 3.8574h6.7283v1.3587h-6.7283zm-196.4-0.43739a0.14753 0.14753 0 0 1-0.12796-0.14657 0.14753 0.14753 0 0 1 0.1489-0.14657 0.14753 0.14753 0 0 1 0.14657 0.14657 0.14753 0.14753 0 0 1-0.14657 0.14657 0.14753 0.14753 0 0 1-0.02094 0zm-5.0206-0.06049a0.14753 0.14753 0 0 1-0.14658-0.14889 0.14753 0.14753 0 0 1 0.14658-0.14657 0.14753 0.14753 0 0 1 0.14889 0.14657 0.14753 0.14753 0 0 1-0.14889 0.14889zm94.678-0.86081h3.527c0.95699 0 1.2447-0.57747 1.8077-1.8915l2.4754-5.8442c0.366-0.99 0.54441-2.0297 0.54441-3.1757v-0.61421h-13.038v0.61421c0 1.146 0.17808 2.1844 0.54208 3.1664l2.3033 5.9071c0.499 1.306 0.80596 1.838 1.838 1.838zm18.752 0h6.9144c3.78 0 4.5414-1.5445 4.5414-4.0365v-2.6639c0-2.488-0.74439-3.9272-4.5414-3.9272h-6.9144v10.628zm20.953 0h6.9144c3.779 0 4.5391-1.5445 4.5391-4.0365v-2.6639c0-2.488-0.74307-3.9272-4.5391-3.9272h-6.9144v10.628zm-131.87-1.5285a0.27198 0.27198 0 0 1-0.27221-0.27221 0.27198 0.27198 0 0 1 0.27221-0.2722 0.27198 0.27198 0 0 1 0.2722 0.2722 0.27198 0.27198 0 0 1-0.2722 0.27221zm5.016 0a0.24265 0.24265 0 0 1-0.24429-0.24429 0.24265 0.24265 0 0 1 0.24429-0.24196 0.24265 0.24265 0 0 1 0.24196 0.24196 0.24265 0.24265 0 0 1-0.24196 0.24429zm-10.011-0.12098a0.14753 0.14753 0 0 1-0.14889-0.1489 0.14753 0.14753 0 0 1 0.14889-0.14657 0.14753 0.14753 0 0 1 0.14658 0.14657 0.14753 0.14753 0 0 1-0.14658 0.1489zm2.5289-2.1986a0.43792 0.43792 0 0 1-0.43738-0.43739 0.43792 0.43792 0 0 1 0.43738-0.43972 0.43792 0.43792 0 0 1 0.43739 0.43972 0.43792 0.43792 0 0 1-0.43739 0.43739zm4.9788 0a0.47941 0.47941 0 0 1-0.47927-0.47927 0.47941 0.47941 0 0 1 0.47927-0.47927 0.47941 0.47941 0 0 1 0.47927 0.47927 0.47941 0.47941 0 0 1-0.47927 0.47927zm5.0393-0.14658a0.27198 0.27198 0 0 1-0.27221-0.26987 0.27198 0.27198 0 0 1 0.27221-0.27221 0.27198 0.27198 0 0 1 0.2722 0.27221 0.27198 0.27198 0 0 1-0.2722 0.26987zm-15.099-0.16518a0.14753 0.14753 0 0 1-0.14657-0.14657 0.14753 0.14753 0 0 1 0.14657-0.1489 0.14753 0.14753 0 0 1 0.14657 0.1489 0.14753 0.14753 0 0 1-0.14657 0.14657zm35.282-0.02094a0.14753 0.14753 0 0 1-0.12564-0.14657 0.14753 0.14753 0 0 1 0.14658-0.1489 0.14753 0.14753 0 0 1 0.14657 0.1489 0.14753 0.14753 0 0 1-0.14657 0.14657 0.14753 0.14753 0 0 1-0.02094 0zm5.0206-0.02094a0.14753 0.14753 0 0 1-0.12796-0.14657 0.14753 0.14753 0 0 1 0.1489-0.1489 0.14753 0.14753 0 0 1 0.14657 0.1489 0.14753 0.14753 0 0 1-0.14657 0.14657 0.14753 0.14753 0 0 1-0.02094 0zm5.0183-0.04187a0.14753 0.14753 0 0 1-0.12563-0.14658 0.14753 0.14753 0 0 1 0.14657-0.14657 0.14753 0.14753 0 0 1 0.1489 0.14657 0.14753 0.14753 0 0 1-0.1489 0.14658 0.14753 0.14753 0 0 1-0.02094 0zm-37.75-1.9078a0.74905 0.74905 0 0 1-0.74914-0.74914 0.74905 0.74905 0 0 1 0.74914-0.74915 0.74905 0.74905 0 0 1 0.74914 0.74915 0.74905 0.74905 0 0 1-0.74914 0.74914zm4.9578-0.14425a0.58312 0.58312 0 0 1-0.58396-0.58395 0.58312 0.58312 0 0 1 0.58396-0.58164 0.58312 0.58312 0 0 1 0.58396 0.58164 0.58312 0.58312 0 0 1-0.58396 0.58395zm-10.018-0.14657a0.41718 0.41718 0 0 1-0.41878-0.41645 0.41718 0.41718 0 0 1 0.41878-0.41645 0.41718 0.41718 0 0 1 0.41645 0.41645 0.41718 0.41718 0 0 1-0.41645 0.41645zm35.282-0.06049a0.3757 0.3757 0 0 1-0.37689-0.37689 0.3757 0.3757 0 0 1 0.37689-0.37458 0.3757 0.3757 0 0 1 0.37458 0.37458 0.3757 0.3757 0 0 1-0.37458 0.37689zm5.0183-0.02094a0.29273 0.29273 0 0 1-0.29081-0.29314 0.29273 0.29273 0 0 1 0.29081-0.29314 0.29273 0.29273 0 0 1 0.29314 0.29314 0.29273 0.29273 0 0 1-0.29314 0.29314zm-10.06-0.02093a0.29273 0.29273 0 0 1-0.29082-0.29315 0.29273 0.29273 0 0 1 0.29082-0.29314 0.29273 0.29273 0 0 1 0.29314 0.29314 0.29273 0.29273 0 0 1-0.29314 0.29315zm-15.12-0.1047a0.20976 0.20976 0 0 1-0.20938-0.20939 0.20976 0.20976 0 0 1 0.20938-0.20938 0.20976 0.20976 0 0 1 0.20939 0.20938 0.20976 0.20976 0 0 1-0.20939 0.20939zm10.102-0.02094a0.14753 0.14753 0 0 1-0.12796-0.14657 0.14753 0.14753 0 0 1 0.1489-0.1489 0.14753 0.14753 0 0 1 0.14657 0.1489 0.14753 0.14753 0 0 1-0.14657 0.14657 0.14753 0.14753 0 0 1-0.02094 0zm20.12-0.02094a0.14753 0.14753 0 0 1-0.12795-0.14657 0.14753 0.14753 0 0 1 0.14889-0.14657 0.14753 0.14753 0 0 1 0.14658 0.14657 0.14753 0.14753 0 0 1-0.14658 0.14657 0.14753 0.14753 0 0 1-0.02094 0zm-37.813-1.7821a0.97722 0.97722 0 0 1-0.97714-0.97714 0.97722 0.97722 0 0 1 0.97714-0.97714 0.97722 0.97722 0 0 1 0.97714 0.97714 0.97722 0.97722 0 0 1-0.97714 0.97714zm-4.916-0.12563a0.83202 0.83202 0 0 1-0.8329-0.83057 0.83202 0.83202 0 0 1 0.8329-0.8329 0.83202 0.83202 0 0 1 0.8329 0.8329 0.83202 0.83202 0 0 1-0.8329 0.83057zm35.159-0.18612a0.56237 0.56237 0 0 1-0.56302-0.56302 0.56237 0.56237 0 0 1 0.56302-0.56303 0.56237 0.56237 0 0 1 0.5607 0.56303 0.56237 0.56237 0 0 1-0.5607 0.56302zm-25.203-0.02094a0.58312 0.58312 0 0 1-0.58163-0.58396 0.58312 0.58312 0 0 1 0.58163-0.58163 0.58312 0.58312 0 0 1 0.58396 0.58163 0.58312 0.58312 0 0 1-0.58396 0.58396zm20.204-0.04188a0.56237 0.56237 0 0 1-0.56302-0.56302 0.56237 0.56237 0 0 1 0.56302-0.56069 0.56237 0.56237 0 0 1 0.56302 0.56069 0.56237 0.56237 0 0 1-0.56302 0.56302zm-5.0393-0.14425a0.3757 0.3757 0 0 1-0.3769-0.37689 0.3757 0.3757 0 0 1 0.3769-0.37457 0.3757 0.3757 0 0 1 0.37457 0.37457 0.3757 0.3757 0 0 1-0.37457 0.37689zm15.12-0.08375a0.29273 0.29273 0 0 1-0.29315-0.29314 0.29273 0.29273 0 0 1 0.29315-0.29315 0.29273 0.29273 0 0 1 0.29314 0.29315 0.29273 0.29273 0 0 1-0.29314 0.29314zm-45.3-0.02094a0.27198 0.27198 0 0 1-0.27221-0.2722 0.27198 0.27198 0 0 1 0.27221-0.27221 0.27198 0.27198 0 0 1 0.2722 0.27221 0.27198 0.27198 0 0 1-0.2722 0.2722zm20.12-0.08143a0.14753 0.14753 0 0 1-0.1489-0.1489 0.14753 0.14753 0 0 1 0.1489-0.14657 0.14753 0.14753 0 0 1 0.14657 0.14657 0.14753 0.14753 0 0 1-0.14657 0.1489zm5.0393 0a0.20976 0.20976 0 0 1-0.20938-0.21171 0.20976 0.20976 0 0 1 0.20938-0.20939 0.20976 0.20976 0 0 1 0.20939 0.20939 0.20976 0.20976 0 0 1-0.20939 0.21171zm-17.651-1.5146a1.2261 1.2261 0 0 1-1.2261-1.2261 1.2261 1.2261 0 0 1 1.2261-1.2261 1.2261 1.2261 0 0 1 1.2261 1.2261 1.2261 1.2261 0 0 1-1.2261 1.2261zm4.895-0.18845a1.0602 1.0602 0 0 1-1.0609-1.0586 1.0602 1.0602 0 0 1 1.0609-1.0609 1.0602 1.0602 0 0 1 1.0609 1.0609 1.0602 1.0602 0 0 1-1.0609 1.0586zm20.327-0.20706a0.8735 0.8735 0 0 1-0.87245-0.87245 0.8735 0.8735 0 0 1 0.87245-0.87477 0.8735 0.8735 0 0 1 0.87477 0.87477 0.8735 0.8735 0 0 1-0.87477 0.87245zm4.9997-0.02094a0.8735 0.8735 0 0 1-0.87477-0.87245 0.8735 0.8735 0 0 1 0.87477-0.87245 0.8735 0.8735 0 0 1 0.87245 0.87245 0.8735 0.8735 0 0 1-0.87245 0.87245zm-35.2-0.06049a0.68683 0.68683 0 0 1-0.68632-0.68865 0.68683 0.68683 0 0 1 0.68632-0.68633 0.68683 0.68683 0 0 1 0.68866 0.68633 0.68683 0.68683 0 0 1-0.68866 0.68865zm40.219-0.12563a0.56237 0.56237 0 0 1-0.56069-0.56302 0.56237 0.56237 0 0 1 0.56069-0.5607 0.56237 0.56237 0 0 1 0.56302 0.5607 0.56237 0.56237 0 0 1-0.56302 0.56302zm-15.057-0.06282a0.56237 0.56237 0 0 1-0.56302-0.56069 0.56237 0.56237 0 0 1 0.56302-0.56302 0.56237 0.56237 0 0 1 0.56302 0.56302 0.56237 0.56237 0 0 1-0.56302 0.56069zm-10.144-0.08143a0.41718 0.41718 0 0 1-0.41644-0.41877 0.41718 0.41718 0 0 1 0.41644-0.41645 0.41718 0.41718 0 0 1 0.41645 0.41645 0.41718 0.41718 0 0 1-0.41645 0.41877zm5.1021-0.14657a0.33421 0.33421 0 0 1-0.3327-0.33269 0.33421 0.33421 0 0 1 0.3327-0.33502 0.33421 0.33421 0 0 1 0.33502 0.33502 0.33421 0.33421 0 0 1-0.33502 0.33269zm-25.243-0.10236a0.14753 0.14753 0 0 1-0.14657-0.1489 0.14753 0.14753 0 0 1 0.14657-0.14657 0.14753 0.14753 0 0 1 0.1489 0.14657 0.14753 0.14753 0 0 1-0.1489 0.1489zm50.425 0a0.18902 0.18902 0 0 1-0.19077-0.18845 0.18902 0.18902 0 0 1 0.19077-0.19078 0.18902 0.18902 0 0 1 0.18845 0.19078 0.18902 0.18902 0 0 1-0.18845 0.18845zm-37.864-1.3447c-0.51627-0.01195-1.0215-0.4191-1.2307-0.56535 0.03-0.949 0.12675-1.7639-0.60024-1.9799v-0.06049c-0.755 0.025-1.6699 0.15423-1.8589-0.41877h-0.06049c0.01-0.9408 0.06087-1.5399-0.30013-2.1009-1.364 0.014-1.2129-0.01975-1.9799-0.53975-0.23776-0.97896-0.14988-1.1874 0.30012-1.9194 0.10405-0.039 0.05765-0.01249 0.11865-0.06049h1.2028c0.388-0.171 0.78043-1.0718 0.53743-1.6798-0.175-0.438-0.51888-0.55588-0.83988-0.83988-0.695 0.028-1.3403 0.12323-1.4983-0.41877h-0.06049c0.01-0.941 0.06088-1.5399-0.30012-2.1009h-1.3191c-0.70404-0.226-1.2557-1.5525-0.66074-2.3405l0.05817-0.17914h1.3215c0.231-0.23 0.48724-0.29874 0.60024-0.66074 0.415-0.564-0.14161-1.1896-0.36061-1.5006-0.689-0.197-1.5634-0.25441-1.7984 0.48159h-0.06049v1.3796c-0.096 0.135-0.67037 0.18063-0.90037 0.23963-0.986 0.251-2.1916-1.1509-1.5006-2.1009v-0.41878c0.367 0.125 1.0306 0.06849 1.5006 0.06049 0.231-0.23 0.48725-0.29873 0.60025-0.66073 0.423-0.559-0.17776-1.3751-0.53976-1.5611-0.203-0.104-0.61037-0.07217-0.90037-0.05817-0.69173 0.6447-1.0797 0.96703-0.66073 2.159-1.039 0.364-2.3726 0.08011-2.6406-0.71889-0.19997-0.596 0.08985-1.1741-0.17915-1.6821h-1.5006c-0.172-0.171-0.46424-0.27826-0.60024-0.47926-0.539-0.794-0.00439-1.5134 0.36061-2.0404h1.3191c0.376-0.167 0.77425-1.0385 0.60025-1.7402-0.074-0.299-0.26929-0.48939-0.35829-0.77939h-1.3215c-0.225-0.233-0.50224-0.35414-0.60024-0.7189-0.18496-0.25796-0.11551-0.81235 0.06049-1.0214 0.107-0.303 0.36275-0.37724 0.53975-0.60024 0.83203-0.109 0.99076-0.05439 1.6798 0.36061v1.5006c0.257 0.135 0.54087 0.3381 0.83987 0.4211 1.015 0.283 1.8286-0.84448 1.5006-1.7402-0.118-0.322-0.41225-0.47423-0.60025-0.72123-1.475 0.056-1.7338-0.16226-1.6798-1.6193 0.292-0.31476 0.36887-0.69188 0.83987-0.83988v-0.06049h1.3192c0.22803-0.147 0.52496-1.863 0.24196-2.28v-0.23963c-0.34898-0.057-0.86247 0.127-1.3215 0-0.674-0.186-1.3154-1.1719-0.77939-1.9799 0.59-0.89 1.2699-0.19325 1.9799-0.60025 0.19497-0.238 0.33614-1.3599 0.17914-1.8589-0.068-0.217-0.29678-0.42458-0.41878-0.60258h-1.2005c-0.633-0.593-0.85338-0.62941-0.77938-1.7984 0.2-0.204 0.43424-0.49623 0.60024-0.72123h1.261c0.328-0.146 0.73243-1.0378 0.53743-1.6798-0.104-0.34375-0.40992-0.57387-0.59792-0.83987h-1.3191c-0.151-0.067-0.26461-0.33727-0.36061-0.47927-0.53-0.787-0.12837-1.4009 0.23963-1.9799 0.10402-0.039 0.05998-0.01249 0.12098-0.06049h1.4983l0.41878-0.4211v-1.6193c0.159-0.359 1.0512-0.69627 1.7402-0.47927 0.354 0.111 0.51671 0.45941 0.78171 0.65841-8e-3 0.398-0.11551 1.2286 0.06049 1.5006 0.077 0.209 0.1798 0.20961 0.2978 0.36061h1.5611l0.60024 0.53976v1.4401l0.53976 0.53976c1.189-0.014 1.2829-0.04866 1.9799 0.4211v1.3796l0.47926 0.53976c0.359 0.243 1.4497 0.288 1.8007 0 0.139-0.04501 0.13363-0.06298 0.23963-0.12098-0.03-1.034-0.01737-1.7779 0.77939-1.9799 0.251-0.17804 0.63486-0.09249 0.96086-0.06049 0.169 0.163 0.45024 0.2401 0.60024 0.4211 0.09098 0.11 0.08414 0.26161 0.17914 0.36061v1.2587c0.053 0.09997 0.30911 0.12947 0.42111 0.18147 1.037 0.48098 1.5665-0.16408 2.0985-0.54208-8e-3 -0.35897-0.09551-1.0782 0.06049-1.3192 0.082-0.248 0.28908-0.40726 0.54208-0.47926v-0.06049h1.4378c0.16499-0.066 0.32426-0.31378 0.47926-0.41878v-1.3215c0.243-0.253 0.41572-0.65839 0.78171-0.77939 0.618-0.20497 1.2172 0.10353 1.7402-0.18147v-1.4401c0.421-0.448 0.74123-1.17 1.8612-0.89804 0.187 0.045 0.36291 0.14414 0.59791 0.17914 0.12 0.351 0.06849 0.98713 0.06049 1.4401 0.52 0.55696 1.1689 1.2418 2.1009 0.53975 0.208-0.156 0.26078-0.5089 0.41878-0.7189 0-0.77996-0.24876-1.0001-0.53976-1.4401h-1.6798c-0.09201-0.066-0.07298-0.2991-0.12098-0.4211-0.302-0.766-0.09627-1.7024 0.66073-1.9194 0.597-0.432 1.2453 0.19161 1.6193 0.36061 0.084 0.423 0.06649 1.0418 0.06049 1.5588 0.18 0.097 0.31926 0.27961 0.47926 0.36061 0.399 0.201 1.6282 0.09902 1.8612-0.12098l0.17914-0.05816c-8e-3 -0.436-0.13451-1.3791 0.06049-1.6821 0.162-0.431 0.98159-0.79676 1.6216-0.53976 0.591 0.238 0.81739 0.72927 0.77939 1.6193-0.261 0.281-0.31022 0.64071-0.72122 0.78171v0.06049c-0.537-7e-3 -1.2683-0.06302-1.6193 0.12098-0.08801 0.378-0.29098 1.3209-0.12098 1.8589 0.056 0.178 0.23445 0.33475 0.30245 0.53975h1.3796c0.159 0.16 0.41543 0.28827 0.53743 0.47927 0.45877 0.717 0.04308 1.7324-0.59792 1.9194-0.16499 0.127-0.91432 0.22149-1.1423 0.06049-0.185 0.0029-0.30678 0.02149-0.41878 0.06049-0.097 0.516 0.12351 1.4159-0.06049 1.9799-0.068 0.20999-0.30278 0.36275-0.41877 0.53975h-1.261c-0.129 0.136-0.36627 0.21461-0.47927 0.36061-0.108 0.14-0.10296 0.25262-0.24196 0.36062-0.107 0.868 0.0971 1.2634 0.4211 1.7984h1.2005c0.18176 0.196 0.39325 0.49574 0.60025 0.66074 0.11203 1.052-0.12253 1.521-0.95853 1.8007-0.184 0.061-0.7207 0.123-0.9027 0-0.306 0.016-0.30426 0.06915-0.47926 0.17915v1.8007c-0.163 0.157-0.34927 0.42125-0.47927 0.60025h-1.2005c-0.399 0.408-1.0664 0.83292-0.77939 1.7379 0.088 0.276 0.32178 0.50071 0.41878 0.78171h1.261c0.53797 0.227 0.90526 1.3349 0.47926 1.9799-0.161 0.243-0.48889 0.35975-0.71889 0.53975h-1.261c-0.19703 0.13-0.38964 1.6249-0.23964 2.1009 0.044 0.138 0.18064 0.25178 0.23964 0.41878 0.45205-9e-3 1.1781-0.08535 1.4401 0.11865 0.54376 0.18 1.0077 1.1017 0.66073 1.8007-0.099 0.2-0.34726 0.40524-0.47926 0.60024h-1.261c-0.42441 0.193-0.6981 1.2477-0.4211 1.8007 0.149 0.297 0.51422 0.42073 0.72122 0.66073 0.613 0.042 1.2162-0.055 1.7402 0-0.108 1.073-0.2771 2.2186 0.7189 2.5196v0.06049c0.85901-0.013 1.1858-0.0352 1.6798 0.2978-5e-3 0.4607-0.11851 1.2776 0.06049 1.6216l0.60025 0.60025h1.3796c0.179 0.08 0.32026 0.41275 0.47926 0.53975v1.4401l0.4816 0.53975h1.3796c0.288 0.123 0.42741 0.53023 0.65841 0.72123-9e-3 0.646-0.05553 1.4124 0.18147 1.7984h1.4401c0.862 0.805 1.331 1.2136 0.47927 2.5196h-1.4401c-0.405 0.162-0.86573 0.99524-0.66073 1.7402 0.087 0.316 0.36859 0.48439 0.48159 0.77939 2.0485-0.061 2.1024-0.22577 2.0404 1.8612-0.375 0.363-0.96823 0.96291-1.8612 0.59792-0.268-0.109-0.43373-0.37843-0.66073-0.53743v-1.5006c-0.305-0.64804-2.0502-0.50449-2.4592-0.06049-0.156 0.238-0.07049 0.96447-0.06049 1.3215-0.5 0.487-0.71775 0.74541-1.6798 0.65841-0.328-0.329-0.99588-0.6588-0.83988-1.4378 0.056-0.279 0.19496-0.53221 0.24196-0.84221l0.05816-0.06049h1.7402c0.108-0.064 0.17163-0.29977 0.23963-0.41877 0.475-0.83597 0.11088-1.2167-0.30012-1.8007-0.829-0.227-1.7099-0.14126-1.9799 0.66074-0.14 0.41602 0.13484 1.0456-0.05816 1.3796-0.391 0.289-1.6484 0.261-2.0404 0l-0.4211-0.41878v-1.3215c-0.219-0.49895-1.7197-0.93477-2.3405-0.41877-0.395 0.203-0.03515 0.86114-0.17915 1.3191-0.123 0.388-0.56185 0.72788-0.96085 0.83988-1.199 0.337-2.0107-1.36-1.2587-2.159l0.06049-0.18147h1.7984c0.488-0.343 0.29302-1.8029-0.12098-2.1009-0.769-0.55295-1.823-0.06926-2.038 0.66074-0.118 0.39997 0.03551 0.98447-0.06049 1.3215-0.134 0.03802-0.15863 0.04266-0.23963 0.11866-0.589-0.013-1.9598-0.17153-2.2218 0.18147-0.094 0.226 0.113 0.91414 0 1.3191-0.235 0.842-1.6891 1.4564-2.4591 0.65841-0.16204-0.249-0.07049-1.0096-0.06049-1.3796-0.468-0.457-0.73227-0.67992-1.6193-0.59792-0.179 0.165-0.46424 0.27626-0.60024 0.47926-0.43 0.639-0.05701 1.6234 0.53975 1.7984v0.06049c0.45505-5e-3 1.0861-0.05951 1.4401 0.06049 0.39102 1.571 0.33259 1.5512-0.6584 2.4591-0.505-5e-3 -1.2206-0.07451-1.6216 0.06049v1.6798c-0.257 0.272-0.35738 0.60623-0.77938 0.72122-0.164 0.10755-0.33744 0.14825-0.50951 0.14425zm14.01-20.304c-0.03802-0.134-0.04498-0.15996-0.12098-0.24196-0.037-1.638-0.04963-1.3853 0.90036-2.038 0.95103-0.019 1.8037 0.81574 1.261 1.8007l-0.4211 0.41877c-0.34503 0.08202-0.76898 0.12765-1.261 0.11865-0.14-0.111-0.21028-0.09216-0.35828-0.05816zm-18.896 20.05a1.1639 1.1639 0 0 1-1.1633-1.1633 1.1639 1.1639 0 0 1 1.1633-1.1633 1.1639 1.1639 0 0 1 1.1633 1.1633 1.1639 1.1639 0 0 1-1.1633 1.1633zm30.054-0.02094a1.1432 1.1432 0 0 1-1.1423-1.1423 1.1432 1.1432 0 0 1 1.1423-1.1423 1.1432 1.1432 0 0 1 1.1446 1.1423 1.1432 1.1432 0 0 1-1.1446 1.1423zm-4.9346-0.12331a1.1017 1.1017 0 0 1-1.1028-1.1028 1.1017 1.1017 0 0 1 1.1028-1.1004 1.1017 1.1017 0 0 1 1.1004 1.1004 1.1017 1.1017 0 0 1-1.1004 1.1028zm-15.267-0.10469a0.93573 0.93573 0 0 1-0.93527-0.93527 0.93573 0.93573 0 0 1 0.93527-0.93526 0.93573 0.93573 0 0 1 0.93527 0.93526 0.93573 0.93573 0 0 1-0.93527 0.93527zm25.21-0.05118a0.84565 0.84565 0 0 1-0.84453-0.84686 0.84565 0.84565 0 0 1 0.84453-0.84453 0.84565 0.84565 0 0 1 0.84686 0.84453 0.84565 0.84565 0 0 1-0.84686 0.84686zm-14.964-0.13494a0.74905 0.74905 0 0 1-0.74914-0.74915 0.74905 0.74905 0 0 1 0.74914-0.74914 0.74905 0.74905 0 0 1 0.74915 0.74914 0.74905 0.74905 0 0 1-0.74915 0.74915zm-25.18-0.14425a0.47941 0.47941 0 0 1-0.47927-0.47926 0.47941 0.47941 0 0 1 0.47927-0.47927 0.47941 0.47941 0 0 1 0.47926 0.47927 0.47941 0.47941 0 0 1-0.47926 0.47926zm20.057-0.02094a0.54163 0.54163 0 0 1-0.54208-0.54208 0.54163 0.54163 0 0 1 0.54208-0.54208 0.54163 0.54163 0 0 1 0.54208 0.54208 0.54163 0.54163 0 0 1-0.54208 0.54208zm25.18-0.14657a0.35495 0.35495 0 0 1-0.35363-0.35363 0.35495 0.35495 0 0 1 0.35363-0.35596 0.35495 0.35495 0 0 1 0.35596 0.35596 0.35495 0.35495 0 0 1-0.35596 0.35363zm-34.984-1.5751c0.301-0.00313 0.57561-0.0364 0.70261-0.1489 0.178-0.07 0.16812-0.13963 0.30012-0.23963v-1.3191c-0.303-0.314-0.95926-1.1217-1.6193-0.66074-0.373 0.06-0.69472 0.3719-0.78172 0.7189-0.17704 0.239-0.09249 0.57937-0.06049 0.90037 0.192 0.196 0.45025 0.5009 0.60025 0.71889 0.229 5e-3 0.55749 0.03325 0.85849 0.03025zm27.372-0.228a1.1017 1.1017 0 0 1-1.1004-1.1028 1.1017 1.1017 0 0 1 1.1004-1.1004 1.1017 1.1017 0 0 1 1.1028 1.1004 1.1017 1.1017 0 0 1-1.1028 1.1028zm-35.033-0.20706a0.89425 0.89425 0 0 1-0.89339-0.89572 0.89425 0.89425 0 0 1 0.89339-0.89338 0.89425 0.89425 0 0 1 0.89339 0.89338 0.89425 0.89425 0 0 1-0.89339 0.89572zm14.913-0.04188a0.93573 0.93573 0 0 1-0.93527-0.93526 0.93573 0.93573 0 0 1 0.93527-0.9376 0.93573 0.93573 0 0 1 0.93759 0.9376 0.93573 0.93573 0 0 1-0.93759 0.93526zm5.1649 0a0.97722 0.97722 0 0 1-0.97715-0.97714 0.97722 0.97722 0 0 1 0.97715-0.97715 0.97722 0.97722 0 0 1 0.97714 0.97715 0.97722 0.97722 0 0 1-0.97714 0.97714zm20.059-0.24894a0.56237 0.56237 0 0 1-0.56302-0.56302 0.56237 0.56237 0 0 1 0.56302-0.56302 0.56237 0.56237 0 0 1 0.56069 0.56302 0.56237 0.56237 0 0 1-0.56069 0.56302zm-45.344-0.31175a0.27198 0.27198 0 0 1-0.2722-0.27221 0.27198 0.27198 0 0 1 0.2722-0.2722 0.27198 0.27198 0 0 1 0.27221 0.2722 0.27198 0.27198 0 0 1-0.27221 0.27221zm50.404-0.12564a0.14753 0.14753 0 0 1-0.12795-0.14657 0.14753 0.14753 0 0 1 0.14889-0.14657 0.14753 0.14753 0 0 1 0.14658 0.14657 0.14753 0.14753 0 0 1-0.14658 0.14657 0.14753 0.14753 0 0 1-0.02094 0zm-40.554-1.3866c0.85198-0.025 0.94647-0.41737 1.3215-0.90037 0.01-0.92172-0.33072-1.0158-0.78172-1.4378-0.84496-9e-3 -0.98812 0.17194-1.4401 0.47694-0.03802 0.134-0.04498 0.15996-0.12098 0.24196-0.038 1.422 0.21635 1.1073 1.0214 1.6193zm27.881-0.02326a1.2676 1.2676 0 0 1-1.268-1.268 1.2676 1.2676 0 0 1 1.268-1.2656 1.2676 1.2676 0 0 1 1.2656 1.2656 1.2676 1.2676 0 0 1-1.2656 1.268zm5.0276-0.38388a0.76268 0.76268 0 0 1-0.76077-0.7631 0.76268 0.76268 0 0 1 0.76077-0.76311 0.76268 0.76268 0 0 1 0.76311 0.76311 0.76268 0.76268 0 0 1-0.76311 0.7631zm-40.102-0.27919a0.60386 0.60386 0 0 1-0.6049-0.60489 0.60386 0.60386 0 0 1 0.6049-0.60258 0.60386 0.60386 0 0 1 0.60257 0.60258 0.60386 0.60386 0 0 1-0.60257 0.60489zm45.237-0.33269a0.2305 0.2305 0 0 1-0.23033-0.23033 0.2305 0.2305 0 0 1 0.23033-0.23032 0.2305 0.2305 0 0 1 0.23032 0.23032 0.2305 0.2305 0 0 1-0.23032 0.23033zm-50.383-0.10237a0.14753 0.14753 0 0 1-0.14658-0.14889 0.14753 0.14753 0 0 1 0.14658-0.14658 0.14753 0.14753 0 0 1 0.14889 0.14658 0.14753 0.14753 0 0 1-0.14889 0.14889zm20.394-1.368c0.243 0.0028 0.47128-0.01573 0.58628-0.09073 0.487-0.192 0.54064-1.2842 0.23964-1.7402-0.145-0.22-0.46374-0.30726-0.66074-0.47926-1.047-0.058-1.5423 0.33297-1.4983 1.5588 0.225 0.231 0.44173 0.48823 0.66073 0.72123 0.173 4e-3 0.42937 0.02724 0.67237 0.03024zm9.6458-0.09073 0.53975-0.06049c0.126-0.132 0.3776-0.21429 0.4816-0.35829 0.08996-0.125 0.08014-0.25561 0.17914-0.36061 0.011-0.403 0.00985-0.70637-0.17914-0.90037-0.141-0.416-0.99796-0.68512-1.382-0.30012-0.783 0.256-0.65202 1.6802 0.12098 1.8612 0.051 0.04002 0.18763 0.07965 0.23963 0.11865zm5.0393 0c0.70202 0.016 1.2156-0.21314 1.3796-0.7189h0.06049v-1.2005c-0.17-0.42705-1.2659-0.81861-1.7379-0.36061-0.57199 0.189-0.65025 0.83761-0.60025 1.5006 0.239 0.255 0.27274 0.53874 0.66074 0.66074 0.051 0.04002 0.1853 0.07965 0.2373 0.11865zm-27.341-0.18147a1.1017 1.1017 0 0 1-1.1028-1.1004 1.1017 1.1017 0 0 1 1.1028-1.1028 1.1017 1.1017 0 0 1 1.1004 1.1028 1.1017 1.1017 0 0 1-1.1004 1.1004zm7.2425-0.05816 0.47927-0.06049c0.136-0.135 0.33159-0.30678 0.48159-0.41878 0.031-0.305 0.11251-0.56539-0.06049-0.77939-0.13501-0.40997-0.50451-0.50659-1.0795-0.48159-0.188 0.177-0.38459 0.19959-0.48159 0.48159-0.32 0.41295 0.0501 1.0287 0.4211 1.1377 0.051 0.04001 0.18763 0.08198 0.23963 0.12098zm27.79-0.02327a0.8735 0.8735 0 0 1-0.87245-0.87478 0.8735 0.8735 0 0 1 0.87245-0.87244 0.8735 0.8735 0 0 1 0.87477 0.87244 0.8735 0.8735 0 0 1-0.87477 0.87478zm-40.219-0.58163a0.37569 0.37569 0 0 1-0.37457-0.37457 0.37569 0.37569 0 0 1 0.37457-0.3769 0.37569 0.37569 0 0 1 0.3769 0.3769 0.37569 0.37569 0 0 1-0.3769 0.37457zm45.3-0.06282a0.27198 0.27198 0 0 1-0.26988-0.2722 0.27198 0.27198 0 0 1 0.26988-0.26988 0.27198 0.27198 0 0 1 0.27221 0.26988 0.27198 0.27198 0 0 1-0.27221 0.2722zm-25.371-1.7309c0.308-1e-3 0.50341-0.03547 0.65841-0.18147 0.212-0.073 0.30061-0.20177 0.36061-0.41877 0.13596-0.193 0.05551-0.64439-0.06049-0.77939-0.098-0.281-0.29259-0.30559-0.48159-0.48159-0.303-7e-3 -0.5589-0.00702-0.7189 0.12098-0.204 0.067-0.29561 0.15361-0.36061 0.36061-0.154 0.198-0.162 0.64855 0 0.83755 0.114 0.331 0.35657 0.35208 0.60257 0.54208zm10.26 0c0.83999-0.154 1.2272-0.46861 1.1982-1.5006-0.179-0.183-0.39175-0.46274-0.53975-0.66074-0.31697-0.04605-0.78502-0.12851-1.019 0.06049-0.51602 0.171-0.62925 0.64964-0.60025 1.3796 0.173 0.166 0.39876 0.41224 0.53976 0.60024 0.167 0.019 0.3161 0.04398 0.4211 0.12098zm7.4379-0.09306a0.89425 0.89425 0 0 1-0.89571-0.89571 0.89425 0.89425 0 0 1 0.89571-0.89339 0.89425 0.89425 0 0 1 0.89339 0.89339 0.89425 0.89425 0 0 1-0.89339 0.89571zm-27.837-0.02792c0.281-7e-3 0.45392-0.04314 0.59792-0.17914 0.268-0.097 0.2651-0.28559 0.4211-0.48159 1e-3 -0.57897-0.14861-0.70102-0.36061-1.019-0.56001-0.15-1.1336-0.11639-1.3796 0.36061-0.26976 0.52199 0.10127 1.0942 0.47926 1.1982 0.051 0.04001 0.18996 0.08198 0.24196 0.12098zm15.297 0c0.539-0.11 0.61969-0.31573 0.90269-0.66073 3e-3 -0.332-0.02547-0.5539-0.18147-0.7189-0.107-0.225-0.29626-0.22161-0.47926-0.36061-0.5 0.01-0.61137 0.17261-0.90037 0.36061-0.06102 0.252-0.12598 0.42539-0.12098 0.77939 0.129 0.134 0.20361 0.37826 0.36061 0.47926 0.11 0.07101 0.31878 0.05398 0.41878 0.12098zm-10.018-0.12098c0.293-0.104 0.55374-0.11877 0.66074-0.41877 0.151-0.205 0.08449-0.37874 0.06049-0.66074-0.089-0.083-0.17463-0.19512-0.23963-0.30012-0.128-0.03001-0.21945-0.05265-0.30245-0.11865-0.373 0.016-0.4779 0.11863-0.7189 0.23963-0.06402 0.241-0.12698 0.42039-0.12098 0.77939l0.4211 0.4211c0.139 0.014 0.16883 0.01016 0.23963 0.05816zm-12.475-0.03722a0.8735 0.8735 0 0 1-0.87477-0.87478 0.8735 0.8735 0 0 1 0.87477-0.87245 0.8735 0.8735 0 0 1 0.87245 0.87245 0.8735 0.8735 0 0 1-0.87245 0.87478zm40.156-0.41645a0.33421 0.33421 0 0 1-0.33502-0.3327 0.33421 0.33421 0 0 1 0.33502-0.33502 0.33421 0.33421 0 0 1 0.3327 0.33502 0.33421 0.33421 0 0 1-0.3327 0.3327zm-45.26-0.06049a0.37569 0.37569 0 0 1-0.37457-0.3769 0.37569 0.37569 0 0 1 0.37457-0.37457 0.37569 0.37569 0 0 1 0.3769 0.37457 0.37569 0.37569 0 0 1-0.3769 0.3769zm-5.0811-0.20939a0.14753 0.14753 0 0 1-0.12563-0.14657 0.14753 0.14753 0 0 1 0.14657-0.14657 0.14753 0.14753 0 0 1 0.14657 0.14657 0.14753 0.14753 0 0 1-0.14657 0.14657 0.14753 0.14753 0 0 1-0.02094 0zm14.741-1.4355c0.89497 3e-3 0.94214-0.40737 1.3191-0.90037 3e-3 -0.334-0.01981-0.60938-0.17681-0.77938-0.2-0.591-1.1861-0.67213-1.6821-0.30013-0.172 0.129-0.23162 0.42525-0.36062 0.60025-0.022 0.69704 0.14874 1.1086 0.66074 1.2586 0.051 0.04002 0.18763 0.08198 0.23963 0.12098zm28.009-0.11865a0.95647 0.95647 0 0 1-0.9562-0.95621 0.95647 0.95647 0 0 1 0.9562-0.95853 0.95647 0.95647 0 0 1 0.95621 0.95853 0.95647 0.95647 0 0 1-0.95621 0.95621zm-7.7287-0.18147h0.66074c0.526-0.49302 0.70173-0.43488 0.66073-1.3796l-0.4211-0.47927c-0.128-0.03002-0.21712-0.05498-0.30012-0.12098-0.75999-3e-3 -0.80749 0.28725-1.2005 0.60025-0.023 0.32276-0.023 0.45638 0 0.77938 0.202 0.208 0.39224 0.39825 0.60024 0.60025zm-27.409-0.23498a0.79054 0.79054 0 0 1-0.79102-0.78869 0.79054 0.79054 0 0 1 0.79102-0.79103 0.79054 0.79054 0 0 1 0.79102 0.79103 0.79054 0.79054 0 0 1-0.79102 0.78869zm22.428-0.00465h0.4211c0.08-0.105 0.18413-0.17364 0.30013-0.23964 0.068-0.263 0.175-0.44173 0-0.66073-0.084-0.23-0.20762-0.21761-0.36062-0.36061-0.356 0.016-0.44373 0.11063-0.66073 0.23963-0.0988 0.225-0.19076 0.52122 0 0.72122 0.078 0.165 0.18412 0.18313 0.30012 0.30013zm-4.9788-0.06049h0.30013c0.31704-0.326 0.38663-0.43986 0.23963-0.96086-0.128-0.03001-0.21712-0.05265-0.30012-0.11865-0.276 0.024-0.35076 0.09014-0.53976 0.17914-0.062 0.25-0.155 0.38424 0 0.60024 0.079 0.197 0.16812 0.17513 0.30012 0.30013zm-4.9788-0.06049c0.39874-0.044 0.69777-0.44439 0.41877-0.77939-0.091-0.11498-0.13012-0.13847-0.30012-0.18147-0.139-0.068-0.31827 0.04198-0.47927 0.12098-0.0621 0.15-0.11349 0.24661-0.06049 0.36061 0.028 0.27 0.07615 0.2571 0.17915 0.4211 0.139 0.014 0.17096 0.01017 0.24196 0.05817zm27.769-0.10237a0.41718 0.41718 0 0 1-0.41644-0.41645 0.41718 0.41718 0 0 1 0.41644-0.41645 0.41718 0.41718 0 0 1 0.41645 0.41645 0.41718 0.41718 0 0 1-0.41645 0.41645zm-45.279-0.08143a0.37569 0.37569 0 0 1-0.3769-0.3769 0.37569 0.37569 0 0 1 0.3769-0.37457 0.37569 0.37569 0 0 1 0.37457 0.37457 0.37569 0.37569 0 0 1-0.37457 0.3769zm80.693-0.01861c-4.6799 0-6.2607-1.3161-6.2607-5.2161v-10.079c0-3.8449 1.5808-5.144 6.2607-5.144h6.512v1.361h-6.512c-4.2189 0-4.8997 1.115-4.8997 3.7829v10.079c0 2.719 0.68078 3.8574 4.8997 3.8574h6.512v1.3587h-6.512zm13.145 0v-20.439h1.3587v8.3522h9.6877c2.45 0 3.4968-0.90615 3.4968-3.0292v-5.3231h1.3587v5.3231c0 1.763-0.66319 3.8282-3.6201 4.2692 0.87591 0.938 1.0283 2.3348 1.0283 3.7597v2.4824c0 2.883-1.719 4.6042-4.6019 4.6042h-8.7082zm23.184 0v-20.439h13.131v1.361h-11.77v8.3243h8.8548v1.3564h-8.8548v8.0382h11.77v1.3587h-13.131zm25.338 0c-2.001 0-2.5563-1.3661-3.0943-2.6941l-2.3056-5.9071c-0.43399-1.143-0.64444-2.3439-0.64444-3.6689v-8.1684h1.361v6.1932h13.04v-6.1932h1.3587v8.1684c0 1.326-0.21043 2.5262-0.65143 3.6852l-2.4824 5.8652c-0.575 1.399-1.1167 2.7197-3.0547 2.7197h-3.527zm13.685 0v-1.3587h7.3821v-19.08h1.3587v19.08h7.3798v1.3587h-16.118-0.00233zm20.916 0v-1.3587h5.5814v-17.719h-5.5814v-1.361h12.447v1.361h-5.5069v17.719h5.5069v1.3587h-12.447zm19.045 0v-8.2732c0-1.522 0.18921-2.6612 0.61421-3.6852l2.3731-5.7582c0.612-1.49 1.267-2.722 3.092-2.722h3.1687c1.825 0 2.4786 1.233 3.0896 2.722l2.3731 5.7582c0.425 1.025 0.61653 2.1632 0.61653 3.6852v8.2732h-1.361v-8.2732c0-1.236-0.17643-2.2714-0.53743-3.1594l-2.3777-5.7628c-0.509-1.27-0.79707-1.8822-1.8031-1.8822h-3.1687c-1.006 0-1.2944 0.61082-1.8054 1.8868l-2.3754 5.7558c-0.362 0.891-0.53975 1.9258-0.53975 3.1618v8.2732h-1.3587zm23.077 0v-20.439h13.131v1.361h-11.77v8.3243h8.8548v1.3564h-8.8548v8.0382h11.77v1.3587h-13.131zm-224.19-0.23033a0.14753 0.14753 0 0 1-0.14657-0.1489 0.14753 0.14753 0 0 1 0.14657-0.14657 0.14753 0.14753 0 0 1 0.1489 0.14657 0.14753 0.14753 0 0 1-0.1489 0.1489zm100.31-1.1284h7.3472c2.6809 0 3.2432-1.7655 3.2432-3.2455v-2.5173c0-2.722-0.81828-3.641-3.2432-3.641h-7.3472v9.4038zm47.163 0h3.527c0.95801 0 1.2457-0.57747 1.8077-1.8915l2.4754-5.8442c0.366-0.992 0.54674-2.0327 0.54674-3.1757v-0.61653h-13.04v0.61653c0 1.145 0.17808 2.1834 0.54208 3.1664l2.3033 5.9047c0.5 1.306 0.80696 1.8403 1.838 1.8403zm-104.78-0.30245a1.0394 1.0394 0 0 1-1.0376-1.04 1.0394 1.0394 0 0 1 1.0376-1.04 1.0394 1.0394 0 0 1 1.04 1.04 1.0394 1.0394 0 0 1-1.04 1.04zm-7.5287-0.35595c0.271 3e-3 0.45725-0.00598 0.60025-0.12098 0.207-0.073 0.2581-0.19213 0.4211-0.30013 0.06102-0.253 0.12598-0.42538 0.12098-0.77938-0.144-0.144-0.3141-0.37076-0.4211-0.53976-0.287-0.06396-0.74886-0.11251-0.96086 0.06049-0.33801 0.21604-0.44077 0.49251-0.41877 1.0795 0.155 0.149 0.35326 0.37076 0.47926 0.53976 0.12298 0.024 0.11514 0.01549 0.17914 0.06049zm-27.462-0.03956a0.91499 0.91499 0 0 1-0.91433-0.91432 0.91499 0.91499 0 0 1 0.91433-0.91433 0.91499 0.91499 0 0 1 0.91432 0.91433 0.91499 0.91499 0 0 1-0.91432 0.91432zm12.163-0.20008h0.47927c0.068-0.071 0.15163-0.13047 0.23963-0.18147 0.068-0.263 0.175-0.43941 0-0.6584-0.078-0.165-0.18412-0.18313-0.30012-0.30013-0.25 0-0.35727 0.00566-0.47927 0.11866-0.165 0.078-0.18312 0.18412-0.30012 0.30012 0.014 0.139 0.01249 0.17096 0.06049 0.24196 0.033 0.333 0.13212 0.30826 0.30012 0.47926zm-17.286-0.13261a0.47941 0.47941 0 0 1-0.47927-0.47926 0.47941 0.47941 0 0 1 0.47927-0.47927 0.47941 0.47941 0 0 1 0.47926 0.47927 0.47941 0.47941 0 0 1-0.47926 0.47926zm45.258 0a0.41718 0.41718 0 0 1-0.41645-0.41645 0.41718 0.41718 0 0 1 0.41645-0.41645 0.41718 0.41718 0 0 1 0.41878 0.41645 0.41718 0.41718 0 0 1-0.41878 0.41645zm-17.712-0.04886h0.30012c0.068-0.071 0.15163-0.12814 0.23963-0.17914 0.038-0.52103-0.27241-0.87775-0.65841-0.53975l-0.12098 0.06049c-8e-3 0.42899 0.05064 0.4594 0.23964 0.6584zm-4.9206-0.11865 0.24196-0.12098v-0.35829c-0.166-0.029-0.17312-0.072-0.30012 0l-0.18147 0.05817c0.031 0.306 0.09087 0.2641 0.23963 0.4211zm-27.707-0.16286a0.14753 0.14753 0 0 1-0.1489-0.14889 0.14753 0.14753 0 0 1 0.1489-0.14658 0.14753 0.14753 0 0 1 0.14657 0.14658 0.14753 0.14753 0 0 1-0.14657 0.14889zm42.706-1.4308a1.1017 1.1017 0 0 1-1.1004-1.1028 1.1017 1.1017 0 0 1 1.1004-1.1004 1.1017 1.1017 0 0 1 1.1028 1.1004 1.1017 1.1017 0 0 1-1.1028 1.1028zm-35.054-0.37458a0.91499 0.91499 0 0 1-0.91432-0.91432 0.91499 0.91499 0 0 1 0.91432-0.91433 0.91499 0.91499 0 0 1 0.91666 0.91433 0.91499 0.91499 0 0 1-0.91666 0.91432zm27.655-0.13028c0.20781-0.00279 0.38253-0.02498 0.50253-0.12098 0.34889-0.223 0.38229-0.49586 0.35829-0.96086-0.135-0.136-0.30678-0.32926-0.41878-0.47926-0.65099-0.052-0.75333 0.1121-1.1423 0.4211-0.021 0.218-0.089 0.33194 0 0.47694 0.04 0.43176 0.24759 0.44473 0.48159 0.66073 0.07575 0.00129 0.14939 0.00327 0.21869 0.00233zm-15.46-0.00233c0.425-2e-3 0.53696-0.09363 0.78171-0.23963 0.03002-0.128 0.05498-0.21712 0.12098-0.30012-0.017-0.516-0.21759-0.53539-0.48159-0.77939-0.231 5e-3 -0.35526 0.02098-0.47926 0.12098-0.23 0.084-0.21762 0.20528-0.36062 0.35828-2e-3 0.548 0.16278 0.58088 0.41878 0.83988zm28.004-0.1582a0.50015 0.50015 0 0 1-0.50021-0.50021 0.50015 0.50015 0 0 1 0.50021-0.5002 0.50015 0.50015 0 0 1 0.5002 0.5002 0.50015 0.50015 0 0 1-0.5002 0.50021zm-45.281-0.20706a0.39644 0.39644 0 0 1-0.39551-0.39551 0.39644 0.39644 0 0 1 0.39551-0.39784 0.39644 0.39644 0 0 1 0.39551 0.39784 0.39644 0.39644 0 0 1-0.39551 0.39551zm27.658-0.05351 0.30013-0.18147c-0.024-0.12297-0.01549-0.11515-0.06049-0.17915-0.07-0.16971-0.00715-0.11214-0.17915-0.17914-0.06201-0.048-0.01598-0.02249-0.12098-0.06049l-0.17914 0.17914c0.031 0.306 0.09063 0.26411 0.23963 0.42111zm-5.0998-0.06049c0.17573-0.053 0.16463-0.02471 0.23963-0.18147 0.048-0.06202 0.02249-0.01366 0.06049-0.11866-0.09298-0.06802-0.04814-0.06698-0.17914-0.12098-0.06201-0.048-0.01622-0.02016-0.12098-0.05816-0.167 0.275-0.171 0.20427 0 0.47927zm27.804-0.07213a0.14753 0.14753 0 0 1-0.1489-0.14657 0.14753 0.14753 0 0 1 0.1489-0.14889 0.14753 0.14753 0 0 1 0.14657 0.14889 0.14753 0.14753 0 0 1-0.14657 0.14657zm-40.826-1.4285c0.79796 0.025 1.2891-0.17138 1.4401-0.77938 0.17896-0.244 0.11884-0.75386-0.05816-0.96086-0.147-0.431-0.49788-0.42541-0.83988-0.65841-0.73503 6e-3 -0.85598 0.30792-1.261 0.59792-0.05096 0.36101-0.15451 1.0525 0.06049 1.3215 0.174 0.264 0.41341 0.29026 0.65841 0.47926zm-6.9982-0.53975a0.76268 0.76268 0 0 1-0.7631-0.7631 0.76268 0.76268 0 0 1 0.7631-0.76311 0.76268 0.76268 0 0 1 0.76311 0.76311 0.76268 0.76268 0 0 1-0.76311 0.7631zm12.279 0c0.393-0.02 0.4469-0.14763 0.71889-0.23963 0.03002-0.128 0.05498-0.21713 0.12098-0.30013-0.017-0.516-0.21526-0.53771-0.47926-0.78171-0.393 8e-3 -0.48923 0.10396-0.72123 0.24196-0.07 0.268-0.186 0.49222 0 0.72122 0.084 0.23 0.20762 0.21529 0.36062 0.35829zm15.241-0.11865c0.42476-2e-3 0.53439-0.09364 0.77939-0.23964 0.065-0.277 0.142-0.46673 0-0.66073-0.079-0.25099-0.50488-0.54845-0.83988-0.30245-0.193 0.065-0.23812 0.10645-0.30012 0.30245-0.294 0.403 0.11461 0.68737 0.36061 0.90037zm12.67-0.00698a0.50015 0.50015 0 0 1-0.5002-0.50021 0.50015 0.50015 0 0 1 0.5002-0.5002 0.50015 0.50015 0 0 1 0.50021 0.5002 0.50015 0.50015 0 0 1-0.50021 0.50021zm-45.281-0.3327a0.25124 0.25124 0 0 1-0.25126-0.25126 0.25124 0.25124 0 0 1 0.25126-0.25127 0.25124 0.25124 0 0 1 0.25127 0.25127 0.25124 0.25124 0 0 1-0.25127 0.25126zm22.53-0.02094h0.30013l0.06049-0.06049c-0.014-0.139-0.01249-0.16863-0.06049-0.23963-0.05501-0.12898-0.05298-0.08847-0.12098-0.18147-0.19 0.03402-0.1728 0.05398-0.2978 0.12098 0.014 0.244 0.02765 0.23161 0.11865 0.36061zm5.2207-0.06049 0.11865-0.06049c-0.014-0.139-0.01249-0.16863-0.06049-0.23963v-0.06049c-0.139 0.04502-0.13363 0.06298-0.23963 0.12098v0.11865c0.075 0.04002 0.12547 0.06598 0.18147 0.12098zm22.632-0.02326a0.14753 0.14753 0 0 1-0.12564-0.14657 0.14753 0.14753 0 0 1 0.14658-0.1489 0.14753 0.14753 0 0 1 0.14657 0.1489 0.14753 0.14753 0 0 1-0.14657 0.14657 0.14753 0.14753 0 0 1-0.02094 0zm-42.687-1.5541a1.1017 1.1017 0 0 1-1.1004-1.1028 1.1017 1.1017 0 0 1 1.1004-1.1004 1.1017 1.1017 0 0 1 1.1028 1.1004 1.1017 1.1017 0 0 1-1.1028 1.1028zm27.374-0.04188c0.08762 2e-3 0.17209 2e-3 0.25359 0 0.57044-0.01586 0.98254-0.16188 1.126-0.60025 0.115-0.16595 0.116-0.974 0-1.14-0.165-0.356-0.52788-0.33175-0.83988-0.53975-0.69199 6e-3 -0.81149 0.27675-1.2005 0.53975-0.03002 0.128-0.05265 0.21713-0.11865 0.30013-0.011 0.881 0.24392 0.93363 0.59792 1.3796 0.12298 0.024 0.11747 0.01549 0.18147 0.06049zm-20.101-0.24196c0.387-0.107 0.53087-0.27592 0.83987-0.59792 6e-3 -0.287 0.00235-0.50973-0.11865-0.66073-0.134-0.203-0.29959-0.26911-0.48159-0.42111-0.271-3e-3 -0.45492 0.00598-0.59792 0.12098-0.58971 0.193-0.49349 1.1591-0.06049 1.4401 0.106 0.06902 0.32078 0.05965 0.41878 0.11865zm27.739-0.17449a0.6246 0.6246 0 0 1-0.62351-0.62351 0.6246 0.6246 0 0 1 0.62351-0.62351 0.6246 0.6246 0 0 1 0.62584 0.62351 0.6246 0.6246 0 0 1-0.62584 0.62351zm-40.114-0.12331a0.50015 0.50015 0 0 1-0.50021-0.5002 0.50015 0.50015 0 0 1 0.50021-0.50021 0.50015 0.50015 0 0 1 0.5002 0.50021 0.50015 0.50015 0 0 1-0.5002 0.5002zm27.555-0.12098c0.139-0.014 0.16864-0.01249 0.23964-0.06049 0.61099-0.188 0.25989-0.83989-0.42111-0.71889-0.073 0.15199-0.18616 0.35275-0.05816 0.53975 0.073 0.14997 0.13563 0.13663 0.23963 0.23963zm-10.141-0.11865h0.30013c0.05302-0.14198 0.02398-0.10047 0.12098-0.18147-0.023-0.257-0.19411-0.51961-0.42111-0.36061-0.15804 0.073-0.18763 0.12312-0.23963 0.30012l0.23963 0.24196zm27.907-0.13261a0.14753 0.14753 0 0 1-0.14657-0.1489 0.14753 0.14753 0 0 1 0.14657-0.14657 0.14753 0.14753 0 0 1 0.14889 0.14657 0.14753 0.14753 0 0 1-0.14889 0.1489zm-7.7567-1.7844a0.93573 0.93573 0 0 1-0.93526-0.93527 0.93573 0.93573 0 0 1 0.93526-0.93759 0.93573 0.93573 0 0 1 0.93527 0.93759 0.93573 0.93573 0 0 1-0.93527 0.93527zm-7.5496-0.12331h0.53975c0.16-0.166 0.3361-0.23059 0.4211-0.48159 0.143-0.196 0.07817-0.32592 0.05817-0.59792-0.172-0.161-0.36876-0.31559-0.53976-0.48159-0.68197-9e-3 -0.71202 0.21008-1.019 0.54208-9e-3 0.68197 0.20776 0.71202 0.53976 1.019zm-27.546-0.08375a0.64534 0.64534 0 0 1-0.64678-0.64678 0.64534 0.64534 0 0 1 0.64678-0.64445 0.64534 0.64534 0 0 1 0.64445 0.64445 0.64534 0.64534 0 0 1-0.64445 0.64678zm12.426-0.09772c0.171-0.02201 0.25961-0.03765 0.36061-0.11865l0.30012-0.30012c2e-3 -0.175 0.00251-0.32811-0.06049-0.42111-0.09099-0.25699-0.24677-0.25877-0.41877-0.41877-0.328 0.025-0.45274 0.11863-0.66074 0.23963l-0.06049 0.60025c0.09298 0.09 0.13515 0.15212 0.17915 0.30012 0.125 0.02601 0.27461 0.05565 0.36061 0.11865zm27.835-0.40016a0.2305 0.2305 0 0 1-0.23033-0.23033 0.2305 0.2305 0 0 1 0.23033-0.23032 0.2305 0.2305 0 0 1 0.23033 0.23032 0.2305 0.2305 0 0 1-0.23033 0.23033zm-17.696-0.01861h0.18147l0.05817-0.06049c-0.012-0.15576-0.02417-0.20413-0.05817-0.30013-0.19 0.03395-0.17512 0.05166-0.30012 0.11866 0.04502 0.139 0.06065 0.13596 0.11865 0.24196zm-27.646-0.04421a0.14753 0.14753 0 0 1-0.1489-0.1489 0.14753 0.14753 0 0 1 0.1489-0.14657 0.14753 0.14753 0 0 1 0.14657 0.14657 0.14753 0.14753 0 0 1-0.14657 0.1489zm22.786-0.01628v-0.24196c-0.12297 0.024-0.11514 0.01549-0.17914 0.06049h-0.12098v0.12098l0.30012 0.06049zm12.419-1.4401c0.6308-0.01 0.85898-0.21677 1.261-0.41877 0.039-0.10402 0.01249-0.05998 0.06049-0.12098v-1.2005c-0.184-0.418-1.0636-0.75327-1.6216-0.47927l-0.53743 0.53976c-0.16504 1.206 0.16355 1.1698 0.83755 1.6798zm-20.278-0.12098c0.72195-0.141 0.747-0.41387 1.14-0.83987 8e-3 -0.83098-0.26325-0.89515-0.60025-1.3192-0.265-0.033-0.56237-0.06449-0.90037-0.06049-0.152 0.148-0.42524 0.31211-0.60024 0.42111-0.07402 0.28297-0.12998 0.59502-0.12098 1.019 0.243 0.257 0.31922 0.55173 0.72122 0.66073 0.071 0.04802 0.28862 0.07165 0.36062 0.11865zm-7.2378-0.30942a0.76268 0.76268 0 0 1-0.76078-0.76311 0.76268 0.76268 0 0 1 0.76078-0.7631 0.76268 0.76268 0 0 1 0.7631 0.7631 0.76268 0.76268 0 0 1-0.7631 0.76311zm35.1-0.16751a0.58312 0.58312 0 0 1-0.58164-0.58164 0.58312 0.58312 0 0 1 0.58164-0.58396 0.58312 0.58312 0 0 1 0.58396 0.58396 0.58312 0.58312 0 0 1-0.58396 0.58164zm-22.702-0.18147 0.35829-0.12098c0.037-0.165 0.099-0.33227 0-0.47927-0.122-0.322-0.40874-0.24698-0.66074-0.12098-0.12296 0.297-0.09151 0.39974 0.06049 0.66074 0.139 0.014 0.17096 0.01249 0.24196 0.06049zm10.079 0c0.226-0.019 0.2721-0.05398 0.4211-0.12098 0.093-0.233 0.08349-0.26776 0.06049-0.53976-0.156-0.07502-0.3211-0.14198-0.4211-0.12098-0.255 0.05-0.21529 0.10463-0.35829 0.23963 0.014 0.139 0.01249 0.17096 0.06049 0.24196 0.06 0.232 0.10431 0.16913 0.23731 0.30013zm-27.658-0.12796a0.25124 0.25124 0 0 1-0.25126-0.25127 0.25124 0.25124 0 0 1 0.25126-0.25126 0.25124 0.25124 0 0 1 0.25127 0.25126 0.25124 0.25124 0 0 1-0.25127 0.25127zm22.8-0.17217v-0.23963c-0.12297 0.024-0.11767 0.01316-0.18147 0.05816-0.048 0.06202-0.02249 0.01598-0.06049 0.12098 0.091 0.0329 0.10196 0.04249 0.24196 0.06049zm14.848-1.5913a1.0809 1.0809 0 0 1-1.0818-1.0818 1.0809 1.0809 0 0 1 1.0818-1.0795 1.0809 1.0809 0 0 1 1.0795 1.0795 1.0809 1.0809 0 0 1-1.0795 1.0818zm-29.91-0.1047a0.91499 0.91499 0 0 1-0.91433-0.91432 0.91499 0.91499 0 0 1 0.91433-0.91433 0.91499 0.91499 0 0 1 0.91432 0.91433 0.91499 0.91499 0 0 1-0.91432 0.91432zm6.961-0.16518h0.60024c0.132-0.141 0.32227-0.30778 0.47927-0.41878 0.047-0.58104-0.05212-0.70583-0.30012-1.0818-0.32-0.076-0.46888-0.08817-0.83988-0.05817-0.24 0.24098-0.72061 0.668-0.36061 1.14 0.096 0.211 0.2681 0.27078 0.4211 0.41878zm15.36-0.12098h0.53975c0.141-0.152 0.27278-0.32694 0.41878-0.47694-0.018-0.402-0.14612-0.48322-0.30012-0.72122-0.69997-0.17198-1.089 0.08087-1.019 0.83987l0.36062 0.35829zm12.796-0.23265a0.3757 0.3757 0 0 1-0.3769-0.37458 0.3757 0.3757 0 0 1 0.3769-0.37689 0.3757 0.3757 0 0 1 0.37457 0.37689 0.3757 0.3757 0 0 1-0.37457 0.37458zm-22.756-0.12564c0.177-0.049 0.22628-0.10314 0.35828-0.17914l-0.05816-0.36061c-0.164-0.033-0.22661-0.084-0.36061 0-0.12901 0.05502-0.08615 0.05298-0.17915 0.12098 0.031 0.306 0.09064 0.26177 0.23964 0.41877zm-17.547-0.01861a0.25124 0.25124 0 0 1-0.25127-0.25126 0.25124 0.25124 0 0 1 0.25127-0.25127 0.25124 0.25124 0 0 1 0.25126 0.25127 0.25124 0.25124 0 0 1-0.25126 0.25126zm22.586-0.04188h0.23964l0.06049-0.05816v-0.36061c-0.10402-0.039-0.05998-0.01249-0.12098-0.06049-0.225 0.02202-0.22362 0.04698-0.36062 0.12098 0.029 0.27195 0.05747 0.21628 0.18147 0.35828zm-12.912-1.5518c0.09719 2e-3 0.19214 0.00134 0.28384-0.00466 0.1835-0.01112 0.3452-0.0433 0.4467-0.1233 0.316-0.109 0.37457-0.35776 0.60257-0.53976 0.121-0.91504 0.00289-0.9401-0.42111-1.5611-0.83799-0.226-1.1107-0.17753-1.8007 0.18147v1.8007c0.192 0.048 0.45824 0.12764 0.60024 0.23964 0.09225 2e-3 0.19129 0.00498 0.28849 0.00698zm20.471-0.24662c0.18576 4e-3 0.3806 0.00751 0.4816-0.06049 0.298-0.06 0.33475-0.22161 0.53975-0.36061 0.08696-0.336 0.19451-0.69553-0.06049-0.95853-0.073-0.212-0.20177-0.30061-0.41877-0.36061-0.128-0.086-0.44074-0.06849-0.66074-0.06049-0.126 0.125-0.33259 0.26761-0.48159 0.36061-0.06102 0.25176-0.12365 0.42539-0.11865 0.77939 0.151 0.156 0.23777 0.41776 0.41877 0.53976 0.097 0.06502 0.21912 0.05497 0.30012 0.12097zm7.5217-0.17216a0.83202 0.83202 0 0 1-0.83057-0.8329 0.83202 0.83202 0 0 1 0.83057-0.83057 0.83202 0.83202 0 0 1 0.8329 0.83057 0.83202 0.83202 0 0 1-0.8329 0.8329zm-22.821-0.24894c0.345-8e-3 0.44274-0.07747 0.66074-0.18147 0.055-0.19 0.19649-0.39492 0.06049-0.59792-0.07676-0.209-0.18212-0.20961-0.30012-0.36061-0.252 0-0.40809 0.01298-0.54209 0.12098l-0.23963 0.23963c-2e-3 0.175-0.00251 0.32578 0.06049 0.41878 0.074 0.21 0.16912 0.22461 0.30012 0.36061zm-12.293-0.04188a0.50015 0.50015 0 0 1-0.5002-0.5002 0.50015 0.50015 0 0 1 0.5002-0.5002 0.50015 0.50015 0 0 1 0.50021 0.5002 0.50015 0.50015 0 0 1-0.50021 0.5002zm17.335-0.0791h0.47926c0.296-0.45 0.309-0.50653 0-0.95853-0.443-3e-3 -0.4829 0.08163-0.7189 0.23963v0.41878c0.089 0.083 0.17464 0.19412 0.23964 0.30012zm5.2184 0c0.234-0.057 0.31659-0.13763 0.48159-0.23963 0.016-0.39776-0.02261-0.55024-0.36061-0.60024-0.101-0.05096-0.18613-0.02851-0.30013 0.06048l-0.17914 0.18147c0.012 0.434 0.12629 0.40892 0.35829 0.59792zm17.726-0.25126a0.16827 0.16827 0 0 1-0.16751-0.16984 0.16827 0.16827 0 0 1 0.16751-0.16751 0.16827 0.16827 0 0 1 0.16984 0.16751 0.16827 0.16827 0 0 1-0.16984 0.16984zm-10.106-1.4285c0.3738-0.063 0.78198-0.23429 1.261-0.35829 0.05-1.556-0.07962-2.0539-1.5006-1.9799-0.573 0.536-0.78389 0.50878-0.71889 1.5588l0.4211 0.53975c0.157 0.112 0.38743 0.12464 0.53743 0.23964zm-27.581-0.3769a0.91499 0.91499 0 0 1-0.91433-0.91433 0.91499 0.91499 0 0 1 0.91433-0.91665 0.91499 0.91499 0 0 1 0.91432 0.91665 0.91499 0.91499 0 0 1-0.91432 0.91433zm7.2658-0.03955c0.19077-0.00458 0.34507-0.03018 0.45832-0.12098 0.281-0.098 0.30327-0.29259 0.47927-0.48159v-0.53976c-0.178-0.188-0.19727-0.38226-0.47927-0.47926-0.214-0.159-0.42922-0.08749-0.72122-0.06049-0.181 0.193-0.35376 0.40824-0.53976 0.60024-8e-3 0.72004 0.24825 0.75451 0.60025 1.0795 0.07175 0.00104 0.13881 0.00433 0.20241 0.00233zm5.0765-0.12331c0.231-5e-3 0.35526-0.01865 0.47926-0.11865 0.184-0.065 0.21761-0.14896 0.36061-0.24196 0.072-0.278 0.202-0.59288 0-0.83988-0.065-0.185-0.14663-0.21528-0.23963-0.35828-0.198-0.041-0.4439-0.06449-0.7189-0.06049l-0.4211 0.30012c-0.03002 0.128-0.05265 0.21712-0.11865 0.30012 7e-3 0.46 0.13787 0.54188 0.23963 0.83988 0.156 0.03876 0.30978 0.09014 0.41878 0.17914zm4.8601-0.05816c0.825 0.032 1.0564-0.25484 1.0214-1.0818-0.18-0.17-0.34676-0.31426-0.53976-0.47926-0.46 7e-3 -0.5442 0.13763-0.8422 0.23963-0.076 0.267-0.231 0.71486 0 0.96086 0.084 0.23 0.20761 0.21761 0.36061 0.36061zm5.2812-0.06049c0.288-0.041 0.39116-0.13896 0.59792-0.24196l0.06049-0.60025-0.30013-0.35828c-0.406-5e-3 -0.55439 0.04714-0.77939 0.17914-0.175 0.69901-0.05789 0.66435 0.42111 1.0214zm12.633-0.07212a0.58312 0.58312 0 0 1-0.58396-0.58164 0.58312 0.58312 0 0 1 0.58396-0.58396 0.58312 0.58312 0 0 1 0.58163 0.58396 0.58312 0.58312 0 0 1-0.58163 0.58164zm-40.282-0.28849a0.25124 0.25124 0 0 1-0.25127-0.25127 0.25124 0.25124 0 0 1 0.25127-0.25126 0.25124 0.25124 0 0 1 0.25126 0.25126 0.25124 0.25124 0 0 1-0.25126 0.25127zm45.279-0.06282a0.14753 0.14753 0 0 1-0.14657-0.1489 0.14753 0.14753 0 0 1 0.14657-0.14657 0.14753 0.14753 0 0 1 0.1489 0.14657 0.14753 0.14753 0 0 1-0.1489 0.1489zm-35.491-1.5518c0.25774 0.00194 0.50029-0.01538 0.63979-0.12563 0.343-0.12 0.43898-0.42373 0.66074-0.66073 0.031-0.77196-0.15974-1.2178-0.66074-1.4378-0.69004-0.302-1.4241 0.17941-1.5611 0.65841-0.111 0.167-0.06716 0.62904-0.05816 0.89804l0.35828 0.48159c0.127 0.08897 0.25461 0.07914 0.36061 0.17914 0.086 2e-3 0.17468 0.00634 0.26058 0.00698zm10.241-0.06514c0.60096-0.043 0.77391-0.29908 1.1377-0.54208 0.234-0.86697 0.17537-1.1254-0.23963-1.7984h-1.5588c-0.138 0.063-0.16796 0.27678-0.24196 0.41878-0.437 0.84297-0.01538 1.2102 0.36061 1.7402l0.54209 0.18147zm17.577-0.00233a1.1224 1.1224 0 0 1-1.1237-1.1214 1.1224 1.1224 0 0 1 1.1237-1.1214 1.1224 1.1224 0 0 1 1.1214 1.1214 1.1224 1.1224 0 0 1-1.1214 1.1214zm-22.521-0.17681c0.20782-0.0028 0.38276-0.02498 0.50253-0.12098 0.226-0.075 0.40726-0.25027 0.47926-0.47927 0.394-0.53101-0.14228-1.0315-0.35828-1.3215-0.205-0.0546-0.50523-0.20516-0.72123-0.05816-0.59498 0.041-1.1797 0.97861-0.66073 1.5006 0.105 0.298 0.33475 0.29194 0.53975 0.47694 0.07575 0.00128 0.1494 0.00326 0.2187 0.00233zm9.8017-0.06049c0.07175 0.00103 0.13891 2e-3 0.20241 0 0.19036-0.00458 0.34508-0.03018 0.45833-0.12098 0.363-0.124 0.34475-0.37341 0.53975-0.65841 0.015-0.85772-0.42314-1.173-1.3191-1.14-0.399 0.37204-0.62204 0.42165-0.60024 1.2586 0.151 0.156 0.23777 0.41776 0.41877 0.53976 0.097 0.06502 0.21912 0.05498 0.30012 0.12098zm5.2207-0.06049h0.4211c0.187-0.182 0.35543-0.35276 0.53743-0.53976 3e-3 -0.271-0.00365-0.45724-0.11865-0.60024-0.091-0.25676-0.24678-0.2611-0.41878-0.4211-1.178-0.045-1.1972 0.75212-0.72122 1.4401 0.128 0.03001 0.21712 0.05498 0.30012 0.12098zm-27.516-0.23963a0.58312 0.58312 0 0 1-0.58163-0.58396 0.58312 0.58312 0 0 1 0.58163-0.58396 0.58312 0.58312 0 0 1 0.58396 0.58396 0.58312 0.58312 0 0 1-0.58396 0.58396zm40.24-0.16751a0.3757 0.3757 0 0 1-0.37457-0.37458 0.3757 0.3757 0 0 1 0.37457-0.37689 0.3757 0.3757 0 0 1 0.3769 0.37689 0.3757 0.3757 0 0 1-0.3769 0.37458zm-45.318-0.24894a0.12679 0.12679 0 0 1-0.10702-0.12564 0.12679 0.12679 0 0 1 0.12563-0.12796 0.12679 0.12679 0 0 1 0.12796 0.12796 0.12679 0.12679 0 0 1-0.12796 0.12564 0.12679 0.12679 0 0 1-0.01861 0zm14.773-1.6239c1.187 0.037 1.5131-0.51511 1.4401-1.5611l-0.36061-0.47927c-0.37698-0.108-0.97314-0.334-1.3191 0-0.46903 0.156-0.56776 0.65814-0.53976 1.3191 0.206 0.212 0.39825 0.44874 0.60025 0.66074 0.12297 0.024 0.11514 0.01549 0.17914 0.06049zm20.399 0c0.164-1e-3 0.27561-0.00249 0.36061-0.06049 0.4-0.042 0.46822-0.2501 0.72122-0.4211 0.0531-0.32 0.18149-0.56105 0.06049-0.89805-0.134-0.37099-0.93712-0.96008-1.4401-0.54208-0.375 0.118-0.78459 0.79949-0.48159 1.2005 0.051 0.303 0.27175 0.51825 0.53975 0.60025 0.051 0.04002 0.18764 0.08198 0.23964 0.12098zm-27.479-0.01396a1.0394 1.0394 0 0 1-1.04-1.04 1.0394 1.0394 0 0 1 1.04-1.04 1.0394 1.0394 0 0 1 1.04 1.04 1.0394 1.0394 0 0 1-1.04 1.04zm22.26-0.04653 0.59792-0.06049c0.2-0.213 0.39657-0.44874 0.60257-0.66074 7e-3 -0.7258-0.1591-0.86565-0.4211-1.2586-0.12876-0.052-0.31478-0.10047-0.41878-0.18147-0.73203-1e-3 -0.80982 0.25908-1.2028 0.54208-0.106 0.716-0.02242 1.3413 0.60257 1.4983 0.051 0.04002 0.18764 0.08198 0.23964 0.12098zm12.689-0.13959a0.8735 0.8735 0 0 1-0.87245-0.87478 0.8735 0.8735 0 0 1 0.87245-0.87245 0.8735 0.8735 0 0 1 0.87477 0.87245 0.8735 0.8735 0 0 1-0.87477 0.87478zm189.49-0.3327c-5.276 0-7.7311-1.7033-7.7311-5.3603v-10.616c0-3.656 2.4551-5.3603 7.7311-5.3603 5.327 0 7.8102 1.7043 7.8102 5.3603v10.616c0 3.657-2.4832 5.3603-7.8102 5.3603zm-229.6-0.14424a0.33421 0.33421 0 0 1-0.33502-0.33502 0.33421 0.33421 0 0 1 0.33502-0.33502 0.33421 0.33421 0 0 1 0.33502 0.33502 0.33421 0.33421 0 0 1-0.33502 0.33502zm45.3-0.08376a0.2305 0.2305 0 0 1-0.23033-0.23032 0.2305 0.2305 0 0 1 0.23033-0.23033 0.2305 0.2305 0 0 1 0.23032 0.23033 0.2305 0.2305 0 0 1-0.23032 0.23032zm200.72-0.16518c-0.532 0-0.93061-0.40194-0.93061-0.93294v-19.541h1.3564v18.438l12.861-14.422v-4.0156h1.3587v20.436h-1.3587v-14.376l-12.393 13.941c-0.273 0.273-0.47139 0.47229-0.89339 0.47229zm-168.61-0.03723v-20.436h13.129v1.3587h-11.77v8.3243h8.8548v1.3587h-8.8548v8.0358h11.77v1.3587h-13.129zm19.943 0v-20.436h9.2107c5.5009 0 6.2584 2.5933 6.2584 5.3952v9.5364c0 2.721-0.74248 5.5046-6.2584 5.5046h-9.2107zm23.112 0v-15.511c0-3.6559 2.4456-5.358 7.6985-5.358 5.277 0 7.7334 1.7021 7.7334 5.358v15.511h-1.3587v-15.511c0-1.9769-0.7567-3.9993-6.3747-3.9993-5.586 0-6.3375 2.0224-6.3375 3.9993v15.511h-1.361zm29.224 0c-4.679 0-6.256-1.3161-6.256-5.2161v-10.076c0-3.845 1.577-5.144 6.256-5.144h6.5143v1.3587h-6.5143c-4.217 0-4.895 1.1173-4.895 3.7853v10.076c0 2.7189 0.67803 3.8574 4.895 3.8574h6.5143v1.3587h-6.5143zm18.577 0c-2.001 0-2.5563-1.3661-3.0943-2.6941l-2.3056-5.9071c-0.43195-1.144-0.64212-2.3439-0.64212-3.6689v-8.1661h1.3587v6.1909h13.04v-6.1909h1.3587v8.1661c0 1.326-0.20943 2.5262-0.65143 3.6852l-2.4801 5.8652c-0.576 1.399-1.1201 2.7197-3.0571 2.7197h-3.527zm13.687 0v-1.3587h7.3774v-19.078h1.361v19.078h7.3798v1.3587h-16.118zm20.916 0v-1.3587h5.5767v-17.719h-5.5767v-1.3587h12.445v1.3587h-5.5069v17.719h5.5069v1.3587h-12.445zm26.741-0.92828c5.682 0 6.4468-2.0213 6.4468-3.9993v-10.618c0-1.978-0.76482-3.9993-6.4468-3.9993-5.617 0-6.3747 2.0213-6.3747 3.9993v10.618c0 1.978 0.7577 3.9993 6.3747 3.9993zm-194.5-0.38853c0.67801-1e-3 0.93963-0.16113 1.3796-0.30013 0.056-1.6999 0.04574-2.321-1.6193-2.159-0.52303 0.491-1.1881 1.0239-0.54208 1.9799 0.123 0.182 0.39908 0.24978 0.54208 0.41878 0.139 0.0139 0.16863 0.01249 0.23963 0.06049zm-12.398-0.03723a1.0602 1.0602 0 0 1-1.0586-1.0586 1.0602 1.0602 0 0 1 1.0586-1.0609 1.0602 1.0602 0 0 1 1.0609 1.0609 1.0602 1.0602 0 0 1-1.0609 1.0586zm76.001-0.00465h7.852c4.08 0 4.8974-1.5879 4.8974-4.1459v-9.5364c0-2.1259-0.37246-4.0365-4.8974-4.0365h-7.852v17.717 0.00233zm69.554-0.00233h3.527c0.95797 0 1.2447-0.57514 1.8077-1.8891l2.4754-5.8466c0.366-0.9919 0.54441-2.0304 0.54441-3.1734v-0.61421h-13.038v0.61421c0 1.143 0.17908 2.1824 0.54208 3.1664l2.3033 5.9047c0.5 1.306 0.80597 1.838 1.838 1.838zm-158.6-0.01628 0.83988-0.06049c0.157-0.165 0.40924-0.35827 0.60024-0.47927 0.19-0.666 0.3089-1.6239-0.4211-1.8589-0.238-0.156-0.96214-0.07049-1.3191-0.06049-0.53699 0.554-0.62825 0.59225-0.60025 1.7402 0.122 0.117 0.17913 0.30277 0.30013 0.41877 0.152 0.146 0.43524 0.17013 0.60024 0.30013zm7.8776-0.01629a1.0602 1.0602 0 0 1-1.0586-1.0609 1.0602 1.0602 0 0 1 1.0586-1.0609 1.0602 1.0602 0 0 1 1.0609 1.0609 1.0602 1.0602 0 0 1-1.0609 1.0609zm12.282-0.16518c0.70003 5e-3 0.87366-0.16378 1.2587-0.41878 0.091-0.31376 0.33549-0.86116 0.06049-1.1982-0.09-0.253-0.28178-0.33808-0.41878-0.54208-0.30795-0.07402-0.63884-0.12766-1.0818-0.11866-0.158 0.147-0.41642 0.23878-0.53742 0.41878-0.353 0.525-0.10521 1.4021 0.29779 1.6821 0.129 0.08901 0.3041 0.08882 0.4211 0.17682zm-27.237-0.25127a0.79054 0.79054 0 0 1-0.79102-0.79102 0.79054 0.79054 0 0 1 0.79102-0.78869 0.79054 0.79054 0 0 1 0.79102 0.78869 0.79054 0.79054 0 0 1-0.79102 0.79102zm40.137-0.20706a0.58312 0.58312 0 0 1-0.58396-0.58396 0.58312 0.58312 0 0 1 0.58396-0.58163 0.58312 0.58312 0 0 1 0.58163 0.58163 0.58312 0.58312 0 0 1-0.58163 0.58396zm5.123-0.37224a0.14753 0.14753 0 0 1-0.1489-0.1489 0.14753 0.14753 0 0 1 0.1489-0.14657 0.14753 0.14753 0 0 1 0.14657 0.14657 0.14753 0.14753 0 0 1-0.14657 0.1489zm-50.383-0.02094a0.16827 0.16827 0 0 1-0.16751-0.16984 0.16827 0.16827 0 0 1 0.16751-0.16751 0.16827 0.16827 0 0 1 0.16984 0.16751 0.16827 0.16827 0 0 1-0.16984 0.16984zm17.465-1.5355a0.99796 0.99796 0 0 1-0.99808-0.99809 0.99796 0.99796 0 0 1 0.99808-0.99808 0.99796 0.99796 0 0 1 0.99808 0.99808 0.99796 0.99796 0 0 1-0.99808 0.99809zm-9.8319-0.06282a1.1017 1.1017 0 0 1-1.1004-1.1004 1.1017 1.1017 0 0 1 1.1004-1.1028 1.1017 1.1017 0 0 1 1.1028 1.1028 1.1017 1.1017 0 0 1-1.1028 1.1004zm20.183-0.02094a0.91499 0.91499 0 0 1-0.91433-0.91433 0.91499 0.91499 0 0 1 0.91433-0.91432 0.91499 0.91499 0 0 1 0.91433 0.91432 0.91499 0.91499 0 0 1-0.91433 0.91433zm14.85-0.06049a1.0394 1.0394 0 0 1-1.04-1.04 1.0394 1.0394 0 0 1 1.04-1.04 1.0394 1.0394 0 0 1 1.04 1.04 1.0394 1.0394 0 0 1-1.04 1.04zm-20.036-0.33269a0.6246 0.6246 0 0 1-0.62584-0.62584 0.6246 0.6246 0 0 1 0.62584-0.62351 0.6246 0.6246 0 0 1 0.62351 0.62351 0.6246 0.6246 0 0 1-0.62351 0.62584zm-20.057-0.26988a0.43792 0.43792 0 0 1-0.43971-0.43739 0.43792 0.43792 0 0 1 0.43971-0.43739 0.43792 0.43792 0 0 1 0.43739 0.43739 0.43792 0.43792 0 0 1-0.43739 0.43739zm45.258-0.06282a0.3757 0.3757 0 0 1-0.37457-0.37457 0.3757 0.3757 0 0 1 0.37457-0.3769 0.3757 0.3757 0 0 1 0.3769 0.3769 0.3757 0.3757 0 0 1-0.3769 0.37457zm-37.729-1.5355a1.2261 1.2261 0 0 1-1.2261-1.2261 1.2261 1.2261 0 0 1 1.2261-1.2261 1.2261 1.2261 0 0 1 1.2261 1.2261 1.2261 1.2261 0 0 1-1.2261 1.2261zm4.895-0.18612a0.99796 0.99796 0 0 1-0.99808-0.99808 0.99796 0.99796 0 0 1 0.99808-0.99808 0.99796 0.99796 0 0 1 0.99808 0.99808 0.99796 0.99796 0 0 1-0.99808 0.99808zm15.33-0.16518a0.8735 0.8735 0 0 1-0.87478-0.87478 0.8735 0.8735 0 0 1 0.87478-0.87245 0.8735 0.8735 0 0 1 0.87245 0.87245 0.8735 0.8735 0 0 1-0.87245 0.87478zm-25.203-0.20706a0.79054 0.79054 0 0 1-0.79102-0.79103 0.79054 0.79054 0 0 1 0.79102-0.79102 0.79054 0.79054 0 0 1 0.79102 0.79102 0.79054 0.79054 0 0 1-0.79102 0.79103zm40.116-0.06282a0.74905 0.74905 0 0 1-0.74914-0.74914 0.74905 0.74905 0 0 1 0.74914-0.74915 0.74905 0.74905 0 0 1 0.74914 0.74915 0.74905 0.74905 0 0 1-0.74914 0.74914zm-25.14-0.16518a0.50015 0.50015 0 0 1-0.5002-0.50021 0.50015 0.50015 0 0 1 0.5002-0.5002 0.50015 0.50015 0 0 1 0.50021 0.5002 0.50015 0.50015 0 0 1-0.50021 0.50021zm5.123-0.06282a0.41718 0.41718 0 0 1-0.41645-0.41645 0.41718 0.41718 0 0 1 0.41645-0.41878 0.41718 0.41718 0 0 1 0.41877 0.41878 0.41718 0.41718 0 0 1-0.41877 0.41645zm-25.243-0.24894a0.20976 0.20976 0 0 1-0.20939-0.20939 0.20976 0.20976 0 0 1 0.20939-0.20939 0.20976 0.20976 0 0 1 0.20939 0.20939 0.20976 0.20976 0 0 1-0.20939 0.20939zm50.362 0a0.2305 0.2305 0 0 1-0.23032-0.23033 0.2305 0.2305 0 0 1 0.23032-0.23032 0.2305 0.2305 0 0 1 0.23033 0.23032 0.2305 0.2305 0 0 1-0.23033 0.23033zm-12.486-1.5146a1.1432 1.1432 0 0 1-1.1423-1.1423 1.1432 1.1432 0 0 1 1.1423-1.1446 1.1432 1.1432 0 0 1 1.1423 1.1446 1.1432 1.1432 0 0 1-1.1423 1.1423zm-25.348-0.10237a0.99796 0.99796 0 0 1-0.99808-0.99808 0.99796 0.99796 0 0 1 0.99808-0.99808 0.99796 0.99796 0 0 1 0.99808 0.99808 0.99796 0.99796 0 0 1-0.99808 0.99808zm30.201-0.06282a1.0394 1.0394 0 0 1-1.04-1.04 1.0394 1.0394 0 0 1 1.04-1.04 1.0394 1.0394 0 0 1 1.04 1.04 1.0394 1.0394 0 0 1-1.04 1.04zm-35.096-0.04187a0.99796 0.99796 0 0 1-0.99808-0.99808 0.99796 0.99796 0 0 1 0.99808-0.99809 0.99796 0.99796 0 0 1 0.99808 0.99809 0.99796 0.99796 0 0 1-0.99808 0.99808zm25.201-0.1047a0.81128 0.81128 0 0 1-0.80964-0.80963 0.81128 0.81128 0 0 1 0.80964-0.81196 0.81128 0.81128 0 0 1 0.81196 0.81196 0.81128 0.81128 0 0 1-0.81196 0.80963zm-15.225-0.39318a0.50015 0.50015 0 0 1-0.49788-0.5002 0.50015 0.50015 0 0 1 0.49788-0.50021 0.50015 0.50015 0 0 1 0.5002 0.50021 0.50015 0.50015 0 0 1-0.5002 0.5002zm30.18 0a0.50015 0.50015 0 0 1-0.5002-0.5002 0.50015 0.50015 0 0 1 0.5002-0.50021 0.50015 0.50015 0 0 1 0.50021 0.50021 0.50015 0.50015 0 0 1-0.50021 0.5002zm-45.216-0.10469a0.43792 0.43792 0 0 1-0.43738-0.43739 0.43792 0.43792 0 0 1 0.43738-0.43739 0.43792 0.43792 0 0 1 0.43739 0.43739 0.43792 0.43792 0 0 1-0.43739 0.43739zm25.138-0.03956a0.35495 0.35495 0 0 1-0.35364-0.35595 0.35495 0.35495 0 0 1 0.35364-0.35596 0.35495 0.35495 0 0 1 0.35596 0.35596 0.35495 0.35495 0 0 1-0.35596 0.35595zm-5.0439-0.18844a0.16827 0.16827 0 0 1-0.14425-0.16751 0.16827 0.16827 0 0 1 0.16984-0.16752 0.16827 0.16827 0 0 1 0.16751 0.16752 0.16827 0.16827 0 0 1-0.16751 0.16751 0.16827 0.16827 0 0 1-0.02559 0zm17.635-1.6588a0.95647 0.95647 0 0 1-0.9562-0.95621 0.95647 0.95647 0 0 1 0.9562-0.9562 0.95647 0.95647 0 0 1 0.95621 0.9562 0.95647 0.95647 0 0 1-0.95621 0.95621zm-30.243-0.16519a0.79054 0.79054 0 0 1-0.79102-0.79102 0.79054 0.79054 0 0 1 0.79102-0.79102 0.79054 0.79054 0 0 1 0.79102 0.79102 0.79054 0.79054 0 0 1-0.79102 0.79102zm25.264 0a0.76979 0.76979 0 0 1-0.77009-0.77008 0.76979 0.76979 0 0 1 0.77009-0.77008 0.76979 0.76979 0 0 1 0.77008 0.77008 0.76979 0.76979 0 0 1-0.77008 0.77008zm9.9785-0.228a0.66608 0.66608 0 0 1-0.66772-0.66771 0.66608 0.66608 0 0 1 0.66772-0.66539 0.66608 0.66608 0 0 1 0.66539 0.66539 0.66608 0.66608 0 0 1-0.66539 0.66771zm-40.24-0.06281a0.60386 0.60386 0 0 1-0.60489-0.6049 0.60386 0.60386 0 0 1 0.60489-0.60257 0.60386 0.60386 0 0 1 0.60257 0.60257 0.60386 0.60386 0 0 1-0.60257 0.6049zm10.039-0.06282a0.50015 0.50015 0 0 1-0.50021-0.5002 0.50015 0.50015 0 0 1 0.50021-0.50021 0.50015 0.50015 0 0 1 0.5002 0.50021 0.50015 0.50015 0 0 1-0.5002 0.5002zm15.141-0.16518a0.35495 0.35495 0 0 1-0.35596-0.35596 0.35495 0.35495 0 0 1 0.35596-0.35363 0.35495 0.35495 0 0 1 0.35596 0.35363 0.35495 0.35495 0 0 1-0.35596 0.35596zm-10.102-0.14425a0.14753 0.14753 0 0 1-0.14657-0.14889 0.14753 0.14753 0 0 1 0.14657-0.14658 0.14753 0.14753 0 0 1 0.1489 0.14658 0.14753 0.14753 0 0 1-0.1489 0.14889zm30.243-0.02094a0.2305 0.2305 0 0 1-0.23032-0.23032 0.2305 0.2305 0 0 1 0.23032-0.23266 0.2305 0.2305 0 0 1 0.23033 0.23266 0.2305 0.2305 0 0 1-0.23033 0.23032zm-50.341-0.02093a0.20976 0.20976 0 0 1-0.20939-0.20939 0.20976 0.20976 0 0 1 0.20939-0.21172 0.20976 0.20976 0 0 1 0.20939 0.21172 0.20976 0.20976 0 0 1-0.20939 0.20939zm37.813-1.9915a0.66608 0.66608 0 0 1-0.66539-0.66539 0.66608 0.66608 0 0 1 0.66539-0.66772 0.66608 0.66608 0 0 1 0.66539 0.66772 0.66608 0.66608 0 0 1-0.66539 0.66539zm4.9788 0a0.66608 0.66608 0 0 1-0.66772-0.66539 0.66608 0.66608 0 0 1 0.66772-0.66772 0.66608 0.66608 0 0 1 0.66539 0.66772 0.66608 0.66608 0 0 1-0.66539 0.66539zm-35.263-0.20707a0.50015 0.50015 0 0 1-0.5002-0.5002 0.50015 0.50015 0 0 1 0.5002-0.5002 0.50015 0.50015 0 0 1 0.50021 0.5002 0.50015 0.50015 0 0 1-0.50021 0.5002zm4.9997-0.06281a0.41718 0.41718 0 0 1-0.41645-0.41645 0.41718 0.41718 0 0 1 0.41645-0.41878 0.41718 0.41718 0 0 1 0.41645 0.41878 0.41718 0.41718 0 0 1-0.41645 0.41645zm35.303-0.02094a0.3757 0.3757 0 0 1-0.37458-0.37457 0.3757 0.3757 0 0 1 0.37458-0.3769 0.3757 0.3757 0 0 1 0.37689 0.3769 0.3757 0.3757 0 0 1-0.37689 0.37457zm-15.099-0.06282a0.31347 0.31347 0 0 1-0.31408-0.31175 0.31347 0.31347 0 0 1 0.31408-0.31408 0.31347 0.31347 0 0 1 0.31175 0.31408 0.31347 0.31347 0 0 1-0.31175 0.31175zm-30.264-0.06049a0.27198 0.27198 0 0 1-0.27221-0.2722 0.27198 0.27198 0 0 1 0.27221-0.27221 0.27198 0.27198 0 0 1 0.2722 0.27221 0.27198 0.27198 0 0 1-0.2722 0.2722zm15.12-0.12563a0.14753 0.14753 0 0 1-0.14658-0.14657 0.14753 0.14753 0 0 1 0.14658-0.1489 0.14753 0.14753 0 0 1 0.14889 0.1489 0.14753 0.14753 0 0 1-0.14889 0.14657zm22.672-2.2614a0.41718 0.41718 0 0 1-0.41645-0.41645 0.41718 0.41718 0 0 1 0.41645-0.41645 0.41718 0.41718 0 0 1 0.41645 0.41645 0.41718 0.41718 0 0 1-0.41645 0.41645zm5.0812-0.02094a0.3757 0.3757 0 0 1-0.37457-0.37457 0.3757 0.3757 0 0 1 0.37457-0.3769 0.3757 0.3757 0 0 1 0.3769 0.3769 0.3757 0.3757 0 0 1-0.3769 0.37457zm-40.3-0.10236a0.27198 0.27198 0 0 1-0.2722-0.27221 0.27198 0.27198 0 0 1 0.2722-0.2722 0.27198 0.27198 0 0 1 0.26988 0.2722 0.27198 0.27198 0 0 1-0.26988 0.27221zm4.9555 0a0.27198 0.27198 0 0 1-0.2722-0.27221 0.27198 0.27198 0 0 1 0.2722-0.2722 0.27198 0.27198 0 0 1 0.27221 0.2722 0.27198 0.27198 0 0 1-0.27221 0.27221zm25.264-0.08376a0.2305 0.2305 0 0 1-0.23033-0.23033 0.2305 0.2305 0 0 1 0.23033-0.23032 0.2305 0.2305 0 0 1 0.23032 0.23032 0.2305 0.2305 0 0 1-0.23032 0.23033zm-20.18-0.08376a0.14753 0.14753 0 0 1-0.12795-0.14657 0.14753 0.14753 0 0 1 0.14889-0.14657 0.14753 0.14753 0 0 1 0.14658 0.14657 0.14753 0.14753 0 0 1-0.14658 0.14657 0.14753 0.14753 0 0 1-0.02094 0zm35.261 0a0.14753 0.14753 0 0 1-0.12796-0.14657 0.14753 0.14753 0 0 1 0.1489-0.14657 0.14753 0.14753 0 0 1 0.14657 0.14657 0.14753 0.14753 0 0 1-0.14657 0.14657 0.14753 0.14753 0 0 1-0.02094 0zm-7.5286-2.4056a0.2305 0.2305 0 0 1-0.23033-0.23033 0.2305 0.2305 0 0 1 0.23033-0.23032 0.2305 0.2305 0 0 1 0.23032 0.23032 0.2305 0.2305 0 0 1-0.23032 0.23033zm4.9974-0.08143a0.14753 0.14753 0 0 1-0.14657-0.1489 0.14753 0.14753 0 0 1 0.14657-0.14657 0.14753 0.14753 0 0 1 0.1489 0.14657 0.14753 0.14753 0 0 1-0.1489 0.1489zm-10.039-0.02094a0.14753 0.14753 0 0 1-0.14657-0.14889 0.14753 0.14753 0 0 1 0.14657-0.14658 0.14753 0.14753 0 0 1 0.1489 0.14658 0.14753 0.14753 0 0 1-0.1489 0.14889zm-30.243-0.02093a0.14753 0.14753 0 0 1-0.14657-0.1489 0.14753 0.14753 0 0 1 0.14657-0.14657 0.14753 0.14753 0 0 1 0.1489 0.14657 0.14753 0.14753 0 0 1-0.1489 0.1489zm5.0207 0a0.14753 0.14753 0 0 1-0.14657-0.1489 0.14753 0.14753 0 0 1 0.14657-0.14657 0.14753 0.14753 0 0 1 0.14657 0.14657 0.14753 0.14753 0 0 1-0.14657 0.1489z" clip-path="url(#a)" fill="#fff"/></svg>
