<?xml version="1.0" encoding="UTF-8"?>
<svg version="1.1" viewBox="0 0 250 91" xmlns="http://www.w3.org/2000/svg">
<path d="m38.204 45.5v-24.368h0.90253v48.737h-0.90253zm108.66 0v-24.368h0.99279v48.737h-0.99279zm-96.244 22.366c-0.07477-0.11468-1.1162-3.1733-2.3144-6.797-3.7132-11.23-4.123-12.446-4.2967-12.747-0.21767-0.37714-0.6918-0.56532-1.4243-0.56532-0.63209 0-0.68473-0.04508-0.68473-0.58664 0-0.57585-0.22003-0.54239 3.4983-0.53204l3.406 0.0095 0.05374 1.1092h-0.39698c-0.50298 0-0.9438 0.15196-1.0576 0.36457-0.14924 0.27887-0.10291 0.56654 0.30723 1.9073 0.74479 2.4347 1.5188 4.9936 1.9063 6.3022 0.21314 0.71977 0.72107 2.4052 1.1287 3.7455 0.40767 1.3403 0.81075 2.678 0.89573 2.9729 0.08499 0.29482 0.17801 0.49789 0.20671 0.45126 0.02871-0.04659 0.36258-1.0595 0.74194-2.2508 0.37936-1.1913 0.97595-3.0596 1.3258-4.1516 0.65048-2.0307 0.73842-2.3134 1.4737-4.7383 0.92249-3.0423 0.93991-3.1983 0.43704-3.9149-0.33056-0.47102-0.62895-0.61322-1.403-0.6686l-0.61828-0.04428 0.02654-0.53729 0.02655-0.5373 7.4459-0.02872-1.3e-5 0.56408-1.3e-5 0.56408h-0.67102c-1.0448 0-1.4048 0.20913-1.4048 0.81618 0 0.19361 0.15857 0.8913 0.35238 1.5504 1.1433 3.8882 2.0275 6.8857 2.2171 7.5161 0.11943 0.39711 0.52679 1.778 0.90523 3.0686 0.97127 3.3124 0.81641 3.1343 1.3335 1.5329 0.54248-1.6801 0.68443-2.1328 1.5845-5.0527 2.0514-6.655 2.4906-8.4971 2.1498-9.0172-0.17387-0.26536-0.6392-0.41298-1.304-0.41368l-0.47813-5.43e-4 0.05374-1.1146 5.9567 0.0096 0.02687 0.55219c0.02336 0.48009 0.0057 0.55271-0.13538 0.5562-1.019 0.02521-1.4427 0.18473-1.7216 0.64813-0.1704 0.28312-0.6543 1.614-2.1257 5.8461-0.37104 1.0672-0.96724 2.773-1.3249 3.7906-0.35764 1.0176-0.86546 2.4797-1.1285 3.2491-0.26303 0.7694-0.80697 2.3217-1.2088 3.4495-0.40179 1.1279-0.73052 2.0765-0.73052 2.1081 0 0.0316-0.12392 0.31708-0.27537 0.63442-0.24138 0.50576-0.3065 0.57699-0.52753 0.57699-0.13869 0-0.31493-0.07109-0.39165-0.15794-0.12913-0.14621-0.87806-2.4382-4.1139-12.59-0.67639-2.1221-1.2512-3.8578-1.2775-3.8573-0.02621 5.42e-4 -1.09 3.0974-2.364 6.8818-2.9219 8.6798-3.0877 9.1537-3.3016 9.4416-0.23639 0.31809-0.60122 0.35764-0.7793 0.08449zm23.211-0.08776c-0.82588-0.07883-1.7982-0.39946-2.4188-0.79774-0.92921-0.59627-1.7909-1.7981-2.2324-3.1136-0.22836-0.68047-0.24252-0.82074-0.24589-2.4368-0.0028-1.3548 0.02756-1.8095 0.14474-2.1661 0.46408-1.412 0.9062-2.1391 1.8214-2.9952 1.0298-0.96333 2.1889-1.3784 3.8516-1.3794 1.3993-7.97e-4 2.3144 0.34374 3.1488 1.1856 0.60364 0.60908 1.1347 1.6772 1.283 2.5805 0.17865 1.0881 0.49436 1.0084-4.1065 1.0363l-3.8903 0.02354 0.0026 1.3538c0.0017 0.89102 0.04415 1.4772 0.12428 1.7148 0.65437 1.9405 1.9885 3.1426 3.6251 3.266 1.5711 0.11854 2.8456-0.51584 3.834-1.9085l0.18512-0.26084 0.2887 0.17055c0.34683 0.20487 0.35325 0.28407 0.06767 0.83408-0.31372 0.60422-0.50387 0.86745-1.0066 1.3935-1.1686 1.2227-2.5451 1.6838-4.4764 1.4996zm2.5049-9.1028c0.2319-0.08817 0.24058-0.1148 0.20368-0.62491-0.0809-1.1184-0.87776-2.0777-1.8466-2.223-0.90551-0.13579-1.9376 0.32985-2.558 1.154-0.25654 0.34083-0.813 1.5311-0.813 1.7391 0 0.09067 4.7696 0.04763 5.0139-0.04524zm17.955 9.1128c-0.9488-0.13555-2.0238-0.99049-2.3266-1.8503-0.16816-0.4775-0.17011-1.3195-0.01692-7.3284l0.04659-1.8276h-1.0291c-0.7895 0-1.0544-0.03048-1.1378-0.13105-0.18482-0.22269-0.06806-0.42996 0.44093-0.7829 1.0057-0.69736 2.8334-2.6953 3.3679-3.6817 0.12731-0.23493 0.20459-0.28469 0.40614-0.26151l0.24891 0.02864-0.04324 3.2942h2.12c2.4222 0 2.2272-0.09026 1.9498 0.90253l-0.16393 0.58664-3.9789 0.04851-0.06391 1.4649c-0.09574 2.1941-0.01292 6.5383 0.13196 6.9252 0.17012 0.45417 0.5102 0.88007 0.83815 1.0497 0.37559 0.19423 1.4599 0.12376 2.1433-0.13928l0.49639-0.19106 0.15794 0.19186c0.08687 0.10552 0.15794 0.26496 0.15794 0.35433 0 0.29804-0.88002 0.88842-1.7387 1.1664-0.45018 0.14576-1.5553 0.24536-2.0068 0.18085zm13.977 0.01093c-0.42787-0.10527-0.81708-0.42269-1.0906-0.88948-0.21197-0.36169-0.25104-0.54187-0.28139-1.2975-0.0402-1.0005 0.0711-1.444 0.52929-2.11 0.33506-0.487 1.1346-1.1007 1.9222-1.4753 0.30651-0.14581 1.1568-0.55054 1.8895-0.89938 0.73271-0.34884 1.459-0.72454 1.6139-0.83489l0.28175-0.20063-0.0503-1.2714c-0.0558-1.4081-0.14332-1.8145-0.47595-2.2098-0.641-0.76178-2.5861-0.78319-3.4715-0.03822-0.26472 0.22274-0.26796 0.23657-0.2681 1.1425 0 1.0657-0.13574 1.4387-0.62584 1.7218-0.40126 0.23177-1.198 0.25252-1.4139 0.03686-0.0851-0.08497-0.17073-0.35254-0.19555-0.61083-0.132-1.3738 1.3209-2.8969 3.5165-3.6864 0.59024-0.21224 0.79195-0.23751 1.923-0.24092 1.132-0.0032 1.3115 0.01787 1.7245 0.20485 0.54698 0.24758 1.0485 0.73581 1.269 1.2354 0.14252 0.32287 0.1645 0.81396 0.208 4.648 0.0531 4.6822 0.0707 4.8344 0.58417 5.0683 0.29438 0.13413 0.83232-0.01484 1.2144-0.33631 0.23556-0.19822 0.29388-0.21225 0.45869-0.11041 0.27561 0.17032 0.3109 0.45444 0.10625 0.85559-0.43381 0.85034-1.1827 1.2918-2.1916 1.2918-1.1203 0-1.6963-0.47888-2.1038-1.7489-0.0472-0.14725-0.1175-0.10982-0.53504 0.28508-0.50978 0.48212-1.402 0.97852-2.2788 1.2679-0.59815 0.19737-1.8302 0.30778-2.2585 0.20239zm3.3043-1.6313c0.5399-0.27784 1.0828-0.71349 1.2683-1.0177 0.16093-0.26394 0.17721-0.46144 0.17752-2.1538v-1.8632l-0.9251 0.46959c-2.0217 1.0262-2.6259 1.6037-2.8703 2.7432-0.19648 0.91613 0.21026 1.7771 0.9445 1.9992 0.36279 0.10976 1.0042 0.0288 1.4047-0.17734zm-28.637 1.4365c-0.67271-0.19181-1.2341-0.45104-1.394-0.64365-0.05625-0.06774-0.18858-0.60884-0.29413-1.2025s-0.23415-1.3149-0.28577-1.6028c-0.05162-0.28794-0.07221-0.5452-0.04572-0.57167 0.02649-0.02649 0.21108-0.06997 0.41024-0.09669l0.3621-0.04859 0.46954 0.93612c0.94608 1.8862 1.3119 2.2665 2.3391 2.432 1.0649 0.1715 2.1457-0.26288 2.5991-1.0446 0.1798-0.31 0.20464-0.45665 0.17578-1.0379-0.06159-1.2408-0.65926-1.8065-2.5714-2.4339-1.5051-0.49381-2.2244-0.87174-2.7823-1.4617-1.249-1.321-1.1865-3.4126 0.14167-4.7407 1.306-1.306 3.7397-1.5995 5.6046-0.67582l0.67018 0.33194 0.25744 1.2059c0.28408 1.3307 0.27205 1.4003-0.26021 1.5067-0.26024 0.05202-0.301 0.01245-1.0169-0.98858-0.8667-1.2119-1.2336-1.4866-2.0887-1.5642-1.778-0.16123-2.9825 1.1972-2.355 2.656 0.19715 0.45827 0.50867 0.80746 0.9138 1.0243 0.11577 0.06199 0.8676 0.32592 1.6707 0.58658 2.7291 0.88577 3.5512 1.7634 3.5546 3.7948 0.0032 1.6906-1.003 3.0174-2.7257 3.5957-0.89157 0.2993-2.3833 0.3185-3.3491 0.04308zm54.033 0.0095c-1.4904-0.39074-2.4364-1.1542-3.258-2.6292-1.0496-1.8846-1.0978-4.9894-0.10781-6.9523 1.0539-2.0897 2.7862-3.1459 5.1596-3.1459 1.4624 0 2.4448 0.37894 3.241 1.2502 0.7001 0.76602 1.2292 1.9687 1.2646 2.8745 0.0271 0.69468 0.25265 0.65864-4.1202 0.65864h-3.9031l-0.0559 0.33845c-0.15848 0.95888 0.0224 2.4709 0.40404 3.3768 0.87157 2.0689 2.7836 3.0834 4.8144 2.5544 0.92546-0.24105 2.0184-1.047 2.3213-1.7118 0.13686-0.30039 0.27539-0.32908 0.60906-0.12616 0.34064 0.20716 0.32676 0.30944-0.14949 1.1018-0.69493 1.1562-1.7206 2.009-2.8874 2.4008-0.75097 0.25215-2.3889 0.25688-3.3321 0.0097zm3.4782-8.9947c0.187-0.13098 0.20567-0.19861 0.16037-0.58105-0.25418-2.1462-2.3985-2.9632-3.9812-1.5168-0.48923 0.44712-1.0422 1.3785-1.1862 1.9978l-0.0577 0.24819h2.4265c2.1044 0 2.4546-0.01971 2.6382-0.14824zm20.147 8.8603c-1.6189-0.60117-2.6807-1.9664-2.9081-3.7392-0.20612-1.6072 0.19429-2.8039 1.3172-3.9366 2.1781-2.1972 5.3792-1.9095 7.0479 0.63343 1.4047 2.1406 0.71057 5.1056-1.536 6.5605-1.1264 0.72946-2.7252 0.92593-3.9211 0.48183zm2.3577-0.55042c0.47366-0.1614 1.1115-0.78507 1.4187-1.3871 0.54304-1.0645 0.71296-2.9604 0.36598-4.0838-0.30276-0.98024-1.05-1.8932-1.8771-2.2934-0.50681-0.24519-1.2712-0.20404-1.7832 0.09601-0.53778 0.31516-1.1677 1.1296-1.3976 1.807-0.24051 0.70874-0.3321 2.228-0.18526 3.0728 0.36328 2.0896 1.8921 3.3223 3.4585 2.7886zm7.2526 0.64557c-0.78666-0.29211-1.5914-1.4293-1.7639-2.4925-0.0521-0.32099-0.095-1.6497-0.0954-2.9528-8e-4 -2.2381-0.0105-2.379-0.1789-2.5474-0.17467-0.17468-0.36279-0.24232-0.81457-0.29291-0.19006-0.0213-0.23004-0.07859-0.25365-0.36372l-0.028-0.33845 1.1787-0.01691c0.6483-0.0093 1.2904-0.01947 1.4269-0.02258l0.2482-0.0056v6.4085l0.30077 0.61258c0.38052 0.77499 0.79019 1.0744 1.5447 1.129 0.38684 0.028 0.62512-0.0086 0.92798-0.14261 0.5168-0.2286 1.1441-0.79144 1.3017-1.1679 0.15593-0.37248 0.17551-5.1688 0.0229-5.6066-0.10187-0.2922-0.40103-0.43394-1.0295-0.48776-0.24486-0.02098-0.27075-0.05338-0.27075-0.33907v-0.31588l1.4892-0.05258c0.81905-0.02896 1.5112-0.01979 1.5382 0.02027 0.027 0.04013 0.0149 0.44959-0.0268 0.91001-0.0417 0.46041-0.0637 2.1021-0.0491 3.6482 0.0252 2.6452 0.0373 2.8226 0.20381 3.0065 0.14698 0.1623 0.26296 0.19195 0.68369 0.17478 0.59167-0.02417 0.71873 0.03295 0.71873 0.32319 0 0.19322-0.11429 0.25091-1.2411 0.62644-0.68259 0.22749-1.3489 0.41362-1.4807 0.41362-0.22149 0-0.24404-0.0359-0.298-0.47382-0.0321-0.26061-0.0779-0.57721-0.10184-0.70356l-0.0435-0.22974-0.39414 0.37765c-0.21677 0.20771-0.66713 0.51204-1.0008 0.6763-0.5184 0.25522-0.71987 0.3028-1.3852 0.3272-0.52099 0.01907-0.8948-0.0146-1.1298-0.10188zm20.728-0.14085c-0.69164-0.35045-1.4798-1.1833-1.8383-1.9425-0.46776-0.99058-0.5486-2.4314-0.20509-3.6552 0.22218-0.79152 0.66435-1.5319 1.306-2.1867 1.1658-1.1897 2.6708-1.5771 4.6532-1.1978 0.38907 0.07444 0.71945 0.13537 0.73417 0.13538 0.0148 8e-6 0.0148-1.0799 0-2.3998-0.0308-2.7578 0.0104-2.6325-0.93206-2.8434-0.47857-0.1071-0.49362-0.11975-0.49362-0.41482 0-0.18051 0.0525-0.32448 0.12892-0.35383 0.16708-0.06415 2.8862-0.55726 2.921-0.52973 0.0145 0.01149 0.0348 3.1162 0.0452 6.8993l0.0188 6.8784 0.20886 0.16914c0.11489 0.09303 0.44641 0.21587 0.73674 0.27298 0.41434 0.08152 0.53861 0.14499 0.57788 0.29517 0.0275 0.10522 0.0209 0.21854-0.0147 0.25182-0.0356 0.03327-0.64148 0.25382-1.3464 0.49009-1.434 0.48066-1.5024 0.47445-1.6072-0.14607-0.033-0.19543-0.0957-0.37737-0.13928-0.40431-0.0436-0.02697-0.23312 0.0529-0.42121 0.17733-0.78978 0.52266-1.4369 0.70609-2.6427 0.74904-1.1222 0.03997-1.1311 0.03869-1.69-0.24452zm3.6731-1.0172c0.47951-0.24092 0.62166-0.36608 0.79368-0.69876 0.20634-0.39905 0.20915-0.44297 0.18302-2.858l-0.0266-2.4527-0.27425-0.39c-0.79871-1.1358-2.8379-1.2557-3.9076-0.2297-0.70534 0.67651-1.0369 1.5942-1.0336 2.8609 2e-3 0.68788 0.05 0.99859 0.24401 1.5715 0.13297 0.39275 0.32732 0.8395 0.4319 0.99278 0.37529 0.55007 1.0278 1.1609 1.471 1.377 0.60683 0.2959 1.2973 0.2395 2.1184-0.17305zm5.9051 1.1083c-0.40665-0.2673-0.62302-0.81717-0.62173-1.58 2e-3 -1.2799 0.54617-1.8671 2.6349-2.8442 0.68468-0.32027 1.38-0.66049 1.5453-0.75604l0.3004-0.17372-0.0296-1.1088c-0.0255-0.95505-0.0558-1.1441-0.21827-1.3633-0.38245-0.51592-1.1331-0.6843-1.9683-0.44151-0.72617 0.2111-0.82145 0.35437-0.82145 1.2352 0 0.70578-8e-3 0.73332-0.29474 0.98966-0.22837 0.2043-0.38082 0.26337-0.6769 0.2623-0.47736-0.0016-0.56941-0.06167-0.64744-0.42141-0.1326-0.61137 0.29611-1.4284 1.0336-1.9697 1.0323-0.75778 2.1118-1.0937 3.271-1.018 0.81944 0.05354 1.3328 0.30286 1.6691 0.81078l0.2483 0.37498 0.0452 3.227c0.0436 3.1235 0.0513 3.2351 0.23851 3.4816 0.15458 0.20348 0.25367 0.24943 0.49383 0.22895 0.16525-0.01412 0.3948-0.11427 0.51013-0.22262 0.16373-0.15381 0.24342-0.17584 0.36357-0.10054 0.2431 0.15236 0.23357 0.46818-0.0259 0.86035-0.32983 0.49841-0.888 0.73942-1.5942 0.68834-0.72846-0.05266-1.0678-0.32892-1.3381-1.0893l-0.089-0.25037-0.47523 0.38637c-0.78796 0.64063-1.5066 0.91823-2.4608 0.95052-0.69453 0.02354-0.85283 7.98e-4 -1.092-0.15639zm2.8302-1.0468c0.25573-0.12743 0.58862-0.37253 0.73975-0.54466l0.27478-0.31296v-1.3506c0-0.74286-0.0258-1.3507-0.0572-1.3507s-0.38684 0.16706-0.78971 0.37125c-1.2717 0.64453-1.8078 1.2032-1.9166 1.9975-0.0762 0.55591 0.0952 1.0324 0.44885 1.2481 0.38434 0.23436 0.7461 0.21826 1.3002-0.05784zm7.5579 1.0504c-0.43454-0.2048-0.89421-0.63404-1.0952-1.0227-0.13069-0.25271-0.14255-0.65005-0.10504-3.5152l0.0423-3.2303h-0.62284c-1.0364 0-1.275-0.30473-0.58175-0.74271 0.7032-0.44422 2.2286-2.144 2.4372-2.7158 0.039-0.10692 0.13096-0.15418 0.26338-0.13538 0.20076 0.02848 0.20317 0.04484 0.18102 1.2247l-0.0224 1.1959h1.5342c1.4012 0 1.5341 0.01372 1.5337 0.15794-8e-4 0.27016-0.19497 0.87667-0.30285 0.94627-0.0566 0.03646-0.72214 0.06694-1.4791 0.06766l-1.3764 0.0016 8e-4 2.8204c0 1.6381 0.0391 2.9593 0.0925 3.1518 0.0506 0.18224 0.20883 0.45638 0.35159 0.6092 0.23469 0.25123 0.31201 0.27787 0.80685 0.27787 0.301 0 0.73907-0.0651 0.97352-0.14471 0.40108-0.13618 0.43322-0.13515 0.54467 0.01723 0.1914 0.26176 0.14265 0.36405-0.31028 0.65105-0.90105 0.57096-2.123 0.73528-2.8655 0.38534zm12.121-1.75e-4c-1.0041-0.32105-1.7466-0.89936-2.3838-1.8564-0.60549-0.90961-0.87572-2.3193-0.66654-3.4772 0.30876-1.7092 1.8094-3.282 3.5687-3.7402 2.9872-0.77808 5.9153 1.9675 5.4684 5.1276-0.25051 1.7714-1.6413 3.4193-3.3246 3.9392-0.75941 0.23456-1.9409 0.23769-2.6622 0.0072zm2.1961-0.5955c0.71221-0.24268 1.3214-0.98303 1.7117-2.0804 0.27319-0.76802 0.3434-2.5071 0.13106-3.2469-0.36001-1.2543-1.2764-2.27-2.3208-2.5723-0.71529-0.20701-1.6762 0.24089-2.2856 1.0654-0.54119 0.73214-0.7238 1.4846-0.71736 2.9559 6e-3 1.4404 0.14399 1.9711 0.73384 2.8284 0.41159 0.5982 0.81858 0.91473 1.3654 1.062 0.57245 0.15414 0.90241 0.15126 1.3818-0.01213zm-126.69 0.5968c-0.02066-0.02066-0.03758-0.24947-0.03758-0.50843 0-0.56647 0.02657-0.57908 1.2237-0.5809 1.3108-0.0016 1.164 0.92773 1.1924-7.5526 0.0134-4.0124-0.0125-7.6312-0.0575-8.0418-0.12275-1.1203-0.39709-1.4442-1.5839-1.87-0.48665-0.17462-0.55202-0.22691-0.57484-0.45988-0.0233-0.23786 0.01532-0.27909 0.40614-0.43349 0.71721-0.28336 2.7561-1.2843 3.1072-1.5254 0.18082-0.12418 0.45477-0.25344 0.60876-0.28727 0.24034-0.05282 0.28989-0.03175 0.34974 0.14864 0.0384 0.11558 0.0435 1.7738 0.0113 3.6849-0.0905 5.3833-0.0859 15.345 7e-3 15.747 0.1199 0.51714 0.2702 0.58906 1.2311 0.58906 1.1088 0 1.1183 0.0048 1.1183 0.5963 0 0.2677-0.0305 0.48744-0.0677 0.48831-1.1872 0.02761-6.908 0.03255-6.9345 0.0064zm19.955-0.0072c-0.10009-0.17445-0.12949-0.64074-0.0531-0.84172 0.0894-0.23516 0.11109-0.24131 0.85007-0.24131 0.59522 0 0.78497-0.03207 0.88221-0.14922 0.10258-0.12359 0.12788-1.5538 0.14729-8.3258 0.022-7.6526 0.0132-8.1967-0.13537-8.4907-0.1959-0.38741-0.62789-0.6846-1.2639-0.86949-0.46152-0.13417-0.48332-0.1541-0.45694-0.41788 0.0262-0.26137 0.0862-0.30182 1.0656-0.7175 0.57085-0.24229 1.2004-0.51555 1.3989-0.60725 1.615-0.74585 1.8052-0.75767 1.7245-0.10708-0.0284 0.22878-0.078 3.4378-0.11025 7.1311l-0.0586 6.7151 0.49816-0.05138c0.27399-0.02824 0.61719-0.11297 0.76267-0.1882 0.26892-0.13906 1.8452-1.708 2.77-2.757 0.7867-0.89243 0.76783-1.2452-0.0716-1.3398l-0.41545-0.04683v-1.0342l5.4603 0.0198v0.99278l-0.49708 0.05346c-1.422 0.15296-2.0688 0.59618-5.263 3.6062l-0.5314 0.50078 2.2883 2.2425c3.1456 3.0827 3.6311 3.4998 4.2881 3.6849 0.29002 0.08168 0.67962 0.17231 0.86576 0.20142 0.3378 0.05282 0.33845 0.05378 0.33845 0.49476 0 0.24302-0.0413 0.46736-0.0917 0.49854-0.0504 0.0312-1.4212 0.0592-3.046 0.06231l-2.9543 0.0056v-0.4857c0-0.48324 2e-3 -0.48593 0.30653-0.53082 0.1686-0.02481 0.34963-0.11377 0.40227-0.19766 0.12878-0.2052-0.2453-0.6524-2.7759-3.3185-1.0886-1.1469-1.4972-1.4318-2.0688-1.4428l-0.25504-0.0048 0.0294 2.2878c0.0227 1.7724 0.0573 2.3213 0.15327 2.4368 0.0921 0.11084 0.2773 0.14943 0.72202 0.15046 0.32899 7.18e-4 0.65126 0.03503 0.71617 0.07628 0.0791 0.05018 0.10887 0.23092 0.0903 0.54839l-0.0278 0.47354-2.829 0.01428c-1.556 8e-3 -2.8407-0.0056-2.8549-0.0308zm32.594-0.06016c-0.0331-0.03311-0.0601-0.1912-0.0601-0.35136 0-0.35686 0.0984-0.40075 0.89885-0.40075 0.46061 0 0.64419-0.03718 0.73722-0.14934 0.10013-0.12074 0.12386-0.79922 0.12386-3.5424v-3.3931l-0.74917-0.01213c-0.41204-0.0064-0.76945-0.03239-0.79422-0.05713-0.0247-0.02481-0.0175-0.25285 0.0162-0.50685l0.0613-0.4618h0.70073c0.47815 0 0.714-0.03582 0.74251-0.11282 0.023-0.06207 0.0497-0.41742 0.0594-0.78971 0.0619-2.37 1.1955-4.3064 3.0441-5.2001 0.63708-0.30798 0.79751-0.34676 1.5671-0.37892 1.4227-0.05944 2.1247 0.26861 2.2283 1.0413 0.0465 0.34698 0.0227 0.40952-0.26731 0.69946-0.27438 0.27438-0.37728 0.3184-0.74415 0.3184-0.39139 0-0.46312-0.03718-0.88899-0.46073-0.49198-0.4893-0.73283-0.62261-1.1235-0.62179-0.82142 0.0016-1.567 0.57608-1.895 1.4599-0.24293 0.65457-0.37799 1.7362-0.37799 3.0273v1.0177h2.7076v0.21435c0 0.1179-0.0251 0.34019-0.0559 0.49398l-0.0559 0.27963-2.5506 0.04994-0.0219 3.2942c-0.0167 2.5166 5e-3 3.3475 0.0926 3.5199 0.10705 0.21117 0.16917 0.22852 0.96949 0.27076l0.85511 0.04516 0.0556 0.76714h-2.6075c-1.4341 0-2.6346-0.02705-2.6676-0.06016zm27.044-0.08577c-0.0308-0.08027-0.0186-0.25288 0.0271-0.38357 0.0744-0.21287 0.13937-0.24235 0.62291-0.28276l0.53983-0.04516v-5.8972l-0.22563-0.2416c-0.1241-0.13288-0.38048-0.321-0.56974-0.41805-0.57477-0.29472-0.45322-0.4615 0.86156-1.1821 0.63208-0.34643 1.2071-0.60767 1.2778-0.58053 0.087 0.03335 0.14933 0.27053 0.1926 0.73226 0.0352 0.3756 0.0834 0.6829 0.10723 0.6829 0.0238 0 0.23223-0.16677 0.46323-0.3706 0.23098-0.20383 0.70428-0.51858 1.0518-0.69946 0.60374-0.31427 0.67181-0.32886 1.5343-0.32886 0.76993 0 0.9622 0.03096 1.3087 0.21094 0.57348 0.29786 0.96762 0.70022 1.2717 1.2982l0.26259 0.51638v2.9299c0 1.6853 0.0374 3.0283 0.088 3.1614 0.0804 0.21136 0.13337 0.23162 0.6092 0.23288 0.65686 0.0016 0.76798 0.07157 0.73096 0.45935l-0.0293 0.30642-4.287 0.04834v-0.35299c0-0.40998 0.0832-0.46255 0.73164-0.46255 0.39584 0 0.45603-0.02609 0.53414-0.23151 0.12474-0.3281 0.11352-5.4943-0.0129-5.9498-0.38295-1.3794-2.7159-1.5335-3.7752-0.24934-0.15359 0.18619-0.31882 0.48069-0.36715 0.65443-0.0945 0.33968-0.12514 5.3962-0.0341 5.6334 0.0394 0.10281 0.17631 0.14277 0.48901 0.14277 0.63523 0 0.71974 0.05409 0.71974 0.46092v0.35136h-2.0335c-1.7897 0-2.0402-0.01747-2.0895-0.14594zm36.663-0.02266c-0.0294-0.09273-0.0136-0.27375 0.0353-0.40228 0.0837-0.22025 0.12927-0.23521 0.79201-0.26011l0.70316-0.02641 0.0238-2.9945 0.0238-2.9945-0.20736-0.24108c-0.12745-0.14816-0.3801-0.28474-0.65554-0.3544-0.34297-0.08672-0.45491-0.15841-0.47684-0.30543-0.0221-0.14801 0.0504-0.22701 0.31589-0.3441 0.18949-0.0836 0.80643-0.36854 1.371-0.63322 0.56454-0.26467 1.0824-0.48122 1.1507-0.48122 0.10368 0 0.12428 0.66669 0.12428 4.0222 0 2.6 0.033 4.0839 0.0934 4.1968 0.0761 0.14222 0.19182 0.17458 0.6244 0.17458 0.73858 0 0.81647 0.04396 0.81647 0.46092v0.35136h-2.3405c-2.2061 0-2.3436-0.0097-2.394-0.16859zm15.131-0.21325 0.0278-0.38532 1.083-0.09032 0.0238-2.8969c0.027-3.2919 0.0601-3.1337-0.75722-3.6127-0.61405-0.35986-0.53474-0.49591 0.68829-1.1807 0.57085-0.31961 1.1394-0.58828 1.2635-0.59703 0.21561-0.01524 0.2292 0.01412 0.30591 0.66098 0.0441 0.3723 0.093 0.69189 0.10853 0.71022 0.0155 0.01835 0.24029-0.15218 0.49946-0.3789 1.0594-0.92672 2.2624-1.2464 3.4652-0.92084 0.72484 0.19621 1.255 0.64089 1.6519 1.3855l0.28675 0.53799v2.9373c0 1.6901 0.0373 3.0356 0.088 3.1688 0.0804 0.21136 0.13337 0.23163 0.60921 0.23289 0.65686 0.0016 0.76797 0.07157 0.73095 0.45934l-0.0293 0.30642-4.287 0.04834v-0.35299c0-0.40932 0.0836-0.46255 0.72592-0.46255 0.43846 0 0.44084-0.0016 0.53899-0.36611 0.0641-0.23817 0.089-1.3183 0.0712-3.0912-0.0309-3.0675-0.0389-3.1077-0.70692-3.5498-0.27084-0.17924-0.51021-0.24815-0.97819-0.28164-0.79132-0.05665-1.39 0.1338-1.9384 0.6165-0.67999 0.59855-0.69948 0.71108-0.67076 3.8743l0.025 2.7527 0.40613 0.02378c0.76779 0.045 0.82609 0.07819 0.79499 0.45306l-0.0279 0.33541-4.0268 0.04866zm-13.847-12.259c-1.0969-0.57917-0.62381-2.0705 0.65685-2.0705 0.64864 0 1.1691 0.48886 1.1691 1.0981 0 0.34079-0.30396 0.81453-0.63733 0.99333-0.39195 0.2102-0.76331 0.20367-1.1886-0.0209zm-139.38-10.015c-0.73569-0.146-1.806-0.63217-2.4261-1.102-1.1501-0.87145-2.1177-2.4115-2.3565-3.7507-0.14619-0.81983-0.16368-2.2422-0.03462-2.8164 0.4685-2.0845 2.0253-3.8962 4.0559-4.7197 0.88799-0.36015 1.3061-0.44124 2.2974-0.44558 0.77857-0.0032 1.0219 0.03495 1.7233 0.27142 1.4629 0.49328 2.4745 1.2503 3.3206 2.4847 1.2316 1.7969 1.4327 4.2937 0.50594 6.2814-0.84585 1.8142-2.7385 3.368-4.577 3.7576-0.65222 0.13822-1.9112 0.15796-2.509 0.03933zm2.5781-1.0576c1.2963-0.56853 2.2781-2.3634 2.5262-4.6183 0.15732-1.4297-0.03574-2.6195-0.60888-3.7532-0.74536-1.4742-2.0685-2.482-3.2588-2.482-0.91419 0-1.4146 0.22026-2.1423 0.94302-0.71345 0.70855-1.1956 1.5808-1.3996 2.5317-0.15358 0.71602-0.15577 3.2657-0.0034 3.9711 0.06433 0.29784 0.27567 0.86643 0.46964 1.2635 0.59792 1.2241 1.4119 1.9872 2.4252 2.2737 0.54386 0.15374 1.4855 0.09246 1.9919-0.12965zm-66.559 0.87374c-0.19738-0.09845-0.4953-0.31006-0.66203-0.47023-0.60006-0.57644-0.5869-0.47673-0.54061-4.0972l0.04184-3.2723-0.77446-0.02585c-0.72393-0.02417-0.77446-0.03846-0.77446-0.21962 0-0.13267 0.17324-0.32129 0.54946-0.59826 0.62306-0.45867 1.6995-1.6398 2.0689-2.2702 0.18828-0.32128 0.29316-0.41558 0.43906-0.39476 0.186 0.02657 0.19088 0.06279 0.16428 1.2232l-0.02741 1.1959h1.5391c1.538 0 1.5391 1.75e-4 1.5323 0.20307-0.0038 0.11168-0.05809 0.34521-0.1207 0.51895l-0.11383 0.31588-2.8723 0.09032-0.02386 2.8285c-0.01463 1.7336 0.01207 2.9619 0.06897 3.1732 0.05105 0.1896 0.21008 0.47025 0.35339 0.62367 0.22995 0.24616 0.31872 0.27894 0.75551 0.27894 0.27222 0 0.70768-0.06869 0.96769-0.15268 0.45528-0.14704 0.47739-0.14634 0.59822 0.01891 0.17342 0.23717 0.12919 0.31718-0.35741 0.64663-0.83409 0.56472-2.1021 0.73788-2.8117 0.38397zm17.868 0.06375c-1.1248-0.2914-1.896-0.92685-2.4722-2.0372-0.4139-0.7975-0.55122-1.4393-0.55122-2.5763 0-1.4276 0.43766-2.61 1.2821-3.4639 0.87092-0.88067 1.6322-1.1836 2.9789-1.1855 0.96992-0.0016 1.6451 0.22645 2.2073 0.74464 0.46556 0.42914 0.90582 1.2791 1.0172 1.9636 0.12904 0.79328 0.25826 0.75834-2.9985 0.81051l-2.8173 0.04516-0.02673 0.61138c-0.07246 1.6569 0.63184 3.0577 1.8504 3.6802 0.35879 0.1833 0.56372 0.22106 1.1998 0.22106 0.70531 0 0.81424-0.02545 1.3513-0.31588 0.3756-0.20311 0.69346-0.46088 0.89032-0.72202 0.34943-0.46352 0.44402-0.50809 0.69257-0.32634 0.17666 0.12917 0.17653 0.13314-0.01658 0.53063-0.3164 0.65126-1.1391 1.4678-1.8131 1.7997-0.52723 0.25956-0.69083 0.29486-1.4584 0.31472-0.49271 0.01277-1.0586-0.02793-1.3158-0.09454zm2.4294-6.5208c0.26565-0.10194 0.1348-0.89747-0.23835-1.4491-0.24386-0.3605-0.81526-0.66217-1.2542-0.66217-0.44172 0-1.1987 0.40217-1.5196 0.80733-0.2523 0.31856-0.63569 1.0881-0.63569 1.276 0 0.0912 3.4148 0.1174 3.6479 0.02801zm-16.432 6.3508c-0.02729-0.0442-0.02346-0.21982 0.0085-0.39034l0.05816-0.31004h0.51734c0.32217 0 0.59302-0.05298 0.71793-0.14049l0.20059-0.1405v-11.515l-0.2064-0.30667c-0.1401-0.20816-0.36478-0.3699-0.69946-0.5035-0.61808-0.24675-0.75133-0.42888-0.46955-0.64179 0.11221-0.08479 0.79338-0.45583 1.5137-0.82455 0.89031-0.45573 1.3392-0.64093 1.4018-0.57834 0.05983 0.05984 0.0901 1.4127 0.08645 3.864l-0.0056 3.7719 0.35158-0.31763c0.85417-0.77169 1.7585-1.1013 2.8558-1.041 1.48 0.08132 2.5055 1.0216 2.7486 2.5201 0.05125 0.3158 0.09347 1.7191 0.09385 3.1185 5.41e-4 1.8886 0.02875 2.5617 0.10957 2.6116 0.0599 0.03702 0.37421 0.09018 0.69849 0.11814 0.62737 0.05409 0.71382 0.13729 0.6027 0.58002-0.04981 0.19846-0.05607 0.19902-2.2418 0.19594l-2.1918-0.0032v-0.72203l0.60489-0.04516c0.33269-0.02481 0.64975-0.09007 0.70457-0.145 0.11751-0.11774 0.12659-5.035 0.01023-5.5409-0.16777-0.72955-0.68073-1.3402-1.336-1.5905-0.96414-0.36821-2.3386 0.19331-2.8349 1.1582-0.15855 0.30823-0.17224 0.55663-0.17224 3.1252 0 2.1623 0.0261 2.812 0.11594 2.8866 0.06376 0.0529 0.35822 0.10866 0.65433 0.12387l0.5384 0.0276v0.72203l-2.1931 0.0064c-1.2062 4e-3 -2.2154-0.02936-2.2427-0.07356zm26.702-0.47155 0.02637-0.54471 1.1444-0.04516c0.96838-0.03822 1.1836-0.07372 1.3989-0.23108 0.76592-0.55961 0.93474-1.9216 1.1124-8.9747 0.08197-3.2545 0.053-8.3862-0.05026-8.9017-0.07302-0.36454-0.53914-0.48457-1.8817-0.48457h-1.2273v-1.1332l3.3715 0.0032c3.4188 0.0032 3.6682 0.02617 3.6682 0.33614 0 0.04763 0.11634 0.35744 0.25853 0.68841 0.31737 0.73875 0.30541 0.71008 3.4894 8.3627 1.4249 3.4246 2.6303 6.3285 2.6787 6.4531 0.0824 0.21208 0.11403 0.17489 0.49825-0.58582 0.22565-0.44675 0.98918-2.1322 1.6967-3.7455 0.70756-1.6133 1.5184-3.4206 1.802-4.0163 0.28351-0.59566 0.64896-1.3876 0.81212-1.7599s0.43914-0.9815 0.6133-1.3538c0.46379-0.99143 1.1809-2.6415 1.5297-3.5199l0.30462-0.76715 2.8651-0.07556c1.5758-0.04157 2.926-0.05218 3.0004-0.0237 0.10331 0.03965 0.12894 0.17505 0.10825 0.57198l-0.0271 0.52005-1.0017 0.04516c-1.0922 0.04923-1.2368 0.10914-1.3779 0.5713-0.12275 0.40199-0.20046 9.3019-0.11913 13.644 0.05902 3.1503 0.08729 3.6468 0.22205 3.8977 0.08494 0.15818 0.20548 0.32063 0.26789 0.36101 0.0624 0.04037 0.64144 0.09371 1.2867 0.11854l1.1733 0.04516v1.081l-8.8448 0.001596-0.02884-0.35241c-0.01586-0.19382-0.0049-0.44766 0.02429-0.56408 0.05254-0.20933 0.06696-0.21167 1.3049-0.21167 1.723 0 1.6555 0.06542 1.7367-1.6828 0.08082-1.7398 0.09471-14.28 0.01703-15.375l-0.05962-0.83982-0.3152 0.62289c-0.17336 0.34259-0.56802 1.1712-0.87702 1.8413-0.309 0.67013-0.71297 1.5433-0.89771 1.9404-0.75721 1.6277-2.9698 6.5324-3.7457 8.3033-0.45675 1.0424-0.94684 2.1593-1.0891 2.482-0.14225 0.32266-0.50711 1.1552-0.81079 1.8502-0.50416 1.1537-0.81387 1.6697-1.0022 1.6697-0.16803 0-0.43813-0.42346-0.70889-1.1114-0.69291-1.7605-4.4001-10.863-5.2631-12.923-1.0378-2.4769-1.9499-4.4675-2.0472-4.4675-0.18491 0-0.26249 14.748-0.08432 16.029 0.11782 0.8471 0.29 1.3039 0.55859 1.4819 0.13788 0.09139 0.54383 0.14786 1.2846 0.17872l1.083 0.04516v1.083l-7.9047 0.0064 0.02637-0.54471zm41.095 0.42531c-0.07021-0.18301-0.05768-0.68129 0.02018-0.80222 0.03854-0.05992 0.40009-0.11653 0.864-0.13539 1.1107-0.04516 1.0978-0.0241 1.1749-1.9049 0.03343-0.81494 0.05002-4.3416 0.03686-7.8371-0.0221-5.8882-0.03574-6.3826-0.18607-6.7252-0.20259-0.46181-0.48994-0.67677-1.2868-0.96259-0.52365-0.18784-0.6313-0.26138-0.65396-0.44676-0.03782-0.30945-0.04915-0.30211 2.53-1.6385 1.3073-0.67736 1.624-0.78484 1.7434-0.59165 0.03303 0.05353 0.05369 2.4091 0.04596 5.2347-8e-3 2.8256 0.0032 5.1374 0.0241 5.1374 0.02098 0 0.21596-0.16478 0.43321-0.36616 1.5251-1.4138 3.7928-1.8662 5.4552-1.0883 0.68071 0.31854 1.618 1.1974 1.8839 1.7664 0.41544 0.88899 0.43436 1.0894 0.49184 5.2086 0.03024 2.1676 0.07532 3.9593 0.10012 3.9815 0.18957 0.1693 0.53661 0.24526 1.1205 0.24526 0.65172 0 0.68356 0.0097 0.73789 0.22623 0.03119 0.12442 0.03183 0.35933 0.0016 0.52202l-0.05553 0.29579-6.054 0.0032 0.02657-0.50106 0.02649-0.50106 0.78229-0.04699c1.25-0.07508 1.1587 0.20599 1.1554-3.5546-0.0016-1.7421-0.04173-3.4675-0.08934-3.8342-0.15458-1.1909-0.62291-1.9374-1.56-2.4865-1.0693-0.62668-2.8753-0.25906-3.81 0.77556-0.68525 0.75848-0.67085 0.65245-0.67307 4.9586-0.0024 4.4917-0.09522 4.1194 1.0384 4.1615l0.71951 0.02673v0.99278l-2.9972 0.0072c-2.5019 0.0056-3.0052-0.01388-3.046-0.1202zm15.864 0.01189c-0.0219-0.05712-0.0271-0.28112-0.0116-0.49776l0.0282-0.3939 0.73646-0.02609c0.47461-0.01683 0.77187-0.06877 0.83606-0.14609 0.0688-0.08302 0.10164-1.2872 0.10625-3.9065 7e-3 -4.1342 4e-3 -4.1633-0.51692-4.6446-0.14263-0.13176-0.44208-0.34102-0.66545-0.46501-0.33263-0.18464-0.40614-0.27169-0.40614-0.48097 0-0.23466 0.10319-0.31335 1.2635-0.96341 0.69494-0.38933 1.4432-0.791 1.6627-0.89259 0.36707-0.16985 0.40793-0.1728 0.50748-0.03662 0.0595 0.08144 0.13484 0.4012 0.16734 0.71059 0.0325 0.3094 0.0828 0.73427 0.11168 0.94416l0.0527 0.38161 0.37667-0.38756c0.80255-0.82577 2.0109-1.4832 3.0798-1.6758 0.77587-0.13978 1.9047 0.0064 2.606 0.33662 0.78924 0.37207 1.2521 0.86752 1.7856 1.9112l0.29987 0.58665 0.0274 4.2123c0.0243 3.7223 0.0442 4.2263 0.17128 4.3321 0.0833 0.06933 0.47089 0.13882 0.92022 0.16494l0.77637 0.04516v0.99278l-5.9194 0.0064 0.0265-0.49959 0.0265-0.49959 0.7521-0.04516c0.58563-0.0351 0.7784-0.08113 0.87083-0.20781 0.17206-0.23581 0.2498-2.2438 0.21208-5.4781-0.0308-2.6404-0.0404-2.7695-0.23545-3.1631-0.42418-0.85615-1.381-1.3021-2.6686-1.2437-0.87425 0.03957-1.4972 0.29479-2.1612 0.88537-0.91931 0.81761-0.9853 1.2057-0.94916 5.5821 0.0322 3.9003-0.0417 3.6253 0.97469 3.6253 0.34359 0 0.6424 0.04588 0.70477 0.10831 0.11855 0.11854 0.14509 0.6911 0.0392 0.84636-0.0965 0.14157-5.5339 0.12417-5.5884-0.01787z" fill="#fff" stroke-width=".090253"/>
</svg>
