<?xml version="1.0" encoding="UTF-8"?>
<svg version="1.1" viewBox="0 0 250 91" xml:space="preserve" xmlns="http://www.w3.org/2000/svg"><path d="m122.46 80.413c-9.6582-0.74011-18.599-5.3992-24.655-12.848-3.2233-3.9646-5.8777-9.4627-6.9898-14.478-1.1205-5.0536-1.0791-10.61 0.11684-15.674 1.7624-7.462 6.0343-14.275 11.984-19.112 2.643-2.1488 6.7708-4.4921 9.9934-5.673 6.5361-2.3951 13.649-2.7849 20.453-1.121 10.032 2.4532 18.438 9.2072 22.964 18.451 2.1734 4.4386 3.2338 8.3443 3.601 13.264 0.31744 4.253-0.37555 9.4344-1.8237 13.636-2.1255 6.1664-6.0068 11.73-11.035 15.818-2.643 2.1488-6.7709 4.4921-9.9934 5.673-4.6476 1.7031-9.8093 2.4318-14.616 2.0635zm4.1303-13.526c0.78034-0.74761 0.86872-1.2429 0.86872-4.8679v-3.266l-0.9998-0.0828v3.0009c0 3.331-0.12096 4.2455-0.60336 4.5616-0.44453 0.29127-0.98719 0.18521-1.3164-0.25728-0.26464-0.35568-0.28195-0.56331-0.31944-3.8326l-0.0396-3.4565h-1.07l0.0414 3.4993c0.0465 3.9322 0.11513 4.2535 1.0412 4.8758 0.3888 0.26124 0.59437 0.30456 1.2332 0.25986 0.61971-0.0434 0.84283-0.12662 1.1641-0.4344zm5.4584 0.23095c0.7525-0.38371 1.2443-1.116 1.314-1.9566 0.0876-1.0565-0.29376-1.7628-1.4498-2.6852-1.0496-0.83743-1.1878-1.042-1.1878-1.7581 0-0.37904 0.0885-0.60191 0.32869-0.82754 0.29031-0.27273 0.42108-0.3004 1.1202-0.23701 0.77241 0.07 0.79325 0.0633 0.86283-0.28101 0.10756-0.53216-0.22326-0.71612-1.1843-0.65854-0.97034 0.0581-1.5389 0.41096-1.945 1.207-0.58264 1.1421-0.16136 2.2183 1.3003 3.3219 0.85138 0.64279 1.1169 1.0817 1.1169 1.846 0 1.0623-0.94678 1.5896-2.1198 1.1807-0.49215-0.17156-0.49463-0.17029-0.61667 0.31595-0.0815 0.32478-0.0409 0.38885 0.35576 0.56107 0.61118 0.26536 1.5532 0.25254 2.1046-0.0286zm-18.654-3.6991v-3.7993h1.4664v-0.93315h-4.1325v0.93315h1.5997v7.5985h1.0665zm4.5325 1.9996v-1.7996h0.38902c0.831 0 1.1124 0.35918 1.3274 1.6942 0.0706 0.43817 0.19545 1.0461 0.27753 1.3509 0.144 0.53479 0.16822 0.5542 0.69158 0.5542 0.46257 0 0.52888-0.0343 0.45071-0.23329-0.0692-0.17618-0.60342-2.7682-0.60342-2.9279 0-0.0159-0.18006-0.23403-0.40014-0.48469l-0.40014-0.45574 0.33177-0.21738c0.84443-0.5533 1.1569-2.2831 0.5685-3.1476-0.16497-0.24238-0.46243-0.56105-0.66101-0.70815-0.41058-0.30412-1.5012-0.4378-2.4325-0.29815l-0.60577 0.0908v8.382h1.0665zm0-4.27c0-1.755 0.0555-1.8405 0.98376-1.5177 0.6364 0.22134 0.87779 0.61351 0.88058 1.4306 3e-3 1.004-0.51182 1.6162-1.3644 1.6213l-0.4999 3e-3zm19.73 2.2704v-3.7993h1.5997v-0.93315h-4.1325v0.93315h1.6388l-0.1402 7.5985h1.0343zm13.897-6.932c0.0341-0.13623-52.709-0.27052-53.065-0.13511-0.0963 0.0366-0.13765 0.12714-0.0919 0.20115 0.11482 0.18578 53.11 0.11994 53.157-0.066zm-47.455-2.2685c0.19799-0.0797 0.22345-0.20481 0.15858-0.77951-0.14688-1.3013-0.0678-1.2178-1.1551-1.2178-0.79286 0-1.0494-0.055-1.3899-0.29787-0.8904-0.63513-1.3847-2.6259-1.1216-4.5174 0.17408-1.2516 0.49983-2.0142 1.0626-2.4878 0.53709-0.45193 0.92102-0.551 1.7532-0.45244 0.59633 0.0706 0.66037 0.0514 0.72103-0.21604 0.22439-0.98941 0.33938-1.5991 0.30641-1.6245-0.19274-0.14855-1.0654-0.33537-1.5666-0.33537-2.5808 0-4.4794 2.0291-4.7839 5.1128-0.34869 3.5307 0.80896 6.0846 3.0994 6.8378 0.55539 0.18263 2.4428 0.1685 2.9158-0.0218zm12.987-0.13547c0.72913-0.36334 1.2524-0.99451 1.6205-1.9546 0.18576-0.48455 0.22623-1.2843 0.26004-5.1396l0.04-4.5658h-2.4126l-2.6e-4 4.4325c-1.4e-4 3.9529-0.0254 4.483-0.23329 4.899-0.19351 0.38736-0.31515 0.47344-0.71641 0.50696-1.0822 0.0904-1.1814-0.38-1.1823-5.606l-6.7e-4 -4.2325h-2.3995l2e-3 4.0992c3e-3 4.5383 0.11538 5.5044 0.76555 6.5561 0.79375 1.2839 2.7634 1.7488 4.2566 1.0047zm15.146 0.13359c0.20735-0.0833 0.22895-0.20069 0.15571-0.84616-0.14074-1.2404-0.10453-1.199-0.97948-1.1197-1.0193 0.0924-1.6402-0.19489-2.0938-0.9689-0.49821-0.85013-0.6012-1.3228-0.61132-2.8055-0.0194-2.8342 0.89085-4.1812 2.7137-4.016 0.71366 0.0647 0.78082 0.0474 0.84059-0.21703 0.18343-0.81149 0.32757-1.4961 0.33047-1.5698 8e-3 -0.19475-1.254-0.41573-1.9918-0.34884-2.1039 0.19078-3.7886 1.8431-4.2768 4.1946-0.23986 1.1554-0.10385 3.9178 0.23947 4.8636 0.52301 1.4409 1.4892 2.4403 2.7662 2.8613 0.54478 0.17961 2.436 0.16155 2.907-0.0278zm17.655-0.19051c0.77099-0.33521 1.5524-1.1102 1.8588-1.8436 0.26568-0.63588 0.25532-2.1108-0.0195-2.7703-0.28878-0.69309-0.9888-1.4034-2.1833-2.2156-1.3991-0.9512-1.697-1.846-0.83969-2.5224 0.29519-0.23288 0.47998-0.26675 1.1515-0.21104 0.43991 0.0365 0.92444 0.10657 1.0767 0.15572 0.25372 0.0819 0.29124 9e-3 0.44825-0.86949 0.19138-1.0709 0.18444-1.0848-0.65849-1.3252-0.66769-0.19039-1.5802-0.16553-2.3535 0.0641-1.5298 0.45429-2.4482 1.6551-2.4426 3.1935 5e-3 1.4133 0.62965 2.3671 2.2826 3.4862 0.52439 0.35503 1.0676 0.82726 1.2072 1.0494 0.31351 0.49889 0.24649 1.323-0.13893 1.7084-0.44512 0.44511-1.8593 0.45578-2.9883 0.0226-0.15932-0.0611-0.23332 0.10253-0.35043 0.77504-0.21946 1.2602-0.22737 1.239 0.5514 1.4773 0.97426 0.29808 2.4901 0.22017 3.3982-0.17467zm-42.891-2.2049v-2.4662h2.2662v4.9324h2.3995v-11.864h-2.3995v4.6658h-2.2662v-4.6658h-2.3995v11.864h2.3995zm14.797 0.12526v-2.3409l0.49339 0.0414c0.68219 0.0572 0.92239 0.52352 1.2392 2.4058 0.39759 2.3618 0.29837 2.2347 1.7456 2.2347 1.2014 0 1.2174-4e-3 1.129-0.29995-0.0493-0.16496-0.26215-1.1199-0.47308-2.122-0.41624-1.9776-0.61285-2.4759-1.1407-2.8911l-0.3445-0.27099 0.55146-0.49821c0.8477-0.76584 1.1196-1.3962 1.1141-2.5827-8e-3 -1.6145-0.68834-2.5767-2.1302-3.0107-0.64683-0.19466-3.1482-0.25785-4.084-0.10316l-0.49991 0.0826v11.696h2.3995zm0-5.9066v-1.7506h0.542c0.68596 0 0.98276 0.15956 1.1683 0.62811 0.53715 1.3562 0.0113 2.6421-1.1438 2.797l-0.56656 0.076zm13.331 5.7813v-2.4662h2.2662v4.9324h2.3995v-11.864h-2.3995v4.6658h-2.2662v-4.6658h-2.3995v11.864h2.3995zm10.398 1.4664v-0.99981h-2.9328v-3.1994h2.6662v-1.9996h-2.6662v-2.6662h2.7995v-1.9996h-5.199v11.864h5.3323zm-17.441-12.536c1.4992-1.0482 2.2384-3.3665 2.0598-6.4607-0.12223-2.1183-0.50544-3.3136-1.3696-4.272-1.5771-1.7491-4.2113-1.3042-5.4193 0.91528-0.57342 1.0536-0.89242 2.5251-0.89242 4.1168 0 2.3428 0.48056 4.0695 1.4237 5.1155 0.7495 0.83125 1.3594 1.0722 2.598 1.0264 0.88869-0.0328 1.0978-0.0905 1.5997-0.44141zm-1.9787-1.631c-0.38933-0.0624-0.67197-0.52716-0.9277-1.5254-0.31592-1.2332-0.20887-4.7286 0.17062-5.5705 0.33599-0.74547 0.59319-0.96451 1.0678-0.90945 0.80899 0.0938 1.2461 1.4705 1.2447 3.9198-2e-3 2.8867-0.52125 4.2514-1.5555 4.0855zm-25.398-1.9302-0.0407-3.8992 0.49311 1.4664c0.27121 0.80651 0.93651 2.5462 1.4784 3.8659l0.98533 2.3995 2.1754 0.0774v-12.008h-2.1329l5e-3 1.3664c3e-3 0.75152 0.0583 2.4753 0.12409 3.8307 0.0657 1.3554 0.0999 2.484 0.0758 2.508-0.0241 0.024-0.16997-0.3356-0.32425-0.79922s-0.81233-2.1921-1.4623-3.8411l-1.1818-2.9982-2.3018-0.077v12.008h2.1477zm8.6972 3.6425c0.6671-0.25347 0.68529-0.25347 1.422 0 0.52817 0.18172 1.1094 0.25676 1.9885 0.25676h1.2422l-0.0887-0.43325c-0.0488-0.23828-0.57321-2.9228-1.1654-5.9655l-1.0766-5.5323h-2.9088l-0.24236 1.1331c-0.1333 0.62321-0.71287 3.3077-1.2879 5.9655l-1.0456 4.8324h1.2434c0.90477 0 1.4275-0.0699 1.9192-0.25676zm-0.53957-1.2851c0-0.21125 1.2289-7.4882 1.293-7.6564 0.0419-0.10998 0.35712 1.5697 0.7005 3.7326s0.61264 3.9502 0.59835 3.9716c-0.0143 0.0215-0.32405-0.0742-0.68837-0.21265-0.64395-0.24468-0.67967-0.2449-1.2829-8e-3 -0.34129 0.13405-0.62052 0.21178-0.62052 0.17272zm8.2651-3.3239v-4.8657h2.1329v-2.2662h-6.6654v2.2662h2.1329v9.7314h2.3995zm4.9324-1.1331v-5.9988h-2.3995v11.998h2.3995zm10.634 2.1662-0.0721-3.8326 0.45149 1.3331c0.24832 0.73319 0.90965 2.4579 1.4696 3.8326l1.0181 2.4995h2.2292v-11.998h-2.1733l0.0728 3.8326c0.0706 3.717 0.066 3.8145-0.15467 3.2327-0.12513-0.32994-0.7935-2.0546-1.4853-3.8326l-1.2578-3.2327h-2.2004v11.998h2.1742zm8.3866 3.5699c0.68713-0.26117 0.69465-0.26117 1.4539 6e-5 0.89238 0.30703 3.121 0.38039 3.121 0.10274 0-0.15678-2.0784-10.949-2.222-11.538-0.0702-0.28782-0.13083-0.29994-1.5005-0.29994h-1.4274l-1.244 5.76c-0.68423 3.168-1.2722 5.8674-1.3065 5.9988-0.0568 0.21709 0.0515 0.23888 1.1862 0.23882 0.91933-5e-5 1.4308-0.0693 1.9393-0.26259zm-0.48244-1.5084c5e-3 -0.16236 0.29332-1.9749 0.64168-4.0278 0.48358-2.8498 0.65407-3.6223 0.7208-3.266 0.2517 1.3436 1.1743 7.4974 1.1306 7.5411-0.028 0.028-0.3442-0.0604-0.70261-0.19642-0.6337-0.24055-0.66746-0.24059-1.2252-2e-3l-0.57355 0.24584zm10.79 0.77126v-0.99981h-3.0661v-9.9981h-2.3995v11.998h5.4656z" fill="#fff" stroke-width=".13331"/></svg>
