<?xml version="1.0" encoding="UTF-8"?>
<svg version="1.1" viewBox="0 0 250 91" xmlns="http://www.w3.org/2000/svg" xmlns:cc="http://creativecommons.org/ns#" xmlns:dc="http://purl.org/dc/elements/1.1/">
<g transform="matrix(.59432 0 0 .59432 10 28.712)" fill="#fff">
<polygon points="240.24 10.865 245.68 5.4995 240.24 0 234.81 5.3653"/>
<polygon points="243.51 16.297 235.9 16.297 235.9 44.546 243.51 44.546"/>
<path d="m0 16.97h3.4589v4.7081c1.3836-3.2284 5.1192-5.3806 8.9931-5.3806 7.8863 0 10.377 4.0355 10.377 10.492v17.622h-3.4589v-17.084c0-4.7081-1.5219-8.34-7.1945-8.34-5.3959 0-8.578 4.0355-8.7164 9.4161v16.142h-3.4589z"/>
<path d="m28.507 25.668c0.13299-6.5189 4.6548-9.3709 10.772-9.3709 4.7878 0 9.9745 1.4939 9.9745 8.9634v14.667c0 1.3581 0.66497 2.0371 1.8619 2.0371l1.0639-0.13581v2.7162c-0.66497 0.27162-1.3299 0.27162-2.1279 0.27162-3.3248 0-3.8568-1.9013-3.8568-4.7533-2.3939 3.531-4.7878 5.5682-9.9745 5.5682-4.9208 0-9.0436-2.5804-9.0436-8.1486 0-7.7411 7.4476-8.0128 14.629-8.8276 2.6599-0.40743 4.1228-0.67905 4.1228-3.8027 0-4.4817-3.1918-5.704-7.0487-5.704-3.9898 0-7.0487 1.9013-7.1817 6.5189h-3.3248zm17.422 4.0743c-0.53198 0.81486-1.9949 1.0865-2.7929 1.2223-5.7187 0.95067-12.634 0.95067-12.634 6.383 0 3.3952 2.9259 5.4324 5.9847 5.4324 5.0538 0 9.5755-3.2594 9.4426-8.6918z"/>
<path d="m62.667 16.955h5.8191v2.799h-5.8191v18.527c0 2.1326 0.41565 3.3321 2.771 3.5987 1.1084 0 2.0782 0 3.0481-0.26657v2.9323h-3.0481c-4.5721 0-6.2347-1.3329-6.0962-5.9978v-18.927h-4.9878v-2.6657h5.1263v-8.2637h3.3252v8.2637z"/>
<polygon points="78.27 17.384 75.008 17.384 75.008 44.546 78.27 44.546"/>
<polygon points="78.27 6.5189 75.008 6.5189 75.008 11.951 78.27 11.951"/>
<path d="m108.71 30.965c0 8.0128-4.5077 14.667-12.977 14.667-8.6056 0-13.113-6.7905-13.113-14.667 0-7.877 4.5077-14.667 13.113-14.667 8.469 0 12.977 6.7905 12.977 14.667m-22.812 0c0 5.9756 3.2783 11.815 9.8349 11.815 6.42 0 9.5617-5.8398 9.5617-11.815 0-5.8398-3.1417-11.815-9.5617-11.815-6.5566 0-9.8349 5.9756-9.8349 11.815"/>
<path d="m114.14 16.97h3.4589v4.7081c1.3836-3.2284 5.1192-5.3806 8.9931-5.3806 7.8863 0 10.377 4.0355 10.377 10.492v17.622h-3.4589v-17.084c0-4.7081-1.5219-8.34-7.1945-8.34-5.3959 0-8.578 4.0355-8.7164 9.4161v16.142h-3.4589z"/>
<path d="m142.65 25.668c0.13299-6.5189 4.6548-9.3709 10.772-9.3709 4.7878 0 9.9745 1.4939 9.9745 8.9634v14.667c0 1.3581 0.66497 2.0371 1.8619 2.0371l1.064-0.13581v2.7162c-0.66497 0.27162-1.3299 0.27162-2.1279 0.27162-3.3248 0-3.8568-1.9013-3.8568-4.7533-2.3939 3.531-4.7878 5.5682-9.9745 5.5682-4.9208 0-9.0436-2.5804-9.0436-8.1486 0-7.7411 7.4476-8.0128 14.629-8.8276 2.6599-0.40743 4.1228-0.67905 4.1228-3.8027 0-4.4817-3.1918-5.704-7.0487-5.704-3.9898 0-7.0487 1.9013-7.1817 6.5189h-3.3248zm17.422 4.0743c-0.53197 0.81486-1.9949 1.0865-2.7929 1.2223-5.7187 0.95067-12.634 0.95067-12.634 6.383 0 3.3952 2.9259 5.4324 5.9847 5.4324 5.0538 0 9.5755-3.2594 9.4426-8.6918z"/>
<polygon points="175.02 6.5189 171.76 6.5189 171.89 44.546 175.02 44.546"/>
<path d="m207.63 17.096v26.489c0 4.792-0.40362 12.912-14.261 12.912-5.7852 0-12.109-2.5291-12.243-8.386h8.0724c0.26908 1.3311 0.80724 2.6622 5.1125 2.6622 4.0362 0 5.7852-1.7304 5.7852-6.2562v-3.4609c-1.3454 2.1298-3.0944 4.1265-7.5342 4.1265-6.727 0-12.109-4.6589-12.109-14.376s5.3816-14.509 11.705-14.509c5.247 0 7.2651 3.0616 8.2069 4.9251v-4.1265zm-13.723 21.963c4.978 0 6.3234-4.2596 6.3234-8.1198 0-4.5258-2.2872-8.2529-6.3234-8.2529-2.6908 0-5.9197 1.9967-5.9197 8.5191 0 3.594 1.4799 7.8536 5.9197 7.8536z"/>
<path d="m214.15 17.108h7.0076v4.8666h0.13476c1.6171-2.8389 3.2343-5.6777 7.8162-5.6777l1.3476 0.13518v7.5703h-2.1562c-5.66 0-6.7381 3.5148-6.7381 6.7592v14.87h-7.4119v-28.659z"/>
<path d="m276.12 44.82h-7.583v-3.5188h-0.13787c-1.7924 3.1128-5.2392 4.3309-8.2724 4.3309-8.686 0-12.271-7.579-12.271-15.293 0-9.8798 5.6528-14.752 11.995-14.752 4.9634 0 7.1694 2.7068 8.2724 4.4662h0.13787v-13.534h7.7209v38.301zm-14.063-5.4136c4.8256 0 6.7558-3.9248 6.7558-8.1204 0-4.6015-1.3787-9.2031-6.48-9.2031-4.8256 0-6.48 4.1955-6.48 8.7971 0 3.3835 1.3787 8.5264 6.2043 8.5264z"/>
<polygon points="282.64 6.5189 311.03 6.5189 311.17 13.285 290.6 13.285 290.6 21.405 309.39 21.405 309.39 27.9 290.46 27.9 290.46 37.779 311.99 37.779 311.99 44.546 282.64 44.546" fill-opacity=".72385"/>
<path d="m322.86 32.909c0 2.1656 1.223 6.2262 8.1531 6.2262 3.8048 0 8.1531-0.94747 8.1531-5.008 0-2.9778-2.9895-3.7899-7.066-4.7373l-4.0766-0.94747c-6.2507-1.3535-12.23-2.707-12.23-11.234 0-4.1959 2.31-11.776 14.811-11.776 11.686 0 14.947 7.7151 14.947 12.317h-7.7454c-0.27177-1.6242-0.81531-5.6848-7.8813-5.6848-2.9895 0-6.6584 1.0828-6.6584 4.602 0 2.9778 2.4459 3.6545 4.0766 4.0606l9.376 2.1656c5.1636 1.3535 10.055 3.3838 10.055 10.287 0 11.505-11.822 12.452-15.219 12.452-13.996 0-16.306-7.9858-16.306-12.723z" fill-opacity=".72385"/>
<path d="m368.52 39c4.3483 0 10.463-2.707 10.463-13.535 0-10.557-6.1148-13.265-10.463-13.265-4.3483 0-10.463 2.707-10.463 13.4s6.1148 13.4 10.463 13.4m0-33.567c5.0277 0 18.48 2.1656 18.48 20.167 0 17.867-13.453 20.032-18.48 20.032s-18.48-2.1656-18.48-20.032c0-18.002 13.453-20.167 18.48-20.167" fill-opacity=".72385"/>
</g>
</svg>
