<?xml version="1.0" encoding="UTF-8"?>
<svg version="1.1" viewBox="0 0 250 91" xmlns="http://www.w3.org/2000/svg" xmlns:cc="http://creativecommons.org/ns#" xmlns:dc="http://purl.org/dc/elements/1.1/" xmlns:rdf="http://www.w3.org/1999/02/22-rdf-syntax-ns#">
<metadata>
<rdf:RDF>
<cc:Work rdf:about="">
<dc:format>image/svg+xml</dc:format>
<dc:type rdf:resource="http://purl.org/dc/dcmitype/StillImage"/>
<dc:title/>
</cc:Work>
</rdf:RDF>
</metadata>
<g transform="translate(0,-961.4)">
<path d="m130.39 1031.9c-2.1718-0.2367-3.6911-1.4254-4.3526-3.405-0.49254-1.4741-0.53221-3.4898-0.0993-5.0486 0.51157-1.8422 1.7719-3.1068 3.5502-3.5622 0.57136-0.1464 0.821-0.1746 1.542-0.1745 0.72308 2e-4 0.99439 0.03 1.5626 0.1732 1.2588 0.3168 2.2715 1.0411 2.9247 2.0917 0.59716 0.9607 0.90875 2.2371 0.90958 3.7261l2.7e-4 0.4771h-8.2671l0.017 0.3162c0.0344 0.6387 0.16258 1.2652 0.35523 1.7354 0.34814 0.8499 0.95442 1.3977 1.7783 1.607 0.9504 0.2412 2.0306 0.064 2.7021-0.4469 0.37415-0.2841 0.70746-0.8133 0.83753-1.3299l0.0625-0.2484 1.2311-0.011c1.1602-0.011 1.231 0 1.2308 0.039 0 0.025-0.0289 0.1836-0.0639 0.3518-0.38939 1.8714-1.691 3.129-3.6996 3.5749-0.46592 0.1032-0.76618 0.1347-1.3852 0.1442-0.33781 0.011-0.71417 0-0.83635-0.014zm3.4897-7.3361c-0.0566-0.4224-0.0797-0.5512-0.14537-0.8066-0.28868-1.1245-0.99159-1.8499-1.9984-2.0623-0.11501-0.025-0.36198-0.051-0.54886-0.058-1.3928-0.056-2.3544 0.6067-2.7813 1.9192-0.0813 0.25-0.1684 0.6607-0.19981 0.9422l-0.0182 0.1633h5.7051zm8.3922 7.3351c-0.69786-0.074-1.3327-0.2912-1.7786-0.6095-0.17835-0.1273-0.51159-0.466-0.63474-0.6449-0.30243-0.4395-0.51396-1.0996-0.58133-1.8141-0.0171-0.181-0.0271-1.5189-0.0271-3.6133v-3.3258h-1.7773v-1.9297l0.71222-0.011c0.6299-0.011 0.73062-0.015 0.87163-0.064 0.30774-0.1034 0.47666-0.2662 0.59235-0.5729 0.0575-0.1524 0.0586-0.178 0.0662-1.5727l8e-3 -1.4179h2.0623v3.6329h3.4761v1.9336l-3.463 0.022-8e-3 2.9141c-5e-3 1.7576 4e-3 3.0802 0.0188 3.3324 0.0411 0.6517 0.14411 0.9762 0.39827 1.2544 0.14561 0.1592 0.3962 0.2979 0.66214 0.3665 0.51726 0.1333 1.623 0.028 2.1889-0.2091 0.0431-0.017 0.0458 0.039 0.0458 0.9893v1.0083l-0.076 0.039c-0.10432 0.054-0.4772 0.16-0.7392 0.2102-0.55466 0.1067-1.4715 0.1468-2.0176 0.089zm22.422 0.013c-1.3437-0.139-2.3756-0.5704-3.1629-1.3221-0.45822-0.4375-0.73528-0.8115-1.0124-1.3668-0.53815-1.0783-0.7834-2.5848-0.67224-4.1296 0.12397-1.7231 0.63579-3.001 1.5806-3.9463 0.78046-0.7809 1.6729-1.2069 2.9403-1.4033 0.29779-0.045 1.3988-0.045 1.7119 7e-4 0.78685 0.1164 1.5067 0.3592 2.0648 0.6967 1.6272 0.9838 2.4684 2.7843 2.4696 5.2861l2.6e-4 0.451h-8.259v0.1896c0 0.4616 0.13563 1.2445 0.29282 1.69 0.43863 1.2434 1.3654 1.8839 2.7259 1.8839 1.1511 0 2.0307-0.482 2.4565-1.346 0.10966-0.2226 0.24861-0.6404 0.24861-0.7479 0-0.048 0.0419-0.049 1.2415-0.049 0.90176 0 1.2415 0.011 1.2415 0.029 0 0.016-0.0289 0.1724-0.0643 0.347-0.40949 2.0223-1.8846 3.33-4.1487 3.678-0.33525 0.051-1.3704 0.089-1.6546 0.059zm3.3502-7.4584c-0.0194-0.25-0.12835-0.7508-0.21902-1.0056-0.42449-1.1932-1.3129-1.8151-2.5954-1.8169-1.1367 0-1.9664 0.4854-2.442 1.4327-0.18316 0.3649-0.35009 0.9639-0.39632 1.422l-0.0179 0.1764h5.6865zm21.623 7.4458c-1.6554-0.1862-2.7421-1.0847-3.032-2.5072-0.15715-0.7713-0.0656-1.6003 0.2466-2.234 0.54412-1.1039 1.8083-1.7926 3.7393-2.0369 0.24757-0.031 3.2209-0.3021 3.3168-0.3021 0.0351 0-4e-3 -1.1183-0.0482-1.4245-0.0854-0.5739-0.22572-0.9223-0.48322-1.1993-0.31787-0.342-0.77883-0.5059-1.4961-0.5319-1.1335-0.041-1.8652 0.2876-2.2035 0.9893-0.14143 0.2935-0.21525 0.605-0.23933 1.0098l-0.0174 0.2941h-2.4419l0.01-0.1895c0.0514-0.9394 0.26987-1.6794 0.6793-2.3016 0.16414-0.2493 0.67503-0.756 0.93686-0.929 0.59843-0.3954 1.3353-0.6496 2.2608-0.7798 0.46911-0.065 1.7934-0.065 2.2216-6e-4 0.39047 0.06 0.90202 0.1868 1.1496 0.285 1.0744 0.4262 1.7131 1.1803 2.0103 2.3738 0.17324 0.6958 0.1673 0.568 0.18408 3.9592 0.0141 2.8674 0.0186 3.0923 0.0616 3.201 0.0255 0.065 0.0724 0.1448 0.10422 0.1789 0.23793 0.2552 0.7908 0.2422 1.4366-0.034 0.0431-0.019 0.0458 0.034 0.0458 0.8845v0.904l-0.12415 0.064c-0.19221 0.098-0.57379 0.2172-0.89967 0.283-0.2522 0.051-0.3735 0.059-0.81878 0.057-0.45103 0-0.55141-0.011-0.73181-0.059-0.31688-0.085-0.5531-0.2132-0.73643-0.3964-0.26267-0.2627-0.38478-0.5745-0.41688-1.0643l-0.0172-0.2626-0.12491 0.1501c-0.59511 0.7151-1.6655 1.311-2.7426 1.527-0.17968 0.036-0.4485 0.078-0.59737 0.092-0.31172 0.031-0.94597 0.031-1.2322 0zm1.9605-1.8673c0.76259-0.1066 1.5034-0.4352 2.1756-0.9655l0.15029-0.1187v-1.3065c0-1.2466-2e-3 -1.3063-0.0476-1.3063-0.0914 0-2.2155 0.2348-2.5006 0.2765-1.3034 0.1903-2.0901 0.7016-2.2729 1.4772-0.0464 0.1965-0.0522 0.6161-0.0115 0.8128 0.12775 0.6172 0.63947 1.0275 1.4241 1.142 0.25438 0.036 0.77396 0.031 1.0827-0.011zm24.999 1.8555c-1.0565-0.1421-1.9488-0.566-2.6389-1.2531-0.91201-0.9082-1.4122-2.1123-1.5853-3.816-0.0407-0.4014-0.0405-1.5531 3.1e-4 -1.9602 0.16657-1.6569 0.65792-2.8852 1.5127-3.7809 0.91315-0.957 2.135-1.4231 3.5981-1.3729 1.1175 0.039 2.0226 0.4047 2.7325 1.1062 0.15069 0.149 0.27712 0.2709 0.28096 0.2709 4e-3 0 6e-3 -1.5937 6e-3 -3.5414v-3.5414h2.5352v17.668h-2.1946l-0.012-1.4158-0.18295 0.2286c-0.63015 0.7869-1.6183 1.2951-2.7629 1.4208-0.33749 0.036-0.96443 0.031-1.2882-0.012zm2.0846-2.1663c0.64206-0.1155 1.2676-0.4174 1.6971-0.8191l0.12569-0.1176v-5.9462l-0.15845-0.1468c-0.93791-0.8683-2.6507-1.1119-3.7881-0.5386-0.60545 0.3051-1.0169 0.7798-1.3026 1.5031-0.12131 0.3071-0.21977 0.6922-0.28397 1.1107-0.0661 0.4307-0.0656 1.638 6.2e-4 2.0648 0.17856 1.1494 0.56515 1.9133 1.2201 2.4108 0.33533 0.2548 0.85405 0.4549 1.3355 0.5152 0.26362 0.034 0.87548 0.014 1.1542-0.036zm11.251 2.1809c-1.0966-0.1056-1.9958-0.3981-2.7383-0.891-0.31164-0.207-0.84723-0.7371-1.0407-1.0301-0.36296-0.5499-0.61232-1.2592-0.67326-1.915l-0.0175-0.1891h2.4833l0.0325 0.2026c0.17444 1.0827 0.96297 1.8005 2.1733 1.9781 0.89838 0.132 1.8021-0.049 2.3253-0.4646 0.53991-0.4291 0.66936-1.3123 0.27158-1.8528-0.29225-0.3972-0.8077-0.6226-2.4652-1.0783-1.5161-0.4166-1.9271-0.554-2.5004-0.8358-0.42461-0.2086-0.69266-0.387-0.96149-0.6399-0.27595-0.2596-0.43988-0.4797-0.59469-0.7984-0.19161-0.3946-0.28642-0.8374-0.28642-1.3381 0-1.6233 1.0102-2.7413 2.875-3.1819 0.53442-0.1263 0.84706-0.1569 1.6074-0.1577 0.92013-7e-4 1.3895 0.064 2.0719 0.2881 0.65552 0.215 1.1916 0.543 1.6282 0.9961 0.56575 0.5872 0.85961 1.2611 0.97558 2.237l0.0148 0.1241h-2.4974l-0.0301-0.2064c-0.1466-1.0058-1.0077-1.6493-2.2071-1.6493-1.2572 0-2.0367 0.6308-1.9251 1.5577 0.053 0.4402 0.35446 0.7674 0.93677 1.0166 0.31947 0.1368 0.72528 0.26 1.6438 0.4991 1.445 0.376 1.9401 0.5364 2.525 0.818 1.3827 0.6658 2.0011 1.6583 1.9394 3.1127-0.0392 0.9253-0.32218 1.5882-0.92828 2.1749-0.64836 0.6276-1.5512 1.0128-2.7766 1.1848-0.34695 0.049-1.5074 0.074-1.8615 0.039zm-215.49-24.739v-24.503l13.889 0.012 6.9726 10.925c3.8349 6.0087 7.3065 11.448 7.7146 12.088s1.1404 1.7874 1.6273 2.5505c0.48695 0.7632 1.8616 2.9185 3.0547 4.7897 1.561 2.4482 2.1807 3.3996 2.21 3.3928 0.03561-0.011 0.89051-0.5662 0.94839-0.6188 0.01207-0.011-0.07137-0.1596-0.1855-0.3299-1.1717-1.7499-1.9255-3.6086-2.3306-5.7464-0.14311-0.755-0.23227-1.4727-0.31984-2.5744-0.02138-0.2683-0.03538-2.8211-0.04814-8.7556-0.01254-5.8016-0.02715-8.5051-0.04768-8.7948-0.06499-0.91735-0.08884-1.2007-0.15088-1.7903-0.11516-1.0944-0.28628-2.1363-0.51054-3.1086-0.10664-0.46236-0.38225-1.4479-0.50274-1.7977l-0.06499-0.18876 0.08314-0.0238c0.04568-0.0131 0.25955-0.0789 0.47518-0.14637 1.4673-0.45888 2.8672-0.63842 4.7403-0.60798 1.1597 0.0189 1.8688 0.10632 2.7873 0.34367 2.9237 0.75565 4.8295 2.6911 5.5517 5.6381 0.1578 0.64393 0.27293 1.4766 0.30118 2.1784 0.0076 0.18688 0.02031 9.6164 0.02838 20.955l0.01469 20.615-14.494-0.022-0.56262-0.8631c-0.30945-0.4747-0.65795-1.0099-0.77445-1.1892s-0.49173-0.7553-0.83386-1.2801c-0.34212-0.5247-0.93584-1.4362-1.3194-2.0256-0.67965-1.0443-3.915-6.0124-4.2551-6.534-0.4406-0.6755-5.7285-8.7947-6.043-9.2784-0.19624-0.3018-0.94034-1.4446-1.6536-2.5396-1.3735-2.1085-1.641-2.5288-2.1015-3.3018-0.50576-0.849-1.2512-2.1706-1.8502-3.2801-0.15521-0.2875-0.3048-0.5605-0.33242-0.6066l-0.05023-0.083-0.12271 0.073c-0.06744 0.041-0.26576 0.1582-0.44059 0.2614l-0.31787 0.1877 0.06392 0.1573c0.62905 1.5481 1.1206 4.1514 1.3022 6.8973 0.0878 1.3269 0.09237 1.9525 0.09263 12.67l2.7e-4 10.748h-12.545zm48.412 3.5218c0.0061-15.917 0.01561-21.038 0.03899-21.216 0.18342-1.4005 0.40651-2.2502 0.83156-3.1675 0.44652-0.9636 1.1694-1.8899 1.9836-2.5416 1.5825-1.2668 3.7983-1.8871 6.5079-1.8218 1.7307 0.0416 2.9327 0.22287 4.3582 0.65688 0.22641 0.0689 0.41165 0.13897 0.41165 0.15565 0 0.0166-0.04168 0.15318-0.09263 0.30334-0.59471 1.7528-1.023 4.0557-1.2002 6.4542-0.09895 1.3389-0.10003 1.4289-0.1199 9.9971-0.01077 4.6574-0.02638 8.5152-0.03453 8.5728-0.0082 0.058-0.02737 0.2632-0.04261 0.4573-0.2356 3.0029-1.0702 5.4074-2.4993 7.2005-0.29404 0.369-0.98633 1.0614-1.3557 1.3558-1.0271 0.8191-2.1839 1.4116-3.5807 1.8345l-0.36591 0.111-0.0071 0.46-0.0071 0.4602h31.495v11.709h-36.33zm48.057 13.545v-7.4359l1.5747 8e-4 1.5747 6e-4 0.15682 0.2849c0.0862 0.1569 1.5329 2.7244 3.2148 5.7059l3.0579 5.4207 6e-3 -5.7066 6e-3 -5.7063h2.509v14.872l-1.5747-4e-4 -1.5747-2e-4 -0.11926-0.2153c-0.54195-0.9783-6.2867-11.149-6.3141-11.179-0.0297-0.032-0.0354 0.8696-0.0354 5.6781v5.7165h-2.483v-7.4357zm36.408-1.3985v-8.8339h2.5614v7.2005l0.14979-0.1698c0.62182-0.7053 1.308-1.0729 2.3476-1.2578 0.29066-0.051 0.42824-0.06 0.97854-0.061 0.67942-8e-4 0.89499 0.02 1.343 0.1319 0.59279 0.1479 1.0522 0.4006 1.4684 0.8081 0.71601 0.7008 1.0872 1.6823 1.1861 3.1366 0.0161 0.2371 0.0267 1.8703 0.0271 4.1358l6.3e-4 3.744h-2.5595l-0.01-3.8093c-9e-3 -3.4177-0.0141-3.8349-0.0534-4.0577-0.18198-1.0331-0.58399-1.5638-1.3538-1.7868-0.7742-0.2245-1.8424-0.1203-2.6178 0.255-0.24235 0.1173-0.51813 0.3028-0.73509 0.4945l-0.17197 0.152v8.7523h-2.5614zm25.796 2.9797v-5.8544h2.1693l3.2e-4 0.7644 3.1e-4 0.7644 0.0564-0.091c0.41418-0.672 0.78301-1.0368 1.3329-1.3181 0.54869-0.2807 0.95883-0.3664 1.7593-0.3672 0.6147-6e-4 0.79243 0.02 1.1565 0.134l0.21561 0.068v1.1234c0 1.0598-2e-3 1.1226-0.0458 1.105-0.49632-0.2012-1.2292-0.3186-1.8254-0.2923-0.95505 0.042-1.7213 0.3817-2.1844 0.9675l-0.1001 0.1266v8.7249h-2.5352v-5.8546zm8.442-2.9797v-8.8339h2.5614v17.668h-2.5614zm18.322 2.9797v-5.8544h2.1685l6e-3 0.7488 6e-3 0.7489 0.13432-0.1805c0.18932-0.2543 0.60959-0.6523 0.87417-0.8278 0.80278-0.5325 1.8003-0.7776 3.0277-0.7436 1.1624 0.032 1.9577 0.3177 2.5992 0.9335 0.62475 0.5998 0.97658 1.4099 1.1587 2.6681 0.0384 0.2651 0.0442 0.7507 0.0525 4.3299l9e-3 4.0316h-2.5617l-9e-3 -3.8355c-8e-3 -3.3339-0.0148-3.8628-0.05-4.0449-0.13119-0.6768-0.30191-1.0555-0.61502-1.364-0.38098-0.3754-1.0227-0.5585-1.8266-0.521-0.92025 0.044-1.7186 0.3513-2.2639 0.8751l-0.17642 0.1694v8.7209h-2.5352z" fill="#fff" stroke-width=".026136"/>
</g>
</svg>
