<?xml version="1.0" encoding="UTF-8" standalone="no"?>
<!-- Created with Inkscape (http://www.inkscape.org/) -->

<svg
   xmlns:dc="http://purl.org/dc/elements/1.1/"
   xmlns:cc="http://creativecommons.org/ns#"
   xmlns:rdf="http://www.w3.org/1999/02/22-rdf-syntax-ns#"
   xmlns:svg="http://www.w3.org/2000/svg"
   xmlns="http://www.w3.org/2000/svg"
   xmlns:sodipodi="http://sodipodi.sourceforge.net/DTD/sodipodi-0.dtd"
   xmlns:inkscape="http://www.inkscape.org/namespaces/inkscape"
   width="250"
   height="91"
   viewBox="0 0 250 91"
   id="svg2"
   version="1.1"
   inkscape:version="0.92.2 (5c3e80d, 2017-08-06)"
   sodipodi:docname="netherlands.svg"
   inkscape:export-filename="C:\Users\Amy\Desktop\Assets\arup.png"
   inkscape:export-xdpi="90"
   inkscape:export-ydpi="90">
  <defs
     id="defs4" />
  <sodipodi:namedview
     id="base"
     pagecolor="#ffffff"
     bordercolor="#666666"
     borderopacity="1.0"
     inkscape:pageopacity="0.0"
     inkscape:pageshadow="2"
     inkscape:zoom="2.8000014"
     inkscape:cx="130.73399"
     inkscape:cy="127.43726"
     inkscape:document-units="px"
     inkscape:current-layer="layer1"
     showgrid="false"
     inkscape:window-width="1920"
     inkscape:window-height="1001"
     inkscape:window-x="-9"
     inkscape:window-y="-9"
     inkscape:window-maximized="1"
     units="px" />
  <metadata
     id="metadata7">
    <rdf:RDF>
      <cc:Work
         rdf:about="">
        <dc:format>image/svg+xml</dc:format>
        <dc:type
           rdf:resource="http://purl.org/dc/dcmitype/StillImage" />
        <dc:title></dc:title>
      </cc:Work>
    </rdf:RDF>
  </metadata>
  <g
     inkscape:label="Layer 1"
     inkscape:groupmode="layer"
     id="layer1"
     transform="translate(0,-961.4)">
    <rect
       style="opacity:0.001;fill:none;fill-opacity:1;stroke:none;stroke-width:2.5;stroke-linecap:round;stroke-linejoin:round;stroke-miterlimit:4;stroke-dasharray:none;stroke-dashoffset:0;stroke-opacity:1"
       id="rect4175"
       width="250"
       height="91"
       x="0"
       y="961.4" />
    <path
       style="fill:#ffffff;stroke-width:0.02613624"
       d="m 130.38586,1031.8679 c -2.1718,-0.2367 -3.69113,-1.4254 -4.35264,-3.405 -0.49254,-1.4741 -0.53221,-3.4898 -0.0993,-5.0486 0.51157,-1.8422 1.77192,-3.1068 3.55025,-3.5622 0.57136,-0.1464 0.821,-0.1746 1.54204,-0.1745 0.72308,2e-4 0.99439,0.03 1.56259,0.1732 1.25885,0.3168 2.27154,1.0411 2.92469,2.0917 0.59716,0.9607 0.90875,2.2371 0.90958,3.7261 l 2.7e-4,0.4771 h -4.13355 -4.13354 l 0.017,0.3162 c 0.0344,0.6387 0.16258,1.2652 0.35523,1.7354 0.34814,0.8499 0.95442,1.3977 1.77833,1.607 0.9504,0.2412 2.03057,0.064 2.70209,-0.4469 0.37415,-0.2841 0.70746,-0.8133 0.83753,-1.3299 l 0.0625,-0.2484 1.23107,-0.011 c 1.16025,-0.011 1.23105,0 1.23085,0.039 0,0.025 -0.0289,0.1836 -0.0639,0.3518 -0.38939,1.8714 -1.69096,3.129 -3.69956,3.5749 -0.46592,0.1032 -0.76618,0.1347 -1.38523,0.1442 -0.33781,0.011 -0.71417,0 -0.83635,-0.014 z m 3.48974,-7.3361 c -0.0566,-0.4224 -0.0797,-0.5512 -0.14537,-0.8066 -0.28868,-1.1245 -0.99159,-1.8499 -1.99836,-2.0623 -0.11501,-0.025 -0.36198,-0.051 -0.54886,-0.058 -1.39283,-0.056 -2.35443,0.6067 -2.78132,1.9192 -0.0813,0.25 -0.1684,0.6607 -0.19981,0.9422 l -0.0182,0.1633 h 2.85253 2.85254 z m 8.39222,7.3351 c -0.69786,-0.074 -1.33266,-0.2912 -1.77856,-0.6095 -0.17835,-0.1273 -0.51159,-0.466 -0.63474,-0.6449 -0.30243,-0.4395 -0.51396,-1.0996 -0.58133,-1.8141 -0.0171,-0.181 -0.0271,-1.5189 -0.0271,-3.6133 v -3.3258 h -0.88864 -0.88864 v -0.9649 -0.9648 l 0.71222,-0.011 c 0.6299,-0.011 0.73062,-0.015 0.87163,-0.064 0.30774,-0.1034 0.47666,-0.2662 0.59235,-0.5729 0.0575,-0.1524 0.0586,-0.178 0.0662,-1.5727 l 0.008,-1.4179 h 1.03114 1.03113 v 1.8163 1.8166 h 1.73805 1.73806 v 0.9667 0.9669 l -1.73152,0.011 -1.73153,0.011 -0.008,2.9141 c -0.005,1.7576 0.004,3.0802 0.0188,3.3324 0.0411,0.6517 0.14411,0.9762 0.39827,1.2544 0.14561,0.1592 0.3962,0.2979 0.66214,0.3665 0.51726,0.1333 1.62295,0.028 2.18892,-0.2091 0.0431,-0.017 0.0458,0.039 0.0458,0.9893 v 1.0083 l -0.076,0.039 c -0.10432,0.054 -0.4772,0.16 -0.7392,0.2102 -0.55466,0.1067 -1.47154,0.1468 -2.01758,0.089 z m 22.42185,0.013 c -1.34374,-0.139 -2.3756,-0.5704 -3.16294,-1.3221 -0.45822,-0.4375 -0.73528,-0.8115 -1.01243,-1.3668 -0.53815,-1.0783 -0.7834,-2.5848 -0.67224,-4.1296 0.12397,-1.7231 0.63579,-3.001 1.58058,-3.9463 0.78046,-0.7809 1.67294,-1.2069 2.94033,-1.4033 0.29779,-0.045 1.39882,-0.045 1.71193,7e-4 0.78685,0.1164 1.50669,0.3592 2.06476,0.6967 1.62719,0.9838 2.46841,2.7843 2.46965,5.2861 l 2.6e-4,0.451 h -4.12952 -4.12953 v 0.1896 c 0,0.4616 0.13563,1.2445 0.29282,1.69 0.43863,1.2434 1.36544,1.8839 2.72591,1.8839 1.15106,0 2.03069,-0.482 2.4565,-1.346 0.10966,-0.2226 0.24861,-0.6404 0.24861,-0.7479 0,-0.048 0.0419,-0.049 1.24147,-0.049 0.90176,0 1.24146,0.011 1.24146,0.029 0,0.016 -0.0289,0.1724 -0.0643,0.347 -0.40949,2.0223 -1.88457,3.33 -4.14866,3.678 -0.33525,0.051 -1.37041,0.089 -1.65465,0.059 z m 3.35017,-7.4584 c -0.0194,-0.25 -0.12835,-0.7508 -0.21902,-1.0056 -0.42449,-1.1932 -1.31287,-1.8151 -2.59535,-1.8169 -1.13669,0 -1.96643,0.4854 -2.44195,1.4327 -0.18316,0.3649 -0.35009,0.9639 -0.39632,1.422 l -0.0179,0.1764 h 2.84326 2.84328 z m 21.62302,7.4458 c -1.65539,-0.1862 -2.74208,-1.0847 -3.03197,-2.5072 -0.15715,-0.7713 -0.0656,-1.6003 0.2466,-2.234 0.54412,-1.1039 1.80831,-1.7926 3.73934,-2.0369 0.24757,-0.031 3.22086,-0.3021 3.31681,-0.3021 0.0351,0 -0.004,-1.1183 -0.0482,-1.4245 -0.0854,-0.5739 -0.22572,-0.9223 -0.48322,-1.1993 -0.31787,-0.342 -0.77883,-0.5059 -1.49607,-0.5319 -1.13349,-0.041 -1.86524,0.2876 -2.20348,0.9893 -0.14143,0.2935 -0.21525,0.605 -0.23933,1.0098 l -0.0174,0.2941 h -1.22093 -1.22094 l 0.01,-0.1895 c 0.0514,-0.9394 0.26987,-1.6794 0.6793,-2.3016 0.16414,-0.2493 0.67503,-0.756 0.93686,-0.929 0.59843,-0.3954 1.33528,-0.6496 2.26078,-0.7798 0.46911,-0.065 1.79344,-0.065 2.22159,-6e-4 0.39047,0.06 0.90202,0.1868 1.14959,0.285 1.07444,0.4262 1.71313,1.1803 2.01031,2.3738 0.17324,0.6958 0.1673,0.568 0.18408,3.9592 0.0141,2.8674 0.0186,3.0923 0.0616,3.201 0.0255,0.065 0.0724,0.1448 0.10422,0.1789 0.23793,0.2552 0.7908,0.2422 1.4366,-0.034 0.0431,-0.019 0.0458,0.034 0.0458,0.8845 v 0.904 l -0.12415,0.064 c -0.19221,0.098 -0.57379,0.2172 -0.89967,0.283 -0.2522,0.051 -0.3735,0.059 -0.81878,0.057 -0.45103,0 -0.55141,-0.011 -0.73181,-0.059 -0.31688,-0.085 -0.5531,-0.2132 -0.73643,-0.3964 -0.26267,-0.2627 -0.38478,-0.5745 -0.41688,-1.0643 l -0.0172,-0.2626 -0.12491,0.1501 c -0.59511,0.7151 -1.66547,1.311 -2.74263,1.527 -0.17968,0.036 -0.4485,0.078 -0.59737,0.092 -0.31172,0.031 -0.94597,0.031 -1.23216,0 z M 191.62332,1030 c 0.76259,-0.1066 1.50344,-0.4352 2.17559,-0.9655 l 0.15029,-0.1187 v -1.3065 c 0,-1.2466 -0.002,-1.3063 -0.0476,-1.3063 -0.0914,0 -2.21554,0.2348 -2.50064,0.2765 -1.30336,0.1903 -2.09006,0.7016 -2.27288,1.4772 -0.0464,0.1965 -0.0522,0.6161 -0.0115,0.8128 0.12775,0.6172 0.63947,1.0275 1.4241,1.142 0.25438,0.036 0.77396,0.031 1.08269,-0.011 z m 24.99908,1.8555 c -1.05653,-0.1421 -1.94878,-0.566 -2.63892,-1.2531 -0.91201,-0.9082 -1.41223,-2.1123 -1.58528,-3.816 -0.0407,-0.4014 -0.0405,-1.5531 3.1e-4,-1.9602 0.16657,-1.6569 0.65792,-2.8852 1.51268,-3.7809 0.91315,-0.957 2.13504,-1.4231 3.5981,-1.3729 1.11748,0.039 2.02264,0.4047 2.7325,1.1062 0.15069,0.149 0.27712,0.2709 0.28096,0.2709 0.004,0 0.006,-1.5937 0.006,-3.5414 v -3.5414 h 1.26761 1.26762 v 8.8339 8.834 h -1.0973 -1.09731 l -0.006,-0.7079 -0.006,-0.7079 -0.18295,0.2286 c -0.63015,0.7869 -1.61826,1.2951 -2.76288,1.4208 -0.33749,0.036 -0.96443,0.031 -1.28824,-0.012 z m 2.08459,-2.1663 c 0.64206,-0.1155 1.26762,-0.4174 1.69708,-0.8191 l 0.12569,-0.1176 v -2.9731 -2.9731 l -0.15845,-0.1468 c -0.93791,-0.8683 -2.65071,-1.1119 -3.78813,-0.5386 -0.60545,0.3051 -1.0169,0.7798 -1.30261,1.5031 -0.12131,0.3071 -0.21977,0.6922 -0.28397,1.1107 -0.0661,0.4307 -0.0656,1.638 6.2e-4,2.0648 0.17856,1.1494 0.56515,1.9133 1.22008,2.4108 0.33533,0.2548 0.85405,0.4549 1.33552,0.5152 0.26362,0.034 0.87548,0.014 1.15418,-0.036 z m 11.25093,2.1809 c -1.09664,-0.1056 -1.99577,-0.3981 -2.73828,-0.891 -0.31164,-0.207 -0.84723,-0.7371 -1.04066,-1.0301 -0.36296,-0.5499 -0.61232,-1.2592 -0.67326,-1.915 l -0.0175,-0.1891 h 1.24165 1.24163 l 0.0325,0.2026 c 0.17444,1.0827 0.96297,1.8005 2.17333,1.9781 0.89838,0.132 1.80206,-0.049 2.3253,-0.4646 0.53991,-0.4291 0.66936,-1.3123 0.27158,-1.8528 -0.29225,-0.3972 -0.8077,-0.6226 -2.46515,-1.0783 -1.51606,-0.4166 -1.92714,-0.554 -2.50042,-0.8358 -0.42461,-0.2086 -0.69266,-0.387 -0.96149,-0.6399 -0.27595,-0.2596 -0.43988,-0.4797 -0.59469,-0.7984 -0.19161,-0.3946 -0.28642,-0.8374 -0.28642,-1.3381 0,-1.6233 1.01024,-2.7413 2.87499,-3.1819 0.53442,-0.1263 0.84706,-0.1569 1.60737,-0.1577 0.92013,-7e-4 1.38952,0.064 2.07193,0.2881 0.65552,0.215 1.19164,0.543 1.6282,0.9961 0.56575,0.5872 0.85961,1.2611 0.97558,2.237 l 0.0148,0.1241 h -1.24872 -1.24872 l -0.0301,-0.2064 c -0.1466,-1.0058 -1.00768,-1.6493 -2.2071,-1.6493 -1.25722,0 -2.03673,0.6308 -1.92514,1.5577 0.053,0.4402 0.35446,0.7674 0.93677,1.0166 0.31947,0.1368 0.72528,0.26 1.64383,0.4991 1.44499,0.376 1.94006,0.5364 2.52505,0.818 1.38271,0.6658 2.00112,1.6583 1.93944,3.1127 -0.0392,0.9253 -0.32218,1.5882 -0.92828,2.1749 -0.64836,0.6276 -1.55124,1.0128 -2.77655,1.1848 -0.34695,0.049 -1.50743,0.074 -1.8615,0.039 z M 14.471595,1007.1315 v -24.50284 l 6.944585,0.006 6.944592,0.006 6.972627,10.92488 c 3.834945,6.00871 7.30651,11.44836 7.714584,12.08806 0.408074,0.6397 1.140367,1.7874 1.627312,2.5505 0.486946,0.7632 1.861552,2.9185 3.05467,4.7897 1.561044,2.4482 2.180708,3.3996 2.209973,3.3928 0.03561,-0.011 0.890513,-0.5662 0.948389,-0.6188 0.01207,-0.011 -0.07137,-0.1596 -0.185501,-0.3299 -1.171669,-1.7499 -1.925527,-3.6086 -2.330647,-5.7464 -0.143108,-0.755 -0.232272,-1.4727 -0.319835,-2.5744 -0.02138,-0.2683 -0.03538,-2.8211 -0.04814,-8.75558 -0.01254,-5.80162 -0.02715,-8.50513 -0.04768,-8.79476 -0.06499,-0.91735 -0.08884,-1.20072 -0.150875,-1.79034 -0.11516,-1.09441 -0.286279,-2.13632 -0.510543,-3.10861 -0.106642,-0.46236 -0.382247,-1.44787 -0.502744,-1.79773 l -0.06499,-0.18876 0.08314,-0.0238 c 0.04568,-0.0131 0.259552,-0.0789 0.475179,-0.14637 1.467337,-0.45888 2.867216,-0.63842 4.740318,-0.60798 1.159656,0.0189 1.868774,0.10632 2.787259,0.34367 2.923683,0.75565 4.829489,2.69112 5.551697,5.63812 0.157799,0.64393 0.272926,1.47659 0.301175,2.17835 0.0076,0.18688 0.02031,9.61644 0.02838,20.95479 l 0.01469,20.6149 -7.246836,-0.011 -7.24683,-0.011 -0.562618,-0.8631 c -0.309451,-0.4747 -0.65795,-1.0099 -0.774447,-1.1892 -0.116497,-0.1793 -0.491729,-0.7553 -0.83386,-1.2801 -0.342122,-0.5247 -0.935844,-1.4362 -1.319383,-2.0256 -0.679653,-1.0443 -3.915034,-6.0124 -4.255148,-6.534 -0.4406,-0.6755 -5.728494,-8.7947 -6.042983,-9.2784 -0.196238,-0.3018 -0.940335,-1.4446 -1.653561,-2.5396 -1.37352,-2.1085 -1.641024,-2.5288 -2.101498,-3.3018 -0.505757,-0.849 -1.251177,-2.1706 -1.850207,-3.2801 -0.155213,-0.2875 -0.304797,-0.5605 -0.332415,-0.6066 l -0.05023,-0.083 -0.122712,0.073 c -0.06744,0.041 -0.265757,0.1582 -0.440591,0.2614 l -0.317873,0.1877 0.06392,0.1573 c 0.629047,1.5481 1.120577,4.1514 1.302248,6.8973 0.0878,1.3269 0.09237,1.9525 0.09263,12.6695 l 2.7e-4,10.7485 h -6.27269 -6.272699 z m 48.412109,3.5218 c 0.0061,-15.91725 0.01561,-21.03759 0.03899,-21.21604 0.183424,-1.40047 0.406512,-2.25025 0.831564,-3.16753 0.446516,-0.9636 1.169437,-1.88991 1.983554,-2.54161 1.582483,-1.26679 3.798318,-1.88709 6.507924,-1.82179 1.730676,0.0416 2.932686,0.22287 4.358215,0.65688 0.22641,0.0689 0.411649,0.13897 0.411649,0.15565 0,0.0166 -0.04168,0.15318 -0.09263,0.30334 -0.594712,1.75285 -1.02296,4.05574 -1.200232,6.45425 -0.09895,1.3389 -0.100031,1.42888 -0.119897,9.9971 -0.01077,4.65745 -0.02638,8.51525 -0.03453,8.57275 -0.0082,0.058 -0.02737,0.2632 -0.04261,0.4573 -0.235602,3.0029 -1.070215,5.4074 -2.499258,7.2005 -0.294036,0.369 -0.986331,1.0614 -1.355686,1.3558 -1.027108,0.8191 -2.183893,1.4116 -3.580664,1.8345 l -0.365909,0.111 -0.0071,0.46 -0.0071,0.4602 h 15.747607 15.747686 v 5.8544 5.8546 H 81.040352 62.87545 Z m 48.056776,13.5452 v -7.4359 l 1.57471,8e-4 1.57471,6e-4 0.15682,0.2849 c 0.0862,0.1569 1.53289,2.7244 3.21476,5.7059 l 3.05794,5.4207 0.006,-5.7066 0.006,-5.7063 h 1.25447 1.25449 v 7.4357 7.4358 l -1.57472,-4e-4 -1.57469,-2e-4 -0.11926,-0.2153 c -0.54195,-0.9783 -6.28673,-11.1489 -6.31409,-11.1786 -0.0297,-0.032 -0.0354,0.8696 -0.0354,5.6781 v 5.7165 h -1.24148 -1.24148 v -7.4357 z m 36.40779,-1.3985 v -8.8339 h 1.28068 1.28067 v 3.6003 3.6002 l 0.14979,-0.1698 c 0.62182,-0.7053 1.30802,-1.0729 2.34756,-1.2578 0.29066,-0.051 0.42824,-0.06 0.97854,-0.061 0.67942,-8e-4 0.89499,0.02 1.34299,0.1319 0.59279,0.1479 1.05219,0.4006 1.46845,0.8081 0.71601,0.7008 1.08717,1.6823 1.18609,3.1366 0.0161,0.2371 0.0267,1.8703 0.0271,4.1358 l 6.3e-4,3.744 h -1.27978 -1.27975 l -0.01,-3.8093 c -0.009,-3.4177 -0.0141,-3.8349 -0.0534,-4.0577 -0.18198,-1.0331 -0.58399,-1.5638 -1.35384,-1.7868 -0.7742,-0.2245 -1.84243,-0.1203 -2.6178,0.255 -0.24235,0.1173 -0.51813,0.3028 -0.73509,0.4945 l -0.17197,0.152 v 4.3761 4.3762 h -1.28068 -1.28067 z m 25.79648,2.9797 v -5.8544 h 1.08465 1.08465 l 3.2e-4,0.7644 3.1e-4,0.7644 0.0564,-0.091 c 0.41418,-0.672 0.78301,-1.0368 1.33289,-1.3181 0.54869,-0.2807 0.95883,-0.3664 1.75926,-0.3672 0.6147,-6e-4 0.79243,0.02 1.15654,0.134 l 0.21561,0.068 v 1.1234 c 0,1.0598 -0.002,1.1226 -0.0458,1.105 -0.49632,-0.2012 -1.2292,-0.3186 -1.8254,-0.2923 -0.95505,0.042 -1.72128,0.3817 -2.1844,0.9675 l -0.1001,0.1266 v 4.3624 4.3625 h -1.26761 -1.26761 v -5.8546 z m 8.442,-2.9797 v -8.8339 h 1.28068 1.28068 v 8.8339 8.8342 h -1.28068 -1.28068 z m 18.32151,2.9797 v -5.8544 h 1.08426 1.08424 l 0.006,0.7488 0.006,0.7489 0.13432,-0.1805 c 0.18932,-0.2543 0.60959,-0.6523 0.87417,-0.8278 0.80278,-0.5325 1.80034,-0.7776 3.02773,-0.7436 1.16238,0.032 1.95766,0.3177 2.59917,0.9335 0.62475,0.5998 0.97658,1.4099 1.15868,2.6681 0.0384,0.2651 0.0442,0.7507 0.0525,4.3299 l 0.009,4.0316 h -1.28086 -1.28087 l -0.009,-3.8355 c -0.008,-3.3339 -0.0148,-3.8628 -0.05,-4.0449 -0.13119,-0.6768 -0.30191,-1.0555 -0.61502,-1.364 -0.38098,-0.3754 -1.02266,-0.5585 -1.82663,-0.521 -0.92025,0.044 -1.71859,0.3513 -2.26391,0.8751 l -0.17642,0.1694 v 4.3604 4.3605 h -1.26761 -1.26762 z"
       id="path835"
       inkscape:connector-curvature="0" />
  </g>
</svg>
