<?xml version="1.0" encoding="UTF-8" standalone="no"?>
<!-- Created with Inkscape (http://www.inkscape.org/) -->

<svg
   xmlns:dc="http://purl.org/dc/elements/1.1/"
   xmlns:cc="http://creativecommons.org/ns#"
   xmlns:rdf="http://www.w3.org/1999/02/22-rdf-syntax-ns#"
   xmlns:svg="http://www.w3.org/2000/svg"
   xmlns="http://www.w3.org/2000/svg"
   xmlns:sodipodi="http://sodipodi.sourceforge.net/DTD/sodipodi-0.dtd"
   xmlns:inkscape="http://www.inkscape.org/namespaces/inkscape"
   width="250"
   height="91"
   viewBox="0 0 250 91"
   id="svg2"
   version="1.1"
   inkscape:version="0.92.2 (5c3e80d, 2017-08-06)"
   sodipodi:docname="netherlands.svg">
  <defs
     id="defs4" />
  <sodipodi:namedview
     id="base"
     pagecolor="#ffffff"
     bordercolor="#666666"
     borderopacity="1.0"
     inkscape:pageopacity="0.0"
     inkscape:pageshadow="2"
     inkscape:zoom="1.9799"
     inkscape:cx="183.26"
     inkscape:cy="18.501947"
     inkscape:document-units="px"
     inkscape:current-layer="layer1"
     showgrid="false"
     inkscape:window-width="1920"
     inkscape:window-height="1001"
     inkscape:window-x="-9"
     inkscape:window-y="-9"
     inkscape:window-maximized="1"
     units="px" />
  <metadata
     id="metadata7">
    <rdf:RDF>
      <cc:Work
         rdf:about="">
        <dc:format>image/svg+xml</dc:format>
        <dc:type
           rdf:resource="http://purl.org/dc/dcmitype/StillImage" />
        <dc:title />
      </cc:Work>
    </rdf:RDF>
  </metadata>
  <g
     inkscape:label="Layer 1"
     inkscape:groupmode="layer"
     id="layer1"
     transform="translate(0,-961.4)">
    <rect
       style="opacity:0.001;fill:#c87137;fill-opacity:1;stroke:none;stroke-width:2.5;stroke-linecap:round;stroke-linejoin:round;stroke-miterlimit:4;stroke-dasharray:none;stroke-dashoffset:0;stroke-opacity:1"
       id="rect4175"
       width="250"
       height="91"
       x="0"
       y="961.4" />
    <path
       inkscape:connector-curvature="0"
       id="path1012"
       d="m 39.315525,1041.3116 c -0.0813,-0.1 -0.0973,-0.1062 -0.16378,-0.066 -0.0658,0.039 -0.0872,0.032 -0.19911,-0.065 -0.16359,-0.1423 -0.22545,-0.2373 -0.33378,-0.5122 -0.056,-0.142 -0.11264,-0.2329 -0.15163,-0.2431 -0.0348,-0.01 -0.0709,-0.06 -0.082,-0.1134 -0.0926,-0.4546 -0.26522,-0.8079 -0.52921,-1.0828 -0.13404,-0.1396 -0.22035,-0.267 -0.26914,-0.3974 -0.0395,-0.1056 -0.18051,-0.3655 -0.31335,-0.5775 -0.13285,-0.2121 -0.30758,-0.5238 -0.3883,-0.6926 -0.0807,-0.1689 -0.25636,-0.4602 -0.39032,-0.6473 -0.13396,-0.1872 -0.28978,-0.4321 -0.34627,-0.5444 -0.0565,-0.1123 -0.15267,-0.2731 -0.21374,-0.3573 -0.0611,-0.084 -0.19858,-0.2986 -0.3056,-0.4763 -0.23014,-0.3824 -0.58012,-0.8746 -1.33028,-1.8714 -1.5042,-1.9985 -2.80042,-3.3071 -4.17035,-4.2097 -0.19936,-0.1315 -0.48178,-0.3319 -0.62759,-0.4457 -0.30206,-0.2355 -0.81968,-0.5139 -1.33866,-0.7201 -0.1954,-0.077 -0.39445,-0.1684 -0.44232,-0.2017 -0.11319,-0.078 -0.29336,-0.139 -0.41537,-0.139 -0.0533,0 -0.097,-0.016 -0.097,-0.036 0,-0.02 -0.0574,-0.059 -0.12759,-0.086 -0.0702,-0.028 -0.16824,-0.073 -0.21791,-0.1003 -0.0497,-0.027 -0.14154,-0.05 -0.20415,-0.051 -0.12323,0 -0.37939,-0.1036 -0.41935,-0.1683 -0.016,-0.026 -0.07,-0.032 -0.15374,-0.018 -0.0989,0.017 -0.1398,0.01 -0.17514,-0.036 -0.20669,-0.2583 -0.25332,-0.2874 -0.46135,-0.2874 -0.16456,0 -0.22986,-0.019 -0.36113,-0.1015 -0.0881,-0.056 -0.2243,-0.1344 -0.30258,-0.1743 -0.20871,-0.1064 -0.43212,-0.3616 -0.4338,-0.4953 -7.5e-4,-0.06 -0.019,-0.1137 -0.0406,-0.1209 -0.0271,-0.01 -0.0215,-0.04 0.0179,-0.1003 0.0442,-0.067 0.0494,-0.1076 0.023,-0.1769 -0.0377,-0.099 -5.1e-4,-0.1191 0.0681,-0.037 0.0271,0.032 0.0733,0.046 0.11968,0.034 0.0415,-0.01 0.14028,0 0.21946,0.032 0.20398,0.072 0.33954,0.067 0.33954,-0.012 0,-0.083 -0.0897,-0.1576 -0.25519,-0.2097 -0.0748,-0.024 -0.18203,-0.068 -0.23817,-0.098 -0.0561,-0.031 -0.13926,-0.063 -0.18471,-0.072 -0.14345,-0.03 -0.17311,-0.3063 -0.0328,-0.3063 0.042,0 0.0644,0.024 0.0644,0.069 0,0.088 0.0997,0.1287 0.14954,0.061 0.0365,-0.049 0.13245,-0.082 0.34383,-0.1171 0.22557,-0.037 0.25513,-0.049 0.2527,-0.1072 -0.002,-0.032 -0.0299,-0.1049 -0.0632,-0.161 -0.0504,-0.085 -0.0804,-0.1008 -0.17615,-0.095 -0.0635,0 -0.16784,-0.01 -0.23193,-0.03 -0.10161,-0.032 -0.1094,-0.043 -0.0608,-0.078 0.0406,-0.03 0.0533,-0.084 0.0464,-0.1999 -0.0109,-0.1868 -0.0805,-0.2883 -0.11289,-0.1644 -0.0131,0.05 -0.0379,0.071 -0.0697,0.059 -0.0271,-0.01 -0.094,-0.019 -0.14863,-0.019 -0.0872,0 -0.0993,-0.012 -0.0993,-0.1001 0,-0.055 0.0153,-0.1095 0.034,-0.1211 0.0557,-0.035 0.0387,-0.113 -0.0292,-0.1346 -0.0459,-0.014 -0.0588,-0.043 -0.047,-0.1045 0.009,-0.047 -0.002,-0.1074 -0.026,-0.1353 -0.0353,-0.043 -0.0298,-0.051 0.0338,-0.051 0.068,0 0.0738,-0.012 0.0544,-0.1151 -0.0166,-0.088 -0.009,-0.1201 0.0339,-0.1364 0.0413,-0.016 0.0495,-0.045 0.0322,-0.1145 -0.0327,-0.1313 -0.10674,-0.2025 -0.23276,-0.224 -0.21968,-0.037 -0.37951,-0.082 -0.3061,-0.087 0.041,0 0.0852,-0.021 0.0983,-0.043 0.0162,-0.026 0.0335,-0.021 0.0547,0.017 0.038,0.068 0.1168,0.072 0.15352,0.01 0.0191,-0.033 0.11623,-0.051 0.32618,-0.06 0.21007,-0.01 0.30777,-0.026 0.32859,-0.06 0.0493,-0.08 0.005,-0.1294 -0.15339,-0.1739 -0.16086,-0.045 -0.17958,-0.07 -0.10256,-0.1333 0.0373,-0.031 0.0639,-0.031 0.11598,0 0.0587,0.037 0.0839,0.028 0.19099,-0.066 0.12491,-0.1098 0.18905,-0.1354 0.18905,-0.076 0,0.018 0.0308,0.049 0.0685,0.07 0.0939,0.05 0.17534,0 0.22254,-0.1418 0.021,-0.062 0.0599,-0.1136 0.0863,-0.1136 0.0264,0 0.048,-0.023 0.048,-0.051 0,-0.029 -0.0248,-0.047 -0.0578,-0.042 -0.0729,0.012 -0.11423,-0.068 -0.1409,-0.2724 -0.0202,-0.155 -0.0155,-0.1666 0.13116,-0.3218 0.14547,-0.154 0.19721,-0.2808 0.178,-0.4362 -0.007,-0.054 0.0134,-0.07 0.0937,-0.076 0.0561,0 0.0829,0 0.0595,0.011 -0.0234,0.01 -0.0425,0.057 -0.0425,0.1035 0,0.1212 0.11546,0.094 0.12985,-0.031 0.007,-0.06 0.031,-0.093 0.068,-0.094 0.0315,0 0.18493,-0.014 0.34095,-0.033 0.23843,-0.027 0.29661,-0.024 0.36488,0.02 0.0447,0.029 0.162,0.055 0.26073,0.059 0.14129,0 0.19272,0.021 0.24153,0.082 0.0687,0.085 0.27899,0.1059 0.40174,0.04 0.0503,-0.027 0.0817,-0.025 0.12047,0.01 0.0288,0.024 0.0794,0.06 0.11242,0.079 0.0329,0.02 0.10337,0.065 0.15646,0.1034 0.0641,0.045 0.15478,0.069 0.26999,0.071 0.15803,0 0.18537,0.015 0.30774,0.1448 0.10413,0.1104 0.17049,0.1489 0.29532,0.1715 0.0885,0.016 0.2151,0.071 0.28122,0.121 0.0748,0.057 0.14385,0.084 0.18276,0.072 0.0465,-0.014 0.0863,0.016 0.15536,0.1203 0.0897,0.1356 0.0976,0.1396 0.23466,0.1191 0.13952,-0.02 0.14336,-0.019 0.23498,0.1334 0.0934,0.1549 0.19819,0.2212 0.34971,0.2212 0.0447,0 0.0934,0.021 0.10836,0.047 0.015,0.025 0.0758,0.071 0.13516,0.1015 0.13011,0.066 0.38092,0.2709 0.58956,0.4806 0.1173,0.1179 0.21192,0.1737 0.40456,0.2386 0.13828,0.047 0.30186,0.1232 0.3635,0.1701 0.0617,0.047 0.13366,0.085 0.16008,0.085 0.0265,0 0.0772,0.033 0.11285,0.073 0.0356,0.04 0.14419,0.1242 0.2412,0.1867 0.097,0.062 0.18595,0.1292 0.19765,0.1482 0.0117,0.019 0.0566,0.034 0.1,0.034 0.13655,0 0.60252,0.3357 0.93828,0.676 0.17791,0.1802 0.49078,0.5475 0.69527,0.8162 0.20449,0.2687 0.4069,0.5044 0.44978,0.5239 0.0477,0.022 0.13779,0.1514 0.23197,0.3337 0.22391,0.4336 0.44867,0.5942 0.53256,0.3807 0.0369,-0.094 0.0347,-0.181 -0.037,-1.4716 -0.0328,-0.5907 -0.0106,-1.5479 0.0688,-2.9601 0.0195,-0.3463 0.0328,-0.9893 0.0298,-1.4291 -0.003,-0.4534 0.01,-0.8806 0.0307,-0.9867 0.02,-0.1029 0.0334,-0.4168 0.0299,-0.6975 -0.006,-0.5078 -0.006,-0.5113 0.0951,-0.6953 0.0566,-0.1032 0.1451,-0.2084 0.20012,-0.2382 0.19776,-0.1068 0.33794,-0.259 0.43237,-0.4695 0.0956,-0.213 0.14217,-0.2532 0.34291,-0.296 0.0502,-0.011 0.10048,-0.049 0.1117,-0.083 0.0112,-0.036 0.062,-0.072 0.11285,-0.082 0.21838,-0.043 0.35654,-0.089 0.41235,-0.1396 0.0328,-0.03 0.1088,-0.055 0.16878,-0.055 0.0886,0 0.12225,-0.022 0.17931,-0.1191 0.081,-0.1372 0.11996,-0.1428 0.37776,-0.054 0.10382,0.036 0.29378,0.075 0.42213,0.088 0.34415,0.034 0.4686,0.074 0.64058,0.2052 0.0851,0.065 0.17814,0.1182 0.20669,0.1182 0.0286,0 0.14413,0.099 0.25684,0.2191 0.15499,0.1656 0.24611,0.2327 0.37391,0.2752 0.13956,0.046 0.17788,0.077 0.22017,0.1786 0.0282,0.067 0.23266,0.3071 0.45445,0.5329 0.29641,0.3016 0.41442,0.4464 0.44538,0.5464 0.0231,0.075 0.1004,0.2433 0.17165,0.3743 0.14748,0.2712 0.35214,0.9288 0.40969,1.3164 0.0364,0.2454 0.0344,0.2678 -0.033,0.3625 -0.0613,0.086 -0.072,0.1502 -0.0726,0.4359 -3.8e-4,0.1843 -0.0231,0.5859 -0.0504,0.8927 -0.0292,0.3275 -0.0408,0.6826 -0.0282,0.8605 0.0233,0.3287 -0.0307,0.7354 -0.11625,0.8742 -0.0274,0.044 -0.0712,0.2035 -0.0974,0.3536 -0.0262,0.1503 -0.0766,0.336 -0.11208,0.4128 -0.13963,0.3026 -0.18854,0.6717 -0.14009,1.0569 0.0199,0.158 0.0492,0.2511 0.0879,0.2794 0.0504,0.037 0.0524,0.056 0.0153,0.146 -0.0487,0.1175 -5.5e-4,0.2164 0.0887,0.1821 0.0399,-0.015 0.0458,0 0.0284,0.078 -0.0438,0.1956 -0.0552,0.2169 -0.11632,0.2169 -0.0773,0 -0.10342,0.066 -0.10342,0.258 0,0.1369 0.008,0.1503 0.0834,0.1503 0.0459,0 0.099,-0.026 0.11805,-0.06 0.0759,-0.1303 0.0377,0.061 -0.0422,0.211 -0.072,0.1352 -0.0824,0.1426 -0.11878,0.084 -0.0451,-0.072 -0.13115,-0.055 -0.15333,0.031 -0.008,0.032 -0.007,-0.021 0.002,-0.1166 0.01,-0.1007 0,-0.2044 -0.0231,-0.2478 -0.0339,-0.064 -0.0583,-0.072 -0.16232,-0.052 l -0.12237,0.023 0.0195,-0.1451 c 0.0238,-0.1773 0.003,-0.2387 -0.0803,-0.2387 -0.0762,0 -0.11721,0.1296 -0.0836,0.2643 0.0128,0.051 0.0343,0.1718 0.0478,0.2681 0.0135,0.096 0.0433,0.1976 0.0661,0.2251 0.0331,0.04 0.0316,0.059 -0.008,0.091 -0.0269,0.022 -0.0748,0.036 -0.10649,0.03 -0.0834,-0.015 -0.14241,0.089 -0.0876,0.1546 0.0236,0.029 0.0628,0.044 0.087,0.035 0.0297,-0.011 0.0512,0.029 0.0665,0.1245 0.0161,0.1006 0.0419,0.1464 0.0894,0.1588 0.0435,0.011 0.08,0.066 0.10464,0.1582 0.0422,0.1571 0.0922,0.2056 0.15666,0.1521 0.0322,-0.026 0.0513,-0.014 0.0756,0.049 0.0761,0.2003 0.12835,0.1499 0.25752,-0.2482 0.273,-0.8415 0.94435,-2.3047 1.52993,-3.3345 0.55504,-0.9761 1.2859,-2.1119 2.18269,-3.3922 1.01699,-1.4519 1.94823,-2.3701 3.96032,-3.9051 0.66731,-0.5091 0.95198,-0.8046 1.39155,-1.4446 0.23127,-0.3367 0.22162,-0.2366 -0.0149,0.1543 -0.12431,0.2054 -0.20246,0.3797 -0.22967,0.5122 -0.0227,0.1103 -0.0899,0.2767 -0.14939,0.3698 -0.12904,0.2018 -0.17376,0.3528 -0.11522,0.3889 0.0299,0.019 0.0174,0.06 -0.0455,0.1529 -0.0476,0.07 -0.0963,0.1834 -0.10822,0.2517 -0.0119,0.068 -0.0506,0.1749 -0.086,0.2367 -0.0354,0.062 -0.0643,0.1552 -0.0643,0.2074 0,0.052 -0.0305,0.1225 -0.0679,0.1562 -0.0373,0.034 -0.082,0.1089 -0.0993,0.1669 -0.067,0.2246 -0.12622,0.339 -0.23556,0.4553 -0.12801,0.1361 -0.18321,0.2545 -0.15404,0.3305 0.0115,0.03 -0.012,0.077 -0.0565,0.1132 -0.064,0.052 -0.0701,0.073 -0.0377,0.1338 0.0542,0.1011 0.0495,0.1264 -0.0443,0.2377 -0.0456,0.054 -0.0939,0.1424 -0.10733,0.196 -0.0134,0.054 -0.045,0.1369 -0.0701,0.1849 -0.0251,0.048 -0.0457,0.1329 -0.0458,0.1887 -3.4e-4,0.1449 -0.15755,0.5366 -0.29828,0.743 -0.0661,0.097 -0.13274,0.2299 -0.14804,0.2954 -0.0153,0.066 -0.0734,0.2493 -0.12917,0.4083 -0.0557,0.1591 -0.10223,0.3305 -0.10329,0.3809 -0.002,0.099 -0.1127,0.3136 -0.21227,0.4116 -0.0355,0.035 -0.0618,0.1096 -0.0618,0.1754 0,0.1113 -0.0884,0.246 -0.29772,0.4533 -0.084,0.083 -0.0884,0.1023 -0.0915,0.3972 -0.002,0.1865 -0.009,0.2037 -0.0869,0.2226 -0.0542,0.013 -0.097,0.057 -0.11864,0.1211 -0.0186,0.055 -0.0478,0.1105 -0.0647,0.1226 -0.0169,0.012 -0.0226,0.054 -0.0126,0.092 0.0137,0.053 3.4e-4,0.072 -0.0547,0.08 -0.11146,0.016 -0.21438,0.266 -0.24172,0.5874 -0.0128,0.1505 -0.0464,0.3096 -0.0748,0.3535 -0.10847,0.1683 -0.18015,0.4417 -0.1434,0.5471 0.0265,0.076 0.0225,0.1219 -0.0174,0.1955 l -0.0521,0.096 -0.002,-0.094 c -7.8e-4,-0.055 -0.0203,-0.094 -0.0471,-0.094 -0.0516,0 -0.15839,0.1068 -0.15839,0.1584 0,0.019 -0.0384,0.07 -0.0853,0.1141 -0.10165,0.095 -0.43401,0.7051 -0.41468,0.7606 0.008,0.021 -0.0148,0.075 -0.0494,0.1198 -0.0503,0.065 -0.063,0.1412 -0.063,0.3792 0,0.2402 -0.0105,0.302 -0.0538,0.3186 -0.0436,0.017 -0.0498,0 -0.033,-0.074 0.0285,-0.1299 -0.0551,-0.2437 -0.14089,-0.1916 -0.11615,0.071 -0.14696,0.1853 -0.12435,0.4632 0.0168,0.2072 0.0102,0.2794 -0.0317,0.3434 -0.0431,0.066 -0.0505,0.1627 -0.0396,0.5162 0.0129,0.4178 0.011,0.4329 -0.0479,0.3796 -0.0338,-0.031 -0.0788,-0.055 -0.10006,-0.055 -0.0493,0 -0.1091,0.1108 -0.1091,0.2019 0,0.038 -0.0141,0.071 -0.0314,0.071 -0.057,0 -0.11228,0.2414 -0.11183,0.4884 3.4e-4,0.1338 0.004,0.2585 0.008,0.2772 0.0132,0.057 -0.0419,0.2552 -0.0709,0.2552 -0.0439,0 -0.1073,0.2311 -0.0837,0.3054 0.0125,0.039 -8.1e-4,0.1003 -0.0316,0.1441 -0.0618,0.088 -0.0692,0.2397 -0.0165,0.3381 0.0293,0.055 0.0242,0.077 -0.0255,0.114 -0.0546,0.04 -0.0635,0.1083 -0.0731,0.5587 -0.0103,0.4823 -0.015,0.5131 -0.0773,0.5131 -0.0872,0 -0.16703,0.1621 -0.10015,0.2034 0.0709,0.044 0.0116,0.8859 -0.0623,0.8853 -0.0118,0 -0.0476,-0.046 -0.0793,-0.1018 -0.0364,-0.064 -0.0761,-0.094 -0.10723,-0.082 -0.0712,0.027 -0.0875,0.1244 -0.0503,0.299 0.0259,0.1212 0.0213,0.1743 -0.0225,0.259 -0.0303,0.059 -0.0837,0.3014 -0.11864,0.5396 -0.12408,0.8453 -0.35146,1.6877 -0.65025,2.4088 -0.20314,0.4902 -0.52161,1.0925 -0.68375,1.2932 -0.0778,0.096 -0.16553,0.2344 -0.19514,0.3071 -0.0352,0.087 -0.18885,0.2606 -0.44512,0.504 -0.2152,0.2045 -0.42043,0.416 -0.45607,0.47 -0.0937,0.142 -0.66279,0.5088 -0.75389,0.4859 -0.0396,-0.01 -0.0961,8e-4 -0.1255,0.024 -0.10403,0.081 -0.32287,0.4328 -0.36661,0.5891 -0.0363,0.1297 -0.0652,0.167 -0.16034,0.2068 -0.0638,0.026 -0.14537,0.039 -0.18122,0.028 -0.036,-0.011 -0.0992,0 -0.14117,0.032 -0.10647,0.075 -0.13374,0.068 -0.23601,-0.058 z m 1.49437,-11.5855 c 0.0795,-0.2766 0.0919,-0.5743 0.028,-0.6718 -0.0943,-0.144 -0.21088,-0.086 -0.16671,0.082 0.0114,0.043 -0.004,0.099 -0.0405,0.138 -0.0509,0.056 -0.0559,0.104 -0.0349,0.3307 0.0372,0.4014 0.11993,0.4479 0.21412,0.1202 z m 4.04686,-0.2126 c 0.0587,-0.1163 0.0568,-0.4572 -0.003,-0.5067 -0.0367,-0.031 -0.0656,-0.014 -0.1361,0.078 -0.095,0.1245 -0.11271,0.2055 -0.0531,0.2424 0.0225,0.014 0.0277,0.074 0.0135,0.1579 -0.0216,0.1276 -0.0183,0.1348 0.0563,0.1241 0.0436,-0.01 0.0985,-0.049 0.12206,-0.096 z m -4.26026,-0.8506 c -0.0165,-0.026 -0.0361,-0.029 -0.0587,-0.01 -0.0187,0.019 -0.0229,0.052 -0.009,0.074 0.0165,0.026 0.0361,0.029 0.0587,0.01 0.0187,-0.019 0.0229,-0.052 0.009,-0.074 z m -0.20415,-0.1361 c -0.0165,-0.026 -0.0361,-0.029 -0.0587,-0.01 -0.0187,0.019 -0.0229,0.052 -0.009,0.074 0.0165,0.026 0.0361,0.029 0.0587,0.01 0.0187,-0.019 0.0229,-0.052 0.009,-0.074 z m -0.0185,-0.7069 c -0.0694,-0.1241 -0.20269,-0.146 -0.20269,-0.033 0,0.044 0.0325,0.1159 0.0722,0.1585 0.0665,0.072 0.0766,0.073 0.12727,0.022 0.0497,-0.049 0.05,-0.064 0.003,-0.1476 z m 4.95804,-0.216 c 0.0107,-0.054 0.034,-0.098 0.0517,-0.098 0.0177,0 0.0272,-0.034 0.0213,-0.077 -0.0138,-0.097 -0.0751,-0.087 -0.0908,0.014 -0.007,0.043 -0.0407,0.1135 -0.0761,0.1584 -0.0703,0.089 -0.0588,0.1502 0.0227,0.1189 0.0284,-0.011 0.0605,-0.064 0.0712,-0.1175 z m -4.53598,-0.2169 c 0.0297,-0.077 -0.0118,-0.1532 -0.084,-0.1532 -0.0448,0 -0.0644,0.025 -0.0644,0.079 0,0.1261 0.10774,0.1796 0.14841,0.074 z m 4.92668,-0.4691 c 0.13549,-0.162 0.26683,-0.4006 0.26683,-0.4847 0,-0.1042 -0.14889,-0.041 -0.22116,0.094 -0.039,0.073 -0.10739,0.1409 -0.16042,0.1594 -0.10226,0.036 -0.14918,0.1549 -0.11483,0.2918 0.0305,0.1216 0.0904,0.1057 0.22958,-0.06 z m -21.10695,-0.5428 c -0.0138,-0.096 -0.12996,-0.1268 -0.12996,-0.034 0,0.077 0.028,0.1103 0.0931,0.1103 0.03,0 0.0437,-0.028 0.0368,-0.077 z m 0.70365,-1.0126 c -0.0164,-0.026 -0.0361,-0.029 -0.0587,-0.01 -0.0187,0.019 -0.0229,0.052 -0.009,0.074 0.0165,0.026 0.0361,0.029 0.0587,0.01 0.0187,-0.019 0.0229,-0.052 0.009,-0.074 z m -0.82023,-1.2447 c 0.031,-0.081 0.0248,-0.2798 -0.01,-0.3011 -0.0498,-0.031 -0.11086,0.072 -0.13049,0.2175 -0.0162,0.1214 -0.0104,0.1374 0.0504,0.1374 0.0379,0 0.0782,-0.024 0.0895,-0.054 z m 0.24521,-0.1027 c -0.0165,-0.043 -0.0328,-0.049 -0.0601,-0.021 -0.0206,0.02 -0.0272,0.064 -0.0148,0.096 0.0165,0.043 0.0328,0.048 0.0601,0.021 0.0206,-0.02 0.0272,-0.064 0.0148,-0.096 z m 0.96631,-1.4925 c 0,-0.06 -0.12375,-0.1337 -0.15115,-0.089 -0.0106,0.017 -0.01,0.055 0.002,0.085 0.0261,0.068 0.14958,0.072 0.14958,0.01 z m 78.686575,11.4784 c -0.36617,-0.086 -0.85168,-0.4707 -1.00762,-0.7984 -0.0438,-0.092 -0.12686,-0.2234 -0.18452,-0.2917 -0.0577,-0.068 -0.12963,-0.1602 -0.15998,-0.2041 -0.0311,-0.045 -0.27528,-0.1907 -0.55969,-0.3336 -0.33222,-0.167 -0.54848,-0.299 -0.63323,-0.3862 -0.16415,-0.1692 -0.61162,-0.8299 -0.84558,-1.2486 -0.0993,-0.1778 -0.29712,-0.5001 -0.4395,-0.7163 -0.14239,-0.2162 -0.40236,-0.6679 -0.577735,-1.0037 -0.17537,-0.3359 -0.42462,-0.7913 -0.55389,-1.0121 -0.12926,-0.2207 -0.28596,-0.5193 -0.34821,-0.6635 -0.0623,-0.1441 -0.24941,-0.5377 -0.41592,-0.8745 -0.16651,-0.3369 -0.33719,-0.7273 -0.37929,-0.8676 -0.0421,-0.1404 -0.10869,-0.3318 -0.14798,-0.4254 -0.25461,-0.6063 -0.30918,-0.7549 -0.35279,-0.9607 -0.0268,-0.1265 -0.049,-0.3465 -0.0493,-0.4887 -5.4e-4,-0.2316 -0.011,-0.273 -0.10056,-0.3966 -0.15878,-0.2192 -0.28921,-0.5052 -0.42549,-0.9332 -0.0697,-0.2186 -0.17199,-0.4691 -0.2275,-0.5566 -0.0679,-0.1071 -0.14389,-0.328 -0.23212,-0.6743 -0.22859,-0.8975 -0.40676,-1.5206 -0.58356,-2.0408 -0.12425,-0.3656 -0.18062,-0.5929 -0.20426,-0.824 -0.018,-0.1755 -0.064,-0.4383 -0.10222,-0.5839 -0.22146,-0.8428 -0.2692,-1.0587 -0.29011,-1.3118 -0.0186,-0.2252 -0.0589,-0.3697 -0.20582,-0.739 -0.19503,-0.4902 -0.30278,-0.6817 -0.43055,-0.7654 -0.0525,-0.035 -0.17755,-0.055 -0.36582,-0.06 -0.40299,-0.011 -0.84787,0.1332 -1.29102,0.419 -0.38507,0.2484 -0.72279,0.4224 -0.87711,0.452 -0.1121,0.021 -0.31044,0.147 -1.35035,0.8548 -0.29941,0.2038 -0.71664,0.4535 -0.92717,0.5547 -0.21053,0.1013 -0.38277,0.1983 -0.38277,0.2156 0,0.017 -0.1773,0.2161 -0.39399,0.4416 -0.21669,0.2256 -0.41927,0.4664 -0.45018,0.5353 -0.0445,0.099 -0.0565,0.2392 -0.0577,0.6697 -8.2e-4,0.2995 -0.0139,0.6976 -0.029,0.8847 -0.0257,0.3169 -0.0215,0.3576 0.0604,0.5929 0.10032,0.2883 0.11349,0.5918 0.0499,1.1505 -0.0335,0.295 -0.0307,0.3594 0.0244,0.5541 0.0692,0.2445 0.0744,0.4311 0.0326,1.156 -0.0272,0.4713 -0.0251,0.5015 0.0487,0.6728 0.0736,0.1707 0.0765,0.2093 0.0599,0.7996 -0.0128,0.4531 -0.0316,0.6526 -0.07,0.7406 -0.0942,0.2158 -0.22094,0.7244 -0.24559,0.9854 -0.0258,0.2731 -0.0601,0.3627 -0.24076,0.6294 -0.0889,0.1313 -0.14702,0.2946 -0.2542,0.7145 -0.16145,0.6326 -0.31126,0.9719 -0.52254,1.1832 l -0.15075,0.1507 -0.35114,0.022 c -1.25055,0.078 -1.49913,0.065 -1.87011,-0.1017 -0.1473,-0.066 -0.2042,-0.1128 -0.23679,-0.1942 -0.13164,-0.3288 -0.51701,-0.7821 -0.91468,-1.076 -0.12193,-0.09 -0.44107,-0.2958 -0.70919,-0.4572 -0.63041,-0.3793 -0.83813,-0.5216 -1.06741,-0.7311 -0.17743,-0.1622 -0.18856,-0.182 -0.20843,-0.3722 -0.0116,-0.1104 -0.0919,-0.398 -0.17864,-0.6391 -0.19508,-0.5423 -0.25141,-0.7629 -0.25209,-0.9873 -3.4e-4,-0.096 -0.0408,-0.3105 -0.09,-0.4764 -0.22585,-0.7608 -0.35031,-1.1639 -0.40237,-1.3029 -0.0311,-0.083 -0.0697,-0.2973 -0.086,-0.4764 -0.0368,-0.4051 -0.0697,-0.5006 -0.28238,-0.8162 -0.0936,-0.139 -0.21356,-0.3484 -0.26662,-0.4654 -0.0531,-0.117 -0.11095,-0.2217 -0.12863,-0.2327 -0.0177,-0.011 -0.064,-0.1153 -0.10296,-0.2321 -0.13333,-0.3999 -0.6847,-0.9525 -1.10865,-1.1111 -0.10584,-0.04 -0.32516,-0.086 -0.48738,-0.1027 -0.1622,-0.017 -0.39445,-0.054 -0.51609,-0.083 -0.29794,-0.07 -1.69381,-0.1718 -1.99061,-0.1457 -0.22744,0.02 -0.40659,0.043 -0.9049,0.1167 -0.1235,0.018 -0.25364,0.048 -0.28921,0.065 -0.0384,0.019 -0.18919,0.02 -0.37088,0 -0.74333,-0.068 -0.93651,-0.07 -1.08884,-0.012 -0.10582,0.041 -0.33962,0.065 -0.83889,0.087 -0.4116,0.018 -0.76803,0.051 -0.87931,0.082 -0.44394,0.1207 -0.68277,0.1674 -0.97918,0.1916 -0.29566,0.024 -0.3453,0.04 -0.78257,0.2508 -0.50655,0.2443 -0.62652,0.2676 -0.89254,0.1738 -0.13894,-0.049 -0.15834,-0.047 -0.46451,0.051 -0.17573,0.056 -0.46075,0.1253 -0.63335,0.1534 -0.17261,0.028 -0.39804,0.067 -0.50097,0.087 -0.13137,0.025 -0.23784,0.025 -0.35726,0 -0.40755,-0.087 -0.39975,-0.088 -0.73402,0.08 -0.34239,0.1724 -0.39608,0.1817 -0.61029,0.1061 -0.0797,-0.028 -0.3234,-0.065 -0.54146,-0.081 -0.47401,-0.036 -0.62032,-0.097 -0.79529,-0.3347 -0.23894,-0.3249 -0.25325,-0.3319 -0.64644,-0.322 -0.34258,0.01 -0.69774,0.065 -1.02536,0.1608 -0.21138,0.062 -0.42036,0.063 -0.56809,0 -0.0631,-0.026 -0.27551,-0.058 -0.472,-0.071 -0.64689,-0.043 -1.0187,-0.1592 -1.23783,-0.388 -0.0952,-0.099 -0.58235,-0.9946 -0.92804,-1.7055 -0.23865,-0.4907 -0.24454,-0.5144 -0.33145,-1.3348 -0.0292,-0.2751 -0.0661,-0.464 -0.10125,-0.5177 -0.0305,-0.047 -0.0554,-0.1042 -0.0554,-0.1285 0,-0.024 -0.0409,-0.1204 -0.0909,-0.2138 -0.0793,-0.1483 -0.0912,-0.211 -0.0936,-0.4931 -0.003,-0.3543 0.0106,-0.3904 0.29727,-0.7941 0.0931,-0.1311 0.13705,-0.2348 0.15526,-0.3664 0.0139,-0.1009 0.0435,-0.2169 0.0657,-0.2579 0.0222,-0.041 0.0404,-0.1036 0.0404,-0.1394 0,-0.092 0.38334,-0.4495 0.48233,-0.4503 0.13219,0 0.74328,-0.1936 0.81227,-0.256 0.0356,-0.032 0.0732,-0.086 0.0837,-0.1185 0.0105,-0.033 0.12186,-0.1132 0.24755,-0.1783 0.1777,-0.092 0.25664,-0.1147 0.35497,-0.1021 0.0704,0.01 0.19746,-0.01 0.28676,-0.038 0.0882,-0.03 0.24564,-0.054 0.34991,-0.054 0.10427,-10e-5 0.34269,-0.037 0.52982,-0.082 0.59002,-0.1427 1.09095,-0.2253 1.3321,-0.2199 0.28387,0.01 0.41974,-0.023 0.95792,-0.206 0.55857,-0.1903 1.07294,-0.3038 1.48675,-0.3282 0.31772,-0.019 0.36278,-0.031 0.6805,-0.1843 0.38814,-0.1875 0.58691,-0.2385 1.39178,-0.3568 0.5765,-0.085 1.142,-0.2182 1.32441,-0.3125 0.10307,-0.054 0.23885,-0.082 0.78837,-0.1646 0.40061,-0.06 0.48449,-0.085 0.86763,-0.2541 0.15907,-0.07 0.35046,-0.1387 0.42532,-0.1522 0.0748,-0.014 0.24327,-0.071 0.37427,-0.126 0.13099,-0.056 0.56736,-0.1842 0.96971,-0.2853 0.40234,-0.1011 0.93823,-0.2378 1.19087,-0.3039 0.25263,-0.066 0.58948,-0.1338 0.74855,-0.1509 0.15906,-0.017 0.42606,-0.078 0.59331,-0.1361 0.16726,-0.058 0.33681,-0.1053 0.37679,-0.1053 0.04,0 0.20057,-0.038 0.35687,-0.085 0.15631,-0.047 0.35072,-0.085 0.43203,-0.085 0.14985,0 0.47909,-0.08 0.91195,-0.2224 0.131,-0.043 0.34199,-0.089 0.46887,-0.1021 0.18565,-0.019 0.26871,-0.048 0.42531,-0.1512 0.24947,-0.1633 0.3515,-0.279 0.45081,-0.511 0.0793,-0.1852 0.0802,-0.2012 0.0871,-1.5651 0.0114,-2.2543 0.003,-2.1439 0.20557,-2.722 0.20482,-0.5847 0.23386,-0.747 0.18139,-1.0136 -0.0345,-0.1758 -0.0308,-0.2264 0.0321,-0.43 0.0424,-0.1371 0.0713,-0.3235 0.0713,-0.4593 0,-0.4356 0.13762,-0.7119 0.64129,-1.2878 0.15179,-0.1735 0.33615,-0.4032 0.40967,-0.51037 0.32001,-0.46632 0.91206,-0.89232 1.24009,-0.89232 0.18406,0 0.32815,-0.049 0.75028,-0.2576 0.3164,-0.156 0.33194,-0.16 0.4672,-0.1196 0.0869,0.026 0.36058,0.043 0.72193,0.043 0.43119,3e-4 0.60585,0.013 0.674,0.048 0.0893,0.046 0.16758,0.1816 0.53926,0.93322 0.0694,0.1403 0.13711,0.29997 0.15045,0.35467 0.0134,0.054 0.0931,0.2497 0.17715,0.4331 0.242,0.528 0.25937,0.7094 0.10863,1.1346 -0.0199,0.056 -0.0591,0.2246 -0.0872,0.3743 -0.0685,0.3658 -0.0315,0.5667 0.20723,1.1228 0.28599,0.6663 0.28643,0.6702 0.20624,1.7693 -0.0271,0.3703 0.0288,0.6277 0.21674,0.9993 0.0927,0.1834 0.17566,0.2909 0.30856,0.3998 0.1,0.082 0.20857,0.149 0.24136,0.149 0.0868,0 0.40089,-0.1128 0.61241,-0.22 0.16823,-0.085 0.41241,-0.1442 0.71676,-0.1731 0.33904,-0.032 0.65331,-0.092 0.96188,-0.1848 0.25732,-0.077 0.41158,-0.1027 0.61772,-0.103 0.17575,-4e-4 0.35061,-0.025 0.48526,-0.066 0.11578,-0.037 0.33013,-0.077 0.47635,-0.09 0.14621,-0.013 0.41895,-0.069 0.60609,-0.1232 0.36489,-0.1066 0.68386,-0.1608 1.03776,-0.1764 0.14134,-0.01 0.30714,-0.043 0.45934,-0.1033 0.13099,-0.052 0.34281,-0.1058 0.4707,-0.1206 0.28049,-0.032 0.3804,-0.1125 0.51445,-0.4112 0.14536,-0.3239 0.25435,-1.1814 0.26995,-2.124 0.008,-0.4895 0.0182,-0.5708 0.1005,-0.8074 0.0678,-0.1948 0.0859,-0.2976 0.0701,-0.3969 -0.0139,-0.087 -0.003,-0.1858 0.0327,-0.2814 0.0298,-0.081 0.0695,-0.2929 0.0884,-0.4707 0.0505,-0.4765 0.11355,-0.68297 0.35877,-1.17619 0.21458,-0.4316 0.22108,-0.4524 0.22108,-0.7072 0,-0.2054 0.0297,-0.365 0.1361,-0.7324 0.0749,-0.2584 0.1361,-0.5022 0.1361,-0.5416 0,-0.1357 0.0957,-0.4385 0.20084,-0.6356 0.0691,-0.1294 0.10539,-0.2462 0.10539,-0.3384 0,-0.134 0.0612,-0.2793 0.32398,-0.7683 0.0453,-0.084 0.15126,-0.3037 0.23559,-0.4877 0.0843,-0.184 0.20536,-0.406 0.26896,-0.4934 0.0636,-0.087 0.15108,-0.2645 0.19441,-0.3939 0.0433,-0.1294 0.15049,-0.3451 0.23815,-0.4794 0.14207,-0.2176 0.21422,-0.2927 0.49866,-0.5184 0.0573,-0.046 0.11305,-0.1994 0.23125,-0.6384 0.27542,-1.023 0.58406,-1.5271 1.10125,-1.7989 0.1293,-0.068 0.39285,-0.2471 0.58566,-0.3983 0.64541,-0.5057 0.830235,-0.5752 1.532255,-0.5756 0.3607,-3e-4 0.49294,0.013 0.59543,0.057 0.0999,0.043 0.27633,0.062 0.72987,0.077 0.56569,0.018 0.60494,0.024 0.72389,0.1042 0.2475,0.1674 0.47029,0.5861 0.58249,1.0946 0.0861,0.3902 0.082,0.3872 0.51027,0.376 0.54104,-0.014 0.65984,0.072 0.7183,0.5198 0.0245,0.1879 0.19748,0.6656 0.29002,0.8011 0.0325,0.048 0.0981,0.1701 0.14562,0.2722 0.0476,0.1021 0.14829,0.2842 0.22383,0.4044 0.0755,0.1204 0.13734,0.2525 0.13734,0.2937 0,0.081 0.0726,0.2814 0.15734,0.4339 0.0631,0.1135 0.043,0.2199 -0.0669,0.3525 -0.21439,0.2589 -0.4802,0.8514 -0.95893,2.1378 -0.18109,0.4865 -0.3427,0.9098 -0.35913,0.9405 -0.0164,0.031 -0.0667,0.1916 -0.11168,0.3573 -0.045,0.1658 -0.14643,0.4468 -0.22541,0.6246 -0.15743,0.3544 -0.24568,0.705 -0.21546,0.85612 0.0155,0.077 0.002,0.1113 -0.0702,0.1675 -0.14333,0.1127 -0.16895,0.1946 -0.19378,0.61897 -0.0208,0.3558 -0.0334,0.4151 -0.11252,0.5292 -0.0492,0.071 -0.0891,0.1757 -0.0891,0.2338 0,0.058 -0.0459,0.1926 -0.10208,0.2994 -0.10207,0.194 -0.10207,0.1941 -0.10207,0.786 0,0.676 0.01,0.7021 0.2771,0.7442 0.0815,0.013 0.1961,0.04 0.25464,0.06 0.0768,0.026 0.17619,0.026 0.35726,0 0.13795,-0.021 0.51435,-0.055 0.83643,-0.074 0.59799,-0.036 0.99392,-0.1105 1.20722,-0.227 0.0878,-0.048 0.21741,-0.066 0.58892,-0.078 0.40344,-0.014 0.50012,-0.029 0.63169,-0.094 0.16927,-0.083 0.43874,-0.1015 0.64246,-0.043 0.10306,0.03 0.15232,0.017 0.41742,-0.105 0.27785,-0.1279 0.31657,-0.137 0.51238,-0.1194 0.53054,0.048 0.61108,0.063 0.67449,0.1262 0.0585,0.059 0.12007,0.065 0.64449,0.065 0.6475,0 0.77092,0.032 0.92501,0.2419 0.0425,0.058 0.14746,0.1409 0.23312,0.1844 0.0857,0.043 0.199,0.1377 0.25185,0.2093 0.1424,0.1926 0.332,0.3851 0.37926,0.3851 0.0578,0 0.2509,0.1673 0.2509,0.2174 0,0.023 0.12761,0.2931 0.28358,0.6009 0.20044,0.3957 0.34081,0.7338 0.47882,1.1536 0.10739,0.3265 0.21221,0.6251 0.23295,0.6635 0.0208,0.038 0.11316,0.2763 0.2054,0.529 0.31522,0.8633 0.4092,1.5667 0.25993,1.9454 l -0.0704,0.1787 0.0762,0.1628 c 0.12332,0.2633 0.24141,0.2295 0.72812,-0.209 0.16791,-0.1511 0.36641,-0.2906 0.51811,-0.3639 0.13524,-0.066 0.25408,-0.1321 0.26408,-0.1483 0.01,-0.016 0.0649,-0.04 0.12206,-0.052 0.0572,-0.013 0.17752,-0.094 0.2675,-0.1813 0.09,-0.087 0.35018,-0.2655 0.57823,-0.3965 0.22804,-0.131 0.4877,-0.2934 0.577,-0.3609 0.0893,-0.067 0.21472,-0.1331 0.2787,-0.1456 0.064,-0.013 0.20785,-0.083 0.31973,-0.1579 0.11591,-0.077 0.24445,-0.1352 0.29881,-0.1352 0.0525,0 0.15232,-0.024 0.22189,-0.053 0.0696,-0.029 0.30258,-0.09 0.51779,-0.1349 0.2152,-0.045 0.45253,-0.097 0.52739,-0.115 0.27472,-0.067 0.48388,-0.1078 0.80931,-0.1564 0.18672,-0.028 0.44822,-0.096 0.59543,-0.1551 0.21904,-0.088 0.33567,-0.1106 0.7048,-0.1371 0.24327,-0.018 0.67198,-0.057 0.9527,-0.087 0.2807,-0.031 0.6821,-0.055 0.892,-0.056 0.36095,-7e-4 0.39359,0.01 0.60204,0.1078 0.51184,0.2521 1.15457,0.7341 1.37325,1.0301 0.0887,0.12 0.17809,0.1946 0.29702,0.2483 0.0936,0.042 0.25215,0.1439 0.35241,0.2262 0.32219,0.2645 0.48662,0.3709 0.57372,0.3709 0.11629,0 0.45522,0.1855 0.64658,0.354 0.19198,0.1689 0.39378,0.4737 0.47113,0.7114 0.0316,0.097 0.0774,0.1995 0.10177,0.2276 0.0244,0.028 0.0823,0.1333 0.12888,0.2337 0.0465,0.1003 0.12938,0.2304 0.18419,0.289 0.0945,0.1011 0.2038,0.3709 0.32759,0.8082 0.0298,0.1052 0.12445,0.294 0.21042,0.4195 0.24225,0.3538 0.26617,0.4304 0.21486,0.6886 -0.0516,0.2594 -0.016,0.5238 0.14103,1.0466 0.16876,0.562 0.23253,0.9883 0.17033,1.1385 -0.0319,0.077 -0.0291,0.1289 0.0144,0.2622 0.0555,0.1705 0.0504,0.2533 -0.0465,0.7447 -0.0477,0.2423 -0.01,1.3416 0.0561,1.628 0.0584,0.2538 0.0473,0.3558 -0.0953,0.8729 -0.0555,0.2013 -0.0721,0.3736 -0.0789,0.8166 -0.005,0.331 -0.0271,0.6312 -0.0538,0.7315 -0.0915,0.3438 -0.32167,0.7756 -0.53898,1.011 -0.0825,0.089 -0.0851,0.1065 -0.0793,0.5274 0.005,0.397 -8.5e-4,0.4499 -0.0761,0.6052 -0.0452,0.093 -0.12205,0.2228 -0.17088,0.2873 -0.0488,0.065 -0.0888,0.1563 -0.0888,0.2042 -3e-5,0.1053 -0.16211,0.4559 -0.31074,0.6719 -0.0598,0.087 -0.30138,0.3511 -0.53692,0.5872 -0.23553,0.2362 -0.51319,0.5226 -0.61702,0.6366 -0.25256,0.2773 -0.6548,0.4761 -1.03612,0.5121 -0.0936,0.01 -0.18467,0.03 -0.20245,0.047 -0.049,0.047 -0.17661,0.037 -0.31753,-0.024 -0.092,-0.04 -0.2178,-0.054 -0.46086,-0.049 -0.18391,0 -0.4166,-0.011 -0.5171,-0.032 -0.16276,-0.034 -0.21175,-0.029 -0.44821,0.045 -0.14601,0.046 -0.3803,0.094 -0.52065,0.1071 -0.14394,0.014 -0.43321,0.082 -0.66349,0.1564 -0.22456,0.073 -0.52796,0.1632 -0.67419,0.2004 -0.30925,0.078 -0.35949,0.072 -1.06321,-0.1381 -0.33176,-0.099 -0.50454,-0.1328 -0.68139,-0.1328 -0.51192,0 -1.191,-0.1226 -1.85417,-0.3346 -0.26407,-0.084 -0.52454,-0.1435 -0.69467,-0.1576 -0.48871,-0.04 -0.89584,-0.2147 -1.66538,-0.7133 -0.20687,-0.1341 -0.46258,-0.2929 -0.56825,-0.3532 -0.25451,-0.145 -0.43762,-0.3333 -0.63066,-0.6487 -0.33973,-0.5548 -0.47816,-0.7451 -0.72478,-0.9965 -0.46633,-0.4756 -0.682,-0.7367 -0.76648,-0.9277 -0.11619,-0.2628 -0.35109,-0.6328 -0.76828,-1.2104 -0.55107,-0.7628 -0.78135,-1.1675 -0.90059,-1.5821 -0.0323,-0.1122 -0.0943,-0.2509 -0.13791,-0.3081 -0.24042,-0.3155 -0.30444,-0.7411 -0.24959,-1.6591 0.0203,-0.3402 0.0273,-0.6839 0.0155,-0.7636 -0.0118,-0.08 -0.006,-0.1944 0.0134,-0.2552 0.0192,-0.06 0.0427,-0.1486 0.0522,-0.1954 0.009,-0.047 0.10958,-0.2457 0.22244,-0.4423 0.21495,-0.3743 0.34111,-0.7095 0.34111,-0.9063 0,-0.1879 0.15918,-0.4511 0.46022,-0.7609 0.30186,-0.3107 0.47487,-0.5584 0.66074,-0.9465 0.0922,-0.1923 0.10837,-0.2535 0.0758,-0.2861 -0.0276,-0.027 -0.25288,-0.05 -0.67065,-0.067 -0.62141,-0.025 -0.6318,-0.027 -0.84132,-0.1367 -0.33714,-0.176 -0.42037,-0.1618 -0.88106,0.1495 -0.21222,0.1434 -0.4357,0.2855 -0.49663,0.3157 -0.0609,0.03 -0.28296,0.072 -0.49337,0.093 -0.35736,0.035 -0.39568,0.047 -0.58142,0.1687 -0.29978,0.1975 -0.39084,0.2125 -1.11111,0.1826 -1.18014,-0.049 -1.403,-0.028 -2.02448,0.188 -0.45381,0.1578 -0.69667,0.2108 -1.0767,0.2353 -0.38869,0.025 -0.40383,0.029 -0.79959,0.2165 -0.22186,0.1053 -0.50821,0.2171 -0.63634,0.2487 -0.24508,0.06 -0.41173,0.1702 -0.44942,0.2957 -0.0124,0.042 -0.0736,0.1287 -0.13589,0.1942 -0.1457,0.153 -0.17759,0.2425 -0.22012,0.6179 -0.0386,0.3407 -0.0624,0.404 -0.21186,0.5619 -0.0863,0.091 -0.10937,0.1549 -0.14782,0.4083 -0.063,0.415 -0.0589,0.5915 0.0186,0.8009 0.0367,0.099 0.0916,0.3406 0.12214,0.5372 0.0305,0.1964 0.0963,0.4567 0.14604,0.5783 0.0777,0.1899 0.0903,0.2694 0.0892,0.5614 -8.5e-4,0.3171 -0.009,0.3545 -0.11178,0.5487 l -0.11048,0.2083 0.0669,0.1695 c 0.16837,0.4273 0.3688,1.2487 0.44631,1.8296 0.0225,0.1684 0.0692,0.4133 0.10375,0.5443 0.0346,0.131 0.10359,0.4755 0.15335,0.7656 0.0947,0.5521 0.23957,1.0552 0.3599,1.2499 0.065,0.1051 0.069,0.145 0.0467,0.4716 l -0.0243,0.3567 0.14985,0.1603 c 0.21663,0.2317 0.31356,0.4595 0.48129,1.1314 0.0977,0.3915 0.19065,0.6783 0.27005,0.8336 0.0665,0.1302 0.13914,0.2991 0.16128,0.3754 0.0221,0.077 0.12189,0.2493 0.22165,0.3846 0.0998,0.1352 0.20709,0.3232 0.2385,0.4178 0.0593,0.1784 0.26871,0.5082 0.49759,0.7833 0.15767,0.1895 0.33744,0.2585 0.95758,0.3672 0.45262,0.079 0.73984,0.2021 0.88991,0.3804 0.0907,0.1078 0.0928,0.1198 0.0763,0.4356 -0.009,0.1787 -0.0364,0.4934 -0.0601,0.6994 -0.0418,0.3633 -0.0404,0.3876 0.0492,0.7996 0.0508,0.2338 0.10778,0.4863 0.12666,0.5613 0.0189,0.075 0.0391,0.4349 0.0449,0.7996 0.006,0.3648 0.022,0.9235 0.0361,1.2418 0.0282,0.6393 0.011,0.7569 -0.1464,1.0041 -0.0779,0.1224 -0.16127,0.1879 -0.4216,0.3312 -0.17845,0.098 -0.37625,0.1885 -0.43957,0.2005 -0.0633,0.012 -0.15883,0.044 -0.21224,0.071 -0.067,0.034 -0.14725,0.042 -0.25877,0.026 -0.1132,-0.015 -0.20007,-0.01 -0.28983,0.032 -0.14113,0.059 -0.52643,0.067 -0.74531,0.015 z m 15.56582,-15.9244 c 0.29836,-0.1 0.44885,-0.3626 0.6904,-1.207 0.19566,-0.6839 0.19899,-0.8762 0.0196,-1.1362 -0.0408,-0.06 -0.0647,-0.1833 -0.0782,-0.4083 -0.0241,-0.3996 -0.0789,-0.9057 -0.10213,-0.9433 -0.0306,-0.049 -0.1017,-0.6979 -0.10757,-0.9813 -0.007,-0.3437 -0.0806,-0.5103 -0.27249,-0.6179 -0.24719,-0.1385 -0.37702,-0.096 -1.00827,0.326 -0.33666,0.2254 -0.52428,0.3785 -1.3971,1.1402 -0.67781,0.5916 -0.96552,0.7524 -1.43066,0.7995 -0.41221,0.042 -0.56259,0.1604 -0.68789,0.5426 -0.0989,0.3017 -0.0794,0.3378 0.50067,0.928 0.29745,0.3026 0.61302,0.5891 0.73985,0.6715 0.21302,0.1385 0.67197,0.312 0.82686,0.3127 0.0412,3e-4 0.24322,0.07 0.44907,0.1555 0.5966,0.2475 0.80086,0.3229 1.05478,0.39 0.27242,0.072 0.63371,0.084 0.80302,0.028 z m -74.678805,10.6203 c 0,-0.084 0.007,-0.1186 0.0147,-0.077 0.008,0.042 0.008,0.111 0,0.1531 -0.008,0.043 -0.0147,0.01 -0.0147,-0.077 z m -4.49239,-0.1786 c -0.0686,-0.1407 -0.0828,-0.3278 -0.0306,-0.4024 0.0446,-0.064 0.0501,-0.047 0.0638,0.1962 0.008,0.1461 0.0125,0.2696 0.01,0.2742 -0.003,0.01 -0.0222,-0.026 -0.0427,-0.068 z m 5.02751,-1.031 c 0,-0.042 0.10838,-0.2244 0.12411,-0.2087 0.0183,0.019 -0.0811,0.2274 -0.10797,0.2274 -0.009,0 -0.0162,-0.01 -0.0162,-0.019 z m -22.50179,-4.3591 c -0.0391,-0.039 -0.0247,-0.079 0.0283,-0.079 0.0281,0 0.051,0.023 0.051,0.051 0,0.053 -0.0402,0.067 -0.0794,0.028 z m -0.19281,-0.1985 c 0.0233,-0.028 0.0542,-0.051 0.0686,-0.051 0.0144,0 0.035,0.023 0.0458,0.051 0.0143,0.037 -0.004,0.051 -0.0686,0.051 -0.0745,0 -0.0816,-0.01 -0.0459,-0.051 z M 213.853,1022.7742 c -0.0739,-0.019 -0.24491,-0.087 -0.38004,-0.1515 -0.23048,-0.1109 -0.26377,-0.1419 -0.53739,-0.501 -0.90182,-1.1836 -1.08068,-1.404 -1.31373,-1.6186 -0.14901,-0.1373 -0.2975,-0.3121 -0.3554,-0.4186 -0.0547,-0.1007 -0.17492,-0.2596 -0.26715,-0.3531 -0.35575,-0.3609 -0.64263,-0.8946 -0.70699,-1.3153 -0.0573,-0.3741 -0.11862,-0.5225 -0.37183,-0.8989 -0.39396,-0.5856 -0.63546,-1.1311 -0.74651,-1.6862 -0.0211,-0.1054 -0.0749,-0.2585 -0.1197,-0.3402 -0.24408,-0.4459 -0.32378,-0.7283 -0.32378,-1.1473 0,-0.2946 -0.43475,-0.9546 -0.8193,-1.2436 -0.31854,-0.2394 -0.58454,-0.3102 -1.15414,-0.3071 -0.43531,0 -0.49137,0.011 -1.07179,0.1643 -0.46685,0.1232 -0.65277,0.158 -0.7821,0.1463 -0.24619,-0.022 -0.44654,0.051 -0.7336,0.2696 -0.13947,0.1062 -0.32248,0.2221 -0.4067,0.2575 -0.0842,0.036 -0.1797,0.079 -0.21219,0.097 -0.0325,0.018 -0.0912,0.032 -0.1304,0.032 -0.0392,0 -0.17613,0.046 -0.30423,0.1023 -0.12812,0.056 -0.38331,0.1422 -0.56712,0.191 -0.44247,0.1176 -0.58961,0.191 -0.76937,0.3831 -0.15363,0.1643 -0.42807,0.3421 -0.86826,0.5628 -0.2171,0.1089 -0.31214,0.1329 -0.74855,0.1894 -0.57806,0.075 -0.65658,0.099 -1.13303,0.3512 -0.34228,0.1811 -1.18055,0.4658 -1.37113,0.4658 -0.0444,0 -0.29843,-0.1316 -0.56454,-0.2927 -0.26612,-0.161 -0.57843,-0.337 -0.69404,-0.3911 l -0.21021,-0.098 -0.36302,0.041 c -0.28577,0.032 -0.40858,0.032 -0.57715,0 -0.11778,-0.023 -0.35195,-0.055 -0.52037,-0.071 -0.22742,-0.022 -0.36751,-0.058 -0.5444,-0.1382 -0.58242,-0.2655 -0.80303,-0.2941 -1.14826,-0.1488 -0.17186,0.072 -0.28355,0.092 -0.60803,0.1069 l -0.3975,0.019 -0.64324,-0.3111 c -0.35377,-0.171 -0.65916,-0.311 -0.67864,-0.311 -0.0195,0 -0.15962,-0.09 -0.31143,-0.1993 -0.1561,-0.1127 -0.33946,-0.2146 -0.42205,-0.2345 -0.71236,-0.1716 -0.88866,-0.2272 -1.10162,-0.3474 -0.6511,-0.3675 -1.05113,-0.3567 -1.56962,0.043 -0.11246,0.087 -0.49366,0.4581 -0.8471,0.8259 -0.85054,0.8848 -1.19168,1.1357 -1.60862,1.1831 -0.10238,0.012 -0.30227,0.077 -0.45242,0.1471 -0.31465,0.1476 -0.40806,0.2575 -0.64107,0.7544 -0.17421,0.3715 -0.29412,0.4917 -0.5691,0.5708 -0.28692,0.082 -0.3474,0.1206 -0.73105,0.4602 -0.2085,0.1846 -0.445,0.3579 -0.58726,0.4302 -0.23463,0.1192 -0.24627,0.1214 -0.78257,0.1442 -0.53426,0.023 -0.55138,0.025 -0.91868,0.1677 -0.78243,0.3022 -0.93825,0.35 -1.06773,0.3275 -0.0677,-0.012 -0.31453,-0.035 -0.54844,-0.051 -0.60137,-0.042 -1.15572,-0.2224 -1.75741,-0.5738 -0.22093,-0.129 -0.25048,-0.1602 -0.36881,-0.3883 -0.18002,-0.3472 -0.26403,-0.4497 -0.43392,-0.5296 -0.50605,-0.2379 -0.7925,-0.6671 -1.21843,-1.8257 -0.0821,-0.2233 -0.20724,-0.4989 -0.27813,-0.6124 -0.41586,-0.6662 -0.58107,-1.1159 -0.82606,-2.2481 -0.17012,-0.7861 -0.31035,-1.1486 -0.54473,-1.4081 -0.12707,-0.1406 -0.28813,-0.1894 -0.34128,-0.1034 -0.0124,0.02 -0.13198,0.1061 -0.2657,0.191 -0.26162,0.1662 -0.72458,0.6137 -0.90236,0.8721 -0.12353,0.1795 -0.19299,0.2217 -0.53249,0.3232 -0.3467,0.1037 -0.39293,0.1659 -0.54095,0.7273 -0.13931,0.5284 -0.14148,0.4902 0.0655,1.1503 0.28543,0.9103 0.18456,1.2065 -0.48786,1.4322 -0.16647,0.056 -0.26008,0.1161 -0.41055,0.2643 -0.22009,0.2166 -0.28682,0.3917 -0.32602,0.8553 -0.0297,0.3516 -0.0613,0.417 -0.24437,0.5059 -0.14069,0.068 -0.17236,0.072 -0.33196,0.036 -0.1441,-0.032 -0.24381,-0.029 -0.54403,0.018 -0.20219,0.031 -0.60673,0.064 -0.89901,0.072 -0.29227,0.01 -0.55679,0.023 -0.58782,0.032 -0.0956,0.031 -0.35024,-0.045 -0.41256,-0.1219 -0.0325,-0.04 -0.0754,-0.1333 -0.0952,-0.2072 -0.0364,-0.135 -0.11966,-0.2891 -0.3521,-0.6512 -0.18346,-0.2857 -0.25293,-0.4689 -0.29032,-0.7652 -0.0183,-0.1448 -0.0956,-0.4623 -0.17194,-0.7056 -0.15902,-0.507 -0.23918,-0.9184 -0.23918,-1.2276 0,-0.1184 -0.0228,-0.3027 -0.0507,-0.4098 -0.0484,-0.1858 -0.0766,-0.4756 -0.15322,-1.578 -0.0189,-0.2713 -0.0635,-0.6158 -0.0993,-0.7655 -0.0357,-0.1497 -0.0754,-0.3641 -0.0883,-0.4764 -0.0129,-0.1123 -0.0609,-0.4338 -0.10678,-0.7145 -0.0459,-0.2807 -0.0964,-0.74 -0.11214,-1.0207 -0.0238,-0.4242 -0.0443,-0.5535 -0.12149,-0.7656 -0.0543,-0.149 -0.10536,-0.3824 -0.12299,-0.5614 -0.0166,-0.1684 -0.0426,-0.4314 -0.0577,-0.5844 -0.0152,-0.153 -0.0495,-0.3049 -0.0764,-0.3373 -0.0765,-0.093 -0.06,-1.1812 0.022,-1.4518 0.0523,-0.1728 0.0547,-0.2167 0.0165,-0.309 -0.0818,-0.1978 -0.10164,-0.5418 -0.1011,-1.7578 3.8e-4,-0.8 -0.0129,-1.2703 -0.0395,-1.3926 -0.0607,-0.28 -0.0245,-0.59 0.1042,-0.8948 0.10107,-0.2393 0.12669,-0.2718 0.28528,-0.3627 0.0958,-0.055 0.31143,-0.2228 0.47913,-0.37307 0.33589,-0.3011 0.58615,-0.4471 0.76738,-0.4476 0.0652,-4e-4 0.19375,-0.023 0.28562,-0.051 0.27462,-0.083 0.87867,-0.048 1.18342,0.069 0.0987,0.038 0.17475,0.194 0.21921,0.44957 0.0585,0.3363 0.12841,0.4766 0.45223,0.9072 0.15331,0.2038 0.32643,0.4641 0.38473,0.5784 0.10509,0.206 0.10608,0.2128 0.11612,0.8031 0.007,0.4123 0.0254,0.6374 0.0595,0.7316 0.0271,0.075 0.073,0.2211 0.10201,0.3248 0.0846,0.3029 0.20683,0.3823 0.77837,0.5056 0.38656,0.083 0.39395,0.082 0.85471,-0.2 0.15186,-0.093 0.34218,-0.192 0.42296,-0.2203 0.19503,-0.068 0.30619,-0.15 0.66517,-0.4891 0.18211,-0.172 0.37761,-0.3211 0.49336,-0.3763 0.10543,-0.05 0.2606,-0.1424 0.34482,-0.2046 0.0842,-0.062 0.22201,-0.1434 0.30623,-0.1805 0.20022,-0.088 0.68913,-0.1957 0.89093,-0.1966 0.0877,-4e-4 0.19902,-0.016 0.24743,-0.034 0.0484,-0.019 0.25229,-0.043 0.45304,-0.055 0.33168,-0.019 0.38988,-0.013 0.63723,0.066 0.49391,0.1584 0.64985,0.2906 1.194,1.0125 0.40314,0.5348 0.45043,0.6247 0.57034,1.085 0.13525,0.5192 0.21261,0.6905 0.41356,0.9156 0.17293,0.1939 0.19519,0.24 0.35316,0.7324 0.0927,0.2891 0.20222,0.6604 0.24332,0.8251 0.0411,0.1648 0.10558,0.3603 0.14328,0.4347 0.0377,0.074 0.0881,0.2733 0.11208,0.4423 0.0352,0.2486 0.0982,0.4402 0.33045,1.0047 0.1578,0.3836 0.34289,0.8082 0.41129,0.9433 0.0684,0.1353 0.12436,0.276 0.12436,0.3128 0,0.2058 0.336,0.9355 0.55478,1.2048 0.0786,0.097 0.20278,0.2902 0.27589,0.4296 0.15554,0.2966 0.59765,0.7757 0.93862,1.0171 0.12164,0.086 0.29272,0.2123 0.38016,0.2805 0.20226,0.1579 0.53217,0.2524 0.78851,0.2259 0.18756,-0.019 1.04128,-0.3252 1.77423,-0.6355 0.34498,-0.146 0.42854,-0.1967 0.5406,-0.3278 0.0729,-0.085 0.30487,-0.2684 0.5155,-0.4069 0.38657,-0.2542 0.52631,-0.3924 0.65672,-0.6499 0.10544,-0.2082 0.31095,-0.364 0.69722,-0.5288 0.40943,-0.1746 0.62442,-0.3349 0.73861,-0.5504 0.066,-0.1247 0.11303,-0.1686 0.22007,-0.2054 0.19454,-0.067 0.48999,-0.1467 0.63375,-0.1711 0.16835,-0.029 0.47206,-0.3441 0.47206,-0.4903 0,-0.1952 0.13801,-0.5388 0.41913,-1.0434 0.40785,-0.732 1.18698,-1.9347 1.5923,-2.4579 0.11946,-0.1542 0.28341,-0.3875 0.36432,-0.5185 0.13422,-0.2171 0.17154,-0.2514 0.42532,-0.3898 0.15301,-0.083 0.33862,-0.2137 0.41248,-0.2894 l 0.1343,-0.1377 0.002,-0.4178 0.002,-0.4179 0.12513,-0.1693 c 0.18694,-0.2529 0.43254,-0.48 0.73001,-0.6753 0.26238,-0.1722 0.28824,-0.206 0.33494,-0.4374 0.0118,-0.059 0.19147,-0.2714 0.48855,-0.5784 0.38261,-0.3955 0.49653,-0.537 0.6137,-0.7624 0.21896,-0.4211 0.4847,-0.70267 1.28028,-1.35669 0.22457,-0.1847 0.54388,-0.4699 0.7096,-0.634 0.27676,-0.2739 0.32267,-0.3054 0.56355,-0.3856 0.19743,-0.066 0.29318,-0.1199 0.38746,-0.2194 0.0823,-0.087 0.21572,-0.1697 0.38916,-0.2417 0.34634,-0.1438 0.41605,-0.1966 0.60073,-0.4554 0.27618,-0.3871 0.74279,-0.657 1.1948,-0.6913 0.2229,-0.017 0.27669,-0.034 0.3892,-0.125 0.0718,-0.058 0.24907,-0.2021 0.39393,-0.3201 0.30345,-0.2472 0.65185,-0.4336 0.90889,-0.4861 0.0984,-0.02 0.24011,-0.079 0.31496,-0.1314 0.32591,-0.2267 0.49045,-0.2857 0.84012,-0.3011 0.24523,-0.011 0.37107,-3e-4 0.49092,0.041 0.10896,0.038 0.27956,0.055 0.5266,0.055 0.20098,0 0.39021,0.01 0.42051,0.021 0.13879,0.054 0.20525,0.3192 0.25764,1.0304 0.0438,0.5952 0.11794,0.9294 0.26891,1.2123 0.1705,0.3195 0.15254,0.4818 -0.13086,1.1824 -0.0589,0.1456 -0.12002,0.3676 -0.13583,0.4933 -0.0509,0.40462 -0.31577,0.87669 -0.58982,1.05109 -0.31326,0.1992 -0.39522,0.3081 -0.50824,0.6747 -0.14221,0.4612 -0.1646,0.4988 -0.51007,0.8566 -0.28912,0.2995 -0.43418,0.525 -0.43577,0.6779 -0.002,0.137 -0.19277,0.342 -0.48304,0.5174 -0.45182,0.273 -0.9371,0.8104 -1.05857,1.1722 -0.10838,0.3228 -0.66338,1.0782 -1.25613,1.7095 -0.21214,0.226 -0.31711,0.3709 -0.40054,0.5531 -0.20577,0.4491 -0.47014,0.6281 -1.4243,0.9641 -0.30572,0.1077 -0.58685,0.2238 -0.62473,0.258 -0.0379,0.034 -0.12766,0.179 -0.1995,0.3217 -0.16188,0.3217 -0.19251,0.3525 -0.41579,0.4174 -0.2496,0.072 -0.62178,0.3043 -1.3174,0.8205 -0.32749,0.243 -0.75526,0.5371 -0.95059,0.6537 -0.34617,0.2064 -0.84881,0.4169 -0.99911,0.4185 -0.14183,0 -0.3579,0.1276 -0.44573,0.2603 -0.0475,0.071 -0.11719,0.2203 -0.15502,0.3303 -0.0676,0.1966 -0.0677,0.2022 -0.005,0.3402 0.0935,0.2059 0.34646,0.4311 0.76928,0.6849 l 0.37427,0.2247 0.5444,-0.01 c 0.74135,-0.01 2.08785,0.054 2.20533,0.1 0.0526,0.021 0.15906,0.038 0.23641,0.038 0.0773,0 0.26391,0.018 0.41458,0.04 0.44655,0.065 0.47307,0.053 0.99167,-0.4472 0.64634,-0.6226 1.13551,-0.9317 1.62217,-1.0247 0.29194,-0.056 0.35118,-0.091 0.70602,-0.4226 0.33563,-0.3134 0.57633,-0.4588 0.75949,-0.4588 0.16147,0 0.34256,-0.07 0.65951,-0.2538 0.14963,-0.087 0.34692,-0.1787 0.43843,-0.204 0.22417,-0.062 0.89304,-0.3439 0.96183,-0.4056 0.0769,-0.069 0.41045,-0.1913 0.52189,-0.1913 0.0617,0 0.15159,-0.053 0.27072,-0.1583 0.25065,-0.2226 0.5401,-0.4015 1.16797,-0.7218 0.34042,-0.1737 0.62726,-0.347 0.76556,-0.4628 0.12164,-0.1018 0.35131,-0.2646 0.51037,-0.3618 0.36846,-0.2251 0.4854,-0.3354 0.64575,-0.609 0.20351,-0.3473 0.28658,-0.6428 0.25716,-0.9147 -0.0134,-0.1239 -0.0279,-0.317 -0.0323,-0.4293 -0.004,-0.1123 -0.0416,-0.3113 -0.0826,-0.4423 -0.0411,-0.131 -0.0969,-0.376 -0.12403,-0.5444 -0.0271,-0.1685 -0.0799,-0.4441 -0.11715,-0.6125 -0.0754,-0.3407 -0.0885,-0.6354 -0.0351,-0.7886 0.03,-0.086 0.0127,-0.1673 -0.11547,-0.541 -0.14977,-0.4367 -0.21253,-0.6843 -0.31405,-1.2393 -0.0291,-0.159 -0.076,-0.3251 -0.10442,-0.369 -0.0383,-0.06 -0.0465,-0.1335 -0.032,-0.2892 0.0305,-0.3286 0.0305,-0.335 -0.0116,-0.53257 -0.0219,-0.103 -0.0559,-0.3633 -0.0755,-0.57852 -0.0196,-0.2152 -0.0665,-0.5137 -0.10419,-0.6634 -0.097,-0.3855 -0.12111,-0.5696 -0.1603,-1.225 -0.0237,-0.397 -0.0566,-0.6532 -0.10468,-0.8166 -0.10714,-0.3642 -0.16938,-0.8403 -0.17124,-1.31 -8.5e-4,-0.2339 -0.0158,-0.4942 -0.0332,-0.5784 -0.0174,-0.084 -0.047,-0.4475 -0.0661,-0.8071 -0.019,-0.3597 -0.0566,-0.7655 -0.0834,-0.9017 -0.0269,-0.1362 -0.0662,-0.508 -0.0874,-0.8261 -0.0212,-0.3181 -0.0626,-0.7698 -0.0922,-1.0037 -0.0614,-0.4866 -0.0467,-1.121 0.0433,-1.8714 0.0303,-0.2526 0.0669,-0.7503 0.0812,-1.1058 0.0281,-0.696 0.12102,-1.3148 0.23863,-1.5885 0.0588,-0.1367 0.0685,-0.2337 0.0685,-0.6817 v -0.5225 l 0.16512,-0.3899 c 0.39791,-0.9399 0.48388,-1.0441 1.05137,-1.275 0.6302,-0.2565 0.92872,-0.4193 1.38642,-0.7562 0.0648,-0.048 0.19517,-0.089 0.35726,-0.1133 0.14035,-0.021 0.37002,-0.084 0.51037,-0.1395 0.3587,-0.1426 0.54065,-0.1594 0.69477,-0.064 0.13352,0.082 0.67482,0.7508 0.71722,0.8855 0.0146,0.046 0.078,0.159 0.14088,0.2505 0.0779,0.1132 0.11449,0.2057 0.11479,0.29 3.4e-4,0.068 0.0318,0.2232 0.0703,0.3449 0.0384,0.1216 0.0834,0.3283 0.0999,0.4593 0.0166,0.131 0.0569,0.3683 0.0897,0.5274 0.0492,0.2387 0.0612,0.5066 0.0687,1.5311 0.005,0.6831 0.0117,1.3185 0.0148,1.4121 0.007,0.1965 -0.044,0.535 -0.10059,0.6742 -0.0214,0.053 -0.039,0.2427 -0.039,0.4223 0,0.281 -0.0111,0.3459 -0.0802,0.4656 -0.0442,0.077 -0.0897,0.2116 -0.10134,0.3001 -0.0307,0.2346 -0.20548,0.5535 -0.62799,1.1462 -0.20566,0.2884 -0.39285,0.587 -0.41596,0.6634 -0.0231,0.077 -0.054,0.4146 -0.0686,0.7514 -0.0146,0.3369 -0.0433,0.6556 -0.0637,0.7082 -0.0204,0.053 -0.0372,0.2213 -0.0372,0.3746 0,0.2261 0.0203,0.3364 0.10801,0.5847 0.0964,0.2731 0.10883,0.3515 0.11564,0.7313 0.007,0.3876 0.0189,0.4599 0.13495,0.8166 0.11078,0.3404 0.13045,0.451 0.15141,0.8507 0.0206,0.3933 0.0376,0.4911 0.11839,0.6805 0.0722,0.1694 0.11781,0.3885 0.19469,0.9357 0.0837,0.5958 0.11638,0.7456 0.19657,0.9021 0.13496,0.26322 0.16366,0.39322 0.2063,0.93519 0.0374,0.4761 0.22245,1.3106 0.40735,1.8374 0.10931,0.3115 0.23141,0.8407 0.25721,1.115 0.0221,0.2349 0.25079,0.9074 0.37539,1.1039 0.0263,0.042 0.0477,0.1104 0.0476,0.1531 0,0.043 0.0215,0.1467 0.0481,0.2309 0.0723,0.2295 0.12363,0.4393 0.155,0.6332 0.0155,0.096 0.11233,0.4324 0.21526,0.7485 0.10293,0.3161 0.20545,0.6589 0.22784,0.7618 0.0224,0.103 0.0567,0.2435 0.0762,0.3123 0.0196,0.069 0.0264,0.1602 0.0151,0.2031 -0.0262,0.1002 0.11548,0.5754 0.28248,0.9477 0.0714,0.1591 0.17128,0.427 0.2221,0.5955 0.0509,0.1684 0.1208,0.3619 0.15549,0.4299 0.0347,0.068 0.0793,0.2254 0.0991,0.3496 0.0457,0.286 0.33938,1.2078 0.45623,1.4321 0.0487,0.094 0.12017,0.3156 0.15868,0.4933 0.0385,0.1778 0.10908,0.4304 0.1568,0.5614 0.0477,0.131 0.10629,0.3246 0.13016,0.4302 0.0561,0.2482 0.15356,0.5477 0.1916,0.5889 0.0164,0.018 0.0299,0.099 0.0299,0.1797 0,0.2319 0.12387,0.5423 0.36085,0.9042 0.12016,0.1834 0.26295,0.4217 0.31732,0.5294 0.0544,0.1077 0.12306,0.2159 0.15266,0.2405 0.0296,0.025 0.0538,0.072 0.0538,0.1054 0,0.1227 0.35445,0.7636 0.73353,1.3264 0.21411,0.3179 0.56466,0.842 0.779,1.1648 0.41383,0.6233 0.57403,0.8475 0.82057,1.1484 0.0843,0.1029 0.26286,0.3479 0.39674,0.5444 0.13387,0.1965 0.34927,0.4949 0.47865,0.663 0.12937,0.1681 0.28719,0.4089 0.35071,0.535 0.1007,0.2 0.11549,0.2621 0.11549,0.4849 0,0.2609 -0.11979,0.8103 -0.21722,0.9962 -0.0669,0.1276 -0.17328,0.2361 -0.29166,0.2973 -0.0784,0.041 -0.13497,0.044 -0.27585,0.018 -0.37176,-0.071 -0.86007,-0.01 -1.2709,0.1566 -0.11097,0.045 -0.24488,0.082 -0.2976,0.082 -0.0527,0 -0.19609,0.04 -0.3186,0.089 -0.18733,0.075 -0.25367,0.086 -0.41716,0.067 -0.22436,-0.026 -0.19819,-0.026 -0.61972,-0.01 -0.17778,0.01 -0.38369,0 -0.45758,-0.018 z m -190.081845,-0.2188 c 0,-0.028 0.014,-0.051 0.0312,-0.051 0.0172,0 0.0593,-0.01 0.0936,-0.022 0.052,-0.019 0.0499,-0.01 -0.0128,0.051 -0.0888,0.086 -0.112,0.091 -0.112,0.022 z m 0.64648,-0.1191 c 0,-0.019 0.0162,-0.034 0.0361,-0.034 0.0198,0 0.0265,0.015 0.015,0.034 -0.0116,0.019 -0.0278,0.034 -0.0361,0.034 -0.008,0 -0.015,-0.015 -0.015,-0.034 z m 124.413855,-1.5837 c -0.1487,-0.028 -0.40134,-0.1054 -0.56141,-0.1719 -0.16008,-0.066 -0.39825,-0.1556 -0.52929,-0.1981 -0.45748,-0.1483 -0.75852,-0.3581 -0.97132,-0.6768 -0.0759,-0.1137 -0.16883,-0.2381 -0.2065,-0.2766 -0.14507,-0.1483 -0.34,-0.4992 -0.48913,-0.8806 -0.17839,-0.4563 -0.21155,-0.5908 -0.26134,-1.0608 -0.0612,-0.5773 -0.0514,-0.7156 0.0811,-1.15 0.0883,-0.2895 0.0719,-0.5461 -0.0735,-1.1467 -0.11157,-0.4609 -0.12979,-0.7714 -0.064,-1.0901 0.0339,-0.1641 0.0314,-0.2135 -0.017,-0.3344 -0.1268,-0.317 -0.0567,-0.7567 0.20252,-1.2716 0.0656,-0.1303 0.16224,-0.3484 0.21475,-0.4848 0.0525,-0.1363 0.1659,-0.3466 0.25198,-0.4672 0.0861,-0.1207 0.20436,-0.3447 0.26284,-0.4978 0.0897,-0.235 0.12836,-0.2937 0.24772,-0.3765 0.17191,-0.1193 0.31358,-0.2685 0.34202,-0.3602 0.0146,-0.047 0.16597,-0.1356 0.48321,-0.2836 0.40726,-0.19 0.49705,-0.219 0.75677,-0.2443 0.29506,-0.029 0.50583,-0.09 0.8561,-0.2468 0.10292,-0.046 0.26802,-0.1012 0.36689,-0.1223 0.18647,-0.04 0.42931,-0.1482 0.46641,-0.2083 0.0287,-0.047 0.18679,-0.043 0.37551,0.01 0.12131,0.032 0.16767,0.032 0.21314,3e-4 0.25863,-0.1831 0.39593,-0.2257 0.77265,-0.2392 0.24914,-0.01 0.47667,0.01 0.6805,0.041 0.16843,0.03 0.46699,0.079 0.66349,0.1093 0.23018,0.035 0.44197,0.093 0.59543,0.1611 0.16466,0.073 0.30119,0.1089 0.44233,0.1148 0.11228,0.01 0.3496,0.026 0.52738,0.048 0.17778,0.022 0.44837,0.042 0.60133,0.043 0.23004,0 0.29471,-0.01 0.37427,-0.067 0.18955,-0.1385 0.30525,-0.5177 0.24479,-0.8021 -0.0459,-0.2157 -0.19887,-0.3835 -0.63498,-0.6961 -0.20034,-0.1434 -0.40252,-0.2908 -0.44931,-0.3273 -0.0468,-0.037 -0.19989,-0.1313 -0.34025,-0.2106 -0.14035,-0.079 -0.38255,-0.2227 -0.53822,-0.3185 -0.40168,-0.2471 -0.87308,-0.3829 -1.7547,-0.5053 -0.33907,-0.047 -0.44093,-0.049 -0.62946,-0.014 -0.20835,0.038 -0.29261,0.031 -1.14359,-0.095 -1.15162,-0.1713 -1.1469,-0.1701 -1.40568,-0.3383 -0.33925,-0.2206 -0.45925,-0.2474 -1.1683,-0.261 -0.36102,-0.01 -0.66985,-0.029 -0.7322,-0.052 -0.16158,-0.059 -0.2154,-0.228 -0.2154,-0.6739 0,-0.2009 -0.0145,-0.4161 -0.0324,-0.4782 -0.0178,-0.062 -0.0499,-0.2642 -0.0714,-0.449 l -0.039,-0.3362 0.12249,-0.3717 c 0.10822,-0.3284 0.1225,-0.4119 0.1225,-0.7175 0,-0.4518 0.0689,-0.7752 0.27669,-1.2982 l 0.16998,-0.4279 0.31018,-0.1505 c 0.37718,-0.1831 0.66044,-0.3851 0.77427,-0.5523 0.14326,-0.2102 0.41315,-0.3274 0.9669,-0.4197 0.26354,-0.044 0.54686,-0.08 0.62961,-0.08 0.0828,0 0.27414,-0.023 0.42531,-0.05 0.37539,-0.068 1.18258,-0.129 1.63585,-0.1229 0.74604,0.01 2.7059,0.25717 3.0221,0.38087 0.0969,0.038 0.40591,0.1885 0.68662,0.3346 0.2807,0.1459 0.61755,0.3 0.74854,0.3421 0.131,0.042 0.34536,0.1306 0.47635,0.1965 0.131,0.066 0.31473,0.1576 0.4083,0.2038 0.59242,0.2922 0.96055,0.5817 1.55348,1.2217 0.58893,0.6357 1.19398,1.5458 1.40837,2.1184 0.0601,0.1604 0.15093,0.3835 0.20201,0.4958 0.21394,0.4702 0.28967,0.68 0.28967,0.8027 0,0.072 0.0396,0.2339 0.0881,0.3611 0.0485,0.1272 0.10808,0.3537 0.13252,0.5034 0.0244,0.1497 0.0694,0.3679 0.1,0.4848 0.0305,0.117 0.0689,0.3189 0.0852,0.4487 0.0163,0.1299 0.0711,0.3252 0.12172,0.4339 0.0784,0.1683 0.0945,0.2558 0.10832,0.589 0.0111,0.2662 0.0453,0.5055 0.10701,0.7487 0.0847,0.3332 0.0906,0.4051 0.0884,1.0717 -0.003,0.7115 -0.003,0.7158 -0.11058,1.0282 -0.0595,0.1727 -0.10815,0.3396 -0.10815,0.3714 0,0.031 -0.0397,0.1253 -0.0884,0.2083 l -0.0883,0.1506 0.0924,0.2607 c 0.0508,0.1432 0.15049,0.3762 0.22151,0.5175 0.16777,0.3341 0.20307,0.542 0.20307,1.1961 0,0.4518 -0.011,0.5704 -0.068,0.7327 -0.0374,0.1065 -0.068,0.2598 -0.068,0.3408 0,0.081 -0.0246,0.2652 -0.0547,0.4095 -0.03,0.1442 -0.067,0.3771 -0.0822,0.5174 -0.0479,0.444 -0.13607,0.9235 -0.18845,1.0248 -0.0361,0.07 -0.13809,0.1413 -0.35662,0.2501 -0.29882,0.1486 -0.79705,0.4659 -1.13841,0.7249 -0.13363,0.1014 -0.17638,0.1581 -0.19931,0.2641 -0.0704,0.3254 -0.20812,0.5462 -0.58869,0.9439 -0.22323,0.2334 -0.26329,0.2602 -0.49305,0.3301 -0.17323,0.053 -0.29783,0.071 -0.40549,0.058 -0.33712,-0.04 -0.88382,-0.325 -1.18856,-0.6201 -0.24324,-0.2356 -0.42933,-0.3034 -0.83361,-0.3032 -0.20032,0 -0.39622,0.02 -0.47635,0.047 -0.18237,0.063 -0.44352,0.245 -0.83361,0.5811 -0.42926,0.3701 -0.68985,0.5545 -0.97333,0.6887 -0.22622,0.1071 -0.25046,0.1111 -0.68209,0.1142 -0.44536,0 -0.44883,0 -0.71452,0.1319 -0.22719,0.1096 -0.338,0.1384 -0.74334,0.1935 -0.30935,0.042 -0.64334,0.063 -0.95269,0.059 -0.41936,-0.01 -0.50078,0 -0.6805,0.071 -0.26624,0.1 -0.77589,0.1221 -1.15502,0.05 z m 3.19651,-5.5106 c 0.37428,-0.028 0.82723,-0.05 1.00657,-0.05 0.17934,0 0.33761,-0.012 0.35172,-0.025 0.0141,-0.014 0.15062,-0.026 0.30339,-0.027 0.43527,0 1.53962,-0.1168 1.82052,-0.1887 0.3324,-0.085 0.59921,-0.209 0.66381,-0.3085 0.0285,-0.044 0.0764,-0.187 0.10651,-0.318 0.0301,-0.131 0.076,-0.3224 0.10193,-0.4253 0.0401,-0.1592 0.0401,-0.2202 3.8e-4,-0.4083 -0.10141,-0.479 -0.18673,-0.6844 -0.40186,-0.9676 -0.48314,-0.6358 -0.78792,-0.8642 -1.29655,-0.9712 -0.0762,-0.016 -0.30581,-0.092 -0.51022,-0.1677 l -0.37166,-0.1386 -0.75116,-0.01 c -0.62689,-0.01 -0.78776,0 -0.97233,0.052 -0.27421,0.074 -0.98486,0.414 -1.2917,0.6181 -0.26189,0.174 -0.67338,0.5912 -0.75661,0.7669 -0.0309,0.065 -0.0735,0.2793 -0.0947,0.4758 -0.0212,0.1965 -0.0592,0.448 -0.0845,0.5588 -0.0435,0.1909 -0.0406,0.2226 0.0533,0.5955 0.0989,0.3929 0.0997,0.3943 0.29683,0.5809 0.10871,0.103 0.29527,0.2369 0.41458,0.2977 0.25885,0.1321 0.36724,0.1366 1.4117,0.06 z m -18.06722,5.1889 c -0.0561,-0.039 -0.2858,-0.1644 -0.51038,-0.2776 -0.22456,-0.1132 -0.45828,-0.2435 -0.51937,-0.2895 -0.1611,-0.1212 -0.27395,-0.3691 -0.31017,-0.6812 -0.0169,-0.1462 -0.0478,-0.3088 -0.0685,-0.3615 -0.0208,-0.053 -0.0377,-0.254 -0.0377,-0.4472 0,-0.4403 -0.0516,-0.9519 -0.13882,-1.3756 -0.0531,-0.2582 -0.0626,-0.3951 -0.0451,-0.6503 0.0169,-0.2458 0.009,-0.3748 -0.033,-0.5386 -0.0304,-0.1184 -0.0464,-0.2503 -0.0356,-0.2932 0.0107,-0.042 0.002,-0.168 -0.0198,-0.278 -0.0217,-0.1101 -0.0609,-0.4452 -0.0872,-0.7446 -0.0264,-0.2994 -0.07,-0.7664 -0.097,-1.0378 -0.11743,-1.18 -0.12673,-1.3228 -0.10409,-1.5991 0.013,-0.1591 0.0515,-0.3785 0.0853,-0.4875 0.0597,-0.1922 0.0596,-0.204 -0.002,-0.3826 -0.0349,-0.1014 -0.0961,-0.3337 -0.13614,-0.5163 -0.073,-0.3332 -0.0974,-0.504 -0.16616,-1.1655 -0.0204,-0.1965 -0.0525,-0.4891 -0.0711,-0.6503 -0.0187,-0.1612 -0.034,-0.4728 -0.034,-0.6924 0,-0.3935 -0.0792,-0.8196 -0.20921,-1.1255 -0.0301,-0.071 -0.0486,-0.4477 -0.0623,-1.2745 -0.0108,-0.6457 -0.0298,-1.1969 -0.0423,-1.2249 -0.0566,-0.1269 -0.094,-0.8855 -0.0558,-1.1297 0.0574,-0.3669 0.0401,-0.6144 -0.0756,-1.0849 -0.15242,-0.619 -0.16387,-0.9456 -0.0488,-1.3921 0.0847,-0.3289 0.0945,-0.4368 0.12246,-1.36099 0.0168,-0.552 0.0448,-1.1262 0.0625,-1.2759 0.0177,-0.1497 0.0334,-0.5249 0.035,-0.8336 0.003,-0.4972 0.0126,-0.5926 0.0875,-0.8337 0.0465,-0.1498 0.0846,-0.3286 0.0846,-0.3976 0,-0.069 0.0171,-0.1685 0.0379,-0.2212 0.0208,-0.053 0.0498,-0.1876 0.0643,-0.2999 0.0864,-0.6699 0.1173,-0.8396 0.19063,-1.0483 0.0447,-0.1274 0.0814,-0.2672 0.0814,-0.3106 0,-0.043 0.023,-0.1339 0.051,-0.201 0.0281,-0.067 0.051,-0.1597 0.051,-0.2056 0,-0.1647 0.8504,-0.8679 1.36471,-1.1285 0.3829,-0.194 0.77912,-0.2895 1.49338,-0.3598 0.17778,-0.018 0.3998,-0.04 0.49336,-0.05 0.14133,-0.015 0.19029,-0.01 0.28922,0.061 0.14309,0.096 0.27844,0.3335 0.3748,0.6565 0.0391,0.131 0.14553,0.3913 0.23655,0.5784 0.23231,0.4776 0.2774,0.6324 0.29827,1.0243 l 0.0183,0.3437 -0.16964,0.3708 c -0.28772,0.6288 -0.34756,0.8729 -0.41611,1.6978 -0.014,0.1684 -0.0431,0.3494 -0.0647,0.402 -0.0216,0.053 -0.0393,0.2308 -0.0393,0.3957 0,0.2127 -0.0173,0.3382 -0.0596,0.4316 -0.0549,0.1214 -0.0591,0.3007 -0.0543,2.29229 0.003,1.4154 0.0187,2.2546 0.0442,2.4329 0.0771,0.5381 0.0829,0.752 0.0228,0.8378 -0.0697,0.1 -0.0716,0.3493 -0.004,0.5402 0.0281,0.08 0.051,0.2047 0.051,0.278 0,0.073 0.03,0.305 0.0667,0.5147 0.0954,0.5448 0.17234,2.0187 0.14252,2.7289 -0.022,0.5252 0.0198,1.0657 0.11211,1.446 0.0928,0.3825 0.0952,0.418 0.10733,1.5652 0.018,1.7025 0.04,2.3242 0.0861,2.4364 0.117,0.2848 0.15436,0.9938 0.0799,1.5159 -0.0459,0.3224 -0.0498,0.4444 -0.0199,0.631 0.10605,0.6606 0.12241,1.0956 0.0726,1.9324 -0.0223,0.3743 -0.0454,0.8566 -0.0515,1.0718 -0.0118,0.4138 -0.0465,0.6486 -0.11404,0.7734 -0.0226,0.042 -0.12878,0.1358 -0.23594,0.2091 -0.10715,0.073 -0.24076,0.1822 -0.2969,0.2421 -0.0561,0.06 -0.17172,0.1443 -0.25683,0.1877 -0.0851,0.043 -0.28391,0.1748 -0.44177,0.2918 -0.41441,0.3073 -0.57917,0.3847 -0.84658,0.3979 -0.18444,0.01 -0.24218,0 -0.32619,-0.06 z m 7.32593,-0.9686 c -0.22886,-0.063 -0.36869,-0.1599 -0.58222,-0.4031 -0.2388,-0.272 -0.41316,-0.3924 -0.62292,-0.43 -0.7393,-0.1327 -0.90894,-0.3314 -1.03484,-1.2124 -0.0373,-0.2603 -0.10063,-0.5806 -0.14094,-0.7116 -0.072,-0.2339 -0.0815,-0.3337 -0.16007,-1.6842 -0.0243,-0.4185 -0.0381,-0.4879 -0.15497,-0.7813 -0.21308,-0.535 -0.26791,-0.9268 -0.18644,-1.3325 0.0328,-0.1636 0.0262,-0.2344 -0.0558,-0.5926 -0.078,-0.3412 -0.0938,-0.492 -0.0975,-0.9343 -0.003,-0.29 -0.0194,-0.5503 -0.0378,-0.5784 -0.0196,-0.03 -0.0335,-0.3907 -0.0337,-0.8676 -3.4e-4,-0.7556 -0.006,-0.8331 -0.0761,-1.0378 -0.0952,-0.2775 -0.0974,-0.5424 -0.007,-0.8027 0.0781,-0.2243 0.076,-0.281 -0.0314,-0.8645 -0.11318,-0.6144 -0.12659,-0.8823 -0.057,-1.1393 0.0454,-0.168 0.0547,-0.2904 0.0393,-0.5185 -0.0657,-0.9702 -0.0657,-0.961 -0.003,-1.1015 0.0564,-0.1251 0.0579,-0.1918 0.0218,-0.9587 -0.0213,-0.4534 -0.0521,-0.9315 -0.0681,-1.0625 -0.0438,-0.3564 0.0159,-1.1258 0.11961,-1.5398 0.0656,-0.262 0.081,-0.3849 0.0616,-0.4934 -0.0142,-0.079 -0.0294,-0.3588 -0.0339,-0.62077 -0.007,-0.383 -0.0296,-0.57972 -0.11797,-1.00372 -0.14262,-0.6846 -0.17019,-1.2024 -0.0868,-1.6315 0.0459,-0.2366 0.0539,-0.3776 0.0345,-0.6058 -0.0492,-0.5757 -0.025,-1.0828 0.077,-1.6145 0.0302,-0.1575 0.005,-1.1124 -0.0444,-1.7028 -0.0234,-0.2782 -0.0191,-0.311 0.0663,-0.5013 0.12944,-0.2885 0.18964,-0.6028 0.15299,-0.799 -0.0163,-0.087 -0.037,-0.1708 -0.0459,-0.1852 -0.009,-0.014 -0.002,-0.3312 0.0166,-0.7037 0.0315,-0.6484 0.0985,-1.0785 0.19681,-1.2622 0.0203,-0.038 0.0922,-0.265 0.15966,-0.5046 0.15004,-0.5324 0.28002,-0.8016 0.4317,-0.8941 0.13293,-0.081 0.49337,-0.1772 0.66439,-0.1772 0.0669,0 0.32981,-0.072 0.58418,-0.1589 0.41225,-0.1418 0.49578,-0.1592 0.76873,-0.1611 0.37455,0 0.85147,0.064 0.95669,0.1324 0.10067,0.066 0.23838,0.3025 0.33234,0.5707 0.0409,0.1168 0.13961,0.3082 0.21932,0.4254 0.0797,0.1172 0.28155,0.4904 0.44856,0.8294 l 0.30364,0.6165 0.0159,0.9058 c 0.0353,2.0041 0.0996,3.003 0.22293,3.4648 0.0161,0.06 0.0208,0.2306 0.0107,0.3791 -0.0129,0.1873 -0.004,0.3049 0.0278,0.3842 0.061,0.1505 0.11504,2.0124 0.10063,3.4658 -0.006,0.63942 0.0514,1.21129 0.16684,1.65199 0.11123,0.4246 0.11887,0.6089 0.0389,0.9386 -0.0798,0.3291 -0.0909,0.7835 -0.0379,1.5434 0.0208,0.2978 0.0187,0.5481 -0.007,0.7656 -0.0206,0.1778 -0.0396,0.6295 -0.0424,1.0037 -0.003,0.451 -0.0239,0.7954 -0.0613,1.0208 -0.0471,0.285 -0.0565,0.6301 -0.0578,2.1265 -0.002,1.6497 0.003,1.8131 0.0664,2.1364 0.10522,0.5418 0.0938,0.73 -0.0673,1.1069 -0.29149,0.6822 -0.35661,1.2509 -0.31241,2.7281 0.0162,0.5427 0.0298,1.0556 0.0301,1.1398 0.002,0.4915 0.12894,0.9199 0.43207,1.4567 0.34768,0.6157 0.40166,0.7592 0.42037,1.1168 l 0.0168,0.3205 -0.13826,0.1276 c -0.10195,0.094 -0.1888,0.1382 -0.33066,0.168 -0.11636,0.025 -0.25696,0.087 -0.35572,0.1577 -0.29644,0.213 -0.36232,0.2355 -0.61639,0.2105 -0.31099,-0.031 -0.40991,0.017 -0.69706,0.3372 -0.23954,0.267 -0.42543,0.3946 -0.56639,0.3892 -0.0429,0 -0.14971,-0.023 -0.23746,-0.047 z m -102.781795,-4.4314 c -0.23942,-0.2615 -0.27318,-0.3218 -0.27318,-0.4875 0,-0.2682 -0.20268,-0.3689 -0.79958,-0.3975 -0.30973,-0.014 -0.39774,-0.01 -0.51038,0.042 -0.0749,0.033 -0.26969,0.071 -0.43298,0.083 -0.33798,0.027 -0.45371,0.091 -0.41828,0.2324 0.0111,0.044 6.2e-4,0.1347 -0.0233,0.201 l -0.0436,0.1204 -0.17038,-0.021 c -0.0937,-0.012 -0.24508,-0.034 -0.33637,-0.05 -0.0999,-0.017 -0.21857,-0.015 -0.29791,0.01 -0.15186,0.038 -1.11312,-0.046 -1.50955,-0.1333 -0.52781,-0.1158 -1.2581,-0.5959 -2.63852,-1.7344 -1.12897,-0.9313 -1.33241,-1.278 -2.04157,-3.4799 -0.23441,-0.7279 -0.32316,-0.9516 -0.56168,-1.416 -0.26968,-0.5252 -0.35818,-0.7668 -0.5958,-1.6264 -0.039,-0.1413 -0.22716,-0.5336 -0.50047,-1.0438 -0.42796,-0.7988 -0.68142,-1.7123 -0.79092,-2.8505 -0.034,-0.354 -0.0327,-0.4344 0.009,-0.5273 0.089,-0.1976 0.0307,-2.64799 -0.0723,-3.04089 -0.0203,-0.077 -0.0334,-0.3245 -0.0291,-0.5487 l 0.008,-0.4076 0.0811,0.031 c 0.10882,0.041 0.20322,0.01 0.33499,-0.1169 0.12061,-0.1145 0.18787,-0.2919 0.24688,-0.6513 0.0493,-0.2999 0.0722,-0.3438 0.27683,-0.5299 0.14337,-0.1303 0.17251,-0.1783 0.19596,-0.3233 0.0262,-0.1619 0.0818,-0.3051 0.19167,-0.4934 0.0701,-0.1201 0.0703,-1.2922 3.4e-4,-1.5821 -0.0653,-0.2706 -0.0663,-1.1258 -0.002,-1.5544 0.11859,-0.7867 0.32631,-1.4326 0.95544,-2.9709 0.26787,-0.655 0.59647,-1.4817 0.73024,-1.8373 0.13376,-0.3555 0.3095,-0.769 0.39053,-0.9187 0.0811,-0.1497 0.28029,-0.5707 0.44278,-0.9356 0.3924,-0.8813 0.62366,-1.3214 0.86716,-1.6503 0.11084,-0.1497 0.25749,-0.3793 0.3259,-0.5103 0.33495,-0.6415 0.75579,-1.251 1.0626,-1.5391 0.10427,-0.098 0.19536,-0.1721 0.20244,-0.1651 0.007,0.01 -0.0281,0.091 -0.0781,0.1868 -0.0863,0.1651 -0.0881,0.1782 -0.0354,0.2587 0.0812,0.1239 0.14184,0.1048 0.24465,-0.076 0.31684,-0.5598 0.52403,-0.8063 0.79143,-0.9418 0.43047,-0.2182 0.6753,-0.4245 0.70642,-0.5953 0.0122,-0.067 0.0872,-0.2518 0.16661,-0.4108 0.27482,-0.5502 0.2677,-0.6892 -0.053,-1.0359 -0.25086,-0.2712 -0.30504,-0.3548 -0.30504,-0.471 0,-0.2037 0.15692,-0.3305 0.40923,-0.3305 0.20833,0 0.33945,0.1406 0.33895,0.3632 -3.4e-4,0.09 -0.0227,0.2378 -0.05,0.3278 -0.0437,0.1441 -0.0435,0.1787 0.002,0.2912 0.0811,0.2025 0.0468,1.1551 -0.0551,1.5357 -0.0897,0.3349 -0.0745,0.5083 0.0551,0.6284 l 0.0828,0.077 -0.0556,0.5264 c -0.0525,0.4963 -0.0522,0.5416 0.004,0.7957 0.0507,0.2283 0.0778,0.2851 0.17763,0.3716 0.0647,0.056 0.2122,0.1939 0.32762,0.3062 0.11541,0.1123 0.26269,0.2348 0.32729,0.2722 0.0646,0.037 0.14879,0.087 0.18713,0.1101 0.11694,0.071 0.26075,0.048 0.56306,-0.09 0.15907,-0.072 0.3007,-0.1249 0.31473,-0.1164 0.014,0.01 0.0255,0.1574 0.0255,0.3306 0,0.365 -0.053,0.5737 -0.23883,0.9399 -0.0712,0.1403 -0.15606,0.3415 -0.18855,0.4472 -0.0585,0.19 -0.0584,0.1931 0.0176,0.3159 0.0555,0.09 0.0839,0.2059 0.10285,0.4205 0.03,0.3392 0.0509,0.4013 0.24423,0.7268 0.17547,0.2953 0.42226,0.5734 0.50895,0.5734 0.0795,0 0.37037,-0.2934 0.52287,-0.5274 0.061,-0.094 0.13828,-0.2571 0.1718,-0.3634 0.0477,-0.1514 0.0789,-0.1979 0.14376,-0.2141 0.11078,-0.028 0.1784,0.035 0.1784,0.1658 0,0.1172 -0.0536,0.2123 -0.22256,0.3947 -0.12977,0.1401 -0.44589,0.8079 -0.47519,1.0037 -0.0153,0.1026 -0.003,0.1654 0.0495,0.2552 0.0385,0.066 0.12854,0.2415 0.20029,0.3912 0.14755,0.308 0.28955,0.4934 0.37767,0.4934 0.0328,0 0.0865,0.03 0.1193,0.065 0.0517,0.057 0.0904,0.063 0.29369,0.046 0.25043,-0.021 0.2419,-0.026 0.28457,0.1688 0.0283,0.1294 0.12852,0.1221 0.37847,-0.027 0.20952,-0.1253 0.65168,-0.5469 0.72959,-0.6958 0.0245,-0.047 0.10887,-0.1616 0.18751,-0.2552 0.0787,-0.094 0.28389,-0.3815 0.45613,-0.6401 0.17222,-0.2585 0.36375,-0.5265 0.4256,-0.5954 0.11639,-0.1298 0.39378,-0.6249 0.39378,-0.7029 0,-0.025 0.0229,-0.088 0.0509,-0.1417 0.028,-0.054 0.0511,-0.174 0.0515,-0.2676 3.4e-4,-0.094 0.0396,-0.2922 0.0873,-0.4414 0.0853,-0.2671 0.0863,-0.283 0.0648,-1.0038 -0.03,-1.0061 -0.0616,-1.0941 -0.50354,-1.4056 -0.36562,-0.2577 -0.43473,-0.5038 -0.28474,-1.0141 0.0688,-0.2341 0.0953,-0.2761 0.28355,-0.4504 0.24848,-0.2301 0.31577,-0.3718 0.47311,-0.9965 0.18956,-0.7526 0.31947,-0.928 0.68909,-0.9305 0.23872,0 0.35936,0.065 0.4279,0.2363 0.0686,0.1713 0.0692,0.3564 0.003,0.6641 -0.14067,0.6481 -0.14208,0.6327 0.10739,1.1775 0.18012,0.3934 0.19395,0.5719 0.0659,0.8515 -0.16708,0.3649 -0.29058,1.099 -0.29058,1.7273 0,0.3991 0.0306,0.4798 0.1817,0.4798 0.0645,0 0.15416,-0.031 0.20335,-0.069 0.0484,-0.038 0.23284,-0.2889 0.40988,-0.5575 0.17704,-0.2686 0.34147,-0.5004 0.36541,-0.5152 0.0239,-0.014 0.10843,-0.024 0.18777,-0.02 0.20023,0.01 0.35481,-0.064 0.49788,-0.2382 0.1587,-0.1937 0.17737,-0.2815 0.11277,-0.5309 -0.11087,-0.4277 -0.0464,-0.5873 0.2374,-0.5873 0.11883,0 0.17399,0.02 0.23817,0.083 0.11703,0.1169 0.11639,0.3845 -0.002,0.6167 -0.0624,0.1227 -0.0938,0.2595 -0.11792,0.5129 -0.0181,0.19 -0.0483,0.4427 -0.0671,0.5614 -0.1162,0.7341 -0.10727,1.0929 0.0354,1.4246 0.0805,0.1869 0.38502,0.4971 0.59337,0.6042 0.16722,0.086 0.29101,0.2171 0.39242,0.4157 0.0671,0.1314 0.0781,0.2038 0.0774,0.5104 -4.4e-4,0.1965 -0.0258,0.5104 -0.0564,0.6975 -0.0305,0.1872 -0.0659,0.4662 -0.0785,0.6201 l -0.0229,0.2799 0.13242,0.1305 c 0.0862,0.085 0.25104,0.1819 0.47267,0.2777 0.18713,0.081 0.40609,0.191 0.48656,0.2445 0.0805,0.054 0.15766,0.097 0.17154,0.097 0.047,0 0.30363,-0.2882 0.40679,-0.4567 0.13384,-0.2185 1.10325,-1.1276 1.45295,-1.3625 0.14971,-0.1005 0.35432,-0.2151 0.4547,-0.2547 0.10038,-0.039 0.24584,-0.115 0.32323,-0.1679 0.0774,-0.053 0.32447,-0.2003 0.54904,-0.3277 0.78394,-0.4447 0.98432,-0.6252 1.56716,-1.4114 0.38873,-0.5244 0.89394,-1.1443 1.06353,-1.305 0.0564,-0.054 0.14889,-0.1914 0.20558,-0.3066 0.13256,-0.2693 0.20275,-0.3329 0.73634,-0.6675 0.61186,-0.3837 0.68047,-0.4598 0.95068,-1.0536 0.37165,-0.8168 0.6148,-1.2099 1.1582,-1.8727 0.12997,-0.1585 0.17902,-0.2663 0.3248,-0.7138 0.0944,-0.29 0.23283,-0.6386 0.30755,-0.7747 0.12477,-0.2273 0.13855,-0.2787 0.16921,-0.6301 0.0607,-0.6963 0.0993,-1.0276 0.13386,-1.1494 0.063,-0.2219 0.22428,-0.4325 0.39908,-0.5209 0.22092,-0.1117 0.80671,-0.2264 1.15608,-0.2264 0.61829,0 0.72563,0.1766 0.83033,1.3662 0.0401,0.4548 0.0393,0.467 -0.0339,0.5854 -0.13817,0.2236 -0.40853,0.4019 -0.67021,0.4419 -0.3474,0.054 -0.59822,0.1606 -0.7825,0.3349 -0.10637,0.1007 -0.19663,0.2217 -0.21977,0.2948 -0.0663,0.2096 -0.185,0.3866 -0.47194,0.704 -0.27611,0.3055 -0.4104,0.5517 -0.4104,0.7522 0,0.1295 -0.29915,0.7262 -0.56886,1.1347 -0.24832,0.376 -0.44291,0.6235 -0.84289,1.0718 -0.16626,0.1863 -0.33699,0.4386 -0.54123,0.7996 -0.16408,0.29 -0.36668,0.6163 -0.45021,0.725 -0.17745,0.2311 -0.3608,0.6321 -0.53967,1.1803 -0.10929,0.335 -0.12985,0.4476 -0.1429,0.7826 -0.0111,0.2869 -0.002,0.4366 0.0358,0.5614 0.0281,0.094 0.12892,0.4611 0.22405,0.8166 0.0951,0.3556 0.24277,0.8531 0.32811,1.1058 0.15605,0.462 0.17585,0.4965 0.54547,0.9527 0.1896,0.234 0.2774,0.4561 0.32035,0.8108 0.0669,0.553 -0.031,1.0325 -0.32785,1.6047 -0.18139,0.3496 -0.26235,0.6988 -0.24454,1.055 0.0111,0.2211 0.0276,0.2766 0.12339,0.4156 0.45617,0.6613 0.52604,1.5234 0.26194,3.2322 l -0.12994,0.8407 0.21733,0.4523 c 0.19955,0.4153 0.21832,0.4738 0.22948,0.71512 0.0105,0.2277 -0.003,0.3026 -0.0955,0.56137 -0.0592,0.1643 -0.22157,0.5159 -0.36075,0.7813 -0.22336,0.4259 -0.34343,0.7255 -0.5966,1.4889 -0.0399,0.1201 -0.0807,0.3822 -0.10086,0.6463 -0.0186,0.2443 -0.0491,0.5196 -0.0678,0.6114 -0.0513,0.2523 -0.19258,0.483 -0.37678,0.6154 -0.20849,0.1498 -0.45948,0.5069 -0.71757,1.0209 -0.67068,1.336 -1.89592,3.0478 -3.02074,4.2205 -0.23407,0.244 -0.55106,0.6044 -0.70444,0.8008 -0.3371,0.4316 -1.24903,1.3342 -1.76263,1.7445 -0.81928,0.6547 -1.82784,1.2635 -2.73901,1.6538 -0.14035,0.06 -0.615,0.2828 -1.05477,0.4951 -0.88817,0.4288 -1.44017,0.64 -2.07552,0.7945 -0.70979,0.1727 -1.05943,0.2113 -2.07551,0.2294 l -0.93569,0.016 -0.11812,-0.129 z m 184.634505,-0.3746 c -0.0745,-0.051 -0.19674,-0.1236 -0.27159,-0.1616 -0.2207,-0.1121 -0.42646,-0.4957 -0.56407,-1.0514 -0.0608,-0.2457 -0.16272,-0.5999 -0.2264,-0.787 -0.14514,-0.4266 -0.17625,-0.7659 -0.10023,-1.0935 0.0298,-0.1284 0.0792,-0.4402 0.1097,-0.6929 0.0554,-0.4583 0.0986,-0.6161 0.47503,-1.7352 0.0661,-0.1965 0.18218,-0.4899 0.25798,-0.652 0.0911,-0.1949 0.14952,-0.3793 0.17235,-0.5441 0.0517,-0.3733 0.0857,-0.4124 0.56008,-0.6455 0.22673,-0.1114 0.47449,-0.2558 0.55056,-0.321 0.22993,-0.1968 0.5055,-0.2785 1.08351,-0.3212 0.27805,-0.02 0.59198,-0.06 0.6976,-0.087 0.30052,-0.077 0.34269,-0.068 0.51201,0.113 0.0836,0.089 0.17647,0.2004 0.20642,0.2467 0.0632,0.098 0.16131,0.5852 0.16131,0.8013 0,0.082 0.0322,0.229 0.0715,0.328 0.0684,0.1721 0.0705,0.2172 0.0489,1.0475 -0.026,0.9995 -0.0253,0.9959 -0.35799,1.8033 -0.12722,0.3088 -0.25028,0.6226 -0.27348,0.6975 -0.0232,0.075 -0.0538,0.1514 -0.0681,0.1701 -0.0143,0.019 -0.12808,0.2714 -0.25292,0.5614 -0.28777,0.6686 -0.45132,0.9462 -0.72587,1.2317 -0.14326,0.1491 -0.22706,0.2669 -0.24191,0.3403 -0.0233,0.1151 -0.0224,0.1144 -0.40238,0.2966 -0.0791,0.038 -0.24751,0.144 -0.37427,0.2357 -0.34624,0.2505 -0.48612,0.3115 -0.71459,0.3115 -0.15908,0 -0.22402,-0.018 -0.3331,-0.092 z M 38.572265,986.54881 c -0.14803,-0.018 -0.16925,-0.051 -0.16989,-0.2653 -6.1e-4,-0.2065 0.11394,-0.4557 0.23764,-0.517 0.11543,-0.057 0.42447,-0.054 0.53947,0.01 0.18019,0.093 0.22461,0.3334 0.10501,0.5679 -0.1068,0.2094 -0.28243,0.2609 -0.71223,0.209 z m -0.35756,-1.9195 c -0.0374,-0.02 -0.0872,-0.061 -0.11058,-0.091 -0.0526,-0.065 -0.0559,-0.4342 -0.005,-0.5796 l 0.0373,-0.1072 h 0.31991 c 0.42791,0 0.45601,0.026 0.45601,0.4229 0,0.3722 -0.0204,0.394 -0.3682,0.3927 -0.14369,-6e-4 -0.29188,-0.018 -0.32931,-0.038 z m 6.37116,-2.6514 c -0.0487,-0.028 -0.0595,-0.083 -0.0595,-0.3001 0,-0.3257 0.0455,-0.4663 0.17214,-0.5318 0.18931,-0.098 0.53515,-0.037 0.58931,0.1046 0.0117,0.031 0.0211,0.1419 0.021,0.248 0,0.2364 -0.0879,0.3974 -0.25472,0.467 -0.13511,0.056 -0.38123,0.063 -0.46819,0.012 z m -8.46369,-0.7706 c -0.25305,-0.014 -0.30622,-0.056 -0.30622,-0.2472 0,-0.1345 0.22344,-0.5186 0.32414,-0.5572 0.085,-0.032 0.25102,-0.025 0.32457,0.014 0.0572,0.031 0.0658,0.073 0.0658,0.3254 0,0.1597 -0.0176,0.3237 -0.0391,0.3646 -0.0395,0.075 -0.0997,0.1294 -0.13101,0.1182 -0.009,0 -0.11653,-0.011 -0.23817,-0.018 z m 12.99715,-0.4261 c -0.10489,-0.172 -0.0894,-0.4358 0.051,-0.8702 0.11144,-0.3447 0.12681,-0.3718 0.25131,-0.4418 0.15416,-0.087 0.31788,-0.097 0.37893,-0.023 0.0332,0.04 0.0344,0.095 0.005,0.2467 -0.0205,0.1074 -0.0467,0.3478 -0.0582,0.5343 -0.0318,0.5163 -0.12446,0.6647 -0.41508,0.6647 -0.12825,0 -0.15426,-0.014 -0.21346,-0.1106 z m -3.89755,-1.2998 c -0.0455,-0.07 -0.0506,-0.14 -0.0307,-0.4216 0.0206,-0.2907 0.0155,-0.3525 -0.0362,-0.4401 -0.0332,-0.056 -0.0508,-0.1267 -0.0392,-0.1568 0.0261,-0.068 0.15417,-0.07 0.24234,0 0.0385,0.029 0.14008,0.05 0.24304,0.05 0.20284,0 0.2183,0.02 0.2183,0.2733 0,0.2256 -0.0589,0.4768 -0.13266,0.5661 -0.0779,0.094 -0.2751,0.215 -0.35141,0.2152 -0.0323,0 -0.0834,-0.037 -0.11342,-0.083 z m 7.9613,-0.3813 c -0.0131,-0.087 -0.0149,-0.284 -0.004,-0.4374 0.0163,-0.2311 0.0382,-0.3104 0.12765,-0.4624 0.13926,-0.2368 0.19229,-0.2721 0.30282,-0.2022 0.0677,0.043 0.0526,0.8421 -0.0192,1.0218 -0.0516,0.1288 -0.19616,0.2387 -0.31413,0.2387 -0.0563,0 -0.0737,-0.03 -0.093,-0.1585 z m 0.7115,-4.7813 c -0.10871,-0.053 -0.26163,-0.4145 -0.24004,-0.5681 0.047,-0.3346 0.29591,-0.7527 0.44809,-0.7527 0.0991,0 0.25432,0.1005 0.30419,0.197 0.0591,0.1144 0.1231,0.4466 0.12208,0.6344 -8.5e-4,0.1704 -0.1012,0.3998 -0.20729,0.4741 -0.0884,0.062 -0.314,0.07 -0.42703,0.015 z m -2.23153,-1.3235 c -0.047,-0.027 -0.0595,-0.081 -0.0595,-0.2542 0,-0.2696 0.0651,-0.3555 0.26942,-0.3555 0.2319,0 0.24096,0.011 0.24096,0.3031 0,0.1582 -0.0162,0.2779 -0.0408,0.3025 -0.0495,0.049 -0.32731,0.052 -0.41001,0.01 z"
       style="fill:#ffffff;stroke-width:0.03402489" />
  </g>
</svg>
