<?xml version="1.0" encoding="UTF-8"?>
<svg version="1.1" viewBox="0 0 250 91" xmlns="http://www.w3.org/2000/svg" xmlns:cc="http://creativecommons.org/ns#" xmlns:dc="http://purl.org/dc/elements/1.1/" xmlns:rdf="http://www.w3.org/1999/02/22-rdf-syntax-ns#">
<defs>
<clipPath id="a">
<path d="m0 1280h1280v-1280h-1280z"/>
</clipPath>
</defs>
<metadata>
<rdf:RDF>
<cc:Work rdf:about="">
<dc:format>image/svg+xml</dc:format>
<dc:type rdf:resource="http://purl.org/dc/dcmitype/StillImage"/>
<dc:title/>
</cc:Work>
</rdf:RDF>
</metadata>
<g transform="translate(0,-961.4)">
<circle cx="71.594" cy="996.69" r="0" fill="#666"/>
<circle cx="38.023" cy="1055.8" r="0" fill="#414141"/>
<path d="m32.111 996.71 180.68-0.0631-9.5817 45.215-24.821-6.6071 34.403-38.608-48.153 35.037-33.214-8.75 81.367-26.287-99.76 21.287z" fill="#fff"/>
<g transform="matrix(.39886 0 0 -.39886 38.712 971.9)" fill="#fff">
<path d="m0 0h16.347l10.727-37.051h0.148l7.727 37.051h12.75l-11.551-53.477h-16.347l-10.954 36.977h-0.148l-7.648-36.977h-12.75z" fill="#fff"/>
</g>
<g transform="matrix(.39886 0 0 -.39886 -130.08 1262.3)" fill="#fff">
<g clip-path="url(#a)" fill="#fff">
<g transform="translate(497.88 696.95)">
<path d="m0 0c0 4.051-1.574 7.5-6.375 7.5-5.625 0-8.699-3.824-9.676-7.5zm3.375-21.222c-4.574-1.352-9.449-2.102-13.199-2.102-12.602 0-19.352 7.727-19.352 17.25 0.074 8.773 5.926 22.273 22.727 22.273 9.898 0 17.324-5.023 17.324-16.421 0-1.5-0.449-4.875-0.977-7.125h-26.699c0.153-4.051 2.102-7.278 10.125-7.278 3.449 0 8.176 0.903 11.852 2.625z" fill="#fff"/>
</g>
<g transform="translate(513.55 712.25)">
<path d="m0 0h5.926l2.699 11.773h12.972l-2.699-11.773h10.5l-1.648-9.148h-11.028l-2.324-10.5c-0.597-2.852-1.125-4.727-1.125-6.528 0-2.551 3.153-3.972 5.778-3.972 1.347 0 2.847 0.597 4.199 1.046l-1.5-8.847c-2.778-0.449-5.477-0.75-8.102-0.75-6.676 0-13.426 3.222-13.426 11.176 0 1.875 0.301 3.75 1.204 7.722l2.324 10.574h-5.403z" fill="#fff"/>
</g>
<g transform="translate(593.8 674.52)">
<path d="m0 0h-15.153l-0.375 27.301h-0.148l-13.125-27.301h-15.227l-3.375 37.727h12.977l0.227-27.301h0.148l12.523 27.301h15.829l0.148-27.301h0.148l12.227 27.301h13.199z" fill="#fff"/>
</g>
<g transform="translate(635.12 704)">
<path d="m0 0c-6.301 0-10.273-6.824-10.273-12.824 0-5.102 2.625-8.477 7.046-8.403 6.079 0 9.977 5.102 9.977 13.653 0 3.898-1.727 7.574-6.75 7.574m-4.199-30.375c-13.949 0-19.574 7.727-19.574 17.25 0.074 13.273 9.671 22.273 24.449 22.273 12.824 0 19.574-7.421 19.5-16.875 0-15.75-10.278-22.648-24.375-22.648" fill="#fff"/>
</g>
<g transform="translate(676.45 712.25)">
<path d="m0 0-1.5-7.727h0.152c2.098 4.426 6.375 8.625 11.7 8.625 1.722 0 3.75-0.222 5.472-0.972l-3-11.551c-1.648 1.273-3.523 1.574-6 1.574-5.472 0-8.773-4.801-9.75-10.347l-3.75-17.403h-13.047l6 27.903c0.672 3.222 1.274 6.449 1.649 9.824h12.074z" fill="#fff"/>
</g>
<g transform="translate(701.35 728)">
<path d="m0 0h13.199l-6.902-31.574h0.152l12.524 15.824h14.851l-15.676-18.148 9.75-19.579h-14.476l-7.649 18.676h-0.148l-4.051-18.676h-13.277z" fill="#fff"/>
</g>
<g transform="translate(755.2 705.8)">
<path d="m0 0h5.625c6.227 0 11.027 1.5 11.102 6.597 0 3.829-2.25 5.477-6.602 5.551h-7.574zm-8.473 22.199h16.274c10.199-0.074 22.426-0.375 22.351-13.648-0.078-9.079-6.601-14.25-14.777-15.227v-0.148c4.199-0.375 5.551-6.079 6.301-9.528l3.75-14.926h-13.426l-2.699 13.653c-1.352 6.972-3.524 7.5-9.899 7.5h-1.5l-4.425-21.153h-13.5z" fill="#fff"/>
</g>
<g transform="translate(801.48 682.32)">
<path d="m0 0c5.547 0 8.922 3.824 9.898 8.926-1.125 0.227-2.699 0.227-3.449 0.227-6.226 0.222-10.801-2.028-10.801-5.329 0-1.796 1.649-3.824 4.352-3.824m8.699-2.551-0.152 0.153v-0.153c-2.774-4.347-7.649-6.148-12.75-6.148-8.098 0-12.598 3.602-12.524 10.949 0.075 9.301 9.375 13.801 20.852 13.801 2.625 0 5.25-0.227 7.047-0.375 0.152 0.523 0.152 1.051 0.152 1.5 0 2.699-2.625 4.875-6.902 4.875-4.723 0-7.875-0.75-12.223-3l1.348 9.523c3.828 1.278 7.953 2.176 13.875 2.176 9 0 16.351-3.523 16.277-12.824 0-5.926-3.375-14.398-4.875-25.801h-10.652z" fill="#fff"/>
</g>
<g transform="translate(838.6 728)">
<path d="m0 0h13.199l-2.101-9.602h-13.2zm-3.375-15.75h13.199l-8.027-37.727h-13.199z" fill="#fff"/>
</g>
<g transform="translate(859.82 728)">
<path d="m0 0h13.199l-11.398-53.477h-13.199z" fill="#fff"/>
</g>
</g>
</g>
</g>
</svg>
