<?xml version="1.0" encoding="UTF-8" standalone="no"?>
<svg
   xmlns:dc="http://purl.org/dc/elements/1.1/"
   xmlns:cc="http://creativecommons.org/ns#"
   xmlns:rdf="http://www.w3.org/1999/02/22-rdf-syntax-ns#"
   xmlns:svg="http://www.w3.org/2000/svg"
   xmlns="http://www.w3.org/2000/svg"
   version="1.1"
   id="svg2"
   viewBox="0 0 250 91"
   height="91"
   width="250">
  <defs
     id="defs4">
    <clipPath
       clipPathUnits="userSpaceOnUse"
       id="clipPath18">
      <path
         d="m 859.535,665.824 h 0.051 v -0.003 l 0.016,0.003 h -0.016 l 0.016,0.074 z m 0.05,-0.005 10e-4,0.002 -0.066,-0.014 -0.012,-0.013 -203.309,-66.044 82.426,-21.75 120.785,87.685 -86.961,-96.537 63,-16.648 24.134,113.311 0.019,0.013 z M 406,665.824 l 202.352,-53.398 251.168,53.381 0.015,0.017 z"
         id="path16" />
    </clipPath>
    <clipPath
       clipPathUnits="userSpaceOnUse"
       id="clipPath36">
      <path
         d="M 0,1280.01 H 1280.01 V 0 H 0 Z"
         id="path34" />
    </clipPath>
  </defs>
  <metadata
     id="metadata7">
    <rdf:RDF>
      <cc:Work
         rdf:about="">
        <dc:format>image/svg+xml</dc:format>
        <dc:type
           rdf:resource="http://purl.org/dc/dcmitype/StillImage" />
        <dc:title></dc:title>
      </cc:Work>
    </rdf:RDF>
  </metadata>
  <g
     transform="translate(0,-961.4)"
     id="layer1">
    <rect
       y="961.4"
       x="0"
       height="91"
       width="250"
       id="rect4298"
       style="opacity:0.001;fill:#d02626;fill-opacity:1;stroke:none;stroke-width:2.5;stroke-linecap:round;stroke-linejoin:round;stroke-miterlimit:4;stroke-dasharray:none;stroke-dashoffset:0;stroke-opacity:1" />
    <circle
       cy="996.69"
       cx="71.594"
       id="ellipse4185"
       style="opacity:1;fill:#666666;fill-opacity:1;stroke:none;stroke-width:2.5;stroke-linecap:round;stroke-linejoin:round;stroke-miterlimit:4;stroke-dasharray:none;stroke-dashoffset:0;stroke-opacity:1"
       r="0" />
    <circle
       cy="1055.8"
       cx="38.023"
       id="ellipse4185-5"
       style="opacity:1;fill:#414141;fill-opacity:1;stroke:none;stroke-width:2.5;stroke-linecap:round;stroke-linejoin:round;stroke-miterlimit:4;stroke-dasharray:none;stroke-dashoffset:0;stroke-opacity:1"
       r="0" />
    <path
       id="path4661"
       d="m 32.110989,996.71226 180.684901,-0.0631 -9.58171,45.21517 -24.82141,-6.6071 34.40312,-38.60807 -48.15312,35.03657 -33.21427,-8.75 81.36738,-26.28657 -99.76022,21.28657 z"
       style="fill:#ffffff;stroke:none;stroke-width:1px;stroke-linecap:butt;stroke-linejoin:miter;stroke-opacity:1" />
    <g
       style="fill:#ffffff"
       transform="matrix(0.3988604,0,0,-0.3988604,38.712219,971.90003)"
       id="g26">
      <path
         id="path28"
         style="fill:#ffffff;fill-opacity:1;fill-rule:nonzero;stroke:none"
         d="m 0,0 h 16.347 l 10.727,-37.051 h 0.148 L 34.949,0 h 12.75 L 36.148,-53.477 H 19.801 L 8.847,-16.5 H 8.699 L 1.051,-53.477 h -12.75 z" />
    </g>
    <g
       transform="matrix(0.3988604,0,0,-0.3988604,-130.07585,1262.2704)"
       style="fill:#ffffff"
       id="g30">
      <g
         style="fill:#ffffff"
         clip-path="url(#clipPath36)"
         id="g32">
        <g
           style="fill:#ffffff"
           transform="translate(497.875,696.9492)"
           id="g38">
          <path
             id="path40"
             style="fill:#ffffff;fill-opacity:1;fill-rule:nonzero;stroke:none"
             d="M 0,0 C 0,4.051 -1.574,7.5 -6.375,7.5 -12,7.5 -15.074,3.676 -16.051,0 Z m 3.375,-21.222 c -4.574,-1.352 -9.449,-2.102 -13.199,-2.102 -12.602,0 -19.352,7.727 -19.352,17.25 0.074,8.773 5.926,22.273 22.727,22.273 9.898,0 17.324,-5.023 17.324,-16.421 0,-1.5 -0.449,-4.875 -0.977,-7.125 h -26.699 c 0.153,-4.051 2.102,-7.278 10.125,-7.278 3.449,0 8.176,0.903 11.852,2.625 z" />
        </g>
        <g
           style="fill:#ffffff"
           transform="translate(513.5508,712.25)"
           id="g42">
          <path
             id="path44"
             style="fill:#ffffff;fill-opacity:1;fill-rule:nonzero;stroke:none"
             d="M 0,0 H 5.926 L 8.625,11.773 H 21.597 L 18.898,0 h 10.5 L 27.75,-9.148 H 16.722 l -2.324,-10.5 c -0.597,-2.852 -1.125,-4.727 -1.125,-6.528 0,-2.551 3.153,-3.972 5.778,-3.972 1.347,0 2.847,0.597 4.199,1.046 l -1.5,-8.847 c -2.778,-0.449 -5.477,-0.75 -8.102,-0.75 -6.676,0 -13.426,3.222 -13.426,11.176 0,1.875 0.301,3.75 1.204,7.722 L 3.75,-9.227 h -5.403 z" />
        </g>
        <g
           style="fill:#ffffff"
           transform="translate(593.8008,674.5229)"
           id="g46">
          <path
             id="path48"
             style="fill:#ffffff;fill-opacity:1;fill-rule:nonzero;stroke:none"
             d="m 0,0 h -15.153 l -0.375,27.301 h -0.148 L -28.801,0 h -15.227 l -3.375,37.727 h 12.977 l 0.227,-27.301 h 0.148 l 12.523,27.301 h 15.829 l 0.148,-27.301 h 0.148 L 6.824,37.727 h 13.199 z" />
        </g>
        <g
           style="fill:#ffffff"
           transform="translate(635.125,704)"
           id="g50">
          <path
             id="path52"
             style="fill:#ffffff;fill-opacity:1;fill-rule:nonzero;stroke:none"
             d="m 0,0 c -6.301,0 -10.273,-6.824 -10.273,-12.824 0,-5.102 2.625,-8.477 7.046,-8.403 6.079,0 9.977,5.102 9.977,13.653 C 6.75,-3.676 5.023,0 0,0 m -4.199,-30.375 c -13.949,0 -19.574,7.727 -19.574,17.25 0.074,13.273 9.671,22.273 24.449,22.273 12.824,0 19.574,-7.421 19.5,-16.875 0,-15.75 -10.278,-22.648 -24.375,-22.648" />
        </g>
        <g
           style="fill:#ffffff"
           transform="translate(676.4492,712.25)"
           id="g54">
          <path
             id="path56"
             style="fill:#ffffff;fill-opacity:1;fill-rule:nonzero;stroke:none"
             d="m 0,0 -1.5,-7.727 h 0.152 c 2.098,4.426 6.375,8.625 11.7,8.625 1.722,0 3.75,-0.222 5.472,-0.972 l -3,-11.551 c -1.648,1.273 -3.523,1.574 -6,1.574 -5.472,0 -8.773,-4.801 -9.75,-10.347 l -3.75,-17.403 h -13.047 l 6,27.903 c 0.672,3.222 1.274,6.449 1.649,9.824 H 0 Z" />
        </g>
        <g
           style="fill:#ffffff"
           transform="translate(701.3516,728)"
           id="g58">
          <path
             id="path60"
             style="fill:#ffffff;fill-opacity:1;fill-rule:nonzero;stroke:none"
             d="M 0,0 H 13.199 L 6.297,-31.574 h 0.152 l 12.524,15.824 h 14.851 l -15.676,-18.148 9.75,-19.579 H 13.422 L 5.773,-34.801 H 5.625 L 1.574,-53.477 h -13.277 z" />
        </g>
        <g
           style="fill:#ffffff"
           transform="translate(755.1992,705.8008)"
           id="g62">
          <path
             id="path64"
             style="fill:#ffffff;fill-opacity:1;fill-rule:nonzero;stroke:none"
             d="m 0,0 h 5.625 c 6.227,0 11.027,1.5 11.102,6.597 0,3.829 -2.25,5.477 -6.602,5.551 H 2.551 Z M -8.473,22.199 H 7.801 C 18,22.125 30.227,21.824 30.152,8.551 30.074,-0.528 23.551,-5.699 15.375,-6.676 v -0.148 c 4.199,-0.375 5.551,-6.079 6.301,-9.528 l 3.75,-14.926 H 12 l -2.699,13.653 c -1.352,6.972 -3.524,7.5 -9.899,7.5 h -1.5 l -4.425,-21.153 h -13.5 z" />
        </g>
        <g
           style="fill:#ffffff"
           transform="translate(801.4766,682.3242)"
           id="g66">
          <path
             id="path68"
             style="fill:#ffffff;fill-opacity:1;fill-rule:nonzero;stroke:none"
             d="M 0,0 C 5.547,0 8.922,3.824 9.898,8.926 8.773,9.153 7.199,9.153 6.449,9.153 0.223,9.375 -4.352,7.125 -4.352,3.824 -4.352,2.028 -2.703,0 0,0 m 8.699,-2.551 -0.152,0.153 v -0.153 c -2.774,-4.347 -7.649,-6.148 -12.75,-6.148 -8.098,0 -12.598,3.602 -12.524,10.949 0.075,9.301 9.375,13.801 20.852,13.801 2.625,0 5.25,-0.227 7.047,-0.375 0.152,0.523 0.152,1.051 0.152,1.5 0,2.699 -2.625,4.875 -6.902,4.875 -4.723,0 -7.875,-0.75 -12.223,-3 l 1.348,9.523 c 3.828,1.278 7.953,2.176 13.875,2.176 9,0 16.351,-3.523 16.277,-12.824 C 23.699,12 20.324,3.528 18.824,-7.875 H 8.172 Z" />
        </g>
        <g
           style="fill:#ffffff"
           transform="translate(838.6016,728)"
           id="g70">
          <path
             id="path72"
             style="fill:#ffffff;fill-opacity:1;fill-rule:nonzero;stroke:none"
             d="m 0,0 h 13.199 l -2.101,-9.602 h -13.2 z M -3.375,-15.75 H 9.824 L 1.797,-53.477 h -13.199 z" />
        </g>
        <g
           style="fill:#ffffff"
           transform="translate(859.8242,728)"
           id="g74">
          <path
             id="path76"
             style="fill:#ffffff;fill-opacity:1;fill-rule:nonzero;stroke:none"
             d="M 0,0 H 13.199 L 1.801,-53.477 h -13.199 z" />
        </g>
      </g>
    </g>
  </g>
</svg>
