<?xml version="1.0" encoding="UTF-8" standalone="no"?>
<!-- Created with Inkscape (http://www.inkscape.org/) -->

<svg xmlns:dc="http://purl.org/dc/elements/1.1/" xmlns:cc="http://creativecommons.org/ns#" xmlns:rdf="http://www.w3.org/1999/02/22-rdf-syntax-ns#" xmlns:svg="http://www.w3.org/2000/svg" xmlns="http://www.w3.org/2000/svg" xmlns:sodipodi="http://sodipodi.sourceforge.net/DTD/sodipodi-0.dtd" xmlns:inkscape="http://www.inkscape.org/namespaces/inkscape" width="250" height="91" viewBox="0 0 250 91" id="svg2" version="1.1" inkscape:version="0.91 r13725" sodipodi:docname="newcastle.svg">
  <defs id="defs4" />
  <sodipodi:namedview id="base" pagecolor="#ffffff" bordercolor="#666666" borderopacity="1.0" inkscape:pageopacity="0.0" inkscape:pageshadow="2" inkscape:zoom="2.8" inkscape:cx="140.83" inkscape:cy="12.851" inkscape:document-units="px" inkscape:current-layer="layer1" showgrid="true" inkscape:window-width="1280" inkscape:window-height="751" inkscape:window-x="0" inkscape:window-y="1" inkscape:window-maximized="1" units="px">
    <inkscape:grid type="xygrid" id="grid5735" />
  </sodipodi:namedview>
  <metadata id="metadata7">
    <rdf:RDF>
      <cc:Work rdf:about="">
        <dc:format>image/svg+xml</dc:format>
        <dc:type rdf:resource="http://purl.org/dc/dcmitype/StillImage" />
        <dc:title></dc:title>
      </cc:Work>
    </rdf:RDF>
  </metadata>
  <g inkscape:label="Layer 1" inkscape:groupmode="layer" id="layer1" transform="translate(0,-961.4)">
    <rect style="opacity:0.001;fill:#ffffff;fill-opacity:1;stroke:none;stroke-width:2.5;stroke-linecap:round;stroke-linejoin:round;stroke-miterlimit:4;stroke-dasharray:none;stroke-dashoffset:0;stroke-opacity:1" id="rect4175" width="250" height="91" x="0" y="961.4" />
    <path style="fill:#ffffff;fill-opacity:1" d="" id="path4239" inkscape:connector-curvature="0" />
    <g id="g5074">
      <g transform="matrix(1.162,0,0,-1.1699,191.67,1028.2)" id="g4153" style="fill:none;stroke:#ffffff;stroke-width:0.85767;stroke-miterlimit:4;stroke-dasharray:none;stroke-opacity:1">
        <path inkscape:connector-curvature="0" id="path4155" style="fill:none;stroke:#ffffff;stroke-width:0.85767;stroke-linecap:butt;stroke-linejoin:miter;stroke-miterlimit:4;stroke-dasharray:none;stroke-opacity:1" d="m 0,0 0,19.927 -2.122,3.223 0,3.706 0.951,0.43 0,-3.115 1.098,0.483 0,3.223 0.987,0.429 0,-3.115 1.134,0.591 0,3.115 0.988,0.484 0,-29.381 -3.036,0 z" />
      </g>
      <g transform="matrix(1.162,0,0,-1.1699,191.67,1005)" id="g4157" style="fill:none;stroke:#ffffff;stroke-width:0.85767;stroke-miterlimit:4;stroke-dasharray:none;stroke-opacity:1">
        <path inkscape:connector-curvature="0" id="path4159" style="fill:none;stroke:#ffffff;stroke-width:0.85767;stroke-linecap:butt;stroke-linejoin:miter;stroke-miterlimit:4;stroke-dasharray:none;stroke-opacity:1" d="m 0,0 2.926,1.45" />
      </g>
      <g transform="matrix(1.162,0,0,-1.1699,202.93,1028.2)" id="g4161" style="fill:none;stroke:#ffffff;stroke-width:0.85767;stroke-miterlimit:4;stroke-dasharray:none;stroke-opacity:1">
        <path inkscape:connector-curvature="0" id="path4163" style="fill:none;stroke:#ffffff;stroke-width:0.85767;stroke-linecap:butt;stroke-linejoin:miter;stroke-miterlimit:4;stroke-dasharray:none;stroke-opacity:1" d="m 0,0 0,29.112 -2.121,3.223 0,3.706 0.951,0.43 0,-3.116 1.097,0.484 0,3.222 0.987,0.43 0,-3.115 1.134,0.591 0,3.115 0.988,0.484 0,-38.566 -3.036,0 z" />
      </g>
      <g transform="matrix(1.162,0,0,-1.1699,202.85,1004.6)" id="g4165" style="fill:none;stroke:#ffffff;stroke-width:0.85767;stroke-miterlimit:4;stroke-dasharray:none;stroke-opacity:1">
        <path inkscape:connector-curvature="0" id="path4167" style="fill:none;stroke:#ffffff;stroke-width:0.85767;stroke-linecap:butt;stroke-linejoin:miter;stroke-miterlimit:4;stroke-dasharray:none;stroke-opacity:1" d="m 0,0 -1.317,-0.806 0,-2.578 -1.682,-0.913 0,2.632 -1.683,-0.859 0,-17.7" />
      </g>
      <g transform="matrix(1.162,0,0,-1.1699,195.28,1028.2)" id="g4169" style="fill:none;stroke:#ffffff;stroke-width:0.85767;stroke-miterlimit:4;stroke-dasharray:none;stroke-opacity:1">
        <path inkscape:connector-curvature="0" id="path4171" style="fill:none;stroke:#ffffff;stroke-width:0.85767;stroke-linecap:butt;stroke-linejoin:miter;stroke-miterlimit:4;stroke-dasharray:none;stroke-opacity:1" d="m 0,0 6.547,0" />
      </g>
      <g transform="matrix(1.162,0,0,-1.1699,198.88,1005.1)" id="g4173" style="fill:none;stroke:#ffffff;stroke-width:0.85767;stroke-miterlimit:4;stroke-dasharray:none;stroke-opacity:1">
        <path inkscape:connector-curvature="0" id="path4175" style="fill:none;stroke:#ffffff;stroke-width:0.85767;stroke-linecap:butt;stroke-linejoin:miter;stroke-miterlimit:4;stroke-dasharray:none;stroke-opacity:1" d="m 0,0 -3.146,1.558" />
      </g>
      <g transform="matrix(1.162,0,0,-1.1699,198.88,1006.7)" id="g4177" style="fill:none;stroke:#ffffff;stroke-width:0.85767;stroke-miterlimit:4;stroke-dasharray:none;stroke-opacity:1">
        <path inkscape:connector-curvature="0" id="path4179" style="fill:none;stroke:#ffffff;stroke-width:0.85767;stroke-linecap:butt;stroke-linejoin:miter;stroke-miterlimit:4;stroke-dasharray:none;stroke-opacity:1" d="m 0,0 0,1.611 2.121,3.223 0,3.706 -0.951,0.43 0,-3.115 -1.097,0.483 0,3.223 -0.988,0.43 0,-3.116 -1.133,0.591 0,3.115 -0.988,0.484" />
      </g>
      <g transform="matrix(1.162,0,0,-1.1699,192.66,1016.3)" id="g4181" style="fill:none;stroke:#ffffff;stroke-width:0.85767;stroke-miterlimit:4;stroke-dasharray:none;stroke-opacity:1">
        <path inkscape:connector-curvature="0" id="path4183" style="fill:none;stroke:#ffffff;stroke-width:0.85767;stroke-linecap:butt;stroke-linejoin:miter;stroke-miterlimit:4;stroke-dasharray:none;stroke-opacity:1" d="m 0,0 c 0,0 0.082,1.683 0.672,2.027 0.59,0.344 0.672,-1.325 0.672,-1.325 l 0,-3.995 -1.344,-0.701 0,3.994 z" />
      </g>
      <g transform="matrix(1.162,0,0,-1.1699,199.62,1015.5)" id="g4185" style="fill:none;stroke:#ffffff;stroke-width:0.85767;stroke-miterlimit:4;stroke-dasharray:none;stroke-opacity:1">
        <path inkscape:connector-curvature="0" id="path4187" style="fill:none;stroke:#ffffff;stroke-width:0.85767;stroke-linecap:butt;stroke-linejoin:miter;stroke-miterlimit:4;stroke-dasharray:none;stroke-opacity:1" d="m 0,0 c 0,0 0.082,1.683 0.672,2.027 0.59,0.344 0.672,-1.325 0.672,-1.325 l 0,-3.994 -1.344,-0.703 0,3.995 z" />
      </g>
      <g transform="matrix(1.162,0,0,-1.1699,221.44,1028.2)" id="g4189" style="fill:none;stroke:#ffffff;stroke-width:0.85767;stroke-miterlimit:4;stroke-dasharray:none;stroke-opacity:1">
        <path inkscape:connector-curvature="0" id="path4191" style="fill:none;stroke:#ffffff;stroke-width:0.85767;stroke-linecap:butt;stroke-linejoin:miter;stroke-miterlimit:4;stroke-dasharray:none;stroke-opacity:1" d="m 0,0 0,19.927 2.122,3.223 0,3.706 -0.951,0.43 0,-3.115 -1.098,0.483 0,3.223 -0.987,0.429 0,-3.115 -1.134,0.591 0,3.115 -0.988,0.484 0,-29.381 3.036,0 z" />
      </g>
      <g transform="matrix(1.162,0,0,-1.1699,221.44,1005)" id="g4193" style="fill:none;stroke:#ffffff;stroke-width:0.85767;stroke-miterlimit:4;stroke-dasharray:none;stroke-opacity:1">
        <path inkscape:connector-curvature="0" id="path4195" style="fill:none;stroke:#ffffff;stroke-width:0.85767;stroke-linecap:butt;stroke-linejoin:miter;stroke-miterlimit:4;stroke-dasharray:none;stroke-opacity:1" d="m 0,0 -2.926,1.45" />
      </g>
      <g transform="matrix(1.162,0,0,-1.1699,210.26,1004.6)" id="g4197" style="fill:none;stroke:#ffffff;stroke-width:0.85767;stroke-miterlimit:4;stroke-dasharray:none;stroke-opacity:1">
        <path inkscape:connector-curvature="0" id="path4199" style="fill:none;stroke:#ffffff;stroke-width:0.85767;stroke-linecap:butt;stroke-linejoin:miter;stroke-miterlimit:4;stroke-dasharray:none;stroke-opacity:1" d="m 0,0 1.317,-0.806 0,-2.578 1.682,-0.913 0,2.632 1.683,-0.859 0,-17.641" />
      </g>
      <g transform="matrix(1.162,0,0,-1.1699,217.82,1028.2)" id="g4201" style="fill:none;stroke:#ffffff;stroke-width:0.85767;stroke-miterlimit:4;stroke-dasharray:none;stroke-opacity:1">
        <path inkscape:connector-curvature="0" id="path4203" style="fill:none;stroke:#ffffff;stroke-width:0.85767;stroke-linecap:butt;stroke-linejoin:miter;stroke-miterlimit:4;stroke-dasharray:none;stroke-opacity:1" d="m 0,0 -6.547,0" />
      </g>
      <g transform="matrix(1.162,0,0,-1.1699,214.21,1004.8)" id="g4205" style="fill:none;stroke:#ffffff;stroke-width:0.85767;stroke-miterlimit:4;stroke-dasharray:none;stroke-opacity:1">
        <path inkscape:connector-curvature="0" id="path4207" style="fill:none;stroke:#ffffff;stroke-width:0.85767;stroke-linecap:butt;stroke-linejoin:miter;stroke-miterlimit:4;stroke-dasharray:none;stroke-opacity:1" d="m 0,0 3.145,1.558" />
      </g>
      <g transform="matrix(1.162,0,0,-1.1699,214.21,1006.7)" id="g4209" style="fill:none;stroke:#ffffff;stroke-width:0.85767;stroke-miterlimit:4;stroke-dasharray:none;stroke-opacity:1">
        <path inkscape:connector-curvature="0" id="path4211" style="fill:none;stroke:#ffffff;stroke-width:0.85767;stroke-linecap:butt;stroke-linejoin:miter;stroke-miterlimit:4;stroke-dasharray:none;stroke-opacity:1" d="m 0,0 0,1.611 -2.121,3.223 0,3.706 0.951,0.43 0,-3.115 1.097,0.483 0,3.223 0.988,0.43 0,-3.116 1.133,0.591 0,3.115 0.988,0.484" />
      </g>
      <g transform="matrix(1.162,0,0,-1.1699,206.65,1028.2)" id="g4213" style="fill:none;stroke:#ffffff;stroke-width:0.85767;stroke-miterlimit:4;stroke-dasharray:none;stroke-opacity:1">
        <path inkscape:connector-curvature="0" id="path4215" style="fill:none;stroke:#ffffff;stroke-width:0.85767;stroke-linecap:butt;stroke-linejoin:miter;stroke-miterlimit:4;stroke-dasharray:none;stroke-opacity:1" d="m 0,0 3.034,0 0,29.112 2.121,3.223 0,3.706 -0.951,0.43 0,-3.116 -1.097,0.484 0,3.222 -0.988,0.43 0,-3.115 -1.134,0.591 0,3.115 -0.985,0.484" />
      </g>
      <g transform="matrix(1.162,0,0,-1.1699,203.09,993.97)" id="g4217" style="fill:none;stroke:#ffffff;stroke-width:0.85767;stroke-miterlimit:4;stroke-dasharray:none;stroke-opacity:1">
        <path inkscape:connector-curvature="0" id="path4219" style="fill:none;stroke:#ffffff;stroke-width:0.85767;stroke-linecap:butt;stroke-linejoin:miter;stroke-miterlimit:4;stroke-dasharray:none;stroke-opacity:1" d="m 0,0 2.926,1.45" />
      </g>
      <g transform="matrix(1.162,0,0,-1.1699,210.07,993.97)" id="g4221" style="fill:none;stroke:#ffffff;stroke-width:0.85767;stroke-miterlimit:4;stroke-dasharray:none;stroke-opacity:1">
        <path inkscape:connector-curvature="0" id="path4223" style="fill:none;stroke:#ffffff;stroke-width:0.85767;stroke-linecap:butt;stroke-linejoin:miter;stroke-miterlimit:4;stroke-dasharray:none;stroke-opacity:1" d="m 0,0 -2.926,1.45" />
      </g>
      <g transform="matrix(1.162,0,0,-1.1699,191.67,1013.7)" id="g4225" style="fill:none;stroke:#ffffff;stroke-width:0.85767;stroke-miterlimit:4;stroke-dasharray:none;stroke-opacity:1">
        <path inkscape:connector-curvature="0" id="path4227" style="fill:none;stroke:#ffffff;stroke-width:0.85767;stroke-linecap:butt;stroke-linejoin:miter;stroke-miterlimit:4;stroke-dasharray:none;stroke-opacity:1" d="m 0,0 2.926,1.45" />
      </g>
      <g transform="matrix(1.162,0,0,-1.1699,191.67,1022.8)" id="g4229" style="fill:none;stroke:#ffffff;stroke-width:0.85767;stroke-miterlimit:4;stroke-dasharray:none;stroke-opacity:1">
        <path inkscape:connector-curvature="0" id="path4231" style="fill:none;stroke:#ffffff;stroke-width:0.85767;stroke-linecap:butt;stroke-linejoin:miter;stroke-miterlimit:4;stroke-dasharray:none;stroke-opacity:1" d="m 0,0 2.926,1.45" />
      </g>
      <g transform="matrix(1.162,0,0,-1.1699,202.89,1010.7)" id="g4233" style="fill:none;stroke:#ffffff;stroke-width:0.85767;stroke-miterlimit:4;stroke-dasharray:none;stroke-opacity:1">
        <path inkscape:connector-curvature="0" id="path4235" style="fill:none;stroke:#ffffff;stroke-width:0.85767;stroke-linecap:butt;stroke-linejoin:miter;stroke-miterlimit:4;stroke-dasharray:none;stroke-opacity:1" d="m 0,0 -4.739,-2.656 -1.798,1.537" />
      </g>
      <g transform="matrix(1.162,0,0,-1.1699,202.89,1019.7)" id="g4237" style="fill:none;stroke:#ffffff;stroke-width:0.85767;stroke-miterlimit:4;stroke-dasharray:none;stroke-opacity:1">
        <path inkscape:connector-curvature="0" id="path4239-0" style="fill:none;stroke:#ffffff;stroke-width:0.85767;stroke-linecap:butt;stroke-linejoin:miter;stroke-miterlimit:4;stroke-dasharray:none;stroke-opacity:1" d="m 0,0 -4.739,-2.656 -1.798,1.537" />
      </g>
      <g transform="matrix(1.162,0,0,-1.1699,203.07,1008.3)" id="g4241" style="fill:none;stroke:#ffffff;stroke-width:0.85767;stroke-miterlimit:4;stroke-dasharray:none;stroke-opacity:1">
        <path inkscape:connector-curvature="0" id="path4243" style="fill:none;stroke:#ffffff;stroke-width:0.85767;stroke-linecap:butt;stroke-linejoin:miter;stroke-miterlimit:4;stroke-dasharray:none;stroke-opacity:1" d="m 0,0 2.926,1.45" />
      </g>
      <g transform="matrix(1.162,0,0,-1.1699,203.07,1017.4)" id="g4245" style="fill:none;stroke:#ffffff;stroke-width:0.85767;stroke-miterlimit:4;stroke-dasharray:none;stroke-opacity:1">
        <path inkscape:connector-curvature="0" id="path4247" style="fill:none;stroke:#ffffff;stroke-width:0.85767;stroke-linecap:butt;stroke-linejoin:miter;stroke-miterlimit:4;stroke-dasharray:none;stroke-opacity:1" d="m 0,0 2.926,1.45" />
      </g>
      <g transform="matrix(1.162,0,0,-1.1699,220.39,1016.3)" id="g4249" style="fill:none;stroke:#ffffff;stroke-width:0.85767;stroke-miterlimit:4;stroke-dasharray:none;stroke-opacity:1">
        <path inkscape:connector-curvature="0" id="path4251" style="fill:none;stroke:#ffffff;stroke-width:0.85767;stroke-linecap:butt;stroke-linejoin:miter;stroke-miterlimit:4;stroke-dasharray:none;stroke-opacity:1" d="m 0,0 c 0,0 -0.082,1.683 -0.672,2.027 -0.59,0.344 -0.672,-1.325 -0.672,-1.325 l 0,-3.995 1.344,-0.701 0,3.994 z" />
      </g>
      <g transform="matrix(1.162,0,0,-1.1699,213.42,1015.5)" id="g4253" style="fill:none;stroke:#ffffff;stroke-width:0.85767;stroke-miterlimit:4;stroke-dasharray:none;stroke-opacity:1">
        <path inkscape:connector-curvature="0" id="path4255" style="fill:none;stroke:#ffffff;stroke-width:0.85767;stroke-linecap:butt;stroke-linejoin:miter;stroke-miterlimit:4;stroke-dasharray:none;stroke-opacity:1" d="m 0,0 c 0,0 -0.082,1.683 -0.672,2.027 -0.59,0.344 -0.672,-1.325 -0.672,-1.325 l 0,-3.994 1.344,-0.703 0,3.995 z" />
      </g>
      <g transform="matrix(1.162,0,0,-1.1699,221.38,1013.7)" id="g4257" style="fill:none;stroke:#ffffff;stroke-width:0.85767;stroke-miterlimit:4;stroke-dasharray:none;stroke-opacity:1">
        <path inkscape:connector-curvature="0" id="path4259" style="fill:none;stroke:#ffffff;stroke-width:0.85767;stroke-linecap:butt;stroke-linejoin:miter;stroke-miterlimit:4;stroke-dasharray:none;stroke-opacity:1" d="m 0,0 -2.926,1.45" />
      </g>
      <g transform="matrix(1.162,0,0,-1.1699,221.38,1022.8)" id="g4261" style="fill:none;stroke:#ffffff;stroke-width:0.85767;stroke-miterlimit:4;stroke-dasharray:none;stroke-opacity:1">
        <path inkscape:connector-curvature="0" id="path4263" style="fill:none;stroke:#ffffff;stroke-width:0.85767;stroke-linecap:butt;stroke-linejoin:miter;stroke-miterlimit:4;stroke-dasharray:none;stroke-opacity:1" d="m 0,0 -2.926,1.45" />
      </g>
      <g transform="matrix(1.162,0,0,-1.1699,210.16,1010.7)" id="g4265" style="fill:none;stroke:#ffffff;stroke-width:0.85767;stroke-miterlimit:4;stroke-dasharray:none;stroke-opacity:1">
        <path inkscape:connector-curvature="0" id="path4267" style="fill:none;stroke:#ffffff;stroke-width:0.85767;stroke-linecap:butt;stroke-linejoin:miter;stroke-miterlimit:4;stroke-dasharray:none;stroke-opacity:1" d="m 0,0 4.738,-2.656 1.799,1.537" />
      </g>
      <g transform="matrix(1.162,0,0,-1.1699,210.16,1019.7)" id="g4269" style="fill:none;stroke:#ffffff;stroke-width:0.85767;stroke-miterlimit:4;stroke-dasharray:none;stroke-opacity:1">
        <path inkscape:connector-curvature="0" id="path4271" style="fill:none;stroke:#ffffff;stroke-width:0.85767;stroke-linecap:butt;stroke-linejoin:miter;stroke-miterlimit:4;stroke-dasharray:none;stroke-opacity:1" d="m 0,0 4.738,-2.656 1.799,1.537" />
      </g>
      <g transform="matrix(1.162,0,0,-1.1699,209.97,1008.3)" id="g4273" style="fill:none;stroke:#ffffff;stroke-width:0.85767;stroke-miterlimit:4;stroke-dasharray:none;stroke-opacity:1">
        <path inkscape:connector-curvature="0" id="path4275" style="fill:none;stroke:#ffffff;stroke-width:0.85767;stroke-linecap:butt;stroke-linejoin:miter;stroke-miterlimit:4;stroke-dasharray:none;stroke-opacity:1" d="m 0,0 -2.926,1.45" />
      </g>
      <g transform="matrix(1.162,0,0,-1.1699,209.97,1017.4)" id="g4277" style="fill:none;stroke:#ffffff;stroke-width:0.85767;stroke-miterlimit:4;stroke-dasharray:none;stroke-opacity:1">
        <path inkscape:connector-curvature="0" id="path4279" style="fill:none;stroke:#ffffff;stroke-width:0.85767;stroke-linecap:butt;stroke-linejoin:miter;stroke-miterlimit:4;stroke-dasharray:none;stroke-opacity:1" d="m 0,0 -2.926,1.45" />
      </g>
      <g transform="matrix(1.162,0,0,-1.1699,46.528,982.17)" id="g4281" style="fill:#ffffff;stroke:none">
        <path inkscape:connector-curvature="0" id="path4283" style="fill:#ffffff;fill-opacity:1;fill-rule:nonzero;stroke:none" d="m 0,0 c 0.105,0 0.208,-0.075 0.303,-0.112 0.321,-0.122 0.519,-0.394 0.519,-0.584 0,-0.59 -1.043,-1.269 -1.519,-1.399 0.589,-1.035 0.981,-2.38 1.208,-3.539 0.185,-0.938 0.227,-1.973 0.311,-2.943 l 0.084,-10.373 c -0.126,-0.76 -0.253,-1.519 -0.399,-2.27 l -0.098,-0.1 c -0.135,-0.618 -0.409,-1.477 -0.744,-2.068 -0.189,-0.331 -1.625,-1.528 -2.157,-1.528 l -0.538,0 c -0.105,0 -0.216,-0.168 -0.321,-0.168 -0.242,0 -0.307,0.151 -0.449,0.254 -0.036,0 -0.099,-0.09 -0.204,-0.09 -0.306,0 -0.443,0.311 -0.443,0.485 0,0.127 0.088,0.27 0.253,0.383 -0.233,0.343 -0.562,0.778 -0.688,1.041 -0.369,0.775 -0.906,1.458 -1.364,2.249 -0.785,1.359 -1.636,3.082 -2.052,4.584 -0.19,0.69 -0.584,1.336 -0.858,2.021 -0.416,1.027 -1.085,2.322 -1.559,3.302 -0.322,0.669 -0.626,1.342 -1.038,2.048 -0.742,1.281 -1.884,2.985 -3.043,4.374 -0.03,-0.036 -0.02,0.021 -0.02,-0.085 0,-0.105 0.109,-0.255 0.151,-0.361 0.08,-0.189 0.09,-0.461 0.154,-0.709 0.105,-0.421 0.232,-0.892 0.295,-1.35 0.02,-0.122 0.05,-0.299 0.08,-0.462 0.04,-0.174 0.111,-0.333 0.142,-0.507 0.174,-0.922 0.259,-1.856 0.354,-2.784 0.07,-0.669 0.08,-1.267 0.07,-3.802 l -0.06,-0.127 c 0,-0.373 0.09,-2.734 -0.09,-6.823 -0.04,-0.991 1.097,-1.709 1.414,-2.136 l 0.07,-0.254 c 0.163,-0.237 0.498,-0.09 0.498,-0.391 0,-0.169 -0.152,-0.316 -0.295,-0.316 -0.105,0 -0.144,0.06 -0.234,0.07 -0.179,0.03 -0.437,0.189 -0.716,0.221 -1.133,0.126 -1.452,-0.04 -1.558,-0.04 -0.105,0 -2.107,-0.253 -2.213,-0.253 -0.369,0 -0.722,0.03 -1.033,0.23 -0.09,0.06 -0.231,0.276 -0.231,0.381 0,0.106 0.04,0.09 0.07,0.135 0.147,0.519 0.617,0.981 0.921,1.53 l 0.04,-0.08 0.187,0.226 0,3.927 0.759,5.564 0,1.522 c 0,0.105 0.09,0.798 0.126,1.175 l -0.552,4.862 c -0.156,0.254 -0.05,0.59 0,0.864 l -0.156,0 c -0.08,0.026 -0.1,0.109 -0.204,0.109 -0.105,0 -0.02,-0.084 -0.126,-0.084 -0.327,0 -0.485,0.595 -0.485,0.653 0,0.301 0.127,0.426 0.409,0.728 0.01,0.038 -0.03,0.01 -0.03,0.115 0,0.264 0.317,0.443 0.485,0.443 0.106,0 0.274,-0.127 0.379,-0.127 0.106,0 0.19,0.085 0.296,0.085 0.363,0 0.534,-0.448 0.719,-0.781 0.08,-0.142 0.06,-0.389 0.152,-0.537 0.164,-0.273 0.331,-0.45 0.505,-0.672 0.121,-0.158 0.39,-0.375 0.522,-0.559 0.574,-0.817 1.286,-1.692 1.897,-2.614 1.359,-2.045 2.425,-4.234 3.416,-6.283 0.996,-2.061 1.89,-4.371 3.286,-6.447 0.374,-0.554 1.454,-1.978 2.14,-2.216 0.516,1.264 0.852,2.654 0.999,3.986 l -0.042,9.566 c -0.042,0.294 -0.127,1.182 -0.127,1.287 0,0.106 -0.063,0.273 -0.073,0.399 -0.058,0.711 -0.258,1.615 -0.406,2.316 -0.042,0.216 -0.184,0.416 -0.226,0.606 -0.074,0.348 -0.176,0.597 -0.444,0.945 -0.153,0.2 -0.399,0.342 -0.609,0.447 -0.085,0.043 -1.298,0.388 -1.529,0.388 -0.106,0 -0.315,-0.084 -0.478,-0.093 l -0.129,-0.101 c -0.26,0.025 -0.658,-0.059 -0.764,-0.059 -0.116,0 -0.499,0.137 -0.557,0.353 -0.053,0.206 -0.138,0.596 -0.138,0.701 0,0.416 0.169,0.59 0.485,0.59 0.105,0 0.274,-0.084 0.379,-0.084 0.106,0 0.026,0.084 0.132,0.084 l 3.53,0 c 0.106,0 0.077,0.038 0.123,0.072 0.559,0.081 1.222,0.437 1.854,0.758 0.153,0.079 0.388,0.171 0.599,0.182 0.421,0.026 0.57,0.05 0.683,0.05" />
      </g>
      <g transform="matrix(1.162,0,0,-1.1699,162.98,982.32)" id="g4289" style="fill:#ffffff;stroke:none">
        <path inkscape:connector-curvature="0" id="path4291" style="fill:#ffffff;fill-opacity:1;fill-rule:nonzero;stroke:none" d="m 0,0 c 0.105,0 0.402,-0.042 0.563,-0.055 0.148,-0.163 0.234,-0.333 0.363,-0.508 l 0,-0.983 c -0.214,-0.264 -0.247,-0.638 -0.294,-0.963 l 0.085,-3.203 c 0,-0.042 0.084,-0.11 0.084,-0.216 l 0,-0.579 c 0,-0.106 0.036,-0.201 0.126,-0.293 l 0,-15.172 c 0,-0.106 -0.084,0.03 -0.084,-0.07 0,-0.106 0.021,-0.04 0.083,-0.05 -0.047,-0.07 -0.125,-0.114 -0.125,-0.219 0,-0.106 0.195,-0.256 0.284,-0.303 0.453,-0.248 1.089,-0.305 1.585,-0.531 0.131,-0.06 0.271,-0.291 0.371,-0.418 0.427,-0.548 0.5,-0.492 0.5,-0.877 0,-0.232 0.04,-0.316 -0.275,-0.611 -0.064,-0.06 -0.194,-0.148 -0.3,-0.148 l -0.419,0 -3.244,0.843 c -0.291,-0.04 -0.778,-0.253 -0.884,-0.253 -0.379,0 -0.948,0.617 -0.948,0.928 0,0.432 0.786,1.006 1.041,1.255 0.014,0.04 -0.03,0 -0.03,0.11 l 0,0.98 c 0,0.105 0.127,0.853 0.13,0.959 l 0,6.749 -0.087,5.817 -0.295,3.667 0,1.848 -0.067,0.071 c -0.158,-0.118 -0.472,-0.078 -0.683,-0.283 -0.01,-0.161 0,-0.353 -0.069,-0.506 -0.048,-0.095 -0.199,-0.174 -0.29,-0.264 l -0.509,0 c -0.106,-10e-4 -0.395,0.262 -0.437,0.41 -0.041,0.147 -0.137,0.474 -0.137,0.58 0,0.479 0.809,1.121 1.247,1.274 0.363,0.126 0.772,0.267 1.125,0.446 0.864,0.438 0.905,0.568 1.59,0.568" />
      </g>
      <g transform="matrix(1.162,0,0,-1.1699,150.01,982.62)" id="g4297" style="fill:#ffffff;stroke:none">
        <path inkscape:connector-curvature="0" id="path4299" style="fill:#ffffff;fill-opacity:1;fill-rule:nonzero;stroke:none" d="m 0,0 0.237,0 c 0.006,-0.058 0.046,-0.133 0.09,-0.225 l -1.138,-4.724 0.034,-0.277 c 0.573,0.13 1.208,0.241 1.798,0.299 0.627,0.063 0.843,0.042 1.349,0.084 l 6.031,0.759 c 0.315,-0.085 0.61,-0.321 0.61,-0.653 0,-0.106 -0.046,-0.307 -0.149,-0.464 -0.115,-0.061 -0.237,-0.147 -0.374,-0.173 -0.496,-0.095 -1.421,-0.227 -1.527,-0.227 l -1.365,0 c -0.105,0 -0.078,0.048 -0.113,0.085 l -1.757,0 c -0.105,0 -2.995,-0.401 -4.513,-0.602 l -0.186,-0.107 c -0.259,-1.551 -0.723,-4.646 -0.723,-4.751 0,-0.105 -0.253,-1.563 -0.38,-2.363 l -0.294,-3.034 0,-2.775 c 0,-0.106 0.108,-0.566 0.219,-0.798 0.69,-1.454 2.082,-1.553 3.302,-1.8 l 2.885,-0.127 c 0.106,0 0.229,0.137 0.356,0.158 0.126,0.02 0.299,0.04 0.42,0.07 l 0.204,0.182 c 0.158,0.106 0.433,0.183 0.538,0.183 0.549,0 0.886,-0.554 0.886,-0.801 0,-0.259 -0.243,-0.801 -0.696,-0.801 -0.106,0 -0.178,0.04 -0.246,0.09 -0.03,-0.07 0.067,-0.157 0.014,-0.573 -0.185,-1.349 -1.759,-1.024 -2.632,-1.283 -0.045,0 -0.086,0.04 -1.69,0 -1.087,0.169 -2.407,0.414 -3.455,1.031 -0.195,0.116 -0.355,0.285 -0.561,0.438 -1.185,0.88 -1.663,2.312 -1.82,3.567 l 0.083,3.543 0.071,0.133 c 0.341,3.136 0.922,6.534 2.106,9.606 l -0.013,0.105 c -0.195,-0.085 -0.447,-0.202 -0.663,-0.238 -0.496,-0.085 -1.464,-0.227 -1.569,-0.227 l -0.664,0 c -0.105,0 -0.11,-0.085 -0.216,-0.085 -0.279,0 -0.569,0.195 -0.569,0.422 0,0.105 0.025,0.299 0.109,0.325 0.522,0.185 1.132,0.291 1.68,0.365 0.332,0.047 0.914,0.153 1.02,0.153 l 1.085,0 c 0.147,0 0.15,0.151 0.208,0.273 0.068,0.137 0.147,0.357 0.21,0.515 0.347,0.843 0.726,1.68 1.027,2.528 0.237,0.674 0.422,1.53 0.741,2.194" />
      </g>
      <g transform="matrix(1.162,0,0,-1.1699,120.66,993.17)" id="g4305" style="fill:#ffffff;stroke:none">
        <path inkscape:connector-curvature="0" id="path4307" style="fill:#ffffff;fill-opacity:1;fill-rule:evenodd;stroke:none" d="m 0,0 c -2.298,0 -4.88,-2.01 -6.435,-3.981 -0.089,-0.116 -0.163,-0.311 -0.237,-0.412 -0.986,-1.343 -1.564,-2.939 -1.732,-4.305 -0.023,-0.037 -0.069,-0.064 -0.069,-0.17 l 0,-1.57 c 0,-0.105 0.059,-0.168 0.069,-0.21 0.031,-0.158 0.574,-2.757 1.701,-2.757 0.201,0 0.558,0.143 0.694,0.275 0.649,0.622 1.677,1.482 2.305,2.22 0.964,1.133 2.446,2.472 3.389,3.769 0.174,0.242 1.031,1.002 1.031,1.519 l 0,0.456 0.801,4.365 c -0.116,0.532 -1.053,0.801 -1.517,0.801 m 2.513,1.223 0.369,0 c 0.416,0 0.532,-0.738 0.532,-0.912 l 0,-1.471 -0.211,-1.771 -0.211,-6.324 c -0.163,-0.74 -0.379,-2.169 -0.379,-3.011 0,-0.106 0.084,-1.139 0.084,-1.244 0,-0.68 -0.574,-0.948 -1.053,-0.948 -0.232,0 -0.662,0.1 -0.785,0.337 -0.11,-0.08 -0.248,-0.127 -0.354,-0.127 -0.537,0 -0.927,0.448 -0.927,0.885 0,0.227 0.356,0.686 0.482,0.786 0.148,0.116 0.487,0.21 0.487,0.437 0,0.105 -0.057,0.181 -0.073,0.27 -0.021,0.127 0.031,0.256 0.001,2.135 -0.247,-0.198 -0.685,-0.667 -0.876,-0.949 -1.308,-1.229 -2.898,-2.702 -4.6,-3.63 -0.19,-0.1 -0.667,-0.218 -0.911,-0.236 l -0.038,-0.07 -0.937,0 c -0.158,0 -0.765,0.469 -0.849,0.522 -0.501,0.327 -1.58,2.694 -1.58,3.374 0,0.105 -0.084,0.885 -0.084,0.991 0,3.835 2.74,7.448 6.713,9.733 0.858,0.481 1.881,0.636 2.771,0.636 0.522,0 1.254,-0.134 1.663,-0.379 0.072,0.078 0.183,0.144 0.219,0.239 0.043,0.116 0.012,0.302 0.07,0.423 0.021,0.048 0.377,0.308 0.477,0.308" />
      </g>
      <g transform="matrix(1.162,0,0,-1.1699,136.02,992.23)" id="g4317" style="fill:#ffffff;stroke:none">
        <path inkscape:connector-curvature="0" id="path4319" style="fill:#ffffff;fill-opacity:1;fill-rule:nonzero;stroke:none" d="m 0,0 1.591,0 c 0.106,0 0.399,0.016 1.021,-0.085 0.79,-0.126 1.829,-0.295 2.466,-0.933 0.211,-0.211 0.291,-0.199 0.291,-0.478 0,-0.243 -0.03,-0.387 -0.286,-0.557 0.039,-0.348 -0.225,-0.645 -0.62,-0.645 -0.237,0 -0.391,0.098 -0.554,0.32 -0.048,0.063 -0.057,0.205 -0.069,0.322 -0.23,0.119 -0.668,0.327 -0.773,0.327 l -0.538,0 c -0.232,0 -0.616,0.211 -0.616,0.444 0,0.105 0.211,0.315 0.211,0.421 0,0.226 -0.785,0.232 -0.801,0.232 -1.001,0 -2.151,-0.361 -3.089,-0.851 -0.416,-0.222 -0.805,-0.543 -1.195,-0.775 -0.343,-0.2 -0.775,-0.44 -0.775,-0.904 0,-0.284 0.322,-0.675 0.575,-0.743 0.98,-0.274 2.074,-0.506 3.117,-0.674 0.29,-0.048 0.645,-0.038 0.929,-0.111 1.444,-0.39 3.076,-0.923 4.336,-2.155 0.089,-0.09 0.233,-0.816 0.233,-1.017 0,-2.871 -4.143,-6.522 -6.888,-7.112 -0.306,-0.06 -0.874,-0.243 -0.979,-0.243 l -2.097,0 c -0.106,0 -0.439,0.175 -0.645,0.243 -1.085,0.364 -2.385,0.861 -3.449,1.461 -0.116,0.06 -0.295,0.472 -0.347,0.672 -0.032,0.121 0.036,0.297 0.015,0.423 -0.021,0.105 -0.138,0.176 -0.223,0.286 -0.084,0.105 -0.099,0.371 -0.099,0.477 0,0.311 -0.048,0.244 0.226,0.603 0.084,0.11 0.255,0.08 0.376,0.148 0.137,0.07 0.15,0.188 0.259,0.35 0.121,0.06 0.298,0.184 0.404,0.184 0.379,0 0.768,-0.456 0.868,-0.698 0.042,-0.105 0.101,-0.297 0.069,-0.412 0.108,-0.07 0.262,-0.23 0.356,-0.267 0.406,-0.168 0.912,-0.258 1.35,-0.448 0.864,-0.368 1.524,-0.746 2.331,-0.746 0.105,0 1.453,0.211 2.002,0.226 0.632,0.02 1.235,0.42 1.888,0.731 0.111,0.05 0.304,0.08 0.42,0.152 0.3,0.179 0.656,0.456 0.966,0.715 0.723,0.6 2.016,2.254 2.016,3.298 0,0.579 -0.889,0.951 -1.253,1.151 -0.111,0.057 -0.304,0.067 -0.419,0.109 -1.412,0.543 -2.932,0.958 -4.381,1.306 -0.601,0.142 -1.371,0.334 -1.987,0.677 -0.411,0.231 -0.812,1.151 -0.812,1.583 0,0.29 0.095,0.588 0.269,0.783 0.432,0.496 0.909,0.567 1.478,1.015 0.016,0.01 2.389,1.195 2.832,1.195" />
      </g>
      <g transform="matrix(1.162,0,0,-1.1699,102.84,992.33)" id="g4325" style="fill:#ffffff;stroke:none">
        <path inkscape:connector-curvature="0" id="path4327" style="fill:#ffffff;fill-opacity:1;fill-rule:nonzero;stroke:none" d="m 0,0 c 0.832,0 1.012,-0.732 1.012,-1.265 0,-0.627 -0.338,-1.417 -0.338,-1.602 0,-0.115 0.073,-0.069 0.231,-0.227 0.132,-0.126 0.191,-0.384 0.191,-0.489 0,-0.311 -0.248,-0.674 -0.59,-0.674 -0.427,0 -0.275,0.145 -0.823,0.482 -0.121,0.074 -0.16,0.308 -0.244,0.456 -0.232,0.41 -0.176,1.028 -0.278,1.557 0,0 0.038,0.034 -0.067,0.034 -0.105,0 -2.288,-1.067 -3.447,-1.694 -1.707,-0.928 -3.132,-2.563 -4.096,-4.281 -0.269,-0.48 -0.657,-1.044 -0.815,-1.597 -0.2,-0.712 -0.347,-1.433 -0.347,-2.145 0,-0.848 0.158,-1.96 1.222,-1.96 1.207,0 4.259,1.252 5.028,1.657 2.239,1.186 4.165,2.383 6.462,3.263 0.274,0.106 0.627,0.181 0.953,0.218 0.115,0.458 0.256,0.511 0.562,0.511 0.184,0 0.371,-0.038 0.577,-0.433 0.063,-0.127 0.245,-0.331 0.245,-0.436 l 0,-0.538 c 0,-0.105 0.126,-0.532 0.126,-0.638 0,-0.211 -0.245,-0.886 -0.403,-1.012 -0.137,-0.111 -0.263,-0.24 -0.411,-0.298 -1.623,-0.654 -3.373,-1.244 -5.033,-1.855 -1.412,-0.522 -2.876,-1.159 -4.299,-1.686 -1.818,-0.674 -2.579,-1.029 -4.249,-1.029 -0.833,0 -1.292,-0.15 -2.156,0.951 -0.253,0.322 -0.436,0.844 -0.468,1.303 0,0.126 0.03,0.294 0.02,0.416 -0.02,0.04 -0.07,0.03 -0.07,0.133 0,0.106 -0.01,0.942 0.08,1.479 0.126,0.706 0.346,1.441 0.801,2.148 l -0.03,0.062 c -0.585,-0.147 -1.221,-0.824 -1.569,-1.299 l -0.02,-0.249 c -0.09,-0.195 -0.1,-0.485 -0.376,-0.585 -0.04,-0.01 -0.112,-0.02 -0.218,-0.02 -0.279,0 -0.484,0.158 -0.484,0.4 0,0.174 0.131,0.261 0.257,0.409 0.396,0.469 0.774,1.026 1.122,1.501 0.116,0.158 0.233,0.386 0.365,0.539 1.918,2.165 4.142,4.868 6.781,6.311 1.328,0.727 2.999,1.444 4.09,1.997 0.189,0.096 0.6,0.185 0.706,0.185" />
      </g>
      <g transform="matrix(1.162,0,0,-1.1699,84.339,992.38)" id="g4333" style="fill:#ffffff;stroke:none">
        <path inkscape:connector-curvature="0" id="path4335" style="fill:#ffffff;fill-opacity:1;fill-rule:nonzero;stroke:none" d="m 0,0 c 0.105,0 0.583,-0.274 0.889,-0.322 0.706,-0.115 1.472,-0.068 2.906,-0.142 0.173,-0.005 0.376,-0.063 0.518,-0.184 0.106,-0.089 0.134,-0.258 0.134,-0.363 0,-0.106 -0.108,-0.427 -0.187,-0.564 -0.158,-0.279 -0.559,-0.339 -0.849,-0.555 -0.089,-0.063 -0.408,-0.179 -0.472,-0.384 -0.29,-0.954 -0.495,-1.95 -0.827,-2.91 -0.295,-0.848 -0.717,-1.728 -1.012,-2.555 -0.569,-1.596 -1.343,-3.586 -1.685,-5.14 -0.021,-0.116 -0.144,-0.266 -0.185,-0.398 -0.148,-0.426 -0.27,-1.184 -0.649,-1.511 l -0.71,-0.273 c -0.105,0 -0.454,0.213 -0.616,0.317 -0.267,0.537 -0.52,1.14 -0.747,1.719 -0.569,1.439 -0.838,2.747 -1.307,4.175 -0.216,0.653 -0.585,1.296 -0.817,1.981 -0.316,0.948 -0.61,1.936 -1.087,2.894 -0.266,-0.454 -0.422,-0.886 -0.559,-1.376 -0.521,-1.865 -0.963,-3.849 -1.29,-5.773 l -0.106,-0.18 -0.022,-0.205 c -0.09,-0.179 -0.21,-0.293 -0.268,-0.461 -0.137,-0.385 -0.537,-2.586 -1.316,-2.586 -0.148,0 -0.358,0.01 -0.378,0.392 -0.04,0.04 -0.04,0.1 0,0.636 -0.208,0.331 -0.493,0.727 -0.73,1.133 -0.179,0.305 -0.397,0.629 -0.523,0.93 -0.754,1.759 -1.497,3.499 -2.192,5.285 -0.137,0.358 -0.365,0.772 -0.465,1.167 -0.205,0.796 -0.361,1.507 -0.801,2.304 l -0.616,0 c -0.233,0 -0.617,-0.054 -0.617,0.251 0,0.301 0.309,0.29 0.558,0.308 0.04,0.062 0.07,0.192 0.172,0.229 0.369,0.131 0.806,0.179 1.18,0.321 0,0 1.251,0.66 1.547,0.66 0.31,0 0.421,-0.58 0.421,-0.59 0,-0.891 -0.801,-0.417 -0.801,-1.054 0,-0.253 0.278,-0.92 0.32,-1.035 0.163,-0.412 2.562,-6.637 3.326,-6.637 0.501,0 0.601,1.285 0.622,1.375 0.069,0.29 0.138,0.642 0.211,0.969 0.048,0.216 0.19,0.457 0.227,0.673 0.205,1.212 0.532,2.458 0.869,3.67 0.122,0.427 0.453,1.153 0.453,1.259 0,0.105 -0.169,0.545 -0.209,0.834 -0.038,0.036 -0.044,0.03 -0.15,0.03 -0.105,0 -0.337,-0.084 -0.442,-0.084 -0.417,0 -0.759,0.342 -0.759,0.653 0,0.248 0.572,0.738 0.862,0.769 0.169,0.016 0.339,0.021 0.507,0.027 1.096,0.042 1.566,0.195 2.531,0.195 0.452,0 1.032,-0.021 1.032,-0.696 0,-0.938 -0.837,-0.65 -1.485,-1.082 -0.242,-0.163 -0.538,-0.646 -0.538,-0.752 0,-0.105 0.239,-0.416 0.361,-0.643 0.126,-0.232 0.212,-0.546 0.296,-0.804 0.301,-0.88 0.637,-1.763 0.969,-2.485 0.474,-1.033 0.806,-2.177 1.249,-3.246 0.184,-0.443 0.452,-0.926 0.697,-1.382 l 0.081,0.03 c 0.616,1.858 3.218,8.691 3.218,9.202 0,0.105 -0.412,0.446 -0.707,0.625 -0.337,0.211 -0.684,0.46 -0.684,0.85 0,0.353 0.485,0.509 0.652,0.509" />
      </g>
      <g transform="matrix(1.162,0,0,-1.1699,174.47,992.63)" id="g4341" style="fill:#ffffff;stroke:none">
        <path inkscape:connector-curvature="0" id="path4343" style="fill:#ffffff;fill-opacity:1;fill-rule:nonzero;stroke:none" d="m 0,0 c 1.475,0 4.174,-0.452 5.196,-1.927 0.193,-0.034 0.58,-0.089 0.801,-0.237 0.169,-0.111 0.214,-0.396 0.271,-0.588 l 0.141,-0.166 c 0.142,-0.211 0.333,-0.455 0.465,-0.719 0.037,-0.074 0.018,-0.241 0.018,-0.347 0,-0.173 -0.032,-0.737 -0.316,-0.737 -0.106,0 -0.253,0.084 -0.359,0.084 -0.105,0 -0.089,-0.084 -0.195,-0.084 l -0.959,0 c -0.105,0 -0.674,-0.226 -1.011,-0.321 -0.838,-0.237 -1.74,-0.411 -2.572,-0.616 -0.342,-0.085 -0.719,-0.222 -1.098,-0.27 -1.064,-0.131 -2.148,-0.258 -3.202,-0.489 -0.305,-0.064 -0.596,-0.194 -0.88,-0.336 -0.048,-0.021 -0.074,-0.095 -0.169,-0.142 -0.074,-0.037 -0.136,-0.018 -0.241,-0.018 -0.311,0 -0.506,0.089 -0.506,0.4 0,0.19 0.216,0.359 0.443,0.359 0.105,0 0.189,-0.127 0.295,-0.127 0.105,0 0.59,0.258 0.88,0.326 0.585,0.137 1.234,0.206 1.813,0.322 0.849,0.173 1.738,0.39 2.571,0.59 0.717,0.174 1.471,0.411 2.235,0.564 0.527,0.1 1.26,0.201 1.796,0.668 -0.083,0.155 -0.027,0.399 -0.138,0.53 -1.222,1.455 -3.561,2.143 -5.237,2.143 -1.929,0 -4.27,-1.626 -5.197,-3.865 -0.295,-0.712 -0.473,-1.499 -0.473,-2.205 0,-0.106 0.043,-0.695 0.052,-1.027 l 0.058,-0.083 c 0.106,-0.805 0.74,-1.549 1.388,-2.408 0.295,-0.39 0.862,-1.005 1.231,-1.19 1.369,-0.701 1.982,-0.73 3.215,-0.73 l 1.199,0.04 c 1.183,0.258 2.54,0.871 3.668,1.672 0.58,0.411 1.236,0.866 1.795,1.14 -0.043,0.155 -0.128,0.371 -0.128,0.476 0,0.253 0.253,0.717 0.548,0.717 0.342,0 0.59,-0.738 0.59,-0.907 0,-0.105 -0.116,-0.121 -0.116,-0.21 0,-0.127 0.031,-0.256 0.015,-0.382 -0.021,-0.179 -0.152,-0.335 -0.152,-0.44 0,-0.106 0.126,-0.506 0.126,-0.612 0,-0.105 -0.055,-0.579 -0.187,-0.811 -0.216,-0.379 -0.755,-0.692 -1.213,-0.987 -1.175,-0.759 -2.379,-1.168 -3.549,-1.394 -0.305,-0.06 -1.047,-0.243 -1.484,-0.243 l -2.14,0 c -0.437,0 -2.062,0.518 -2.078,0.523 -0.379,0.147 -0.79,0.377 -1.09,0.593 -1.275,0.911 -2.727,2.658 -3.028,4.255 0,0.042 -0.069,0.104 -0.069,0.209 l 0,2.329 c 0,0.105 0.069,0.163 0.069,0.248 0.01,0.585 0.323,1.394 0.576,1.947 0.659,1.439 2.353,2.976 3.371,3.567 1.096,0.637 1.902,0.916 2.961,0.916" />
      </g>
      <g transform="matrix(1.162,0,0,-1.1699,56.521,992.68)" id="g4349" style="fill:#ffffff;stroke:none">
        <path inkscape:connector-curvature="0" id="path4351" style="fill:#ffffff;fill-opacity:1;fill-rule:nonzero;stroke:none" d="m 0,0 c 1.359,0 3.194,-0.383 4.468,-1.156 l 0.055,-0.139 c 0.212,-0.186 0.401,-0.427 0.675,-0.633 l 0.288,-0.023 c 0.169,-0.052 0.42,-0.137 0.583,-0.3 0.126,-0.126 0.137,-0.391 0.2,-0.544 0.063,-0.153 0.213,-0.28 0.292,-0.375 0.084,-0.11 0.18,-0.243 0.27,-0.381 0.073,-0.11 0.061,-0.348 0.061,-0.454 0,-0.843 -0.19,-0.716 -0.869,-0.716 l -0.959,0 c -0.106,0 -0.547,-0.189 -0.843,-0.279 -0.79,-0.242 -1.651,-0.438 -2.488,-0.617 -0.332,-0.068 -0.712,-0.2 -1.054,-0.268 -0.922,-0.185 -1.909,-0.258 -2.825,-0.406 -0.38,-0.058 -0.766,-0.163 -1.135,-0.294 -0.221,-0.079 -0.534,-0.37 -0.639,-0.37 -0.106,0 -0.05,0.043 -0.085,0.058 -0.299,-0.099 -0.611,0.089 -0.611,0.363 0,0.306 0.333,0.337 0.443,0.337 0.037,0 0.279,0.01 0.304,-0.128 0.773,0.348 1.774,0.534 2.559,0.665 1.185,0.195 2.359,0.585 3.508,0.843 0.527,0.116 1.08,0.264 1.634,0.38 0.247,0.047 0.552,0.084 0.799,0.152 0.074,0.021 0.744,0.317 0.744,0.512 0,0.106 -0.042,0.274 -0.042,0.38 0,0.105 -0.258,0.275 -0.405,0.422 -1.06,1.07 -2.45,1.438 -3.668,1.681 -0.163,0.031 -0.377,0.068 -0.543,0.086 0,0 0.058,0.066 -0.048,0.066 l -1.254,0 c -0.105,0 -0.029,-0.032 -0.049,-0.064 -0.312,-0.124 -0.818,-0.164 -1.166,-0.422 -0.184,-0.137 -0.47,-0.185 -0.675,-0.322 -0.29,-0.195 -0.661,-0.467 -0.967,-0.757 -0.922,-0.874 -1.67,-1.95 -2.007,-3.141 -0.052,-0.2 -0.136,-0.569 -0.136,-0.674 l 0,-1.507 c 0,-0.58 0.685,-1.751 0.806,-1.888 0.211,-0.237 0.448,-0.601 0.675,-0.886 0.274,-0.343 0.585,-0.717 0.954,-0.949 0.479,-0.301 1.075,-0.546 1.597,-0.714 0.411,-0.132 0.832,-0.216 1.259,-0.226 0.758,-0.03 1.093,0.03 1.768,0.08 0.252,0.02 0.541,0.168 0.799,0.2 1.344,0.19 3.006,1.588 4.249,2.4 0.111,0.074 0.302,0.139 0.456,0.17 -0.084,0.15 -0.128,0.413 -0.128,0.518 0,0.364 0.263,0.717 0.527,0.717 0.316,0 0.569,-0.648 0.569,-0.843 0,-0.106 -0.127,-0.864 -0.127,-0.97 0,-0.105 -0.084,-0.04 -0.084,-0.147 0,-0.106 0.126,-0.422 0.126,-0.527 0,-1.091 -0.54,-1.24 -1.626,-2.046 -0.126,-0.1 -0.38,-0.169 -0.491,-0.238 -1.201,-0.764 -2.51,-0.893 -3.76,-1.173 l -2.619,-0.04 c -0.45,0.111 -0.915,0.133 -1.395,0.286 -0.68,0.216 -1.672,0.626 -2.273,1.168 -1.37,1.239 -2.536,2.818 -2.631,4.214 -0.042,0.59 -0.042,1.013 -0.042,1.119 0,0.105 0.042,1.252 0.137,1.836 0.026,0.175 0.142,0.34 0.185,0.509 0.205,0.764 0.615,1.546 1.21,2.315 0.511,0.658 1.257,1.257 1.889,1.8 0.986,0.843 2.454,1.34 3.555,1.34" />
      </g>
      <g transform="matrix(1.162,0,0,-1.1699,101.78,1021.1)" id="g4357" style="fill:#ffffff;stroke:none">
        <path inkscape:connector-curvature="0" id="path4359" style="fill:#ffffff;fill-opacity:1;fill-rule:nonzero;stroke:none" d="m 0,0 c -0.295,0.983 -1.094,2.569 -3.504,2.569 -2.434,0 -4.131,-1.684 -4.131,-4.536 0,-2.435 1.229,-4.562 4.07,-4.562 0.602,0 1.967,0.135 2.84,1.205 0.528,0.64 0.725,1.353 0.811,1.685 l -1.426,0.418 c -0.221,-0.996 -0.824,-2.066 -2.275,-2.066 -0.946,0 -1.672,0.467 -2.065,1.131 -0.394,0.689 -0.455,1.709 -0.455,2.213 0,1.193 0.332,3.271 2.57,3.271 1.155,0 1.819,-0.64 2.126,-1.673" />
      </g>
      <path inkscape:connector-curvature="0" id="path4361" style="fill:#ffffff;fill-opacity:1;fill-rule:evenodd;stroke:none" d="m 104.6,1028.6 1.58,0 0,-7.4 -1.58,0 0,7.4 z m 0,-8.7 1.58,0 0,-1.6 -1.58,0" />
      <g transform="matrix(1.162,0,0,-1.1699,111.05,1018.5)" id="g4363" style="fill:#ffffff;stroke:none">
        <path inkscape:connector-curvature="0" id="path4365" style="fill:#ffffff;fill-opacity:1;fill-rule:nonzero;stroke:none" d="m 0,0 -1.365,-0.812 0,-1.438 -0.787,0 0,-1.07 0.787,0 0,-3.245 c 0,-1.181 0,-2.164 1.598,-2.164 0.517,0 0.812,0.098 1.021,0.172 l -0.147,1.118 c -0.111,-0.036 -0.345,-0.11 -0.615,-0.11 -0.492,0 -0.492,0.344 -0.492,1.057 l 0,3.172 1.119,0 0,1.07 -1.119,0" />
      </g>
      <g transform="matrix(1.162,0,0,-1.1699,114,1021.2)" id="g4367" style="fill:#ffffff;stroke:none">
        <path inkscape:connector-curvature="0" id="path4369" style="fill:#ffffff;fill-opacity:1;fill-rule:nonzero;stroke:none" d="m 0,0 2.422,-6.381 c -0.357,-1.082 -0.627,-1.389 -1.315,-1.389 -0.308,0 -0.53,0.049 -0.677,0.086 l 0.135,-1.156 c 0.123,-0.037 0.455,-0.111 0.885,-0.111 1.426,0 1.746,0.886 2.386,2.632 l 2.336,6.319 -1.39,0 -1.647,-4.746 -0.025,0 -1.647,4.746" />
      </g>
      <g transform="matrix(1.162,0,0,-1.1699,137.17,1021.1)" id="g4371" style="fill:#ffffff;stroke:none">
        <path inkscape:connector-curvature="0" id="path4373" style="fill:#ffffff;fill-opacity:1;fill-rule:nonzero;stroke:none" d="m 0,0 c -0.295,0.983 -1.095,2.569 -3.504,2.569 -2.435,0 -4.131,-1.684 -4.131,-4.536 0,-2.435 1.229,-4.562 4.07,-4.562 0.602,0 1.966,0.135 2.839,1.205 0.529,0.64 0.726,1.353 0.812,1.685 l -1.426,0.418 c -0.222,-0.996 -0.824,-2.066 -2.275,-2.066 -0.946,0 -1.672,0.467 -2.065,1.131 -0.394,0.689 -0.455,1.709 -0.455,2.213 0,1.193 0.331,3.271 2.57,3.271 1.155,0 1.819,-0.64 2.126,-1.673" />
      </g>
      <g transform="matrix(1.162,0,0,-1.1699,139.54,1025)" id="g4375" style="fill:#ffffff;stroke:none">
        <path inkscape:connector-curvature="0" id="path4377" style="fill:#ffffff;fill-opacity:1;fill-rule:evenodd;stroke:none" d="m 0,0 c 0,-2.299 1.598,-3.258 3.123,-3.258 1.819,0 3.135,1.303 3.135,3.344 0,1.98 -1.254,3.32 -3.123,3.32 -1.635,0 -3.135,-1.045 -3.135,-3.406 m 1.402,0.074 c 0,1.696 0.958,2.212 1.733,2.212 0.898,0 1.721,-0.688 1.721,-2.175 0,-1.882 -1.106,-2.25 -1.721,-2.25 -0.75,0 -1.733,0.516 -1.733,2.213" />
      </g>
      <g transform="matrix(1.162,0,0,-1.1699,155.79,1028.6)" id="g4379" style="fill:#ffffff;stroke:none">
        <path inkscape:connector-curvature="0" id="path4381" style="fill:#ffffff;fill-opacity:1;fill-rule:nonzero;stroke:none" d="m 0,0 0,6.369 -1.365,0 0,-3.062 c 0,-0.873 -0.061,-1.266 -0.246,-1.647 -0.184,-0.369 -0.713,-0.689 -1.279,-0.689 -0.27,0 -0.737,0.074 -0.995,0.516 -0.185,0.32 -0.209,0.714 -0.209,1.648 l 0,3.234 -1.365,0 0,-3.984 c 0,-0.578 0.024,-1.082 0.307,-1.623 0.295,-0.553 1.082,-0.91 1.844,-0.91 0.369,0 1.365,0.086 2.041,1.094 l 0.025,0 0,-0.946" />
      </g>
      <g transform="matrix(1.162,0,0,-1.1699,158.95,1028.6)" id="g4383" style="fill:#ffffff;stroke:none">
        <path inkscape:connector-curvature="0" id="path4385" style="fill:#ffffff;fill-opacity:1;fill-rule:nonzero;stroke:none" d="m 0,0 1.365,0 0,3.209 c 0,0.676 0.061,1.106 0.258,1.5 0.197,0.393 0.725,0.713 1.291,0.713 1.205,0 1.205,-1.057 1.205,-1.844 l 0,-3.578 1.364,0 0,3.725 c 0,0.873 0,1.303 -0.307,1.881 -0.307,0.578 -1.106,0.91 -1.856,0.91 -0.824,0 -1.599,-0.381 -2.041,-1.057 l -0.025,0 0,0.91 -1.254,0" />
      </g>
      <g transform="matrix(1.162,0,0,-1.1699,173.2,1025.8)" id="g4387" style="fill:#ffffff;stroke:none">
        <path inkscape:connector-curvature="0" id="path4389" style="fill:#ffffff;fill-opacity:1;fill-rule:nonzero;stroke:none" d="m 0,0 c -0.062,-0.357 -0.234,-1.414 -1.439,-1.414 -1.426,0 -1.598,1.537 -1.598,2.287 0,0.602 0.16,2.139 1.635,2.139 1.07,0 1.267,-0.897 1.353,-1.254 l 1.328,0.221 c -0.062,0.295 -0.148,0.738 -0.554,1.254 -0.651,0.824 -1.733,0.898 -2.151,0.898 -2.103,0 -3.012,-1.512 -3.012,-3.332 0,-0.897 0.295,-3.332 2.962,-3.332 1.795,0 2.607,1.193 2.816,2.324" />
      </g>
      <path inkscape:connector-curvature="0" id="path4391" style="fill:#ffffff;fill-opacity:1;fill-rule:evenodd;stroke:none" d="m 177.14,1028.6 1.6,0 0,-7.4 -1.6,0 0,7.4 z m 0,-8.7 1.6,0 0,-1.6 -1.6,0" />
      <path inkscape:connector-curvature="0" id="path4393" style="fill:#ffffff;fill-opacity:1;fill-rule:nonzero;stroke:none;stroke-width:1;stroke-miterlimit:4;stroke-dasharray:none" d="m 181.86,1028.6 1.59,0 0,-10.3 -1.59,0 0,10.3 z" />
    </g>
  </g>
</svg>
