<?xml version="1.0" encoding="UTF-8"?>
<svg version="1.1" viewBox="0 0 250 91" xmlns="http://www.w3.org/2000/svg" xmlns:cc="http://creativecommons.org/ns#" xmlns:dc="http://purl.org/dc/elements/1.1/" xmlns:rdf="http://www.w3.org/1999/02/22-rdf-syntax-ns#">
<metadata>
<rdf:RDF>
<cc:Work rdf:about="">
<dc:format>image/svg+xml</dc:format>
<dc:type rdf:resource="http://purl.org/dc/dcmitype/StillImage"/>
<dc:title/>
</cc:Work>
</rdf:RDF>
</metadata>
<g transform="translate(0,-961.4)">
<path d="m27.101 1038.6c-0.54108-0.1275-1.2141-0.4697-1.4612-0.7429-0.10536-0.1165-0.29496-0.4397-0.42132-0.7183-0.21277-0.4691-0.22995-0.7344-0.23224-3.5862l-2e-3 -3.0796h1.5713l0.0337 2.8738c0.0371 3.163 0.0342 3.1499 0.8118 3.7305 0.41869 0.3126 1.5517 0.3224 2.0602 0.018 0.73891-0.4428 0.77434-0.6069 0.81346-3.7685l0.0353-2.8535h1.5814l-0.0698 6.1592-0.32608 0.5884c-0.37207 0.6714-0.89803 1.0649-1.7688 1.3236-0.64574 0.1917-1.932 0.2191-2.6252 0.056zm42.775-0.046c-0.60669-0.1701-1.2692-0.469-1.2692-0.5727 0-0.1565 0.58711-1.1894 0.65554-1.1532 0.75273 0.3973 1.0553 0.4784 1.7906 0.48 0.91953 0 1.2833-0.2063 1.2833-0.735 0-0.4709-0.36174-0.8297-1.3596-1.3489-1.5911-0.8277-2.0669-1.4042-2.0679-2.5058-5.5e-4 -0.8866 0.3848-1.5254 1.187-1.9664 0.52544-0.2889 0.71647-0.3306 1.5059-0.3287 0.56709 0 1.1253 0.078 1.4974 0.2043l0.59332 0.2022v0.7376c0 0.6588-0.0212 0.7287-0.19778 0.6545-1.0645-0.447-1.3674-0.5244-1.8659-0.4771-0.63271 0.06-0.98772 0.336-0.98772 0.7679 0 0.4032 0.46666 0.8085 1.6762 1.4559 0.51493 0.2756 1.0837 0.6691 1.264 0.8743 0.97007 1.1049 0.59927 2.8356-0.74883 3.4951-0.77997 0.3817-2.0378 0.4735-2.9564 0.216zm29.219 0.01c-1.1768-0.3381-1.9218-0.9763-2.4508-2.0995-0.25954-0.5511-0.29272-0.7625-0.29272-1.8648 0-1.1415 0.0266-1.2974 0.32636-1.9085 0.43027-0.8773 1.0531-1.4814 1.9733-1.9142 0.68258-0.3209 0.85036-0.3528 1.8253-0.3464 1.2852 0.01 2.0889 0.2739 2.8458 0.9401 1.264 1.1127 1.663 3.1175 0.98233 4.9367-0.33305 0.8901-1.1712 1.7273-2.0799 2.0774-0.8305 0.3199-2.3391 0.4063-3.1297 0.1792zm2.25-1.3152c0.51847-0.1951 1.1451-0.8899 1.3447-1.4909 0.1256-0.3781 0.17075-0.828 0.14344-1.4289-0.0336-0.7393-0.0938-0.9644-0.38291-1.432-0.77292-1.2501-2.4378-1.531-3.5076-0.5917-1.4341 1.2591-1.1757 4.1104 0.4389 4.8434 0.5246 0.2382 1.4687 0.2863 1.9634 0.1001zm41.029 1.3595c-0.33751-0.085-1.2627-0.4874-1.4126-0.6149-0.0225-0.019 0.468-0.9746 0.59765-1.1641 0.0115-0.017 0.29537 0.097 0.63073 0.2532 1.203 0.56 2.5027 0.2767 2.5027-0.5455 0-0.428-0.34415-0.7558-1.3776-1.312-1.6014-0.862-2.041-1.3966-2.041-2.4824 0-1.0047 0.47087-1.7079 1.4127-2.1097 0.60748-0.2592 1.9639-0.2588 2.7406 0l0.59332 0.1983v0.7376c0 0.6598-0.0209 0.7286-0.19778 0.6518-0.65468-0.2842-1.3773-0.4965-1.7008-0.4998-0.51582-0.01-1.0222 0.2824-1.1094 0.6299-0.10988 0.4378 0.2446 0.8208 1.3001 1.4046 1.2608 0.6973 1.6939 1.0661 1.9608 1.6694 0.2956 0.6682 0.22009 1.56-0.1838 2.1703-0.42331 0.6397-1.3306 1.0461-2.4268 1.0871-0.47481 0.018-1.0548-0.016-1.2888-0.074zm-108.91-4.0651v-4.0684l1.7517 0.02 1.2431 1.5973c0.68373 0.8786 1.5932 2.058 2.0211 2.6209 0.42786 0.563 0.80929 1.0363 0.8476 1.0519 0.0383 0.015 0.0516-1.1669 0.0295-2.6276l-0.0402-2.6558h1.719v8.1369h-1.571l-1.7386-2.232c-0.95625-1.2276-1.925-2.4774-2.1528-2.7775l-0.41421-0.5455v5.555h-1.6952zm9.6061 0v-4.0684h1.6952v8.1369h-1.6952zm6.3916 3.9657c-0.11321-0.1832-3.2272-7.8515-3.2272-7.947 0-0.048 0.39779-0.087 0.88398-0.087h0.88397l1.056 2.797c0.58081 1.5384 1.0864 2.8334 1.1236 2.8778 0.0372 0.044 0.49524-0.9473 1.018-2.2038 0.52272-1.2564 1.0681-2.5514 1.2119-2.8777l0.26151-0.5933h0.84659c0.83618 0 0.84521 0.01 0.73332 0.2543-0.0623 0.1398-0.86328 1.9579-1.7799 4.0402l-1.6666 3.7859-0.63746 0.034c-0.3506 0.018-0.66902-0.018-0.7076-0.08zm6.0399-3.9657v-4.0684h2.3168c1.2742 0 2.3168 0.034 2.3168 0.075s-0.0856 0.3463-0.19016 0.6781l-0.19016 0.6032h-2.558v1.9213h2.5993v1.3561h-2.5993v2.1472h2.9384v1.3562h-4.6335zm6.3287-0.012v-4.0806l1.7234 0.045c1.4347 0.037 1.8093 0.084 2.2358 0.2774 1.6196 0.7356 1.7954 2.9039 0.31359 3.8676l-0.40999 0.2666 0.37408 0.4901c0.20574 0.2695 0.64086 0.9378 0.96694 1.4851 0.32606 0.5472 0.69129 1.1602 0.8116 1.3623l0.21874 0.3672h-1.9108l-0.84924-1.4446c-0.46709-0.7947-0.92821-1.5104-1.0247-1.5904-0.0965-0.08-0.31839-0.1292-0.49307-0.1092l-0.31762 0.037-0.0628 3.1078h-1.5758zm3.1229-0.5273c0.59672-0.4833 0.66959-1.2839 0.16122-1.7709-0.28141-0.2697-0.43291-0.3205-0.98887-0.332l-0.65654-0.013-0.0322 1.1584-0.0322 1.1583h0.65378c0.44811 0 0.72961-0.064 0.89483-0.1978zm10.552 0.5394v-4.0685h1.6952v8.1369h-1.6952zm5.285 0.7063-0.0299-3.3621-2.3168-0.064v-1.3483h3.285c3.0751 0 3.2813 0.013 3.2276 0.1978-0.0316 0.1087-0.11275 0.4121-0.1804 0.674l-0.12301 0.4762-2.1972 0.064-0.0299 3.3622-0.0299 3.3621h-1.5754zm7.8245 1.808v-1.5542l-1.369-2.3731c-0.75292-1.3051-1.3941-2.4365-1.4248-2.5142-0.0419-0.1059 0.17125-0.1413 0.85158-0.1413h0.90739l0.92172 1.6952c0.50695 0.9323 0.93955 1.6952 0.96133 1.6952 0.0218 0 0.43739-0.7625 0.92355-1.6944l0.88395-1.6944h1.7575l-0.16185 0.3107c-0.089 0.171-0.72603 1.2951-1.4156 2.4982l-1.2537 2.1874v3.1406h-1.5822zm17.63-2.5143v-4.0685h4.7221l-0.20087 0.6498-0.20086 0.6498-2.6252 0.064v2.0271h2.5993v1.2432h-2.5993v3.5033h-1.6952zm8.928 0v-4.0685h1.5822v6.7808l1.4409-3e-4 1.4409-2e-4 -0.0766 1.3566h-4.3874zm5.6507 0v-4.0685h4.6488l-0.0803 0.2543c-0.0441 0.1398-0.14154 0.4322-0.21642 0.6498l-0.13616 0.3955-2.5772 0.114-0.0328 0.9323-0.0328 0.9324h2.6084v1.3487l-2.5428 0.064-0.0325 1.0454-0.0325 1.0453h3.0598v1.3562h-4.6335zm6.1027 0v-4.0685h4.7317l-0.45798 1.3562h-2.5786v1.9212h2.5993v1.3561h-2.5993v2.1473h3.0514v1.3561h-4.7466zm6.2157 0v-4.0685h1.4974c2.6183 0 3.8575 0.359 4.7725 1.3767 0.65486 0.7283 0.90038 1.4657 0.89601 2.6909-3e-3 0.8076-0.0543 1.0731-0.32263 1.6667-0.34962 0.7734-0.99505 1.4476-1.7585 1.8371-0.7605 0.388-1.8436 0.5606-3.5309 0.5627h-1.5539zm4.0174 2.3975c0.60494-0.311 1.0246-0.7765 1.2333-1.3679 0.34935-0.9902 0.16969-2.086-0.46323-2.8254-0.47403-0.5538-1.0754-0.7945-2.202-0.8814l-0.89032-0.069v5.4899l0.93782-0.058c0.6258-0.039 1.0864-0.1349 1.3844-0.2881zm68.594-12.748c-3.7086-0.5729-8.0762-2.2429-11.336-4.3345-1.0288-0.6602-1.2651-1.0027-1.2651-1.8335 0-0.593 0.0327-0.653 1.6796-3.0781 0.92381-1.3602 1.8011-2.5405 1.9495-2.6228 0.55506-0.3076 0.98666-0.1955 2.415 0.6279 2.9398 1.6946 6.0854 3.0631 7.9472 3.4577 3.1856 0.6752 6.431-0.6794 7.6793-3.2053 0.40426-0.818 0.42337-0.9079 0.42337-1.9926 0-1.3307-0.17886-1.9523-0.86901-3.0202-1.1932-1.846-3.8024-3.5673-7.946-5.2419-8.2396-3.3299-12.327-7.8309-12.678-13.96-0.34234-5.9832 3.2636-11.112 9.1672-13.038 2.0769-0.67766 2.9312-0.78962 6.0535-0.7934 2.319-6e-3 3.0805 0.0355 3.899 0.1979 3.3327 0.65978 6.4301 1.9141 9.1303 3.6976 1.2811 0.84607 1.4364 1.0571 1.4364 1.952 0 0.56209-0.059 0.67389-1.4924 2.8296-1.5576 2.3424-1.8541 2.6838-2.5227 2.9044-0.55294 0.18246-0.73163 0.11952-2.2709-0.79989-2.8543-1.705-5.6095-2.8093-7.6146-3.0521-4.0334-0.48854-7.4122 2.3546-6.7927 5.7157 0.17501 0.94949 0.71177 1.9793 1.4438 2.77 1.3274 1.4337 3.0041 2.4372 6.7104 4.0159 5.2442 2.2339 7.6295 3.6266 9.9954 5.836 1.7438 1.6285 3.1291 3.8823 3.7383 6.0818 0.40206 1.4517 0.51342 4.3842 0.22478 5.9187-1.093 5.8111-6.0052 10.003-12.865 10.978-1.4572 0.2072-4.8683 0.2014-6.2408-0.01zm-39.103-0.226c-4.2225-0.652-7.8187-2.4656-10.736-5.4143-1.4363-1.4516-2.4628-2.8893-3.3896-4.7474-0.81837-1.6409-1.278-2.9593-1.6625-4.7693l-0.25928-1.2205-0.0311-15.594c-0.0233-11.672 2e-3 -15.674 0.10053-15.912 0.25759-0.62193 0.42472-0.64618 4.4434-0.64618h3.6768l0.36908 0.32972 0.36907 0.32973 0.0575 15.181 0.0574 15.181 0.29651 1.0749c1.0575 3.8337 3.5615 6.3616 7.1829 7.2514 1.4565 0.3579 3.5366 0.3365 5.0145-0.052 3.3167-0.8708 5.7049-3.125 6.8507-6.4665 0.59734-1.742 0.59887-1.7864 0.59959-17.427 0-10.991 0.0332-14.56 0.13569-14.785 0.27075-0.59423 0.44453-0.61838 4.4477-0.61838h3.6898l0.38802 0.38801 0.38801 0.38801-0.0366 15.688-0.0366 15.688-0.30388 1.3689c-1.6061 7.2346-6.7602 12.581-13.881 14.399-2.1716 0.5545-5.5401 0.7214-7.7303 0.3832zm-105.37-0.2734c-0.21003-0.049-0.50613-0.1566-0.65798-0.2379-0.15187-0.081-5.9006-6.418-12.775-14.081-6.8744-7.6636-12.541-13.934-12.591-13.934-0.0509 0-0.10592 5.9666-0.12221 13.259l-0.0297 13.259-0.28253 0.4185c-0.17041 0.2525-0.5122 0.5319-0.86123 0.7042l-0.57869 0.2856-3.4898-0.034c-3.4319-0.034-3.4968-0.039-3.9146-0.2985-0.23364-0.1453-0.55149-0.4803-0.70633-0.7445l-0.28154-0.4805v-22.5c0-15.663 0.0366-22.597 0.12054-22.819 0.17142-0.45246 0.54312-0.82382 1.0661-1.0652 0.35683-0.1647 0.73129-0.20916 1.7777-0.2111 1.8096-6e-3 1.9499 0.0637 3.3846 1.6192 0.64153 0.69548 6.252 6.7777 12.468 13.516l11.301 12.251 0.0565-12.819c0.0417-9.4545 0.091-12.878 0.18805-13.045 0.20557-0.35321 0.74106-0.82132 1.0907-0.95343 0.20021-0.0757 1.6367-0.12018 3.8752-0.12018 3.2675 0 3.5912 0.0172 3.9764 0.21399 0.51791 0.26434 0.75575 0.52107 0.98006 1.0579 0.15447 0.3697 0.17355 2.9052 0.17134 22.768-2e-3 21.586-0.01 22.368-0.21373 22.817-0.26118 0.5752-0.81563 1.011-1.4812 1.1644-0.58623 0.1351-1.9156 0.1398-2.4704 0.01zm2.3031-24.015v-22.151h-6.5548l-0.0287 14.098-0.0287 14.098h-1.4373l-4.6773-5.0632c-2.5725-2.7848-8.5423-9.2434-13.266-14.353l-8.589-9.2893h-1.0228c-0.64481 0-1.0729 0.05-1.1584 0.13561-0.18046 0.18046-0.19887 43.836-0.0186 44.173 0.11121 0.2079 0.26707 0.2186 3.1551 0.2186 1.671 0 3.1186-0.031 3.2169-0.069 0.16174-0.062 0.17877-1.467 0.17877-14.753v-14.685l1.4382 0.0666 11.571 12.888c6.3641 7.0885 12.383 13.79 13.375 14.893l1.8042 2.0053 2.0422-0.064zm9.2671 23.462c-0.52616-0.2436-1.0086-0.7252-1.1794-1.1775-0.0835-0.221-0.11945-7.0936-0.11772-22.49 2e-3 -21.41 0.01-22.188 0.21372-22.637 0.11619-0.25584 0.40352-0.61183 0.63853-0.79107l0.42728-0.32589 14.053-0.0294c13.931-0.0294 14.057-0.0278 14.503 0.2 0.24749 0.12622 0.58989 0.4408 0.76089 0.69903l0.31091 0.46955 0.0363 3.1164c0.0379 3.2511-0.01 3.7078-0.44755 4.3001-0.12202 0.16503-0.38454 0.39845-0.58339 0.51879-0.34798 0.21055-0.72212 0.22087-9.9677 0.27522l-9.6061 0.0565-0.0592 8.8715h7.7145c5.0345 4.4e-4 7.8628 0.0416 8.1414 0.11918 0.49166 0.13655 1.1491 0.67427 1.3871 1.1345 0.13226 0.25579 0.16375 0.96537 0.16375 3.6901v3.3734l-0.30103 0.4642c-0.16557 0.2554-0.50885 0.5834-0.76284 0.729l-0.46181 0.2646-15.878 0.062v9.6003h9.4402c8.265 0 9.4924 0.022 9.8589 0.1749 0.55845 0.2333 0.91622 0.5776 1.1687 1.1247 0.18605 0.4031 0.20884 0.7763 0.21049 3.4469 1e-3 1.7197-0.0479 3.1738-0.11488 3.4152-0.15613 0.5621-0.61962 1.0918-1.177 1.345-0.43509 0.1976-1.1075 0.2075-14.188 0.2075-13.127 0-13.751-0.01-14.183-0.2094zm27.722-1.7296c0.0981-0.098 0.13562-0.9041 0.13562-2.9157 0-2.0117-0.0375-2.8177-0.13562-2.9157-0.10347-0.1036-2.5543-0.1357-10.342-0.1357h-10.206l0.0291-6.6141 0.0292-6.6141h8.5325c5.223 0 8.5982-0.04 8.702-0.1059 0.26225-0.1668 0.31622-5.4429 0.0597-5.8345l-0.17791-0.27149h-17.173v-12.544h20.564l0.0623-0.25429c0.0342-0.13983 0.0479-1.4748 0.0304-2.9666l-0.0319-2.7123h-27.236l-0.0285 21.856c-0.021 16.061 5e-3 21.897 0.0986 22.009 0.17659 0.2128 26.874 0.2302 27.087 0.018zm7.425 1.7741c-1.1854-0.4192-1.694-1.7747-1.101-2.9344 0.17893-0.3498 12.778-20.45 13.163-20.999 0.21722-0.3101 0.21723-0.3173 5.5e-4 -0.6781-0.12044-0.2005-2.9802-4.6874-6.355-9.9707-3.3748-5.2834-6.2291-9.8095-6.343-10.058-0.24656-0.53866-0.26894-1.1704-0.0592-1.6723 0.20258-0.48487 0.88246-1.0688 1.3423-1.153 0.20333-0.0372 2.3315-0.0522 4.7292-0.0339l4.3594 0.0339 0.44362 0.29897c0.37379 0.25196 1.0558 1.3157 4.3326 6.7585 3.1009 5.1507 3.9166 6.4297 4.0253 6.3123 0.075-0.081 1.8288-2.9189 3.8975-6.3064 2.0686-3.3876 3.8935-6.3053 4.0552-6.484 0.56791-0.6272 0.64162-0.63586 5.3968-0.63586 4.2045 0 4.3945 9e-3 4.8624 0.23569 0.69188 0.33494 0.97973 0.79029 1.0335 1.6348 0.0316 0.49681-9e-3 0.79689-0.1444 1.0581-0.10371 0.20056-3.0588 4.8395-6.5668 10.309-3.508 5.4693-6.3782 9.966-6.3782 9.9925 0 0.027 3.0014 4.8282 6.6696 10.67 3.6683 5.8421 6.7197 10.754 6.7808 10.914 0.16429 0.4322 0.1349 1.373-0.0543 1.7389-0.22895 0.4428-0.77847 0.8811-1.279 1.0201-0.25107 0.07-1.9719 0.117-4.2741 0.1174-3.9115 0-4.2919-0.034-4.8798-0.4421-0.1417-0.098-2.2712-3.3979-4.7323-7.3322-3.9255-6.2752-4.4919-7.1283-4.6148-6.9503-0.0771 0.1116-1.9846 3.2035-4.2389 6.8707-2.2543 3.6673-4.2014 6.8135-4.3269 6.9917-0.12546 0.1781-0.48744 0.4446-0.80441 0.5922-0.57263 0.2666-0.60162 0.2683-4.5318 0.2645-3.1133-0.01-4.0517-0.038-4.4075-0.1637zm8.1732-1.7366c0.0821-0.052 2.2724-3.5476 4.8673-7.7679l4.718-7.6733 1.3407-0.056 4.577 7.3646c2.5174 4.0505 4.7177 7.56 4.8896 7.7988l0.31259 0.434 3.7544-0.03c3.348-0.027 3.7582-0.049 3.7894-0.2119 0.0193-0.1001-3.0754-5.1349-6.8771-11.188s-6.9369-11.069-6.9671-11.146c-0.0303-0.077 2.9761-4.8652 6.6808-10.641 3.7047-5.7754 6.7358-10.582 6.7358-10.681 0-0.16175-0.41907-0.18035-4.0713-0.18035h-4.0714l-0.4471 0.70636c-0.24591 0.38846-2.2407 3.6426-4.4329 7.2313l-3.9858 6.525-1.1301-0.012-4.1815-6.9642c-2.2998-3.8303-4.2747-7.0837-4.3886-7.2298l-0.20709-0.26567-4.0309 0.0294c-3.6344 0.0267-4.0296 0.0477-4.0177 0.21277 7e-3 0.10069 3.0205 4.8946 6.696 10.653 3.6755 5.7586 6.6828 10.492 6.6828 10.519s-3.1503 5.0719-7.0007 11.211c-5.2786 8.416-6.971 11.197-6.88 11.307 0.0939 0.1132 0.93804 0.145 3.808 0.1437 2.028 0 3.7545-0.044 3.8366-0.096z" fill="#fff" stroke-width=".11301"/>
</g>
</svg>
