<?xml version="1.0" encoding="UTF-8" standalone="no"?>
<!-- Created with Inkscape (http://www.inkscape.org/) -->

<svg
   xmlns:dc="http://purl.org/dc/elements/1.1/"
   xmlns:cc="http://creativecommons.org/ns#"
   xmlns:rdf="http://www.w3.org/1999/02/22-rdf-syntax-ns#"
   xmlns:svg="http://www.w3.org/2000/svg"
   xmlns="http://www.w3.org/2000/svg"
   xmlns:sodipodi="http://sodipodi.sourceforge.net/DTD/sodipodi-0.dtd"
   xmlns:inkscape="http://www.inkscape.org/namespaces/inkscape"
   width="250"
   height="91"
   viewBox="0 0 250 91"
   id="svg2"
   version="1.1"
   inkscape:version="0.92.2 (5c3e80d, 2017-08-06)"
   sodipodi:docname="nexusleeds.svg">
  <defs
     id="defs4" />
  <sodipodi:namedview
     id="base"
     pagecolor="#ffffff"
     bordercolor="#666666"
     borderopacity="1.0"
     inkscape:pageopacity="0.0"
     inkscape:pageshadow="2"
     inkscape:zoom="1.668772"
     inkscape:cx="283.05669"
     inkscape:cy="20.322213"
     inkscape:document-units="px"
     inkscape:current-layer="layer1"
     showgrid="false"
     inkscape:window-width="1920"
     inkscape:window-height="1001"
     inkscape:window-x="-9"
     inkscape:window-y="-9"
     inkscape:window-maximized="1"
     units="px" />
  <metadata
     id="metadata7">
    <rdf:RDF>
      <cc:Work
         rdf:about="">
        <dc:format>image/svg+xml</dc:format>
        <dc:type
           rdf:resource="http://purl.org/dc/dcmitype/StillImage" />
        <dc:title></dc:title>
      </cc:Work>
    </rdf:RDF>
  </metadata>
  <g
     inkscape:label="Layer 1"
     inkscape:groupmode="layer"
     id="layer1"
     transform="translate(0,-961.4)"
     style="opacity:1">
    <rect
       style="opacity:0;fill:#ffffff;fill-opacity:0;stroke:none;stroke-width:2.5;stroke-linecap:round;stroke-linejoin:round;stroke-miterlimit:4;stroke-dasharray:none;stroke-dashoffset:0;stroke-opacity:1"
       id="rect4175"
       width="250"
       height="91"
       x="0"
       y="961.4" />
    <path
       style="fill:#ffffff;stroke-width:0.11301319"
       d="m 27.10118,1038.5674 c -0.54108,-0.1275 -1.21412,-0.4697 -1.4612,-0.7429 -0.10536,-0.1165 -0.29496,-0.4397 -0.42132,-0.7183 -0.21277,-0.4691 -0.22995,-0.7344 -0.23224,-3.5862 l -0.002,-3.0796 h 0.78565 0.78566 l 0.0337,2.8738 c 0.0371,3.163 0.0342,3.1499 0.8118,3.7305 0.41869,0.3126 1.55174,0.3224 2.06016,0.018 0.73891,-0.4428 0.77434,-0.6069 0.81346,-3.7685 l 0.0353,-2.8535 h 0.79069 0.79068 l -0.0349,3.0796 -0.0349,3.0796 -0.32608,0.5884 c -0.37207,0.6714 -0.89803,1.0649 -1.76878,1.3236 -0.64574,0.1917 -1.93204,0.2191 -2.6252,0.056 z m 42.775,-0.046 c -0.60669,-0.1701 -1.26916,-0.469 -1.26916,-0.5727 0,-0.1565 0.58711,-1.1894 0.65554,-1.1532 0.75273,0.3973 1.05531,0.4784 1.79064,0.48 0.91953,0 1.28326,-0.2063 1.28326,-0.735 0,-0.4709 -0.36174,-0.8297 -1.35962,-1.3489 -1.5911,-0.8277 -2.06686,-1.4042 -2.06787,-2.5058 -5.5e-4,-0.8866 0.3848,-1.5254 1.18702,-1.9664 0.52544,-0.2889 0.71647,-0.3306 1.50588,-0.3287 0.56709,0 1.12528,0.078 1.49743,0.2043 l 0.59332,0.2022 v 0.7376 c 0,0.6588 -0.0212,0.7287 -0.19778,0.6545 -1.06449,-0.447 -1.36739,-0.5244 -1.86586,-0.4771 -0.63271,0.06 -0.98772,0.336 -0.98772,0.7679 0,0.4032 0.46666,0.8085 1.6762,1.4559 0.51493,0.2756 1.08372,0.6691 1.26396,0.8743 0.97007,1.1049 0.59927,2.8356 -0.74883,3.4951 -0.77997,0.3817 -2.03775,0.4735 -2.95641,0.216 z m 29.21909,0.01 c -1.17682,-0.3381 -1.92182,-0.9763 -2.45079,-2.0995 -0.25954,-0.5511 -0.29272,-0.7625 -0.29272,-1.8648 0,-1.1415 0.0266,-1.2974 0.32636,-1.9085 0.43027,-0.8773 1.05311,-1.4814 1.97332,-1.9142 0.68258,-0.3209 0.85036,-0.3528 1.8253,-0.3464 1.28515,0.01 2.08887,0.2739 2.84576,0.9401 1.26405,1.1127 1.66298,3.1175 0.98233,4.9367 -0.33305,0.8901 -1.17125,1.7273 -2.07988,2.0774 -0.8305,0.3199 -2.33907,0.4063 -3.12968,0.1792 z m 2.24997,-1.3152 c 0.51847,-0.1951 1.14508,-0.8899 1.34471,-1.4909 0.1256,-0.3781 0.17075,-0.828 0.14344,-1.4289 -0.0336,-0.7393 -0.0938,-0.9644 -0.38291,-1.432 -0.77292,-1.2501 -2.43779,-1.531 -3.50755,-0.5917 -1.43408,1.2591 -1.17569,4.1104 0.4389,4.8434 0.5246,0.2382 1.46871,0.2863 1.96341,0.1001 z m 41.02939,1.3595 c -0.33751,-0.085 -1.26271,-0.4874 -1.41257,-0.6149 -0.0225,-0.019 0.468,-0.9746 0.59765,-1.1641 0.0115,-0.017 0.29537,0.097 0.63073,0.2532 1.20296,0.56 2.50271,0.2767 2.50271,-0.5455 0,-0.428 -0.34415,-0.7558 -1.37763,-1.312 -1.60138,-0.862 -2.04102,-1.3966 -2.04102,-2.4824 0,-1.0047 0.47087,-1.7079 1.41267,-2.1097 0.60748,-0.2592 1.96391,-0.2588 2.74057,0 l 0.59332,0.1983 v 0.7376 c 0,0.6598 -0.0209,0.7286 -0.19778,0.6518 -0.65468,-0.2842 -1.3773,-0.4965 -1.70081,-0.4998 -0.51582,-0.01 -1.02215,0.2824 -1.10935,0.6299 -0.10988,0.4378 0.2446,0.8208 1.30008,1.4046 1.26083,0.6973 1.69394,1.0661 1.96082,1.6694 0.2956,0.6682 0.22009,1.56 -0.1838,2.1703 -0.42331,0.6397 -1.33061,1.0461 -2.42676,1.0871 -0.47481,0.018 -1.05478,-0.016 -1.28883,-0.074 z m -108.91471,-4.0651 v -4.0684 l 0.87585,0.01 0.87586,0.01 1.24314,1.5973 c 0.68373,0.8786 1.59322,2.058 2.02108,2.6209 0.42786,0.563 0.80929,1.0363 0.8476,1.0519 0.0383,0.015 0.0516,-1.1669 0.0295,-2.6276 l -0.0402,-2.6558 h 0.85951 0.85952 v 4.0684 4.0685 h -0.78551 -0.78552 l -1.73862,-2.232 c -0.95625,-1.2276 -1.92502,-2.4774 -2.15283,-2.7775 l -0.41421,-0.5455 v 2.7775 2.7775 H 34.3075 33.4599 Z m 9.60613,0 v -4.0684 h 0.84759 0.8476 v 4.0684 4.0685 h -0.8476 -0.84759 z m 6.39155,3.9657 c -0.11321,-0.1832 -3.22719,-7.8515 -3.22719,-7.947 0,-0.048 0.39779,-0.087 0.88398,-0.087 h 0.88397 l 1.05603,2.797 c 0.58081,1.5384 1.08642,2.8334 1.12358,2.8778 0.0372,0.044 0.49524,-0.9473 1.01795,-2.2038 0.52272,-1.2564 1.06806,-2.5514 1.21189,-2.8777 l 0.26151,-0.5933 h 0.84659 c 0.83618,0 0.84521,0.01 0.73332,0.2543 -0.0623,0.1398 -0.86328,1.9579 -1.77993,4.0402 l -1.66664,3.7859 -0.63746,0.034 c -0.3506,0.018 -0.66902,-0.018 -0.7076,-0.08 z m 6.0399,-3.9657 v -4.0684 h 2.31677 c 1.27422,0 2.31677,0.034 2.31677,0.075 0,0.041 -0.0856,0.3463 -0.19016,0.6781 l -0.19016,0.6032 h -1.27901 -1.27902 v 0.9606 0.9607 h 1.29965 1.29966 v 0.678 0.6781 h -1.29966 -1.29965 v 1.0736 1.0736 h 1.46917 1.46918 v 0.6781 0.6781 H 57.81427 55.4975 Z m 6.32873,-0.012 v -4.0806 l 1.72345,0.045 c 1.43468,0.037 1.80929,0.084 2.23575,0.2774 1.61959,0.7356 1.79542,2.9039 0.31359,3.8676 l -0.40999,0.2666 0.37408,0.4901 c 0.20574,0.2695 0.64086,0.9378 0.96694,1.4851 0.32606,0.5472 0.69129,1.1602 0.8116,1.3623 l 0.21874,0.3672 h -0.95541 -0.95542 l -0.84924,-1.4446 c -0.46709,-0.7947 -0.92821,-1.5104 -1.0247,-1.5904 -0.0965,-0.08 -0.31839,-0.1292 -0.49307,-0.1092 l -0.31762,0.037 -0.0314,1.5539 -0.0314,1.5539 h -0.7879 -0.78791 z m 3.12289,-0.5273 c 0.59672,-0.4833 0.66959,-1.2839 0.16122,-1.7709 -0.28141,-0.2697 -0.43291,-0.3205 -0.98887,-0.332 l -0.65654,-0.013 -0.0322,1.1584 -0.0322,1.1583 h 0.65378 c 0.44811,0 0.72961,-0.064 0.89483,-0.1978 z m 10.55171,0.5394 v -4.0685 h 0.8476 0.8476 v 4.0685 4.0684 h -0.8476 -0.8476 z m 5.28505,0.7063 -0.0299,-3.3621 -1.15839,-0.032 -1.15838,-0.032 v -0.6742 -0.6741 h 3.28499 c 3.0751,0 3.28134,0.013 3.22761,0.1978 -0.0316,0.1087 -0.11275,0.4121 -0.1804,0.674 l -0.12301,0.4762 -1.09861,0.032 -1.09862,0.032 -0.0299,3.3622 -0.0299,3.3621 h -0.78773 -0.78772 z m 7.82448,1.808 v -1.5542 l -1.36896,-2.3731 c -0.75292,-1.3051 -1.39406,-2.4365 -1.42475,-2.5142 -0.0419,-0.1059 0.17125,-0.1413 0.85158,-0.1413 h 0.90739 l 0.92172,1.6952 c 0.50695,0.9323 0.93955,1.6952 0.96133,1.6952 0.0218,0 0.43739,-0.7625 0.92355,-1.6944 l 0.88395,-1.6944 h 0.87875 0.87876 l -0.16185,0.3107 c -0.089,0.171 -0.72603,1.2951 -1.41557,2.4982 l -1.25372,2.1874 v 1.5703 1.5703 h -0.79109 -0.79109 z m 17.63006,-2.5143 v -4.0685 h 2.36104 2.36105 l -0.20087,0.6498 -0.20086,0.6498 -1.31258,0.032 -1.31259,0.032 v 1.0136 1.0135 h 1.29965 1.29966 v 0.6216 0.6216 h -1.29966 -1.29965 v 1.7517 1.7516 h -0.8476 -0.84759 z m 8.92804,0 v -4.0685 h 0.79109 0.79109 v 3.3904 3.3904 l 1.44092,-3e-4 1.44092,-2e-4 -0.0383,0.6783 -0.0383,0.6783 h -2.19372 -2.19372 z m 5.65066,0 v -4.0685 h 2.32438 2.32439 l -0.0803,0.2543 c -0.0441,0.1398 -0.14154,0.4322 -0.21642,0.6498 l -0.13616,0.3955 -1.28862,0.057 -1.28861,0.057 -0.0328,0.9323 -0.0328,0.9324 h 1.30422 1.30422 v 0.6744 0.6743 l -1.27139,0.032 -1.2714,0.032 -0.0325,1.0454 -0.0325,1.0453 h 1.52992 1.52992 v 0.6781 0.6781 h -2.31677 -2.31677 z m 6.10271,0 v -4.0685 h 2.36586 2.36587 l -0.22899,0.6781 -0.22899,0.6781 h -1.28928 -1.28927 v 0.9605 0.9607 h 1.29965 1.29965 v 0.678 0.6781 h -1.29965 -1.29965 v 1.0737 1.0736 h 1.52567 1.52568 v 0.6781 0.678 h -2.37328 -2.37327 z m 6.21573,0 v -4.0685 h 1.49742 c 2.61831,0 3.85754,0.359 4.77254,1.3767 0.65486,0.7283 0.90038,1.4657 0.89601,2.6909 -0.003,0.8076 -0.0543,1.0731 -0.32263,1.6667 -0.34962,0.7734 -0.99505,1.4476 -1.7585,1.8371 -0.7605,0.388 -1.84361,0.5606 -3.53091,0.5627 h -1.55393 z m 4.01742,2.3975 c 0.60494,-0.311 1.02461,-0.7765 1.2333,-1.3679 0.34935,-0.9902 0.16969,-2.086 -0.46323,-2.8254 -0.47403,-0.5538 -1.07543,-0.7945 -2.20198,-0.8814 l -0.89032,-0.069 v 2.7449 2.745 l 0.93782,-0.058 c 0.6258,-0.039 1.08639,-0.1349 1.38441,-0.2881 z m 68.59354,-12.7477 c -3.70863,-0.5729 -8.07625,-2.2429 -11.33585,-4.3345 -1.02877,-0.6602 -1.26511,-1.0027 -1.26511,-1.8335 0,-0.593 0.0327,-0.653 1.67963,-3.0781 0.92381,-1.3602 1.80107,-2.5405 1.94948,-2.6228 0.55506,-0.3076 0.98666,-0.1955 2.41504,0.6279 2.93985,1.6946 6.08544,3.0631 7.94724,3.4577 3.18563,0.6752 6.43096,-0.6794 7.67931,-3.2053 0.40426,-0.818 0.42337,-0.9079 0.42337,-1.9926 0,-1.3307 -0.17886,-1.9523 -0.86901,-3.0202 -1.19315,-1.846 -3.80238,-3.5673 -7.94601,-5.2419 -8.23961,-3.32987 -12.32723,-7.83094 -12.67793,-13.9602 -0.34234,-5.98321 3.26356,-11.11157 9.16721,-13.03787 2.07693,-0.67766 2.93115,-0.78962 6.05351,-0.7934 2.31897,-0.006 3.08049,0.0355 3.89896,0.1979 3.33272,0.65978 6.43008,1.91413 9.13033,3.69755 1.28106,0.84607 1.4364,1.05712 1.4364,1.95199 0,0.56209 -0.059,0.67389 -1.49244,2.82955 -1.55765,2.34245 -1.85413,2.68377 -2.52266,2.90442 -0.55294,0.18246 -0.73163,0.11952 -2.27092,-0.79989 -2.85434,-1.70498 -5.60951,-2.80928 -7.6146,-3.05214 -4.03341,-0.48854 -7.41219,2.35455 -6.79271,5.71571 0.17501,0.94949 0.71177,1.97931 1.44381,2.76999 1.32736,1.4337 3.00407,2.43715 6.71036,4.01589 5.24423,2.23388 7.62954,3.62663 9.99539,5.836 1.74378,1.6285 3.12912,3.8823 3.73826,6.0818 0.40206,1.4517 0.51342,4.3842 0.22478,5.9187 -1.09302,5.8111 -6.00516,10.0027 -12.86508,10.9779 -1.45725,0.2072 -4.86831,0.2014 -6.24076,-0.01 z m -39.10256,-0.226 c -4.22248,-0.652 -7.81871,-2.4656 -10.73625,-5.4143 -1.43628,-1.4516 -2.46278,-2.8893 -3.38956,-4.7474 -0.81837,-1.6409 -1.27795,-2.9593 -1.66247,-4.7693 l -0.25928,-1.2205 -0.0311,-15.59406 c -0.0233,-11.67178 0.002,-15.67408 0.10053,-15.91194 0.25759,-0.62193 0.42472,-0.64618 4.44342,-0.64618 h 3.67675 l 0.36908,0.32972 0.36907,0.32973 0.0575,15.18132 0.0574,15.18131 0.29651,1.0749 c 1.05747,3.8337 3.56147,6.3616 7.18294,7.2514 1.45648,0.3579 3.53655,0.3365 5.01452,-0.052 3.31671,-0.8708 5.70489,-3.125 6.85073,-6.4665 0.59734,-1.742 0.59887,-1.7864 0.59959,-17.42696 0,-10.99123 0.0332,-14.56017 0.13569,-14.78498 0.27075,-0.59423 0.44453,-0.61838 4.4477,-0.61838 h 3.68984 l 0.38802,0.38801 0.38801,0.38801 -0.0366,15.68813 -0.0366,15.68807 -0.30388,1.3689 c -1.60606,7.2346 -6.76023,12.5811 -13.88122,14.3993 -2.17165,0.5545 -5.54011,0.7214 -7.73027,0.3832 z m -105.37113,-0.2734 c -0.21003,-0.049 -0.50613,-0.1566 -0.65798,-0.2379 -0.15187,-0.081 -5.9006,-6.418 -12.77496,-14.0814 -6.87437,-7.6636 -12.54052,-13.93369 -12.59143,-13.93369 -0.0509,0 -0.10592,5.96659 -0.12221,13.25909 l -0.0297,13.2591 -0.28253,0.4185 c -0.17041,0.2525 -0.5122,0.5319 -0.86123,0.7042 l -0.57869,0.2856 -3.48979,-0.034 c -3.43186,-0.034 -3.49682,-0.039 -3.91457,-0.2985 -0.23364,-0.1453 -0.55149,-0.4803 -0.70633,-0.7445 l -0.28154,-0.4805 v -22.50047 c 0,-15.66308 0.0366,-22.59734 0.12054,-22.81876 0.17142,-0.45246 0.54312,-0.82382 1.0661,-1.06518 0.35683,-0.1647 0.73129,-0.20916 1.77767,-0.2111 1.80956,-0.006 1.94986,0.0637 3.38465,1.61916 0.64153,0.69548 6.25202,6.77766 12.46774,13.51597 l 11.30131,12.25148 0.0565,-12.81867 c 0.0417,-9.45451 0.091,-12.87806 0.18805,-13.04476 0.20557,-0.35321 0.74106,-0.82132 1.09071,-0.95343 0.20021,-0.0757 1.63674,-0.12018 3.8752,-0.12018 3.26747,0 3.5912,0.0172 3.97636,0.21399 0.51791,0.26434 0.75575,0.52107 0.98006,1.0579 0.15447,0.3697 0.17355,2.90521 0.17134,22.76808 -0.002,21.58637 -0.01,22.36787 -0.21373,22.81707 -0.26118,0.5752 -0.81563,1.011 -1.48125,1.1644 -0.58623,0.1351 -1.91559,0.1398 -2.47036,0.01 z m 2.30311,-24.01497 v -22.15064 h -3.27738 -3.27739 l -0.0287,14.09844 -0.0287,14.09837 h -0.71865 -0.71864 l -4.67729,-5.0632 c -2.57251,-2.78477 -8.54234,-9.24344 -13.26628,-14.35271 l -8.58898,-9.28931 h -1.02279 c -0.64481,0 -1.07289,0.05 -1.15839,0.13561 -0.18046,0.18046 -0.19887,43.83621 -0.0186,44.17291 0.11121,0.2079 0.26707,0.2186 3.15513,0.2186 1.67097,0 3.11858,-0.031 3.21689,-0.069 0.16174,-0.062 0.17877,-1.467 0.17877,-14.7533 v -14.68476 l 0.7191,0.0333 0.7191,0.0333 11.57108,12.88806 c 6.3641,7.0885 12.38299,13.7905 13.37531,14.8934 l 1.80423,2.0053 1.0211,-0.032 1.02111,-0.032 z m 9.26708,23.46197 c -0.52616,-0.2436 -1.00856,-0.7252 -1.17945,-1.1775 -0.0835,-0.221 -0.11945,-7.0936 -0.11772,-22.48957 0.002,-21.4102 0.01,-22.1875 0.21372,-22.63674 0.11619,-0.25584 0.40352,-0.61183 0.63853,-0.79107 l 0.42728,-0.32589 14.05266,-0.0294 c 13.93131,-0.0294 14.05653,-0.0278 14.50263,0.2 0.24749,0.12622 0.58989,0.4408 0.76089,0.69903 l 0.31091,0.46955 0.0363,3.11642 c 0.0379,3.25109 -0.01,3.70777 -0.44755,4.30011 -0.12202,0.16503 -0.38454,0.39845 -0.58339,0.51879 -0.34798,0.21055 -0.72212,0.22087 -9.96767,0.27522 l -9.60612,0.0565 -0.0296,4.43577 -0.0296,4.43577 h 7.71446 c 5.0345,4.4e-4 7.86276,0.0416 8.14135,0.11918 0.49166,0.13655 1.14908,0.67427 1.38709,1.1345 0.13226,0.25579 0.16375,0.96537 0.16375,3.69006 v 3.37337 l -0.30103,0.4642 c -0.16557,0.2554 -0.50885,0.5834 -0.76284,0.729 l -0.46181,0.2646 -7.93917,0.031 -7.93918,0.031 v 4.8002 4.8001 h 9.44023 c 8.26504,0 9.49235,0.022 9.85886,0.1749 0.55845,0.2333 0.91622,0.5776 1.16872,1.1247 0.18605,0.4031 0.20884,0.7763 0.21049,3.4469 10e-4,1.7197 -0.0479,3.1738 -0.11488,3.4152 -0.15613,0.5621 -0.61962,1.0918 -1.17698,1.345 -0.43509,0.1976 -1.10748,0.2075 -14.18783,0.2075 -13.1271,0 -13.75099,-0.01 -14.18316,-0.2094 z m 27.72213,-1.7296 c 0.0981,-0.098 0.13562,-0.9041 0.13562,-2.9157 0,-2.0117 -0.0375,-2.8177 -0.13562,-2.9157 -0.10347,-0.1036 -2.5543,-0.1357 -10.34161,-0.1357 H 80.01955 l 0.0291,-6.6141 0.0292,-6.6141 h 8.53249 c 5.22299,0 8.59825,-0.04 8.70202,-0.1059 0.26225,-0.1668 0.31622,-5.44293 0.0597,-5.8345 l -0.17791,-0.27149 h -8.5864 -8.58639 v -6.27225 -6.27225 h 10.28204 10.28205 l 0.0623,-0.25429 c 0.0342,-0.13983 0.0479,-1.47478 0.0304,-2.9666 l -0.0319,-2.71231 H 87.02816 73.41007 l -0.0285,21.85622 c -0.021,16.06087 0.005,21.89667 0.0986,22.00917 0.17659,0.2128 26.87449,0.2302 27.08701,0.018 z m 7.42497,1.7741 c -1.18545,-0.4192 -1.69405,-1.7747 -1.10095,-2.9344 0.17893,-0.3498 12.77846,-20.45027 13.16251,-20.99857 0.21722,-0.3101 0.21723,-0.3173 5.5e-4,-0.6781 -0.12044,-0.2005 -2.98016,-4.68736 -6.35497,-9.97071 -3.3748,-5.2834 -6.22914,-9.80954 -6.34296,-10.05817 -0.24656,-0.53866 -0.26894,-1.17042 -0.0592,-1.67234 0.20258,-0.48487 0.88246,-1.06883 1.34232,-1.15298 0.20333,-0.0372 2.33146,-0.0522 4.72915,-0.0339 l 4.35944,0.0339 0.44362,0.29897 c 0.37379,0.25196 1.05576,1.31574 4.33255,6.75851 3.10094,5.15068 3.91656,6.42968 4.02526,6.31228 0.075,-0.081 1.82885,-2.91886 3.8975,-6.30645 2.06865,-3.38758 3.89349,-6.30533 4.05519,-6.48396 0.56791,-0.6272 0.64162,-0.63586 5.3968,-0.63586 4.20449,0 4.39448,0.009 4.8624,0.23569 0.69188,0.33494 0.97973,0.79029 1.03352,1.63476 0.0316,0.49681 -0.009,0.79689 -0.1444,1.05812 -0.10371,0.20056 -3.05877,4.83949 -6.56681,10.30885 -3.50803,5.46931 -6.37825,9.96599 -6.37825,9.99249 0,0.027 3.00135,4.82817 6.66965,10.67027 3.66831,5.8421 6.71966,10.7536 6.7808,10.9144 0.16429,0.4322 0.1349,1.373 -0.0543,1.7389 -0.22895,0.4428 -0.77847,0.8811 -1.27897,1.0201 -0.25107,0.07 -1.97188,0.117 -4.27412,0.1174 -3.91148,0 -4.29192,-0.034 -4.87976,-0.4421 -0.1417,-0.098 -2.27123,-3.3979 -4.73231,-7.3322 -3.92547,-6.2752 -4.49188,-7.1283 -4.61482,-6.9503 -0.0771,0.1116 -1.9846,3.2035 -4.23893,6.8707 -2.25434,3.6673 -4.20144,6.8135 -4.32689,6.9917 -0.12546,0.1781 -0.48744,0.4446 -0.80441,0.5922 -0.57263,0.2666 -0.60162,0.2683 -4.53178,0.2645 -3.11332,-0.01 -4.0517,-0.038 -4.40751,-0.1637 z m 8.17321,-1.7366 c 0.0821,-0.052 2.2724,-3.5476 4.86732,-7.7679 l 4.71804,-7.6733 0.67033,-0.028 0.67033,-0.028 4.57703,7.3646 c 2.51737,4.0505 4.7177,7.56 4.88963,7.7988 l 0.31259,0.434 3.75437,-0.03 c 3.34802,-0.027 3.75815,-0.049 3.7894,-0.2119 0.0193,-0.1001 -3.07542,-5.1349 -6.87709,-11.1883 -3.80167,-6.0534 -6.93687,-11.06907 -6.96711,-11.14597 -0.0303,-0.077 2.97614,-4.86517 6.68084,-10.64067 3.70469,-5.77544 6.73581,-10.58201 6.73581,-10.68121 0,-0.16175 -0.41907,-0.18035 -4.07134,-0.18035 h -4.07135 l -0.4471,0.70636 c -0.24591,0.38846 -2.24072,3.64259 -4.4329,7.23134 l -3.9858,6.52505 -0.56506,-0.006 -0.56507,-0.006 -4.18149,-6.96417 c -2.29981,-3.83028 -4.27467,-7.08369 -4.38857,-7.22985 l -0.20709,-0.26567 -4.03091,0.0294 c -3.63442,0.0267 -4.0296,0.0477 -4.01766,0.21277 0.007,0.10069 3.0205,4.89461 6.69603,10.65318 3.67554,5.75856 6.68279,10.49222 6.68279,10.51922 0,0.027 -3.1503,5.07187 -7.00066,11.21067 -5.27861,8.416 -6.97098,11.1974 -6.87997,11.307 0.0939,0.1132 0.93804,0.145 3.80804,0.1437 2.02804,0 3.75452,-0.044 3.83662,-0.096 z"
       id="path864"
       inkscape:connector-curvature="0" />
  </g>
</svg>
