<?xml version="1.0" encoding="UTF-8" standalone="no"?>
<!-- Created with Inkscape (http://www.inkscape.org/) -->

<svg
   xmlns:dc="http://purl.org/dc/elements/1.1/"
   xmlns:cc="http://creativecommons.org/ns#"
   xmlns:rdf="http://www.w3.org/1999/02/22-rdf-syntax-ns#"
   xmlns:svg="http://www.w3.org/2000/svg"
   xmlns="http://www.w3.org/2000/svg"
   xmlns:sodipodi="http://sodipodi.sourceforge.net/DTD/sodipodi-0.dtd"
   xmlns:inkscape="http://www.inkscape.org/namespaces/inkscape"
   width="250"
   height="91"
   viewBox="0 0 250 91"
   id="svg2"
   version="1.1"
   inkscape:version="0.92.2 (5c3e80d, 2017-08-06)"
   sodipodi:docname="nhs-x.svg"
   inkscape:export-filename="C:\Users\Amy\Desktop\Assets\arup.png"
   inkscape:export-xdpi="90"
   inkscape:export-ydpi="90">
  <defs
     id="defs4" />
  <sodipodi:namedview
     id="base"
     pagecolor="#ffffff"
     bordercolor="#666666"
     borderopacity="1.0"
     inkscape:pageopacity="0.0"
     inkscape:pageshadow="2"
     inkscape:zoom="3.74"
     inkscape:cx="108.74117"
     inkscape:cy="63.287252"
     inkscape:document-units="px"
     inkscape:current-layer="layer1"
     showgrid="false"
     inkscape:window-width="1920"
     inkscape:window-height="1001"
     inkscape:window-x="-9"
     inkscape:window-y="-9"
     inkscape:window-maximized="1"
     units="px" />
  <metadata
     id="metadata7">
    <rdf:RDF>
      <cc:Work
         rdf:about="">
        <dc:format>image/svg+xml</dc:format>
        <dc:type
           rdf:resource="http://purl.org/dc/dcmitype/StillImage" />
        <dc:title></dc:title>
      </cc:Work>
    </rdf:RDF>
  </metadata>
  <g
     inkscape:label="Layer 1"
     inkscape:groupmode="layer"
     id="layer1"
     transform="translate(0,-961.4)">
    <rect
       style="opacity:0.001;fill:none;fill-opacity:1;stroke:none;stroke-width:2.5;stroke-linecap:round;stroke-linejoin:round;stroke-miterlimit:4;stroke-dasharray:none;stroke-dashoffset:0;stroke-opacity:1"
       id="rect4175"
       width="250"
       height="91"
       x="0"
       y="961.4" />
    <path
       inkscape:connector-curvature="0"
       id="path4544"
       d="M 30.128895,1006.8999 V 974.4 h 81.130325 81.13032 v 32.4999 32.5001 H 111.25923 30.128895 Z m 133.942705,27.2588 c 8.00626,-1.3029 13.8244,-4.7749 16.48458,-9.8371 1.31634,-2.5051 1.84981,-4.8463 1.87325,-8.2213 0.0224,-3.2197 -0.31991,-4.7603 -1.59138,-7.1627 -1.68818,-3.1897 -4.68836,-5.3751 -10.99996,-8.0129 -4.82593,-2.0169 -5.63766,-2.4242 -6.71238,-3.3678 -1.606,-1.4101 -1.61463,-3.8556 -0.019,-5.3607 1.30301,-1.2288 2.84805,-1.5977 7.23446,-1.7268 4.66039,-0.137 6.88546,0.1415 10.41518,1.3077 2.20486,0.728 2.63294,0.8047 2.90725,0.5206 0.33747,-0.3498 3.46853,-9.8664 3.46853,-10.5424 0,-0.5182 -2.09506,-1.2977 -5.01837,-1.8673 -5.75116,-1.1204 -14.42855,-1.2253 -19.45188,-0.2351 -10.55941,2.0815 -16.16991,8.0533 -16.14883,17.1889 0.0105,4.3102 0.78835,6.3335 3.45606,8.9827 1.93645,1.9232 4.17337,3.1887 9.08403,5.1393 5.67815,2.2552 7.56663,3.6403 7.8883,5.7853 0.57389,3.827 -2.51793,6.0525 -9.08314,6.5382 -3.93881,0.2911 -9.94266,-0.6978 -13.25249,-2.1832 -0.78495,-0.3523 -1.56881,-0.5862 -1.7419,-0.5197 -0.28498,0.1099 -3.54041,10.1446 -3.53013,10.882 0.0136,0.9259 8.31202,2.775 13.98408,3.1157 3.02533,0.1817 8.31497,-0.027 10.75366,-0.4234 z m -116.313164,-0.6788 c 0.31594,-0.3159 1.30344,-4.8127 3.88325,-17.6835 1.90277,-9.4928 3.5153,-17.2599 3.58339,-17.26 0.068,-2e-4 2.48632,7.8041 5.3738,17.3428 2.8875,9.539 5.32808,17.4697 5.42353,17.6242 0.25451,0.4117 18.05664,0.4013 18.31133,-0.015 0.34416,-0.5567 11.34303,-52.8299 11.19644,-53.2118 -0.13068,-0.3407 -0.92247,-0.3844 -6.97153,-0.3844 h -6.82404 l -0.20164,0.5378 c -0.11095,0.2957 -1.72411,8.0651 -3.58491,17.2655 -1.86081,9.2003 -3.46625,16.9301 -3.56767,17.1773 -0.12721,0.3101 -1.76617,-4.9095 -5.28993,-16.8475 -2.80805,-9.5131 -5.19937,-17.4848 -5.31406,-17.7149 -0.19308,-0.3872 -0.8786,-0.4182 -9.26686,-0.4182 -5.53989,0 -9.11351,0.089 -9.20037,0.2299 -0.18471,0.2988 -11.356753,52.5094 -11.356753,53.0738 0,0.2362 0.188189,0.4787 0.418201,0.5388 0.230012,0.06 3.241035,0.122 6.691152,0.137 5.70878,0.026 6.31108,-0.015 6.69667,-0.3959 z m 56.046654,0.1249 c 0.29896,-0.2211 0.9931,-3.1379 2.67435,-11.2373 1.24882,-6.0161 2.27059,-10.9897 2.27059,-11.0524 0,-0.063 3.60972,-0.1144 8.02161,-0.1144 7.52509,0 8.01432,0.026 7.90402,0.4182 -0.0646,0.2301 -1.10641,5.1956 -2.31501,11.0347 -2.08968,10.0958 -2.17619,10.6319 -1.76461,10.9329 0.6218,0.4546 13.67533,0.4599 14.29646,0 0.33443,-0.2445 1.59507,-5.931 5.91398,-26.6766 3.0189,-14.5011 5.43245,-26.513 5.36341,-26.6928 -0.10239,-0.2669 -1.46531,-0.3271 -7.40751,-0.3271 -4.08005,0 -7.34068,0.095 -7.41545,0.2159 -0.11051,0.1788 -4.1962,19.6379 -4.1962,19.9855 0,0.062 -3.60452,0.1114 -8.01004,0.1114 h -8.01006 l 0.12436,-0.5376 c 0.97747,-4.2288 3.89289,-19.1607 3.79228,-19.4228 -0.11487,-0.2994 -1.2224,-0.352 -7.40322,-0.352 h -7.26814 l -0.22167,0.5377 c -0.12195,0.2956 -2.663455,12.3021 -5.647854,26.6809 -5.1889,25.0001 -5.4069,26.1574 -4.98489,26.466 0.61583,0.4502 13.677804,0.4723 14.283664,0.024 z m 95.30622,-33.6168 c 0.18031,-0.253 2.18285,-2.5564 4.45009,-5.1188 2.26723,-2.5625 4.12223,-4.7849 4.12223,-4.9388 0,-0.1539 -0.91406,-2.2405 -2.03124,-4.6367 -1.11719,-2.3963 -2.03125,-4.4296 -2.03125,-4.5186 0,-0.089 0.7411,-0.1619 1.64691,-0.1619 h 1.64692 l 1.41273,3.5249 c 1.08743,2.7131 1.51986,3.5401 1.8779,3.5911 0.34448,0.05 1.2317,-0.8654 3.41963,-3.5249 l 2.95447,-3.5911 h 1.64571 c 0.90513,0 1.6457,0.065 1.6457,0.1446 0,0.08 -1.77435,2.1258 -3.94301,4.5477 -2.16864,2.4219 -3.94301,4.6071 -3.94301,4.8558 0,0.2489 1.02161,2.6308 2.27022,5.2933 1.24863,2.6625 2.27023,4.8753 2.27023,4.9173 0,0.042 -0.73942,0.077 -1.64317,0.077 h -1.64314 l -1.6151,-3.6444 c -1.72688,-3.8964 -1.92127,-4.2417 -2.38858,-4.2417 -0.16574,0 -1.65144,1.5987 -3.30154,3.5527 -3.99542,4.7311 -3.49357,4.3334 -5.46569,4.3334 -1.61705,0 -1.67167,-0.018 -1.357,-0.46 z"
       style="fill:#ffffff;stroke-width:0.23897004" />
  </g>
</svg>
