<?xml version="1.0" encoding="UTF-8"?>
<svg version="1.1" viewBox="0 0 250 91" xmlns="http://www.w3.org/2000/svg" xmlns:cc="http://creativecommons.org/ns#" xmlns:dc="http://purl.org/dc/elements/1.1/" xmlns:rdf="http://www.w3.org/1999/02/22-rdf-syntax-ns#">
<metadata>
<rdf:RDF>
<cc:Work rdf:about="">
<dc:format>image/svg+xml</dc:format>
<dc:type rdf:resource="http://purl.org/dc/dcmitype/StillImage"/>
<dc:title/>
</cc:Work>
</rdf:RDF>
</metadata>
<g transform="translate(0,-961.4)">
<path d="m30.129 1006.9v-32.5h162.26v65h-162.26zm133.94 27.259c8.0063-1.3029 13.824-4.7749 16.485-9.8371 1.3163-2.5051 1.8498-4.8463 1.8732-8.2213 0.0224-3.2197-0.31991-4.7603-1.5914-7.1627-1.6882-3.1897-4.6884-5.3751-11-8.0129-4.8259-2.0169-5.6377-2.4242-6.7124-3.3678-1.606-1.4101-1.6146-3.8556-0.019-5.3607 1.303-1.2288 2.848-1.5977 7.2345-1.7268 4.6604-0.137 6.8855 0.1415 10.415 1.3077 2.2049 0.728 2.6329 0.8047 2.9072 0.5206 0.33747-0.3498 3.4685-9.8664 3.4685-10.542 0-0.5182-2.0951-1.2977-5.0184-1.8673-5.7512-1.1204-14.429-1.2253-19.452-0.2351-10.559 2.0815-16.17 8.0533-16.149 17.189 0.0105 4.3102 0.78835 6.3335 3.4561 8.9827 1.9364 1.9232 4.1734 3.1887 9.084 5.1393 5.6782 2.2552 7.5666 3.6403 7.8883 5.7853 0.57389 3.827-2.5179 6.0525-9.0831 6.5382-3.9388 0.2911-9.9427-0.6978-13.252-2.1832-0.78495-0.3523-1.5688-0.5862-1.7419-0.5197-0.28498 0.1099-3.5404 10.145-3.5301 10.882 0.0136 0.9259 8.312 2.775 13.984 3.1157 3.0253 0.1817 8.315-0.027 10.754-0.4234zm-116.31-0.6788c0.31594-0.3159 1.3034-4.8127 3.8832-17.684 1.9028-9.4928 3.5153-17.26 3.5834-17.26 0.068-2e-4 2.4863 7.8041 5.3738 17.343 2.8875 9.539 5.3281 17.47 5.4235 17.624 0.25451 0.4117 18.057 0.4013 18.311-0.015 0.34416-0.5567 11.343-52.83 11.196-53.212-0.13068-0.3407-0.92247-0.3844-6.9715-0.3844h-6.824l-0.20164 0.5378c-0.11095 0.2957-1.7241 8.0651-3.5849 17.266-1.8608 9.2003-3.4662 16.93-3.5677 17.177-0.12721 0.3101-1.7662-4.9095-5.2899-16.848-2.808-9.5131-5.1994-17.485-5.3141-17.715-0.19308-0.3872-0.8786-0.4182-9.2669-0.4182-5.5399 0-9.1135 0.089-9.2004 0.2299-0.18471 0.2988-11.357 52.509-11.357 53.074 0 0.2362 0.18819 0.4787 0.4182 0.5388 0.23001 0.06 3.241 0.122 6.6912 0.137 5.7088 0.026 6.3111-0.015 6.6967-0.3959zm56.047 0.1249c0.29896-0.2211 0.9931-3.1379 2.6744-11.237 1.2488-6.0161 2.2706-10.99 2.2706-11.052 0-0.063 3.6097-0.1144 8.0216-0.1144 7.5251 0 8.0143 0.026 7.904 0.4182-0.0646 0.2301-1.1064 5.1956-2.315 11.035-2.0897 10.096-2.1762 10.632-1.7646 10.933 0.6218 0.4546 13.675 0.4599 14.296 0 0.33443-0.2445 1.5951-5.931 5.914-26.677 3.0189-14.501 5.4324-26.513 5.3634-26.693-0.10239-0.2669-1.4653-0.3271-7.4075-0.3271-4.08 0-7.3407 0.095-7.4154 0.2159-0.11051 0.1788-4.1962 19.638-4.1962 19.986 0 0.062-3.6045 0.1114-8.01 0.1114h-8.0101l0.12436-0.5376c0.97747-4.2288 3.8929-19.161 3.7923-19.423-0.11487-0.2994-1.2224-0.352-7.4032-0.352h-7.2681l-0.22167 0.5377c-0.12195 0.2956-2.6635 12.302-5.6479 26.681-5.1889 25-5.4069 26.157-4.9849 26.466 0.61583 0.4502 13.678 0.4723 14.284 0.024zm95.306-33.617c0.18031-0.253 2.1828-2.5564 4.4501-5.1188 2.2672-2.5625 4.1222-4.7849 4.1222-4.9388s-0.91406-2.2405-2.0312-4.6367c-1.1172-2.3963-2.0312-4.4296-2.0312-4.5186s0.7411-0.1619 1.6469-0.1619h1.6469l1.4127 3.5249c1.0874 2.7131 1.5199 3.5401 1.8779 3.5911 0.34448 0.05 1.2317-0.8654 3.4196-3.5249l2.9545-3.5911h1.6457c0.90513 0 1.6457 0.065 1.6457 0.1446 0 0.08-1.7744 2.1258-3.943 4.5477-2.1686 2.4219-3.943 4.6071-3.943 4.8558 0 0.2489 1.0216 2.6308 2.2702 5.2933 1.2486 2.6625 2.2702 4.8753 2.2702 4.9173s-0.73942 0.077-1.6432 0.077h-1.6431l-1.6151-3.6444c-1.7269-3.8964-1.9213-4.2417-2.3886-4.2417-0.16574 0-1.6514 1.5987-3.3015 3.5527-3.9954 4.7311-3.4936 4.3334-5.4657 4.3334-1.617 0-1.6717-0.018-1.357-0.46z" fill="#fff" stroke-width=".23897"/>
</g>
</svg>
