<?xml version="1.0" encoding="UTF-8"?>
<svg version="1.1" viewBox="0 0 250 91" xmlns="http://www.w3.org/2000/svg" xmlns:cc="http://creativecommons.org/ns#" xmlns:dc="http://purl.org/dc/elements/1.1/" xmlns:rdf="http://www.w3.org/1999/02/22-rdf-syntax-ns#">
<metadata>
<rdf:RDF>
<cc:Work rdf:about="">
<dc:format>image/svg+xml</dc:format>
<dc:type rdf:resource="http://purl.org/dc/dcmitype/StillImage"/>
<dc:title/>
</cc:Work>
</rdf:RDF>
</metadata>
<g transform="translate(0,-961.4)" fill="#fff">
<g transform="matrix(.15588 0 0 .15588 67.682 946.66)">
<g transform="matrix(.69292 0 0 .69292 59.46 -3.7227)" fill="#fff">
<g transform="translate(-151)">
<path d="m436.85 896.19c-12.65-1.53-31.16-6.24-32.41-8.25-0.56-0.9 1.92-25.99 2.63-26.71 0.26-0.25 3.09 0.69 6.29 2.11 3.2 1.41 9.82 3.72 14.72 5.12 7.55 2.17 10.38 2.49 18.59 2.14 11.07-0.48 16.55-2.44 22.91-8.19 6.95-6.28 11.19-19.3 11.25-34.55v-5.43l-2.75 3.68c-8.71 11.65-27.68 18.31-45 15.8-20.18-2.93-33.7-15.86-39.9-38.12-2.58-9.28-2.62-37.71-0.1-46.97 2.82-10.23 8.22-20.39 14.38-27.04 10.02-10.82 20.11-14.99 36.31-14.99 16.03 0 27.68 5.03 34.98 15.1l2.96 4.08 0.58-16.68h15.5 15.5l0.28 56.5c0.16 32.4-0.15 60.81-0.72 66.59-3.6 36.52-23.49 54.47-61.88 55.85-5.87 0.21-12.26 0.19-14.18 0zm26.5-81.27c10.75-4.89 17.5-19.01 17.5-36.63 0-23.63-10.58-38.43-27.5-38.47-11.48 0-21.07 7.04-25.63 18.89-3.05 7.91-3.78 25.45-1.4 33.63 3.33 11.45 8.48 18.73 15.8 22.36 5.48 2.7 15.54 2.81 21.23 0.22zm187.62 29.74c-12.02-1.99-21.74-9.32-26.74-20.14l-2.88-6.23-1-77-23.5-0.56v-11.97-11.97h12 12v-12.45-12.44l14.57-4.61c8.01-2.54 15.21-4.86 16-5.16 1.21-0.47 1.43 2.17 1.43 17.05v17.61h14.5 14.5v11.97 11.98l-14.25 0.27-14.25 0.28v33.5c0 32.87 0 33.58 2.26 37.73 1.24 2.33 3.58 4.91 5.2 5.75 3.6 1.86 13.17 1.92 18.24 0.11 4.74-1.69 4.8-1.54 4.8 12.92 0 13.12 1.12 11.91-12.5 13.46-10.28 1.16-12.89 1.15-20.38-0.1zm85.38 0.11c-15.63-2.79-26.7-10.63-32.3-22.85-2-4.37-2.5-7.08-2.52-13.55-0.1-22.76 12.11-36.01 37.82-41.16 3.85-0.77 15.26-1.7 25.36-2.07l18.36-0.67-0.67-5.01c-1.83-13.82-8.1-19.46-23.55-21.17-10.98-1.21-29.69 4.16-39.96 11.47l-2.8 2-0.72-13.42c-0.39-7.38-0.43-13.88-0.1-14.45 0.95-1.55 18.01-6.73 26.68-8.12 11.4-1.82 33.65-0.83 41.94 1.86 13.72 4.44 22.45 13.96 26.19 28.57 1.94 7.53 2.32 15.77 3.21 68.34l0.47 28.25h-13.86c-15.84 0-15.06 0.48-15.09-9.33 0-8.76-0.96-9.61-4.78-4.29-8.12 11.29-28.03 18.41-43.7 15.6zm28.42-25.56c2.32-0.93 6.22-3.98 9.06-7.08 5.39-5.91 7.62-11.45 8.71-21.7l0.62-5.87-14.91 0.48c-16.93 0.54-23.45 2.1-28.97 6.94-4.86 4.27-6.43 7.76-6.43 14.28 0 4.89 0.39 5.99 3.29 9.14 5.7 6.22 18.38 7.91 28.63 3.81zm-596.92-61.3v-85.12h29.75c31.77 0 42.4 0.85 56.87 4.51 28.54 7.22 45.78 23.18 54.01 50.02 2.64 8.57 2.76 9.91 2.77 29.97 0 18.55-0.24 21.91-2.16 28.8-8.59 30.72-28.9 47.49-65.74 54.28-6.73 1.23-17.39 1.78-42.25 2.16l-33.25 0.51zm66.4 55.9c10.29-2.63 18.6-7.2 25.61-14.11 10.31-10.15 15.64-22.38 16.62-38.13 1.79-28.95-14.96-53.2-41.68-60.3-3.49-0.93-10.39-1.46-19.2-1.47h-13.75v58 58h12.34c9.02 0 14.42-0.53 20.06-1.98zm102.6-34.02v-63h16 16v63 63h-16-16zm206 0v-63.05l16.25 0.28 16.25 0.27v62.5 62.5l-16.25 0.27-16.25 0.28zm298-28.5v-91.5h16 16v91.5 91.5h-16-16zm-504-72.5v-16h16 16v16 16h-16-16zm206 0v-16.05l16.25 0.28 16.25 0.27v15.5 15.5l-16.25 0.27-16.25 0.28z" fill="#fff"/>
</g>
<path d="m16.851 401.79v-172h428 428v172 172h-428-428zm705.91 140.03c25.2-4.48 47.03-13.09 61.59-24.29 13.51-10.39 24.5-26.87 28.89-43.34 5.69-21.32 3.27-46.62-5.91-61.87-10.62-17.63-25.22-27.75-59.9-41.52-32.66-12.97-41.22-20.62-39.07-34.93 0.92-6.11 2.66-9.21 7.49-13.35 5.45-4.66 14.48-7.44 28.7-8.84 21.94-2.16 46.38 0.4 64.8 6.78 5.5 1.9 10.9 3.69 12 3.96 1.82 0.45 2.81-2.01 10.82-26.71 6.95-21.44 8.54-27.4 7.5-28.07-2.96-1.92-17.96-6.08-28.3-7.84-22.93-3.92-59.21-5.25-80.31-2.95-49.1 5.36-81.65 25.35-94.07 57.8-4.42 11.54-5.57 18.33-5.6 33.14 0 11.25 0.35 14.67 2.2 20.5 4.44 13.96 12.37 24.14 25.6 32.88 10.67 7.05 13.47 8.41 36.49 17.73 22.64 9.16 30.09 13.12 35.87 19.07 5.42 5.57 7.31 10.25 7.28 18.04 0 8.19-2.33 13.11-8.88 19-9.92 8.92-22.98 12.12-49.6 12.16-25.82 0-46.67-3.89-62.75-11.83-3.71-1.84-6.75-3.19-6.75-3 0 0.18-3.83 12.61-8.5 27.63-4.67 15.01-8.5 27.6-8.5 27.98 0 2.37 34.96 10.29 61 13.82 3.58 0.49 17.52 0.74 31 0.57 19.83-0.25 26.87-0.73 36.91-2.52zm-603.26-41.53c4.48-22 13.22-65.1 19.42-95.78 6.2-30.67 11.57-55.42 11.94-55 0.36 0.43 13.39 42.85 28.95 94.28s28.71 94.29 29.2 95.25c0.85 1.63 4.11 1.75 46.81 1.75 42.84 0 45.93-0.12 46.43-1.75 0.77-2.5 58.6-274.25 58.6-275.36 0-0.54-14.35-0.81-35.25-0.65l-35.24 0.26-19.46 95.76c-10.7 52.67-19.76 95.2-20.13 94.5-0.37-0.69-12.68-41.76-27.35-91.26s-27.36-92.14-28.2-94.75l-1.53-4.75h-46.7-46.7l-29.309 136.75c-16.11 75.21-29.54 137.77-29.83 139.01l-0.52 2.27 35.36-0.27 35.359-0.26zm286.2 38.25c0.43-1.24 6.13-28.01 12.65-59.5l11.86-57.25h43.82c24.27 0 43.82 0.39 43.82 0.87s-5.4 26.69-12 58.25c-6.59 31.56-11.99 57.94-12 58.63 0 0.98 8.05 1.25 36.94 1.25 20.75 0 37.19-0.39 37.5-0.9 0.3-0.49 13.17-61.32 28.59-135.16 15.42-73.85 28.42-136 28.9-138.11l0.86-3.83h-37.65-37.64l-10.93 52.99-10.93 53h-43.82c-24.1 0-43.82-0.34-43.81-0.75 0-0.41 4.87-24.26 10.81-53l10.8-52.25h-37.56-37.56l-28.8 138.24c-15.84 76.04-28.78 138.59-28.75 139 0 0.41 16.71 0.75 37.07 0.75h37.03l0.8-2.25z" fill="#fff"/>
</g>
</g>
</g>
</svg>
