<?xml version="1.0" encoding="UTF-8"?>
<svg version="1.1" viewBox="0 0 250 91" xmlns="http://www.w3.org/2000/svg" xmlns:cc="http://creativecommons.org/ns#" xmlns:dc="http://purl.org/dc/elements/1.1/" xmlns:rdf="http://www.w3.org/1999/02/22-rdf-syntax-ns#" xmlns:xlink="http://www.w3.org/1999/xlink">
<g fill="#ffffff" stroke-width=".18171">
<path d="m78.326 5.5a0.71049 0.71049 0 0 0-0.66602 0.86914l2.4043 10.945 0.001953 0.001953 3.2695 10.172 3.709 9.8516 3.5039 7.3887 3.2148 9.2637h-0.001953v0.001953c-0.007059 0.003417-3.7633 1.8222-5.6758 5.834h-0.001954l-9.1113 12.846 3.0684-2.2559s-4.2306 15.193-4.1797 15.082c0.050623-0.11028 8.4497-10.573 8.5352-10.68l0.035157-0.017578-1.6953 9.0723 10.098-15.779v-0.001953c1.0221-1.3178 5.0859-1.9141 5.0859-1.9141 3.2962-0.87767 7.4746-1.1484 7.4746-1.1484 3.5797-0.98488 8.2891-4.5664 8.2891-4.5664 3.9995-3.9777 5.7949-9.918 5.7949-9.918s1.6279-4.8431 1.9805-5.1992c0.35191-0.35554 2.0228-1.5306 3.1367-3.4707l0.00977-0.001953c0.39432-0.34889 0.80078-1.2734 0.80078-1.2734l-0.00391-0.005859 0.03516-0.10352c3.0168 0.43148 12.91 1.8446 14.52 2.0918 1.9679 0.30346 6.9043 1.4707 6.9043 1.4707s-5.3632-3.8288-21.332-6.3164l-0.00586 0.011719c-2.2226-2.7285-5.2051-3.7988-5.2051-3.7988h-0.00195s-4.9055-2.3613-9.4102 3.1445c0 0-1.1596 1.4311-1.4746 2.7227l-7.1523-13.809-5.7422-10.584 0.001953-0.009765-0.82031-1.7363a0.36342 0.36342 0 0 0-0.30078-0.22461c-0.18171-0.01272-0.36474 0.053133-0.61914 0.42383-0.43604 0.65951-1.1727 3.7763-0.097656 7.8711a16.61 16.61 0 0 0 1.1484 4.2793l-1.9434-2.7598s-8.6879-12.427-17.174-17.66a0.71049 0.71049 0 0 0-0.40625-0.10938zm19.736 26.338 6.2969 3.8945-6.2969-3.8945zm19.42 12.031-0.00781 0.017578-0.00586 0.003906v-0.001953l0.01367-0.019531zm-13.877 9.4863 0.06836 0.25586h-0.00586-0.00195-0.00196c0.00304-0.001589-0.05343-0.22359-0.05859-0.25586zm4.6758 3.3223h0.00195l-0.01172 0.052735 0.00391-0.042969 0.00586-0.009766zm-10.662 0.48828h0.003906l0.001953 0.007812-0.005859 0.011719 0.003906-0.019531-0.013672 0.011718 0.009766-0.011718zm-4.332 4.9766-0.003906 0.007813-0.003906-0.001953h0.001953l0.001953 0.001953v-0.003907l0.003906-0.003906z" fill-opacity=".7"/>
<path class="cls-31" d="m126.56 65.153a2.8129 2.8129 0 0 0-1.3047-0.90856 4.69 4.69 0 0 0-1.5591-0.29801 4.1249 4.1249 0 0 0-0.88857 0.09994 3.3162 3.3162 0 0 0-0.86313 0.31436 1.848 1.848 0 0 0-0.66143 0.56876 1.4537 1.4537 0 0 0-0.25803 0.86131 1.4283 1.4283 0 0 0 0.6051 1.2447 5.7148 5.7148 0 0 0 1.5336 0.74138q0.92309 0.30709 1.9988 0.616a8.2915 8.2915 0 0 1 1.9898 0.86858 4.7554 4.7554 0 0 1 1.53 1.5028q0.6051 0.94308 0.59964 2.5149a5.7603 5.7603 0 0 1-0.57966 2.6148 5.3042 5.3042 0 0 1-1.5155 1.848 6.3962 6.3962 0 0 1-2.2114 1.0903 10.123 10.123 0 0 1-5.9038-0.20352 8.157 8.157 0 0 1-2.7856-1.7353l2.8274-3.0891a4.1212 4.1212 0 0 0 1.5318 1.2611 4.3138 4.3138 0 0 0 2.891 0.3398 3.2508 3.2508 0 0 0 0.89038-0.3398 1.9407 1.9407 0 0 0 0.63599-0.58148 1.4537 1.4537 0 0 0 0.2435-0.83769 1.5155 1.5155 0 0 0-0.60147-1.2738 5.7039 5.7039 0 0 0-1.5573-0.80498q-0.93763-0.33253-2.0279-0.66688a9.0856 9.0856 0 0 1-2.037-0.89039 4.888 4.888 0 0 1-1.5554-1.4773q-0.61964-0.90856-0.61419-2.4131a5.3896 5.3896 0 0 1 0.57966-2.544 5.5077 5.5077 0 0 1 1.5282-1.8171 6.6434 6.6434 0 0 1 2.1987-1.0903 9.062 9.062 0 0 1 2.5658-0.36342 10.092 10.092 0 0 1 2.9419 0.43792 6.7887 6.7887 0 0 1 2.5585 1.4537zm16.436 0.33435a3.9032 3.9032 0 0 0-1.4319-1.0903 4.8063 4.8063 0 0 0-1.9588-0.38341 4.928 4.928 0 0 0-3.7233 1.6245 5.6331 5.6331 0 0 0-1.0903 1.8371 6.9923 6.9923 0 0 0-0.0145 4.63 5.7566 5.7566 0 0 0 1.0721 1.8317 4.8644 4.8644 0 0 0 1.6063 1.2102 4.6445 4.6445 0 0 0 1.9988 0.43792 4.4537 4.4537 0 0 0 2.1587-0.49971 4.2884 4.2884 0 0 0 1.5518-1.4155l3.2908 2.4713a6.8741 6.8741 0 0 1-2.9074 2.3513 8.9638 8.9638 0 0 1-3.607 0.74865 11.084 11.084 0 0 1-3.8795-0.67233 8.8748 8.8748 0 0 1-3.0636-1.9007 8.555 8.555 0 0 1-2.0079-2.9892 10.919 10.919 0 0 1 0.0254-7.8136 8.5586 8.5586 0 0 1 2.0279-2.9746 8.8911 8.8911 0 0 1 3.0764-1.8807 11.05 11.05 0 0 1 3.885-0.64689 9.5889 9.5889 0 0 1 1.5863 0.14537 8.5186 8.5186 0 0 1 1.6227 0.44883 7.2467 7.2467 0 0 1 1.5318 0.8177 6.1782 6.1782 0 0 1 1.3156 1.2465zm3.8777-4.6227h4.3102l2.8183 11.508h0.0509l3.7941-11.508h3.676l3.7033 11.851h0.0509l3.0691-11.851h4.0122l-5.3151 17.971h-3.5416l-3.9141-12.438h-0.0491l-3.9976 12.433h-3.3889z"/>
</g>
</svg>
