<?xml version="1.0" encoding="UTF-8"?>
<svg version="1.1" viewBox="0 0 250 91" xml:space="preserve" xmlns="http://www.w3.org/2000/svg" xmlns:cc="http://creativecommons.org/ns#" xmlns:dc="http://purl.org/dc/elements/1.1/" xmlns:rdf="http://www.w3.org/1999/02/22-rdf-syntax-ns#"><defs><style>.cls-1{fill:#fff}.cls-2{clip-path:url(#a)}.cls-3{fill:none}</style><clipPath id="a"><rect class="cls-3" x="75.11" y="25.54" width="599.77" height="198.91"/></clipPath></defs><g transform="matrix(1.2448 0 0 1.2448 63.467 -11659)" fill="#fff" data-name="Group 93"><path transform="translate(-81.747 9347.5)" d="m103.93 44.2v5.74l-4.313-5.74h-2.276v10.769h2.708v-5.737l4.314 5.736h2.276v-10.768z" data-name="Path 188"/><path transform="translate(-240.42 9347.5)" d="m335.15 44.2v5.74l-4.314-5.74h-2.276v10.769h2.708v-5.737l4.314 5.736h2.276v-10.768z" data-name="Path 189"/><path transform="translate(-105.41 9347.5)" d="m137.12 54.969a5.32 5.32 0 0 0 2.711-0.7 4.99 4.99 0 0 0 1.889-1.923 5.914 5.914 0 0 0 0-5.53 5 5 0 0 0-1.889-1.923 5.639 5.639 0 0 0-5.423 0 4.993 4.993 0 0 0-1.889 1.923 5.914 5.914 0 0 0 0 5.53 4.988 4.988 0 0 0 1.889 1.923 5.32 5.32 0 0 0 2.712 0.7m0-2.425a2.389 2.389 0 0 1-1.305-0.37 2.568 2.568 0 0 1-0.924-1.042 3.683 3.683 0 0 1 0-3.09 2.571 2.571 0 0 1 0.924-1.042 2.488 2.488 0 0 1 2.61 0 2.575 2.575 0 0 1 0.924 1.043 3.683 3.683 0 0 1 0 3.09 2.572 2.572 0 0 1-0.924 1.042 2.389 2.389 0 0 1-1.3 0.37" data-name="Path 190"/><path transform="translate(-100.57 9319)" d="m129.87 96.184a5.123 5.123 0 0 0 2.62-0.675 4.834 4.834 0 0 0 1.826-1.866 5.765 5.765 0 0 0 0-5.369 4.836 4.836 0 0 0-1.826-1.866 5.424 5.424 0 0 0-5.241 0 4.835 4.835 0 0 0-1.826 1.866 5.765 5.765 0 0 0 0 5.369 4.833 4.833 0 0 0 1.826 1.866 5.121 5.121 0 0 0 2.62 0.675m0-2.355a2.3 2.3 0 0 1-1.261-0.359 2.489 2.489 0 0 1-0.893-1.012 3.589 3.589 0 0 1 0-3 2.494 2.494 0 0 1 0.893-1.012 2.394 2.394 0 0 1 2.522 0 2.5 2.5 0 0 1 0.893 1.012 3.593 3.593 0 0 1 0 3 2.492 2.492 0 0 1-0.893 1.012 2.3 2.3 0 0 1-1.261 0.359" data-name="Path 191"/><path transform="translate(-215.57 9319)" d="m297.46 96.114a5.11 5.11 0 0 0 2.62-0.677 4.844 4.844 0 0 0 1.826-1.872 5.8 5.8 0 0 0 0-5.386 4.845 4.845 0 0 0-1.826-1.872 5.411 5.411 0 0 0-5.241 0 4.845 4.845 0 0 0-1.826 1.872 5.8 5.8 0 0 0 0 5.386 4.844 4.844 0 0 0 1.826 1.872 5.112 5.112 0 0 0 2.62 0.677m0-2.362a2.293 2.293 0 0 1-1.261-0.36 2.5 2.5 0 0 1-0.893-1.015 3.614 3.614 0 0 1 0-3.01 2.5 2.5 0 0 1 0.893-1.015 2.389 2.389 0 0 1 2.522 0 2.5 2.5 0 0 1 0.893 1.015 3.611 3.611 0 0 1 0 3.01 2.5 2.5 0 0 1-0.893 1.015 2.3 2.3 0 0 1-1.261 0.36" data-name="Path 192"/><path transform="translate(-131.83,9347.5)" d="m176.36 54.927h2.956l-2.105-3.39a3.475 3.475 0 0 0 1.415-1.363 4.061 4.061 0 0 0 0.495-2.041 4.107 4.107 0 0 0-0.53-2.118 3.521 3.521 0 0 0-1.506-1.386 5.108 5.108 0 0 0-2.3-0.485h-4.462v10.783h2.761v-2.865h1.506zm-0.028-6.794a1.523 1.523 0 0 1-0.433 1.167 1.805 1.805 0 0 1-1.283 0.408h-1.534v-3.162h1.534a1.783 1.783 0 0 1 1.283 0.416 1.549 1.549 0 0 1 0.432 1.171" data-name="Path 193"/><path transform="translate(-174.5 9318.8)" d="m238.31 96.364h2.842l-2.025-3.259a3.342 3.342 0 0 0 1.361-1.311 3.9 3.9 0 0 0 0.476-1.963 3.949 3.949 0 0 0-0.51-2.037 3.388 3.388 0 0 0-1.451-1.333 4.918 4.918 0 0 0-2.212-0.467h-4.288v10.37h2.655v-2.756h1.445zm-0.027-6.533a1.465 1.465 0 0 1-0.415 1.118 1.735 1.735 0 0 1-1.234 0.393h-1.475v-3.037h1.475a1.714 1.714 0 0 1 1.234 0.4 1.491 1.491 0 0 1 0.415 1.126" data-name="Path 194"/><path transform="translate(-218.25 9347.5)" d="m302.3 54.927h2.956l-2.105-3.39a3.475 3.475 0 0 0 1.415-1.363 4.061 4.061 0 0 0 0.5-2.041 4.1 4.1 0 0 0-0.53-2.118 3.519 3.519 0 0 0-1.506-1.386 5.105 5.105 0 0 0-2.3-0.485h-4.462v10.783h2.761v-2.865h1.506zm-0.028-6.794a1.523 1.523 0 0 1-0.432 1.163 1.8 1.8 0 0 1-1.282 0.408h-1.534v-3.158h1.534a1.782 1.782 0 0 1 1.282 0.416 1.549 1.549 0 0 1 0.432 1.171" data-name="Path 195"/><path transform="translate(-197.66 9347.5)" d="m268.99 52.616v-1.968h4.323v-2.277h-4.323v-1.814h4.907v-2.357h-7.631v10.769h7.812v-2.353z" data-name="Path 196"/><path transform="translate(-156.66 9319)" d="m209.14 93.9v-1.912h4.175v-2.21h-4.175v-1.761h4.739v-2.285h-7.37v10.452h7.545v-2.284z" data-name="Path 197"/><path transform="translate(-277.92 9319)" d="m385.84 93.9v-1.912h4.175v-2.21h-4.175v-1.761h4.739v-2.285h-7.37v10.452h7.545v-2.284z" data-name="Path 198"/><path transform="translate(-173.33 9347.5)" d="m237.28 44.143v4.052h-3.738v-4.052h-2.744v10.784h2.742v-4.206h3.738v4.206h2.742v-10.784z" data-name="Path 199"/><path transform="translate(-194.16 9319)" d="m267.4 85.63v3.939h-3.6v-3.939h-2.64v10.484h2.64v-4.089h3.6v4.089h2.64v-10.484z" data-name="Path 200"/><path transform="translate(-152.41 9347.5)" d="m203.29 54.968h2.731v-8.35h2.952v-2.418h-8.65v2.415h2.966z" data-name="Path 201"/><path transform="translate(-111.66 9368.4)" d="m142.74 19.358v-1.325h2.868v-1.533h-2.868v-1.22h3.257v-1.58h-5.063v7.245h5.183v-1.587z" data-name="Path 202"/><path transform="translate(-95.414 9368.4)" d="m121.7 13.7v2.722h-2.565v-2.722h-1.881v7.245h1.881v-2.829h2.565v2.826h1.881v-7.242z" data-name="Path 203"/><path transform="translate(-81.747 9368.4)" d="m99.307 20.941h1.812v-5.62h1.959v-1.621h-5.739v1.625h1.968z" data-name="Path 204"/><path transform="translate(-81.747 9318.9)" d="m101.63 85.767h-4.29v10.441h2.654v-2.73h1.636a4.882 4.882 0 0 0 2.212-0.47 3.408 3.408 0 0 0 1.448-1.335 3.955 3.955 0 0 0 0.509-2.043 4 4 0 0 0-0.509-2.051 3.4 3.4 0 0 0-1.448-1.343 4.887 4.887 0 0 0-2.212-0.47m-0.161 5.385h-1.475v-3.057h1.475a1.706 1.706 0 0 1 1.233 0.4 1.507 1.507 0 0 1 0.415 1.134 1.481 1.481 0 0 1-0.415 1.126 1.727 1.727 0 0 1-1.233 0.4" data-name="Path 205"/><path transform="translate(-122.5 9319)" d="m169.7 85.732-1.982 6.734-1.9-6.734h-2.453l-2 6.675-1.9-6.675h-2.75l3.06 10.452h2.858l1.887-6.361 1.806 6.361h2.858l3.06-10.452z" data-name="Path 206"/><path transform="translate(-239.33 9319)" d="m331.38 96.114a4.2 4.2 0 0 0 3.244-1.248 5.014 5.014 0 0 0 1.157-3.539v-5.7h-2.609v5.609q0 2.467-1.766 2.467t-1.779-2.467v-5.606h-2.649v5.7a5.012 5.012 0 0 0 1.157 3.539 4.2 4.2 0 0 0 3.244 1.248" data-name="Path 207"/><path transform="translate(-259.16 9319.6)" d="m359.79 95.5a5.1 5.1 0 0 0 2.249-0.451 3.238 3.238 0 0 0 1.389-1.2 3.158 3.158 0 0 0 0.463-1.686 2.638 2.638 0 0 0-0.509-1.708 3.038 3.038 0 0 0-1.2-0.917 11.725 11.725 0 0 0-1.753-0.54 7.053 7.053 0 0 1-1.362-0.429 0.662 0.662 0 0 1-0.423-0.621 0.8 0.8 0 0 1 0.357-0.673 1.967 1.967 0 0 1 1.137-0.259 4.966 4.966 0 0 1 2.566 0.8l0.807-2.174a5.182 5.182 0 0 0-1.561-0.673 7.156 7.156 0 0 0-1.8-0.229 5.164 5.164 0 0 0-2.255 0.444 3.182 3.182 0 0 0-1.382 1.205 3.222 3.222 0 0 0-0.463 1.708 2.688 2.688 0 0 0 0.5 1.715 2.949 2.949 0 0 0 1.2 0.924 12.139 12.139 0 0 0 1.746 0.54 7.32 7.32 0 0 1 1.382 0.451 0.7 0.7 0 0 1 0.43 0.658q0 0.843-1.508 0.843a4.956 4.956 0 0 1-1.613-0.281 5.3 5.3 0 0 1-1.442-0.739l-0.86 2.159a5.094 5.094 0 0 0 1.72 0.828 7.706 7.706 0 0 0 2.182 0.311" data-name="Path 208"/><rect transform="translate(78.587 9417.6)" width="2.228" height="8.498" data-name="Rectangle 56"/><path transform="translate(-94.58 9290.7)" d="m122.52 135.39h2.194l-3.3-8.421h-2.077l-3.291 8.421h2.151l0.586-1.636h3.153zm-3.12-3.392 0.958-2.7 0.959 2.7z" data-name="Path 209"/><path transform="translate(-142.25 9290.7)" d="m190.64 126.9v4.5l-3.359-4.5h-1.776v8.443h2.109v-4.5l3.359 4.5h1.772v-8.443z" data-name="Path 210"/><path transform="translate(-113.12 9290.6)" d="m147.73 135.47h2.286l-1.628-2.635a2.694 2.694 0 0 0 1.094-1.06 3.169 3.169 0 0 0 0.383-1.587 3.2 3.2 0 0 0-0.41-1.647 2.727 2.727 0 0 0-1.164-1.078 3.934 3.934 0 0 0-1.779-0.377h-3.45v8.383h2.138v-2.228h1.164zm-0.021-5.281a1.187 1.187 0 0 1-0.334 0.9 1.389 1.389 0 0 1-0.992 0.318h-1.183v-2.455h1.186a1.374 1.374 0 0 1 0.992 0.323 1.208 1.208 0 0 1 0.334 0.91" data-name="Path 211"/><path transform="translate(-173.25 9290.6)" d="m235.35 135.47h2.286l-1.628-2.635a2.693 2.693 0 0 0 1.094-1.06 3.169 3.169 0 0 0 0.383-1.587 3.2 3.2 0 0 0-0.41-1.647 2.728 2.728 0 0 0-1.164-1.078 3.931 3.931 0 0 0-1.779-0.377h-3.45v8.383h2.135v-2.228h1.164zm-0.021-5.281a1.188 1.188 0 0 1-0.334 0.9 1.39 1.39 0 0 1-0.992 0.318h-1.186v-2.455h1.184a1.375 1.375 0 0 1 0.992 0.323 1.209 1.209 0 0 1 0.334 0.91" data-name="Path 212"/><path transform="translate(-159.24 9290.7)" d="m212.39 133.54v-1.541h3.376v-1.781h-3.376v-1.419h3.832v-1.841h-5.96v8.424h6.1v-1.841z" data-name="Path 213"/><path transform="translate(-202.33 9290.8)" d="m278.12 126.74v3.191h-2.917v-3.191h-2.138v8.493h2.138v-3.312h2.916v3.312h2.138v-8.493z" data-name="Path 214"/><path transform="translate(-127.23 9290.7)" d="m165.98 135.4h2.175v-6.528h2.35v-1.887h-6.885v1.887h2.361z" data-name="Path 215"/><path transform="translate(-81.747 9290.8)" d="m100.82 126.76h-3.486v8.484h2.161v-2.218h1.329a3.971 3.971 0 0 0 1.8-0.382 2.771 2.771 0 0 0 1.177-1.085 3.216 3.216 0 0 0 0.414-1.661 3.249 3.249 0 0 0-0.414-1.667 2.76 2.76 0 0 0-1.177-1.091 3.97 3.97 0 0 0-1.8-0.382m-0.131 4.376h-1.198v-2.485h1.2a1.387 1.387 0 0 1 1 0.327 1.224 1.224 0 0 1 0.338 0.921 1.2 1.2 0 0 1-0.338 0.915 1.4 1.4 0 0 1-1 0.321" data-name="Path 216"/><path transform="translate(-225.83 9290.8)" d="m310.8 126.76h-3.486v8.484h2.157v-2.218h1.329a3.972 3.972 0 0 0 1.8-0.382 2.771 2.771 0 0 0 1.176-1.085 3.213 3.213 0 0 0 0.414-1.661 3.247 3.247 0 0 0-0.414-1.667 2.759 2.759 0 0 0-1.176-1.091 3.972 3.972 0 0 0-1.8-0.382m-0.131 4.376h-1.2v-2.485h1.2a1.388 1.388 0 0 1 1 0.327 1.224 1.224 0 0 1 0.338 0.921 1.2 1.2 0 0 1-0.338 0.915 1.4 1.4 0 0 1-1 0.321" data-name="Path 217"/><path transform="translate(-188.08 9290.8)" d="m255.44 135.25a4.178 4.178 0 0 0 1.809-0.355 2.592 2.592 0 0 0 1.118-0.95 2.453 2.453 0 0 0 0.372-1.329 2.05 2.05 0 0 0-0.41-1.346 2.44 2.44 0 0 0-0.969-0.722 9.576 9.576 0 0 0-1.41-0.425 5.738 5.738 0 0 1-1.1-0.338 0.523 0.523 0 0 1-0.34-0.49 0.623 0.623 0 0 1 0.287-0.53 1.608 1.608 0 0 1 0.915-0.2 4.054 4.054 0 0 1 2.065 0.629l0.649-1.713a4.213 4.213 0 0 0-1.256-0.53 5.87 5.87 0 0 0-1.448-0.181 4.231 4.231 0 0 0-1.815 0.35 2.543 2.543 0 0 0-1.112 0.95 2.5 2.5 0 0 0-0.372 1.346 2.09 2.09 0 0 0 0.4 1.352 2.369 2.369 0 0 0 0.969 0.728 9.888 9.888 0 0 0 1.4 0.425 5.948 5.948 0 0 1 1.112 0.356 0.549 0.549 0 0 1 0.346 0.519q0 0.664-1.213 0.664a4.06 4.06 0 0 1-1.3-0.222 4.289 4.289 0 0 1-1.16-0.583l-0.692 1.7a4.133 4.133 0 0 0 1.383 0.652 6.326 6.326 0 0 0 1.756 0.245" data-name="Path 218"/><path transform="translate(-17.024,9377)" d="m9.166 49.353-6.146-3.7v-27.711l11.08 6.422v-19.154l-0.228-0.139 6.9-3.917 6.9 3.82-0.228 0.143-0.1 33.835-6.412 3.588-5.277-2.993v6.181zm0.44-26.506v25.182l5.107-2.853v-7.245l6.222 3.528 5.473-3.059 0.092-32.693-5.161 3.233v20.706zm-5.645 22.275 4.7 2.83v-25.652l-4.7-2.725zm11.082-20.213 5.355 3.1v-18.948l-5.355-3.276zm0.684-19.809 5.044 3.085 5.049-3.162-5.043-2.79z" data-name="Path 219"/></g></svg>
