<?xml version="1.0" encoding="UTF-8" standalone="no"?>
<!-- Created with Inkscape (http://www.inkscape.org/) -->

<svg
   xmlns:dc="http://purl.org/dc/elements/1.1/"
   xmlns:cc="http://creativecommons.org/ns#"
   xmlns:rdf="http://www.w3.org/1999/02/22-rdf-syntax-ns#"
   xmlns:svg="http://www.w3.org/2000/svg"
   xmlns="http://www.w3.org/2000/svg"
   xmlns:sodipodi="http://sodipodi.sourceforge.net/DTD/sodipodi-0.dtd"
   xmlns:inkscape="http://www.inkscape.org/namespaces/inkscape"
   width="250"
   height="91"
   viewBox="0 0 250 91"
   id="svg2"
   version="1.1"
   inkscape:version="0.92.2 (5c3e80d, 2017-08-06)"
   sodipodi:docname="northerngas.svg"
   inkscape:export-filename="C:\Users\Amy\Desktop\Assets\arup.png"
   inkscape:export-xdpi="90"
   inkscape:export-ydpi="90">
  <defs
     id="defs4" />
  <sodipodi:namedview
     id="base"
     pagecolor="#ffffff"
     bordercolor="#666666"
     borderopacity="1.0"
     inkscape:pageopacity="0.0"
     inkscape:pageshadow="2"
     inkscape:zoom="1.9799"
     inkscape:cx="183.26"
     inkscape:cy="27.908"
     inkscape:document-units="px"
     inkscape:current-layer="layer1"
     showgrid="false"
     inkscape:window-width="1920"
     inkscape:window-height="1001"
     inkscape:window-x="-9"
     inkscape:window-y="-9"
     inkscape:window-maximized="1"
     units="px" />
  <metadata
     id="metadata7">
    <rdf:RDF>
      <cc:Work
         rdf:about="">
        <dc:format>image/svg+xml</dc:format>
        <dc:type
           rdf:resource="http://purl.org/dc/dcmitype/StillImage" />
        <dc:title></dc:title>
      </cc:Work>
    </rdf:RDF>
  </metadata>
  <g
     inkscape:label="Layer 1"
     inkscape:groupmode="layer"
     id="layer1"
     transform="translate(0,-961.4)">
    <rect
       style="opacity:0.001;fill:none;fill-opacity:1;stroke:none;stroke-width:2.5;stroke-linecap:round;stroke-linejoin:round;stroke-miterlimit:4;stroke-dasharray:none;stroke-dashoffset:0;stroke-opacity:1"
       id="rect4175"
       width="250"
       height="91"
       x="0"
       y="961.4" />
    <path
       style="fill:#ffffff;stroke-width:0.4787212"
       d="m 58.563654,1043.6292 c -4.266462,-2.2207 -5.553631,-9.2826 -2.532397,-13.8935 1.463096,-2.233 5.151113,-3.3712 8.233535,-2.5413 1.696138,0.4567 1.897414,0.647 1.490027,1.4082 -0.384276,0.718 -0.868579,0.8353 -2.629678,0.6368 -3.939439,-0.4441 -5.854853,2.1602 -5.422589,7.3727 0.282519,3.4068 1.546485,5.1418 3.891128,5.341 l 1.747645,0.1486 v -2.9012 c 0,-2.7756 -0.05192,-2.9012 -1.1968,-2.9012 -0.877659,0 -1.196801,-0.2554 -1.196801,-0.9575 0,-0.8413 0.319142,-0.9574 2.632966,-0.9574 h 2.632966 v 4.5196 c 0,2.5721 -0.21158,4.6503 -0.491029,4.823 -0.270069,0.167 -1.616477,0.4083 -2.992008,0.5363 -1.835695,0.171 -2.944145,0 -4.166965,-0.6341 z m 13.045154,0.4718 c -1.458874,-0.2819 -3.001551,-2.3681 -3.001551,-4.0593 0,-1.9604 1.93203,-3.5787 5.043484,-4.2246 2.337259,-0.4853 2.530516,-0.6231 2.184675,-1.558 -0.610233,-1.6496 -1.676742,-2.0636 -3.833378,-1.4879 -1.559432,0.4162 -1.960727,0.3833 -2.176219,-0.1783 -0.418891,-1.0916 0.08919,-1.4816 2.376872,-1.8247 2.599377,-0.3897 4.259815,-0.017 5.51245,1.2348 0.826129,0.8261 0.945263,1.6061 0.945263,6.1887 v 5.2434 l -1.795207,0.4986 c -1.805925,0.5015 -3.282683,0.5485 -5.256389,0.1673 z m 4.179265,-4.4829 c 0,-2.7883 -0.04315,-2.8918 -1.077124,-2.5831 -2.150232,0.6418 -3.231361,1.6486 -3.231361,3.0093 0,1.7519 0.799833,2.4784 2.728713,2.4784 h 1.579772 z m 6.793528,4.4126 c -0.60796,-0.1712 -1.092666,-0.4728 -1.077124,-0.6702 0.01558,-0.1976 0.02827,-0.6558 0.02827,-1.0184 0,-0.4971 0.524053,-0.6002 2.130179,-0.4192 2.017944,0.2274 2.148052,0.1689 2.469397,-1.1114 0.258392,-1.0296 0.136304,-1.4715 -0.512387,-1.8548 -3.432994,-2.0286 -3.849474,-2.4685 -3.996012,-4.2219 -0.260042,-3.1117 2.420786,-4.8409 6.012514,-3.8784 0.660541,0.177 1.077124,0.6579 1.077124,1.2435 0,0.8245 -0.21968,0.9137 -1.609218,0.6531 -1.127732,-0.2117 -1.784142,-0.091 -2.193779,0.4023 -0.969736,1.1685 -0.368238,2.3508 1.806007,3.5503 2.436431,1.344 3.132914,2.7686 2.392274,4.8932 -0.773698,2.2194 -3.575425,3.2633 -6.527232,2.4319 z m 32.700979,-0.05 c -2.19001,-0.9059 -3.29903,-2.7902 -3.50002,-5.9467 -0.22689,-3.5633 0.62657,-5.6469 2.76628,-6.7534 3.83768,-1.9845 7.34233,0.1647 7.77917,4.7704 l 0.1354,1.4274 -3.79256,0.4875 c -4.12593,0.5303 -4.66709,0.9965 -3.40049,2.9296 0.71367,1.0892 1.06965,1.202 3.44656,1.0918 2.01647,-0.093 2.75267,0.06 3.07689,0.6388 0.77001,1.376 -4.04018,2.3767 -6.51123,1.3546 z m 2.75265,-7.5101 c 1.99473,-0.3298 2.29264,-1.1632 1.04998,-2.9374 -1.4338,-2.0469 -4.01143,-0.9906 -4.70489,1.9281 -0.34814,1.4654 0.11758,1.5939 3.65491,1.0093 z m 9.307,6.9959 c -1.24416,-0.9786 -1.28842,-1.1767 -1.28842,-5.766 0,-3.9052 -0.12801,-4.7525 -0.71809,-4.7525 -0.39493,0 -0.71807,-0.4077 -0.71807,-0.9062 0,-0.4984 0.32314,-1.0302 0.71807,-1.1818 0.41104,-0.1577 0.71809,-0.8722 0.71809,-1.6709 0,-1.0423 0.27249,-1.4683 1.07712,-1.684 1.7245,-0.4621 1.79521,-0.3985 1.79521,1.6132 0,1.5958 0.15957,1.9149 0.95744,1.9149 0.6383,0 0.95744,0.3192 0.95744,0.9575 0,0.6382 -0.31914,0.9573 -0.95744,0.9573 -0.88725,0 -0.95744,0.3192 -0.95744,4.3534 0,3.9877 0.0825,4.3749 0.98256,4.6102 0.67049,0.1753 0.93657,0.5793 0.83776,1.2717 -0.19824,1.3892 -1.82596,1.5247 -3.40423,0.2832 z m 27.79991,0.2475 c -1.86299,-1.0479 -2.75894,-3.0997 -2.75687,-6.314 0.002,-3.3075 1.10562,-5.4375 3.28466,-6.34 1.90314,-0.7883 4.40549,-0.3242 5.70351,1.0576 2.29096,2.4391 2.22573,8.6671 -0.11389,10.865 -1.43797,1.351 -4.3885,1.7037 -6.11746,0.7314 z m 3.94343,-2.149 c 1.22781,-1.2278 1.36412,-6.3871 0.21222,-8.0318 -0.98412,-1.405 -2.39705,-1.3488 -3.36858,0.134 -1.1156,1.7026 -0.76212,7.2564 0.52159,8.1951 1.19241,0.8719 1.50036,0.8372 2.63477,-0.2973 z m 28.61273,2.2523 c -1.8979,-0.8372 -1.00171,-1.9261 1.62527,-1.9747 1.97719,-0.037 2.07569,-0.1061 2.07569,-1.4698 0,-1.1585 -0.31075,-1.5785 -1.62826,-2.2005 -3.11571,-1.4712 -3.88289,-4.3044 -1.74455,-6.4427 1.74514,-1.7452 6.00578,-1.4933 6.00578,0.3549 0,0.7977 -0.21974,0.8913 -1.45577,0.6199 -2.91568,-0.6403 -3.96072,2.0839 -1.34159,3.4973 2.37237,1.2802 3.27607,2.3722 3.27607,3.9586 0,2.068 -0.69959,3.1361 -2.45492,3.748 -1.88699,0.6578 -2.69912,0.6408 -4.35772,-0.091 z m -90.846482,-8.2362 v -8.3777 l 1.55584,0.011 c 1.48131,0 1.716382,0.281 4.906892,5.7539 l 3.35105,5.7482 0.13442,-5.7539 0.13441,-5.7538 h 1.18207 1.18206 v 8.4094 8.4094 l -1.30864,-0.1515 c -1.1198,-0.1295 -1.81057,-1.0136 -4.7872,-6.1267 l -3.478572,-5.9755 v 6.0951 6.0951 h -1.43617 -1.43616 z m 38.353432,2.622 c -0.84169,-3.1656 -1.65853,-6.0897 -1.81519,-6.4979 -0.22886,-0.5964 0.0329,-0.7119 1.33145,-0.5875 l 1.6163,0.1548 0.98932,4.5314 c 0.54413,2.4923 1.10409,4.3234 1.24435,4.0691 0.14025,-0.2542 0.75085,-2.3471 1.35689,-4.651 1.0496,-3.9901 1.16467,-4.1888 2.42529,-4.1888 1.27535,0 1.36312,0.1647 2.41698,4.5362 0.60148,2.4949 1.18082,4.449 1.28746,4.3423 0.10661,-0.1062 0.67025,-2.094 1.25251,-4.4165 0.99823,-3.9816 1.13596,-4.2317 2.41348,-4.3805 1.1169,-0.1301 1.31251,0 1.11375,0.7181 -3.52284,12.7983 -3.26086,12.1259 -4.72407,12.1259 -1.25128,0 -1.42603,-0.2258 -2.13048,-2.7527 -0.42206,-1.514 -1.00443,-3.5066 -1.29415,-4.4281 l -0.52675,-1.6755 -0.86724,2.8722 c -0.47699,1.5799 -1.00173,3.5725 -1.16611,4.4282 -0.2637,1.3728 -0.48095,1.5559 -1.84616,1.5559 h -1.54728 z m 30.58242,-0.4396 c 0,-3.7173 0.1964,-6.3165 0.49103,-6.4986 0.27007,-0.1668 1.70636,-0.4289 3.19178,-0.5822 2.42939,-0.2508 2.66865,-0.195 2.38129,0.5537 -0.17569,0.4579 -0.31945,1.0431 -0.31945,1.3004 0,0.2573 -0.21735,0.3334 -0.483,0.1693 -0.26565,-0.1642 -0.91193,-0.1624 -1.43616,0 -0.8785,0.279 -0.95316,0.7313 -0.95316,5.7756 v 5.4731 h -1.43616 -1.43617 z m 8.61698,-3.3793 v -9.5744 h 1.70367 1.70368 l -0.14783,5.7456 c -0.0814,3.16 -0.0402,5.7426 0.0915,5.739 0.13165,0 1.06012,-1.1889 2.06327,-2.6339 1.53755,-2.2148 2.05408,-2.6273 3.28976,-2.6273 1.64227,0 1.73682,-0.2755 -1.35439,3.9459 l -1.50665,2.0577 2.34441,3.2097 c 1.28943,1.7655 2.34441,3.3229 2.34441,3.461 0,0.1381 -0.70013,0.2493 -1.55584,0.247 -1.37531,0 -1.77079,-0.3378 -3.40841,-2.8796 -1.01891,-1.5814 -1.98832,-2.9599 -2.15425,-3.0632 -0.16592,-0.1039 -0.22944,1.1923 -0.14114,2.8795 l 0.16052,3.0675 h -1.71637 -1.71637 z M 55.203063,1012.8118 v -8.6472 l 1.53655,0.15 c 1.416838,0.1383 1.799152,0.6039 4.90689,5.975 l 3.370341,5.8251 0.133984,-5.9448 0.133984,-5.9446 h 1.182505 1.182504 v 8.6487 8.6487 l -1.263654,-0.1515 c -1.058743,-0.1269 -1.803214,-1.0829 -4.591303,-5.896 -1.830226,-3.1596 -3.469686,-5.8963 -3.643259,-6.0814 -0.173561,-0.1854 -0.249738,2.4536 -0.16928,5.8642 l 0.146295,6.2011 h -1.462784 -1.462773 z m 17.676714,8.0337 c -3.331492,-2.5765 -3.436076,-9.9103 -0.171818,-12.0491 1.288796,-0.8445 4.607676,-0.9824 5.97896,-0.2485 1.466223,0.7847 2.466686,3.2608 2.494113,6.1729 0.04235,4.4919 -1.747992,6.7202 -5.392959,6.7125 -1.184835,0 -2.493558,-0.267 -2.908296,-0.5878 z m 4.556677,-2.3652 c 1.151904,-1.6446 1.015589,-6.8039 -0.212215,-8.0317 -0.526591,-0.5266 -1.17287,-0.9575 -1.436166,-0.9575 -0.263295,0 -0.909563,0.4309 -1.436153,0.9575 -0.754083,0.754 -0.957448,1.5956 -0.957448,3.9626 0,3.2817 0.863306,5.133 2.393601,5.133 0.496741,0 1.238512,-0.4787 1.648381,-1.0639 z m 6.489882,-3.2277 c 0,-6.9977 -0.08573,-6.8356 3.887343,-7.353 2.495497,-0.325 2.812423,-0.1785 2.467493,1.1405 -0.169799,0.6493 -0.659444,0.9298 -1.623457,0.9298 h -1.380331 v 5.7446 5.7446 h -1.675518 -1.67553 z m 11.038822,5.2774 c -0.86366,-0.8637 -0.98567,-1.5784 -0.98567,-5.773 0,-3.9361 -0.12767,-4.7871 -0.71809,-4.7871 -0.398932,0 -0.718082,-0.4256 -0.718082,-0.9575 0,-0.5319 0.31915,-0.9575 0.718082,-0.9575 0.48004,0 0.71809,-0.48 0.71809,-1.448 0,-1.1138 0.28337,-1.5557 1.22796,-1.9148 1.69448,-0.6442 1.64437,-0.6884 1.64437,1.448 0,1.7234 0.11967,1.9148 1.1968,1.9148 0.87766,0 1.1968,0.2554 1.1968,0.9575 0,0.7059 -0.31914,0.9575 -1.21477,0.9575 h -1.21476 l 0.13764,4.4281 c 0.12691,4.0826 0.22265,4.4655 1.227,4.906 1.54272,0.6767 1.12917,1.8855 -0.70601,2.0638 -1.04373,0.1015 -1.83418,-0.1626 -2.50936,-0.8378 z m 7.152592,-8.8846 v -9.8138 h 1.43616 1.43617 v 3.2708 3.2707 l 2.59832,-0.2155 c 2.30475,-0.1912 2.73745,-0.076 3.82977,1.016 1.18057,1.1806 1.23144,1.4598 1.23144,6.7585 v 5.527 h -1.43615 -1.43617 v -5.2549 c 0,-4.997 -0.0556,-5.2912 -1.13218,-5.9966 -0.86063,-0.5639 -1.43475,-0.6268 -2.39361,-0.2623 l -1.26142,0.4795 v 5.5172 5.5171 h -1.43617 -1.43616 z m 15.5013,8.9274 c -3.61353,-2.2707 -3.39193,-10.0651 0.34299,-12.064 1.34805,-0.7214 4.3819,-0.6861 5.58479,0.065 1.3025,0.8134 1.96194,2.0093 2.31072,4.1905 l 0.30045,1.8789 -4.12123,0.585 c -4.57251,0.6491 -4.98258,1.1045 -2.88425,3.2027 1.09248,1.0926 1.50709,1.2051 3.5497,0.9631 1.84144,-0.218 2.37209,-0.1191 2.60406,0.4854 0.42738,1.1136 0.062,1.2798 -3.2203,1.4643 -2.32961,0.1311 -3.29705,-0.036 -4.46693,-0.7711 z m 4.96403,-7.0374 c 1.53322,-0.4725 -0.26364,-4.0443 -2.03456,-4.0443 -1.20205,0 -2.63296,1.8243 -2.63296,3.3567 0,1.4219 0.0283,1.4379 2.03456,1.1569 1.119,-0.1567 2.30384,-0.3679 2.63296,-0.4693 z m 6.34306,1.4828 v -6.4411 l 1.7952,-0.2811 c 0.98737,-0.1546 2.40229,-0.3773 3.14427,-0.495 1.17279,-0.1859 1.32917,-0.074 1.1968,0.8579 -0.11644,0.8195 -0.51826,1.1069 -1.7081,1.2217 l -1.55584,0.1498 v 5.7145 5.7142 h -1.43617 -1.43616 z m 8.13826,0.016 v -6.4248 l 1.31648,-0.2584 c 3.89729,-0.765 6.70334,-0.4583 8.04034,0.8787 1.11188,1.1118 1.17504,1.4722 1.17504,6.7021 v 5.527 h -1.42048 -1.42049 l -0.13535,-5.3801 c -0.13417,-5.3331 -0.14681,-5.3856 -1.4427,-6.0058 -0.9672,-0.4628 -1.55882,-0.4909 -2.27392,-0.1084 -0.88335,0.4727 -0.96659,0.9898 -0.96659,6.0057 v 5.4884 h -1.43616 -1.43617 z m 18.19141,5.8045 c 1.7943,-1.8466 38.90345,-26.71145 39.63764,-26.55914 1.02421,0.21265 0.95407,2.21953 -0.1357,3.88268 -0.46487,0.70962 -8.23414,5.55766 -19.24819,12.01096 -17.01584,9.97 -22.26263,12.7329 -20.25375,10.6655 z m 1.75647,-4.4447 c 0.34236,-0.8922 34.27153,-29.64223 36.15154,-30.63315 2.79688,-1.47415 3.36956,2.06019 0.72234,4.45811 -0.5779,0.52349 -7.83661,5.97875 -16.13046,12.12294 -20.9515,15.5207 -21.43188,15.8461 -20.74342,14.0521 z m 2.07329,-5.9579 c 0,-0.5783 2.07832,-2.8474 17.66548,-19.28784 6.44441,-6.79717 12.09316,-12.55981 12.55278,-12.80581 0.45963,-0.246 1.3884,-0.44723 2.06395,-0.44723 1.02483,0 1.22828,0.22108 1.22828,1.33454 0,1.79664 -0.52353,2.34103 -16.27652,16.92514 -16.17953,14.979 -17.23397,15.8528 -17.23397,14.2812 z m -0.16201,-5.1341 c 0.34798,-1.017 22.26456,-30.25908 23.47796,-31.32546 1.32751,-1.16665 2.73053,-1.42061 3.74602,-0.678 0.74857,0.54738 0.83367,0.90184 0.45361,1.88965 -0.38746,1.00707 -21.96782,26.33541 -25.45366,29.87441 -1.28885,1.3086 -2.63951,1.454 -2.22393,0.2394 z m -1.27415,-4.9955 c 0,-0.57526 3.50065,-7.27667 7.77922,-14.89192 6.63569,-11.81062 8.01172,-13.95884 9.36085,-14.61342 1.80588,-0.87623 3.22412,-0.35307 3.1793,1.17277 -0.0256,0.87311 -16.60004,26.16397 -18.54748,28.30147 -1.236,1.3567 -1.77189,1.366 -1.77189,0.031 z m -2.8627,-4.33956 c 0.0164,-1.8293 8.53961,-24.96847 9.44166,-25.63239 1.44522,-1.06373 3.01859,-1.23842 3.83174,-0.42519 0.68783,0.6878 0.23198,1.88468 -5.10766,13.411 -3.22459,6.96079 -6.10315,12.89616 -6.39679,13.18981 -0.88083,0.88084 -1.77922,0.60496 -1.76895,-0.54323 z M 130.3623,994.7426 c -1.27949,-0.43016 -6.70209,-3.99565 -6.70209,-4.40687 0,-0.801 2.50129,-3.34488 3.28891,-3.34488 1.01378,0 6.28551,5.26718 6.28551,6.28014 0,0.87715 -1.83853,1.81915 -2.87233,1.47161 z m 19.77957,-1.82273 c -0.31822,-0.82927 1.52665,-16.47261 2.29375,-19.44964 0.3235,-1.25549 0.89369,-2.01541 1.90426,-2.53799 1.59573,-0.82511 3.30953,-0.54035 3.30953,0.54992 0,0.96184 -4.68985,19.7921 -5.26353,21.13367 -0.53529,1.25181 -1.81384,1.425 -2.24401,0.30404 z m -15.68921,-6.19475 c -2.65485,-4.44876 -2.70828,-4.60695 -1.94884,-5.76598 1.04614,-1.59658 3.15748,-2.41073 3.82827,-1.47623 0.97575,1.35946 3.76531,10.22859 3.46407,11.01355 -0.17031,0.44388 -0.8237,0.80295 -1.46095,0.80295 -0.9471,0 -1.64003,-0.81634 -3.88255,-4.57429 z m 9.6144,4.19457 c -0.34628,-0.56031 -2.21545,-12.3362 -2.21545,-13.95758 0,-1.63154 2.02744,-3.49661 3.56236,-3.27703 0.94125,0.13465 0.99163,0.48484 1.12235,7.80055 0.0752,4.21268 0.0173,8.14417 -0.1288,8.73667 -0.25837,1.04758 -1.8339,1.51708 -2.34046,0.69739 z"
       id="path868"
       inkscape:connector-curvature="0" />
  </g>
</svg>
