<?xml version="1.0" encoding="UTF-8"?>
<svg enable-background="new 0 0 181.3 182" version="1.1" viewBox="0 0 250 91" xml:space="preserve" xmlns="http://www.w3.org/2000/svg" xmlns:cc="http://creativecommons.org/ns#" xmlns:dc="http://purl.org/dc/elements/1.1/" xmlns:rdf="http://www.w3.org/1999/02/22-rdf-syntax-ns#"><metadata><rdf:RDF><cc:Work rdf:about=""><dc:format>image/svg+xml</dc:format><dc:type rdf:resource="http://purl.org/dc/dcmitype/StillImage"/><dc:title/></cc:Work></rdf:RDF></metadata>
<g transform="matrix(5.6405 0 0 5.6405 -327.72 -840.15)" fill="#fff"><g transform="translate(.13229 -.13229)" fill="#fff"><path d="m66.815 157.25-0.18344-2e-3 2.9291-2.8755-7.05e-4 -0.11077-3.4893 2.9968 3.4893 3.575v-4.0037l-0.5588 0.41981h-0.17286l0.73237-0.63959-0.0021-0.35665-1.2834 0.99448-0.17886 2e-3 1.4623-1.3272v-0.2854l-2.0122 1.6126-0.18239-2e-3 2.1967-2.0708-0.0011-0.20355zm-0.83502-0.0857 3.5796-3.6661h-7.1579z"/><path d="m89.567 159.12h-1.1829v0.64276h0.37606v0.35419l-0.05292 4e-3c-0.06632 5e-3 -0.12382 5e-3 -0.17745 5e-3 -0.514 0-0.84138-0.30586-0.84138-0.78916 0-0.50095 0.37148-0.85902 0.895-0.85902 0.31432 0 0.60678 0.0797 0.92992 0.25647v-0.75741c-0.32808-0.133-0.69568-0.19932-1.0636-0.19932-1.0894 0-1.82 0.647-1.82 1.6129 0 0.4251 0.1905 0.82409 0.52246 1.0986 0.32808 0.26988 0.70838 0.38523 1.2848 0.38523 0.33267 0 0.83291-0.0617 1.1299-0.13758zm0.32314 1.7145h1.0453v-1.2622h0.22578c0.15593 0 0.2346 0.0222 0.3055 0.0794 0.04904 0.0356 0.09772 0.0885 0.13758 0.15522 0.10195 0.15522 0.20849 0.36336 0.30092 0.57996l0.18662 0.44768h1.041l-0.35913-0.79728c-0.0575-0.12418-0.13264-0.27869-0.18168-0.35877-0.09278-0.15911-0.16334-0.22613-0.30974-0.30128 0.31856-0.14181 0.48331-0.37641 0.48331-0.70449 0-0.29669-0.16475-0.56656-0.42968-0.70838-0.12876-0.067-0.27058-0.11112-0.41698-0.12876-0.15981-0.0131-0.381-0.0222-0.66005-0.0222h-1.3688zm1.0453-1.7272v-0.8068h0.23918c0.40746 0 0.58455 0.11994 0.58455 0.38982 0 0.28822-0.18591 0.41698-0.59337 0.41698zm2.3304 1.7272h1.059v-3.0212h-1.059zm1.4397 0h1.6432c0.3235 0 0.56727-0.0483 0.78034-0.15946 0.44662-0.23036 0.7306-0.73942 0.7306-1.3116 0-0.42051-0.15064-0.80116-0.42968-1.0848-0.30974-0.31433-0.71332-0.46532-1.2584-0.46532h-1.4661zm1.059-0.72214v-1.5815h0.248c0.52246 0 0.7881 0.266 0.7881 0.79798 0 0.53129-0.24377 0.78352-0.75706 0.78352z"/><path d="m70.663 160.84h1.0322v-1.0763h0.25647c0.29281 0 0.50094-0.0183 0.69144-0.0625 0.46496-0.10583 0.74895-0.46919 0.74895-0.96132 0-0.26564-0.11994-0.51364-0.3369-0.68192-0.2346-0.18168-0.47378-0.23918-1.0188-0.23918h-1.3734zm1.0322-1.639v-0.81562h0.15064c0.43462 0 0.56727 0.0935 0.56727 0.40358 0 0.29669-0.1464 0.41204-0.53199 0.41204zm3.5482-1.4182c-0.99201 0-1.6432 0.61207-1.6432 1.5469 0 0.93874 0.65123 1.5501 1.6432 1.5501 0.99236 0 1.6443-0.61136 1.6443-1.5501 0-0.93486-0.65193-1.5469-1.6443-1.5469m0 0.88194c0.35913 0 0.58067 0.25682 0.58067 0.66499 0 0.41557-0.21696 0.66428-0.58067 0.66428-0.36301 0-0.58455-0.24871-0.58455-0.66428 0-0.41275 0.22154-0.66499 0.58455-0.66499m2.6536 2.1752h0.63359l0.41628-1.4975h0.0088l0.44344 1.4975h0.63324l1.0227-3.0212h-0.99166l-0.32808 1.3557h-0.0081l-0.39899-1.3557h-0.76623l-0.37677 1.3557h-0.0088l-0.34996-1.3557h-0.99236zm3.2699 0h2.2811v-0.65123h-1.2358v-0.56268h1.1158v-0.629h-1.1158v-0.54046h1.2224v-0.63782h-2.2677zm2.5555 0h1.0453v-1.2622h0.22648c0.15452 0 0.2346 0.0219 0.30551 0.0794 0.04904 0.0353 0.09772 0.0882 0.13723 0.15522 0.10231 0.15522 0.20814 0.36336 0.30162 0.57961l0.18627 0.44803h1.0403l-0.35842-0.79728c-0.0575-0.12453-0.133-0.27904-0.18168-0.35913-0.09349-0.1591-0.16404-0.22577-0.31044-0.30091 0.31926-0.14182 0.48331-0.37642 0.48331-0.7045 0-0.29669-0.16404-0.56656-0.43039-0.70873-0.12806-0.0667-0.26988-0.11077-0.41557-0.12841-0.15981-0.0134-0.38171-0.0222-0.66075-0.0222h-1.3688zm1.0453-1.7272v-0.8068h0.23954c0.40781 0 0.5849 0.11959 0.5849 0.38982 0 0.28822-0.18591 0.41698-0.59372 0.41698z"/><path d="m74.112 153.47h-0.29598v3.3355l-2.8942-3.3355h-0.25188v3.8171h0.29669v-3.3355l2.8991 3.3355h0.24624zm4.5558 1.9085c0-1.0975-0.89006-1.9586-2.026-1.9586-1.1303 0-2.0144 0.86113-2.0144 1.9586 0 1.0971 0.88406 1.9586 2.0144 1.9586 1.1359 0 2.026-0.86148 2.026-1.9586m-0.31926 0c0 0.95144-0.73801 1.6842-1.6951 1.6842s-1.7074-0.73272-1.7074-1.6842 0.75036-1.6849 1.7074-1.6849 1.6951 0.73343 1.6951 1.6849m0.83397-1.9085v3.8171h0.29704v-1.8309h0.5147c0.45896 0 0.60431 0.0621 1.0636 0.78387l0.66604 1.047h0.34678l-0.86219-1.3212c-0.17886-0.26811-0.3302-0.48683-0.50906-0.58208 0.48719-0.17886 0.72778-0.48683 0.72778-0.92851 0-0.50977-0.3302-0.98531-1.2651-0.98531zm0.29704 0.24624h0.62089c0.69956 0 1.0075 0.31327 1.0075 0.74436 0 0.45896-0.32456 0.75001-0.99589 0.75001h-0.63253zm5.2786-0.24624h-3.1619v0.24624h1.433v3.5708h0.29669v-3.5708h1.4323zm3.3972 0h-0.29633v1.7628h-2.5471v-1.7628h-0.29633v3.8171h0.29633v-1.808h2.5471v1.808h0.29633zm2.7651 0h-2.0817v3.8171h2.1265v-0.2466h-1.8306v-1.5498h1.7406v-0.24694h-1.7406v-1.5275h1.7858zm0.44803 0v3.8171h0.29598v-1.8309h0.51506c0.45896 0 0.60431 0.0621 1.0633 0.78387l0.66569 1.047h0.34749l-0.86219-1.3212c-0.17886-0.26811-0.3302-0.48683-0.50906-0.58208 0.48648-0.17886 0.72743-0.48683 0.72743-0.92851 0-0.50977-0.3302-0.98531-1.2647-0.98531zm0.29598 0.24624h0.62124c0.69956 0 1.0075 0.31327 1.0075 0.74436 0 0.45896-0.32456 0.75001-0.99589 0.75001h-0.63288zm6.1401-0.24624h-0.29669v3.3355l-2.8935-3.3355h-0.25188v3.8171h0.29669v-3.3355l2.8991 3.3355h0.24624z"/></g></g></svg>
