<?xml version="1.0" encoding="UTF-8" standalone="no"?>
<!-- Generator: Adobe Illustrator 19.1.0, SVG Export Plug-In . SVG Version: 6.00 Build 0)  -->

<svg
   xmlns:dc="http://purl.org/dc/elements/1.1/"
   xmlns:cc="http://creativecommons.org/ns#"
   xmlns:rdf="http://www.w3.org/1999/02/22-rdf-syntax-ns#"
   xmlns:svg="http://www.w3.org/2000/svg"
   xmlns="http://www.w3.org/2000/svg"
   xmlns:sodipodi="http://sodipodi.sourceforge.net/DTD/sodipodi-0.dtd"
   xmlns:inkscape="http://www.inkscape.org/namespaces/inkscape"
   version="1.1"
   id="Layer_1"
   x="0px"
   y="0px"
   viewBox="0 0 250 91"
   enable-background="new 0 0 181.3 182"
   xml:space="preserve"
   sodipodi:docname="northernpowergrid.svg"
   width="250"
   height="91"
   inkscape:version="0.92.2 (5c3e80d, 2017-08-06)"><metadata
     id="metadata31"><rdf:RDF><cc:Work
         rdf:about=""><dc:format>image/svg+xml</dc:format><dc:type
           rdf:resource="http://purl.org/dc/dcmitype/StillImage" /><dc:title></dc:title></cc:Work></rdf:RDF></metadata><defs
     id="defs29"><clipPath
       clipPathUnits="userSpaceOnUse"
       id="clipPath6084"><path
         d="M 0,0 H 595.276 V 841.89 H 0 Z"
         id="path6082"
         inkscape:connector-curvature="0" /></clipPath></defs><sodipodi:namedview
     pagecolor="#ffffff"
     bordercolor="#666666"
     borderopacity="1"
     objecttolerance="10"
     gridtolerance="10"
     guidetolerance="10"
     inkscape:pageopacity="0"
     inkscape:pageshadow="2"
     inkscape:window-width="1920"
     inkscape:window-height="1046"
     id="namedview27"
     showgrid="false"
     fit-margin-top="0"
     fit-margin-left="0"
     fit-margin-right="0"
     fit-margin-bottom="0"
     inkscape:zoom="2.8284271"
     inkscape:cx="202.50805"
     inkscape:cy="1.494197"
     inkscape:window-x="-11"
     inkscape:window-y="-11"
     inkscape:window-maximized="1"
     inkscape:current-layer="Layer_1" /><rect
     style="opacity:0.00100002;fill:#ffffff;fill-opacity:1;stroke:none;stroke-width:2.5;stroke-linecap:round;stroke-linejoin:round;stroke-miterlimit:4;stroke-dasharray:none;stroke-dashoffset:0;stroke-opacity:1"
     id="rect4175"
     width="250"
     height="91"
     x="0"
     y="-4.0454324e-014" /><g
     transform="matrix(5.6404746,0,0,5.6404746,-327.72279,-840.1477)"
     id="layer1"
     inkscape:label="Layer 1"
     style="fill:#ffffff"><g
       transform="translate(0.13229222,-0.13228899)"
       id="g14129"
       style="fill:#ffffff"><path
         inkscape:connector-curvature="0"
         id="path6076"
         style="fill:#ffffff;fill-opacity:1;fill-rule:nonzero;stroke:none;stroke-width:0.35277778"
         d="m 66.815198,157.24918 -0.183444,-0.002 2.929113,-2.8755 -7.05e-4,-0.11077 -3.489325,2.99685 3.489325,3.57505 v -4.00368 l -0.5588,0.41981 h -0.172861 l 0.732366,-0.63959 -0.0021,-0.35665 -1.283406,0.99448 -0.178858,0.002 1.462264,-1.32715 v -0.2854 l -2.012245,1.61255 -0.182386,-0.002 2.196747,-2.07081 -0.0011,-0.20355 z m -0.835025,-0.0857 3.579636,-3.66607 h -7.157861 z" /><path
         inkscape:connector-curvature="0"
         id="path6088"
         style="fill:#ffffff;fill-opacity:1;fill-rule:nonzero;stroke:none;stroke-width:0.35277778"
         d="m 89.56721,159.12287 h -1.182864 v 0.64276 h 0.376061 v 0.35419 l -0.05292,0.004 c -0.06632,0.005 -0.123825,0.005 -0.177448,0.005 -0.513997,0 -0.841375,-0.30586 -0.841375,-0.78916 0,-0.50095 0.371475,-0.85902 0.894998,-0.85902 0.314325,0 0.606777,0.0797 0.929922,0.25647 v -0.75741 c -0.328084,-0.133 -0.695678,-0.19932 -1.063625,-0.19932 -1.089378,0 -1.819981,0.647 -1.819981,1.6129 0,0.4251 0.1905,0.82409 0.522464,1.09855 0.328083,0.26988 0.708378,0.38523 1.284817,0.38523 0.332669,0 0.832908,-0.0617 1.129947,-0.13758 z m 0.323144,1.7145 h 1.045281 v -1.26224 h 0.225778 c 0.155928,0 0.234597,0.0222 0.305505,0.0794 0.04904,0.0356 0.09772,0.0885 0.137584,0.15522 0.101952,0.15522 0.208491,0.36336 0.300919,0.57996 l 0.186619,0.44768 h 1.041048 l -0.359128,-0.79728 c -0.0575,-0.12418 -0.132645,-0.27869 -0.181681,-0.35877 -0.09278,-0.15911 -0.163336,-0.22613 -0.309739,-0.30128 0.318559,-0.14181 0.483306,-0.37641 0.483306,-0.70449 0,-0.29669 -0.164747,-0.56656 -0.429683,-0.70838 -0.128764,-0.067 -0.270581,-0.11112 -0.416984,-0.12876 -0.159808,-0.0131 -0.381,-0.0222 -0.660047,-0.0222 h -1.368778 z m 1.045281,-1.7272 v -0.8068 h 0.239183 c 0.407459,0 0.584553,0.11994 0.584553,0.38982 0,0.28822 -0.185914,0.41698 -0.593372,0.41698 z m 2.33045,1.7272 h 1.059039 v -3.02119 h -1.059039 z m 1.439686,0 h 1.643239 c 0.323497,0 0.567267,-0.0483 0.780344,-0.15946 0.446617,-0.23036 0.730603,-0.73942 0.730603,-1.31162 0,-0.42051 -0.150636,-0.80116 -0.429683,-1.08479 -0.309739,-0.31433 -0.713317,-0.46532 -1.258359,-0.46532 h -1.466144 z m 1.059039,-0.72214 v -1.5815 h 0.248003 c 0.522464,0 0.788105,0.266 0.788105,0.79798 0,0.53129 -0.243769,0.78352 -0.757061,0.78352 z" /><path
         inkscape:connector-curvature="0"
         id="path6092"
         style="fill:#ffffff;fill-opacity:1;fill-rule:nonzero;stroke:none;stroke-width:0.35277778"
         d="m 70.663084,160.83751 h 1.032228 v -1.07632 h 0.256469 c 0.292806,0 0.500945,-0.0183 0.691445,-0.0625 0.464961,-0.10583 0.748947,-0.46919 0.748947,-0.96132 0,-0.26564 -0.119945,-0.51364 -0.336903,-0.68192 -0.234597,-0.18168 -0.47378,-0.23918 -1.018822,-0.23918 h -1.373364 z m 1.032228,-1.63901 v -0.81562 h 0.150636 c 0.434622,0 0.567267,0.0935 0.567267,0.40358 0,0.29669 -0.146403,0.41204 -0.531989,0.41204 z m 3.548239,-1.41816 c -0.992012,0 -1.643239,0.61207 -1.643239,1.54693 0,0.93874 0.651227,1.5501 1.643239,1.5501 0.992363,0 1.644297,-0.61136 1.644297,-1.5501 0,-0.93486 -0.651934,-1.54693 -1.644297,-1.54693 m 0,0.88194 c 0.359127,0 0.580672,0.25682 0.580672,0.66499 0,0.41557 -0.216959,0.66428 -0.580672,0.66428 -0.363009,0 -0.584553,-0.24871 -0.584553,-0.66428 0,-0.41275 0.221544,-0.66499 0.584553,-0.66499 m 2.653594,2.17523 h 0.633589 l 0.416278,-1.49754 h 0.0088 l 0.443442,1.49754 h 0.633236 l 1.022703,-3.02119 h -0.991659 l -0.328083,1.35573 h -0.0081 l -0.398992,-1.35573 h -0.766233 l -0.376767,1.35573 h -0.0088 l -0.349956,-1.35573 H 76.83424 Z m 3.269897,0 h 2.281061 v -0.65123 h -1.23578 v -0.56268 h 1.115836 v -0.629 h -1.115836 v -0.54046 h 1.222375 v -0.63782 h -2.267656 z m 2.555522,0 h 1.045281 v -1.26224 h 0.226483 c 0.154517,0 0.234597,0.0219 0.305506,0.0794 0.04904,0.0353 0.09772,0.0882 0.13723,0.15522 0.102306,0.15522 0.208139,0.36336 0.301625,0.57961 l 0.186267,0.44803 h 1.040342 l -0.358423,-0.79728 c -0.0575,-0.12453 -0.132997,-0.27904 -0.18168,-0.35913 -0.09349,-0.1591 -0.164042,-0.22577 -0.310445,-0.30091 0.319264,-0.14182 0.483306,-0.37642 0.483306,-0.7045 0,-0.29669 -0.164042,-0.56656 -0.430389,-0.70873 -0.128058,-0.0667 -0.269875,-0.11077 -0.415572,-0.12841 -0.159809,-0.0134 -0.381706,-0.0222 -0.660753,-0.0222 h -1.368778 z m 1.045281,-1.7272 v -0.8068 h 0.239536 c 0.407811,0 0.584905,0.11959 0.584905,0.38982 0,0.28822 -0.185913,0.41698 -0.593725,0.41698 z" /><path
         inkscape:connector-curvature="0"
         id="path6096"
         style="fill:#ffffff;fill-opacity:1;fill-rule:nonzero;stroke:none;stroke-width:0.35277778"
         d="m 74.112228,153.47034 h -0.295981 v 3.33551 l -2.894188,-3.33551 h -0.251884 v 3.81706 h 0.296686 v -3.33552 l 2.899128,3.33552 h 0.246239 z m 4.555772,1.90853 c 0,-1.09749 -0.890058,-1.95862 -2.026003,-1.95862 -1.1303,0 -2.014361,0.86113 -2.014361,1.95862 0,1.09714 0.884061,1.95862 2.014361,1.95862 1.135945,0 2.026003,-0.86148 2.026003,-1.95862 m -0.319264,0 c 0,0.95144 -0.738011,1.68416 -1.695097,1.68416 -0.957086,0 -1.707444,-0.73272 -1.707444,-1.68416 0,-0.95144 0.750358,-1.68487 1.707444,-1.68487 0.957086,0 1.695097,0.73343 1.695097,1.68487 m 0.833967,-1.90853 v 3.81706 h 0.297039 v -1.83092 h 0.514703 c 0.458963,0 0.604308,0.0621 1.063625,0.78387 l 0.666044,1.04705 h 0.34678 l -0.862188,-1.32116 c -0.178859,-0.26811 -0.3302,-0.48683 -0.509059,-0.58208 0.487186,-0.17886 0.727781,-0.48683 0.727781,-0.92851 0,-0.50977 -0.3302,-0.98531 -1.265061,-0.98531 z m 0.297039,0.24624 h 0.620889 c 0.699558,0 1.007533,0.31327 1.007533,0.74436 0,0.45896 -0.324556,0.75001 -0.995892,0.75001 h -0.63253 z m 5.278614,-0.24624 h -3.161948 v 0.24624 h 1.432984 v 3.57082 h 0.296686 v -3.57082 h 1.432278 z m 3.397249,0 h -0.296333 v 1.76283 h -2.547055 v -1.76283 h -0.296334 v 3.81706 h 0.296334 v -1.80799 h 2.547055 v 1.80799 h 0.296333 z m 2.765073,0 h -2.081742 v 3.81706 h 2.126544 v -0.2466 h -1.830563 v -1.54975 h 1.740605 v -0.24694 h -1.740605 v -1.52753 h 1.785761 z m 0.448027,0 v 3.81706 h 0.295981 v -1.83092 h 0.515055 c 0.458964,0 0.604309,0.0621 1.063273,0.78387 l 0.665691,1.04705 h 0.347486 l -0.862188,-1.32116 c -0.178859,-0.26811 -0.3302,-0.48683 -0.509059,-0.58208 0.486481,-0.17886 0.727428,-0.48683 0.727428,-0.92851 0,-0.50977 -0.3302,-0.98531 -1.264708,-0.98531 z m 0.295981,0.24624 h 0.621242 c 0.699558,0 1.007533,0.31327 1.007533,0.74436 0,0.45896 -0.324556,0.75001 -0.995892,0.75001 h -0.632883 z m 6.140097,-0.24624 h -0.296686 v 3.33551 l -2.893483,-3.33551 H 94.36273 v 3.81706 h 0.296686 v -3.33552 l 2.899128,3.33552 h 0.246239 z" /></g></g></svg>