<?xml version="1.0" encoding="UTF-8"?>
<svg version="1.1" viewBox="0 0 250 91" xmlns="http://www.w3.org/2000/svg" xmlns:cc="http://creativecommons.org/ns#" xmlns:dc="http://purl.org/dc/elements/1.1/" xmlns:rdf="http://www.w3.org/1999/02/22-rdf-syntax-ns#">
<metadata>
<rdf:RDF>
<cc:Work rdf:about="">
<dc:format>image/svg+xml</dc:format>
<dc:type rdf:resource="http://purl.org/dc/dcmitype/StillImage"/>
<dc:title/>
</cc:Work>
</rdf:RDF>
</metadata>
<g transform="translate(0,-961.4)">
<path d="m58.564 1043.6c-4.2665-2.2207-5.5536-9.2826-2.5324-13.894 1.4631-2.233 5.1511-3.3712 8.2335-2.5413 1.6961 0.4567 1.8974 0.647 1.49 1.4082-0.38428 0.718-0.86858 0.8353-2.6297 0.6368-3.9394-0.4441-5.8549 2.1602-5.4226 7.3727 0.28252 3.4068 1.5465 5.1418 3.8911 5.341l1.7476 0.1486v-2.9012c0-2.7756-0.05192-2.9012-1.1968-2.9012-0.87766 0-1.1968-0.2554-1.1968-0.9575 0-0.8413 0.31914-0.9574 2.633-0.9574h2.633v4.5196c0 2.5721-0.21158 4.6503-0.49103 4.823-0.27007 0.167-1.6165 0.4083-2.992 0.5363-1.8357 0.171-2.9441 0-4.167-0.6341zm13.045 0.4718c-1.4589-0.2819-3.0016-2.3681-3.0016-4.0593 0-1.9604 1.932-3.5787 5.0435-4.2246 2.3373-0.4853 2.5305-0.6231 2.1847-1.558-0.61023-1.6496-1.6767-2.0636-3.8334-1.4879-1.5594 0.4162-1.9607 0.3833-2.1762-0.1783-0.41889-1.0916 0.08919-1.4816 2.3769-1.8247 2.5994-0.3897 4.2598-0.017 5.5124 1.2348 0.82613 0.8261 0.94526 1.6061 0.94526 6.1887v5.2434l-1.7952 0.4986c-1.8059 0.5015-3.2827 0.5485-5.2564 0.1673zm4.1793-4.4829c0-2.7883-0.04315-2.8918-1.0771-2.5831-2.1502 0.6418-3.2314 1.6486-3.2314 3.0093 0 1.7519 0.79983 2.4784 2.7287 2.4784h1.5798zm6.7935 4.4126c-0.60796-0.1712-1.0927-0.4728-1.0771-0.6702 0.01558-0.1976 0.02827-0.6558 0.02827-1.0184 0-0.4971 0.52405-0.6002 2.1302-0.4192 2.0179 0.2274 2.1481 0.1689 2.4694-1.1114 0.25839-1.0296 0.1363-1.4715-0.51239-1.8548-3.433-2.0286-3.8495-2.4685-3.996-4.2219-0.26004-3.1117 2.4208-4.8409 6.0125-3.8784 0.66054 0.177 1.0771 0.6579 1.0771 1.2435 0 0.8245-0.21968 0.9137-1.6092 0.6531-1.1277-0.2117-1.7841-0.091-2.1938 0.4023-0.96974 1.1685-0.36824 2.3508 1.806 3.5503 2.4364 1.344 3.1329 2.7686 2.3923 4.8932-0.7737 2.2194-3.5754 3.2633-6.5272 2.4319zm32.701-0.05c-2.19-0.9059-3.299-2.7902-3.5-5.9467-0.22689-3.5633 0.62657-5.6469 2.7663-6.7534 3.8377-1.9845 7.3423 0.1647 7.7792 4.7704l0.1354 1.4274-3.7926 0.4875c-4.1259 0.5303-4.6671 0.9965-3.4005 2.9296 0.71367 1.0892 1.0696 1.202 3.4466 1.0918 2.0165-0.093 2.7527 0.06 3.0769 0.6388 0.77001 1.376-4.0402 2.3767-6.5112 1.3546zm2.7526-7.5101c1.9947-0.3298 2.2926-1.1632 1.05-2.9374-1.4338-2.0469-4.0114-0.9906-4.7049 1.9281-0.34814 1.4654 0.11758 1.5939 3.6549 1.0093zm9.307 6.9959c-1.2442-0.9786-1.2884-1.1767-1.2884-5.766 0-3.9052-0.12801-4.7525-0.71809-4.7525-0.39493 0-0.71807-0.4077-0.71807-0.9062 0-0.4984 0.32314-1.0302 0.71807-1.1818 0.41104-0.1577 0.71809-0.8722 0.71809-1.6709 0-1.0423 0.27249-1.4683 1.0771-1.684 1.7245-0.4621 1.7952-0.3985 1.7952 1.6132 0 1.5958 0.15957 1.9149 0.95744 1.9149 0.6383 0 0.95744 0.3192 0.95744 0.9575 0 0.6382-0.31914 0.9573-0.95744 0.9573-0.88725 0-0.95744 0.3192-0.95744 4.3534 0 3.9877 0.0825 4.3749 0.98256 4.6102 0.67049 0.1753 0.93657 0.5793 0.83776 1.2717-0.19824 1.3892-1.826 1.5247-3.4042 0.2832zm27.8 0.2475c-1.863-1.0479-2.7589-3.0997-2.7569-6.314 2e-3 -3.3075 1.1056-5.4375 3.2847-6.34 1.9031-0.7883 4.4055-0.3242 5.7035 1.0576 2.291 2.4391 2.2257 8.6671-0.11389 10.865-1.438 1.351-4.3885 1.7037-6.1175 0.7314zm3.9434-2.149c1.2278-1.2278 1.3641-6.3871 0.21222-8.0318-0.98412-1.405-2.397-1.3488-3.3686 0.134-1.1156 1.7026-0.76212 7.2564 0.52159 8.1951 1.1924 0.8719 1.5004 0.8372 2.6348-0.2973zm28.613 2.2523c-1.8979-0.8372-1.0017-1.9261 1.6253-1.9747 1.9772-0.037 2.0757-0.1061 2.0757-1.4698 0-1.1585-0.31075-1.5785-1.6283-2.2005-3.1157-1.4712-3.8829-4.3044-1.7446-6.4427 1.7451-1.7452 6.0058-1.4933 6.0058 0.3549 0 0.7977-0.21974 0.8913-1.4558 0.6199-2.9157-0.6403-3.9607 2.0839-1.3416 3.4973 2.3724 1.2802 3.2761 2.3722 3.2761 3.9586 0 2.068-0.69959 3.1361-2.4549 3.748-1.887 0.6578-2.6991 0.6408-4.3577-0.091zm-90.846-8.2362v-8.3777l1.5558 0.011c1.4813 0 1.7164 0.281 4.9069 5.7539l3.351 5.7482 0.13442-5.7539 0.13441-5.7538h2.3641v16.819l-1.3086-0.1515c-1.1198-0.1295-1.8106-1.0136-4.7872-6.1267l-3.4786-5.9755v12.19h-2.8723zm38.353 2.622c-0.84169-3.1656-1.6585-6.0897-1.8152-6.4979-0.22886-0.5964 0.0329-0.7119 1.3314-0.5875l1.6163 0.1548 0.98932 4.5314c0.54413 2.4923 1.1041 4.3234 1.2444 4.0691 0.14025-0.2542 0.75085-2.3471 1.3569-4.651 1.0496-3.9901 1.1647-4.1888 2.4253-4.1888 1.2754 0 1.3631 0.1647 2.417 4.5362 0.60148 2.4949 1.1808 4.449 1.2875 4.3423 0.10661-0.1062 0.67025-2.094 1.2525-4.4165 0.99823-3.9816 1.136-4.2317 2.4135-4.3805 1.1169-0.1301 1.3125 0 1.1138 0.7181-3.5228 12.798-3.2609 12.126-4.7241 12.126-1.2513 0-1.426-0.2258-2.1305-2.7527-0.42206-1.514-1.0044-3.5066-1.2942-4.4281l-0.52675-1.6755-0.86724 2.8722c-0.47699 1.5799-1.0017 3.5725-1.1661 4.4282-0.2637 1.3728-0.48095 1.5559-1.8462 1.5559h-1.5473zm30.582-0.4396c0-3.7173 0.1964-6.3165 0.49103-6.4986 0.27007-0.1668 1.7064-0.4289 3.1918-0.5822 2.4294-0.2508 2.6686-0.195 2.3813 0.5537-0.17569 0.4579-0.31945 1.0431-0.31945 1.3004s-0.21735 0.3334-0.483 0.1693c-0.26565-0.1642-0.91193-0.1624-1.4362 0-0.8785 0.279-0.95316 0.7313-0.95316 5.7756v5.4731h-2.8723zm8.617-3.3793v-9.5744h3.4074l-0.14783 5.7456c-0.0814 3.16-0.0402 5.7426 0.0915 5.739 0.13165 0 1.0601-1.1889 2.0633-2.6339 1.5376-2.2148 2.0541-2.6273 3.2898-2.6273 1.6423 0 1.7368-0.2755-1.3544 3.9459l-1.5066 2.0577 2.3444 3.2097c1.2894 1.7655 2.3444 3.3229 2.3444 3.461s-0.70013 0.2493-1.5558 0.247c-1.3753 0-1.7708-0.3378-3.4084-2.8796-1.0189-1.5814-1.9883-2.9599-2.1542-3.0632-0.16592-0.1039-0.22944 1.1923-0.14114 2.8795l0.16052 3.0675h-3.4327zm-119.2-21.572v-8.6472l1.5366 0.15c1.4168 0.1383 1.7992 0.6039 4.9069 5.975l3.3703 5.8251 0.13398-5.9448 0.13398-5.9446h2.365v17.297l-1.2637-0.1515c-1.0587-0.1269-1.8032-1.0829-4.5913-5.896-1.8302-3.1596-3.4697-5.8963-3.6433-6.0814-0.17356-0.1854-0.24974 2.4536-0.16928 5.8642l0.1463 6.2011h-2.9256zm17.677 8.0337c-3.3315-2.5765-3.4361-9.9103-0.17182-12.049 1.2888-0.8445 4.6077-0.9824 5.979-0.2485 1.4662 0.7847 2.4667 3.2608 2.4941 6.1729 0.04235 4.4919-1.748 6.7202-5.393 6.7125-1.1848 0-2.4936-0.267-2.9083-0.5878zm4.5567-2.3652c1.1519-1.6446 1.0156-6.8039-0.21222-8.0317-0.52659-0.5266-1.1729-0.9575-1.4362-0.9575-0.2633 0-0.90956 0.4309-1.4362 0.9575-0.75408 0.754-0.95745 1.5956-0.95745 3.9626 0 3.2817 0.86331 5.133 2.3936 5.133 0.49674 0 1.2385-0.4787 1.6484-1.0639zm6.4899-3.2277c0-6.9977-0.08573-6.8356 3.8873-7.353 2.4955-0.325 2.8124-0.1785 2.4675 1.1405-0.1698 0.6493-0.65944 0.9298-1.6235 0.9298h-1.3803v11.489h-3.351zm11.039 5.2774c-0.86366-0.8637-0.98567-1.5784-0.98567-5.773 0-3.9361-0.12767-4.7871-0.71809-4.7871-0.39893 0-0.71808-0.4256-0.71808-0.9575s0.31915-0.9575 0.71808-0.9575c0.48004 0 0.71809-0.48 0.71809-1.448 0-1.1138 0.28337-1.5557 1.228-1.9148 1.6945-0.6442 1.6444-0.6884 1.6444 1.448 0 1.7234 0.11967 1.9148 1.1968 1.9148 0.87766 0 1.1968 0.2554 1.1968 0.9575 0 0.7059-0.31914 0.9575-1.2148 0.9575h-1.2148l0.13764 4.4281c0.12691 4.0826 0.22265 4.4655 1.227 4.906 1.5427 0.6767 1.1292 1.8855-0.70601 2.0638-1.0437 0.1015-1.8342-0.1626-2.5094-0.8378zm7.1526-8.8846v-9.8138h2.8723v6.5415l2.5983-0.2155c2.3048-0.1912 2.7374-0.076 3.8298 1.016 1.1806 1.1806 1.2314 1.4598 1.2314 6.7585v5.527h-2.8723v-5.2549c0-4.997-0.0556-5.2912-1.1322-5.9966-0.86063-0.5639-1.4348-0.6268-2.3936-0.2623l-1.2614 0.4795v11.034h-2.8723zm15.501 8.9274c-3.6135-2.2707-3.3919-10.065 0.34299-12.064 1.348-0.7214 4.3819-0.6861 5.5848 0.065 1.3025 0.8134 1.9619 2.0093 2.3107 4.1905l0.30045 1.8789-4.1212 0.585c-4.5725 0.6491-4.9826 1.1045-2.8842 3.2027 1.0925 1.0926 1.5071 1.2051 3.5497 0.9631 1.8414-0.218 2.3721-0.1191 2.6041 0.4854 0.42738 1.1136 0.062 1.2798-3.2203 1.4643-2.3296 0.1311-3.297-0.036-4.4669-0.7711zm4.964-7.0374c1.5332-0.4725-0.26364-4.0443-2.0346-4.0443-1.202 0-2.633 1.8243-2.633 3.3567 0 1.4219 0.0283 1.4379 2.0346 1.1569 1.119-0.1567 2.3038-0.3679 2.633-0.4693zm6.3431 1.4828v-6.4411l1.7952-0.2811c0.98737-0.1546 2.4023-0.3773 3.1443-0.495 1.1728-0.1859 1.3292-0.074 1.1968 0.8579-0.11644 0.8195-0.51826 1.1069-1.7081 1.2217l-1.5558 0.1498v11.429h-2.8723zm8.1383 0.016v-6.4248l1.3165-0.2584c3.8973-0.765 6.7033-0.4583 8.0403 0.8787 1.1119 1.1118 1.175 1.4722 1.175 6.7021v5.527h-2.841l-0.13535-5.3801c-0.13417-5.3331-0.14681-5.3856-1.4427-6.0058-0.9672-0.4628-1.5588-0.4909-2.2739-0.1084-0.88335 0.4727-0.96659 0.9898-0.96659 6.0057v5.4884h-2.8723zm18.191 5.8045c1.7943-1.8466 38.903-26.711 39.638-26.559 1.0242 0.21265 0.95407 2.2195-0.1357 3.8827-0.46487 0.70962-8.2341 5.5577-19.248 12.011-17.016 9.97-22.263 12.733-20.254 10.666zm1.7565-4.4447c0.34236-0.8922 34.272-29.642 36.152-30.633 2.7969-1.4742 3.3696 2.0602 0.72234 4.4581-0.5779 0.52349-7.8366 5.9788-16.13 12.123-20.952 15.521-21.432 15.846-20.743 14.052zm2.0733-5.9579c0-0.5783 2.0783-2.8474 17.665-19.288 6.4444-6.7972 12.093-12.56 12.553-12.806 0.45963-0.246 1.3884-0.44723 2.064-0.44723 1.0248 0 1.2283 0.22108 1.2283 1.3345 0 1.7966-0.52353 2.341-16.277 16.925-16.18 14.979-17.234 15.853-17.234 14.281zm-0.16201-5.1341c0.34798-1.017 22.265-30.259 23.478-31.325 1.3275-1.1666 2.7305-1.4206 3.746-0.678 0.74857 0.54738 0.83367 0.90184 0.45361 1.8896-0.38746 1.0071-21.968 26.335-25.454 29.874-1.2888 1.3086-2.6395 1.454-2.2239 0.2394zm-1.2742-4.9955c0-0.57526 3.5006-7.2767 7.7792-14.892 6.6357-11.811 8.0117-13.959 9.3608-14.613 1.8059-0.87623 3.2241-0.35307 3.1793 1.1728-0.0256 0.87311-16.6 26.164-18.547 28.301-1.236 1.3567-1.7719 1.366-1.7719 0.031zm-2.8627-4.3396c0.0164-1.8293 8.5396-24.968 9.4417-25.632 1.4452-1.0637 3.0186-1.2384 3.8317-0.42519 0.68783 0.6878 0.23198 1.8847-5.1077 13.411-3.2246 6.9608-6.1032 12.896-6.3968 13.19-0.88083 0.88084-1.7792 0.60496-1.769-0.54323zm-24.424-1.2243c-1.2795-0.43016-6.7021-3.9956-6.7021-4.4069 0-0.801 2.5013-3.3449 3.2889-3.3449 1.0138 0 6.2855 5.2672 6.2855 6.2801 0 0.87715-1.8385 1.8192-2.8723 1.4716zm19.78-1.8227c-0.31822-0.82927 1.5266-16.473 2.2938-19.45 0.3235-1.2555 0.89369-2.0154 1.9043-2.538 1.5957-0.82511 3.3095-0.54035 3.3095 0.54992 0 0.96184-4.6898 19.792-5.2635 21.134-0.53529 1.2518-1.8138 1.425-2.244 0.30404zm-15.689-6.1948c-2.6548-4.4488-2.7083-4.607-1.9488-5.766 1.0461-1.5966 3.1575-2.4107 3.8283-1.4762 0.97575 1.3595 3.7653 10.229 3.4641 11.014-0.17031 0.44388-0.8237 0.80295-1.461 0.80295-0.9471 0-1.64-0.81634-3.8826-4.5743zm9.6144 4.1946c-0.34628-0.56031-2.2154-12.336-2.2154-13.958 0-1.6315 2.0274-3.4966 3.5624-3.277 0.94125 0.13465 0.99163 0.48484 1.1224 7.8006 0.0752 4.2127 0.0173 8.1442-0.1288 8.7367-0.25837 1.0476-1.8339 1.5171-2.3405 0.69739z" fill="#fff" stroke-width=".47872"/>
</g>
</svg>
