<?xml version="1.0" encoding="UTF-8" standalone="no"?>
<!-- Created with Inkscape (http://www.inkscape.org/) -->

<svg
   xmlns:dc="http://purl.org/dc/elements/1.1/"
   xmlns:cc="http://creativecommons.org/ns#"
   xmlns:rdf="http://www.w3.org/1999/02/22-rdf-syntax-ns#"
   xmlns:svg="http://www.w3.org/2000/svg"
   xmlns="http://www.w3.org/2000/svg"
   xmlns:sodipodi="http://sodipodi.sourceforge.net/DTD/sodipodi-0.dtd"
   xmlns:inkscape="http://www.inkscape.org/namespaces/inkscape"
   width="250"
   height="91"
   viewBox="0 0 250 91"
   id="svg2"
   version="1.1"
   inkscape:version="0.92.2 (5c3e80d, 2017-08-06)"
   sodipodi:docname="nycc.svg">
  <defs
     id="defs4" />
  <sodipodi:namedview
     id="base"
     pagecolor="#ffffff"
     bordercolor="#666666"
     borderopacity="1.0"
     inkscape:pageopacity="0.0"
     inkscape:pageshadow="2"
     inkscape:zoom="1.4928528"
     inkscape:cx="183.26"
     inkscape:cy="27.908"
     inkscape:document-units="px"
     inkscape:current-layer="layer1"
     showgrid="false"
     inkscape:window-width="1920"
     inkscape:window-height="1001"
     inkscape:window-x="-9"
     inkscape:window-y="-9"
     inkscape:window-maximized="1"
     units="px" />
  <metadata
     id="metadata7">
    <rdf:RDF>
      <cc:Work
         rdf:about="">
        <dc:format>image/svg+xml</dc:format>
        <dc:type
           rdf:resource="http://purl.org/dc/dcmitype/StillImage" />
        <dc:title></dc:title>
      </cc:Work>
    </rdf:RDF>
  </metadata>
  <g
     inkscape:label="Layer 1"
     inkscape:groupmode="layer"
     id="layer1"
     transform="translate(0,-961.4)">
    <rect
       style="opacity:0.001;fill:#ffffff;fill-opacity:1;stroke:none;stroke-width:2.5;stroke-linecap:round;stroke-linejoin:round;stroke-miterlimit:4;stroke-dasharray:none;stroke-dashoffset:0;stroke-opacity:1"
       id="rect4175"
       width="250"
       height="91"
       x="0"
       y="961.4" />
    <g
       id="g1068"
       transform="matrix(0.0797278,0,0,0.0797278,14.662525,974.39992)"
       style="fill:#ffffff">
      <g
         id="g951"
         style="fill:#ffffff">
        <path
           id="path923"
           d="m 814.248,142.856 h 42.175 l 80.566,129.5 h 0.541 v -129.5 h 39.744 V 335.891 H 934.827 L 854.53,206.659 h -0.539 v 129.232 h -39.743 z"
           inkscape:connector-curvature="0"
           style="fill:#ffffff" />
        <path
           id="path925"
           d="m 1070.681,192.331 c 44.068,0 72.455,29.199 72.455,73.807 0,44.34 -28.387,73.539 -72.455,73.539 -43.799,0 -72.186,-29.199 -72.186,-73.539 0,-44.608 28.387,-73.807 72.186,-73.807 z m 0,118.416 c 26.225,0 34.064,-22.439 34.064,-44.609 0,-22.439 -7.84,-44.879 -34.064,-44.879 -25.955,0 -33.795,22.439 -33.795,44.879 0,22.17 7.84,44.609 33.795,44.609 z"
           inkscape:connector-curvature="0"
           style="fill:#ffffff" />
        <path
           id="path927"
           d="m 1160.337,196.116 h 36.498 v 25.955 h 0.541 c 7.029,-17.574 25.955,-29.74 44.609,-29.74 2.703,0 5.949,0.541 8.381,1.352 v 35.688 c -3.514,-0.811 -9.191,-1.352 -13.789,-1.352 -28.115,0 -37.848,20.277 -37.848,44.881 v 62.992 h -38.393 V 196.116 Z"
           inkscape:connector-curvature="0"
           style="fill:#ffffff" />
        <path
           id="path929"
           d="m 1329.546,196.116 h 28.117 v 25.686 h -28.117 v 69.211 c 0,12.977 3.244,16.221 16.221,16.221 4.057,0 7.842,-0.271 11.896,-1.082 v 30.01 c -6.49,1.082 -14.871,1.354 -22.441,1.354 -23.52,0 -44.068,-5.408 -44.068,-33.254 v -82.459 h -23.25 v -25.686 h 23.25 v -41.904 h 38.393 v 41.903 z"
           inkscape:connector-curvature="0"
           style="fill:#ffffff" />
        <path
           id="path931"
           d="m 1378.454,142.856 h 38.391 v 72.727 h 0.813 c 9.73,-15.682 26.494,-23.252 40.822,-23.252 40.826,0 51.1,22.98 51.1,57.586 v 85.975 h -38.393 v -78.945 c 0,-22.98 -6.758,-34.334 -24.602,-34.334 -20.818,0 -29.74,11.625 -29.74,40.014 v 73.266 h -38.391 z"
           inkscape:connector-curvature="0"
           style="fill:#ffffff" />
        <path
           id="path933"
           d="m 1632.8,260.731 -71.105,-117.875 h 47.854 l 45.15,76.24 44.881,-76.24 h 47.311 l -71.645,118.957 v 74.078 H 1632.8 Z"
           inkscape:connector-curvature="0"
           style="fill:#ffffff" />
        <path
           id="path935"
           d="m 1802.042,192.331 c 44.068,0 72.455,29.199 72.455,73.807 0,44.34 -28.387,73.539 -72.455,73.539 -43.799,0 -72.186,-29.199 -72.186,-73.539 0,-44.608 28.387,-73.807 72.186,-73.807 z m 0,118.416 c 26.225,0 34.064,-22.439 34.064,-44.609 0,-22.439 -7.84,-44.879 -34.064,-44.879 -25.955,0 -33.795,22.439 -33.795,44.879 0,22.17 7.84,44.609 33.795,44.609 z"
           inkscape:connector-curvature="0"
           style="fill:#ffffff" />
        <path
           id="path937"
           d="m 1899.368,196.116 h 36.5 v 25.955 h 0.539 c 7.029,-17.574 25.955,-29.74 44.611,-29.74 2.701,0 5.947,0.541 8.379,1.352 v 35.688 c -3.514,-0.811 -9.191,-1.352 -13.787,-1.352 -28.117,0 -37.852,20.277 -37.852,44.881 v 62.992 h -38.391 V 196.116 Z"
           inkscape:connector-curvature="0"
           style="fill:#ffffff" />
        <path
           id="path939"
           d="m 2008.052,142.856 h 38.391 v 103.545 l 48.393,-50.285 h 45.422 l -52.721,51.367 58.666,88.408 h -46.5 l -38.391,-62.453 -14.869,14.33 v 48.123 h -38.391 z"
           inkscape:connector-curvature="0"
           style="fill:#ffffff" />
        <path
           id="path941"
           d="m 2189.458,290.472 c 0.271,16.762 14.33,23.52 29.469,23.52 11.084,0 25.145,-4.324 25.145,-17.844 0,-11.623 -15.951,-15.68 -43.529,-21.627 -22.168,-4.865 -44.338,-12.707 -44.338,-37.311 0,-35.688 30.82,-44.879 60.83,-44.879 30.553,0 58.668,10.273 61.643,44.609 h -36.498 c -1.082,-14.869 -12.438,-18.924 -26.225,-18.924 -8.65,0 -21.359,1.621 -21.359,12.977 0,13.787 21.627,15.682 43.527,20.816 22.441,5.137 44.34,13.248 44.34,39.203 0,36.768 -31.902,48.664 -63.805,48.664 -32.443,0 -64.074,-12.166 -65.697,-49.205 h 36.497 z"
           inkscape:connector-curvature="0"
           style="fill:#ffffff" />
        <path
           id="path943"
           d="m 2304.897,142.856 h 38.393 v 72.727 h 0.811 c 9.732,-15.682 26.496,-23.252 40.824,-23.252 40.824,0 51.098,22.98 51.098,57.586 v 85.975 h -38.391 v -78.945 c 0,-22.98 -6.76,-34.334 -24.604,-34.334 -20.816,0 -29.738,11.625 -29.738,40.014 v 73.266 h -38.393 z"
           inkscape:connector-curvature="0"
           style="fill:#ffffff" />
        <path
           id="path945"
           d="M 2504.688,174.487 H 2466.3 v -31.631 h 38.389 v 31.631 z m -38.388,21.629 h 38.389 V 335.891 H 2466.3 Z"
           inkscape:connector-curvature="0"
           style="fill:#ffffff" />
        <path
           id="path947"
           d="m 2534.968,196.116 h 36.498 v 25.955 h 0.541 c 7.029,-17.574 25.953,-29.74 44.609,-29.74 2.703,0 5.947,0.541 8.381,1.352 v 35.688 c -3.516,-0.811 -9.191,-1.352 -13.787,-1.352 -28.117,0 -37.852,20.277 -37.852,44.881 v 62.992 h -38.391 V 196.116 Z"
           inkscape:connector-curvature="0"
           style="fill:#ffffff" />
        <path
           id="path949"
           d="m 2666.903,275.329 c 1.082,24.334 12.979,35.418 34.336,35.418 15.41,0 27.846,-9.461 30.281,-18.113 h 33.793 c -10.814,32.984 -33.793,47.043 -65.426,47.043 -44.068,0 -71.375,-30.281 -71.375,-73.539 0,-41.904 28.928,-73.807 71.375,-73.807 47.582,0 70.564,40.014 67.861,82.998 z m 62.453,-24.33 c -3.514,-19.467 -11.896,-29.74 -30.551,-29.74 -24.332,0 -31.361,18.926 -31.902,29.74 z"
           inkscape:connector-curvature="0"
           style="fill:#ffffff" />
      </g>
      <g
         id="g979"
         style="fill:#ffffff">
        <path
           id="path953"
           d="m 956.187,441.942 c -6.49,-29.74 -31.092,-46.771 -59.209,-46.771 -51.098,0 -72.726,42.715 -72.726,84.893 0,42.174 21.628,84.893 72.726,84.893 35.688,0 58.396,-27.578 61.912,-61.912 h 18.385 c -5.137,47.313 -35.146,77.592 -80.297,77.592 -60.83,0 -91.11,-47.852 -91.11,-100.572 0,-52.72 30.28,-100.572 91.11,-100.572 36.498,0 72.727,21.898 77.594,62.451 h -18.385 z"
           inkscape:connector-curvature="0"
           style="fill:#ffffff" />
        <path
           id="path955"
           d="m 1127.052,506.829 c 0,40.012 -23.252,73.807 -65.969,73.807 -42.717,0 -65.969,-33.795 -65.969,-73.807 0,-40.014 23.252,-73.809 65.969,-73.809 42.717,0 65.969,33.795 65.969,73.809 z m -114.905,0 c 0,29.738 16.223,59.479 48.936,59.479 32.713,0 48.934,-29.74 48.934,-59.479 0,-29.74 -16.221,-59.48 -48.934,-59.48 -32.713,0 -48.936,29.74 -48.936,59.48 z"
           inkscape:connector-curvature="0"
           style="fill:#ffffff" />
        <path
           id="path957"
           d="m 1265.474,576.581 h -15.68 v -25.145 h -0.541 c -8.922,18.656 -27.307,29.199 -48.125,29.199 -35.146,0 -48.934,-20.547 -48.934,-52.988 v -90.57 h 17.031 v 90.84 c 0.813,25.141 10.275,38.391 37.311,38.391 29.199,0 41.904,-27.576 41.904,-55.965 v -73.266 h 17.033 v 139.504 z"
           inkscape:connector-curvature="0"
           style="fill:#ffffff" />
        <path
           id="path959"
           d="m 1297.372,437.077 h 17.033 v 24.061 h 0.541 c 6.219,-16.762 24.873,-28.117 44.609,-28.117 39.203,0 51.098,20.547 51.098,53.803 v 89.758 h -17.033 v -87.055 c 0,-24.063 -7.84,-42.178 -35.416,-42.178 -27.037,0 -43.258,20.549 -43.799,47.855 v 81.377 h -17.033 z"
           inkscape:connector-curvature="0"
           style="fill:#ffffff" />
        <path
           id="path961"
           d="m 1469.856,437.077 h 28.389 v 14.328 h -28.389 v 94.084 c 0,11.086 1.623,17.574 13.789,18.387 4.867,0 9.734,-0.271 14.6,-0.813 v 14.598 c -5.139,0 -10.004,0.543 -15.141,0.543 -22.709,0 -30.551,-7.57 -30.279,-31.363 v -95.436 h -24.332 v -14.328 h 24.332 v -41.906 h 17.031 z"
           inkscape:connector-curvature="0"
           style="fill:#ffffff" />
        <path
           id="path963"
           d="m 1507.163,437.077 h 18.115 l 45.961,118.957 42.986,-118.957 h 17.033 l -60.561,160.863 c -9.732,23.52 -15.41,30.279 -36.77,30.279 -6.758,-0.271 -10.271,-0.271 -12.975,-1.352 V 612.54 c 4.055,0.809 7.84,1.35 11.625,1.35 15.139,0 18.654,-8.922 24.33,-21.898 l 5.949,-15.953 z"
           inkscape:connector-curvature="0"
           style="fill:#ffffff" />
        <path
           id="path965"
           d="m 1844.228,441.942 c -6.49,-29.74 -31.092,-46.771 -59.209,-46.771 -51.098,0 -72.727,42.715 -72.727,84.893 0,42.174 21.629,84.893 72.727,84.893 35.688,0 58.398,-27.578 61.912,-61.912 h 18.383 c -5.135,47.313 -35.146,77.592 -80.295,77.592 -60.83,0 -91.111,-47.852 -91.111,-100.572 0,-52.72 30.281,-100.572 91.111,-100.572 36.498,0 72.727,21.898 77.592,62.451 h -18.383 z"
           inkscape:connector-curvature="0"
           style="fill:#ffffff" />
        <path
           id="path967"
           d="m 2015.091,506.829 c 0,40.012 -23.25,73.807 -65.967,73.807 -42.717,0 -65.967,-33.795 -65.967,-73.807 0,-40.014 23.25,-73.809 65.967,-73.809 42.717,0 65.967,33.795 65.967,73.809 z m -114.901,0 c 0,29.738 16.221,59.479 48.934,59.479 32.713,0 48.936,-29.74 48.936,-59.479 0,-29.74 -16.223,-59.48 -48.936,-59.48 -32.713,0 -48.934,29.74 -48.934,59.48 z"
           inkscape:connector-curvature="0"
           style="fill:#ffffff" />
        <path
           id="path969"
           d="m 2153.515,576.581 h -15.682 v -25.145 h -0.539 c -8.922,18.656 -27.307,29.199 -48.123,29.199 -35.148,0 -48.936,-20.547 -48.936,-52.988 v -90.57 h 17.031 v 90.84 c 0.813,25.141 10.273,38.391 37.311,38.391 29.199,0 41.906,-27.576 41.906,-55.965 v -73.266 h 17.031 v 139.504 z"
           inkscape:connector-curvature="0"
           style="fill:#ffffff" />
        <path
           id="path971"
           d="m 2185.413,437.077 h 17.033 v 24.061 h 0.541 c 6.217,-16.762 24.873,-28.117 44.609,-28.117 39.201,0 51.098,20.547 51.098,53.803 v 89.758 h -17.033 v -87.055 c 0,-24.063 -7.84,-42.178 -35.416,-42.178 -27.035,0 -43.258,20.549 -43.799,47.855 v 81.377 h -17.033 z"
           inkscape:connector-curvature="0"
           style="fill:#ffffff" />
        <path
           id="path973"
           d="m 2429.272,480.876 c -4.596,-20.818 -17.303,-33.527 -39.473,-33.527 -32.713,0 -48.934,29.74 -48.934,59.48 0,29.738 16.221,59.479 48.934,59.479 21.09,0 38.393,-16.492 40.555,-39.742 h 17.033 c -4.598,33.523 -26.496,54.07 -57.588,54.07 -42.717,0 -65.965,-33.795 -65.965,-73.807 0,-40.014 23.248,-73.809 65.965,-73.809 29.74,0 52.721,15.951 56.506,47.855 h -17.033 z"
           inkscape:connector-curvature="0"
           style="fill:#ffffff" />
        <path
           id="path975"
           d="m 2471.448,383.546 h 17.033 v 27.305 h -17.033 z m 0,53.531 h 17.033 v 139.504 h -17.033 z"
           inkscape:connector-curvature="0"
           style="fill:#ffffff" />
        <path
           id="path977"
           d="m 2521.464,383.546 h 17.033 v 193.035 h -17.033 z"
           inkscape:connector-curvature="0"
           style="fill:#ffffff" />
      </g>
      <g
         id="g985"
         style="fill:#ffffff">
        <path
           id="path981"
           d="M 81.129,335.925 C 92.187,193.487 211.625,80.966 356.852,80.966 c 145.227,0 264.666,112.521 275.724,254.959 h 80.568 C 710.74,295.378 701.57,255.991 685.742,218.573 667.762,176.061 642.029,137.889 609.262,105.122 576.491,72.352 538.319,46.618 495.809,28.638 451.774,10.015 405.024,0.569 356.852,0.569 c -48.172,0 -94.924,9.445 -138.957,28.068 -42.51,17.98 -80.682,43.715 -113.451,76.484 -8.537,8.537 -16.586,17.449 -24.154,26.701 V 0.001 H -0.107 v 335.924 z"
           inkscape:connector-curvature="0"
           style="fill:#ffffff" />
        <path
           id="path983"
           d="M 632.549,379.444 C 621.34,521.735 501.973,634.091 356.852,634.091 211.731,634.091 92.366,521.735 81.157,379.444 H 0.578 c 2.434,40.438 11.598,79.719 27.384,117.041 17.98,42.51 43.713,80.682 76.482,113.451 32.77,32.768 70.941,58.502 113.451,76.482 44.033,18.625 90.785,28.068 138.957,28.068 8.02,0 16.002,-0.268 23.938,-0.791 -39.061,13.719 -81.038,21.184 -124.728,21.184 -98.791,0 -188.833,-38.162 -256.169,-100.518 V 736.98 c 24.467,16.547 50.517,30.689 77.98,42.307 56.459,23.881 116.41,35.988 178.188,35.988 61.778,0 121.729,-12.107 178.188,-35.988 54.514,-23.057 103.462,-56.057 145.488,-98.082 42.027,-42.027 75.027,-90.977 98.084,-145.49 21.045,-49.756 32.941,-102.229 35.471,-156.271 z"
           inkscape:connector-curvature="0"
           style="fill:#ffffff" />
      </g>
      <g
         id="g1013"
         style="fill:#ffffff">
        <path
           id="path987"
           d="m 135.33,427.215 c 1.297,3.992 32.342,97.77 82.518,97.77 11.505,0 22.946,-4.91 34.007,-14.59 0.361,-0.314 0.685,-0.67 0.966,-1.057 l 36.181,-49.799 c -1.842,-1.08 -3.638,-2.244 -5.367,-3.5 -1.742,-1.266 -3.415,-2.623 -5.023,-4.051 l -35.75,49.203 c -8.471,7.264 -16.884,10.947 -25.015,10.947 -33.935,0 -62.254,-64.17 -70.315,-88.936 -6.826,-21.008 -20.464,-81.141 -1.848,-106.762 6.951,-9.568 17.787,-13.613 33.13,-12.369 l 57.838,18.793 c 0.459,-2.086 1.014,-4.152 1.674,-6.184 0.665,-2.049 1.439,-4.061 2.301,-6.031 l -58.545,-19.022 c -0.455,-0.148 -0.926,-0.244 -1.403,-0.287 -2.393,-0.219 -4.748,-0.328 -7.001,-0.328 -16.852,0 -29.766,6.015 -38.385,17.878 -26.237,36.114 -1.061,114.944 0.037,118.325 z"
           inkscape:connector-curvature="0"
           style="fill:#ffffff" />
        <path
           id="path989"
           d="m 471.341,501.787 -36.18,-49.799 c -1.598,1.418 -3.259,2.766 -4.988,4.023 -1.741,1.266 -3.549,2.436 -5.405,3.525 l 35.749,49.205 c 5.686,13.631 5.458,24.803 -0.691,34.133 -21.1,32.016 -102.081,32.43 -102.938,32.432 -22.683,0 -85.392,-5.828 -102.937,-32.432 -6.153,-9.332 -6.383,-20.502 -0.697,-34.133 l 35.749,-49.203 c -1.842,-1.08 -3.637,-2.244 -5.367,-3.5 -1.742,-1.266 -3.415,-2.623 -5.023,-4.053 l -36.183,49.801 c -0.282,0.387 -0.519,0.805 -0.708,1.246 -7.691,17.951 -7.185,33.734 1.506,46.912 24.908,37.771 110.047,38.205 113.703,38.205 3.61,0 88.71,-0.434 113.612,-38.195 8.692,-13.182 9.198,-28.967 1.505,-46.922 -0.188,-0.44 -0.425,-0.858 -0.707,-1.245 z"
           inkscape:connector-curvature="0"
           style="fill:#ffffff" />
        <path
           id="path991"
           d="m 475.429,316.637 c 0.666,2.047 1.224,4.129 1.686,6.23 l 57.842,-18.793 c 15.341,-1.236 26.181,2.799 33.134,12.363 22.406,30.822 -1.591,105.969 -1.813,106.652 -0.013,0.037 -0.025,0.074 -0.037,0.111 -8.038,24.736 -36.342,88.936 -70.324,88.936 -8.129,0 -16.54,-3.682 -25.008,-10.943 L 435.161,451.99 c -1.597,1.418 -3.259,2.764 -4.988,4.021 -1.741,1.266 -3.55,2.438 -5.405,3.525 l 36.183,49.801 c 0.282,0.389 0.605,0.744 0.966,1.059 11.058,9.678 22.497,14.586 34,14.586 50.18,0 81.242,-93.818 82.517,-97.742 0.013,-0.037 0.025,-0.074 0.037,-0.111 1.084,-3.336 26.25,-82.127 0.017,-118.234 -8.621,-11.865 -21.538,-17.88 -38.394,-17.88 -2.253,0 -4.609,0.109 -7.003,0.328 -0.477,0.043 -0.948,0.139 -1.403,0.287 l -58.542,19.021 c 0.854,1.956 1.623,3.953 2.283,5.986 z"
           inkscape:connector-curvature="0"
           style="fill:#ffffff" />
        <path
           id="path993"
           d="m 356.861,230.527 c 2.153,0 4.306,0.111 6.447,0.322 v -60.82 c 4.73,-19.896 16.194,-29.569 35.028,-29.569 37.033,0 87.398,36.24 87.936,36.63 18.351,13.333 65.659,54.906 64.215,86.742 -0.506,11.167 -6.887,20.34 -19.499,28.025 l -57.843,18.794 c 0.855,1.957 1.623,3.953 2.283,5.986 0.666,2.047 1.224,4.129 1.686,6.23 l 58.542,-19.021 c 0.456,-0.148 0.894,-0.346 1.305,-0.592 16.774,-10.002 25.642,-23.07 26.357,-38.84 2.049,-45.197 -66.575,-95.592 -69.532,-97.74 -2.195,-1.595 -54.231,-39.059 -95.451,-39.059 -25.227,0 -41.726,13.92 -47.713,40.254 -0.106,0.467 -0.16,0.944 -0.16,1.424 v 61.554 c 2.127,-0.209 4.263,-0.32 6.399,-0.32 z"
           inkscape:connector-curvature="0"
           style="fill:#ffffff" />
        <path
           id="path995"
           d="m 150.449,264.406 c 0.715,15.771 9.585,28.842 26.362,38.846 0.411,0.246 0.849,0.443 1.305,0.592 l 58.538,19.021 c 0.459,-2.086 1.014,-4.152 1.674,-6.184 0.665,-2.049 1.439,-4.059 2.301,-6.031 l -57.844,-18.796 c -12.612,-7.685 -18.995,-16.858 -19.504,-28.022 -1.748,-38.304 63.522,-86.236 64.134,-86.682 0.027,-0.02 0.055,-0.039 0.083,-0.06 0.504,-0.366 50.841,-36.625 87.942,-36.625 18.833,0 30.296,9.671 35.025,29.563 v 60.817 c 2.125,-0.208 4.261,-0.319 6.397,-0.319 2.153,0 4.306,0.111 6.447,0.322 v -61.557 c 0,-0.479 -0.054,-0.956 -0.16,-1.424 -5.986,-26.33 -22.484,-40.247 -47.71,-40.247 -41.23,0 -93.296,37.483 -95.446,39.045 -0.027,0.02 -0.055,0.039 -0.083,0.06 -2.92,2.123 -71.51,52.493 -69.461,97.681 z"
           inkscape:connector-curvature="0"
           style="fill:#ffffff" />
        <g
           id="g1007"
           style="fill:#ffffff">
          <path
             id="path997"
             d="m 437.951,512.639 c 0,46.283 -59.668,27.523 -81.025,27.523 -21.395,0 -81.063,18.521 -81.063,-27.523 12.27,38.76 53.155,15.959 81.063,15.959 27.906,0 68.756,22.8 81.025,-15.959 z"
             inkscape:connector-curvature="0"
             style="fill:#ffffff" />
          <path
             id="path999"
             d="m 531.706,326.758 c 44.018,14.303 7.737,65.254 1.136,85.564 -6.611,20.348 -7.435,82.818 -51.224,68.592 40.654,0.307 31.603,-45.623 40.227,-72.164 8.624,-26.541 42.932,-58.346 9.861,-81.992 z"
             inkscape:connector-curvature="0"
             style="fill:#ffffff" />
          <path
             id="path1001"
             d="m 383.895,180.15 c 27.205,-37.443 64.45,12.807 81.729,25.359 17.308,12.576 76.467,32.664 49.403,69.914 12.856,-38.57 -33.623,-44.154 -56.201,-60.557 -22.577,-16.404 -42.223,-58.863 -74.931,-34.716 z"
             inkscape:connector-curvature="0"
             style="fill:#ffffff" />
          <path
             id="path1003"
             d="m 198.786,275.423 c -27.204,-37.443 32.096,-57.338 49.375,-69.893 17.308,-12.574 54.693,-62.631 81.757,-25.381 -32.709,-24.145 -52.383,18.334 -74.96,34.736 -22.578,16.404 -69.028,21.968 -56.172,60.538 z"
             inkscape:connector-curvature="0"
             style="fill:#ffffff" />
          <path
             id="path1005"
             d="m 232.195,480.914 c -44.019,14.303 -44.613,-48.244 -51.214,-68.557 -6.61,-20.346 -42.664,-71.369 1.125,-85.6 -33.07,23.648 1.248,55.484 9.873,82.025 8.623,26.544 -0.439,72.439 40.216,72.132 z"
             inkscape:connector-curvature="0"
             style="fill:#ffffff" />
        </g>
        <g
           id="g1011"
           style="fill:#ffffff">
          <path
             id="path1009"
             d="m 240.142,378.889 c 3.419,4.705 7.452,8.201 11.816,10.367 -2.009,3.832 -3.181,8.365 -3.41,13.434 -0.91,20.084 12.259,44.705 31.314,58.545 12.989,9.434 29.771,14.844 46.043,14.844 13.499,0 24.401,-3.865 30.982,-10.566 6.579,6.697 17.478,10.563 30.972,10.563 16.05,0 33.28,-5.559 46.091,-14.867 19.035,-13.836 32.188,-38.445 31.277,-58.516 -0.23,-5.068 -1.401,-9.602 -3.41,-13.434 4.362,-2.168 8.392,-5.664 11.808,-10.367 11.712,-16.123 14.967,-42.539 7.913,-64.24 -8.659,-26.636 -33.93,-49.14 -55.183,-49.14 -1.582,0 -3.124,0.131 -4.616,0.386 -0.632,-4.269 -2.346,-8.612 -5.131,-12.835 -11.065,-16.778 -36.187,-28.956 -59.734,-28.956 h -0.012 c -23.53,0.004 -48.636,12.181 -59.697,28.954 -2.785,4.224 -4.5,8.568 -5.131,12.837 -1.491,-0.254 -3.032,-0.385 -4.612,-0.385 -21.263,0 -46.542,22.524 -55.201,49.186 -7.045,21.682 -3.786,48.078 7.921,64.19 z m 110.321,73.052 c -2.435,8.318 -14.646,11.293 -24.559,11.293 -13.42,0 -27.811,-4.633 -38.495,-12.393 -17.725,-12.873 -26.641,-34.119 -26.031,-47.572 0.26,-5.734 2.097,-9.795 5.463,-12.08 l 2.565,-0.834 24.058,-7.816 c 9.808,22.648 31.397,39.041 56.998,41.414 v 27.988 z m -49.814,-96.759 c 0,-16.363 7.029,-31.111 18.221,-41.398 3.152,-2.896 6.638,-5.432 10.387,-7.557 8.167,-4.627 17.59,-7.283 27.628,-7.283 10.037,0 19.46,2.656 27.626,7.283 3.75,2.123 7.236,4.658 10.388,7.557 11.192,10.285 18.222,25.035 18.222,41.398 0,3.816 -0.386,7.547 -1.115,11.152 -0.862,4.266 -2.218,8.352 -3.989,12.211 -8.037,17.52 -24.807,30.221 -44.709,32.494 -2.11,0.242 -4.251,0.379 -6.424,0.379 -2.172,0 -4.313,-0.137 -6.422,-0.379 -19.903,-2.273 -36.673,-14.975 -44.71,-32.492 -1.771,-3.859 -3.127,-7.945 -3.989,-12.211 -0.728,-3.607 -1.114,-7.336 -1.114,-11.154 z m 125.748,95.634 c -10.696,7.771 -25.103,12.412 -38.54,12.412 -9.909,0 -22.116,-2.971 -24.549,-11.287 v -27.99 c 25.601,-2.371 47.189,-18.766 56.997,-41.412 l 26.628,8.652 c 3.364,2.287 5.2,6.348 5.461,12.082 0.611,13.444 -8.293,34.676 -25.997,47.543 z m -7.438,-170.148 c 2,-1.556 4.427,-2.313 7.395,-2.313 14.104,0 35.476,17.221 42.967,40.266 6.467,19.896 1.689,42.012 -6.089,52.719 -2.531,3.484 -6.667,7.639 -11.993,7.639 -0.111,0 -0.222,-0.002 -0.332,-0.006 l -26.633,-8.652 c 1.095,-4.877 1.691,-9.938 1.691,-15.139 0,-20.631 -9.101,-39.164 -23.485,-51.832 z M 307.887,260.13 c 7.408,-11.235 27.091,-23.178 48.976,-23.182 l 0.01,-6.422 v 6.422 c 21.903,0 41.6,11.945 49.012,23.184 3.16,4.792 4.061,9.157 2.682,12.986 l -16.466,22.663 c -10.32,-6.142 -22.359,-9.682 -35.215,-9.682 -12.856,0 -24.897,3.541 -35.217,9.684 l -16.465,-22.664 c -1.379,-3.829 -0.478,-8.196 2.683,-12.989 z m -63.451,58.534 c 7.492,-23.07 28.873,-40.308 42.984,-40.308 2.965,0 5.39,0.757 7.39,2.312 l 16.479,22.682 c -14.384,12.67 -23.485,31.203 -23.485,51.832 0,5.201 0.597,10.264 1.692,15.141 l -26.625,8.65 c -5.492,0.166 -9.752,-4.074 -12.338,-7.635 -7.775,-10.699 -12.554,-32.795 -6.097,-52.674 z"
             inkscape:connector-curvature="0"
             style="fill:#ffffff" />
        </g>
      </g>
    </g>
  </g>
</svg>
