<?xml version="1.0" encoding="UTF-8"?>
<svg version="1.1" viewBox="0 0 250 91" xmlns="http://www.w3.org/2000/svg" xmlns:cc="http://creativecommons.org/ns#" xmlns:dc="http://purl.org/dc/elements/1.1/" xmlns:rdf="http://www.w3.org/1999/02/22-rdf-syntax-ns#">
<metadata>
<rdf:RDF>
<cc:Work rdf:about="">
<dc:format>image/svg+xml</dc:format>
<dc:type rdf:resource="http://purl.org/dc/dcmitype/StillImage"/>
<dc:title/>
</cc:Work>
</rdf:RDF>
</metadata>
<g transform="translate(0,-961.4)">
<path d="m199.03 1034.9v-0.5537h0.78639c0.74093 0 0.80678-0.021 1.1394-0.3601 0.19418-0.1979 0.44641-0.6397 0.56053-0.9817l0.20748-0.6218-1.9007-4.8286c-1.0454-2.6558-1.9007-4.858-1.9007-4.8937 0-0.036 0.30475-0.05 0.67723-0.033l0.67721 0.033 1.5591 4.0714c0.8575 2.2393 1.5933 4.0336 1.6351 3.9873 0.0418-0.046 0.602-1.4797 1.2448-3.1853 0.64284-1.7057 1.3262-3.5125 1.5185-4.015l0.34976-0.9138h0.65485c0.36017 0 0.65486 0.019 0.65486 0.042 0 0.1087-4.3401 11.083-4.5315 11.458-0.28372 0.5562-0.89299 1.0847-1.4188 1.2307-0.23011 0.064-0.7548 0.1164-1.166 0.1168h-0.74762zm-158.3-0.4811c-0.55138-0.511-0.53432-1.3007 0.03852-1.7827 0.7761-0.6531 1.8628-0.1205 1.8682 0.9156 0.0019 0.3838-0.06195 0.5436-0.32129 0.8029-0.42733 0.4274-1.1615 0.4571-1.5854 0.064zm-4.3611-0.177c-0.70423-0.2972-0.92818-1.2779-0.42765-1.8727 0.78677-0.935 2.285-0.1406 1.9828 1.0513-0.16342 0.6447-0.96749 1.0694-1.5552 0.8214zm9.3074-0.048c-0.42541-0.1907-0.755-0.8354-0.65643-1.2841 0.03853-0.1755 0.19514-0.4442 0.34801-0.597 0.87844-0.8784 2.2872-0.024 1.9294 1.1706-0.20353 0.6793-0.95522 1.0088-1.621 0.7105zm-13.96-1.2409c-0.91081-0.4493-0.71472-1.9853 0.28138-2.2041 0.67126-0.1474 1.4483 0.4755 1.4483 1.1611 0 0.4083-0.33412 0.8982-0.72373 1.0609-0.46932 0.1962-0.57597 0.1942-1.006-0.018zm18.497 2e-4c-0.87536-0.4319-0.84904-1.6792 0.04439-2.1032 0.32388-0.1537 0.4586-0.1626 0.81995-0.055 0.46797 0.1402 0.86369 0.6402 0.86442 1.0921 6.57e-4 0.4284-0.32554 0.9169-0.72332 1.0831-0.46923 0.1961-0.576 0.1942-1.0054-0.018zm60.897-0.3845c-1.555-0.2773-2.3484-1.2345-2.3484-2.8331 0-1.4298 0.47485-2.3761 1.437-2.8637 0.97858-0.4958 1.7019-0.6271 3.8103-0.6915l1.9799-0.061-0.0605-0.5864c-0.0861-0.8345-0.33986-1.2954-0.88509-1.6077-0.41975-0.2405-0.59487-0.2672-1.7404-0.2657-1.1493 0-1.344 0.033-1.9937 0.313-1.0817 0.4677-1.0363 0.4685-1.3646-0.027-0.1632-0.2466-0.29673-0.4774-0.29673-0.513 0-0.036 0.31151-0.2051 0.69224-0.3767 1.8095-0.8152 4.2401-0.8986 5.6207-0.1929 0.39712 0.203 0.56554 0.3864 0.83069 0.9045l0.33257 0.6498 0.0554 3.2312c0.0607 3.5409 0.0597 3.5359 0.73107 3.6619 0.36721 0.069 0.37651 0.084 0.37651 0.6121v0.5415h-0.61467c-0.76383 0-1.194-0.2138-1.3825-0.6871-0.08-0.2008-0.15446-0.3786-0.16545-0.395-0.011-0.017-0.21315 0.1471-0.44925 0.3634-0.26787 0.2453-0.68812 0.4731-1.1178 0.6058-0.81459 0.2516-2.6187 0.3656-3.4472 0.2179zm2.9869-1.2746c1.2118-0.4275 1.7517-1.3132 1.841-3.0198l0.055-1.0522-1.6526 0.071c-3.4259 0.1483-4.2895 0.6071-4.2958 2.2824-4e-3 1.1704 0.38235 1.6513 1.5222 1.8924 0.59907 0.1267 1.9385 0.034 2.5303-0.1744zm14.49 1.2806c-1.7162-0.2914-2.3929-1.1525-2.3688-3.0138 0.02-1.5445 0.53871-2.3659 1.8343-2.9048 0.71538-0.2975 2.286-0.5055 3.8164-0.5055h1.4807v-0.5303c0-0.7563-0.38084-1.4614-0.93566-1.7321-0.95353-0.4654-3.1527-0.3013-4.2358 0.3161l-0.46421 0.2647-0.66609-1.024 0.29883-0.1993c0.16437-0.1096 0.69758-0.3319 1.1849-0.4938 0.76846-0.2555 1.0772-0.2957 2.3259-0.3032 2.0579-0.012 2.8669 0.2935 3.3478 1.2653 0.36564 0.7388 0.46872 1.7597 0.47116 4.6658 3e-3 2.8487-8e-3 2.8028 0.64961 2.9342 0.3347 0.067 0.34941 0.093 0.34941 0.6098v0.5401h-0.64962c-0.73805 0-1.1119-0.2149-1.3424-0.7714l-0.13908-0.3358-0.39638 0.348c-0.55087 0.4837-1.1489 0.7222-2.1601 0.8614-0.96374 0.1327-1.6556 0.1351-2.401 0.01zm2.2009-1.1131c1.7846-0.2896 2.5618-1.3073 2.5618-3.3548v-0.8833l-1.6644 0.072c-3.4328 0.1486-4.2914 0.6621-4.1873 2.5043 0.0379 0.6703 0.0864 0.8181 0.36316 1.107 0.56339 0.5881 1.5586 0.7767 2.9268 0.5547zm13.859 1.1605c-2.3848-0.4121-3.0501-0.9806-3.3415-2.8553-0.14636-0.9414-0.0238-1.8098 0.36115-2.5596 0.29058-0.566 1.1078-1.4103 1.7897-1.8489 0.28936-0.1861 0.52611-0.3823 0.52611-0.436 0-0.054-0.12903-0.5344-0.28673-1.0683-0.3985-1.3492-0.42195-2.7465-0.0586-3.4936 0.45336-0.9323 1.2611-1.3377 2.6481-1.3288 1.6017 0.01 2.3428 0.7284 2.4374 2.3621 0.0558 0.9644-0.0783 1.5037-0.52785 2.1233-0.33995 0.4685-1.1394 1.1262-1.914 1.5748-0.28936 0.1675-0.52611 0.3482-0.52611 0.4017 0 0.054 0.23675 0.485 0.52611 0.9586 0.50774 0.8314 2.8234 3.3546 3.0779 3.3539 0.29952 0 1.4414-2.6962 1.8187-4.2926 0.0756-0.3201 0.17068-0.6024 0.21126-0.6275 0.0406-0.025 0.30859 0.01 0.5956 0.074 0.60993 0.1395 0.61453-0.041-0.0531 2.0768-0.24011 0.7615-0.68366 1.857-0.98566 2.4345-0.51321 0.9815-0.53619 1.0595-0.35179 1.1943 0.34671 0.2535 1.5884 0.5801 2.2058 0.5801h0.59751v1.2512l-0.91376-0.066c-0.94217-0.069-1.9444-0.3551-2.6067-0.7459l-0.37874-0.2235-0.5101 0.3379c-0.73587 0.4874-1.7587 0.7686-2.9964 0.8236-0.58705 0.026-1.192 0.026-1.3443 0zm2.9104-1.3769c0.33755-0.1263 0.66617-0.2928 0.73026-0.37 0.0877-0.1057-0.18017-0.4404-1.0823-1.3527-1.0486-1.0603-2.5583-3.0573-2.5583-3.3841 0-0.4562-1.4157 0.7779-1.8176 1.5845-0.56006 1.1239-0.31785 2.7269 0.5 3.3092 0.81078 0.5773 2.9644 0.6858 4.228 0.2131zm-1.4622-7.32c1.1884-0.7982 1.6438-1.5856 1.4941-2.5837-0.1185-0.7902-0.44392-1.09-1.2464-1.148-1.3142-0.095-1.7613 0.4327-1.6637 1.9639 0.0672 1.0546 0.46073 2.3798 0.67035 2.2573 0.0706-0.041 0.40605-0.2614 0.74564-0.4895zm39.223 8.6436c-1.555-0.2774-2.3484-1.2346-2.3484-2.8332 0-1.4298 0.47485-2.3761 1.437-2.8637 0.97859-0.4958 1.7019-0.6271 3.8103-0.6915l1.9799-0.061-0.0605-0.5864c-0.0877-0.8498-0.3597-1.3445-0.89632-1.6304-0.39307-0.2094-0.63002-0.2426-1.7292-0.2419-1.1506 0-1.3434 0.031-1.9937 0.3119-1.0817 0.4677-1.0362 0.4685-1.3646-0.027-0.1632-0.2466-0.29673-0.4774-0.29673-0.513 0-0.036 0.31151-0.2051 0.69224-0.3767 1.8173-0.8187 4.2488-0.8988 5.6199-0.185 0.39355 0.2048 0.56997 0.3964 0.83177 0.9032l0.33227 0.6432 0.0601 3.2203c0.033 1.7712 0.0992 3.3038 0.14713 3.4059 0.0485 0.1034 0.27954 0.2181 0.52141 0.2589l0.43436 0.073v1.0882h-0.61467c-0.76383 0-1.194-0.2138-1.3825-0.6871-0.08-0.2008-0.15415-0.3783-0.16472-0.3943-0.0106-0.016-0.19539 0.137-0.41068 0.34-0.23491 0.2216-0.67795 0.4632-1.108 0.6044-0.83843 0.2752-2.6186 0.3984-3.4962 0.2419zm2.9869-1.2747c1.2163-0.4291 1.7687-1.3361 1.845-3.0294l0.0469-1.0424-1.6506 0.071c-3.4216 0.1481-4.2874 0.6085-4.2938 2.2832-4e-3 1.1694 0.38263 1.6504 1.5222 1.8915 0.59907 0.1267 1.9385 0.034 2.5303-0.1744zm34.261 1.2679c-0.88981-0.1288-1.9466-0.6632-2.4312-1.2293-0.75943-0.8873-1.1349-2.5231-1.0149-4.422 0.16023-2.5366 1.1253-3.9126 3.0514-4.3507 1.8548-0.4219 3.7202-0.083 4.8719 0.8868l0.3554 0.2991-0.92629 0.9438-0.48076-0.367c-0.26442-0.2017-0.66986-0.431-0.90099-0.5094-0.55989-0.1898-1.9551-0.1916-2.6031 0-0.62673 0.1822-1.3462 0.771-1.636 1.3393-0.48344 0.9476-0.57418 3.2887-0.17215 4.4409 0.40818 1.17 1.2888 1.7561 2.7784 1.8494 1.0718 0.067 1.8874-0.1359 2.5893-0.6443l0.47647-0.3452 0.43592 0.4254 0.43591 0.4253-0.31027 0.2593c-0.49237 0.4116-1.6068 0.9009-2.3164 1.0171-0.75264 0.1233-1.2715 0.1197-2.2027-0.015zm8.9161 0.013c-1.0257-0.1373-2.638-0.6955-2.8093-0.9726-0.047-0.076 0.20025-0.5325 0.53892-0.9952 0.0118-0.016 0.30758 0.1018 0.65731 0.2619 1.0079 0.4614 1.6845 0.5955 2.9975 0.5944 1.9338 0 2.4921-0.3868 2.4921-1.7185 0-1.0322-0.41328-1.2823-2.994-1.812-2.4842-0.5097-3.3115-1.203-3.3162-2.779-5e-3 -1.8351 0.92638-2.6167 3.2643-2.7382 1.2536-0.065 2.5566 0.1325 3.4738 0.5271l0.56363 0.2425-0.29396 0.5135c-0.16167 0.2825-0.29937 0.5238-0.30599 0.5362-7e-3 0.012-0.35911-0.1062-0.7833-0.2634-0.56921-0.211-1.0614-0.2999-1.8788-0.3396-1.3063-0.063-1.9511 0.078-2.3988 0.5256-0.26858 0.2685-0.31478 0.403-0.31478 0.9162 0 0.4856 0.0525 0.6582 0.27265 0.8957 0.35345 0.3814 0.57016 0.4591 2.5265 0.9065 1.9371 0.4429 2.4536 0.6529 2.9234 1.1879 0.69152 0.7876 0.73349 2.4542 0.0865 3.432-0.61245 0.9255-2.5411 1.3681-4.7014 1.079zm-135.13-6.761v-6.6724l3.1289 0.065c3.3322 0.07 4.2278 0.1834 5.33 0.6802 1.1694 0.527 1.9285 1.5112 2.3541 3.052 0.28961 1.0486 0.29126 4.6172 3e-3 5.6487-0.43432 1.5521-1.2304 2.5733-2.4592 3.1546-1.1785 0.5575-1.7588 0.6351-5.1722 0.6917l-3.1843 0.053zm6.6172 5.1757c1.4022-0.4024 2.2587-1.118 2.6773-2.2369 0.32118-0.8584 0.4923-2.3708 0.41348-3.6543-0.12466-2.0298-0.5778-3.1363-1.553-3.792-0.94219-0.6335-1.9436-0.8029-4.7491-0.8038h-2.0767v10.771l2.3536-0.058c1.6066-0.039 2.538-0.1111 2.9344-0.2249zm19.099 1.3339c-0.5206-0.1666-0.97419-0.63-1.1157-1.1397-0.0758-0.2732-0.12146-1.7329-0.12184-3.8979l-7e-4 -3.4612h-1.7721v-1.2184h1.7514l0.0629-0.526c0.0345-0.2894 0.0946-0.9579 0.13345-1.4856 0.0756-1.0279 0.11647-1.084 0.79359-1.0881 0.24665 0 0.24921 0.015 0.24921 1.5491v1.5506h2.769v1.2184h-2.7884l0.0378 3.3505c0.0397 3.5241 0.0656 3.7081 0.55893 3.9721 0.13195 0.07 0.67906 0.1534 1.2158 0.1841l0.97589 0.055v1.0769l-1.1907-0.011c-0.65486-0.01-1.3562-0.064-1.5585-0.1291zm36.926-0.1088c0.043-0.1371 1.2247-3.1297 2.6259-6.6503l2.5477-6.401 1.434 0.066 1.7708 4.4304c0.97391 2.4367 2.1593 5.4146 2.6343 6.6178l0.86352 2.1875h-1.3776l-0.60631-1.523-0.6063-1.5229h-6.8571l-0.60011 1.5229-0.60012 1.523h-0.65339c-0.62691 0-0.65021-0.01-0.57519-0.2492zm8.6511-4.4304c-0.0822-0.198-0.73658-1.8469-1.4543-3.6643-0.71771-1.8173-1.3427-3.2627-1.3887-3.2119-0.0614 0.068-2.0168 4.9356-2.8511 7.0977-0.0419 0.1086 0.58162 0.1385 2.895 0.1385h2.9484zm4.909-0.1809v-4.8604l0.2492-0.067c0.13706-0.037 0.38627-0.068 0.55379-0.069 0.27956 0 0.30459 0.033 0.30459 0.4231 0 0.2336 0.0266 0.4512 0.0592 0.4839 0.0326 0.032 0.20944-0.081 0.39298-0.2525 0.18356-0.1715 0.61792-0.424 0.96525-0.561 0.54517-0.2152 0.84361-0.2502 2.1822-0.2552 1.3943-0.01 1.6082 0.02 2.1212 0.2523 0.69078 0.3125 0.9458 0.5705 1.2792 1.2938 0.24818 0.5384 0.2555 0.6525 0.28981 4.5121l0.0352 3.9596h-1.3441v-3.5037c0-3.8301-0.0405-4.1473-0.59701-4.671-0.46839-0.4407-0.93591-0.5754-1.9947-0.5746-1.5845 0-2.3253 0.3512-2.8101 1.3285l-0.30226 0.6091-0.0349 3.4059-0.0349 3.4058h-1.3147zm22.931 4.6665c-0.21114-0.1065-0.48527-0.3682-0.60918-0.5813-0.21835-0.3758-0.22625-0.583-0.25644-6.7286l-0.0311-6.3409h1.336v6.0794c0 6.9588-0.0671 6.5 0.96914 6.6208l0.58148 0.068v1.0767l-0.80299-2e-4c-0.544-1e-4 -0.92684-0.062-1.1869-0.1939zm15.139 0.06c-0.60199-0.1597-1.0344-0.6408-1.178-1.3105-0.0712-0.3318-0.12012-1.9116-0.12012-3.8773v-3.3174h-1.7721v-1.2094l0.91376-0.032 0.91376-0.033 0.1946-2.9114 0.5396-0.1066 0.5396-0.1067v3.1801h2.6582v1.2183h-2.6582v3.3632c0 3.2205 0.01 3.3755 0.22655 3.6512 0.27734 0.3526 0.82672 0.5158 1.7394 0.5166h0.69224v1.1076l-1.1353-0.011c-0.6244-0.01-1.3236-0.062-1.5539-0.1226zm4.9043-4.7947v-4.9288h1.3291v9.8575h-1.3291zm-188.03 3.4418c-0.36969-0.1654-0.6994-0.6653-0.6994-1.0605 0-0.4156 0.33406-0.8982 0.73876-1.0673 0.51188-0.2138 0.95587-0.109 1.3073 0.3086 0.79718 0.9474-0.22082 2.3226-1.3466 1.8192zm26.883-0.084c-1.0041-0.6804-0.52624-2.1549 0.68805-2.123 0.36668 0.01 0.52188 0.082 0.76989 0.3597 0.91102 1.0195-0.33369 2.525-1.4579 1.7633zm-31.004-2.8103c-0.8842-0.7441-0.26233-2.1646 0.88049-2.0112 0.53571 0.072 0.75276 0.2364 0.95738 0.7259 0.46029 1.1012-0.91425 2.0624-1.8379 1.2853zm34.647-0.04c-0.53466-0.5347-0.37853-1.5688 0.28232-1.8699 0.52404-0.2387 0.93497-0.164 1.3433 0.2443 0.42384 0.4238 0.48875 0.8573 0.2093 1.3978-0.21338 0.4126-0.47847 0.5516-1.0523 0.5516-0.35946 0-0.52896-0.07-0.78259-0.3238zm-38.008-3.3233c-0.31055-0.2775-0.36172-0.3963-0.36172-0.8398 0-0.4475 0.05027-0.5615 0.37583-0.8524 0.32776-0.2929 0.43755-0.3289 0.85833-0.2814 0.56978 0.064 0.79424 0.2271 1.0036 0.728 0.47409 1.1341-0.94572 2.0769-1.8761 1.2456zm41.573 0.1686c-0.75364-0.4177-0.72865-1.6888 0.04009-2.0391 1.3334-0.6075 2.3748 1.0751 1.2362 1.9974-0.28008 0.2269-0.90533 0.2473-1.2763 0.041zm153.94-4.5527v-0.9414h1.3291v1.8829h-1.3291zm-198.27 0.507c-0.25448-0.2545-0.32376-0.4228-0.32376-0.7864 0-0.3818 0.06828-0.531 0.39076-0.8534 0.3558-0.3558 0.43255-0.3851 0.85838-0.328 0.33932 0.046 0.55467 0.16 0.78483 0.4176 0.27775 0.3109 0.3101 0.418 0.2601 0.8616-0.07663 0.6799-0.45291 1.0124-1.1458 1.0124-0.40579 0-0.56216-0.062-0.82452-0.3238zm46.822 0.034c-0.37996-0.38-0.477-0.9125-0.24724-1.3568 0.18958-0.3666 0.67807-0.6799 1.0601-0.6799 0.69006 0 1.2854 0.7447 1.1473 1.4351-0.1666 0.8331-1.3619 1.1998-1.9602 0.6016zm-48.749-4.282c-0.32243-0.3225-0.39076-0.4717-0.39076-0.8534 0-0.6689 0.45646-1.1101 1.1483-1.1101 0.69288 0 1.0692 0.3324 1.1458 1.0123 0.05 0.4436 0.01766 0.5507-0.2601 0.8615-0.23016 0.2576-0.44551 0.3722-0.78483 0.4177-0.42583 0.057-0.50257 0.028-0.85838-0.328zm51.03 0.2484c-0.13668-0.054-0.35089-0.2635-0.47602-0.4636-0.68975-1.1029 0.75348-2.3155 1.754-1.4736 1.0274 0.8645-0.01518 2.445-1.2779 1.9372zm-51.931-4.5307c-0.67812-0.2889-0.91902-1.2408-0.45778-1.8088 0.69815-0.8599 2.0762-0.3905 2.0762 0.7071 0 0.7953-0.89988 1.4079-1.6184 1.1017zm53.095-0.07c-0.68511-0.3717-0.80053-1.2955-0.23281-1.8632 0.39652-0.3965 1.1037-0.4032 1.5654-0.015 1.0642 0.8955-0.10547 2.5437-1.3326 1.8779zm28.381-1.4535c-0.21321-0.023-0.91922-0.1398-1.5689-0.2608-5.7962-1.0789-9.1251-4.5913-10.129-10.687-0.24771-1.5044-0.28513-5.5698-0.0651-7.0671 0.49525-3.3695 1.6436-5.9197 3.5032-7.7792 1.8247-1.8247 4.1038-2.8799 7.4289-3.4395 0.79309-0.1334 1.7838-0.1874 3.4889-0.1898 2.6739 0 4.3941 0.2219 6.2101 0.8154 5.8398 1.9084 8.6446 6.8586 8.3764 14.784-0.12646 3.7363-0.82502 6.3178-2.3375 8.6381-1.8955 2.9081-4.9753 4.5999-9.3664 5.1455-0.8654 0.1076-4.6417 0.135-5.5409 0.04zm4.6548-3.5831c6.0883-0.7466 8.983-4.6655 8.7094-11.791-0.14037-3.6561-0.90916-5.7689-2.7858-7.6558-0.85785-0.8625-1.1582-1.0845-2.0535-1.5175-1.7473-0.8452-3.4058-1.1783-5.8667-1.1783-6.8532 0-10.264 3.2312-10.694 10.13-0.26661 4.2826 1.025 8.1203 3.3568 9.9737 1.2601 1.0015 3.2512 1.7796 5.192 2.0287 1.0877 0.1398 3.0478 0.1448 4.1414 0.011zm20.785 3.5461c-3.1791-0.3637-4.9331-1.5974-5.6655-3.9848-0.28595-0.9321-0.34745-3.1429-0.12318-4.4277 0.72975-4.1805 3.8012-5.6282 12.386-5.8382l2.852-0.069-4e-3 -0.287c-8e-3 -0.6024-0.31232-1.9812-0.53224-2.4123-0.44114-0.8647-1.3254-1.3902-2.774-1.6486-2.4127-0.4303-5.2757 0.026-7.6386 1.2175-0.4479 0.2259-0.83702 0.388-0.86473 0.3603-0.26618-0.2662-1.8991-2.7887-1.8532-2.8629 0.10572-0.1711 1.9494-1.0479 2.8624-1.3613 1.8692-0.6417 3.0677-0.8488 5.2884-0.9136 5.0381-0.1471 7.507 0.8799 8.4562 3.5173 0.50198 1.3948 0.52246 1.6725 0.59237 8.0254 0.0599 5.4487 0.0869 6.128 0.25563 6.436 0.20892 0.3815 0.54633 0.5461 1.3343 0.6512l0.5261 0.07v3.1727l-0.69224 0.069c-0.99348 0.099-2.401-0.076-3.0202-0.3763-0.53287-0.2579-1.0207-0.869-1.2915-1.6178l-0.12737-0.3523-0.51343 0.5271c-1.3759 1.4126-3.4084 2.0445-6.9264 2.1535-0.91376 0.028-2.0508 0.01-2.5267-0.047zm4.9537-3.3736c2.2316-0.4783 3.658-1.8266 4.2204-3.9894 0.0951-0.3655 0.20376-1.3564 0.24156-2.2021l0.0687-1.5375-3.0912 0.06c-6.6637 0.1294-8.5629 0.98989-8.7673 3.9725-0.15699 2.2904 0.87826 3.5251 3.2394 3.8637 0.89114 0.1277 3.1413 0.036 4.0884-0.1673zm49.54 3.3736c-3.4119-0.3903-5.207-1.7997-5.7939-4.549-0.21235-0.9948-0.14651-3.5804 0.11521-4.5257 0.56075-2.0253 1.8523-3.3377 4.0502-4.1155 1.8656-0.6602 4.2116-0.9623 8.2361-1.0608l2.8626-0.07-0.0707-0.6191c-0.13731-1.2028-0.30181-1.7856-0.65027-2.3038-0.66657-0.9913-1.7945-1.437-3.9204-1.5495-2.1696-0.1147-4.3228 0.3373-6.2757 1.3176-0.47976 0.2408-0.91082 0.3968-0.95789 0.3465-0.31941-0.3407-1.8631-2.7429-1.8138-2.8226 0.0968-0.1566 1.7566-0.9626 2.6949-1.3085 1.7361-0.6402 3.3048-0.9171 5.5188-0.9744 4.9962-0.1293 7.4502 0.9008 8.3942 3.5237 0.50196 1.3948 0.52246 1.6724 0.59236 8.0254 0.0599 5.4487 0.0869 6.128 0.25564 6.436 0.20891 0.3815 0.54632 0.5461 1.3343 0.6512l0.5261 0.07v3.1727l-0.69224 0.068c-0.77448 0.077-2.2961-0.062-2.7834-0.2548-0.63598-0.2512-0.98069-0.5997-1.345-1.3599l-0.3662-0.7641-0.2998 0.393c-0.40669 0.5333-1.6011 1.3036-2.5434 1.6405-0.42642 0.1525-1.2488 0.3562-1.8275 0.4526-1.3004 0.2168-4.0811 0.3121-5.2403 0.1795zm4.9537-3.3736c1.0767-0.2309 2.0724-0.7284 2.7614-1.38 1.1302-1.0689 1.591-2.3728 1.7004-4.8115l0.069-1.5375-3.0912 0.06c-5.6599 0.1099-7.6282 0.70659-8.4836 2.572-0.21627 0.4716-0.25372 0.7345-0.25231 1.7721 2e-3 1.0496 0.0374 1.291 0.25959 1.7432 0.66302 1.3488 2.1735 1.8975 4.942 1.7949 0.73102-0.027 1.6736-0.1231 2.0947-0.2133zm42.602 3.3702c-2.1454-0.2683-3.6284-0.9356-4.8863-2.1989-1.2196-1.2246-1.8703-2.528-2.339-4.685-0.22135-1.0187-0.24824-1.4589-0.25231-4.1307-5e-3 -3.1975 0.0708-3.9267 0.57494-5.538 0.92962-2.9712 2.6853-4.6481 5.6552-5.4011 0.85054-0.2157 1.2463-0.2441 3.346-0.2406 2.5228 0 3.6958 0.1505 4.938 0.6152 0.77929 0.2915 1.8159 0.9944 2.0952 1.4206 0.12184 0.1858 0.2589 0.3381 0.30459 0.3382 0.0457 3e-4 0.083-2.3671 0.083-5.2607v-5.261h3.7658v29.886l-0.85838 0.081c-0.47211 0.045-1.1301 0.086-1.4622 0.093l-0.60387 0.011-0.13881-0.8308c-0.0764-0.4568-0.16868-0.9949-0.20515-1.1958l-0.0663-0.3653-0.48024 0.5314c-0.89896 0.9947-2.3417 1.6571-4.2765 1.9634-1.335 0.2113-4.1252 0.3016-5.1935 0.1681zm5.2941-3.6464c1.1145-0.3166 1.6159-0.5926 2.352-1.2948 0.68712-0.6553 1.1897-1.553 1.478-2.6399 0.31243-1.1779 0.45195-3.4238 0.31125-5.0105-0.20556-2.3181-0.61819-3.4901-1.591-4.5186-1.0804-1.1425-2.6555-1.6407-5.1921-1.6423-3.5816 0-5.271 1.1568-6.1125 4.1936-0.22111 0.798-0.24528 1.1393-0.24325 3.4335 2e-3 2.272 0.0285 2.6433 0.24453 3.4335 0.71437 2.6128 2.1108 3.9152 4.6159 4.3054 0.8146 0.1269 3.3321-0.032 4.1371-0.2599zm-64.591 3.3158c-0.95903-0.1079-1.9404-0.4986-2.4392-0.9712-0.40447-0.3832-0.80014-1.1622-1.0364-2.0406-0.16912-0.6288-0.19044-1.9365-0.22577-13.847l-0.039-13.153h3.6651l5e-3 12.045c3e-3 6.6247 0.0475 12.413 0.0995 12.862 0.15607 1.3479 0.61977 1.7297 2.2526 1.8552l0.96581 0.074v3.1793h-0.63686c-0.35028 0-0.88607 0.021-1.1907 0.047-0.30458 0.025-0.94357 0-1.42-0.052zm-24.331-15.004v-15.008h3.7646l0.0566 19.516 9.4145-10.974 2.0903-0.01c1.9681-0.01 2.0814 0.01 1.9383 0.1852-0.0836 0.1056-1.722 2.0381-3.6409 4.2946-1.9189 2.2565-3.5562 4.1874-3.6385 4.2909-0.13231 0.1665 0.32358 0.8965 3.9406 6.3105 2.2496 3.3673 4.1266 6.1846 4.1712 6.2607 0.0636 0.1088-0.36585 0.138-2.0023 0.1362h-2.0833l-3.3228-4.8681c-1.8275-2.6774-3.3552-4.8569-3.3948-4.8434-0.0396 0.013-0.84957 0.9065-1.7998 1.9843l-1.7278 1.9597v5.7721h-3.7658zm54.493 4.3838v-10.624l0.69225-0.06c0.38073-0.033 1.0482-0.087 1.4833-0.1193 0.90201-0.068 0.84257-0.1341 0.98667 1.103 0.0426 0.3655 0.0973 0.699 0.12146 0.7411 0.0243 0.042 0.26334-0.1365 0.53136-0.3971 1.4532-1.4124 3.9689-2.0286 7.8413-1.9207 2.2541 0.062 2.8719 0.183 4.1541 0.809 1.7357 0.8474 2.6373 2.3358 3.0142 4.9766 0.065 0.4554 0.11159 3.9398 0.11288 8.4452l2e-3 7.67h-3.655l-4e-3 -6.8392c-2e-3 -3.7617-0.0493-7.1924-0.1054-7.6239-0.37373-2.875-1.9612-3.9287-5.7002-3.7832-3.2043 0.1247-4.7759 1.2093-5.4523 3.7626-0.15947 0.6019-0.18984 1.6119-0.2282 7.5891l-0.0443 6.8946h-3.7508v-10.624zm-180.5 7.6588c-0.68631-0.556-0.5954-1.5621 0.17724-1.9617 0.43465-0.2248 0.76232-0.2111 1.19 0.05 0.63234 0.3855 0.67508 1.3414 0.08313 1.859-0.35263 0.3083-1.1013 0.3356-1.4504 0.053zm54.093 0.076c-0.26901-0.1567-0.5261-0.69-0.5261-1.0915 0-0.2147 0.11661-0.4664 0.32319-0.6976 0.27747-0.3106 0.39626-0.3618 0.83978-0.3618 0.44351 0 0.5623 0.051 0.83978 0.3618 0.70225 0.7859 0.22707 1.9127-0.80357 1.9054-0.26358 0-0.56647-0.055-0.67307-0.1163zm-53.599-4.7218c-0.97028-0.602-0.53566-2.1272 0.60804-2.1339 0.53685 0 0.80562 0.1422 1.0161 0.5491 0.57925 1.1202-0.56823 2.2398-1.6241 1.5848zm53.047-0.1336c-0.31055-0.2774-0.36171-0.3963-0.36171-0.8398s0.05116-0.5622 0.36171-0.8398c0.64918-0.58 1.5358-0.3806 1.8706 0.4208 0.47351 1.1333-0.94373 2.087-1.8706 1.2588zm-51.828-4.4075c-0.97296-0.6036-0.56271-2.1364 0.57182-2.1364 0.57382 0 0.83893 0.139 1.0523 0.5517 0.27946 0.5403 0.21455 0.9739-0.20929 1.3977-0.42975 0.4297-0.91921 0.4945-1.4148 0.187zm50.858 0.055c-0.38135-0.1978-0.70203-0.8821-0.60993-1.3014 0.10458-0.4762 0.64239-0.8895 1.1573-0.8895 0.82295 0 1.3919 0.8255 1.0813 1.5688-0.08494 0.2032-0.23496 0.4362-0.33339 0.5179-0.25819 0.2141-0.97265 0.2716-1.2952 0.1042zm-48.588-4.2041c-0.82017-0.2183-1.0797-1.2257-0.48678-1.8893 0.27748-0.3106 0.39627-0.3617 0.83978-0.3617 0.44352 0 0.5623 0.051 0.83977 0.3617 0.81106 0.9077-0.0079 2.2046-1.1928 1.8893zm46.927 0.058c-0.45239-0.149-0.67051-0.3258-0.83844-0.6796-0.15369-0.3239-0.16262-0.4586-0.05435-0.82 0.14021-0.4679 0.64016-0.8637 1.0921-0.8644 0.68577 0 1.3301 0.7794 1.1858 1.4365-0.07607 0.3464-0.55339 0.889-0.78199 0.889-0.07809 0-0.20835 0.021-0.28948 0.047-0.08113 0.025-0.22227 0.022-0.31365-0.01zm-44.379-3.9663c-0.37705-0.164-0.69967-0.6619-0.69899-1.0785 6.94e-4 -0.452 0.39645-0.9519 0.86442-1.0922 1.3666-0.4094 2.1345 1.5506 0.84683 2.1615-0.43502 0.2065-0.55593 0.2076-1.0123 0.01zm41.313-0.048c-0.43328-0.2712-0.58855-0.5459-0.58855-1.0412 0-0.7904 0.84518-1.344 1.582-1.0362 0.78843 0.3294 1.0011 1.2236 0.43932 1.8468-0.39959 0.4432-0.95124 0.532-1.4328 0.2306zm-38.025-3.3064c-0.28205-0.1409-0.43026-0.3169-0.54403-0.6459-0.14205-0.411-0.13698-0.4921 0.05536-0.8861 0.16209-0.332 0.31783-0.4704 0.66405-0.5902 0.41088-0.142 0.49202-0.1369 0.88607 0.055 0.33066 0.1614 0.47055 0.3181 0.58848 0.6592 0.13772 0.3983 0.13375 0.4916-0.03621 0.8498-0.11503 0.2425-0.33732 0.4719-0.5591 0.5771-0.46516 0.2207-0.57823 0.2187-1.0546-0.019zm34.82 0.035c-0.7395-0.3219-0.94398-1.203-0.42288-1.8223 0.69924-0.831 2.0424-0.3292 2.0424 0.7631 0 0.4944-0.25452 0.8648-0.73085 1.0638-0.44378 0.1854-0.45187 0.1854-0.88863-0.01zm-31.246-3.0007c-0.35581-0.3557-0.38514-0.4325-0.32804-0.8583 0.04552-0.3394 0.16011-0.5547 0.41769-0.7848 0.31084-0.2778 0.41798-0.3102 0.86156-0.2602 0.67986 0.076 1.0123 0.453 1.0123 1.1458 0 0.6919-0.4413 1.1483-1.1101 1.1483-0.38174 0-0.53095-0.069-0.85338-0.3908zm27.229 0.2362c-0.34575-0.1916-0.55718-0.5855-0.56206-1.0471-0.0029-0.2774 0.09116-0.4661 0.37265-0.7476 0.42384-0.4239 0.85736-0.4888 1.3978-0.2093 0.41262 0.2133 0.55158 0.4785 0.55158 1.0522 0 0.8835-0.95324 1.399-1.7599 0.9518zm-22.948-2.1628c-0.25364-0.2537-0.32376-0.4232-0.32376-0.7826 0-0.2524 0.05132-0.5547 0.11404-0.6719 0.15338-0.2866 0.68245-0.5477 1.1099-0.5477 0.48654 0 1.102 0.6183 1.102 1.1071 0 1.0728-1.2609 1.6364-2.0022 0.8951zm18.565 0.075c-0.34864-0.3049-0.49666-0.7997-0.37538-1.2551 0.12736-0.4781 0.44772-0.728 1.0153-0.792 0.42606-0.048 0.5341-0.013 0.86287 0.2809 0.32555 0.2908 0.37583 0.4049 0.37583 0.8524 0 0.4435-0.05116 0.5622-0.36171 0.8398-0.4617 0.4125-1.0945 0.4433-1.517 0.074zm-14.024-1.2936c-0.25934-0.2592-0.32327-0.419-0.32129-0.8029 0.0057-1.1082 1.1695-1.5999 1.9469-0.8226 0.79924 0.7992 0.26815 1.9494-0.90016 1.9494-0.29628 0-0.48663-0.085-0.72543-0.3239zm9.5013 0.1006c-0.41561-0.3269-0.57153-0.8821-0.37784-1.3455 0.20939-0.5009 0.43385-0.6638 1.0036-0.728 0.42078-0.047 0.53056-0.011 0.85832 0.2814 0.32555 0.2908 0.37583 0.4049 0.37583 0.8524 0 0.4435-0.05116 0.5623-0.36171 0.8398-0.44421 0.3969-1.0678 0.4385-1.4982 0.1zm-4.48-0.2738c-0.82127-0.3569-0.90077-1.5135-0.1394-2.028 0.50908-0.344 1.0446-0.2721 1.4676 0.1971 0.55746 0.6183 0.34937 1.5171-0.42626 1.8412-0.44519 0.1861-0.45043 0.186-0.90189-0.011z" fill="#fff" stroke-width=".11076"/>
</g>
</svg>
