<?xml version="1.0" encoding="UTF-8" standalone="no"?>
<!-- Created with Inkscape (http://www.inkscape.org/) -->

<svg
   xmlns:dc="http://purl.org/dc/elements/1.1/"
   xmlns:cc="http://creativecommons.org/ns#"
   xmlns:rdf="http://www.w3.org/1999/02/22-rdf-syntax-ns#"
   xmlns:svg="http://www.w3.org/2000/svg"
   xmlns="http://www.w3.org/2000/svg"
   xmlns:sodipodi="http://sodipodi.sourceforge.net/DTD/sodipodi-0.dtd"
   xmlns:inkscape="http://www.inkscape.org/namespaces/inkscape"
   width="250"
   height="91"
   viewBox="0 0 250 91"
   id="svg2"
   version="1.1"
   inkscape:version="0.92.2 (5c3e80d, 2017-08-06)"
   sodipodi:docname="oakland.svg">
  <defs
     id="defs4" />
  <sodipodi:namedview
     id="base"
     pagecolor="#ffffff"
     bordercolor="#666666"
     borderopacity="1.0"
     inkscape:pageopacity="0.0"
     inkscape:pageshadow="2"
     inkscape:zoom="1.9799"
     inkscape:cx="183.26"
     inkscape:cy="27.908"
     inkscape:document-units="px"
     inkscape:current-layer="layer1"
     showgrid="false"
     inkscape:window-width="1920"
     inkscape:window-height="1001"
     inkscape:window-x="-9"
     inkscape:window-y="-9"
     inkscape:window-maximized="1"
     units="px" />
  <metadata
     id="metadata7">
    <rdf:RDF>
      <cc:Work
         rdf:about="">
        <dc:format>image/svg+xml</dc:format>
        <dc:type
           rdf:resource="http://purl.org/dc/dcmitype/StillImage" />
        <dc:title></dc:title>
      </cc:Work>
    </rdf:RDF>
  </metadata>
  <g
     inkscape:label="Layer 1"
     inkscape:groupmode="layer"
     id="layer1"
     transform="translate(0,-961.4)">
    <rect
       style="opacity:0.001;fill:#c87137;fill-opacity:1;stroke:none;stroke-width:2.5;stroke-linecap:round;stroke-linejoin:round;stroke-miterlimit:4;stroke-dasharray:none;stroke-dashoffset:0;stroke-opacity:1"
       id="rect4175"
       width="250"
       height="91"
       x="0"
       y="961.4" />
    <g
       id="g10"
       transform="matrix(0.37356322,0,0,-0.37356322,38.333333,1039.4)"
       style="fill:#ffffff">
      <g
         id="g12"
         transform="scale(0.1)"
         style="fill:#ffffff">
        <path
           d="M 1289.67,1140 1020,1230 v 390 l 270,-80 -0.33,-400"
           style="fill:#ffffff;fill-opacity:1;fill-rule:nonzero;stroke:none"
           id="path14"
           inkscape:connector-curvature="0" />
        <path
           d="m 1360,1540 270,80 -0.94,-389.73 L 1360,1140 v 400"
           style="fill:#ffffff;fill-opacity:1;fill-rule:nonzero;stroke:none"
           id="path16"
           inkscape:connector-curvature="0" />
        <path
           d="M 1575,1662.23 1323.36,1740 1075,1662.23 l 248.72,-66.67 251.28,66.67"
           style="fill:#ffffff;fill-opacity:1;fill-rule:nonzero;stroke:none"
           id="path18"
           inkscape:connector-curvature="0" />
        <path
           d="M 1969.67,1140 1700,1230 v 390 l 270,-80 -0.33,-400"
           style="fill:#ffffff;fill-opacity:1;fill-rule:nonzero;stroke:none"
           id="path20"
           inkscape:connector-curvature="0" />
        <path
           d="m 2040,1540 270,80 -0.94,-389.73 L 2040,1140 v 400"
           style="fill:#ffffff;fill-opacity:1;fill-rule:nonzero;stroke:none"
           id="path22"
           inkscape:connector-curvature="0" />
        <path
           d="M 2255,1662.23 2003.36,1740 1755,1662.23 l 248.72,-66.67 251.28,66.67"
           style="fill:#ffffff;fill-opacity:1;fill-rule:nonzero;stroke:none"
           id="path24"
           inkscape:connector-curvature="0" />
        <path
           d="M 270,970 0,1050 V 660 L 269.672,570 270,970"
           style="fill:#ffffff;fill-opacity:1;fill-rule:nonzero;stroke:none"
           id="path26"
           inkscape:connector-curvature="0" />
        <path
           d="M 340,970 610,1050 609.063,660.262 340,570 v 400"
           style="fill:#ffffff;fill-opacity:1;fill-rule:nonzero;stroke:none"
           id="path28"
           inkscape:connector-curvature="0" />
        <path
           d="M 555,1092.23 303.359,1170 55,1092.23 303.723,1025.56 555,1092.23"
           style="fill:#ffffff;fill-opacity:1;fill-rule:nonzero;stroke:none"
           id="path30"
           inkscape:connector-curvature="0" />
        <path
           d="M 949.672,570 680,660 v 390 l 270,-80 -0.328,-400"
           style="fill:#ffffff;fill-opacity:1;fill-rule:nonzero;stroke:none"
           id="path32"
           inkscape:connector-curvature="0" />
        <path
           d="m 1020,970 270,80 -0.94,-389.738 L 1020,570 v 400"
           style="fill:#ffffff;fill-opacity:1;fill-rule:nonzero;stroke:none"
           id="path34"
           inkscape:connector-curvature="0" />
        <path
           d="M 1235,1092.23 983.359,1170 735,1092.23 983.723,1025.56 1235,1092.23"
           style="fill:#ffffff;fill-opacity:1;fill-rule:nonzero;stroke:none"
           id="path36"
           inkscape:connector-curvature="0" />
        <path
           d="M 609.672,0 340,90 V 480 L 610,400 609.672,0"
           style="fill:#ffffff;fill-opacity:1;fill-rule:nonzero;stroke:none"
           id="path38"
           inkscape:connector-curvature="0" />
        <path
           d="M 680,400 950,480 949.063,90.2617 680,0 v 400"
           style="fill:#ffffff;fill-opacity:1;fill-rule:nonzero;stroke:none"
           id="path40"
           inkscape:connector-curvature="0" />
        <path
           d="M 895,522.23 643.359,600 395,522.23 643.723,455.559 895,522.23"
           style="fill:#ffffff;fill-opacity:1;fill-rule:nonzero;stroke:none"
           id="path42"
           inkscape:connector-curvature="0" />
        <path
           d="m 1803.9,344.75 -19.84,-0.07 c -7.28,0 -16.56,-4.918 -18.84,-12.891 l -60.19,-212.051 -59.53,211.59 c -1.79,6.633 -8.04,13.352 -16.54,13.352 h -23.49 c -8.46,0 -14.63,-6.809 -16.34,-13.489 l -55.38,-209.39 -57.22,210.039 c -2.26,7.68 -11.77,12.84 -19.23,12.84 l -28.55,0.05 c -6.1,0 -11.77,-2.621 -14.81,-6.839 -2.06,-2.86 -2.63,-6.102 -1.68,-8.922 l 88.4,-312.9573 c 1.95,-6.58201 7.65,-13.21092 15.99,-13.21092 h 28.39 c 7.67,0 14.39,5.58985 16.33,13.51952 l 54.41,208.4687 59.21,-208.707 c 1.78,-6.39059 7.51,-13.28122 15.89,-13.28122 h 27.93 c 7.77,0 14.31,5.39844 16.23,13.30862 l 85.09,312.7306 c 1,3.012 0.42,6.359 -1.61,9.18 -2.99,4.152 -8.59,6.73 -14.62,6.73"
           style="fill:#ffffff;fill-opacity:1;fill-rule:nonzero;stroke:none"
           id="path44"
           inkscape:connector-curvature="0" />
        <path
           d="M 2049.38,211.879 H 1899.4 c 3.45,42.09 30.78,85.73 77.08,87.41 49.27,-1.609 71.81,-44.25 72.9,-87.41 z m -73.01,135.109 c -101.31,0 -147.45,-89.566 -147.45,-172.777 0,-103.8516 57.36,-170.94928 146.13,-170.94928 63.53,0 111.96,32.09768 132.88,88.17968 1.12,3.207 0.77,6.6875 -0.98,9.8086 -2.13,3.789 -6.17,6.648 -10.95,7.699 l -28.12,5.379 c -7.55,1.184 -16.2,-3.289 -19.06,-9.777 -13.66,-31.1604 -38.56,-48.8401 -69.81,-49.7619 -30.07,0.9297 -57.68,18.7929 -70.33,45.4809 -10.28,21.8 -11.8,43.289 -11.97,65.14 l 203.61,0.07 c 4.27,0 8.69,1.879 11.81,5.04 2.61,2.621 4.03,5.878 4,9.14 -0.5,80.899 -37.47,167.328 -139.76,167.328"
           style="fill:#ffffff;fill-opacity:1;fill-rule:nonzero;stroke:none"
           id="path46"
           inkscape:connector-curvature="0" />
        <path
           d="m 2366.62,173.711 c 0,-19.16 -3.47,-114.8321 -71.44,-117.2813 -22.78,0.8711 -45.8,14.2617 -58.66,34.0586 -9.47,14.9727 -15,35.6717 -16.42,61.2817 v 56.289 c 1.11,43.121 31.46,90.441 74.86,92.273 68.2,-2.691 71.66,-105.941 71.66,-126.621 z m -60.78,176.18 h -5.39 c -33.63,0 -60.06,-13.969 -80.35,-42.602 l -0.03,131.93 c 0,7.41 -7.65,14.16 -16.1,14.16 h -29.28 c -7.65,0 -16.21,-6.059 -16.23,-14.16 V 27.3789 c 0.03,-7.4805 7.68,-14.2773 16.12,-14.2773 l 8.6,0.0468 c 8.12,0 13.9,6.543 15.85,12.6211 l 9.16,29.0703 c 21.28,-30.2187 53.33,-47.96871 87.63,-47.96871 h 5.25 c 90.35,0 130.79,87.87891 130.79,174.96891 0,43.351 -10.69,84.801 -29.32,113.719 -21.53,33.511 -58.59,54.332 -96.7,54.332"
           style="fill:#ffffff;fill-opacity:1;fill-rule:nonzero;stroke:none"
           id="path48"
           inkscape:connector-curvature="0" />
        <path
           d="m 2752.47,182.98 c -19.04,13.68 -41.93,18.25 -64.86,22.829 l -43.97,8.152 c -31.55,5.187 -49.81,13.648 -49.81,41.488 0,29.43 30.5,40.68 56.36,41.379 31.58,-0.797 55.33,-14.887 66.86,-39.668 2.74,-5.84 8.81,-9.769 15.12,-9.769 1.08,0 2.18,0.121 3.22,0.347 l 27.44,6.063 c 4.48,0.988 8.66,4.058 10.9,8.051 1.79,3.168 2.18,6.628 1.11,9.718 -16.79,48.91 -59.42,74.758 -123.91,74.758 -58.27,-0.129 -120.54,-26.039 -120.54,-98.406 0,-49.461 31.08,-80.871 92.44,-93.371 l 49.22,-9.379 c 27.02,-5.172 54.65,-14.371 54.65,-43.383 0,-42.9492 -49.98,-47.3281 -65.09,-47.6406 -33.9,0.7305 -72.28,15.8516 -81.6,47.8716 -1.87,7.039 -10.73,12.019 -18.5,10.402 l -28.7,-5.922 c -4.32,-0.91 -8.27,-3.719 -10.57,-7.5117 -1.93,-3.1602 -2.48,-6.6992 -1.59,-9.9297 14.81,-53.1289 66.1,-85.16797 137.2,-85.70704 l 1.58,-0.01172 c 63.5,0 131.35,27.19146 131.35,103.46916 0,31.05 -13.97,58.812 -38.31,76.171"
           style="fill:#ffffff;fill-opacity:1;fill-rule:nonzero;stroke:none"
           id="path50"
           inkscape:connector-curvature="0" />
        <path
           d="m 3042.75,211.57 h -150.02 c 3.43,42.129 30.76,85.789 77.06,87.391 49.25,-1.563 71.82,-44.199 72.96,-87.391 z m -73.04,135.129 c -101.33,0 -147.48,-89.57 -147.48,-172.777 0,-103.8439 57.37,-170.93372 146.15,-170.93372 63.54,0 111.97,32.10152 132.91,88.17192 1.11,3.2109 0.76,6.6992 -1,9.8278 -2.13,3.793 -6.18,6.653 -10.95,7.684 l -28.16,5.379 c -6.59,1.07 -15.78,-2.34 -19.02,-9.789 -13.67,-31.1409 -38.58,-48.8206 -69.8,-49.7815 -30.1,0.9609 -57.7,18.8203 -70.3,45.5 -10.3,21.7495 -11.83,43.2575 -11.98,65.1605 l 203.59,0.05 c 4.24,0 8.63,1.868 11.75,5.008 2.62,2.633 4.04,5.891 4.01,9.172 -0.47,80.891 -37.41,167.328 -139.72,167.328"
           style="fill:#ffffff;fill-opacity:1;fill-rule:nonzero;stroke:none"
           id="path52"
           inkscape:connector-curvature="0" />
        <path
           d="m 3301.69,342.891 c -3.97,0.437 -7.79,0.648 -11.5,0.648 -34.17,0 -61.92,-18.578 -81.18,-54.07 l 0.07,31.082 c -0.03,7.527 -7.54,14.14 -16.07,14.14 h -25.43 c -8.34,0 -15.7,-6.64 -15.76,-14.261 L 3151.78,18.5 c 0,-7.5781 7.36,-14.23047 15.76,-14.23047 l 29.67,0.01172 c 7.72,0 16.41,6.05855 16.48,14.21875 l 0.02,152.219 c 0,25.101 2.34,44.011 14.33,66.383 17.13,31.867 41.05,47.5 73.13,47.75 8.04,0.058 15.1,7.078 15.1,15.027 v 28.242 c 0,7.391 -6.41,13.879 -14.58,14.77"
           style="fill:#ffffff;fill-opacity:1;fill-rule:nonzero;stroke:none"
           id="path54"
           inkscape:connector-curvature="0" />
        <path
           d="m 3613.2,348.82 -23.43,-0.011 c -7.34,0 -16.75,-5.27 -19.03,-13 L 3494.79,97.1016 3417.23,335.57 c -2.29,7.918 -11.72,13.239 -19.1,13.239 l -33.46,0.031 c -6.14,0 -12.08,-2.738 -15.12,-6.969 -2.04,-2.832 -2.6,-6.043 -1.59,-9.039 L 3454.11,17.9414 c 2.04,-6.2305 7.45,-13.51171 16.01,-13.51171 h 40.49 c 7.43,0 13.52,5.05859 16.31,13.53911 L 3629.88,332.73 c 1.03,2.989 0.48,6.211 -1.55,9.051 -3.06,4.27 -8.99,7.039 -15.13,7.039"
           style="fill:#ffffff;fill-opacity:1;fill-rule:nonzero;stroke:none"
           id="path56"
           inkscape:connector-curvature="0" />
        <path
           d="m 3690.18,469.859 c -21.58,0 -39.13,-17.597 -39.13,-39.25 0,-21.648 17.55,-39.238 39.13,-39.238 21.59,0 39.16,17.59 39.16,39.238 0,21.653 -17.57,39.25 -39.16,39.25"
           style="fill:#ffffff;fill-opacity:1;fill-rule:nonzero;stroke:none"
           id="path58"
           inkscape:connector-curvature="0" />
        <path
           d="m 3706.29,350.738 -32.13,0.032 c -8.74,0 -16.7,-7.071 -16.7,-14.821 L 3657.3,15.3594 c 0,-3.8789 2,-7.73049 5.46,-10.58987 3.17,-2.59765 7.22,-4.097655 11.29,-4.097655 l 32.36,-0.050781 h 0.02 c 8.87,0.078125 16.66,6.957036 16.66,14.718706 V 335.949 c 0,7.879 -7.86,14.789 -16.8,14.789"
           style="fill:#ffffff;fill-opacity:1;fill-rule:nonzero;stroke:none"
           id="path60"
           inkscape:connector-curvature="0" />
        <path
           d="m 4006.56,133.34 -26.83,-0.102 c -7.49,0 -13.77,-4.5 -16.56,-12.316 -9.8,-42.2814 -32,-64.1915 -65.66,-65.1603 -65.56,1.9492 -70.65,93.3283 -70.65,121.2893 0,55.758 19.31,115.929 73.22,117.519 32.54,-1 56.21,-24.332 63.31,-62.351 1.34,-7.758 7.3,-13.629 15.44,-14.649 l 28.71,-0.281 c 8.58,0.93 15.31,7.422 15.25,15.473 -10.16,68.707 -57.77,113.117 -121.4,113.117 l -2.2,-0.059 -2.49,0.059 c -92.54,0 -133.97,-86.367 -133.97,-171.957 0,-78.4728 34.93,-170.10169 133.45,-170.10169 h 4.72 c 62.04,0 108.87,43.48829 122.28,113.99969 0.3,3.36 -0.86,6.719 -3.24,9.45 -3.08,3.539 -7.99,5.808 -13.38,6.07"
           style="fill:#ffffff;fill-opacity:1;fill-rule:nonzero;stroke:none"
           id="path62"
           inkscape:connector-curvature="0" />
        <path
           d="M 4271.54,211.57 H 4121.5 c 3.43,42.141 30.77,85.789 77.1,87.391 49.26,-1.563 71.82,-44.199 72.94,-87.391 z m -73.04,135.129 c -101.32,0 -147.46,-89.57 -147.46,-172.777 0,-103.8439 57.37,-170.93372 146.15,-170.93372 63.51,0 111.92,32.08202 132.88,88.16012 1.09,3.2305 0.73,6.7305 -1.02,9.8396 -2.16,3.821 -6.09,6.614 -10.94,7.684 l -28.12,5.379 c -6.62,1.07 -15.78,-2.34 -19.02,-9.789 -13.71,-31.1409 -38.63,-48.8206 -69.84,-49.7932 -30.09,0.9726 -57.68,18.832 -70.28,45.5117 -10.31,21.7815 -11.84,43.2895 -12,65.1605 l 203.61,0.031 c 4.28,0 8.7,1.887 11.83,5.058 2.6,2.649 4,5.911 3.95,9.141 -0.47,80.891 -37.42,167.328 -139.74,167.328"
           style="fill:#ffffff;fill-opacity:1;fill-rule:nonzero;stroke:none"
           id="path64"
           inkscape:connector-curvature="0" />
        <path
           d="m 4593.31,182.98 c -19.07,13.692 -41.99,18.258 -64.88,22.829 l -43.97,8.152 c -31.52,5.187 -49.77,13.648 -49.77,41.488 0,37.961 47.11,41.133 56.3,41.379 31.61,-0.797 55.36,-14.887 66.87,-39.68 2.76,-5.839 8.85,-9.757 15.17,-9.757 1.09,0 2.18,0.121 3.24,0.347 l 27.42,6.063 c 4.48,0.988 8.65,4.07 10.89,8.058 1.78,3.172 2.17,6.621 1.1,9.711 -16.77,48.91 -59.41,74.758 -123.93,74.758 -58.25,-0.129 -120.5,-26.039 -120.5,-98.406 0,-49.473 31.07,-80.883 92.42,-93.371 l 49.24,-9.379 c 27.02,-5.172 54.65,-14.371 54.65,-43.383 0,-42.9492 -49.98,-47.3281 -65.09,-47.6406 -31.43,0.6719 -71.66,13.6524 -81.59,47.8316 -1.82,7.079 -10.67,12.051 -18.58,10.442 l -28.65,-5.922 c -4.34,-0.922 -8.3,-3.75 -10.6,-7.5508 -1.91,-3.1679 -2.46,-6.6797 -1.56,-9.8906 14.77,-53.1289 66.05,-85.16797 137.16,-85.70704 l 1.58,-0.01172 c 63.51,0 131.37,27.19146 131.37,103.46916 0,31.07 -13.96,58.839 -38.29,76.171"
           style="fill:#ffffff;fill-opacity:1;fill-rule:nonzero;stroke:none"
           id="path66"
           inkscape:connector-curvature="0" />
        <path
           d="m 3287.15,967.98 v 72.8 c 0.04,11.04 8.42,18.45 18.48,18.44 l 326.15,0.01 c 10.41,0 18.81,-7.59 18.81,-18.37 v -62.43 c -0.1,-10.45 -8.93,-24.114 -24.57,-45.813 L 3457.09,691.41 c 62.68,1.488 129.04,-7.898 186,-39.922 12.87,-7.218 16.29,-17.929 17.34,-28.386 v -77.68 c 0,-10.711 -11.72,-23.09 -24.02,-16.641 -100.39,52.598 -233.62,58.34 -344.65,-0.609 -11.33,-6.051 -23.21,6.137 -23.21,16.848 v 73.812 c 0,11.777 0.24,32.008 12.13,50.027 l 195.75,280.782 -170.41,0.039 c -10.43,0 -18.77,7.422 -18.87,18.3"
           style="fill:#ffffff;fill-opacity:1;fill-rule:evenodd;stroke:none"
           id="path68"
           inkscape:connector-curvature="0" />
        <path
           d="m 2097.45,513.461 h -99.25 c -9.43,0.617 -16.98,7.73 -17.73,16.801 l 0.07,509.278 c 0,10.19 8.58,18.33 19.14,18.33 l 92.41,0.05 c 9.68,-0.54 17.42,-7.84 18.08,-17.1 v -66.543 h 1.84 c 24.06,64.333 69.45,94.293 130.57,94.293 62.05,0 100.96,-29.96 128.75,-94.293 24.1,64.333 78.73,94.293 137.13,94.293 41.68,0 87.01,-17.12 114.8,-55.68 31.49,-42.89 25,-105.007 25,-159.687 l -0.06,-321.394 c 0,-10.161 -8.57,-18.348 -19.12,-18.348 h -99.1 c -9.98,0.617 -17.83,8.578 -17.83,18.301 V 801.77 c 0,21.421 1.83,75.027 -2.79,95.371 -7.43,34.324 -29.67,43.914 -58.34,43.914 -24.11,0 -49.13,-16.075 -59.32,-41.739 -10.18,-25.761 -9.24,-68.625 -9.24,-97.546 V 531.809 c 0,-10.161 -8.57,-18.348 -19.14,-18.348 h -99.12 c -9.93,0.617 -17.8,8.578 -17.8,18.301 l -0.13,270.008 c 0,56.804 9.29,140.359 -61.09,140.359 -71.32,0 -68.54,-81.426 -68.54,-140.359 l -0.06,-269.961 c 0.04,-10.161 -8.54,-18.348 -19.13,-18.348"
           style="fill:#ffffff;fill-opacity:1;fill-rule:evenodd;stroke:none"
           id="path70"
           inkscape:connector-curvature="0" />
        <path
           d="m 3932.29,964.656 c -73.21,0 -77.82,-99.656 -77.82,-161.836 0,-62.144 -0.92,-195.019 76.92,-195.019 76.89,0 80.58,107.168 80.58,172.531 0,42.859 -1.83,94.285 -14.8,135.012 -11.15,35.379 -33.36,49.312 -64.88,49.312 z m -0.9,103.914 c 147.26,0 226.93,-126.441 226.93,-287.132 0,-155.426 -88.03,-278.676 -226.93,-278.676 -144.51,0 -223.26,126.476 -223.26,284.008 0,158.601 79.64,281.8 223.26,281.8"
           style="fill:#ffffff;fill-opacity:1;fill-rule:evenodd;stroke:none"
           id="path72"
           inkscape:connector-curvature="0" />
        <path
           d="m 4349.32,513.461 h -98.87 c -9.96,0.617 -17.81,8.578 -17.81,18.301 l -0.14,509.508 c 0.82,9.28 9.06,16.6 19.02,16.6 l 92.07,0.05 c 8.68,-0.48 15.8,-6.38 17.62,-14.27 v -77.927 h 1.88 c 27.75,69.667 66.68,102.847 135.19,102.847 44.47,0 88.03,-16.03 115.8,-59.98 C 4640,967.883 4640,899.316 4640,850.012 V 529.52 c -1.11,-9.032 -9.16,-16.059 -18.96,-16.059 h -99.52 c -9.18,0.598 -16.56,7.379 -17.67,16.059 v 276.535 c 0,55.722 6.5,137.187 -62.07,137.187 -24.07,0 -46.27,-16.113 -57.4,-40.73 -13.91,-31.067 -15.75,-62.141 -15.75,-96.457 V 531.809 c -0.17,-10.161 -8.75,-18.348 -19.31,-18.348"
           style="fill:#ffffff;fill-opacity:1;fill-rule:evenodd;stroke:none"
           id="path74"
           inkscape:connector-curvature="0" />
        <path
           d="m 3127.19,514.75 c -6.58,-5.871 -16,-6.262 -23.42,-2.309 -32.95,27.391 -38.87,40.09 -56.88,66.141 -54.47,-55.48 -93.04,-72.121 -163.57,-72.121 -83.57,0 -148.53,51.559 -148.53,154.66 0,80.527 43.61,135.305 105.8,162.172 53.84,23.633 129.04,27.937 186.58,34.402 v 12.871 c 0,23.614 1.85,51.551 -12.09,71.946 -12.03,18.258 -35.24,25.758 -55.69,25.758 -37.85,0 -71.48,-19.403 -79.76,-59.598 -1.68,-8.926 -8.24,-17.793 -17.23,-18.223 l -96.15,10.418 c -8.14,1.828 -17.15,8.321 -14.8,20.715 22.1,116.698 127.46,151.958 221.89,151.958 48.24,0 111.39,-12.88 149.45,-49.39 48.25,-45.127 43.6,-105.263 43.6,-170.783 V 698.781 c 0,-46.5 19.33,-66.91 37.5,-91.972 6.29,-9.039 7.71,-19.75 -0.37,-26.379 -20.26,-16.981 -56.27,-48.231 -76.06,-65.899 z m -100.02,241.961 c 0,-38.672 0.92,-70.922 -18.58,-105.262 -15.78,-27.949 -40.86,-45.117 -68.71,-45.117 -38.02,0 -60.29,28.988 -60.29,71.969 0,84.492 75.82,99.875 147.58,99.875 v -21.465"
           style="fill:#ffffff;fill-opacity:1;fill-rule:evenodd;stroke:none"
           id="path76"
           inkscape:connector-curvature="0" />
        <path
           d="m 1826.45,514.75 c -6.56,-5.871 -16.05,-6.262 -23.47,-2.309 -32.95,27.391 -38.85,40.09 -56.88,66.141 -54.44,-55.48 -93.03,-72.121 -163.6,-72.121 -83.54,0 -148.52,51.559 -148.52,154.66 0,80.527 43.65,135.305 105.84,162.172 53.85,23.633 129.04,27.937 186.58,34.402 v 12.871 c 0,23.614 1.87,51.551 -12.07,71.946 -12.06,18.258 -35.29,25.758 -55.68,25.758 -37.85,0 -71.52,-19.403 -79.77,-59.598 -1.72,-8.926 -8.25,-17.793 -17.23,-18.223 l -96.19,10.418 c -8.12,1.828 -17.14,8.321 -14.81,20.715 22.1,116.698 127.47,151.958 221.89,151.958 48.3,0 111.4,-12.88 149.47,-49.39 48.27,-45.127 43.61,-105.263 43.61,-170.783 V 698.781 c 0,-46.5 19.34,-66.91 37.46,-91.972 6.32,-9.039 7.75,-19.75 -0.31,-26.379 -20.28,-16.981 -56.31,-48.231 -76.09,-65.899 z M 1726.4,756.711 c 0,-38.672 0.91,-70.922 -18.55,-105.262 -15.77,-27.949 -40.87,-45.117 -68.68,-45.117 -38.1,0 -60.36,28.988 -60.36,71.969 0,84.492 75.8,99.875 147.59,99.875 v -21.465"
           style="fill:#ffffff;fill-opacity:1;fill-rule:evenodd;stroke:none"
           id="path78"
           inkscape:connector-curvature="0" />
      </g>
    </g>
    <path
       style="fill:#ffffff;stroke-width:0.11075869"
       d="m 199.03193,1034.9084 v -0.5537 h 0.78639 c 0.74093,0 0.80678,-0.021 1.13942,-0.3601 0.19418,-0.1979 0.44641,-0.6397 0.56053,-0.9817 l 0.20748,-0.6218 -1.9007,-4.8286 c -1.04539,-2.6558 -1.90071,-4.858 -1.90071,-4.8937 0,-0.036 0.30475,-0.05 0.67723,-0.033 l 0.67721,0.033 1.55908,4.0714 c 0.8575,2.2393 1.5933,4.0336 1.6351,3.9873 0.0418,-0.046 0.602,-1.4797 1.24483,-3.1853 0.64284,-1.7057 1.32618,-3.5125 1.51854,-4.015 l 0.34976,-0.9138 h 0.65485 c 0.36017,0 0.65486,0.019 0.65486,0.042 0,0.1087 -4.34013,11.0829 -4.53146,11.4578 -0.28372,0.5562 -0.89299,1.0847 -1.4188,1.2307 -0.23011,0.064 -0.7548,0.1164 -1.16599,0.1168 h -0.74762 z m -158.300429,-0.4811 c -0.551382,-0.511 -0.53432,-1.3007 0.03852,-1.7827 0.776098,-0.6531 1.862847,-0.1205 1.86817,0.9156 0.0019,0.3838 -0.06195,0.5436 -0.321293,0.8029 -0.427334,0.4274 -1.161462,0.4571 -1.585395,0.064 z m -4.361105,-0.177 c -0.70423,-0.2972 -0.928176,-1.2779 -0.42765,-1.8727 0.78677,-0.935 2.284978,-0.1406 1.982839,1.0513 -0.163415,0.6447 -0.967491,1.0694 -1.555189,0.8214 z m 9.307367,-0.048 c -0.425406,-0.1907 -0.754996,-0.8354 -0.656431,-1.2841 0.03853,-0.1755 0.195142,-0.4442 0.348012,-0.597 0.878435,-0.8784 2.28725,-0.024 1.929425,1.1706 -0.203527,0.6793 -0.955215,1.0088 -1.621006,0.7105 z m -13.959807,-1.2409 c -0.91081,-0.4493 -0.714722,-1.9853 0.281383,-2.2041 0.671257,-0.1474 1.448343,0.4755 1.448343,1.1611 0,0.4083 -0.334122,0.8982 -0.723732,1.0609 -0.469323,0.1962 -0.575973,0.1942 -1.005994,-0.018 z m 18.497248,2e-4 c -0.875361,-0.4319 -0.849036,-1.6792 0.04439,-2.1032 0.323877,-0.1537 0.458602,-0.1626 0.819953,-0.055 0.467971,0.1402 0.863689,0.6402 0.864424,1.0921 6.57e-4,0.4284 -0.325536,0.9169 -0.723317,1.0831 -0.469231,0.1961 -0.576003,0.1942 -1.005448,-0.018 z m 60.896836,-0.3845 c -1.55495,-0.2773 -2.34844,-1.2345 -2.34844,-2.8331 0,-1.4298 0.47485,-2.3761 1.43696,-2.8637 0.97858,-0.4958 1.70186,-0.6271 3.81031,-0.6915 l 1.97988,-0.061 -0.0605,-0.5864 c -0.0861,-0.8345 -0.33986,-1.2954 -0.88509,-1.6077 -0.41975,-0.2405 -0.59487,-0.2672 -1.74043,-0.2657 -1.14931,0 -1.34404,0.033 -1.99366,0.313 -1.08172,0.4677 -1.03626,0.4685 -1.36465,-0.027 -0.1632,-0.2466 -0.29673,-0.4774 -0.29673,-0.513 0,-0.036 0.31151,-0.2051 0.69224,-0.3767 1.80951,-0.8152 4.24007,-0.8986 5.62071,-0.1929 0.39712,0.203 0.56554,0.3864 0.83069,0.9045 l 0.33257,0.6498 0.0554,3.2312 c 0.0607,3.5409 0.0597,3.5359 0.73107,3.6619 0.36721,0.069 0.37651,0.084 0.37651,0.6121 v 0.5415 h -0.61467 c -0.76383,0 -1.19396,-0.2138 -1.38249,-0.6871 -0.08,-0.2008 -0.15446,-0.3786 -0.16545,-0.395 -0.011,-0.017 -0.21315,0.1471 -0.44925,0.3634 -0.26787,0.2453 -0.68812,0.4731 -1.11776,0.6058 -0.81459,0.2516 -2.61867,0.3656 -3.44718,0.2179 z m 2.98694,-1.2746 c 1.21175,-0.4275 1.75169,-1.3132 1.84096,-3.0198 l 0.055,-1.0522 -1.65261,0.071 c -3.42594,0.1483 -4.28946,0.6071 -4.29584,2.2824 -0.004,1.1704 0.38235,1.6513 1.5222,1.8924 0.59907,0.1267 1.9385,0.034 2.53026,-0.1744 z m 14.49042,1.2806 c -1.71617,-0.2914 -2.39291,-1.1525 -2.36882,-3.0138 0.02,-1.5445 0.53871,-2.3659 1.83428,-2.9048 0.71538,-0.2975 2.28603,-0.5055 3.81644,-0.5055 h 1.48073 v -0.5303 c 0,-0.7563 -0.38084,-1.4614 -0.93566,-1.7321 -0.95353,-0.4654 -3.1527,-0.3013 -4.23579,0.3161 l -0.46421,0.2647 -0.33304,-0.512 -0.33305,-0.512 0.29883,-0.1993 c 0.16437,-0.1096 0.69758,-0.3319 1.18491,-0.4938 0.76846,-0.2555 1.0772,-0.2957 2.32594,-0.3032 2.05789,-0.012 2.86687,0.2935 3.34782,1.2653 0.36564,0.7388 0.46872,1.7597 0.47116,4.6658 0.003,2.8487 -0.008,2.8028 0.64961,2.9342 0.3347,0.067 0.34941,0.093 0.34941,0.6098 v 0.5401 h -0.64962 c -0.73805,0 -1.11186,-0.2149 -1.34239,-0.7714 l -0.13908,-0.3358 -0.39638,0.348 c -0.55087,0.4837 -1.14888,0.7222 -2.1601,0.8614 -0.96374,0.1327 -1.65562,0.1351 -2.40099,0.01 z m 2.20087,-1.1131 c 1.7846,-0.2896 2.56176,-1.3073 2.56176,-3.3548 v -0.8833 l -1.66444,0.072 c -3.43277,0.1486 -4.29138,0.6621 -4.18729,2.5043 0.0379,0.6703 0.0864,0.8181 0.36316,1.107 0.56339,0.5881 1.55863,0.7767 2.92681,0.5547 z m 13.85915,1.1605 c -2.38478,-0.4121 -3.05007,-0.9806 -3.34151,-2.8553 -0.14636,-0.9414 -0.0238,-1.8098 0.36115,-2.5596 0.29058,-0.566 1.10783,-1.4103 1.7897,-1.8489 0.28936,-0.1861 0.52611,-0.3823 0.52611,-0.436 0,-0.054 -0.12903,-0.5344 -0.28673,-1.0683 -0.3985,-1.3492 -0.42195,-2.7465 -0.0586,-3.4936 0.45336,-0.9323 1.26112,-1.3377 2.64808,-1.3288 1.60167,0.01 2.34283,0.7284 2.43741,2.3621 0.0558,0.9644 -0.0783,1.5037 -0.52785,2.1233 -0.33995,0.4685 -1.13944,1.1262 -1.91403,1.5748 -0.28936,0.1675 -0.52611,0.3482 -0.52611,0.4017 0,0.054 0.23675,0.485 0.52611,0.9586 0.50774,0.8314 2.82339,3.3546 3.07793,3.3539 0.29952,0 1.44144,-2.6962 1.81867,-4.2926 0.0756,-0.3201 0.17068,-0.6024 0.21126,-0.6275 0.0406,-0.025 0.30859,0.01 0.5956,0.074 0.60993,0.1395 0.61453,-0.041 -0.0531,2.0768 -0.24011,0.7615 -0.68366,1.857 -0.98566,2.4345 -0.51321,0.9815 -0.53619,1.0595 -0.35179,1.1943 0.34671,0.2535 1.58844,0.5801 2.20576,0.5801 h 0.59751 v 0.6256 0.6256 l -0.91376,-0.066 c -0.94217,-0.069 -1.94439,-0.3551 -2.60668,-0.7459 l -0.37874,-0.2235 -0.5101,0.3379 c -0.73587,0.4874 -1.75869,0.7686 -2.99639,0.8236 -0.58705,0.026 -1.19197,0.026 -1.34426,0 z m 2.91035,-1.3769 c 0.33755,-0.1263 0.66617,-0.2928 0.73026,-0.37 0.0877,-0.1057 -0.18017,-0.4404 -1.08229,-1.3527 -1.04865,-1.0603 -2.55832,-3.0573 -2.55832,-3.3841 0,-0.4562 -1.41566,0.7779 -1.81764,1.5845 -0.56006,1.1239 -0.31785,2.7269 0.5,3.3092 0.81078,0.5773 2.9644,0.6858 4.22799,0.2131 z m -1.46224,-7.32 c 1.18844,-0.7982 1.64379,-1.5856 1.49412,-2.5837 -0.1185,-0.7902 -0.44392,-1.09 -1.24639,-1.148 -1.31421,-0.095 -1.76129,0.4327 -1.66372,1.9639 0.0672,1.0546 0.46073,2.3798 0.67035,2.2573 0.0706,-0.041 0.40605,-0.2614 0.74564,-0.4895 z m 39.22283,8.6436 c -1.55496,-0.2774 -2.34844,-1.2346 -2.34844,-2.8332 0,-1.4298 0.47485,-2.3761 1.43695,-2.8637 0.97859,-0.4958 1.70187,-0.6271 3.81032,-0.6915 l 1.97987,-0.061 -0.0605,-0.5864 c -0.0877,-0.8498 -0.3597,-1.3445 -0.89632,-1.6304 -0.39307,-0.2094 -0.63002,-0.2426 -1.72921,-0.2419 -1.15055,0 -1.34335,0.031 -1.99366,0.3119 -1.08171,0.4677 -1.03625,0.4685 -1.36465,-0.027 -0.1632,-0.2466 -0.29673,-0.4774 -0.29673,-0.513 0,-0.036 0.31151,-0.2051 0.69224,-0.3767 1.81733,-0.8187 4.24885,-0.8988 5.61993,-0.185 0.39355,0.2048 0.56997,0.3964 0.83177,0.9032 l 0.33227,0.6432 0.0601,3.2203 c 0.033,1.7712 0.0992,3.3038 0.14713,3.4059 0.0485,0.1034 0.27954,0.2181 0.52141,0.2589 l 0.43436,0.073 v 0.5441 0.5441 h -0.61467 c -0.76383,0 -1.19397,-0.2138 -1.38249,-0.6871 -0.08,-0.2008 -0.15415,-0.3783 -0.16472,-0.3943 -0.0106,-0.016 -0.19539,0.137 -0.41068,0.34 -0.23491,0.2216 -0.67795,0.4632 -1.10799,0.6044 -0.83843,0.2752 -2.61865,0.3984 -3.49625,0.2419 z m 2.98693,-1.2747 c 1.21632,-0.4291 1.76873,-1.3361 1.84499,-3.0294 l 0.0469,-1.0424 -1.65058,0.071 c -3.42162,0.1481 -4.28745,0.6085 -4.2938,2.2832 -0.004,1.1694 0.38263,1.6504 1.5222,1.8915 0.59907,0.1267 1.93849,0.034 2.53026,-0.1744 z m 34.26087,1.2679 c -0.88981,-0.1288 -1.94659,-0.6632 -2.43116,-1.2293 -0.75943,-0.8873 -1.13489,-2.5231 -1.01494,-4.422 0.16023,-2.5366 1.12533,-3.9126 3.05144,-4.3507 1.85479,-0.4219 3.72019,-0.083 4.87193,0.8868 l 0.3554,0.2991 -0.46315,0.4719 -0.46314,0.4719 -0.48076,-0.367 c -0.26442,-0.2017 -0.66986,-0.431 -0.90099,-0.5094 -0.55989,-0.1898 -1.9551,-0.1916 -2.60307,0 -0.62673,0.1822 -1.3462,0.771 -1.63605,1.3393 -0.48344,0.9476 -0.57418,3.2887 -0.17215,4.4409 0.40818,1.17 1.28884,1.7561 2.77844,1.8494 1.07181,0.067 1.8874,-0.1359 2.58927,-0.6443 l 0.47647,-0.3452 0.43592,0.4254 0.43591,0.4253 -0.31027,0.2593 c -0.49237,0.4116 -1.60678,0.9009 -2.31644,1.0171 -0.75264,0.1233 -1.27149,0.1197 -2.20266,-0.015 z m 8.91607,0.013 c -1.02568,-0.1373 -2.63798,-0.6955 -2.80927,-0.9726 -0.047,-0.076 0.20025,-0.5325 0.53892,-0.9952 0.0118,-0.016 0.30758,0.1018 0.65731,0.2619 1.00792,0.4614 1.6845,0.5955 2.99752,0.5944 1.93379,0 2.49207,-0.3868 2.49207,-1.7185 0,-1.0322 -0.41328,-1.2823 -2.99403,-1.812 -2.48425,-0.5097 -3.31147,-1.203 -3.31617,-2.779 -0.005,-1.8351 0.92638,-2.6167 3.26433,-2.7382 1.25365,-0.065 2.55661,0.1325 3.47377,0.5271 l 0.56363,0.2425 -0.29396,0.5135 c -0.16167,0.2825 -0.29937,0.5238 -0.30599,0.5362 -0.007,0.012 -0.35911,-0.1062 -0.7833,-0.2634 -0.56921,-0.211 -1.06139,-0.2999 -1.87883,-0.3396 -1.30633,-0.063 -1.95111,0.078 -2.39881,0.5256 -0.26858,0.2685 -0.31478,0.403 -0.31478,0.9162 0,0.4856 0.0525,0.6582 0.27265,0.8957 0.35345,0.3814 0.57016,0.4591 2.5265,0.9065 1.93707,0.4429 2.45364,0.6529 2.92337,1.1879 0.69152,0.7876 0.73349,2.4542 0.0865,3.432 -0.61245,0.9255 -2.54108,1.3681 -4.70138,1.079 z m -135.125618,-6.761 v -6.6724 l 3.128943,0.065 c 3.332145,0.07 4.227765,0.1834 5.330005,0.6802 1.16942,0.527 1.92854,1.5112 2.35407,3.052 0.28961,1.0486 0.29126,4.6172 0.003,5.6487 -0.43432,1.5521 -1.23036,2.5733 -2.45915,3.1546 -1.17853,0.5575 -1.75883,0.6351 -5.172185,0.6917 l -3.184313,0.053 z m 6.617188,5.1757 c 1.40221,-0.4024 2.2587,-1.118 2.67732,-2.2369 0.32118,-0.8584 0.4923,-2.3708 0.41348,-3.6543 -0.12466,-2.0298 -0.5778,-3.1363 -1.55302,-3.792 -0.94219,-0.6335 -1.94362,-0.8029 -4.749135,-0.8038 h -2.076723 v 5.3853 5.3854 l 2.353628,-0.058 c 1.60663,-0.039 2.53797,-0.1111 2.93445,-0.2249 z m 19.09868,1.3339 c -0.5206,-0.1666 -0.97419,-0.63 -1.11572,-1.1397 -0.0758,-0.2732 -0.12146,-1.7329 -0.12184,-3.8979 l -7e-4,-3.4612 h -0.88607 -0.88607 v -0.6092 -0.6092 h 0.87568 0.87568 l 0.0629,-0.526 c 0.0345,-0.2894 0.0946,-0.9579 0.13345,-1.4856 0.0756,-1.0279 0.11647,-1.084 0.79359,-1.0881 0.24665,0 0.24921,0.015 0.24921,1.5491 v 1.5506 h 1.38448 1.38449 v 0.6092 0.6092 h -1.39421 -1.39421 l 0.0378,3.3505 c 0.0397,3.5241 0.0656,3.7081 0.55893,3.9721 0.13195,0.07 0.67906,0.1534 1.21581,0.1841 l 0.97589,0.055 v 0.5384 0.5385 l -1.19066,-0.011 c -0.65486,-0.01 -1.35617,-0.064 -1.55847,-0.1291 z m 36.92606,-0.1088 c 0.043,-0.1371 1.22467,-3.1297 2.62591,-6.6503 l 2.54772,-6.401 0.71698,0.033 0.71699,0.033 1.77075,4.4304 c 0.97391,2.4367 2.15934,5.4146 2.63428,6.6178 l 0.86352,2.1875 h -0.68881 -0.68881 l -0.60631,-1.523 -0.6063,-1.5229 h -3.42855 -3.42856 l -0.60011,1.5229 -0.60012,1.523 h -0.65339 c -0.62691,0 -0.65021,-0.01 -0.57519,-0.2492 z m 8.65107,-4.4304 c -0.0822,-0.198 -0.73658,-1.8469 -1.45431,-3.6643 -0.71771,-1.8173 -1.34266,-3.2627 -1.38874,-3.2119 -0.0614,0.068 -2.01681,4.9356 -2.85108,7.0977 -0.0419,0.1086 0.58162,0.1385 2.89503,0.1385 h 2.94843 z m 4.909,-0.1809 v -4.8604 l 0.2492,-0.067 c 0.13706,-0.037 0.38627,-0.068 0.55379,-0.069 0.27956,0 0.30459,0.033 0.30459,0.4231 0,0.2336 0.0266,0.4512 0.0592,0.4839 0.0326,0.032 0.20944,-0.081 0.39298,-0.2525 0.18356,-0.1715 0.61792,-0.424 0.96525,-0.561 0.54517,-0.2152 0.84361,-0.2502 2.18216,-0.2552 1.39428,-0.01 1.60815,0.02 2.12121,0.2523 0.69078,0.3125 0.9458,0.5705 1.27921,1.2938 0.24818,0.5384 0.2555,0.6525 0.28981,4.5121 l 0.0352,3.9596 h -0.67206 -0.67206 v -3.5037 c 0,-3.8301 -0.0405,-4.1473 -0.59701,-4.671 -0.46839,-0.4407 -0.93591,-0.5754 -1.99466,-0.5746 -1.58449,0 -2.32527,0.3512 -2.81014,1.3285 l -0.30226,0.6091 -0.0349,3.4059 -0.0349,3.4058 h -0.65733 -0.65735 z m 22.93081,4.6665 c -0.21114,-0.1065 -0.48527,-0.3682 -0.60918,-0.5813 -0.21835,-0.3758 -0.22625,-0.583 -0.25644,-6.7286 l -0.0311,-6.3409 h 0.66801 0.66802 v 6.0794 c 0,6.9588 -0.0671,6.5 0.96914,6.6208 l 0.58148,0.068 v 0.5383 0.5384 l -0.80299,-2e-4 c -0.544,-10e-5 -0.92684,-0.062 -1.1869,-0.1939 z m 15.13923,0.06 c -0.60199,-0.1597 -1.03442,-0.6408 -1.17804,-1.3105 -0.0712,-0.3318 -0.12012,-1.9116 -0.12012,-3.8773 v -3.3174 h -0.88607 -0.88607 v -0.6047 -0.6047 l 0.91376,-0.032 0.91376,-0.033 0.0973,-1.4557 0.0973,-1.4557 0.5396,-0.1066 0.5396,-0.1067 v 1.5901 1.59 h 1.3291 1.3291 v 0.6092 0.6091 h -1.3291 -1.3291 v 3.3632 c 0,3.2205 0.01,3.3755 0.22655,3.6512 0.27734,0.3526 0.82672,0.5158 1.73941,0.5166 h 0.69224 v 0.5538 0.5538 l -1.13527,-0.011 c -0.6244,-0.01 -1.32365,-0.062 -1.55388,-0.1226 z m 4.90433,-4.7947 v -4.9288 h 0.66455 0.66455 v 4.9288 4.9287 h -0.66455 -0.66455 z m -188.03341,3.4418 c -0.369691,-0.1654 -0.699405,-0.6653 -0.699405,-1.0605 0,-0.4156 0.334064,-0.8982 0.738757,-1.0673 0.511877,-0.2138 0.955868,-0.109 1.30728,0.3086 0.797179,0.9474 -0.220821,2.3226 -1.346632,1.8192 z m 26.883074,-0.084 c -1.004125,-0.6804 -0.52624,-2.1549 0.68805,-2.123 0.366678,0.01 0.521883,0.082 0.769891,0.3597 0.911018,1.0195 -0.333693,2.525 -1.457941,1.7633 z m -31.003741,-2.8103 c -0.884197,-0.7441 -0.262329,-2.1646 0.880488,-2.0112 0.535712,0.072 0.752756,0.2364 0.957383,0.7259 0.460294,1.1012 -0.914252,2.0624 -1.837871,1.2853 z m 34.646688,-0.04 c -0.53466,-0.5347 -0.378526,-1.5688 0.282322,-1.8699 0.524037,-0.2387 0.934974,-0.164 1.343275,0.2443 0.423841,0.4238 0.488754,0.8573 0.209295,1.3978 -0.213376,0.4126 -0.478474,0.5516 -1.0523,0.5516 -0.359456,0 -0.528959,-0.07 -0.782592,-0.3238 z m -38.007648,-3.3233 c -0.310548,-0.2775 -0.36172,-0.3963 -0.36172,-0.8398 0,-0.4475 0.05027,-0.5615 0.375833,-0.8524 0.327764,-0.2929 0.437551,-0.3289 0.858326,-0.2814 0.569783,0.064 0.794235,0.2271 1.003634,0.728 0.474091,1.1341 -0.945722,2.0769 -1.876073,1.2456 z m 41.572637,0.1686 c -0.753644,-0.4177 -0.728651,-1.6888 0.04009,-2.0391 1.33343,-0.6075 2.374786,1.0751 1.236167,1.9974 -0.28008,0.2269 -0.905334,0.2473 -1.27626,0.041 z m 153.9424,-4.5527 v -0.9414 h 0.66455 0.66455 v 0.9414 0.9415 h -0.66455 -0.66455 z m -198.266589,0.507 c -0.254481,-0.2545 -0.323756,-0.4228 -0.323756,-0.7864 0,-0.3818 0.06828,-0.531 0.390755,-0.8534 0.355805,-0.3558 0.43255,-0.3851 0.858378,-0.328 0.33932,0.046 0.554668,0.16 0.784832,0.4176 0.277751,0.3109 0.3101,0.418 0.260105,0.8616 -0.07663,0.6799 -0.452912,1.0124 -1.145796,1.0124 -0.405791,0 -0.562155,-0.062 -0.824518,-0.3238 z m 46.821862,0.034 c -0.379961,-0.38 -0.476995,-0.9125 -0.247238,-1.3568 0.189578,-0.3666 0.678069,-0.6799 1.060134,-0.6799 0.690062,0 1.285388,0.7447 1.147296,1.4351 -0.166596,0.8331 -1.36191,1.1998 -1.960192,0.6016 z m -48.748518,-4.282 c -0.322429,-0.3225 -0.390755,-0.4717 -0.390755,-0.8534 0,-0.6689 0.456462,-1.1101 1.148274,-1.1101 0.692884,0 1.069165,0.3324 1.145796,1.0123 0.05,0.4436 0.01766,0.5507 -0.260105,0.8615 -0.230164,0.2576 -0.445513,0.3722 -0.784832,0.4177 -0.425828,0.057 -0.502573,0.028 -0.858378,-0.328 z m 51.029667,0.2484 c -0.136678,-0.054 -0.350888,-0.2635 -0.47602,-0.4636 -0.689746,-1.1029 0.753477,-2.3155 1.753959,-1.4736 1.027385,0.8645 -0.01518,2.445 -1.277939,1.9372 z m -51.931229,-4.5307 c -0.678121,-0.2889 -0.919015,-1.2408 -0.457781,-1.8088 0.698148,-0.8599 2.076174,-0.3905 2.076174,0.7071 0,0.7953 -0.899875,1.4079 -1.618393,1.1017 z m 53.094888,-0.07 c -0.68511,-0.3717 -0.800534,-1.2955 -0.232806,-1.8632 0.396522,-0.3965 1.103691,-0.4032 1.56543,-0.015 1.064203,0.8955 -0.105468,2.5437 -1.332624,1.8779 z m 28.380521,-1.4535 c -0.21321,-0.023 -0.91922,-0.1398 -1.56891,-0.2608 -5.79618,-1.0789 -9.125133,-4.5913 -10.128738,-10.68684 -0.247706,-1.5044 -0.285135,-5.5698 -0.06507,-7.0671 0.495254,-3.36953 1.643631,-5.9197 3.503165,-7.77922 1.824695,-1.82473 4.103773,-2.8799 7.428863,-3.43951 0.79309,-0.1334 1.78376,-0.18736 3.488903,-0.18982 2.673915,0 4.394075,0.22198 6.210135,0.81543 5.83985,1.90839 8.64458,6.85863 8.37635,14.78382 -0.12646,3.73634 -0.82502,6.31784 -2.33748,8.63814 -1.89554,2.9081 -4.97532,4.5999 -9.36637,5.1455 -0.8654,0.1076 -4.641708,0.135 -5.540848,0.04 z m 4.654778,-3.5831 c 6.08832,-0.7466 8.98297,-4.6655 8.70938,-11.79154 -0.14037,-3.6561 -0.90916,-5.76893 -2.78578,-7.65579 -0.85785,-0.86253 -1.15815,-1.08451 -2.05348,-1.51749 -1.74728,-0.84523 -3.40583,-1.17829 -5.866685,-1.17829 -6.853233,0 -10.264128,3.23114 -10.693622,10.12997 -0.26661,4.2826 1.025023,8.12034 3.356759,9.97374 1.26013,1.0015 3.25123,1.7796 5.19199,2.0287 1.08768,0.1398 3.047773,0.1448 4.141438,0.011 z m 20.7851,3.5461 c -3.17906,-0.3637 -4.93309,-1.5974 -5.66547,-3.9848 -0.28595,-0.9321 -0.34745,-3.1429 -0.12318,-4.4277 0.72975,-4.18054 3.8012,-5.62824 12.38573,-5.83824 l 2.85204,-0.069 -0.004,-0.287 c -0.008,-0.6024 -0.31232,-1.9812 -0.53224,-2.4123 -0.44114,-0.8647 -1.3254,-1.3902 -2.77404,-1.6486 -2.41271,-0.4303 -5.27566,0.026 -7.63862,1.2175 -0.4479,0.2259 -0.83702,0.388 -0.86473,0.3603 -0.26618,-0.2662 -1.89907,-2.7887 -1.85321,-2.8629 0.10572,-0.1711 1.94935,-1.04789 2.86239,-1.36135 1.86915,-0.6417 3.06773,-0.84874 5.28841,-0.9136 5.03813,-0.14702 7.507,0.87994 8.45616,3.51735 0.50198,1.3948 0.52246,1.6725 0.59237,8.02544 0.0599,5.4487 0.0869,6.128 0.25563,6.436 0.20892,0.3815 0.54633,0.5461 1.33434,0.6512 l 0.5261,0.07 v 1.5864 1.5863 l -0.69224,0.069 c -0.99348,0.099 -2.40103,-0.076 -3.02018,-0.3763 -0.53287,-0.2579 -1.02068,-0.869 -1.29146,-1.6178 l -0.12737,-0.3523 -0.51343,0.5271 c -1.37586,1.4126 -3.40841,2.0445 -6.92643,2.1535 -0.91376,0.028 -2.05077,0.01 -2.5267,-0.047 z m 4.95369,-3.3736 c 2.23155,-0.4783 3.65795,-1.8266 4.22044,-3.9894 0.0951,-0.3655 0.20376,-1.3564 0.24156,-2.2021 l 0.0687,-1.53754 -3.0912,0.06 c -6.66371,0.1294 -8.56286,0.98994 -8.76728,3.97254 -0.15699,2.2904 0.87826,3.5251 3.2394,3.8637 0.89114,0.1277 3.1413,0.036 4.08836,-0.1673 z m 49.53957,3.3736 c -3.41188,-0.3903 -5.20697,-1.7997 -5.79387,-4.549 -0.21235,-0.9948 -0.14651,-3.5804 0.11521,-4.5257 0.56075,-2.02534 1.85233,-3.33774 4.05016,-4.11554 1.8656,-0.6602 4.2116,-0.9623 8.23614,-1.0608 l 2.86257,-0.07 -0.0707,-0.6191 c -0.13731,-1.2028 -0.30181,-1.7856 -0.65027,-2.3038 -0.66657,-0.9913 -1.79448,-1.437 -3.92039,-1.5495 -2.16956,-0.1147 -4.32279,0.3373 -6.27571,1.3176 -0.47976,0.2408 -0.91082,0.3968 -0.95789,0.3465 -0.31941,-0.3407 -1.86308,-2.7429 -1.81383,-2.8226 0.0968,-0.1566 1.75661,-0.9626 2.69494,-1.30847 1.7361,-0.6402 3.30475,-0.91711 5.51885,-0.97441 4.99623,-0.12935 7.45019,0.90077 8.39415,3.52368 0.50196,1.3948 0.52246,1.6724 0.59236,8.02544 0.0599,5.4487 0.0869,6.128 0.25564,6.436 0.20891,0.3815 0.54632,0.5461 1.33433,0.6512 l 0.5261,0.07 v 1.5864 1.5863 l -0.69224,0.068 c -0.77448,0.077 -2.29612,-0.062 -2.78343,-0.2548 -0.63598,-0.2512 -0.98069,-0.5997 -1.34498,-1.3599 l -0.3662,-0.7641 -0.2998,0.393 c -0.40669,0.5333 -1.60106,1.3036 -2.54335,1.6405 -0.42642,0.1525 -1.24881,0.3562 -1.82752,0.4526 -1.30043,0.2168 -4.0811,0.3121 -5.2403,0.1795 z m 4.9537,-3.3736 c 1.07674,-0.2309 2.07241,-0.7284 2.76135,-1.38 1.1302,-1.0689 1.59102,-2.3728 1.70041,-4.8115 l 0.069,-1.53754 -3.09119,0.06 c -5.65989,0.1099 -7.62816,0.70664 -8.48355,2.57204 -0.21627,0.4716 -0.25372,0.7345 -0.25231,1.7721 0.002,1.0496 0.0374,1.291 0.25959,1.7432 0.66302,1.3488 2.17349,1.8975 4.94203,1.7949 0.73102,-0.027 1.67364,-0.1231 2.09472,-0.2133 z m 42.60241,3.3702 c -2.14542,-0.2683 -3.62839,-0.9356 -4.88634,-2.1989 -1.21957,-1.2246 -1.87028,-2.528 -2.339,-4.685 -0.22135,-1.0187 -0.24824,-1.4589 -0.25231,-4.13074 -0.005,-3.1975 0.0708,-3.9267 0.57494,-5.538 0.92962,-2.9712 2.68534,-4.64808 5.65519,-5.40111 0.85054,-0.21566 1.24629,-0.24413 3.34595,-0.24062 2.52285,0 3.69585,0.15054 4.93795,0.61525 0.77929,0.29149 1.81589,0.99438 2.09522,1.42058 0.12184,0.1858 0.2589,0.3381 0.30459,0.3382 0.0457,3e-4 0.083,-2.36708 0.083,-5.26068 v -5.26107 h 1.88289 1.8829 v 14.94305 14.94304 l -0.85838,0.081 c -0.47211,0.045 -1.13012,0.086 -1.46225,0.093 l -0.60387,0.011 -0.13881,-0.8308 c -0.0764,-0.4568 -0.16868,-0.9949 -0.20515,-1.1958 l -0.0663,-0.3653 -0.48024,0.5314 c -0.89896,0.9947 -2.3417,1.6571 -4.27652,1.9634 -1.33497,0.2113 -4.12521,0.3016 -5.19351,0.1681 z m 5.29407,-3.6464 c 1.11447,-0.3166 1.61586,-0.5926 2.35203,-1.2948 0.68712,-0.6553 1.18966,-1.553 1.47796,-2.6399 0.31243,-1.1779 0.45195,-3.42384 0.31125,-5.01054 -0.20556,-2.3181 -0.61819,-3.4901 -1.59096,-4.5186 -1.08044,-1.1425 -2.65551,-1.6407 -5.19213,-1.6423 -3.58155,0 -5.27105,1.1568 -6.11246,4.1936 -0.22111,0.798 -0.24528,1.1393 -0.24325,3.4335 0.002,2.27204 0.0285,2.64334 0.24453,3.43354 0.71437,2.6128 2.11075,3.9152 4.61594,4.3054 0.8146,0.1269 3.33213,-0.032 4.13709,-0.2599 z m -64.59144,3.3158 c -0.95903,-0.1079 -1.94037,-0.4986 -2.43922,-0.9712 -0.40447,-0.3832 -0.80014,-1.1622 -1.03639,-2.0406 -0.16912,-0.6288 -0.19044,-1.9365 -0.22577,-13.84704 l -0.039,-13.15265 h 1.83256 1.83255 l 0.005,12.04505 c 0.003,6.6247 0.0475,12.41264 0.0995,12.86184 0.15607,1.3479 0.61977,1.7297 2.25263,1.8552 l 0.96581,0.074 v 1.5897 1.5896 h -0.63686 c -0.35028,0 -0.88607,0.021 -1.19066,0.047 -0.30458,0.025 -0.94357,0 -1.41997,-0.052 z m -24.33143,-15.00364 v -15.00785 h 1.8823 1.88229 l 0.0283,9.75795 0.0283,9.75793 4.70725,-5.48693 4.70724,-5.48691 2.09028,-0.009 c 1.96809,-0.009 2.08141,0.009 1.93828,0.18516 -0.0836,0.10563 -1.72201,2.03815 -3.6409,4.29465 -1.9189,2.2565 -3.55624,4.1874 -3.63852,4.2909 -0.13231,0.1665 0.32358,0.8965 3.94057,6.31054 2.2496,3.3673 4.12661,6.1846 4.17115,6.2607 0.0636,0.1088 -0.36585,0.138 -2.00229,0.1362 h -2.08326 l -3.32275,-4.8681 c -1.82752,-2.6774 -3.3552,-4.8569 -3.39484,-4.8434 -0.0396,0.013 -0.84957,0.9065 -1.79983,1.9843 l -1.72776,1.9597 v 2.886 2.8861 h -1.88289 -1.8829 z m 54.49327,4.3838 v -10.62403 l 0.69225,-0.0598 c 0.38073,-0.0325 1.04823,-0.087 1.48332,-0.11926 0.90201,-0.0677 0.84257,-0.1341 0.98667,1.10299 0.0426,0.3655 0.0973,0.699 0.12146,0.7411 0.0243,0.042 0.26334,-0.1365 0.53136,-0.3971 1.45321,-1.41236 3.96887,-2.02857 7.84133,-1.92074 2.25414,0.0624 2.87191,0.18305 4.15408,0.80901 1.73567,0.84743 2.63726,2.33583 3.0142,4.97663 0.065,0.4554 0.11159,3.9398 0.11288,8.44524 l 0.002,7.67 h -1.82752 -1.82752 l -0.004,-6.8392 c -0.002,-3.76174 -0.0493,-7.19244 -0.1054,-7.62394 -0.37373,-2.875 -1.96125,-3.9287 -5.70024,-3.7832 -3.2043,0.1247 -4.77591,1.2093 -5.45234,3.7626 -0.15947,0.6019 -0.18984,1.6119 -0.2282,7.58914 l -0.0443,6.8946 h -1.87542 -1.87542 V 999.80626 Z M 13.773292,1007.465 c -0.68631,-0.556 -0.595399,-1.5621 0.177235,-1.9617 0.434651,-0.2248 0.762318,-0.2111 1.190026,0.05 0.632344,0.3855 0.675079,1.3414 0.08313,1.859 -0.352633,0.3083 -1.101338,0.3356 -1.45036,0.053 z m 54.09265,0.076 c -0.269011,-0.1567 -0.526102,-0.69 -0.526102,-1.0915 0,-0.2147 0.116611,-0.4664 0.323191,-0.6976 0.277474,-0.3106 0.396265,-0.3618 0.839775,-0.3618 0.443511,0 0.562303,0.051 0.839776,0.3618 0.702247,0.7859 0.227073,1.9127 -0.803566,1.9054 -0.263584,0 -0.566468,-0.055 -0.673074,-0.1163 z m -53.598786,-4.7218 c -0.970284,-0.602 -0.535659,-2.1272 0.608037,-2.1339 0.536854,0 0.805624,0.1422 1.016095,0.5491 0.579247,1.1202 -0.568228,2.2398 -1.624132,1.5848 z m 53.046743,-0.1336 c -0.310547,-0.2774 -0.361714,-0.3963 -0.361714,-0.8398 0,-0.4435 0.05116,-0.5622 0.361714,-0.8398 0.649176,-0.58 1.535791,-0.3806 1.870614,0.4208 0.473514,1.1333 -0.943726,2.087 -1.870614,1.2588 z m -51.828394,-4.40754 c -0.972964,-0.6036 -0.562708,-2.1364 0.571822,-2.1364 0.573825,0 0.83893,0.139 1.052301,0.5517 0.279456,0.5403 0.214549,0.9739 -0.209293,1.3977 -0.429747,0.4297 -0.919208,0.4945 -1.41483,0.187 z m 50.857507,0.055 c -0.381346,-0.1978 -0.70203,-0.8821 -0.609931,-1.3014 0.104578,-0.4762 0.642393,-0.8895 1.157286,-0.8895 0.822952,0 1.39194,0.8255 1.081258,1.5688 -0.08494,0.2032 -0.234964,0.4362 -0.333387,0.5179 -0.258186,0.2141 -0.972647,0.2716 -1.295226,0.1042 z m -48.588403,-4.2041 c -0.820168,-0.2183 -1.079728,-1.2257 -0.486781,-1.8893 0.277479,-0.3106 0.396266,-0.3617 0.839775,-0.3617 0.443517,0 0.562304,0.051 0.839774,0.3617 0.811055,0.9077 -0.0079,2.2046 -1.192768,1.8893 z m 46.927023,0.058 c -0.452393,-0.149 -0.670507,-0.3258 -0.838437,-0.6796 -0.153689,-0.3239 -0.162621,-0.4586 -0.05435,-0.82 0.140208,-0.4679 0.640162,-0.8637 1.092123,-0.8644 0.685773,0 1.330107,0.7794 1.185789,1.4365 -0.07607,0.3464 -0.553387,0.889 -0.78199,0.889 -0.07809,0 -0.208354,0.021 -0.289482,0.047 -0.08113,0.025 -0.22227,0.022 -0.313646,-0.01 z m -44.379377,-3.9663 c -0.377046,-0.164 -0.699668,-0.66186 -0.698991,-1.0785 6.94e-4,-0.45196 0.396449,-0.95191 0.864424,-1.09216 1.36661,-0.40943 2.134481,1.55054 0.846831,2.16146 -0.43502,0.2065 -0.555933,0.2076 -1.012264,0.01 z m 41.312892,-0.048 c -0.433284,-0.2712 -0.588551,-0.54589 -0.588551,-1.04117 0,-0.79048 0.845175,-1.34403 1.582027,-1.03619 0.788427,0.32937 1.00113,1.22355 0.439319,1.84676 -0.399589,0.4432 -0.951242,0.532 -1.432795,0.2306 z m -38.024986,-3.30644 c -0.282049,-0.14087 -0.430257,-0.31689 -0.544034,-0.64591 -0.142048,-0.41092 -0.136978,-0.49203 0.05536,-0.88609 0.162093,-0.332 0.317833,-0.47041 0.66405,-0.59019 0.41088,-0.14202 0.492019,-0.13692 0.886069,0.0554 0.330655,0.16144 0.47055,0.31812 0.588475,0.65918 0.137724,0.39836 0.133752,0.4916 -0.03621,0.84988 -0.115034,0.24246 -0.337316,0.47183 -0.559097,0.57711 -0.465162,0.22066 -0.578228,0.21864 -1.054595,-0.0193 z m 34.820126,0.0352 c -0.739504,-0.32191 -0.943976,-1.20298 -0.422879,-1.82227 0.699237,-0.83098 2.042359,-0.32919 2.042359,0.76306 0,0.49441 -0.25452,0.86482 -0.730848,1.06386 -0.443776,0.18543 -0.451867,0.18543 -0.888632,-0.009 z M 27.16457,983.90078 c -0.355814,-0.35574 -0.385139,-0.43254 -0.328035,-0.85832 0.04552,-0.33939 0.160107,-0.55469 0.41769,-0.78485 0.310837,-0.27778 0.41798,-0.31012 0.861562,-0.26012 0.679865,0.0765 1.012306,0.45293 1.012306,1.14577 0,0.69187 -0.4413,1.14832 -1.110141,1.14832 -0.381742,0 -0.530953,-0.0686 -0.853382,-0.3908 z m 27.228696,0.23622 c -0.345746,-0.19167 -0.557178,-0.58554 -0.56206,-1.04717 -0.0029,-0.27735 0.09116,-0.46611 0.372654,-0.74759 0.423842,-0.42384 0.857362,-0.48878 1.397777,-0.20933 0.412622,0.21337 0.551576,0.4785 0.551576,1.05227 0,0.88345 -0.953239,1.39895 -1.759947,0.95182 z m -22.947758,-2.16289 c -0.253635,-0.25362 -0.323759,-0.42313 -0.323759,-0.78256 0,-0.25239 0.05132,-0.55469 0.114044,-0.67193 0.153376,-0.28657 0.682453,-0.54766 1.109878,-0.54766 0.486536,0 1.102011,0.61832 1.102011,1.1071 0,1.07275 -1.260887,1.6364 -2.002174,0.89505 z m 18.564822,0.0747 c -0.348637,-0.30485 -0.496657,-0.7997 -0.375375,-1.25509 0.127359,-0.47806 0.447724,-0.72799 1.015342,-0.79197 0.426059,-0.0483 0.534099,-0.0132 0.862874,0.28086 0.325552,0.29088 0.375833,0.40495 0.375833,0.85243 0,0.44353 -0.05116,0.56225 -0.361714,0.83978 -0.461696,0.4125 -1.094463,0.44335 -1.51696,0.0738 z M 35.986612,980.7553 c -0.259335,-0.25924 -0.323266,-0.41909 -0.321293,-0.80295 0.0057,-1.10824 1.16953,-1.59993 1.94689,-0.82264 0.799241,0.79926 0.268147,1.94943 -0.900165,1.94943 -0.29628,0 -0.486627,-0.0852 -0.725432,-0.32384 z m 9.501343,0.10054 c -0.41561,-0.32691 -0.571533,-0.88213 -0.377843,-1.34552 0.209393,-0.50091 0.433849,-0.66375 1.003633,-0.72799 0.420775,-0.0475 0.530556,-0.0114 0.85832,0.28139 0.325551,0.29088 0.375833,0.40494 0.375833,0.85242 0,0.44353 -0.05116,0.56234 -0.361714,0.83978 -0.444209,0.39695 -1.067822,0.43852 -1.498229,0.0999 z m -4.480044,-0.27375 c -0.821271,-0.35696 -0.900768,-1.51354 -0.139397,-2.02807 0.509083,-0.34396 1.044649,-0.27208 1.467553,0.19711 0.557459,0.61832 0.349374,1.51715 -0.426263,1.84125 -0.445186,0.18604 -0.450433,0.18595 -0.901893,-0.0106 z"
       id="path968"
       inkscape:connector-curvature="0" />
  </g>
</svg>
