<?xml version="1.0" encoding="UTF-8" standalone="no"?>
<!-- Created with Inkscape (http://www.inkscape.org/) -->

<svg
   xmlns:dc="http://purl.org/dc/elements/1.1/"
   xmlns:cc="http://creativecommons.org/ns#"
   xmlns:rdf="http://www.w3.org/1999/02/22-rdf-syntax-ns#"
   xmlns:svg="http://www.w3.org/2000/svg"
   xmlns="http://www.w3.org/2000/svg"
   xmlns:sodipodi="http://sodipodi.sourceforge.net/DTD/sodipodi-0.dtd"
   xmlns:inkscape="http://www.inkscape.org/namespaces/inkscape"
   width="250"
   height="91"
   viewBox="0 0 250 91"
   id="svg2"
   version="1.1"
   inkscape:version="0.92.2 (5c3e80d, 2017-08-06)"
   sodipodi:docname="oakland.svg">
  <defs
     id="defs4" />
  <sodipodi:namedview
     id="base"
     pagecolor="#ffffff"
     bordercolor="#666666"
     borderopacity="1.0"
     inkscape:pageopacity="0.0"
     inkscape:pageshadow="2"
     inkscape:zoom="1.9799"
     inkscape:cx="91.336165"
     inkscape:cy="27.908"
     inkscape:document-units="px"
     inkscape:current-layer="layer1"
     showgrid="false"
     inkscape:window-width="1920"
     inkscape:window-height="1001"
     inkscape:window-x="-9"
     inkscape:window-y="-9"
     inkscape:window-maximized="1"
     units="px" />
  <metadata
     id="metadata7">
    <rdf:RDF>
      <cc:Work
         rdf:about="">
        <dc:format>image/svg+xml</dc:format>
        <dc:type
           rdf:resource="http://purl.org/dc/dcmitype/StillImage" />
        <dc:title />
      </cc:Work>
    </rdf:RDF>
  </metadata>
  <g
     inkscape:label="Layer 1"
     inkscape:groupmode="layer"
     id="layer1"
     transform="translate(0,-961.4)">
    <rect
       style="opacity:0.001;fill:#c87137;fill-opacity:1;stroke:none;stroke-width:2.5;stroke-linecap:round;stroke-linejoin:round;stroke-miterlimit:4;stroke-dasharray:none;stroke-dashoffset:0;stroke-opacity:1"
       id="rect4175"
       width="250"
       height="91"
       x="0"
       y="961.4" />
    <path
       style="fill:#ffffff;stroke-width:0.11075869"
       d="m 199.03193,1034.9083 v -0.5537 h 0.78639 c 0.74093,0 0.80678,-0.021 1.13942,-0.3601 0.19418,-0.1979 0.44641,-0.6397 0.56053,-0.9817 l 0.20748,-0.6218 -1.9007,-4.8286 c -1.04539,-2.6558 -1.90071,-4.858 -1.90071,-4.8937 0,-0.036 0.30475,-0.05 0.67723,-0.033 l 0.67721,0.033 1.55908,4.0714 c 0.8575,2.2393 1.5933,4.0336 1.6351,3.9873 0.0418,-0.046 0.602,-1.4797 1.24483,-3.1853 0.64284,-1.7057 1.32618,-3.5125 1.51854,-4.015 l 0.34976,-0.9138 h 0.65485 c 0.36017,0 0.65486,0.019 0.65486,0.042 0,0.1087 -4.34013,11.0829 -4.53146,11.4578 -0.28372,0.5562 -0.89299,1.0847 -1.4188,1.2307 -0.23011,0.064 -0.7548,0.1164 -1.16599,0.1168 h -0.74762 z m -158.300433,-0.4811 c -0.551382,-0.511 -0.53432,-1.3007 0.03852,-1.7827 0.776098,-0.6531 1.862847,-0.1205 1.86817,0.9156 0.0019,0.3838 -0.06195,0.5436 -0.321293,0.8029 -0.427334,0.4274 -1.161462,0.4571 -1.585395,0.064 z m -4.361105,-0.177 c -0.70423,-0.2972 -0.928176,-1.2779 -0.42765,-1.8727 0.78677,-0.935 2.284978,-0.1406 1.982839,1.0513 -0.163415,0.6447 -0.967491,1.0694 -1.555189,0.8214 z m 9.307367,-0.048 c -0.425406,-0.1907 -0.754996,-0.8354 -0.656431,-1.2841 0.03853,-0.1755 0.195142,-0.4442 0.348012,-0.597 0.878435,-0.8784 2.28725,-0.024 1.929425,1.1706 -0.203527,0.6793 -0.955215,1.0088 -1.621006,0.7105 z m -13.959807,-1.2409 c -0.91081,-0.4493 -0.714722,-1.9853 0.281383,-2.2041 0.671257,-0.1474 1.448343,0.4755 1.448343,1.1611 0,0.4083 -0.334122,0.8982 -0.723732,1.0609 -0.469323,0.1962 -0.575973,0.1942 -1.005994,-0.018 z m 18.497248,2e-4 c -0.875361,-0.4319 -0.849036,-1.6792 0.04439,-2.1032 0.323877,-0.1537 0.458602,-0.1626 0.819953,-0.055 0.467971,0.1402 0.863689,0.6402 0.864424,1.0921 6.57e-4,0.4284 -0.325536,0.9169 -0.723317,1.0831 -0.469231,0.1961 -0.576003,0.1942 -1.005448,-0.018 z m 60.89684,-0.3845 c -1.55495,-0.2773 -2.34844,-1.2345 -2.34844,-2.8331 0,-1.4298 0.47485,-2.3761 1.43696,-2.8637 0.97858,-0.4958 1.70186,-0.6271 3.81031,-0.6915 l 1.97988,-0.061 -0.0605,-0.5864 c -0.0861,-0.8345 -0.33986,-1.2954 -0.88509,-1.6077 -0.41975,-0.2405 -0.59487,-0.2672 -1.74043,-0.2657 -1.14931,0 -1.34404,0.033 -1.99366,0.313 -1.08172,0.4677 -1.03626,0.4685 -1.36465,-0.027 -0.1632,-0.2466 -0.29673,-0.4774 -0.29673,-0.513 0,-0.036 0.31151,-0.2051 0.69224,-0.3767 1.80951,-0.8152 4.24007,-0.8986 5.62071,-0.1929 0.39712,0.203 0.56554,0.3864 0.83069,0.9045 l 0.33257,0.6498 0.0554,3.2312 c 0.0607,3.5409 0.0597,3.5359 0.73107,3.6619 0.36721,0.069 0.37651,0.084 0.37651,0.6121 v 0.5415 h -0.61467 c -0.76383,0 -1.19396,-0.2138 -1.38249,-0.6871 -0.08,-0.2008 -0.15446,-0.3786 -0.16545,-0.395 -0.011,-0.017 -0.21315,0.1471 -0.44925,0.3634 -0.26787,0.2453 -0.68812,0.4731 -1.11776,0.6058 -0.81459,0.2516 -2.61867,0.3656 -3.44718,0.2179 z m 2.98694,-1.2746 c 1.21175,-0.4275 1.75169,-1.3132 1.84096,-3.0198 l 0.055,-1.0522 -1.65261,0.071 c -3.42594,0.1483 -4.28946,0.6071 -4.29584,2.2824 -0.004,1.1704 0.38235,1.6513 1.5222,1.8924 0.59907,0.1267 1.9385,0.034 2.53026,-0.1744 z m 14.49042,1.2806 c -1.71617,-0.2914 -2.39291,-1.1525 -2.36882,-3.0138 0.02,-1.5445 0.53871,-2.3659 1.83428,-2.9048 0.71538,-0.2975 2.28603,-0.5055 3.81644,-0.5055 h 1.48073 v -0.5303 c 0,-0.7563 -0.38084,-1.4614 -0.93566,-1.7321 -0.95353,-0.4654 -3.1527,-0.3013 -4.23579,0.3161 l -0.46421,0.2647 -0.33304,-0.512 -0.33305,-0.512 0.29883,-0.1993 c 0.16437,-0.1096 0.69758,-0.3319 1.18491,-0.4938 0.76846,-0.2555 1.0772,-0.2957 2.32594,-0.3032 2.05789,-0.012 2.86687,0.2935 3.34782,1.2653 0.36564,0.7388 0.46872,1.7597 0.47116,4.6658 0.003,2.8487 -0.008,2.8028 0.64961,2.9342 0.3347,0.067 0.34941,0.093 0.34941,0.6098 v 0.5401 h -0.64962 c -0.73805,0 -1.11186,-0.2149 -1.34239,-0.7714 l -0.13908,-0.3358 -0.39638,0.348 c -0.55087,0.4837 -1.14888,0.7222 -2.1601,0.8614 -0.96374,0.1327 -1.65562,0.1351 -2.40099,0.01 z m 2.20087,-1.1131 c 1.7846,-0.2896 2.56176,-1.3073 2.56176,-3.3548 v -0.8833 l -1.66444,0.072 c -3.43277,0.1486 -4.29138,0.6621 -4.18729,2.5043 0.0379,0.6703 0.0864,0.8181 0.36316,1.107 0.56339,0.5881 1.55863,0.7767 2.92681,0.5547 z m 13.85915,1.1605 c -2.38478,-0.4121 -3.05007,-0.9806 -3.34151,-2.8553 -0.14636,-0.9414 -0.0238,-1.8098 0.36115,-2.5596 0.29058,-0.566 1.10783,-1.4103 1.7897,-1.8489 0.28936,-0.1861 0.52611,-0.3823 0.52611,-0.436 0,-0.054 -0.12903,-0.5344 -0.28673,-1.0683 -0.3985,-1.3492 -0.42195,-2.7465 -0.0586,-3.4936 0.45336,-0.9323 1.26112,-1.3377 2.64808,-1.3288 1.60167,0.01 2.34283,0.7284 2.43741,2.3621 0.0558,0.9644 -0.0783,1.5037 -0.52785,2.1233 -0.33995,0.4685 -1.13944,1.1262 -1.91403,1.5748 -0.28936,0.1675 -0.52611,0.3482 -0.52611,0.4017 0,0.054 0.23675,0.485 0.52611,0.9586 0.50774,0.8314 2.82339,3.3546 3.07793,3.3539 0.29952,0 1.44144,-2.6962 1.81867,-4.2926 0.0756,-0.3201 0.17068,-0.6024 0.21126,-0.6275 0.0406,-0.025 0.30859,0.01 0.5956,0.074 0.60993,0.1395 0.61453,-0.041 -0.0531,2.0768 -0.24011,0.7615 -0.68366,1.857 -0.98566,2.4345 -0.51321,0.9815 -0.53619,1.0595 -0.35179,1.1943 0.34671,0.2535 1.58844,0.5801 2.20576,0.5801 h 0.59751 v 0.6256 0.6256 l -0.91376,-0.066 c -0.94217,-0.069 -1.94439,-0.3551 -2.60668,-0.7459 l -0.37874,-0.2235 -0.5101,0.3379 c -0.73587,0.4874 -1.75869,0.7686 -2.99639,0.8236 -0.58705,0.026 -1.19197,0.026 -1.34426,0 z m 2.91035,-1.3769 c 0.33755,-0.1263 0.66617,-0.2928 0.73026,-0.37 0.0877,-0.1057 -0.18017,-0.4404 -1.08229,-1.3527 -1.04865,-1.0603 -2.55832,-3.0573 -2.55832,-3.3841 0,-0.4562 -1.41566,0.7779 -1.81764,1.5845 -0.56006,1.1239 -0.31785,2.7269 0.5,3.3092 0.81078,0.5773 2.9644,0.6858 4.22799,0.2131 z m -1.46224,-7.32 c 1.18844,-0.7982 1.64379,-1.5856 1.49412,-2.5837 -0.1185,-0.7902 -0.44392,-1.09 -1.24639,-1.148 -1.31421,-0.095 -1.76129,0.4327 -1.66372,1.9639 0.0672,1.0546 0.46073,2.3798 0.67035,2.2573 0.0706,-0.041 0.40605,-0.2614 0.74564,-0.4895 z m 39.22283,8.6436 c -1.55496,-0.2774 -2.34844,-1.2346 -2.34844,-2.8332 0,-1.4298 0.47485,-2.3761 1.43695,-2.8637 0.97859,-0.4958 1.70187,-0.6271 3.81032,-0.6915 l 1.97987,-0.061 -0.0605,-0.5864 c -0.0877,-0.8498 -0.3597,-1.3445 -0.89632,-1.6304 -0.39307,-0.2094 -0.63002,-0.2426 -1.72921,-0.2419 -1.15055,0 -1.34335,0.031 -1.99366,0.3119 -1.08171,0.4677 -1.03625,0.4685 -1.36465,-0.027 -0.1632,-0.2466 -0.29673,-0.4774 -0.29673,-0.513 0,-0.036 0.31151,-0.2051 0.69224,-0.3767 1.81733,-0.8187 4.24885,-0.8988 5.61993,-0.185 0.39355,0.2048 0.56997,0.3964 0.83177,0.9032 l 0.33227,0.6432 0.0601,3.2203 c 0.033,1.7712 0.0992,3.3038 0.14713,3.4059 0.0485,0.1034 0.27954,0.2181 0.52141,0.2589 l 0.43436,0.073 v 0.5441 0.5441 h -0.61467 c -0.76383,0 -1.19397,-0.2138 -1.38249,-0.6871 -0.08,-0.2008 -0.15415,-0.3783 -0.16472,-0.3943 -0.0106,-0.016 -0.19539,0.137 -0.41068,0.34 -0.23491,0.2216 -0.67795,0.4632 -1.10799,0.6044 -0.83843,0.2752 -2.61865,0.3984 -3.49625,0.2419 z m 2.98693,-1.2747 c 1.21632,-0.4291 1.76873,-1.3361 1.84499,-3.0294 l 0.0469,-1.0424 -1.65058,0.071 c -3.42162,0.1481 -4.28745,0.6085 -4.2938,2.2832 -0.004,1.1694 0.38263,1.6504 1.5222,1.8915 0.59907,0.1267 1.93849,0.034 2.53026,-0.1744 z m 34.26087,1.2679 c -0.88981,-0.1288 -1.94659,-0.6632 -2.43116,-1.2293 -0.75943,-0.8873 -1.13489,-2.5231 -1.01494,-4.422 0.16023,-2.5366 1.12533,-3.9126 3.05144,-4.3507 1.85479,-0.4219 3.72019,-0.083 4.87193,0.8868 l 0.3554,0.2991 -0.46315,0.4719 -0.46314,0.4719 -0.48076,-0.367 c -0.26442,-0.2017 -0.66986,-0.431 -0.90099,-0.5094 -0.55989,-0.1898 -1.9551,-0.1916 -2.60307,0 -0.62673,0.1822 -1.3462,0.771 -1.63605,1.3393 -0.48344,0.9476 -0.57418,3.2887 -0.17215,4.4409 0.40818,1.17 1.28884,1.7561 2.77844,1.8494 1.07181,0.067 1.8874,-0.1359 2.58927,-0.6443 l 0.47647,-0.3452 0.43592,0.4254 0.43591,0.4253 -0.31027,0.2593 c -0.49237,0.4116 -1.60678,0.9009 -2.31644,1.0171 -0.75264,0.1233 -1.27149,0.1197 -2.20266,-0.015 z m 8.91607,0.013 c -1.02568,-0.1373 -2.63798,-0.6955 -2.80927,-0.9726 -0.047,-0.076 0.20025,-0.5325 0.53892,-0.9952 0.0118,-0.016 0.30758,0.1018 0.65731,0.2619 1.00792,0.4614 1.6845,0.5955 2.99752,0.5944 1.93379,0 2.49207,-0.3868 2.49207,-1.7185 0,-1.0322 -0.41328,-1.2823 -2.99403,-1.812 -2.48425,-0.5097 -3.31147,-1.203 -3.31617,-2.779 -0.005,-1.8351 0.92638,-2.6167 3.26433,-2.7382 1.25365,-0.065 2.55661,0.1325 3.47377,0.5271 l 0.56363,0.2425 -0.29396,0.5135 c -0.16167,0.2825 -0.29937,0.5238 -0.30599,0.5362 -0.007,0.012 -0.35911,-0.1062 -0.7833,-0.2634 -0.56921,-0.211 -1.06139,-0.2999 -1.87883,-0.3396 -1.30633,-0.063 -1.95111,0.078 -2.39881,0.5256 -0.26858,0.2685 -0.31478,0.403 -0.31478,0.9162 0,0.4856 0.0525,0.6582 0.27265,0.8957 0.35345,0.3814 0.57016,0.4591 2.5265,0.9065 1.93707,0.4429 2.45364,0.6529 2.92337,1.1879 0.69152,0.7876 0.73349,2.4542 0.0865,3.432 -0.61245,0.9255 -2.54108,1.3681 -4.70138,1.079 z m -135.125621,-6.761 v -6.6724 l 3.12894,0.065 c 3.332151,0.07 4.227771,0.1834 5.330011,0.6802 1.16942,0.527 1.92854,1.5112 2.35407,3.052 0.28961,1.0486 0.29126,4.6172 0.003,5.6487 -0.43432,1.5521 -1.23036,2.5733 -2.45915,3.1546 -1.17853,0.5575 -1.75883,0.6351 -5.17219,0.6917 l -3.184311,0.053 z m 6.617191,5.1757 c 1.40221,-0.4024 2.2587,-1.118 2.67732,-2.2369 0.32118,-0.8584 0.4923,-2.3708 0.41348,-3.6543 -0.12466,-2.0298 -0.5778,-3.1363 -1.55302,-3.792 -0.94219,-0.6335 -1.94362,-0.8029 -4.74914,-0.8038 h -2.076721 v 5.3853 5.3854 l 2.353631,-0.058 c 1.60663,-0.039 2.53797,-0.1111 2.93445,-0.2249 z m 19.09868,1.3339 c -0.5206,-0.1666 -0.97419,-0.63 -1.11572,-1.1397 -0.0758,-0.2732 -0.12146,-1.7329 -0.12184,-3.8979 l -7e-4,-3.4612 h -0.88607 -0.88607 v -0.6092 -0.6092 h 0.87568 0.87568 l 0.0629,-0.526 c 0.0345,-0.2894 0.0946,-0.9579 0.13345,-1.4856 0.0756,-1.0279 0.11647,-1.084 0.79359,-1.0881 0.24665,0 0.24921,0.015 0.24921,1.5491 v 1.5506 h 1.38448 1.38449 v 0.6092 0.6092 h -1.39421 -1.39421 l 0.0378,3.3505 c 0.0397,3.5241 0.0656,3.7081 0.55893,3.9721 0.13195,0.07 0.67906,0.1534 1.21581,0.1841 l 0.97589,0.055 v 0.5384 0.5385 l -1.19066,-0.011 c -0.65486,-0.01 -1.35617,-0.064 -1.55847,-0.1291 z m 36.92606,-0.1088 c 0.043,-0.1371 1.22467,-3.1297 2.62591,-6.6503 l 2.54772,-6.401 0.71698,0.033 0.71699,0.033 1.77075,4.4304 c 0.97391,2.4367 2.15934,5.4146 2.63428,6.6178 l 0.86352,2.1875 h -0.68881 -0.68881 l -0.60631,-1.523 -0.6063,-1.5229 h -3.42855 -3.42856 l -0.60011,1.5229 -0.60012,1.523 h -0.65339 c -0.62691,0 -0.65021,-0.01 -0.57519,-0.2492 z m 8.65107,-4.4304 c -0.0822,-0.198 -0.73658,-1.8469 -1.45431,-3.6643 -0.71771,-1.8173 -1.34266,-3.2627 -1.38874,-3.2119 -0.0614,0.068 -2.01681,4.9356 -2.85108,7.0977 -0.0419,0.1086 0.58162,0.1385 2.89503,0.1385 h 2.94843 z m 4.909,-0.1809 v -4.8604 l 0.2492,-0.067 c 0.13706,-0.037 0.38627,-0.068 0.55379,-0.069 0.27956,0 0.30459,0.033 0.30459,0.4231 0,0.2336 0.0266,0.4512 0.0592,0.4839 0.0326,0.032 0.20944,-0.081 0.39298,-0.2525 0.18356,-0.1715 0.61792,-0.424 0.96525,-0.561 0.54517,-0.2152 0.84361,-0.2502 2.18216,-0.2552 1.39428,-0.01 1.60815,0.02 2.12121,0.2523 0.69078,0.3125 0.9458,0.5705 1.27921,1.2938 0.24818,0.5384 0.2555,0.6525 0.28981,4.5121 l 0.0352,3.9596 h -0.67206 -0.67206 v -3.5037 c 0,-3.8301 -0.0405,-4.1473 -0.59701,-4.671 -0.46839,-0.4407 -0.93591,-0.5754 -1.99466,-0.5746 -1.58449,0 -2.32527,0.3512 -2.81014,1.3285 l -0.30226,0.6091 -0.0349,3.4059 -0.0349,3.4058 h -0.65733 -0.65735 z m 22.93081,4.6665 c -0.21114,-0.1065 -0.48527,-0.3682 -0.60918,-0.5813 -0.21835,-0.3758 -0.22625,-0.583 -0.25644,-6.7286 l -0.0311,-6.3409 h 0.66801 0.66802 v 6.0794 c 0,6.9588 -0.0671,6.5 0.96914,6.6208 l 0.58148,0.068 v 0.5383 0.5384 l -0.80299,-2e-4 c -0.544,-10e-5 -0.92684,-0.062 -1.1869,-0.1939 z m 15.13923,0.06 c -0.60199,-0.1597 -1.03442,-0.6408 -1.17804,-1.3105 -0.0712,-0.3318 -0.12012,-1.9116 -0.12012,-3.8773 v -3.3174 h -0.88607 -0.88607 v -0.6047 -0.6047 l 0.91376,-0.032 0.91376,-0.033 0.0973,-1.4557 0.0973,-1.4557 0.5396,-0.1066 0.5396,-0.1067 v 1.5901 1.59 h 1.3291 1.3291 v 0.6092 0.6091 h -1.3291 -1.3291 v 3.3632 c 0,3.2205 0.01,3.3755 0.22655,3.6512 0.27734,0.3526 0.82672,0.5158 1.73941,0.5166 h 0.69224 v 0.5538 0.5538 l -1.13527,-0.011 c -0.6244,-0.01 -1.32365,-0.062 -1.55388,-0.1226 z m 4.90433,-4.7947 v -4.9288 h 0.66455 0.66455 v 4.9288 4.9287 h -0.66455 -0.66455 z m -188.033414,3.4418 c -0.369691,-0.1654 -0.699405,-0.6653 -0.699405,-1.0605 0,-0.4156 0.334064,-0.8982 0.738757,-1.0673 0.511877,-0.2138 0.955868,-0.109 1.30728,0.3086 0.797179,0.9474 -0.220821,2.3226 -1.346632,1.8192 z m 26.883074,-0.084 c -1.004125,-0.6804 -0.52624,-2.1549 0.68805,-2.123 0.366678,0.01 0.521883,0.082 0.769891,0.3597 0.911018,1.0195 -0.333693,2.525 -1.457941,1.7633 z m -31.003741,-2.8103 c -0.884197,-0.7441 -0.262329,-2.1646 0.880488,-2.0112 0.535712,0.072 0.752756,0.2364 0.957383,0.7259 0.460294,1.1012 -0.914252,2.0624 -1.837871,1.2853 z m 34.646688,-0.04 c -0.53466,-0.5347 -0.378526,-1.5688 0.282322,-1.8699 0.524037,-0.2387 0.934974,-0.164 1.343275,0.2443 0.423841,0.4238 0.488754,0.8573 0.209295,1.3978 -0.213376,0.4126 -0.478474,0.5516 -1.0523,0.5516 -0.359456,0 -0.528959,-0.07 -0.782592,-0.3238 z m -38.007648,-3.3233 c -0.310548,-0.2775 -0.36172,-0.3963 -0.36172,-0.8398 0,-0.4475 0.05027,-0.5615 0.375833,-0.8524 0.327764,-0.2929 0.437551,-0.3289 0.858326,-0.2814 0.569783,0.064 0.794235,0.2271 1.003634,0.728 0.474091,1.1341 -0.945722,2.0769 -1.876073,1.2456 z m 41.572637,0.1686 c -0.753644,-0.4177 -0.728651,-1.6888 0.04009,-2.0391 1.33343,-0.6075 2.374786,1.0751 1.236167,1.9974 -0.28008,0.2269 -0.905334,0.2473 -1.27626,0.041 z m 153.942404,-4.5527 v -0.9414 h 0.66455 0.66455 v 0.9414 0.9415 h -0.66455 -0.66455 z m -198.266593,0.507 c -0.254481,-0.2545 -0.323756,-0.4228 -0.323756,-0.7864 0,-0.3818 0.06828,-0.531 0.390755,-0.8534 0.355805,-0.3558 0.43255,-0.3851 0.858378,-0.328 0.33932,0.046 0.554668,0.16 0.784832,0.4176 0.277751,0.3109 0.3101,0.418 0.260105,0.8616 -0.07663,0.6799 -0.452912,1.0124 -1.145796,1.0124 -0.405791,0 -0.562155,-0.062 -0.824518,-0.3238 z m 46.821862,0.034 c -0.379961,-0.38 -0.476995,-0.9125 -0.247238,-1.3568 0.189578,-0.3666 0.678069,-0.6799 1.060134,-0.6799 0.690062,0 1.285388,0.7447 1.147296,1.4351 -0.166596,0.8331 -1.36191,1.1998 -1.960192,0.6016 z m -48.748518,-4.282 c -0.322429,-0.3225 -0.390755,-0.4717 -0.390755,-0.8534 0,-0.6689 0.456462,-1.1101 1.148274,-1.1101 0.692884,0 1.069165,0.3324 1.145796,1.0123 0.05,0.4436 0.01766,0.5507 -0.260105,0.8615 -0.230164,0.2576 -0.445513,0.3722 -0.784832,0.4177 -0.425828,0.057 -0.502573,0.028 -0.858378,-0.328 z m 51.029667,0.2484 c -0.136678,-0.054 -0.350888,-0.2635 -0.47602,-0.4636 -0.689746,-1.1029 0.753477,-2.3155 1.753959,-1.4736 1.027385,0.8645 -0.01518,2.445 -1.277939,1.9372 z m -51.931229,-4.5307 c -0.678121,-0.2889 -0.919015,-1.2408 -0.457781,-1.8088 0.698148,-0.8599 2.076174,-0.3905 2.076174,0.7071 0,0.7953 -0.899875,1.4079 -1.618393,1.1017 z m 53.094888,-0.07 c -0.68511,-0.3717 -0.800534,-1.2955 -0.232806,-1.8632 0.396522,-0.3965 1.103691,-0.4032 1.56543,-0.015 1.064203,0.8955 -0.105468,2.5437 -1.332624,1.8779 z m 28.380522,-1.4535 c -0.21321,-0.023 -0.91922,-0.1398 -1.56891,-0.2608 -5.79618,-1.0789 -9.12513,-4.5913 -10.12874,-10.68679 -0.24771,-1.5044 -0.28513,-5.5698 -0.0651,-7.0671 0.49525,-3.3695 1.64363,-5.9197 3.50317,-7.7792 1.82469,-1.8247 4.10377,-2.8799 7.42886,-3.4395 0.79309,-0.1334 1.78376,-0.1874 3.4889,-0.1898 2.673921,0 4.394081,0.2219 6.210141,0.8154 5.83985,1.9084 8.64458,6.8586 8.37635,14.7838 -0.12646,3.73629 -0.82502,6.31779 -2.33748,8.63809 -1.89554,2.9081 -4.97532,4.5999 -9.36637,5.1455 -0.8654,0.1076 -4.641711,0.135 -5.540851,0.04 z m 4.654781,-3.5831 c 6.08832,-0.7466 8.98297,-4.6655 8.70938,-11.79149 -0.14037,-3.6561 -0.90916,-5.7689 -2.78578,-7.6558 -0.85785,-0.8625 -1.15815,-1.0845 -2.05348,-1.5175 -1.74728,-0.8452 -3.40583,-1.1783 -5.866691,-1.1783 -6.85323,0 -10.26413,3.2312 -10.69362,10.13 -0.26661,4.2826 1.02502,8.12029 3.35676,9.97369 1.26013,1.0015 3.25123,1.7796 5.19199,2.0287 1.08768,0.1398 3.04777,0.1448 4.141441,0.011 z m 20.7851,3.5461 c -3.17906,-0.3637 -4.93309,-1.5974 -5.66547,-3.9848 -0.28595,-0.9321 -0.34745,-3.1429 -0.12318,-4.4277 0.72975,-4.18049 3.8012,-5.62819 12.38573,-5.83819 l 2.85204,-0.069 -0.004,-0.287 c -0.008,-0.6024 -0.31232,-1.9812 -0.53224,-2.4123 -0.44114,-0.8647 -1.3254,-1.3902 -2.77404,-1.6486 -2.41271,-0.4303 -5.27566,0.026 -7.63862,1.2175 -0.4479,0.2259 -0.83702,0.388 -0.86473,0.3603 -0.26618,-0.2662 -1.89907,-2.7887 -1.85321,-2.8629 0.10572,-0.1711 1.94935,-1.0479 2.86239,-1.3613 1.86915,-0.6417 3.06773,-0.8488 5.28841,-0.9136 5.03813,-0.1471 7.507,0.8799 8.45616,3.5173 0.50198,1.3948 0.52246,1.6725 0.59237,8.02539 0.0599,5.4487 0.0869,6.128 0.25563,6.436 0.20892,0.3815 0.54633,0.5461 1.33434,0.6512 l 0.5261,0.07 v 1.5864 1.5863 l -0.69224,0.069 c -0.99348,0.099 -2.40103,-0.076 -3.02018,-0.3763 -0.53287,-0.2579 -1.02068,-0.869 -1.29146,-1.6178 l -0.12737,-0.3523 -0.51343,0.5271 c -1.37586,1.4126 -3.40841,2.0445 -6.92643,2.1535 -0.91376,0.028 -2.05077,0.01 -2.5267,-0.047 z m 4.95369,-3.3736 c 2.23155,-0.4783 3.65795,-1.8266 4.22044,-3.9894 0.0951,-0.3655 0.20376,-1.3564 0.24156,-2.2021 l 0.0687,-1.53749 -3.0912,0.06 c -6.66371,0.1294 -8.56286,0.98989 -8.76728,3.97249 -0.15699,2.2904 0.87826,3.5251 3.2394,3.8637 0.89114,0.1277 3.1413,0.036 4.08836,-0.1673 z m 49.53957,3.3736 c -3.41188,-0.3903 -5.20697,-1.7997 -5.79387,-4.549 -0.21235,-0.9948 -0.14651,-3.5804 0.11521,-4.5257 0.56075,-2.02529 1.85233,-3.33769 4.05016,-4.11549 1.8656,-0.6602 4.2116,-0.9623 8.23614,-1.0608 l 2.86257,-0.07 -0.0707,-0.6191 c -0.13731,-1.2028 -0.30181,-1.7856 -0.65027,-2.3038 -0.66657,-0.9913 -1.79448,-1.437 -3.92039,-1.5495 -2.16956,-0.1147 -4.32279,0.3373 -6.27571,1.3176 -0.47976,0.2408 -0.91082,0.3968 -0.95789,0.3465 -0.31941,-0.3407 -1.86308,-2.7429 -1.81383,-2.8226 0.0968,-0.1566 1.75661,-0.9626 2.69494,-1.3085 1.7361,-0.6402 3.30475,-0.9171 5.51885,-0.9744 4.99623,-0.1293 7.45019,0.9008 8.39415,3.5237 0.50196,1.3948 0.52246,1.6724 0.59236,8.02539 0.0599,5.4487 0.0869,6.128 0.25564,6.436 0.20891,0.3815 0.54632,0.5461 1.33433,0.6512 l 0.5261,0.07 v 1.5864 1.5863 l -0.69224,0.068 c -0.77448,0.077 -2.29612,-0.062 -2.78343,-0.2548 -0.63598,-0.2512 -0.98069,-0.5997 -1.34498,-1.3599 l -0.3662,-0.7641 -0.2998,0.393 c -0.40669,0.5333 -1.60106,1.3036 -2.54335,1.6405 -0.42642,0.1525 -1.24881,0.3562 -1.82752,0.4526 -1.30043,0.2168 -4.0811,0.3121 -5.2403,0.1795 z m 4.9537,-3.3736 c 1.07674,-0.2309 2.07241,-0.7284 2.76135,-1.38 1.1302,-1.0689 1.59102,-2.3728 1.70041,-4.8115 l 0.069,-1.53749 -3.09119,0.06 c -5.65989,0.1099 -7.62816,0.70659 -8.48355,2.57199 -0.21627,0.4716 -0.25372,0.7345 -0.25231,1.7721 0.002,1.0496 0.0374,1.291 0.25959,1.7432 0.66302,1.3488 2.17349,1.8975 4.94203,1.7949 0.73102,-0.027 1.67364,-0.1231 2.09472,-0.2133 z m 42.60241,3.3702 c -2.14542,-0.2683 -3.62839,-0.9356 -4.88634,-2.1989 -1.21957,-1.2246 -1.87028,-2.528 -2.339,-4.685 -0.22135,-1.0187 -0.24824,-1.4589 -0.25231,-4.13069 -0.005,-3.1975 0.0708,-3.9267 0.57494,-5.538 0.92962,-2.9712 2.68534,-4.6481 5.65519,-5.4011 0.85054,-0.2157 1.24629,-0.2441 3.34595,-0.2406 2.52285,0 3.69585,0.1505 4.93795,0.6152 0.77929,0.2915 1.81589,0.9944 2.09522,1.4206 0.12184,0.1858 0.2589,0.3381 0.30459,0.3382 0.0457,3e-4 0.083,-2.3671 0.083,-5.2607 v -5.261 h 1.88289 1.8829 v 14.943 14.94299 l -0.85838,0.081 c -0.47211,0.045 -1.13012,0.086 -1.46225,0.093 l -0.60387,0.011 -0.13881,-0.8308 c -0.0764,-0.4568 -0.16868,-0.9949 -0.20515,-1.1958 l -0.0663,-0.3653 -0.48024,0.5314 c -0.89896,0.9947 -2.3417,1.6571 -4.27652,1.9634 -1.33497,0.2113 -4.12521,0.3016 -5.19351,0.1681 z m 5.29407,-3.6464 c 1.11447,-0.3166 1.61586,-0.5926 2.35203,-1.2948 0.68712,-0.6553 1.18966,-1.553 1.47796,-2.6399 0.31243,-1.1779 0.45195,-3.42379 0.31125,-5.01049 -0.20556,-2.3181 -0.61819,-3.4901 -1.59096,-4.5186 -1.08044,-1.1425 -2.65551,-1.6407 -5.19213,-1.6423 -3.58155,0 -5.27105,1.1568 -6.11246,4.1936 -0.22111,0.798 -0.24528,1.1393 -0.24325,3.4335 0.002,2.27199 0.0285,2.64329 0.24453,3.43349 0.71437,2.6128 2.11075,3.9152 4.61594,4.3054 0.8146,0.1269 3.33213,-0.032 4.13709,-0.2599 z m -64.59144,3.3158 c -0.95903,-0.1079 -1.94037,-0.4986 -2.43922,-0.9712 -0.40447,-0.3832 -0.80014,-1.1622 -1.03639,-2.0406 -0.16912,-0.6288 -0.19044,-1.9365 -0.22577,-13.84699 l -0.039,-13.1526 h 1.83256 1.83255 l 0.005,12.045 c 0.003,6.6247 0.0475,12.41259 0.0995,12.86179 0.15607,1.3479 0.61977,1.7297 2.25263,1.8552 l 0.96581,0.074 v 1.5897 1.5896 h -0.63686 c -0.35028,0 -0.88607,0.021 -1.19066,0.047 -0.30458,0.025 -0.94357,0 -1.41997,-0.052 z m -24.33143,-15.00359 v -15.0078 h 1.8823 1.88229 l 0.0283,9.7579 0.0283,9.7579 4.70725,-5.4869 4.70724,-5.4869 2.09028,-0.01 c 1.96809,-0.01 2.08141,0.01 1.93828,0.1852 -0.0836,0.1056 -1.72201,2.0381 -3.6409,4.2946 -1.9189,2.2565 -3.55624,4.1874 -3.63852,4.2909 -0.13231,0.1665 0.32358,0.8965 3.94057,6.31049 2.2496,3.3673 4.12661,6.1846 4.17115,6.2607 0.0636,0.1088 -0.36585,0.138 -2.00229,0.1362 h -2.08326 l -3.32275,-4.8681 c -1.82752,-2.6774 -3.3552,-4.8569 -3.39484,-4.8434 -0.0396,0.013 -0.84957,0.9065 -1.79983,1.9843 l -1.72776,1.9597 v 2.886 2.8861 h -1.88289 -1.8829 z m 54.49327,4.3838 v -10.624 l 0.69225,-0.06 c 0.38073,-0.033 1.04823,-0.087 1.48332,-0.1193 0.90201,-0.068 0.84257,-0.1341 0.98667,1.103 0.0426,0.3655 0.0973,0.699 0.12146,0.7411 0.0243,0.042 0.26334,-0.1365 0.53136,-0.3971 1.45321,-1.4124 3.96887,-2.0286 7.84133,-1.9207 2.25414,0.062 2.87191,0.183 4.15408,0.809 1.73567,0.8474 2.63726,2.3358 3.0142,4.9766 0.065,0.4554 0.11159,3.9398 0.11288,8.44519 l 0.002,7.67 h -1.82752 -1.82752 l -0.004,-6.8392 c -0.002,-3.76169 -0.0493,-7.19239 -0.1054,-7.62389 -0.37373,-2.875 -1.96125,-3.9287 -5.70024,-3.7832 -3.2043,0.1247 -4.77591,1.2093 -5.45234,3.7626 -0.15947,0.6019 -0.18984,1.6119 -0.2282,7.58909 l -0.0443,6.8946 h -1.87542 -1.87542 v -10.62389 z m -180.496012,7.65879 c -0.68631,-0.556 -0.595399,-1.5621 0.177235,-1.9617 0.434651,-0.2248 0.762318,-0.2111 1.190026,0.05 0.632344,0.3855 0.675079,1.3414 0.08313,1.859 -0.352633,0.3083 -1.101338,0.3356 -1.45036,0.053 z m 54.09265,0.076 c -0.269011,-0.1567 -0.526102,-0.69 -0.526102,-1.0915 0,-0.2147 0.116611,-0.4664 0.323191,-0.6976 0.277474,-0.3106 0.396265,-0.3618 0.839775,-0.3618 0.443511,0 0.562303,0.051 0.839776,0.3618 0.702247,0.7859 0.227073,1.9127 -0.803566,1.9054 -0.263584,0 -0.566468,-0.055 -0.673074,-0.1163 z m -53.598786,-4.7218 c -0.970284,-0.602 -0.535659,-2.1272 0.608037,-2.1339 0.536854,0 0.805624,0.1422 1.016095,0.5491 0.579247,1.1202 -0.568228,2.2398 -1.624132,1.5848 z m 53.046743,-0.1336 c -0.310547,-0.2774 -0.361714,-0.3963 -0.361714,-0.8398 0,-0.4435 0.05116,-0.5622 0.361714,-0.8398 0.649176,-0.58 1.535791,-0.3806 1.870614,0.4208 0.473514,1.1333 -0.943726,2.087 -1.870614,1.2588 z m -51.828394,-4.40749 c -0.972964,-0.6036 -0.562708,-2.1364 0.571822,-2.1364 0.573825,0 0.83893,0.139 1.052301,0.5517 0.279456,0.5403 0.214549,0.9739 -0.209293,1.3977 -0.429747,0.4297 -0.919208,0.4945 -1.41483,0.187 z m 50.857507,0.055 c -0.381346,-0.1978 -0.70203,-0.8821 -0.609931,-1.3014 0.104578,-0.4762 0.642393,-0.8895 1.157286,-0.8895 0.822952,0 1.39194,0.8255 1.081258,1.5688 -0.08494,0.2032 -0.234964,0.4362 -0.333387,0.5179 -0.258186,0.2141 -0.972647,0.2716 -1.295226,0.1042 z m -48.588403,-4.2041 c -0.820168,-0.2183 -1.079728,-1.2257 -0.486781,-1.8893 0.277479,-0.3106 0.396266,-0.3617 0.839775,-0.3617 0.443517,0 0.562304,0.051 0.839774,0.3617 0.811055,0.9077 -0.0079,2.2046 -1.192768,1.8893 z m 46.927023,0.058 c -0.452393,-0.149 -0.670507,-0.3258 -0.838437,-0.6796 -0.153689,-0.3239 -0.162621,-0.4586 -0.05435,-0.82 0.140208,-0.4679 0.640162,-0.8637 1.092123,-0.8644 0.685773,0 1.330107,0.7794 1.185789,1.4365 -0.07607,0.3464 -0.553387,0.889 -0.78199,0.889 -0.07809,0 -0.208354,0.021 -0.289482,0.047 -0.08113,0.025 -0.22227,0.022 -0.313646,-0.01 z m -44.379377,-3.9663 c -0.377046,-0.164 -0.699668,-0.6619 -0.698991,-1.0785 6.94e-4,-0.452 0.396449,-0.9519 0.864424,-1.0922 1.36661,-0.4094 2.134481,1.5506 0.846831,2.1615 -0.43502,0.2065 -0.555933,0.2076 -1.012264,0.01 z m 41.312892,-0.048 c -0.433284,-0.2712 -0.588551,-0.5459 -0.588551,-1.0412 0,-0.7904 0.845175,-1.344 1.582027,-1.0362 0.788427,0.3294 1.00113,1.2236 0.439319,1.8468 -0.399589,0.4432 -0.951242,0.532 -1.432795,0.2306 z m -38.024986,-3.3064 c -0.282049,-0.1409 -0.430257,-0.3169 -0.544034,-0.6459 -0.142048,-0.411 -0.136978,-0.4921 0.05536,-0.8861 0.162093,-0.332 0.317833,-0.4704 0.66405,-0.5902 0.41088,-0.142 0.492019,-0.1369 0.886069,0.055 0.330655,0.1614 0.47055,0.3181 0.588475,0.6592 0.137724,0.3983 0.133752,0.4916 -0.03621,0.8498 -0.115034,0.2425 -0.337316,0.4719 -0.559097,0.5771 -0.465162,0.2207 -0.578228,0.2187 -1.054595,-0.019 z m 34.820126,0.035 c -0.739504,-0.3219 -0.943976,-1.203 -0.422879,-1.8223 0.699237,-0.831 2.042359,-0.3292 2.042359,0.7631 0,0.4944 -0.25452,0.8648 -0.730848,1.0638 -0.443776,0.1854 -0.451867,0.1854 -0.888632,-0.01 z m -31.245717,-3.0007 c -0.355814,-0.3557 -0.385139,-0.4325 -0.328035,-0.8583 0.04552,-0.3394 0.160107,-0.5547 0.41769,-0.7848 0.310837,-0.2778 0.41798,-0.3102 0.861562,-0.2602 0.679865,0.076 1.012306,0.453 1.012306,1.1458 0,0.6919 -0.4413,1.1483 -1.110141,1.1483 -0.381742,0 -0.530953,-0.069 -0.853382,-0.3908 z m 27.228696,0.2362 c -0.345746,-0.1916 -0.557178,-0.5855 -0.56206,-1.0471 -0.0029,-0.2774 0.09116,-0.4661 0.372654,-0.7476 0.423842,-0.4239 0.857362,-0.4888 1.397777,-0.2093 0.412622,0.2133 0.551576,0.4785 0.551576,1.0522 0,0.8835 -0.953239,1.399 -1.759947,0.9518 z m -22.947758,-2.1628 c -0.253635,-0.2537 -0.323759,-0.4232 -0.323759,-0.7826 0,-0.2524 0.05132,-0.5547 0.114044,-0.6719 0.153376,-0.2866 0.682453,-0.5477 1.109878,-0.5477 0.486536,0 1.102011,0.6183 1.102011,1.1071 0,1.0728 -1.260887,1.6364 -2.002174,0.8951 z m 18.564822,0.075 c -0.348637,-0.3049 -0.496657,-0.7997 -0.375375,-1.2551 0.127359,-0.4781 0.447724,-0.728 1.015342,-0.792 0.426059,-0.048 0.534099,-0.013 0.862874,0.2809 0.325552,0.2908 0.375833,0.4049 0.375833,0.8524 0,0.4435 -0.05116,0.5622 -0.361714,0.8398 -0.461696,0.4125 -1.094463,0.4433 -1.51696,0.074 z m -14.023718,-1.2936 c -0.259335,-0.2592 -0.323266,-0.419 -0.321293,-0.8029 0.0057,-1.1082 1.16953,-1.5999 1.94689,-0.8226 0.799241,0.7992 0.268147,1.9494 -0.900165,1.9494 -0.29628,0 -0.486627,-0.085 -0.725432,-0.3239 z m 9.501343,0.1006 c -0.41561,-0.3269 -0.571533,-0.8821 -0.377843,-1.3455 0.209393,-0.5009 0.433849,-0.6638 1.003633,-0.728 0.420775,-0.047 0.530556,-0.011 0.85832,0.2814 0.325551,0.2908 0.375833,0.4049 0.375833,0.8524 0,0.4435 -0.05116,0.5623 -0.361714,0.8398 -0.444209,0.3969 -1.067822,0.4385 -1.498229,0.1 z m -4.480044,-0.2738 c -0.821271,-0.3569 -0.900768,-1.5135 -0.139397,-2.028 0.509083,-0.344 1.044649,-0.2721 1.467553,0.1971 0.557459,0.6183 0.349374,1.5171 -0.426263,1.8412 -0.445186,0.1861 -0.450433,0.186 -0.901893,-0.011 z"
       id="path968"
       inkscape:connector-curvature="0" />
  </g>
</svg>
