<?xml version="1.0" encoding="UTF-8"?>
<svg width="472px" height="445px" enable-background="new -16.416 -8.406 472 445" overflow="visible" version="1.1" viewBox="-16.416 -8.406 472 445" xml:space="preserve" xmlns="http://www.w3.org/2000/svg" xmlns:cc="http://creativecommons.org/ns#" xmlns:dc="http://purl.org/dc/elements/1.1/" xmlns:rdf="http://www.w3.org/1999/02/22-rdf-syntax-ns#"><metadata><rdf:RDF><cc:Work rdf:about=""><dc:format>image/svg+xml</dc:format><dc:type rdf:resource="http://purl.org/dc/dcmitype/StillImage"/><dc:title/></cc:Work></rdf:RDF></metadata><path d="m437.53 221.54c-1.704-8.377-2.604-17.556-3.704-26.537-38.178 4.402-74.989 10.171-112.93 14.809 14.188-7.612 29.607-13.998 43.815-21.596-4.982-9.418-9.099-19.702-14.192-29.005-14.112 6.664-28.358 13.196-41.966 20.364-0.332-2.229 2.232-4.114 3.703-5.553 28.136-27.543 59.922-56.091 88.246-83.927-6.264-9.162-14.822-16.034-22.216-24.067-31.306 30.199-62.752 60.258-94.418 90.098 0.065 0.747-0.896 0.379 0 0 17.142-32.844 34.888-65.085 52.455-97.503-8.766-6.047-19.232-10.39-28.386-16.045-15.407 28.205-31.008 56.211-45.667 85.161 0.938-12.022 4.481-26.785 6.787-39.495-9.975-2.573-21.114-3.98-31.474-6.172-5.419 21.732-8.943 45.36-12.956 68.5-7.624-50.422-14.196-101.32-20.364-150.58-11.154 0.776-20.899 2.963-32.09 3.704 4.824 44.219 11.857 90.264 17.897 136.38-16.291-32.047-31.035-65.646-47.518-97.502-10.111 4.081-19.216 9.171-29.004 13.575 15.362 32.361 31.197 64.251 46.283 96.886 0.746-0.062 0.379 0.898 0 0-21.166-21.003-41.008-43.328-62.328-64.178-8.332 6.684-15.152 14.879-23.45 21.599 19.794 22.168 41.267 42.659 61.094 64.796 0.745-0.063 0.38 0.896 0 0-20.392-10.258-40.076-21.225-59.859-32.09-5.436 9.168-10.582 18.628-15.427 28.386 18.991 12.071 40.561 21.563 59.859 33.324 0.205 0.062 0.456 0.072 0.679 0.115v0.41c-0.351-0.05-0.667-0.134-0.679-0.525-36.45-5.884-75.812-13.751-113.55-20.362-3.207 8.314-3.407 19.632-6.173 28.384v3.703c38.556 6.7 76.916 13.594 114.78 20.982-28.178 4.116-57.236 7.356-85.162 11.726 1.383 10.752 2.826 21.446 4.319 32.091 28.135-3.135 57.036-8.79 84.543-10.492-31.439 14.637-62.882 29.272-93.184 45.049 4.649 9.546 9.683 18.704 13.577 29.004 31.145-14.519 63.458-31.166 93.801-44.433-0.795 3.157-10.014 6.602-9.874 9.876 0.016 0.376 4.639 4.569 5.553 5.553 5.509 5.929 12.75 13.786 17.28 17.279 3.643-3.145 6.973-6.604 10.491-9.873-0.062-0.746 0.896-0.381 0 0-4.266 8.692-9.067 16.851-13.577 25.301 9.572 5.237 18.967 10.655 29.004 15.428 6.581-12.754 13.459-25.215 20.365-37.646 0.137-0.477 0.017-1.216 0.617-1.231-0.139 0.478-0.017 1.217-0.617 1.231-4.47 29.883-10.864 57.843-15.428 87.631 11.018 1.53 21.213 3.883 32.092 5.554 3.525-20.129 6.787-40.521 11.104-59.856 0.531 6.532 1.271 9.042 1.852 15.425 10.777-1.36 21.609-2.662 32.092-4.319-0.428-10.271-3.832-20.853-3.086-30.237 12.673 28.259 26.636 55.23 39.494 83.309 10.521-4.086 20.345-8.865 29.622-14.195-13.729-27.411-26.946-55.332-40.114-83.31-0.745 0.062-0.378-0.896 0 0 24.688 24.681 47.792 50.947 72.819 75.292 8.229-7 15.687-14.764 23.451-22.219-23.99-24.555-49.321-51.064-71.583-75.288 3.93 1.623 6.754 4.353 11.105 5.557 5.426-9.18 10.532-18.68 15.428-28.388-3.748-2.423-8.273-4.068-11.725-6.791 11.454 2.123 22.913 4.242 34.558 6.172 1.578-10.971 3.863-21.231 5.554-32.09-11.129-2.241-23.769-2.972-33.325-6.789 37.681-4.49 74.562-9.777 111.7-14.81 2e-3 -1.853 1e-3 -3.703 2e-3 -5.554zm-318.43 48.75c0.405 0.405-0.258-0.26 0 0zm130.21 69.733c0.403 0.406-0.26-0.258 0 0z" clip-rule="evenodd" fill="#F8BE3F" fill-rule="evenodd"/><path d="m349.95 118.9v57.231c-4.453-12.322-11.408-23.172-20.762-32.134-8.419-8.064-18.511-14.323-30-18.599-11.683-4.351-24.565-6.553-38.285-6.553l-79.379-0.013v57.484c-4.638-11.627-11.623-22.31-20.744-31.429-17.658-17.661-41.134-27.385-66.109-27.385-24.971 0-48.451 9.724-66.111 27.385-17.66 17.658-27.386 41.139-27.386 66.111s9.726 48.449 27.386 66.107 41.14 27.386 66.111 27.386c24.975 0 48.451-9.728 66.109-27.386 9.121-9.118 16.105-19.796 20.744-31.426v57.347l79.379-0.01c13.72 0 26.603-2.205 38.285-6.557 11.489-4.277 21.581-10.534 30-18.599 9.354-8.96 16.309-19.809 20.762-32.129v57.367h87.538v-184.2h-87.538v2e-3z"/><path d="m82.958 199.31c-0.408-1.225-0.979-2.12-1.731-2.685-0.742-0.548-1.729-0.838-2.956-0.838-1.239 0-2.228 0.29-2.979 0.838-0.758 0.564-1.334 1.452-1.735 2.685-0.408 1.233-0.672 2.818-0.803 4.732-0.13 1.922-0.198 4.268-0.198 7.033 2e-3 2.765 0.068 5.118 0.198 7.063 0.13 1.944 0.398 3.517 0.803 4.729 0.401 1.211 0.98 2.1 1.735 2.652 0.75 0.563 1.736 0.831 2.979 0.831 1.223 0 2.214-0.268 2.956-0.831 0.753-0.553 1.327-1.441 1.731-2.652 0.396-1.213 0.671-2.785 0.814-4.729 0.138-1.945 0.2-4.299 0.2-7.063 0-2.766-0.062-5.111-0.2-7.033-0.144-1.914-0.418-3.491-0.814-4.732z" fill="#fff"/><path d="m137.19 231.66v-41.17h23.01v6.802h-14.701v9.687h13.833v6.8h-13.833v11.066h15.271v6.815h-23.58zm-9.596-11.744c-0.443 2.674-1.208 4.869-2.279 6.6-1.073 1.733-2.513 3.019-4.324 3.858-1.811 0.862-4.095 1.285-6.86 1.285h-13.092v-41.17h13.604c2.889 0 5.213 0.469 6.986 1.409 1.766 0.941 3.135 2.289 4.117 4.037 0.986 1.74 1.647 3.848 2.003 6.306 0.334 2.458 0.51 5.219 0.51 8.248-1e-3 3.614-0.231 6.758-0.665 9.427zm-35.747-0.189c-0.304 2.601-0.93 4.859-1.912 6.743-0.978 1.872-2.391 3.327-4.239 4.325-1.855 0.992-4.32 1.497-7.426 1.497-3.121 0-5.606-0.505-7.442-1.497-1.858-1.004-3.261-2.451-4.24-4.325-0.982-1.884-1.621-4.143-1.901-6.743-0.304-2.62-0.435-5.496-0.435-8.653 0-3.114 0.131-5.989 0.435-8.617 0.28-2.641 0.915-4.891 1.901-6.776 0.979-1.886 2.388-3.357 4.24-4.413 1.837-1.057 4.322-1.586 7.442-1.586 3.106 0 5.576 0.529 7.426 1.586 1.848 1.056 3.262 2.523 4.239 4.413 0.983 1.886 1.608 4.136 1.912 6.776 0.276 2.628 0.414 5.503 0.414 8.617 0 3.157-0.138 6.033-0.414 8.653zm-35.96 11.941h-9.46l-10.15-28.837h-0.113v28.837h-7.61v-41.179h9.574l10.038 28.2h0.1v-28.193h7.622v41.172h-1e-3zm38.776-99.233c-43.385 0-78.554 35.169-78.554 78.554 0 43.381 35.169 78.551 78.554 78.551 43.384 0 78.553-35.17 78.553-78.551 1e-3 -43.385-35.169-78.554-78.553-78.554z" fill="#fff"/><path d="m118.77 200.14c-0.493-1.165-1.191-2.053-2.13-2.647-0.946-0.597-2.201-0.894-3.781-0.894h-3.511v28.951h3.694c1.458 0 2.624-0.248 3.516-0.752 0.886-0.496 1.576-1.317 2.104-2.482 0.516-1.156 0.857-2.669 1.036-4.555 0.162-1.877 0.259-4.226 0.259-7.038 0-2.339-0.083-4.398-0.24-6.159-0.15-1.775-0.465-3.243-0.947-4.424z" fill="#fff"/><path d="m221.66 190.07h8.231v34.076h14.578v6.746h-22.81v-40.822z" fill="#fff"/><path d="m279.52 196.82h-14.581v9.603h13.724v6.747h-13.724v10.978h15.154v6.746h-23.385v-40.822h22.812v6.748z" fill="#fff"/><path d="m315.59 196.82h-14.578v9.603h13.724v6.747h-13.724v10.978h15.151v6.746h-23.384v-40.822h22.811v6.748z" fill="#fff"/><path d="m342.74 190.07c2.861 0 5.164 0.468 6.919 1.404 1.751 0.932 3.116 2.265 4.086 4 0.971 1.735 1.631 3.82 1.973 6.261 0.346 2.438 0.517 5.164 0.517 8.175 0 3.581-0.219 6.698-0.658 9.347-0.438 2.648-1.193 4.831-2.259 6.546-1.066 1.717-2.498 2.993-4.288 3.829-1.792 0.839-4.058 1.261-6.801 1.261h-12.98v-40.822h13.491zm-1.598 34.761c1.446 0 2.609-0.245 3.484-0.743 0.878-0.495 1.573-1.315 2.092-2.458 0.514-1.142 0.854-2.647 1.023-4.515 0.176-1.87 0.258-4.194 0.258-6.978 0-2.323-0.077-4.363-0.228-6.118-0.152-1.752-0.465-3.209-0.941-4.371-0.479-1.164-1.182-2.038-2.116-2.634-0.933-0.588-2.184-0.883-3.746-0.883h-3.487v28.699h3.661z" fill="#fff"/><path d="m376.87 219.34c0 0.955 0.074 1.823 0.229 2.601 0.152 0.783 0.438 1.44 0.857 1.973s0.979 0.956 1.686 1.258c0.705 0.309 1.59 0.458 2.66 0.458 1.256 0 2.391-0.408 3.401-1.229 1.008-0.819 1.515-2.087 1.515-3.803 0-0.913-0.123-1.705-0.37-2.37-0.249-0.67-0.657-1.267-1.231-1.801-0.571-0.534-1.324-1.022-2.257-1.461-0.932-0.437-2.088-0.884-3.46-1.343-1.829-0.61-3.411-1.273-4.743-2-1.335-0.725-2.451-1.572-3.346-2.545-0.898-0.973-1.554-2.096-1.974-3.373-0.417-1.275-0.628-2.751-0.628-4.428 0-4.041 1.126-7.056 3.373-9.035 2.249-1.983 5.337-2.971 9.263-2.971 1.829 0 3.513 0.198 5.059 0.597 1.542 0.401 2.875 1.051 4.004 1.943 1.122 0.897 2 2.04 2.627 3.431 0.633 1.394 0.942 3.059 0.942 5.001v1.146h-7.886c0-1.942-0.346-3.438-1.03-4.488-0.688-1.048-1.831-1.572-3.432-1.572-0.914 0-1.675 0.135-2.286 0.402-0.61 0.267-1.098 0.62-1.46 1.058-0.362 0.437-0.61 0.942-0.741 1.513-0.133 0.572-0.201 1.165-0.201 1.772 0 1.261 0.266 2.315 0.803 3.173 0.53 0.86 1.676 1.65 3.429 2.373l6.347 2.747c1.562 0.685 2.841 1.399 3.828 2.143 0.992 0.744 1.785 1.542 2.372 2.4 0.594 0.857 1.001 1.8 1.233 2.829 0.228 1.028 0.341 2.172 0.341 3.432 0 4.307-1.249 7.441-3.743 9.405-2.496 1.963-5.978 2.942-10.434 2.942-4.65 0-7.977-1.009-9.978-3.028-1.999-2.021-2.999-4.916-2.999-8.689v-1.66h8.229v1.199z" fill="#fff"/></svg>
