<?xml version="1.0" encoding="UTF-8" standalone="no"?>
<!-- Generator: Adobe Illustrator 15.1.0, SVG Export Plug-In  -->

<svg xmlns:dc="http://purl.org/dc/elements/1.1/" xmlns:cc="http://creativecommons.org/ns#" xmlns:rdf="http://www.w3.org/1999/02/22-rdf-syntax-ns#" xmlns:svg="http://www.w3.org/2000/svg" xmlns="http://www.w3.org/2000/svg" xmlns:sodipodi="http://sodipodi.sourceforge.net/DTD/sodipodi-0.dtd" xmlns:inkscape="http://www.inkscape.org/namespaces/inkscape" version="1.1" x="0px" y="0px" width="472px" height="445px" viewBox="-16.416 -8.406 472 445" overflow="visible" enable-background="new -16.416 -8.406 472 445" xml:space="preserve" id="svg5822" inkscape:version="0.91 r13725" sodipodi:docname="odi-node-leeds.svg"><metadata id="metadata5848"><rdf:RDF><cc:Work rdf:about=""><dc:format>image/svg+xml</dc:format><dc:type rdf:resource="http://purl.org/dc/dcmitype/StillImage" /><dc:title></dc:title></cc:Work></rdf:RDF></metadata><sodipodi:namedview pagecolor="#ffffff" bordercolor="#666666" borderopacity="1" objecttolerance="10" gridtolerance="10" guidetolerance="10" inkscape:pageopacity="0" inkscape:pageshadow="2" inkscape:window-width="694" inkscape:window-height="480" id="namedview5846" showgrid="false" inkscape:zoom="0.53034" inkscape:cx="236" inkscape:cy="222.5" inkscape:window-x="0" inkscape:window-y="0" inkscape:window-maximized="0" inkscape:current-layer="svg5822" /><defs id="defs5824" /><path fill-rule="evenodd" clip-rule="evenodd" fill="#F8BE3F" d="M437.53,221.544c-1.704-8.377-2.604-17.556-3.704-26.537  c-38.178,4.402-74.989,10.171-112.93,14.809c14.188-7.612,29.607-13.998,43.815-21.596c-4.982-9.418-9.099-19.702-14.192-29.005  c-14.112,6.664-28.358,13.196-41.966,20.364c-0.332-2.229,2.232-4.114,3.703-5.553c28.136-27.543,59.922-56.091,88.246-83.927  c-6.264-9.162-14.822-16.034-22.216-24.067c-31.306,30.199-62.752,60.258-94.418,90.098c0.065,0.747-0.896,0.379,0,0  c17.142-32.844,34.888-65.085,52.455-97.503c-8.766-6.047-19.232-10.39-28.386-16.045c-15.407,28.205-31.008,56.211-45.667,85.161  c0.938-12.022,4.481-26.785,6.787-39.495c-9.975-2.573-21.114-3.98-31.474-6.172c-5.419,21.732-8.943,45.36-12.956,68.5  C217.003,100.154,210.431,49.259,204.263,0c-11.154,0.776-20.899,2.963-32.09,3.704c4.824,44.219,11.857,90.264,17.897,136.38  c-16.291-32.047-31.035-65.646-47.518-97.502c-10.111,4.081-19.216,9.171-29.004,13.575c15.362,32.361,31.197,64.251,46.283,96.886  c0.746-0.062,0.379,0.898,0,0c-21.166-21.003-41.008-43.328-62.328-64.178c-8.332,6.684-15.152,14.879-23.45,21.599  c19.794,22.168,41.267,42.659,61.094,64.796c0.745-0.063,0.38,0.896,0,0c-20.392-10.258-40.076-21.225-59.859-32.09  c-5.436,9.168-10.582,18.628-15.427,28.386c18.991,12.071,40.561,21.563,59.859,33.324c0.205,0.062,0.456,0.072,0.679,0.115v0.41  c-0.351-0.05-0.667-0.134-0.679-0.525c-36.45-5.884-75.812-13.751-113.547-20.362C2.966,192.832,2.766,204.15,0,212.902  c0,1.235,0,2.469,0,3.703c38.556,6.7,76.916,13.594,114.783,20.982c-28.178,4.116-57.236,7.356-85.162,11.726  c1.383,10.752,2.826,21.446,4.319,32.091c28.135-3.135,57.036-8.79,84.543-10.492c-31.439,14.637-62.882,29.272-93.184,45.049  c4.649,9.546,9.683,18.704,13.577,29.004c31.145-14.519,63.458-31.166,93.801-44.433c-0.795,3.157-10.014,6.602-9.874,9.876  c0.016,0.376,4.639,4.569,5.553,5.553c5.509,5.929,12.75,13.786,17.28,17.279c3.643-3.145,6.973-6.604,10.491-9.873  c-0.062-0.746,0.896-0.381,0,0c-4.266,8.692-9.067,16.851-13.577,25.301c9.572,5.237,18.967,10.655,29.004,15.428  c6.581-12.754,13.459-25.215,20.365-37.646c0.137-0.477,0.017-1.216,0.617-1.231c-0.139,0.478-0.017,1.217-0.617,1.231  c-4.47,29.883-10.864,57.843-15.428,87.631c11.018,1.53,21.213,3.883,32.092,5.554c3.525-20.129,6.787-40.521,11.104-59.856  c0.531,6.532,1.271,9.042,1.852,15.425c10.777-1.36,21.609-2.662,32.092-4.319c-0.428-10.271-3.832-20.853-3.086-30.237  c12.673,28.259,26.636,55.23,39.494,83.309c10.521-4.086,20.345-8.865,29.622-14.195c-13.729-27.411-26.946-55.332-40.114-83.31  c-0.745,0.062-0.378-0.896,0,0c24.688,24.681,47.792,50.947,72.819,75.292c8.229-7,15.687-14.764,23.451-22.219  c-23.99-24.555-49.321-51.064-71.583-75.288c3.93,1.623,6.754,4.353,11.105,5.557c5.426-9.18,10.532-18.68,15.428-28.388  c-3.748-2.423-8.273-4.068-11.725-6.791c11.454,2.123,22.913,4.242,34.558,6.172c1.578-10.971,3.863-21.231,5.554-32.09  c-11.129-2.241-23.769-2.972-33.325-6.789c37.681-4.49,74.562-9.777,111.699-14.81C437.53,225.245,437.529,223.395,437.53,221.544z   M119.101,270.294C119.506,270.699,118.843,270.034,119.101,270.294L119.101,270.294z M249.313,340.027  C249.716,340.433,249.053,339.769,249.313,340.027L249.313,340.027z" id="path5826" /><path d="M349.946,118.895v57.231c-4.453-12.322-11.408-23.172-20.762-32.134c-8.419-8.064-18.511-14.323-30-18.599  c-11.683-4.351-24.565-6.553-38.285-6.553l-79.379-0.013v57.484c-4.638-11.627-11.623-22.31-20.744-31.429  c-17.658-17.661-41.134-27.385-66.109-27.385c-24.971,0-48.451,9.724-66.111,27.385c-17.66,17.658-27.386,41.139-27.386,66.111  c0,24.972,9.726,48.449,27.386,66.107s41.14,27.386,66.111,27.386c24.975,0,48.451-9.728,66.109-27.386  c9.121-9.118,16.105-19.796,20.744-31.426v57.347l79.379-0.01c13.72,0,26.603-2.205,38.285-6.557  c11.489-4.277,21.581-10.534,30-18.599c9.354-8.96,16.309-19.809,20.762-32.129v57.367h87.538v-184.2H349.946L349.946,118.895z" id="path5828" /><path fill="#FFFFFF" d="M82.958,199.31c-0.408-1.225-0.979-2.12-1.731-2.685c-0.742-0.548-1.729-0.838-2.956-0.838  c-1.239,0-2.228,0.29-2.979,0.838c-0.758,0.564-1.334,1.452-1.735,2.685c-0.408,1.233-0.672,2.818-0.803,4.732  c-0.13,1.922-0.198,4.268-0.198,7.033c0.002,2.765,0.068,5.118,0.198,7.063c0.13,1.944,0.398,3.517,0.803,4.729  c0.401,1.211,0.98,2.1,1.735,2.652c0.75,0.563,1.736,0.831,2.979,0.831c1.223,0,2.214-0.268,2.956-0.831  c0.753-0.553,1.327-1.441,1.731-2.652c0.396-1.213,0.671-2.785,0.814-4.729c0.138-1.945,0.2-4.299,0.2-7.063  c0-2.766-0.062-5.111-0.2-7.033C83.628,202.128,83.354,200.551,82.958,199.31L82.958,199.31z" id="path5830" /><path fill="#FFFFFF" d="M137.194,231.665v-41.17h23.01v6.802h-14.701v9.687h13.833v6.8h-13.833v11.066h15.271v6.815H137.194  L137.194,231.665z M127.598,219.921c-0.443,2.674-1.208,4.869-2.279,6.6c-1.073,1.733-2.513,3.019-4.324,3.858  c-1.811,0.862-4.095,1.285-6.86,1.285h-13.092v-41.17h13.604c2.889,0,5.213,0.469,6.986,1.409c1.766,0.941,3.135,2.289,4.117,4.037  c0.986,1.74,1.647,3.848,2.003,6.306c0.334,2.458,0.51,5.219,0.51,8.248C128.262,214.108,128.032,217.252,127.598,219.921  L127.598,219.921z M91.851,219.732c-0.304,2.601-0.93,4.859-1.912,6.743c-0.978,1.872-2.391,3.327-4.239,4.325  c-1.855,0.992-4.32,1.497-7.426,1.497c-3.121,0-5.606-0.505-7.442-1.497c-1.858-1.004-3.261-2.451-4.24-4.325  c-0.982-1.884-1.621-4.143-1.901-6.743c-0.304-2.62-0.435-5.496-0.435-8.653c0-3.114,0.131-5.989,0.435-8.617  c0.28-2.641,0.915-4.891,1.901-6.776c0.979-1.886,2.388-3.357,4.24-4.413c1.837-1.057,4.322-1.586,7.442-1.586  c3.106,0,5.576,0.529,7.426,1.586c1.848,1.056,3.262,2.523,4.239,4.413c0.983,1.886,1.608,4.136,1.912,6.776  c0.276,2.628,0.414,5.503,0.414,8.617C92.265,214.236,92.127,217.112,91.851,219.732L91.851,219.732z M55.891,231.673h-9.46  l-10.15-28.837h-0.113v28.837h-7.61v-41.179h9.574l10.038,28.2h0.1v-28.193h7.622V231.673L55.891,231.673z M94.667,132.44  c-43.385,0-78.554,35.169-78.554,78.554c0,43.381,35.169,78.551,78.554,78.551c43.384,0,78.553-35.17,78.553-78.551  C173.221,167.609,138.051,132.44,94.667,132.44L94.667,132.44z" id="path5832" /><path fill="#FFFFFF" d="M118.767,200.138c-0.493-1.165-1.191-2.053-2.13-2.647c-0.946-0.597-2.201-0.894-3.781-0.894h-3.511v28.951  h3.694c1.458,0,2.624-0.248,3.516-0.752c0.886-0.496,1.576-1.317,2.104-2.482c0.516-1.156,0.857-2.669,1.036-4.555  c0.162-1.877,0.259-4.226,0.259-7.038c0-2.339-0.083-4.398-0.24-6.159C119.564,202.787,119.249,201.319,118.767,200.138  L118.767,200.138z" id="path5834" /><path fill="#FFFFFF" d="M221.658,190.071h8.231v34.076h14.578v6.746h-22.81V190.071z" id="path5836" /><path fill="#FFFFFF" d="M279.515,196.82h-14.581v9.603h13.724v6.747h-13.724v10.978h15.154v6.746h-23.385v-40.822h22.812V196.82z" id="path5838" /><path fill="#FFFFFF" d="M315.588,196.82H301.01v9.603h13.724v6.747H301.01v10.978h15.151v6.746h-23.384v-40.822h22.811V196.82z" id="path5840" /><path fill="#FFFFFF" d="M342.742,190.071c2.861,0,5.164,0.468,6.919,1.404c1.751,0.932,3.116,2.265,4.086,4  c0.971,1.735,1.631,3.82,1.973,6.261c0.346,2.438,0.517,5.164,0.517,8.175c0,3.581-0.219,6.698-0.658,9.347  c-0.438,2.648-1.193,4.831-2.259,6.546c-1.066,1.717-2.498,2.993-4.288,3.829c-1.792,0.839-4.058,1.261-6.801,1.261h-12.98v-40.822  H342.742z M341.144,224.832c1.446,0,2.609-0.245,3.484-0.743c0.878-0.495,1.573-1.315,2.092-2.458  c0.514-1.142,0.854-2.647,1.023-4.515c0.176-1.87,0.258-4.194,0.258-6.978c0-2.323-0.077-4.363-0.228-6.118  c-0.152-1.752-0.465-3.209-0.941-4.371c-0.479-1.164-1.182-2.038-2.116-2.634c-0.933-0.588-2.184-0.883-3.746-0.883h-3.487v28.699  H341.144z" id="path5842" /><path fill="#FFFFFF" d="M376.873,219.342c0,0.955,0.074,1.823,0.229,2.601c0.152,0.783,0.438,1.44,0.857,1.973  s0.979,0.956,1.686,1.258c0.705,0.309,1.59,0.458,2.66,0.458c1.256,0,2.391-0.408,3.401-1.229c1.008-0.819,1.515-2.087,1.515-3.803  c0-0.913-0.123-1.705-0.37-2.37c-0.249-0.67-0.657-1.267-1.231-1.801c-0.571-0.534-1.324-1.022-2.257-1.461  c-0.932-0.437-2.088-0.884-3.46-1.343c-1.829-0.61-3.411-1.273-4.743-2c-1.335-0.725-2.451-1.572-3.346-2.545  c-0.898-0.973-1.554-2.096-1.974-3.373c-0.417-1.275-0.628-2.751-0.628-4.428c0-4.041,1.126-7.056,3.373-9.035  c2.249-1.983,5.337-2.971,9.263-2.971c1.829,0,3.513,0.198,5.059,0.597c1.542,0.401,2.875,1.051,4.004,1.943  c1.122,0.897,2,2.04,2.627,3.431c0.633,1.394,0.942,3.059,0.942,5.001v1.146h-7.886c0-1.942-0.346-3.438-1.03-4.488  c-0.688-1.048-1.831-1.572-3.432-1.572c-0.914,0-1.675,0.135-2.286,0.402c-0.61,0.267-1.098,0.62-1.46,1.058  c-0.362,0.437-0.61,0.942-0.741,1.513c-0.133,0.572-0.201,1.165-0.201,1.772c0,1.261,0.266,2.315,0.803,3.173  c0.53,0.86,1.676,1.65,3.429,2.373l6.347,2.747c1.562,0.685,2.841,1.399,3.828,2.143c0.992,0.744,1.785,1.542,2.372,2.4  c0.594,0.857,1.001,1.8,1.233,2.829c0.228,1.028,0.341,2.172,0.341,3.432c0,4.307-1.249,7.441-3.743,9.405  c-2.496,1.963-5.978,2.942-10.434,2.942c-4.65,0-7.977-1.009-9.978-3.028c-1.999-2.021-2.999-4.916-2.999-8.689v-1.66h8.229V219.342  z" id="path5844" /></svg>