<?xml version="1.0" encoding="UTF-8"?>
<svg version="1.1" viewBox="0 0 250 91" xmlns="http://www.w3.org/2000/svg" xmlns:cc="http://creativecommons.org/ns#" xmlns:dc="http://purl.org/dc/elements/1.1/" xmlns:rdf="http://www.w3.org/1999/02/22-rdf-syntax-ns#">
<metadata>
<rdf:RDF>
<cc:Work rdf:about="">
<dc:format>image/svg+xml</dc:format>
<dc:type rdf:resource="http://purl.org/dc/dcmitype/StillImage"/>
<dc:title/>
</cc:Work>
</rdf:RDF>
</metadata>
<g transform="translate(0,-961.4)">
<path d="m78.567 971.89a34.975 34.975 0 0 0-34.975 35.01 34.975 34.975 0 0 0 34.975 35 34.975 34.975 0 0 0 32.093-21.1 34.353 34.975 0 0 0 0 0.1v21h29.07v-0.2a34.353 34.975 0 0 0 2.37 0.2 34.353 34.975 0 0 0 31.5-21.1v21.1h32.81v-70.01h-32.81v21.1a34.353 34.975 0 0 0-31.5-21.1 34.353 34.975 0 0 0-2.37 0.1v-0.1h-29.07v21a34.353 34.975 0 0 0-0.1 0.1 34.975 34.975 0 0 0-32.055-21.1z" fill="#fff"/>
<circle cx="71.594" cy="996.69" r="0" fill="#666"/>
</g>
</svg>
