<?xml version="1.0" encoding="UTF-8" standalone="no"?>
<!-- Created with Inkscape (http://www.inkscape.org/) -->

<svg xmlns:dc="http://purl.org/dc/elements/1.1/" xmlns:cc="http://creativecommons.org/ns#" xmlns:rdf="http://www.w3.org/1999/02/22-rdf-syntax-ns#" xmlns:svg="http://www.w3.org/2000/svg" xmlns="http://www.w3.org/2000/svg" xmlns:sodipodi="http://sodipodi.sourceforge.net/DTD/sodipodi-0.dtd" xmlns:inkscape="http://www.inkscape.org/namespaces/inkscape" width="250" height="91" viewBox="0 0 250 91" id="svg2" version="1.1" inkscape:version="0.91 r13725" sodipodi:docname="odileeds.svg">
  <defs id="defs4" />
  <sodipodi:namedview id="base" pagecolor="#ffffff" bordercolor="#666666" borderopacity="1.0" inkscape:pageopacity="0.0" inkscape:pageshadow="2" inkscape:zoom="2.8" inkscape:cx="155.8" inkscape:cy="39.219" inkscape:document-units="px" inkscape:current-layer="layer1" showgrid="false" inkscape:window-width="1280" inkscape:window-height="752" inkscape:window-x="0" inkscape:window-y="0" inkscape:window-maximized="1" units="px" showguides="false" />
  <metadata id="metadata7">
    <rdf:RDF>
      <cc:Work rdf:about="">
        <dc:format>image/svg+xml</dc:format>
        <dc:type rdf:resource="http://purl.org/dc/dcmitype/StillImage" />
        <dc:title></dc:title>
      </cc:Work>
    </rdf:RDF>
  </metadata>
  <g inkscape:label="Layer 1" inkscape:groupmode="layer" id="layer1" transform="translate(0,-961.4)">
    <rect style="opacity:0.001;fill:#d02626;fill-opacity:1;stroke:none;stroke-width:2.5;stroke-linecap:round;stroke-linejoin:round;stroke-miterlimit:4;stroke-dasharray:none;stroke-dashoffset:0;stroke-opacity:1" id="rect4298" width="250" height="91" x="0" y="961.4" />
    <circle r="0" style="opacity:1;fill:#666666;fill-opacity:1;stroke:none;stroke-width:2.5;stroke-linecap:round;stroke-linejoin:round;stroke-miterlimit:4;stroke-dasharray:none;stroke-dashoffset:0;stroke-opacity:1" id="ellipse4185" cx="71.594" cy="996.69" />
    <path inkscape:connector-curvature="0" style="clip-rule:evenodd;fill:#ffffff;fill-rule:evenodd;fill-opacity:1;opacity:0.5" d="m 122.26,966.9 c -2.1,0.15 -3.94,0.56 -6.06,0.7 0.92,8.34 2.24,17.03 3.38,25.73 -3.07,-6.04 -5.86,-12.38 -8.96,-18.39 -1.91,0.77 -3.63,1.73 -5.48,2.56 2.9,6.1 5.89,12.12 8.74,18.28 0.14,0 0.1,0.17 0,0 -4,-3.96 -7.74,-8.18 -11.76,-12.11 -1.58,1.26 -2.862,2.81 -4.428,4.07 1.016,1.14 2.056,2.25 3.108,3.36 a 15.446,15.536 0 0 1 0.72,-0 15.446,15.536 0 0 1 15.44,15.53 15.446,15.536 0 0 1 -15.44,15.5 15.446,15.536 0 0 1 -3.349,-0.4 c -3.266,1.6 -6.509,3.1 -9.68,4.8 0.877,1.8 1.828,3.5 2.563,5.5 5.877,-2.8 11.976,-5.9 17.696,-8.4 -0.15,0.6 -1.89,1.2 -1.86,1.9 0,0 0.87,0.8 1.05,1 1.04,1.1 2.4,2.6 3.26,3.3 0.69,-0.6 1.31,-1.3 1.98,-1.9 -0.81,1.6 -1.71,3.2 -2.56,4.8 1.8,1 3.57,2 5.47,2.9 1.24,-2.4 2.54,-4.8 3.84,-7.1 0,-0.1 0,-0.2 0.12,-0.2 0,0 0,0.2 -0.12,0.2 -0.84,5.6 -2.05,10.9 -2.91,16.5 2.08,0.3 4,0.8 6.06,1.1 0.66,-3.8 1.28,-7.7 2.09,-11.3 0.1,1.2 0.24,1.7 0.35,2.9 2.03,-0.3 4.08,-0.5 6.06,-0.8 -0.1,-2 -0.73,-4 -0.59,-5.7 2.4,5.3 5.03,10.4 7.46,15.7 1.98,-0.8 3.83,-1.7 5.59,-2.7 -2.6,-5.2 -5.09,-10.4 -7.57,-15.7 -0.14,0 -0.1,-0.2 0,0 4.66,4.6 9.02,9.6 13.74,14.2 1.55,-1.3 2.96,-2.8 4.42,-4.2 -4.52,-4.6 -9.3,-9.6 -13.51,-14.2 0.75,0.3 1.28,0.8 2.1,1 1.03,-1.7 1.99,-3.5 2.91,-5.3 -0.71,-0.5 -1.56,-0.8 -2.21,-1.3 2.16,0.4 4.32,0.8 6.52,1.2 0.3,-2.1 0.73,-4 1.05,-6.1 -2.1,-0.4 -4.49,-0.5 -6.29,-1.3 3.84,-0.4 7.63,-0.9 11.41,-1.4 l -32.51,0 0,-9.1 28.21,0 c -0.84,-1.7 -1.57,-3.45 -2.45,-5.06 -2.66,1.26 -5.35,2.49 -7.92,3.86 -0.1,-0.4 0.42,-0.8 0.7,-1.06 5.31,-5.2 11.31,-10.6 16.65,-15.85 -1.18,-1.72 -2.8,-3.01 -4.19,-4.53 -5.91,5.7 -11.84,11.37 -17.82,17 0,0.14 -0.17,0.1 0,0 3.24,-6.2 6.59,-12.28 9.9,-18.4 -1.65,-1.14 -3.63,-1.96 -5.36,-3.02 -2.9,5.32 -5.85,10.6 -8.61,16.06 0.17,-2.26 0.84,-5.05 1.28,-7.45 -1.89,-0.48 -3.99,-0.75 -5.94,-1.16 -1.03,4.1 -1.69,8.56 -2.45,12.92 -1.44,-9.51 -2.68,-19.11 -3.84,-28.41 z m -37.376,34.8 c -0.605,1.6 -0.644,3.7 -1.166,5.4 l 0,0.7 c 0.822,0.1 1.638,0.3 2.459,0.4 a 15.446,15.536 0 0 1 -0.108,-1.6 15.446,15.536 0 0 1 0.68,-4.5 c -0.619,-0.2 -1.25,-0.3 -1.865,-0.4 z m 80.696,2 c -1.88,0.2 -3.74,0.4 -5.59,0.7 l 0,6.2 c 2.1,-0.3 4.19,-0.6 6.29,-0.9 l 0,-1 c -0.32,-1.6 -0.49,-3.3 -0.7,-5 z m -75.927,12.8 c 0.156,1.2 0.308,2.4 0.469,3.5 1.004,-0.1 2.015,-0.2 3.028,-0.4 a 15.446,15.536 0 0 1 -3.497,-3.1 z" id="path4450" />
    <path inkscape:connector-curvature="0" d="m 101.58,989.07 c -4.711,0 -9.141,1.84 -12.473,5.17 -3.333,3.33 -5.168,7.76 -5.168,12.46 0,4.7 1.835,9.1 5.168,12.5 3.332,3.3 7.762,5.1 12.473,5.1 4.71,0 9.14,-1.8 12.48,-5.1 1.72,-1.7 3.03,-3.8 3.91,-6 l 0,10.9 14.98,0 c 2.59,0 5.02,-0.4 7.22,-1.3 2.17,-0.8 4.07,-2 5.66,-3.5 1.77,-1.7 3.08,-3.7 3.92,-6 l 0,10.8 16.52,0 0,-34.76 -16.52,0 0,10.76 c -0.84,-2.29 -2.15,-4.34 -3.92,-6.03 -1.58,-1.52 -3.49,-2.7 -5.66,-3.51 -2.2,-0.82 -4.63,-1.23 -7.22,-1.23 l -14.98,0 0,10.87 c -0.88,-2.22 -2.19,-4.24 -3.91,-5.96 -3.34,-3.33 -7.77,-5.17 -12.48,-5.17 z m 0,2.82 c 8.19,0 14.82,6.64 14.82,14.81 0,8.2 -6.63,14.8 -14.82,14.8 -8.186,0 -14.821,-6.6 -14.821,-14.8 0,-8.17 6.635,-14.81 14.821,-14.81 z m 54.12,10.71 c 0.35,0 0.66,0 0.96,0.1 0.29,0.1 0.54,0.2 0.75,0.4 0.21,0.2 0.38,0.4 0.5,0.6 0.12,0.3 0.17,0.6 0.17,1 l 0,0.2 -1.48,0 c 0,-0.4 -0.1,-0.7 -0.2,-0.9 -0.13,-0.2 -0.34,-0.3 -0.65,-0.3 -0.17,0 -0.31,0.1 -0.43,0.1 -0.11,0.1 -0.2,0.1 -0.27,0.2 -0.1,0.1 -0.12,0.2 -0.14,0.3 l 0,0.3 c 0,0.3 0.1,0.5 0.15,0.6 0.1,0.2 0.32,0.4 0.65,0.5 l 1.2,0.5 c 0.29,0.1 0.53,0.3 0.72,0.4 0.18,0.2 0.34,0.3 0.45,0.5 0.11,0.1 0.18,0.3 0.23,0.5 0,0.2 0.1,0.4 0.1,0.6 0,0.9 -0.23,1.5 -0.7,1.8 -0.47,0.4 -1.13,0.6 -1.97,0.6 -0.88,0 -1.51,-0.2 -1.89,-0.6 -0.37,-0.4 -0.56,-0.9 -0.56,-1.6 l 0,-0.3 1.55,0 0,0.2 0,0 0,0.5 c 0,0.1 0.1,0.2 0.17,0.3 0.1,0.1 0.18,0.2 0.31,0.3 0.14,0 0.3,0.1 0.51,0.1 0.23,0 0.45,-0.1 0.64,-0.3 0.19,-0.1 0.28,-0.4 0.28,-0.7 0,-0.2 0,-0.3 -0.1,-0.4 0,-0.2 -0.12,-0.3 -0.23,-0.4 -0.11,-0.1 -0.25,-0.2 -0.42,-0.2 -0.18,-0.1 -0.4,-0.2 -0.66,-0.3 -0.34,-0.1 -0.64,-0.2 -0.89,-0.4 -0.25,-0.1 -0.46,-0.3 -0.63,-0.5 -0.17,-0.1 -0.3,-0.4 -0.38,-0.6 -0.1,-0.2 -0.11,-0.5 -0.11,-0.8 0,-0.8 0.21,-1.4 0.63,-1.7 0.43,-0.4 1.01,-0.6 1.75,-0.6 z m -57.213,0.1 c -0.588,0 -1.057,0.1 -1.404,0.3 -0.349,0.2 -0.614,0.5 -0.799,0.8 -0.186,0.4 -0.309,0.8 -0.359,1.3 -0.05,0.5 -0.08,1 -0.08,1.6 0,0.6 0.02,1.2 0.08,1.7 0.05,0.4 0.174,0.9 0.359,1.2 0.185,0.4 0.448,0.7 0.799,0.8 0.346,0.2 0.815,0.3 1.404,0.3 0.586,0 1.053,-0.1 1.403,-0.3 0.35,-0.1 0.62,-0.4 0.8,-0.8 0.19,-0.3 0.3,-0.8 0.36,-1.2 0,-0.5 0.1,-1.1 0.1,-1.7 0,-0.6 -0,-1.1 -0.1,-1.6 -0.1,-0.5 -0.17,-0.9 -0.36,-1.3 -0.18,-0.3 -0.45,-0.6 -0.8,-0.8 -0.35,-0.2 -0.817,-0.3 -1.403,-0.3 z m 27.053,0.1 1.56,0 0,6.4 2.75,0 0,1.3 -4.31,0 0,-7.7 z m 6.62,0 4.3,0 0,1.2 -2.75,0 0,1.8 2.59,0 0,1.3 -2.59,0 0,2.1 2.86,0 0,1.3 -4.41,0 0,-7.7 z m 6.8,0 4.31,0 0,1.2 -2.75,0 0,1.8 2.59,0 0,1.3 -2.59,0 0,2.1 2.86,0 0,1.3 -4.42,0 0,-7.7 z m 6.89,0 2.54,0 c 0.54,0 0.98,0.1 1.31,0.2 0.33,0.2 0.59,0.4 0.77,0.8 0.18,0.3 0.31,0.7 0.37,1.2 0.1,0.4 0.1,0.9 0.1,1.5 0,0.7 0,1.3 -0.13,1.8 -0.1,0.5 -0.22,0.9 -0.42,1.2 -0.2,0.3 -0.47,0.6 -0.81,0.7 -0.34,0.2 -0.77,0.3 -1.29,0.3 l -2.44,0 0,-7.7 z m -56.742,0 0,7.8 1.436,0 0,-5.4 0.02,0 1.916,5.4 1.785,0 0,0 0,-7.8 -1.438,0 0,5.4 -0.02,0 -1.895,-5.4 -1.807,0 z m 13.672,0 0,7.8 2.47,0 c 0.53,0 0.96,-0.1 1.3,-0.2 0.34,-0.2 0.61,-0.4 0.81,-0.8 0.21,-0.3 0.33,-0.7 0.43,-1.2 0.13,-0.5 0.13,-1.1 0.13,-1.8 0,-0.6 0,-1.1 -0.1,-1.5 -0.1,-0.5 -0.19,-0.9 -0.37,-1.2 -0.19,-0.4 -0.45,-0.6 -0.78,-0.8 -0.34,-0.2 -0.77,-0.3 -1.32,-0.3 l -2.57,0 z m 6.82,0 0,7.8 4.45,0 0,-1.3 -2.88,0 0,-2.1 2.61,0 0,-1.3 -2.61,0 0,-1.8 2.78,0 0,-1.3 -4.35,0 z m -11.113,1 c 0.231,0 0.419,0.1 0.559,0.2 0.141,0.1 0.246,0.3 0.326,0.5 0.07,0.2 0.124,0.5 0.154,0.9 0.03,0.4 0.04,0.8 0.04,1.3 0,0.5 -0.01,1 -0.04,1.4 -0.03,0.3 -0.07,0.6 -0.154,0.8 -0.08,0.3 -0.184,0.4 -0.326,0.5 -0.14,0.2 -0.328,0.2 -0.559,0.2 -0.235,0 -0.419,0 -0.56,-0.2 -0.143,-0.1 -0.248,-0.2 -0.328,-0.5 -0.07,-0.2 -0.133,-0.5 -0.153,-0.8 -0.03,-0.4 -0.04,-0.9 -0.04,-1.4 0,-0.5 0,-0.9 0.04,-1.3 0.02,-0.4 0.07,-0.7 0.153,-0.9 0.08,-0.2 0.185,-0.4 0.328,-0.5 0.141,-0.1 0.326,-0.2 0.56,-0.2 z m 48.903,0.1 0,5.4 0.69,0 0,0 c 0.27,0 0.49,0 0.66,-0.1 0.16,-0.1 0.29,-0.3 0.39,-0.5 0.1,-0.2 0.16,-0.5 0.19,-0.8 l 0,-1.4 0,-1.1 c 0,-0.3 -0.1,-0.6 -0.18,-0.8 -0.1,-0.3 -0.22,-0.4 -0.4,-0.5 -0.17,-0.1 -0.41,-0.2 -0.7,-0.2 l -0.66,0 z m -43.04,0.1 0.66,0 c 0.3,0 0.54,0 0.72,0.2 0.17,0.1 0.3,0.2 0.4,0.5 l 0,0 c 0.1,0.2 0.18,0.5 0.18,0.8 l 0,1.2 0,1.3 c 0,0.3 -0.1,0.6 -0.19,0.8 -0.1,0.3 -0.23,0.4 -0.4,0.5 -0.17,0.1 -0.39,0.2 -0.66,0.2 l -0.7,0 0,-5.5 z" id="path4452" style="fill:#ffffff;fill-opacity:1" />
  </g>
</svg>
