<?xml version="1.0" encoding="UTF-8" standalone="no"?>
<!-- Created with Inkscape (http://www.inkscape.org/) -->

<svg
   xmlns:dc="http://purl.org/dc/elements/1.1/"
   xmlns:cc="http://creativecommons.org/ns#"
   xmlns:rdf="http://www.w3.org/1999/02/22-rdf-syntax-ns#"
   xmlns:svg="http://www.w3.org/2000/svg"
   xmlns="http://www.w3.org/2000/svg"
   xmlns:sodipodi="http://sodipodi.sourceforge.net/DTD/sodipodi-0.dtd"
   xmlns:inkscape="http://www.inkscape.org/namespaces/inkscape"
   width="600"
   height="600"
   viewBox="0 0 600 600"
   id="svg2"
   version="1.1"
   inkscape:version="0.91 r13725"
   sodipodi:docname="odileeds-14-shirt.svg"
   inkscape:export-filename="C:\Users\Amy\Desktop\Assets\odileeds-14-short.png"
   inkscape:export-xdpi="89.711548"
   inkscape:export-ydpi="89.711548">
  <defs
     id="defs4" />
  <sodipodi:namedview
     id="base"
     pagecolor="#ffffff"
     bordercolor="#666666"
     borderopacity="1.0"
     inkscape:pageopacity="0.0"
     inkscape:pageshadow="2"
     inkscape:zoom="1.06"
     inkscape:cx="283.36935"
     inkscape:cy="300"
     inkscape:document-units="px"
     inkscape:current-layer="layer1"
     showgrid="false"
     inkscape:window-width="1280"
     inkscape:window-height="790"
     inkscape:window-x="-8"
     inkscape:window-y="-8"
     inkscape:window-maximized="1"
     units="px"
     showguides="false" />
  <metadata
     id="metadata7">
    <rdf:RDF>
      <cc:Work
         rdf:about="">
        <dc:format>image/svg+xml</dc:format>
        <dc:type
           rdf:resource="http://purl.org/dc/dcmitype/StillImage" />
        <dc:title />
      </cc:Work>
    </rdf:RDF>
  </metadata>
  <g
     inkscape:label="Layer 1"
     inkscape:groupmode="layer"
     id="layer1"
     transform="translate(0,-452.4)">
    <ellipse
       style="fill:#ffffff;fill-opacity:1"
       id="path4167"
       cx="148.18475"
       cy="741.42841"
       rx="98.572227"
       ry="98.888908" />
    <rect
       style="fill:#ffffff;fill-opacity:1"
       id="rect4169"
       width="266.90079"
       height="75.786644"
       x="267.08725"
       y="703.89532" />
    <rect
       style="fill:#ffffff;fill-opacity:0"
       id="rect3343"
       width="325.77353"
       height="311.99997"
       x="17.333334"
       y="595.06665" />
    <circle
       style="opacity:1;fill:#ffffff;fill-opacity:0.5;stroke:none;stroke-width:3;stroke-linecap:round;stroke-linejoin:round;stroke-miterlimit:4;stroke-dasharray:9, 9;stroke-dashoffset:0;stroke-opacity:1"
       id="path4139"
       cx="148.37253"
       cy="740.29248"
       r="98.793861" />
    <rect
       style="opacity:1;fill:#000000;fill-opacity:0.5;stroke:none;stroke-width:3;stroke-linecap:round;stroke-linejoin:round;stroke-miterlimit:4;stroke-dasharray:9, 9;stroke-dashoffset:0;stroke-opacity:1"
       id="rect4141"
       width="221.17024"
       height="62.869972"
       x="289.83002"
       y="709.48639" />
    <path
       inkscape:connector-curvature="0"
       style="clip-rule:evenodd;opacity:1;fill:#2254f4;fill-opacity:1;fill-rule:evenodd"
       d="m 278.19907,490.69875 c -13.2027,0.94306 -24.77079,3.52073 -38.0992,4.4009 5.78402,52.43355 14.08285,107.06755 21.25002,161.76442 -19.30105,-37.97346 -36.84178,-77.83301 -56.33147,-115.61787 -12.00816,4.84099 -22.82179,10.8765 -34.45273,16.09471 18.23229,38.35069 37.03039,76.1984 54.94832,114.9263 0.8802,0 0.62873,1.06879 0,0 -25.14796,-24.89651 -48.66134,-51.42763 -73.93508,-76.13553 -9.93343,7.92162 -17.99338,17.66647 -27.83881,25.58808 6.38761,7.16717 12.92607,14.14574 19.53998,21.1243 l 4.52664,0 c 53.6281,0 97.07125,43.69463 97.07125,97.44845 0,54.06813 -43.56889,97.44839 -97.07125,97.44839 -7.1043,0 -14.15202,-0.6286 -21.05514,-2.51469 -20.53335,10.05908 -40.922081,19.48958 -60.858146,30.17758 5.513695,11.3166 11.492629,22.00444 16.113571,34.57837 36.948695,-17.60348 75.293105,-37.09322 111.254695,-52.81077 -0.94304,3.77221 -11.88242,7.5444 -11.6938,11.94535 0,0 5.46968,5.02955 6.60134,6.28705 6.5385,6.91564 15.08879,16.34614 20.49563,20.74709 4.33802,-3.7722 8.23596,-8.17314 12.44824,-11.94535 -5.09246,10.05925 -10.75076,20.11834 -16.09471,30.1776 11.3166,6.28704 22.44459,12.57393 34.38988,18.23222 7.79586,-15.08878 15.96897,-30.17758 24.14206,-44.63761 0,-0.62877 0,-1.25735 0.75444,-1.25735 0,0 0,1.25735 -0.75444,1.25735 -5.28107,35.20712 -12.88833,68.5283 -18.29516,103.73544 13.07694,1.88611 25.14797,5.02953 38.09921,6.91563 4.14941,-23.89051 8.04735,-48.4098 13.13981,-71.04299 0.6287,7.54441 1.50888,10.68783 2.20046,18.23223 12.7626,-1.88611 25.65094,-3.14343 38.0992,-5.02953 -0.6287,-12.57396 -4.58951,-25.14805 -3.70934,-35.83589 15.0888,33.32102 31.62359,65.3847 46.90099,98.70589 12.44826,-5.02971 24.0792,-10.688 35.14432,-16.97489 -16.3462,-32.69242 -32.00082,-65.38487 -47.59256,-98.70589 -0.88019,0 -0.6287,-1.25735 0,0 29.2974,28.92023 56.70871,60.35517 86.38332,89.27539 9.74485,-8.17313 18.60951,-17.60363 27.78853,-26.40538 -28.41723,-28.92022 -58.46907,-60.35517 -84.93733,-89.2754 4.71526,1.8861 8.04737,5.02954 13.2027,6.28705 6.47561,-10.68801 12.51112,-22.0046 18.29516,-33.32117 -4.46377,-3.14346 -9.80772,-5.02956 -13.89426,-8.17302 13.57991,2.51472 27.15983,5.02956 40.99121,7.54441 1.8861,-13.2027 4.58951,-25.14804 6.60135,-38.35074 -13.2027,-2.51484 -28.22861,-3.14344 -39.54521,-8.17313 24.14207,-2.51471 47.96979,-5.65829 71.73463,-8.80175 l -204.39025,0 0,-57.21167 177.35617,0 c -5.28108,-10.6879 -9.87059,-21.50153 -15.40314,-31.62359 -16.72341,7.92161 -33.63544,15.65462 -49.79302,24.0792 -0.6287,-2.51479 2.64054,-5.02961 4.4009,-6.47561 33.38395,-32.69239 71.10593,-66.64217 104.6785,-99.64889 -7.41867,-10.81365 -17.6036,-18.92387 -26.34253,-28.4801 -37.15615,35.83588 -74.43803,71.48315 -112.03427,106.87894 0,0.88017 -1.06879,0.6287 0,0 20.36987,-38.97938 41.4313,-77.20432 62.24127,-115.68073 -10.37355,-7.16718 -22.82181,-12.32252 -33.69831,-18.98674 -18.23228,33.44682 -36.77892,66.64216 -54.13103,100.96917 1.06879,-14.20862 5.28107,-31.74934 8.04735,-46.83813 -11.88243,-3.01775 -25.08512,-4.71525 -37.34476,-7.29292 -6.47561,25.77669 -10.62502,53.8167 -15.40314,81.228 -9.05328,-59.78933 -16.84917,-120.1445 -24.14206,-178.61356 z M 43.216272,709.48623 c -3.803646,10.05919 0.716717,23.89064 -2.565094,34.57848 l 0,4.40095 c 5.16791,0.62861 5.532545,1.25734 10.694185,1.88609 -0.37722,-3.14358 -0.628719,-6.91578 -0.678995,-10.05924 0,-9.4305 1.477425,-18.86099 4.275138,-28.29148 -3.891651,-1.25739 -7.858732,-1.8861 -11.725234,-2.5148 z m 507.335478,12.574 c -11.81956,1.25739 -23.51336,2.51479 -35.14431,4.40089 l 0,38.97943 c 13.20269,-1.8861 23.13615,-4.40096 36.33884,-6.28706 l 0,-6.28703 c -2.01184,-10.0591 0,-20.11834 -1.19453,-30.80623 z M 73.198943,802.53377 c 0.980772,7.5444 1.936395,15.08879 2.948621,22.00446 6.312125,-0.62861 12.668283,-1.25736 19.037003,-2.51471 -8.26738,-5.02969 -15.679747,-11.94535 -21.985624,-19.48975 z"
       id="path4450"
       sodipodi:nodetypes="ccccccccccccccccccccccccccccccccccccccccccccccccccccccccccccccccccccccccccccccccc" />
    <path
       inkscape:connector-curvature="0"
       d="m 148.18395,630.08146 c -29.61802,0 -57.469433,11.56807 -78.417706,32.50378 -20.95455,20.93569 -32.491184,48.78709 -32.491184,78.33602 0,29.54883 11.536634,57.21158 32.491184,78.58741 20.948273,20.74708 48.799686,32.06368 78.417706,32.06368 29.61177,0 57.46317,-11.3166 78.46172,-32.06368 10.81366,-10.68785 19.04961,-23.89054 24.58218,-37.72199 l 0,68.52832 94.1792,0 c 16.28333,0 31.56073,-2.51486 45.39213,-8.17315 13.64277,-5.02955 25.58807,-12.57394 35.58439,-22.00443 11.12798,-10.68799 19.36395,-23.26194 24.64503,-37.72198 l 0,67.89956 103.86117,0 0,-218.53604 -103.86117,0 0,67.64807 c -5.28108,-14.39722 -13.51705,-27.28556 -24.64503,-37.91059 -9.93345,-9.55623 -21.94162,-16.97488 -35.58439,-22.06735 -13.8314,-5.15534 -29.1088,-7.733 -45.39213,-7.733 l -94.1792,0 0,68.33964 c -5.53257,-13.95713 -13.76852,-26.65686 -24.58218,-37.47049 -20.99855,-20.93571 -48.84995,-32.50378 -78.46172,-32.50378 z m 0,17.72934 c 51.49052,0 93.1733,41.74565 93.1733,93.11046 0,51.55329 -41.68278,93.04744 -93.1733,93.04744 -51.465353,0 -93.179555,-41.49415 -93.179555,-93.04744 0,-51.36481 41.714202,-93.11046 93.179555,-93.11046 z m -19.44567,67.96242 c -3.69676,0 -6.64535,0.62872 -8.82695,1.8861 -2.19414,1.2574 -3.86019,3.1435 -5.0233,5.0296 -1.16937,2.5148 -1.94267,5.02962 -2.25704,8.17309 -0.31433,3.14347 -0.50294,6.28706 -0.50294,10.05925 0,3.7722 0.12574,7.5444 0.50294,10.68784 0.31437,2.51485 1.09394,5.6583 2.25704,7.54439 1.16311,2.51485 2.81656,4.40096 5.0233,5.02957 2.17532,1.25749 5.12392,1.8861 8.82695,1.8861 3.68419,0 6.6202,-0.62861 8.82067,-1.8861 2.20045,-0.62861 3.89794,-2.51472 5.02959,-5.02957 1.19454,-1.88609 1.88611,-5.02954 2.26333,-7.54439 0,-3.14344 0.6287,-6.91564 0.6287,-10.68784 0,-3.77219 0,-6.91578 -0.6287,-10.05925 -0.62872,-3.14347 -1.06879,-5.65829 -2.26333,-8.17309 -1.13165,-1.8861 -2.82914,-3.7722 -5.02959,-5.0296 -2.20047,-1.25738 -5.13648,-1.8861 -8.82067,-1.8861 z m -58.965731,0.62872 0,49.03861 9.028108,0 0,-33.94979 0.12574,0 12.04588,33.94979 11.222293,0 0,0 0,-49.03861 -9.040703,0 0,33.94981 -0.12574,0 -11.913875,-33.94981 -11.360583,0 z m 85.955801,0 0,49.03861 15.52891,0 c 3.33208,0 6.03552,-0.62875 8.17309,-1.25749 2.13757,-1.25736 3.83505,-2.51472 5.09246,-5.02957 1.32027,-1.88609 2.07472,-4.40092 2.7034,-7.54439 0.81733,-3.14344 0.81733,-6.91564 0.81733,-11.31659 0,-3.77219 0,-6.91564 -0.62873,-9.4305 -0.62867,-3.14347 -1.1945,-5.65829 -2.32617,-7.54439 -1.19452,-2.5148 -2.82914,-3.7722 -4.90385,-5.02958 -2.13757,-1.25742 -4.84101,-1.8861 -8.29883,-1.8861 z m 42.87735,0 0,49.03861 27.97712,0 0,-8.17315 -18.10655,0 0,-13.20269 16.40907,0 0,-8.17313 -16.40907,0 0,-11.31656 17.47786,0 0,-8.17308 z m -69.86742,6.28698 c 1.45229,0 2.63426,0.6287 3.51445,1.25742 0.88647,0.62868 1.5466,1.8861 2.04953,3.14347 0.44011,1.2574 0.77961,3.1435 0.96822,5.65831 0.18862,2.51485 0.25149,5.02956 0.25149,8.17314 0,3.14345 -0.0629,6.28691 -0.25149,8.80174 -0.18861,1.8861 -0.44011,3.7722 -0.96822,5.02957 -0.50293,1.8861 -1.15678,2.51483 -2.04953,3.14359 -0.88019,1.25733 -2.06216,1.25733 -3.51445,1.25733 -1.47743,0 -2.63423,0 -3.5207,-1.25733 -0.89904,-0.62876 -1.55917,-1.25749 -2.06216,-3.14359 -0.44007,-1.25737 -0.83615,-3.14347 -0.96191,-5.02957 -0.18861,-2.51483 -0.25146,-5.65829 -0.25146,-8.80174 0,-3.14358 0,-5.65829 0.25146,-8.17314 0.12574,-2.51481 0.44011,-4.40091 0.96191,-5.65831 0.50299,-1.25737 1.16312,-2.51479 2.06216,-3.14347 0.88647,-0.62872 2.04954,-1.25742 3.5207,-1.25742 z m 36.86068,1.25742 4.14941,0 c 1.8861,0 3.39498,0 4.52664,1.25738 1.06877,0.62872 1.8861,1.2574 2.5148,3.14349 l 0,0 c 0.62868,1.25743 1.13167,3.14355 1.13167,5.02966 l 0,7.54439 0,8.17301 c 0,1.88609 -0.6287,3.77219 -1.19453,5.02968 -0.62873,1.8861 -1.44601,2.51472 -2.51482,3.14345 -1.06878,0.62876 -2.45193,1.25737 -4.14943,1.25737 l -4.40087,0 0,-34.57843 z"
       id="path4452"
       style="fill:#000000;fill-opacity:1"
       sodipodi:nodetypes="scscscccsccccccccccscccsssssssccsscccscccsscsscccccccccccccccccscccscccsccccccccccccccsccsscccscccscccscscccscscssccc" />
    <g
       style="font-style:normal;font-variant:normal;font-weight:bold;font-stretch:normal;font-size:40px;line-height:100%;font-family:'Helvetica Neue';-inkscape-font-specification:'Helvetica Neue Bold';text-align:start;letter-spacing:0px;word-spacing:0px;writing-mode:lr-tb;text-anchor:start;fill:#ffffff;fill-opacity:1;stroke:none;stroke-width:1px;stroke-linecap:butt;stroke-linejoin:miter;stroke-opacity:1"
       id="text4141"
       transform="matrix(3.3776926,0,0,3.3776926,-188.87216,-2660.487)">
      <path
         d="m 140.66,999.78 0,13.82 9.78,0 0,-2.5 -6.74,0 0,-11.32 -3.04,0 z"
         style="font-size:19.375px;line-height:100%;fill:#ffffff;fill-opacity:1"
         id="path4168"
         inkscape:connector-curvature="0" />
      <path
         d="m 152.12,999.78 0,13.82 10.5,0 0,-2.5 -7.46,0 0,-3.4 6.71,0 0,-2.4 -6.71,0 0,-3 7.31,0 0,-2.52 -10.35,0 z"
         style="font-size:19.375px;line-height:100%;fill:#ffffff;fill-opacity:1"
         id="path4170"
         inkscape:connector-curvature="0" />
      <path
         d="m 164.65,999.78 0,13.82 10.5,0 0,-2.5 -7.46,0 0,-3.4 6.7,0 0,-2.4 -6.7,0 0,-3 7.3,0 0,-2.52 -10.34,0 z"
         style="font-size:19.375px;line-height:100%;fill:#ffffff;fill-opacity:1"
         id="path4172"
         inkscape:connector-curvature="0" />
      <path
         d="m 180.22,1011.1 0,-8.8 2.17,0 q 1.12,0 1.88,0.4 0.77,0.3 1.24,0.9 0.46,0.6 0.65,1.4 0.22,0.9 0.22,1.9 0,1.2 -0.29,1.9 -0.29,0.8 -0.78,1.3 -0.48,0.5 -1.1,0.7 -0.62,0.3 -1.28,0.3 l -2.71,0 z m -3.05,-11.32 0,13.82 5.97,0 q 1.59,0 2.75,-0.5 1.18,-0.6 1.96,-1.5 0.79,-0.9 1.18,-2.2 0.39,-1.3 0.39,-2.8 0,-1.7 -0.49,-3 -0.46,-1.3 -1.31,-2.1 -0.84,-0.9 -2,-1.3 -1.14,-0.42 -2.48,-0.42 l -5.97,0 z"
         style="font-size:19.375px;line-height:100%;fill:#ffffff;fill-opacity:1"
         id="path4174"
         inkscape:connector-curvature="0" />
      <path
         d="m 193.55,1009 -2.94,0 q 0,1.3 0.46,2.2 0.49,1 1.3,1.6 0.83,0.6 1.9,0.8 1.08,0.3 2.23,0.3 1.41,0 2.48,-0.3 1.08,-0.3 1.8,-0.9 0.73,-0.6 1.1,-1.4 0.37,-0.8 0.37,-1.8 0,-1.2 -0.5,-1.9 -0.49,-0.8 -1.17,-1.2 -0.67,-0.4 -1.37,-0.6 -0.68,-0.2 -1.07,-0.3 -1.29,-0.4 -2.11,-0.6 -0.79,-0.2 -1.26,-0.4 -0.44,-0.2 -0.6,-0.5 -0.15,-0.2 -0.15,-0.6 0,-0.5 0.19,-0.8 0.19,-0.2 0.48,-0.4 0.31,-0.2 0.68,-0.3 0.37,-0.1 0.74,-0.1 0.56,0 1.03,0.1 0.48,0.1 0.85,0.3 0.37,0.3 0.58,0.7 0.23,0.4 0.27,1 l 2.95,0 q 0,-1.2 -0.47,-2 -0.44,-0.9 -1.22,-1.4 -0.77,-0.57 -1.78,-0.8 -0.99,-0.25 -2.08,-0.25 -0.93,0 -1.86,0.25 -0.93,0.25 -1.66,0.8 -0.74,0.5 -1.2,1.3 -0.45,0.8 -0.45,1.8 0,1 0.35,1.7 0.37,0.6 0.95,1.1 0.58,0.4 1.32,0.7 0.73,0.3 1.51,0.5 0.75,0.2 1.49,0.4 0.74,0.1 1.32,0.4 0.58,0.2 0.93,0.5 0.37,0.4 0.37,1 0,0.5 -0.28,0.8 -0.27,0.4 -0.67,0.5 -0.41,0.2 -0.88,0.3 -0.46,0.1 -0.87,0.1 -0.6,0 -1.16,-0.2 -0.56,-0.1 -0.99,-0.4 -0.4,-0.3 -0.66,-0.8 -0.25,-0.5 -0.25,-1.2 z"
         style="font-size:19.375px;line-height:100%;fill:#ffffff;fill-opacity:1"
         id="path4176"
         inkscape:connector-curvature="0" />
    </g>
  </g>
</svg>
