<?xml version="1.0" encoding="UTF-8"?>
<svg version="1.1" viewBox="0 0 250 91" xmlns="http://www.w3.org/2000/svg" xmlns:cc="http://creativecommons.org/ns#" xmlns:dc="http://purl.org/dc/elements/1.1/" xmlns:rdf="http://www.w3.org/1999/02/22-rdf-syntax-ns#">
<metadata>
<rdf:RDF>
<cc:Work rdf:about="">
<dc:format>image/svg+xml</dc:format>
<dc:type rdf:resource="http://purl.org/dc/dcmitype/StillImage"/>
<dc:title/>
</cc:Work>
</rdf:RDF>
</metadata>
<g transform="translate(0,-961.4)">
<circle cx="71.594" cy="996.69" r="0" fill="#666"/>
<circle cx="38.023" cy="1055.8" r="0" fill="#414141"/>
<path d="m78.352 971.89c-9.342 0-18.127 3.8-24.734 10.3-6.609 6.6-10.248 15.5-10.248 24.81 0 9.3 3.639 18 10.248 24.8 6.607 6.5 15.392 10.1 24.734 10.1 9.34 0 18.125-3.6 24.748-10.1 3.41-3.4 6.01-7.5 7.75-11.9v21.6h29.7c5.14 0 9.96-0.8 14.32-2.6 4.3-1.6 8.07-3.9 11.23-6.9 3.5-3.4 6.1-7.4 7.77-11.9v21.4h32.76v-69.01h-32.76v21.4c-1.67-4.5-4.27-8.7-7.77-12.1-3.14-3-6.93-5.3-11.23-6.9-4.36-1.6-9.18-2.4-14.32-2.4h-29.7v21.6c-1.74-4.6-4.34-8.5-7.75-11.9-6.624-6.5-15.409-10.3-24.749-10.3zm0 5.8c16.241 0 29.388 13 29.388 29.31 0 16.3-13.147 29.3-29.388 29.3-16.234 0-29.39-13-29.39-29.3 0-16.31 13.156-29.31 29.39-29.31zm-6.133 21.4c-1.166 0-2.096 0.2-2.784 0.6-0.692 0.41-1.218 1.01-1.585 1.51-0.369 0.8-0.613 1.6-0.712 2.6-0.101 1-0.158 2-0.158 3.2s0.04 2.4 0.158 3.4c0.1 0.8 0.345 1.8 0.712 2.3 0.366 0.8 0.889 1.4 1.585 1.6 0.686 0.4 1.616 0.6 2.784 0.6 1.162 0 2.088-0.2 2.782-0.6 0.694-0.2 1.229-0.8 1.586-1.6 0.376-0.5 0.595-1.5 0.714-2.3 0-1 0.197-2.2 0.197-3.4s0-2.2-0.197-3.2c-0.198-1-0.338-1.8-0.714-2.6-0.357-0.5-0.892-1.1-1.586-1.51-0.694-0.4-1.62-0.6-2.782-0.6zm-18.599 0.2v15.41h2.848v-10.7h0.04l3.799 10.7h3.54v-15.41h-2.851v10.71h-0.04l-3.758-10.71h-3.583zm27.111 0v15.41h4.898c1.051 0 1.904-0.2 2.578-0.4 0.675-0.4 1.21-0.8 1.606-1.6 0.416-0.5 0.654-1.3 0.853-2.3 0.257-1 0.257-2.2 0.257-3.6 0-1.2 0-2.2-0.198-3-0.197-1-0.376-1.8-0.733-2.4-0.377-0.7-0.892-1.1-1.547-1.51-0.674-0.4-1.527-0.6-2.617-0.6zm13.525 0v15.41h8.824v-2.5h-5.712v-4.2h5.172v-2.6h-5.172v-3.6h5.512v-2.51zm-22.037 1.91c0.458 0 0.831 0.2 1.108 0.4 0.28 0.2 0.488 0.6 0.647 1 0.138 0.4 0.246 1 0.305 1.8 0.06 0.8 0.08 1.6 0.08 2.6s-0.02 2-0.08 2.8c-0.06 0.6-0.139 1.2-0.305 1.6-0.159 0.6-0.365 0.8-0.647 1-0.277 0.3-0.65 0.3-1.108 0.3-0.466 0-0.831 0-1.111-0.3-0.283-0.2-0.492-0.4-0.65-1-0.139-0.4-0.264-1-0.304-1.6-0.06-0.8-0.08-1.8-0.08-2.8s0-1.8 0.08-2.6c0.04-0.8 0.139-1.4 0.304-1.8 0.158-0.4 0.367-0.8 0.65-1 0.28-0.2 0.647-0.4 1.111-0.4zm11.626 0.4h1.309c0.595 0 1.071 0 1.428 0.4 0.337 0.2 0.595 0.4 0.793 1 0.198 0.4 0.357 1 0.357 1.6v2.4 2.6c0 0.6-0.199 1.2-0.377 1.6-0.198 0.6-0.456 0.8-0.793 1s-0.774 0.4-1.309 0.4h-1.388v-11z" fill="#fff"/>
</g>
</svg>
