<?xml version="1.0" encoding="UTF-8" standalone="no"?>
<!-- Created with Inkscape (http://www.inkscape.org/) -->

<svg
   xmlns:dc="http://purl.org/dc/elements/1.1/"
   xmlns:cc="http://creativecommons.org/ns#"
   xmlns:rdf="http://www.w3.org/1999/02/22-rdf-syntax-ns#"
   xmlns:svg="http://www.w3.org/2000/svg"
   xmlns="http://www.w3.org/2000/svg"
   xmlns:sodipodi="http://sodipodi.sourceforge.net/DTD/sodipodi-0.dtd"
   xmlns:inkscape="http://www.inkscape.org/namespaces/inkscape"
   width="250"
   height="91"
   viewBox="0 0 250 91"
   id="svg2"
   version="1.1"
   inkscape:version="0.92.2 (5c3e80d, 2017-08-06)"
   sodipodi:docname="odmanchester.svg"
   inkscape:export-filename="C:\Users\Amy\Desktop\Assets\arup.png"
   inkscape:export-xdpi="90"
   inkscape:export-ydpi="90">
  <defs
     id="defs4" />
  <sodipodi:namedview
     id="base"
     pagecolor="#ffffff"
     bordercolor="#666666"
     borderopacity="1.0"
     inkscape:pageopacity="0.0"
     inkscape:pageshadow="2"
     inkscape:zoom="1.3995495"
     inkscape:cx="229.63646"
     inkscape:cy="-31.635354"
     inkscape:document-units="px"
     inkscape:current-layer="layer1"
     showgrid="false"
     inkscape:window-width="1920"
     inkscape:window-height="1001"
     inkscape:window-x="-9"
     inkscape:window-y="-9"
     inkscape:window-maximized="1"
     units="px" />
  <metadata
     id="metadata7">
    <rdf:RDF>
      <cc:Work
         rdf:about="">
        <dc:format>image/svg+xml</dc:format>
        <dc:type
           rdf:resource="http://purl.org/dc/dcmitype/StillImage" />
        <dc:title></dc:title>
      </cc:Work>
    </rdf:RDF>
  </metadata>
  <g
     inkscape:label="Layer 1"
     inkscape:groupmode="layer"
     id="layer1"
     transform="translate(0,-961.4)">
    <rect
       style="opacity:0.001;fill:none;fill-opacity:1;stroke:none;stroke-width:2.5;stroke-linecap:round;stroke-linejoin:round;stroke-miterlimit:4;stroke-dasharray:none;stroke-dashoffset:0;stroke-opacity:1"
       id="rect4175"
       width="250"
       height="91"
       x="0"
       y="961.4" />
    <path
       inkscape:connector-curvature="0"
       id="path1099"
       d="m 104.84963,1035.731 c -0.21493,-0.4464 -1.8375,-4.0464 -3.60572,-8.0002 -1.955431,-4.3722 -3.297137,-7.1884 -3.424775,-7.1884 -0.198668,0 -0.701525,2.4421 -2.697669,13.1016 l -0.427006,2.2802 h -1.218144 c -1.064411,0 -1.218149,-0.035 -1.218149,-0.2749 0,-0.3933 4.470794,-23.5713 4.564761,-23.6652 0.04291,-0.042 0.134476,-0.013 0.203374,0.066 0.06885,0.079 1.92227,4.3008 4.118598,9.381 2.19633,5.0803 4.07547,9.2367 4.17588,9.2367 0.22307,0 -0.18978,0.9061 4.4383,-9.7391 2.12551,-4.8889 3.92308,-8.9512 3.9946,-9.0273 0.16692,-0.1775 -0.0365,-1.1608 2.47443,11.9645 1.1955,6.2493 2.21269,11.522 2.26044,11.7167 0.0858,0.3507 0.073,0.3539 -1.19877,0.3094 l -1.28559,-0.045 -1.4464,-7.5749 c -0.79552,-4.1662 -1.51515,-7.6439 -1.59919,-7.7282 -0.10092,-0.1013 -0.20137,-0.075 -0.29593,0.077 -0.0787,0.1267 -1.72804,3.7608 -3.6651,8.0756 -1.93706,4.3148 -3.57484,7.8452 -3.63954,7.8455 -0.0647,10e-5 -0.29348,-0.3649 -0.5084,-0.8112 z m 20.87737,0.4427 c -3.11245,-0.757 -5.24419,-3.7869 -5.23296,-7.438 0.0123,-3.9661 2.3205,-6.9462 5.83088,-7.528 1.88441,-0.3123 3.73475,0.2418 5.28361,1.5824 0.84589,0.7321 0.99163,0.6567 0.99538,-0.5153 l 0.003,-0.7411 1.12077,0.045 1.12079,0.045 v 7.1112 7.1111 l -1.12079,0.045 -1.12077,0.045 -0.003,-0.6638 c -0.004,-1.1086 -0.16842,-1.1842 -1.02545,-0.4711 -1.69873,1.4135 -3.72438,1.888 -5.85146,1.3708 z m 4.15739,-2.4762 c 1.00179,-0.4901 1.69173,-1.2297 2.24248,-2.404 0.36013,-0.7678 0.40208,-1.0428 0.40191,-2.6351 -1.6e-4,-1.5456 -0.0468,-1.8713 -0.3566,-2.4945 -0.54838,-1.1028 -1.34178,-1.9269 -2.31386,-2.4036 -0.75264,-0.369 -1.06979,-0.4326 -2.12164,-0.4257 -1.56153,0.01 -2.40256,0.3888 -3.47737,1.5648 -1.46992,1.6083 -1.8142,4.2134 -0.84287,6.3778 0.52831,1.1772 1.7765,2.3758 2.82376,2.7117 1.06887,0.3426 2.59818,0.2203 3.64419,-0.2914 z m 29.23415,2.5401 c -1.73673,-0.3848 -3.08748,-1.1474 -4.1745,-2.3564 -1.47971,-1.6457 -2.18118,-4.1079 -1.80734,-6.3435 0.68145,-4.0751 4.53311,-6.9125 8.58892,-6.327 1.20229,0.1736 2.69237,0.7365 3.22452,1.2179 0.22058,0.1997 0.27472,0.4978 0.27472,1.513 0,0.6954 -0.044,1.3084 -0.098,1.3624 -0.0539,0.054 -0.41912,-0.1878 -0.81159,-0.537 -1.15392,-1.0267 -2.18951,-1.4333 -3.65085,-1.4333 -1.00372,0 -1.39691,0.074 -2.08697,0.3968 -1.07393,0.5011 -2.03222,1.4591 -2.58454,2.5838 -0.38748,0.789 -0.42992,1.0359 -0.42947,2.4987 4.7e-4,1.4875 0.0384,1.6981 0.45328,2.5183 0.53206,1.0519 1.5248,2.0205 2.52412,2.4625 1.93838,0.8575 4.49261,0.3221 5.97863,-1.253 0.24972,-0.2648 0.51058,-0.4814 0.57971,-0.4814 0.0691,0 0.12566,0.6552 0.12566,1.456 v 1.456 l -0.52543,0.3248 c -1.3496,0.834 -4.02713,1.2857 -5.58089,0.9414 z m 28.83112,-0.1196 c -3.13608,-0.8524 -5.09784,-3.6345 -5.09652,-7.2277 0.002,-5.0208 3.55665,-8.399 8.07239,-7.6716 3.37003,0.5429 5.59543,3.2242 5.72562,6.8987 l 0.0328,0.9275 -5.64254,0.082 c -3.10341,0.045 -5.66969,0.097 -5.70283,0.116 -0.0331,0.019 -0.0217,0.4075 0.0255,0.8643 0.21893,2.1214 2.00039,3.844 4.21114,4.0722 1.67577,0.1729 3.21365,-0.5438 4.37647,-2.0395 l 0.66866,-0.8602 0.76397,0.4159 c 1.12487,0.6122 1.17869,0.7221 0.70476,1.4382 -1.30636,1.974 -3.27471,3.0518 -5.82058,3.1872 -0.95604,0.051 -1.58775,-0.01 -2.31885,-0.2031 z m 6.12994,-9.0886 c 0.0502,-0.1307 -0.0234,-0.5377 -0.16334,-0.9042 -0.75213,-1.9695 -3.03353,-3.2188 -4.99357,-2.7344 -1.77324,0.4381 -3.78944,2.6051 -3.3907,3.6441 0.1358,0.3539 8.41175,0.3486 8.54761,-0.01 z m 7.89411,9.1898 c -1.48714,-0.3501 -2.9907,-1.6295 -3.50501,-2.9823 -0.15532,-0.4085 -0.13301,-0.4342 0.69368,-0.7997 0.46979,-0.2078 0.9448,-0.3778 1.0556,-0.3778 0.11079,0 0.42322,0.3423 0.69432,0.7606 1.29745,2.0024 4.2519,1.7952 4.82639,-0.3382 0.35347,-1.3127 -0.48104,-2.314 -2.71725,-3.2607 -1.77038,-0.7494 -2.72357,-1.3878 -3.2233,-2.1584 -1.09262,-1.6851 -0.44224,-4.2303 1.34921,-5.2801 2.01942,-1.1835 4.37799,-0.6848 5.74352,1.2144 l 0.431,0.5994 -0.37203,0.2822 c -0.20461,0.1552 -0.62562,0.3971 -0.93556,0.5376 l -0.56355,0.2552 -0.6259,-0.6258 c -0.78432,-0.7844 -1.47198,-0.9469 -2.2983,-0.5433 -0.37219,0.1818 -0.68785,0.494 -0.86402,0.8543 -0.25119,0.514 -0.25603,0.6194 -0.0508,1.1106 0.26346,0.6306 1.00027,1.1596 2.41572,1.7348 2.42356,0.9847 3.26285,1.594 3.8077,2.7641 0.63424,1.3621 0.46547,2.9968 -0.44987,4.3573 -1.0904,1.6206 -3.29717,2.3937 -5.41153,1.8958 z m 19.98585,0 c -1.08798,-0.2124 -2.56144,-1.0166 -3.37272,-1.8408 -1.3561,-1.3778 -2.03303,-3.1866 -2.03612,-5.4408 -0.004,-2.4601 0.64589,-4.3116 2.0221,-5.7667 2.41546,-2.554 6.79328,-2.7404 9.43449,-0.4016 1.35595,1.2007 2.30013,3.411 2.30013,5.3843 v 0.9696 h -5.54633 c -4.63965,0 -5.57653,0.037 -5.73113,0.2227 -0.14434,0.1739 -0.13171,0.43 0.0576,1.1693 0.71262,2.7816 3.35786,4.283 6.1073,3.4665 0.62274,-0.1848 1.02624,-0.4525 1.68991,-1.1207 0.4795,-0.4828 0.99689,-1.039 1.14974,-1.2361 l 0.27791,-0.3582 0.72693,0.4165 c 1.20379,0.6898 1.21522,0.7147 0.68427,1.4864 -1.69075,2.4573 -4.71475,3.6452 -7.76415,3.0496 z m 5.8196,-9.1858 c 0.22479,-0.5858 -0.86391,-2.3082 -1.88752,-2.9862 -1.48653,-0.9846 -3.23273,-0.9924 -4.764,-0.021 -1.12132,0.7112 -2.2889,2.5735 -1.91158,3.049 0.11584,0.1461 1.17012,0.1933 4.31318,0.1933 3.57692,0 4.17249,-0.033 4.24992,-0.2347 z m -88.91848,8.6986 c -0.0407,-0.1063 -0.056,-3.3238 -0.0339,-7.1499 l 0.0403,-6.9565 1.12077,-0.045 1.12078,-0.045 0.003,0.5865 c 0.005,1.0497 0.20748,1.1346 0.95783,0.4 1.01901,-0.9975 1.94414,-1.3501 3.53587,-1.3477 1.15828,0 1.44319,0.06 2.24154,0.4588 1.06211,0.5307 1.77891,1.3831 2.17736,2.5895 0.22588,0.6838 0.27451,1.6233 0.32374,6.2541 l 0.0579,5.4493 h -1.17003 -1.17002 v -4.7074 c 0,-4.9437 -0.0952,-5.9054 -0.66915,-6.757 -0.55112,-0.8179 -1.25378,-1.1355 -2.49996,-1.1302 -1.33374,0.01 -2.21065,0.4173 -2.80646,1.3177 -0.73546,1.1114 -0.84232,1.8814 -0.93747,6.7551 l -0.0883,4.5218 h -1.06462 c -0.70911,0 -1.08936,-0.065 -1.13873,-0.1934 z m 29.61059,-12.4832 v -12.6765 h 1.15942 1.15942 v 6.1112 c 0,6.7588 -0.0138,6.6742 0.94207,5.7754 0.28959,-0.2723 0.90916,-0.6744 1.3768,-0.8934 0.71203,-0.3336 1.06783,-0.3977 2.1888,-0.3941 1.17502,0.01 1.44888,0.06 2.24156,0.4646 0.65584,0.3343 1.04013,0.6646 1.40398,1.2065 0.97016,1.4448 1.01714,1.7787 1.08513,7.7106 l 0.0616,5.372 h -1.15902 -1.159 l -0.0512,-5.14 c -0.0512,-5.1256 -0.0524,-5.1424 -0.43778,-5.9129 -0.65896,-1.3176 -1.98042,-1.8617 -3.60858,-1.4859 -1.55419,0.3587 -2.41263,1.5112 -2.72239,3.6548 -0.0856,0.5924 -0.15708,2.8338 -0.15877,4.9807 l -0.003,3.9033 h -1.15943 -1.15942 z m 42.81918,6.7632 c -0.002,-3.2522 -0.0543,-5.9947 -0.11795,-6.0947 -0.0636,-0.1 -0.39294,-0.2043 -0.73194,-0.2319 l -0.61635,-0.05 -0.0457,-1.0435 -0.0457,-1.0434 h 0.59451 c 0.32697,0 0.67799,-0.083 0.78001,-0.1855 0.12868,-0.1288 0.18551,-0.936 0.18551,-2.6348 v -2.4494 l 1.12079,0.045 1.12078,0.045 0.0773,2.5508 0.0772,2.5507 1.23673,0.077 1.23672,0.077 0.0456,0.8642 c 0.0307,0.5805 -0.0222,0.9205 -0.16103,1.0357 -0.11365,0.094 -0.69071,0.1924 -1.28235,0.218 l -1.07567,0.046 -0.0404,6.0677 -0.0404,6.0676 h -1.15763 -1.15764 l -0.003,-5.9131 z m 21.79962,-1.2752 v -7.202 l 1.12079,0.045 1.12077,0.045 0.048,0.5797 c 0.0538,0.6505 0.37571,0.7787 0.65322,0.2602 0.25512,-0.4767 1.48992,-1.1999 2.24114,-1.3125 0.67658,-0.1015 2.2859,0.2548 2.46578,0.5458 0.0991,0.1603 -0.78514,2.0138 -0.96072,2.0138 -0.0597,0 -0.40352,-0.1126 -0.76405,-0.2503 -1.4437,-0.5514 -2.67903,0.2515 -3.34456,2.1737 -0.0934,0.2697 -0.20131,2.564 -0.25125,5.3423 l -0.0875,4.8696 -1.12077,0.045 -1.12079,0.045 z m -198.64873,6.8011 C 22.095614,1033.85 12.177461,1024.49 9.6978323,1012.1871 c -0.4248465,-2.1079 -0.5834381,-6.8174 -0.3090587,-9.1776 1.1358404,-9.77013 7.4056314,-18.48014 16.4203144,-22.81115 7.216895,-3.46726 15.795095,-3.77784 23.32252,-0.84432 9.290569,3.62071 15.910448,11.53592 18.028607,21.55647 0.389061,1.8404 0.425482,2.3023 0.432797,5.4879 0.0081,3.5447 -0.08757,4.4954 -0.708132,7.0339 -0.521128,2.1317 -1.064898,3.6418 -2.072661,5.7556 -4.249942,8.9148 -12.689785,15.0553 -22.486766,16.3605 -1.990464,0.2651 -5.906435,0.2599 -7.884113,-0.011 z m 3.772622,-1.7383 c 0.0493,-0.3189 0.301155,-3.7102 0.559695,-7.5363 0.733187,-10.8503 0.910948,-13.2562 0.984919,-13.3301 0.110562,-0.1106 0.292477,0.2217 5.266467,9.6198 2.609941,4.9316 4.877096,9.1018 5.038118,9.2672 0.288381,0.2962 0.290566,0.2927 0.145474,-0.2319 -0.08102,-0.2931 -1.887953,-4.8747 -4.015413,-10.1816 -2.127465,-5.3068 -3.834932,-9.6819 -3.79438,-9.7226 0.04052,-0.041 0.16237,-0.01 0.270707,0.082 0.527217,0.4165 16.060066,11.794 16.688707,12.2243 0.946451,0.6477 1.085127,0.6265 0.427596,-0.066 -0.462962,-0.4872 -13.909017,-12.8716 -15.203429,-14.0032 l -0.479178,-0.4188 0.400554,-0.01 c 0.220309,-0.01 4.872179,0.8323 10.33749,1.8573 5.465315,1.025 10.119882,1.8383 10.343482,1.8076 l 0.406545,-0.056 -0.460153,-0.194 c -0.253088,-0.1065 -4.879208,-1.5219 -10.280268,-3.1452 -5.401056,-1.6233 -9.849093,-2.9756 -9.88452,-3.0051 -0.03542,-0.029 -0.02273,-0.095 0.02817,-0.1461 0.05093,-0.051 4.566907,-1.2973 10.035499,-2.7697 10.020078,-2.6979 10.793132,-2.9204 10.793132,-3.1069 0,-0.1564 -0.95985,-0.02 -11.552714,1.6438 -5.407101,0.8492 -9.867804,1.5072 -9.912673,1.4623 -0.04488,-0.044 0.01863,-0.1715 0.141108,-0.2815 0.433299,-0.3895 2.617121,-2.2746 9.188927,-7.93254 6.691105,-5.76065 7.218167,-6.23714 6.899628,-6.23714 -0.199327,0 -1.47805,0.86564 -10.841683,7.33847 -3.783602,2.61549 -6.978308,4.79421 -7.09935,4.84171 -0.273666,0.1072 -0.780155,1.3273 4.150981,-9.99939 2.309558,-5.30511 4.178633,-9.75212 4.153496,-9.88256 -0.06813,-0.3534 -0.36241,0.13855 -5.832048,9.75014 -2.745839,4.82522 -5.054185,8.77291 -5.129653,8.77291 -0.07546,0 -0.136789,-0.1217 -0.136269,-0.27049 0.0043,-1.29609 -0.799665,-20.76713 -0.869951,-21.0629 -0.08985,-0.37802 -0.0946,-0.37925 -0.218727,-0.0547 -0.06978,0.18222 -0.451806,5.05177 -0.848935,10.82129 -0.397128,5.76942 -0.749933,10.5189 -0.784005,10.5543 -0.03407,0.036 -0.09827,0.028 -0.142665,-0.016 -0.04438,-0.044 -2.310142,-4.28217 -5.034998,-9.41712 -2.724857,-5.13505 -5.062406,-9.44088 -5.194554,-9.56839 -0.215967,-0.20835 -0.229337,-0.18543 -0.132153,0.22787 0.05947,0.25295 1.847417,4.79334 3.973222,10.08977 2.125804,5.29652 3.839834,9.70587 3.808955,9.79857 -0.03088,0.092 -2.731934,-1.79772 -6.002349,-4.20062 -11.95048,-8.78141 -11.743351,-8.6339 -11.743351,-8.36519 0,0.0915 3.582635,3.44669 7.961408,7.45608 4.378775,4.00923 7.961409,7.35853 7.961409,7.44313 0,0.084 -0.156522,0.1149 -0.34783,0.068 -1.525345,-0.3751 -20.375482,-3.81402 -20.676156,-3.77196 -0.386649,0.0538 -0.38662,0.0538 0.07698,0.25166 0.255076,0.1086 4.903212,1.5328 10.329192,3.1647 5.425984,1.6319 9.848498,3.0347 9.827815,3.1172 -0.02069,0.083 -4.632136,1.3866 -10.247673,2.8978 -5.615541,1.511 -10.278059,2.8154 -10.361154,2.8985 -0.293095,0.2932 0.848183,0.1422 11.054469,-1.4615 5.644489,-0.8868 10.294328,-1.5807 10.332979,-1.5422 0.09277,0.092 0.678952,-0.4233 -8.181911,7.2049 -4.293754,3.6964 -7.902292,6.8366 -8.018987,6.9779 -0.162548,0.1969 -0.166722,0.257 -0.01784,0.257 0.182508,0 2.447148,-1.5394 13.370209,-9.0885 2.465718,-1.7041 4.501837,-3.0172 4.524715,-2.918 0.02286,0.099 -1.776127,4.3543 -3.997783,9.4558 -2.221658,5.1015 -4.134863,9.5418 -4.251562,9.8672 -0.577022,1.6091 0.552647,-0.2095 5.22495,-8.4114 2.781019,-4.8818 5.171395,-9.0737 5.311948,-9.3152 0.140547,-0.2414 0.307872,-0.3807 0.371823,-0.3092 0.06396,0.071 0.266322,4.1996 0.449713,9.1734 0.384159,10.4193 0.478772,12.2128 0.644291,12.2128 0.06596,0 0.160238,-0.261 0.209531,-0.5798 z m 38.005048,-27.282 0.03903,-29.25956 h 3.014516 3.01451 v 29.21776 29.2175 l -3.053561,0.042 -3.053561,0.042 z m 43.96173,2.4253 c -0.053,-0.1381 -0.0963,-5.1705 -0.0963,-11.18332 0,-8.29682 0.0447,-10.9771 0.18551,-11.11792 0.10203,-0.10205 0.57508,-0.18552 1.05122,-0.18552 0.47613,0 0.94918,0.083 1.05121,0.18552 0.10203,0.10205 0.1855,0.5194 0.1855,0.9276 0,0.40811 0.0357,0.74199 0.0794,0.74199 0.0437,0 0.44455,-0.29728 0.89076,-0.66078 0.4462,-0.3634 1.19305,-0.833 1.65965,-1.04342 0.73919,-0.3335 1.06729,-0.38236 2.54888,-0.37981 1.43448,0.009 1.82032,0.0575 2.4664,0.35302 1.88056,0.85989 3.17478,2.3183 3.92297,4.42061 0.32846,0.92288 0.39043,1.36891 0.38876,2.79836 -0.003,2.61804 -0.67861,4.28159 -2.37773,5.85469 -1.33949,1.24018 -2.24747,1.55688 -4.47768,1.56188 -1.60239,0.01 -1.86351,-0.037 -2.6466,-0.4036 -0.47784,-0.224 -1.14714,-0.6588 -1.48734,-0.96616 -0.34021,-0.30738 -0.69609,-0.55882 -0.79087,-0.55882 -0.12225,0 -0.1842,1.42678 -0.21316,4.90828 l -0.0408,4.9082 -1.10178,0.044 c -0.90132,0.037 -1.11932,0 -1.19808,-0.2057 z m 8.8656,-10.0786 c 0.98009,-0.35048 2.04253,-1.40531 2.57373,-2.5554 0.40507,-0.87705 0.44514,-1.1169 0.44514,-2.66425 0,-1.54952 -0.0385,-1.77881 -0.43286,-2.582 -0.52805,-1.07549 -1.70154,-2.16937 -2.68739,-2.50533 -0.92155,-0.31388 -2.41912,-0.3152 -3.33644,-0.009 -1.04125,0.35472 -2.02383,1.29468 -2.61981,2.50589 -0.47719,0.96986 -0.50803,1.13161 -0.50674,2.65859 0.002,1.42446 0.051,1.73202 0.4021,2.48325 1.19295,2.55201 3.58252,3.58421 6.16227,2.6617 z m -26.99497,2.2718 c -4.484635,-0.8875 -8.088588,-4.25621 -9.351803,-8.74124 -0.4447,-1.57894 -0.475516,-4.24998 -0.06762,-5.86138 0.844593,-3.33653 3.125297,-6.24128 6.119028,-7.79326 1.835365,-0.95146 3.058435,-1.27242 5.178785,-1.35891 3.75633,-0.15317 6.40588,0.88742 9.13297,3.58685 1.19086,1.17886 1.51598,1.61564 2.12883,2.85995 1.08228,2.19748 1.39325,3.63675 1.30133,6.02342 -0.0603,1.56527 -0.15518,2.17597 -0.49335,3.17478 -1.07524,3.17601 -3.09564,5.50572 -6.04076,6.96564 -1.9503,0.96675 -3.4255,1.30905 -5.55133,1.28805 -0.94293,-0.01 -2.00316,-0.074 -2.35607,-0.1439 z m 5.34602,-2.56201 c 1.6303,-0.54722 2.7274,-1.26054 4.00013,-2.6003 1.20079,-1.26412 2.18466,-3.0583 2.48939,-4.53963 0.21766,-1.05823 0.2159,-3.19119 -0.004,-4.23603 -0.24924,-1.18697 -1.08876,-2.92079 -1.93708,-4.00052 -2.42767,-3.09009 -6.77322,-4.3909 -10.51175,-3.14658 -2.338595,0.7783 -4.497976,2.66443 -5.590668,4.88323 -1.920217,3.89922 -1.21979,8.20316 1.831519,11.25457 2.655599,2.65557 6.272899,3.54309 9.721979,2.38526 z m 34.29292,2.43201 c -2.97917,-0.984 -4.7555,-3.63935 -4.7555,-7.10878 0,-4.65347 2.77966,-7.75025 6.95657,-7.75025 2.92743,0 5.18248,1.4901 6.2571,4.13473 0.37436,0.92138 0.78535,3.30258 0.63681,3.68966 -0.068,0.17722 -1.05617,0.21419 -5.7131,0.21419 -4.80066,0 -5.64366,0.033 -5.71769,0.22636 -0.12166,0.31699 0.31211,1.8966 0.68775,2.50428 0.48759,0.78896 1.63317,1.71052 2.4731,1.98951 0.42001,0.1395 1.2261,0.25003 1.79127,0.24579 1.63229,-0.0132 2.74725,-0.68191 4.02327,-2.41516 l 0.34142,-0.46375 0.89508,0.4878 c 0.4923,0.26833 0.91443,0.5825 0.93806,0.69804 0.0712,0.34793 -1.37594,1.99809 -2.28453,2.60488 -1.37369,0.9175 -2.04346,1.118 -3.94207,1.1801 -1.36302,0.044 -1.87652,-0.01 -2.58754,-0.2374 z m 6.52961,-9.14441 c 0,-0.50515 -0.69732,-1.72551 -1.33932,-2.34394 -1.66886,-1.60744 -4.14456,-1.6197 -5.9134,-0.0292 -0.77902,0.7003 -1.40435,1.74674 -1.40435,2.34989 v 0.33775 h 4.32853 c 4.24906,0 4.32854,-0.009 4.32854,-0.31436 z m 56.73469,9.15381 c -2.24258,-0.7429 -3.84195,-2.54497 -4.48297,-5.05142 -0.39185,-1.53217 -0.39263,-2.94909 -0.003,-4.47484 0.37797,-1.47775 0.99164,-2.57191 1.96446,-3.50215 1.47344,-1.40918 2.86162,-1.91396 4.97919,-1.81097 1.5916,0.0773 2.71274,0.52864 3.79692,1.52802 0.42748,0.39396 0.76896,0.60089 0.85256,0.51628 0.0767,-0.0773 0.16103,-0.48884 0.1874,-0.91392 l 0.0479,-0.77302 h 1.08213 1.08213 l 0.0402,7.23397 0.0402,7.23395 -1.12232,-0.045 -1.1223,-0.045 -0.0468,-0.8118 c -0.0257,-0.44627 -0.11898,-0.81147 -0.2073,-0.81147 -0.0883,0 -0.44779,0.24589 -0.79882,0.54628 -0.35102,0.30049 -1.02209,0.73419 -1.49125,0.96379 -1.12831,0.5519 -3.46977,0.6585 -4.79894,0.2182 z m 4.24628,-2.15242 c 1.05787,-0.33266 2.23427,-1.52359 2.71627,-2.74979 0.29179,-0.74227 0.36429,-1.22508 0.37079,-2.46864 0.008,-1.35089 -0.0426,-1.65403 -0.39324,-2.40318 -0.53301,-1.13877 -1.25298,-1.93226 -2.21118,-2.43694 -0.69299,-0.36501 -0.96208,-0.41452 -2.25547,-0.41528 -1.32242,0 -1.54018,0.0406 -2.18763,0.42207 -1.67692,0.9857 -2.63501,2.71621 -2.6416,4.77089 -0.009,2.8825 1.65599,5.1641 4.04397,5.54052 0.84752,0.13365 1.52685,0.0651 2.55809,-0.25965 z m 21.18182,2.16432 c -2.48306,-0.886 -4.04515,-2.75305 -4.63582,-5.54122 -0.28569,-1.34854 -0.2855,-2.17833 0.002,-3.54205 0.51453,-2.45072 1.8679,-4.2615 3.90685,-5.22748 0.97229,-0.46055 1.14909,-0.49234 2.73986,-0.49234 1.53057,0 1.79086,0.0434 2.60478,0.42358 0.49737,0.23305 1.23745,0.70266 1.64466,1.04351 0.40719,0.34086 0.78287,0.61985 0.83485,0.61985 0.052,0 0.0945,-0.33388 0.0945,-0.74199 0,-0.4082 0.0835,-0.82555 0.1855,-0.9276 0.24085,-0.24079 1.86158,-0.24079 2.10244,0 0.13867,0.13874 0.1855,1.91066 0.1855,7.02119 0,3.75973 -0.0422,6.94585 -0.0939,7.08025 -0.0728,0.1899 -0.32888,0.2446 -1.14287,0.2446 -1.1702,0 -1.23672,-0.059 -1.23672,-1.09478 0,-0.3469 -0.0746,-0.6057 -0.17451,-0.6057 -0.096,0 -0.45284,0.25144 -0.79305,0.55882 -1.08002,0.97576 -2.13009,1.35516 -3.90204,1.40996 -1.18657,0.037 -1.72605,-0.016 -2.32088,-0.2286 z m 3.55043,-1.97616 c 1.3703,-0.22221 2.5605,-1.22913 3.28414,-2.77856 0.39209,-0.83951 0.43321,-1.08898 0.43321,-2.62803 0,-1.54962 -0.0384,-1.77881 -0.43292,-2.582 -0.5281,-1.07549 -1.7015,-2.16937 -2.68732,-2.50533 -0.92156,-0.31388 -2.41913,-0.3152 -3.33645,-0.009 -1.0422,0.3551 -2.02392,1.29468 -2.61983,2.50712 -0.4775,0.97164 -0.50791,1.1317 -0.50519,2.65859 0.003,1.4188 0.0535,1.73325 0.40211,2.48202 0.49765,1.0687 1.21562,1.89736 2.08542,2.40714 0.66509,0.38972 1.86292,0.67606 2.45647,0.58712 0.17005,-0.0255 0.5842,-0.0915 0.92036,-0.14553 z m -79.49249,-5.28379 0.0403,-7.23397 0.90194,-0.0462 c 1.08841,-0.0566 1.33962,0.11525 1.33962,0.9159 0,0.32973 0.0357,0.59948 0.0794,0.59948 0.0437,0 0.45409,-0.30521 0.91193,-0.67814 1.14431,-0.93203 2.11392,-1.2313 3.71673,-1.14717 2.32483,0.12205 3.66944,1.27073 4.17531,3.56686 0.20322,0.92241 0.23882,1.99856 0.20324,6.14244 l -0.0431,5.02425 h -1.08214 -1.08213 l -0.0772,-5.25608 c -0.0744,-5.06242 -0.09,-5.27982 -0.42163,-5.90005 -0.51977,-0.97212 -1.15195,-1.34844 -2.38207,-1.41795 -1.99109,-0.11242 -3.08115,0.62173 -3.73662,2.51664 -0.0928,0.26833 -0.20147,2.54598 -0.25124,5.26521 l -0.0877,4.79223 -1.12232,0.045 -1.12231,0.045 z m 25.97174,-4.39099 0.0397,-11.65467 3.40099,0.0123 c 4.75783,0.016 6.49515,0.4067 8.88902,1.99819 2.18636,1.45341 3.80074,3.78718 4.49137,6.49273 0.61988,2.42827 0.35989,5.84441 -0.61205,8.0416 -1.06266,2.40233 -3.48317,4.75137 -5.91339,5.73889 -1.67361,0.6801 -2.78956,0.8365 -6.6627,0.934 l -3.67249,0.092 0.0396,-11.65468 z m 7.32604,9.06134 c 1.90996,-0.36538 3.31108,-1.11868 4.68599,-2.51918 1.84983,-1.88435 2.69089,-3.94799 2.69089,-6.60252 0,-2.68792 -0.83364,-4.74543 -2.66921,-6.58771 -2.02994,-2.03733 -3.70412,-2.65237 -7.27907,-2.67415 l -2.24156,-0.0132 -0.0402,9.12086 c -0.0221,5.0165 -0.007,9.20782 0.0338,9.31411 0.10624,0.27776 3.30089,0.25277 4.81928,-0.0377 z m 31.85707,2.4532 c -0.0602,-0.06 -0.10939,-2.76218 -0.10939,-6.00449 0,-4.37891 -0.0477,-5.94277 -0.18551,-6.08048 -0.10203,-0.10214 -0.45304,-0.18552 -0.78001,-0.18552 h -0.59452 l 0.0457,-1.04351 0.0457,-1.04352 0.69567,-0.0773 0.69565,-0.0773 0.0773,-2.55069 0.0772,-2.55078 h 1.08215 1.08213 l 0.0772,2.55078 0.0773,2.55069 1.23672,0.0773 1.23673,0.0773 v 1.00485 1.00485 l -1.23673,0.0773 -1.23672,0.0773 -0.0773,6.10632 -0.0772,6.1064 -1.01139,0.044 c -0.55627,0.024 -1.06062,-0.01 -1.12079,-0.065 z"
       style="fill:#ffffff;stroke-width:0.15459044" />
  </g>
</svg>
