<?xml version="1.0" encoding="UTF-8"?>
<svg version="1.1" viewBox="0 0 250 91" xmlns="http://www.w3.org/2000/svg" xmlns:cc="http://creativecommons.org/ns#" xmlns:dc="http://purl.org/dc/elements/1.1/" xmlns:rdf="http://www.w3.org/1999/02/22-rdf-syntax-ns#">
<metadata>
<rdf:RDF>
<cc:Work rdf:about="">
<dc:format>image/svg+xml</dc:format>
<dc:type rdf:resource="http://purl.org/dc/dcmitype/StillImage"/>
<dc:title/>
</cc:Work>
</rdf:RDF>
</metadata>
<g transform="translate(0,-961.4)">
<path d="m104.85 1035.7c-0.21493-0.4464-1.8375-4.0464-3.6057-8.0002-1.9554-4.3722-3.2971-7.1884-3.4248-7.1884-0.19867 0-0.70152 2.4421-2.6977 13.102l-0.42701 2.2802h-1.2181c-1.0644 0-1.2181-0.035-1.2181-0.2749 0-0.3933 4.4708-23.571 4.5648-23.665 0.04291-0.042 0.13448-0.013 0.20337 0.066 0.06885 0.079 1.9223 4.3008 4.1186 9.381 2.1963 5.0803 4.0755 9.2367 4.1759 9.2367 0.22307 0-0.18978 0.9061 4.4383-9.7391 2.1255-4.8889 3.9231-8.9512 3.9946-9.0273 0.16692-0.1775-0.0365-1.1608 2.4744 11.964 1.1955 6.2493 2.2127 11.522 2.2604 11.717 0.0858 0.3507 0.073 0.3539-1.1988 0.3094l-1.2856-0.045-1.4464-7.5749c-0.79552-4.1662-1.5152-7.6439-1.5992-7.7282-0.10092-0.1013-0.20137-0.075-0.29593 0.077-0.0787 0.1267-1.728 3.7608-3.6651 8.0756s-3.5748 7.8452-3.6395 7.8455c-0.0647 1e-4 -0.29348-0.3649-0.5084-0.8112zm20.877 0.4427c-3.1124-0.757-5.2442-3.7869-5.233-7.438 0.0123-3.9661 2.3205-6.9462 5.8309-7.528 1.8844-0.3123 3.7348 0.2418 5.2836 1.5824 0.84589 0.7321 0.99163 0.6567 0.99538-0.5153l3e-3 -0.7411 2.2416 0.09v14.222l-2.2416 0.09-3e-3 -0.6638c-4e-3 -1.1086-0.16842-1.1842-1.0254-0.4711-1.6987 1.4135-3.7244 1.888-5.8515 1.3708zm4.1574-2.4762c1.0018-0.4901 1.6917-1.2297 2.2425-2.404 0.36013-0.7678 0.40208-1.0428 0.40191-2.6351-1.6e-4 -1.5456-0.0468-1.8713-0.3566-2.4945-0.54838-1.1028-1.3418-1.9269-2.3139-2.4036-0.75264-0.369-1.0698-0.4326-2.1216-0.4257-1.5615 0.01-2.4026 0.3888-3.4774 1.5648-1.4699 1.6083-1.8142 4.2134-0.84287 6.3778 0.52831 1.1772 1.7765 2.3758 2.8238 2.7117 1.0689 0.3426 2.5982 0.2203 3.6442-0.2914zm29.234 2.5401c-1.7367-0.3848-3.0875-1.1474-4.1745-2.3564-1.4797-1.6457-2.1812-4.1079-1.8073-6.3435 0.68145-4.0751 4.5331-6.9125 8.5889-6.327 1.2023 0.1736 2.6924 0.7365 3.2245 1.2179 0.22058 0.1997 0.27472 0.4978 0.27472 1.513 0 0.6954-0.044 1.3084-0.098 1.3624-0.0539 0.054-0.41912-0.1878-0.81159-0.537-1.1539-1.0267-2.1895-1.4333-3.6508-1.4333-1.0037 0-1.3969 0.074-2.087 0.3968-1.0739 0.5011-2.0322 1.4591-2.5845 2.5838-0.38748 0.789-0.42992 1.0359-0.42947 2.4987 4.7e-4 1.4875 0.0384 1.6981 0.45328 2.5183 0.53206 1.0519 1.5248 2.0205 2.5241 2.4625 1.9384 0.8575 4.4926 0.3221 5.9786-1.253 0.24972-0.2648 0.51058-0.4814 0.57971-0.4814 0.0691 0 0.12566 0.6552 0.12566 1.456v1.456l-0.52543 0.3248c-1.3496 0.834-4.0271 1.2857-5.5809 0.9414zm28.831-0.1196c-3.1361-0.8524-5.0978-3.6345-5.0965-7.2277 2e-3 -5.0208 3.5566-8.399 8.0724-7.6716 3.37 0.5429 5.5954 3.2242 5.7256 6.8987l0.0328 0.9275-5.6425 0.082c-3.1034 0.045-5.6697 0.097-5.7028 0.116-0.0331 0.019-0.0217 0.4075 0.0255 0.8643 0.21893 2.1214 2.0004 3.844 4.2111 4.0722 1.6758 0.1729 3.2136-0.5438 4.3765-2.0395l0.66866-0.8602 0.76397 0.4159c1.1249 0.6122 1.1787 0.7221 0.70476 1.4382-1.3064 1.974-3.2747 3.0518-5.8206 3.1872-0.95604 0.051-1.5878-0.01-2.3188-0.2031zm6.1299-9.0886c0.0502-0.1307-0.0234-0.5377-0.16334-0.9042-0.75213-1.9695-3.0335-3.2188-4.9936-2.7344-1.7732 0.4381-3.7894 2.6051-3.3907 3.6441 0.1358 0.3539 8.4118 0.3486 8.5476-0.01zm7.8941 9.1898c-1.4871-0.3501-2.9907-1.6295-3.505-2.9823-0.15532-0.4085-0.13301-0.4342 0.69368-0.7997 0.46979-0.2078 0.9448-0.3778 1.0556-0.3778 0.11079 0 0.42322 0.3423 0.69432 0.7606 1.2974 2.0024 4.2519 1.7952 4.8264-0.3382 0.35347-1.3127-0.48104-2.314-2.7172-3.2607-1.7704-0.7494-2.7236-1.3878-3.2233-2.1584-1.0926-1.6851-0.44224-4.2303 1.3492-5.2801 2.0194-1.1835 4.378-0.6848 5.7435 1.2144l0.431 0.5994-0.37203 0.2822c-0.20461 0.1552-0.62562 0.3971-0.93556 0.5376l-0.56355 0.2552-0.6259-0.6258c-0.78432-0.7844-1.472-0.9469-2.2983-0.5433-0.37219 0.1818-0.68785 0.494-0.86402 0.8543-0.25119 0.514-0.25603 0.6194-0.0508 1.1106 0.26346 0.6306 1.0003 1.1596 2.4157 1.7348 2.4236 0.9847 3.2628 1.594 3.8077 2.7641 0.63424 1.3621 0.46547 2.9968-0.44987 4.3573-1.0904 1.6206-3.2972 2.3937-5.4115 1.8958zm19.986 0c-1.088-0.2124-2.5614-1.0166-3.3727-1.8408-1.3561-1.3778-2.033-3.1866-2.0361-5.4408-4e-3 -2.4601 0.64589-4.3116 2.0221-5.7667 2.4155-2.554 6.7933-2.7404 9.4345-0.4016 1.356 1.2007 2.3001 3.411 2.3001 5.3843v0.9696h-5.5463c-4.6396 0-5.5765 0.037-5.7311 0.2227-0.14434 0.1739-0.13171 0.43 0.0576 1.1693 0.71262 2.7816 3.3579 4.283 6.1073 3.4665 0.62274-0.1848 1.0262-0.4525 1.6899-1.1207 0.4795-0.4828 0.99689-1.039 1.1497-1.2361l0.27791-0.3582 0.72693 0.4165c1.2038 0.6898 1.2152 0.7147 0.68427 1.4864-1.6908 2.4573-4.7148 3.6452-7.7642 3.0496zm5.8196-9.1858c0.22479-0.5858-0.86391-2.3082-1.8875-2.9862-1.4865-0.9846-3.2327-0.9924-4.764-0.021-1.1213 0.7112-2.2889 2.5735-1.9116 3.049 0.11584 0.1461 1.1701 0.1933 4.3132 0.1933 3.5769 0 4.1725-0.033 4.2499-0.2347zm-88.918 8.6986c-0.0407-0.1063-0.056-3.3238-0.0339-7.1499l0.0403-6.9565 2.2416-0.09 3e-3 0.5865c5e-3 1.0497 0.20748 1.1346 0.95783 0.4 1.019-0.9975 1.9441-1.3501 3.5359-1.3477 1.1583 0 1.4432 0.06 2.2415 0.4588 1.0621 0.5307 1.7789 1.3831 2.1774 2.5895 0.22588 0.6838 0.27451 1.6233 0.32374 6.2541l0.0579 5.4493h-2.34v-4.7074c0-4.9437-0.0952-5.9054-0.66915-6.757-0.55112-0.8179-1.2538-1.1355-2.5-1.1302-1.3337 0.01-2.2106 0.4173-2.8065 1.3177-0.73546 1.1114-0.84232 1.8814-0.93747 6.7551l-0.0883 4.5218h-1.0646c-0.70911 0-1.0894-0.065-1.1387-0.1934zm29.611-12.483v-12.676h2.3188v6.1112c0 6.7588-0.0138 6.6742 0.94207 5.7754 0.28959-0.2723 0.90916-0.6744 1.3768-0.8934 0.71203-0.3336 1.0678-0.3977 2.1888-0.3941 1.175 0.01 1.4489 0.06 2.2416 0.4646 0.65584 0.3343 1.0401 0.6646 1.404 1.2065 0.97016 1.4448 1.0171 1.7787 1.0851 7.7106l0.0616 5.372h-2.318l-0.0512-5.14c-0.0512-5.1256-0.0524-5.1424-0.43778-5.9129-0.65896-1.3176-1.9804-1.8617-3.6086-1.4859-1.5542 0.3587-2.4126 1.5112-2.7224 3.6548-0.0856 0.5924-0.15708 2.8338-0.15877 4.9807l-3e-3 3.9033h-2.3188zm42.819 6.7632c-2e-3 -3.2522-0.0543-5.9947-0.11795-6.0947-0.0636-0.1-0.39294-0.2043-0.73194-0.2319l-0.61635-0.05-0.0457-1.0435-0.0457-1.0434h0.59451c0.32697 0 0.67799-0.083 0.78001-0.1855 0.12868-0.1288 0.18551-0.936 0.18551-2.6348v-2.4494l2.2416 0.09 0.0773 2.5508 0.0772 2.5507 2.4734 0.154 0.0456 0.8642c0.0307 0.5805-0.0222 0.9205-0.16103 1.0357-0.11365 0.094-0.69071 0.1924-1.2824 0.218l-1.0757 0.046-0.0404 6.0677-0.0404 6.0676h-2.3153l-3e-3 -5.9131zm21.8-1.2752v-7.202l2.2416 0.09 0.048 0.5797c0.0538 0.6505 0.37571 0.7787 0.65322 0.2602 0.25512-0.4767 1.4899-1.1999 2.2411-1.3125 0.67658-0.1015 2.2859 0.2548 2.4658 0.5458 0.0991 0.1603-0.78514 2.0138-0.96072 2.0138-0.0597 0-0.40352-0.1126-0.76405-0.2503-1.4437-0.5514-2.679 0.2515-3.3446 2.1737-0.0934 0.2697-0.20131 2.564-0.25125 5.3423l-0.0875 4.8696-2.2416 0.09zm-198.65 6.8011c-12.346-1.6879-22.264-11.048-24.744-23.351-0.42485-2.1079-0.58344-6.8174-0.30906-9.1776 1.1358-9.7701 7.4056-18.48 16.42-22.811 7.2169-3.4673 15.795-3.7778 23.323-0.84432 9.2906 3.6207 15.91 11.536 18.029 21.556 0.38906 1.8404 0.42548 2.3023 0.4328 5.4879 0.0081 3.5447-0.08757 4.4954-0.70813 7.0339-0.52113 2.1317-1.0649 3.6418-2.0727 5.7556-4.2499 8.9148-12.69 15.055-22.487 16.36-1.9905 0.2651-5.9064 0.2599-7.8841-0.011zm3.7726-1.7383c0.0493-0.3189 0.30116-3.7102 0.5597-7.5363 0.73319-10.85 0.91095-13.256 0.98492-13.33 0.11056-0.1106 0.29248 0.2217 5.2665 9.6198 2.6099 4.9316 4.8771 9.1018 5.0381 9.2672 0.28838 0.2962 0.29057 0.2927 0.14547-0.2319-0.08102-0.2931-1.888-4.8747-4.0154-10.182-2.1275-5.3068-3.8349-9.6819-3.7944-9.7226 0.04052-0.041 0.16237-0.01 0.27071 0.082 0.52722 0.4165 16.06 11.794 16.689 12.224 0.94645 0.6477 1.0851 0.6265 0.4276-0.066-0.46296-0.4872-13.909-12.872-15.203-14.003l-0.47918-0.4188 0.40055-0.01c0.22031-0.01 4.8722 0.8323 10.337 1.8573 5.4653 1.025 10.12 1.8383 10.343 1.8076l0.40654-0.056-0.46015-0.194c-0.25309-0.1065-4.8792-1.5219-10.28-3.1452-5.4011-1.6233-9.8491-2.9756-9.8845-3.0051-0.03542-0.029-0.02273-0.095 0.02817-0.1461 0.05093-0.051 4.5669-1.2973 10.035-2.7697 10.02-2.6979 10.793-2.9204 10.793-3.1069 0-0.1564-0.95985-0.02-11.553 1.6438-5.4071 0.8492-9.8678 1.5072-9.9127 1.4623-0.04488-0.044 0.01863-0.1715 0.14111-0.2815 0.4333-0.3895 2.6171-2.2746 9.1889-7.9325 6.6911-5.7606 7.2182-6.2371 6.8996-6.2371-0.19933 0-1.478 0.86564-10.842 7.3385-3.7836 2.6155-6.9783 4.7942-7.0994 4.8417-0.27367 0.1072-0.78016 1.3273 4.151-9.9994 2.3096-5.3051 4.1786-9.7521 4.1535-9.8826-0.06813-0.3534-0.36241 0.13855-5.832 9.7501-2.7458 4.8252-5.0542 8.7729-5.1297 8.7729-0.07546 0-0.13679-0.1217-0.13627-0.27049 0.0043-1.2961-0.79966-20.767-0.86995-21.063-0.08985-0.37802-0.0946-0.37925-0.21873-0.0547-0.06978 0.18222-0.45181 5.0518-0.84894 10.821-0.39713 5.7694-0.74993 10.519-0.784 10.554-0.03407 0.036-0.09827 0.028-0.14266-0.016-0.04438-0.044-2.3101-4.2822-5.035-9.4171-2.7249-5.135-5.0624-9.4409-5.1946-9.5684-0.21597-0.20835-0.22934-0.18543-0.13215 0.22787 0.05947 0.25295 1.8474 4.7933 3.9732 10.09 2.1258 5.2965 3.8398 9.7059 3.809 9.7986-0.03088 0.092-2.7319-1.7977-6.0023-4.2006-11.95-8.7814-11.743-8.6339-11.743-8.3652 0 0.0915 3.5826 3.4467 7.9614 7.4561 4.3788 4.0092 7.9614 7.3585 7.9614 7.4431 0 0.084-0.15652 0.1149-0.34783 0.068-1.5253-0.3751-20.375-3.814-20.676-3.772-0.38665 0.0538-0.38662 0.0538 0.07698 0.25166 0.25508 0.1086 4.9032 1.5328 10.329 3.1647 5.426 1.6319 9.8485 3.0347 9.8278 3.1172-0.02069 0.083-4.6321 1.3866-10.248 2.8978-5.6155 1.511-10.278 2.8154-10.361 2.8985-0.2931 0.2932 0.84818 0.1422 11.054-1.4615 5.6445-0.8868 10.294-1.5807 10.333-1.5422 0.09277 0.092 0.67895-0.4233-8.1819 7.2049-4.2938 3.6964-7.9023 6.8366-8.019 6.9779-0.16255 0.1969-0.16672 0.257-0.01784 0.257 0.18251 0 2.4471-1.5394 13.37-9.0885 2.4657-1.7041 4.5018-3.0172 4.5247-2.918 0.02286 0.099-1.7761 4.3543-3.9978 9.4558-2.2217 5.1015-4.1349 9.5418-4.2516 9.8672-0.57702 1.6091 0.55265-0.2095 5.225-8.4114 2.781-4.8818 5.1714-9.0737 5.3119-9.3152 0.14055-0.2414 0.30787-0.3807 0.37182-0.3092 0.06396 0.071 0.26632 4.1996 0.44971 9.1734 0.38416 10.419 0.47877 12.213 0.64429 12.213 0.06596 0 0.16024-0.261 0.20953-0.5798zm38.005-27.282 0.03903-29.26h6.029v58.435l-6.1071 0.084zm43.962 2.4253c-0.053-0.1381-0.0963-5.1705-0.0963-11.183 0-8.2968 0.0447-10.977 0.18551-11.118 0.10203-0.10205 0.57508-0.18552 1.0512-0.18552 0.47613 0 0.94918 0.083 1.0512 0.18552 0.10203 0.10205 0.1855 0.5194 0.1855 0.9276 0 0.40811 0.0357 0.74199 0.0794 0.74199s0.44455-0.29728 0.89076-0.66078c0.4462-0.3634 1.193-0.833 1.6596-1.0434 0.73919-0.3335 1.0673-0.38236 2.5489-0.37981 1.4345 9e-3 1.8203 0.0575 2.4664 0.35302 1.8806 0.85989 3.1748 2.3183 3.923 4.4206 0.32846 0.92288 0.39043 1.3689 0.38876 2.7984-3e-3 2.618-0.67861 4.2816-2.3777 5.8547-1.3395 1.2402-2.2475 1.5569-4.4777 1.5619-1.6024 0.01-1.8635-0.037-2.6466-0.4036-0.47784-0.224-1.1471-0.6588-1.4873-0.96616-0.34021-0.30738-0.69609-0.55882-0.79087-0.55882-0.12225 0-0.1842 1.4268-0.21316 4.9083l-0.0408 4.9082-1.1018 0.044c-0.90132 0.037-1.1193 0-1.1981-0.2057zm8.8656-10.079c0.98009-0.35048 2.0425-1.4053 2.5737-2.5554 0.40507-0.87705 0.44514-1.1169 0.44514-2.6642 0-1.5495-0.0385-1.7788-0.43286-2.582-0.52805-1.0755-1.7015-2.1694-2.6874-2.5053-0.92155-0.31388-2.4191-0.3152-3.3364-9e-3 -1.0412 0.35472-2.0238 1.2947-2.6198 2.5059-0.47719 0.96986-0.50803 1.1316-0.50674 2.6586 2e-3 1.4245 0.051 1.732 0.4021 2.4832 1.193 2.552 3.5825 3.5842 6.1623 2.6617zm-26.995 2.2718c-4.4846-0.8875-8.0886-4.2562-9.3518-8.7412-0.4447-1.5789-0.47552-4.25-0.06762-5.8614 0.84459-3.3365 3.1253-6.2413 6.119-7.7933 1.8354-0.95146 3.0584-1.2724 5.1788-1.3589 3.7563-0.15317 6.4059 0.88742 9.133 3.5868 1.1909 1.1789 1.516 1.6156 2.1288 2.86 1.0823 2.1975 1.3932 3.6368 1.3013 6.0234-0.0603 1.5653-0.15518 2.176-0.49335 3.1748-1.0752 3.176-3.0956 5.5057-6.0408 6.9656-1.9503 0.96675-3.4255 1.309-5.5513 1.288-0.94293-0.01-2.0032-0.074-2.3561-0.1439zm5.346-2.562c1.6303-0.54722 2.7274-1.2605 4.0001-2.6003 1.2008-1.2641 2.1847-3.0583 2.4894-4.5396 0.21766-1.0582 0.2159-3.1912-4e-3 -4.236-0.24924-1.187-1.0888-2.9208-1.9371-4.0005-2.4277-3.0901-6.7732-4.3909-10.512-3.1466-2.3386 0.7783-4.498 2.6644-5.5907 4.8832-1.9202 3.8992-1.2198 8.2032 1.8315 11.255 2.6556 2.6556 6.2729 3.5431 9.722 2.3853zm34.293 2.432c-2.9792-0.984-4.7555-3.6394-4.7555-7.1088 0-4.6535 2.7797-7.7502 6.9566-7.7502 2.9274 0 5.1825 1.4901 6.2571 4.1347 0.37436 0.92138 0.78535 3.3026 0.63681 3.6897-0.068 0.17722-1.0562 0.21419-5.7131 0.21419-4.8007 0-5.6437 0.033-5.7177 0.22636-0.12166 0.31699 0.31211 1.8966 0.68775 2.5043 0.48759 0.78896 1.6332 1.7105 2.4731 1.9895 0.42001 0.1395 1.2261 0.25003 1.7913 0.24579 1.6323-0.0132 2.7472-0.68191 4.0233-2.4152l0.34142-0.46375 0.89508 0.4878c0.4923 0.26833 0.91443 0.5825 0.93806 0.69804 0.0712 0.34793-1.3759 1.9981-2.2845 2.6049-1.3737 0.9175-2.0435 1.118-3.9421 1.1801-1.363 0.044-1.8765-0.01-2.5875-0.2374zm6.5296-9.1444c0-0.50515-0.69732-1.7255-1.3393-2.3439-1.6689-1.6074-4.1446-1.6197-5.9134-0.0292-0.77902 0.7003-1.4044 1.7467-1.4044 2.3499v0.33775h4.3285c4.2491 0 4.3285-9e-3 4.3285-0.31436zm56.735 9.1538c-2.2426-0.7429-3.842-2.545-4.483-5.0514-0.39185-1.5322-0.39263-2.9491-3e-3 -4.4748 0.37797-1.4778 0.99164-2.5719 1.9645-3.5022 1.4734-1.4092 2.8616-1.914 4.9792-1.811 1.5916 0.0773 2.7127 0.52864 3.7969 1.528 0.42748 0.39396 0.76896 0.60089 0.85256 0.51628 0.0767-0.0773 0.16103-0.48884 0.1874-0.91392l0.0479-0.77302h2.1643l0.0402 7.234 0.0402 7.234-2.2446-0.09-0.0468-0.8118c-0.0257-0.44627-0.11898-0.81147-0.2073-0.81147-0.0883 0-0.44779 0.24589-0.79882 0.54628-0.35102 0.30049-1.0221 0.73419-1.4912 0.96379-1.1283 0.5519-3.4698 0.6585-4.7989 0.2182zm4.2463-2.1524c1.0579-0.33266 2.2343-1.5236 2.7163-2.7498 0.29179-0.74227 0.36429-1.2251 0.37079-2.4686 8e-3 -1.3509-0.0426-1.654-0.39324-2.4032-0.53301-1.1388-1.253-1.9323-2.2112-2.4369-0.69299-0.36501-0.96208-0.41452-2.2555-0.41528-1.3224 0-1.5402 0.0406-2.1876 0.42207-1.6769 0.9857-2.635 2.7162-2.6416 4.7709-9e-3 2.8825 1.656 5.1641 4.044 5.5405 0.84752 0.13365 1.5268 0.0651 2.5581-0.25965zm21.182 2.1643c-2.4831-0.886-4.0452-2.753-4.6358-5.5412-0.28569-1.3485-0.2855-2.1783 2e-3 -3.542 0.51453-2.4507 1.8679-4.2615 3.9068-5.2275 0.97229-0.46055 1.1491-0.49234 2.7399-0.49234 1.5306 0 1.7909 0.0434 2.6048 0.42358 0.49737 0.23305 1.2374 0.70266 1.6447 1.0435 0.40719 0.34086 0.78287 0.61985 0.83485 0.61985 0.052 0 0.0945-0.33388 0.0945-0.74199 0-0.4082 0.0835-0.82555 0.1855-0.9276 0.24085-0.24079 1.8616-0.24079 2.1024 0 0.13867 0.13874 0.1855 1.9107 0.1855 7.0212 0 3.7597-0.0422 6.9458-0.0939 7.0802-0.0728 0.1899-0.32888 0.2446-1.1429 0.2446-1.1702 0-1.2367-0.059-1.2367-1.0948 0-0.3469-0.0746-0.6057-0.17451-0.6057-0.096 0-0.45284 0.25144-0.79305 0.55882-1.08 0.97576-2.1301 1.3552-3.902 1.41-1.1866 0.037-1.726-0.016-2.3209-0.2286zm3.5504-1.9762c1.3703-0.22221 2.5605-1.2291 3.2841-2.7786 0.39209-0.83951 0.43321-1.089 0.43321-2.628 0-1.5496-0.0384-1.7788-0.43292-2.582-0.5281-1.0755-1.7015-2.1694-2.6873-2.5053-0.92156-0.31388-2.4191-0.3152-3.3364-9e-3 -1.0422 0.3551-2.0239 1.2947-2.6198 2.5071-0.4775 0.97164-0.50791 1.1317-0.50519 2.6586 3e-3 1.4188 0.0535 1.7332 0.40211 2.482 0.49765 1.0687 1.2156 1.8974 2.0854 2.4071 0.66509 0.38972 1.8629 0.67606 2.4565 0.58712 0.17005-0.0255 0.5842-0.0915 0.92036-0.14553zm-79.492-5.2838 0.0403-7.234 0.90194-0.0462c1.0884-0.0566 1.3396 0.11525 1.3396 0.9159 0 0.32973 0.0357 0.59948 0.0794 0.59948s0.45409-0.30521 0.91193-0.67814c1.1443-0.93203 2.1139-1.2313 3.7167-1.1472 2.3248 0.12205 3.6694 1.2707 4.1753 3.5669 0.20322 0.92241 0.23882 1.9986 0.20324 6.1424l-0.0431 5.0242h-2.1643l-0.0772-5.2561c-0.0744-5.0624-0.09-5.2798-0.42163-5.9-0.51977-0.97212-1.152-1.3484-2.3821-1.418-1.9911-0.11242-3.0812 0.62173-3.7366 2.5166-0.0928 0.26833-0.20147 2.546-0.25124 5.2652l-0.0877 4.7922-2.2446 0.09zm25.972-4.391 0.0397-11.655 3.401 0.0123c4.7578 0.016 6.4952 0.4067 8.889 1.9982 2.1864 1.4534 3.8007 3.7872 4.4914 6.4927 0.61988 2.4283 0.35989 5.8444-0.61205 8.0416-1.0627 2.4023-3.4832 4.7514-5.9134 5.7389-1.6736 0.6801-2.7896 0.8365-6.6627 0.934l-3.6725 0.092 0.0396-11.655zm7.326 9.0613c1.91-0.36538 3.3111-1.1187 4.686-2.5192 1.8498-1.8844 2.6909-3.948 2.6909-6.6025 0-2.6879-0.83364-4.7454-2.6692-6.5877-2.0299-2.0373-3.7041-2.6524-7.2791-2.6742l-2.2416-0.0132-0.0402 9.1209c-0.0221 5.0165-7e-3 9.2078 0.0338 9.3141 0.10624 0.27776 3.3009 0.25277 4.8193-0.0377zm31.857 2.4532c-0.0602-0.06-0.10939-2.7622-0.10939-6.0045 0-4.3789-0.0477-5.9428-0.18551-6.0805-0.10203-0.10214-0.45304-0.18552-0.78001-0.18552h-0.59452l0.0457-1.0435 0.0457-1.0435 1.3913-0.1546 0.0773-2.5507 0.0772-2.5508h2.1643l0.0772 2.5508 0.0773 2.5507 2.4734 0.1546v2.0097l-2.4734 0.1546-0.0773 6.1063-0.0772 6.1064-1.0114 0.044c-0.55627 0.024-1.0606-0.01-1.1208-0.065z" fill="#fff" stroke-width=".15459"/>
</g>
</svg>
