<svg xmlns="http://www.w3.org/2000/svg" viewBox="0 0 250 91" xmlns:v="https://vecta.io/nano"><path d="M65.432 57.052l-7.402 9.784H10.829m75.031-9.784l4.677 9.784h76.233l7.466-9.524m20.515-.432l4.659 9.956h39.761" stroke-opacity=".597" fill="none" stroke="#fff" stroke-miterlimit="1.5" stroke-width="3.39"/><g fill="#fff"><path d="M26.38 41.557c9.045.13 15.724-7.029 15.593-15.506.131-8.477-6.548-15.637-15.593-15.506-9.045-.131-15.68 7.029-15.549 15.506-.131 8.477 6.503 15.636 15.549 15.506zm0-4.494c-6.468 0-10.662-4.764-10.662-11.012 0-6.205 4.194-11.056 10.662-11.056 6.555 0 10.662 4.851 10.662 11.056 0 6.248-4.107 11.012-10.662 11.012zm21.497 13.099h4.713v-11.66c1.486 1.615 3.889 3.055 7.604 3.055 6.905 0 11.793-5.325 11.793-11.924s-4.888-11.967-11.793-11.967c-3.278 0-6.031 1.266-7.604 2.836v-2.181h-4.713zM60.28 37.368c-4.239 0-7.954-2.84-7.954-7.732 0-4.941 3.715-7.781 7.954-7.781s7.125 3.495 7.125 7.778-2.884 7.735-7.125 7.735zm28.135 4.189c6.598 0 9.04-2.313 9.04-2.313v-4.237c-.043 0-3.403 2.361-8.953 2.361-5.114 0-7.561-3.149-8.085-6.645H98.46v-2.181c0-5.462-3.797-10.875-10.352-10.875-6.992 0-12.185 5.151-12.185 11.922 0 6.512 4.539 11.969 12.492 11.969zm-7.78-14.5c.263-1.748 1.922-5.552 6.862-5.552s6.074 3.804 6.25 5.552zm35.521-9.436c-5.508 0-7.038 3.491-7.038 3.491V18.32h-4.713V40.9h4.713V28.188c0-4.237 3.06-6.377 6.338-6.377 3.103 0 5.069 2.054 5.069 5.678V40.9h4.713V27.009c0-6.202-4.015-9.388-9.082-9.388zm27.258-6.377H132.67V40.9h10.744c9.833 0 16.118-6.241 16.118-14.849 0-8.653-5.937-14.807-16.118-14.807zm-.35 25.162h-5.637V15.694h5.593c7.735 0 11.582 3.933 11.582 10.357-.218 7.123-4.677 10.355-11.537 10.355zm32.416 5.151c3.671 0 6.074-1.439 7.56-2.968l-.043 2.311h4.755V18.321h-4.668v2.181c-1.573-1.571-4.327-2.836-7.604-2.836-6.905 0-11.793 5.367-11.793 11.967s4.888 11.924 11.793 11.924zm.35-4.189c-4.24 0-7.43-3.497-7.43-7.78s3.19-7.734 7.43-7.734c4.194 0 7.517 2.84 7.517 7.734 0 4.94-3.323 7.78-7.517 7.78zm24.816 3.532h4.713V21.547h7.734v-3.839h-7.734V10.5l-13.406 11.047h8.694zm26.251.657c3.672 0 6.076-1.439 7.561-2.968l-.044 2.311h4.757V18.321h-4.668v2.181c-1.574-1.571-4.327-2.836-7.606-2.836-6.905 0-11.791 5.367-11.791 11.967s4.886 11.924 11.791 11.924zm.35-4.189c-4.239 0-7.428-3.497-7.428-7.78s3.19-7.734 7.428-7.734c4.196 0 7.517 2.84 7.517 7.734 0 4.94-3.321 7.78-7.517 7.78z" fill-rule="nonzero"/><path d="M20.787 79.403c6.73 0 11.138-3.622 11.138-8.514 0-5.2-2.966-7.209-8.908-9.656-4.02-1.662-5.987-2.492-5.987-5.113 0-2.185 2.143-3.364 5.375-3.409 3.191 0 6.074 1.224 7.821 2.841v-5.111c-2.14-1.439-4.63-2.311-7.382-2.269-6.25 0-10.702 3.273-10.702 7.947 0 5.2 2.881 7.253 8.735 9.701 4.02 1.66 6.163 2.752 6.163 5.024 0 2.405-1.704 4.065-6.252 4.065-3.54 0-7.249-1.355-9.912-3.453v4.893c1.702 1.484 5.019 3.055 9.912 3.055zm27.086-.045c3.671 0 6.076-1.439 7.56-2.966l-.042 2.311h4.757v-22.58h-4.67v2.18c-1.573-1.571-4.325-2.837-7.605-2.837-6.904 0-11.792 5.368-11.792 11.968s4.888 11.923 11.792 11.923zm.352-4.187c-4.241 0-7.431-3.498-7.431-7.778s3.191-7.736 7.431-7.736c4.194 0 7.516 2.841 7.516 7.736 0 4.937-3.322 7.778-7.516 7.778zM75.702 80.5l11.792-24.376h-4.935l-6.813 14.764-6.902-14.764H63.91zm25.381-1.142c6.597 0 9.042-2.311 9.042-2.311v-4.236c-.045 0-3.404 2.361-8.955 2.361-5.113 0-7.56-3.148-8.083-6.646h18.042v-2.18c0-5.465-3.798-10.877-10.35-10.877-6.993 0-12.188 5.15-12.188 11.923 0 6.512 4.539 11.968 12.493 11.968zm-7.778-14.497c.263-1.749 1.922-5.554 6.862-5.554s6.074 3.805 6.25 5.554zm28.002 14.497c6.337 0 8.911-3.402 8.911-6.852 0-3.409-1.702-4.895-4.712-6.644-3.892-2.272-5.118-2.752-5.118-4.196 0-1.179 1.05-2.009 3.587-2.009 2.274 0 4.281.961 5.284 1.922v-4.628c-1.09-.654-3.099-1.484-5.851-1.484-4.11 0-7.469 2.445-7.469 6.287 0 3.758 2.705 5.2 5.676 6.859 2.668 1.486 4.196 2.492 4.196 4.152 0 1.486-1.528 2.405-4.548 2.405-3.666 0-6.634-2.579-6.634-2.579v4.628s2.837 2.138 6.679 2.138zm14.596-.654h22.711v-4.452h-17.999V49.047h-4.712zm30.534-25.817c1.526 0 2.705-1.179 2.705-2.663a2.66 2.66 0 0 0-2.705-2.705c-1.484 0-2.663 1.177-2.663 2.705 0 1.484 1.179 2.663 2.663 2.663zm-2.138 25.818h4.712V56.08h-4.712zm20.356 1.795l11.792-24.376h-4.935l-6.815 14.764-6.899-14.764h-4.937zm25.381-1.142c6.597 0 9.04-2.311 9.04-2.311v-4.236c-.042 0-3.402 2.361-8.953 2.361-5.113 0-7.56-3.148-8.085-6.646h18.044v-2.18c0-5.465-3.798-10.877-10.352-10.877-6.993 0-12.186 5.15-12.186 11.923 0 6.512 4.539 11.968 12.493 11.968zm-7.781-14.497c.263-1.749 1.925-5.554 6.862-5.554s6.076 3.805 6.25 5.554zm28.006 14.497c6.337 0 8.911-3.402 8.911-6.852 0-3.409-1.702-4.895-4.712-6.644-3.894-2.272-5.118-2.752-5.118-4.196 0-1.179 1.05-2.009 3.587-2.009 2.272 0 4.278.961 5.284 1.922v-4.628c-1.092-.654-3.099-1.484-5.854-1.484-4.107 0-7.467 2.445-7.467 6.287 0 3.758 2.705 5.2 5.673 6.859 2.668 1.486 4.199 2.492 4.199 4.152 0 1.486-1.531 2.405-4.548 2.405-3.666 0-6.634-2.579-6.634-2.579v4.628s2.837 2.138 6.679 2.138z" fill-rule="nonzero"/></g></svg>