<?xml version="1.0" encoding="UTF-8" standalone="no"?>
<!-- Generator: Adobe Illustrator 19.1.0, SVG Export Plug-In . SVG Version: 6.00 Build 0)  -->

<svg
   xmlns:dc="http://purl.org/dc/elements/1.1/"
   xmlns:cc="http://creativecommons.org/ns#"
   xmlns:rdf="http://www.w3.org/1999/02/22-rdf-syntax-ns#"
   xmlns:svg="http://www.w3.org/2000/svg"
   xmlns="http://www.w3.org/2000/svg"
   xmlns:sodipodi="http://sodipodi.sourceforge.net/DTD/sodipodi-0.dtd"
   xmlns:inkscape="http://www.inkscape.org/namespaces/inkscape"
   version="1.1"
   id="Layer_1"
   x="0px"
   y="0px"
   viewBox="0 0 250 91"
   enable-background="new 0 0 181.3 182"
   xml:space="preserve"
   sodipodi:docname="opendatasoft.svg"
   width="250"
   height="91"
   inkscape:version="0.92.2 (5c3e80d, 2017-08-06)"><metadata
     id="metadata31"><rdf:RDF><cc:Work
         rdf:about=""><dc:format>image/svg+xml</dc:format><dc:type
           rdf:resource="http://purl.org/dc/dcmitype/StillImage" /><dc:title></dc:title></cc:Work></rdf:RDF></metadata><defs
     id="defs29"><clipPath
       clipPathUnits="userSpaceOnUse"
       id="clipPath6084"><path
         d="M 0,0 H 595.276 V 841.89 H 0 Z"
         id="path6082"
         inkscape:connector-curvature="0" /></clipPath></defs><sodipodi:namedview
     pagecolor="#ffffff"
     bordercolor="#666666"
     borderopacity="1"
     objecttolerance="10"
     gridtolerance="10"
     guidetolerance="10"
     inkscape:pageopacity="0"
     inkscape:pageshadow="2"
     inkscape:window-width="1920"
     inkscape:window-height="1046"
     id="namedview27"
     showgrid="false"
     fit-margin-top="0"
     fit-margin-left="0"
     fit-margin-right="0"
     fit-margin-bottom="0"
     inkscape:zoom="2.8284271"
     inkscape:cx="133.74191"
     inkscape:cy="1.494197"
     inkscape:window-x="-11"
     inkscape:window-y="-11"
     inkscape:window-maximized="1"
     inkscape:current-layer="Layer_1" /><rect
     style="opacity:0.00100002;fill:#ffffff;fill-opacity:1;stroke:none;stroke-width:2.5;stroke-linecap:round;stroke-linejoin:round;stroke-miterlimit:4;stroke-dasharray:none;stroke-dashoffset:0;stroke-opacity:1"
     id="rect4175"
     width="250"
     height="91"
     x="0"
     y="-4.0454324e-014" /><style
     id="style960"
     type="text/css">
	.st0{fill:#FFFFFF;}
</style><g
     transform="matrix(0.64304133,0,0,0.64304133,5.2843526,3.6031507)"
     data-name="logo-tagline noir"
     id="logo-tagline_noir"
     style="fill:#ffffff"><path
       transform="translate(-7.127)"
       d="m 342.6,67.227 a 12.558,12.558 0 0 0 6.117,-1.437 v -6.906 a 7.731,7.731 0 0 1 -3.337,0.834 c -1.622,0 -2.411,-0.742 -2.411,-2.5 v -8.484 h 5.84 v -7.091 h -5.84 v -6.349 h -8.805 v 6.35 H 331.2 v 7.091 h 2.966 v 10.2 c 0,5.978 3.153,8.295 8.436,8.295 M 315.49,66.719 h 8.759 V 48.688 h 5.608 v -6.766 h -5.746 v -0.6 c 0,-1.622 0.88,-2.363 2.5,-2.363 a 10.458,10.458 0 0 1 3.291,0.509 v -6.213 a 19.213,19.213 0 0 0 -5.746,-0.695 c -2.966,0 -5.005,0.649 -6.534,2.179 -1.483,1.483 -2.132,3.614 -2.132,6.488 v 0.557 h -2.92 v 6.905 h 2.92 v 18.027 z m -18.862,-6.858 a 5.435,5.435 0 0 1 -5.331,-5.654 V 54.11 a 5.253,5.253 0 0 1 5.237,-5.562 5.435,5.435 0 0 1 5.331,5.654 v 0.092 a 5.253,5.253 0 0 1 -5.237,5.564 m -0.094,7.46 c 8.065,0 13.9,-5.979 13.9,-13.116 v -0.094 c 0,-7.137 -5.794,-13.023 -13.811,-13.023 -8.065,0 -13.9,5.979 -13.9,13.116 v 0.092 c 0,7.139 5.794,13.024 13.811,13.024 m -26.648,-0.046 c 6.117,0 10.242,-2.874 10.242,-8.388 v -0.092 c 0,-4.866 -3.94,-6.58 -8.9,-7.971 -2.642,-0.788 -4.079,-1.251 -4.079,-2.225 V 48.5 c 0,-0.695 0.695,-1.205 2.04,-1.205 a 16.953,16.953 0 0 1 7.416,2.317 l 3.012,-5.562 a 19.61,19.61 0 0 0 -10.336,-2.92 c -5.794,0 -10.057,2.966 -10.057,8.3 v 0.092 c 0,5.051 3.94,6.72 8.9,8.017 2.642,0.742 4.032,1.159 4.032,2.132 v 0.092 c 0,0.88 -0.695,1.343 -2.225,1.343 a 16.293,16.293 0 0 1 -8.62,-2.874 l -3.291,5.329 a 20.216,20.216 0 0 0 11.866,3.711 m -20.9,-10.937 a 14.407,14.407 0 0 0 -2.526,-0.695 16.448,16.448 0 0 0 -3.082,-0.278 7.214,7.214 0 0 0 -4.125,1.02 3.328,3.328 0 0 0 -1.483,2.92 v 0.092 a 3.045,3.045 0 0 0 1.367,2.688 5.843,5.843 0 0 0 3.361,0.926 8.546,8.546 0 0 0 2.572,-0.371 6.622,6.622 0 0 0 2.062,-1.044 4.738,4.738 0 0 0 1.367,-1.622 4.544,4.544 0 0 0 0.487,-2.109 v -1.526 z m -0.14,10.38 V 63.7 a 10.453,10.453 0 0 1 -3.2,2.5 10.094,10.094 0 0 1 -4.728,1.02 11.216,11.216 0 0 1 -3.337,-0.487 8.2,8.2 0 0 1 -2.758,-1.437 6.983,6.983 0 0 1 -2.618,-5.63 V 59.58 a 7.684,7.684 0 0 1 0.742,-3.476 6.759,6.759 0 0 1 2.062,-2.457 9.241,9.241 0 0 1 3.151,-1.459 15.345,15.345 0 0 1 3.962,-0.487 21.837,21.837 0 0 1 3.778,0.278 23.067,23.067 0 0 1 2.99,0.741 v -0.6 a 4.877,4.877 0 0 0 -1.553,-3.894 6.641,6.641 0 0 0 -4.472,-1.343 14.965,14.965 0 0 0 -3.708,0.417 24.3,24.3 0 0 0 -3.291,1.112 l -1.529,-4.495 a 25.932,25.932 0 0 1 4.171,-1.483 20.6,20.6 0 0 1 5.145,-0.557 q 5.467,0 8.111,2.712 2.644,2.712 2.636,7.621 v 14.506 h -5.562 z M 221.685,59.06 a 3.042,3.042 0 0 0 0.788,2.347 3.178,3.178 0 0 0 2.225,0.72 7.676,7.676 0 0 0 3.476,-0.834 v 4.588 a 9.82,9.82 0 0 1 -2.271,0.928 10.771,10.771 0 0 1 -2.78,0.324 10.374,10.374 0 0 1 -2.839,-0.371 5.8,5.8 0 0 1 -2.266,-1.209 5.357,5.357 0 0 1 -1.472,-2.206 9.769,9.769 0 0 1 -0.514,-3.415 V 47.019 h -3.105 v -4.773 h 3.105 v -6.72 h 5.654 v 6.72 h 6.582 v 4.774 h -6.582 v 12.04 z m -18.678,-2.725 a 14.408,14.408 0 0 0 -2.526,-0.695 16.448,16.448 0 0 0 -3.082,-0.278 7.217,7.217 0 0 0 -4.125,1.02 3.328,3.328 0 0 0 -1.483,2.92 v 0.092 a 3.045,3.045 0 0 0 1.367,2.688 5.843,5.843 0 0 0 3.361,0.926 8.553,8.553 0 0 0 2.572,-0.371 6.622,6.622 0 0 0 2.062,-1.044 4.739,4.739 0 0 0 1.367,-1.622 4.545,4.545 0 0 0 0.487,-2.109 v -1.526 z m -0.14,10.38 V 63.7 a 10.453,10.453 0 0 1 -3.2,2.5 10.094,10.094 0 0 1 -4.728,1.02 11.216,11.216 0 0 1 -3.337,-0.487 8.2,8.2 0 0 1 -2.758,-1.437 6.983,6.983 0 0 1 -2.618,-5.63 V 59.58 a 7.7,7.7 0 0 1 0.741,-3.476 6.759,6.759 0 0 1 2.062,-2.457 9.241,9.241 0 0 1 3.151,-1.459 15.345,15.345 0 0 1 3.962,-0.487 21.838,21.838 0 0 1 3.778,0.278 23.069,23.069 0 0 1 2.99,0.741 v -0.6 a 4.877,4.877 0 0 0 -1.553,-3.894 6.641,6.641 0 0 0 -4.473,-1.343 14.966,14.966 0 0 0 -3.708,0.417 24.227,24.227 0 0 0 -3.291,1.112 l -1.529,-4.495 a 25.934,25.934 0 0 1 4.171,-1.483 20.6,20.6 0 0 1 5.145,-0.557 q 5.467,0 8.111,2.712 2.644,2.712 2.642,7.624 v 14.503 h -5.56 z M 174.761,51.237 a 7.941,7.941 0 0 0 -1.548,-2.479 6.761,6.761 0 0 0 -4.942,-2.155 6.915,6.915 0 0 0 -2.7,0.533 6.6,6.6 0 0 0 -2.241,1.553 7.319,7.319 0 0 0 -1.524,2.479 9.286,9.286 0 0 0 -0.553,3.313 9.18,9.18 0 0 0 0.553,3.267 7.289,7.289 0 0 0 1.524,2.479 6.87,6.87 0 0 0 2.241,1.576 6.768,6.768 0 0 0 7.644,-1.6 7.941,7.941 0 0 0 1.548,-2.479 9.4,9.4 0 0 0 0,-6.488 m 0.485,15.479 v -4.077 a 12.638,12.638 0 0 1 -3.353,3.243 8.751,8.751 0 0 1 -4.97,1.345 10.976,10.976 0 0 1 -4.208,-0.834 10.434,10.434 0 0 1 -3.607,-2.479 12.7,12.7 0 0 1 -2.542,-4.009 14.182,14.182 0 0 1 -0.971,-5.423 14.466,14.466 0 0 1 0.948,-5.422 12.4,12.4 0 0 1 2.52,-4.009 10.365,10.365 0 0 1 3.629,-2.479 11.151,11.151 0 0 1 4.23,-0.834 8.96,8.96 0 0 1 4.993,1.3 13.686,13.686 0 0 1 3.329,3.013 V 32.884 h 5.654 v 33.832 z m -42.915,0 h -3.568 V 42.756 h 3.568 v 4.171 a 11.263,11.263 0 0 1 3.151,-3.313 8.608,8.608 0 0 1 5.051,-1.367 10.12,10.12 0 0 1 3.87,0.695 8.011,8.011 0 0 1 2.874,1.97 8.679,8.679 0 0 1 1.808,3.036 11.571,11.571 0 0 1 0.626,3.894 v 14.875 h -3.568 v -14 a 7.713,7.713 0 0 0 -1.714,-5.283 6.2,6.2 0 0 0 -4.912,-1.946 7.543,7.543 0 0 0 -2.85,0.533 6.68,6.68 0 0 0 -2.295,1.529 6.919,6.919 0 0 0 -1.507,2.387 8.483,8.483 0 0 0 -0.535,3.063 v 13.716 z m -13.487,-13.3 a 12.343,12.343 0 0 0 -0.669,-3.105 8.26,8.26 0 0 0 -1.473,-2.595 7.13,7.13 0 0 0 -2.3,-1.784 7.051,7.051 0 0 0 -3.156,-0.672 6.762,6.762 0 0 0 -2.9,0.626 7.573,7.573 0 0 0 -2.358,1.715 9.059,9.059 0 0 0 -1.659,2.572 10.927,10.927 0 0 0 -0.829,3.245 h 15.341 z m -14.416,6.094 a 8.317,8.317 0 0 0 1.9,2.549 7.992,7.992 0 0 0 2.595,1.575 8.591,8.591 0 0 0 3.012,0.533 9.188,9.188 0 0 0 4.287,-0.926 12.715,12.715 0 0 0 3.267,-2.457 l 2.225,1.994 a 14.66,14.66 0 0 1 -4.125,3.267 12.172,12.172 0 0 1 -5.748,1.228 11.961,11.961 0 0 1 -4.634,-0.9 11.525,11.525 0 0 1 -3.811,-2.549 12.133,12.133 0 0 1 -2.595,-3.963 13.153,13.153 0 0 1 -0.963,-5.1 13.829,13.829 0 0 1 0.858,-4.89 12.274,12.274 0 0 1 2.387,-3.986 11.136,11.136 0 0 1 3.638,-2.664 11.564,11.564 0 0 1 9.34,0.022 10.355,10.355 0 0 1 3.522,2.712 11.78,11.78 0 0 1 2.178,4.032 16.21,16.21 0 0 1 0.742,4.959 v 0.509 a 4.386,4.386 0 0 1 -0.046,0.6 H 103.5 a 9.817,9.817 0 0 0 0.926,3.454 M 90.411,50.932 A 9.043,9.043 0 0 0 88.581,48 a 7.887,7.887 0 0 0 -2.688,-1.867 8.27,8.27 0 0 0 -3.245,-0.645 8.07,8.07 0 0 0 -3.221,0.669 9.1,9.1 0 0 0 -2.78,1.868 8.734,8.734 0 0 0 -1.947,2.909 9.649,9.649 0 0 0 -0.718,3.781 9.819,9.819 0 0 0 0.718,3.8 8.7,8.7 0 0 0 1.946,2.928 9.124,9.124 0 0 0 2.78,1.868 8.068,8.068 0 0 0 3.221,0.668 8.718,8.718 0 0 0 3.267,-0.622 7.678,7.678 0 0 0 2.688,-1.8 8.628,8.628 0 0 0 1.808,-2.906 10.7,10.7 0 0 0 0.672,-3.9 10.387,10.387 0 0 0 -0.672,-3.829 M 93.77,60 a 12.069,12.069 0 0 1 -2.57,3.912 11.248,11.248 0 0 1 -3.662,2.457 10.96,10.96 0 0 1 -4.241,0.858 10.642,10.642 0 0 1 -3.059,-0.417 10.273,10.273 0 0 1 -2.5,-1.112 10.789,10.789 0 0 1 -2.016,-1.622 14.5,14.5 0 0 1 -1.6,-1.946 v 12 H 70.55 V 42.756 h 3.568 v 4.82 a 18.659,18.659 0 0 1 1.645,-2.04 10.657,10.657 0 0 1 2.016,-1.692 10.469,10.469 0 0 1 2.479,-1.158 9.868,9.868 0 0 1 3.036,-0.441 11.292,11.292 0 0 1 7.879,3.267 11.869,11.869 0 0 1 2.595,3.916 A 14.844,14.844 0 0 1 93.77,60 M 59.776,51.13 A 9.142,9.142 0 0 0 57.9,48.149 9.022,9.022 0 0 0 55.072,46.138 8.387,8.387 0 0 0 51.55,45.397 a 8.741,8.741 0 0 0 -3.568,0.717 7.954,7.954 0 0 0 -2.76,1.986 9.467,9.467 0 0 0 -1.784,2.959 10.019,10.019 0 0 0 -0.649,3.629 9.883,9.883 0 0 0 0.672,3.653 9.07,9.07 0 0 0 1.854,2.959 8.9,8.9 0 0 0 2.8,1.987 8.386,8.386 0 0 0 3.522,0.739 8.74,8.74 0 0 0 3.568,-0.715 8.332,8.332 0 0 0 2.78,-1.965 9.028,9.028 0 0 0 1.815,-2.934 10.375,10.375 0 0 0 -0.022,-7.281 m 3.383,8.426 a 12.635,12.635 0 0 1 -2.618,4.009 12.23,12.23 0 0 1 -3.986,2.712 12.53,12.53 0 0 1 -5.005,1 12.226,12.226 0 0 1 -4.959,-1 12.569,12.569 0 0 1 -3.94,-2.688 12.067,12.067 0 0 1 -2.595,-3.963 12.612,12.612 0 0 1 -0.926,-4.82 12.834,12.834 0 0 1 0.926,-4.844 12.163,12.163 0 0 1 6.558,-6.721 12.676,12.676 0 0 1 13.972,2.688 12.092,12.092 0 0 1 2.595,3.963 12.912,12.912 0 0 1 -0.024,9.663"
       data-name="Tracé 1"
       id="Tracé_1"
       inkscape:connector-curvature="0"
       style="fill:#ffffff" /><path
       transform="translate(0,-254.33)"
       d="m 338.145,342.1 a 3.385,3.385 0 0 0 -0.818,-1.069 3.724,3.724 0 0 0 -1.164,-0.684 3.931,3.931 0 0 0 -1.367,-0.241 3.844,3.844 0 0 0 -1.339,0.232 3.208,3.208 0 0 0 -1.1,0.674 3.158,3.158 0 0 0 -0.741,1.069 3.5,3.5 0 0 0 -0.27,1.4 3.359,3.359 0 0 0 1.029,2.474 3.252,3.252 0 0 0 1.1,0.693 3.643,3.643 0 0 0 1.318,0.241 3.9,3.9 0 0 0 1.367,-0.241 3.705,3.705 0 0 0 1.164,-0.683 3.391,3.391 0 0 0 0.818,-1.069 3.327,3.327 0 0 0 0,-2.791 m 1.377,7.248 a 4,4 0 0 1 -1.02,1.511 4.373,4.373 0 0 1 -1.6,0.915 6.659,6.659 0 0 1 -2.089,0.308 8.163,8.163 0 0 1 -2.387,-0.346 7.66,7.66 0 0 1 -2.136,-1.039 l 0.674,-1.155 a 7.178,7.178 0 0 0 1.81,0.944 6.1,6.1 0 0 0 2.021,0.327 3.767,3.767 0 0 0 2.637,-0.894 3.4,3.4 0 0 0 0.982,-2.647 V 346.1 a 6.312,6.312 0 0 1 -1.6,1.483 4.131,4.131 0 0 1 -2.309,0.615 4.888,4.888 0 0 1 -1.741,-0.317 4.51,4.51 0 0 1 -2.541,-2.4 4.682,4.682 0 0 1 -0.395,-1.963 4.748,4.748 0 0 1 0.395,-1.973 4.538,4.538 0 0 1 1.048,-1.483 4.669,4.669 0 0 1 1.5,-0.934 4.753,4.753 0 0 1 1.732,-0.327 4.81,4.81 0 0 1 1.28,0.163 4.645,4.645 0 0 1 1.058,0.433 4.482,4.482 0 0 1 0.856,0.636 6.542,6.542 0 0 1 0.693,0.769 v -1.791 h 1.483 v 8.218 a 5.859,5.859 0 0 1 -0.358,2.117 m -19.393,-0.385 h -1.483 v -9.952 h 1.483 v 1.732 a 4.676,4.676 0 0 1 1.308,-1.377 3.57,3.57 0 0 1 2.1,-0.568 4.207,4.207 0 0 1 1.607,0.289 3.329,3.329 0 0 1 1.194,0.818 3.617,3.617 0 0 1 0.75,1.261 4.814,4.814 0 0 1 0.26,1.618 v 6.179 h -1.483 v -5.813 a 3.206,3.206 0 0 0 -0.712,-2.195 2.572,2.572 0 0 0 -2.04,-0.809 3.142,3.142 0 0 0 -1.185,0.222 2.754,2.754 0 0 0 -0.953,0.636 2.836,2.836 0 0 0 -0.625,0.991 3.525,3.525 0 0 0 -0.222,1.27 v 5.7 z m -6.314,-9.952 h 1.495 v 9.952 h -1.483 z m -0.1,-3.811 h 1.694 v 1.637 h -1.694 z m -6.255,13.763 h -1.483 v -9.952 h 1.483 v 2.6 a 5.259,5.259 0 0 1 0.674,-1.136 4.489,4.489 0 0 1 0.925,-0.895 3.928,3.928 0 0 1 1.136,-0.568 4.059,4.059 0 0 1 1.329,-0.173 v 1.6 h -0.116 a 4.091,4.091 0 0 0 -1.531,0.289 3.442,3.442 0 0 0 -1.261,0.866 4.087,4.087 0 0 0 -0.847,1.434 5.8,5.8 0 0 0 -0.308,1.973 v 3.965 z m -11.013,-4.485 A 1.8,1.8 0 0 0 295.7,346 a 1.723,1.723 0 0 0 0.2,0.847 1.959,1.959 0 0 0 0.547,0.625 2.51,2.51 0 0 0 0.8,0.395 3.281,3.281 0 0 0 0.95,0.135 4.051,4.051 0 0 0 1.294,-0.2 3.458,3.458 0 0 0 1.056,-0.558 2.645,2.645 0 0 0 0.709,-0.847 2.292,2.292 0 0 0 0.259,-1.088 v -0.963 c -0.371,-0.1 -0.8,-0.2 -1.275,-0.289 a 8.92,8.92 0 0 0 -1.64,-0.135 3.541,3.541 0 0 0 -2.149,0.558 m 0.473,-4.09 a 8.913,8.913 0 0 0 -1.415,0.53 l -0.442,-1.213 a 9.873,9.873 0 0 1 1.675,-0.606 7.724,7.724 0 0 1 1.944,-0.222 4.463,4.463 0 0 1 3.137,1.01 3.872,3.872 0 0 1 1.1,2.993 v 6.082 h -1.424 v -1.5 a 4.884,4.884 0 0 1 -1.4,1.194 4.267,4.267 0 0 1 -2.2,0.52 4.85,4.85 0 0 1 -1.358,-0.192 3.714,3.714 0 0 1 -1.194,-0.587 2.985,2.985 0 0 1 -0.847,-0.972 2.787,2.787 0 0 1 -0.317,-1.367 3.049,3.049 0 0 1 0.308,-1.4 2.747,2.747 0 0 1 0.875,-1.01 4.2,4.2 0 0 1 1.348,-0.615 6.571,6.571 0 0 1 1.722,-0.211 10.5,10.5 0 0 1 1.675,0.116 11.883,11.883 0 0 1 1.386,0.308 V 342.9 a 2.554,2.554 0 0 0 -0.78,-2.03 3.21,3.21 0 0 0 -2.186,-0.684 5.837,5.837 0 0 0 -1.6,0.2 m -12.271,8.575 h -1.483 v -14.053 h 1.483 v 5.833 a 4.676,4.676 0 0 1 1.308,-1.377 3.57,3.57 0 0 1 2.1,-0.568 4.206,4.206 0 0 1 1.607,0.289 3.33,3.33 0 0 1 1.194,0.818 3.617,3.617 0 0 1 0.75,1.261 4.813,4.813 0 0 1 0.26,1.618 v 6.179 h -1.483 v -5.813 a 3.206,3.206 0 0 0 -0.712,-2.2 2.574,2.574 0 0 0 -2.041,-0.809 3.129,3.129 0 0 0 -1.183,0.222 2.757,2.757 0 0 0 -0.953,0.636 2.838,2.838 0 0 0 -0.625,0.991 3.526,3.526 0 0 0 -0.222,1.27 v 5.7 z m -4.417,-1.531 a 2.869,2.869 0 0 1 -0.75,0.934 3.3,3.3 0 0 1 -1.117,0.587 4.639,4.639 0 0 1 -1.4,0.2 6.386,6.386 0 0 1 -2.174,-0.395 6.762,6.762 0 0 1 -1.944,-1.069 l 0.75,-1.059 a 6.6,6.6 0 0 0 1.684,0.944 4.981,4.981 0 0 0 1.762,0.327 2.438,2.438 0 0 0 1.481,-0.423 1.355,1.355 0 0 0 0.577,-1.155 v -0.038 a 1.032,1.032 0 0 0 -0.2,-0.636 1.819,1.819 0 0 0 -0.549,-0.471 4.448,4.448 0 0 0 -0.8,-0.357 c -0.3,-0.1 -0.612,-0.2 -0.934,-0.289 q -0.578,-0.174 -1.164,-0.376 a 4.751,4.751 0 0 1 -1.059,-0.511 2.564,2.564 0 0 1 -0.769,-0.771 2.079,2.079 0 0 1 -0.3,-1.155 v -0.038 a 2.691,2.691 0 0 1 0.251,-1.164 2.613,2.613 0 0 1 0.7,-0.906 3.211,3.211 0 0 1 1.078,-0.577 4.389,4.389 0 0 1 1.358,-0.2 6.181,6.181 0 0 1 1.867,0.3 7.02,7.02 0 0 1 1.713,0.8 l -0.674,1.117 a 6.738,6.738 0 0 0 -1.453,-0.7 4.607,4.607 0 0 0 -1.492,-0.26 2.193,2.193 0 0 0 -1.405,0.414 1.269,1.269 0 0 0 -0.52,1.029 v 0.038 a 0.92,0.92 0 0 0 0.213,0.606 1.86,1.86 0 0 0 0.568,0.452 5.059,5.059 0 0 0 0.818,0.346 q 0.462,0.154 0.963,0.308 c 0.385,0.116 0.766,0.244 1.145,0.385 a 4.429,4.429 0 0 1 1.029,0.539 2.637,2.637 0 0 1 0.741,0.79 2.164,2.164 0 0 1 0.279,1.136 v 0.038 a 2.755,2.755 0 0 1 -0.279,1.266 m -21.764,-2.955 a 1.8,1.8 0 0 0 -0.749,1.521 1.724,1.724 0 0 0 0.2,0.847 1.941,1.941 0 0 0 0.547,0.625 2.51,2.51 0 0 0 0.8,0.395 3.274,3.274 0 0 0 0.95,0.135 4.051,4.051 0 0 0 1.294,-0.2 3.431,3.431 0 0 0 1.055,-0.558 2.649,2.649 0 0 0 0.71,-0.847 2.291,2.291 0 0 0 0.259,-1.088 v -0.963 c -0.371,-0.1 -0.8,-0.2 -1.277,-0.289 a 8.92,8.92 0 0 0 -1.64,-0.135 3.542,3.542 0 0 0 -2.147,0.558 m 0.474,-4.09 a 8.861,8.861 0 0 0 -1.415,0.53 l -0.443,-1.213 a 9.875,9.875 0 0 1 1.675,-0.606 7.724,7.724 0 0 1 1.944,-0.222 4.463,4.463 0 0 1 3.137,1.01 3.872,3.872 0 0 1 1.1,2.993 v 6.082 h -1.424 v -1.5 a 4.886,4.886 0 0 1 -1.4,1.194 4.267,4.267 0 0 1 -2.2,0.52 4.851,4.851 0 0 1 -1.358,-0.192 3.714,3.714 0 0 1 -1.194,-0.587 2.986,2.986 0 0 1 -0.847,-0.972 2.8,2.8 0 0 1 -0.317,-1.367 3.049,3.049 0 0 1 0.308,-1.4 2.762,2.762 0 0 1 0.875,-1.01 4.182,4.182 0 0 1 1.348,-0.615 6.572,6.572 0 0 1 1.722,-0.211 10.5,10.5 0 0 1 1.675,0.116 11.885,11.885 0 0 1 1.386,0.308 v -0.35 a 2.554,2.554 0 0 0 -0.78,-2.03 3.21,3.21 0 0 0 -2.185,-0.684 5.829,5.829 0 0 0 -1.605,0.2 m -7.67,5.746 a 1.558,1.558 0 0 0 0.462,1.289 1.894,1.894 0 0 0 1.213,0.366 3.171,3.171 0 0 0 0.722,-0.078 3.242,3.242 0 0 0 0.722,-0.27 v 1.27 a 3.307,3.307 0 0 1 -0.818,0.317 4.141,4.141 0 0 1 -0.972,0.106 3.957,3.957 0 0 1 -1.117,-0.154 2.192,2.192 0 0 1 -1.493,-1.366 3.524,3.524 0 0 1 -0.213,-1.289 v -6.006 H 248.4 v -1.308 h 1.386 v -3 h 1.483 v 3 h 3.158 v 1.308 h -3.158 v 5.814 z m -11.437,-1.656 a 1.8,1.8 0 0 0 -0.749,1.521 1.724,1.724 0 0 0 0.2,0.847 1.923,1.923 0 0 0 0.547,0.625 2.51,2.51 0 0 0 0.8,0.395 3.281,3.281 0 0 0 0.95,0.135 4.051,4.051 0 0 0 1.294,-0.2 3.458,3.458 0 0 0 1.056,-0.558 2.67,2.67 0 0 0 0.711,-0.847 2.291,2.291 0 0 0 0.259,-1.088 v -0.963 c -0.371,-0.1 -0.8,-0.2 -1.275,-0.289 a 8.92,8.92 0 0 0 -1.64,-0.135 3.543,3.543 0 0 0 -2.151,0.558 m 0.473,-4.09 a 8.915,8.915 0 0 0 -1.415,0.53 l -0.442,-1.213 a 9.874,9.874 0 0 1 1.675,-0.606 7.724,7.724 0 0 1 1.944,-0.222 4.465,4.465 0 0 1 3.137,1.01 3.872,3.872 0 0 1 1.1,2.993 v 6.082 h -1.424 v -1.5 a 4.906,4.906 0 0 1 -1.4,1.194 4.267,4.267 0 0 1 -2.2,0.52 4.85,4.85 0 0 1 -1.358,-0.192 3.691,3.691 0 0 1 -1.193,-0.587 2.985,2.985 0 0 1 -0.847,-0.972 2.8,2.8 0 0 1 -0.317,-1.367 3.049,3.049 0 0 1 0.308,-1.4 2.747,2.747 0 0 1 0.875,-1.01 4.2,4.2 0 0 1 1.348,-0.615 6.571,6.571 0 0 1 1.722,-0.211 10.529,10.529 0 0 1 1.675,0.116 11.884,11.884 0 0 1 1.386,0.308 V 342.9 a 2.554,2.554 0 0 0 -0.78,-2.03 3.21,3.21 0 0 0 -2.186,-0.684 5.841,5.841 0 0 0 -1.607,0.2 m -6.929,2.019 a 3.67,3.67 0 0 0 -0.809,-1.207 3.792,3.792 0 0 0 -1.155,-0.775 3.34,3.34 0 0 0 -1.339,-0.278 3.579,3.579 0 0 0 -1.367,0.259 3.206,3.206 0 0 0 -1.107,0.747 3.569,3.569 0 0 0 -0.75,1.207 4.448,4.448 0 0 0 -0.279,1.618 4.311,4.311 0 0 0 0.279,1.589 3.724,3.724 0 0 0 0.76,1.216 3.294,3.294 0 0 0 1.117,0.775 3.419,3.419 0 0 0 1.348,0.268 3.352,3.352 0 0 0 1.339,-0.278 3.791,3.791 0 0 0 1.155,-0.776 3.63,3.63 0 0 0 0.809,-1.216 4.091,4.091 0 0 0 0.3,-1.58 3.993,3.993 0 0 0 -0.3,-1.57 m 0.241,6.557 v -2 a 7.829,7.829 0 0 1 -0.684,0.847 4.674,4.674 0 0 1 -0.837,0.712 3.882,3.882 0 0 1 -1.029,0.481 4.3,4.3 0 0 1 -1.261,0.173 4.6,4.6 0 0 1 -1.751,-0.346 4.679,4.679 0 0 1 -1.521,-1.01 4.935,4.935 0 0 1 -1.078,-1.627 6.158,6.158 0 0 1 0,-4.39 4.926,4.926 0 0 1 1.078,-1.627 4.812,4.812 0 0 1 1.521,-1.02 4.464,4.464 0 0 1 1.751,-0.355 4.4,4.4 0 0 1 1.27,0.173 4.276,4.276 0 0 1 1.039,0.462 4.476,4.476 0 0 1 0.837,0.674 6.073,6.073 0 0 1 0.665,0.809 v -6.006 h 1.467 v 14.052 h -1.483 z m -19.885,0 h -1.483 v -9.952 h 1.483 v 2.6 a 5.26,5.26 0 0 1 0.674,-1.136 4.49,4.49 0 0 1 0.925,-0.895 3.908,3.908 0 0 1 1.136,-0.568 4.056,4.056 0 0 1 1.327,-0.173 v 1.6 h -0.116 a 4.1,4.1 0 0 0 -1.53,0.289 3.454,3.454 0 0 0 -1.261,0.866 4.087,4.087 0 0 0 -0.847,1.434 5.8,5.8 0 0 0 -0.308,1.973 z m -5.86,-6.474 a 3.815,3.815 0 0 0 -0.78,-1.239 3.754,3.754 0 0 0 -1.174,-0.836 3.488,3.488 0 0 0 -1.462,-0.308 3.636,3.636 0 0 0 -1.483,0.3 3.3,3.3 0 0 0 -1.145,0.826 3.949,3.949 0 0 0 -0.741,1.229 4.171,4.171 0 0 0 -0.27,1.507 4.128,4.128 0 0 0 0.279,1.518 3.767,3.767 0 0 0 0.769,1.229 3.717,3.717 0 0 0 1.164,0.826 3.487,3.487 0 0 0 1.462,0.308 3.61,3.61 0 0 0 1.483,-0.3 3.46,3.46 0 0 0 1.155,-0.817 3.743,3.743 0 0 0 0.75,-1.22 4.172,4.172 0 0 0 0.27,-1.507 4.127,4.127 0 0 0 -0.278,-1.518 m 1.405,3.5 a 5.2,5.2 0 0 1 -1.088,1.665 5.082,5.082 0 0 1 -1.656,1.126 5.211,5.211 0 0 1 -2.079,0.414 5.076,5.076 0 0 1 -2.06,-0.414 5.25,5.25 0 0 1 -1.637,-1.117 5.018,5.018 0 0 1 -1.079,-1.646 5.237,5.237 0 0 1 -0.385,-2 5.308,5.308 0 0 1 0.385,-2.011 5.054,5.054 0 0 1 2.725,-2.791 5.266,5.266 0 0 1 5.8,1.116 5.035,5.035 0 0 1 1.078,1.646 5.353,5.353 0 0 1 -0.01,4.012 m -10.962,-6.94 v 1.27 h -3.139 v 8.644 H 193.7 v -8.644 h -1.367 v -1.289 h 1.367 v -0.866 a 3.545,3.545 0 0 1 0.78,-2.484 2.872,2.872 0 0 1 2.224,-0.847 6.034,6.034 0 0 1 0.895,0.057 3.859,3.859 0 0 1 0.741,0.192 v 1.289 c -0.27,-0.078 -0.514,-0.138 -0.731,-0.182 a 3.572,3.572 0 0 0 -0.712,-0.067 q -1.732,0 -1.732,2.117 v 0.809 z m -21.136,9.914 H 175.7 v -9.952 h 1.483 v 1.732 a 4.676,4.676 0 0 1 1.308,-1.377 3.57,3.57 0 0 1 2.1,-0.568 4.207,4.207 0 0 1 1.607,0.289 3.329,3.329 0 0 1 1.194,0.818 3.617,3.617 0 0 1 0.75,1.261 4.814,4.814 0 0 1 0.26,1.618 v 6.179 h -1.483 v -5.813 a 3.206,3.206 0 0 0 -0.712,-2.195 2.574,2.574 0 0 0 -2.041,-0.809 3.128,3.128 0 0 0 -1.183,0.222 2.755,2.755 0 0 0 -0.953,0.636 2.863,2.863 0 0 0 -0.626,0.991 3.526,3.526 0 0 0 -0.22,1.27 v 5.7 z m -5.862,-6.474 a 3.75,3.75 0 0 0 -1.954,-2.074 3.488,3.488 0 0 0 -1.462,-0.308 3.636,3.636 0 0 0 -1.483,0.3 3.3,3.3 0 0 0 -1.145,0.826 3.949,3.949 0 0 0 -0.741,1.229 4.173,4.173 0 0 0 -0.27,1.507 4.128,4.128 0 0 0 0.279,1.518 3.766,3.766 0 0 0 0.769,1.229 3.716,3.716 0 0 0 1.164,0.826 3.487,3.487 0 0 0 1.462,0.308 3.61,3.61 0 0 0 1.483,-0.3 3.46,3.46 0 0 0 1.155,-0.817 3.743,3.743 0 0 0 0.75,-1.22 4.172,4.172 0 0 0 0.267,-1.509 4.1,4.1 0 0 0 -0.278,-1.518 m 1.405,3.5 a 5.2,5.2 0 0 1 -1.088,1.665 5.082,5.082 0 0 1 -1.656,1.126 5.211,5.211 0 0 1 -2.079,0.414 5.076,5.076 0 0 1 -2.06,-0.414 5.251,5.251 0 0 1 -1.637,-1.117 5.018,5.018 0 0 1 -1.078,-1.646 5.237,5.237 0 0 1 -0.385,-2 5.309,5.309 0 0 1 0.385,-2.011 5.053,5.053 0 0 1 2.725,-2.791 5.266,5.266 0 0 1 5.8,1.116 5.035,5.035 0 0 1 1.078,1.646 5.353,5.353 0 0 1 -0.009,4.012 m -14.195,-6.978 h 1.483 v 9.952 h -1.483 z m -0.1,-3.811 h 1.694 v 1.637 h -1.694 z m -5.717,10.934 a 1.559,1.559 0 0 0 0.462,1.289 1.9,1.9 0 0 0 1.213,0.366 3.181,3.181 0 0 0 0.722,-0.078 3.241,3.241 0 0 0 0.722,-0.27 v 1.27 a 3.306,3.306 0 0 1 -0.818,0.317 4.142,4.142 0 0 1 -0.972,0.106 3.958,3.958 0 0 1 -1.117,-0.154 2.192,2.192 0 0 1 -1.481,-1.367 3.525,3.525 0 0 1 -0.211,-1.289 v -6.006 h -1.381 v -1.308 h 1.386 v -3 h 1.481 v 3 h 3.158 v 1.308 h -3.158 z m -6.7,-7.123 h 1.464 v 9.952 h -1.464 v -1.732 a 4.677,4.677 0 0 1 -1.308,1.377 3.57,3.57 0 0 1 -2.1,0.568 4.206,4.206 0 0 1 -1.607,-0.289 3.309,3.309 0 0 1 -1.193,-0.818 3.589,3.589 0 0 1 -0.75,-1.261 4.814,4.814 0 0 1 -0.26,-1.618 v -6.179 h 1.481 v 5.813 a 3.206,3.206 0 0 0 0.712,2.2 2.574,2.574 0 0 0 2.041,0.809 3.1,3.1 0 0 0 1.183,-0.222 2.641,2.641 0 0 0 0.944,-0.636 3.09,3.09 0 0 0 0.626,-0.991 3.4,3.4 0 0 0 0.232,-1.27 v -5.7 z m -11.895,-4.1 h 1.483 v 14.056 h -1.483 z m -4.514,7.578 a 3.75,3.75 0 0 0 -1.954,-2.074 3.488,3.488 0 0 0 -1.462,-0.308 3.636,3.636 0 0 0 -1.483,0.3 3.3,3.3 0 0 0 -1.145,0.826 3.95,3.95 0 0 0 -0.741,1.229 4.172,4.172 0 0 0 -0.27,1.507 4.128,4.128 0 0 0 0.279,1.518 3.682,3.682 0 0 0 1.935,2.055 3.487,3.487 0 0 0 1.462,0.308 3.61,3.61 0 0 0 1.483,-0.3 3.461,3.461 0 0 0 1.155,-0.817 3.744,3.744 0 0 0 0.75,-1.22 4.172,4.172 0 0 0 0.27,-1.507 4.128,4.128 0 0 0 -0.279,-1.518 m 1.405,3.5 a 5.2,5.2 0 0 1 -1.088,1.665 5.082,5.082 0 0 1 -1.656,1.126 5.211,5.211 0 0 1 -2.079,0.414 5.076,5.076 0 0 1 -2.06,-0.414 5.233,5.233 0 0 1 -1.637,-1.117 5.018,5.018 0 0 1 -1.078,-1.646 5.236,5.236 0 0 1 -0.385,-2 5.308,5.308 0 0 1 0.385,-2.011 5.053,5.053 0 0 1 2.725,-2.791 5.266,5.266 0 0 1 5.8,1.116 5.035,5.035 0 0 1 1.078,1.646 5.353,5.353 0 0 1 -0.01,4.012 m -12.3,1.443 a 2.868,2.868 0 0 1 -0.75,0.934 3.3,3.3 0 0 1 -1.117,0.587 4.639,4.639 0 0 1 -1.4,0.2 6.386,6.386 0 0 1 -2.174,-0.395 6.763,6.763 0 0 1 -1.944,-1.069 l 0.75,-1.059 a 6.6,6.6 0 0 0 1.684,0.944 4.981,4.981 0 0 0 1.762,0.327 2.447,2.447 0 0 0 1.483,-0.423 1.355,1.355 0 0 0 0.577,-1.155 v -0.038 a 1.032,1.032 0 0 0 -0.2,-0.636 1.818,1.818 0 0 0 -0.549,-0.471 4.448,4.448 0 0 0 -0.8,-0.357 c -0.3,-0.1 -0.612,-0.2 -0.934,-0.289 q -0.578,-0.174 -1.164,-0.376 a 4.706,4.706 0 0 1 -1.058,-0.511 2.588,2.588 0 0 1 -0.771,-0.771 2.079,2.079 0 0 1 -0.3,-1.155 v -0.038 a 2.668,2.668 0 0 1 0.251,-1.164 2.613,2.613 0 0 1 0.7,-0.906 3.211,3.211 0 0 1 1.078,-0.577 4.389,4.389 0 0 1 1.358,-0.2 6.181,6.181 0 0 1 1.867,0.3 6.992,6.992 0 0 1 1.713,0.8 l -0.674,1.117 a 6.738,6.738 0 0 0 -1.453,-0.7 4.607,4.607 0 0 0 -1.492,-0.26 2.2,2.2 0 0 0 -1.405,0.414 1.269,1.269 0 0 0 -0.52,1.029 v 0.038 a 0.927,0.927 0 0 0 0.211,0.606 1.86,1.86 0 0 0 0.568,0.452 5.061,5.061 0 0 0 0.818,0.346 q 0.462,0.154 0.963,0.308 0.578,0.174 1.145,0.385 a 4.429,4.429 0 0 1 1.029,0.539 2.636,2.636 0 0 1 0.741,0.79 2.164,2.164 0 0 1 0.279,1.136 v 0.038 a 2.754,2.754 0 0 1 -0.279,1.266 m -17.16,-5.33 a 3.408,3.408 0 0 0 -0.818,-1.069 3.708,3.708 0 0 0 -1.164,-0.684 3.932,3.932 0 0 0 -1.367,-0.241 3.828,3.828 0 0 0 -1.337,0.232 3.208,3.208 0 0 0 -1.1,0.674 3.159,3.159 0 0 0 -0.741,1.069 3.5,3.5 0 0 0 -0.27,1.4 3.358,3.358 0 0 0 1.029,2.474 3.252,3.252 0 0 0 1.1,0.693 3.644,3.644 0 0 0 1.318,0.241 3.9,3.9 0 0 0 1.367,-0.241 3.706,3.706 0 0 0 1.164,-0.683 3.39,3.39 0 0 0 0.818,-1.069 3.319,3.319 0 0 0 0,-2.791 m 1.377,7.248 a 4,4 0 0 1 -1.02,1.511 4.372,4.372 0 0 1 -1.6,0.915 6.666,6.666 0 0 1 -2.089,0.308 8.164,8.164 0 0 1 -2.387,-0.346 7.66,7.66 0 0 1 -2.136,-1.039 l 0.674,-1.155 a 7.178,7.178 0 0 0 1.81,0.944 6.1,6.1 0 0 0 2.021,0.327 3.767,3.767 0 0 0 2.637,-0.894 3.4,3.4 0 0 0 0.982,-2.647 V 346.1 a 6.313,6.313 0 0 1 -1.6,1.483 4.131,4.131 0 0 1 -2.309,0.615 4.888,4.888 0 0 1 -1.741,-0.317 4.51,4.51 0 0 1 -2.541,-2.4 4.683,4.683 0 0 1 -0.395,-1.963 4.749,4.749 0 0 1 0.395,-1.973 4.539,4.539 0 0 1 1.048,-1.483 4.67,4.67 0 0 1 1.5,-0.934 4.753,4.753 0 0 1 1.74,-0.328 4.81,4.81 0 0 1 1.28,0.163 4.688,4.688 0 0 1 1.059,0.433 4.483,4.483 0 0 1 0.856,0.636 6.543,6.543 0 0 1 0.693,0.769 v -1.791 h 1.483 v 8.218 a 5.824,5.824 0 0 1 -0.36,2.117 M 83.518,348.96 h -1.483 v -9.952 h 1.483 v 1.732 a 4.676,4.676 0 0 1 1.308,-1.377 3.57,3.57 0 0 1 2.1,-0.568 4.207,4.207 0 0 1 1.607,0.289 3.329,3.329 0 0 1 1.194,0.818 3.617,3.617 0 0 1 0.75,1.261 4.814,4.814 0 0 1 0.26,1.618 v 6.179 h -1.484 v -5.813 a 3.206,3.206 0 0 0 -0.712,-2.195 2.574,2.574 0 0 0 -2.041,-0.809 3.128,3.128 0 0 0 -1.183,0.222 2.755,2.755 0 0 0 -0.953,0.636 2.863,2.863 0 0 0 -0.626,0.991 3.527,3.527 0 0 0 -0.222,1.27 v 5.7 z M 77.2,339.008 h 1.483 v 9.952 H 77.2 Z m -0.1,-3.811 h 1.7 v 1.637 h -1.693 z m -4.968,7.203 a 3.645,3.645 0 0 0 -0.809,-1.207 3.792,3.792 0 0 0 -1.155,-0.775 3.34,3.34 0 0 0 -1.339,-0.278 3.578,3.578 0 0 0 -1.367,0.259 3.205,3.205 0 0 0 -1.107,0.747 3.569,3.569 0 0 0 -0.75,1.207 4.449,4.449 0 0 0 -0.279,1.618 4.311,4.311 0 0 0 0.279,1.589 3.724,3.724 0 0 0 0.76,1.216 3.294,3.294 0 0 0 1.117,0.775 3.419,3.419 0 0 0 1.348,0.268 3.352,3.352 0 0 0 1.339,-0.278 3.791,3.791 0 0 0 1.155,-0.776 3.63,3.63 0 0 0 0.809,-1.216 4.091,4.091 0 0 0 0.3,-1.58 4.021,4.021 0 0 0 -0.3,-1.57 m 0.241,6.557 v -2 a 7.837,7.837 0 0 1 -0.684,0.847 4.673,4.673 0 0 1 -0.837,0.712 3.881,3.881 0 0 1 -1.029,0.481 4.3,4.3 0 0 1 -1.261,0.173 4.6,4.6 0 0 1 -1.751,-0.346 4.679,4.679 0 0 1 -1.521,-1.01 4.936,4.936 0 0 1 -1.078,-1.627 6.159,6.159 0 0 1 0,-4.39 4.927,4.927 0 0 1 1.078,-1.627 4.812,4.812 0 0 1 1.521,-1.02 4.464,4.464 0 0 1 1.751,-0.355 4.4,4.4 0 0 1 1.27,0.173 4.276,4.276 0 0 1 1.039,0.462 4.475,4.475 0 0 1 0.837,0.674 6.076,6.076 0 0 1 0.665,0.809 v -6.006 h 1.483 v 14.052 h -1.484 z m -17.52,-4.485 A 1.8,1.8 0 0 0 54.1,346 a 1.724,1.724 0 0 0 0.2,0.847 1.941,1.941 0 0 0 0.547,0.625 2.51,2.51 0 0 0 0.8,0.395 3.274,3.274 0 0 0 0.95,0.135 4.051,4.051 0 0 0 1.294,-0.2 3.431,3.431 0 0 0 1.055,-0.558 2.65,2.65 0 0 0 0.711,-0.847 2.291,2.291 0 0 0 0.259,-1.088 v -0.963 c -0.371,-0.1 -0.8,-0.2 -1.275,-0.289 a 8.908,8.908 0 0 0 -1.64,-0.135 3.547,3.547 0 0 0 -2.149,0.558 m 0.474,-4.09 a 8.858,8.858 0 0 0 -1.415,0.53 L 53.47,339.7 a 9.875,9.875 0 0 1 1.675,-0.606 7.724,7.724 0 0 1 1.944,-0.222 4.462,4.462 0 0 1 3.137,1.01 3.872,3.872 0 0 1 1.1,2.993 v 6.082 H 59.9 v -1.5 a 4.885,4.885 0 0 1 -1.4,1.194 4.267,4.267 0 0 1 -2.2,0.52 4.858,4.858 0 0 1 -1.358,-0.192 3.691,3.691 0 0 1 -1.193,-0.587 2.985,2.985 0 0 1 -0.847,-0.972 2.787,2.787 0 0 1 -0.317,-1.367 3.049,3.049 0 0 1 0.308,-1.4 2.747,2.747 0 0 1 0.875,-1.01 4.2,4.2 0 0 1 1.348,-0.615 6.571,6.571 0 0 1 1.722,-0.211 10.515,10.515 0 0 1 1.675,0.116 11.885,11.885 0 0 1 1.386,0.308 V 342.9 a 2.559,2.559 0 0 0 -0.779,-2.03 3.21,3.21 0 0 0 -2.185,-0.684 5.837,5.837 0 0 0 -1.608,0.2 m -6.016,3.051 a 5.064,5.064 0 0 0 -0.278,-1.289 3.44,3.44 0 0 0 -0.612,-1.078 2.961,2.961 0 0 0 -0.956,-0.741 2.928,2.928 0 0 0 -1.31,-0.279 2.813,2.813 0 0 0 -1.205,0.26 3.143,3.143 0 0 0 -0.975,0.712 3.717,3.717 0 0 0 -0.688,1.069 4.515,4.515 0 0 0 -0.344,1.348 h 6.369 z m -5.986,2.531 a 3.431,3.431 0 0 0 0.79,1.058 3.325,3.325 0 0 0 1.078,0.655 3.573,3.573 0 0 0 1.251,0.222 3.821,3.821 0 0 0 1.781,-0.385 5.294,5.294 0 0 0 1.358,-1.02 l 0.925,0.828 a 6.13,6.13 0 0 1 -1.713,1.358 5.062,5.062 0 0 1 -2.387,0.511 4.972,4.972 0 0 1 -1.925,-0.376 4.808,4.808 0 0 1 -1.583,-1.058 5.055,5.055 0 0 1 -1.078,-1.646 5.473,5.473 0 0 1 -0.4,-2.117 5.736,5.736 0 0 1 0.357,-2.03 5.116,5.116 0 0 1 0.991,-1.656 4.627,4.627 0 0 1 1.511,-1.107 4.8,4.8 0 0 1 3.879,0.009 4.3,4.3 0 0 1 1.462,1.126 4.871,4.871 0 0 1 0.9,1.675 6.75,6.75 0 0 1 0.308,2.06 v 0.213 a 1.818,1.818 0 0 1 -0.019,0.251 h -7.868 a 4.012,4.012 0 0 0 0.382,1.431 M 30.66,335.485 h 1.521 v 12.069 h 7.584 v 1.405 H 30.66 Z"
       data-name="Tracé 2"
       id="Tracé_2"
       inkscape:connector-curvature="0"
       style="fill:#ffffff" /></g></svg>