<?xml version="1.0" encoding="UTF-8"?>
<svg width="250" height="91" overflow="auto" viewBox="-32 -32 175.8 64" xmlns="http://www.w3.org/2000/svg">
<g id="oi-logo" fill="white">
	<path d="M 320 0 A 320 320 0 0 0 0 320 A 320 320 0 0 0 320 640 A 320 320 0 0 0 360 637.0918 L 360 400 A 40 40 0 0 1 400 360 L 480 360 A 40 40 0 0 1 520 400 L 520 569.71094 A 320 320 0 0 0 640 320 A 320 320 0 0 0 320 0 z M 437.66406 190.0332 A 80 80 0 0 1 520 270 A 80 80 0 0 1 360 270 A 80 80 0 0 1 437.66406 190.0332 z" transform="translate(56) matrix(0.1,0,0,0.1,-32,-32)"></path>
</g>
</svg>

