<?xml version="1.0" encoding="UTF-8"?>
<svg width="640" height="640" overflow="auto" viewBox="-32 -32 64 64" xmlns="http://www.w3.org/2000/svg">
<mask id="oi-person"><path d="m-32-32h64v64h-12v-24a4 4 0 0 0 -4 -4h-8a4 4 0 0 0 -4 4v24h-36zm44 27m-8 0a8 8 0 1 0 16 0 8 8 0 1 0-16 0" fill="#fff"></path></mask>
<pattern id="oi-hex" x="0" y="0" width="1" height="1"><polygon fill="#00B6FF" points="2.3,11.0 9.2,7.0 9.2,-1.0 2.3,-5.0 -4.6,-1.0 -4.6,7.0 2.3,11.0" /><polygon fill="#2254F4" points="-4.6,23.0 2.3,19.0 2.3,11.0 -4.6,7.0 -11.6,11.0 -11.6,19.0 -4.6,23.0" /><polygon fill="#FF6700" points="2.3,35.0 9.2,31.0 9.2,23.0 2.3,19.0 -4.6,23.0 -4.6,31.0 2.3,35.0" /><polygon fill="#722EA5" points="-4.6,47.0 2.3,43.0 2.3,35.0 -4.6,31.0 -11.6,35.0 -11.6,43.0 -4.6,47.0" /><polygon fill="#F9BC26" points="2.3,59.0 9.2,55.0 9.2,47.0 2.3,43.0 -4.6,47.0 -4.6,55.0 2.3,59.0" /><polygon fill="#00B6FF" points="16.1,11.0 23.1,7.0 23.1,-1.0 16.1,-5.0 9.2,-1.0 9.2,7.0 16.1,11.0" /><polygon fill="#00B6FF" points="9.2,23.0 16.1,19.0 16.1,11.0 9.2,7.0 2.3,11.0 2.3,19.0 9.2,23.0" /><polygon fill="#2254F4" points="16.1,35.0 23.1,31.0 23.1,23.0 16.1,19.0 9.2,23.0 9.2,31.0 16.1,35.0" /><polygon fill="#08DEF9" points="9.2,47.0 16.1,43.0 16.1,35.0 9.2,31.0 2.3,35.0 2.3,43.0 9.2,47.0" /><polygon fill="#00B6FF" points="16.1,59.0 23.1,55.0 23.1,47.0 16.1,43.0 9.2,47.0 9.2,55.0 16.1,59.0" /><polygon fill="#0DBC37" points="9.2,71.0 16.1,67.0 16.1,59.0 9.2,55.0 2.3,59.0 2.3,67.0 9.2,71.0" /><polygon fill="#FF6700" points="30.0,11.0 36.9,7.0 36.9,-1.0 30.0,-5.0 23.1,-1.0 23.1,7.0 30.0,11.0" /><polygon fill="#0DBC37" points="23.1,23.0 30.0,19.0 30.0,11.0 23.1,7.0 16.1,11.0 16.1,19.0 23.1,23.0" /><polygon fill="#08DEF9" points="30.0,35.0 36.9,31.0 36.9,23.0 30.0,19.0 23.1,23.0 23.1,31.0 30.0,35.0" /><polygon fill="#67E767" points="23.1,47.0 30.0,43.0 30.0,35.0 23.1,31.0 16.1,35.0 16.1,43.0 23.1,47.0" /><polygon fill="#D73058" points="30.0,59.0 36.9,55.0 36.9,47.0 30.0,43.0 23.1,47.0 23.1,55.0 30.0,59.0" /><polygon fill="#178CFF" points="23.1,71.0 30.0,67.0 30.0,59.0 23.1,55.0 16.1,59.0 16.1,67.0 23.1,71.0" /><polygon fill="#0DBC37" points="43.9,11.0 50.8,7.0 50.8,-1.0 43.9,-5.0 36.9,-1.0 36.9,7.0 43.9,11.0" /><polygon fill="#D60303" points="36.9,23.0 43.9,19.0 43.9,11.0 36.9,7.0 30.0,11.0 30.0,19.0 36.9,23.0" /><polygon fill="#EF3AAB" points="43.9,35.0 50.8,31.0 50.8,23.0 43.9,19.0 36.9,23.0 36.9,31.0 43.9,35.0" /><polygon fill="#722EA5" points="36.9,47.0 43.9,43.0 43.9,35.0 36.9,31.0 30.0,35.0 30.0,43.0 36.9,47.0" /><polygon fill="#E6007C" points="43.9,59.0 50.8,55.0 50.8,47.0 43.9,43.0 36.9,47.0 36.9,55.0 43.9,59.0" /><polygon fill="#2254F4" points="36.9,71.0 43.9,67.0 43.9,59.0 36.9,55.0 30.0,59.0 30.0,67.0 36.9,71.0" /><polygon fill="#0DBC37" points="57.7,11.0 64.6,7.0 64.6,-1.0 57.7,-5.0 50.8,-1.0 50.8,7.0 57.7,11.0" /><polygon fill="#F9BC26" points="50.8,23.0 57.7,19.0 57.7,11.0 50.8,7.0 43.9,11.0 43.9,19.0 50.8,23.0" /><polygon fill="#67E767" points="57.7,35.0 64.6,31.0 64.6,23.0 57.7,19.0 50.8,23.0 50.8,31.0 57.7,35.0" /><polygon fill="#1DD3A7" points="50.8,47.0 57.7,43.0 57.7,35.0 50.8,31.0 43.9,35.0 43.9,43.0 50.8,47.0" /><polygon fill="#67E767" points="57.7,59.0 64.6,55.0 64.6,47.0 57.7,43.0 50.8,47.0 50.8,55.0 57.7,59.0" /><polygon fill="#00B6FF" points="50.8,71.0 57.7,67.0 57.7,59.0 50.8,55.0 43.9,59.0 43.9,67.0 50.8,71.0" /><polygon fill="#D73058" points="64.6,23.0 71.6,19.0 71.6,11.0 64.6,7.0 57.7,11.0 57.7,19.0 64.6,23.0" /><polygon fill="#722EA5" points="64.6,47.0 71.6,43.0 71.6,35.0 64.6,31.0 57.7,35.0 57.7,43.0 64.6,47.0" /></pattern>
<g id="oi-logo" fill="white"><circle r="32" mask="url(#oi-person)"></circle></g>
</svg>