<?xml version="1.0" encoding="UTF-8" standalone="no"?>
<!-- Created with Inkscape (http://www.inkscape.org/) -->

<svg
   xmlns:dc="http://purl.org/dc/elements/1.1/"
   xmlns:cc="http://creativecommons.org/ns#"
   xmlns:rdf="http://www.w3.org/1999/02/22-rdf-syntax-ns#"
   xmlns:svg="http://www.w3.org/2000/svg"
   xmlns="http://www.w3.org/2000/svg"
   xmlns:sodipodi="http://sodipodi.sourceforge.net/DTD/sodipodi-0.dtd"
   xmlns:inkscape="http://www.inkscape.org/namespaces/inkscape"
   width="250"
   height="91"
   viewBox="0 0 250 91"
   id="svg2"
   version="1.1"
   inkscape:version="0.92.2 (5c3e80d, 2017-08-06)"
   sodipodi:docname="opencontracting.svg"
   inkscape:export-filename="C:\Users\Amy\Desktop\Assets\arup.png"
   inkscape:export-xdpi="90"
   inkscape:export-ydpi="90">
  <defs
     id="defs4" />
  <sodipodi:namedview
     id="base"
     pagecolor="#ffffff"
     bordercolor="#666666"
     borderopacity="1.0"
     inkscape:pageopacity="0.0"
     inkscape:pageshadow="2"
     inkscape:zoom="1.3995495"
     inkscape:cx="229.63646"
     inkscape:cy="-31.635354"
     inkscape:document-units="px"
     inkscape:current-layer="layer1"
     showgrid="false"
     inkscape:window-width="1920"
     inkscape:window-height="1001"
     inkscape:window-x="-9"
     inkscape:window-y="-9"
     inkscape:window-maximized="1"
     units="px" />
  <metadata
     id="metadata7">
    <rdf:RDF>
      <cc:Work
         rdf:about="">
        <dc:format>image/svg+xml</dc:format>
        <dc:type
           rdf:resource="http://purl.org/dc/dcmitype/StillImage" />
        <dc:title></dc:title>
      </cc:Work>
    </rdf:RDF>
  </metadata>
  <g
     inkscape:label="Layer 1"
     inkscape:groupmode="layer"
     id="layer1"
     transform="translate(0,-961.4)">
    <rect
       style="opacity:0.001;fill:none;fill-opacity:1;stroke:none;stroke-width:2.5;stroke-linecap:round;stroke-linejoin:round;stroke-miterlimit:4;stroke-dasharray:none;stroke-dashoffset:0;stroke-opacity:1"
       id="rect4175"
       width="250"
       height="91"
       x="0"
       y="961.4" />
    <g
       id="g1078"
       transform="matrix(0.36753023,0,0,0.36753023,50.537984,561.72566)"
       style="fill:#ffffff">
      <path
         inkscape:connector-curvature="0"
         id="path1053"
         d="m 479.59044,1295.0935 -0.70631,-0.7063 v -1.8334 -1.8333 h 2.52605 2.52604 l -0.27604,-15.25 -0.27605,-15.25 -2.30845,-0.3272 -2.30846,-0.3272 0.31677,-1.6728 0.31677,-1.6728 3.9518,-0.3229 3.9518,-0.3229 1.15713,1.5825 1.15712,1.5824 2.88276,-1.5034 2.88276,-1.5034 h 3 l 3,-0.01 3.41519,1.7485 3.4152,1.7484 1.89634,3.5 1.89634,3.5 -0.42394,4.8458 -0.42394,4.8457 -3.47802,3.478 -3.47801,3.478 -3.94534,0.5292 -3.94535,0.5292 -3.71423,-1.5519 -3.71424,-1.5519 v 4.9489 4.949 h 3.06955 3.06955 l -0.31955,2.25 -0.31955,2.25 -7.04369,0.2897 -7.04369,0.2896 -0.70631,-0.7063 z m 22.22217,-16.836 2.82916,-1.463 0.62118,-1.6188 0.62118,-1.6188 v -3.6957 -3.6957 l -1.60091,-2.2856 -1.60092,-2.2856 -2.48606,-0.9452 -2.48607,-0.9452 -4.46164,1.9736 -4.46164,1.9736 0.29862,6.2847 0.29862,6.2847 3.5,1.7485 3.5,1.7484 h 1.29966 1.29966 l 2.82916,-1.463 z m -271.92848,4.169 -2.5,-1.2645 -1.24286,-2.592 -1.24286,-2.592 1.04263,-2.9909 1.04264,-2.9909 2.49728,-1.1379 2.49727,-1.1378 h 5.45295 5.45294 v -2.4433 -2.4433 l -2.22251,-1.5567 -2.22249,-1.5567 -1.52751,0.01 -1.52749,0.01 -2.88474,1.5045 -2.88476,1.5044 -1.36524,-1.1331 -1.36526,-1.133 v -0.9286 -0.9286 l 3.46789,-1.449 3.46788,-1.4489 h 3.58178 3.58178 l 2.93585,1.5182 2.93586,1.5182 0.51263,2.2318 0.51264,2.2318 0.25185,8 0.25184,8 2.25001,0.3195 2.25,0.3196 v 1.4304 1.4305 h -4.41667 -4.41666 l -0.35334,-1.06 -0.35334,-1.0601 -2.98,1.5539 -2.97999,1.5539 -2.5,-0.01 -2.5,-0.01 -2.5,-1.2646 z m 10.4349,-3.6812 2.5651,-0.9753 v -2.9178 -2.9177 l -1.58179,-0.607 -1.58178,-0.607 h -2.80744 -2.80743 l -2.32483,1.8825 -2.32481,1.8826 1.1926,2.6174 1.1926,2.6175 h 2.95634 2.95634 z m 105.58503,3.2237 -3.48006,-1.7485 -2.35905,-3.5 -2.35906,-3.5 0.44547,-4.7826 0.44546,-4.7827 2.39365,-2.5962 2.39366,-2.5963 3.21788,-1.3711 3.21787,-1.3711 h 3.28213 3.28212 l 3.31018,2.0182 3.31017,2.0181 1.43983,3.446 1.43982,3.446 v 2.0321 2.0321 h -11 -11 v 1.8257 1.8257 l 2.25,2.1002 2.25,2.1002 2.74036,0.6801 2.74037,0.6801 4.11214,-2.1434 4.11213,-2.1433 1.40983,1.17 1.40983,1.1701 -1.26234,1.5222 -1.26233,1.5222 -3.21788,1.3451 -3.21787,1.3451 h -3.28213 -3.28212 l -3.48007,-1.7484 z m 14.98007,-15.5742 v -1.3257 l -2.52467,-2.3718 -2.52468,-2.3718 -3.69722,0.1048 -3.69723,0.1048 -2.2781,2.6485 -2.2781,2.6484 v 0.9443 0.9442 h 8.5 8.5 z m 45.63133,16.6237 -0.70201,-0.702 -3.46466,0.2333 -3.46466,0.2334 v -3.9724 -3.9723 l 1.09565,-0.6771 1.09566,-0.6772 2.84797,3.1182 2.84798,3.1181 h 2.62211 2.62211 l 1.93426,-1.0352 1.93426,-1.0352 v -1.9246 -1.9247 l -3.75,-0.9947 -3.75,-0.9947 -2.77544,-0.5709 -2.77543,-0.5709 -1.97457,-1.9745 -1.97456,-1.9746 v -2.8892 -2.8892 l 1.76022,-2.1738 1.76022,-2.1738 4.09562,-0.5493 4.09563,-0.5494 1.99096,1.0656 1.99096,1.0655 1.08598,-1.086 1.08598,-1.086 1.56721,0.6014 1.56722,0.6014 v 4.0314 4.0314 h -2.38337 -2.38337 l -0.49526,-1.8939 -0.49526,-1.8939 -3.06272,-0.6727 -3.06272,-0.6726 -2.05865,1.1017 -2.05865,1.1018 v 1.4058 1.4058 l 0.98799,0.6106 0.988,0.6106 5.73276,1.4932 5.73275,1.4932 1.77925,1.6102 1.77925,1.6102 v 2.9107 2.9108 l -0.97889,1.8291 -0.97889,1.829 -3.17033,1.1052 -3.17034,1.1052 h -2.68411 -2.68411 z m -216.63133,-2.298 v -2 h 2.5 2.5 v -15 -15 h -2.5 -2.5 v -2 -2 h 10.75 10.75 l 3.47519,1.7484 3.47519,1.7485 1.43528,3.8151 1.43527,3.8151 -0.91046,3.6357 -0.91047,3.6358 -3.09001,1.7977 -3.09,1.7978 -6.16,0.6439 -6.15999,0.6438 v 4.3576 4.3575 l -0.059,0.75 -0.059,0.75 2.30376,0.5438 2.30377,0.5439 0.32857,1.7061 0.32858,1.7062 h -8.07333 -8.07332 v -2 z m 23,-19 2,-2 v -3.3114 -3.3115 l -2.0849,-2.2378 -2.0849,-2.2379 -5.1651,0.2993 -5.1651,0.2993 0.25,0.75 0.25,0.75 v 6.5 6.5 h 5 5 z m 44,19.5696 v -1.4305 l 2.25,-0.3195 2.25,-0.3196 v -9.5 -9.5 l -2.25,-0.3195 -2.25,-0.3196 v -1.9304 -1.9305 h 4.5 4.5 v 2.5889 2.5889 l 3.07673,-2.5889 3.07672,-2.5889 h 3.49283 3.49282 l -0.31955,2.2365 -0.31955,2.2366 -3.81791,0.6171 -3.8179,0.617 -1.6821,1.681 -1.68209,1.681 v 7.2154 7.2154 l 2.75,0.3164 2.75,0.3164 v 1.4336 1.4336 h -8 -8 z m 31.57143,-0.141 -1.57143,-1.5715 v -9.5221 -9.5222 l -2,-0.523 -2,-0.5231 v -1.8833 -1.8834 h 2 2 v -3.893 -3.893 l 1.58179,-0.607 1.58178,-0.607 h 0.91822 0.91821 v 4.4336 4.4336 l 2.74145,0.3164 2.74144,0.3164 0.33187,1.75 0.33188,1.75 h -3.10953 -3.10953 l 0.2862,9.75 0.28621,9.75 3.25,0.3134 3.25,0.3133 v 1.4367 1.4366 h -4.42857 -4.42856 z m 13.42857,0.071 v -1.5 h 2.5 2.5 v -9.9304 -9.9305 l -2.25,-0.3195 -2.25,-0.3196 v -1.5 -1.5 l 4.75,-0.3048 4.75,-0.3048 v 1.5548 1.5548 l 0.75,-0.035 0.75,-0.035 2.5,-1.4291 2.5,-1.4292 3.05887,-0.035 3.05887,-0.035 1.94113,1.4161 1.94113,1.416 0.5,10.334 0.5,10.3339 2.25,0.3196 2.25,0.3195 v 1.4305 1.4304 h -6.5 -6.5 v -1.3833 -1.3834 l 2,-0.523 2,-0.523 v -7.5936 -7.5937 l -1.96143,-1.9614 -1.96142,-1.9614 -2.94149,1.0254 -2.94149,1.0254 -1.64546,1.8182 -1.64546,1.8182 0.29837,6.8678 0.29838,6.8678 2.25,0.3196 2.25,0.3195 v 1.4305 1.4304 h -7.5 -7.5 v -1.5 z m 70,0.069 v -1.4304 l 2.25,-0.3196 2.25,-0.3195 v -9.5 -9.5 l -2.80943,-0.3222 -2.80944,-0.3222 0.31843,-1.6778 0.31842,-1.6778 4.741,-0.3048 4.74101,-0.3048 v 2.6437 2.6436 l 3.07673,-2.5889 3.07672,-2.5888 h 3.49284 3.49282 l -0.31955,2.2365 -0.31955,2.2365 -3.93808,0.6366 -3.93807,0.6367 -1.81193,2.2376 -1.81192,2.2376 v 6.8892 6.8893 h 3 3 v 1.5 1.5 h -8 -8 z m 53,-0.069 v -1.5 h 2.48095 2.48095 l 0.55754,-2.25 0.55754,-2.25 -0.28849,-13 -0.28849,-13 -2.75,-0.3164 -2.75,-0.3164 v -1.9336 -1.9336 h 5 5 v 6.6166 6.6167 l 2.25,-0.6908 2.25,-0.6907 4.67539,-0.546 4.6754,-0.5459 2.5746,2.5746 2.57461,2.5746 v 9.5455 9.5454 h 2.5 2.5 v 1.5 1.5 h -6.5 -6.5 v -1.393 -1.393 l 1.5,-0.5756 1.5,-0.5756 v -8.0084 -8.0083 l -2.28996,-1.5004 -2.28996,-1.5005 -3.46004,0.981 -3.46004,0.981 -1.295,0.8332 -1.29501,0.8333 0.29501,7.9131 0.295,7.9132 2.25,0.3196 2.25,0.3195 v 1.4305 1.4304 h -7.5 -7.5 z m 37,0.069 v -1.4304 l 2.25,-0.3196 2.25,-0.3195 v -9.5 -9.5 l -2.30845,-0.3273 -2.30846,-0.3272 0.32215,-1.6728 0.32215,-1.6727 h 4.48631 4.4863 l 0.28174,11.75 0.28173,11.75 h 1.96827 1.96826 v 1.5 1.5 h -7 -7 z m -512.513838,-11.8195 -4.787517,-5.25 -27.538763,-27.7272 -27.538762,-27.7273 0.46993,-0.4699 0.46993,-0.4699 22.969505,-11.1675 22.96951,-11.1674 7.25,-3.3285 7.25,-3.3285 v -0.9736 -0.9735 l -0.937846,-0.3334 -0.937845,-0.3333 -13.535293,-9.9769 -13.535292,-9.9768 0.723138,-0.7052 0.723138,-0.7051 13,-5.1547 13,-5.1547 18.51022,-7.4133 18.51023,-7.4133 h 1.75227 1.75227 l 14.97501,7.5 14.97501,7.5 h 0.91278 0.91278 l 15.47135,-7.5 15.47134,-7.5 h 1.46894 1.46894 l 26.40943,11.0713 26.409435,11.0714 4.25,1.6443 4.25,1.6444 v 0.7298 0.7297 l -14,10.1796 -14.000005,10.1795 v 0.6965 0.6965 l 30.000005,14.6585 30,14.6586 -0.0456,0.7699 -0.0456,0.77 -32.28276,32.9237 -32.282755,32.9237 -4.11099,-2.9237 -4.111,-2.9237 -16.31065,-11.9697 -16.31066,-11.9696 -11.88334,-8.7974 -11.88334,-8.7973 -3.11666,2.3489 -3.11666,2.3489 -19,13.868 -19,13.8679 -9.82135,7.3001 -9.82134,7.3002 h -0.791808 -0.791808 z m 516.902378,-20.1799 -0.60252,-1.5701 0.60252,-1.5701 0.60252,-1.5702 2.25447,0.3202 2.25447,0.3201 v 2.5 2.5 l -2.25447,0.3201 -2.25447,0.3202 z m 25.31061,-12.5892 -3.80084,-0.6826 -1.1563,-1.1563 -1.1563,-1.1563 1.60434,-1.6043 1.60434,-1.6044 3.65591,1.2066 3.65591,1.2066 2.47233,-0.6206 2.47233,-0.6205 1.97457,-1.9745 1.97456,-1.9746 v -2.449 -2.4489 l -3.71424,1.5519 -3.71423,1.5519 -3.90672,-0.524 -3.90672,-0.524 -3.36865,-3.265 -3.36864,-3.2651 -0.63979,-3.4103 -0.63979,-3.4104 1.14744,-3.8299 1.14745,-3.8298 3.01138,-2.5339 3.01137,-2.5339 3.54017,-0.6642 3.54017,-0.6641 3.93039,1.5439 3.9304,1.5439 v -0.9195 -0.9196 h 5.40638 5.40638 l -0.52301,2 -0.52301,2 h -1.78295 -1.78294 l -0.35043,12.7958 -0.35042,12.7958 -1.76393,2.6903 -1.76392,2.6903 -2.23608,1.3937 -2.23607,1.3938 -3.5,0.4519 -3.5,0.4519 z m 11.42488,-18.5931 1.87597,-1.6978 v -4.3904 -4.3905 l -2.45455,-2.4546 -2.45454,-2.4545 h -3.12238 -3.12239 l -2.92307,2.9231 -2.92308,2.9231 v 3.3858 3.3857 l 1.25,1.5669 1.25,1.5668 2,1.1441 2,1.1441 3.37403,-0.477 3.37403,-0.4771 z m -296.62403,7.8608 -2,-0.3265 -2.23166,-0.4755 -2.23166,-0.4755 -3.45343,-3.0321 -3.45343,-3.0322 -1.68759,-4.4189 -1.6876,-4.4189 0.42995,-5.9441 0.42996,-5.944 2.60348,-3.9342 2.60349,-3.9341 3.83924,-1.8611 3.83924,-1.8612 5.68177,0.045 5.68177,0.045 2.71263,1.7773 2.71263,1.7774 0.90529,-1.6176 0.90529,-1.6177 h 1.95031 1.95031 v 6 6 h -1.9 -1.9 l -3.5,-3.5 -3.5,-3.5 h -5.46514 -5.46514 l -2.75604,2.1679 -2.75604,2.1679 -1.37882,3.3 -1.37882,3.3 v 3.2164 3.2164 l 2.10241,4.343 2.10241,4.343 3.0632,1.584 3.06319,1.584 5.025,-0.4828 5.02501,-0.4828 2.68486,-3.0049 2.68485,-3.0049 0.41877,-1.2563 0.41876,-1.2563 2.20577,0.7001 2.20577,0.7001 v 1.7101 1.7101 l -1.51797,2.1672 -1.51798,2.1672 -2.96788,2.1133 -2.96789,2.1134 -4.76414,0.7295 -4.76414,0.7295 z m 36.77505,-0.3026 -3.22495,-0.6832 -2.50424,-1.6408 -2.50425,-1.6408 -1.63212,-3.1562 -1.63212,-3.1562 0.46901,-4.8811 0.46902,-4.8812 2.85077,-2.9756 2.85078,-2.9755 3.69506,-1.1071 3.69507,-1.1071 3.56702,0.6692 3.56703,0.6692 3.01137,2.5339 3.01137,2.5339 1.17636,3.9263 1.17635,3.9263 -1.13597,3.7915 -1.13597,3.7916 -2.91068,2.7886 -2.91068,2.7886 -3.36165,0.7344 -3.36164,0.7344 z m 7.18015,-5.5672 1.61877,-0.6212 1.46301,-2.8291 1.46301,-2.8292 v -2.4729 -2.4729 l -2.58889,-3.0768 -2.5889,-3.0767 h -3.45656 -3.45656 l -2.45454,2.4545 -2.45455,2.4546 v 4.0909 4.0909 l 2.45455,2.4546 2.45454,2.4545 h 2.96367 2.96367 z m 101.76078,5.4689 -3.28401,-0.9225 -1.61701,-3.3909 -1.61701,-3.3909 1.21862,-2.942 1.21861,-2.942 2.47946,-1.1297 2.47947,-1.1297 h 5.51937 5.51936 l -0.31642,-2.7426 -0.31642,-2.7426 -2.74198,-1.3081 -2.74198,-1.3081 -3.44923,1.6367 -3.44924,1.6368 -2.11143,-0.6702 -2.11144,-0.6701 1.30265,-1.5708 1.30265,-1.5708 3.21788,-1.3451 3.21788,-1.3451 h 3.08178 3.08178 l 2.9207,1.5104 2.92068,1.5103 1.02965,1.9239 1.02964,1.9239 v 8.0658 8.0657 h 2 2 v 2.5 2.5 h -4.41667 -4.41666 l -0.38114,-1.1434 -0.38113,-1.1434 -1.9522,1.0051 -1.9522,1.005 -2.5,0.5234 -2.5,0.5235 z m 9.23697,-5.0082 2.54705,-1.1605 v -2.7145 -2.7145 l -3.11713,-0.6234 -3.11713,-0.6234 -2.63287,1.2577 -2.63287,1.2578 -0.33749,2.3776 -0.33749,2.3775 1.33749,0.8478 1.33749,0.8478 2.20295,0.015 2.20294,0.015 2.54706,-1.1605 z m 27.04705,5.147 -3,-0.6426 -2.13351,-1.3398 -2.13352,-1.3397 -1.61648,-2.7365 -1.61649,-2.7365 0.004,-4.8457 0.004,-4.8457 2.01815,-3.3102 2.01816,-3.3102 3.68052,-1.5378 3.68052,-1.5378 3.54759,0.6818 3.54758,0.6817 3.25,-0.1151 3.25,-0.1151 v 5.0314 5.0313 h -1.81194 -1.81194 l -2.218,-3 -2.21799,-3 h -3.47007 -3.47006 l -1.97456,1.9746 -1.97457,1.9745 -0.63384,2.5255 -0.63385,2.5254 0.63385,2.5254 0.63384,2.5255 1.97457,1.9745 1.97404,1.9746 h 3.68555 3.68555 l 2.06445,-1.8927 2.06445,-1.8928 2.29377,0.8767 2.29376,0.8767 -1.06668,1.9932 -1.06669,1.9931 -2.20355,1.1793 -2.20356,1.1793 -3.02352,0.6581 -3.02353,0.6582 z m -123.10307,-1.3945 -0.57416,-1.4962 0.64763,-1.0479 0.64763,-1.0479 h 1.94099 1.94098 v -9 -9 h -2.5 -2.5 v -2 -2 h 5.55902 5.55901 l -0.72306,1.1699 -0.72306,1.17 1.91405,-0.8075 1.91404,-0.8074 3.5,-0.9688 3.5,-0.9687 2.76793,1.0883 2.76794,1.0883 0.98206,2.5831 0.98207,2.583 v 7.8654 7.8653 l 2.25,0.3196 2.25,0.3195 v 2 2 l -6.75,0.2957 -6.75,0.2957 v -2.5457 -2.5457 h 1.5 1.5 v -7.4182 -7.4182 l -0.60699,-1.5818 -0.60699,-1.5818 h -2.25815 -2.25815 l -2.63486,2.0726 -2.63486,2.0726 v 6.9274 6.9274 h 2.56955 2.56955 l -0.31955,2.25 -0.31955,2.25 -7.26446,0.2941 -7.26446,0.2941 z m 40.67565,-1.2269 -2.07258,-2.6348 v -8.8652 -8.8651 h -2 -2 v -1.9304 -1.9305 l 2.16723,-0.3195 2.16722,-0.3196 0.11951,-2.8348 0.11951,-2.8349 2.46327,-1.8651 2.46326,-1.8651 0.30226,4.9499 0.30226,4.95 h 2.44774 2.44774 v 2 2 h -2.53893 -2.53894 l 0.28894,8.75 0.28893,8.75 2.25,0.3196 2.25,0.3195 v 2.4305 2.4304 h -3.42742 -3.42742 z m 14.59409,1.9682 -0.66667,-0.6666 v -1.8334 -1.8333 h 3 3 v -9 -9 h -3 -3 v -2 -2 h 5 5 v 1.4663 1.4662 l 3.45287,-2.0372 3.45287,-2.0372 2.79713,0.3209 2.79713,0.321 0.31955,2.25 0.31955,2.25 h -2.5225 -2.52249 l -2.49728,1.1378 -2.49728,1.1379 -1.04977,3.0114 -1.04978,3.0114 v 4.8507 4.8508 h 3 3 v 2.5 2.5 h -7.83333 -7.83334 z m 94.73303,-0.099 -1.10029,-0.7347 -1.14971,-2.1843 -1.1497,-2.1842 v -8.5658 -8.5657 h -2 -2 v -2 -2 h 2 2 v -2.845 -2.845 l 1.82874,-1.655 1.82873,-1.655 h 1.17127 1.17126 v 4.5 4.5 h 2.5 2.5 v 2 2 h -2.5 -2.5 v 9 9 h 2.5 2.5 v 2.5 2.5 l -3.25,-0.015 -3.25,-0.015 -1.1003,-0.7347 z m 12.6003,-1.7347 v -2.5 h 2.53893 2.53894 l -0.28894,-8.75 -0.28893,-8.75 -2.25,-0.3196 -2.25,-0.3195 v -1.9305 -1.9304 h 5 5 v 11 11 h 2 2 v 2.5 2.5 h -7 -7 z m 18.39693,1.092 -0.57416,-1.4962 0.64763,-1.0479 0.64763,-1.0479 h 1.94099 1.94098 v -8.9304 -8.9305 l -2.23978,-0.3195 -2.23979,-0.3196 -0.33355,-1.75 -0.33354,-1.75 h 5.48999 5.48999 l 0.35334,1.06 0.35334,1.06 2.98,-1.5538 2.97999,-1.5539 2.79545,-0.01 2.79546,-0.01 2.45454,2.4546 2.45455,2.4545 v 9.0455 9.0454 h 2.56955 2.56955 l -0.31955,2.25 -0.31955,2.25 -6.75,0.2957 -6.75,0.2957 v -2.5457 -2.5457 h 2 2 v -6.4349 -6.4349 l -0.97525,-2.5651 -0.97525,-2.565 h -2.38989 -2.38989 l -2.63486,2.0726 -2.63486,2.0726 v 6.9274 6.9274 h 2.56955 2.56955 l -0.31955,2.25 -0.31955,2.25 -7.26446,0.2941 -7.26446,0.2941 z m -14.00839,-33.0219 -0.60253,-1.5701 0.60253,-1.5701 0.60252,-1.5702 2.25447,0.3202 2.25447,0.3201 v 2.5 2.5 l -2.25447,0.3201 -2.25447,0.3202 z m -199.20331,-16.3201 0.33187,-1.75 2.76779,-0.319 2.76779,-0.3189 -0.27634,-14.6811 -0.27635,-14.681 -2.25,-0.3196 -2.25,-0.3195 v -1.9305 -1.9304 h 4.91668 4.91666 l 0.42072,1.25 0.42071,1.25 1.41262,-1.1605 1.41262,-1.1605 3.5,-0.5653 3.5,-0.5652 3.46537,1.2257 3.46537,1.2258 2.37313,3.5 2.37313,3.5 -0.40579,5.7981 -0.40578,5.798 -3.06107,3.0611 -3.06107,3.0611 -4.52876,0.5104 -4.52875,0.5105 -3.09289,-1.543 -3.09289,-1.5429 v 4.8538 4.8538 l 2.23978,0.3195 2.23979,0.3196 0.33354,1.75 0.33354,1.75 h -8.14665 -8.14665 z m 25.56477,-16.8047 2.25,-2.5568 v -2.9939 -2.9939 l -1.46962,-2.8419 -1.46961,-2.842 -3.05856,-1.0662 -3.05856,-1.0662 -1.72183,0.6068 -1.72183,0.6068 -2.25,2.0253 -2.25,2.0253 v 4.6346 4.6345 l 1.25,1.5668 1.25,1.5669 2,1.135 2.00001,1.1351 3,-0.5097 3,-0.5097 z m -58.50976,5.4446 -4.25975,-2.1086 -1.95543,-2.7461 -1.95543,-2.7462 -1.18208,-4.4196 -1.18209,-4.4197 0.69755,-4.6516 0.69756,-4.6516 2.20778,-3.3232 2.20779,-3.3233 4.45382,-2.25 4.45382,-2.25 h 5.32023 5.32023 l 3.2335,1.351 3.23351,1.3511 3.18505,3.6276 3.18505,3.6275 0.66931,3.5678 0.6693,3.5677 -0.44626,5.3815 -0.44629,5.3815 -2.80762,3.681 -2.80762,3.681 -4.11608,1.8692 -4.11609,1.8692 -5,0.021 -5,0.021 -4.25976,-2.1085 z m 15.85364,-4.4384 2.99457,-1.5486 1.95203,-3.2014 1.95204,-3.2015 0.004,-5.1021 0.003,-5.1021 -2.2632,-3.3979 -2.26319,-3.3979 -3.78029,-1.8531 -3.78029,-1.8532 -3.35508,0.6294 -3.35507,0.6295 -2.72262,2.1416 -2.72263,2.1416 -1.37882,3.3 -1.37882,3.3 v 3.631 3.6309 l 1.66996,3.5192 1.66997,3.5192 3.08003,1.8782 3.08004,1.8782 h 3.79966 3.79966 l 2.99456,-1.5485 z m 61.92069,4.3561 -3.48543,-2.3676 -1.24983,-2.47 -1.24983,-2.47 -0.0147,-4.2997 -0.0147,-4.2996 1.51693,-2.9334 1.51692,-2.9334 3.23308,-1.6928 3.23307,-1.6928 4.75394,-0.016 4.75394,-0.016 2.74606,2.0322 2.74606,2.0323 1.17832,2.41 1.17831,2.4101 0.32169,3 0.32168,3 -11.2062,0.2823 -11.20621,0.2824 0.6082,1.7176 0.60821,1.7177 1.48529,1.7304 1.48529,1.7305 3.35276,0.629 3.35276,0.629 3.77864,-1.8696 3.77864,-1.8695 1.73131,0.3334 1.73131,0.3335 -0.0314,1.1766 -0.0314,1.1767 -2.69434,1.967 -2.69435,1.967 -6.02423,0.3706 -6.02423,0.3706 -3.48543,-2.3676 z m 15.98543,-15.3531 v -1.5454 l -2.57347,-2.5735 -2.57346,-2.5734 -3.67654,0.5872 -3.67653,0.5872 -2.24503,2.7817 -2.24504,2.7817 -0.005,0.75 -0.005,0.75 h 8.5 8.5 z m 11.17814,14.841 0.34229,-1.7955 2.27762,-0.3245 2.27763,-0.3245 -0.28784,-8.6755 -0.28785,-8.6755 -2.25,-0.3196 -2.25,-0.3195 v -1.9305 -1.9304 h 4.91667 4.91666 l 0.33334,0.9694 0.33333,0.9695 4.5,-1.581 4.5,-1.581 2.76793,1.0936 2.76794,1.0936 0.98206,2.5831 0.98207,2.583 v 7.8653 7.8654 l 2.23978,0.3195 2.23979,0.3196 0.3427,1.7976 0.3427,1.7975 -6.75279,-0.2975 -6.75279,-0.2976 -0.43505,-1.3161 -0.43505,-1.316 2.10535,-0.5506 2.10536,-0.5506 v -7.6833 -7.6834 l -1.2,-1.2 -1.2,-1.2 h -2.16514 -2.16514 l -2.63486,2.0726 -2.63486,2.0726 v 6.8578 6.8579 l 2.25,0.3195 2.25,0.3196 v 1.5 1.5 l -7.33208,0.2955 -7.33208,0.2954 z"
         style="opacity:0.75;fill:#ffffff" />
      <path
         inkscape:connector-curvature="0"
         id="path1041"
         d="m 488.20342,1235.4351 -2.1807,-1.2146 0.90788,-1.6204 0.90788,-1.6205 4.38211,1.4427 4.3821,1.4426 3.53123,-1.4754 3.53122,-1.4754 1.20915,-3.6638 1.20916,-3.6638 -0.54862,-0.5486 -0.54862,-0.5486 -3.20027,1.1156 -3.20027,1.1156 h -2.88289 -2.8829 l -3.40146,-1.4212 -3.40146,-1.4212 -1.56642,-3.0292 -1.56642,-3.0291 v -3.6485 -3.6485 l 1.63484,-3.4452 1.63485,-3.4452 2.8155,-1.456 2.81549,-1.4559 h 4.1154 4.1154 l 2.13646,1.1434 2.13646,1.1434 0.38113,-1.1434 0.38114,-1.1434 h 4.91666 4.91667 v 2 2 h -2.5 -2.5 v 12.3521 12.3521 l -2.28002,3.3834 -2.28001,3.3833 -2.46999,1.2498 -2.46998,1.2498 -5,-0.021 -5,-0.021 -2.1807,-1.2145 z m 15.47413,-17.4609 1.29343,-1.7537 0.56498,-2.25 0.56498,-2.25 -0.63385,-2.5254 -0.63384,-2.5255 -1.97457,-1.9745 -1.97456,-1.9746 h -4.04545 -4.04546 l -2.45454,2.4545 -2.45455,2.4546 -0.11515,2.2955 -0.11516,2.2954 0.20459,2 0.20458,2 2.03484,2.1967 2.03485,2.1968 2.12572,0.3431 2.12573,0.3431 3,-0.7862 3,-0.7862 z m -495.793425,1.0104 -11.5,-8.4403 -10.5,-7.7263 -10.5,-7.7262 -11.303707,-8.332 -11.303707,-8.3319 0.803707,-0.7476 0.803707,-0.7477 18,-8.5069 18,-8.507 14.705,-7.0991 14.705,-7.0991 h 0.545 0.545 v 40.441 40.441 l -0.75,0.4112 -0.75,0.4112 z m 194.499995,5.5144 -3,-1.0637 -2.62671,-1.8377 -2.62672,-1.8377 -1.74828,-3.6842 -1.74829,-3.6843 v -6.2462 -6.2462 l 1.875,-3.826 1.875,-3.8261 3.32326,-2.2129 3.32327,-2.2129 4.67673,-0.7019 4.67674,-0.7019 4,1.5118 4,1.5118 1.75,0.7468 1.75,0.7468 v -1.607 -1.607 h 2.05226 2.05226 l -0.30226,5.1714 -0.30226,5.1714 -1.07539,0.3537 -1.07539,0.3538 -3.20251,-3.0605 -3.2025,-3.0605 -2.5372,-0.9647 -2.53721,-0.9646 h -2.53377 -2.53377 l -3.51919,1.67 -3.51919,1.6699 -1.93518,3.0801 -1.93518,3.08 0.33673,6.7643 0.33674,6.7642 3.05596,3.056 3.05596,3.056 4.10469,0.9222 4.10468,0.9223 3.79781,-1.2442 3.79781,-1.2442 2.39941,-3.7079 2.3994,-3.7078 1.86451,0.9979 1.86451,0.9978 -1.40349,2.7141 -1.40348,2.714 -2.03618,1.8427 -2.03619,1.8428 -3.81619,1.361 -3.8162,1.361 -3.5,-0.035 -3.5,-0.035 -3,-1.0636 z m 37.76969,-0.2611 -3.2303,-1.4043 -2.01596,-3.3065 -2.01595,-3.3066 -0.004,-4.2997 -0.004,-4.2996 1.51693,-2.9334 1.51692,-2.9334 2.93342,-1.517 2.93393,-1.5169 h 4.64538 4.64537 l 2.88813,1.7061 2.88813,1.706 1.51616,3.1951 1.51616,3.1951 v 3.131 3.1309 l -1.42436,3.409 -1.42436,3.409 -4.0358,2.0589 -4.0358,2.0589 -2.78984,-0.039 -2.78984,-0.039 -3.23031,-1.4043 z m 12.48031,-6.1108 2.25,-2.5181 v -3.8094 -3.8094 l -1.9775,-2.514 -1.97749,-2.5139 -2.68304,-0.5129 -2.68304,-0.5129 -2.75856,0.9616 -2.75856,0.9616 -1.69609,3.5743 -1.69609,3.5742 1.17766,3.9307 1.17766,3.9307 3.18753,1.409 3.18752,1.409 2.5,-0.5212 2.50001,-0.5212 z m 56.25,6.8994 -1.5,-0.5361 -1.25,-1.5761 -1.25,-1.5761 v -9.3088 -9.3089 h -2 -2 v -2 -2 h 2 2 v -2.845 -2.845 l 1.82874,-1.655 1.82874,-1.655 h 0.42126 0.42126 v 4.2513 4.2513 l 2.80943,0.3221 2.80944,0.3222 -0.31468,1.634 -0.31469,1.634 -2.49475,0.586 -2.49475,0.586 -0.29006,7.5964 -0.29005,7.5963 1.62067,1.6207 1.62068,1.6207 0.92645,-0.5726 0.92644,-0.5726 0.63865,1.6643 0.63865,1.6643 -1.39571,0.8838 -1.39572,0.8838 -1,-0.064 -1,-0.064 -1.5,-0.5361 z m 40.45455,-1.7605 -2.45455,-2.4546 v -2.9347 -2.9346 l 1.9107,-2.3608 1.91071,-2.3608 6.83929,-0.1671 6.8393,-0.167 0.31149,-2.0215 0.3115,-2.0214 -2.15947,-2.1595 -2.15946,-2.1594 -3.15203,0.5505 -3.15203,0.5505 -3.25,0.6609 -3.25,0.661 v -1.0878 -1.0878 l 2.95034,-1.5257 2.95034,-1.5257 h 4.93888 4.93887 l 2.36079,1.9082 2.36078,1.9081 0.5,9.3419 0.5,9.3418 2.25,-0.079 2.25,-0.079 v 1.8294 1.8294 h -4.41667 -4.41666 l -0.3774,-1.1322 -0.37739,-1.1321 -3.15628,1.6321 -3.15628,1.6322 h -3.09511 -3.09512 z m 12.19731,-2.1846 3.45411,-1.6391 -0.30298,-3.1109 -0.30299,-3.1109 -4.85594,-0.3091 -4.85593,-0.3091 -1.89407,1.7141 -1.89406,1.7141 v 1.5163 1.5162 l 1.65499,1.8288 1.65499,1.8287 h 1.94388 1.94388 z m 23.34814,2.865 -3.5,-1.8955 -1.74845,-3.4152 -1.74844,-3.4152 -0.002,-3.3489 -0.002,-3.3488 1.51616,-3.1951 1.51616,-3.1951 2.88813,-1.706 2.88902,-1.7061 h 4.16145 4.16145 l 1.93426,1.0352 1.93426,1.0352 v -1.0352 -1.0352 h 1.75721 1.7572 l -0.3579,4.5 -0.35789,4.5 h -1.28429 -1.2843 l -1.63806,-2.5 -1.63807,-2.5 h -4.40436 -4.40437 l -2.07258,2.6349 -2.07258,2.6348 v 3.3181 3.3181 l 1.11027,2.4368 1.11027,2.4368 2.43678,1.1102 2.43679,1.1103 h 2.31808 2.31809 l 2.66426,-2.0957 2.66426,-2.0957 1.55376,0.5962 1.55376,0.5963 -0.39621,1.1886 -0.39621,1.1886 -2.57271,1.9208 -2.57272,1.9208 -4.36423,0.4508 -4.36424,0.4507 z m 32,1.0801 -1.5,-0.5361 -1.25,-1.5761 -1.25,-1.5761 v -9.3088 -9.3089 h -2 -2 v -2 -2 h 2 2 v -2.845 -2.845 l 2,-1.81 2,-1.81 v 4.655 4.655 h 3.07332 3.07333 l -0.33188,1.75 -0.33187,1.75 -2.74144,0.3164 -2.74145,0.3164 v 8.3112 8.3111 l 1.4562,1.2086 1.45619,1.2085 1.05087,-0.6495 1.05086,-0.6495 0.63865,1.6643 0.63865,1.6644 -1.39571,0.8837 -1.39572,0.8838 -1,-0.064 -1,-0.064 -1.5,-0.5361 z m -150.80963,-2.056 0.33702,-1.75 1.23631,-0.125 1.2363,-0.125 1,-0.125 1,-0.125 v -9 -9 h -2.5 -2.5 v -2 -2 h 4.5 4.5 v 1.5 1.5 l 0.75,-0.032 0.75,-0.032 1.94113,-1.4682 1.94113,-1.4682 h 4.15388 4.15388 l 1.76098,1.9459 1.76098,1.9458 -0.12082,8.9827 -0.12081,8.9826 2.25461,0.3215 2.25461,0.3215 0.33355,1.75 0.33354,1.75 h -6.64665 -6.64665 l 0.33702,-1.75 0.33701,-1.75 h 1.48631 1.48631 l 0.28739,-8.0612 0.28739,-8.0611 -1.89753,-1.7173 -1.89754,-1.7172 -2.88803,1.098 -2.88802,1.098 -1.75183,1.5854 -1.75183,1.5854 v 6.845 6.845 l 1,0.125 1,0.125 1.2363,0.125 1.23631,0.125 0.33702,1.75 0.33702,1.75 h -7.14665 -7.14665 z m 54.99966,0 0.33667,-1.7482 h 1.98665 1.98665 l 0.2866,-9.1801 0.28661,-9.18 -2.77805,-0.32 -2.77806,-0.3197 -0.33186,-1.75 -0.33188,-1.75 h 5.07333 5.07332 v 2 2 h 0.5 0.5 l 2,-2 2,-2 h 3.78571 3.78572 v 2 2 h -3.6114 -3.6114 l -2.19685,2.3384 -2.19686,2.3385 -0.62206,6.6615 -0.62207,6.6616 0.89461,0.1276 0.8946,0.1277 2.28165,0.2373 2.28165,0.2374 0.56848,0.5685 0.56849,0.5684 -0.65915,1.0666 -0.65915,1.0665 h -7.51431 -7.51431 l 0.33668,-1.7482 z m 107.80997,-0.252 v -2 l 0.75,0.1184 0.75,0.1184 1.25,-0.1184 1.25,-0.1184 v -9 -9 h -1.88337 -1.88337 l -0.52301,-2 -0.52301,-2 h 4.65638 4.65638 l -0.31238,11.002 -0.31239,11.0021 1.06239,0.125 1.06238,0.125 1.2363,0.125 1.23631,0.125 0.33702,1.75 0.33702,1.75 h -6.57333 -6.57332 v -2 z m 18.19037,0.25 0.33702,-1.75 1.23631,-0.125 1.2363,-0.125 1,-0.125 1,-0.125 v -8.9304 -8.9305 l -2.23978,-0.3195 -2.23979,-0.3196 -0.33354,-1.75 -0.33354,-1.75 h 4.46634 4.46633 l 0.56184,1.4641 0.56184,1.4641 2.79515,-1.4579 2.79515,-1.458 3.59501,-0.01 3.59501,-0.01 1.65499,1.8288 1.65499,1.8287 v 9.1713 9.1712 l 1,0.125 1,0.125 1.2363,0.125 1.23631,0.125 0.33702,1.75 0.33702,1.75 h -5.96634 -5.96633 l -0.61112,-1.5925 -0.61111,-1.5926 2.00412,-0.524 2.00413,-0.5241 v -7.812 -7.8119 l -1.60537,-1.6054 -1.60537,-1.6054 -2.14463,0.6164 -2.14463,0.6163 -2.5,1.7709 -2.5,1.7708 -0.29381,7.1467 -0.29381,7.1468 1.04381,0.125 1.04381,0.125 1.2363,0.125 1.23631,0.125 0.33702,1.75 0.33702,1.75 h -7.14665 -7.14665 l 0.33702,-1.75 z m -14.18995,-31.7495 -1.31566,-1.5853 1.0514,-1.0514 1.0514,-1.0514 1.85622,0.3575 1.85622,0.3575 v 1.9726 1.9726 l -1.59196,0.3066 -1.59195,0.3066 z"
         style="opacity:1;fill:#ffffff" />
    </g>
  </g>
</svg>
