<?xml version="1.0" encoding="UTF-8"?>
<svg version="1.1" viewBox="0 0 250 91" xmlns="http://www.w3.org/2000/svg" xmlns:cc="http://creativecommons.org/ns#" xmlns:dc="http://purl.org/dc/elements/1.1/" xmlns:rdf="http://www.w3.org/1999/02/22-rdf-syntax-ns#">
<metadata>
<rdf:RDF>
<cc:Work rdf:about="">
<dc:format>image/svg+xml</dc:format>
<dc:type rdf:resource="http://purl.org/dc/dcmitype/StillImage"/>
<dc:title/>
</cc:Work>
</rdf:RDF>
</metadata>
<g transform="translate(0,-961.4)">
<g transform="matrix(.36753 0 0 .36753 50.538 561.73)" fill="#fff">
<path d="m479.59 1295.1-0.70631-0.7063v-3.6667h5.0521l-0.27604-15.25-0.27605-15.25-4.6169-0.6544 0.63354-3.3456 7.9036-0.6458 1.1571 1.5825 1.1571 1.5824 5.7655-3.0068h3l3-0.01 6.8304 3.4969 3.7927 7-0.42394 4.8458-0.42394 4.8457-6.956 6.956-7.8907 1.0584-7.4285-3.1038v9.8979h6.1391l-0.6391 4.5-7.0437 0.2897-7.0437 0.2896-0.70631-0.7063zm22.222-16.836 2.8292-1.463 1.2424-3.2376v-7.3914l-3.2018-4.5712-4.9721-1.8904-8.9233 3.9472 0.59724 12.569 7 3.4969h2.5993l2.8292-1.463zm-271.93 4.169-2.5-1.2645-2.4857-5.184 1.0426-2.9909 1.0426-2.9909 2.4973-1.1379 2.4973-1.1378h10.906v-4.8866l-2.2225-1.5567-2.2225-1.5567-3.055 0.02-2.8847 1.5045-2.8848 1.5044-1.3652-1.1331-1.3653-1.133v-1.8572l3.4679-1.449 3.4679-1.4489h7.1636l5.8717 3.0364 0.51263 2.2318 0.51264 2.2318 0.25185 8 0.25184 8 2.25 0.3195 2.25 0.3196v2.8609h-8.8333l-0.35334-1.06-0.35334-1.0601-5.96 3.1078-5-0.02-2.5-1.2646zm10.435-3.6812 2.5651-0.9753v-5.8355l-3.1636-1.214h-5.6149l-4.6496 3.7651 1.1926 2.6174 1.1926 2.6175h5.9127zm105.59 3.2237-3.4801-1.7485-4.7181-7 0.44547-4.7826 0.44546-4.7827 4.7873-5.1925 6.4358-2.7422h6.5642l6.6204 4.0363 1.4398 3.446 1.4398 3.446v4.0642h-22v3.6514l4.5 4.2004 5.4807 1.3602 4.1121-2.1434 4.1121-2.1433 1.4098 1.17 1.4098 1.1701-2.5247 3.0444-6.4358 2.6902h-6.5642l-3.4801-1.7484zm14.98-15.574v-1.3257l-5.0494-4.7436-7.3944 0.2096-2.2781 2.6485-2.2781 2.6484v1.8885h17zm45.631 16.624-0.70201-0.702-6.9293 0.4667v-7.9447l1.0956-0.6771 1.0957-0.6772 5.696 6.2363h5.2442l3.8685-2.0704v-3.8493l-7.5-1.9894-5.5509-1.1418-1.9746-1.9745-1.9746-1.9746v-5.7784l3.5204-4.3476 8.1912-1.0987 1.991 1.0656 1.991 1.0655 2.172-2.172 3.1344 1.2028v8.0628h-4.7667l-0.99052-3.7878-6.1254-1.3453-4.1173 2.2035v2.8116l1.976 1.2212 11.466 2.9864 3.5585 3.2204v5.8215l-0.97889 1.8291-0.97889 1.829-6.3407 2.2104h-5.3682zm-216.63-2.298v-2h5v-30h-5v-4h21.5l3.4752 1.7484 3.4752 1.7485 1.4353 3.8151 1.4353 3.8151-0.91046 3.6357-0.91047 3.6358-6.18 3.5955-6.16 0.6439-6.16 0.6438v8.7151l-0.118 1.5 2.3038 0.5438 2.3038 0.5439 0.32857 1.7061 0.32858 1.7062h-16.147v-2zm23-19 2-2v-6.6229l-2.0849-2.2378-2.0849-2.2379-10.33 0.5986 0.5 1.5v13h10zm44 19.57v-1.4305l4.5-0.6391v-19l-2.25-0.3195-2.25-0.3196v-3.8609h9v5.1778l6.1534-5.1778h6.9856l-0.31955 2.2365-0.31955 2.2366-3.8179 0.6171-3.8179 0.617-3.3642 3.362v14.431l5.5 0.6328v2.8672h-16zm31.571-0.141-1.5714-1.5715v-19.044l-2-0.523-2-0.5231v-3.7667h4v-7.786l3.1636-1.214h1.8364v8.8672l5.4829 0.6328 0.33187 1.75 0.33188 1.75h-6.2191l0.2862 9.75 0.28621 9.75 6.5 0.6267v2.8733h-8.8571zm13.429 0.071v-1.5h5v-19.861l-2.25-0.3195-2.25-0.3196v-3l9.5-0.6096v3.1096l1.5-0.07 5-2.8583 6.1177-0.07 1.9411 1.4161 1.9411 1.416 0.5 10.334 0.5 10.334 4.5 0.6391v2.8609h-13v-2.7667l4-1.046v-15.187l-1.9614-1.9614-1.9614-1.9614-5.883 2.0508-3.2909 3.6364 0.29837 6.8678 0.29838 6.8678 4.5 0.6391v2.8609h-15v-1.5zm70 0.069v-1.4304l2.25-0.3196 2.25-0.3195v-19l-5.6189-0.6444 0.31843-1.6778 0.31842-1.6778 9.482-0.6096v5.2873l3.0767-2.5889 3.0767-2.5888h6.9857l-0.6391 4.473-7.8762 1.2733-3.6238 4.4752v13.778h6v3h-16zm53-0.069v-1.5h4.9619l1.1151-4.5-0.57698-26-5.5-0.6328v-3.8672h10v13.233l2.25-0.6908 2.25-0.6907 4.6754-0.546 4.6754-0.5459 5.1492 5.1492v19.091h5v3h-13v-2.786l3-1.1512v-16.017l-2.29-1.5004-2.29-1.5005-6.9201 1.962-1.295 0.8332-1.295 0.8333 0.29501 7.9131 0.295 7.9132 4.5 0.6391v2.8609h-15zm37 0.069v-1.4304l2.25-0.3196 2.25-0.3195v-19l-4.6169-0.6545 0.32215-1.6728 0.32215-1.6727h8.9726l0.28174 11.75 0.28173 11.75h3.9365v3h-14zm-512.51-11.82-4.7875-5.25-55.078-55.454 0.93986-0.9398 45.939-22.335 14.5-6.657v-1.9471l-0.93785-0.3334-0.93784-0.3333-27.071-19.954 0.72314-0.7052 0.72314-0.7051 26-10.309 37.02-14.827h3.5045l29.95 15h1.8256l30.943-15h2.9379l52.819 22.143 4.25 1.6443 4.25 1.6444v1.4595l-14 10.18-14 10.18v1.393l60 29.317-0.0456 0.7699-0.0456 0.77-64.566 65.847-8.222-5.8474-32.621-23.939-23.767-17.595-6.2333 4.6978-19 13.868-19 13.868-19.643 14.6h-1.5836zm516.9-20.18-0.60252-1.5701 0.60252-1.5701 0.60252-1.5702 4.5089 0.6403v5l-4.5089 0.6403zm25.311-12.589-3.8008-0.6826-2.3126-2.3126 1.6043-1.6043 1.6043-1.6044 7.3118 2.4132 2.4723-0.6206 2.4723-0.6205 1.9746-1.9745 1.9746-1.9746v-4.8979l-7.4285 3.1038-7.8134-1.048-3.3686-3.265-3.3686-3.2651-0.63979-3.4103-0.63979-3.4104 1.1474-3.8299 1.1474-3.8298 6.0228-5.0678 3.5402-0.6642 3.5402-0.6641 7.8608 3.0878v-1.8391h10.813l-1.046 4h-3.5659l-0.35043 12.796-0.35042 12.796-3.5278 5.3806-4.4722 2.7875-7 0.9038zm11.425-18.593 1.876-1.6978v-8.7809l-4.9091-4.9091h-6.2448l-5.8462 5.8462v6.7715l1.25 1.5669 1.25 1.5668 4 2.2882 6.7481-0.9541zm-296.62 7.8608-2-0.3265-4.4633-0.951-3.4534-3.0321-3.4534-3.0322-3.3752-8.8378 0.42995-5.9441 0.42996-5.944 2.6035-3.9342 2.6035-3.9341 7.6785-3.7223 11.364 0.09 2.7126 1.7773 2.7126 1.7774 0.90529-1.6176 0.90529-1.6177h3.9006v12h-3.8l-7-7h-10.93l-5.5121 4.3358-2.7576 6.6v6.4328l4.2048 8.686 6.1264 3.168 10.05-0.9656 5.3697-6.0098 0.41877-1.2563 0.41876-1.2563 4.4115 1.4002v3.4202l-1.518 2.1672-1.518 2.1672-5.9358 4.2267-9.5283 1.459zm36.775-0.3026-3.225-0.6832-5.0085-3.2816-3.2642-6.3124 0.46901-4.8811 0.46902-4.8812 2.8508-2.9756 2.8508-2.9755 7.3901-2.2142 7.134 1.3384 6.0227 5.0678 1.1764 3.9263 1.1764 3.9263-1.136 3.7915-1.136 3.7916-5.8214 5.5772-6.7233 1.4688zm7.1802-5.5672 1.6188-0.6212 1.463-2.8291 1.463-2.8292v-4.9458l-5.1778-6.1535h-6.9131l-4.9091 4.9091v8.1818l4.9091 4.9091h5.9273zm101.76 5.4689-3.284-0.9225-3.234-6.7818 2.4372-5.884 4.9589-2.2594h11.039l-0.63284-5.4852-5.484-2.6162-6.8985 3.2735-4.2229-1.3403 2.6053-3.1416 6.4358-2.6902h6.1636l5.8414 3.0207 1.0296 1.9239 1.0296 1.9239v16.132h4v5h-8.8333l-0.38114-1.1434-0.38113-1.1434-1.9522 1.0051-1.9522 1.005-5 1.0469zm9.237-5.0082 2.547-1.1605v-5.429l-6.2343-1.2468-5.2657 2.5155-0.33749 2.3776-0.33749 2.3775 2.675 1.6956 4.4059 0.03 2.5471-1.1605zm27.047 5.147-3-0.6426-4.267-2.6795-3.233-5.473 8e-3 -9.6914 2.0182-3.3102 2.0182-3.3102 7.361-3.0756 7.0952 1.3635 6.5-0.2302v10.063h-3.6239l-2.218-3-2.218-3h-6.9401l-1.9746 1.9746-1.9746 1.9745-0.63384 2.5255-0.63385 2.5254 0.63385 2.5254 0.63384 2.5255 1.9746 1.9745 1.974 1.9746h7.3711l4.1289-3.7855 4.5875 1.7534-1.0667 1.9932-1.0667 1.9931-4.4071 2.3586-6.047 1.3163zm-123.1-1.3945-0.57416-1.4962 1.2953-2.0958h3.882v-18h-5v-4h11.118l-0.72306 1.1699-0.72306 1.17 1.914-0.8075 1.914-0.8074 3.5-0.9688 3.5-0.9687 5.5359 2.1766 0.98206 2.5831 0.98207 2.583v15.731l4.5 0.6391v4l-13.5 0.5914v-5.0914h3v-14.836l-1.214-3.1636h-4.5163l-5.2697 4.1452v13.855h5.1391l-0.6391 4.5-14.529 0.5882zm40.676-1.2269-2.0726-2.6348v-17.73h-4v-3.8609l4.3344-0.6391 0.11951-2.8348 0.11951-2.8349 4.9265-3.7302 0.30226 4.9499 0.30226 4.95h4.8955v4h-5.0779l0.28894 8.75 0.28893 8.75 4.5 0.6391v4.8609h-6.8548zm14.594 1.9682-0.66667-0.6666v-3.6667h6v-18h-6v-4h10v2.9325l6.9057-4.0744 2.7971 0.3209 2.7971 0.321 0.6391 4.5h-5.045l-4.9946 2.2757-1.0498 3.0114-1.0498 3.0114v9.7015h6v5h-15.667zm94.733-0.099-1.1003-0.7347-1.1497-2.1843-1.1497-2.1842v-17.132h-4v-4h4v-5.69l3.6575-3.31h2.3425v9h5v4h-5v18h5v5l-6.5-0.03-1.1003-0.7347zm12.6-1.7347v-2.5h5.0779l-0.28894-8.75-0.28893-8.75-4.5-0.6391v-3.8609h10v22h4v5h-14zm18.397 1.092-0.57416-1.4962 1.2953-2.0958h3.882v-17.861l-2.2398-0.3195-2.2398-0.3196-0.33355-1.75-0.33354-1.75h10.98l0.70668 2.12 5.96-3.1077 5.5909-0.02 4.9091 4.9091v18.091h5.1391l-0.6391 4.5-13.5 0.5914v-5.0914h4v-12.87l-0.97525-2.5651-0.97525-2.565h-4.7798l-5.2697 4.1452v13.855h5.1391l-0.6391 4.5-14.529 0.5882zm-14.008-33.022-0.60253-1.5701 0.60253-1.5701 0.60252-1.5702 4.5089 0.6403v5l-4.5089 0.6403zm-199.2-16.32 0.33187-1.75 2.7678-0.319 2.7678-0.3189-0.27634-14.681-0.27635-14.681-4.5-0.6391v-3.8609h9.8333l0.42072 1.25 0.42071 1.25 2.8252-2.321 3.5-0.5653 3.5-0.5652 3.4654 1.2257 3.4654 1.2258 4.7463 7-0.40579 5.7981-0.40578 5.798-6.1221 6.1222-9.0575 1.0209-6.1858-3.0859v9.7076l2.2398 0.3195 2.2398 0.3196 0.66708 3.5h-16.293zm25.565-16.805 2.25-2.5568v-5.9878l-1.4696-2.8419-1.4696-2.842-6.1171-2.1324-3.4437 1.2136-4.5 4.0506v9.2691l1.25 1.5668 1.25 1.5669 2 1.135 2 1.1351 6-1.0194zm-58.51 5.4446-4.2598-2.1086-1.9554-2.7461-1.9554-2.7462-1.1821-4.4196-1.1821-4.4197 0.69755-4.6516 0.69756-4.6516 4.4156-6.6465 8.9076-4.5h10.64l3.2335 1.351 3.2335 1.3511 6.3701 7.2551 0.66931 3.5678 0.6693 3.5677-0.44626 5.3815-0.44629 5.3815-5.6152 7.362-8.2322 3.7384-10 0.042-4.2598-2.1085zm15.854-4.4384 2.9946-1.5486 3.9041-6.4029 4e-3 -5.1021 3e-3 -5.1021-2.2632-3.3979-2.2632-3.3979-3.7803-1.8531-3.7803-1.8532-6.7102 1.2589-5.4452 4.2832-2.7576 6.6v7.2619l3.3399 7.0384 6.1601 3.7564h7.5993l2.9946-1.5485zm61.921 4.3561-3.4854-2.3676-2.4997-4.94-0.0147-4.2997-0.0147-4.2996 3.0338-5.8668 6.4662-3.3856 9.5079-0.032 2.7461 2.0322 2.7461 2.0323 1.1783 2.41 1.1783 2.4101 0.32169 3 0.32168 3-22.412 0.5647 0.6082 1.7176 0.60821 1.7177 1.4853 1.7304 1.4853 1.7305 6.7055 1.258 3.7786-1.8696 3.7786-1.8695 1.7313 0.3334 1.7313 0.3335-0.0314 1.1766-0.0314 1.1767-5.3887 3.934-12.048 0.7412-3.4854-2.3676zm15.985-15.353v-1.5454l-5.1469-5.1469-7.3531 1.1744-2.245 2.7817-2.245 2.7817-0.01 1.5h17zm11.178 14.841 0.34229-1.7955 4.5552-0.649-0.28784-8.6755-0.28785-8.6755-4.5-0.6391v-3.8609h9.8333l0.33334 0.9694 0.33333 0.9695 9-3.162 5.5359 2.1872 0.98206 2.5831 0.98207 2.583v15.731l2.2398 0.3195 2.2398 0.3196 0.3427 1.7976 0.3427 1.7975-6.7528-0.2975-6.7528-0.2976-0.43505-1.3161-0.43505-1.316 4.2107-1.1012v-15.367l-2.4-2.4h-4.3303l-5.2697 4.1452v13.716l2.25 0.3195 2.25 0.3196v3l-7.3321 0.2955-7.3321 0.2954z" opacity=".75"/>
<path d="m488.2 1235.4-2.1807-1.2146 0.90788-1.6204 0.90788-1.6205 8.7642 2.8853 7.0624-2.9508 1.2092-3.6638 1.2092-3.6638-1.0972-1.0972-6.4005 2.2312h-5.7658l-6.8029-2.8424-1.5664-3.0292-1.5664-3.0291v-7.297l1.6348-3.4452 1.6348-3.4452 2.8155-1.456 2.8155-1.4559h8.2308l4.2729 2.2868 0.38113-1.1434 0.38114-1.1434h9.8333v4h-5v24.704l-2.28 3.3834-2.28 3.3833-4.94 2.4996-10-0.042-2.1807-1.2145zm15.474-17.461 1.2934-1.7537 1.13-4.5-0.63385-2.5254-0.63384-2.5255-1.9746-1.9745-1.9746-1.9746h-8.0909l-4.9091 4.9091-0.11515 2.2955-0.11516 2.2954 0.20459 2 0.20458 2 2.0348 2.1967 2.0348 2.1968 4.2514 0.6862 6-1.5724zm-495.79 1.0104-11.5-8.4403-21-15.452-22.607-16.664 0.80371-0.7476 0.80371-0.7477 36-17.014 29.41-14.198h1.09v80.882l-1.5 0.8224zm194.5 5.5144-3-1.0637-5.2534-3.6754-1.7483-3.6842-1.7483-3.6843v-12.492l1.875-3.826 1.875-3.8261 6.6465-4.4258 9.3535-1.4038 8 3.0236 3.5 1.4936v-3.214h4.1045l-0.60452 10.343-1.0754 0.3537-1.0754 0.3538-6.405-6.121-5.0744-1.9293h-5.0675l-3.5192 1.67-3.5192 1.6699-1.9352 3.0801-1.9352 3.08 0.33673 6.7643 0.33674 6.7642 6.1119 6.112 4.1047 0.9222 4.1047 0.9223 7.5956-2.4884 2.3994-3.7079 2.3994-3.7078 1.8645 0.9979 1.8645 0.9978-1.4035 2.7141-1.4035 2.714-4.0724 3.6855-7.6324 2.722-7-0.07-3-1.0636zm37.77-0.2611-3.2303-1.4043-2.016-3.3065-2.016-3.3066-4e-3 -4.2997-4e-3 -4.2996 3.0338-5.8668 2.9334-1.517 2.9339-1.5169h9.2908l5.7763 3.4121 3.0323 6.3902v6.2619l-2.8487 6.818-8.0716 4.1178-5.5797-0.078-3.2303-1.4043zm12.48-6.1108 2.25-2.5181v-7.6188l-3.955-5.0279-5.3661-1.0258-5.5171 1.9232-1.6961 3.5743-1.6961 3.5742 2.3553 7.8614 6.375 2.818 5-1.0424zm56.25 6.8994-1.5-0.5361-2.5-3.1522v-18.618h-4v-4h4v-5.69l3.6575-3.31h0.84252v8.5026l2.8094 0.3221 2.8094 0.3222-0.31468 1.634-0.31469 1.634-4.9895 1.172-0.29006 7.5964-0.29005 7.5963 3.2414 3.2414 1.8529-1.1452 1.2773 3.3286-2.7914 1.7676-2-0.128-1.5-0.5361zm40.455-1.7605-2.4546-2.4546v-5.8693l1.9107-2.3608 1.9107-2.3608 6.8393-0.1671 6.8393-0.167 0.31149-2.0215 0.3115-2.0214-4.3189-4.3189-6.3041 1.101-6.5 1.3219v-2.1756l5.9007-3.0514h9.8778l4.7216 3.8163 0.5 9.3419 0.5 9.3418 4.5-0.158v3.6588h-8.8333l-0.3774-1.1322-0.37739-1.1321-6.3126 3.2643h-6.1902zm12.197-2.1846 3.4541-1.6391-0.30298-3.1109-0.30299-3.1109-9.7119-0.6182-3.7881 3.4282v3.0325l1.655 1.8288 1.655 1.8287h3.8878zm23.348 2.865-3.5-1.8955-1.7484-3.4152-1.7484-3.4152-2e-3 -3.3489-2e-3 -3.3488 3.0323-6.3902 2.8881-1.706 2.889-1.7061h8.3229l3.8685 2.0704v-2.0704h3.5144l-0.3579 4.5-0.35789 4.5h-2.5686l-3.2761-5h-8.8087l-2.0726 2.6349-2.0726 2.6348v6.6362l2.2205 4.8736 2.4368 1.1102 2.4368 1.1103h4.6362l5.3285-4.1914 1.5538 0.5962 1.5538 0.5963-0.79242 2.3772-5.1454 3.8416-4.3642 0.4508-4.3642 0.4507zm32 1.0801-1.5-0.5361-2.5-3.1522v-18.618h-4v-4h4v-5.69l4-3.62v9.31h6.1466l-0.33188 1.75-0.33187 1.75-5.4829 0.6328v16.622l1.4562 1.2086 1.4562 1.2085 2.1017-1.299 0.63865 1.6643 0.63865 1.6644-1.3957 0.8837-1.3957 0.8838-2-0.128-1.5-0.5361zm-150.81-2.056 0.33702-1.75 2.4726-0.25 2-0.25v-18h-5v-4h9v3l1.5-0.064 3.8823-2.9364h8.3078l1.761 1.9459 1.761 1.9458-0.12082 8.9827-0.12081 8.9826 4.5092 0.643 0.33355 1.75 0.33354 1.75h-13.293l0.33702-1.75 0.33701-1.75h2.9726l0.28739-8.0612 0.28739-8.0611-1.8975-1.7173-1.8975-1.7172-5.776 2.196-3.5037 3.1708v13.69l2 0.25 2.4726 0.25 0.67404 3.5h-14.293zm55 0 0.33667-1.7482h3.9733l0.2866-9.1801 0.28661-9.18-2.778-0.32-2.7781-0.3197-0.33186-1.75-0.33188-1.75h10.147v4h1l4-4h7.5714v4h-7.2228l-4.3937 4.6769-0.62206 6.6615-0.62207 6.6616 0.89461 0.1276 0.8946 0.1277 2.2816 0.2373 2.2816 0.2374 0.56848 0.5685 0.56849 0.5684-0.65915 1.0666-0.65915 1.0665h-15.029l0.33668-1.7482zm107.81-0.252v-2l1.5 0.2368 2.5-0.2368v-18h-3.7667l-1.046-4h9.3128l-0.31238 11.002-0.31239 11.002 2.1248 0.25 2.4726 0.25 0.67404 3.5h-13.147v-2zm18.19 0.25 0.33702-1.75 2.4726-0.25 2-0.25v-17.861l-2.2398-0.3195-2.2398-0.3196-0.66708-3.5h8.9327l1.1237 2.9282 5.5903-2.9159 7.19-0.02 1.655 1.8288 1.655 1.8287v18.342l2 0.25 2.4726 0.25 0.67404 3.5h-11.933l-0.61112-1.5925-0.61111-1.5926 4.0082-1.0481v-15.624l-3.2107-3.2108-2.1446 0.6164-2.1446 0.6163-2.5 1.7709-2.5 1.7708-0.29381 7.1467-0.29381 7.1468 2.0876 0.25 2.4726 0.25 0.67404 3.5h-14.293l0.33702-1.75zm-14.19-31.75-1.3157-1.5853 2.1028-2.1028 3.7124 0.715v3.9452l-3.1839 0.6132z"/>
</g>
</g>
</svg>
