<?xml version="1.0" encoding="UTF-8" standalone="no"?>
<!-- Created with Inkscape (http://www.inkscape.org/) -->

<svg xmlns:dc="http://purl.org/dc/elements/1.1/" xmlns:cc="http://creativecommons.org/ns#" xmlns:rdf="http://www.w3.org/1999/02/22-rdf-syntax-ns#" xmlns:svg="http://www.w3.org/2000/svg" xmlns="http://www.w3.org/2000/svg" xmlns:sodipodi="http://sodipodi.sourceforge.net/DTD/sodipodi-0.dtd" xmlns:inkscape="http://www.inkscape.org/namespaces/inkscape" width="70.556mm" height="25.682mm" viewBox="0 0 250 91.003" id="svg2" version="1.1" inkscape:version="0.91 r13725" sodipodi:docname="opendatasoft.svg">
  <defs id="defs4" />
  <sodipodi:namedview id="base" pagecolor="#ffffff" bordercolor="#666666" borderopacity="1.0" inkscape:pageopacity="0.0" inkscape:pageshadow="2" inkscape:zoom="1.4" inkscape:cx="119.12" inkscape:cy="0.72325" inkscape:document-units="px" inkscape:current-layer="layer1" showgrid="false" fit-margin-top="0" fit-margin-left="0" fit-margin-right="0" fit-margin-bottom="0" inkscape:window-width="1280" inkscape:window-height="751" inkscape:window-x="0" inkscape:window-y="1" inkscape:window-maximized="1" />
  <metadata id="metadata7">
    <rdf:RDF>
      <cc:Work rdf:about="">
        <dc:format>image/svg+xml</dc:format>
        <dc:type rdf:resource="http://purl.org/dc/dcmitype/StillImage" />
        <dc:title></dc:title>
      </cc:Work>
    </rdf:RDF>
  </metadata>
  <g inkscape:label="Layer 1" inkscape:groupmode="layer" id="layer1" transform="translate(244.29,-486.86)">
    <rect style="opacity:0.001;fill:#ffffff;fill-opacity:1;stroke:none;stroke-width:2.5;stroke-linecap:round;stroke-linejoin:round;stroke-miterlimit:4;stroke-dasharray:none;stroke-dashoffset:0;stroke-opacity:1" id="rect4175" width="250" height="91" x="-244.29" y="486.86" />
    <path style="fill:#ffffff" d="m -190.35,554.14 c -2.02,-0.37 -3.69,-0.68 -3.7,-0.69 -0.1,-0.1 -0.35,-7.74 -0.28,-7.81 0.1,-0.1 7.49,1.08 8.17,1.26 0.22,0.1 0.23,0.38 0.23,4.01 l 0,3.96 -0.37,-0.1 c -0.21,0 -2.02,-0.32 -4.05,-0.7 z m 40.88,-4.98 c -0.11,-0.1 -0.1,-22.78 0.1,-22.78 0.1,0 0.82,-0.1 1.72,-0.21 2.34,-0.29 2.22,-0.31 2.32,0.41 0.1,0.34 0.13,0.61 0.16,0.61 0.1,0 0.33,-0.2 0.65,-0.45 0.84,-0.64 1.47,-0.84 2.67,-0.82 1.8,0 3.02,0.81 3.76,2.42 1.34,2.93 1.29,9.64 -0.1,12.44 -0.52,1.04 -1.51,1.99 -2.49,2.31 -1.07,0.37 -2.85,0.35 -3.6,-0.1 l -0.58,-0.3 0,2.99 0,2.99 -0.31,0 c -0.18,0 -1.18,0.12 -2.25,0.25 -1.07,0.14 -1.97,0.22 -2.02,0.18 z m 6.69,-9.19 c 0.54,-0.47 0.75,-1.48 0.84,-4.12 0.12,-3.53 -0.24,-5.97 -0.91,-6.34 -0.41,-0.22 -1.13,-0.15 -1.6,0.14 l -0.45,0.27 0,4.98 0,4.95 0.38,0.22 c 0.56,0.31 1.32,0.27 1.74,-0.1 z m -47.64,2.73 c -2.28,-0.38 -4.16,-0.7 -4.18,-0.7 0,0 -0.41,-8.88 -0.37,-8.92 0,0 2,0.24 4.42,0.58 2.42,0.36 4.45,0.63 4.51,0.63 0.1,0 0.11,2.05 0.11,4.56 0,3.57 -0.1,4.56 -0.16,4.55 -0.1,0 -2.05,-0.32 -4.33,-0.7 z m 30.53,0.56 c -1.89,-0.36 -3.64,-1.8 -4.64,-3.83 -1.08,-2.24 -1.43,-4.39 -1.32,-8.56 0.11,-4.2 0.66,-6.46 2.02,-8.35 1.73,-2.43 5.57,-3.24 8.51,-1.8 2.16,1.05 3.6,3.44 4.16,6.96 0.25,1.45 0.25,6.3 0,7.9 -0.23,1.58 -0.72,3.28 -1.23,4.28 -0.54,1.06 -1.72,2.32 -2.62,2.77 -1.32,0.68 -3.33,0.94 -4.88,0.63 z m 2.44,-3.61 c 0.5,-0.29 0.77,-0.79 1.05,-1.84 0.33,-1.28 0.44,-9.17 0.14,-11.06 -0.24,-1.68 -0.72,-2.71 -1.37,-3.02 -1.43,-0.67 -2.45,0.25 -2.89,2.61 -0.46,2.56 -0.37,9.53 0.16,11.56 0.22,0.87 0.74,1.64 1.2,1.84 0.47,0.2 1.32,0.15 1.71,-0.1 z m 26.53,3.67 c -0.82,-0.1 -2.06,-0.6 -2.71,-1.07 -1.21,-0.88 -2.06,-2.6 -2.4,-4.82 -0.24,-1.53 -0.17,-4.55 0.12,-5.99 0.82,-3.98 3.3,-6 6.77,-5.49 1.87,0.28 3.01,1.1 3.75,2.68 0.61,1.29 0.81,2.46 0.9,5.14 l 0.1,2.42 -3.71,0 -3.7,0 0.1,0.71 c 0.21,1.62 0.62,2.46 1.44,2.86 0.9,0.45 2.45,0.2 3.51,-0.57 0.32,-0.23 0.62,-0.42 0.68,-0.42 0.1,0 0.45,0.63 0.87,1.41 0.9,1.64 0.92,1.6 -0.63,2.36 -1.48,0.72 -3.31,1.01 -5.05,0.78 z m 2.21,-11.46 c -0.1,-1.56 -0.36,-2.52 -0.79,-2.76 -0.5,-0.26 -1.1,-0.16 -1.5,0.28 -0.43,0.46 -0.61,1.17 -0.73,2.89 l -0.1,1.06 1.58,0 1.58,0 -0.1,-1.47 z m 37.132,11.36 c -1.76,-0.58 -2.7,-1.98 -2.84,-4.26 -0.14,-2 0.45,-3.79 1.5,-4.59 0.99,-0.76 1.67,-0.95 3.618,-1.02 l 1.817,-0.1 -0.09,-1.56 c -0.09,-1.37 -0.09,-1.57 -0.351,-1.84 -0.594,-0.59 -2.454,-0.49 -3.904,0.24 -0.36,0.18 -0.68,0.33 -0.73,0.33 -0.1,0 -1.4,-2.83 -1.4,-3 0,-0.42 2.98,-1.41 4.703,-1.57 2.87,-0.24 5.038,0.63 5.847,2.39 0.27,0.58 0.288,0.9 0.369,6.74 0.09,5.33 0.09,6.22 0.297,6.74 0.135,0.34 0.207,0.62 0.18,0.65 -0.1,0.1 -3.482,0.99 -3.752,0.99 -0.26,0 -0.836,-0.89 -0.836,-1.3 0,-0.18 -0.108,-0.14 -0.432,0.23 -0.252,0.27 -0.666,0.6 -0.927,0.74 -0.63,0.33 -2.309,0.4 -3.109,0.14 z m 3.645,-2.88 0.423,-0.36 0,-2.24 0,-2.24 -0.648,0 c -1.51,0 -2.08,0.73 -2.08,2.7 0,1.35 0.2,2.09 0.63,2.33 0.469,0.27 1.225,0.18 1.675,-0.19 z m 9.312,2.83 c -0.873,-0.31 -1.476,-0.85 -1.854,-1.66 -0.279,-0.59 -0.288,-0.84 -0.323,-6.38 l -0.09,-5.75 -0.549,0 -0.531,0 0,-1.56 0,-1.58 0.612,0 0.611,0 0,-0.86 c 0,-0.48 0.09,-1.42 0.09,-2.1 l 0.1,-1.21 1.719,-0.25 c 0.935,-0.13 1.88,-0.27 2.078,-0.31 l 0.387,-0.1 0,2.39 0,2.41 1.161,0 1.16,0 0,1.57 0,1.57 -1.178,0 -1.161,0 0.09,5.1 c 0.09,4.63 0.09,5.13 0.279,5.34 0.252,0.25 1.007,0.32 1.628,0.15 0.36,-0.1 0.36,-0.1 0.468,0.82 0.09,0.5 0.108,1.19 0.108,1.53 0,0.59 0,0.61 -0.531,0.8 -0.297,0.1 -1.223,0.22 -2.042,0.24 -1.233,0.1 -1.637,0 -2.222,-0.19 z m 8.493,0 c -0.972,-0.32 -1.989,-1.36 -2.393,-2.42 -0.405,-1.08 -0.45,-3.44 -0.09,-4.49 0.764,-2.11 2.231,-2.94 5.209,-2.94 l 1.556,0 0,-1.12 c 0,-1.41 -0.18,-2.05 -0.657,-2.43 -0.324,-0.26 -0.485,-0.29 -1.484,-0.24 -0.927,0.1 -1.278,0.13 -2.06,0.53 l -0.936,0.46 -0.63,-1.35 c -0.342,-0.76 -0.666,-1.48 -0.711,-1.6 -0.09,-0.18 0.108,-0.32 0.801,-0.65 3.275,-1.56 7.629,-1.34 9.159,0.45 0.891,1.03 0.918,1.26 1.008,7.99 0.09,5.24 0.107,6.14 0.305,6.56 l 0.216,0.5 -1.529,0.43 c -2.24,0.61 -2.348,0.64 -2.663,0.34 -0.153,-0.13 -0.342,-0.47 -0.423,-0.74 l -0.153,-0.51 -0.576,0.56 c -0.306,0.32 -0.8,0.64 -1.115,0.74 -0.774,0.23 -2.034,0.2 -2.843,-0.1 z m 3.805,-2.86 c 0.468,-0.47 0.495,-0.63 0.459,-2.84 l -0.09,-1.9 -0.648,-0.1 c -1.502,-0.1 -2.132,0.69 -2.15,2.67 0,1.79 0.396,2.48 1.449,2.49 0.441,0 0.656,-0.1 0.926,-0.35 z m 9.822,2.95 c -1.716,-0.26 -4.01,-1.21 -3.911,-1.63 0,-0.12 0.351,-0.92 0.72,-1.78 l 0.693,-1.59 0.899,0.52 c 0.931,0.53 2.21,0.94 2.96,0.94 1.202,0 2.361,-0.8 2.646,-1.84 0.232,-0.84 0.177,-2.1 -0.109,-2.75 -0.341,-0.75 -0.968,-1.13 -2.727,-1.68 -2.356,-0.74 -3.624,-1.84 -4.182,-3.58 -0.306,-0.93 -0.414,-3.99 -0.189,-5.04 0.225,-1.12 0.99,-2.56 1.691,-3.2 0.717,-0.67 1.644,-1.15 2.669,-1.41 0.936,-0.22 3.199,-0.22 4.292,0 0.802,0.18 2.287,0.78 2.903,1.18 l 0.312,0.21 -0.928,1.76 -0.91,1.75 -0.368,-0.32 c -0.751,-0.63 -1.636,-0.95 -2.713,-1 -0.844,-0.1 -1.103,0 -1.475,0.24 -0.895,0.56 -1.279,1.78 -1.004,3.15 0.227,1.08 0.844,1.62 2.422,2.1 2.455,0.75 3.929,1.81 4.623,3.37 1.009,2.26 0.668,6.19 -0.725,8.18 -1.443,2.06 -4.141,2.92 -7.589,2.42 z m 14.309,-0.1 c -2.112,-0.5 -3.515,-2.11 -4.182,-4.76 -0.26,-1.06 -0.302,-1.57 -0.302,-3.81 0,-2.82 0.193,-3.84 0.943,-5.44 1.119,-2.35 3.64,-3.65 6.321,-3.24 3.313,0.49 5.031,2.91 5.291,7.5 0.191,3.49 -0.585,6.71 -1.993,8.23 -1.346,1.47 -3.774,2.08 -6.078,1.52 z m 2.36,-3.13 c 0.762,-0.54 1.037,-2.37 0.938,-6.45 -0.05,-2.33 -0.109,-3.09 -0.3,-3.6 -0.27,-0.75 -0.819,-1.13 -1.414,-0.98 -1.035,0.26 -1.258,1.06 -1.335,4.86 -0.08,3.09 0.07,4.83 0.434,5.62 0.342,0.72 1.093,0.97 1.677,0.55 z m 17.714,3.17 c -0.911,-0.26 -1.576,-0.82 -2.002,-1.71 l -0.351,-0.76 -0.05,-5.71 -0.05,-5.67 -1.569,0 -1.552,0 0,6.8 0,6.83 -2.314,0 -2.32,0 0,-6.83 0,-6.8 -0.543,0 -0.549,0 0,-1.58 0,-1.56 0.534,0 0.533,0 0.05,-2.22 c 0.05,-1.72 0.109,-2.34 0.301,-2.75 0.3,-0.7 0.817,-1.25 1.512,-1.62 1.185,-0.63 5.523,-0.38 5.331,0.31 -0.05,0.11 -0.165,0.71 -0.284,1.31 -0.342,1.63 -0.291,1.54 -0.793,1.44 -0.626,-0.15 -1.252,0.1 -1.435,0.47 -0.09,0.19 -0.159,0.96 -0.159,1.71 l 0,1.36 1.729,-0.1 1.745,-0.1 0.06,-2 c 0.05,-1.1 0.1,-2.03 0.138,-2.06 0.05,-0.1 3.856,-0.64 4.125,-0.64 0.06,0 0.1,1.07 0.1,2.38 l 0,2.39 1.118,0 1.129,0 -0.05,1.56 -0.05,1.58 -1.087,0 -1.077,0 0,5.04 c 0,3.09 0.05,5.15 0.135,5.3 0.177,0.34 0.777,0.45 1.476,0.3 0.31,-0.1 0.57,-0.12 0.57,-0.11 0,0 0.1,0.68 0.191,1.48 l 0.165,1.46 -0.341,0.14 c -1.093,0.44 -3.23,0.55 -4.406,0.23 z m -160.952,-4.69 0,-4.47 1.94,-1.16 c 1.07,-0.64 1.98,-1.18 2.06,-1.2 0.14,-0.1 0,7.53 -0.16,8.31 -0.1,0.38 -0.33,0.61 -1.72,1.58 -0.9,0.63 -1.74,1.2 -1.88,1.27 -0.21,0.14 -0.24,-0.11 -0.24,-4.33 z m 60.12,-3.84 0,-8.29 0.44,-0.1 c 0.91,-0.17 3.39,-0.4 3.45,-0.35 0.1,0.1 0.1,0.4 0.16,0.77 0.1,0.39 0.1,0.71 0.14,0.71 0.1,0 0.32,-0.23 0.61,-0.49 0.82,-0.75 1.63,-1.05 2.83,-1.08 1.44,0 2.24,0.26 3.01,1.01 1.09,1.05 1.08,1.01 1.08,9.1 l 0,7 -2.25,0 -2.25,0 0,-6.17 c 0,-3.73 -0.1,-6.37 -0.13,-6.67 -0.24,-0.86 -1.39,-1.04 -2.24,-0.37 l -0.34,0.27 0,6.47 0,6.47 -2.25,0 -2.26,0 0,-8.31 z m 13.76,-3.02 0,-11.33 3.93,0.1 c 4.22,0.1 4.67,0.14 6.122,0.87 0.96,0.48 2.23,1.84 2.75,2.95 0.92,1.91 1.34,4.8 1.2,8.21 -0.16,4.31 -1.09,7.13 -2.92,8.8 -1.62,1.48 -2.782,1.75 -7.572,1.75 l -3.51,0 0,-11.31 z m 7.27,7.41 c 1.2,-0.71 1.48,-1.92 1.57,-6.73 0.12,-6.84 -0.38,-8.2 -3.03,-8.4 l -1.03,-0.1 0,7.81 0,7.81 1.03,-0.1 c 0.63,-0.1 1.19,-0.17 1.46,-0.33 z m -100.68,1.65 c -2.03,-0.34 -3.72,-0.63 -3.74,-0.66 -0.1,-0.1 -0.97,-8.71 -0.93,-8.75 0.1,-0.1 8.47,1.19 8.54,1.27 0.1,0.1 0.56,7.29 0.54,8.33 0,0.55 0.2,0.56 -4.41,-0.19 z m 11.98,-11.04 c -2.46,-0.35 -4.51,-0.62 -4.53,-0.65 -0.1,-0.1 -0.49,-10.06 -0.41,-10.12 0.1,-0.1 2.24,0.14 4.86,0.44 l 4.77,0.52 0,5.21 c 0,2.88 -0.1,5.22 -0.1,5.21 -0.1,0 -2.12,-0.29 -4.59,-0.61 z m 7.71,-2.96 c 0,-1.82 0.1,-4.16 0.1,-5.2 l 0.1,-1.9 2.12,-0.97 c 1.16,-0.54 2.11,-0.97 2.14,-0.95 0,0 -0.1,2.22 -0.13,4.91 -0.1,3.2 -0.21,4.95 -0.3,5.06 -0.1,0.1 -1.03,0.65 -2.09,1.26 l -1.94,1.07 0,-3.28 z m -20.73,1.24 c -2.21,-0.3 -4.03,-0.56 -4.04,-0.57 -0.1,-0.1 -1.12,-9.96 -1.08,-10 0,0 2.07,0.21 4.61,0.49 l 4.6,0.49 0,0.34 c 0,0.2 0.14,2.49 0.31,5.09 l 0.3,4.73 -0.34,0 c -0.18,0 -2.15,-0.26 -4.36,-0.55 z m -12.1,-1.6 c -2.05,-0.29 -3.75,-0.56 -3.79,-0.59 -0.1,-0.1 -0.44,-2.26 -0.86,-4.93 l -0.78,-4.85 0.55,0.1 c 0.31,0.1 2.23,0.25 4.29,0.47 2.05,0.23 3.76,0.44 3.81,0.48 0.1,0.1 0.29,2.01 0.58,4.39 0.28,2.38 0.55,4.61 0.59,4.92 0.12,0.71 0.49,0.71 -4.39,0.1 z m 38.68,-0.1 c 0,-0.17 0.1,-2.29 0.2,-4.73 0.12,-2.44 0.21,-4.5 0.21,-4.58 0,-0.17 3.64,-1.9 3.77,-1.78 0.1,0.1 -0.29,7.1 -0.45,8.69 l -0.1,0.76 -1.73,0.97 c -0.96,0.54 -1.78,0.98 -1.83,0.98 -0.1,0 -0.1,-0.14 -0.1,-0.31 z m -13.12,-9.7 c -2.24,-0.24 -4.08,-0.46 -4.12,-0.49 -0.1,-0.1 0.97,-0.45 2.21,-0.92 l 2.28,-0.85 4.54,0.44 c 2.49,0.25 4.53,0.48 4.53,0.53 0,0.1 -0.89,0.46 -1.98,0.92 -2.33,1 -1.85,0.97 -7.46,0.37 z m -13.09,-1.36 c -2.21,-0.23 -4.06,-0.46 -4.11,-0.49 -0.1,-0.1 1.03,-0.44 2.36,-0.88 l 2.42,-0.8 3.73,0.38 c 2.06,0.19 4.04,0.41 4.42,0.45 l 0.67,0.1 -2.42,0.87 c -1.33,0.46 -2.55,0.85 -2.72,0.84 -0.16,0 -2.12,-0.21 -4.35,-0.45 z m 20.07,-1.24 c -2.35,-0.23 -4.32,-0.45 -4.36,-0.46 -0.1,0 0.82,-0.37 1.91,-0.79 l 1.98,-0.76 4.23,0.37 c 2.32,0.2 4.32,0.4 4.42,0.44 0.21,0.1 -3.43,1.69 -3.73,1.66 -0.1,0 -2.08,-0.21 -4.45,-0.46 z m -33.01,-0.1 -3.94,-0.43 2.78,-0.79 2.75,-0.79 3.63,0.35 c 1.97,0.19 3.81,0.38 4.05,0.45 0.41,0.1 0.17,0.18 -2.06,0.86 -1.37,0.44 -2.68,0.79 -2.89,0.77 -0.23,0 -2.17,-0.19 -4.32,-0.42 z m 19.62,-1.17 c -1.93,-0.19 -3.5,-0.38 -3.5,-0.43 0,-0.1 0.95,-0.38 2.14,-0.76 l 2.15,-0.69 4,0.38 c 2.19,0.21 4.05,0.39 4.12,0.42 0.1,0.1 -0.75,0.36 -1.83,0.76 -2.31,0.83 -2.05,0.83 -7.08,0.32 z m 18.85,-1.06 c -1.84,-0.17 -3.49,-0.32 -3.68,-0.36 -0.23,-0.1 0.26,-0.26 1.49,-0.73 l 1.85,-0.68 4.04,0.35 c 2.23,0.19 4.08,0.38 4.12,0.42 0.1,0.1 -0.59,0.37 -1.41,0.72 -1.77,0.76 -1.6,0.75 -6.41,0.28 z" id="path4147" inkscape:connector-curvature="0" />
  </g>
</svg>
