<?xml version="1.0" encoding="UTF-8"?>
<svg version="1.1" viewBox="0 0 250 91" xmlns="http://www.w3.org/2000/svg" xmlns:cc="http://creativecommons.org/ns#" xmlns:dc="http://purl.org/dc/elements/1.1/" xmlns:rdf="http://www.w3.org/1999/02/22-rdf-syntax-ns#">
<metadata>
<rdf:RDF>
<cc:Work rdf:about="">
<dc:format>image/svg+xml</dc:format>
<dc:type rdf:resource="http://purl.org/dc/dcmitype/StillImage"/>
<dc:title/>
</cc:Work>
</rdf:RDF>
</metadata>
<g transform="translate(0,-961.4)" fill="#fff">
<path transform="translate(0,961.4)" d="m120.99 12.023c-18.91 9.99e-4 -34.24 15.329-34.24 34.24 0 18.91 15.331 34.236 34.24 34.236 18.912 0 34.24-15.327 34.24-34.236 0-1.1121-0.05977-2.2091-0.16211-3.291a6.5626 6.5626 0 0 1-1.2012 0.11328 6.4225 6.4225 0 0 1-2.3789-12.387 34.469 34.469 0 0 0-1.373-2.4414 9.6057 9.6057 0 0 1-11.119-11.119 34.081 34.081 0 0 0-18.006-5.1152zm10.172 16.992c0.87932 0 1.661 0.27783 2.3086 0.8457 0.50747 0.44398 1.0082 1.2534 1.334 2.0605 0.36859 0.91272 12.168 29.689 12.168 29.689h-6.5664c-1.164 0-1.3984-0.15989-1.7812-1.0586-0.01182-0.0323-2.4629-5.9688-2.4629-5.9688h-8.4727l-2.7617 7.0273h-7.5996c0.54413-1.2942 3.8418-9.0998 4.6641-10.92 0.84592-1.8653 1.3173-2.291 3.5879-2.291h8.0391c-2.5023-6.0863-4.2843-10.424-5.4805-13.34-0.4924-1.2047-0.69531-1.978-0.69531-2.6816 0-1.736 1.5064-3.3633 3.7188-3.3633zm-31.723 0.22656h11.764c4.4072 0 7.6694 1.1229 9.8203 3.1973 1.8686 1.806 2.9785 4.3361 2.9785 7.4492v0.085937c0 3.4504-1.2948 6.2471-3.3887 8.1836-2.2824 2.1099-5.4995 3.2363-9.9434 3.2363h-3.5996v10.217h-7.6309v-32.369zm7.6328 6.4961v9.2051h3.5391c2.1993 0 3.6364-0.35404 4.6289-1.1816 0.89236-0.7435 1.3887-1.8926 1.3887-3.4336 0-1.5399-0.49631-2.6686-1.3887-3.4121-0.99254-0.82552-2.4304-1.1777-4.6289-1.1777h-3.5391z" fill-rule="evenodd" opacity=".95" stroke-width="1.0776"/>
<path d="m163.25 988.73a3.298 3.298 0 1 0-6.596-2e-3 3.2975 3.2975 0 0 0 6.5949 2e-3" fill-rule="evenodd" opacity=".7" stroke-width="1.0776"/>
<path d="m156.66 980.19a8.2005 8.2005 0 1 0-16.4 0 8.2005 8.2005 0 0 0 16.4 0" fill-rule="evenodd" stroke-width="1.0776"/>
<path d="m158.87 998.06a4.9968 4.9968 0 1 0-9.9923 0 4.9963 4.9963 0 1 0 9.9923 0" fill-rule="evenodd" opacity=".8" stroke-width="1.0776"/>
</g>
</svg>
