<?xml version="1.0" encoding="UTF-8"?>
<svg version="1.1" viewBox="0 0 250 91" xmlns="http://www.w3.org/2000/svg" xmlns:cc="http://creativecommons.org/ns#" xmlns:dc="http://purl.org/dc/elements/1.1/" xmlns:rdf="http://www.w3.org/1999/02/22-rdf-syntax-ns#">
<metadata>
<rdf:RDF>
<cc:Work rdf:about="">
<dc:format>image/svg+xml</dc:format>
<dc:type rdf:resource="http://purl.org/dc/dcmitype/StillImage"/>
<dc:title/>
</cc:Work>
</rdf:RDF>
</metadata>
<g transform="translate(0,-961.4)">
<g transform="matrix(.29436 0 0 .29436 67.42 728.08)" fill="#fff" stroke-width=".84515">
<path d="m257.8 1060.9c-15.897-7.9216-15.748-30.203 0.25797-38.612 4.6982-2.4685 13.872-2.4739 18.604-0.011 7.8735 4.0982 11.777 10.494 11.757 19.261-0.0134 5.8512-0.97929 9.0277-4.2971 14.132-1.4758 2.2705-1.4634 2.3331 0.95717 4.8596l2.4522 2.5595h-4.2149c-2.3182 0-4.6424-0.4275-5.165-0.9501-0.70343-0.7034-1.6579-0.7034-3.6758 0-4.8612 1.6946-11.828 1.177-16.676-1.239zm13.657-5.1527c0.31935-0.3194-0.83541-2.0308-2.5661-3.8032l-3.1468-3.2226h4.2663c3.2043 0 4.6502 0.4242 5.8083 1.7039 1.5378 1.6992 1.5461 1.6975 3.067-0.6209 0.83876-1.2786 1.774-3.9848 2.0782-6.0138 2.3494-15.666-18.642-23.224-25.334-9.1208-3.3325 7.0228-1.0655 15.433 5.3201 19.736 2.7684 1.8656 9.1659 2.6822 10.507 1.3411zm27.753 5.6309c-4.6714-2.8481-6.0381-7.18-6.0597-19.207l-0.0186-10.353h7.4685l0.28021 10.478c0.32166 12.028 1.2329 14.031 6.3829 14.031 6.3955 0 7.8424-2.908 7.8424-15.762v-8.748h7.6064v31.271h-3.8032c-3.2304 0-3.8032-0.2527-3.8032-1.6778 0-1.6731-8e-3 -1.6732-2.7468 0-3.6272 2.2115-9.4946 2.1982-13.149-0.03zm37.447 0.5339c-3.8056-1.6674-7.9441-6.3561-8.9687-10.161-3.7609-13.967 11.455-25.323 24.044-17.945 8.966 5.2545 10.612 16.062 3.6532 23.988-1.4542 1.6563-3.8738 3.5253-5.3769 4.1533-3.4378 1.4364-10.033 1.419-13.352-0.035zm12.716-7.6587c2.503-2.503 3.0698-8.8365 1.1182-12.496-1.2942-2.4265-5.6768-4.2354-8.8291-3.644-6.9934 1.312-9.3615 12.827-3.4844 16.944 2.9385 2.0582 8.7504 1.6407 11.195-0.8042zm22.781 7.4284c-5.6409-2.9805-8.837-8.1264-8.837-14.228 0-11.432 12.076-19.184 21.905-14.061l3.4126 1.7787v-16.876h7.6064v44.793h-3.3806c-2.8172 0-3.3806-0.2817-3.3806-1.6903 0-0.9296-0.20531-1.6903-0.45624-1.6903-0.25094 0-1.9472 0.7607-3.7695 1.6903-3.9547 2.0176-9.5868 2.1392-13.1 0.283zm12.302-6.2241c2.0653-1.1053 4.179-5.1535 4.179-8.0039s-2.1136-6.8986-4.179-8.0039c-2.4085-1.289-7.8583-1.0552-9.9759 0.4281-2.7339 1.9149-4.046 7.0244-2.7849 10.845 0.55613 1.6851 1.8273 3.6355 2.8248 4.3342 2.0837 1.4594 7.5456 1.6794 9.936 0.4001z"/>
<path d="m198.65 1062.2c-1.527-0.4893-4.5293-2.4327-6.6718-4.3186-12.133-10.68-9.9176-29.482 4.3772-37.148 4.8294-2.5898 15.464-2.5772 20.364 0.024 9.692 5.1453 14.361 16.707 11.151 27.616-1.3823 4.6987-9.1661 12.482-13.865 13.865-4.1413 1.2184-11.49 1.1998-15.356-0.039zm-112.16-10.426c-18.469-3.4474-35.529-11.426-50.958-23.832-18.676-15.017-33.353-38.855-38.356-62.295-2.3528-11.023-2.9173-29.933-1.2044-40.345 3.9869-24.235 16.236-47.37 33.686-63.622 28.79-26.814 66.894-36.43 105.22-26.555 35.736 9.2076 65.16 36.886 76.681 72.135 7.1801 21.966 7.6099 46.984 1.1656 67.848-4.9023 15.872-15.26 32.606-28.165 45.504-15.186 15.178-31.887 24.514-53.702 30.021-9.5497 2.4106-34.175 3.0436-44.371 1.1405zm67.93-30.75c13.92-2.6399 26.391-14.78 29.634-28.85 2.8432-12.333-1.1262-25.577-10.501-35.038-8.1726-8.2471-18.477-12.089-29.681-11.064-28.751 2.6282-44.073 35.699-27.619 59.613 8.2013 11.919 23.589 18.104 38.166 15.339z"/>
</g>
</g>
</svg>
