<?xml version="1.0" encoding="UTF-8" standalone="no"?>
<!-- Created with Inkscape (http://www.inkscape.org/) -->

<svg
   xmlns:dc="http://purl.org/dc/elements/1.1/"
   xmlns:cc="http://creativecommons.org/ns#"
   xmlns:rdf="http://www.w3.org/1999/02/22-rdf-syntax-ns#"
   xmlns:svg="http://www.w3.org/2000/svg"
   xmlns="http://www.w3.org/2000/svg"
   xmlns:sodipodi="http://sodipodi.sourceforge.net/DTD/sodipodi-0.dtd"
   xmlns:inkscape="http://www.inkscape.org/namespaces/inkscape"
   width="250"
   height="91"
   viewBox="0 0 250 91"
   id="svg2"
   version="1.1"
   inkscape:version="0.92.2 (5c3e80d, 2017-08-06)"
   sodipodi:docname="quod.svg"
   inkscape:export-filename="C:\Users\Amy\Desktop\Assets\arup.png"
   inkscape:export-xdpi="90"
   inkscape:export-ydpi="90">
  <defs
     id="defs4" />
  <sodipodi:namedview
     id="base"
     pagecolor="#ffffff"
     bordercolor="#666666"
     borderopacity="1.0"
     inkscape:pageopacity="0.0"
     inkscape:pageshadow="2"
     inkscape:zoom="2.8000014"
     inkscape:cx="211.29257"
     inkscape:cy="104.74942"
     inkscape:document-units="px"
     inkscape:current-layer="layer1"
     showgrid="false"
     inkscape:window-width="1920"
     inkscape:window-height="1001"
     inkscape:window-x="-9"
     inkscape:window-y="-9"
     inkscape:window-maximized="1"
     units="px" />
  <metadata
     id="metadata7">
    <rdf:RDF>
      <cc:Work
         rdf:about="">
        <dc:format>image/svg+xml</dc:format>
        <dc:type
           rdf:resource="http://purl.org/dc/dcmitype/StillImage" />
        <dc:title></dc:title>
      </cc:Work>
    </rdf:RDF>
  </metadata>
  <g
     inkscape:label="Layer 1"
     inkscape:groupmode="layer"
     id="layer1"
     transform="translate(0,-961.4)">
    <rect
       style="opacity:0.001;fill:none;fill-opacity:1;stroke:none;stroke-width:2.5;stroke-linecap:round;stroke-linejoin:round;stroke-miterlimit:4;stroke-dasharray:none;stroke-dashoffset:0;stroke-opacity:1"
       id="rect4175"
       width="250"
       height="91"
       x="0"
       y="961.4" />
    <g
       id="g995"
       style="fill:#ffffff"
       transform="matrix(0.2943631,0,0,0.2943631,67.420257,728.08109)">
      <path
         inkscape:connector-curvature="0"
         id="path991"
         d="m 257.79788,1060.8663 c -15.89651,-7.9216 -15.74765,-30.2026 0.25797,-38.6124 4.6982,-2.4685 13.8724,-2.4739 18.60449,-0.011 7.87352,4.0982 11.77743,10.4936 11.75732,19.261 -0.0134,5.8512 -0.97929,9.0277 -4.29706,14.1323 -1.47576,2.2705 -1.46345,2.3331 0.95717,4.8596 l 2.45217,2.5595 h -4.21487 c -2.31817,0 -4.64243,-0.4275 -5.16502,-0.9501 -0.70343,-0.7034 -1.65789,-0.7034 -3.67576,0 -4.86117,1.6946 -11.82815,1.177 -16.67641,-1.239 z m 13.65678,-5.1527 c 0.31935,-0.3194 -0.83541,-2.0308 -2.56613,-3.8032 l -3.14676,-3.2226 h 4.26631 c 3.20428,0 4.65016,0.4242 5.80829,1.7039 1.53777,1.6992 1.54612,1.6975 3.06698,-0.6209 0.83876,-1.2786 1.77396,-3.9848 2.07821,-6.0138 2.34935,-15.6665 -18.64167,-23.2238 -25.33397,-9.1208 -3.33253,7.0228 -1.06546,15.4331 5.32011,19.7363 2.76836,1.8656 9.16588,2.6822 10.50696,1.3411 z m 27.75336,5.6309 c -4.67139,-2.8481 -6.03812,-7.18 -6.05968,-19.2066 l -0.0186,-10.3532 h 3.73427 3.73427 l 0.28021,10.4784 c 0.32166,12.0281 1.23286,14.0311 6.38286,14.0311 6.39547,0 7.84242,-2.908 7.84242,-15.7615 v -8.748 h 3.8032 3.80319 v 15.6354 15.6353 h -3.80319 c -3.23038,0 -3.8032,-0.2527 -3.8032,-1.6778 0,-1.6731 -0.008,-1.6732 -2.74675,0 -3.62718,2.2115 -9.49456,2.1982 -13.14904,-0.03 z m 37.44724,0.5339 c -3.80565,-1.6674 -7.9441,-6.3561 -8.9687,-10.1612 -3.76091,-13.9669 11.45452,-25.3228 24.04394,-17.9449 8.96604,5.2545 10.612,16.0624 3.65319,23.988 -1.45424,1.6563 -3.87384,3.5253 -5.37689,4.1533 -3.43775,1.4364 -10.03252,1.419 -13.35154,-0.035 z m 12.71574,-7.6587 c 2.50303,-2.503 3.06982,-8.8365 1.11822,-12.4957 -1.29419,-2.4265 -5.67684,-4.2354 -8.82908,-3.644 -6.99345,1.312 -9.36153,12.8274 -3.48442,16.9439 2.93852,2.0582 8.75039,1.6407 11.19528,-0.8042 z m 22.78077,7.4284 c -5.64092,-2.9805 -8.83701,-8.1264 -8.83701,-14.228 0,-11.4321 12.07613,-19.1837 21.90493,-14.0606 l 3.4126,1.7787 v -8.438 -8.438 h 3.8032 3.80319 v 22.3966 22.3966 h -3.38062 c -2.81718,0 -3.38062,-0.2817 -3.38062,-1.6903 0,-0.9296 -0.20531,-1.6903 -0.45624,-1.6903 -0.25094,0 -1.94723,0.7607 -3.76953,1.6903 -3.95471,2.0176 -9.5868,2.1392 -13.0999,0.283 z m 12.30156,-6.2241 c 2.06534,-1.1053 4.17896,-5.1535 4.17896,-8.0039 0,-2.8504 -2.11362,-6.8986 -4.17896,-8.0039 -2.40851,-1.289 -7.85826,-1.0552 -9.97586,0.4281 -2.7339,1.9149 -4.04595,7.0244 -2.78491,10.8454 0.55613,1.6851 1.8273,3.6355 2.82482,4.3342 2.08369,1.4594 7.54558,1.6794 9.93595,0.4001 z"
         style="fill:#ffffff;stroke-width:0.84515494" />
      <path
         inkscape:connector-curvature="0"
         id="path985"
         d="m 198.65419,1062.1566 c -1.52695,-0.4893 -4.52926,-2.4327 -6.6718,-4.3186 -12.13305,-10.6799 -9.9176,-29.4819 4.37715,-37.1477 4.82937,-2.5898 15.46352,-2.5772 20.36374,0.024 9.69201,5.1453 14.36065,16.707 11.15133,27.616 -1.38234,4.6987 -9.16614,12.4825 -13.86487,13.8648 -4.14127,1.2184 -11.49031,1.1998 -15.35555,-0.039 z M 86.489392,1051.7304 c -18.46911,-3.4474 -35.52934,-11.4262 -50.95772,-23.8322 -18.67552,-15.017 -33.3530804,-38.85497 -38.3562104,-62.29479 -2.35283,-11.023 -2.91731,-29.9328 -1.20436,-40.345 3.98692,-24.2347 16.2363604,-47.3698 33.6863804,-63.6224 28.78951,-26.814 66.89435,-36.4303 105.223448,-26.5548 35.73646,9.2076 65.1596,36.8862 76.68127,72.1349 7.18009,21.9664 7.60989,46.9843 1.16561,67.8485 -4.9023,15.87172 -15.26015,32.60599 -28.1654,45.50429 -15.18617,15.178 -31.88708,24.5143 -53.70238,30.021 -9.54973,2.4106 -34.175238,3.0436 -44.370638,1.1405 z m 67.929788,-30.7495 c 13.92031,-2.6399 26.39094,-14.7803 29.63445,-28.84957 2.84324,-12.33312 -1.12615,-25.57692 -10.50142,-35.03762 -8.17257,-8.2471 -18.47735,-12.0886 -29.68059,-11.0645 -28.75091,2.6282 -44.072775,35.69922 -27.61865,59.61259 8.20132,11.9193 23.58901,18.1037 38.16621,15.3391 z"
         style="fill:#ffffff;stroke-width:0.84515494" />
    </g>
  </g>
</svg>
