<?xml version="1.0" encoding="UTF-8"?>
<svg version="1.1" viewBox="0 0 250 91" xml:space="preserve" xmlns="http://www.w3.org/2000/svg" xmlns:cc="http://creativecommons.org/ns#" xmlns:dc="http://purl.org/dc/elements/1.1/" xmlns:rdf="http://www.w3.org/1999/02/22-rdf-syntax-ns#"><defs><style>.cls-1{fill:#fff}.cls-2{clip-path:url(#a)}.cls-3{fill:none}</style><clipPath id="a"><rect class="cls-3" x="75.11" y="25.54" width="599.77" height="198.91"/></clipPath></defs><path d="m201.07 29.54c0 6.4548-3.8518 11.082-9.7413 13.212l13.869 18.181a27.975 27.975 0 0 0-10.254-43.382c4.2594 2.6292 6.1261 7.0332 6.1261 11.989zm-21.034 15.775h-2.5372v24.978a23.913 23.913 0 0 0 6.4811 0.63102 27.226 27.226 0 0 0 13.922-3.8124l-14.487-20.061a3.7861 3.7861 0 0 0-3.3391-1.7353zm2.7607-22.822h-5.2585v15.184h5.5083c2.7607 0 8.2821-1.2357 8.2821-7.8877 0-4.7984-3.773-7.2961-8.4924-7.2961zm-141.93 3.6941h2.3269c2.5241 0 3.7993-1.3146 3.7993-4.0885 0-2.5109-0.99911-3.418-3.7072-3.418h-2.4189zm4.7326 1.6959 5.035 9.2023s0 0.06574 0.06574 0.09203 0 0.15776 0 0.19719c0 0.09203-0.13146 0.18405-0.38124 0.22348l-1.8273 0.36809h-0.13147a0.3418 0.3418 0 0 1-0.36809-0.24978l-4.8247-9.6099h-2.3006v9.1103c0 0.35495 0 0.42068-0.40753 0.42068h-1.6827c-0.3418 0-0.40753-0.06574-0.40753-0.42068v-20.114c0-0.38124 0.06574-0.44697 0.40753-0.44697h4.6669c2.3006 0 3.4312 0.26293 4.3645 1.0123a5.2585 5.2585 0 0 1 1.7353 4.2462 5.8632 5.8632 0 0 1-3.9439 5.9684zm16.722 2.5504v-0.28922c0-3.6678-1.2489-5.6792-3.5626-5.6792-2.3137 0-3.6021 1.9062-3.6021 5.5871 0 4.0885 1.1832 6.0735 3.6021 6.0735 2.4189 0 3.4574-1.801 3.5626-5.6923zm2.4583-0.22348c0 4.943-2.34 7.8877-6.2313 7.8877-3.8913 0-5.8501-2.879-5.8501-7.73 0-4.8509 2.3006-7.822 6.1656-7.822s5.9158 2.8001 5.9158 7.6642zm4.2594-7.2567v-4.1805a0.40753 0.40753 0 0 1 0.31551-0.38124l1.5907-0.43382h0.09203s0.21034 0.06574 0.21034 0.3418v4.6538h4.5486c0.18405 0 0.28922 0 0.28922 0.22348a0.57843 0.57843 0 0 1 0 0.18405l-0.3418 1.1963c-0.06574 0.21034-0.15775 0.27607-0.40753 0.27607h-4.0227v8.6108c0 1.9851 0.38124 2.5241 1.8405 2.5241a6.4153 6.4153 0 0 0 2.7081-0.78877 0.72304 0.72304 0 0 1 0.22349-0.06574c0.09203 0 0.15775 0.06574 0.18405 0.19719l0.3681 1.2489v0.15776c0 0.13146-0.06574 0.19719-0.24978 0.31551a8.1375 8.1375 0 0 1-3.6809 0.90709c-2.7081 0-3.7072-1.2226-3.7072-4.4566v-8.6502h-2.1034c-0.31551 0-0.36809 0-0.36809-0.3418v-1.1963c0-0.27607 0-0.3418 0.36809-0.3418zm12.213 1.6038a6.2182 6.2182 0 0 1 4.6406-2.0114c2.7081 0 3.7072 1.2226 3.7072 4.588v10.149c0 0.28922 0 0.35495-0.3418 0.35495h-1.5907c-0.24978 0-0.3418-0.06574-0.3418-0.22349v-10.32c0-1.9062-0.52585-2.6292-2.0902-2.6292a6.297 6.297 0 0 0-3.9439 1.9193v10.846c0 0.28922 0 0.35495-0.3418 0.35495h-1.6301c-0.30236 0-0.36809-0.06574-0.36809-0.35495v-20.942a0.39439 0.39439 0 0 1 0.30236-0.38124l1.5907-0.40753h0.22349c0.11832 0 0.18405 0.09203 0.18405 0.3418zm14.881 4.3645h6.5731c-0.0921-2.9053-1.2357-4.5223-3.2734-4.5223-2.0377 0-3.2208 1.5381-3.2997 4.5223zm0 1.8931c0.15774 3.326 1.5512 5.1533 3.9439 5.1533a6.8229 6.8229 0 0 0 3.4969-1.1043 0.52585 0.52585 0 0 1 0.27608-0.09203 0.24978 0.24978 0 0 1 0.22348 0.15775l0.55214 1.1963a0.84136 0.84136 0 0 1 0 0.21034c0 0.28922-0.49956 0.60472-1.525 1.0385a8.6108 8.6108 0 0 1-3.2997 0.67046c-3.8387 0-6.297-2.9973-6.297-7.7431 0-4.7458 2.34-7.7563 5.9815-7.7563 3.6415 0 5.482 2.4846 5.5477 6.7834v0.92023c0 0.43382 0 0.56529-0.34181 0.56529zm14.789-5.7317 0.3418-0.38124c1.5644-1.6959 2.248-2.1297 3.4312-2.1297a3.2734 3.2734 0 0 1 1.3146 0.27607c0.11832 0 0.21034 0.13146 0.21034 0.22348a0.89394 0.89394 0 0 1 0 0.22348l-0.73619 1.6564c0 0.10516-0.10516 0.13146-0.15776 0.13146a0.10517 0.10517 0 0 1-0.0921 0 2.1165 2.1165 0 0 0-0.94653-0.19719c-0.77561 0-1.4855 0.53899-2.9842 2.3269v10.123c0 0.31551 0 0.35495-0.3418 0.35495h-1.6038c-0.30236 0-0.34181-0.06573-0.34181-0.35495v-9.2023c0-2.4189-0.11832-2.9579-0.74932-4.1148a0.59158 0.59158 0 0 1-0.2235-0.3418 0.28922 0.28922 0 0 1 0.23663-0.28922l1.3146-0.82821a0.8545 0.8545 0 0 1 0.24977 0c0.18405 0 0.49955 0.43382 0.77563 1.1963a5.3768 5.3768 0 0 1 0.30235 1.3278zm10.123-0.52585a6.2182 6.2182 0 0 1 4.6406-2.0114c2.7081 0 3.7072 1.2226 3.7072 4.588v10.149c0 0.28922 0 0.35495-0.3418 0.35495h-1.5907c-0.24977 0-0.3418-0.06574-0.3418-0.22349v-10.32c0-1.9062-0.52585-2.6292-2.0902-2.6292a6.297 6.297 0 0 0-3.9439 1.9193v10.846c0 0.28922 0 0.35495-0.3418 0.35495h-1.6301c-0.30236 0-0.36809-0.06574-0.36809-0.35495v-20.942a0.40753 0.40753 0 0 1 0.31551-0.38124l1.5907-0.40753h0.21042c0.13146 0 0.18405 0.09203 0.18405 0.3418zm19.969 5.7843c-3.7992 0-5.6792 1.0911-5.6792 3.234a2.2349 2.2349 0 0 0 2.1823 2.4583 5.2585 5.2585 0 0 0 3.4969-1.7616zm0-1.9193v-1.0123c0-1.9719-0.78877-2.7344-2.8133-2.7344a7.9929 7.9929 0 0 0-3.5758 0.92023h-0.22348a0.21034 0.21034 0 0 1-0.21034-0.15775l-0.43382-1.2226a0.36809 0.36809 0 0 1 0-0.22349c0-0.21034 0.24977-0.40753 1.0911-0.72304a10.096 10.096 0 0 1 3.7335-0.72304c3.234 0 4.7589 1.3935 4.7589 4.312v5.758a6.744 6.744 0 0 0 0.81506 4.0227 0.19719 0.19719 0 0 1 0 0.15775 0.22349 0.22349 0 0 1-0.0921 0.18405l-1.3146 0.81506a0.44697 0.44697 0 0 1-0.24979 0.09203c-0.27606 0-0.81506-0.90709-1.1174-1.9062a5.8763 5.8763 0 0 1-4.4171 1.9588 3.8255 3.8255 0 0 1-3.9439-4.1805c0-3.4837 2.6292-5.2453 7.9929-5.3374zm9.3995-4.0885a6.5731 6.5731 0 0 1 4.2594-1.7879 2.8527 2.8527 0 0 1 2.9053 1.7879 7.3356 7.3356 0 0 1 4.3645-1.7879c2.3006 0 3.2734 1.2489 3.2734 4.2988v10.438c0 0.28922 0 0.35495-0.34181 0.35495h-1.5118c-0.30236 0-0.3681-0.06574-0.3681-0.35495v-10.517c0-1.5381-0.59158-2.2349-1.9325-2.2349a5.0481 5.0481 0 0 0-3.0631 1.2226v11.661c0 0.15776-0.10516 0.22349-0.35495 0.22349h-1.5644c-0.27607 0-0.34181-0.06574-0.34181-0.35495v-10.517c0-1.4987-0.65731-2.2611-1.9588-2.2611a4.7721 4.7721 0 0 0-3.0236 1.3146v11.477c0 0.28922 0 0.35495-0.34181 0.35495h-1.617c-0.23664 0-0.3681-0.06574-0.3681-0.22349v-11.148a5.4162 5.4162 0 0 0-0.36809-2.2349l-0.15777-0.30236v-0.15776a0.24978 0.24978 0 0 1 0.17091-0.19719l1.2226-0.72304a0.77563 0.77563 0 0 1 0.24978 0c0.24978-0.06574 0.56529 0.72304 0.86765 1.6696zm-89.223 42.804c1.4461 0 1.9982 0.43382 1.9982 1.5644 0 1.1306-0.56529 1.5381-2.0377 1.5381h-0.74933v-3.1025zm0.06574-4.7063c1.1043 0 1.6038 0.46012 1.6038 1.4724a1.3935 1.3935 0 0 1-1.5381 1.5513h-0.92024v-3.0236zm3.773 1.2357a3.0762 3.0762 0 0 0-0.8545-2.156c-0.57843-0.55214-1.1437-0.69675-2.9185-0.69675h-2.6292c-0.30236 0-0.32866 0-0.32866 0.32866v10.517c0 0.30236 0 0.3418 0.32866 0.3418h2.7738a6.8492 6.8492 0 0 0 2.0377-0.18405 3.0499 3.0499 0 0 0 2.0114-2.9973 2.6292 2.6292 0 0 0-2.1034-2.6818 2.4715 2.4715 0 0 0 1.6827-2.4715zm3.4969 4.3251c0-1.9193 0.39439-2.6292 1.3146-2.6292 0.92024 0 1.3146 0.80192 1.3146 2.6292s-0.39438 2.6292-1.3146 2.6292c-0.92023 0-1.3146-0.73619-1.3146-2.6292zm1.3146-4.3382c-2.1954 0-3.5495 1.6433-3.5495 4.312 0 2.6687 1.3146 4.3514 3.5363 4.3514 2.2217 0 3.51-1.6696 3.51-4.3251s-1.2489-4.3382-3.418-4.3382zm6.2707 0h-0.18405l-1.3146 0.47326c-0.10516 0-0.15775 0.10516-0.15775 0.18405a0.3418 0.3418 0 0 0 0 0.14461l0.09203 0.23663a4.6275 4.6275 0 0 1 0.47326 2.0771v4.9693c0 0.24978 0 0.28922 0.27607 0.28922h1.4987c0.24978 0 0.28922 0 0.28922-0.28922v-5.4425c0.49956-0.55214 0.88079-0.78877 1.2357-0.78877a1.4724 1.4724 0 0 1 0.64416 0.14461h0.15775c0.06574 0 0.10516 0 0.14461-0.14461l0.48641-1.3146a1.4592 1.4592 0 0 0 0-0.1709c0-0.18405-0.43383-0.36809-0.92024-0.36809-0.72304 0-1.1832 0.26292-1.8668 1.0911l-0.1709 0.18405c-0.18405-0.78877-0.43383-1.262-0.63102-1.262zm5.8106 4.3251c0-1.9193 0.38124-2.6292 1.3146-2.6292s1.3146 0.80192 1.3146 2.6292c0 1.8273-0.38124 2.6292-1.3146 2.6292s-1.262-0.72304-1.262-2.6161zm1.3146-4.3382c-2.2086 0-3.5626 1.6433-3.5626 4.312 0 2.6687 1.3146 4.3514 3.5363 4.3514 2.2217 0 3.51-1.6696 3.51-4.3251 0-2.6555-1.1963-4.3251-3.3786-4.3251zm8.1375 7.0727c-0.73618 0-0.98596-0.38124-0.98596-1.4855v-5.2585c0-0.18405 0-0.26292-0.18405-0.26292h-0.13146l-1.5118 0.3418c-0.23663 0.09203-0.23663 0.09203-0.23663 0.27607v4.7852c0 1.5513 0.09203 1.9456 0.55214 2.4978a2.3137 2.3137 0 0 0 1.8405 0.7099 2.8396 2.8396 0 0 0 2.248-0.95967c0.11832 0.56529 0.30236 0.89394 0.4864 0.89394h0.13146a0.092023 0.092023 0 0 1 0.07887 0l1.3146-0.31551c0.11832 0 0.15776 0 0.15776-0.13146a1.3146 1.3146 0 0 0 0-0.15775 3.0499 3.0499 0 0 1-0.31551-1.6433v-6.0473c0-0.18405 0-0.26292-0.15776-0.26292h-0.1446l-1.525 0.3418c-0.21034 0-0.22348 0.06574-0.22348 0.30236v5.7186a2.0377 2.0377 0 0 1-1.3935 0.65731zm9.5836-0.94653a1.6564 1.6564 0 0 1-1.3146 0.57843c-0.80192 0-1.2226-0.84136-1.2226-2.432 0-1.5907 0.48641-2.4978 1.3146-2.4978a1.7353 1.7353 0 0 1 1.1306 0.49955zm0.0921 2.6292c0 0.99911-0.34179 1.3146-1.2358 1.3146a5.9552 5.9552 0 0 1-2.4058-0.60472 0.31551 0.31551 0 0 0-0.15774 0c-0.07887 0-0.14461 0-0.18405 0.1709l-0.32866 1.1306a0.69675 0.69675 0 0 0 0 0.15775c0 0.10516 0.09207 0.19719 0.23663 0.27607a8.5713 8.5713 0 0 0 3.0368 0.61787 2.6292 2.6292 0 0 0 3.0631-2.9447v-0.99911-2.6292-2.4846a4.2199 4.2199 0 0 1 0.34179-1.8405l0.0789-0.1709a0.48641 0.48641 0 0 0 0-0.11832c0-0.07887 0-0.13146-0.14461-0.1709l-1.3146-0.47326h-0.1709c-0.14461 0-0.36808 0.30236-0.56529 0.80192a2.4978 2.4978 0 0 0-1.8668-0.74934c-1.8405 0-2.971 1.6696-2.971 4.3251 0 2.432 1.0123 3.9439 2.6292 3.9439a3.0894 3.0894 0 0 0 1.8799-0.60472 7.7037 7.7037 0 0 1 0.0789 1.0386zm6.1524-11.937c0-0.19719 0-0.28922-0.15775-0.28922h-0.15776l-1.4724 0.32866c-0.23664 0-0.24978 0.06574-0.24978 0.30236v10.938c0 0.24978 0 0.28922 0.27607 0.28922h1.5118c0.24978 0 0.27607 0 0.27607-0.28922v-5.7317a1.9193 1.9193 0 0 1 1.3935-0.67046c0.64416 0 0.89393 0.36809 0.89393 1.3146v5.035c0 0.24978 0 0.28922 0.28922 0.28922h1.4987c0.24979 0 0.28922 0 0.28922-0.28922v-5.4557a3.0236 3.0236 0 0 0-0.32866-1.6827 1.9851 1.9851 0 0 0-1.7879-0.89394 3.1156 3.1156 0 0 0-2.248 0.95967zm17.222 1.3146c0-0.09203-0.0789-0.18405-0.1972-0.30236a4.2199 4.2199 0 0 0-2.6292-0.93338 3.6152 3.6152 0 0 0-2.8001 1.3146 6.5731 6.5731 0 0 0-1.3146 4.496c0 3.9439 1.4724 6.0341 4.1936 6.0341a3.9439 3.9439 0 0 0 2.248-0.63102c0.34179-0.18405 0.46011-0.32865 0.46011-0.48641a0.80192 0.80192 0 0 0 0-0.1709l-0.56529-1.2095c0-0.10516-0.10516-0.13146-0.1709-0.13146a0.43382 0.43382 0 0 0-0.15775 0 2.0902 2.0902 0 0 1-1.4461 0.59158c-1.4329 0-2.1034-1.4198-2.1034-4.4829 0-2.3663 0.61787-3.5232 1.8668-3.5232a2.1428 2.1428 0 0 1 1.3146 0.49956 2.4452 2.4452 0 0 0 0.34181 0.24978 0.24978 0.24978 0 0 0 0.1446 0s0.10517 0 0.17091-0.11832l0.67045-1.2094a0.76248 0.76248 0 0 0-0.0263-0.01315zm2.971 6.2444c0-1.9193 0.38124-2.6292 1.3146-2.6292s1.3146 0.80192 1.3146 2.6292c0 1.8273-0.38124 2.6292-1.3146 2.6292s-1.3146-0.76248-1.3146-2.6555zm1.3146-4.3382c-2.1954 0-3.5495 1.6433-3.5495 4.312s1.3146 4.3514 3.5363 4.3514 3.51-1.6696 3.51-4.3251-1.2489-4.3645-3.4443-4.3645zm7.8877 7.0069c-0.73619 0-0.98596-0.38124-0.98596-1.4855v-5.2585c0-0.18405 0-0.26292-0.18405-0.26292h-0.1446l-1.4987 0.3418c-0.21033 0-0.24978 0.06574-0.24978 0.30236v4.7852c0 1.5513 0.0789 1.9456 0.55214 2.4978a2.3137 2.3137 0 0 0 1.8405 0.7099 2.8659 2.8659 0 0 0 2.3532-0.95967c0.11832 0.56529 0.30237 0.89394 0.48643 0.89394h0.10516a0.092023 0.092023 0 0 1 0.0789 0l1.3146-0.31551c0.11832 0 0.14461 0 0.14461-0.13146a0.97282 0.97282 0 0 0 0-0.15775 3.0499 3.0499 0 0 1-0.3155-1.6433v-6.0473c0-0.18405 0-0.26292-0.15775-0.26292h-0.14462l-1.5118 0.32866c-0.21034 0-0.23663 0.06574-0.23663 0.30236v5.7317a1.9851 1.9851 0 0 1-1.4066 0.65731zm7.0595-7.0858h-0.1578l-1.3935 0.539c-0.0921 0-0.14461 0.07887-0.14461 0.15775a0.31551 0.31551 0 0 0 0 0.14461 4.2462 4.2462 0 0 1 0.34179 1.7879v5.4951c0 0.24978 0 0.28922 0.27607 0.28922h1.4987c0.24979 0 0.28924 0 0.28924-0.28922v-5.7186a2.0245 2.0245 0 0 1 1.4198-0.67046c0.64417 0 0.93338 0.40753 0.93338 1.3146v5.035c0 0.24978 0 0.28922 0.26292 0.28922h1.5512c0.24979 0 0.28923 0 0.28923-0.28922v-5.4425c0-1.7879-0.65731-2.6292-2.1034-2.6292a3.418 3.418 0 0 0-2.4452 1.0386c-0.18405-0.67046-0.38124-1.078-0.57845-1.078zm11.832 6.5731a0.3418 0.3418 0 0 0-0.15774 0.07887 2.248 2.248 0 0 1-1.2752 0.46012c-1.1306 0-1.6301-0.80192-1.6301-2.6292 0-1.8273 0.49956-2.7344 1.617-2.7344a2.1297 2.1297 0 0 1 1.3146 0.56529 0.35495 0.35495 0 0 0 0.1709 0 0.14461 0.14461 0 0 0 0.13146-0.11832l0.56528-1.0254a0.36809 0.36809 0 0 0 0-0.19719c0-0.07887-0.0658-0.15775-0.18404-0.26292a3.418 3.418 0 0 0-1.9851-0.65731c-2.3269 0-3.7467 1.6959-3.7467 4.4829 0 2.787 1.3146 4.1805 3.4969 4.1805a4.049 4.049 0 0 0 1.7353-0.36809c0.39439-0.19719 0.61788-0.38124 0.61788-0.53899a0.46012 0.46012 0 0 0 0-0.19719l-0.38124-0.98596c-0.0921-0.09203-0.13146-0.11832-0.1972-0.11832zm4.496-9.978a1.3146 1.3146 0 1 0 1.3146 1.3146 1.3146 1.3146 0 0 0-1.3146-1.3146zm-0.98597 11.529c0 0.24978 0 0.28922 0.28923 0.28922h1.4987c0.23662 0 0.26292 0 0.26292-0.28922v-7.5065c0-0.24978 0-0.28922-0.26292-0.28922h-3.0236c-0.23664 0-0.26293 0-0.26293 0.28922v0.94653c0 0.24978 0 0.28922 0.26293 0.28922h1.2357zm4.141-11.24a0.27607 0.27607 0 0 0-0.24977 0.30236v9.0183a2.6292 2.6292 0 0 0 0.4864 1.9193 2.0114 2.0114 0 0 0 1.5118 0.57843 3.9439 3.9439 0 0 0 1.4986-0.27607c0.0789 0 0.14462-0.10516 0.14462-0.15776v-0.07887l-0.32866-1.3146a0.11832 0.11832 0 0 0-0.11832-0.09203h-0.1972a1.6959 1.6959 0 0 1-0.52585 0.10516c-0.35495 0-0.43383-0.19719-0.43383-0.8545v-9.1892c0-0.19719 0-0.28922-0.1709-0.28922h-0.0789l-0.10517 0.03945zm-80.981-12.831-1.3146-4.1279c-0.09203-0.23663-0.11832-0.27607-0.36809-0.27607h-1.5907c-0.28922 0-0.31551 0-0.3418 0.3418l-0.46012 10.517v0.10516c0 0.18405 0.06574 0.23663 0.31551 0.23663h1.3146c0.28922 0 0.3418 0 0.3418-0.3418l0.13146-5.5608v-2.6292c0.22348 1.0911 0.48641 2.1165 0.59158 2.5241l0.90709 3.1814c0.07887 0.27607 0.10516 0.28922 0.36809 0.28922h1.0123c0.26292 0 0.28922 0 0.36809-0.26293l1.0517-3.3654c0.1709-0.56529 0.32865-1.2094 0.60472-2.3663v1.1963 0.59158 0.56529l0.10516 5.7843c0 0.28922 0 0.3418 0.35495 0.3418h1.4592c0.23663 0 0.32865 0 0.32865-0.23663v-0.11832l-0.52585-10.517c0-0.28922 0-0.3418-0.32866-0.3418h-1.6038c-0.26292 0-0.28922 0-0.36809 0.27607l-1.3146 4.1148a13.251 13.251 0 0 0-0.42068 1.4066l-0.13146 0.49956c-0.23663-0.78877-0.40753-1.5118-0.48641-1.8142zm10.136 0c0.81506 0 1.1306 0.5127 1.17 1.8799h-2.5109c0.11832-1.3804 0.4864-1.9062 1.3146-1.9062zm2.9579 3.3391c0.30237 0 0.3681-0.07887 0.3681-0.42068 0-2.971-1.0648-4.4697-3.2208-4.4697-2.156 0-3.5495 1.7616-3.5495 4.404 0 2.6424 1.3146 4.2725 3.6284 4.2725a5.3242 5.3242 0 0 0 2.0245-0.38124c0.67046-0.24978 0.89394-0.39439 0.89394-0.60473a0.76248 0.76248 0 0 0 0-0.18405l-0.49956-0.93338c0-0.10516-0.10516-0.15776-0.18405-0.15776a0.38124 0.38124 0 0 0-0.19719 0.07887 4.1016 4.1016 0 0 1-1.8799 0.49956c-1.1832 0-1.7485-0.67046-1.7879-2.0771zm1.4592-4.6012c-0.24977 0-0.27608 0-0.27608 0.27607v0.95967c0 0.23663 0 0.26292 0.27608 0.26292h1.1043v4.2988a3.0762 3.0762 0 0 0 0.23663 1.4987 1.9982 1.9982 0 0 0 1.9719 1.0911 5.2585 5.2585 0 0 0 1.9062-0.39439c0.15776-0.06573 0.22348-0.13146 0.22348-0.26292a0.22349 0.22349 0 0 0 0-0.09203v-0.07887l-0.26292-1.1437c0-0.11832-0.0921-0.1709-0.1709-0.1709a0.23663 0.23663 0 0 0-0.13146 0 2.5109 2.5109 0 0 1-1.078 0.27607c-0.49956 0-0.59157-0.18405-0.59157-1.0517v-3.9439h1.5513c0.18404 0 0.24977 0 0.27606-0.23663l0.22349-0.95967a0.56529 0.56529 0 0 1 0-0.06574v-0.06574c0-0.13146 0-0.1709-0.26292-0.1709h-1.8142v-2.3137c0-0.19719 0-0.27607-0.17091-0.27607h-0.13146l-1.5118 0.22349c-0.22348 0-0.26292 0.06574-0.26292 0.27607v2.0771zm8.0849-0.26292h-0.18404l-1.3146 0.47326a0.21034 0.21034 0 0 0-0.1446 0.18405 0.24978 0.24978 0 0 0 0 0.13146l0.0921 0.23663a4.68 4.68 0 0 1 0.38124 2.0508v4.9693c0 0.24978 0 0.28922 0.27608 0.28922h1.5118c0.24977 0 0.28922 0 0.28922-0.28922v-5.3899c0.49956-0.56529 0.88078-0.80192 1.2357-0.80192a1.4987 1.4987 0 0 1 0.64417 0.15776h0.10516s0.0921 0 0.14463-0.14461l0.4864-1.3146a0.92023 0.92023 0 0 0 0-0.15775c0-0.19719-0.43382-0.38124-0.92024-0.38124-0.72304 0-1.1832 0.27607-1.8668 1.1043l-0.1709 0.18405c-0.11832-0.78877-0.3681-1.2752-0.56529-1.2752zm6.1524 4.3251c0-1.9193 0.38124-2.695 1.3146-2.695 0.93337 0 1.3146 0.78877 1.3146 2.6292 0 1.8405-0.38124 2.6292-1.3146 2.6292-0.93339 0-1.3146-0.64416-1.3146-2.5372zm1.3146-4.3514c-2.2086 0-3.5495 1.6564-3.5495 4.3251 0 2.6687 1.3146 4.3514 3.5363 4.3514 2.2217 0 3.51-1.6696 3.51-4.3251 0-2.6555-1.2489-4.3251-3.4443-4.3251zm8.7816 1.6564c0.92024 0 1.3146 0.81506 1.3146 2.6292 0 2.1034-0.36809 2.8133-1.4592 2.8133a2.1034 2.1034 0 0 1-1.1174-0.30236v-4.5354a1.7879 1.7879 0 0 1 1.3146-0.57843zm-1.893-1.6301a0.70989 0.70989 0 0 0-0.15776 0l-1.4066 0.60472c-0.13145 0-0.15775 0.09203-0.15775 0.1709a0.48641 0.48641 0 0 0 0 0.11832 3.773 3.773 0 0 1 0.3418 1.617v9.0577c0 0.21034 0 0.27607 0.14461 0.27607a0.42068 0.42068 0 0 0 0.15775 0l1.5118-0.31551c0.22349 0 0.23663 0 0.23663-0.30236v-2.9973a2.971 2.971 0 0 0 1.6564 0.44697c1.9851 0 2.971-1.4855 2.971-4.496 0-2.7081-0.98595-4.1805-2.8133-4.1805a2.8527 2.8527 0 0 0-2.064 0.86765c-0.0921-0.5127-0.27607-0.86765-0.42068-0.86765zm8.8211 4.3514c0-1.9193 0.39438-2.695 1.3146-2.695 0.92024 0 1.3146 0.78877 1.3146 2.6292 0 1.8405-0.38124 2.6292-1.3146 2.6292-0.93337 0-1.3146-0.67046-1.3146-2.5635zm1.3146-4.3514c-2.2086 0-3.5626 1.6564-3.5626 4.3251 0 2.6687 1.3146 4.3514 3.5363 4.3514 2.2217 0 3.51-1.6696 3.51-4.3251s-1.2357-4.3514-3.418-4.3514zm5.574-3.1551a0.28922 0.28922 0 0 0-0.24978 0.31551v9.0183a2.6292 2.6292 0 0 0 0.48642 1.9193 2.0114 2.0114 0 0 0 1.4987 0.57843 3.6152 3.6152 0 0 0 1.4855-0.31551c0.0921 0 0.15776-0.09203 0.15776-0.14461v-0.06574-0.09203l-0.32866-1.3146c0-0.06574 0-0.10516-0.11832-0.10516a0.21034 0.21034 0 0 0-0.11832 0 1.6564 1.6564 0 0 1-0.53899 0.09203c-0.34181 0-0.43383-0.18405-0.43383-0.84136v-9.084c0-0.21034 0-0.28922-0.15776-0.28922h-0.21033zm6.0473-0.27607a1.3146 1.3146 0 1 0 1.3146 1.3146 1.3146 1.3146 0 0 0-1.3146-1.3146zm-0.98597 11.529c0 0.24978 0 0.28922 0.27607 0.28922h1.5118c0.23664 0 0.26293 0 0.26293-0.28922v-7.5196c0-0.24978 0-0.28922-0.26293-0.28922h-3.0236c-0.23663 0-0.27606 0-0.27606 0.28922v0.94653c0 0.24978 0 0.28922 0.27606 0.28922h1.2358zm4.0096-7.8088c-0.24979 0-0.28923 0-0.28923 0.27607v0.95967c0 0.23663 0 0.26292 0.28923 0.26292h1.1043v4.2988a3.0762 3.0762 0 0 0 0.23663 1.4987 1.9982 1.9982 0 0 0 1.9719 1.0911 5.2585 5.2585 0 0 0 1.893-0.39439c0.17091-0.06574 0.23663-0.13146 0.23663-0.26292a0.22349 0.22349 0 0 0 0-0.09203v-0.07887l-0.27607-1.1437c0-0.11832-0.0789-0.1709-0.15775-0.1709a0.30236 0.30236 0 0 0-0.1446 0 2.432 2.432 0 0 1-1.0648 0.27607c-0.49956 0-0.60473-0.18405-0.60473-1.0517v-3.9439h1.6038c0.18404 0 0.24978 0 0.28921-0.23663l0.22349-0.95967a0.56529 0.56529 0 0 1 0-0.06574v-0.06573c0-0.13146 0-0.1709-0.27607-0.1709h-1.9193v-2.34c0-0.19719 0-0.27607-0.15775-0.27607h-0.13146l-1.5118 0.22349c-0.23663 0-0.26292 0.06574-0.26292 0.27607v2.0771zm10.517 6.2182a1.6038 1.6038 0 0 1-1.2358 0.64416 1.0648 1.0648 0 0 1-1.0254-1.1306c0-0.90709 0.64416-1.3146 2.1034-1.3146h0.15776zm-0.13147-3.1419a6.1524 6.1524 0 0 0-2.7212 0.46012 2.3137 2.3137 0 0 0-1.3146 2.3137 2.3006 2.3006 0 0 0 2.4452 2.4846 2.6292 2.6292 0 0 0 2.064-0.94653c0.18404 0.67046 0.32865 0.97282 0.49956 0.97282a0.39439 0.39439 0 0 0 0.18404 0l1.3146-0.5127a0.21034 0.21034 0 0 0 0.13146-0.1709 0.35495 0.35495 0 0 0 0-0.1709 3.7598 3.7598 0 0 1-0.38124-1.7747v-3.3917a3.3523 3.3523 0 0 0-0.10516-1.0517c-0.27607-1.0123-1.2226-1.5775-2.6292-1.5775a6.928 6.928 0 0 0-2.3006 0.40753c-0.35495 0.13146-0.47327 0.22348-0.47327 0.36809a0.59158 0.59158 0 0 0 0 0.1709l0.3418 0.99911c0 0.11832 0.0921 0.14461 0.1709 0.14461h0.17089a4.943 4.943 0 0 1 1.801-0.44697c0.82821 0 1.078 0.28922 1.078 1.2357v0.5127zm5.6397-3.4312h-0.11832-0.0658l-1.4461 0.53899c-0.0921 0-0.14461 0.07887-0.14461 0.14461a0.31551 0.31551 0 0 0 0 0.15775 4.2462 4.2462 0 0 1 0.34181 1.7879v5.4951c0 0.24978 0 0.28922 0.27607 0.28922h1.4987c0.24978 0 0.28922 0 0.28922-0.28922v-5.6923a2.0377 2.0377 0 0 1 1.4198-0.67046c0.64416 0 0.93337 0.39439 0.93337 1.3146v5.0481c0 0.24978 0 0.28922 0.26293 0.28922h1.4987c0.24977 0 0.28922 0 0.28922-0.28922v-5.4557c0-1.7879-0.65731-2.6292-2.1034-2.6292a3.3786 3.3786 0 0 0-2.4452 1.0517c-0.13146-0.6836-0.32866-1.0911-0.52585-1.0911z" fill="#fff" stroke-width="1.3146"/></svg>
