<?xml version="1.0" encoding="UTF-8"?>
<svg version="1.1" viewBox="0 0 250 91" xmlns="http://www.w3.org/2000/svg" xmlns:cc="http://creativecommons.org/ns#" xmlns:dc="http://purl.org/dc/elements/1.1/" xmlns:rdf="http://www.w3.org/1999/02/22-rdf-syntax-ns#">
<metadata>
<rdf:RDF>
<cc:Work rdf:about="">
<dc:format>image/svg+xml</dc:format>
<dc:type rdf:resource="http://purl.org/dc/dcmitype/StillImage"/>
<dc:title/>
</cc:Work>
</rdf:RDF>
</metadata>
<g transform="translate(0,-961.4)" fill="#fff">
<g transform="matrix(.86479 0 0 .86479 208.76 825.2)">
<line class="st0" x1="-87.4" x2="-87.4" y1="174.8" y2="245.5" stroke="#fffffd" stroke-miterlimit="10" stroke-width="2"/>
<path class="st1" d="m-96.4 228.9c0 1.1-0.6 2.2-1.6 2.8-0.2 0.1-0.3 0.2-0.5 0.2h-20l17.3-27.6c3-4.4 3.9-9.9 2.5-15-1.1-5.1-4.4-9-9.2-11.8l-0.4-0.2c-4.8-2.7-10.4-3.4-15.7-1.9-5.3 1.2-9.9 4.6-12.8 9.2l-27 43.4-15.6-24.9h-17.6v2.7h0.5c1.9 0 3.5 1.1 4.9 3.1l24 36.3 0.2 0.2h7.6l35.6-55.6c1.4-1.9 3.6-3 5.9-3 1.3 0 2.5 0.3 3.6 1 1.6 0.9 2.8 2.3 3.3 4.1 0.5 1.7 0.2 3.6-0.7 5.1l-30.3 48.6h49.1v-17.1h-3z"/>
<path class="st1" d="m-73.7 204h-3.6v4.9h3.6c1.4 0.2 2.6-0.8 2.8-2.2v-0.3c-0.1-1.4-1.3-2.5-2.7-2.4h-0.1m2.9 15.1-3.8-7.3h-2.7v7.3h-3.8v-18.3h7.7c3.9 0 6.3 2.5 6.3 5.6 0 2.2-1.4 4.2-3.5 4.8l4.4 7.9z"/>
<path class="st1" d="m-56.4 209.2c-1-0.8-2.3-0.8-3.3 0-0.7 0.7-0.8 1.8-0.8 3.2-0.1 1.2 0.1 2.3 0.8 3.3 1 0.8 2.3 0.8 3.3 0 0.7-0.7 0.8-1.8 0.8-3.3 0.1-1.4 0-2.5-0.8-3.2m2.8 8.4c-1.2 1.1-2.8 1.7-4.5 1.7-1.6 0-3.2-0.5-4.5-1.7-1.2-1.3-1.7-2.8-1.7-5.3 0-2.4 0.3-3.9 1.7-5.2 1.2-1.1 2.8-1.7 4.5-1.7 1.6 0 3.2 0.5 4.5 1.7 1.2 1.3 1.7 2.8 1.7 5.2-0.1 2.5-0.4 4.1-1.7 5.3"/>
<path class="st1" d="m-40.4 219.1v-1.3c-0.9 0.9-2.2 1.4-3.5 1.4-2.5 0.2-4.7-1.6-4.9-4.1v-0.8-8.5h3.5v8.1c0 1.3 1 2.4 2.3 2.4s2.4-1 2.4-2.3v-0.1-8.1h3.5v13.4z"/>
<path class="st1" d="m-28.5 219.1c-2.9 0-4.1-1.9-4.1-3.8v-6.6h-1.6v-2.5h1.6v-4h3.5v4h2.5v2.5h-2.4v6.4c0 0.8 0.4 1.2 1.2 1.2h1.2v2.8z"/>
<path class="st1" d="m-15.4 209.8c-0.8-1.3-2.5-1.8-3.8-1-0.4 0.2-0.7 0.6-1 1-0.2 0.5-0.3 1-0.3 1.5h5.4c0-0.6-0.1-1.1-0.3-1.5m-5.2 3.7c-0.1 1.6 1.1 2.9 2.7 3h0.4c1.2 0.1 2.4-0.4 3.2-1.3l2.2 1.9c-1.4 1.5-3.4 2.2-5.4 2.1-3.3 0-6.6-1.5-6.6-6.9 0-4.4 2.5-6.8 6.2-6.8 3.9 0 6.2 2.7 6.2 6.4v1.5z"/>
<path class="st1" d="m-8.6 219.1v-3l7.3-8c0.6-0.6 1-1.4 1-2.2 0-1.3-1.1-2.4-2.4-2.3-1.3 0-2.3 1.1-2.3 2.3h-3.5c0-3.3 2.6-5.4 5.9-5.4 3.4 0 5.9 2 5.9 5.4 0 1.8-0.7 2.7-2.1 4.2l-5.5 5.9h7.6v3z"/>
</g>
</g>
<style type="text/css">.st0{fill:none;stroke:#fff;stroke-width:2;stroke-miterlimit:10;}
	.st1{fill:#fff;}</style>
</svg>
