<?xml version="1.0" encoding="UTF-8" standalone="no"?>
<!-- Created with Inkscape (http://www.inkscape.org/) -->

<svg
   xmlns:dc="http://purl.org/dc/elements/1.1/"
   xmlns:cc="http://creativecommons.org/ns#"
   xmlns:rdf="http://www.w3.org/1999/02/22-rdf-syntax-ns#"
   xmlns:svg="http://www.w3.org/2000/svg"
   xmlns="http://www.w3.org/2000/svg"
   xmlns:sodipodi="http://sodipodi.sourceforge.net/DTD/sodipodi-0.dtd"
   xmlns:inkscape="http://www.inkscape.org/namespaces/inkscape"
   width="250"
   height="91"
   viewBox="0 0 250 91"
   id="svg2"
   version="1.1"
   inkscape:version="0.92.2 (5c3e80d, 2017-08-06)"
   sodipodi:docname="route2.svg">
  <defs
     id="defs4" />
  <sodipodi:namedview
     id="base"
     pagecolor="#ffffff"
     bordercolor="#666666"
     borderopacity="1.0"
     inkscape:pageopacity="0.0"
     inkscape:pageshadow="2"
     inkscape:zoom="3.2"
     inkscape:cx="183.26"
     inkscape:cy="27.908"
     inkscape:document-units="px"
     inkscape:current-layer="layer1"
     showgrid="false"
     inkscape:window-width="1920"
     inkscape:window-height="1001"
     inkscape:window-x="-9"
     inkscape:window-y="-9"
     inkscape:window-maximized="1"
     units="px" />
  <metadata
     id="metadata7">
    <rdf:RDF>
      <cc:Work
         rdf:about="">
        <dc:format>image/svg+xml</dc:format>
        <dc:type
           rdf:resource="http://purl.org/dc/dcmitype/StillImage" />
        <dc:title></dc:title>
      </cc:Work>
    </rdf:RDF>
  </metadata>
  <g
     inkscape:label="Layer 1"
     inkscape:groupmode="layer"
     id="layer1"
     transform="translate(0,-961.4)">
    <rect
       style="opacity:0.001;fill:#ffffff;fill-opacity:1;stroke:none;stroke-width:2.5;stroke-linecap:round;stroke-linejoin:round;stroke-miterlimit:4;stroke-dasharray:none;stroke-dashoffset:0;stroke-opacity:1"
       id="rect4175"
       width="250"
       height="91"
       x="0"
       y="961.4" />
    <g
       transform="matrix(0.86479151,0,0,0.86479151,208.75506,825.19656)"
       id="V2_logo_gold"
       style="fill:#ffffff">
      <line
         y2="245.5"
         x2="-87.400002"
         y1="174.8"
         x1="-87.400002"
         class="st0"
         id="Line_1"
         style="fill:#ffffff;stroke:#fffffd;stroke-width:2;stroke-miterlimit:10;stroke-opacity:1" />
      <path
         d="m -96.4,228.9 c 0,1.1 -0.6,2.2 -1.6,2.8 -0.2,0.1 -0.3,0.2 -0.5,0.2 h -20 l 17.3,-27.6 c 3,-4.4 3.9,-9.9 2.5,-15 -1.1,-5.1 -4.4,-9 -9.2,-11.8 l -0.4,-0.2 c -4.8,-2.7 -10.4,-3.4 -15.7,-1.9 -5.3,1.2 -9.9,4.6 -12.8,9.2 l -27,43.4 -15.6,-24.9 H -197 v 2.7 h 0.5 c 1.9,0 3.5,1.1 4.9,3.1 l 24,36.3 0.2,0.2 h 7.6 l 35.6,-55.6 c 1.4,-1.9 3.6,-3 5.9,-3 1.3,0 2.5,0.3 3.6,1 1.6,0.9 2.8,2.3 3.3,4.1 0.5,1.7 0.2,3.6 -0.7,5.1 l -30.3,48.6 h 49.1 v -17.1 h -3 z"
         class="st1"
         id="Path_1"
         inkscape:connector-curvature="0"
         style="fill:#ffffff" />
      <path
         d="m -73.7,204 h -3.6 v 4.9 h 3.6 c 1.4,0.2 2.6,-0.8 2.8,-2.2 0,-0.1 0,-0.2 0,-0.3 -0.1,-1.4 -1.3,-2.5 -2.7,-2.4 0,0 0,0 -0.1,0 m 2.9,15.1 -3.8,-7.3 h -2.7 v 7.3 h -3.8 v -18.3 h 7.7 c 3.9,0 6.3,2.5 6.3,5.6 0,2.2 -1.4,4.2 -3.5,4.8 l 4.4,7.9 z"
         class="st1"
         id="Path_2"
         inkscape:connector-curvature="0"
         style="fill:#ffffff" />
      <path
         d="m -56.4,209.2 c -1,-0.8 -2.3,-0.8 -3.3,0 -0.7,0.7 -0.8,1.8 -0.8,3.2 -0.1,1.2 0.1,2.3 0.8,3.3 1,0.8 2.3,0.8 3.3,0 0.7,-0.7 0.8,-1.8 0.8,-3.3 0.1,-1.4 0,-2.5 -0.8,-3.2 m 2.8,8.4 c -1.2,1.1 -2.8,1.7 -4.5,1.7 -1.6,0 -3.2,-0.5 -4.5,-1.7 -1.2,-1.3 -1.7,-2.8 -1.7,-5.3 0,-2.4 0.3,-3.9 1.7,-5.2 1.2,-1.1 2.8,-1.7 4.5,-1.7 1.6,0 3.2,0.5 4.5,1.7 1.2,1.3 1.7,2.8 1.7,5.2 -0.1,2.5 -0.4,4.1 -1.7,5.3"
         class="st1"
         id="Path_3"
         inkscape:connector-curvature="0"
         style="fill:#ffffff" />
      <path
         d="m -40.4,219.1 v -1.3 c -0.9,0.9 -2.2,1.4 -3.5,1.4 -2.5,0.2 -4.7,-1.6 -4.9,-4.1 0,-0.3 0,-0.6 0,-0.8 v -8.5 h 3.5 v 8.1 c 0,1.3 1,2.4 2.3,2.4 1.3,0 2.4,-1 2.4,-2.3 0,0 0,-0.1 0,-0.1 v -8.1 h 3.5 v 13.4 z"
         class="st1"
         id="Path_4"
         inkscape:connector-curvature="0"
         style="fill:#ffffff" />
      <path
         d="m -28.5,219.1 c -2.9,0 -4.1,-1.9 -4.1,-3.8 v -6.6 h -1.6 v -2.5 h 1.6 v -4 h 3.5 v 4 h 2.5 v 2.5 H -29 v 6.4 c 0,0.8 0.4,1.2 1.2,1.2 h 1.2 v 2.8 z"
         class="st1"
         id="Path_5"
         inkscape:connector-curvature="0"
         style="fill:#ffffff" />
      <path
         d="m -15.4,209.8 c -0.8,-1.3 -2.5,-1.8 -3.8,-1 -0.4,0.2 -0.7,0.6 -1,1 -0.2,0.5 -0.3,1 -0.3,1.5 h 5.4 c 0,-0.6 -0.1,-1.1 -0.3,-1.5 m -5.2,3.7 c -0.1,1.6 1.1,2.9 2.7,3 0.1,0 0.3,0 0.4,0 1.2,0.1 2.4,-0.4 3.2,-1.3 l 2.2,1.9 c -1.4,1.5 -3.4,2.2 -5.4,2.1 -3.3,0 -6.6,-1.5 -6.6,-6.9 0,-4.4 2.5,-6.8 6.2,-6.8 3.9,0 6.2,2.7 6.2,6.4 v 1.5 z"
         class="st1"
         id="Path_6"
         inkscape:connector-curvature="0"
         style="fill:#ffffff" />
      <path
         d="m -8.6,219.1 v -3 l 7.3,-8 c 0.6,-0.6 1,-1.4 1,-2.2 0,-1.3 -1.1,-2.4 -2.4,-2.3 -1.3,0 -2.3,1.1 -2.3,2.3 h -3.5 c 0,-3.3 2.6,-5.4 5.9,-5.4 3.4,0 5.9,2 5.9,5.4 0,1.8 -0.7,2.7 -2.1,4.2 l -5.5,5.9 h 7.6 v 3 z"
         class="st1"
         id="Path_7"
         inkscape:connector-curvature="0"
         style="fill:#ffffff" />
    </g>
  </g>
  <style
     id="style851"
     type="text/css">
	.st0{fill:none;stroke:#AF9258;stroke-width:2;stroke-miterlimit:10;}
	.st1{fill:#AF9258;}
</style>
</svg>
