<?xml version="1.0" encoding="UTF-8" standalone="no"?>
<svg
   version="1.1"
   viewBox="0 0 250 91"
   id="svg27"
   sodipodi:docname="royal-stat.svg"
   inkscape:version="1.1.1 (3bf5ae0d25, 2021-09-20)"
   xmlns:inkscape="http://www.inkscape.org/namespaces/inkscape"
   xmlns:sodipodi="http://sodipodi.sourceforge.net/DTD/sodipodi-0.dtd"
   xmlns:xlink="http://www.w3.org/1999/xlink"
   xmlns="http://www.w3.org/2000/svg"
   xmlns:svg="http://www.w3.org/2000/svg">
  <defs
     id="defs31">
    <path
       id="a"
       d="M147.587 32.108h1.867c2.083 0 3.312-.923 3.312-2.394 0-1.382-1.055-2.262-3.075-2.262h-2.109v4.656zm-2.199-6.581h3.755c3.027 0 5.949.48 5.949 4.145 0 1.867-1.382 3.18-3.16 3.49v.043c.681.264 1.008.59 1.493 1.535l2.895 6.101h-2.505l-2.346-5.31c-.68-1.493-1.403-1.493-2.569-1.493h-1.318v6.803h-2.194" />
    <path
       id="b"
       d="M165.549 39.175c3.533 0 5.047-2.943 5.047-5.991 0-3.117-1.667-6.012-5.047-5.99-3.38-.022-5.047 2.873-5.047 5.99 0 3.048 1.514 5.99 5.047 5.99zm0-13.912c4.651 0 7.372 3.38 7.372 7.92 0 4.652-2.7 7.922-7.372 7.922s-7.372-3.27-7.372-7.921c0-4.54 2.72-7.921 7.372-7.921" />
    <path
       id="c"
       d="M179.824 34.434l-5.99-8.907h2.568l4.567 6.866 4.45-6.866h2.569l-5.97 8.907v6.407h-2.194" />
    <path
       id="d"
       d="M195.207 27.589l-3.048 7.594h6.102zm-1.075-2.062h2.304l6.476 15.314h-2.394l-1.561-3.86h-7.504l-1.561 3.86h-2.305" />
    <path
       id="e"
       d="M206.598 25.527h2.2V38.91h6.407v1.93h-8.607" />
    <path
       id="f"
       d="M152.481 49.774c-1.118-.437-1.735-.638-2.874-.638-1.229 0-2.679.438-2.679 2.041 0 2.943 6.587 2.263 6.587 7.31 0 3.269-2.526 4.56-5.596 4.56-1.075 0-2.13-.305-3.137-.637l.221-2.041c.744.306 2.062.744 3.18.744 1.25 0 3.006-.702 3.006-2.5 0-3.423-6.581-2.479-6.581-7.24 0-2.722 2.151-4.172 4.915-4.172 1.007 0 2.215.174 3.27.548" />
    <path
       id="g"
       d="M159.811 49.4h-4.762v-1.93h11.718v1.93h-4.762v13.384h-2.194" />
    <path
       id="h"
       d="M173.686 49.532l-3.048 7.594h6.101zm-1.076-2.062h2.305l6.47 15.314h-2.394l-1.555-3.86h-7.505l-1.56 3.86h-2.305" />
    <path
       id="i"
       d="M185.43 49.4h-4.762v-1.93h11.723v1.93h-4.767v13.384h-2.194" />
    <path
       id="j"
       d="M195.118 62.784V47.47h2.194v15.314z" />
    <path
       id="k"
       d="M208.57 49.774c-1.117-.437-1.734-.638-2.873-.638-1.23 0-2.68.438-2.68 2.041 0 2.943 6.582 2.263 6.582 7.31 0 3.269-2.526 4.56-5.595 4.56-1.076 0-2.13-.305-3.138-.637l.216-2.041c.749.306 2.062.744 3.185.744 1.25 0 3.006-.702 3.006-2.5 0-3.423-6.581-2.479-6.581-7.24 0-2.722 2.152-4.172 4.915-4.172 1.007 0 2.215.174 3.27.548" />
    <path
       id="l"
       d="M215.774 49.4h-4.762v-1.93h11.718v1.93h-4.762v13.384h-2.194" />
    <path
       id="m"
       d="M225.457 62.784V47.47h2.193v15.314z" />
    <path
       id="n"
       d="M242.406 49.996a6.163 6.163 0 0 0-3.16-.854c-3.532 0-5.88 2.547-5.88 5.99 0 3.597 2.59 5.991 5.775 5.991 1.097 0 2.569-.285 3.339-.743l.131 2.13c-1.165.48-2.589.549-3.49.549-4.852 0-8.074-3.117-8.074-7.99 0-4.72 3.422-7.852 8.1-7.852 1.186 0 2.346.174 3.443.659" />
    <path
       id="o"
       d="M252.489 49.532l-3.048 7.594h6.101zm-1.076-2.062h2.305l6.475 15.314H257.8l-1.555-3.86h-7.505l-1.555 3.86h-2.31" />
    <path
       id="p"
       d="M262.92 47.47h2.194v13.384h6.407v1.93h-8.601" />
    <path
       id="q"
       d="M152.481 71.723c-1.118-.438-1.735-.638-2.874-.638-1.229 0-2.679.438-2.679 2.04 0 2.943 6.587 2.263 6.587 7.31 0 3.27-2.526 4.561-5.596 4.561-1.075 0-2.13-.305-3.137-.638l.221-2.04c.744.305 2.062.743 3.18.743 1.25 0 3.006-.701 3.006-2.5 0-3.422-6.581-2.478-6.581-7.24 0-2.721 2.151-4.172 4.915-4.172 1.007 0 2.215.174 3.27.549" />
    <path
       id="r"
       d="M163.229 83.066c3.533 0 5.046-2.942 5.046-5.99 0-3.117-1.666-6.012-5.046-5.991-3.38-.021-5.047 2.874-5.047 5.99 0 3.049 1.513 5.991 5.047 5.991zm0-13.911c4.65 0 7.372 3.38 7.372 7.92 0 4.652-2.7 7.921-7.372 7.921-4.673 0-7.373-3.27-7.373-7.92 0-4.546 2.721-7.921 7.373-7.921" />
    <path
       id="s"
       d="M184.581 71.94a6.163 6.163 0 0 0-3.159-.855c-3.533 0-5.88 2.547-5.88 5.99 0 3.597 2.59 5.991 5.77 5.991 1.097 0 2.568-.284 3.338-.743l.132 2.13c-1.166.48-2.59.549-3.491.549-4.852 0-8.08-3.117-8.08-7.99 0-4.72 3.423-7.857 8.1-7.857 1.187 0 2.347.174 3.45.659" />
    <path
       id="t"
       d="M188.895 84.733V69.418h2.194v15.315z" />
    <path
       id="u"
       d="M195.255 69.418h8.58v1.93h-6.386v4.478h5.816v1.93h-5.816v5.047h6.386v1.93h-8.58" />
    <path
       id="v"
       d="M210.949 71.349h-4.762v-1.93h11.718v1.93h-4.762v13.384h-2.194" />
    <path
       id="w"
       d="M225.725 78.325l-5.99-8.907h2.568l4.567 6.867 4.456-6.867h2.563l-5.97 8.907v6.408h-2.194" />
    <path
       id="x"
       d="M137.847 27.92a7.924 7.924 0 0 0-15.847 0v54.413a7.921 7.921 0 0 0 15.842 0V27.921z" />
    <path
       id="y"
       d="M157.533 99.376a.34.34 0 0 0-.337-.338.34.34 0 0 0-.338.338v13.31a.34.34 0 0 0 .338.338.34.34 0 0 0 .337-.338z" />
    <path
       id="z"
       d="M225.327 99.376a.34.34 0 0 0-.338-.338.34.34 0 0 0-.337.338v13.31a.34.34 0 0 0 .337.338.34.34 0 0 0 .338-.338z" />
    <path
       id="A"
       d="M122.86 109.622h.706c2.458 0 4.06-.991 4.06-3.654 0-2.648-1.576-3.528-3.517-3.528h-1.25zm-.86-7.926h2.152c3.106 0 4.334 1.788 4.334 4.324 0 3.143-2.098 4.351-4.967 4.351H122z" />
    <path
       id="B"
       d="M133.428 102.519l-1.888 4.783h3.765zm-.422-.823h.97l3.444 8.67h-.897l-.933-2.326h-4.372l-.933 2.326h-.833z" />
    <path
       id="C"
       d="M140.262 102.44h-2.557v-.744h5.975v.744h-2.558v7.926h-.86z" />
    <path
       id="D"
       d="M147.925 102.519l-1.888 4.783h3.765zm-.422-.823h.97l3.444 8.67h-.897l-.933-2.326h-4.372l-.933 2.326h-.833z" />
    <path
       id="E"
       d="M165.278 101.696h4.25v.744h-3.39v3.095h3.216v.744h-3.216v3.343h3.538v.744h-4.398z" />
    <path
       id="F"
       d="M174.718 110.366h-.918l-3.227-8.67h.907l2.795 7.815 2.895-7.815h.844z" />
    <path
       id="G"
       d="M179.116 101.696h.86v8.67h-.86z" />
    <path
       id="H"
       d="M182.844 109.622h.707c2.457 0 4.06-.991 4.06-3.654 0-2.648-1.576-3.528-3.517-3.528h-1.255v7.182zm-.86-7.926h2.152c3.106 0 4.335 1.788 4.335 4.324 0 3.143-2.099 4.351-4.968 4.351h-1.513v-8.675z" />
    <path
       id="I"
       d="M190.343 101.696h4.25v.744h-3.39v3.095h3.217v.744h-3.217v3.343h3.538v.744h-4.398v-8.67z" />
    <path
       id="J"
       d="M196.519 101.696h1.08l4.41 7.626h.026v-7.626h.86v8.67h-1.156l-4.335-7.478h-.026v7.478h-.86z" />
    <path
       id="K"
       d="M210.868 102.666c-.549-.284-1.33-.374-1.936-.374-2.251 0-3.517 1.593-3.517 3.739 0 2.183 1.229 3.739 3.517 3.739.57 0 1.44-.074 1.936-.375l.047.744c-.47.285-1.44.374-1.988.374-2.732 0-4.372-1.803-4.372-4.482 0-2.632 1.688-4.483 4.372-4.483.506 0 1.54.085 1.988.322z" />
    <path
       id="L"
       d="M213.056 101.696h4.25v.744h-3.39v3.095h3.217v.744h-3.217v3.343h3.538v.744h-4.398z" />
    <path
       id="M"
       d="M233.338 109.622h.706c2.458 0 4.06-.991 4.06-3.654 0-2.648-1.576-3.528-3.517-3.528h-1.255v7.182zm-.855-7.926h2.147c3.106 0 4.335 1.788 4.335 4.324 0 3.143-2.1 4.351-4.968 4.351h-1.519v-8.675z" />
    <path
       id="N"
       d="M240.842 101.696h4.25v.744h-3.39v3.095h3.216v.744h-3.216v3.343h3.538v.744h-4.398z" />
    <path
       id="O"
       d="M253.003 102.666c-.549-.284-1.33-.374-1.936-.374-2.251 0-3.517 1.593-3.517 3.739 0 2.183 1.229 3.739 3.517 3.739.57 0 1.44-.074 1.936-.375l.047.744c-.47.285-1.44.374-1.988.374-2.732 0-4.372-1.803-4.372-4.482 0-2.632 1.688-4.483 4.372-4.483.506 0 1.54.085 1.988.322z" />
    <path
       id="P"
       d="M255.307 101.696h.86v8.67h-.86z" />
    <path
       id="Q"
       d="M257.939 109.258c.511.322 1.107.512 1.914.512 1.07 0 1.951-.549 1.951-1.777 0-1.704-3.976-1.915-3.976-4.188 0-1.392 1.218-2.262 2.748-2.262.422 0 1.107.063 1.703.285l-.137.78c-.385-.21-.992-.321-1.577-.321-.896 0-1.877.374-1.877 1.492 0 1.74 3.976 1.75 3.976 4.287 0 1.751-1.503 2.447-2.843 2.447-.843 0-1.502-.174-1.961-.374z" />
    <path
       id="R"
       d="M264.346 101.696h.86v8.67h-.86z" />
    <path
       id="S"
       d="M267.68 106.03c0 1.836.917 3.74 2.958 3.74 2.035 0 2.958-1.904 2.958-3.74 0-1.84-.918-3.738-2.958-3.738-2.041 0-2.959 1.904-2.959 3.739zm2.952-4.482c2.61 0 3.84 2.136 3.813 4.483-.026 2.658-1.318 4.482-3.813 4.482-2.494 0-3.786-1.824-3.813-4.482-.026-2.347 1.208-4.483 3.813-4.483z" />
    <path
       id="T"
       d="M276.075 101.696h1.08l4.41 7.626h.026v-7.626h.86v8.67h-1.156l-4.335-7.478h-.026v7.478h-.86v-8.67z" />
    <path
       id="U"
       d="M284.238 109.258c.506.322 1.107.512 1.914.512 1.066 0 1.952-.549 1.952-1.777 0-1.704-3.977-1.915-3.977-4.188 0-1.392 1.218-2.262 2.743-2.262.421 0 1.107.063 1.703.285l-.137.78c-.385-.21-.992-.321-1.577-.321-.897 0-1.872.374-1.872 1.492 0 1.74 3.976 1.75 3.976 4.287 0 1.751-1.503 2.447-2.842 2.447-.844 0-1.503-.174-1.962-.374z" />
  </defs>
  <sodipodi:namedview
     id="namedview29"
     pagecolor="#ffffff"
     bordercolor="#666666"
     borderopacity="1.0"
     inkscape:pageshadow="2"
     inkscape:pageopacity="0.0"
     inkscape:pagecheckerboard="0"
     showgrid="false"
     inkscape:zoom="3.1909728"
     inkscape:cx="72.861793"
     inkscape:cy="45.59738"
     inkscape:window-width="1920"
     inkscape:window-height="1001"
     inkscape:window-x="-9"
     inkscape:window-y="-9"
     inkscape:window-maximized="1"
     inkscape:current-layer="svg27" />
  <g
     id="g442"
     transform="matrix(0.88499086,0,0,0.88499086,51.119636,4.2996862)"
     style="fill:#ffffff">
    <use
       fill="#004d6b"
       xlink:href="#a"
       transform="translate(-122,-20)"
       id="use232"
       x="0"
       y="0"
       width="100%"
       height="100%"
       style="fill:#ffffff" />
    <use
       fill="#004d6b"
       xlink:href="#b"
       transform="translate(-122,-20)"
       id="use234"
       x="0"
       y="0"
       width="100%"
       height="100%"
       style="fill:#ffffff" />
    <use
       fill="#004d6b"
       xlink:href="#c"
       transform="translate(-122,-20)"
       id="use236"
       x="0"
       y="0"
       width="100%"
       height="100%"
       style="fill:#ffffff" />
    <use
       fill="#004d6b"
       xlink:href="#d"
       transform="translate(-122,-20)"
       id="use238"
       x="0"
       y="0"
       width="100%"
       height="100%"
       style="fill:#ffffff" />
    <use
       fill="#004d6b"
       xlink:href="#e"
       transform="translate(-122,-20)"
       id="use240"
       x="0"
       y="0"
       width="100%"
       height="100%"
       style="fill:#ffffff" />
    <use
       fill="#004d6b"
       xlink:href="#f"
       transform="translate(-122,-20)"
       id="use242"
       x="0"
       y="0"
       width="100%"
       height="100%"
       style="fill:#ffffff" />
    <use
       fill="#004d6b"
       xlink:href="#g"
       transform="translate(-122,-20)"
       id="use244"
       x="0"
       y="0"
       width="100%"
       height="100%"
       style="fill:#ffffff" />
    <use
       fill="#004d6b"
       xlink:href="#h"
       transform="translate(-122,-20)"
       id="use246"
       x="0"
       y="0"
       width="100%"
       height="100%"
       style="fill:#ffffff" />
    <use
       fill="#004d6b"
       xlink:href="#i"
       transform="translate(-122,-20)"
       id="use248"
       x="0"
       y="0"
       width="100%"
       height="100%"
       style="fill:#ffffff" />
    <use
       fill="#004d6b"
       xlink:href="#j"
       transform="translate(-122,-20)"
       id="use250"
       x="0"
       y="0"
       width="100%"
       height="100%"
       style="fill:#ffffff" />
    <use
       fill="#004d6b"
       xlink:href="#k"
       transform="translate(-122,-20)"
       id="use252"
       x="0"
       y="0"
       width="100%"
       height="100%"
       style="fill:#ffffff" />
    <use
       fill="#004d6b"
       xlink:href="#l"
       transform="translate(-122,-20)"
       id="use254"
       x="0"
       y="0"
       width="100%"
       height="100%"
       style="fill:#ffffff" />
    <use
       fill="#004d6b"
       xlink:href="#m"
       transform="translate(-122,-20)"
       id="use256"
       x="0"
       y="0"
       width="100%"
       height="100%"
       style="fill:#ffffff" />
    <use
       fill="#004d6b"
       xlink:href="#n"
       transform="translate(-122,-20)"
       id="use258"
       x="0"
       y="0"
       width="100%"
       height="100%"
       style="fill:#ffffff" />
    <use
       fill="#004d6b"
       xlink:href="#o"
       transform="translate(-122,-20)"
       id="use260"
       x="0"
       y="0"
       width="100%"
       height="100%"
       style="fill:#ffffff" />
    <use
       fill="#004d6b"
       xlink:href="#p"
       transform="translate(-122,-20)"
       id="use262"
       x="0"
       y="0"
       width="100%"
       height="100%"
       style="fill:#ffffff" />
    <use
       fill="#004d6b"
       xlink:href="#q"
       transform="translate(-122,-20)"
       id="use264"
       x="0"
       y="0"
       width="100%"
       height="100%"
       style="fill:#ffffff" />
    <use
       fill="#004d6b"
       xlink:href="#r"
       transform="translate(-122,-20)"
       id="use266"
       x="0"
       y="0"
       width="100%"
       height="100%"
       style="fill:#ffffff" />
    <use
       fill="#004d6b"
       xlink:href="#s"
       transform="translate(-122,-20)"
       id="use268"
       x="0"
       y="0"
       width="100%"
       height="100%"
       style="fill:#ffffff" />
    <use
       fill="#004d6b"
       xlink:href="#t"
       transform="translate(-122,-20)"
       id="use270"
       x="0"
       y="0"
       width="100%"
       height="100%"
       style="fill:#ffffff" />
    <use
       fill="#004d6b"
       xlink:href="#u"
       transform="translate(-122,-20)"
       id="use272"
       x="0"
       y="0"
       width="100%"
       height="100%"
       style="fill:#ffffff" />
    <use
       fill="#004d6b"
       xlink:href="#v"
       transform="translate(-122,-20)"
       id="use274"
       x="0"
       y="0"
       width="100%"
       height="100%"
       style="fill:#ffffff" />
    <use
       fill="#004d6b"
       xlink:href="#w"
       transform="translate(-122,-20)"
       id="use276"
       x="0"
       y="0"
       width="100%"
       height="100%"
       style="fill:#ffffff" />
    <g
       transform="translate(-122,-20)"
       id="g280"
       style="fill:#ffffff">
      <use
         fill="#c6a230"
         xlink:href="#x"
         id="use278"
         x="0"
         y="0"
         width="100%"
         height="100%"
         style="fill:#ffffff" />
    </g>
    <g
       transform="translate(-122,-20)"
       id="g284"
       style="fill:#ffffff">
      <use
         fill="#c6a230"
         xlink:href="#y"
         id="use282"
         x="0"
         y="0"
         width="100%"
         height="100%"
         style="fill:#ffffff" />
    </g>
    <g
       transform="translate(-122,-20)"
       id="g288"
       style="fill:#ffffff">
      <use
         fill="#c6a230"
         xlink:href="#z"
         id="use286"
         x="0"
         y="0"
         width="100%"
         height="100%"
         style="fill:#ffffff" />
    </g>
    <g
       id="g298"
       style="fill:#ffffff">
      <use
         fill="#004d6b"
         xlink:href="#A"
         transform="translate(-122,-20)"
         id="use290"
         x="0"
         y="0"
         width="100%"
         height="100%"
         style="fill:#ffffff" />
      <use
         fill="#004d6b"
         xlink:href="#B"
         transform="translate(-122,-20)"
         id="use292"
         x="0"
         y="0"
         width="100%"
         height="100%"
         style="fill:#ffffff" />
      <use
         fill="#004d6b"
         xlink:href="#C"
         transform="translate(-122,-20)"
         id="use294"
         x="0"
         y="0"
         width="100%"
         height="100%"
         style="fill:#ffffff" />
      <use
         fill="#004d6b"
         xlink:href="#D"
         transform="translate(-122,-20)"
         id="use296"
         x="0"
         y="0"
         width="100%"
         height="100%"
         style="fill:#ffffff" />
    </g>
    <g
       id="g316"
       style="fill:#ffffff">
      <use
         fill="#004d6b"
         xlink:href="#E"
         transform="translate(-122,-20)"
         id="use300"
         x="0"
         y="0"
         width="100%"
         height="100%"
         style="fill:#ffffff" />
      <use
         fill="#004d6b"
         xlink:href="#F"
         transform="translate(-122,-20)"
         id="use302"
         x="0"
         y="0"
         width="100%"
         height="100%"
         style="fill:#ffffff" />
      <use
         fill="#004d6b"
         xlink:href="#G"
         transform="translate(-122,-20)"
         id="use304"
         x="0"
         y="0"
         width="100%"
         height="100%"
         style="fill:#ffffff" />
      <use
         fill="#004d6b"
         xlink:href="#H"
         transform="translate(-122,-20)"
         id="use306"
         x="0"
         y="0"
         width="100%"
         height="100%"
         style="fill:#ffffff" />
      <use
         fill="#004d6b"
         xlink:href="#I"
         transform="translate(-122,-20)"
         id="use308"
         x="0"
         y="0"
         width="100%"
         height="100%"
         style="fill:#ffffff" />
      <use
         fill="#004d6b"
         xlink:href="#J"
         transform="translate(-122,-20)"
         id="use310"
         x="0"
         y="0"
         width="100%"
         height="100%"
         style="fill:#ffffff" />
      <use
         fill="#004d6b"
         xlink:href="#K"
         transform="translate(-122,-20)"
         id="use312"
         x="0"
         y="0"
         width="100%"
         height="100%"
         style="fill:#ffffff" />
      <use
         fill="#004d6b"
         xlink:href="#L"
         transform="translate(-122,-20)"
         id="use314"
         x="0"
         y="0"
         width="100%"
         height="100%"
         style="fill:#ffffff" />
    </g>
    <g
       id="g336"
       style="fill:#ffffff">
      <use
         fill="#004d6b"
         xlink:href="#M"
         transform="translate(-122,-20)"
         id="use318"
         x="0"
         y="0"
         width="100%"
         height="100%"
         style="fill:#ffffff" />
      <use
         fill="#004d6b"
         xlink:href="#N"
         transform="translate(-122,-20)"
         id="use320"
         x="0"
         y="0"
         width="100%"
         height="100%"
         style="fill:#ffffff" />
      <use
         fill="#004d6b"
         xlink:href="#O"
         transform="translate(-122,-20)"
         id="use322"
         x="0"
         y="0"
         width="100%"
         height="100%"
         style="fill:#ffffff" />
      <use
         fill="#004d6b"
         xlink:href="#P"
         transform="translate(-122,-20)"
         id="use324"
         x="0"
         y="0"
         width="100%"
         height="100%"
         style="fill:#ffffff" />
      <use
         fill="#004d6b"
         xlink:href="#Q"
         transform="translate(-122,-20)"
         id="use326"
         x="0"
         y="0"
         width="100%"
         height="100%"
         style="fill:#ffffff" />
      <use
         fill="#004d6b"
         xlink:href="#R"
         transform="translate(-122,-20)"
         id="use328"
         x="0"
         y="0"
         width="100%"
         height="100%"
         style="fill:#ffffff" />
      <use
         fill="#004d6b"
         xlink:href="#S"
         transform="translate(-122,-20)"
         id="use330"
         x="0"
         y="0"
         width="100%"
         height="100%"
         style="fill:#ffffff" />
      <use
         fill="#004d6b"
         xlink:href="#T"
         transform="translate(-122,-20)"
         id="use332"
         x="0"
         y="0"
         width="100%"
         height="100%"
         style="fill:#ffffff" />
      <use
         fill="#004d6b"
         xlink:href="#U"
         transform="translate(-122,-20)"
         id="use334"
         x="0"
         y="0"
         width="100%"
         height="100%"
         style="fill:#ffffff" />
    </g>
  </g>
</svg>
