<?xml version="1.0" encoding="UTF-8"?>
<svg version="1.1" viewBox="0 0 250 91" xmlns="http://www.w3.org/2000/svg" xmlns:cc="http://creativecommons.org/ns#" xmlns:dc="http://purl.org/dc/elements/1.1/" xmlns:rdf="http://www.w3.org/1999/02/22-rdf-syntax-ns#">
<path d="m15 45.5v-23.235h220v46.471h-220zm121.59 11.485c0.79034-0.40531 1.1246-0.83246 1.6221-2.0731 0.50632-1.2626 0.65754-1.6587 0.67551-1.7695 7e-3 -0.0431 0.12015-0.34086 0.25147-0.66177s0.37356-0.94744 0.53833-1.3923c0.16476-0.44485 0.50401-1.3526 0.75388-2.0173 0.24988-0.66467 0.45432-1.2775 0.45432-1.3619 0-0.0844 0.12574-0.43394 0.27942-0.77681 0.15368-0.34286 0.34741-0.82192 0.43051-1.0646s0.29227-0.80515 0.46482-1.25 0.3457-0.96663 0.38478-1.1595c0.0391-0.19288 0.16741-0.53702 0.28517-0.76475 0.35513-0.68675 0.30128-0.72279-1.08-0.72279-1.3627 0-1.6471 0.11426-1.6471 0.66177 0 0.16985-0.0547 0.37169-0.12149 0.44853-0.0668 0.0768-0.19817 0.40441-0.29189 0.72794-0.69197 2.3887-1.1107 3.6967-1.2216 3.8162-0.0713 0.0768-0.1297 0.28801-0.1297 0.46927 0 0.18125-0.0673 0.37112-0.14946 0.42192-0.0822 0.0508-0.11138 0.15398-0.0649 0.22927 0.0465 0.0753 0.0221 0.1369-0.0544 0.1369-0.16777 0-0.56865-0.81284-0.6662-1.3508-0.0387-0.21345-0.14432-0.52625-0.23469-0.69511-0.0904-0.16886-0.11565-0.30701-0.0562-0.30701 0.0595 0 0.0287-0.0794-0.0684-0.17648-0.0971-0.097-0.17647-0.31544-0.17647-0.48529s-0.0794-0.38823-0.17647-0.48529c-0.0971-0.0971-0.1325-0.17647-0.0787-0.17647 0.0537 0-0.0299-0.2978-0.18595-0.66177-0.15602-0.36397-0.24903-0.66176-0.20669-0.66176 0.0423 0 0.0254-0.0827-0.0377-0.18383-0.0631-0.1011-0.13096-0.28778-0.1508-0.41484-0.0198-0.12706-0.13418-0.42011-0.25408-0.65122s-0.1844-0.47458-0.14332-0.54104c0.0411-0.0665-0.59099-0.12084-1.4046-0.12084-1.3724 0-1.6518 0.0725-1.369 0.35539 0.0607 0.0607 0.11106 0.15442 0.112 0.20834 8.8e-4 0.0539 0.0899 0.32965 0.19774 0.61274 0.35032 0.9198 0.78226 2.0678 0.82997 2.2059 0.014 0.0405 0.0755 0.20589 0.13678 0.36765 0.0613 0.16177 0.17802 0.49265 0.25949 0.7353 0.17465 0.52022 0.30287 0.8465 0.6068 1.5441 0.12334 0.28309 0.27266 0.70883 0.33182 0.94608 0.0592 0.23726 0.19622 0.60123 0.30456 0.80883 0.10833 0.20759 0.19738 0.48002 0.19788 0.60539 4.4e-4 0.12537 0.0598 0.29081 0.13168 0.36764 0.0719 0.0768 0.23705 0.51279 0.36695 0.96878 0.21578 0.75747 0.21609 0.88447 4e-3 1.4706-0.12793 0.35283-0.24599 0.70769-0.26236 0.78858-0.11648 0.57575-0.70474 0.95588-1.4793 0.95588h-0.52437v2.3529h1.0353c0.7284 0 1.197-0.0829 1.5809-0.27981zm-98.836-4.0409c0.42088-0.13502 0.86284-0.3431 0.98215-0.46241 0.1193-0.11931 0.27128-0.21803 0.33772-0.2194 0.23255-5e-3 1.1758-1.1058 1.4466-1.6887 0.49481-1.065 0.42804-3.2558-0.12966-4.2544-0.47832-0.85643-1.6915-1.6647-2.8873-1.9236-0.32205-0.0697-1.381-0.23237-1.9853-0.30495-0.98442-0.11822-1.9046-0.5366-2.212-1.0058-0.37462-0.57174-0.23107-1.7378 0.27125-2.2033 0.59268-0.54928 1.3206-0.72391 2.6176-0.62801 1.1468 0.0848 1.9638 0.37748 2.2903 0.82049 0.1499 0.20339 0.28986 0.10946 1.0475-0.70304 0.85472-0.91659 0.86826-0.94401 0.59904-1.2132-0.15149-0.15149-0.34162-0.27544-0.4225-0.27544-0.0809 0-0.14706-0.0534-0.14706-0.11876 0-0.11094-0.35399-0.28182-1.6176-0.7809-0.34571-0.13654-1.0942-0.19877-2.2794-0.18953-1.5726 0.0123-1.8552 0.0554-2.5957 0.39612-0.97115 0.44683-1.8046 1.1378-2.1483 1.7811-0.13402 0.25086-0.25072 0.4892-0.25933 0.52964-9e-3 0.0404-0.0937 0.33824-0.18917 0.66177-0.58829 1.9944 0.38672 4.2729 2.1423 5.0064 0.58607 0.24488 0.55409 0.23822 2.8137 0.58601 1.42 0.21857 1.7447 0.31986 2.1307 0.66477 0.40389 0.36088 0.45862 0.50629 0.48377 1.2852 0.0255 0.7886-0.0149 0.92246-0.39527 1.3115-0.23299 0.23831-0.68284 0.51095-0.99966 0.60588-0.71189 0.21328-2.1108 0.22191-2.8949 0.0179-0.71439-0.18593-2.1324-0.88995-2.1324-1.0587 0-0.16915-1.1414 0.90069-1.5065 1.4121l-0.29929 0.4192 0.49848 0.43707c0.61173 0.53637 1.8267 1.1186 2.5823 1.2375 0.30978 0.0487 0.59632 0.12155 0.63676 0.16181 0.16795 0.16721 3.5002-0.073 4.2211-0.30425zm10.933-0.21438c0.41138-0.25572 0.76379-0.46495 0.78314-0.46495 0.0193 0 0.0315 0.18198 0.027 0.40441l-8e-3 0.40441h2.5915l-0.0132-4.0597c-7e-3 -2.2328-0.0725-4.2666-0.14505-4.5194-0.31469-1.0973-1.1168-1.8636-2.5068-2.395-0.68498-0.26187-3.8825-0.27574-4.1403-0.018-0.10079 0.1008-0.28584 0.18391-0.41121 0.1847-0.12536 7.3e-4 -0.5095 0.22528-0.85364 0.49888l-0.62571 0.49746 0.61366 0.68564c0.87348 0.97592 1.0024 1.0192 1.6743 0.56268 0.47632-0.32367 0.72726-0.38538 1.5474-0.38052 1.5483 9e-3 2.1956 0.54505 2.1956 1.8178v0.58132l-1.3603 0.0164c-2.4282 0.0294-3.2534 0.21421-4.0687 0.91148-1.0819 0.92524-1.3852 2.4442-0.76705 3.8416 0.35833 0.81007 0.7473 1.2231 1.4901 1.5824 0.74385 0.35978 0.98299 0.39883 2.1662 0.35379 0.89737-0.0342 1.18-0.11303 1.8112-0.50543zm-2.6031-1.9254c-0.55754-0.33997-0.74912-0.99049-0.46574-1.5815 0.29778-0.62105 0.77074-0.77702 2.3635-0.77943l1.4338-2e-3v0.59295c0 0.88856-0.32447 1.524-0.92325 1.8082-0.70435 0.33423-1.8268 0.3165-2.4083-0.038zm29.577 2.0805c0.44759-0.2025 0.81381-0.42486 0.81381-0.49412 0-0.0693 0.0704-0.12592 0.15655-0.12592 0.39422 0 1.3105-1.5142 1.5573-2.5735 0.14265-0.61227 0.16772-3.2626 0.0369-3.8971-0.25394-1.2313-0.29031-1.3494-0.53656-1.7412-0.30319-0.48239-1.5206-1.6409-1.7257-1.6421-0.0827-4.4e-4 -0.3488-0.10839-0.59145-0.23977-0.30814-0.16685-0.84027-0.24229-1.7647-0.25021-1.148-0.01-1.4235 0.0394-2.0771 0.37148-0.77919 0.39583-1.82 1.2981-1.82 1.5777 0 0.0876-0.0529 0.15932-0.11752 0.15932-0.1431 0-0.47793 0.89685-0.60112 1.6102-0.18908 1.0948-0.0764 3.7346 0.19636 4.5984 0.4149 1.3142 1.4426 2.3414 2.8579 2.8567 0.88575 0.32246 2.6672 0.21903 3.6153-0.20991zm-2.8044-2.1488c-0.25104-0.11199-0.61501-0.42596-0.80882-0.69771-0.32841-0.46045-0.3524-0.6242-0.3524-2.4058 0-2.1387 0.16691-2.6802 0.95107-3.0858 0.93411-0.48304 2.1436-0.15967 2.6126 0.69853 0.34992 0.64026 0.37805 3.9226 0.0393 4.5799-0.45143 0.8758-1.5782 1.2961-2.4417 0.9109zm23.061 2.2525c0.42763-0.16815 0.88198-0.39977 1.0097-0.5147 0.34134-0.30723 0.4296-0.25952 0.4296 0.23221v0.44117h2.6471v-15.294h-2.7941v2.4265c0 2.0146-0.036 2.4265-0.21191 2.4265-0.11655 0-0.25171-0.0644-0.30036-0.14313-0.40696-0.65846-2.6712-0.88302-3.9264-0.38939-1.6488 0.64841-2.2076 2.089-2.1702 5.5954 0.0177 1.6616 0.17181 2.8848 0.42334 3.3602 0.01 0.018 0.0532 0.16989 0.097 0.33745 0.0438 0.16757 0.3232 0.52353 0.62084 0.79103 1.1329 1.0181 2.7328 1.2982 4.1754 0.73092zm-1.5019-2.2968c-0.81422-0.41929-1.0914-1.1548-1.0977-2.9121-7e-3 -1.8824 0.12203-2.4576 0.67344-3.009 0.38948-0.38949 0.5508-0.4469 1.2557-0.4469 0.69262 0 0.86887 0.06 1.2268 0.41794 0.22987 0.22987 0.49691 0.70965 0.59343 1.0662 0.21283 0.78617 0.11739 3.5718-0.14061 4.1041-0.42646 0.87987-1.6056 1.246-2.511 0.77976zm21.734 2.0368c0.42819-0.25496 0.82003-0.46357 0.87077-0.46357 0.15379 0 0.63011-0.47686 0.63011-0.63082 0-0.0792-0.40654-0.5431-0.90341-1.0308-0.7973-0.78259-0.92417-0.85834-1.0802-0.64496-0.27836 0.38068-1.4112 0.82923-2.1031 0.83277-1.163 6e-3 -2.2856-0.87085-2.5093-1.9598-0.0524-0.2549-0.0952-1.8201-0.0952-3.4782 0-3.375 0.0735-3.7275 0.9416-4.5179 0.52408-0.47715 1.2929-0.69141 2.0731-0.57775 0.54191 0.0789 1.49 0.50771 1.6761 0.75801 0.1355 0.18223 0.31444 0.0745 1.0895-0.65594 0.92445-0.87124 0.92658-0.87515 0.68162-1.249-0.13516-0.20627-0.33739-0.37504-0.44941-0.37504s-0.20368-0.059-0.20368-0.13109c0-0.14728-1.0183-0.58726-1.6912-0.73073-0.77497-0.16523-2.625-0.10102-3.3088 0.11484-0.73948 0.23344-2.0868 1.1602-2.6464 1.8203-0.20183 0.2381-0.5233 0.83849-0.71437 1.3342-0.31358 0.81357-0.35249 1.1804-0.39976 3.7689-0.0578 3.1639 0.13552 4.785 0.68082 5.7092 0.51372 0.87069 1.6611 1.8201 2.7416 2.2685 0.91713 0.38062 1.1217 0.41031 2.4705 0.35866 1.3349-0.0511 1.5424-0.0991 2.2491-0.51988zm41.501 0.11956c0.36397-0.19215 0.68382-0.40196 0.71078-0.46625 0.027-0.0643 0.11257-0.11688 0.19024-0.11688 0.0777 0 0.30026-0.1489 0.49464-0.33088l0.35341-0.33089-0.92168-0.91787-0.92167-0.91787-0.33425 0.3114c-0.3861 0.35971-1.4596 0.71552-2.1588 0.71552-1.1072 0-1.9655-0.69951-2.319-1.8898-0.33271-1.1204-0.27328-6.3201 0.0809-7.0808 0.52683-1.1314 1.2771-1.6043 2.5608-1.6141 0.46252-4e-3 1.8084 0.62165 2.0034 0.93067 0.0688 0.10899 0.42728-0.15118 1.0121-0.7345 0.87191-0.86969 0.89702-0.91546 0.67578-1.2313-0.245-0.34978-0.5221-0.5349-1.5738-1.0514-0.51817-0.25447-0.933-0.32699-1.9118-0.33422-1.5958-0.0118-2.1048 0.0807-3.0327 0.55088-1.1171 0.56607-1.9327 1.4533-2.4471 2.662-0.43766 1.0283-0.4443 1.0829-0.4847 3.9838-0.0421 3.0188 0.11113 4.3963 0.60873 5.474 0.54973 1.1906 2.1567 2.4074 3.5724 2.7049 0.29339 0.0617 1.129 0.0943 1.857 0.0725 1.0584-0.0317 1.4561-0.10958 1.9853-0.38895zm10.426 0.0109c1.09-0.5519 1.7277-1.2589 2.1629-2.3978 0.35278-0.92324 0.39326-1.2203 0.38326-2.8127-6e-3 -0.97927-0.0375-1.8798-0.0696-2.0011-0.40859-1.5419-0.82951-2.2154-1.838-2.9408-1.1292-0.81221-2.8421-1.0473-4.4119-0.60551-1.1427 0.32158-2.5572 1.7426-2.8032 2.816-0.33185 1.4484-0.39432 3.8665-0.12757 4.938 0.1738 0.6982 0.99353 2.0667 1.4522 2.4245 0.5529 0.4312 1.4439 0.91919 1.4439 0.7908 0-0.0465 0.11581-0.0131 0.25735 0.0743 0.45327 0.27991 2.8077 0.0905 3.5506-0.28563zm-2.705-2.0183c-0.42936-0.11035-0.96439-0.63902-1.1954-1.1812-0.21199-0.49753-0.28067-2.992-0.10636-3.8635 0.0524-0.26202 0.31933-0.70044 0.59315-0.97426 0.42529-0.4253 0.59894-0.49778 1.1915-0.49731 1.5887 1e-3 2.1755 1.0426 2.062 3.6593-0.0657 1.5141-0.30247 2.1973-0.89345 2.5779-0.38071 0.24515-1.2269 0.38816-1.6514 0.27908zm13.506 2.0126c0.51356-0.24264 0.97258-0.44117 1.02-0.44117 0.0475 0 0.10722 0.17216 0.13283 0.38257 0.046 0.37848 0.0599 0.38256 1.2965 0.38168l1.25-8.8e-4 0.077-11.205h-2.6506l-0.0156 3.1985c-9e-3 1.7592-3e-3 3.3821 0.0115 3.6064 0.0149 0.22433-0.11181 0.69466-0.28149 1.0452-0.55978 1.1564-1.9397 1.4422-3.0124 0.62403-0.26209-0.19991-0.48368-0.45123-0.49242-0.5585-9e-3 -0.10727-0.0478-0.32739-0.0868-0.48915-0.039-0.16177-0.076-1.8989-0.0821-3.8603l-0.0113-3.5662h-2.6471l1e-3 4.0809c0 2.4844 0.0634 4.3061 0.16066 4.6566 0.1619 0.58312 0.98453 1.8345 1.2129 1.845 0.0684 3e-3 0.30088 0.13143 0.51663 0.28506 0.84237 0.59981 2.3495 0.60601 3.6008 0.0148zm25.88 0.13146c0.44513-0.17034 0.99375-0.5022 1.2192-0.73746l0.40981-0.42775-0.79664-0.80665c-0.74842-0.75784-1.1743-0.99706-1.1743-0.6596 0 0.0809-0.0937 0.14706-0.20834 0.14706-0.11457 0-0.23591 0.0827-0.2696 0.18383-0.0409 0.12261-0.38515 0.18321-1.0339 0.18198-0.87766-2e-3 -1.0177-0.0447-1.4336-0.44117-0.69801-0.66528-0.87804-1.247-0.87804-2.8373 0-2.2842 0.66963-3.2638 2.2312-3.2638 0.5985 0 0.91894 0.0885 1.3285 0.36675l0.5397 0.36674 1.7996-1.7828-0.61799-0.44768c-1.0627-0.76983-1.5493-0.91211-3.1144-0.91073-0.9075 7.3e-4 -1.5005 0.0653-1.6103 0.17511-0.0956 0.0956-0.2795 0.17384-0.40863 0.17384-0.54607 0-1.7762 1.2457-2.2877 2.3166-0.48689 1.0195-0.64234 1.9115-0.58675 3.3668 0.105 2.7485 1.3053 4.4946 3.6092 5.2504 0.62365 0.2046 2.5106 0.0815 3.2832-0.21413zm-145.19-0.9226v-1.0853l-0.89404-0.0647c-0.55604-0.0402-0.94436-0.14419-1.0272-0.27503-0.074-0.11694-0.13412-3.0021-0.13537-6.4971l-2e-3 -6.2868h-2.8l9e-3 6.3379c8e-3 5.8734 0.0297 6.3922 0.29039 7.0784 0.51194 1.3473 1.3746 1.8381 3.2727 1.8617l1.2868 0.016zm5.4412-3.3265v-4.4118h2.0588v-2.0588h-2.0588v-0.88235c0-1.1559 0.28321-1.4706 1.3235-1.4706h0.73529v-2.3529h-0.65452c-1.4556 0-3.2137 0.62227-3.3979 1.2026-0.0468 0.14736-0.13347 0.26794-0.19265 0.26794-0.2344 0-0.52077 1.1579-0.52737 2.1324l-7e-3 1.0294-1.0776 0.0898-0.0494 0.8891c-0.0272 0.48901-0.0157 0.94321 0.0254 1.0093 0.0411 0.0661 0.30585 0.14214 0.58823 0.16894l0.51342 0.0487 0.0336 4.2647c0.0185 2.3456 0.035 4.3143 0.0368 4.375 2e-3 0.0607 0.59877 0.11029 1.3267 0.11029h1.3235zm18.824 0.75724c0-2.2551 0.0613-3.8304 0.16006-4.1137 0.32327-0.92733 1.7545-1.3656 2.7607-0.8453 0.49144 0.25414 0.496 0.25337 0.94992-0.16115 1.0225-0.93377 1.4235-1.3498 1.4235-1.4771 0-0.25909-0.8167-0.73315-1.5766-0.91516-0.96594-0.23137-1.7775-0.10082-2.7948 0.4496-0.43022 0.23276-0.80941 0.42319-0.84266 0.42319-0.0332 0-0.0814-0.18198-0.10698-0.40441-0.0464-0.40306-0.0508-0.40455-1.3333-0.4469l-1.2868-0.0425v11.188h2.6471zm39.377-1.897-0.0385-5.5515h-2.6471l-0.077 11.103h2.8012zm8.2703 4.456v-1.1104h-0.70719c-1.2815 0-1.2717 0.026-1.3231-3.5104l-0.045-3.0934 2.0017-0.0874v-1.9118l-1.9758-0.0868-0.083-3.2956-2.5735-0.085v3.3769l-1.25 0.0904-0.0103 0.80882c-0.0141 1.1042 0.0282 1.1765 0.68779 1.1765h0.5725l3e-3 3.2721c3e-3 2.8663 0.0369 3.345 0.27472 3.8603 0.55705 1.207 1.3721 1.6442 3.1309 1.6798l1.2971 0.0262v-1.1104zm57.223-2.6913c0.01-2.0827 0.0129-3.8264 7e-3 -3.8748-5e-3 -0.0484 0.16909-0.30249 0.38797-0.56467 0.68756-0.82359 1.9929-0.85694 2.896-0.074l0.44117 0.38249 0.0475 3.9642 0.0475 3.9642 2.6991-0.0842 0.0452-3.3824c0.0542-4.0542-0.0934-5.2819-0.75133-6.2469-0.24929-0.36565-0.50792-0.68728-0.57473-0.71472-0.0668-0.0274-0.21431-0.14272-0.32778-0.25618-0.11346-0.11346-0.59204-0.30843-1.0635-0.43327-1.0961-0.29022-2.055-0.16891-3.0706 0.38845-0.42534 0.23343-0.81275 0.42442-0.86088 0.42442-0.0481 0-0.0875-0.2011-0.0875-0.4469v-0.4469l-2.5735 0.085-0.077 11.103h2.7977l0.0174-3.7868zm22.777-1.8015v-5.5882h-2.6471v11.176h2.6471zm7.9654 4.6293c0.0271-0.5274 0.0273-1.0237 0-1.1029-0.027-0.0792-0.33239-0.14403-0.67871-0.14403-0.41435 0-0.76218-0.10423-1.0172-0.30479l-0.38748-0.30479v-12.479h-2.6526l9e-3 6.5203c8e-3 6.3082 0.0185 6.539 0.3138 7.0956 0.63919 1.2047 1.5169 1.6575 3.2368 1.67l1.1272 8e-3 0.0493-0.95892zm-96.666-12.076c0.43123-0.28083 0.79362-1.1273 0.70994-1.6583-0.25771-1.6352-2.6279-1.9299-3.1793-0.39536-0.35271 0.98164-0.0858 1.6543 0.84619 2.1324 0.58251 0.29885 1.0805 0.27469 1.6232-0.0788zm87.971 0.24057c0.53937 0 1.3282-1.6412 1.0422-2.1685-0.31828-0.58684-1.021-1.0952-1.5341-1.1097-0.59657-0.0169-1.5134 0.54139-1.6356 0.99596-0.2012 0.74869-0.0854 1.3865 0.3206 1.7655 0.42459 0.39632 1.1506 0.67879 1.4826 0.57687 0.10772-0.0331 0.2536-0.0601 0.32419-0.0601z" fill="#fff" stroke-width=".14706"/>
</svg>
