<?xml version="1.0" encoding="UTF-8"?>
<svg version="1.1" viewBox="0 0 250 91" xmlns="http://www.w3.org/2000/svg" xmlns:cc="http://creativecommons.org/ns#" xmlns:dc="http://purl.org/dc/elements/1.1/">
<path d="m156.95 80.327c-0.14951-0.0762-0.34571-0.23929-0.43602-0.36234-0.16021-0.21833-0.16477-0.32179-0.1884-4.2809-0.0133-2.2314-2e-3 -4.2102 0.0252-4.3974 0.0632-0.43535 0.42815-0.86515 0.79268-0.93354 0.3705-0.0695 0.79299 0.0898 1.0252 0.38653l0.19624 0.25075 0.26086-0.25247c0.39171-0.37913 0.80266-0.52292 1.4896-0.52123 0.80811 2e-3 1.3742 0.2261 1.9742 0.78167 0.8087 0.74872 1.2348 1.798 1.2245 3.0153-0.0199 2.3619-1.8673 4.0584-3.9122 3.5927-0.1962-0.0447-0.48975-0.16867-0.65232-0.27553s-0.31419-0.19429-0.33692-0.19429c-0.0227 0-0.0415 0.5797-0.0416 1.2882 0 1.4571-0.0632 1.6651-0.57708 1.909-0.35277 0.1674-0.50526 0.16623-0.84394-6e-3zm3.5523-4.7804c0.39608-0.22261 0.63236-0.59688 0.73908-1.1707 0.23471-1.2621-0.5083-2.3172-1.551-2.2024-0.72071 0.0793-1.1972 0.64748-1.2903 1.5387-0.0541 0.51787 0.10925 1.204 0.35612 1.4955 0.42718 0.50447 1.1886 0.65226 1.7462 0.33892zm4.3332 4.8642c-0.27846-0.0757-0.50253-0.26629-0.63067-0.53633-0.10994-0.23165-0.12575-0.79714-0.12575-4.4955 0-3.9458 0.01-4.2487 0.14486-4.5006 0.33325-0.62139 1.0725-0.71737 1.5951-0.20709 0.29215 0.28528 0.29297 0.28551 0.43844 0.12477 0.0802-0.0886 0.34105-0.2566 0.57976-0.37339 0.36282-0.17751 0.53684-0.21168 1.0609-0.2083 0.55713 4e-3 0.69201 0.0362 1.212 0.2932 1.2267 0.60626 1.9419 1.8649 1.9442 3.4212 2e-3 1.5641-0.79108 2.9323-2.0292 3.4991-0.80727 0.36958-1.9032 0.32565-2.5327-0.10153-0.15404-0.10453-0.29632-0.19006-0.31619-0.19006-0.0199 0-0.0362 0.56186-0.0364 1.2486 0 1.0977-0.019 1.2792-0.15477 1.5019-0.25381 0.41626-0.73665 0.63634-1.1497 0.52402zm3.35-4.8129c0.53905-0.28047 0.80863-0.81997 0.80863-1.6183 0-0.92764-0.29501-1.4875-0.90697-1.7212-1.0176-0.38861-1.9479 0.40548-1.9465 1.6615 1e-3 1.0995 0.55986 1.7894 1.449 1.7894 0.20995 0 0.47806-0.0501 0.5958-0.11138zm-71.292 1.9649c-0.69674-0.14493-1.4742-0.51666-1.7392-0.83158-0.42867-0.50944-0.18082-1.4033 0.45634-1.6458 0.28501-0.10847 0.33898-0.10068 1.069 0.1543 0.65575 0.22907 0.87581 0.26876 1.4967 0.26998 0.69814 1e-3 0.73784-8e-3 0.97112-0.2314 0.20304-0.19436 0.24323-0.29361 0.24323-0.60057 0-0.57588-0.18381-0.70444-1.7658-1.235-1.5236-0.51104-1.9756-0.82091-2.3362-1.6018-0.17067-0.36956-0.19055-0.50747-0.16571-1.1495 0.0335-0.86739 0.2585-1.4372 0.76878-1.9475 0.81104-0.81104 2.2611-1.1461 3.6689-0.84771 1.0695 0.22668 1.5741 0.65196 1.5741 1.3266 0 0.34719-0.0345 0.43278-0.26954 0.66777-0.23291 0.2329-0.32179 0.26939-0.65402 0.26851-0.21147-5.6e-4 -0.61062-0.0719-0.88702-0.15855-0.82106-0.25738-1.5177-0.18441-1.8298 0.19166-0.15333 0.18475-0.13833 0.65021 0.0268 0.83271 0.0831 0.0918 0.65551 0.32928 1.3589 0.56372 1.4111 0.4703 2.0251 0.8247 2.3941 1.3818 0.67428 1.018 0.52173 2.7285-0.32712 3.6681-0.79055 0.87504-2.4603 1.2558-4.0536 0.92434zm7.8313 0.0181c-1.4564-0.47563-2.4026-1.9154-2.4-3.6521 2e-3 -1.5542 0.71781-2.815 1.9403-3.4192 0.50084-0.24753 0.66161-0.28815 1.1631-0.29387 0.69326-8e-3 1.0618 0.1039 1.5364 0.46618l0.3529 0.26938 0.25804-0.28157c0.47093-0.51388 1.2548-0.4133 1.5791 0.20263 0.13313 0.25282 0.14545 0.51346 0.14545 3.0758 0 3.037-5e-3 3.0724-0.44512 3.419-0.39666 0.31202-1.1212 0.17113-1.4134-0.27484l-0.13804-0.21066-0.25029 0.23738c-0.13766 0.13055-0.37515 0.3009-0.52776 0.37855-0.36212 0.18425-1.3515 0.23005-1.8007 0.0834zm1.8671-2.1002c0.35796-0.25489 0.58464-0.74455 0.62812-1.3568 0.051-0.7186-0.0856-1.156-0.4864-1.5568-0.41678-0.41677-0.89201-0.51851-1.4416-0.30862-0.61196 0.23371-0.90697 0.79358-0.90697 1.7212 0 0.81498 0.28395 1.3683 0.83239 1.6221 0.35329 0.1635 1.0625 0.10099 1.3745-0.12113zm10.961 2.0851c-1.2415-0.33386-2.1765-1.2802-2.5029-2.533-0.15014-0.57645-0.15535-1.5279-0.0113-2.0688 0.70458-2.6461 3.9148-3.6587 5.7854-1.8248 0.92505 0.90694 1.3962 2.7041 0.85177 3.249-0.16646 0.16659-0.23718 0.17246-2.3496 0.19516l-2.178 0.0234v0.17479c7.9e-4 0.28288 0.27519 0.65197 0.60472 0.81249 0.19041 0.0927 0.53605 0.16097 0.9118 0.18 0.55591 0.0281 0.66233 7e-3 1.308-0.26509 0.38659-0.16264 0.80991-0.31044 0.94072-0.32843 0.5072-0.0698 0.96079 0.474 0.85538 1.0254-0.19269 1.008-2.6171 1.79-4.2163 1.3599zm2.2907-4.4354c0-0.66222-0.90276-1.3273-1.6192-1.1929-0.48425 0.0908-1.0762 0.72442-1.0762 1.1519 0 0.15742 0.042 0.16248 1.3477 0.16248 1.1576 0 1.3477-0.0171 1.3477-0.12146zm19.114 4.4354c-1.614-0.43403-2.6244-1.8211-2.6244-3.6028 0-1.884 1.2904-3.4355 3.0931-3.7189 1.4249-0.22399 2.8171 0.49947 3.4661 1.8011 0.45867 0.91993 0.5443 1.9864 0.18813 2.3428-0.16647 0.16659-0.23719 0.17246-2.3496 0.19516l-2.178 0.0234v0.17479c8e-4 0.28288 0.27519 0.65197 0.60473 0.81249 0.1904 0.0927 0.53604 0.16097 0.91179 0.18 0.55538 0.0281 0.66295 6e-3 1.308-0.26421 0.88569-0.3715 1.0577-0.4014 1.3725-0.23859 0.56866 0.29406 0.58217 1.0648 0.0272 1.5521-0.80143 0.70367-2.6374 1.0606-3.8199 0.74257zm2.2907-4.4764c0-0.63198-0.91622-1.2838-1.6192-1.1519-0.48424 0.0908-1.0762 0.72442-1.0762 1.1519 0 0.15742 0.042 0.16248 1.3477 0.16248 1.3057 0 1.3477-5e-3 1.3477-0.16248zm39.023 4.4794c-1.567-0.42196-2.5593-1.7761-2.5822-3.5242-0.0267-2.0305 1.1323-3.513 2.9726-3.8024 0.80863-0.12716 1.9164 0.069 2.4818 0.43949 0.61833 0.40515 0.56905 1.4726-0.0805 1.744-0.24704 0.10322-0.3207 0.096-0.87689-0.0855-0.67942-0.22179-1.0392-0.242-1.484-0.0833-0.57779 0.20606-0.89572 0.67975-0.97679 1.4553-0.0541 0.51787 0.10925 1.204 0.35612 1.4955 0.43918 0.51864 1.153 0.63645 2.0854 0.34417 0.69103-0.21662 0.83158-0.20312 1.1447 0.10996 0.5 0.5 0.30234 1.2153-0.43974 1.5913-0.83917 0.42523-1.7726 0.53854-2.6004 0.31564zm5.9654-0.039c-2.0996-0.67373-2.9967-3.753-1.6906-5.803 0.35332-0.55454 1.0246-1.1315 1.5521-1.334 0.32159-0.12344 0.63043-0.1753 1.0501-0.17633 0.68304-2e-3 1.0978 0.14206 1.4815 0.5134l0.25277 0.24462 0.26552-0.28153c0.48551-0.5148 1.1676-0.46069 1.6008 0.12697 0.15995 0.21701 0.16498 0.31116 0.16498 3.0917 0 2.5923-0.0135 2.8925-0.14008 3.1242-0.17508 0.32036-0.50736 0.49681-0.93553 0.49681-0.27634 0-0.37921-0.0489-0.62909-0.29872l-0.29872-0.29873-0.30123 0.26039c-0.56677 0.48994-1.4843 0.61913-2.3726 0.33408zm1.7759-1.9352c0.52564-0.27182 0.87986-0.9554 0.87986-1.698 0-0.36001-0.22785-1.017-0.44023-1.2694-0.61548-0.73146-1.809-0.56686-2.257 0.31126-0.33237 0.65149-0.25773 1.7891 0.14887 2.2693 0.39721 0.46907 1.1652 0.64711 1.6685 0.38683zm14.348 1.9818c-1.3478-0.37169-2.3267-1.5416-2.5454-3.0422-0.26897-1.8454 0.71506-3.6302 2.2764-4.1289 0.68751-0.21958 1.0837-0.25836 1.6864-0.16504 1.3991 0.21661 2.5419 1.2921 2.8656 2.6967 0.20937 0.90863 0.0654 2.1106-0.35103 2.931-0.69915 1.3773-2.4206 2.1252-3.9321 1.7084zm1.4989-1.9784c0.54732-0.28477 0.83233-0.85921 0.82972-1.6723-9.5e-4 -0.30521-0.0443-0.66179-0.0961-0.7924-0.39134-0.98481-1.4887-1.2893-2.2307-0.61897-0.82372 0.74419-0.67898 2.5567 0.2434 3.048 0.32942 0.17545 0.95119 0.19317 1.2538 0.0357zm12.408 1.9354c-0.31288-0.082-0.66962-0.20172-0.79275-0.26602-0.2917-0.15232-0.62911-0.51227-0.7296-0.77833-0.10787-0.28561 0.0255-0.74627 0.28589-0.9876 0.28588-0.26494 0.65382-0.24197 1.4098 0.088 0.98582 0.43035 1.7036 0.35815 1.7036-0.17135 0-0.24416-0.20028-0.37494-1.164-0.76013-1.6677-0.66652-1.9976-0.97952-2.0679-1.9616-0.0362-0.506-0.0174-0.60062 0.21211-1.0668 0.45547-0.92519 1.2638-1.4035 2.3856-1.4118 1.7088-0.0126 2.8662 1.0129 2.238 1.983-0.0633 0.0978-0.24798 0.21761-0.41036 0.26626-0.264 0.0791-0.35393 0.0627-0.84965-0.15487-0.73747-0.32368-1.1536-0.38789-1.4128-0.21803-0.26112 0.17109-0.27215 0.53754-0.0211 0.69945 0.0981 0.0633 0.44593 0.21537 0.77294 0.33803 0.97942 0.36737 1.4676 0.64643 1.8087 1.034 0.59233 0.67292 0.62721 1.6252 0.0893 2.4374-0.62122 0.93787-2.0068 1.3106-3.4578 0.93029zm-104.62-0.16626c-0.4301-0.33831-0.44512-0.43389-0.44512-2.8319v-2.2126l-0.39283-0.0465c-0.48607-0.0576-0.75867-0.2292-0.86965-0.54755-0.25083-0.71956 0.0772-1.2123 0.86965-1.3062l0.39283-0.0465v-0.80276c0-0.94189 0.12386-1.26 0.58349-1.4985 0.34582-0.17946 0.71768-0.13703 1.0432 0.11903 0.33061 0.26006 0.43445 0.60376 0.43445 1.438v0.74501l0.53992 0.0386c0.32365 0.0232 0.6251 0.0944 0.75256 0.17796 0.46176 0.30255 0.46176 1.2095 0 1.512-0.12746 0.0835-0.42891 0.1548-0.75256 0.17795l-0.53992 0.0386v2.172c0 2.4174-0.0308 2.5979-0.49069 2.8783-0.3488 0.21266-0.8515 0.21044-1.1253-5e-3zm11.507 0.0415c-0.11935-0.0648-0.27989-0.23279-0.35674-0.37339-0.12765-0.23354-0.14167-0.62054-0.16219-4.4785-0.0143-2.6874 7e-3 -4.3318 0.0582-4.5225 0.17943-0.66634 0.93766-1.0013 1.4865-0.65659 0.52048 0.32688 0.50545 0.16673 0.48141 5.127l-0.0217 4.4854-0.29611 0.27133c-0.24244 0.22215-0.35741 0.27076-0.6342 0.26816-0.18595-2e-3 -0.43574-0.0562-0.5551-0.12092zm2.8914-0.14724-0.29611-0.27133-0.0217-4.4854c-0.024-4.9603-0.0391-4.8001 0.48141-5.127 0.54883-0.34467 1.307-0.01 1.4865 0.65659 0.0513 0.19064 0.0725 1.8351 0.0582 4.5225-0.0205 3.862-0.0344 4.2448-0.16253 4.4792-0.17406 0.31848-0.50694 0.49681-0.92737 0.49681-0.25632 0-0.38276-0.0555-0.61833-0.27133zm3.1229 0.10727c-0.43126-0.3404-0.44622-0.45646-0.44622-3.4615 0-2.5226 0.0124-2.7822 0.14545-3.0348 0.15445-0.29331 0.56463-0.55336 0.87315-0.55357 0.33783-2.3e-4 0.72646 0.24599 0.88796 0.56256 0.14445 0.28315 0.15459 0.48284 0.15459 3.0437 0 2.9103-0.0187 3.0752-0.38666 3.403-0.10613 0.0946-0.32772 0.165-0.58569 0.18616-0.34323 0.0282-0.45431 3e-3 -0.64258-0.14562zm3.8834-1e-3c-0.43009-0.33831-0.44512-0.43389-0.44512-2.8319v-2.2126l-0.39282-0.0465c-0.51677-0.0612-0.77438-0.24072-0.88757-0.61851-0.11952-0.39893 0.012-0.87237 0.29357-1.0569 0.11065-0.0725 0.37795-0.15276 0.594-0.17834l0.39282-0.0465v-0.80276c0-0.94189 0.12386-1.26 0.5835-1.4985 0.34581-0.17946 0.71768-0.13703 1.0432 0.11903 0.33061 0.26006 0.43445 0.60376 0.43445 1.438v0.74501l0.53992 0.0386c0.32365 0.0232 0.6251 0.0944 0.75256 0.17796 0.46175 0.30255 0.46175 1.2095 0 1.512-0.12746 0.0835-0.42891 0.1548-0.75256 0.17795l-0.53992 0.0386v2.172c0 2.4174-0.0308 2.5979-0.4907 2.8783-0.34879 0.21266-0.85149 0.21044-1.1253-5e-3zm14.721 0.0108c-0.46028-0.28065-0.48045-0.79085-0.077-1.9461 0.34198-0.97909 2.2774-6.172 2.4244-6.5046 0.61577-1.3941 2.0203-1.5414 2.793-0.29297 0.21758 0.35155 2.7291 7.1273 2.8402 7.6625 0.15774 0.75982-0.20519 1.2359-0.94215 1.2359-0.65008 0-0.92787-0.29178-1.2348-1.297l-0.17284-0.56601h-3.6214l-0.17083 0.55492c-0.23232 0.75473-0.39684 1.0457-0.67162 1.1878-0.32353 0.1673-0.86222 0.15139-1.167-0.0345zm4.9509-3.8288c-0.0196-0.0545-0.26427-0.83931-0.54359-1.744s-0.52634-1.6449-0.54894-1.645-0.28632 0.74019-0.58604 1.6449c-0.29973 0.90473-0.56153 1.6896-0.58179 1.7441-0.0284 0.0764 0.2297 0.0991 1.1296 0.0991 0.89937 0 1.1583-0.0227 1.1307-0.0991zm19.46 3.7122-0.29611-0.27133-0.0217-4.4854c-0.024-4.9603-0.0391-4.8001 0.48141-5.127 0.54883-0.34467 1.307-0.01 1.4865 0.65659 0.0513 0.19064 0.0725 1.8351 0.0582 4.5225-0.0205 3.862-0.0344 4.2448-0.16253 4.4792-0.17406 0.31848-0.50695 0.49681-0.92737 0.49681-0.25632 0-0.38276-0.0555-0.61833-0.27133zm3.2393 0.17559c-0.10481-0.0563-0.26534-0.20311-0.35674-0.32615-0.16054-0.21608-0.16693-0.32133-0.18786-3.0917-0.0201-2.6642-0.0112-2.8873 0.12504-3.1394 0.16169-0.29905 0.57616-0.56105 0.88756-0.56105 0.31139 0 0.72605 0.26209 0.88572 0.55982 0.13234 0.24676 0.14486 0.50842 0.14486 3.0287 0 2.9267-0.0187 3.0931-0.38463 3.4191-0.21065 0.18767-0.8522 0.25143-1.114 0.1107zm17.969-0.0284c-0.46517-0.25241-0.4941-0.41172-0.52081-2.8685l-0.0243-2.2395h-0.23584c-0.32923 0-0.74091-0.18675-0.89423-0.40564-0.16795-0.23977-0.16795-0.85155 0-1.0913 0.15409-0.21999 0.56542-0.40564 0.89876-0.40564h0.24037l7.9e-4 -0.69366c7.9e-4 -0.86613 0.0972-1.2229 0.40059-1.4782 0.48489-0.40801 1.1841-0.31243 1.4995 0.20499 0.13421 0.22013 0.16004 0.39973 0.16029 1.1146v0.85221h0.43856c0.82672 0 1.2262 0.30993 1.2262 0.9513 0 0.64045-0.39957 0.9513-1.2228 0.9513h-0.43518l-0.0232 2.3448-0.0232 2.3448-0.29612 0.27127c-0.24241 0.22207-0.35743 0.27069-0.6342 0.26809-0.18594-2e-3 -0.43573-0.0562-0.55509-0.12092zm4.2016 0c-0.4476-0.24286-0.45683-0.31378-0.45683-3.5079 0-2.8476 4e-3 -2.9321 0.16555-3.1369 0.36143-0.45948 0.90101-0.56534 1.3476-0.26437 0.46761 0.31512 0.46627 0.30522 0.46755 3.4537 1e-3 3.1578 0 3.1679-0.47764 3.45-0.27074 0.15993-0.75697 0.16251-1.0462 6e-3zm10.436-0.0263c-0.47533-0.28985-0.50752-0.50562-0.50703-3.3988 0-1.4643 0.0346-2.7175 0.0788-2.8766 0.23272-0.83768 1.1918-1.0295 1.8144-0.3629l0.18925 0.20259 0.32183-0.27548c0.40305-0.34499 0.80128-0.46094 1.559-0.45393 1.1524 0.0107 2.0352 0.55821 2.3479 1.4563 0.13316 0.38248 0.14931 0.68175 0.14931 2.7675 0 2.0862-0.0151 2.3663-0.14007 2.5949-0.17406 0.31848-0.50694 0.49681-0.92737 0.49681-0.25625 0-0.38282-0.0555-0.61832-0.27118l-0.29612-0.27117-0.0396-2.1269c-0.0362-1.9432-0.0533-2.1501-0.19819-2.3954-0.43288-0.73307-1.5554-0.73816-1.9792-9e-3 -0.14811 0.25487-0.16447 0.45068-0.20088 2.4043l-0.0396 2.1269-0.29612 0.27121c-0.24049 0.22025-0.35963 0.27115-0.6342 0.27091-0.1915-1.6e-4 -0.44459-0.0653-0.58373-0.15009zm-78.81-7.8638c-1.0837-0.53643-0.79678-2.1355 0.40754-2.2712 1.2915-0.14557 1.8315 1.6477 0.67956 2.2568-0.42268 0.22351-0.65833 0.22663-1.0871 0.0144zm46.138 0c-0.8791-0.43515-0.89247-1.6828-0.023-2.1448 0.80111-0.42571 1.7453 0.15019 1.7453 1.0645 0 0.5098-0.21886 0.86741-0.66222 1.082-0.42711 0.20676-0.63953 0.20641-1.0601-2e-3zm22.362 0.0828c-0.32813-0.0996-0.7199-0.55428-0.78734-0.91375-0.16526-0.88092 0.69171-1.6485 1.5525-1.3906 0.37732 0.11305 0.76721 0.54717 0.84002 0.93532 0.16302 0.86894-0.73358 1.6336-1.6052 1.3691zm-169.12-8.2091c-0.1526-0.0182-0.61636-0.0908-1.0306-0.16141-4.4368-0.75626-7.8494-4.2883-8.7985-9.1063-0.61977-3.1464-0.224-6.5018 1.0711-9.0808 1.6018-3.1897 4.4186-5.3666 7.9107-6.1137 1.0554-0.22578 3.3542-0.24955 4.4543-0.04607 2.2705 0.41994 4.197 1.3626 5.4613 2.6721 1.2188 1.2624 1.3207 2.6278 0.30971 4.1495-0.60363 0.90861-1.4009 1.4111-2.3225 1.4638-0.80917 0.0463-1.2637-0.13609-2.2158-0.88911-1.2843-1.0157-2.2594-1.367-3.5713-1.2865-1.6685 0.10235-2.9745 1.0088-3.7638 2.612-0.50781 1.0316-0.68143 1.7698-0.73144 3.1098-0.0308 0.82513-0.0084 1.2992 0.08724 1.8478 0.54179 3.1071 2.7556 4.8319 5.4651 4.2578 0.74804-0.15849 1.2944-0.42546 2.1932-1.0716 1.0461-0.75208 1.5474-0.97309 2.221-0.97925 0.44857-4e-3 0.61544 0.0366 1.0729 0.2618 0.68373 0.3366 1.49 1.1289 1.8193 1.7877 0.21405 0.42824 0.23775 0.55071 0.23783 1.2288 8e-5 0.68468-0.0232 0.80234-0.25648 1.2948-0.81373 1.7181-3.5837 3.413-6.3629 3.8935-0.7362 0.12727-2.6984 0.22103-3.2503 0.15531zm128.35-0.0442c-1.9696-0.14893-4.2511-0.64416-5.8097-1.2611-5.3932-2.1347-8.4515-6.6267-9.3902-13.792-0.12811-0.97799-0.13983-2.0436-0.13983-12.721 0-10.891 9e-3 -11.689 0.14034-12.2 0.45041-1.7554 1.5155-2.7707 3.3478-3.1914 0.94234-0.21633 3.0853-0.19386 3.9638 0.04155 1.7808 0.47723 2.7382 1.4157 3.2342 3.1701 0.17099 0.6048 0.1714 0.62768 0.21637 12.101 0.0488 12.434 0.032 11.955 0.47654 13.635 0.64691 2.4448 2.0198 3.9946 4.1193 4.6501 0.53095 0.16579 0.74723 0.18565 2.0215 0.18565 1.2542 0 1.5033-0.0221 2.0576-0.18258 0.96666-0.27987 1.663-0.6835 2.3506-1.3624 0.75711-0.74758 1.242-1.5678 1.6119-2.7269 0.67932-2.1283 0.69525-2.5218 0.66625-16.459-0.023-11.073-0.0167-11.727 0.11998-12.327 0.33302-1.4636 1.0265-2.4269 2.14-2.9726 1.0586-0.51877 1.4599-0.59366 3.1827-0.59404 1.3287-2.85e-4 1.5791 0.02077 2.1245 0.17866 2.1423 0.62018 3.1127 1.9149 3.307 4.4123 0.0971 1.2487 0.0962 21.244-1e-3 23.67-0.16037 3.9976-0.76874 6.8424-2.0259 9.4734-0.71238 1.4909-1.4653 2.5752-2.607 3.7543-1.2128 1.2526-2.3626 2.0711-4.0251 2.8653-2.8646 1.3684-6.8939 1.9693-11.082 1.6526zm-114.49-0.31146c-2.2088-0.29607-3.1578-1.7799-2.6072-4.0763 0.24037-1.0024 2.6776-8.3061 5.9521-17.837 1.4295-4.1606 2.521-5.5509 4.6761-5.9562 0.51573-0.09697 0.99007-0.11778 2.0215-0.0887 1.1619 0.03276 1.4323 0.06562 1.9616 0.23841 1.4009 0.45733 2.2976 1.4082 3.122 3.3105 0.7434 1.7154 6.5782 18.536 7.0097 20.208 0.36164 1.4009 0.10656 2.6287-0.69217 3.3318-0.73492 0.64691-1.5976 0.91043-2.9584 0.90371-1.486-7e-3 -2.3738-0.32766-3.0949-1.1166-0.54327-0.59443-0.8483-1.271-1.3132-2.9126l-0.40464-1.429-7.9983-0.041-0.42227 1.314c-0.84441 2.6277-1.5299 3.5724-2.8959 3.9908-0.59394 0.18194-1.6556 0.25413-2.3562 0.16021zm12.359-11.905c-0.0194-0.0545-0.65559-2.3194-1.4137-5.033s-1.3966-4.9343-1.4188-4.9349c-0.0222-5.55e-4 -0.59011 2.2019-1.2621 4.8943-0.67201 2.6924-1.2377 4.9577-1.2572 5.034-0.0332 0.13011 0.13314 0.13873 2.6759 0.13873 2.1349 0 2.7037-0.0211 2.6759-0.0991zm15.38 11.906c-1.4222-0.19616-2.3658-0.78738-2.8704-1.7985-0.44313-0.88795-0.43437-0.66319-0.43586-11.178l-1e-3 -9.6914-0.45583-0.0062c-0.25071-0.0034-1.3298-0.03342-2.3981-0.06674-2.1331-0.06655-2.4541-0.13172-3.1427-0.6381-0.90221-0.66349-1.3498-2.1809-1.1437-3.8767 0.1961-1.6128 0.79864-2.4565 2.0599-2.8845l0.52203-0.17714 8.3635-0.02412c5.313-0.01532 8.5833 5e-3 8.9662 0.05581 1.5592 0.2068 2.4164 0.94411 2.7734 2.3855 0.13967 0.56392 0.14012 2.208 7.1e-4 2.7746-0.35173 1.43-1.2165 2.1821-2.736 2.3796-0.30884 0.04015-1.3731 0.07409-2.365 0.07544l-1.8035 0.0024-1e-3 9.6518c-1e-3 10.435 7e-3 10.216-0.4248 11.159-0.39369 0.85994-1.2282 1.4967-2.2773 1.7378-0.66809 0.15351-1.9583 0.21213-2.6299 0.11951zm11.333 5e-3c-1.7507-0.2188-2.9717-1.0744-3.3945-2.3786-0.2088-0.64409-0.22429-1.7756-0.0352-2.5726 0.17425-0.73451 0.87885-2.8682 2.1087-6.3855 2.2163-6.3385 6.3008-17.598 6.8773-18.959 1.0309-2.4325 2.0076-3.6891 3.3761-4.3435 1.0604-0.50705 1.634-0.59971 3.6978-0.59742 1.5707 0.0017 1.8662 0.02278 2.4747 0.17624 1.0108 0.25493 1.6702 0.60421 2.3421 1.2406 0.92101 0.87232 1.5041 1.8576 2.2793 3.8511 0.66695 1.7153 6.4585 19.244 7.819 23.666 0.41421 1.346 0.41472 1.349 0.41973 2.4615l5e-3 1.1138-0.29801 0.60316c-0.71331 1.4437-2.1066 2.1329-4.3396 2.1466-1.7428 0.0107-2.8754-0.33274-3.7583-1.1397-0.90445-0.82662-1.2527-1.5565-1.9919-4.1746l-0.45327-1.6053h-10.035l-0.57408 1.7223c-1.1473 3.442-2.0074 4.5568-3.8934 5.0463-0.57634 0.14959-1.929 0.21581-2.6267 0.12861zm15.486-14.884c7e-3 -0.19376-3.1357-12.693-3.1796-12.644-0.0485 0.05372-3.4574 12.104-3.5432 12.525l-0.0363 0.17837h3.3784c1.8581 0 3.3795-0.0268 3.3807-0.0595zm18.085 14.878c-2.1873-0.24451-3.489-1.3372-3.9549-3.3199-0.13192-0.56152-0.14049-1.5313-0.14049-15.898v-15.3l0.17658-0.69236c0.45907-1.8001 1.4384-2.781 3.1926-3.1978 0.5126-0.12178 1.0973-0.14585 4.2412-0.17458 6.6652-0.06091 9.4472 0.19448 12.288 1.128 5.7145 1.8781 8.5972 6.1176 8.6007 12.648 2e-3 4.2234-1.1858 7.5279-3.5642 9.9141-1.8969 1.9031-4.2316 2.9966-7.5336 3.5287-0.63967 0.10307-1.5421 0.14261-3.8976 0.17075l-3.0652 0.0366-0.0353 3.6588c-0.0302 3.136-0.0551 3.7381-0.1737 4.2137-0.33539 1.3445-0.98677 2.2126-2.0522 2.7349-0.35524 0.17417-0.89561 0.36761-1.2008 0.42987-0.75399 0.1538-2.0792 0.20849-2.8809 0.11887zm9.6193-19.374c1.9508-0.31753 3.1694-1.1035 3.818-2.4625 0.39752-0.833 0.52378-1.541 0.52965-2.97 9e-3 -2.2662-0.50034-3.5942-1.7266-4.4993-1.164-0.85907-2.6967-1.206-5.3361-1.2078l-0.97112-6.78e-4v11.257l1.4864-3.17e-4c0.92636-2.38e-4 1.7552-0.04408 2.1999-0.11645zm87.322 19.338c-2.6487-0.41691-4.1817-1.9146-4.638-4.5314-0.10262-0.58848-0.11848-2.9325-0.11848-17.51v-16.831l-3.825-0.02887c-4.2317-0.03194-4.193-0.02779-5.3557-0.57614-1.7219-0.8121-2.6044-2.8747-2.4394-5.7016 0.19065-3.2673 1.5403-4.8704 4.3736-5.195 1.0025-0.11485 26.147-0.1112 27.105 0.0039 2.3724 0.28499 3.7333 1.493 4.1902 3.7196 0.26913 1.3116 0.23939 3.1087-0.0717 4.3332-0.32899 1.295-1.1376 2.3428-2.1914 2.8398-1.1627 0.54835-1.1241 0.5442-5.3557 0.57614l-3.825 0.02887v16.831c0 14.578-0.0159 16.922-0.11848 17.51-0.37374 2.1432-1.457 3.5127-3.3145 4.1906-1.1945 0.43593-2.9497 0.57137-4.4152 0.3407zm-28.114-0.31133c-1.1774-0.21656-1.9322-0.58221-2.6046-1.2616-0.55641-0.56224-0.90336-1.2155-1.1659-2.195l-0.17925-0.66889-0.0262-19.304c-0.0197-14.527-3e-3 -19.48 0.0675-20.017 0.30266-2.3044 1.4515-3.6305 3.6241-4.1833 0.60679-0.15438 0.88669-0.17523 2.2773-0.16967 1.3642 0.0055 1.674 0.03028 2.2197 0.17788 2.2722 0.61456 3.3817 2.0177 3.6069 4.5617 0.048 0.54208 0.0783 6.9654 0.0787 16.674l7.9e-4 15.792 9.6319 0.0466 0.6342 0.22337c1.4805 0.52145 2.2805 1.4166 2.7054 3.0269 0.11758 0.44563 0.14658 0.85159 0.14724 2.0612 7.9e-4 1.3296-0.0202 1.5787-0.17817 2.1245-0.49228 1.7005-1.3872 2.5968-3.0382 3.0426-0.46483 0.12552-1.2234 0.13876-8.8718 0.15485-6.6262 0.0139-8.4811-4e-3 -8.9295-0.0865z" fill="#fff" stroke-width=".079275"/>
</svg>
