<?xml version="1.0" encoding="UTF-8" standalone="no"?>
<!-- Created with Inkscape (http://www.inkscape.org/) -->

<svg
   xmlns:dc="http://purl.org/dc/elements/1.1/"
   xmlns:cc="http://creativecommons.org/ns#"
   xmlns:rdf="http://www.w3.org/1999/02/22-rdf-syntax-ns#"
   xmlns:svg="http://www.w3.org/2000/svg"
   xmlns="http://www.w3.org/2000/svg"
   xmlns:xlink="http://www.w3.org/1999/xlink"
   xmlns:sodipodi="http://sodipodi.sourceforge.net/DTD/sodipodi-0.dtd"
   xmlns:inkscape="http://www.inkscape.org/namespaces/inkscape"
   width="250"
   height="91"
   viewBox="0 0 250 91"
   id="svg2"
   version="1.1"
   inkscape:version="0.92.2 (5c3e80d, 2017-08-06)"
   sodipodi:docname="scarborough.svg">
  <defs
     id="defs4">
    <linearGradient
       inkscape:collect="always"
       id="linearGradient902">
      <stop
         style="stop-color:#000000;stop-opacity:0"
         offset="0"
         id="stop898" />
      <stop
         style="stop-color:#000000;stop-opacity:0.64264264"
         offset="1"
         id="stop900" />
    </linearGradient>
    <radialGradient
       inkscape:collect="always"
       xlink:href="#linearGradient902"
       id="radialGradient906"
       cx="122.32947"
       cy="1047.7206"
       fx="122.32947"
       fy="1047.7206"
       r="53.837986"
       gradientTransform="matrix(0.99998967,-0.00454612,0.00328349,0.72225569,-3.43892,-703.79172)"
       gradientUnits="userSpaceOnUse" />
  </defs>
  <sodipodi:namedview
     id="base"
     pagecolor="#ffffff"
     bordercolor="#666666"
     borderopacity="1.0"
     inkscape:pageopacity="0.0"
     inkscape:pageshadow="2"
     inkscape:zoom="4"
     inkscape:cx="162.46843"
     inkscape:cy="16.832906"
     inkscape:document-units="px"
     inkscape:current-layer="layer1"
     showgrid="false"
     inkscape:window-width="1920"
     inkscape:window-height="1046"
     inkscape:window-x="-11"
     inkscape:window-y="-11"
     inkscape:window-maximized="1"
     units="px" />
  <metadata
     id="metadata7">
    <rdf:RDF>
      <cc:Work
         rdf:about="">
        <dc:format>image/svg+xml</dc:format>
        <dc:type
           rdf:resource="http://purl.org/dc/dcmitype/StillImage" />
        <dc:title></dc:title>
      </cc:Work>
    </rdf:RDF>
  </metadata>
  <g
     inkscape:label="Layer 1"
     inkscape:groupmode="layer"
     id="layer1"
     transform="translate(0,-961.4)">
    <rect
       style="opacity:0.001;fill:#ffffff;fill-opacity:1;stroke:none;stroke-width:2.5;stroke-linecap:round;stroke-linejoin:round;stroke-miterlimit:4;stroke-dasharray:none;stroke-dashoffset:0;stroke-opacity:1"
       id="rect4175"
       width="250"
       height="91"
       x="0"
       y="961.4" />
    <text
       xml:space="preserve"
       style="font-style:normal;font-weight:normal;font-size:40px;line-height:1.25;font-family:sans-serif;letter-spacing:0px;word-spacing:0px;fill:#000000;fill-opacity:1;stroke:none"
       x="66.556427"
       y="999.10181"
       id="text1049"><tspan
         sodipodi:role="line"
         id="tspan1047"
         x="66.556427"
         y="1034.4924" /></text>
    <g
       id="g1465"
       transform="matrix(0.86940777,0,0,0.86940777,19.33724,132.66331)"
       style="fill:#ffffff">
      <path
         inkscape:connector-curvature="0"
         id="path870"
         d="m 62.125,1019.7125 c 0,0 1.1875,0.5 1.75,0.125 0.5625,-0.375 1.1875,-0.75 1.5625,-0.625 0.375,0.125 1.25,0.9375 1.75,0.9375 0.5,0 1.9375,0.1875 1.9375,0.1875 0,0 -1.0625,0.6875 -2.0625,0.5625 -1,-0.125 -1.1875,-0.5625 -1.8125,-0.5625 -0.625,0 -0.6875,0.4375 -1.4375,0.3125 -0.75,-0.125 -1.6875,-0.9375 -1.6875,-0.9375 z"
         style="fill:#ffffff;fill-opacity:1;stroke:none;stroke-width:1px;stroke-linecap:butt;stroke-linejoin:miter;stroke-opacity:1" />
      <path
         inkscape:connector-curvature="0"
         id="path872"
         d="m 65.875,1021.8375 c 0,0 1.25,0.5625 2.0625,0.1875 0.8125,-0.375 1.4375,-1.1875 2.375,-1.1875 0.9375,0 2,0.9375 3.1875,1.25 1.1875,0.3125 2.8125,0.125 2.8125,0.125 0,0 -1.625,1.4375 -3.1875,1.25 -1.5625,-0.1875 -0.875,-0.625 -2.0625,-0.625 -1.1875,0 -1,0.4375 -2.5,0.3125 -1.5,-0.125 -2.6875,-1.3125 -2.6875,-1.3125 z"
         style="fill:#ffffff;fill-opacity:1;stroke:none;stroke-width:1px;stroke-linecap:butt;stroke-linejoin:miter;stroke-opacity:1" />
      <path
         inkscape:connector-curvature="0"
         id="path874"
         d="m 77.0625,1023.5875 c 0,0 2.25,-1.375 5.0625,-1.375 2.8125,0 5.0625,1.375 6,1.375 0.9375,0 2.125,-0.3125 2.125,-0.3125 0,0 -0.8125,1.625 -3.875,1.8125 -3.0625,0.1875 -5.3125,-0.875 -6.8125,-1.375 -1.5,-0.5 -2.5,-0.125 -2.5,-0.125 z"
         style="fill:#ffffff;fill-opacity:1;stroke:none;stroke-width:1px;stroke-linecap:butt;stroke-linejoin:miter;stroke-opacity:1" />
      <path
         inkscape:connector-curvature="0"
         id="path876"
         d="m 88.4375,1025.9 c 0,0 6.1875,0.1875 10.1875,-0.875 4,-1.0625 6.125,-2.6875 6.125,-2.6875 0,0 -3,0.25 -5.0625,0.375 -2.0625,0.125 -5.5625,-0.1875 -5.5625,-0.1875 0,0 3.125,-0.4375 4.375,-1 1.25,-0.5625 2.3125,-1.6875 2.3125,-1.6875 0,0 -9.625,1.875 -13.875,2.125 -4.25,0.25 -6.375,0.062 -9.1875,-0.375 -2.8125,-0.4375 -5.625,-2.4375 -5.625,-2.4375 0,0 4.6875,2.1875 11.75,1.375 7.0625,-0.8125 14.1875,-3.25 17.9375,-4.75 3.75,-1.5 10.1875,-5.875 13.125,-6.0625 2.9375,-0.1875 3.9375,1.625 3.9375,1.625 0,0 -2.875,-0.3125 -3.375,1.625 -0.5,1.9375 0,2.5625 1.3125,3.125 1.3125,0.5625 20,8.125 20,8.125 0,0 -10.8125,2.375 -14.3125,2.8125 -3.5,0.4375 -9.0625,0.75 -9.5625,-0.5 -0.5,-1.25 2,-2.25 3.5625,-2.6875 1.5625,-0.4375 4.6875,-0.375 4.6875,-0.375 0,0 -4,-1.625 -7.5625,-1.375 -3.5625,0.25 -6.0625,1.5625 -7.4375,2.6875 -1.375,1.125 -3.875,4.875 -7.1875,5.25 -3.3125,0.375 -5.5625,-0.5 -7.25,-1.625 -1.6875,-1.125 -3.3125,-2.5 -3.3125,-2.5 z"
         style="fill:#ffffff;fill-opacity:1;stroke:none;stroke-width:1px;stroke-linecap:butt;stroke-linejoin:miter;stroke-opacity:1" />
      <path
         inkscape:connector-curvature="0"
         id="path878"
         d="m 103.875,1029.65 c 0,0 4.375,-2.25 7.25,-1.8125 2.875,0.4375 7.25,2.9375 10.5625,2.875 3.3125,-0.062 8.8125,-2.25 11.6875,-2.125 2.875,0.125 5.8125,1.125 9.5625,1.5625 3.75,0.4375 6.9375,0.1875 6.9375,0.1875 0,0 -9.4763,4.1033 -13.3319,4.3329 -3.8556,0.2296 -6.7931,-2.5829 -9.0431,-2.5204 -2.25,0.062 -5.125,4.8125 -8,4.625 -2.875,-0.1875 -4.625,-3.4375 -7.6875,-5.125 -3.0625,-1.6875 -7.9375,-2 -7.9375,-2 z"
         style="fill:#ffffff;fill-opacity:1;stroke:none;stroke-width:1px;stroke-linecap:butt;stroke-linejoin:miter;stroke-opacity:1" />
      <path
         inkscape:connector-curvature="0"
         id="path880"
         d="m 123.375,1016.15 14.8125,7.8125 c 0,0 7.875,-1.5625 15.125,-1.625 7.25,-0.062 11.625,0.6875 13.6875,3.125 2.0625,2.4375 -1,1.9375 -0.75,2.8125 0.25,0.875 5.625,0.125 9.5625,-2.125 3.9375,-2.25 6.3125,-8.1875 4.375,-12.75 -1.9375,-4.5625 -9.8125,-7.625 -16.625,-7.8125 -6.8125,-0.1875 -13.6875,1 -20.875,3.3125 -7.1875,2.3125 -19.3125,7.25 -19.3125,7.25 z"
         style="fill:#ffffff;fill-opacity:1;stroke:none;stroke-width:1px;stroke-linecap:butt;stroke-linejoin:miter;stroke-opacity:1" />
      <path
         inkscape:connector-curvature="0"
         id="path882"
         d="m 71.594562,1010.062 c 0,0 -1.281631,2.0329 0.220971,3.6681 1.502602,1.6352 3.005203,2.74 5.789436,3.5355 2.784233,0.7955 8.971418,1.9446 8.971418,1.9446 0,0 -12.418563,1.3258 -15.600544,-1.3259 -3.18198,-2.6516 -1.458407,-5.0823 -1.104854,-5.7894 0.353553,-0.7071 1.723573,-2.0329 1.723573,-2.0329 z"
         style="fill:#ffffff;fill-opacity:1;stroke:none;stroke-width:1px;stroke-linecap:butt;stroke-linejoin:miter;stroke-opacity:1" />
      <path
         inkscape:connector-curvature="0"
         id="path884"
         d="m 73.848465,1009.1339 c -0.265165,0 -1.325826,1.7678 -0.751301,3.0936 0.574524,1.3258 2.430679,2.8284 7.026873,3.9333 4.596194,1.1048 9.280777,1.9003 9.280777,1.9003 0,0 2.253903,-0.2209 3.977475,-0.8397 1.723573,-0.6187 7.557201,-2.6516 9.722721,-3.6239 2.16551,-0.9723 3.57973,-1.7236 3.57973,-1.7236 0,0 -2.03294,-0.5303 -3.22618,-1.0164 -1.19324,-0.4862 -1.81196,-1.4584 -1.81196,-1.4584 l 7.64559,1.149 0.44194,-0.221 -0.83969,-1.3258 -10.562403,0.088 c 0,0 0.397748,0.8397 0.08839,1.7236 -0.309359,0.8839 -0.972272,1.5468 -0.972272,1.5468 l -4.065864,0.044 c 0,0 1.723573,-1.3701 2.077127,-1.9888 0.353553,-0.6187 0.486136,-1.4584 0.486136,-1.4584 h -6.319767 l -0.53033,0.7071 -2.298097,-0.088 0.662912,-0.6187 -11.048543,-0.1326 c 0,0 -0.53033,0.3978 -0.353554,0.8839 0.176777,0.4862 0.83969,1.6794 4.463612,2.5633 3.623922,0.8839 6.363961,1.37 6.363961,1.37 0,0 -5.877825,-0.3535 -8.264311,-1.2816 -2.386485,-0.9281 -2.740038,-1.0607 -3.093592,-1.6352 -0.353553,-0.5745 -0.353553,-1.37 -0.353553,-1.37 0,0 -0.707107,1.0164 0.08839,1.9887 0.795495,0.9723 2.474874,2.0329 5.303301,2.6075 2.828427,0.5745 7.954951,1.6793 7.778175,1.6351 -0.176777,-0.044 -6.098796,-0.5303 -8.529476,-1.0606 -2.430679,-0.5303 -4.552,-1.1491 -5.347495,-2.3423 -0.795495,-1.1932 -0.618718,-3.0494 -0.618718,-3.0494 z"
         style="fill:#ffffff;fill-opacity:1;stroke:none;stroke-width:1px;stroke-linecap:butt;stroke-linejoin:miter;stroke-opacity:1" />
      <path
         inkscape:connector-curvature="0"
         id="path886"
         d="m 67.705474,1005.2006 h 27.709747 c 0,0 5.701049,0.1326 7.778179,1.1049 2.07712,0.9722 2.82842,1.591 2.82842,1.591 l -8.92722,-0.088 c 0,0 -0.04419,-0.3978 -0.53033,-0.5745 -0.486136,-0.1768 -0.751301,-0.3536 -0.751301,-0.3536 l 0.04419,0.7071 c 0,0 -6.098796,0.1326 -6.275572,0.088 -0.176777,-0.044 -0.132583,-0.3536 -0.441942,-0.6187 -0.309359,-0.2652 -1.193243,-0.6187 -1.193243,-0.6187 0,0 0.265165,0.2209 0.309359,0.6629 0.04419,0.4419 -0.04419,0.6187 -0.04419,0.6187 0,0 -11.004349,0.044 -11.22532,-0.044 -0.220971,-0.088 -2.474874,-0.1326 -4.419417,0.5303 -1.944544,0.6629 -2.032932,0.6187 -2.651651,1.1933 -0.618718,0.5745 -1.016466,1.4584 -1.016466,1.4584 0,0 -0.574524,-1.1491 -0.883883,-2.8726 -0.30936,-1.7236 -0.30936,-2.7843 -0.30936,-2.7843 z"
         style="fill:#ffffff;fill-opacity:1;stroke:none;stroke-width:1px;stroke-linecap:butt;stroke-linejoin:miter;stroke-opacity:1" />
      <path
         id="path888"
         d="m 120.84766,976.9293 c -5.3292,0.0228 -10.44969,0.46226 -15.22266,1.22461 -9.098631,1.45325 -14.555933,3.3118 -18.494141,5.09375 l 1.699219,2.55078 0.353516,-3.00391 2.386718,0.39649 1.369141,5.57031 0.04492,2.65039 c 0,0 1.502949,1.67919 1.326172,1.76758 -0.176777,0.0884 -0.927734,0.66406 -0.927735,0.66406 l 0.574219,1.19336 0.132813,4.10937 0.132812,2.91601 0.927735,-2.78319 0.175781,-5.34766 0.664062,-3.13867 0.08789,-3.26953 0.53125,-0.83985 3.003906,0.13282 1.091802,0.14453 0.0137,-2.17774 c 0,0 1.76853,-1.50318 1.94531,-1.45898 0.17677,0.0442 3.93164,0.26562 3.93164,0.26562 l 0.26563,-0.70703 1.06055,-0.92773 0.83984,0.13281 0.0449,-1.85742 1.36914,-0.88281 1.32617,-0.44141 2.5625,0.043 1.76758,1.19336 h 1.37109 l 2.3418,2.16601 0.31055,20.33007 13.125,-25.02538 c -4.11995,-0.47814 -8.18455,-0.70048 -12.13281,-0.68359 z m 13.3125,0.82226 -10.85743,23.38284 c 0,0 5.39052,-4.3313 10.95899,-6.89456 5.56847,-2.56326 12.5946,-5.08245 20.59375,-5.70117 5.63858,-0.43613 8.30625,-0.47089 9.44531,-0.45703 -3.83353,-2.75542 -8.94436,-5.41205 -15.7207,-7.36523 -4.8183,-1.38881 -9.6527,-2.3539 -14.41992,-2.96485 z m -50.195316,7.04883 c -0.301489,0.15944 -0.611768,0.32146 -0.898438,0.47656 l 0.107422,0.96485 z m -5.310547,3.29688 c -2.613693,1.8938 -5.168767,4.12243 -7.050781,6.18945 0.850223,0.0586 2.289062,0.17383 2.289062,0.17383 l 0.177734,2.60742 0.927735,0.13281 -0.04492,-2.69531 1.414063,-0.57422 c 0,0 0.177926,-0.97166 0.664062,-1.14844 0.486136,-0.17678 1.193359,-0.31054 1.193359,-0.31054 0,0 0.04415,-0.8835 0.353516,-1.28125 0.253261,-0.32563 0.132298,-2.27739 0.07617,-3.09375 z m 85.400393,1.13281 c -1.29484,0.004 -3.05482,0.0492 -5.24414,0.18945 0.0807,0.11033 0.0782,0.1121 0.16992,0.23438 0.33068,0.44092 0.71644,0.88776 0.8457,1.01562 a 6.2755728,3.4913397 0 0 1 1.4375,-0.0977 6.2755728,3.4913397 0 0 1 2.51367,0.29688 l 2.17774,-1.5254 c -0.0362,-0.029 -0.0671,-0.0588 -0.10352,-0.0879 -0.43961,-0.0142 -1.00511,-0.0279 -1.79687,-0.0254 z m -6.41797,0.27539 c -0.41023,0.0307 -0.79794,0.0562 -1.23438,0.0937 -0.38537,0.0332 -0.75871,0.0761 -1.13867,0.11328 -0.15118,0.22598 -0.397,0.61122 -0.83398,1.41406 1.28571,0.21858 2.00178,0.39892 2.43164,0.45117 a 6.2755728,3.4913397 0 0 1 1.80664,-0.6875 c -0.16158,-0.20247 -0.32417,-0.41789 -0.48828,-0.63671 -0.2943,-0.39241 -0.44929,-0.61538 -0.54297,-0.74805 z m -3.60547,0.32812 c -1.82666,0.20495 -3.59446,0.4742 -5.32813,0.8125 1.38519,0.0354 2.85983,0.0942 3.95899,0.22461 0.2724,0.0323 0.47227,0.0692 0.7168,0.10352 0.2812,-0.52853 0.46105,-0.81975 0.65234,-1.14063 z m 12.71875,0.17383 -1.78125,1.2461 a 6.2755728,3.4913397 0 0 1 1.37305,0.76562 l 1.99414,-0.5918 c -0.49059,-0.47046 -1.02738,-0.94442 -1.58594,-1.41992 z m -5.5293,1.49219 a 5.2591066,2.6516504 0 0 0 -4.11132,1 v 0.11914 c -0.0483,0 -0.10465,-0.009 -0.1543,-0.0117 a 5.2591066,2.6516504 0 0 0 -0.99414,1.54492 5.2591066,2.6516504 0 0 0 5.25976,2.65235 5.2591066,2.6516504 0 0 0 5.25782,-2.65235 5.2591066,2.6516504 0 0 0 -5.25782,-2.65234 z m -16.30273,0.0273 c -2.34738,0.64555 -4.65828,1.46703 -6.98828,2.53711 -1.3929,0.6397 -2.98113,1.49551 -4.58985,2.41797 0.27428,-0.0988 0.56347,-0.20643 0.81055,-0.28711 2.19378,-0.71634 7.59324,-2.26614 12.94141,-3.06836 2.37103,-0.35563 4.12116,-0.4617 5.44336,-0.47461 0.0226,-0.0474 0.0354,-0.0848 0.0586,-0.13281 0.11437,-0.23663 0.20094,-0.39085 0.30664,-0.60157 -0.12919,-0.017 -0.21991,-0.0364 -0.35742,-0.0527 -2.52643,-0.29971 -7.625,-0.26172 -7.625,-0.26172 z m 9.02344,0.54492 c -0.10009,0.19634 -0.19272,0.37387 -0.30274,0.59766 0.88879,0.03 1.4772,0.0807 1.8086,0.0898 a 6.2755728,3.4913397 0 0 1 0.28125,-0.33789 c -0.48484,-0.10054 -1.04427,-0.22389 -1.78711,-0.34961 z m 15.19726,0.16211 -2.00586,0.59375 a 6.2755728,3.4913397 0 0 1 0.19531,0.33789 h 2.6836 c -0.27684,-0.30782 -0.56703,-0.61748 -0.87305,-0.93164 z m -15.95117,1.41797 c -0.16995,0.37762 -0.35463,0.77022 -0.48828,1.11328 1.16638,-0.22499 1.8723,-0.32666 2.32031,-0.38477 a 6.2755728,3.4913397 0 0 1 -0.0312,-0.3164 6.2755728,3.4913397 0 0 1 0.0293,-0.32813 c -0.45616,-0.0298 -1.00404,-0.0711 -1.83008,-0.084 z m -1.09375,0.006 c -1.22144,0.0326 -2.7966,0.15044 -4.85352,0.45898 -5.25843,0.78876 -10.64204,2.33142 -12.77929,3.0293 -0.76033,0.24827 -1.66091,0.57701 -2.52344,0.88867 l 0.0723,0.14453 c -0.009,0.004 -0.16604,0.14275 -0.29688,0.25782 -0.09,0.19058 -0.18323,0.37333 -0.26367,0.58984 -0.44341,1.19345 -0.67635,2.73565 -0.12891,4.41415 0.29043,-0.1903 0.59287,-0.3993 0.86914,-0.5684 4.37565,-2.679 9.96827,-5.16435 15.00586,-6.72466 1.71127,-0.53004 3.12144,-0.87006 4.36914,-1.14257 0.14929,-0.42539 0.33048,-0.88275 0.5293,-1.34766 z m 15.4375,0.50781 a 6.2755728,3.4913397 0 0 1 -0.0664,0.41602 l 4.64258,1.18359 c -0.36341,-0.51276 -0.77915,-1.04924 -1.23242,-1.59961 z m -96.589844,0.87305 c -0.01414,0.0167 -0.03089,0.0341 -0.04492,0.0508 l 0.03516,0.16797 z m 84.480474,0.29879 c -0.2283,0.0266 -1.29047,0.15434 -3.09766,0.52734 -0.24905,0.78346 -0.44551,1.56788 -0.61133,2.39649 2.02125,-1.25385 3.52545,-2.09619 4.14063,-2.4375 a 6.2755728,3.4913397 0 0 1 -0.43164,-0.48633 z m 11.5625,0.1543 a 6.2755728,3.4913397 0 0 1 -0.45508,0.46484 c 0.72144,0.42305 2.86952,1.7078 4.61328,3.25781 0.23062,0.205 0.50414,0.46562 0.75781,0.69922 0.94996,0.0631 1.76859,0.11357 2.50586,0.14847 -0.29024,-0.84075 -0.66906,-1.70118 -1.16602,-2.55081 -0.0947,-0.16184 -0.20569,-0.33496 -0.31054,-0.50391 z m -15.78711,0.61328 c -1.08633,0.2533 -2.29804,0.56419 -3.70508,1 -4.35907,1.35015 -9.17754,3.42206 -13.19336,5.68946 2.42906,-0.6134 5.04635,-1.2251 7.60351,-1.709 2.57618,-0.4873 4.84293,-0.7789 6.97071,-0.9726 0.089,-0.062 0.17648,-0.12693 0.26562,-0.18755 0.4647,-0.316 0.93981,-0.60909 1.41406,-0.91406 0.19011,-1.04022 0.37783,-1.97432 0.64454,-2.90625 z m 5.53515,0.37109 c -0.19541,0.10816 -2.61817,1.45153 -5.27734,3.14063 -0.0163,0.0919 -0.0324,0.21058 -0.0488,0.30664 1.90773,-0.10912 3.7338,-0.15293 5.56641,-0.17774 0.53063,-0.99933 1.18918,-1.96107 1.59179,-2.53515 a 6.2755728,3.4913397 0 0 1 -1.83203,-0.73438 z m 8.89063,0.0977 a 6.2755728,3.4913397 0 0 1 -2.1836,0.76172 c 0.17571,0.43204 0.49119,1.22869 0.83203,2.29688 2.31318,-0.003 4.31939,0.0806 6.0293,0.17968 -1.84475,-1.58901 -4.45017,-3.10626 -4.67773,-3.23828 z m -5.99219,0.85547 c -0.18927,0.26697 -0.89599,1.2708 -1.49805,2.29492 1.26501,-0.0154 2.52985,-0.0268 3.86914,-0.0625 0.42444,-0.0113 0.81559,-0.0104 1.22266,-0.0156 -0.36054,-1.0823 -0.70196,-1.91951 -0.79883,-2.15429 a 6.2755728,3.4913397 0 0 1 -1.16211,0.0625 6.2755728,3.4913397 0 0 1 -1.63281,-0.125 z m -29.52344,1.26758 c -0.46559,0.17461 -1.14648,0.42969 -1.14648,0.42969 l -0.002,-0.006 c -3.56741,2.23673 -6.45312,4.22463 -6.45312,4.22463 l -2.30078,4.5996 c 0.90151,-0.5912 4.64241,-3.1609 6.45117,-4.4297 0.35263,-0.6359 0.69659,-1.2167 1.01172,-1.6563 0.84526,-1.1789 1.64678,-2.2244 2.31055,-3.01753 0.0484,-0.0578 0.082,-0.0894 0.1289,-0.14453 z m -0.0137,1.60542 c -0.50054,0.6342 -1.03575,1.3351 -1.61328,2.1407 -0.39261,0.5475 -0.87424,1.381 -1.37305,2.3183 0.94125,-0.277 1.94377,-0.5703 3.28516,-0.9394 -0.42304,-1.2586 -0.46313,-2.4582 -0.29883,-3.5196 z m 34.4707,0.3301 c 0.0179,0.068 0.0418,0.1361 0.0586,0.2032 0.4106,1.6424 0.79148,3.3859 0.85742,3.6855 6.37386,0.722 9.70508,2.7129 9.70508,2.7129 0,0 0.15641,-1.0971 0.0703,-2.709 -0.44124,-0.4378 -2.11675,-2.0976 -3.76758,-3.6328 -1.89839,-0.1243 -4.14083,-0.2542 -6.92383,-0.2598 z m -1.04101,0.01 c -0.49227,0 -0.9749,0.01 -1.49414,0.02 -1.54874,0.041 -3.00757,0.054 -4.45118,0.072 -0.62829,1.2443 -1.57921,3.0813 -1.9707,3.8379 0.98543,-0.1127 1.974,-0.2077 2.96094,-0.2558 2.16104,-0.1055 4.11025,-0.049 5.86133,0.1015 -0.1177,-0.5307 -0.40753,-1.8586 -0.77735,-3.3379 -0.0356,-0.1426 -0.0878,-0.2912 -0.1289,-0.4375 z m -7.08203,0.1172 c -1.71132,0.026 -3.41861,0.069 -5.19727,0.1758 -0.2868,1.8466 -0.51046,3.5915 -0.61523,4.4258 1.23252,-0.2503 2.49915,-0.47 3.78125,-0.6465 0.0993,-0.1925 1.25546,-2.4317 2.03125,-3.9551 z m -6.22071,0.2344 c -0.31539,0.023 -0.65073,0.06 -0.97265,0.088 -3.11539,2.182 -6.14694,4.9168 -7.2461,6.0566 -0.42192,0.4376 -0.41549,0.4328 -0.73437,0.7656 2.2719,-0.7617 5.13604,-1.6188 8.32617,-2.3183 0.0648,-0.5285 0.31219,-2.5336 0.62695,-4.5918 z m 22.83985,0 c 1.03543,0.9849 1.43277,1.3881 2.04101,1.9883 -0.0883,-0.6092 -0.20687,-1.2439 -0.38867,-1.916 -0.52448,-0.019 -1.01577,-0.031 -1.65234,-0.072 z m -25.79883,0.2871 c -1.60831,0.1866 -3.30676,0.4339 -5.17383,0.7871 -3.55106,0.6718 -7.2446,1.591 -10.32422,2.4199 1.54493,2.8981 4.9477,4.3596 5.88281,4.7207 0.46377,-0.1842 0.77852,-0.3025 1.56641,-0.5898 l -0.01,-0.01 c 2e-5,0 0.88576,-0.9275 2.08008,-2.166 1.00008,-1.0371 3.34136,-3.1746 5.97852,-5.1641 z m -16.39063,3.6621 c -2.15161,1.497 -4.38614,3.277 -6.14453,4.7227 -0.0927,0.2041 -0.0817,0.1829 -0.16211,0.3613 3.93765,-0.3829 9.75014,-0.981 10.33203,-1.0586 -1.42519,-0.8639 -3.05006,-2.1675 -4.02539,-4.0254 z m -2.34375,0.4512 c -0.69196,0.1993 -1.52556,0.4336 -2.02929,0.584 -0.27304,0.5418 -0.55086,1.0762 -0.80469,1.6074 0.90021,-0.718 1.85636,-1.4645 2.83398,-2.1914 z m -3.35156,0.9844 c -0.044,0.014 -0.30859,0.094 -0.30859,0.094 l -0.01,-0.033 c -1.18993,1.4717 -2.47116,3.064 -3.11328,3.8652 0.1235,-0.01 0.58606,-0.06 0.74609,-0.074 0.47592,-0.4018 0.62253,-0.5318 1.42579,-1.1953 0.24818,-0.5446 0.48333,-1.0674 0.80078,-1.7344 0.14376,-0.302 0.30751,-0.6111 0.45898,-0.9218 z m 9.8457,2.6718 c -1.28396,0.3995 -12.6914,4.7246 -12.6914,4.7246 l 1.94336,0.6172 12.04297,-4.6582 c -0.39128,-0.1839 -0.81965,-0.4017 -1.29493,-0.6836 z"
         style="opacity:0.64299999;fill:#ffffff;fill-opacity:0.55652173;stroke:none;stroke-width:1px;stroke-linecap:butt;stroke-linejoin:miter;stroke-opacity:1"
         inkscape:connector-curvature="0" />
      <path
         id="path908"
         d="m 80.832031,982.97031 -0.707031,4.19922 -0.310547,-1.06055 v 5.52344 l -0.308594,-0.043 v 2.65039 l -0.443359,0.0449 -0.04297,-0.66211 h -1.23828 l -0.353516,0.88282 c 0,0 3.9e-5,0.0449 -0.353515,0.0449 -0.353553,0 -1.148438,0.4414 -1.148438,0.4414 v 3.04883 l -0.61914,0.53125 c 0,0 -0.353939,-0.53074 -0.972657,-0.61914 -0.618719,-0.0884 -1.236328,0.39844 -1.236328,0.39844 l -0.08984,-3.00586 -2.076171,-0.0879 -0.441407,0.66211 0.353516,0.17773 v 1.85547 l -0.884766,-0.0449 -0.04297,-1.54688 -0.398438,1.15039 -0.972656,1.85547 c 0,0 0.485525,-0.1775 1.148437,-0.0449 0.662913,0.13259 0.884766,1.01767 0.884766,1.01767 l -0.08789,2.0761 -2.253906,-0.043 -0.61914,0.8828 c -1e-6,0 25.102983,0.4865 25.544921,0.6191 0.44194,0.1326 -0.08984,-3.97659 -0.08984,-3.97659 l -0.220704,-5.25977 -0.486328,-0.17773 -0.220703,-1.28125 0.53125,-0.17579 V 992.65 l -0.574219,0.043 -0.708984,-5.83203 -0.794922,-2.91797 -0.882812,2.16601 -0.177735,2.65235 -2.828131,-4.86133 -0.972656,-0.0898 -2.916016,4.59766 -0.707031,0.0879 -0.08984,-1.28125 -0.574219,-4.24414 z m 4.992188,2.34375 c 0,0 0.48629,0.0434 0.839843,0.66211 0.353554,0.61871 0.30936,1.59153 0,1.8125 -0.309358,0.22097 -1.324678,0.44107 -1.589843,-0.88476 -0.265165,-1.32582 0.75,-1.58985 0.75,-1.58985 z m 0,3.75586 c 0.309357,0 0.398437,0.39844 0.398437,0.39844 0,0 0.133312,2.91502 0.04492,3.0918 -0.08839,0.17677 -0.927734,0 -0.927734,0 l -0.04492,-3.0918 c 0,0 0.219938,-0.39844 0.529297,-0.39844 z m -1.546875,0.0879 v 3.04883 l -0.75,0.0449 0.175781,-3.04883 z m 2.917968,1.06055 h 0.619141 l 0.04297,2.38672 -0.574219,0.0449 z m -4.199218,3.75781 0.177734,0.0879 0.353516,0.44141 0.04297,5.39258 -0.882812,0.043 0.04492,-5.16993 z m 2.917968,0.26367 c 0.265165,0.0442 0.529297,0.48633 0.529297,0.48633 0,0 -0.04297,2.60838 -0.04297,2.78516 0,0.17677 -0.884766,0.35351 -0.884766,0.35351 l -0.08789,-3.18164 c 0,0 0.221165,-0.48756 0.486329,-0.44336 z m 2.960938,0.17774 c 0,0 0.08862,0.6191 0.132812,0.97265 0.0442,0.35357 -0.664062,0.0879 -0.664062,0.0879 0,0 -0.04297,-0.61959 -0.04297,-0.88476 z m -11.800781,1.63476 0.441406,0.48633 0.08984,1.36914 -0.707031,0.0898 -0.08984,-1.32617 z m -3.933594,3.58008 c 0.795495,0 1.193359,0.83987 1.193359,0.83987 l 0.04492,2.0761 -2.386718,0.09 c -0.04419,-0.3094 0,-2.211 0,-2.211 0,0 0.352942,-0.79487 1.148437,-0.79487 z"
         style="fill:#ffffff;fill-opacity:0.64313725;stroke:none;stroke-width:1px;stroke-linecap:butt;stroke-linejoin:miter;stroke-opacity:1"
         inkscape:connector-curvature="0" />
      <path
         id="path930"
         d="m 112.16406,979.83359 -2.29687,0.61914 c 0,0 -0.0879,1.50169 -0.0879,1.72266 0,0.22098 0.39648,0.75195 0.39648,0.75195 l -1.67969,0.0879 -0.83984,0.57422 c 0,0 0.0891,4.64109 0.0449,4.90625 -0.0442,0.26518 -0.75195,0.0879 -0.75195,0.0879 l -0.043,-3.66797 -3.58008,-0.35351 -1.63476,0.57422 -0.0449,3.04882 -0.61914,0.13282 -2.253902,-0.66211 -1.589844,0.13281 c 0,0 0.04297,3.00486 0.04297,3.18164 10e-7,0.17678 -0.839843,3.18164 -0.839843,3.18164 0,0 -0.264172,7.15913 -0.175781,7.33593 0.08839,0.1768 -0.972657,0.6641 -0.972657,0.6641 l -0.220675,1.8105 h 0.972656 l 9.677736,1.0605 -2.7832,-4.0644 c 0,0 -0.70876,-1.90153 -0.57618,-2.56444 0.0995,-0.49718 0.32314,-0.69478 0.61524,-0.66992 0.0974,0.008 0.20397,0.0405 0.31445,0.0957 0.44194,0.22098 0.57422,1.32617 0.57422,1.32617 0,0 -0.61887,-0.48586 -0.83984,-0.2207 -0.22098,0.26516 -0.0879,2.03319 -0.0879,2.03319 0,0 4.5947,4.287 4.77148,4.375 0.17677,0.088 3.09375,0.5293 3.09375,0.5293 l -2.12109,-6.45116 -0.88282,0.70696 -0.61914,1.0157 -1.50195,0.5742 -0.31055,0.5742 -0.52929,-0.3086 -0.0449,-2.9609 c 0,0 0.44183,-1.06127 1.06055,-1.10547 0.61872,-0.0442 0.88477,1.15039 0.88477,1.15039 0,0 -0.44333,-0.48756 -0.79688,-0.44336 -0.35355,0.0442 -0.52929,0.39844 -0.52929,0.39844 v 2.209 l 1.36914,-1.23635 0.70703,-0.26562 0.79687,-1.41406 -3.71289,-12.33008 4.41992,9.94336 1.06055,-2.03321 0.13281,-3.09375 -0.48633,-3.09375 1.14844,-2.2539 0.0879,-1.98828 -0.52929,-0.79492 v -1.76758 l 1.98828,-0.79492 0.79492,0.2207 -0.48633,0.61719 c 0,0 -0.0869,0.88476 0.0898,0.88476 0.17677,0 0.79493,0.70703 0.79493,0.70703 0,0 -0.0444,1.98924 -0.13282,2.16602 -0.0884,0.17677 -0.70703,0.5293 -0.70703,0.5293 l 0.0879,5.39257 -0.52929,0.88282 c 0,0 0.0886,6.76267 0.13281,6.93945 0.0442,0.17677 -0.75195,0.66211 -0.75195,0.66211 l -0.13282,-4.41797 -0.39843,1.10352 -1.28125,0.26562 c 0,0 -0.0886,1.5908 -0.13282,1.76758 -0.0442,0.17678 1.06055,2.51946 1.06055,2.51946 l 2.47461,5.4356 0.99414,-0.5117 0.77539,-3.4649 0.2207,-3.71284 0.66211,0.0449 0.26563,6.62894 1.06054,1.3691 c 0,0 1.32518,-1.1932 1.50196,-1.2812 0.17678,-0.088 -0.17578,-22.18559 -0.17578,-22.18559 l -1.63477,-1.54687 -0.79687,0.0449 -0.75,0.0879 -0.31055,-0.66406 -0.97266,-0.48438 z m 2.47656,2.96094 1.19141,0.48633 0.53125,0.043 c 0,0 0.0891,1.98996 0.0449,2.21094 -0.0442,0.22097 -0.57617,0 -0.57617,0 l -1.19141,-0.17774 z m 0.8379,6.49609 h 0.48632 l 0.0898,2.69532 -0.57617,0.0449 z m -13.69922,0.35352 v 1.50195 l -0.88477,0.57618 -0.2207,4.41796 -0.35352,-4.64062 0.70703,-0.35352 0.22071,-1.41406 z m 12.375,0.35352 0.52929,0.0449 c 0,0 9.6e-4,1.94404 0.17774,2.34179 0.17677,0.39775 -0.66406,0.13282 -0.66406,0.13282 z m -12.02149,2.5625 0.70703,0.0898 v 2.60742 c 0,0.35356 -0.79492,0.043 -0.79492,0.043 0,0 0.0437,-2.34249 0.0879,-2.74024 z m -2.69531,0.0449 0.70703,0.53125 0.043,1.76757 -1.324219,-0.31054 0.04297,-1.50196 c 0,0 0.133503,-0.30954 0.53125,-0.48632 z m 4.24219,0.53125 0.66211,0.0879 -0.0879,2.60742 c 0,0 -0.44092,0.0874 -0.5293,-0.17774 -0.0884,-0.26516 -0.0449,-2.51758 -0.0449,-2.51758 z m -3.800784,4.02148 c 0.839694,0.0442 0.972654,1.90039 0.972654,1.90039 -0.26516,-0.35355 -0.3979,-0.48633 -0.83984,-0.48633 -0.441948,0 -0.664064,0.5293 -0.664064,0.5293 l 0.177735,2.16605 1.281249,0.664 c 0,0 -0.48675,0.1316 -1.105468,-0.045 -0.618718,-0.1768 -0.707031,-0.4414 -0.707031,-0.4414 l 0.04492,-1.94531 -0.398437,-0.35352 0.132813,-1.19336 c -10e-7,0 0.265779,-0.83912 1.105468,-0.79492 z"
         style="fill:#ffffff;fill-opacity:0.64313725;stroke:none;stroke-width:1px;stroke-linecap:butt;stroke-linejoin:miter;stroke-opacity:1"
         inkscape:connector-curvature="0" />
      <path
         id="path1038"
         d="m 121.5332,962.42148 a 68.147415,43.133511 0 0 0 -68.146481,43.13282 68.147415,43.133511 0 0 0 68.146481,43.1328 68.147415,43.133511 0 0 0 68.14844,-43.1328 68.147415,43.133511 0 0 0 -68.14844,-43.13282 z m 0.0899,0.5293 a 67.351921,42.24963 0 0 1 67.35156,42.25002 67.351921,42.24963 0 0 1 -67.35156,42.25 67.351921,42.24963 0 0 1 -67.353519,-42.25 67.351921,42.24963 0 0 1 67.353519,-42.25002 z"
         style="opacity:1;fill:#ffffff;fill-opacity:1;stroke:none;stroke-width:1.00142574;stroke-linecap:round;stroke-miterlimit:4;stroke-dasharray:none;stroke-opacity:1"
         inkscape:connector-curvature="0" />
      <path
         inkscape:connector-curvature="0"
         id="path1043"
         d="m 66.556426,999.10183 c 0,-0.53033 9.899495,-24.74874 56.303374,-24.21841 46.40389,0.53033 53.56334,24.74874 53.56334,24.74874"
         style="opacity:0;fill:#ffffff;stroke:#000000;stroke-width:1px;stroke-linecap:butt;stroke-linejoin:miter;stroke-opacity:1" />
      <path
         sodipodi:nodetypes="ccccccccccccccccc"
         d="m 96.342558,971.49227 -0.581653,-0.13785 c -0.185626,-0.38667 -0.831308,-1.828 -1.753063,-1.59287 -0.815776,0.24157 -1.055164,0.56275 -0.905664,1.24476 0.112124,0.51152 0.320736,0.95579 1.547711,1.36407 2.745435,0.80657 3.579995,2.2447 3.010207,4.50264 -0.387105,0.63279 -1.068459,1.30486 -1.887812,1.54749 -2.437918,0.15203 -2.891713,-0.74421 -3.12086,-2.53712 l 0.842656,0.16881 c 5.93e-4,0.38511 0.01444,0.13263 0.07278,0.39879 0.231541,1.0563 0.867906,1.43029 1.909093,1.12196 0.833666,-0.24687 1.088964,-0.79769 0.922144,-1.55873 -1.265492,-1.99043 -3.225742,-1.21722 -4.555702,-3.31069 -0.167731,-0.76519 -0.203545,-1.48291 0.173803,-2.09066 0.380017,-0.61296 0.805562,-1.05108 1.589136,-1.28312 1.610083,-0.47679 2.464917,-0.47301 2.787234,1.03937 z"
         style="font-style:normal;font-variant:normal;font-weight:normal;font-stretch:normal;font-size:10.66666698px;line-height:1.25;font-family:'Britannic Bold';-inkscape-font-specification:'Britannic Bold, ';letter-spacing:-0.82999998px;word-spacing:0px;fill:#ffffff;fill-opacity:1;stroke:none;stroke-width:1.14642084"
         id="path1072"
         inkscape:connector-curvature="0" />
      <path
         sodipodi:nodetypes="cccccccsccccscccc"
         d="m 102.61502,973.83382 0.80652,0.0712 c 0.0414,0.192 0.0728,0.35916 0.0942,0.50149 0.11197,0.7454 -0.0171,1.17221 -0.38718,1.71793 -0.37009,0.54573 -1.21925,0.80886 -2.07872,0.77378 -1.264139,-0.81287 -1.783663,-0.63128 -2.683575,-3.86145 -0.182298,-1.21359 -0.202019,-1.69578 0.222088,-2.57157 0.423545,-0.87953 1.06629,-1.4179 1.928237,-1.61511 1.34451,-0.30761 1.98036,-0.007 1.9388,0.41644 l 0.0263,1.61532 c -0.0247,-0.22683 -0.43689,-0.0739 -0.45542,-0.19753 -0.48242,-1.08432 -0.52837,-1.42527 -1.26284,-1.25722 -0.776971,0.17776 -1.282002,0.4515 -0.921345,2.85248 0.310025,2.06386 1.195915,4.01212 2.063925,3.81352 0.89598,-0.37365 0.84117,-1.06334 0.88053,-1.52555 -0.0253,-0.16855 -0.0825,-0.41312 -0.17143,-0.73372 z"
         style="font-style:normal;font-variant:normal;font-weight:normal;font-stretch:normal;font-size:10.66666698px;line-height:1.25;font-family:'Britannic Bold';-inkscape-font-specification:'Britannic Bold, ';letter-spacing:-0.82999998px;word-spacing:0px;fill:#ffffff;fill-opacity:1;stroke:none;stroke-width:0.98758751"
         id="path1074"
         inkscape:connector-curvature="0" />
      <path
         id="path1078"
         d="m 112.64844,967.35703 -3.37305,0.17188 0.73633,0.26562 0.38476,7.08984 -0.31836,0.14063 0.0156,0.23437 2.6875,-0.20312 c 0,0 0.34375,-0.25 0,-0.3125 -0.34375,-0.0625 -0.82617,-0.006 -0.82617,-0.006 l -0.1543,-3.2832 c 0.65936,-0.0583 0.91684,0.0594 1.16016,1.26953 0.3557,1.02143 0.54842,1.15284 0.84179,1.69726 l -0.15429,0.0879 0.0391,0.375 1.91406,-0.0391 c 0,0 0.11723,-0.34375 0.0234,-0.38281 -0.0937,-0.0391 -0.48047,-0.0684 -0.48047,-0.0684 -0.16608,-0.24185 -0.38336,-0.65739 -0.47656,-1.44922 -0.0784,-0.66443 -0.40059,-1.13852 -0.53125,-1.35937 -0.12803,-0.22109 -0.39613,-0.41004 -0.80274,-0.56641 0.75707,-0.33291 1.33196,-0.85009 1.28516,-1.70898 -0.0305,-0.56106 -0.17335,-1.11569 -0.55078,-1.41407 -0.37763,-0.3019 -0.81927,-0.59606 -1.41992,-0.53906 z m -1.04297,0.55274 c 0.80593,-0.0669 1.34607,0.18995 1.42187,1.37304 -0.19316,0.58953 -0.0893,1.43859 -1.28906,1.45899 z"
         style="font-style:normal;font-variant:normal;font-weight:normal;font-stretch:normal;font-size:10.66666698px;line-height:1.25;font-family:'Britannic Bold';-inkscape-font-specification:'Britannic Bold, ';letter-spacing:-0.82999998px;word-spacing:0px;fill:#ffffff;fill-opacity:1;stroke:none;stroke-width:0.87025839"
         inkscape:connector-curvature="0" />
      <path
         d="m 124.70732,966.77344 q 2.73509,0.0915 2.64828,4.14227 -0.0868,4.05064 -2.87238,3.95733 -2.78555,-0.0933 -2.69677,-4.23577 0.0849,-3.95884 2.92087,-3.86383 z m -0.0639,0.62369 q -0.51398,-0.0172 -0.7128,0.68808 -0.19409,0.6997 -0.23712,2.70782 -0.043,2.0081 0.12068,2.72554 0.16844,0.71186 0.68242,0.72907 0.51397,0.0172 0.70807,-0.68249 0.19881,-0.70529 0.24185,-2.7134 0.0429,-2.00237 -0.12541,-2.71996 -0.16372,-0.71744 -0.67769,-0.73466 z"
         style="font-style:normal;font-variant:normal;font-weight:normal;font-stretch:normal;font-size:10.66666698px;line-height:1.25;font-family:'Britannic Bold';-inkscape-font-specification:'Britannic Bold, ';letter-spacing:-0.82999998px;word-spacing:0px;fill:#ffffff;fill-opacity:1;stroke:none;stroke-width:0.98554903"
         id="path1082"
         inkscape:connector-curvature="0" />
      <path
         d="m 137.84245,967.91206 q 2.77521,0.46393 2.32859,4.50918 -0.4466,4.04525 -3.27302,3.57274 -2.82644,-0.47249 -2.3697,-4.60941 0.43648,-3.95357 3.31413,-3.47251 z m -0.12018,0.61599 q -0.52152,-0.0871 -0.78622,0.59218 -0.25939,0.6744 -0.48081,2.67983 -0.22139,2.00544 -0.11824,2.74629 0.10844,0.73591 0.62997,0.82308 0.52152,0.0871 0.78091,-0.58722 0.2647,-0.67935 0.48612,-2.68478 0.22077,-1.99971 0.11295,-2.74135 -0.10315,-0.74086 -0.62468,-0.82803 z"
         style="font-style:normal;font-variant:normal;font-weight:normal;font-stretch:normal;font-size:10.66666698px;line-height:1.25;font-family:'Britannic Bold';-inkscape-font-specification:'Britannic Bold, ';letter-spacing:-0.82999998px;word-spacing:0px;fill:#ffffff;fill-opacity:1;stroke:none;stroke-width:1.00084579"
         id="path1086"
         inkscape:connector-curvature="0" />
      <path
         id="path1131"
         d="M 61.5625,989.2125 60.75,990.9 h 0.75 l 3.875,3.3125 -3.125,-0.375 -1.25,-1.5 -0.4375,-0.9375 -1.8125,4.125 0.625,-0.1875 4.125,0.6875 0.875,1.125 -5.6875,-0.8125 -0.25,-0.375 -1.1875,2.625 0.875,-0.5 8.431641,1.01367 0.175781,-0.86133 L 65.875,997.5875 64.5625,995.9 l 3.3125,0.375 0.25,-0.4375 -6.375,-5.75 z m -1.027344,3.55859 c 0,0 0.895432,0.97221 1.039063,1.09375 0.143631,0.12152 -1.480469,-0.0879 -1.480469,-0.0879 z"
         style="fill:#ffffff;fill-opacity:1;stroke:none;stroke-width:1px;stroke-linecap:butt;stroke-linejoin:miter;stroke-opacity:1"
         inkscape:connector-curvature="0" />
      <path
         d="m 71.743219,1028.9382 3.097524,-4.34 1.929964,1.3774 q 1.491192,1.0643 0.730993,2.1294 -0.540081,0.7568 -1.591923,0.3276 0.929905,0.99 0.262746,1.9248 -0.823737,1.1542 -2.283133,0.1126 z m 1.515512,0.5394 0.359285,0.2564 q 0.705852,0.5038 1.282241,-0.3038 0.660351,-0.9253 -0.06776,-1.4449 l -0.337029,-0.2406 z m 1.493165,-2.0922 0.387901,0.2769 q 0.537338,0.3835 1.10465,-0.4114 0.524196,-0.7344 -0.04494,-1.1406 l -0.356105,-0.2542 z"
         style="font-style:normal;font-variant:normal;font-weight:normal;font-stretch:normal;font-size:8px;line-height:1.25;font-family:'Britannic Bold';-inkscape-font-specification:'Britannic Bold, ';letter-spacing:0.19px;word-spacing:0px;fill:#ffffff;fill-opacity:1;stroke:none"
         id="path1147"
         inkscape:connector-curvature="0" />
      <path
         d="m 80.670275,1028.3471 q 2.007012,1.1799 0.609391,3.5573 -1.39762,2.3774 -3.441673,1.1758 -2.044054,-1.2017 -0.61476,-3.633 1.365946,-2.3235 3.447042,-1.1001 z m -0.252822,0.3453 q -0.377157,-0.2217 -0.75733,0.1166 -0.374826,0.337 -1.067697,1.5156 -0.692871,1.1787 -0.807014,1.6734 -0.108796,0.4934 0.268361,0.7151 0.377156,0.2218 0.751982,-0.1152 0.380173,-0.3384 1.073044,-1.517 0.690892,-1.1753 0.801667,-1.672 0.114144,-0.4948 -0.263013,-0.7165 z"
         style="font-style:normal;font-variant:normal;font-weight:normal;font-stretch:normal;font-size:8px;line-height:1.25;font-family:'Britannic Bold';-inkscape-font-specification:'Britannic Bold, ';letter-spacing:0.19px;word-spacing:0px;fill:#ffffff;fill-opacity:1;stroke:none"
         id="path1149"
         inkscape:connector-curvature="0" />
      <path
         d="m 80.701504,1034.6057 2.370952,-4.7759 2.053809,1.0196 q 0.80123,0.3978 1.112083,0.9751 0.31259,0.5739 0.0312,1.1407 -0.430767,0.8677 -1.589693,0.6194 0.431053,0.4583 0.468625,0.7691 0.04107,0.3126 -0.238182,1.0157 -0.333024,0.8377 -0.258627,1.1973 l -1.504494,-0.7468 q 0.02156,-0.4036 0.268208,-0.9005 l 0.133697,-0.2869 0.170172,-0.3603 q 0.409923,-0.8257 -0.254853,-1.1558 l -0.23792,-0.1181 -1.139447,2.2953 z m 2.721257,-2.0027 0.279905,0.1389 q 0.787235,0.3908 1.195421,-0.4314 0.408186,-0.8222 -0.379049,-1.213 l -0.279906,-0.139 z"
         style="font-style:normal;font-variant:normal;font-weight:normal;font-stretch:normal;font-size:8px;line-height:1.25;font-family:'Britannic Bold';-inkscape-font-specification:'Britannic Bold, ';letter-spacing:0.19px;word-spacing:0px;fill:#ffffff;fill-opacity:1;stroke:none"
         id="path1151"
         inkscape:connector-curvature="0" />
      <path
         d="m 89.522115,1032.739 q 2.149065,0.8954 1.088443,3.4411 -1.060622,2.5457 -3.249351,1.6338 -2.188728,-0.9119 -1.10407,-3.5153 1.036586,-2.488 3.264978,-1.5596 z m -0.203414,0.3765 q -0.403851,-0.1682 -0.734368,0.2188 -0.32541,0.3849 -0.851214,1.647 -0.525804,1.262 -0.571462,1.7677 -0.04055,0.5036 0.363301,0.6719 0.403851,0.1682 0.72926,-0.2167 0.330518,-0.387 0.856322,-1.6491 0.524302,-1.2584 0.566354,-1.7656 0.04566,-0.5057 -0.358193,-0.674 z"
         style="font-style:normal;font-variant:normal;font-weight:normal;font-stretch:normal;font-size:8px;line-height:1.25;font-family:'Britannic Bold';-inkscape-font-specification:'Britannic Bold, ';letter-spacing:0.19px;word-spacing:0px;fill:#ffffff;fill-opacity:1;stroke:none"
         id="path1153"
         inkscape:connector-curvature="0" />
      <path
         d="m 95.931304,1035.2047 -1.165644,3.3829 q -0.599365,1.7395 -2.523502,1.0765 -1.91675,-0.6605 -1.317386,-2.3999 l 1.165644,-3.383 1.462492,0.5039 -1.180914,3.4273 q -0.229057,0.6648 -0.124693,0.9734 0.108057,0.3099 0.621406,0.4868 0.993461,0.3423 1.405762,-0.8543 l 1.165644,-3.3829 z"
         style="font-style:normal;font-variant:normal;font-weight:normal;font-stretch:normal;font-size:8px;line-height:1.25;font-family:'Britannic Bold';-inkscape-font-specification:'Britannic Bold, ';letter-spacing:0.19px;word-spacing:0px;fill:#ffffff;fill-opacity:1;stroke:none"
         id="path1155"
         inkscape:connector-curvature="0" />
      <path
         d="m 97.953231,1038.3333 2.115519,0.5865 -0.769135,2.7743 -0.474298,-0.1315 -0.06377,-0.3988 q -0.743205,0.2683 -1.435829,0.076 -1.140572,-0.3162 -1.584077,-1.1728 -0.438697,-0.8594 -0.09431,-2.1016 0.334996,-1.2083 1.207903,-1.7689 0.877716,-0.5634 1.95806,-0.2639 1.422886,0.3945 1.328726,1.9331 l -0.788854,0.1259 0.03444,-0.1243 0.06593,-0.2816 q 0.179986,-0.9271 -0.587923,-1.14 -0.56464,-0.1565 -0.905256,0.2679 -0.340615,0.4245 -0.704831,1.7382 -0.340214,1.2271 -0.296688,1.7135 0.04729,0.4874 0.517824,0.6178 0.553347,0.1534 0.724497,-0.4639 l 0.35065,-1.2648 -0.74156,-0.2056 z"
         style="font-style:normal;font-variant:normal;font-weight:normal;font-stretch:normal;font-size:8px;line-height:1.25;font-family:'Britannic Bold';-inkscape-font-specification:'Britannic Bold, ';letter-spacing:0.19px;word-spacing:0px;fill:#ffffff;fill-opacity:1;stroke:none"
         id="path1157"
         inkscape:connector-curvature="0" />
      <path
         d="m 102.28461,1039.6398 -0.54495,2.5958 -1.51388,-0.3178 1.09552,-5.2183 1.51388,0.3178 -0.44062,2.0988 1.2348,0.2592 0.44062,-2.0988 1.51387,0.3179 -1.09552,5.2182 -1.51387,-0.3178 0.54495,-2.5957 z"
         style="font-style:normal;font-variant:normal;font-weight:normal;font-stretch:normal;font-size:8px;line-height:1.25;font-family:'Britannic Bold';-inkscape-font-specification:'Britannic Bold, ';letter-spacing:0.19px;word-spacing:0px;fill:#ffffff;fill-opacity:1;stroke:none"
         id="path1159"
         inkscape:connector-curvature="0" />
      <path
         d="m 117.8484,1040.0598 -0.7251,0.092 q 0.0589,-0.2119 0.0671,-0.3562 0.0525,-0.9282 -1.07463,-0.9919 -0.8892,-0.05 -0.92537,0.5893 -0.0271,0.4797 0.94798,0.8791 1.88154,0.7676 1.80855,2.0586 -0.0428,0.7566 -0.607,1.1863 -0.56401,0.4259 -1.45711,0.3754 -1.97731,-0.1118 -1.89065,-1.6445 0.007,-0.1248 0.0369,-0.307 l 0.75417,-0.1217 q -0.10499,0.3345 -0.1191,0.5841 -0.056,0.9906 1.0789,1.0547 0.9087,0.051 0.94905,-0.6623 0.03,-0.5304 -1.0354,-0.9936 -1.53907,-0.6661 -1.4674,-1.9336 0.0406,-0.7176 0.58787,-1.1249 0.55143,-0.4109 1.40553,-0.3626 1.75501,0.099 1.6657,1.6787 z"
         style="font-style:normal;font-variant:normal;font-weight:normal;font-stretch:normal;font-size:8px;line-height:1.25;font-family:'Britannic Bold';-inkscape-font-specification:'Britannic Bold, ';letter-spacing:0.19px;word-spacing:0px;fill:#ffffff;fill-opacity:1;stroke:none"
         id="path1161"
         inkscape:connector-curvature="0" />
      <path
         d="m 122.29396,1041.8184 0.65726,0.1826 q 0.0123,0.2034 0.01,0.3518 -0.0127,0.7772 -0.58271,1.2328 -0.57002,0.4556 -1.51521,0.4402 -2.37077,-0.039 -2.32719,-2.7064 0.0207,-1.2654 0.72481,-2.0392 0.7042,-0.7777 1.81343,-0.7595 1.73024,0.028 1.70306,1.6921 l -0.66896,0.2938 q 0.0156,-0.2342 0.0177,-0.3631 0.0193,-1.1795 -0.92592,-1.1949 -0.99987,-0.016 -1.04077,2.4872 -0.0352,2.1521 1.08188,2.1703 0.46088,0.01 0.77152,-0.3546 0.31455,-0.3621 0.32355,-0.9128 0.003,-0.1758 -0.0423,-0.5203 z"
         style="font-style:normal;font-variant:normal;font-weight:normal;font-stretch:normal;font-size:8px;line-height:1.25;font-family:'Britannic Bold';-inkscape-font-specification:'Britannic Bold, ';letter-spacing:0.19px;word-spacing:0px;fill:#ffffff;fill-opacity:1;stroke:none"
         id="path1163"
         inkscape:connector-curvature="0" />
      <path
         d="m 126.03155,1038.613 1.59076,5.3013 -1.55438,0.031 -0.33947,-1.1497 -1.60515,0.032 -0.31664,1.1628 -0.60535,0.012 1.47113,-5.3626 z m -1.76663,3.6767 1.30833,-0.026 -0.67607,-2.3502 z"
         style="font-style:normal;font-variant:normal;font-weight:normal;font-stretch:normal;font-size:8px;line-height:1.25;font-family:'Britannic Bold';-inkscape-font-specification:'Britannic Bold, ';letter-spacing:0.19px;word-spacing:0px;fill:#ffffff;fill-opacity:1;stroke:none"
         id="path1165"
         inkscape:connector-curvature="0" />
      <path
         d="m 128.2343,1043.882 -0.39524,-5.3173 2.28666,-0.17 q 0.89207,-0.066 1.45384,0.2719 0.56148,0.3343 0.60839,0.9654 0.0718,0.966 -1.05175,1.3433 0.60444,0.1745 0.79524,0.4227 0.1947,0.248 0.31291,0.9952 0.14061,0.8905 0.38798,1.1619 l -1.67507,0.1245 q -0.18722,-0.3582 -0.22834,-0.9113 l -0.0312,-0.315 -0.0373,-0.3967 q -0.0683,-0.9194 -0.80848,-0.8644 l -0.2649,0.02 0.18995,2.5555 z m 1.31995,-3.1103 0.31164,-0.023 q 0.87649,-0.065 0.80845,-0.9806 -0.068,-0.9155 -0.94454,-0.8503 l -0.31164,0.023 z"
         style="font-style:normal;font-variant:normal;font-weight:normal;font-stretch:normal;font-size:8px;line-height:1.25;font-family:'Britannic Bold';-inkscape-font-specification:'Britannic Bold, ';letter-spacing:0.19px;word-spacing:0px;fill:#ffffff;fill-opacity:1;stroke:none"
         id="path1167"
         inkscape:connector-curvature="0" />
      <path
         d="m 133.46593,1043.4605 -0.70517,-5.2852 2.35026,-0.3136 q 1.81594,-0.2423 1.98901,1.0548 0.12295,0.9216 -0.9382,1.3272 1.35547,0.087 1.50735,1.2254 0.18753,1.4056 -1.58969,1.6427 z m 1.47491,-0.6421 0.43753,-0.058 q 0.85957,-0.1147 0.72835,-1.0981 -0.15033,-1.1268 -1.03701,-1.0085 l -0.41042,0.055 z m -0.33993,-2.5477 0.47238,-0.063 q 0.65436,-0.087 0.5252,-1.0553 -0.11934,-0.8944 -0.81241,-0.8019 l -0.43366,0.058 z"
         style="font-style:normal;font-variant:normal;font-weight:normal;font-stretch:normal;font-size:8px;line-height:1.25;font-family:'Britannic Bold';-inkscape-font-specification:'Britannic Bold, ';letter-spacing:0.19px;word-spacing:0px;fill:#ffffff;fill-opacity:1;stroke:none"
         id="path1169"
         inkscape:connector-curvature="0" />
      <path
         d="m 139.74618,1036.9968 q 2.28528,-0.4445 2.81188,2.2625 0.5266,2.7071 -1.80087,3.1598 -2.32746,0.4528 -2.86599,-2.3156 -0.51467,-2.6457 1.85498,-3.1067 z m 0.0391,0.4262 q -0.42945,0.083 -0.49034,0.5888 -0.0578,0.5007 0.20327,1.8427 0.26106,1.3421 0.50309,1.7884 0.24512,0.4418 0.67457,0.3583 0.42945,-0.083 0.48725,-0.5843 0.0609,-0.5053 -0.20018,-1.8473 -0.26031,-1.3382 -0.50618,-1.7838 -0.24203,-0.4464 -0.67148,-0.3628 z"
         style="font-style:normal;font-variant:normal;font-weight:normal;font-stretch:normal;font-size:8px;line-height:1.25;font-family:'Britannic Bold';-inkscape-font-specification:'Britannic Bold, ';letter-spacing:0.19px;word-spacing:0px;fill:#ffffff;fill-opacity:1;stroke:none"
         id="path1171"
         inkscape:connector-curvature="0" />
      <path
         d="m 143.91506,1041.6776 -1.33068,-5.1633 2.22041,-0.5722 q 0.86623,-0.2233 1.47902,0.01 0.61181,0.2296 0.76973,0.8424 0.24177,0.9381 -0.79722,1.5084 0.62578,0.065 0.85753,0.2751 0.23553,0.2096 0.4842,0.9241 0.29609,0.8514 0.58763,1.0748 l -1.62654,0.4192 q -0.2477,-0.3194 -0.38613,-0.8565 l -0.0865,-0.3045 -0.107,-0.3838 q -0.23007,-0.8927 -0.94878,-0.7075 l -0.25722,0.066 0.63951,2.4814 z m 0.74827,-3.2949 0.30261,-0.078 q 0.85109,-0.2193 0.622,-1.1082 -0.22909,-0.8889 -1.08019,-0.6696 l -0.30261,0.078 z"
         style="font-style:normal;font-variant:normal;font-weight:normal;font-stretch:normal;font-size:8px;line-height:1.25;font-family:'Britannic Bold';-inkscape-font-specification:'Britannic Bold, ';letter-spacing:0.19px;word-spacing:0px;fill:#ffffff;fill-opacity:1;stroke:none"
         id="path1173"
         inkscape:connector-curvature="0" />
      <path
         d="m 149.39559,1034.5032 q 2.21487,-0.7173 3.06455,1.9063 0.84969,2.6237 -1.40606,3.3542 -2.25575,0.7306 -3.12469,-1.9526 -0.83043,-2.5642 1.4662,-3.3079 z m 0.0903,0.4183 q -0.41621,0.1348 -0.41563,0.6437 0.003,0.5041 0.42434,1.8047 0.42123,1.3007 0.7154,1.7146 0.29668,0.4089 0.71289,0.2742 0.41622,-0.1348 0.41312,-0.6389 -5.9e-4,-0.5089 -0.42182,-1.8096 -0.42002,-1.297 -0.71791,-1.7096 -0.29417,-0.4139 -0.71039,-0.2791 z"
         style="font-style:normal;font-variant:normal;font-weight:normal;font-stretch:normal;font-size:8px;line-height:1.25;font-family:'Britannic Bold';-inkscape-font-specification:'Britannic Bold, ';letter-spacing:0.19px;word-spacing:0px;fill:#ffffff;fill-opacity:1;stroke:none"
         id="path1175"
         inkscape:connector-curvature="0" />
      <path
         d="m 155.87695,1032.2144 1.30974,3.3297 q 0.67346,1.7122 -1.22045,2.4572 -1.88665,0.7421 -2.56011,-0.9701 l -1.30974,-3.3298 1.43952,-0.5662 1.3269,3.3734 q 0.25737,0.6543 0.53714,0.8213 0.2834,0.1656 0.78868,-0.033 0.97786,-0.3846 0.51458,-1.5624 l -1.30974,-3.3298 z"
         style="font-style:normal;font-variant:normal;font-weight:normal;font-stretch:normal;font-size:8px;line-height:1.25;font-family:'Britannic Bold';-inkscape-font-specification:'Britannic Bold, ';letter-spacing:0.19px;word-spacing:0px;fill:#ffffff;fill-opacity:1;stroke:none"
         id="path1177"
         inkscape:connector-curvature="0" />
      <path
         d="m 159.43585,1033.2804 1.98633,-0.9348 1.22593,2.6048 -0.44533,0.2096 -0.30834,-0.2607 q -0.38856,0.688 -1.03888,0.9941 -1.07092,0.504 -1.96577,0.1437 -0.89299,-0.3655 -1.44191,-1.5318 -0.53396,-1.1346 -0.23773,-2.1288 0.29811,-0.9994 1.31247,-1.4768 1.336,-0.6288 2.2679,0.5991 l -0.51601,0.6098 -0.0549,-0.1166 -0.1337,-0.2566 q -0.46803,-0.8202 -1.18905,-0.4808 -0.53015,0.2495 -0.51163,0.7934 0.0185,0.5439 0.59906,1.7774 0.54227,1.1522 0.8924,1.4925 0.35367,0.3387 0.79546,0.1307 0.51956,-0.2445 0.24676,-0.8241 l -0.55891,-1.1876 -0.69627,0.3277 z"
         style="font-style:normal;font-variant:normal;font-weight:normal;font-stretch:normal;font-size:8px;line-height:1.25;font-family:'Britannic Bold';-inkscape-font-specification:'Britannic Bold, ';letter-spacing:0.19px;word-spacing:0px;fill:#ffffff;fill-opacity:1;stroke:none"
         id="path1179"
         inkscape:connector-curvature="0" />
      <path
         d="m 163.52099,1031.4531 1.32938,2.2952 -1.33855,0.7753 -2.67247,-4.614 1.33855,-0.7753 1.07486,1.8557 1.0918,-0.6324 -1.07486,-1.8557 1.33855,-0.7753 2.67247,4.614 -1.33855,0.7753 -1.32938,-2.2952 z"
         style="font-style:normal;font-variant:normal;font-weight:normal;font-stretch:normal;font-size:8px;line-height:1.25;font-family:'Britannic Bold';-inkscape-font-specification:'Britannic Bold, ';letter-spacing:0.19px;word-spacing:0px;fill:#ffffff;fill-opacity:1;stroke:none"
         id="path1181"
         inkscape:connector-curvature="0" />
      <g
         id="text1145"
         style="font-style:normal;font-weight:normal;font-size:42.95523071px;line-height:1.25;font-family:sans-serif;letter-spacing:0px;word-spacing:0px;fill:#ffffff;fill-opacity:1;stroke:none;stroke-width:1.07388067"
         inkscape:transform-center-y="0.75"
         inkscape:transform-center-x="-0.5"
         transform="matrix(0.96983883,0.13816684,-0.13753229,1.0115058,0,0)"
         aria-label="of">
        <path
           id="path1184"
           style="font-style:italic;font-variant:normal;font-weight:normal;font-stretch:normal;font-size:8.59104538px;font-family:'Bodoni MT';-inkscape-font-specification:'Bodoni MT Italic';fill:#ffffff;stroke-width:1.07388067"
           d="m 250.63683,994.59171 q 0,-0.82638 0.58728,-1.44302 0.58728,-0.62084 1.30879,-0.62084 0.57889,0 0.8935,0.41529 0.31881,0.41529 0.31881,0.99418 0,0.8096 -0.59986,1.45561 -0.59567,0.64181 -1.28782,0.64181 -0.55372,0 -0.88931,-0.4069 -0.33139,-0.4069 -0.33139,-1.03613 z m 2.33653,-1.35074 q 0,-0.23071 -0.12584,-0.37753 -0.12165,-0.14682 -0.34818,-0.14682 -0.33978,0 -0.49079,0.27686 -0.14682,0.27686 -0.37334,1.12422 -0.22653,0.84316 -0.22653,1.22909 0,0.2433 0.13424,0.37334 0.13843,0.12584 0.323,0.12584 0.52436,0 0.8138,-1.14099 0.29364,-1.1452 0.29364,-1.46401 z"
           inkscape:connector-curvature="0" />
        <path
           id="path1186"
           style="font-style:italic;font-variant:normal;font-weight:normal;font-stretch:normal;font-size:8.59104538px;font-family:'Bodoni MT';-inkscape-font-specification:'Bodoni MT Italic';fill:#ffffff;stroke-width:1.07388067"
           d="m 254.8107,995.5775 0.17199,-1.31298 0.21394,-1.20392 q 0.004,-0.0168 0.021,-0.10907 0.0168,-0.0965 0.021,-0.10487 h -0.77185 l 0.0419,-0.21394 h 0.78024 q 0.25169,-1.22909 0.78024,-1.82895 0.53274,-0.60406 1.11163,-0.60406 0.33559,0 0.5747,0.18877 0.2391,0.18877 0.2391,0.45724 0,0.16779 -0.10906,0.28944 -0.10487,0.12165 -0.26008,0.12165 -0.15102,0 -0.26428,-0.10906 -0.11326,-0.11327 -0.11326,-0.26008 0,-0.14682 0.12165,-0.26847 0.12165,-0.12166 0.12165,-0.13424 0,-0.0881 -0.25169,-0.0881 -0.5663,0 -0.80961,0.61245 -0.2391,0.61244 -0.34817,1.6234 H 256.69 l -0.0419,0.21394 h -0.59148 l -0.30622,1.82056 q -0.15101,0.88931 -0.30622,1.44722 -0.15521,0.55792 -0.37335,0.98579 -0.21393,0.42788 -0.43626,0.64601 -0.21813,0.22233 -0.48241,0.3272 -0.26008,0.10906 -0.47821,0.10906 -0.30622,0 -0.52016,-0.17199 -0.21813,-0.16779 -0.21813,-0.4069 0,-0.1594 0.0965,-0.27686 0.0965,-0.11745 0.28944,-0.11745 0.35237,0 0.35237,0.39431 0,0.10068 -0.0461,0.17619 -0.0461,0.0755 -0.0461,0.12584 0,0.0755 0.11746,0.0755 0.33559,0 0.60825,-0.33559 0.27267,-0.33139 0.50338,-2.06806 z"
           inkscape:connector-curvature="0" />
      </g>
      <path
         inkscape:connector-curvature="0"
         id="path1189"
         d="m 63.15625,989.24375 c 0.25,-0.0625 1.1875,-0.0937 1.1875,-0.0937 l 4.53125,4.15625 -0.0625,0.6875 0.34375,0.3125 c 0,0 1.96875,-1.96875 1.8125,-2.09375 -0.15625,-0.125 -0.40625,-0.21875 -0.40625,-0.21875 0,0 -0.28125,0.15625 -0.4375,0.0937 -0.15625,-0.0625 -2.40625,-1.9375 -2.40625,-1.9375 l 1.15625,-1.375 2.25,1.9375 0.125,0.90625 1.84375,-1.78125 c 0,0 -0.84375,-0.0937 -1,-0.15625 -0.15625,-0.0625 -4.6875,-4.1875 -4.6875,-4.1875 V 984.65 l -1.84375,1.90625 1.09375,0.21875 1.625,1.5625 c 0,0 -1.09375,1.46875 -1.125,1.34375 -0.03125,-0.125 -1.96875,-1.75 -1.96875,-1.75 l -0.03125,-0.75 z"
         style="fill:#ffffff;fill-opacity:1;stroke:none;stroke-width:1px;stroke-linecap:butt;stroke-linejoin:miter;stroke-opacity:1" />
      <path
         inkscape:connector-curvature="0"
         id="path1191"
         d="m 68.53125,983.55625 c 0.46875,-0.46875 2.25,-1.875 2.25,-1.875 l -0.03125,0.875 4.0625,4.875 1.0625,0.125 -2.28125,1.8125 -0.0625,-0.84375 -4.125,-4.84375 z"
         style="fill:#ffffff;fill-opacity:1;stroke:none;stroke-width:1px;stroke-linecap:butt;stroke-linejoin:miter;stroke-opacity:1" />
      <path
         inkscape:connector-curvature="0"
         id="path1193"
         d="m 71.625,980.7125 0.875,2 c 0,0 0.5625,0.0937 0.375,-0.21875 -0.1875,-0.3125 -0.25,-1.5 -0.25,-1.5 l 0.65625,-0.34375 3.625,5.21875 -0.125,1 c 0,0 2.78125,-1.59375 2.625,-1.65625 -0.15625,-0.0625 -1.0625,-0.25 -1.0625,-0.25 l -3.6875,-5.28125 0.75,-0.46875 c 0,0 0.21875,-0.0625 0.59375,0.3125 0.375,0.375 0.6875,0.71875 0.6875,0.71875 l 0.3125,-0.375 -1.0625,-1.9375 c 0,0 -0.5625,0.65625 -0.71875,0.6875 -0.15625,0.0312 -2.9375,1.84375 -2.9375,1.84375 z"
         style="fill:#ffffff;fill-opacity:1;stroke:none;stroke-width:1px;stroke-linecap:butt;stroke-linejoin:miter;stroke-opacity:1" />
      <path
         id="path1195"
         d="m 80.097656,975.9918 c -0.165039,-4.9e-4 -0.324218,0.0176 -0.472656,0.0332 -0.59375,0.0625 -2.78125,1.59375 -2.78125,1.59375 l 0.125,0.46875 0.71875,-0.0937 2.28125,4.4375 0.71875,-0.40625 h 0.59375 L 80.3125,980.15 c 0,0 1.4375,-0.6875 2.15625,0.84375 0.71875,1.53125 -0.03125,1.84375 -0.03125,1.84375 l 0.1875,0.4375 c 0,0 1.28125,-0.25 1.375,-1.53125 C 84.09375,980.4625 83.65625,979.9 83,979.4 c -0.65625,-0.5 -1.875,-0.125 -1.6875,-0.28125 0.1875,-0.15625 0.75,-0.9375 0.21875,-2.09375 -0.398438,-0.86719 -0.938477,-1.03174 -1.433594,-1.0332 z m -0.449218,0.92187 c 0.05853,0.006 0.113281,0.0215 0.164062,0.0488 0.40625,0.21875 0.65625,0.28125 0.84375,1.3125 0.1875,1.03125 -0.65625,1.21875 -0.65625,1.21875 0,0 -1.25,-2.0625 -1.3125,-2.21875 0,0 0.551208,-0.40619 0.960938,-0.36133 z"
         style="fill:#ffffff;fill-opacity:1;stroke:none;stroke-width:1px;stroke-linecap:butt;stroke-linejoin:miter;stroke-opacity:1"
         inkscape:connector-curvature="0" />
      <path
         inkscape:connector-curvature="0"
         id="path1200"
         d="m 81.65625,975.0875 0.125,0.25 0.53125,0.0312 3.1875,2.96875 c 0,0 1.15625,2.375 0.96875,2.375 -0.1875,0 -0.5,0.6875 -0.5,0.6875 v 0.1875 L 89,980.4 c 0,0 -1.03125,0.1875 -1.15625,-0.28125 -0.125,-0.46875 -1.125,-2.65625 -1.125,-2.8125 0,-0.15625 -0.0625,-3.71875 -0.0625,-3.71875 0,0 0.65625,-0.8125 0.46875,-0.84375 -0.1875,-0.0312 -2.03125,0.875 -2.03125,0.875 l 0.96875,0.375 c 0,0 0.1875,3.125 0.0625,2.84375 -0.125,-0.28125 -2.25,-2.1875 -2.25,-2.1875 0,0 0.625,-0.8125 0.5,-0.8125 -0.125,0 -2.71875,1.25 -2.71875,1.25 z"
         style="fill:#ffffff;fill-opacity:1;stroke:none;stroke-width:1px;stroke-linecap:butt;stroke-linejoin:miter;stroke-opacity:1" />
      <ellipse
         ry="0.5625"
         rx="0.609375"
         cy="976.27502"
         cx="90.140625"
         id="path1202"
         style="opacity:0;fill:#ffffff;fill-opacity:1;stroke:none;stroke-width:1.00157475;stroke-linecap:round;stroke-miterlimit:4;stroke-dasharray:none;stroke-opacity:0.00869565" />
      <ellipse
         ry="1.796875"
         rx="1.125"
         cy="977.5094"
         cx="90.59375"
         id="path1204"
         style="opacity:0;fill:#ffffff;fill-opacity:1;stroke:none;stroke-width:1.00157475;stroke-linecap:round;stroke-miterlimit:4;stroke-dasharray:none;stroke-opacity:0.00869565" />
      <path
         id="path1206"
         d="m 106.20703,967.77891 c -0.22632,0.009 -0.69141,0.10546 -0.69141,0.10546 l -0.85937,7.65625 -0.34375,0.23438 c 0,0 0.0469,0.34375 0.0469,0.40625 0,0.0625 1.79689,-0.32815 1.875,-0.34375 0.0781,-0.0156 -0.14063,-0.375 -0.14063,-0.375 l -0.90625,-0.17188 0.15625,-1.76562 1.57813,-0.15625 0.54687,1.73437 c 0,0 -0.4375,0.2031 -0.5,0.25 -0.0625,0.0469 -0.0156,0.375 -0.0156,0.4375 0,0.0625 2.76563,-0.45312 2.76563,-0.45312 l 0.0156,-0.32813 -0.51563,-0.0937 c 0,0 -2.90623,-7.01567 -2.89063,-7.10937 0.004,-0.0235 -0.0456,-0.0303 -0.12109,-0.0273 z m -0.37891,2.77734 0.9375,1.98437 -1.17187,0.0937 c 0.0937,-0.20312 0.23438,-2.07812 0.23437,-2.07812 z"
         style="fill:#ffffff;fill-opacity:1;stroke:none;stroke-width:1px;stroke-linecap:butt;stroke-linejoin:miter;stroke-opacity:1"
         inkscape:connector-curvature="0" />
      <path
         id="path1216"
         d="m 118.53125,966.92344 c -0.51099,0 -0.95313,0.0488 -0.95313,0.0488 l -1.76757,0.11132 0.0664,0.55274 0.68555,0.19726 0.13281,6.29883 -0.61914,0.1543 0.0215,0.4414 h 3.24804 c 0,0 0.86263,0.1335 1.23828,-0.5957 0.37565,-0.72921 0.46388,-1.48174 0.28711,-2.21094 -0.17678,-0.7292 -0.17646,-0.68404 -0.57421,-0.94921 -0.39776,-0.26516 -0.90626,-0.55274 -0.90626,-0.55274 0,0 0.83908,-0.0665 1.14844,-1.25976 0.30936,-1.19324 -0.0882,-1.59055 -0.64062,-1.98829 -0.27621,-0.19887 -0.8562,-0.24804 -1.36719,-0.24804 z m -0.79883,0.38086 c 0,0 1.2816,0.0214 1.48047,0.375 0.19888,0.35355 0.37737,1.65839 -0.13086,2.14453 -0.50823,0.48613 -1.30469,0.375 -1.30469,0.375 z m 0.70703,3.42578 c 0.28726,0.0221 0.70884,0.24214 0.9961,0.5957 0.28727,0.35355 0.26428,1.39193 0.24218,1.76758 -0.0221,0.37566 -0.13323,0.81748 -0.75195,1.06055 -0.61872,0.24306 -1.14844,-0.375 -1.14844,-0.375 l -0.0449,-2.87305 c 0,0 0.41976,-0.19788 0.70703,-0.17578 z"
         style="fill:#ffffff;fill-opacity:1;stroke:none;stroke-width:1px;stroke-linecap:butt;stroke-linejoin:miter;stroke-opacity:1"
         inkscape:connector-curvature="0" />
      <path
         sodipodi:nodetypes="cccccccccccccccccccccccscc"
         inkscape:connector-curvature="0"
         id="path1224"
         d="m 128.4375,967.07187 0.60938,0.51563 -0.375,6.53125 -0.8125,0.35937 -0.0313,0.32813 c 0,0 2.875,0.39062 2.84376,0.32812 -0.0312,-0.0625 0.15624,-0.42187 0,-0.48437 -0.15626,-0.0625 -0.65626,-0.35938 -0.6875,-0.42188 -0.0312,-0.0625 0.10937,-2.75 0.10937,-2.75 0,0 1,-0.23437 1.14063,0.51563 0.14062,0.75 0.26562,2.3125 0.3125,2.73437 0.0469,0.42188 0.17187,0.42188 0.17187,0.42188 l 2.04687,0.21875 -0.0312,-0.25 c 0,0 -0.40626,-0.125 -0.6875,-0.5 -0.28126,-0.375 -0.0156,-1.98438 -0.5,-2.60938 -0.48438,-0.62499 -1.29688,-0.59376 -1.125,-0.625 0.17187,-0.0312 1.15624,0.14062 1.53124,-0.5625 0.375,-0.70313 0.53125,-1.65625 0.26563,-2.375 -0.26563,-0.71875 -0.5625,-1.04688 -1.46875,-1.21875 -0.90625,-0.17188 -3.3125,-0.15625 -3.3125,-0.15625 z m 2,0.70313 c 0,0 1.09375,-0.10937 1.26562,0.40625 0.17188,0.51563 0.21876,1.92187 -0.15624,2.26562 -0.375,0.34375 -1.3125,0.23438 -1.3125,0.23438 0,0 0.20312,-2.6875 0.20312,-2.90625 z"
         style="fill:#ffffff;fill-opacity:1;stroke:none;stroke-width:1px;stroke-linecap:butt;stroke-linejoin:miter;stroke-opacity:1" />
      <path
         inkscape:connector-curvature="0"
         id="path1231"
         d="m 141.89062,968.9 c 0.82813,0.15625 0.9375,0.17188 1.29688,0.26563 0.35937,0.0937 1.42187,0.23437 1.42187,0.23437 0,0 -0.6875,0.26563 -0.6875,0.32813 0,0.0625 -1.35937,5.40624 -1.35937,5.40624 0,0 -0.3125,1.01563 0.45312,1.39063 0.76563,0.375 1.0625,0.125 1.3125,-0.17188 0.25,-0.29687 0.4375,-0.46875 0.60938,-1.21875 0.17187,-0.75 1.1875,-4.76562 1.10937,-4.84374 -0.0781,-0.0781 -0.60937,-0.71875 -0.60937,-0.71875 l 2.09375,0.45312 -0.92188,0.46875 -1.26562,5.28125 c 0,0 -0.42188,1.64062 -1.90625,1.54687 -1.48438,-0.0937 -1.60938,-0.4375 -1.96875,-0.90625 -0.35938,-0.46875 -0.4375,-0.9375 -0.23438,-1.85937 0.20313,-0.92188 1.125,-5.07812 1.125,-5.07812 z"
         style="fill:#ffffff;fill-opacity:1;stroke:none;stroke-width:1px;stroke-linecap:butt;stroke-linejoin:miter;stroke-opacity:1" />
      <path
         inkscape:connector-curvature="0"
         id="path1233"
         d="m 152.13844,973.64598 c -0.11048,-0.39774 0.50824,-1.92244 0.37565,-1.98874 -0.13258,-0.0663 -0.68501,-0.26516 -0.68501,-0.26516 0,0 -0.46403,-0.59662 -1.14904,-0.61872 -0.68501,-0.0221 -2.69585,0.0442 -3.66812,2.96101 -0.97227,2.91682 0.17678,4.19845 0.7513,4.552 0.57452,0.35355 2.05503,0.59662 2.60746,0.44194 0.55242,-0.15468 0.53033,-0.35355 0.53033,-0.35355 l 0.59662,-2.20971 c 0,0 0.95017,-0.30936 0.7734,-0.33146 -0.17678,-0.0221 -2.76214,-1.03856 -2.76214,-1.03856 l 0.39775,0.95018 -0.53033,1.98873 c 0,0 -0.0884,0.64082 -0.7513,0.37565 -0.66292,-0.26516 -0.68501,-1.5026 -0.0663,-3.60182 0.61871,-2.09923 1.5026,-3.49134 2.32019,-3.13779 0.81759,0.35356 0.61872,2.2981 0.61872,2.2981 z"
         style="fill:#ffffff;fill-opacity:1;stroke:none;stroke-width:1px;stroke-linecap:butt;stroke-linejoin:miter;stroke-opacity:1" />
      <path
         inkscape:connector-curvature="0"
         id="path1235"
         d="m 154.12718,971.9666 c 0.19887,-0.0221 2.71794,1.19325 2.71794,1.19325 l -0.88388,0.28726 -0.90598,2.40858 1.56889,0.68501 1.03856,-2.40858 -0.28726,-0.7513 2.51907,1.10485 -0.7513,0.26517 -2.40858,6.0104 0.46404,0.95018 -2.78424,-1.21534 c 0,0 0.8176,-0.19887 0.83969,-0.28726 0.0221,-0.0884 1.34792,-2.87262 1.14905,-2.91682 -0.19887,-0.0442 -1.61309,-0.70711 -1.61309,-0.70711 l -1.25953,3.00521 c 0,0 0.64082,0.7292 0.53033,0.70711 -0.11049,-0.0221 -2.58536,-1.06067 -2.58536,-1.06067 l 0.7955,-0.19887 2.29809,-6.0767 -0.46404,-1.08276 z"
         style="fill:#ffffff;fill-opacity:1;stroke:none;stroke-width:1px;stroke-linecap:butt;stroke-linejoin:miter;stroke-opacity:1" />
      <path
         sodipodi:nodetypes="szzss"
         inkscape:connector-curvature="0"
         id="path1239"
         d="m 159.98291,979.50171 c 0.008,0.37376 0.37876,0.58197 0.66291,0.57452 0.28415,-0.007 0.55242,-0.0221 0.59662,-0.57452 0.0442,-0.55243 -0.19887,-0.7513 -0.59662,-0.7292 -0.39775,0.0221 -0.67396,0.24306 -0.66291,0.7292 z"
         style="fill:#ffffff;fill-opacity:1;stroke:none;stroke-width:1px;stroke-linecap:butt;stroke-linejoin:miter;stroke-opacity:1" />
      <path
         style="fill:#ffffff;fill-opacity:1;stroke:none;stroke-width:1px;stroke-linecap:butt;stroke-linejoin:miter;stroke-opacity:1"
         d="m 89.376705,976.4072 c 0.008,0.37376 0.37876,0.58197 0.66291,0.57452 0.28415,-0.007 0.55242,-0.0221 0.59662,-0.57452 0.0442,-0.55243 -0.19887,-0.7513 -0.59662,-0.7292 -0.39775,0.0221 -0.67396,0.24306 -0.66291,0.7292 z"
         id="path1241"
         inkscape:connector-curvature="0"
         sodipodi:nodetypes="szzss" />
      <path
         inkscape:connector-curvature="0"
         id="path1243"
         d="m 165.75,975.99375 c 0.40625,0.25 5,3.15625 5,3.15625 l -1.5,2.03125 c 0,0 0.0625,-1.75 -0.15625,-2.15625 -0.21875,-0.40625 -0.96875,-0.71875 -0.96875,-0.71875 l -1.84375,2.625 c 0,0 0.71875,0.78125 1.1875,0.53125 0.46875,-0.25 0.84375,-0.8125 0.84375,-0.8125 l 0.21875,0.625 -1.9375,2.59375 c 0,0 0.34375,-1.78125 0.0625,-1.96875 -0.28125,-0.1875 -0.625,-0.34375 -0.625,-0.34375 l -1.84375,2.71875 0.4375,1.375 -3.6875,-2.28125 1.3125,-0.0312 4,-6.21875 z"
         style="fill:#ffffff;fill-opacity:1;stroke:none;stroke-width:1px;stroke-linecap:butt;stroke-linejoin:miter;stroke-opacity:1" />
      <path
         inkscape:connector-curvature="0"
         id="path1245"
         d="m 171.0625,980.80625 c 0.125,0.0312 2.4375,2 2.4375,2 l -1.125,-0.0625 -3.90625,5.09375 0.1875,0.96875 L 166.25,987.025 c 0,0 0.78125,0.1875 0.9375,-0.0937 0.15625,-0.28125 4.03125,-5.21875 4.03125,-5.21875 l -0.28125,-0.875 z"
         style="fill:#ffffff;fill-opacity:1;stroke:none;stroke-width:1px;stroke-linecap:butt;stroke-linejoin:miter;stroke-opacity:1" />
      <path
         inkscape:connector-curvature="0"
         id="path1247"
         d="m 174.59375,983.49375 c 0.28125,0.375 2,2.21875 2,2.21875 l -1.1875,0.0937 -4.5,4.25 c 0,0 0.0937,0.53125 0.375,0.6875 0.28125,0.15625 2.375,-0.53125 2.375,-0.53125 0,0 -1.34375,2 -1.53125,1.84375 -0.1875,-0.15625 -2.9375,-2.875 -2.9375,-2.875 l 0.84375,-0.15625 4.5625,-4.65625 z"
         style="fill:#ffffff;fill-opacity:1;stroke:none;stroke-width:1px;stroke-linecap:butt;stroke-linejoin:miter;stroke-opacity:1" />
      <path
         inkscape:connector-curvature="0"
         id="path1249"
         d="m 178.53125,987.74375 2.6875,3.84375 -1.90625,1.03125 c 0,0 0.625,-0.90625 0.5625,-1.53125 -0.0625,-0.625 -0.4375,-0.96875 -0.4375,-0.96875 l -2.28125,1.5 c 0,0 0.1875,0.59375 0.78125,0.625 0.59375,0.0312 0.96875,-0.21875 0.96875,-0.21875 l -2.3125,1.71875 c 0,0 0.59375,-0.6875 0.5,-1.125 C 177,992.18125 176.75,991.9 176.75,991.9 l -2.71875,1.9375 c 0,0 0.4375,1.25 1.1875,1.125 0.75,-0.125 1.8125,-0.3125 1.8125,-0.3125 0,0 -2.125,1.78125 -2.125,1.4375 0,-0.34375 -2.46875,-3.59375 -2.46875,-3.59375 L 172.75,992.15 c 0,0 0.15625,0.28125 0.34375,0.3125 0.1875,0.0312 5.34375,-3.65625 5.34375,-3.65625 z"
         style="fill:#ffffff;fill-opacity:1;stroke:none;stroke-width:1px;stroke-linecap:butt;stroke-linejoin:miter;stroke-opacity:1" />
      <path
         inkscape:connector-curvature="0"
         id="path1251"
         d="m 181.9375,992.43125 1.3125,3.0625 c 0,0 -0.40625,-0.28125 -0.875,-0.28125 -0.46875,0 -2.78125,1.8125 -2.46875,1.8125 0.3125,0 3.09375,0.375 3.15625,0.15625 0.0625,-0.21875 0.34375,-0.96875 0.34375,-0.96875 0,0 0.78125,1.84375 0.625,1.84375 -0.15625,0 -0.15625,-0.15625 -0.96875,-0.34375 -0.8125,-0.1875 -3.40625,-0.0625 -3.40625,-0.0625 l -2.90625,1.1875 -0.32686,0.79466 -1.17314,-2.79466 0.8125,0.40625 3.0625,-1.34375 2.59375,-2.625 z"
         style="fill:#ffffff;fill-opacity:1;stroke:none;stroke-width:1px;stroke-linecap:butt;stroke-linejoin:miter;stroke-opacity:1" />
    </g>
  </g>
</svg>
