<?xml version="1.0" encoding="UTF-8"?>
<svg version="1.1" viewBox="0 0 250 91" xmlns="http://www.w3.org/2000/svg" xmlns:cc="http://creativecommons.org/ns#" xmlns:dc="http://purl.org/dc/elements/1.1/" xmlns:rdf="http://www.w3.org/1999/02/22-rdf-syntax-ns#" xmlns:xlink="http://www.w3.org/1999/xlink">
<metadata>
<rdf:RDF>
<cc:Work rdf:about="">
<dc:format>image/svg+xml</dc:format>
<dc:type rdf:resource="http://purl.org/dc/dcmitype/StillImage"/>
<dc:title/>
</cc:Work>
</rdf:RDF>
</metadata>
<g transform="translate(0,-961.4)">
<text x="66.556427" y="999.10181" fill="#000000" font-family="sans-serif" font-size="40px" letter-spacing="0px" word-spacing="0px" style="line-height:1.25" xml:space="preserve"><tspan x="66.556427" y="1034.4924"/></text>
<g transform="matrix(.86941 0 0 .86941 19.337 132.66)" fill="#fff">
<path d="m62.125 1019.7s1.1875 0.5 1.75 0.125 1.1875-0.75 1.5625-0.625 1.25 0.9375 1.75 0.9375 1.9375 0.1875 1.9375 0.1875-1.0625 0.6875-2.0625 0.5625-1.1875-0.5625-1.8125-0.5625-0.6875 0.4375-1.4375 0.3125-1.6875-0.9375-1.6875-0.9375z" fill="#fff"/>
<path d="m65.875 1021.8s1.25 0.5625 2.0625 0.1875 1.4375-1.1875 2.375-1.1875 2 0.9375 3.1875 1.25 2.8125 0.125 2.8125 0.125-1.625 1.4375-3.1875 1.25-0.875-0.625-2.0625-0.625-1 0.4375-2.5 0.3125-2.6875-1.3125-2.6875-1.3125z" fill="#fff"/>
<path d="m77.062 1023.6s2.25-1.375 5.0625-1.375 5.0625 1.375 6 1.375 2.125-0.3125 2.125-0.3125-0.8125 1.625-3.875 1.8125-5.3125-0.875-6.8125-1.375-2.5-0.125-2.5-0.125z" fill="#fff"/>
<path d="m88.438 1025.9s6.1875 0.1875 10.188-0.875 6.125-2.6875 6.125-2.6875-3 0.25-5.0625 0.375-5.5625-0.1875-5.5625-0.1875 3.125-0.4375 4.375-1 2.3125-1.6875 2.3125-1.6875-9.625 1.875-13.875 2.125-6.375 0.062-9.1875-0.375c-2.8125-0.4375-5.625-2.4375-5.625-2.4375s4.6875 2.1875 11.75 1.375 14.188-3.25 17.938-4.75 10.188-5.875 13.125-6.0625 3.9375 1.625 3.9375 1.625-2.875-0.3125-3.375 1.625 0 2.5625 1.3125 3.125 20 8.125 20 8.125-10.812 2.375-14.312 2.8125-9.0625 0.75-9.5625-0.5 2-2.25 3.5625-2.6875 4.6875-0.375 4.6875-0.375-4-1.625-7.5625-1.375-6.0625 1.5625-7.4375 2.6875-3.875 4.875-7.1875 5.25-5.5625-0.5-7.25-1.625-3.3125-2.5-3.3125-2.5z" fill="#fff"/>
<path d="m103.88 1029.6s4.375-2.25 7.25-1.8125 7.25 2.9375 10.562 2.875c3.3125-0.062 8.8125-2.25 11.688-2.125s5.8125 1.125 9.5625 1.5625 6.9375 0.1875 6.9375 0.1875-9.4763 4.1033-13.332 4.3329-6.7931-2.5829-9.0431-2.5204c-2.25 0.062-5.125 4.8125-8 4.625s-4.625-3.4375-7.6875-5.125-7.9375-2-7.9375-2z" fill="#fff"/>
<path d="m123.38 1016.2 14.812 7.8125s7.875-1.5625 15.125-1.625c7.25-0.062 11.625 0.6875 13.688 3.125s-1 1.9375-0.75 2.8125 5.625 0.125 9.5625-2.125 6.3125-8.1875 4.375-12.75-9.8125-7.625-16.625-7.8125-13.688 1-20.875 3.3125-19.312 7.25-19.312 7.25z" fill="#fff"/>
<path d="m71.595 1010.1s-1.2816 2.0329 0.22097 3.6681 3.0052 2.74 5.7894 3.5355 8.9714 1.9446 8.9714 1.9446-12.419 1.3258-15.601-1.3259c-3.182-2.6516-1.4584-5.0823-1.1049-5.7894s1.7236-2.0329 1.7236-2.0329z" fill="#fff"/>
<path d="m73.848 1009.1c-0.26516 0-1.3258 1.7678-0.7513 3.0936 0.57452 1.3258 2.4307 2.8284 7.0269 3.9333 4.5962 1.1048 9.2808 1.9003 9.2808 1.9003s2.2539-0.2209 3.9775-0.8397c1.7236-0.6187 7.5572-2.6516 9.7227-3.6239 2.1655-0.9723 3.5797-1.7236 3.5797-1.7236s-2.0329-0.5303-3.2262-1.0164c-1.1932-0.4862-1.812-1.4584-1.812-1.4584l7.6456 1.149 0.44194-0.221-0.83969-1.3258-10.562 0.088s0.39775 0.8397 0.08839 1.7236c-0.30936 0.8839-0.97227 1.5468-0.97227 1.5468l-4.0659 0.044s1.7236-1.3701 2.0771-1.9888c0.35355-0.6187 0.48614-1.4584 0.48614-1.4584h-6.3198l-0.53033 0.7071-2.2981-0.088 0.66291-0.6187-11.049-0.1326s-0.53033 0.3978-0.35355 0.8839c0.17678 0.4862 0.83969 1.6794 4.4636 2.5633s6.364 1.37 6.364 1.37-5.8778-0.3535-8.2643-1.2816c-2.3865-0.9281-2.74-1.0607-3.0936-1.6352-0.35355-0.5745-0.35355-1.37-0.35355-1.37s-0.70711 1.0164 0.08839 1.9887c0.7955 0.9723 2.4749 2.0329 5.3033 2.6075 2.8284 0.5745 7.955 1.6793 7.7782 1.6351-0.17678-0.044-6.0988-0.5303-8.5295-1.0606-2.4307-0.5303-4.552-1.1491-5.3475-2.3423s-0.61872-3.0494-0.61872-3.0494z" fill="#fff"/>
<path d="m67.705 1005.2h27.71s5.701 0.1326 7.7782 1.1049c2.0771 0.9722 2.8284 1.591 2.8284 1.591l-8.9272-0.088s-0.04419-0.3978-0.53033-0.5745c-0.48614-0.1768-0.7513-0.3536-0.7513-0.3536l0.04419 0.7071s-6.0988 0.1326-6.2756 0.088c-0.17678-0.044-0.13258-0.3536-0.44194-0.6187-0.30936-0.2652-1.1932-0.6187-1.1932-0.6187s0.26516 0.2209 0.30936 0.6629c0.04419 0.4419-0.04419 0.6187-0.04419 0.6187s-11.004 0.044-11.225-0.044-2.4749-0.1326-4.4194 0.5303c-1.9445 0.6629-2.0329 0.6187-2.6517 1.1933-0.61872 0.5745-1.0165 1.4584-1.0165 1.4584s-0.57452-1.1491-0.88388-2.8726c-0.30936-1.7236-0.30936-2.7843-0.30936-2.7843z" fill="#fff"/>
<path d="m120.85 976.93c-5.3292 0.0228-10.45 0.46226-15.223 1.2246-9.0986 1.4532-14.556 3.3118-18.494 5.0938l1.6992 2.5508 0.35352-3.0039 2.3867 0.39649 1.3691 5.5703 0.04492 2.6504s1.5029 1.6792 1.3262 1.7676c-0.17678 0.0884-0.92773 0.66406-0.92774 0.66406l0.57422 1.1934 0.13281 4.1094 0.13281 2.916 0.92774-2.7832 0.17578-5.3477 0.66406-3.1387 0.08789-3.2695 0.53125-0.83985 3.0039 0.13282 1.0918 0.14453 0.0137-2.1777s1.7685-1.5032 1.9453-1.459c0.17677 0.0442 3.9316 0.26562 3.9316 0.26562l0.26563-0.70703 1.0606-0.92773 0.83984 0.13281 0.0449-1.8574 1.3691-0.88281 1.3262-0.44141 2.5625 0.043 1.7676 1.1934h1.3711l2.3418 2.166 0.31055 20.33 13.125-25.025c-4.12-0.47814-8.1846-0.70048-12.133-0.68359zm13.312 0.82226-10.857 23.383s5.3905-4.3313 10.959-6.8946 12.595-5.0824 20.594-5.7012c5.6386-0.43613 8.3062-0.47089 9.4453-0.45703-3.8335-2.7554-8.9444-5.412-15.721-7.3652-4.8183-1.3888-9.6527-2.3539-14.42-2.9648zm-50.195 7.0488c-0.30149 0.15944-0.61177 0.32146-0.89844 0.47656l0.10742 0.96485zm-5.3105 3.2969c-2.6137 1.8938-5.1688 4.1224-7.0508 6.1894 0.85022 0.0586 2.2891 0.17383 2.2891 0.17383l0.17773 2.6074 0.92774 0.13281-0.04492-2.6953 1.4141-0.57422s0.17793-0.97166 0.66406-1.1484 1.1934-0.31054 1.1934-0.31054 0.04415-0.8835 0.35352-1.2812c0.25326-0.32563 0.1323-2.2774 0.07617-3.0938zm85.4 1.1328c-1.2948 4e-3 -3.0548 0.0492-5.2441 0.18945 0.0807 0.11033 0.0782 0.1121 0.16992 0.23438 0.33068 0.44092 0.71644 0.88776 0.8457 1.0156a6.2756 3.4913 0 0 1 1.4375-0.0977 6.2756 3.4913 0 0 1 2.5137 0.29688l2.1777-1.5254c-0.0362-0.029-0.0671-0.0588-0.10352-0.0879-0.43961-0.0142-1.0051-0.0279-1.7969-0.0254zm-6.418 0.27539c-0.41023 0.0307-0.79794 0.0562-1.2344 0.0937-0.38537 0.0332-0.75871 0.0761-1.1387 0.11328-0.15118 0.22598-0.397 0.61122-0.83398 1.4141 1.2857 0.21858 2.0018 0.39892 2.4316 0.45117a6.2756 3.4913 0 0 1 1.8066-0.6875c-0.16158-0.20247-0.32417-0.41789-0.48828-0.63671-0.2943-0.39241-0.44929-0.61538-0.54297-0.74805zm-3.6055 0.32812c-1.8267 0.20495-3.5945 0.4742-5.3281 0.8125 1.3852 0.0354 2.8598 0.0942 3.959 0.22461 0.2724 0.0323 0.47227 0.0692 0.7168 0.10352 0.2812-0.52853 0.46105-0.81975 0.65234-1.1406zm12.719 0.17383-1.7812 1.2461a6.2756 3.4913 0 0 1 1.373 0.76562l1.9941-0.5918c-0.49059-0.47046-1.0274-0.94442-1.5859-1.4199zm-5.5293 1.4922a5.2591 2.6517 0 0 0-4.1113 1v0.11914c-0.0483 0-0.10465-9e-3 -0.1543-0.0117a5.2591 2.6517 0 0 0-0.99414 1.5449 5.2591 2.6517 0 0 0 5.2598 2.6524 5.2591 2.6517 0 0 0 5.2578-2.6524 5.2591 2.6517 0 0 0-5.2578-2.6523zm-16.303 0.0273c-2.3474 0.64555-4.6583 1.467-6.9883 2.5371-1.3929 0.6397-2.9811 1.4955-4.5898 2.418 0.27428-0.0988 0.56347-0.20643 0.81055-0.28711 2.1938-0.71634 7.5932-2.2661 12.941-3.0684 2.371-0.35563 4.1212-0.4617 5.4434-0.47461 0.0226-0.0474 0.0354-0.0848 0.0586-0.13281 0.11437-0.23663 0.20094-0.39085 0.30664-0.60157-0.12919-0.017-0.21991-0.0364-0.35742-0.0527-2.5264-0.29971-7.625-0.26172-7.625-0.26172zm9.0234 0.54492c-0.10009 0.19634-0.19272 0.37387-0.30274 0.59766 0.88879 0.03 1.4772 0.0807 1.8086 0.0898a6.2756 3.4913 0 0 1 0.28125-0.33789c-0.48484-0.10054-1.0443-0.22389-1.7871-0.34961zm15.197 0.16211-2.0059 0.59375a6.2756 3.4913 0 0 1 0.19531 0.33789h2.6836c-0.27684-0.30782-0.56703-0.61748-0.87305-0.93164zm-15.951 1.418c-0.16995 0.37762-0.35463 0.77022-0.48828 1.1133 1.1664-0.22499 1.8723-0.32666 2.3203-0.38477a6.2756 3.4913 0 0 1-0.0312-0.3164 6.2756 3.4913 0 0 1 0.0293-0.32813c-0.45616-0.0298-1.004-0.0711-1.8301-0.084zm-1.0938 6e-3c-1.2214 0.0326-2.7966 0.15044-4.8535 0.45898-5.2584 0.78876-10.642 2.3314-12.779 3.0293-0.76033 0.24827-1.6609 0.57701-2.5234 0.88867l0.0723 0.14453c-9e-3 4e-3 -0.16604 0.14275-0.29688 0.25782-0.09 0.19058-0.18323 0.37333-0.26367 0.58984-0.44341 1.1934-0.67635 2.7356-0.12891 4.4142 0.29043-0.1903 0.59287-0.3993 0.86914-0.5684 4.3756-2.679 9.9683-5.1644 15.006-6.7247 1.7113-0.53004 3.1214-0.87006 4.3691-1.1426 0.14929-0.42539 0.33048-0.88275 0.5293-1.3477zm15.438 0.50781a6.2756 3.4913 0 0 1-0.0664 0.41602l4.6426 1.1836c-0.36341-0.51276-0.77915-1.0492-1.2324-1.5996zm-96.59 0.87305c-0.01414 0.0167-0.03089 0.0341-0.04492 0.0508l0.03516 0.16797zm84.48 0.29879c-0.2283 0.0266-1.2905 0.15434-3.0977 0.52734-0.24905 0.78346-0.44551 1.5679-0.61133 2.3965 2.0212-1.2538 3.5254-2.0962 4.1406-2.4375a6.2756 3.4913 0 0 1-0.43164-0.48633zm11.562 0.1543a6.2756 3.4913 0 0 1-0.45508 0.46484c0.72144 0.42305 2.8695 1.7078 4.6133 3.2578 0.23062 0.205 0.50414 0.46562 0.75781 0.69922 0.94996 0.0631 1.7686 0.11357 2.5059 0.14847-0.29024-0.84075-0.66906-1.7012-1.166-2.5508-0.0947-0.16184-0.20569-0.33496-0.31054-0.50391zm-15.787 0.61328c-1.0863 0.2533-2.298 0.56419-3.7051 1-4.3591 1.3502-9.1775 3.4221-13.193 5.6895 2.4291-0.6134 5.0464-1.2251 7.6035-1.709 2.5762-0.4873 4.8429-0.7789 6.9707-0.9726 0.089-0.062 0.17648-0.12693 0.26562-0.18755 0.4647-0.316 0.93981-0.60909 1.4141-0.91406 0.19011-1.0402 0.37783-1.9743 0.64454-2.9062zm5.5352 0.37109c-0.19541 0.10816-2.6182 1.4515-5.2773 3.1406-0.0163 0.0919-0.0324 0.21058-0.0488 0.30664 1.9077-0.10912 3.7338-0.15293 5.5664-0.17774 0.53063-0.99933 1.1892-1.9611 1.5918-2.5352a6.2756 3.4913 0 0 1-1.832-0.73438zm8.8906 0.0977a6.2756 3.4913 0 0 1-2.1836 0.76172c0.17571 0.43204 0.49119 1.2287 0.83203 2.2969 2.3132-3e-3 4.3194 0.0806 6.0293 0.17968-1.8448-1.589-4.4502-3.1063-4.6777-3.2383zm-5.9922 0.85547c-0.18927 0.26697-0.89599 1.2708-1.498 2.2949 1.265-0.0154 2.5298-0.0268 3.8691-0.0625 0.42444-0.0113 0.81559-0.0104 1.2227-0.0156-0.36054-1.0823-0.70196-1.9195-0.79883-2.1543a6.2756 3.4913 0 0 1-1.1621 0.0625 6.2756 3.4913 0 0 1-1.6328-0.125zm-29.523 1.2676c-0.46559 0.17461-1.1465 0.42969-1.1465 0.42969l-2e-3 -6e-3c-3.5674 2.2367-6.4531 4.2246-6.4531 4.2246l-2.3008 4.5996c0.90151-0.5912 4.6424-3.1609 6.4512-4.4297 0.35263-0.6359 0.69659-1.2167 1.0117-1.6563 0.84526-1.1789 1.6468-2.2244 2.3106-3.0175 0.0484-0.0578 0.082-0.0894 0.1289-0.14453zm-0.0137 1.6054c-0.50054 0.6342-1.0358 1.3351-1.6133 2.1407-0.39261 0.5475-0.87424 1.381-1.373 2.3183 0.94125-0.277 1.9438-0.5703 3.2852-0.9394-0.42304-1.2586-0.46313-2.4582-0.29883-3.5196zm34.471 0.3301c0.0179 0.068 0.0418 0.1361 0.0586 0.2032 0.4106 1.6424 0.79148 3.3859 0.85742 3.6855 6.3739 0.722 9.7051 2.7129 9.7051 2.7129s0.15641-1.0971 0.0703-2.709c-0.44124-0.4378-2.1168-2.0976-3.7676-3.6328-1.8984-0.1243-4.1408-0.2542-6.9238-0.2598zm-1.041 0.01c-0.49227 0-0.9749 0.01-1.4941 0.02-1.5487 0.041-3.0076 0.054-4.4512 0.072-0.62829 1.2443-1.5792 3.0813-1.9707 3.8379 0.98543-0.1127 1.974-0.2077 2.9609-0.2558 2.161-0.1055 4.1102-0.049 5.8613 0.1015-0.1177-0.5307-0.40753-1.8586-0.77735-3.3379-0.0356-0.1426-0.0878-0.2912-0.1289-0.4375zm-7.082 0.1172c-1.7113 0.026-3.4186 0.069-5.1973 0.1758-0.2868 1.8466-0.51046 3.5915-0.61523 4.4258 1.2325-0.2503 2.4992-0.47 3.7812-0.6465 0.0993-0.1925 1.2555-2.4317 2.0312-3.9551zm-6.2207 0.2344c-0.31539 0.023-0.65073 0.06-0.97265 0.088-3.1154 2.182-6.1469 4.9168-7.2461 6.0566-0.42192 0.4376-0.41549 0.4328-0.73437 0.7656 2.2719-0.7617 5.136-1.6188 8.3262-2.3183 0.0648-0.5285 0.31219-2.5336 0.62695-4.5918zm22.84 0c1.0354 0.9849 1.4328 1.3881 2.041 1.9883-0.0883-0.6092-0.20687-1.2439-0.38867-1.916-0.52448-0.019-1.0158-0.031-1.6523-0.072zm-25.799 0.2871c-1.6083 0.1866-3.3068 0.4339-5.1738 0.7871-3.5511 0.6718-7.2446 1.591-10.324 2.4199 1.5449 2.8981 4.9477 4.3596 5.8828 4.7207 0.46377-0.1842 0.77852-0.3025 1.5664-0.5898l-0.01-0.01c2e-5 0 0.88576-0.9275 2.0801-2.166 1.0001-1.0371 3.3414-3.1746 5.9785-5.1641zm-16.391 3.6621c-2.1516 1.497-4.3861 3.277-6.1445 4.7227-0.0927 0.2041-0.0817 0.1829-0.16211 0.3613 3.9376-0.3829 9.7501-0.981 10.332-1.0586-1.4252-0.8639-3.0501-2.1675-4.0254-4.0254zm-2.3438 0.4512c-0.69196 0.1993-1.5256 0.4336-2.0293 0.584-0.27304 0.5418-0.55086 1.0762-0.80469 1.6074 0.90021-0.718 1.8564-1.4645 2.834-2.1914zm-3.3516 0.9844c-0.044 0.014-0.30859 0.094-0.30859 0.094l-0.01-0.033c-1.1899 1.4717-2.4712 3.064-3.1133 3.8652 0.1235-0.01 0.58606-0.06 0.74609-0.074 0.47592-0.4018 0.62253-0.5318 1.4258-1.1953 0.24818-0.5446 0.48333-1.0674 0.80078-1.7344 0.14376-0.302 0.30751-0.6111 0.45898-0.9218zm9.8457 2.6718c-1.284 0.3995-12.691 4.7246-12.691 4.7246l1.9434 0.6172 12.043-4.6582c-0.39128-0.1839-0.81965-0.4017-1.2949-0.6836z" fill="#fff" fill-opacity=".55652" opacity=".643"/>
<path d="m80.832 982.97-0.70703 4.1992-0.31055-1.0606v5.5234l-0.30859-0.043v2.6504l-0.44336 0.0449-0.04297-0.66211h-1.2383l-0.35352 0.88282s3.9e-5 0.0449-0.35352 0.0449c-0.35355 0-1.1484 0.4414-1.1484 0.4414v3.0488l-0.61914 0.53125s-0.35394-0.53074-0.97266-0.61914c-0.61872-0.0884-1.2363 0.39844-1.2363 0.39844l-0.08984-3.0059-2.0762-0.0879-0.44141 0.66211 0.35352 0.17773v1.8555l-0.88477-0.0449-0.04297-1.5469-0.39844 1.1504-0.97266 1.8555s0.48552-0.1775 1.1484-0.0449c0.66291 0.13259 0.88477 1.0177 0.88477 1.0177l-0.08789 2.0761-2.2539-0.043-0.61914 0.8828c-1e-6 0 25.103 0.4865 25.545 0.6191 0.44194 0.1326-0.08984-3.9766-0.08984-3.9766l-0.2207-5.2598-0.48633-0.17773-0.2207-1.2812 0.53125-0.17579v-0.35337l-0.57422 0.043-0.70898-5.832-0.79492-2.918-0.88281 2.166-0.17774 2.6524-2.8281-4.8613-0.97266-0.0898-2.916 4.5977-0.70703 0.0879-0.08984-1.2812-0.57422-4.2441zm4.9922 2.3438s0.48629 0.0434 0.83984 0.66211c0.35355 0.61871 0.30936 1.5915 0 1.8125-0.30936 0.22097-1.3247 0.44107-1.5898-0.88476-0.26516-1.3258 0.75-1.5898 0.75-1.5898zm0 3.7559c0.30936 0 0.39844 0.39844 0.39844 0.39844s0.13331 2.915 0.04492 3.0918c-0.08839 0.17677-0.92773 0-0.92773 0l-0.04492-3.0918s0.21994-0.39844 0.5293-0.39844zm-1.5469 0.0879v3.0488l-0.75 0.0449 0.17578-3.0488zm2.918 1.0606h0.61914l0.04297 2.3867-0.57422 0.0449zm-4.1992 3.7578 0.17773 0.0879 0.35352 0.44141 0.04297 5.3926-0.88281 0.043 0.04492-5.1699zm2.918 0.26367c0.26516 0.0442 0.5293 0.48633 0.5293 0.48633s-0.04297 2.6084-0.04297 2.7852c0 0.17677-0.88477 0.35351-0.88477 0.35351l-0.08789-3.1816s0.22116-0.48756 0.48633-0.44336zm2.9609 0.17774s0.08862 0.6191 0.13281 0.97265c0.0442 0.35357-0.66406 0.0879-0.66406 0.0879s-0.04297-0.61959-0.04297-0.88476zm-11.801 1.6348 0.44141 0.48633 0.08984 1.3691-0.70703 0.0898-0.08984-1.3262zm-3.9336 3.5801c0.7955 0 1.1934 0.83987 1.1934 0.83987l0.04492 2.0761-2.3867 0.09c-0.04419-0.3094 0-2.211 0-2.211s0.35294-0.79487 1.1484-0.79487z" fill="#fff" fill-opacity=".64314"/>
<path d="m112.16 979.83-2.2969 0.61914s-0.0879 1.5017-0.0879 1.7227c0 0.22098 0.39648 0.75195 0.39648 0.75195l-1.6797 0.0879-0.83984 0.57422s0.0891 4.6411 0.0449 4.9062c-0.0442 0.26518-0.75195 0.0879-0.75195 0.0879l-0.043-3.668-3.5801-0.35351-1.6348 0.57422-0.0449 3.0488-0.61914 0.13282-2.2539-0.66211-1.5898 0.13281s0.04297 3.0049 0.04297 3.1816c1e-6 0.17678-0.83984 3.1816-0.83984 3.1816s-0.26417 7.1591-0.17578 7.3359c0.08839 0.1768-0.97266 0.6641-0.97266 0.6641l-0.22068 1.8105h0.97266l9.6777 1.0605-2.7832-4.0644s-0.70876-1.9015-0.57618-2.5644c0.0995-0.49718 0.32314-0.69478 0.61524-0.66992 0.0974 8e-3 0.20397 0.0405 0.31445 0.0957 0.44194 0.22098 0.57422 1.3262 0.57422 1.3262s-0.61887-0.48586-0.83984-0.2207c-0.22098 0.26516-0.0879 2.0332-0.0879 2.0332s4.5947 4.287 4.7715 4.375c0.17677 0.088 3.0938 0.5293 3.0938 0.5293l-2.1211-6.4512-0.88282 0.70696-0.61914 1.0157-1.502 0.5742-0.31055 0.5742-0.52929-0.3086-0.0449-2.9609s0.44183-1.0613 1.0606-1.1055 0.88477 1.1504 0.88477 1.1504-0.44333-0.48756-0.79688-0.44336-0.52929 0.39844-0.52929 0.39844v2.209l1.3691-1.2364 0.70703-0.26562 0.79687-1.4141-3.7129-12.33 4.4199 9.9434 1.0606-2.0332 0.13281-3.0938-0.48633-3.0938 1.1484-2.2539 0.0879-1.9883-0.52929-0.79492v-1.7676l1.9883-0.79492 0.79492 0.2207-0.48633 0.61719s-0.0869 0.88476 0.0898 0.88476c0.17677 0 0.79493 0.70703 0.79493 0.70703s-0.0444 1.9892-0.13282 2.166c-0.0884 0.17677-0.70703 0.5293-0.70703 0.5293l0.0879 5.3926-0.52929 0.88282s0.0886 6.7627 0.13281 6.9394c0.0442 0.17677-0.75195 0.66211-0.75195 0.66211l-0.13282-4.418-0.39843 1.1035-1.2812 0.26562s-0.0886 1.5908-0.13282 1.7676c-0.0442 0.17678 1.0606 2.5195 1.0606 2.5195l2.4746 5.4356 0.99414-0.5117 0.77539-3.4649 0.2207-3.7128 0.66211 0.0449 0.26563 6.6289 1.0605 1.3691s1.3252-1.1932 1.502-1.2812-0.17578-22.186-0.17578-22.186l-1.6348-1.5469-0.79687 0.0449-0.75 0.0879-0.31055-0.66406-0.97266-0.48438zm2.4766 2.9609 1.1914 0.48633 0.53125 0.043s0.0891 1.99 0.0449 2.2109c-0.0442 0.22097-0.57617 0-0.57617 0l-1.1914-0.17774zm0.8379 6.4961h0.48632l0.0898 2.6953-0.57617 0.0449zm-13.699 0.35352v1.502l-0.88477 0.57618-0.2207 4.418-0.35352-4.6406 0.70703-0.35352 0.22071-1.4141zm12.375 0.35352 0.52929 0.0449s9.6e-4 1.944 0.17774 2.3418c0.17677 0.39775-0.66406 0.13282-0.66406 0.13282zm-12.021 2.5625 0.70703 0.0898v2.6074c0 0.35356-0.79492 0.043-0.79492 0.043s0.0437-2.3425 0.0879-2.7402zm-2.6953 0.0449 0.70703 0.53125 0.043 1.7676-1.3242-0.31054 0.04297-1.502s0.1335-0.30954 0.53125-0.48632zm4.2422 0.53125 0.66211 0.0879-0.0879 2.6074s-0.44092 0.0874-0.5293-0.17774c-0.0884-0.26516-0.0449-2.5176-0.0449-2.5176zm-3.8008 4.0215c0.83969 0.0442 0.97265 1.9004 0.97265 1.9004-0.26516-0.35355-0.3979-0.48633-0.83984-0.48633-0.44195 0-0.66406 0.5293-0.66406 0.5293l0.17774 2.166 1.2812 0.664s-0.48675 0.1316-1.1055-0.045c-0.61872-0.1768-0.70703-0.4414-0.70703-0.4414l0.04492-1.9453-0.39844-0.35352 0.13281-1.1934c-1e-6 0 0.26578-0.83912 1.1055-0.79492z" fill="#fff" fill-opacity=".64314"/>
<path d="m121.53 962.42a68.147 43.134 0 0 0-68.146 43.133 68.147 43.134 0 0 0 68.146 43.133 68.147 43.134 0 0 0 68.148-43.133 68.147 43.134 0 0 0-68.148-43.133zm0.0899 0.5293a67.352 42.25 0 0 1 67.352 42.25 67.352 42.25 0 0 1-67.352 42.25 67.352 42.25 0 0 1-67.354-42.25 67.352 42.25 0 0 1 67.354-42.25z" fill="#fff"/>
<path d="m66.556 999.1c0-0.53033 9.8995-24.749 56.303-24.218 46.404 0.53033 53.563 24.749 53.563 24.749" opacity="0" stroke-width="1px"/>
<path d="m96.343 971.49-0.58165-0.13785c-0.18563-0.38667-0.83131-1.828-1.7531-1.5929-0.81578 0.24157-1.0552 0.56275-0.90566 1.2448 0.11212 0.51152 0.32074 0.95579 1.5477 1.3641 2.7454 0.80657 3.58 2.2447 3.0102 4.5026-0.3871 0.63279-1.0685 1.3049-1.8878 1.5475-2.4379 0.15203-2.8917-0.74421-3.1209-2.5371l0.84266 0.16881c5.93e-4 0.38511 0.01444 0.13263 0.07278 0.39879 0.23154 1.0563 0.86791 1.4303 1.9091 1.122 0.83367-0.24687 1.089-0.79769 0.92214-1.5587-1.2655-1.9904-3.2257-1.2172-4.5557-3.3107-0.16773-0.76519-0.20354-1.4829 0.1738-2.0907 0.38002-0.61296 0.80556-1.0511 1.5891-1.2831 1.6101-0.47679 2.4649-0.47301 2.7872 1.0394z" fill="#fff"/>
<path d="m102.62 973.83 0.80652 0.0712c0.0414 0.192 0.0728 0.35916 0.0942 0.50149 0.11197 0.7454-0.0171 1.1722-0.38718 1.7179-0.37009 0.54573-1.2192 0.80886-2.0787 0.77378-1.2641-0.81287-1.7837-0.63128-2.6836-3.8614-0.1823-1.2136-0.20202-1.6958 0.22209-2.5716 0.42354-0.87953 1.0663-1.4179 1.9282-1.6151 1.3445-0.30761 1.9804-7e-3 1.9388 0.41644l0.0263 1.6153c-0.0247-0.22683-0.43689-0.0739-0.45542-0.19753-0.48242-1.0843-0.52837-1.4253-1.2628-1.2572-0.77697 0.17776-1.282 0.4515-0.92134 2.8525 0.31002 2.0639 1.1959 4.0121 2.0639 3.8135 0.89598-0.37365 0.84117-1.0633 0.88053-1.5256-0.0253-0.16855-0.0825-0.41312-0.17143-0.73372z" fill="#fff"/>
<path d="m112.65 967.36-3.373 0.17188 0.73633 0.26562 0.38476 7.0898-0.31836 0.14063 0.0156 0.23437 2.6875-0.20312s0.34375-0.25 0-0.3125-0.82617-6e-3 -0.82617-6e-3l-0.1543-3.2832c0.65936-0.0583 0.91684 0.0594 1.1602 1.2695 0.3557 1.0214 0.54842 1.1528 0.84179 1.6973l-0.15429 0.0879 0.0391 0.375 1.9141-0.0391s0.11723-0.34375 0.0234-0.38281c-0.0937-0.0391-0.48047-0.0684-0.48047-0.0684-0.16608-0.24185-0.38336-0.65739-0.47656-1.4492-0.0784-0.66443-0.40059-1.1385-0.53125-1.3594-0.12803-0.22109-0.39613-0.41004-0.80274-0.56641 0.75707-0.33291 1.332-0.85009 1.2852-1.709-0.0305-0.56106-0.17335-1.1157-0.55078-1.4141-0.37763-0.3019-0.81927-0.59606-1.4199-0.53906zm-1.043 0.55274c0.80593-0.0669 1.3461 0.18995 1.4219 1.373-0.19316 0.58953-0.0893 1.4386-1.2891 1.459z" fill="#fff"/>
<path d="m124.71 966.77q2.7351 0.0915 2.6483 4.1423-0.0868 4.0506-2.8724 3.9573-2.7856-0.0933-2.6968-4.2358 0.0849-3.9588 2.9209-3.8638zm-0.0639 0.62369q-0.51398-0.0172-0.7128 0.68808-0.19409 0.6997-0.23712 2.7078-0.043 2.0081 0.12068 2.7255 0.16844 0.71186 0.68242 0.72907 0.51397 0.0172 0.70807-0.68249 0.19881-0.70529 0.24185-2.7134 0.0429-2.0024-0.12541-2.72-0.16372-0.71744-0.67769-0.73466z" fill="#fff"/>
<path d="m137.84 967.91q2.7752 0.46393 2.3286 4.5092-0.4466 4.0452-3.273 3.5727-2.8264-0.47249-2.3697-4.6094 0.43648-3.9536 3.3141-3.4725zm-0.12018 0.61599q-0.52152-0.0871-0.78622 0.59218-0.25939 0.6744-0.48081 2.6798-0.22139 2.0054-0.11824 2.7463 0.10844 0.73591 0.62997 0.82308 0.52152 0.0871 0.78091-0.58722 0.2647-0.67935 0.48612-2.6848 0.22077-1.9997 0.11295-2.7414-0.10315-0.74086-0.62468-0.82803z" fill="#fff"/>
<path d="m61.562 989.21-0.8125 1.6875h0.75l3.875 3.3125-3.125-0.375-1.25-1.5-0.4375-0.9375-1.8125 4.125 0.625-0.1875 4.125 0.6875 0.875 1.125-5.6875-0.8125-0.25-0.375-1.1875 2.625 0.875-0.5 8.4316 1.0137 0.17578-0.86133-0.85742-0.65234-1.3125-1.6875 3.3125 0.375 0.25-0.4375-6.375-5.75zm-1.0273 3.5586s0.89543 0.97221 1.0391 1.0938c0.14363 0.12152-1.4805-0.0879-1.4805-0.0879z" fill="#fff"/>
<path d="m71.743 1028.9 3.0975-4.34 1.93 1.3774q1.4912 1.0643 0.73099 2.1294-0.54008 0.7568-1.5919 0.3276 0.9299 0.99 0.26275 1.9248-0.82374 1.1542-2.2831 0.1126zm1.5155 0.5394 0.35928 0.2564q0.70585 0.5038 1.2822-0.3038 0.66035-0.9253-0.06776-1.4449l-0.33703-0.2406zm1.4932-2.0922 0.3879 0.2769q0.53734 0.3835 1.1046-0.4114 0.5242-0.7344-0.04494-1.1406l-0.3561-0.2542z" fill="#fff"/>
<path d="m80.67 1028.3q2.007 1.1799 0.60939 3.5573-1.3976 2.3774-3.4417 1.1758-2.0441-1.2017-0.61476-3.633 1.3659-2.3235 3.447-1.1001zm-0.25282 0.3453q-0.37716-0.2217-0.75733 0.1166-0.37483 0.337-1.0677 1.5156-0.69287 1.1787-0.80701 1.6734-0.1088 0.4934 0.26836 0.7151 0.37716 0.2218 0.75198-0.1152 0.38017-0.3384 1.073-1.517 0.69089-1.1753 0.80167-1.672 0.11414-0.4948-0.26301-0.7165z" fill="#fff"/>
<path d="m80.702 1034.6 2.371-4.7759 2.0538 1.0196q0.80123 0.3978 1.1121 0.9751 0.31259 0.5739 0.0312 1.1407-0.43077 0.8677-1.5897 0.6194 0.43105 0.4583 0.46862 0.7691 0.04107 0.3126-0.23818 1.0157-0.33302 0.8377-0.25863 1.1973l-1.5045-0.7468q0.02156-0.4036 0.26821-0.9005l0.1337-0.2869 0.17017-0.3603q0.40992-0.8257-0.25485-1.1558l-0.23792-0.1181-1.1394 2.2953zm2.7213-2.0027 0.2799 0.1389q0.78724 0.3908 1.1954-0.4314t-0.37905-1.213l-0.27991-0.139z" fill="#fff"/>
<path d="m89.522 1032.7q2.1491 0.8954 1.0884 3.4411t-3.2494 1.6338q-2.1887-0.9119-1.1041-3.5153 1.0366-2.488 3.265-1.5596zm-0.20341 0.3765q-0.40385-0.1682-0.73437 0.2188-0.32541 0.3849-0.85121 1.647-0.5258 1.262-0.57146 1.7677-0.04055 0.5036 0.3633 0.6719 0.40385 0.1682 0.72926-0.2167 0.33052-0.387 0.85632-1.6491 0.5243-1.2584 0.56635-1.7656 0.04566-0.5057-0.35819-0.674z" fill="#fff"/>
<path d="m95.931 1035.2-1.1656 3.3829q-0.59936 1.7395-2.5235 1.0765-1.9168-0.6605-1.3174-2.3999l1.1656-3.383 1.4625 0.5039-1.1809 3.4273q-0.22906 0.6648-0.12469 0.9734 0.10806 0.3099 0.62141 0.4868 0.99346 0.3423 1.4058-0.8543l1.1656-3.3829z" fill="#fff"/>
<path d="m97.953 1038.3 2.1155 0.5865-0.76914 2.7743-0.4743-0.1315-0.06377-0.3988q-0.7432 0.2683-1.4358 0.076-1.1406-0.3162-1.5841-1.1728-0.4387-0.8594-0.09431-2.1016 0.335-1.2083 1.2079-1.7689 0.87772-0.5634 1.9581-0.2639 1.4229 0.3945 1.3287 1.9331l-0.78885 0.1259 0.03444-0.1243 0.06593-0.2816q0.17999-0.9271-0.58792-1.14-0.56464-0.1565-0.90526 0.2679-0.34062 0.4245-0.70483 1.7382-0.34021 1.2271-0.29669 1.7135 0.04729 0.4874 0.51782 0.6178 0.55335 0.1534 0.7245-0.4639l0.35065-1.2648-0.74156-0.2056z" fill="#fff"/>
<path d="m102.28 1039.6-0.54495 2.5958-1.5139-0.3178 1.0955-5.2183 1.5139 0.3178-0.44062 2.0988 1.2348 0.2592 0.44062-2.0988 1.5139 0.3179-1.0955 5.2182-1.5139-0.3178 0.54495-2.5957z" fill="#fff"/>
<path d="m117.85 1040.1-0.7251 0.092q0.0589-0.2119 0.0671-0.3562 0.0525-0.9282-1.0746-0.9919-0.8892-0.05-0.92537 0.5893-0.0271 0.4797 0.94798 0.8791 1.8815 0.7676 1.8086 2.0586-0.0428 0.7566-0.607 1.1863-0.56401 0.4259-1.4571 0.3754-1.9773-0.1118-1.8906-1.6445 7e-3 -0.1248 0.0369-0.307l0.75417-0.1217q-0.10499 0.3345-0.1191 0.5841-0.056 0.9906 1.0789 1.0547 0.9087 0.051 0.94905-0.6623 0.03-0.5304-1.0354-0.9936-1.5391-0.6661-1.4674-1.9336 0.0406-0.7176 0.58787-1.1249 0.55143-0.4109 1.4055-0.3626 1.755 0.099 1.6657 1.6787z" fill="#fff"/>
<path d="m122.29 1041.8 0.65726 0.1826q0.0123 0.2034 0.01 0.3518-0.0127 0.7772-0.58271 1.2328-0.57002 0.4556-1.5152 0.4402-2.3708-0.039-2.3272-2.7064 0.0207-1.2654 0.72481-2.0392 0.7042-0.7777 1.8134-0.7595 1.7302 0.028 1.7031 1.6921l-0.66896 0.2938q0.0156-0.2342 0.0177-0.3631 0.0193-1.1795-0.92592-1.1949-0.99987-0.016-1.0408 2.4872-0.0352 2.1521 1.0819 2.1703 0.46088 0.01 0.77152-0.3546 0.31455-0.3621 0.32355-0.9128 3e-3 -0.1758-0.0423-0.5203z" fill="#fff"/>
<path d="m126.03 1038.6 1.5908 5.3013-1.5544 0.031-0.33947-1.1497-1.6052 0.032-0.31664 1.1628-0.60535 0.012 1.4711-5.3626zm-1.7666 3.6767 1.3083-0.026-0.67607-2.3502z" fill="#fff"/>
<path d="m128.23 1043.9-0.39524-5.3173 2.2867-0.17q0.89207-0.066 1.4538 0.2719 0.56148 0.3343 0.60839 0.9654 0.0718 0.966-1.0518 1.3433 0.60444 0.1745 0.79524 0.4227 0.1947 0.248 0.31291 0.9952 0.14061 0.8905 0.38798 1.1619l-1.6751 0.1245q-0.18722-0.3582-0.22834-0.9113l-0.0312-0.315-0.0373-0.3967q-0.0683-0.9194-0.80848-0.8644l-0.2649 0.02 0.18995 2.5555zm1.32-3.1103 0.31164-0.023q0.87649-0.065 0.80845-0.9806-0.068-0.9155-0.94454-0.8503l-0.31164 0.023z" fill="#fff"/>
<path d="m133.47 1043.5-0.70517-5.2852 2.3503-0.3136q1.8159-0.2423 1.989 1.0548 0.12295 0.9216-0.9382 1.3272 1.3555 0.087 1.5074 1.2254 0.18753 1.4056-1.5897 1.6427zm1.4749-0.6421 0.43753-0.058q0.85957-0.1147 0.72835-1.0981-0.15033-1.1268-1.037-1.0085l-0.41042 0.055zm-0.33993-2.5477 0.47238-0.063q0.65436-0.087 0.5252-1.0553-0.11934-0.8944-0.81241-0.8019l-0.43366 0.058z" fill="#fff"/>
<path d="m139.75 1037q2.2853-0.4445 2.8119 2.2625 0.5266 2.7071-1.8009 3.1598-2.3275 0.4528-2.866-2.3156-0.51467-2.6457 1.855-3.1067zm0.0391 0.4262q-0.42945 0.083-0.49034 0.5888-0.0578 0.5007 0.20327 1.8427 0.26106 1.3421 0.50309 1.7884 0.24512 0.4418 0.67457 0.3583 0.42945-0.083 0.48725-0.5843 0.0609-0.5053-0.20018-1.8473-0.26031-1.3382-0.50618-1.7838-0.24203-0.4464-0.67148-0.3628z" fill="#fff"/>
<path d="m143.92 1041.7-1.3307-5.1633 2.2204-0.5722q0.86623-0.2233 1.479 0.01 0.61181 0.2296 0.76973 0.8424 0.24177 0.9381-0.79722 1.5084 0.62578 0.065 0.85753 0.2751 0.23553 0.2096 0.4842 0.9241 0.29609 0.8514 0.58763 1.0748l-1.6265 0.4192q-0.2477-0.3194-0.38613-0.8565l-0.0865-0.3045-0.107-0.3838q-0.23007-0.8927-0.94878-0.7075l-0.25722 0.066 0.63951 2.4814zm0.74827-3.2949 0.30261-0.078q0.85109-0.2193 0.622-1.1082t-1.0802-0.6696l-0.30261 0.078z" fill="#fff"/>
<path d="m149.4 1034.5q2.2149-0.7173 3.0646 1.9063 0.84969 2.6237-1.4061 3.3542-2.2558 0.7306-3.1247-1.9526-0.83043-2.5642 1.4662-3.3079zm0.0903 0.4183q-0.41621 0.1348-0.41563 0.6437 3e-3 0.5041 0.42434 1.8047 0.42123 1.3007 0.7154 1.7146 0.29668 0.4089 0.71289 0.2742 0.41622-0.1348 0.41312-0.6389-5.9e-4 -0.5089-0.42182-1.8096-0.42002-1.297-0.71791-1.7096-0.29417-0.4139-0.71039-0.2791z" fill="#fff"/>
<path d="m155.88 1032.2 1.3097 3.3297q0.67346 1.7122-1.2204 2.4572-1.8866 0.7421-2.5601-0.9701l-1.3097-3.3298 1.4395-0.5662 1.3269 3.3734q0.25737 0.6543 0.53714 0.8213 0.2834 0.1656 0.78868-0.033 0.97786-0.3846 0.51458-1.5624l-1.3097-3.3298z" fill="#fff"/>
<path d="m159.44 1033.3 1.9863-0.9348 1.2259 2.6048-0.44533 0.2096-0.30834-0.2607q-0.38856 0.688-1.0389 0.9941-1.0709 0.504-1.9658 0.1437-0.89299-0.3655-1.4419-1.5318-0.53396-1.1346-0.23773-2.1288 0.29811-0.9994 1.3125-1.4768 1.336-0.6288 2.2679 0.5991l-0.51601 0.6098-0.0549-0.1166-0.1337-0.2566q-0.46803-0.8202-1.189-0.4808-0.53015 0.2495-0.51163 0.7934 0.0185 0.5439 0.59906 1.7774 0.54227 1.1522 0.8924 1.4925 0.35367 0.3387 0.79546 0.1307 0.51956-0.2445 0.24676-0.8241l-0.55891-1.1876-0.69627 0.3277z" fill="#fff"/>
<path d="m163.52 1031.5 1.3294 2.2952-1.3386 0.7753-2.6725-4.614 1.3386-0.7753 1.0749 1.8557 1.0918-0.6324-1.0749-1.8557 1.3386-0.7753 2.6725 4.614-1.3386 0.7753-1.3294-2.2952z" fill="#fff"/>
<g transform="matrix(.96984 .13817 -.13753 1.0115 0 0)" fill="#fff" stroke-width="1.0739" aria-label="of">
<path d="m250.64 994.59q0-0.82638 0.58728-1.443 0.58728-0.62084 1.3088-0.62084 0.57889 0 0.8935 0.41529 0.31881 0.41529 0.31881 0.99418 0 0.8096-0.59986 1.4556-0.59567 0.64181-1.2878 0.64181-0.55372 0-0.88931-0.4069-0.33139-0.4069-0.33139-1.0361zm2.3365-1.3507q0-0.23071-0.12584-0.37753-0.12165-0.14682-0.34818-0.14682-0.33978 0-0.49079 0.27686-0.14682 0.27686-0.37334 1.1242-0.22653 0.84316-0.22653 1.2291 0 0.2433 0.13424 0.37334 0.13843 0.12584 0.323 0.12584 0.52436 0 0.8138-1.141 0.29364-1.1452 0.29364-1.464z"/>
<path d="m254.81 995.58 0.17199-1.313 0.21394-1.2039q4e-3 -0.0168 0.021-0.10907 0.0168-0.0965 0.021-0.10487h-0.77185l0.0419-0.21394h0.78024q0.25169-1.2291 0.78024-1.829 0.53274-0.60406 1.1116-0.60406 0.33559 0 0.5747 0.18877 0.2391 0.18877 0.2391 0.45724 0 0.16779-0.10906 0.28944-0.10487 0.12165-0.26008 0.12165-0.15102 0-0.26428-0.10906-0.11326-0.11327-0.11326-0.26008 0-0.14682 0.12165-0.26847 0.12165-0.12166 0.12165-0.13424 0-0.0881-0.25169-0.0881-0.5663 0-0.80961 0.61245-0.2391 0.61244-0.34817 1.6234h0.60826l-0.0419 0.21394h-0.59148l-0.30622 1.8206q-0.15101 0.88931-0.30622 1.4472-0.15521 0.55792-0.37335 0.98579-0.21393 0.42788-0.43626 0.64601-0.21813 0.22233-0.48241 0.3272-0.26008 0.10906-0.47821 0.10906-0.30622 0-0.52016-0.17199-0.21813-0.16779-0.21813-0.4069 0-0.1594 0.0965-0.27686 0.0965-0.11745 0.28944-0.11745 0.35237 0 0.35237 0.39431 0 0.10068-0.0461 0.17619-0.0461 0.0755-0.0461 0.12584 0 0.0755 0.11746 0.0755 0.33559 0 0.60825-0.33559 0.27267-0.33139 0.50338-2.0681z"/>
</g>
<path d="m63.156 989.24c0.25-0.0625 1.1875-0.0937 1.1875-0.0937l4.5312 4.1562-0.0625 0.6875 0.34375 0.3125s1.9688-1.9688 1.8125-2.0938-0.40625-0.21875-0.40625-0.21875-0.28125 0.15625-0.4375 0.0937c-0.15625-0.0625-2.4062-1.9375-2.4062-1.9375l1.1562-1.375 2.25 1.9375 0.125 0.90625 1.8438-1.7812s-0.84375-0.0937-1-0.15625c-0.15625-0.0625-4.6875-4.1875-4.6875-4.1875v-0.84375l-1.8438 1.9062 1.0938 0.21875 1.625 1.5625s-1.0938 1.4688-1.125 1.3438-1.9688-1.75-1.9688-1.75l-0.03125-0.75z" fill="#fff"/>
<path d="m68.531 983.56c0.46875-0.46875 2.25-1.875 2.25-1.875l-0.03125 0.875 4.0625 4.875 1.0625 0.125-2.2812 1.8125-0.0625-0.84375-4.125-4.8438z" fill="#fff"/>
<path d="m71.625 980.71 0.875 2s0.5625 0.0937 0.375-0.21875c-0.1875-0.3125-0.25-1.5-0.25-1.5l0.65625-0.34375 3.625 5.2188-0.125 1s2.7812-1.5938 2.625-1.6562-1.0625-0.25-1.0625-0.25l-3.6875-5.2812 0.75-0.46875s0.21875-0.0625 0.59375 0.3125 0.6875 0.71875 0.6875 0.71875l0.3125-0.375-1.0625-1.9375s-0.5625 0.65625-0.71875 0.6875c-0.15625 0.0312-2.9375 1.8438-2.9375 1.8438z" fill="#fff"/>
<path d="m80.098 975.99c-0.16504-4.9e-4 -0.32422 0.0176-0.47266 0.0332-0.59375 0.0625-2.7812 1.5938-2.7812 1.5938l0.125 0.46875 0.71875-0.0937 2.2812 4.4375 0.71875-0.40625h0.59375l-0.96875-1.875s1.4375-0.6875 2.1562 0.84375-0.03125 1.8438-0.03125 1.8438l0.1875 0.4375s1.2812-0.25 1.375-1.5312-0.34375-1.8438-1-2.3438-1.875-0.125-1.6875-0.28125 0.75-0.9375 0.21875-2.0938c-0.39844-0.86719-0.93848-1.0317-1.4336-1.0332zm-0.44922 0.92187c0.05853 6e-3 0.11328 0.0215 0.16406 0.0488 0.40625 0.21875 0.65625 0.28125 0.84375 1.3125s-0.65625 1.2188-0.65625 1.2188-1.25-2.0625-1.3125-2.2188c0 0 0.55121-0.40619 0.96094-0.36133z" fill="#fff"/>
<path d="m81.656 975.09 0.125 0.25 0.53125 0.0312 3.1875 2.9688s1.1562 2.375 0.96875 2.375-0.5 0.6875-0.5 0.6875v0.1875l3.0312-1.1874s-1.0312 0.1875-1.1562-0.28125-1.125-2.6562-1.125-2.8125-0.0625-3.7188-0.0625-3.7188 0.65625-0.8125 0.46875-0.84375c-0.1875-0.0312-2.0312 0.875-2.0312 0.875l0.96875 0.375s0.1875 3.125 0.0625 2.8438-2.25-2.1875-2.25-2.1875 0.625-0.8125 0.5-0.8125-2.7188 1.25-2.7188 1.25z" fill="#fff"/>
<ellipse cx="90.141" cy="976.28" rx=".60938" ry=".5625" opacity="0" stroke-width="1.0016"/>
<ellipse cx="90.594" cy="977.51" rx="1.125" ry="1.7969" opacity="0" stroke-width="1.0016"/>
<path d="m106.21 967.78c-0.22632 9e-3 -0.69141 0.10546-0.69141 0.10546l-0.85937 7.6562-0.34375 0.23438s0.0469 0.34375 0.0469 0.40625 1.7969-0.32815 1.875-0.34375c0.0781-0.0156-0.14063-0.375-0.14063-0.375l-0.90625-0.17188 0.15625-1.7656 1.5781-0.15625 0.54687 1.7344s-0.4375 0.2031-0.5 0.25-0.0156 0.375-0.0156 0.4375 2.7656-0.45312 2.7656-0.45312l0.0156-0.32813-0.51563-0.0937s-2.9062-7.0157-2.8906-7.1094c4e-3 -0.0235-0.0456-0.0303-0.12109-0.0273zm-0.37891 2.7773 0.9375 1.9844-1.1719 0.0937c0.0937-0.20312 0.23438-2.0781 0.23437-2.0781z" fill="#fff"/>
<path d="m118.53 966.92c-0.51099 0-0.95313 0.0488-0.95313 0.0488l-1.7676 0.11132 0.0664 0.55274 0.68555 0.19726 0.13281 6.2988-0.61914 0.1543 0.0215 0.4414h3.248s0.86263 0.1335 1.2383-0.5957c0.37565-0.72921 0.46388-1.4817 0.28711-2.2109-0.17678-0.7292-0.17646-0.68404-0.57421-0.94921-0.39776-0.26516-0.90626-0.55274-0.90626-0.55274s0.83908-0.0665 1.1484-1.2598c0.30936-1.1932-0.0882-1.5906-0.64062-1.9883-0.27621-0.19887-0.8562-0.24804-1.3672-0.24804zm-0.79883 0.38086s1.2816 0.0214 1.4805 0.375c0.19888 0.35355 0.37737 1.6584-0.13086 2.1445-0.50823 0.48613-1.3047 0.375-1.3047 0.375zm0.70703 3.4258c0.28726 0.0221 0.70884 0.24214 0.9961 0.5957 0.28727 0.35355 0.26428 1.3919 0.24218 1.7676-0.0221 0.37566-0.13323 0.81748-0.75195 1.0606-0.61872 0.24306-1.1484-0.375-1.1484-0.375l-0.0449-2.873s0.41976-0.19788 0.70703-0.17578z" fill="#fff"/>
<path d="m128.44 967.07 0.60938 0.51563-0.375 6.5312-0.8125 0.35937-0.0313 0.32813s2.875 0.39062 2.8438 0.32812c-0.0312-0.0625 0.15624-0.42187 0-0.48437-0.15626-0.0625-0.65626-0.35938-0.6875-0.42188-0.0312-0.0625 0.10937-2.75 0.10937-2.75s1-0.23437 1.1406 0.51563c0.14062 0.75 0.26562 2.3125 0.3125 2.7344 0.0469 0.42188 0.17187 0.42188 0.17187 0.42188l2.0469 0.21875-0.0312-0.25s-0.40626-0.125-0.6875-0.5c-0.28126-0.375-0.0156-1.9844-0.5-2.6094-0.48438-0.62499-1.2969-0.59376-1.125-0.625 0.17187-0.0312 1.1562 0.14062 1.5312-0.5625 0.375-0.70313 0.53125-1.6562 0.26563-2.375-0.26563-0.71875-0.5625-1.0469-1.4688-1.2188-0.90625-0.17188-3.3125-0.15625-3.3125-0.15625zm2 0.70313s1.0938-0.10937 1.2656 0.40625c0.17188 0.51563 0.21876 1.9219-0.15624 2.2656s-1.3125 0.23438-1.3125 0.23438 0.20312-2.6875 0.20312-2.9062z" fill="#fff"/>
<path d="m141.89 968.9c0.82813 0.15625 0.9375 0.17188 1.2969 0.26563 0.35937 0.0937 1.4219 0.23437 1.4219 0.23437s-0.6875 0.26563-0.6875 0.32813-1.3594 5.4062-1.3594 5.4062-0.3125 1.0156 0.45312 1.3906c0.76563 0.375 1.0625 0.125 1.3125-0.17188 0.25-0.29687 0.4375-0.46875 0.60938-1.2188 0.17187-0.75 1.1875-4.7656 1.1094-4.8437-0.0781-0.0781-0.60937-0.71875-0.60937-0.71875l2.0938 0.45312-0.92188 0.46875-1.2656 5.2812s-0.42188 1.6406-1.9062 1.5469c-1.4844-0.0937-1.6094-0.4375-1.9688-0.90625-0.35938-0.46875-0.4375-0.9375-0.23438-1.8594 0.20313-0.92188 1.125-5.0781 1.125-5.0781z" fill="#fff"/>
<path d="m152.14 973.65c-0.11048-0.39774 0.50824-1.9224 0.37565-1.9887-0.13258-0.0663-0.68501-0.26516-0.68501-0.26516s-0.46403-0.59662-1.149-0.61872-2.6958 0.0442-3.6681 2.961c-0.97227 2.9168 0.17678 4.1984 0.7513 4.552s2.055 0.59662 2.6075 0.44194c0.55242-0.15468 0.53033-0.35355 0.53033-0.35355l0.59662-2.2097s0.95017-0.30936 0.7734-0.33146c-0.17678-0.0221-2.7621-1.0386-2.7621-1.0386l0.39775 0.95018-0.53033 1.9887s-0.0884 0.64082-0.7513 0.37565c-0.66292-0.26516-0.68501-1.5026-0.0663-3.6018 0.61871-2.0992 1.5026-3.4913 2.3202-3.1378 0.81759 0.35356 0.61872 2.2981 0.61872 2.2981z" fill="#fff"/>
<path d="m154.13 971.97c0.19887-0.0221 2.7179 1.1932 2.7179 1.1932l-0.88388 0.28726-0.90598 2.4086 1.5689 0.68501 1.0386-2.4086-0.28726-0.7513 2.5191 1.1048-0.7513 0.26517-2.4086 6.0104 0.46404 0.95018-2.7842-1.2153s0.8176-0.19887 0.83969-0.28726c0.0221-0.0884 1.3479-2.8726 1.149-2.9168s-1.6131-0.70711-1.6131-0.70711l-1.2595 3.0052s0.64082 0.7292 0.53033 0.70711c-0.11049-0.0221-2.5854-1.0607-2.5854-1.0607l0.7955-0.19887 2.2981-6.0767-0.46404-1.0828z" fill="#fff"/>
<path d="m159.98 979.5c8e-3 0.37376 0.37876 0.58197 0.66291 0.57452 0.28415-7e-3 0.55242-0.0221 0.59662-0.57452 0.0442-0.55243-0.19887-0.7513-0.59662-0.7292s-0.67396 0.24306-0.66291 0.7292z" fill="#fff"/>
<path d="m89.377 976.41c8e-3 0.37376 0.37876 0.58197 0.66291 0.57452 0.28415-7e-3 0.55242-0.0221 0.59662-0.57452 0.0442-0.55243-0.19887-0.7513-0.59662-0.7292s-0.67396 0.24306-0.66291 0.7292z" fill="#fff"/>
<path d="m165.75 975.99c0.40625 0.25 5 3.1562 5 3.1562l-1.5 2.0312s0.0625-1.75-0.15625-2.1562-0.96875-0.71875-0.96875-0.71875l-1.8438 2.625s0.71875 0.78125 1.1875 0.53125 0.84375-0.8125 0.84375-0.8125l0.21875 0.625-1.9375 2.5938s0.34375-1.7812 0.0625-1.9688-0.625-0.34375-0.625-0.34375l-1.8438 2.7188 0.4375 1.375-3.6875-2.2812 1.3125-0.0312 4-6.2188z" fill="#fff"/>
<path d="m171.06 980.81c0.125 0.0312 2.4375 2 2.4375 2l-1.125-0.0625-3.9062 5.0938 0.1875 0.96875-2.4062-1.7812s0.78125 0.1875 0.9375-0.0937c0.15625-0.28125 4.0312-5.2188 4.0312-5.2188l-0.28125-0.875z" fill="#fff"/>
<path d="m174.59 983.49c0.28125 0.375 2 2.2188 2 2.2188l-1.1875 0.0937-4.5 4.25s0.0937 0.53125 0.375 0.6875c0.28125 0.15625 2.375-0.53125 2.375-0.53125s-1.3438 2-1.5312 1.8438-2.9375-2.875-2.9375-2.875l0.84375-0.15625 4.5625-4.6562z" fill="#fff"/>
<path d="m178.53 987.74 2.6875 3.8438-1.9062 1.0312s0.625-0.90625 0.5625-1.5312-0.4375-0.96875-0.4375-0.96875l-2.2812 1.5s0.1875 0.59375 0.78125 0.625c0.59375 0.0312 0.96875-0.21875 0.96875-0.21875l-2.3125 1.7188s0.59375-0.6875 0.5-1.125-0.34375-0.71875-0.34375-0.71875l-2.7188 1.9375s0.4375 1.25 1.1875 1.125 1.8125-0.3125 1.8125-0.3125-2.125 1.7812-2.125 1.4375-2.4688-3.5938-2.4688-3.5938l0.3125-0.34375s0.15625 0.28125 0.34375 0.3125c0.1875 0.0312 5.3438-3.6562 5.3438-3.6562z" fill="#fff"/>
<path d="m181.94 992.43 1.3125 3.0625s-0.40625-0.28125-0.875-0.28125-2.7812 1.8125-2.4688 1.8125 3.0938 0.375 3.1562 0.15625 0.34375-0.96875 0.34375-0.96875 0.78125 1.8438 0.625 1.8438-0.15625-0.15625-0.96875-0.34375-3.4062-0.0625-3.4062-0.0625l-2.9062 1.1875-0.32686 0.79466-1.1731-2.7947 0.8125 0.40625 3.0625-1.3438 2.5938-2.625z" fill="#fff"/>
</g>
</g>
</svg>
