<?xml version="1.0" encoding="UTF-8" standalone="no"?>
<svg
   xmlns:dc="http://purl.org/dc/elements/1.1/"
   xmlns:cc="http://creativecommons.org/ns#"
   xmlns:rdf="http://www.w3.org/1999/02/22-rdf-syntax-ns#"
   xmlns:svg="http://www.w3.org/2000/svg"
   xmlns="http://www.w3.org/2000/svg"
   xmlns:sodipodi="http://sodipodi.sourceforge.net/DTD/sodipodi-0.dtd"
   xmlns:inkscape="http://www.inkscape.org/namespaces/inkscape"
   width="250"
   height="90"
   viewBox="0 0 66.145832 23.812501"
   version="1.1"
   id="svg8"
   inkscape:version="1.0.2 (e86c870879, 2021-01-15, custom)"
   sodipodi:docname="scope-inclusive-activity.svg">
  <defs
     id="defs2" />
  <sodipodi:namedview
     id="base"
     pagecolor="#ffffff"
     bordercolor="#666666"
     borderopacity="1.0"
     inkscape:pageopacity="0.0"
     inkscape:pageshadow="2"
     inkscape:zoom="2.8"
     inkscape:cx="142.16252"
     inkscape:cy="107.57509"
     inkscape:document-units="mm"
     inkscape:current-layer="layer1"
     inkscape:document-rotation="0"
     showgrid="false"
     units="px"
     inkscape:window-width="1920"
     inkscape:window-height="1017"
     inkscape:window-x="-8"
     inkscape:window-y="-8"
     inkscape:window-maximized="1" />
  <metadata
     id="metadata5">
    <rdf:RDF>
      <cc:Work
         rdf:about="">
        <dc:format>image/svg+xml</dc:format>
        <dc:type
           rdf:resource="http://purl.org/dc/dcmitype/StillImage" />
        <dc:title></dc:title>
      </cc:Work>
    </rdf:RDF>
  </metadata>
  <g
     inkscape:label="Layer 1"
     inkscape:groupmode="layer"
     id="layer1">
    <path
       style="fill:#000000;stroke-width:0.0498591"
       d="m 27.591448,19.506348 -0.01293,-2.399062 -0.673093,-0.234072 C 26.117892,16.599344 25.330143,16.262733 24.649298,15.90914 L 24.163172,15.656681 V 9.9064812 4.1562823 l 0.651675,-0.3265512 c 2.395607,-1.2004439 4.700339,-1.768582 7.172398,-1.7680715 2.512493,5.105e-4 4.856891,0.5793379 7.233375,1.7858765 l 0.57338,0.2911088 0.03683,1.2175469 c 0.02026,0.6696468 0.03147,3.2592734 0.02493,5.7547212 l -0.0119,4.537176 -0.767123,0.38204 c -0.824694,0.410709 -1.263491,0.595842 -2.124705,0.896428 l -0.54845,0.191427 -0.01295,2.393709 c -0.0071,1.316542 -0.02219,2.393716 -0.03351,2.393716 -0.0113,0 -0.970256,-0.618904 -2.130998,-1.375342 -1.858053,-1.210862 -2.128955,-1.372367 -2.265263,-1.350502 -0.08862,0.0142 -1.04261,0.60236 -2.230877,1.375343 -1.141833,0.742772 -2.087201,1.350501 -2.100826,1.350501 -0.01364,0 -0.03055,-1.079575 -0.03774,-2.399061 z m 6.21375,-2.760855 c 1.568805,-0.207764 3.295524,-0.734709 4.679984,-1.428191 L 38.971308,15.0738 v -1.811171 c 0,-0.996151 -0.01492,-3.3309318 -0.03315,-5.188403 L 38.905002,4.696995 38.563714,4.5251201 C 37.240294,3.8586562 35.460068,3.303784 33.910609,3.074801 33.15838,2.9636319 30.973298,2.9495922 30.245965,3.0512685 28.647323,3.2747155 27.1146,3.735984 25.573557,4.4574024 L 25.06062,4.6975215 V 9.9032502 15.10898 l 0.535983,0.254342 c 1.775459,0.842519 3.568637,1.321855 5.521896,1.47607 0.495877,0.03916 2.107383,-0.01715 2.686698,-0.09389 z m -7.99539,-2.727679 c 7.09e-4,-0.03573 0.177514,-0.580973 0.392888,-1.211691 l 0.391597,-1.146759 h 0.311689 0.311683 l 0.39024,1.146759 c 0.214632,0.630718 0.391174,1.175977 0.392323,1.211691 0.0015,0.04722 -0.0694,0.06078 -0.259679,0.04986 l -0.261762,-0.01508 -0.07115,-0.236832 -0.07115,-0.236824 H 26.90534 26.474185 l -0.07115,0.236824 -0.07108,0.236832 -0.26176,0.01508 c -0.189968,0.01096 -0.261403,-0.0024 -0.260462,-0.04986 z M 27.06152,12.681583 C 26.9894,12.434835 26.919121,12.23295 26.905408,12.23295 c -0.01373,0 -0.08397,0.201885 -0.156111,0.448633 l -0.131193,0.448625 h 0.287304 0.287296 z m 1.664322,1.336127 c -0.06972,-0.195176 -0.623819,-2.250208 -0.623819,-2.31345 0,-0.05919 0.05513,-0.07187 0.260597,-0.05998 l 0.260604,0.01508 0.134454,0.57338 c 0.07395,0.315359 0.164225,0.716488 0.200602,0.891386 l 0.06614,0.318016 0.224366,-0.766744 0.224366,-0.766745 0.262,-0.01508 c 0.308797,-0.01779 0.274079,-0.07451 0.552049,0.902458 0.136722,0.480534 0.189875,0.609796 0.215279,0.523523 0.01855,-0.06302 0.105491,-0.451114 0.193195,-0.862454 0.0877,-0.41134 0.17625,-0.765995 0.19677,-0.788131 0.02052,-0.02209 0.150036,-0.03334 0.28781,-0.02488 l 0.250498,0.01532 -0.330633,1.196615 -0.330632,1.196623 -0.253723,0.01475 c -0.163265,0.0095 -0.272688,-0.0082 -0.306913,-0.04986 -0.06517,-0.07921 -0.411616,-1.211541 -0.411616,-1.345316 0,-0.132979 -0.09905,-0.06095 -0.102502,0.07451 -0.0016,0.06006 -0.08764,0.378481 -0.191338,0.707554 l -0.188555,0.598307 -0.282924,0.015 c -0.198125,0.01041 -0.289862,-0.0048 -0.306071,-0.04986 z m 2.765706,0.02505 c -4.89e-4,-0.02202 0.182122,-0.573858 0.405809,-1.226354 l 0.406703,-1.186348 0.302597,0.01468 0.302598,0.01468 0.385756,1.12183 c 0.212166,0.617006 0.386988,1.162265 0.388494,1.211692 0.0023,0.0773 -0.03362,0.08775 -0.256782,0.07474 l -0.259519,-0.01508 -0.07388,-0.238635 -0.07388,-0.238636 -0.420418,0.01428 -0.420415,0.01428 -0.08251,0.224363 c -0.08209,0.223232 -0.08383,0.224444 -0.343086,0.239433 -0.143319,0.0083 -0.260982,-0.0032 -0.261474,-0.02488 z m 1.377625,-0.990694 c -0.01649,-0.04299 -0.07868,-0.245719 -0.138181,-0.450507 -0.0595,-0.204789 -0.124758,-0.354719 -0.14501,-0.333173 -0.03392,0.03605 -0.245935,0.749585 -0.245935,0.827626 0,0.01883 0.125803,0.03423 0.279561,0.03423 0.233375,0 0.274605,-0.01293 0.249565,-0.07817 z m 1.166085,-0.198463 v -1.229401 l 0.610773,0.01763 c 0.695243,0.02002 0.907421,0.103011 1.054198,0.412321 0.167093,0.352118 0.0591,0.857978 -0.21667,1.01492 -0.08323,0.04739 -0.151476,0.103963 -0.15165,0.125768 -1.5e-4,0.02177 0.111868,0.205897 0.24898,0.40909 0.137113,0.203185 0.249296,0.392881 0.249296,0.421551 0,0.02991 -0.116148,0.05209 -0.272252,0.05209 H 35.28568 l -0.258979,-0.4238 c -0.204311,-0.334345 -0.283235,-0.423808 -0.373898,-0.423808 -0.109531,0 -0.115602,0.01931 -0.129403,0.41134 l -0.01448,0.41134 -0.236831,0.01515 -0.236831,0.01515 z m 1.105438,-0.154908 c 0.112694,-0.101992 0.120017,-0.380117 0.01283,-0.487306 -0.05199,-0.05201 -0.169434,-0.07834 -0.349013,-0.07834 H 34.53385 v 0.324078 0.324087 h 0.257833 c 0.169951,0 0.288914,-0.02816 0.349014,-0.08251 z m 1.11311,1.321569 c -0.01467,-0.03821 -0.02063,-0.585081 -0.01325,-1.215202 l 0.01344,-1.145681 h 0.623239 c 0.686207,0 0.85276,0.05313 1.066759,0.340208 0.09525,0.127786 0.104925,0.206751 0.104925,0.856415 0,0.813706 -0.03652,0.913133 -0.40209,1.094564 -0.257011,0.127554 -1.349836,0.182229 -1.39302,0.06973 z M 37.3417,13.521631 c 0.170059,-0.08951 0.182118,-0.134208 0.182931,-0.678095 9.58e-4,-0.634843 -0.0494,-0.71049 -0.472899,-0.71049 h -0.274225 v 0.722958 0.72295 h 0.227645 c 0.125204,0 0.276651,-0.02577 0.336548,-0.05735 z M 25.861292,10.475227 c 0.0016,-0.0343 0.153057,-0.4886138 0.336547,-1.0096478 l 0.333626,-0.947322 h 0.249293 0.249292 l 0.332966,0.972251 c 0.18313,0.5347458 0.334576,0.9890828 0.336546,1.0096468 0.0015,0.02058 -0.09648,0.03741 -0.218772,0.03741 -0.216228,0 -0.224014,-0.0055 -0.282119,-0.199436 l -0.05975,-0.199436 h -0.365096 c -0.357112,0 -0.365823,0.0032 -0.397859,0.137111 -0.05025,0.210253 -0.114033,0.261761 -0.324262,0.261761 -0.122983,0 -0.192264,-0.02266 -0.190405,-0.0623 z m 1.125084,-0.8226718 c -0.01403,-0.04802 -0.06198,-0.216268 -0.106619,-0.373943 -0.04459,-0.157684 -0.08982,-0.28669 -0.100432,-0.28669 -0.01915,0 -0.222936,0.654443 -0.222936,0.715866 0,0.01763 0.102479,0.03199 0.227723,0.03199 0.193349,0 0.223885,-0.01316 0.20226,-0.08726 z m 1.230254,0.7873008 c -0.256671,-0.156503 -0.314042,-0.325378 -0.314042,-0.9244118 0,-0.599041 0.05736,-0.767917 0.314042,-0.924412 0.199604,-0.1217067 0.718184,-0.1337042 0.934912,-0.02162 0.172514,0.08921 0.172623,0.0897 0.06098,0.278704 -0.05904,0.09995 -0.109995,0.134973 -0.162042,0.111393 -0.04176,-0.01891 -0.172514,-0.04411 -0.290565,-0.05608 -0.347586,-0.0351 -0.408587,0.05624 -0.408587,0.612036 0,0.38058 0.01547,0.472181 0.09118,0.5407208 0.106852,0.09671 0.396865,0.107892 0.58419,0.02257 0.117529,-0.05352 0.14168,-0.0469 0.225604,0.0623 0.05169,0.06725 0.09449,0.151486 0.0951,0.18716 0.0034,0.202498 -0.844461,0.286226 -1.13076,0.111663 z m 1.865513,0.06685 c -0.01958,-0.01963 -0.03561,-0.390864 -0.03561,-0.8250498 v -0.789441 h -0.274225 -0.274226 v -0.199436 -0.199436 h 0.772816 0.772817 v 0.199436 0.199436 h -0.27299 -0.27299 l -0.01369,0.810211 -0.01369,0.8102118 -0.176288,0.01483 c -0.09696,0.0082 -0.192315,-7.97e-4 -0.211902,-0.02074 z m 1.260724,-0.9912448 v -1.022116 h 0.199436 0.199436 v 1.022116 1.0221078 h -0.199436 -0.199436 z m 1.361953,0.9621828 c -0.06172,-0.07945 -0.663927,-1.8150638 -0.663927,-1.9135418 0,-0.078654 0.372644,-0.1036703 0.419327,-0.02816 0.01449,0.02345 0.117387,0.331944 0.228667,0.685569 0.111282,0.353617 0.215329,0.676595 0.231218,0.717733 0.0159,0.04117 0.13936,-0.267369 0.274382,-0.685561 l 0.245494,-0.760355 h 0.222849 c 0.122568,0 0.22157,0.01683 0.220006,0.03741 -0.0015,0.02058 -0.153527,0.47491 -0.337692,1.009647 l -0.334845,0.9722508 -0.227592,0.01483 c -0.143272,0.0093 -0.246225,-0.0091 -0.277887,-0.04986 z m 1.453544,-7.98e-4 c -0.01411,-0.03677 -0.01955,-0.4924978 -0.01207,-1.0126768 l 0.0136,-0.945792 h 0.199437 0.199437 v 0.99718 0.9971868 l -0.187373,0.01548 c -0.122472,0.01018 -0.196264,-0.008 -0.213041,-0.05137 z m 1.272948,-0.7618538 v -0.822671 h -0.302164 -0.302165 l 0.01548,-0.186976 0.01547,-0.186968 h 0.772816 0.772816 l 0.01532,0.184399 0.01532,0.184399 -0.289546,0.015 -0.289546,0.01508 -0.01369,0.81021 -0.01369,0.8102118 h -0.198208 -0.198202 z m 1.730821,0.7918088 c -0.01958,-0.01963 -0.03561,-0.189273 -0.03561,-0.377078 0,-0.3178078 -0.02073,-0.3828298 -0.299155,-0.9382438 -0.164535,-0.328235 -0.299155,-0.619559 -0.299155,-0.647407 0,-0.072912 0.385287,-0.062541 0.433326,0.01173 0.02218,0.0343 0.108711,0.215765 0.19229,0.403314 0.08357,0.187542 0.171023,0.340447 0.194329,0.339785 0.02331,-6.54e-4 0.109132,-0.154101 0.190733,-0.340989 0.08159,-0.18688 0.17078,-0.367833 0.198184,-0.40211 0.05944,-0.074347 0.436488,-0.084398 0.436488,-0.01165 0,0.02792 -0.128546,0.302732 -0.285661,0.610776 -0.259515,0.508821 -0.288037,0.596593 -0.311619,0.9589618 l -0.02596,0.39887 -0.176288,0.01483 c -0.09696,0.0082 -0.192315,-7.97e-4 -0.211902,-0.02074 z M 26.456672,6.4523829 V 5.6514807 h 0.175775 0.175776 l -0.01371,0.785283 -0.01373,0.7852751 -0.162039,0.015635 -0.162039,0.015635 z m 0.698029,-0.00319 V 5.6514487 h 0.191267 0.191267 l 0.26993,0.5110538 0.26993,0.5110539 0.0142,-0.5110539 0.0142,-0.5110538 h 0.14784 0.147832 V 6.4491921 7.2469354 H 28.2306 c -0.162056,0 -0.183091,-0.021778 -0.421638,-0.4362604 -0.138092,-0.2399516 -0.269794,-0.4675068 -0.29268,-0.5056932 -0.02321,-0.038769 -0.03263,0.1538227 -0.0213,0.4362684 l 0.02035,0.5056852 h -0.180307 -0.180306 z m 1.850275,0.728167 C 28.807399,7.0678523 28.753865,6.90823 28.751959,6.4228944 c -0.0016,-0.3294469 0.01906,-0.4798793 0.07605,-0.5611979 0.173937,-0.2483276 0.559346,-0.3285375 0.898249,-0.1869357 0.173008,0.072272 0.174123,0.074666 0.09266,0.199013 -0.06697,0.1022028 -0.107195,0.1192817 -0.214111,0.090891 -0.184028,-0.0489 -0.345306,-0.035179 -0.431891,0.036695 -0.115717,0.096036 -0.10238,0.7554487 0.01747,0.8639135 0.104528,0.0946 0.243016,0.1046358 0.435254,0.03151 0.10911,-0.041481 0.146527,-0.034541 0.201096,0.037413 0.03688,0.048581 0.06776,0.1128123 0.06863,0.1426866 0.0045,0.1566226 -0.654827,0.2310252 -0.89039,0.1004638 z M 30.146248,6.4491921 V 5.6514487 h 0.174507 0.174506 v 0.6481645 0.6481724 h 0.324084 0.324085 v 0.1495789 0.1495709 h -0.498592 -0.49859 z M 31.59765,7.177359 C 31.386214,7.0601672 31.346526,6.916627 31.344633,6.2622245 l -0.0018,-0.6107758 h 0.174508 0.174506 v 0.5965526 c 0,0.5387663 0.0093,0.6015542 0.09644,0.6481724 0.153447,0.082116 0.290596,0.060467 0.374393,-0.05919 0.05859,-0.083656 0.07762,-0.2425203 0.07762,-0.6481725 V 5.6514567 h 0.174506 0.174507 v 0.5500539 c 0,0.5995041 -0.06039,0.8277373 -0.255123,0.96413 -0.141171,0.098884 -0.567094,0.1056653 -0.736571,0.011727 z m 1.465355,-0.00558 c -0.22368,-0.1202282 -0.236897,-0.1473663 -0.133789,-0.274697 0.09261,-0.1143679 0.09821,-0.1150459 0.271286,-0.032946 0.218407,0.1036385 0.404173,0.1073556 0.485215,0.00973 0.10269,-0.123733 0.0212,-0.2119121 -0.275568,-0.2981845 -0.366359,-0.1065021 -0.52165,-0.2595673 -0.52165,-0.514165 0,-0.3819522 0.446462,-0.5693106 0.922977,-0.3873288 0.249285,0.095199 0.25641,0.1081614 0.146042,0.2657337 -0.06259,0.08936 -0.0965,0.100942 -0.174033,0.05943 -0.13199,-0.070598 -0.437925,-0.07682 -0.50456,-0.010206 -0.101616,0.1016128 5.66e-4,0.2015737 0.291846,0.2855169 0.159489,0.045949 0.340462,0.1304258 0.402162,0.1876935 0.154752,0.143636 0.15205,0.4337077 -0.0058,0.6171575 C 33.865661,7.1974787 33.804784,7.2190888 33.530866,7.234357 33.305162,7.24696 33.169004,7.228777 33.062951,7.171737 Z M 34.384271,6.4525983 V 5.651696 h 0.175773 0.175773 l -0.01373,0.7852831 -0.01373,0.7852751 -0.162041,0.015635 -0.162043,0.015635 z m 1.070645,0.7425816 c -0.02823,-0.045708 -0.522195,-1.4921591 -0.522195,-1.5291489 0,-0.00798 0.07775,-0.014359 0.172791,-0.014359 h 0.172791 l 0.194028,0.6080795 0.194028,0.6080794 0.189795,-0.6080794 0.189795,-0.6080795 h 0.190545 0.190545 l -0.09201,0.2368327 c -0.0506,0.1302584 -0.175532,0.4892445 -0.277619,0.7977434 L 35.8718,7.2471667 h -0.192372 c -0.105801,0 -0.206836,-0.023373 -0.224512,-0.052011 z M 36.62793,6.4494393 V 5.651696 h 0.498591 0.498592 v 0.1495789 0.1495788 h -0.324085 -0.324084 v 0.1745074 0.1744994 h 0.302467 c 0.300548,0 0.302366,7.977e-4 0.286689,0.1371186 -0.01493,0.1297956 -0.03107,0.1379083 -0.302466,0.1520598 l -0.28669,0.014917 v 0.1720185 0.1720185 h 0.349013 0.349015 v 0.1495788 0.149579 H 37.151451 36.62793 Z"
       id="path847" />
  </g>
</svg>
