<?xml version="1.0" encoding="UTF-8" standalone="no"?>
<svg
   xmlns:dc="http://purl.org/dc/elements/1.1/"
   xmlns:cc="http://creativecommons.org/ns#"
   xmlns:rdf="http://www.w3.org/1999/02/22-rdf-syntax-ns#"
   xmlns:svg="http://www.w3.org/2000/svg"
   xmlns="http://www.w3.org/2000/svg"
   xmlns:sodipodi="http://sodipodi.sourceforge.net/DTD/sodipodi-0.dtd"
   xmlns:inkscape="http://www.inkscape.org/namespaces/inkscape"
   version="1.1"
   viewBox="0 0 250 91"
   id="svg1026"
   sodipodi:docname="scope.svg"
   inkscape:version="1.0.2 (e86c870879, 2021-01-15, custom)">
  <defs
     id="defs1030" />
  <sodipodi:namedview
     pagecolor="#ffffff"
     bordercolor="#666666"
     borderopacity="1"
     objecttolerance="10"
     gridtolerance="10"
     guidetolerance="10"
     inkscape:pageopacity="0"
     inkscape:pageshadow="2"
     inkscape:window-width="1821"
     inkscape:window-height="969"
     id="namedview1028"
     showgrid="false"
     inkscape:zoom="1.042"
     inkscape:cx="391.7813"
     inkscape:cy="37.521003"
     inkscape:window-x="0"
     inkscape:window-y="0"
     inkscape:window-maximized="1"
     inkscape:current-layer="svg1026"
     inkscape:document-rotation="0" />
  <metadata
     id="metadata1014">
    <rdf:RDF>
      <cc:Work
         rdf:about="">
        <dc:format>image/svg+xml</dc:format>
        <dc:type
           rdf:resource="http://purl.org/dc/dcmitype/StillImage" />
        <dc:title />
      </cc:Work>
    </rdf:RDF>
  </metadata>
  <style
     type="text/css"
     id="style1656">
	.st0{fill:#FED636;}
	.st1{fill:#59029F;}
</style>
  <style
     type="text/css"
     id="style926">
	.st0{fill:#FFFFFF;}
</style>
  <g
     id="g1014"
     transform="matrix(0.3577994,0,0,0.3577994,15.319625,31.752276)">
    <path
       class="st0"
       d="m 374.03,24.57 h 11.04 c 0.34,0 0.52,0.16 0.52,0.48 v 2.79 c 0,0.34 -0.17,0.52 -0.52,0.52 h -14.72 c -0.32,0 -0.48,-0.17 -0.48,-0.52 V 4.27 c 0,-0.34 0.16,-0.52 0.48,-0.52 h 14.24 c 0.35,0 0.52,0.17 0.52,0.52 v 2.79 c 0,0.32 -0.17,0.48 -0.52,0.48 h -10.56 v 6.43 h 9.67 c 0.34,0 0.52,0.17 0.52,0.52 v 2.75 c 0,0.34 -0.17,0.52 -0.52,0.52 h -9.67 z"
       id="path928" />
    <path
       class="st0"
       d="m 393.6,21.48 c 0,1.31 0.34,2.27 1.02,2.87 0.68,0.61 1.63,0.91 2.87,0.91 0.66,0 1.28,-0.09 1.84,-0.26 0.56,-0.17 1.05,-0.41 1.46,-0.7 V 14.12 c -0.41,-0.18 -0.91,-0.31 -1.48,-0.38 -0.57,-0.07 -1.16,-0.1 -1.76,-0.1 -1.24,0 -2.21,0.29 -2.91,0.88 -0.7,0.58 -1.05,1.62 -1.05,3.11 v 3.85 z m -4.02,-3.82 c 0,-1.31 0.19,-2.43 0.58,-3.37 0.39,-0.94 0.94,-1.72 1.65,-2.34 0.71,-0.62 1.54,-1.08 2.5,-1.38 0.95,-0.3 2,-0.45 3.15,-0.45 1.12,0 2.3,0.1 3.54,0.31 1.24,0.21 2.37,0.51 3.41,0.89 0.25,0.14 0.38,0.33 0.38,0.59 v 22.46 c 0,0.34 -0.17,0.52 -0.52,0.52 h -2.96 c -0.34,0 -0.52,-0.17 -0.52,-0.52 v -6.36 c -0.53,0.23 -1.1,0.41 -1.7,0.55 -0.61,0.14 -1.26,0.21 -1.94,0.21 -1.1,0 -2.11,-0.17 -3.03,-0.52 -0.92,-0.34 -1.71,-0.83 -2.39,-1.46 -0.68,-0.63 -1.2,-1.4 -1.58,-2.3 -0.38,-0.91 -0.57,-1.92 -0.57,-3.04 z"
       id="path930" />
    <path
       class="st0"
       d="m 424.22,10.54 c 0.34,0 0.52,0.16 0.52,0.48 v 15.76 c 0,0.3 -0.12,0.5 -0.38,0.62 -0.99,0.44 -2.05,0.77 -3.2,1.02 -1.15,0.24 -2.33,0.36 -3.54,0.36 -1.17,0 -2.24,-0.14 -3.2,-0.43 -0.96,-0.29 -1.8,-0.74 -2.49,-1.38 -0.7,-0.63 -1.24,-1.43 -1.62,-2.41 -0.38,-0.98 -0.57,-2.15 -0.57,-3.53 V 11.02 c 0,-0.32 0.17,-0.48 0.52,-0.48 h 2.99 c 0.32,0 0.48,0.16 0.48,0.48 v 9.94 c 0,0.8 0.09,1.48 0.26,2.03 0.17,0.55 0.42,0.99 0.76,1.31 0.33,0.32 0.74,0.55 1.22,0.69 0.48,0.14 1.03,0.21 1.65,0.21 0.57,0 1.14,-0.04 1.7,-0.1 0.56,-0.07 1.04,-0.17 1.43,-0.31 V 11.02 c 0,-0.32 0.16,-0.48 0.48,-0.48 z"
       id="path932" />
    <path
       class="st0"
       d="m 433.26,21.44 c 0,1.38 0.25,2.35 0.76,2.92 0.5,0.57 1.34,0.86 2.51,0.86 0.6,0 1.26,-0.16 1.98,-0.47 0.72,-0.31 1.35,-0.76 1.87,-1.36 V 14 c -0.46,-0.12 -0.98,-0.2 -1.58,-0.26 -0.6,-0.06 -1.17,-0.09 -1.72,-0.09 -0.5,0 -0.99,0.07 -1.44,0.22 -0.46,0.15 -0.87,0.38 -1.22,0.69 -0.36,0.31 -0.64,0.7 -0.84,1.17 -0.21,0.47 -0.31,1.03 -0.31,1.67 z m 7.54,5.13 c -0.6,0.71 -1.34,1.26 -2.22,1.63 -0.88,0.38 -1.81,0.57 -2.77,0.57 -0.87,0 -1.7,-0.14 -2.49,-0.41 -0.79,-0.27 -1.49,-0.71 -2.1,-1.29 -0.61,-0.59 -1.09,-1.34 -1.44,-2.27 -0.36,-0.93 -0.53,-2.06 -0.53,-3.39 v -3.96 c 0,-1.26 0.22,-2.35 0.65,-3.27 0.44,-0.92 1.01,-1.67 1.74,-2.27 0.72,-0.6 1.57,-1.04 2.53,-1.34 0.96,-0.3 1.97,-0.45 3.03,-0.45 1.12,0 2.26,0.1 3.42,0.31 1.16,0.21 2.29,0.5 3.39,0.89 0.25,0.11 0.38,0.3 0.38,0.55 v 15.96 c 0,0.34 -0.16,0.52 -0.48,0.52 h -2.34 c -0.32,0 -0.5,-0.15 -0.55,-0.45 z"
       id="path934" />
    <path
       class="st0"
       d="m 457.1,28.67 c -0.6,0.07 -1.25,0.1 -1.96,0.1 -1.86,0 -3.28,-0.59 -4.27,-1.75 -0.99,-1.17 -1.48,-2.81 -1.48,-4.92 V 4.28 c 0,-0.34 0.17,-0.52 0.52,-0.52 h 2.96 c 0.34,0 0.52,0.17 0.52,0.52 v 17.68 c 0,1.15 0.18,1.96 0.55,2.44 0.37,0.48 0.94,0.72 1.72,0.72 0.21,0 0.42,0 0.64,-0.02 0.22,-0.01 0.44,-0.03 0.67,-0.05 0.34,0 0.52,0.17 0.52,0.52 v 2.55 c 0,0.14 -0.03,0.26 -0.09,0.36 -0.06,0.1 -0.16,0.16 -0.3,0.19"
       id="path936" />
    <path
       class="st0"
       d="m 461.27,28.36 c -0.34,0 -0.52,-0.17 -0.52,-0.52 V 11.02 c 0,-0.32 0.17,-0.48 0.52,-0.48 h 2.99 c 0.32,0 0.48,0.16 0.48,0.48 v 16.82 c 0,0.34 -0.16,0.52 -0.48,0.52 z m 3.75,-22.5 c 0,0.64 -0.21,1.18 -0.62,1.62 -0.41,0.44 -0.95,0.65 -1.62,0.65 -0.64,0 -1.18,-0.22 -1.62,-0.65 -0.44,-0.44 -0.65,-0.97 -0.65,-1.62 0,-0.67 0.22,-1.2 0.65,-1.62 0.43,-0.41 0.97,-0.62 1.62,-0.62 0.67,0 1.2,0.21 1.62,0.62 0.41,0.42 0.62,0.96 0.62,1.62"
       id="path938" />
    <path
       class="st0"
       d="m 474.49,24.35 c 0.47,0.52 1.14,0.77 2.01,0.77 0.16,0 0.36,0 0.62,-0.02 0.26,-0.02 0.52,-0.03 0.79,-0.05 0.37,0 0.55,0.16 0.55,0.48 v 2.61 c 0,0.14 -0.04,0.26 -0.1,0.36 -0.07,0.1 -0.2,0.16 -0.38,0.19 -0.3,0.02 -0.61,0.04 -0.95,0.05 -0.33,0.01 -0.63,0.02 -0.88,0.02 -0.89,0 -1.73,-0.12 -2.51,-0.36 -0.78,-0.24 -1.45,-0.61 -2.01,-1.12 -0.56,-0.5 -1.01,-1.16 -1.34,-1.96 -0.33,-0.8 -0.5,-1.78 -0.5,-2.92 V 6.69 c 0,-0.32 0.17,-0.48 0.52,-0.48 h 2.62 c 0.3,0 0.47,0.15 0.52,0.45 l 0.31,4.13 h 3.68 c 0.34,0 0.52,0.16 0.52,0.48 v 2.51 c 0,0.32 -0.17,0.48 -0.52,0.48 h -3.65 v 7.88 c 0,0.95 0.23,1.69 0.7,2.21"
       id="path940" />
    <path
       class="st0"
       d="m 493.02,11.02 c 0,-0.32 0.17,-0.48 0.52,-0.48 h 2.96 c 0.34,0 0.52,0.16 0.52,0.48 v 16.2 c 0,2.66 -0.62,4.66 -1.86,6 -1.24,1.34 -3.18,2.01 -5.81,2.01 -1.47,0 -2.74,-0.18 -3.8,-0.53 -1.07,-0.36 -2.05,-0.9 -2.94,-1.63 -0.25,-0.18 -0.29,-0.41 -0.1,-0.69 l 1.48,-2.1 c 0.18,-0.3 0.4,-0.36 0.65,-0.17 0.66,0.46 1.38,0.84 2.13,1.14 0.75,0.3 1.6,0.45 2.54,0.45 0.6,0 1.13,-0.07 1.62,-0.21 0.48,-0.14 0.88,-0.38 1.2,-0.72 0.32,-0.34 0.56,-0.8 0.72,-1.38 0.16,-0.57 0.23,-1.3 0.21,-2.17 -0.55,0.18 -1.14,0.33 -1.77,0.45 -0.63,0.11 -1.27,0.17 -1.91,0.17 -0.89,0 -1.78,-0.14 -2.66,-0.43 -0.88,-0.29 -1.67,-0.72 -2.36,-1.31 -0.69,-0.58 -1.25,-1.31 -1.68,-2.18 -0.44,-0.87 -0.65,-1.9 -0.65,-3.1 v -9.8 c 0,-0.32 0.17,-0.48 0.52,-0.48 h 2.99 c 0.32,0 0.48,0.16 0.48,0.48 v 9.63 c 0,0.67 0.11,1.23 0.33,1.69 0.22,0.46 0.5,0.83 0.86,1.1 0.35,0.28 0.77,0.48 1.24,0.6 0.47,0.13 0.97,0.19 1.5,0.19 0.6,0.02 1.17,-0.04 1.7,-0.17 0.54,-0.14 1,-0.31 1.39,-0.52 V 11.02 Z"
       id="path942" />
    <path
       class="st0"
       d="m 518.82,6.93 c -0.41,-0.07 -0.93,-0.1 -1.55,-0.1 -0.92,0 -1.61,0.28 -2.08,0.84 -0.47,0.56 -0.71,1.34 -0.71,2.32 v 0.79 h 3.96 c 0.34,0 0.52,0.17 0.52,0.52 v 2.48 c 0,0.34 -0.17,0.52 -0.52,0.52 h -3.96 v 13.55 c 0,0.34 -0.17,0.51 -0.52,0.51 H 511 c -0.34,0 -0.52,-0.17 -0.52,-0.51 V 10 c 0,-1.1 0.16,-2.07 0.48,-2.91 0.32,-0.84 0.76,-1.53 1.32,-2.08 0.56,-0.55 1.22,-0.96 1.96,-1.24 0.74,-0.27 1.54,-0.41 2.39,-0.41 0.87,0 1.57,0.05 2.1,0.14 0.32,0.02 0.48,0.21 0.48,0.55 v 2.37 c 0.02,0.34 -0.12,0.51 -0.39,0.51"
       id="path944" />
    <path
       class="st0"
       d="m 526.01,21.82 c 0,1.1 0.33,1.94 0.98,2.51 0.65,0.57 1.6,0.86 2.84,0.86 1.24,0 2.18,-0.29 2.84,-0.86 0.65,-0.57 0.98,-1.41 0.98,-2.51 v -4.61 c 0,-1.15 -0.33,-2.02 -0.98,-2.62 -0.65,-0.6 -1.6,-0.89 -2.84,-0.89 -1.24,0 -2.18,0.3 -2.84,0.89 -0.65,0.6 -0.98,1.47 -0.98,2.62 z m 11.66,0 c 0,1.08 -0.19,2.04 -0.55,2.89 -0.37,0.85 -0.9,1.58 -1.58,2.18 -0.69,0.61 -1.51,1.07 -2.48,1.39 -0.96,0.32 -2.04,0.48 -3.23,0.48 -1.19,0 -2.27,-0.16 -3.23,-0.48 -0.96,-0.32 -1.79,-0.78 -2.48,-1.39 -0.69,-0.61 -1.21,-1.34 -1.58,-2.18 -0.37,-0.85 -0.55,-1.81 -0.55,-2.89 v -4.61 c 0,-1.08 0.18,-2.05 0.55,-2.92 0.37,-0.87 0.89,-1.62 1.58,-2.24 0.69,-0.62 1.51,-1.09 2.48,-1.43 0.96,-0.33 2.04,-0.5 3.23,-0.5 1.19,0 2.27,0.17 3.23,0.5 0.96,0.33 1.79,0.81 2.48,1.43 0.69,0.62 1.21,1.37 1.58,2.24 0.36,0.87 0.55,1.85 0.55,2.92 z"
       id="path946" />
    <path
       class="st0"
       d="m 542.72,28.36 c -0.34,0 -0.52,-0.17 -0.52,-0.52 V 12.02 c 0,-0.3 0.13,-0.49 0.38,-0.59 0.87,-0.43 1.83,-0.76 2.87,-0.98 1.04,-0.22 2.09,-0.33 3.15,-0.33 0.53,0 1.08,0.02 1.65,0.05 0.57,0.03 1.19,0.11 1.86,0.22 0.3,0.02 0.45,0.2 0.45,0.52 v 2.48 c 0,0.34 -0.18,0.48 -0.55,0.41 -0.44,-0.07 -0.9,-0.11 -1.38,-0.12 -0.48,-0.01 -0.95,-0.02 -1.41,-0.02 -0.62,0 -1.2,0.05 -1.74,0.14 -0.54,0.09 -0.97,0.21 -1.29,0.34 v 13.69 c 0,0.34 -0.17,0.52 -0.52,0.52 z"
       id="path948" />
    <path
       class="st0"
       d="m 372.62,59.83 c 0,1.49 0.35,2.53 1.05,3.13 0.7,0.6 1.67,0.89 2.91,0.89 0.6,0 1.18,-0.04 1.75,-0.12 0.57,-0.08 1.07,-0.2 1.48,-0.36 V 53.16 c -0.41,-0.27 -0.9,-0.49 -1.46,-0.65 -0.56,-0.16 -1.18,-0.24 -1.84,-0.24 -1.24,0 -2.2,0.3 -2.87,0.89 -0.68,0.6 -1.01,1.55 -1.01,2.86 z m 7.19,-16.96 c 0,-0.34 0.17,-0.52 0.52,-0.52 h 2.96 c 0.34,0 0.52,0.17 0.52,0.52 v 22.67 c 0,0.3 -0.13,0.49 -0.38,0.59 -1.03,0.39 -2.17,0.69 -3.4,0.91 -1.24,0.22 -2.42,0.33 -3.54,0.33 -1.15,0 -2.2,-0.15 -3.15,-0.45 -0.95,-0.3 -1.78,-0.76 -2.49,-1.38 -0.71,-0.62 -1.26,-1.4 -1.65,-2.36 -0.39,-0.95 -0.59,-2.08 -0.59,-3.39 v -3.78 c 0,-1.12 0.19,-2.13 0.57,-3.03 0.38,-0.89 0.9,-1.66 1.56,-2.29 0.67,-0.63 1.46,-1.12 2.37,-1.46 0.92,-0.34 1.92,-0.52 2.99,-0.52 0.69,0 1.35,0.07 1.98,0.21 0.63,0.14 1.21,0.32 1.74,0.55 v -6.6 z"
       id="path950" />
    <path
       class="st0"
       d="m 389.44,66.95 c -0.34,0 -0.52,-0.17 -0.52,-0.52 V 49.61 c 0,-0.32 0.17,-0.48 0.52,-0.48 h 2.99 c 0.32,0 0.48,0.16 0.48,0.48 v 16.82 c 0,0.34 -0.16,0.52 -0.48,0.52 z m 3.75,-22.5 c 0,0.64 -0.21,1.18 -0.62,1.62 -0.41,0.44 -0.95,0.65 -1.62,0.65 -0.64,0 -1.18,-0.22 -1.62,-0.65 -0.44,-0.44 -0.65,-0.97 -0.65,-1.62 0,-0.67 0.22,-1.2 0.65,-1.62 0.43,-0.41 0.97,-0.62 1.62,-0.62 0.66,0 1.2,0.21 1.62,0.62 0.41,0.42 0.62,0.96 0.62,1.62"
       id="path952" />
    <path
       class="st0"
       d="m 411.49,61.65 c 0,0.96 -0.19,1.8 -0.57,2.51 -0.38,0.71 -0.9,1.31 -1.55,1.79 -0.65,0.48 -1.42,0.84 -2.3,1.07 -0.88,0.23 -1.84,0.34 -2.87,0.34 -1.17,0 -2.35,-0.17 -3.54,-0.52 -1.19,-0.34 -2.34,-0.92 -3.44,-1.72 -0.28,-0.16 -0.32,-0.39 -0.14,-0.69 l 1.31,-2.24 c 0.16,-0.3 0.39,-0.34 0.69,-0.14 0.78,0.57 1.62,1.01 2.51,1.31 0.89,0.3 1.79,0.45 2.68,0.45 0.89,0 1.65,-0.17 2.27,-0.5 0.62,-0.33 0.93,-0.83 0.93,-1.5 0,-0.34 -0.09,-0.63 -0.27,-0.86 -0.18,-0.23 -0.43,-0.42 -0.74,-0.57 -0.31,-0.15 -0.65,-0.27 -1.03,-0.36 -0.38,-0.09 -0.76,-0.17 -1.15,-0.24 -0.64,-0.11 -1.36,-0.28 -2.17,-0.5 -0.8,-0.22 -1.56,-0.54 -2.27,-0.96 -0.71,-0.42 -1.31,-0.98 -1.79,-1.67 -0.48,-0.69 -0.72,-1.55 -0.72,-2.58 0,-0.96 0.21,-1.78 0.62,-2.46 0.41,-0.68 0.96,-1.23 1.65,-1.67 0.69,-0.44 1.47,-0.76 2.34,-0.96 0.87,-0.21 1.77,-0.31 2.68,-0.31 0.99,0 1.97,0.13 2.96,0.38 0.98,0.25 2,0.65 3.03,1.2 0.3,0.16 0.36,0.39 0.17,0.69 l -1.31,2.2 c -0.18,0.25 -0.41,0.31 -0.69,0.17 -0.64,-0.34 -1.34,-0.62 -2.08,-0.83 -0.74,-0.21 -1.51,-0.31 -2.29,-0.31 -1.03,0 -1.81,0.17 -2.34,0.52 -0.53,0.34 -0.79,0.8 -0.79,1.38 0,0.34 0.09,0.64 0.27,0.88 0.18,0.24 0.44,0.44 0.77,0.59 0.33,0.15 0.73,0.28 1.2,0.4 0.47,0.12 0.99,0.23 1.57,0.34 0.71,0.14 1.44,0.3 2.2,0.5 0.76,0.19 1.44,0.49 2.06,0.89 0.62,0.4 1.13,0.92 1.53,1.55 0.41,0.64 0.61,1.45 0.61,2.43"
       id="path954" />
    <path
       class="st0"
       d="m 418.95,60.04 c 0,1.38 0.25,2.35 0.76,2.92 0.5,0.57 1.34,0.86 2.51,0.86 0.6,0 1.26,-0.16 1.98,-0.47 0.72,-0.31 1.35,-0.76 1.88,-1.36 V 52.6 c -0.46,-0.12 -0.99,-0.2 -1.58,-0.26 -0.6,-0.06 -1.17,-0.09 -1.72,-0.09 -0.5,0 -0.99,0.07 -1.44,0.22 -0.46,0.15 -0.86,0.38 -1.22,0.69 -0.35,0.31 -0.64,0.7 -0.84,1.17 -0.21,0.47 -0.31,1.03 -0.31,1.67 v 4.04 z m 7.54,5.12 c -0.6,0.71 -1.34,1.26 -2.22,1.63 -0.88,0.38 -1.81,0.57 -2.77,0.57 -0.87,0 -1.7,-0.14 -2.49,-0.41 -0.79,-0.27 -1.49,-0.71 -2.1,-1.29 -0.61,-0.59 -1.09,-1.34 -1.44,-2.27 -0.36,-0.93 -0.53,-2.06 -0.53,-3.39 v -3.96 c 0,-1.26 0.22,-2.35 0.65,-3.27 0.44,-0.92 1.02,-1.67 1.74,-2.27 0.72,-0.6 1.56,-1.04 2.53,-1.34 0.96,-0.3 1.97,-0.45 3.03,-0.45 1.12,0 2.26,0.1 3.42,0.31 1.16,0.21 2.29,0.5 3.39,0.89 0.25,0.11 0.38,0.3 0.38,0.55 v 15.96 c 0,0.34 -0.16,0.52 -0.48,0.52 h -2.34 c -0.32,0 -0.5,-0.15 -0.55,-0.45 z"
       id="path956" />
    <path
       class="st0"
       d="m 442.38,63.79 c 1.24,0 2.21,-0.29 2.91,-0.88 0.7,-0.58 1.05,-1.61 1.05,-3.08 v -3.82 c 0,-1.31 -0.34,-2.26 -1.01,-2.86 -0.68,-0.6 -1.63,-0.89 -2.87,-0.89 -0.67,0 -1.27,0.08 -1.82,0.24 -0.55,0.16 -1.04,0.38 -1.48,0.65 V 63.3 c 0.41,0.18 0.91,0.31 1.48,0.38 0.56,0.07 1.14,0.11 1.74,0.11 m -3.23,-14.31 c 0.53,-0.23 1.11,-0.41 1.74,-0.55 0.63,-0.14 1.29,-0.21 1.98,-0.21 1.08,0 2.08,0.17 2.99,0.52 0.92,0.34 1.71,0.83 2.39,1.46 0.68,0.63 1.2,1.39 1.58,2.29 0.38,0.89 0.57,1.9 0.57,3.03 v 3.78 c 0,1.31 -0.2,2.44 -0.6,3.39 -0.4,0.95 -0.95,1.74 -1.65,2.36 -0.7,0.62 -1.54,1.08 -2.51,1.38 -0.97,0.3 -2.02,0.45 -3.15,0.45 -1.12,0 -2.3,-0.11 -3.53,-0.33 -1.23,-0.22 -2.36,-0.52 -3.39,-0.91 -0.28,-0.09 -0.41,-0.29 -0.41,-0.58 V 42.89 c 0,-0.34 0.17,-0.52 0.52,-0.52 h 2.96 c 0.35,0 0.52,0.17 0.52,0.52 v 6.59 z"
       id="path958" />
    <path
       class="st0"
       d="m 462.54,67.26 c -0.6,0.07 -1.25,0.1 -1.96,0.1 -1.86,0 -3.28,-0.59 -4.27,-1.75 -0.98,-1.17 -1.48,-2.81 -1.48,-4.92 V 42.87 c 0,-0.34 0.17,-0.52 0.52,-0.52 h 2.96 c 0.34,0 0.52,0.17 0.52,0.52 v 17.68 c 0,1.15 0.18,1.96 0.55,2.44 0.37,0.48 0.94,0.72 1.72,0.72 0.21,0 0.42,0 0.64,-0.02 0.22,-0.01 0.44,-0.03 0.67,-0.05 0.34,0 0.52,0.17 0.52,0.52 v 2.55 c 0,0.14 -0.03,0.26 -0.09,0.36 -0.07,0.11 -0.17,0.17 -0.3,0.19"
       id="path960" />
    <path
       class="st0"
       d="m 476.74,55.74 c 0,-1.26 -0.35,-2.16 -1.05,-2.7 -0.7,-0.54 -1.53,-0.81 -2.5,-0.81 -1.01,0 -1.85,0.27 -2.53,0.81 -0.68,0.54 -1.01,1.44 -1.01,2.7 v 0.89 h 7.09 z m 3.89,3.51 c 0,0.32 -0.17,0.48 -0.52,0.48 h -10.46 v 0.96 c 0,1.06 0.33,1.85 1,2.37 0.67,0.52 1.55,0.79 2.65,0.79 1.08,0 2,-0.15 2.75,-0.46 0.76,-0.31 1.46,-0.68 2.1,-1.12 0.28,-0.18 0.5,-0.15 0.69,0.1 l 1.41,1.89 c 0.23,0.25 0.19,0.49 -0.1,0.72 -0.92,0.73 -1.94,1.31 -3.08,1.74 -1.14,0.42 -2.44,0.64 -3.9,0.64 -0.96,0 -1.9,-0.14 -2.8,-0.41 -0.91,-0.27 -1.71,-0.69 -2.41,-1.24 -0.7,-0.55 -1.26,-1.24 -1.69,-2.08 -0.42,-0.84 -0.64,-1.83 -0.64,-2.98 v -4.89 c 0,-1.26 0.22,-2.34 0.65,-3.23 0.43,-0.89 1.01,-1.62 1.72,-2.19 0.71,-0.56 1.52,-0.97 2.43,-1.24 0.9,-0.26 1.83,-0.4 2.77,-0.4 0.94,0 1.86,0.13 2.75,0.4 0.89,0.26 1.68,0.68 2.37,1.24 0.69,0.56 1.24,1.29 1.67,2.19 0.42,0.89 0.64,1.97 0.64,3.23 z"
       id="path962" />
    <path
       class="st0"
       d="m 488.44,59.83 c 0,1.49 0.35,2.53 1.05,3.13 0.7,0.6 1.67,0.89 2.91,0.89 0.6,0 1.18,-0.04 1.75,-0.12 0.57,-0.08 1.07,-0.2 1.48,-0.36 V 53.16 c -0.41,-0.27 -0.9,-0.49 -1.46,-0.65 -0.56,-0.16 -1.18,-0.24 -1.84,-0.24 -1.24,0 -2.19,0.3 -2.87,0.89 -0.68,0.6 -1.02,1.55 -1.02,2.86 z m 7.19,-16.96 c 0,-0.34 0.17,-0.52 0.52,-0.52 h 2.96 c 0.34,0 0.52,0.17 0.52,0.52 v 22.67 c 0,0.3 -0.12,0.49 -0.38,0.59 -1.03,0.39 -2.17,0.69 -3.41,0.91 -1.24,0.22 -2.42,0.33 -3.54,0.33 -1.15,0 -2.2,-0.15 -3.15,-0.45 -0.95,-0.3 -1.78,-0.76 -2.49,-1.38 -0.71,-0.62 -1.26,-1.4 -1.65,-2.36 -0.39,-0.95 -0.59,-2.08 -0.59,-3.39 v -3.78 c 0,-1.12 0.19,-2.13 0.57,-3.03 0.38,-0.89 0.9,-1.66 1.56,-2.29 0.66,-0.63 1.46,-1.12 2.37,-1.46 0.92,-0.34 1.92,-0.52 2.99,-0.52 0.69,0 1.35,0.07 1.98,0.21 0.63,0.14 1.21,0.32 1.74,0.55 z"
       id="path964" />
    <path
       class="st0"
       d="m 520.26,63.85 c 1.24,0 2.2,-0.3 2.87,-0.91 0.68,-0.61 1.01,-1.56 1.01,-2.87 v -3.85 c 0,-1.49 -0.35,-2.53 -1.05,-3.11 -0.7,-0.59 -1.67,-0.88 -2.91,-0.88 -0.6,0 -1.18,0.03 -1.75,0.1 -0.57,0.07 -1.07,0.2 -1.48,0.38 v 10.18 c 0.44,0.3 0.93,0.53 1.48,0.7 0.56,0.18 1.16,0.26 1.83,0.26 m -6.91,-13.89 c 1.03,-0.39 2.17,-0.69 3.4,-0.91 1.24,-0.22 2.42,-0.33 3.54,-0.33 1.12,0 2.17,0.15 3.15,0.45 0.97,0.3 1.81,0.76 2.51,1.38 0.7,0.62 1.25,1.4 1.65,2.34 0.4,0.94 0.6,2.06 0.6,3.37 v 3.78 c 0,1.12 -0.19,2.14 -0.57,3.04 -0.38,0.91 -0.91,1.67 -1.58,2.3 -0.68,0.63 -1.48,1.12 -2.41,1.46 -0.93,0.34 -1.94,0.52 -3.04,0.52 -0.69,0 -1.34,-0.07 -1.94,-0.21 -0.61,-0.14 -1.18,-0.32 -1.7,-0.55 v 6.36 c 0,0.34 -0.17,0.52 -0.52,0.52 h -2.96 c -0.34,0 -0.52,-0.17 -0.52,-0.52 V 50.51 c 0.01,-0.28 0.13,-0.46 0.39,-0.55"
       id="path966" />
    <path
       class="st0"
       d="m 543.31,55.74 c 0,-1.26 -0.35,-2.16 -1.05,-2.7 -0.7,-0.54 -1.53,-0.81 -2.5,-0.81 -1.01,0 -1.85,0.27 -2.53,0.81 -0.68,0.54 -1.01,1.44 -1.01,2.7 v 0.89 h 7.09 z m 3.88,3.51 c 0,0.32 -0.17,0.48 -0.52,0.48 h -10.46 v 0.96 c 0,1.06 0.33,1.85 1,2.37 0.67,0.52 1.55,0.79 2.65,0.79 1.08,0 2,-0.15 2.75,-0.46 0.76,-0.31 1.46,-0.68 2.1,-1.12 0.28,-0.18 0.5,-0.15 0.69,0.1 l 1.41,1.89 c 0.23,0.25 0.19,0.49 -0.1,0.72 -0.92,0.73 -1.94,1.31 -3.08,1.74 -1.14,0.42 -2.44,0.64 -3.9,0.64 -0.96,0 -1.9,-0.14 -2.8,-0.41 -0.91,-0.27 -1.71,-0.69 -2.41,-1.24 -0.7,-0.55 -1.26,-1.24 -1.69,-2.08 -0.42,-0.84 -0.64,-1.83 -0.64,-2.98 v -4.89 c 0,-1.26 0.22,-2.34 0.65,-3.23 0.43,-0.89 1.01,-1.62 1.72,-2.19 0.71,-0.56 1.52,-0.97 2.43,-1.24 0.9,-0.26 1.83,-0.4 2.77,-0.4 0.94,0 1.86,0.13 2.75,0.4 0.89,0.26 1.68,0.68 2.37,1.24 0.69,0.56 1.24,1.29 1.67,2.19 0.42,0.89 0.64,1.97 0.64,3.23 z"
       id="path968" />
    <path
       class="st0"
       d="m 555.04,60.42 c 0,1.1 0.33,1.94 0.98,2.51 0.65,0.57 1.6,0.86 2.84,0.86 1.24,0 2.18,-0.29 2.84,-0.86 0.65,-0.57 0.98,-1.41 0.98,-2.51 v -4.61 c 0,-1.15 -0.33,-2.02 -0.98,-2.62 -0.65,-0.6 -1.6,-0.89 -2.84,-0.89 -1.24,0 -2.18,0.3 -2.84,0.89 -0.65,0.6 -0.98,1.47 -0.98,2.62 z m 11.66,0 c 0,1.08 -0.18,2.04 -0.55,2.89 -0.37,0.85 -0.89,1.58 -1.58,2.18 -0.69,0.61 -1.51,1.07 -2.48,1.39 -0.96,0.32 -2.04,0.48 -3.23,0.48 -1.19,0 -2.27,-0.16 -3.24,-0.48 -0.96,-0.32 -1.79,-0.78 -2.48,-1.39 -0.69,-0.61 -1.22,-1.34 -1.58,-2.18 -0.37,-0.85 -0.55,-1.81 -0.55,-2.89 v -4.61 c 0,-1.08 0.18,-2.05 0.55,-2.92 0.37,-0.87 0.89,-1.62 1.58,-2.24 0.69,-0.62 1.51,-1.09 2.48,-1.43 0.96,-0.33 2.04,-0.5 3.23,-0.5 1.19,0 2.27,0.17 3.23,0.5 0.96,0.33 1.79,0.81 2.48,1.43 0.69,0.62 1.21,1.37 1.58,2.24 0.37,0.87 0.55,1.85 0.55,2.92 v 4.61 z"
       id="path970" />
    <path
       class="st0"
       d="m 578.53,63.85 c 1.24,0 2.2,-0.3 2.87,-0.91 0.68,-0.61 1.01,-1.56 1.01,-2.87 v -3.85 c 0,-1.49 -0.35,-2.53 -1.05,-3.11 -0.7,-0.59 -1.67,-0.88 -2.91,-0.88 -0.6,0 -1.18,0.03 -1.75,0.1 -0.57,0.07 -1.07,0.2 -1.48,0.38 v 10.18 c 0.44,0.3 0.93,0.53 1.48,0.7 0.56,0.18 1.17,0.26 1.83,0.26 m -6.91,-13.89 c 1.03,-0.39 2.17,-0.69 3.41,-0.91 1.24,-0.22 2.42,-0.33 3.54,-0.33 1.12,0 2.17,0.15 3.15,0.45 0.97,0.3 1.81,0.76 2.51,1.38 0.7,0.62 1.25,1.4 1.65,2.34 0.4,0.94 0.6,2.06 0.6,3.37 v 3.78 c 0,1.12 -0.19,2.14 -0.57,3.04 -0.38,0.91 -0.91,1.67 -1.58,2.3 -0.68,0.63 -1.48,1.12 -2.41,1.46 -0.93,0.34 -1.94,0.52 -3.04,0.52 -0.69,0 -1.34,-0.07 -1.94,-0.21 -0.61,-0.14 -1.18,-0.32 -1.7,-0.55 v 6.36 c 0,0.34 -0.17,0.52 -0.51,0.52 h -2.96 c -0.34,0 -0.52,-0.17 -0.52,-0.52 V 50.51 c -0.01,-0.28 0.11,-0.46 0.37,-0.55"
       id="path972" />
    <path
       class="st0"
       d="m 598.62,67.26 c -0.6,0.07 -1.25,0.1 -1.96,0.1 -1.86,0 -3.28,-0.59 -4.27,-1.75 -0.99,-1.17 -1.48,-2.81 -1.48,-4.92 V 42.87 c 0,-0.34 0.17,-0.52 0.52,-0.52 h 2.96 c 0.34,0 0.51,0.17 0.51,0.52 v 17.68 c 0,1.15 0.19,1.96 0.55,2.44 0.37,0.48 0.94,0.72 1.72,0.72 0.21,0 0.42,0 0.64,-0.02 0.22,-0.01 0.44,-0.03 0.67,-0.05 0.34,0 0.52,0.17 0.52,0.52 v 2.55 c 0,0.14 -0.03,0.26 -0.09,0.36 -0.05,0.11 -0.15,0.17 -0.29,0.19"
       id="path974" />
    <path
       class="st0"
       d="m 612.83,55.74 c 0,-1.26 -0.35,-2.16 -1.05,-2.7 -0.7,-0.54 -1.53,-0.81 -2.49,-0.81 -1.01,0 -1.85,0.27 -2.53,0.81 -0.68,0.54 -1.02,1.44 -1.02,2.7 v 0.89 h 7.09 z m 3.89,3.51 c 0,0.32 -0.17,0.48 -0.52,0.48 h -10.46 v 0.96 c 0,1.06 0.33,1.85 1,2.37 0.67,0.53 1.55,0.79 2.65,0.79 1.08,0 2,-0.15 2.75,-0.46 0.76,-0.31 1.46,-0.68 2.1,-1.12 0.27,-0.18 0.5,-0.15 0.69,0.1 l 1.41,1.89 c 0.23,0.25 0.19,0.49 -0.1,0.72 -0.92,0.73 -1.94,1.31 -3.08,1.74 -1.13,0.42 -2.44,0.64 -3.91,0.64 -0.96,0 -1.9,-0.14 -2.8,-0.41 -0.91,-0.27 -1.71,-0.69 -2.41,-1.24 -0.7,-0.55 -1.26,-1.24 -1.68,-2.08 -0.42,-0.84 -0.64,-1.83 -0.64,-2.98 v -4.89 c 0,-1.26 0.22,-2.34 0.65,-3.23 0.44,-0.89 1.01,-1.62 1.72,-2.19 0.71,-0.56 1.52,-0.97 2.42,-1.24 0.91,-0.26 1.83,-0.4 2.77,-0.4 0.94,0 1.86,0.13 2.75,0.4 0.9,0.26 1.69,0.68 2.38,1.24 0.69,0.56 1.24,1.29 1.67,2.19 0.43,0.89 0.64,1.97 0.64,3.23 z"
       id="path976" />
    <path
       class="st0"
       d="m 177.92,12.38 v 52.85 c 0,1.06 0.53,1.59 1.5,1.59 h 11.14 c 0.97,0 1.5,-0.53 1.5,-1.59 V 48.44 h 10.78 c 13.96,0 22.63,-8.57 22.63,-22.45 0,-13.52 -8.48,-22.36 -22.63,-22.36 h -16.17 c -5.66,0 -8.75,3.01 -8.75,8.75 m 14.14,22.89 V 16.71 h 8.84 c 6.63,0 9.98,3.09 9.98,9.28 0,6.19 -3.36,9.28 -9.98,9.28 z M 139.83,15.92 c 7.51,0 11.23,3.98 11.23,11.84 v 14.85 c 0,7.86 -3.71,11.84 -11.23,11.84 -7.51,0 -11.22,-3.98 -11.22,-11.84 V 27.76 c -0.01,-7.86 3.71,-11.84 11.22,-11.84 m 0,51.96 c 16.26,0 25.72,-9.19 25.72,-25.01 V 27.5 c 0,-15.82 -9.46,-25.01 -25.72,-25.01 -16.26,0 -25.72,9.19 -25.72,25.01 v 15.37 c 0,15.82 9.45,25.01 25.72,25.01 M 345.26,28.91 c 0.97,0 1.5,-0.53 1.5,-1.5 v -9.55 c 0,-0.97 -0.53,-1.5 -1.5,-1.5 h -42.6 c -0.98,0 -1.5,0.53 -1.5,1.5 v 9.55 c 0,0.97 0.53,1.5 1.5,1.5 z m 0,25.1 c 0.97,0 1.5,-0.53 1.5,-1.5 v -9.55 c 0,-0.97 -0.53,-1.5 -1.5,-1.5 h -42.6 c -0.98,0 -1.5,0.53 -1.5,1.5 v 9.55 c 0,0.97 0.53,1.5 1.5,1.5 z M 25.91,67.88 c 15.91,0 24.13,-8.04 24.13,-20.06 0,-9.28 -4.42,-16.35 -19,-18.82 -12.02,-2.03 -13.7,-4.24 -13.7,-7.95 0,-2.83 2.56,-5.75 9.63,-5.75 3.98,0 8.84,1.15 13.79,3.71 0.88,0.44 1.59,0.44 2.21,-0.44 L 47.47,10 C 48,9.02 47.83,8.23 47.11,7.79 43.4,5.58 36.51,2.49 26.26,2.49 12.91,2.49 2.84,9.83 2.84,21.76 c 0,11.84 8.13,16.79 22,19.35 8.22,1.51 10.87,3.1 10.87,7.43 0,3.71 -3.54,6.19 -10.16,6.19 -5.92,0 -11.4,-1.86 -16.79,-4.42 -0.89,-0.44 -1.68,-0.44 -2.13,0.45 l -4.42,8.48 c -0.45,0.88 -0.62,1.59 0.35,2.21 3.81,2.55 12.57,6.43 23.35,6.43 M 85.56,2.49 C 69.3,2.49 59.84,11.68 59.84,27.5 v 15.37 c 0,15.82 9.46,25.01 25.72,25.01 7.24,0 14.05,-2.03 20.06,-6.27 0.62,-0.44 0.71,-1.15 0.09,-1.95 l -5.65,-8.48 c -0.53,-0.89 -1.24,-0.97 -2.13,-0.36 -3.62,2.48 -7.86,3.62 -12.37,3.62 -7.25,0 -10.87,-3.98 -10.87,-11.84 V 27.75 c 0,-7.87 3.71,-11.84 10.87,-11.84 4.07,0 8.22,1.15 11.31,3.18 0.89,0.53 1.59,0.35 2.21,-0.44 l 5.57,-8.48 c 0.62,-0.8 0.44,-1.5 -0.45,-2.03 C 99.08,4.52 92.28,2.49 85.56,2.49 m 150.52,55.59 c 0,5.74 3.09,8.75 8.74,8.75 h 31.73 c 1.06,0 1.59,-0.53 1.59,-1.59 v -9.72 c 0,-0.97 -0.53,-1.5 -1.59,-1.5 H 250.3 V 41.47 h 21.92 c 1.06,0 1.59,-0.53 1.59,-1.5 v -9.55 c 0,-0.97 -0.53,-1.5 -1.59,-1.5 H 250.3 V 16.46 h 24.84 c 1.06,0 1.59,-0.53 1.59,-1.5 V 5.24 c 0,-1.06 -0.53,-1.59 -1.59,-1.59 h -30.32 c -5.65,0 -8.74,3.01 -8.74,8.75 z"
       id="path978" />
  </g>
</svg>
