<?xml version="1.0" encoding="UTF-8"?>
<svg version="1.1" viewBox="0 0 250 91" xmlns="http://www.w3.org/2000/svg" xmlns:cc="http://creativecommons.org/ns#" xmlns:dc="http://purl.org/dc/elements/1.1/" xmlns:rdf="http://www.w3.org/1999/02/22-rdf-syntax-ns#">
<metadata>
<rdf:RDF>
<cc:Work rdf:about="">
<dc:format>image/svg+xml</dc:format>
<dc:type rdf:resource="http://purl.org/dc/dcmitype/StillImage"/>
<dc:title/>
</cc:Work>
</rdf:RDF>
</metadata>
<style type="text/css">.st0{fill:#FED636;}
	.st1{fill:#59029F;}</style>
<style type="text/css">.st0{fill:#FFFFFF;}</style>
<g transform="matrix(.3578 0 0 .3578 15.32 31.752)">
<path class="st0" d="m374.03 24.57h11.04c0.34 0 0.52 0.16 0.52 0.48v2.79c0 0.34-0.17 0.52-0.52 0.52h-14.72c-0.32 0-0.48-0.17-0.48-0.52v-23.57c0-0.34 0.16-0.52 0.48-0.52h14.24c0.35 0 0.52 0.17 0.52 0.52v2.79c0 0.32-0.17 0.48-0.52 0.48h-10.56v6.43h9.67c0.34 0 0.52 0.17 0.52 0.52v2.75c0 0.34-0.17 0.52-0.52 0.52h-9.67z"/>
<path class="st0" d="m393.6 21.48c0 1.31 0.34 2.27 1.02 2.87 0.68 0.61 1.63 0.91 2.87 0.91 0.66 0 1.28-0.09 1.84-0.26s1.05-0.41 1.46-0.7v-10.18c-0.41-0.18-0.91-0.31-1.48-0.38s-1.16-0.1-1.76-0.1c-1.24 0-2.21 0.29-2.91 0.88-0.7 0.58-1.05 1.62-1.05 3.11v3.85zm-4.02-3.82c0-1.31 0.19-2.43 0.58-3.37s0.94-1.72 1.65-2.34 1.54-1.08 2.5-1.38c0.95-0.3 2-0.45 3.15-0.45 1.12 0 2.3 0.1 3.54 0.31s2.37 0.51 3.41 0.89c0.25 0.14 0.38 0.33 0.38 0.59v22.46c0 0.34-0.17 0.52-0.52 0.52h-2.96c-0.34 0-0.52-0.17-0.52-0.52v-6.36c-0.53 0.23-1.1 0.41-1.7 0.55-0.61 0.14-1.26 0.21-1.94 0.21-1.1 0-2.11-0.17-3.03-0.52-0.92-0.34-1.71-0.83-2.39-1.46s-1.2-1.4-1.58-2.3c-0.38-0.91-0.57-1.92-0.57-3.04z"/>
<path class="st0" d="m424.22 10.54c0.34 0 0.52 0.16 0.52 0.48v15.76c0 0.3-0.12 0.5-0.38 0.62-0.99 0.44-2.05 0.77-3.2 1.02-1.15 0.24-2.33 0.36-3.54 0.36-1.17 0-2.24-0.14-3.2-0.43s-1.8-0.74-2.49-1.38c-0.7-0.63-1.24-1.43-1.62-2.41s-0.57-2.15-0.57-3.53v-10.01c0-0.32 0.17-0.48 0.52-0.48h2.99c0.32 0 0.48 0.16 0.48 0.48v9.94c0 0.8 0.09 1.48 0.26 2.03s0.42 0.99 0.76 1.31c0.33 0.32 0.74 0.55 1.22 0.69s1.03 0.21 1.65 0.21c0.57 0 1.14-0.04 1.7-0.1 0.56-0.07 1.04-0.17 1.43-0.31v-13.77c0-0.32 0.16-0.48 0.48-0.48z"/>
<path class="st0" d="m433.26 21.44c0 1.38 0.25 2.35 0.76 2.92 0.5 0.57 1.34 0.86 2.51 0.86 0.6 0 1.26-0.16 1.98-0.47s1.35-0.76 1.87-1.36v-9.39c-0.46-0.12-0.98-0.2-1.58-0.26s-1.17-0.09-1.72-0.09c-0.5 0-0.99 0.07-1.44 0.22-0.46 0.15-0.87 0.38-1.22 0.69-0.36 0.31-0.64 0.7-0.84 1.17-0.21 0.47-0.31 1.03-0.31 1.67zm7.54 5.13c-0.6 0.71-1.34 1.26-2.22 1.63-0.88 0.38-1.81 0.57-2.77 0.57-0.87 0-1.7-0.14-2.49-0.41s-1.49-0.71-2.1-1.29c-0.61-0.59-1.09-1.34-1.44-2.27-0.36-0.93-0.53-2.06-0.53-3.39v-3.96c0-1.26 0.22-2.35 0.65-3.27 0.44-0.92 1.01-1.67 1.74-2.27 0.72-0.6 1.57-1.04 2.53-1.34s1.97-0.45 3.03-0.45c1.12 0 2.26 0.1 3.42 0.31s2.29 0.5 3.39 0.89c0.25 0.11 0.38 0.3 0.38 0.55v15.96c0 0.34-0.16 0.52-0.48 0.52h-2.34c-0.32 0-0.5-0.15-0.55-0.45z"/>
<path class="st0" d="m457.1 28.67c-0.6 0.07-1.25 0.1-1.96 0.1-1.86 0-3.28-0.59-4.27-1.75-0.99-1.17-1.48-2.81-1.48-4.92v-17.82c0-0.34 0.17-0.52 0.52-0.52h2.96c0.34 0 0.52 0.17 0.52 0.52v17.68c0 1.15 0.18 1.96 0.55 2.44s0.94 0.72 1.72 0.72c0.21 0 0.42 0 0.64-0.02 0.22-0.01 0.44-0.03 0.67-0.05 0.34 0 0.52 0.17 0.52 0.52v2.55c0 0.14-0.03 0.26-0.09 0.36s-0.16 0.16-0.3 0.19"/>
<path class="st0" d="m461.27 28.36c-0.34 0-0.52-0.17-0.52-0.52v-16.82c0-0.32 0.17-0.48 0.52-0.48h2.99c0.32 0 0.48 0.16 0.48 0.48v16.82c0 0.34-0.16 0.52-0.48 0.52zm3.75-22.5c0 0.64-0.21 1.18-0.62 1.62s-0.95 0.65-1.62 0.65c-0.64 0-1.18-0.22-1.62-0.65-0.44-0.44-0.65-0.97-0.65-1.62 0-0.67 0.22-1.2 0.65-1.62 0.43-0.41 0.97-0.62 1.62-0.62 0.67 0 1.2 0.21 1.62 0.62 0.41 0.42 0.62 0.96 0.62 1.62"/>
<path class="st0" d="m474.49 24.35c0.47 0.52 1.14 0.77 2.01 0.77 0.16 0 0.36 0 0.62-0.02s0.52-0.03 0.79-0.05c0.37 0 0.55 0.16 0.55 0.48v2.61c0 0.14-0.04 0.26-0.1 0.36-0.07 0.1-0.2 0.16-0.38 0.19-0.3 0.02-0.61 0.04-0.95 0.05-0.33 0.01-0.63 0.02-0.88 0.02-0.89 0-1.73-0.12-2.51-0.36s-1.45-0.61-2.01-1.12c-0.56-0.5-1.01-1.16-1.34-1.96s-0.5-1.78-0.5-2.92v-15.71c0-0.32 0.17-0.48 0.52-0.48h2.62c0.3 0 0.47 0.15 0.52 0.45l0.31 4.13h3.68c0.34 0 0.52 0.16 0.52 0.48v2.51c0 0.32-0.17 0.48-0.52 0.48h-3.65v7.88c0 0.95 0.23 1.69 0.7 2.21"/>
<path class="st0" d="m493.02 11.02c0-0.32 0.17-0.48 0.52-0.48h2.96c0.34 0 0.52 0.16 0.52 0.48v16.2c0 2.66-0.62 4.66-1.86 6s-3.18 2.01-5.81 2.01c-1.47 0-2.74-0.18-3.8-0.53-1.07-0.36-2.05-0.9-2.94-1.63-0.25-0.18-0.29-0.41-0.1-0.69l1.48-2.1c0.18-0.3 0.4-0.36 0.65-0.17 0.66 0.46 1.38 0.84 2.13 1.14s1.6 0.45 2.54 0.45c0.6 0 1.13-0.07 1.62-0.21 0.48-0.14 0.88-0.38 1.2-0.72s0.56-0.8 0.72-1.38c0.16-0.57 0.23-1.3 0.21-2.17-0.55 0.18-1.14 0.33-1.77 0.45-0.63 0.11-1.27 0.17-1.91 0.17-0.89 0-1.78-0.14-2.66-0.43s-1.67-0.72-2.36-1.31c-0.69-0.58-1.25-1.31-1.68-2.18-0.44-0.87-0.65-1.9-0.65-3.1v-9.8c0-0.32 0.17-0.48 0.52-0.48h2.99c0.32 0 0.48 0.16 0.48 0.48v9.63c0 0.67 0.11 1.23 0.33 1.69s0.5 0.83 0.86 1.1c0.35 0.28 0.77 0.48 1.24 0.6 0.47 0.13 0.97 0.19 1.5 0.19 0.6 0.02 1.17-0.04 1.7-0.17 0.54-0.14 1-0.31 1.39-0.52v-12.52z"/>
<path class="st0" d="m518.82 6.93c-0.41-0.07-0.93-0.1-1.55-0.1-0.92 0-1.61 0.28-2.08 0.84s-0.71 1.34-0.71 2.32v0.79h3.96c0.34 0 0.52 0.17 0.52 0.52v2.48c0 0.34-0.17 0.52-0.52 0.52h-3.96v13.55c0 0.34-0.17 0.51-0.52 0.51h-2.96c-0.34 0-0.52-0.17-0.52-0.51v-17.85c0-1.1 0.16-2.07 0.48-2.91s0.76-1.53 1.32-2.08 1.22-0.96 1.96-1.24c0.74-0.27 1.54-0.41 2.39-0.41 0.87 0 1.57 0.05 2.1 0.14 0.32 0.02 0.48 0.21 0.48 0.55v2.37c0.02 0.34-0.12 0.51-0.39 0.51"/>
<path class="st0" d="m526.01 21.82c0 1.1 0.33 1.94 0.98 2.51s1.6 0.86 2.84 0.86 2.18-0.29 2.84-0.86c0.65-0.57 0.98-1.41 0.98-2.51v-4.61c0-1.15-0.33-2.02-0.98-2.62s-1.6-0.89-2.84-0.89-2.18 0.3-2.84 0.89c-0.65 0.6-0.98 1.47-0.98 2.62zm11.66 0c0 1.08-0.19 2.04-0.55 2.89-0.37 0.85-0.9 1.58-1.58 2.18-0.69 0.61-1.51 1.07-2.48 1.39-0.96 0.32-2.04 0.48-3.23 0.48s-2.27-0.16-3.23-0.48-1.79-0.78-2.48-1.39-1.21-1.34-1.58-2.18c-0.37-0.85-0.55-1.81-0.55-2.89v-4.61c0-1.08 0.18-2.05 0.55-2.92s0.89-1.62 1.58-2.24 1.51-1.09 2.48-1.43c0.96-0.33 2.04-0.5 3.23-0.5s2.27 0.17 3.23 0.5 1.79 0.81 2.48 1.43 1.21 1.37 1.58 2.24c0.36 0.87 0.55 1.85 0.55 2.92z"/>
<path class="st0" d="m542.72 28.36c-0.34 0-0.52-0.17-0.52-0.52v-15.82c0-0.3 0.13-0.49 0.38-0.59 0.87-0.43 1.83-0.76 2.87-0.98s2.09-0.33 3.15-0.33c0.53 0 1.08 0.02 1.65 0.05s1.19 0.11 1.86 0.22c0.3 0.02 0.45 0.2 0.45 0.52v2.48c0 0.34-0.18 0.48-0.55 0.41-0.44-0.07-0.9-0.11-1.38-0.12s-0.95-0.02-1.41-0.02c-0.62 0-1.2 0.05-1.74 0.14s-0.97 0.21-1.29 0.34v13.69c0 0.34-0.17 0.52-0.52 0.52z"/>
<path class="st0" d="m372.62 59.83c0 1.49 0.35 2.53 1.05 3.13s1.67 0.89 2.91 0.89c0.6 0 1.18-0.04 1.75-0.12s1.07-0.2 1.48-0.36v-10.21c-0.41-0.27-0.9-0.49-1.46-0.65s-1.18-0.24-1.84-0.24c-1.24 0-2.2 0.3-2.87 0.89-0.68 0.6-1.01 1.55-1.01 2.86zm7.19-16.96c0-0.34 0.17-0.52 0.52-0.52h2.96c0.34 0 0.52 0.17 0.52 0.52v22.67c0 0.3-0.13 0.49-0.38 0.59-1.03 0.39-2.17 0.69-3.4 0.91-1.24 0.22-2.42 0.33-3.54 0.33-1.15 0-2.2-0.15-3.15-0.45s-1.78-0.76-2.49-1.38-1.26-1.4-1.65-2.36c-0.39-0.95-0.59-2.08-0.59-3.39v-3.78c0-1.12 0.19-2.13 0.57-3.03 0.38-0.89 0.9-1.66 1.56-2.29 0.67-0.63 1.46-1.12 2.37-1.46 0.92-0.34 1.92-0.52 2.99-0.52 0.69 0 1.35 0.07 1.98 0.21s1.21 0.32 1.74 0.55v-6.6z"/>
<path class="st0" d="m389.44 66.95c-0.34 0-0.52-0.17-0.52-0.52v-16.82c0-0.32 0.17-0.48 0.52-0.48h2.99c0.32 0 0.48 0.16 0.48 0.48v16.82c0 0.34-0.16 0.52-0.48 0.52zm3.75-22.5c0 0.64-0.21 1.18-0.62 1.62s-0.95 0.65-1.62 0.65c-0.64 0-1.18-0.22-1.62-0.65-0.44-0.44-0.65-0.97-0.65-1.62 0-0.67 0.22-1.2 0.65-1.62 0.43-0.41 0.97-0.62 1.62-0.62 0.66 0 1.2 0.21 1.62 0.62 0.41 0.42 0.62 0.96 0.62 1.62"/>
<path class="st0" d="m411.49 61.65c0 0.96-0.19 1.8-0.57 2.51s-0.9 1.31-1.55 1.79-1.42 0.84-2.3 1.07-1.84 0.34-2.87 0.34c-1.17 0-2.35-0.17-3.54-0.52-1.19-0.34-2.34-0.92-3.44-1.72-0.28-0.16-0.32-0.39-0.14-0.69l1.31-2.24c0.16-0.3 0.39-0.34 0.69-0.14 0.78 0.57 1.62 1.01 2.51 1.31s1.79 0.45 2.68 0.45 1.65-0.17 2.27-0.5 0.93-0.83 0.93-1.5c0-0.34-0.09-0.63-0.27-0.86s-0.43-0.42-0.74-0.57-0.65-0.27-1.03-0.36-0.76-0.17-1.15-0.24c-0.64-0.11-1.36-0.28-2.17-0.5-0.8-0.22-1.56-0.54-2.27-0.96s-1.31-0.98-1.79-1.67-0.72-1.55-0.72-2.58c0-0.96 0.21-1.78 0.62-2.46s0.96-1.23 1.65-1.67 1.47-0.76 2.34-0.96c0.87-0.21 1.77-0.31 2.68-0.31 0.99 0 1.97 0.13 2.96 0.38 0.98 0.25 2 0.65 3.03 1.2 0.3 0.16 0.36 0.39 0.17 0.69l-1.31 2.2c-0.18 0.25-0.41 0.31-0.69 0.17-0.64-0.34-1.34-0.62-2.08-0.83s-1.51-0.31-2.29-0.31c-1.03 0-1.81 0.17-2.34 0.52-0.53 0.34-0.79 0.8-0.79 1.38 0 0.34 0.09 0.64 0.27 0.88s0.44 0.44 0.77 0.59 0.73 0.28 1.2 0.4 0.99 0.23 1.57 0.34c0.71 0.14 1.44 0.3 2.2 0.5 0.76 0.19 1.44 0.49 2.06 0.89s1.13 0.92 1.53 1.55c0.41 0.64 0.61 1.45 0.61 2.43"/>
<path class="st0" d="m418.95 60.04c0 1.38 0.25 2.35 0.76 2.92 0.5 0.57 1.34 0.86 2.51 0.86 0.6 0 1.26-0.16 1.98-0.47s1.35-0.76 1.88-1.36v-9.39c-0.46-0.12-0.99-0.2-1.58-0.26-0.6-0.06-1.17-0.09-1.72-0.09-0.5 0-0.99 0.07-1.44 0.22-0.46 0.15-0.86 0.38-1.22 0.69-0.35 0.31-0.64 0.7-0.84 1.17-0.21 0.47-0.31 1.03-0.31 1.67v4.04zm7.54 5.12c-0.6 0.71-1.34 1.26-2.22 1.63-0.88 0.38-1.81 0.57-2.77 0.57-0.87 0-1.7-0.14-2.49-0.41s-1.49-0.71-2.1-1.29c-0.61-0.59-1.09-1.34-1.44-2.27-0.36-0.93-0.53-2.06-0.53-3.39v-3.96c0-1.26 0.22-2.35 0.65-3.27 0.44-0.92 1.02-1.67 1.74-2.27s1.56-1.04 2.53-1.34c0.96-0.3 1.97-0.45 3.03-0.45 1.12 0 2.26 0.1 3.42 0.31s2.29 0.5 3.39 0.89c0.25 0.11 0.38 0.3 0.38 0.55v15.96c0 0.34-0.16 0.52-0.48 0.52h-2.34c-0.32 0-0.5-0.15-0.55-0.45z"/>
<path class="st0" d="m442.38 63.79c1.24 0 2.21-0.29 2.91-0.88 0.7-0.58 1.05-1.61 1.05-3.08v-3.82c0-1.31-0.34-2.26-1.01-2.86-0.68-0.6-1.63-0.89-2.87-0.89-0.67 0-1.27 0.08-1.82 0.24s-1.04 0.38-1.48 0.65v10.15c0.41 0.18 0.91 0.31 1.48 0.38 0.56 0.07 1.14 0.11 1.74 0.11m-3.23-14.31c0.53-0.23 1.11-0.41 1.74-0.55s1.29-0.21 1.98-0.21c1.08 0 2.08 0.17 2.99 0.52 0.92 0.34 1.71 0.83 2.39 1.46s1.2 1.39 1.58 2.29c0.38 0.89 0.57 1.9 0.57 3.03v3.78c0 1.31-0.2 2.44-0.6 3.39s-0.95 1.74-1.65 2.36-1.54 1.08-2.51 1.38-2.02 0.45-3.15 0.45c-1.12 0-2.3-0.11-3.53-0.33s-2.36-0.52-3.39-0.91c-0.28-0.09-0.41-0.29-0.41-0.58v-22.67c0-0.34 0.17-0.52 0.52-0.52h2.96c0.35 0 0.52 0.17 0.52 0.52v6.59z"/>
<path class="st0" d="m462.54 67.26c-0.6 0.07-1.25 0.1-1.96 0.1-1.86 0-3.28-0.59-4.27-1.75-0.98-1.17-1.48-2.81-1.48-4.92v-17.82c0-0.34 0.17-0.52 0.52-0.52h2.96c0.34 0 0.52 0.17 0.52 0.52v17.68c0 1.15 0.18 1.96 0.55 2.44s0.94 0.72 1.72 0.72c0.21 0 0.42 0 0.64-0.02 0.22-0.01 0.44-0.03 0.67-0.05 0.34 0 0.52 0.17 0.52 0.52v2.55c0 0.14-0.03 0.26-0.09 0.36-0.07 0.11-0.17 0.17-0.3 0.19"/>
<path class="st0" d="m476.74 55.74c0-1.26-0.35-2.16-1.05-2.7s-1.53-0.81-2.5-0.81c-1.01 0-1.85 0.27-2.53 0.81s-1.01 1.44-1.01 2.7v0.89h7.09zm3.89 3.51c0 0.32-0.17 0.48-0.52 0.48h-10.46v0.96c0 1.06 0.33 1.85 1 2.37s1.55 0.79 2.65 0.79c1.08 0 2-0.15 2.75-0.46 0.76-0.31 1.46-0.68 2.1-1.12 0.28-0.18 0.5-0.15 0.69 0.1l1.41 1.89c0.23 0.25 0.19 0.49-0.1 0.72-0.92 0.73-1.94 1.31-3.08 1.74-1.14 0.42-2.44 0.64-3.9 0.64-0.96 0-1.9-0.14-2.8-0.41-0.91-0.27-1.71-0.69-2.41-1.24s-1.26-1.24-1.69-2.08c-0.42-0.84-0.64-1.83-0.64-2.98v-4.89c0-1.26 0.22-2.34 0.65-3.23s1.01-1.62 1.72-2.19c0.71-0.56 1.52-0.97 2.43-1.24 0.9-0.26 1.83-0.4 2.77-0.4s1.86 0.13 2.75 0.4c0.89 0.26 1.68 0.68 2.37 1.24s1.24 1.29 1.67 2.19c0.42 0.89 0.64 1.97 0.64 3.23z"/>
<path class="st0" d="m488.44 59.83c0 1.49 0.35 2.53 1.05 3.13s1.67 0.89 2.91 0.89c0.6 0 1.18-0.04 1.75-0.12s1.07-0.2 1.48-0.36v-10.21c-0.41-0.27-0.9-0.49-1.46-0.65s-1.18-0.24-1.84-0.24c-1.24 0-2.19 0.3-2.87 0.89-0.68 0.6-1.02 1.55-1.02 2.86zm7.19-16.96c0-0.34 0.17-0.52 0.52-0.52h2.96c0.34 0 0.52 0.17 0.52 0.52v22.67c0 0.3-0.12 0.49-0.38 0.59-1.03 0.39-2.17 0.69-3.41 0.91s-2.42 0.33-3.54 0.33c-1.15 0-2.2-0.15-3.15-0.45s-1.78-0.76-2.49-1.38-1.26-1.4-1.65-2.36c-0.39-0.95-0.59-2.08-0.59-3.39v-3.78c0-1.12 0.19-2.13 0.57-3.03 0.38-0.89 0.9-1.66 1.56-2.29s1.46-1.12 2.37-1.46c0.92-0.34 1.92-0.52 2.99-0.52 0.69 0 1.35 0.07 1.98 0.21s1.21 0.32 1.74 0.55z"/>
<path class="st0" d="m520.26 63.85c1.24 0 2.2-0.3 2.87-0.91 0.68-0.61 1.01-1.56 1.01-2.87v-3.85c0-1.49-0.35-2.53-1.05-3.11-0.7-0.59-1.67-0.88-2.91-0.88-0.6 0-1.18 0.03-1.75 0.1s-1.07 0.2-1.48 0.38v10.18c0.44 0.3 0.93 0.53 1.48 0.7 0.56 0.18 1.16 0.26 1.83 0.26m-6.91-13.89c1.03-0.39 2.17-0.69 3.4-0.91 1.24-0.22 2.42-0.33 3.54-0.33s2.17 0.15 3.15 0.45c0.97 0.3 1.81 0.76 2.51 1.38s1.25 1.4 1.65 2.34 0.6 2.06 0.6 3.37v3.78c0 1.12-0.19 2.14-0.57 3.04-0.38 0.91-0.91 1.67-1.58 2.3-0.68 0.63-1.48 1.12-2.41 1.46s-1.94 0.52-3.04 0.52c-0.69 0-1.34-0.07-1.94-0.21-0.61-0.14-1.18-0.32-1.7-0.55v6.36c0 0.34-0.17 0.52-0.52 0.52h-2.96c-0.34 0-0.52-0.17-0.52-0.52v-22.45c0.01-0.28 0.13-0.46 0.39-0.55"/>
<path class="st0" d="m543.31 55.74c0-1.26-0.35-2.16-1.05-2.7s-1.53-0.81-2.5-0.81c-1.01 0-1.85 0.27-2.53 0.81s-1.01 1.44-1.01 2.7v0.89h7.09zm3.88 3.51c0 0.32-0.17 0.48-0.52 0.48h-10.46v0.96c0 1.06 0.33 1.85 1 2.37s1.55 0.79 2.65 0.79c1.08 0 2-0.15 2.75-0.46 0.76-0.31 1.46-0.68 2.1-1.12 0.28-0.18 0.5-0.15 0.69 0.1l1.41 1.89c0.23 0.25 0.19 0.49-0.1 0.72-0.92 0.73-1.94 1.31-3.08 1.74-1.14 0.42-2.44 0.64-3.9 0.64-0.96 0-1.9-0.14-2.8-0.41-0.91-0.27-1.71-0.69-2.41-1.24s-1.26-1.24-1.69-2.08c-0.42-0.84-0.64-1.83-0.64-2.98v-4.89c0-1.26 0.22-2.34 0.65-3.23s1.01-1.62 1.72-2.19c0.71-0.56 1.52-0.97 2.43-1.24 0.9-0.26 1.83-0.4 2.77-0.4s1.86 0.13 2.75 0.4c0.89 0.26 1.68 0.68 2.37 1.24s1.24 1.29 1.67 2.19c0.42 0.89 0.64 1.97 0.64 3.23z"/>
<path class="st0" d="m555.04 60.42c0 1.1 0.33 1.94 0.98 2.51s1.6 0.86 2.84 0.86 2.18-0.29 2.84-0.86c0.65-0.57 0.98-1.41 0.98-2.51v-4.61c0-1.15-0.33-2.02-0.98-2.62s-1.6-0.89-2.84-0.89-2.18 0.3-2.84 0.89c-0.65 0.6-0.98 1.47-0.98 2.62zm11.66 0c0 1.08-0.18 2.04-0.55 2.89s-0.89 1.58-1.58 2.18c-0.69 0.61-1.51 1.07-2.48 1.39-0.96 0.32-2.04 0.48-3.23 0.48s-2.27-0.16-3.24-0.48c-0.96-0.32-1.79-0.78-2.48-1.39s-1.22-1.34-1.58-2.18c-0.37-0.85-0.55-1.81-0.55-2.89v-4.61c0-1.08 0.18-2.05 0.55-2.92s0.89-1.62 1.58-2.24 1.51-1.09 2.48-1.43c0.96-0.33 2.04-0.5 3.23-0.5s2.27 0.17 3.23 0.5 1.79 0.81 2.48 1.43 1.21 1.37 1.58 2.24 0.55 1.85 0.55 2.92v4.61z"/>
<path class="st0" d="m578.53 63.85c1.24 0 2.2-0.3 2.87-0.91 0.68-0.61 1.01-1.56 1.01-2.87v-3.85c0-1.49-0.35-2.53-1.05-3.11-0.7-0.59-1.67-0.88-2.91-0.88-0.6 0-1.18 0.03-1.75 0.1s-1.07 0.2-1.48 0.38v10.18c0.44 0.3 0.93 0.53 1.48 0.7 0.56 0.18 1.17 0.26 1.83 0.26m-6.91-13.89c1.03-0.39 2.17-0.69 3.41-0.91s2.42-0.33 3.54-0.33 2.17 0.15 3.15 0.45c0.97 0.3 1.81 0.76 2.51 1.38s1.25 1.4 1.65 2.34 0.6 2.06 0.6 3.37v3.78c0 1.12-0.19 2.14-0.57 3.04-0.38 0.91-0.91 1.67-1.58 2.3-0.68 0.63-1.48 1.12-2.41 1.46s-1.94 0.52-3.04 0.52c-0.69 0-1.34-0.07-1.94-0.21-0.61-0.14-1.18-0.32-1.7-0.55v6.36c0 0.34-0.17 0.52-0.51 0.52h-2.96c-0.34 0-0.52-0.17-0.52-0.52v-22.45c-0.01-0.28 0.11-0.46 0.37-0.55"/>
<path class="st0" d="m598.62 67.26c-0.6 0.07-1.25 0.1-1.96 0.1-1.86 0-3.28-0.59-4.27-1.75-0.99-1.17-1.48-2.81-1.48-4.92v-17.82c0-0.34 0.17-0.52 0.52-0.52h2.96c0.34 0 0.51 0.17 0.51 0.52v17.68c0 1.15 0.19 1.96 0.55 2.44 0.37 0.48 0.94 0.72 1.72 0.72 0.21 0 0.42 0 0.64-0.02 0.22-0.01 0.44-0.03 0.67-0.05 0.34 0 0.52 0.17 0.52 0.52v2.55c0 0.14-0.03 0.26-0.09 0.36-0.05 0.11-0.15 0.17-0.29 0.19"/>
<path class="st0" d="m612.83 55.74c0-1.26-0.35-2.16-1.05-2.7s-1.53-0.81-2.49-0.81c-1.01 0-1.85 0.27-2.53 0.81s-1.02 1.44-1.02 2.7v0.89h7.09zm3.89 3.51c0 0.32-0.17 0.48-0.52 0.48h-10.46v0.96c0 1.06 0.33 1.85 1 2.37 0.67 0.53 1.55 0.79 2.65 0.79 1.08 0 2-0.15 2.75-0.46 0.76-0.31 1.46-0.68 2.1-1.12 0.27-0.18 0.5-0.15 0.69 0.1l1.41 1.89c0.23 0.25 0.19 0.49-0.1 0.72-0.92 0.73-1.94 1.31-3.08 1.74-1.13 0.42-2.44 0.64-3.91 0.64-0.96 0-1.9-0.14-2.8-0.41-0.91-0.27-1.71-0.69-2.41-1.24s-1.26-1.24-1.68-2.08-0.64-1.83-0.64-2.98v-4.89c0-1.26 0.22-2.34 0.65-3.23 0.44-0.89 1.01-1.62 1.72-2.19 0.71-0.56 1.52-0.97 2.42-1.24 0.91-0.26 1.83-0.4 2.77-0.4s1.86 0.13 2.75 0.4c0.9 0.26 1.69 0.68 2.38 1.24s1.24 1.29 1.67 2.19c0.43 0.89 0.64 1.97 0.64 3.23z"/>
<path class="st0" d="m177.92 12.38v52.85c0 1.06 0.53 1.59 1.5 1.59h11.14c0.97 0 1.5-0.53 1.5-1.59v-16.79h10.78c13.96 0 22.63-8.57 22.63-22.45 0-13.52-8.48-22.36-22.63-22.36h-16.17c-5.66 0-8.75 3.01-8.75 8.75m14.14 22.89v-18.56h8.84c6.63 0 9.98 3.09 9.98 9.28s-3.36 9.28-9.98 9.28zm-52.23-19.35c7.51 0 11.23 3.98 11.23 11.84v14.85c0 7.86-3.71 11.84-11.23 11.84-7.51 0-11.22-3.98-11.22-11.84v-14.85c-0.01-7.86 3.71-11.84 11.22-11.84m0 51.96c16.26 0 25.72-9.19 25.72-25.01v-15.37c0-15.82-9.46-25.01-25.72-25.01s-25.72 9.19-25.72 25.01v15.37c0 15.82 9.45 25.01 25.72 25.01m205.43-38.97c0.97 0 1.5-0.53 1.5-1.5v-9.55c0-0.97-0.53-1.5-1.5-1.5h-42.6c-0.98 0-1.5 0.53-1.5 1.5v9.55c0 0.97 0.53 1.5 1.5 1.5zm0 25.1c0.97 0 1.5-0.53 1.5-1.5v-9.55c0-0.97-0.53-1.5-1.5-1.5h-42.6c-0.98 0-1.5 0.53-1.5 1.5v9.55c0 0.97 0.53 1.5 1.5 1.5zm-319.35 13.87c15.91 0 24.13-8.04 24.13-20.06 0-9.28-4.42-16.35-19-18.82-12.02-2.03-13.7-4.24-13.7-7.95 0-2.83 2.56-5.75 9.63-5.75 3.98 0 8.84 1.15 13.79 3.71 0.88 0.44 1.59 0.44 2.21-0.44l4.5-8.57c0.53-0.98 0.36-1.77-0.36-2.21-3.71-2.21-10.6-5.3-20.85-5.3-13.35 0-23.42 7.34-23.42 19.27 0 11.84 8.13 16.79 22 19.35 8.22 1.51 10.87 3.1 10.87 7.43 0 3.71-3.54 6.19-10.16 6.19-5.92 0-11.4-1.86-16.79-4.42-0.89-0.44-1.68-0.44-2.13 0.45l-4.42 8.48c-0.45 0.88-0.62 1.59 0.35 2.21 3.81 2.55 12.57 6.43 23.35 6.43m59.65-65.39c-16.26 0-25.72 9.19-25.72 25.01v15.37c0 15.82 9.46 25.01 25.72 25.01 7.24 0 14.05-2.03 20.06-6.27 0.62-0.44 0.71-1.15 0.09-1.95l-5.65-8.48c-0.53-0.89-1.24-0.97-2.13-0.36-3.62 2.48-7.86 3.62-12.37 3.62-7.25 0-10.87-3.98-10.87-11.84v-14.85c0-7.87 3.71-11.84 10.87-11.84 4.07 0 8.22 1.15 11.31 3.18 0.89 0.53 1.59 0.35 2.21-0.44l5.57-8.48c0.62-0.8 0.44-1.5-0.45-2.03-5.12-3.62-11.92-5.65-18.64-5.65m150.52 55.59c0 5.74 3.09 8.75 8.74 8.75h31.73c1.06 0 1.59-0.53 1.59-1.59v-9.72c0-0.97-0.53-1.5-1.59-1.5h-26.25v-12.55h21.92c1.06 0 1.59-0.53 1.59-1.5v-9.55c0-0.97-0.53-1.5-1.59-1.5h-21.92v-12.46h24.84c1.06 0 1.59-0.53 1.59-1.5v-9.72c0-1.06-0.53-1.59-1.59-1.59h-30.32c-5.65 0-8.74 3.01-8.74 8.75z"/>
</g>
</svg>
