<?xml version="1.0" encoding="UTF-8"?>
<svg width="250" height="90" version="1.1" viewBox="0 0 66.146 23.813" xmlns="http://www.w3.org/2000/svg" xmlns:cc="http://creativecommons.org/ns#" xmlns:dc="http://purl.org/dc/elements/1.1/" xmlns:rdf="http://www.w3.org/1999/02/22-rdf-syntax-ns#">
<metadata>
<rdf:RDF>
<cc:Work rdf:about="">
<dc:format>image/svg+xml</dc:format>
<dc:type rdf:resource="http://purl.org/dc/dcmitype/StillImage"/>
<dc:title/>
</cc:Work>
</rdf:RDF>
</metadata>
<path d="m27.591 19.506-0.01293-2.3991-0.67309-0.23407c-0.78753-0.27387-1.5753-0.61048-2.2561-0.96407l-0.48613-0.25246v-11.5l0.65168-0.32655c2.3956-1.2004 4.7003-1.7686 7.1724-1.7681 2.5125 5.105e-4 4.8569 0.57934 7.2334 1.7859l0.57338 0.29111 0.03683 1.2175c0.02026 0.66965 0.03147 3.2593 0.02493 5.7547l-0.0119 4.5372-0.76712 0.38204c-0.82469 0.41071-1.2635 0.59584-2.1247 0.89643l-0.54845 0.19143-0.01295 2.3937c-0.0071 1.3165-0.02219 2.3937-0.03351 2.3937-0.0113 0-0.97026-0.6189-2.131-1.3753-1.8581-1.2109-2.129-1.3724-2.2653-1.3505-0.08862 0.0142-1.0426 0.60236-2.2309 1.3753-1.1418 0.74277-2.0872 1.3505-2.1008 1.3505-0.01364 0-0.03055-1.0796-0.03774-2.3991zm6.2138-2.7609c1.5688-0.20776 3.2955-0.73471 4.68-1.4282l0.48613-0.2435v-1.8112c0-0.99615-0.01492-3.3309-0.03315-5.1884l-0.033156-3.3772-0.34129-0.17187c-1.3234-0.66646-3.1036-1.2213-4.6531-1.4503-0.75223-0.11117-2.9373-0.12521-3.6646-0.023532-1.5986 0.22345-3.1314 0.68472-4.6724 1.4061l-0.51294 0.24012v10.411l0.53598 0.25434c1.7755 0.84252 3.5686 1.3219 5.5219 1.4761 0.49588 0.03916 2.1074-0.01715 2.6867-0.09389zm-7.9954-2.7277c7.09e-4 -0.03573 0.17751-0.58097 0.39289-1.2117l0.3916-1.1468h0.62337l0.39024 1.1468c0.21463 0.63072 0.39117 1.176 0.39232 1.2117 0.0015 0.04722-0.0694 0.06078-0.25968 0.04986l-0.26176-0.01508-0.07115-0.23683-0.07115-0.23682h-0.8623l-0.07115 0.23682-0.07108 0.23683-0.26176 0.01508c-0.18997 0.01096-0.2614-0.0024-0.26046-0.04986zm1.2517-1.3362c-0.07212-0.24675-0.1424-0.44863-0.15611-0.44863-0.01373 0-0.08397 0.20188-0.15611 0.44863l-0.13119 0.44862h0.5746zm1.6643 1.3361c-0.06972-0.19518-0.62382-2.2502-0.62382-2.3134 0-0.05919 0.05513-0.07187 0.2606-0.05998l0.2606 0.01508 0.13445 0.57338c0.07395 0.31536 0.16422 0.71649 0.2006 0.89139l0.06614 0.31802 0.44873-1.5335 0.262-0.01508c0.3088-0.01779 0.27408-0.07451 0.55205 0.90246 0.13672 0.48053 0.18988 0.6098 0.21528 0.52352 0.01855-0.06302 0.10549-0.45111 0.1932-0.86245 0.0877-0.41134 0.17625-0.766 0.19677-0.78813 0.02052-0.02209 0.15004-0.03334 0.28781-0.02488l0.2505 0.01532-0.66126 2.3932-0.25372 0.01475c-0.16326 0.0095-0.27269-0.0082-0.30691-0.04986-0.06517-0.07921-0.41162-1.2115-0.41162-1.3453 0-0.13298-0.09905-0.06095-0.1025 0.07451-0.0016 0.06006-0.08764 0.37848-0.19134 0.70755l-0.18856 0.59831-0.28292 0.015c-0.19812 0.01041-0.28986-0.0048-0.30607-0.04986zm2.7657 0.02505c-4.89e-4 -0.02202 0.18212-0.57386 0.40581-1.2264l0.4067-1.1863 0.6052 0.02936 0.38576 1.1218c0.21217 0.61701 0.38699 1.1623 0.38849 1.2117 0.0023 0.0773-0.03362 0.08775-0.25678 0.07474l-0.25952-0.01508-0.07388-0.23864-0.07388-0.23864-0.84083 0.02856-0.08251 0.22436c-0.08209 0.22323-0.08383 0.22444-0.34309 0.23943-0.14332 0.0083-0.26098-0.0032-0.26147-0.02488zm1.3776-0.99069c-0.01649-0.04299-0.07868-0.24572-0.13818-0.45051-0.0595-0.20479-0.12476-0.35472-0.14501-0.33317-0.03392 0.03605-0.24594 0.74958-0.24594 0.82763 0 0.01883 0.1258 0.03423 0.27956 0.03423 0.23338 0 0.2746-0.01293 0.24956-0.07817zm1.1661-0.19846v-1.2294l0.61077 0.01763c0.69524 0.02002 0.90742 0.10301 1.0542 0.41232 0.16709 0.35212 0.0591 0.85798-0.21667 1.0149-0.08323 0.04739-0.15148 0.10396-0.15165 0.12577-1.5e-4 0.02177 0.11187 0.2059 0.24898 0.40909 0.13711 0.20318 0.2493 0.39288 0.2493 0.42155 0 0.02991-0.11615 0.05209-0.27225 0.05209h-0.27225l-0.25898-0.4238c-0.20431-0.33434-0.28324-0.42381-0.3739-0.42381-0.10953 0-0.1156 0.01931-0.1294 0.41134l-0.01448 0.41134-0.47366 0.0303zm1.1054-0.15491c0.11269-0.10199 0.12002-0.38012 0.01283-0.48731-0.05199-0.05201-0.16943-0.07834-0.34901-0.07834h-0.27066v0.64816h0.25783c0.16995 0 0.28891-0.02816 0.34901-0.08251zm1.1131 1.3216c-0.01467-0.03821-0.02063-0.58508-0.01325-1.2152l0.01344-1.1457h0.62324c0.68621 0 0.85276 0.05313 1.0668 0.34021 0.09525 0.12779 0.10492 0.20675 0.10492 0.85642 0 0.81371-0.03652 0.91313-0.40209 1.0946-0.25701 0.12755-1.3498 0.18223-1.393 0.06973zm1.0879-0.49863c0.17006-0.08951 0.18212-0.13421 0.18293-0.6781 9.58e-4 -0.63484-0.0494-0.71049-0.4729-0.71049h-0.27422v1.4459h0.22764c0.1252 0 0.27665-0.02577 0.33655-0.05735zm-11.48-3.0464c0.0016-0.0343 0.15306-0.48861 0.33655-1.0096l0.33363-0.94732h0.49858l0.33297 0.97225c0.18313 0.53475 0.33458 0.98908 0.33655 1.0096 0.0015 0.02058-0.09648 0.03741-0.21877 0.03741-0.21623 0-0.22401-0.0055-0.28212-0.19944l-0.05975-0.19944h-0.3651c-0.35711 0-0.36582 0.0032-0.39786 0.13711-0.05025 0.21025-0.11403 0.26176-0.32426 0.26176-0.12298 0-0.19226-0.02266-0.1904-0.0623zm1.1251-0.82267c-0.01403-0.04802-0.06198-0.21627-0.10662-0.37394-0.04459-0.15768-0.08982-0.28669-0.10043-0.28669-0.01915 0-0.22294 0.65444-0.22294 0.71587 0 0.01763 0.10248 0.03199 0.22772 0.03199 0.19335 0 0.22388-0.01316 0.20226-0.08726zm1.2303 0.7873c-0.25667-0.1565-0.31404-0.32538-0.31404-0.92441 0-0.59904 0.05736-0.76792 0.31404-0.92441 0.1996-0.12171 0.71818-0.1337 0.93491-0.02162 0.17251 0.08921 0.17262 0.0897 0.06098 0.2787-0.05904 0.09995-0.11 0.13497-0.16204 0.11139-0.04176-0.01891-0.17251-0.04411-0.29056-0.05608-0.34759-0.0351-0.40859 0.05624-0.40859 0.61204 0 0.38058 0.01547 0.47218 0.09118 0.54072 0.10685 0.09671 0.39686 0.10789 0.58419 0.02257 0.11753-0.05352 0.14168-0.0469 0.2256 0.0623 0.05169 0.06725 0.09449 0.15149 0.0951 0.18716 0.0034 0.2025-0.84446 0.28623-1.1308 0.11166zm1.8655 0.06685c-0.01958-0.01963-0.03561-0.39086-0.03561-0.82505v-0.78944h-0.54845v-0.39887h1.5456v0.39887h-0.54598l-0.01369 0.81021-0.01369 0.81021-0.17629 0.01483c-0.09696 0.0082-0.19232-7.97e-4 -0.2119-0.02074zm1.2607-0.99124v-1.0221h0.39887v2.0442h-0.39887zm1.362 0.96218c-0.06172-0.07945-0.66393-1.8151-0.66393-1.9135 0-0.078654 0.37264-0.10367 0.41933-0.02816 0.01449 0.02345 0.11739 0.33194 0.22867 0.68557 0.11128 0.35362 0.21533 0.6766 0.23122 0.71773 0.0159 0.04117 0.13936-0.26737 0.27438-0.68556l0.24549-0.76036h0.22285c0.12257 0 0.22157 0.01683 0.22001 0.03741-0.0015 0.02058-0.15353 0.47491-0.33769 1.0096l-0.33484 0.97225-0.22759 0.01483c-0.14327 0.0093-0.24622-0.0091-0.27789-0.04986zm1.4535-7.98e-4c-0.01411-0.03677-0.01955-0.4925-0.01207-1.0127l0.0136-0.94579h0.39887v1.9944l-0.18737 0.01548c-0.12247 0.01018-0.19626-8e-3 -0.21304-0.05137zm1.2729-0.76185v-0.82267h-0.60433l0.01548-0.18698 0.01547-0.18697h1.5456l0.03064 0.3688-0.28955 0.015-0.28955 0.01508-0.01369 0.81021-0.01369 0.81021h-0.39641zm1.7308 0.79181c-0.01958-0.01963-0.03561-0.18927-0.03561-0.37708 0-0.31781-0.02073-0.38283-0.29916-0.93824-0.16454-0.32824-0.29916-0.61956-0.29916-0.64741 0-0.072912 0.38529-0.062541 0.43333 0.01173 0.02218 0.0343 0.10871 0.21576 0.19229 0.40331 0.08357 0.18754 0.17102 0.34045 0.19433 0.33978 0.02331-6.54e-4 0.10913-0.1541 0.19073-0.34099 0.08159-0.18688 0.17078-0.36783 0.19818-0.40211 0.05944-0.074347 0.43649-0.084398 0.43649-0.01165 0 0.02792-0.12855 0.30273-0.28566 0.61078-0.25952 0.50882-0.28804 0.59659-0.31162 0.95896l-0.02596 0.39887-0.17629 0.01483c-0.09696 0.0082-0.19232-7.97e-4 -0.2119-0.02074zm-10.705-4.0544v-0.8009h0.35155l-0.01371 0.78528-0.01373 0.78528-0.32408 0.03127zm0.69803-0.00319v-0.79774h0.38253l0.53986 1.0221 0.0142-0.51105 0.0142-0.51105h0.29567v1.5955h-0.17057c-0.16206 0-0.18309-0.021778-0.42164-0.43626-0.13809-0.23995-0.26979-0.46751-0.29268-0.50569-0.02321-0.038769-0.03263 0.15382-0.0213 0.43627l0.02035 0.50569h-0.36061zm1.8503 0.72817c-0.19758-0.10951-0.25111-0.26913-0.25302-0.75447-0.0016-0.32945 0.01906-0.47988 0.07605-0.5612 0.17394-0.24833 0.55935-0.32854 0.89825-0.18694 0.17301 0.072272 0.17412 0.074666 0.09266 0.19901-0.06697 0.1022-0.1072 0.11928-0.21411 0.090891-0.18403-0.0489-0.34531-0.035179-0.43189 0.036695-0.11572 0.096036-0.10238 0.75545 0.01747 0.86391 0.10453 0.0946 0.24302 0.10464 0.43525 0.03151 0.10911-0.041481 0.14653-0.034541 0.2011 0.037413 0.03688 0.048581 0.06776 0.11281 0.06863 0.14269 0.0045 0.15662-0.65483 0.23103-0.89039 0.10046zm1.1413-0.72817v-0.79774h0.34901v1.2963h0.64817v0.29915h-0.99718zm1.4514 0.72817c-0.21144-0.11719-0.25112-0.26073-0.25302-0.91513l-0.0018-0.61078h0.34901v0.59655c0 0.53877 0.0093 0.60155 0.09644 0.64817 0.15345 0.082116 0.2906 0.060467 0.37439-0.05919 0.05859-0.083656 0.07762-0.24252 0.07762-0.64817v-0.53735h0.34901v0.55005c0 0.5995-0.06039 0.82774-0.25512 0.96413-0.14117 0.098884-0.56709 0.10567-0.73657 0.011727zm1.4654-0.00558c-0.22368-0.12023-0.2369-0.14737-0.13379-0.2747 0.09261-0.11437 0.09821-0.11505 0.27129-0.032946 0.21841 0.10364 0.40417 0.10736 0.48522 0.00973 0.10269-0.12373 0.0212-0.21191-0.27557-0.29818-0.36636-0.1065-0.52165-0.25957-0.52165-0.51416 0-0.38195 0.44646-0.56931 0.92298-0.38733 0.24928 0.095199 0.25641 0.10816 0.14604 0.26573-0.06259 0.08936-0.0965 0.10094-0.17403 0.05943-0.13199-0.070598-0.43792-0.07682-0.50456-0.010206-0.10162 0.10161 5.66e-4 0.20157 0.29185 0.28552 0.15949 0.045949 0.34046 0.13043 0.40216 0.18769 0.15475 0.14364 0.15205 0.43371-0.0058 0.61716-0.10147 0.11797-0.16235 0.13958-0.43627 0.15484-0.2257 0.012603-0.36186-0.00558-0.46792-0.06262zm1.3213-0.71918v-0.8009h0.35155l-0.01373 0.78528-0.01373 0.78528-0.32408 0.03127zm1.0706 0.74258c-0.02823-0.045708-0.5222-1.4922-0.5222-1.5291 0-0.00798 0.07775-0.014359 0.17279-0.014359h0.17279l0.38806 1.2162 0.37959-1.2162h0.38109l-0.09201 0.23683c-0.0506 0.13026-0.17553 0.48924-0.27762 0.79774l-0.18561 0.56092h-0.19237c-0.1058 0-0.20684-0.023373-0.22451-0.052011zm1.173-0.74574v-0.79774h0.99718v0.29916h-0.64817v0.34901h0.30247c0.30055 0 0.30237 7.977e-4 0.28669 0.13712-0.01493 0.1298-0.03107 0.13791-0.30247 0.15206l-0.28669 0.014917v0.34404h0.69803v0.29916h-1.047z" fill="#fff" stroke-width=".049859"/>
</svg>
