<?xml version="1.0" encoding="UTF-8"?>
<svg version="1.1" viewBox="0 0 250 91" xmlns="http://www.w3.org/2000/svg" xmlns:cc="http://creativecommons.org/ns#" xmlns:dc="http://purl.org/dc/elements/1.1/" xmlns:rdf="http://www.w3.org/1999/02/22-rdf-syntax-ns#">
<metadata>
<rdf:RDF>
<cc:Work rdf:about="">
<dc:format>image/svg+xml</dc:format>
<dc:type rdf:resource="http://purl.org/dc/dcmitype/StillImage"/>
<dc:title/>
</cc:Work>
</rdf:RDF>
</metadata>
<g transform="translate(0,-961.4)">
<path d="m56.227 1042.7c-0.71295-0.2285-0.84812-0.359-0.70277-0.6779 0.12789-0.2808 0.15322-0.2871 0.4773-0.1195 0.8476 0.4382 1.8154 0.011 1.8154-0.8003v-0.3797l-0.3208 0.2524c-0.71285 0.5607-1.8995 0.1378-2.2237-0.7924-0.23831-0.6836-0.09275-1.3342 0.4113-1.8382 0.33569-0.3358 0.49552-0.4045 0.94115-0.4045 0.29523 0 0.64314 0.081 0.77313 0.1789 0.30415 0.2299 0.41897 0.231 0.41897 0.011 0-0.1218 0.12175-0.1827 0.36526-0.1827h0.36526l-2.43e-4 1.735c-2.44e-4 1.8912-0.12058 2.3509-0.73033 2.7883-0.36084 0.2587-1.153 0.3767-1.5899 0.2368zm1.3159-2.519c0.57974-0.6488 0.15794-1.6323-0.70008-1.6323-0.93098 0-1.2949 1.0372-0.6057 1.7264 0.43429 0.4342 0.86116 0.4035 1.3058-0.094zm-28.825 0.1332v-2.3743h0.36526c0.28836 0 0.36526 0.053 0.36526 0.2524v0.2524l0.3208-0.2524c0.60013-0.472 1.6887-0.2533 2.1718 0.4364 0.46471 0.6635 0.30875 1.8842-0.30691 2.4021-0.52856 0.4449-1.1001 0.5207-1.6974 0.2251l-0.48822-0.2416v1.674h-0.73052zm2.4972 0.037c0.26602-0.3161 0.3144-0.4699 0.25844-0.8218-0.08377-0.5266-0.56852-0.9806-1.0471-0.9806-0.4749 0-0.97806 0.6026-0.97806 1.1715 0 0.9741 1.1364 1.3801 1.7667 0.6309zm68.363-0.037v-2.3743h0.36525c0.28836 0 0.36526 0.053 0.36526 0.2524v0.2524l0.3208-0.2524c0.72204-0.568 1.9241-0.1746 2.2944 0.7509 0.60612 1.5149-0.75288 2.9925-2.127 2.3127l-0.48822-0.2416v1.674h-0.73051zm2.4851 0.052c0.3612-0.4292 0.3914-0.7076 0.1313-1.2106-0.36559-0.707-1.0818-0.8127-1.5707-0.2317-0.63853 0.7588-0.22894 1.8169 0.70333 1.8169 0.32048 0 0.49603-0.089 0.73606-0.3746zm56.826 1.1668c-0.68179-0.2126-1.0537-0.5688-1.3232-1.2671-0.18178-0.4709-0.21614-0.9568-0.21614-3.0559v-2.4959l0.45658-0.038 0.45658-0.037v2.4463c0 2.7464 0.0797 3.1203 0.75362 3.5311 0.7519 0.4584 2.1986 0.2419 2.5543-0.3823 0.11498-0.2017 0.17966-1.044 0.22287-2.9018l0.0609-2.6178 0.45658-0.037 0.45657-0.038v2.4203c0 2.8268-0.12052 3.442-0.78938 4.0292-0.70618 0.6201-1.9528 0.7996-3.0893 0.4451zm14.367 0.05c-1.7411-0.532-2.6773-2.4661-2.1639-4.4701 0.35373-1.3808 1.171-2.1935 2.4787-2.465 1.6516-0.3428 3.1938 0.5094 3.744 2.0688 0.2287 0.6482 0.23378 2.2143 9e-3 2.8439-0.45996 1.2895-1.4765 2.0398-2.8559 2.1078-0.44194 0.022-0.9874-0.017-1.2121-0.085zm1.7081-0.7734c1.5033-0.315 2.1587-2.9141 1.1296-4.4793-0.52984-0.8059-1.7462-1.1746-2.695-0.8169-1.5235 0.5745-2.0302 3.2418-0.8673 4.5663 0.44316 0.5048 0.73801 0.68 1.316 0.782 0.43019 0.076 0.52706 0.072 1.1168-0.052zm34.277 0.758c-0.615-0.1631-1.2444-0.7769-1.4106-1.3756-0.0785-0.2829-0.1351-1.5404-0.13549-3.012l-6.8e-4 -2.5263h0.85227l7e-3 2.4046c8e-3 2.7109 0.0877 3.1075 0.71122 3.5266 0.48679 0.3274 1.3747 0.3737 2.0172 0.105 0.74963-0.3133 0.83823-0.6608 0.89479-3.5101l0.0501-2.5263h0.82467l-1e-3 2.4655c0 1.4229-0.0575 2.6703-0.13513 2.9497-0.1723 0.6207-0.88997 1.3384-1.5106 1.5106-0.58137 0.1614-1.5301 0.1562-2.1639-0.012zm16.923-0.021c-0.92294-0.3441-1.3849-0.7558-1.8045-1.6081-0.35552-0.7221-0.39899-0.9214-0.39272-1.8008 9e-3 -1.2263 0.33332-2.0558 1.0704-2.7351 0.64237-0.5921 1.2464-0.805 2.2588-0.7958 1.9281 0.018 3.1922 1.3812 3.2027 3.4548 8e-3 1.565-0.52469 2.6192-1.6263 3.2187-0.77103 0.4197-1.9786 0.5384-2.7084 0.2663zm1.7742-0.7407c0.59604-0.1258 1.2851-0.8697 1.5044-1.6242 0.33051-1.1368 0.0368-2.5971-0.64671-3.2151-0.35891-0.3245-1.0782-0.5829-1.6227-0.5829-1.7008 0-2.7243 1.8559-2.129 3.8604 0.19702 0.6634 0.91164 1.4395 1.4268 1.5497 0.74049 0.1584 0.77284 0.1586 1.4672 0.012zm-76.981-2.6853v-3.4725l4.931 0.066 0.0762 0.7914h-4.155v2.0637l3.8352 0.066 0.0381 0.3958 0.0381 0.3957h-3.9115v2.3132h4.2613v0.8523h-5.1136zm13.393 0v-3.47h1.627c2.1889 0 2.8316 0.1273 3.327 0.6592 0.93669 1.0057 0.48836 2.6174-0.83867 3.015l-0.47775 0.1431 0.38816 0.3038c0.31733 0.2484 1.9401 2.5576 1.9401 2.7609 0 0.032-0.24551 0.057-0.54559 0.057h-0.54558l-0.77035-1.1871c-0.4237-0.6529-0.94943-1.3378-1.1683-1.5219-0.35027-0.2947-0.49896-0.3349-1.2409-0.3349h-0.84293v3.0439h-0.85227zm4.2113-0.8287c0.40606-0.4725 0.38367-0.9871-0.0623-1.4331-0.35406-0.3541-0.36344-0.356-1.8263-0.356h-1.4704v2.2115l1.5327-0.041c1.5068-0.04 1.5377-0.046 1.8263-0.3819zm10.156 0.8287v-3.47h1.5053c2.3976 0 3.0895 0.2177 3.559 1.1202 0.27271 0.524 0.21997 1.5715-0.10327 2.0513-0.49428 0.7334-0.94703 0.9017-2.5564 0.9504l-1.4306 0.043v2.7746h-0.97402zm3.9711-0.5674c0.48502-0.4854 0.45821-1.2441-0.0603-1.7074-0.36914-0.3298-0.43245-0.343-1.6603-0.343h-1.2765v2.4567l1.3368-0.041c1.2585-0.039 1.3558-0.06 1.6603-0.3649zm2.4818 0.5674v-3.47h4.9919v0.8464l-4.0787 0.066-0.0353 1.0043-0.0353 1.0045h3.9059v0.8461l-3.8352 0.066-0.07 2.2524h4.2705v0.8523h-5.1136zm6.5324 1.1262c0.49738-1.2891 1.1006-2.8533 1.3406-3.4762l0.43624-1.1325 0.99165 0.072 1.3718 3.3482c0.75448 1.8415 1.3738 3.3924 1.3763 3.4465 2e-3 0.054-0.22672 0.082-0.50944 0.061l-0.51402-0.038-0.37627-0.9741-0.37628-0.974-2.9145-0.068-0.35996 1.0384-0.35996 1.0385h-1.0105zm3.3261-0.6088c-8e-3 -0.3253-1.0775-3.0638-1.1298-2.8916-0.0485 0.1596-0.87283 2.4802-1.0272 2.8916-0.0431 0.1148 0.21535 0.1522 1.0517 0.1522 0.80775 0 1.1078-0.041 1.1053-0.1522zm2.9541-0.487 0.0324-3.4395 0.43562-0.036 0.43564-0.037 1.8168 2.6929 1.8168 2.6927 0.0328-2.6867 0.0328-2.6866h0.8476v6.9399h-0.97344l-1.7353-2.6145c-0.9544-1.4379-1.7764-2.6159-1.8266-2.6176-0.0503 0-0.0913 1.1747-0.0913 2.6143v2.6178h-0.85606zm16.652-0.03v-3.4699h0.42583c0.41969 0 0.45174 0.039 2.222 2.6952l1.7962 2.6952 0.0656-5.3904h0.8476v6.9399h-0.93726l-1.7534-2.6361-1.7533-2.6361-0.0656 5.2722h-0.84751zm7.0616 0v-3.4699h0.85227v6.9399h-0.85227zm9.9837 0v-3.4699h0.93505l3.6307 5.418 0.0656-5.418h0.8476v6.9399h-0.97345l-1.7353-2.6145c-0.95439-1.4378-1.7763-2.6158-1.8266-2.6176-0.0503 0-0.0913 1.1747-0.0913 2.6143v2.6178h-0.85227zm-213.22 3.1584c-0.50574-0.2744-0.58138-0.5339-0.58138-1.9937v-1.3473h0.73052v1.2088c0 0.9367 0.04307 1.252 0.19133 1.4002 0.26047 0.2604 0.81638 0.2408 1.1649-0.041 0.25936-0.2098 0.29154-0.3465 0.32962-1.4002l0.04223-1.1675h0.70701v3.4091h-0.36526c-0.28222 0-0.36526-0.055-0.36526-0.2399 0-0.2274-0.02283-0.2243-0.44313 0.061-0.50128 0.3401-0.92648 0.3736-1.4105 0.1108zm6.9064 0.018c-0.63729-0.2832-0.94806-0.7306-1.0078-1.4509-0.06567-0.7922 0.15886-1.2903 0.74527-1.6528 0.85724-0.5297 2.156-0.2148 2.5922 0.6287 0.28224 0.5458 0.17394 1.5785-0.2091 1.9939-0.56352 0.6111-1.4007 0.8012-2.1206 0.4811zm1.4666-0.8574c0.45133-0.4514 0.41717-1.1627-0.07579-1.5776-0.40918-0.3442-0.71554-0.3915-1.1249-0.1735-0.40923 0.218-0.56222 0.4854-0.56645 0.9902-0.0053 0.6193 0.42332 1.0598 1.031 1.0598 0.30186 0 0.52972-0.093 0.73605-0.2989zm6.9344 0.8065c-0.61599-0.2921-0.91328-0.8006-0.91269-1.5614 7.61e-4 -1.0703 0.67078-1.7471 1.7285-1.7461 0.96697 0 1.6801 0.7225 1.6801 1.7002v0.3691h-1.3393c-0.7366 0-1.3393 0.031-1.3393 0.07 0 0.2384 0.30035 0.5397 0.65442 0.6567 0.33546 0.1106 0.50995 0.097 0.93142-0.072 0.49661-0.1987 0.52567-0.1979 0.68439 0.019 0.14762 0.2018 0.12786 0.2507-0.18056 0.4459-0.53879 0.3412-1.3336 0.3907-1.907 0.1189zm1.7654-1.9742c0-0.2659-0.60301-0.725-0.95207-0.725-0.39453 0-0.99597 0.4097-0.99597 0.6785 0 0.1361 0.21141 0.1737 0.97402 0.1737 0.59641 0 0.97402-0.05 0.97402-0.1272zm1.7382 1.9568c-0.64209-0.3914-0.69098-1.2673-0.09262-1.6594 0.16636-0.1093 0.65859-0.2267 1.0938-0.2617 0.828-0.066 0.96908-0.2004 0.60004-0.5694-0.22508-0.2251-0.7676-0.2485-1.1995-0.052-0.23656 0.1082-0.349 0.1038-0.49274-0.015-0.10244-0.085-0.18624-0.1923-0.18624-0.2387 0-0.1918 0.90302-0.4947 1.4745-0.4947 0.51629 0 0.67063 0.056 0.96989 0.3559 0.35051 0.3505 0.35589 0.3763 0.35589 1.7045v1.3487h-0.30438c-0.17892 0-0.30438-0.07-0.30438-0.1696 0-0.1338-0.09492-0.121-0.45188 0.061-0.57544 0.2934-0.96955 0.2908-1.4625-0.011zm1.4718-0.6209c0.18916-0.1487 0.3208-0.3736 0.3208-0.5479 0-0.2555-0.05661-0.2955-0.41821-0.2955-0.94118 0-1.4332 0.4619-0.92789 0.8713 0.35934 0.2909 0.62934 0.2836 1.0253-0.028zm13.627 0.7758c-0.42306-0.082-0.97541-0.6769-1.1153-1.2015-0.32232-1.2087 0.45704-2.2439 1.6892-2.2439 0.98719 0 1.5828 0.571 1.5828 1.5176v0.5521h-1.3436c-1.3155 0-1.3408 0.011-1.2104 0.2489 0.07328 0.1369 0.31962 0.3378 0.54748 0.4464 0.38328 0.1828 0.45298 0.1824 0.93174-0.011 0.45245-0.1777 0.53969-0.181 0.69431-0.027 0.4468 0.4469-0.72369 0.9164-1.7763 0.7125zm1.4262-2.2211c0-0.2882-0.43857-0.6156-0.82453-0.6156-0.41514 0-0.96108 0.3183-1.0358 0.6038-0.06133 0.2346-0.01134 0.2484 0.89767 0.2484 0.87209 0 0.96262-0.022 0.96262-0.2366zm8.5836 2.2172c-0.98043-0.2454-1.5719-1.5504-1.1073-2.4432 0.31531-0.606 0.75229-0.9076 1.4063-0.9704 1.5105-0.1451 2.4472 1.1047 1.8462 2.4634-0.34897 0.7889-1.2304 1.1793-2.1452 0.9502zm1.2848-0.9525c0.42862-0.4563 0.4069-1.1989-0.04642-1.5889-0.4696-0.4039-0.98526-0.3807-1.4304 0.065-0.3986 0.3986-0.4523 0.809-0.17583 1.3437 0.2093 0.4048 0.33306 0.4693 0.92492 0.4824 0.31747 0.011 0.51452-0.074 0.72775-0.3016zm6.3684 0.8658c-0.26407-0.1148-0.42684-0.3008-0.52575-0.6006-0.28693-0.8694 0.31077-1.3927 1.6083-1.4081 0.48215-0.011 0.57832-0.045 0.57832-0.2355 0-0.3619-0.30894-0.5356-0.81954-0.4603-1.0151 0.1493-1.0589 0.1464-1.1036-0.075-0.0903-0.446 1.4563-0.7685 2.0834-0.4345 0.50063 0.2666 0.56242 0.4737 0.56645 1.8977 0.0038 1.3683 0.0038 1.3698-0.29036 1.3698-0.16182 0-0.31335-0.058-0.33672-0.1275-0.02747-0.083-0.20196-0.061-0.49324 0.061-0.54472 0.2276-0.76759 0.2297-1.2672 0.012zm1.4971-0.6919c0.09009-0.075 0.1638-0.2937 0.1638-0.4863 0-0.2877-0.05174-0.3504-0.28916-0.3504-1.0152 0-1.5003 0.4021-1.0402 0.8622 0.273 0.2729 0.82034 0.261 1.1656-0.026zm11.246 0.6546c-1.2068-0.6064-1.3172-2.3743-0.19168-3.0699 0.3654-0.2259 0.57043-0.2664 1.1181-0.221 0.91696 0.076 1.3921 0.5336 1.4776 1.4231l0.05959 0.62h-1.3548c-0.74513 0-1.3548 0.045-1.3548 0.1005 0 0.181 0.54074 0.6102 0.87239 0.6925 0.20437 0.051 0.48637 0 0.76175-0.127 0.35179-0.1669 0.47279-0.178 0.61908-0.056 0.28636 0.2377 0.21953 0.3594-0.33561 0.6115-0.6455 0.2929-1.1267 0.3007-1.6717 0.027zm1.7021-2.0009c0-0.08-0.11913-0.2712-0.26473-0.4261-0.36271-0.3861-0.98904-0.3784-1.3845 0.017-0.47724 0.4774-0.38429 0.5536 0.67517 0.5536 0.66981 0 0.97402-0.045 0.97402-0.1445zm6.1536 2.1254c-0.75995-0.1931-1.1617-0.8073-1.1617-1.776 0-0.7352 0.25274-1.1735 0.85698-1.4859 0.48887-0.2528 1.3186-0.2262 1.7834 0.057 0.47386 0.2889 0.59779 0.508 0.70967 1.254l0.0867 0.5784h-1.362c-1.231 0-1.3583 0.021-1.3227 0.2131 0.0216 0.1171 0.24918 0.3155 0.50564 0.4407 0.43869 0.2143 0.49601 0.2161 0.96935 0.031 0.43986-0.1728 0.52529-0.1754 0.67991-0.021 0.44048 0.4404-0.80708 0.9473-1.7452 0.709zm1.4294-2.2283c-0.15505-0.5929-0.99101-0.7843-1.5398-0.3527-0.58153 0.4574-0.42907 0.5999 0.64182 0.5999 0.90752 0 0.95892-0.014 0.89798-0.2472zm4.1601 2.1524c-0.20421-0.093-0.51924-0.3442-0.70007-0.5591-0.63354-0.7529-0.35654-2.1694 0.51205-2.6185 0.50763-0.2625 1.451-0.2412 1.8814 0.043 1.0568 0.6965 1.0813 2.3092 0.0455 2.9879-0.41696 0.2732-1.2966 0.3476-1.7389 0.1471zm1.4726-0.8647c0.45133-0.4514 0.41717-1.1627-0.0758-1.5776-0.20602-0.1733-0.48268-0.3151-0.6148-0.3151-0.33682 0-0.91451 0.3181-1.0048 0.5534-0.1515 0.3947-0.0698 1.0039 0.17671 1.3173 0.34581 0.4396 1.0902 0.4504 1.5186 0.022zm13.457 0.8161c-0.66306-0.3382-0.92268-0.7891-0.91643-1.5918 9e-3 -1.126 0.62812-1.7267 1.7784-1.7251 0.94749 0 1.5522 0.6029 1.5601 1.5517l4e-3 0.5174h-2.7082l0.17946 0.274c0.0987 0.1506 0.3368 0.3512 0.52909 0.4458 0.30545 0.1502 0.41855 0.1471 0.89549-0.024 0.39452-0.142 0.58954-0.1602 0.7033-0.065 0.26084 0.2166 0.18272 0.3448-0.36004 0.5911-0.64553 0.2931-1.1284 0.3008-1.6654 0.026zm1.6959-2.0391c0-0.1006-0.10956-0.2923-0.2435-0.4263-0.34995-0.3498-1.0271-0.3232-1.4057 0.055-0.47724 0.4773-0.38429 0.5534 0.67518 0.5534 0.78462 0 0.97402-0.035 0.97402-0.1826zm6.4964 2.1362c-0.50893-0.2143-0.65223-0.596-0.65223-1.7372 0-0.9875-0.0185-1.0687-0.24351-1.0687-0.17857 0-0.2435-0.082-0.2435-0.3044 0-0.2232 0.0649-0.3043 0.2435-0.3043 0.20795 0 0.24351-0.082 0.24351-0.556 0-0.5348 0.0128-0.5546 0.33482-0.5175 0.29959 0.034 0.33875 0.093 0.37225 0.5559 0.0363 0.5014 0.0506 0.5176 0.45658 0.5176 0.3659 0 0.41914 0.039 0.41914 0.3043 0 0.2667-0.0527 0.3044-0.42614 0.3044h-0.42614v1.0288c0 0.8473 0.0371 1.0496 0.20993 1.1463 0.13577 0.076 0.28981 0.075 0.43611 0 0.29962-0.1602 0.64293 0.2362 0.41023 0.4738-0.20162 0.2059-0.81937 0.2933-1.1346 0.1606zm8.0502-0.047c-0.53705-0.2424-0.6667-0.6497-0.6667-2.0939v-1.2728h0.73052v1.1296c0 1.3469 0.15302 1.6707 0.78946 1.6707 0.6913 0 0.91508-0.4209 0.91508-1.7209v-1.0794h0.73051v3.4091h-0.36525c-0.29385 0-0.36526-0.052-0.36526-0.2647v-0.2648l-0.28693 0.2696c-0.36113 0.3393-1.003 0.4335-1.4814 0.2175zm8.3742-0.035c-0.5586-0.2753-0.88385-0.8581-0.88167-1.5795 2e-3 -0.7365 0.18698-1.1155 0.71807-1.4735 0.53611-0.3612 1.3182-0.3724 1.7596-0.025l0.32081 0.2524v-0.922c0-0.9023 7e-3 -0.922 0.30439-0.922h0.30437v4.7483h-0.30437c-0.18958 0-0.30439-0.07-0.30439-0.1829 0-0.1517-0.0773-0.1413-0.45476 0.061-0.54584 0.2924-0.93348 0.304-1.4621 0.043zm1.5164-0.8042c0.36735-0.4014 0.43364-0.7503 0.23351-1.2293-0.30943-0.7405-0.91564-0.8886-1.5282-0.3732-0.30206 0.2543-0.37459 0.4086-0.37459 0.797 0 0.9388 1.0733 1.4567 1.6693 0.8055zm-123.42-1.3734v-2.256l3.1047 0.068 0.0385 0.3349 0.0385 0.3348h-2.4512v1.2175h2.2077l-0.0385 0.3349c-0.03842 0.3336-0.04208 0.3348-1.1039 0.37l-1.0653 0.035v1.0862h2.4351v0.7305h-3.1656zm8.1574 0.5516v-1.7045h0.36526c0.30654 0 0.36526 0.047 0.36526 0.2985v0.2985l0.32216-0.2985c0.45697-0.4235 0.77362-0.3962 0.77362 0.067 0 0.2784-0.05532 0.3652-0.23268 0.3652-0.12797 0-0.37452 0.1686-0.54789 0.3746-0.28106 0.334-0.3152 0.4792-0.3152 1.3393v0.9646h-0.73052zm18.75 0v-1.7045h0.36526c0.28836 0 0.36526 0.053 0.36526 0.2522v0.2524l0.3208-0.2524c0.45933-0.3612 1.266-0.3418 1.7118 0.041 0.33235 0.2856 0.34272 0.3319 0.38252 1.7046l0.04094 1.4109h-0.75147v-1.1566c0-0.9944-0.03417-1.1909-0.2435-1.4002-0.32907-0.329-0.80021-0.3067-1.1622 0.055-0.27324 0.2732-0.29885 0.3931-0.29885 1.4002v1.1012h-0.73052zm6.0876-0.548v-2.2524h0.90715c1.1383 0 2.0515 0.1912 2.3175 0.4851 0.23865 0.2638 0.37197 1.0625 0.25507 1.5281-0.04466 0.178-0.24912 0.4768-0.4544 0.6643l-0.37324 0.341 0.50024 0.6771c0.27513 0.3724 0.50024 0.7069 0.50024 0.7433 0 0.037-0.20546 0.064-0.45657 0.062-0.4176 0-0.50072-0.065-0.97372-0.7306-0.48442-0.6812-0.54799-0.7272-1.0045-0.7272h-0.48731v1.461h-0.73052zm2.471-0.092c0.29114-0.217 0.38284-0.8309 0.1675-1.1216-0.13943-0.1882-0.36033-0.2491-1.0425-0.2876l-0.86554-0.049v1.6103h0.76812c0.42439 0 0.85953-0.069 0.97238-0.1522zm10.191 0.6391v-1.7045h0.73052v3.4091h-0.73052zm5.9659 0v-1.7045h0.36526c0.28319 0 0.36526 0.054 0.36526 0.2417 0 0.2411 7.61e-4 0.2411 0.3957 5e-4 0.59629-0.3635 1.2504-0.3194 1.6835 0.1137 0.35051 0.3505 0.35589 0.3763 0.35589 1.7046v1.3486h-0.73052v-1.1567c0-0.9943-0.03417-1.1908-0.2435-1.4002-0.27731-0.2772-0.47146-0.3008-0.89399-0.1082-0.43056 0.1962-0.56704 0.6047-0.56704 1.6969v0.9683h-0.73052zm8.0357-0.6696v-2.3742h0.60876v4.7484h-0.60876zm3.5585 0.1522 0.03318-2.222 1.2175 0.012c1.4387 0.014 2.0608 0.2575 2.5065 0.9787 0.34008 0.5503 0.38258 1.7266 0.08297 2.2962-0.4825 0.9171-1.0333 1.1567-2.661 1.1567h-1.2123zm2.8457 1.0775c0.34955-0.3496 0.41396-0.5002 0.41396-0.9683 0-1.102-0.44091-1.5348-1.6632-1.6329l-0.77189-0.062v3.0771h0.80357c0.75153 0 0.83038-0.026 1.2175-0.4139zm6.2313-0.5601-0.68044-1.7045h0.38428c0.37395 0 0.39703 0.033 0.85876 1.2176 0.26098 0.6696 0.50753 1.2175 0.54789 1.2175 0.04031 0 0.28691-0.5479 0.54788-1.2175 0.46599-1.1958 0.48159-1.2176 0.87085-1.2176h0.39636l-0.68044 1.7045-0.68044 1.7046h-0.88427zm7.4537-0.6696v-2.3742h0.73052v4.7484h-0.73052zm10.227 0.6696v-1.7045h0.36526c0.28319 0 0.36525 0.054 0.36525 0.2417 0 0.2411 7.6e-4 0.2411 0.3957 5e-4 0.54339-0.3313 1.245-0.317 1.5945 0.033l0.2746 0.2746 0.40751-0.2746c0.48092-0.3241 1.2209-0.3618 1.6451-0.084 0.41691 0.2733 0.55271 0.7842 0.55271 2.0799v1.1385h-0.73052v-1.0793c0-0.9076-0.0402-1.1304-0.25234-1.4002-0.31934-0.406-0.76093-0.4143-1.1534-0.022-0.27324 0.2733-0.29885 0.3932-0.29885 1.4002v1.1013h-0.7077l-0.0418-1.2275c-0.0356-1.0456-0.0769-1.2531-0.27818-1.4002-0.35828-0.2617-0.65885-0.2093-1.0514 0.1832-0.33802 0.3381-0.35589 0.4084-0.35589 1.4002v1.0443h-0.73051v-1.7045zm10.592 0v-1.7045h0.36526c0.28836 0 0.36525 0.053 0.36525 0.2523v0.2524l0.32081-0.2524c0.545-0.4286 1.5154-0.2865 1.8684 0.2738 0.10349 0.1643 0.18808 0.7636 0.22214 1.5741l0.055 1.3089h-0.73828l-0.0422-1.1441c-0.0337-0.9148-0.0887-1.1954-0.27412-1.4002-0.29407-0.3246-0.68126-0.326-1.0909 0-0.30604 0.2408-0.32079 0.3052-0.32079 1.4002v1.1478h-0.73053v-1.7045zm8.6444-0.5479v-2.2524h2.9221v0.7306h-2.1916v1.2174h1.948v0.7306h-1.948v1.8263h-0.73052zm7.7922 0.5479v-1.7045h0.36526c0.28318 0 0.36526 0.054 0.36526 0.2417 0 0.2411 1e-3 0.2411 0.39569 5e-4 0.5963-0.3635 1.2504-0.3194 1.6835 0.1137 0.35052 0.3505 0.3559 0.3763 0.3559 1.7046v1.3486h-0.72199l-0.0347-1.2436c-0.0334-1.1981-0.0464-1.2501-0.35281-1.4218-0.26245-0.1472-0.38217-0.1518-0.68428-0.027-0.49996 0.2072-0.64127 0.5869-0.64127 1.7239v0.9682h-0.73052zm-71.22-2.3682c-0.32236-0.3886 0.15327-0.999 0.53283-0.684 0.22903 0.1901 0.25004 0.5112 0.04672 0.7146-0.19521 0.1952-0.40114 0.1843-0.57956-0.03zm91.31-37.566v-28.734h86.201l-0.0307 28.703-0.0307 28.703-43.07 0.031-43.07 0.03zm84.831-0.0298-0.0307-27.425h-83.522l-0.0311 27.273c-0.0172 15-6e-3 27.341 0.0266 27.425 0.0462 0.1212 8.5229 0.1522 41.823 0.1522h41.765zm-43.557 21.295c0-0.023 0.10105-0.3379 0.22452-0.7001 0.45775-1.342 0.48525-1.234-0.49858-1.9574l-0.8826-0.6489 2.2474-0.07 0.32126-1.0305c0.17668-0.5667 0.34041-1.0303 0.36385-1.0303 0.0234 0 0.18716 0.4637 0.36388 1.0304l0.3213 1.0306 2.2265 0.07-0.88996 0.6542c-0.48947 0.3599-0.86732 0.7159-0.83965 0.7915 0.27142 0.7397 0.58781 1.8065 0.54773 1.8466-0.0276 0.028-0.42552-0.2199-0.88419-0.5502l-0.83394-0.6004-0.37628 0.2603c-0.20695 0.143-0.57594 0.4145-0.81994 0.6032-0.40756 0.3151-0.59124 0.4087-0.59124 0.3011zm-9.375-2.4864c1e-5 -0.05 0.13469-0.5258 0.2993-1.0594 0.16461-0.5335 0.25708-0.9992 0.2055-1.0349-0.0516-0.035-0.44162-0.3114-0.86675-0.6128l-0.77294-0.5478 2.1698-0.122 0.35869-1.0957 0.35868-1.0959 0.69988 2.2524h2.2232l-0.78531 0.564c-0.43194 0.3101-0.83252 0.6066-0.89023 0.6588-0.0577 0.053 0.0438 0.5416 0.22565 1.0875 0.18179 0.5459 0.3106 1.0125 0.28624 1.0369-0.0243 0.024-0.39984-0.2243-0.83441-0.5526-0.43454-0.3282-0.84042-0.5982-0.90191-0.5999-0.0615 0-0.48612 0.27-0.94358 0.6038-0.45748 0.3337-0.83176 0.5666-0.83176 0.5174zm18.75 0.062c0-0.026 0.13697-0.4505 0.30438-0.9427 0.1674-0.4922 0.30438-0.9584 0.30438-1.0359 0-0.077-0.39174-0.424-0.87055-0.77l-0.87053-0.6291h2.213l0.33584-1.0313c0.1847-0.5672 0.36618-1.0016 0.40324-0.9654 0.037 0.036 0.20879 0.4865 0.38161 1.0007l0.3142 0.9352 2.1325 0.122-0.83256 0.6009c-0.45789 0.3304-0.84595 0.6086-0.86233 0.6182-0.0163 0.011 0.13082 0.4927 0.32715 1.0734 0.40178 1.1886 0.41449 1.1828-0.71505 0.3347-0.36364-0.273-0.71189-0.4965-0.77386-0.4965-0.062 0-0.31233 0.1543-0.55635 0.3431-0.62489 0.4831-1.235 0.8997-1.235 0.8431zm-25.69-6.9332c0-0.03 0.13698-0.4572 0.30439-0.9494s0.3041-0.9538 0.30376-1.0257c0-0.072-0.39755-0.4049-0.8827-0.7397l-0.8821-0.6087 2.2403-0.07 0.33537-1.0299c0.18446-0.5664 0.369-0.989 0.41007-0.9391 0.0411 0.05 0.20388 0.5154 0.36178 1.0344l0.2871 0.9435h2.3176l-0.8722 0.6145c-0.47971 0.338-0.89605 0.6531-0.92522 0.7004-0.0291 0.048 0.078 0.4965 0.23815 0.9987 0.16014 0.5021 0.27824 0.9498 0.26244 0.9949-0.0158 0.045-0.40255-0.1916-0.85945-0.526l-0.83074-0.6084-0.66439 0.4654c-0.36542 0.2559-0.77233 0.5405-0.90424 0.6322-0.13191 0.092-0.23985 0.1427-0.23985 0.1127zm32.63-0.068c0-0.06 0.13601-0.5075 0.30225-0.9963 0.16624-0.4887 0.2731-0.9358 0.23746-0.9935-0.0356-0.057-0.43103-0.3659-0.87861-0.6849l-0.81381-0.5802 2.2203-0.07 0.34999-1.1117 0.35001-1.1115 0.35528 1.1117 0.35528 1.1116 2.2054 0.07-0.8503 0.5986c-0.46767 0.3291-0.86965 0.6134-0.8933 0.6315-0.0236 0.018 0.10525 0.4781 0.2865 1.0223 0.18125 0.5443 0.30519 1.0139 0.27545 1.0436-0.0297 0.03-0.41648-0.2202-0.85944-0.5557-0.44296-0.3353-0.83935-0.6096-0.8809-0.6096-0.0415 0-0.38638 0.2369-0.76634 0.5264-0.84976 0.6474-0.99521 0.7349-0.99521 0.5979zm-35.187-9.3063c0-0.03 0.13698-0.4572 0.30439-0.9494 0.16741-0.4921 0.30438-0.9647 0.30438-1.05 0-0.085-0.36896-0.41824-0.81992-0.73964l-0.81992-0.58447 2.1148-0.0706 0.33551-1.0302c0.18454-0.56669 0.36985-1.0303 0.4118-1.0303 0.042 0 0.20962 0.45205 0.3726 1.0045l0.29632 1.0045 2.1524 0.1214-0.80427 0.57762c-0.44236 0.31775-0.80344 0.64647-0.80245 0.73057 1e-3 0.084 0.13397 0.5782 0.29547 1.0982 0.17385 0.5595 0.23519 0.9108 0.15036 0.8612-0.0787-0.046-0.45415-0.3211-0.8341-0.6105-0.37997-0.2895-0.75212-0.5264-0.82703-0.5264-0.11146 0-0.9438 0.5602-1.6782 1.1294-0.0837 0.065-0.15219 0.094-0.15219 0.063zm37.622 0c0-0.029 0.15717-0.5179 0.34924-1.0861l0.34925-1.0332-0.92406-0.66381-0.92406-0.66366 2.2922-0.1214 0.30571-0.94353c0.16814-0.51898 0.33822-0.94364 0.37796-0.94364 0.0398 0 0.20983 0.42466 0.37797 0.94364l0.30571 0.94353 2.2922 0.1214-0.92407 0.66366-0.92405 0.66381 0.34925 1.0332c0.19208 0.5682 0.34924 1.0524 0.34924 1.076 0 0.023-0.41279-0.2625-0.91729-0.6356l-0.91728-0.6783-0.75682 0.5725c-0.41625 0.315-0.8253 0.6248-0.909 0.6885-0.0837 0.064-0.1522 0.092-0.1522 0.063zm-35.065-9.5132c0-0.0221 0.13698-0.44222 0.30439-0.93447 0.16741-0.49214 0.30437-0.93568 0.30437-0.9856 0-0.0497-0.39721-0.38258-0.8827-0.73965l-0.88271-0.64886 2.2351-0.0706 0.35504-1.0609 0.35505-1.0608 0.34702 1.0612 0.347 1.0613 2.2792 0.0684-0.92462 0.66079c-0.50855 0.36336-0.90311 0.71955-0.87679 0.79134 0.28287 0.77289 0.58415 1.8012 0.54048 1.8449-0.0301 0.0309-0.42987-0.21835-0.88806-0.55233l-0.83307-0.60734-0.4333 0.32427c-0.23831 0.17837-0.60283 0.45083-0.81003 0.60545-0.34453 0.25712-0.5364 0.3436-0.5364 0.24166zm32.63-0.0541c0-0.0596 0.13601-0.50761 0.30225-0.99632 0.16624-0.48872 0.27417-0.93403 0.23987-0.98959-0.0343-0.0552-0.45488-0.3775-0.93459-0.71546l-0.8722-0.61451h2.3318l0.32265-1.0349c0.17747-0.56923 0.34654-1.0349 0.37571-1.0349 0.0292 0 0.19507 0.46564 0.36869 1.0349l0.31566 1.0349h2.3457l-0.8722 0.61451c-0.4797 0.33796-0.89849 0.65704-0.93059 0.70906-0.0321 0.0519 0.0775 0.52251 0.24363 1.0456 0.16613 0.52317 0.28338 0.96992 0.26053 0.99278-0.0229 0.0232-0.41703-0.22895-0.87599-0.55929-0.45896-0.33045-0.89399-0.56559-0.96671-0.52251-0.0728 0.0431-0.4062 0.2771-0.74102 0.52019-0.79699 0.57862-0.91314 0.64411-0.91314 0.51556zm-25.439-7.7828c0.19675-0.58205 0.31317-1.089 0.25872-1.1264-0.0544-0.0376-0.4468-0.31465-0.87193-0.61605l-0.77294-0.54781 2.1504-0.1214 0.35967-1.0805 0.3597-1.0805 0.35573 1.111 0.35575 1.1108h2.2273l-0.87583 0.61705c-0.48172 0.3394-0.87584 0.66609-0.87584 0.72595 0 0.0596 0.13476 0.53312 0.29946 1.0518 0.1647 0.51865 0.2874 0.95513 0.27266 0.96982-0.0148 0.0144-0.38235-0.24177-0.81692-0.57001-0.43454-0.32824-0.84869-0.59816-0.9203-0.59993-0.0716 0-0.42775 0.22033-0.79139 0.49335-1.1296 0.84822-1.1169 0.85418-0.7143-0.33674zm18.81 0.11596c0.16151-0.51986 0.29446-1.011 0.29548-1.0913 1e-3 -0.0806-0.36732-0.40908-0.81851-0.73048l-0.82032-0.58447 2.1845-0.1214 0.29633-1.0064c0.16299-0.55244 0.33375-1.0044 0.37945-1.0044s0.21775 0.45194 0.38232 1.0044l0.29921 1.0045 2.1745 0.1214-0.82033 0.58447c-0.83916 0.59784-0.90231 0.70585-0.70937 1.2134 0.0611 0.16047 0.19556 0.57674 0.29896 0.92486 0.21268 0.71623 0.23184 0.71778-0.79636-0.0652-0.37996-0.28947-0.74377-0.52637-0.80843-0.52637-0.0647 0-0.43869 0.23557-0.8311 0.5235-0.39239 0.28793-0.77794 0.5625-0.85675 0.61043-0.0843 0.0508-0.0224-0.30218 0.15037-0.85826zm-9.6864-1.698c0-0.0541 0.14358-0.52991 0.31909-1.057 0.18464-0.55443 0.27123-0.99058 0.20551-1.0352-0.0625-0.0431-0.4612-0.32371-0.88605-0.62511l-0.77244-0.54792 2.2037-0.0706 0.3213-1.0306c0.17672-0.56669 0.34352-1.0304 0.37069-1.0304 0.0272 0 0.20043 0.46376 0.38502 1.0307l0.33566 1.0306 2.1646 0.0706-0.83209 0.60082c-0.45764 0.33056-0.85143 0.61462-0.87507 0.63152-0.0236 0.0166 0.10525 0.47591 0.28651 1.0201 0.18124 0.54427 0.30988 1.0091 0.28589 1.0331-0.024 0.0243-0.41883-0.2358-0.87741-0.57751-0.59327-0.44189-0.88127-0.58845-0.9984-0.50793-0.0906 0.063-0.49581 0.34966-0.90057 0.63848-0.40478 0.28881-0.73595 0.48087-0.73595 0.42653zm-176.59 44.579c-0.76274-0.1929-1.8574-0.73-2.4457-1.1999l-0.3596-0.2872 0.52313-0.6248c0.28772-0.3437 0.56542-0.6248 0.61712-0.6248 0.05167 0 0.22466 0.1027 0.38436 0.227 0.52188 0.4081 1.5044 0.8445 2.1824 0.9694 1.6568 0.3049 2.8972-0.5559 2.4292-1.6858-0.1979-0.4778-0.76194-0.7672-2.2836-1.1717-1.4935-0.3971-2.1519-0.7057-2.7217-1.2753-0.58607-0.5862-0.80892-1.5172-0.60554-2.5299 0.16898-0.8414 0.59727-1.3894 1.4722-1.8837 0.58702-0.3316 0.79896-0.3803 1.837-0.422 1.49-0.06 2.7423 0.2759 3.6968 0.991 0.23113 0.1733 0.22492 0.1965-0.22778 0.8538l-0.4654 0.6757-0.44186-0.2876c-1.0251-0.6674-2.8414-0.8567-3.5796-0.3729-0.599 0.3925-0.70101 1.1543-0.22674 1.6935 0.30026 0.3414 0.69648 0.5116 2.0273 0.8711 2.1014 0.5677 3.0335 1.2143 3.3335 2.3125 0.41474 1.5184-0.28085 2.9727-1.7178 3.5914-0.82521 0.3554-2.4061 0.4385-3.4278 0.1802zm10.521 0.052c-1.3852-0.2715-2.9423-1.4876-3.5711-2.7891-0.67717-1.4014-0.68805-3.3989-0.0261-4.798 0.63268-1.3374 1.9359-2.4173 3.393-2.8117 1.0915-0.2955 2.9423-0.2156 3.7849 0.1633 0.65254 0.2935 1.8927 1.1787 1.8927 1.351 0 0.059-0.23853 0.3694-0.53007 0.6915l-0.53007 0.5854-0.39933-0.3359c-0.85059-0.7158-1.3083-0.8717-2.5584-0.8714-1.0176 2e-4 -1.2298 0.039-1.7654 0.3236-1.2776 0.6786-1.9349 1.7691-1.9328 3.2063 0.0015 1.1295 0.35096 1.9235 1.1991 2.7255 1.3429 1.2701 3.33 1.3036 4.7834 0.081 0.20276-0.1705 0.41782-0.3101 0.47792-0.3101 0.06011 0 0.35352 0.251 0.65207 0.5578l0.5428 0.5578-0.48701 0.4272c-1.3517 1.1858-3.0464 1.6146-4.9255 1.2463zm10.465-7e-4c-1.4771-0.2885-2.9688-1.4419-3.6472-2.82-1.3381-2.7181-0.27814-5.9163 2.3994-7.2396 0.8493-0.4197 1.0192-0.459 2.1746-0.5018 1.6093-0.06 2.6145 0.2193 3.681 1.021 1.484 1.1156 2.1738 2.6848 2.0597 4.686-0.05448 0.9555-0.12353 1.2291-0.50522 2.0013-1.1012 2.228-3.5521 3.3628-6.1623 2.8531zm2.765-1.8391c0.6587-0.3097 1.4067-1.0328 1.7637-1.7052 0.23214-0.4372 0.27767-0.7112 0.27898-1.6792 0.0015-0.994-0.04102-1.24-0.30133-1.7496-0.39969-0.7826-1.3133-1.5902-2.0912-1.8486-0.81152-0.2696-2.0355-0.1913-2.755 0.1759-0.67871 0.3467-1.39 1.0869-1.7399 1.8108-0.38766 0.802-0.40356 2.2833-0.03318 3.0875 0.88827 1.9286 3.0422 2.7713 4.8779 1.9084zm5.8795-3.3331v-5.1842l2.8916 0.045c2.6576 0.041 2.9477 0.067 3.5844 0.3201 0.84541 0.3359 1.363 0.895 1.6153 1.7448 0.52965 1.7834-0.08644 3.578-1.456 4.2409-0.3432 0.1663-0.51676 0.3183-0.46383 0.4067 0.0465 0.077 0.64919 0.9219 1.3393 1.8761l1.2547 1.735h-2.2603l-1.2562-1.7698-1.2562-1.7699-2.2272 0.07-0.06758 3.47h-1.6978zm5.6755-0.2c0.54912-0.2979 0.81589-0.9408 0.75274-1.814-0.09487-1.3115-0.60057-1.5663-3.1105-1.5674l-1.6132-7e-4v3.675l1.7959-0.043c1.3931-0.034 1.8809-0.09 2.1751-0.2494zm4.7952 0.2096v-5.1744h7.3052v1.5782l-5.5397 0.066-0.06878 2.7394h4.9998v1.5828h-4.9919v2.6786h5.7224v1.7045h-7.4269zm54.606-7.7731c-0.59467-0.1963-1.2692-0.5349-1.543-0.7746-0.18873-0.1654-0.17718-0.2204 0.15638-0.7463 0.19807-0.3124 0.39934-0.5647 0.44726-0.5607 0.0479 0.011 0.41586 0.1676 0.81765 0.3636 1.4206 0.6933 3.0865 0.4 3.7407-0.6584 0.18779-0.3039 0.2741-0.685 0.31498-1.391l0.0563-0.9723-0.48732 0.4874c-0.67781 0.6777-1.4024 0.9331-2.4371 0.8588-1.3432-0.096-2.3614-0.7889-2.9739-2.0226-0.2397-0.4827-0.28193-0.7531-0.27901-1.7863 3e-3 -1.074 0.0412-1.2899 0.32345-1.8312 1.0408-1.9958 3.4581-2.6203 5.1482-1.3302l0.55075 0.4203v-0.9723h1.7164l-0.0363 4.17c-0.0357 4.0874-0.0421 4.1826-0.32487 4.8082-0.33501 0.7409-1.0277 1.4132-1.8273 1.7733-0.70278 0.3164-2.6186 0.41-3.3631 0.1643zm2.7122-5.1568c0.99982-0.4744 1.4392-2.1071 0.87861-3.2651-0.39856-0.8233-1.0498-1.2162-2.0118-1.2136-0.63265 0-0.82134 0.055-1.1966 0.3419-1.1897 0.9075-1.3037 2.9192-0.22078 3.8986 0.62576 0.5659 1.6571 0.6622 2.5505 0.2382zm-85.26 2.1134c-0.77356-0.256-1.1809-0.5059-1.731-1.0621-0.8527-0.8623-1.0663-1.4332-1.0679-2.8535-0.0015-1.0845 0.03402-1.2845 0.32251-1.831 0.39545-0.7495 1.2646-1.5719 2.0288-1.9198 0.82271-0.3746 2.6454-0.3766 3.4519-0.011 0.76751 0.3548 1.6348 1.1772 2.0288 1.9236 0.28808 0.5459 0.32384 0.748 0.32392 1.8311 7.6e-5 1.0266-0.04406 1.3073-0.28146 1.7892-0.38328 0.7781-1.1655 1.5345-1.9709 1.9057-0.80266 0.3698-2.3265 0.4782-3.1047 0.2206zm2.0356-1.425c1.8522-0.5144 2.3509-3.3599 0.7963-4.5441-0.59434-0.4528-1.421-0.6264-2.1318-0.4477-1.2092 0.3039-1.8872 1.2026-1.8872 2.5012 0 1.8197 1.4906 2.9716 3.2227 2.4906zm12.27 1.3944c-0.66414-0.2873-1.2036-0.8869-1.4035-1.56-0.12859-0.433-0.1793-1.2172-0.1793-2.7732v-2.1694h-0.97402v-1.3392h0.97402v-2.4351h1.7045v2.4351h2.0698v1.3392h-2.0698v4.5236l0.35589 0.3558c0.42785 0.428 0.96928 0.4693 1.4705 0.1123l0.34203-0.2434 0.32515 0.5548c0.27588 0.4707 0.3007 0.5843 0.16378 0.7498-0.47853 0.5784-1.9361 0.8142-2.779 0.4497zm19.208 0.011c-0.38437-0.093-0.90487-0.2753-1.1566-0.4048-0.60332-0.3104-1.4927-0.9624-1.4927-1.0944 0-0.058 0.22733-0.384 0.50517-0.7256l0.50517-0.621 0.45917 0.3636c1.8806 1.4895 4.6425 1.2982 4.6425-0.3215 0-0.6138-0.49549-1.068-1.4522-1.3311-2.8368-0.7797-3.5164-1.139-4.0293-2.1301-0.24259-0.4687-0.2756-0.6804-0.23294-1.4943 0.064-1.2201 0.43122-1.7982 1.485-2.3376 0.62397-0.3194 0.86995-0.3722 1.9043-0.4083 1.5001-0.053 2.7462 0.2805 3.6854 0.9849 0.21818 0.1637 0.20849 0.1981-0.22449 0.8008-0.24889 0.3465-0.48998 0.63-0.53577 0.63-0.04581 0-0.19486-0.078-0.33129-0.1737-0.44026-0.3085-1.7294-0.6786-2.363-0.6786-1.1025 0-1.8262 0.4963-1.8262 1.2527 0 0.7664 0.50027 1.116 2.2824 1.595 2.69 0.7229 3.4991 1.4787 3.4828 3.2538-0.0091 0.9899-0.34734 1.6765-1.1135 2.2601-0.97213 0.7406-2.6019 0.9659-4.1939 0.5801zm9.2001 0.022c-1.0808-0.3546-1.919-1.0898-2.377-2.0849-0.23315-0.5066-0.28018-0.8132-0.28018-1.8263 0-1.0882 0.03637-1.2916 0.34224-1.9145 0.37748-0.7687 1.0307-1.3957 1.8936-1.8176 0.46398-0.227 0.77036-0.2767 1.7211-0.2792 1.0305 0 1.2297 0.034 1.8263 0.3384 1.4214 0.725 1.9631 1.6391 1.9916 3.3607l0.01727 1.0426-3.0743 0.033c-3.4128 0.035-3.33 0.012-2.8261 0.8272 0.71782 1.1614 3.0489 1.3817 4.1067 0.388l0.27943-0.2624 0.5067 0.5066c0.49996 0.5 0.50367 0.51 0.27897 0.7583-0.12524 0.1385-0.57266 0.4215-0.99426 0.6291-0.64067 0.3153-0.94199 0.3848-1.8351 0.4228-0.69344 0.03-1.2471-0.013-1.577-0.1214zm3.4914-4.6768c0-0.4696-0.5472-1.3028-1.0349-1.5756-1.3101-0.733-3.47 0.1837-3.47 1.4728v0.3204h2.2524c2.0823 0 2.2524-0.017 2.2524-0.2176zm4.1396 4.5905c-0.94233-0.4272-1.3587-0.9474-1.5159-1.8936-0.11538-0.6948 0.12118-1.4741 0.58963-1.9426 0.57686-0.5769 1.4109-0.7801 3.2008-0.7801h1.4998v-0.4852c0-0.6518-0.4776-1.1896-1.2005-1.3513-0.61837-0.1384-1.7473 0.099-2.4062 0.5064l-0.40016 0.2474-0.36855-0.5088c-0.2027-0.2797-0.34212-0.5515-0.30982-0.6037 0.14203-0.2298 1.2031-0.7443 1.9074-0.925 1.7205-0.4412 3.4383 0.048 4.0958 1.1661l0.3257 0.5539 0.03805 3.0742 0.03805 3.0744h-1.598v-0.864l-0.51979 0.3576c-0.97666 0.6719-2.3773 0.8272-3.3763 0.3743zm2.9479-1.4799c0.59095-0.3321 0.82647-0.7557 0.82647-1.4868v-0.5579h-0.96803c-1.3351 0-2.1367 0.1886-2.44 0.5741-0.42534 0.5407-0.2787 1.2153 0.3368 1.5494 0.52167 0.283 1.6689 0.2407 2.2447-0.083zm20.833 1.5662c-1.1783-0.3865-2.228-1.3921-2.536-2.4292-0.23391-0.7877-0.23309-2.1792 1e-3 -2.9701 0.24089-0.8111 1.0835-1.7474 1.9573-2.175 1.7976-0.8794 4.2401-0.254 5.2189 1.3362 0.33308 0.5412 0.37059 0.71 0.41304 1.8567l0.0467 1.2616h-6.2402l0.1889 0.4521c0.25292 0.6053 0.46795 0.8241 1.1032 1.1227 0.98413 0.4626 2.4756 0.2811 3.1878-0.388l0.27944-0.2625 1.0272 1.038-0.36525 0.3084c-0.72759 0.6144-1.5953 0.9238-2.7249 0.9716-0.67518 0.029-1.2308-0.015-1.5579-0.1225zm3.3919-4.8852c-0.0997-0.9441-1.0107-1.6436-2.1403-1.6436-0.64522 0-1.4747 0.3279-1.8344 0.7254-0.2401 0.2653-0.55864 1.114-0.47122 1.2553 0.032 0.052 1.0542 0.08 2.2714 0.062l2.2131-0.033zm19.032 4.9464c-1.1662-0.3044-2.0963-1.0685-2.6369-2.1668-0.34838-0.7076-0.39473-0.9195-0.39473-1.8056 0-0.8847 0.0466-1.0985 0.39212-1.8004 0.45028-0.9147 1.0038-1.4502 1.9643-1.9007 0.58302-0.2735 0.83308-0.316 1.8318-0.311 1.3785 0.011 2.0484 0.2695 2.926 1.1471 0.86513 0.865 1.1408 1.5534 1.1473 2.865 4e-3 0.9573-0.0371 1.1825-0.33186 1.7825-0.39656 0.8077-1.217 1.6068-2.0155 1.9633-0.61487 0.2745-2.2165 0.4004-2.8826 0.2266zm1.7992-1.4838c1.0116-0.281 1.7872-1.3609 1.7872-2.4886 0-1.5548-1.3735-2.7982-2.8331-2.5649-2.032 0.325-2.8645 2.8341-1.4434 4.3506 0.67946 0.7252 1.537 0.9673 2.4893 0.7029zm-112.29-3.7062v-5.1744h1.7672l2.9212 3.7697c1.6066 2.0735 2.9623 3.7719 3.0125 3.7743 0.05022 0 0.09132-1.6939 0.09132-3.7696v-3.7744h1.7045v10.349h-1.9181l-2.9066-3.744-2.9066-3.7438-0.03218 3.7438-0.03218 3.744h-1.701zm20.698 1.2176v-3.957h1.7045v1.3797l0.4645-0.503c0.48037-0.5204 1.34-0.9911 1.8184-0.9958 0.25825 0 0.27394 0.046 0.27394 0.8497v0.8521h-0.36917c-0.50968 0-1.0906 0.2692-1.4828 0.6869-0.59083 0.6292-0.70481 1.1999-0.70481 3.5289v2.1155h-1.7045zm11.567-1.5828v-5.5398h1.5828l3e-3 4.5658 0.31192-0.3958c0.17155-0.2177 0.56816-0.5464 0.88135-0.7305 0.49301-0.2898 0.7002-0.3348 1.5435-0.3348 0.84797 0 1.0492 0.044 1.5551 0.3415 0.71449 0.4202 1.1413 1.0419 1.304 1.9 0.0681 0.3591 0.12383 1.796 0.12383 3.1931v2.5403h-1.7045l-7.3e-4 -2.4046c-3.66e-4 -1.3416-0.05867-2.6135-0.13177-2.8768-0.37248-1.3415-1.9961-1.6561-3.153-0.6108-0.6278 0.5672-0.73231 1.1048-0.73231 3.7674v2.1248h-1.5828zm43.587 0.3557v-5.184l2.9525 0.041c2.7971 0.039 2.9862 0.056 3.5926 0.3294 0.80312 0.3617 1.3048 0.9258 1.5462 1.7389 0.51641 1.7388-0.068 3.5028-1.3949 4.2099-0.30135 0.1605-0.53071 0.3533-0.50969 0.4283 0.021 0.075 0.58259 0.8872 1.248 1.805 0.66536 0.9176 1.2098 1.7017 1.2098 1.742 0 0.041-0.48719 0.073-1.0826 0.073h-1.0827l-1.251-1.7698-1.2509-1.7696-2.2118 0.07-0.0338 1.7349-0.0338 1.735h-1.6979zm5.6833-0.2426c0.55184-0.4051 0.78978-0.9807 0.73818-1.7855-0.0829-1.2942-0.59852-1.5522-3.1037-1.5533l-1.6132-7e-4v3.6748l1.8176-0.042c1.6079-0.036 1.8573-0.071 2.1611-0.2938zm22.685 1.4697v-3.957h1.5828v7.914h-1.5828zm12.784 0v-3.957h1.7045l2e-3 1.4002 0.31191-0.3958c1.2901-1.6368 4.0803-1.428 4.9776 0.3726 0.30461 0.6112 0.30841 0.6554 0.30841 3.5779v2.9591h-1.5828l-1e-3 -2.3438c-1e-3 -2.5455-0.0952-3.1371-0.58318-3.6546-0.9434-1-2.9144-0.434-3.2978 0.9471-0.0764 0.275-0.1351 1.4749-0.13548 2.7684l-1.3e-4 2.2829h-1.7046zm-12.297-5.2579c-0.99296-0.3768-0.9545-1.8032 0.0554-2.0567 0.98408-0.2471 1.7416 1.0616 1.0099 1.7446-0.30007 0.28-0.77949 0.4205-1.0653 0.3121zm7.5487-4.6086c-1.3434-0.21239-2.9797-0.6937-4.0325-1.1861l-0.8383-0.39208 0.78933-1.7046c0.43416-0.93745 0.80671-1.7534 0.82792-1.8132 0.0212-0.0596 0.47155 0.0972 1.0007 0.34801 1.496 0.70994 2.9817 1.0391 4.6906 1.0391 2.0158 0 2.8542-0.26562 3.7889-1.2002 0.56979-0.56979 0.73074-0.82933 0.94359-1.5217 0.15679-0.50992 0.25661-1.1653 0.25661-1.6848v-0.85031l-0.78923 0.7233c-1.434 1.314-2.8232 1.8566-4.7457 1.8534-1.9188 0-3.4676-0.53323-4.8696-1.6665-3.4202-2.7648-3.6575-8.9655-0.46414-12.128 1.3531-1.3402 2.9451-2.0196 4.9637-2.1179 2.0601-0.10051 3.4985 0.38114 5.0642 1.6958l0.84083 0.70596v-2.0715h4.7484v7.4771c0 8.0752-0.0211 8.3973-0.66297 10.116-0.9066 2.4278-2.987 3.9123-6.1513 4.3893-1.4219 0.21438-3.9694 0.20918-5.361-0.011zm5.2638-10.867c1.3762-0.67791 2.1632-1.921 2.1632-3.4169 0-1.6275-0.75623-2.8807-2.1533-3.5686-0.75945-0.37385-0.91594-0.40588-1.9837-0.40588-0.99946 0-1.254 0.0442-1.8469 0.3225-1.8022 0.84478-2.6883 2.8291-2.1264 4.7618 0.51646 1.7765 2.0448 2.7983 4.0956 2.7384 0.89244-0.0254 1.1521-0.0873 1.8516-0.43129zm-68.596 6.1895c-3.4268-0.62832-5.8598-2.6756-6.8793-5.7887-0.41906-1.2796-0.52989-3.5624-0.24081-4.9602 0.85292-4.1244 4.1669-6.9107 8.2193-6.9107 4.2396 0 7.1741 2.4585 8.0658 6.7573 0.14242 0.68663 0.22789 1.6068 0.2289 2.4643l0.0015 1.3685-5.9596 0.032-5.9596 0.0309 0.29317 0.72132c0.36135 0.88907 1.2106 1.7812 2.0573 2.1613 0.51861 0.23282 0.82892 0.27832 1.8984 0.27843 1.1905 1.1e-4 1.3365-0.0276 2.1238-0.39793 0.46495-0.21901 1.0768-0.58778 1.3598-0.81972 0.28293-0.23171 0.54925-0.42145 0.59182-0.42145 0.11932 0 2.7428 2.3341 2.7428 2.4404 0 0.0519-0.3917 0.45624-0.87046 0.89957-0.95089 0.88035-2.3278 1.6364-3.5735 1.9623-0.85646 0.22421-3.2828 0.33189-4.0993 0.18213zm4.6472-10.411c0-0.97732-1.0045-2.4949-2.0034-3.0268-0.7049-0.37529-2.3499-0.37529-3.0548 0-0.97678 0.5202-1.8565 1.7499-2.0714 2.8955l-0.08087 0.43106h7.2105zm41.092 10.347c-3.4876-0.6461-6.0327-3.0606-6.8285-6.4778-0.28349-1.2173-0.25254-3.3762 0.0659-4.6044 0.67559-2.605 2.214-4.5658 4.4492-5.6712 3.4564-1.7092 8.0492-0.7476 10.09 2.1128 1.2762 1.7884 1.7954 3.4782 1.823 5.9326l0.0185 1.6436-5.9266 0.032-5.9266 0.0309 0.0966 0.33718c0.0532 0.18533 0.21394 0.56692 0.35724 0.84778 1.2262 2.4036 4.8213 2.8022 7.2802 0.80723 0.27913-0.22641 0.54174-0.41173 0.5836-0.41173 0.10592 0 2.7428 2.3563 2.7435 2.4515 1e-3 0.18511-1.6051 1.5458-2.3203 1.9652-1.7816 1.045-4.2384 1.4242-6.5062 1.0039zm4.886-10.524c-0.18505-1.1572-0.99541-2.3378-1.9556-2.8489-0.39519-0.21029-0.70451-0.26396-1.5302-0.26507-0.9197 0-1.107 0.0387-1.683 0.35762-0.35648 0.19748-0.8162 0.57122-1.0216 0.83054-0.41598 0.52517-0.9406 1.7066-0.94504 2.1282l-3e-3 0.2739h7.2145zm-66.371 10.418c-1.8729-0.48806-2.828-1.6751-3.0983-3.8509-0.07046-0.56746-0.12818-2.8549-0.12818-5.0832v-4.0514h-1.948v-4.1397h1.948v-4.3831h4.8645l0.03325 2.1612 0.03326 2.1611 3.957 0.0662v4.1335h-4.0178l7.3e-4 3.744c3.66e-4 2.2521 0.0519 3.9283 0.12923 4.2067 0.2622 0.9443 1.4595 1.1984 3.0661 0.65096l0.82183-0.28008v3.8476l-0.38509 0.19913c-0.98954 0.51169-1.7466 0.68398-3.2066 0.72993-0.95183 0.0298-1.6732-0.011-2.0698-0.11255zm-33.178-11.22v-11.14h4.8701v22.281h-4.8701zm9.2126 11.059c-0.13244-0.13242-0.09225-8.0642 0.04779-9.4286 0.16313-1.5897 0.61115-2.9504 1.3346-4.0536 0.92072-1.404 1.8208-2.1972 3.3891-2.987 1.6623-0.83728 3.4714-1.0567 5.1564-0.62589 3.1282 0.80006 5.3341 2.9969 6.2081 6.1826 0.24548 0.89471 0.26098 1.2354 0.2704 5.941l0.0099 4.9919-4.7972 0.0662-0.03995-5.2683c-0.04474-5.8955-0.05487-5.9715-0.91534-6.8575-1.3304-1.37-3.5387-1.3979-4.8747-0.0619-0.94377 0.94375-1.0002 1.353-1.0002 7.2576v4.925h-2.3539c-1.2946 0-2.3904-0.0364-2.4351-0.0806zm52.759-8.4415v-8.5228h4.8701v3.2147l0.33482-0.6546c0.42187-0.8248 1.364-1.8663 2.0539-2.2706 0.6581-0.38567 1.6302-0.65129 2.3901-0.65328h0.57833v5.0817l-0.88271 0.0574c-1.9727 0.12778-3.4039 1.2369-4.1309 3.2013-0.25591 0.69138-0.27278 0.95358-0.31547 4.9005l-0.04513 4.17h-4.853zm13.271 0v-8.5228h4.8701l7.6e-4 1.6133 7.6e-4 1.6133 0.37972-0.66963c1.1006-1.941 2.617-2.9221 4.5161-2.9221h0.58566l-0.0329 2.5264-0.0329 2.5263-0.92252 0.0751c-2.1082 0.17152-3.4872 1.3263-4.1992 3.5167-0.18638 0.57332-0.22473 1.2513-0.2669 4.7179l-0.0493 4.0483h-4.8502z" fill="#fff" stroke-width=".12175"/>
</g>
</svg>
