<?xml version="1.0" encoding="UTF-8" standalone="no"?>
<!-- Created with Inkscape (http://www.inkscape.org/) -->

<svg
   xmlns:dc="http://purl.org/dc/elements/1.1/"
   xmlns:cc="http://creativecommons.org/ns#"
   xmlns:rdf="http://www.w3.org/1999/02/22-rdf-syntax-ns#"
   xmlns:svg="http://www.w3.org/2000/svg"
   xmlns="http://www.w3.org/2000/svg"
   xmlns:sodipodi="http://sodipodi.sourceforge.net/DTD/sodipodi-0.dtd"
   xmlns:inkscape="http://www.inkscape.org/namespaces/inkscape"
   width="250"
   height="91"
   viewBox="0 0 250 91"
   id="svg2"
   version="1.1"
   inkscape:version="0.92.2 (5c3e80d, 2017-08-06)"
   sodipodi:docname="scope-bradford.svg"
   inkscape:export-filename="C:\Users\Amy\Desktop\Assets\arup.png"
   inkscape:export-xdpi="90"
   inkscape:export-ydpi="90">
  <defs
     id="defs4" />
  <sodipodi:namedview
     id="base"
     pagecolor="#ffffff"
     bordercolor="#666666"
     borderopacity="1.0"
     inkscape:pageopacity="0.0"
     inkscape:pageshadow="2"
     inkscape:zoom="1.9799"
     inkscape:cx="183.26"
     inkscape:cy="27.908"
     inkscape:document-units="px"
     inkscape:current-layer="layer1"
     showgrid="false"
     inkscape:window-width="1920"
     inkscape:window-height="1001"
     inkscape:window-x="-9"
     inkscape:window-y="-9"
     inkscape:window-maximized="1"
     units="px" />
  <metadata
     id="metadata7">
    <rdf:RDF>
      <cc:Work
         rdf:about="">
        <dc:format>image/svg+xml</dc:format>
        <dc:type
           rdf:resource="http://purl.org/dc/dcmitype/StillImage" />
        <dc:title></dc:title>
      </cc:Work>
    </rdf:RDF>
  </metadata>
  <g
     inkscape:label="Layer 1"
     inkscape:groupmode="layer"
     id="layer1"
     transform="translate(0,-961.4)">
    <rect
       style="opacity:0.001;fill:none;fill-opacity:1;stroke:none;stroke-width:2.5;stroke-linecap:round;stroke-linejoin:round;stroke-miterlimit:4;stroke-dasharray:none;stroke-dashoffset:0;stroke-opacity:1"
       id="rect4175"
       width="250"
       height="91"
       x="0"
       y="961.4" />
    <path
       style="fill:#ffffff;stroke-width:0.12175267"
       d="m 56.227156,1042.7287 c -0.712946,-0.2285 -0.848121,-0.359 -0.702772,-0.6779 0.127886,-0.2808 0.153219,-0.2871 0.477301,-0.1195 0.847597,0.4382 1.815363,0.011 1.815363,-0.8003 v -0.3797 l -0.320803,0.2524 c -0.712846,0.5607 -1.899516,0.1378 -2.223744,-0.7924 -0.238308,-0.6836 -0.09275,-1.3342 0.411303,-1.8382 0.335688,-0.3358 0.495519,-0.4045 0.941149,-0.4045 0.295234,0 0.643143,0.081 0.773129,0.1789 0.304146,0.2299 0.418966,0.231 0.418966,0.011 0,-0.1218 0.121753,-0.1827 0.365259,-0.1827 h 0.365257 l -2.43e-4,1.735 c -2.44e-4,1.8912 -0.120581,2.3509 -0.730326,2.7883 -0.360845,0.2587 -1.152982,0.3767 -1.589899,0.2368 z m 1.315949,-2.519 c 0.579741,-0.6488 0.157943,-1.6323 -0.700078,-1.6323 -0.930982,0 -1.294877,1.0372 -0.605696,1.7264 0.434291,0.4342 0.861163,0.4035 1.305774,-0.094 z m -28.824946,0.1332 v -2.3743 h 0.365258 c 0.288356,0 0.365258,0.053 0.365258,0.2524 v 0.2524 l 0.320803,-0.2524 c 0.600127,-0.472 1.688657,-0.2533 2.171771,0.4364 0.464707,0.6635 0.308749,1.8842 -0.306908,2.4021 -0.528559,0.4449 -1.100111,0.5207 -1.697446,0.2251 l -0.48822,-0.2416 v 0.837 0.837 h -0.365258 -0.365258 z m 2.497193,0.037 c 0.266022,-0.3161 0.314396,-0.4699 0.258435,-0.8218 -0.08377,-0.5266 -0.568516,-0.9806 -1.047057,-0.9806 -0.474897,0 -0.978055,0.6026 -0.978055,1.1715 0,0.9741 1.136393,1.3801 1.766677,0.6309 z m 68.36287,-0.037 v -2.3743 h 0.36525 c 0.288358,0 0.365258,0.053 0.365258,0.2524 v 0.2524 l 0.3208,-0.2524 c 0.72204,-0.568 1.92408,-0.1746 2.29438,0.7509 0.60612,1.5149 -0.75288,2.9925 -2.12696,2.3127 l -0.48822,-0.2416 v 0.837 0.837 h -0.365258 -0.36525 z m 2.485098,0.052 c 0.3612,-0.4292 0.3914,-0.7076 0.1313,-1.2106 -0.36559,-0.707 -1.08185,-0.8127 -1.57069,-0.2317 -0.638528,0.7588 -0.22894,1.8169 0.70333,1.8169 0.32048,0 0.49603,-0.089 0.73606,-0.3746 z m 56.82589,1.1668 c -0.68179,-0.2126 -1.0537,-0.5688 -1.32322,-1.2671 -0.18178,-0.4709 -0.21614,-0.9568 -0.21614,-3.0559 v -2.4959 l 0.45658,-0.038 0.45658,-0.037 v 2.4463 c 0,2.7464 0.0797,3.1203 0.75362,3.5311 0.7519,0.4584 2.19861,0.2419 2.55433,-0.3823 0.11498,-0.2017 0.17966,-1.044 0.22287,-2.9018 l 0.0609,-2.6178 0.45658,-0.037 0.45657,-0.038 v 2.4203 c 0,2.8268 -0.12052,3.442 -0.78938,4.0292 -0.70618,0.6201 -1.95275,0.7996 -3.08927,0.4451 z m 14.36688,0.05 c -1.74109,-0.532 -2.67733,-2.4661 -2.16392,-4.4701 0.35373,-1.3808 1.17102,-2.1935 2.47872,-2.465 1.65159,-0.3428 3.19379,0.5094 3.74402,2.0688 0.2287,0.6482 0.23378,2.2143 0.009,2.8439 -0.45996,1.2895 -1.47652,2.0398 -2.85589,2.1078 -0.44194,0.022 -0.9874,-0.017 -1.21214,-0.085 z m 1.70808,-0.7734 c 1.50327,-0.315 2.15869,-2.9141 1.12955,-4.4793 -0.52984,-0.8059 -1.74615,-1.1746 -2.69502,-0.8169 -1.52354,0.5745 -2.03018,3.2418 -0.8673,4.5663 0.44316,0.5048 0.73801,0.68 1.31595,0.782 0.43019,0.076 0.52706,0.072 1.11682,-0.052 z m 34.27722,0.758 c -0.615,-0.1631 -1.24444,-0.7769 -1.41063,-1.3756 -0.0785,-0.2829 -0.1351,-1.5404 -0.13549,-3.012 l -6.8e-4,-2.5263 h 0.42614 0.42613 l 0.007,2.4046 c 0.008,2.7109 0.0877,3.1075 0.71122,3.5266 0.48679,0.3274 1.3747,0.3737 2.01718,0.105 0.74963,-0.3133 0.83823,-0.6608 0.89479,-3.5101 l 0.0501,-2.5263 h 0.41232 0.41235 l -0.001,2.4655 c 0,1.4229 -0.0575,2.6703 -0.13513,2.9497 -0.1723,0.6207 -0.88997,1.3384 -1.5106,1.5106 -0.58137,0.1614 -1.53013,0.1562 -2.16392,-0.012 z m 16.92341,-0.021 c -0.92294,-0.3441 -1.38492,-0.7558 -1.8045,-1.6081 -0.35552,-0.7221 -0.39899,-0.9214 -0.39272,-1.8008 0.009,-1.2263 0.33332,-2.0558 1.07036,-2.7351 0.64237,-0.5921 1.24635,-0.805 2.25884,-0.7958 1.9281,0.018 3.1922,1.3812 3.20271,3.4548 0.008,1.565 -0.52469,2.6192 -1.62631,3.2187 -0.77103,0.4197 -1.97858,0.5384 -2.70838,0.2663 z m 1.77424,-0.7407 c 0.59604,-0.1258 1.28509,-0.8697 1.50441,-1.6242 0.33051,-1.1368 0.0368,-2.5971 -0.64671,-3.2151 -0.35891,-0.3245 -1.07818,-0.5829 -1.62266,-0.5829 -1.7008,0 -2.72433,1.8559 -2.12905,3.8604 0.19702,0.6634 0.91164,1.4395 1.42685,1.5497 0.74049,0.1584 0.77284,0.1586 1.46716,0.012 z m -76.98119,-2.6853 v -3.4725 l 2.46548,0.033 2.4655,0.033 0.0381,0.3957 0.0381,0.3957 h -2.07751 -2.07751 v 1.0318 1.0319 l 1.9176,0.033 1.9176,0.033 0.0381,0.3958 0.0381,0.3957 h -1.95575 -1.95576 v 1.1566 1.1566 h 2.13067 2.13067 v 0.4261 0.4262 h -2.55681 -2.5568 z m 13.39279,0 v -3.47 h 1.62705 c 2.1889,0 2.8316,0.1273 3.32702,0.6592 0.93669,1.0057 0.48836,2.6174 -0.83867,3.015 l -0.47775,0.1431 0.38816,0.3038 c 0.31733,0.2484 1.94007,2.5576 1.94007,2.7609 0,0.032 -0.24551,0.057 -0.54559,0.057 h -0.54558 l -0.77035,-1.1871 c -0.4237,-0.6529 -0.94943,-1.3378 -1.16829,-1.5219 -0.35027,-0.2947 -0.49896,-0.3349 -1.24087,-0.3349 h -0.84293 v 1.522 1.5219 h -0.42613 -0.42614 z m 4.21129,-0.8287 c 0.40606,-0.4725 0.38367,-0.9871 -0.0623,-1.4331 -0.35406,-0.3541 -0.36344,-0.356 -1.82629,-0.356 h -1.4704 v 1.1057 1.1058 l 1.53274,-0.041 c 1.5068,-0.04 1.5377,-0.046 1.82628,-0.3819 z m 10.15552,0.8287 v -3.47 h 1.50529 c 2.39764,0 3.0895,0.2177 3.55902,1.1202 0.27271,0.524 0.21997,1.5715 -0.10327,2.0513 -0.49428,0.7334 -0.94703,0.9017 -2.55639,0.9504 l -1.4306,0.043 v 1.3873 1.3873 h -0.487 -0.48702 z m 3.97111,-0.5674 c 0.48502,-0.4854 0.45821,-1.2441 -0.0603,-1.7074 -0.36914,-0.3298 -0.43245,-0.343 -1.66026,-0.343 h -1.27649 v 1.2283 1.2284 l 1.33682,-0.041 c 1.25854,-0.039 1.35576,-0.06 1.66026,-0.3649 z m 2.48178,0.5674 v -3.47 h 2.49594 2.49593 v 0.4232 0.4232 l -2.03936,0.033 -2.03936,0.033 -0.0353,1.0043 -0.0353,1.0045 h 1.95297 1.95297 v 0.423 0.4231 l -1.91762,0.033 -1.9176,0.033 -0.035,1.1262 -0.035,1.1262 h 2.13524 2.13525 v 0.4262 0.4261 h -2.55681 -2.5568 z m 6.53238,1.1262 c 0.49738,-1.2891 1.10065,-2.8533 1.34058,-3.4762 l 0.43624,-1.1325 0.49582,0.036 0.49583,0.036 1.37175,3.3482 c 0.75448,1.8415 1.37382,3.3924 1.37634,3.4465 0.002,0.054 -0.22672,0.082 -0.50944,0.061 l -0.51402,-0.038 -0.37627,-0.9741 -0.37628,-0.974 -1.45726,-0.034 -1.45726,-0.034 -0.35996,1.0384 -0.35996,1.0385 h -0.50524 -0.50523 z m 3.32606,-0.6088 c -0.008,-0.3253 -1.07749,-3.0638 -1.12976,-2.8916 -0.0485,0.1596 -0.87283,2.4802 -1.02719,2.8916 -0.0431,0.1148 0.21535,0.1522 1.05168,0.1522 0.80775,0 1.10784,-0.041 1.10527,-0.1522 z m 2.95413,-0.487 0.0324,-3.4395 0.43562,-0.036 0.43564,-0.037 1.81678,2.6929 1.81681,2.6927 0.0328,-2.6867 0.0328,-2.6866 h 0.4238 0.4238 v 3.4699 3.47 h -0.48672 -0.48672 l -1.73527,-2.6145 c -0.9544,-1.4379 -1.77635,-2.6159 -1.82658,-2.6176 -0.0503,0 -0.0913,1.1747 -0.0913,2.6143 v 2.6178 h -0.42804 -0.42802 z m 16.65159,-0.03 v -3.4699 h 0.42583 c 0.41969,0 0.45174,0.039 2.22197,2.6952 l 1.79616,2.6952 0.0328,-2.6952 0.0328,-2.6952 h 0.4238 0.4238 v 3.4699 3.47 h -0.46864 -0.46862 l -1.75336,-2.6361 -1.75334,-2.6361 -0.0328,2.6361 -0.0328,2.6361 h -0.42375 -0.42376 z m 7.06165,0 v -3.4699 h 0.42613 0.42614 v 3.4699 3.47 h -0.42614 -0.42613 z m 9.98371,0 v -3.4699 h 0.46752 0.46753 l 1.81534,2.709 1.81534,2.709 0.0328,-2.709 0.0328,-2.709 h 0.42379 0.42381 v 3.4699 3.47 h -0.48673 -0.48672 l -1.73527,-2.6145 c -0.95439,-1.4378 -1.77634,-2.6158 -1.82657,-2.6176 -0.0503,0 -0.0913,1.1747 -0.0913,2.6143 v 2.6178 h -0.42614 -0.42613 z m -213.216305,3.1584 c -0.505738,-0.2744 -0.581384,-0.5339 -0.581384,-1.9937 v -1.3473 h 0.365257 0.365259 v 1.2088 c 0,0.9367 0.04307,1.252 0.191327,1.4002 0.260467,0.2604 0.816382,0.2408 1.164907,-0.041 0.259363,-0.2098 0.291544,-0.3465 0.329615,-1.4002 l 0.04223,-1.1675 h 0.3535 0.35351 v 1.7046 1.7045 h -0.365259 c -0.282222,0 -0.365257,-0.055 -0.365257,-0.2399 0,-0.2274 -0.02283,-0.2243 -0.443126,0.061 -0.50128,0.3401 -0.926478,0.3736 -1.410544,0.1108 z m 6.906406,0.018 c -0.637292,-0.2832 -0.948058,-0.7306 -1.007793,-1.4509 -0.06567,-0.7922 0.158857,-1.2903 0.745271,-1.6528 0.857237,-0.5297 2.156011,-0.2148 2.592198,0.6287 0.282239,0.5458 0.173939,1.5785 -0.209102,1.9939 -0.563525,0.6111 -1.400743,0.8012 -2.120574,0.4811 z m 1.466564,-0.8574 c 0.451329,-0.4514 0.417171,-1.1627 -0.07579,-1.5776 -0.40918,-0.3442 -0.715541,-0.3915 -1.124873,-0.1735 -0.409233,0.218 -0.562216,0.4854 -0.566447,0.9902 -0.0053,0.6193 0.423319,1.0598 1.031025,1.0598 0.301855,0 0.529723,-0.093 0.736048,-0.2989 z m 6.934371,0.8065 c -0.615993,-0.2921 -0.913275,-0.8006 -0.912689,-1.5614 7.61e-4,-1.0703 0.670781,-1.7471 1.72847,-1.7461 0.966967,0 1.680148,0.7225 1.680148,1.7002 v 0.3691 h -1.339279 c -0.736604,0 -1.339279,0.031 -1.339279,0.07 0,0.2384 0.300348,0.5397 0.65442,0.6567 0.335459,0.1106 0.509946,0.097 0.931416,-0.072 0.496606,-0.1987 0.525667,-0.1979 0.684387,0.019 0.147617,0.2018 0.127856,0.2507 -0.180559,0.4459 -0.538787,0.3412 -1.333596,0.3907 -1.907035,0.1189 z m 1.765413,-1.9742 c 0,-0.2659 -0.60301,-0.725 -0.952068,-0.725 -0.394531,0 -0.995974,0.4097 -0.995974,0.6785 0,0.1361 0.211408,0.1737 0.97402,0.1737 0.596413,0 0.974022,-0.05 0.974022,-0.1272 z m 1.738241,1.9568 c -0.642093,-0.3914 -0.690985,-1.2673 -0.09262,-1.6594 0.166359,-0.1093 0.65859,-0.2267 1.09384,-0.2617 0.828002,-0.066 0.969084,-0.2004 0.600036,-0.5694 -0.225082,-0.2251 -0.767597,-0.2485 -1.199493,-0.052 -0.236565,0.1082 -0.349003,0.1038 -0.49274,-0.015 -0.102437,-0.085 -0.186235,-0.1923 -0.186235,-0.2387 0,-0.1918 0.903024,-0.4947 1.474531,-0.4947 0.516292,0 0.670628,0.056 0.969889,0.3559 0.350511,0.3505 0.35589,0.3763 0.35589,1.7045 v 1.3487 h -0.304381 c -0.178916,0 -0.304382,-0.07 -0.304382,-0.1696 0,-0.1338 -0.09492,-0.121 -0.451878,0.061 -0.575441,0.2934 -0.969554,0.2908 -1.462462,-0.011 z m 1.471783,-0.6209 c 0.189158,-0.1487 0.320804,-0.3736 0.320804,-0.5479 0,-0.2555 -0.05661,-0.2955 -0.418206,-0.2955 -0.941185,0 -1.433249,0.4619 -0.927892,0.8713 0.359345,0.2909 0.62934,0.2836 1.025294,-0.028 z m 13.626719,0.7758 c -0.423059,-0.082 -0.975413,-0.6769 -1.115307,-1.2015 -0.322318,-1.2087 0.457044,-2.2439 1.689196,-2.2439 0.987186,0 1.582785,0.571 1.582785,1.5176 v 0.5521 h -1.343563 c -1.31553,0 -1.340787,0.011 -1.21036,0.2489 0.07328,0.1369 0.319624,0.3378 0.547477,0.4464 0.383285,0.1828 0.452981,0.1824 0.931743,-0.011 0.452448,-0.1777 0.539691,-0.181 0.694309,-0.027 0.446802,0.4469 -0.723689,0.9164 -1.77628,0.7125 z m 1.426158,-2.2211 c 0,-0.2882 -0.438568,-0.6156 -0.824532,-0.6156 -0.415138,0 -0.961077,0.3183 -1.035757,0.6038 -0.06133,0.2346 -0.01134,0.2484 0.897666,0.2484 0.872092,0 0.962623,-0.022 0.962623,-0.2366 z m 8.583563,2.2172 c -0.980428,-0.2454 -1.571865,-1.5504 -1.10734,-2.4432 0.315309,-0.606 0.752287,-0.9076 1.406342,-0.9704 1.51051,-0.1451 2.447237,1.1047 1.846242,2.4634 -0.348973,0.7889 -1.230364,1.1793 -2.145244,0.9502 z m 1.284849,-0.9525 c 0.428615,-0.4563 0.406905,-1.1989 -0.04642,-1.5889 -0.469599,-0.4039 -0.98526,-0.3807 -1.430403,0.065 -0.398595,0.3986 -0.452304,0.809 -0.175826,1.3437 0.209301,0.4048 0.333062,0.4693 0.924924,0.4824 0.31747,0.011 0.51452,-0.074 0.727746,-0.3016 z m 6.36835,0.8658 c -0.264074,-0.1148 -0.426835,-0.3008 -0.525751,-0.6006 -0.286934,-0.8694 0.310774,-1.3927 1.608307,-1.4081 0.482149,-0.011 0.578325,-0.045 0.578325,-0.2355 0,-0.3619 -0.30894,-0.5356 -0.81954,-0.4603 -1.015128,0.1493 -1.058937,0.1464 -1.103635,-0.075 -0.0903,-0.446 1.456253,-0.7685 2.083371,-0.4345 0.500631,0.2666 0.562422,0.4737 0.566446,1.8977 0.0038,1.3683 0.0038,1.3698 -0.290364,1.3698 -0.161825,0 -0.313354,-0.058 -0.336723,-0.1275 -0.02747,-0.083 -0.201964,-0.061 -0.493242,0.061 -0.544722,0.2276 -0.76759,0.2297 -1.267194,0.012 z m 1.497086,-0.6919 c 0.09009,-0.075 0.163795,-0.2937 0.163795,-0.4863 0,-0.2877 -0.05174,-0.3504 -0.289163,-0.3504 -1.01518,0 -1.500304,0.4021 -1.040224,0.8622 0.273,0.2729 0.82034,0.261 1.165592,-0.026 z m 11.245716,0.6546 c -1.206752,-0.6064 -1.317151,-2.3743 -0.191684,-3.0699 0.365402,-0.2259 0.570426,-0.2664 1.118115,-0.221 0.916957,0.076 1.392136,0.5336 1.477591,1.4231 l 0.05959,0.62 h -1.354765 c -0.745126,0 -1.354773,0.045 -1.354773,0.1005 0,0.181 0.540735,0.6102 0.872388,0.6925 0.20437,0.051 0.486372,0 0.761747,-0.127 0.351788,-0.1669 0.472788,-0.178 0.619082,-0.056 0.286361,0.2377 0.219534,0.3594 -0.335612,0.6115 -0.645503,0.2929 -1.126715,0.3007 -1.671672,0.027 z m 1.70211,-2.0009 c 0,-0.08 -0.119128,-0.2712 -0.264729,-0.4261 -0.362708,-0.3861 -0.989042,-0.3784 -1.384465,0.017 -0.477239,0.4774 -0.384289,0.5536 0.675172,0.5536 0.669807,0 0.974022,-0.045 0.974022,-0.1445 z m 6.153596,2.1254 c -0.759951,-0.1931 -1.161736,-0.8073 -1.161736,-1.776 0,-0.7352 0.252741,-1.1735 0.856976,-1.4859 0.48887,-0.2528 1.31856,-0.2262 1.78337,0.057 0.47386,0.2889 0.59779,0.508 0.70967,1.254 l 0.0867,0.5784 h -1.36202 c -1.231,0 -1.35826,0.021 -1.32267,0.2131 0.0216,0.1171 0.24918,0.3155 0.50564,0.4407 0.43869,0.2143 0.49601,0.2161 0.96935,0.031 0.43986,-0.1728 0.52529,-0.1754 0.67991,-0.021 0.44048,0.4404 -0.80708,0.9473 -1.74521,0.709 z m 1.42938,-2.2283 c -0.15505,-0.5929 -0.99101,-0.7843 -1.5398,-0.3527 -0.58153,0.4574 -0.429072,0.5999 0.64182,0.5999 0.90752,0 0.95892,-0.014 0.89798,-0.2472 z m 4.16012,2.1524 c -0.20421,-0.093 -0.51924,-0.3442 -0.70007,-0.5591 -0.63354,-0.7529 -0.35654,-2.1694 0.51205,-2.6185 0.50763,-0.2625 1.45105,-0.2412 1.88139,0.043 1.056762,0.6965 1.081342,2.3092 0.0455,2.9879 -0.41696,0.2732 -1.29656,0.3476 -1.7389,0.1471 z m 1.4726,-0.8647 c 0.45133,-0.4514 0.41717,-1.1627 -0.0758,-1.5776 -0.20602,-0.1733 -0.48268,-0.3151 -0.6148,-0.3151 -0.33682,0 -0.91451,0.3181 -1.00475,0.5534 -0.1515,0.3947 -0.0698,1.0039 0.17671,1.3173 0.34581,0.4396 1.09016,0.4504 1.5186,0.022 z m 13.45679,0.8161 c -0.66306,-0.3382 -0.92268,-0.7891 -0.91643,-1.5918 0.009,-1.126 0.62812,-1.7267 1.77844,-1.7251 0.94749,0 1.55216,0.6029 1.56007,1.5517 l 0.004,0.5174 h -1.35412 -1.35413 l 0.17946,0.274 c 0.0987,0.1506 0.3368,0.3512 0.52909,0.4458 0.30545,0.1502 0.41855,0.1471 0.89549,-0.024 0.39452,-0.142 0.58954,-0.1602 0.7033,-0.065 0.26084,0.2166 0.18272,0.3448 -0.36004,0.5911 -0.64553,0.2931 -1.12835,0.3008 -1.66544,0.026 z m 1.69588,-2.0391 c 0,-0.1006 -0.10956,-0.2923 -0.2435,-0.4263 -0.34995,-0.3498 -1.02707,-0.3232 -1.4057,0.055 -0.47724,0.4773 -0.38429,0.5534 0.67518,0.5534 0.78462,0 0.97402,-0.035 0.97402,-0.1826 z m 6.49636,2.1362 c -0.50893,-0.2143 -0.65223,-0.596 -0.65223,-1.7372 0,-0.9875 -0.0185,-1.0687 -0.24351,-1.0687 -0.17857,0 -0.2435,-0.082 -0.2435,-0.3044 0,-0.2232 0.0649,-0.3043 0.2435,-0.3043 0.20795,0 0.24351,-0.082 0.24351,-0.556 0,-0.5348 0.0128,-0.5546 0.33482,-0.5175 0.29959,0.034 0.33875,0.093 0.37225,0.5559 0.0363,0.5014 0.0506,0.5176 0.45658,0.5176 0.3659,0 0.41914,0.039 0.41914,0.3043 0,0.2667 -0.0527,0.3044 -0.42614,0.3044 h -0.42614 v 1.0288 c 0,0.8473 0.0371,1.0496 0.20993,1.1463 0.13577,0.076 0.28981,0.075 0.43611,0 0.29962,-0.1602 0.64293,0.2362 0.41023,0.4738 -0.20162,0.2059 -0.81937,0.2933 -1.13455,0.1606 z m 8.05015,-0.047 c -0.53705,-0.2424 -0.6667,-0.6497 -0.6667,-2.0939 v -1.2728 h 0.36526 0.36526 v 1.1296 c 0,1.3469 0.15302,1.6707 0.78946,1.6707 0.6913,0 0.91508,-0.4209 0.91508,-1.7209 v -1.0794 h 0.36526 0.36525 v 1.7046 1.7045 h -0.36525 c -0.29385,0 -0.36526,-0.052 -0.36526,-0.2647 v -0.2648 l -0.28693,0.2696 c -0.36113,0.3393 -1.003,0.4335 -1.48143,0.2175 z m 8.37419,-0.035 c -0.5586,-0.2753 -0.88385,-0.8581 -0.88167,-1.5795 0.002,-0.7365 0.18698,-1.1155 0.71807,-1.4735 0.53611,-0.3612 1.3182,-0.3724 1.75964,-0.025 l 0.32081,0.2524 v -0.922 c 0,-0.9023 0.007,-0.922 0.30439,-0.922 h 0.30437 v 2.3741 2.3742 h -0.30437 c -0.18958,0 -0.30439,-0.07 -0.30439,-0.1829 0,-0.1517 -0.0773,-0.1413 -0.45476,0.061 -0.54584,0.2924 -0.93348,0.304 -1.46209,0.043 z m 1.51638,-0.8042 c 0.36735,-0.4014 0.43364,-0.7503 0.23351,-1.2293 -0.30943,-0.7405 -0.91564,-0.8886 -1.52824,-0.3732 -0.30206,0.2543 -0.37459,0.4086 -0.37459,0.797 0,0.9388 1.07331,1.4567 1.66932,0.8055 z m -123.421997,-1.3734 v -2.256 l 1.552346,0.034 1.552347,0.034 0.0385,0.3349 0.0385,0.3348 H 15.82042 14.594804 v 0.6087 0.6088 h 1.103863 1.103855 l -0.0385,0.3349 c -0.03842,0.3336 -0.04208,0.3348 -1.103863,0.37 l -1.065336,0.035 v 0.543 0.5432 h 1.217527 1.217528 v 0.3653 0.3652 h -1.582786 -1.582785 z m 8.157429,0.5516 v -1.7045 h 0.365258 c 0.306543,0 0.365258,0.047 0.365258,0.2985 v 0.2985 l 0.322157,-0.2985 c 0.456968,-0.4235 0.773617,-0.3962 0.773617,0.067 0,0.2784 -0.05532,0.3652 -0.232684,0.3652 -0.12797,0 -0.37452,0.1686 -0.547888,0.3746 -0.281057,0.334 -0.315202,0.4792 -0.315202,1.3393 v 0.9646 H 22.38702 22.021762 Z m 18.749912,0 v -1.7045 h 0.365259 c 0.288355,0 0.365257,0.053 0.365257,0.2522 v 0.2524 l 0.320803,-0.2524 c 0.459327,-0.3612 1.265969,-0.3418 1.711767,0.041 0.332346,0.2856 0.342718,0.3319 0.382524,1.7046 l 0.04094,1.4109 h -0.375737 -0.375736 v -1.1566 c 0,-0.9944 -0.03417,-1.1909 -0.243505,-1.4002 -0.329066,-0.329 -0.800211,-0.3067 -1.162182,0.055 -0.273244,0.2732 -0.298849,0.3931 -0.298849,1.4002 v 1.1012 h -0.365262 -0.365258 z m 6.087633,-0.548 v -2.2524 h 0.907149 c 1.138296,0 2.05154,0.1912 2.317532,0.4851 0.23865,0.2638 0.37197,1.0625 0.255072,1.5281 -0.04466,0.178 -0.249122,0.4768 -0.454404,0.6643 l -0.37324,0.341 0.500236,0.6771 c 0.27513,0.3724 0.500236,0.7069 0.500236,0.7433 0,0.037 -0.205458,0.064 -0.456573,0.062 -0.417596,0 -0.500723,-0.065 -0.973724,-0.7306 -0.484424,-0.6812 -0.547986,-0.7272 -1.004461,-0.7272 h -0.487307 v 0.7305 0.7305 h -0.365257 -0.365259 z m 2.471017,-0.092 c 0.291141,-0.217 0.382835,-0.8309 0.167501,-1.1216 -0.13943,-0.1882 -0.360327,-0.2491 -1.042462,-0.2876 l -0.86554,-0.049 v 0.8051 0.8052 h 0.768123 c 0.424392,0 0.859528,-0.069 0.972378,-0.1522 z m 10.191262,0.6391 v -1.7045 h 0.365258 0.365258 v 1.7045 1.7046 h -0.365258 -0.365258 z m 5.965881,0 v -1.7045 h 0.365257 c 0.28319,0 0.365259,0.054 0.365259,0.2417 0,0.2411 7.61e-4,0.2411 0.395696,5e-4 0.596291,-0.3635 1.250362,-0.3194 1.683467,0.1137 0.350511,0.3505 0.35589,0.3763 0.35589,1.7046 v 1.3486 H 68.287778 67.92252 v -1.1567 c 0,-0.9943 -0.03417,-1.1908 -0.243505,-1.4002 -0.277314,-0.2772 -0.471464,-0.3008 -0.893992,-0.1082 -0.430555,0.1962 -0.56704,0.6047 -0.56704,1.6969 v 0.9683 h -0.365259 -0.365257 z m 8.035676,-0.6696 v -2.3742 h 0.304382 0.304381 v 2.3742 2.3742 h -0.304381 -0.304382 z m 3.558519,0.1522 0.03318,-2.222 1.217527,0.012 c 1.438737,0.014 2.060771,0.2575 2.506493,0.9787 0.340077,0.5503 0.382577,1.7266 0.08297,2.2962 -0.482498,0.9171 -1.033345,1.1567 -2.661011,1.1567 h -1.212346 z m 2.845672,1.0775 c 0.349552,-0.3496 0.413959,-0.5002 0.413959,-0.9683 0,-1.102 -0.440912,-1.5348 -1.663165,-1.6329 l -0.771888,-0.062 v 1.5385 1.5386 h 0.803567 c 0.751526,0 0.830376,-0.026 1.217527,-0.4139 z m 6.231279,-0.5601 -0.680438,-1.7045 h 0.384283 c 0.373947,0 0.397028,0.033 0.858761,1.2176 0.260981,0.6696 0.507526,1.2175 0.547893,1.2175 0.04031,0 0.286913,-0.5479 0.547882,-1.2175 0.465987,-1.1958 0.481593,-1.2176 0.870854,-1.2176 h 0.396363 l -0.680437,1.7045 -0.680437,1.7046 h -0.442142 -0.442131 z m 7.453717,-0.6696 v -2.3742 h 0.36527 0.36525 v 2.3742 2.3742 H 93.9776 93.61233 Z m 10.22722,0.6696 v -1.7045 h 0.36526 c 0.28319,0 0.36525,0.054 0.36525,0.2417 0,0.2411 7.6e-4,0.2411 0.3957,5e-4 0.54339,-0.3313 1.24504,-0.317 1.59453,0.033 l 0.2746,0.2746 0.40751,-0.2746 c 0.48092,-0.3241 1.22092,-0.3618 1.64507,-0.084 0.41691,0.2733 0.55271,0.7842 0.55271,2.0799 v 1.1385 h -0.36527 -0.36525 v -1.0793 c 0,-0.9076 -0.0402,-1.1304 -0.25234,-1.4002 -0.31934,-0.406 -0.76093,-0.4143 -1.15335,-0.022 -0.27324,0.2733 -0.29885,0.3932 -0.29885,1.4002 v 1.1013 h -0.35385 -0.35385 l -0.0418,-1.2275 c -0.0356,-1.0456 -0.0769,-1.2531 -0.27818,-1.4002 -0.35828,-0.2617 -0.65885,-0.2093 -1.05144,0.1832 -0.33802,0.3381 -0.35589,0.4084 -0.35589,1.4002 v 1.0443 h -0.36526 -0.36525 v -1.7045 z m 10.59248,0 v -1.7045 h 0.36526 c 0.28836,0 0.36525,0.053 0.36525,0.2523 v 0.2524 l 0.32081,-0.2524 c 0.545,-0.4286 1.51537,-0.2865 1.8684,0.2738 0.10349,0.1643 0.18808,0.7636 0.22214,1.5741 l 0.055,1.3089 h -0.36913 -0.36915 l -0.0422,-1.1441 c -0.0337,-0.9148 -0.0887,-1.1954 -0.27412,-1.4002 -0.29407,-0.3246 -0.68126,-0.326 -1.09093,0 -0.30604,0.2408 -0.32079,0.3052 -0.32079,1.4002 v 1.1478 h -0.36526 -0.36527 v -1.7045 z m 8.64445,-0.5479 v -2.2524 h 1.46103 1.46104 v 0.3652 0.3654 h -1.09578 -1.09577 v 0.6088 0.6086 h 0.97402 0.97402 v 0.3654 0.3652 h -0.97402 -0.97402 v 0.9132 0.9131 h -0.36526 -0.36526 z m 7.79217,0.5479 v -1.7045 h 0.36526 c 0.28318,0 0.36526,0.054 0.36526,0.2417 0,0.2411 0.001,0.2411 0.39569,5e-4 0.5963,-0.3635 1.25036,-0.3194 1.68346,0.1137 0.35052,0.3505 0.3559,0.3763 0.3559,1.7046 v 1.3486 h -0.36099 -0.361 l -0.0347,-1.2436 c -0.0334,-1.1981 -0.0464,-1.2501 -0.35281,-1.4218 -0.26245,-0.1472 -0.38217,-0.1518 -0.68428,-0.027 -0.49996,0.2072 -0.64127,0.5869 -0.64127,1.7239 v 0.9682 h -0.36526 -0.36526 z m -71.220456,-2.3682 c -0.322363,-0.3886 0.153271,-0.999 0.532827,-0.684 0.229032,0.1901 0.250041,0.5112 0.04672,0.7146 -0.195208,0.1952 -0.401137,0.1843 -0.579558,-0.03 z m 91.309656,-37.56645 v -28.73377 h 43.1007 43.10069 l -0.0307,28.70318 -0.0307,28.70314 -43.07001,0.031 -43.07001,0.03 z m 84.83144,-0.0298 -0.0307,-27.4249 h -41.76117 -41.76116 l -0.0311,27.27271 c -0.0172,14.99984 -0.006,27.34104 0.0266,27.42474 0.0462,0.1212 8.52288,0.1522 41.82308,0.1522 h 41.76525 z m -43.55728,21.29515 c 0,-0.023 0.10105,-0.3379 0.22452,-0.7001 0.45775,-1.342 0.48525,-1.234 -0.49858,-1.9574 l -0.8826,-0.6489 1.1237,-0.035 1.12368,-0.035 0.32126,-1.0305 c 0.17668,-0.5667 0.34041,-1.0303 0.36385,-1.0303 0.0234,0 0.18716,0.4637 0.36388,1.0304 l 0.3213,1.0306 1.11323,0.035 1.11323,0.035 -0.88996,0.6542 c -0.48947,0.3599 -0.86732,0.7159 -0.83965,0.7915 0.27142,0.7397 0.58781,1.8065 0.54773,1.8466 -0.0276,0.028 -0.42552,-0.2199 -0.88419,-0.5502 l -0.83394,-0.6004 -0.37628,0.2603 c -0.20695,0.143 -0.57594,0.4145 -0.81994,0.6032 -0.40756,0.3151 -0.59124,0.4087 -0.59124,0.3011 z m -9.37495,-2.4864 c 1e-5,-0.05 0.13469,-0.5258 0.2993,-1.0594 0.16461,-0.5335 0.25708,-0.9992 0.2055,-1.0349 -0.0516,-0.035 -0.44162,-0.3114 -0.86675,-0.6128 l -0.77294,-0.5478 1.08488,-0.061 1.08489,-0.061 0.35869,-1.0957 0.35868,-1.0959 0.34994,1.1262 0.34994,1.1262 h 1.11159 1.11159 l -0.78531,0.564 c -0.43194,0.3101 -0.83252,0.6066 -0.89023,0.6588 -0.0577,0.053 0.0438,0.5416 0.22565,1.0875 0.18179,0.5459 0.3106,1.0125 0.28624,1.0369 -0.0243,0.024 -0.39984,-0.2243 -0.83441,-0.5526 -0.43454,-0.3282 -0.84042,-0.5982 -0.90191,-0.5999 -0.0615,0 -0.48612,0.27 -0.94358,0.6038 -0.45748,0.3337 -0.83176,0.5666 -0.83176,0.5174 z m 18.7499,0.062 c 0,-0.026 0.13697,-0.4505 0.30438,-0.9427 0.1674,-0.4922 0.30438,-0.9584 0.30438,-1.0359 0,-0.077 -0.39174,-0.424 -0.87055,-0.77 l -0.87053,-0.6291 h 1.10649 1.10651 l 0.33584,-1.0313 c 0.1847,-0.5672 0.36618,-1.0016 0.40324,-0.9654 0.037,0.036 0.20879,0.4865 0.38161,1.0007 l 0.3142,0.9352 1.06623,0.061 1.06624,0.061 -0.83256,0.6009 c -0.45789,0.3304 -0.84595,0.6086 -0.86233,0.6182 -0.0163,0.011 0.13082,0.4927 0.32715,1.0734 0.40178,1.1886 0.41449,1.1828 -0.71505,0.3347 -0.36364,-0.273 -0.71189,-0.4965 -0.77386,-0.4965 -0.062,0 -0.31233,0.1543 -0.55635,0.3431 -0.62489,0.4831 -1.23504,0.8997 -1.23504,0.8431 z m -25.68982,-6.9332 c 0,-0.03 0.13698,-0.4572 0.30439,-0.9494 0.16741,-0.4922 0.3041,-0.9538 0.30376,-1.0257 0,-0.072 -0.39755,-0.4049 -0.8827,-0.7397 l -0.8821,-0.6087 1.12013,-0.035 1.12013,-0.035 0.33537,-1.0299 c 0.18446,-0.5664 0.369,-0.989 0.41007,-0.9391 0.0411,0.05 0.20388,0.5154 0.36178,1.0344 l 0.2871,0.9435 h 1.15878 1.15879 l -0.8722,0.6145 c -0.47971,0.338 -0.89605,0.6531 -0.92522,0.7004 -0.0291,0.048 0.078,0.4965 0.23815,0.9987 0.16014,0.5021 0.27824,0.9498 0.26244,0.9949 -0.0158,0.045 -0.40255,-0.1916 -0.85945,-0.526 l -0.83074,-0.6084 -0.66439,0.4654 c -0.36542,0.2559 -0.77233,0.5405 -0.90424,0.6322 -0.13191,0.092 -0.23985,0.1427 -0.23985,0.1127 z m 32.62972,-0.068 c 0,-0.06 0.13601,-0.5075 0.30225,-0.9963 0.16624,-0.4887 0.2731,-0.9358 0.23746,-0.9935 -0.0356,-0.057 -0.43103,-0.3659 -0.87861,-0.6849 l -0.81381,-0.5802 1.11013,-0.035 1.11014,-0.035 0.34999,-1.1117 0.35001,-1.1115 0.35528,1.1117 0.35528,1.1116 1.10271,0.035 1.10271,0.035 -0.8503,0.5986 c -0.46767,0.3291 -0.86965,0.6134 -0.8933,0.6315 -0.0236,0.018 0.10525,0.4781 0.2865,1.0223 0.18125,0.5443 0.30519,1.0139 0.27545,1.0436 -0.0297,0.03 -0.41648,-0.2202 -0.85944,-0.5557 -0.44296,-0.3353 -0.83935,-0.6096 -0.8809,-0.6096 -0.0415,0 -0.38638,0.2369 -0.76634,0.5264 -0.84976,0.6474 -0.99521,0.7349 -0.99521,0.5979 z m -35.18653,-9.3063 c 0,-0.03 0.13698,-0.4572 0.30439,-0.9494 0.16741,-0.4921 0.30438,-0.9647 0.30438,-1.05 0,-0.085 -0.36896,-0.41824 -0.81992,-0.73964 l -0.81992,-0.58447 1.05739,-0.0353 1.05738,-0.0353 0.33551,-1.03023 c 0.18454,-0.56669 0.36985,-1.03034 0.4118,-1.03034 0.042,0 0.20962,0.45205 0.3726,1.0045 l 0.29632,1.00449 1.07622,0.0607 1.07622,0.0607 -0.80427,0.57762 c -0.44236,0.31775 -0.80344,0.64647 -0.80245,0.73057 0.001,0.084 0.13397,0.5782 0.29547,1.0982 0.17385,0.5595 0.23519,0.9108 0.15036,0.8612 -0.0787,-0.046 -0.45415,-0.3211 -0.8341,-0.6105 -0.37997,-0.2895 -0.75212,-0.5264 -0.82703,-0.5264 -0.11146,0 -0.9438,0.5602 -1.67816,1.1294 -0.0837,0.065 -0.15219,0.094 -0.15219,0.063 z m 37.62158,0 c 0,-0.029 0.15717,-0.5179 0.34924,-1.0861 l 0.34925,-1.0332 -0.92406,-0.66381 -0.92406,-0.66366 1.14612,-0.0607 1.14613,-0.0607 0.30571,-0.94353 c 0.16814,-0.51898 0.33822,-0.94364 0.37796,-0.94364 0.0398,0 0.20983,0.42466 0.37797,0.94364 l 0.30571,0.94353 1.14613,0.0607 1.14612,0.0607 -0.92407,0.66366 -0.92405,0.66381 0.34925,1.0332 c 0.19208,0.5682 0.34924,1.0524 0.34924,1.076 0,0.023 -0.41279,-0.2625 -0.91729,-0.6356 l -0.91728,-0.6783 -0.75682,0.5725 c -0.41625,0.315 -0.8253,0.6248 -0.909,0.6885 -0.0837,0.064 -0.1522,0.092 -0.1522,0.063 z m -35.06477,-9.51315 c 0,-0.0221 0.13698,-0.44222 0.30439,-0.93447 0.16741,-0.49214 0.30437,-0.93568 0.30437,-0.9856 0,-0.0497 -0.39721,-0.38258 -0.8827,-0.73965 l -0.88271,-0.64886 1.11756,-0.0353 1.11754,-0.0353 0.35504,-1.06092 0.35505,-1.06082 0.34702,1.06115 0.347,1.06126 1.13962,0.0342 1.13961,0.0342 -0.92462,0.66079 c -0.50855,0.36336 -0.90311,0.71955 -0.87679,0.79134 0.28287,0.77289 0.58415,1.80123 0.54048,1.84486 -0.0301,0.0309 -0.42987,-0.21835 -0.88806,-0.55233 l -0.83307,-0.60734 -0.4333,0.32427 c -0.23831,0.17837 -0.60283,0.45083 -0.81003,0.60545 -0.34453,0.25712 -0.5364,0.3436 -0.5364,0.24166 z m 32.62972,-0.0541 c 0,-0.0596 0.13601,-0.50761 0.30225,-0.99632 0.16624,-0.48872 0.27417,-0.93403 0.23987,-0.98959 -0.0343,-0.0552 -0.45488,-0.3775 -0.93459,-0.71546 l -0.8722,-0.61451 h 1.16589 1.16586 l 0.32265,-1.03486 c 0.17747,-0.56923 0.34654,-1.03487 0.37571,-1.03487 0.0292,0 0.19507,0.46564 0.36869,1.03487 l 0.31566,1.03486 h 1.17285 1.17285 l -0.8722,0.61451 c -0.4797,0.33796 -0.89849,0.65704 -0.93059,0.70906 -0.0321,0.0519 0.0775,0.52251 0.24363,1.04558 0.16613,0.52317 0.28338,0.96992 0.26053,0.99278 -0.0229,0.0232 -0.41703,-0.22895 -0.87599,-0.55929 -0.45896,-0.33045 -0.89399,-0.56559 -0.96671,-0.52251 -0.0728,0.0431 -0.4062,0.2771 -0.74102,0.52019 -0.79699,0.57862 -0.91314,0.64411 -0.91314,0.51556 z m -25.43854,-7.7828 c 0.19675,-0.58205 0.31317,-1.08898 0.25872,-1.12643 -0.0544,-0.0376 -0.4468,-0.31465 -0.87193,-0.61605 l -0.77294,-0.54781 1.07522,-0.0607 1.07522,-0.0607 0.35967,-1.08048 0.3597,-1.08047 0.35573,1.11096 0.35575,1.11085 h 1.11366 1.11366 l -0.87583,0.61705 c -0.48172,0.3394 -0.87584,0.66609 -0.87584,0.72595 0,0.0596 0.13476,0.53312 0.29946,1.05176 0.1647,0.51865 0.2874,0.95513 0.27266,0.96982 -0.0148,0.0144 -0.38235,-0.24177 -0.81692,-0.57001 -0.43454,-0.32824 -0.84869,-0.59816 -0.9203,-0.59993 -0.0716,0 -0.42775,0.22033 -0.79139,0.49335 -1.12963,0.84822 -1.11687,0.85418 -0.7143,-0.33674 z m 18.8101,0.11596 c 0.16151,-0.51986 0.29446,-1.011 0.29548,-1.0913 0.001,-0.0806 -0.36732,-0.40908 -0.81851,-0.73048 l -0.82032,-0.58447 1.09226,-0.0607 1.09227,-0.0607 0.29633,-1.00641 c 0.16299,-0.55244 0.33375,-1.00438 0.37945,-1.00438 0.0457,0 0.21775,0.45194 0.38232,1.00438 l 0.29921,1.00449 1.08726,0.0607 1.08726,0.0607 -0.82033,0.58447 c -0.83916,0.59784 -0.90231,0.70585 -0.70937,1.21335 0.0611,0.16047 0.19556,0.57674 0.29896,0.92486 0.21268,0.71623 0.23184,0.71778 -0.79636,-0.0652 -0.37996,-0.28947 -0.74377,-0.52637 -0.80843,-0.52637 -0.0647,0 -0.43869,0.23557 -0.8311,0.5235 -0.39239,0.28793 -0.77794,0.5625 -0.85675,0.61043 -0.0843,0.0508 -0.0224,-0.30218 0.15037,-0.85826 z m -9.68641,-1.69797 c 0,-0.0541 0.14358,-0.52991 0.31909,-1.05695 0.18464,-0.55443 0.27123,-0.99058 0.20551,-1.0352 -0.0625,-0.0431 -0.4612,-0.32371 -0.88605,-0.62511 l -0.77244,-0.54792 1.10185,-0.0353 1.10184,-0.0353 0.3213,-1.03056 c 0.17672,-0.56669 0.34352,-1.03045 0.37069,-1.03045 0.0272,0 0.20043,0.46376 0.38502,1.03067 l 0.33566,1.03056 1.08231,0.0353 1.08231,0.0353 -0.83209,0.60082 c -0.45764,0.33056 -0.85143,0.61462 -0.87507,0.63152 -0.0236,0.0166 0.10525,0.47591 0.28651,1.02007 0.18124,0.54427 0.30988,1.00913 0.28589,1.03309 -0.024,0.0243 -0.41883,-0.2358 -0.87741,-0.57751 -0.59327,-0.44189 -0.88127,-0.58845 -0.9984,-0.50793 -0.0906,0.063 -0.49581,0.34966 -0.90057,0.63848 -0.40478,0.28881 -0.73595,0.48087 -0.73595,0.42653 z M 15.646069,1027.9188 c -0.762735,-0.1929 -1.857352,-0.73 -2.445715,-1.1999 l -0.359596,-0.2872 0.523126,-0.6248 c 0.287716,-0.3437 0.565419,-0.6248 0.617118,-0.6248 0.05167,0 0.224665,0.1027 0.384359,0.227 0.521877,0.4081 1.504375,0.8445 2.182423,0.9694 1.656826,0.3049 2.897227,-0.5559 2.429179,-1.6858 -0.197902,-0.4778 -0.761936,-0.7672 -2.283577,-1.1717 -1.493457,-0.3971 -2.151933,-0.7057 -2.721706,-1.2753 -0.586071,-0.5862 -0.808925,-1.5172 -0.605544,-2.5299 0.168977,-0.8414 0.597273,-1.3894 1.472218,-1.8837 0.587016,-0.3316 0.798964,-0.3803 1.837013,-0.422 1.490031,-0.06 2.742287,0.2759 3.696844,0.991 0.231133,0.1733 0.224916,0.1965 -0.227784,0.8538 l -0.465399,0.6757 -0.441856,-0.2876 c -1.025052,-0.6674 -2.841442,-0.8567 -3.579636,-0.3729 -0.599,0.3925 -0.701013,1.1543 -0.226741,1.6935 0.300257,0.3414 0.696479,0.5116 2.027319,0.8711 2.101382,0.5677 3.033521,1.2143 3.333489,2.3125 0.414743,1.5184 -0.280853,2.9727 -1.717756,3.5914 -0.825208,0.3554 -2.406082,0.4385 -3.427778,0.1802 z m 10.5208,0.052 c -1.385217,-0.2715 -2.942267,-1.4876 -3.571112,-2.7891 -0.677172,-1.4014 -0.688047,-3.3989 -0.0261,-4.798 0.632681,-1.3374 1.935852,-2.4173 3.393012,-2.8117 1.091504,-0.2955 2.942312,-0.2156 3.78488,0.1633 0.652541,0.2935 1.892714,1.1787 1.892714,1.351 0,0.059 -0.23853,0.3694 -0.530074,0.6915 l -0.530066,0.5854 -0.399333,-0.3359 c -0.850594,-0.7158 -1.308286,-0.8717 -2.558367,-0.8714 -1.017616,2e-4 -1.229823,0.039 -1.765413,0.3236 -1.277551,0.6786 -1.934939,1.7691 -1.932839,3.2063 0.0015,1.1295 0.35096,1.9235 1.199074,2.7255 1.342863,1.2701 3.329966,1.3036 4.783358,0.081 0.202764,-0.1705 0.417825,-0.3101 0.477917,-0.3101 0.06011,0 0.353524,0.251 0.65207,0.5578 l 0.542796,0.5578 -0.487011,0.4272 c -1.35169,1.1858 -3.046419,1.6146 -4.925467,1.2463 z m 10.465214,-7e-4 c -1.477133,-0.2885 -2.968756,-1.4419 -3.647238,-2.82 -1.338115,-2.7181 -0.278137,-5.9163 2.39938,-7.2396 0.849301,-0.4197 1.019245,-0.459 2.174632,-0.5018 1.609304,-0.06 2.614487,0.2193 3.681017,1.021 1.484036,1.1156 2.173787,2.6848 2.05969,4.686 -0.05448,0.9555 -0.123533,1.2291 -0.50522,2.0013 -1.101155,2.228 -3.552127,3.3628 -6.162261,2.8531 z m 2.76495,-1.8391 c 0.658697,-0.3097 1.406739,-1.0328 1.763748,-1.7052 0.232137,-0.4372 0.277672,-0.7112 0.27898,-1.6792 0.0015,-0.994 -0.04102,-1.24 -0.30133,-1.7496 -0.399691,-0.7826 -1.313285,-1.5902 -2.091201,-1.8486 -0.811519,-0.2696 -2.035537,-0.1913 -2.754989,0.1759 -0.67871,0.3467 -1.39002,1.0869 -1.739945,1.8108 -0.387661,0.802 -0.403563,2.2833 -0.03318,3.0875 0.888269,1.9286 3.04215,2.7713 4.877884,1.9084 z m 5.87949,-3.3331 v -5.1842 l 2.891626,0.045 c 2.657557,0.041 2.947701,0.067 3.58436,0.3201 0.845412,0.3359 1.363007,0.895 1.615339,1.7448 0.529647,1.7834 -0.08644,3.578 -1.456017,4.2409 -0.343199,0.1663 -0.516757,0.3183 -0.463833,0.4067 0.0465,0.077 0.649186,0.9219 1.339257,1.8761 l 1.254684,1.735 H 52.9118 51.781662 l -1.256245,-1.7698 -1.256243,-1.7699 -1.113619,0.035 -1.113618,0.035 -0.03379,1.735 -0.03379,1.735 h -0.84892 -0.848929 z m 5.675524,-0.2 c 0.549119,-0.2979 0.815894,-0.9408 0.752736,-1.814 -0.09487,-1.3115 -0.600568,-1.5663 -3.1105,-1.5674 l -1.613223,-7e-4 v 1.8375 1.8375 l 1.795852,-0.043 c 1.393057,-0.034 1.880919,-0.09 2.175135,-0.2494 z m 4.795206,0.2096 v -5.1744 h 3.65258 3.652581 v 0.7891 0.7891 l -2.769874,0.033 -2.769873,0.033 -0.03439,1.3697 -0.03439,1.3697 h 2.499917 2.499918 v 0.7914 0.7914 h -2.495931 -2.495929 v 1.3393 1.3393 h 2.861188 2.861188 v 0.8522 0.8523 H 59.460776 55.74732 Z m 54.606067,-7.7731 c -0.59467,-0.1963 -1.26918,-0.5349 -1.54304,-0.7746 -0.18873,-0.1654 -0.17718,-0.2204 0.15638,-0.7463 0.19807,-0.3124 0.39934,-0.5647 0.44726,-0.5607 0.0479,0.011 0.41586,0.1676 0.81765,0.3636 1.42056,0.6933 3.08653,0.4 3.74066,-0.6584 0.18779,-0.3039 0.2741,-0.685 0.31498,-1.391 l 0.0563,-0.9723 -0.48732,0.4874 c -0.67781,0.6777 -1.40245,0.9331 -2.43711,0.8588 -1.34322,-0.096 -2.36139,-0.7889 -2.97392,-2.0226 -0.2397,-0.4827 -0.28193,-0.7531 -0.27901,-1.7863 0.003,-1.074 0.0412,-1.2899 0.32345,-1.8312 1.04082,-1.9958 3.45806,-2.6203 5.1482,-1.3302 l 0.55075,0.4203 v -0.4862 -0.4861 h 0.85821 0.85821 l -0.0363,4.17 c -0.0357,4.0874 -0.0421,4.1826 -0.32487,4.8082 -0.33501,0.7409 -1.02771,1.4132 -1.82728,1.7733 -0.70278,0.3164 -2.61862,0.41 -3.36309,0.1643 z m 2.71215,-5.1568 c 0.99982,-0.4744 1.43917,-2.1071 0.87861,-3.2651 -0.39856,-0.8233 -1.0498,-1.2162 -2.01175,-1.2136 -0.63265,0 -0.82134,0.055 -1.19662,0.3419 -1.18973,0.9075 -1.30367,2.9192 -0.22078,3.8986 0.62576,0.5659 1.65706,0.6622 2.55054,0.2382 z m -85.260456,2.1134 c -0.773564,-0.256 -1.180948,-0.5059 -1.73095,-1.0621 -0.852695,-0.8623 -1.066333,-1.4332 -1.067862,-2.8535 -0.0015,-1.0845 0.03402,-1.2845 0.322514,-1.831 0.395446,-0.7495 1.264555,-1.5719 2.028773,-1.9198 0.822714,-0.3746 2.645374,-0.3766 3.451856,-0.011 0.767506,0.3548 1.634827,1.1772 2.028772,1.9236 0.288075,0.5459 0.32384,0.748 0.323924,1.8311 7.6e-5,1.0266 -0.04406,1.3073 -0.281462,1.7892 -0.383278,0.7781 -1.165477,1.5345 -1.970871,1.9057 -0.802663,0.3698 -2.326458,0.4782 -3.104694,0.2206 z m 2.035575,-1.425 c 1.852216,-0.5144 2.350862,-3.3599 0.796301,-4.5441 -0.594336,-0.4528 -1.42096,-0.6264 -2.131798,-0.4477 -1.209156,0.3039 -1.887167,1.2026 -1.887167,2.5012 0,1.8197 1.49061,2.9716 3.222664,2.4906 z m 12.270364,1.3944 c -0.664145,-0.2873 -1.203593,-0.8869 -1.403488,-1.56 -0.128594,-0.433 -0.179296,-1.2172 -0.179296,-2.7732 v -2.1694 h -0.487011 -0.487011 v -0.6696 -0.6696 h 0.487011 0.487011 v -1.2176 -1.2175 h 0.852268 0.852269 v 1.2175 1.2176 h 1.034898 1.034897 v 0.6696 0.6696 h -1.034897 -1.034898 v 2.2618 2.2618 l 0.355891,0.3558 c 0.427846,0.428 0.96928,0.4693 1.470452,0.1123 l 0.342026,-0.2434 0.325148,0.5548 c 0.275877,0.4707 0.3007,0.5843 0.16378,0.7498 -0.478533,0.5784 -1.936149,0.8142 -2.77905,0.4497 z m 19.207717,0.011 c -0.384373,-0.093 -0.904866,-0.2753 -1.15665,-0.4048 -0.603323,-0.3104 -1.492703,-0.9624 -1.492703,-1.0944 0,-0.058 0.227328,-0.384 0.505167,-0.7256 l 0.505168,-0.621 0.459174,0.3636 c 1.880554,1.4895 4.642475,1.2982 4.642475,-0.3215 0,-0.6138 -0.495487,-1.068 -1.452151,-1.3311 -2.836815,-0.7797 -3.516393,-1.139 -4.029337,-2.1301 -0.242592,-0.4687 -0.275603,-0.6804 -0.232936,-1.4943 0.064,-1.2201 0.431218,-1.7982 1.48504,-2.3376 0.623968,-0.3194 0.869947,-0.3722 1.904289,-0.4083 1.500091,-0.053 2.746246,0.2805 3.685438,0.9849 0.21818,0.1637 0.208486,0.1981 -0.22449,0.8008 -0.248892,0.3465 -0.489985,0.63 -0.535772,0.63 -0.04581,0 -0.194857,-0.078 -0.331289,-0.1737 -0.440257,-0.3085 -1.72936,-0.6786 -2.363006,-0.6786 -1.102509,0 -1.826222,0.4963 -1.826222,1.2527 0,0.7664 0.500274,1.116 2.282353,1.595 2.690049,0.7229 3.499058,1.4787 3.482804,3.2538 -0.0091,0.9899 -0.347338,1.6765 -1.11349,2.2601 -0.972126,0.7406 -2.601893,0.9659 -4.193862,0.5801 z m 9.200127,0.022 c -1.080791,-0.3546 -1.918966,-1.0898 -2.376969,-2.0849 -0.23315,-0.5066 -0.280185,-0.8132 -0.280185,-1.8263 0,-1.0882 0.03637,-1.2916 0.34224,-1.9145 0.377479,-0.7687 1.030705,-1.3957 1.893612,-1.8176 0.463977,-0.227 0.77036,-0.2767 1.721111,-0.2792 1.030515,0 1.229671,0.034 1.82629,0.3384 1.421387,0.725 1.963102,1.6391 1.991638,3.3607 l 0.01727,1.0426 -3.074255,0.033 c -3.412796,0.035 -3.330034,0.012 -2.826123,0.8272 0.717824,1.1614 3.048938,1.3817 4.106696,0.388 l 0.279429,-0.2624 0.506696,0.5066 c 0.499956,0.5 0.503669,0.51 0.278974,0.7583 -0.125245,0.1385 -0.572663,0.4215 -0.994255,0.6291 -0.64067,0.3153 -0.941993,0.3848 -1.835148,0.4228 -0.693442,0.03 -1.247112,-0.013 -1.577032,-0.1214 z m 3.491357,-4.6768 c 0,-0.4696 -0.547202,-1.3028 -1.034898,-1.5756 -1.310127,-0.733 -3.469951,0.1837 -3.469951,1.4728 v 0.3204 h 2.252425 c 2.082283,0 2.252424,-0.017 2.252424,-0.2176 z m 4.139591,4.5905 c -0.942328,-0.4272 -1.358744,-0.9474 -1.515897,-1.8936 -0.115383,-0.6948 0.121182,-1.4741 0.589633,-1.9426 0.576865,-0.5769 1.410923,-0.7801 3.200787,-0.7801 h 1.49981 v -0.4852 c 0,-0.6518 -0.477605,-1.1896 -1.200452,-1.3513 -0.618366,-0.1384 -1.74731,0.099 -2.406235,0.5064 l -0.400155,0.2474 -0.368546,-0.5088 c -0.202695,-0.2797 -0.342118,-0.5515 -0.309823,-0.6037 0.142033,-0.2298 1.203061,-0.7443 1.907416,-0.925 1.720472,-0.4412 3.438325,0.048 4.095752,1.1661 l 0.325704,0.5539 0.03805,3.0742 0.03805,3.0744 H 82.84484 82.045854 v -0.4321 -0.4319 l -0.519794,0.3576 c -0.976661,0.6719 -2.377296,0.8272 -3.376293,0.3743 z m 2.947861,-1.4799 c 0.590949,-0.3321 0.826472,-0.7557 0.826472,-1.4868 v -0.5579 h -0.968026 c -1.335063,0 -2.136713,0.1886 -2.439969,0.5741 -0.425335,0.5407 -0.278699,1.2153 0.336799,1.5494 0.521672,0.283 1.668947,0.2407 2.244724,-0.083 z m 20.833374,1.5662 c -1.17833,-0.3865 -2.227958,-1.3921 -2.535958,-2.4292 -0.23391,-0.7877 -0.23309,-2.1792 0.001,-2.9701 0.24089,-0.8111 1.083508,-1.7474 1.957298,-2.175 1.79763,-0.8794 4.24009,-0.254 5.2189,1.3362 0.33308,0.5412 0.37059,0.71 0.41304,1.8567 l 0.0467,1.2616 h -3.12013 -3.12012 l 0.1889,0.4521 c 0.25292,0.6053 0.46795,0.8241 1.10315,1.1227 0.98413,0.4626 2.4756,0.2811 3.18778,-0.388 l 0.27944,-0.2625 0.51361,0.519 0.51362,0.519 -0.36525,0.3084 c -0.72759,0.6144 -1.59527,0.9238 -2.72486,0.9716 -0.67518,0.029 -1.23081,-0.015 -1.55789,-0.1225 z m 3.39187,-4.8852 c -0.0997,-0.9441 -1.01066,-1.6436 -2.1403,-1.6436 -0.64522,0 -1.47473,0.3279 -1.83442,0.7254 -0.2401,0.2653 -0.55864,1.114 -0.47122,1.2553 0.032,0.052 1.0542,0.08 2.27142,0.062 l 2.21313,-0.033 z m 19.03204,4.9464 c -1.16619,-0.3044 -2.09629,-1.0685 -2.63693,-2.1668 -0.34838,-0.7076 -0.39473,-0.9195 -0.39473,-1.8056 0,-0.8847 0.0466,-1.0985 0.39212,-1.8004 0.45028,-0.9147 1.00379,-1.4502 1.96434,-1.9007 0.58302,-0.2735 0.83308,-0.316 1.83184,-0.311 1.37847,0.011 2.04844,0.2695 2.92595,1.1471 0.86513,0.865 1.14078,1.5534 1.14731,2.865 0.004,0.9573 -0.0371,1.1825 -0.33186,1.7825 -0.39656,0.8077 -1.21704,1.6068 -2.01546,1.9633 -0.61487,0.2745 -2.2165,0.4004 -2.88258,0.2266 z m 1.79917,-1.4838 c 1.01164,-0.281 1.78718,-1.3609 1.78718,-2.4886 0,-1.5548 -1.37346,-2.7982 -2.83307,-2.5649 -2.03204,0.325 -2.86448,2.8341 -1.44338,4.3506 0.67946,0.7252 1.53697,0.9673 2.48927,0.7029 z m -112.289727,-3.7062 v -5.1744 h 0.883597 0.883598 l 2.921173,3.7697 c 1.606648,2.0735 2.962265,3.7719 3.012489,3.7743 0.05022,0 0.09132,-1.6939 0.09132,-3.7696 v -3.7744 h 0.852268 0.852269 v 5.1744 5.1746 h -0.959053 -0.959046 l -2.906602,-3.744 -2.906594,-3.7438 -0.03218,3.7438 -0.03218,3.744 H 14.714881 13.86437 Z m 20.697954,1.2176 v -3.957 h 0.852269 0.852269 v 0.6899 0.6898 l 0.464501,-0.503 c 0.480369,-0.5204 1.339989,-0.9911 1.818362,-0.9958 0.258252,0 0.273943,0.046 0.273943,0.8497 v 0.8521 h -0.369169 c -0.509679,0 -1.090562,0.2692 -1.482826,0.6869 -0.590827,0.6292 -0.704811,1.1999 -0.704811,3.5289 v 2.1155 h -0.852269 -0.852269 z m 11.566504,-1.5828 v -5.5398 h 0.791393 0.791392 l 0.0015,2.2829 0.0015,2.2829 0.311915,-0.3958 c 0.17155,-0.2177 0.56816,-0.5464 0.881354,-0.7305 0.493006,-0.2898 0.700198,-0.3348 1.543465,-0.3348 0.84797,0 1.04922,0.044 1.555078,0.3415 0.714491,0.4202 1.141302,1.0419 1.304033,1.9 0.0681,0.3591 0.12383,1.796 0.12383,3.1931 v 2.5403 h -0.852269 -0.852269 l -7.3e-4,-2.4046 c -3.66e-4,-1.3416 -0.05867,-2.6135 -0.131767,-2.8768 -0.372479,-1.3415 -1.996112,-1.6561 -3.153029,-0.6108 -0.627802,0.5672 -0.732312,1.1048 -0.732312,3.7674 v 2.1248 H 46.920483 46.12909 Z m 43.587461,0.3557 v -5.184 l 2.952498,0.041 c 2.79713,0.039 2.98619,0.056 3.59259,0.3294 0.80312,0.3617 1.30477,0.9258 1.54624,1.7389 0.51641,1.7388 -0.068,3.5028 -1.39493,4.2099 -0.30135,0.1605 -0.53071,0.3533 -0.50969,0.4283 0.021,0.075 0.58259,0.8872 1.24797,1.805 0.66536,0.9176 1.20976,1.7017 1.20976,1.742 0,0.041 -0.48719,0.073 -1.08265,0.073 h -1.08267 l -1.25096,-1.7698 -1.25094,-1.7696 -1.10591,0.035 -1.1059,0.035 -0.0338,1.7349 -0.0338,1.735 h -0.84892 -0.848932 z m 5.683298,-0.2426 c 0.55184,-0.4051 0.78978,-0.9807 0.73818,-1.7855 -0.0829,-1.2942 -0.59852,-1.5522 -3.10372,-1.5533 l -1.61323,-7e-4 v 1.8375 1.8373 l 1.81765,-0.042 c 1.60791,-0.036 1.85729,-0.071 2.16112,-0.2938 z m 22.68507,1.4697 v -3.957 h 0.79139 0.79139 v 3.957 3.957 h -0.79139 -0.79139 z m 12.78403,0 v -3.957 h 0.85228 0.85226 l 10e-4,0.7001 0.001,0.7001 0.31191,-0.3958 c 1.29007,-1.6368 4.08031,-1.428 4.9776,0.3726 0.30461,0.6112 0.30841,0.6554 0.30841,3.5779 v 2.9591 h -0.79139 -0.7914 l -0.001,-2.3438 c -10e-4,-2.5455 -0.0952,-3.1371 -0.58318,-3.6546 -0.9434,-1 -2.91441,-0.434 -3.29781,0.9471 -0.0764,0.275 -0.1351,1.4749 -0.13548,2.7684 l -1.3e-4,2.2829 h -0.85229 -0.85227 z m -12.29703,-5.2579 c -0.99296,-0.3768 -0.9545,-1.8032 0.0554,-2.0567 0.98408,-0.2471 1.74158,1.0616 1.00988,1.7446 -0.30007,0.28 -0.77949,0.4205 -1.06534,0.3121 z m 7.54868,-4.60864 c -1.34338,-0.21239 -2.9797,-0.6937 -4.03247,-1.18606 l -0.8383,-0.39208 0.78933,-1.7046 c 0.43416,-0.93745 0.80671,-1.75342 0.82792,-1.81317 0.0212,-0.0596 0.47155,0.0972 1.00072,0.34801 1.49596,0.70994 2.98166,1.03907 4.69064,1.03907 2.01585,0 2.85425,-0.26562 3.78887,-1.2002 0.56979,-0.56979 0.73074,-0.82933 0.94359,-1.52171 0.15679,-0.50992 0.25661,-1.1653 0.25661,-1.68483 v -0.85031 l -0.78923,0.7233 c -1.43396,1.31396 -2.82322,1.85657 -4.74566,1.85337 -1.91875,0 -3.46762,-0.53323 -4.86965,-1.6665 -3.42021,-2.76475 -3.65751,-8.96554 -0.46414,-12.12845 1.35307,-1.34025 2.94513,-2.01959 4.96367,-2.11788 2.06014,-0.10051 3.49848,0.38114 5.06418,1.69576 l 0.84083,0.70596 v -1.03575 -1.03575 h 2.37418 2.37417 v 7.47709 c 0,8.07515 -0.0211,8.39731 -0.66297,10.11627 -0.9066,2.42779 -2.98703,3.91227 -6.1513,4.38928 -1.42191,0.21438 -3.96938,0.20918 -5.36099,-0.011 z m 5.26376,-10.86696 c 1.37617,-0.67791 2.16315,-1.92096 2.16315,-3.41693 0,-1.62751 -0.75623,-2.88072 -2.15332,-3.56857 -0.75945,-0.37385 -0.91594,-0.40588 -1.98372,-0.40588 -0.99946,0 -1.25396,0.0442 -1.84686,0.3225 -1.80216,0.84478 -2.68826,2.82914 -2.12643,4.76181 0.51646,1.7765 2.04479,2.79833 4.09556,2.73836 0.89244,-0.0254 1.15206,-0.0873 1.85162,-0.43129 z m -68.595743,6.18953 c -3.426783,-0.62832 -5.859759,-2.67563 -6.87927,-5.78873 -0.419065,-1.27961 -0.529891,-3.56238 -0.240811,-4.96017 0.852922,-4.12443 4.166923,-6.91073 8.219332,-6.91073 4.239649,0 7.174093,2.4585 8.065803,6.75733 0.14242,0.68663 0.22789,1.60685 0.228895,2.46434 l 0.0015,1.36852 -5.959641,0.032 -5.959641,0.0309 0.293172,0.72132 c 0.361347,0.88907 1.210611,1.78124 2.057339,2.16128 0.518613,0.23282 0.828915,0.27832 1.898352,0.27843 1.190544,1.1e-4 1.336503,-0.0276 2.123763,-0.39793 0.46495,-0.21901 1.076849,-0.58778 1.359772,-0.81972 0.28293,-0.23171 0.549249,-0.42145 0.591824,-0.42145 0.119325,0 2.742799,2.33413 2.742799,2.44038 0,0.0519 -0.391701,0.45624 -0.870455,0.89957 -0.950889,0.88035 -2.327828,1.63645 -3.573517,1.96226 -0.856455,0.22421 -3.282795,0.33189 -4.099307,0.18213 z m 4.647192,-10.41072 c 0,-0.97732 -1.00449,-2.49494 -2.003448,-3.02684 -0.704901,-0.37529 -2.349856,-0.37529 -3.054759,0 -0.976784,0.5202 -1.856492,1.74989 -2.071432,2.89553 l -0.08087,0.43106 h 3.605249 3.605256 z m 41.091521,10.3471 c -3.48756,-0.6461 -6.03272,-3.06063 -6.82851,-6.47779 -0.28349,-1.21731 -0.25254,-3.37617 0.0659,-4.60442 0.67559,-2.60495 2.21397,-4.56578 4.44921,-5.67121 3.45642,-1.70924 8.04917,-0.7476 10.09036,2.1128 1.27619,1.78842 1.79541,3.47822 1.82295,5.93263 l 0.0185,1.64363 -5.92662,0.032 -5.9266,0.0309 0.0966,0.33718 c 0.0532,0.18533 0.21394,0.56692 0.35724,0.84778 1.22619,2.4036 4.82133,2.80219 7.28019,0.80723 0.27913,-0.22641 0.54174,-0.41173 0.5836,-0.41173 0.10592,0 2.74283,2.35633 2.74354,2.45153 10e-4,0.18511 -1.60508,1.54578 -2.32026,1.96525 -1.78159,1.04503 -4.23842,1.42418 -6.50624,1.00394 z m 4.88595,-10.52359 c -0.18505,-1.15723 -0.99541,-2.33777 -1.95558,-2.84891 -0.39519,-0.21029 -0.70451,-0.26396 -1.53022,-0.26507 -0.9197,0 -1.10703,0.0387 -1.68305,0.35762 -0.35648,0.19748 -0.8162,0.57122 -1.02159,0.83054 -0.41598,0.52517 -0.9406,1.70659 -0.94504,2.12816 l -0.003,0.2739 h 3.60726 3.60727 z m -66.371043,10.41801 c -1.872944,-0.48806 -2.82795,-1.67511 -3.098271,-3.85087 -0.07046,-0.56746 -0.128175,-2.85488 -0.128175,-5.0832 v -4.05144 h -0.974022 -0.974021 v -2.06984 -2.06984 h 0.974021 0.974022 v -2.19154 -2.19155 h 2.432246 2.432244 l 0.03325,2.16117 0.03326,2.16107 1.978482,0.0331 1.97848,0.0331 v 2.06674 2.06675 h -2.008921 -2.008919 l 7.3e-4,3.74396 c 3.66e-4,2.25207 0.0519,3.92828 0.129226,4.20671 0.262201,0.9443 1.459502,1.19844 3.066105,0.65096 l 0.82183,-0.28008 v 1.92372 1.92383 l -0.385088,0.19913 c -0.989545,0.51169 -1.746595,0.68398 -3.206616,0.72993 -0.951832,0.0298 -1.673201,-0.011 -2.069794,-0.11255 z M 13.864333,982.14887 v -11.14031 h 2.435053 2.435054 v 11.14031 11.14042 h -2.435054 -2.435053 z m 9.212621,11.05924 c -0.132436,-0.13242 -0.09225,-8.06421 0.04779,-9.42864 0.163133,-1.58974 0.611153,-2.95041 1.334576,-4.05364 0.920724,-1.40397 1.820811,-2.19719 3.389131,-2.98697 1.662342,-0.83728 3.471435,-1.05674 5.156385,-0.62589 3.128223,0.80006 5.334092,2.99691 6.208093,6.18257 0.245477,0.89471 0.260985,1.23543 0.270398,5.94102 l 0.0099,4.99187 -2.398611,0.0331 -2.398612,0.0331 -0.03995,-5.26831 c -0.04474,-5.89553 -0.05487,-5.97151 -0.915337,-6.8575 -1.330423,-1.36995 -3.538681,-1.39789 -4.874681,-0.0619 -0.943774,0.94375 -1.000168,1.35295 -1.000168,7.25764 v 4.92505 H 25.51198 c -1.294641,0 -2.390415,-0.0364 -2.435053,-0.0806 z m 52.75949,-8.44149 v -8.52278 h 2.435053 2.435054 v 1.60741 1.6073 l 0.33482,-0.6546 c 0.421873,-0.8248 1.363979,-1.86629 2.053861,-2.27063 0.658096,-0.38567 1.630193,-0.65129 2.390111,-0.65328 h 0.578326 v 2.54089 2.54077 l -0.882708,0.0574 c -1.972719,0.12778 -3.403854,1.23687 -4.130931,3.20134 -0.255908,0.69138 -0.272778,0.95358 -0.315469,4.90053 l -0.04513,4.17005 h -2.426516 -2.426507 z m 13.271038,0 v -8.52278 h 2.435058 2.43506 l 7.6e-4,1.61327 7.6e-4,1.61326 0.37972,-0.66963 c 1.10063,-1.94095 2.61701,-2.92214 4.516142,-2.92214 h 0.58566 l -0.0329,2.52642 -0.0329,2.52631 -0.922522,0.0751 c -2.10822,0.17152 -3.48721,1.32633 -4.19917,3.51666 -0.18638,0.57332 -0.22473,1.25134 -0.2669,4.71786 l -0.0493,4.04834 h -2.42509 -2.425084 z"
       id="path835"
       inkscape:connector-curvature="0" />
  </g>
</svg>
