<?xml version="1.0" encoding="UTF-8"?>
<svg version="1.1" viewBox="0 0 250 91" xmlns="http://www.w3.org/2000/svg" xmlns:cc="http://creativecommons.org/ns#" xmlns:dc="http://purl.org/dc/elements/1.1/" xmlns:rdf="http://www.w3.org/1999/02/22-rdf-syntax-ns#">
<metadata>
<rdf:RDF>
<cc:Work rdf:about="">
<dc:format>image/svg+xml</dc:format>
<dc:type rdf:resource="http://purl.org/dc/dcmitype/StillImage"/>
<dc:title/>
</cc:Work>
</rdf:RDF>
</metadata>
<g transform="translate(0,-961.4)" fill="#fff">
<g transform="matrix(.31136 0 0 .31136 198.89 978.07)" stroke-width=".26458">
<path d="m-412.23 204.69-1.5214-0.26066v-1.256c0-0.69078-0.0707-1.8381-0.15711-2.5497l-0.15712-1.2937 0.54524 0.85189c0.89952 1.4054 2.575 2.4554 3.9182 2.4554 2.5184 0 4.0994-1.4121 4.1338-3.6922 0.0251-1.6604-0.5152-2.455-2.496-3.6712-5.9377-3.6459-6.3243-4.065-6.5278-7.075-0.20358-3.0113 1.5504-5.5547 4.5277-6.5655 1.4885-0.50537 3.6312-0.55369 4.8594-0.10959 0.87776 0.3174 0.87868 0.31962 0.87868 2.1149v1.7972l-1.211-0.92437c-0.66604-0.5084-1.5103-0.99947-1.876-1.0913-1.6819-0.42214-4.3983 1.4152-4.6525 3.1468-0.31173 2.124 0.85178 3.7371 3.941 5.464 3.3716 1.8847 4.1139 2.4611 4.6285 3.5938 0.54825 1.2068 0.63559 3.3327 0.19137 4.6578-0.43628 1.3014-1.8033 3.0315-2.8735 3.6366-0.82903 0.46873-3.6211 1.1528-4.3481 1.0653-0.15518-0.0187-0.96675-0.15125-1.8035-0.29461zm348.88 0.0168c-2.6055-0.39306-4.3377-1.2421-6.0745-2.9775-1.9974-1.9958-2.7009-3.3405-3.1834-6.0852-0.59267-3.3714-0.0802-6.2002 1.6615-9.172 1.4318-2.443 3.3996-3.8133 6.8196-4.7489 2.4523-0.67086 5.5377-0.77056 8.1856-0.2645l1.812 0.34631-0.1584 0.79194c-0.0871 0.43556-0.15838 1.3351-0.15838 1.999v1.207l-0.7276-0.68075c-1.0548-0.98685-2.1607-1.4772-3.9996-1.7733-1.8786-0.30255-4.3478 8e-3 -5.9868 0.75223-1.3993 0.63562-3.3818 2.7618-3.9617 4.2487-1.779 4.5615-0.298 10.729 3.0898 12.868 3.0639 1.9342 7.6039 1.6517 11.091-0.69005 0.62939-0.4227 1.1873-0.72554 1.2399-0.67298 0.0526 0.0526 0.0138 0.86005-0.0864 1.7944l-0.18193 1.6989-2.0242 0.5602c-1.7921 0.49598-3.1264 0.73141-5.3425 0.94269-0.35774 0.0341-1.264-0.0306-2.0139-0.14368zm-405.17-0.0112c0-0.0768 0.19748-0.66067 0.43885-1.2974 0.62751-1.6554 0.82065-16.019 0.25749-19.149-0.20946-1.1642-0.46677-2.3308-0.5718-2.5925-0.17958-0.44743-4e-3 -0.46578 2.9511-0.30789 5.101 0.27257 7.651 1.1046 9.9442 3.2449 2.7296 2.5475 3.8 5.2884 3.5791 9.1647-0.18543 3.2541-0.93487 5.1216-2.8355 7.0658-2.4369 2.4927-5.3712 3.5602-10.552 3.8388-1.7665 0.095-3.2118 0.10984-3.2118 0.033zm7.2735-2.4258c3.1724-1.1515 4.8821-2.7828 5.9798-5.7053 0.43879-1.1683 0.52631-1.8729 0.42883-3.4522-0.0674-1.0914-0.18733-2.2384-0.26659-2.5488-0.49381-1.934-2.9768-5.0468-4.7453-5.949-1.0797-0.55081-4.6561-1.3511-5.0235-1.1241-0.11399 0.0704-0.20725 4.4668-0.20725 9.7698v9.6417h1.0463c0.57546 0 1.8299-0.28444 2.7876-0.63208zm26.012 1.0951c0.65083-2.0145 0.65068-18.979-1.7e-4 -20.902l-0.42532-1.2568h2.2231c1.2227 0 2.2218 0.0893 2.2202 0.19843-2e-3 0.10915-0.18017 0.78291-0.39687 1.4973-0.56992 1.8787-0.56762 17.875 3e-3 20 0.21483 0.80036 0.39201 1.5445 0.39374 1.6536 2e-3 0.10914-1.0025 0.19843-2.2316 0.19843h-2.2347l0.44876-1.3891zm53.689 0.13229c0.35717-1.043 0.44809-2.8703 0.53462-10.744l0.10426-9.4875-1.9165 0.19246c-1.0541 0.10586-2.7176 0.46493-3.6966 0.79794l-1.7802 0.60547 1.1882-3.5229 8.1115-0.07c4.4613-0.0385 8.1115-0.0339 8.1115 0.0102s-0.23813 0.54724-0.52917 1.1181-0.52917 1.1843-0.52917 1.3632c0 0.5863-0.41289 0.60183-2.0936 0.0787-0.91175-0.28377-2.2424-0.51595-2.9571-0.51595h-1.2993l3e-3 9.062c2e-3 7.149 0.0856 9.3692 0.39373 10.517 0.21483 0.80036 0.39201 1.5445 0.39374 1.6536 2e-3 0.10914-1.0032 0.19843-2.2332 0.19843h-2.2363l0.43037-1.2568zm25.209 1.1578c0-0.0545 0.19748-0.62001 0.43885-1.2568 0.36372-0.95952 0.45593-2.5168 0.53859-9.0952 0.0966-7.691-0.11509-10.806-0.86116-12.668-0.19072-0.47608-0.0647-0.4893 2.9511-0.30934 4.9504 0.29542 7.3361 1.2018 8.7377 3.3197 0.94031 1.4209 1.2468 3.1941 0.86915 5.0276-0.35972 1.7462-1.6666 3.1535-3.8618 4.1585-0.77224 0.35354-1.4041 0.71021-1.4041 0.79259 0 0.31938 4.4282 5.646 7.2483 8.7189l1.2952 1.4112h-1.3962c-0.94725 0-1.6793-0.17498-2.2767-0.54418-0.88174-0.54494-3.8995-3.9306-6.8246-7.6567-0.8573-1.092-1.6764-2.1046-1.8203-2.2501-0.17246-0.17442-0.20101 0.99761-0.0838 3.4396 0.16443 3.4253 0.35151 4.8787 0.82589 6.4161 0.18066 0.58551 0.14616 0.59531-2.0961 0.59531-1.2539 0-2.2798-0.0446-2.2798-0.099zm7.5182-12.023c0.71721-0.39047 1.5304-1.0179 1.8071-1.3943 0.59255-0.8061 0.8651-2.4754 0.61866-3.789-0.36299-1.9349-2.7106-3.8081-5.0791-4.0525l-1.4253-0.1471v10.461l1.3873-0.18403c0.76301-0.10122 1.9741-0.50351 2.6913-0.89399zm22.909 11.965c0-0.0867 0.20836-0.83089 0.46302-1.6536 0.4015-1.2972 0.46209-2.6385 0.45603-10.095-7e-3 -8.2203-0.0884-9.3295-0.82972-11.261-0.11994-0.31256 0.25983-0.38032 2.1313-0.38032 1.2525 0 2.2773 0.071 2.2773 0.15771 0 0.0867-0.20836 0.83089-0.46302 1.6536-0.39958 1.291-0.46294 2.6379-0.4624 9.8303 5.3e-4 7.1166 0.0682 8.5791 0.46302 10.009 0.25432 0.92126 0.4624 1.7249 0.4624 1.7859 0 0.061-1.012 0.11092-2.249 0.11092s-2.249-0.071-2.249-0.15771zm27.726-0.47059c-2.9224-1.0422-5.2007-3.3078-6.3392-6.3041-0.65372-1.7204-0.89814-5.161-0.51311-7.2228 0.63117-3.3798 3.0821-6.6791 5.9702-8.0366 2.8326-1.3315 7.4338-1.8026 10.793-1.1052l1.5214 0.31583-4e-3 1.5026c-5e-3 1.9757-0.23499 2.3347-1.0748 1.6802-1.866-1.4544-4.4387-2.0402-7.0979-1.6162-2.2755 0.36283-3.8034 1.1485-5.1506 2.6485-1.4494 1.6138-2.1007 3.506-2.1963 6.381-0.14443 4.342 1.8414 8.1086 4.9987 9.481 2.7744 1.206 6.9511 0.67411 9.8089-1.2491 0.71411-0.48056 1.3385-0.87374 1.3874-0.87374 0.0839 0-0.0135 0.93163-0.29341 2.8048-0.11509 0.77025-0.24777 0.8572-2.1685 1.4212-1.4003 0.41115-2.9643 0.63306-4.9564 0.70326-2.5578 0.0901-3.1255 0.0259-4.6855-0.53045zm32.781-0.62847c0.34346-1.0249 0.44347-3.0076 0.54195-10.745l0.12077-9.4883-1.9437 0.18589c-1.069 0.10223-2.7342 0.45616-3.7004 0.7865l-1.7568 0.60062 0.50001-1.7484c0.275-0.96164 0.50001-1.7786 0.50001-1.8154 0-0.0368 3.6938-0.067 8.2085-0.067h8.2085l-0.66791 1.2547c-0.36735 0.69007-0.66791 1.4044-0.66791 1.5875 0 0.44062-0.15306 0.42498-1.9208-0.19633-0.82807-0.29104-2.1761-0.52917-2.9956-0.52917h-1.49l0.12375 9.062c0.0999 7.3147 0.20734 9.3578 0.55732 10.596 0.23847 0.84385 0.43358 1.588 0.43358 1.6536 0 0.0657-1.0063 0.11938-2.2363 0.11938h-2.2363zm53.738 0.62762c-2.9381-1.0463-4.7117-2.8121-6.1962-6.1689-0.8064-1.8234-1.1041-5.1116-0.6545-7.2301 0.35639-1.6795 1.6852-4.6065 2.5048-5.5174 3.0583-3.399 8.7861-4.8809 14.389-3.7228l1.3891 0.28708v3.8954l-1.342-0.90308c-2.2291-1.5-4.7398-1.8841-7.9184-1.2111-2.1359 0.4522-4.2235 2.189-5.3282 4.433-0.75274 1.529-0.85759 2.0165-0.91609 4.259-0.0562 2.1542 0.0348 2.8128 0.60957 4.4113 1.4146 3.9343 3.9725 5.821 7.8837 5.8152 2.4875-4e-3 4.3239-0.54515 6.2542-1.8441 0.73679-0.49582 1.3774-0.90149 1.4236-0.90149 0.0462 0 0.0402 0.50602-0.0132 1.1245-0.0535 0.61846-0.10324 1.428-0.11054 1.7991-0.0119 0.60937-0.21159 0.73397-2.0638 1.2886-1.4678 0.43955-2.9152 0.64301-5.0932 0.71596-2.693 0.0902-3.2467 0.0293-4.8178-0.53023zm35.109 0.15323c-2.9004-1.0029-5.0752-2.8571-6.4541-5.5026-0.80814-1.5504-1.4174-4.9421-1.2313-6.8537 0.44339-4.553 2.3444-7.3689 6.3436-9.3967 2.2197-1.1255 2.2809-1.1394 5.1032-1.1629 3.3561-0.0279 4.4786 0.2607 6.591 1.6944 3.19 2.1651 4.7421 5.231 4.8347 9.5501 0.0849 3.9608-1.1559 7.0163-3.856 9.495-2.0697 1.9001-4.1897 2.6546-7.4279 2.6438-1.7386-6e-3 -3.0084-0.15784-3.9033-0.46728zm6.9138-2.2043c2.0994-0.78551 4.08-2.7681 4.8553-4.8604 0.49181-1.3273 0.56743-1.9561 0.46125-3.8365-0.0699-1.2369-0.32591-2.8804-0.56898-3.6521-0.62209-1.9749-2.7889-4.4583-4.7778-5.476-1.3684-0.70018-1.8034-0.79039-3.6894-0.76524-1.6361 0.0218-2.4044 0.1643-3.2716 0.60677-1.7816 0.90888-3.0865 2.261-3.9164 4.058-0.69172 1.4978-0.76464 1.9234-0.75985 4.4349 5e-3 2.5708 0.0675 2.9064 0.83923 4.4979 1.3047 2.6906 3.2984 4.5014 5.6527 5.1343 2.0338 0.54667 3.4389 0.50824 5.1757-0.14158zm29.888 2.1473c-1.6394-0.64013-2.9077-1.8597-3.7059-3.5634-0.59658-1.2734-0.62732-1.6408-0.75308-9.0005-0.10324-6.0416-0.22143-7.9542-0.55591-8.9958-0.23366-0.72761-0.42612-1.3527-0.4277-1.3891-3e-3 -0.0364 1.0092-0.0661 2.2461-0.0661 1.2369 0 2.2477 0.0893 2.2461 0.19843-3e-3 0.10915-0.18984 0.79375-0.41836 1.5214-0.54131 1.7235-0.82632 10.868-0.41939 13.456 0.34933 2.2217 1.2502 4.0085 2.5525 5.0628 0.91279 0.73894 1.136 0.79547 3.1411 0.79547 2.628 0 4.2486-0.68352 5.334-2.2497 1.0463-1.5098 1.177-2.4752 1.1823-8.7305 4e-3 -5.1909-0.1441-7.2914-0.65916-9.3266l-0.18412-0.7276h2.1453c1.1799 0 2.1441 0.0893 2.1425 0.19843-3e-3 0.10915-0.18018 0.78291-0.39687 1.4973-0.56991 1.8787-0.56764 17.875 3e-3 20 0.21481 0.80036 0.39201 1.5445 0.39373 1.6536 3e-3 0.10914-0.71123 0.19843-1.5844 0.19843h-1.5875v-1.5875c0-0.87312-0.0609-1.5875-0.13528-1.5875-0.0744 0-0.85156 0.48892-1.727 1.0865-3.0967 2.1138-6.0639 2.6364-8.8319 1.5556zm30.993-0.72385c0.35626-1.0409 0.44812-2.8649 0.53488-10.621l0.10477-9.364-1.1318-1.1532-1.1318-1.1532 5.005 6e-3 0.42206 1.0057c0.40574 0.96683 2.4719 3.8963 9.3496 13.256 2.6596 3.6194 3.209 4.2381 3.2893 3.7042 0.053-0.35257 0.0365-3.9152-0.0365-7.9171-0.10332-5.659-0.22698-7.57-0.55649-8.599-0.233-0.7276-0.42492-1.3527-0.42651-1.3891-3e-3 -0.0364 0.94964-0.0661 2.1138-0.0661 1.1642 0 2.1154 0.0893 2.1138 0.19844-3e-3 0.10914-0.19577 0.79375-0.43154 1.5214-0.84087 2.595-0.8001 19.153 0.0526 21.375 0.15398 0.40133-0.0404 0.45293-1.7066 0.45293-1.5219 0-1.8804-0.0782-1.8804-0.41002 0-0.2255-0.19621-0.79105-0.43606-1.2568-0.34657-0.67299-9.631-13.517-11.801-16.325-0.50755-0.65687-0.51025-0.60709-0.40069 7.4083 0.0876 6.4105 0.19601 8.328 0.52713 9.3264l0.41683 1.2568h-4.4208l0.43011-1.2568zm71.17 0c0.34605-1.0171 0.44842-2.8088 0.53671-9.3939 0.10004-7.4621-0.037-10.168-0.62326-12.302-0.16033-0.58378-0.11956-0.59531 2.1046-0.59531h2.2681l-0.44927 1.1245c-0.39251 0.98241-0.44952 2.2944-0.4513 10.385-3e-3 8.8351 0.0638 9.7958 0.79135 11.576 0.17206 0.42083-0.0291 0.46302-2.2076 0.46302h-2.3969zm21.191-0.13229c0.65083-2.0145 0.65069-18.979-1.8e-4 -20.902l-0.42532-1.2568h2.2231c1.2227 0 2.2218 0.0893 2.2202 0.19843-3e-3 0.10915-0.18018 0.78291-0.39687 1.4973-0.31666 1.0438-0.39402 3.1136-0.39402 10.543v9.2441l2.4401-0.16371c2.525-0.16941 3.8452-0.42918 5.5881-1.0996 0.55925-0.21512 0.97478-0.29835 0.92342-0.18497-0.0514 0.11338-0.37608 0.95028-0.72154 1.8598l-0.62812 1.6536h-11.278zm-431.91-115.03c-2.9215-0.28342-7.0657-1.0992-10.346-2.0365l-2.4341-0.69562-0.0794-0.94669c-0.0437-0.52069 0.01-3.447 0.11934-6.503 0.10931-3.0559 0.2879-8.0503 0.39687-11.099l0.19814-5.5422 1.4009 2.287c1.5535 2.5361 4.4824 5.8248 6.5438 7.3476 4.9417 3.6506 11.032 4.873 17.72 3.5564 2.3408-0.46079 5.4946-2.4908 7.334-4.7208 4.1111-4.984 3.7737-13.632-0.72719-18.638-1.9179-2.1332-5.1465-4.4898-10.576-7.7193-10.564-6.2838-14.114-8.6699-17.507-11.767-3.9468-3.6021-6.8053-8.4601-7.7964-13.25-0.70607-3.4121-0.78399-9.8242-0.15746-12.958 0.45213-2.2615 1.8784-6.4442 2.8406-8.3302 1.7737-3.4768 4.7502-7.1675 7.7293-9.5839 6.0936-4.9427 12.051-7.1928 19.919-7.5236 5.3009-0.22289 9.814 0.46963 17.171 2.6349l2.8839 0.84872-0.17118 5.424c-0.0942 2.9832-0.24895 7.1072-0.344 9.1644l-0.17282 3.7405-1.7461-1.7123c-3.1441-3.0831-6.2536-4.8644-10.237-5.8644-2.9519-0.74099-5.6825-0.92896-8.287-0.57047-8.1979 1.1284-13.281 6.689-13.308 14.557-0.0137 4.0948 1.2366 7.0955 4.4622 10.709 2.2025 2.4672 6.8905 5.7332 15.569 10.847 8.2161 4.8407 10.615 6.5281 14.178 9.9737 3.3504 3.24 5.6988 7.9692 6.4417 12.972 1.2333 8.3061-0.29538 16.515-4.1116 22.079-1.2715 1.854-4.2046 4.9202-6.054 6.3288-3.2338 2.4631-8.322 4.7327-12.967 5.784-5.1151 1.1576-12.942 1.6853-17.885 1.2057zm79.274-0.98628c3e-3 -0.10981 0.4233-1.5093 0.93473-3.1101 1.3308-4.1654 2.4316-9.4219 2.9644-14.155 0.41512-3.688 0.46032-7.3783 0.44884-36.645-0.0115-29.353-0.0571-32.829-0.46521-35.454-0.24885-1.6007-0.51343-3.3271-0.58794-3.8365-0.37345-2.5526-1.3384-6.5551-2.2858-9.4816-0.58116-1.7951-1.0068-3.3137-0.94591-3.3746 0.0609-0.0609 13.1-0.0804 28.976-0.0434l28.865 0.0673-3.9773 8.2021c-2.1875 4.5111-4.0677 8.2983-4.1783 8.4158-0.11057 0.11756-0.80314-0.14128-1.5391-0.57519-6.0068-3.5417-14.938-5.5819-24.468-5.5891l-3.3734-2e-3v36.777h33.329l-1.6652 2.5797c-0.91589 1.4188-3.0745 4.8419-4.797 7.6068-1.7225 2.7649-3.1675 5.0703-3.2111 5.1231-0.0437 0.0528-1.0681-0.32856-2.2764-0.84747-4.1772-1.7938-9.7721-3.0318-18.072-3.999-1.6007-0.18652-2.9997-0.28828-3.1089-0.22612-0.10914 0.0622-0.19844 8.7822-0.19844 19.378v19.265l2.0505 0.17119c2.4672 0.20597 11.234-0.22119 15.296-0.74531 6.4826-0.83639 14.755-2.7961 20.775-4.9213 2.0983-0.74084 4.0272-1.4143 4.2865-1.4965 0.38693-0.12275 0.2976 0.22383-0.4985 1.934-0.53345 1.146-1.6151 3.5123-2.4037 5.2586-0.78859 1.7462-2.1275 4.6633-2.9754 6.4823l-1.5416 3.3073-27.681 0.0674c-15.224 0.0371-27.679-0.0225-27.676-0.13229zm97.097-0.0198c0-0.12073 0.30157-1.1036 0.67016-2.1841 0.96849-2.8391 1.9435-6.5994 2.4989-9.6375 1.1768-6.437 1.1966-7.1255 1.1966-41.54 0-30.074-0.0393-33.084-0.47209-36.116-0.73032-5.1164-1.6976-9.5684-2.8453-13.096-0.57653-1.7721-1.0482-3.3009-1.0482-3.3973 0-0.0964 5.6682-0.17526 12.596-0.17526 11.89 0 12.586 0.0259 12.411 0.46302-1.0832 2.7133-2.4338 7.4698-2.9453 10.373-1.4264 8.0963-1.4185 7.8277-1.4216 48.131l-3e-3 37.403 2.0505-0.18302c13.031-1.1632 26.985-4.3126 36.01-8.128 1.3609-0.57529 2.5074-1.0085 2.5478-0.96264 0.0404 0.0458-0.6355 1.6312-1.5021 3.5229-2.0626 4.5027-4.0079 9.0931-5.3818 12.7l-1.1086 2.9104-26.627 0.0674c-14.645 0.0371-26.627-0.0314-26.627-0.15209zm90.487-0.0732c0-0.15959 0.4975-1.8562 1.1055-3.7703s1.1202-3.7183 1.1382-4.0093c0.018-0.29104 0.17454-1.184 0.3479-1.9844 1.5922-7.3514 1.6742-9.7396 1.5441-44.979-0.11034-29.882-0.18071-34.412-0.55801-35.92-0.0823-0.32894-0.21312-1.1624-0.29067-1.8521-0.0776-0.68971-0.26623-1.7303-0.41923-2.3124-0.15301-0.58208-0.32827-1.4618-0.3895-1.9549-0.0612-0.49313-0.16917-0.9903-0.23995-1.1048-0.0708-0.11451-0.35578-1.0803-0.63338-2.1461-0.2776-1.0658-0.80267-2.8729-1.1668-4.0156l-0.66215-2.0778 12.855 0.0904c7.5928 0.0534 14.218 0.22556 16.185 0.42062 3.6213 0.35905 8.9376 1.378 11.665 2.2358 3.5213 1.1074 8.0581 4.0904 11.267 7.4082 4.9382 5.1055 7.0307 10.353 6.9974 17.547-0.0204 4.4073-1.5779 9.4791-3.9854 12.978-2.1216 3.0836-6.5457 6.9411-9.9379 8.665l-1.244 0.63225 1.4953 0.85553c0.82243 0.47055 1.6436 0.99952 1.8248 1.1755 0.18124 0.17598 0.98436 0.71968 1.7847 1.2082 3.1512 1.9235 6.9519 5.4672 9.5564 8.9102 5.0566 6.6845 6.4367 16.157 3.5324 24.246-3.2353 9.0111-11.484 15.418-23.543 18.286-6.4968 1.545-9.4736 1.7586-24.507 1.7586-9.7787 0-13.723-0.0834-13.723-0.29017zm30.03-9.8634c4.7811-1.2407 7.6665-2.8854 10.308-5.8758 2.8408-3.2157 3.9773-5.6889 4.776-10.393 0.43196-2.5442 0.357-6.017-0.1592-7.3746-0.13872-0.36489-0.30628-1.0855-0.37232-1.6014-0.14375-1.1228-1.9289-4.9057-3.2706-6.9306-2.22-3.3506-6.3746-6.8706-10.602-8.9829-2.0982-1.0484-8.9626-3.192-10.222-3.192-0.0637 0-0.11586 10.12-0.11586 22.49v22.49l3.638-5e-3c2.9438-4e-3 4.0924-0.12321 6.0193-0.62322zm-4.1479-48.46c2.313-0.73241 3.4793-1.2956 5.6481-2.7273 4.4032-2.9068 7.0896-6.2838 8.5582-10.758 0.67897-2.0686 1.2972-6.5238 1.0603-7.641-0.0654-0.30857-0.18719-1.1336-0.27056-1.8334-0.56852-4.7709-4.5944-9.9109-9.8596-12.588-1.6558-0.84196-5.6807-1.8221-8.3307-2.0287l-2.3151-0.1805v39.025l1.2972-0.17209c0.71348-0.0947 2.609-0.58744 4.2122-1.0951zm92.651 58.515c0-0.0545 0.18418-0.62001 0.40926-1.2568 0.94168-2.6639 2.2498-7.7691 2.7438-10.708 0.90845-5.4051 1.1239-9.3443 1.2648-23.125l0.13663-13.361-1.8142-3.0041c-3.3541-5.554-5.7994-9.6603-9.4765-15.914-4.0569-6.8992-4.5852-7.7882-11.477-19.315-4.9915-8.3487-8.5894-13.596-11.862-17.3l-1.897-2.1469 13.117-0.0686c7.2145-0.0377 13.159-0.0265 13.211 0.0251 0.0515 0.0516-0.0295 0.97994-0.18018 2.0631-0.51011 3.6675 0.45773 6.8483 4.1354 13.591 2.066 3.7877 9.0062 16.148 11.736 20.902 0.83566 1.4552 1.8526 3.2348 2.2599 3.9546 0.70173 1.2402 0.76017 1.2818 1.1168 0.79375 0.41558-0.56871 7.0328-12.394 13.021-23.269 1.7504-3.1788 3.2276-6.2624 3.9294-8.2021 0.75536-2.0878 1.2018-6.2885 0.89284-8.4005l-0.22255-1.5214h24.298l-0.91181 1.2568c-6.0387 8.3231-9.1644 13.416-20.502 33.404-1.527 2.6921-3.1045 5.4306-3.5055 6.0854-0.40103 0.65484-1.0277 1.7264-1.3925 2.3812-0.36487 0.65484-2.414 4.21-4.5536 7.9003l-3.8902 6.7096 0.12401 15.251c0.1116 13.723 0.17857 15.595 0.66847 18.69 0.78851 4.9814 1.5167 8.1284 2.6867 11.611l1.0325 3.0733h-12.55c-6.9023 1e-5 -12.55-0.0446-12.55-0.099z"/>
<path d="m-188.19 167.01c-4.9759-0.57683-8.3999-1.4224-10.639-2.6274-2.4047-1.2939-6.5536-4.4553-5.9987-4.5708 0.32726-0.0682 0.15687-0.2833-0.62868-0.79375-4.1768-2.714-7.1258-5.363-9.4561-8.494-0.87312-1.1731-2.3258-3.1141-3.2283-4.3133-2.0526-2.7277-3.3327-4.4438-5.5834-7.4846-3.4328-4.6381-11.263-13.281-15.164-16.739-4.249-3.7661-11.824-6.3639-20.078-6.8854l-2.7781-0.17555 7.9375-2.4844c4.3656-1.3664 10.855-3.4116 14.42-4.5449s7.1888-2.1882 8.0522-2.3442c2.3686-0.42811 9.9232-0.35295 12.718 0.12653 3.2254 0.55344 6.3027 1.5232 8.134 2.5632 2.4016 1.364 8.5531 6.1785 11.411 8.931 2.1723 2.0921 4.7736 5.2059 6.781 8.1167 1.7447 2.5301 8.4089 11.037 11.261 14.375 5.7002 6.6706 10.042 10.932 12.948 12.708 3.9325 2.4031 10.455 4.3223 16.404 4.8266l3.4396 0.2916-3.175 0.9996c-1.7462 0.54978-3.4131 1.1233-3.7042 1.2745-0.29104 0.1512-3.1485 1.0429-6.35 1.9815-3.2014 0.93861-7.964 2.4281-10.583 3.3099-4.4448 1.4964-5.0008 1.6206-8.3344 1.8618-3.4586 0.2503-6.1637 0.28213-7.8052 0.0918zm-282.12-20.216c-2.7032-0.53565-5.3578-2.942-5.8675-5.3188-0.43341-2.0209 0.25551-4.7322 1.4785-5.8188 0.26956-0.23949 1.2563-0.83452 2.1928-1.3223l1.7027-0.88686 108.1-0.0772c80.573-0.0575 108.37-1e-4 109.15 0.22558 1.6126 0.4662 3.7475 1.9609 4.5648 3.1959 0.65582 0.99101 0.73789 1.3547 0.73789 3.2703 0 1.911-0.0829 2.2806-0.73136 3.2605-0.40225 0.60783-0.65169 1.1052-0.55431 1.1052 0.53392 0-0.95199 1.1027-2.3663 1.7561l-1.6397 0.75746-107.82 0.0383c-59.3 0.0211-108.33-0.0623-108.95-0.18528zm314.85 5.3e-4c-2.6766-0.53149-5.0371-2.6757-5.7962-5.265-0.34361-1.1722-0.33985-1.5031 0.0337-2.9806 0.23111-0.91412 0.63764-1.9582 0.90336-2.3201 0.59918-0.8161 2.9858-2.2471 4.3999-2.6382 0.76491-0.21156 22.038-0.272 76.729-0.21799l75.671 0.0747 1.8521 1.0672c1.5574 0.89739 1.9758 1.2966 2.6293 2.5087 1.0467 1.9414 1.0721 4.0294 0.0729 5.983-0.38172 0.74626-0.63299 1.4179-0.55841 1.4925 0.19376 0.19374-1.2412 1.1706-2.7274 1.8568l-1.2684 0.58558-75.406 0.0387c-41.473 0.0213-75.914-0.0621-76.534-0.18528zm-315.07-26.744c-3.8341-0.86255-6.579-4.7715-5.6842-8.0947 0.54553-2.0259 1.8197-3.5459 3.8291-4.5676l1.8254-0.92818h188.75l1.8254 0.92818c1.4118 0.71787 2.0194 1.218 2.6817 2.2073 1.6711 2.4964 1.7466 4.5841 0.25575 7.0789-0.98383 1.6464-2.8936 2.9462-4.9892 3.3956-1.6803 0.36036-186.9 0.34117-188.5-0.0195zm305.22 0.11861c-3.6004-0.60973-6.2758-3.0307-6.7709-6.1269-0.11901-0.74424 0-1.6087 0.39192-2.8686 0.48708-1.5621 0.72404-1.9215 1.7717-2.6873 0.66516-0.4862 1.7656-1.141 2.4453-1.4552l1.2359-0.57121 79.375-0.078c57.433-0.0564 79.802 3e-3 80.919 0.21621 1.5198 0.28956 3.8313 1.5374 4.709 2.542 2.9582 3.3862 1.4928 8.5922-2.9457 10.464l-1.4552 0.61379-79.507 0.0314c-43.729 0.0173-79.805-0.019-80.169-0.0806z" opacity=".502"/>
</g>
</g>
</svg>
