<?xml version="1.0" encoding="UTF-8"?>
<svg version="1.1" viewBox="0 0 250 91" xmlns="http://www.w3.org/2000/svg" xmlns:cc="http://creativecommons.org/ns#" xmlns:dc="http://purl.org/dc/elements/1.1/" xmlns:rdf="http://www.w3.org/1999/02/22-rdf-syntax-ns#">
<metadata>
<rdf:RDF>
<cc:Work rdf:about="">
<dc:format>image/svg+xml</dc:format>
<dc:type rdf:resource="http://purl.org/dc/dcmitype/StillImage"/>
<dc:title/>
</cc:Work>
</rdf:RDF>
</metadata>
<g transform="translate(0,-961.4)" fill="#fff">
<g transform="matrix(.07617 0 0 .07596 147.04 955.71)">
<path d="m-495.86 612.66c-1.59-1.59-1.55-11.27 0.1-12.55 0.69-0.54 3.38-1.22 5.99-1.49 5.85-0.63 9.03-2.65 12.28-7.79 3.18-5.04 6.48-13.35 6.48-16.33 0-1.25-5.4-15.23-12-31.06-6.6-15.82-12-29.6-12-30.61s0.79-2.05 1.75-2.31c4.85-1.33 15.4-2.82 16.62-2.35 1.54 0.59 4.89 8.91 12.16 30.2 2.63 7.69 5.12 14.37 5.52 14.83s1.74-2.24 2.97-6c3.1-9.47 14.05-37.64 15.06-38.74 1.23-1.35 15.99 1.42 16.65 3.13 0.74 1.92-34.16 80.19-38.97 87.39-4.58 6.85-10.4 11.4-17.18 13.41-5.98 1.78-13.74 1.91-15.38 0.27zm-138.2-33.33c-15.33-4.19-27.43-13.81-33.46-26.62-14.55-30.88 2.65-64.31 36.67-71.27 13.09-2.68 22.86-1.78 34.04 3.16 6.73 2.97 7.04 4.12 3.05 11.45-2.18 4.01-3.1 4.86-4.75 4.43-1.13-0.3-5.43-1.48-9.55-2.63-15.54-4.32-30.8 1.8-37.51 15.03-7.13 14.08-4.44 32.95 6.17 43.18 7.98 7.69 21.79 10.72 33.34 7.3 9.1-2.69 9.17-2.67 12.44 3.89l2.94 5.88-2.29 1.86c-4.12 3.33-12.04 5.14-24.09 5.5-8.06 0.24-13.15-0.11-17-1.16zm109.01-0.1c-4.26-1.85-7.65-4.92-9.86-8.91-1.35-2.46-1.74-7.14-2.15-26l-0.5-23-3.5-0.33c-4.72-0.45-6-1.75-6-6.09 0-4.67 1.44-6.08 6.2-6.08h3.8v-7.38c0-4.69 0.46-7.75 1.25-8.4 0.69-0.57 5-1.83 9.58-2.81 10.17-2.18 10.13-2.22 10.15 9.8v8.71l16.5 0.58v5.5 5.5l-16.61 0.58 0.3 21.05 0.31 21.05 2.91 2.5c2.93 2.52 3.74 2.58 10.9 0.78 2.14-0.54 2.8-0.14 4.18 2.52 0.9 1.73 1.49 4.36 1.32 5.84-0.26 2.23-1.15 2.97-5.31 4.39-6.33 2.16-18.73 2.26-23.49 0.2zm183.49-0.21c-9.68-2.87-15.38-6.12-22.51-12.85-10.58-9.98-14.92-20.41-14.97-35.99-0.1-22.93 14-40.92 37.52-47.97 4.01-1.2 9.4-1.8 16.46-1.84 9.13 0 11.51 0.32 18.2 2.78 4.23 1.56 8.19 3.43 8.8 4.17 0.84 1.01 0.37 2.81-1.96 7.42-1.69 3.34-3.62 6.08-4.3 6.08s-3.72-0.96-6.74-2.13c-7-2.71-17.53-2.93-24.67-0.51-6.88 2.33-13.57 8.39-17.02 15.43-2.56 5.21-2.81 6.68-2.81 16.71 0 10.01 0.25 11.51 2.78 16.66 5.32 10.83 14.82 16.87 27.72 17.61 5.89 0.35 8.87 0 13.88-1.72 3.51-1.19 6.93-1.95 7.6-1.7 0.67 0.26 2.24 2.99 3.49 6.07 2.73 6.74 2.29 7.56-5.81 10.69-7.93 3.07-27.01 3.65-35.66 1.09zm76.23-0.56c-9.01-3.8-14.1-8.58-18.42-17.33-3.56-7.2-3.77-8.15-3.79-17.23 0-8.87 0.23-10.14 3.27-16.3 11.38-23.13 42.91-27.53 60.91-8.5 7.2 7.61 9.61 14.55 9.1 26.22-0.31 7.02-0.97 10.25-3.01 14.68-3.48 7.56-9.44 13.83-16.5 17.34-4.99 2.48-7.17 2.92-15.79 3.21-8.79 0.29-10.7 0-15.77-2.09zm22.46-12.79c5.84-4.13 9.1-23.26 5.74-33.64-4.88-15.02-20.28-16.3-26.69-2.21-2.33 5.13-2.31 22.02 0 28.1 3.85 9.98 12.97 13.36 20.91 7.75zm54.24 13.26c-4.75-2.16-9.58-7.63-11.4-12.9-0.85-2.46-1.44-12.3-1.76-29.25-0.41-21.94-0.27-25.72 1.03-26.79 1.02-0.85 4.35-1.16 10.35-0.96l8.85 0.29 0.5 24c0.41 19.91 0.79 24.52 2.18 27.06 4.11 7.49 15.26 7.03 19.55-0.83 1.51-2.76 1.82-6.51 2.09-25.71 0.2-13.77 0.73-22.98 1.37-23.75 1.4-1.69 16.94-1.74 18.61-0.1 0.88 0.88 1.2 9.81 1.2 33.93 0 28.42-0.21 32.93-1.57 34.3-1.16 1.16-3.61 1.57-9.3 1.57-7.98 0-10.13-0.89-10.13-4.2 0-2-1.51-2.41-2.56-0.7-0.38 0.61-2.99 2.18-5.81 3.49-6.55 3.05-17.11 3.28-23.2 0.52zm176.07 0.49c-13.97-4.43-22.75-14.46-25.42-29.06-1.29-7.04-0.1-15.39 3.21-22.46 2.64-5.63 9.99-13.16 15.68-16.07 6.24-3.18 17.48-5.29 24.03-4.5 6.24 0.75 13.77 3.72 14.54 5.74 0.53 1.39-2.96 10.28-4.38 11.15-0.44 0.27-3.21-0.22-6.16-1.08-4.38-1.29-6.27-1.37-10.29-0.44-10.09 2.33-15.03 8.9-15.1 20.12-0.1 10.42 3.65 18.02 10.6 21.61 3.51 1.82 12.39 2.01 17.35 0.37 4.78-1.58 5.94-0.91 7.77 4.49 1.49 4.37 1.48 4.72-0.32 6.52-4.48 4.48-22.33 6.52-31.51 3.61zm-563.26-0.43c-0.99-0.63-1.21-8.36-1-35.24l0.26-34.43h9.5 9.5l0.26 34.43c0.21 26.88 0 34.61-1 35.24-0.69 0.44-4.64 0.8-8.76 0.8-4.13 0-8.07-0.36-8.76-0.8zm456.8-1.1c-0.66-1.22-1.04-13.93-1.04-34.38 0-26.62 0.25-32.65 1.4-33.61 0.89-0.74 4.43-1.06 9.65-0.87 8.37 0.29 8.26 0.24 10.65 4.65 0.11 0.2 1.72-0.57 3.58-1.72s6.2-2.82 9.64-3.7c14.34-3.67 28.44 2.58 32.18 14.28 1.74 5.46 2.5 53.86 0.87 55.82-1.55 1.86-16.95 2.08-18.77 0.26-0.86-0.86-1.2-7.5-1.2-23.53 0-23.6-0.5-26.79-4.82-30.64-4.96-4.41-15.05-2.52-19.61 3.69-1.93 2.63-2.09 4.4-2.39 26.48-0.22 16.8-0.66 23.88-1.5 24.42-0.65 0.41-4.88 0.76-9.39 0.76-7.11 0-8.36-0.24-9.25-1.91zm151.2 1.1c-0.99-0.63-1.21-8.36-1-35.24l0.26-34.43 8.85-0.29c5.66-0.19 9.35 0.13 10.25 0.87 1.15 0.96 1.4 7.06 1.4 33.97 0 28.49-0.21 33.01-1.57 34.38-1.16 1.16-3.59 1.57-9.25 1.55-4.22 0-8.25-0.37-8.94-0.81zm36.87-0.53c-0.81-0.99-1.06-15.25-0.87-51.25l0.26-49.89 8.85-0.29c5.66-0.19 9.35 0.13 10.25 0.87 1.17 0.97 1.4 9.29 1.4 49.61 0 31.48-0.36 49.12-1.04 50.38-0.89 1.67-2.15 1.93-9.37 1.93-5.83 0-8.69-0.41-9.48-1.36zm-640.84-77.12c-4.09-1.78-7.26-6.92-7.27-11.78 0-2.9 0.79-4.63 3.42-7.5 3.11-3.39 3.91-3.74 8.58-3.74s5.47 0.35 8.58 3.74c2.63 2.87 3.42 4.6 3.42 7.5 0 4.97-3.22 10.04-7.49 11.82-4.19 1.75-5.12 1.75-9.24 0zm609.99 0.78c-3.15-0.61-7.98-5.73-8.76-9.3-2.2-10 7.66-17.86 16.91-13.47 9.37 4.44 8.73 18.01-1.05 22.09-1.81 0.76-3.65 1.32-4.08 1.24-0.43-0.1-1.79-0.33-3.02-0.56zm95.24-64.96c-23.56-3.69-45.64-18.76-55.81-38.11-6.01-11.44-8.07-20.65-7.99-35.73 0.1-14.55 2.07-24.14 7.34-35.39 16.66-35.61 61.76-55.51 98.76-43.64 4.6 1.47 9 2.43 9.8 2.13 1.1-0.44 1.4-4.1 1.4-19.42 0-10.58-0.5-20.2-1-21.89-1.2-3.37-3.6-4.84-9.5-5.8-4.7-0.78-7.5-2.98-7.5-5.97 0-3.84 4-6.27 15.6-9.41 6.1-1.66 15.8-4.84 21.5-7.06s11.1-4.04 12-4.04 2.9 0.97 4.4 2.17l2.8 2.17-0.9 12.08c-0.5 6.64-0.9 50.42-0.9 97.28 0 98.41-0.7 91.39 8.9 84.96 6.8-4.47 10.2-4.76 11.7-1 1.4 3.69 0.3 7.58-2.9 10.57-3.7 3.46-5.1 4.11-21.4 9.72-27.1 9.34-29.6 9.01-31.3-4.21-0.3-2.61-1.1-4.75-1.7-4.75s-3.2 1.58-5.8 3.51c-5.8 4.27-13.6 7.91-21.1 9.86-6.1 1.58-21.5 2.73-26.4 1.97zm37.5-22.4c8.3-1.36 12.8-3.52 15.1-7.36 1.9-2.92 1.9-5.27 1.7-46.58-0.3-43.13-0.3-43.55-2.7-49.38-4.4-10.93-11.4-16.57-23.2-18.63-21.9-3.82-40.8 9.61-49.04 35.01-2.72 8.31-3.17 11.31-3.61 24-0.59 16.98 0.54 22.97 6.68 35.5 4.3 8.78 12.37 17.85 19.87 22.2 9.9 5.81 21.2 7.5 35.2 5.24zm-950.5 20.65c-17.27-3.3-32.36-9.75-36.22-15.49-2.12-3.16-2.28-4.42-2.25-18 0-16.72 1.21-27.8 3.14-29.63 5.17-4.89 9.97-1.22 11.75 8.98 3.5 20.08 22.22 38.87 42.45 42.61 15.38 2.84 33.56-6.04 40.23-19.67 2.41-4.93 2.6-6.2 2.21-14.64-0.36-7.66-0.94-10.28-3.37-15.24-6.04-12.31-18.34-21.62-44.04-33.29-16.93-7.7-27.7-14.67-35.57-23.04-10.69-11.36-15.62-25.14-14.41-40.29 2.01-25.28 17.02-44.6 40.87-52.58 7.79-2.6 9.19-2.75 27.21-2.78 20.35 0 28.01 1.14 39.17 6.03 8.24 3.6 8.77 5.04 9.17 24.73 0.18 9.29 0.1 17.94-0.26 19.23-1.4 5.59-6.62 7.12-11.02 3.23-1.76-1.56-3.32-4.96-5.07-11.07-4.47-15.62-9.55-22.61-20.26-27.89-5.97-2.94-7.59-3.29-15.21-3.29-14.56 0-24.15 5.11-29.8 15.86-2.41 4.58-2.7 6.22-2.71 15.14 0 11.31 1.2 14.83 7.23 21.04 5.33 5.49 12.59 9.78 31.61 18.66 23.22 10.85 31.72 16 40.09 24.33 7.85 7.81 12.53 15.97 15.17 26.47 2.26 8.98 1.48 29.05-1.46 37.28-4.74 13.28-12.93 24.19-23.53 31.35-5.6 3.78-17.09 8.85-24.62 10.87-8.6 2.3-30.99 2.91-40.5 1.09zm304.61-1.57c-17.47-4.73-32.89-15.4-42.91-29.69-7.26-10.35-12-25.02-12.87-39.83-3.01-51.34 37.99-90.52 88.52-84.56 16.54 1.95 28.19 7.21 37.71 17.02 8.36 8.62 14.44 21.88 14.44 31.49 0 7.92 2.48 7.55-50.71 7.55-39.84 0-47.23 0.22-48.25 1.45-1.93 2.33-2.72 11.47-1.84 21.46 2.79 31.82 22.31 53.65 49.89 55.78 13.81 1.06 27.67-3.33 37.32-11.82 5.76-5.07 8.72-6.17 11.47-4.24 2.9 2.03 2.67 4.2-1.04 9.79-6.75 10.19-23.11 20.45-39.34 24.67-12.04 3.13-32.61 3.58-42.39 0.93zm39.01-113.39c8.76-3.28 11.69-9.6 8.42-18.16-3.01-7.9-10.73-11.82-23.02-11.69-16.02 0.16-29.27 9.52-35.1 24.79-2.98 7.8-3.45 7.65 22.33 7.19 18.42-0.32 23.63-0.73 27.37-2.13zm362.24 113.94c-14.86-3.39-28.45-11.41-39.15-23.09-22.7-24.76-25.39-66.49-6.25-96.8 5.08-8.04 17.55-19.98 26.07-24.96 21.76-12.7 54.97-13.72 75.38-2.31 14.66 8.2 26.59 26.64 26.59 41.12 0 7.82 2.34 7.47-50.08 7.49-25.53 0-46.95 0.35-47.61 0.77-2.21 1.4-3.31 6.31-3.31 14.82 0 15.4 4.23 29.95 12.06 41.47 16.41 24.17 52.69 29.24 74.67 10.42 5.38-4.6 8.92-6.4 11.35-5.77 3.21 0.84 3.43 4.72 0.53 9.67-6.02 10.28-23.28 21.33-40.11 25.69-10.44 2.71-31.4 3.48-40.14 1.48zm35.94-113.47c9.34-3 12.81-10.55 8.9-19.38-2.58-5.84-7.76-9.32-15.7-10.56-16.95-2.64-32.74 5.62-40.53 21.21-3 6-3.59 8.68-2.22 10.04 1.22 1.23 45.29 0.1 49.55-1.31zm-499.8 110.76c-3.3-0.48-13.88-0.78-23.5-0.68-34.71 0.39-32.61 0.48-34.9-1.58-4.68-4.25-1.59-7.9 8.98-10.62 12.33-3.17 11.38 0.85 11.7-49.11 0.18-26.67-0.11-45.23-0.75-48.73-1.59-8.65-4.86-14.14-10.51-17.63-4.65-2.88-5.35-3.01-15.94-2.98-9.08 0-12.09 0.43-16.66 2.26-7.45 2.97-13.24 8.12-16.39 14.56l-2.59 5.3 0.28 44.1c0.27 42.95 0.33 44.18 2.37 46.93 2.11 2.85 6.68 4.8 13.77 5.87 4.87 0.73 8.74 4.37 7.93 7.45-1.14 4.37-5.47 5.08-24.48 4.01-10.39-0.58-24.29-0.63-34.77-0.12-18.43 0.9-22.5 0.39-23.57-2.97-1.58-5 2.29-8.18 11.48-9.42 7.32-1 11.02-4.54 11.13-10.67 0-2.38 0-38.22-0.1-79.65-0.17-80.22-0.24-81.39-5.03-87.48-1.42-1.8-3.67-2.91-7.59-3.72-5.61-1.17-9.39-3.75-9.39-6.42 0-0.8 1.01-2.6 2.25-4 1.78-2.03 4.22-2.95 11.75-4.45 5.42-1.08 12.94-3.5 17.5-5.62 15.79-7.35 21.71-8.88 24.3-6.29 0.9 0.9 1.2 12.36 1.2 45.44 0 29.33 0.35 44.46 1.03 44.88 0.57 0.35 4.51-2.33 8.75-5.96 8.84-7.56 20.5-13.85 28.93-15.61 8.28-1.72 24.13-0.7 32.6 2.11 16.83 5.58 25.83 17.33 28.61 37.35 0.64 4.54 1.08 25.45 1.08 50.6 0 24.87 0.4 43.92 0.96 45.38 1.12 2.96 4.56 4.88 11.81 6.58 5.69 1.34 7.8 3.63 6.84 7.45-1.09 4.33-6.43 5.29-19.11 3.44zm142.97-0.78c-3.12-1.31-4.75-3.82-4.12-6.32 0.81-3.17 3.48-4.53 11.32-5.79 8.34-1.33 11.4-2.73 13.04-5.97 0.97-1.92 1.26-15.02 1.28-56.71 0-62.21 1.09-56.29-10.27-56.29-7.48 0-10.43-2.04-9.32-6.45 0.78-3.13 3.79-5.15 11.8-7.91 7.19-2.47 7.52-3.06 10.26-18.14 4.49-24.76 22.34-45.28 46.19-53.1 7.85-2.57 10.26-2.9 21.35-2.9 12.37 0 12.57 0 18.9 3.47 6.69 3.62 10.1 7.69 10.09 12.03 0 3.72-4.29 12.22-8.51 16.89-2.85 3.15-4.44 4.11-6.85 4.11-4.14 0-8.58-2.83-12.74-8.09-1.86-2.36-5.46-6.45-8-9.1-4.1-4.29-5.07-4.81-8.9-4.81-3.69 0-4.82 0.55-7.96 3.84-4.15 4.37-7.25 13.06-8.98 25.16-1.36 9.5-1.8 26.11-0.74 27.75 0.59 0.92 5.18 1.25 17.18 1.25 9.01 0 17.55 0.45 18.99 0.99 1.43 0.55 3.34 2.28 4.24 3.85l1.64 2.85 3.38-2.29c1.86-1.26 5.86-3.01 8.89-3.9 6.43-1.86 7.49-3.6 9.27-15.21 3.98-25.96 21.34-46.96 45.98-55.66 7.87-2.78 9.75-3.05 21.62-3.09 11.77 0 13.46 0.19 17.84 2.36 6.7 3.33 11.66 8.2 11.66 11.47 0 3.23 0.32 3.24 4.32 0.22 8.23-6.23 18.89-5.43 26.28 1.96 7.35 7.35 8.09 17.93 1.82 26.15-7.47 9.78-24.48 9.82-31.72 0.1-2.76-3.71-4.7-8.9-4.7-12.55 0-2.31-0.31-2.14-4.08 2.15-3.25 3.69-4.74 4.64-7.25 4.64-4.65 0-8.77-2.98-15.02-10.82-7.26-9.1-10-11.18-14.71-11.18-10.66 0-17.11 16.01-17.32 43l-0.12 14.5 36.68 1 2.41 2.81c3.08 3.58 3.08 7.8 0 11.38l-2.41 2.81-17.34 0.3c-14.69 0.25-17.53 0.54-18.59 1.94-1.95 2.56-1.79 103.02 0.17 107.71 1.97 4.73 4.95 6.34 14.09 7.61 9.57 1.34 13.5 3.15 13.47 6.22 0 6.2-3.19 6.88-26.76 5.72-11.79-0.58-27.36-0.62-38.72-0.11-10.45 0.47-19.99 0.48-21.19 0-2.99-1.13-4.65-4.42-3.4-6.75 1.74-3.25 3.61-4.11 11.52-5.29 9.81-1.46 12.53-3.55 13.59-10.44 0.42-2.72 0.53-27.66 0.26-55.44-0.44-44.44-0.69-50.65-2.08-51.75-0.9-0.71-4.39-1.25-8.06-1.25-4.64 0-7-0.47-8.32-1.66-1.73-1.57-2-1.52-4.41 0.75-2.46 2.31-3.27 2.43-20.24 2.91l-17.67 0.5-1.36 4c-1.84 5.42-0.83 101.33 1.12 105.29 2.04 4.16 5.77 6.11 13.74 7.2 9.69 1.33 12.87 2.66 13.64 5.73 1.09 4.32-2.45 6.7-9.87 6.62-47.13-0.52-65.1-0.52-69.27 0-2.75 0.33-5.92 0.22-7.03-0.25zm198.03 0.22c-3.2-0.82-4.5-2.35-4.5-5.27 0-3.85 2.75-5.88 9.58-7.06 14.29-2.48 13.56 0.36 13.21-51.93-0.34-49.74 0.21-47.09-10.3-50.29-7.14-2.17-8.49-3.24-8.49-6.72 0-3.78 2.35-5.56 13.24-10.02 11.11-4.56 17.37-8.13 26.33-14.99 3.6-2.76 7.54-5.01 8.74-5.01 5.43 0 5.15-3.16 5.69 65.2 0.47 58.88 0.63 63.55 2.34 66.99 2.02 4.06 6.32 6.18 14.76 7.28 7.72 1 11.21 6.12 6.86 10.05-1.5 1.36-3.53 1.83-7.75 1.78-42.61-0.47-60.39-0.48-63.71 0-2.2 0.3-4.9 0.31-6 0zm197.82-0.31c-3.56-1.43-4.76-4.67-2.84-7.6 1.87-2.85 4.08-3.83 10.83-4.82 3.18-0.47 5.9-1.68 8-3.56l3.19-2.85v-82.83c0-96.3 0.96-87.92-10.4-91.3-6.69-1.99-8.1-3.2-8.1-6.96 0-3 3.18-4.86 13.02-7.61 12.27-3.43 18.6-5.74 25.95-9.45 7.21-3.64 11.31-3.88 13.47-0.79 1.39 1.98 1.56 12.98 1.56 98.53 0 103.86-0.13 101.18 5.17 104.6 1.28 0.83 5.25 2.02 8.83 2.65 8.38 1.48 11 3.16 11 7.07 0 2.51-0.59 3.28-3.45 4.47-2.87 1.2-6.3 1.28-20.75 0.44-15.49-0.89-29.27-0.75-47.3 0.48-3.3 0.23-6.98 0-8.18-0.47z"/>
<path d="m-343.81 1135.1-12.25-0.3v-9c0-8.7-0.1-9-2.53-10l-2.53-0.9 0.28-14.3 0.28-14.2 13.5-0.6v-13.5c0-9.9-0.33-13.6-1.25-13.9-0.69-0.2-11.6-0.9-24.25-1.5-32.23-1.5-59.6-3.1-62.23-3.6-2.23-0.5-2.24-0.5-2.5-25.2l-0.27-24.7-8.46-0.6-0.54 48.6-6.8 0.3-6.8 0.2 0.3 5.3 0.3 5.2 5.67 0.3c3.22 0.1 6.15 0.8 6.79 1.6 0.68 0.8 1.01 4.3 0.84 8.7l-0.3 7.4h-6.5c-3.57 0-11-0.3-16.5-0.5l-10-0.5-0.28 10.9c-0.18 6.7 0.12 11.3 0.8 12.1 0.64 0.8 4.64 1.6 9.78 2 13.73 1.2 13.2 0.7 13.2 12.5 0 6.6-0.37 10-1.1 10-0.6 0-5.22-3.9-10.25-8.6-5.03-4.8-15.9-14.1-24.15-20.6-8.25-6.6-16.57-13.3-18.5-14.8-3.82-3.1-3.85-2.8 1.43-9.5 3.65-4.6 3.01-5.1-7.7-6-5.79-0.5-8.6-0.4-10.39 0.6-2.8 1.5-5.16 0.5-13.59-5.7l-4.75-3.4v-6.5c0-7.6-0.18-7.7-9.6-4.3l-6.1 2.2-9.4-5.5-9.4-5.4-0.3-5.3c-0.18-3-0.84-5.5-1.55-5.8-0.68-0.2-4.34 0.2-8.13 1l-6.89 1.4-12.06-6c-6.64-3.3-12.3-6.2-12.57-6.5-0.27-0.2-0.73-15.4-1-33.56l-0.5-33.1-2.92-0.78c-1.61-0.43-5.43-0.91-8.5-1.07l-5.58-0.29-0.26 29.75c-0.23 25.35-0.49 29.75-1.74 29.75-0.8 0-5.3-1.8-9.98-3.9-7.37-3.4-8.52-4.3-8.52-6.47 0-2.89 0.33-2.76-14.92-5.75-6.29-1.23-16.19-4.1-22-6.39l-10.58-4.16-0.27-17.56c-0.22-13.78-0.58-17.82-1.71-18.75-2.96-2.46-3.52 0-3.52 15.35 0 10.69-0.37 15.72-1.25 16.82-1.11 1.41-3.42 0.78-21.12-5.73-19.48-7.16-25.91-10.22-18.6-8.85 3.66 0.69 3.75 0.69 5.72 0.51 1.55-0.15 1.69-6.73 0.17-7.67-1.74-1.07-11.81-3.22-12.39-2.65-0.29 0.3-0.53 2.51-0.53 4.93 0 4.79-0.47 4.92-7 1.9l-2.5-1.15-0.26-16.99c-0.23-14.44-0.52-17.18-1.92-18.22-3.62-2.7-4.32 0-4.32 16.85v15.88h-2.31c-3.43 0-5.77-2.17-6.55-6.05l-0.68-3.45-19.89-4.9c-18.17-4.48-19.98-4.76-21.08-3.25-1.49 2.03-3.52 2.08-8.02 0.2l-3.47-1.45v-12.99c0-8.62-0.38-13.23-1.13-13.69-0.63-0.39-6-1.93-11.93-3.44-7.69-1.94-11.1-2.42-11.87-1.65-1.2 1.2-1.44 12.55-0.3 14.29 0.4 0.61 3.31 1.86 6.47 2.77 4.54 1.31 5.86 2.16 6.34 4.06 0.74 2.96-0.3 6.55-1.9 6.56-0.65 0-6.69-1.64-13.43-3.65l-12.25-3.66v-40.85c0-23.65 0.38-40.85 0.9-40.85 0.5 0 9.84 4.72 20.75 10.5 10.92 5.77 20.41 10.5 21.1 10.5 0.96 0 1.25-4.47 1.25-19.03 0-14.85 0.29-19.14 1.32-19.54 2.12-0.81 53.43 0.98 54.35 1.9 0.46 0.46 0.96 12.05 1.13 25.75l0.3 24.93 7.45 5.03c10.18 6.86 10.26 6.88 10.63 2.29 0.3-3.58 0.61-3.92 4.82-5.22 2.47-0.77 4.72-1.59 5-1.83s0.72-3.41 1-7.03l0.5-6.6 5-1.57 5-1.58 7.82-38.5c4.3-21.17 8.23-38.92 8.73-39.43 0.5-0.52 1.18-0.68 1.49-0.36 0.32 0.32 3.24 18.06 6.5 39.43 3.25 21.38 6.15 39.84 6.44 41.03 0.28 1.19 2.2 3.17 4.27 4.4 5.53 3.3 6.25 4.64 6.25 11.62 0 3.47 0.37 6.31 0.82 6.31 0.91 0 11.51-1.8 14.8-2.51 1.16-0.26 8.05-7.41 15.37-15.98 7.29-8.53 13.85-15.51 14.58-15.51 0.74 0 5.59 5.74 10.79 12.76l9.46 12.77 8.34 2.75c4.59 1.52 8.68 2.75 9.09 2.74 0.41 0 0.76-4.86 0.76-10.77s0.27-11.7 0.59-12.87c0.62-2.33 24.22-19.38 26.82-19.38 1.29 0 1.58 1.28 1.58 6.89 0 7.35 0.52 8.11 5.58 8.11 2.26 0 2.42-0.36 2.42-5.31 0-2.92 0.56-6.05 1.25-6.96 1.15-1.53 1.93-1.42 9.57 1.3 4.58 1.64 8.97 2.97 9.75 2.97 1.08 0 1.43-1.46 1.43-5.93 0-3.6 0.52-6.45 1.33-7.25 0.73-0.73 5.89-4.47 11.47-8.32 5.59-3.85 10.36-7.67 10.61-8.5s0.95-4.03 1.56-7.12c1.23-6.19 4.75-12.3 8.86-15.38 1.99-1.49 4.23-2 8.75-2 8 0 12.05 2.97 16.56 12.13 3.16 6.43 3.27 7.08 3.81 22.74l0.55 16.13 5.21 0.3 5.2 0.3 0.3-7.8 0.29-7.8 11.5-3.78 11.5-3.77 6 2.14c7.7 2.76 8.5 3.46 8.5 7.47 0 1.83 0.39 3.57 0.88 3.86 0.48 0.3 12.97 1.03 27.75 1.63 14.78 0.59 30.92 1.39 35.86 1.77l9 0.68 0.51 2.99c0.61 3.53 3.72 4.61 5.66 1.96 0.71-0.96 4.05-4.62 7.43-8.13 4.38-4.53 6.5-6.08 7.34-5.38 0.66 0.55 3.19 3.93 5.62 7.53 2.44 3.59 4.89 6.39 5.44 6.2 0.56-0.18 1.15-2.65 1.31-5.49 0.33-5.61 0.6-5.82 8.2-6.41l3.5-0.27 0.27-21.94c0.21-17.35 0.57-22.28 1.7-23.53 0.9-1 1.54-4.34 1.73-9.06 0.27-6.75 0.5-7.5 2.43-7.77 1.61-0.23 2.4 0.44 3.2 2.75 1.62 4.65 3.17 3.68 3.17-1.99 0-3.63-0.62-5.88-2.21-8.03l-2.21-2.99 2.15-4.22c1.36-2.65 2.38-6.98 2.74-11.62 0.88-11.37 5.69-19.95 14.1-25.14 3.86-2.39 4.56-5.77 1.57-7.64-3.35-2.09-3.23-5.02 0.38-9.35 5.46-6.52 9.42-19.66 6.48-21.47-1.32-0.81-1.29-5.2 0-6.03 0.57-0.35 0.79-1.44 0.48-2.41-0.31-0.98 0.12-2.34 0.96-3.04 1.12-0.94 1.52-3.3 1.52-9.08 0-8.22-1.37-11.17-2.73-5.9-0.83 3.18-5.57 7-6.96 5.6-0.43-0.43 0.19-1.53 1.38-2.46 2.43-1.89 5.91-12.26 5.48-16.34-0.35-3.39 1.35-4.44 4.49-2.75 2.09 1.11 2.61 1.09 3.39-0.14 1.76-2.78 1.46-8.41-0.63-11.66-2.39-3.73-1.59-3.85 2.06-0.31 3.17 3.08 3.43 3.74 2.87 7.45-0.34 2.24-1.23 5.59-1.99 7.45-1.07 2.65-1.13 4.27-0.25 7.5 1.21 4.46 0.57 15.71-1.16 20.24-0.9 2.38-0.7 3.06 1.51 5.1 2.88 2.67 3.09 3.98 1.06 6.65-2.48 3.28 0.81 13.52 6.38 19.86 3.59 4.09 4 8.02 1.1 10.5-3.21 2.75-2.53 5.91 1.87 8.69 8.62 5.44 13.11 14.32 13.15 26.01 0 4.48 0.54 6.72 1.98 8.57 2.58 3.3 2.58 7.62 0 9-1.66 0.89-2 2.09-2 7.04 0 6.52 1.45 7.85 3.17 2.91 0.8-2.31 1.59-2.98 3.2-2.75 1.93 0.27 2.16 1.01 2.42 7.96 0.2 5.21 0.76 8.05 1.75 8.87 1.2 1 1.46 5.23 1.46 23.83v22.62l12.5 20.58 21-0.56 4.17-16.33c2.29-8.99 4.43-16.61 4.76-16.94 1.57-1.57 2.96 3.76 9.56 36.77 3.91 19.52 7.45 36.37 7.88 37.42 0.66 1.66 1.72 0.79 7.53-6.15 6.95-8.31 8.43-9.23 14.85-9.26h3.75v-5.81c0-8.16 1.15-9.38 8.53-9l5.97 0.31 0.5 4.5c0.46 4.14 0.74 4.52 3.5 4.79 1.65 0.17 3.73-0.28 4.62-1 0.99-0.78 3.11-7.41 5.39-16.79 2.07-8.52 4.17-15.95 4.67-16.49 1.45-1.59 2.19 0.46 5.79 15.99 1.84 7.99 3.87 14.95 4.5 15.48 0.72 0.59 5.37 0.6 12.59 0 6.29-0.52 14.24-0.95 17.67-0.96 5.54 0 6.4 0.25 7.86 2.48 2.15 3.28 3.41 3.17 3.41-0.31 0-1.54 0.56-3.51 1.25-4.37 2.3-2.87 13.86-9.99 15.32-9.43 1.06 0.41 1.43 2.45 1.43 8.01v7.47l8.75 10.52c4.81 5.79 9.53 10.79 10.48 11.13 3.06 1.07 5.1-1.13 11.25-12.1 3.31-5.91 6.47-10.79 7.02-10.83 0.55-0.1 3.71 3.96 7.02 8.91l6.01 9 4.99-0.35c2.74-0.19 5.54-0.81 6.23-1.37 0.9-0.74 1.25-5.4 1.25-16.84 0-8.7 0.34-16.03 0.75-16.28s7.87-1.27 16.57-2.25c13.74-1.56 15.94-1.61 16.74-0.35 0.5 0.79 0.92 7.18 0.92 14.2v12.76l3.75-0.6c2.06-0.33 6.67-1.13 10.25-1.77l6.5-1.16 0.5-12 0.5-11.99 5.58-2.92c8.59-4.49 8.92-4.07 8.92 11.39 0 12.65 0.1 13.03 2.14 13.03 1.18 0 11.12-1.39 22.09-3.08 10.96-1.7 20.27-2.79 20.57-2.43 0.4 0.37 0.9 4.78 1.2 9.81l0.5 9.14 4.7 1.96c2.6 1.08 5 1.73 5.3 1.46 0.2-0.28 2.7-16.21 5.5-35.42 4.7-32.55 6.1-38.98 7.5-35.35 0.3 0.78 2.7 16.59 5.4 35.12 2.7 18.54 5.2 34.15 5.5 34.7 0.4 0.62 2.2 0.45 4.8-0.46 5.1-1.83 9.2-1.83 15.2 0 4.7 1.4 4.9 1.38 7.1-1.03 1.3-1.35 3.6-4.93 5.1-7.94 1.6-3.01 3.7-5.73 4.6-6.03 1.6-0.5 1.8-2.05 1.8-13.31 0-13.44 1-17.1 4.4-15.81 1.4 0.54 1.6 2.5 1.6 13.75 0 11.7 0.2 13.18 1.8 13.59 0.9 0.25 2.5 1.86 3.5 3.56 1.1 1.84 2.2 2.73 2.7 2.2 0.5-0.5 3.4-7.28 6.4-15.06 5.4-13.68 5.6-14.46 5.6-23.73 0-9.54 0-9.59 2.7-10.25 1.8-0.47 3-0.19 3.8 0.98 2.1 2.9 6 2.02 8.1-1.85 0.6-1.13 2.2-2 3.5-2 2.4 0 2.4 0.21 2.9 11.02 0.5 10.59 0.7 11.47 5.5 22.23 2.7 6.16 5.5 11.21 6.1 11.23 0.6 0 3.2-1.14 5.8-2.57l4.6-2.58v-18.85-18.85l-2.7-0.31c-2.6-0.3-2.9-1.01-5.7-10.55-2.2-7.86-2.6-10.55-1.7-11.62 1.5-1.83 12.9-4.25 14.1-3 0.6 0.51 2.3 4.94 4 9.83l3 8.89-2 2.13c-1.9 1.98-2 3.51-2 21.31v19.19h3.3c4.6 0 11.9 2.32 15.7 4.96 1.7 1.22 3.9 3.95 5 6.08 1.9 3.64 2 5.98 2 37.73v33.84l-7.1 1.85c-8.5 2.19-8.9 1.88-8.9-6.71 0-6.68-0.1-6.73-9.5-3.93l-6 1.79-0.3 7.4c-0.2 4.07-0.7 7.93-1.3 8.58-0.5 0.66-2.9 1.67-5.2 2.25-16 4.06-82.3 26.96-107.8 37.26-8.1 3.24-15.1 5.87-15.8 5.87-1.6 0-1.4-1.5 0.4-2.97 2-1.66 2-8.59 0-9.36-1.1-0.44-1.5-2.28-1.5-7.61 0-5.43-0.3-7.03-1.4-7.03-2.6 0-5.6 5.5-5.6 10.28 0 2.46-0.6 4.93-1.3 5.48-1.5 1.21-19.56 6.46-20.77 6.04-0.47-0.17-4.62-5.47-9.22-11.8s-8.98-11.5-9.74-11.5c-0.75 0-5.07 6.3-9.59 14l-8.22 13.97-0.1 7.6c0 4.2 0.17 7.9 0.48 8.2 0.3 0.3 3.02-0.1 6.03-0.9s5.91-1.2 6.44-0.8c0.53 0.3 0.97 2.7 0.97 5.3 0 5.2-1.01 6.6-6.71 9.5-3.05 1.6-3.27 1.5-4.26-0.3-0.72-1.4-2.31-2-5.24-2.3-3.95-0.2-4.49-0.7-9.24-7.4-12.33-17.4-25.6-29.23-42.05-37.41-13.6-6.75-26.44-9.93-43.06-10.67-31.72-1.4-58.16 8.21-85.2 30.98-8.26 7-13.24 12.1-13.24 13.7 0 0.5 1.46 1 3.25 1.2 3.17 0.3 3.26 0.5 3.55 5.6 0.17 2.9 0.64 5.2 1.06 5.2s2.08-1.8 3.7-3.9c2.05-2.8 4.3-4.5 7.44-5.5 6.86-2.3 26.18-7.6 27.61-7.6 2.45 0 8.44 7.4 8.16 10-0.34 3.2-2.66 3.7-19.77 4.8l-12.5 0.7-0.32 3.4c-0.18 1.9 0.1 3.8 0.52 4.2 0.47 0.5 6.2 0.4 12.72-0.1 6.77-0.6 12.25-0.7 12.75-0.2 0.49 0.5 0 3.1-1.25 6-1.33 3.2-1.8 5.6-1.27 6.5 1.47 2.5 7.25 8.7 8.12 8.7 0.46 0 2.75-4.9 5.09-11 4.49-11.5 4.48-11.5 11.64-12.2 2.79-0.2 3-0.5 3-4.3 0-3.4-0.34-4-2.25-4.3-1.24-0.2-2.25-0.7-2.25-1.2 0-3.2 12.49-21.2 19.31-27.85 5.91-5.71 7.33-5.31 16.94 4.74 5.74 6.01 8.68 10.21 12.28 17.41 2.61 5.3 4.5 10.2 4.21 11-0.38 1-4.69 1.9-14.27 3.1-7.55 0.9-14.12 1.9-14.6 2.2-1.13 0.7-1.09 4.5 0.1 6.4 0.79 1.2 2.88 1.2 15.74-0.3 30.27-3.5 77.13-4.7 78-2.1 0.56 1.7-5.65 4.7-10.37 5-8.15 0.5-10.31 1.4-10.31 3.9 0 4.3-1.17 5.6-10.38 11.8-5.02 3.3-11.74 8.1-14.95 10.5-3.38 2.6-6.2 4.1-6.72 3.6-0.48-0.5-1.01-6.1-1.17-12.4l-0.28-11.5-3.46 0.3c-1.9 0.2-3.81 0.8-4.24 1.5-0.42 0.7-0.78 8.2-0.79 16.7v15.5l-6.5 5.8c-5.63 5.1-12.39 12.4-22.66 24.6-2.23 2.6-3.35 3.1-7 3.1-4.29 0-4.39-0.1-8.65-7-2.38-3.8-4.73-7-5.24-7s-2.69 3.5-4.85 7.8-4.58 8.4-5.37 9c-1.59 1.4-16.19 3.6-19.83 3.1-1.66-0.3-3.49-2.4-6.44-7.4-2.26-3.8-4.53-7-5.04-7s-2.94 3.8-5.42 8.5c-3.26 6.1-5.19 8.6-7 9.2-5.28 1.5-59.97 6.2-98.75 8.4-14.27 0.8-13.99 1.1-8.77-8.6 1.91-3.6 3.48-7 3.5-7.7 0-1.4-15.59-1.8-17.57-0.5-0.59 0.4-3.2 4.6-5.78 9.4l-4.7 8.7-6.21 0.3c-3.42 0.2-6.43 0.2-6.69 0s1.42-3.8 3.75-8.1c2.32-4.3 4.22-8.4 4.22-9 0-1.2-14.51-1.6-17.42-0.5-0.86 0.3-3.71 4.6-6.33 9.5l-4.75 8.9h-6.83-6.83l4.58-8.4c2.52-4.7 4.58-8.7 4.58-9.1 0-0.3-4.32-0.5-9.6-0.3l-9.61 0.3-9.36 17h-15.46c-8.51 0-20.98-0.2-27.72-0.3zm24.53-33-0.28-14.7h-4-4l-0.3 5.3c-0.27 4.5-0.65 5.4-2.75 6.2-2.31 0.9-2.45 1.3-2.45 8.8 0 4.3 0.3 8.1 0.67 8.5 0.36 0.4 3.53 0.7 7.02 0.7h6.36l-0.27-14.8zm162.64 10.1c1.21-0.4 1.58-2 1.58-7v-6.4l-10.5 0.6-0.3 6.7-0.29 6.8h3.96c2.18 0 4.68-0.3 5.55-0.7zm-18.42-6.3v-6h-4.44c-2.44 0-4.69 0.4-4.99 0.8-0.59 1 7.27 11.2 8.61 11.2 0.45 0 0.82-2.7 0.82-6zm37.12 5c1.66 0 1.88-0.9 1.88-7v-7h-4.3c-2.36 0-4.84 0.5-5.5 1.2-1.3 1.3-1.67 12-0.46 13.2 0.41 0.4 2.04 0.4 3.63 0.1 1.58-0.3 3.72-0.5 4.75-0.5zm36.04-16.6c5.4-9 5.76-10.5 2.59-10.4-3.43 0.1-16.71 2.6-17.4 3.3-0.9 0.9 7.85 15.8 9.05 15.4 0.55-0.2 3.15-3.9 5.76-8.3zm-142.41 4.9c2.18-0.6 2.25-0.9 2.25-13.4 0-7 0.27-13.5 0.61-14.4 0.42-1.1 1.91-1.5 4.96-1.5h4.35l0.29 8.2 0.29 8.3 12.65-0.1c6.95-0.1 13.36-0.4 14.25-0.8 1.36-0.5 1.6-2.7 1.6-14.5v-14l5.75-0.6c8.36-1 8.25-0.9 8.25-6.5 0-3.3-0.43-5.1-1.25-5.2-0.69 0-3.73-0.1-6.75-0.2l-5.5-0.1-0.29-8.1-0.29-8.2 6.13-0.6c3.36-0.3 6.53-0.9 7.04-1.2 0.5-0.3 0.91-4.7 0.91-9.8v-9.1l-9.12-12.83c-5.02-7.04-9.52-12.66-10-12.5s-5.31 7.94-10.73 17.29l-9.85 17.04-11.79 0.9c-7.77 0.6-12.34 0.5-13.4-0.1-1.02-0.7-1.72-2.8-1.92-5.8-0.24-3.7-0.73-4.9-2.26-5.3-1.07-0.3-2.22-1.6-2.55-2.9-0.37-1.4-1.33-2.3-2.49-2.3-1.69 0-1.89 0.8-1.91 7.7 0 8.2-0.42 9.5-3.23 10.5-1.36 0.5-1.75 1.8-1.75 5.8 0 4.3 0.33 5.2 2.01 5.7 1.11 0.3 2.28 1.6 2.61 2.9 0.88 3.5-0.32 7-2.61 7.6-1.68 0.5-2.01 1.4-2.01 5.7 0 4 0.39 5.3 1.75 5.8 2.44 0.9 3.22 2.3 3.22 5.8 0 4.9-1 5.6-8.02 5.3-5.86-0.3-6.41-0.5-6.95-2.8-0.62-2.7-0.64-2.7-10-2.2l-4 0.2v5.5 5.5h3.43c4.67 0 6.57 2.1 6.57 7.5v4.5h4.5c3.67 0 4.5-0.4 4.5-1.8 0-2.6 1.98-4.2 5.16-4.2 3.99 0 4.84 2.4 4.84 13.9v10.1h9.25c5.09 0 10.26-0.3 11.5-0.7zm-13.33-24.7c-0.28-0.7-0.38-4.7-0.22-8.7l0.3-7.4h4.5 4.5l0.3 7.3c0.18 4.5-0.15 7.9-0.88 8.8-1.49 1.7-7.81 1.8-8.5 0.1zm33-1c-0.28-0.7-0.38-4.7-0.22-8.7l0.3-7.4 6.41-0.3c4.45-0.3 6.66 0.1 7.23 1 1.29 2 1.02 14.2-0.34 15.6-1.7 1.7-12.72 1.5-13.38-0.2zm-33-28c-0.28-0.7-0.38-4.7-0.22-8.7l0.3-7.4h4.5 4.5l0.3 7.4c0.24 6.2 0 7.7-1.44 8.8-2.29 1.7-7.29 1.6-7.94-0.1zm16.79-7.8 0.29-8.3h4 4v8 8l-8.58 0.6 0.29-8.3zm16.46 7.5c-0.37-0.4-0.67-4.2-0.67-8.4 0-8.8 0.1-8.9 8.47-8.9 6.16 0 6.53 0.4 6.53 8.6s-0.94 9.4-7.87 9.4c-3.19 0-6.1-0.3-6.46-0.7zm12-29c-0.37-0.4-0.67-3.6-0.67-7.1 0-4.8 0.57-7.5 2.18-10.35 1.21-2.14 2.56-3.89 3.02-3.89s1.72 1.46 2.81 3.25c2.29 3.79 2.82 15.49 0.79 17.59-1.28 1.2-7.01 1.6-8.13 0.5zm152.27 72.7c2.73-4.7 4.59-8.9 4.13-9.4-1.36-1.3-19.07 2.3-19.07 4 0 1.2 1.35 3.7 6.67 12.2 0.8 1.2 1.88 2.1 2.39 2 0.51-0.2 3.16-4.2 5.88-8.8zm-116.52-3.7c1.21-0.4 1.58-2 1.58-7v-6.4l-10.5 0.6-0.31 5.3c-0.17 3-0.1 6 0.22 6.8 0.54 1.4 6.1 1.9 9.01 0.7zm20.83-2c1.13-0.7 0.9-12.1-0.25-12.8-0.55-0.4-3.03-0.4-5.5 0l-4.5 0.6v6.3c0 3.4 0.32 6.5 0.72 6.9 0.68 0.7 7.95-0.1 9.53-1.1zm135.55-5.6c0.33-6.2 0.24-6.3-5.68-5.1-3.03 0.6-3.12 0.8-3.12 6v5.5l8.5-0.6 0.3-5.8zm-116-2 0.29-6.7h-3.96c-6.58 0-7.13 0.5-7.13 6.9 0 3.1 0.32 6 0.71 6.4s2.76 0.6 5.25 0.5l4.54-0.3 0.3-6.8zm39.95-6.3c1.8-0.6 1.68-10.3-0.14-11-0.76-0.3-4.02-0.2-7.25 0.2l-5.86 0.9-0.31 4.3c-0.43 6 0.83 7.2 7.14 6.5 2.84-0.3 5.73-0.7 6.42-0.9zm57-7.7c1.74-1.4 1.63-9.7-0.13-10.3-0.76-0.3-2.89-0.2-4.75 0.3-3.1 0.8-3.4 1.2-3.68 5.2-0.46 6.2 0.13 7.1 4.02 6.4 1.81-0.3 3.85-1.1 4.54-1.6zm18 0.7c0.78-0.2 1.25-2.3 1.25-5.4 0-5.7-0.87-6.5-5.5-5.2-2.67 0.7-3.03 1.3-3.31 5.1-0.52 7.1 0.31 7.7 7.56 5.5zm-450.25-23.9v-18l-5.31-0.9c-8.62-1.3-8.27-2.1-7.96 18.1l0.27 17.8 4.5 0.6c9.2 1.2 8.5 2.7 8.5-17.6zm319.29 15.9c0.96-0.3 1.21-3 1-10.7-0.33-11.6-0.36-11.6-9.45-10.3l-4.34 0.7v10.2c0 5.7 0.27 10.6 0.61 10.9 0.58 0.6 9.56 0 12.18-0.8zm23.99-11.7 0.29-10.8-5.79 0.3-5.78 0.3-0.29 9.4c-0.16 5.2-0.1 10 0.24 10.8 0.38 1 2.02 1.3 5.79 1.1l5.26-0.3 0.28-10.8zm-370.58 5.3c0.94-5.5-0.22-7-5.32-7h-3.88v5c0 4.3 0.34 5.2 2.25 5.9 4.43 1.9 6.14 0.9 6.95-3.9zm-19.2-3.1c0-5.3-0.35-5.7-5.5-6.2l-3-0.2v5.5 5.5l3.5 0.5c1.93 0.3 3.84 0.4 4.25 0.2s0.75-2.6 0.75-5.3zm143-9.5c0-5.4 1.5-7.4 5.43-7.4 2.72 0 3.47-0.5 3.96-2.5 0.47-1.8 1.39-2.5 3.86-2.7l3.25-0.3 0.26-34.95c0.23-30.5 0.1-35.21-1.32-37.33-0.88-1.33-1.35-3.06-1.05-3.84 0.68-1.77 7.18-1.91 8.3-0.17 0.45 0.69 1.04 15.65 1.31 33.25l0.5 32.04 8 1 1 16h3 3l0.5-24.5 0.5-24.54 3.9-0.32c2.44-0.2 4.21 0.17 4.73 1 0.46 0.73 0.85 9.53 0.85 19.57v18.29h3 3v-18.29c0-10.04 0.39-18.84 0.85-19.57 0.52-0.83 2.29-1.2 4.73-1l3.9 0.32 0.27 19.15 0.27 19.09 2.41 0.7c1.5 0.3 2.53 1.4 2.73 2.8 0.25 1.7 1.08 2.3 3.57 2.6l3.25 0.3v-30.47c0-26.85-0.19-30.53-1.58-31.06-0.87-0.34-10.96-0.61-22.43-0.61-17.62 0-21.09-0.24-22.42-1.57-1.34-1.34-1.57-4.99-1.57-24.5v-22.93h-4.26c-3.44 0-4.46 0.43-5.25 2.22-0.55 1.22-2.12 2.47-3.49 2.79-2.39 0.55-2.52 0.97-3 9.53l-0.5 8.96h-9.5c-5.23 0-16.25-0.23-24.5-0.5l-15-0.5-0.26 41.5c-0.24 38.14-0.13 41.64 1.44 42.74 1.05 0.8 5.03 1.3 10.45 1.3 4.81 0 9.89 0.4 11.3 0.9 2.44 1 2.57 1.4 2.57 8.4 0 4 0.3 7.6 0.67 8 0.36 0.4 2.61 0.7 5 0.7 4.3 0 4.33 0 4.33-3.6zm-12.89-27.8c-0.72-0.9-1.1-3.7-0.92-6.8l0.31-5.34h3.5 3.5v6.54c0 6.2-0.1 6.5-2.59 6.8-1.42 0.1-3.13-0.4-3.8-1.2zm13.5-0.2c-0.34-0.9-0.61-3.1-0.61-4.9 0-5.3 0.86-6.54 4.5-6.54s4.5 1.24 4.5 6.54c0 5.2-0.86 6.5-4.5 6.5-2.07 0-3.51-0.6-3.89-1.6zm0.43-22.37c-0.57-1.07-1.04-3.35-1.04-5.07 0-6.25 3.82-9.04 7.43-5.43 1.57 1.57 2.13 7.82 0.96 10.85-0.88 2.29-6.07 2.04-7.35-0.35zm-27.84 0.1c-0.9-0.57-1.21-2.68-1-6.73 0.29-5.69 0.41-5.92 3.19-6.24 3.6-0.41 4.58 1.05 4.59 6.88 0 6.08-2.8 8.62-6.78 6.09zm13.21-0.52c-0.29-0.75-0.39-3.57-0.22-6.25 0.31-4.84 0.33-4.87 3.81-4.87h3.5l0.6 12.5h-3.58c-2.12 0-3.8-0.56-4.11-1.38zm14.63-21.55c-0.57-1.07-1.04-3.35-1.04-5.07 0-6.25 3.82-9.04 7.43-5.43 1.87 1.87 2.12 9.48 0.37 11.23-1.84 1.84-5.61 1.43-6.76-0.73zm-26.84-0.12c-2.08-0.84-2.27-1.47-2-6.69 0.27-5.15 0.54-5.79 2.61-6.09 1.26-0.18 2.95 0.22 3.75 0.88 1.77 1.47 1.95 10.04 0.24 11.75-1.38 1.38-1.52 1.39-4.6 0.15zm12.21-0.33c-0.29-0.75-0.39-3.57-0.22-6.25 0.31-4.84 0.33-4.87 3.81-4.87h3.5l0.6 12.5h-3.58c-2.12 0-3.8-0.56-4.11-1.38zm-164.16 68.79 7.75-2.6v-4.3c0-2.4-0.34-4.6-0.76-4.9-1.03-0.6-14.45 2.4-15.99 3.6-1.3 1.1-1.75 8.9-0.58 10.1 0.95 1 1.02 1 9.58-1.9zm54.25-8.9c0-4.7-0.12-4.9-3.37-5.8-5.13-1.3-6.13-0.5-6.13 5.2 0 5.4 0.66 6.1 6 5.8l3.5-0.2v-5zm-19.5-2c0-5.4 0-5.4-3.44-6.1-4.74-0.9-5.56-0.1-5.56 5.6 0 5.2 0.55 5.8 5.75 5.9l3.25 0.1v-5.4zm368.75-1.1c0.73-0.2 1.25-2 1.25-4.3 0-3.1-0.44-4.1-2-4.6-1.29-0.4-2-1.5-2-3.1 0-1.7-0.77-2.8-2.5-3.4-2-0.8-2.5-1.7-2.5-4.4 0-4.06-0.51-4.32-7.31-3.63l-5.19 0.52-0.29 10.91c-0.15 6-0.1 11.5 0.22 12.3 0.38 1 2.65 1.1 9.79 0.7 5.1-0.3 9.84-0.8 10.53-1zm-431.44-11.4c0.45-0.4 0.67-2.9 0.5-5.6l-0.31-4.91-9.85-0.29c-6.41-0.18-10.34 0.12-11.25 0.87-1.48 1.23-1.98 10.03-0.65 11.33 0.92 1 20.44-0.3 21.56-1.4zm30.99-2.5 4.81-0.7-0.31-4.1c-0.29-4.14-0.37-4.21-4.3-4.48-2.2-0.15-6.02 0.1-8.5 0.52-4.17 0.74-4.52 1.04-4.82 4.06-0.43 4.4 1.31 6.3 5.21 5.7 1.71-0.2 5.27-0.7 7.91-1zm86.7-0.5c0-2.5 0.4-2.4-38-5.43-28.87-2.26-35.01-2.25-32.74 0 0.66 0.63 59.09 7.03 66.49 7.23 3.59 0.1 4.25-0.1 4.25-1.8zm335.91-12.55c2.84-5.35 2.04-6.75-2.91-5.12-3.29 1.09-3.52 1.45-3.81 6.03-0.17 2.68 0 5.61 0.31 6.5 0.54 1.34 0.86 1.34 2.31-0.62 0.93-1.23 2.77-4.29 4.1-6.79zm-336.12-1.57c0.35-1.84-6.57-2.37-46.04-3.52-16.83-0.49-22.75-0.36-22.75 0.48 0 0.63 1.01 1.19 2.25 1.24 1.24 0 15.75 0.89 32.25 1.88 34.4 2.06 33.88 2.06 34.29-0.1zm-195.98-13.62c0.26-3.69 0-4.27-2-4.74-3.45-0.81-29.74-5.63-34.12-6.26l-3.82-0.55 0.32 4.39 0.31 4.39 18 3.66c9.9 2.01 18.68 3.58 19.5 3.49 1.01-0.11 1.6-1.54 1.81-4.38zm391.98-3.02 0.3-7.25h-4.05-4.04v6.83c0 3.76 0.32 7.16 0.71 7.55 0.4 0.39 2.08 0.58 3.75 0.42l3.04-0.3 0.29-7.25zm-257.01-10.08 0.27-16.31-2.77 0.32-2.78 0.32-0.28 15.42c-0.28 15.88 0.1 17.46 3.78 16.82 1.25-0.22 1.55-3.01 1.78-16.57zm86.02-4.17c0.33-22.76-0.52-28.33-4.23-27.8-1.59 0.23-1.98 0.87-1.68 2.8 0.22 1.37 0.57 12.32 0.79 24.31l0.4 21.82 2.21-0.32c2.19-0.31 2.21-0.52 2.51-20.81zm-107.3 15.07c0-3.98-0.27-4.5-2.75-5.16-1.52-0.41-5.34-0.89-8.5-1.07l-5.75-0.34-0.31 3.82c-0.18 2.1 0.19 4.44 0.82 5.19 1.22 1.47 5.97 2.26 12.49 2.09l4-0.1v-4.43zm56.3 3.73c1.64-1.64 1.66-31.7 0-35.29-1.52-3.35-4.49-2.95-3.9 0.52 0.23 1.36 0.53 9.67 0.67 18.47 0.13 8.8 0.28 16.34 0.32 16.75 0.13 1.12 1.54 0.9 2.89-0.45zm15.59-0.38c0.34-0.87 0.61-8.99 0.61-18.05 0-12.81-0.34-17.13-1.53-19.42-1.67-3.23-2.67-3.62-4.29-1.67-0.68 0.82-0.73 1.82-0.14 2.75 0.51 0.81 0.94 9.68 0.94 19.72 0 17.23 0.13 18.25 1.91 18.25 1.04 0 2.17-0.71 2.5-1.58zm16.57-0.35c1.72-3.21 1.34-35.12-0.47-39.45-1.65-3.94-1.6-3.9-3.91-3.01-1.81 0.69-2.09 3.48-0.5 5.07 0.72 0.72 0.97 7.42 0.75 20.2-0.3 17.52-0.19 19.12 1.38 19.12 0.95 0 2.19-0.87 2.75-1.93zm518.35 0c0.44-0.41 0.67-3.18 0.5-6.15l-0.31-5.39-4 0.35c-2.2 0.19-4.56 0.81-5.25 1.37-1.33 1.09-1.75 9.95-0.53 11.16 0.83 0.84 8.39-0.22 9.59-1.34zm-573.75-1.43c0.33-1.32 0.45-8.28 0.27-15.47-0.25-9.95-0.69-13.43-1.83-14.57-2.44-2.43-4.31-0.52-2.96 3.01 0.64 1.69 1.04 8.18 0.94 15.42-0.22 14.99-0.32 14 1.5 14 0.82 0 1.75-1.08 2.08-2.39zm11.21-13.72c0.25-13.73 0.1-15.86-1.5-17.74-1.23-1.49-2.2-1.86-3.18-1.24-1.17 0.75-1.2 1.42-0.14 3.98 0.9 2.16 1.16 7.23 0.89 17.13-0.37 13.65-0.32 14.05 1.64 13.77 1.91-0.27 2.03-1.1 2.29-15.9zm279.03 9.41c0.37-6.41-1.9-9.3-7.3-9.3-5.1 0-7.5 2.83-7.5 8.83 0 2.66 0.32 5.16 0.71 5.54 0.39 0.39 3.65 0.58 7.25 0.42l6.54-0.29 0.3-5.2zm52.2 0.2c0-6.71-2.2-9.5-7.5-9.5-5.1 0-7.5 2.83-7.5 8.83 0 2.66 0.3 5.14 0.67 5.5 0.36 0.37 3.74 0.67 7.5 0.67h6.83v-5.5zm-409.2-0.75c0.27-4.15 0-4.86-2-5.7-3.08-1.28-19.6-3.29-20.83-2.53-1.13 0.7-1.29 8.44-0.2 10.13 0.75 1.18 14.34 3.24 19.73 2.99 2.85-0.13 3.02-0.38 3.3-4.89zm454 1.4c0.91-0.58 1.21-2.89 1-7.74l-0.3-6.91-3.5 0.34c-1.92 0.19-4.06 0.81-4.75 1.38-1.3 1.07-1.79 11.91-0.58 13.11 0.93 0.94 6.56 0.81 8.13-0.18zm205.6-3.58c1.43-2.43 2.6-4.71 2.6-5.06s-1.46-0.5-3.25-0.32c-3.12 0.3-3.26 0.51-3.55 5.06-0.17 2.61 0.12 4.75 0.65 4.75s2.13-1.99 3.55-4.43zm107.6-2.46 6.5-1.61 0.3-4.25c0.3-3.73 0.1-4.25-1.7-4.25-3.6 0-29.4 6.03-30.8 7.17-1.6 1.3-1.7 6.02-0.2 7.5 1 1.05 8.8-0.32 25.9-4.56zm-295.57 2.91c2.32-0.88 2.57-1.49 2.57-6.37 0-6.33-1.31-7.93-5.56-6.8-2.84 0.76-2.95 1.01-3.24 7.47-0.32 7.33 0.35 7.94 6.23 5.7zm-614.63-4.72c0.34-4.59 0-4.86-7.85-5.9l-5.08-0.67 0.32 4.33c0.31 4.32 0.34 4.35 5.31 5.52 2.75 0.64 5.45 1.08 6 0.97s1.14-2.03 1.3-4.25zm660.2-10.8v-15.5h-3-3v14.83c0 8.16 0.3 15.14 0.67 15.5 0.36 0.37 1.71 0.67 3 0.67h2.33v-15.5zm-146.73 13.9c0.5-0.5-7.09-13.48-18.05-30.84l-2.49-3.95-1.86 2.31c-4.9 6.05-11.98 19.17-11.37 21.08 1.11 3.51 2.9 2.19 7.43-5.5 2.44-4.13 4.91-7.5 5.51-7.5 0.59 0 3.95 4.84 7.46 10.75 3.52 5.91 7.07 11.54 7.9 12.5 1.49 1.73 4.3 2.32 5.47 1.15zm52.73 0c0-0.85-18.97-31.55-20.57-33.27-1.08-1.17-2.01-0.27-5.71 5.5-8.41 13.08-9.3 14.99-7.81 16.78 0.73 0.89 1.63 1.61 1.99 1.61s2.65-3.38 5.1-7.5c2.45-4.13 4.92-7.5 5.49-7.5s2.57 2.59 4.44 5.75c9.2 15.59 11.97 19.25 14.55 19.25 1.39 0 2.52-0.28 2.52-0.62zm64.42-0.99c1.2-0.46 1.58-2.05 1.58-6.56v-5.96l-3.25 0.32c-3.25 0.31-3.25 0.31-3.55 6.56-0.27 5.65-0.11 6.25 1.67 6.25 1.08 0 2.68-0.27 3.55-0.61zm121.08-6.39v-6.5l-8-0.65c-4.4-0.36-13.17-0.81-19.5-1l-11.5-0.35-0.31 4.39c-0.18 2.41 0.12 4.82 0.65 5.35 1.12 1.12 31.18 5.7 35.66 5.44l3-0.18v-6.5zm118.3-1.22-0.3-4.22-7.8-2.94c-8.6-3.22-9.7-2.92-8.9 2.42 0.5 3.46 0.9 3.75 8.2 6.59 8.5 3.29 9.2 3.14 8.8-1.85zm-86.65-4.38c0.47-0.28 0.85-2.97 0.85-5.96v-5.44h-3.57c-5.93 0-7.43 1.39-7.43 6.87 0 2.64 0.34 5.14 0.75 5.55 0.74 0.75 7.78 0 9.4-1.02zm157.65 0.46c6.9-1.69 7.3-2.23 7-9.77l-0.3-6.59-3.5 0.35c-4.7 0.47-7 1.83-7 4.22 0 1.09-0.8 2.28-1.8 2.64-2.4 0.9-3.2 2.3-3.2 5.87 0 4.86 0.9 5.2 8.8 3.28zm-877.99-5.05c0.37-4.44-0.87-5.3-9.12-6.33l-5.82-0.73 0.32 4.38 0.31 4.37 5.5 1.16c7.75 1.64 8.45 1.42 8.81-2.85zm744.49 1.53c1.5-0.42 1.75-1.42 1.5-6.17l-0.3-5.67-4 0.35c-2.2 0.19-4.56 0.81-5.25 1.37-1.32 1.08-1.75 9.95-0.55 11.15 0.65 0.64 4.17 0.22 8.6-1.03zm-648.51-9.06c0.33-10.58 0.81-10.09-10.29-10.54l-6-0.24-0.29 8.35c-0.18 5.11 0.14 8.87 0.83 9.69 1.1 1.34 6.63 2.25 12.46 2.06l3-0.1 0.29-9.22zm536.47 7.32c0.42-0.61 0.64-3.12 0.5-5.6l-0.26-4.5h-5-5l-0.31 4.87c-0.45 7.15 0 7.78 5.03 6.99 2.36-0.36 4.62-1.16 5.04-1.76zm-656.26-4.6c0-1.52-0.56-3.21-1.25-3.76-1.44-1.15-12.88-3.26-14-2.58-1.24 0.76-0.84 7.16 0.5 8.03 2.32 1.51 12.2 2.96 13.5 1.99 0.69-0.51 1.25-2.16 1.25-3.68zm792.43 3.02c2.29-0.86 2.57-1.52 2.57-6.03 0-5.83-1.04-6.65-6.74-5.31-3.56 0.84-3.78 1.12-4.07 5.22-0.18 2.38-0.1 4.95 0.22 5.71 0.61 1.62 4.36 1.81 8.02 0.41zm144.57-9.65v-7.63l-3.8 0.62c-6.1 1.02-11.2 2.67-11.2 3.66 0 1.23 12.1 10.9 13.7 10.95 0.9 0 1.3-2.14 1.3-7.6zm-852-1.3c0-8.95 0.45-8.49-9.25-9.63-4.08-0.47-5.75-0.33-5.75 0.49 0 1.73 12.3 16.95 13.75 17.01 0.9 0 1.25-2.16 1.25-7.87zm473.79 0.12 0.3-7.3-4.8 0.3-4.79 0.31-0.3 5.89c-0.42 8.15 0 8.79 5.04 8.42l4.26-0.31 0.29-7.31zm17.58 5.53c1.37-1.01 1.68-2.45 1.44-6.75l-0.31-5.47h-4-4l-0.31 5.38c-0.17 2.96-0.1 6 0.22 6.75 0.66 1.73 4.65 1.78 6.96 0.1zm15.51-1.31c0.73-0.65-2.06-6.27-3.97-7.99-1.86-1.68-1.91-1.59-1.91 3.26 0 2.74 0.3 5.29 0.68 5.66 0.6 0.61 4.21 0 5.2-0.93zm268.32-1.26 7.3-1.69 0.3-4.73c0.3-4.39 0.1-4.73-2-4.73-2.9 0-19.2 3.49-20.7 4.44-1.2 0.75-1.5 7.81-0.4 8.94 0.8 0.81 4.9 0.22 15.5-2.23zm-899.2-2.1c0-3.72-0.22-4.02-3.75-5-2.06-0.57-4.99-1.04-6.5-1.04-2.54 0-2.75 0.29-2.75 3.97 0 3.53 0.31 4.05 2.75 4.59 1.51 0.33 3.2 0.76 3.75 0.94s2.24 0.37 3.75 0.41c2.55 0.1 2.75-0.21 2.75-3.87zm433-4.61v-7.56l-7.5 0.62-0.3 5.89c-0.4 7.73 0 8.61 4.27 8.61h3.53v-7.56zm21.5 0.1v-7h-3.5-3.5l-0.3 5.89c-0.41 7.82 0.1 8.81 4.04 8.42l3.26-0.31v-7zm-215.74-3.15 48.26-9.65 0.8-3.1c0.79-3.07 0.88-3.1 7.99-3.39 6.84-0.28 7.19-0.41 7.19-2.69 0-1.32 0.45-2.68 1-3.02s1-2.22 1-4.19v-3.57l-4.25 0.67c-8.63 1.36-11.64 2.58-12.96 5.27-1.22 2.49-3.2 3.09-36.79 11.08-33.19 7.89-36.26 8.45-47.2 8.59-12.81 0.16-13.38 0.4-15.41 6.29-1.22 3.54-0.49 7.36 1.4 7.36 0.39 0 22.43-4.34 48.97-9.65zm496.8 8.29c7.74-0.71 14.6-1.62 15.25-2.02 1.81-1.12 1.53-9.55-0.35-10.27-1.49-0.58-36.22 3.39-37.71 4.31-0.41 0.25-0.75 2.46-0.75 4.9v4.44h4.75c2.61 0 11.08-0.62 18.81-1.33zm133.94-3.21v-3.91l-7.8-2.94c-8.8-3.33-10.4-2.9-9 2.51 0.8 3 1.7 3.65 7.9 6.07 3.8 1.49 7.4 2.59 7.9 2.44s1-2.03 1-4.17zm-894.5-1.89c0-4.12-1.48-5.14-8.83-6.11l-5.17-0.69v4.03c0 3.81 0.2 4.08 3.75 5.03 2.06 0.55 5.21 1.04 7 1.1 3.06 0.1 3.25-0.1 3.25-3.36zm807.42-1.15c1.17-0.45 1.58-2 1.58-5.94 0-2.93-0.39-5.57-0.86-5.86s-2.83-0.2-5.25 0.21l-4.39 0.75-0.3 5.72-0.3 5.73h3.97c2.18 0 4.68-0.27 5.55-0.61zm24.65-3.43c1.51-0.81 1.93-2.11 1.93-6.03 0-5.72-0.8-6.35-6.54-5.17-3.81 0.79-3.97 0.99-4.27 5.14-0.18 2.38-0.1 4.95 0.22 5.71 0.62 1.63 5.87 1.84 8.66 0.35zm136.33 0.1c2.6-0.95 2.6-1.15 2.6-11.03 0-11.15-0.3-11.73-6.1-10.24-3.2 0.81-3.4 1.18-3.9 5.81-0.4 4.11-0.8 4.94-2.5 4.94-1.6 0-2.1-0.83-2.5-4-0.5-3.75-0.7-3.98-3.5-3.7-1.7 0.17-4.7 0.76-6.8 1.31-3.5 0.92-3.8 1.25-3.5 4.19 0.3 2.88 0.6 3.17 3.2 2.89 3.4-0.37 4.6 1.05 4.6 5.56 0 3.67 1 3.94 7.5 2.14 3.6-1 4.1-0.91 5.3 1 1.6 2.4 2.1 2.49 5.6 1.13zm-1006.6-4.22c0.29-3.49 0.11-3.73-3.5-4.75-2.1-0.59-5.5-1.35-7.56-1.69l-3.75-0.62v4.11c0 3.67 0.3 4.18 2.75 4.73 1.51 0.35 4.1 1 5.75 1.44 4.91 1.34 5.97 0.8 6.31-3.22zm134.96-20.73c0.15-13.44-0.13-24.83-0.62-25.32-1.08-1.08-17.89 18.73-18.8 22.15-0.87 3.26 0.76 5.53 4.25 5.94 4.91 0.57 5.4 1.64 5.4 11.7 0 10.17 0.18 10.48 6 10.15l3.5-0.19 0.27-24.43zm580.23 16.93c0-5.4-0.33-7-1.43-7-2.67 0-5.57 5.01-5.57 9.63 0 4.33 0 4.37 3.5 4.37h3.5v-7zm16.46 1.31c0-3.62-0.6-5.81-1.9-7.25-3.46-3.82-4.56-2.66-4.56 4.77 0 3.76 0.32 7.16 0.71 7.55s1.86 0.58 3.25 0.42c2.36-0.28 2.54-0.67 2.5-5.49zm31.17 3c0.91-0.35 1.37-2.21 1.37-5.55v-5.02l-8.13 0.71c-4.47 0.39-8.74 0.95-9.5 1.24-0.91 0.35-1.37 2.21-1.37 5.55v5.02l8.13-0.71c4.47-0.39 8.74-0.95 9.5-1.24zm133.62 0c0.41-0.25 0.75-2.69 0.75-5.42 0-5.75-1.06-6.57-6.74-5.23-3.56 0.84-3.78 1.12-4.07 5.22-0.48 6.64 0.1 7.39 5.06 6.57 2.34-0.38 4.59-0.9 5-1.14zm-279.45 0c2.09-0.56 2.27-1.1 2-6.24-0.3-5.59-0.32-5.62-3.69-5.94-1.86-0.18-4.51 0-5.88 0.3-2.36 0.59-2.46 0.9-1.89 5.75 0.77 6.53 2.88 7.89 9.46 6.13zm20.69-1.36c2.42-0.92 2.59-1.37 2.31-6.25-0.28-4.95-0.46-5.27-3.17-5.58-1.58-0.18-3.94-0.1-5.25 0.27-2.13 0.54-2.38 1.15-2.38 5.91 0 2.93 0.3 5.62 0.67 5.98 0.97 0.98 4.81 0.82 7.82-0.33zm394.01-1.83 6-1.67 0.3-7.91c0.2-4.34-0.1-8.27-0.5-8.73-0.8-0.77-3.3-0.33-12.6 2.2l-3.7 1.02v7.79c0 4.29 0.3 8.1 0.7 8.46 0.9 0.97 3 0.72 9.8-1.16zm-1057-2.28c0.88-3.98-0.49-5.23-7.35-6.73-8.76-1.91-9.34-1.74-8.98 2.59 0.3 3.67 0.45 3.79 6.31 5.42 8.58 2.39 9.24 2.3 10.02-1.28zm127.48-4.28c0-8.31 0.23-8.06-8.34-9.13l-5.66-0.71v7.6c0 8.26-0.56 7.48 6.5 8.98 1.1 0.23 3.24 0.47 4.75 0.53l2.75 0.12v-7.39zm459.87 2.04c0.62-0.74 1.4-2.76 1.75-4.5l0.63-3.15h-5.13-5.12v3.83c0 2.11 0.3 4.14 0.67 4.5 1.17 1.18 6.05 0.72 7.2-0.68zm230.37-1.3c1.14-0.7 0.92-7.79-0.28-8.99-0.58-0.58-2.67-0.77-4.75-0.43-3.46 0.55-3.73 0.85-4.03 4.44-0.49 6 0.23 6.96 4.57 6.15 2.06-0.39 4.08-0.91 4.49-1.17zm-624.44-6.84c0.47-10.95 0.4-11.06-8.03-12.23-4-0.56-7.61-0.82-8.02-0.59-0.41 0.24-0.75 4.24-0.75 8.9 0 9.49-0.28 9.14 8.26 10.41 8.35 1.23 8.2 1.34 8.54-6.49zm295.2-0.51v-8h-6c-3.43 0-6 0.44-6 1.02 0 0.57 1.58 4.17 3.51 8 2.93 5.83 3.93 6.98 6 6.98 2.45 0 2.49-0.14 2.49-8zm469.5 3.43v-3.91l-7.8-2.94c-8.8-3.34-10.4-2.9-9 2.53 0.8 3.04 1.6 3.66 7.9 6.03 3.8 1.45 7.4 2.54 7.9 2.42 0.5-0.13 1-1.99 1-4.13zm-860.26-4.43c-0.4-9.97-3-20.56-5.9-24.01-6.92-8.23-13.45 1.25-13.73 19.92l-0.11 7.59 8 1.66c12.14 2.52 12.05 2.56 11.74-5.16zm992.06-2.49c3.7-4.67 6.7-8.72 6.7-9 0-0.99-4.7-0.49-9.8 1.03l-5.2 1.54v7.46c0 4.1 0.4 7.46 0.8 7.46 0.5 0 3.9-3.82 7.5-8.49zm-665.09 3.79c5.06-4.95 4.91-6.3-0.71-6.3h-4.5v5c0 2.75 0.32 5 0.71 5s2.41-1.67 4.5-3.7zm445.22 0.72c2.29-0.86 2.57-1.52 2.57-6.03 0-5.79-0.78-6.42-6.54-5.23-3.81 0.79-3.97 0.99-4.27 5.14-0.18 2.38-0.1 4.95 0.22 5.71 0.61 1.62 4.36 1.81 8.02 0.41zm-160.63-7.51c0.31-7.17-0.44-8.68-3.91-7.77-2.15 0.56-2.37 2.88-0.83 8.76 1.64 6.26 1.86 6.69 3.19 6.25 0.8-0.26 1.36-2.89 1.55-7.24zm-662.3 3.69c0-1.51-1.63-3.17-5.5-5.61-3.03-1.91-5.87-3.11-6.32-2.67-0.45 0.45-0.67 2.56-0.5 4.7 0.31 3.76 0.47 3.91 5.32 5.03 6.17 1.42 7 1.24 7-1.45zm282.3 1.6c1.43-1.43 1.69-37.47 0.29-39.7-0.49-0.76-1.61-1.11-2.49-0.78-1.39 0.54-1.6 3.19-1.6 20.48 0 21.42 0.38 23.42 3.8 20zm396.86-6.28c2.34-3.76 4.03-7.22 3.74-7.68-0.7-1.14-5.69-1.06-8.83 0.14-2.39 0.9-2.57 1.42-2.57 7.33 0 10.08 1.5 10.12 7.66 0.21zm116.24 6.1c0.79-0.96 1.06-7.18 0.87-20.25l-0.27-18.87h-4-4l-0.54 40.5h3.4c1.87 0 3.91-0.62 4.54-1.38zm-600.9-13.56c0-7.67-0.34-14.14-0.75-14.38s-4.24-0.75-8.5-1.14l-7.75-0.71v6.41 6.41l3.75 0.92 3.75 0.93 0.27 6.5c0.37 8.73 0.53 9 5.2 9h4.03v-13.94zm70.82 9.56c0.17-2.14-0.1-4.24-0.5-4.68-1.07-1.04-45.01-5.25-46.32-4.44-1.15 0.71-1.38 9.46-0.25 9.58 27.15 2.86 36.77 3.69 41.25 3.57l5.5-0.15 0.32-3.88zm582.61 3.4c2.29-0.86 2.57-1.52 2.57-6.03 0-5.79-0.78-6.42-6.54-5.23-3.81 0.79-3.97 0.99-4.27 5.14-0.18 2.38-0.1 4.95 0.22 5.71 0.61 1.62 4.36 1.81 8.02 0.41zm26.82-3.69c0.41-0.25 0.75-2.69 0.75-5.42 0-5.75-1.06-6.57-6.74-5.23-3.56 0.84-3.78 1.12-4.07 5.22-0.48 6.64 0.1 7.39 5.06 6.57 2.34-0.38 4.59-0.9 5-1.14zm-567.95-1.26c0.45-0.43 0.67-3.43 0.5-6.67l-0.3-5.9-3.86 0.12c-2.13 0.1-4.26 0.75-4.74 1.5-1.06 1.68-1.19 11.26-0.17 12.28 0.85 0.84 7.37-0.17 8.57-1.33zm321.35-3.57c2.02-8.72 1.84-9.5-2.15-9.5h-3.5v7.57c0 7.27 0.1 7.56 2.25 7.25 1.79-0.26 2.48-1.33 3.4-5.32zm76.13-10.26c0.22-12.13 0-15.24-1.05-15.24-3.17 0-3.73 2.39-3.73 16.03 0 7.5 0.32 13.95 0.7 14.34 0.39 0.38 1.4 0.57 2.25 0.4 1.3-0.25 1.59-2.71 1.83-15.53zm-727.98 7.88c-0.3-4.56-0.35-4.62-4.05-4.93l-3.75-0.31v4.99c0 4.7 0.16 5.02 2.75 5.34 4.71 0.6 5.38-0.1 5.05-5.09zm775.95 5.25c1.24-0.33 2.25-1.2 2.25-1.93 0-1.81-3.99-8.44-5.08-8.44s-4.92 7.36-4.92 9.46c0 1.62 3.53 2.04 7.75 0.91zm-790.95-5.59c0.28-4.33 0.1-4.77-2.24-5.36-4.27-1.07-5.56 0.1-5.56 4.88 0 5.24 0.52 5.88 4.46 5.5 2.86-0.28 3.06-0.57 3.34-5.02zm-14.8-0.78v-5h-4-4v4.33c0 5.21 0.38 5.67 4.67 5.67 3.33 0 3.33 0 3.33-5zm527.79-4.19c0.26-7.86 0.1-8.8-1.73-9.78-1.62-0.86-2.41-0.68-4.04 0.95s-2.02 3.33-2.02 8.82c0 7.5 1.08 9.45 4.99 8.99 2.44-0.28 2.52-0.54 2.8-8.98zm22 0.85c0.19-4.93-0.14-8.37-0.87-9.25-1.57-1.9-5.56-1.79-6.31 0.17-0.85 2.21-0.76 15.93 0.1 16.8 0.4 0.39 2.08 0.58 3.75 0.42l3.04-0.3 0.29-7.84zm49.01 7.08c0.58-0.7 1.2-2.61 1.37-4.25l0.33-2.99h-12.5-12.5l-0.31 4.25-0.3 4.25h11.43c7.99 0 11.75-0.38 12.48-1.26zm-162.8-12.74v-6h-5c-3.28 0-5.03 0.43-5.1 1.25-0.2 2.58 0.31 9.27 0.75 10 0.26 0.41 2.47 0.75 4.91 0.75h4.44v-6zm-22-1.05v-6.05l-10.5 0.6-0.31 4.32c-0.4 5.62 1 7.18 6.43 7.18h4.38v-6.05zm-22-1v-6.05l-10.5 0.6-0.31 4.32c-0.4 5.62 1 7.18 6.43 7.18h4.38v-6.05zm-424.5-1.96v-5.48l-4-1.31c-2.2-0.72-5.57-1.4-7.5-1.51-3.29-0.18-3.52 0-3.82 3.2-0.62 6.45 0.29 7.75 6.56 9.41 8.45 2.24 8.76 2.08 8.76-4.31zm501.5-4.37c0-9.43-0.18-10.43-1.94-10.89-1.47-0.39-2.01-1.55-2.25-4.87-0.26-3.65-0.68-4.41-2.56-4.68-2.25-0.32-2.25-0.3-2.25 14.58 0 8.2 0.3 15.21 0.67 15.57 0.36 0.37 2.39 0.67 4.5 0.67h3.83v-10.38zm25.78-2.37-0.28-12.75h-5-5l-0.3 4.17c-0.23 3.12-0.92 4.57-2.75 5.77-2.17 1.42-2.45 2.33-2.45 7.92 0 3.47 0.3 6.61 0.67 6.97 0.36 0.37 3.98 0.67 8.03 0.67h7.36l-0.28-12.75zm562.02 8.5c0.4-4.16 0.4-4.15-3.2-2.77-2 0.75-2.6 1.66-2.6 4.06 0 2.78 0.3 3.06 2.7 2.78s2.8-0.81 3.1-4.07zm-15-0.3c1.4-2.97 1.6-14.83 0.3-14.02-0.5 0.3-2.1 3.53-3.5 7.16-2.1 5.14-2.4 6.93-1.5 8.01 1.7 2.11 3.4 1.69 4.7-1.15zm-722.99-5.21c0.2-2.84-0.13-4.41-1-4.72-2.35-0.82-45.07-4.48-45.95-3.93-1.06 0.65-1.15 9.38-0.11 9.48 0.41 0 8.85 0.9 18.75 1.9s20.25 1.75 23 1.67l5-0.14 0.31-4.26zm283.92 3.51c1.06-1.35 3.27-9.62 3.27-12.22 0-1.39-1.89-1.55-15.25-1.31l-15.25 0.28v3.5 3.5l10.5 0.15c5.77 0.1 11.06 0.19 11.75 0.25 0.69 0.1 1.25 1.37 1.25 2.93 0 4.07 1.76 5.45 3.73 2.92zm465.77-3.37c1.6-2.47 1.6-2.82-0.1-6.54-2.7-6.03-3.4-5.59-3.4 2.1 0 3.88 0.4 7.06 0.9 7.06s1.6-1.18 2.6-2.62zm-1039-4.88v-5l-7.5-0.62v4.98c0 5.28 0.76 6.16 5 5.83 2.31-0.18 2.5-0.57 2.5-5.19zm-14.5-0.38c0-4.65-0.14-4.9-3.1-5.49-4.31-0.86-4.9-0.21-4.9 5.43v4.94h4 4v-4.88zm344.5-1.56c8.36-7.64 8.07-8.8-2.1-8.36l-6.9 0.3-0.29 7.25c-0.22 5.43 0 7.24 1 7.22 0.71 0 4.44-2.9 8.29-6.41zm-359.5 0.44v-5h-4-4v5 5h4 4v-5zm1057-2.2c0-3.42-1.3-2.92-2.5 0.95-0.5 1.67-0.2 2.25 0.9 2.25s1.6-0.96 1.6-3.2zm-621.2-8.1 0.3-5.81-5.3 0.31-5.3 0.3 0.35 5c0.2 2.75 0.58 5.36 0.84 5.8 0.27 0.44 2.36 0.67 4.65 0.5l4.16-0.3 0.3-5.8zm-21.8-0.75v-6.05l-10.5 0.6-0.31 4.32c-0.4 5.62 1 7.18 6.43 7.18h4.38v-6.05zm-22-1v-6.05l-10.5 0.6-0.31 4.32c-0.4 5.62 1 7.18 6.43 7.18h4.38v-6.05zm151.8 0.35c6.55-4.89 8.55-11.47 5.74-18.84-2.35-6.14-7.28-9.46-14.02-9.46-9.08 0-15.51 6.23-15.52 15.02 0 6.19 2.79 10.93 8.11 13.78 5.18 2.78 11.58 2.57 15.69-0.5zm-14.55-14.4c-2.89-1.69-5.25-3.4-5.25-3.82 0-1.94 1.64-1.79 6.28 0.56l5.03 2.55 3.77-2.12c3.6-2.02 5.93-1.52 4.41 0.94-0.53 0.87-7.84 5.03-8.7 4.97-0.16 0-2.65-1.4-5.54-3.08zm524.75 10.07c1.4-3.34 0.9-4.53-1.5-3.62-1.6 0.62-2.2 6.65-0.6 6.65 0.5 0 1.4-1.36 2.1-3.03zm-1024.5-5.47v-5l-7.5-0.62v4.89c0 5.8 0.46 6.42 4.46 6.03 2.94-0.29 3.04-0.46 3.04-5.3zm-14.5-0.5v-5h-4-4v5 5h4 4v-5zm-15.19-0.75c-0.31-4.7-0.35-4.75-4.06-5.06l-3.75-0.31v5.06 5.06h4.06 4.05l-0.3-4.75zm313.69-1.72c0-3.92-0.1-3.99-4.42-4.73-5.26-0.9-7.08 0.22-7.08 4.35 0 3.41 2.59 4.89 8 4.56 3.38-0.2 3.5-0.35 3.5-4.18zm47.5-2.64v-5.89h-5.55-5.55l0.6 11.5 4 0.54c6.09 0.82 6.5 0.43 6.5-6.15zm-72.5 0.64c0-3.88-0.1-3.99-4.33-4.82-6.1-1.21-7.36-0.49-6.98 3.99 0.34 4.07 2.42 5.31 8.31 4.97 2.8-0.16 3-0.43 3-4.14zm768.3-4.35c0.3-3.12 0.2-3.31-2.5-3-2.4 0.27-2.8 0.83-3.1 3.64-0.3 3.12-0.2 3.31 2.5 3 2.4-0.27 2.8-0.83 3.1-3.64zm-744.8-19.66c0-4.95-0.23-5.54-2.4-6.08-1.32-0.33-3.45-0.46-4.75-0.27-2 0.28-2.4 0.98-2.66 4.69-0.46 6.39 0.1 7.14 5.28 7.14h4.53v-5.48zm240.49-15.51c0.84-1.35-15.51-36.01-16.99-36.01-0.65 0-1.76 1.24-2.46 2.75-3.45 7.37-3.8 8.78-2.85 11.25l0.95 2.5 1.84-2.25c1.01-1.24 2.26-2.25 2.77-2.25s3.1 4.84 5.77 10.75c2.66 5.91 5.51 11.54 6.32 12.5 1.63 1.94 3.71 2.28 4.65 0.76zm-29.71-65.35c0.33-13.59-0.51-14.53-5.03-5.69-2.04 4-2.75 6.85-2.75 11.04 0 3.11 0.32 5.98 0.71 6.37 0.4 0.39 2.08 0.58 3.75 0.42l3.04-0.3 0.28-11.84zm12.22-25.16c0-2.11-0.47-2.5-3-2.5-2.24 0-3 0.46-3 1.83 0 2.43 0.85 3.17 3.67 3.17 1.82 0 2.33-0.55 2.33-2.5zm-1.33-7.08c0.9-2.36-1.73-4.36-4.92-3.73-2.87 0.57-3.88 3.69-1.5 4.65 2.62 1.06 5.84 0.6 6.42-0.92zm0.58-10.48c2-3.94 2.39-10.32 0.58-9.72-1.12 0.38-4.74 9.89-4.8 12.61 0 2.35 2.41 0.66 4.22-2.89zm-111.25 433.99c-21.4-1.5-50.5-4.1-51.25-4.6-1.22-0.7-0.9-17.1 0.34-17.5 0.61-0.2 7.92 0.2 16.25 0.9 8.34 0.7 17.37 1.2 20.07 1l4.91-0.2 2.54-7c2.25-6.3 2.59-9.1 3.08-25.5l0.56-18.5 3.86 0.1c2.13 0.1 4.26 0.7 4.74 1.5 0.48 0.7 0.88 9.4 0.88 19.3 0 17.9 0 18 4.17 33.1 3.76 13.8 4.33 18.7 2.13 18.3-0.43-0.1-5.96-0.5-12.28-0.9zm-20.5-44.6c-2.93-0.8-3.47-2.2-3.47-8.8 0-7.7 0.7-8.8 5.57-8.4l3.9 0.4v8.5c0 9.1-0.43 9.7-6 8.3zm35.21 0.1c-0.39-0.4-0.71-3.6-0.71-7.1v-6.4l11.5 0.6v6.5 6.5l-5.04 0.3c-2.77 0.1-5.36 0-5.75-0.4zm-56.67-3.4c-0.57-1-1.04-4.6-1.04-7.8 0-7.2 1.34-8.8 6.49-7.8l3.51 0.7v8.4 8.5h-3.96c-2.9 0-4.25-0.5-5-2zm75.63-11.7c-1.08-1.1-0.77-8.1 0.39-8.9 1.83-1.1 5.78 0.5 6.46 2.6 0.36 1.2 0.39 3.2 0.1 4.5-0.46 1.9-1.28 2.5-3.42 2.5-1.55 0-3.12-0.3-3.48-0.7zm366.9-54.3-4.93-10.2 2.43-1.9c1.34-1 4.1-2.6 6.14-3.5 3.59-1.6 3.96-1.6 12.5 1 4.83 1.6 12.31 4.4 16.61 6.3 6.67 3.1 8.39 4.4 11.75 9.1 2.16 3 3.93 6.1 3.93 6.8 0 1.1-2.29 1.4-9.84 1.4-5.42 0-15.2 0.2-21.75 0.6l-11.91 0.6-4.93-10.2zm88.83 1.6c-0.3-0.8-0.4-2.9-0.22-4.8 0.29-3 0.78-3.5 5.32-5 6.59-2.2 7.25-2.2 8 0.2 1.11 3.5-0.5 5.9-5.54 8.5-5.63 2.8-6.81 3-7.56 1.1zm-158.81-8.7c-3.96-4.7-4.01-4.7 7.66-7.5 1.82-0.4 2.75-0.2 2.75 0.5 0 1.6-5.87 10.1-6.96 10.1-0.47 0-2.03-1.4-3.45-3.1zm177.6-2.2c0.26-2.7 0.77-3.3 3.06-3.5 1.73-0.2 2.79 0.1 2.87 1 0.35 3.9-1.05 5.7-4.43 5.8-1.45 0-1.75-0.7-1.5-3.3zm-207.75-5.3c7.23-6.67 9.77-7.51 13.12-4.4 3.68 3.5 3.03 4.8-3.31 6.5-3.16 0.9-7.05 2-8.65 2.5-7.04 2.3-7.34 1.1-1.16-4.6zm219.96 2.1c-0.8-2 1.3-4.5 3.7-4.5 2.5 0 2.5 3.6 0 4.9-2.6 1.4-3.1 1.4-3.7-0.4zm-132.27-5.6c-1.3-1.67-2.16-3.22-1.91-3.47 0.92-0.92 11.78 1.87 11.78 3.07s-4.2 3.5-6.3 3.4c-0.66 0-2.27-1.4-3.57-3zm-69.1-1.54c-1.75-2-2.81-4-2.34-4.47 0.97-0.97 14.38-3.92 17.63-3.88 2.88 0 9.52 5.53 8.18 6.77-0.91 0.84-17.15 5.22-19.36 5.22-0.51 0-2.36-1.7-4.11-3.64zm102.73 1.74c-5.45-1.87-6.21-3.24-2.57-4.52 2.08-0.73 3.23-0.38 6.18 1.87 6.05 4.65 4.68 5.65-3.61 2.65zm-19.26-5.64c-0.55-0.19-4.49-1.1-8.75-2.02-4.26-0.91-7.75-2.06-7.75-2.55 0-1.31 11.58-6.91 14.22-6.88 2.62 0 13.99 5.94 14.49 7.53 0.69 2.22-8.6 5.21-12.21 3.92zm-56.33-2.8c-2.73-2.91-2-3.68 3.5-3.68 4.92 0 5.31 0.73 2.02 3.83-2.87 2.68-2.86 2.68-5.52-0.15zm-9.17-8.64c0-2.64 11.87-4.84 16.5-3.06 4.23 1.64 1.91 2.61-8.25 3.46-5.73 0.49-8.25 0.36-8.25-0.4z"/>
<path d="m-331.56 1134.9c-11.55-0.3-21.56-0.9-22.25-1.4-0.84-0.5-1.25-3.5-1.25-9.2 0-8.1-0.1-8.4-2.53-9l-2.52-0.7 0.27-13.6 0.28-13.6 5.63 0.3c8.48 0.4 8.87-0.3 8.87-15.8 0-9-0.37-13.1-1.25-13.8-0.69-0.6-6.65-1.3-13.25-1.6-56.74-3-70.43-3.7-73.25-4.2l-3.25-0.5v-23.7c0-13.1-0.34-24.2-0.75-24.9-0.96-1.4-7.38-2.5-8.96-1.5-0.91 0.5-1.3 7.1-1.5 24.7l-0.27 24-6.47 0.3c-3.62 0.1-6.81 0.8-7.24 1.5-1.34 2.1-0.84 8.5 0.78 10.1 0.94 0.9 3.29 1.6 5.81 1.6 6.63 0 7.78 1.4 7.42 9l-0.3 6.5-10-0.5c-5.5-0.3-12.93-0.5-16.5-0.5h-6.5l-0.28 11.8c-0.18 7.3 0.12 12.4 0.77 13.2 0.59 0.7 4.53 1.6 8.79 1.9 4.24 0.4 9.18 0.9 10.97 1.3l3.25 0.5v9.5 9.5l-5.75-5.2c-14.28-12.8-28.6-24.9-38.5-32.4-5.91-4.4-10.75-8.5-10.75-9s1.87-2.9 4.16-5.4c3.8-4.1 4.01-4.6 2.42-5.8-2.47-1.8-18.43-3-20.74-1.5-2.72 1.7-3.29 1.5-10.85-3.6l-6.99-4.6v-6.9c0-4.9-0.39-7-1.37-7.4-0.76-0.3-4.21 0.6-7.68 2-3.46 1.4-6.67 2.6-7.13 2.6s-4.88-2.3-9.83-5.1l-8.99-5.1v-5.4c0-2.9-0.48-5.6-1.08-6-0.59-0.3-4.69-0.1-9.11 0.7l-8.04 1.3-11.63-6-11.64-5.9-0.5-33.44-0.5-33.43-3-0.81c-1.65-0.44-5.93-0.93-9.5-1.07l-6.5-0.26-0.26 29.81-0.27 29.8-2.18-0.7c-6.17-1.9-14.89-6.6-15.38-8.13-1.32-4.25-2.26-4.7-15.48-7.37-8.07-1.63-17.22-4.27-22.93-6.63l-9.5-3.92-0.27-17.71c-0.28-17.71-0.28-17.71-2.72-18.83-1.87-0.85-2.82-0.81-3.98 0.16-1.26 1.04-1.53 4.11-1.53 17.14 0 8.74-0.34 15.89-0.75 15.89s-7.85-2.54-16.54-5.66c-10.9-3.92-15.46-6-14.75-6.71 1.37-1.37 1.34-9.34 0-10.19-0.59-0.36-3.8-1.3-7.12-2.07-7.18-1.68-8.8-0.88-8.8 4.35 0 3.3-0.15 3.45-2.74 2.8-1.51-0.38-3.08-1.22-3.48-1.86-0.41-0.64-0.76-8.72-0.76-17.94v-16.78l-2.62-1c-4.91-1.86-5.38-0.35-5.38 17.28v15.99l-2.75-0.69c-3.4-0.86-3.05-0.42-4.01-5.09l-0.81-3.94-18.96-4.71c-21.22-5.27-22.98-5.49-24.31-3.11-0.85 1.52-1.29 1.54-4.8 0.21l-3.86-1.47-0.28-13.24c-0.32-15.43 1.16-13.68-15.07-17.7-12.81-3.18-13.15-3-13.15 7.02 0 8.32 0.54 9.08 7.72 10.9 4.53 1.16 4.8 1.41 5.09 4.91 0.17 2.03 0 3.69-0.39 3.69-0.38 0-5.25-1.41-10.81-3.12-5.56-1.72-11.12-3.13-12.36-3.13h-2.25v-41c0-34.51 0.22-40.82 1.36-39.86 3.12 2.58 41.23 22.14 42.62 21.88 1.29-0.25 1.56-3.34 1.79-20.16l0.27-19.86 6.73 0.6c3.7 0.33 15.61 0.9 26.46 1.26l19.74 0.67 0.26 25.11 0.27 25.11 9.25 6.31c5.1 3.46 9.71 6.03 10.25 5.69 0.55-0.34 1.01-1.83 1.02-3.31 0-3.78 0.87-4.69 5.98-6.37l4.5-1.48 0.3-6.64 0.29-6.65 4.21-1.19c2.31-0.65 4.75-1.68 5.41-2.27 0.67-0.6 4.39-16.84 8.28-36.09 7.18-35.62 8.34-40.28 9.33-37.5 0.29 0.83 3.08 18.36 6.18 38.97 3.11 20.6 5.87 37.81 6.13 38.24 0.26 0.42 2.48 1.94 4.92 3.37l4.45 2.61v6.16c0 8.54 0.53 9.09 7.63 8.27 12.16-1.42 12.02-1.33 26.29-18.13 7.24-8.52 13.35-15.49 13.58-15.49s4.57 5.51 9.64 12.25c5.08 6.74 9.88 12.74 10.68 13.34 2.3 1.74 18.05 6.6 19.16 5.91 0.58-0.36 1-5.92 1-13.36v-12.75l12.25-8.59c6.74-4.73 12.48-8.38 12.75-8.12 0.27 0.27 0.73 3.48 1 7.14l0.5 6.65 4 0.66c5.46 0.9 6.5-0.26 6.5-7.25 0-3.24 0.42-5.88 0.93-5.88s4.64 1.37 9.18 3.04c4.53 1.67 8.84 2.81 9.57 2.53 0.89-0.34 1.32-2.44 1.32-6.47 0-6.99-0.23-6.7 12.3-15.43 5.12-3.57 9.92-7.23 10.66-8.12 0.74-0.9 1.71-3.9 2.15-6.68 1.88-11.89 7.69-18.37 16.47-18.37 6.74 0 11.68 3.68 15.28 11.39 2.4 5.15 2.66 6.99 3.13 22.28 0.28 9.17 0.83 16.99 1.23 17.38 0.39 0.39 3.31 0.77 6.5 0.83l5.78 0.12 1-16 9.5-3.16c11.36-3.78 13.02-3.9 19.5-1.44 4.68 1.77 5.04 2.16 5.56 5.98 0.32 2.24 0.86 4.37 1.22 4.73 0.63 0.63 19.08 1.69 55.22 3.16l18 0.73 0.31 3.2c0.33 3.39 2.98 5.12 5.51 3.61 0.75-0.45 4.16-4.07 7.57-8.06s6.75-7.22 7.41-7.19c0.66 0 3.46 3.29 6.21 7.25 6.21 8.9 7.88 9.22 8.29 1.6l0.29-5.6 5.71-0.9 5.7-0.91 0.5-22.1c0.34-15.07 0.88-22.56 1.7-23.54 0.66-0.8 1.34-4.8 1.5-8.9 0.32-8.01 1.41-9.19 3.75-4.07 0.87 1.92 2.06 3.06 3 2.89 2.28-0.44 2.83-14.54 0.59-15.4-2.05-0.79-1.95-4.35 0.2-7.41 1.16-1.64 1.95-5.31 2.35-10.97 0.73-10.16 2.94-15.1 9.09-20.29 8.84-7.46 8.98-7.63 8.24-9.98-0.39-1.23-1.54-2.82-2.56-3.54-2.46-1.72-2.36-4.79 0.22-6.95 2.88-2.41 6.02-8.72 7.54-15.17 1.13-4.76 1.08-5.77-0.38-8.24-1.3-2.2-1.4-3.07-0.45-4.02 0.67-0.67 1.21-2.16 1.21-3.31s0.41-2.53 0.91-3.05c1.05-1.09 1.44-5.47 1.24-13.63-0.13-4.82-0.47-5.79-2.24-6.35-1.61-0.51-1.93-1.16-1.39-2.82 0.39-1.18 0.83-3.39 0.97-4.9 0.39-4.09 0.39-4.09 2-2.76 0.86 0.72 2.55 0.96 4.05 0.59 2.34-0.59 2.47-0.46 1.47 1.39-0.79 1.49-0.75 3.65 0.15 8.04 1.19 5.76 0.6 12.98-1.69 20.62-0.47 1.56 0.11 2.83 2.14 4.71 2.63 2.44 2.69 2.67 1.08 4.45-0.93 1.03-1.69 3.05-1.69 4.5 0 4.32 3.77 13.08 7.51 17.45 4.15 4.85 4.28 6.11 0.99 9.67-3.2 3.45-3.17 6.03 0.1 8.29 10.76 7.44 14.29 13.31 15.06 25.02 0.34 5.14 1.25 9.24 2.68 12.07l2.16 4.3-2.3 1.75c-2.07 1.57-2.27 2.43-2 8.7 0.26 6.11 0.54 6.96 2.24 6.96 1.35 0 2.19-1 2.79-3.32 1.46-5.64 3.24-3.21 3.57 4.87 0.18 4.51 0.84 8 1.68 8.93 1.1 1.21 1.35 6.02 1.2 23.6l-0.18 22.08 6.5 10.71c4.38 7.2 7.23 10.89 8.73 11.27 1.23 0.31 6.1 0.41 10.83 0.21 6.5-0.26 8.89-0.75 9.79-1.98 0.66-0.89 2.73-7.98 4.62-15.75 1.89-7.76 3.75-14.12 4.15-14.12 0.86 0 1.09 1.04 8.98 40.5 3.41 17.05 6.75 31.6 7.43 32.34 0.99 1.09 2.56-0.25 8.45-7.25 7.09-8.42 7.32-8.59 11.69-8.59 7.29 0 8.33-1.05 8.33-8.42 0-6.99 0.56-7.54 7.75-7.57 3.04 0 3.25 0.22 3.25 3.41 0 5.79 0.72 6.58 5.98 6.58 2.63 0 5.25-0.57 5.82-1.26 0.86-1.04 4.55-14.6 7.61-27.99 0.35-1.51 0.99-2.75 1.43-2.75s2.28 6.24 4.09 13.87 3.66 14.47 4.11 15.19c0.67 1.09 3.94 1.09 18.63 0l17.82-1.27 2.69 3.22c3.51 4.2 5.82 3.45 5.82-1.9 0-3.71 0.34-4.14 6.32-8.03 3.48-2.27 6.63-4.12 7-4.12s0.7 2.81 0.72 6.25c0 3.44 0.58 7.22 1.25 8.42 0.66 1.19 5.16 6.7 9.98 12.25 7.36 8.46 9.24 10.08 11.68 10.08 3.39 0 4.49-1.38 11.49-14.35 3.21-5.95 5.1-8.51 5.78-7.83 0.55 0.55 3.32 4.54 6.14 8.84l5.14 7.84 5.92-0.21c3.26-0.11 6.52-0.44 7.25-0.72 1.03-0.39 1.33-4.21 1.33-17.02 0-19.12-1.87-16.72 14.5-18.56 5.5-0.62 11.69-1.38 13.75-1.68l3.75-0.57v13.66c0 11.55 0.25 13.76 1.59 14.27 2.21 0.85 20.22-2.27 22.1-3.82 1.28-1.07 1.42-2.88 0.86-10.82-0.37-5.25-0.37-10.35 0-11.33 0.57-1.48 9.07-6.7 10.91-6.7 0.29 0 0.53 5.79 0.53 12.88 0 9.67 0.34 13.16 1.37 14.01 1.03 0.86 6.52 0.33 22.52-2.19 11.64-1.83 21.41-3.11 21.61-2.84 0.3 0.26 0.5 4.15 0.5 8.65 0 6.54 0.4 8.5 1.8 9.78 2 1.87 10.8 4.41 11.8 3.43 0.4-0.38 2.9-15.61 5.5-33.86 2.7-18.25 5.1-33.34 5.3-33.55 0.5-0.56 1 2.37 5.7 35.45 2.4 16.64 4.6 30.78 5 31.43 0.6 0.9 1.7 0.9 4.7 0 5.1-1.52 13.4-1.51 18.5 0 3.8 1.15 4.1 1.09 6.3-1.75 1.3-1.62 3.6-5.29 5.1-8.14 1.5-2.86 3.8-5.66 5-6.22 2.1-0.98 2.3-1.63 2.5-14.56 0.4-17.46 2.2-18.18 2.6-1.02l0.3 12.52 4.3 4.48c2.3 2.47 4.5 4.49 4.8 4.49s3.2-6.41 6.4-14.25c5.5-13.5 5.9-14.8 6.4-24.74 0.4-9.12 0.7-10.53 2.3-10.84 1-0.19 2.4 0.43 3.1 1.37 1.1 1.5 1.7 1.57 4.9 0.51 2.1-0.66 3.7-1.83 3.7-2.59 0-1.57 3.4-3.72 4.4-2.76 0.3 0.35 0.6 5.22 0.6 10.82v10.19l5.4 11.9c3 6.54 6 11.99 6.7 12.11 0.8 0.13 3.9-1.25 6.9-3.07l5.5-3.29 0.3-18.86c0.3-19.6 0-20.92-4-20.97-1.8 0-2.5-1.37-4.8-9.53-1.5-5.23-2.6-9.81-2.4-10.18 0.7-1.22 11.6-3.98 12.4-3.14 0.4 0.45 2 4.57 3.5 9.14l2.7 8.32-2.1 2.25c-2 2.11-2.1 3.3-2.1 21.22 0 13.44 0.4 19.34 1.2 20.19 0.7 0.66 3.4 1.2 6.2 1.2 6.5 0 12.5 2.98 17 8.47l3.6 4.37v33.41 33.41l-4.8 1.14c-2.6 0.64-5.7 1.44-7 1.79-2.1 0.61-2.2 0.38-2.2-5.22 0-8.59-0.6-9.07-8.2-7.51-10.1 2.05-10.8 2.85-10.8 11.58v7.4l-6.3 2.02c-3.4 1.11-15 4.81-25.7 8.21-23.4 7.41-55.4 18.76-77.8 27.53-9 3.52-16.6 6.4-16.8 6.4-0.3 0 0-0.87 0.6-1.93 1.6-3.02 1.2-6.82-0.9-8.81-1.5-1.36-2.1-3.42-2.3-8.28-0.3-5.71-0.6-6.52-2.4-6.78-3-0.43-5.7 4.18-6.4 10.71l-0.5 5.41-9.9 2.8c-5.44 1.55-10.24 2.6-10.65 2.35-0.42-0.26-4.48-5.64-9.04-11.97-5.03-7-8.95-11.5-9.99-11.5-1.17 0-4.5 4.81-10.32 14.89l-8.6 14.87v8.2c0 5.6 0.39 8.2 1.27 8.6 0.7 0.3 3.51-0.2 6.23-1 2.73-0.8 5.33-1.1 5.79-0.7 0.46 0.5 0.7 2.8 0.52 5.2-0.28 3.9-0.72 4.7-3.99 6.4-3.48 1.9-3.78 1.9-5.58 0.3-1.04-1-3.47-1.8-5.39-1.8-3.21 0-3.89-0.5-8.39-7.1-9.79-14.4-25.15-28.6-39.52-36.67-7.98-4.48-24.94-9.82-35.7-11.25-13.36-1.77-32.28-0.74-44.53 2.43-20.33 5.26-39.55 16.2-56.46 32.09-10.04 9.5-11.33 12.2-6 12.7 3.09 0.3 3.26 0.6 3.53 4.8 0.49 7.9 0.93 8 6.04 2.3l4.68-5.2 15.34-4.1 15.34-4.2 3.41 3.3c3.41 3.3 4.34 6.2 2.36 7.5-0.58 0.3-7.67 1.1-15.75 1.6-8.09 0.6-15.27 1.5-15.97 2.1-1.3 1-0.76 7.4 0.77 9.1 0.42 0.4 6.1 0.3 12.62-0.2 6.53-0.6 12.06-0.8 12.29-0.6s-0.42 2.9-1.44 5.9l-1.86 5.5 4.05 4.7c6.35 7.6 7.17 7.2 11.83-5.2 2.2-5.8 4.46-11 5.02-11.5 0.57-0.4 3.05-1 5.51-1.1l4.48-0.4v-4.9c0-4.3-0.29-5-2.26-5.5-2.24-0.6-2.23-0.6 1.66-7.3 7.11-12.1 17.24-23.76 20.71-23.76 1.91 0 11.58 9.36 15.92 15.46 4.02 5.7 10.47 18.2 10.47 20.3 0 0.5-6.35 1.6-14.1 2.5-7.76 1-14.51 2-15 2.3-1.49 0.9-1.01 7.2 0.67 8.9 0.91 0.9 2.5 1.3 3.75 1 10.94-2.6 82.76-6.8 87.13-5.1 1.85 0.7 1.85 0.7 0 2-1.05 0.8-4.84 1.7-8.42 2.1-8.07 0.8-10.77 2.5-11.19 6.7-0.26 2.8-1.34 4-6.81 7.7-3.58 2.5-9.75 6.9-13.72 9.8s-7.67 5.3-8.22 5.3c-0.59 0-1.11-4.7-1.28-11.7l-0.28-11.8-3.88 0.3c-6.5 0.4-6.62 0.7-6.62 18.1v15.5l-11.75 12.1c-6.46 6.7-13.58 14.2-15.82 16.8-3.44 4-4.62 4.7-7.66 4.7-3.37 0-3.86-0.4-7.91-7-2.38-3.8-5.01-7-5.85-7-0.91 0-3.48 3.7-6.28 8.9-5.28 9.9-4.11 9.2-18.83 10.7l-6.6 0.7-3.97-7.4c-2.18-4-4.68-7.5-5.57-7.7-1.11-0.2-2.84 2.1-5.69 7.5-2.25 4.3-4.45 8.4-4.89 9.1s-4.15 1.7-8.24 2.2c-22.45 2.8-102.55 8.8-103.65 7.7-0.29-0.3 1.35-4 3.63-8.1 2.29-4.2 3.89-8.1 3.56-8.6s-4.82-1-9.97-1c-9.09 0-9.43 0.1-11.32 2.8-2.6 3.7-8.64 15.5-8.39 16.5 0.11 0.4-2.84 0.7-6.55 0.7s-6.24-0.3-5.63-0.7c1.47-1 8.38-14.8 8.38-16.7 0-1.3-1.65-1.6-9.43-1.6-6.63 0-9.83 0.4-10.79 1.4-0.75 0.7-3.15 5-5.32 9.4-4.28 8.6-5.19 9.2-13.67 9.2h-3.97l2.34-2.8c1.29-1.5 3.67-5.6 5.3-9 2.51-5.3 2.74-6.4 1.5-7.2-1.73-1.1-16.95-1.3-18.62-0.2-1.45 0.9-9.48 15-9.79 17.2-0.28 1.9-2.02 1.9-31.05 1.1zm12.93-17.6c1.27-1.3 1.57-4.1 1.57-14.8 0-15.8-0.48-16.9-7.04-16.5l-4.46 0.4-0.3 5.3c-0.27 4.5-0.64 5.4-2.79 6.2-2.43 0.9-2.48 1.1-2.2 10.2l0.29 9.3 3.5 0.6c6.32 1.1 9.83 0.9 11.43-0.7zm144.96-5c0.89-2.3 0.72-10.7-0.25-12.3-0.56-0.8-2.59-1.2-6.23-1-6.93 0.4-7.02 1.9-0.6 9.3 5.12 5.9 6.12 6.5 7.08 4zm18.41 0.4c1.54-1.6 1.57-13.1 0-14.6-1.58-1.6-9.99-0.4-11.59 1.6-1.29 1.6-1.71 9.8-0.64 12.6 0.74 1.9 10.33 2.2 12.19 0.4zm19.93-2c1.31-1.1 1.78-10.4 0.66-13.3-0.42-1.1-1.92-1.5-5.06-1.5-7.39 0-8.33 1-8.33 8.8 0 3.8 0.34 7.2 0.75 7.6 0.99 1 10.34-0.3 11.98-1.6zm34.19-15.7c2.8-4.9 5.08-9.6 5.08-10.5 0-2-2.82-2.1-13.5-0.2-4.4 0.8-8.11 1.5-8.25 1.5-1.44 0.2 4.07 11.8 8.02 16.8 1.99 2.6 3.7 1.1 8.65-7.6zm-140.49 4.3c1.27-1.3 1.57-4.1 1.57-15v-13.4h3.46 3.46l0.29 8.2 0.29 8.3h13.5c7.42 0 14.29-0.4 15.25-0.8 1.55-0.6 1.75-2.3 1.75-14.6v-13.9l6.09-0.6c3.34-0.3 6.49-0.9 7-1.2 0.5-0.3 0.91-3.2 0.91-6.5 0-6.7-0.62-7.2-9-6.7l-4.5 0.3-0.29-7.3-0.3-7.2h5.11c8.58 0 8.98-0.6 8.98-11.9 0-9.8 0-9.9-3.75-15.3-14.8-21.47-15.69-22.43-18.04-19.59-0.56 0.69-4.93 8-9.7 16.25-4.77 8.24-9.2 15.54-9.84 16.14-0.73 0.8-5.73 1.3-13.17 1.5l-12 0.3-0.31-5.3c-0.24-4.2-0.69-5.5-2.16-5.8-1.02-0.3-2.13-1.6-2.46-2.9-0.47-1.9-1.28-2.44-3.48-2.44-3.6 0-4.09 1.24-4.09 10.44 0 6.5-0.23 7.4-2 7.8-1.73 0.5-2 1.4-2 6.8 0 5.3 0.27 6.2 2 6.7 1.55 0.4 2 1.3 2 4.3 0 2.9-0.45 3.8-2 4.2-1.73 0.5-2 1.4-2 6.8 0 5.3 0.27 6.2 2 6.7 1.62 0.4 2 1.3 2 4.9v4.5l-5.71-0.3c-5.16-0.3-5.76-0.6-6.29-2.8-0.52-2.3-1.16-2.6-5.99-2.8-9.3-0.6-10.01-0.1-10.01 6.6 0 6.6 1.08 8.2 5.7 8.2 3.21 0 3.3 0.1 3.32 4.2 0 6.1 0.86 6.9 6.54 6.6 4.24-0.3 4.93-0.7 5.44-2.8 0.47-2 1.22-2.5 3.55-2.5h2.95l0.29 10.4c0.16 5.8 0.77 11 1.37 11.8 1.69 2 22.19 1.8 24.27-0.3zm-14.99-25.7c-0.3-0.8-0.41-4.3-0.24-7.9l0.3-6.3h3.5 3.5v7.5 7.5l-3.26 0.3c-2.12 0.2-3.44-0.2-3.8-1.1zm32.77-7.4 0.29-7.8 5.79-0.3 5.8-0.3-0.3 7.8-0.29 7.8-5.79 0.3-5.8 0.3 0.3-7.8zm-32.79-21.7c-0.29-0.7-0.39-4.2-0.22-7.8l0.3-6.3h3.5 3.5l0.3 6.4c0.25 5.3 0 6.8-1.44 7.8-2.28 1.6-5.29 1.6-5.94-0.1zm16.58-7.1v-7.7l3.25 0.4 3.25 0.3v7 7l-6.5 0.6v-7.6zm16.71 6.8c-0.39-0.4-0.71-3.7-0.71-7.4 0-7.6 0.33-7.9 7.62-7.9h4.46l-0.29 7.7-0.29 7.8-5.04 0.2c-2.77 0.2-5.36 0-5.75-0.4zm11.96-29c-0.37-0.4-0.67-3.3-0.67-6.6 0-6 2.38-12.11 4.47-11.42 2.02 0.66 3.5 5.32 3.52 10.92 0 4.6-0.36 5.9-1.92 6.7-2.22 1.2-4.43 1.4-5.4 0.4zm152.08 74.3c2.89-5.1 5.25-9.8 5.25-10.5 0-1.5-2.74-1.4-13.13 0.6-4.84 0.9-9 2.1-9.24 2.8-0.74 1.9 8.23 16.5 10.15 16.5 1.13 0 3.53-3.3 6.97-9.4zm-115.32-4.2c2.14-2.2 2.14-11.7 0-13.9-1.46-1.4-6.49-1.4-11.18 0-1.33 0.4-1.85 13.6-0.58 14.8 1.35 1.4 10.18 0.7 11.76-0.9zm19.79-1.3c0.48-0.4 0.74-3.9 0.58-7.7l-0.3-6.9-5.86 0.1c-3.78 0.1-6.18 0.6-6.74 1.5-1.24 1.9-1.11 10.6 0.2 13.1 0.97 1.8 1.74 1.9 6.18 1.4 2.79-0.3 5.46-1 5.94-1.5zm131.79 0.9c3.08 0 4.99-2.9 4.97-7.4 0-6-0.98-7-6-6.4-5.26 0.7-5.62 1.1-6.24 7.1-0.54 5.1 1.19 8.3 3.97 7.2 0.8-0.3 2.28-0.5 3.3-0.5zm-112.05-3c1.13-2.1 1.4-9.9 0.43-12.5-0.74-1.9-10.33-2.2-12.19-0.3-1.26 1.2-1.7 12.9-0.53 14.1 0.36 0.4 3.05 0.7 5.96 0.7 4.22 0 5.51-0.4 6.33-2zm40.34-12c0.45-0.4 0.67-3.4 0.5-6.6l-0.3-5.9-7.42 0.2c-4.76 0.1-7.71 0.7-8.23 1.5-1.28 2-0.99 10.2 0.4 11.6 1.32 1.3 13.45 0.7 15.05-0.8zm56.45-7.3c1.44-1.1 1.66-9.5 0.31-11.7-0.72-1.1-1.88-1.2-5.73-0.5l-4.83 1-0.31 5.3c-0.44 7.8 0 8.5 5.06 7.6 2.34-0.3 4.81-1.1 5.5-1.7zm19-0.5c1.77-2.3 1.59-9.7-0.27-11.3-1.1-0.9-2.69-1-5.75-0.3-4.17 0.9-4.24 0.9-4.84 5.9-0.87 7.2 0.23 8.8 5.44 7.9 2.29-0.3 4.73-1.3 5.42-2.2zm-451.25-23.7v-19l-6.19-0.9c-9.81-1.4-9.31-2.4-9.31 18.8 0 18.4 0 18.5 2.25 19 4.61 1 7.33 1.3 10.25 1.2l3-0.1v-19zm319.79 16.5c0.43-0.4 0.65-5.6 0.5-11.6l-0.29-10.9-5.72-0.3c-9.39-0.5-9.78 0-9.78 12.6 0 6 0.33 11.2 0.72 11.6 0.86 0.8 13.43-0.3 14.57-1.4zm23.14-1.6c1.2-1.2 1.57-3.8 1.57-10.9 0-11.4-0.73-12.5-7.7-11.8-7.67 0.7-7.3 0.1-7.3 12.1 0 5.9 0.3 11.1 0.67 11.5 1.38 1.4 11.17 0.7 12.76-0.9zm-370.63-0.6c1.58-1.6 1.55-10.3-0.1-11.6-1.48-1.1-7.72-2.2-9.5-1.5-0.81 0.3-1.25 2.5-1.25 6.4 0 5.2 0.27 6 2.25 6.8 3.23 1.3 7.16 1.3 8.55-0.1zm-18.84-2.8c1.42-2.6 1.31-8.3-0.21-10.3-0.77-1-2.99-1.8-5.75-2l-4.5-0.2v6.5c0 6.3 0 6.5 3 7.1 5.18 1.1 6.4 0.9 7.46-1.1zm141.99-10c0.79-0.5 1.69-3.1 2-5.7 0.54-4.7 0.62-4.8 4.3-5.1 3.01-0.3 3.86-0.8 4.35-2.8 0.47-1.9 1.28-2.4 3.4-2.4 1.62 0 3.04-0.7 3.39-1.6 0.34-0.9 0.61-17.1 0.61-36.06 0-29.97-0.21-34.77-1.61-36.9-1.44-2.21-1.45-2.52-0.1-3.05 0.86-0.33 2.37-0.44 3.36-0.25 1.69 0.32 1.84 2.5 2.31 32.53 0.3 19.46 0.9 32.63 1.5 33.13 0.55 0.6 2.58 1.2 4.5 1.3l3.5 0.4 1 16h4 4l0.27-24.8 0.26-24.74h3.49 3.48v17.92c0 9.82 0.27 18.62 0.61 19.52 0.83 2.2 7.95 2.2 8.78 0 0.34-0.9 0.61-9.7 0.61-19.59v-17.98l3.25 0.32 3.25 0.31 0.27 19.24 0.27 19.2 2.42 0.6c1.47 0.4 2.55 1.5 2.73 2.8 0.26 1.8 0.98 2.2 4.31 2.2h4l0.26-30.97c0.21-24.08 0-31.11-1-31.74-0.69-0.44-9.59-0.81-19.76-0.83-10.17 0-20.19-0.3-22.25-0.64l-3.75-0.62v-22.62c0-12.44-0.34-23.11-0.75-23.72-0.91-1.37-8.33-2.59-9.86-1.62-0.63 0.4-1.31 1.62-1.52 2.71-0.24 1.3-1.41 2.17-3.36 2.51l-2.99 0.52-0.58 18.48h-2.71c-1.49 0-12.09-0.47-23.56-1.04-15.67-0.78-21.2-0.75-22.25 0.13-1.16 0.95-1.4 8.39-1.4 43 0 48.05-0.97 43.95 10.29 43.95 3.54 0 8.5 0.2 11.03 0.6l4.6 0.6 0.29 8.1 0.29 8.2 4 0.6c2.2 0.3 4.23 0.6 4.5 0.7s1.15-0.3 1.95-0.8zm-11.85-33.4c-0.68-0.8-1.08-3.4-0.91-5.8 0.28-3.92 0.58-4.37 3.11-4.66l2.8-0.32-0.3 5.78c-0.32 6.1-2.14 8.1-4.7 5zm13.9-4.1c0-5.24 0.14-5.54 2.5-5.54s2.5 0.3 2.5 5.54c0 5.2-0.14 5.5-2.5 5.5s-2.5-0.3-2.5-5.5zm0-21.98c0-5.68 0.74-6.98 3.41-5.96 1.18 0.46 1.59 2 1.59 6.01 0 5.08-0.14 5.39-2.5 5.39s-2.5-0.3-2.5-5.44zm-14.6 3.05c-0.29-0.77-0.39-3.13-0.22-5.25 0.28-3.37 0.67-3.9 3.07-4.18 2.71-0.31 2.75-0.23 2.75 5.25 0 5.29-0.13 5.57-2.53 5.57-1.39 0-2.77-0.63-3.07-1.39zm-14.4-5.18c0-5.48 0-5.56 2.75-5.25 2.56 0.3 2.77 0.67 3.05 5.57l0.3 5.25h-3.05c-3.04 0-3.05 0-3.05-5.57zm29.67-15.1c-0.81-0.8-0.9-9.77-0.11-10.55 0.3-0.31 1.43-0.33 2.5 0 1.62 0.42 1.94 1.4 1.94 5.89 0 4.55-0.28 5.38-1.83 5.38-1.01 0-2.14-0.3-2.5-0.67zm-15.27-1.72c-0.29-0.77-0.39-3.13-0.22-5.25 0.28-3.37 0.67-3.9 3.07-4.18 2.71-0.31 2.75-0.23 2.75 5.25 0 5.29-0.13 5.57-2.53 5.57-1.39 0-2.77-0.63-3.07-1.39zm-14.2-4.79c0.28-4.93 0.48-5.32 2.8-5.32 2.33 0 2.5 0.33 2.5 5 0 4.74-0.15 5.02-2.8 5.32-2.8 0.32-2.81 0.3-2.5-5zm-148.61 75.02 5.91-2.3 0.31-4.9c0.17-2.7-0.13-5.4-0.68-5.9-0.64-0.6-3.49-0.4-8.31 0.8-10.69 2.6-10.82 2.7-10.82 8.8 0 2.9 0.34 5.7 0.75 6.1 1.09 1.1 6.09 0.1 12.84-2.6zm53.17-8.3c0.14-2.8-0.13-5.6-0.61-6.4-0.49-0.7-2.97-1.4-5.76-1.5l-4.89-0.1-0.3 5.9c-0.36 6.9 0.37 7.7 6.8 7.3l4.5-0.2 0.26-5zm-19.37 1.9c0.91-2.4 0.71-8.7-0.33-10.4-0.57-0.9-2.69-1.4-5.73-1.5l-4.83-0.1-0.31 5.4c-0.17 3 0.2 5.9 0.88 6.7 1.67 2 9.53 1.9 10.32-0.2zm369.36-6.2c2.52-3.3 0.59-10.2-2.82-10.2-0.51 0-0.93-1.2-0.93-2.6 0-1.7-0.74-2.8-2.5-3.4-1.87-0.8-2.5-1.7-2.5-3.89 0-4.22-1.63-5.05-8.5-4.3l-6 0.65-0.28 11.94c-0.16 6.6 0 12.6 0.25 13.4 0.8 2 21.5 0.6 23.28-1.6zm-433.2-9.9c1.2-0.5 1.47-1.9 1.24-6.7l-0.29-6.14-10.86-0.28c-7.14-0.19-11.33 0.11-12.25 0.87-1.49 1.23-2 11.95-0.64 13.35 0.8 0.8 20.2-0.1 22.8-1.1zm34.75-3.5c1.43-0.8 1.74-1.9 1.5-5.6l-0.3-4.74-7.74-0.29c-9.96-0.38-11.76 0.56-11.76 6.13 0 2.3 0.54 4.8 1.19 5.5 1.34 1.3 14.01 0.6 17.11-1zm84.06 0.7c0.87-2.3-0.33-4.5-2.72-5-1.18-0.2-17.15-1.6-35.49-3.03-25.53-1.99-33.67-2.32-34.75-1.43-1.48 1.23-1.92 3.86-0.65 3.96 0.41 0 14.7 1.6 31.75 3.4 36.68 3.9 41.06 4.1 41.86 2.1zm334.53-11.93c5.15-9.1 4.76-10.72-2.11-8.67-2.35 0.71-4.61 1.79-5.01 2.42-0.41 0.63-0.75 3.88-0.75 7.22 0 10.06 1.72 9.86 7.87-0.97zm-335.39-3.61c0-2.32-0.44-2.55-6-3.15-3.3-0.36-19.15-0.99-35.23-1.39-26.86-0.67-29.28-0.6-29.87 0.95-0.36 0.92-0.42 1.91-0.14 2.19 0.6 0.59 61.33 4.24 67.24 4.04 3.56-0.12 4-0.41 4-2.64zm-195.7-13.09c0.19-2.9-0.18-4.95-1-5.57-1.34-1.02-34.55-7.34-38.55-7.34-2.04 0-2.25 0.48-2.25 5.03 0 3.42 0.45 5.21 1.41 5.58 2.79 1.07 36.13 7.27 38.09 7.08 1.63-0.15 2.05-1.03 2.3-4.78zm392-2.75c0.18-4.55-0.15-7.88-0.88-8.75-1.43-1.72-6.08-1.85-7.72-0.21-1.29 1.29-1.71 14.96-0.49 16.18 0.4 0.39 2.53 0.58 4.75 0.42l4.04-0.3 0.3-7.34zm-256.84 4.91c1.1-2.05 1.47-28.8 0.43-31.49-0.79-2.05-5.77-2.06-7.82 0-1.28 1.28-1.57 4.21-1.57 15.93s0.29 14.65 1.57 15.93c2.17 2.17 6.14 1.98 7.39-0.36zm66.48-0.29c1.27-1.82 1.56-5.58 1.56-20.52 0-10.06-0.42-19.07-0.93-20.02-0.51-0.96-1.17-2.53-1.47-3.49-0.66-2.16-3.91-2.28-5.63-0.22-1.02 1.23-1.02 2.28 0 5.32 0.88 2.65 1.15 9.25 0.9 21.97-0.22 11.51 0 18.34 0.65 18.6 2.17 0.91 3.45 0.49 4.94-1.64zm19.46-0.93c0.65-1.85 1.1-10.84 1.1-21.81 0-14.86-0.3-19.05-1.47-20.6-0.81-1.07-1.48-2.76-1.5-3.76 0-1.37-0.68-1.74-2.68-1.5-3.61 0.44-5.24 3.16-3.53 5.91 0.98 1.57 1.28 7.27 1.17 22.75-0.1 11.36-0.1 21-0.1 21.41s1.38 0.75 2.97 0.75c2.36 0 3.11-0.59 4-3.15zm-107.09-3.24c0.17-2.69-0.1-5.27-0.53-5.73-0.46-0.46-4.35-1.33-8.63-1.92-5.9-0.82-8.14-0.8-9.22 0.1-1.78 1.47-1.9 9.3-0.18 10.74 1.54 1.27 6.59 1.96 13.25 1.81l5-0.11 0.31-4.89zm42.68 3.75c1.41-1.41 1.6-3.9 1.33-17.96-0.28-14.02-0.57-16.58-2.09-18.1-1.33-1.33-2.18-1.51-3.42-0.72-1.45 0.91-1.62 3.21-1.4 18.97 0.23 17.11 0.62 19.37 3.27 19.43 0.37 0 1.41-0.72 2.31-1.62zm13.47-0.29c1.41-2.63 1.34-31.9-0.1-35.98-0.92-2.63-1.57-3.15-3.7-2.9l-2.59 0.31 0.29 19.49c0.17 10.72 0.51 19.83 0.77 20.25 0.91 1.48 4.29 0.73 5.31-1.17zm15 0c0.6-1.12 1.04-9.11 1.04-18.85 0-13.38-0.33-17.57-1.57-20.07-1.73-3.46-3.08-3.86-5.95-1.76-1.66 1.22-1.74 1.73-0.65 4.14 0.85 1.87 1.22 8.02 1.17 19.36-0.1 9.13-0.1 17.17 0 17.86 0.1 2.01 4.86 1.46 6-0.68zm532.33 0.87 3.8-1.06-0.3-6.69-0.29-6.69-4.99 0.33c-2.74 0.17-5.55 0.79-6.25 1.37-1.31 1.09-1.8 11.92-0.59 13.13 0.96 0.97 4.27 0.81 8.62-0.39zm-571.25-2.01c0.71-1.33 0.99-7.24 0.78-16.47-0.27-12.16-0.6-14.67-2.09-16.16-1.34-1.34-2.17-1.51-3.43-0.72-1.46 0.92-1.63 3.06-1.4 17.46 0.15 9.03 0.48 16.76 0.74 17.19 0.95 1.53 4.31 0.72 5.4-1.3zm289.03 1.03c1.57-0.84 1.93-2.12 1.93-6.92 0-5.18-0.32-6.15-2.63-7.97-1.45-1.14-4.09-2.07-5.87-2.07s-4.42 0.93-5.87 2.07c-2.31 1.82-2.63 2.79-2.63 7.95 0 4.55 0.4 6.11 1.75 6.9 2.29 1.34 10.85 1.36 13.32 0zm52.73-0.16c0.66-0.66 1.2-3.78 1.2-6.93 0-4.99-0.34-5.99-2.63-7.8-1.45-1.14-4.09-2.07-5.87-2.07s-4.42 0.93-5.87 2.07c-2.31 1.82-2.63 2.79-2.63 7.95 0 4.55 0.4 6.11 1.75 6.9 2.44 1.42 12.6 1.33 14.05-0.12zm-408.41-2.38c1.34-3.49 0.65-10.33-1.14-11.26-2.41-1.26-21.85-3.52-23.18-2.7-1.59 0.98-1.35 11.07 0.3 12.43 0.75 0.63 4.69 1.52 8.75 1.99 11.91 1.39 14.6 1.3 15.27-0.46zm451.11-1.54c5-1.38 5.47-2.12 5.48-8.7 0-7.87-1.16-9.49-6.31-8.64-2.29 0.38-4.73 1.14-5.42 1.7-1.64 1.32-1.68 13.93 0 15.56 1.45 1.45 1.34 1.45 6.3 0.1zm208.84-5.07c3.69-6.66 3.06-8.49-2.45-7.06-3.35 0.86-3.39 0.94-3.69 7.14-0.26 5.38-0.1 6.23 1.34 5.94 0.91-0.18 3.07-2.89 4.8-6.02zm97.16 0.64c8.7-1.95 16.2-3.78 16.7-4.06 1.3-0.83 1-10.12-0.5-10.65-1.6-0.64-31.8 6.07-33.4 7.44-1.6 1.34-1.7 8.02-0.1 9.62 1.4 1.45-1.3 1.82 17.3-2.35zm-283.39-0.59c0.47-0.75 0.87-3.89 0.87-6.99 0-6.98-1.35-8.45-6.71-7.19l-3.77 0.89-0.29 7.85-0.3 7.85 4.67-0.53c2.57-0.29 5.05-1.13 5.53-1.88zm-616.31-4.06c0.36-5.5-0.89-6.55-8.93-7.5-5.56-0.66-6.84 0.22-6.84 4.7 0 3.91 1.33 5.13 7.1 6.54 7.8 1.9 8.32 1.68 8.67-3.74zm512.62 4.59c0.87-0.33 1.58-1.12 1.58-1.75 0-2.48-21.06-35.14-22.66-35.14-1.87 0-14.34 19.48-14.34 22.4 0 2.29 2.51 4.5 4.32 3.81 0.73-0.28 3.23-3.71 5.55-7.61 2.32-3.91 4.37-7.1 4.55-7.1s3.37 5.06 7.09 11.25c8.29 13.81 10.07 15.62 13.91 14.14zm52.48-0.3c1.89-1.2 1.6-1.79-10.02-20.69-6.73-10.93-10.65-16.4-11.64-16.2-0.82 0.17-4.43 5.14-8.03 11.05-5.94 9.78-6.42 10.98-5.36 13.32 1.78 3.92 4.04 2.67 8.57-4.75 2.24-3.67 4.37-6.96 4.73-7.31 0.35-0.35 3.67 4.45 7.37 10.68 8.39 14.12 10.62 16.27 14.38 13.9zm94.9-0.29c1.33-1.33 1.63-15.4 0.55-25.7l-0.65-6.2-7.2 0.6-0.28 14.96c-0.15 8.22-0.1 15.53 0.22 16.25 0.63 1.62 5.76 1.69 7.36 0.1zm-27.67-2.97c1.3-2.06 1.02-10.24-0.43-12.22-1.06-1.45-1.92-1.61-4.75-0.88l-3.45 0.89-0.3 7.33-0.29 7.33 4.19-0.57c2.3-0.31 4.57-1.15 5.03-1.88zm119.66-4.92c0.21-4.6-0.11-6.93-1.05-7.71-1.47-1.22-36.78-3.78-39.23-2.84-1.83 0.7-2.15 11.12-0.39 12.22 1.74 1.07 31.88 5.3 36.38 5.1l4-0.18 0.29-6.59zm118.01-2.1-0.3-5.19-8.2-2.93c-4.5-1.62-8.9-2.67-9.8-2.34-1.8 0.72-2 6.56-0.3 8.91 1.5 1.86 13.1 6.57 16.6 6.67 2.2 0.1 2.3-0.27 2-5.12zm-86.78-3.32c0.54-0.34 0.98-3.51 0.98-7.05 0-6.9 0.1-6.79-6-6.44-6.07 0.34-7 1.38-7 7.87 0 3.19 0.34 6.14 0.75 6.56 0.8 0.82 9.62 0.1 11.27-0.94zm161.38-0.88 3.6-1.51v-7.58c0-8.84-0.5-9.33-7.7-7.32-3.6 1.02-4.9 1.89-5.1 3.5-0.2 1.18-1.4 2.87-2.8 3.75-1.9 1.28-2.4 2.44-2.4 5.91 0 2.37 0.3 4.65 0.7 5.07 1.1 1.09 9.4 0 13.7-1.82zm-881.6-4.8c0.37-5.69-0.64-6.43-10.1-7.4-6.59-0.68-6.6-0.67-7.29 2.1-0.38 1.52-0.29 3.95 0.21 5.38 0.75 2.14 1.9 2.82 6.4 3.78 3.01 0.65 6.6 1.1 7.98 1 2.24-0.15 2.53-0.66 2.8-4.86zm744.95 1.97c1.83-1.5 1.67-12.41-0.19-13.12-1.88-0.72-8.71 0.34-10.31 1.6-1.35 1.07-1.77 11.89-0.51 13.15 0.96 0.96 9.38-0.28 11.01-1.63zm-648.97-8.88c0.22-7.25 0-9.88-1.1-10.75-0.77-0.64-4.94-1.27-9.29-1.4l-7.89-0.25-0.29 9.41c-0.17 5.47 0.14 9.84 0.73 10.43 1.3 1.3 8.36 2.5 13.56 2.31l4-0.15 0.28-9.6zm535.97 7.88c1.71-1.4 1.63-11.22-0.1-12.66-1.72-1.42-10.54 0.1-11.76 2.02-1.31 2.07-1.05 10.29 0.36 11.73 1.4 1.42 9.37 0.67 11.5-1.09zm-656.95-0.98c1.89-1.89 1.51-8.57-0.55-9.62-2.66-1.36-14.14-3.37-15.26-2.67-1.4 0.86-1.23 9.22 0.2 10.11 1.07 0.66 10.68 3.02 13.36 3.28 0.58 0.1 1.59-0.44 2.25-1.1zm795.43-1.63c0.48-0.48 0.74-3.53 0.57-6.77-0.34-6.74-1.4-7.39-8.72-5.42l-4.08 1.1v5.79c0 3.19 0.34 6.14 0.75 6.56 0.94 0.96 10.28-0.1 11.48-1.26zm142.57-9.16c0.2-5.49-0.1-8.58-0.9-9.05-0.6-0.39-4.2 0.1-7.9 1.04-7.3 1.88-9 2.63-9 3.99 0 1.27 15.3 13.02 16.5 12.66 0.5-0.17 1.1-4.06 1.3-8.64zm-851.8-1.4c0-10.82 0.57-10.2-10.46-11.2-5.75-0.52-7.54-0.39-7.54 0.57 0 1.9 15.04 20.02 16.62 20.02 1.07 0 1.38-2.08 1.38-9.39zm473.96 6.46c1.43-2.66 1.31-12.4-0.16-13.87-1.84-1.84-10.45-1.55-11.19 0.38-0.82 2.14-0.78 13.92 0.1 14.75 0.36 0.37 2.82 0.67 5.46 0.67 3.72 0 5.03-0.43 5.83-1.93zm17.4-0.35c1.41-1.03 1.69-2.51 1.44-7.75l-0.3-6.47h-5-5l-0.3 6.39c-0.17 3.52-0.1 7.01 0.22 7.75 0.66 1.73 6.62 1.78 8.94 0.1zm15.12-1.08c1.79-1.31 1.78-1.49-0.48-5.25-3.18-5.31-5.1-7.44-6.13-6.81-1.01 0.63-1.19 11.77-0.2 12.75 1.12 1.13 4.84 0.75 6.81-0.69zm266.02-0.96 10-2.21 0.3-4.81c0.5-7.5-0.1-7.74-12.6-5.2-6 1.21-11.4 2.52-12 2.93-1.3 0.76-1.7 9.79-0.5 10.94 1 1.06 4.1 0.72 14.8-1.65zm-896.5-3.66c0-4.35-0.29-5.05-2.25-5.49-10.9-2.48-11.22-2.5-12.5-0.81-1.43 1.9-1.62 6.14-0.36 8.13 0.99 1.56 5.97 2.9 11.36 3.05l3.75 0.1v-4.98zm433.39 2.4c1.08-2.8 0.65-12.98-0.59-14.22-1.8-1.8-8.46-1.53-9.19 0.38-0.82 2.14-0.78 13.92 0.1 14.75 0.36 0.37 2.57 0.67 4.89 0.67 2.93 0 4.41-0.48 4.83-1.58zm21.11-6.92v-8h-4.5-4.5l-0.3 6.9c-0.4 9.25-0.12 9.78 5.04 9.41l4.26-0.31v-8zm-217.09-1.95c26.27-5.19 48.37-9.95 49.11-10.57 0.75-0.62 1.5-2.11 1.67-3.3 0.28-1.98 0.98-2.21 7.56-2.47 6.9-0.28 7.25-0.41 7.25-2.69 0-1.32 0.45-2.68 1-3.02s1-2.62 1-5.06c0-4.19-0.16-4.44-2.75-4.4-3.08 0-13.5 2.38-15.17 3.41-0.59 0.37-1.08 1.51-1.08 2.54 0 2.3 3.67 1.26-40.43 11.49-33.25 7.72-37.63 8.52-44 8.04-8.28-0.62-13.88 0.93-14.36 3.98-0.17 1.1-0.81 2.99-1.41 4.2-0.85 1.73-0.73 2.76 0.58 4.75 0.92 1.4 2.03 2.55 2.47 2.55s22.3-4.25 48.56-9.45zm498.15 8.09c7.74-0.71 14.6-1.62 15.25-2.02 0.68-0.43 1.19-3.07 1.19-6.21 0-4.23-0.39-5.62-1.7-6.13-1.64-0.63-37.92 3.37-39.52 4.36-0.43 0.26-0.78 2.93-0.78 5.92v5.44h5.75c3.16 0 12.08-0.62 19.81-1.33zm133.94-4.12v-4.95l-7.5-2.79c-9.4-3.51-11.4-3.35-11.8 0.95-0.5 4.9 0.9 6.37 8.9 9.4 9.8 3.67 10.4 3.52 10.4-2.61zm-896.08 2.87c1.89-0.72 2.24-8.87 0.42-9.99-0.64-0.39-3.9-1.3-7.25-2.01-5.44-1.16-6.22-1.12-7.34 0.35-1.7 2.23-1.58 6.74 0.23 8.24 0.81 0.67 3.84 1.8 6.75 2.51 2.9 0.71 5.35 1.34 5.44 1.4 0.1 0.1 0.88-0.16 1.75-0.5zm808.88-5.59c1.49-0.76 1.74-1.98 1.5-7.11l-0.3-6.19-4.91 0.26c-2.7 0.14-5.51 0.76-6.25 1.37-1.64 1.37-1.81 11-0.22 12.59 1.19 1.19 7.11 0.65 10.18-0.92zm24.18-2.79c2.49-0.95 2.6-1.31 2.32-7.25l-0.3-6.26-4.8 0.17c-6.47 0.22-7.7 1.46-7.7 7.79 0 2.86 0.3 5.51 0.67 5.87 0.99 1 6.84 0.81 9.81-0.32zm138.72-1.22c0.4-0.71 0.7-6.02 0.6-11.79l-0.3-10.5-4.3 0.2c-5.6 0.25-7 1.51-7.4 6.63-0.4 5.06-2.2 5.53-2.6 0.67-0.2-1.92-0.7-3.87-1.1-4.32-1.1-1.13-12.8 1.26-14.2 2.88-0.5 0.72-0.9 2.8-0.7 4.62 0.3 3.05 0.6 3.31 3.5 3.17 3.1-0.13 3.3 0.1 3.3 3 0 5.46 1.1 6.15 7.5 4.99 5.1-0.93 5.7-0.85 6.6 0.94 0.9 1.57 1.8 1.84 4.7 1.37 1.9-0.32 3.9-1.16 4.4-1.86zm-1008.4-3.98c0.3-4.65 0.28-4.69-3.5-5.77-7.31-2.08-12.43-2.44-13.38-0.94-1.38 2.18-1.08 6.53 0.55 7.87 1.95 1.62 10.4 3.94 13.53 3.71 2.24-0.16 2.53-0.67 2.8-4.87zm134.7-21.31c0-24.08-0.13-26-1.75-26-1.01 0-5.56 4.64-10.78 11-7.99 9.73-9 11.4-8.75 14.48 0.23 2.9 0.78 3.63 3.28 4.37 5.98 1.76 5.98 1.77 6.28 11.26 0.32 10.25 1.28 11.66 7.72 11.18l4-0.29v-26zm580.68 24.23c1.29-2.02 0.92-12.21-0.51-14.17-3.03-4.14-8.67 2.9-8.67 10.81 0 2.61 0.52 4.69 1.25 5 1.9 0.83 7.05-0.24 7.93-1.64zm15.24 0.66c2.09-0.8 2.12-8.44 0.1-12.43-1.73-3.35-6.19-5.02-7.57-2.85-1.32 2.08-1.09 13.31 0.29 14.69 1.29 1.29 4.67 1.57 7.22 0.59zm32.14-2.05c1.18-0.45 1.46-1.89 1.24-6.21l-0.3-5.63-7.97 0.2c-12.59 0.31-12.53 0.27-12.53 7.46v6.13l9.01-0.68c4.96-0.38 9.71-0.95 10.55-1.27zm130.69 0.61 3.75-1.04v-5.99c0-7-0.83-7.68-7.86-6.32l-4.64 0.9-0.31 5.38c-0.17 2.96-0.1 6 0.22 6.75 0.63 1.63 3.71 1.74 8.84 0.32zm-275.32-1.37c0.69-0.83 1.05-3.8 0.87-7.25l-0.3-5.83-5.5-0.29c-7.93-0.42-9.42 0.93-8 7.28 0.6 2.71 1.58 5.51 2.17 6.22 1.46 1.75 9.28 1.66 10.76-0.13zm20.14-0.62c1.5-0.8 1.93-2.11 1.93-5.91 0-7.25-0.55-8.05-5.53-8.05-7.04 0-7.47 0.42-7.47 7.44 0 3.42 0.3 6.53 0.67 6.89 1.04 1.04 8.24 0.79 10.4-0.37zm392.93-1.78 6.5-1.68 0.3-8.91c0.2-4.9-0.2-9.34-0.7-9.87-1-1.06-14.6 1.8-16.9 3.54-1.3 1.04-1.8 16.82-0.5 18.07 1 1.02 4.2 0.7 11.3-1.15zm-1056.6-0.76c0.34-0.87 0.61-2.91 0.61-4.52 0-3.36-1.07-3.99-10.84-6.42-7.21-1.8-9.16-1.06-9.16 3.45 0 4.16 1.99 5.91 8.5 7.47 7.97 1.91 10.17 1.91 10.89 0zm127.61-6.38c0-9.29-0.2-9.51-9.8-10.6l-6.2-0.7v8.01c0 5.19 0.44 8.37 1.25 9.04 1.36 1.12 5.11 1.82 11 2.06l3.75 0.15v-7.96zm459.97 2.5c0.66-0.8 1.45-3.26 1.74-5.45 0.5-3.67 0.33-4.04-2.09-4.65-3.66-0.92-9.31 0.3-10.02 2.17-0.99 2.58-0.68 6.91 0.6 8.19 1.68 1.68 8.31 1.5 9.77-0.26zm230.21-1.8c1.28-2.02 0.93-9.4-0.51-10.6-0.84-0.7-2.92-0.82-5.75-0.34l-4.42 0.75-0.31 4.85c-0.47 7.32 0 7.98 5.53 7.23 2.57-0.36 5.03-1.2 5.46-1.89zm-625.38 0.1c1.66-1.66 1.62-17.21-0.1-18.57-2.18-1.78-15.78-3.45-17.37-2.13-1.8 1.5-1.91 15.8-0.13 18.22 0.77 1.04 3.56 2.03 7.25 2.57 8.59 1.24 8.97 1.24 10.3-0.1zm296 0c1.24-1.24 1.68-12.39 0.59-15.22-0.47-1.23-2.13-1.58-7.44-1.58-3.76 0-7.1 0.43-7.43 0.96-0.63 1.02 3.41 9.66 6.68 14.29 2.05 2.91 5.53 3.62 7.6 1.55zm469.7-4.28v-4.95l-7.5-2.79c-8.7-3.27-11.4-3.25-11.8 0.1-0.8 5.4 0.5 6.87 8.6 10.05 10 3.97 10.7 3.82 10.7-2.38zm-859.82 1.87c0.7-1.82-1.15-18.06-2.68-23.51-1.73-6.14-5.16-10.34-8.72-10.69-6.21-0.61-9.89 7.1-10.97 22.98l-0.6 8.66 3.9 1.07c11.81 3.24 18.21 3.74 19.07 1.49zm991.22-7.89c6.7-8.59 8.6-12.5 5.8-12.5s-15.1 4.05-15.9 5.23c-0.9 1.5-1.1 12.89-0.2 15.24 1.1 2.77 2.9 1.35 10.3-7.97zm-664.46 3.35c2.55-2.83 4.47-5.64 4.27-6.25-0.2-0.6-2.92-1.23-6.04-1.4l-5.67-0.3v6.55c0 8.19 1.14 8.41 7.44 1.4zm444.99 1.17c2.37-0.89 2.57-1.45 2.57-7.03 0-7.06-0.69-7.63-7.75-6.34l-4.75 0.86-0.31 5.38c-0.17 2.95-0.1 5.99 0.22 6.74 0.62 1.6 6.27 1.82 10.02 0.39zm-160.63-7.86c0.31-7.71-0.62-10.16-3.85-10.16-3.5 0-4.84 2.54-3.82 7.22 1.96 8.96 2.92 10.91 5.22 10.59 1.95-0.28 2.18-1.01 2.45-7.65zm132.95 5.59c1.88-1.5 1.78-40.07-0.11-41.63-1.75-1.45-7.74-0.37-9.39 1.69-1.91 2.4-1.76 38.53 0.16 40.46 1.53 1.52 7.17 1.21 9.34-0.52zm-794.86-0.12c1.86-2.24 0.16-4.64-6.2-8.75-8.05-5.2-8.69-5.09-8.69 1.54 0 5.25 0.11 5.46 3.25 6.44 7.63 2.37 10.17 2.54 11.64 0.77zm193.54-0.2c1.26-1.27 1.57-4.04 1.55-14.25 0-6.97-0.41-13.31-0.89-14.07-0.95-1.5-7.99-2.95-14.73-3.05-4.79-0.1-5.36 0.77-5.36 7.9 0 5.12 0.78 6.22 5.5 7.73 2.91 0.94 3.02 1.19 3.5 8.39l0.5 7.42 3.5 0.62c1.93 0.34 3.81 0.68 4.18 0.75 0.37 0.1 1.38-0.58 2.25-1.44zm71.57-5.41c0-2.69-0.34-5.11-0.76-5.37-1.41-0.87-46.12-4.91-47.69-4.31-1.94 0.75-2.19 10.14-0.3 11.33 2.05 1.3 45.06 5.06 47 4.12 1.31-0.65 1.75-2.09 1.75-5.77zm16.33 5.73c1.54-1.12 1.69-3.33 1.44-21.14-0.23-17.03-0.5-20.04-1.88-20.91-0.89-0.56-2.35-0.74-3.25-0.39-1.45 0.55-1.64 3.1-1.64 21.49 0 11.48 0.3 21.17 0.67 21.53 1.02 1.02 2.77 0.8 4.66-0.58zm397.02-6.28c6.02-9.74 5.99-10.47-0.42-10.47-8.13 0-8.93 0.84-8.93 9.37 0 4.01 0.3 7.6 0.67 7.96 1.99 1.99 4.4 0.1 8.68-6.86zm169.13 5.54c2.49-0.95 2.6-1.31 2.32-7.25l-0.3-6.26-4.8 0.17c-6.47 0.22-7.7 1.46-7.7 7.79 0 2.86 0.3 5.51 0.67 5.87 0.99 1 6.84 0.81 9.81-0.32zm-220.4-6.75c0.64-1.94 1.22-5.83 1.29-8.65l0.13-5.11-3.86 0.12c-2.13 0.1-4.26 0.75-4.74 1.5-1.5 2.37-1.07 13.57 0.58 15.22 2.29 2.28 5.29 0.88 6.6-3.08zm247.11 3.12c0.45-0.27 0.81-3.19 0.81-6.47 0-6.99-0.84-7.66-7.86-6.31l-4.64 0.9-0.31 5.38c-0.45 8.02-0.1 8.5 6.02 7.69 2.85-0.38 5.54-0.91 5.98-1.19zm-567.93-1.24c0.46-0.46 0.7-3.94 0.54-7.74l-0.3-6.9-4.2 0.1c-6.13 0.12-7.3 1.55-7.3 8.88 0 3.41 0.34 6.55 0.75 6.97 0.91 0.92 9.33-0.11 10.51-1.29zm397.51-14.89c0.25-14.72 0.12-16.25-1.42-16.25-0.93 0-2.52 0.74-3.52 1.65-1.61 1.46-1.83 3.37-1.83 15.84 0 7.8 0.32 14.5 0.71 14.89s1.86 0.58 3.25 0.42l2.54-0.3 0.27-16.25zm-728.83 13.33c0.66-0.8 1.04-3.55 0.87-6.25l-0.31-4.83-4.4-0.31c-2.84-0.21-4.7 0.15-5.24 1-1.39 2.2-0.96 8.57 0.71 10.24 1.96 1.96 6.79 2.04 8.37 0.15zm779.21-0.33c1.4-1.4-4.02-11.75-6.15-11.75-1.75 0-7.36 11.12-6.39 12.68 0.81 1.31 11.05 0.56 12.54-0.93zm-793.34-5.16c0.34-6.04-0.44-7.05-5.52-7.07-3.57 0-5.29 2.09-5.29 6.48 0 4.96 1.68 6.64 6.31 6.3l4.19-0.3 0.31-5.41zm-14.81-0.61c0-5.09-0.21-5.61-2.71-6.56-1.49-0.57-3.74-0.77-5-0.46-2.03 0.51-2.29 1.19-2.29 5.89 0 2.93 0.3 5.62 0.67 5.98 0.36 0.37 2.61 0.67 5 0.67h4.33v-5.52zm527.96 3.59c0.57-1.07 1.04-4.83 1.04-8.37 0-4.99-0.46-7.02-2.07-9.07-2.48-3.15-4.25-3.31-6.93-0.63-1.66 1.66-2 3.33-2 9.8 0 4.73 0.47 8.27 1.2 9 1.95 1.95 7.58 1.48 8.76-0.73zm20.46 1.32c1.28-0.49 1.58-2.31 1.58-9.47 0-8.36-0.14-8.97-2.5-10.51-2.32-1.52-2.68-1.52-5 0-2.36 1.54-2.5 2.15-2.5 10.53 0 6.18 0.38 9.05 1.25 9.4 1.81 0.73 5.34 0.76 7.17 0zm50.47-0.76c0.63-0.75 1.25-3.12 1.37-5.25l0.24-3.88h-13.5-13.5l-0.32 3.86c-0.54 6.63-0.53 6.64 12.67 6.64 8.86 0 12.2-0.35 13.04-1.37zm-163.09-7.83c1.31-1.31 1.62-9.62 0.43-11.4-1.02-1.53-9.24-2.47-11.42-1.3-1.34 0.72-1.81 2.16-1.81 5.5 0 6.92 1.2 8.4 6.84 8.4 2.62 0 5.3-0.54 5.96-1.2zm-21.41-1.38c1.15-2.98 0.63-10.16-0.81-11.35-0.82-0.68-3.68-1.05-6.75-0.88l-5.33 0.31-0.31 5.33c-0.17 3.07 0.2 5.93 0.88 6.75 1.71 2.07 11.52 1.94 12.32-0.16zm-22.59-0.62c1.58-1.58 1.55-10.28-0.1-11.54-1.95-1.54-8.83-2.29-10.89-1.18-1.45 0.77-1.86 2.15-1.86 6.26 0 2.89 0.54 5.8 1.2 6.46s3.27 1.2 5.8 1.2 5.14-0.54 5.8-1.2zm102.63-1.37c1.24-1.24 1.57-3.93 1.57-12.81 0-13.97-0.49-14.86-8.03-14.43l-5.47 0.31-0.3 4.17c-0.23 3.14-0.92 4.57-2.79 5.8-2.35 1.53-2.48 2.08-2.2 9.29 0.27 7.21 0.44 7.7 2.79 8.35 4.84 1.34 12.78 0.97 14.43-0.68zm562.37-0.73c0.8-0.6 1.2-2.53 1-4.61-0.3-3.11-0.7-3.63-3.1-3.91-1.7-0.2-3.7 0.38-4.8 1.4-2.1 1.93-2.5 6.4-0.7 8.2 1.2 1.24 5.4 0.65 7.6-1.08zm-1089.3-5.7v-6.49l-4-1.34c-2.2-0.74-6.02-1.41-8.5-1.5l-4.5-0.17-0.29 5.59c-0.22 4.05 0.12 5.94 1.21 6.85 1.99 1.65 10.42 3.97 13.58 3.74 2.39-0.17 2.5-0.46 2.5-6.68zm501.42 5.6c0.75-0.9 1.06-4.71 0.87-10.75-0.27-8.6-0.47-9.43-2.54-10.34-1.82-0.8-2.25-1.79-2.25-5.21 0-4.51-2.28-6.9-5.43-5.69-1.34 0.51-1.57 2.95-1.57 16.33 0 8.65 0.3 16.03 0.67 16.39 1.24 1.25 9.07 0.69 10.25-0.73zm573.48-4.62c1.7-4.21 2.2-15.55 0.7-17.78-1.2-1.9-2.4-0.1-6 9.08-3.4 8.64-3.6 9.79-1.9 11.52 2.5 2.54 5.5 1.38 7.2-2.82zm-723.6-4.65c0.25-4.26 0-5.26-1.5-5.72-3.1-0.95-45.5-4.75-46.94-4.2-1.77 0.68-1.86 10.15-0.11 11.27 1.72 1.09 33.75 4.13 41.75 3.96l6.5-0.14 0.3-5.17zm283.93 4.42c1.23-1.57 3.27-9.8 3.27-13.17 0-3.42-1.64-3.67-18.5-2.8l-14 0.72v4.5 4.5l23.5 0.56v2.81c0 1.54 0.3 3.1 0.67 3.46 1.09 1.1 4.01 0.76 5.06-0.58zm464.67-2.09c3.1-4.05 3.2-5.83 0.3-11.61-3.7-7.51-4.7-6.51-4.7 4.87 0 5.69 0.4 10.08 0.9 10.08 0.6 0 2.1-1.5 3.5-3.34zm-1038.6-1.52c0.88-0.56 1.21-2.59 1-6.23l-0.31-5.41-3.82-0.31c-2.1-0.18-4.46 0.22-5.25 0.87-1.92 1.59-1.83 8.4 0.14 10.37 1.69 1.68 6.1 2.07 8.24 0.71zm329.98-6.5c9.78-9.57 9.54-10.84-2.02-10.43l-8.27 0.29-0.3 7.41c-0.32 7.97 0.1 10.09 1.89 10.09 0.64 0 4.55-3.31 8.7-7.36zm-359.98 5.5c0.88-0.56 1.21-2.58 1-6.2-0.3-5.22-0.4-5.39-3.72-6.06-5.47-1.11-6.22-0.36-5.89 5.95 0.27 4.99 0.57 5.66 2.8 6.28 3.51 0.97 4.32 0.97 5.81 0zm16-5.05c0.34-6.04-0.44-7.05-5.52-7.07-3.74 0-5.29 2.1-5.29 7.21 0 4.5 1.66 5.92 6.5 5.57l4-0.3 0.31-5.41zm1042.8-1.51c1.4-5.66-2.2-8.98-4.4-4.07-2 4.29-1.5 6.49 1.3 6.49 1.8 0 2.6-0.67 3.1-2.42zm-621.8-3.78c1.69-1.69 1.53-10.28-0.22-11.73-0.82-0.68-3.68-1.05-6.75-0.88l-5.33 0.31-0.3 5.13c-0.21 3.7 0.16 5.58 1.32 6.75 1.92 1.92 9.5 2.2 11.28 0.42zm-22-1c1.69-1.69 1.53-10.28-0.22-11.73-0.82-0.68-3.68-1.05-6.75-0.88l-5.33 0.31-0.31 5.33c-0.17 3.07 0.2 5.93 0.88 6.75 1.45 1.75 10.04 1.91 11.73 0.22zm-22-1c1.69-1.69 1.53-10.28-0.22-11.73-0.82-0.68-3.68-1.05-6.75-0.88l-5.33 0.31-0.31 5.33c-0.17 3.07 0.2 5.93 0.88 6.75 1.45 1.75 10.04 1.91 11.73 0.22zm150.23-4.05c10.42-5.26 12.04-19.47 3.07-27.01-6.17-5.19-14.49-5.45-21.22-0.66-7.27 5.18-7.95 19.02-1.23 25.1 5.76 5.22 12.4 6.09 19.38 2.57zm-12.28-16.32c-3.96-2.15-3.39-2.7 0.75-0.73 3.27 1.56 3.73 1.56 7 0 4.24-2.02 4.7-1.37 0.55 0.77-3.61 1.87-4.78 1.87-8.3 0zm524.55 10.74c0.8-2.02 1.3-4.01 1-4.42-0.7-1.18-4.8-0.88-6.1 0.45-1.5 1.51-1.6 6.04-0.1 7.52 1.8 1.74 3.6 0.48 5.2-3.55zm-1025.9 0.22c2.25-0.86 2.25-10.92 0-11.78-2.61-1-6.94-0.69-8.22 0.59-1.47 1.47-1.57 7.24-0.16 9.87 1.04 1.94 5.1 2.58 8.38 1.32zm-29.61-1.25c0.88-0.56 1.21-2.59 1-6.23l-0.31-5.41-4.75-0.3-4.75-0.31v5.59c0 4.86 0.29 5.7 2.25 6.49 2.88 1.16 4.92 1.21 6.56 0.17zm16-4.61c0.35-5.42-1.17-7.53-5.43-7.53-3.3 0-5.38 2.65-5.38 6.87 0 4.86 1.57 6.29 6.5 5.93l4-0.3 0.31-4.97zm298.69-3.03v-5l-5.23-0.89c-6.49-1.1-8.27 0.1-8.27 5.46 0 4.79 1.82 6 8.5 5.67l5-0.24v-5zm47.46 3.57c1.45-2.7 1.3-10.62-0.21-11.81-0.69-0.54-3.34-1.26-5.9-1.59-6.03-0.78-7.04 0.44-6.65 8 0.3 5.8 0.32 5.83 3.8 6.45 6.31 1.11 7.91 0.92 8.96-1.05zm-72.46-5.57v-5l-4.84-0.94c-5.54-1.06-7.98-0.1-8.49 3.39-0.92 6.17 1.26 7.96 9.33 7.69l4-0.14v-5zm768.2-0.76c1.7-1.29 1.7-6.2 0-7.58-1.4-1.13-5.3-0.55-7.5 1.11-1.5 1.23-1.6 5.95 0 7.51 1.2 1.23 5.4 0.66 7.5-1.04zm-746.28-16.35c1.19-0.45 1.58-2.04 1.58-6.37 0-6.94-1.21-8.26-7.18-7.83l-4.32 0.31v6.5 6.5l4 0.61c2.2 0.33 4.08 0.67 4.17 0.75 0.1 0.1 0.88-0.13 1.75-0.47zm242.37-22.52c0.43-2.26-16.88-38-18.21-37.59-0.59 0.19-2.58 3.16-4.42 6.6-3.01 5.63-3.22 6.56-2.13 9.19 1.43 3.45 3.45 3.78 5.03 0.82 1.47-2.74 1.92-2.15 6.9 9.11 5.76 13.01 6.6 14.19 9.84 13.81 1.51-0.17 2.82-1.02 2.99-1.94zm-30.01-64.31c0.16-6.57 0.1-12.55-0.23-13.29-0.93-2.41-4.19 0.36-6.95 5.91-2.01 4.04-2.6 6.71-2.6 11.85 0 3.65 0.32 6.96 0.71 7.35 0.4 0.39 2.53 0.58 4.75 0.42l4.04-0.3 0.28-11.94zm12.18-24.01c1.18-1.42 0.59-5.55-0.8-5.55-1.09 0-0.52-12.17 0.73-15.32 0.61-1.54 1.11-4.36 1.11-6.25 0-2.78-0.38-3.43-2.02-3.43-2.26 0-3.12 1.74-5.14 10.42-0.8 3.44-2.05 6.16-3.09 6.71-2.41 1.29-2.27 5.57 0.2 6.36 1.67 0.53 1.8 0.97 0.86 3.03-0.84 1.83-0.79 2.79 0.17 3.95 1.6 1.94 6.4 1.98 7.98 0.1zm-131.96 411.85c-9.07-0.7-19.88-1.7-24-2.1l-7.5-0.8-0.29-7.7-0.29-7.8h3.48c3.47 0 25.67 1.6 32.87 2.4 4.98 0.6 6.12-0.7 9.2-10.5 2.28-7.2 2.53-9.6 2.53-24.3 0-8.9 0.22-16.5 0.49-16.8 0.28-0.2 1.85-0.3 3.5-0.1l3.01 0.5v17 17l4.5 16.4c2.48 9 4.5 16.8 4.5 17.4 0 1.3-11.44 1.1-32-0.6zm-0.25-43.2c-2.72-0.3-2.75-0.4-2.75-7.8v-7.4h3.5 3.5v7.4c0 4.1-0.34 7.6-0.75 7.8s-1.99 0.2-3.5 0zm34.96 0.2c-0.39-0.4-0.71-3.2-0.71-6.1v-5.4l9.5 0.6v5.5 5.5l-4.04 0.3c-2.22 0.2-4.35 0-4.75-0.4zm-56.71-9.5c0-7.9 0.1-8.1 2.25-7.5 1.24 0.3 2.81 0.6 3.5 0.6 0.89 0 1.25 2.2 1.25 7.5v7.5h-3.5-3.5v-8.1zm75-8.3c0-3.8 0.97-4.9 3.41-4 1.02 0.4 1.59 1.8 1.59 4 0 3-0.32 3.4-2.5 3.4s-2.5-0.4-2.5-3.4zm367.78-50.7c-2.97-5.8-4.39-9.7-3.82-10.3 0.49-0.6 2.89-2.2 5.33-3.5l4.44-2.4 12.5 4.3c6.87 2.3 14.23 5.2 16.35 6.4 3.43 1.9 11.4 10.9 11.41 12.9 0 0.4-5.32 0.7-11.84 0.7-6.51 0-15.85 0.3-20.75 0.6l-8.9 0.7-4.72-9.4zm88.89 1.4c-0.37-0.3-0.67-1.9-0.67-3.4 0-3.1 1.3-4.1 7.25-5.7l3.75-1v3.2c0 2.8-0.55 3.5-4.53 5.4-5.11 2.5-4.9 2.4-5.8 1.5zm-159.6-9.7-2.28-2.4 3.86-1.1c4.53-1.3 6.66-1.4 6.15-0.3-3.54 7.2-4.19 7.5-7.73 3.8zm178.1-0.7c0.18-1.3 1.14-2.5 2.16-2.7 1.42-0.3 1.76 0.2 1.5 2-0.18 1.2-1.14 2.4-2.16 2.6-1.42 0.3-1.76-0.1-1.5-1.9zm-207.59-5.3c6.83-6.01 8.09-6.39 11.14-3.3 2.94 2.9 3.32 2.6-5.87 5.1-8.79 2.5-9.78 2.1-5.27-1.8zm220.02 1.7c-0.7-0.7 1.3-3.3 2.5-3.3 0.5 0 0.9 0.6 0.9 1.4 0 1.5-2.4 2.8-3.4 1.9zm-132.1-5.3c-1.77-1.96-1.75-2 1.1-1.98 1.59 0 3.57 0.45 4.4 1 1.33 0.88 1.33 1.08 0 1.98-2.23 1.5-3.49 1.2-5.5-1zm-68.97-1.96c-1.58-1.66-2.65-3.25-2.37-3.53 0.29-0.29 4.22-1.26 8.73-2.17 7.97-1.6 8.3-1.59 10.85 0.32 1.45 1.08 2.78 2.41 2.97 2.96 0.18 0.55-3.17 1.83-7.44 2.83-4.27 1.05-8.24 2.05-8.81 2.25s-2.34-1-3.93-2.66zm101.22 0.8c-1.51-0.55-2.75-1.42-2.75-1.92 0-1.56 2.66-1.02 5.14 1.05 2.58 2.13 1.85 2.43-2.39 0.87zm-25.6-6.88c-4.04-1.01-7.6-2.08-7.9-2.38-0.72-0.72 10.27-5.59 12.53-5.56 2.19 0 11.47 5.13 11.93 6.56 0.43 1.34-4.05 3.46-7.01 3.31-1.21-0.1-5.51-0.93-9.55-1.93zm-49.44-0.58c-1.49-1.49-0.6-2.38 2.37-2.38 2.02 0 2.94 0.43 2.68 1.25-0.47 1.42-3.98 2.2-5.05 1.13zm-3.21-10.38c2.8-1.2 7.5-1.2 7.5 0 0 0.55-2.14 0.97-4.75 0.93-3.57 0-4.25-0.28-2.75-0.93z"/>
<path d="m-348.56 1134.9c-14.14-1.1-12.68-23.8-13.23-36.9-2.44-19.4 26.44-10.5 12.48-38.6-33.2-8.1-104 16.2-89.75-39.5 3.2-25.37-10.99-14-6 4.8 6.04 19.8-5.12 27.6-14 31.9 30.88 13.4 2.85 33.7-18.78 26.5-13.17 27.7 44.73 18 19.32 44.2-23.5-18.2-52.79-44-58.75-58.9-29.4 5.9-26.25-27.5-53.96-22.6-9.76-21.5-29.25-10.1-47.95-25-8.83-10.5-1.71-31.05-4.2-45.57 10.08-17.87-18.53-39.03-14.68-12.31 3.15 23.66-0.1 66.68-25.25 33.49-24.27-3.47-55.32-8.09-46.05-39.35-6.53-27.89 7.48 46.24-21 18.47-32.67 0.66-48.2-30.1-44.44-47.22 3.25 37.22-5.88 25.18-27.93 16.32-14.07-7.32-24.09-0.19-36.33-5.11-0.95-15.7 2.25-34.72-21.19-32.2-17.49 9.65 25.7 20.79 3.78 27.23-46.57-16.16-11.01-91.38-22.58-131.81 0-63.96-0.14-127.92 0.33-191.88 79.46 23.77 155.41 62.82 214.3 122.06 103.4 18.78 204.27 52.29 299.01 98.23 12.36-4.04 30.52 2.25 28.44 7.82-12.66-28.62-71.31-36.95-101.95-55.17-41.86-17.91-86.29-30.11-128.92-44.85 85.83-39.62 181.51-54.08 275.4-58.08 13.87-25.85-11.66-14.85 4.44-43.06 16.57 3.67-3.41-31.93 14.34-5.02-13.85 34.57 2.53 58.9 40.98 48.86 70.34 4.43 142.75 13.25 207.4 42.34-71.433 28.18-144.66 52.82-214.54 85.14 1.02 30.57 55.91-17.1 80.29-19.44 65.074-27.05 132.98-48.33 198.42-73.48 74.293-64.08 167.82-100.72 261.24-126.93 3.68 116.5 1.36 233.6 1.13 350.33-8.41 36.77-21.9-24.4-30.13 9.45-25.36 27.34-79.69 28.52-115.53 48.38-28.16 25.36-10.64-43.03-25.16-4.89-28.09 25.05-38.687-43.12-52.489 3.25-22.327 27.4 31.879 14.2-0.08 36.8-34.761-30.1-74.226-73.18-128.05-57.34-20.244 6.31-78.244 25.04-63.894 49.34 6.3-17.7 75.222-9.3 33.388 2.7-39.818 5.6 0.418 5.1 8.377 7.9-9.131 36.1 29.063-7.1 19.833-16.5 6.77-54.53 64.273-9.7 47.57 12.7-58.675 11.3 30.143 3.9 47.899 3.5 33.199-1.8 21.595 5.7 1.931 13.5-23.271 30.7-33.045 21.9-40.87 1.5-2.3191 14.3 5.5605 33-9.92 41.5-11.819 11.3-31.157 43.1-42.17 12.5-6.407 36.7-49.833 20.8-46.06 13-30.118 24.3-81.978 12.4-120.6 16.7 22.54-50.1-50.44 36-26.59-15.2-16.59-6.3-47.28 40.6-32.79 1.1-25.17-4.9-31.87 30.7-63.04 15.9 2.13-5.2-11.96 3.4-11.45-0.5zm28.5-32.4c5.08-37.3-29.14 19.6 0 13.4v-13.4zm161.8 8.7c11.07-26.8-22.14-0.7 0 0zm20.7-7.3c-6.33-19.2-10.36 21.4 0 0.3v-0.3zm-38.5 1c-12.21-20.2-1.74 16.5 0 0zm72.91-11.1c15.511-18.5-28.58-4-4.48 7.1l4.48-7.1zm-139.91-10c-1.28-27.9 16.29-10.3 17.02 1.7 33.67 10.9 11.48-32.3 35.65-33.7-1.13-7.8-31.99-18.6-3.89-26.1 13.17-10-4.51-31.46-13.55-41.57-5.82 27.67-47.2 53.17-55.32 17.77-10.46 23.3 4.46 48.7-8.29 63.7-23.41-11.4-24.67-0.7-11.64 15.4 22.36-21.7 19.36 38.5 40 11.5v-8.7zm-15.55-8.2c-8.54-26.1 19.72-21.4 11.05 0.8-3.49-0.4-8.06 1.8-11.05-0.8zm33.65 0.3c-14.02-26.2 28.61-26.2 14.69-0.6l-7.95 0.9-6.74-0.3zm-33.67-29.4c-7.63-44.2 32.53 0.2 0 0zm17.24 0.7c-11.64-35.1 26.05-11.8 4.08 0.6l-4.08-0.6zm15.76-1.7c-13.07-34.1 40.39-12.2 7.42 1.4l-7.42-1.3v-0.1zm12.24-28.3c-8.59-28.6 20.53-26.36 9.75 0 0.53 5.9-9.85-3.4-9.75 0zm151.97 71.4c11.334-17-26.725-3.3-4.85 7.2l4.85-7.2zm-116.39-4.7c11.66-23-21.24-1.5 0 0zm21.55-6.8c-8.01-20.7-12.08 21.3 0 0.1v-0.1zm134.02 4.9c5.594-22.2-16.912 4.1 0 0zm-116.4-0.8c10.33-22.7-22.19-0.5 0 0zm42.39-17.1c-10.35-17.1-16.8 15.6-0.123 1.7l0.123-1.7zm56-7.1c-3.808-16.2-11.374 17.5 0 0zm19 0c-3.808-16.2-11.374 17.5 0 0zm-450.81-18.6c-1.2-48.98-29.1 18.5-0.32 16.5 0.7-4.8 0.14-11.1 0.32-16.5zm319.79 6c-5.87-33.5-24.75 19.2-0.29 9 0.1-3 0.19-6 0.29-9zm20.08 7.8c14.96-16.2-14.92-30.1-6.09-0.3l2.06 0.9 4.03-0.6zm-368.06-5.6c-9.7-17.4-5.99 15.9 0 0zm-19-2c-8.67-16.4-6.06 15.6 0 0zm143.19-10.7c13.14-9.1 19.89-22.1 16-42.13-4.78-21.21 3.29-75.44 9.74-27.25 5.29 13.53-8.9 44.48 8.76 46.88 7.48 51.3 0.1-67.12 17.45-23.97-3.05 22.27 5.49 42.77 4.32 7.58-7.35-20.58 18.26-22.69 11.45-1.04-1.39 42.93 16.11 18.73 10.14-11.13 9.83-31.32-29.24-15.31-46.66-21.18-6.56-10.22 8.62-59.58-11.7-42.8-2.95 13.71-7.13 23.88-27.42 18.2-18.16-3.08-31.04-0.84-25.08 20.5v61.04c21.7-5.3 24.57 11.2 32.54 18.7l0.46-3.4zm1.75-24.1c-10.07-37.99 28.2 1.1 0 0zm-14.55-0.8c-9.36-36.56 28.58 2.4 0 0zm0.55-22.22c-11.11-39.24 28.19 1.82 0 0zm12.88-0.45c-3.89-38.77 24.89 9.59 0 0zm-28.19-0.77c-6.98-31.43 24.29-0.16 1.43 1.01l-1.43-1.01zm15.81-20.73c-12.57-36.43 27.21-0.45 0 0zm12.38-0.5c-3.89-38.77 24.89 9.59 0 0zm-27.43-0.3c-8.52-32.71 24.24 0.83 0 0zm-143.2 60.07c-18.79-14.4-21.27 26 0 0zm46-1.7c-8.9-17.6-6.68 15.6 0 0zm-19-2c-7.8-17.4-8.41 15.2 0 0zm369.8-5.2c-5.2-26.63-29.68-14-17.2 3.6 4.74-1.9 17.46 3.3 17.2-3.6zm-435-8c6.14-26.01-40.82 8.8 0 0zm120.2-2.2c-16.16-4.7-62.26-4.5-20-1.2 6.5-0.2 13.63 3 20 1.2zm-82.96-1.7c-5.72-18.56-27.56 9.3 0 0zm418.01-10.54c3.28-16.74-9.18 13.34 0 0zm-338.3-2.62c-12.2-1.47-2.41 1.49 0 0zm198.75-15.78c-6.7-21.75-4.95 21.57 0 0zm-391.5 2.57c-16.21-15.12-61.81-4.5-14.6 0.95 3.74-0.51 14.01 5.47 14.6-0.95zm113.83-1.45c-17.52-19.66-22 12.36 0 0zm21.17-11.62c-1.03-43.93-8.12 32.19 0 8.39v-8.39zm67-4.87c-2.23-44.11-3.87 1.01-1 19.37 1.29-6.38 0.79-12.92 1-19.37zm18.77-0.47c-2-47.93-3.73-1.78-1.27 20.01 1.41-6.58 0.96-13.34 1.27-20.01zm-62.82 3.34c-2.27-43.02-3.69 21.34-0.27 9.97l0.27-9.97zm13.02-0.31c-2.77-47.32 3.22 2.78-0.25 11.18l0.19-4.93 0.1-6.25zm14.81-0.25c-1.51-42.48-4.53-0.95-1.28 16.23 1.35-5.31 0.99-10.82 1.28-16.23zm535.02 11.31c-4.061-16.81-14.237 16.65-0.136 2.15l0.136-2.15zm-575.85-24.54c-0.31 14.38 0.91 43.03 0.86 9.49l-0.12-4.65-0.74-4.84zm291.05 23.27c-15.03-22.68-9.71 22.91 0 0zm52.8 0.82c-13.12-24.94-14.15 20.94 0 0zm-409.8-1.22c-32.92-26.32-20.96 22.06 0 0zm453.75 1.29c12.31-26.26-16.79-5.17 0 0zm306.75-4.66c44.33-12.44-35.13-6.26-10.27 2.29l4.73-1.04 5.54-1.25zm-286.5-4.39c-6.32-18.3-5.94 19.91 0 0zm186.83 4.58c4.554-14.92-10.833 12.56 0 0zm-143.33-13.48c-4.619-44.86-3.091 45.27 0 0zm-659.5 11.12c-13.25-16.89-15.74 9.23 0 0zm512.83 1.66c-7.28-20.56-27.22-41.61-29.53-11.16 10.52-30.14 18.89 5.35 29.53 11.16zm52.17 0.32c-7.15-20.9-27.01-40.48-29.69-11.49 14.31-34.91 16.32 7.72 29.69 11.49zm67-6.71c-5.295-16.09-4.782 17.91 0 0zm119 0.3c-2.503-17.22-63.809-1.33-19.486 3.13 5.3612-1.73 22.157 9.28 19.486-3.13zm-776-0.63c-15.22-16.85-16.5 9.14 0 0zm894.8-1.23c-22.04-22.04-16.37 9.22 0 0zm-86-9.51c-8.2-17.04-10.97 19.42 0 0zm160.2 3.87c20.36-33.17-29.9 7.85 0 0zm-881-3.13c-19.71-19.22-14.87 11.61 0 0zm95.79-6.75c-16.99-40.67-22.65 31.95 0 0zm649.01 7.07c6.775-21.31-20.065 5.62 0 0zm-112.8-4.8c-11.557-21.32-8.94 22.42 0 0zm-657 0.11c-18.09-17.62-15.7 11.19 0 0zm795.25 1.21c5.38-26.44-22.869 7.88 0 0zm-236.44-3.18c4.68-38.15-16.76 6.06 0 0zm379.19-5.14c-10.48-31.52-11.6 27.17 0 0zm-852-1.45c-1.75-16.7-21.17-2.73-0.42 6.45l0.42-6.45zm492-0.12c-7.57-19.22-6.76 21.3 0 0zm290.8-1.8c-16.34-14.52-34.12 18.26-1.65 2.77l1.65-2.77zm-906.99 3.13c-13.89-16.09-13.86 11.25 0 0zm630.01 0.74c-6.521-7.8 0.371 8.83 0 0zm-197.02-4.75c-6.98-23.84-3.49 22.3 0 0zm21.7-0.25c-6.7-21.75-4.95 21.57 0 0zm279 4.01c44.203-6.06-10.094-16.9-19.31-2.25-1.757 8.61 15.834 0.21 19.31 2.25zm-493.4-8.67c15.53-3.08 31.07-6.17 46.6-9.25 13.74-6.49 26.82-25.61 1.45-10.07-27.93 15.45-82.89 8.03-96.51 28.56 16.21-2.74 32.39-6.05 48.46-9.24zm629.9 6.72c-19.75-22.23-20.36 6.09 0 0zm-895.18-2.32c-14.58-16.45-16.64 9.44 0 0zm806.05-1.87c14.097-17.07-19.099-4.31 0 0zm27.38-4.05c6.41-22.15-21.748 5.2 0 0zm136.75-8.94c-1.33-22.68-11.58 14.49-16.57-6.22-26.84 1.18 22.81 29.57 16.57 6.22zm-874-14.09c10.82-33.63-18.69-16.13-13.25 1.25 7.96 8.77 12.25 39.04 13.24 6.07v-7.32zm-134 20.25c-20.33-17.54-13.29 11.77 0 0zm715-3.51c-4.085-18.25-5.741 20.82 0 0zm16.99 2.22c-4.864-25.01-8.348 13.26 0 0zm28.82 1.15c16.318-20.88-41.412 4.11 0 0zm135.69-4.42c-9.04-15.74-9.36 18.47 0 0zm-278-0.96c-8.94-21.15-13.47 21.93 0 0zm20.5-1.14c-12.24-16.75-5.81 19.28 0 0zm398.8-5.69c-10.85-24.65-21.31 25.94-0.19 4.59l0.11-2.6 0.1-1.99zm-936 3.06c-7.39-26.24-19.44 22.15 0 0zm-127.8 3.29c-20.61-18.68-14.55 11.38 0 0zm589.07-4.24c-2.49-13.04-13.19 10.9 0 0zm-100.27-5.63c-3.54-23.13-10.52 19.13 0 0zm329.2 3.27c-7.5498-14.66-8.1932 15.18 0 0zm-625-4.38c-13.14-33.78-22.4 21.76 0 4.84v-2.61-2.23zm766 5c-20.15-22.29-19.93 6.01 0 0zm-861.02-4.81c2.89-33.33-23.26-26.66-17.48 2.73 5.65 0 19.36 7.7 17.48-2.73zm991.92-2.63c14.17-24.96-23.59 16.26 0 0zm-661.9-0.37c-9.88-1.41-6.18 13.52 0 0zm443.75 3.7c9.232-22.64-23.767 3.88 0 0zm-161.75-5.98c-4.99-23.2-2.23 19.91 0 0zm132.77-14.29c4.517-22.32-9.172-23.56-5.525-0.46-4.84 18.67 8.14 28.63 5.473 4.17l0.04-2.61 0.02-1.1zm-794.77 17.91c-16.28-18.37-14.32 5.3 0 0zm194-12.04c3.34-26.1-28.62-10.27-7 4.82 3.55 21.07 9.57 2.77 7-4.82zm70.5 8.95c-10.21-12.67-74.7-3.36-24.21 1.97 5.98-2.1 23.11 7.43 24.21-1.97zm17.5-15c1.29-26.55-5.59-18.11-0.26 14l0.19-5.97 0.1-8.03zm396.82 12.54c2.953-28.37-14.567 21.93 0 0zm169.93 4.91c9.232-22.64-23.767 3.88 0 0zm25.75-7.47c-5.42-16.43-10.629 18.28 0 0zm-246.85-1.04c1.44-28.2-9.55 22 0 0zm76.35-8.58c0.04-35.71-6.618 23.98-0.28 9.94l0.28-9.94zm-397.19 8.25c-8.98-22.09-8.39 21.22 0 0zm-346-0.86c-5.89-13.89-6.6 13.68 0 0zm14.69 0.25c-6.96-14.39-6.17 13.86 0 0zm778.5 3.4c-0.468-16.42-17.527 7.34 0 0zm-808.5-4.4c-7.34-14.49-5.44 13.45 0 0zm599.3 2.8c-3.96-18.99-41.49 7.62-3.67 0.79l3.67-0.79zm-71.01-7.55c-6.92-27.9-3.5 28.05 0 0zm22.21 1.33c-3.07-28.02-10.92 18.35 0 3.82v-2.61-1.21zm-114.2-5.84c-5.46-19.31-13.1 16.05 0 0zm-22.3-0.74c-11.33-19.72-7.16 17.12 0 0zm-21.7-1.26c-5.46-19.31-13.1 16.05 0 0zm-423.8-1.74c-20.66-25.22-14.8 16.7 0 0zm500.79-4.27c-8.22-54.39-10.04 31.41 0 0zm26.21-2.12c-0.16-35.75-27.72 26.27 0 8.82v-8.82zm-176.5 2.39c-10.26-12.46-74.72-3.23-24.2 2.01 5.99-2.09 23.09 7.37 24.2-2.01zm286.18-2.57c-1.26-17.82-51.96 2.51-8.19-1.03 7.16-3.71 2.94 15.02 8.19 1.03zm-589.87-2.68c-5.89-13.89-6.6 13.68 0 0zm15 0.5c-7.41-13.65-5.61 13.96 0 0zm-30-1c-7.52-14.22-4.98 13.41 0 0zm362-3.53c-0.94-26.33-19.33 23.74 0 0zm51.69-7.72c-11.43-19.72-6.97 16.98 0 0zm22.5 0.5c-10.46-21.95-11.14 20.93 0 0zm-44.5-1.58c-10.49-19.35-8.39 16.73 0 0zm148.67 1.05c36.37-14.84-22.77-38.94-9.73-20.2 30.15-1.87 2.69 12.25-8.5 5.66-0.1 9.04 8.65 18.85 18.23 14.54zm-525.67-10.97c-7.34-14.49-5.44 13.45 0 0zm15.31 0.25c-7.41-13.65-5.61 13.96 0 0zm-30-1c-8-13.91-4.62 13.42 0 0zm313.69-1.83c-13.47-14.9-8.86 13.5 0 0zm47.3-2.17c-10.06-21.16-10.28 20.81 0 0zm-71.98 0c-12.94-13.77-10.72 12.67 0 0zm23.18-23.64c-8.76-17.5-8.6 16.23 0 0zm239.5-18.62c-6.93-29.01-29.63-34.24-7.43-10.09-0.33-6.65 6.4 19.44 7.43 10.09zm-28.5-61.49c-6.84-33.16-5.27 37.08 0 0zm11.77-26.31c-4.76-4.65-3.55 5.19 0 0zm-1.77-8.19c-6.58-3.7-6.58 3.7 0 0zm-138.78 423.94c-41.58 4.2-18.56-37.5 12.44-20.5 19.67 0.8 5.42-79.2 24.28-39-2.25 20.8 3.1 40.5 9.05 60.3-14.9 2.9-30.75-0.1-45.77-0.8zm-79.72-9c-128.01-17.1-254.16-47.9-375.5-92.1v-90.1c140.25 39.38 284.48 86.9 396.98 183-6.06 3.6-15.08-1.6-21.48-0.8zm497.5-12.3c75.469-78.3 183.96-110.71 284.79-143.04 31.18-21.09 22.2 12.08 23.21 30.97 1.33 20.17 3.63 41.17-24.07 40.97-92.13 31.7-186.99 56.7-283.13 72.1l-0.7981-1zm-370-20.5c-22.25-23.5 29.14-13 0 0zm-41.25-1.2c-12.95-42.4 32.56-2.3 0 0zm-16.5-0.7c-24.75-27.1 31.75-25.4 0 0zm71.38-14.8c-0.6-31 24.23 11.1 0 0zm373.72-43.2c-41.273-45.55 61.077-23 38.572-1.3-12.844 0.2-25.769 1.4-38.572 1.3zm83.32-6.9c-5.874-29.86 39.18-8.7 0 0zm-159.66-11.3c-6.704-14.93 29.815-8.6 5.05 4l-5.05-4zm178.66 2.3c-4.56-21.72 21.94-2.8 0 0zm-214.67-3.7c19.576-33.28 40.951 6.3 0 0zm226.4-3.1c3.37-19.59 16.85 5.4 0 0zm-131.7-5.3c-6.518-19.44 26.815 10.3 0 0zm33.5 0.1c-22.88-18.58 32.619 9 0 0zm-103.12-2.23c-6.88-23.17 51.851 1.03 9.401 3.43-3.444 1.3-7.663-0.1-9.401-3.43zm82.42-3.62c-47.889-9.42 39.729-22.57 5.78 1.42l-5.78-1.42zm-55.92-3.41c-0.953-16.87 24.159 5.82 0 0zm-7.83-6.88c-3.977-17.8 48.021 1.39 0 0z" fill-opacity=".49246"/>
</g>
</g>
</svg>
