<?xml version="1.0" encoding="UTF-8" standalone="no"?>
<!-- Created with Inkscape (http://www.inkscape.org/) -->

<svg xmlns:dc="http://purl.org/dc/elements/1.1/" xmlns:cc="http://creativecommons.org/ns#" xmlns:rdf="http://www.w3.org/1999/02/22-rdf-syntax-ns#" xmlns:svg="http://www.w3.org/2000/svg" xmlns="http://www.w3.org/2000/svg" xmlns:sodipodi="http://sodipodi.sourceforge.net/DTD/sodipodi-0.dtd" xmlns:inkscape="http://www.inkscape.org/namespaces/inkscape" width="250" height="91" viewBox="0 0 250 91" id="svg2" version="1.1" inkscape:version="0.91 r13725" sodipodi:docname="smartklub.svg">
  <defs id="defs4" />
  <sodipodi:namedview id="base" pagecolor="#ffffff" bordercolor="#666666" borderopacity="1.0" inkscape:pageopacity="0.0" inkscape:pageshadow="2" inkscape:zoom="2.8" inkscape:cx="133" inkscape:cy="20.681" inkscape:document-units="px" inkscape:current-layer="layer1" showgrid="true" inkscape:window-width="1280" inkscape:window-height="751" inkscape:window-x="0" inkscape:window-y="1" inkscape:window-maximized="1" units="px" guidetolerance="10000" objecttolerance="10000" showguides="false" inkscape:snap-perpendicular="true" inkscape:snap-tangential="true">
    <inkscape:grid type="xygrid" id="grid4224" dotted="false" />
  </sodipodi:namedview>
  <metadata id="metadata7">
    <rdf:RDF>
      <cc:Work rdf:about="">
        <dc:format>image/svg+xml</dc:format>
        <dc:type rdf:resource="http://purl.org/dc/dcmitype/StillImage" />
        <dc:title></dc:title>
      </cc:Work>
    </rdf:RDF>
  </metadata>
  <g inkscape:label="Layer 1" inkscape:groupmode="layer" id="layer1" transform="translate(0,-961.4)">
    <text xml:space="preserve" style="font-style:normal;font-variant:normal;font-weight:normal;font-stretch:normal;font-size:7.5016px;line-height:125%;font-family:'Source Code Pro';-inkscape-font-specification:'Source Code Pro, Normal';text-align:start;letter-spacing:0px;word-spacing:0px;writing-mode:lr-tb;text-anchor:start;fill:#ffffff;fill-opacity:1;stroke:none;stroke-width:1px;stroke-linecap:butt;stroke-linejoin:miter;stroke-opacity:1" x="86.376556" y="1016.3862" id="text4171" sodipodi:linespacing="125%"><tspan sodipodi:role="line" id="tspan4173" x="86.376556" y="1016.3862" style="font-style:normal;font-variant:normal;font-weight:500;font-stretch:normal;font-size:7.26718px;font-family:'Helvetica Neue';-inkscape-font-specification:'Helvetica Neue Medium';letter-spacing:0.20254px;fill:#ffffff;fill-opacity:1">Empowering Cities Together</tspan></text>
    <path inkscape:connector-curvature="0" id="path4184" style="font-style:normal;font-variant:normal;font-weight:bold;font-stretch:normal;font-size:81.25px;line-height:125%;font-family:'Helvetica Neue';-inkscape-font-specification:'Helvetica Neue Bold';text-align:start;letter-spacing:2.5px;word-spacing:0px;writing-mode:lr-tb;text-anchor:start;fill:#ffffff;fill-opacity:1;stroke:none;stroke-width:1px;stroke-linecap:butt;stroke-linejoin:miter;stroke-opacity:1" d="m 89.06,1003 -2.31,0 q 0,1 0.36,1.7 0.38,0.7 1.02,1.2 0.66,0.5 1.5,0.7 0.85,0.2 1.75,0.2 1.11,0 1.95,-0.2 0.85,-0.3 1.42,-0.8 0.57,-0.4 0.87,-1.1 0.28,-0.6 0.28,-1.3 0,-1 -0.39,-1.5 -0.38,-0.6 -0.92,-1 -0.53,-0.3 -1.08,-0.5 -0.53,-0.2 -0.84,-0.2 -1.02,-0.28 -1.66,-0.45 -0.62,-0.17 -0.99,-0.34 -0.35,-0.16 -0.47,-0.35 -0.12,-0.2 -0.12,-0.52 0,-0.35 0.15,-0.58 0.15,-0.23 0.38,-0.38 0.25,-0.15 0.53,-0.22 0.29,-0.1 0.58,-0.1 0.45,0 0.81,0.1 0.38,0.1 0.67,0.26 0.29,0.18 0.46,0.5 0.18,0.32 0.21,0.81 l 2.32,0 q 0,-0.95 -0.37,-1.6 -0.35,-0.67 -0.96,-1.1 -0.61,-0.43 -1.4,-0.61 -0.78,-0.2 -1.63,-0.2 -0.73,0 -1.46,0.2 -0.73,0.2 -1.31,0.61 -0.58,0.41 -0.95,1.04 -0.35,0.61 -0.35,1.44 0,0.76 0.28,1.27 0.29,0.52 0.74,0.92 0.46,0.3 1.04,0.6 0.58,0.2 1.19,0.3 0.59,0.2 1.17,0.3 0.58,0.2 1.04,0.4 0.45,0.1 0.73,0.4 0.29,0.3 0.29,0.7 0,0.4 -0.22,0.7 -0.21,0.3 -0.53,0.4 -0.32,0.2 -0.68,0.2 -0.37,0.1 -0.69,0.1 -0.47,0 -0.91,-0.1 -0.45,-0.1 -0.78,-0.4 -0.32,-0.2 -0.52,-0.6 -0.2,-0.4 -0.2,-0.9 z" />
    <path sodipodi:nodetypes="cccccccccccccc" inkscape:connector-curvature="0" id="path4186" style="font-style:normal;font-variant:normal;font-weight:bold;font-stretch:normal;font-size:81.25px;line-height:125%;font-family:'Helvetica Neue';-inkscape-font-specification:'Helvetica Neue Bold';text-align:start;letter-spacing:2.5px;word-spacing:0px;writing-mode:lr-tb;text-anchor:start;fill:#ffffff;fill-opacity:1;stroke:none;stroke-width:1px;stroke-linecap:butt;stroke-linejoin:miter;stroke-opacity:1" d="m 97.78,995.7 0,10.9 2.24,0 0,-6.9 2.93,4.2 3.21,-4.28 0,6.98 2.24,0 0,-10.9 -2.25,0 -3.15,4.07 0,0 -3.01,-4.07 z" />
    <path inkscape:connector-curvature="0" id="path4188" style="font-style:normal;font-variant:normal;font-weight:bold;font-stretch:normal;font-size:81.25px;line-height:125%;font-family:'Helvetica Neue';-inkscape-font-specification:'Helvetica Neue Bold';text-align:start;letter-spacing:2.5px;word-spacing:0px;writing-mode:lr-tb;text-anchor:start;fill:#ffffff;fill-opacity:1;stroke:none;stroke-width:1px;stroke-linecap:butt;stroke-linejoin:miter;stroke-opacity:1" d="m 114.43,1002 1.41,-3.62 1.41,3.62 z m 0.23,-6.3 -4.49,10.9 2.4,0 0.86,-2.4 4.82,0 0.82,2.4 2.48,0 -4.44,-10.9 z" sodipodi:nodetypes="ccccccccccccc" />
    <path inkscape:connector-curvature="0" id="path4190" style="font-style:normal;font-variant:normal;font-weight:bold;font-stretch:normal;font-size:81.25px;line-height:125%;font-family:'Helvetica Neue';-inkscape-font-specification:'Helvetica Neue Bold';text-align:start;letter-spacing:2.5px;word-spacing:0px;writing-mode:lr-tb;text-anchor:start;fill:#ffffff;fill-opacity:1;stroke:none;stroke-width:1px;stroke-linecap:butt;stroke-linejoin:miter;stroke-opacity:1" d="m 125.37,1001 0,-3.1 2.62,0 c 0.55,0 0.96,0.12 1.23,0.36 0.28,0.24 0.41,0.62 0.41,1.15 0,0.55 -0.13,0.99 -0.41,1.19 -0.27,0.2 -0.68,0.4 -1.23,0.4 z m -2.4,-5.3 0,10.9 2.4,0 0,-3.5 1.82,0 2.76,3.5 2.77,0 -2.99,-3.8 c 0,0 1.52,-0.8 1.95,-1.5 0.44,-0.6 0.48,-1.45 0.48,-2.09 0,-0.42 -0.21,-1.21 -0.36,-1.56 -0.15,-0.37 -0.36,-0.79 -0.64,-1.06 -0.28,-0.28 -0.61,-0.49 -1.01,-0.64 -0.38,-0.17 -0.82,-0.25 -1.31,-0.25 z" sodipodi:nodetypes="ccscscsccccccccczscccsc" />
    <path inkscape:connector-curvature="0" id="path4192" style="font-style:normal;font-variant:normal;font-weight:bold;font-stretch:normal;font-size:81.25px;line-height:125%;font-family:'Helvetica Neue';-inkscape-font-specification:'Helvetica Neue Bold';text-align:start;letter-spacing:2.5px;word-spacing:0px;writing-mode:lr-tb;text-anchor:start;fill:#ffffff;fill-opacity:1;stroke:none;stroke-width:1px;stroke-linecap:butt;stroke-linejoin:miter;stroke-opacity:1" d="m 136.58,997.71 0,8.89 2.39,0 0,-8.89 3.26,0 0,-2.01 -8.91,0 0,2.01 3.26,0 z" />
    <path inkscape:connector-curvature="0" id="path4194" style="font-style:normal;font-variant:normal;font-weight:bold;font-stretch:normal;font-size:81.25px;line-height:125%;font-family:'Helvetica Neue';-inkscape-font-specification:'Helvetica Neue Bold';text-align:start;letter-spacing:2.5px;word-spacing:0px;writing-mode:lr-tb;text-anchor:start;fill:#ffffff;fill-opacity:1;stroke:none;stroke-width:1px;stroke-linecap:butt;stroke-linejoin:miter;stroke-opacity:1" d="m 144,995.7 0,10.9 2.39,0 0,-3.2 1.37,-1.3 3.66,4.5 3,0 -5.04,-6.2 4.63,-4.7 -2.99,0 -4.63,4.5 0,-4.5 z" sodipodi:nodetypes="ccccccccccccc" />
    <path inkscape:connector-curvature="0" id="path4196" style="font-style:normal;font-variant:normal;font-weight:bold;font-stretch:normal;font-size:81.25px;line-height:125%;font-family:'Helvetica Neue';-inkscape-font-specification:'Helvetica Neue Bold';text-align:start;letter-spacing:2.5px;word-spacing:0px;writing-mode:lr-tb;text-anchor:start;fill:#ffffff;fill-opacity:1;stroke:none;stroke-width:1px;stroke-linecap:butt;stroke-linejoin:miter;stroke-opacity:1" d="m 155.45,995.7 0,10.9 7.7,0 0,-2 -5.31,0 0,-8.9 -2.39,0 z" />
    <path inkscape:connector-curvature="0" id="path4198" style="font-style:normal;font-variant:normal;font-weight:bold;font-stretch:normal;font-size:81.25px;line-height:125%;font-family:'Helvetica Neue';-inkscape-font-specification:'Helvetica Neue Bold';text-align:start;letter-spacing:2.5px;word-spacing:0px;writing-mode:lr-tb;text-anchor:start;fill:#ffffff;fill-opacity:1;stroke:none;stroke-width:1px;stroke-linecap:butt;stroke-linejoin:miter;stroke-opacity:1" d="m 174.17,1002.5 0,-6.8 -2.39,0 0,6.8 q 0,1.2 -0.49,1.8 -0.49,0.5 -1.77,0.5 -0.73,0 -1.17,-0.2 -0.43,-0.2 -0.67,-0.5 -0.24,-0.3 -0.32,-0.8 -0.1,-0.4 -0.1,-0.8 l 0,-6.8 -2.39,0 0,6.8 q 0,2.2 1.21,3.3 1.22,1 3.42,1 2.18,0 3.42,-1 1.23,-1.1 1.23,-3.3 z" />
    <path inkscape:connector-curvature="0" id="path4200" style="font-style:normal;font-variant:normal;font-weight:bold;font-stretch:normal;font-size:81.25px;line-height:125%;font-family:'Helvetica Neue';-inkscape-font-specification:'Helvetica Neue Bold';text-align:start;letter-spacing:2.5px;word-spacing:0px;writing-mode:lr-tb;text-anchor:start;fill:#ffffff;fill-opacity:1;stroke:none;stroke-width:1px;stroke-linecap:butt;stroke-linejoin:miter;stroke-opacity:1" d="m 179.11,1000.1 0,-2.54 2.24,0 q 0.32,0 0.61,0.1 0.3,0 0.53,0.19 0.23,0.13 0.37,0.38 0.13,0.24 0.13,0.62 0,0.68 -0.41,1 -0.41,0.25 -1.05,0.25 l -2.42,0 z m -2.4,-4.4 0,10.9 5.28,0 q 0.73,0 1.41,-0.2 0.71,-0.2 1.24,-0.6 0.55,-0.3 0.87,-0.9 0.32,-0.6 0.32,-1.5 0,-1 -0.51,-1.7 -0.48,-0.7 -1.49,-1 0.73,-0.4 1.1,-0.93 0.38,-0.54 0.38,-1.37 0,-0.76 -0.26,-1.28 -0.24,-0.52 -0.7,-0.82 -0.46,-0.32 -1.1,-0.46 -0.64,-0.14 -1.42,-0.14 l -5.12,0 z m 2.4,9 0,-3 2.6,0 q 0.78,0 1.25,0.4 0.48,0.4 0.48,1.2 0,0.4 -0.16,0.7 -0.13,0.3 -0.38,0.4 -0.24,0.2 -0.56,0.3 -0.32,0 -0.67,0 l -2.56,0 z" />
    <path style="fill:#ffffff;fill-opacity:0.62745;fill-rule:evenodd;stroke:none;stroke-width:1px;stroke-linecap:butt;stroke-linejoin:miter;stroke-opacity:1" d="m 56.822,977.31 -6.558,3.74 6.558,3.74" id="path4226" inkscape:connector-curvature="0" sodipodi:nodetypes="ccc" />
    <path sodipodi:nodetypes="ccc" inkscape:connector-curvature="0" id="path4230" d="m 56.818,977.31 6.558,3.74 -6.558,3.74" style="fill:#ffffff;fill-opacity:0.70588;fill-rule:evenodd;stroke:none;stroke-width:1px;stroke-linecap:butt;stroke-linejoin:miter;stroke-opacity:1" />
    <path style="fill:#ffffff;fill-opacity:0.39216;fill-rule:evenodd;stroke:none;stroke-width:1px;stroke-linecap:butt;stroke-linejoin:miter;stroke-opacity:1" d="m 63.376,981.06 -6.558,3.74 6.558,3.74" id="path4232" inkscape:connector-curvature="0" sodipodi:nodetypes="ccc" />
    <path sodipodi:nodetypes="ccc" inkscape:connector-curvature="0" id="path4234" d="m 63.376,988.57 -6.558,3.74 6.558,3.73" style="fill:#ffffff;fill-opacity:0.39216;fill-rule:evenodd;stroke:none;stroke-width:1px;stroke-linecap:butt;stroke-linejoin:miter;stroke-opacity:1" />
    <path style="fill:#ffffff;fill-opacity:0.62745;fill-rule:evenodd;stroke:none;stroke-width:1px;stroke-linecap:butt;stroke-linejoin:miter;stroke-opacity:1" d="m 76.504,988.57 -6.558,3.74 6.558,3.73" id="path4236" inkscape:connector-curvature="0" sodipodi:nodetypes="ccc" />
    <path style="fill:#ffffff;fill-opacity:0.62745;fill-rule:evenodd;stroke:none;stroke-width:1px;stroke-linecap:butt;stroke-linejoin:miter;stroke-opacity:1" d="m 69.927,984.82 -6.558,3.74 6.558,3.73" id="path4240" inkscape:connector-curvature="0" sodipodi:nodetypes="ccc" />
    <path style="fill:#ffffff;fill-opacity:0.70588;fill-rule:evenodd;stroke:none;stroke-width:1px;stroke-linecap:butt;stroke-linejoin:miter;stroke-opacity:1" d="m 56.818,984.82 6.558,3.74 -6.558,3.73" id="path4242" inkscape:connector-curvature="0" sodipodi:nodetypes="ccc" />
    <path sodipodi:nodetypes="ccc" inkscape:connector-curvature="0" id="path4244" d="m 63.395,988.57 6.559,3.74 -6.559,3.73" style="fill:#ffffff;fill-opacity:0.31373;fill-rule:evenodd;stroke:none;stroke-width:1px;stroke-linecap:butt;stroke-linejoin:miter;stroke-opacity:1" />
    <path style="fill:#ffffff;fill-opacity:0.70588;fill-rule:evenodd;stroke:none;stroke-width:1px;stroke-linecap:butt;stroke-linejoin:miter;stroke-opacity:1" d="m 63.395,981.06 6.559,3.74 -6.559,3.74" id="path4246" inkscape:connector-curvature="0" sodipodi:nodetypes="ccc" />
    <path sodipodi:nodetypes="ccc" inkscape:connector-curvature="0" id="path4248" d="m 69.972,984.82 6.559,3.74 -6.559,3.73" style="fill:#ffffff;fill-opacity:0.47059;fill-rule:evenodd;stroke:none;stroke-width:1px;stroke-linecap:butt;stroke-linejoin:miter;stroke-opacity:1" />
    <path style="fill:#ffffff;fill-opacity:1;fill-rule:evenodd;stroke:none;stroke-width:1px;stroke-linecap:butt;stroke-linejoin:miter;stroke-opacity:1" d="m 63.376,996.08 -6.558,3.73 6.558,3.69" id="path4254" inkscape:connector-curvature="0" sodipodi:nodetypes="ccc" />
    <path sodipodi:nodetypes="ccc" inkscape:connector-curvature="0" id="path4256" d="m 76.504,996.08 -6.558,3.73 6.558,3.69" style="fill:#ffffff;fill-opacity:0.62745;fill-rule:evenodd;stroke:none;stroke-width:1px;stroke-linecap:butt;stroke-linejoin:miter;stroke-opacity:1" />
    <path sodipodi:nodetypes="ccc" inkscape:connector-curvature="0" id="path4258" d="m 69.927,992.32 -6.558,3.74 6.558,3.73" style="fill:#ffffff;fill-opacity:0.39216;fill-rule:evenodd;stroke:none;stroke-width:1px;stroke-linecap:butt;stroke-linejoin:miter;stroke-opacity:1" />
    <path sodipodi:nodetypes="ccc" inkscape:connector-curvature="0" id="path4260" d="m 56.818,992.32 6.558,3.74 -6.558,3.73" style="fill:#ffffff;fill-opacity:0.94118;fill-rule:evenodd;stroke:none;stroke-width:1px;stroke-linecap:butt;stroke-linejoin:miter;stroke-opacity:1" />
    <path style="fill:#ffffff;fill-opacity:0.90196;fill-rule:evenodd;stroke:none;stroke-width:1px;stroke-linecap:butt;stroke-linejoin:miter;stroke-opacity:1" d="m 63.395,996.08 6.559,3.73 -6.559,3.69" id="path4262" inkscape:connector-curvature="0" sodipodi:nodetypes="ccc" />
    <path style="fill:#ffffff;fill-opacity:0.54902;fill-rule:evenodd;stroke:none;stroke-width:1px;stroke-linecap:butt;stroke-linejoin:miter;stroke-opacity:1" d="m 69.972,992.32 6.559,3.74 -6.559,3.73" id="path4264" inkscape:connector-curvature="0" sodipodi:nodetypes="ccc" />
    <path sodipodi:nodetypes="ccc" inkscape:connector-curvature="0" id="path4266" d="m 63.376,1003.6 -6.558,3.7 6.558,3.7" style="fill:#ffffff;fill-opacity:0.39216;fill-rule:evenodd;stroke:none;stroke-width:1px;stroke-linecap:butt;stroke-linejoin:miter;stroke-opacity:1" />
    <path style="fill:#ffffff;fill-opacity:0.92157;fill-rule:evenodd;stroke:none;stroke-width:1px;stroke-linecap:butt;stroke-linejoin:miter;stroke-opacity:1" d="m 76.504,1003.6 -6.558,3.7 6.558,3.7" id="path4268" inkscape:connector-curvature="0" sodipodi:nodetypes="ccc" />
    <path style="fill:#ffffff;fill-opacity:0.94118;fill-rule:evenodd;stroke:none;stroke-width:1px;stroke-linecap:butt;stroke-linejoin:miter;stroke-opacity:1" d="m 69.927,999.83 -6.558,3.77 6.558,3.7" id="path4270" inkscape:connector-curvature="0" sodipodi:nodetypes="ccc" />
    <path style="fill:#ffffff;fill-opacity:0.54902;fill-rule:evenodd;stroke:none;stroke-width:1px;stroke-linecap:butt;stroke-linejoin:miter;stroke-opacity:1" d="m 56.818,999.83 6.558,3.77 -6.558,3.7" id="path4272" inkscape:connector-curvature="0" sodipodi:nodetypes="ccc" />
    <path sodipodi:nodetypes="ccc" inkscape:connector-curvature="0" id="path4274" d="m 63.395,1003.6 6.559,3.7 -6.559,3.7" style="fill:#ffffff;fill-opacity:0.54902;fill-rule:evenodd;stroke:none;stroke-width:1px;stroke-linecap:butt;stroke-linejoin:miter;stroke-opacity:1" />
    <path sodipodi:nodetypes="ccc" inkscape:connector-curvature="0" id="path4276" d="m 69.972,999.83 6.559,3.77 -6.559,3.7" style="fill:#ffffff;fill-opacity:1;fill-rule:evenodd;stroke:none;stroke-width:1px;stroke-linecap:butt;stroke-linejoin:miter;stroke-opacity:1" />
    <path style="fill:#ffffff;fill-opacity:0.54902;fill-rule:evenodd;stroke:none;stroke-width:1px;stroke-linecap:butt;stroke-linejoin:miter;stroke-opacity:1" d="m 63.376,1011.1 -6.558,3.7 6.558,3.7" id="path4278" inkscape:connector-curvature="0" sodipodi:nodetypes="ccc" />
    <path sodipodi:nodetypes="ccc" inkscape:connector-curvature="0" id="path4280" d="m 76.504,1011.1 -6.558,3.7 6.558,3.7" style="fill:#ffffff;fill-opacity:0.54902;fill-rule:evenodd;stroke:none;stroke-width:1px;stroke-linecap:butt;stroke-linejoin:miter;stroke-opacity:1" />
    <path sodipodi:nodetypes="ccc" inkscape:connector-curvature="0" id="path4282" d="m 69.927,1007.3 -6.558,3.8 6.558,3.7" style="fill:#ffffff;fill-opacity:0.70588;fill-rule:evenodd;stroke:none;stroke-width:1px;stroke-linecap:butt;stroke-linejoin:miter;stroke-opacity:1" />
    <path sodipodi:nodetypes="ccc" inkscape:connector-curvature="0" id="path4284" d="m 56.818,1007.3 6.558,3.8 -6.558,3.7" style="fill:#ffffff;fill-opacity:0.47059;fill-rule:evenodd;stroke:none;stroke-width:1px;stroke-linecap:butt;stroke-linejoin:miter;stroke-opacity:1" />
    <path style="fill:#ffffff;fill-opacity:0.47059;fill-rule:evenodd;stroke:none;stroke-width:1px;stroke-linecap:butt;stroke-linejoin:miter;stroke-opacity:1" d="m 63.395,1011.1 6.559,3.7 -6.559,3.7" id="path4286" inkscape:connector-curvature="0" sodipodi:nodetypes="ccc" />
    <path style="fill:#ffffff;fill-opacity:0.62745;fill-rule:evenodd;stroke:none;stroke-width:1px;stroke-linecap:butt;stroke-linejoin:miter;stroke-opacity:1" d="m 69.972,1007.3 6.559,3.8 -6.559,3.7" id="path4288" inkscape:connector-curvature="0" sodipodi:nodetypes="ccc" />
    <path sodipodi:nodetypes="ccc" inkscape:connector-curvature="0" id="path4290" d="m 63.376,1018.6 -6.558,3.7 6.558,3.7" style="fill:#ffffff;fill-opacity:0.70588;fill-rule:evenodd;stroke:none;stroke-width:1px;stroke-linecap:butt;stroke-linejoin:miter;stroke-opacity:1" />
    <path style="fill:#ffffff;fill-opacity:0.62745;fill-rule:evenodd;stroke:none;stroke-width:1px;stroke-linecap:butt;stroke-linejoin:miter;stroke-opacity:1" d="m 76.504,1018.6 -6.558,3.7 6.558,3.7" id="path4292" inkscape:connector-curvature="0" sodipodi:nodetypes="ccc" />
    <path style="fill:#ffffff;fill-opacity:0.62745;fill-rule:evenodd;stroke:none;stroke-width:1px;stroke-linecap:butt;stroke-linejoin:miter;stroke-opacity:1" d="m 69.927,1014.8 -6.558,3.8 6.558,3.7" id="path4294" inkscape:connector-curvature="0" sodipodi:nodetypes="ccc" />
    <path style="fill:#ffffff;fill-opacity:1;fill-rule:evenodd;stroke:none;stroke-width:1px;stroke-linecap:butt;stroke-linejoin:miter;stroke-opacity:1" d="m 56.818,1014.8 6.558,3.8 -6.558,3.7" id="path4296" inkscape:connector-curvature="0" sodipodi:nodetypes="ccc" />
    <path sodipodi:nodetypes="ccc" inkscape:connector-curvature="0" id="path4298" d="m 63.395,1018.6 6.559,3.7 -6.559,3.7" style="fill:#ffffff;fill-opacity:0.47059;fill-rule:evenodd;stroke:none;stroke-width:1px;stroke-linecap:butt;stroke-linejoin:miter;stroke-opacity:1" />
    <path sodipodi:nodetypes="ccc" inkscape:connector-curvature="0" id="path4300" d="m 69.972,1014.8 6.559,3.8 -6.559,3.7" style="fill:#ffffff;fill-opacity:0.47059;fill-rule:evenodd;stroke:none;stroke-width:1px;stroke-linecap:butt;stroke-linejoin:miter;stroke-opacity:1" />
    <path style="fill:#ffffff;fill-opacity:0.39216;fill-rule:evenodd;stroke:none;stroke-width:1px;stroke-linecap:butt;stroke-linejoin:miter;stroke-opacity:1" d="m 63.376,1026.1 -6.558,3.7 6.558,3.7" id="path4302" inkscape:connector-curvature="0" sodipodi:nodetypes="ccc" />
    <path sodipodi:nodetypes="ccc" inkscape:connector-curvature="0" id="path4306" d="m 69.927,1022.3 -6.558,3.8 6.558,3.7" style="fill:#ffffff;fill-opacity:0.62745;fill-rule:evenodd;stroke:none;stroke-width:1px;stroke-linecap:butt;stroke-linejoin:miter;stroke-opacity:1" />
    <path sodipodi:nodetypes="ccc" inkscape:connector-curvature="0" id="path4308" d="m 56.818,1022.3 6.558,3.8 -6.558,3.7" style="fill:#ffffff;fill-opacity:0.54902;fill-rule:evenodd;stroke:none;stroke-width:1px;stroke-linecap:butt;stroke-linejoin:miter;stroke-opacity:1" />
    <path style="fill:#ffffff;fill-opacity:0.54902;fill-rule:evenodd;stroke:none;stroke-width:1px;stroke-linecap:butt;stroke-linejoin:miter;stroke-opacity:1" d="m 63.395,1026.1 6.559,3.7 -6.559,3.7" id="path4310" inkscape:connector-curvature="0" sodipodi:nodetypes="ccc" />
    <path style="fill:#ffffff;fill-opacity:0.70588;fill-rule:evenodd;stroke:none;stroke-width:1px;stroke-linecap:butt;stroke-linejoin:miter;stroke-opacity:1" d="m 69.972,1022.3 6.559,3.8 -6.559,3.7" id="path4312" inkscape:connector-curvature="0" sodipodi:nodetypes="ccc" />
    <path style="fill:#ffffff;fill-opacity:0.70588;fill-rule:evenodd;stroke:none;stroke-width:1px;stroke-linecap:butt;stroke-linejoin:miter;stroke-opacity:1" d="m 56.818,1029.8 6.558,3.8 -6.558,3.7" id="path4314" inkscape:connector-curvature="0" sodipodi:nodetypes="ccc" />
    <path sodipodi:nodetypes="ccc" inkscape:connector-curvature="0" id="path4318" d="m 50.227,981.06 6.558,3.74 -6.558,3.74" style="fill:#ffffff;fill-opacity:0.39216;fill-rule:evenodd;stroke:none;stroke-width:1px;stroke-linecap:butt;stroke-linejoin:miter;stroke-opacity:1" />
    <path style="fill:#ffffff;fill-opacity:0.39216;fill-rule:evenodd;stroke:none;stroke-width:1px;stroke-linecap:butt;stroke-linejoin:miter;stroke-opacity:1" d="m 50.227,988.57 6.558,3.74 -6.558,3.73" id="path4320" inkscape:connector-curvature="0" sodipodi:nodetypes="ccc" />
    <path sodipodi:nodetypes="ccc" inkscape:connector-curvature="0" id="path4322" d="m 37.099,988.57 6.558,3.74 -6.558,3.73" style="fill:#ffffff;fill-opacity:0.70588;fill-rule:evenodd;stroke:none;stroke-width:1px;stroke-linecap:butt;stroke-linejoin:miter;stroke-opacity:1" />
    <path sodipodi:nodetypes="ccc" inkscape:connector-curvature="0" id="path4324" d="m 43.676,984.82 6.558,3.74 -6.558,3.73" style="fill:#ffffff;fill-opacity:0.70588;fill-rule:evenodd;stroke:none;stroke-width:1px;stroke-linecap:butt;stroke-linejoin:miter;stroke-opacity:1" />
    <path sodipodi:nodetypes="ccc" inkscape:connector-curvature="0" id="path4326" d="m 56.785,984.82 -6.558,3.74 6.558,3.73" style="fill:#ffffff;fill-opacity:0.47059;fill-rule:evenodd;stroke:none;stroke-width:1px;stroke-linecap:butt;stroke-linejoin:miter;stroke-opacity:1" />
    <path style="fill:#ffffff;fill-opacity:0.31373;fill-rule:evenodd;stroke:none;stroke-width:1px;stroke-linecap:butt;stroke-linejoin:miter;stroke-opacity:1" d="m 50.208,988.57 -6.558,3.74 6.558,3.73" id="path4328" inkscape:connector-curvature="0" sodipodi:nodetypes="ccc" />
    <path sodipodi:nodetypes="ccc" inkscape:connector-curvature="0" id="path4330" d="m 50.208,981.06 -6.558,3.74 6.558,3.74" style="fill:#ffffff;fill-opacity:0.47059;fill-rule:evenodd;stroke:none;stroke-width:1px;stroke-linecap:butt;stroke-linejoin:miter;stroke-opacity:1" />
    <path style="fill:#ffffff;fill-opacity:0.47059;fill-rule:evenodd;stroke:none;stroke-width:1px;stroke-linecap:butt;stroke-linejoin:miter;stroke-opacity:1" d="m 43.631,984.82 -6.558,3.74 6.558,3.73" id="path4332" inkscape:connector-curvature="0" sodipodi:nodetypes="ccc" />
    <path sodipodi:nodetypes="ccc" inkscape:connector-curvature="0" id="path4334" d="m 50.227,996.08 6.558,3.73 -6.558,3.69" style="fill:#ffffff;fill-opacity:0.58824;fill-rule:evenodd;stroke:none;stroke-width:1px;stroke-linecap:butt;stroke-linejoin:miter;stroke-opacity:1" />
    <path style="fill:#ffffff;fill-opacity:0.54902;fill-rule:evenodd;stroke:none;stroke-width:1px;stroke-linecap:butt;stroke-linejoin:miter;stroke-opacity:1" d="m 37.099,996.08 6.558,3.73 -6.558,3.69" id="path4336" inkscape:connector-curvature="0" sodipodi:nodetypes="ccc" />
    <path style="fill:#ffffff;fill-opacity:0.70588;fill-rule:evenodd;stroke:none;stroke-width:1px;stroke-linecap:butt;stroke-linejoin:miter;stroke-opacity:1" d="m 43.676,992.32 6.558,3.74 -6.558,3.73" id="path4338" inkscape:connector-curvature="0" sodipodi:nodetypes="ccc" />
    <path style="fill:#ffffff;fill-opacity:1;fill-rule:evenodd;stroke:none;stroke-width:1px;stroke-linecap:butt;stroke-linejoin:miter;stroke-opacity:1" d="m 56.785,992.32 -6.558,3.74 6.558,3.73" id="path4340" inkscape:connector-curvature="0" sodipodi:nodetypes="ccc" />
    <path sodipodi:nodetypes="ccc" inkscape:connector-curvature="0" id="path4342" d="m 50.208,996.08 -6.558,3.73 6.558,3.69" style="fill:#ffffff;fill-opacity:0.31373;fill-rule:evenodd;stroke:none;stroke-width:1px;stroke-linecap:butt;stroke-linejoin:miter;stroke-opacity:1" />
    <path sodipodi:nodetypes="ccc" inkscape:connector-curvature="0" id="path4344" d="m 43.631,992.32 -6.558,3.74 6.558,3.73" style="fill:#ffffff;fill-opacity:0.39216;fill-rule:evenodd;stroke:none;stroke-width:1px;stroke-linecap:butt;stroke-linejoin:miter;stroke-opacity:1" />
    <path style="fill:#ffffff;fill-opacity:0.62745;fill-rule:evenodd;stroke:none;stroke-width:1px;stroke-linecap:butt;stroke-linejoin:miter;stroke-opacity:1" d="m 50.227,1003.6 6.558,3.7 -6.558,3.7" id="path4346" inkscape:connector-curvature="0" sodipodi:nodetypes="ccc" />
    <path sodipodi:nodetypes="ccc" inkscape:connector-curvature="0" id="path4348" d="m 37.099,1003.6 6.558,3.7 -6.558,3.7" style="fill:#ffffff;fill-opacity:0.92157;fill-rule:evenodd;stroke:none;stroke-width:1px;stroke-linecap:butt;stroke-linejoin:miter;stroke-opacity:1" />
    <path sodipodi:nodetypes="ccc" inkscape:connector-curvature="0" id="path4350" d="m 43.676,999.83 6.558,3.77 -6.558,3.7" style="fill:#ffffff;fill-opacity:0.39216;fill-rule:evenodd;stroke:none;stroke-width:1px;stroke-linecap:butt;stroke-linejoin:miter;stroke-opacity:1" />
    <path sodipodi:nodetypes="ccc" inkscape:connector-curvature="0" id="path4352" d="m 56.785,999.83 -6.558,3.77 6.558,3.7" style="fill:#ffffff;fill-opacity:0.39216;fill-rule:evenodd;stroke:none;stroke-width:1px;stroke-linecap:butt;stroke-linejoin:miter;stroke-opacity:1" />
    <path style="fill:#ffffff;fill-opacity:0.47059;fill-rule:evenodd;stroke:none;stroke-width:1px;stroke-linecap:butt;stroke-linejoin:miter;stroke-opacity:1" d="m 50.208,1003.6 -6.558,3.7 6.558,3.7" id="path4354" inkscape:connector-curvature="0" sodipodi:nodetypes="ccc" />
    <path style="fill:#ffffff;fill-opacity:0.60784;fill-rule:evenodd;stroke:none;stroke-width:1px;stroke-linecap:butt;stroke-linejoin:miter;stroke-opacity:1" d="m 43.631,999.83 -6.558,3.77 6.558,3.7" id="path4356" inkscape:connector-curvature="0" sodipodi:nodetypes="ccc" />
    <path sodipodi:nodetypes="ccc" inkscape:connector-curvature="0" id="path4358" d="m 50.227,1011.1 6.558,3.7 -6.558,3.7" style="fill:#ffffff;fill-opacity:0.94118;fill-rule:evenodd;stroke:none;stroke-width:1px;stroke-linecap:butt;stroke-linejoin:miter;stroke-opacity:1" />
    <path style="fill:#ffffff;fill-opacity:0.58824;fill-rule:evenodd;stroke:none;stroke-width:1px;stroke-linecap:butt;stroke-linejoin:miter;stroke-opacity:1" d="m 37.099,1011.1 6.558,3.7 -6.558,3.7" id="path4360" inkscape:connector-curvature="0" sodipodi:nodetypes="ccc" />
    <path style="fill:#ffffff;fill-opacity:0.90196;fill-rule:evenodd;stroke:none;stroke-width:1px;stroke-linecap:butt;stroke-linejoin:miter;stroke-opacity:1" d="m 43.676,1007.3 6.558,3.8 -6.558,3.7" id="path4362" inkscape:connector-curvature="0" sodipodi:nodetypes="ccc" />
    <path style="fill:#ffffff;fill-opacity:0.58824;fill-rule:evenodd;stroke:none;stroke-width:1px;stroke-linecap:butt;stroke-linejoin:miter;stroke-opacity:1" d="m 56.785,1007.3 -6.558,3.8 6.558,3.7" id="path4364" inkscape:connector-curvature="0" sodipodi:nodetypes="ccc" />
    <path sodipodi:nodetypes="ccc" inkscape:connector-curvature="0" id="path4366" d="m 50.208,1011.1 -6.558,3.7 6.558,3.7" style="fill:#ffffff;fill-opacity:1;fill-rule:evenodd;stroke:none;stroke-width:1px;stroke-linecap:butt;stroke-linejoin:miter;stroke-opacity:1" />
    <path sodipodi:nodetypes="ccc" inkscape:connector-curvature="0" id="path4368" d="m 43.631,1007.3 -6.558,3.8 6.558,3.7" style="fill:#ffffff;fill-opacity:0.94118;fill-rule:evenodd;stroke:none;stroke-width:1px;stroke-linecap:butt;stroke-linejoin:miter;stroke-opacity:1" />
    <path style="fill:#ffffff;fill-opacity:0.62745;fill-rule:evenodd;stroke:none;stroke-width:1px;stroke-linecap:butt;stroke-linejoin:miter;stroke-opacity:1" d="m 50.227,1018.6 6.558,3.7 -6.558,3.7" id="path4370" inkscape:connector-curvature="0" sodipodi:nodetypes="ccc" />
    <path sodipodi:nodetypes="ccc" inkscape:connector-curvature="0" id="path4372" d="m 37.099,1018.6 6.558,3.7 -6.558,3.7" style="fill:#ffffff;fill-opacity:0.54902;fill-rule:evenodd;stroke:none;stroke-width:1px;stroke-linecap:butt;stroke-linejoin:miter;stroke-opacity:1" />
    <path sodipodi:nodetypes="ccc" inkscape:connector-curvature="0" id="path4374" d="m 43.676,1014.8 6.558,3.8 -6.558,3.7" style="fill:#ffffff;fill-opacity:0.54902;fill-rule:evenodd;stroke:none;stroke-width:1px;stroke-linecap:butt;stroke-linejoin:miter;stroke-opacity:1" />
    <path sodipodi:nodetypes="ccc" inkscape:connector-curvature="0" id="path4376" d="m 56.785,1014.8 -6.558,3.8 6.558,3.7" style="fill:#ffffff;fill-opacity:0.84314;fill-rule:evenodd;stroke:none;stroke-width:1px;stroke-linecap:butt;stroke-linejoin:miter;stroke-opacity:1" />
    <path style="fill:#ffffff;fill-opacity:0.47059;fill-rule:evenodd;stroke:none;stroke-width:1px;stroke-linecap:butt;stroke-linejoin:miter;stroke-opacity:1" d="m 50.208,1018.6 -6.558,3.7 6.558,3.7" id="path4378" inkscape:connector-curvature="0" sodipodi:nodetypes="ccc" />
    <path style="fill:#ffffff;fill-opacity:0.66667;fill-rule:evenodd;stroke:none;stroke-width:1px;stroke-linecap:butt;stroke-linejoin:miter;stroke-opacity:1" d="m 43.631,1014.8 -6.558,3.8 6.558,3.7" id="path4380" inkscape:connector-curvature="0" sodipodi:nodetypes="ccc" />
    <path sodipodi:nodetypes="ccc" inkscape:connector-curvature="0" id="path4382" d="m 50.227,1026.1 6.558,3.7 -6.558,3.7" style="fill:#ffffff;fill-opacity:0.47059;fill-rule:evenodd;stroke:none;stroke-width:1px;stroke-linecap:butt;stroke-linejoin:miter;stroke-opacity:1" />
    <path style="fill:#ffffff;fill-opacity:0.39216;fill-rule:evenodd;stroke:none;stroke-width:1px;stroke-linecap:butt;stroke-linejoin:miter;stroke-opacity:1" d="m 43.676,1022.3 6.558,3.8 -6.558,3.7" id="path4384" inkscape:connector-curvature="0" sodipodi:nodetypes="ccc" />
    <path style="fill:#ffffff;fill-opacity:0.54902;fill-rule:evenodd;stroke:none;stroke-width:1px;stroke-linecap:butt;stroke-linejoin:miter;stroke-opacity:1" d="m 56.785,1022.3 -6.558,3.8 6.558,3.7" id="path4386" inkscape:connector-curvature="0" sodipodi:nodetypes="ccc" />
    <path sodipodi:nodetypes="ccc" inkscape:connector-curvature="0" id="path4388" d="m 50.208,1026.1 -6.558,3.7 6.558,3.7" style="fill:#ffffff;fill-opacity:0.70588;fill-rule:evenodd;stroke:none;stroke-width:1px;stroke-linecap:butt;stroke-linejoin:miter;stroke-opacity:1" />
    <path sodipodi:nodetypes="ccc" inkscape:connector-curvature="0" id="path4390" d="m 43.631,1022.3 -6.558,3.8 6.558,3.7" style="fill:#ffffff;fill-opacity:0.70588;fill-rule:evenodd;stroke:none;stroke-width:1px;stroke-linecap:butt;stroke-linejoin:miter;stroke-opacity:1" />
    <path sodipodi:nodetypes="ccc" inkscape:connector-curvature="0" id="path4392" d="m 56.785,1029.8 -6.558,3.8 6.558,3.7" style="fill:#ffffff;fill-opacity:0.62745;fill-rule:evenodd;stroke:none;stroke-width:1px;stroke-linecap:butt;stroke-linejoin:miter;stroke-opacity:1" />
  </g>
</svg>
