<?xml version="1.0" encoding="UTF-8"?>
<svg version="1.1" viewBox="0 0 250 91" xmlns="http://www.w3.org/2000/svg" xmlns:cc="http://creativecommons.org/ns#" xmlns:dc="http://purl.org/dc/elements/1.1/" xmlns:rdf="http://www.w3.org/1999/02/22-rdf-syntax-ns#">
<metadata>
<rdf:RDF>
<cc:Work rdf:about="">
<dc:format>image/svg+xml</dc:format>
<dc:type rdf:resource="http://purl.org/dc/dcmitype/StillImage"/>
<dc:title/>
</cc:Work>
</rdf:RDF>
</metadata>
<g transform="translate(0,-961.4)">
<text x="86.376556" y="1016.3862" fill="#ffffff" font-family="'Source Code Pro'" font-size="7.5016px" letter-spacing="0px" stroke-width="1px" word-spacing="0px" style="line-height:125%" xml:space="preserve"><tspan x="86.376556" y="1016.3862" fill="#ffffff" font-family="'Helvetica Neue'" font-size="7.2672px" font-weight="500" letter-spacing=".20254px">Empowering Cities Together</tspan></text>
<path d="m89.06 1003h-2.31q0 1 0.36 1.7 0.38 0.7 1.02 1.2 0.66 0.5 1.5 0.7 0.85 0.2 1.75 0.2 1.11 0 1.95-0.2 0.85-0.3 1.42-0.8 0.57-0.4 0.87-1.1 0.28-0.6 0.28-1.3 0-1-0.39-1.5-0.38-0.6-0.92-1-0.53-0.3-1.08-0.5-0.53-0.2-0.84-0.2-1.02-0.28-1.66-0.45-0.62-0.17-0.99-0.34-0.35-0.16-0.47-0.35-0.12-0.2-0.12-0.52 0-0.35 0.15-0.58t0.38-0.38q0.25-0.15 0.53-0.22 0.29-0.1 0.58-0.1 0.45 0 0.81 0.1 0.38 0.1 0.67 0.26 0.29 0.18 0.46 0.5 0.18 0.32 0.21 0.81h2.32q0-0.95-0.37-1.6-0.35-0.67-0.96-1.1t-1.4-0.61q-0.78-0.2-1.63-0.2-0.73 0-1.46 0.2t-1.31 0.61-0.95 1.04q-0.35 0.61-0.35 1.44 0 0.76 0.28 1.27 0.29 0.52 0.74 0.92 0.46 0.3 1.04 0.6 0.58 0.2 1.19 0.3 0.59 0.2 1.17 0.3 0.58 0.2 1.04 0.4 0.45 0.1 0.73 0.4 0.29 0.3 0.29 0.7t-0.22 0.7q-0.21 0.3-0.53 0.4-0.32 0.2-0.68 0.2-0.37 0.1-0.69 0.1-0.47 0-0.91-0.1-0.45-0.1-0.78-0.4-0.32-0.2-0.52-0.6t-0.2-0.9z" fill="#fff"/>
<path d="m97.78 995.7v10.9h2.24v-6.9l2.93 4.2 3.21-4.28v6.98h2.24v-10.9h-2.25l-3.15 4.07-3.01-4.07z" fill="#fff"/>
<path d="m114.43 1002 1.41-3.62 1.41 3.62zm0.23-6.3-4.49 10.9h2.4l0.86-2.4h4.82l0.82 2.4h2.48l-4.44-10.9z" fill="#fff"/>
<path d="m125.37 1001v-3.1h2.62c0.55 0 0.96 0.12 1.23 0.36 0.28 0.24 0.41 0.62 0.41 1.15 0 0.55-0.13 0.99-0.41 1.19-0.27 0.2-0.68 0.4-1.23 0.4zm-2.4-5.3v10.9h2.4v-3.5h1.82l2.76 3.5h2.77l-2.99-3.8s1.52-0.8 1.95-1.5c0.44-0.6 0.48-1.45 0.48-2.09 0-0.42-0.21-1.21-0.36-1.56-0.15-0.37-0.36-0.79-0.64-1.06-0.28-0.28-0.61-0.49-1.01-0.64-0.38-0.17-0.82-0.25-1.31-0.25z" fill="#fff"/>
<path d="m136.58 997.71v8.89h2.39v-8.89h3.26v-2.01h-8.91v2.01h3.26z" fill="#fff"/>
<path d="m144 995.7v10.9h2.39v-3.2l1.37-1.3 3.66 4.5h3l-5.04-6.2 4.63-4.7h-2.99l-4.63 4.5v-4.5z" fill="#fff"/>
<path d="m155.45 995.7v10.9h7.7v-2h-5.31v-8.9h-2.39z" fill="#fff"/>
<path d="m174.17 1002.5v-6.8h-2.39v6.8q0 1.2-0.49 1.8-0.49 0.5-1.77 0.5-0.73 0-1.17-0.2-0.43-0.2-0.67-0.5t-0.32-0.8q-0.1-0.4-0.1-0.8v-6.8h-2.39v6.8q0 2.2 1.21 3.3 1.22 1 3.42 1 2.18 0 3.42-1 1.23-1.1 1.23-3.3z" fill="#fff"/>
<path d="m179.11 1000.1v-2.54h2.24q0.32 0 0.61 0.1 0.3 0 0.53 0.19 0.23 0.13 0.37 0.38 0.13 0.24 0.13 0.62 0 0.68-0.41 1-0.41 0.25-1.05 0.25h-2.42zm-2.4-4.4v10.9h5.28q0.73 0 1.41-0.2 0.71-0.2 1.24-0.6 0.55-0.3 0.87-0.9t0.32-1.5q0-1-0.51-1.7-0.48-0.7-1.49-1 0.73-0.4 1.1-0.93 0.38-0.54 0.38-1.37 0-0.76-0.26-1.28-0.24-0.52-0.7-0.82-0.46-0.32-1.1-0.46t-1.42-0.14h-5.12zm2.4 9v-3h2.6q0.78 0 1.25 0.4 0.48 0.4 0.48 1.2 0 0.4-0.16 0.7-0.13 0.3-0.38 0.4-0.24 0.2-0.56 0.3-0.32 0-0.67 0h-2.56z" fill="#fff"/>
<path d="m56.822 977.31-6.558 3.74 6.558 3.74" fill="#fff" fill-opacity=".62745" fill-rule="evenodd"/>
<path d="m56.818 977.31 6.558 3.74-6.558 3.74" fill="#fff" fill-opacity=".70588" fill-rule="evenodd"/>
<path d="m63.376 981.06-6.558 3.74 6.558 3.74" fill="#fff" fill-opacity=".39216" fill-rule="evenodd"/>
<path d="m63.376 988.57-6.558 3.74 6.558 3.73" fill="#fff" fill-opacity=".39216" fill-rule="evenodd"/>
<path d="m76.504 988.57-6.558 3.74 6.558 3.73" fill="#fff" fill-opacity=".62745" fill-rule="evenodd"/>
<path d="m69.927 984.82-6.558 3.74 6.558 3.73" fill="#fff" fill-opacity=".62745" fill-rule="evenodd"/>
<path d="m56.818 984.82 6.558 3.74-6.558 3.73" fill="#fff" fill-opacity=".70588" fill-rule="evenodd"/>
<path d="m63.395 988.57 6.559 3.74-6.559 3.73" fill="#fff" fill-opacity=".31373" fill-rule="evenodd"/>
<path d="m63.395 981.06 6.559 3.74-6.559 3.74" fill="#fff" fill-opacity=".70588" fill-rule="evenodd"/>
<path d="m69.972 984.82 6.559 3.74-6.559 3.73" fill="#fff" fill-opacity=".47059" fill-rule="evenodd"/>
<path d="m63.376 996.08-6.558 3.73 6.558 3.69" fill="#fff" fill-rule="evenodd"/>
<path d="m76.504 996.08-6.558 3.73 6.558 3.69" fill="#fff" fill-opacity=".62745" fill-rule="evenodd"/>
<path d="m69.927 992.32-6.558 3.74 6.558 3.73" fill="#fff" fill-opacity=".39216" fill-rule="evenodd"/>
<path d="m56.818 992.32 6.558 3.74-6.558 3.73" fill="#fff" fill-opacity=".94118" fill-rule="evenodd"/>
<path d="m63.395 996.08 6.559 3.73-6.559 3.69" fill="#fff" fill-opacity=".90196" fill-rule="evenodd"/>
<path d="m69.972 992.32 6.559 3.74-6.559 3.73" fill="#fff" fill-opacity=".54902" fill-rule="evenodd"/>
<path d="m63.376 1003.6-6.558 3.7 6.558 3.7" fill="#fff" fill-opacity=".39216" fill-rule="evenodd"/>
<path d="m76.504 1003.6-6.558 3.7 6.558 3.7" fill="#fff" fill-opacity=".92157" fill-rule="evenodd"/>
<path d="m69.927 999.83-6.558 3.77 6.558 3.7" fill="#fff" fill-opacity=".94118" fill-rule="evenodd"/>
<path d="m56.818 999.83 6.558 3.77-6.558 3.7" fill="#fff" fill-opacity=".54902" fill-rule="evenodd"/>
<path d="m63.395 1003.6 6.559 3.7-6.559 3.7" fill="#fff" fill-opacity=".54902" fill-rule="evenodd"/>
<path d="m69.972 999.83 6.559 3.77-6.559 3.7" fill="#fff" fill-rule="evenodd"/>
<path d="m63.376 1011.1-6.558 3.7 6.558 3.7" fill="#fff" fill-opacity=".54902" fill-rule="evenodd"/>
<path d="m76.504 1011.1-6.558 3.7 6.558 3.7" fill="#fff" fill-opacity=".54902" fill-rule="evenodd"/>
<path d="m69.927 1007.3-6.558 3.8 6.558 3.7" fill="#fff" fill-opacity=".70588" fill-rule="evenodd"/>
<path d="m56.818 1007.3 6.558 3.8-6.558 3.7" fill="#fff" fill-opacity=".47059" fill-rule="evenodd"/>
<path d="m63.395 1011.1 6.559 3.7-6.559 3.7" fill="#fff" fill-opacity=".47059" fill-rule="evenodd"/>
<path d="m69.972 1007.3 6.559 3.8-6.559 3.7" fill="#fff" fill-opacity=".62745" fill-rule="evenodd"/>
<path d="m63.376 1018.6-6.558 3.7 6.558 3.7" fill="#fff" fill-opacity=".70588" fill-rule="evenodd"/>
<path d="m76.504 1018.6-6.558 3.7 6.558 3.7" fill="#fff" fill-opacity=".62745" fill-rule="evenodd"/>
<path d="m69.927 1014.8-6.558 3.8 6.558 3.7" fill="#fff" fill-opacity=".62745" fill-rule="evenodd"/>
<path d="m56.818 1014.8 6.558 3.8-6.558 3.7" fill="#fff" fill-rule="evenodd"/>
<path d="m63.395 1018.6 6.559 3.7-6.559 3.7" fill="#fff" fill-opacity=".47059" fill-rule="evenodd"/>
<path d="m69.972 1014.8 6.559 3.8-6.559 3.7" fill="#fff" fill-opacity=".47059" fill-rule="evenodd"/>
<path d="m63.376 1026.1-6.558 3.7 6.558 3.7" fill="#fff" fill-opacity=".39216" fill-rule="evenodd"/>
<path d="m69.927 1022.3-6.558 3.8 6.558 3.7" fill="#fff" fill-opacity=".62745" fill-rule="evenodd"/>
<path d="m56.818 1022.3 6.558 3.8-6.558 3.7" fill="#fff" fill-opacity=".54902" fill-rule="evenodd"/>
<path d="m63.395 1026.1 6.559 3.7-6.559 3.7" fill="#fff" fill-opacity=".54902" fill-rule="evenodd"/>
<path d="m69.972 1022.3 6.559 3.8-6.559 3.7" fill="#fff" fill-opacity=".70588" fill-rule="evenodd"/>
<path d="m56.818 1029.8 6.558 3.8-6.558 3.7" fill="#fff" fill-opacity=".70588" fill-rule="evenodd"/>
<path d="m50.227 981.06 6.558 3.74-6.558 3.74" fill="#fff" fill-opacity=".39216" fill-rule="evenodd"/>
<path d="m50.227 988.57 6.558 3.74-6.558 3.73" fill="#fff" fill-opacity=".39216" fill-rule="evenodd"/>
<path d="m37.099 988.57 6.558 3.74-6.558 3.73" fill="#fff" fill-opacity=".70588" fill-rule="evenodd"/>
<path d="m43.676 984.82 6.558 3.74-6.558 3.73" fill="#fff" fill-opacity=".70588" fill-rule="evenodd"/>
<path d="m56.785 984.82-6.558 3.74 6.558 3.73" fill="#fff" fill-opacity=".47059" fill-rule="evenodd"/>
<path d="m50.208 988.57-6.558 3.74 6.558 3.73" fill="#fff" fill-opacity=".31373" fill-rule="evenodd"/>
<path d="m50.208 981.06-6.558 3.74 6.558 3.74" fill="#fff" fill-opacity=".47059" fill-rule="evenodd"/>
<path d="m43.631 984.82-6.558 3.74 6.558 3.73" fill="#fff" fill-opacity=".47059" fill-rule="evenodd"/>
<path d="m50.227 996.08 6.558 3.73-6.558 3.69" fill="#fff" fill-opacity=".58824" fill-rule="evenodd"/>
<path d="m37.099 996.08 6.558 3.73-6.558 3.69" fill="#fff" fill-opacity=".54902" fill-rule="evenodd"/>
<path d="m43.676 992.32 6.558 3.74-6.558 3.73" fill="#fff" fill-opacity=".70588" fill-rule="evenodd"/>
<path d="m56.785 992.32-6.558 3.74 6.558 3.73" fill="#fff" fill-rule="evenodd"/>
<path d="m50.208 996.08-6.558 3.73 6.558 3.69" fill="#fff" fill-opacity=".31373" fill-rule="evenodd"/>
<path d="m43.631 992.32-6.558 3.74 6.558 3.73" fill="#fff" fill-opacity=".39216" fill-rule="evenodd"/>
<path d="m50.227 1003.6 6.558 3.7-6.558 3.7" fill="#fff" fill-opacity=".62745" fill-rule="evenodd"/>
<path d="m37.099 1003.6 6.558 3.7-6.558 3.7" fill="#fff" fill-opacity=".92157" fill-rule="evenodd"/>
<path d="m43.676 999.83 6.558 3.77-6.558 3.7" fill="#fff" fill-opacity=".39216" fill-rule="evenodd"/>
<path d="m56.785 999.83-6.558 3.77 6.558 3.7" fill="#fff" fill-opacity=".39216" fill-rule="evenodd"/>
<path d="m50.208 1003.6-6.558 3.7 6.558 3.7" fill="#fff" fill-opacity=".47059" fill-rule="evenodd"/>
<path d="m43.631 999.83-6.558 3.77 6.558 3.7" fill="#fff" fill-opacity=".60784" fill-rule="evenodd"/>
<path d="m50.227 1011.1 6.558 3.7-6.558 3.7" fill="#fff" fill-opacity=".94118" fill-rule="evenodd"/>
<path d="m37.099 1011.1 6.558 3.7-6.558 3.7" fill="#fff" fill-opacity=".58824" fill-rule="evenodd"/>
<path d="m43.676 1007.3 6.558 3.8-6.558 3.7" fill="#fff" fill-opacity=".90196" fill-rule="evenodd"/>
<path d="m56.785 1007.3-6.558 3.8 6.558 3.7" fill="#fff" fill-opacity=".58824" fill-rule="evenodd"/>
<path d="m50.208 1011.1-6.558 3.7 6.558 3.7" fill="#fff" fill-rule="evenodd"/>
<path d="m43.631 1007.3-6.558 3.8 6.558 3.7" fill="#fff" fill-opacity=".94118" fill-rule="evenodd"/>
<path d="m50.227 1018.6 6.558 3.7-6.558 3.7" fill="#fff" fill-opacity=".62745" fill-rule="evenodd"/>
<path d="m37.099 1018.6 6.558 3.7-6.558 3.7" fill="#fff" fill-opacity=".54902" fill-rule="evenodd"/>
<path d="m43.676 1014.8 6.558 3.8-6.558 3.7" fill="#fff" fill-opacity=".54902" fill-rule="evenodd"/>
<path d="m56.785 1014.8-6.558 3.8 6.558 3.7" fill="#fff" fill-opacity=".84314" fill-rule="evenodd"/>
<path d="m50.208 1018.6-6.558 3.7 6.558 3.7" fill="#fff" fill-opacity=".47059" fill-rule="evenodd"/>
<path d="m43.631 1014.8-6.558 3.8 6.558 3.7" fill="#fff" fill-opacity=".66667" fill-rule="evenodd"/>
<path d="m50.227 1026.1 6.558 3.7-6.558 3.7" fill="#fff" fill-opacity=".47059" fill-rule="evenodd"/>
<path d="m43.676 1022.3 6.558 3.8-6.558 3.7" fill="#fff" fill-opacity=".39216" fill-rule="evenodd"/>
<path d="m56.785 1022.3-6.558 3.8 6.558 3.7" fill="#fff" fill-opacity=".54902" fill-rule="evenodd"/>
<path d="m50.208 1026.1-6.558 3.7 6.558 3.7" fill="#fff" fill-opacity=".70588" fill-rule="evenodd"/>
<path d="m43.631 1022.3-6.558 3.8 6.558 3.7" fill="#fff" fill-opacity=".70588" fill-rule="evenodd"/>
<path d="m56.785 1029.8-6.558 3.8 6.558 3.7" fill="#fff" fill-opacity=".62745" fill-rule="evenodd"/>
</g>
</svg>
