<?xml version="1.0" encoding="UTF-8" standalone="no"?>
<!-- Created with Inkscape (http://www.inkscape.org/) -->

<svg xmlns:dc="http://purl.org/dc/elements/1.1/" xmlns:cc="http://creativecommons.org/ns#" xmlns:rdf="http://www.w3.org/1999/02/22-rdf-syntax-ns#" xmlns:svg="http://www.w3.org/2000/svg" xmlns="http://www.w3.org/2000/svg" xmlns:sodipodi="http://sodipodi.sourceforge.net/DTD/sodipodi-0.dtd" xmlns:inkscape="http://www.inkscape.org/namespaces/inkscape" width="250" height="91" viewBox="0 0 250 91" id="svg2" version="1.1" inkscape:version="0.91 r13725" sodipodi:docname="stickpeople.svg">
  <defs id="defs4" />
  <sodipodi:namedview id="base" pagecolor="#ffffff" bordercolor="#666666" borderopacity="1.0" inkscape:pageopacity="0.0" inkscape:pageshadow="2" inkscape:zoom="1.4" inkscape:cx="185.56" inkscape:cy="160.83" inkscape:document-units="px" inkscape:current-layer="layer1" showgrid="false" inkscape:window-width="1280" inkscape:window-height="752" inkscape:window-x="0" inkscape:window-y="0" inkscape:window-maximized="1" units="px" showguides="false" />
  <metadata id="metadata7">
    <rdf:RDF>
      <cc:Work rdf:about="">
        <dc:format>image/svg+xml</dc:format>
        <dc:type rdf:resource="http://purl.org/dc/dcmitype/StillImage" />
        <dc:title></dc:title>
      </cc:Work>
    </rdf:RDF>
  </metadata>
  <g inkscape:label="Layer 1" inkscape:groupmode="layer" id="layer1" transform="translate(0,-961.4)">
    <rect style="opacity:0.001;fill:#d02626;fill-opacity:1;stroke:none;stroke-width:2.5;stroke-linecap:round;stroke-linejoin:round;stroke-miterlimit:4;stroke-dasharray:none;stroke-dashoffset:0;stroke-opacity:1" id="rect4298" width="250" height="91" x="0" y="961.4" />
    <circle r="0" style="opacity:1;fill:#666666;fill-opacity:1;stroke:none;stroke-width:2.5;stroke-linecap:round;stroke-linejoin:round;stroke-miterlimit:4;stroke-dasharray:none;stroke-dashoffset:0;stroke-opacity:1" id="ellipse4185" cx="71.594" cy="996.69" />
    <g id="g4202" transform="matrix(1.0085,0,0,1.0086,-1.7027,967.03)">
      <g id="g4164">
        <g id="g4166">
          <path id="path4168" d="m 27.819,43.715 c 0.381,0.424 0.662,0.887 0.844,1.391 0.182,0.503 0.273,1.09 0.273,1.758 0,1.592 -0.588,2.902 -1.765,3.936 -1.177,1.034 -2.636,1.549 -4.38,1.549 -0.804,0 -1.608,-0.125 -2.412,-0.375 -0.804,-0.249 -1.498,-0.552 -2.082,-0.907 l -0.546,0.927 -1.016,0 -0.178,-6.17 1.028,0 c 0.211,0.762 0.459,1.449 0.743,2.062 0.284,0.614 0.658,1.188 1.124,1.721 0.44,0.5 0.954,0.896 1.542,1.193 0.588,0.297 1.271,0.444 2.05,0.444 0.584,0 1.094,-0.08 1.53,-0.229 0.436,-0.153 0.789,-0.369 1.06,-0.648 0.271,-0.28 0.472,-0.608 0.603,-0.985 0.131,-0.377 0.197,-0.812 0.197,-1.303 0,-0.721 -0.203,-1.393 -0.609,-2.016 -0.406,-0.623 -1.011,-1.096 -1.815,-1.417 -0.55,-0.22 -1.181,-0.462 -1.892,-0.728 -0.711,-0.265 -1.325,-0.516 -1.841,-0.752 -1.016,-0.457 -1.805,-1.055 -2.368,-1.795 -0.563,-0.741 -0.844,-1.708 -0.844,-2.901 0,-0.685 0.14,-1.324 0.419,-1.917 0.279,-0.593 0.677,-1.121 1.193,-1.586 0.491,-0.44 1.071,-0.785 1.739,-1.034 0.668,-0.249 1.367,-0.375 2.095,-0.375 0.83,0 1.572,0.127 2.228,0.381 0.656,0.254 1.255,0.55 1.796,0.889 l 0.521,-0.863 1.016,0 0.102,5.979 -1.028,0 c -0.186,-0.686 -0.396,-1.341 -0.628,-1.968 -0.232,-0.627 -0.535,-1.193 -0.908,-1.701 -0.364,-0.491 -0.808,-0.882 -1.333,-1.174 -0.525,-0.292 -1.168,-0.438 -1.93,-0.438 -0.804,0 -1.49,0.258 -2.057,0.774 -0.567,0.516 -0.851,1.147 -0.851,1.892 0,0.779 0.182,1.424 0.546,1.936 0.364,0.512 0.893,0.933 1.587,1.263 0.618,0.296 1.225,0.552 1.822,0.769 0.597,0.215 1.174,0.445 1.733,0.691 0.508,0.221 0.997,0.47 1.466,0.749 0.469,0.279 0.879,0.605 1.226,0.978 z" inkscape:connector-curvature="0" style="fill:#ffffff" />
          <path id="path4170" d="m 38.597,51.434 c -0.55,0.229 -1.071,0.421 -1.562,0.578 -0.491,0.156 -1.092,0.234 -1.803,0.234 -1.049,0 -1.788,-0.265 -2.215,-0.793 -0.427,-0.529 -0.641,-1.276 -0.641,-2.241 l 0,-8.48 -2.26,0 0,-1.219 2.311,0 0,-3.897 2.311,0 0,3.897 3.593,0 0,1.219 -3.567,0 0,6.995 c 0,0.525 0.02,0.963 0.06,1.314 0.04,0.351 0.129,0.658 0.273,0.92 0.135,0.246 0.338,0.432 0.609,0.559 0.271,0.127 0.635,0.19 1.092,0.19 0.211,0 0.522,-0.02 0.933,-0.06 0.411,-0.04 0.7,-0.09 0.87,-0.146 l 0,0.928 z" inkscape:connector-curvature="0" style="fill:#ffffff" />
          <path id="path4172" d="m 45.91,51.979 -6.043,0 0,-0.838 c 0.195,-0.02 0.396,-0.03 0.603,-0.05 0.207,-0.02 0.387,-0.05 0.54,-0.102 0.237,-0.08 0.413,-0.209 0.527,-0.399 0.114,-0.189 0.171,-0.438 0.171,-0.742 l 0,-7.722 c 0,-0.271 -0.06,-0.518 -0.184,-0.741 -0.123,-0.225 -0.294,-0.413 -0.514,-0.565 -0.161,-0.101 -0.394,-0.188 -0.698,-0.26 -0.304,-0.07 -0.584,-0.116 -0.838,-0.133 l 0,-0.838 4.418,-0.279 0.178,0.178 0,10.207 c 0,0.296 0.06,0.542 0.17,0.736 0.113,0.194 0.292,0.339 0.536,0.432 0.185,0.08 0.366,0.138 0.542,0.185 0.177,0.05 0.374,0.08 0.593,0.1 l 0,0.837 z m -1.587,-17.608 c 0,0.482 -0.159,0.903 -0.476,1.263 -0.317,0.36 -0.709,0.54 -1.174,0.54 -0.432,0 -0.806,-0.171 -1.124,-0.514 -0.318,-0.343 -0.476,-0.734 -0.476,-1.174 0,-0.465 0.159,-0.872 0.476,-1.219 0.317,-0.347 0.692,-0.521 1.124,-0.521 0.482,0 0.878,0.163 1.187,0.489 0.309,0.326 0.463,0.704 0.463,1.136 z" inkscape:connector-curvature="0" style="fill:#ffffff" />
          <path id="path4174" d="m 53.248,52.31 c -1.811,0 -3.229,-0.601 -4.253,-1.803 -1.024,-1.202 -1.536,-2.813 -1.536,-4.837 0,-0.881 0.138,-1.703 0.413,-2.469 0.275,-0.767 0.675,-1.463 1.2,-2.089 0.5,-0.601 1.125,-1.085 1.879,-1.454 0.754,-0.369 1.574,-0.552 2.463,-0.552 1.227,0 2.226,0.294 2.996,0.882 0.77,0.588 1.155,1.39 1.155,2.406 0,0.424 -0.102,0.798 -0.305,1.123 -0.203,0.326 -0.538,0.489 -1.003,0.489 -0.5,0 -0.887,-0.126 -1.162,-0.38 -0.275,-0.253 -0.413,-0.535 -0.413,-0.848 0,-0.379 0.05,-0.77 0.152,-1.17 0.102,-0.401 0.161,-0.694 0.178,-0.88 -0.152,-0.262 -0.378,-0.437 -0.678,-0.525 -0.3,-0.09 -0.623,-0.133 -0.968,-0.133 -0.405,0 -0.792,0.09 -1.159,0.26 -0.368,0.173 -0.724,0.493 -1.07,0.958 -0.312,0.423 -0.565,0.995 -0.76,1.714 -0.194,0.719 -0.291,1.578 -0.291,2.577 0,1.574 0.349,2.858 1.046,3.853 0.697,0.995 1.612,1.492 2.744,1.492 0.819,0 1.506,-0.2 2.06,-0.6 0.554,-0.4 1.067,-1 1.54,-1.8 l 0.812,0.533 c -0.559,0.999 -1.295,1.79 -2.209,2.374 -0.914,0.584 -1.858,0.879 -2.831,0.879 z" inkscape:connector-curvature="0" style="fill:#ffffff" />
          <path id="path4176" d="m 72.532,51.979 -3.777,0 c -0.661,-0.955 -1.369,-1.979 -2.123,-3.069 -0.754,-1.09 -1.538,-2.152 -2.352,-3.184 l -1.042,0.972 0,2.971 c 0,0.305 0.05,0.557 0.165,0.755 0.11,0.199 0.288,0.346 0.533,0.438 0.203,0.09 0.398,0.147 0.584,0.19 0.186,0.04 0.402,0.07 0.647,0.09 l 0,0.838 -6.132,0 0,-0.838 c 0.193,-0.02 0.395,-0.04 0.605,-0.06 0.21,-0.02 0.387,-0.05 0.53,-0.09 0.235,-0.08 0.412,-0.21 0.529,-0.4 0.117,-0.19 0.177,-0.438 0.177,-0.743 l 0,-14.558 c 0,-0.313 -0.06,-0.608 -0.197,-0.883 -0.131,-0.275 -0.303,-0.485 -0.514,-0.629 -0.178,-0.135 -0.455,-0.224 -0.832,-0.267 -0.377,-0.04 -0.679,-0.07 -0.908,-0.09 l 0,-0.812 4.634,-0.279 0.178,0.19 0,13.243 c 0.661,-0.659 1.374,-1.368 2.141,-2.125 0.767,-0.757 1.412,-1.432 1.938,-2.024 0.07,-0.08 0.142,-0.176 0.222,-0.299 0.08,-0.123 0.121,-0.223 0.121,-0.299 0,-0.23 -0.184,-0.399 -0.552,-0.51 -0.368,-0.111 -0.722,-0.187 -1.06,-0.229 l 0,-0.812 5.507,0 0,0.787 c -0.711,0.211 -1.339,0.476 -1.885,0.794 -0.546,0.316 -0.963,0.603 -1.25,0.856 -0.203,0.169 -0.491,0.444 -0.864,0.824 -0.373,0.38 -0.894,0.879 -1.563,1.495 0.694,0.855 1.475,1.881 2.343,3.074 0.868,1.194 1.501,2.059 1.899,2.592 0.373,0.5 0.707,0.825 1.003,0.978 0.296,0.153 0.728,0.245 1.295,0.279 l 0,0.837 z" inkscape:connector-curvature="0" style="fill:#ffffff" />
          <path id="path4178" d="m 93.581,38.408 c 0,0.939 -0.184,1.771 -0.553,2.495 -0.367,0.724 -0.878,1.322 -1.529,1.796 -0.644,0.475 -1.35,0.82 -2.12,1.041 -0.77,0.221 -1.587,0.33 -2.45,0.33 l -2.019,0 0,5.459 c 0,0.297 0.05,0.557 0.146,0.781 0.1,0.224 0.299,0.395 0.604,0.514 0.152,0.06 0.421,0.114 0.807,0.165 0.385,0.05 0.738,0.08 1.06,0.09 l 0,0.901 -7.731,0 0,-0.901 c 0.203,-0.02 0.497,-0.05 0.882,-0.09 0.385,-0.04 0.654,-0.1 0.806,-0.165 0.254,-0.109 0.438,-0.271 0.552,-0.482 0.115,-0.211 0.172,-0.482 0.172,-0.812 l 0,-13 c 0,-0.296 -0.04,-0.563 -0.127,-0.8 -0.09,-0.237 -0.283,-0.415 -0.597,-0.533 -0.322,-0.11 -0.641,-0.188 -0.958,-0.235 -0.317,-0.05 -0.59,-0.08 -0.819,-0.1 l 0,-0.901 8.227,0 c 1.676,0 3.036,0.404 4.081,1.212 1.043,0.807 1.566,1.884 1.566,3.23 z m -3.86,3.072 c 0.288,-0.406 0.479,-0.827 0.571,-1.263 0.09,-0.436 0.14,-0.827 0.14,-1.174 0,-0.482 -0.06,-0.973 -0.172,-1.473 -0.113,-0.5 -0.311,-0.935 -0.59,-1.308 -0.296,-0.398 -0.686,-0.707 -1.168,-0.927 -0.482,-0.22 -1.083,-0.33 -1.803,-0.33 l -1.79,0 0,7.96 1.295,0 c 0.914,0 1.657,-0.142 2.228,-0.425 0.572,-0.283 1.001,-0.636 1.289,-1.06 z" inkscape:connector-curvature="0" style="fill:#ffffff" />
          <path id="path4180" d="m 105.92,49.034 c -0.52,0.999 -1.23,1.794 -2.11,2.387 -0.88,0.593 -1.89,0.889 -3.03,0.889 -1.007,0 -1.89,-0.178 -2.647,-0.533 -0.757,-0.355 -1.381,-0.838 -1.872,-1.447 -0.491,-0.609 -0.856,-1.32 -1.099,-2.133 -0.24,-0.812 -0.361,-1.671 -0.361,-2.577 0,-0.812 0.129,-1.61 0.387,-2.393 0.259,-0.783 0.638,-1.488 1.137,-2.114 0.482,-0.601 1.081,-1.085 1.797,-1.454 0.715,-0.368 1.517,-0.552 2.408,-0.552 0.91,0 1.69,0.144 2.35,0.432 0.65,0.288 1.18,0.681 1.58,1.181 0.39,0.475 0.68,1.033 0.87,1.676 0.19,0.643 0.29,1.342 0.29,2.095 l 0,0.838 -8.292,0 c 0,0.823 0.08,1.569 0.235,2.239 0.156,0.67 0.403,1.26 0.742,1.77 0.33,0.491 0.762,0.879 1.295,1.164 0.53,0.283 1.17,0.426 1.9,0.426 0.76,0 1.41,-0.177 1.95,-0.529 0.55,-0.354 1.08,-0.989 1.58,-1.908 l 0.89,0.543 z m -2.8,-4.773 c 0,-0.473 0,-0.979 -0.12,-1.519 -0.1,-0.54 -0.21,-0.992 -0.39,-1.354 -0.2,-0.388 -0.46,-0.705 -0.8,-0.949 -0.34,-0.244 -0.78,-0.367 -1.31,-0.367 -0.889,0 -1.627,0.369 -2.216,1.107 -0.588,0.738 -0.907,1.766 -0.958,3.082 l 5.794,0 z" inkscape:connector-curvature="0" style="fill:#ffffff" />
          <path id="path4182" d="m 119.58,45.594 c 0,0.881 -0.14,1.746 -0.42,2.596 -0.28,0.852 -0.68,1.572 -1.19,2.165 -0.59,0.677 -1.27,1.181 -2.04,1.511 -0.76,0.33 -1.63,0.495 -2.59,0.495 -0.79,0 -1.55,-0.15 -2.27,-0.45 -0.72,-0.301 -1.36,-0.738 -1.92,-1.314 -0.55,-0.566 -0.99,-1.259 -1.32,-2.076 -0.32,-0.816 -0.49,-1.732 -0.49,-2.748 0,-1.955 0.57,-3.555 1.71,-4.799 1.14,-1.244 2.64,-1.866 4.48,-1.866 1.76,0 3.2,0.59 4.34,1.771 1.14,1.18 1.71,2.752 1.71,4.715 z m -2.63,0.02 c 0,-0.635 -0.1,-1.306 -0.19,-2.012 -0.12,-0.707 -0.31,-1.307 -0.57,-1.797 -0.27,-0.525 -0.63,-0.946 -1.07,-1.263 -0.44,-0.317 -0.98,-0.476 -1.61,-0.476 -0.65,0 -1.21,0.161 -1.67,0.482 -0.47,0.321 -0.84,0.762 -1.13,1.32 -0.27,0.517 -0.46,1.104 -0.57,1.765 -0.11,0.661 -0.17,1.299 -0.17,1.917 0,0.812 0.1,1.563 0.2,2.253 0.13,0.69 0.34,1.307 0.63,1.848 0.29,0.541 0.65,0.967 1.09,1.275 0.43,0.31 0.97,0.464 1.62,0.464 1.06,0 1.9,-0.513 2.52,-1.536 0.62,-1.023 0.92,-2.437 0.92,-4.24 z" inkscape:connector-curvature="0" style="fill:#ffffff" />
          <path id="path4184" d="m 132.82,40.947 c 0.5,0.592 0.89,1.28 1.16,2.062 0.28,0.783 0.42,1.678 0.42,2.686 0,0.99 -0.17,1.894 -0.5,2.711 -0.33,0.816 -0.76,1.512 -1.31,2.088 -0.56,0.584 -1.19,1.033 -1.89,1.346 -0.69,0.312 -1.43,0.47 -2.21,0.47 -0.75,0 -1.37,-0.09 -1.85,-0.254 -0.48,-0.169 -0.88,-0.368 -1.18,-0.597 l -0.1,0 0,3.767 c 0,0.306 0.1,0.56 0.17,0.764 0.12,0.204 0.31,0.353 0.55,0.445 0.2,0.08 0.49,0.15 0.87,0.224 0.38,0.07 0.69,0.111 0.93,0.12 l 0,0.838 -6.99,0 0,-0.838 c 0.26,-0.02 0.51,-0.04 0.76,-0.06 0.24,-0.02 0.47,-0.07 0.66,-0.127 0.25,-0.08 0.43,-0.232 0.53,-0.444 0.1,-0.212 0.15,-0.462 0.15,-0.749 l 0,-13.319 c 0,-0.254 -0.1,-0.499 -0.19,-0.736 -0.12,-0.237 -0.29,-0.427 -0.49,-0.571 -0.15,-0.102 -0.36,-0.18 -0.64,-0.235 -0.27,-0.05 -0.53,-0.09 -0.78,-0.108 l 0,-0.838 4.26,-0.279 0.18,0.152 0,1.409 0.1,0.02 c 0.44,-0.508 0.99,-0.931 1.64,-1.27 0.65,-0.338 1.3,-0.508 1.94,-0.508 0.78,0 1.49,0.165 2.14,0.495 0.65,0.331 1.21,0.776 1.67,1.334 z m -2.07,9.001 c 0.34,-0.524 0.59,-1.134 0.75,-1.828 0.16,-0.694 0.24,-1.468 0.24,-2.323 0,-0.627 -0.1,-1.266 -0.2,-1.917 -0.14,-0.651 -0.35,-1.219 -0.63,-1.701 -0.29,-0.491 -0.67,-0.889 -1.14,-1.193 -0.46,-0.305 -1.02,-0.457 -1.67,-0.457 -0.63,0 -1.16,0.138 -1.6,0.413 -0.44,0.275 -0.82,0.603 -1.14,0.984 l 0,7.401 c 0.1,0.229 0.2,0.465 0.37,0.711 0.17,0.246 0.37,0.457 0.58,0.635 0.26,0.211 0.54,0.383 0.85,0.514 0.3,0.132 0.68,0.197 1.12,0.197 0.47,0 0.93,-0.125 1.37,-0.375 0.44,-0.25 0.81,-0.604 1.1,-1.061 z" inkscape:connector-curvature="0" style="fill:#ffffff" />
          <path id="path4186" d="m 142.1,51.979 -6.1,0 0,-0.838 c 0.19,-0.02 0.4,-0.04 0.62,-0.06 0.22,-0.02 0.4,-0.05 0.54,-0.09 0.24,-0.08 0.42,-0.21 0.54,-0.4 0.12,-0.19 0.18,-0.438 0.18,-0.743 l 0,-14.508 c 0,-0.305 -0.1,-0.591 -0.2,-0.857 -0.13,-0.267 -0.3,-0.477 -0.52,-0.629 -0.15,-0.102 -0.43,-0.195 -0.83,-0.28 -0.41,-0.08 -0.74,-0.135 -0.98,-0.152 l 0,-0.812 4.71,-0.279 0.18,0.19 0,17.177 c 0,0.296 0,0.54 0.16,0.729 0.11,0.191 0.29,0.337 0.54,0.438 0.18,0.09 0.36,0.147 0.55,0.19 0.18,0.04 0.39,0.07 0.61,0.09 l 0,0.838 z" inkscape:connector-curvature="0" style="fill:#ffffff" />
          <path id="path4188" d="m 154.8,49.034 c -0.53,0.999 -1.23,1.794 -2.11,2.387 -0.88,0.593 -1.89,0.889 -3.03,0.889 -1.01,0 -1.89,-0.178 -2.65,-0.533 -0.76,-0.355 -1.38,-0.838 -1.87,-1.447 -0.49,-0.609 -0.86,-1.32 -1.1,-2.133 -0.24,-0.812 -0.36,-1.671 -0.36,-2.577 0,-0.812 0.13,-1.61 0.39,-2.393 0.25,-0.783 0.63,-1.488 1.13,-2.114 0.49,-0.601 1.08,-1.085 1.8,-1.454 0.72,-0.368 1.52,-0.552 2.4,-0.552 0.92,0 1.7,0.144 2.35,0.432 0.65,0.288 1.18,0.681 1.59,1.181 0.39,0.475 0.68,1.033 0.87,1.676 0.19,0.643 0.29,1.342 0.29,2.095 l 0,0.838 -8.29,0 c 0,0.823 0.1,1.569 0.23,2.239 0.16,0.67 0.4,1.26 0.74,1.77 0.33,0.491 0.77,0.879 1.3,1.164 0.53,0.283 1.17,0.426 1.9,0.426 0.75,0 1.4,-0.177 1.95,-0.529 0.55,-0.354 1.07,-0.989 1.58,-1.908 l 0.89,0.543 z m -2.81,-4.773 c 0,-0.473 0,-0.979 -0.12,-1.519 -0.1,-0.54 -0.21,-0.992 -0.39,-1.354 -0.19,-0.388 -0.46,-0.705 -0.8,-0.949 -0.34,-0.245 -0.77,-0.367 -1.3,-0.367 -0.89,0 -1.63,0.369 -2.22,1.107 -0.59,0.738 -0.91,1.766 -0.96,3.082 l 5.79,0 z" inkscape:connector-curvature="0" style="fill:#ffffff" />
        </g>
      </g>
      <path id="path4190" d="m 206.58,18.338 -8.65,-2.36 -0.8,-1.526 c -0.12,-0.476 -0.61,-0.759 -1.08,-0.634 l -2.12,0.558 -0.35,-1.326 c 0,-0.05 0,-0.104 -0.1,-0.152 0.88,-0.886 1.28,-2.204 0.94,-3.5 -0.51,-1.947 -2.51,-3.109 -4.46,-2.597 -1.94,0.513 -3.1,2.507 -2.59,4.453 0.34,1.297 1.34,2.246 2.54,2.583 0,0.05 0,0.106 0,0.16 l 0.35,1.325 -2.12,0.558 c -0.47,0.125 -0.76,0.612 -0.63,1.088 l 0.1,1.718 -6.37,6.317 c -0.71,0.705 -0.72,1.852 0,2.562 l 0.13,0.13 c 0.7,0.711 1.85,0.716 2.56,0.01 l 3.88,-3.844 0.36,9.982 c 0.12,0.476 0.61,0.76 1.08,0.634 l 4.49,-1.182 1.81,6.846 -2.54,0.667 c -0.97,0.254 -1.55,1.247 -1.29,2.213 l 0,0.178 c 0.26,0.969 1.25,1.547 2.22,1.291 l 2.54,-0.668 4.6,17.478 c 0.41,1.582 2.04,2.526 3.62,2.11 l 0.29,-0.08 c 1.58,-0.417 2.53,-2.036 2.11,-3.62 l -4.6,-17.477 2.53,-0.667 c 0.97,-0.255 1.55,-1.247 1.29,-2.214 l 0,-0.177 c -0.26,-0.968 -1.25,-1.546 -2.22,-1.292 l -2.54,0.668 -1.8,-6.846 4.49,-1.182 c 0.48,-0.125 0.76,-0.613 0.63,-1.088 l -4.6,-8.865 5.27,1.437 c 0.97,0.263 1.96,-0.307 2.23,-1.272 l 0,-0.177 c 0.27,-0.965 -0.3,-1.961 -1.27,-2.224 z" stroke-miterlimit="10" inkscape:connector-curvature="0" style="fill:none;stroke:#ffffff;stroke-width:0.99155;stroke-miterlimit:10" />
      <path id="path4192" d="m 183.59,32.94 -7.12,-5.105 -0.1,-0.584 c 0,-0.463 -0.29,-0.875 -0.76,-0.921 l -2.06,-0.205 0.2,-1.977 2.25,0.223 c 0.27,0.03 0.5,-0.129 0.52,-0.349 l -0.75,-3.473 c -0.1,-1.704 -1.36,-3.146 -3.1,-3.319 -1.75,-0.172 -3.31,0.983 -3.7,2.643 l -1.42,3.258 c 0,0.22 0.18,0.419 0.45,0.446 l 2.25,0.223 -0.2,1.977 -2.06,-0.205 c -0.46,-0.05 -0.88,0.292 -0.92,0.756 l -0.19,0.557 -7.98,3.607 c -0.86,0.391 -1.24,1.407 -0.85,2.271 l 0.1,0.158 c 0.39,0.864 1.4,1.248 2.27,0.856 l 4.91,-2.222 -3.23,9.571 c 0,0.463 0.29,0.875 0.76,0.922 l 4.37,0.434 -0.61,6.166 -2.47,-0.244 c -0.95,-0.09 -1.79,0.594 -1.88,1.537 l 0,0.174 c -0.1,0.941 0.6,1.782 1.54,1.876 l 2.47,0.245 -1.69,17.025 c -0.15,1.542 0.97,2.916 2.52,3.068 l 0.28,0.03 c 1.54,0.153 2.91,-0.973 3.07,-2.515 l 1.69,-17.025 2.47,0.246 c 0.94,0.09 1.78,-0.596 1.87,-1.538 l 0,-0.173 c 0.1,-0.943 -0.59,-1.784 -1.54,-1.877 l -2.47,-0.245 0.61,-6.167 4.38,0.435 c 0.46,0.05 0.87,-0.292 0.92,-0.755 l -1.29,-10.02 4.38,3.145 c 0.77,0.552 1.84,0.376 2.4,-0.393 l 0.1,-0.141 c 0.55,-0.77 0.37,-1.841 -0.39,-2.394 z" stroke-miterlimit="10" inkscape:connector-curvature="0" style="fill:none;stroke:#ffffff;stroke-width:0.99155;stroke-miterlimit:10" />
      <path id="path4194" d="m 233.13,24.223 -7.62,-3.483 -0.4,-1.463 c 0,-0.452 -0.44,-0.784 -0.9,-0.74 l -2.01,0.192 -0.12,-1.259 c 0,-0.05 0,-0.1 0,-0.146 0.78,-0.562 1.3,-1.446 1.39,-2.437 0.1,-0.191 0.1,-0.4 0.1,-0.618 l -0.26,-2.688 c -0.1,-0.78 -0.67,-1.36 -1.34,-1.296 l -4.41,0.422 c -0.67,0.06 -1.14,0.746 -1.07,1.526 l 0.26,2.688 c 0,0.218 0.1,0.419 0.17,0.596 0.27,0.957 0.95,1.726 1.82,2.131 0,0.05 0,0.1 0,0.149 l 0.12,1.259 -2.01,0.192 c -0.45,0.04 -0.78,0.444 -0.74,0.896 l -0.11,1.512 -6.83,4.865 c -0.75,0.535 -0.93,1.58 -0.39,2.332 l 0.1,0.138 c 0.53,0.752 1.58,0.927 2.33,0.392 l 4.45,-3.168 -0.52,6.82 c 0.1,0.452 0.45,0.783 0.9,0.74 l 1.89,-0.181 0.86,8.955 -1.27,0.121 c -0.92,0.09 -1.59,0.904 -1.5,1.822 l 0,0.17 c 0.1,0.92 0.91,1.594 1.83,1.506 l 2.41,-0.23 1.58,16.6 c 0.15,1.504 1.48,2.605 2.98,2.461 l 0.28,-0.02 c 1.5,-0.145 2.6,-1.479 2.46,-2.981 l -1.59,-16.601 2.41,-0.23 c 0.92,-0.09 1.6,-0.904 1.51,-1.824 l 0,-0.168 c -0.1,-0.92 -0.9,-1.594 -1.82,-1.506 l -1.26,0.121 -0.86,-8.955 1.89,-0.181 c 0.45,-0.04 0.78,-0.445 0.74,-0.896 l -1.79,-6.599 4.96,2.269 c 0.84,0.383 1.84,0.01 2.22,-0.827 l 0.1,-0.154 c 0.38,-0.844 0,-1.836 -0.83,-2.219 z" stroke-miterlimit="10" inkscape:connector-curvature="0" style="fill:none;stroke:#ffffff;stroke-width:0.99155;stroke-miterlimit:10" />
    </g>
  </g>
</svg>
