<?xml version="1.0" encoding="UTF-8" standalone="no"?>
<!-- Created with Inkscape (http://www.inkscape.org/) -->

<svg xmlns:dc="http://purl.org/dc/elements/1.1/" xmlns:cc="http://creativecommons.org/ns#" xmlns:rdf="http://www.w3.org/1999/02/22-rdf-syntax-ns#" xmlns:svg="http://www.w3.org/2000/svg" xmlns="http://www.w3.org/2000/svg" xmlns:sodipodi="http://sodipodi.sourceforge.net/DTD/sodipodi-0.dtd" xmlns:inkscape="http://www.inkscape.org/namespaces/inkscape" width="250" height="91" viewBox="0 0 250 91" id="svg2" version="1.1" inkscape:version="0.91 r13725" sodipodi:docname="stickpeople.svg">
  <defs id="defs4" />
  <sodipodi:namedview id="base" pagecolor="#ffffff" bordercolor="#666666" borderopacity="1.0" inkscape:pageopacity="0.0" inkscape:pageshadow="2" inkscape:zoom="5.6" inkscape:cx="143.67" inkscape:cy="46.6" inkscape:document-units="px" inkscape:current-layer="layer1" showgrid="false" inkscape:window-width="1280" inkscape:window-height="752" inkscape:window-x="0" inkscape:window-y="0" inkscape:window-maximized="1" units="px" />
  <metadata id="metadata7">
    <rdf:RDF>
      <cc:Work rdf:about="">
        <dc:format>image/svg+xml</dc:format>
        <dc:type rdf:resource="http://purl.org/dc/dcmitype/StillImage" />
        <dc:title></dc:title>
      </cc:Work>
    </rdf:RDF>
  </metadata>
  <g inkscape:label="Layer 1" inkscape:groupmode="layer" id="layer1" transform="translate(0,-961.4)">
    <rect style="opacity:0.001;fill:#000000;fill-opacity:1;stroke:none;stroke-width:2.5;stroke-linecap:round;stroke-linejoin:round;stroke-miterlimit:4;stroke-dasharray:none;stroke-dashoffset:0;stroke-opacity:1" id="rect4175" width="250" height="91" x="0" y="961.4" />
    <g id="layer1-6" inkscape:label="Layer 1" transform="matrix(0.20362,0,0,0.20362,61.891,966.85)" style="fill:#ffffff;fill-opacity:1">
      <g transform="translate(400.02,290.92)" id="g4202" style="fill:#ffffff;fill-opacity:1">
        <path style="fill:#ffffff;fill-opacity:1" d="m -286.94,72.01 c 9.34,-3.05 1.41,9.537 0,0 z m -6.44,-6.177 c 2.02,-8.938 6.98,8.882 0,0 z m 15.81,9.273 c 9.98,-6.922 1.69,10.475 0,0 z m -17.15,-19.723 c 5.45,-6.674 2.22,9.702 0,0 z m 27.02,18.289 c 4.97,-9.321 7.42,5.901 0,0 z m -27.22,-27.534 c 4.22,-8.564 4.29,8.755 0,0 l -0,-0 z m 34.87,18.345 c 6.82,-3.998 -1.21,9.226 0,0 z m -34.84,-29.069 c 4.4,-7.985 3.48,9.783 0,0 z m 35.94,20.747 c 0.16,-11.507 8.08,7.774 0,0 z m -36.21,-30.717 c 4.92,-8.074 3.83,9.081 0,0 z m 35.7,20.876 c 3.76,-11.816 6.42,8.501 0,0 z m -35.56,-31.073 c 5.44,-7.2147 1.95,9.443 0,0 l 0,0 z m 35.76,20.316 c 5.7,-11.027 3.4,10.5 0,0 z m -36.08,-29.9043 c 5.7,-9.6413 3.21,9.1953 0,0 z m 35.93,20.4033 c 4.64,-12.866 5.23,8.542 0,0 z m -35.83,-30.0642 c 2.48,-9.3808 4.97,7.6633 0,0 z m 35.94,19.3352 c 5.94,-9.2419 1.66,10.219 0,0 z m -36.11,-30.015 c 6.88,-10.27 2.38,11.8637 0,0 z m 35.86,19.839 c 4.47,-8.6947 4.59,10.52 0,0 z m -35.83,-29.902 c 3.46,-8.298 4.32,9.519 0,-0.03 l -0,0.03 z m 35.85,19.5056 c 5.44,-6.6746 2.22,9.7002 0,0 z m -54.36,-41.2906 c 8,-2.156 1.04,8.434 0,0 z m 18.58,11.209 c 4.79,-9.499 3.35,11.901 0,0 z m -25.38,-17.277 c 4.45,-8.732 4.65,10.526 0,0 z m 61.01,38.029 c 4.22,-8.564 4.29,8.7543 0,0 l -0,-0 z m -45.73,-30.606 c 7.22,-7.62 4.25,8.423 0,0 z m 9.22,0.619 c 3.71,-8.656 6.12,8.311 0,0 z m -23.33,-17.09 c 8.35,-4.741 -0.25,7.657 0,0 z m 59.87,36.542 c 4.91,-9.259 2.8,8.534 0,0 z m -53.25,-41.312 c 6.05,-8.957 4.77,9.61 0,0 z m 53.01,31.119 c 4.91,-8.058 3.8,9.088 0,0 z m -43.82,-31.95 c 6.98,-8.818 4.49,10.415 0,0 z m 43.69,22.407 c 5.2,-7.589 4.24,8.294 0,0 z m -43.05,-32.001 c 5.72,-5.603 2,9.525 0,0 l 0,0 z m 52.05,31.824 c 6.26,-8.671 6.27,7.661 0,0 z m 9.01,0.109 c 4.85,-10.318 8.25,4.305 0,0 z m -61.3,-40.971 c 6.76,-7.115 2.65,9.666 0,0 z m 0.17,-8.597 c 2.53,-7.724 4.76,6.907 0,0 z m 67.97,41.13 c 6.76,-7.112 2.64,9.667 0,0 z m -17.72,-14.098 c 5.69,-6.818 2.51,8.95 0,0 z m -50.12,-35.906 c 3.74,-7.58 2.92,6.923 0,0 z m 58.66,36.139 c 8.77,-5.941 4.39,8.062 0,0 z m 8.47,5.15 c 3.35,-6.008 4.56,7.945 0,0 z m -17.21,-14.561 c 4.91,-8.058 3.8,9.088 0,0 z m -50.24,-36.328 c 4.93,-9.22 2.77,8.55 0,0 z m -11.54,-8.64 c 1.95,-9.23 12.1,5.07 0,0 z m -5.49,-6.68 c 5.71,-9.63 3.19,9.21 0,0 z m 67.03,42.638 c 4.92,-8.056 3.8,9.085 0,0 z m -103.65,-70.238 c 5.31,-7.89 4.85,8.97 0,0 z m 8.2,4.59 c 12.01,-6.33 -1.39,10.32 0,0 z m 44.7,28.53 c 7.32,-7.91 3.89,10.32 0,0 z m 50.68,27.489 c 6.05,-9.459 4.56,11.291 0,0 z m -65.12,-43.739 c 6.28,-8.26 1.32,9.54 0,0 z m -39.88,-26.08 c 4.41,-8.67 3.27,9.79 0,0 z m 18.15,10.97 c 9.25,-7.6 3.2,7.71 0,0 z m 87.11,49.51 c 5.33,-6.88 1.85,9.071 0,0 z m -63.57,-44.59 c 4.78,-9.46 3.34,11.91 0,0 z m -35.65,-23.75 c 9.58,-5.76 -0.15,7.89 0,0 z m 20.98,14.5 c 4.03,-8.48 8.81,4.69 0,0 z m 78,44.83 c 5.32,-6.88 1.86,9.05 0,0 z m -61.84,-45.06 c 4.02,-10.86 4.43,8.36 0,0 z m -28.14,-19.1 c 9.68,-5.73 -0.77,8.42 0,0 z m 20.88,14.02 c 7.13,-9.96 4.3,8.24 0,0 z m 68.85,41.19 c 9.37,-9.15 1.74,9.71 0,0 z m 10.01,-1.03 c 12,-6.33 -1.4,10.3 0,0 z m -91.35,-59.03 c 9.72,-6.07 1.21,9.26 0,0 z m 20.3,13.97 c 5.8,-8.84 5.75,5.93 0,0 z m 77.94,38.95 c 4.08,-8.25 5.36,11.34 0,0 z m -90.12,-57 c 4.93,-9 7.3,5.63 0,0 z m 88.12,48.76 c 1.21,-12.13 7.14,6.45 0,0 l 0,0 z m -79.31,-54 c 6.6,-8.54 4.63,7.32 0,0 z m 77.59,42.32 c 4.49,-8.72 4.61,10.51 0,0 z m -68.61,-48.36 c 8.79,-5.24 -0.94,7.97 0,0 z m 66.41,39.24 c 2.18,-10.47 7.6,6.43 0,0 z m -65.07,-47 c 3.96,-13.88 6.79,7.21 0,0 z m 63.44,34.93 c 2.46,-9.18 6.95,11.62 0,0 z m 8.28,4.58 c 9.37,-3.02 1.38,9.53 0,0 z m 8.8,4.8 c 7.57,-1.21 3.09,7.72 0,0 z m 8.8,4.79 c 9.38,-3.01 1.35,9.54 0,0 z m 9.09,4.34 c 8.03,-5.08 1.63,8.15 0,0 z m -91.54,-59.74 c 8,-7.53 6.04,8.95 0,0 z m 10.08,0.13 c 7.02,-9.62 5.48,8.39 0,0 z m 90.72,54.27 c 8.63,-4.92 -1.19,9.22 0,0 z m -89.96,-62.02 c 3.75,-11.79 6.45,8.49 0,0 z m -6.89,-8.58 c 5.47,-7.28 3.16,10.31 0,0 l 0,0 z m 97.66,62.29 c 2.02,-8.92 6.98,8.89 0,0 z m -49.73,-33.65 c 7.19,-2.64 1.65,9.29 0,0 z m 8.4,5.43 c 9.36,-3.05 1.39,9.54 0,0 z m 8.46,5.33 c 9.35,-3.05 1.41,9.53 0,0 z m -36.16,-23.63 c 6.07,-8.95 4.77,9.61 0,0 z m 44.89,28.54 c 10.56,-4.09 2.44,8.37 0,0 z m 8.87,4.68 c 9.34,-3.04 1.41,9.53 0,0 z m 8.4,5.43 c 9.54,-3.09 0.88,8.47 0,0 z m -94.65,-63.96 c 6.9,-6.21 3.8,10.73 0,0 z m 41.47,25.3 c 8.79,-5.94 4.38,8.08 0,0 z m 8.66,4.59 c 5.44,-7.23 1.98,9.44 0,0 l 0,0 z m -18.09,-12.86 c 9.32,-7.19 1.24,9.54 0,0 z m -31.86,-25.46 c 0.18,-11.5 8.06,7.77 0,0 z m 38.96,17.43 c 8.63,-4.93 -1.19,9.22 0,0 z m -39.45,-27.29 c 3.75,-11.79 6.44,8.5 0,0 z m 42.77,18.93 c 6.55,-8.22 2.05,9.47 0,0 z m -37.01,-26.06 c 5.26,-8.75 7.62,5.38 0,0 z m 37.04,16.37 c 4.21,-8.58 4.29,8.75 0,0 l -0,0 z m -27.36,-17.57 c 7.97,-7.54 6.07,8.93 0,0 z m 10.07,0.1 c 6.83,-6.75 7.36,6.95 0,0 z m 17.03,7.44 c 2.9,-9.09 5.53,8.35 0,0 z m -6.97,-6.91 c 6.25,-8.66 6.28,7.66 0,0 z" id="path4192" inkscape:connector-curvature="0" />
        <path style="fill:#ffffff;fill-opacity:1" d="m 97.358,76.226 c 7.362,-6.108 5.102,6.049 0,0 z m -9.364,-2.28 c 1.868,-8.921 7.236,7.984 0,0 l 0,0 z m 18.466,-0.1 c 6.23,-8.376 4.77,6.71 0,0 z m -24.896,-5.88 c -1.655,-12.291 9.453,4.915 0,0 z m 32.496,-0.75 c 1.07,-10.156 5.53,4.72 0,0 z m -34.396,-11.217 c 5.71,-8.138 2.854,8.849 0,0 z m 35.886,1.098 c 1.8,-12.014 5.09,7.41 0,0 z m -35.916,-11.235 c 4.997,-7.68 3.024,8.649 0,0 z m 35.816,2.237 c -1.58,-9.802 7.68,1.832 0,0 z m -35.854,-12.314 c 4.999,-7.679 3.025,8.649 0,0 z m 35.814,2.238 c -1.88,-12.48 9.39,3.707 0,0 z m -35.851,-12.315 c 5.712,-8.141 2.865,8.846 0,0 z m 35.171,0.698 c 5.01,-9.387 3.57,8.466 0,0 z m -35.204,-10.807 c 4.477,-6.5185 2.852,8.858 0,0 z m 35.184,0.589 c 5.71,-8.142 2.86,8.849 0,0 z m -35.222,-10.6672 c 4.862,-6.7801 2.901,8.9532 0,0 z m 35.182,0.589 c 5.72,-8.1424 2.85,8.8522 0,0 z m -35.219,-10.666 c 4.862,-6.7818 2.901,8.953 0,0 z m 35.179,0.5879 c 5.72,-8.1367 2.86,8.8521 0,0 z m -35.228,-10.5667 c 3.627,-7.313 3.444,9.0546 0,0 z m 35.188,0.49 c 5,-7.68 3.04,8.6505 0,0 z m -35.226,-10.568 c 3.628,-7.313 3.445,9.055 0,0 z m 35.196,0.49 c 5,-7.682 3.02,8.653 0,0 z m -35.233,-10.568 c 3.723,-7.881 2.77,8.866 0,0 z m 35.193,0.49 c 5.72,-8.143 2.85,8.852 0,0 z m -56.493,-10.496 c -2.504,-8.657 9.095,4.567 0,0 z m 9.352,1.456 c 0.264,-10.001 12.419,6.108 0,0 z m 10.599,-1.092 c 4.7,-6.062 5.316,7.592 0,0 z m 36.512,0.01 c 5.71,-8.137 2.85,8.847 0,0 z m -61.146,-8.28 c -2.52,-10.034 8.251,-0.401 0,0 z m 70.766,8.712 c 2.38,-7.913 9.15,4.832 0,0 z m 10.12,-1.614 c 5.49,-10.598 7.2,6.089 0,0 z m -77.437,-17.271 c 5.995,-13.521 7.08,8.45 0,0 z m 83.547,9.475 c -4.63,-13.102 8.92,4.045 0,0 z m -73.612,-12.491 c 7.547,-5.899 4.587,7.104 0,0 z m 11.382,-0.403 c 4.89,-7.918 2.785,7.395 0,0 z m 36.08,-0.118 c 3.07,-9.308 6.54,7.581 0,0 z m 21.73,3.591 c -5.43,-9.337 10.3,0.243 0,0 z m -12.45,-3.755 c 6.99,-6.115 6.73,7.499 0,0 z m -45.383,-9.915 c 5.004,-7.681 3.024,8.654 0,0 z m 36.093,0.1 c 2.5,-10.185 4.94,7.527 0,0 z m -36.13,-10.174 c 5.004,-7.679 3.022,8.654 0,0 z m 35.97,0.997 c -1.38,-11.909 7.89,3.943 0,0 z m -36.008,-11.074 c 5.715,-8.137 2.861,8.85 0,0 z m 35.968,0.976 c -1.38,-11.853 7.91,3.907 0,0 z m -66.189,-11.603 c -0.617,-10.07 7.916,7.37 0,0 z m 9.334,2.11 c -0.152,-7.38 8.845,1.82 0,0 l 0,0 z m 10.035,-0.1 c 0.201,-7.55 9.59,2.63 0,0 l 0,0 z m 10.2,0.12 c -1.13,-8.3 9.47,3.98 0,0 z m 36.58,-0.6 c -1.12,-8.3 9.47,3.99 0,0 z m 9.38,-1.17 c 6.92,-5.95 3.73,6.54 0,0 z m -75.459,-11.07 c 4.999,-7.68 3.029,8.64 0,0 z m 85.529,11.15 c 6.72,-7.21 4.43,6.27 0,0 z m 10.51,-1.7 c 8.63,-8.57 1.27,6.99 0,0 z m -93.962,-19.27 c 6.354,-7.49 0.587,8.2 0,0 z m 94.242,10.62 c -1,-11.55 7.57,5.66 0,0 z m -92.671,-20.51 c 5.009,-7.67 3.018,8.65 0,0 z m 90.161,10.16 c 1.34,-11.05 5.78,6.44 0,0 l 0,0 z m -118.537,-22.78 c 6.198,-6.29 7.104,7.6 0,0 z m 30.828,2.79 c 4.995,-7.69 3.032,8.64 0,0 z m 85.219,9.59 c 0.34,-9.58 7.35,8.72 0,0 z m -106.629,-13.05 c -0.345,-8.88 11.192,1.8 0,0 z m -15.921,-4.35 c 0.993,-9.4 7.333,6.56 0,0 z m 24.032,-1.23 c 4.052,-10.26 9.255,5.6 0,0 z m 15.733,-0.65 c 4.891,-7.93 2.783,7.4 0,0 z m 80.305,9.04 c 2.07,-8.36 6.14,7.82 0,0 z m -120.641,-17.25 c 5.014,-6.75 2.65,7.34 0,0 z m 32.761,3.47 c 6.167,-8.99 7.844,6.13 0,0 z m 109.26,9.84 c -4.8,-9.3 9.64,2.82 0,0 z m 8.5,0 c 5.88,-6.1 4.14,7.29 0,0 z m -144.491,-18.14 c 0.257,-9.2 11.451,2.28 0,0 z m 35.969,4.26 c 3.502,-13.7 6.208,5.74 0,0 z m 76.592,8.33 c 0.81,-10.54 6.48,6.39 0,0 z m 15.2,0.7 c -5.38,-8.13 8.96,0.56 0,0 z m 23.6,0.29 c 4.11,-9.44 6.04,4.76 0,0 z m -143.086,-18.78 c 5.125,-10.63 7.522,6.05 0,0 z m 111.256,13.71 c -6.42,-10.09 10.52,1.33 0,0 z m -9.59,-6.56 c 1.64,-9.25 8.07,9.26 0,0 z m -93.468,-12.45 c 4.048,-10.26 9.258,5.6 0,0 z m 136.098,14.58 c 0.86,-9.61 7.04,6.96 0,0 z m -127.843,-19.77 c 6.106,-8.8 7.731,5.42 0,0 z m 120.543,13.52 c -1.13,-8.3 9.46,3.99 0,0 z m -111.407,-17.75 c 0.892,-9.21 8.24,3.23 0,0 z m 102.967,12.48 c 1.66,-7.22 7.29,6.18 0,0 l 0,-0 z m -8.72,-5.47 c 6.03,-5.98 5.46,8.39 0,0 z m -86.031,-12.22 c 2.334,-10.54 7.308,4.65 0,0 z m 79.061,9.95 c -5.43,-9.36 10.31,0.24 0,0 z m -9.13,-5.79 c -3.38,-8.13 9.76,3.59 0,0 z m -8.13,-5.04 c -1.94,-9.96 8.91,6.31 0,0 z m -59.821,-10.21 c 4.993,-7.69 3.036,8.64 0,0 z m 6.882,-4.84 c 7.206,-6.75 5.293,8.06 0,0 z m 10.343,-0.32 c 6.9,-7.44 4.494,9.29 0,0 z m 40.136,6.24 c -1.39,-11.84 7.92,3.86 0,0 z m -17.69,-6.39 c 5.55,-7.84 3.01,7.04 0,0 z m 8.74,0.62 c 7.31,-7.4 4.67,5.98 0,0 z m -31.099,-8.33 c 1.416,-9.41 8.21,6.04 0,0 z m 22.339,-0.64 c 5.15,-7.67 2.59,7.56 0,0 z m -28.277,-5.38 c -4.881,-10.43 10.63,3.49 0,0 z m 34.687,-0.16 c 0,-9.39 9.99,0.49 0,0 z m -38.118,-8.52 c -2.271,-8.24 7.744,0.45 0,0 z m 41.108,-2.99 c 5,-7.68 3.02,8.64 0,0 z m -40.66,-7.35 c 3.265,-11.4 6.534,5.32 0,0 l 0,0 z m 39.62,-0.95 c 0.69,-10.46 5.65,7.21 0,0 z m -34.139,-7.2 c 5.107,-10.63 7.538,6.03 0,0 z m 28.559,0 c -5,-8.9 10.14,2.28 0,0 z m -19.743,-5.88 c 7.326,-6.87 4.407,7.27 0,0 z m 10.074,0 c 6.599,-6.42 4.419,6.33 0,0 z" id="path4196" inkscape:connector-curvature="0" />
        <path style="fill:#ffffff;fill-opacity:1" d="m -107.09,66.061 c 3.25,-9.681 5.11,9.058 0,0 z m 6.63,5.652 c 9.489,-0.653 -1.78,7.45 0,0 z m -8.17,-16.261 c 3.67,-7.798 3.63,10.191 0,0 z m 17.74,18.697 c 10.535,-1.379 -2.374,7.891 0,0 z m -17.95,-28.624 c 5.47,-7.502 2.64,10.089 0,0 z m 0.1,-9.512 c 4.31,-8.908 3.07,8.55 0,0 z m 27.382,36.606 c 14.094,-7.828 -3.447,10.132 0,0 z m -27.672,-46.446 c 3.3,-10.298 6.74,7.8 0,0 z m 34.801,38.663 c 9.045,-6.249 -2.376,10.062 0,0 z m -34.631,-49.851 c 5.32,-7.4613 2.99,10.903 0,0 z m 0,-9.8025 c 3.69,-7.7916 3.6,10.2045 0,0 z m 35.65,49.6475 c 7.945,-5.261 1.032,10.143 0,0 z m -35.86,-59.5741 c 5.46,-7.4859 2.62,10.0897 0,0 z m 36.019,50.3511 c 3.63,-7.73 3.276,9.119 0,0 z m -35.929,-60.949 c 4.18,-7.736 3.52,10.7258 0,0 z m 35.885,51.367 c 3.168,-11.505 6.078,8.706 0,0 z m -56.745,-84.251 c 11.59,-0.945 -3.13,9.115 0,0 z m -4.68,-8.842 c 7.51,-5.799 0.87,12.13 0,0 z m 25.22,32.978 c 3.28,-10.288 6.72,7.817 0,0 z m 36.031,48.387 c 7.249,-5.414 2.03,11.561 0,0 z m -47.301,-68.938 c 8.46,-7.647 5.95,7.15 0,0 z m -8.39,-21.022 c 9.42,-1.65 -4.96,7.463 0,0 z m 19.82,30.391 c 5.47,-7.502 2.64,10.086 0,0 l 0,0 z m 36.025,50.287 c 5.108,-8.3585 3.236,11.269 0,0 z m -36.535,-59.957 c 9.63,-5.405 0.1,9.727 0,0 z m 36.224,49.475 c 7.936,-5.25348 1.026,10.143 0,0 z m -47.234,-71.073 c 7.52,-8.062 6.88,7.689 0,0 z m 47.408,62.0959 c 4.283,-8.7969 3.252,8.4268 0,0 z m -65.358,-101.8259 c 12.72,0.52 -1.8,9.016 0,0 z m 28.59,39.878 c 3.85,-10.634 6.96,6.075 0,0 z m 36.701,52.126 c 3.173,-11.518 6.083,8.6928 0,0 z m -66.711,-98.644 c 5.89,-7.7 1.63,8.97 0,0 z m -30.21,-43.33 c 0.55,-8.96 5.22,8.09 0,0 z m 7.03,4.12 c 9.48,-3.63 -0.18,8.61 0,0 z m 34.37,47.3 c 9.63,-5.4 0,9.742 0,0 z m 19.36,27.727 c 7.92,-5.26 1.04,10.146 0,0 z m 35.978,51.103 c 7.241,-5.416 2.041,11.56 0,0 z m -97.118,-141.29 c 7.79,-4.56 -1.84,9.47 0,0 l 0,0 z m 32.34,44.06 c 7.48,-6.33 0.21,11.47 0,0 z m 28.93,37.629 c 3.85,-6.981 4.23,8.153 0,0 z m 36.011,50.314 c 5.1,-8.134 3.159,11.253 0,0 z m -46.791,-69.173 c 11.71,-7.31 1.34,9.462 0,0 z m -31.91,-50.46 c 8.8,-2.28 -5.32,6.74 0,0 z m -12.24,-17.22 c 4.68,-8.9 5.18,4.93 0,0 z m 28.46,40.2 c 6.54,-5.74 1.23,9.15 0,0 z m 26.61,37.373 c 4.18,-9.063 3.62,8.517 0,0 z m 35.458,49.053 c 8.844,-6.05 1.79,10.639 0,0 z m -36.338,-58.756 c 9.64,-5.42 0,9.73 0,0 z m -24.11,-37.09 c 6.74,-6.57 2.44,10.02 0,0 z m -10.98,-16.71 c 5.83,-9.04 4.23,6.77 0,0 z m 81.563,112.794 c 9.92,-6.192 1.048,7.635 0,0 z m -92.313,-131.914 c 6.4,-9.77 4.94,7.41 0,0 z m 24.26,26.38 c 7.48,-6.32 0.2,11.47 0,0 z m 57.97,83.918 c 5.228,-8.61 6.546,8.048 0,0 z m -63.14,-96.218 c 6.4,-9.78 4.95,7.41 0,0 z m 63.231,86.076 c 6.403,-6.317 0.309,10.446 0.03,-0.02 l -0.03,0.02 z m 21.726,29.208 c 11.845,-2.132 -6.086,8.004 0,0 z m -94.267,-135.694 c 9.96,-1.32 -5.4,6.37 0,0 z m 16.07,23.79 c 8.41,-7.85 1.53,9.87 0,0 z m 65.962,92.634 c 5.515,-7.921 8.774,9.196 0,0 z m -9.569,-19.863 c 6.824,-2.996 2.143,10.747 0,0 z m -52.653,-83.001 c 9.29,-1.81 -6.83,8.64 0,0 z m 78.177,113.816 c 4.388,-9.407 3.571,10.791 0,0 z m -89.807,-133.136 c 9.06,-1.41 -4.42,8.06 0,0 z m 64.098,93.213 c 7.938,-5.243 1.02,10.151 0,0 z m 20.892,29.677 c 11.221,-1.981 -0.05,9.056 0,0 z m -20.851,-37.64 c 5.307,-7.93 4.865,7.886 0,0 z m -55.189,-90.02 c 9.06,-1.42 -4.41,8.06 0,0 z m 64.375,89.57 c 6.96,-7.58 5.046,6.491 0,0 z m -56.185,-94.41 c 9.27,-6.35 -2.43,8.89 0,0 z m 65.425,94.59 c 8.472,-7.63 5.909,7.169 0,0 z m 9.932,-0.69 c 6.827,-6.05 2.548,6.288 0,0 z m -70.537,-102.81 c 12.78,-3.43 1.26,8.56 0,0 z m -3.29,-14.22 c 6.47,-11.71 4.49,8.81 0,0 z m 76.244,109.22 c 0.682,-10.04 7.349,7.2 0,0 z m -70.354,-106.66 c 9.01,-3.43 1.22,7.8 0,0 z m 68.058,96.45 c 5.353,-7.31 3.829,10.18 0,0 z m -57.248,-84.47 c 6.309,-5.11 0.84,8.48 0,0 z m 55.282,75.32 c 4.76,-7.62 2.667,9.83 0,0 z m -68.262,-100.4 c 6.7,-8.18 1.41,9.16 0,0 z m 12,13.63 c 9.041,-5.89 0.7,10.7 0,0 z m 53.915,76.77 c 7.931,-5.22 1.025,10.13 0,0 z m -2.202,-8.89 c 5.413,-6.42 3.396,9.69 0,0 z m -61.243,-90.79 c 9.23,-10.07 1.53,9.9 0,0 z m 59.726,80.14 c 8.497,0.47 -2.612,9.68 0,0 z m -27.972,-46.02 c 6.193,-5.45 2.392,9.31 0,0 z m 24.99,36.75 c 11.025,-0.98 0.319,10.41 0,0 z m -52.624,-80.59 c 7.42,-6.29 -0.77,10.3 0,0 z m 61.551,85.67 c 10.389,-0.98 -1.779,8.05 0,0 z m -33.956,-52.18 c 6.388,-7.8 3.237,7.14 0,0 z m 42.102,57.76 c 8.483,-3.11 2.128,7.96 0,0 z m -31.523,-46.32 c 9.9,-7.41 6.787,7.6 0,0 z m 7.885,6.55 c 7.84,-3.08 1.566,13.04 0,0 z m 32.274,44.76 c 11.913,-3.67 0.531,9.41 0,0 z m -70.173,-102.91 c 9.606,-1.24 -4.76,6.68 0,0 z m 28.48,39.19 c 8.024,-6.41 4.601,7.99 0,0 z m 18.278,24.19 c 11.554,-0.95 -3.092,9.12 0,0 z m 31.981,42.85 c 8.009,-6.42 4.62,8 0,0 z m -23.772,-37.93 c 11.415,-0.49 -1.789,7.98 0,0 z m -47.073,-70 c 8.401,-6.18 4.676,8.22 0,0 z m 27.317,36.47 c 4.242,-7.22 5.635,9.55 0,0 z m 27.726,39.38 c 6.982,-5.95 5.985,10.02 0,0 z m -29.772,-50.12 c 8.498,0.47 -2.611,9.69 0,0 z m 38.905,54.44 c 11.423,-2.02 -0.261,9 0,0 z m 15.722,21.22 c 8.987,-3.97 -1.246,9.93 0,0 z m -70.11,-100.64 c 10.821,-1.39 0.664,9.97 0,0 z m 11.571,16.26 c 7.933,-5.23 1.028,10.14 0,0 z m -3.927,-9.2 c 5.885,-5.25 3.253,9.38 0,0 z m 55.452,77.14 c 9.305,-2.75 1.09,10.69 0,0 z m 7.484,7.85 c 2.385,-7.84 5.916,9.21 0,0 z" id="path4200" inkscape:connector-curvature="0" />
      </g>
    </g>
  </g>
</svg>
