<?xml version="1.0" encoding="UTF-8"?>
<svg version="1.1" viewBox="0 0 250 91" xmlns="http://www.w3.org/2000/svg" xmlns:cc="http://creativecommons.org/ns#" xmlns:dc="http://purl.org/dc/elements/1.1/" xmlns:rdf="http://www.w3.org/1999/02/22-rdf-syntax-ns#">
<metadata>
<rdf:RDF>
<cc:Work rdf:about="">
<dc:format>image/svg+xml</dc:format>
<dc:type rdf:resource="http://purl.org/dc/dcmitype/StillImage"/>
<dc:title/>
</cc:Work>
</rdf:RDF>
</metadata>
<g transform="translate(0,-961.4)">
<g transform="matrix(.93372 0 0 .93372 11.135 10.982)" fill="#fff">
<g opacity=".7">
<path d="m145.95 1090c-3.4237-1.1303-5.4954-2.4659-7.3549-4.7416-1.9729-2.4145-7.5144-12.674-7.5144-13.912 0-1.5459 0.86111-2.6932 2.0213-2.6932 1.3079 0 1.9892 0.6457 4.351 4.1237 0.99678 1.4678 1.9992 2.6688 2.2275 2.6688 0.23806 0 0.22926-5.1959 0.3061-12.18 0.1236-11.234-0.18289-12.366 0.73146-13.375s2.7826-1.3703 3.8506-0.096c1.068 1.2746 1.0136 1.6527 1.0136 4.6527l-2e-3 5.5937s0.59378-1.3445 2.4151-1.3445c2.0068 7e-4 2.3383 2.0945 2.3383 5.0514 0.66856-1.3006 1.1679-2.1017 2.8717-2.1287s2.9687 0.8125 2.9687 4.8125c0.82813-1.9844 1.625-2.5625 3.0469-2.5625s2.7812 1.5781 3.1383 8.2154c0.59316 6.9229 0.0482 13.273-1.299 15.134-2.2855 3.1589-9.7843 4.5387-15.11 2.7803zm-10.816-29.479c-3.7103-3.4788-4.3781-6.8722-4.1322-10.073 0.52629-6.5565 5.5136-10.976 12-11 6.585-0.024 11.811 5.4876 11.761 12.243-0.0275 3.7189-1.7612 5.7573-3.1369 7.2712-0.11584-0.1158-0.62435-0.5139-1.072-1.0722 0.41455-0.3975 1.0928-1.1359 1.4006-1.7683 2.0719-4.2568 1.09-9.1301-2.4693-12.255-2.0982-1.8422-3.9993-2.7151-6.9993-2.7151s-6.7866 1.9489-8.4844 5.2969c-2.266 4.4685-2 8 1.5938 12 0.6795 0.6634 2.1464 1.7986 2.7366 2.079 0.0241 0.653-6e-3 1.0985-0.0179 1.921-0.3125 0-1.1388-0.4262-3.1803-1.9274zm1.5803-4.3143c-2.5638-3.3613-2.7125-7.7583 1.2875-11.102 2-1.6563 5-1.6563 7.2832-1.1854 1.7625 0.4423 3.9648 2.558 4.9269 4.7329 1.7899 4.7962-1.2101 7.7962-3.2101 8.7962v-2c2-1 2.4243-4.5071 1.4355-6.5908-1.0126-2.134-3.0201-3.6478-5.7033-3.6499-4.6689 0-8.7322 6.2407-4.2682 10.241 7e-3 0.5547 4e-3 -0.071-0.022 1.9145-0.50327 0.1106-0.80859 0.051-1.7295-1.1562z" stroke-width=".45283"/>
<path d="m19.713 1077.2v-12.527l-4.8186-0.044-0.04488-4.1482h14.249v4.1902h-4.7767v25.057h-4.6091zm77.685-2.1382v-14.582h12.487v4.1062h-7.8774v8.2127h6.2852v4.1064h-6.2852v8.6316h7.8774v4.1063h-12.487zm15.42-0.01v-14.586l4.4206 0.029c4.2505 0.028 4.446 0.037 5.0808 0.2136 2.1339 0.5957 3.327 1.7886 3.9258 3.9251 0.17486 0.6238 0.18512 0.8242 0.1864 3.6352 1e-3 2.8298-8e-3 3.0074-0.18642 3.6405-0.40449 1.4338-1.1266 2.4882-2.163 3.1584l-0.54299 0.3512 0.4427 0.2414c0.9134 0.4981 1.7197 1.5289 2.1174 2.7067 0.36334 1.0762 0.3943 1.4593 0.46047 5.6986 0.0639 4.0964 0.0815 4.3409 0.38546 5.3843l0.0549 0.1886h-4.6157l-0.0874-0.2724c-0.22967-0.7157-0.28456-1.5703-0.34049-5.3005-0.0556-3.7088-0.0695-3.9706-0.23823-4.4842-0.28875-0.8791-0.67755-1.3061-1.4677-1.6122-0.33914-0.1313-0.7078-0.1779-1.6712-0.211l-1.2361-0.043v11.923h-4.5253zm7.5534-1.6233c0.21356-0.077 0.53819-0.2692 0.72139-0.426 0.66441-0.5688 0.85841-1.4587 0.85841-3.9379 0-2.3879-0.18426-3.3055-0.77948-3.8815-0.4919-0.4761-0.78828-0.5489-2.3828-0.5854l-1.4456-0.033v9.0873l1.3199-0.041c0.93951-0.029 1.4318-0.082 1.7082-0.1821z" stroke-width=".083803"/>
<path d="m31.513 1075v-14.582h12.487v4.1062h-7.8774v8.2127h6.2852v4.1064h-6.2852v8.6316h7.8774v4.1063h-12.487z" stroke-width=".083803"/>
<path d="m47.027 1089.5c0-0.04 1.0371-6.5668 2.3046-14.505 1.2675-7.9383 2.3046-14.468 2.3046-14.51 0-0.045 1.4042-0.076 3.394-0.076 2.1155 0 3.394 0.031 3.394 0.081 0 0.044 1.0371 6.5732 2.3046 14.509 1.2675 7.9355 2.3046 14.461 2.3046 14.501s-1.0371 0.073-2.3046 0.073c-1.2675 0-2.3046-0.017-2.3046-0.038s-0.1697-1.1602-0.37711-2.5321c-0.20741-1.3719-0.37711-2.5428-0.37711-2.602 0-0.086-0.58429-0.1077-2.8493-0.1077-1.5671 0-2.8493 0.03-2.8493 0.066s-0.1697 1.1882-0.37711 2.5601c-0.20741 1.3719-0.37711 2.5302-0.37711 2.574 0 0.048-0.82685 0.08-2.0951 0.08-1.1523 0-2.0951-0.032-2.0951-0.072zm9.9725-9.1996c0-0.1603-2.1025-14.19-2.1564-14.389-0.04536-0.1676-0.38234 1.8901-1.1392 6.9556-0.59115 3.9564-1.0934 7.2595-1.116 7.3402-0.03847 0.137 0.105 0.1467 2.1852 0.1467 1.2245 0 2.2264-0.024 2.2264-0.053z" stroke-width=".083803"/>
<path d="m70.239 1090c-1.5737-0.2048-2.6971-0.7256-3.6763-1.7045-1.1442-1.1437-1.7088-2.5392-1.8853-4.6591-0.05585-0.6705-0.07547-4.0191-0.05463-9.3021 0.03146-7.9614 0.03872-8.2814 0.20466-9.0099 0.35028-1.5376 0.92003-2.6115 1.8516-3.4901 1.2652-1.1932 3.1565-1.7677 5.3722-1.6319 2.7005 0.1655 4.51 1.2702 5.5087 3.3632 0.58234 1.2205 0.7848 2.5333 0.78515 5.091l2.38e-4 1.7389h-4.345l-0.03244-2.116c-0.03573-2.3304-0.08302-2.5919-0.57734-3.1916-0.43742-0.5307-0.82894-0.6838-1.7494-0.684-0.96233-2e-4 -1.4624 0.1991-1.8534 0.7388-0.55767 0.7698-0.53499 0.3465-0.53499 9.9877 0 9.8178-0.03341 9.2844 0.62843 10.036 0.43778 0.4972 0.92519 0.6876 1.7616 0.6879 0.53205 2e-4 0.70815-0.039 1.1313-0.2501 0.33606-0.1678 0.57646-0.3607 0.72958-0.5855 0.42272-0.6204 0.48395-1.0945 0.48395-3.7468v-2.4127h4.3761l-0.04219 2.7445c-0.03622 2.3578-0.06591 2.8449-0.21056 3.4569-0.57439 2.4301-1.8278 3.9017-3.9184 4.6005-1.1727 0.392-2.6016 0.5143-3.9535 0.3385z" stroke-width=".083803"/>
<path d="m81 1075v-14.582h4.5253v12.486h5.2796v-12.486h4.6091v29.163h-4.6091v-12.486h-5.2796v12.486h-4.5253z" stroke-width=".083803"/>
</g>
<path d="m171.02 1077.3v-12.696h-4.9255v-4.1611h14.437v4.1611h-4.8405v25.392h-4.6707z" stroke-width=".084922"/>
<path d="m180.93 1089.9c0-0.051 1.0509-6.6662 2.3354-14.701 1.2844-8.0344 2.3354-14.642 2.3354-14.684 0-0.043 1.4811-0.076 3.4393-0.076 2.2432 0 3.4393 0.03 3.4393 0.085 0 0.047 1.0509 6.6531 2.3353 14.68 1.2844 8.0274 2.3354 14.638 2.3354 14.691 0 0.069-0.65605 0.096-2.3354 0.096-1.2844 0-2.3353-0.03-2.3353-0.067s-0.17197-1.2041-0.38215-2.5943c-0.21019-1.3903-0.38215-2.564-0.38215-2.6084 0-0.049-1.1192-0.081-2.8873-0.081-1.588 0-2.8873 0.019-2.8873 0.043 0 0.023-0.17197 1.1888-0.38215 2.5898s-0.38215 2.5856-0.38215 2.6324c0 0.054-0.76094 0.085-2.123 0.085-1.4772 0-2.123-0.028-2.123-0.093zm10.068-9.652c-0.0289-0.1753-0.52387-3.482-1.1-7.3484-0.57609-3.8665-1.063-7.0456-1.082-7.0645-0.0288-0.028-0.6537 4.045-2.0284 13.224l-0.22577 1.5074h4.4887z" stroke-width=".084922"/>
<path d="m199.41 1075.7c-9e-3 -13.83-8e-3 -15.064 3e-3 -15.201 3e-3 -0.035 1.8302-0.063 4.0605-0.063 3.6854 0 4.1286 0.016 4.8618 0.1667 2.2649 0.465 3.8083 1.8837 4.4465 4.0875 0.35181 1.2148 0.41398 2.1419 0.37045 5.5242-0.0351 2.7298-0.0599 3.1705-0.21385 3.8163-0.47669 1.9989-1.4118 3.278-2.9471 4.0315-1.2741 0.6253-2.2735 0.8007-4.5623 0.8007h-1.4247v11.125h-4.5858zm7.9649-1.2895c0.5299-0.2466 0.84723-0.6805 1.013-1.3852 0.17605-0.7481 0.16548-6.1701-0.0134-6.8611-0.16403-0.6338-0.47959-1.04-1.0198-1.3129-0.39083-0.1975-0.52286-0.2144-1.8852-0.242l-1.4649-0.03v10.038h1.4649c1.3696 0 1.4936-0.014 1.9053-0.2059z" stroke-width=".084922"/>
<path d="m215.23 1075.2v-14.781l8.7045 0.058 0.76201 0.2357c1.2694 0.3927 2.1364 0.9467 2.8784 1.8391 0.44218 0.5318 0.94788 1.6064 1.1589 2.4627 0.35162 1.427 0.42729 6.87 0.12008 8.6384-0.36418 2.0964-1.419 3.6328-3.0454 4.4356-1.1386 0.5621-1.8389 0.6917-4.0182 0.7444l-1.8895 0.046v11.103h-4.6707zm7.7701-0.6847c0.50698-0.1407 1.0117-0.6899 1.2025-1.3082 0.13997-0.4537 0.15653-0.8353 0.15653-3.607 0-2.7884-0.0157-3.1464-0.15672-3.565-0.2172-0.645-0.42439-0.9041-0.93349-1.1672-0.41463-0.2142-0.51772-0.2284-1.9033-0.262l-1.4649-0.036v10.04h1.38c0.759-3e-4 1.5327-0.043 1.7194-0.095z" stroke-width=".084922"/>
<path d="m15 1056.4h115l1 2h-116z" fill-opacity=".9913"/>
<path d="m229 1056.4h-73l-1 2h74z" fill-opacity=".9913"/>
<path d="m15 1091.8h214v2h-214z" fill-opacity=".9913"/>
</g>
</g>
</svg>
