<?xml version="1.0" encoding="UTF-8" standalone="no"?>
<!-- Created with Inkscape (http://www.inkscape.org/) -->

<svg
   xmlns:dc="http://purl.org/dc/elements/1.1/"
   xmlns:cc="http://creativecommons.org/ns#"
   xmlns:rdf="http://www.w3.org/1999/02/22-rdf-syntax-ns#"
   xmlns:svg="http://www.w3.org/2000/svg"
   xmlns="http://www.w3.org/2000/svg"
   xmlns:sodipodi="http://sodipodi.sourceforge.net/DTD/sodipodi-0.dtd"
   xmlns:inkscape="http://www.inkscape.org/namespaces/inkscape"
   width="250"
   height="91"
   viewBox="0 0 250 91"
   id="svg2"
   version="1.1"
   inkscape:version="0.92.2 (5c3e80d, 2017-08-06)"
   sodipodi:docname="teacher-tapp.svg">
  <defs
     id="defs4">
    <polygon
       points="240.4 0.104 0.06 0.104 0.06 127.3 480.74 127.3 480.74 0.104"
       id="path-1" />
    <polygon
       points="0.453 61.94 312.52 61.94 312.52 31.38 312.52 0.82 0.453 0.82"
       id="path-3" />
  </defs>
  <sodipodi:namedview
     id="base"
     pagecolor="#ffffff"
     bordercolor="#666666"
     borderopacity="1.0"
     inkscape:pageopacity="0.0"
     inkscape:pageshadow="2"
     inkscape:zoom="2.8284271"
     inkscape:cx="183.83613"
     inkscape:cy="7.7261035"
     inkscape:document-units="px"
     inkscape:current-layer="layer1"
     showgrid="true"
     inkscape:window-width="1920"
     inkscape:window-height="1046"
     inkscape:window-x="-11"
     inkscape:window-y="-11"
     inkscape:window-maximized="1"
     units="px"
     showguides="true">
    <inkscape:grid
       type="xygrid"
       id="grid5735" />
  </sodipodi:namedview>
  <metadata
     id="metadata7">
    <rdf:RDF>
      <cc:Work
         rdf:about="">
        <dc:format>image/svg+xml</dc:format>
        <dc:type
           rdf:resource="http://purl.org/dc/dcmitype/StillImage" />
        <dc:title></dc:title>
      </cc:Work>
    </rdf:RDF>
  </metadata>
  <g
     inkscape:label="Layer 1"
     inkscape:groupmode="layer"
     id="layer1"
     transform="translate(0,-961.4)">
    <rect
       style="opacity:0.001;fill:#ffffff;fill-opacity:1;stroke:none;stroke-width:2.5;stroke-linecap:round;stroke-linejoin:round;stroke-miterlimit:4;stroke-dasharray:none;stroke-dashoffset:0;stroke-opacity:1"
       id="rect4175"
       width="250"
       height="91"
       x="0"
       y="961.4" />
    <path
       style="fill:#ffffff;fill-opacity:1"
       d=""
       id="path4239"
       inkscape:connector-curvature="0" />
    <path
       style="fill:#000000;stroke-width:0.47"
       d=""
       id="path919"
       inkscape:connector-curvature="0" />
    <path
       style="fill:#000000;stroke-width:0.47"
       d=""
       id="path887"
       inkscape:connector-curvature="0" />
    <g
       id="g1091"
       transform="matrix(0.93372173,0,0,0.93372173,11.134594,10.981819)"
       style="fill:#ffffff">
      <g
         style="opacity:0.7;fill:#ffffff"
         id="g1049">
        <path
           inkscape:connector-curvature="0"
           id="path950"
           d="m 145.94783,1089.9517 c -3.42374,-1.1303 -5.49538,-2.4659 -7.35492,-4.7416 -1.97288,-2.4145 -7.51438,-12.6735 -7.51438,-13.9115 0,-1.5459 0.86111,-2.6932 2.02132,-2.6932 1.30788,0 1.9892,0.6457 4.35104,4.1237 0.99678,1.4678 1.99915,2.6688 2.22749,2.6688 0.23806,0 0.22926,-5.1959 0.3061,-12.1797 0.1236,-11.2344 -0.18289,-12.3657 0.73146,-13.3752 0.91435,-1.0095 2.78263,-1.3703 3.85058,-0.096 1.06795,1.2746 1.01364,1.6527 1.01364,4.6527 l -0.002,5.5937 c 0,0 0.59378,-1.3445 2.41508,-1.3445 2.00683,7e-4 2.33827,2.0945 2.33827,5.0514 0.66856,-1.3006 1.16788,-2.1017 2.87169,-2.1287 1.70381,-0.027 2.96874,0.8125 2.96874,4.8125 0.82813,-1.9844 1.62501,-2.5625 3.04688,-2.5625 1.42187,0 2.78125,1.5781 3.13832,8.2154 0.59316,6.9229 0.0482,13.2726 -1.29902,15.1345 -2.2855,3.1589 -9.78429,4.5387 -15.11026,2.7803 z m -10.81566,-29.4791 c -3.71029,-3.4788 -4.37814,-6.8722 -4.13217,-10.0726 0.52629,-6.5565 5.51358,-10.9764 12,-11 6.58498,-0.024 11.81114,5.4876 11.76124,12.2427 -0.0275,3.7189 -1.76124,5.7573 -3.13689,7.2712 -0.11584,-0.1158 -0.62435,-0.5139 -1.07205,-1.0722 0.41455,-0.3975 1.09283,-1.1359 1.40065,-1.7683 2.07193,-4.2568 1.09003,-9.1301 -2.46926,-12.2552 -2.0982,-1.8422 -3.9993,-2.7151 -6.9993,-2.7151 -3,0 -6.78664,1.9489 -8.48437,5.2969 -2.26595,4.4685 -2,8 1.59375,12 0.6795,0.6634 2.14642,1.7986 2.73665,2.079 0.0241,0.653 -0.006,1.0985 -0.0179,1.921 -0.3125,0 -1.13884,-0.4262 -3.18033,-1.9274 z m 1.58034,-4.3143 C 134.14869,1052.797 134,1048.4 138,1045.0563 c 2,-1.6563 5,-1.6563 7.28322,-1.1854 1.76246,0.4423 3.96477,2.558 4.92686,4.7329 C 152,1053.4 149,1056.4 147,1057.4 v -2 c 2,-1 2.42432,-4.5071 1.43553,-6.5908 -1.01262,-2.134 -3.02012,-3.6478 -5.70328,-3.6499 -4.66893,0 -8.73225,6.2407 -4.26821,10.2407 0.007,0.5547 0.004,-0.071 -0.022,1.9145 -0.50327,0.1106 -0.80859,0.051 -1.7295,-1.1562 z"
           style="fill:#ffffff;stroke-width:0.45283017"
           sodipodi:nodetypes="ccsscsszzcccczczccccccccccccccccccccccccccccccc" />
        <path
           style="fill:#ffffff;stroke-width:0.08380259"
           d="m 19.713141,1077.1774 v -12.5272 l -2.40933,-0.022 -2.409318,-0.022 -0.02244,-2.0741 -0.02244,-2.0741 h 7.124683 7.124684 v 2.0951 2.0951 h -2.388375 -2.388369 v 12.5285 12.5285 h -2.304572 -2.304573 z m 77.685002,-2.1382 v -14.5816 h 6.243297 6.24329 v 2.0531 2.0531 h -3.93873 -3.93872 v 4.1064 4.1063 h 3.1426 3.1426 v 2.0532 2.0532 h -3.1426 -3.1426 v 4.3158 4.3158 h 3.93872 3.93873 v 2.0532 2.0531 h -6.24329 -6.243297 z m 15.419677,-0.01 v -14.5864 l 4.42059,0.029 c 4.25049,0.028 4.44598,0.037 5.08079,0.2136 2.13393,0.5957 3.32701,1.7886 3.92584,3.9251 0.17486,0.6238 0.18512,0.8242 0.1864,3.6352 0.001,2.8298 -0.008,3.0074 -0.18642,3.6405 -0.40449,1.4338 -1.12658,2.4882 -2.16297,3.1584 l -0.54299,0.3512 0.4427,0.2414 c 0.9134,0.4981 1.71971,1.5289 2.11738,2.7067 0.36334,1.0762 0.3943,1.4593 0.46047,5.6986 0.0639,4.0964 0.0815,4.3409 0.38546,5.3843 l 0.0549,0.1886 h -2.30785 -2.30784 l -0.0874,-0.2724 c -0.22967,-0.7157 -0.28456,-1.5703 -0.34049,-5.3005 -0.0556,-3.7088 -0.0695,-3.9706 -0.23823,-4.4842 -0.28875,-0.8791 -0.67755,-1.3061 -1.46774,-1.6122 -0.33914,-0.1313 -0.7078,-0.1779 -1.67121,-0.211 l -1.23609,-0.043 v 5.9613 5.9614 h -2.26267 -2.26267 z m 7.55341,-1.6233 c 0.21356,-0.077 0.53819,-0.2692 0.72139,-0.426 0.66441,-0.5688 0.85841,-1.4587 0.85841,-3.9379 0,-2.3879 -0.18426,-3.3055 -0.77948,-3.8815 -0.4919,-0.4761 -0.78828,-0.5489 -2.3828,-0.5854 l -1.44559,-0.033 v 4.5437 4.5436 l 1.31989,-0.041 c 0.93951,-0.029 1.43179,-0.082 1.70818,-0.1821 z"
           id="path1003"
           inkscape:connector-curvature="0"
           sodipodi:nodetypes="cccccccccccccccccccccccccccccccccccccccccccccccccccccccccccccccccccccccscccccccc" />
        <path
           inkscape:connector-curvature="0"
           id="path1007"
           d="m 31.513415,1075.0392 v -14.5816 H 37.756707 44 v 2.0531 2.0531 h -3.93872 -3.93872 v 4.1064 4.1063 h 3.142595 3.142595 v 2.0532 2.0532 H 39.265155 36.12256 v 4.3158 4.3158 H 40.06128 44 v 2.0532 2.0531 h -6.243293 -6.243292 z"
           style="fill:#ffffff;stroke-width:0.08380259"
           sodipodi:nodetypes="ccccccccccccccccccccccccc" />
        <path
           inkscape:connector-curvature="0"
           id="path1009"
           d="m 47.027489,1089.5489 c 0,-0.04 1.037058,-6.5668 2.304573,-14.5052 1.267515,-7.9383 2.304572,-14.4677 2.304572,-14.5097 0,-0.045 1.404221,-0.076 3.394003,-0.076 2.115506,0 3.394008,0.031 3.394008,0.081 0,0.044 1.037051,6.5732 2.304573,14.5087 1.267509,7.9355 2.304566,14.461 2.304566,14.501 0,0.04 -1.037057,0.073 -2.304566,0.073 -1.267522,0 -2.304573,-0.017 -2.304573,-0.038 0,-0.021 -0.169702,-1.1602 -0.377113,-2.5321 -0.207412,-1.3719 -0.377114,-2.5428 -0.377114,-2.602 0,-0.086 -0.584287,-0.1077 -2.849284,-0.1077 -1.567112,0 -2.84929,0.03 -2.84929,0.066 0,0.036 -0.169702,1.1882 -0.377114,2.5601 -0.207411,1.3719 -0.377113,2.5302 -0.377113,2.574 0,0.048 -0.826854,0.08 -2.095064,0.08 -1.152283,0 -2.095064,-0.032 -2.095064,-0.072 z M 57,1080.3493 c 0,-0.1603 -2.102539,-14.1901 -2.156399,-14.3892 -0.04536,-0.1676 -0.382338,1.8901 -1.139205,6.9556 -0.591152,3.9564 -1.093369,7.2595 -1.116031,7.3402 -0.03847,0.137 0.104995,0.1467 2.185219,0.1467 1.224526,0 2.226416,-0.024 2.226416,-0.053 z"
           style="fill:#ffffff;stroke-width:0.08380259"
           sodipodi:nodetypes="scssscssssssssssssscscsss" />
        <path
           inkscape:connector-curvature="0"
           id="path1011"
           d="m 70.238736,1089.9507 c -1.573709,-0.2048 -2.697086,-0.7256 -3.676345,-1.7045 -1.14415,-1.1437 -1.708798,-2.5392 -1.88528,-4.6591 -0.05585,-0.6705 -0.07547,-4.0191 -0.05463,-9.3021 0.03146,-7.9614 0.03872,-8.2814 0.204656,-9.0099 0.350275,-1.5376 0.920033,-2.6115 1.851583,-3.4901 1.26521,-1.1932 3.156539,-1.7677 5.37223,-1.6319 2.700526,0.1655 4.510009,1.2702 5.508692,3.3632 0.582342,1.2205 0.784803,2.5333 0.785151,5.091 l 2.38e-4,1.7389 H 76.172519 74 l -0.03244,-2.116 c -0.03573,-2.3304 -0.08302,-2.5919 -0.577337,-3.1916 -0.437418,-0.5307 -0.828944,-0.6838 -1.749416,-0.684 -0.962327,-2e-4 -1.462379,0.1991 -1.853382,0.7388 -0.557667,0.7698 -0.534987,0.3465 -0.534987,9.9877 0,9.8178 -0.03341,9.2844 0.628429,10.0364 0.437778,0.4972 0.925191,0.6876 1.761555,0.6879 0.532049,2e-4 0.708147,-0.039 1.131335,-0.2501 0.336056,-0.1678 0.576458,-0.3607 0.729577,-0.5855 0.422718,-0.6204 0.483949,-1.0945 0.483949,-3.7468 v -2.4127 h 2.188061 2.18806 l -0.04219,2.7445 c -0.03622,2.3578 -0.06591,2.8449 -0.210564,3.4569 -0.574391,2.4301 -1.827804,3.9017 -3.918399,4.6005 -1.17269,0.392 -2.60156,0.5143 -3.953536,0.3385 z"
           style="fill:#ffffff;stroke-width:0.08380259"
           sodipodi:nodetypes="ccccccccscccccccsccccscccccccc" />
        <path
           inkscape:connector-curvature="0"
           id="path1013"
           d="m 81,1075.0392 v -14.5816 h 2.262668 2.262669 v 6.2432 6.2433 h 2.639781 2.639782 v -6.2433 -6.2432 h 2.304572 2.304573 v 14.5816 14.5816 H 93.109472 90.8049 v -6.2432 -6.2433 h -2.639782 -2.639781 v 6.2433 6.2432 H 83.262668 81 Z"
           style="fill:#ffffff;stroke-width:0.08380259"
           sodipodi:nodetypes="ccccccccccccccccccccccccc" />
      </g>
      <g
         style="fill:#ffffff"
         id="g1074">
        <path
           style="fill:#ffffff;stroke-width:0.08492179"
           d="m 171.01919,1077.2653 v -12.6959 h -2.46273 -2.46273 v -2.0805 -2.0806 h 7.21835 7.21835 v 2.0806 2.0805 h -2.42027 -2.42027 v 12.6959 12.6958 h -2.33535 -2.33535 z"
           id="path1005"
           inkscape:connector-curvature="0"
           sodipodi:nodetypes="ccccccccccccccccc" />
        <path
           inkscape:connector-curvature="0"
           id="path1015"
           d="m 180.9319,1089.8684 c 0,-0.051 1.0509,-6.6662 2.33535,-14.7006 1.28443,-8.0344 2.33535,-14.6421 2.33535,-14.6837 0,-0.043 1.48107,-0.076 3.43933,-0.076 2.24323,0 3.43933,0.03 3.43933,0.085 0,0.047 1.05091,6.6531 2.33534,14.6805 1.28445,8.0274 2.33535,14.6384 2.33535,14.6912 0,0.069 -0.65605,0.096 -2.33535,0.096 -1.28443,0 -2.33534,-0.03 -2.33534,-0.067 0,-0.037 -0.17197,-1.2041 -0.38215,-2.5943 -0.21019,-1.3903 -0.38215,-2.564 -0.38215,-2.6084 0,-0.049 -1.11916,-0.081 -2.88734,-0.081 -1.58804,0 -2.88734,0.019 -2.88734,0.043 0,0.023 -0.17197,1.1888 -0.38215,2.5898 -0.21018,1.401 -0.38215,2.5856 -0.38215,2.6324 0,0.054 -0.76094,0.085 -2.12304,0.085 -1.47725,0 -2.12304,-0.028 -2.12304,-0.093 z M 191,1080.2164 c -0.0289,-0.1753 -0.52387,-3.482 -1.09996,-7.3484 -0.57609,-3.8665 -1.06298,-7.0456 -1.08198,-7.0645 -0.0288,-0.028 -0.6537,4.045 -2.02845,13.2239 l -0.22577,1.5074 h 2.24434 2.24434 z"
           style="fill:#ffffff;stroke-width:0.08492179"
           sodipodi:nodetypes="ccssscssscsssssscccccccccc" />
        <path
           sodipodi:nodetypes="ccscccccsccccccccccccccscc"
           inkscape:connector-curvature="0"
           id="path1017"
           d="m 199.40531,1075.673 c -0.009,-13.8297 -0.008,-15.0642 0.003,-15.2009 0.003,-0.035 1.83025,-0.063 4.06051,-0.063 3.68541,0 4.12855,0.016 4.86178,0.1667 2.26492,0.465 3.80828,1.8837 4.4465,4.0875 0.35181,1.2148 0.41398,2.1419 0.37045,5.5242 -0.0351,2.7298 -0.0599,3.1705 -0.21385,3.8163 -0.47669,1.9989 -1.41179,3.278 -2.94713,4.0315 -1.2741,0.6253 -2.27354,0.8007 -4.56232,0.8007 h -1.42467 v 5.5624 5.5624 h -2.29288 -2.29289 z m 7.9649,-1.2895 c 0.5299,-0.2466 0.84723,-0.6805 1.01304,-1.3852 0.17605,-0.7481 0.16548,-6.1701 -0.0134,-6.8611 -0.16403,-0.6338 -0.47959,-1.04 -1.01978,-1.3129 -0.39083,-0.1975 -0.52286,-0.2144 -1.88516,-0.242 L 204,1064.5523 v 5.0188 5.0188 h 1.46491 c 1.36955,0 1.49355,-0.014 1.90527,-0.2059 z"
           style="fill:#ffffff;stroke-width:0.08492179" />
        <path
           style="fill:#ffffff;stroke-width:0.08492179"
           d="m 215.22994,1075.1798 v -14.7813 l 4.35224,0.029 4.35225,0.029 0.76201,0.2357 c 1.26942,0.3927 2.13637,0.9467 2.87837,1.8391 0.44218,0.5318 0.94788,1.6064 1.15887,2.4627 0.35162,1.427 0.42729,6.87 0.12008,8.6384 -0.36418,2.0964 -1.419,3.6328 -3.04539,4.4356 -1.13864,0.5621 -1.83889,0.6917 -4.01822,0.7444 l -1.88951,0.046 v 5.5514 5.5515 h -2.33535 -2.33535 z M 223,1074.4951 c 0.50698,-0.1407 1.01174,-0.6899 1.2025,-1.3082 0.13997,-0.4537 0.15653,-0.8353 0.15653,-3.607 0,-2.7884 -0.0157,-3.1464 -0.15672,-3.565 -0.2172,-0.645 -0.42439,-0.9041 -0.93349,-1.1672 -0.41463,-0.2142 -0.51772,-0.2284 -1.90328,-0.262 l -1.4649,-0.036 v 5.02 5.0201 h 1.37997 c 0.759,-3e-4 1.53272,-0.043 1.71939,-0.095 z"
           id="path1019"
           inkscape:connector-curvature="0"
           sodipodi:nodetypes="ccccccccccccccccccsccccccccc" />
        <path
           style="opacity:1;fill:#ffffff;fill-opacity:0.99130435;stroke:none;stroke-width:1.39612055;stroke-opacity:0.99130435"
           d="m 15,1056.4 h 115 l 1,2 H 15 Z"
           id="rect1021"
           inkscape:connector-curvature="0"
           sodipodi:nodetypes="ccccc" />
        <path
           sodipodi:nodetypes="ccccc"
           inkscape:connector-curvature="0"
           id="path1024"
           d="m 229,1056.4 h -73 l -1,2 h 74 z"
           style="opacity:1;fill:#ffffff;fill-opacity:0.99130435;stroke:none;stroke-width:1.39612055;stroke-opacity:0.99130435" />
        <path
           sodipodi:nodetypes="ccccc"
           inkscape:connector-curvature="0"
           id="path1026"
           d="m 15,1091.8228 h 214 v 2 H 15 Z"
           style="opacity:1;fill:#ffffff;fill-opacity:0.99130435;stroke:none;stroke-width:1.39612055;stroke-opacity:0.99130435" />
      </g>
    </g>
  </g>
</svg>
