<?xml version="1.0" encoding="UTF-8"?>
<svg version="1.1" viewBox="0 0 250 91" xml:space="preserve" xmlns="http://www.w3.org/2000/svg"><rect x="13.519" y="10.5" width="222.96" height="70" fill="none"/><path d="m56.269 20.243c11.287 0 16.458 8.7652 16.458 18.349 0 0.75751-0.06305 1.6402-0.1261 2.523h-23.52c0.94579 4.3506 3.9723 6.6205 8.2608 6.6205 3.2157 0 5.5486-1.0088 8.1977-3.4679l5.4856 4.8559c-3.1526 3.9093-7.6933 6.3053-13.809 6.3053-10.153 0-17.656-7.1249-17.656-17.466v-0.12611c0-9.6479 6.8736-17.593 16.711-17.593zm39.659 0c6.3692 0 10.342 2.1438 13.494 5.6747l-5.8639 6.3061c-2.1447-2.2699-4.2885-3.721-7.6933-3.721-4.7929 0-8.1977 4.2254-8.1977 9.2074v0.1261c0 5.1703 3.3418 9.3318 8.576 9.3318 3.2157 0 5.4225-1.3872 7.7555-3.594l5.6126 5.6756c-3.2787 3.594-7.0619 6.1792-13.809 6.1792-10.152 0-17.593-7.8185-17.593-17.466v-0.12611c0-9.6479 7.378-17.593 17.72-17.593zm-68.79-9.7425v10.373h7.9455v8.1977h-7.9455v14.44c0 2.2068 0.94579 3.2787 3.0896 3.2787 1.7655 0 3.3427-0.44137 4.7298-1.198v7.6933c-2.0186 1.198-4.3515 1.9546-7.5672 1.9546-5.8648 0-9.8371-2.3329-9.8371-10.152v-16.016h-4.0354v-8.1977h4.0354v-10.373zm98.297 0v15.165c2.2068-2.8374 5.0451-5.4225 9.9001-5.4225 7.2519 0 11.476 4.792 11.476 12.548v21.881h-9.5849v-18.854c0-4.5398-2.1438-6.8727-5.8008-6.8727-3.6579 0-5.9909 2.3329-5.9909 6.8727v18.854h-9.5849v-44.172zm-69.167 17.435c-3.9732 0-6.5583 2.8382-7.315 7.1889h14.44c-0.56747-4.2876-3.0896-7.1889-7.1249-7.1889z" fill="#fff" fill-rule="evenodd"/><path d="m161.38 10.532v25.349c0 9.5218 5.1073 14.882 13.494 14.882 8.1347 0 13.306-4.919 13.306-14.566v-25.665h4.9812v25.286c0 12.864-7.378 19.548-18.413 19.548-10.909 0-18.35-6.6845-18.35-19.169v-25.665zm43.049 0-0.15676 22.07 22.452-22.07h6.4322l-20.54 20.683 23.594 23.4h-6.2431l-20.819-19.931-4.8962 4.2499 0.1769 15.739h-4.982v-44.14z" fill="#fff" fill-opacity=".69504" fill-rule="evenodd"/><path d="m29.729 65.953c1.1323 0 2.1307 0.27322 2.9941 0.82056 0.86435 0.54646 1.529 1.339 1.9949 2.3776 0.46589 1.0386 0.69883 2.2471 0.69883 3.6255v0.89324c0 1.3845-0.23294 2.593-0.69883 3.6255-0.46589 1.0316-1.1253 1.8198-1.98 2.3627-0.85384 0.54383-1.8504 0.81618-2.9897 0.81618-1.1131 0-2.1-0.27323-2.9608-0.82056-0.85997-0.54646-1.5282-1.3267-2.0045-2.3391-0.47552-1.0132-0.71897-2.1858-0.73211-3.5187v-1.0194c0-1.3591 0.23645-2.5589 0.70847-3.601 0.47202-1.0421 1.1402-1.839 2.0045-2.3925 0.86347-0.55346 1.8522-0.83019 2.9652-0.83019zm-7.4551 0.19441v1.5238h-6.892v4.8437h5.9304v1.5238h-5.9304v6.2413h-1.8636v-14.133zm20.647 0c1.5921 0 2.8172 0.36255 3.6746 1.0868 0.85734 0.72511 1.2856 1.7795 1.2856 3.164 0 0.88098-0.23732 1.6472-0.71372 2.3005-0.47552 0.65417-1.1367 1.142-1.9844 1.466l3.3199 5.9988v0.11647h-2.0002l-3.0668-5.7168h-3.3199v5.7168h-1.8732v-14.133zm-13.192 1.4073c-1.1779 0-2.1044 0.4475-2.7804 1.3442-0.67694 0.89587-1.0246 2.1403-1.0439 3.7324v1.0386c0 1.6245 0.34066 2.9004 1.0237 3.8287 0.68307 0.92915 1.6227 1.3933 2.8199 1.3933 1.2033 0 2.1359-0.43874 2.7953-1.3153 0.6603-0.87661 1.0001-2.1342 1.0194-3.7709v-1.0482c0-1.6761-0.33628-2.9626-1.0097-3.8585-0.67256-0.89675-1.614-1.3442-2.8242-1.3442zm13.241 0.11648h-2.854v5.3674h2.8636c0.92477 0 1.6613-0.23995 2.2077-0.71897 0.54733-0.4799 0.82056-1.1218 0.82056-1.9257 0-0.87486-0.26097-1.5457-0.78115-2.0133-0.52106-0.46677-1.2733-0.70321-2.2568-0.70934z" fill="#fff" fill-rule="evenodd"/><path d="m56.308 66.147 2.2331 9.6768 0.27148 1.8636 0.39758-1.6788 2.7962-9.8616h1.5719l2.7279 9.8616 0.38795 1.7085 0.30125-1.903 2.1937-9.6672h1.8732l-3.4259 14.133h-1.6989l-2.9118-10.299-0.22419-1.0771-0.22244 1.0771-3.0186 10.299h-1.6989l-3.4162-14.133zm18.726 0v6.0758h7.1241v-6.0758h1.8741v14.133h-1.8741v-6.5329h-7.1241v6.5329h-1.8644v-14.133zm18.181 0 5.4068 14.133h-1.9126l-1.3486-3.6982h-5.9217l-1.3294 3.6982h-1.9214l5.3963-14.133zm15.861 0v1.5238h-4.5424v12.609h-1.8539v-12.609h-4.5337v-1.5238zm-16.677 2.3005-2.3969 6.61h4.8043z" fill="#fff" fill-rule="evenodd"/><path d="m120.99 65.953c1.501 0 2.7051 0.41947 3.6106 1.2567 0.90638 0.83808 1.4336 1.9984 1.5824 3.4802h-1.8732c-0.16201-1.1297-0.51318-1.9468-1.0535-2.4538-0.54033-0.50617-1.2952-0.75926-2.2664-0.75926-1.191 0-2.1236 0.44049-2.7997 1.3215-0.67695 0.88098-1.015 2.1342-1.015 3.7595v1.3696c0 1.5352 0.32052 2.7559 0.96155 3.6632 0.64017 0.90638 1.536 1.3591 2.6885 1.3591 1.0351 0 1.8294-0.23382 2.3829-0.70322 0.55259-0.46939 0.92039-1.2864 1.1017-2.4512h1.8732c-0.17515 1.4949-0.72686 2.6482-1.6551 3.46-0.92828 0.81268-2.1631 1.219-3.7026 1.219-1.67 0-3.0081-0.599-4.0144-1.7961-1.0062-1.1971-1.5089-2.7988-1.5089-4.8051v-1.3583c0-1.3136 0.2347-2.4687 0.70322-3.4653 0.46939-0.99658 1.1341-1.762 1.9949-2.2953 0.86084-0.5342 1.8574-0.80129 2.9898-0.80129zm12.959 0c1.1323 0 2.1306 0.27322 2.995 0.82056 0.86347 0.54646 1.5282 1.339 1.994 2.3776 0.46677 1.0386 0.69883 2.2471 0.69883 3.6255v0.89324c0 1.3845-0.23206 2.593-0.69883 3.6255-0.46589 1.0316-1.1253 1.8198-1.98 2.3627-0.85383 0.54383-1.8504 0.81618-2.9889 0.81618-1.1139 0-2.1009-0.27323-2.9608-0.82056-0.86083-0.54646-1.529-1.3267-2.0045-2.3391-0.47552-1.0132-0.71985-2.1858-0.73299-3.5187v-1.0194c0-1.3591 0.23645-2.5589 0.70847-3.601 0.47202-1.0421 1.1411-1.839 2.0045-2.3925 0.86435-0.55346 1.8522-0.83019 2.9652-0.83019zm41.644 0c0.97119 0 1.8364 0.1874 2.5965 0.56309 0.76013 0.37482 1.3495 0.89325 1.7664 1.5527 0.41772 0.6603 0.62615 1.3819 0.62615 2.1648h-1.8732c0-0.85734-0.27148-1.5308-0.8153-2.0212-0.54383-0.49041-1.3101-0.73561-2.3006-0.73561-0.91864 0-1.635 0.20317-2.1499 0.60776-0.51405 0.40547-0.77152 0.96768-0.77152 1.6867 0 0.57798 0.24433 1.0658 0.73299 1.4642 0.48866 0.39846 1.3197 0.76276 2.495 1.0938 1.1735 0.33103 2.093 0.69533 2.7559 1.0929 0.6638 0.39758 1.1551 0.8626 1.4756 1.3933 0.32051 0.53069 0.48077 1.1551 0.48077 1.8732 0 1.1455-0.44662 2.0623-1.3399 2.7515-0.89237 0.6892-2.0869 1.0342-3.5817 1.0342-0.97031 0-1.8767-0.18653-2.7174-0.55872-0.84158-0.37131-1.4905-0.88099-1.9468-1.5282-0.45625-0.64717-0.68394-1.3819-0.68394-2.2033h1.8732c0 0.85384 0.31526 1.5282 0.94666 2.0238 0.63053 0.49479 1.4739 0.74175 2.5282 0.74175 0.98344 0 1.7374-0.20054 2.262-0.60163 0.52368-0.40108 0.78641-0.94754 0.78641-1.6402s-0.24346-1.2278-0.72861-1.6061c-0.48516-0.37919-1.3653-0.75313-2.6395-1.1209-1.5991-0.45976-2.762-1.0246-3.4898-1.6945-0.72861-0.66994-1.092-1.4966-1.092-2.4801 0-1.1131 0.444-2.0334 1.3346-2.7612 0.88974-0.72774 2.0457-1.092 3.4696-1.092zm-30.714 0.19441 4.6204 11.531 4.6204-11.531h2.417v14.133h-1.8636v-5.504l0.17426-5.9401-4.6396 11.444h-1.4266l-4.63-11.415 0.18478 5.9112v5.504h-1.8644v-14.133zm23.87 0v1.5238h-7.0181v4.552h6.1249v1.5238h-6.1249v5.0092h7.1153v1.5238h-8.9789v-14.133zm-34.801 1.4073c-1.1779 0-2.1044 0.4475-2.7804 1.3442-0.67693 0.89587-1.0246 2.1403-1.0439 3.7324v1.0386c0 1.6245 0.34154 2.9004 1.0237 3.8287 0.68307 0.92915 1.6227 1.3933 2.8207 1.3933 1.2033 0 2.135-0.43874 2.7953-1.3153 0.65943-0.87661 0.99921-2.1342 1.0194-3.7709v-1.0482c0-1.6761-0.33715-2.9626-1.0097-3.8585-0.67344-0.89675-1.6148-1.3442-2.8251-1.3442z" fill="#fff" fill-rule="evenodd"/><path d="m189.87 66.147 7.1346 10.939v-10.939h1.8539v14.133h-1.8741l-7.1144-10.891v10.891h-1.8741v-14.133zm21.22 0v1.5238h-7.0181v4.552h6.124v1.5238h-6.124v5.0092h7.1144v1.5238h-8.9789v-14.133zm3.6597 0 3.4075 5.4155 3.3873-5.4155h2.1937l-4.4654 7.0076 4.5722 7.1249h-2.213l-3.4749-5.5136-3.4942 5.5136h-2.2042l4.5818-7.1249-4.4741-7.0076zm21.064 0v1.5238h-4.5424v12.609h-1.8539v-12.609h-4.5328v-1.5238z" fill="#fff" fill-rule="evenodd"/></svg>
