<?xml version="1.0" encoding="UTF-8" standalone="no"?>
<!-- Created with Inkscape (http://www.inkscape.org/) -->

<svg
   xmlns:dc="http://purl.org/dc/elements/1.1/"
   xmlns:cc="http://creativecommons.org/ns#"
   xmlns:rdf="http://www.w3.org/1999/02/22-rdf-syntax-ns#"
   xmlns:svg="http://www.w3.org/2000/svg"
   xmlns="http://www.w3.org/2000/svg"
   xmlns:sodipodi="http://sodipodi.sourceforge.net/DTD/sodipodi-0.dtd"
   xmlns:inkscape="http://www.inkscape.org/namespaces/inkscape"
   width="250"
   height="91"
   viewBox="0 0 250 91"
   id="svg2"
   version="1.1"
   inkscape:version="0.92.2 (5c3e80d, 2017-08-06)"
   sodipodi:docname="temple-group.svg"
   inkscape:export-filename="C:\Users\Amy\Desktop\Assets\arup.png"
   inkscape:export-xdpi="90"
   inkscape:export-ydpi="90">
  <defs
     id="defs4" />
  <sodipodi:namedview
     id="base"
     pagecolor="#ffffff"
     bordercolor="#666666"
     borderopacity="1.0"
     inkscape:pageopacity="0.0"
     inkscape:pageshadow="2"
     inkscape:zoom="2.8000014"
     inkscape:cx="211.29257"
     inkscape:cy="84.848646"
     inkscape:document-units="px"
     inkscape:current-layer="layer1"
     showgrid="false"
     inkscape:window-width="1920"
     inkscape:window-height="1001"
     inkscape:window-x="-9"
     inkscape:window-y="-9"
     inkscape:window-maximized="1"
     units="px" />
  <metadata
     id="metadata7">
    <rdf:RDF>
      <cc:Work
         rdf:about="">
        <dc:format>image/svg+xml</dc:format>
        <dc:type
           rdf:resource="http://purl.org/dc/dcmitype/StillImage" />
        <dc:title></dc:title>
      </cc:Work>
    </rdf:RDF>
  </metadata>
  <g
     inkscape:label="Layer 1"
     inkscape:groupmode="layer"
     id="layer1"
     transform="translate(0,-961.4)">
    <rect
       style="opacity:0.001;fill:none;fill-opacity:1;stroke:none;stroke-width:2.5;stroke-linecap:round;stroke-linejoin:round;stroke-miterlimit:4;stroke-dasharray:none;stroke-dashoffset:0;stroke-opacity:1"
       id="rect4175"
       width="250"
       height="91"
       x="0"
       y="961.4" />
    <path
       style="fill:#ffffff;stroke-width:0.54054385"
       d="m 93.941148,1042.5145 c 0,-2.7995 0.0778,-2.9731 1.33234,-2.9731 1.4792,0 2.63426,1.5975 2.12142,2.9339 -0.17939,0.4675 -0.78663,0.85 -1.34942,0.85 -0.66289,0 -1.02326,0.3807 -1.02326,1.081 0,0.5947 -0.24324,1.0812 -0.54055,1.0812 -0.29729,0 -0.54053,-1.3379 -0.54053,-2.973 z m 2.16217,-1.1131 c 0,-0.4283 -0.24324,-0.7788 -0.54054,-0.7788 -0.2973,0 -0.54055,0.5008 -0.54055,1.1129 0,0.6122 0.24325,0.9627 0.54055,0.779 0.2973,-0.1838 0.54054,-0.6846 0.54054,-1.1131 z m 2.70272,1.1131 c 0,-1.6351 0.24324,-2.9731 0.54054,-2.9731 0.2973,0 0.54055,1.0947 0.54055,2.4325 0,2.0721 0.160162,2.4324 1.081082,2.4324 0.59461,0 1.08109,0.2433 1.08109,0.5406 0,0.2973 -0.72973,0.5406 -1.62162,0.5406 -1.605262,0 -1.621642,-0.03 -1.621642,-2.973 z m 5.003582,0 c 0.60234,-1.6351 1.26967,-2.9731 1.48294,-2.9731 0.21328,0 0.88061,1.338 1.48295,2.9731 0.87149,2.3657 0.94229,2.973 0.34666,2.973 -0.41169,0 -0.74851,-0.2433 -0.74851,-0.5406 0,-0.2973 -0.48649,-0.5406 -1.0811,-0.5406 -0.59459,0 -1.08108,0.2433 -1.08108,0.5406 0,0.2973 -0.33683,0.5406 -0.74852,0.5406 -0.59563,0 -0.52483,-0.6073 0.34666,-2.973 z m 2.02349,0.5724 c 0,-0.131 -0.24324,-0.3887 -0.54055,-0.5724 -0.2973,-0.1838 -0.54054,-0.077 -0.54054,0.2383 0,0.3149 0.24324,0.5725 0.54054,0.5725 0.29731,0 0.54055,-0.1072 0.54055,-0.2384 z m 3.24326,-0.5724 c 0,-1.6351 0.2044,-2.9731 0.45422,-2.9731 0.24981,0 1.10117,0.9093 1.8919,2.0207 l 1.43769,2.0207 v -2.0207 c 0,-1.1114 0.24325,-2.0207 0.54054,-2.0207 0.2973,0 0.54055,1.338 0.54055,2.9731 0,1.6351 -0.22561,2.973 -0.50136,2.973 -0.27576,0 -1.12442,-0.7906 -1.88591,-1.7568 l -1.38455,-1.7568 -0.006,1.7568 c -0.004,0.9662 -0.24923,1.7568 -0.54653,1.7568 -0.29731,0 -0.54055,-1.3379 -0.54055,-2.973 z m 6.59342,0.1776 c 0.0899,-1.5375 0.40663,-2.8735 0.70392,-2.969 0.2973,-0.096 1.14866,0.723 1.89191,1.8189 l 1.35136,1.9925 0.16777,-1.9965 c 0.26114,-3.1078 1.18358,-2.3468 1.18358,0.9765 0,1.6351 -0.22162,2.973 -0.49249,2.973 -0.27086,0 -1.12222,-0.7484 -1.8919,-1.6632 l -1.39941,-1.663 v 1.663 c 0,1.1429 -0.26249,1.6632 -0.83906,1.6632 -0.67129,0 -0.8064,-0.559 -0.67568,-2.7954 z m 6.92018,-0.1776 c 0,-1.6351 0.24325,-2.9731 0.54054,-2.9731 0.2973,0 0.54054,1.338 0.54054,2.9731 0,1.6351 -0.24324,2.973 -0.54054,2.973 -0.29729,0 -0.54054,-1.3379 -0.54054,-2.973 z m 2.70271,0 c 0,-3.5685 0.75764,-3.8412 2.70273,-0.9728 l 1.35136,1.9928 0.16777,-1.9965 c 0.26114,-3.1078 1.18359,-2.3468 1.18359,0.9765 0,2.2822 -0.18838,2.973 -0.81082,2.973 -0.44594,0 -0.81956,-0.1825 -0.83026,-0.4054 -0.0107,-0.223 -0.57044,-1.0785 -1.24389,-1.9012 l -1.22446,-1.4957 0.22195,1.9011 c 0.17266,1.4789 0.0287,1.9012 -0.648,1.9012 -0.69413,0 -0.86997,-0.6009 -0.86997,-2.973 z m 7.29115,1.688 c -1.5483,-2.363 1.10842,-5.4945 3.7888,-4.466 1.44473,0.5544 0.86111,1.318 -0.94474,1.2361 -1.59181,-0.072 -1.77218,0.079 -1.92089,1.6064 -0.12742,1.3091 0.0771,1.7492 0.91465,1.9682 1.28982,0.3373 1.68191,0.024 1.68191,-1.3439 0,-0.5626 0.24325,-0.8726 0.54055,-0.6888 0.2973,0.1837 0.54055,0.9278 0.54055,1.6535 0,1.1459 -0.24719,1.3195 -1.87945,1.3195 -1.38236,0 -2.10213,-0.3399 -2.72138,-1.285 z m 9.12065,0.4742 c -0.17114,-0.446 -0.12855,-1.2365 0.0946,-1.7568 0.22317,-0.5203 0.43162,-1.4325 0.46324,-2.0271 0.0413,-0.7774 0.43699,-1.081 1.40882,-1.081 1.15665,0 1.35137,0.2463 1.35137,1.7098 0,0.9405 0.18243,1.8931 0.4054,2.1171 0.22298,0.224 0.40541,0.1235 0.40541,-0.2233 0,-0.3469 0.39465,-0.6307 0.87701,-0.6307 0.66638,0 0.73438,0.1719 0.28313,0.7157 -0.43367,0.5225 -0.42236,0.887 0.042,1.3512 0.48735,0.4874 -0.0244,0.6359 -2.192,0.6359 -2.01495,0 -2.91723,-0.2331 -3.13893,-0.8108 z m 2.02281,-0.971 c -0.69379,-0.6938 -1.39733,-0.1576 -0.88371,0.6735 0.19897,0.3219 0.60938,0.4323 0.91205,0.2452 0.36919,-0.2282 0.35987,-0.5304 -0.0283,-0.9187 z m 0.48443,-2.5426 c 0,-0.2973 -0.24324,-0.5405 -0.54055,-0.5405 -0.29729,0 -0.54053,0.2432 -0.54053,0.5405 0,0.2973 0.24324,0.5405 0.54053,0.5405 0.29731,0 0.54055,-0.2432 0.54055,-0.5405 z m 7.02707,3.7474 c 0,-0.3226 0.45668,-0.432 1.0356,-0.2483 1.41966,0.4506 1.91053,-0.5599 0.69712,-1.435 -1.37828,-0.9941 -1.79107,-1.8236 -1.40637,-2.8261 0.36325,-0.9466 2.6574,-1.1763 3.18718,-0.3191 0.18948,0.3066 -0.26465,0.5406 -1.04918,0.5406 -1.74435,0 -1.73508,0.2897 0.0587,1.8326 1.8393,1.5822 1.41635,3.0323 -0.88437,3.0323 -0.90122,0 -1.63859,-0.2596 -1.63859,-0.577 z m 5.19301,-0.278 c -0.53048,-1.3825 -0.37573,-5.0911 0.21243,-5.0911 0.2973,0 0.54055,0.9244 0.54055,2.0541 0,2.2357 0.78505,3.431 1.95777,2.9811 0.47647,-0.1829 0.74494,-1.1417 0.74494,-2.6605 0,-1.306 0.24324,-2.3747 0.54055,-2.3747 0.58815,0 0.74291,3.7086 0.21244,5.0911 -0.20708,0.5396 -0.9833,0.855 -2.10434,0.855 -1.12106,0 -1.89728,-0.3154 -2.10434,-0.855 z m 6.15841,0.2566 c 0,-0.3291 0.35708,-0.4613 0.79351,-0.2939 1.35672,0.5206 1.58863,-0.8291 0.30838,-1.7948 -1.63424,-1.2327 -1.27872,-2.9359 0.6595,-3.1597 1.02212,-0.118 1.48188,0.076 1.48188,0.6251 0,0.53 -0.36139,0.7016 -1.08109,0.5134 -1.4673,-0.3837 -1.35864,0.197 0.30455,1.6277 1.7764,1.528 1.32133,3.0806 -0.90293,3.0806 -0.86009,0 -1.5638,-0.2693 -1.5638,-0.5984 z m 5.94598,-1.8341 c 0,-1.8018 -0.21021,-2.4324 -0.81081,-2.4324 -0.44595,0 -0.81082,-0.2433 -0.81082,-0.5406 0,-0.2973 1.10896,-0.5406 2.46436,-0.5406 1.50524,0 2.33432,0.2105 2.13026,0.5406 -0.18374,0.2973 -0.68458,0.5406 -1.11299,0.5406 -0.56279,0 -0.7789,0.6748 -0.7789,2.4324 0,1.3379 -0.24325,2.4325 -0.54055,2.4325 -0.2973,0 -0.54055,-1.0946 -0.54055,-2.4325 z m 3.9225,-0.5405 c 0.60234,-1.6351 1.27147,-2.9731 1.48694,-2.9731 0.70689,0 2.61086,5.6583 1.98261,5.892 -0.31966,0.1189 -0.67443,-0.063 -0.7884,-0.4054 -0.25466,-0.764 -2.09141,-0.8224 -2.54956,-0.081 -0.18375,0.2973 -0.53493,0.5406 -0.78042,0.5406 -0.24549,0 0.0465,-1.3378 0.64883,-2.973 z m 2.02348,0.2702 c 0,-0.2973 -0.10726,-0.5405 -0.23837,-0.5405 -0.1311,0 -0.3887,0.2432 -0.57244,0.5405 -0.18374,0.2973 -0.0765,0.5406 0.23837,0.5406 0.31484,0 0.57244,-0.2433 0.57244,-0.5406 z m 3.24327,-0.2702 c 0,-1.6351 0.24325,-2.9731 0.54054,-2.9731 0.2973,0 0.54055,1.338 0.54055,2.9731 0,1.6351 -0.24325,2.973 -0.54055,2.973 -0.29729,0 -0.54054,-1.3379 -0.54054,-2.973 z m 2.70272,0 c 0,-1.6351 0.2222,-2.9731 0.49378,-2.9731 0.27158,0 1.24456,1.021 2.16217,2.2688 l 1.6684,2.2686 v -2.2686 c 0,-1.2478 0.24324,-2.2688 0.54054,-2.2688 0.29731,0 0.54055,1.338 0.54055,2.9731 0,3.6309 -0.93093,3.9321 -2.95351,0.9556 l -1.37084,-2.0174 v 2.0174 c 0,1.1095 -0.24325,2.0174 -0.54055,2.0174 -0.2973,0 -0.54054,-1.3379 -0.54054,-2.973 z m 6.78474,1.8038 c 0.76801,-2.4198 1.89254,-4.7767 2.27662,-4.7715 0.53889,0.01 2.34305,5.5348 1.92955,5.9118 -0.18043,0.1646 -0.43663,-0.01 -0.56935,-0.3765 -0.28545,-0.7993 -2.85394,-0.9209 -2.85394,-0.1352 0,0.2973 -0.25964,0.5406 -0.57698,0.5406 -0.34546,0 -0.42808,-0.4692 -0.2059,-1.1692 z m 2.59998,-1.8038 c -0.17113,-0.446 -0.40674,-0.8109 -0.52358,-0.8109 -0.11684,0 -0.21244,0.3649 -0.21244,0.8109 0,0.4459 0.23561,0.8108 0.52358,0.8108 0.28797,0 0.38356,-0.3649 0.21244,-0.8108 z m 3.04778,0.034 c 0,-2.8061 0.086,-3.0072 1.28518,-3.0072 1.7242,0 2.32149,0.9242 2.27073,3.5135 -0.0398,2.034 -0.14653,2.1722 -1.79914,2.3315 l -1.75677,0.1694 z m 2.70273,1.3171 c 0,-0.2973 -0.22889,-0.5406 -0.50864,-0.5406 -0.27976,0 -0.65898,0.2433 -0.84272,0.5406 -0.18375,0.2973 0.0452,0.5406 0.50863,0.5406 0.4635,0 0.84273,-0.2433 0.84273,-0.5406 z m 0,-2.7027 c 0,-0.2973 -0.24325,-0.5406 -0.54055,-0.5406 -0.2973,0 -0.54055,0.2433 -0.54055,0.5406 0,0.2973 0.24325,0.5405 0.54055,0.5405 0.2973,0 0.54055,-0.2432 0.54055,-0.5405 z m 2.70272,1.3513 c 0,-1.6351 0.24324,-2.9729 0.54054,-2.9729 0.2973,0 0.54054,1.3378 0.54054,2.9729 0,1.6352 -0.24324,2.973 -0.54054,2.973 -0.2973,0 -0.54054,-1.3378 -0.54054,-2.973 z m 2.70271,-0.045 c 0,-3.6271 1.25434,-3.8902 1.51758,-0.3184 0.11258,1.5276 0.41782,2.2553 0.94595,2.2553 0.42885,0 0.77974,0.2433 0.77974,0.5406 0,0.2973 -0.72973,0.5406 -1.62164,0.5406 -1.60817,0 -1.62163,-0.025 -1.62163,-3.0181 z m 4.32435,0.045 c 0,-1.6351 0.24325,-2.9729 0.54055,-2.9729 0.2973,0 0.54055,1.3378 0.54055,2.9729 0,1.6352 -0.24325,2.973 -0.54055,2.973 -0.2973,0 -0.54055,-1.3378 -0.54055,-2.973 z m 3.78381,0.5406 c 0,-1.8018 -0.21021,-2.4325 -0.81082,-2.4325 -0.44594,0 -0.81081,-0.2432 -0.81081,-0.5405 0,-0.2973 1.0946,-0.5405 2.43244,-0.5405 1.33786,0 2.43246,0.2432 2.43246,0.5405 0,0.2973 -0.36487,0.5405 -0.81082,0.5405 -0.6006,0 -0.81081,0.6307 -0.81081,2.4325 0,1.8018 -0.21022,2.4324 -0.81083,2.4324 -0.6006,0 -0.81081,-0.6306 -0.81081,-2.4324 z m 5.40544,1.062 c 0,-0.7537 -0.39782,-1.9775 -0.88404,-2.7195 -1.1623,-1.774 -0.40872,-2.4888 0.85604,-0.8121 l 0.97914,1.2981 0.37167,-1.1711 c 0.20442,-0.644 0.7264,-1.1709 1.15995,-1.1709 0.68243,0 0.67754,0.2141 -0.0364,1.5947 -0.45358,0.8772 -0.8247,2.215 -0.8247,2.9731 0,0.8646 -0.30209,1.3781 -0.81081,1.3781 -0.50751,0 -0.81082,-0.5126 -0.81082,-1.3704 z m 3.78381,0.8299 c 0,-0.2973 0.24324,-0.5405 0.54055,-0.5405 0.29729,0 0.54053,0.2432 0.54053,0.5405 0,0.2972 -0.24324,0.5405 -0.54053,0.5405 -0.29731,0 -0.54055,-0.2433 -0.54055,-0.5405 z m -0.53227,-7.973 c 0.0151,-0.7399 1.00882,-2.001 1.32642,-1.6834 0.42581,0.4258 -0.25249,2.0888 -0.85198,2.0888 -0.2655,0 -0.47899,-0.1824 -0.47444,-0.4054 z m -93.46074,-1.531 c -1.07348,-1.3646 -1.14271,-1.3828 -1.14271,-0.2987 0,2.1463 -0.93177,1.1713 -1.27521,-1.3344 -0.40538,-2.9576 -0.17481,-3.4576 1.59435,-3.4576 1.52796,0 2.27781,1.3521 1.46467,2.6411 -0.39511,0.6262 -0.32247,1.2204 0.25747,2.1056 1.16913,1.7844 0.45081,2.0595 -0.89857,0.344 z m -0.0616,-3.501 c 0,-0.2798 -0.24325,-0.5086 -0.54055,-0.5086 -0.2973,0 -0.54054,0.3792 -0.54054,0.8427 0,0.4635 0.24324,0.6924 0.54054,0.5086 0.2973,-0.1837 0.54055,-0.563 0.54055,-0.8427 z m 50.35175,3.4364 c -1.08483,-1.4547 -1.12867,-1.466 -1.14514,-0.2963 -0.009,0.6689 -0.26037,1.2162 -0.55767,1.2162 -0.2973,0 -0.54054,-1.354 -0.54054,-3.0089 0,-2.9635 0.0224,-3.0063 1.4865,-2.8378 1.24083,0.1427 1.49398,0.4389 1.5318,1.7926 0.0249,0.8919 0.22956,2.1872 0.45476,2.8786 0.60543,1.8586 0.0516,1.9737 -1.22971,0.2556 z m -0.0811,-3.1342 c 0,-0.446 -0.24325,-0.8108 -0.54054,-0.8108 -0.2973,0 -0.54054,0.3648 -0.54054,0.8108 0,0.446 0.24324,0.8109 0.54054,0.8109 0.29729,0 0.54054,-0.3649 0.54054,-0.8109 z m -80.541032,1.0811 c 0,-1.6351 0.24325,-2.973 0.54054,-2.973 0.2973,0 0.54055,1.0946 0.54055,2.4324 0,2.0722 0.16016,2.4325 1.08109,2.4325 0.59459,0 1.08108,0.2433 1.08108,0.5405 0,0.2973 -0.72973,0.5406 -1.62163,0.5406 -1.60525,0 -1.62163,-0.03 -1.62163,-2.973 z m 4.86489,0 c 0,-2.9429 0.0163,-2.973 1.621642,-2.973 0.8919,0 1.62163,0.2433 1.62163,0.5406 0,0.2973 -0.48649,0.5405 -1.08109,0.5405 -1.457832,0 -1.372312,0.8588 0.13514,1.357 l 1.21622,0.4019 -1.21622,0.2392 c -1.505472,0.2962 -1.618192,1.7857 -0.13514,1.7857 0.5946,0 1.08109,0.2433 1.08109,0.5405 0,0.2973 -0.72973,0.5406 -1.62163,0.5406 -1.605262,0 -1.621642,-0.03 -1.621642,-2.973 z m 5.186682,0.946 c 0.48226,-1.1149 1.00039,-2.4527 1.15138,-2.973 0.4533,-1.5618 1.02422,-1.0932 2.24387,1.8416 1.17777,2.834 1.08312,4.1985 -0.17215,2.4819 -0.84609,-1.1571 -2.4638,-1.2453 -2.4638,-0.1343 0,0.4459 -0.36812,0.8108 -0.81806,0.8108 -0.71995,0 -0.71291,-0.2432 0.0587,-2.027 z m 2.27654,-1.5009 c -0.16642,-0.1664 -0.46868,0.1336 -0.67167,0.6667 -0.29333,0.7704 -0.23125,0.8325 0.3026,0.3026 0.36942,-0.3666 0.5355,-0.8028 0.36907,-0.9693 z m 3.88821,0.5549 c 0,-2.907 0.0342,-2.973 1.53785,-2.973 1.74929,0 3.32704,1.4544 3.32704,3.0669 0,1.4789 -1.66373,2.8791 -3.42096,2.8791 -1.38986,0 -1.44393,-0.1113 -1.44393,-2.973 z m 3.17057,0.9599 c 0.63286,-1.1309 -0.15025,-2.8518 -1.29769,-2.8518 -0.54455,0 -0.7918,0.5908 -0.7918,1.8919 0,2.0735 1.16643,2.6093 2.08949,0.9599 z m 3.31595,-0.9599 c 0,-2.9429 0.0163,-2.973 1.62163,-2.973 0.8919,0 1.62163,0.2433 1.62163,0.5406 0,0.2973 -0.48649,0.5405 -1.08108,0.5405 -0.5946,0 -1.08109,0.2432 -1.08109,0.5405 0,0.2973 0.48649,0.5406 1.08109,0.5406 0.59459,0 1.08108,0.2433 1.08108,0.5406 0,0.2973 -0.48649,0.5404 -1.08108,0.5404 -0.60061,0 -1.08109,0.3605 -1.08109,0.8109 0,0.4505 0.48048,0.8108 1.08109,0.8108 0.59459,0 1.08108,0.2433 1.08108,0.5405 0,0.2973 -0.72973,0.5406 -1.62163,0.5406 -1.60525,0 -1.62163,-0.03 -1.62163,-2.973 z m 10.81087,2.4324 c 0,-0.2972 0.66644,-0.5405 1.48098,-0.5405 h 1.48097 l -1.48097,-1.3732 c -1.72998,-1.6041 -1.88053,-2.6993 -0.47455,-3.4517 0.72409,-0.3876 1.29272,-0.3219 2.02703,0.2341 0.95976,0.7265 0.92594,0.7736 -0.567,0.7898 l -1.58763,0.017 1.46931,1.5336 c 1.80653,1.8856 1.46616,3.3313 -0.78433,3.3313 -0.86009,0 -1.56381,-0.2432 -1.56381,-0.5406 z m 8.64871,-2.4324 c 0,-1.6351 0.24324,-2.973 0.54054,-2.973 0.29731,0 0.54055,1.3379 0.54055,2.973 0,1.6351 -0.24324,2.973 -0.54055,2.973 -0.2973,0 -0.54054,-1.3379 -0.54054,-2.973 z m 3.24326,0 c 0,-1.6351 0.21966,-2.973 0.48812,-2.973 0.26846,0 1.23328,0.9122 2.14404,2.027 l 1.65594,2.0271 0.0181,-2.0271 c 0.01,-1.1148 0.26138,-2.027 0.55868,-2.027 0.29731,0 0.54055,1.3379 0.54055,2.973 0,3.6057 -0.8089,3.8726 -2.88666,0.9524 l -1.43769,-2.0207 v 2.0207 c 0,1.1113 -0.24325,2.0206 -0.54055,2.0206 -0.29729,0 -0.54054,-1.3379 -0.54054,-2.973 z m 10.81088,0 c 0,-2.9429 0.0163,-2.973 1.62163,-2.973 0.8919,0 1.62164,0.2433 1.62164,0.5406 0,0.2973 -0.48649,0.5405 -1.0811,0.5405 -0.59459,0 -1.08108,0.2432 -1.08108,0.5405 0,0.2973 0.36487,0.5406 0.81081,0.5406 0.44595,0 0.81082,0.2433 0.81082,0.5406 0,0.2973 -0.36487,0.5404 -0.81082,0.5404 -0.44594,0 -0.81081,0.3649 -0.81081,0.8109 0,0.4505 0.48048,0.8108 1.08108,0.8108 0.59461,0 1.0811,0.2433 1.0811,0.5405 0,0.2973 -0.72974,0.5406 -1.62164,0.5406 -1.60525,0 -1.62163,-0.03 -1.62163,-2.973 z m 4.8649,0 c 0,-3.5685 0.75762,-3.8411 2.70271,-0.9728 l 1.35136,1.9928 0.16777,-1.9965 c 0.26114,-3.1077 1.18359,-2.3467 1.18359,0.9765 0,3.5685 -0.75762,3.8412 -2.70272,0.9728 l -1.35135,-1.9928 -0.16777,1.9965 c -0.26115,3.1078 -1.18359,2.3468 -1.18359,-0.9765 z m 8.08894,0.4958 c -1.17597,-2.7435 -1.29706,-3.4688 -0.57914,-3.4688 0.26549,0 0.84095,0.8981 1.27878,1.9959 l 0.79605,1.9958 0.7217,-1.9958 c 0.39695,-1.0978 1.01539,-1.9959 1.37433,-1.9959 0.44744,0 0.28586,0.9343 -0.51401,2.9719 -0.64162,1.6346 -1.35767,2.9724 -1.59121,2.973 -0.23354,6e-4 -0.90247,-1.1137 -1.4865,-2.4761 z m 5.92658,2.2069 c -0.28716,-2.0101 0.0188,-5.3988 0.50194,-5.5598 0.41414,-0.1381 0.61776,0.7887 0.61776,2.812 0,1.6599 -0.24325,3.0181 -0.54054,3.0181 -0.2973,0 -0.55792,-0.1217 -0.57916,-0.2703 z m 8.86707,-1.1434 c -0.83097,-1.2682 -0.84403,-1.5601 -0.12687,-2.8378 0.62053,-1.1056 1.21341,-1.4242 2.64983,-1.4242 1.43642,0 2.02931,0.3186 2.64984,1.4242 0.71715,1.2777 0.7041,1.5696 -0.12687,2.8378 -0.65287,0.9964 -1.39753,1.4137 -2.52297,1.4137 -1.12543,0 -1.8701,-0.4173 -2.52296,-1.4137 z m 3.5122,0.4008 c 0.40836,-0.2588 0.64188,-1.131 0.54054,-2.0188 -0.14374,-1.2592 -0.44104,-1.5629 -1.52978,-1.5629 -1.08873,0 -1.38604,0.3037 -1.52978,1.5629 -0.15339,1.3438 0.5457,2.4746 1.52978,2.4746 0.14866,0 0.59381,-0.2051 0.98924,-0.4558 z m 3.87566,-1.9601 c 0,-1.6351 0.22561,-2.973 0.50136,-2.973 0.27576,0 1.12442,0.7905 1.88591,1.7568 l 1.38454,1.7568 0.006,-1.7568 c 0.004,-0.9663 0.24924,-1.7568 0.54654,-1.7568 0.2973,0 0.54055,1.3379 0.54055,2.973 0,1.6351 -0.2044,2.973 -0.45422,2.973 -0.24982,0 -1.10118,-0.9093 -1.89191,-2.0206 l -1.43769,-2.0207 v 2.0207 c 0,1.1113 -0.24324,2.0206 -0.54054,2.0206 -0.2973,0 -0.54054,-1.3379 -0.54054,-2.973 z m 7.56761,0 c 0,-3.2333 0.49449,-3.7277 1.62163,-1.6216 0.39778,0.7432 0.88632,1.3514 1.08566,1.3514 0.19935,0 0.63951,-0.6082 0.97817,-1.3514 1.01224,-2.2217 1.71998,-1.5544 1.71998,1.6216 0,1.6351 -0.24324,2.973 -0.54054,2.973 -0.2973,0 -0.54055,-0.7762 -0.54055,-1.725 0,-1.6392 -0.0403,-1.6728 -0.81081,-0.6756 -0.80262,1.0386 -0.81901,1.0386 -1.62163,0 -0.77055,-0.9972 -0.81082,-0.9636 -0.81082,0.6756 0,0.9488 -0.24324,1.725 -0.54054,1.725 -0.29731,0 -0.54055,-1.3379 -0.54055,-2.973 z m 7.56762,0 c 0,-2.9429 0.0163,-2.973 1.62163,-2.973 1.89146,0 2.18301,0.8954 0.40541,1.2451 l -1.21623,0.2393 1.21623,0.4019 c 1.46396,0.4838 1.60889,1.3569 0.22522,1.3569 -0.54505,0 -0.991,0.3649 -0.991,0.8109 0,0.4459 0.44595,0.8108 0.991,0.8108 0.54505,0 0.991,0.2433 0.991,0.5405 0,0.2973 -0.72973,0.5406 -1.62163,0.5406 -1.60526,0 -1.62163,-0.03 -1.62163,-2.973 z m 5.40543,0 c 0,-1.6351 0.18243,-2.9752 0.40541,-2.9778 0.22297,0 1.06778,0.7878 1.87737,1.7567 l 1.47195,1.7617 0.0145,-1.7568 c 0.008,-0.9663 0.25779,-1.7568 0.55509,-1.7568 0.2973,0 0.54055,1.3379 0.54055,2.973 0,1.6351 -0.18244,2.9752 -0.40542,2.9778 -0.22297,0 -1.06778,-0.7878 -1.87735,-1.7567 l -1.47196,-1.7617 -0.0145,1.7568 c -0.008,0.9663 -0.25779,1.7568 -0.55508,1.7568 -0.2973,0 -0.54055,-1.3379 -0.54055,-2.973 z m 8.10816,0.5406 c 0,-1.8019 -0.21021,-2.4325 -0.81081,-2.4325 -0.44595,0 -0.81082,-0.2432 -0.81082,-0.5405 0,-0.2973 1.10896,-0.5406 2.46435,-0.5406 1.50525,0 2.33432,0.2104 2.13027,0.5406 -0.18374,0.2973 -0.68458,0.5405 -1.11299,0.5405 -0.56279,0 -0.77891,0.6749 -0.77891,2.4325 0,1.3378 -0.24325,2.4324 -0.54054,2.4324 -0.2973,0 -0.54055,-1.0946 -0.54055,-2.4324 z M 51.058058,1016.4781 c -0.88293,-0.883 -0.30697,-3.8258 0.98659,-5.041 2.4403,-2.2925 6.19513,-1.2521 6.99594,1.9387 0.64506,2.57 -0.44213,3.4626 -4.21775,3.4626 -1.87243,0 -3.56659,-0.1622 -3.76478,-0.3603 z m 42.44347,-1.3965 0.16939,-1.7567 62.838222,-0.1374 c 34.56102,-0.076 62.83822,-0.051 62.83822,0.054 0,0.1056 -0.26703,0.9579 -0.59342,1.8941 l -0.59342,1.7024 H 155.74634 93.332158 Z m -50.00212,-0.9989 c -3.28873,-1.6971 -3.58932,-2.466 -1.40773,-3.6008 2.66339,-1.3855 5.9033,0.6526 5.9033,3.7136 0,1.9461 -0.5318,1.9328 -4.49557,-0.1128 z m 18.00916,0.101 c 0,-1.0935 0.50732,-2.0005 1.66311,-2.973 2.0567,-1.7305 3.26043,-1.7621 5.15241,-0.1346 l 1.47038,1.2648 -3.41848,1.7082 c -4.2536,2.1255 -4.86742,2.1425 -4.86742,0.1346 z m -10.02464,-7.3208 c -3.02578,-3.0258 -0.85753,-8.40301 3.38836,-8.40301 2.47904,0 5.01465,2.45991 5.01465,4.86491 0,4.0943 -5.52184,6.4193 -8.40301,3.5381 z m -10.30043,-0.475 c -1.96929,-1.694 -1.94583,-4.4523 0.0525,-6.1712 1.76161,-1.51541 3.49067,-1.54651 5.33475,-0.096 1.09858,0.8641 1.42425,1.5967 1.42425,3.204 0,3.8047 -3.9068,5.5616 -6.81147,3.0631 z m 21.65185,-0.065 c -2.38661,-2.3867 -1.18616,-6.2534 2.20565,-7.10471 2.54375,-0.6384 5.52475,2.40601 4.87821,4.98201 -0.85465,3.4052 -4.66082,4.5458 -7.08386,2.1227 z m -28.21438,0.1436 c -1.26462,-1.5237 -3.33965,-6.64393 -2.87919,-7.10431 0.7567,-0.7567 3.74776,0.16268 4.63083,1.42351 1.09071,1.5572 1.02396,3.7791 -0.15736,5.2379 -0.81071,1.0013 -1.07091,1.0735 -1.59428,0.4429 z m 38.9119,-0.033 c -1.76364,-2.2044 -1.10033,-5.7368 1.28099,-6.82183 3.44325,-1.56888 3.95828,-0.42128 1.78873,3.98573 -1.79036,3.6367 -2.15767,3.9761 -3.06972,2.8361 z M 100.96826,994.67663 V 984.4063 h -3.513532 -3.51353 v -1.8919 -1.8919 h 9.517352 c 8.85213,0 9.49012,0.0662 9.12792,0.94595 -0.2142,0.52027 -0.51184,1.37163 -0.66142,1.8919 -0.21937,0.7629 -0.88742,0.94595 -3.45221,0.94595 h -3.18023 v 10.27033 10.27037 h -2.16217 -2.16218 z m 16.21632,-1.89189 v -12.16233 h 6.81463 c 6.27812,0 6.78397,0.0745 6.4252,0.94595 -0.21418,0.52027 -0.51183,1.37163 -0.66142,1.8919 -0.22741,0.79094 -0.92602,0.94595 -4.26303,0.94595 h -3.99103 v 2.94932 2.9493 l 3.91894,0.15882 3.91895,0.15882 v 1.8919 1.89191 l -3.91895,0.15881 -3.91894,0.15882 v 3.21958 3.21961 h 4.59462 4.59463 v 1.8919 1.8919 h -6.7568 -6.7568 z m 19.45958,0 v -12.16218 h 2.12059 c 2.09739,0 2.16397,0.0649 6.08112,5.92717 2.17829,3.25993 4.08214,5.92631 4.2308,5.92527 0.14865,-9e-4 1.93337,-2.66827 3.96605,-5.92717 3.6805,-5.90077 3.70452,-5.92527 5.81085,-5.92527 h 2.11506 v 12.16224 12.1622 h -2.14809 -2.1481 l -0.14921,-8.24331 -0.14922,-8.24324 -2.91089,4.72976 c -3.97026,6.45106 -4.56152,6.43496 -9.11621,-0.24843 l -3.3784,-4.95735 v 8.48126 8.48131 h -2.16217 -2.16218 z m 31.35154,0 v -12.16233 h 4.34589 c 7.48222,0 10.61373,2.61907 10.12845,8.471 -0.36297,4.37689 -3.59745,7.20478 -8.24072,7.20478 h -1.90927 v 4.32431 4.3244 h -2.16218 -2.16217 z m 9.46928,-1.52935 c 0.44058,-0.62901 0.80105,-1.92323 0.80105,-2.87605 0,-2.09559 -2.0779,-3.97304 -4.39725,-3.97304 h -1.54873 v 4.20351 4.20349 l 2.17194,-0.20713 c 1.43601,-0.13694 2.44338,-0.59465 2.97299,-1.35078 z m 11.07138,1.52935 v -12.16233 h 2.16218 2.16217 v 10.27033 10.27036 h 4.32436 4.32435 v 1.8919 1.8919 h -6.48653 -6.48653 z m 18.37849,0 v -12.16233 h 6.48653 c 3.5676,0 6.48653,0.0854 6.48653,0.18961 0,0.10428 -0.26704,0.95563 -0.59343,1.8919 -0.58831,1.68762 -0.62557,1.70229 -4.32435,1.70229 h -3.73092 v 2.97299 2.97299 h 3.7838 3.78382 v 2.16218 2.16217 h -3.78382 -3.7838 v 3.24325 3.24331 h 4.32435 4.32435 v 1.8919 1.8919 h -6.48653 -6.48653 z m -155.327422,3.26907 c -3.16907,-2.93701 -1.0995,-8.40424 3.18135,-8.40424 2.58552,0 5.11816,2.40731 5.11816,4.86489 0,1.16352 -0.50168,2.20646 -1.58005,3.28484 -2.04099,2.04099 -4.68381,2.14109 -6.71946,0.25451 z m -20.48445,0.20116 c -1.26871,-0.73895 -1.33873,-5.97323 -0.0965,-7.21544 2.08791,-2.0879 6.17765,0.21257 6.17765,3.47493 0,3.12022 -3.47562,5.25803 -6.08112,3.74051 z m 11.05891,0.0299 c -1.38136,-0.56747 -2.85882,-3.52816 -2.40684,-4.82319 1.08619,-3.11222 4.30314,-4.12759 6.81566,-2.15125 3.66535,2.88316 -0.0521,8.76404 -4.40882,6.97444 z m 21.77912,-0.0703 c -2.74397,-1.50084 -3.21679,-4.3176 -1.1069,-6.59422 3.15363,-3.40284 8.57914,0.1785 6.79515,4.48541 -0.59139,1.42774 -2.52152,2.75293 -3.95691,2.71663 -0.35764,-0.01 -1.13674,-0.2826 -1.73134,-0.60782 z m 10.71422,-0.0184 c -1.80205,-0.87122 -2.62068,-3.31065 -1.78668,-5.32409 1.03422,-2.49682 4.24566,-3.61705 5.82931,-2.0334 0.84219,0.84219 0.84219,6.5092 0,7.35139 -0.78008,0.78002 -2.43654,0.78252 -4.04263,0.006 z m -32.98334,-10.17459 c -1.32184,-0.53232 -2.86616,-3.1311 -2.86616,-4.82315 0,-0.60467 0.69891,-1.88163 1.55314,-2.83767 3.63141,-4.06426 9.86074,-0.40866 8.14784,4.78146 -0.91474,2.7717 -3.93875,4.04565 -6.83482,2.87936 z m 10.21212,-0.79885 c -2.79527,-2.35206 -2.30076,-6.41934 0.98722,-8.11963 2.06487,-1.06779 3.94869,-0.58313 5.66594,1.45771 2.56104,3.04362 0.97079,7.17703 -3.00449,7.80931 -1.56206,0.24846 -2.24505,0.0337 -3.64867,-1.14739 z m 10.81087,0 c -2.91619,-2.45381 -2.24741,-6.68889 1.28964,-8.16676 4.78109,-1.99767 8.89558,3.69738 5.49707,7.60873 -0.70596,0.81249 -2.02252,1.52799 -3.13803,1.70542 -1.56207,0.24846 -2.24506,0.0337 -3.64868,-1.14739 z m -31.13168,0.35337 c -0.331,-0.53557 2.56202,-6.83184 3.36798,-7.32995 0.778,-0.48083 2.25644,1.79571 2.23572,3.44259 -0.009,0.75142 -0.3135,1.75217 -0.67567,2.22388 -1.30213,1.69597 -4.28555,2.70304 -4.92803,1.66348 z m 43.62561,-0.0939 c -2.64373,-1.0649 -3.52127,-4.66348 -1.67864,-6.88372 0.92937,-1.11982 1.28418,-0.82352 3.1052,2.59307 2.26779,4.2548 1.82094,5.59875 -1.42656,4.29065 z m -33.27495,-11.1134 c -0.81758,-0.44435 -1.4865,-1.03846 -1.4865,-1.32025 0,-0.6803 5.4162,-3.76594 6.62166,-3.77241 0.69182,-0.004 0.94596,0.43058 0.94596,1.61657 0,1.5374 -1.57833,3.7838 -2.65852,3.7838 -0.27298,0 -0.82028,0.11255 -1.21622,0.25011 -0.39594,0.13754 -1.38881,-0.11347 -2.20638,-0.55782 z m 11.09088,0.0216 c -1.79704,-0.7556 -2.54631,-2.33038 -2.21671,-4.65892 0.16597,-1.17257 0.46367,-1.28362 3.83682,-1.43123 3.38861,-0.14828 3.69127,-0.0689 4.12568,1.08109 1.22961,3.25528 -2.39718,6.41704 -5.74579,5.00906 z m 11.39951,0.28565 c -1.49981,-0.59873 -2.89568,-2.61076 -2.89568,-4.17388 0,-1.6804 1.09772,-1.57371 4.95359,0.48145 3.07311,1.63795 3.17056,1.75318 2.23784,2.64623 -1.28545,1.23078 -2.86794,1.61618 -4.29575,1.0462 z"
       id="path937"
       inkscape:connector-curvature="0" />
  </g>
</svg>
