<?xml version="1.0" encoding="UTF-8"?>
<svg version="1.1" viewBox="0 0 250 91" xmlns="http://www.w3.org/2000/svg" xmlns:cc="http://creativecommons.org/ns#" xmlns:dc="http://purl.org/dc/elements/1.1/" xmlns:rdf="http://www.w3.org/1999/02/22-rdf-syntax-ns#">
<metadata>
<rdf:RDF>
<cc:Work rdf:about="">
<dc:format>image/svg+xml</dc:format>
<dc:type rdf:resource="http://purl.org/dc/dcmitype/StillImage"/>
<dc:title/>
</cc:Work>
</rdf:RDF>
</metadata>
<g transform="translate(0,-961.4)">
<path d="m93.941 1042.5c0-2.7995 0.0778-2.9731 1.3323-2.9731 1.4792 0 2.6343 1.5975 2.1214 2.9339-0.17939 0.4675-0.78663 0.85-1.3494 0.85-0.66289 0-1.0233 0.3807-1.0233 1.081 0 0.5947-0.24324 1.0812-0.54055 1.0812-0.29729 0-0.54053-1.3379-0.54053-2.973zm2.1622-1.1131c0-0.4283-0.24324-0.7788-0.54054-0.7788s-0.54055 0.5008-0.54055 1.1129c0 0.6122 0.24325 0.9627 0.54055 0.779 0.2973-0.1838 0.54054-0.6846 0.54054-1.1131zm2.7027 1.1131c0-1.6351 0.24324-2.9731 0.54054-2.9731s0.54055 1.0947 0.54055 2.4325c0 2.0721 0.16016 2.4324 1.0811 2.4324 0.59461 0 1.0811 0.2433 1.0811 0.5406s-0.72973 0.5406-1.6216 0.5406c-1.6053 0-1.6216-0.03-1.6216-2.973zm5.0036 0c0.60234-1.6351 1.2697-2.9731 1.4829-2.9731 0.21328 0 0.88061 1.338 1.483 2.9731 0.87149 2.3657 0.94229 2.973 0.34666 2.973-0.41169 0-0.74851-0.2433-0.74851-0.5406s-0.48649-0.5406-1.0811-0.5406c-0.59459 0-1.0811 0.2433-1.0811 0.5406s-0.33683 0.5406-0.74852 0.5406c-0.59563 0-0.52483-0.6073 0.34666-2.973zm2.0235 0.5724c0-0.131-0.24324-0.3887-0.54055-0.5724-0.2973-0.1838-0.54054-0.077-0.54054 0.2383 0 0.3149 0.24324 0.5725 0.54054 0.5725 0.29731 0 0.54055-0.1072 0.54055-0.2384zm3.2433-0.5724c0-1.6351 0.2044-2.9731 0.45422-2.9731 0.24981 0 1.1012 0.9093 1.8919 2.0207l1.4377 2.0207v-2.0207c0-1.1114 0.24325-2.0207 0.54054-2.0207 0.2973 0 0.54055 1.338 0.54055 2.9731s-0.22561 2.973-0.50136 2.973c-0.27576 0-1.1244-0.7906-1.8859-1.7568l-1.3846-1.7568-6e-3 1.7568c-4e-3 0.9662-0.24923 1.7568-0.54653 1.7568-0.29731 0-0.54055-1.3379-0.54055-2.973zm6.5934 0.1776c0.0899-1.5375 0.40663-2.8735 0.70392-2.969 0.2973-0.096 1.1487 0.723 1.8919 1.8189l1.3514 1.9925 0.16777-1.9965c0.26114-3.1078 1.1836-2.3468 1.1836 0.9765 0 1.6351-0.22162 2.973-0.49249 2.973-0.27086 0-1.1222-0.7484-1.8919-1.6632l-1.3994-1.663v1.663c0 1.1429-0.26249 1.6632-0.83906 1.6632-0.67129 0-0.8064-0.559-0.67568-2.7954zm6.9202-0.1776c0-1.6351 0.24325-2.9731 0.54054-2.9731 0.2973 0 0.54054 1.338 0.54054 2.9731s-0.24324 2.973-0.54054 2.973c-0.29729 0-0.54054-1.3379-0.54054-2.973zm2.7027 0c0-3.5685 0.75764-3.8412 2.7027-0.9728l1.3514 1.9928 0.16777-1.9965c0.26114-3.1078 1.1836-2.3468 1.1836 0.9765 0 2.2822-0.18838 2.973-0.81082 2.973-0.44594 0-0.81956-0.1825-0.83026-0.4054-0.0107-0.223-0.57044-1.0785-1.2439-1.9012l-1.2245-1.4957 0.22195 1.9011c0.17266 1.4789 0.0287 1.9012-0.648 1.9012-0.69413 0-0.86997-0.6009-0.86997-2.973zm7.2912 1.688c-1.5483-2.363 1.1084-5.4945 3.7888-4.466 1.4447 0.5544 0.86111 1.318-0.94474 1.2361-1.5918-0.072-1.7722 0.079-1.9209 1.6064-0.12742 1.3091 0.0771 1.7492 0.91465 1.9682 1.2898 0.3373 1.6819 0.024 1.6819-1.3439 0-0.5626 0.24325-0.8726 0.54055-0.6888 0.2973 0.1837 0.54055 0.9278 0.54055 1.6535 0 1.1459-0.24719 1.3195-1.8794 1.3195-1.3824 0-2.1021-0.3399-2.7214-1.285zm9.1206 0.4742c-0.17114-0.446-0.12855-1.2365 0.0946-1.7568 0.22317-0.5203 0.43162-1.4325 0.46324-2.0271 0.0413-0.7774 0.43699-1.081 1.4088-1.081 1.1566 0 1.3514 0.2463 1.3514 1.7098 0 0.9405 0.18243 1.8931 0.4054 2.1171 0.22298 0.224 0.40541 0.1235 0.40541-0.2233 0-0.3469 0.39465-0.6307 0.87701-0.6307 0.66638 0 0.73438 0.1719 0.28313 0.7157-0.43367 0.5225-0.42236 0.887 0.042 1.3512 0.48735 0.4874-0.0244 0.6359-2.192 0.6359-2.015 0-2.9172-0.2331-3.1389-0.8108zm2.0228-0.971c-0.69379-0.6938-1.3973-0.1576-0.88371 0.6735 0.19897 0.3219 0.60938 0.4323 0.91205 0.2452 0.36919-0.2282 0.35987-0.5304-0.0283-0.9187zm0.48443-2.5426c0-0.2973-0.24324-0.5405-0.54055-0.5405-0.29729 0-0.54053 0.2432-0.54053 0.5405s0.24324 0.5405 0.54053 0.5405c0.29731 0 0.54055-0.2432 0.54055-0.5405zm7.0271 3.7474c0-0.3226 0.45668-0.432 1.0356-0.2483 1.4197 0.4506 1.9105-0.5599 0.69712-1.435-1.3783-0.9941-1.7911-1.8236-1.4064-2.8261 0.36325-0.9466 2.6574-1.1763 3.1872-0.3191 0.18948 0.3066-0.26465 0.5406-1.0492 0.5406-1.7444 0-1.7351 0.2897 0.0587 1.8326 1.8393 1.5822 1.4164 3.0323-0.88437 3.0323-0.90122 0-1.6386-0.2596-1.6386-0.577zm5.193-0.278c-0.53048-1.3825-0.37573-5.0911 0.21243-5.0911 0.2973 0 0.54055 0.9244 0.54055 2.0541 0 2.2357 0.78505 3.431 1.9578 2.9811 0.47647-0.1829 0.74494-1.1417 0.74494-2.6605 0-1.306 0.24324-2.3747 0.54055-2.3747 0.58815 0 0.74291 3.7086 0.21244 5.0911-0.20708 0.5396-0.9833 0.855-2.1043 0.855-1.1211 0-1.8973-0.3154-2.1043-0.855zm6.1584 0.2566c0-0.3291 0.35708-0.4613 0.79351-0.2939 1.3567 0.5206 1.5886-0.8291 0.30838-1.7948-1.6342-1.2327-1.2787-2.9359 0.6595-3.1597 1.0221-0.118 1.4819 0.076 1.4819 0.6251 0 0.53-0.36139 0.7016-1.0811 0.5134-1.4673-0.3837-1.3586 0.197 0.30455 1.6277 1.7764 1.528 1.3213 3.0806-0.90293 3.0806-0.86009 0-1.5638-0.2693-1.5638-0.5984zm5.946-1.8341c0-1.8018-0.21021-2.4324-0.81081-2.4324-0.44595 0-0.81082-0.2433-0.81082-0.5406s1.109-0.5406 2.4644-0.5406c1.5052 0 2.3343 0.2105 2.1303 0.5406-0.18374 0.2973-0.68458 0.5406-1.113 0.5406-0.56279 0-0.7789 0.6748-0.7789 2.4324 0 1.3379-0.24325 2.4325-0.54055 2.4325s-0.54055-1.0946-0.54055-2.4325zm3.9225-0.5405c0.60234-1.6351 1.2715-2.9731 1.4869-2.9731 0.70689 0 2.6109 5.6583 1.9826 5.892-0.31966 0.1189-0.67443-0.063-0.7884-0.4054-0.25466-0.764-2.0914-0.8224-2.5496-0.081-0.18375 0.2973-0.53493 0.5406-0.78042 0.5406s0.0465-1.3378 0.64883-2.973zm2.0235 0.2702c0-0.2973-0.10726-0.5405-0.23837-0.5405-0.1311 0-0.3887 0.2432-0.57244 0.5405s-0.0765 0.5406 0.23837 0.5406c0.31484 0 0.57244-0.2433 0.57244-0.5406zm3.2433-0.2702c0-1.6351 0.24325-2.9731 0.54054-2.9731 0.2973 0 0.54055 1.338 0.54055 2.9731s-0.24325 2.973-0.54055 2.973c-0.29729 0-0.54054-1.3379-0.54054-2.973zm2.7027 0c0-1.6351 0.2222-2.9731 0.49378-2.9731s1.2446 1.021 2.1622 2.2688l1.6684 2.2686v-2.2686c0-1.2478 0.24324-2.2688 0.54054-2.2688 0.29731 0 0.54055 1.338 0.54055 2.9731 0 3.6309-0.93093 3.9321-2.9535 0.9556l-1.3708-2.0174v2.0174c0 1.1095-0.24325 2.0174-0.54055 2.0174s-0.54054-1.3379-0.54054-2.973zm6.7847 1.8038c0.76801-2.4198 1.8925-4.7767 2.2766-4.7715 0.53889 0.01 2.343 5.5348 1.9296 5.9118-0.18043 0.1646-0.43663-0.01-0.56935-0.3765-0.28545-0.7993-2.8539-0.9209-2.8539-0.1352 0 0.2973-0.25964 0.5406-0.57698 0.5406-0.34546 0-0.42808-0.4692-0.2059-1.1692zm2.6-1.8038c-0.17113-0.446-0.40674-0.8109-0.52358-0.8109s-0.21244 0.3649-0.21244 0.8109c0 0.4459 0.23561 0.8108 0.52358 0.8108s0.38356-0.3649 0.21244-0.8108zm3.0478 0.034c0-2.8061 0.086-3.0072 1.2852-3.0072 1.7242 0 2.3215 0.9242 2.2707 3.5135-0.0398 2.034-0.14653 2.1722-1.7991 2.3315l-1.7568 0.1694zm2.7027 1.3171c0-0.2973-0.22889-0.5406-0.50864-0.5406-0.27976 0-0.65898 0.2433-0.84272 0.5406-0.18375 0.2973 0.0452 0.5406 0.50863 0.5406 0.4635 0 0.84273-0.2433 0.84273-0.5406zm0-2.7027c0-0.2973-0.24325-0.5406-0.54055-0.5406s-0.54055 0.2433-0.54055 0.5406 0.24325 0.5405 0.54055 0.5405 0.54055-0.2432 0.54055-0.5405zm2.7027 1.3513c0-1.6351 0.24324-2.9729 0.54054-2.9729s0.54054 1.3378 0.54054 2.9729c0 1.6352-0.24324 2.973-0.54054 2.973s-0.54054-1.3378-0.54054-2.973zm2.7027-0.045c0-3.6271 1.2543-3.8902 1.5176-0.3184 0.11258 1.5276 0.41782 2.2553 0.94595 2.2553 0.42885 0 0.77974 0.2433 0.77974 0.5406s-0.72973 0.5406-1.6216 0.5406c-1.6082 0-1.6216-0.025-1.6216-3.0181zm4.3244 0.045c0-1.6351 0.24325-2.9729 0.54055-2.9729s0.54055 1.3378 0.54055 2.9729c0 1.6352-0.24325 2.973-0.54055 2.973s-0.54055-1.3378-0.54055-2.973zm3.7838 0.5406c0-1.8018-0.21021-2.4325-0.81082-2.4325-0.44594 0-0.81081-0.2432-0.81081-0.5405s1.0946-0.5405 2.4324-0.5405c1.3379 0 2.4325 0.2432 2.4325 0.5405s-0.36487 0.5405-0.81082 0.5405c-0.6006 0-0.81081 0.6307-0.81081 2.4325s-0.21022 2.4324-0.81083 2.4324c-0.6006 0-0.81081-0.6306-0.81081-2.4324zm5.4054 1.062c0-0.7537-0.39782-1.9775-0.88404-2.7195-1.1623-1.774-0.40872-2.4888 0.85604-0.8121l0.97914 1.2981 0.37167-1.1711c0.20442-0.644 0.7264-1.1709 1.16-1.1709 0.68243 0 0.67754 0.2141-0.0364 1.5947-0.45358 0.8772-0.8247 2.215-0.8247 2.9731 0 0.8646-0.30209 1.3781-0.81081 1.3781-0.50751 0-0.81082-0.5126-0.81082-1.3704zm3.7838 0.8299c0-0.2973 0.24324-0.5405 0.54055-0.5405 0.29729 0 0.54053 0.2432 0.54053 0.5405 0 0.2972-0.24324 0.5405-0.54053 0.5405-0.29731 0-0.54055-0.2433-0.54055-0.5405zm-0.53227-7.973c0.0151-0.7399 1.0088-2.001 1.3264-1.6834 0.42581 0.4258-0.25249 2.0888-0.85198 2.0888-0.2655 0-0.47899-0.1824-0.47444-0.4054zm-93.461-1.531c-1.0735-1.3646-1.1427-1.3828-1.1427-0.2987 0 2.1463-0.93177 1.1713-1.2752-1.3344-0.40538-2.9576-0.17481-3.4576 1.5944-3.4576 1.528 0 2.2778 1.3521 1.4647 2.6411-0.39511 0.6262-0.32247 1.2204 0.25747 2.1056 1.1691 1.7844 0.45081 2.0595-0.89857 0.344zm-0.0616-3.501c0-0.2798-0.24325-0.5086-0.54055-0.5086s-0.54054 0.3792-0.54054 0.8427 0.24324 0.6924 0.54054 0.5086c0.2973-0.1837 0.54055-0.563 0.54055-0.8427zm50.352 3.4364c-1.0848-1.4547-1.1287-1.466-1.1451-0.2963-9e-3 0.6689-0.26037 1.2162-0.55767 1.2162s-0.54054-1.354-0.54054-3.0089c0-2.9635 0.0224-3.0063 1.4865-2.8378 1.2408 0.1427 1.494 0.4389 1.5318 1.7926 0.0249 0.8919 0.22956 2.1872 0.45476 2.8786 0.60543 1.8586 0.0516 1.9737-1.2297 0.2556zm-0.0811-3.1342c0-0.446-0.24325-0.8108-0.54054-0.8108-0.2973 0-0.54054 0.3648-0.54054 0.8108s0.24324 0.8109 0.54054 0.8109c0.29729 0 0.54054-0.3649 0.54054-0.8109zm-80.541 1.0811c0-1.6351 0.24325-2.973 0.54054-2.973 0.2973 0 0.54055 1.0946 0.54055 2.4324 0 2.0722 0.16016 2.4325 1.0811 2.4325 0.59459 0 1.0811 0.2433 1.0811 0.5405 0 0.2973-0.72973 0.5406-1.6216 0.5406-1.6052 0-1.6216-0.03-1.6216-2.973zm4.8649 0c0-2.9429 0.0163-2.973 1.6216-2.973 0.8919 0 1.6216 0.2433 1.6216 0.5406s-0.48649 0.5405-1.0811 0.5405c-1.4578 0-1.3723 0.8588 0.13514 1.357l1.2162 0.4019-1.2162 0.2392c-1.5055 0.2962-1.6182 1.7857-0.13514 1.7857 0.5946 0 1.0811 0.2433 1.0811 0.5405 0 0.2973-0.72973 0.5406-1.6216 0.5406-1.6053 0-1.6216-0.03-1.6216-2.973zm5.1867 0.946c0.48226-1.1149 1.0004-2.4527 1.1514-2.973 0.4533-1.5618 1.0242-1.0932 2.2439 1.8416 1.1778 2.834 1.0831 4.1985-0.17215 2.4819-0.84609-1.1571-2.4638-1.2453-2.4638-0.1343 0 0.4459-0.36812 0.8108-0.81806 0.8108-0.71995 0-0.71291-0.2432 0.0587-2.027zm2.2765-1.5009c-0.16642-0.1664-0.46868 0.1336-0.67167 0.6667-0.29333 0.7704-0.23125 0.8325 0.3026 0.3026 0.36942-0.3666 0.5355-0.8028 0.36907-0.9693zm3.8882 0.5549c0-2.907 0.0342-2.973 1.5378-2.973 1.7493 0 3.327 1.4544 3.327 3.0669 0 1.4789-1.6637 2.8791-3.421 2.8791-1.3899 0-1.4439-0.1113-1.4439-2.973zm3.1706 0.9599c0.63286-1.1309-0.15025-2.8518-1.2977-2.8518-0.54455 0-0.7918 0.5908-0.7918 1.8919 0 2.0735 1.1664 2.6093 2.0895 0.9599zm3.316-0.9599c0-2.9429 0.0163-2.973 1.6216-2.973 0.8919 0 1.6216 0.2433 1.6216 0.5406s-0.48649 0.5405-1.0811 0.5405c-0.5946 0-1.0811 0.2432-1.0811 0.5405s0.48649 0.5406 1.0811 0.5406c0.59459 0 1.0811 0.2433 1.0811 0.5406s-0.48649 0.5404-1.0811 0.5404c-0.60061 0-1.0811 0.3605-1.0811 0.8109 0 0.4505 0.48048 0.8108 1.0811 0.8108 0.59459 0 1.0811 0.2433 1.0811 0.5405 0 0.2973-0.72973 0.5406-1.6216 0.5406-1.6052 0-1.6216-0.03-1.6216-2.973zm10.811 2.4324c0-0.2972 0.66644-0.5405 1.481-0.5405h1.481l-1.481-1.3732c-1.73-1.6041-1.8805-2.6993-0.47455-3.4517 0.72409-0.3876 1.2927-0.3219 2.027 0.2341 0.95976 0.7265 0.92594 0.7736-0.567 0.7898l-1.5876 0.017 1.4693 1.5336c1.8065 1.8856 1.4662 3.3313-0.78433 3.3313-0.86009 0-1.5638-0.2432-1.5638-0.5406zm8.6487-2.4324c0-1.6351 0.24324-2.973 0.54054-2.973 0.29731 0 0.54055 1.3379 0.54055 2.973s-0.24324 2.973-0.54055 2.973c-0.2973 0-0.54054-1.3379-0.54054-2.973zm3.2433 0c0-1.6351 0.21966-2.973 0.48812-2.973s1.2333 0.9122 2.144 2.027l1.6559 2.0271 0.0181-2.0271c0.01-1.1148 0.26138-2.027 0.55868-2.027 0.29731 0 0.54055 1.3379 0.54055 2.973 0 3.6057-0.8089 3.8726-2.8867 0.9524l-1.4377-2.0207v2.0207c0 1.1113-0.24325 2.0206-0.54055 2.0206-0.29729 0-0.54054-1.3379-0.54054-2.973zm10.811 0c0-2.9429 0.0163-2.973 1.6216-2.973 0.8919 0 1.6216 0.2433 1.6216 0.5406s-0.48649 0.5405-1.0811 0.5405c-0.59459 0-1.0811 0.2432-1.0811 0.5405s0.36487 0.5406 0.81081 0.5406c0.44595 0 0.81082 0.2433 0.81082 0.5406s-0.36487 0.5404-0.81082 0.5404c-0.44594 0-0.81081 0.3649-0.81081 0.8109 0 0.4505 0.48048 0.8108 1.0811 0.8108 0.59461 0 1.0811 0.2433 1.0811 0.5405 0 0.2973-0.72974 0.5406-1.6216 0.5406-1.6052 0-1.6216-0.03-1.6216-2.973zm4.8649 0c0-3.5685 0.75762-3.8411 2.7027-0.9728l1.3514 1.9928 0.16777-1.9965c0.26114-3.1077 1.1836-2.3467 1.1836 0.9765 0 3.5685-0.75762 3.8412-2.7027 0.9728l-1.3514-1.9928-0.16777 1.9965c-0.26115 3.1078-1.1836 2.3468-1.1836-0.9765zm8.0889 0.4958c-1.176-2.7435-1.2971-3.4688-0.57914-3.4688 0.26549 0 0.84095 0.8981 1.2788 1.9959l0.79605 1.9958 0.7217-1.9958c0.39695-1.0978 1.0154-1.9959 1.3743-1.9959 0.44744 0 0.28586 0.9343-0.51401 2.9719-0.64162 1.6346-1.3577 2.9724-1.5912 2.973s-0.90247-1.1137-1.4865-2.4761zm5.9266 2.2069c-0.28716-2.0101 0.0188-5.3988 0.50194-5.5598 0.41414-0.1381 0.61776 0.7887 0.61776 2.812 0 1.6599-0.24325 3.0181-0.54054 3.0181-0.2973 0-0.55792-0.1217-0.57916-0.2703zm8.8671-1.1434c-0.83097-1.2682-0.84403-1.5601-0.12687-2.8378 0.62053-1.1056 1.2134-1.4242 2.6498-1.4242s2.0293 0.3186 2.6498 1.4242c0.71715 1.2777 0.7041 1.5696-0.12687 2.8378-0.65287 0.9964-1.3975 1.4137-2.523 1.4137-1.1254 0-1.8701-0.4173-2.523-1.4137zm3.5122 0.4008c0.40836-0.2588 0.64188-1.131 0.54054-2.0188-0.14374-1.2592-0.44104-1.5629-1.5298-1.5629-1.0887 0-1.386 0.3037-1.5298 1.5629-0.15339 1.3438 0.5457 2.4746 1.5298 2.4746 0.14866 0 0.59381-0.2051 0.98924-0.4558zm3.8757-1.9601c0-1.6351 0.22561-2.973 0.50136-2.973 0.27576 0 1.1244 0.7905 1.8859 1.7568l1.3845 1.7568 6e-3 -1.7568c4e-3 -0.9663 0.24924-1.7568 0.54654-1.7568s0.54055 1.3379 0.54055 2.973-0.2044 2.973-0.45422 2.973-1.1012-0.9093-1.8919-2.0206l-1.4377-2.0207v2.0207c0 1.1113-0.24324 2.0206-0.54054 2.0206s-0.54054-1.3379-0.54054-2.973zm7.5676 0c0-3.2333 0.49449-3.7277 1.6216-1.6216 0.39778 0.7432 0.88632 1.3514 1.0857 1.3514 0.19935 0 0.63951-0.6082 0.97817-1.3514 1.0122-2.2217 1.72-1.5544 1.72 1.6216 0 1.6351-0.24324 2.973-0.54054 2.973s-0.54055-0.7762-0.54055-1.725c0-1.6392-0.0403-1.6728-0.81081-0.6756-0.80262 1.0386-0.81901 1.0386-1.6216 0-0.77055-0.9972-0.81082-0.9636-0.81082 0.6756 0 0.9488-0.24324 1.725-0.54054 1.725-0.29731 0-0.54055-1.3379-0.54055-2.973zm7.5676 0c0-2.9429 0.0163-2.973 1.6216-2.973 1.8915 0 2.183 0.8954 0.40541 1.2451l-1.2162 0.2393 1.2162 0.4019c1.464 0.4838 1.6089 1.3569 0.22522 1.3569-0.54505 0-0.991 0.3649-0.991 0.8109 0 0.4459 0.44595 0.8108 0.991 0.8108s0.991 0.2433 0.991 0.5405c0 0.2973-0.72973 0.5406-1.6216 0.5406-1.6053 0-1.6216-0.03-1.6216-2.973zm5.4054 0c0-1.6351 0.18243-2.9752 0.40541-2.9778 0.22297 0 1.0678 0.7878 1.8774 1.7567l1.472 1.7617 0.0145-1.7568c8e-3 -0.9663 0.25779-1.7568 0.55509-1.7568s0.54055 1.3379 0.54055 2.973-0.18244 2.9752-0.40542 2.9778c-0.22297 0-1.0678-0.7878-1.8774-1.7567l-1.472-1.7617-0.0145 1.7568c-8e-3 0.9663-0.25779 1.7568-0.55508 1.7568-0.2973 0-0.54055-1.3379-0.54055-2.973zm8.1082 0.5406c0-1.8019-0.21021-2.4325-0.81081-2.4325-0.44595 0-0.81082-0.2432-0.81082-0.5405s1.109-0.5406 2.4644-0.5406c1.5052 0 2.3343 0.2104 2.1303 0.5406-0.18374 0.2973-0.68458 0.5405-1.113 0.5405-0.56279 0-0.77891 0.6749-0.77891 2.4325 0 1.3378-0.24325 2.4324-0.54054 2.4324-0.2973 0-0.54055-1.0946-0.54055-2.4324zm-162.88-17.388c-0.88293-0.883-0.30697-3.8258 0.98659-5.041 2.4403-2.2925 6.1951-1.2521 6.9959 1.9387 0.64506 2.57-0.44213 3.4626-4.2178 3.4626-1.8724 0-3.5666-0.1622-3.7648-0.3603zm42.443-1.3965 0.16939-1.7567 62.838-0.1374c34.561-0.076 62.838-0.051 62.838 0.054 0 0.1056-0.26703 0.9579-0.59342 1.8941l-0.59342 1.7024h-124.83zm-50.002-0.9989c-3.2887-1.6971-3.5893-2.466-1.4077-3.6008 2.6634-1.3855 5.9033 0.6526 5.9033 3.7136 0 1.9461-0.5318 1.9328-4.4956-0.1128zm18.009 0.101c0-1.0935 0.50732-2.0005 1.6631-2.973 2.0567-1.7305 3.2604-1.7621 5.1524-0.1346l1.4704 1.2648-3.4185 1.7082c-4.2536 2.1255-4.8674 2.1425-4.8674 0.1346zm-10.025-7.3208c-3.0258-3.0258-0.85753-8.403 3.3884-8.403 2.479 0 5.0146 2.4599 5.0146 4.8649 0 4.0943-5.5218 6.4193-8.403 3.5381zm-10.3-0.475c-1.9693-1.694-1.9458-4.4523 0.0525-6.1712 1.7616-1.5154 3.4907-1.5465 5.3348-0.096 1.0986 0.8641 1.4242 1.5967 1.4242 3.204 0 3.8047-3.9068 5.5616-6.8115 3.0631zm21.652-0.065c-2.3866-2.3867-1.1862-6.2534 2.2056-7.1047 2.5438-0.6384 5.5248 2.406 4.8782 4.982-0.85465 3.4052-4.6608 4.5458-7.0839 2.1227zm-28.214 0.1436c-1.2646-1.5237-3.3396-6.6439-2.8792-7.1043 0.7567-0.7567 3.7478 0.16268 4.6308 1.4235 1.0907 1.5572 1.024 3.7791-0.15736 5.2379-0.81071 1.0013-1.0709 1.0735-1.5943 0.4429zm38.912-0.033c-1.7636-2.2044-1.1003-5.7368 1.281-6.8218 3.4432-1.5689 3.9583-0.42128 1.7887 3.9857-1.7904 3.6367-2.1577 3.9761-3.0697 2.8361zm27.435-11.757v-10.27h-7.0271v-3.7838h9.5174c8.8521 0 9.4901 0.0662 9.1279 0.94595-0.2142 0.52027-0.51184 1.3716-0.66142 1.8919-0.21937 0.7629-0.88742 0.94595-3.4522 0.94595h-3.1802v20.541h-4.3244zm16.216-1.8919v-12.162h6.8146c6.2781 0 6.784 0.0745 6.4252 0.94595-0.21418 0.52027-0.51183 1.3716-0.66142 1.8919-0.22741 0.79094-0.92602 0.94595-4.263 0.94595h-3.991v5.8986l7.8379 0.31764v3.7838l-7.8379 0.31763v6.4392h9.1892v3.7838h-13.514zm19.46 0v-12.162h2.1206c2.0974 0 2.164 0.0649 6.0811 5.9272 2.1783 3.2599 4.0821 5.9263 4.2308 5.9253 0.14865-9e-4 1.9334-2.6683 3.966-5.9272 3.6805-5.9008 3.7045-5.9253 5.8108-5.9253h2.1151v24.324h-4.2962l-0.14921-8.2433-0.14922-8.2432-2.9109 4.7298c-3.9703 6.4511-4.5615 6.435-9.1162-0.24843l-3.3784-4.9574v16.963h-4.3244zm31.352 0v-12.162h4.3459c7.4822 0 10.614 2.6191 10.128 8.471-0.36297 4.3769-3.5974 7.2048-8.2407 7.2048h-1.9093v8.6487h-4.3244zm9.4693-1.5294c0.44058-0.62901 0.80105-1.9232 0.80105-2.876 0-2.0956-2.0779-3.973-4.3972-3.973h-1.5487v8.407l2.1719-0.20713c1.436-0.13694 2.4434-0.59465 2.973-1.3508zm11.071 1.5294v-12.162h4.3244v20.541h8.6487v3.7838h-12.973zm18.378 0v-12.162h6.4865c3.5676 0 6.4865 0.0854 6.4865 0.18961 0 0.10428-0.26704 0.95563-0.59343 1.8919-0.58831 1.6876-0.62557 1.7023-4.3244 1.7023h-3.7309v5.946h7.5676v4.3244h-7.5676v6.4866h8.6487v3.7838h-12.973zm-155.33 3.2691c-3.1691-2.937-1.0995-8.4042 3.1814-8.4042 2.5855 0 5.1182 2.4073 5.1182 4.8649 0 1.1635-0.50168 2.2065-1.58 3.2848-2.041 2.041-4.6838 2.1411-6.7195 0.25451zm-20.484 0.20116c-1.2687-0.73895-1.3387-5.9732-0.0965-7.2154 2.0879-2.0879 6.1776 0.21257 6.1776 3.4749 0 3.1202-3.4756 5.258-6.0811 3.7405zm11.059 0.0299c-1.3814-0.56747-2.8588-3.5282-2.4068-4.8232 1.0862-3.1122 4.3031-4.1276 6.8157-2.1512 3.6654 2.8832-0.0521 8.764-4.4088 6.9744zm21.779-0.0703c-2.744-1.5008-3.2168-4.3176-1.1069-6.5942 3.1536-3.4028 8.5791 0.1785 6.7952 4.4854-0.59139 1.4277-2.5215 2.7529-3.9569 2.7166-0.35764-0.01-1.1367-0.2826-1.7313-0.60782zm10.714-0.0184c-1.802-0.87122-2.6207-3.3106-1.7867-5.3241 1.0342-2.4968 4.2457-3.617 5.8293-2.0334 0.84219 0.84219 0.84219 6.5092 0 7.3514-0.78008 0.78002-2.4365 0.78252-4.0426 6e-3zm-32.983-10.175c-1.3218-0.53232-2.8662-3.1311-2.8662-4.8232 0-0.60467 0.69891-1.8816 1.5531-2.8377 3.6314-4.0643 9.8607-0.40866 8.1478 4.7815-0.91474 2.7717-3.9388 4.0456-6.8348 2.8794zm10.212-0.79885c-2.7953-2.3521-2.3008-6.4193 0.98722-8.1196 2.0649-1.0678 3.9487-0.58313 5.6659 1.4577 2.561 3.0436 0.97079 7.177-3.0045 7.8093-1.5621 0.24846-2.245 0.0337-3.6487-1.1474zm10.811 0c-2.9162-2.4538-2.2474-6.6889 1.2896-8.1668 4.7811-1.9977 8.8956 3.6974 5.4971 7.6087-0.70596 0.81249-2.0225 1.528-3.138 1.7054-1.5621 0.24846-2.2451 0.0337-3.6487-1.1474zm-31.132 0.35337c-0.331-0.53557 2.562-6.8318 3.368-7.33 0.778-0.48083 2.2564 1.7957 2.2357 3.4426-9e-3 0.75142-0.3135 1.7522-0.67567 2.2239-1.3021 1.696-4.2856 2.703-4.928 1.6635zm43.626-0.0939c-2.6437-1.0649-3.5213-4.6635-1.6786-6.8837 0.92937-1.1198 1.2842-0.82352 3.1052 2.5931 2.2678 4.2548 1.8209 5.5988-1.4266 4.2906zm-33.275-11.113c-0.81758-0.44435-1.4865-1.0385-1.4865-1.3202 0-0.6803 5.4162-3.7659 6.6217-3.7724 0.69182-4e-3 0.94596 0.43058 0.94596 1.6166 0 1.5374-1.5783 3.7838-2.6585 3.7838-0.27298 0-0.82028 0.11255-1.2162 0.25011-0.39594 0.13754-1.3888-0.11347-2.2064-0.55782zm11.091 0.0216c-1.797-0.7556-2.5463-2.3304-2.2167-4.6589 0.16597-1.1726 0.46367-1.2836 3.8368-1.4312 3.3886-0.14828 3.6913-0.0689 4.1257 1.0811 1.2296 3.2553-2.3972 6.417-5.7458 5.0091zm11.4 0.28565c-1.4998-0.59873-2.8957-2.6108-2.8957-4.1739 0-1.6804 1.0977-1.5737 4.9536 0.48145 3.0731 1.638 3.1706 1.7532 2.2378 2.6462-1.2854 1.2308-2.8679 1.6162-4.2958 1.0462z" fill="#fff" stroke-width=".54054"/>
</g>
</svg>
