<?xml version="1.0" encoding="UTF-8"?>
<svg version="1.1" viewBox="0 0 250 91" xml:space="preserve" xmlns="http://www.w3.org/2000/svg"><g transform="matrix(.4573 0 0 .4573 -43.549 -239.76)" fill="#fff"><g transform="matrix(2.8962 0 0 -2.8962 222.09 637.8)"><path d="m0 0c-0.31-0.714-1.023-1.217-1.854-1.217-1.115 0-2.02 0.904-2.02 2.021v2.834h7.274v4.04h-7.274v0.022h-2e-3v7.633h-21.816v-5.254h8.083v-13.341h5.658v13.341h3.231v-2.401h-1.655v-4.04h1.655v-4.307h4e-3c0.087-2.939 2.531-5.083 6.528-4.984 3.668 0.088 6.422 2.362 6.527 5.386 3e-3 0.09 3e-3 0.179 0 0.267zm8.747-10.113c0-2.455-1.99-4.447-4.445-4.447h-29.908c-2.455 0-4.445 1.992-4.445 4.447v29.907c0 2.455 1.99 4.446 4.445 4.446h29.908c2.455 0 4.445-1.991 4.445-4.446zm-4.176 36.775h-30.454c-3.643 0-6.596-2.954-6.596-6.598v-30.453c0-3.645 2.953-6.597 6.596-6.597h30.454c3.644 0 6.598 2.952 6.598 6.597v30.453c0 3.644-2.954 6.598-6.598 6.598" fill="#fff"/></g><g transform="matrix(2.8743 0 0 -2.8743 -714.09 2078.3)"><g transform="translate(355.35 514.43)"><path d="m0 0h-4.233v-9.546h-2.913v9.546h-4.233v2.141h11.379z" fill="#fff"/></g><g transform="translate(365.91 504.88)"><path d="m0 0h-8.62v11.687h8.5v-2.141h-5.587v-2.452h5.33v-2.141h-5.33v-2.811h5.707z" fill="#fff"/></g><g transform="translate(379.11 514.43)"><path d="m0 0h-4.233v-9.546h-2.913v9.546h-4.233v2.141h11.379z" fill="#fff"/></g><g transform="translate(383.97 511.77)"><path d="m0 0h1.542c0.806 0 1.595 0.343 1.595 1.337 0 0.874-0.566 1.32-1.663 1.32h-1.474zm2.314 4.798c2.399 0 3.822-1.61 3.822-3.359 0-1.285-0.668-2.244-2.005-2.861 1.199-0.6 1.56-2.04 3.205-5.467h-3.205c-1.252 2.502-1.714 4.747-3.291 4.747h-0.84v-4.747h-2.913v11.687z" fill="#fff"/></g><g transform="translate(399.2 513.78)"><path d="m0 0-1.713-4.542h3.598zm6.838-8.895h-3.135l-0.96 2.314h-5.227l-0.875-2.314h-3.084l4.713 11.687h3.375z" fill="#fff"/></g><g transform="translate(423.28 514.43)"><path d="m0 0h-4.234v-9.546h-2.913v9.546h-4.233v2.141h11.38z" fill="#fff"/></g><g transform="translate(433.84 504.88)"><path d="m0 0h-8.62v11.687h8.5v-2.141h-5.587v-2.452h5.33v-2.141h-5.33v-2.811h5.707z" fill="#fff"/></g><g transform="translate(446.75 505.88)"><path d="m0 0c-1.621-0.84-2.85-1.165-4.574-1.165-4.522 0-6.776 2.947-6.776 5.964 0 3.119 2.543 6.032 6.998 6.032 1.621 0 3.072-0.342 4.215-1.028v-2.605c-1.279 0.72-2.577 1.2-4.01 1.2-2.475 0-4.215-1.474-4.215-3.547 0-2.091 1.722-3.583 4.146-3.583 1.519 0 2.544 0.48 4.216 1.286z" fill="#fff"/></g><g transform="translate(460.35 504.88)"><path d="m0 0h-2.913v4.731h-5.827v-4.731h-2.913v11.687h2.913v-4.695h5.827v4.695h2.913z" fill="#fff"/></g></g></g></svg>
