<?xml version="1.0" encoding="UTF-8"?>
<svg version="1.1" viewBox="0 0 250 91" xmlns="http://www.w3.org/2000/svg" xmlns:cc="http://creativecommons.org/ns#" xmlns:dc="http://purl.org/dc/elements/1.1/" xmlns:rdf="http://www.w3.org/1999/02/22-rdf-syntax-ns#">
<metadata>
<rdf:RDF>
<cc:Work rdf:about="">
<dc:format>image/svg+xml</dc:format>
<dc:type rdf:resource="http://purl.org/dc/dcmitype/StillImage"/>
<dc:title/>
</cc:Work>
</rdf:RDF>
</metadata>
<g transform="translate(0,-961.4)" fill="#fff">
<g transform="matrix(.46072 0 0 .46072 25.001 976.31)">
<rect x="188.1" y="93" width="245.4" height="2.7"/>
<path d="m81.8 0c-36.6 0-66.4 29.7-66.4 66.4s29.7 66.4 66.4 66.4 66.4-29.7 66.4-66.4-29.7-66.4-66.4-66.4m42.9 66.4c0 23.7-19.2 42.8-42.9 42.8-23.6 0-42.8-19.1-42.8-42.8s19.2-42.8 42.8-42.8c23.7 0 42.9 19.1 42.9 42.8"/>
<rect y="53" width="163.4" height="26.9"/>
<polygon points="195.4 113.2 195.4 115.9 191.2 115.9 191.2 118.9 197 118.9 197 121.7 188.1 121.7 188.1 108.2 196.5 108.2 196.5 110.9 191.2 110.9 191.2 113.2"/>
<polygon points="210.8 108.2 206 121.7 202.6 121.7 197.8 108.2 201.3 108.2 204.3 117.3 207.3 108.2"/>
<polygon points="219.6 113.2 219.6 115.9 215.4 115.9 215.4 118.9 221.1 118.9 221.1 121.7 212.3 121.7 212.3 108.2 220.7 108.2 220.7 110.9 215.4 110.9 215.4 113.2"/>
<path d="m226 110.7v3.2h1.1c0.6 0 1.1-0.2 1.4-0.5s0.5-0.7 0.5-1.2c0-0.4-0.2-0.8-0.5-1.1s-0.8-0.4-1.3-0.4h-1.2zm3.9 11-3.4-5.1h-0.5v5.1h-3.2v-13.6h4.6c1.5 0 2.7 0.4 3.5 1.1s1.3 1.7 1.3 3c0 0.9-0.2 1.6-0.7 2.2-0.4 0.6-1 1.1-1.8 1.4l3.9 5.8h-3.7z"/>
<polygon points="240.3 113.2 242.9 108.2 246.5 108.2 241.9 116.2 241.9 121.7 238.7 121.7 238.7 116.2 234.1 108.2 237.7 108.2"/>
<path d="m261.1 117.4c0 1.4-0.4 2.5-1.2 3.4-0.8 0.8-1.9 1.2-3.4 1.2-0.8 0-1.6-0.2-2.2-0.6s-1.1-1-1.6-1.9l2.5-1.4c0.3 0.7 0.8 1 1.3 1 0.9 0 1.4-0.7 1.4-2v-9h3.2v9.3z"/>
<path d="m270.1 119.1c1.2 0 2.1-0.4 2.9-1.2s1.2-1.8 1.2-3-0.4-2.2-1.2-3-1.7-1.2-2.9-1.2c-1.1 0-2.1 0.4-2.9 1.2s-1.2 1.8-1.2 3 0.4 2.2 1.2 3 1.7 1.2 2.9 1.2m0 2.9c-2 0-3.8-0.7-5.1-2-1.4-1.4-2.1-3-2.1-5s0.7-3.6 2.1-5c1.4-1.3 3.1-2 5.1-2 2.1 0 3.8 0.7 5.2 2s2.1 3 2.1 5-0.7 3.7-2.1 5c-1.5 1.3-3.2 2-5.2 2"/>
<path d="m291.4 115.4c0 1.3-0.2 2.3-0.4 3-0.3 0.7-0.7 1.3-1.2 1.9s-1.2 1-2 1.2c-0.8 0.3-1.7 0.4-2.7 0.4-0.9 0-1.8-0.1-2.5-0.4s-1.4-0.7-1.9-1.3-0.9-1.2-1.2-1.9-0.4-1.7-0.4-3v-7.3h3.2v7.2c0 1.3 0.3 2.2 0.8 2.9 0.5 0.6 1.2 1 2.2 1 2 0 3-1.3 3-3.8v-7.2h3.2v7.3z"/>
<path d="m296.7 110.7v3.2h1.1c0.6 0 1-0.2 1.4-0.5 0.3-0.3 0.5-0.7 0.5-1.2 0-0.4-0.2-0.8-0.5-1.1s-0.8-0.4-1.3-0.4h-1.2zm4 11-3.4-5.1h-0.6v5.1h-3.2v-13.6h4.6c1.5 0 2.7 0.4 3.5 1.1s1.3 1.7 1.3 3c0 0.9-0.2 1.6-0.6 2.2s-1 1.1-1.8 1.4l3.9 5.8h-3.7z"/>
<polygon points="314.9 116.7 314.9 108.2 318.1 108.2 318.1 121.7 314.8 121.7 308.8 113.3 308.8 121.7 305.6 121.7 305.6 108.2 308.9 108.2"/>
<polygon points="327.7 113.2 327.7 115.9 323.5 115.9 323.5 118.9 329.2 118.9 329.2 121.7 320.3 121.7 320.3 108.2 328.8 108.2 328.8 110.9 323.5 110.9 323.5 113.2"/>
<polygon points="336.3 113.2 338.9 108.2 342.5 108.2 337.8 116.2 337.8 121.7 334.7 121.7 334.7 116.2 330 108.2 333.7 108.2"/>
<polygon points="349.7 108.2 352.7 108.2 356.6 113.3 360.4 108.2 363.6 108.2 363.6 121.7 360.4 121.7 360.4 113.3 356.6 118.1 352.9 113.3 352.9 121.7 349.7 121.7"/>
<path d="m371.6 111.9-1.5 4.6h3l-1.5-4.6zm3.3 9.8-0.8-2.5h-4.8l-0.8 2.5h-3.5l5-13.6h3.2l5.1 13.6h-3.4z"/>
<polygon points="389.6 108.2 389.6 111 385.9 111 385.9 121.7 382.7 121.7 382.7 111 379.1 111 379.1 108.2"/>
<polygon points="400.9 108.2 400.9 111 397.2 111 397.2 121.7 394.1 121.7 394.1 111 390.4 111 390.4 108.2"/>
<polygon points="409.8 113.2 409.8 115.9 405.6 115.9 405.6 118.9 411.3 118.9 411.3 121.7 402.4 121.7 402.4 108.2 410.9 108.2 410.9 110.9 405.6 110.9 405.6 113.2"/>
<path d="m416.2 110.7v3.2h1.1c0.6 0 1-0.2 1.4-0.5 0.3-0.3 0.5-0.7 0.5-1.2 0-0.4-0.2-0.8-0.5-1.1s-0.7-0.4-1.3-0.4h-1.2zm3.9 11-3.4-5.1h-0.6v5.1h-3.1v-13.6h4.6c1.5 0 2.7 0.4 3.5 1.1s1.2 1.7 1.2 3c0 0.9-0.2 1.6-0.6 2.2s-1 1.1-1.8 1.4l3.9 5.8h-3.7z"/>
<path d="m424.5 119 2.4-1.4c0.5 1.1 1.2 1.6 2.3 1.6 0.6 0 1-0.1 1.3-0.4 0.3-0.2 0.5-0.6 0.5-1s-0.1-0.6-0.4-0.9-0.9-0.6-2.1-1.1c-1.3-0.6-2.2-1.2-2.7-1.8s-0.7-1.4-0.7-2.3c0-1.1 0.4-2 1.3-2.8 0.8-0.8 1.9-1.1 3.2-1.1 1.9 0 3.2 0.7 4.1 2.2l-2.2 1.4c-0.4-0.7-1-1.1-1.9-1.1-0.4 0-0.8 0.1-1 0.3-0.3 0.2-0.4 0.5-0.4 0.8s0.2 0.6 0.4 0.9c0.3 0.2 0.9 0.6 1.8 1 1.4 0.6 2.3 1.3 2.9 1.9s0.8 1.5 0.8 2.4c0 1.2-0.5 2.2-1.5 3s-2.2 1.2-3.6 1.2c-1.9 0.2-3.5-0.8-4.5-2.8"/>
<polygon points="208.7 10.7 208.7 16.3 201.5 16.3 201.5 37.3 195.3 37.3 195.3 16.3 188.1 16.3 188.1 10.7"/>
<path d="m218 15.7v6.3h2.2c1.1 0 2.1-0.3 2.7-0.9 0.7-0.6 1-1.4 1-2.3s-0.3-1.6-1-2.2c-0.6-0.6-1.5-0.9-2.6-0.9h-2.3zm7.8 21.6-6.6-10.1h-1.2v10.1h-6.3v-26.6h9.1c3 0 5.3 0.7 6.9 2.2 1.6 1.4 2.5 3.4 2.5 5.9 0 1.7-0.4 3.1-1.3 4.4-0.8 1.2-2.1 2.2-3.6 2.8l7.6 11.4h-7.1z"/>
<path d="m246.9 18-3 9.1h6l-3-9.1zm6.5 19.3-1.6-4.8h-9.5l-1.6 4.8h-6.8l9.8-26.6h6.3l10.1 26.6h-6.7z"/>
<polygon points="281.2 27.4 281.2 10.7 287.4 10.7 287.4 37.3 280.9 37.3 269.2 20.9 269.2 37.3 263 37.3 263 10.7 269.3 10.7"/>
<path d="m290.8 32.1 4.7-2.8c0.9 2.2 2.4 3.2 4.4 3.2 1.1 0 1.9-0.2 2.6-0.7 0.6-0.5 1-1.1 1-1.9 0-0.7-0.2-1.3-0.7-1.8s-1.8-1.3-4.1-2.3c-2.6-1.1-4.3-2.3-5.3-3.5-0.9-1.2-1.4-2.7-1.4-4.4 0-2.1 0.8-4 2.5-5.4 1.7-1.5 3.8-2.2 6.3-2.2 3.7 0 6.4 1.5 8 4.4l-4.3 2.8c-0.8-1.4-2.1-2.1-3.7-2.1-0.8 0-1.5 0.2-2 0.6s-0.8 0.9-0.8 1.6 0.3 1.2 0.8 1.7 1.7 1.1 3.5 2c2.7 1.3 4.6 2.5 5.7 3.8s1.7 2.9 1.7 4.8c0 2.4-1 4.3-2.8 5.8-1.9 1.5-4.2 2.3-7 2.3-4.2-0.2-7.2-2.1-9.1-5.9"/>
<path d="m319.5 15.8v7.7h2c1.5 0 2.6-0.3 3.4-1s1.2-1.6 1.2-2.8c0-1.3-0.4-2.2-1.2-2.9s-1.9-1-3.4-1h-2zm0 12.8v8.7h-6.3v-26.6h8.9c3.2 0 5.7 0.8 7.5 2.4s2.7 3.8 2.7 6.5c0 2.8-1 5-2.8 6.6-1.9 1.6-4.4 2.4-7.6 2.4h-2.4z"/>
<path d="m349 32.2c2.3 0 4.1-0.8 5.7-2.4 1.5-1.6 2.3-3.5 2.3-5.9 0-2.3-0.8-4.3-2.3-5.9s-3.4-2.3-5.7-2.3-4.1 0.8-5.7 2.4c-1.5 1.6-2.3 3.5-2.3 5.8s0.8 4.3 2.3 5.9c1.6 1.6 3.5 2.4 5.7 2.4m0 5.6c-4 0-7.4-1.3-10.1-4s-4.1-5.9-4.1-9.8 1.3-7.2 4.1-9.8c2.7-2.7 6.1-4 10.1-4s7.4 1.3 10.1 4c2.7 2.6 4.1 5.9 4.1 9.8s-1.4 7.2-4.1 9.9c-2.7 2.6-6 3.9-10.1 3.9"/>
<path d="m373 15.7v6.3h2.2c1.1 0 2.1-0.3 2.7-0.9 0.7-0.6 1-1.4 1-2.3s-0.3-1.6-1-2.2c-0.6-0.6-1.5-0.9-2.6-0.9h-2.3zm7.8 21.6-6.6-10.1h-1.2v10.1h-6.3v-26.6h9.1c3 0 5.3 0.7 6.9 2.2 1.6 1.4 2.5 3.4 2.5 5.9 0 1.7-0.4 3.1-1.3 4.4-0.8 1.2-2 2.2-3.6 2.8l7.6 11.4h-7.1z"/>
<polygon points="409.8 10.7 409.8 16.3 402.6 16.3 402.6 37.3 396.3 37.3 396.3 16.3 389.1 16.3 389.1 10.7"/>
<polygon points="188.1 79.6 188.1 53 204.9 53 204.9 58.3 194.3 58.3 194.3 62.9 202.7 62.9 202.7 68.3 194.3 68.3 194.3 79.6"/>
<path d="m221.2 74.5c2.3 0 4.1-0.8 5.7-2.4 1.5-1.6 2.3-3.5 2.3-5.9 0-2.3-0.8-4.3-2.3-5.8-1.5-1.6-3.4-2.3-5.7-2.3s-4.1 0.8-5.7 2.4c-1.5 1.6-2.3 3.5-2.3 5.8s0.8 4.3 2.3 5.8c1.6 1.6 3.5 2.4 5.7 2.4m0 5.6c-4 0-7.4-1.3-10.1-4s-4.1-5.9-4.1-9.8 1.3-7.2 4.1-9.8c2.7-2.7 6.1-4 10.1-4s7.4 1.3 10.1 4c2.7 2.6 4.1 5.9 4.1 9.8s-1.4 7.2-4.1 9.9c-2.7 2.6-6.1 3.9-10.1 3.9"/>
<path d="m245.2 58v6.3h2.2c1.1 0 2.1-0.3 2.7-0.9 0.7-0.6 1-1.4 1-2.3 0-0.8-0.3-1.6-0.9-2.2s-1.5-0.9-2.6-0.9h-2.4zm7.8 21.6-6.6-10.1h-1.2v10.1h-6.2v-26.6h9.1c3 0 5.3 0.7 6.9 2.2 1.6 1.4 2.5 3.4 2.5 5.9 0 1.7-0.4 3.1-1.3 4.4-0.8 1.2-2.1 2.2-3.6 2.8l7.6 11.4h-7.2z"/>
<polygon points="271.3 79.6 271.3 53 277.5 53 277.5 74 287.7 74 287.7 79.6"/>
<path d="m304.1 74.5c2.3 0 4.1-0.8 5.7-2.4 1.5-1.6 2.3-3.5 2.3-5.9 0-2.3-0.8-4.3-2.3-5.8-1.5-1.6-3.4-2.3-5.7-2.3s-4.2 0.8-5.7 2.4-2.3 3.5-2.3 5.8 0.8 4.3 2.3 5.8c1.5 1.6 3.4 2.4 5.7 2.4m0 5.6c-4 0-7.4-1.3-10.1-4s-4.1-5.9-4.1-9.8 1.3-7.2 4.1-9.8c2.7-2.7 6.1-4 10.1-4s7.4 1.3 10.1 4c2.7 2.6 4.1 5.9 4.1 9.8s-1.4 7.2-4.1 9.9c-2.7 2.6-6.1 3.9-10.1 3.9"/>
<polygon points="339.9 69.7 339.9 53 346.2 53 346.2 79.6 339.7 79.6 328 63.1 328 79.6 321.8 79.6 321.8 53 328.1 53"/>
<path d="m356.8 58.2v16.2h1.7c2.9 0 5.2-0.7 6.8-2.1s2.5-3.4 2.5-6-0.8-4.6-2.5-6c-1.6-1.4-3.9-2.1-6.8-2.1h-1.7zm-6.2 21.4v-26.6h8.6c4.5 0 8.1 1.2 10.8 3.5 2.7 2.4 4 5.6 4 9.6 0 4.3-1.3 7.6-4.1 10-2.7 2.4-6.4 3.5-11.2 3.5h-8.1z"/>
<path d="m390.9 74.5c2.3 0 4.1-0.8 5.7-2.4 1.5-1.6 2.3-3.5 2.3-5.9 0-2.3-0.8-4.3-2.3-5.8-1.5-1.6-3.4-2.3-5.7-2.3s-4.1 0.8-5.6 2.4-2.3 3.5-2.3 5.8 0.8 4.3 2.3 5.8c1.4 1.6 3.3 2.4 5.6 2.4m0 5.6c-4 0-7.4-1.3-10.1-4s-4.1-5.9-4.1-9.8 1.3-7.2 4-9.8c2.7-2.7 6.1-4 10.1-4s7.4 1.3 10.1 4c2.7 2.6 4.1 5.9 4.1 9.8s-1.4 7.2-4.1 9.9c-2.6 2.6-6 3.9-10 3.9"/>
<polygon points="427.2 69.7 427.2 53 433.5 53 433.5 79.6 427 79.6 415.3 63.1 415.3 79.6 409.1 79.6 409.1 53 415.4 53"/>
</g>
</g>
</svg>
