<?xml version="1.0" encoding="UTF-8" standalone="no"?>
<!-- Created with Inkscape (http://www.inkscape.org/) -->

<svg xmlns:dc="http://purl.org/dc/elements/1.1/" xmlns:cc="http://creativecommons.org/ns#" xmlns:rdf="http://www.w3.org/1999/02/22-rdf-syntax-ns#" xmlns:svg="http://www.w3.org/2000/svg" xmlns="http://www.w3.org/2000/svg" xmlns:sodipodi="http://sodipodi.sourceforge.net/DTD/sodipodi-0.dtd" xmlns:inkscape="http://www.inkscape.org/namespaces/inkscape" width="250" height="91" viewBox="0 0 250 91" id="svg2" version="1.1" inkscape:version="0.91 r13725" sodipodi:docname="tfl.svg">
  <defs id="defs4" />
  <sodipodi:namedview id="base" pagecolor="#ffffff" bordercolor="#666666" borderopacity="1.0" inkscape:pageopacity="0.0" inkscape:pageshadow="2" inkscape:zoom="1.9799" inkscape:cx="81.884" inkscape:cy="28.488" inkscape:document-units="px" inkscape:current-layer="layer1" showgrid="true" inkscape:window-width="1280" inkscape:window-height="751" inkscape:window-x="0" inkscape:window-y="1" inkscape:window-maximized="1" units="px">
    <inkscape:grid type="xygrid" id="grid5735" />
  </sodipodi:namedview>
  <metadata id="metadata7">
    <rdf:RDF>
      <cc:Work rdf:about="">
        <dc:format>image/svg+xml</dc:format>
        <dc:type rdf:resource="http://purl.org/dc/dcmitype/StillImage" />
        <dc:title></dc:title>
      </cc:Work>
    </rdf:RDF>
  </metadata>
  <g inkscape:label="Layer 1" inkscape:groupmode="layer" id="layer1" transform="translate(0,-961.4)">
    <rect style="opacity:0.001;fill:#ffffff;fill-opacity:1;stroke:none;stroke-width:2.5;stroke-linecap:round;stroke-linejoin:round;stroke-miterlimit:4;stroke-dasharray:none;stroke-dashoffset:0;stroke-opacity:1" id="rect4175" width="250" height="91" x="0" y="961.4" />
    <path style="fill:#ffffff;fill-opacity:1" d="" id="path4239" inkscape:connector-curvature="0" />
    <g id="g4272" transform="matrix(0.46072,0,0,0.46072,25.001,976.31)" style="fill:#ffffff">
      <rect id="rect4186" height="2.7" width="245.4" y="93" x="188.1" style="fill:#ffffff" />
      <path id="path4188" d="m 81.8,0 c -36.6,0 -66.4,29.7 -66.4,66.4 0,36.7 29.7,66.4 66.4,66.4 36.7,0 66.4,-29.7 66.4,-66.4 0,-36.7 -29.7,-66.4 -66.4,-66.4 m 42.9,66.4 c 0,23.7 -19.2,42.8 -42.9,42.8 -23.6,0 -42.8,-19.1 -42.8,-42.8 0,-23.7 19.2,-42.8 42.8,-42.8 23.7,0 42.9,19.1 42.9,42.8" inkscape:connector-curvature="0" style="fill:#ffffff" />
      <rect id="rect4190" height="26.9" width="163.4" y="53" x="0" style="fill:#ffffff" />
      <polygon id="polygon4192" points="195.4,113.2 195.4,115.9 191.2,115.9 191.2,118.9 197,118.9 197,121.7 188.1,121.7 188.1,108.2 196.5,108.2 196.5,110.9 191.2,110.9 191.2,113.2 " style="fill:#ffffff" />
      <polygon id="polygon4194" points="210.8,108.2 206,121.7 202.6,121.7 197.8,108.2 201.3,108.2 204.3,117.3 207.3,108.2 " style="fill:#ffffff" />
      <polygon id="polygon4196" points="219.6,113.2 219.6,115.9 215.4,115.9 215.4,118.9 221.1,118.9 221.1,121.7 212.3,121.7 212.3,108.2 220.7,108.2 220.7,110.9 215.4,110.9 215.4,113.2 " style="fill:#ffffff" />
      <path id="path4198" d="m 226,110.7 0,3.2 1.1,0 c 0.6,0 1.1,-0.2 1.4,-0.5 0.3,-0.3 0.5,-0.7 0.5,-1.2 0,-0.4 -0.2,-0.8 -0.5,-1.1 -0.3,-0.3 -0.8,-0.4 -1.3,-0.4 l -1.2,0 z m 3.9,11 -3.4,-5.1 -0.5,0 0,5.1 -3.2,0 0,-13.6 4.6,0 c 1.5,0 2.7,0.4 3.5,1.1 0.8,0.7 1.3,1.7 1.3,3 0,0.9 -0.2,1.6 -0.7,2.2 -0.4,0.6 -1,1.1 -1.8,1.4 l 3.9,5.8 -3.7,0 z" inkscape:connector-curvature="0" style="fill:#ffffff" />
      <polygon id="polygon4200" points="240.3,113.2 242.9,108.2 246.5,108.2 241.9,116.2 241.9,121.7 238.7,121.7 238.7,116.2 234.1,108.2 237.7,108.2 " style="fill:#ffffff" />
      <path id="path4202" d="m 261.1,117.4 c 0,1.4 -0.4,2.5 -1.2,3.4 -0.8,0.8 -1.9,1.2 -3.4,1.2 -0.8,0 -1.6,-0.2 -2.2,-0.6 -0.6,-0.4 -1.1,-1 -1.6,-1.9 l 2.5,-1.4 c 0.3,0.7 0.8,1 1.3,1 0.9,0 1.4,-0.7 1.4,-2 l 0,-9 3.2,0 0,9.3 z" inkscape:connector-curvature="0" style="fill:#ffffff" />
      <path id="path4204" d="m 270.1,119.1 c 1.2,0 2.1,-0.4 2.9,-1.2 0.8,-0.8 1.2,-1.8 1.2,-3 0,-1.2 -0.4,-2.2 -1.2,-3 -0.8,-0.8 -1.7,-1.2 -2.9,-1.2 -1.1,0 -2.1,0.4 -2.9,1.2 -0.8,0.8 -1.2,1.8 -1.2,3 0,1.2 0.4,2.2 1.2,3 0.8,0.8 1.7,1.2 2.9,1.2 m 0,2.9 c -2,0 -3.8,-0.7 -5.1,-2 -1.4,-1.4 -2.1,-3 -2.1,-5 0,-2 0.7,-3.6 2.1,-5 1.4,-1.3 3.1,-2 5.1,-2 2.1,0 3.8,0.7 5.2,2 1.4,1.3 2.1,3 2.1,5 0,2 -0.7,3.7 -2.1,5 -1.5,1.3 -3.2,2 -5.2,2" inkscape:connector-curvature="0" style="fill:#ffffff" />
      <path id="path4206" d="m 291.4,115.4 c 0,1.3 -0.2,2.3 -0.4,3 -0.3,0.7 -0.7,1.3 -1.2,1.9 -0.5,0.6 -1.2,1 -2,1.2 -0.8,0.3 -1.7,0.4 -2.7,0.4 -0.9,0 -1.8,-0.1 -2.5,-0.4 -0.7,-0.3 -1.4,-0.7 -1.9,-1.3 -0.5,-0.6 -0.9,-1.2 -1.2,-1.9 -0.3,-0.7 -0.4,-1.7 -0.4,-3 l 0,-7.3 3.2,0 0,7.2 c 0,1.3 0.3,2.2 0.8,2.9 0.5,0.6 1.2,1 2.2,1 2,0 3,-1.3 3,-3.8 l 0,-7.2 3.2,0 0,7.3 z" inkscape:connector-curvature="0" style="fill:#ffffff" />
      <path id="path4208" d="m 296.7,110.7 0,3.2 1.1,0 c 0.6,0 1,-0.2 1.4,-0.5 0.3,-0.3 0.5,-0.7 0.5,-1.2 0,-0.4 -0.2,-0.8 -0.5,-1.1 -0.3,-0.3 -0.8,-0.4 -1.3,-0.4 l -1.2,0 z m 4,11 -3.4,-5.1 -0.6,0 0,5.1 -3.2,0 0,-13.6 4.6,0 c 1.5,0 2.7,0.4 3.5,1.1 0.8,0.7 1.3,1.7 1.3,3 0,0.9 -0.2,1.6 -0.6,2.2 -0.4,0.6 -1,1.1 -1.8,1.4 l 3.9,5.8 -3.7,0 z" inkscape:connector-curvature="0" style="fill:#ffffff" />
      <polygon id="polygon4210" points="314.9,116.7 314.9,108.2 318.1,108.2 318.1,121.7 314.8,121.7 308.8,113.3 308.8,121.7 305.6,121.7 305.6,108.2 308.9,108.2 " style="fill:#ffffff" />
      <polygon id="polygon4212" points="327.7,113.2 327.7,115.9 323.5,115.9 323.5,118.9 329.2,118.9 329.2,121.7 320.3,121.7 320.3,108.2 328.8,108.2 328.8,110.9 323.5,110.9 323.5,113.2 " style="fill:#ffffff" />
      <polygon id="polygon4214" points="336.3,113.2 338.9,108.2 342.5,108.2 337.8,116.2 337.8,121.7 334.7,121.7 334.7,116.2 330,108.2 333.7,108.2 " style="fill:#ffffff" />
      <polygon id="polygon4216" points="349.7,108.2 352.7,108.2 356.6,113.3 360.4,108.2 363.6,108.2 363.6,121.7 360.4,121.7 360.4,113.3 356.6,118.1 352.9,113.3 352.9,121.7 349.7,121.7 " style="fill:#ffffff" />
      <path id="path4218" d="m 371.6,111.9 -1.5,4.6 3,0 -1.5,-4.6 z m 3.3,9.8 -0.8,-2.5 -4.8,0 -0.8,2.5 -3.5,0 5,-13.6 3.2,0 5.1,13.6 -3.4,0 z" inkscape:connector-curvature="0" style="fill:#ffffff" />
      <polygon id="polygon4220" points="389.6,108.2 389.6,111 385.9,111 385.9,121.7 382.7,121.7 382.7,111 379.1,111 379.1,108.2 " style="fill:#ffffff" />
      <polygon id="polygon4222" points="400.9,108.2 400.9,111 397.2,111 397.2,121.7 394.1,121.7 394.1,111 390.4,111 390.4,108.2 " style="fill:#ffffff" />
      <polygon id="polygon4224" points="409.8,113.2 409.8,115.9 405.6,115.9 405.6,118.9 411.3,118.9 411.3,121.7 402.4,121.7 402.4,108.2 410.9,108.2 410.9,110.9 405.6,110.9 405.6,113.2 " style="fill:#ffffff" />
      <path id="path4226" d="m 416.2,110.7 0,3.2 1.1,0 c 0.6,0 1,-0.2 1.4,-0.5 0.3,-0.3 0.5,-0.7 0.5,-1.2 0,-0.4 -0.2,-0.8 -0.5,-1.1 -0.3,-0.3 -0.7,-0.4 -1.3,-0.4 l -1.2,0 z m 3.9,11 -3.4,-5.1 -0.6,0 0,5.1 -3.1,0 0,-13.6 4.6,0 c 1.5,0 2.7,0.4 3.5,1.1 0.8,0.7 1.2,1.7 1.2,3 0,0.9 -0.2,1.6 -0.6,2.2 -0.4,0.6 -1,1.1 -1.8,1.4 l 3.9,5.8 -3.7,0 z" inkscape:connector-curvature="0" style="fill:#ffffff" />
      <path id="path4228" d="m 424.5,119 2.4,-1.4 c 0.5,1.1 1.2,1.6 2.3,1.6 0.6,0 1,-0.1 1.3,-0.4 0.3,-0.2 0.5,-0.6 0.5,-1 0,-0.4 -0.1,-0.6 -0.4,-0.9 -0.3,-0.3 -0.9,-0.6 -2.1,-1.1 -1.3,-0.6 -2.2,-1.2 -2.7,-1.8 -0.5,-0.6 -0.7,-1.4 -0.7,-2.3 0,-1.1 0.4,-2 1.3,-2.8 0.8,-0.8 1.9,-1.1 3.2,-1.1 1.9,0 3.2,0.7 4.1,2.2 l -2.2,1.4 c -0.4,-0.7 -1,-1.1 -1.9,-1.1 -0.4,0 -0.8,0.1 -1,0.3 -0.3,0.2 -0.4,0.5 -0.4,0.8 0,0.3 0.2,0.6 0.4,0.9 0.3,0.2 0.9,0.6 1.8,1 1.4,0.6 2.3,1.3 2.9,1.9 0.6,0.6 0.8,1.5 0.8,2.4 0,1.2 -0.5,2.2 -1.5,3 -1,0.8 -2.2,1.2 -3.6,1.2 -1.9,0.2 -3.5,-0.8 -4.5,-2.8" inkscape:connector-curvature="0" style="fill:#ffffff" />
      <polygon id="polygon4230" points="208.7,10.7 208.7,16.3 201.5,16.3 201.5,37.3 195.3,37.3 195.3,16.3 188.1,16.3 188.1,10.7 " style="fill:#ffffff" />
      <path id="path4232" d="m 218,15.7 0,6.3 2.2,0 c 1.1,0 2.1,-0.3 2.7,-0.9 0.7,-0.6 1,-1.4 1,-2.3 0,-0.9 -0.3,-1.6 -1,-2.2 -0.6,-0.6 -1.5,-0.9 -2.6,-0.9 l -2.3,0 z m 7.8,21.6 -6.6,-10.1 -1.2,0 0,10.1 -6.3,0 0,-26.6 9.1,0 c 3,0 5.3,0.7 6.9,2.2 1.6,1.4 2.5,3.4 2.5,5.9 0,1.7 -0.4,3.1 -1.3,4.4 -0.8,1.2 -2.1,2.2 -3.6,2.8 l 7.6,11.4 -7.1,0 z" inkscape:connector-curvature="0" style="fill:#ffffff" />
      <path id="path4234" d="m 246.9,18 -3,9.1 6,0 -3,-9.1 z m 6.5,19.3 -1.6,-4.8 -9.5,0 -1.6,4.8 -6.8,0 9.8,-26.6 6.3,0 10.1,26.6 -6.7,0 z" inkscape:connector-curvature="0" style="fill:#ffffff" />
      <polygon id="polygon4236" points="281.2,27.4 281.2,10.7 287.4,10.7 287.4,37.3 280.9,37.3 269.2,20.9 269.2,37.3 263,37.3 263,10.7 269.3,10.7 " style="fill:#ffffff" />
      <path id="path4238" d="m 290.8,32.1 4.7,-2.8 c 0.9,2.2 2.4,3.2 4.4,3.2 1.1,0 1.9,-0.2 2.6,-0.7 0.6,-0.5 1,-1.1 1,-1.9 0,-0.7 -0.2,-1.3 -0.7,-1.8 -0.5,-0.5 -1.8,-1.3 -4.1,-2.3 -2.6,-1.1 -4.3,-2.3 -5.3,-3.5 -0.9,-1.2 -1.4,-2.7 -1.4,-4.4 0,-2.1 0.8,-4 2.5,-5.4 1.7,-1.5 3.8,-2.2 6.3,-2.2 3.7,0 6.4,1.5 8,4.4 l -4.3,2.8 c -0.8,-1.4 -2.1,-2.1 -3.7,-2.1 -0.8,0 -1.5,0.2 -2,0.6 -0.5,0.4 -0.8,0.9 -0.8,1.6 0,0.7 0.3,1.2 0.8,1.7 0.5,0.5 1.7,1.1 3.5,2 2.7,1.3 4.6,2.5 5.7,3.8 1.1,1.3 1.7,2.9 1.7,4.8 0,2.4 -1,4.3 -2.8,5.8 -1.9,1.5 -4.2,2.3 -7,2.3 -4.2,-0.2 -7.2,-2.1 -9.1,-5.9" inkscape:connector-curvature="0" style="fill:#ffffff" />
      <path id="path4240" d="m 319.5,15.8 0,7.7 2,0 c 1.5,0 2.6,-0.3 3.4,-1 0.8,-0.7 1.2,-1.6 1.2,-2.8 0,-1.3 -0.4,-2.2 -1.2,-2.9 -0.8,-0.7 -1.9,-1 -3.4,-1 l -2,0 z m 0,12.8 0,8.7 -6.3,0 0,-26.6 8.9,0 c 3.2,0 5.7,0.8 7.5,2.4 1.8,1.6 2.7,3.8 2.7,6.5 0,2.8 -1,5 -2.8,6.6 -1.9,1.6 -4.4,2.4 -7.6,2.4 l -2.4,0 z" inkscape:connector-curvature="0" style="fill:#ffffff" />
      <path id="path4242" d="m 349,32.2 c 2.3,0 4.1,-0.8 5.7,-2.4 1.5,-1.6 2.3,-3.5 2.3,-5.9 0,-2.3 -0.8,-4.3 -2.3,-5.9 -1.5,-1.6 -3.4,-2.3 -5.7,-2.3 -2.3,0 -4.1,0.8 -5.7,2.4 -1.5,1.6 -2.3,3.5 -2.3,5.8 0,2.3 0.8,4.3 2.3,5.9 1.6,1.6 3.5,2.4 5.7,2.4 m 0,5.6 c -4,0 -7.4,-1.3 -10.1,-4 -2.7,-2.7 -4.1,-5.9 -4.1,-9.8 0,-3.9 1.3,-7.2 4.1,-9.8 2.7,-2.7 6.1,-4 10.1,-4 4,0 7.4,1.3 10.1,4 2.7,2.6 4.1,5.9 4.1,9.8 0,3.9 -1.4,7.2 -4.1,9.9 -2.7,2.6 -6,3.9 -10.1,3.9" inkscape:connector-curvature="0" style="fill:#ffffff" />
      <path id="path4244" d="m 373,15.7 0,6.3 2.2,0 c 1.1,0 2.1,-0.3 2.7,-0.9 0.7,-0.6 1,-1.4 1,-2.3 0,-0.9 -0.3,-1.6 -1,-2.2 -0.6,-0.6 -1.5,-0.9 -2.6,-0.9 l -2.3,0 z m 7.8,21.6 -6.6,-10.1 -1.2,0 0,10.1 -6.3,0 0,-26.6 9.1,0 c 3,0 5.3,0.7 6.9,2.2 1.6,1.4 2.5,3.4 2.5,5.9 0,1.7 -0.4,3.1 -1.3,4.4 -0.8,1.2 -2,2.2 -3.6,2.8 l 7.6,11.4 -7.1,0 z" inkscape:connector-curvature="0" style="fill:#ffffff" />
      <polygon id="polygon4246" points="409.8,10.7 409.8,16.3 402.6,16.3 402.6,37.3 396.3,37.3 396.3,16.3 389.1,16.3 389.1,10.7 " style="fill:#ffffff" />
      <polygon id="polygon4248" points="188.1,79.6 188.1,53 204.9,53 204.9,58.3 194.3,58.3 194.3,62.9 202.7,62.9 202.7,68.3 194.3,68.3 194.3,79.6 " style="fill:#ffffff" />
      <path id="path4250" d="m 221.2,74.5 c 2.3,0 4.1,-0.8 5.7,-2.4 1.5,-1.6 2.3,-3.5 2.3,-5.9 0,-2.3 -0.8,-4.3 -2.3,-5.8 -1.5,-1.6 -3.4,-2.3 -5.7,-2.3 -2.3,0 -4.1,0.8 -5.7,2.4 -1.5,1.6 -2.3,3.5 -2.3,5.8 0,2.3 0.8,4.3 2.3,5.8 1.6,1.6 3.5,2.4 5.7,2.4 m 0,5.6 c -4,0 -7.4,-1.3 -10.1,-4 -2.7,-2.7 -4.1,-5.9 -4.1,-9.8 0,-3.9 1.3,-7.2 4.1,-9.8 2.7,-2.7 6.1,-4 10.1,-4 4,0 7.4,1.3 10.1,4 2.7,2.6 4.1,5.9 4.1,9.8 0,3.9 -1.4,7.2 -4.1,9.9 -2.7,2.6 -6.1,3.9 -10.1,3.9" inkscape:connector-curvature="0" style="fill:#ffffff" />
      <path id="path4252" d="m 245.2,58 0,6.3 2.2,0 c 1.1,0 2.1,-0.3 2.7,-0.9 0.7,-0.6 1,-1.4 1,-2.3 0,-0.8 -0.3,-1.6 -0.9,-2.2 -0.6,-0.6 -1.5,-0.9 -2.6,-0.9 l -2.4,0 z m 7.8,21.6 -6.6,-10.1 -1.2,0 0,10.1 -6.2,0 0,-26.6 9.1,0 c 3,0 5.3,0.7 6.9,2.2 1.6,1.4 2.5,3.4 2.5,5.9 0,1.7 -0.4,3.1 -1.3,4.4 -0.8,1.2 -2.1,2.2 -3.6,2.8 l 7.6,11.4 -7.2,0 z" inkscape:connector-curvature="0" style="fill:#ffffff" />
      <polygon id="polygon4254" points="271.3,79.6 271.3,53 277.5,53 277.5,74 287.7,74 287.7,79.6 " style="fill:#ffffff" />
      <path id="path4256" d="m 304.1,74.5 c 2.3,0 4.1,-0.8 5.7,-2.4 1.5,-1.6 2.3,-3.5 2.3,-5.9 0,-2.3 -0.8,-4.3 -2.3,-5.8 -1.5,-1.6 -3.4,-2.3 -5.7,-2.3 -2.3,0 -4.2,0.8 -5.7,2.4 -1.5,1.6 -2.3,3.5 -2.3,5.8 0,2.3 0.8,4.3 2.3,5.8 1.5,1.6 3.4,2.4 5.7,2.4 m 0,5.6 c -4,0 -7.4,-1.3 -10.1,-4 -2.7,-2.7 -4.1,-5.9 -4.1,-9.8 0,-3.9 1.3,-7.2 4.1,-9.8 2.7,-2.7 6.1,-4 10.1,-4 4,0 7.4,1.3 10.1,4 2.7,2.6 4.1,5.9 4.1,9.8 0,3.9 -1.4,7.2 -4.1,9.9 -2.7,2.6 -6.1,3.9 -10.1,3.9" inkscape:connector-curvature="0" style="fill:#ffffff" />
      <polygon id="polygon4258" points="339.9,69.7 339.9,53 346.2,53 346.2,79.6 339.7,79.6 328,63.1 328,79.6 321.8,79.6 321.8,53 328.1,53 " style="fill:#ffffff" />
      <path id="path4260" d="m 356.8,58.2 0,16.2 1.7,0 c 2.9,0 5.2,-0.7 6.8,-2.1 1.6,-1.4 2.5,-3.4 2.5,-6 0,-2.6 -0.8,-4.6 -2.5,-6 -1.6,-1.4 -3.9,-2.1 -6.8,-2.1 l -1.7,0 z m -6.2,21.4 0,-26.6 8.6,0 c 4.5,0 8.1,1.2 10.8,3.5 2.7,2.4 4,5.6 4,9.6 0,4.3 -1.3,7.6 -4.1,10 -2.7,2.4 -6.4,3.5 -11.2,3.5 l -8.1,0 z" inkscape:connector-curvature="0" style="fill:#ffffff" />
      <path id="path4262" d="m 390.9,74.5 c 2.3,0 4.1,-0.8 5.7,-2.4 1.5,-1.6 2.3,-3.5 2.3,-5.9 0,-2.3 -0.8,-4.3 -2.3,-5.8 -1.5,-1.6 -3.4,-2.3 -5.7,-2.3 -2.3,0 -4.1,0.8 -5.6,2.4 -1.5,1.6 -2.3,3.5 -2.3,5.8 0,2.3 0.8,4.3 2.3,5.8 1.4,1.6 3.3,2.4 5.6,2.4 m 0,5.6 c -4,0 -7.4,-1.3 -10.1,-4 -2.7,-2.7 -4.1,-5.9 -4.1,-9.8 0,-3.9 1.3,-7.2 4,-9.8 2.7,-2.7 6.1,-4 10.1,-4 4,0 7.4,1.3 10.1,4 2.7,2.6 4.1,5.9 4.1,9.8 0,3.9 -1.4,7.2 -4.1,9.9 -2.6,2.6 -6,3.9 -10,3.9" inkscape:connector-curvature="0" style="fill:#ffffff" />
      <polygon id="polygon4264" points="427.2,69.7 427.2,53 433.5,53 433.5,79.6 427,79.6 415.3,63.1 415.3,79.6 409.1,79.6 409.1,53 415.4,53 " style="fill:#ffffff" />
    </g>
  </g>
</svg>
