<?xml version="1.0" encoding="UTF-8"?>
<svg version="1.1" viewBox="0 0 250 91" xmlns="http://www.w3.org/2000/svg">
<defs>
<clipPath id="a">
<path d="M18.879-.005l22.246 13.113v44.413H18.879zM0 11.147v46.392h2.33l-.017-19.947.789-.477V9.295zM6.293 7.43v50.088H8.62V19.875l.776-.468V5.585zm6.381-3.776v53.882h2.333V13.611l.77-.465V1.815z" fill="#fff"/>
</clipPath>
</defs>
<g transform="translate(17.5 12.723)" fill="#fff">
<path class="tdc-logo__icon" d="m0 0h41.125v58.038h-41.125z" clip-path="url(#a)"/>
<path class="tdc-logo__text" d="m86.013 29.501v28h-6.14v-1.8a7.513 7.513 0 0 1-5.638 2.34c-5.293 0-9.512-4.373-9.512-10.318s4.219-10.317 9.512-10.317a7.377 7.377 0 0 1 5.638 2.339v-10.244zm-5.983 18.18a4.574 4.574 0 0 0-4.679-4.833 4.485 4.485 0 0 0-4.564 4.833c0 2.953 1.918 4.909 4.564 4.909a4.617 4.617 0 0 0 4.676-4.909zm7.131 0.038c0-5.944 4.219-10.317 9.512-10.317a7.377 7.377 0 0 1 5.638 2.339v-1.8h6.137v19.561h-6.137v-1.8a7.513 7.513 0 0 1-5.638 2.34c-5.293-5e-3 -9.512-4.377-9.512-10.323zm15.3-0.038a4.574 4.574 0 0 0-4.679-4.833 4.485 4.485 0 0 0-4.565 4.833c0 2.953 1.918 4.909 4.565 4.909a4.617 4.617 0 0 0 4.685-4.909zm21.866 9.167a12.3 12.3 0 0 1-4.794 0.959c-4.756 0-6.9-2.915-6.9-7.364v-7.134h-3.03v-5.369h3.03v-6.137h6.137v6.137h5.251v5.37h-5.255v7.13a1.807 1.807 0 0 0 2.033 2.033 4.142 4.142 0 0 0 2.071-0.5zm0.806-9.129c0-5.944 4.219-10.317 9.512-10.317a7.377 7.377 0 0 1 5.638 2.339v-1.8h6.137v19.561h-6.137v-1.8a7.513 7.513 0 0 1-5.638 2.34c-5.293-5e-3 -9.512-4.377-9.512-10.323zm15.3-0.038a4.574 4.574 0 0 0-4.679-4.833 4.485 4.485 0 0 0-4.564 4.833c0 2.953 1.918 4.909 4.564 4.909a4.617 4.617 0 0 0 4.683-4.909zm7.138 0.038a10.1 10.1 0 0 1 10.394-10.317c5.6 0 9.052 3.567 9.781 6.635l-5.676 1.611a4.079 4.079 0 0 0-4.066-2.838c-2.723 0-4.449 2.225-4.449 4.871 0 2.608 1.726 4.947 4.449 4.947a4.024 4.024 0 0 0 4.066-2.762l5.673 1.607c-0.729 3.068-4.181 6.559-9.7 6.559a10.122 10.122 0 0 1-10.472-10.313zm20.984-15.533a3.529 3.529 0 1 1 3.529 3.49 3.472 3.472 0 0 1-3.529-3.49zm0.384 5.753h6.137v19.561h-6.137zm22.05 18.909a12.3 12.3 0 0 1-4.794 0.959c-4.756 0-6.9-2.915-6.9-7.364v-7.134h-3.03v-5.369h3.03v-6.137h6.137v6.137h5.255v5.37h-5.255v7.13a1.807 1.807 0 0 0 2.033 2.033 4.142 4.142 0 0 0 2.071-0.5zm24.011-18.909-11.622 27.616h-6.252l3.49-8.515 0.268-0.039-0.268 0.039-8.783-19.1h6.712l5.1 11.928 4.794-11.928z"/>
</g>
</svg>
