<?xml version="1.0" encoding="UTF-8" standalone="no"?>
<!-- Created with Inkscape (http://www.inkscape.org/) -->

<svg
   xmlns:dc="http://purl.org/dc/elements/1.1/"
   xmlns:cc="http://creativecommons.org/ns#"
   xmlns:rdf="http://www.w3.org/1999/02/22-rdf-syntax-ns#"
   xmlns:svg="http://www.w3.org/2000/svg"
   xmlns="http://www.w3.org/2000/svg"
   xmlns:sodipodi="http://sodipodi.sourceforge.net/DTD/sodipodi-0.dtd"
   xmlns:inkscape="http://www.inkscape.org/namespaces/inkscape"
   width="250"
   height="91"
   viewBox="0 0 250 91"
   id="svg2"
   version="1.1"
   inkscape:version="0.92.2 (5c3e80d, 2017-08-06)"
   sodipodi:docname="thedatacity.svg">
  <defs
     id="defs4" />
  <sodipodi:namedview
     id="base"
     pagecolor="#ffffff"
     bordercolor="#666666"
     borderopacity="1.0"
     inkscape:pageopacity="0.0"
     inkscape:pageshadow="2"
     inkscape:zoom="1.9780299"
     inkscape:cx="85.284077"
     inkscape:cy="-6.2148044"
     inkscape:document-units="px"
     inkscape:current-layer="layer1"
     showgrid="false"
     inkscape:window-width="1920"
     inkscape:window-height="1001"
     inkscape:window-x="-9"
     inkscape:window-y="-9"
     inkscape:window-maximized="1"
     units="px" />
  <metadata
     id="metadata7">
    <rdf:RDF>
      <cc:Work
         rdf:about="">
        <dc:format>image/svg+xml</dc:format>
        <dc:type
           rdf:resource="http://purl.org/dc/dcmitype/StillImage" />
        <dc:title></dc:title>
      </cc:Work>
    </rdf:RDF>
  </metadata>
  <g
     inkscape:label="Layer 1"
     inkscape:groupmode="layer"
     id="layer1"
     transform="translate(0,-961.4)">
    <rect
       style="opacity:0.001;fill:#ffffff;fill-opacity:1;stroke:none;stroke-width:2.5;stroke-linecap:round;stroke-linejoin:round;stroke-miterlimit:4;stroke-dasharray:none;stroke-dashoffset:0;stroke-opacity:1"
       id="rect4175"
       width="250"
       height="91"
       x="0"
       y="961.4" />
    <path
       style="fill:#ffffff;stroke-width:0.2988691"
       d="m 158.75507,1047.5481 c -2.52143,-0.8991 -3.7667,-3.0369 -4.00631,-6.8774 -0.25386,-4.0691 0.91649,-7.0565 3.22602,-8.2347 1.28198,-0.654 5.00212,-0.8283 6.39297,-0.2995 0.68573,0.2606 0.76664,0.4536 0.76664,1.828 0,1.4577 -0.0346,1.5256 -0.67246,1.3227 -0.36986,-0.1176 -1.50802,-0.283 -2.52928,-0.3678 -1.7526,-0.1453 -1.90632,-0.105 -2.73893,0.7283 -1.02479,1.0247 -1.39582,2.7801 -1.15321,5.4557 0.32782,3.6153 1.92635,4.417 6.49613,3.2583 0.35388,-0.09 0.44831,0.2011 0.44831,1.3807 0,1.4407 -0.0376,1.5072 -1.04604,1.851 -1.40166,0.4781 -3.77405,0.4572 -5.18384,-0.046 z m -105.696594,-6.2888 v -6.4256 h -1.959024 -1.959024 l 0.0911,-1.4197 0.0911,-1.4196 h 5.230209 5.230206 l 0.0911,1.4196 0.0911,1.4197 h -1.959024 -1.959024 v 6.4256 6.4257 H 54.55285 53.058501 Z m 9.704822,6.0633 c -0.08346,-0.2176 -0.115716,-3.7554 -0.07166,-7.8618 l 0.08009,-7.4664 h 1.494343 1.494348 l 0.08517,3.0635 0.08518,3.0634 h 2.51948 2.519476 l 0.08518,-3.0634 0.08518,-3.0635 h 1.34491 1.34491 l 0.07968,7.8453 0.07968,7.8453 H 72.489957 70.99065 v -3.2876 -3.2875 h -2.530274 -2.530275 l -0.08482,3.2128 -0.08482,3.213 -1.422678,0.09 c -0.973123,0.062 -1.470633,-0.034 -1.574438,-0.3042 z m 14.709949,0.1704 c -0.291644,-0.2918 -0.24901,-14.8192 0.04485,-15.2823 0.183476,-0.289 1.394094,-0.3614 5.001481,-0.2989 l 4.759414,0.083 0.0911,1.4195 0.0911,1.4197 h -3.453368 -3.453368 v 1.6334 1.6333 l 3.063408,0.085 3.063406,0.085 v 1.3449 1.3449 l -3.063406,0.085 -3.063408,0.085 v 1.773 1.773 l 3.362278,0.084 3.362276,0.084 v 1.3448 1.345 l -4.799681,0.082 c -2.639827,0.045 -4.892552,-0.01 -5.006058,-0.1245 z m 18.991003,-7.6533 0.0796,-7.8453 3.437001,0.017 c 2.925089,0.014 3.622439,0.1134 4.682029,0.6656 2.26916,1.1826 3.21064,3.2945 3.22643,7.2375 0.0123,3.0651 -0.62033,4.9541 -2.09174,6.2461 -1.36777,1.201 -2.70098,1.5209 -6.344689,1.5228 H 96.3845 Z m 6.32215,4.5707 c 2.13879,-0.8133 2.66897,-6.3655 0.80683,-8.4497 -0.69015,-0.7725 -1.09392,-0.9427 -2.51606,-1.0606 l -1.693989,-0.1405 v 4.9684 4.9684 h 1.325459 c 0.729,0 1.66399,-0.1288 2.07776,-0.286 z m 7.06045,2.901 c 0.002,-0.2054 1.05264,-3.7359 2.33522,-7.8453 l 2.33197,-7.4717 1.53252,-0.09 1.5325,-0.089 1.23766,3.9751 c 0.68072,2.1862 1.76456,5.6396 2.40852,7.6742 0.64397,2.0346 1.17087,3.8166 1.17087,3.9601 0,0.1434 -0.73274,0.2607 -1.62832,0.2607 h -1.62832 l -0.50315,-1.7932 -0.50316,-1.7932 h -2.03723 -2.03724 l -0.50314,1.7932 -0.50316,1.7932 H 111.448 c -1.086,0 -1.60334,-0.1206 -1.60115,-0.3736 z m 7.46849,-5.9977 c 0,-0.1476 -0.90735,-3.2865 -1.0956,-3.7902 -0.13797,-0.3692 -1.29019,2.8903 -1.29419,3.6611 -4.5e-4,0.1233 0.5368,0.2243 1.19431,0.2243 0.65751,0 1.19548,-0.043 1.19548,-0.096 z m 9.17909,6.1859 c -0.11716,-0.1172 -0.21304,-3.0085 -0.21304,-6.4252 v -6.2122 l -1.86792,-0.088 -1.86793,-0.088 v -1.3449 -1.3449 h 5.37964 5.37964 v 1.3449 1.3449 l -1.86203,0.088 -1.86202,0.088 -0.0807,6.3368 -0.0807,6.337 -1.35603,0.088 c -0.74582,0.048 -1.4519,-0.011 -1.56906,-0.1245 z m 7.2587,-0.047 c 0,-0.22 0.87023,-3.0624 3.61635,-11.8122 l 1.20069,-3.8256 1.52327,0.089 1.52326,0.089 2.34282,7.4717 c 1.28856,4.1095 2.34356,7.64 2.34447,7.8454 0.001,0.2527 -0.51761,0.3736 -1.60275,0.3736 h -1.60441 l -0.50314,-1.7933 -0.50315,-1.7932 h -2.03724 -2.03723 l -0.50316,1.7932 -0.50314,1.7933 h -1.62833 c -0.89558,0 -1.62831,-0.1051 -1.62831,-0.2323 z m 7.47056,-6.2681 c -0.004,-0.7708 -1.15623,-4.0303 -1.2942,-3.6611 -0.18825,0.5037 -1.0956,3.6426 -1.0956,3.7902 0,0.053 0.53797,0.095 1.19548,0.095 0.65752,0 1.19495,-0.1007 1.19432,-0.2242 z m 27.56684,-1.329 0.0796,-7.8613 1.40992,-0.09 c 1.25982,-0.081 1.42788,-0.018 1.57857,0.5977 0.0928,0.3787 0.13073,3.9162 0.0844,7.8613 l -0.0843,7.1729 -1.57405,0.091 -1.57405,0.09 z m 9.96346,7.3282 c -0.10571,-0.2756 -0.17599,-3.1335 -0.15604,-6.3509 l 0.0362,-5.8498 -1.83435,-0.089 -1.83436,-0.089 0.0906,-1.405 0.0906,-1.4049 h 5.2302 5.23021 l 0.0911,1.4196 0.0911,1.4196 h -1.95902 -1.95903 v 6.4257 6.4257 h -1.46236 c -1.09276,0 -1.51099,-0.1267 -1.65469,-0.5012 z m 14.07559,0.302 c -0.10959,-0.1096 -0.19924,-1.5748 -0.19924,-3.256 v -3.0568 l -2.39095,-4.1743 c -1.31503,-2.2959 -2.39097,-4.4018 -2.39097,-4.6797 0,-0.4217 0.25928,-0.4903 1.56907,-0.4149 l 1.56906,0.089 1.61285,3.0795 c 0.88707,1.6936 1.71514,2.9713 1.84017,2.8392 0.12504,-0.132 0.92427,-1.5515 1.77607,-3.1541 l 1.54875,-2.9139 h 1.45006 c 0.79754,0 1.53472,0.1369 1.6382,0.3043 0.10342,0.1674 -0.96453,2.3157 -2.37331,4.7739 l -2.56145,4.4693 v 3.1463 3.1462 h -1.44453 c -0.79449,0 -1.5342,-0.089 -1.64378,-0.1993 z M 78.000139,1021.3065 c -0.08005,-0.2088 -0.109679,-4.0086 -0.06582,-8.4444 l 0.07973,-8.065 1.12076,-0.093 c 0.878006,-0.073 1.120758,-0.2183 1.120758,-0.6725 0,-0.5326 0.228339,-0.5797 2.8044,-0.5797 2.526114,0 2.819475,0.058 2.956333,0.581 0.122454,0.4682 0.46264,0.5987 1.753351,0.6724 l 1.601419,0.092 0.0837,3.8227 c 0.052,2.3724 0.1937,3.7547 0.37358,3.6435 0.17298,-0.1073 0.28986,-2.8234 0.28986,-6.7367 0,-4.4962 0.10145,-6.55728 0.32278,-6.55728 0.17753,0 1.52962,1.0238 3.00466,2.27508 1.47504,1.2516 2.73637,2.221 2.80296,2.1544 0.0667,-0.067 -0.5458,-1.8592 -1.36088,-3.98363 -0.81507,-2.12433 -1.48196,-4.03521 -1.48196,-4.24631 0,-0.28027 0.64167,-0.38379 2.38084,-0.38379 h 2.38084 l 0.0848,-3.13942 c 0.11186,-4.13946 0.65555,-4.13946 0.7674,0 l 0.0848,3.13942 h 1.31716 c 0.72444,0 1.39338,0.12334 1.48653,0.27414 0.0931,0.15069 -0.77758,2.26316 -1.934989,4.69436 -1.157391,2.43123 -2.066241,4.59313 -2.019671,4.80413 0.0477,0.2158 1.21887,-0.6286 2.67676,-1.9299 l 2.59206,-2.3136 0.023,-3.92928 0.023,-3.92922 2.09209,-1.85474 2.09209,-1.85474 v -6.10351 -6.10342 l 4.85662,0.082 4.85662,0.082 0.15989,5.37959 c 0.13998,4.70885 0.25317,5.94265 0.39761,4.3336 0.0221,-0.24657 0.32377,-0.44826 0.67032,-0.44826 0.38715,0 2.3299,-1.52577 5.03896,-3.95735 2.42489,-2.17649 4.52857,-3.88337 4.67485,-3.79298 0.14774,0.0919 0.26595,5.16411 0.26595,11.41285 v 11.24816 l 1.7185,2.6268 c 0.94518,1.4447 1.78576,2.6288 1.86794,2.6314 0.0821,0 0.14943,-7.62753 0.14943,-16.95602 v -16.96081 l 0.97132,-0.093 0.97134,-0.0941 v -3.14412 c 0,-2.38212 0.0905,-3.11403 0.37359,-3.02024 0.25843,0.0854 0.39982,1.06066 0.45874,3.16305 l 0.0851,3.03917 h 1.33445 1.33446 v 1.75833 c 0,1.50706 0.0855,1.78077 0.59773,1.91472 0.53564,0.14007 0.59774,0.40764 0.59774,2.57526 0,1.95082 0.0868,2.41889 0.44831,2.41889 0.36083,0 0.44831,0.46281 0.44831,2.37205 v 2.37193 l 0.97131,0.0941 0.97133,0.0941 0.14944,7.47171 c 0.1383,6.91568 0.20385,7.63298 0.8807,9.63848 0.40222,1.1919 0.80569,2.1666 0.89661,2.1663 0.091,-3e-4 0.60243,-0.6421 1.13665,-1.4258 l 0.97134,-1.4253 v -3.95369 -3.95389 h 1.03294 1.03294 l 0.0877,-2.16685 0.0877,-2.16685 1.12077,-0.093 1.12075,-0.093 v -3.12004 c 0,-2.57419 0.0785,-3.12005 0.44832,-3.12005 0.37003,0 0.4483,0.54784 0.4483,3.1381 v 3.13811 h 1.925 c 1.05876,0 2.00993,0.13745 2.11373,0.30532 0.10373,0.16799 -0.43305,1.17668 -1.19295,2.2415 l -1.38164,1.93627 h 2.40605 2.40606 v 5.84537 c 0,3.8209 0.10352,5.7815 0.29886,5.6609 0.16439,-0.1018 0.29888,-1.32 0.29888,-2.7075 0,-1.3876 0.1044,-2.5227 0.23204,-2.5227 0.12762,0 2.71658,0.9956 5.75322,2.2124 l 5.52119,2.2125 v 8.3226 8.3227 l -10.83171,0.079 -10.83171,0.079 -0.52531,-1.8717 -0.52531,-1.8716 -0.14944,1.7931 -0.14943,1.7933 -34.15468,0.077 c -27.378335,0.061 -34.183579,0 -34.300254,-0.3033 z m 2.255423,-8.141 v -7.6213 H 79.508388 78.76122 v 7.6213 7.6211 h 0.747168 0.747174 z m 8.347329,5.3049 c -0.03507,-3.8683 -0.02166,-3.8656 -3.511559,-0.6922 -1.673405,1.5217 -3.042554,2.8211 -3.042554,2.8875 0,0.066 1.4794,0.1209 3.287558,0.1209 h 3.287562 l -0.02103,-2.3162 z m 14.366719,2.2138 c 0,-0.1614 -5.09655,-13.4293 -5.26044,-13.6945 -0.46185,-0.7473 -1.64063,0.9892 -4.04843,5.9635 -1.96293,4.0554 -2.64589,5.7719 -2.64589,6.6499 v 1.1835 h 5.97737 c 3.28757,0 5.97739,-0.046 5.97739,-0.1028 z m 12.38812,-0.1474 c -1.50689,-1.326 -10.92271,-9.0151 -11.0395,-9.0151 -0.0843,0 -0.15314,2.0846 -0.15314,4.6324 v 4.6325 h 5.73829 c 3.15605,0 5.61051,-0.1123 5.45435,-0.2498 z m 11.81355,-0.1238 c -0.009,-0.5259 -8.86609,-31.9105 -9.05969,-32.1041 -0.70858,-0.7086 -0.79625,1.09218 -0.79625,16.3565 v 16.1212 h 4.93132 c 3.74942,0 4.92973,-0.089 4.92462,-0.3736 z m 4.87469,-6.0321 -0.0633,-6.4057 -1.80421,-2.7845 -1.80419,-2.7845 -3e-4,9.1901 -4.1e-4,9.1903 h 1.86794 1.86793 z m 8.28228,6.2484 c 0,-0.086 -0.7206,-1.2335 -1.60134,-2.549 l -1.60133,-2.3918 -1.17751,1.5777 c -0.64763,0.8678 -1.48283,2.0149 -1.856,2.549 l -0.67852,0.9714 h 3.45736 c 1.90154,0 3.45734,-0.072 3.45734,-0.1573 z m 5.37964,-2.7228 c 0,-2.5404 -0.14507,-3.3418 -1.22955,-6.7921 l -1.22955,-3.912 -0.71161,0.8896 c -0.69541,0.869 -0.71165,1.0237 -0.7131,6.7919 l -0.001,5.9027 h 1.94265 1.94265 z m 23.01292,-4.4598 c 0,-5.7928 -0.0788,-7.2924 -0.37358,-7.1148 -0.29221,0.1763 -18.2192,13.9093 -18.72914,14.3477 -0.0685,0.059 4.20161,0.1073 9.48909,0.1073 h 9.61363 z m -80.79752,0.6249 c 0.0256,0 -0.507096,-1.9261 -1.183783,-4.2684 l -1.230338,-4.259 h -2.178499 -2.1785 v 7.3558 7.3555 l 3.362277,-3.0872 c 1.849253,-1.698 3.383232,-3.0914 3.408843,-3.0967 z m 28.42576,-16.75888 -0.0797,-7.63411 -6.0521,5.44843 -6.0521,5.44846 0.004,4.8006 0.004,4.8007 6.04811,4.9919 6.04813,4.9918 0.0798,-7.607 c 0.0439,-4.1838 0.0439,-11.0422 0,-15.24078 z m 41.61247,15.84188 c 4.68477,-3.5893 8.883,-6.8247 9.32941,-7.1897 l 0.81163,-0.6636 -4.5475,-1.8221 c -2.50112,-1.0021 -4.61474,-1.822 -4.69693,-1.8218 -0.0821,10e-5 -0.10605,0.9846 -0.053,2.1878 0.10867,2.4644 -0.25867,3.1061 -1.58688,2.7728 l -0.75105,-0.1885 v -5.6728 -5.67277 l -2.31624,0.0109 -2.31623,0.0109 -1.56907,2.21194 -1.56905,2.2118 v 10.36993 c 0,8.2517 0.0763,10.3106 0.37357,10.0793 0.20547,-0.1599 4.20659,-3.2275 8.89136,-6.8167 z m -23.17411,4.1979 c 0.91055,-1.2313 1.65554,-2.3271 1.65554,-2.4352 0,-0.3442 -3.12867,-5.1589 -3.36228,-5.1742 -0.12327,-0.01 -0.22414,2.2045 -0.22414,4.9167 0,2.7123 0.062,4.9314 0.13765,4.9314 0.0757,0 0.88268,-1.0075 1.79323,-2.2387 z m 6.07642,-4.5607 -0.0872,-2.3162 -1.55012,2.1978 -1.55012,2.1978 1.55012,2.334 1.55012,2.334 0.0872,-2.2154 c 0.0481,-1.2187 0.0481,-3.258 0,-4.532 z m -37.60251,1.6438 -0.007,-3.96 -2.10614,-1.7471 c -1.158369,-0.9608 -2.15905,-1.6942 -2.22373,-1.6295 -0.12616,0.1262 4.06696,11.2967 4.2405,11.2967 0.057,0 0.10051,-1.782 0.0966,-3.9601 z m 44.53201,-4.9313 c -0.006,-8.5834 -0.007,-8.5916 -0.59109,-7.8452 -0.53702,0.6864 -0.58499,1.2542 -0.5911,6.9969 -0.005,5.0396 0.0908,6.559 0.49623,7.8454 0.27659,0.8775 0.54557,1.5953 0.59775,1.5953 0.0522,0 0.0918,-3.8666 0.0882,-8.5924 z m -57.67509,6.0345 c 0,-1.43 -0.10969,-2.1914 -0.29887,-2.0745 -0.47314,0.2924 -0.30129,4.3336 0.18429,4.3336 0.063,0 0.11458,-1.0166 0.11458,-2.2591 z m 33.29681,-20.50707 c -2.23915,-3.34101 -4.01139,-5.87283 -3.93827,-5.62627 0.0731,0.24656 1.86941,6.64654 3.99179,14.22224 l 3.85888,13.7739 0.0794,-8.1477 0.0794,-8.1478 z m -29.29977,14.71477 c -0.0691,-0.073 -0.79488,0.5278 -1.61297,1.3336 -1.46405,1.4421 -1.48722,1.4935 -1.47215,3.2696 l 0.0154,1.8044 1.59766,-3.138 c 0.87871,-1.7261 1.54116,-3.1974 1.47213,-3.2696 z m 44.98845,1.6186 1.82225,-2.5476 v -4.3638 -4.3638 l -3.88339,-12.11467 c -2.13587,-6.66307 -3.9515,-12.18275 -4.03474,-12.26603 -0.0833,-0.0832 -0.15132,7.05355 -0.15132,15.85939 v 16.01071 l 2.08706,3.1667 c 1.14788,1.7415 2.14349,3.1666 2.21247,3.1666 0.069,0 0.94542,-1.1464 1.94767,-2.5475 z m -50.479832,-2.2344 v -3.5865 h -1.0809 c -0.885135,0 -1.054773,0.096 -0.936646,0.5232 1.118414,4.055 1.874855,6.6497 1.938617,6.6497 0.04339,0 0.07893,-1.6139 0.07893,-3.5864 z m 57.023212,-3.3544 -0.0887,-1.8351 -0.84825,1.1151 -0.84824,1.1149 0.84824,2.7499 0.84825,2.75 0.0887,-2.0297 c 0.0488,-1.1165 0.0488,-2.8557 0,-3.8651 z m -49.68916,0.3397 c 0.31546,-0.6997 0.42344,-1.2846 0.26225,-1.4209 -0.1507,-0.1275 -1.1482,-0.9564 -2.21666,-1.8419 -1.06846,-0.8855 -2.17801,-1.8064 -2.46567,-2.0461 -0.49493,-0.4129 -0.52302,-0.1437 -0.52302,5.0107 v 5.4471 l 2.20342,-1.9799 c 1.27354,-1.1442 2.42973,-2.4816 2.73968,-3.169 z m 7.31053,-0.7211 c 0,-2.0547 -0.10093,-3.7295 -0.22415,-3.7216 -0.12329,0.01 -1.16091,0.8833 -2.30582,1.9457 l -2.08166,1.9316 1.182261,0.9682 c 0.650239,0.5324 1.586979,1.3341 2.081669,1.7813 0.49468,0.4471 1.00026,0.8171 1.12355,0.8219 0.12328,0 0.22415,-1.6725 0.22415,-3.7271 z m 39.44618,0.6154 c -0.002,-0.1742 -0.19523,-0.9217 -0.42831,-1.6614 l -0.42378,-1.345 -0.0109,2.2416 c -0.009,2.0339 0.0302,2.1877 0.42832,1.6614 0.24133,-0.3192 0.43675,-0.7227 0.43426,-0.8966 z M 84.365014,1004.43 c -0.616418,-0.064 -1.6251,-0.064 -2.241518,0 -0.616418,0.064 -0.112076,0.1172 1.12076,0.1172 1.232834,0 1.737176,-0.053 1.120758,-0.1172 z m 16.512506,-8.61526 c 0,-0.0733 -1.465569,-0.13307 -3.25684,-0.13307 h -3.25685 l 1.26028,3.21288 c 0.69315,1.76695 1.35338,3.46325 1.46716,3.76945 0.1562,0.4202 0.64552,-0.3346 1.99659,-3.07973 0.98432,-1.99994 1.78966,-3.69631 1.78966,-3.76953 z m 46.92245,1.38887 c 0,-1.9204 -0.0562,-2.11968 -0.59773,-2.11968 -0.55639,0 -0.59773,0.19928 -0.59773,2.87962 v 2.87955 l 0.59773,-0.76 c 0.47011,-0.59753 0.59773,-1.21233 0.59773,-2.87949 z m -36.507,-4.20545 5.12574,-4.62623 v -5.46057 -5.46069 h -4.03473 -4.03472 l -0.0187,5.9027 -0.0187,5.90271 -2.07339,1.7825 -2.07339,1.78262 v 3.24514 3.24533 l 1.00106,-0.84358 c 0.5506,-0.46405 3.30766,-2.92551 6.12682,-5.46993 z m 16.1839,-3.60189 v -9.87177 l -4.16331,3.77744 -4.16333,3.77755 4.06161,6.09432 c 2.23387,3.35184 4.10737,6.09425 4.16331,6.09425 0.056,0 0.10176,-4.4423 0.10176,-9.87179 z m 22.3831,7.03263 0.96583,-1.34497 h -1.06461 c -1.06251,0 -1.06462,0 -1.06462,1.34497 0,0.73969 0.0444,1.34483 0.0987,1.34483 0.0543,0 0.5334,-0.60514 1.06462,-1.34483 z m -8.93399,-4.91241 v -5.06189 l -0.97132,-0.0941 -0.97132,-0.0941 -0.0892,-2.23777 c -0.0627,-1.57261 -0.21819,-2.30999 -0.52302,-2.48049 -0.32241,-0.18047 -0.43378,-0.85295 -0.43378,-2.61894 0,-2.17682 -0.0502,-2.3761 -0.59774,-2.3761 -0.53133,0 -0.59773,-0.19917 -0.59773,-1.79313 v -1.79323 h -1.8252 c -1.61563,0 -1.80211,0.0602 -1.6241,0.523 0.11061,0.28761 1.83255,5.60001 3.82653,11.8053 1.99398,6.2053 3.66626,11.2823 3.71618,11.2823 0.0499,0 0.0908,-2.27782 0.0908,-5.0618 z m 11.73062,1.03364 c 0.61641,-0.88797 1.12075,-1.68982 1.12075,-1.78186 0,-0.0919 -1.14317,-0.16732 -2.54038,-0.16732 h -2.5404 v 1.79323 1.79323 l 1.41964,-0.0109 c 1.37582,-0.0109 1.45421,-0.0613 2.54039,-1.6259 z"
       id="path1565"
       inkscape:connector-curvature="0" />
  </g>
</svg>
