<?xml version="1.0" encoding="UTF-8"?>
<svg version="1.1" viewBox="0 0 250 91" xmlns="http://www.w3.org/2000/svg">
	<g transform="matrix(.53406 0 0 .53406 -53.201 23.022)" fill="#fff" stroke-width=".10139">
		<path d="m235.04 6.876c-2.8387 0.03414-5.6652 1.9433-6.2188 6.2539 0.0199 2.7221 0.10305 7.4411 0.0644 11.049-5.2034-0.17541-10.357-0.15263-10.383 5.9863-0.0262 6.139 7.2721 5.7405 10.395 5.7773 0.0465 11.72-0.0131 18.14-0.0352 30.953 7e-3 15.935 14.067 21.416 27.094 21.43 0.0661-3.7179-0.0504-7.5781 0.041-11.67-6.5622-0.18356-13.399-1.0662-14.561-10.785 0.0749-10.109 0.0954-20.272 0.14453-30.199 6.9616 0.03477 6.811-0.1133 9.8711 0.10352 7.0874-1.6779 5.8189-10.982-0.10352-11.611-2.8791-0.09966-8.2967-0.1237-9.9043-0.04297 0.20532-3.1509-0.13463-8.5091-6e-3 -10.912 0.0498-4.0031-3.1812-6.3707-6.3984-6.332zm60.082 13.926c-7.478-0.01672-15.304 2.6409-22.014 9.5664 0.12904-7.5404-11.265-8.5744-11.695 0.14844-0.0331 9.7993-0.13086 56.765-0.13086 76.93 3.4442 0.1072 7.6641 0.0286 11.691 0.0762 0-7.7742-0.14273-21.624-0.0488-28.578 12.722 13.119 33.42 12.263 45.578 0.52344 13.055-12.093 13.503-35.801 0.62304-48.723-5.3497-5.4787-14.389-9.9219-24.004-9.9434zm71.75 0.10156c-7.478-0.01672-15.304 2.6409-22.014 9.5664 0.12904-7.5404-11.265-8.5744-11.695 0.14844-0.0331 9.7993-0.13086 56.765-0.13086 76.93 3.4442 0.10719 7.6641 0.0286 11.691 0.0762 0-7.7742-0.14273-21.624-0.0488-28.578 12.722 13.119 33.42 12.263 45.578 0.52344 13.055-12.093 13.503-35.801 0.62304-48.723-5.3497-5.4787-14.389-9.9219-24.004-9.9434zm-72.113 11.119c10.738 0.08215 19.159 7.5634 21.357 18.438 2.7492 12.345-6.4273 25.406-18.949 26.506-9.6269 1.2436-18.673-4.1266-22.979-14.373-4.7427-12.837 2.1057-26.12 14.391-29.828 2.1228-0.51762 4.1911-0.7574 6.1797-0.74219zm71.75 0.10352c10.738 0.08215 19.159 7.5615 21.357 18.436 2.7492 12.345-6.4273 25.406-18.949 26.506-9.6269 1.2436-18.675-4.1266-22.98-14.373-4.7427-12.837 2.1077-26.12 14.393-29.828 2.1228-0.51762 4.1911-0.75545 6.1797-0.74023z"/>
		<path d="m435-23.446c-3.6758-0.04135-7.6013 1.0116-11.248 3.9609 2.9492 1.387 5.2081 2.7265 7.5625 5.8477 3.9197-2.5386 11.753-5.2503 17.525-4.2031-2.2825-2.4289-7.7135-5.5365-13.84-5.6055zm-32.172 0.23047c-6.5452 0.04636-13.214 1.8373-19.5 5.1191 14.434 3.4313 26.212 16.454 27.613 33.473 5.6833-11.443 8.3685-18.881 18.209-26.836-7.4554-8.1659-16.756-11.824-26.322-11.756zm4.3106 32.01c-2.6992 5.7094-8.4502 13.398-13.639 17.838 4.0809 4.5978 8.4016 9.3897 10.125 21.129 0.78958-5.6802 2.963-19.484 5.752-26.283-0.37208-4.086-1.0891-7.7647-2.2383-12.684z" opacity=".65161"/>
	</g>
</svg>
