<?xml version="1.0" encoding="UTF-8"?>
<svg version="1.1" viewBox="0 0 250 91" xmlns="http://www.w3.org/2000/svg" xmlns:cc="http://creativecommons.org/ns#" xmlns:dc="http://purl.org/dc/elements/1.1/" xmlns:rdf="http://www.w3.org/1999/02/22-rdf-syntax-ns#">
<path d="m61.637 30.861 10.543 16.07 4.9805-7.5898-5.5645-8.4805h-9.959zm20.502 16.07-4.9785 7.5879 5.5645 8.4824h9.959l-10.545-16.07z" fill="#fff" stroke-width="1.028"/>
<path d="m133.25 39.374c-1.3806-4.94e-4 -2.7407 0.34154-3.9559 0.99534-1.2162 0.65384-2.2494 1.5988-3.008 2.7501-0.66-1.0024-1.5287-1.8506-2.5485-2.4857-1.0188-0.6352-2.164-1.0425-3.3565-1.1938-1.1925-0.15133-2.4036-0.04313-3.5494 0.31718-1.1463 0.3603-2.2007 0.96416-3.0907 1.7699v-1.5096h-8.333v22.985h8.333v-13.253c-0.0186-0.3775 0.0398-0.75478 0.17168-1.1089 0.1319-0.35426 0.33463-0.67809 0.59575-0.95176 0.26112-0.27377 0.57519-0.49161 0.92328-0.64057 0.34809-0.14886 0.72281-0.22565 1.1015-0.22565s0.75355 0.07679 1.1015 0.22565c0.34789 0.14896 0.66247 0.3668 0.92359 0.64057 0.26112 0.27366 0.46365 0.5975 0.59524 0.95176 0.13261 0.35416 0.19018 0.73145 0.17168 1.1089v13.253h8.3333v-13.253c0.0175-0.72826 0.32075-1.4205 0.84299-1.9293 0.52224-0.50867 1.2234-0.79344 1.9533-0.79344s1.431 0.28477 1.9543 0.79344c0.52224 0.50878 0.82449 1.2011 0.84196 1.9293v13.253h8.3333v-15.304c0-2.2075-0.87897-4.3246-2.4426-5.8856-1.5647-1.561-3.6866-2.4379-5.8989-2.4379" fill="#fff" stroke-width="1.028"/>
<path d="m156.49 56.215c-0.93141-0.0043-1.8412-0.28405-2.6143-0.80382-0.77206-0.51978-1.3735-1.2564-1.7271-2.1166-0.35364-0.86036-0.44411-1.806-0.25906-2.7175 0.18402-0.91146 0.63533-1.748 1.2953-2.404 0.66102-0.65599 1.5009-1.1021 2.4149-1.282 0.91495-0.1798 1.8618-0.08533 2.7222 0.2715 0.86047 0.35694 1.5965 0.96008 2.1136 1.7336 0.51711 0.7735 0.79365 1.6825 0.79365 2.6124-6e-3 1.2502-0.50785 2.4472-1.3961 3.3292-0.88822 0.88206-2.09 1.3772-3.3432 1.3772zm1.6592-16.753c-2.2781 0.0013-4.4997 0.71338-6.3512 2.0366v-1.481h-8.3333v32.558h8.3333v-11.056c1.8515 1.3232 4.0731 2.0352 6.3512 2.0365 6.3029 0 11.414-5.3937 11.414-12.047 0-6.6535-5.1114-12.047-11.414-12.047z" fill="#fff" stroke-width="1.028"/>
<path d="m183.99 56.215c-0.93448 0.0046-1.8484-0.26739-2.6266-0.78162-0.77926-0.51433-1.3878-1.2477-1.7477-2.1073-0.36084-0.85954-0.45747-1.8066-0.2786-2.7211 0.17991-0.91444 0.62711-1.7553 1.285-2.4158 0.65897-0.66062 1.4989-1.1112 2.4149-1.2947 0.91598-0.1835 1.8649-0.0917 2.7284 0.2638s1.6007 0.95875 2.1208 1.7332c0.51916 0.77442 0.7957 1.6854 0.7957 2.6172-7e-3 1.2417-0.50373 2.4306-1.3817 3.3108-0.87691 0.88031-2.0664 1.3814-3.3103 1.3956zm4.692-14.717c-1.8525-1.3228-4.0731-2.0348-6.3512-2.0366-6.3029 0-11.414 5.3936-11.414 12.047 0 6.6534 5.1114 12.047 11.414 12.047 2.2781-9.25e-4 4.4997-0.71305 6.3512-2.0365v1.481h8.3353v-22.983h-8.3353z" fill="#fff" stroke-width="1.028"/>
<path d="m198.53 51.508c-1e-3 2.0806 0.53869 4.126 1.5647 5.937 1.027 1.811 2.5064 3.3259 4.2931 4.3971 1.7878 1.0712 3.8233 1.6623 5.9071 1.7157 2.0849 0.05336 4.1471-0.4328 5.9873-1.4112v-7.3171c-1.2131 0.86129-2.895 1.3848-4.7382 1.3848-1.2511 0-2.4498-0.49582-3.335-1.3785-0.88411-0.88257-1.3817-2.0797-1.3817-3.3279 0-1.2482 0.49757-2.4453 1.3817-3.3279 0.88514-0.88267 2.0838-1.3785 3.335-1.3785 1.8494 0 3.5323 0.52348 4.7382 1.3847v-7.3103c-1.8402-0.97835-3.9024-1.4645-5.9873-1.4112-2.0838 0.05336-4.1194 0.64445-5.9071 1.7157-1.7867 1.0712-3.2661 2.5861-4.2931 4.3971-1.026 1.811-1.5657 3.8565-1.5647 5.9371" fill="#fff" stroke-width="1.028"/>
<path d="m99.348 30.425c-0.93192 0.0043-1.8416 0.28404-2.6143 0.80381-0.77278 0.51977-1.3739 1.2563-1.7274 2.1167-0.35364 0.86035-0.44391 1.8059-0.25948 2.7174 0.18453 0.91149 0.63543 1.748 1.2959 2.404 0.66041 0.65601 1.5008 1.1021 2.4152 1.2819 0.91423 0.17982 1.8615 0.08535 2.722-0.2715 0.86057-0.35684 1.5958-0.96007 2.1131-1.7335 0.51731-0.77346 0.79334-1.6825 0.79334-2.6124-6e-3 -1.2502-0.50754-2.4473-1.3956-3.3292-0.88802-0.88199-2.09-1.3771-3.3429-1.3771z" fill="#fff" stroke-width="1.028"/>
<path d="m99.339 41.557c-1.4197-0.0022-2.798-0.47763-3.916-1.351-0.07443-0.05742-0.14722-0.1182-0.21825-0.1773v22.973h8.333v-22.985c-0.0762 0.06248-0.15235 0.12496-0.23018 0.18575-1.135 0.87912-2.5317 1.3547-3.9685 1.351" fill="#fff" stroke-width="1.028"/>
<path d="m235 46.871v-6.8543h-5.4023v-6.6669l-8.3322 3.2896v3.3774h-3.1057v6.8543h3.1057v7.8996c0 5.4376 2.7736 8.7812 8.3559 8.7812 1.8422 0.01593 3.6691-0.32825 5.3787-1.0132v-7.1954c-0.67748 0.49644-1.6294 0.80208-2.7449 0.80208-0.69701 0.0041-1.3673-0.26678-1.8649-0.75355-0.49757-0.48667-0.78233-1.15-0.79261-1.8453v-6.6754z" fill="#fff" stroke-width="1.028"/>
<path d="m52.887 45.385h-4.0904v-6.8189h4.0904c0.90622 0 1.7752 0.35921 2.416 0.9986s1.0008 1.5066 1.0008 2.4108-0.36002 1.7714-1.0008 2.4109c-0.64078 0.63944-1.5098 0.99864-2.416 0.99864zm0.77504-14.523h-38.662v8.31h8.5648v23.827h8.3329v-23.827h8.5665v23.829h8.3329v-9.9109h4.8654c2.9542 0 5.7874-1.171 7.8763-3.2555 2.089-2.0844 3.2625-4.9116 3.2625-7.8594 0-2.9479-1.1735-5.775-3.2625-7.8594-2.0889-2.0844-4.9221-3.2555-7.8763-3.2555" fill="#fff" stroke-width="1.028"/>
<path d="m71.595 63 21.088-32.139h-9.9592l-21.088 32.139z" fill="#fff" opacity=".757" stroke-width="1.028"/>
</svg>
