<?xml version="1.0" encoding="UTF-8" standalone="no"?>
<!-- Created with Inkscape (http://www.inkscape.org/) -->

<svg
   xmlns:dc="http://purl.org/dc/elements/1.1/"
   xmlns:cc="http://creativecommons.org/ns#"
   xmlns:rdf="http://www.w3.org/1999/02/22-rdf-syntax-ns#"
   xmlns:svg="http://www.w3.org/2000/svg"
   xmlns="http://www.w3.org/2000/svg"
   xmlns:sodipodi="http://sodipodi.sourceforge.net/DTD/sodipodi-0.dtd"
   xmlns:inkscape="http://www.inkscape.org/namespaces/inkscape"
   width="250"
   height="91"
   viewBox="0 0 250 91"
   id="svg2"
   version="1.1"
   inkscape:version="0.92.2 (5c3e80d, 2017-08-06)"
   sodipodi:docname="transportnorth.svg">
  <defs
     id="defs4" />
  <sodipodi:namedview
     id="base"
     pagecolor="#ffffff"
     bordercolor="#666666"
     borderopacity="1.0"
     inkscape:pageopacity="0.0"
     inkscape:pageshadow="2"
     inkscape:zoom="3.7083362"
     inkscape:cx="155.1765"
     inkscape:cy="15.487146"
     inkscape:document-units="px"
     inkscape:current-layer="layer1"
     showgrid="false"
     inkscape:window-width="1920"
     inkscape:window-height="1001"
     inkscape:window-x="-9"
     inkscape:window-y="-9"
     inkscape:window-maximized="1"
     units="px" />
  <metadata
     id="metadata7">
    <rdf:RDF>
      <cc:Work
         rdf:about="">
        <dc:format>image/svg+xml</dc:format>
        <dc:type
           rdf:resource="http://purl.org/dc/dcmitype/StillImage" />
        <dc:title></dc:title>
      </cc:Work>
    </rdf:RDF>
  </metadata>
  <g
     inkscape:label="Layer 1"
     inkscape:groupmode="layer"
     id="layer1"
     transform="translate(0,-961.4)">
    <rect
       style="opacity:0.001;fill:#ffffff;fill-opacity:1;stroke:none;stroke-width:2.5;stroke-linecap:round;stroke-linejoin:round;stroke-miterlimit:4;stroke-dasharray:none;stroke-dashoffset:0;stroke-opacity:1"
       id="rect4175"
       width="250"
       height="91"
       x="0"
       y="961.4" />
    <path
       inkscape:connector-curvature="0"
       id="path4538"
       d="m 124.24843,1032.5313 c -4.50214,-0.5721 -8.49355,-2.6801 -11.31946,-5.9782 -2.37797,-2.7753 -3.79964,-6.0237 -4.34725,-9.9328 -0.16928,-1.2085 -0.12745,-3.9041 0.082,-5.2805 1.13923,-7.4884 6.3933,-13.35335 13.51706,-15.08895 1.61666,-0.3939 2.68669,-0.5151 4.55777,-0.5161 1.82177,0 2.60097,0.079 4.20735,0.431 5.17789,1.1355 9.57794,4.56005 11.95544,9.30505 1.38846,2.771 2.00433,5.432 2.00433,8.6596 0,3.2593 -0.63294,5.957 -2.04952,8.7356 -1.14789,2.2515 -2.87096,4.3734 -4.80758,5.9204 -2.30673,1.8427 -5.0883,3.0677 -8.22931,3.6245 -1.3162,0.2332 -4.1935,0.2955 -5.57078,0.1204 z m 3.4693,-4.6843 c 3.1741,-0.247 5.87887,-1.4682 8.0476,-3.6336 3.23744,-3.2323 4.61927,-8.2174 3.6309,-13.0983 -1.08492,-5.3579 -4.88129,-9.2617 -10.0909,-10.3765 -0.80326,-0.172 -1.14748,-0.1967 -2.69342,-0.1939 -1.50769,0.01 -1.90094,0.031 -2.63241,0.1904 -3.32495,0.7239 -6.11815,2.6068 -7.96189,5.3673 -3.01725,4.5173 -3.12274,11.03 -0.25445,15.7086 2.1194,3.4568 5.79794,5.7117 9.83591,6.0289 0.46421,0.036 0.901,0.071 0.97064,0.076 0.0697,0.01 0.58624,-0.027 1.14802,-0.07 z m -83.782843,3.682 c -0.755652,-0.2037 -1.381763,-0.747 -1.710891,-1.4845 -0.170859,-0.3827 -0.17138,-0.4484 -0.151144,-19.0793 0.01115,-10.2824 0.04219,-18.79005 0.069,-18.90615 0.142539,-0.6175 0.692309,-1.2617 1.375194,-1.6114 0.296919,-0.1519 0.517977,-0.1943 1.012836,-0.1942 0.873093,4e-4 1.303069,0.2324 2.124558,1.1467 2.26911,2.5257 9.521078,11.03675 9.714946,11.40155 0.308565,0.5808 0.373617,1.1648 0.197301,1.7714 -0.459942,1.5822 -2.317682,2.3049 -3.67514,1.4298 -0.213581,-0.1377 -1.429866,-1.4771 -3.060879,-3.3707 -1.488559,-1.7281 -2.73946,-3.12165 -2.779787,-3.09665 -0.08169,0.051 -0.103679,26.22615 -0.0221,26.30765 0.07317,0.073 1.111268,-0.3119 2.129553,-0.79 5.518961,-2.5919 9.711627,-7.6824 11.232076,-13.6375 0.439379,-1.7209 0.5511,-2.7373 0.55046,-5.0082 -3.65e-4,-1.8738 -0.02583,-2.2942 -0.195571,-3.2496 -0.616536,-3.46985 -1.845094,-6.36025 -3.856488,-9.07325 -0.770526,-1.0391 -2.827124,-3.1289 -3.792007,-3.8529 -2.662834,-1.99815 -5.316598,-3.23365 -8.298117,-3.86305 -0.570156,-0.1205 -1.160998,-0.2709 -1.312988,-0.3344 -0.386394,-0.1615 -0.865861,-0.6019 -1.111438,-1.0209 -0.841411,-1.4358 -0.0159,-3.3176 1.615486,-3.6827 0.634419,-0.142 1.566945,0.01 3.367637,0.5303 4.612321,1.3461 8.436496,3.6354 11.559694,6.92 3.744823,3.93845 6.024799,8.66395 6.855165,14.2082 0.23518,1.5701 0.213629,5.5625 -0.03874,7.1743 -1.316404,8.4075 -6.381409,15.3895 -13.86058,19.1065 -2.140007,1.0634 -4.040004,1.726 -6.214237,2.1665 -1.152594,0.2336 -1.192584,0.2357 -1.723828,0.093 z m -8.309531,-0.026 c -0.09285,-0.019 -0.529637,-0.1152 -0.970638,-0.2112 -3.689436,-0.8042 -7.224069,-2.4946 -10.212774,-4.8841 -1.107687,-0.8856 -2.967458,-2.7391 -3.808217,-3.7954 -2.939571,-3.6929 -4.679475,-7.6912 -5.435957,-12.4916 -0.189294,-1.2012 -0.264486,-4.7926 -0.128352,-6.1301 0.32934,-3.2356 1.110174,-5.96295 2.533993,-8.85125 3.381258,-6.85915 9.436155,-11.68555 16.963434,-13.52155 1.588406,-0.3874 2.231,-0.406 2.890996,-0.082 1.465143,0.7168 1.868348,2.6098 0.811603,3.8103 -0.491286,0.5582 -0.776243,0.6935 -2.060953,0.9788 -4.60489,1.0226 -8.394684,3.2758 -11.396553,6.77535 -2.49022,2.9033 -4.134331,6.5495 -4.725556,10.48025 -0.190169,1.2642 -0.214935,4.2632 -0.0446,5.4018 0.378281,2.5286 1.02083,4.6044 2.074362,6.701 1.886588,3.7546 5.084865,7.0109 8.824848,8.9853 0.891833,0.4708 2.700228,1.2365 2.920222,1.2365 0.100953,0 0.118289,-1.9366 0.118289,-13.2091 0,-10.5139 -0.02156,-13.20805 -0.105503,-13.20365 -0.05803,0.01 -1.130999,1.20395 -2.384387,2.66865 -3.024083,3.5339 -3.205522,3.7276 -3.711811,3.9636 -0.588817,0.2741 -1.440619,0.2742 -2.029309,0 -0.554471,-0.2582 -1.161534,-0.9337 -1.315418,-1.4636 -0.164003,-0.5647 -0.126665,-1.269 0.09193,-1.7341 0.109752,-0.2334 2.187905,-2.7134 5.261071,-6.27815 4.673935,-5.4217 5.118276,-5.912 5.563119,-6.1394 0.397625,-0.2032 0.587778,-0.2471 1.071018,-0.2471 0.977442,0 1.726633,0.4716 2.222041,1.3988 l 0.190427,0.3564 v 18.94825 18.9485 l -0.250027,0.4514 c -0.300737,0.543 -0.773646,0.8912 -1.448793,1.0671 -0.462102,0.1203 -1.134648,0.1522 -1.508497,0.072 z m 40.736685,-0.3448 c -0.04649,-0.088 -0.0992,-6.0163 -0.130068,-14.6229 -0.0285,-7.9613 -0.07231,-15.5575 -0.09738,-16.88045 -0.02879,-1.524 -0.01492,-2.451 0.03797,-2.5294 0.06877,-0.1023 0.467835,-0.13 2.270337,-0.1575 l 2.186858,-0.034 0.257714,0.2419 c 0.14175,0.1331 3.93214,4.87535 8.42309,10.53895 4.49095,5.6635 8.775769,11.0654 9.521829,12.0045 0.746075,0.9391 1.378769,1.6798 1.405999,1.6458 0.0273,-0.034 0.0215,-5.5111 -0.0126,-12.1719 -0.0432,-8.4252 -0.0352,-12.14295 0.0265,-12.21725 0.0678,-0.082 0.67071,-0.1067 2.56663,-0.1067 h 2.47795 l 0.0416,0.1897 c 0.0618,0.2815 0.22294,33.78935 0.16327,33.94475 -0.0445,0.1158 -0.31025,0.1329 -2.06434,0.1329 -1.87905,0 -2.02344,-0.012 -2.16435,-0.1624 -0.083,-0.09 -4.556848,-5.7086 -9.941758,-12.4867 -5.384911,-6.7782 -9.82526,-12.3263 -9.86743,-12.3291 -0.0458,-0.01 -0.0523,5.0078 -0.016,12.4808 0.0604,12.4194 0.0598,12.4865 -0.10769,12.5762 -0.10783,0.058 -1.018759,0.09 -2.534206,0.09 -2.167176,0 -2.372445,-0.012 -2.44403,-0.1478 z m 71.964739,-0.2861 c -0.13634,-0.1076 -0.15132,-1.1843 -0.23746,-17.0771 -0.0874,-16.13435 -0.0847,-16.96735 0.0562,-17.07025 0.19209,-0.1405 15.87638,-0.1588 16.99865,-0.019 3.67923,0.4555 6.68919,1.9928 8.43354,4.30775 2.22407,2.9516 2.58965,7.41 0.88602,10.805 -1.17692,2.3454 -3.47652,4.2119 -6.30234,5.1152 -0.4051,0.1295 -0.73744,0.2789 -0.73853,0.332 -8e-4,0.053 2.25769,3.0726 5.01955,6.71 2.76185,3.6374 5.00908,6.6515 4.99385,6.698 -0.0178,0.054 -1.16631,0.084 -3.2193,0.084 h -3.1916 l -4.72555,-6.2669 -4.72555,-6.2669 h -4.09467 -4.09468 l 0.0618,6.2787 c 0.0386,3.9247 0.0319,6.2972 -0.0181,6.328 -0.0439,0.028 -1.177,0.074 -2.51804,0.1029 -1.98968,0.044 -2.46502,0.032 -2.58376,-0.06 z m 15.63125,-17.7144 c 1.17495,-0.1306 2.04488,-0.3759 3.03596,-0.8562 0.76416,-0.3704 0.97782,-0.5243 1.60576,-1.1563 1.05262,-1.0597 1.4706,-2.0049 1.57235,-3.5566 0.21625,-3.2966 -1.99907,-5.4655 -6.02523,-5.8991 -0.96187,-0.1035 -5.9322,-0.1245 -8.92045,-0.038 l -1.92449,0.056 0.0623,5.7468 c 0.0343,3.1606 0.0738,5.7656 0.0881,5.7888 0.0497,0.081 9.71269,0.01 10.50575,-0.086 z m 23.99882,17.4518 c -0.0592,-0.092 -0.15924,-13.6977 -0.18615,-25.3202 l -0.009,-3.7764 -5.4651,-0.021 -5.46509,-0.022 -0.0225,-2.39985 c -0.0126,-1.3496 0.0109,-2.4331 0.0539,-2.476 0.11597,-0.1161 26.94062,-0.2467 27.07888,-0.1319 0.0853,0.071 0.10978,0.6216 0.10978,2.4771 0,2.09785 -0.0162,2.39225 -0.13352,2.43725 -0.0734,0.028 -2.52098,0.051 -5.43902,0.051 -2.91802,0 -5.32213,0.029 -5.34246,0.063 -0.0203,0.035 -0.002,6.5391 0.0409,14.454 0.0429,7.9148 0.0565,14.4762 0.0303,14.5807 l -0.0475,0.1898 h -2.56771 c -1.96147,0 -2.58382,-0.026 -2.63599,-0.1055 z m 19.26912,-0.049 c -0.0635,-0.1028 -0.23826,-33.83885 -0.17632,-34.03405 0.0512,-0.1613 0.13012,-0.1655 2.64208,-0.1439 l 2.58932,0.022 0.0537,7.16035 c 0.0297,3.9381 0.0865,7.19 0.12662,7.2261 0.0401,0.035 3.90901,0.042 8.5976,0.013 l 8.52472,-0.052 -0.029,-7.1951 c -0.024,-5.96535 -0.01,-7.20105 0.0844,-7.23045 0.0623,-0.019 1.20118,-0.055 2.53077,-0.079 1.79668,-0.033 2.45133,-0.018 2.54921,0.057 0.11802,0.09 0.14118,1.8615 0.22287,17.06435 0.0862,16.0232 0.0831,16.97 -0.0543,17.0704 -0.20364,0.149 -4.92757,0.1538 -5.07616,0.01 -0.0759,-0.076 -0.10128,-1.0885 -0.10128,-4.0376 0,-2.1649 -0.025,-5.4237 -0.0559,-7.2417 l -0.0559,-3.3056 h -4.78339 c -2.63087,0 -6.50477,0.026 -8.60865,0.056 l -3.82526,0.056 0.0601,7.1836 c 0.0329,3.951 0.0351,7.2491 0.005,7.3289 -0.0512,0.1335 -0.27051,0.1456 -2.61611,0.1456 -1.40817,0 -2.57966,-0.032 -2.60335,-0.07 z m -86.4346,-39.18305 c -0.77432,-0.1197 -1.37856,-0.3171 -2.07116,-0.6764 -0.63132,-0.3274 -1.26604,-0.7883 -1.26604,-0.91905 0,-0.1293 1.20441,-1.5224 1.31612,-1.5224 0.0611,0 0.32697,0.151 0.59066,0.3357 0.644,0.4512 1.29615,0.6841 2.06742,0.7386 0.74808,0.052 1.17933,-0.06 1.42627,-0.3744 0.31333,-0.3983 0.16691,-0.9039 -0.3373,-1.1647 -0.13419,-0.07 -0.78627,-0.2813 -1.44908,-0.471 -1.91651,-0.5484 -2.64959,-0.9996 -3.01901,-1.8583 -0.72427,-1.6837 0.19319,-3.5552 2.0111,-4.1027 0.62763,-0.1889 1.97395,-0.1855 2.7112,0.01 0.96423,0.2518 2.19449,0.9121 2.19449,1.1781 0,0.1735 -1.01664,1.5761 -1.14246,1.5761 -0.0648,0 -0.35646,-0.1298 -0.6482,-0.2885 -1.06648,-0.58 -2.15057,-0.7262 -2.69131,-0.3629 -0.24066,0.1616 -0.29104,0.2509 -0.31305,0.5548 -0.0433,0.5969 0.11073,0.6982 1.81326,1.1927 2.56797,0.7459 3.32497,1.4578 3.31587,3.1179 -0.01,1.81445 -1.22869,2.93685 -3.33773,3.07395 -0.36735,0.024 -0.89433,0.01 -1.17105,-0.034 z m 19.24063,-0.044 c -3.06224,-0.6758 -4.80073,-3.79345 -3.76256,-6.74725 0.2654,-0.7551 0.66439,-1.3505 1.32972,-1.9839 2.51801,-2.3973 6.86688,-1.6859 8.38125,1.3711 1.42998,2.8867 -0.0153,6.28485 -3.0787,7.23895 -0.78392,0.244 -2.06732,0.2983 -2.86971,0.1211 z m 2.44768,-2.30485 c 0.62806,-0.3014 1.05975,-0.7442 1.36715,-1.4024 0.2075,-0.4444 0.23633,-0.6049 0.23499,-1.3083 -0.002,-0.6859 -0.0335,-0.8705 -0.22241,-1.2762 -0.68499,-1.4709 -2.31652,-2.1036 -3.81272,-1.4784 -0.49254,0.2058 -1.10474,0.8408 -1.37531,1.4266 -0.21394,0.4632 -0.24304,0.6224 -0.24304,1.3299 0,0.7379 0.0227,0.8496 0.27741,1.367 0.52054,1.0572 1.36611,1.5729 2.59229,1.5807 0.5759,0.01 0.74973,-0.032 1.18164,-0.2389 z m 42.04024,2.30455 c -2.12138,-0.4751 -3.62036,-2.03275 -3.99168,-4.14795 -0.21142,-1.2042 0.0312,-2.4887 0.67039,-3.5493 0.41635,-0.6909 1.37335,-1.5564 2.10482,-1.9035 3.08446,-1.4641 6.6226,0.034 7.54538,3.1928 0.18144,0.6213 0.20483,1.9232 0.0462,2.5743 -0.42015,1.725 -1.80063,3.18465 -3.51295,3.71405 -0.78546,0.2429 -2.07208,0.2966 -2.86222,0.1196 z m 2.44021,-2.30455 c 0.62804,-0.3014 1.05974,-0.7442 1.36712,-1.4024 0.20752,-0.4444 0.23636,-0.6049 0.23501,-1.3083 -0.002,-0.6859 -0.0335,-0.8705 -0.22241,-1.2762 -0.42557,-0.9138 -1.15881,-1.4921 -2.11377,-1.667 -1.28512,-0.2352 -2.51125,0.4155 -3.08078,1.635 -0.2075,0.4442 -0.23633,0.6047 -0.23499,1.3082 0.002,0.6832 0.0338,0.8711 0.21954,1.2698 0.53281,1.1439 1.36757,1.6737 2.64865,1.6805 0.57503,0.01 0.75034,-0.033 1.18163,-0.2396 z m -107.868813,2.16605 c -0.02219,-0.059 -0.04993,-1.81715 -0.0616,-3.90625 l -0.02114,-3.798 -1.434853,-0.042 -1.43485,-0.042 v -1.0128 -1.0128 l 4.070636,-0.021 4.070631,-0.021 0.0475,0.1908 c 0.0261,0.1047 0.0364,0.5705 0.023,1.0347 l -0.0247,0.8441 -1.47705,0.042 -1.47705,0.042 -0.0422,3.8825 -0.0422,3.88255 -1.077817,0.024 c -0.815799,0.017 -1.087662,-0.01 -1.118299,-0.084 z m 6.799064,-0.059 c -0.0572,-0.1069 -0.0874,-1.77045 -0.0874,-4.81655 0,-3.0461 0.0302,-4.7096 0.0874,-4.8165 0.0834,-0.1559 0.20137,-0.1632 2.5954,-0.1618 2.76016,0 3.32937,0.068 4.07958,0.4763 0.67354,0.3668 1.22087,1.0264 1.43424,1.7289 0.253021,0.8329 0.20157,1.8456 -0.13118,2.5818 -0.25847,0.572 -0.84017,1.1865 -1.35608,1.4325 -0.21004,0.1001 -0.29344,0.1894 -0.26802,0.2866 0.0203,0.077 0.51861,0.8481 1.10736,1.7121 0.58874,0.86415 1.04696,1.60895 1.01825,1.65535 -0.0837,0.1354 -2.45258,0.1099 -2.58938,-0.027 -0.0613,-0.061 -0.5444,-0.7644 -1.07346,-1.56145 l -0.96194,-1.4491 h -0.78942 -0.78944 v 1.4279 c 0,0.78535 -0.023,1.48785 -0.0513,1.56135 -0.0429,0.1119 -0.22102,0.1336 -1.09427,0.1336 -0.94484,0 -1.05127,-0.016 -1.13041,-0.1634 z m 5.16943,-5.18545 c 0.48971,-0.2086 0.68243,-0.5023 0.71548,-1.0898 0.0233,-0.415 -0.006,-0.5813 -0.14016,-0.795 -0.31094,-0.4952 -0.56852,-0.569 -2.09728,-0.6014 l -1.37156,-0.029 v 1.3155 1.3156 h 1.31096 c 0.9222,0 1.3915,-0.034 1.58256,-0.1158 z m 4.15074,5.24305 c -0.0513,-0.1342 4.04888,-9.77145 4.19737,-9.86555 0.139905,-0.089 1.847749,-0.093 1.986399,-0.01 0.14396,0.092 4.26201,9.79285 4.19968,9.89385 -0.0285,0.047 -0.52713,0.082 -1.14095,0.082 -1.27445,0 -1.15062,0.089 -1.64961,-1.1816 -0.17324,-0.44095 -0.35224,-0.84995 -0.39778,-0.90875 -0.0635,-0.082 -0.54399,-0.1019 -2.07292,-0.084 l -1.990118,0.022 -0.396461,0.95325 c -0.21805,0.5241 -0.4424,1.0085 -0.49853,1.0761 -0.13706,0.1652 -2.17458,0.1811 -2.23708,0.017 z m 6.288269,-4.26215 c -0.01,-0.1867 -1.06791,-2.5933 -1.13572,-2.5821 -0.0616,0.011 -1.140019,2.486 -1.140019,2.6169 0,0.016 0.512765,0.028 1.139459,0.028 0.6267,0 1.13802,-0.028 1.13628,-0.063 z m 5.57674,4.20455 c -0.0572,-0.1069 -0.0874,-1.77045 -0.0874,-4.81655 0,-3.0461 0.0302,-4.7096 0.0874,-4.8165 0.0785,-0.1466 0.18453,-0.1632 1.03924,-0.1632 0.92993,0 0.95685,0.01 1.16727,0.2321 0.11847,0.1276 1.12259,1.4268 2.23138,2.8872 l 2.01597,2.6552 0.0423,-2.7817 c 0.0232,-1.53 0.073,-2.8293 0.11049,-2.8873 0.0483,-0.075 0.36194,-0.1055 1.07316,-0.1055 0.90713,0 1.01339,0.016 1.09226,0.1632 0.0572,0.1069 0.0874,1.7704 0.0874,4.8165 0,3.0461 -0.0302,4.70965 -0.0874,4.81655 -0.0777,0.1451 -0.18357,0.1632 -0.9545,0.1632 -0.56798,0 -0.91206,-0.036 -0.99737,-0.1056 -0.0716,-0.058 -1.08895,-1.36825 -2.26069,-2.91175 -1.17176,-1.5433 -2.1649,-2.8275 -2.20697,-2.8535 -0.0453,-0.029 -0.0765,1.098 -0.0765,2.7486 0,1.76575 -0.0322,2.85595 -0.0874,2.95905 -0.0788,0.1474 -0.18517,0.1632 -1.09427,0.1632 -0.90911,0 -1.0154,-0.015 -1.09427,-0.1632 z m 20.04028,0.059 c -0.0227,-0.059 -0.0315,-2.29185 -0.0194,-4.96105 l 0.0219,-4.8532 2.19448,-0.025 c 2.36533,-0.027 2.9788,0.034 3.71925,0.3608 0.64975,0.2873 1.31317,0.9435 1.60352,1.5861 0.28021,0.62 0.37598,1.7382 0.21173,2.4721 -0.14334,0.6405 -0.65208,1.3807 -1.23675,1.7994 -0.75504,0.5406 -1.36503,0.7002 -2.90509,0.7604 l -1.30825,0.051 -0.0423,1.4349 -0.0423,1.43465 -1.07781,0.024 c -0.81546,0.017 -1.08788,-0.01 -1.11914,-0.084 z m 4.80876,-5.15245 c 0.44525,-0.2523 0.6739,-0.6598 0.6739,-1.2013 0,-0.5466 -0.2246,-0.9404 -0.6692,-1.1736 -0.28294,-0.1483 -0.51875,-0.1814 -1.45596,-0.2046 l -1.11833,-0.028 v 1.3992 1.3991 h 1.11833 c 1.0003,0 1.15348,-0.022 1.45126,-0.19 z m 16.42408,5.09215 c -0.0573,-0.1068 -0.0874,-1.77025 -0.0874,-4.81645 0,-3.0462 0.0302,-4.7097 0.0874,-4.8165 0.0834,-0.1559 0.20136,-0.1632 2.59539,-0.1618 2.76017,0 3.32938,0.068 4.07959,0.4764 0.67353,0.3666 1.22087,1.0263 1.43424,1.7288 0.25302,0.8329 0.20158,1.8455 -0.13119,2.5818 -0.25752,0.5699 -0.83982,1.1862 -1.35097,1.4301 -0.16489,0.078 -0.2998,0.1861 -0.2998,0.2388 0,0.052 0.47978,0.7958 1.06618,1.6513 0.58642,0.85545 1.07068,1.61235 1.07615,1.68205 0.0141,0.1792 -2.40273,0.2343 -2.57722,0.059 -0.0626,-0.063 -0.5466,-0.7667 -1.07566,-1.56375 l -0.96194,-1.4491 h -0.78943 -0.78943 v 1.4278 c 0,0.78535 -0.0231,1.48815 -0.0512,1.56155 -0.043,0.1117 -0.22103,0.1336 -1.09427,0.1336 -0.94484,0 -1.05126,-0.015 -1.13041,-0.1633 z m 5.16942,-5.18535 c 0.48971,-0.2087 0.68244,-0.5023 0.71548,-1.0899 0.0233,-0.415 -0.006,-0.5812 -0.14015,-0.7948 -0.31094,-0.4953 -0.56853,-0.5692 -2.09729,-0.6016 l -1.37155,-0.029 v 1.3155 1.3155 h 1.31096 c 0.9222,0 1.3915,-0.034 1.58255,-0.1157 z m 7.26094,5.24315 c -0.0375,-0.058 -0.0873,-1.81465 -0.11048,-3.90375 l -0.0422,-3.798 -1.43486,-0.042 -1.43484,-0.042 -0.0247,-0.844 c -0.0136,-0.4642 -0.004,-0.9298 0.023,-1.0347 l 0.0476,-0.1908 4.07064,0.021 4.07064,0.021 v 1.0129 1.0129 l -1.43485,0.042 -1.43486,0.042 -0.0444,3.8826 c -0.0244,2.1354 -0.0529,3.89205 -0.0633,3.90355 -0.0105,0.012 -0.49148,0.021 -1.06902,0.021 -0.74735,0 -1.06974,-0.03 -1.11834,-0.1056 z m 10.98605,0.01 c -0.0228,-0.06 -0.0315,-2.29205 -0.0194,-4.96125 l 0.0219,-4.8531 h 3.75595 3.75593 v 1.0127 1.013 l -2.61649,0.042 -2.6165,0.042 v 0.9284 0.9284 l 2.23669,0.022 c 1.98245,0.019 2.24867,0.038 2.34218,0.1638 0.0663,0.089 0.10551,0.428 0.10551,0.9117 0,0.4836 -0.0391,0.8223 -0.10551,0.9116 -0.0935,0.1259 -0.35973,0.1446 -2.34218,0.1638 l -2.23669,0.021 -0.0422,1.8569 -0.0423,1.85685 -1.07781,0.024 c -0.81547,0.017 -1.08788,-0.01 -1.11915,-0.084 z m 21.06402,-0.06 c -0.0572,-0.1069 -0.0874,-1.77025 -0.0874,-4.81645 0,-3.0462 0.0302,-4.7097 0.0874,-4.8165 0.0834,-0.1559 0.20138,-0.1631 2.59541,-0.1618 2.76015,0 3.32937,0.068 4.07957,0.4764 0.67355,0.3665 1.22088,1.0263 1.43425,1.7289 0.25302,0.8328 0.20157,1.8454 -0.13119,2.5818 -0.25752,0.5698 -0.83982,1.1862 -1.35096,1.43 -0.1649,0.078 -0.29981,0.186 -0.29981,0.2388 0,0.052 0.47978,0.7957 1.06618,1.6512 0.58641,0.85555 1.07068,1.61245 1.07615,1.68205 0.0153,0.1955 -2.35438,0.2323 -2.56687,0.04 -0.0812,-0.074 -0.57524,-0.7771 -1.09782,-1.56365 l -0.95013,-1.4302 h -0.78944 -0.78942 v 1.428 c 0,0.78525 -0.0231,1.48785 -0.0512,1.56125 -0.0429,0.1118 -0.22101,0.1336 -1.09427,0.1336 -0.94484,0 -1.05126,-0.015 -1.13042,-0.1632 z m 5.16943,-5.18545 c 0.14939,-0.063 0.36655,-0.2186 0.48262,-0.3444 0.18599,-0.2016 0.211,-0.3037 0.211,-0.8618 0,-0.6057 -0.0117,-0.6435 -0.26981,-0.8742 -0.38682,-0.3455 -0.75789,-0.4193 -2.11457,-0.4198 l -1.20275,-4e-4 v 1.3083 1.3082 h 1.31096 c 0.92221,0 1.3915,-0.034 1.58255,-0.1157 z m 11.43606,5.32755 c -0.0104,-0.011 -0.039,-1.76815 -0.0633,-3.90345 l -0.0444,-3.8827 -1.43486,-0.042 -1.43486,-0.042 v -1.0128 -1.0129 h 4.09356 4.09355 v 1.0129 1.0128 l -1.43483,0.042 -1.43488,0.042 -0.0422,3.7982 c -0.0233,2.089 -0.073,3.84555 -0.11048,3.90365 -0.0486,0.075 -0.371,0.1056 -1.11834,0.1056 -0.57757,0 -1.05861,-0.01 -1.06903,-0.021 z m 6.81092,-0.082 c -0.0226,-0.059 -0.0315,-2.29195 -0.0193,-4.96115 l 0.0218,-4.8532 h 1.09723 1.09726 l 0.0423,1.8991 0.0422,1.899 1.87799,0.023 1.87796,0.022 v -1.7796 c 0,-1.0653 0.0351,-1.8452 0.0874,-1.9429 0.0792,-0.1479 0.18559,-0.1634 1.13044,-0.1634 0.87323,0 1.05135,0.021 1.09426,0.1336 0.0669,0.1744 0.0669,9.51815 0,9.69255 -0.0429,0.1118 -0.22085,0.1334 -1.09227,0.1334 -0.74013,0 -1.06075,-0.03 -1.10931,-0.1054 -0.0376,-0.058 -0.0873,-0.9411 -0.11047,-1.96235 l -0.0423,-1.8569 h -1.85689 -1.85687 l -0.0422,1.9413 -0.0423,1.94125 -1.07781,0.024 c -0.8155,0.017 -1.0879,-0.01 -1.11914,-0.084 z m 10.63417,0 c -0.0222,-0.059 -0.0308,-2.29025 -0.019,-4.95945 l 0.0218,-4.8533 h 3.71373 3.71373 l 0.024,0.964 c 0.0179,0.7143 -0.004,0.9816 -0.0844,1.0326 -0.0597,0.038 -1.23834,0.07 -2.61939,0.071 h -2.51099 v 0.8862 0.8864 h 2.21982 c 1.61396,0 2.24742,0.028 2.32107,0.1012 0.0654,0.066 0.10128,0.4032 0.10128,0.9537 0,0.5505 -0.0359,0.8884 -0.10128,0.9538 -0.0737,0.074 -0.70711,0.1013 -2.32107,0.1013 h -2.21982 v 0.9284 0.9284 h 2.51596 c 1.89345,0 2.55203,0.027 2.66176,0.1067 0.12558,0.092 0.14247,0.2351 0.12164,1.03385 l -0.0244,0.9274 -3.73716,0.021 c -2.94461,0.017 -3.74578,0 -3.77785,-0.084 z"
       style="fill:#ffffff;stroke-width:0.08440311" />
  </g>
</svg>
