<?xml version="1.0" encoding="UTF-8"?>
<svg version="1.1" viewBox="0 0 250 91" xmlns="http://www.w3.org/2000/svg" xmlns:cc="http://creativecommons.org/ns#" xmlns:dc="http://purl.org/dc/elements/1.1/" xmlns:rdf="http://www.w3.org/1999/02/22-rdf-syntax-ns#">
<metadata>
<rdf:RDF>
<cc:Work rdf:about="">
<dc:format>image/svg+xml</dc:format>
<dc:type rdf:resource="http://purl.org/dc/dcmitype/StillImage"/>
<dc:title/>
</cc:Work>
</rdf:RDF>
</metadata>
<g transform="translate(0,-961.4)" fill="#fff">
<path d="m124.25 1032.5c-4.5021-0.5721-8.4936-2.6801-11.319-5.9782-2.378-2.7753-3.7996-6.0237-4.3472-9.9328-0.16928-1.2085-0.12745-3.9041 0.082-5.2805 1.1392-7.4884 6.3933-13.353 13.517-15.089 1.6167-0.3939 2.6867-0.5151 4.5578-0.5161 1.8218 0 2.601 0.079 4.2074 0.431 5.1779 1.1355 9.5779 4.56 11.955 9.305 1.3885 2.771 2.0043 5.432 2.0043 8.6596 0 3.2593-0.63294 5.957-2.0495 8.7356-1.1479 2.2515-2.871 4.3734-4.8076 5.9204-2.3067 1.8427-5.0883 3.0677-8.2293 3.6245-1.3162 0.2332-4.1935 0.2955-5.5708 0.1204zm3.4693-4.6843c3.1741-0.247 5.8789-1.4682 8.0476-3.6336 3.2374-3.2323 4.6193-8.2174 3.6309-13.098-1.0849-5.3579-4.8813-9.2617-10.091-10.376-0.80326-0.172-1.1475-0.1967-2.6934-0.1939-1.5077 0.01-1.9009 0.031-2.6324 0.1904-3.325 0.7239-6.1182 2.6068-7.9619 5.3673-3.0172 4.5173-3.1227 11.03-0.25445 15.709 2.1194 3.4568 5.7979 5.7117 9.8359 6.0289 0.46421 0.036 0.901 0.071 0.97064 0.076 0.0697 0.01 0.58624-0.027 1.148-0.07zm-83.783 3.682c-0.75565-0.2037-1.3818-0.747-1.7109-1.4845-0.17086-0.3827-0.17138-0.4484-0.15114-19.079 0.01115-10.282 0.04219-18.79 0.069-18.906 0.14254-0.6175 0.69231-1.2617 1.3752-1.6114 0.29692-0.1519 0.51798-0.1943 1.0128-0.1942 0.87309 4e-4 1.3031 0.2324 2.1246 1.1467 2.2691 2.5257 9.5211 11.037 9.7149 11.402 0.30856 0.5808 0.37362 1.1648 0.1973 1.7714-0.45994 1.5822-2.3177 2.3049-3.6751 1.4298-0.21358-0.1377-1.4299-1.4771-3.0609-3.3707-1.4886-1.7281-2.7395-3.1216-2.7798-3.0966-0.08169 0.051-0.10368 26.226-0.0221 26.308 0.07317 0.073 1.1113-0.3119 2.1296-0.79 5.519-2.5919 9.7116-7.6824 11.232-13.638 0.43938-1.7209 0.5511-2.7373 0.55046-5.0082-3.65e-4 -1.8738-0.02583-2.2942-0.19557-3.2496-0.61654-3.4698-1.8451-6.3602-3.8565-9.0732-0.77053-1.0391-2.8271-3.1289-3.792-3.8529-2.6628-1.9982-5.3166-3.2336-8.2981-3.863-0.57016-0.1205-1.161-0.2709-1.313-0.3344-0.38639-0.1615-0.86586-0.6019-1.1114-1.0209-0.84141-1.4358-0.0159-3.3176 1.6155-3.6827 0.63442-0.142 1.5669 0.01 3.3676 0.5303 4.6123 1.3461 8.4365 3.6354 11.56 6.92 3.7448 3.9384 6.0248 8.664 6.8552 14.208 0.23518 1.5701 0.21363 5.5625-0.03874 7.1743-1.3164 8.4075-6.3814 15.39-13.861 19.106-2.14 1.0634-4.04 1.726-6.2142 2.1665-1.1526 0.2336-1.1926 0.2357-1.7238 0.093zm-8.3095-0.026c-0.09285-0.019-0.52964-0.1152-0.97064-0.2112-3.6894-0.8042-7.2241-2.4946-10.213-4.8841-1.1077-0.8856-2.9675-2.7391-3.8082-3.7954-2.9396-3.6929-4.6795-7.6912-5.436-12.492-0.18929-1.2012-0.26449-4.7926-0.12835-6.1301 0.32934-3.2356 1.1102-5.963 2.534-8.8512 3.3813-6.8592 9.4362-11.686 16.963-13.522 1.5884-0.3874 2.231-0.406 2.891-0.082 1.4651 0.7168 1.8683 2.6098 0.8116 3.8103-0.49129 0.5582-0.77624 0.6935-2.061 0.9788-4.6049 1.0226-8.3947 3.2758-11.397 6.7754-2.4902 2.9033-4.1343 6.5495-4.7256 10.48-0.19017 1.2642-0.21494 4.2632-0.0446 5.4018 0.37828 2.5286 1.0208 4.6044 2.0744 6.701 1.8866 3.7546 5.0849 7.0109 8.8248 8.9853 0.89183 0.4708 2.7002 1.2365 2.9202 1.2365 0.10095 0 0.11829-1.9366 0.11829-13.209 0-10.514-0.02156-13.208-0.1055-13.204-0.05803 0.01-1.131 1.204-2.3844 2.6686-3.0241 3.5339-3.2055 3.7276-3.7118 3.9636-0.58882 0.2741-1.4406 0.2742-2.0293 0-0.55447-0.2582-1.1615-0.9337-1.3154-1.4636-0.164-0.5647-0.12666-1.269 0.09193-1.7341 0.10975-0.2334 2.1879-2.7134 5.2611-6.2782 4.6739-5.4217 5.1183-5.912 5.5631-6.1394 0.39762-0.2032 0.58778-0.2471 1.071-0.2471 0.97744 0 1.7266 0.4716 2.222 1.3988l0.19043 0.3564v37.897l-0.25003 0.4514c-0.30074 0.543-0.77365 0.8912-1.4488 1.0671-0.4621 0.1203-1.1346 0.1522-1.5085 0.072zm40.737-0.3448c-0.04649-0.088-0.0992-6.0163-0.13007-14.623-0.0285-7.9613-0.07231-15.558-0.09738-16.88-0.02879-1.524-0.01492-2.451 0.03797-2.5294 0.06877-0.1023 0.46784-0.13 2.2703-0.1575l2.1869-0.034 0.25771 0.2419c0.14175 0.1331 3.9321 4.8754 8.4231 10.539 4.491 5.6635 8.7758 11.065 9.5218 12.004 0.74608 0.9391 1.3788 1.6798 1.406 1.6458 0.0273-0.034 0.0215-5.5111-0.0126-12.172-0.0432-8.4252-0.0352-12.143 0.0265-12.217 0.0678-0.082 0.67071-0.1067 2.5666-0.1067h2.478l0.0416 0.1897c0.0618 0.2815 0.22294 33.789 0.16327 33.945-0.0445 0.1158-0.31025 0.1329-2.0643 0.1329-1.879 0-2.0234-0.012-2.1644-0.1624-0.083-0.09-4.5568-5.7086-9.9418-12.487-5.3849-6.7782-9.8253-12.326-9.8674-12.329-0.0458-0.01-0.0523 5.0078-0.016 12.481 0.0604 12.419 0.0598 12.486-0.10769 12.576-0.10783 0.058-1.0188 0.09-2.5342 0.09-2.1672 0-2.3724-0.012-2.444-0.1478zm71.965-0.2861c-0.13634-0.1076-0.15132-1.1843-0.23746-17.077-0.0874-16.134-0.0847-16.967 0.0562-17.07 0.19209-0.1405 15.876-0.1588 16.999-0.019 3.6792 0.4555 6.6892 1.9928 8.4335 4.3078 2.2241 2.9516 2.5896 7.41 0.88602 10.805-1.1769 2.3454-3.4765 4.2119-6.3023 5.1152-0.4051 0.1295-0.73744 0.2789-0.73853 0.332-8e-4 0.053 2.2577 3.0726 5.0196 6.71 2.7618 3.6374 5.0091 6.6515 4.9938 6.698-0.0178 0.054-1.1663 0.084-3.2193 0.084h-3.1916l-9.4511-12.534h-8.1894l0.0618 6.2787c0.0386 3.9247 0.0319 6.2972-0.0181 6.328-0.0439 0.028-1.177 0.074-2.518 0.1029-1.9897 0.044-2.465 0.032-2.5838-0.06zm15.631-17.714c1.175-0.1306 2.0449-0.3759 3.036-0.8562 0.76416-0.3704 0.97782-0.5243 1.6058-1.1563 1.0526-1.0597 1.4706-2.0049 1.5724-3.5566 0.21625-3.2966-1.9991-5.4655-6.0252-5.8991-0.96187-0.1035-5.9322-0.1245-8.9204-0.038l-1.9245 0.056 0.0623 5.7468c0.0343 3.1606 0.0738 5.7656 0.0881 5.7888 0.0497 0.081 9.7127 0.01 10.506-0.086zm23.999 17.452c-0.0592-0.092-0.15924-13.698-0.18615-25.32l-9e-3 -3.7764-5.4651-0.021-5.4651-0.022-0.0225-2.3998c-0.0126-1.3496 0.0109-2.4331 0.0539-2.476 0.11597-0.1161 26.941-0.2467 27.079-0.1319 0.0853 0.071 0.10978 0.6216 0.10978 2.4771 0 2.0978-0.0162 2.3922-0.13352 2.4372-0.0734 0.028-2.521 0.051-5.439 0.051-2.918 0-5.3221 0.029-5.3425 0.063-0.0203 0.035-2e-3 6.5391 0.0409 14.454 0.0429 7.9148 0.0565 14.476 0.0303 14.581l-0.0475 0.1898h-2.5677c-1.9615 0-2.5838-0.026-2.636-0.1055zm19.269-0.049c-0.0635-0.1028-0.23826-33.839-0.17632-34.034 0.0512-0.1613 0.13012-0.1655 2.6421-0.1439l2.5893 0.022 0.0537 7.1604c0.0297 3.9381 0.0865 7.19 0.12662 7.2261 0.0401 0.035 3.909 0.042 8.5976 0.013l8.5247-0.052-0.029-7.1951c-0.024-5.9654-0.01-7.201 0.0844-7.2304 0.0623-0.019 1.2012-0.055 2.5308-0.079 1.7967-0.033 2.4513-0.018 2.5492 0.057 0.11802 0.09 0.14118 1.8615 0.22287 17.064 0.0862 16.023 0.0831 16.97-0.0543 17.07-0.20364 0.149-4.9276 0.1538-5.0762 0.01-0.0759-0.076-0.10128-1.0885-0.10128-4.0376 0-2.1649-0.025-5.4237-0.0559-7.2417l-0.0559-3.3056h-4.7834c-2.6309 0-6.5048 0.026-8.6086 0.056l-3.8253 0.056 0.0601 7.1836c0.0329 3.951 0.0351 7.2491 5e-3 7.3289-0.0512 0.1335-0.27051 0.1456-2.6161 0.1456-1.4082 0-2.5797-0.032-2.6034-0.07zm-86.435-39.183c-0.77432-0.1197-1.3786-0.3171-2.0712-0.6764-0.63132-0.3274-1.266-0.7883-1.266-0.91905 0-0.1293 1.2044-1.5224 1.3161-1.5224 0.0611 0 0.32697 0.151 0.59066 0.3357 0.644 0.4512 1.2962 0.6841 2.0674 0.7386 0.74808 0.052 1.1793-0.06 1.4263-0.3744 0.31333-0.3983 0.16691-0.9039-0.3373-1.1647-0.13419-0.07-0.78627-0.2813-1.4491-0.471-1.9165-0.5484-2.6496-0.9996-3.019-1.8583-0.72427-1.6837 0.19319-3.5552 2.0111-4.1027 0.62763-0.1889 1.974-0.1855 2.7112 0.01 0.96423 0.2518 2.1945 0.9121 2.1945 1.1781 0 0.1735-1.0166 1.5761-1.1425 1.5761-0.0648 0-0.35646-0.1298-0.6482-0.2885-1.0665-0.58-2.1506-0.7262-2.6913-0.3629-0.24066 0.1616-0.29104 0.2509-0.31305 0.5548-0.0433 0.5969 0.11073 0.6982 1.8133 1.1927 2.568 0.7459 3.325 1.4578 3.3159 3.1179-0.01 1.8144-1.2287 2.9368-3.3377 3.074-0.36735 0.024-0.89433 0.01-1.171-0.034zm19.241-0.044c-3.0622-0.6758-4.8007-3.7934-3.7626-6.7472 0.2654-0.7551 0.66439-1.3505 1.3297-1.9839 2.518-2.3973 6.8669-1.6859 8.3812 1.3711 1.43 2.8867-0.0153 6.2848-3.0787 7.239-0.78392 0.244-2.0673 0.2983-2.8697 0.1211zm2.4477-2.3048c0.62806-0.3014 1.0598-0.7442 1.3672-1.4024 0.2075-0.4444 0.23633-0.6049 0.23499-1.3083-2e-3 -0.6859-0.0335-0.8705-0.22241-1.2762-0.68499-1.4709-2.3165-2.1036-3.8127-1.4784-0.49254 0.2058-1.1047 0.8408-1.3753 1.4266-0.21394 0.4632-0.24304 0.6224-0.24304 1.3299 0 0.7379 0.0227 0.8496 0.27741 1.367 0.52054 1.0572 1.3661 1.5729 2.5923 1.5807 0.5759 0.01 0.74973-0.032 1.1816-0.2389zm42.04 2.3046c-2.1214-0.4751-3.6204-2.0328-3.9917-4.148-0.21142-1.2042 0.0312-2.4887 0.67039-3.5493 0.41635-0.6909 1.3734-1.5564 2.1048-1.9035 3.0845-1.4641 6.6226 0.034 7.5454 3.1928 0.18144 0.6213 0.20483 1.9232 0.0462 2.5743-0.42015 1.725-1.8006 3.1846-3.513 3.714-0.78546 0.2429-2.0721 0.2966-2.8622 0.1196zm2.4402-2.3046c0.62804-0.3014 1.0597-0.7442 1.3671-1.4024 0.20752-0.4444 0.23636-0.6049 0.23501-1.3083-2e-3 -0.6859-0.0335-0.8705-0.22241-1.2762-0.42557-0.9138-1.1588-1.4921-2.1138-1.667-1.2851-0.2352-2.5112 0.4155-3.0808 1.635-0.2075 0.4442-0.23633 0.6047-0.23499 1.3082 2e-3 0.6832 0.0338 0.8711 0.21954 1.2698 0.53281 1.1439 1.3676 1.6737 2.6486 1.6805 0.57503 0.01 0.75034-0.033 1.1816-0.2396zm-107.87 2.166c-0.02219-0.059-0.04993-1.8172-0.0616-3.9062l-0.02114-3.798-2.8697-0.084v-2.0256l8.1413-0.042 0.0475 0.1908c0.0261 0.1047 0.0364 0.5705 0.023 1.0347l-0.0247 0.8441-2.9541 0.084-0.0422 3.8825-0.0422 3.8826-1.0778 0.024c-0.8158 0.017-1.0877-0.01-1.1183-0.084zm6.7991-0.059c-0.0572-0.1069-0.0874-1.7704-0.0874-4.8166s0.0302-4.7096 0.0874-4.8165c0.0834-0.1559 0.20137-0.1632 2.5954-0.1618 2.7602 0 3.3294 0.068 4.0796 0.4763 0.67354 0.3668 1.2209 1.0264 1.4342 1.7289 0.25302 0.8329 0.20157 1.8456-0.13118 2.5818-0.25847 0.572-0.84017 1.1865-1.3561 1.4325-0.21004 0.1001-0.29344 0.1894-0.26802 0.2866 0.0203 0.077 0.51861 0.8481 1.1074 1.7121 0.58874 0.86415 1.047 1.609 1.0182 1.6554-0.0837 0.1354-2.4526 0.1099-2.5894-0.027-0.0613-0.061-0.5444-0.7644-1.0735-1.5614l-0.96194-1.4491h-1.5789v1.4279c0 0.78535-0.023 1.4878-0.0513 1.5614-0.0429 0.1119-0.22102 0.1336-1.0943 0.1336-0.94484 0-1.0513-0.016-1.1304-0.1634zm5.1694-5.1854c0.48971-0.2086 0.68243-0.5023 0.71548-1.0898 0.0233-0.415-6e-3 -0.5813-0.14016-0.795-0.31094-0.4952-0.56852-0.569-2.0973-0.6014l-1.3716-0.029v2.6311h1.311c0.9222 0 1.3915-0.034 1.5826-0.1158zm4.1507 5.243c-0.0513-0.1342 4.0489-9.7714 4.1974-9.8656 0.1399-0.089 1.8477-0.093 1.9864-0.01 0.14396 0.092 4.262 9.7928 4.1997 9.8938-0.0285 0.047-0.52713 0.082-1.141 0.082-1.2744 0-1.1506 0.089-1.6496-1.1816-0.17324-0.44095-0.35224-0.84995-0.39778-0.90875-0.0635-0.082-0.54399-0.1019-2.0729-0.084l-1.9901 0.022-0.39646 0.95325c-0.21805 0.5241-0.4424 1.0085-0.49853 1.0761-0.13706 0.1652-2.1746 0.1811-2.2371 0.017zm6.2883-4.2622c-0.01-0.1867-1.0679-2.5933-1.1357-2.5821-0.0616 0.011-1.14 2.486-1.14 2.6169 0 0.016 0.51276 0.028 1.1395 0.028 0.6267 0 1.138-0.028 1.1363-0.063zm5.5767 4.2046c-0.0572-0.1069-0.0874-1.7704-0.0874-4.8166s0.0302-4.7096 0.0874-4.8165c0.0785-0.1466 0.18453-0.1632 1.0392-0.1632 0.92993 0 0.95685 0.01 1.1673 0.2321 0.11847 0.1276 1.1226 1.4268 2.2314 2.8872l2.016 2.6552 0.0423-2.7817c0.0232-1.53 0.073-2.8293 0.11049-2.8873 0.0483-0.075 0.36194-0.1055 1.0732-0.1055 0.90713 0 1.0134 0.016 1.0923 0.1632 0.0572 0.1069 0.0874 1.7704 0.0874 4.8165s-0.0302 4.7096-0.0874 4.8166c-0.0777 0.1451-0.18357 0.1632-0.9545 0.1632-0.56798 0-0.91206-0.036-0.99737-0.1056-0.0716-0.058-1.089-1.3682-2.2607-2.9118-1.1718-1.5433-2.1649-2.8275-2.207-2.8535-0.0453-0.029-0.0765 1.098-0.0765 2.7486 0 1.7658-0.0322 2.856-0.0874 2.959-0.0788 0.1474-0.18517 0.1632-1.0943 0.1632-0.90911 0-1.0154-0.015-1.0943-0.1632zm20.04 0.059c-0.0227-0.059-0.0315-2.2918-0.0194-4.961l0.0219-4.8532 2.1945-0.025c2.3653-0.027 2.9788 0.034 3.7192 0.3608 0.64975 0.2873 1.3132 0.9435 1.6035 1.5861 0.28021 0.62 0.37598 1.7382 0.21173 2.4721-0.14334 0.6405-0.65208 1.3807-1.2368 1.7994-0.75504 0.5406-1.365 0.7002-2.9051 0.7604l-1.3082 0.051-0.0423 1.4349-0.0423 1.4346-1.0778 0.024c-0.81546 0.017-1.0879-0.01-1.1191-0.084zm4.8088-5.1524c0.44525-0.2523 0.6739-0.6598 0.6739-1.2013 0-0.5466-0.2246-0.9404-0.6692-1.1736-0.28294-0.1483-0.51875-0.1814-1.456-0.2046l-1.1183-0.028v2.7983h1.1183c1.0003 0 1.1535-0.022 1.4513-0.19zm16.424 5.0922c-0.0573-0.1068-0.0874-1.7702-0.0874-4.8164s0.0302-4.7097 0.0874-4.8165c0.0834-0.1559 0.20136-0.1632 2.5954-0.1618 2.7602 0 3.3294 0.068 4.0796 0.4764 0.67353 0.3666 1.2209 1.0263 1.4342 1.7288 0.25302 0.8329 0.20158 1.8455-0.13119 2.5818-0.25752 0.5699-0.83982 1.1862-1.351 1.4301-0.16489 0.078-0.2998 0.1861-0.2998 0.2388 0 0.052 0.47978 0.7958 1.0662 1.6513 0.58642 0.85545 1.0707 1.6124 1.0762 1.682 0.0141 0.1792-2.4027 0.2343-2.5772 0.059-0.0626-0.063-0.5466-0.7667-1.0757-1.5638l-0.96194-1.4491h-1.5789v1.4278c0 0.78535-0.0231 1.4882-0.0512 1.5616-0.043 0.1117-0.22103 0.1336-1.0943 0.1336-0.94484 0-1.0513-0.015-1.1304-0.1633zm5.1694-5.1854c0.48971-0.2087 0.68244-0.5023 0.71548-1.0899 0.0233-0.415-6e-3 -0.5812-0.14015-0.7948-0.31094-0.4953-0.56853-0.5692-2.0973-0.6016l-1.3716-0.029v2.631h1.311c0.9222 0 1.3915-0.034 1.5826-0.1157zm7.2609 5.2432c-0.0375-0.058-0.0873-1.8146-0.11048-3.9038l-0.0422-3.798-2.8697-0.084-0.0247-0.844c-0.0136-0.4642-4e-3 -0.9298 0.023-1.0347l0.0476-0.1908 8.1413 0.042v2.0258l-2.8697 0.084-0.0444 3.8826c-0.0244 2.1354-0.0529 3.892-0.0633 3.9036-0.0105 0.012-0.49148 0.021-1.069 0.021-0.74735 0-1.0697-0.03-1.1183-0.1056zm10.986 0.01c-0.0228-0.06-0.0315-2.292-0.0194-4.9612l0.0219-4.8531h7.5119v2.0257l-5.233 0.084v1.8568l2.2367 0.022c1.9824 0.019 2.2487 0.038 2.3422 0.1638 0.0663 0.089 0.10551 0.428 0.10551 0.9117 0 0.4836-0.0391 0.8223-0.10551 0.9116-0.0935 0.1259-0.35973 0.1446-2.3422 0.1638l-2.2367 0.021-0.0422 1.8569-0.0423 1.8568-1.0778 0.024c-0.81547 0.017-1.0879-0.01-1.1192-0.084zm21.064-0.06c-0.0572-0.1069-0.0874-1.7702-0.0874-4.8164s0.0302-4.7097 0.0874-4.8165c0.0834-0.1559 0.20138-0.1631 2.5954-0.1618 2.7602 0 3.3294 0.068 4.0796 0.4764 0.67355 0.3665 1.2209 1.0263 1.4342 1.7289 0.25302 0.8328 0.20157 1.8454-0.13119 2.5818-0.25752 0.5698-0.83982 1.1862-1.351 1.43-0.1649 0.078-0.29981 0.186-0.29981 0.2388 0 0.052 0.47978 0.7957 1.0662 1.6512 0.58641 0.85555 1.0707 1.6124 1.0762 1.682 0.0153 0.1955-2.3544 0.2323-2.5669 0.04-0.0812-0.074-0.57524-0.7771-1.0978-1.5636l-0.95013-1.4302h-1.5789v1.428c0 0.78525-0.0231 1.4878-0.0512 1.5612-0.0429 0.1118-0.22101 0.1336-1.0943 0.1336-0.94484 0-1.0513-0.015-1.1304-0.1632zm5.1694-5.1854c0.14939-0.063 0.36655-0.2186 0.48262-0.3444 0.18599-0.2016 0.211-0.3037 0.211-0.8618 0-0.6057-0.0117-0.6435-0.26981-0.8742-0.38682-0.3455-0.75789-0.4193-2.1146-0.4198l-1.2028-4e-4v2.6165h1.311c0.92221 0 1.3915-0.034 1.5826-0.1157zm11.436 5.3276c-0.0104-0.011-0.039-1.7682-0.0633-3.9034l-0.0444-3.8827-2.8697-0.084v-2.0257h8.1871v2.0257l-2.8697 0.084-0.0422 3.7982c-0.0233 2.089-0.073 3.8456-0.11048 3.9036-0.0486 0.075-0.371 0.1056-1.1183 0.1056-0.57757 0-1.0586-0.01-1.069-0.021zm6.8109-0.082c-0.0226-0.059-0.0315-2.292-0.0193-4.9612l0.0218-4.8532h2.1945l0.0423 1.8991 0.0422 1.899 1.878 0.023 1.878 0.022v-1.7796c0-1.0653 0.0351-1.8452 0.0874-1.9429 0.0792-0.1479 0.18559-0.1634 1.1304-0.1634 0.87323 0 1.0514 0.021 1.0943 0.1336 0.0669 0.1744 0.0669 9.5182 0 9.6926-0.0429 0.1118-0.22085 0.1334-1.0923 0.1334-0.74013 0-1.0608-0.03-1.1093-0.1054-0.0376-0.058-0.0873-0.9411-0.11047-1.9624l-0.0423-1.8569h-3.7138l-0.0422 1.9413-0.0423 1.9412-1.0778 0.024c-0.8155 0.017-1.0879-0.01-1.1191-0.084zm10.634 0c-0.0222-0.059-0.0308-2.2902-0.019-4.9594l0.0218-4.8533h7.4275l0.024 0.964c0.0179 0.7143-4e-3 0.9816-0.0844 1.0326-0.0597 0.038-1.2383 0.07-2.6194 0.071h-2.511v1.7726h2.2198c1.614 0 2.2474 0.028 2.3211 0.1012 0.0654 0.066 0.10128 0.4032 0.10128 0.9537s-0.0359 0.8884-0.10128 0.9538c-0.0737 0.074-0.70711 0.1013-2.3211 0.1013h-2.2198v1.8568h2.516c1.8934 0 2.552 0.027 2.6618 0.1067 0.12558 0.092 0.14247 0.2351 0.12164 1.0338l-0.0244 0.9274-3.7372 0.021c-2.9446 0.017-3.7458 0-3.7778-0.084z" stroke-width=".084403"/>
</g>
</svg>
