<?xml version="1.0" encoding="UTF-8"?>
<svg version="1.1" viewBox="0 0 250 91" xmlns="http://www.w3.org/2000/svg" xmlns:cc="http://creativecommons.org/ns#" xmlns:dc="http://purl.org/dc/elements/1.1/" xmlns:rdf="http://www.w3.org/1999/02/22-rdf-syntax-ns#">
<defs>
<style>.cls-1{fill:#fff;fill-rule:evenodd}</style>
</defs>
<metadata>
<rdf:RDF>
<cc:Work rdf:about="">
<dc:format>image/svg+xml</dc:format>
<dc:type rdf:resource="http://purl.org/dc/dcmitype/StillImage"/>
<dc:title/>
</cc:Work>
</rdf:RDF>
</metadata>
<g transform="translate(0,-961.4)">
<path d="m79.455 1035.3c-0.04047-0.066-0.12545-0.6083-0.18887-1.2043-0.06341-0.5961-0.12508-1.139-0.13701-1.2065-0.01189-0.067 0.51368-0.1759 1.168-0.2411 1.4269-0.1424 2.2389-0.5098 2.6301-1.1899 0.28419-0.4943 0.2818-0.5293-0.12156-1.7695-0.44296-1.3618-1.5347-4.8617-1.599-5.1257-0.02157-0.088-0.12265-0.3646-0.22471-0.6137-0.10207-0.249-0.18558-0.5103-0.18558-0.5807 0-0.07-0.24502-0.88-0.54448-1.7992-0.29947-0.9191-0.88277-2.7569-1.2962-4.084-2.8786-9.239-3.022-9.5732-4.1307-9.626l-0.53016-0.025-0.53584 1.8499c-0.29471 1.0173-0.74338 2.5012-0.99704 3.2976-2.2679 7.1189-2.4474 8.5341-1.2493 9.8497 0.18004 0.1978 0.5691 0.4049 0.8646 0.4604 0.2955 0.055 0.53777 0.183 0.53838 0.2838 6.43e-4 0.1007-0.12389 0.9251-0.27668 1.832l-0.2778 1.6487h-20.203l0.08597-0.3619c0.04728-0.1991 0.21455-1.0134 0.37172-1.8096 0.26249-1.3299 0.31795-1.4509 0.68116-1.4881 1.7752-0.1814 2.9993-0.67 4.0447-1.6144 1.1996-1.0838 1.28-1.2903 3.2681-8.3985 1.1589-4.1433 2.2463-7.9937 2.6633-9.4302 0.26005-0.8957 0.61171-2.1625 0.78147-2.8149 0.16976-0.6525 0.59631-2.1997 0.94789-3.4383 0.85155-2.9999 2.1837-7.7409 2.8601-10.179 0.69054-2.4889 0.74007-3.922 0.16674-4.8242-0.4702-0.74-0.85314-1.0899-1.4347-1.311-0.30085-0.11439-5.0046-0.17876-14.316-0.19587-7.6272-0.014-16.19-0.069-19.029-0.12234l-5.1617-0.0968 0.21338-1.0449c0.11736-0.57469 0.24821-1.1357 0.29079-1.2466 0.06168-0.16072 5.9983-0.20174 29.2-0.20174h29.123l-0.08415 0.36192c-0.04628 0.19906-0.14048 0.64706-0.2093 0.99555-0.12274 0.62157-0.14489 0.63856-1.1655 0.89359-2.6166 0.65381-3.5983 1.6974-4.4641 4.7461-0.2764 0.9732-0.72606 2.4932-0.99925 3.3779-0.2732 0.8848-0.77431 2.5496-1.1136 3.6997-1.5863 5.3775-2.2644 7.6315-2.55 8.4771-0.20985 0.6211-0.25274 0.9379-0.13295 0.9818 0.09727 0.036 0.75454 0 1.4606-0.076 2.4348-0.2661 4.2963-1.5447 8.5893-5.8996 2.5729-2.6099 3.2013-3.3392 3.5988-4.1773 0.55862-1.1775 0.55222-2.0932-0.02019-2.8972-0.44442-0.6241-1.5485-1.1545-2.4035-1.1545-0.73623 0-0.78005-0.082-0.47989-0.9135l0.19317-0.5341h19.712l-0.0995 0.5227c-0.0548 0.2875-0.12492 0.5525-0.15597 0.589-0.031 0.036-0.69889 0.1613-1.484 0.2775-0.78519 0.1162-2.0342 0.4002-2.7756 0.6309-2.0288 0.6314-5.8061 2.6001-7.2996 3.8042-0.08849 0.071-0.63136 0.498-1.2064 0.9482-1.1766 0.9209-6.6138 6.3981-7.0894 7.1413-0.46478 0.7264-0.38447 1.415 0.47105 4.039 0.42955 1.3174 1.2657 3.9154 1.8581 5.7733 0.5924 1.8577 1.3207 4.1017 1.6184 4.9865 0.2977 0.8845 0.84034 2.5495 1.2059 3.6996 1.6222 5.104 3.5889 11.172 3.8796 11.969 0.37104 1.018 0.87799 1.5425 1.716 1.7752 0.41284 0.1147 19.289 0.1678 59.85 0.1684h59.247l-0.0877 0.4423c-0.0482 0.2433-0.13269 0.7319-0.18768 1.0858-0.055 0.3538-0.13473 0.77-0.17719 0.9249-0.0734 0.2674-3.4645 0.2815-68.34 0.2815-37.544 0-68.295-0.054-68.336-0.1206zm-45.065-7.5003c-4.1281-0.7502-6.8614-2.5578-8.2904-5.4828-0.88059-1.8024-1.1759-3.4493-1.0828-6.0374 0.07184-1.9958 0.33134-3.5375 1.8141-10.778 0.60761-2.9669 0.81567-4.0328 1.1303-5.7907 0.11875-0.6636 0.40795-2.1113 0.64266-3.2172 1.2621-5.9467 1.2421-6.9459-0.16359-8.1802-0.3389-0.2977-0.83389-0.5451-1.2105-0.6053-0.66331-0.1061-0.68906-0.1816-0.39157-1.1472 0.04855-0.1576 1.9351-0.2011 8.7263-0.2011 4.7654 0 8.703 0.039 8.7502 0.085 0.0472 0.047 0.03982 0.3107-0.01641 0.5856-0.09087 0.4443-0.1968 0.524-0.95396 0.7178-1.4856 0.3802-2.7448 1.4613-3.3282 2.8574-0.22351 0.5349-0.87361 3.3811-1.3815 6.048-0.18006 0.9456-1.6955 8.4965-1.9209 9.5709-0.24301 1.1586-1.1475 5.7636-1.3744 6.9971-0.3185 1.7319-0.46567 6.1365-0.24429 7.3108 0.3403 1.805 1.3454 3.1631 2.8163 3.8053 1.169 0.5102 4.0227 0.6243 5.5383 0.2212 1.1264-0.2995 2.5034-0.9209 2.8837-1.3012 0.12319-0.1232 0.28858-0.224 0.36753-0.224 0.07896 0 0.67095-0.5317 1.3156-1.1817 1.3642-1.3756 2.4735-3.1422 3.357-5.3462 0.74407-1.8563 0.89931-2.4712 1.743-6.9034 0.93516-4.9129 1.0173-5.3351 2.033-10.456 1.1239-5.6658 1.2738-7.5778 0.70147-8.9462-0.47034-1.1245-1.4934-2.1177-2.4603-2.3884-0.76274-0.2136-0.84165-0.3477-0.64234-1.0913l0.09699-0.362h5.9329c6.4267 0 6.1254-0.045 5.7819 0.8588-0.11882 0.3126-0.3323 0.4361-1.0017 0.5796-1.6878 0.362-3.5636 1.8552-4.558 3.6286-0.59442 1.06-0.67974 1.3698-1.2848 4.6647-0.22745 1.2386-0.47786 2.5415-0.55648 2.8954-0.21914 0.9864-0.45474 2.183-0.96589 4.9061-1.8828 10.03-2.1695 11.308-3.0074 13.408-1.303 3.2651-3.5845 6.2661-6.0514 7.9597-1.1967 0.8217-3.3288 1.8241-4.76 2.238-1.1883 0.3437-1.7853 0.4094-4.124 0.4539-1.7419 0.033-3.1433-0.022-3.8605-0.1527zm85.363-0.2923c-0.0888-0.2923-0.27676-1.183-0.4176-1.9793-0.14085-0.7961-0.47638-2.642-0.74559-4.1017-0.26923-1.4598-0.63473-3.4504-0.81222-4.4235-0.1775-0.9732-0.3913-2.1313-0.47508-2.5737-0.0838-0.4423-0.29481-1.6005-0.46889-2.5737-0.70175-3.9228-1.808-9.9439-2.1759-11.843-0.13069-0.6748-0.41943-2.2633-0.64163-3.5299-0.53696-3.0613-0.67213-3.1833-1.0562-0.9538-0.099 0.575-0.27886 1.5885-0.3996 2.252-0.12073 0.6634-0.36419 2.0026-0.54102 2.9757-0.17683 0.9732-0.47266 2.5657-0.6574 3.5389-0.18473 0.9732-0.52135 2.8189-0.74804 4.1017-0.74717 4.2282-1.3599 7.6028-1.8986 10.456-0.22551 1.1944-0.4107 2.409-0.41155 2.6995-6e-3 1.8016 2.0847 3.6481 4.363 3.8546l0.93151 0.084-0.0966 0.7422c-0.0531 0.4083-0.16783 0.8328-0.25492 0.9433-0.12236 0.1554-1.763 0.2011-7.2235 0.2011h-7.0652l0.11023-0.6033c0.22086-1.2086 0.31578-1.3268 1.0666-1.3287 1.5496 0 3.9709-1.1137 5.0818-2.3293 0.9036-0.9886 1.0322-1.352 1.5659-4.4248 0.70706-4.0711 0.8751-5.0181 1.2704-7.158 0.21242-1.1502 0.43386-2.4169 0.4921-2.815 0.0583-0.3982 0.16983-0.9772 0.24801-1.2869 0.0782-0.3096 0.43741-2.3002 0.79832-4.4235s0.8294-4.7653 1.0411-5.8712c1.1774-6.151 1.2098-6.6182 0.54939-7.9128-0.36524-0.7159-1.2898-1.3876-2.0876-1.5167-0.56057-0.09-0.57283-0.1081-0.47986-0.6802l0.0954-0.587 7.021-0.042 7.021-0.043 0.18282 0.8462c0.10057 0.4654 0.31975 1.6437 0.48713 2.6184 0.16736 0.9746 0.41146 2.3137 0.54245 2.9757 0.4975 2.5144 0.74177 3.8403 1.0663 5.788 0.18429 1.1059 0.50568 2.9155 0.71422 4.0214 0.20852 1.1059 0.64875 3.4402 0.97826 5.1875s0.65548 3.1768 0.72438 3.1768c0.10661 0 1.9407-3.1126 3.4595-5.8711 0.24356-0.4424 0.79455-1.4036 1.2244-2.1363 0.42989-0.7325 0.78164-1.3555 0.78164-1.3843 0-0.072 1.6113-2.8746 1.7675-3.0744 0.0692-0.088 0.43432-0.7399 0.81141-1.4477s0.7689-1.3955 0.87069-1.5281c0.10179-0.1327 0.39274-0.6395 0.64656-1.1261 0.25381-0.4865 1.1503-2.079 1.9922-3.5387 0.84189-1.4598 1.7527-3.0726 2.024-3.584l0.4933-0.9299 17.372 0.05 17.372 0.049 1.2672 0.3649c4.4116 1.2706 6.8159 3.8891 7.272 7.9203l0.10953 0.9681 0.75177-1.1729c2.2419-3.4977 5.6502-6.2673 9.7541-7.9261 3.5892-1.4507 6.3595-1.9294 10.443-1.8045 2.6657 0.082 3.2779 0.1791 5.7574 0.9158 0.85543 0.254 3.1033 1.4072 4.0169 2.0606 0.56635 0.405 0.86876 0.5224 1.1582 0.4498 0.34523-0.086 1.3112-1.1185 2.0162-2.1538 0.13271-0.1948 0.47653-0.3997 0.76406-0.4553 0.62771-0.1212 0.63171-0.094 0.27134 1.8695-0.31897 1.7375-1.1763 6.6246-1.9611 11.179l-0.60977 3.5388-0.51909 0.051c-0.5159 0.049-0.5191 0.046-0.5191-0.6781 0-1.0747-0.45913-4.189-0.81272-5.5127-0.98645-3.6927-2.7714-6.4888-5.1612-8.0845-1.4938-0.9975-2.8403-1.3374-5.0058-1.2634-2.7918 0.095-4.1038 0.7361-5.9077 2.8853-2.5117 2.9926-3.9542 8.1489-5.2357 18.716-0.92149 7.5979-0.18824 12.355 2.306 14.959 1.1474 1.1984 1.4914 1.4454 2.705 1.9429 0.97744 0.4007 1.3141 0.4546 2.8764 0.4611 2.0041 0.01 2.8031-0.2453 3.7479-1.1901 0.93639-0.9364 1.0443-1.2256 2.8388-7.6073 1.428-5.0783 0.98088-7.0588-1.6574-7.3424l-0.90795-0.098 0.0326-0.7338c0.0179-0.4035 0.10667-0.9284 0.1971-1.1661l0.16441-0.4325h9.343c6.3908 0 9.3106 0.052 9.2403 0.1663-0.0565 0.091-0.13749 0.5439-0.17992 1.0053-0.0424 0.4615-0.14351 0.9061-0.22456 0.9879-0.0811 0.083-0.61727 0.2056-1.1916 0.2748-1.1784 0.1418-1.7404 0.3871-2.4049 1.0493-0.98301 0.9798-1.2939 1.9915-2.5002 8.1367-0.62974 3.2078-1.275 6.4115-1.4338 7.1193l-0.28881 1.2868-0.60618 0.01c-0.53602 0-0.64037-0.062-0.90148-0.574-0.29721-0.5826-1.475-1.7633-1.759-1.7633-0.084 0-0.71709 0.2471-1.407 0.5491-5.6842 2.4883-11.414 3.2543-15.876 2.1226-0.87597-0.2222-1.6686-0.4799-1.7614-0.5726-0.0928-0.093-0.261-0.1689-0.37381-0.1689-0.45131 0-2.3544-1.0036-3.6189-1.9086-3.4059-2.4375-5.7888-5.7217-7.1929-9.914-0.98077-2.9284-1.2077-4.3611-1.2165-7.6809-5e-3 -1.5703-0.0127-2.8552-0.019-2.8552-7e-3 0-0.4768 0.455-1.0456 1.0113-1.7448 1.7062-4.1228 2.99-6.8249 3.6847-1.0887 0.2799-1.9921 0.3463-5.8678 0.4313l-4.581 0.1005-0.17975 1.0455c-0.0988 0.5751-0.33391 1.7695-0.52236 2.6542-0.43371 2.0361-1.3712 6.6522-1.7184 8.4613-0.33136 1.7265-0.16849 2.5061 0.70634 3.3808 0.45285 0.453 0.77761 0.6217 1.3659 0.71l0.77178 0.1156-0.10912 0.5816c-0.06 0.3199-0.14373 0.6377-0.18605 0.7062-0.10641 0.1721-35.892 0.1418-35.999-0.03-0.0472-0.077-0.042-0.3582 0.0116-0.6262 0.0852-0.4264 0.19584-0.5109 0.88459-0.676 0.95987-0.2304 2.2186-1.2996 2.6976-2.2915 0.18063-0.374 0.58574-1.8381 0.90026-3.2537 0.9504-4.2774 1.4717-6.5965 2.2598-10.053 0.41347-1.8136 0.84964-3.7877 0.96926-4.3867 0.11963-0.599 0.24988-1.1419 0.28944-1.2064 0.0396-0.065 0.1172-0.4067 0.17253-0.7606 0.0553-0.3539 0.20875-1.0415 0.34093-1.5282 0.51973-1.9131 1.0058-4.4305 0.88061-4.5602-0.0726-0.076-0.33257 0.2144-0.57768 0.6435s-0.68669 1.2002-0.9813 1.7136c-0.29459 0.5134-0.53562 0.9744-0.53562 1.0245 0 0.049-0.24527 0.4986-0.54504 0.9967-0.29977 0.4982-1.0149 1.7744-1.5893 2.8361-0.57432 1.0617-1.3889 2.5455-1.8101 3.2974-0.8482 1.5142-1.5305 2.7481-2.9797 5.3886-0.5341 0.9733-1.0416 1.8781-1.1278 2.0107-0.14088 0.2171-1.3786 2.4676-3.052 5.5496-2.4256 4.4672-3.6766 6.6018-3.894 6.644-0.16595 0.032-0.30795-0.1332-0.41408-0.4826zm27.761-2.3049c1.6214-0.4816 2.396-1.5779 2.839-4.0187 0.14438-0.7955 0.33418-1.7721 0.42175-2.1703 0.24426-1.1104 2.5405-13.102 3.2033-16.729 0.18593-1.0173 0.40427-2.1393 0.48517-2.4931 0.56685-2.4796 1.7721-9.1521 1.7724-9.8122 3.2e-4 -0.804-0.4657-1.5889-1.1576-1.9496-0.77331-0.4031-2.8207-0.4957-3.4754-0.1572-1.0234 0.5293-0.86752-0.1006-3.9858 16.101-0.22136 1.1501-0.4722 2.3808-0.55743 2.7345-0.14902 0.6189-1.061 5.3001-1.5199 7.8016-0.12172 0.6634-0.44862 2.2559-0.72645 3.5387-0.63646 2.9388-0.80462 5.4884-0.41208 6.2474 0.32969 0.6375 1.1289 1.1506 1.7938 1.1513 0.27146 4e-4 0.86521-0.1098 1.3194-0.2446zm20.339-17.287c3.2929-1.2418 6.1688-7.2977 6.6461-13.995 0.20583-2.888-0.39302-5.1208-1.5312-5.7095-0.34895-0.1804-1.0198-0.2421-2.6318-0.2421h-2.1635l-0.17217 0.764c-0.0947 0.4202-0.24532 1.1622-0.3347 1.6488-0.0894 0.4865-0.38604 1.9343-0.65926 3.217-0.27321 1.2829-0.53202 2.5135-0.57512 2.7346-0.64735 3.3217-2.2909 11.294-2.3718 11.505-0.13333 0.3473 0.062 0.3982 1.5281 0.3982 1.0218 0 1.6511-0.089 2.2654-0.3207z" fill="#fff" stroke-width=".16085"/>
</g>
</svg>
