<?xml version="1.0" encoding="UTF-8" standalone="no"?>
<svg
   xmlns:dc="http://purl.org/dc/elements/1.1/"
   xmlns:cc="http://creativecommons.org/ns#"
   xmlns:rdf="http://www.w3.org/1999/02/22-rdf-syntax-ns#"
   xmlns:svg="http://www.w3.org/2000/svg"
   xmlns="http://www.w3.org/2000/svg"
   xmlns:sodipodi="http://sodipodi.sourceforge.net/DTD/sodipodi-0.dtd"
   xmlns:inkscape="http://www.inkscape.org/namespaces/inkscape"
   width="250"
   height="91"
   viewBox="0 0 250 91"
   id="svg2"
   version="1.1"
   inkscape:version="1.0 (4035a4fb49, 2020-05-01)"
   sodipodi:docname="ukmpg.svg">
  <defs
     id="defs4">
    <style
       id="style1418">.cls-1{fill:#fff;fill-rule:evenodd}</style>
  </defs>
  <sodipodi:namedview
     id="base"
     pagecolor="#ffffff"
     bordercolor="#666666"
     borderopacity="1.0"
     inkscape:pageopacity="0.0"
     inkscape:pageshadow="2"
     inkscape:zoom="1.9799"
     inkscape:cx="239.01222"
     inkscape:cy="108.72016"
     inkscape:document-units="px"
     inkscape:current-layer="layer1"
     showgrid="false"
     inkscape:window-width="1920"
     inkscape:window-height="1046"
     inkscape:window-x="-11"
     inkscape:window-y="-11"
     inkscape:window-maximized="1"
     units="px"
     inkscape:document-rotation="0" />
  <metadata
     id="metadata7">
    <rdf:RDF>
      <cc:Work
         rdf:about="">
        <dc:format>image/svg+xml</dc:format>
        <dc:type
           rdf:resource="http://purl.org/dc/dcmitype/StillImage" />
        <dc:title></dc:title>
      </cc:Work>
    </rdf:RDF>
  </metadata>
  <g
     inkscape:label="Layer 1"
     inkscape:groupmode="layer"
     id="layer1"
     transform="translate(0,-961.4)">
    <rect
       style="opacity:0.001;fill:none;fill-opacity:1;stroke:none;stroke-width:2.5;stroke-linecap:round;stroke-linejoin:round;stroke-miterlimit:4;stroke-dasharray:none;stroke-dashoffset:0;stroke-opacity:1"
       id="rect4175"
       width="250"
       height="91"
       x="0"
       y="961.4" />
    <path
       id="path855"
       d="m 79.454728,1035.2509 c -0.04047,-0.066 -0.125446,-0.6083 -0.18887,-1.2043 -0.06341,-0.5961 -0.125085,-1.139 -0.137012,-1.2065 -0.01189,-0.067 0.513681,-0.1759 1.168026,-0.2411 1.426871,-0.1424 2.238929,-0.5098 2.630059,-1.1899 0.284193,-0.4943 0.281796,-0.5293 -0.121556,-1.7695 -0.442958,-1.3618 -1.534712,-4.8617 -1.598955,-5.1257 -0.02157,-0.088 -0.122652,-0.3646 -0.224714,-0.6137 -0.102071,-0.249 -0.185578,-0.5103 -0.185578,-0.5807 0,-0.07 -0.24502,-0.88 -0.544485,-1.7992 -0.299466,-0.9191 -0.882774,-2.7569 -1.296237,-4.084 -2.878583,-9.239 -3.022011,-9.5732 -4.130695,-9.626 l -0.530159,-0.025 -0.535845,1.8499 c -0.294714,1.0173 -0.743382,2.5012 -0.997038,3.2976 -2.267909,7.1189 -2.447399,8.5341 -1.249272,9.8497 0.180035,0.1978 0.569103,0.4049 0.864599,0.4604 0.295496,0.055 0.537769,0.183 0.538384,0.2838 6.43e-4,0.1007 -0.123893,0.9251 -0.276684,1.832 l -0.2778,1.6487 H 62.259401 52.157906 l 0.08597,-0.3619 c 0.04728,-0.1991 0.214553,-1.0134 0.371718,-1.8096 0.262491,-1.3299 0.317948,-1.4509 0.68116,-1.4881 1.775226,-0.1814 2.999326,-0.67 4.04468,-1.6144 1.199638,-1.0838 1.280021,-1.2903 3.268141,-8.3985 1.158854,-4.1433 2.246285,-7.9937 2.663313,-9.4302 0.260048,-0.8957 0.61171,-2.1625 0.781471,-2.8149 0.169762,-0.6525 0.596313,-2.1997 0.947891,-3.4383 0.851552,-2.9999 2.183682,-7.7409 2.860082,-10.1786 0.690539,-2.4889 0.740071,-3.922 0.166739,-4.8242 -0.470198,-0.74 -0.853138,-1.0899 -1.434657,-1.31101 -0.300851,-0.11439 -5.004582,-0.17876 -14.315754,-0.19587 -7.627221,-0.014 -16.190436,-0.069 -19.029364,-0.12234 l -5.161689,-0.0968 0.213376,-1.04487 c 0.117357,-0.57469 0.248213,-1.13567 0.290792,-1.24663 0.06168,-0.16072 5.998342,-0.20174 29.200188,-0.20174 h 29.122762 l -0.08415,0.36192 c -0.04628,0.19906 -0.140479,0.64706 -0.209295,0.99555 -0.122735,0.62157 -0.144893,0.63856 -1.165509,0.89359 -2.616649,0.65381 -3.598258,1.6974 -4.464126,4.7461 -0.276395,0.9732 -0.726063,2.4932 -0.99925,3.3779 -0.273198,0.8848 -0.774306,2.5496 -1.11358,3.6997 -1.586319,5.3775 -2.264369,7.6315 -2.550045,8.4771 -0.209851,0.6211 -0.252744,0.9379 -0.132952,0.9818 0.09727,0.036 0.754535,0 1.46059,-0.076 2.434767,-0.2661 4.2963,-1.5447 8.58932,-5.8996 2.572913,-2.6099 3.201265,-3.3392 3.59881,-4.1773 0.558616,-1.1775 0.552218,-2.0932 -0.02019,-2.8972 -0.444424,-0.6241 -1.548547,-1.1545 -2.403475,-1.1545 -0.736229,0 -0.780048,-0.082 -0.479891,-0.9135 l 0.193173,-0.5341 h 9.856204 9.856221 l -0.0995,0.5227 c -0.0548,0.2875 -0.12492,0.5525 -0.15597,0.589 -0.031,0.036 -0.69889,0.1613 -1.48405,0.2775 -0.78519,0.1162 -2.03421,0.4002 -2.7756,0.6309 -2.02877,0.6314 -5.80611,2.6001 -7.29963,3.8042 -0.08849,0.071 -0.631357,0.498 -1.206406,0.9482 -1.176625,0.9209 -6.613789,6.3981 -7.089357,7.1413 -0.464775,0.7264 -0.384466,1.415 0.471052,4.039 0.429547,1.3174 1.265691,3.9154 1.858096,5.7733 0.592405,1.8577 1.320662,4.1017 1.618357,4.9865 0.297696,0.8845 0.840338,2.5495 1.205881,3.6996 1.622237,5.104 3.588893,11.1716 3.879592,11.9694 0.371037,1.018 0.87799,1.5425 1.716005,1.7752 0.412836,0.1147 19.28852,0.1678 59.85046,0.1684 h 59.24743 l -0.0877,0.4423 c -0.0482,0.2433 -0.13269,0.7319 -0.18768,1.0858 -0.055,0.3538 -0.13473,0.77 -0.17719,0.9249 -0.0734,0.2674 -3.46447,0.2815 -68.33961,0.2815 -37.54431,0 -68.295488,-0.054 -68.335943,-0.1206 z m -45.065112,-7.5003 c -4.128072,-0.7502 -6.861373,-2.5578 -8.29038,-5.4828 -0.880591,-1.8024 -1.175938,-3.4493 -1.082774,-6.0374 0.07184,-1.9958 0.331343,-3.5375 1.814122,-10.7777 0.607609,-2.9669 0.815667,-4.0328 1.130295,-5.7907 0.118754,-0.6636 0.407952,-2.1113 0.642664,-3.2172 1.262132,-5.9467 1.242147,-6.9459 -0.163591,-8.1802 -0.338898,-0.2977 -0.833888,-0.5451 -1.210541,-0.6053 -0.663307,-0.1061 -0.689063,-0.1816 -0.391567,-1.1472 0.04855,-0.1576 1.935092,-0.2011 8.726324,-0.2011 4.765409,0 8.702998,0.039 8.750198,0.085 0.0472,0.047 0.03982,0.3107 -0.01641,0.5856 -0.09087,0.4443 -0.1968,0.524 -0.953961,0.7178 -1.485567,0.3802 -2.744847,1.4613 -3.328172,2.8574 -0.223511,0.5349 -0.873613,3.3811 -1.381477,6.048 -0.180064,0.9456 -1.695519,8.4965 -1.920857,9.5709 -0.24301,1.1586 -1.147527,5.7636 -1.374366,6.9971 -0.318497,1.7319 -0.465673,6.1365 -0.244288,7.3108 0.3403,1.805 1.345368,3.1631 2.816298,3.8053 1.169017,0.5102 4.022666,0.6243 5.5383,0.2212 1.126352,-0.2995 2.503391,-0.9209 2.883685,-1.3012 0.123192,-0.1232 0.288581,-0.224 0.367533,-0.224 0.07896,0 0.670953,-0.5317 1.31556,-1.1817 1.364225,-1.3756 2.473549,-3.1422 3.356953,-5.3462 0.744072,-1.8563 0.899311,-2.4712 1.742981,-6.9034 0.935161,-4.9129 1.017257,-5.3351 2.032951,-10.4556 1.123889,-5.6658 1.273804,-7.5778 0.701474,-8.9462 -0.470339,-1.1245 -1.493386,-2.1177 -2.460254,-2.3884 -0.762742,-0.2136 -0.841648,-0.3477 -0.642338,-1.0913 l 0.09699,-0.362 h 5.932854 c 6.426665,0 6.125377,-0.045 5.781853,0.8588 -0.118822,0.3126 -0.3323,0.4361 -1.001693,0.5796 -1.68785,0.362 -3.563577,1.8552 -4.557953,3.6286 -0.594423,1.06 -0.679735,1.3698 -1.284811,4.6647 -0.227449,1.2386 -0.477865,2.5415 -0.556484,2.8954 -0.219135,0.9864 -0.454738,2.183 -0.965888,4.9061 -1.882823,10.03 -2.169488,11.3081 -3.007368,13.4075 -1.303003,3.2651 -3.584512,6.2661 -6.051351,7.9597 -1.196719,0.8217 -3.328828,1.8241 -4.760039,2.238 -1.188295,0.3437 -1.785323,0.4094 -4.123971,0.4539 -1.741862,0.033 -3.14327,-0.022 -3.860507,-0.1527 z m 85.363414,-0.2923 c -0.0888,-0.2923 -0.27676,-1.183 -0.4176,-1.9793 -0.14085,-0.7961 -0.47638,-2.642 -0.74559,-4.1017 -0.26923,-1.4598 -0.63473,-3.4504 -0.81222,-4.4235 -0.1775,-0.9732 -0.3913,-2.1313 -0.47508,-2.5737 -0.0838,-0.4423 -0.29481,-1.6005 -0.46889,-2.5737 -0.70175,-3.9228 -1.80798,-9.9439 -2.17588,-11.843 -0.13069,-0.6748 -0.41943,-2.2633 -0.64163,-3.5299 -0.53696,-3.0613 -0.67213,-3.1833 -1.05615,-0.9538 -0.099,0.575 -0.27886,1.5885 -0.3996,2.252 -0.12073,0.6634 -0.36419,2.0026 -0.54102,2.9757 -0.17683,0.9732 -0.47266,2.5657 -0.6574,3.5389 -0.18473,0.9732 -0.52135,2.8189 -0.74804,4.1017 -0.74717,4.2282 -1.35994,7.6028 -1.89861,10.4556 -0.22551,1.1944 -0.4107,2.409 -0.41155,2.6995 -0.006,1.8016 2.08472,3.6481 4.36304,3.8546 l 0.93151,0.084 -0.0966,0.7422 c -0.0531,0.4083 -0.16783,0.8328 -0.25492,0.9433 -0.12236,0.1554 -1.76304,0.2011 -7.22352,0.2011 h -7.065181 l 0.110228,-0.6033 c 0.220861,-1.2086 0.315779,-1.3268 1.066563,-1.3287 1.54964,0 3.97089,-1.1137 5.08182,-2.3293 0.9036,-0.9886 1.03218,-1.352 1.56587,-4.4248 0.70706,-4.0711 0.8751,-5.0181 1.27035,-7.158 0.21242,-1.1502 0.43386,-2.4169 0.4921,-2.815 0.0583,-0.3982 0.16983,-0.9772 0.24801,-1.2869 0.0782,-0.3096 0.43741,-2.3002 0.79832,-4.4235 0.36091,-2.1233 0.8294,-4.7653 1.04107,-5.8712 1.17736,-6.151 1.20981,-6.6182 0.54939,-7.9128 -0.36524,-0.7159 -1.28981,-1.3876 -2.08759,-1.5167 -0.56057,-0.09 -0.57283,-0.1081 -0.47986,-0.6802 l 0.0954,-0.587 7.02099,-0.042 7.02099,-0.043 0.18282,0.8462 c 0.10057,0.4654 0.31975,1.6437 0.48713,2.6184 0.16736,0.9746 0.41146,2.3137 0.54245,2.9757 0.4975,2.5144 0.74177,3.8403 1.06634,5.788 0.18429,1.1059 0.50568,2.9155 0.71422,4.0214 0.20852,1.1059 0.64875,3.4402 0.97826,5.1875 0.32951,1.7473 0.65548,3.1768 0.72438,3.1768 0.10661,0 1.9407,-3.1126 3.45953,-5.8711 0.24356,-0.4424 0.79455,-1.4036 1.22445,-2.1363 0.42989,-0.7325 0.78164,-1.3555 0.78164,-1.3843 0,-0.072 1.61127,-2.8746 1.76752,-3.0744 0.0692,-0.088 0.43432,-0.7399 0.81141,-1.4477 0.37709,-0.7078 0.7689,-1.3955 0.87069,-1.5281 0.10179,-0.1327 0.39274,-0.6395 0.64656,-1.1261 0.25381,-0.4865 1.15031,-2.079 1.9922,-3.5387 0.84189,-1.4598 1.7527,-3.0726 2.02402,-3.584 l 0.4933,-0.9299 17.37229,0.05 17.37228,0.049 1.26725,0.3649 c 4.41161,1.2706 6.81593,3.8891 7.27199,7.9203 l 0.10953,0.9681 0.75177,-1.1729 c 2.24192,-3.4977 5.65022,-6.2673 9.75412,-7.9261 3.58918,-1.4507 6.35946,-1.9294 10.44256,-1.8045 2.66569,0.082 3.27791,0.1791 5.75745,0.9158 0.85543,0.254 3.10327,1.4072 4.01689,2.0606 0.56635,0.405 0.86876,0.5224 1.15821,0.4498 0.34523,-0.086 1.31117,-1.1185 2.01623,-2.1538 0.13271,-0.1948 0.47653,-0.3997 0.76406,-0.4553 0.62771,-0.1212 0.63171,-0.094 0.27134,1.8695 -0.31897,1.7375 -1.17629,6.6246 -1.96111,11.1793 l -0.60977,3.5388 -0.51909,0.051 c -0.5159,0.049 -0.5191,0.046 -0.5191,-0.6781 0,-1.0747 -0.45913,-4.189 -0.81272,-5.5127 -0.98645,-3.6927 -2.77145,-6.4888 -5.16115,-8.0845 -1.49381,-0.9975 -2.84026,-1.3374 -5.0058,-1.2634 -2.79182,0.095 -4.10383,0.7361 -5.90769,2.8853 -2.51169,2.9926 -3.95416,8.1489 -5.23569,18.7155 -0.92149,7.5979 -0.18824,12.3547 2.306,14.9594 1.14743,1.1984 1.49142,1.4454 2.70502,1.9429 0.97744,0.4007 1.31412,0.4546 2.87641,0.4611 2.00414,0.01 2.80313,-0.2453 3.74788,-1.1901 0.93639,-0.9364 1.04433,-1.2256 2.83885,-7.6073 1.42796,-5.0783 0.98088,-7.0588 -1.65741,-7.3424 l -0.90795,-0.098 0.0326,-0.7338 c 0.0179,-0.4035 0.10667,-0.9284 0.1971,-1.1661 l 0.16441,-0.4325 h 9.34304 c 6.39077,0 9.31056,0.052 9.24026,0.1663 -0.0565,0.091 -0.13749,0.5439 -0.17992,1.0053 -0.0424,0.4615 -0.14351,0.9061 -0.22456,0.9879 -0.0811,0.083 -0.61727,0.2056 -1.19155,0.2748 -1.17841,0.1418 -1.74041,0.3871 -2.4049,1.0493 -0.98301,0.9798 -1.29388,1.9915 -2.50024,8.1367 -0.62974,3.2078 -1.27497,6.4115 -1.43381,7.1193 l -0.28881,1.2868 -0.60618,0.01 c -0.53602,0 -0.64037,-0.062 -0.90148,-0.574 -0.29721,-0.5826 -1.47503,-1.7633 -1.75896,-1.7633 -0.084,0 -0.71709,0.2471 -1.40702,0.5491 -5.6842,2.4883 -11.41418,3.2543 -15.87626,2.1226 -0.87597,-0.2222 -1.66857,-0.4799 -1.76136,-0.5726 -0.0928,-0.093 -0.261,-0.1689 -0.37381,-0.1689 -0.45131,0 -2.35435,-1.0036 -3.61886,-1.9086 -3.40594,-2.4375 -5.78877,-5.7217 -7.19293,-9.914 -0.98077,-2.9284 -1.20768,-4.3611 -1.21653,-7.6809 -0.005,-1.5703 -0.0127,-2.8552 -0.019,-2.8552 -0.007,0 -0.4768,0.455 -1.04556,1.0113 -1.74484,1.7062 -4.1228,2.99 -6.82488,3.6847 -1.08872,0.2799 -1.99208,0.3463 -5.86779,0.4313 l -4.58096,0.1005 -0.17975,1.0455 c -0.0988,0.5751 -0.33391,1.7695 -0.52236,2.6542 -0.43371,2.0361 -1.37117,6.6522 -1.71839,8.4613 -0.33136,1.7265 -0.16849,2.5061 0.70634,3.3808 0.45285,0.453 0.77761,0.6217 1.36589,0.71 l 0.77178,0.1156 -0.10912,0.5816 c -0.06,0.3199 -0.14373,0.6377 -0.18605,0.7062 -0.10641,0.1721 -35.8923,0.1418 -35.99881,-0.03 -0.0472,-0.077 -0.042,-0.3582 0.0116,-0.6262 0.0852,-0.4264 0.19584,-0.5109 0.88459,-0.676 0.95987,-0.2304 2.21863,-1.2996 2.69761,-2.2915 0.18063,-0.374 0.58574,-1.8381 0.90026,-3.2537 0.9504,-4.2774 1.4717,-6.5965 2.25978,-10.0534 0.41347,-1.8136 0.84964,-3.7877 0.96926,-4.3867 0.11963,-0.599 0.24988,-1.1419 0.28944,-1.2064 0.0396,-0.065 0.1172,-0.4067 0.17253,-0.7606 0.0553,-0.3539 0.20875,-1.0415 0.34093,-1.5282 0.51973,-1.9131 1.00585,-4.4305 0.88061,-4.5602 -0.0726,-0.076 -0.33257,0.2144 -0.57768,0.6435 -0.24511,0.4291 -0.68669,1.2002 -0.9813,1.7136 -0.29459,0.5134 -0.53562,0.9744 -0.53562,1.0245 0,0.049 -0.24527,0.4986 -0.54504,0.9967 -0.29977,0.4982 -1.01493,1.7744 -1.58926,2.8361 -0.57432,1.0617 -1.38887,2.5455 -1.81013,3.2974 -0.8482,1.5142 -1.53046,2.7481 -2.97969,5.3886 -0.5341,0.9733 -1.04159,1.8781 -1.12775,2.0107 -0.14088,0.2171 -1.3786,2.4676 -3.05199,5.5496 -2.42559,4.4672 -3.67663,6.6018 -3.89398,6.644 -0.16595,0.032 -0.30795,-0.1332 -0.41408,-0.4826 z m 27.76087,-2.3049 c 1.62144,-0.4816 2.39596,-1.5779 2.83896,-4.0187 0.14438,-0.7955 0.33418,-1.7721 0.42175,-2.1703 0.24426,-1.1104 2.54049,-13.1022 3.2033,-16.7289 0.18593,-1.0173 0.40427,-2.1393 0.48517,-2.4931 0.56685,-2.4796 1.77211,-9.1521 1.77236,-9.8122 3.2e-4,-0.804 -0.4657,-1.5889 -1.15765,-1.9496 -0.77331,-0.4031 -2.82067,-0.4957 -3.47541,-0.1572 -1.02343,0.5293 -0.86752,-0.1006 -3.98582,16.1011 -0.22136,1.1501 -0.4722,2.3808 -0.55743,2.7345 -0.14902,0.6189 -1.06104,5.3001 -1.51994,7.8016 -0.12172,0.6634 -0.44862,2.2559 -0.72645,3.5387 -0.63646,2.9388 -0.80462,5.4884 -0.41208,6.2474 0.32969,0.6375 1.12892,1.1506 1.79383,1.1513 0.27146,4e-4 0.86521,-0.1098 1.31941,-0.2446 z m 20.33868,-17.2869 c 3.2929,-1.2418 6.16875,-7.2977 6.64607,-13.9953 0.20583,-2.888 -0.39302,-5.1208 -1.53118,-5.7095 -0.34895,-0.1804 -1.01975,-0.2421 -2.6318,-0.2421 h -2.16348 l -0.17217,0.764 c -0.0947,0.4202 -0.24532,1.1622 -0.3347,1.6488 -0.0894,0.4865 -0.38604,1.9343 -0.65926,3.217 -0.27321,1.2829 -0.53202,2.5135 -0.57512,2.7346 -0.64735,3.3217 -2.29091,11.294 -2.37182,11.505 -0.13333,0.3473 0.062,0.3982 1.52809,0.3982 1.0218,0 1.65112,-0.089 2.26537,-0.3207 z"
       style="fill:#ffffff;stroke-width:0.160854" />
  </g>
</svg>
