<?xml version="1.0" encoding="UTF-8"?>
<svg version="1.1" viewBox="0 0 250 91" xmlns="http://www.w3.org/2000/svg" xmlns:cc="http://creativecommons.org/ns#" xmlns:dc="http://purl.org/dc/elements/1.1/" xmlns:rdf="http://www.w3.org/1999/02/22-rdf-syntax-ns#">
<metadata>
<rdf:RDF>
<cc:Work rdf:about="">
<dc:format>image/svg+xml</dc:format>
<dc:type rdf:resource="http://purl.org/dc/dcmitype/StillImage"/>
<dc:title/>
</cc:Work>
</rdf:RDF>
</metadata>
<g transform="translate(0,-961.4)" fill="#fff">
<path d="m22.846 1043.7-0.66006-0.069-3.725-6.3056c-2.0487-3.468-4.0273-6.8699-4.3968-7.5597l-0.67179-1.2542-0.0045 7.5698-0.0045 7.57h-3.0459v-19.888h3.5506l3.7565 6.4053c2.0661 3.5228 3.9243 6.7278 4.1294 7.122l0.37287 0.7166 0.0079-7.122 0.0079-7.1219h3.0459v20.067l-0.85105-0.03c-0.46808-0.017-1.1481-0.061-1.5111-0.1zm8.4668-0.1892c-1.0545-0.4096-2.6179-1.8593-3.161-2.931-1.306-2.5772-1.298-6.8846 0.01748-9.4807 1.2076-2.3829 3.7931-3.6283 6.6846-3.2195 2.7186 0.3842 4.2879 1.8734 4.9547 4.7017 0.22146 0.9393 0.37895 3.1665 0.22584 3.1938-0.02463 0-2.1686 0.3209-4.7643 0.7032-2.5957 0.3823-4.7518 0.7274-4.7912 0.7668-0.16348 0.1634 0.51218 2.2429 0.92127 2.8353 0.24317 0.3521 0.78368 0.8359 1.2011 1.075 0.66673 0.3818 0.96593 0.4323 2.4611 0.4148 1.2758-0.015 1.9489-0.1159 2.6875-0.403 0.54198-0.2107 0.99818-0.3831 1.0138-0.3832 0.01566 0 0.19372 0.4895 0.39587 1.0881l0.36752 1.0884-0.84379 0.3882c-0.73807 0.3395-1.203 0.3933-3.7105 0.4292-2.3541 0.034-3.0086-0.015-3.66-0.2671zm2.8538-8.7058 2.598-0.4035-0.06243-0.9745c-0.08468-1.323-0.65043-2.5901-1.3476-3.0186-1.7268-1.0611-3.7551-0.375-4.6303 1.5663-0.1925 0.4269-0.39543 1.3771-0.45098 2.1114l-0.10103 1.3354 0.69823-0.1067c0.38403-0.059 1.8673-0.288 3.2962-0.51zm10.382 8.5301c-0.8211-0.429-1.0565-0.672-1.5114-1.5612l-0.53888-1.0532-0.11806-10.508h-1.5841v-2.15h1.6125v-1.6916c0-0.9303 0.08025-1.7412 0.17848-1.8018 0.18853-0.1164 3.0448-0.9757 3.265-0.9821 0.07083 0 0.1515 0.984 0.17917 2.191l0.05029 2.1949 2.598 0.104v2.1344h-2.7077l0.05494 5.1817 0.05483 5.1818 0.43436 0.462c0.3384 0.36 0.60746 0.4621 1.2179 0.4621h0.78358l-0.1067 2.2396-1.4449 0.051c-1.294 0.046-1.5464 0-2.4174-0.4566zm29.996 0.1501c-0.96227-0.4369-2.1212-1.4919-2.6727-2.433-0.67658-1.1545-1.1549-3.3062-1.1549-5.1955 0-1.8892 0.47829-4.0409 1.1549-5.1954 0.56705-0.9677 1.7212-2.0028 2.7649-2.4799 1.2854-0.5875 3.8834-0.5467 5.2298 0.082 1.793 0.8376 3.1047 2.6574 3.5857 4.9742 0.32024 1.5426 0.1291 5.2507-0.33687 6.5355-0.58758 1.62-1.6104 2.845-2.9234 3.5011-1.035 0.5171-1.2414 0.5551-3.0087 0.5513-1.4678 0-2.0653-0.081-2.6387-0.3405zm3.4619-1.9961c0.79678-0.301 1.4538-1.045 1.7956-2.0331 0.24574-0.7106 0.31598-1.5048 0.31832-3.5993 0.0034-3.077-0.20087-4.0475-1.0617-5.0434-0.52002-0.6016-0.67022-0.6687-1.6352-0.7309-1.3449-0.086-2.0125 0.2953-2.5627 1.4657-1.0742 2.2853-0.86292 7.582 0.36472 9.1427 0.67527 0.8584 1.7815 1.176 2.781 0.7983zm30.441 1.9799c-0.4845-0.1892-0.94733-0.4103-1.0285-0.4916-0.0812-0.082 0.033-0.6114 0.25381-1.1783 0.28643-0.7353 0.47845-1.0061 0.67021-0.9451 0.1478 0.047 0.59125 0.2082 0.98542 0.3581 1.6301 0.6203 3.3342 0.2091 3.933-0.9489 0.77904-1.5065-0.0121-2.8068-2.2394-3.6806-2.4028-0.9427-3.5616-2.5607-3.344-4.6692 0.25648-2.4851 2.3246-4.2089 5.0495-4.2089 1.0066 0 2.6894 0.3877 3.4981 0.8059l0.51859 0.2682-0.36948 0.8516c-0.20322 0.4683-0.42422 0.9116-0.49113 0.9852-0.0669 0.074-0.43732-0.027-0.82315-0.224-0.80229-0.409-2.2661-0.4727-2.9549-0.1285-0.62555 0.3125-1.1139 1.3276-1.0011 2.0809 0.13124 0.8762 0.71466 1.4123 2.3852 2.1914 1.7072 0.7962 2.8355 1.7386 3.2983 2.7549 0.37615 0.8259 0.43134 2.322 0.12357 3.3492-0.29297 0.9778-1.4848 2.2661-2.5596 2.7666-0.78607 0.3661-1.1688 0.4195-2.9631 0.4137-1.5946 0-2.2596-0.084-2.9413-0.3506zm-57.147-7.3606c-1.1592-4.1483-2.1511-7.6555-2.2042-7.7938-0.07901-0.206 0.23288-0.2517 1.7143-0.2517 0.99598 0 1.8109 0.032 1.8109 0.07 0 0.039 0.51648 2.3567 1.1478 5.1511 0.63127 2.7942 1.2092 5.4837 1.2843 5.9763l0.13659 0.8959 0.15456-0.6272c0.08502-0.3448 0.81034-3.066 1.6119-6.0468l1.4573-5.4199h2.9768l0.26412 0.9405c0.77273 2.7519 2.4633 9.4399 2.5546 10.106 0.10625 0.7751 0.41967 0.916 0.41236 0.1854-0.0023-0.216 0.57837-2.8719 1.2901-5.9021l1.294-5.5095h1.5958c1.203 0 1.5747 0.056 1.51 0.224-0.04722 0.1233-0.9461 3.4087-1.9976 7.3012-1.0515 3.8924-1.9953 7.3393-2.0973 7.6595l-0.18551 0.5823h-3.1872l-0.26879-0.9407c-1.0649-3.7265-2.6079-9.6095-2.6079-9.943 0-0.2222-0.0806-0.404-0.17918-0.404-0.09853 0-0.17635 0.1412-0.17293 0.3136 0.0034 0.1724-0.66108 2.7122-1.4767 5.6437l-1.4829 5.3304h-3.2475zm34.109 0.1291v-7.413l1.2094-0.381c1.2578-0.3963 3.7366-0.7349 5.3975-0.7375h0.96303l-0.11451 0.5726c-0.063 0.3149-0.19806 0.8828-0.30017 1.262l-0.18568 0.6896-1.0451-0.1183c-0.64947-0.074-1.2904-0.037-1.6931 0.095l-0.64796 0.2137v13.231h-3.5834zm8.6001-3.9642v-11.377h3.5793l0.0469 7.1018 0.0469 7.1017 4.8687-6.9471 1.7313-0.051c0.95223-0.028 1.7313-0.011 1.7313 0.048 0 0.054-1.1772 1.6671-2.616 3.5845l-2.616 3.4862 2.3817 3.3648c1.3099 1.8507 2.656 3.7478 2.9912 4.2158l0.60943 0.8511h-3.9382l-2.6165-3.9806-2.6165-3.9807v7.9613h-3.5834zm35.713 9.2261c-1.2518-0.1831-2.2838-0.7057-2.353-1.1915-0.0461-0.3232 0.11523-0.4503 0.98543-0.777 1.4852-0.5575 7.0626-1.8532 22.81-5.2992 17.751-3.8846 24.449-5.5312 34.132-8.3908 24.728-7.3029 39.286-15.34 42.351-23.382 0.37611-0.9868 0.45078-1.4912 0.45348-3.0626 5e-3 -1.6314-0.059-2.0285-0.46545-2.9896-1.6292-3.8524-5.2992-7.0501-11.791-10.273-22.676-11.259-71.275-16.896-125.06-14.506-11.656 0.51808-23.8 1.4067-37.984 2.7795-2.5128 0.24326-4.851 0.43601-5.1959 0.4284-1.3989-0.0307 0.37849-0.34156 5.4647-0.95498 11.908-1.4363 24.089-2.479 35.744-3.0599 10.557-0.52613 14.34-0.63794 25.263-0.74646 53.813-0.53499 99.226 6.7104 117.36 18.725 9.2388 6.12 10.713 12.85 4.3276 19.756-7.0945 7.6727-23.767 15.239-48.705 22.104-18.626 5.1271-38.134 9.0856-53.008 10.756-2.5181 0.2829-2.9229 0.2909-4.3313 0.085zm-4.7167-5.7276c-1.2449-0.1612-2.15-0.6162-2.15-1.0806 0-0.3866 0.76511-0.8364 2.2396-1.3169 1.5285-0.4981 9.4833-2.3584 17.738-4.1479 28.711-6.2248 43.734-10.708 55.319-16.506 16.187-8.1023 18.802-16.492 7.4787-23.991-10.773-7.1341-34.171-12.589-63.335-14.765-25.993-1.9395-51.931-1.5795-83.691 1.1611-3.9522 0.34111-7.661 0.61059-8.2418 0.59901l-1.056-0.0216 0.89584-0.15381c1.187-0.20364 9.646-1.1607 13.258-1.5 10.329-0.97019 21.469-1.661 33.325-2.0666 6.6665-0.22804 27.049-0.22895 33.325 0 37.263 1.3508 66.487 6.4747 82.239 14.419 3.6285 1.8301 5.9504 3.4247 8.0784 5.548 1.503 1.4997 1.9338 2.0602 2.5572 3.3265 1.7017 3.4568 1.1401 6.851-1.7193 10.392-5.3692 6.6489-19.684 13.52-40.629 19.502-15.634 4.4654-31.176 7.7968-45.598 9.7735-3.8846 0.5325-8.6498 1.0528-8.9584 0.9783-0.0493-0.011-0.53303-0.08-1.075-0.1493zm-4.0313-6.2025c-0.77172-0.1937-1.6861-0.6688-1.7855-0.9277-0.42022-1.0951 2.4382-1.8732 24.155-6.5753 22.94-4.9668 37.561-9.9128 46.215-15.633 2.5248-1.6691 5.3834-4.5304 6.2248-6.2308 0.58901-1.1903 0.62061-1.35 0.62061-3.1355 0-1.7883-0.0301-1.9389-0.60569-3.0459-0.76719-1.4751-3.161-3.8891-5.1277-5.1707-10.572-6.8899-32.765-11.759-61.724-13.543-21.356-1.3153-42.376-0.99324-69.949 1.0717-3.243 0.24291-6.1052 0.43611-6.3605 0.42942-1.2208-0.0318 0.49659-0.35099 3.7463-0.69607 27.307-2.8997 58.3-3.468 83.314-1.5276 25.963 2.0139 46.172 6.2135 57.692 11.989 7.623 3.8215 11.149 8.024 10.424 12.424-1.0823 6.5676-11.269 13.101-30.043 19.268-10.888 3.5766-27.452 7.5825-39.417 9.5327-8.0086 1.3054-15.993 2.1189-17.379 1.771zm-3.2581-6.4205c-1.6826-0.408-2.2779-1.0709-1.4451-1.6092 0.91386-0.5907 5.8639-1.8313 14.344-3.5946 14.907-3.0999 22.272-4.9449 29.687-7.4369 11.705-3.9334 18.794-8.3227 20.487-12.684 0.40501-1.0436 0.38295-2.8568-0.0487-3.9925-2.1007-5.5286-13.678-10.596-31.457-13.768-14.842-2.648-31.428-3.8622-52.586-3.8492-12.773 0.0113-21.554 0.31125-35.834 1.2383-3.9933 0.25915-6.4001 0.33191-6.256 0.18889 0.38605-0.38322 14.029-1.4914 25.696-2.0875 5.9875-0.3058 26.745-0.41977 33.953-0.18627 21.815 0.7065 39.123 2.7206 53.331 6.2061 11.116 2.727 18.917 6.2364 22.525 10.134 0.60943 0.65826 1.3473 1.6697 1.6398 2.2474 0.48465 0.95748 0.53175 1.2102 0.53175 2.8516 0 1.7002-0.035 1.8697-0.62079 3.0243-3.4752 6.8468-18.57 13.57-43.243 19.259-13.902 3.2058-27.051 4.9438-30.704 4.0583zm-88.924-4.9999c-1.2923-0.2992-2.015-0.6966-2.8708-1.5785-2.2324-2.3002-2.8222-7.3638-1.2747-10.943 0.48251-1.1161 1.6752-2.3869 2.7946-2.9778 0.81182-0.4285 1.0931-0.4767 2.7843-0.4767 1.6945 0 1.982 0.05 2.8955 0.4981 2.4323 1.1945 3.6165 3.6688 3.6204 7.5646 0.0034 3.0484-0.74541 5.1121-2.3904 6.5911-1.4185 1.2753-3.561 1.785-5.5588 1.3222zm3.1176-2.8154c1.0172-0.8931 1.272-1.9324 1.272-5.1875 0-3.2356-0.25695-4.2962-1.2525-5.1704-0.74508-0.6542-1.4564-0.8226-2.4006-0.5684-1.5141 0.4077-2.1781 2.0961-2.1864 5.5597-0.0079 3.2136 0.33669 4.5004 1.4572 5.4433 0.45064 0.3791 0.74302 0.4692 1.5231 0.4692 0.82052 0 1.0588-0.082 1.5872-0.5459zm32.044 2.7774c-1.345-0.3621-2.178-0.8364-3.0277-1.724-1.468-1.5333-2.0829-3.4094-2.0643-6.2989 0.01918-2.9933 0.76777-5.0165 2.3987-6.4828 2.5495-2.2923 7.3204-1.8878 9.1672 0.7772 0.66177 0.955 1.1797 2.6774 1.309 4.353l0.10545 1.3666-1.5926 0.2253c-0.87592 0.124-3.0439 0.4387-4.8176 0.6992l-3.2251 0.4738 0.04052 0.6759c0.08468 1.4122 1.1183 2.9484 2.3277 3.4595 0.89965 0.3803 3.4364 0.314 4.7355-0.1236 0.59966-0.2019 1.1067-0.3431 1.1268-0.3135 0.02009 0.029 0.20591 0.5079 0.41293 1.063l0.3764 1.0094-0.6578 0.2928c-1.7318 0.7711-4.8313 1.0275-6.6151 0.5471zm3.8755-9.3098 0.60582-0.1135-0.09195-1.1449c-0.17654-2.1992-1.386-3.4413-3.183-3.2685-1.8766 0.1803-2.9791 1.6147-3.1688 4.1229l-0.10069 1.332 2.6664-0.4072c1.4665-0.224 2.939-0.4583 3.2722-0.5208zm-57.492-0.3664v-9.5946l0.65458-0.27357c1.6981-0.70945 5.2873-0.99834 7.2648-0.58459 1.2222 0.25575 2.899 1.1417 3.4957 1.8469 0.25705 0.30392 0.67531 0.99592 0.92948 1.5378 0.62428 1.3312 0.65097 3.7513 0.05596 5.0759-0.57232 1.2741-1.3277 2.1351-2.3719 2.7033-1.3566 0.7384-2.5446 0.9957-4.6088 0.998h-1.8365v7.8835h-3.5834zm7.1253-0.7161c1.5894-0.664 2.0887-1.5795 2.0963-3.8435 0.0068-2.0899-0.33927-2.9113-1.4998-3.5589-0.80313-0.44803-2.6378-0.61649-3.6456-0.33463l-0.49273 0.13783v7.8765h1.4391c0.89361 0 1.6907-0.1055 2.1028-0.2773zm23.982 9.9972c-0.55939-1.8917-4.2315-15.163-4.2315-15.293 0-0.1033 0.70364-0.1527 1.7419-0.122l1.7419 0.051 1.1967 5.3749c0.65815 2.9564 1.2598 5.6977 1.337 6.0918 0.11527 0.5889 0.15235 0.6368 0.20784 0.2688 0.06913-0.4581 2.6039-10.011 2.9357-11.064l0.18354-0.5824h1.509c0.82997 0 1.509 0.048 1.509 0.1056 0 0.058 0.49195 1.9729 1.0932 4.2553s1.2747 4.9543 1.4964 5.9377l0.4032 1.788 0.13219-0.8921c0.07265-0.4908 0.68933-3.2229 1.3703-6.0716 0.68094-2.8488 1.2381-5.2071 1.2381-5.2407 0-0.033 0.68531-0.061 1.5229-0.061 1.1001 0 1.5223 0.062 1.5207 0.224-9.76e-4 0.1231-0.95152 3.6505-2.1118 7.8386l-2.1095 7.6147h-3.2029l-1.302-4.7479c-0.71611-2.6114-1.4171-5.2721-1.5576-5.9126-0.16037-0.7307-0.26108-0.9666-0.27025-0.6333-0.01249 0.4532-1.5392 6.1647-2.7196 10.174l-0.35607 1.2095h-1.5929c-1.3622 0-1.6063-0.045-1.6856-0.3137zm31.961-7.107v-7.4207l0.76147-0.2764c0.41881-0.152 1.084-0.3634 1.4781-0.4695 0.84397-0.2276 5.2855-0.4697 5.2855-0.2883 0 0.068-0.12791 0.6338-0.28425 1.2562l-0.28425 1.1315-1.1939-0.082c-0.65664-0.045-1.4156 0-1.6866 0.1101l-0.49272 0.1917v13.267h-3.5834zm40.107 6.6345c-0.89383-0.2408-1.7646-0.7326-1.7646-0.9968 0-0.088 0.19943-0.3188 0.44319-0.5106 1.2739-1.002 4.7065-1.8805 17.32-4.4329 18.763-3.7964 29.752-7.8443 34.254-12.617 1.4662-1.5543 1.9804-2.6024 1.9772-4.0296-5e-3 -1.4437-0.50355-2.5209-1.8038-3.8841-4.9397-5.1789-18.771-9.2055-38.945-11.338-18.221-1.9258-38.082-2.1431-65.563-0.71752-2.8864 0.14973-2.6957-0.16198 0.26875-0.43929 19.529-1.8269 45.985-1.9416 65.665-0.2848 28.352 2.3867 47.471 8.0985 50.998 15.236 0.61022 1.2348 0.64517 1.3972 0.56597 2.6315-0.10943 1.7051-0.80149 3.0364-2.4356 4.6853-5.0044 5.0496-17.755 9.9428-36.183 13.885-10.923 2.3369-21.93 3.5852-24.798 2.8126zm-2.8601-6.0237c-1.4402-0.1744-2.3087-0.5845-2.3087-1.0899 0-1.5428 2.0403-2.2095 12.289-4.0158 11.461-2.0198 18.564-3.9586 23.635-6.4505 3.5658-1.7524 5.4522-3.3427 6.1229-5.1618 1.9421-5.2676-8.4923-10.098-27.753-12.849-6.1868-0.88347-12.982-1.5026-21.908-1.996-4.618-0.25529-27.336-0.32227-35.834-0.10557-2.9371 0.0749-5.0791 0.0647-4.9271-0.0227 0.29654-0.17107 7.4271-0.63886 13.973-0.91674 8.9789-0.38106 27.229-0.1983 36.463 0.36529 27.829 1.6985 47.16 6.7705 50.718 13.307 2.1029 3.8638-2.2317 8.1303-11.928 11.74-11.149 4.1512-31.817 8.0094-38.542 7.1949zm-2.6784-6.2701c-2.7822-0.2172-4.5484-0.8793-4.4332-1.6621 0.1378-0.9369 3.6382-1.9243 10.268-2.8959 7.2129-1.0574 10.125-1.6644 13.853-2.8882 11.925-3.914 9.082-9.4682-6.6497-12.992-11.281-2.5271-26.652-3.7203-48.502-3.7649-13.331-0.0272-13.822-0.30614-1.2542-0.71297 9.7606-0.31591 26.662 0.10784 36.371 0.91128 18.814 1.5575 32.376 4.9343 36.735 9.147 1.1097 1.0721 1.4938 1.8321 1.4996 2.9667 0.0133 2.5879-3.5668 5.1691-10.285 7.4152-6.0224 2.0136-16.168 4.0557-21.769 4.3817-0.98543 0.058-2.3158 0.1323-2.9563 0.1664-0.64052 0.034-1.9357 0-2.8781-0.072zm-4.482-6.3566c-2.6037-0.43862-4.1067-1.0374-4.1067-1.6361 0-0.74215 3.1231-1.4741 8.6897-2.0364 5.9231-0.59821 8.0578-1.036 10.144-2.0804 1.851-0.92627 2.3012-2.3514 1.1464-3.6296-3.0032-3.3242-17.482-5.9059-39.331-7.0128-3.6016-0.18253-12.743-0.52898-14.334-0.54316-0.67422-0.0114-0.75071-0.0397-0.467-0.20421 0.5078-0.29491 20.821-0.0772 26.715 0.28639 16.342 1.008 27.782 2.8987 34.149 5.6434 2.8159 1.2139 4.504 2.5929 4.7446 3.8753 0.56144 2.9927-6.2551 5.8484-17.27 7.235-3.3481 0.42158-7.9122 0.4679-10.081 0.10216zm-2.5838-4.7509c-1.329-0.1848-3.0012-0.79788-3.6144-1.3254-0.43077-0.3705-0.44151-0.41659-0.16231-0.69572 0.43596-0.436 1.3471-0.63442 4.2569-0.92683 4.984-0.50094 5.9451-1.4184 2.9239-2.7908-4.8239-2.1916-13.192-3.546-31.523-5.1023-7.7522-0.65815-7.3352-0.77189 1.6203-0.44202 16.584 0.61092 29.447 2.1783 36.244 4.4163 3.2461 1.069 5.3943 2.4795 5.3943 3.5421 0 0.55371-0.80879 1.2281-2.0128 1.6785-2.9344 1.0976-10.368 2.0297-13.127 1.6462zm-85.553-1.3195c-2.3615-0.51307-4.0187-1.9376-4.6565-4.0026-0.33651-1.0895-0.36018-1.6594-0.36018-8.6724v-7.5063h3.7517l0.10034 15.706 0.51634 0.67677c1.2595 1.6507 3.8881 1.5415 4.9751-0.20682l0.42118-0.67745 0.05199-7.749 0.05199-7.7492h3.4039l-0.05188 7.9283c-0.05119 7.8392-0.05642 7.9383-0.4638 8.824-0.81051 1.7624-2.3869 2.969-4.45 3.4062-1.4477 0.30671-1.9661 0.31035-3.2902 0.0227zm10.929-10.141v-10.04h3.7625v9.2028l2.8879-4.6014 2.8879-4.6015h1.8707c1.4482 0 1.8405 0.0511 1.7373 0.22407-0.07333 0.12305-1.4487 2.1714-3.0565 4.5516-1.6077 2.3802-2.9231 4.413-2.9231 4.5171 0 0.10443 1.4513 2.5316 3.225 5.3941 1.7738 2.8626 3.225 5.2441 3.225 5.2923 0 0.0488-0.91237 0.0874-2.0275 0.0874h-2.0275l-5.7097-10.065-0.08956 4.9876-0.08956 4.9878-3.673 0.1022z" stroke-width=".17917"/>
</g>
</svg>
