<?xml version="1.0" encoding="UTF-8" standalone="no"?>
<!-- Created with Inkscape (http://www.inkscape.org/) -->

<svg
   xmlns:dc="http://purl.org/dc/elements/1.1/"
   xmlns:cc="http://creativecommons.org/ns#"
   xmlns:rdf="http://www.w3.org/1999/02/22-rdf-syntax-ns#"
   xmlns:svg="http://www.w3.org/2000/svg"
   xmlns="http://www.w3.org/2000/svg"
   xmlns:sodipodi="http://sodipodi.sourceforge.net/DTD/sodipodi-0.dtd"
   xmlns:inkscape="http://www.inkscape.org/namespaces/inkscape"
   width="250"
   height="91"
   viewBox="0 0 250 91"
   id="svg2"
   version="1.1"
   inkscape:version="0.92.2 (5c3e80d, 2017-08-06)"
   sodipodi:docname="ukpn.svg">
  <defs
     id="defs4" />
  <sodipodi:namedview
     id="base"
     pagecolor="#ffffff"
     bordercolor="#666666"
     borderopacity="1.0"
     inkscape:pageopacity="0.0"
     inkscape:pageshadow="2"
     inkscape:zoom="1.9780299"
     inkscape:cx="177.29482"
     inkscape:cy="-6.2148044"
     inkscape:document-units="px"
     inkscape:current-layer="layer1"
     showgrid="false"
     inkscape:window-width="1920"
     inkscape:window-height="1001"
     inkscape:window-x="-9"
     inkscape:window-y="-9"
     inkscape:window-maximized="1"
     units="px" />
  <metadata
     id="metadata7">
    <rdf:RDF>
      <cc:Work
         rdf:about="">
        <dc:format>image/svg+xml</dc:format>
        <dc:type
           rdf:resource="http://purl.org/dc/dcmitype/StillImage" />
        <dc:title></dc:title>
      </cc:Work>
    </rdf:RDF>
  </metadata>
  <g
     inkscape:label="Layer 1"
     inkscape:groupmode="layer"
     id="layer1"
     transform="translate(0,-961.4)">
    <rect
       style="opacity:0.001;fill:#ffffff;fill-opacity:1;stroke:none;stroke-width:2.5;stroke-linecap:round;stroke-linejoin:round;stroke-miterlimit:4;stroke-dasharray:none;stroke-dashoffset:0;stroke-opacity:1"
       id="rect4175"
       width="250"
       height="91"
       x="0"
       y="961.4" />
    <path
       style="fill:#ffffff;fill-opacity:1;stroke-width:0.17916895"
       d="m 22.845857,1043.6617 -0.660055,-0.069 -3.724965,-6.3056 c -2.04874,-3.468 -4.027272,-6.8699 -4.396757,-7.5597 l -0.671793,-1.2542 -0.0045,7.5698 -0.0045,7.57 H 11.86035 10.337414 v -9.9439 -9.9439 H 12.112701 13.888 l 3.756498,6.4053 c 2.066074,3.5228 3.924282,6.7278 4.129366,7.122 l 0.372868,0.7166 0.0079,-7.122 0.0079,-7.1219 h 1.522936 1.522937 v 10.0335 10.0334 l -0.851053,-0.03 c -0.468082,-0.017 -1.148071,-0.061 -1.511108,-0.1 z m 8.466836,-0.1892 c -1.054468,-0.4096 -2.617929,-1.8593 -3.16102,-2.931 -1.305957,-2.5772 -1.298022,-6.8846 0.01748,-9.4807 1.207585,-2.3829 3.793072,-3.6283 6.684567,-3.2195 2.718603,0.3842 4.287876,1.8734 4.954697,4.7017 0.221464,0.9393 0.378952,3.1665 0.225845,3.1938 -0.02463,0 -2.168575,0.3209 -4.764301,0.7032 -2.595725,0.3823 -4.751758,0.7274 -4.791158,0.7668 -0.163482,0.1634 0.512182,2.2429 0.921271,2.8353 0.243168,0.3521 0.783683,0.8359 1.201139,1.075 0.66673,0.3818 0.965928,0.4323 2.46111,0.4148 1.275796,-0.015 1.948917,-0.1159 2.687535,-0.403 0.541979,-0.2107 0.998177,-0.3831 1.013773,-0.3832 0.01566,0 0.193722,0.4895 0.395866,1.0881 l 0.367521,1.0884 -0.843788,0.3882 c -0.738073,0.3395 -1.202954,0.3933 -3.710491,0.4292 -2.354068,0.034 -3.008573,-0.015 -3.660024,-0.2671 z m 2.853763,-8.7058 2.597951,-0.4035 -0.06243,-0.9745 c -0.08468,-1.323 -0.65043,-2.5901 -1.34765,-3.0186 -1.726795,-1.0611 -3.755148,-0.375 -4.630333,1.5663 -0.192496,0.4269 -0.395434,1.3771 -0.450976,2.1114 l -0.101027,1.3354 0.69823,-0.1067 c 0.384026,-0.059 1.867301,-0.288 3.296169,-0.51 z m 10.381676,8.5301 c -0.821096,-0.429 -1.056477,-0.672 -1.511437,-1.5612 l -0.538881,-1.0532 -0.05903,-5.2539 -0.05903,-5.2539 h -0.792072 -0.79206 v -1.075 -1.075 h 0.806261 0.80626 v -1.6916 c 0,-0.9303 0.08025,-1.7412 0.178477,-1.8018 0.188534,-0.1164 3.044806,-0.9757 3.26501,-0.9821 0.07083,0 0.151505,0.984 0.179169,2.191 l 0.05029,2.1949 1.298975,0.052 1.298975,0.052 v 1.0671 1.0673 H 47.32518 45.971322 l 0.05494,5.1817 0.05483,5.1818 0.434358,0.462 c 0.338405,0.36 0.607465,0.4621 1.217938,0.4621 h 0.78358 l -0.05335,1.1198 -0.05335,1.1198 -1.444851,0.051 c -1.293958,0.046 -1.546411,0 -2.417408,-0.4566 z m 29.996378,0.1501 c -0.962273,-0.4369 -2.121173,-1.4919 -2.672721,-2.433 -0.676583,-1.1545 -1.154871,-3.3062 -1.154871,-5.1955 0,-1.8892 0.478288,-4.0409 1.154871,-5.1954 0.567054,-0.9677 1.721187,-2.0028 2.764916,-2.4799 1.285399,-0.5875 3.88335,-0.5467 5.229762,0.082 1.79295,0.8376 3.104729,2.6574 3.585707,4.9742 0.320238,1.5426 0.129098,5.2507 -0.336873,6.5355 -0.587577,1.62 -1.610353,2.845 -2.923415,3.5011 -1.035046,0.5171 -1.24139,0.5551 -3.008708,0.5513 -1.467826,0 -2.065279,-0.081 -2.638668,-0.3405 z m 3.461875,-1.9961 c 0.796783,-0.301 1.453785,-1.045 1.795561,-2.0331 0.245745,-0.7106 0.315975,-1.5048 0.318325,-3.5993 0.0034,-3.077 -0.200873,-4.0475 -1.061676,-5.0434 -0.520015,-0.6016 -0.670215,-0.6687 -1.635235,-0.7309 -1.34488,-0.086 -2.01253,0.2953 -2.562716,1.4657 -1.074208,2.2853 -0.862915,7.582 0.364717,9.1427 0.675267,0.8584 1.781508,1.176 2.781024,0.7983 z m 30.440535,1.9799 c -0.4845,-0.1892 -0.94733,-0.4103 -1.02854,-0.4916 -0.0812,-0.082 0.033,-0.6114 0.25381,-1.1783 0.28643,-0.7353 0.47845,-1.0061 0.67021,-0.9451 0.1478,0.047 0.59125,0.2082 0.98542,0.3581 1.63007,0.6203 3.33421,0.2091 3.93302,-0.9489 0.77904,-1.5065 -0.0121,-2.8068 -2.23941,-3.6806 -2.4028,-0.9427 -3.56158,-2.5607 -3.34398,-4.6692 0.25648,-2.4851 2.32455,-4.2089 5.04946,-4.2089 1.00664,0 2.68942,0.3877 3.49812,0.8059 l 0.51859,0.2682 -0.36948,0.8516 c -0.20322,0.4683 -0.42422,0.9116 -0.49113,0.9852 -0.0669,0.074 -0.43732,-0.027 -0.82315,-0.224 -0.80229,-0.409 -2.26613,-0.4727 -2.95492,-0.1285 -0.62555,0.3125 -1.11392,1.3276 -1.0011,2.0809 0.13124,0.8762 0.71466,1.4123 2.38521,2.1914 1.70723,0.7962 2.83551,1.7386 3.29834,2.7549 0.37615,0.8259 0.43134,2.322 0.12357,3.3492 -0.29297,0.9778 -1.48485,2.2661 -2.55958,2.7666 -0.78607,0.3661 -1.16885,0.4195 -2.96312,0.4137 -1.59461,0 -2.25959,-0.084 -2.94134,-0.3506 z m -57.147009,-7.3606 c -1.159195,-4.1483 -2.151084,-7.6555 -2.204197,-7.7938 -0.07901,-0.206 0.232884,-0.2517 1.714286,-0.2517 0.995975,0 1.810862,0.032 1.810862,0.07 0,0.039 0.516484,2.3567 1.147753,5.1511 0.631269,2.7942 1.209221,5.4837 1.284343,5.9763 l 0.136591,0.8959 0.154559,-0.6272 c 0.08502,-0.3448 0.810336,-3.066 1.611863,-6.0468 l 1.457314,-5.4199 h 1.488417 1.488429 l 0.264122,0.9405 c 0.772728,2.7519 2.463278,9.4399 2.554633,10.1064 0.106249,0.7751 0.41967,0.916 0.412359,0.1854 -0.0023,-0.216 0.578372,-2.8719 1.290065,-5.9021 l 1.29398,-5.5095 h 1.595812 c 1.202954,0 1.574698,0.056 1.510041,0.224 -0.04722,0.1233 -0.946097,3.4087 -1.997591,7.3012 -1.051483,3.8924 -1.995275,7.3393 -2.097301,7.6595 l -0.185514,0.5823 h -1.593621 -1.593621 l -0.268788,-0.9407 c -1.064888,-3.7265 -2.607916,-9.6095 -2.607916,-9.943 0,-0.2222 -0.0806,-0.404 -0.179181,-0.404 -0.09853,0 -0.176354,0.1412 -0.172926,0.3136 0.0034,0.1724 -0.661077,2.7122 -1.476702,5.6437 l -1.482946,5.3304 H 55.031289 53.40753 Z m 34.108861,0.1291 v -7.413 l 1.20939,-0.381 c 1.25777,-0.3963 3.73658,-0.7349 5.39747,-0.7375 h 0.96303 l -0.11451,0.5726 c -0.063,0.3149 -0.19806,0.8828 -0.30017,1.262 l -0.18568,0.6896 -1.04511,-0.1183 c -0.64947,-0.074 -1.29042,-0.037 -1.69308,0.095 l -0.64796,0.2137 v 6.6154 6.6154 h -1.79169 -1.79169 z m 8.60011,-3.9642 v -11.3772 h 1.78963 1.78963 l 0.0469,7.1018 0.0469,7.1017 2.434338,-3.4735 2.43436,-3.4736 1.73132,-0.051 c 0.95223,-0.028 1.73133,-0.011 1.73133,0.048 0,0.054 -1.17721,1.6671 -2.61601,3.5845 l -2.61603,3.4862 2.38174,3.3648 c 1.30994,1.8507 2.65596,3.7478 2.99115,4.2158 l 0.60943,0.8511 h -1.96911 -1.96911 l -2.6165,-3.9806 -2.616507,-3.9807 v 3.9807 3.9806 h -1.79169 -1.79169 z m 35.712928,9.2261 c -1.25185,-0.1831 -2.28375,-0.7057 -2.35299,-1.1915 -0.0461,-0.3232 0.11523,-0.4503 0.98543,-0.777 1.48517,-0.5575 7.06258,-1.8532 22.80951,-5.2992 17.75055,-3.8846 24.44885,-5.5312 34.13167,-8.3908 24.7283,-7.3029 39.28571,-15.3402 42.35112,-23.3825 0.37611,-0.9868 0.45078,-1.4912 0.45348,-3.06256 0.005,-1.63141 -0.059,-2.02848 -0.46545,-2.98965 -1.62917,-3.85241 -5.29923,-7.05007 -11.79083,-10.27316 -22.67624,-11.25913 -71.27512,-16.89607 -125.059908,-14.50572 -11.65588,0.51808 -23.799879,1.40666 -37.983811,2.77948 -2.51285,0.24326 -4.851003,0.43601 -5.195901,0.4284 -1.398878,-0.0307 0.378487,-0.34156 5.464655,-0.95498 11.90762,-1.43628 24.089056,-2.47901 35.744197,-3.05986 10.556949,-0.52613 14.339808,-0.63794 25.262808,-0.74646 53.81277,-0.53499 99.22559,6.71044 117.36249,18.72466 9.23875,6.12005 10.71302,12.85035 4.32763,19.75635 -7.09454,7.6727 -23.76687,15.2391 -48.7047,22.1035 -18.62647,5.1271 -38.13374,9.0856 -53.00807,10.7562 -2.51812,0.2829 -2.9229,0.2909 -4.33133,0.085 z m -4.71671,-5.7276 c -1.24492,-0.1612 -2.15003,-0.6162 -2.15003,-1.0806 0,-0.3866 0.76511,-0.8364 2.23962,-1.3169 1.52846,-0.4981 9.48329,-2.3584 17.7377,-4.1479 28.71072,-6.2248 43.73442,-10.7077 55.31883,-16.5064 16.18659,-8.1023 18.80196,-16.49225 7.47868,-23.99104 -10.77263,-7.13407 -34.17116,-12.58882 -63.33502,-14.76475 -25.99299,-1.93949 -51.931298,-1.57954 -83.69087,1.16112 -3.952173,0.34111 -7.660973,0.61059 -8.241774,0.59901 l -1.056,-0.0216 0.895845,-0.15381 c 1.186983,-0.20364 9.646009,-1.16067 13.258493,-1.49996 10.328586,-0.97019 21.469038,-1.66103 33.325428,-2.06662 6.666458,-0.22804 27.049058,-0.22895 33.325418,0 37.263,1.35081 66.48711,6.47467 82.23853,14.41888 3.62851,1.83006 5.95041,3.42469 8.07836,5.54795 1.50297,1.49974 1.93377,2.06015 2.55722,3.3265 1.70169,3.45676 1.1401,6.85102 -1.7193,10.39192 -5.36924,6.6489 -19.68423,13.5203 -40.62919,19.5025 -15.63388,4.4654 -31.17644,7.7968 -45.59847,9.7735 -3.88462,0.5325 -8.64975,1.0528 -8.95845,0.9783 -0.0493,-0.011 -0.53303,-0.08 -1.07502,-0.1493 z m -4.0313,-6.2025 c -0.77172,-0.1937 -1.6861,-0.6688 -1.78546,-0.9277 -0.42022,-1.0951 2.43822,-1.8732 24.15514,-6.5753 22.93982,-4.9668 37.56108,-9.9128 46.215,-15.6334 2.52484,-1.6691 5.3834,-4.5304 6.22482,-6.2308 0.58901,-1.19027 0.62061,-1.34999 0.62061,-3.13549 0,-1.78829 -0.0301,-1.93892 -0.60569,-3.0459 -0.76719,-1.4751 -3.16105,-3.88907 -5.1277,-5.17074 -10.57174,-6.8899 -32.76471,-11.75916 -61.7237,-13.54279 -21.35629,-1.31528 -42.376138,-0.99324 -69.949192,1.07168 -3.242966,0.24291 -6.105186,0.43611 -6.3605,0.42942 -1.220832,-0.0318 0.496586,-0.35099 3.746271,-0.69607 27.306723,-2.89969 58.299961,-3.46805 83.313551,-1.52765 25.963,2.01394 46.17163,6.21347 57.6924,11.9889 7.62299,3.82153 11.14893,8.02401 10.42382,12.42406 -1.08231,6.56758 -11.26932,13.10098 -30.04282,19.26808 -10.88771,3.5766 -27.45185,7.5825 -39.41716,9.5327 -8.00864,1.3054 -15.99263,2.1189 -17.37939,1.771 z m -3.25809,-6.4205 c -1.68255,-0.408 -2.27786,-1.0709 -1.4451,-1.6092 0.91386,-0.5907 5.86387,-1.8313 14.34367,-3.5946 14.90691,-3.0999 22.27199,-4.9449 29.68711,-7.4369 11.70461,-3.9334 18.79409,-8.3227 20.48666,-12.68362 0.40501,-1.04358 0.38295,-2.85684 -0.0487,-3.99254 -2.10073,-5.52865 -13.6781,-10.59576 -31.45695,-13.76766 -14.84214,-2.64803 -31.42804,-3.86216 -52.586098,-3.84922 -12.77296,0.0113 -21.553828,0.31125 -35.83378,1.23831 -3.993298,0.25915 -6.400081,0.33191 -6.255988,0.18889 0.386047,-0.38322 14.028544,-1.49145 25.695812,-2.08751 5.987496,-0.3058 26.744654,-0.41977 33.952504,-0.18627 21.81541,0.7065 39.12288,2.72056 53.33116,6.2061 11.1164,2.72703 18.91714,6.2364 22.52537,10.13353 0.60943,0.65826 1.34733,1.66967 1.63977,2.24745 0.48465,0.95748 0.53175,1.21016 0.53175,2.85156 0,1.70025 -0.035,1.86973 -0.62079,3.02427 -3.47524,6.84681 -18.57017,13.56961 -43.24299,19.25911 -13.90241,3.2058 -27.05128,4.9438 -30.70352,4.0583 z m -88.924323,-4.9999 c -1.292346,-0.2992 -2.015027,-0.6966 -2.870802,-1.5785 -2.232359,-2.3002 -2.822207,-7.3638 -1.27474,-10.943 0.48251,-1.1161 1.67518,-2.3869 2.794578,-2.9778 0.811822,-0.4285 1.093085,-0.4767 2.784316,-0.4767 1.694511,0 1.98196,0.05 2.895468,0.4981 2.432312,1.1945 3.616502,3.6688 3.620373,7.5646 0.0034,3.0484 -0.745406,5.1121 -2.39038,6.5911 -1.41847,1.2753 -3.560972,1.785 -5.558813,1.3222 z m 3.117601,-2.8154 c 1.017179,-0.8931 1.272039,-1.9324 1.272039,-5.1875 0,-3.2356 -0.256948,-4.2962 -1.252503,-5.1704 -0.745077,-0.6542 -1.456418,-0.8226 -2.400619,-0.5684 -1.514071,0.4077 -2.178054,2.0961 -2.186432,5.5597 -0.0079,3.2136 0.336691,4.5004 1.457224,5.4433 0.450635,0.3791 0.743022,0.4692 1.523141,0.4692 0.820517,0 1.058781,-0.082 1.58715,-0.5459 z m 32.044426,2.7774 c -1.345016,-0.3621 -2.177975,-0.8364 -3.027711,-1.724 -1.468018,-1.5333 -2.082862,-3.4094 -2.064314,-6.2989 0.01918,-2.9933 0.767768,-5.0165 2.398678,-6.4828 2.549481,-2.2923 7.320377,-1.8878 9.167166,0.7772 0.66177,0.955 1.17973,2.6774 1.308987,4.353 l 0.105454,1.3666 -1.592588,0.2253 c -0.875924,0.124 -3.043852,0.4387 -4.817619,0.6992 l -3.225053,0.4738 0.04052,0.6759 c 0.08468,1.4122 1.118274,2.9484 2.327733,3.4595 0.899648,0.3803 3.436426,0.314 4.735492,-0.1236 0.599655,-0.2019 1.106718,-0.3431 1.12681,-0.3135 0.02009,0.029 0.205912,0.5079 0.412926,1.063 l 0.376398,1.0094 -0.657797,0.2928 c -1.731812,0.7711 -4.831331,1.0275 -6.615052,0.5471 z m 3.87554,-9.3098 0.605819,-0.1135 -0.09195,-1.1449 c -0.176535,-2.1992 -1.386017,-3.4413 -3.183019,-3.2685 -1.876609,0.1803 -2.97907,1.6147 -3.168773,4.1229 l -0.100687,1.332 2.666376,-0.4072 c 1.466521,-0.224 2.939012,-0.4583 3.272218,-0.5208 z m -57.491962,-0.3664 v -9.59462 l 0.654585,-0.27357 c 1.698098,-0.70945 5.287267,-0.99834 7.264812,-0.58459 1.222206,0.25575 2.899043,1.14172 3.495668,1.84686 0.25705,0.30392 0.675312,0.99592 0.929479,1.53782 0.624276,1.3312 0.650974,3.7513 0.05596,5.0759 -0.572322,1.2741 -1.32774,2.1351 -2.371867,2.7033 -1.356628,0.7384 -2.544576,0.9957 -4.608833,0.998 h -1.836483 v 3.9418 3.9417 h -1.791678 -1.79169 z m 7.125271,-0.7161 c 1.589421,-0.664 2.088731,-1.5795 2.096268,-3.8435 0.0068,-2.0899 -0.339268,-2.9113 -1.499837,-3.5589 -0.803127,-0.44803 -2.637827,-0.61649 -3.645607,-0.33463 l -0.492726,0.13783 v 3.9382 3.9383 h 1.439118 c 0.893609,0 1.690675,-0.1055 2.102784,-0.2773 z m 23.981549,9.9972 c -0.559393,-1.8917 -4.231483,-15.163 -4.231483,-15.2929 0,-0.1033 0.703645,-0.1527 1.741937,-0.122 l 1.741926,0.051 1.196655,5.3749 c 0.658148,2.9564 1.25979,5.6977 1.336956,6.0918 0.115273,0.5889 0.152346,0.6368 0.207843,0.2688 0.06913,-0.4581 2.603887,-10.0109 2.935719,-11.0636 l 0.183539,-0.5824 h 1.509043 c 0.829973,0 1.509042,0.048 1.509042,0.1056 0,0.058 0.491954,1.9729 1.093233,4.2553 0.601279,2.2824 1.274672,4.9543 1.496442,5.9377 l 0.403199,1.788 0.132186,-0.8921 c 0.07265,-0.4908 0.68933,-3.2229 1.370272,-6.0716 0.680942,-2.8488 1.238076,-5.2071 1.238076,-5.2407 0,-0.033 0.685312,-0.061 1.522936,-0.061 1.100101,0 1.522301,0.062 1.520666,0.224 -9.76e-4,0.1231 -0.951523,3.6505 -2.111751,7.8386 l -2.109504,7.6147 H 52.52928 50.927815 l -1.302017,-4.7479 c -0.716109,-2.6114 -1.417052,-5.2721 -1.557649,-5.9126 -0.160371,-0.7307 -0.26108,-0.9666 -0.270252,-0.6333 -0.01249,0.4532 -1.539203,6.1647 -2.719579,10.174 l -0.356068,1.2095 h -1.592861 c -1.362247,0 -1.606289,-0.045 -1.685577,-0.3137 z m 31.960641,-7.107 v -7.4207 l 0.761468,-0.2764 c 0.418807,-0.152 1.083971,-0.3634 1.478145,-0.4695 0.843969,-0.2276 5.285485,-0.4697 5.285485,-0.2883 0,0.068 -0.127907,0.6338 -0.284248,1.2562 l -0.284248,1.1315 -1.193896,-0.082 c -0.656639,-0.045 -1.415622,0 -1.686611,0.1101 l -0.492715,0.1917 v 6.6336 6.6338 h -1.79169 -1.79169 z m 40.106717,6.6345 c -0.89383,-0.2408 -1.76457,-0.7326 -1.76457,-0.9968 0,-0.088 0.19943,-0.3188 0.44319,-0.5106 1.2739,-1.002 4.70647,-1.8805 17.31976,-4.4329 18.76256,-3.7964 29.75196,-7.8443 34.25442,-12.61718 1.46616,-1.55428 1.98044,-2.60235 1.97724,-4.02955 -0.005,-1.44366 -0.50355,-2.52089 -1.80382,-3.88407 -4.93966,-5.17892 -18.7709,-9.20546 -38.9449,-11.3378 -18.221,-1.92575 -38.082128,-2.14313 -65.563218,-0.71752 -2.886409,0.14973 -2.695708,-0.16198 0.268754,-0.43929 19.528545,-1.82688 45.984684,-1.94164 65.665414,-0.2848 28.35223,2.38672 47.47059,8.09847 50.99824,15.23617 0.61022,1.23479 0.64517,1.39723 0.56597,2.63146 -0.10943,1.70514 -0.80149,3.03642 -2.43559,4.68528 -5.0044,5.0496 -17.75549,9.9428 -36.18264,13.885 -10.92294,2.3369 -21.92971,3.5852 -24.79825,2.8126 z m -2.8601,-6.0237 c -1.44015,-0.1744 -2.30867,-0.5845 -2.30867,-1.0899 0,-1.5428 2.04033,-2.2095 12.28886,-4.0158 11.46081,-2.0198 18.56381,-3.9586 23.63451,-6.45051 3.56584,-1.75241 5.45221,-3.34268 6.12288,-5.16184 1.94213,-5.26757 -8.49227,-10.09846 -27.75304,-12.84899 -6.18675,-0.88347 -12.98177,-1.50257 -21.90791,-1.99601 -4.617988,-0.25529 -27.335574,-0.32227 -35.833774,-0.10557 -2.937104,0.0749 -5.079061,0.0647 -4.927135,-0.0227 0.296541,-0.17107 7.427056,-0.63886 13.972649,-0.91674 8.978859,-0.38106 27.22895,-0.1983 36.46339,0.36529 27.82939,1.6985 47.15975,6.77049 50.71763,13.30747 2.10291,3.86376 -2.23167,8.1303 -11.92753,11.7404 -11.14934,4.1512 -31.81693,8.0094 -38.54186,7.1949 z m -2.6784,-6.2701 c -2.78217,-0.2172 -4.54835,-0.8793 -4.43325,-1.6621 0.1378,-0.9369 3.63822,-1.9243 10.26762,-2.8959 7.21293,-1.05741 10.12471,-1.66437 13.85333,-2.88815 11.92475,-3.91399 9.08203,-9.46818 -6.64971,-12.99242 -11.28072,-2.52714 -26.651808,-3.72028 -48.502052,-3.76489 -13.331448,-0.0272 -13.822108,-0.30614 -1.254183,-0.71297 9.760556,-0.31591 26.662186,0.10784 36.371295,0.91128 18.81428,1.55751 32.37552,4.9343 36.73549,9.147 1.10968,1.07213 1.49381,1.8321 1.49958,2.96666 0.0133,2.58787 -3.56685,5.1691 -10.28473,7.41519 -6.02242,2.0136 -16.1675,4.0557 -21.76902,4.3817 -0.98543,0.058 -2.31576,0.1323 -2.95629,0.1664 -0.64052,0.034 -1.93566,0 -2.87808,-0.072 z m -4.482,-6.35665 c -2.60368,-0.43862 -4.106719,-1.0374 -4.106719,-1.63612 0,-0.74215 3.123139,-1.47408 8.689679,-2.03643 5.92306,-0.59821 8.05776,-1.03603 10.1445,-2.08035 1.85104,-0.92627 2.30118,-2.35142 1.14643,-3.62958 -3.00324,-3.32423 -17.48184,-5.90586 -39.330854,-7.01283 -3.601576,-0.18253 -12.743065,-0.52898 -14.333519,-0.54316 -0.674222,-0.0114 -0.750707,-0.0397 -0.467004,-0.20421 0.5078,-0.29491 20.821139,-0.0772 26.715259,0.28639 16.341798,1.00799 27.782488,2.89867 34.149058,5.64341 2.81587,1.21391 4.50401,2.59287 4.74461,3.87534 0.56144,2.99266 -6.25509,5.84842 -17.27009,7.23504 -3.3481,0.42158 -7.91216,0.4679 -10.08135,0.10216 z m -2.58378,-4.75092 c -1.329039,-0.1848 -3.001189,-0.79788 -3.614358,-1.32538 -0.43077,-0.3705 -0.44151,-0.41659 -0.16231,-0.69572 0.43596,-0.436 1.347089,-0.63442 4.256928,-0.92683 4.98405,-0.50094 5.94513,-1.41835 2.92393,-2.79084 -4.823869,-2.19159 -13.191738,-3.54603 -31.523025,-5.10229 -7.752237,-0.65815 -7.335213,-0.77189 1.620262,-0.44202 16.584285,0.61092 29.446913,2.17831 36.244003,4.41634 3.24614,1.06895 5.39433,2.47946 5.39433,3.54206 0,0.55371 -0.80879,1.22809 -2.01284,1.67851 -2.93437,1.09756 -10.36757,2.02973 -13.12692,1.64617 z m -85.553177,-1.31948 c -2.361492,-0.51307 -4.018691,-1.93755 -4.656544,-4.00258 -0.336509,-1.0895 -0.360177,-1.65945 -0.360177,-8.6724 v -7.50627 h 1.875849 1.87586 l 0.05017,7.85283 0.05017,7.85283 0.516337,0.67677 c 1.259461,1.6507 3.888128,1.5415 4.975061,-0.20682 l 0.421179,-0.67745 0.05199,-7.74897 0.05199,-7.74919 h 1.701969 1.701958 l -0.05188,7.92832 c -0.05119,7.83921 -0.05642,7.9383 -0.463803,8.82405 -0.810506,1.7624 -2.386895,2.96904 -4.450029,3.40618 -1.447723,0.30671 -1.966114,0.31035 -3.290187,0.0227 z M 26.283021,982.34267 V 972.3029 h 1.881274 1.881275 v 4.60148 4.60136 l 2.887908,-4.60136 2.887885,-4.60148 h 1.870661 c 1.448177,0 1.840534,0.0511 1.737328,0.22407 -0.07333,0.12305 -1.448733,2.17139 -3.056452,4.55165 -1.607708,2.38025 -2.92312,4.41305 -2.92312,4.51714 0,0.10443 1.451265,2.53156 3.225042,5.39414 1.773778,2.86257 3.225042,5.24407 3.225042,5.29232 0,0.0488 -0.912372,0.0874 -2.027502,0.0874 H 35.84486 l -2.854853,-5.03249 -2.854853,-5.03248 -0.08956,4.98765 -0.08956,4.98776 -1.836483,0.0511 -1.836482,0.0511 z"
       id="path904"
       inkscape:connector-curvature="0" />
  </g>
</svg>
