<?xml version="1.0" encoding="UTF-8" standalone="no"?>
<svg
   xmlns:dc="http://purl.org/dc/elements/1.1/"
   xmlns:cc="http://creativecommons.org/ns#"
   xmlns:rdf="http://www.w3.org/1999/02/22-rdf-syntax-ns#"
   xmlns:svg="http://www.w3.org/2000/svg"
   xmlns="http://www.w3.org/2000/svg"
   xmlns:sodipodi="http://sodipodi.sourceforge.net/DTD/sodipodi-0.dtd"
   xmlns:inkscape="http://www.inkscape.org/namespaces/inkscape"
   inkscape:export-ydpi="90"
   inkscape:export-xdpi="90"
   inkscape:export-filename="C:\Users\Amy\Desktop\Assets\arup.png"
   sodipodi:docname="universityofbradford.svg"
   inkscape:version="1.0 (4035a4fb49, 2020-05-01)"
   version="1.1"
   id="svg2"
   viewBox="0 0 250 91"
   height="91"
   width="250">
  <defs
     id="defs4" />
  <sodipodi:namedview
     inkscape:document-rotation="0"
     units="px"
     inkscape:window-maximized="1"
     inkscape:window-y="-11"
     inkscape:window-x="-11"
     inkscape:window-height="986"
     inkscape:window-width="1920"
     showgrid="false"
     inkscape:current-layer="layer1"
     inkscape:document-units="px"
     inkscape:cy="27.908"
     inkscape:cx="183.26"
     inkscape:zoom="1.9799"
     inkscape:pageshadow="2"
     inkscape:pageopacity="0.0"
     borderopacity="1.0"
     bordercolor="#666666"
     pagecolor="#ffffff"
     id="base" />
  <metadata
     id="metadata7">
    <rdf:RDF>
      <cc:Work
         rdf:about="">
        <dc:format>image/svg+xml</dc:format>
        <dc:type
           rdf:resource="http://purl.org/dc/dcmitype/StillImage" />
        <dc:title />
      </cc:Work>
    </rdf:RDF>
  </metadata>
  <g
     transform="translate(0,-961.4)"
     id="layer1"
     inkscape:groupmode="layer"
     inkscape:label="Layer 1">
    <rect
       y="961.4"
       x="0"
       height="91"
       width="250"
       id="rect4175"
       style="opacity:0.001;fill:none;fill-opacity:1;stroke:none;stroke-width:2.5;stroke-linecap:round;stroke-linejoin:round;stroke-miterlimit:4;stroke-dasharray:none;stroke-dashoffset:0;stroke-opacity:1" />
    <path
       id="path935"
       d="m 46.66469,1012.9024 h -5.480427 c -0.08699,2.1748 -0.173981,4.7845 -0.347963,7.2202 h 4.697509 c 0.521945,-2.1747 0.9569,-4.6975 1.130881,-7.2202 m -6.437327,7.8292 h -2.348754 v 5.2194 h 1.565836 c 0.260973,-1.3048 0.521946,-3.0446 0.782918,-5.2194 m 2.8707,5.2194 c 0.9569,-1.3048 1.652828,-3.1316 2.261764,-5.2194 h -4.610518 c -0.173982,1.9138 -0.434955,3.7406 -0.782918,5.2194 z m 7.6552,-5.8284 c 0.9569,-2.1747 1.652827,-4.6975 2.000791,-7.2202 h -5.480427 c -0.173982,2.5227 -0.608937,5.0455 -1.130882,7.2202 z m 6.524318,-7.7421 c 0.260973,-1.3049 0.434954,-2.6098 0.434954,-3.9146 0,0 0,0 0,0 h -4.088572 v 0 c 0,1.3048 -0.08699,2.6097 -0.260973,3.9146 z m -16.615263,0.5219 h -2.783709 v 7.2202 h 2.348754 c 0.173982,-2.0007 0.347964,-4.4365 0.434955,-7.2202 m 0,-4.5235 v 0 h -2.8707 v 4.0016 h 2.783709 c 0.08699,-1.3049 0.08699,-2.6098 0.08699,-4.0016 m 6.176354,0 v 0 h -5.654409 v 0 c 0,0.7829 0,2.1747 -0.08699,3.9146 H 46.5777 c 0.260972,-1.2179 0.260972,-2.6098 0.260972,-3.9146 m 6.959273,11.7437 c 1.565836,-2.0877 2.696718,-4.6105 3.392645,-7.2202 h -3.914591 c -0.347963,2.5227 -0.9569,5.0455 -1.9138,7.2202 z m -1.043891,-7.7421 c 0.173982,-1.3049 0.260972,-2.6098 0.260972,-3.9146 0,0 0,0 0,0 h -5.654408 v 0 c 0,1.3048 -0.08699,2.6097 -0.173982,3.9146 z m -14.875445,15.8323 c 0.260973,0 0.434955,0 0.695927,0 0.260973,-0.261 0.521946,-0.7829 0.782918,-1.7398 h -1.478845 z m 4.7845,-1.7398 H 39.8794 c -0.173982,0.6959 -0.434955,1.3048 -0.608937,1.7398 0.521946,0 0.9569,-0.087 1.391855,-0.174 0.695927,-0.348 1.391854,-0.8699 2.000791,-1.5658 m -0.521946,1.3048 c 1.304864,-0.2609 2.522737,-0.6959 3.740609,-1.2178 0.08699,0 0.08699,-0.087 0.173982,-0.087 h -2.609727 c -0.521945,0.5219 -0.869909,0.9569 -1.304864,1.3048 m 3.740609,-7.0462 c -0.608936,2.0008 -1.304863,3.8276 -2.174772,5.2194 h 2.95769 c 1.565837,-1.3048 2.8707,-3.1316 3.8276,-5.2194 z m 2.087782,4.6975 c 2.087782,-1.2179 3.914591,-2.8707 5.393436,-4.6975 h -2.261763 c -0.782919,1.8268 -1.826809,3.3926 -3.131673,4.6975"
       class="st0"
       style="fill:#ffffff;stroke-width:0.869909;opacity:0.69855072" />
    <path
       id="path937"
       d="m 26.134837,1000.9846 h 5.567418 c 0.08699,-2.17473 0.173982,-4.87145 0.347963,-7.30719 h -4.784499 c -0.521946,2.17477 -0.9569,4.6975 -1.130882,7.30719 m 6.524318,-7.91613 h 2.348754 v -5.21945 h -1.652827 c -0.260973,1.30486 -0.521945,3.04468 -0.695927,5.21945 m -2.957691,-5.21945 c -0.9569,1.30486 -1.739818,3.13167 -2.261764,5.21945 h 4.697509 c 0.173982,-2.00079 0.434955,-3.8276 0.782918,-5.21945 z m -7.742191,5.82839 c -0.9569,2.26176 -1.652827,4.7845 -2.00079,7.30719 h 5.567418 c 0.173981,-2.60969 0.608936,-5.04543 1.217872,-7.30719 z m -6.524317,7.91619 c -0.260973,1.2179 -0.434955,2.6097 -0.434955,3.9146 0,0 0,0 0,0 h 4.175563 v 0 c 0,-1.3049 0.08699,-2.6967 0.260973,-4.0016 h -4.001581 z m 16.789244,-0.609 h 2.783709 v -7.30719 h -2.435745 c -0.173982,2.08778 -0.260973,4.52352 -0.347964,7.30719 m -0.08699,4.5236 v 0 h 2.8707 v -4.0016 h -2.8707 c 0,1.3049 0,2.6097 0,4.0016 m -6.176354,0 v 0 h 5.654409 v 0 c 0,-0.7829 0,-2.1748 0.08699,-4.0016 h -5.567418 c -0.173982,1.3918 -0.173982,2.6967 -0.173982,4.0016 m -7.046263,-11.83079 c -1.565837,2.17477 -2.783709,4.61051 -3.392646,7.30719 h 3.914591 c 0.347964,-2.60969 0.9569,-5.04543 1.9138,-7.30719 z m 1.043891,7.91619 c -0.173982,1.3048 -0.260973,2.6967 -0.260973,4.0016 0,0 0,0 0,0 h 5.654409 v 0 c 0,-1.3049 0.08699,-2.6968 0.173982,-4.0016 z m 15.049426,-16.09334 c -0.260973,0 -0.434954,0 -0.695927,0 -0.260973,0.26097 -0.521946,0.78292 -0.782918,1.73982 h 1.478845 v -1.73982 c 0,0 0,0 0,0 m -4.871491,1.82681 h 2.783709 c 0.173982,-0.69593 0.434955,-1.30486 0.695928,-1.73982 -0.521946,0 -0.9569,0.087 -1.478846,0.17398 -0.695927,0.26098 -1.391854,0.78292 -2.000791,1.56584 m 0.608937,-1.30486 c -1.304864,0.26097 -2.522736,0.69592 -3.740609,1.21787 -0.08699,0 -0.08699,0.087 -0.173982,0.087 h 2.609727 c 0.434955,-0.52195 0.869909,-0.9569 1.304864,-1.30486 m -3.8276,7.04626 c 0.608936,-2.08778 1.304864,-3.8276 2.261764,-5.21945 h -2.957691 c -1.565837,1.30486 -2.8707,3.13167 -3.914591,5.21945 z m -2.087782,-4.69751 c -2.174772,1.21787 -4.001581,2.8707 -5.480427,4.69751 h 2.261764 c 0.869909,-1.82681 1.9138,-3.39265 3.218663,-4.69751"
       class="st0"
       style="fill:#ffffff;stroke-width:0.869909;opacity:0.69855072" />
    <path
       id="path939"
       d="m 47.62159,997.33102 c 0.173982,-0.087 0.347964,-0.26097 0.260973,-0.52194 -0.08699,-0.17398 -0.260973,-0.26097 -0.521945,-0.26097 -0.173982,0.087 -0.260973,0.26097 -0.260973,0.52194 0.08699,0.17398 0.347964,0.26097 0.521945,0.26097 z"
       class="st0"
       style="fill:#ffffff;stroke-width:0.869909;opacity:0.69855072" />
    <path
       id="path941"
       d="m 43.533018,999.15783 c -0.695927,-0.17398 -1.391855,0.43496 -1.565836,1.39187 -0.173982,0.9569 0.173981,1.8268 0.869909,2.0008 0.695927,0.174 1.391854,-0.435 1.565836,-1.3919 0.173982,-0.9569 -0.173982,-1.82679 -0.869909,-2.00077 z"
       class="st0"
       style="fill:#ffffff;stroke-width:0.869909;opacity:0.69855072" />
    <path
       id="path943"
       d="m 46.316727,1000.1147 c 0.347963,0.087 0.782918,0.261 1.130882,0.261 0.782918,0.087 1.478845,0.087 2.174772,-0.174 0.347964,-0.087 0.608937,-0.26095 0.869909,-0.43493 0.08699,-0.087 0.173982,-0.087 0.347964,-0.17398 -0.608936,-0.34797 -2.957691,-1.73982 -3.218664,-1.82681 -0.08699,0.17398 -1.04389,1.82681 -1.304863,2.34872 z"
       class="st0"
       style="fill:#ffffff;stroke-width:0.869909;opacity:0.69855072" />
    <path
       id="path945"
       d="m 49.622381,991.50263 c 0.347964,-0.087 0.608937,-0.26097 0.869909,-0.43495 0.08699,-0.087 0.173982,-0.087 0.347964,-0.17398 -0.608936,-0.34797 -2.957691,-1.73982 -3.218664,-1.82681 -0.173981,0.17398 -1.04389,1.82681 -1.304863,2.34875 0.347963,0.087 0.782918,0.26098 1.130882,0.26098 0.782918,0.087 1.478845,0 2.174772,-0.17399 z"
       class="st0"
       style="fill:#ffffff;stroke-width:0.869909;opacity:0.69855072" />
    <path
       id="path947"
       d="m 37.878609,985.50026 v 20.00794 h 20.007908 v -20.00794 z m 8.090154,5.7414 1.391855,-2.34875 c -0.260973,-0.087 -0.434955,-0.17399 -0.521946,-0.43496 -0.173982,-0.34796 0.08699,-0.78292 0.434955,-0.9569 0.347963,-0.087 0.782918,0.087 0.9569,0.43496 0.08699,0.34796 0,0.69592 -0.260973,0.86991 l 3.305654,1.9138 c 0.08699,0 0.173982,-0.087 0.260973,-0.087 0.347964,0 0.782918,0.087 0.9569,0.43496 0.173982,0.34796 0.173982,0.86991 -0.08699,1.13088 -0.173982,0.17398 -0.347963,0.34796 -0.521945,0.52195 0.08699,-0.26098 0,-0.52195 0,-0.69593 -0.173982,0.17398 -0.260973,0.26097 -0.347964,0.34796 0,0 0,0.087 0,0.087 0,0.26098 -0.08699,0.52195 -0.260973,0.86991 -0.260972,0.17398 -0.521945,0.34797 -0.869909,0.52195 0.173982,-0.26097 0.260973,-0.60894 0.260973,-0.9569 -0.08699,0.087 -0.260973,0.17398 -0.434954,0.17398 -0.08699,0.34796 -0.347964,0.78292 -0.695928,1.04389 -0.347963,0.087 -0.695927,0.26097 -1.043891,0.34796 0.260973,-0.26097 0.521946,-0.69592 0.608937,-1.04389 -0.173982,0 -0.260973,0.087 -0.434955,0.087 -0.08699,0.43496 -0.434954,0.86991 -0.869909,1.13089 -0.347963,0.087 -0.608936,0.087 -0.9569,0.087 0.347964,-0.34797 0.608937,-0.78292 0.695927,-1.21788 -0.260972,0 -0.347963,0.087 -0.434954,0.26098 -0.08699,0.17398 -0.173982,0.34796 -0.347964,0.52194 -0.173981,0.17398 -0.347963,0.43496 -0.608936,0.43496 -0.08699,0 -0.260973,0 -0.347964,0 -0.260972,0 -0.521945,0 -0.782918,-0.087 1.043891,-0.78292 1.565837,-1.9138 0.9569,-3.39265 0,0 0,0 0,0 z m -4.349545,0.52195 c 0.173982,-0.69593 0.521945,-1.21788 0.9569,-1.56584 0.347964,-0.17398 0.695927,-0.26097 1.043891,-0.17398 0.173982,0.087 0.347963,0.17398 0.521945,0.26097 0.434955,0.34796 0.869909,0.52195 1.304864,0.69593 0.173982,0.087 0.260972,0.43495 0.260972,0.52194 0.08699,0.17399 0.08699,0.43496 0.173982,0.69593 0,0.43496 -0.08699,0.86991 -0.260972,1.21787 -0.08699,0.17399 -0.260973,0.34797 -0.347964,0.52195 -0.173982,0.17398 -0.260973,0.34796 -0.521945,0.43495 -0.173982,0.087 -0.347964,0.17399 -0.521946,0.087 -0.434954,-0.087 -0.782918,-0.17398 -1.217873,-0.26097 -0.08699,0 -0.173981,0 -0.260972,0 -0.869909,-0.17398 -1.391855,-1.30486 -1.130882,-2.43574 z m 3.131673,11.39579 c -0.173982,0.087 -0.347964,0.174 -0.521946,0.087 -0.434954,-0.087 -0.782918,-0.174 -1.217873,-0.261 -0.08699,0 -0.173981,0 -0.260972,0 -0.869909,-0.2609 -1.391855,-1.3048 -1.130882,-2.5227 0.173982,-0.69593 0.521945,-1.21788 0.9569,-1.56584 0.347964,-0.17398 0.695927,-0.26097 1.043891,-0.17398 0.173982,0.087 0.347963,0.17398 0.521945,0.26097 0.434955,0.26097 0.869909,0.52195 1.304864,0.69593 0.173982,0.087 0.260972,0.43492 0.260972,0.52192 0.08699,0.174 0.08699,0.435 0.173982,0.609 0,0.4349 -0.08699,0.8699 -0.260972,1.2178 -0.08699,0.174 -0.260973,0.348 -0.347964,0.522 -0.173982,0.3479 -0.347964,0.5219 -0.521945,0.6089 z m 7.655199,-2.1748 c -0.173982,0.174 -0.347963,0.348 -0.521945,0.522 0.08699,-0.261 0,-0.435 0,-0.6959 -0.08699,0.087 -0.173982,0.1739 -0.260973,0.2609 0,0 0,0.087 0,0.087 0,0.261 -0.08699,0.522 -0.260973,0.8699 -0.260972,0.174 -0.521945,0.348 -0.869909,0.522 0.173982,-0.261 0.260973,-0.609 0.347964,-0.8699 -0.08699,0.087 -0.260973,0.174 -0.434955,0.174 -0.08699,0.3479 -0.347963,0.7829 -0.695927,1.0438 -0.347964,0.174 -0.695927,0.261 -1.043891,0.348 0.260973,-0.261 0.521946,-0.6959 0.608937,-1.0439 -0.173982,0 -0.260973,0.087 -0.434955,0.087 -0.08699,0.435 -0.434954,0.8699 -0.869909,1.1309 -0.347964,0.087 -0.608936,0.087 -0.9569,0.087 0.347964,-0.348 0.608936,-0.6959 0.695927,-1.2179 -0.260972,0 -0.347963,0.087 -0.434954,0.261 -0.08699,0.174 -0.173982,0.3479 -0.347964,0.5219 -0.173982,0.174 -0.347963,0.435 -0.608936,0.435 -0.08699,0 -0.260973,0 -0.347964,0 -0.260973,0 -0.521945,0 -0.782918,-0.087 0.9569,-0.7829 1.478845,-2.0008 0.869909,-3.47965 0,0 0,0 0,0 v 0 l 1.391855,-2.34875 c -0.260973,-0.087 -0.434955,-0.17399 -0.521946,-0.43496 -0.173982,-0.34796 0.08699,-0.78292 0.434955,-0.9569 0.347963,-0.087 0.782918,0.087 0.9569,0.43496 0.08699,0.34796 0,0.69592 -0.260973,0.86991 l 3.305654,1.9138 c 0.08699,0 0.173982,-0.087 0.260973,-0.087 0.347964,0 0.782918,0.087 0.9569,0.43496 0.08699,0.34793 0.08699,0.95693 -0.173982,1.21783 z m 0.521946,-0.8699 c 0,-0.26094 -0.08699,-0.43492 -0.260973,-0.6089 -0.260973,-0.34797 -0.608936,-0.52195 -1.043891,-0.52195 1.217873,-1.13088 1.739818,-2.52274 2.174773,-2.43574 0.260972,0.087 0.173981,1.8268 -0.869909,3.56659 z m 0,-8.69906 c 0,-0.26097 -0.08699,-0.43495 -0.260973,-0.60893 -0.260973,-0.34797 -0.608936,-0.52195 -1.043891,-0.52195 1.217873,-1.13088 1.739818,-2.52274 2.174773,-2.43574 0.260972,0.087 0.173981,1.8268 -0.869909,3.56662 z"
       class="st0"
       style="fill:#ffffff;stroke-width:0.869909;opacity:0.69855072" />
    <path
       id="path949"
       d="m 42.837091,993.85139 c 0.695927,0.17398 1.391854,-0.43496 1.565836,-1.39186 0.173982,-0.9569 -0.173982,-1.82681 -0.869909,-2.00079 -0.695927,-0.17398 -1.391855,0.43496 -1.565836,1.39186 -0.173982,0.9569 0.173981,1.82681 0.869909,2.00079 z"
       class="st0"
       style="fill:#ffffff;stroke-width:0.869909;opacity:0.69855072" />
    <path
       id="path951"
       d="m 47.62159,988.54494 c 0.173982,-0.087 0.347964,-0.26097 0.260973,-0.52194 -0.08699,-0.17398 -0.260973,-0.26098 -0.521945,-0.26098 -0.173982,0.17399 -0.260973,0.34797 -0.173982,0.52195 0,0.26097 0.260973,0.34796 0.434954,0.26097 z"
       class="st0"
       style="fill:#ffffff;stroke-width:0.869909;opacity:0.69855072" />
    <path
       id="path953"
       d="m 20.65441,1013.8593 c -0.347964,0.174 -0.608937,0.261 -0.869909,0.261 h -0.9569 v 0.4349 h 0.9569 c 0.260972,0 0.608936,-0.174 1.043891,-0.3479 0.521945,-0.261 1.04389,-0.435 1.565836,-0.435 0.782918,0 1.391854,0.348 1.478845,0.348 v -0.435 c -0.260972,-0.087 -0.869909,-0.3479 -1.478845,-0.3479 -0.695927,0.087 -1.304864,0.3479 -1.739818,0.5219 z"
       class="st0"
       style="fill:#ffffff;stroke-width:0.869909;opacity:0.69855072" />
    <path
       id="path955"
       d="m 29.614473,1022.2104 c -0.521945,-0.2609 -1.130882,-0.5219 -1.739818,-0.5219 -0.608936,0 -1.130882,0.174 -1.478845,0.3479 v 0.435 c 0.08699,0 0.695927,-0.348 1.478845,-0.348 0.608936,0 1.130882,0.261 1.565836,0.435 0.347964,0.174 0.695927,0.348 1.043891,0.348 h 0.9569 v -0.435 h -0.9569 c -0.173982,0 -0.521945,-0.174 -0.869909,-0.261 z"
       class="st0"
       style="fill:#ffffff;stroke-width:0.869909;opacity:0.69855072" />
    <path
       id="path957"
       d="m 20.65441,1015.5991 c -0.347964,0.174 -0.608937,0.261 -0.869909,0.261 h -0.9569 v 0.4349 h 0.9569 c 0.260972,0 0.608936,-0.1739 1.043891,-0.3479 0.521945,-0.174 1.04389,-0.435 1.565836,-0.435 0.782918,0 1.391854,0.348 1.478845,0.348 v -0.435 c -0.260972,-0.087 -0.869909,-0.3479 -1.478845,-0.3479 -0.695927,0 -1.304864,0.2609 -1.739818,0.5219 z"
       class="st0"
       style="fill:#ffffff;stroke-width:0.869909;opacity:0.69855072" />
    <path
       id="path959"
       d="m 20.65441,1022.2104 c -0.347964,0.174 -0.608937,0.261 -0.869909,0.261 h -0.9569 v 0.435 h 0.9569 c 0.260972,0 0.608936,-0.174 1.043891,-0.348 0.521945,-0.174 1.04389,-0.435 1.565836,-0.435 0.782918,0 1.391854,0.348 1.478845,0.348 v -0.5219 c -0.260972,-0.087 -0.869909,-0.348 -1.478845,-0.348 -0.695927,0.087 -1.304864,0.348 -1.739818,0.6089 z"
       class="st0"
       style="fill:#ffffff;stroke-width:0.869909;opacity:0.69855072" />
    <path
       id="path961"
       d="m 20.65441,1017.165 c -0.347964,0.1739 -0.608937,0.2609 -0.869909,0.2609 h -0.9569 v 0.435 h 0.9569 c 0.260972,0 0.608936,-0.174 1.043891,-0.348 0.521945,-0.261 1.04389,-0.4349 1.565836,-0.4349 0.782918,0 1.391854,0.3479 1.478845,0.3479 v -0.4349 c -0.260972,-0.087 -0.869909,-0.348 -1.478845,-0.348 -0.695927,0.087 -1.304864,0.348 -1.739818,0.522 z"
       class="st0"
       style="fill:#ffffff;stroke-width:0.869909;opacity:0.69855072" />
    <path
       id="path963"
       d="m 20.65441,1020.6446 c -0.347964,0.174 -0.608937,0.261 -0.869909,0.261 h -0.9569 v 0.4349 h 0.9569 c 0.260972,0 0.608936,-0.174 1.043891,-0.3479 0.521945,-0.261 1.04389,-0.435 1.565836,-0.435 0.782918,0 1.391854,0.348 1.478845,0.348 v -0.435 c -0.260972,-0.087 -0.869909,-0.348 -1.478845,-0.348 -0.695927,0 -1.304864,0.261 -1.739818,0.522 z"
       class="st0"
       style="fill:#ffffff;stroke-width:0.869909;opacity:0.69855072" />
    <path
       id="path965"
       d="m 29.614473,1020.6446 c -0.521945,-0.261 -1.130882,-0.522 -1.739818,-0.522 -0.608936,0 -1.130882,0.174 -1.478845,0.348 v 0.435 c 0.08699,0 0.695927,-0.348 1.478845,-0.348 0.608936,0 1.130882,0.261 1.565836,0.435 0.347964,0.1739 0.695927,0.3479 1.043891,0.3479 h 0.9569 v -0.4349 h -0.9569 c -0.173982,0 -0.521945,-0.174 -0.869909,-0.261 z"
       class="st0"
       style="fill:#ffffff;stroke-width:0.869909;opacity:0.69855072" />
    <path
       id="path967"
       d="m 20.65441,1018.9048 c -0.347964,0.174 -0.608937,0.2609 -0.869909,0.2609 h -0.9569 v 0.435 h 0.9569 c 0.260972,0 0.608936,-0.174 1.043891,-0.348 0.521945,-0.2609 1.04389,-0.4349 1.565836,-0.4349 0.782918,0 1.391854,0.3479 1.478845,0.3479 v -0.4349 c -0.260972,-0.087 -0.869909,-0.348 -1.478845,-0.348 -0.695927,0 -1.304864,0.261 -1.739818,0.522 z"
       class="st0"
       style="fill:#ffffff;stroke-width:0.869909;opacity:0.69855072" />
    <path
       id="path969"
       d="m 29.614473,1015.5991 c -0.521945,-0.261 -1.130882,-0.5219 -1.739818,-0.5219 -0.608936,0 -1.130882,0.174 -1.478845,0.3479 v 0.435 c 0.08699,0 0.695927,-0.348 1.478845,-0.348 0.608936,0 1.130882,0.261 1.565836,0.435 0.347964,0.174 0.695927,0.3479 1.043891,0.3479 h 0.9569 v -0.4349 h -0.9569 c -0.173982,0 -0.521945,-0.174 -0.869909,-0.261 z"
       class="st0"
       style="fill:#ffffff;stroke-width:0.869909;opacity:0.69855072" />
    <path
       id="path971"
       d="m 29.614473,1018.9048 c -0.521945,-0.261 -1.130882,-0.522 -1.739818,-0.522 -0.608936,0 -1.130882,0.174 -1.478845,0.348 v 0.4349 c 0.08699,0 0.695927,-0.3479 1.478845,-0.3479 0.608936,0 1.130882,0.261 1.565836,0.4349 0.347964,0.174 0.695927,0.348 1.043891,0.348 h 0.9569 v -0.435 h -0.9569 c -0.173982,0 -0.521945,-0.1739 -0.869909,-0.2609 z"
       class="st0"
       style="fill:#ffffff;stroke-width:0.869909;opacity:0.69855072" />
    <path
       id="path973"
       d="m 15.000001,1008.3789 v 20.0079 h 20.007908 v -20.0079 z m 2.957691,13.8315 h -1.043891 c -0.260973,0 -0.434955,-0.174 -0.434955,-0.4349 0,-0.261 0.173982,-0.435 0.434955,-0.435 h 1.043891 z m 0,-2.2617 h -1.043891 c -0.260973,0 -0.434955,-0.174 -0.434955,-0.435 0,-0.261 0.173982,-0.4349 0.434955,-0.4349 h 1.043891 z m 0,-2.0878 h -1.043891 c -0.260973,0 -0.434955,-0.174 -0.434955,-0.435 0,-0.2609 0.173982,-0.4349 0.434955,-0.4349 h 1.043891 z m 0,-2.3488 h -1.043891 c -0.260973,0 -0.434955,-0.174 -0.434955,-0.4349 0,-0.261 0.173982,-0.435 0.434955,-0.435 h 1.043891 z m 6.959272,8.8731 c -0.434954,-0.261 -1.391854,-0.8699 -2.087782,-0.8699 -1.217872,0 -1.739818,0.7829 -2.870699,0.7829 -0.782919,0 -1.739819,-0.087 -1.739819,-0.087 v -11.5698 c 0,0 0.9569,0.087 1.739819,0.087 0.782918,0 1.478845,-0.6959 2.870699,-0.6959 0.695928,0 1.739819,0.5219 2.087782,0.7829 z m 5.393436,-0.087 c -1.130881,0 -1.130881,-0.7829 -2.95769,-0.7829 -0.695928,0 -1.739819,0.6089 -2.174773,0.8699 v -11.5698 c 0.434954,-0.261 1.391854,-0.7829 2.087782,-0.7829 1.217872,0 2.087781,0.6959 2.783709,0.6959 0.782918,0 1.826809,-0.087 1.826809,-0.087 v 11.5698 c 0.173981,0 -0.782919,0.087 -1.565837,0.087 z m 2.8707,-3.2187 h -0.9569 v -0.9569 h 0.9569 c 0.260973,0 0.434955,0.174 0.434955,0.435 0.08699,0.261 -0.173982,0.5219 -0.434955,0.5219 z m 0,-2.1747 v 0 h -0.9569 v -0.9569 h 0.9569 c 0.260973,0 0.434955,0.174 0.434955,0.4349 0.08699,0.261 -0.173982,0.522 -0.434955,0.522 z m 0,-2.2618 h -0.9569 v -0.9569 h 0.9569 v 0 c 0.260973,0 0.434955,0.174 0.434955,0.435 0.08699,0.3479 -0.173982,0.5219 -0.434955,0.5219 z"
       class="st0"
       style="fill:#ffffff;stroke-width:0.869909;opacity:0.69855072" />
    <path
       id="path975"
       d="m 29.614473,1013.8593 c -0.521945,-0.261 -1.130882,-0.5219 -1.739818,-0.5219 -0.608936,0 -1.130882,0.1739 -1.478845,0.3479 v 0.435 c 0.08699,0 0.695927,-0.348 1.478845,-0.348 0.608936,0 1.130882,0.261 1.565836,0.435 0.347964,0.1739 0.695927,0.3479 1.043891,0.3479 h 0.9569 v -0.4349 h -0.9569 c -0.173982,0.087 -0.521945,-0.087 -0.869909,-0.261 z"
       class="st0"
       style="fill:#ffffff;stroke-width:0.869909;opacity:0.69855072" />
    <path
       id="path977"
       d="m 29.614473,1017.165 c -0.521945,-0.261 -1.130882,-0.522 -1.739818,-0.522 -0.608936,0 -1.130882,0.174 -1.478845,0.348 v 0.4349 c 0.08699,0 0.695927,-0.3479 1.478845,-0.3479 0.608936,0 1.130882,0.2609 1.565836,0.4349 0.347964,0.174 0.695927,0.348 1.043891,0.348 h 0.9569 v -0.435 h -0.9569 c -0.173982,0.087 -0.521945,-0.087 -0.869909,-0.2609 z"
       class="st0"
       style="fill:#ffffff;stroke-width:0.869909;opacity:0.69855072" />
    <path
       id="path979"
       d="m 79.28628,993.7644 c 0,0.60893 -0.08699,1.21787 -0.173982,1.82681 -0.173982,0.60893 -0.347964,1.13088 -0.695927,1.56583 -0.347964,0.43496 -0.782918,0.78292 -1.304864,1.04389 -0.521945,0.26098 -1.217872,0.43496 -2.000791,0.43496 -0.782918,0 -1.478845,-0.17398 -2.00079,-0.43496 -0.521946,-0.26097 -1.043891,-0.60893 -1.304864,-1.04389 -0.347964,-0.43495 -0.608936,-0.9569 -0.695927,-1.56583 -0.173982,-0.60894 -0.260973,-1.21788 -0.260973,-1.82681 v -7.30724 h 1.130882 v 7.04626 c 0,0.43496 0,0.86991 0.08699,1.39186 0.08699,0.52194 0.260972,0.9569 0.434954,1.30486 0.260973,0.43496 0.521946,0.78292 0.9569,1.04389 0.434955,0.26098 0.9569,0.43496 1.652827,0.43496 0.695928,0 1.217873,-0.17398 1.652828,-0.43496 0.434954,-0.26097 0.782918,-0.60893 0.9569,-1.04389 0.260972,-0.43495 0.347963,-0.86991 0.434954,-1.30486 0.08699,-0.52195 0.08699,-0.9569 0.08699,-1.39186 v -7.04626 h 1.130882 v 7.30724 z"
       style="fill:#ffffff;stroke-width:0.869909" />
    <polygon
       transform="matrix(0.86990905,0,0,0.86990905,15.000001,985.41327)"
       id="polygon981"
       points="78.4,1.2 80.1,1.2 88.4,13.1 88.4,1.2 89.7,1.2 89.7,14.8 88,14.8 79.7,2.9 79.7,14.8 78.4,14.8 "
       style="fill:#ffffff" />
    <polygon
       transform="matrix(0.86990905,0,0,0.86990905,15.000001,985.41327)"
       id="polygon983"
       points="94.4,1.2 95.6,1.2 95.6,14.8 94.4,14.8 "
       style="fill:#ffffff" />
    <polygon
       transform="matrix(0.86990905,0,0,0.86990905,15.000001,985.41327)"
       id="polygon985"
       points="105.4,14.8 104.2,14.8 99.1,1.2 100.4,1.2 104.8,13.1 109.3,1.2 110.6,1.2 "
       style="fill:#ffffff" />
    <polygon
       transform="matrix(0.86990905,0,0,0.86990905,15.000001,985.41327)"
       id="polygon987"
       points="114,1.2 122.3,1.2 122.3,2.3 115.2,2.3 115.2,7.2 121.9,7.2 121.9,8.3 115.2,8.3 115.2,13.7 122.6,13.7 122.6,14.8 114,14.8 "
       style="fill:#ffffff" />
    <path
       id="path989"
       d="m 125.47845,986.45716 h 3.13167 c 0.17398,0 0.34797,0 0.60894,0 0.26097,0 0.52194,0.087 0.86991,0.087 0.34796,0.087 0.60893,0.17398 0.9569,0.26097 0.34796,0.087 0.60893,0.26098 0.86991,0.52195 0.26097,0.26097 0.43495,0.52195 0.60893,0.86991 0.17399,0.34796 0.26098,0.78292 0.26098,1.30486 0,0.60894 -0.087,1.04389 -0.26098,1.39186 -0.17398,0.34796 -0.43495,0.69592 -0.78291,0.86991 -0.26098,0.26097 -0.60894,0.43495 -0.9569,0.52194 -0.34797,0.087 -0.69593,0.17398 -1.0439,0.26097 l 3.47964,5.7414 h -1.21787 l -3.30566,-5.6544 h -2.08778 v 5.6544 h -1.13088 z m 1.13088,5.21946 h 2.34876 c 0.60893,0 1.04389,-0.087 1.39185,-0.26098 0.34796,-0.17398 0.60894,-0.34796 0.86991,-0.52194 0.17398,-0.17398 0.34796,-0.43496 0.43495,-0.69593 0.087,-0.26097 0.087,-0.43495 0.087,-0.69593 0,-0.17398 0,-0.43495 -0.087,-0.69592 -0.087,-0.26098 -0.17398,-0.43496 -0.43495,-0.69593 -0.17398,-0.17398 -0.52195,-0.43496 -0.86991,-0.52195 -0.34796,-0.17398 -0.86991,-0.26097 -1.39185,-0.26097 h -2.34876 z"
       style="fill:#ffffff;stroke-width:0.869909" />
    <path
       id="path991"
       d="m 137.04824,996.11315 c 0.26097,0.52195 0.69593,0.86991 1.13088,1.13088 0.43496,0.26098 0.9569,0.34797 1.56584,0.34797 0.34796,0 0.69593,-0.087 1.04389,-0.17399 0.34796,-0.087 0.60894,-0.26097 0.86991,-0.43495 0.26097,-0.17398 0.43495,-0.43495 0.60894,-0.69593 0.17398,-0.26097 0.17398,-0.60893 0.17398,-0.9569 0,-0.43495 -0.087,-0.78291 -0.26098,-1.04389 -0.17398,-0.26097 -0.43495,-0.52194 -0.69592,-0.69592 -0.26098,-0.17399 -0.60894,-0.34797 -0.9569,-0.43496 -0.34797,-0.087 -0.78292,-0.26097 -1.13088,-0.34796 -0.34797,-0.087 -0.78292,-0.26098 -1.13089,-0.43496 -0.34796,-0.17398 -0.69592,-0.34796 -0.9569,-0.60893 -0.26097,-0.26098 -0.52194,-0.60894 -0.69592,-0.9569 -0.17399,-0.34797 -0.26098,-0.86991 -0.26098,-1.39186 0,-0.52194 0.087,-0.9569 0.34797,-1.39185 0.17398,-0.43496 0.52194,-0.78292 0.86991,-1.04389 0.34796,-0.26098 0.78291,-0.52195 1.21787,-0.60894 0.43495,-0.17398 0.9569,-0.17398 1.47884,-0.17398 0.60894,0 1.21788,0.087 1.82681,0.34796 0.52195,0.26097 1.04389,0.60894 1.47885,1.13088 l -0.9569,0.69593 c -0.26097,-0.43495 -0.60894,-0.69593 -0.9569,-0.86991 -0.34796,-0.17398 -0.78292,-0.26097 -1.30486,-0.26097 -0.34797,0 -0.69593,0.087 -1.0439,0.17398 -0.34796,0.087 -0.60893,0.26097 -0.8699,0.43496 -0.26098,0.17398 -0.43496,0.43495 -0.60894,0.69592 -0.17398,0.26098 -0.17398,0.60894 -0.17398,0.9569 0,0.60894 0.17398,1.04389 0.43495,1.39186 0.26097,0.34796 0.69593,0.60893 1.13088,0.78292 0.43496,0.17398 0.9569,0.34796 1.47885,0.52194 0.52194,0.17398 1.04389,0.34796 1.47884,0.52195 0.43496,0.26097 0.86991,0.52194 1.13089,0.9569 0.26097,0.43495 0.43495,0.9569 0.43495,1.73981 0,0.52195 -0.087,1.04389 -0.26097,1.39186 -0.17398,0.43495 -0.43496,0.78292 -0.78292,1.04389 -0.34796,0.26097 -0.69593,0.52194 -1.21787,0.60894 -0.43496,0.17398 -0.86991,0.26097 -1.39186,0.26097 -0.78292,0 -1.47884,-0.17398 -2.17477,-0.43496 -0.69593,-0.26097 -1.21787,-0.69592 -1.65283,-1.39185 z"
       style="fill:#ffffff;stroke-width:0.869909" />
    <polygon
       transform="matrix(0.86990905,0,0,0.86990905,15.000001,985.41327)"
       id="polygon993"
       points="152,1.2 153.3,1.2 153.3,14.8 152,14.8 "
       style="fill:#ffffff" />
    <polygon
       transform="matrix(0.86990905,0,0,0.86990905,15.000001,985.41327)"
       id="polygon995"
       points="167.6,2.3 162.9,2.3 162.9,14.8 161.6,14.8 161.6,2.3 156.9,2.3 156.9,1.2 167.6,1.2 "
       style="fill:#ffffff" />
    <polygon
       transform="matrix(0.86990905,0,0,0.86990905,15.000001,985.41327)"
       id="polygon997"
       points="174.9,7.6 179.2,1.2 180.6,1.2 175.6,8.9 175.6,14.8 174.3,14.8 174.3,8.9 169.3,1.2 170.8,1.2 "
       style="fill:#ffffff" />
    <path
       id="path999"
       d="m 177.41202,994.46032 c 0,-0.60893 0.087,-1.13088 0.26097,-1.65282 0.17399,-0.52195 0.52195,-0.9569 0.86991,-1.30487 0.34797,-0.34796 0.78292,-0.60893 1.30487,-0.86991 0.52194,-0.17398 1.04389,-0.26097 1.65282,-0.26097 0.60894,0 1.13088,0.087 1.65283,0.26097 0.52195,0.17399 0.9569,0.52195 1.30486,0.86991 0.34797,0.34797 0.60894,0.78292 0.86991,1.30487 0.17398,0.52194 0.26098,1.04389 0.26098,1.65282 0,0.60894 -0.087,1.13089 -0.26098,1.65283 -0.17398,0.52195 -0.52194,0.9569 -0.86991,1.30486 -0.34796,0.34797 -0.78291,0.60894 -1.30486,0.86991 -0.52195,0.17399 -1.04389,0.26098 -1.65283,0.26098 -0.60893,0 -1.13088,-0.087 -1.65282,-0.26098 -0.52195,-0.17398 -0.9569,-0.52194 -1.30487,-0.86991 -0.34796,-0.34796 -0.60893,-0.78291 -0.86991,-1.30486 -0.17398,-0.52194 -0.26097,-1.13088 -0.26097,-1.65283 z m 0.9569,0 c 0,0.43496 0.087,0.86991 0.17398,1.21788 0.17398,0.34796 0.34797,0.69592 0.60894,1.04389 0.26097,0.26097 0.60894,0.52194 0.9569,0.69592 0.34796,0.17399 0.78292,0.26098 1.30486,0.26098 0.43496,0 0.86991,-0.087 1.30487,-0.26098 0.34796,-0.17398 0.69592,-0.43495 0.9569,-0.69592 0.26097,-0.26098 0.43495,-0.60894 0.60893,-1.04389 0.17398,-0.34797 0.17398,-0.78292 0.17398,-1.21788 0,-0.43495 -0.087,-0.8699 -0.17398,-1.21787 -0.17398,-0.34796 -0.34796,-0.69593 -0.60893,-1.04389 -0.26098,-0.26097 -0.60894,-0.52194 -0.9569,-0.69593 -0.34797,-0.17398 -0.78292,-0.26097 -1.30487,-0.26097 -0.43495,0 -0.86991,0.087 -1.30486,0.26097 -0.34796,0.17399 -0.69593,0.43496 -0.9569,0.69593 -0.26097,0.26097 -0.43496,0.60894 -0.60894,1.04389 -0.087,0.34797 -0.17398,0.78292 -0.17398,1.21787 z"
       style="fill:#ffffff;stroke-width:0.869909" />
    <path
       id="path1001"
       d="m 188.89482,991.50263 h -1.65283 v -0.86991 h 1.65283 V 988.023 c 0,-0.52195 0.087,-0.9569 0.26097,-1.21788 0.17398,-0.34796 0.34797,-0.60893 0.52195,-0.78291 0.26097,-0.17399 0.43495,-0.34797 0.78292,-0.43496 0.26097,-0.17398 0.52194,-0.17398 0.69592,-0.17398 0.43496,0 0.86991,0.087 1.13089,0.17398 l -0.17399,0.86991 c -0.26097,-0.087 -0.52194,-0.17398 -0.86991,-0.17398 -0.8699,0 -1.39185,0.69593 -1.39185,2.08778 v 2.17477 h 1.82681 v 0.86991 h -1.82681 v 6.87228 h -1.04389 v -6.78529 z"
       style="fill:#ffffff;stroke-width:0.869909" />
    <path
       id="path1003"
       d="m 70.587189,1006.0301 h 6.176355 c 0.782918,0 1.652827,0.087 2.435745,0.174 0.869909,0.087 1.565836,0.435 2.261763,0.7829 0.695928,0.435 1.217873,0.9569 1.565837,1.7398 0.434954,0.696 0.608936,1.7399 0.608936,2.9577 0,1.1309 -0.347964,2.0008 -0.9569,2.8707 -0.608936,0.7829 -1.565836,1.3049 -2.8707,1.5659 v 0.087 c 0.695927,0.087 1.391855,0.2609 1.9138,0.5219 0.608936,0.261 1.043891,0.6089 1.478846,1.0439 0.434954,0.4349 0.782918,0.9569 0.956899,1.6528 0.260973,0.609 0.347964,1.3049 0.347964,2.0878 0,1.2179 -0.260973,2.2618 -0.695927,3.0447 -0.434955,0.7829 -1.043891,1.3918 -1.826809,1.8268 -0.695927,0.4349 -1.478846,0.7829 -2.348755,0.8699 -0.869909,0.174 -1.652827,0.261 -2.348754,0.261 h -6.872282 v -21.4868 z m 2.000791,9.2211 h 4.175564 c 1.04389,0 1.826809,-0.087 2.522736,-0.348 0.608936,-0.261 1.130882,-0.522 1.478845,-0.9569 0.347964,-0.348 0.608937,-0.7829 0.695927,-1.1309 0.08699,-0.4349 0.173982,-0.7829 0.173982,-1.1309 0,-0.7829 -0.08699,-1.3918 -0.347963,-1.8268 -0.260973,-0.5219 -0.608937,-0.8699 -1.043891,-1.2179 -0.434955,-0.2609 -0.9569,-0.5219 -1.478846,-0.6089 -0.521945,-0.087 -1.130881,-0.174 -1.826809,-0.174 h -4.436536 v 7.3943 z m 0,10.3519 h 4.523527 c 1.130882,0 2.087782,-0.174 2.8707,-0.435 0.695927,-0.261 1.304864,-0.6089 1.652827,-1.0439 0.347964,-0.4349 0.608937,-0.8699 0.782918,-1.3048 0.173982,-0.435 0.173982,-0.8699 0.173982,-1.3049 0,-0.7829 -0.173982,-1.4788 -0.434954,-2.0008 -0.260973,-0.5219 -0.695928,-1.0439 -1.217873,-1.3918 -0.521945,-0.348 -1.043891,-0.609 -1.652827,-0.783 -0.608937,-0.1739 -1.217873,-0.2609 -1.826809,-0.2609 H 72.58798 Z"
       style="fill:#ffffff;stroke-width:0.869909" />
    <path
       id="path1005"
       d="m 89.290234,1006.0301 h 5.654409 c 0.260972,0 0.695927,0 1.130881,0 0.521946,0 1.043891,0.087 1.565837,0.174 0.521945,0.087 1.130882,0.261 1.739818,0.5219 0.608936,0.261 1.130881,0.522 1.565841,0.9569 0.43495,0.435 0.8699,0.9569 1.13088,1.5659 0.26097,0.6089 0.43495,1.3918 0.43495,2.3487 0,1.0439 -0.17398,1.9138 -0.52194,2.5228 -0.34797,0.6959 -0.78292,1.2178 -1.30487,1.6528 -0.52194,0.435 -1.130879,0.6959 -1.739816,0.9569 -0.608936,0.174 -1.217872,0.348 -1.826809,0.435 l 6.263345,10.2649 H 101.121 l -6.089366,-10.178 h -3.740609 v 10.178 h -2.000791 z m 2.000791,9.395 h 4.262554 c 1.043891,0 1.9138,-0.1739 2.522736,-0.4349 0.695928,-0.261 1.130882,-0.609 1.565837,-0.9569 0.347963,-0.348 0.608938,-0.7829 0.782918,-1.2179 0.17398,-0.4349 0.17398,-0.8699 0.17398,-1.2179 0,-0.3479 -0.087,-0.7829 -0.17398,-1.2178 -0.17398,-0.435 -0.34796,-0.8699 -0.782918,-1.2179 -0.347964,-0.348 -0.869909,-0.6959 -1.565837,-0.9569 -0.695927,-0.261 -1.478845,-0.435 -2.522736,-0.435 h -4.262554 z"
       style="fill:#ffffff;stroke-width:0.869909" />
    <path
       id="path1007"
       d="m 115.73547,1006.0301 h 2.08778 l 9.04705,21.3998 h -2.26176 l -2.34875,-5.6544 h -11.30882 l -2.43575,5.6544 h -2.17477 z m 0.9569,2.1748 -4.95848,11.7438 h 9.82997 z"
       style="fill:#ffffff;stroke-width:0.869909" />
    <path
       id="path1009"
       d="m 130.87189,1006.0301 h 6.61131 c 1.8268,0 3.39264,0.261 4.6975,0.6959 1.30487,0.435 2.34876,1.0439 3.21867,1.7399 0.86991,0.6959 1.56583,1.4788 2.00079,2.3487 0.52194,0.8699 0.86991,1.6528 1.13088,2.4358 0.26097,0.7829 0.34796,1.4788 0.43495,2.1747 0.087,0.609 0.087,1.0439 0.087,1.3049 0,0.261 0,0.6959 -0.087,1.3049 -0.087,0.6089 -0.17398,1.3048 -0.43495,2.1747 -0.26097,0.783 -0.60894,1.5659 -1.13088,2.4358 -0.52195,0.8699 -1.13088,1.6528 -2.00079,2.3487 -0.86991,0.696 -1.9138,1.3049 -3.21867,1.7398 -1.30486,0.435 -2.8707,0.696 -4.6975,0.696 h -6.61131 z m 1.9138,19.573 h 4.08857 c 1.39185,0 2.69672,-0.174 4.00158,-0.522 1.21787,-0.3479 2.26176,-0.8699 3.21866,-1.6528 0.86991,-0.6959 1.65283,-1.6528 2.17478,-2.7837 0.52194,-1.1309 0.78291,-2.4358 0.78291,-4.0016 0,-1.5658 -0.26097,-2.8707 -0.78291,-4.0016 -0.52195,-1.1309 -1.21788,-2.0008 -2.17478,-2.7837 -0.86991,-0.6959 -2.00079,-1.3048 -3.21866,-1.6528 -1.21787,-0.348 -2.52274,-0.522 -4.00158,-0.522 h -4.08857 z"
       style="fill:#ffffff;stroke-width:0.869909" />
    <polygon
       transform="matrix(0.86990905,0,0,0.86990905,15.000001,985.41327)"
       id="polygon1011"
       points="174.2,25.8 161.8,25.8 161.8,34.5 173.3,34.5 173.3,36.6 161.8,36.6 161.8,48.3 159.5,48.3 159.5,23.7 174.2,23.7 "
       style="fill:#ffffff" />
    <path
       id="path1013"
       d="m 170.97469,1016.73 c 0,-1.6528 0.26098,-3.1317 0.78292,-4.5235 0.52195,-1.3919 1.30487,-2.5228 2.26177,-3.5667 0.9569,-0.9569 2.17477,-1.7398 3.47963,-2.3487 1.39186,-0.522 2.8707,-0.8699 4.52353,-0.8699 1.65283,0 3.13167,0.261 4.52353,0.8699 1.39185,0.5219 2.52273,1.3049 3.47963,2.3487 0.9569,0.9569 1.73982,2.1748 2.26177,3.5667 0.52194,1.3918 0.78291,2.8707 0.78291,4.5235 0,1.6528 -0.26097,3.1317 -0.78291,4.5235 -0.52195,1.3919 -1.30487,2.6098 -2.26177,3.5666 -0.9569,0.9569 -2.08778,1.7399 -3.47963,2.3488 -1.39186,0.5219 -2.8707,0.8699 -4.52353,0.8699 -1.65283,0 -3.13167,-0.261 -4.52353,-0.8699 -1.39185,-0.5219 -2.52273,-1.3049 -3.47963,-2.3488 -0.9569,-0.9568 -1.73982,-2.1747 -2.26177,-3.5666 -0.52194,-1.3918 -0.78292,-2.8707 -0.78292,-4.5235 z m 2.00079,0 c 0,1.3049 0.17399,2.6097 0.60894,3.7406 0.43496,1.1309 1.04389,2.1748 1.82681,2.9577 0.78292,0.8699 1.73982,1.4788 2.8707,2.0008 1.13088,0.5219 2.34875,0.6959 3.74061,0.6959 1.39185,0 2.60973,-0.261 3.74061,-0.6959 1.13088,-0.522 2.08778,-1.1309 2.8707,-2.0008 0.78292,-0.8699 1.39185,-1.8268 1.82681,-2.9577 0.43495,-1.1309 0.60893,-2.3487 0.60893,-3.7406 0,-1.3049 -0.17398,-2.6097 -0.60893,-3.7406 -0.43496,-1.1309 -1.04389,-2.1748 -1.82681,-2.9577 -0.78292,-0.8699 -1.73982,-1.4788 -2.8707,-2.0008 -1.13088,-0.5219 -2.34876,-0.6959 -3.74061,-0.6959 -1.39186,0 -2.60973,0.261 -3.74061,0.6959 -1.13088,0.522 -2.08778,1.1309 -2.8707,2.0008 -0.78292,0.8699 -1.39185,1.8268 -1.82681,2.9577 -0.34796,1.1309 -0.60894,2.4357 -0.60894,3.7406 z"
       style="fill:#ffffff;stroke-width:0.869909" />
    <path
       id="path1015"
       d="m 198.37683,1006.0301 h 5.65441 c 0.26097,0 0.69592,0 1.13088,0 0.52194,0 1.04389,0.087 1.56584,0.174 0.52194,0.087 1.13088,0.261 1.73981,0.5219 0.60894,0.261 1.13089,0.522 1.56584,0.9569 0.43495,0.435 0.86991,0.9569 1.13088,1.5659 0.26097,0.6089 0.43496,1.3918 0.43496,2.3487 0,1.0439 -0.17399,1.9138 -0.52195,2.5228 -0.34796,0.6959 -0.78292,1.2178 -1.30486,1.6528 -0.52195,0.435 -1.13088,0.6959 -1.73982,0.9569 -0.60894,0.174 -1.21787,0.348 -1.82681,0.435 l 6.26335,10.2649 h -2.26177 l -6.00237,-10.178 h -3.74061 v 10.178 h -2.00079 v -21.3998 z m 2.00079,9.395 h 4.26255 c 1.04389,0 1.9138,-0.1739 2.52274,-0.4349 0.69593,-0.261 1.13088,-0.609 1.56584,-0.9569 0.34796,-0.348 0.60893,-0.7829 0.78291,-1.2179 0.17399,-0.4349 0.17399,-0.8699 0.17399,-1.2179 0,-0.3479 -0.087,-0.7829 -0.17399,-1.2178 -0.17398,-0.435 -0.34796,-0.8699 -0.78291,-1.2179 -0.34797,-0.348 -0.86991,-0.6959 -1.56584,-0.9569 -0.69593,-0.261 -1.47885,-0.435 -2.52274,-0.435 h -4.26255 z"
       style="fill:#ffffff;stroke-width:0.869909" />
    <path
       id="path1017"
       d="m 216.90589,1006.0301 h 6.61131 c 1.82681,0 3.39265,0.261 4.69751,0.6959 1.30486,0.435 2.34875,1.0439 3.21866,1.7399 0.86991,0.6959 1.56584,1.4788 2.00079,2.3487 0.52195,0.8699 0.86991,1.6528 1.04389,2.4358 0.26098,0.7829 0.34797,1.4788 0.43496,2.1747 0.087,0.609 0.087,1.0439 0.087,1.3049 0,0.261 0,0.6959 -0.087,1.3049 -0.087,0.6089 -0.17398,1.3048 -0.43496,2.1747 -0.26097,0.783 -0.60893,1.5659 -1.04389,2.4358 -0.52194,0.8699 -1.13088,1.6528 -2.00079,2.3487 -0.86991,0.696 -1.9138,1.3049 -3.21866,1.7398 -1.30486,0.435 -2.8707,0.696 -4.69751,0.696 h -6.61131 z m 2.00079,19.573 h 4.08857 c 1.39186,0 2.69672,-0.174 4.00159,-0.522 1.21787,-0.3479 2.26176,-0.8699 3.21866,-1.6528 0.86991,-0.6959 1.65283,-1.6528 2.17477,-2.7837 0.52195,-1.1309 0.78292,-2.4358 0.78292,-4.0016 0,-1.5658 -0.26097,-2.8707 -0.78292,-4.0016 -0.52194,-1.1309 -1.21787,-2.0008 -2.17477,-2.7837 -0.86991,-0.6959 -2.00079,-1.3048 -3.21866,-1.6528 -1.21788,-0.348 -2.52274,-0.522 -4.00159,-0.522 h -4.08857 z"
       style="fill:#ffffff;stroke-width:0.869909" />
  </g>
  <style
     type="text/css"
     id="style933">  
	.st0{fill:#6A6A75;}
</style>
</svg>
