<?xml version="1.0" encoding="UTF-8" standalone="no"?>
<!-- Created with Inkscape (http://www.inkscape.org/) -->

<svg xmlns:dc="http://purl.org/dc/elements/1.1/" xmlns:cc="http://creativecommons.org/ns#" xmlns:rdf="http://www.w3.org/1999/02/22-rdf-syntax-ns#" xmlns:svg="http://www.w3.org/2000/svg" xmlns="http://www.w3.org/2000/svg" xmlns:sodipodi="http://sodipodi.sourceforge.net/DTD/sodipodi-0.dtd" xmlns:inkscape="http://www.inkscape.org/namespaces/inkscape" width="250" height="91" viewBox="0 0 250 91" id="svg2" version="1.1" inkscape:version="0.91 r13725" sodipodi:docname="universityofleeds.svg">
  <defs id="defs4" />
  <sodipodi:namedview id="base" pagecolor="#ffffff" bordercolor="#666666" borderopacity="1.0" inkscape:pageopacity="0.0" inkscape:pageshadow="2" inkscape:zoom="1.9799" inkscape:cx="183.26" inkscape:cy="27.908" inkscape:document-units="px" inkscape:current-layer="layer1" showgrid="false" inkscape:window-width="1280" inkscape:window-height="752" inkscape:window-x="0" inkscape:window-y="0" inkscape:window-maximized="1" units="px" />
  <metadata id="metadata7">
    <rdf:RDF>
      <cc:Work rdf:about="">
        <dc:format>image/svg+xml</dc:format>
        <dc:type rdf:resource="http://purl.org/dc/dcmitype/StillImage" />
        <dc:title></dc:title>
      </cc:Work>
    </rdf:RDF>
  </metadata>
  <g inkscape:label="Layer 1" inkscape:groupmode="layer" id="layer1" transform="translate(0,-961.4)">
    <rect style="opacity:0.001;fill:#000000;fill-opacity:1;stroke:none;stroke-width:2.5;stroke-linecap:round;stroke-linejoin:round;stroke-miterlimit:4;stroke-dasharray:none;stroke-dashoffset:0;stroke-opacity:1" id="rect4175" width="250" height="91" x="0" y="961.4" />
    <g transform="matrix(0.62868,0,0,0.62868,22.796,464.06)" id="g2253" style="fill:#ffffff;fill-opacity:1">
      <path id="path2255" d="m -3.6738,913.36 c -4.7207,-0.33 -7.3792,-2.28 -8.3952,-6.17 -0.241,-0.92 -0.249,-1.16 -0.293,-9.29 l -0.04,-8.35 2.5149,0 2.5149,0 0,7.73 c 0,6.77 0.023,7.8 0.1836,8.35 0.7189,2.42 2.3674,3.57 5.0912,3.55 2.85517,0 4.5361,-1.31 4.9655,-3.8 0.088,-0.51 0.1294,-3.18 0.1294,-8.29 l 0,-7.54 2.507,0 2.5069,0 0,7.04 c 0,9 -0.083,9.98 -0.9804,11.97 -1.2373,2.73 -4.1213,4.5 -7.73517,4.75 -0.56403,0 -1.17943,0.1 -1.36743,0.1 -0.188,0 -0.9059,0 -1.5954,0 z m 124.3238,0 c -1.32,-0.12 -2.98,-0.51 -4.05,-0.97 -1.02,-0.44 -2.16,-1.08 -2.16,-1.22 0,-0.12 1.73,-3.42 1.85,-3.55 0,0 0.29,0.1 0.56,0.25 3.06,1.94 6.9,2.01 8.17,0.16 0.23,-0.34 0.26,-0.49 0.21,-1.07 -0.12,-1.33 -0.88,-2.03 -3.95,-3.66 -1.04,-0.55 -2.24,-1.24 -2.68,-1.54 -1.65,-1.12 -2.63,-2.36 -3.1,-3.9 -0.26,-0.85 -0.25,-2.79 0,-3.67 0.53,-1.8 1.9,-3.33 3.65,-4.11 1.28,-0.56 2.38,-0.77 4.17,-0.77 2.12,0 3.92,0.36 5.5,1.12 l 0.42,0.21 0,2.12 c 0,1.17 0,2.16 -0.1,2.2 0,0 -0.42,-0.11 -0.85,-0.33 -2.41,-1.21 -4.53,-1.6 -6.13,-1.12 -1.17,0.35 -1.88,1.37 -1.61,2.34 0.31,1.07 1.12,1.75 3.76,3.13 2.45,1.28 3.55,2.02 4.48,3.01 1.26,1.33 1.71,2.5 1.71,4.45 0,0.99 -0.1,1.35 -0.31,2.08 -1.14,3.4 -4.8,5.24 -9.58,4.84 z m 83.18,0 c -3.4,-0.3 -5.97,-1.48 -7.93,-3.65 -2.67,-2.96 -3.61,-7.65 -2.39,-11.99 0.85,-3.03 2.91,-5.6 5.62,-7.02 4.03,-2.1 9.49,-1.89 13.2,0.51 3.52,2.28 5.37,6.68 4.84,11.53 -0.29,2.59 -1.06,4.59 -2.43,6.31 -1.92,2.4 -5.07,4.04 -8.17,4.26 -0.63,0.1 -1.24,0.1 -1.37,0.12 -0.12,0 -0.74,0 -1.37,-0.1 z m 3.25,-4.26 c 2.29,-0.67 3.93,-2.5 4.63,-5.18 0.26,-0.95 0.29,-3.72 0.1,-4.79 -0.59,-2.76 -2.25,-4.71 -4.66,-5.47 -1.08,-0.35 -2.85,-0.35 -3.98,0 -2.35,0.71 -3.88,2.35 -4.62,4.97 -0.35,1.25 -0.4,3.58 -0.11,4.96 0.7,3.27 2.74,5.3 5.78,5.74 0.62,0.1 2.27,0 2.9,-0.22 z m 120.22,4.2 c -0.82,-0.1 -2.49,-0.5 -3.5,-0.91 -1.03,-0.42 -2.34,-1.15 -2.29,-1.28 0.13,-0.27 1.74,-3.29 1.83,-3.4 0.1,-0.1 0.41,0 1.26,0.48 1.64,0.86 2.58,1.11 4.13,1.13 0.95,0 1.4,0 1.86,-0.2 1.06,-0.37 1.74,-1.15 1.74,-1.99 0,-1.42 -0.82,-2.2 -4.06,-3.89 -4.39,-2.3 -5.87,-4.1 -5.87,-7.18 0,-3.29 2.04,-5.68 5.59,-6.52 1.97,-0.47 5.17,-0.22 6.99,0.54 0.38,0.16 0.84,0.36 1.01,0.43 l 0.32,0.13 0,2.19 c 0,1.21 0,2.2 -0.1,2.2 0,0 -0.57,-0.25 -1.22,-0.56 -1.76,-0.84 -2.74,-1.09 -4.26,-1.08 -1.44,0 -2.01,0.2 -2.66,0.87 -0.3,0.32 -0.38,0.51 -0.43,1.01 -0.1,0.53 0,0.69 0.28,1.19 0.46,0.79 1.24,1.35 3.5,2.54 2.9,1.52 4,2.3 4.88,3.45 0.95,1.25 1.25,2.23 1.24,4.03 0,1.2 0,1.47 -0.31,2.15 -0.93,2.41 -2.88,3.91 -5.89,4.52 -1.04,0.21 -2.51,0.27 -4.09,0.15 z m -268.106,-0.86 c -1.229,-2.97 -9.179,-22.52 -9.224,-22.68 -0.05,-0.19 0.129,-0.2 2.675,-0.2 l 2.731,0 2.26,5.9 c 1.242,3.24 2.677,7.01 3.186,8.37 l 0.927,2.47 0.318,-0.98 c 0.379,-1.16 1.213,-3.21 4.23,-10.38 l 2.266,-5.38 2.54,0 c 1.397,0 2.54,0 2.54,0.1 0,0.1 -2.324,5.37 -5.166,11.82 l -5.166,11.73 -1.887,0 -1.887,0 -0.343,-0.83 z m -45.034,-11.09 0,-11.79 2.535,0 2.536,0 5.053,6.43 c 2.78,3.54 5.446,6.98 5.926,7.66 l 0.872,1.22 0.03,-7.65 0.03,-7.66 2.449,0 2.449,0 0,11.8 0,11.79 -2.298,0 -2.298,0 -1.872,-2.39 c -5.402,-6.9 -9.391,-12.05 -9.892,-12.77 l -0.562,-0.8 0.04,8.01 0.04,8.01 -2.516,0 -2.516,0 0,-11.8 z m 28.374,0 0,-11.79 2.507,0 2.507,0 0,11.79 0,11.8 -2.507,0 -2.507,0 0,-11.8 z m 33.844,0 0,-11.79 6.838,0 c 3.76,0 6.837,0 6.837,0.1 0,0.1 -0.284,0.97 -0.631,2.05 l -0.631,1.95 -3.699,0 -3.7,0 0,2.68 0,2.68 3.704,0 3.703,0 0,2.05 0,2.05 -3.703,0 -3.704,0 0,2.91 0,2.9 4.33,0 4.331,0 0,2.11 0,2.11 -6.837,0 -6.838,0 0,-11.8 z m 18.917,0 0,-11.81 4.643,0.1 c 4.292,0 4.712,0.1 5.582,0.29 2.61,0.68 4.31,2.15 4.95,4.29 0.29,0.97 0.34,2.76 0.11,3.71 -0.41,1.65 -1.68,3.22 -3.37,4.17 l -0.63,0.35 0.35,0.33 c 0.54,0.51 1.23,1.45 2.24,3.02 0.92,1.46 4.22,6.97 4.32,7.25 0.1,0.12 -0.49,0.15 -2.79,0.15 l -2.85,0 -1.74,-2.99 c -2.07,-3.57 -3.06,-5.12 -3.61,-5.7 -0.41,-0.42 -0.43,-0.43 -1.3,-0.43 l -0.89,0 0,4.56 0,4.56 -2.508,0 -2.507,0 0,-11.8 z m 7.505,-1.08 c 0.88,-0.15 1.42,-0.41 1.98,-0.97 0.63,-0.63 0.93,-1.34 0.98,-2.29 0,-1.03 -0.25,-1.8 -0.97,-2.43 -0.72,-0.63 -1.33,-0.81 -3.03,-0.89 l -1.45,-0.1 0,3.38 0,3.38 0.88,0 c 0.49,0 1.21,0 1.61,-0.11 z m 31.69,1.08 0,-11.79 2.45,0 2.45,0 0,11.79 0,11.8 -2.45,0 -2.45,0 0,-11.8 z m 15.16,2.06 0,-9.75 -3.48,0 -3.47,0 0,-2.05 0,-2.05 9.69,0 9.69,0 -0.1,0.31 c -0.1,0.18 -0.3,1.09 -0.56,2.03 l -0.47,1.71 -3.15,0 -3.16,0 0,9.74 0,9.74 -2.5,0 -2.51,0 0,-9.74 z m 20.74,5.06 0,-4.67 -4,-6.96 c -2.19,-3.82 -4.02,-7.03 -4.05,-7.12 -0.1,-0.14 0.32,-0.16 2.7,-0.13 l 2.77,0 1.81,3.3 c 0.99,1.82 2.17,4.02 2.61,4.9 l 0.8,1.58 0.99,-1.93 c 0.55,-1.06 1.72,-3.27 2.62,-4.92 l 1.63,-2.99 2.61,0 c 1.44,0 2.61,0 2.61,0 0,0 -1.82,3.23 -4.04,7.14 l -4.05,7.09 0,4.66 0,4.66 -2.5,0 -2.51,0 0,-4.68 z m 51.28,-7.12 0,-11.79 6.89,0 c 3.79,0 6.9,0 6.89,0.1 0,0 -0.27,0.95 -0.61,2.02 l -0.62,1.94 -3.77,0 -3.77,0 0,2.67 0,2.68 3.7,0 3.7,0 0,2.05 0,2.05 -3.74,0 -3.73,0 0,5.01 0,5.02 -2.5,0 -2.51,0 0,-11.8 z m 25.52,-0.1 0,-11.74 2.51,0 2.51,0 0,9.69 0,9.68 4.1,0 4.1,0 0,2.05 0,2.05 -6.61,0 -6.61,0 0,-11.73 z m 16.3,0 0,-11.74 6.88,0 6.88,0 -0.65,2.02 -0.64,2.03 -3.73,0 -3.73,0 0,2.67 0,2.68 3.71,0 3.7,0 0,2.05 0,2.05 -3.7,0 -3.71,0 0,2.91 0,2.9 4.33,0 4.33,0 0,2.05 0,2.05 -6.83,0 -6.84,0 0,-11.73 z m 17.78,0 0,-11.74 6.83,0 c 5.4,0 6.84,0 6.84,0.14 0,0.1 -0.28,0.99 -0.61,2.03 l -0.6,1.88 -3.72,0 -3.73,0 0,2.67 0,2.68 3.76,0 3.76,0 0,2.05 0,2.05 -3.76,0 -3.76,0 0,2.91 0,2.9 4.33,0 4.33,0 0,2.05 0,2.05 -6.84,0 -6.83,0 0,-11.73 z m 17.77,0 0,-11.75 4.13,0 c 2.28,0 4.75,0.1 5.5,0.11 6.55,0.51 10.66,4.18 11.24,10.03 0.17,1.68 0.1,3.18 -0.29,4.62 -1.12,4.36 -4.37,7.27 -9.37,8.39 -1.04,0.23 -1.5,0.25 -6.16,0.29 l -5.05,0 0,-11.74 z m 10.39,7.24 c 3.49,-0.98 5.4,-3.84 5.19,-7.76 -0.12,-2.14 -0.72,-3.66 -1.97,-4.9 -1.56,-1.57 -3.8,-2.22 -7.6,-2.23 l -0.99,0 0,7.65 0,7.66 2.19,-0.1 c 1.84,-0.1 2.35,-0.12 3.18,-0.35 z m -37.28,-63.03 0,-31.97 32.25,0 32.25,0 0,31.97 0,31.96 -3.88,0 -3.87,0 0,-9.57 0,-9.57 -2.85,0 -2.85,0 0,9.57 0,9.57 -0.4,0 -0.4,0 0,-10.48 0,-10.49 -5.12,0 -5.13,0 0,10.49 0,10.48 -0.46,0 -0.45,0 0,-9.57 0,-9.57 -2.8,0 -2.79,0 0,9.57 0,9.57 -16.75,0 -16.75,0 0,-31.96 z m 39.09,11.11 0,-0.91 5.98,0 5.98,0 0,0.91 0,0.91 2.22,0 2.23,0 0,-1.94 0,-1.94 -0.4,0 -0.4,0 0,-6.6 0,-6.61 -0.63,0 -0.63,0 0,-3.48 0,-3.47 -8.31,0 -8.32,0 0,3.47 0,3.48 -0.63,0 -0.63,0 0,6.61 0,6.6 -0.4,0 -0.39,0 0,1.94 0,1.94 2.16,0 2.17,0 0,-0.91 z m 0.11,-7.1 c 0,-2.27 0,-4.63 -0.1,-5.24 l -0.1,-1.11 1.61,0 1.62,0 0,0.86 0,0.85 -1.03,0 -1.02,0 0,4.39 0,4.38 -0.52,0 -0.51,0 0,-4.13 z m 4.33,-0.68 c 0,-2.65 0,-5.01 -0.1,-5.24 l -0.1,-0.43 1.61,0 1.61,0 0,0.86 0,0.85 -1.03,0 -1.02,0 0,4.39 0,4.38 -0.52,0 -0.51,0 0,-4.81 z m 4.33,1.88 c 0,-1.61 0,-3.97 -0.1,-5.24 l -0.1,-2.31 1.61,0 1.62,0 0,0.86 0,0.85 -1.03,0 -1.02,0 0,4.39 0,4.38 -0.52,0 -0.51,0 0,-2.93 z m -9.96,-9.37 c -0.16,-0.25 -0.3,-0.48 -0.3,-0.51 0,0 3.39,-0.1 7.53,-0.1 5.25,0 7.52,0 7.52,0.12 0,0.1 -0.14,0.3 -0.3,0.51 l -0.3,0.39 -6.92,0 -6.93,0 -0.3,-0.45 z m 3.92,-5.24 0,-1.26 0.74,0 0.74,0 0,0.46 c 0,0.44 0,0.45 -0.4,0.45 l -0.4,0 0,0.8 0,0.8 -0.34,0 -0.34,0 0,-1.25 z m 2.51,0 0,-1.26 0.74,0 0.74,0 0,0.46 c 0,0.44 0,0.45 -0.4,0.45 l -0.4,0 0,0.8 0,0.8 -0.34,0 -0.34,0 0,-1.25 z m 2.62,0 0,-1.26 0.74,0 0.74,0 0,0.46 c 0,0.45 0,0.45 -0.46,0.45 l -0.45,0 0,0.8 c 0,0.78 0,0.8 -0.29,0.8 l -0.28,0 0,-1.25 z m 4.11,-5.47 -0.29,-2.05 -5.67,0 c -3.12,0 -5.67,0 -5.67,0 0,0 -0.26,1.87 -0.51,3.62 l -0.1,0.43 6.24,0 6.25,0 -0.29,-2.05 z m -0.76,-2.95 c -0.15,-0.14 -4.88,-2.96 -5.1,-3.04 -0.1,0 -1.16,0.53 -2.74,1.49 -1.42,0.85 -2.58,1.57 -2.58,1.6 0,0 2.37,0 5.27,0 2.93,0 5.21,0 5.15,-0.1 z m -6.37,37.09 c -1.01,-0.47 -1.77,-1.62 -1.77,-2.69 0,-0.6 0.36,-1.5 0.78,-1.96 1.43,-1.59 4.07,-1.14 4.92,0.84 0.3,0.7 0.28,1.72 0,2.38 -0.69,1.44 -2.48,2.09 -3.89,1.43 z m 2.36,-0.86 c 0.68,-0.47 0.94,-0.99 0.94,-1.83 0,-0.59 -0.1,-0.83 -0.28,-1.15 -0.43,-0.65 -0.97,-0.94 -1.77,-0.95 -0.82,0 -1.39,0.29 -1.86,0.99 -0.25,0.38 -0.3,0.59 -0.29,1.16 0,0.99 0.52,1.69 1.47,2.02 0.44,0.16 1.39,0 1.79,-0.24 z" style="fill:#ffffff;fill-opacity:1" inkscape:connector-curvature="0" />
    </g>
  </g>
</svg>
