<?xml version="1.0" encoding="UTF-8"?>
<svg version="1.1" viewBox="0 0 250 91" xmlns="http://www.w3.org/2000/svg" xmlns:cc="http://creativecommons.org/ns#" xmlns:dc="http://purl.org/dc/elements/1.1/" xmlns:rdf="http://www.w3.org/1999/02/22-rdf-syntax-ns#">
<metadata>
<rdf:RDF>
<cc:Work rdf:about="">
<dc:format>image/svg+xml</dc:format>
<dc:type rdf:resource="http://purl.org/dc/dcmitype/StillImage"/>
<dc:title/>
</cc:Work>
</rdf:RDF>
</metadata>
<g transform="translate(0,-961.4)">
<path class="st0" d="m46.665 1012.9h-5.4804c-0.08699 2.1748-0.17398 4.7845-0.34796 7.2202h4.6975c0.52194-2.1747 0.9569-4.6975 1.1309-7.2202m-6.4373 7.8292h-2.3488v5.2194h1.5658c0.26097-1.3048 0.52195-3.0446 0.78292-5.2194m2.8707 5.2194c0.9569-1.3048 1.6528-3.1316 2.2618-5.2194h-4.6105c-0.17398 1.9138-0.43496 3.7406-0.78292 5.2194zm7.6552-5.8284c0.9569-2.1747 1.6528-4.6975 2.0008-7.2202h-5.4804c-0.17398 2.5227-0.60894 5.0455-1.1309 7.2202zm6.5243-7.7421c0.26097-1.3049 0.43495-2.6098 0.43495-3.9146h-4.0886c0 1.3048-0.08699 2.6097-0.26097 3.9146zm-16.615 0.5219h-2.7837v7.2202h2.3488c0.17398-2.0007 0.34796-4.4365 0.43496-7.2202m0-4.5235h-2.8707v4.0016h2.7837c0.08699-1.3049 0.08699-2.6098 0.08699-4.0016m6.1764 0h-5.6544c0 0.7829 0 2.1747-0.08699 3.9146h5.4804c0.26097-1.2179 0.26097-2.6098 0.26097-3.9146m6.9593 11.744c1.5658-2.0877 2.6967-4.6105 3.3926-7.2202h-3.9146c-0.34796 2.5227-0.9569 5.0455-1.9138 7.2202zm-1.0439-7.7421c0.17398-1.3049 0.26097-2.6098 0.26097-3.9146h-5.6544c0 1.3048-0.08699 2.6097-0.17398 3.9146zm-14.875 15.832h0.69593c0.26097-0.261 0.52195-0.7829 0.78292-1.7398h-1.4788zm4.7845-1.7398h-2.7837c-0.17398 0.6959-0.43496 1.3048-0.60894 1.7398 0.52195 0 0.9569-0.087 1.3919-0.174 0.69593-0.348 1.3919-0.8699 2.0008-1.5658m-0.52195 1.3048c1.3049-0.2609 2.5227-0.6959 3.7406-1.2178 0.08699 0 0.08699-0.087 0.17398-0.087h-2.6097c-0.52194 0.5219-0.86991 0.9569-1.3049 1.3048m3.7406-7.0462c-0.60894 2.0008-1.3049 3.8276-2.1748 5.2194h2.9577c1.5658-1.3048 2.8707-3.1316 3.8276-5.2194zm2.0878 4.6975c2.0878-1.2179 3.9146-2.8707 5.3934-4.6975h-2.2618c-0.78292 1.8268-1.8268 3.3926-3.1317 4.6975" fill="#fff" opacity=".69855" stroke-width=".86991"/>
<path class="st0" d="m26.135 1001h5.5674c0.08699-2.1747 0.17398-4.8714 0.34796-7.3072h-4.7845c-0.52195 2.1748-0.9569 4.6975-1.1309 7.3072m6.5243-7.9161h2.3488v-5.2194h-1.6528c-0.26097 1.3049-0.52194 3.0447-0.69593 5.2194m-2.9577-5.2194c-0.9569 1.3049-1.7398 3.1317-2.2618 5.2194h4.6975c0.17398-2.0008 0.43496-3.8276 0.78292-5.2194zm-7.7422 5.8284c-0.9569 2.2618-1.6528 4.7845-2.0008 7.3072h5.5674c0.17398-2.6097 0.60894-5.0454 1.2179-7.3072zm-6.5243 7.9162c-0.26097 1.2179-0.43496 2.6097-0.43496 3.9146h4.1756c0-1.3049 0.08699-2.6967 0.26097-4.0016h-4.0016zm16.789-0.609h2.7837v-7.3072h-2.4357c-0.17398 2.0878-0.26097 4.5235-0.34796 7.3072m-0.08699 4.5236h2.8707v-4.0016h-2.8707v4.0016m-6.1764 0h5.6544c0-0.7829 0-2.1748 0.08699-4.0016h-5.5674c-0.17398 1.3918-0.17398 2.6967-0.17398 4.0016m-7.0463-11.831c-1.5658 2.1748-2.7837 4.6105-3.3926 7.3072h3.9146c0.34796-2.6097 0.9569-5.0454 1.9138-7.3072zm1.0439 7.9162c-0.17398 1.3048-0.26097 2.6967-0.26097 4.0016h5.6544c0-1.3049 0.08699-2.6968 0.17398-4.0016zm15.049-16.093h-0.69593c-0.26097 0.26097-0.52195 0.78292-0.78292 1.7398h1.4788v-1.7398m-4.8715 1.8268h2.7837c0.17398-0.69593 0.43496-1.3049 0.69593-1.7398-0.52195 0-0.9569 0.087-1.4788 0.17398-0.69593 0.26098-1.3919 0.78292-2.0008 1.5658m0.60894-1.3049c-1.3049 0.26097-2.5227 0.69592-3.7406 1.2179-0.08699 0-0.08699 0.087-0.17398 0.087h2.6097c0.43496-0.52195 0.86991-0.9569 1.3049-1.3049m-3.8276 7.0463c0.60894-2.0878 1.3049-3.8276 2.2618-5.2194h-2.9577c-1.5658 1.3049-2.8707 3.1317-3.9146 5.2194zm-2.0878-4.6975c-2.1748 1.2179-4.0016 2.8707-5.4804 4.6975h2.2618c0.86991-1.8268 1.9138-3.3926 3.2187-4.6975" fill="#fff" opacity=".69855" stroke-width=".86991"/>
<path class="st0" d="m47.622 997.33c0.17398-0.087 0.34796-0.26097 0.26097-0.52194-0.08699-0.17398-0.26097-0.26097-0.52194-0.26097-0.17398 0.087-0.26097 0.26097-0.26097 0.52194 0.08699 0.17398 0.34796 0.26097 0.52194 0.26097z" fill="#fff" opacity=".69855" stroke-width=".86991"/>
<path class="st0" d="m43.533 999.16c-0.69593-0.17398-1.3919 0.43496-1.5658 1.3919-0.17398 0.9569 0.17398 1.8268 0.86991 2.0008 0.69593 0.174 1.3919-0.435 1.5658-1.3919s-0.17398-1.8268-0.86991-2.0008z" fill="#fff" opacity=".69855" stroke-width=".86991"/>
<path class="st0" d="m46.317 1000.1c0.34796 0.087 0.78292 0.261 1.1309 0.261 0.78292 0.087 1.4788 0.087 2.1748-0.174 0.34796-0.087 0.60894-0.26095 0.86991-0.43493 0.08699-0.087 0.17398-0.087 0.34796-0.17398-0.60894-0.34797-2.9577-1.7398-3.2187-1.8268-0.08699 0.17398-1.0439 1.8268-1.3049 2.3487z" fill="#fff" opacity=".69855" stroke-width=".86991"/>
<path class="st0" d="m49.622 991.5c0.34796-0.087 0.60894-0.26097 0.86991-0.43495 0.08699-0.087 0.17398-0.087 0.34796-0.17398-0.60894-0.34797-2.9577-1.7398-3.2187-1.8268-0.17398 0.17398-1.0439 1.8268-1.3049 2.3488 0.34796 0.087 0.78292 0.26098 1.1309 0.26098 0.78292 0.087 1.4788 0 2.1748-0.17399z" fill="#fff" opacity=".69855" stroke-width=".86991"/>
<path class="st0" d="m37.879 985.5v20.008h20.008v-20.008zm8.0902 5.7414 1.3919-2.3488c-0.26097-0.087-0.43496-0.17399-0.52195-0.43496-0.17398-0.34796 0.08699-0.78292 0.43496-0.9569 0.34796-0.087 0.78292 0.087 0.9569 0.43496 0.08699 0.34796 0 0.69592-0.26097 0.86991l3.3057 1.9138c0.08699 0 0.17398-0.087 0.26097-0.087 0.34796 0 0.78292 0.087 0.9569 0.43496s0.17398 0.86991-0.08699 1.1309c-0.17398 0.17398-0.34796 0.34796-0.52194 0.52195 0.08699-0.26098 0-0.52195 0-0.69593l-0.34796 0.34796v0.087c0 0.26098-0.08699 0.52195-0.26097 0.86991-0.26097 0.17398-0.52194 0.34797-0.86991 0.52195 0.17398-0.26097 0.26097-0.60894 0.26097-0.9569-0.08699 0.087-0.26097 0.17398-0.43495 0.17398-0.08699 0.34796-0.34796 0.78292-0.69593 1.0439-0.34796 0.087-0.69593 0.26097-1.0439 0.34796 0.26097-0.26097 0.52195-0.69592 0.60894-1.0439-0.17398 0-0.26097 0.087-0.43496 0.087-0.08699 0.43496-0.43495 0.86991-0.86991 1.1309-0.34796 0.087-0.60894 0.087-0.9569 0.087 0.34796-0.34797 0.60894-0.78292 0.69593-1.2179-0.26097 0-0.34796 0.087-0.43495 0.26098-0.08699 0.17398-0.17398 0.34796-0.34796 0.52194-0.17398 0.17398-0.34796 0.43496-0.60894 0.43496h-0.34796c-0.26097 0-0.52194 0-0.78292-0.087 1.0439-0.78292 1.5658-1.9138 0.9569-3.3926zm-4.3495 0.52195c0.17398-0.69593 0.52194-1.2179 0.9569-1.5658 0.34796-0.17398 0.69593-0.26097 1.0439-0.17398 0.17398 0.087 0.34796 0.17398 0.52194 0.26097 0.43496 0.34796 0.86991 0.52195 1.3049 0.69593 0.17398 0.087 0.26097 0.43495 0.26097 0.52194 0.08699 0.17399 0.08699 0.43496 0.17398 0.69593 0 0.43496-0.08699 0.86991-0.26097 1.2179-0.08699 0.17399-0.26097 0.34797-0.34796 0.52195-0.17398 0.17398-0.26097 0.34796-0.52194 0.43495-0.17398 0.087-0.34796 0.17399-0.52195 0.087-0.43495-0.087-0.78292-0.17398-1.2179-0.26097h-0.26097c-0.86991-0.17398-1.3919-1.3049-1.1309-2.4357zm3.1317 11.396c-0.17398 0.087-0.34796 0.174-0.52195 0.087-0.43495-0.087-0.78292-0.174-1.2179-0.261h-0.26097c-0.86991-0.2609-1.3919-1.3048-1.1309-2.5227 0.17398-0.69593 0.52194-1.2179 0.9569-1.5658 0.34796-0.17398 0.69593-0.26097 1.0439-0.17398 0.17398 0.087 0.34796 0.17398 0.52194 0.26097 0.43496 0.26097 0.86991 0.52195 1.3049 0.69593 0.17398 0.087 0.26097 0.43492 0.26097 0.52192 0.08699 0.174 0.08699 0.435 0.17398 0.609 0 0.4349-0.08699 0.8699-0.26097 1.2178-0.08699 0.174-0.26097 0.348-0.34796 0.522-0.17398 0.3479-0.34796 0.5219-0.52194 0.6089zm7.6552-2.1748c-0.17398 0.174-0.34796 0.348-0.52194 0.522 0.08699-0.261 0-0.435 0-0.6959-0.08699 0.087-0.17398 0.1739-0.26097 0.2609v0.087c0 0.261-0.08699 0.522-0.26097 0.8699-0.26097 0.174-0.52194 0.348-0.86991 0.522 0.17398-0.261 0.26097-0.609 0.34796-0.8699-0.08699 0.087-0.26097 0.174-0.43496 0.174-0.08699 0.3479-0.34796 0.7829-0.69593 1.0438-0.34796 0.174-0.69593 0.261-1.0439 0.348 0.26097-0.261 0.52195-0.6959 0.60894-1.0439-0.17398 0-0.26097 0.087-0.43496 0.087-0.08699 0.435-0.43495 0.8699-0.86991 1.1309-0.34796 0.087-0.60894 0.087-0.9569 0.087 0.34796-0.348 0.60894-0.6959 0.69593-1.2179-0.26097 0-0.34796 0.087-0.43495 0.261-0.08699 0.174-0.17398 0.3479-0.34796 0.5219s-0.34796 0.435-0.60894 0.435h-0.34796c-0.26097 0-0.52194 0-0.78292-0.087 0.9569-0.7829 1.4788-2.0008 0.86991-3.4796l1.3919-2.3488c-0.26097-0.087-0.43496-0.17399-0.52195-0.43496-0.17398-0.34796 0.08699-0.78292 0.43496-0.9569 0.34796-0.087 0.78292 0.087 0.9569 0.43496 0.08699 0.34796 0 0.69592-0.26097 0.86991l3.3057 1.9138c0.08699 0 0.17398-0.087 0.26097-0.087 0.34796 0 0.78292 0.087 0.9569 0.43496 0.08699 0.34793 0.08699 0.95693-0.17398 1.2178zm0.52195-0.8699c0-0.26094-0.08699-0.43492-0.26097-0.6089-0.26097-0.34797-0.60894-0.52195-1.0439-0.52195 1.2179-1.1309 1.7398-2.5227 2.1748-2.4357 0.26097 0.087 0.17398 1.8268-0.86991 3.5666zm0-8.6991c0-0.26097-0.08699-0.43495-0.26097-0.60893-0.26097-0.34797-0.60894-0.52195-1.0439-0.52195 1.2179-1.1309 1.7398-2.5227 2.1748-2.4357 0.26097 0.087 0.17398 1.8268-0.86991 3.5666z" fill="#fff" opacity=".69855" stroke-width=".86991"/>
<path class="st0" d="m42.837 993.85c0.69593 0.17398 1.3919-0.43496 1.5658-1.3919s-0.17398-1.8268-0.86991-2.0008-1.3919 0.43496-1.5658 1.3919c-0.17398 0.9569 0.17398 1.8268 0.86991 2.0008z" fill="#fff" opacity=".69855" stroke-width=".86991"/>
<path class="st0" d="m47.622 988.54c0.17398-0.087 0.34796-0.26097 0.26097-0.52194-0.08699-0.17398-0.26097-0.26098-0.52194-0.26098-0.17398 0.17399-0.26097 0.34797-0.17398 0.52195 0 0.26097 0.26097 0.34796 0.43495 0.26097z" fill="#fff" opacity=".69855" stroke-width=".86991"/>
<path class="st0" d="m20.654 1013.9c-0.34796 0.174-0.60894 0.261-0.86991 0.261h-0.9569v0.4349h0.9569c0.26097 0 0.60894-0.174 1.0439-0.3479 0.52194-0.261 1.0439-0.435 1.5658-0.435 0.78292 0 1.3919 0.348 1.4788 0.348v-0.435c-0.26097-0.087-0.86991-0.3479-1.4788-0.3479-0.69593 0.087-1.3049 0.3479-1.7398 0.5219z" fill="#fff" opacity=".69855" stroke-width=".86991"/>
<path class="st0" d="m29.614 1022.2c-0.52194-0.2609-1.1309-0.5219-1.7398-0.5219s-1.1309 0.174-1.4788 0.3479v0.435c0.08699 0 0.69593-0.348 1.4788-0.348 0.60894 0 1.1309 0.261 1.5658 0.435 0.34796 0.174 0.69593 0.348 1.0439 0.348h0.9569v-0.435h-0.9569c-0.17398 0-0.52194-0.174-0.86991-0.261z" fill="#fff" opacity=".69855" stroke-width=".86991"/>
<path class="st0" d="m20.654 1015.6c-0.34796 0.174-0.60894 0.261-0.86991 0.261h-0.9569v0.4349h0.9569c0.26097 0 0.60894-0.1739 1.0439-0.3479 0.52194-0.174 1.0439-0.435 1.5658-0.435 0.78292 0 1.3919 0.348 1.4788 0.348v-0.435c-0.26097-0.087-0.86991-0.3479-1.4788-0.3479-0.69593 0-1.3049 0.2609-1.7398 0.5219z" fill="#fff" opacity=".69855" stroke-width=".86991"/>
<path class="st0" d="m20.654 1022.2c-0.34796 0.174-0.60894 0.261-0.86991 0.261h-0.9569v0.435h0.9569c0.26097 0 0.60894-0.174 1.0439-0.348 0.52194-0.174 1.0439-0.435 1.5658-0.435 0.78292 0 1.3919 0.348 1.4788 0.348v-0.5219c-0.26097-0.087-0.86991-0.348-1.4788-0.348-0.69593 0.087-1.3049 0.348-1.7398 0.6089z" fill="#fff" opacity=".69855" stroke-width=".86991"/>
<path class="st0" d="m20.654 1017.2c-0.34796 0.1739-0.60894 0.2609-0.86991 0.2609h-0.9569v0.435h0.9569c0.26097 0 0.60894-0.174 1.0439-0.348 0.52194-0.261 1.0439-0.4349 1.5658-0.4349 0.78292 0 1.3919 0.3479 1.4788 0.3479v-0.4349c-0.26097-0.087-0.86991-0.348-1.4788-0.348-0.69593 0.087-1.3049 0.348-1.7398 0.522z" fill="#fff" opacity=".69855" stroke-width=".86991"/>
<path class="st0" d="m20.654 1020.6c-0.34796 0.174-0.60894 0.261-0.86991 0.261h-0.9569v0.4349h0.9569c0.26097 0 0.60894-0.174 1.0439-0.3479 0.52194-0.261 1.0439-0.435 1.5658-0.435 0.78292 0 1.3919 0.348 1.4788 0.348v-0.435c-0.26097-0.087-0.86991-0.348-1.4788-0.348-0.69593 0-1.3049 0.261-1.7398 0.522z" fill="#fff" opacity=".69855" stroke-width=".86991"/>
<path class="st0" d="m29.614 1020.6c-0.52194-0.261-1.1309-0.522-1.7398-0.522s-1.1309 0.174-1.4788 0.348v0.435c0.08699 0 0.69593-0.348 1.4788-0.348 0.60894 0 1.1309 0.261 1.5658 0.435 0.34796 0.1739 0.69593 0.3479 1.0439 0.3479h0.9569v-0.4349h-0.9569c-0.17398 0-0.52194-0.174-0.86991-0.261z" fill="#fff" opacity=".69855" stroke-width=".86991"/>
<path class="st0" d="m20.654 1018.9c-0.34796 0.174-0.60894 0.2609-0.86991 0.2609h-0.9569v0.435h0.9569c0.26097 0 0.60894-0.174 1.0439-0.348 0.52194-0.2609 1.0439-0.4349 1.5658-0.4349 0.78292 0 1.3919 0.3479 1.4788 0.3479v-0.4349c-0.26097-0.087-0.86991-0.348-1.4788-0.348-0.69593 0-1.3049 0.261-1.7398 0.522z" fill="#fff" opacity=".69855" stroke-width=".86991"/>
<path class="st0" d="m29.614 1015.6c-0.52194-0.261-1.1309-0.5219-1.7398-0.5219s-1.1309 0.174-1.4788 0.3479v0.435c0.08699 0 0.69593-0.348 1.4788-0.348 0.60894 0 1.1309 0.261 1.5658 0.435 0.34796 0.174 0.69593 0.3479 1.0439 0.3479h0.9569v-0.4349h-0.9569c-0.17398 0-0.52194-0.174-0.86991-0.261z" fill="#fff" opacity=".69855" stroke-width=".86991"/>
<path class="st0" d="m29.614 1018.9c-0.52194-0.261-1.1309-0.522-1.7398-0.522s-1.1309 0.174-1.4788 0.348v0.4349c0.08699 0 0.69593-0.3479 1.4788-0.3479 0.60894 0 1.1309 0.261 1.5658 0.4349 0.34796 0.174 0.69593 0.348 1.0439 0.348h0.9569v-0.435h-0.9569c-0.17398 0-0.52194-0.1739-0.86991-0.2609z" fill="#fff" opacity=".69855" stroke-width=".86991"/>
<path class="st0" d="m15 1008.4v20.008h20.008v-20.008zm2.9577 13.832h-1.0439c-0.26097 0-0.43496-0.174-0.43496-0.4349 0-0.261 0.17398-0.435 0.43496-0.435h1.0439zm0-2.2617h-1.0439c-0.26097 0-0.43496-0.174-0.43496-0.435s0.17398-0.4349 0.43496-0.4349h1.0439zm0-2.0878h-1.0439c-0.26097 0-0.43496-0.174-0.43496-0.435 0-0.2609 0.17398-0.4349 0.43496-0.4349h1.0439zm0-2.3488h-1.0439c-0.26097 0-0.43496-0.174-0.43496-0.4349 0-0.261 0.17398-0.435 0.43496-0.435h1.0439zm6.9593 8.8731c-0.43495-0.261-1.3919-0.8699-2.0878-0.8699-1.2179 0-1.7398 0.7829-2.8707 0.7829-0.78292 0-1.7398-0.087-1.7398-0.087v-11.57s0.9569 0.087 1.7398 0.087c0.78292 0 1.4788-0.6959 2.8707-0.6959 0.69593 0 1.7398 0.5219 2.0878 0.7829zm5.3934-0.087c-1.1309 0-1.1309-0.7829-2.9577-0.7829-0.69593 0-1.7398 0.6089-2.1748 0.8699v-11.57c0.43495-0.261 1.3919-0.7829 2.0878-0.7829 1.2179 0 2.0878 0.6959 2.7837 0.6959 0.78292 0 1.8268-0.087 1.8268-0.087v11.57c0.17398 0-0.78292 0.087-1.5658 0.087zm2.8707-3.2187h-0.9569v-0.9569h0.9569c0.26097 0 0.43496 0.174 0.43496 0.435 0.08699 0.261-0.17398 0.5219-0.43496 0.5219zm0-2.1747h-0.9569v-0.9569h0.9569c0.26097 0 0.43496 0.174 0.43496 0.4349 0.08699 0.261-0.17398 0.522-0.43496 0.522zm0-2.2618h-0.9569v-0.9569h0.9569c0.26097 0 0.43496 0.174 0.43496 0.435 0.08699 0.3479-0.17398 0.5219-0.43496 0.5219z" fill="#fff" opacity=".69855" stroke-width=".86991"/>
<path class="st0" d="m29.614 1013.9c-0.52194-0.261-1.1309-0.5219-1.7398-0.5219s-1.1309 0.1739-1.4788 0.3479v0.435c0.08699 0 0.69593-0.348 1.4788-0.348 0.60894 0 1.1309 0.261 1.5658 0.435 0.34796 0.1739 0.69593 0.3479 1.0439 0.3479h0.9569v-0.4349h-0.9569c-0.17398 0.087-0.52194-0.087-0.86991-0.261z" fill="#fff" opacity=".69855" stroke-width=".86991"/>
<path class="st0" d="m29.614 1017.2c-0.52194-0.261-1.1309-0.522-1.7398-0.522s-1.1309 0.174-1.4788 0.348v0.4349c0.08699 0 0.69593-0.3479 1.4788-0.3479 0.60894 0 1.1309 0.2609 1.5658 0.4349 0.34796 0.174 0.69593 0.348 1.0439 0.348h0.9569v-0.435h-0.9569c-0.17398 0.087-0.52194-0.087-0.86991-0.2609z" fill="#fff" opacity=".69855" stroke-width=".86991"/>
<path d="m79.286 993.76c0 0.60893-0.08699 1.2179-0.17398 1.8268-0.17398 0.60893-0.34796 1.1309-0.69593 1.5658-0.34796 0.43496-0.78292 0.78292-1.3049 1.0439-0.52194 0.26098-1.2179 0.43496-2.0008 0.43496-0.78292 0-1.4788-0.17398-2.0008-0.43496-0.52195-0.26097-1.0439-0.60893-1.3049-1.0439-0.34796-0.43495-0.60894-0.9569-0.69593-1.5658-0.17398-0.60894-0.26097-1.2179-0.26097-1.8268v-7.3072h1.1309v7.0463c0 0.43496 0 0.86991 0.08699 1.3919 0.08699 0.52194 0.26097 0.9569 0.43495 1.3049 0.26097 0.43496 0.52195 0.78292 0.9569 1.0439 0.43496 0.26098 0.9569 0.43496 1.6528 0.43496 0.69593 0 1.2179-0.17398 1.6528-0.43496 0.43495-0.26097 0.78292-0.60893 0.9569-1.0439 0.26097-0.43495 0.34796-0.86991 0.43495-1.3049 0.08699-0.52195 0.08699-0.9569 0.08699-1.3919v-7.0463h1.1309v7.3072z" fill="#fff" stroke-width=".86991"/>
<polygon transform="matrix(.86991 0 0 .86991 15 985.41)" points="78.4 1.2 80.1 1.2 88.4 13.1 88.4 1.2 89.7 1.2 89.7 14.8 88 14.8 79.7 2.9 79.7 14.8 78.4 14.8" fill="#fff"/>
<polygon transform="matrix(.86991 0 0 .86991 15 985.41)" points="94.4 1.2 95.6 1.2 95.6 14.8 94.4 14.8" fill="#fff"/>
<polygon transform="matrix(.86991 0 0 .86991 15 985.41)" points="105.4 14.8 104.2 14.8 99.1 1.2 100.4 1.2 104.8 13.1 109.3 1.2 110.6 1.2" fill="#fff"/>
<polygon transform="matrix(.86991 0 0 .86991 15 985.41)" points="114 1.2 122.3 1.2 122.3 2.3 115.2 2.3 115.2 7.2 121.9 7.2 121.9 8.3 115.2 8.3 115.2 13.7 122.6 13.7 122.6 14.8 114 14.8" fill="#fff"/>
<path d="m125.48 986.46h3.1317 0.60894c0.26097 0 0.52194 0.087 0.86991 0.087 0.34796 0.087 0.60893 0.17398 0.9569 0.26097 0.34796 0.087 0.60893 0.26098 0.86991 0.52195 0.26097 0.26097 0.43495 0.52195 0.60893 0.86991 0.17399 0.34796 0.26098 0.78292 0.26098 1.3049 0 0.60894-0.087 1.0439-0.26098 1.3919-0.17398 0.34796-0.43495 0.69592-0.78291 0.86991-0.26098 0.26097-0.60894 0.43495-0.9569 0.52194-0.34797 0.087-0.69593 0.17398-1.0439 0.26097l3.4796 5.7414h-1.2179l-3.3057-5.6544h-2.0878v5.6544h-1.1309zm1.1309 5.2195h2.3488c0.60893 0 1.0439-0.087 1.3918-0.26098s0.60894-0.34796 0.86991-0.52194c0.17398-0.17398 0.34796-0.43496 0.43495-0.69593 0.087-0.26097 0.087-0.43495 0.087-0.69593 0-0.17398 0-0.43495-0.087-0.69592-0.087-0.26098-0.17398-0.43496-0.43495-0.69593-0.17398-0.17398-0.52195-0.43496-0.86991-0.52195-0.34796-0.17398-0.86991-0.26097-1.3918-0.26097h-2.3488z" fill="#fff" stroke-width=".86991"/>
<path d="m137.05 996.11c0.26097 0.52195 0.69593 0.86991 1.1309 1.1309 0.43496 0.26098 0.9569 0.34797 1.5658 0.34797 0.34796 0 0.69593-0.087 1.0439-0.17399 0.34796-0.087 0.60894-0.26097 0.86991-0.43495s0.43495-0.43495 0.60894-0.69593c0.17398-0.26097 0.17398-0.60893 0.17398-0.9569 0-0.43495-0.087-0.78291-0.26098-1.0439-0.17398-0.26097-0.43495-0.52194-0.69592-0.69592-0.26098-0.17399-0.60894-0.34797-0.9569-0.43496-0.34797-0.087-0.78292-0.26097-1.1309-0.34796-0.34797-0.087-0.78292-0.26098-1.1309-0.43496-0.34796-0.17398-0.69592-0.34796-0.9569-0.60893-0.26097-0.26098-0.52194-0.60894-0.69592-0.9569-0.17399-0.34797-0.26098-0.86991-0.26098-1.3919 0-0.52194 0.087-0.9569 0.34797-1.3918 0.17398-0.43496 0.52194-0.78292 0.86991-1.0439 0.34796-0.26098 0.78291-0.52195 1.2179-0.60894 0.43495-0.17398 0.9569-0.17398 1.4788-0.17398 0.60894 0 1.2179 0.087 1.8268 0.34796 0.52195 0.26097 1.0439 0.60894 1.4788 1.1309l-0.9569 0.69593c-0.26097-0.43495-0.60894-0.69593-0.9569-0.86991s-0.78292-0.26097-1.3049-0.26097c-0.34797 0-0.69593 0.087-1.0439 0.17398-0.34796 0.087-0.60893 0.26097-0.8699 0.43496-0.26098 0.17398-0.43496 0.43495-0.60894 0.69592-0.17398 0.26098-0.17398 0.60894-0.17398 0.9569 0 0.60894 0.17398 1.0439 0.43495 1.3919 0.26097 0.34796 0.69593 0.60893 1.1309 0.78292 0.43496 0.17398 0.9569 0.34796 1.4788 0.52194 0.52194 0.17398 1.0439 0.34796 1.4788 0.52195 0.43496 0.26097 0.86991 0.52194 1.1309 0.9569 0.26097 0.43495 0.43495 0.9569 0.43495 1.7398 0 0.52195-0.087 1.0439-0.26097 1.3919-0.17398 0.43495-0.43496 0.78292-0.78292 1.0439s-0.69593 0.52194-1.2179 0.60894c-0.43496 0.17398-0.86991 0.26097-1.3919 0.26097-0.78292 0-1.4788-0.17398-2.1748-0.43496-0.69593-0.26097-1.2179-0.69592-1.6528-1.3918z" fill="#fff" stroke-width=".86991"/>
<polygon transform="matrix(.86991 0 0 .86991 15 985.41)" points="152 1.2 153.3 1.2 153.3 14.8 152 14.8" fill="#fff"/>
<polygon transform="matrix(.86991 0 0 .86991 15 985.41)" points="167.6 2.3 162.9 2.3 162.9 14.8 161.6 14.8 161.6 2.3 156.9 2.3 156.9 1.2 167.6 1.2" fill="#fff"/>
<polygon transform="matrix(.86991 0 0 .86991 15 985.41)" points="174.9 7.6 179.2 1.2 180.6 1.2 175.6 8.9 175.6 14.8 174.3 14.8 174.3 8.9 169.3 1.2 170.8 1.2" fill="#fff"/>
<path d="m177.41 994.46c0-0.60893 0.087-1.1309 0.26097-1.6528 0.17399-0.52195 0.52195-0.9569 0.86991-1.3049 0.34797-0.34796 0.78292-0.60893 1.3049-0.86991 0.52194-0.17398 1.0439-0.26097 1.6528-0.26097 0.60894 0 1.1309 0.087 1.6528 0.26097 0.52195 0.17399 0.9569 0.52195 1.3049 0.86991 0.34797 0.34797 0.60894 0.78292 0.86991 1.3049 0.17398 0.52194 0.26098 1.0439 0.26098 1.6528 0 0.60894-0.087 1.1309-0.26098 1.6528-0.17398 0.52195-0.52194 0.9569-0.86991 1.3049-0.34796 0.34797-0.78291 0.60894-1.3049 0.86991-0.52195 0.17399-1.0439 0.26098-1.6528 0.26098-0.60893 0-1.1309-0.087-1.6528-0.26098-0.52195-0.17398-0.9569-0.52194-1.3049-0.86991-0.34796-0.34796-0.60893-0.78291-0.86991-1.3049-0.17398-0.52194-0.26097-1.1309-0.26097-1.6528zm0.9569 0c0 0.43496 0.087 0.86991 0.17398 1.2179 0.17398 0.34796 0.34797 0.69592 0.60894 1.0439 0.26097 0.26097 0.60894 0.52194 0.9569 0.69592 0.34796 0.17399 0.78292 0.26098 1.3049 0.26098 0.43496 0 0.86991-0.087 1.3049-0.26098 0.34796-0.17398 0.69592-0.43495 0.9569-0.69592 0.26097-0.26098 0.43495-0.60894 0.60893-1.0439 0.17398-0.34797 0.17398-0.78292 0.17398-1.2179 0-0.43495-0.087-0.8699-0.17398-1.2179-0.17398-0.34796-0.34796-0.69593-0.60893-1.0439-0.26098-0.26097-0.60894-0.52194-0.9569-0.69593-0.34797-0.17398-0.78292-0.26097-1.3049-0.26097-0.43495 0-0.86991 0.087-1.3049 0.26097-0.34796 0.17399-0.69593 0.43496-0.9569 0.69593s-0.43496 0.60894-0.60894 1.0439c-0.087 0.34797-0.17398 0.78292-0.17398 1.2179z" fill="#fff" stroke-width=".86991"/>
<path d="m188.89 991.5h-1.6528v-0.86991h1.6528v-2.6097c0-0.52195 0.087-0.9569 0.26097-1.2179 0.17398-0.34796 0.34797-0.60893 0.52195-0.78291 0.26097-0.17399 0.43495-0.34797 0.78292-0.43496 0.26097-0.17398 0.52194-0.17398 0.69592-0.17398 0.43496 0 0.86991 0.087 1.1309 0.17398l-0.17399 0.86991c-0.26097-0.087-0.52194-0.17398-0.86991-0.17398-0.8699 0-1.3918 0.69593-1.3918 2.0878v2.1748h1.8268v0.86991h-1.8268v6.8723h-1.0439v-6.7853z" fill="#fff" stroke-width=".86991"/>
<path d="m70.587 1006h6.1764c0.78292 0 1.6528 0.087 2.4357 0.174 0.86991 0.087 1.5658 0.435 2.2618 0.7829 0.69593 0.435 1.2179 0.9569 1.5658 1.7398 0.43495 0.696 0.60894 1.7399 0.60894 2.9577 0 1.1309-0.34796 2.0008-0.9569 2.8707-0.60894 0.7829-1.5658 1.3049-2.8707 1.5659v0.087c0.69593 0.087 1.3919 0.2609 1.9138 0.5219 0.60894 0.261 1.0439 0.6089 1.4788 1.0439 0.43495 0.4349 0.78292 0.9569 0.9569 1.6528 0.26097 0.609 0.34796 1.3049 0.34796 2.0878 0 1.2179-0.26097 2.2618-0.69593 3.0447-0.43496 0.7829-1.0439 1.3918-1.8268 1.8268-0.69593 0.4349-1.4788 0.7829-2.3488 0.8699-0.86991 0.174-1.6528 0.261-2.3488 0.261h-6.8723v-21.487zm2.0008 9.2211h4.1756c1.0439 0 1.8268-0.087 2.5227-0.348 0.60894-0.261 1.1309-0.522 1.4788-0.9569 0.34796-0.348 0.60894-0.7829 0.69593-1.1309 0.08699-0.4349 0.17398-0.7829 0.17398-1.1309 0-0.7829-0.08699-1.3918-0.34796-1.8268-0.26097-0.5219-0.60894-0.8699-1.0439-1.2179-0.43496-0.2609-0.9569-0.5219-1.4788-0.6089-0.52194-0.087-1.1309-0.174-1.8268-0.174h-4.4365v7.3943zm0 10.352h4.5235c1.1309 0 2.0878-0.174 2.8707-0.435 0.69593-0.261 1.3049-0.6089 1.6528-1.0439 0.34796-0.4349 0.60894-0.8699 0.78292-1.3048 0.17398-0.435 0.17398-0.8699 0.17398-1.3049 0-0.7829-0.17398-1.4788-0.43495-2.0008-0.26097-0.5219-0.69593-1.0439-1.2179-1.3918-0.52194-0.348-1.0439-0.609-1.6528-0.783-0.60894-0.1739-1.2179-0.2609-1.8268-0.2609h-4.8715z" fill="#fff" stroke-width=".86991"/>
<path d="m89.29 1006h5.6544 1.1309c0.52195 0 1.0439 0.087 1.5658 0.174 0.52194 0.087 1.1309 0.261 1.7398 0.5219 0.60894 0.261 1.1309 0.522 1.5658 0.9569 0.43495 0.435 0.8699 0.9569 1.1309 1.5659 0.26097 0.6089 0.43495 1.3918 0.43495 2.3487 0 1.0439-0.17398 1.9138-0.52194 2.5228-0.34797 0.6959-0.78292 1.2178-1.3049 1.6528-0.52194 0.435-1.1309 0.6959-1.7398 0.9569-0.60894 0.174-1.2179 0.348-1.8268 0.435l6.2633 10.265h-2.2618l-6.0894-10.178h-3.7406v10.178h-2.0008zm2.0008 9.395h4.2626c1.0439 0 1.9138-0.1739 2.5227-0.4349 0.69593-0.261 1.1309-0.609 1.5658-0.9569 0.34796-0.348 0.60894-0.7829 0.78292-1.2179 0.17398-0.4349 0.17398-0.8699 0.17398-1.2179 0-0.3479-0.087-0.7829-0.17398-1.2178-0.17398-0.435-0.34796-0.8699-0.78292-1.2179-0.34796-0.348-0.86991-0.6959-1.5658-0.9569-0.69593-0.261-1.4788-0.435-2.5227-0.435h-4.2626z" fill="#fff" stroke-width=".86991"/>
<path d="m115.74 1006h2.0878l9.047 21.4h-2.2618l-2.3488-5.6544h-11.309l-2.4358 5.6544h-2.1748zm0.9569 2.1748-4.9585 11.744h9.83z" fill="#fff" stroke-width=".86991"/>
<path d="m130.87 1006h6.6113c1.8268 0 3.3926 0.261 4.6975 0.6959 1.3049 0.435 2.3488 1.0439 3.2187 1.7399 0.86991 0.6959 1.5658 1.4788 2.0008 2.3487 0.52194 0.8699 0.86991 1.6528 1.1309 2.4358 0.26097 0.7829 0.34796 1.4788 0.43495 2.1747 0.087 0.609 0.087 1.0439 0.087 1.3049s0 0.6959-0.087 1.3049c-0.087 0.6089-0.17398 1.3048-0.43495 2.1747-0.26097 0.783-0.60894 1.5659-1.1309 2.4358-0.52195 0.8699-1.1309 1.6528-2.0008 2.3487-0.86991 0.696-1.9138 1.3049-3.2187 1.7398-1.3049 0.435-2.8707 0.696-4.6975 0.696h-6.6113zm1.9138 19.573h4.0886c1.3918 0 2.6967-0.174 4.0016-0.522 1.2179-0.3479 2.2618-0.8699 3.2187-1.6528 0.86991-0.6959 1.6528-1.6528 2.1748-2.7837 0.52194-1.1309 0.78291-2.4358 0.78291-4.0016s-0.26097-2.8707-0.78291-4.0016c-0.52195-1.1309-1.2179-2.0008-2.1748-2.7837-0.86991-0.6959-2.0008-1.3048-3.2187-1.6528s-2.5227-0.522-4.0016-0.522h-4.0886z" fill="#fff" stroke-width=".86991"/>
<polygon transform="matrix(.86991 0 0 .86991 15 985.41)" points="174.2 25.8 161.8 25.8 161.8 34.5 173.3 34.5 173.3 36.6 161.8 36.6 161.8 48.3 159.5 48.3 159.5 23.7 174.2 23.7" fill="#fff"/>
<path d="m170.97 1016.7c0-1.6528 0.26098-3.1317 0.78292-4.5235 0.52195-1.3919 1.3049-2.5228 2.2618-3.5667 0.9569-0.9569 2.1748-1.7398 3.4796-2.3487 1.3919-0.522 2.8707-0.8699 4.5235-0.8699s3.1317 0.261 4.5235 0.8699c1.3918 0.5219 2.5227 1.3049 3.4796 2.3487 0.9569 0.9569 1.7398 2.1748 2.2618 3.5667 0.52194 1.3918 0.78291 2.8707 0.78291 4.5235s-0.26097 3.1317-0.78291 4.5235c-0.52195 1.3919-1.3049 2.6098-2.2618 3.5666-0.9569 0.9569-2.0878 1.7399-3.4796 2.3488-1.3919 0.5219-2.8707 0.8699-4.5235 0.8699s-3.1317-0.261-4.5235-0.8699c-1.3918-0.5219-2.5227-1.3049-3.4796-2.3488-0.9569-0.9568-1.7398-2.1747-2.2618-3.5666-0.52194-1.3918-0.78292-2.8707-0.78292-4.5235zm2.0008 0c0 1.3049 0.17399 2.6097 0.60894 3.7406 0.43496 1.1309 1.0439 2.1748 1.8268 2.9577 0.78292 0.8699 1.7398 1.4788 2.8707 2.0008 1.1309 0.5219 2.3488 0.6959 3.7406 0.6959 1.3918 0 2.6097-0.261 3.7406-0.6959 1.1309-0.522 2.0878-1.1309 2.8707-2.0008s1.3918-1.8268 1.8268-2.9577c0.43495-1.1309 0.60893-2.3487 0.60893-3.7406 0-1.3049-0.17398-2.6097-0.60893-3.7406-0.43496-1.1309-1.0439-2.1748-1.8268-2.9577-0.78292-0.8699-1.7398-1.4788-2.8707-2.0008-1.1309-0.5219-2.3488-0.6959-3.7406-0.6959-1.3919 0-2.6097 0.261-3.7406 0.6959-1.1309 0.522-2.0878 1.1309-2.8707 2.0008s-1.3918 1.8268-1.8268 2.9577c-0.34796 1.1309-0.60894 2.4357-0.60894 3.7406z" fill="#fff" stroke-width=".86991"/>
<path d="m198.38 1006h5.6544 1.1309c0.52194 0 1.0439 0.087 1.5658 0.174 0.52194 0.087 1.1309 0.261 1.7398 0.5219 0.60894 0.261 1.1309 0.522 1.5658 0.9569 0.43495 0.435 0.86991 0.9569 1.1309 1.5659 0.26097 0.6089 0.43496 1.3918 0.43496 2.3487 0 1.0439-0.17399 1.9138-0.52195 2.5228-0.34796 0.6959-0.78292 1.2178-1.3049 1.6528-0.52195 0.435-1.1309 0.6959-1.7398 0.9569-0.60894 0.174-1.2179 0.348-1.8268 0.435l6.2634 10.265h-2.2618l-6.0024-10.178h-3.7406v10.178h-2.0008v-21.4zm2.0008 9.395h4.2626c1.0439 0 1.9138-0.1739 2.5227-0.4349 0.69593-0.261 1.1309-0.609 1.5658-0.9569 0.34796-0.348 0.60893-0.7829 0.78291-1.2179 0.17399-0.4349 0.17399-0.8699 0.17399-1.2179 0-0.3479-0.087-0.7829-0.17399-1.2178-0.17398-0.435-0.34796-0.8699-0.78291-1.2179-0.34797-0.348-0.86991-0.6959-1.5658-0.9569s-1.4788-0.435-2.5227-0.435h-4.2626z" fill="#fff" stroke-width=".86991"/>
<path d="m216.91 1006h6.6113c1.8268 0 3.3926 0.261 4.6975 0.6959 1.3049 0.435 2.3488 1.0439 3.2187 1.7399 0.86991 0.6959 1.5658 1.4788 2.0008 2.3487 0.52195 0.8699 0.86991 1.6528 1.0439 2.4358 0.26098 0.7829 0.34797 1.4788 0.43496 2.1747 0.087 0.609 0.087 1.0439 0.087 1.3049s0 0.6959-0.087 1.3049c-0.087 0.6089-0.17398 1.3048-0.43496 2.1747-0.26097 0.783-0.60893 1.5659-1.0439 2.4358-0.52194 0.8699-1.1309 1.6528-2.0008 2.3487-0.86991 0.696-1.9138 1.3049-3.2187 1.7398-1.3049 0.435-2.8707 0.696-4.6975 0.696h-6.6113zm2.0008 19.573h4.0886c1.3919 0 2.6967-0.174 4.0016-0.522 1.2179-0.3479 2.2618-0.8699 3.2187-1.6528 0.86991-0.6959 1.6528-1.6528 2.1748-2.7837 0.52195-1.1309 0.78292-2.4358 0.78292-4.0016s-0.26097-2.8707-0.78292-4.0016c-0.52194-1.1309-1.2179-2.0008-2.1748-2.7837-0.86991-0.6959-2.0008-1.3048-3.2187-1.6528-1.2179-0.348-2.5227-0.522-4.0016-0.522h-4.0886z" fill="#fff" stroke-width=".86991"/>
</g>
<style type="text/css">.st0{fill:#6A6A75;}</style>
</svg>
