<?xml version="1.0" encoding="UTF-8"?>
<svg version="1.1" viewBox="0 0 250 91" xmlns="http://www.w3.org/2000/svg" xmlns:cc="http://creativecommons.org/ns#" xmlns:dc="http://purl.org/dc/elements/1.1/" xmlns:rdf="http://www.w3.org/1999/02/22-rdf-syntax-ns#">
<metadata>
<rdf:RDF>
<cc:Work rdf:about="">
<dc:format>image/svg+xml</dc:format>
<dc:type rdf:resource="http://purl.org/dc/dcmitype/StillImage"/>
<dc:title/>
</cc:Work>
</rdf:RDF>
</metadata>
<g transform="translate(0,-961.4)">
<g transform="matrix(.23332 0 0 .23332 135.87 709.78)" fill="#fff" stroke-width=".29634">
<path d="m-56.914 1445.6c-35.442-5.4333-64.477-26.539-76.724-55.771-2.2146-5.2859-3.678-10.334-4.9645-17.124-0.63668-3.3605-0.64838-3.9671-0.84069-43.562-0.19199-39.532-0.20472-40.194-0.82172-42.726-1.5132-6.2079-4.6109-11.64-9.0332-15.841-4.3261-4.1093-8.4792-6.3628-15.04-8.1606-1.0264-0.2812-15.221-0.4068-61.639-0.5454-54.993-0.1641-60.603-0.2249-63.678-0.6904-13.162-1.9924-24.017-6.0515-34.311-12.83-8.2224-5.4149-16.65-13.791-22.323-22.186-6.6172-9.7931-11.327-22.076-12.897-33.635-1.0099-7.4339-0.87421-17.778 0.32649-24.893 4.492-26.617 22.463-49.485 47.5-60.445 14.103-6.1734 31.143-8.0639 46.733-5.185 12.842 2.3714 25.225 8.0533 35.685 16.374 3.4337 2.7314 9.5218 8.7999 12.252 12.213 8.7765 10.97 14.591 24.016 16.776 37.636 0.95314 5.9436 1.1895 11.589 1.1944 28.523l5e-3 15.928 15.632 9e-4c8.5976 6e-4 17.166 0.139 19.04 0.3076 13.708 1.2331 26.322 5.6601 37.768 13.255 17.092 11.342 29.603 29.643 33.914 49.61 1.6999 7.874 1.6082 5.3962 1.812 48.992 0.18482 39.548 0.19993 40.35 0.80761 42.822 1.7888 7.276 4.4874 12.319 9.2611 17.308 4.583 4.7895 9.8185 8.0403 16.098 9.9952 1.6626 0.5176 3.1209 1.0251 3.2406 1.1277 0.11979 0.1026-1.0365 1.4357-2.5696 2.9623l-2.7873 2.7758-1.8756-0.6818c-6.3093-2.2933-11.452-5.5719-16.264-10.368-6.0924-6.0729-9.4014-11.8-11.645-20.156l-0.91504-3.408-0.18712-40.006c-0.16537-35.353-0.24533-40.403-0.68741-43.414-2.0751-14.136-7.3132-26.291-15.94-36.988-4.5875-5.6886-12.409-12.517-18.662-16.292-7.9942-4.8262-17.417-8.367-25.77-9.6835-1.6936-0.267-3.3459-0.5729-3.6719-0.6798-0.32598-0.107-27.997-0.2734-61.491-0.3698-67.482-0.1943-61.697-0.015-68.063-2.1034-10.771-3.5323-19.614-12.016-23.808-22.84-2.1627-5.5813-2.9532-13.709-1.9299-19.843 1.3656-8.1857 4.9552-15.165 10.808-21.014 5.3612-5.3579 11.856-8.8977 19.328-10.534 3.4286-0.7507 10.234-0.8899 13.916-0.2846 15.878 2.6101 28.139 14.332 31.714 30.32 0.61616 2.7555 0.6513 3.7178 0.76861 21.048l0.12294 18.16 6.6236-0.168v-18.67c0-16.968-0.0494-18.899-0.54174-21.188-3.8202-17.763-16.423-31.158-33.43-35.531-12.716-3.2697-25.728-0.9786-37.016 6.5173-3.5934 2.3862-9.282 8.0452-11.739 11.678-3.5265 5.2138-5.9247 10.869-7.2572 17.114-0.87004 4.0774-0.95209 12.64-0.15973 16.669 2.844 14.462 11.452 26.074 24.119 32.534 6.6842 3.4093 11.441 4.586 20.092 4.9699 3.2598 0.1446 30.406 0.2634 60.325 0.2639 46.277 9e-4 54.862 0.066 57.504 0.437 14.874 2.0879 27.673 8.3988 38.173 18.822 8.424 8.3625 14.816 19.666 17.605 31.135 1.8578 7.6384 1.7766 5.6146 1.9753 49.193 0.17761 38.945 0.19586 39.919 0.79672 42.525 3.0327 13.153 10.939 24.097 23.482 32.504 9.5667 6.4122 21.155 10.648 33.535 12.259 2.0232 0.2632 3.7393 0.5393 3.8135 0.6135 0.0742 0.074-1.2137 1.4836-2.8621 3.132l-2.997 2.997-2.3239-0.3586c-1.2782-0.1973-3.9908-0.754-6.0282-1.2372-15.345-3.6395-28.519-10.865-38.388-21.056-7.7752-8.0289-12.558-16.718-15.013-27.275-0.63701-2.7388-0.64451-3.121-0.83703-42.622-0.17076-35.035-0.25372-40.235-0.68569-42.97-2.0712-13.114-7.4161-23.963-16.331-33.147-8.8529-9.1205-19.471-14.805-32.317-17.302-3.2444-0.6306-3.5467-0.6344-64.01-0.8188-60.599-0.1847-60.758-0.1868-64.06-0.8236-21.522-4.151-37.559-19.932-42.226-41.553-0.58562-2.7131-0.67306-3.9844-0.68278-9.9274-0.01-5.9648 0.0738-7.2353 0.66933-10.175 4.2983-21.215 20.406-37.33 41.57-41.588 2.9137-0.5862 4.2953-0.6818 9.9055-0.6857 5.639 0 6.9732 0.087 9.8782 0.6759 9.3454 1.8934 17.831 6.0579 24.867 12.204 7.6165 6.6529 13.587 16.325 16.061 26.021 1.5312 6.0002 1.5862 6.8185 1.7697 26.29l0.17314 18.373 6.6677 0.168v-17.923c0-19.626-0.12928-21.709-1.7423-28.072-8.9794-35.424-47.434-54.478-81.008-40.138-8.8935 3.7986-17.605 10.486-23.389 17.955-15.819 20.428-16.911 48.326-2.7226 69.548 9.7388 14.566 25.065 24.005 42.473 26.157 1.667 0.2061 21.44 0.3139 58.824 0.3209 30.972 0.01 58.049 0.1303 60.171 0.2768 13.324 0.9199 25.31 6.553 34.573 16.248 6.9252 7.2485 11.677 16.596 13.637 26.828 0.62232 3.2481 0.63761 4.0585 0.81686 43.316 0.18082 39.598 0.1893 40.04 0.83185 43.286 0.81588 4.1214 1.8789 7.8172 3.2333 11.242 7.4118 18.739 24.357 33.512 45.214 39.417 1.5891 0.4499 2.8893 0.9757 2.8893 1.1685 0 0.1927-1.1886 1.5135-2.6413 2.9351-3.0583 2.9927-2.3181 2.9154-8.027 0.8384-4.6303-1.6846-12.229-5.5014-16.237-8.1562-14.935-9.8907-25.531-24.056-29.977-40.075-0.49471-1.7823-1.1897-4.7742-1.5445-6.6486-0.63572-3.3589-0.64781-3.9851-0.84147-43.562-0.21925-44.804-0.0729-41.787-2.3584-48.631-2.18-6.5283-5.4979-12.094-10.121-16.979-7.6632-8.0973-17.772-13.019-28.98-14.11-1.6485-0.1605-26.914-0.2801-60.097-0.2845-60.841-0.01-60.036 0.01-66.322-1.3833-24.715-5.4734-44.198-24.127-50.376-48.231-1.6244-6.338-2.0536-9.8721-2.0551-16.922-2e-3 -10.918 1.9299-19.379 6.6349-29.057 8.6076-17.704 24.753-30.787 43.709-35.418 5.996-1.465 9.4826-1.8727 16.015-1.8727 10.756 0 19.381 1.9367 28.745 6.4544 11.297 5.4503 19.913 12.964 26.86 23.424 5.1078 7.6915 8.2597 15.672 10.097 25.564 0.61309 3.3013 0.65859 4.5843 0.81249 22.908l0.16304 19.41 6.6677 0.168v-18.516c0-14.982-0.0873-19.183-0.4574-22.013-1.6786-12.834-6.4273-24.712-13.851-34.642-11.932-15.962-28.739-25.971-48.813-29.069-4.7276-0.7296-15.652-0.7266-20.448 0.01-16.729 2.554-30.715 9.7229-42.381 21.723-11.083 11.4-17.747 25.08-20.194 41.45-0.60357 4.0383-0.52104 15.707 0.14147 20.003 3.2312 20.952 14.668 39.066 31.909 50.539 8.7654 5.8327 17.73 9.4331 28.487 11.441l3.6662 0.6842 60.602 0.1763c53.181 0.1547 60.875 0.2327 62.832 0.6367 7.8231 1.6155 13.705 4.423 18.959 9.0488 6.5451 5.7633 10.474 12.502 12.524 21.481 0.61732 2.7035 0.63089 3.4148 0.81603 42.756 0.1853 39.374 0.1984 40.059 0.82889 43.351 1.4057 7.3386 3.2726 13.051 6.2674 19.178 3.9669 8.1149 8.3074 14.103 15.259 21.051 13.614 13.607 30.748 22.33 51.132 26.031 3.5976 0.6532 6.2336 0.9765 12.52 1.5356 1.2484 0.111 2.0003 0.3103 2.0003 0.5303 0 0.1938-1.3026 1.6501-2.8946 3.2362l-2.8946 2.8837-1.6246-0.026c-0.89353-0.015-3.2248-0.2716-5.1807-0.5715zm-191.06-249.62c0.0837-18.081-0.0433-20.062-1.5797-24.644-1.7171-5.1208-4.1943-8.9418-8.4042-12.963-3.0614-2.9239-6.008-4.8399-9.7995-6.3721-4.328-1.749-5.847-2.0035-11.854-1.9861-5.0977 0.015-5.6694 0.072-8.1494 0.825-6.8949 2.0919-12.656 6.0188-16.769 11.43-1.9486 2.5636-4.5391 7.8698-5.2942 10.844-3.7294 14.691 3.0482 29.608 16.433 36.165 3.3191 1.6262 6.3626 2.6088 9.5081 3.0697 0.96411 0.1412 9.4208 0.2392 18.793 0.2177l17.04-0.039zm14.14 163.91c-0.0796-0.2091-0.1104-20.783-0.0685-45.721l0.0761-45.34h6.8159v91.274l-3.3394 0.084c-2.5067 0.063-3.3755-0.011-3.4841-0.2963zm310.35-11.253c-1.2054-2.4955-6.3011-12.985-11.324-23.311-7.2416-14.887-9.0468-18.828-8.7192-19.036 0.50159-0.3176 10.345-0.3529 10.839-0.039 0.19265 0.1225 2.8449 5.6547 5.8939 12.294s5.646 12.071 5.7711 12.071c0.12512 0 2.8855-6.2343 6.1341-13.854 3.7-8.6783 6.0586-13.854 6.3134-13.854 0.25426 0 2.5882 5.0887 6.2236 13.569 3.1992 7.4632 5.9682 13.721 6.1533 13.906 0.25118 0.2512 0.52147-0.071 1.0655-1.2711 8.2991-18.304 10.325-22.661 10.629-22.857 0.19929-0.1287 2.6943-0.201 5.5445-0.1606 4.4721 0.063 5.1946 0.1381 5.273 0.5463 0.10245 0.5334-21.682 45.51-22.377 46.201-0.2595 0.2578-0.50182 0.32-0.57692 0.1482-0.0712-0.163-2.7022-6.2306-5.8466-13.484-3.3086-7.6317-5.8784-13.187-6.1-13.187-0.22101 0-2.8405 5.6278-6.196 13.312-3.1972 7.3212-5.9698 13.364-6.1613 13.428-0.20317 0.068-1.2608-1.7735-2.5397-4.4212zm-79.441 2.547c-10.926-1.9742-17.616-11.535-16.984-24.272 0.0971-1.9559 0.38252-4.4229 0.6342-5.4823 1.9304-8.1254 7.0162-13.634 14.535-15.743 1.8753-0.5261 3.115-0.6598 6.0617-0.654 6.6541 0.013 10.683 1.5336 14.703 5.5493 4.1908 4.1864 6.1436 9.3518 6.1738 16.33l0.0154 3.5561-31.116 0.2964 0.0429 1.5838c0.0606 2.2377 1.711 5.4965 3.6805 7.2673 3.2322 2.906 8.6383 3.6021 12.535 1.614 1.4272-0.7281 3.5679-2.8807 5.2511-5.2803 0.68556-0.9773 1.4415-1.7769 1.68-1.7769 0.59897 0 8.0349 4.2107 8.2012 4.644 0.16231 0.423-2.1688 3.793-4.1249 5.9632-4.9644 5.5077-12.953 7.9108-21.289 6.4045zm14.322-29.548c0-1.1178-1.4298-3.6465-2.7218-4.8139-2.0589-1.8601-3.5144-2.3565-6.9093-2.3565-3.4821 0-4.8924 0.5074-7.1349 2.5666-1.3508 1.2405-3.2386 4.5084-2.9107 5.0388 0.0842 0.1362 4.5459 0.2477 9.9149 0.2477h9.7618zm138.28 29.546c-4.3708-0.7894-7.8992-2.6116-11.359-5.8658-5.0268-4.7287-7.1918-9.9172-7.1961-17.245-3e-3 -4.2099 0.61861-7.0839 2.2399-10.365 2.7696-5.6053 8.6448-10.36 14.861-12.027 1.8009-0.4829 3.1859-0.6187 6.3082-0.6187 4.7502 0 7.3546 0.5813 10.924 2.4381 5.9989 3.121 10.249 8.3597 11.918 14.69 0.81281 3.0835 0.87118 8.4883 0.12624 11.688-1.6843 7.2352-7.2084 13.52-14.195 16.15-4.1124 1.5479-9.1088 1.9715-13.627 1.1555zm7.2252-9.0257c6.9631-1.1194 11.149-7.1546 10.578-15.25-0.56346-7.9841-6.0532-12.979-13.755-12.515-3.4909 0.2103-5.5631 1.026-7.7501 3.0508-3.7355 3.4584-5.2367 8.8269-4.0434 14.459 1.3678 6.4556 5.7975 10.248 12.303 10.532 0.40747 0.018 1.6077-0.1069 2.6671-0.2772zm-226.33 8.0699c-0.29455-0.187-0.35647-4.8146-0.29634-22.147l0.076-21.911 4.7018-0.082c3.2155-0.056 4.8315 0.026 5.1119 0.2586 0.24665 0.2047 0.41008 0.9164 0.41008 1.7857 0 0.795 0.0724 1.4455 0.16088 1.4455 0.0885 0 0.85955-0.5275 1.7134-1.1722 2.0878-1.5763 4.4502-2.6183 7.214-3.1819 1.9222-0.392 2.7392-0.4128 5.0513-0.1287 6.8092 0.8368 10.825 4.173 12.709 10.558 0.46724 1.5838 0.53656 3.556 0.63444 18.049 0.0888 13.154 0.0358 16.318-0.27693 16.517-0.66986 0.4248-9.3057 0.3109-9.6697-0.1276-0.21281-0.2564-0.34738-5.1985-0.40952-15.039-0.0847-13.42-0.13901-14.782-0.64339-16.139-1.215-3.2682-2.7553-4.3209-6.6339-4.5337-4.256-0.2336-6.7735 0.9591-8.2063 3.8875-1.4341 2.9311-1.6214 5.0985-1.6327 18.886-8e-3 9.4004-0.10084 12.7-0.36595 12.965-0.40795 0.408-9.0239 0.5063-9.6479 0.1102zm105.5 0c-0.28461-0.1807-0.38534-4.0902-0.44451-17.257l-0.0765-17.024-2.0744-0.1481-2.0744-0.1482-0.0822-4.405c-0.0543-2.9128 0.0293-4.5395 0.24735-4.8021 0.19254-0.232 1.0891-0.4335 2.1566-0.4846l1.827-0.088 0.29634-15.706 4.8675-0.082c3.6956-0.062 4.9252 0.01 5.1074 0.2964 0.13196 0.2079 0.24196 3.8079 0.24445 8l4e-3 7.6219 7.5567 0.166v9.483l-7.5567 0.166v16.972c0 12.805-0.0873 17.059-0.35561 17.327-0.40628 0.4063-9.0227 0.5071-9.6435 0.1129zm154.09-0.1058c-0.56894-0.5689-0.52265-43.305 0.0475-43.778 0.28043-0.2327 1.8964-0.3144 5.1119-0.2585l4.7018 0.082 0.0928 1.3336c0.0511 0.7334 0.20267 1.4451 0.33694 1.5815 0.1343 0.1365 1.0869-0.431 2.117-1.261 2.5608-2.0635 4.5064-2.773 7.6771-2.7993 2.5911-0.022 3.6516 0.222 6.5936 1.5147 1.2032 0.5286 1.704 0.9121 1.704 1.3048 0 0.7011-4.0617 8.8459-4.4113 8.8459-0.14221 0-1.0415-0.365-1.9984-0.8111-4.0221-1.8751-8.3794-0.6165-10.214 2.9505-1.4656 2.8494-1.5491 3.7198-1.7285 18.012l-0.16921 13.484-4.7493 0.081c-3.4434 0.059-4.849-0.019-5.1119-0.2815zm63.247-0.094c-0.2436-0.2436-3.5278-4.3776-7.298-9.1866-3.7702-4.8089-6.9489-8.7435-7.0638-8.7435-0.1148 0-2.6731 2.4671-5.685 5.4823-3.012 3.0153-5.6444 5.4824-5.8498 5.4824-0.53312 0-0.55082-68.456-0.0178-68.989 0.49711-0.4971 9.1636-0.4971 9.6608 0 0.2703 0.2704 0.3556 5.7754 0.3556 22.967 0 17.62 0.08 22.611 0.3623 22.611 0.1992 0 3.4422-3.0698 7.2067-6.8218l6.8444-6.8218 6.4992 0.08c4.682 0.058 6.4991 0.176 6.4991 0.4233 0 0.1889-4.1007 4.3031-9.1126 9.1428-5.0119 4.8396-9.1125 8.9402-9.1125 9.1122 0 0.1721 4.4467 5.8594 9.8815 12.638 5.4347 6.7791 9.9767 12.492 10.093 12.696 0.3429 0.6001-12.662 0.5289-13.263-0.073zm-473.31-9.7066c-0.0776-0.2037-0.10672-16.373-0.0648-35.932l0.0762-35.561h6.8159l0.0753 35.932 0.0753 35.932h-3.4184c-2.462 0-3.4579-0.1036-3.5595-0.3704zm14.257-19.061c-0.41616-0.4161-0.46568-3.187-0.46568-26.054 0-14.074 0.0809-25.799 0.17987-26.057 0.26726-0.6964 6.7816-0.6964 7.0488 0 0.0989 0.2578 0.17987 11.984 0.17987 26.057 0 22.867-0.0495 25.638-0.46568 26.054-0.35699 0.357-1.1129 0.4657-3.2386 0.4657s-2.8816-0.1087-3.2386-0.4657zm-42.178-32.493 0.0762-19.938 3.3258-0.084c3.2492-0.082 3.3296-0.068 3.4897 0.5927 0.0901 0.372 0.12712 9.3444 0.0822 19.939l-0.0818 19.262-6.9682 0.166zm182.16-2.0166c-4.8796-0.7516-9.1726-3.8587-11.244-8.1382-0.34228-0.7071-0.83573-2.3308-1.0966-3.6084-1.492-7.3079 2.7377-14.495 10.018-17.023 2.691-0.9343 7.3254-0.9303 10.042 0.01 2.9917 1.034 2.9634 0.9829 2.9634 5.3529 0 2.0664-0.088 3.8451-0.19565 3.9527-0.1076 0.1077-0.90763-0.4777-1.7778-1.3007-2.0727-1.9602-3.7408-2.6856-6.176-2.6856-3.389 0-6.2275 1.8261-7.6086 4.8948-0.97297 2.162-0.9504 5.9405 0.0478 8.002 1.4876 3.0723 4.0667 4.7116 7.4126 4.7116 2.4613 0 4.0624-0.6906 6.2559-2.6982 0.91445-0.8369 1.7479-1.4364 1.8521-1.3321 0.10422 0.1042 0.18951 1.8933 0.18951 3.9757 0 3.5897-0.0346 3.8107-0.66677 4.2563-1.8235 1.2855-6.8963 2.1116-10.016 1.6311zm26.74-0.013c-6.3976-1.1244-10.802-7.0136-10.844-14.501-0.0273-4.8547 1.287-8.326 4.2888-11.328 4.3177-4.3177 10.609-4.9349 15.465-1.5171 1.7094 1.2031 1.9983 1.2285 2.0042 0.1762 8e-3 -1.4894 0.23625-1.5845 3.5758-1.4926l3.0874 0.085v27.856l-2.9197 0.085c-3.2342 0.094-3.748-0.1051-3.748-1.455 0-0.469-0.076-0.8527-0.16886-0.8527-0.0929 0-0.78044 0.4207-1.5279 0.935-2.6928 1.8527-5.9983 2.5732-9.2132 2.0082zm6.9704-6.5483c2.7323-1.2803 4.3243-4.1308 4.3588-7.8042 0.0522-5.5746-2.9102-9.0754-7.6796-9.0754-3.2624 0-5.6252 1.5914-7.0721 4.7634-0.4772 1.0462-0.61518 1.9468-0.61518 4.0157 0 3.0167 0.52678 4.563 2.2061 6.4757 2.1687 2.47 5.6334 3.1096 8.802 1.6248zm46.968 6.5732c-5.1348-0.7845-9.8296-4.4608-11.647-9.1201-1.0053-2.5775-1.1421-7.5518-0.27812-10.113 2.7074-8.0268 11.218-12.121 19.731-9.4912 2.8048 0.8664 2.8027 0.8623 2.8027 5.33 0 2.6826-0.10185 3.8313-0.3397 3.8313-0.18684 0-0.99132-0.6096-1.7878-1.3545-1.9497-1.8237-3.6394-2.535-6.022-2.535-4.2088 0-7.3132 2.6706-8.1526 7.0135-0.63704 3.2961 0.36021 6.4321 2.7443 8.6297 1.5714 1.4484 3.0265 1.9815 5.4083 1.9812 2.3014-2e-4 4.1264-0.8134 6.176-2.7518 0.87018-0.823 1.6702-1.4083 1.7778-1.3007 0.1076 0.1076 0.19564 1.8995 0.19564 3.9819 0 3.5897-0.0346 3.8107-0.66677 4.2563-1.8021 1.2705-6.8836 2.11-9.9424 1.6427zm108.28-0.023c-5.1786-0.7939-9.3032-4.6244-10.683-9.9211-0.57734-2.2165-0.59005-7.4505-0.0234-9.5799 1.8474-6.941 8.0577-10.963 15.232-9.8644 2.367 0.3624 5.216 1.5798 6.6116 2.8252 1.3771 1.2288 2.8445 3.3689 3.4864 5.0845 0.84188 2.2501 1.4285 7.3667 0.91547 7.9849-0.32035 0.386-1.7438 0.4504-9.9512 0.4504-6.1481 0-9.6438 0.1075-9.7629 0.3002-0.10206 0.1652 0.019 0.9986 0.26866 1.8522 0.92756 3.169 3.5203 5.0835 6.8422 5.0523 2.7742-0.026 4.4403-1.0964 6.8631-4.4087l0.63619-0.8698 1.9649 1.0372c1.0807 0.5705 2.303 1.3047 2.7163 1.6317l0.75144 0.5944-0.87155 1.2977c-1.2047 1.7937-3.4593 4.036-4.9173 4.8905-2.5002 1.4652-6.7349 2.1554-10.079 1.6427zm8.5828-18.968c0.10766-0.1742-0.18572-0.9337-0.65193-1.6877-2.473-4-9.0243-3.6607-11.241 0.582-0.22993 0.4402-0.41805 0.9403-0.41805 1.1113 0 0.4344 12.042 0.4289 12.311-0.01zm-144.34 18.034c-0.0783-0.2095-0.17594-5.1149-0.21698-10.901l-0.0746-10.52-1.1854-0.1482-1.1854-0.1481-0.0842-3.02-0.0843-3.02 2.5393-0.184 0.0812-4.9599c0.0947-5.7794-0.23088-5.3473 3.9194-5.2032l2.5189 0.087 0.0718 4.4452c0.10019 6.2018-0.10185 5.7786 2.7594 5.7786h2.3755l-0.0845 3.0376-0.0845 3.0375-2.2966 0.087c-1.2632 0.048-2.3258 0.1143-2.3615 0.1482-0.0357 0.034-0.13567 4.929-0.22226 10.878l-0.15744 10.816-3.0428 0.085c-2.2697 0.063-3.079-0.012-3.1851-0.2963zm46.226 0c-0.08-0.2095-0.11092-11.116-0.0688-24.236l0.0766-23.856 6.3714-0.168v10.957c0 6.0992 0.11717 11.03 0.26428 11.12 0.14538 0.09 1.0072-0.284 1.9153-0.8308 3.9983-2.4077 9.4948-1.9527 12.614 1.0441 2.694 2.5886 3.036 4.5588 2.9242 16.846l-0.0849 9.3348h-6.2232l-0.14817-9.4829c-0.14141-9.0508-0.17828-9.5441-0.80866-10.823-0.89152-1.8088-2.0211-2.4333-4.3766-2.4198-3.06 0.018-4.4975 1.1317-5.3807 4.1696-0.36785 1.2653-0.52204 3.6203-0.66146 10.103l-0.18184 8.4531-3.0428 0.085c-2.2685 0.063-3.0798-0.012-3.1881-0.2963zm32.822 0.014c-0.27871-0.2787-0.36415-3.527-0.36068-13.716 3e-3 -7.3426 0.11341-13.522 0.2465-13.732 0.17792-0.2804 1.0589-0.3588 3.3293-0.2963l3.0874 0.085 0.0938 0.815c0.11465 0.9963 0.36053 1.0161 1.4393 0.1157 1.6774-1.4 2.7972-1.7905 5.1346-1.7905 2.6585 0 4.353 0.6608 6.3023 2.4577l1.3085 1.2061 1.0102-0.909c2.4054-2.1645 5.4644-3.1633 8.5323-2.7859 3.828 0.471 6.3334 2.4931 7.4911 6.0463 0.5886 1.8065 0.64778 2.7319 0.77026 12.045 0.11468 8.7216 0.0724 10.138-0.31244 10.457-0.30603 0.254-1.3572 0.3428-3.3648 0.2842l-2.9197-0.085-0.14817-9.7793c-0.13338-8.8033-0.20391-9.8915-0.70672-10.904-0.68242-1.3737-1.791-1.9873-3.5902-1.9873-2.2523 0-3.5699 1.0136-4.3826 3.3715-0.18459 0.5356-0.38984 4.7959-0.48713 10.112l-0.16814 9.1866-2.9197 0.085c-1.8982 0.055-3.0646-0.035-3.3338-0.2585-0.33783-0.2804-0.41447-1.9896-0.41583-9.2718 0-5.5665-0.12411-9.3692-0.3269-10.1-0.17887-0.6443-0.76489-1.6111-1.3022-2.1485-0.85613-0.8561-1.1688-0.977-2.5275-0.977-2.0249 0-3.2794 0.7794-4.183 2.5986-0.67518 1.3595-0.70082 1.6852-0.8449 10.737l-0.14862 9.3348-2.9686 0.084c-2.0561 0.058-3.0809-0.029-3.3338-0.2815zm80.003-0.01c-0.266-0.266-0.35561-3.6956-0.35561-13.608 0-7.2886 0.0809-13.463 0.17988-13.721 0.14808-0.3859 0.72533-0.4688 3.2672-0.4688h3.0873l0.1778 0.8891c0.18966 0.9482 0.70627 1.1467 1.2571 0.483 0.1853-0.2233 1.1684-0.7865 2.1848-1.2516 1.5777-0.722 2.2161-0.8446 4.3668-0.838 3.9869 0.012 6.9286 1.6072 8.4458 4.5799 1.2032 2.3573 1.3672 4.2267 1.2733 14.511l-0.088 9.6311h-6.2232l-0.15199-9.4829c-0.1426-8.8974-0.19132-9.5686-0.78896-10.87-0.81612-1.7765-1.9868-2.4188-4.4189-2.4246-2.9898-0.01-4.7735 1.4954-5.4344 4.5775-0.18305 0.8536-0.31857 4.9203-0.31857 9.561 0 5.8859-0.0964 8.172-0.35561 8.4312-0.22448 0.2245-1.35 0.3556-3.0523 0.3556s-2.8278-0.1311-3.0523-0.3556zm32.678-0.015c-0.0761-0.2038-0.17193-5.1045-0.21298-10.891l-0.0746-10.52-1.1854-0.1482-1.1854-0.1481v-5.9269l1.1854-0.1482 1.1854-0.1481 0.0819-4.7205c0.0497-2.866 0.20949-4.8743 0.4067-5.112 0.22635-0.2727 1.1565-0.3914 3.0675-0.3914 1.911 0 2.8412 0.1187 3.0675 0.3914 0.19721 0.2377 0.35697 2.246 0.4067 5.112l0.0819 4.7205 2.2139 0.088c1.3099 0.052 2.3064 0.2338 2.4403 0.4445 0.37419 0.5886 0.2756 5.0871-0.12017 5.4828-0.21165 0.2117-1.2315 0.3556-2.5189 0.3556h-2.1633v10.609c0 7.8564-0.0923 10.701-0.35562 10.965-0.50307 0.503-6.1324 0.4898-6.3208-0.015zm-345.63-87.498c-2.6784-0.4851-6.504-2.2802-8.4919-3.9846-3.238-2.776-5.735-6.7092-6.9746-10.986-0.91265-3.1486-1.1342-9.3667-0.45344-12.726 2.0769-10.25 9.9748-17.183 19.578-17.187 3.9821 0 7.551 1.2592 11.039 3.8993 1.063 0.8046 2.0406 1.3544 2.1723 1.2219 0.13177-0.1326 0.28023-1.0412 0.32993-2.0191l0.0904-1.7781 4.7192-0.082c3.5769-0.062 4.7773 0.01 4.9592 0.2963 0.13201 0.208 0.24206 9.73 0.24456 21.16 4e-3 17.345-0.0633 20.838-0.40578 21.122-0.27987 0.2323-1.8579 0.3145-4.9637 0.2586l-4.5534-0.082-0.14983-1.681c-0.0824-0.9245-0.24007-1.7711-0.35035-1.8814s-1.0806 0.4275-2.1562 1.195c-4.5092 3.2177-9.1426 4.2478-14.633 3.2532zm9.3236-9.1772c10.319-3.0643 11.263-20.687 1.3696-25.546-1.5525-0.7624-1.9852-0.8352-4.9606-0.8352-2.9912 0-3.3941 0.069-4.8896 0.8345-5.0012 2.5605-7.7155 8.3801-6.8278 14.639 0.74955 5.2851 3.4912 9.1445 7.6512 10.771 1.7476 0.6831 5.5859 0.7515 7.6573 0.1364zm100.57 8.476c-7.2726-2.3277-12.242-8.4278-13.651-16.756-0.51557-3.0478-0.18479-9.8264 0.61535-12.61 1.0493-3.6509 2.8023-6.6755 5.3308-9.1977 3.6431-3.634 7.4866-5.2472 13.202-5.541 10.398-0.5346 18.203 5.0099 20.737 14.731 0.29024 1.1134 0.56868 3.6457 0.65987 6.001l0.15777 4.0747h-14.967c-11.927 0-15.032 0.078-15.287 0.3856-0.39259 0.4731 0.2583 3.5247 1.1049 5.1801 0.95849 1.8743 2.9183 3.8361 4.7059 4.7107 1.4385 0.7037 2.1419 0.8434 4.731 0.9392 1.6727 0.062 3.0412 0.1993 3.0412 0.3052 0 0.3245-8.1373 8.3352-8.4496 8.3182-0.16088-0.01-1.0297-0.2519-1.9308-0.5403zm16.27-27.567c0.33442-0.2118 0.27586-0.5458-0.3263-1.8611-0.97527-2.1303-2.366-3.663-4.2034-4.6325-1.3595-0.7174-1.8155-0.7959-4.62-0.7959-2.8312 0-3.2527 0.074-4.6776 0.8251-1.9954 1.0513-3.591 2.6971-4.5033 4.645-0.6102 1.3028-0.65344 1.5741-0.28781 1.8053 0.54791 0.3467 18.072 0.3599 18.618 0.014zm-85.47 27.16c-0.0778-0.2037-0.10696-9.8386-0.0648-21.411l0.0767-21.04 4.7192-0.082c3.5769-0.062 4.7773 0.01 4.9592 0.2963 0.13201 0.208 0.24206 9.7197 0.24456 21.137 3e-3 15.756-0.0812 20.844-0.35108 21.114-0.51363 0.5137-9.3872 0.4999-9.5838-0.015zm23.411 0c-0.0778-0.2037-0.10696-9.8386-0.0648-21.411l0.0767-21.04 4.7192-0.082c5.2154-0.091 5.1961-0.097 5.2038 1.7858 2e-3 0.6112 0.107 1.1113 0.23222 1.1113 0.12523 0 0.89202-0.5531 1.704-1.2291 2.9821-2.4828 6.4732-3.3794 10.278-2.6396 1.9934 0.3877 5.5712 1.9328 5.5712 2.4061 0 0.4324-4.0885 8.5026-4.4074 8.6997-0.15306 0.095-0.98537-0.1949-1.8496-0.6432-1.3118-0.6806-1.9442-0.8152-3.8295-0.8152-1.9935 0-2.426 0.1042-3.6895 0.889-1.697 1.054-3.1583 3.4417-3.672 5.9997-0.21438 1.0674-0.33255 6.0928-0.33255 14.142 0 9.3162-0.0903 12.576-0.35562 12.842-0.51363 0.5137-9.3872 0.4999-9.5838-0.015zm-67.801-48.427c-0.10866-0.1087-0.19756-9.5813-0.19756-21.05v-20.853l6.3714 0.168 0.0929 0.9631c0.10843 1.1247 0.29757 1.1759 1.3333 0.3612 2.4222-1.9054 6.6137-2.7957 9.7193-2.0644 6.1985 1.4594 10.067 6.843 10.115 14.076 0.0315 4.7783-1.0287 7.6297-3.9792 10.702-2.3692 2.4673-4.517 3.4399-7.9754 3.6118-3.1068 0.1544-5.1424-0.3678-7.2359-1.8562-0.81137-0.5768-1.5757-1.0488-1.6984-1.0488s-0.2232 3.7072-0.2232 8.2383c0 6.0125-0.0961 8.3344-0.35562 8.5939-0.37849 0.3785-5.6074 0.517-5.9664 0.1581zm16.624-20.511c1.5394-0.7853 3.1749-2.7089 3.7579-4.4198 0.52489-1.5405 0.60257-4.7238 0.15462-6.3366-1.778-6.4016-10.141-7.5985-13.457-1.9259-2.1032 3.5976-1.1692 9.6507 1.8437 11.949 2.1674 1.6532 5.3114 1.9527 7.701 0.7336zm18.354 20.521c-0.11417-0.1142-0.20758-9.5868-0.20758-21.05v-20.843h6.2232v0.8716c0 0.4793 0.11893 0.945 0.26429 1.0349 0.14536 0.09 1.0455-0.3078 2.0003-0.8836 4.8931-2.9508 10.392-2.4305 14.452 1.3673 3.1439 2.941 4.6197 6.5322 4.6197 11.242 0 4.5507-1.4648 8.2599-4.3332 10.973-2.3242 2.1981-4.3715 3.0469-7.712 3.1975-3.1791 0.1433-4.9156-0.3168-7.246-1.9198-0.82798-0.5696-1.5936-0.9476-1.7013-0.8402-0.10774 0.1075-0.26258 3.9518-0.34407 8.5429l-0.14818 8.3475-2.8299 0.084c-1.5565 0.046-2.9234-0.01-3.0375-0.1235zm16.731-20.601c2.6991-1.4929 4.319-4.9392 4.0112-8.5337-0.20581-2.4029-0.78625-3.8198-2.2132-5.4025-1.3791-1.5296-3.0398-2.3034-4.957-2.3097-2.4725-0.01-3.7086 0.4939-5.3404 2.1689-1.5456 1.5865-2.1027 2.8504-2.4138 5.4771-0.34339 2.8993 1.1058 6.6021 3.178 8.1201 2.1308 1.561 5.4125 1.7645 7.7352 0.4798zm-76.248 6.1154c-1.9103-0.6095-4.0578-2.1545-5.3409-3.8424-1.8697-2.4595-2.0271-3.5603-2.0271-14.175v-9.3895h6.1598l0.10772 8.9644c0.10644 8.8587 0.11643 8.9818 0.84664 10.446 1.0028 2.0108 2.6995 2.9249 5.0185 2.7038 1.9217-0.1833 2.8686-0.815 3.8699-2.5819 0.73914-1.3043 0.74108-1.3284 0.83762-10.43l0.0968-9.1224 6.326 0.168 0.0808 7.5568c0.0952 8.911-0.1941 12.208-1.2631 14.393-0.94052 1.9224-2.9367 3.7928-5.1371 4.8136-1.4441 0.6699-2.1425 0.7911-4.9416 0.8572-2.2509 0.053-3.685-0.059-4.6339-0.3614zm101.59-0.1656c-2.2435-0.7717-3.6125-1.6549-5.1427-3.3177-2.3758-2.5816-3.6406-6.1589-3.6392-10.292 3e-3 -8.7498 5.2403-14.521 13.178-14.521 7.8006 0 13.229 5.8901 12.837 13.928l-0.094 1.9262-9.4198 0.078c-10.589 0.088-10.09-0.037-9.2836 2.3279 0.95127 2.7918 2.923 4.4197 5.7586 4.7544 2.7597 0.3258 4.9701-0.8434 6.9013-3.6504 0.48724-0.7082 1.061-1.2876 1.2749-1.2876 0.78997 0 4.9039 2.5203 4.9103 3.0082 0.011 0.8438-2.6431 4.0589-4.374 5.2983-2.3328 1.6705-4.7866 2.3642-8.3194 2.3519-2.0685-0.01-3.3357-0.1742-4.5869-0.6046zm10.471-18.011c0-1.0099-1.7517-3.0295-3.1729-3.6582-1.9304-0.8539-4.6313-0.6612-6.2264 0.4442-1.0811 0.7492-2.4544 2.6696-2.4544 3.4322 0 0.2315 1.7693 0.33 5.9268 0.33 5.5691 0 5.9268-0.033 5.9268-0.5482zm14.592 17.786c-0.2933-0.1862-0.35694-3.0969-0.29634-13.553l0.0772-13.316h3.1116c3.0012 0 3.115 0.024 3.2063 0.6668 0.1244 0.876 0.45693 0.8413 1.7748-0.1857 1.3464-1.0491 2.7077-1.5183 4.4053-1.5183 1.3052 0 4.3985 0.9237 4.9541 1.4793 0.20092 0.2009-0.0848 1.0911-0.87175 2.7162-1.595 3.2938-1.6162 3.3103-3.2917 2.5692-2.4965-1.1043-4.6106-0.3497-6.0283 2.1518-0.73603 1.2988-0.74148 1.3632-0.83581 9.896-0.0601 5.4332-0.20948 8.7268-0.4067 8.9644-0.35114 0.4231-5.1668 0.5306-5.7987 0.1295z"/>
<path d="m-56.172 1445.4c-31.373-4.5639-58.111-21.627-72.483-46.255-4.7429-8.1272-7.7273-16.312-9.6517-26.469-0.63667-3.3605-0.64838-3.9671-0.84068-43.562-0.19212-39.556-0.20438-40.193-0.82289-42.731-2.9789-12.224-11.368-20.7-23.924-24.172-1.6194-0.4478-7.1587-0.5075-62.084-0.6687-66.068-0.1939-61.731-0.075-70.558-1.9385-24.705-5.2162-46.058-22.673-56.345-46.063-5.0714-11.532-7.6624-25.488-6.8082-36.672 1.2798-16.756 6.4882-31.016 16.007-43.822 3.2374-4.3554 10.618-11.942 14.577-14.983 14.145-10.866 29.701-16.491 47.126-17.043 14.077-0.4458 27.019 2.4541 39.348 8.8168 22.654 11.692 38.381 33.335 42.42 58.38 0.95943 5.9491 1.2067 11.906 1.1926 28.728l-0.0133 15.854 17.865 0.1819c17.552 0.1787 19.103 0.2609 24.829 1.317 32.321 5.9603 57.808 31.272 64.138 63.696 1.3093 6.706 1.3534 8.2304 1.356 46.82 1e-3 22.993 0.11545 37.747 0.30437 39.415 0.91351 8.0693 4.567 15.648 10.362 21.495 4.7492 4.7916 10.37 8.0804 16.966 9.9272 0.93718 0.2624 1.704 0.5773 1.704 0.6998s-1.1195 1.3155-2.4877 2.651l-2.4877 2.4282-2.1797-0.78c-12.247-4.3829-22.115-14.388-26.275-26.642-2.0622-6.0748-1.919-2.9301-2.1389-46.97-0.21428-42.926-0.17744-41.92-1.811-49.46-2.927-13.51-9.4341-25.596-19.222-35.701-11.296-11.663-24.898-18.73-41.812-21.722-2.5138-0.4448-8.7498-0.5126-63.538-0.6911-44.057-0.1435-61.207-0.2918-62.413-0.5399-3.7515-0.7718-7.1246-1.9275-10.487-3.5932-11.034-5.465-18.628-15.608-20.73-27.686-0.58642-3.3694-0.58713-9.4373-1e-3 -12.813 2.7332-15.756 14.328-27.732 30.158-31.149 3.0074-0.6493 11.827-0.7247 14.578-0.1246 5.4498 1.1888 9.8609 3.0029 13.997 5.7565 8.7116 5.7995 14.572 14.655 16.584 25.06 0.41703 2.1563 0.52329 5.4374 0.6638 20.496l0.16729 17.929 21.523 0.084-0.11443-19.156c-0.0981-16.416-0.18682-19.559-0.62032-21.972-2.2777-12.675-7.6912-23.377-16.315-32.251-8.7904-9.0458-19.116-14.652-31.822-17.277-4.2281-0.8736-14.659-1.1039-19.326-0.4267-10.991 1.5945-20.799 5.8405-29.341 12.703-21.828 17.534-28.581 47.815-16.279 72.99 9.0175 18.452 26.931 31 47.546 33.304 1.6958 0.1895 23.527 0.2989 59.947 0.3005 38.568 0 58.22 0.1057 60.158 0.3186 22.992 2.526 40.923 18.956 45.741 41.913l0.68416 3.2598 0.1915 40.006c0.10533 22.003 0.28438 40.473 0.39789 41.043 0.11351 0.5705 0.4715 2.4374 0.79553 4.1488 3.1088 16.419 14.246 31.922 29.906 41.631 5.3169 3.2964 14.054 7.0891 19.473 8.4528 0.69271 0.1743 1.2595 0.4149 1.2595 0.5347s-1.0524 1.264-2.3386 2.5427l-2.3386 2.3248-2.9215-0.9672c-5.7646-1.9086-12.49-5.1366-17.739-8.5138-6.0041-3.8635-13.159-10.267-17.502-15.664-6.1863-7.687-10.734-16.689-13.024-25.78-1.9396-7.7012-1.9226-7.2875-1.9301-47.039-4e-3 -19.747-0.13263-37.523-0.28651-39.501-0.89266-11.476-5.2086-20.776-13.465-29.014-6.7662-6.7518-13.538-10.472-23.053-12.664-2.7478-0.6331-2.8113-0.6339-63.204-0.81-65.376-0.1906-61.609-0.096-69.061-1.7318-9.3979-2.0627-18.862-6.6086-26.661-12.806-11.088-8.8115-19.27-21.553-22.812-35.529-1.4935-5.8919-1.7567-8.284-1.7615-16.013-5e-3 -8.1506 0.46414-11.815 2.3528-18.373 5.7075-19.82 20.293-35.704 39.857-43.404 12.394-4.878 28.044-5.6057 41.321-1.9214 22.34 6.1994 39.837 23.772 45.978 46.179 2.1365 7.7954 2.2747 9.5433 2.4048 30.41l0.11639 18.67h7.3986l-0.013-18.567c-0.01-14.158-0.11256-19.365-0.43222-21.929-1.4986-12.02-5.6292-22.957-12.37-32.752-11.95-17.366-30.247-28.576-51.509-31.557-4.1882-0.5871-15.283-0.5031-19.559 0.1483-16.157 2.4613-30.501 9.6473-41.79 20.935-10.009 10.007-16.929 22.602-19.962 36.332-1.4617 6.6158-2.0426 16.058-1.384 22.498 1.7665 17.274 8.6486 32.22 20.453 44.417 11.044 11.412 24.498 18.549 40.647 21.563l3.6662 0.6843 60.602 0.1763c67.383 0.1961 62.147 0.028 68.654 2.2041 12.945 4.329 22.218 14.77 25.337 28.528 0.65232 2.8772 0.65534 3.0311 0.84322 42.894 0.18636 39.54 0.19613 40.046 0.83807 43.414 0.95164 4.9933 2.2788 9.7446 3.8044 13.62 8.9153 22.648 28.857 40.641 54.514 49.189 6.8137 2.2699 15.424 4.1132 22.185 4.7492 1.9559 0.1839 4.2752 0.4064 5.154 0.4944l1.5978 0.1599-5.8517 5.8737-1.4872-0.032c-0.81803-0.017-2.7533-0.2161-4.3006-0.4411zm-191.5-248.9c0.11439-20.972-0.0871-22.738-3.3473-29.338-4.3888-8.884-12.407-15.095-22.079-17.103-3.7868-0.7862-10.796-0.6149-14.373 0.3513-2.9405 0.7943-7.9154 3.1339-10.335 4.8604-9.2393 6.5931-14.353 17.794-13.21 28.933 1.4649 14.275 12.096 25.74 26.212 28.268 1.9025 0.3406 5.7949 0.4148 19.707 0.3758l17.336-0.049zm315.3 133.14c-6.1242-12.594-11.073-23-10.996-23.123 0.0762-0.1233 2.4706-0.2242 5.3209-0.2242h5.1823l0.45258 0.8149c0.24892 0.4483 2.7692 5.8824 5.6005 12.076 4.5869 10.034 5.7195 12.181 6.168 11.695 0.0698-0.076 2.7382-6.272 5.9296-13.77 3.1914-7.4975 5.9505-13.632 6.1313-13.632 0.18077 0 2.9579 6.1334 6.1713 13.63 3.823 8.9183 6.0037 13.661 6.3087 13.72 0.35161 0.068 1.7577-2.769 5.7278-11.555 2.894-6.4049 5.4496-11.945 5.6792-12.312 0.40709-0.6503 0.54604-0.6668 5.6172-0.6668 4.9387 0 5.195 0.028 5.1051 0.5613-0.16358 0.9697-22.009 45.647-22.32 45.649-0.16299 0-2.8968-6.0282-6.075-13.399-3.8914-9.0243-5.9218-13.401-6.217-13.401-0.29379 0-2.3609 4.3926-6.2716 13.327-3.2083 7.3298-5.9561 13.368-6.1062 13.418-0.1501 0.05-5.2836-10.214-11.408-22.808zm-69.802 21.377c-8.2253-1.2705-14.418-7.0295-16.706-15.535-0.9277-3.4492-0.92432-11.095 7e-3 -14.521 2.1601-7.9511 7.0177-13.082 14.221-15.022 3.0203-0.8134 8.7532-0.8684 11.751-0.1128 7.1451 1.8009 12.155 6.9702 14.094 14.542 0.36586 1.4288 0.67732 3.8719 0.78386 6.1491l0.17679 3.7784h-15.282c-8.4052 0-15.493 0.081-15.751 0.1798-0.64576 0.2478-0.59965 1.7047 0.12856 4.0623 0.61648 1.996 2.1459 4.3133 3.6997 5.6057 3.3361 2.7749 8.8318 3.2843 12.703 1.1774 1.5306-0.8331 4.1358-3.5081 5.4638-5.6103 0.43956-0.6958 0.96477-1.2653 1.1671-1.2656 0.65821-9e-4 7.7815 4.1807 7.7815 4.5681 0 0.7734-2.9633 4.5563-5.266 6.7224-2.6585 2.501-5.5086 4.0968-8.6622 4.8503-2.4297 0.5806-7.8682 0.8077-10.31 0.4307zm13.799-28.796c0.5125-0.627-0.71919-3.3208-2.3186-5.0708-2.1346-2.3356-3.8029-2.9996-7.5428-3.0024-2.5979 0-3.1725 0.096-4.6586 0.7924-2.0834 0.9765-4.0987 2.9991-5.1026 5.1212-1.2634 2.6705-1.7887 2.53 9.4603 2.53 7.5286 0 9.9311-0.088 10.162-0.3704zm138.9 28.805c-5.5908-0.878-10.796-3.8813-14.243-8.2179-1.927-2.4243-3.8531-6.545-4.4438-9.5069-0.75704-3.7963-0.49463-9.5033 0.58089-12.634 4.0664-11.835 17.205-18.226 29.49-14.344 5.7255 1.8089 10.561 5.8809 13.336 11.23 2.1284 4.1031 2.9343 8.5836 2.3972 13.326-0.92427 8.1588-5.3308 14.432-12.71 18.093-3.7164 1.8438-10.021 2.7427-14.407 2.054zm7.0029-8.7105c6.7544-1.4316 10.662-7.1459 10.247-14.983-0.32201-6.0741-3.2665-10.587-8.1367-12.47-2.5544-0.9877-6.5344-1.1216-9.2069-0.3099-5.2022 1.5801-8.6259 6.1382-9.1242 12.148-0.64958 7.8323 3.4194 14.156 10.033 15.593 2.4172 0.525 3.7931 0.5301 6.1876 0.023zm-226.9 7.465c-0.0778-0.2038-0.10695-10.039-0.0648-21.855l0.0767-21.485 4.405-0.082c2.9961-0.056 4.5363 0.027 4.8156 0.2585 0.24718 0.2051 0.41059 0.916 0.41059 1.7862 0 1.7947 0.25841 1.8199 2.3723 0.2315 3.2269-2.4246 5.9469-3.3411 9.9259-3.3443 8.2715-0.01 13.49 4.2601 14.817 12.115 0.37005 2.1906 0.43681 5.3408 0.37357 17.632l-0.077 14.965h-9.483l-0.16009-14.817c-0.18225-16.866-0.19496-16.966-2.4623-19.233-1.6178-1.6178-3.1933-2.0685-6.6521-1.9032-2.1685 0.1037-2.8545 0.2624-3.9763 0.9198-1.7528 1.0272-2.7085 2.1865-3.4613 4.1986-1.0653 2.8473-1.2121 4.9998-1.2144 17.811-3e-3 9.2943-0.0926 12.552-0.35786 12.817-0.513 0.513-9.0911 0.4993-9.2874-0.015zm105.5 0c-0.0765-0.2038-0.17232-7.9716-0.21295-17.262l-0.0739-16.892-4.1488-0.2964v-8.8902l4.1488-0.2964 0.079-7.9345 0.0789-7.9344 9.6214 0.162 0.14817 7.853 0.14817 7.8531 7.4086 0.2964 0.1636 9.0206-7.5721 0.166-0.0765 16.864c-0.0538 11.855-0.17464 16.982-0.40673 17.262-0.45865 0.5526-9.0988 0.5781-9.3056 0.027zm154.32 0.022c-0.5696-0.5696-0.52316-42.712 0.0476-43.186 0.27924-0.2318 1.8195-0.3145 4.8156-0.2585l4.405 0.082 0.15469 1.5376c0.0851 0.8457 0.24543 1.6284 0.35638 1.7393 0.11092 0.1109 1.199-0.6006 2.4178-1.5811 2.7409-2.2049 4.5269-2.8624 7.7394-2.849 3.2172 0.013 7.8531 1.5749 7.8531 2.6451 0 0.5553-3.7276 8.027-4.128 8.2746-0.16219 0.1002-0.98495-0.1675-1.8284-0.5949-4.1249-2.0903-8.6729-0.721-10.686 3.2174-1.4608 2.8571-1.5143 3.4138-1.7016 17.69l-0.17692 13.484-4.4526 0.082c-3.2123 0.059-4.5537-0.02-4.8156-0.2815zm63.102-0.1703c-0.3359-0.2852-3.6342-4.3859-7.3297-9.1125-3.6956-4.7267-6.9156-8.6396-7.1557-8.6953-0.2508-0.058-2.7299 2.18-5.8264 5.2601-2.9644 2.9488-5.4859 5.3614-5.6032 5.3614-0.11736 0-0.17944-15.369-0.13801-34.154l0.0753-34.154h9.483l0.076 22.805c0.048 14.466 0.1826 22.912 0.3677 23.097 0.1915 0.1915 2.7189-2.1215 7.3525-6.7288l7.0608-7.0206h6.1117c3.3614 0 6.1856 0.1196 6.276 0.2658 0.09 0.1462-3.8024 4.0968-8.6506 8.7792-4.8481 4.6824-8.9335 8.7597-9.0786 9.0608-0.1761 0.3653-0.1269 0.7417 0.1481 1.1318 0.2267 0.3214 4.6461 5.8452 9.821 12.275 5.1748 6.4298 9.4088 11.838 9.4088 12.018 0 0.2284-1.7862 0.3277-5.894 0.3277-5.1832 0-5.9676-0.062-6.5046-0.5186zm-472.87-9.6203c-0.0798-0.2097-0.11087-16.25-0.0689-35.646l0.0763-35.265h5.9268v71.122l-2.8945 0.085c-2.1496 0.063-2.9319-0.013-3.0397-0.2963zm13.822-19.009c-0.24377-0.2937-0.31377-7.3738-0.25854-26.152l0.0757-25.75h6.5195l0.0757 25.75c0.0552 18.778-0.0148 25.858-0.25854 26.152-0.23768 0.2864-1.1269 0.4028-3.077 0.4028s-2.8393-0.1164-3.077-0.4028zm-42.115-32.343v-19.727l6.3714 0.168v39.117l-6.3714 0.168zm182.1-2.2225c-9.0949-1.2551-14.691-10.437-11.686-19.172 2.6191-7.6127 11.318-11.617 19.39-8.9264 0.97793 0.326 1.9448 0.7303 2.1485 0.8984 0.41689 0.3441 0.54657 7.6417 0.13578 7.6417-0.12905 0-0.81598-0.5923-1.5265-1.3163-4.2593-4.3399-10.99-3.2243-13.865 2.298-0.69589 1.3367-0.80049 1.8852-0.80171 4.2043-1e-3 2.0837 0.13522 2.9667 0.62315 4.0369 1.4817 3.2498 4.3116 5.102 7.8036 5.1075 2.4047 0 4.186-0.748 6.1701-2.6039 0.79645-0.745 1.5342-1.3545 1.6396-1.3545s0.19153 1.6717 0.19153 3.7148v3.7148l-1.2595 0.5338c-2.7314 1.1577-6.1046 1.618-8.9644 1.2233zm26.941 0.01c-3.8265-0.5758-7.696-3.5462-9.4374-7.2447-3.1477-6.6852-1.3234-15.357 4.0653-19.324 2.2255-1.6383 4.4041-2.3069 7.4724-2.2933 2.6788 0.012 4.6595 0.7013 6.876 2.3932 0.70323 0.5368 1.4031 0.976 1.5553 0.976 0.1522 0 0.31774-0.5668 0.36785-1.2595l0.0911-1.2595h5.9269v27.264h-5.9269l-0.092-1.1113c-0.0506-0.6112-0.23681-1.1113-0.41384-1.1113-0.17701 0-1.0024 0.4446-1.8342 0.9881-2.7923 1.8243-5.5308 2.4518-8.6505 1.9823zm6.5488-5.9104c1.6213-0.7095 3.0577-2.2187 3.9695-4.1704 1.0385-2.2231 1.0684-6.1889 0.064-8.4769-0.78726-1.7934-2.6951-3.7548-4.3032-4.4242-1.5134-0.63-4.4611-0.6352-5.9617-0.011-1.6258 0.6769-3.5329 2.6268-4.337 4.4347-1.0077 2.2655-0.97296 6.231 0.0742 8.4769 2.0144 4.3202 6.2793 6.0151 10.494 4.1704zm48.152 6.0209c-4.499-0.7176-7.2419-2.0333-9.641-4.6246-2.912-3.1453-3.8142-5.7635-3.649-10.59 0.10185-2.9755 0.17875-3.3128 1.2489-5.4781 3.3822-6.8434 11.275-10.019 18.709-7.5271 0.97793 0.3279 1.9447 0.7336 2.1485 0.9017 0.25838 0.2133 0.37043 1.3703 0.37043 3.8256 0 1.9359-0.0757 3.5198-0.16815 3.5198-0.0925 0-0.91321-0.6069-1.8238-1.3487-2.1824-1.7778-3.3837-2.2493-5.7454-2.255-2.5374-0.01-4.5844 0.8582-6.2104 2.6221-1.8284 1.9836-2.4574 3.6347-2.4623 6.4639-9e-3 5.4535 3.4324 9.1455 8.5127 9.1314 2.5902-0.01 4.2593-0.7177 6.1436-2.6152 0.72006-0.725 1.4092-1.321 1.5314-1.3242 0.12224 0 0.22226 1.6575 0.22226 3.6907v3.6967l-0.81886 0.4234c-1.9292 0.9976-6.4263 1.797-8.3678 1.4873zm107.15-0.1492c-5.0188-0.7319-9.0436-4.4559-10.386-9.6098-0.59114-2.2695-0.59141-7.1916 0-9.4603 1.7977-6.9017 7.6735-10.73 14.858-9.6798 6.7285 0.9832 10.596 5.7532 10.842 13.372l0.0718 2.2226-9.8642 0.078c-8.2387 0.065-9.8911 0.1481-10.027 0.5028-0.30559 0.7963 0.74497 3.5716 1.8333 4.8431 1.2487 1.4588 2.2013 2.0113 4.2102 2.4422 2.9376 0.63 5.5052-0.5206 7.6247-3.4165 0.65195-0.8908 1.3187-1.5896 1.4817-1.553 0.90163 0.2029 4.5933 2.4778 4.5933 2.8305 0 0.5958-1.8613 3.0498-3.2971 4.3469-1.6627 1.5021-4.4283 2.7395-6.9268 3.0991-2.3448 0.3376-2.5836 0.3367-5.0141-0.018zm8.8973-18.463c0.18951-0.4938-0.58075-2.1112-1.473-3.0931-1.6006-1.7614-5.2194-2.4529-7.61-1.454-1.8419 0.7695-4.1081 3.5388-3.7212 4.5471 0.23737 0.6186 12.567 0.6186 12.804 0zm-144.36 17.532c-0.0761-0.2037-0.17194-5.1045-0.21298-10.891l-0.0746-10.52-2.5189-0.182v-5.5964h1.0009c0.55049 0 1.1471-0.1761 1.3258-0.3914 0.19722-0.2376 0.35698-2.246 0.4067-5.1119l0.0819-4.7205h5.6305l0.0819 4.7205c0.0497 2.8659 0.20949 4.8743 0.4067 5.1119 0.21544 0.2596 1.0612 0.3914 2.5111 0.3914h2.1863v5.6305h-2.1633c-1.2874 0-2.3073 0.144-2.5189 0.3556-0.26333 0.2633-0.35562 3.1083-0.35562 10.965v10.609h-2.8246c-1.9883 0-2.8655-0.1097-2.9629-0.3705zm46.288 0.1729c-0.10867-0.1087-0.19757-10.91-0.19757-24.004v-23.806h5.9268v10.974c0 8.9494 0.0739 11.002 0.4008 11.128 0.22045 0.085 1.0539-0.2494 1.8521-0.7421 5.6334-3.4776 12.965-1.3605 14.8 4.274 0.52921 1.6245 0.57924 2.6612 0.57924 12.002v10.224l-2.8672 0.084-2.8672 0.085-0.0962-9.4194c-0.0957-9.3652-0.10049-9.4278-0.83708-10.896-0.9854-1.9641-2.1089-2.5936-4.6036-2.5792-2.5424 0.015-4.1364 0.8698-5.0926 2.7321-0.89913 1.7513-1.2454 5.5606-1.2586 13.844l-0.01 6.2973h-2.7659c-1.5212 0-2.8548-0.089-2.9634-0.1976zm32.54-0.1621c-0.0804-0.2097-0.11142-6.3821-0.0689-13.717l0.0773-13.335h2.9634c2.937 0 2.9643 0.01 3.0626 0.7408 0.16106 1.2031 0.47418 1.2539 1.7019 0.2757 2.007-1.599 2.7701-1.8764 5.163-1.8763 2.7038 0 4.4493 0.6972 6.1608 2.4607 0.64816 0.6679 1.2745 1.2143 1.3918 1.2143 0.11738 0 0.87042-0.5907 1.6734-1.3126 1.9303-1.7356 3.8739-2.3942 6.9883-2.3683 3.2027 0.027 5.3807 1.0492 6.829 3.2063 1.8639 2.7761 1.9798 3.6414 1.9893 14.847l9e-3 10.076h-5.9269l-0.14817-9.6312c-0.13655-8.8753-0.19467-9.7226-0.74085-10.797-0.84411-1.661-1.8617-2.3101-3.6212-2.3101-2.3274 0-3.7327 0.9474-4.733 3.1908-0.45157 1.0128-0.54494 2.4398-0.67806 10.361l-0.15437 9.1866h-5.9268l-0.14817-9.6312-0.14817-9.6311-0.80362-1.367c-0.90074-1.5322-2.0866-2.1875-3.8322-2.1179-1.9991 0.08-3.3699 1.096-4.3151 3.1994-0.45744 1.0178-0.54788 2.4001-0.67809 10.361l-0.15022 9.1866-2.8945 0.085c-2.1492 0.063-2.9321-0.013-3.0407-0.2964zm80.013 0c-0.0804-0.2097-0.11143-6.3821-0.0689-13.717l0.0773-13.335h5.9269l0.0929 0.9631c0.11137 1.1553 0.38519 1.1937 1.6472 0.2311 1.9452-1.4837 3.704-2.0464 6.4094-2.0509 2.0846 0 2.8044 0.1273 4.1744 0.7581 2.176 1.0019 3.613 2.4837 4.4603 4.5995 0.67638 1.6889 0.68983 1.9258 0.6949 12.242l5e-3 10.52-2.8642 0.084-2.8641 0.085-0.10135-9.4193c-0.0957-8.8943-0.13685-9.4964-0.73834-10.802-0.35033-0.7605-0.98015-1.6075-1.3996-1.8823-2.1297-1.3954-5.7021-1.1226-7.389 0.5643-1.6487 1.6486-1.7693 2.409-1.9569 12.332l-0.17084 9.0385-2.8945 0.085c-2.1492 0.063-2.9321-0.013-3.0407-0.2964zm32.898 0c-0.0784-0.2097-0.17606-5.1153-0.2171-10.901l-0.0746-10.52-2.3708-0.2964-0.17-5.4472 2.5407-0.184 0.29634-10.076 2.6962-0.085c1.9914-0.062 2.7833 0.02 3.0297 0.3173 0.20803 0.2506 0.36439 2.1783 0.41545 5.1224l0.0819 4.7205 4.7415 0.2964v5.3341l-4.7415 0.2964-0.29634 21.633-2.8945 0.085c-2.1506 0.063-2.9311-0.013-3.037-0.2964zm-346.8-87.934c-2.9832-0.7329-5.676-2.1761-7.9526-4.2621-4.822-4.4185-7.0383-9.9661-7.0069-17.539 0.019-4.5683 0.63169-7.3347 2.4286-10.965 3.4521-6.9738 9.4992-10.806 17.055-10.809 4.3122 0 7.294 1.059 11.08 3.9402 1.2043 0.9165 2.3045 1.5955 2.4448 1.5088 0.14033-0.087 0.25515-1.0834 0.25515-2.2147v-2.0569h9.1866v41.8l-9.0384-0.164-0.0882-1.8522c-0.10896-2.2875-0.43879-2.3627-2.735-0.6239-4.5383 3.4366-10.115 4.5916-15.629 3.2369zm11.931-8.7325c4.5719-2.2596 6.9654-6.6485 6.9654-12.772 0-6.1321-2.4136-10.523-7.0421-12.81-2.1626-1.0688-2.3927-1.1179-5.2407-1.1179-2.7176 0-3.149 0.081-4.9203 0.92-3.5078 1.6622-6.2561 5.2538-7.1267 9.3133-0.43472 2.027-0.18343 7.0565 0.45462 9.0991 0.65779 2.1058 2.7096 5.0256 4.4842 6.3808 2.1936 1.6753 4.452 2.3212 7.6294 2.1817 2.2787-0.1 2.8891-0.252 4.7962-1.1945zm97.79 7.8715c-8.7496-3.4537-13.505-12.65-12.295-23.778 1.2972-11.929 8.7051-18.944 20.005-18.944 9.4936 0 16.12 4.7212 18.767 13.372 0.6868 2.2441 1.325 7.1787 1.1835 9.1502l-0.0957 1.3336-30.227 0.2963-0.0981 0.8594c-0.24398 2.1383 1.3365 5.8069 3.4184 7.9349 1.8481 1.8889 4.245 2.9272 7.2298 3.1318 1.2874 0.088 2.3408 0.2394 2.3408 0.3359 0 0.097-1.5648 1.7444-3.4774 3.662-2.1873 2.1929-3.699 3.4827-4.0747 3.4762-0.32852-0.01-1.5329-0.3795-2.6764-0.8308zm17.927-26.941c-0.0178-2.2131-2.7873-5.7539-5.4125-6.9196-1.2531-0.5564-2.078-0.6884-4.3656-0.6986-2.6034-0.012-2.973 0.062-4.8031 0.963-1.176 0.5786-2.4248 1.4829-3.0692 2.2225-1.2682 1.4555-2.622 4.1913-2.3827 4.815 0.14097 0.3674 1.6646 0.4327 10.103 0.4327h9.9368zm-85.797 26.819c-0.0778-0.2037-0.10698-9.5718-0.0648-20.818l0.0767-20.448 9.0384-0.164v41.8h-4.4544c-3.2905 0-4.4914-0.097-4.5959-0.3705zm23.411 0c-0.0778-0.2037-0.10698-9.5718-0.0648-20.818l0.0767-20.448 9.007-0.164 0.0898 1.5401c0.0494 0.8471 0.2442 1.591 0.43286 1.6531 0.18866 0.062 1.0266-0.4942 1.8621-1.2362 0.83549-0.7421 2.2147-1.7159 3.0649-2.1641 1.4191-0.748 1.8132-0.8142 4.8056-0.8064 2.6632 0.01 3.5613 0.1289 4.9074 0.6669 3.1212 1.2476 3.0725 0.9451 0.8713 5.4032-1.0594 2.1457-2.0121 3.9553-2.117 4.0213s-0.91585-0.212-1.8021-0.6177c-2.2602-1.0347-3.9363-1.207-5.9756-0.6141-3.1055 0.9027-5.1028 3.6187-5.7916 7.8753-0.18111 1.1192-0.31263 6.9854-0.31393 14.002l-2e-3 12.076h-4.4544c-3.2905 0-4.4914-0.097-4.5959-0.3705zm-67.862-48.6c-0.0778-0.2037-0.10699-9.4384-0.0648-20.522l0.0767-20.151h5.3342l0.0905 1.0859c0.1148 1.3781 0.69896 1.6033 1.7861 0.6885 0.47049-0.3959 1.5743-1.0904 2.4528-1.5434 1.4486-0.7469 1.8873-0.8236 4.709-0.8236 2.8006 0 3.2956 0.085 4.9524 0.8503 8.3693 3.866 10.088 17.181 3.0584 23.69-2.2975 2.1272-4.3559 2.9388-7.5662 2.9836-2.8209 0.039-4.8964-0.5884-6.8335-2.067-0.72658-0.5546-1.5866-1.0084-1.9112-1.0084-0.5757 0-0.59012 0.21-0.59012 8.594v8.5939h-2.6764c-1.8681 0-2.7191-0.1119-2.8179-0.3705zm16.317-19.15c1.5591-0.7083 2.9422-2.1182 3.9247-4.0009 0.69711-1.3358 0.79322-1.8602 0.79441-4.3349 1e-3 -3.1775-0.49858-4.677-2.21-6.6262-1.555-1.7711-3.0272-2.3985-5.6273-2.3985-2.6964 0-4.087 0.6335-5.8921 2.6842-1.4359 1.6313-2.1091 3.6079-2.1091 6.1923 0 5.3865 3.235 9.0478 7.9803 9.032 1.241 0 2.3795-0.2029 3.1391-0.548zm18.656 19.162c-0.0803-0.2101-0.11144-9.45-0.0692-20.533l0.0767-20.151h5.3342l0.092 1.1113c0.11728 1.4171 0.46077 1.4115 2.7136-0.045 2.232-1.4426 4.1574-1.918 7.0823-1.7487 4.9999 0.2894 9.0868 3.6678 10.774 8.9061 0.86706 2.6918 0.84469 7.3901-0.0475 9.985-1.6481 4.7934-4.9457 7.7838-9.4926 8.6083-3.1426 0.5699-6.4115-0.2304-8.9971-2.2025-2.0111-1.534-1.9586-1.7331-2.0462 7.7606l-0.0786 8.5198-2.5978 0.086c-1.9112 0.063-2.6364-0.015-2.7438-0.2964zm16.306-19.16c1.4672-0.6682 3.2751-2.6346 4.0902-4.4487 0.47383-1.0546 0.61365-1.9629 0.60761-3.9473-7e-3 -2.2967-0.11204-2.7891-0.96423-4.5202-1.1796-2.3961-2.9048-3.8203-5.2685-4.3493-4.0733-0.9116-8.1485 1.5721-9.2836 5.6581-0.44621 1.6062-0.35233 5.3648 0.17248 6.905 0.59335 1.7414 2.5677 3.9957 4.1151 4.6986 1.6142 0.7333 4.9251 0.7352 6.531 0zm-74.478 5.2923c-3.3093-0.6995-6.3666-2.9376-7.4938-5.4857-0.91278-2.0635-1.182-5.4285-1.0904-13.626l0.0861-7.705h5.3342l0.15334 9.0385c0.16056 9.4632 0.24591 10.089 1.5704 11.511 1.0415 1.1186 2.1272 1.5277 4.055 1.5277 1.9331 0 3.0291-0.4147 4.0377-1.5277 1.4161-1.5627 1.4372-1.7127 1.5928-11.363l0.14817-9.1867h5.3342l0.0836 8.2976c0.0514 5.1032-0.043 9.0591-0.24524 10.275-0.60759 3.6548-3.1643 6.6663-6.6022 7.7766-1.8628 0.6016-5.2526 0.8291-6.9638 0.4674zm101.9-0.039c-4.8822-0.8094-8.6496-4.5687-9.7989-9.778-0.54908-2.4888-0.24327-7.6679 0.57926-9.81 2.0203-5.2614 5.9671-7.9308 11.726-7.9308 7.3959 0 12.114 4.746 12.372 12.446l0.0745 2.2226-9.3096 0.078c-6.575 0.055-9.4325 0.1803-9.7279 0.4255-0.53681 0.4455-0.27465 1.9437 0.66085 3.7767 0.84095 1.6477 2.0138 2.7978 3.4759 3.4086 1.4606 0.6101 4.7377 0.5998 6.0418-0.019 0.99664-0.473 3.9693-3.461 3.9693-3.9898 0-0.1499 0.18245-0.2725 0.40545-0.2725 0.64981 0 4.336 2.1505 4.336 2.5296 0 0.5492-1.5618 2.5438-3.0871 3.9424-2.974 2.7271-7.0106 3.7502-11.717 2.9699zm8.7052-17.03c0.61856-0.2373 0.59133-0.7888-0.10648-2.1566-2.4129-4.7298-9.4686-4.7131-11.9 0.028-0.65543 1.2781-0.71263 1.9027-0.19342 2.1122 0.53443 0.2156 11.642 0.2306 12.2 0.016zm14.693 3.28v-13.199l5.186 0.172 0.0955 0.8324c0.1397 1.2181 0.79672 1.2826 2.0307 0.1991 1.468-1.289 2.7302-1.7724 4.6274-1.7724 1.5655 0 4.2091 0.7026 4.5168 1.2005 0.087 0.1408-0.37799 1.3223-1.0333 2.6257l-1.1915 2.3697-1.1053-0.4618c-0.73129-0.3055-1.6852-0.4198-2.8191-0.3378-2.0162 0.1458-3.175 1.0289-4.1962 3.1977-0.58578 1.244-0.63453 1.9057-0.72613 9.8534l-0.0982 8.5198h-5.2866z"/>
<path d="m-56.172 1445.4c-31.373-4.5639-58.111-21.627-72.483-46.255-4.7429-8.1272-7.7273-16.312-9.6517-26.469-0.63667-3.3605-0.64838-3.9671-0.84068-43.562-0.19212-39.556-0.20438-40.193-0.82289-42.731-2.9789-12.224-11.368-20.7-23.924-24.172-1.6194-0.4478-7.1587-0.5075-62.084-0.6687-66.068-0.1939-61.731-0.075-70.558-1.9385-24.705-5.2162-46.058-22.673-56.345-46.063-5.0714-11.532-7.6624-25.488-6.8082-36.672 1.2798-16.756 6.4882-31.016 16.007-43.822 3.2374-4.3554 10.618-11.942 14.577-14.983 14.145-10.866 29.701-16.491 47.126-17.043 14.077-0.4458 27.019 2.4541 39.348 8.8168 22.64 11.684 38.327 33.257 42.418 58.334 0.95964 5.8821 1.2391 13.024 1.1432 29.218l-0.0895 15.113h-6.5195l-0.17929-20.003c-0.0986-11.002-0.25919-20.336-0.35684-20.744-0.0976-0.4074-0.33225-1.6743-0.52134-2.8152-1.7223-10.392-5.8686-20.642-11.888-29.39-11.95-17.366-30.247-28.576-51.509-31.557-4.1882-0.5871-15.283-0.5031-19.559 0.1483-16.157 2.4613-30.501 9.6473-41.79 20.935-10.009 10.007-16.929 22.602-19.962 36.332-1.4617 6.6158-2.0426 16.058-1.384 22.498 1.7665 17.274 8.6486 32.22 20.453 44.417 11.044 11.412 24.498 18.549 40.647 21.563l3.6662 0.6843 60.602 0.1763c67.383 0.1961 62.147 0.028 68.654 2.2041 12.945 4.329 22.218 14.77 25.337 28.528 0.65232 2.8772 0.65534 3.0311 0.84322 42.894 0.18636 39.54 0.19613 40.046 0.83807 43.414 0.95164 4.9933 2.2788 9.7446 3.8044 13.62 8.9153 22.648 28.857 40.641 54.514 49.189 6.8137 2.2699 15.424 4.1132 22.185 4.7492 1.9559 0.1839 4.2752 0.4064 5.154 0.4944l1.5978 0.1599-5.8517 5.8737-1.4872-0.032c-0.81803-0.017-2.7533-0.2161-4.3006-0.4411zm-19.709-19.501c-8.1318-2.9109-14.559-6.365-21.485-11.547-3.5325-2.643-9.76-8.6779-12.613-12.223-6.1863-7.687-10.734-16.689-13.024-25.78-1.9396-7.7012-1.9226-7.2875-1.9301-47.039-4e-3 -19.747-0.13263-37.523-0.28651-39.501-0.89266-11.476-5.2086-20.776-13.465-29.014-6.7662-6.7518-13.538-10.472-23.053-12.664-2.7478-0.6331-2.8113-0.6339-63.204-0.81-65.376-0.1906-61.609-0.096-69.061-1.7318-9.3979-2.0627-18.862-6.6086-26.661-12.806-11.088-8.8115-19.27-21.553-22.812-35.529-1.4935-5.8919-1.7567-8.284-1.7615-16.013-5e-3 -8.1506 0.46414-11.815 2.3528-18.373 5.7075-19.82 20.293-35.704 39.857-43.404 12.394-4.878 28.044-5.6057 41.321-1.9214 22.34 6.1994 39.837 23.772 45.978 46.179 2.102 7.6698 2.2633 9.6463 2.4153 29.608 0.0748 9.8273 0.0539 18.195-0.0466 18.596-0.1786 0.7115-0.24802 0.7277-3.121 0.7277h-2.9383l-0.1148-19.04c-0.0983-16.302-0.18754-19.445-0.62054-21.855-2.2767-12.674-7.691-23.377-16.315-32.251-8.7904-9.0458-19.116-14.652-31.822-17.277-4.2281-0.8736-14.659-1.1039-19.326-0.4267-10.991 1.5945-20.799 5.8405-29.341 12.703-21.828 17.534-28.581 47.815-16.279 72.99 9.0175 18.452 26.931 31 47.546 33.304 1.6958 0.1895 23.527 0.2989 59.947 0.3005 38.568 0 58.22 0.1057 60.158 0.3186 22.992 2.526 40.923 18.956 45.741 41.913l0.68416 3.2598 0.1915 40.006c0.10533 22.003 0.28438 40.473 0.39789 41.043 0.11351 0.5705 0.4715 2.4374 0.79553 4.1488 4.1184 21.751 21.798 40.885 45.023 48.726 2.2089 0.7457 4.2092 1.358 4.4451 1.3605 0.23589 0 0.62893 0.1317 0.87341 0.2871 0.35954 0.2285-7e-3 0.7375-1.9193 2.6625-1.3001 1.309-2.5003 2.3729-2.6671 2.3642-0.16681-0.01-1.9036-0.5887-3.8594-1.2888zm-143.44-85.883c-0.0798-0.2097-0.11087-16.25-0.0689-35.646l0.0763-35.265h5.9268v71.122l-2.8945 0.085c-2.1496 0.063-2.9319-0.013-3.0397-0.2963zm13.822-19.009c-0.24377-0.2937-0.31377-7.3738-0.25854-26.152l0.0757-25.75h6.5195l0.0757 25.75c0.0552 18.778-0.0148 25.858-0.25854 26.152-0.23768 0.2864-1.1269 0.4028-3.077 0.4028s-2.8393-0.1164-3.077-0.4028zm38.263-123.45c-2.9832-0.7329-5.676-2.1761-7.9526-4.2621-4.822-4.4185-7.0383-9.9661-7.0069-17.539 0.019-4.5683 0.63169-7.3347 2.4286-10.965 3.4521-6.9738 9.4992-10.806 17.055-10.809 4.3122 0 7.294 1.059 11.08 3.9402 1.2043 0.9165 2.3045 1.5955 2.4448 1.5088 0.14033-0.087 0.25515-1.0834 0.25515-2.2147v-2.0569h9.1866v41.8l-9.0384-0.164-0.0882-1.8522c-0.10896-2.2875-0.43879-2.3627-2.735-0.6239-4.5383 3.4366-10.115 4.5916-15.629 3.2369zm11.931-8.7325c4.5719-2.2596 6.9654-6.6485 6.9654-12.772 0-6.1321-2.4136-10.523-7.0421-12.81-2.1626-1.0688-2.3927-1.1179-5.2407-1.1179-2.7176 0-3.149 0.081-4.9203 0.92-3.5078 1.6622-6.2561 5.2538-7.1267 9.3133-0.43472 2.027-0.18343 7.0565 0.45462 9.0991 0.65779 2.1058 2.7096 5.0256 4.4842 6.3808 2.1936 1.6753 4.452 2.3212 7.6294 2.1817 2.2787-0.1 2.8891-0.252 4.7962-1.1945zm97.79 7.8715c-8.7496-3.4537-13.505-12.65-12.295-23.778 1.2972-11.929 8.7051-18.944 20.005-18.944 9.4936 0 16.12 4.7212 18.767 13.372 0.6868 2.2441 1.325 7.1787 1.1835 9.1502l-0.0957 1.3336-30.227 0.2963-0.0981 0.8594c-0.24398 2.1383 1.3365 5.8069 3.4184 7.9349 1.8481 1.8889 4.245 2.9272 7.2298 3.1318 1.2874 0.088 2.3408 0.2394 2.3408 0.3359 0 0.097-1.5648 1.7444-3.4774 3.662-2.1873 2.1929-3.699 3.4827-4.0747 3.4762-0.32852-0.01-1.5329-0.3795-2.6764-0.8308zm17.927-26.941c-0.0178-2.2131-2.7873-5.7539-5.4125-6.9196-1.2531-0.5564-2.078-0.6884-4.3656-0.6986-2.6034-0.012-2.973 0.062-4.8031 0.963-1.176 0.5786-2.4248 1.4829-3.0692 2.2225-1.2682 1.4555-2.622 4.1913-2.3827 4.815 0.14097 0.3674 1.6646 0.4327 10.103 0.4327h9.9368zm-85.797 26.819c-0.0778-0.2037-0.10698-9.5718-0.0648-20.818l0.0767-20.448 9.0384-0.164v41.8h-4.4544c-3.2905 0-4.4914-0.097-4.5959-0.3705zm23.411 0c-0.0778-0.2037-0.10698-9.5718-0.0648-20.818l0.0767-20.448 9.007-0.164 0.0898 1.5401c0.0494 0.8471 0.2442 1.591 0.43286 1.6531 0.18866 0.062 1.0266-0.4942 1.8621-1.2362 0.83549-0.7421 2.2147-1.7159 3.0649-2.1641 1.4191-0.748 1.8132-0.8142 4.8056-0.8064 2.6632 0.01 3.5613 0.1289 4.9074 0.6669 3.1212 1.2476 3.0725 0.9451 0.8713 5.4032-1.0594 2.1457-2.0121 3.9553-2.117 4.0213s-0.91585-0.212-1.8021-0.6177c-2.2602-1.0347-3.9363-1.207-5.9756-0.6141-3.1055 0.9027-5.1028 3.6187-5.7916 7.8753-0.18111 1.1192-0.31263 6.9854-0.31393 14.002l-2e-3 12.076h-4.4544c-3.2905 0-4.4914-0.097-4.5959-0.3705zm-67.862-48.6c-0.0778-0.2037-0.10699-9.4384-0.0648-20.522l0.0767-20.151h5.3342l0.0905 1.0859c0.1148 1.3781 0.69896 1.6033 1.7861 0.6885 0.47049-0.3959 1.5743-1.0904 2.4528-1.5434 1.4486-0.7469 1.8873-0.8236 4.709-0.8236 2.8006 0 3.2956 0.085 4.9524 0.8503 8.3693 3.866 10.088 17.181 3.0584 23.69-2.2975 2.1271-4.3559 2.9387-7.5662 2.9835-2.8209 0.039-4.8964-0.5884-6.8335-2.067-0.72658-0.5546-1.5866-1.0084-1.9112-1.0084-0.5757 0-0.59012 0.21-0.59012 8.594v8.5939h-2.6764c-1.8681 0-2.7191-0.1119-2.8179-0.3705zm16.317-19.15c1.5591-0.7083 2.9422-2.1182 3.9247-4.0008 0.69711-1.3359 0.79322-1.8603 0.79441-4.335 1e-3 -3.1775-0.49858-4.677-2.21-6.6261-1.555-1.7711-3.0272-2.3986-5.6273-2.3986-2.6964 0-4.087 0.6335-5.8921 2.6842-1.4359 1.6313-2.1091 3.6079-2.1091 6.1923 0 5.3865 3.235 9.0478 7.9803 9.032 1.241 0 2.3795-0.2029 3.1391-0.548zm18.656 19.162c-0.0803-0.2101-0.11144-9.45-0.0692-20.533l0.0767-20.151h5.3342l0.092 1.1113c0.11728 1.4172 0.46077 1.4115 2.7136-0.045 2.232-1.4426 4.1574-1.918 7.0823-1.7487 4.9999 0.2894 9.0868 3.6678 10.774 8.9061 0.86706 2.6918 0.84469 7.3901-0.0475 9.985-1.6481 4.7934-4.9457 7.7838-9.4926 8.6083-3.1426 0.5699-6.4115-0.2304-8.9971-2.2025-2.0111-1.534-1.9586-1.7331-2.0462 7.7606l-0.0786 8.5198-2.5978 0.086c-1.9112 0.063-2.6364-0.015-2.7438-0.2964zm16.306-19.16c1.4672-0.6682 3.2751-2.6346 4.0902-4.4487 0.47383-1.0546 0.61365-1.9629 0.60761-3.9473-7e-3 -2.2967-0.11204-2.7891-0.96423-4.5202-1.1796-2.3961-2.9048-3.8203-5.2685-4.3493-4.0733-0.9116-8.1485 1.5721-9.2836 5.6581-0.44621 1.6062-0.35233 5.3648 0.17248 6.905 0.59335 1.7414 2.5677 3.9957 4.1151 4.6986 1.6142 0.7333 4.9251 0.7352 6.531 0zm-74.478 5.2923c-3.3093-0.6995-6.3666-2.9376-7.4938-5.4857-0.91278-2.0635-1.182-5.4285-1.0904-13.626l0.0861-7.705h5.3342l0.15334 9.0385c0.16056 9.4633 0.24591 10.089 1.5704 11.511 1.0415 1.1186 2.1272 1.5277 4.055 1.5277 1.9331 0 3.0291-0.4147 4.0377-1.5277 1.4161-1.5627 1.4372-1.7127 1.5928-11.363l0.14817-9.1867h5.3342l0.0836 8.2976c0.0514 5.1032-0.043 9.0591-0.24524 10.275-0.60759 3.6548-3.1643 6.6663-6.6022 7.7766-1.8628 0.6016-5.2526 0.8291-6.9638 0.4674zm101.9-0.039c-4.8822-0.8094-8.6496-4.5687-9.7989-9.778-0.54908-2.4888-0.24327-7.6679 0.57926-9.81 2.0203-5.2614 5.9671-7.9308 11.726-7.9308 7.3959 0 12.114 4.746 12.372 12.446l0.0745 2.2226-9.3096 0.078c-6.575 0.055-9.4325 0.1803-9.7279 0.4255-0.53681 0.4455-0.27465 1.9437 0.66085 3.7767 0.84095 1.6477 2.0138 2.7978 3.4759 3.4086 1.4606 0.6101 4.7377 0.5998 6.0418-0.019 0.99664-0.473 3.9693-3.461 3.9693-3.9898 0-0.1499 0.18245-0.2725 0.40545-0.2725 0.64981 0 4.336 2.1505 4.336 2.5296 0 0.5492-1.5618 2.5438-3.0871 3.9424-2.974 2.7271-7.0106 3.7502-11.717 2.9699zm8.7052-17.03c0.61856-0.2373 0.59133-0.7888-0.10648-2.1566-2.4129-4.7298-9.4686-4.7131-11.9 0.028-0.65543 1.2781-0.71263 1.9027-0.19342 2.1122 0.53443 0.2157 11.642 0.2306 12.2 0.016zm14.693 3.28v-13.199l5.186 0.172 0.0955 0.8324c0.1397 1.2181 0.79672 1.2826 2.0307 0.1991 1.468-1.289 2.7302-1.7724 4.6274-1.7724 1.5655 0 4.2091 0.7026 4.5168 1.2005 0.087 0.1408-0.37799 1.3223-1.0333 2.6257l-1.1915 2.3698-1.1053-0.4619c-0.73129-0.3055-1.6852-0.4198-2.8191-0.3378-2.0162 0.1458-3.175 1.0289-4.1962 3.1977-0.58578 1.244-0.63453 1.9057-0.72613 9.8534l-0.0982 8.5198h-5.2866z"/>
</g>
</g>
</svg>
