<?xml version="1.0" encoding="UTF-8" standalone="no"?>
<!-- Created with Inkscape (http://www.inkscape.org/) -->

<svg
   xmlns:dc="http://purl.org/dc/elements/1.1/"
   xmlns:cc="http://creativecommons.org/ns#"
   xmlns:rdf="http://www.w3.org/1999/02/22-rdf-syntax-ns#"
   xmlns:svg="http://www.w3.org/2000/svg"
   xmlns="http://www.w3.org/2000/svg"
   xmlns:sodipodi="http://sodipodi.sourceforge.net/DTD/sodipodi-0.dtd"
   xmlns:inkscape="http://www.inkscape.org/namespaces/inkscape"
   width="250"
   height="91"
   viewBox="0 0 250 91"
   id="svg2"
   version="1.1"
   inkscape:version="0.92.2 (5c3e80d, 2017-08-06)"
   sodipodi:docname="upperaire.svg">
  <defs
     id="defs4" />
  <sodipodi:namedview
     id="base"
     pagecolor="#ffffff"
     bordercolor="#666666"
     borderopacity="1.0"
     inkscape:pageopacity="0.0"
     inkscape:pageshadow="2"
     inkscape:zoom="3.5828467"
     inkscape:cx="144.23723"
     inkscape:cy="20.322213"
     inkscape:document-units="px"
     inkscape:current-layer="layer1"
     showgrid="false"
     inkscape:window-width="1920"
     inkscape:window-height="1001"
     inkscape:window-x="-9"
     inkscape:window-y="-9"
     inkscape:window-maximized="1"
     units="px" />
  <metadata
     id="metadata7">
    <rdf:RDF>
      <cc:Work
         rdf:about="">
        <dc:format>image/svg+xml</dc:format>
        <dc:type
           rdf:resource="http://purl.org/dc/dcmitype/StillImage" />
        <dc:title></dc:title>
      </cc:Work>
    </rdf:RDF>
  </metadata>
  <g
     inkscape:label="Layer 1"
     inkscape:groupmode="layer"
     id="layer1"
     transform="translate(0,-961.4)"
     style="opacity:1">
    <rect
       style="opacity:0;fill:#ffffff;fill-opacity:0;stroke:none;stroke-width:2.5;stroke-linecap:round;stroke-linejoin:round;stroke-miterlimit:4;stroke-dasharray:none;stroke-dashoffset:0;stroke-opacity:1"
       id="rect4175"
       width="250"
       height="91"
       x="0"
       y="961.4" />
    <g
       id="g851"
       transform="matrix(0.23332334,0,0,0.23332334,135.87182,709.77645)"
       style="fill:#ffffff">
      <path
         style="fill:#ffffff;stroke-width:0.29634264"
         d="m -56.91438,1445.5958 c -35.44164,-5.4333 -64.47713,-26.5393 -76.7241,-55.771 -2.2146,-5.2859 -3.67797,-10.3335 -4.96454,-17.1242 -0.63668,-3.3605 -0.64838,-3.9671 -0.84069,-43.5624 -0.19199,-39.5323 -0.20472,-40.1943 -0.82172,-42.7255 -1.51315,-6.2079 -4.6109,-11.6402 -9.03325,-15.841 -4.32606,-4.1093 -8.47917,-6.3628 -15.03991,-8.1606 -1.02644,-0.2812 -15.22129,-0.4068 -61.63927,-0.5454 -54.99289,-0.1641 -60.60281,-0.2249 -63.67784,-0.6904 -13.1624,-1.9924 -24.01747,-6.0515 -34.3106,-12.83 -8.22243,-5.4149 -16.64994,-13.7909 -22.32266,-22.1862 -6.6172,-9.7931 -11.32692,-22.0756 -12.89723,-33.6349 -1.00988,-7.4339 -0.87421,-17.7781 0.32649,-24.8928 4.492,-26.617 22.46268,-49.485 47.50032,-60.4449 14.10273,-6.1734 31.14276,-8.0639 46.733,-5.185 12.84189,2.3714 25.22479,8.0533 35.68509,16.3741 3.43372,2.7314 9.52177,8.7999 12.25239,12.213 8.7765,10.9702 14.59144,24.0158 16.77557,37.6355 0.95314,5.9436 1.18953,11.5889 1.19441,28.523 l 0.005,15.9284 15.63208,9e-4 c 8.59764,6e-4 17.16565,0.139 19.04001,0.3076 13.70842,1.2331 26.32234,5.6601 37.7678,13.2549 17.09195,11.3416 29.60304,29.6432 33.91357,49.6099 1.69988,7.874 1.60824,5.3962 1.81198,48.9923 0.18482,39.5484 0.19993,40.3497 0.80761,42.8215 1.7888,7.276 4.48739,12.3194 9.2611,17.3082 4.58302,4.7895 9.81847,8.0403 16.0978,9.9952 1.66257,0.5176 3.12087,1.0251 3.24062,1.1277 0.11979,0.1026 -1.03651,1.4357 -2.56955,2.9623 l -2.78732,2.7758 -1.87558,-0.6818 c -6.30933,-2.2933 -11.45206,-5.5719 -16.26355,-10.3682 -6.0924,-6.0729 -9.40139,-11.8005 -11.64476,-20.1556 l -0.91504,-3.408 -0.18712,-40.0062 c -0.16537,-35.3527 -0.24533,-40.4027 -0.68741,-43.4142 -2.07511,-14.1359 -7.31323,-26.2906 -15.94009,-36.9879 -4.58754,-5.6886 -12.4094,-12.5171 -18.66167,-16.2917 -7.99424,-4.8262 -17.41708,-8.367 -25.77029,-9.6835 -1.69355,-0.267 -3.34589,-0.5729 -3.67187,-0.6798 -0.32598,-0.107 -27.99697,-0.2734 -61.4911,-0.3698 -67.48189,-0.1943 -61.69699,-0.015 -68.06313,-2.1034 -10.77076,-3.5323 -19.61359,-12.0158 -23.8081,-22.8405 -2.16274,-5.5813 -2.95319,-13.7087 -1.92986,-19.8428 1.36559,-8.1857 4.95524,-15.1651 10.80796,-21.0141 5.36125,-5.3579 11.85638,-8.8977 19.32758,-10.5336 3.42865,-0.7507 10.23384,-0.8899 13.91616,-0.2846 15.87834,2.6101 28.13894,14.3317 31.71405,30.3199 0.61616,2.7555 0.6513,3.7178 0.76861,21.048 l 0.12294,18.1605 3.31181,-0.084 3.31182,-0.084 v -18.6695 c 0,-16.9681 -0.0494,-18.8992 -0.54174,-21.1885 -3.82024,-17.7632 -16.423,-31.1578 -33.43036,-35.5311 -12.71557,-3.2697 -25.72821,-0.9786 -37.01596,6.5173 -3.59335,2.3862 -9.28204,8.0452 -11.73902,11.6777 -3.52652,5.2138 -5.92466,10.8691 -7.25722,17.1141 -0.87004,4.0774 -0.95209,12.6398 -0.15973,16.669 2.84399,14.4619 11.45227,26.0737 24.1191,32.5345 6.68422,3.4093 11.44117,4.586 20.09181,4.9699 3.25977,0.1446 30.40595,0.2634 60.32484,0.2639 46.2767,9e-4 54.86175,0.066 57.50439,0.437 14.8739,2.0879 27.67335,8.3988 38.17266,18.8215 8.42403,8.3625 14.81559,19.6661 17.60514,31.1351 1.85785,7.6384 1.77658,5.6146 1.97533,49.1929 0.17761,38.9454 0.19586,39.9192 0.79672,42.5252 3.03269,13.153 10.9387,24.0967 23.4818,32.504 9.5667,6.4122 21.15482,10.6484 33.5346,12.259 2.02325,0.2632 3.73934,0.5393 3.81354,0.6135 0.0742,0.074 -1.21373,1.4836 -2.86208,3.132 l -2.99703,2.997 -2.32389,-0.3586 c -1.27815,-0.1973 -3.99081,-0.754 -6.02817,-1.2372 -15.34529,-3.6395 -28.51912,-10.8654 -38.38777,-21.0561 -7.77525,-8.0289 -12.55791,-16.7177 -15.01341,-27.2754 -0.63701,-2.7388 -0.64451,-3.121 -0.83703,-42.6217 -0.17076,-35.0352 -0.25372,-40.2346 -0.68569,-42.9697 -2.0712,-13.1142 -7.41614,-23.9627 -16.33132,-33.1474 -8.85291,-9.1205 -19.47054,-14.805 -32.31654,-17.3018 -3.24437,-0.6306 -3.54669,-0.6344 -64.01001,-0.8188 -60.59913,-0.1847 -60.75848,-0.1868 -64.06028,-0.8236 -21.52173,-4.151 -37.55879,-19.9325 -42.2255,-41.5527 -0.58562,-2.7131 -0.67306,-3.9844 -0.68278,-9.9274 -0.01,-5.9648 0.0738,-7.2353 0.66933,-10.1746 4.29826,-21.2154 20.40627,-37.3302 41.57031,-41.5878 2.91374,-0.5862 4.29529,-0.6818 9.90553,-0.6857 5.63899,0 6.97317,0.087 9.87822,0.6759 9.34536,1.8934 17.83141,6.0579 24.86719,12.2036 7.61653,6.6529 13.58653,16.3253 16.0607,26.021 1.53116,6.0002 1.58624,6.8185 1.76974,26.2903 l 0.17314,18.3732 3.33386,0.084 3.33385,0.084 v -17.9232 c 0,-19.6259 -0.12928,-21.7091 -1.74226,-28.0724 -8.97939,-35.4241 -47.43432,-54.4778 -81.00783,-40.1376 -8.89353,3.7986 -17.60463,10.486 -23.3886,17.955 -15.81919,20.4279 -16.91131,48.3261 -2.72259,69.5479 9.73884,14.5663 25.06518,24.0049 42.47275,26.1567 1.66704,0.2061 21.44028,0.3139 58.82402,0.3209 30.97208,0.01 58.04915,0.1303 60.17127,0.2768 13.32408,0.9199 25.31014,6.553 34.57285,16.2482 6.92518,7.2485 11.67695,16.5965 13.63734,26.8285 0.62232,3.2481 0.63761,4.0585 0.81686,43.3163 0.18082,39.5984 0.1893,40.0396 0.83185,43.2855 0.81588,4.1214 1.87886,7.8172 3.23326,11.2415 7.41181,18.7391 24.35723,33.5122 45.21358,39.4173 1.58914,0.4499 2.88934,0.9757 2.88934,1.1685 0,0.1927 -1.18859,1.5135 -2.64131,2.9351 -3.05834,2.9927 -2.31811,2.9154 -8.02703,0.8384 -4.63026,-1.6846 -12.22892,-5.5014 -16.23749,-8.1562 -14.93454,-9.8907 -25.53081,-24.0564 -29.97692,-40.0747 -0.49471,-1.7823 -1.18972,-4.7742 -1.54447,-6.6486 -0.63572,-3.3589 -0.64781,-3.9851 -0.84147,-43.5623 -0.21925,-44.8041 -0.0729,-41.7873 -2.35844,-48.6314 -2.18003,-6.5283 -5.49789,-12.0945 -10.1207,-16.9791 -7.66323,-8.0973 -17.77209,-13.0192 -28.97964,-14.1099 -1.64852,-0.1605 -26.91413,-0.2801 -60.09733,-0.2845 -60.84061,-0.01 -60.03642,0.01 -66.32184,-1.3833 -24.71499,-5.4734 -44.19786,-24.1267 -50.37567,-48.2309 -1.62439,-6.338 -2.05359,-9.8721 -2.05509,-16.9224 -0.002,-10.9177 1.92986,-19.3794 6.63494,-29.0569 8.60759,-17.7042 24.75269,-30.7869 43.70929,-35.4184 5.99603,-1.465 9.48263,-1.8727 16.01463,-1.8727 10.75572,0 19.38112,1.9367 28.74524,6.4544 11.29742,5.4503 19.91338,12.9642 26.85955,23.4241 5.10785,7.6915 8.25969,15.6716 10.09678,25.5638 0.61309,3.3013 0.65859,4.5843 0.81249,22.9076 l 0.16304,19.4104 3.33385,0.084 3.33386,0.084 v -18.5159 c 0,-14.9823 -0.0873,-19.1834 -0.4574,-22.0132 -1.67861,-12.8345 -6.42728,-24.7115 -13.85079,-34.6425 -11.93169,-15.962 -28.73929,-25.9713 -48.8128,-29.069 -4.72762,-0.7296 -15.65185,-0.7266 -20.44764,0.01 -16.72869,2.554 -30.71526,9.7229 -42.38053,21.7226 -11.08254,11.4002 -17.74701,25.0797 -20.19366,41.4496 -0.60357,4.0383 -0.52104,15.7072 0.14147,20.0031 3.23121,20.9519 14.66846,39.0665 31.90943,50.5391 8.76535,5.8327 17.73023,9.4331 28.48693,11.4406 l 3.66624,0.6842 60.60208,0.1763 c 53.18143,0.1547 60.87511,0.2327 62.83192,0.6367 7.82309,1.6155 13.70526,4.423 18.95865,9.0488 6.54507,5.7633 10.47424,12.5023 12.52441,21.4809 0.61732,2.7035 0.63089,3.4148 0.81603,42.7555 0.1853,39.3739 0.1984,40.0591 0.82889,43.3508 1.40568,7.3386 3.27265,13.0514 6.26743,19.1775 3.96694,8.1149 8.30743,14.1029 15.25922,21.0513 13.61399,13.6074 30.74808,22.3301 51.13241,26.0308 3.59763,0.6532 6.23363,0.9765 12.52048,1.5356 1.24838,0.111 2.00031,0.3103 2.00031,0.5303 0,0.1938 -1.3026,1.6501 -2.89464,3.2362 l -2.89465,2.8837 -1.62458,-0.026 c -0.89353,-0.015 -3.22483,-0.2716 -5.18069,-0.5715 z M -247.9788,1195.9802 c 0.0837,-18.0814 -0.0433,-20.0624 -1.57971,-24.6445 -1.71709,-5.1208 -4.19434,-8.9418 -8.4042,-12.9626 -3.06141,-2.9239 -6.00798,-4.8399 -9.79947,-6.3721 -4.32798,-1.749 -5.84697,-2.0035 -11.8537,-1.9861 -5.09772,0.015 -5.66945,0.072 -8.14942,0.825 -6.89492,2.0919 -12.65627,6.0188 -16.76917,11.4297 -1.94864,2.5636 -4.53914,7.8698 -5.29419,10.8442 -3.72942,14.6913 3.04821,29.6075 16.43285,36.1653 3.31909,1.6262 6.3626,2.6088 9.50808,3.0697 0.96411,0.1412 9.4208,0.2392 18.79264,0.2177 l 17.0397,-0.039 z m 14.14027,163.9133 c -0.0796,-0.2091 -0.1104,-20.7834 -0.0685,-45.7206 l 0.0761,-45.3405 h 3.40794 3.40794 v 45.6368 45.6368 l -3.33941,0.084 c -2.50667,0.063 -3.37548,-0.011 -3.48406,-0.2963 z m 310.34965,-11.2528 c -1.20535,-2.4955 -6.30111,-12.9854 -11.32394,-23.311 -7.24155,-14.8868 -9.04684,-18.828 -8.7192,-19.0355 0.50159,-0.3176 10.34535,-0.3529 10.83918,-0.039 0.19265,0.1225 2.84489,5.6547 5.89387,12.2937 3.04898,6.639 5.64598,12.0709 5.77112,12.0709 0.12512,0 2.88549,-6.2343 6.13412,-13.854 3.69995,-8.6783 6.05858,-13.854 6.31343,-13.854 0.25426,0 2.5882,5.0887 6.22355,13.5693 3.19923,7.4632 5.96822,13.7208 6.15332,13.9059 0.25118,0.2512 0.52147,-0.071 1.0655,-1.2711 8.2991,-18.3035 10.32544,-22.661 10.62898,-22.8571 0.19929,-0.1287 2.69432,-0.201 5.54454,-0.1606 4.47211,0.063 5.19462,0.1381 5.273,0.5463 0.10245,0.5334 -21.6817,45.5102 -22.37704,46.201 -0.2595,0.2578 -0.50182,0.32 -0.57692,0.1482 -0.0712,-0.163 -2.70217,-6.2306 -5.84657,-13.4836 -3.30861,-7.6317 -5.87843,-13.1873 -6.10004,-13.1873 -0.22101,0 -2.84053,5.6278 -6.19596,13.3115 -3.19721,7.3212 -5.96976,13.3636 -6.16126,13.4275 -0.20317,0.068 -1.26085,-1.7735 -2.53968,-4.4212 z m -79.44102,2.547 c -10.92595,-1.9742 -17.61594,-11.5353 -16.98352,-24.2721 0.0971,-1.9559 0.38252,-4.4229 0.6342,-5.4823 1.93035,-8.1254 7.01618,-13.6342 14.53451,-15.7433 1.87526,-0.5261 3.11495,-0.6598 6.06166,-0.654 6.65414,0.013 10.68298,1.5336 14.70296,5.5493 4.19084,4.1864 6.14365,9.3518 6.17382,16.3303 l 0.0154,3.5561 -15.55799,0.1482 -15.55799,0.1482 0.0429,1.5838 c 0.0606,2.2377 1.711,5.4965 3.68049,7.2673 3.23215,2.906 8.63827,3.6021 12.5352,1.614 1.42719,-0.7281 3.56791,-2.8807 5.25111,-5.2803 0.68556,-0.9773 1.44153,-1.7769 1.67996,-1.7769 0.59897,0 8.03486,4.2107 8.20117,4.644 0.16231,0.423 -2.16881,3.793 -4.12494,5.9632 -4.96442,5.5077 -12.95261,7.9108 -21.28887,6.4045 z m 14.3225,-29.5481 c 0,-1.1178 -1.42976,-3.6465 -2.72184,-4.8139 -2.05893,-1.8601 -3.51436,-2.3565 -6.90929,-2.3565 -3.48209,0 -4.89244,0.5074 -7.13487,2.5666 -1.35082,1.2405 -3.23855,4.5084 -2.91073,5.0388 0.0842,0.1362 4.54592,0.2477 9.91491,0.2477 h 9.76182 z m 138.27909,29.5456 c -4.37079,-0.7894 -7.8992,-2.6116 -11.35852,-5.8658 -5.02677,-4.7287 -7.19182,-9.9172 -7.19606,-17.2451 -0.003,-4.2099 0.61861,-7.0839 2.23994,-10.3652 2.76964,-5.6053 8.64484,-10.36 14.8609,-12.0267 1.8009,-0.4829 3.18586,-0.6187 6.30815,-0.6187 4.75023,0 7.35455,0.5813 10.92364,2.4381 5.99886,3.121 10.24907,8.3597 11.91763,14.6895 0.81281,3.0835 0.87118,8.4883 0.12624,11.6884 -1.68426,7.2352 -7.20845,13.5202 -14.19511,16.15 -4.11235,1.5479 -9.10877,1.9715 -13.62681,1.1555 z m 7.22516,-9.0257 c 6.96313,-1.1194 11.14947,-7.1546 10.57818,-15.2499 -0.56346,-7.9841 -6.05318,-12.979 -13.7551,-12.5151 -3.49088,0.2103 -5.56306,1.026 -7.7501,3.0508 -3.73549,3.4584 -5.23673,8.8269 -4.04336,14.4592 1.3678,6.4556 5.7975,10.2477 12.30329,10.5322 0.40747,0.018 1.60766,-0.1069 2.66709,-0.2772 z m -226.33363,8.0699 c -0.29455,-0.187 -0.35647,-4.8146 -0.29634,-22.1471 l 0.076,-21.9107 4.70184,-0.082 c 3.21554,-0.056 4.83147,0.026 5.1119,0.2586 0.24665,0.2047 0.41008,0.9164 0.41008,1.7857 0,0.795 0.0724,1.4455 0.16088,1.4455 0.0885,0 0.85955,-0.5275 1.71343,-1.1722 2.08779,-1.5763 4.45015,-2.6183 7.21399,-3.1819 1.92219,-0.392 2.73918,-0.4128 5.0513,-0.1287 6.80922,0.8368 10.8251,4.173 12.70869,10.5578 0.46724,1.5838 0.53656,3.556 0.63444,18.0493 0.0888,13.1541 0.0358,16.3182 -0.27693,16.5166 -0.66986,0.4248 -9.30573,0.3109 -9.66966,-0.1276 -0.21281,-0.2564 -0.34738,-5.1985 -0.40952,-15.0394 -0.0847,-13.4203 -0.13901,-14.7825 -0.64339,-16.1391 -1.215,-3.2682 -2.75533,-4.3209 -6.6339,-4.5337 -4.25598,-0.2336 -6.7735,0.9591 -8.20626,3.8875 -1.43406,2.9311 -1.62144,5.0985 -1.63273,18.886 -0.008,9.4004 -0.10084,12.6999 -0.36595,12.965 -0.40795,0.408 -9.02387,0.5063 -9.64788,0.1102 z m 105.50237,0 c -0.28461,-0.1807 -0.38534,-4.0902 -0.44451,-17.2574 l -0.0765,-17.0237 -2.0744,-0.1481 -2.0744,-0.1482 -0.0822,-4.405 c -0.0543,-2.9128 0.0293,-4.5395 0.24735,-4.8021 0.19254,-0.232 1.08909,-0.4335 2.15661,-0.4846 l 1.82704,-0.088 0.14817,-7.8531 0.14817,-7.8531 4.86749,-0.082 c 3.6956,-0.062 4.92521,0.01 5.10735,0.2964 0.13196,0.2079 0.24196,3.8079 0.24445,8 l 0.004,7.6219 3.77837,0.083 3.77837,0.083 v 4.7415 4.7415 l -3.77837,0.083 -3.77837,0.083 v 16.9715 c 0,12.805 -0.0873,17.0589 -0.35561,17.3272 -0.40628,0.4063 -9.02268,0.5071 -9.64349,0.1129 z m 154.08792,-0.1058 c -0.56894,-0.5689 -0.52265,-43.3047 0.0475,-43.7779 0.28043,-0.2327 1.89636,-0.3144 5.11191,-0.2585 l 4.70183,0.082 0.0928,1.3336 c 0.0511,0.7334 0.20267,1.4451 0.33694,1.5815 0.1343,0.1365 1.08692,-0.431 2.11695,-1.261 2.56076,-2.0635 4.50643,-2.773 7.67714,-2.7993 2.59108,-0.022 3.6516,0.222 6.59363,1.5147 1.20315,0.5286 1.70397,0.9121 1.70397,1.3048 0,0.7011 -4.0617,8.8459 -4.4113,8.8459 -0.14221,0 -1.04147,-0.365 -1.99836,-0.8111 -4.02208,-1.8751 -8.37935,-0.6165 -10.21407,2.9505 -1.46559,2.8494 -1.54913,3.7198 -1.72848,18.0119 l -0.16921,13.4836 -4.74927,0.081 c -3.44339,0.059 -4.849,-0.019 -5.11192,-0.2815 z m 63.24659,-0.094 c -0.2436,-0.2436 -3.5278,-4.3776 -7.298,-9.1866 -3.7702,-4.8089 -6.9489,-8.7435 -7.0638,-8.7435 -0.1148,0 -2.67308,2.4671 -5.68505,5.4823 -3.01197,3.0153 -5.64438,5.4824 -5.84977,5.4824 -0.53312,0 -0.55082,-68.4556 -0.0178,-68.9886 0.49711,-0.4971 9.16365,-0.4971 9.66082,0 0.2703,0.2704 0.3556,5.7754 0.3556,22.9666 0,17.6202 0.08,22.6109 0.3623,22.6109 0.1992,0 3.4422,-3.0698 7.2067,-6.8218 l 6.8444,-6.8218 6.4992,0.08 c 4.682,0.058 6.4991,0.176 6.4991,0.4233 0,0.1889 -4.1007,4.3031 -9.1126,9.1428 -5.0119,4.8396 -9.1125,8.9402 -9.1125,9.1122 0,0.1721 4.4467,5.8594 9.8815,12.6385 5.4347,6.7791 9.9767,12.4923 10.0931,12.696 0.3429,0.6001 -12.6616,0.5289 -13.2631,-0.073 z m -473.31441,-9.7066 c -0.0776,-0.2037 -0.10672,-16.3729 -0.0648,-35.9315 l 0.0762,-35.5612 h 3.40794 3.40794 l 0.0753,35.9316 0.0753,35.9315 h -3.41843 c -2.46196,0 -3.45789,-0.1036 -3.55947,-0.3704 z m 14.25709,-19.0612 c -0.41616,-0.4161 -0.46568,-3.187 -0.46568,-26.0539 0,-14.0735 0.0809,-25.7992 0.17987,-26.057 0.26726,-0.6964 6.78156,-0.6964 7.04882,0 0.0989,0.2578 0.17987,11.9835 0.17987,26.057 0,22.8669 -0.0495,25.6378 -0.46568,26.0539 -0.35699,0.357 -1.11289,0.4657 -3.2386,0.4657 -2.12571,0 -2.88161,-0.1087 -3.2386,-0.4657 z m -42.178,-32.493 0.0762,-19.9385 3.3258,-0.084 c 3.24924,-0.082 3.32956,-0.068 3.48971,0.5927 0.0901,0.372 0.12712,9.3444 0.0822,19.9387 l -0.0818,19.2623 -3.48411,0.083 -3.48412,0.083 z m 182.16409,-2.0166 c -4.87956,-0.7516 -9.17261,-3.8587 -11.24428,-8.1382 -0.34228,-0.7071 -0.83573,-2.3308 -1.09656,-3.6084 -1.49201,-7.3079 2.73772,-14.4948 10.01836,-17.0226 2.69099,-0.9343 7.3254,-0.9303 10.04203,0.01 2.99173,1.034 2.96343,0.9829 2.96343,5.3529 0,2.0664 -0.088,3.8451 -0.19565,3.9527 -0.1076,0.1077 -0.90763,-0.4777 -1.77781,-1.3007 -2.07271,-1.9602 -3.74083,-2.6856 -6.17596,-2.6856 -3.38898,0 -6.22751,1.8261 -7.6086,4.8948 -0.97297,2.162 -0.9504,5.9405 0.0478,8.002 1.48763,3.0723 4.06669,4.7116 7.41262,4.7116 2.46127,0 4.06241,-0.6906 6.25594,-2.6982 0.91445,-0.8369 1.74791,-1.4364 1.85214,-1.3321 0.10422,0.1042 0.18951,1.8933 0.18951,3.9757 0,3.5897 -0.0346,3.8107 -0.66677,4.2563 -1.82346,1.2855 -6.89634,2.1116 -10.01621,1.6311 z m 26.74019,-0.013 c -6.39763,-1.1244 -10.80163,-7.0136 -10.84371,-14.5006 -0.0273,-4.8547 1.28695,-8.326 4.28876,-11.3278 4.31774,-4.3177 10.60903,-4.9349 15.46529,-1.5171 1.70939,1.2031 1.9983,1.2285 2.00416,0.1762 0.008,-1.4894 0.23625,-1.5845 3.57582,-1.4926 l 3.08736,0.085 v 13.9281 13.9281 l -2.91969,0.085 c -3.23419,0.094 -3.74802,-0.1051 -3.74802,-1.455 0,-0.469 -0.076,-0.8527 -0.16886,-0.8527 -0.0929,0 -0.78044,0.4207 -1.52794,0.935 -2.69275,1.8527 -5.9983,2.5732 -9.21317,2.0082 z m 6.97042,-6.5483 c 2.73228,-1.2803 4.32432,-4.1308 4.35876,-7.8042 0.0522,-5.5746 -2.91015,-9.0754 -7.6796,-9.0754 -3.26244,0 -5.62515,1.5914 -7.07207,4.7634 -0.4772,1.0462 -0.61518,1.9468 -0.61518,4.0157 0,3.0167 0.52678,4.563 2.20612,6.4757 2.1687,2.47 5.63345,3.1096 8.80197,1.6248 z m 46.96839,6.5732 c -5.13476,-0.7845 -9.82957,-4.4608 -11.64686,-9.1201 -1.00532,-2.5775 -1.14211,-7.5518 -0.27812,-10.1133 2.70744,-8.0268 11.2182,-12.1206 19.73144,-9.4912 2.80485,0.8664 2.80272,0.8623 2.80272,5.33 0,2.6826 -0.10185,3.8313 -0.3397,3.8313 -0.18684,0 -0.99132,-0.6096 -1.78777,-1.3545 -1.94967,-1.8237 -3.63942,-2.535 -6.02195,-2.535 -4.20884,0 -7.31321,2.6706 -8.15257,7.0135 -0.63704,3.2961 0.36021,6.4321 2.74428,8.6297 1.57136,1.4484 3.02652,1.9815 5.40829,1.9812 2.30142,-2e-4 4.12636,-0.8134 6.17596,-2.7518 0.87018,-0.823 1.67021,-1.4083 1.77782,-1.3007 0.1076,0.1076 0.19564,1.8995 0.19564,3.9819 0,3.5897 -0.0346,3.8107 -0.66677,4.2563 -1.80209,1.2705 -6.8836,2.11 -9.94241,1.6427 z m 108.27782,-0.023 c -5.17865,-0.7939 -9.3032,-4.6244 -10.68282,-9.9211 -0.57734,-2.2165 -0.59005,-7.4505 -0.0234,-9.5799 1.84743,-6.941 8.05768,-10.9629 15.23187,-9.8644 2.36698,0.3624 5.21601,1.5798 6.61155,2.8252 1.37708,1.2288 2.84451,3.3689 3.48638,5.0845 0.84188,2.2501 1.42849,7.3667 0.91547,7.9849 -0.32035,0.386 -1.74383,0.4504 -9.95116,0.4504 -6.14807,0 -9.64382,0.1075 -9.76292,0.3002 -0.10206,0.1652 0.019,0.9986 0.26866,1.8522 0.92756,3.169 3.52032,5.0835 6.84223,5.0523 2.77418,-0.026 4.44034,-1.0964 6.86309,-4.4087 l 0.63619,-0.8698 1.96487,1.0372 c 1.08067,0.5705 2.30302,1.3047 2.7163,1.6317 l 0.75144,0.5944 -0.87155,1.2977 c -1.20466,1.7937 -3.45926,4.036 -4.91733,4.8905 -2.50021,1.4652 -6.73489,2.1554 -10.07897,1.6427 z m 8.58277,-18.9676 c 0.10766,-0.1742 -0.18572,-0.9337 -0.65193,-1.6877 -2.47295,-4 -9.02428,-3.6607 -11.24081,0.582 -0.22993,0.4402 -0.41805,0.9403 -0.41805,1.1113 0,0.4344 12.04227,0.4289 12.31079,-0.01 z m -144.33618,18.0336 c -0.0783,-0.2095 -0.17594,-5.1149 -0.21698,-10.901 l -0.0746,-10.5202 -1.18537,-0.1482 -1.18537,-0.1481 -0.0842,-3.02 -0.0843,-3.02 1.26965,-0.092 1.26962,-0.092 0.0812,-4.9599 c 0.0947,-5.7794 -0.23088,-5.3473 3.9194,-5.2032 l 2.51892,0.087 0.0718,4.4452 c 0.10019,6.2018 -0.10185,5.7786 2.75942,5.7786 h 2.37549 l -0.0845,3.0376 -0.0845,3.0375 -2.29665,0.087 c -1.26317,0.048 -2.32582,0.1143 -2.36147,0.1482 -0.0357,0.034 -0.13567,4.929 -0.22226,10.8781 l -0.15744,10.8165 -3.04282,0.085 c -2.26966,0.063 -3.07897,-0.012 -3.18512,-0.2963 z m 46.22643,0 c -0.08,-0.2095 -0.11092,-11.1159 -0.0688,-24.2364 l 0.0766,-23.8556 3.18569,-0.084 3.18568,-0.084 v 10.9573 c 0,6.0992 0.11717,11.0296 0.26428,11.1205 0.14538,0.09 1.00724,-0.284 1.91529,-0.8308 3.99832,-2.4077 9.49479,-1.9527 12.61353,1.0441 2.69396,2.5886 3.03597,4.5588 2.92419,16.8462 l -0.0849,9.3348 h -3.1116 -3.1116 l -0.14817,-9.4829 c -0.14141,-9.0508 -0.17828,-9.5441 -0.80866,-10.823 -0.89152,-1.8088 -2.02108,-2.4333 -4.37656,-2.4198 -3.05998,0.018 -4.49754,1.1317 -5.38067,4.1696 -0.36785,1.2653 -0.52204,3.6203 -0.66146,10.103 l -0.18184,8.4531 -3.04282,0.085 c -2.2685,0.063 -3.0798,-0.012 -3.18814,-0.2963 z m 32.8225,0.014 c -0.27871,-0.2787 -0.36415,-3.527 -0.36068,-13.7155 0.003,-7.3426 0.11341,-13.5218 0.2465,-13.7316 0.17792,-0.2804 1.05892,-0.3588 3.32932,-0.2963 l 3.08735,0.085 0.0938,0.815 c 0.11465,0.9963 0.36053,1.0161 1.4393,0.1157 1.67745,-1.4 2.79721,-1.7905 5.13464,-1.7905 2.65846,0 4.35295,0.6608 6.30229,2.4577 l 1.3085,1.2061 1.01018,-0.909 c 2.40541,-2.1645 5.46438,-3.1633 8.53232,-2.7859 3.82798,0.471 6.33338,2.4931 7.4911,6.0463 0.5886,1.8065 0.64778,2.7319 0.77026,12.0446 0.11468,8.7216 0.0724,10.1379 -0.31244,10.4572 -0.30603,0.254 -1.35719,0.3428 -3.36476,0.2842 l -2.91969,-0.085 -0.14817,-9.7793 c -0.13338,-8.8033 -0.20391,-9.8915 -0.70672,-10.9036 -0.68242,-1.3737 -1.79103,-1.9873 -3.59025,-1.9873 -2.25229,0 -3.56989,1.0136 -4.38255,3.3715 -0.18459,0.5356 -0.38984,4.7959 -0.48713,10.1121 l -0.16814,9.1866 -2.91969,0.085 c -1.89825,0.055 -3.0646,-0.035 -3.33385,-0.2585 -0.33783,-0.2804 -0.41447,-1.9896 -0.41583,-9.2718 0,-5.5665 -0.12411,-9.3692 -0.3269,-10.0996 -0.17887,-0.6443 -0.76489,-1.6111 -1.30225,-2.1485 -0.85613,-0.8561 -1.16883,-0.977 -2.52747,-0.977 -2.02488,0 -3.27942,0.7794 -4.183,2.5986 -0.67518,1.3595 -0.70082,1.6852 -0.8449,10.7368 l -0.14862,9.3348 -2.96864,0.084 c -2.05608,0.058 -3.08089,-0.029 -3.33385,-0.2815 z m 80.00291,-0.01 c -0.266,-0.266 -0.35561,-3.6956 -0.35561,-13.6075 0,-7.2886 0.0809,-13.4629 0.17988,-13.7207 0.14808,-0.3859 0.72533,-0.4688 3.26718,-0.4688 h 3.0873 l 0.1778,0.8891 c 0.18966,0.9482 0.70627,1.1467 1.25712,0.483 0.1853,-0.2233 1.16845,-0.7865 2.18475,-1.2516 1.57767,-0.722 2.21614,-0.8446 4.36676,-0.838 3.98694,0.012 6.92861,1.6072 8.44585,4.5799 1.20319,2.3573 1.36724,4.2267 1.27327,14.5109 l -0.088,9.6311 h -3.1116 -3.1116 l -0.15199,-9.4829 c -0.1426,-8.8974 -0.19132,-9.5686 -0.78896,-10.8696 -0.81612,-1.7765 -1.9868,-2.4188 -4.41888,-2.4246 -2.98977,-0.01 -4.77346,1.4954 -5.43445,4.5775 -0.18305,0.8536 -0.31857,4.9203 -0.31857,9.561 0,5.8859 -0.0964,8.172 -0.35561,8.4312 -0.22448,0.2245 -1.35002,0.3556 -3.05233,0.3556 -1.70231,0 -2.82785,-0.1311 -3.05233,-0.3556 z m 32.67785,-0.015 c -0.0761,-0.2038 -0.17193,-5.1045 -0.21298,-10.8906 l -0.0746,-10.5202 -1.18537,-0.1482 -1.18537,-0.1481 v -2.9635 -2.9634 l 1.18537,-0.1482 1.18537,-0.1481 0.0819,-4.7205 c 0.0497,-2.866 0.20949,-4.8743 0.4067,-5.112 0.22635,-0.2727 1.15654,-0.3914 3.06754,-0.3914 1.91099,0 2.84118,0.1187 3.06753,0.3914 0.19721,0.2377 0.35697,2.246 0.4067,5.112 l 0.0819,4.7205 2.21391,0.088 c 1.30987,0.052 2.30638,0.2338 2.4403,0.4445 0.37419,0.5886 0.2756,5.0871 -0.12017,5.4828 -0.21165,0.2117 -1.23148,0.3556 -2.51891,0.3556 h -2.1633 v 10.6091 c 0,7.8564 -0.0923,10.7013 -0.35562,10.9647 -0.50307,0.503 -6.13239,0.4898 -6.32084,-0.015 z m -345.62878,-87.4984 c -2.67836,-0.4851 -6.50397,-2.2802 -8.49194,-3.9846 -3.23795,-2.776 -5.73503,-6.7092 -6.97461,-10.9856 -0.91265,-3.1486 -1.1342,-9.3667 -0.45344,-12.7264 2.07689,-10.2499 9.97476,-17.183 19.5781,-17.1866 3.98214,0 7.55103,1.2592 11.03914,3.8993 1.06302,0.8046 2.04056,1.3544 2.17233,1.2219 0.13177,-0.1326 0.28023,-1.0412 0.32993,-2.0191 l 0.0904,-1.7781 4.71918,-0.082 c 3.57689,-0.062 4.77727,0.01 4.9592,0.2963 0.13201,0.208 0.24206,9.73 0.24456,21.16 0.004,17.3454 -0.0633,20.8381 -0.40578,21.1223 -0.27987,0.2323 -1.85792,0.3145 -4.96374,0.2586 l -4.55342,-0.082 -0.14983,-1.681 c -0.0824,-0.9245 -0.24007,-1.7711 -0.35035,-1.8814 -0.11028,-0.1103 -1.08058,0.4275 -2.15622,1.195 -4.50921,3.2177 -9.14256,4.2478 -14.63347,3.2532 z m 9.32355,-9.1772 c 10.31858,-3.0643 11.26339,-20.6871 1.36956,-25.5455 -1.55246,-0.7624 -1.9852,-0.8352 -4.96061,-0.8352 -2.99118,0 -3.39406,0.069 -4.88965,0.8345 -5.00119,2.5605 -7.71553,8.3801 -6.82785,14.639 0.74955,5.2851 3.49117,9.1445 7.65123,10.7708 1.74755,0.6831 5.58587,0.7515 7.65732,0.1364 z m 100.56501,8.476 c -7.27263,-2.3277 -12.2424,-8.4278 -13.65118,-16.7559 -0.51557,-3.0478 -0.18479,-9.8264 0.61535,-12.6104 1.04934,-3.6509 2.80233,-6.6755 5.33079,-9.1977 3.6431,-3.634 7.48658,-5.2472 13.20157,-5.541 10.39796,-0.5346 18.20333,5.0099 20.73738,14.7306 0.29024,1.1134 0.56868,3.6457 0.65987,6.001 l 0.15777,4.0747 h -14.96702 c -11.92747,0 -15.03201,0.078 -15.28708,0.3856 -0.39259,0.4731 0.2583,3.5247 1.10486,5.1801 0.95849,1.8743 2.91832,3.8361 4.70589,4.7107 1.43848,0.7037 2.14194,0.8434 4.73096,0.9392 1.67268,0.062 3.04122,0.1993 3.04122,0.3052 0,0.3245 -8.13727,8.3352 -8.44959,8.3182 -0.16088,-0.01 -1.02973,-0.2519 -1.93079,-0.5403 z m 16.27028,-27.5672 c 0.33442,-0.2118 0.27586,-0.5458 -0.3263,-1.8611 -0.97527,-2.1303 -2.36603,-3.663 -4.20339,-4.6325 -1.3595,-0.7174 -1.81551,-0.7959 -4.61998,-0.7959 -2.83123,0 -3.25269,0.074 -4.67759,0.8251 -1.99539,1.0513 -3.59096,2.6971 -4.50331,4.645 -0.6102,1.3028 -0.65344,1.5741 -0.28781,1.8053 0.54791,0.3467 18.07246,0.3599 18.61838,0.014 z m -85.4698,27.1603 c -0.0778,-0.2037 -0.10696,-9.8386 -0.0648,-21.4107 l 0.0767,-21.0404 4.71918,-0.082 c 3.57689,-0.062 4.77727,0.01 4.9592,0.2963 0.13201,0.208 0.24206,9.7197 0.24456,21.137 0.003,15.7558 -0.0812,20.8445 -0.35108,21.1144 -0.51363,0.5137 -9.38718,0.4999 -9.58376,-0.015 z m 23.41107,0 c -0.0778,-0.2037 -0.10696,-9.8386 -0.0648,-21.4107 l 0.0767,-21.0404 4.71918,-0.082 c 5.21543,-0.091 5.19607,-0.097 5.20376,1.7858 0.002,0.6112 0.107,1.1113 0.23222,1.1113 0.12523,0 0.89202,-0.5531 1.70397,-1.2291 2.98212,-2.4828 6.47325,-3.3794 10.27767,-2.6396 1.99345,0.3877 5.57123,1.9328 5.57123,2.4061 0,0.4324 -4.08849,8.5026 -4.40745,8.6997 -0.15306,0.095 -0.98537,-0.1949 -1.84958,-0.6432 -1.31182,-0.6806 -1.94417,-0.8152 -3.82947,-0.8152 -1.99348,0 -2.42598,0.1042 -3.68949,0.889 -1.69699,1.054 -3.15829,3.4417 -3.67201,5.9997 -0.21438,1.0674 -0.33255,6.0928 -0.33255,14.1417 0,9.3162 -0.0903,12.5762 -0.35562,12.8415 -0.51363,0.5137 -9.38718,0.4999 -9.58376,-0.015 z m -67.80118,-48.4273 c -0.10866,-0.1087 -0.19756,-9.5813 -0.19756,-21.0503 v -20.8528 l 3.18568,0.084 3.18568,0.084 0.0929,0.9631 c 0.10843,1.1247 0.29757,1.1759 1.33333,0.3612 2.42223,-1.9054 6.61372,-2.7957 9.71928,-2.0644 6.19847,1.4594 10.06719,6.843 10.1148,14.0755 0.0315,4.7783 -1.0287,7.6297 -3.97925,10.7024 -2.36921,2.4673 -4.51695,3.4399 -7.97536,3.6118 -3.10681,0.1544 -5.14243,-0.3678 -7.23586,-1.8562 -0.81137,-0.5768 -1.57567,-1.0488 -1.69843,-1.0488 -0.12276,0 -0.2232,3.7072 -0.2232,8.2383 0,6.0125 -0.0961,8.3344 -0.35562,8.5939 -0.37849,0.3785 -5.6074,0.517 -5.96636,0.1581 z m 16.62431,-20.5109 c 1.53941,-0.7853 3.17489,-2.7089 3.75786,-4.4198 0.52489,-1.5405 0.60257,-4.7238 0.15462,-6.3366 -1.77802,-6.4016 -10.14104,-7.5985 -13.45721,-1.9259 -2.10319,3.5976 -1.1692,9.6507 1.84372,11.9487 2.16743,1.6532 5.31145,1.9527 7.70101,0.7336 z m 18.35414,20.5209 c -0.11417,-0.1142 -0.20758,-9.5868 -0.20758,-21.0503 v -20.8428 h 3.1116 3.1116 v 0.8716 c 0,0.4793 0.11893,0.945 0.26429,1.0349 0.14536,0.09 1.0455,-0.3078 2.00031,-0.8836 4.89306,-2.9508 10.3925,-2.4305 14.45239,1.3673 3.14387,2.941 4.61968,6.5322 4.61968,11.2416 0,4.5507 -1.46478,8.2599 -4.33324,10.9728 -2.32417,2.1981 -4.37152,3.0469 -7.71205,3.1975 -3.17913,0.1433 -4.9156,-0.3168 -7.24598,-1.9198 -0.82798,-0.5696 -1.59358,-0.9476 -1.70133,-0.8402 -0.10774,0.1075 -0.26258,3.9518 -0.34407,8.5429 l -0.14818,8.3475 -2.82993,0.084 c -1.55647,0.046 -2.92335,-0.01 -3.03751,-0.1235 z m 16.73141,-20.6012 c 2.69912,-1.4929 4.31903,-4.9392 4.01117,-8.5337 -0.20581,-2.4029 -0.78625,-3.8198 -2.21322,-5.4025 -1.3791,-1.5296 -3.03979,-2.3034 -4.95701,-2.3097 -2.47248,-0.01 -3.70855,0.4939 -5.34038,2.1689 -1.54563,1.5865 -2.10266,2.8504 -2.41375,5.4771 -0.34339,2.8993 1.10577,6.6021 3.17796,8.1201 2.13082,1.561 5.41248,1.7645 7.73523,0.4798 z m -76.24807,6.1154 c -1.91026,-0.6095 -4.05777,-2.1545 -5.34092,-3.8424 -1.86968,-2.4595 -2.0271,-3.5603 -2.0271,-14.1754 v -9.3895 h 3.0799 3.0799 l 0.10772,8.9644 c 0.10644,8.8587 0.11643,8.9818 0.84664,10.4461 1.00277,2.0108 2.69948,2.9249 5.01846,2.7038 1.92167,-0.1833 2.86857,-0.815 3.86989,-2.5819 0.73914,-1.3043 0.74108,-1.3284 0.83762,-10.4296 l 0.0968,-9.1224 3.163,0.084 3.163,0.084 0.0808,7.5568 c 0.0952,8.911 -0.1941,12.208 -1.26309,14.3929 -0.94052,1.9224 -2.93672,3.7928 -5.13714,4.8136 -1.44411,0.6699 -2.14248,0.7911 -4.94156,0.8572 -2.25087,0.053 -3.68505,-0.059 -4.63386,-0.3614 z m 101.58723,-0.1656 c -2.2435,-0.7717 -3.61248,-1.6549 -5.14269,-3.3177 -2.37575,-2.5816 -3.64064,-6.1589 -3.63922,-10.2922 0.003,-8.7498 5.24028,-14.5208 13.17773,-14.5208 7.80055,0 13.22916,5.8901 12.83676,13.9281 l -0.094,1.9262 -9.41978,0.078 c -10.58937,0.088 -10.08951,-0.037 -9.28358,2.3279 0.95127,2.7918 2.92295,4.4197 5.75864,4.7544 2.75968,0.3258 4.97007,-0.8434 6.90132,-3.6504 0.48724,-0.7082 1.06095,-1.2876 1.27492,-1.2876 0.78997,0 4.90388,2.5203 4.91026,3.0082 0.011,0.8438 -2.64313,4.0589 -4.37402,5.2983 -2.33281,1.6705 -4.78663,2.3642 -8.31945,2.3519 -2.06854,-0.01 -3.3357,-0.1742 -4.58686,-0.6046 z m 10.47084,-18.0106 c 0,-1.0099 -1.75168,-3.0295 -3.17291,-3.6582 -1.93039,-0.8539 -4.63129,-0.6612 -6.22641,0.4442 -1.08108,0.7492 -2.45438,2.6696 -2.45438,3.4322 0,0.2315 1.76932,0.33 5.92685,0.33 5.56906,0 5.92685,-0.033 5.92685,-0.5482 z m 14.59179,17.7863 c -0.2933,-0.1862 -0.35694,-3.0969 -0.29634,-13.5532 l 0.0772,-13.316 h 3.1116 c 3.00121,0 3.11495,0.024 3.20631,0.6668 0.1244,0.876 0.45693,0.8413 1.77479,-0.1857 1.34644,-1.0491 2.70772,-1.5183 4.40532,-1.5183 1.30515,0 4.39852,0.9237 4.95413,1.4793 0.20092,0.2009 -0.0848,1.0911 -0.87175,2.7162 -1.59503,3.2938 -1.61622,3.3103 -3.29174,2.5692 -2.49648,-1.1043 -4.61062,-0.3497 -6.02826,2.1518 -0.73603,1.2988 -0.74148,1.3632 -0.83581,9.896 -0.0601,5.4332 -0.20948,8.7268 -0.4067,8.9644 -0.35114,0.4231 -5.16683,0.5306 -5.79872,0.1295 z"
         id="path840"
         inkscape:connector-curvature="0" />
      <path
         style="fill:#ffffff;stroke-width:0.29634264"
         d="m -56.17157,1445.4243 c -31.37296,-4.5639 -58.11086,-21.6266 -72.48345,-46.255 -4.74287,-8.1272 -7.72732,-16.3118 -9.65166,-26.4687 -0.63667,-3.3605 -0.64838,-3.9671 -0.84068,-43.5624 -0.19212,-39.5562 -0.20438,-40.1928 -0.82289,-42.7309 -2.97891,-12.2238 -11.36775,-20.6998 -23.92383,-24.1722 -1.61941,-0.4478 -7.15869,-0.5075 -62.08378,-0.6687 -66.06799,-0.1939 -61.7306,-0.075 -70.55766,-1.9385 -24.70519,-5.2162 -46.0582,-22.6727 -56.3451,-46.0634 -5.07142,-11.5315 -7.66243,-25.4879 -6.80822,-36.6724 1.27977,-16.7565 6.48823,-31.0156 16.00683,-43.8216 3.23735,-4.3554 10.6184,-11.9419 14.57691,-14.9826 14.14549,-10.8659 29.70053,-16.4913 47.12644,-17.0433 14.07697,-0.4458 27.01915,2.4541 39.34789,8.8168 22.65449,11.6915 38.38123,33.3352 42.42028,58.3801 0.95943,5.9491 1.20671,11.9059 1.19255,28.7279 l -0.0133,15.8543 17.86495,0.1819 c 17.55185,0.1787 19.10251,0.2609 24.829,1.317 32.32052,5.9603 57.80767,31.2719 64.13818,63.6965 1.30927,6.706 1.35342,8.2304 1.35597,46.8203 0.001,22.9931 0.11545,37.7466 0.30437,39.4154 0.91351,8.0693 4.56696,15.6483 10.36154,21.4946 4.74922,4.7916 10.36972,8.0804 16.96562,9.9272 0.93718,0.2624 1.70397,0.5773 1.70397,0.6998 0,0.1225 -1.11947,1.3155 -2.48771,2.651 l -2.48771,2.4282 -2.17969,-0.78 c -12.24749,-4.3829 -22.11528,-14.3883 -26.27499,-26.6415 -2.06225,-6.0748 -1.91905,-2.9301 -2.1389,-46.9703 -0.21428,-42.9265 -0.17744,-41.9203 -1.81095,-49.4599 -2.92699,-13.5097 -9.43409,-25.5957 -19.22151,-35.7012 -11.29608,-11.6632 -24.89824,-18.7299 -41.81225,-21.7225 -2.51375,-0.4448 -8.74983,-0.5126 -63.53756,-0.6911 -44.05739,-0.1435 -61.2071,-0.2918 -62.41288,-0.5399 -3.75147,-0.7718 -7.12461,-1.9275 -10.48741,-3.5932 -11.03352,-5.465 -18.62838,-15.6082 -20.73045,-27.6862 -0.58642,-3.3694 -0.58713,-9.4373 -10e-4,-12.8132 2.73323,-15.7557 14.32799,-27.7315 30.15811,-31.1493 3.00736,-0.6493 11.82667,-0.7247 14.57758,-0.1246 5.44984,1.1888 9.86092,3.0029 13.99715,5.7565 8.71156,5.7995 14.57174,14.6547 16.58408,25.0597 0.41703,2.1563 0.52329,5.4374 0.6638,20.4961 l 0.16729,17.9287 10.76168,0.042 10.76168,0.042 -0.11443,-19.1564 c -0.0981,-16.4156 -0.18682,-19.5592 -0.62032,-21.9717 -2.27767,-12.6754 -7.69121,-23.3769 -16.31469,-32.2508 -8.79044,-9.0458 -19.11617,-14.652 -31.82157,-17.2772 -4.22807,-0.8736 -14.65862,-1.1039 -19.32632,-0.4267 -10.99118,1.5945 -20.79879,5.8405 -29.34135,12.7027 -21.82781,17.5341 -28.58132,47.8152 -16.2787,72.9897 9.01751,18.4523 26.93148,31.0001 47.54627,33.3036 1.69579,0.1895 23.52737,0.2989 59.94698,0.3005 38.5679,0 58.21997,0.1057 60.15756,0.3186 22.99168,2.526 40.92271,18.9563 45.74079,41.9126 l 0.68416,3.2598 0.1915,40.0063 c 0.10533,22.0034 0.28438,40.473 0.39789,41.0434 0.11351,0.5705 0.4715,2.4374 0.79553,4.1488 3.10876,16.419 14.24555,31.9222 29.90613,41.6314 5.31691,3.2964 14.05424,7.0891 19.47271,8.4528 0.69271,0.1743 1.25946,0.4149 1.25946,0.5347 0,0.1198 -1.05236,1.264 -2.33857,2.5427 l -2.33858,2.3248 -2.9215,-0.9672 c -5.76465,-1.9086 -12.49035,-5.1366 -17.73865,-8.5138 -6.00406,-3.8635 -13.15898,-10.2668 -17.50249,-15.664 -6.18626,-7.687 -10.73393,-16.6892 -13.02368,-25.7805 -1.9396,-7.7012 -1.92263,-7.2875 -1.93007,-47.0391 -0.004,-19.7474 -0.13263,-37.523 -0.28651,-39.5013 -0.89266,-11.4758 -5.20863,-20.7761 -13.4647,-29.0145 -6.76619,-6.7518 -13.53849,-10.4721 -23.05321,-12.6643 -2.74784,-0.6331 -2.81132,-0.6339 -63.2045,-0.81 -65.37625,-0.1906 -61.60913,-0.096 -69.06127,-1.7318 -9.39788,-2.0627 -18.86162,-6.6086 -26.66096,-12.8064 -11.08834,-8.8115 -19.26959,-21.5534 -22.81219,-35.5289 -1.49353,-5.8919 -1.75666,-8.284 -1.76146,-16.0129 -0.005,-8.1506 0.46414,-11.8146 2.35277,-18.3733 5.70752,-19.8203 20.29299,-35.7037 39.85682,-43.4037 12.3941,-4.878 28.04377,-5.6057 41.32066,-1.9214 22.3402,6.1994 39.83654,23.7725 45.9775,46.179 2.13647,7.7954 2.2747,9.5433 2.40479,30.4103 l 0.11639,18.6696 h 3.69928 3.69928 l -0.013,-18.567 c -0.01,-14.158 -0.11256,-19.3654 -0.43222,-21.9293 -1.49861,-12.0201 -5.6292,-22.9568 -12.37001,-32.7525 -11.95044,-17.3662 -30.24734,-28.5758 -51.50863,-31.5567 -4.18818,-0.5871 -15.28325,-0.5031 -19.55861,0.1483 -16.15659,2.4613 -30.50122,9.6473 -41.79031,20.9349 -10.00854,10.0072 -16.929,22.6024 -19.96234,36.3315 -1.46172,6.6158 -2.04261,16.0582 -1.38405,22.498 1.76647,17.2738 8.64864,32.2195 20.45326,44.4173 11.0439,11.4118 24.49818,18.5492 40.64708,21.563 l 3.66624,0.6843 60.60208,0.1763 c 67.38299,0.1961 62.14716,0.028 68.65414,2.2041 12.94472,4.329 22.21785,14.7699 25.33702,28.5276 0.65232,2.8772 0.65534,3.0311 0.84322,42.8938 0.18636,39.5401 0.19613,40.046 0.83807,43.4142 0.95164,4.9933 2.27879,9.7446 3.80435,13.6199 8.91533,22.6477 28.85692,40.6412 54.51405,49.1886 6.81366,2.2699 15.42433,4.1132 22.18485,4.7492 1.95586,0.1839 4.27516,0.4064 5.15396,0.4944 l 1.59785,0.1599 -2.92582,2.9368 -2.92585,2.9369 -1.48725,-0.032 c -0.81803,-0.017 -2.75326,-0.2161 -4.30059,-0.4411 z m -191.49857,-248.8995 c 0.11439,-20.9724 -0.0871,-22.7384 -3.34733,-29.3379 -4.38881,-8.884 -12.40655,-15.0947 -22.07887,-17.1029 -3.78679,-0.7862 -10.7955,-0.6149 -14.37262,0.3513 -2.9405,0.7943 -7.91544,3.1339 -10.33492,4.8604 -9.23931,6.5931 -14.35303,17.7935 -13.20986,28.9334 1.46489,14.275 12.09629,25.7402 26.21186,28.2675 1.90248,0.3406 5.79489,0.4148 19.70679,0.3758 l 17.33604,-0.049 z m 315.2959,133.1423 c -6.12419,-12.5944 -11.07252,-22.9998 -10.99633,-23.1231 0.0762,-0.1233 2.47061,-0.2242 5.32086,-0.2242 h 5.18229 l 0.45258,0.8149 c 0.24892,0.4483 2.76917,5.8824 5.60052,12.076 4.58691,10.0338 5.7195,12.1813 6.16795,11.6951 0.0698,-0.076 2.73815,-6.272 5.92955,-13.7695 3.19141,-7.4975 5.95048,-13.6318 6.13127,-13.6318 0.18077,0 2.95786,6.1334 6.17131,13.6298 3.823,8.9183 6.00372,13.6608 6.30866,13.7195 0.35161,0.068 1.75773,-2.769 5.72783,-11.5553 2.89402,-6.4049 5.44965,-11.9452 5.67923,-12.3119 0.40709,-0.6503 0.54604,-0.6668 5.61717,-0.6668 4.93873,0 5.19504,0.028 5.1051,0.5613 -0.16358,0.9697 -22.00875,45.6466 -22.32041,45.6489 -0.16299,0 -2.89675,-6.0282 -6.07502,-13.3988 -3.89143,-9.0243 -5.92182,-13.401 -6.21695,-13.401 -0.29379,0 -2.36093,4.3926 -6.27159,13.3269 -3.20832,7.3298 -5.95613,13.3678 -6.10625,13.4178 -0.1501,0.05 -5.28362,-10.2135 -11.40777,-22.8078 z m -69.80245,21.3773 c -8.22526,-1.2705 -14.41846,-7.0295 -16.70608,-15.5349 -0.9277,-3.4492 -0.92432,-11.0948 0.007,-14.5207 2.16013,-7.9511 7.01769,-13.0824 14.22074,-15.0223 3.02027,-0.8134 8.75317,-0.8684 11.7512,-0.1128 7.14512,1.8009 12.15512,6.9702 14.09415,14.5424 0.36586,1.4288 0.67732,3.8719 0.78386,6.1491 l 0.17679,3.7784 H 6.86882 c -8.4052,0 -15.49309,0.081 -15.75091,0.1798 -0.64576,0.2478 -0.59965,1.7047 0.12856,4.0623 0.61648,1.996 2.14587,4.3133 3.69966,5.6057 3.3361,2.7749 8.83184,3.2843 12.70296,1.1774 1.53061,-0.8331 4.13576,-3.5081 5.46376,-5.6103 0.43956,-0.6958 0.96477,-1.2653 1.16714,-1.2656 0.65821,-9e-4 7.78149,4.1807 7.78149,4.5681 0,0.7734 -2.96331,4.5563 -5.26595,6.7224 -2.65849,2.501 -5.50857,4.0968 -8.66216,4.8503 -2.42974,0.5806 -7.86825,0.8077 -10.30952,0.4307 z m 13.79946,-28.7962 c 0.5125,-0.627 -0.71919,-3.3208 -2.31855,-5.0708 -2.13462,-2.3356 -3.80291,-2.9996 -7.54275,-3.0024 -2.59792,0 -3.1725,0.096 -4.6586,0.7924 -2.08341,0.9765 -4.09871,2.9991 -5.1026,5.1212 -1.26337,2.6705 -1.7887,2.53 9.46026,2.53 7.52859,0 9.93107,-0.088 10.16224,-0.3704 z m 138.90271,28.8054 c -5.59083,-0.878 -10.79609,-3.8813 -14.24312,-8.2179 -1.927,-2.4243 -3.8531,-6.545 -4.44377,-9.5069 -0.75704,-3.7963 -0.49463,-9.5033 0.58089,-12.6335 4.06638,-11.8349 17.20458,-18.2255 29.48962,-14.3441 5.72546,1.8089 10.56117,5.8809 13.33568,11.2296 2.12837,4.1031 2.93433,8.5836 2.39715,13.3259 -0.92427,8.1588 -5.33085,14.4318 -12.70972,18.0929 -3.71638,1.8438 -10.02089,2.7427 -14.40673,2.054 z m 7.0029,-8.7105 c 6.75439,-1.4316 10.66241,-7.1459 10.24694,-14.983 -0.32201,-6.0741 -3.26653,-10.5866 -8.13668,-12.4697 -2.55436,-0.9877 -6.53436,-1.1216 -9.20689,-0.3099 -5.20218,1.5801 -8.62586,6.1382 -9.12422,12.1475 -0.64958,7.8323 3.41938,14.1558 10.03325,15.5926 2.41715,0.525 3.79312,0.5301 6.1876,0.023 z m -226.90103,7.465 c -0.0778,-0.2038 -0.10695,-10.0386 -0.0648,-21.8553 l 0.0767,-21.4848 4.405,-0.082 c 2.99607,-0.056 4.53631,0.027 4.81555,0.2585 0.24718,0.2051 0.41059,0.916 0.41059,1.7862 0,1.7947 0.25841,1.8199 2.37234,0.2315 3.22687,-2.4246 5.94694,-3.3411 9.92588,-3.3443 8.27151,-0.01 13.48993,4.2601 14.81686,12.1149 0.37005,2.1906 0.43681,5.3408 0.37357,17.6324 l -0.077,14.9653 h -4.74148 -4.74148 l -0.16009,-14.8171 c -0.18225,-16.8665 -0.19496,-16.9658 -2.46231,-19.2332 -1.61779,-1.6178 -3.19327,-2.0685 -6.65209,-1.9032 -2.16849,0.1037 -2.85446,0.2624 -3.9763,0.9198 -1.75277,1.0272 -2.70851,2.1865 -3.46134,4.1986 -1.06529,2.8473 -1.21207,4.9998 -1.21435,17.8109 -0.003,9.2943 -0.0926,12.5516 -0.35786,12.8168 -0.513,0.513 -9.09109,0.4993 -9.28741,-0.015 z m 105.50035,0 c -0.0765,-0.2038 -0.17232,-7.9716 -0.21295,-17.262 l -0.0739,-16.8915 -2.0744,-0.1482 -2.07439,-0.1482 v -4.4451 -4.4451 l 2.07439,-0.1482 2.0744,-0.1482 0.079,-7.9345 0.0789,-7.9344 4.81071,0.081 4.81071,0.081 0.14817,7.853 0.14817,7.8531 3.70429,0.1482 3.70428,0.1482 0.0818,4.5103 0.0818,4.5103 -3.78604,0.083 -3.78605,0.083 -0.0765,16.8641 c -0.0538,11.8548 -0.17464,16.9823 -0.40673,17.262 -0.45865,0.5526 -9.09879,0.5781 -9.30555,0.027 z m 154.32248,0.022 c -0.5696,-0.5696 -0.52316,-42.7122 0.0476,-43.1859 0.27924,-0.2318 1.81948,-0.3145 4.81556,-0.2585 l 4.40499,0.082 0.15469,1.5376 c 0.0851,0.8457 0.24543,1.6284 0.35638,1.7393 0.11092,0.1109 1.19897,-0.6006 2.41783,-1.5811 2.7409,-2.2049 4.5269,-2.8624 7.73943,-2.849 3.21719,0.013 7.85308,1.5749 7.85308,2.6451 0,0.5553 -3.72757,8.027 -4.12805,8.2746 -0.16219,0.1002 -0.98495,-0.1675 -1.82837,-0.5949 -4.12494,-2.0903 -8.67289,-0.721 -10.68645,3.2174 -1.46076,2.8571 -1.51431,3.4138 -1.70162,17.6897 l -0.17692,13.4836 -4.45261,0.082 c -3.21232,0.059 -4.55369,-0.02 -4.81557,-0.2815 z m 63.10212,-0.1703 c -0.3359,-0.2852 -3.6342,-4.3859 -7.3297,-9.1125 -3.6956,-4.7267 -6.9156,-8.6396 -7.1557,-8.6953 -0.2508,-0.058 -2.72989,2.18 -5.82644,5.2601 -2.96443,2.9488 -5.48589,5.3614 -5.60321,5.3614 -0.11736,0 -0.17944,-15.3691 -0.13801,-34.1535 l 0.0753,-34.1535 h 4.74148 4.74148 l 0.076,22.8054 c 0.048,14.4665 0.1826,22.9122 0.3677,23.0972 0.1915,0.1915 2.7189,-2.1215 7.3525,-6.7288 l 7.0608,-7.0206 h 6.1117 c 3.3614,0 6.1856,0.1196 6.276,0.2658 0.09,0.1462 -3.8024,4.0968 -8.6506,8.7792 -4.8481,4.6824 -8.9335,8.7597 -9.0786,9.0608 -0.1761,0.3653 -0.1269,0.7417 0.1481,1.1318 0.2267,0.3214 4.6461,5.8452 9.821,12.2751 5.1748,6.4298 9.4088,11.8381 9.4088,12.0183 0,0.2284 -1.7862,0.3277 -5.894,0.3277 -5.1832,0 -5.9676,-0.062 -6.5046,-0.5186 z m -472.86979,-9.6203 c -0.0798,-0.2097 -0.11087,-16.2504 -0.0689,-35.646 l 0.0763,-35.2648 h 2.96343 2.96342 v 35.5611 35.5611 l -2.8945,0.085 c -2.14958,0.063 -2.93186,-0.013 -3.03969,-0.2963 z m 13.82191,-19.0091 c -0.24377,-0.2937 -0.31377,-7.3738 -0.25854,-26.1522 l 0.0757,-25.7495 h 3.25977 3.25977 l 0.0757,25.7495 c 0.0552,18.7784 -0.0148,25.8585 -0.25854,26.1522 -0.23768,0.2864 -1.12687,0.4028 -3.07696,0.4028 -1.95009,0 -2.83928,-0.1164 -3.07696,-0.4028 z m -42.11529,-32.3431 v -19.7268 l 3.18568,0.084 3.18568,0.084 v 19.5586 19.5586 l -3.18568,0.084 -3.18568,0.084 z m 182.10256,-2.2225 c -9.09488,-1.2551 -14.69102,-10.4367 -11.6855,-19.1724 2.61913,-7.6127 11.3183,-11.6173 19.3904,-8.9264 0.97793,0.326 1.94475,0.7303 2.14849,0.8984 0.41689,0.3441 0.54657,7.6417 0.13578,7.6417 -0.12905,0 -0.81598,-0.5923 -1.52652,-1.3163 -4.25927,-4.3399 -10.99012,-3.2243 -13.86508,2.298 -0.69589,1.3367 -0.80049,1.8852 -0.80171,4.2043 -10e-4,2.0837 0.13522,2.9667 0.62315,4.0369 1.48171,3.2498 4.3116,5.102 7.80356,5.1075 2.40473,0 4.18601,-0.748 6.17012,-2.6039 0.79645,-0.745 1.53425,-1.3545 1.6396,-1.3545 0.10535,0 0.19153,1.6717 0.19153,3.7148 v 3.7148 l -1.25946,0.5338 c -2.73145,1.1577 -6.1046,1.618 -8.96436,1.2233 z m 26.94125,0.01 c -3.82653,-0.5758 -7.69596,-3.5462 -9.43736,-7.2447 -3.14772,-6.6852 -1.32341,-15.3567 4.06526,-19.3236 2.22547,-1.6383 4.40412,-2.3069 7.47243,-2.2933 2.67881,0.012 4.65951,0.7013 6.87597,2.3932 0.70323,0.5368 1.4031,0.976 1.55533,0.976 0.1522,0 0.31774,-0.5668 0.36785,-1.2595 l 0.0911,-1.2595 h 2.96343 2.96343 v 13.6318 13.6318 h -2.96343 -2.96343 l -0.092,-1.1113 c -0.0506,-0.6112 -0.23681,-1.1113 -0.41384,-1.1113 -0.17701,0 -1.00244,0.4446 -1.83424,0.9881 -2.79229,1.8243 -5.5308,2.4518 -8.65054,1.9823 z m 6.54878,-5.9104 c 1.62132,-0.7095 3.05773,-2.2187 3.96948,-4.1704 1.03851,-2.2231 1.06844,-6.1889 0.064,-8.4769 -0.78726,-1.7934 -2.69508,-3.7548 -4.30322,-4.4242 -1.51339,-0.63 -4.46111,-0.6352 -5.96167,-0.011 -1.62585,0.6769 -3.53288,2.6268 -4.33703,4.4347 -1.00769,2.2655 -0.97296,6.231 0.0742,8.4769 2.01436,4.3202 6.27932,6.0151 10.49423,4.1704 z m 48.15237,6.0209 c -4.49902,-0.7176 -7.24191,-2.0333 -9.64095,-4.6246 -2.91201,-3.1453 -3.81423,-5.7635 -3.64904,-10.5897 0.10185,-2.9755 0.17875,-3.3128 1.24893,-5.4781 3.38219,-6.8434 11.27504,-10.0189 18.70877,-7.5271 0.97793,0.3279 1.94474,0.7336 2.14848,0.9017 0.25838,0.2133 0.37043,1.3703 0.37043,3.8256 0,1.9359 -0.0757,3.5198 -0.16815,3.5198 -0.0925,0 -0.91321,-0.6069 -1.82381,-1.3487 -2.18244,-1.7778 -3.38367,-2.2493 -5.7454,-2.255 -2.53735,-0.01 -4.58445,0.8582 -6.21036,2.6221 -1.82844,1.9836 -2.45737,3.6347 -2.46229,6.4639 -0.009,5.4535 3.43242,9.1455 8.51271,9.1314 2.59025,-0.01 4.25931,-0.7177 6.1436,-2.6152 0.72006,-0.725 1.4092,-1.321 1.53144,-1.3242 0.12224,0 0.22226,1.6575 0.22226,3.6907 v 3.6967 l -0.81886,0.4234 c -1.92922,0.9976 -6.4263,1.797 -8.36776,1.4873 z m 107.1516,-0.1492 c -5.01883,-0.7319 -9.04355,-4.4559 -10.38598,-9.6098 -0.59114,-2.2695 -0.59141,-7.1916 0,-9.4603 1.79768,-6.9017 7.6735,-10.7296 14.85839,-9.6798 6.72851,0.9832 10.59626,5.7532 10.84237,13.3718 l 0.0718,2.2226 -9.86424,0.078 c -8.23874,0.065 -9.89109,0.1481 -10.0272,0.5028 -0.30559,0.7963 0.74497,3.5716 1.83332,4.8431 1.24867,1.4588 2.2013,2.0113 4.21023,2.4422 2.93756,0.63 5.50522,-0.5206 7.62469,-3.4165 0.65195,-0.8908 1.31873,-1.5896 1.48171,-1.553 0.90163,0.2029 4.59332,2.4778 4.59332,2.8305 0,0.5958 -1.86133,3.0498 -3.29708,4.3469 -1.66269,1.5021 -4.42828,2.7395 -6.92675,3.0991 -2.34481,0.3376 -2.58357,0.3367 -5.01408,-0.018 z m 8.89728,-18.4629 c 0.18951,-0.4938 -0.58075,-2.1112 -1.47304,-3.0931 -1.6006,-1.7614 -5.21945,-2.4529 -7.60999,-1.454 -1.84188,0.7695 -4.1081,3.5388 -3.72117,4.5471 0.23737,0.6186 12.56682,0.6186 12.8042,0 z m -144.35835,17.5315 c -0.0761,-0.2037 -0.17194,-5.1045 -0.21298,-10.8906 l -0.0746,-10.5201 -1.25946,-0.091 -1.25945,-0.091 v -2.7982 -2.7982 h 1.00092 c 0.55049,0 1.14709,-0.1761 1.32575,-0.3914 0.19722,-0.2376 0.35698,-2.246 0.4067,-5.1119 l 0.0819,-4.7205 h 2.81526 2.81525 l 0.0819,4.7205 c 0.0497,2.8659 0.20949,4.8743 0.4067,5.1119 0.21544,0.2596 1.06115,0.3914 2.51112,0.3914 h 2.1863 v 2.8152 2.8153 h -2.1633 c -1.28743,0 -2.30727,0.144 -2.51891,0.3556 -0.26333,0.2633 -0.35562,3.1083 -0.35562,10.9647 v 10.6091 h -2.82456 c -1.98831,0 -2.86551,-0.1097 -2.96286,-0.3705 z m 46.2876,0.1729 c -0.10867,-0.1087 -0.19757,-10.9104 -0.19757,-24.0038 v -23.8062 h 2.96342 2.96343 v 10.974 c 0,8.9494 0.0739,11.0024 0.4008,11.1278 0.22045,0.085 1.05391,-0.2494 1.85214,-0.7421 5.63342,-3.4776 12.96467,-1.3605 14.80021,4.274 0.52921,1.6245 0.57924,2.6612 0.57924,12.0019 v 10.2238 l -2.86721,0.084 -2.8672,0.085 -0.0962,-9.4194 c -0.0957,-9.3652 -0.10049,-9.4278 -0.83708,-10.8961 -0.9854,-1.9641 -2.10893,-2.5936 -4.60357,-2.5792 -2.54244,0.015 -4.13644,0.8698 -5.09256,2.7321 -0.89913,1.7513 -1.24544,5.5606 -1.25857,13.8444 l -0.01,6.2973 h -2.76586 c -1.52124,0 -2.85478,-0.089 -2.96342,-0.1976 z m 32.53993,-0.1621 c -0.0804,-0.2097 -0.11142,-6.3821 -0.0689,-13.7166 l 0.0773,-13.3354 h 2.96342 c 2.937,0 2.96432,0.01 3.06262,0.7408 0.16106,1.2031 0.47418,1.2539 1.70189,0.2757 2.00695,-1.599 2.7701,-1.8764 5.16297,-1.8763 2.70383,0 4.44932,0.6972 6.16076,2.4607 0.64816,0.6679 1.27448,1.2143 1.39183,1.2143 0.11738,0 0.87042,-0.5907 1.67339,-1.3126 1.93032,-1.7356 3.87391,-2.3942 6.98826,-2.3683 3.2027,0.027 5.3807,1.0492 6.82898,3.2063 1.86391,2.7761 1.97981,3.6414 1.98926,14.8472 l 0.009,10.0757 h -2.96343 -2.96343 l -0.14817,-9.6312 c -0.13655,-8.8753 -0.19467,-9.7226 -0.74085,-10.7973 -0.84411,-1.661 -1.86166,-2.3101 -3.62119,-2.3101 -2.32736,0 -3.73271,0.9474 -4.73301,3.1908 -0.45157,1.0128 -0.54494,2.4398 -0.67806,10.3612 l -0.15437,9.1866 H 85.627 82.66357 l -0.14817,-9.6312 -0.14817,-9.6311 -0.80362,-1.367 c -0.90074,-1.5322 -2.08655,-2.1875 -3.83225,-2.1179 -1.99913,0.08 -3.36986,1.096 -4.31513,3.1994 -0.45744,1.0178 -0.54788,2.4001 -0.67809,10.3612 l -0.15022,9.1866 -2.8945,0.085 c -2.14919,0.063 -2.93213,-0.013 -3.04071,-0.2964 z m 80.01252,0 c -0.0804,-0.2097 -0.11143,-6.3821 -0.0689,-13.7166 l 0.0773,-13.3354 h 2.96343 2.96343 l 0.0929,0.9631 c 0.11137,1.1553 0.38519,1.1937 1.64719,0.2311 1.9452,-1.4837 3.70399,-2.0464 6.40936,-2.0509 2.08462,0 2.80435,0.1273 4.17443,0.7581 2.17599,1.0019 3.61295,2.4837 4.46031,4.5995 0.67638,1.6889 0.68983,1.9258 0.6949,12.2424 l 0.005,10.5202 -2.86416,0.084 -2.86412,0.085 -0.10135,-9.4193 c -0.0957,-8.8943 -0.13685,-9.4964 -0.73834,-10.8019 -0.35033,-0.7605 -0.98015,-1.6075 -1.39956,-1.8823 -2.12967,-1.3954 -5.70211,-1.1226 -7.38898,0.5643 -1.64867,1.6486 -1.76931,2.409 -1.95687,12.3317 l -0.17084,9.0385 -2.8945,0.085 c -2.14919,0.063 -2.93213,-0.013 -3.04071,-0.2964 z m 32.89777,0 c -0.0784,-0.2097 -0.17606,-5.1153 -0.2171,-10.9014 l -0.0746,-10.5201 -1.18537,-0.1482 -1.18538,-0.1482 -0.085,-2.7236 -0.085,-2.7236 1.27036,-0.092 1.27034,-0.092 0.14817,-5.0378 0.14817,-5.0378 2.69615,-0.085 c 1.99143,-0.062 2.78334,0.02 3.02972,0.3173 0.20803,0.2506 0.36439,2.1783 0.41545,5.1224 l 0.0819,4.7205 2.37075,0.1482 2.37074,0.1482 v 2.667 2.6671 l -2.37074,0.1482 -2.37075,0.1482 -0.14817,10.8165 -0.14817,10.8165 -2.8945,0.085 c -2.15061,0.063 -2.93112,-0.013 -3.03697,-0.2964 z M -167.2329,1197.582 c -2.98318,-0.7329 -5.67604,-2.1761 -7.95255,-4.2621 -4.82201,-4.4185 -7.03829,-9.9661 -7.00687,-17.539 0.019,-4.5683 0.63169,-7.3347 2.42863,-10.9647 3.45214,-6.9738 9.49924,-10.8062 17.05499,-10.8086 4.3122,0 7.29405,1.059 11.07995,3.9402 1.20432,0.9165 2.30449,1.5955 2.44483,1.5088 0.14033,-0.087 0.25515,-1.0834 0.25515,-2.2147 v -2.0569 h 4.59331 4.59331 v 20.8999 20.8999 l -4.51922,-0.082 -4.51923,-0.082 -0.0882,-1.8522 c -0.10896,-2.2875 -0.43879,-2.3627 -2.735,-0.6239 -4.53832,3.4366 -10.11496,4.5916 -15.62907,3.2369 z m 11.93138,-8.7325 c 4.57191,-2.2596 6.96543,-6.6485 6.96543,-12.7723 0,-6.1321 -2.41362,-10.5227 -7.04212,-12.8102 -2.16261,-1.0688 -2.39273,-1.1179 -5.24073,-1.1179 -2.71759,0 -3.14904,0.081 -4.92027,0.92 -3.50778,1.6622 -6.25608,5.2538 -7.12669,9.3133 -0.43472,2.027 -0.18343,7.0565 0.45462,9.0991 0.65779,2.1058 2.70965,5.0256 4.48419,6.3808 2.19359,1.6753 4.45204,2.3212 7.62936,2.1817 2.27866,-0.1 2.88911,-0.252 4.79621,-1.1945 z m 97.78977,7.8715 c -8.74965,-3.4537 -13.50512,-12.6503 -12.29509,-23.7776 1.29719,-11.9286 8.70514,-18.9437 20.00469,-18.9437 9.49357,0 16.11982,4.7212 18.76723,13.3718 0.6868,2.2441 1.32501,7.1787 1.18347,9.1502 l -0.0957,1.3336 -15.11347,0.1481 -15.11348,0.1482 -0.0981,0.8594 c -0.24398,2.1383 1.33648,5.8069 3.41837,7.9349 1.84806,1.8889 4.24502,2.9272 7.22985,3.1318 1.2874,0.088 2.34075,0.2394 2.34075,0.3359 0,0.097 -1.56484,1.7444 -3.4774,3.662 -2.18728,2.1929 -3.69898,3.4827 -4.07472,3.4762 -0.32852,-0.01 -1.53289,-0.3795 -2.67639,-0.8308 z m 17.9269,-26.9411 c -0.0178,-2.2131 -2.78728,-5.7539 -5.41246,-6.9196 -1.25312,-0.5564 -2.07805,-0.6884 -4.36555,-0.6986 -2.6034,-0.012 -2.97302,0.062 -4.80312,0.963 -1.17597,0.5786 -2.42476,1.4829 -3.06922,2.2225 -1.2682,1.4555 -2.62204,4.1913 -2.38271,4.815 0.14097,0.3674 1.66455,0.4327 10.10279,0.4327 h 9.93679 z m -85.79661,26.819 c -0.0778,-0.2037 -0.10698,-9.5718 -0.0648,-20.818 l 0.0767,-20.4477 4.51922,-0.082 4.51923,-0.082 v 20.8999 20.8999 h -4.45444 c -3.29053,0 -4.49141,-0.097 -4.59594,-0.3705 z m 23.41107,0 c -0.0778,-0.2037 -0.10698,-9.5718 -0.0648,-20.818 l 0.0767,-20.4477 4.50347,-0.082 4.50348,-0.082 0.0898,1.5401 c 0.0494,0.8471 0.2442,1.591 0.43286,1.6531 0.18866,0.062 1.0266,-0.4942 1.86209,-1.2362 0.83549,-0.7421 2.2147,-1.7159 3.06492,-2.1641 1.41907,-0.748 1.8132,-0.8142 4.80562,-0.8064 2.66318,0.01 3.56131,0.1289 4.90738,0.6669 3.12125,1.2476 3.07247,0.9451 0.8713,5.4032 -1.05942,2.1457 -2.01207,3.9553 -2.11699,4.0213 -0.10492,0.066 -0.91585,-0.212 -1.80208,-0.6177 -2.26017,-1.0347 -3.93634,-1.207 -5.97565,-0.6141 -3.10548,0.9027 -5.10284,3.6187 -5.79161,7.8753 -0.18111,1.1192 -0.31263,6.9854 -0.31393,14.0022 l -0.002,12.076 h -4.45444 c -3.29053,0 -4.49141,-0.097 -4.59594,-0.3705 z m -67.86248,-48.6002 c -0.0778,-0.2037 -0.10699,-9.4384 -0.0648,-20.5217 l 0.0767,-20.1513 h 2.66709 2.66708 l 0.0905,1.0859 c 0.1148,1.3781 0.69896,1.6033 1.78613,0.6885 0.47049,-0.3959 1.57428,-1.0904 2.45285,-1.5434 1.44857,-0.7469 1.88733,-0.8236 4.70901,-0.8236 2.80059,0 3.29558,0.085 4.95236,0.8503 8.36926,3.866 10.08829,17.1813 3.05838,23.6897 -2.29753,2.1272 -4.35588,2.9388 -7.56623,2.9836 -2.82088,0.039 -4.89644,-0.5884 -6.83349,-2.067 -0.72658,-0.5546 -1.58661,-1.0084 -1.91118,-1.0084 -0.5757,0 -0.59012,0.21 -0.59012,8.594 v 8.5939 h -2.67638 c -1.86808,0 -2.71913,-0.1119 -2.8179,-0.3705 z m 16.31736,-19.1499 c 1.55912,-0.7083 2.94224,-2.1182 3.92466,-4.0009 0.69711,-1.3358 0.79322,-1.8602 0.79441,-4.3349 10e-4,-3.1775 -0.49858,-4.677 -2.20998,-6.6262 -1.55505,-1.7711 -3.02716,-2.3985 -5.62726,-2.3985 -2.6964,0 -4.08701,0.6335 -5.89214,2.6842 -1.43588,1.6313 -2.10911,3.6079 -2.10911,6.1923 0,5.3865 3.23503,9.0478 7.9803,9.032 1.24097,0 2.37948,-0.2029 3.13912,-0.548 z m 18.65552,19.1615 c -0.0803,-0.2101 -0.11144,-9.45 -0.0692,-20.5333 l 0.0767,-20.1513 h 2.66709 2.66708 l 0.092,1.1113 c 0.11728,1.4171 0.46077,1.4115 2.71362,-0.045 2.23203,-1.4426 4.15744,-1.918 7.08227,-1.7487 4.9999,0.2894 9.08684,3.6678 10.77417,8.9061 0.86706,2.6918 0.84469,7.3901 -0.0475,9.985 -1.64813,4.7934 -4.94573,7.7838 -9.49255,8.6083 -3.14257,0.5699 -6.4115,-0.2304 -8.99713,-2.2025 -2.01107,-1.534 -1.95857,-1.7331 -2.04619,7.7606 l -0.0786,8.5198 -2.59784,0.086 c -1.91121,0.063 -2.63643,-0.015 -2.74382,-0.2964 z m 16.30634,-19.1599 c 1.4672,-0.6682 3.27511,-2.6346 4.09018,-4.4487 0.47383,-1.0546 0.61365,-1.9629 0.60761,-3.9473 -0.007,-2.2967 -0.11204,-2.7891 -0.96423,-4.5202 -1.17961,-2.3961 -2.90485,-3.8203 -5.26852,-4.3493 -4.07334,-0.9116 -8.14846,1.5721 -9.2836,5.6581 -0.44621,1.6062 -0.35233,5.3648 0.17248,6.905 0.59335,1.7414 2.56769,3.9957 4.11507,4.6986 1.61425,0.7333 4.9251,0.7352 6.53101,0 z m -74.47793,5.2923 c -3.30931,-0.6995 -6.36658,-2.9376 -7.49375,-5.4857 -0.91278,-2.0635 -1.18205,-5.4285 -1.0904,-13.6263 l 0.0861,-7.705 h 2.66708 2.66709 l 0.15334,9.0385 c 0.16056,9.4632 0.24591,10.0889 1.57037,11.5114 1.04151,1.1186 2.12724,1.5277 4.05497,1.5277 1.93308,0 3.02912,-0.4147 4.03768,-1.5277 1.41614,-1.5627 1.43717,-1.7127 1.59283,-11.3632 l 0.14817,-9.1867 h 2.66708 2.66709 l 0.0836,8.2976 c 0.0514,5.1032 -0.043,9.0591 -0.24524,10.2754 -0.60759,3.6548 -3.16431,6.6663 -6.60222,7.7766 -1.86277,0.6016 -5.25258,0.8291 -6.9638,0.4674 z m 101.90227,-0.039 c -4.88222,-0.8094 -8.64963,-4.5687 -9.79889,-9.778 -0.54908,-2.4888 -0.24327,-7.6679 0.57926,-9.81 2.02031,-5.2614 5.96707,-7.9308 11.7259,-7.9308 7.39593,0 12.11355,4.746 12.37184,12.4464 l 0.0745,2.2226 -9.3096,0.078 c -6.57505,0.055 -9.43246,0.1803 -9.72787,0.4255 -0.53681,0.4455 -0.27465,1.9437 0.66085,3.7767 0.84095,1.6477 2.0138,2.7978 3.47588,3.4086 1.46059,0.6101 4.7377,0.5998 6.04175,-0.019 0.99664,-0.473 3.96934,-3.461 3.96934,-3.9898 0,-0.1499 0.18245,-0.2725 0.40545,-0.2725 0.64981,0 4.33603,2.1505 4.33603,2.5296 0,0.5492 -1.56181,2.5438 -3.08707,3.9424 -2.97396,2.7271 -7.01062,3.7502 -11.71742,2.9699 z m 8.70523,-17.0304 c 0.61856,-0.2373 0.59133,-0.7888 -0.10648,-2.1566 -2.41294,-4.7298 -9.46858,-4.7131 -11.9,0.028 -0.65543,1.2781 -0.71263,1.9027 -0.19342,2.1122 0.53443,0.2156 11.64176,0.2306 12.1999,0.016 z m 14.6932,3.28 v -13.1988 l 2.59299,0.086 2.593,0.086 0.0955,0.8324 c 0.1397,1.2181 0.79672,1.2826 2.03069,0.1991 1.46805,-1.289 2.73015,-1.7724 4.62742,-1.7724 1.56552,0 4.2091,0.7026 4.5168,1.2005 0.087,0.1408 -0.37799,1.3223 -1.03332,2.6257 l -1.19148,2.3697 -1.10529,-0.4618 c -0.73129,-0.3055 -1.68525,-0.4198 -2.81911,-0.3378 -2.01623,0.1458 -3.17502,1.0289 -4.19624,3.1977 -0.58578,1.244 -0.63453,1.9057 -0.72613,9.8534 l -0.0982,8.5198 h -2.64331 -2.64329 z"
         id="path838"
         inkscape:connector-curvature="0" />
      <path
         style="fill:#ffffff;stroke-width:0.29634264"
         d="m -56.17157,1445.4243 c -31.37296,-4.5639 -58.11086,-21.6266 -72.48345,-46.255 -4.74287,-8.1272 -7.72732,-16.3118 -9.65166,-26.4687 -0.63667,-3.3605 -0.64838,-3.9671 -0.84068,-43.5624 -0.19212,-39.5562 -0.20438,-40.1928 -0.82289,-42.7309 -2.97891,-12.2238 -11.36775,-20.6998 -23.92383,-24.1722 -1.61941,-0.4478 -7.15869,-0.5075 -62.08378,-0.6687 -66.06799,-0.1939 -61.7306,-0.075 -70.55766,-1.9385 -24.70519,-5.2162 -46.0582,-22.6727 -56.3451,-46.0634 -5.07142,-11.5315 -7.66243,-25.4879 -6.80822,-36.6724 1.27977,-16.7565 6.48823,-31.0156 16.00683,-43.8216 3.23735,-4.3554 10.6184,-11.9419 14.57691,-14.9826 14.14549,-10.8659 29.70053,-16.4913 47.12644,-17.0433 14.07697,-0.4458 27.01915,2.4541 39.34789,8.8168 22.63971,11.6839 38.32702,33.2574 42.4182,58.3343 0.95964,5.8821 1.23909,13.0244 1.14321,29.2182 l -0.0895,15.1134 h -3.25977 -3.25977 l -0.17929,-20.0031 c -0.0986,-11.0017 -0.25919,-20.3365 -0.35684,-20.744 -0.0976,-0.4074 -0.33225,-1.6743 -0.52134,-2.8152 -1.72226,-10.3917 -5.86863,-20.6422 -11.88843,-29.3901 -11.95044,-17.3662 -30.24734,-28.5758 -51.50863,-31.5567 -4.18818,-0.5871 -15.28325,-0.5031 -19.55861,0.1483 -16.15659,2.4613 -30.50122,9.6473 -41.79031,20.9349 -10.00854,10.0072 -16.929,22.6024 -19.96234,36.3315 -1.46172,6.6158 -2.04261,16.0582 -1.38405,22.498 1.76647,17.2738 8.64864,32.2195 20.45326,44.4173 11.0439,11.4118 24.49818,18.5492 40.64708,21.563 l 3.66624,0.6843 60.60208,0.1763 c 67.38299,0.1961 62.14716,0.028 68.65414,2.2041 12.94472,4.329 22.21785,14.7699 25.33702,28.5276 0.65232,2.8772 0.65534,3.0311 0.84322,42.8938 0.18636,39.5401 0.19613,40.046 0.83807,43.4142 0.95164,4.9933 2.27879,9.7446 3.80435,13.6199 8.91533,22.6477 28.85692,40.6412 54.51405,49.1886 6.81366,2.2699 15.42433,4.1132 22.18485,4.7492 1.95586,0.1839 4.27516,0.4064 5.15396,0.4944 l 1.59785,0.1599 -2.92582,2.9368 -2.92585,2.9369 -1.48725,-0.032 c -0.81803,-0.017 -2.75326,-0.2161 -4.30059,-0.4411 z m -19.70874,-19.5013 c -8.13175,-2.9109 -14.55852,-6.365 -21.48484,-11.5473 -3.53253,-2.643 -9.75996,-8.6779 -12.61284,-12.2228 -6.18626,-7.687 -10.73393,-16.6892 -13.02368,-25.7805 -1.9396,-7.7012 -1.92263,-7.2875 -1.93007,-47.0391 -0.004,-19.7474 -0.13263,-37.523 -0.28651,-39.5013 -0.89266,-11.4758 -5.20863,-20.7761 -13.4647,-29.0145 -6.76619,-6.7518 -13.53849,-10.4721 -23.05321,-12.6643 -2.74784,-0.6331 -2.81132,-0.6339 -63.2045,-0.81 -65.37625,-0.1906 -61.60913,-0.096 -69.06127,-1.7318 -9.39788,-2.0627 -18.86162,-6.6086 -26.66096,-12.8064 -11.08834,-8.8115 -19.26959,-21.5534 -22.81219,-35.5289 -1.49353,-5.8919 -1.75666,-8.284 -1.76146,-16.0129 -0.005,-8.1506 0.46414,-11.8146 2.35277,-18.3733 5.70752,-19.8203 20.29299,-35.7037 39.85682,-43.4037 12.3941,-4.878 28.04377,-5.6057 41.32066,-1.9214 22.3402,6.1994 39.83654,23.7725 45.9775,46.179 2.10205,7.6698 2.26328,9.6463 2.41529,29.6084 0.0748,9.8273 0.0539,18.1953 -0.0466,18.5956 -0.1786,0.7115 -0.24802,0.7277 -3.12096,0.7277 h -2.9383 l -0.1148,-19.04 c -0.0983,-16.3017 -0.18754,-19.4449 -0.62054,-21.8553 -2.27671,-12.6738 -7.69101,-23.3769 -16.31454,-32.2508 -8.79044,-9.0458 -19.11617,-14.652 -31.82157,-17.2772 -4.22807,-0.8736 -14.65862,-1.1039 -19.32632,-0.4267 -10.99118,1.5945 -20.79879,5.8405 -29.34135,12.7027 -21.82781,17.5341 -28.58132,47.8152 -16.2787,72.9897 9.01751,18.4523 26.93148,31.0001 47.54627,33.3036 1.69579,0.1895 23.52737,0.2989 59.94698,0.3005 38.5679,0 58.21997,0.1057 60.15756,0.3186 22.99168,2.526 40.92271,18.9563 45.74079,41.9126 l 0.68416,3.2598 0.1915,40.0063 c 0.10533,22.0034 0.28438,40.473 0.39789,41.0434 0.11351,0.5705 0.4715,2.4374 0.79553,4.1488 4.11835,21.7511 21.79788,40.8846 45.02341,48.726 2.20894,0.7457 4.20925,1.358 4.44514,1.3605 0.23589,0 0.62893,0.1317 0.87341,0.2871 0.35954,0.2285 -0.007,0.7375 -1.91928,2.6625 -1.30008,1.309 -2.50027,2.3729 -2.66708,2.3642 -0.16681,-0.01 -1.90355,-0.5887 -3.85941,-1.2888 z m -143.43718,-85.8834 c -0.0798,-0.2097 -0.11087,-16.2504 -0.0689,-35.646 l 0.0763,-35.2648 h 2.96343 2.96342 v 35.5611 35.5611 l -2.8945,0.085 c -2.14958,0.063 -2.93186,-0.013 -3.03969,-0.2963 z m 13.82191,-19.0091 c -0.24377,-0.2937 -0.31377,-7.3738 -0.25854,-26.1522 l 0.0757,-25.7495 h 3.25977 3.25977 l 0.0757,25.7495 c 0.0552,18.7784 -0.0148,25.8585 -0.25854,26.1522 -0.23768,0.2864 -1.12687,0.4028 -3.07696,0.4028 -1.95009,0 -2.83928,-0.1164 -3.07696,-0.4028 z m 38.26268,-123.4485 c -2.98318,-0.7329 -5.67604,-2.1761 -7.95255,-4.2621 -4.82201,-4.4185 -7.03829,-9.9661 -7.00687,-17.539 0.019,-4.5683 0.63169,-7.3347 2.42863,-10.9647 3.45214,-6.9738 9.49924,-10.8062 17.05499,-10.8086 4.3122,0 7.29405,1.059 11.07995,3.9402 1.20432,0.9165 2.30449,1.5955 2.44483,1.5088 0.14033,-0.087 0.25515,-1.0834 0.25515,-2.2147 v -2.0569 h 4.59331 4.59331 v 20.8999 20.8999 l -4.51922,-0.082 -4.51923,-0.082 -0.0882,-1.8522 c -0.10896,-2.2875 -0.43879,-2.3627 -2.735,-0.6239 -4.53832,3.4366 -10.11496,4.5916 -15.62907,3.2369 z m 11.93138,-8.7325 c 4.57191,-2.2596 6.96543,-6.6485 6.96543,-12.7723 0,-6.1321 -2.41362,-10.5227 -7.04212,-12.8102 -2.16261,-1.0688 -2.39273,-1.1179 -5.24073,-1.1179 -2.71759,0 -3.14904,0.081 -4.92027,0.92 -3.50778,1.6622 -6.25608,5.2538 -7.12669,9.3133 -0.43472,2.027 -0.18343,7.0565 0.45462,9.0991 0.65779,2.1058 2.70965,5.0256 4.48419,6.3808 2.19359,1.6753 4.45204,2.3212 7.62936,2.1817 2.27866,-0.1 2.88911,-0.252 4.79621,-1.1945 z m 97.78977,7.8715 c -8.74965,-3.4537 -13.50512,-12.6503 -12.29509,-23.7776 1.29719,-11.9286 8.70514,-18.9437 20.00469,-18.9437 9.49357,0 16.11982,4.7212 18.76723,13.3718 0.6868,2.2441 1.32501,7.1787 1.18347,9.1502 l -0.0957,1.3336 -15.11347,0.1481 -15.11348,0.1482 -0.0981,0.8594 c -0.24398,2.1383 1.33648,5.8069 3.41837,7.9349 1.84806,1.8889 4.24502,2.9272 7.22985,3.1318 1.2874,0.088 2.34075,0.2394 2.34075,0.3359 0,0.097 -1.56484,1.7444 -3.4774,3.662 -2.18728,2.1929 -3.69898,3.4827 -4.07472,3.4762 -0.32852,-0.01 -1.53289,-0.3795 -2.67639,-0.8308 z m 17.9269,-26.9411 c -0.0178,-2.2131 -2.78728,-5.7539 -5.41246,-6.9196 -1.25312,-0.5564 -2.07805,-0.6884 -4.36555,-0.6986 -2.6034,-0.012 -2.97302,0.062 -4.80312,0.963 -1.17597,0.5786 -2.42476,1.4829 -3.06922,2.2225 -1.2682,1.4555 -2.62204,4.1913 -2.38271,4.815 0.14097,0.3674 1.66455,0.4327 10.10279,0.4327 h 9.93679 z m -85.79661,26.819 c -0.0778,-0.2037 -0.10698,-9.5718 -0.0648,-20.818 l 0.0767,-20.4477 4.51922,-0.082 4.51923,-0.082 v 20.8999 20.8999 h -4.45444 c -3.29053,0 -4.49141,-0.097 -4.59594,-0.3705 z m 23.41107,0 c -0.0778,-0.2037 -0.10698,-9.5718 -0.0648,-20.818 l 0.0767,-20.4477 4.50347,-0.082 4.50348,-0.082 0.0898,1.5401 c 0.0494,0.8471 0.2442,1.591 0.43286,1.6531 0.18866,0.062 1.0266,-0.4942 1.86209,-1.2362 0.83549,-0.7421 2.2147,-1.7159 3.06492,-2.1641 1.41907,-0.748 1.8132,-0.8142 4.80562,-0.8064 2.66318,0.01 3.56131,0.1289 4.90738,0.6669 3.12125,1.2476 3.07247,0.9451 0.8713,5.4032 -1.05942,2.1457 -2.01207,3.9553 -2.11699,4.0213 -0.10492,0.066 -0.91585,-0.212 -1.80208,-0.6177 -2.26017,-1.0347 -3.93634,-1.207 -5.97565,-0.6141 -3.10548,0.9027 -5.10284,3.6187 -5.79161,7.8753 -0.18111,1.1192 -0.31263,6.9854 -0.31393,14.0022 l -0.002,12.076 h -4.45444 c -3.29053,0 -4.49141,-0.097 -4.59594,-0.3705 z m -67.86248,-48.6002 c -0.0778,-0.2037 -0.10699,-9.4384 -0.0648,-20.5217 l 0.0767,-20.1513 h 2.66709 2.66708 l 0.0905,1.0859 c 0.1148,1.3781 0.69896,1.6033 1.78613,0.6885 0.47049,-0.3959 1.57428,-1.0904 2.45285,-1.5434 1.44857,-0.7469 1.88733,-0.8236 4.70901,-0.8236 2.80059,0 3.29558,0.085 4.95236,0.8503 8.36926,3.866 10.08829,17.1813 3.05838,23.6898 -2.29753,2.1271 -4.35588,2.9387 -7.56623,2.9835 -2.82088,0.039 -4.89644,-0.5884 -6.83349,-2.067 -0.72658,-0.5546 -1.58661,-1.0084 -1.91118,-1.0084 -0.5757,0 -0.59012,0.21 -0.59012,8.594 v 8.5939 h -2.67638 c -1.86808,0 -2.71913,-0.1119 -2.8179,-0.3705 z m 16.31736,-19.1499 c 1.55912,-0.7083 2.94224,-2.1182 3.92466,-4.0008 0.69711,-1.3359 0.79322,-1.8603 0.79441,-4.335 10e-4,-3.1775 -0.49858,-4.677 -2.20998,-6.6261 -1.55505,-1.7711 -3.02716,-2.3986 -5.62726,-2.3986 -2.6964,0 -4.08701,0.6335 -5.89214,2.6842 -1.43588,1.6313 -2.10911,3.6079 -2.10911,6.1923 0,5.3865 3.23503,9.0478 7.9803,9.032 1.24097,0 2.37948,-0.2029 3.13912,-0.548 z m 18.65552,19.1615 c -0.0803,-0.2101 -0.11144,-9.45 -0.0692,-20.5333 l 0.0767,-20.1513 h 2.66709 2.66708 l 0.092,1.1113 c 0.11728,1.4172 0.46077,1.4115 2.71362,-0.045 2.23203,-1.4426 4.15744,-1.918 7.08227,-1.7487 4.9999,0.2894 9.08684,3.6678 10.77417,8.9061 0.86706,2.6918 0.84469,7.3901 -0.0475,9.985 -1.64813,4.7934 -4.94573,7.7838 -9.49255,8.6083 -3.14257,0.5699 -6.4115,-0.2304 -8.99713,-2.2025 -2.01107,-1.534 -1.95857,-1.7331 -2.04619,7.7606 l -0.0786,8.5198 -2.59784,0.086 c -1.91121,0.063 -2.63643,-0.015 -2.74382,-0.2964 z m 16.30634,-19.1599 c 1.4672,-0.6682 3.27511,-2.6346 4.09018,-4.4487 0.47383,-1.0546 0.61365,-1.9629 0.60761,-3.9473 -0.007,-2.2967 -0.11204,-2.7891 -0.96423,-4.5202 -1.17961,-2.3961 -2.90485,-3.8203 -5.26852,-4.3493 -4.07334,-0.9116 -8.14846,1.5721 -9.2836,5.6581 -0.44621,1.6062 -0.35233,5.3648 0.17248,6.905 0.59335,1.7414 2.56769,3.9957 4.11507,4.6986 1.61425,0.7333 4.9251,0.7352 6.53101,0 z m -74.47793,5.2923 c -3.30931,-0.6995 -6.36658,-2.9376 -7.49375,-5.4857 -0.91278,-2.0635 -1.18205,-5.4285 -1.0904,-13.6263 l 0.0861,-7.705 h 2.66708 2.66709 l 0.15334,9.0385 c 0.16056,9.4633 0.24591,10.0889 1.57037,11.5114 1.04151,1.1186 2.12724,1.5277 4.05497,1.5277 1.93308,0 3.02912,-0.4147 4.03768,-1.5277 1.41614,-1.5627 1.43717,-1.7127 1.59283,-11.3632 l 0.14817,-9.1867 h 2.66708 2.66709 l 0.0836,8.2976 c 0.0514,5.1032 -0.043,9.0591 -0.24524,10.2754 -0.60759,3.6548 -3.16431,6.6663 -6.60222,7.7766 -1.86277,0.6016 -5.25258,0.8291 -6.9638,0.4674 z m 101.90227,-0.039 c -4.88222,-0.8094 -8.64963,-4.5687 -9.79889,-9.778 -0.54908,-2.4888 -0.24327,-7.6679 0.57926,-9.81 2.02031,-5.2614 5.96707,-7.9308 11.7259,-7.9308 7.39593,0 12.11355,4.746 12.37184,12.4464 l 0.0745,2.2226 -9.3096,0.078 c -6.57505,0.055 -9.43246,0.1803 -9.72787,0.4255 -0.53681,0.4455 -0.27465,1.9437 0.66085,3.7767 0.84095,1.6477 2.0138,2.7978 3.47588,3.4086 1.46059,0.6101 4.7377,0.5998 6.04175,-0.019 0.99664,-0.473 3.96934,-3.461 3.96934,-3.9898 0,-0.1499 0.18245,-0.2725 0.40545,-0.2725 0.64981,0 4.33603,2.1505 4.33603,2.5296 0,0.5492 -1.56181,2.5438 -3.08707,3.9424 -2.97396,2.7271 -7.01062,3.7502 -11.71742,2.9699 z m 8.70523,-17.0304 c 0.61856,-0.2373 0.59133,-0.7888 -0.10648,-2.1566 -2.41294,-4.7298 -9.46858,-4.7131 -11.9,0.028 -0.65543,1.2781 -0.71263,1.9027 -0.19342,2.1122 0.53443,0.2157 11.64176,0.2306 12.1999,0.016 z m 14.6932,3.28 v -13.1988 l 2.59299,0.086 2.593,0.086 0.0955,0.8324 c 0.1397,1.2181 0.79672,1.2826 2.03069,0.1991 1.46805,-1.289 2.73015,-1.7724 4.62742,-1.7724 1.56552,0 4.2091,0.7026 4.5168,1.2005 0.087,0.1408 -0.37799,1.3223 -1.03332,2.6257 l -1.19148,2.3698 -1.10529,-0.4619 c -0.73129,-0.3055 -1.68525,-0.4198 -2.81911,-0.3378 -2.01623,0.1458 -3.17502,1.0289 -4.19624,3.1977 -0.58578,1.244 -0.63453,1.9057 -0.72613,9.8534 l -0.0982,8.5198 h -2.64331 -2.64329 z"
         id="path836"
         inkscape:connector-curvature="0" />
    </g>
  </g>
</svg>
