<?xml version="1.0" encoding="UTF-8" standalone="no"?>
<!-- Generator: Adobe Illustrator 19.1.0, SVG Export Plug-In . SVG Version: 6.00 Build 0)  -->

<svg
   xmlns:dc="http://purl.org/dc/elements/1.1/"
   xmlns:cc="http://creativecommons.org/ns#"
   xmlns:rdf="http://www.w3.org/1999/02/22-rdf-syntax-ns#"
   xmlns:svg="http://www.w3.org/2000/svg"
   xmlns="http://www.w3.org/2000/svg"
   xmlns:sodipodi="http://sodipodi.sourceforge.net/DTD/sodipodi-0.dtd"
   xmlns:inkscape="http://www.inkscape.org/namespaces/inkscape"
   version="1.1"
   id="Layer_1"
   x="0px"
   y="0px"
   viewBox="0 0 250 91"
   enable-background="new 0 0 181.3 182"
   xml:space="preserve"
   sodipodi:docname="usercrunch.svg"
   width="250"
   height="91"
   inkscape:version="0.92.2 (5c3e80d, 2017-08-06)"><metadata
     id="metadata31"><rdf:RDF><cc:Work
         rdf:about=""><dc:format>image/svg+xml</dc:format><dc:type
           rdf:resource="http://purl.org/dc/dcmitype/StillImage" /><dc:title></dc:title></cc:Work></rdf:RDF></metadata><defs
     id="defs29" /><sodipodi:namedview
     pagecolor="#ffffff"
     bordercolor="#666666"
     borderopacity="1"
     objecttolerance="10"
     gridtolerance="10"
     guidetolerance="10"
     inkscape:pageopacity="0"
     inkscape:pageshadow="2"
     inkscape:window-width="1920"
     inkscape:window-height="1046"
     id="namedview27"
     showgrid="false"
     fit-margin-top="0"
     fit-margin-left="0"
     fit-margin-right="0"
     fit-margin-bottom="0"
     inkscape:zoom="3.6676308"
     inkscape:cx="130.93028"
     inkscape:cy="29.088664"
     inkscape:window-x="-11"
     inkscape:window-y="-11"
     inkscape:window-maximized="1"
     inkscape:current-layer="Layer_1" /><g
     id="g4580"
     transform="matrix(0.40322671,0,0,0.40322671,74.697468,27.233913)"><path
       id="path20"
       d="m 124.75,-41.5 c -47.900002,0 -86.800781,38.9007808 -86.800781,86.800781 0,47.9 38.900779,86.798829 86.800781,86.798829 47.9,0 86.80078,-38.898829 86.80078,-86.798829 C 211.55078,-2.5992192 172.65,-41.5 124.75,-41.5 Z m 49.40039,86.800781 h 18.79883 C 192.94922,83.000781 162.45,113.5 124.75,113.5 V 94.699219 c 27.3,0 49.40039,-22.098438 49.40039,-49.398438 z"
       style="opacity:0.33600003;fill:#ffffff;fill-opacity:1"
       inkscape:connector-curvature="0" /><path
       style="opacity:0.52600002;fill:#ffffff;fill-opacity:1"
       inkscape:connector-curvature="0"
       id="path8"
       d="M 124.75,-4.1000044 V -22.900004 c -37.700002,0 -68.200002,30.4999996 -68.200002,68.2 h 18.8 c 0,-27.3 22.1,-49.4000004 49.400002,-49.4000004 z" /><path
       style="fill:#ffffff;fill-opacity:1"
       inkscape:connector-curvature="0"
       id="path18"
       d="m 105.55,90.799996 c -3,-1.3 -5.800002,-2.8 -8.400002,-4.6 -1.3,-0.9 -2.6,-1.8 -3.8,-2.8 -6.1,-5 -11,-11.5 -14.1,-18.9 -1.3,-3 -2.2,-6.1 -2.9,-9.3 -0.7,-3.2 -1,-6.6 -1,-10 h -18.8 c 0,37.7 30.5,68.200004 68.200002,68.200004 V 94.599996 c -6.8,0.1 -13.3,-1.3 -19.2,-3.8 z" /></g><rect
     style="opacity:0.00100002;fill:#ffffff;fill-opacity:1;stroke:none;stroke-width:2.5;stroke-linecap:round;stroke-linejoin:round;stroke-miterlimit:4;stroke-dasharray:none;stroke-dashoffset:0;stroke-opacity:1"
     id="rect4175"
     width="250"
     height="91"
     x="0"
     y="4.4140625e-006" /></svg>