<?xml version="1.0" encoding="UTF-8"?>
<svg enable-background="new 0 0 181.3 182" version="1.1" viewBox="0 0 250 91" xml:space="preserve" xmlns="http://www.w3.org/2000/svg" xmlns:cc="http://creativecommons.org/ns#" xmlns:dc="http://purl.org/dc/elements/1.1/" xmlns:rdf="http://www.w3.org/1999/02/22-rdf-syntax-ns#"><metadata><rdf:RDF><cc:Work rdf:about=""><dc:format>image/svg+xml</dc:format><dc:type rdf:resource="http://purl.org/dc/dcmitype/StillImage"/><dc:title/></cc:Work></rdf:RDF></metadata><rect y="-4.0454e-14" width="250" height="91" fill="#fff" opacity=".001"/><g transform="translate(.09375 -.09375)" fill="#fff"><path d="m124.91 10.562a35.031 35.031 0 0 0-35.031 35.031 35.031 35.031 0 0 0 35.031 35.031 35.031 35.031 0 0 0 35.031-35.031 35.031 35.031 0 0 0-35.031-35.031zm0.09375 7.4375v7.5801c-11.002 0-19.909 8.9013-19.92 19.9 0 0.0065-1e-5 0.01302 0 0.01953 2e-3 1.3573 0.12484 2.7147 0.4043 3.9922 0.28225 1.2903 0.64376 2.5403 1.168 3.75 1.25 2.9839 3.2259 5.605 5.6856 7.6211 0.48387 0.40323 1.009 0.766 1.5332 1.1289 1.0484 0.72581 2.177 1.3313 3.3867 1.8555 2.379 1.0081 5.0002 1.5716 7.7422 1.5312v0.04102c11.008 0 19.92-8.9118 19.92-19.92h7.5801c0 15.202-12.298 27.5-27.5 27.5v-0.04102c-15.188 4e-6 -27.476-12.276-27.498-27.459h-0.001953c0-0.0065-5e-6 -0.01298 0-0.01953-6e-6 -0.0072 0-0.01429 0-0.02148h2e-3c0.022202-15.183 12.31-27.459 27.498-27.459z" fill-opacity=".9913" opacity=".478"/><path d="m125 25.581v-7.5807c-15.202 0-27.5 12.298-27.5 27.5h7.5807c0-11.008 8.9113-19.919 19.919-19.919z" opacity=".661" stroke-width=".40323"/><path d="m144.92 45.5c0 11.008-8.9113 19.919-19.919 19.919v7.5807c15.202 0 27.5-12.298 27.5-27.5z" stroke-width=".40323"/><path d="m117.26 63.847c-1.2097-0.5242-2.3387-1.129-3.3871-1.8548-0.5242-0.3629-1.0484-0.72581-1.5323-1.129-2.4597-2.0161-4.4355-4.6371-5.6855-7.621-0.5242-1.2097-0.8871-2.4597-1.1694-3.75-0.28226-1.2903-0.40323-2.6613-0.40323-4.0323h-7.5807c0 15.202 12.298 27.5 27.5 27.5v-7.5807c-2.7419 0.04032-5.3629-0.5242-7.742-1.5323z" opacity=".342" stroke-width=".40323"/></g></svg>
