<?xml version="1.0" encoding="UTF-8" standalone="no"?>
<!-- Generator: Adobe Illustrator 19.1.0, SVG Export Plug-In . SVG Version: 6.00 Build 0)  -->

<svg
   xmlns:dc="http://purl.org/dc/elements/1.1/"
   xmlns:cc="http://creativecommons.org/ns#"
   xmlns:rdf="http://www.w3.org/1999/02/22-rdf-syntax-ns#"
   xmlns:svg="http://www.w3.org/2000/svg"
   xmlns="http://www.w3.org/2000/svg"
   xmlns:sodipodi="http://sodipodi.sourceforge.net/DTD/sodipodi-0.dtd"
   xmlns:inkscape="http://www.inkscape.org/namespaces/inkscape"
   version="1.1"
   id="Layer_1"
   x="0px"
   y="0px"
   viewBox="0 0 250 91"
   enable-background="new 0 0 181.3 182"
   xml:space="preserve"
   sodipodi:docname="usercrunch.svg"
   width="250"
   height="91"
   inkscape:version="0.92.2 (5c3e80d, 2017-08-06)"><metadata
     id="metadata31"><rdf:RDF><cc:Work
         rdf:about=""><dc:format>image/svg+xml</dc:format><dc:type
           rdf:resource="http://purl.org/dc/dcmitype/StillImage" /><dc:title></dc:title></cc:Work></rdf:RDF></metadata><defs
     id="defs29" /><sodipodi:namedview
     pagecolor="#ffffff"
     bordercolor="#666666"
     borderopacity="1"
     objecttolerance="10"
     gridtolerance="10"
     guidetolerance="10"
     inkscape:pageopacity="0"
     inkscape:pageshadow="2"
     inkscape:window-width="1723"
     inkscape:window-height="898"
     id="namedview27"
     showgrid="false"
     fit-margin-top="0"
     fit-margin-left="0"
     fit-margin-right="0"
     fit-margin-bottom="0"
     inkscape:zoom="1.8338154"
     inkscape:cx="-7.8422711"
     inkscape:cy="12.205227"
     inkscape:window-x="0"
     inkscape:window-y="0"
     inkscape:window-maximized="0"
     inkscape:current-layer="Layer_1" /><g
     id="g4608"
     transform="matrix(0.4032267,0,0,0.4032267,154.67367,15.31967)"><path
       style="opacity:0.66100003;fill:#ffffff"
       inkscape:connector-curvature="0"
       id="path22"
       d="M -73.59053,25.447012 V 6.6470125 c -37.7,0 -68.2,30.4999995 -68.2,68.2000005 h 18.8 c 0,-27.3 22.1,-49.400001 49.4,-49.400001 z" /><path
       style="fill:#ffffff"
       inkscape:connector-curvature="0"
       id="path2"
       d="m -24.190528,74.847013 c 0,27.299997 -22.1,49.399997 -49.400002,49.399997 v 18.8 c 37.700002,0 68.200002,-30.5 68.200002,-68.199997 z" /><path
       style="opacity:0.25799997;fill:#ffffff"
       inkscape:connector-curvature="0"
       id="path18"
       d="m -92.79053,120.34701 c -3,-1.3 -5.8,-2.8 -8.4,-4.6 -1.3,-0.9 -2.6,-1.8 -3.8,-2.8 -6.1,-5 -11,-11.5 -14.1,-18.899997 -1.3,-3 -2.2,-6.1 -2.9,-9.3 -0.7,-3.2 -1,-6.6 -1,-10 h -18.8 c 0,37.699997 30.5,68.199997 68.2,68.199997 v -18.8 c -6.8,0.1 -13.3,-1.3 -19.2,-3.8 z" /><path
       id="path20"
       d="m -73.58957,-11.952755 c -47.9,0 -86.80078,38.898827 -86.80078,86.798828 0,47.899997 38.90078,86.800787 86.80078,86.800787 47.900006,0 86.79883,-38.90079 86.79883,-86.800787 0,-47.900001 -38.898824,-86.798828 -86.79883,-86.798828 z m 0,18.5996086 V 25.447635 c -27.28427,0 -49.37298,22.07329 -49.39844,49.351563 0.003,3.382389 0.30168,6.763835 0.99805,9.947265 0.7,3.2 1.60039,6.300782 2.90039,9.300782 3.1,7.399995 7.99961,13.900385 14.09961,18.900395 1.2,1 2.49883,1.89882 3.79883,2.79882 2.6,1.8 5.40039,3.29961 8.40039,4.59961 5.9,2.5 12.40117,3.90077 19.20117,3.80079 v 0.0996 c 27.300006,0 49.398439,-22.10039 49.398439,-49.400387 h 18.800782 c 0,37.699997 -30.499215,68.201177 -68.199221,68.201177 v -0.0996 c -37.66659,0 -68.14522,-30.44775 -68.19922,-68.101567 h -0.002 c 0,-0.01704 0.002,-0.03374 0.002,-0.05078 -1e-5,-0.01638 -0.002,-0.03244 -0.002,-0.04883 h 0.002 c 0.054,-37.653818 30.53263,-68.0996094 68.19922,-68.0996094 z"
       style="opacity:0.844;fill:#ffffff"
       inkscape:connector-curvature="0" /></g><rect
     style="opacity:0.00100002;fill:#ffffff;fill-opacity:1;stroke:none;stroke-width:2.5;stroke-linecap:round;stroke-linejoin:round;stroke-miterlimit:4;stroke-dasharray:none;stroke-dashoffset:0;stroke-opacity:1"
     id="rect4175"
     width="250"
     height="91"
     x="0"
     y="-4.0454324e-014" /></svg>