<?xml version="1.0" encoding="UTF-8"?>
<svg enable-background="new 0 0 368.5 180.1" version="1.1" viewBox="0 0 250 91" xml:space="preserve" xmlns="http://www.w3.org/2000/svg" xmlns:cc="http://creativecommons.org/ns#" xmlns:dc="http://purl.org/dc/elements/1.1/" xmlns:rdf="http://www.w3.org/1999/02/22-rdf-syntax-ns#"><metadata><rdf:RDF><cc:Work rdf:about=""><dc:format>image/svg+xml</dc:format><dc:type rdf:resource="http://purl.org/dc/dcmitype/StillImage"/><dc:title/></cc:Work></rdf:RDF></metadata><g transform="matrix(.27884 0 0 .27884 140.61 48.001)" fill="#fff"><g opacity=".9"><path d="m-69.35 115.79c-27.808-3.23-52.36-14.58-72.46-33.48-50.61-47.61-53.08-126.85-5.54-177.38 18.08-19.22 40.46-31.71 66.66-37.19 11.79-2.47 33.81-2.98 44.88-1.05 52.53 9.19 93.22 48.864 103.52 100.95 2.34 11.78 2.34 34.639 0 46.42-8.72 44.06-39.59 80.12-81.49 95.17-17.67 6.35-37.36 8.67-55.57 6.56zm40.59-15.76c47.71-12.88 80.62-51.4 84.65-99.091 3.97-46.903-19.89-89.671-61.8-110.78-15.14-7.63-31.25-11.31-49.51-11.31-31.36 0-56.49 10.16-78.79 31.851-14.79 14.389-25.09 31.912-30.5 51.872-2.41 8.917-2.64 11.397-2.64 28.277 0 16.88 0.23 19.36 2.64 28.28 5.41 19.96 15.71 37.48 30.5 51.87 16.35 15.9 34.918 25.805 56.88 30.34 10.47 2.18 38.49 1.42 48.57-1.31zm-108.33-69.404c2.76-0.05 3.85 0.05 7.21 0.02 0.97 3.57 3.54 13.205 3.94 13.205 0.41 0 3.17-9.635 4.19-13.205 3.49 0.01 4.44-0.03 6.48 0.127l-7.14 22.078h-3.55-3.56zm27.44 21.214c-4.8-1.93-7.18-10.64-4.34-15.93 2.44-4.56 10.52-6.41 15.886-3.63 6.846 3.54 6.846 15.6 0 19.14-3.056 1.59-8.196 1.77-11.546 0.42zm9.13-5.21c4.376-6.24-1.74-15.33-6.87-10.21-2.04 2.04-2.04 8.82 0 10.86 2.22 2.22 5.05 1.95 6.87-0.65zm10.207-15.572 5.353 0.1v21.547h-5.63zm13.663 20.782c-3.25-1.31-5.55-5.48-5.49-9.94 0.1-5.02 1.49-7.64 5.16-9.54 4.8-2.48 9.73-1.95 13.1 1.41 1.6 1.61 2.92 4.285 2.92 4.875-3.353 0.04-2.826 0.02-5.604-0.05-2.82-6.988-9.396-3.844-9.396 2.814 0 6.61 5.953 10.294 9.319 2.605 1.719-0.198 4.183-0.168 5.633-0.168-0.08 2.77-1.323 4.229-3.164 6.372-2.934 2.924-7.748 3.528-12.478 1.618zm20.46-1.91c-1.869-1.997-3.27-3.51-3.27-8.08 0-3.55 1.546-6.229 3.27-8.08 3.75-3.35 10.001-3.862 13.156-1.652s4.928 5.189 4.928 11.723c-2.332 0.296-3.809 0.138-7.824 0-4.546-0.146-4.985 0.03-7.903-0.145 0.405 5.647 7.498 6.657 10.331 2.187 2.43 0.195 2.939 0.137 4.396 0.133 0.57-1e-3 -1.044 3.025-2.504 4.375-3.522 3.047-11.035 3.44-14.58-0.461zm12.438-10.581c-0.82-1.24-1.053-3.999-5.208-3.999-3.426 0-3.95 2.759-4.77 3.999 3.536 0.06 9.377 0.128 9.978 0zm-46.915-16.477c2.148 0.03 3.786 0.124 5.707 0.146 0 4.588 1.133 4.832-3 4.832-3.552 0-2.707-0.536-2.707-4.978zm5.197-19.04-0.32-29.216s0.47-10.754 11.32-10.672c10.85 0.08 11.42 11.064 11.42 11.064l-0.1 29.428s-1.59 9.2331-11.48 9.1051c-9.88-0.127-10.87-9.7093-10.87-9.7093z"/><path d="m-85.47 3.8317-0.32-29.216s0.47-10.754 11.32-10.672c10.85 0.08 11.42 11.064 11.42 11.064l-0.1 29.428s-1.59 9.2331-11.48 9.1051c-9.88-0.127-10.87-9.7093-10.87-9.7093z"/><path d="m-111.03 3.8317-0.32-29.216s0.47-10.754 11.32-10.672c10.848 0.08 11.418 11.064 11.418 11.064l-0.1 29.428s-1.59 9.2331-11.478 9.1051c-9.88-0.127-10.87-9.7093-10.87-9.7093z"/><path d="m-137 3.8317-0.32-4.2682s0.47-10.754 11.32-10.672c10.84 0.08 11.41 11.064 11.41 11.064l-0.1 4.4804s-1.59 9.2331-11.47 9.1051c-9.88-0.127-10.87-9.7093-10.87-9.7093z"/><path d="m-59.496 3.8317-0.32-53.216s0.47-10.754 11.32-10.672c10.85 0.08 11.42 11.064 11.42 11.064l-0.1 53.428s-1.59 9.2331-11.48 9.1051c-9.88-0.127-10.87-9.7093-10.87-9.7093z"/></g><path d="m-30.96 50.23c0-2.7 3.97-7.15 11.29-12.67 4.5-3.39 5.03-7.879 1.24-9.609-4.431-0.828-6.239 2.76-5.726 6.427-3.3 0.32-3.923 0.125-6.47-0.23 0.94-8.636 5.796-11.298 10.236-11.298 5.14 0 9.08 2.4 10.38 6.34 0.8396 6.223 0.72 7.38-10.95 16.61l-2.5 1.98c4.833 0.04 9.669-0.08 14.5 0.05v4.978h-11-11v-2.62zm33-6.88v-9.5h-6.8527l-0.1473-5.044s1.4623-0.02 4.7992-0.903c3.3369-0.882 3.5112-4.184 3.5112-4.184 2.0184 0.163 3.5136 0.131 5.6896 0.131v14.5 14.5h-3.5-3.5z"/><path d="m-33.496 3.8317-0.32-53.216s0.47-10.754 11.32-10.672c10.85 0.08 11.42 11.064 11.42 11.064l-0.1 53.428s-1.59 9.2331-11.48 9.1051c-9.88-0.127-10.87-9.7093-10.87-9.7093z"/><path d="m-6.6714 3.8317-0.32-75.216s0.47-10.754 11.32-10.672c10.85 0.08 11.42 11.064 11.42 11.064l-0.1 75.428s-1.59 9.2331-11.48 9.1051c-9.88-0.127-10.87-9.7093-10.87-9.7093z"/></g></svg>
