<?xml version="1.0" encoding="UTF-8" standalone="no"?>
<!-- Created with Inkscape (http://www.inkscape.org/) -->

<svg
   xmlns:dc="http://purl.org/dc/elements/1.1/"
   xmlns:cc="http://creativecommons.org/ns#"
   xmlns:rdf="http://www.w3.org/1999/02/22-rdf-syntax-ns#"
   xmlns:svg="http://www.w3.org/2000/svg"
   xmlns="http://www.w3.org/2000/svg"
   xmlns:sodipodi="http://sodipodi.sourceforge.net/DTD/sodipodi-0.dtd"
   xmlns:inkscape="http://www.inkscape.org/namespaces/inkscape"
   width="250"
   height="91"
   viewBox="0 0 250 91"
   id="svg2"
   version="1.1"
   inkscape:version="0.92.2 (5c3e80d, 2017-08-06)"
   sodipodi:docname="wakefield.svg">
  <defs
     id="defs4" />
  <sodipodi:namedview
     id="base"
     pagecolor="#ffffff"
     bordercolor="#666666"
     borderopacity="1.0"
     inkscape:pageopacity="0.0"
     inkscape:pageshadow="2"
     inkscape:zoom="1.9799"
     inkscape:cx="85.022715"
     inkscape:cy="27.908"
     inkscape:document-units="px"
     inkscape:current-layer="layer1"
     showgrid="false"
     inkscape:window-width="1920"
     inkscape:window-height="1046"
     inkscape:window-x="-11"
     inkscape:window-y="-11"
     inkscape:window-maximized="1"
     units="px" />
  <metadata
     id="metadata7">
    <rdf:RDF>
      <cc:Work
         rdf:about="">
        <dc:format>image/svg+xml</dc:format>
        <dc:type
           rdf:resource="http://purl.org/dc/dcmitype/StillImage" />
        <dc:title></dc:title>
      </cc:Work>
    </rdf:RDF>
  </metadata>
  <g
     inkscape:label="Layer 1"
     inkscape:groupmode="layer"
     id="layer1"
     transform="translate(0,-961.4)">
    <rect
       style="opacity:0.001;fill:#ffffff;fill-opacity:1;stroke:none;stroke-width:2.5;stroke-linecap:round;stroke-linejoin:round;stroke-miterlimit:4;stroke-dasharray:none;stroke-dashoffset:0;stroke-opacity:1"
       id="rect4175"
       width="250"
       height="91"
       x="0"
       y="961.4" />
    <path
       style="fill:#ffffff;stroke-width:0.539482"
       inkscape:connector-curvature="0"
       d="m 145.48036,1018.6338 c 0,1.3487 -0.86317,2.2118 -1.99609,2.2118 -1.13291,0 -1.78029,-0.5934 -1.99608,-1.6724 -0.75527,1.2408 -2.31977,1.8343 -3.66848,1.8343 -4.04611,0 -6.63562,-3.7764 -6.63562,-7.5528 0,-3.8842 2.15792,-7.9843 6.47378,-7.9843 1.40265,0 2.75136,0.4855 3.83032,1.4027 v -5.4488 c 0,-1.3487 0.80922,-2.21189 1.99608,-2.21189 1.18686,0 1.99609,0.91709 1.99609,2.21189 z m -7.17511,-9.441 c -2.10398,0 -3.129,2.2119 -3.129,4.1001 0,1.8882 1.02502,4.0461 3.129,4.0461 2.21187,0 3.12899,-2.2119 3.12899,-4.208 0,-1.8881 -0.97107,-3.9382 -3.12899,-3.9382 m -12.62388,-7.7146 c 0,-1.3487 0.86317,-2.21184 1.99608,-2.21184 1.18686,0 1.99609,0.91714 1.99609,2.21184 v 17.2095 c 0,1.3487 -0.80923,2.2119 -1.99609,2.2119 -1.18686,0 -1.99608,-0.9171 -1.99608,-2.2119 z m -11.70676,13.1634 c 0.26974,1.9961 1.94214,2.9132 3.77637,2.9132 2.05004,0 3.50664,-1.6185 4.53165,-1.6185 0.86317,0 1.6724,0.8632 1.6724,1.7264 0,1.7263 -3.56058,3.3987 -6.58168,3.3987 -4.53165,0 -7.55275,-3.2908 -7.55275,-7.7146 0,-4.1 2.96715,-7.7685 7.17511,-7.7685 4.3698,0 7.22906,3.9382 7.22906,7.337 0,1.1868 -0.53948,1.7802 -1.78029,1.7802 z m 6.31194,-2.6974 c -0.21579,-1.7803 -1.34871,-3.0751 -3.23689,-3.0751 -1.78029,0 -2.96715,1.3487 -3.18295,3.0751 z m -11.49097,-10.0883 c 0,1.2408 -1.02501,2.3197 -2.26582,2.3197 -1.18686,0 -2.26583,-1.0789 -2.26583,-2.3197 0,-1.1329 1.07897,-2.21191 2.26583,-2.21191 1.18686,0.0539 2.26582,1.07901 2.26582,2.21191 m -4.31585,6.0961 c 0,-1.3487 0.80922,-2.2119 1.99608,-2.2119 1.18686,0 1.99608,0.9172 1.99608,2.2119 v 10.7357 c 0,1.3487 -0.80922,2.2119 -1.99608,2.2119 -1.18686,0 -1.99608,-0.9171 -1.99608,-2.2119 z m -7.930387,1.4566 h -0.91712 c -1.078964,0 -1.78029,-0.6474 -1.78029,-1.7803 0,-1.025 0.755275,-1.7803 1.78029,-1.7803 h 0.91712 v -2.05 c 0,-2.9671 1.78029,-4.58559 4.207957,-4.58559 1.40266,0 2.80531,0.43158 2.80531,1.83419 0,1.1869 -0.53948,1.7264 -1.6724,1.7264 -0.64737,0 -1.3487,0 -1.3487,1.4566 v 1.6724 h 1.24081 c 1.18686,0 2.05003,0.4855 2.05003,1.7803 0,1.2408 -0.86317,1.7803 -2.05003,1.7803 h -1.24081 v 9.2791 c 0,1.3487 -0.863172,2.2118 -1.996084,2.2118 -1.18686,0 -1.996083,-0.9171 -1.996083,-2.2118 z m -12.677827,5.233 c 0.269741,1.9961 1.942135,2.9132 3.776374,2.9132 2.050032,0 3.506633,-1.6185 4.531649,-1.6185 0.863171,0 1.672394,0.8632 1.672394,1.7264 0,1.7263 -3.560581,3.3987 -6.58168,3.3987 -4.531649,0 -7.552748,-3.2908 -7.552748,-7.7146 0,-4.1 2.967151,-7.7685 7.17511,-7.7685 4.369804,0 7.229059,3.9382 7.229059,7.337 0,1.1868 -0.539482,1.7802 -1.780291,1.7802 z m 6.311939,-2.6974 c -0.215792,-1.7803 -1.348705,-3.0751 -3.236891,-3.0751 -1.780291,0 -2.967151,1.3487 -3.182944,3.0751 z m -23.089828,-10.466 c 0,-1.3487 0.863171,-2.21184 1.996083,-2.21184 1.186861,0 1.996084,0.91714 1.996084,2.21184 v 9.387 l 4.423752,-4.2619 c 0.647378,-0.5934 1.294757,-0.8632 1.834238,-0.8632 1.025016,0 1.726343,0.9172 1.726343,1.8343 0,0.5934 -0.215793,1.0789 -0.755275,1.6184 l -3.560581,3.183 4.693493,5.5027 c 0.377638,0.4316 0.485534,0.9171 0.485534,1.3487 0,1.079 -0.863171,1.8882 -1.888187,1.8882 -0.701327,0 -1.294757,-0.4316 -1.942135,-1.2408 l -4.909286,-6.0422 h -0.05395 v 4.9093 c 0,1.3487 -0.863171,2.2118 -1.996083,2.2118 -1.186861,0 -1.996084,-0.9171 -1.996084,-2.2118 z m -1.834239,16.7779 c 0,1.025 0,2.6435 -1.942135,2.6435 -1.18686,0 -1.672394,-0.6474 -1.942135,-1.7264 -1.025016,1.2408 -2.265824,1.8882 -3.830322,1.8882 -3.776374,0 -6.635628,-3.1829 -6.635628,-7.7146 0,-4.4237 2.967151,-7.7685 6.635628,-7.7685 1.456602,0 2.913203,0.5934 3.830322,1.8342 0.107897,-0.971 0.971068,-1.6724 1.942135,-1.6724 1.942135,0 1.942135,1.6185 1.942135,2.6435 z m -7.121162,-0.8631 c 2.10398,0 3.075048,-2.104 3.075048,-4.0462 0,-1.9421 -0.971068,-4.1 -3.075048,-4.1 -2.211876,0 -3.182943,2.1579 -3.182943,4.1 0,1.9422 1.025015,4.0462 3.182943,4.0462 m -24.81617,-2.9672 -4.477701,-8.4699 c -0.323689,-0.5934 -0.917119,-0.971 -1.618446,-1.025 -1.132912,-0.1079 -2.103979,0.7553 -2.211876,1.8882 -0.05395,0.3776 0.05395,0.8092 0.215793,1.1329 l 6.365887,12.0844 c 0.32369,0.5934 0.91712,0.9711 1.618446,1.025 0.863171,0.054 1.672394,-0.4316 2.050032,-1.1868 l 4.4777,-9.6028 c 0.107897,-0.2158 0.161845,-0.4855 0.161845,-0.7013 0.107896,-1.133 -0.755275,-2.158 -1.888187,-2.2119 -0.863171,-0.054 -1.618446,0.4316 -1.996083,1.1329 z"
       id="path5089" />
    <path
       style="fill:#ffffff;stroke-width:0.539482;fill-opacity:0.99130434;opacity:0.505"
       inkscape:connector-curvature="0"
       d="m 54.307904,999.85979 c 0,1.13291 -0.917119,2.05001 -2.050031,2.05001 -1.132912,0 -2.050032,-0.9171 -2.050032,-2.05001 0,-1.13292 0.91712,-2.05003 2.050032,-2.05003 1.132912,0 2.050031,0.91711 2.050031,2.05003 m 2.481617,-5.12508 c 0,1.13291 -0.917119,2.05003 -2.050031,2.05003 -1.132912,0 -2.050032,-0.91712 -2.050032,-2.05003 0,-1.13291 0.91712,-2.05003 2.050032,-2.05003 1.132912,0 2.050031,0.91712 2.050031,2.05003 m -4.585596,9.87249 c 0,-1.1329 -0.91712,-2.05 -2.050032,-2.05 -1.132912,0 -2.050031,0.9171 -2.050031,2.05 0,0.2698 0.05395,0.5395 0.161844,0.7553 -0.59343,0.1618 -1.078964,0.5395 -1.348705,1.079 l -3.668477,7.9304 -0.59343,-0.7553 c -0.323689,-0.5935 -0.91712,-0.9711 -1.618446,-1.025 -1.132912,-0.1079 -2.157928,0.7552 -2.211876,1.8881 -0.05395,0.3777 0.05395,0.8093 0.215793,1.133 l 2.427668,4.4237 c 0.32369,0.5934 0.91712,0.9711 1.672395,1.025 0.863171,0.054 1.672394,-0.4316 2.050031,-1.1868 l 5.448768,-11.5989 c 0.107896,-0.2158 0.161845,-0.4855 0.161845,-0.7013 0,-0.3237 -0.05395,-0.6474 -0.161845,-0.9171 0.863171,-0.2698 1.564498,-1.079 1.564498,-2.0501 M 225,1019.7127 c 0,0.8092 -0.53948,1.3487 -1.34871,1.3487 -0.80922,0 -1.3487,-0.4855 -1.3487,-1.3487 v -19.4213 c 0,-0.80925 0.53948,-1.34873 1.3487,-1.34873 0.80923,0 1.34871,0.48553 1.34871,1.34873 z m -5.77246,-19.2595 c 0.91712,0 1.6724,0.7013 1.6724,1.5106 0,0.8092 -0.75528,1.5105 -1.6724,1.5105 -0.91712,0 -1.67239,-0.7013 -1.67239,-1.5105 0,-0.8093 0.75527,-1.5106 1.67239,-1.5106 m 1.34871,19.2595 c 0,0.8092 -0.53948,1.3487 -1.34871,1.3487 -0.80922,0 -1.3487,-0.4855 -1.3487,-1.3487 v -12.7857 c 0,-0.8092 0.53948,-1.3487 1.3487,-1.3487 0.80923,0 1.34871,0.4855 1.34871,1.3487 z m -8.52382,-14.1344 c 2.75136,0 4.42375,0.8632 4.42375,1.8882 0,0.5395 -0.48553,1.0789 -1.13291,1.0789 -1.02501,0 -1.4566,-0.8092 -3.29084,-0.8092 -3.34479,0 -4.69349,3.0211 -4.69349,5.5567 0,2.5356 1.3487,5.5567 4.69349,5.5567 1.88819,0 2.42767,-0.8632 3.29084,-0.8632 0.59343,0 1.02502,0.3776 1.02502,1.0789 0,0.9172 -1.51055,1.9422 -4.31586,1.9422 -5.01718,0 -7.3909,-3.7224 -7.3909,-7.7146 0,-3.9922 2.42767,-7.7146 7.3909,-7.7146 m -21.68717,1.3487 c 0,-0.8092 0.53948,-1.3487 1.3487,-1.3487 0.80923,0 1.34871,0.4855 1.34871,1.3487 v 0.5934 l 0.054,0.054 c 1.18686,-1.4027 2.9132,-1.9961 4.53164,-1.9961 2.53557,0 5.71851,1.4566 5.71851,5.7185 v 8.362 c 0,0.8092 -0.53948,1.3487 -1.3487,1.3487 -0.80923,0 -1.34871,-0.4856 -1.34871,-1.3487 v -8.2002 c 0,-2.6434 -1.99608,-3.7224 -3.77637,-3.7224 -1.78029,0 -3.77637,1.079 -3.77637,3.7224 v 8.2541 c 0,0.8092 -0.53949,1.3487 -1.34871,1.3487 -0.80922,0 -1.3487,-0.4855 -1.3487,-1.3487 v -12.7857 z m -14.67391,0 c 0,-0.8092 0.53948,-1.3487 1.3487,-1.3487 0.80923,0 1.34871,0.4855 1.34871,1.3487 v 8.0383 c 0,2.5895 1.24081,3.9382 3.77637,3.9382 2.53557,0 3.77638,-1.3487 3.77638,-3.9382 v -8.0383 c 0,-0.8092 0.53948,-1.3487 1.3487,-1.3487 0.80922,0 1.3487,0.4855 1.3487,1.3487 v 8.0922 c 0,4.4238 -3.18294,6.0422 -6.52773,6.0422 -3.34479,0 -6.52773,-1.6184 -6.52773,-6.0422 v -8.0922 z m -8.90145,-1.3487 c 4.63954,0 7.22905,3.7224 7.22905,7.7146 0,3.9922 -2.58951,7.7146 -7.22905,7.7146 -4.63955,0 -7.22906,-3.7224 -7.22906,-7.7146 0,-3.9922 2.58951,-7.7146 7.22906,-7.7146 m 0,13.2713 c 3.34478,0 4.4777,-3.0211 4.4777,-5.5567 0,-2.5356 -1.18686,-5.5567 -4.4777,-5.5567 -3.34479,0 -4.47771,3.0211 -4.47771,5.5567 -0.0539,2.5895 1.13292,5.5567 4.47771,5.5567 m -12.35414,-13.2713 c 2.75136,0 4.42375,0.8632 4.42375,1.8882 0,0.5395 -0.48553,1.0789 -1.13291,1.0789 -1.02502,0 -1.4566,-0.8092 -3.29084,-0.8092 -3.34479,0 -4.6935,3.0211 -4.6935,5.5567 0,2.5356 1.34871,5.5567 4.6935,5.5567 1.88818,0 2.42767,-0.8632 3.29084,-0.8632 0.59343,0 1.02501,0.3776 1.02501,1.0789 0,0.9172 -1.51055,1.9422 -4.31585,1.9422 -5.01718,0 -7.3909,-3.7224 -7.3909,-7.7146 0,-3.9922 2.42766,-7.7146 7.3909,-7.7146"
       id="path5091" />
  </g>
</svg>
