<?xml version="1.0" encoding="UTF-8"?>
<svg version="1.1" viewBox="0 0 250 91" xmlns="http://www.w3.org/2000/svg" xmlns:cc="http://creativecommons.org/ns#" xmlns:dc="http://purl.org/dc/elements/1.1/" xmlns:rdf="http://www.w3.org/1999/02/22-rdf-syntax-ns#">
<metadata>
<rdf:RDF>
<cc:Work rdf:about="">
<dc:format>image/svg+xml</dc:format>
<dc:type rdf:resource="http://purl.org/dc/dcmitype/StillImage"/>
<dc:title/>
</cc:Work>
</rdf:RDF>
</metadata>
<g transform="translate(0,-961.4)" fill="#fff">
<path d="m145.48 1018.6c0 1.3487-0.86317 2.2118-1.9961 2.2118-1.1329 0-1.7803-0.5934-1.9961-1.6724-0.75527 1.2408-2.3198 1.8343-3.6685 1.8343-4.0461 0-6.6356-3.7764-6.6356-7.5528 0-3.8842 2.1579-7.9843 6.4738-7.9843 1.4026 0 2.7514 0.4855 3.8303 1.4027v-5.4488c0-1.3487 0.80922-2.2119 1.9961-2.2119s1.9961 0.91709 1.9961 2.2119zm-7.1751-9.441c-2.104 0-3.129 2.2119-3.129 4.1001s1.025 4.0461 3.129 4.0461c2.2119 0 3.129-2.2119 3.129-4.208 0-1.8881-0.97107-3.9382-3.129-3.9382m-12.624-7.7146c0-1.3487 0.86317-2.2118 1.9961-2.2118 1.1869 0 1.9961 0.91714 1.9961 2.2118v17.21c0 1.3487-0.80923 2.2119-1.9961 2.2119s-1.9961-0.9171-1.9961-2.2119zm-11.707 13.163c0.26974 1.9961 1.9421 2.9132 3.7764 2.9132 2.05 0 3.5066-1.6185 4.5316-1.6185 0.86317 0 1.6724 0.8632 1.6724 1.7264 0 1.7263-3.5606 3.3987-6.5817 3.3987-4.5316 0-7.5528-3.2908-7.5528-7.7146 0-4.1 2.9672-7.7685 7.1751-7.7685 4.3698 0 7.2291 3.9382 7.2291 7.337 0 1.1868-0.53948 1.7802-1.7803 1.7802zm6.3119-2.6974c-0.21579-1.7803-1.3487-3.0751-3.2369-3.0751-1.7803 0-2.9672 1.3487-3.183 3.0751zm-11.491-10.088c0 1.2408-1.025 2.3197-2.2658 2.3197-1.1869 0-2.2658-1.0789-2.2658-2.3197 0-1.1329 1.079-2.2119 2.2658-2.2119 1.1869 0.0539 2.2658 1.079 2.2658 2.2119m-4.3158 6.0961c0-1.3487 0.80922-2.2119 1.9961-2.2119s1.9961 0.9172 1.9961 2.2119v10.736c0 1.3487-0.80922 2.2119-1.9961 2.2119s-1.9961-0.9171-1.9961-2.2119zm-7.9304 1.4566h-0.91712c-1.079 0-1.7803-0.6474-1.7803-1.7803 0-1.025 0.75528-1.7803 1.7803-1.7803h0.91712v-2.05c0-2.9671 1.7803-4.5856 4.208-4.5856 1.4027 0 2.8053 0.43158 2.8053 1.8342 0 1.1869-0.53948 1.7264-1.6724 1.7264-0.64737 0-1.3487 0-1.3487 1.4566v1.6724h1.2408c1.1869 0 2.05 0.4855 2.05 1.7803 0 1.2408-0.86317 1.7803-2.05 1.7803h-1.2408v9.2791c0 1.3487-0.86317 2.2118-1.9961 2.2118-1.1869 0-1.9961-0.9171-1.9961-2.2118zm-12.678 5.233c0.26974 1.9961 1.9421 2.9132 3.7764 2.9132 2.05 0 3.5066-1.6185 4.5316-1.6185 0.86317 0 1.6724 0.8632 1.6724 1.7264 0 1.7263-3.5606 3.3987-6.5817 3.3987-4.5316 0-7.5527-3.2908-7.5527-7.7146 0-4.1 2.9672-7.7685 7.1751-7.7685 4.3698 0 7.2291 3.9382 7.2291 7.337 0 1.1868-0.53948 1.7802-1.7803 1.7802zm6.3119-2.6974c-0.21579-1.7803-1.3487-3.0751-3.2369-3.0751-1.7803 0-2.9672 1.3487-3.1829 3.0751zm-23.09-10.466c0-1.3487 0.86317-2.2118 1.9961-2.2118 1.1869 0 1.9961 0.91714 1.9961 2.2118v9.387l4.4238-4.2619c0.64738-0.5934 1.2948-0.8632 1.8342-0.8632 1.025 0 1.7263 0.9172 1.7263 1.8343 0 0.5934-0.21579 1.0789-0.75528 1.6184l-3.5606 3.183 4.6935 5.5027c0.37764 0.4316 0.48553 0.9171 0.48553 1.3487 0 1.079-0.86317 1.8882-1.8882 1.8882-0.70133 0-1.2948-0.4316-1.9421-1.2408l-4.9093-6.0422h-0.05395v4.9093c0 1.3487-0.86317 2.2118-1.9961 2.2118-1.1869 0-1.9961-0.9171-1.9961-2.2118zm-1.8342 16.778c0 1.025 0 2.6435-1.9421 2.6435-1.1869 0-1.6724-0.6474-1.9421-1.7264-1.025 1.2408-2.2658 1.8882-3.8303 1.8882-3.7764 0-6.6356-3.1829-6.6356-7.7146 0-4.4237 2.9672-7.7685 6.6356-7.7685 1.4566 0 2.9132 0.5934 3.8303 1.8342 0.1079-0.971 0.97107-1.6724 1.9421-1.6724 1.9421 0 1.9421 1.6185 1.9421 2.6435zm-7.1212-0.8631c2.104 0 3.075-2.104 3.075-4.0462 0-1.9421-0.97107-4.1-3.075-4.1-2.2119 0-3.1829 2.1579-3.1829 4.1 0 1.9422 1.025 4.0462 3.1829 4.0462m-24.816-2.9672-4.4777-8.4699c-0.32369-0.5934-0.91712-0.971-1.6184-1.025-1.1329-0.1079-2.104 0.7553-2.2119 1.8882-0.05395 0.3776 0.05395 0.8092 0.21579 1.1329l6.3659 12.084c0.32369 0.5934 0.91712 0.9711 1.6184 1.025 0.86317 0.054 1.6724-0.4316 2.05-1.1868l4.4777-9.6028c0.1079-0.2158 0.16184-0.4855 0.16184-0.7013 0.1079-1.133-0.75528-2.158-1.8882-2.2119-0.86317-0.054-1.6184 0.4316-1.9961 1.1329z" stroke-width=".53948"/>
<path d="m54.308 999.86c0 1.1329-0.91712 2.05-2.05 2.05s-2.05-0.9171-2.05-2.05c0-1.1329 0.91712-2.05 2.05-2.05s2.05 0.91711 2.05 2.05m2.4816-5.1251c0 1.1329-0.91712 2.05-2.05 2.05s-2.05-0.91712-2.05-2.05 0.91712-2.05 2.05-2.05 2.05 0.91712 2.05 2.05m-4.5856 9.8725c0-1.1329-0.91712-2.05-2.05-2.05s-2.05 0.9171-2.05 2.05c0 0.2698 0.05395 0.5395 0.16184 0.7553-0.59343 0.1618-1.079 0.5395-1.3487 1.079l-3.6685 7.9304-0.59343-0.7553c-0.32369-0.5935-0.91712-0.9711-1.6184-1.025-1.1329-0.1079-2.1579 0.7552-2.2119 1.8881-0.05395 0.3777 0.05395 0.8093 0.21579 1.133l2.4277 4.4237c0.32369 0.5934 0.91712 0.9711 1.6724 1.025 0.86317 0.054 1.6724-0.4316 2.05-1.1868l5.4488-11.599c0.1079-0.2158 0.16184-0.4855 0.16184-0.7013 0-0.3237-0.05395-0.6474-0.16184-0.9171 0.86317-0.2698 1.5645-1.079 1.5645-2.0501m172.8 15.106c0 0.8092-0.53948 1.3487-1.3487 1.3487-0.80922 0-1.3487-0.4855-1.3487-1.3487v-19.421c0-0.80925 0.53948-1.3487 1.3487-1.3487 0.80923 0 1.3487 0.48553 1.3487 1.3487zm-5.7725-19.26c0.91712 0 1.6724 0.7013 1.6724 1.5106 0 0.8092-0.75528 1.5105-1.6724 1.5105s-1.6724-0.7013-1.6724-1.5105c0-0.8093 0.75527-1.5106 1.6724-1.5106m1.3487 19.26c0 0.8092-0.53948 1.3487-1.3487 1.3487-0.80922 0-1.3487-0.4855-1.3487-1.3487v-12.786c0-0.8092 0.53948-1.3487 1.3487-1.3487 0.80923 0 1.3487 0.4855 1.3487 1.3487zm-8.5238-14.134c2.7514 0 4.4238 0.8632 4.4238 1.8882 0 0.5395-0.48553 1.0789-1.1329 1.0789-1.025 0-1.4566-0.8092-3.2908-0.8092-3.3448 0-4.6935 3.0211-4.6935 5.5567s1.3487 5.5567 4.6935 5.5567c1.8882 0 2.4277-0.8632 3.2908-0.8632 0.59343 0 1.025 0.3776 1.025 1.0789 0 0.9172-1.5106 1.9422-4.3159 1.9422-5.0172 0-7.3909-3.7224-7.3909-7.7146s2.4277-7.7146 7.3909-7.7146m-21.687 1.3487c0-0.8092 0.53948-1.3487 1.3487-1.3487 0.80923 0 1.3487 0.4855 1.3487 1.3487v0.5934l0.054 0.054c1.1869-1.4027 2.9132-1.9961 4.5316-1.9961 2.5356 0 5.7185 1.4566 5.7185 5.7185v8.362c0 0.8092-0.53948 1.3487-1.3487 1.3487-0.80923 0-1.3487-0.4856-1.3487-1.3487v-8.2002c0-2.6434-1.9961-3.7224-3.7764-3.7224s-3.7764 1.079-3.7764 3.7224v8.2541c0 0.8092-0.53949 1.3487-1.3487 1.3487s-1.3487-0.4855-1.3487-1.3487v-12.786zm-14.674 0c0-0.8092 0.53948-1.3487 1.3487-1.3487 0.80923 0 1.3487 0.4855 1.3487 1.3487v8.0383c0 2.5895 1.2408 3.9382 3.7764 3.9382 2.5356 0 3.7764-1.3487 3.7764-3.9382v-8.0383c0-0.8092 0.53948-1.3487 1.3487-1.3487s1.3487 0.4855 1.3487 1.3487v8.0922c0 4.4238-3.1829 6.0422-6.5277 6.0422s-6.5277-1.6184-6.5277-6.0422v-8.0922zm-8.9014-1.3487c4.6395 0 7.229 3.7224 7.229 7.7146s-2.5895 7.7146-7.229 7.7146c-4.6396 0-7.2291-3.7224-7.2291-7.7146s2.5895-7.7146 7.2291-7.7146m0 13.271c3.3448 0 4.4777-3.0211 4.4777-5.5567s-1.1869-5.5567-4.4777-5.5567c-3.3448 0-4.4777 3.0211-4.4777 5.5567-0.0539 2.5895 1.1329 5.5567 4.4777 5.5567m-12.354-13.271c2.7514 0 4.4238 0.8632 4.4238 1.8882 0 0.5395-0.48553 1.0789-1.1329 1.0789-1.025 0-1.4566-0.8092-3.2908-0.8092-3.3448 0-4.6935 3.0211-4.6935 5.5567s1.3487 5.5567 4.6935 5.5567c1.8882 0 2.4277-0.8632 3.2908-0.8632 0.59343 0 1.025 0.3776 1.025 1.0789 0 0.9172-1.5106 1.9422-4.3158 1.9422-5.0172 0-7.3909-3.7224-7.3909-7.7146s2.4277-7.7146 7.3909-7.7146" fill-opacity=".9913" opacity=".505" stroke-width=".53948"/>
</g>
</svg>
