<?xml version="1.0" encoding="UTF-8"?>
<svg version="1.1" viewBox="0 0 250 91" xmlns="http://www.w3.org/2000/svg" xmlns:cc="http://creativecommons.org/ns#" xmlns:dc="http://purl.org/dc/elements/1.1/" xmlns:rdf="http://www.w3.org/1999/02/22-rdf-syntax-ns#">
<metadata>
<rdf:RDF>
<cc:Work rdf:about="">
<dc:format>image/svg+xml</dc:format>
<dc:type rdf:resource="http://purl.org/dc/dcmitype/StillImage"/>
<dc:title/>
</cc:Work>
</rdf:RDF>
</metadata>
<g transform="translate(0,-961.4)">
<path d="m69.533 1043.8c-7.6285-0.7691-14.333-3.5747-20.239-8.4692-1.0594-0.8779-3.5612-3.379-4.4486-4.4472-4.4972-5.4142-7.3823-11.865-8.2117-18.36-0.0559-0.4375-0.14399-1.0532-0.19584-1.3682-0.0978-0.5945-0.23078-2.5722-0.1786-2.6567 0.0164-0.026 0.60478-0.048 1.3076-0.048h1.2779l1.1526-1.1295c1.9678-1.9285 3.8623-3.5891 6.0115-5.2691l0.9733-0.7608-0.78417-0.02c-2.4711-0.064-6.6027 0.4324-9.2394 1.109-0.20513 0.053-0.3876 0.081-0.40549 0.063-0.0888-0.089 0.34159-2.4411 0.74951-4.0963 0.71123-2.8858 1.6175-5.2465 3.1552-8.2185 2.8255-5.4609 7.1221-10.199 12.37-13.641 4.4773-2.9365 9.74-4.913 15.019-5.6406 1.8924-0.2608 2.4625-0.2936 5.0912-0.2936 2.697 0 3.2498 0.034 5.2686 0.3222 9.5821 1.3691 18.331 6.577 24.154 14.379 1.458 1.9533 2.8422 4.2626 3.8335 6.3957 0.39088 0.8412 0.39637 0.8604 0.26105 0.9143-0.23884 0.095-2.5685 0.127-3.29 0.045-2.671-0.3028-5.3461-1.2616-8.0806-2.8961-4.49-2.6839-8.8495-3.5067-13.457-2.5401-3.529 0.7404-7.2751 2.7394-10.567 5.6386-0.93018 0.8193-2.5254 2.4402-3.1502 3.2007l-0.41366 0.5037 0.7006-0.5716c3.5032-2.8581 7.2236-4.4751 11.359-4.9373 0.85967-0.096 3.148-0.096 4.0093-2e-4 2.7971 0.3116 5.3224 1.067 7.6686 2.2937 2.1421 1.12 4.0581 1.7528 6.2049 2.0492 0.78076 0.1078 3.1635 0.1093 3.9139 0 1.8366-0.2614 3.5576-0.7752 5.1203-1.5287 0.29599-0.1427 0.54664-0.251 0.55699-0.2406 0.0599 0.06 0.74506 1.999 0.99221 2.808 0.76399 2.5009 1.2168 4.7999 1.4852 7.5413 0.1372 1.4011 0.15614 4.9054 0.0347 6.4277-0.39669 4.9745-1.9946 10.176-4.5164 14.701-3.7707 6.7661-9.5749 12.178-16.56 15.44-3.6063 1.6842-7.1971 2.7045-11.319 3.216-1.3997 0.1737-6.1969 0.2262-7.6139 0.083zm20.078-19.06c4.1104-0.2885 8.1781-1.2166 11.901-2.7153 0.80149-0.3226 2.8838-1.2936 2.848-1.328-9e-3 -0.01-0.34783 0.08-0.75337 0.1968-5.5095 1.5862-11.699 1.0783-18.1-1.4851-4.3099-1.7259-8.3577-4.1538-12.028-7.2146-5.7669-4.8093-11.562-7.9856-17.516-9.6007l-0.77911-0.2114-1.0346 0.2734c-4.285 1.132-8.6064 3.0548-12.706 5.6534l-0.40691 0.2579 0.34327 0.037c3.9422 0.4201 6.506 0.9288 9.8361 1.9516 4.9477 1.5196 10.022 4.0582 13.883 6.9458 2.4683 1.8459 5.9694 3.7486 9.0466 4.9164 0.92486 0.351 0.84873 0.3533 2.1661-0.065 1.3404-0.4262 2.8494-1.0356 4.258-1.7197 0.67929-0.3299 1.2448-0.5901 1.2567-0.5782 0.0337 0.034-1.5188 1.1849-2.3326 1.7298-0.40252 0.2694-1.1436 0.7364-1.6468 1.0377s-0.88981 0.5555-0.85914 0.5647c0.45701 0.1386 2.2426 0.5705 2.9514 0.7139 1.5283 0.3092 3.5834 0.5801 5.0276 0.6629 0.87649 0.051 3.8124 0.036 4.6457-0.023zm39.33 11.198c-3.575-0.342-6.9699-1.8877-9.3531-4.2585-2.2547-2.2429-3.6581-5.2071-4.0826-8.6232-0.12852-1.0343-0.0973-3.0852 0.063-4.1366 0.38328-2.5144 1.2215-4.5799 2.6732-6.5867 0.55642-0.7693 1.7803-2.0563 2.5217-2.6519 2.2389-1.7984 5.0002-2.9378 7.9232-3.2693 0.94921-0.1076 2.867-0.091 3.7866 0.033 3.7555 0.5057 7.1114 2.2864 9.2193 4.892 1.6083 1.9881 2.4182 4.164 2.5027 6.7239 0.0727 2.2038-0.28114 3.9123-1.193 5.7594-1.0853 2.1986-2.8149 3.92-5.079 5.055-1.2859 0.6446-2.602 1.0226-3.5601 1.0226-0.7912 0-1.5151-0.3191-1.8965-0.8361-0.18904-0.2563-0.40714-0.8267-0.40714-1.0649 0-0.098-0.0186-0.1964-0.0412-0.2191-0.0227-0.023-0.24141 0.1476-0.48606 0.3784-0.85198 0.8037-1.9729 1.4188-3.0033 1.648-0.62289 0.1386-1.6253 0.1-2.3306-0.091-2.3127-0.624-4.0812-2.5624-4.6138-5.0571-0.14094-0.6601-0.17979-1.6884-0.0941-2.4907 0.27188-2.5466 1.2791-4.8268 2.8595-6.4733 0.73266-0.7633 1.4028-1.2735 2.2261-1.6947 1.0973-0.5613 2.2338-0.8371 3.4498-0.8371 1.8106 0 3.2531 0.6649 4.2806 1.9731 0.21683 0.276 0.41098 0.482 0.43144 0.4576 0.0205-0.024 0.16365-0.4663 0.3182-0.9822l0.28099-0.9381 1.6387-6e-4c0.9013-4e-4 1.6387 0.024 1.6387 0.055s-0.60081 2.5077-1.3351 5.5043c-0.73432 2.9966-1.3651 5.6363-1.4018 5.866-0.12313 0.7707 0.058 1.3758 0.43675 1.459 0.29353 0.065 0.88463-0.07 1.3774-0.3119 1.6733-0.8235 2.9769-3.0907 3.2814-5.7068 0.10751-0.9237 0.0424-2.636-0.13167-3.4617-0.40003-1.8975-1.177-3.3806-2.4173-4.6139-1.5719-1.5631-3.5311-2.4738-6.11-2.8403-0.95354-0.1356-2.783-0.1357-3.7031-4e-4 -4.9745 0.7316-8.4438 4.1701-9.3513 9.2684-0.16815 0.9447-0.22961 2.8292-0.12248 3.7552 0.3321 2.8706 1.4135 5.1269 3.3571 7.0046 1.8234 1.7616 4.2278 2.831 7.0149 3.1196 0.90306 0.094 2.7507 0.043 3.5368-0.098 2.3595-0.4218 4.3428-1.3471 5.9518-2.7772l0.42315-0.376h1.6673c1.9417 0 1.8088-0.1158 1.0421 0.9077-0.62016 0.8279-1.9002 2.1098-2.7132 2.7172-2.0488 1.5305-4.4185 2.4668-7.0114 2.7701-0.86988 0.1018-2.5473 0.1149-3.4646 0.027zm0.76337-9.8708c1.9586-0.5938 3.604-3.0287 3.7334-5.5247 0.0637-1.2295-0.24491-2.1224-0.99151-2.8686-0.86883-0.8684-1.9495-1.0856-3.2501-0.6534-0.66654 0.2216-1.1582 0.5391-1.7551 1.1334-1.1619 1.1569-1.847 2.7031-1.9184 4.3297-0.0526 1.1982 0.23642 2.0993 0.90495 2.8214 0.8068 0.8714 2.0005 1.1492 3.2767 0.7622zm32.902 9.8353c-0.33252-0.051-0.88117-0.1863-1.2192-0.3015-2.228-0.7587-3.4934-2.4087-4.0452-5.2747-0.1024-0.5318-0.11317-1.0542-0.11317-5.4881 0-4.4338 0.0108-4.9562 0.11317-5.488 0.58452-3.0358 1.9868-4.7327 4.4594-5.3965 1.5181-0.4076 3.6418-0.3631 5.0671 0.1061 2.2556 0.7424 3.5574 2.4123 4.0859 5.241 0.11597 0.6206 0.13443 1.0265 0.16139 3.5487l0.0305 2.8478h-9.4308v1.9009c0 2.133 0.0692 2.7598 0.37791 3.4227 0.38407 0.8248 0.93922 1.1765 1.9249 1.2192 0.79781 0.034 1.2074-0.086 1.651-0.4845 0.58163-0.5229 0.85073-1.3038 0.92494-2.684l0.0412-0.765h4.517l-0.0452 0.716c-0.17566 2.7821-1.113 4.7892-2.7432 5.8739-0.84213 0.5603-1.7452 0.8835-2.9142 1.0427-0.68261 0.093-2.1129 0.074-2.8433-0.037zm3.9907-15.026c-0.0688-1.9291-0.46018-2.836-1.4133-3.2743-0.27344-0.1257-0.42112-0.1463-1.0501-0.1463-0.64581 0-0.76869 0.018-1.0452 0.1542-0.94069 0.463-1.3017 1.3156-1.3563 3.2028l-0.0326 1.1296h4.9355zm13.169 15.062c-1.1976-0.1649-2.5111-0.7034-3.2866-1.3472-1.2878-1.0694-2.0524-2.8044-2.2889-5.194-0.0874-0.8832-0.0852-8.2467 3e-3 -9.1464 0.36882-3.7732 2.0922-5.8836 5.2778-6.4632 0.72633-0.1322 2.7531-0.1148 3.4366 0.029 1.7539 0.37 3.0084 1.1597 3.845 2.4201 0.39774 0.5992 0.59615 1.0263 0.85617 1.8431 0.38075 1.196 0.41083 1.5192 0.43794 4.7051l0.0248 2.9116h-9.4419l0.032 2.0524c0.0241 1.5467 0.0567 2.1596 0.13214 2.4873 0.20559 0.8927 0.60771 1.4932 1.2142 1.8133 0.29744 0.157 0.38101 0.1701 1.0859 0.1701 0.70694 0 0.79054-0.013 1.1253-0.1776 0.84883-0.4168 1.2389-1.2714 1.3058-2.8612l0.0368-0.875h4.52l-0.0392 0.7795c-0.1161 2.3078-0.8215 4.1046-2.0715 5.2768-0.79631 0.7466-1.7037 1.2046-2.9043 1.4657-0.66533 0.1446-2.5851 0.2087-3.3007 0.1103zm3.778-14.879c0-1.5365-0.25878-2.4945-0.82745-3.0632-0.44062-0.4406-0.73536-0.5408-1.5909-0.5408-0.6331 0-0.77675 0.021-1.0645 0.1504-0.61914 0.2799-1.0666 0.9305-1.2609 1.8329-0.0515 0.2393-0.11227 0.9004-0.13505 1.4692l-0.0414 1.0341h4.9202zm11.169 14.853c-0.8727-0.1921-1.5142-0.5554-2.1001-1.1894-0.49719-0.5379-0.76627-0.9992-1.0255-1.7581-0.44868-1.3137-0.43824-1.1208-0.43824-8.0954 0-6.5966 0-6.5887 0.29189-7.6886 0.46602-1.7544 1.4925-2.8966 3.0212-3.3619 0.53024-0.1614 1.9899-0.1638 2.5736-0.01 0.82622 0.2258 1.6123 0.6831 2.6939 1.5673 0.30326 0.2478 0.56579 0.4507 0.5834 0.4507 0.0176 0 0.032-2.0476 0.032-4.5503v-4.5503h4.5184v28.894l-4.2957-0.034-0.0348-2.1954-0.37173 0.4295c-1.1128 1.2855-1.9022 1.8108-3.0936 2.0587-0.67431 0.1403-1.7816 0.1528-2.3547 0.026zm4.1207-3.8461c0.20126-0.078 0.62367-0.3111 0.93869-0.5179l0.57277-0.3762v-12.67l-0.54277-0.3538c-0.29853-0.1946-0.72094-0.4272-0.93869-0.5171-0.47637-0.1964-1.2179-0.2603-1.6946-0.1459-0.44732 0.1073-0.8851 0.5086-1.1159 1.0227-0.33892 0.7553-0.34911 0.939-0.35152 6.3333-2e-3 5.1095 8e-3 5.342 0.26106 6.122 0.16196 0.4985 0.63184 1.041 1.0276 1.1864 0.39568 0.1453 1.3656 0.1012 1.8433-0.084zm14.335 3.8697c-0.95792-0.138-1.9937-0.5282-2.7668-1.0422-0.45292-0.301-1.1869-1.0309-1.51-1.5014-0.28499-0.4151-0.74362-1.3593-0.92496-1.9043-0.20165-0.606-0.40077-1.4509-0.35315-1.4985 0.02-0.02 0.90493-0.2769 1.9664-0.5707 1.9993-0.5535 2.0261-0.5568 2.0284-0.2497 2e-3 0.2799 0.27009 1.1638 0.48998 1.6158 0.28143 0.5786 0.71844 1.0325 1.2143 1.2612 0.29206 0.1347 0.48587 0.1735 0.9696 0.1937 0.7083 0.029 1.0213-0.041 1.4366-0.3231 0.64354-0.4376 0.88231-1.2953 0.61013-2.1913-0.26517-0.8731-0.97525-1.662-2.5558-2.8397-0.47252-0.352-1.2318-0.9174-1.6874-1.2564-2.1305-1.5854-3.1909-2.8243-3.7009-4.3236-0.98434-2.8938 0.36985-5.975 3.1312-7.1246 0.95671-0.3983 1.3468-0.4694 2.5752-0.4697 0.99335-2e-4 1.1791 0.018 1.719 0.1621 1.8375 0.4923 3.1932 1.5974 4.0835 3.3285 0.30074 0.5847 0.65778 1.5649 0.72644 1.9942l0.0384 0.24-1.8995 0.3205c-1.0447 0.1762-1.906 0.3159-1.914 0.3103-8e-3 -0.01-0.0872-0.261-0.17606-0.5677-0.20666-0.7131-0.35557-1.0005-0.72097-1.391-0.44599-0.4769-0.81141-0.6386-1.5181-0.672-0.78455-0.037-1.2146 0.095-1.6148 0.4941-0.35622 0.3556-0.47225 0.7141-0.42832 1.3236 0.075 1.041 0.7228 1.7514 3.2636 3.579 2.6221 1.8861 3.685 2.9624 4.4264 4.4824 0.52146 1.069 0.59704 1.4408 0.59594 2.9317-7.3e-4 1.2086-0.01 1.3016-0.17708 1.8455-0.29194 0.9493-0.62363 1.5051-1.3152 2.2037-0.55284 0.5585-0.67114 0.6442-1.3364 0.9681-0.74319 0.3617-1.3952 0.5627-2.1936 0.6762-0.53012 0.075-1.945 0.073-2.482-0.01zm-63.819-0.3529c-0.0238-0.024-0.0432-6.525-0.0432-14.447v-14.404h4.5824l-0.0322 28.861-2.2319 0.017c-1.2276 0.01-2.2514 0-2.2751-0.026zm-9.8531-34.296c-1.894-0.3427-3.1096-1.6291-3.4659-3.6675-0.12432-0.7111-0.0916-2.1078 0.0669-2.8516 0.51402-2.4128 1.9627-4.2177 4.6933-5.847 0.77089-0.46 2.5745-1.3276 3.7108-1.785l0.9546-0.3843 0.0181-0.8444c0.0431-2.0037-0.48269-2.9218-1.778-3.1049-0.49503-0.07-1.2335 0.018-1.6335 0.1944-0.757 0.334-1.1047 1.008-1.2548 2.4321l-0.0386 0.3659h-4.5093v-0.1545c0-0.085 0.0309-0.3765 0.0686-0.6478 0.4306-3.096 2.1983-5.0738 5.1499-5.7624 0.79887-0.1863 2.5924-0.2315 3.5638-0.09 2.3629 0.3448 3.9518 1.4951 4.5855 3.3197 0.35888 1.0332 0.33575 0.4793 0.38222 9.1578 0.0371 6.9298 0.0566 8.0877 0.14346 8.5277 0.0553 0.2801 0.10205 0.5879 0.1039 0.6842l4e-3 0.175h-2.1339c-1.6526 0-2.139-0.018-2.1566-0.08-0.0125-0.044-0.0723-0.416-0.13289-0.8272l-0.11023-0.74766-0.26287 0.1981c-0.55294 0.4165-1.413 0.95866-1.8472 1.1643-1.2407 0.5877-2.8263 0.8087-4.1208 0.5744zm4.153-3.9239c0.53942-0.2673 1.0511-0.701 1.5153-1.2844l0.32311-0.406v-2.7752c0-1.5264-0.0152-2.7753-0.0337-2.7753-0.0931 0-1.9437 1.188-2.4885 1.5974-1.5412 1.1584-2.2564 2.1467-2.4488 3.3839-0.12944 0.8322 9e-3 1.5616 0.37257 1.9641 0.4048 0.4481 0.7675 0.5655 1.6782 0.5434 0.56101-0.014 0.6507-0.034 1.0819-0.2479zm15.489 3.9614c-0.74028-0.1059-1.2789-0.2635-1.8538-0.5425-0.95348-0.4626-1.5613-1.1228-1.9461-2.114-0.36236-0.9332-0.36768-1.0573-0.36809-8.5922l-6.3e-4 -6.8876-2.4501-0.036-0.0338-3.723h2.4839v-5.7912h4.5184v5.7912h3.0566l-0.0338 3.723-3.0275 0.034 0.0191 6.4423c0.0214 7.2375-8e-3 6.8083 0.49511 7.2626 0.33435 0.3021 0.58373 0.3564 1.6382 0.3568l0.90714 4e-4v3.8796l-0.1432 0.032c-0.0787 0.018-0.27206 0.062-0.42957 0.099-0.3794 0.088-2.3486 0.1325-2.832 0.063zm11.373-0.01c-3.1494-0.4262-4.9252-2.1999-5.562-5.5555-0.12635-0.6658-0.13562-0.9611-0.16062-5.1173-0.0222-3.679-0.0103-4.5499 0.071-5.2502 0.40881-3.5212 1.9642-5.4902 4.8682-6.1627 0.77347-0.1792 2.6025-0.2299 3.4752-0.096 2.6708 0.4086 4.3368 1.8678 5.0866 4.4551 0.35311 1.2185 0.37349 1.4506 0.40186 4.5758l0.0264 2.9115h-9.4427l0.0299 2.0842c0.0266 1.8529 0.0445 2.1384 0.16216 2.5723 0.24301 0.8967 0.59427 1.3865 1.2118 1.6897 0.32763 0.1609 0.42357 0.1769 1.0603 0.1769 0.87233 0 1.2132-0.1306 1.6832-0.645 0.49889-0.5458 0.68961-1.1695 0.75635-2.4734l0.0423-0.8272 4.506-0.034-0.0394 0.7805c-0.1245 2.4674-0.97452 4.4794-2.3661 5.6005-0.68797 0.5542-1.738 1.0192-2.7706 1.2268-0.59239 0.1191-2.4192 0.1719-3.0399 0.088zm3.6782-14.877c0-2.5538-0.73573-3.6497-2.4502-3.6497-0.73177 0-1.168 0.1545-1.5785 0.5592-0.58375 0.5755-0.79378 1.2922-0.85192 2.9072l-0.0384 1.066h4.9189zm-57.118 14.422c-0.0195-0.079-0.95965-4.9258-2.0893-10.771l-2.0538-10.628 2.1614-0.017c1.1888-0.01 2.1744-0.01 2.1902 0.012 0.0158 0.015 0.46293 3.0069 0.99366 6.647 0.53072 3.64 0.97878 6.632 0.99568 6.6489 0.0169 0.017 0.66296-2.9525 1.4357-6.5984l1.4049-6.6291 3.3808-0.034 0.0963 0.5261c0.0529 0.2893 0.59165 3.2958 1.1971 6.6811 0.60546 3.3854 1.1088 6.1472 1.1185 6.1375 0.01-0.01 0.5485-2.9514 1.1973-6.5369 0.64883-3.5857 1.1959-6.5981 1.2158-6.6944l0.0361-0.175h2.1948c2.0607 0 2.1928 0.01 2.161 0.1114-0.0411 0.1356-4.9387 21.391-4.9387 21.434 0 0.017-0.82253 0.023-1.8278 0.013l-1.8278-0.017-1.2192-6.7776c-0.67059-3.7278-1.2361-6.7348-1.2568-6.6822-0.0207 0.053-0.64141 2.9163-1.3795 6.364s-1.3856 6.4618-1.4389 6.6981l-0.097 0.4295h-3.6149zm64.925 0.1016c-0.0238-0.024-0.0432-4.8784-0.0432-10.788v-10.745h4.3249l0.0173 1.2766 0.0172 1.2766 0.26544-0.4039c0.35219-0.5358 1.2242-1.3644 1.789-1.7 0.99634-0.5919 1.9154-0.8311 3.1932-0.8311h0.83v2.3547c0 1.295-0.0125 2.3546-0.0277 2.3546-0.0153 0-0.32313-0.072-0.68413-0.1599-0.92887-0.2262-2.0638-0.3231-2.7004-0.2306-1.0192 0.1481-1.9232 0.8055-2.2621 1.6452l-0.14859 0.3681-0.0318 7.796-0.0318 7.7958-2.2319 0.017c-1.2275 0.01-2.2514 0-2.2751-0.026z" fill="#fbffff" opacity=".5" stroke-width=".06364"/>
<path d="m70.615 1043.9c-1.7466-0.1333-3.4631-0.3628-4.9639-0.6639-8.2262-1.6498-15.742-6.1765-21.076-12.693-3.6471-4.4562-6.1381-9.5513-7.4306-15.198-0.0378-0.1651-0.0291-0.1764 0.10446-0.135 0.32777 0.1014 1.5942 0.7006 2.3094 1.0925 2.0605 1.129 3.963 2.5241 5.6653 4.154 1.0646 1.0194 1.7296 1.6086 2.5443 2.2543 3.5483 2.812 7.497 4.449 11.829 4.904 1.0697 0.1123 3.2314 0.1277 4.3034 0.031 3.938-0.3567 8.1037-1.6556 12.092-3.7704 0.47253-0.2505 0.88778-0.4467 0.92278-0.4357s0.55049 0.1456 1.1455 0.2994c2.5535 0.66 4.7068 0.9789 7.5518 1.1186 5.1029 0.2506 10.827-0.7292 15.74-2.6942 0.97282-0.389 3.2344-1.4521 3.188-1.4985-0.0141-0.014-0.42209 0.088-0.90672 0.2272-2.3978 0.6879-4.4726 0.9417-7.2133 0.8823-2.9588-0.064-5.4803-0.511-8.5899-1.5224-5.0039-1.6276-9.8652-4.3584-14.32-8.0448-3.9133-3.2379-7.2596-5.4172-11.073-7.2115-1.9692-0.9265-4.4706-1.8594-6.4115-2.3914-0.35865-0.098-0.6445-0.1863-0.63522-0.1955 9e-3 -0.01 0.5175-0.117 1.1294-0.2394 7.6801-1.536 15.873-0.7475 23.577 2.2692 2.4359 0.9538 5.1677 2.3194 6.9368 3.4677 3.7134 2.4104 8.9116 4.3989 13.37 5.1147l0.89683 0.144-0.67409 0.4198c-2.3291 1.4505-4.3879 3.3211-6.3482 5.768-0.3325 0.415-0.6348 0.8119-0.67177 0.8819-0.066 0.125-0.0645 0.1249 0.0846 0 0.0835-0.072 0.33861-0.3007 0.5669-0.5092 1.1067-1.0104 2.7254-2.1482 4.0079-2.8171 1.4038-0.7323 2.9792-1.2678 4.5503-1.5466 1.11-0.1971 3.5503-0.2159 4.6457-0.036 0.90874 0.1494 1.1774 0.2216 1.177 0.3161-8e-4 0.203-0.55893 2.1802-0.91995 3.259-1.5791 4.719-4.025 8.9586-7.3179 12.685-0.87112 0.9857-2.7994 2.874-3.7898 3.7111-4.3774 3.7002-9.562 6.3319-15.083 7.656-1.5476 0.3712-3.405 0.6801-5.2185 0.8681-0.64995 0.068-5.0581 0.1316-5.6958 0.083zm59.09-7.8904c-3.6927-0.2534-6.8285-1.4666-9.3311-3.6098-2.8196-2.4147-4.5004-5.7572-4.8655-9.6754-0.094-1.009-0.0438-2.9353 0.10053-3.8552 1.0369-6.6082 6.0175-11.409 12.823-12.36 0.79989-0.1118 3.2855-0.1105 4.0411 0 2.9288 0.4362 5.3533 1.4485 7.3822 3.0822 0.70788 0.57 1.7638 1.6841 2.2756 2.4011 0.51932 0.7275 1.2484 2.1653 1.5104 2.9784 1.0126 3.1433 0.60222 6.8779-1.0593 9.6403-0.82792 1.3765-2.137 2.7229-3.5221 3.6226-1.3942 0.9056-3.0751 1.5447-4.3937 1.6705-0.79948 0.076-1.6706-0.211-2.0692-0.6823-0.23393-0.2765-0.45448-0.7742-0.50828-1.1467-0.024-0.1663-0.0729-0.3023-0.10858-0.3023-0.0357 0-0.27806 0.2024-0.53855 0.4499-1.3054 1.24-2.8701 1.8271-4.3971 1.65-1.9536-0.2266-3.7572-1.4736-4.7241-3.2663-0.59428-1.1018-0.82524-2.0648-0.82467-3.4386 1e-3 -3.5221 1.6862-6.8903 4.3471-8.691 0.50387-0.341 1.5631-0.8157 2.2004-0.9861 1.9546-0.5226 3.8436-0.2725 5.1839 0.6863 0.44503 0.3183 1.0153 0.8967 1.2816 1.3 0.0992 0.1501 0.20146 0.2503 0.22723 0.2227 0.0257-0.028 0.15177-0.3939 0.27998-0.814 0.12821-0.42 0.26228-0.8568 0.29793-0.9705l0.0648-0.2069h1.6222c1.5157 0 1.6199 0.01 1.5876 0.1114-0.0191 0.061-0.63911 2.5742-1.3779 5.5845-1.3942 5.6804-1.503 6.2294-1.335 6.7385 0.11604 0.3516 0.29143 0.4846 0.63924 0.4846 0.74227 0 1.5442-0.4 2.2959-1.145 1.1082-1.0985 1.7922-2.5188 2.1301-4.4235 0.13701-0.7723 0.15646-2.6112 0.0357-3.3729-0.45241-2.8533-1.7694-4.9555-4.0166-6.4117-1.3805-0.8945-3.0206-1.4574-4.8681-1.6706-5.2879-0.6104-9.7652 1.7041-11.88 6.1413-1.0124 2.1237-1.4047 4.9413-1.038 7.4563 0.45419 3.1157 2.0318 5.7467 4.5176 7.5341 0.72488 0.5212 2.1495 1.2346 3.0454 1.5249 3.5029 1.1353 7.5112 0.7473 10.51-1.0175 0.64298-0.3784 1.3832-0.9269 1.817-1.3464l0.28966-0.2801 3.3545 0.034-0.50292 0.6682c-2.672 3.5503-6.6253 5.5641-11.163 5.6863-0.54253 0.015-1.1439 0.015-1.3364 0zm-0.26017-9.7963c1.6626-0.3919 3.1771-2.0653 3.7992-4.1977 0.22257-0.763 0.28437-2.0803 0.12688-2.705-0.30401-1.206-1.1187-2.1039-2.1661-2.3874-0.53919-0.146-1.4232-0.1048-2.0089 0.094-2.0322 0.6882-3.6903 3.2214-3.7092 5.6672-4e-3 0.5002 0.0285 0.8627 0.10249 1.1455 0.31578 1.2077 1.1309 2.091 2.2066 2.3907 0.39783 0.1109 1.163 0.1077 1.649-0.01zm33.735 9.7712c-1.844-0.1857-3.0395-0.7298-4.1263-1.8779-0.86483-0.9136-1.407-2.1714-1.7097-3.967-0.10271-0.609-0.11435-1.1447-0.11435-5.2602 0-4.1154 0.0117-4.6511 0.11435-5.2602 0.16893-1.0017 0.39709-1.7905 0.70753-2.4458 0.37677-0.7954 0.69762-1.2486 1.2661-1.7885 1.1702-1.1113 2.7006-1.6278 4.8169-1.6259 2.7225 0 4.5486 0.8444 5.7032 2.6292 1.0187 1.5747 1.3281 3.3822 1.2845 7.5048l-0.0192 1.8138-9.4665 0.032 0.0343 2.0519c0.0255 1.5207 0.0599 2.1646 0.1331 2.4869 0.25758 1.1347 0.85695 1.8247 1.745 2.0089 0.92376 0.1916 1.8453-0.059 2.3285-0.6332 0.46405-0.5515 0.67005-1.2471 0.71992-2.4311l0.0368-0.875h4.4748l-0.0203 0.4295c-0.11917 2.5276-0.75895 4.2805-2.015 5.5208-0.87414 0.8631-1.8559 1.3456-3.2236 1.5841-0.70189 0.1224-1.9827 0.1714-2.6704 0.1022zm3.4186-15.13c-0.0365-1.3119-0.11015-1.698-0.4431-2.3251-0.23319-0.4392-0.522-0.707-0.99978-0.927-0.29753-0.137-0.44779-0.163-0.9575-0.1655-0.75924-0.01-1.1522 0.1236-1.5872 0.5147-0.63316 0.5693-0.86928 1.3334-0.93634 3.0302l-0.0421 1.066h4.9993zm13.468 15.126c-3.3745-0.3459-5.3059-2.366-5.7854-6.051-0.14711-1.1309-0.10006-9.8138 0.0575-10.618 0.60067-3.0643 2.1746-4.8367 4.7716-5.3732 2.1806-0.4504 4.6452-0.1078 6.1023 0.8483 1.4358 0.9422 2.3297 2.5139 2.7002 4.7476 0.083 0.5008 0.11152 1.2299 0.13363 3.4207l0.0281 2.7842h-9.4301v1.9009c0 2.1281 0.0693 2.7601 0.37481 3.4161 0.24509 0.5264 0.51937 0.8185 0.983 1.0467 0.47967 0.2361 1.0715 0.3063 1.646 0.1952 1.2364-0.2391 1.8259-1.1997 1.9344-3.1517l0.0443-0.7979h4.4536l-0.0451 0.6841c-0.20273 3.0769-1.2742 5.1344-3.2179 6.1793-1.1959 0.6429-3.05 0.9428-4.751 0.7685zm3.5214-14.998c-0.0629-1.6819-0.30366-2.4599-0.938-3.0302-0.43557-0.3916-0.82731-0.5184-1.5932-0.5154-0.55724 0-0.64722 0.021-1.0287 0.2081-0.98597 0.4854-1.3836 1.488-1.3836 3.489v0.9145h4.9833zm11.444 15.001c-1.2839-0.1956-2.2879-0.8561-2.9465-1.9386-0.27967-0.4597-0.56047-1.2054-0.72366-1.9218-0.14092-0.6185-0.14232-0.6769-0.1652-6.8605-0.0241-6.4966-0.0114-6.9048 0.24654-7.9226 0.38493-1.5193 1.148-2.5821 2.2374-3.116 0.73969-0.3625 1.2093-0.4672 2.0833-0.4644 1.5241 0.01 2.3518 0.3887 4.3752 2.0284l0.20684 0.1676v-9.1805h4.4548v28.829h-4.2002l-3e-3 -1.1295-3e-3 -1.1297-0.35937 0.4137c-1.1538 1.3282-1.9826 1.8952-3.1169 2.1325-0.56133 0.1174-1.616 0.1642-2.0867 0.093zm3.3732-3.7114c0.47436-0.1264 0.87732-0.3195 1.4378-0.6893l0.50293-0.3318-7.3e-4 -6.3671-7.4e-4 -6.3671-0.41849-0.2781c-1.7622-1.1705-3.1902-1.0985-3.8498 0.1943-0.40918 0.8021-0.43945 1.2463-0.43945 6.4477 0 4.6605 0.0266 5.2765 0.25912 6.014 0.3683 1.1678 1.3249 1.6929 2.5096 1.3774zm15.102 3.7087c-3.0227-0.3201-4.9816-2.1257-5.7503-5.3002-0.0848-0.3502-0.14756-0.6412-0.13945-0.6467 0.0294-0.02 3.8342-1.0512 3.8726-1.0498 0.0217 0 0.0733 0.1804 0.1147 0.3992 0.38695 2.0455 1.4466 3.0765 3.0385 2.9565 1.1154-0.084 1.8115-0.7819 1.818-1.8225 8e-3 -1.2301-0.67678-2.1306-2.8346-3.7288-2.2153-1.6409-2.6261-1.9717-3.3927-2.733-1.5858-1.5748-2.1818-2.9414-2.1078-4.8335 0.0381-0.9742 0.21596-1.6718 0.62844-2.4647 1.4065-2.7034 5.1146-3.7985 8.1704-2.413 1.2098 0.5485 2.3142 1.6525 2.9831 2.9816 0.23738 0.4718 0.55504 1.3529 0.66464 1.8436 0.0557 0.2495 0.0497 0.2734-0.076 0.3015-0.33574 0.075-3.6204 0.6106-3.6378 0.5929-0.0107-0.011-0.0673-0.2059-0.12572-0.4335-0.14622-0.569-0.42388-1.1299-0.73349-1.4817-0.90741-1.0309-2.8612-0.9611-3.4482 0.1231-0.56651 1.0465-0.079 2.1631 1.5083 3.455 0.24502 0.1994 0.91801 0.7011 1.4955 1.115 1.4743 1.0563 2.1612 1.6142 2.9002 2.3551 1.6508 1.6552 2.344 3.3451 2.2329 5.4433-0.068 1.284-0.43374 2.3667-1.0937 3.2377-1.1762 1.5522-3.5487 2.3718-6.0876 2.1029zm-64.137-14.791v-14.414h4.4548v28.829h-4.4548zm-82.663 2.4497c-2.1251-0.1478-4.321-0.5756-6.3061-1.2286-3.0724-1.0105-6.4167-2.8526-8.6869-4.7848-1.1664-0.9928-1.9668-1.6259-2.6092-2.064-3.5213-2.4012-7.1439-3.6232-11.087-3.74-0.70764-0.021-1.273-0.06-1.2563-0.087 0.0573-0.093 2.48-1.8871 3.3328-2.4685 0.99186-0.6763 0.82008-0.6451 2.4974-0.4537 5.434 0.6201 10.923 2.2541 15.868 4.7237 2.3945 1.1958 4.7988 2.6531 6.4899 3.9337 0.86181 0.6527 2.1967 1.5307 3.3743 2.2195 1.7143 1.0026 4.4911 2.3236 6.0966 2.9003 0.27296 0.098 0.47343 0.2001 0.44548 0.2268-0.0604 0.058-1.5813 0.3897-2.4373 0.5321-1.631 0.2714-4.1545 0.3995-5.7218 0.2906zm-30.321-13.125c-0.021-0.3237-0.0562-0.8923-0.0782-1.2633l-0.04-0.6747 0.66468-0.034c0.36557-0.018 0.92796-0.019 1.2498-6e-4l0.58508 0.034-0.40137 0.4207c-0.22075 0.2313-0.74112 0.8-1.1564 1.2639-0.41526 0.4637-0.76186 0.8432-0.77023 0.8432-8e-3 0-0.0324-0.2649-0.0534-0.5887zm72.26-4.6961c-4.1663-1.2111-8.4716-3.2419-12.054-5.6861-2.4712-1.6857-2.9357-1.9945-3.7661-2.5035-5.1865-3.1789-10.488-5.0751-15.968-5.7118-0.45176-0.053-0.8316-0.1057-0.84409-0.1182-0.0423-0.043 1.5966-0.4225 2.3655-0.5489 3.5294-0.5801 7.2537-0.1713 10.787 1.1842 0.40252 0.1544 1.4192 0.6219 2.2592 1.0388 0.84004 0.417 1.8088 0.8613 2.1527 0.9875 4.3866 1.6091 8.6011 1.4342 12.86-0.5337 0.3118-0.1441 0.57363-0.2546 0.58185-0.2455 8e-3 0.01 0.18926 0.4969 0.40232 1.0841 1.028 2.8332 1.702 5.7769 2.0068 8.7647 0.13124 1.2866 0.19368 2.5466 0.12594 2.541-0.031 0-0.44025-0.1162-0.90944-0.2526zm-72.079-3.4594c0.0157-0.073 0.0603-0.3627 0.0991-0.6427 0.22649-1.6367 0.75431-3.8671 1.3479-5.6958 0.3337-1.0281 1.0266-2.9076 1.0984-2.9794 0.0469-0.047 1.4602 0.3799 2.3233 0.7017 1.6568 0.6177 2.8052 1.22 4.519 2.3702 0.98505 0.6611 2.386 1.4349 3.182 1.7577 0.19251 0.078 0.70353 0.2619 1.1356 0.4086l0.78558 0.2667-0.62648 0.3998c-0.72192 0.4607-2.2642 1.526-2.9232 2.0192l-0.45115 0.3376-1.3308 2e-4c-2.6201 2e-4 -5.3992 0.3241-8.1232 0.9465-1.0372 0.237-1.064 0.2399-1.0362 0.1097zm102.78-1.0871c-2.3584-0.52-3.5969-2.5517-3.3407-5.48 0.23621-2.6997 1.4529-4.5931 4.0726-6.3379 1.0023-0.6675 2.896-1.6274 4.3743-2.2172l1.0332-0.4123 7.3e-4 -1.0208c1e-3 -1.3747-0.15661-1.9644-0.66082-2.4687-0.47361-0.4735-1.3187-0.6607-2.218-0.4909-1.178 0.2222-1.7 1.006-1.8457 2.7713l-0.0158 0.1909h-4.4506l0.0188-0.3182c0.0569-0.9632 0.37346-2.1117 0.82311-2.9864 0.91815-1.7861 2.573-2.9161 4.8178-3.2899 0.72849-0.1212 2.582-0.1028 3.3316 0.033 2.8469 0.5165 4.3429 2.0715 4.651 4.8342 0.0441 0.3955 0.0678 3.1707 0.0678 7.9299 0 7.4125 9e-3 7.7443 0.22826 8.8003l0.0364 0.175h-2.137c-1.1754 0-2.1371-0.021-2.1373-0.048-6.4e-4 -0.065-0.18336-1.215-0.22678-1.4254l-0.0348-0.1686-0.53218 0.4015c-1.5381 1.1601-2.8751 1.6275-4.6254 1.6171-0.46703 0-1.021-0.043-1.231-0.089zm3.5982-3.5973c0.74945-0.1421 1.5648-0.686 2.1699-1.4475l0.3731-0.4695v-5.6533l-0.55685 0.3275c-2.4168 1.4217-3.8376 2.7542-4.2813 4.0154-0.095 0.2699-0.14976 0.6102-0.17208 1.0691-0.0385 0.7921 0.0616 1.2335 0.36226 1.5963 0.40416 0.4877 1.2733 0.7198 2.1049 0.562zm15.802 3.601c-1.762-0.3331-2.9543-1.2737-3.4192-2.6973-0.0879-0.2692-0.18996-0.6594-0.22675-0.8671-0.044-0.2488-0.0668-2.793-0.0668-7.4618v-7.0842h-2.482v-3.6911h2.482v-5.7912h4.4548v5.7912h2.9911v3.6911h-2.9911v6.3609c0 4.2852 0.0222 6.4647 0.0683 6.6789 0.09 0.4196 0.38178 0.8131 0.7153 0.9645 0.22407 0.1017 0.42117 0.1212 1.237 0.1224h0.97051v3.8717l-0.30229 0.075c-0.46546 0.1148-2.8796 0.1401-3.4307 0.036zm11.529 0.02c-1.4292-0.206-2.8174-0.8911-3.6343-1.7939-1.1079-1.2242-1.6542-2.8161-1.8139-5.2856-0.10643-1.646-0.0385-8.2695 0.0937-9.124 0.3541-2.2907 1.1772-3.8422 2.5629-4.8311 1.2139-0.8662 3.1503-1.2921 5.0884-1.1193 3.431 0.3062 5.3123 2.0831 5.948 5.6182 0.12897 0.7172 0.14512 1.0509 0.17156 3.5442l0.0292 2.7524h-9.442l0.027 2.2115c0.0227 1.8565 0.0447 2.2722 0.13755 2.5899 0.32455 1.1105 0.87208 1.6515 1.8427 1.8205 0.82974 0.1445 1.6843-0.1092 2.1667-0.643 0.46663-0.5165 0.68918-1.2634 0.77183-2.5901l0.0446-0.7159h4.4536l-0.0434 0.6204c-0.13637 1.9494-0.61268 3.5248-1.3988 4.6265-0.90028 1.2616-2.3458 2.0725-4.1393 2.3219-0.56807 0.079-2.3106 0.078-2.8659 0zm3.9318-14.927c-0.0156-1.1628-0.11466-1.7572-0.38953-2.3386-0.23095-0.4886-0.57035-0.8362-1.0243-1.049-0.31505-0.1478-0.43174-0.1661-1.0543-0.1655-0.58068 6e-4 -0.75077 0.024-0.9976 0.1375-0.41051 0.1888-0.82396 0.5875-1.025 0.9886-0.30784 0.6141-0.37888 1.0105-0.41119 2.2946l-0.03 1.194 4.9458-0.034zm-57.161 14.281c-0.15662-0.77836-4.0784-21.106-4.0784-21.139 0-0.055 4.2518-0.044 4.2857 0.011 0.0161 0.026 0.46524 3.0403 0.99801 6.698 0.53277 3.6578 0.97947 6.6623 0.99267 6.6769 0.0132 0.015 0.0362 0.015 0.0511-6e-4 0.0248-0.025 2.8367-13.229 2.8367-13.321 0-0.022 0.75035-0.032 1.6674-0.023l1.6674 0.017 1.1889 6.6376c1.0241 5.7174 1.239 6.8467 1.2732 6.6897 3e-3 -0.015 0.55503-3.0336 1.2264-6.7088l1.2206-6.6821 4.3083-0.034-0.0277 0.144c-0.0152 0.079-1.1279 4.9195-2.4726 10.756l-2.445 10.612h-3.5887l-0.0673-0.3341c-0.0371-0.1837-0.58527-3.2262-1.2183-6.761-0.63302-3.5349-1.1632-6.4392-1.1782-6.4542-0.015-0.015-0.0381-0.015-0.0514-7e-4 -0.0244 0.027-2.9033 13.416-2.9033 13.503 0 0.026-0.81415 0.047-1.8092 0.047h-1.8092zm64.971-10.421v-10.755h4.2612l0.0344 2.5774 0.28251-0.4119c0.62488-0.9113 1.6323-1.7197 2.6154-2.0989 0.77947-0.3006 1.2249-0.3871 2.2092-0.4287l0.90686-0.038v2.3322c0 1.2827-0.022 2.3322-0.0489 2.3322s-0.36339-0.073-0.74777-0.1632c-0.84667-0.1978-2.2183-0.2762-2.7812-0.159-0.76012 0.1584-1.4379 0.6118-1.8366 1.2286-0.45823 0.709-0.44051 0.3552-0.44051 8.7954v7.5447h-4.4548zm-127.25 5.704c-1.7102-0.7022-3.2992-1.6311-4.8051-2.8091-2.412-1.8868-4.6866-3.043-7.1933-3.6563-0.40377-0.099-0.95652-0.2155-1.2283-0.2593-0.34127-0.055-0.4849-0.1039-0.46417-0.1579 0.084-0.219 1.1556-1.9015 1.7706-2.7798 2.6518-3.7879 6.0447-7.0936 9.8839-9.6296 7.1857-4.7467 15.753-6.7916 24.374-5.8177 8.2227 0.9291 15.838 4.5996 21.706 10.462 2.4832 2.4809 4.294 4.8369 5.9941 7.7986 0.51243 0.8927 1.6165 3.0708 1.699 3.3517 0.0378 0.1286 0.0115 0.1415-0.39169 0.1909-0.64332 0.079-2.578 0.06-3.2323-0.032-2.627-0.369-5.196-1.3055-7.6909-2.8037-2.6545-1.594-4.8858-2.4291-7.6145-2.8498-1.0226-0.1577-3.5366-0.1573-4.6139 0-3.5506 0.5208-6.8776 1.9945-10.26 4.5447l-0.33226 0.2505-1.0996 0.04c-4.7568 0.1721-10.67 1.7479-15.318 4.0824-0.31643 0.1589-0.59738 0.2877-0.62433 0.2862-0.0269 0-0.27811-0.097-0.55812-0.2118z" fill="#fffcff" stroke-width=".06364"/>
</g>
</svg>
