<?xml version="1.0" encoding="UTF-8" standalone="no"?>
<!-- Created with Inkscape (http://www.inkscape.org/) -->

<svg
   xmlns:dc="http://purl.org/dc/elements/1.1/"
   xmlns:cc="http://creativecommons.org/ns#"
   xmlns:rdf="http://www.w3.org/1999/02/22-rdf-syntax-ns#"
   xmlns:svg="http://www.w3.org/2000/svg"
   xmlns="http://www.w3.org/2000/svg"
   xmlns:sodipodi="http://sodipodi.sourceforge.net/DTD/sodipodi-0.dtd"
   xmlns:inkscape="http://www.inkscape.org/namespaces/inkscape"
   width="250"
   height="91"
   viewBox="0 0 250 91"
   id="svg2"
   version="1.1"
   inkscape:version="0.92.2 (5c3e80d, 2017-08-06)"
   sodipodi:docname="waterleeds.svg">
  <defs
     id="defs4" />
  <sodipodi:namedview
     id="base"
     pagecolor="#ffffff"
     bordercolor="#666666"
     borderopacity="1.0"
     inkscape:pageopacity="0.0"
     inkscape:pageshadow="2"
     inkscape:zoom="2.8937883"
     inkscape:cx="-80.400056"
     inkscape:cy="20.322213"
     inkscape:document-units="px"
     inkscape:current-layer="layer1"
     showgrid="false"
     inkscape:window-width="1920"
     inkscape:window-height="1001"
     inkscape:window-x="-9"
     inkscape:window-y="-9"
     inkscape:window-maximized="1"
     units="px" />
  <metadata
     id="metadata7">
    <rdf:RDF>
      <cc:Work
         rdf:about="">
        <dc:format>image/svg+xml</dc:format>
        <dc:type
           rdf:resource="http://purl.org/dc/dcmitype/StillImage" />
        <dc:title></dc:title>
      </cc:Work>
    </rdf:RDF>
  </metadata>
  <g
     inkscape:label="Layer 1"
     inkscape:groupmode="layer"
     id="layer1"
     transform="translate(0,-961.4)"
     style="opacity:1">
    <rect
       style="opacity:0;fill:#ffffff;fill-opacity:0;stroke:none;stroke-width:2.5;stroke-linecap:round;stroke-linejoin:round;stroke-miterlimit:4;stroke-dasharray:none;stroke-dashoffset:0;stroke-opacity:1"
       id="rect4175"
       width="250"
       height="91"
       x="0"
       y="961.4" />
    <path
       inkscape:connector-curvature="0"
       id="path934"
       d="m 69.533213,1043.8177 c -7.62851,-0.7691 -14.33329,-3.5747 -20.23937,-8.4692 -1.0594,-0.8779 -3.56125,-3.379 -4.44858,-4.4472 -4.49725,-5.4142 -7.38233,-11.8647 -8.21173,-18.3602 -0.0559,-0.4375 -0.14399,-1.0532 -0.19584,-1.3682 -0.0978,-0.5945 -0.23078,-2.5722 -0.1786,-2.6567 0.0164,-0.026 0.60478,-0.048 1.3076,-0.048 h 1.27787 l 1.15262,-1.1295 c 1.96776,-1.9285 3.86234,-3.5891 6.01153,-5.2691 l 0.9733,-0.7608 -0.78417,-0.02 c -2.47109,-0.064 -6.6027,0.4324 -9.23943,1.109 -0.20513,0.053 -0.3876,0.081 -0.40549,0.063 -0.0888,-0.089 0.34159,-2.4411 0.74951,-4.09626 0.71123,-2.8858 1.61752,-5.2465 3.15522,-8.2185 2.82549,-5.4609 7.12206,-10.1989 12.37007,-13.641 4.47733,-2.9365 9.73998,-4.913 15.01903,-5.6406 1.89241,-0.2608 2.46249,-0.2936 5.0912,-0.2936 2.69695,0 3.2498,0.034 5.2686,0.3222 9.58212,1.3691 18.33088,6.577 24.154197,14.3786 1.45801,1.9533 2.84219,4.2626 3.83353,6.3957 0.39088,0.8412 0.39637,0.8604 0.26105,0.9143 -0.23884,0.095 -2.5685,0.127 -3.29005,0.045 -2.67103,-0.3028 -5.346077,-1.2616 -8.080617,-2.8961 -4.49002,-2.6839 -8.84954,-3.5067 -13.45737,-2.5401 -3.52895,0.7404 -7.27506,2.7394 -10.56672,5.6386 -0.93018,0.8193 -2.52545,2.4402 -3.15018,3.2007 l -0.41366,0.5037 0.7006,-0.5716 c 3.50323,-2.8581 7.22364,-4.4751 11.35918,-4.9373 0.85967,-0.096 3.14795,-0.096 4.00932,-2e-4 2.79712,0.3116 5.3224,1.067 7.66862,2.2937 2.14214,1.12 4.05806,1.7528 6.20489,2.0492 0.78076,0.1078 3.163517,0.1093 3.913857,0 1.83662,-0.2614 3.55764,-0.7752 5.12027,-1.5287 0.29599,-0.1427 0.54664,-0.251 0.55699,-0.2406 0.0599,0.06 0.74506,1.999 0.99221,2.808 0.76399,2.5009 1.21677,4.79986 1.48525,7.54126 0.1372,1.4011 0.15614,4.9054 0.0347,6.4277 -0.39669,4.9745 -1.9946,10.1757 -4.51644,14.7008 -3.77071,6.7661 -9.574947,12.1778 -16.560117,15.4401 -3.60634,1.6842 -7.19712,2.7045 -11.31899,3.216 -1.39973,0.1737 -6.19691,0.2262 -7.6139,0.083 z m 20.07842,-19.0601 c 4.11039,-0.2885 8.17807,-1.2166 11.900667,-2.7153 0.80149,-0.3226 2.88377,-1.2936 2.84801,-1.328 -0.009,-0.01 -0.34783,0.08 -0.75337,0.1968 -5.509497,1.5862 -11.698547,1.0783 -18.100087,-1.4851 -4.30993,-1.7259 -8.35766,-4.1538 -12.02796,-7.2146 -5.76691,-4.8093 -11.5621,-7.9856 -17.51642,-9.6007 l -0.77911,-0.2114 -1.03463,0.2734 c -4.28504,1.132 -8.60644,3.0548 -12.70581,5.6534 l -0.40691,0.2579 0.34327,0.037 c 3.94223,0.4201 6.506,0.9288 9.83606,1.9516 4.94774,1.5196 10.02156,4.0582 13.88287,6.9458 2.46828,1.8459 5.96942,3.7486 9.04656,4.9164 0.92486,0.351 0.84873,0.3533 2.1661,-0.065 1.34037,-0.4262 2.84943,-1.0356 4.25795,-1.7197 0.67929,-0.3299 1.2448,-0.5901 1.2567,-0.5782 0.0337,0.034 -1.51884,1.1849 -2.33265,1.7298 -0.40252,0.2694 -1.14357,0.7364 -1.64677,1.0377 -0.5032,0.3013 -0.88981,0.5555 -0.85914,0.5647 0.45701,0.1386 2.24257,0.5705 2.95139,0.7139 1.52826,0.3092 3.58337,0.5801 5.02756,0.6629 0.87649,0.051 3.81244,0.036 4.64572,-0.023 z m 39.329507,11.1976 c -3.57502,-0.342 -6.9699,-1.8877 -9.35307,-4.2585 -2.25474,-2.2429 -3.65812,-5.2071 -4.08255,-8.6232 -0.12852,-1.0343 -0.0973,-3.0852 0.063,-4.1366 0.38328,-2.5144 1.22154,-4.5799 2.67318,-6.5867 0.55642,-0.7693 1.78029,-2.0563 2.52174,-2.6519 2.23892,-1.7984 5.00016,-2.9378 7.92318,-3.2693 0.94921,-0.1076 2.86699,-0.091 3.78658,0.033 3.75551,0.5057 7.11141,2.2864 9.21932,4.892 1.60833,1.9881 2.41823,4.164 2.50272,6.7239 0.0727,2.2038 -0.28114,3.9123 -1.19296,5.7594 -1.08532,2.1986 -2.81494,3.92 -5.07903,5.055 -1.28588,0.6446 -2.60203,1.0226 -3.56006,1.0226 -0.7912,0 -1.51508,-0.3191 -1.89652,-0.8361 -0.18904,-0.2563 -0.40714,-0.8267 -0.40714,-1.0649 0,-0.098 -0.0186,-0.1964 -0.0412,-0.2191 -0.0227,-0.023 -0.24141,0.1476 -0.48606,0.3784 -0.85198,0.8037 -1.97289,1.4188 -3.00332,1.648 -0.62289,0.1386 -1.62531,0.1 -2.33061,-0.091 -2.31269,-0.624 -4.08122,-2.5624 -4.61381,-5.0571 -0.14094,-0.6601 -0.17979,-1.6884 -0.0941,-2.4907 0.27188,-2.5466 1.27913,-4.8268 2.85953,-6.4733 0.73266,-0.7633 1.40285,-1.2735 2.22612,-1.6947 1.09729,-0.5613 2.23375,-0.8371 3.44978,-0.8371 1.81064,0 3.2531,0.6649 4.28057,1.9731 0.21683,0.276 0.41098,0.482 0.43144,0.4576 0.0205,-0.024 0.16365,-0.4663 0.3182,-0.9822 l 0.28099,-0.9381 1.63873,-6e-4 c 0.9013,-4e-4 1.63873,0.024 1.63873,0.055 0,0.031 -0.60081,2.5077 -1.33511,5.5043 -0.73432,2.9966 -1.36514,5.6363 -1.40184,5.866 -0.12313,0.7707 0.058,1.3758 0.43675,1.459 0.29353,0.065 0.88463,-0.07 1.37742,-0.3119 1.67326,-0.8235 2.97691,-3.0907 3.28142,-5.7068 0.10751,-0.9237 0.0424,-2.636 -0.13167,-3.4617 -0.40003,-1.8975 -1.17704,-3.3806 -2.4173,-4.6139 -1.57191,-1.5631 -3.53106,-2.4738 -6.11003,-2.8403 -0.95354,-0.1356 -2.78297,-0.1357 -3.70309,-4e-4 -4.97451,0.7316 -8.44385,4.1701 -9.35132,9.2684 -0.16815,0.9447 -0.22961,2.8292 -0.12248,3.7552 0.3321,2.8706 1.41349,5.1269 3.35708,7.0046 1.82338,1.7616 4.2278,2.831 7.01488,3.1196 0.90306,0.094 2.75069,0.043 3.53679,-0.098 2.35953,-0.4218 4.34281,-1.3471 5.95182,-2.7772 l 0.42315,-0.376 h 1.66731 c 1.94173,0 1.80883,-0.1158 1.04214,0.9077 -0.62016,0.8279 -1.90023,2.1098 -2.71315,2.7172 -2.04878,1.5305 -4.41853,2.4668 -7.01145,2.7701 -0.86988,0.1018 -2.54734,0.1149 -3.4646,0.027 z m 0.76337,-9.8708 c 1.95861,-0.5938 3.60402,-3.0287 3.73338,-5.5247 0.0637,-1.2295 -0.24491,-2.1224 -0.99151,-2.8686 -0.86883,-0.8684 -1.94954,-1.0856 -3.25008,-0.6534 -0.66654,0.2216 -1.15822,0.5391 -1.75506,1.1334 -1.16194,1.1569 -1.847,2.7031 -1.91837,4.3297 -0.0526,1.1982 0.23642,2.0993 0.90495,2.8214 0.8068,0.8714 2.00049,1.1492 3.27669,0.7622 z m 32.90218,9.8353 c -0.33252,-0.051 -0.88117,-0.1863 -1.21922,-0.3015 -2.22795,-0.7587 -3.49336,-2.4087 -4.04519,-5.2747 -0.1024,-0.5318 -0.11317,-1.0542 -0.11317,-5.4881 0,-4.4338 0.0108,-4.9562 0.11317,-5.488 0.58452,-3.0358 1.98676,-4.7327 4.45935,-5.3965 1.51806,-0.4076 3.64184,-0.3631 5.06712,0.1061 2.25555,0.7424 3.5574,2.4123 4.08592,5.241 0.11597,0.6206 0.13443,1.0265 0.16139,3.5487 l 0.0305,2.8478 h -4.71539 -4.71539 v 1.9009 c 0,2.133 0.0692,2.7598 0.37791,3.4227 0.38407,0.8248 0.93922,1.1765 1.92487,1.2192 0.79781,0.034 1.20742,-0.086 1.65099,-0.4845 0.58163,-0.5229 0.85073,-1.3038 0.92494,-2.684 l 0.0412,-0.765 h 2.2585 2.25849 l -0.0452,0.716 c -0.17566,2.7821 -1.11301,4.7892 -2.74319,5.8739 -0.84213,0.5603 -1.74525,0.8835 -2.91419,1.0427 -0.68261,0.093 -2.11289,0.074 -2.84328,-0.037 z m 3.99072,-15.0259 c -0.0688,-1.9291 -0.46018,-2.836 -1.41331,-3.2743 -0.27344,-0.1257 -0.42112,-0.1463 -1.05006,-0.1463 -0.64581,0 -0.76869,0.018 -1.04515,0.1542 -0.94069,0.463 -1.30174,1.3156 -1.3563,3.2028 l -0.0326,1.1296 h 2.46773 2.46774 z m 13.16883,15.0623 c -1.1976,-0.1649 -2.5111,-0.7034 -3.28656,-1.3472 -1.28785,-1.0694 -2.05241,-2.8044 -2.28893,-5.194 -0.0874,-0.8832 -0.0852,-8.2467 0.003,-9.1464 0.36882,-3.7732 2.09218,-5.8836 5.27781,-6.4632 0.72633,-0.1322 2.75311,-0.1148 3.43655,0.029 1.75392,0.37 3.00839,1.1597 3.84505,2.4201 0.39774,0.5992 0.59615,1.0263 0.85617,1.8431 0.38075,1.196 0.41083,1.5192 0.43794,4.7051 l 0.0248,2.9116 h -4.72096 -4.72096 l 0.032,2.0524 c 0.0241,1.5467 0.0567,2.1596 0.13214,2.4873 0.20559,0.8927 0.60771,1.4932 1.21423,1.8133 0.29744,0.157 0.38101,0.1701 1.08592,0.1701 0.70694,0 0.79054,-0.013 1.12526,-0.1776 0.84883,-0.4168 1.23886,-1.2714 1.30583,-2.8612 l 0.0368,-0.875 h 2.26 2.25999 l -0.0392,0.7795 c -0.1161,2.3078 -0.8215,4.1046 -2.07153,5.2768 -0.79631,0.7466 -1.70371,1.2046 -2.90434,1.4657 -0.66533,0.1446 -2.58514,0.2087 -3.3007,0.1103 z m 3.778,-14.8789 c 0,-1.5365 -0.25878,-2.4945 -0.82745,-3.0632 -0.44062,-0.4406 -0.73536,-0.5408 -1.59087,-0.5408 -0.6331,0 -0.77675,0.021 -1.0645,0.1504 -0.61914,0.2799 -1.06663,0.9305 -1.26093,1.8329 -0.0515,0.2393 -0.11227,0.9004 -0.13505,1.4692 l -0.0414,1.0341 h 2.46011 2.4601 z m 11.16882,14.8529 c -0.8727,-0.1921 -1.51417,-0.5554 -2.10012,-1.1894 -0.49719,-0.5379 -0.76627,-0.9992 -1.02548,-1.7581 -0.44868,-1.3137 -0.43824,-1.1208 -0.43824,-8.0954 0,-6.5966 0,-6.5887 0.29189,-7.6886 0.46602,-1.7544 1.49246,-2.8966 3.02118,-3.3619 0.53024,-0.1614 1.9899,-0.1638 2.57363,-0.01 0.82622,0.2258 1.61229,0.6831 2.69386,1.5673 0.30326,0.2478 0.56579,0.4507 0.5834,0.4507 0.0176,0 0.032,-2.0476 0.032,-4.5503 v -4.5503 h 2.25921 2.25922 v 14.4471 14.4472 l -2.14785,-0.017 -2.14785,-0.017 -0.0174,-1.0977 -0.0174,-1.0977 -0.37173,0.4295 c -1.11279,1.2855 -1.9022,1.8108 -3.09364,2.0587 -0.67431,0.1403 -1.78161,0.1528 -2.35468,0.026 z m 4.12068,-3.8461 c 0.20126,-0.078 0.62367,-0.3111 0.93869,-0.5179 l 0.57277,-0.3762 v -6.3347 -6.3348 l -0.54277,-0.3538 c -0.29853,-0.1946 -0.72094,-0.4272 -0.93869,-0.5171 -0.47637,-0.1964 -1.21788,-0.2603 -1.69465,-0.1459 -0.44732,0.1073 -0.8851,0.5086 -1.11587,1.0227 -0.33892,0.7553 -0.34911,0.939 -0.35152,6.3333 -0.002,5.1095 0.008,5.342 0.26106,6.122 0.16196,0.4985 0.63184,1.041 1.02764,1.1864 0.39568,0.1453 1.36557,0.1012 1.84334,-0.084 z m 14.33491,3.8697 c -0.95792,-0.138 -1.9937,-0.5282 -2.76682,-1.0422 -0.45292,-0.301 -1.18694,-1.0309 -1.50998,-1.5014 -0.28499,-0.4151 -0.74362,-1.3593 -0.92496,-1.9043 -0.20165,-0.606 -0.40077,-1.4509 -0.35315,-1.4985 0.02,-0.02 0.90493,-0.2769 1.96639,-0.5707 1.99926,-0.5535 2.02609,-0.5568 2.02837,-0.2497 0.002,0.2799 0.27009,1.1638 0.48998,1.6158 0.28143,0.5786 0.71844,1.0325 1.21427,1.2612 0.29206,0.1347 0.48587,0.1735 0.9696,0.1937 0.7083,0.029 1.02133,-0.041 1.43656,-0.3231 0.64354,-0.4376 0.88231,-1.2953 0.61013,-2.1913 -0.26517,-0.8731 -0.97525,-1.662 -2.55581,-2.8397 -0.47252,-0.352 -1.23184,-0.9174 -1.68735,-1.2564 -2.13052,-1.5854 -3.19088,-2.8243 -3.70093,-4.3236 -0.98434,-2.8938 0.36985,-5.975 3.13123,-7.1246 0.95671,-0.3983 1.34682,-0.4694 2.57525,-0.4697 0.99335,-2e-4 1.17911,0.018 1.71902,0.1621 1.83747,0.4923 3.19315,1.5974 4.08354,3.3285 0.30074,0.5847 0.65778,1.5649 0.72644,1.9942 l 0.0384,0.24 -1.89951,0.3205 c -1.04473,0.1762 -1.90603,0.3159 -1.914,0.3103 -0.008,-0.01 -0.0872,-0.261 -0.17606,-0.5677 -0.20666,-0.7131 -0.35557,-1.0005 -0.72097,-1.391 -0.44599,-0.4769 -0.81141,-0.6386 -1.51806,-0.672 -0.78455,-0.037 -1.21455,0.095 -1.61481,0.4941 -0.35622,0.3556 -0.47225,0.7141 -0.42832,1.3236 0.075,1.041 0.7228,1.7514 3.26355,3.579 2.62209,1.8861 3.68501,2.9624 4.42644,4.4824 0.52146,1.069 0.59704,1.4408 0.59594,2.9317 -7.3e-4,1.2086 -0.01,1.3016 -0.17708,1.8455 -0.29194,0.9493 -0.62363,1.5051 -1.31522,2.2037 -0.55284,0.5585 -0.67114,0.6442 -1.33645,0.9681 -0.74319,0.3617 -1.39522,0.5627 -2.19363,0.6762 -0.53012,0.075 -1.94495,0.073 -2.48196,-0.01 z m -63.81949,-0.3529 c -0.0238,-0.024 -0.0432,-6.525 -0.0432,-14.4471 v -14.4039 h 2.29118 2.29117 l -0.0161,14.4304 -0.0161,14.4304 -2.23189,0.017 c -1.22755,0.01 -2.25135,0 -2.27514,-0.026 z m -9.85306,-34.2962 c -1.89397,-0.3427 -3.10959,-1.62906 -3.46593,-3.66746 -0.12432,-0.7111 -0.0916,-2.1078 0.0669,-2.8516 0.51402,-2.4128 1.96273,-4.2177 4.69328,-5.847 0.77089,-0.46 2.57453,-1.3276 3.71076,-1.785 l 0.9546,-0.3843 0.0181,-0.8444 c 0.0431,-2.0037 -0.48269,-2.9218 -1.77799,-3.1049 -0.49503,-0.07 -1.23347,0.018 -1.63348,0.1944 -0.757,0.334 -1.10474,1.008 -1.25481,2.4321 l -0.0386,0.3659 h -2.25465 -2.25463 v -0.1545 c 0,-0.085 0.0309,-0.3765 0.0686,-0.6478 0.4306,-3.096 2.19829,-5.0738 5.14986,-5.7624 0.79887,-0.1863 2.59243,-0.2315 3.56384,-0.09 2.36292,0.3448 3.95175,1.4951 4.58552,3.3197 0.35888,1.0332 0.33575,0.4793 0.38222,9.1578 0.0371,6.9298 0.0566,8.0877 0.14346,8.52766 0.0553,0.2801 0.10205,0.5879 0.1039,0.6842 l 0.004,0.175 h -2.13394 c -1.65263,0 -2.13904,-0.018 -2.15658,-0.08 -0.0125,-0.044 -0.0723,-0.416 -0.13289,-0.8272 l -0.11023,-0.74766 -0.26287,0.1981 c -0.55294,0.4165 -1.41304,0.95866 -1.84716,1.16426 -1.24069,0.5877 -2.82631,0.8087 -4.12075,0.5744 z m 4.15301,-3.92386 c 0.53942,-0.2673 1.05111,-0.701 1.51531,-1.2844 l 0.32311,-0.406 v -2.7752 c 0,-1.5264 -0.0152,-2.7753 -0.0337,-2.7753 -0.0931,0 -1.94373,1.188 -2.48848,1.5974 -1.54122,1.1584 -2.25642,2.1467 -2.44885,3.3839 -0.12944,0.8322 0.009,1.5616 0.37257,1.9641 0.4048,0.4481 0.7675,0.5655 1.67824,0.5434 0.56101,-0.014 0.6507,-0.034 1.08188,-0.2479 z m 15.4892,3.96136 c -0.74028,-0.1059 -1.27893,-0.2635 -1.85383,-0.5425 -0.95348,-0.4626 -1.56126,-1.12276 -1.94613,-2.11396 -0.36236,-0.9332 -0.36768,-1.0573 -0.36809,-8.5922 l -6.3e-4,-6.8876 -1.22508,-0.018 -1.22506,-0.018 -0.0169,-1.8615 -0.0169,-1.8615 h 1.24194 1.24193 v -2.8956 -2.8956 h 2.25923 2.25921 v 2.8956 2.8956 h 1.52832 1.52833 l -0.0169,1.8615 -0.0169,1.8615 -1.51374,0.017 -1.51374,0.017 0.0191,6.4423 c 0.0214,7.2375 -0.008,6.8083 0.49511,7.2626 0.33435,0.3021 0.58373,0.3564 1.63823,0.3568 l 0.90714,4e-4 v 1.9398 1.93976 l -0.1432,0.032 c -0.0787,0.018 -0.27206,0.062 -0.42957,0.099 -0.3794,0.088 -2.34856,0.1325 -2.83197,0.063 z m 11.3727,-0.01 c -3.14945,-0.4262 -4.92519,-2.19986 -5.56197,-5.55546 -0.12635,-0.6658 -0.13562,-0.9611 -0.16062,-5.1173 -0.0222,-3.679 -0.0103,-4.5499 0.071,-5.2502 0.40881,-3.5212 1.96419,-5.4902 4.86822,-6.1627 0.77347,-0.1792 2.60249,-0.2299 3.47517,-0.096 2.67085,0.4086 4.33684,1.8678 5.08662,4.4551 0.35311,1.2185 0.37349,1.4506 0.40186,4.5758 l 0.0264,2.9115 h -4.72137 -4.72137 l 0.0299,2.0842 c 0.0266,1.8529 0.0445,2.1384 0.16216,2.5723 0.24301,0.8967 0.59427,1.3865 1.21178,1.6897 0.32763,0.1609 0.42357,0.1769 1.06027,0.1769 0.87233,0 1.21316,-0.1306 1.68325,-0.645 0.49889,-0.5458 0.68961,-1.1695 0.75635,-2.4734 l 0.0423,-0.8272 2.25302,-0.017 2.25302,-0.017 -0.0394,0.7805 c -0.1245,2.4674 -0.97452,4.4794 -2.36611,5.60046 -0.68797,0.5542 -1.73804,1.0192 -2.7706,1.2268 -0.59239,0.1191 -2.41916,0.1719 -3.03993,0.088 z m 3.67816,-14.87696 c 0,-2.5538 -0.73573,-3.6497 -2.45015,-3.6497 -0.73177,0 -1.16804,0.1545 -1.57849,0.5592 -0.58375,0.5755 -0.79378,1.2922 -0.85192,2.9072 l -0.0384,1.066 h 2.45947 2.45946 z m -57.11808,14.42206 c -0.0195,-0.079 -0.95965,-4.92576 -2.08926,-10.77106 l -2.05384,-10.6279 2.16145,-0.017 c 1.1888,-0.01 2.17438,-0.01 2.19016,0.012 0.0158,0.015 0.46293,3.0069 0.99366,6.647 0.53072,3.64 0.97878,6.632 0.99568,6.6489 0.0169,0.017 0.66296,-2.9525 1.43569,-6.5984 l 1.40494,-6.6291 1.69038,-0.017 1.69038,-0.017 0.0963,0.5261 c 0.0529,0.2893 0.59165,3.2958 1.19711,6.6811 0.60546,3.3854 1.10879,6.1472 1.1185,6.1375 0.01,-0.01 0.5485,-2.9514 1.19731,-6.5369 0.64883,-3.5857 1.19591,-6.5981 1.21575,-6.6944 l 0.0361,-0.175 h 2.19481 c 2.06073,0 2.19275,0.01 2.16105,0.1114 -0.0411,0.1356 -4.93874,21.39136 -4.93874,21.43416 0,0.017 -0.82253,0.023 -1.82784,0.013 l -1.82785,-0.017 -1.21923,-6.77756 c -0.67059,-3.7278 -1.23614,-6.7348 -1.2568,-6.6822 -0.0207,0.053 -0.64141,2.9163 -1.37946,6.364 -0.73805,3.4477 -1.38556,6.46176 -1.4389,6.69806 l -0.097,0.4295 h -1.80743 -1.80743 z m 64.92538,0.1016 c -0.0238,-0.024 -0.0432,-4.87836 -0.0432,-10.78776 v -10.7446 h 2.16244 2.16244 l 0.0173,1.2766 0.0172,1.2766 0.26544,-0.4039 c 0.35219,-0.5358 1.22416,-1.3644 1.78902,-1.7 0.99634,-0.5919 1.9154,-0.8311 3.19316,-0.8311 h 0.83 v 2.3547 c 0,1.295 -0.0125,2.3546 -0.0277,2.3546 -0.0153,0 -0.32313,-0.072 -0.68413,-0.1599 -0.92887,-0.2262 -2.06383,-0.3231 -2.70043,-0.2306 -1.01922,0.1481 -1.92324,0.8055 -2.26214,1.6452 l -0.14859,0.3681 -0.0318,7.796 -0.0318,7.79576 -2.2319,0.017 c -1.22754,0.01 -2.25135,0 -2.27513,-0.026 z"
       style="fill:#fbffff;stroke-width:0.06363998;fill-opacity:1;opacity:0.5" />
    <path
       inkscape:connector-curvature="0"
       id="path932"
       d="m 70.615093,1043.876 c -1.74659,-0.1333 -3.46312,-0.3628 -4.96392,-0.6639 -8.22621,-1.6498 -15.74212,-6.1765 -21.0757,-12.6933 -3.6471,-4.4562 -6.13808,-9.5513 -7.43059,-15.1985 -0.0378,-0.1651 -0.0291,-0.1764 0.10446,-0.135 0.32777,0.1014 1.59422,0.7006 2.30944,1.0925 2.06051,1.129 3.96303,2.5241 5.66528,4.154 1.06462,1.0194 1.72961,1.6086 2.54428,2.2543 3.54826,2.812 7.49696,4.449 11.82929,4.904 1.06968,0.1123 3.23135,0.1277 4.30344,0.031 3.93801,-0.3567 8.10371,-1.6556 12.0916,-3.7704 0.47253,-0.2505 0.88778,-0.4467 0.92278,-0.4357 0.035,0.011 0.55049,0.1456 1.14552,0.2994 2.55348,0.66 4.70685,0.9789 7.55185,1.1186 5.10294,0.2506 10.82711,-0.7292 15.740377,-2.6942 0.97282,-0.389 3.23436,-1.4521 3.18796,-1.4985 -0.0141,-0.014 -0.42209,0.088 -0.90672,0.2272 -2.39781,0.6879 -4.472647,0.9417 -7.213337,0.8823 -2.95883,-0.064 -5.48032,-0.511 -8.58994,-1.5224 -5.00391,-1.6276 -9.86515,-4.3584 -14.32045,-8.0448 -3.91334,-3.2379 -7.2596,-5.4172 -11.07335,-7.2115 -1.96918,-0.9265 -4.47055,-1.8594 -6.41152,-2.3914 -0.35865,-0.098 -0.6445,-0.1863 -0.63522,-0.1955 0.009,-0.01 0.5175,-0.117 1.12939,-0.2394 7.68008,-1.536 15.87298,-0.7475 23.57744,2.2692 2.43591,0.9538 5.16766,2.3194 6.93676,3.4677 3.71338,2.4104 8.91162,4.3989 13.370247,5.1147 l 0.89683,0.144 -0.67409,0.4198 c -2.329087,1.4505 -4.387927,3.3211 -6.348167,5.768 -0.3325,0.415 -0.6348,0.8119 -0.67177,0.8819 -0.066,0.125 -0.0645,0.1249 0.0846,0 0.0835,-0.072 0.33861,-0.3007 0.5669,-0.5092 1.10666,-1.0104 2.72541,-2.1482 4.0079,-2.8171 1.40385,-0.7323 2.979197,-1.2678 4.550257,-1.5466 1.11002,-0.1971 3.55029,-0.2159 4.64572,-0.036 0.90874,0.1494 1.17741,0.2216 1.17702,0.3161 -8e-4,0.203 -0.55893,2.1802 -0.91995,3.259 -1.57906,4.719 -4.025,8.9586 -7.31791,12.6846 -0.871117,0.9857 -2.799397,2.874 -3.789777,3.7111 -4.37736,3.7002 -9.56199,6.3319 -15.08267,7.656 -1.54755,0.3712 -3.40498,0.6801 -5.21848,0.8681 -0.64995,0.068 -5.05809,0.1316 -5.69578,0.083 z m 59.089717,-7.8904 c -3.69267,-0.2534 -6.82849,-1.4666 -9.33109,-3.6098 -2.81955,-2.4147 -4.50038,-5.7572 -4.86546,-9.6754 -0.094,-1.009 -0.0438,-2.9353 0.10053,-3.8552 1.03686,-6.6082 6.01749,-11.409 12.82323,-12.36 0.79989,-0.1118 3.28549,-0.1105 4.04114,0 2.92875,0.4362 5.35327,1.4485 7.38223,3.0822 0.70788,0.57 1.7638,1.6841 2.27557,2.4011 0.51932,0.7275 1.2484,2.1653 1.51035,2.9784 1.0126,3.1433 0.60222,6.8779 -1.0593,9.6403 -0.82792,1.3765 -2.137,2.7229 -3.52212,3.6226 -1.39418,0.9056 -3.07511,1.5447 -4.39371,1.6705 -0.79948,0.076 -1.67061,-0.211 -2.06921,-0.6823 -0.23393,-0.2765 -0.45448,-0.7742 -0.50828,-1.1467 -0.024,-0.1663 -0.0729,-0.3023 -0.10858,-0.3023 -0.0357,0 -0.27806,0.2024 -0.53855,0.4499 -1.30541,1.24 -2.87009,1.8271 -4.39714,1.65 -1.95355,-0.2266 -3.75717,-1.4736 -4.72412,-3.2663 -0.59428,-1.1018 -0.82524,-2.0648 -0.82467,-3.4386 10e-4,-3.5221 1.68618,-6.8903 4.3471,-8.691 0.50387,-0.341 1.56312,-0.8157 2.20039,-0.9861 1.95464,-0.5226 3.84355,-0.2725 5.18393,0.6863 0.44503,0.3183 1.01528,0.8967 1.28163,1.3 0.0992,0.1501 0.20146,0.2503 0.22723,0.2227 0.0257,-0.028 0.15177,-0.3939 0.27998,-0.814 0.12821,-0.42 0.26228,-0.8568 0.29793,-0.9705 l 0.0648,-0.2069 h 1.62217 c 1.5157,0 1.61991,0.01 1.58755,0.1114 -0.0191,0.061 -0.63911,2.5742 -1.37791,5.5845 -1.39418,5.6804 -1.50296,6.2294 -1.33495,6.7385 0.11604,0.3516 0.29143,0.4846 0.63924,0.4846 0.74227,0 1.54425,-0.4 2.29591,-1.145 1.10825,-1.0985 1.79218,-2.5188 2.13009,-4.4235 0.13701,-0.7723 0.15646,-2.6112 0.0357,-3.3729 -0.45241,-2.8533 -1.76939,-4.9555 -4.01664,-6.4117 -1.38049,-0.8945 -3.02055,-1.4574 -4.86807,-1.6706 -5.28788,-0.6104 -9.76519,1.7041 -11.88044,6.1413 -1.0124,2.1237 -1.40466,4.9413 -1.03804,7.4563 0.45419,3.1157 2.03176,5.7467 4.51761,7.5341 0.72488,0.5212 2.14949,1.2346 3.04543,1.5249 3.5029,1.1353 7.5112,0.7473 10.50989,-1.0175 0.64298,-0.3784 1.38325,-0.9269 1.81703,-1.3464 l 0.28966,-0.2801 1.67723,0.017 1.67725,0.017 -0.50292,0.6682 c -2.67205,3.5503 -6.62527,5.5641 -11.16315,5.6863 -0.54253,0.015 -1.14393,0.015 -1.33644,0 z m -0.26017,-9.7963 c 1.66263,-0.3919 3.17713,-2.0653 3.79919,-4.1977 0.22257,-0.763 0.28437,-2.0803 0.12688,-2.705 -0.30401,-1.206 -1.11873,-2.1039 -2.16612,-2.3874 -0.53919,-0.146 -1.42316,-0.1048 -2.00889,0.094 -2.03225,0.6882 -3.69026,3.2214 -3.70918,5.6672 -0.004,0.5002 0.0285,0.8627 0.10249,1.1455 0.31578,1.2077 1.13093,2.091 2.2066,2.3907 0.39783,0.1109 1.16305,0.1077 1.64903,-0.01 z m 33.73481,9.7712 c -1.84395,-0.1857 -3.0395,-0.7298 -4.12626,-1.8779 -0.86483,-0.9136 -1.40695,-2.1714 -1.70973,-3.967 -0.10271,-0.609 -0.11435,-1.1447 -0.11435,-5.2602 0,-4.1154 0.0117,-4.6511 0.11435,-5.2602 0.16893,-1.0017 0.39709,-1.7905 0.70753,-2.4458 0.37677,-0.7954 0.69762,-1.2486 1.26612,-1.7885 1.17024,-1.1113 2.70062,-1.6278 4.81693,-1.6259 2.72253,0 4.54858,0.8444 5.70321,2.6292 1.0187,1.5747 1.32807,3.3822 1.28453,7.5048 l -0.0192,1.8138 -4.73326,0.016 -4.73327,0.016 0.0343,2.0519 c 0.0255,1.5207 0.0599,2.1646 0.1331,2.4869 0.25758,1.1347 0.85695,1.8247 1.74499,2.0089 0.92376,0.1916 1.84533,-0.059 2.32852,-0.6332 0.46405,-0.5515 0.67005,-1.2471 0.71992,-2.4311 l 0.0368,-0.875 h 2.23743 2.23742 l -0.0203,0.4295 c -0.11917,2.5276 -0.75895,4.2805 -2.01498,5.5208 -0.87414,0.8631 -1.85587,1.3456 -3.22361,1.5841 -0.70189,0.1224 -1.98274,0.1714 -2.67037,0.1022 z m 3.41861,-15.1303 c -0.0365,-1.3119 -0.11015,-1.698 -0.4431,-2.3251 -0.23319,-0.4392 -0.522,-0.707 -0.99978,-0.927 -0.29753,-0.137 -0.44779,-0.163 -0.9575,-0.1655 -0.75924,-0.01 -1.15216,0.1236 -1.58716,0.5147 -0.63316,0.5693 -0.86928,1.3334 -0.93634,3.0302 l -0.0421,1.066 h 2.49962 2.49965 z m 13.46802,15.1255 c -3.37454,-0.3459 -5.30593,-2.366 -5.78535,-6.051 -0.14711,-1.1309 -0.10006,-9.8138 0.0575,-10.6178 0.60067,-3.0643 2.17464,-4.8367 4.77161,-5.3732 2.18065,-0.4504 4.6452,-0.1078 6.10228,0.8483 1.43581,0.9422 2.32974,2.5139 2.70016,4.7476 0.083,0.5008 0.11152,1.2299 0.13363,3.4207 l 0.0281,2.7842 h -4.71503 -4.71505 v 1.9009 c 0,2.1281 0.0693,2.7601 0.37481,3.4161 0.24509,0.5264 0.51937,0.8185 0.983,1.0467 0.47967,0.2361 1.07152,0.3063 1.646,0.1952 1.23637,-0.2391 1.82593,-1.1997 1.93438,-3.1517 l 0.0443,-0.7979 h 2.22679 2.22678 l -0.0451,0.6841 c -0.20273,3.0769 -1.27419,5.1344 -3.21793,6.1793 -1.19594,0.6429 -3.05,0.9428 -4.75096,0.7685 z m 3.52136,-14.9982 c -0.0629,-1.6819 -0.30366,-2.4599 -0.938,-3.0302 -0.43557,-0.3916 -0.82731,-0.5184 -1.59323,-0.5154 -0.55724,0 -0.64722,0.021 -1.0287,0.2081 -0.98597,0.4854 -1.38355,1.488 -1.38355,3.489 v 0.9145 h 2.49166 2.49166 z m 11.44382,15.0007 c -1.28394,-0.1956 -2.28794,-0.8561 -2.94649,-1.9386 -0.27967,-0.4597 -0.56047,-1.2054 -0.72366,-1.9218 -0.14092,-0.6185 -0.14232,-0.6769 -0.1652,-6.8605 -0.0241,-6.4966 -0.0114,-6.9048 0.24654,-7.9226 0.38493,-1.5193 1.14805,-2.5821 2.23735,-3.116 0.73969,-0.3625 1.20933,-0.4672 2.08332,-0.4644 1.52414,0.01 2.35181,0.3887 4.37524,2.0284 l 0.20684,0.1676 v -4.5902 -4.5903 h 2.22739 2.2274 v 14.4145 14.4144 h -2.10011 -2.10012 l -0.003,-1.1295 -0.003,-1.1297 -0.35937,0.4137 c -1.1538,1.3282 -1.98259,1.8952 -3.11692,2.1325 -0.56133,0.1174 -1.61598,0.1642 -2.08669,0.093 z m 3.37324,-3.7114 c 0.47436,-0.1264 0.87732,-0.3195 1.43777,-0.6893 l 0.50293,-0.3318 -7.3e-4,-6.3671 -7.4e-4,-6.3671 -0.41849,-0.2781 c -1.76223,-1.1705 -3.1902,-1.0985 -3.84976,0.1943 -0.40918,0.8021 -0.43945,1.2463 -0.43945,6.4477 0,4.6605 0.0266,5.2765 0.25912,6.014 0.3683,1.1678 1.32492,1.6929 2.50955,1.3774 z m 15.10245,3.7087 c -3.0227,-0.3201 -4.98161,-2.1257 -5.75027,-5.3002 -0.0848,-0.3502 -0.14756,-0.6412 -0.13945,-0.6467 0.0294,-0.02 3.83422,-1.0512 3.87259,-1.0498 0.0217,0 0.0733,0.1804 0.1147,0.3992 0.38695,2.0455 1.44656,3.0765 3.0385,2.9565 1.11536,-0.084 1.8115,-0.7819 1.81801,-1.8225 0.008,-1.2301 -0.67678,-2.1306 -2.83461,-3.7288 -2.21533,-1.6409 -2.62609,-1.9717 -3.39266,-2.733 -1.58583,-1.5748 -2.18178,-2.9414 -2.10782,-4.8335 0.0381,-0.9742 0.21596,-1.6718 0.62844,-2.4647 1.40648,-2.7034 5.11461,-3.7985 8.17043,-2.413 1.20977,0.5485 2.31422,1.6525 2.98307,2.9816 0.23738,0.4718 0.55504,1.3529 0.66464,1.8436 0.0557,0.2495 0.0497,0.2734 -0.076,0.3015 -0.33574,0.075 -3.62037,0.6106 -3.63777,0.5929 -0.0107,-0.011 -0.0673,-0.2059 -0.12572,-0.4335 -0.14622,-0.569 -0.42388,-1.1299 -0.73349,-1.4817 -0.90741,-1.0309 -2.8612,-0.9611 -3.44818,0.1231 -0.56651,1.0465 -0.079,2.1631 1.50827,3.455 0.24502,0.1994 0.91801,0.7011 1.49554,1.115 1.47426,1.0563 2.16125,1.6142 2.90018,2.3551 1.6508,1.6552 2.34403,3.3451 2.23292,5.4433 -0.068,1.284 -0.43374,2.3667 -1.09371,3.2377 -1.17624,1.5522 -3.54872,2.3718 -6.08759,2.1029 z m -64.13738,-14.7912 v -14.4145 h 2.2274 2.2274 v 14.4145 14.4144 h -2.2274 -2.2274 z m -82.662567,2.4497 c -2.12513,-0.1478 -4.32098,-0.5756 -6.30612,-1.2286 -3.07243,-1.0105 -6.4167,-2.8526 -8.68686,-4.7848 -1.1664,-0.9928 -1.96677,-1.6259 -2.60924,-2.064 -3.52134,-2.4012 -7.14393,-3.6232 -11.08718,-3.74 -0.70764,-0.021 -1.27299,-0.06 -1.25633,-0.087 0.0573,-0.093 2.48001,-1.8871 3.33284,-2.4685 0.99186,-0.6763 0.82008,-0.6451 2.49736,-0.4537 5.43403,0.6201 10.9232,2.2541 15.86839,4.7237 2.39448,1.1958 4.79877,2.6531 6.48986,3.9337 0.86181,0.6527 2.19674,1.5307 3.37433,2.2195 1.71431,1.0026 4.49106,2.3236 6.09661,2.9003 0.27296,0.098 0.47343,0.2001 0.44548,0.2268 -0.0604,0.058 -1.5813,0.3897 -2.43731,0.5321 -1.631,0.2714 -4.15454,0.3995 -5.72183,0.2906 z m -30.32142,-13.1253 c -0.021,-0.3237 -0.0562,-0.8923 -0.0782,-1.2633 l -0.04,-0.6747 0.66468,-0.034 c 0.36557,-0.018 0.92796,-0.019 1.24975,-6e-4 l 0.58508,0.034 -0.40137,0.4207 c -0.22075,0.2313 -0.74112,0.8 -1.15638,1.2639 -0.41526,0.4637 -0.76186,0.8432 -0.77023,0.8432 -0.008,0 -0.0324,-0.2649 -0.0534,-0.5887 z m 72.260447,-4.6961 c -4.16634,-1.2111 -8.47157,-3.2419 -12.054497,-5.6861 -2.47125,-1.68566 -2.93574,-1.99446 -3.76608,-2.50346 -5.18647,-3.1789 -10.48753,-5.0751 -15.96768,-5.7118 -0.45176,-0.053 -0.8316,-0.1057 -0.84409,-0.1182 -0.0423,-0.043 1.59657,-0.4225 2.36549,-0.5489 3.52935,-0.5801 7.25367,-0.1713 10.78698,1.1842 0.40252,0.1544 1.41917,0.6219 2.25922,1.0388 0.84004,0.417 1.80878,0.8613 2.15273,0.9875 4.38664,1.6091 8.601127,1.4342 12.860457,-0.5337 0.3118,-0.1441 0.57363,-0.2546 0.58185,-0.2455 0.008,0.01 0.18926,0.4969 0.40232,1.0841 1.02804,2.8332 1.70204,5.77686 2.0068,8.76466 0.13124,1.2866 0.19368,2.5466 0.12594,2.541 -0.031,0 -0.44025,-0.1162 -0.90944,-0.2526 z m -72.079157,-3.4594 c 0.0157,-0.073 0.0603,-0.3627 0.0991,-0.6427 0.22649,-1.6367 0.75431,-3.86706 1.34787,-5.69576 0.3337,-1.0281 1.02662,-2.9076 1.09842,-2.9794 0.0469,-0.047 1.46015,0.3799 2.32332,0.7017 1.65675,0.6177 2.80519,1.22 4.51905,2.3702 0.98505,0.6611 2.38602,1.4349 3.182,1.7577 0.19251,0.078 0.70353,0.2619 1.1356,0.4086 l 0.78558,0.2667 -0.62648,0.3998 c -0.72192,0.4607 -2.26418,1.52596 -2.92318,2.01916 l -0.45115,0.3376 -1.33077,2e-4 c -2.62013,2e-4 -5.39922,0.3241 -8.12316,0.9465 -1.03718,0.237 -1.06404,0.2399 -1.03617,0.1097 z m 102.779397,-1.0871 c -2.35836,-0.52 -3.59692,-2.55166 -3.34071,-5.47996 0.23621,-2.6997 1.45287,-4.5931 4.07257,-6.3379 1.00228,-0.6675 2.89599,-1.6274 4.37432,-2.2172 l 1.03322,-0.4123 7.3e-4,-1.0208 c 0.001,-1.3747 -0.15661,-1.9644 -0.66082,-2.4687 -0.47361,-0.4735 -1.31869,-0.6607 -2.21797,-0.4909 -1.17797,0.2222 -1.7,1.006 -1.8457,2.7713 l -0.0158,0.1909 h -2.22527 -2.22528 l 0.0188,-0.3182 c 0.0569,-0.9632 0.37346,-2.1117 0.82311,-2.9864 0.91815,-1.7861 2.57295,-2.9161 4.8178,-3.2899 0.72849,-0.1212 2.58202,-0.1028 3.33164,0.033 2.8469,0.5165 4.34291,2.0715 4.65099,4.8342 0.0441,0.3955 0.0678,3.1707 0.0678,7.9299 0,7.4125 0.009,7.7443 0.22826,8.80026 l 0.0364,0.175 h -2.13699 c -1.17535,0 -2.13712,-0.021 -2.13726,-0.048 -6.4e-4,-0.065 -0.18336,-1.21496 -0.22678,-1.42536 l -0.0348,-0.1686 -0.53218,0.4015 c -1.53813,1.16006 -2.87512,1.62746 -4.62538,1.61706 -0.46703,0 -1.02098,-0.043 -1.23099,-0.089 z m 3.59822,-3.59726 c 0.74945,-0.1421 1.56481,-0.686 2.16994,-1.4475 l 0.3731,-0.4695 v -2.8266 -2.8267 l -0.55685,0.3275 c -2.41684,1.4217 -3.83765,2.7542 -4.28131,4.0154 -0.095,0.2699 -0.14976,0.6102 -0.17208,1.0691 -0.0385,0.7921 0.0616,1.2335 0.36226,1.5963 0.40416,0.4877 1.27329,0.7198 2.10494,0.562 z m 15.8019,3.60096 c -1.76202,-0.3331 -2.95434,-1.27366 -3.41925,-2.69726 -0.0879,-0.2692 -0.18996,-0.6594 -0.22675,-0.8671 -0.044,-0.2488 -0.0668,-2.793 -0.0668,-7.4618 v -7.0842 h -1.24098 -1.24098 v -1.8455 -1.8456 h 1.24098 1.24098 v -2.8956 -2.8956 h 2.22739 2.2274 v 2.8956 2.8956 h 1.49554 1.49555 v 1.8456 1.8455 h -1.49555 -1.49554 v 6.3609 c 0,4.2852 0.0222,6.4647 0.0683,6.6789 0.09,0.4196 0.38178,0.8131 0.7153,0.9645 0.22407,0.1017 0.42117,0.1212 1.23704,0.1224 h 0.97051 v 1.9359 1.93576 l -0.30229,0.075 c -0.46546,0.1148 -2.8796,0.1401 -3.43073,0.036 z m 11.52892,0.02 c -1.42921,-0.206 -2.81739,-0.8911 -3.63431,-1.79386 -1.10791,-1.2242 -1.65418,-2.8161 -1.81386,-5.2856 -0.10643,-1.646 -0.0385,-8.2695 0.0937,-9.124 0.3541,-2.2907 1.17719,-3.8422 2.5629,-4.8311 1.21391,-0.8662 3.15026,-1.2921 5.0884,-1.1193 3.43098,0.3062 5.31228,2.0831 5.94798,5.6182 0.12897,0.7172 0.14512,1.0509 0.17156,3.5442 l 0.0292,2.7524 h -4.72101 -4.72101 l 0.027,2.2115 c 0.0227,1.8565 0.0447,2.2722 0.13755,2.5899 0.32455,1.1105 0.87208,1.6515 1.84268,1.8205 0.82974,0.1445 1.68434,-0.1092 2.16672,-0.643 0.46663,-0.5165 0.68918,-1.2634 0.77183,-2.5901 l 0.0446,-0.7159 h 2.22679 2.22677 l -0.0434,0.6204 c -0.13637,1.9494 -0.61268,3.5248 -1.39884,4.6265 -0.90028,1.26156 -2.34575,2.07246 -4.13928,2.32186 -0.56807,0.079 -2.31057,0.078 -2.8659,0 z m 3.93183,-14.92666 c -0.0156,-1.1628 -0.11466,-1.7572 -0.38953,-2.3386 -0.23095,-0.4886 -0.57035,-0.8362 -1.02429,-1.049 -0.31505,-0.1478 -0.43174,-0.1661 -1.0543,-0.1655 -0.58068,6e-4 -0.75077,0.024 -0.9976,0.1375 -0.41051,0.1888 -0.82396,0.5875 -1.02505,0.9886 -0.30784,0.6141 -0.37888,1.0105 -0.41119,2.2946 l -0.03,1.194 2.47291,-0.017 2.47294,-0.017 z m -57.16125,14.28126 c -0.15662,-0.77836 -4.07839,-21.10606 -4.07839,-21.13946 0,-0.055 4.25175,-0.044 4.28569,0.011 0.0161,0.026 0.46524,3.0403 0.99801,6.698 0.53277,3.6578 0.97947,6.6623 0.99267,6.6769 0.0132,0.015 0.0362,0.015 0.0511,-6e-4 0.0248,-0.025 2.83667,-13.2293 2.83667,-13.3209 0,-0.022 0.75035,-0.032 1.66745,-0.023 l 1.66744,0.017 1.18888,6.6376 c 1.02407,5.7174 1.23902,6.8467 1.27325,6.6897 0.003,-0.015 0.55503,-3.0336 1.22635,-6.7088 l 1.22055,-6.6821 2.15417,-0.017 2.15416,-0.017 -0.0277,0.144 c -0.0152,0.079 -1.12787,4.9195 -2.4726,10.7561 l -2.44495,10.61186 h -1.79436 -1.79435 l -0.0673,-0.3341 c -0.0371,-0.1837 -0.58527,-3.22616 -1.21829,-6.76096 -0.63302,-3.5349 -1.1632,-6.4392 -1.17817,-6.4542 -0.015,-0.015 -0.0381,-0.015 -0.0514,-7e-4 -0.0244,0.027 -2.90331,13.41616 -2.90331,13.50296 0,0.026 -0.81415,0.047 -1.80922,0.047 h -1.80923 z m 64.97099,-10.42096 v -10.7552 h 2.13062 2.13063 l 0.0172,1.2887 0.0172,1.2887 0.28251,-0.4119 c 0.62488,-0.9113 1.63231,-1.7197 2.61541,-2.0989 0.77947,-0.3006 1.22489,-0.3871 2.2092,-0.4287 l 0.90686,-0.038 v 2.3322 c 0,1.2827 -0.022,2.3322 -0.0489,2.3322 -0.0269,0 -0.36339,-0.073 -0.74777,-0.1632 -0.84667,-0.1978 -2.21831,-0.2762 -2.78115,-0.159 -0.76012,0.1584 -1.43791,0.6118 -1.83656,1.2286 -0.45823,0.709 -0.44051,0.3552 -0.44051,8.7954 v 7.54466 h -2.2274 -2.2274 z m -127.248137,5.704 c -1.71025,-0.7022 -3.29915,-1.6311 -4.80512,-2.8091 -2.41195,-1.8868 -4.68659,-3.043 -7.19329,-3.6563 -0.40377,-0.099 -0.95652,-0.2155 -1.22833,-0.2593 -0.34127,-0.055 -0.4849,-0.1039 -0.46417,-0.1579 0.084,-0.219 1.15565,-1.9015 1.77055,-2.7798 2.65181,-3.7879 6.04469,-7.0936 9.88388,-9.6296 7.18574,-4.7467 15.75327,-6.7916 24.37366,-5.8177 8.2227,0.9291 15.83842,4.5996 21.70555,10.4615 2.483167,2.4809 4.293997,4.8369 5.994127,7.7986 0.51243,0.8927 1.61649,3.0708 1.69897,3.3517 0.0378,0.1286 0.0115,0.1415 -0.39169,0.1909 -0.64332,0.079 -2.57804,0.06 -3.23232,-0.032 -2.62702,-0.369 -5.195967,-1.3055 -7.690947,-2.8037 -2.65453,-1.594 -4.88576,-2.4291 -7.61446,-2.8498 -1.02263,-0.1577 -3.53658,-0.1573 -4.6139,0 -3.5506,0.5208 -6.87762,1.9945 -10.26009,4.5447 l -0.33226,0.2505 -1.09964,0.04 c -4.75675,0.1721 -10.66988,1.7479 -15.31807,4.0824 -0.31643,0.1589 -0.59738,0.2877 -0.62433,0.2862 -0.0269,0 -0.27811,-0.097 -0.55812,-0.2118 z"
       style="fill:#fffcff;stroke-width:0.06363998;fill-opacity:1" />
  </g>
</svg>
