<?xml version="1.0" encoding="UTF-8"?>
<svg version="1.1" viewBox="0 0 250 91" xml:space="preserve" xmlns="http://www.w3.org/2000/svg"><g transform="matrix(.42971 0 0 .42971 16.837 12.5)" fill="#fff"><path class="cls-1" d="m162.62 6.47 9.51 27.62 8.24-22.76 8 22.77 9.63-27.49a9.45 9.45 0 0 1 2.71-4.36 3.37 3.37 0 0 1 1.41-0.66h-8a2.08 2.08 0 0 1 1.78 2.35 7 7 0 0 1-0.47 2.25l-6.33 18.28-6.32-18a8.75 8.75 0 0 1-0.61-2.67q0-1.87 1.35-2.16h-8.34c1.57 0.28 2.77 1.85 3.62 4.69l0.4 1.43-6.2 16.82-6.23-18.15a9.52 9.52 0 0 1-0.54-2.72c0-1.23 0.42-1.93 1.27-2.12h-8.86q2.43 0.41 3.98 4.88zm37.8 7.07a13.8 13.8 0 0 0-2.65 8.63 12.42 12.42 0 0 0 2.44 7.83 8.81 8.81 0 0 0 7.31 3.47q6.47 0 8.43-7c-2.07 2.75-4.49 4.12-7.28 4.12a6.77 6.77 0 0 1-5.27-2.39 10 10 0 0 1-2.25-6.79h14.57a15.18 15.18 0 0 0-2.11-7.83 7.07 7.07 0 0 0-6.28-3.51 8.29 8.29 0 0 0-6.91 3.47zm2.29 1a5 5 0 0 1 4.29-2.45 4.06 4.06 0 0 1 3.78 2.48 10.22 10.22 0 0 1 1.09 4.92h-10.72a9.29 9.29 0 0 1 1.56-4.96zm27.49 17.23a5.72 5.72 0 0 0 2.11-4.68 5.49 5.49 0 0 0-1.73-4.09 22.84 22.84 0 0 0-4.41-2.77 16.9 16.9 0 0 1-3.84-2.46 3.14 3.14 0 0 1-0.89-2.32 2.86 2.86 0 0 1 1.19-2.36 4.61 4.61 0 0 1 2.88-0.92 5.43 5.43 0 0 1 3.43 1.18 6.44 6.44 0 0 1 2.15 3.93v-5.7a9.61 9.61 0 0 0-5.29-1.5 7.65 7.65 0 0 0-5.3 1.8 6 6 0 0 0 0.75 9.54l5.15 2.9q2.78 1.7 2.77 3.75a2.82 2.82 0 0 1-1.55 2.58 5.44 5.44 0 0 1-2.86 0.7q-5.3 0-6.51-6.09v6.42a9.84 9.84 0 0 0 6.23 1.83 8.7 8.7 0 0 0 5.72-1.74zm6.52-4.26a6.64 6.64 0 0 0 1.33 4.4 4.37 4.37 0 0 0 3.54 1.6q4.5 0 5.67-5.3-2 2.58-4.31 2.58-2.87 0-2.86-4.27v-13.4h6.42v-2.29h-6.42v-5.16l-6.28 7.45h2.91zm24.57 3.85a10.89 10.89 0 0 0 7 2.1 15.06 15.06 0 0 0 10.17-4.26q5.67 4.26 8.2 4.26 3.11 0 4.6-4.64a4.16 4.16 0 0 1-2.86 1.59c-1.63 0-4.08-1.24-7.36-3.74a32.5 32.5 0 0 0 5.44-10.08q1.35-4 3-4.92h-7.13a2.86 2.86 0 0 1 1.36 2.62 13.73 13.73 0 0 1-1.4 5.35 26.48 26.48 0 0 1-3.31 5.48 73.66 73.66 0 0 1-8.9-8.72 26.24 26.24 0 0 0 5-3.79 7.77 7.77 0 0 0 2.24-5.39 5.49 5.49 0 0 0-2.34-4.69 8.84 8.84 0 0 0-5.48-1.64 8.11 8.11 0 0 0-5.63 2 6.8 6.8 0 0 0-2.24 5.26q0 3.47 3.84 8.36a21.31 21.31 0 0 0-4.78 3.79 7.79 7.79 0 0 0-2.06 5.23 7 7 0 0 0 2.64 5.83zm3.49-23.81a4.23 4.23 0 0 1 1.22-3.15 4.31 4.31 0 0 1 3.16-1.21 4.84 4.84 0 0 1 3.54 1.4 4.58 4.58 0 0 1 1.46 3.41 5.32 5.32 0 0 1-1.45 3.56 22.11 22.11 0 0 1-4.13 3.23q-3.79-4.86-3.8-7.24zm2.22 10.77a78.85 78.85 0 0 0 9.37 9.26 10.61 10.61 0 0 1-7.26 3.21 6.88 6.88 0 0 1-4.79-1.79 5.67 5.67 0 0 1-2-4.38q-0.02-3.19 4.68-6.3zm38.74-11.9v22.07c0 2.6-0.79 4-2.39 4.31h7.65c-1.72-0.28-2.58-1.71-2.58-4.31v-20.62l21.28 26.3v-28.17q0-3.89 2.43-4.36h-7.54c1.62 0.32 2.44 1.77 2.44 4.36v18.88l-18.76-23.29h-6.09c2.38 0.97 3.56 2.58 3.56 4.83zm37.73 27.09a9.9 9.9 0 0 0 8.29-3.94 12.85 12.85 0 0 0 2.67-8.15 11.85 11.85 0 0 0-2.53-7.69 9.47 9.47 0 0 0-7.9-3.65 9.77 9.77 0 0 0-8.2 3.93 13.06 13.06 0 0 0-2.67 8.2 12.13 12.13 0 0 0 2.49 7.69 9.49 9.49 0 0 0 7.85 3.61zm-5.25-18.19a5.54 5.54 0 0 1 5-3 6.53 6.53 0 0 1 5.71 3.33 12.41 12.41 0 0 1 1.83 6.75 11.28 11.28 0 0 1-1.5 5.86 5.4 5.4 0 0 1-4.92 3 6.56 6.56 0 0 1-5.72-3.33 12.25 12.25 0 0 1-1.87-6.79 11.06 11.06 0 0 1 1.47-5.82zm19.31-2.15a5.64 5.64 0 0 1 0.56 3v12.51c0 2.53-0.67 3.91-2 4.12h7.36c-1.31-0.21-2-1.59-2-4.12v-6.51a11.19 11.19 0 0 1 1.64-6.28c1.1-1.66 2.39-2.49 3.89-2.49a4 4 0 0 1 3.47 2.06v-4.87a4.72 4.72 0 0 0-2-0.51 6.25 6.25 0 0 0-4.24 1.75 9.21 9.21 0 0 0-2.72 4v-5.9l-5.9 2.58h0.41a1.64 1.64 0 0 1 1.53 0.66zm17.34 14.34a6.64 6.64 0 0 0 1.33 4.4 4.37 4.37 0 0 0 3.54 1.6q4.5 0 5.67-5.3-2 2.58-4.31 2.58-2.87 0-2.86-4.27v-13.4h6.42v-2.29h-6.42v-5.16l-6.24 7.45h2.91zm13.4-23.95a7.7 7.7 0 0 1 0.61 3.66v21.51q0 3.75-2 4.07h7.36c-1.31-0.18-2-1.51-2-4v-10a5.57 5.57 0 0 1 2-4.22 6.36 6.36 0 0 1 4.33-1.82c2.8 0 4.21 1.82 4.21 5.48v10.58c0 2.47-0.6 3.8-1.78 4h7.17q-2-0.31-2-4.07v-11.46a8.08 8.08 0 0 0-1.65-5.43 5.62 5.62 0 0 0-4.42-1.78 9.59 9.59 0 0 0-4.44 1.21 8.6 8.6 0 0 0-3.41 3v-14.2l-6.25 2.67h0.42a2.1 2.1 0 0 1 1.85 0.8zm-225.22 44.08 7.87 13.55v8.71q0 4-2.25 4.36h8.33q-2.25-0.37-2.25-4.36v-8.76l7.83-13.4a12.92 12.92 0 0 1 3.23-4 3.29 3.29 0 0 1 1.22-0.66h-7.22a1.32 1.32 0 0 1 1.17 1.5 9.24 9.24 0 0 1-1.5 3.56l-5.85 10.11-6.18-10.63a7.48 7.48 0 0 1-1.27-3.09 1.3 1.3 0 0 1 1.21-1.45h-8.76q1.97 0.39 4.42 4.56z"/><path class="cls-1" d="m192.29 51.53a9.74 9.74 0 0 0-8.2 3.94 13 13 0 0 0-2.67 8.2 12.07 12.07 0 0 0 2.48 7.68 9.48 9.48 0 0 0 7.87 3.65 9.94 9.94 0 0 0 8.3-3.93 12.86 12.86 0 0 0 2.67-8.16 11.82 11.82 0 0 0-2.53-7.68 9.5 9.5 0 0 0-7.92-3.7zm5.25 18.18a5.42 5.42 0 0 1-4.92 3 6.54 6.54 0 0 1-5.72-3.32 12.28 12.28 0 0 1-1.87-6.8 11 11 0 0 1 1.49-5.81 5.53 5.53 0 0 1 5-3 6.55 6.55 0 0 1 5.72 3.33 12.41 12.41 0 0 1 1.76 6.75 11.22 11.22 0 0 1-1.46 5.85zm6.84 4.55h7.36c-1.32-0.22-2-1.59-2-4.12v-6.52a11.13 11.13 0 0 1 1.64-6.28 4.67 4.67 0 0 1 3.89-2.48 4.06 4.06 0 0 1 3.47 2.06v-4.87a4.6 4.6 0 0 0-2-0.52 6.3 6.3 0 0 0-4.25 1.76 9.19 9.19 0 0 0-2.71 4v-5.9l-5.92 2.61h0.47a1.66 1.66 0 0 1 1.5 0.65 5.58 5.58 0 0 1 0.57 3v12.49c0 2.53-0.68 3.86-2.02 4.12zm38.33-0.7a3 3 0 0 1-0.7 0.09q-2.38 0-5.48-3.65l-7-8.25 6.34-5.75a18.69 18.69 0 0 1 4.27-3l1.78-0.7h-9.19c1 0.13 1.5 0.52 1.5 1.18s-0.54 1.45-1.63 2.48l-6.66 6.23v-20.41l-6.19 2.49h0.38a2 2 0 0 1 1.78 0.79 6.85 6.85 0 0 1 0.65 3.57v21.55q0 3.75-2 4.08h7.44q-2-0.33-2-4.09v-7.33l6.48 8c2.17 2.6 4.2 3.91 6.11 3.91a6.64 6.64 0 0 0 4.12-1.19zm1.36-15.56a5.92 5.92 0 0 0 2.77 4.92l5.16 2.86c1.84 1.12 2.77 2.37 2.77 3.75a2.81 2.81 0 0 1-1.55 2.57 5.44 5.44 0 0 1-2.86 0.71q-5.29 0-6.51-6.09v6.42a9.9 9.9 0 0 0 6.22 1.86 8.77 8.77 0 0 0 5.72-1.73 5.78 5.78 0 0 0 2.11-4.69 5.45 5.45 0 0 0-1.74-4.07 22.68 22.68 0 0 0-4.4-2.77 17.28 17.28 0 0 1-3.85-2.46 3.2 3.2 0 0 1-0.89-2.32 2.85 2.85 0 0 1 1.2-2.37 4.67 4.67 0 0 1 2.88-0.91 5.41 5.41 0 0 1 3.42 1.17 6.42 6.42 0 0 1 2.16 3.94v-5.79a9.62 9.62 0 0 0-5.3-1.5 7.6 7.6 0 0 0-5.29 1.81 5.89 5.89 0 0 0-2.02 4.69zm30.14 16.26h7.17q-2-0.33-2-4.08v-11.43a8.11 8.11 0 0 0-1.65-5.44 5.65 5.65 0 0 0-4.42-1.78 9.61 9.61 0 0 0-4.44 1.22 8.58 8.58 0 0 0-3.41 3v-14.2l-6.23 2.67h0.42a2.1 2.1 0 0 1 1.83 0.8 7.62 7.62 0 0 1 0.61 3.65v21.51q0 3.75-2 4.08h7.36c-1.31-0.19-2-1.51-2-4v-10a5.55 5.55 0 0 1 2-4.22 6.32 6.32 0 0 1 4.33-1.83c2.8 0 4.21 1.83 4.21 5.49v10.58c0.01 2.47-0.6 3.79-1.78 3.98zm8.71 0h7.69q-2.12-0.33-2.11-4.08v-18.79l-6.19 2.61h0.52c1.47 0 2.2 1.25 2.2 3.74v12.44q-0.03 3.75-2.11 4.08zm5.39-27.26a2.62 2.62 0 0 0 0.7-1.85 2.53 2.53 0 0 0-0.7-1.82 2.89 2.89 0 0 0-3.84 0 2.53 2.53 0 0 0-0.7 1.82 2.62 2.62 0 0 0 0.7 1.85 2.81 2.81 0 0 0 3.84 0zm6.19 7.62a5.69 5.69 0 0 1 0.56 3v12.52q0 3.8-2 4.12h7.36q-2-0.33-2-4.12v-6.52a11.21 11.21 0 0 1 1.64-6.28c1.1-1.65 2.39-2.48 3.89-2.48a4 4 0 0 1 3.47 2.06v-4.87a4.6 4.6 0 0 0-2-0.52 6.26 6.26 0 0 0-4.24 1.76 9.21 9.21 0 0 0-2.72 4v-5.9l-5.93 2.61h0.47a1.68 1.68 0 0 1 1.5 0.62zm30.08 0.43a7.06 7.06 0 0 0-6.28-3.52 8.3 8.3 0 0 0-6.91 3.47 13.77 13.77 0 0 0-2.65 8.62 12.45 12.45 0 0 0 2.44 7.88 8.8 8.8 0 0 0 7.31 3.5q6.47 0 8.44-7-3.1 4.13-7.29 4.13a6.77 6.77 0 0 1-5.27-2.39 10 10 0 0 1-2.25-6.8h14.57a15.17 15.17 0 0 0-2.11-7.89zm-12.46 5.95a9.32 9.32 0 0 1 1.56-5 5 5 0 0 1 4.25-2.43 4.06 4.06 0 0 1 3.78 2.43 10.17 10.17 0 0 1 1.09 5zm52.81 6.42q-4.17 4.88-9.56 4.87a10.72 10.72 0 0 1-9-4.36 15.3 15.3 0 0 1-3-9.56 14.87 14.87 0 0 1 2.91-9.32 10.24 10.24 0 0 1 8.62-4.22q7 0 9.28 6.28v-6.8a17.29 17.29 0 0 0-8.39-2 15.64 15.64 0 0 0-12.42 5.34 17.36 17.36 0 0 0-4.12 11.67 15.92 15.92 0 0 0 3.8 10.83q4.22 4.85 11.57 4.85a13 13 0 0 0 10.31-4.55zm16.4 6.84h7.17q-2-0.33-2-4.08v-11.43a8.11 8.11 0 0 0-1.65-5.44 5.65 5.65 0 0 0-4.42-1.78 9.61 9.61 0 0 0-4.43 1.22 8.58 8.58 0 0 0-3.41 3v-14.2l-6.23 2.67h0.42a2.1 2.1 0 0 1 1.83 0.8 7.62 7.62 0 0 1 0.61 3.65v21.51c0 2.5-0.68 3.86-2 4.08h7.36c-1.31-0.19-2-1.51-2-4v-10a5.55 5.55 0 0 1 2-4.22 6.32 6.32 0 0 1 4.33-1.83q4.2 0 4.2 5.49v10.58c0 2.47-0.59 3.79-1.78 3.98zm25.08-6v-10.12a6.5 6.5 0 0 0-1.69-4.73 7.23 7.23 0 0 0-5.34-1.88 10.13 10.13 0 0 0-6.61 2 5.5 5.5 0 0 0-1.55 6.89l3.8-1.55c-0.78-0.25-1.17-1-1.17-2.11a2.8 2.8 0 0 1 1.22-2.3 5.68 5.68 0 0 1 3.49-0.93q4.47 0 4.47 5.25v2.43q-12.84 2.82-12.84 8.58a4.51 4.51 0 0 0 1.81 3.79 7.05 7.05 0 0 0 4.42 1.42 10.35 10.35 0 0 0 4.2-0.86 5.66 5.66 0 0 0 2.79-2.46 4 4 0 0 0 1.24 2.22 4.47 4.47 0 0 0 2.46 1.29l3.51-2.62a3.62 3.62 0 0 1-0.75 0.09q-3.46-0.04-3.46-4.4zm-3.41-0.19a4.09 4.09 0 0 1-1.65 3.28 5.73 5.73 0 0 1-3.77 1.36 4.12 4.12 0 0 1-2.8-1 3.24 3.24 0 0 1-1.1-2.6q0-3.84 9.32-6zm39.91 2.11v-11a9.46 9.46 0 0 0-1.36-5.39 5 5 0 0 0-4.35-2.25 9.43 9.43 0 0 0-4.63 1.27 9.11 9.11 0 0 0-3.23 3 5.18 5.18 0 0 0-1.73-3.12 4.93 4.93 0 0 0-3.32-1.15 8.77 8.77 0 0 0-4.16 1.13 8.58 8.58 0 0 0-3.46 3.14v-4.42l-6.28 2.61h0.51a2 2 0 0 1 1.74 0.75 7.26 7.26 0 0 1 0.56 3.46v12q0 3.7-2 4h7.36c-1.25-0.22-1.87-1.58-1.87-4.08v-10a5.71 5.71 0 0 1 1.81-4.13 5.77 5.77 0 0 1 4.15-1.81c2.51 0 3.76 2 3.76 5.86v10.13c0 2.5-0.62 3.86-1.87 4.08h7.17q-1.92-0.33-1.92-4.08v-10a6.19 6.19 0 0 1 6-6c2.51 0 3.77 2 3.77 5.86v10.14c0 2.5-0.63 3.86-1.88 4.08h7.22q-1.98-0.33-1.99-4.08zm15.7-18.65a8.3 8.3 0 0 0-4.08 1.13 8.63 8.63 0 0 0-3.14 2.9v-14l-6.39 2.44h0.42a2 2 0 0 1 1.78 0.8 7.37 7.37 0 0 1 0.66 3.7v26.42a2.77 2.77 0 0 1 2-1.32 11.1 11.1 0 0 1 2 0.66 12.81 12.81 0 0 0 4.5 0.66 9 9 0 0 0 7.64-3.92 14.09 14.09 0 0 0 2.72-8.72q0-5-2.25-7.9a7 7 0 0 0-5.86-2.85zm2.69 18.23a5.59 5.59 0 0 1-4.84 2.91c-3.38 0-5.07-1.35-5.07-4v-8a6.53 6.53 0 0 1 1.77-4.43 5.38 5.38 0 0 1 4.14-2 4.74 4.74 0 0 1 4.32 2.81 12.78 12.78 0 0 1 1.38 6.24 11.73 11.73 0 0 1-1.7 6.47zm18.94 2.3a6.77 6.77 0 0 1-5.24-2.39 10 10 0 0 1-2.25-6.8h14.57a15.17 15.17 0 0 0-2.11-7.82 7.06 7.06 0 0 0-6.28-3.52 8.3 8.3 0 0 0-6.93 3.47 13.77 13.77 0 0 0-2.65 8.62 12.45 12.45 0 0 0 2.44 7.88 8.8 8.8 0 0 0 7.3 3.5q6.46 0 8.43-7-3.09 4.06-7.28 4.06zm-6-16.08a5 5 0 0 1 4.25-2.43 4.06 4.06 0 0 1 3.82 2.45 10.17 10.17 0 0 1 1.09 5h-10.68a9.32 9.32 0 0 1 1.56-5zm27.13-4.45a6.26 6.26 0 0 0-4.24 1.76 9.21 9.21 0 0 0-2.72 4v-5.9l-5.9 2.61h0.49a1.66 1.66 0 0 1 1.5 0.65 5.69 5.69 0 0 1 0.56 3v12.49q0 3.8-2 4.12h7.36q-2-0.33-2-4.12v-6.52a11.21 11.21 0 0 1 1.64-6.28c1.1-1.65 2.39-2.48 3.89-2.48a4 4 0 0 1 3.47 2.06v-4.87a4.6 4.6 0 0 0-2.05-0.52zm-330.69 41.47a9.77 9.77 0 0 0-8.2 3.93 13.08 13.08 0 0 0-2.67 8.21 12.1 12.1 0 0 0 2.49 7.68 9.46 9.46 0 0 0 7.87 3.61 9.9 9.9 0 0 0 8.29-3.94 12.86 12.86 0 0 0 2.68-8.15 11.87 11.87 0 0 0-2.54-7.69 9.49 9.49 0 0 0-7.92-3.65zm5.25 18.18a5.4 5.4 0 0 1-4.92 3 6.53 6.53 0 0 1-5.71-3.33 12.15 12.15 0 0 1-1.88-6.79 11 11 0 0 1 1.5-5.81 5.52 5.52 0 0 1 5-3 6.54 6.54 0 0 1 5.71 3.32 12.41 12.41 0 0 1 1.83 6.75 11.28 11.28 0 0 1-1.53 5.85zm12.33-25.29a11.33 11.33 0 0 0-1.83 6.82v1h-3.89v2.29h3.89v15.42q0 3.94-2.06 4.27h7.45c-1.34-0.22-2-1.64-2-4.27v-15.42h5.63v-2.26h-5.65v-3q0-4.87 2.51-4.88a3.37 3.37 0 0 1 3.12 1.93v-4.18a9.09 9.09 0 0 0-2.11-0.23 5.91 5.91 0 0 0-5.06 2.51zm35.28 27.86a10.69 10.69 0 0 1-9-4.36 15.3 15.3 0 0 1-3-9.56 14.93 14.93 0 0 1 2.9-9.33 10.25 10.25 0 0 1 8.63-4.21q7 0 9.27 6.28v-6.8a17.25 17.25 0 0 0-8.38-2q-7.78 0-12.42 5.34a17.37 17.37 0 0 0-4.13 11.67 15.88 15.88 0 0 0 3.8 10.82q4.22 4.88 11.57 4.88a13.07 13.07 0 0 0 10.31-4.55v-3q-4.16 4.82-9.55 4.82zm22.97-20.75a9.75 9.75 0 0 0-8.2 3.93 13.09 13.09 0 0 0-2.68 8.21 12.1 12.1 0 0 0 2.49 7.68 9.47 9.47 0 0 0 7.87 3.61 9.93 9.93 0 0 0 8.3-3.94 12.85 12.85 0 0 0 2.67-8.15 11.92 11.92 0 0 0-2.53-7.69 9.52 9.52 0 0 0-7.92-3.65zm5.25 18.18a5.42 5.42 0 0 1-4.92 3 6.54 6.54 0 0 1-5.72-3.33 12.23 12.23 0 0 1-1.88-6.79 11 11 0 0 1 1.5-5.81 5.53 5.53 0 0 1 5-3 6.57 6.57 0 0 1 5.72 3.32 12.41 12.41 0 0 1 1.83 6.75 11.38 11.38 0 0 1-1.53 5.85zm38.66 0.46v-11a9.54 9.54 0 0 0-1.36-5.39 5 5 0 0 0-4.35-2.25 9.52 9.52 0 0 0-4.63 1.26 9.2 9.2 0 0 0-3.23 3 5.2 5.2 0 0 0-1.73-3.11 4.93 4.93 0 0 0-3.32-1.15 9.6 9.6 0 0 0-7.63 4.26v-4.4l-6.28 2.62h0.52a1.94 1.94 0 0 1 1.73 0.75 7.13 7.13 0 0 1 0.57 3.47v12c0 2.46-0.68 3.81-2 4h7.36c-1.25-0.22-1.88-1.58-1.88-4.08v-10a6.23 6.23 0 0 1 6-6c2.52 0 3.77 2 3.77 5.86v10.12c0 2.5-0.62 3.86-1.87 4.08h7.17q-1.92-0.33-1.92-4.08v-10a6.17 6.17 0 0 1 6-6q3.77 0 3.76 5.86v10.12c0 2.5-0.62 3.86-1.87 4.08h7.22c-1.38-0.16-2.03-1.52-2.03-4.02zm34.96 0v-11a9.54 9.54 0 0 0-1.38-5.4 5 5 0 0 0-4.33-2.24 9.52 9.52 0 0 0-4.67 1.25 9.2 9.2 0 0 0-3.23 3 5.2 5.2 0 0 0-1.73-3.11 4.93 4.93 0 0 0-3.28-1.14 9.6 9.6 0 0 0-7.63 4.26v-4.4l-6.28 2.62h0.52a1.94 1.94 0 0 1 1.73 0.75 7.13 7.13 0 0 1 0.57 3.47v12c0 2.46-0.68 3.81-2 4h7.33c-1.25-0.22-1.88-1.58-1.88-4.08v-10a6.23 6.23 0 0 1 6-6c2.52 0 3.77 2 3.77 5.86v10.12c0 2.5-0.62 3.86-1.87 4.08h7.17q-1.92-0.33-1.92-4.08v-10a6.17 6.17 0 0 1 6-6q3.76 0 3.76 5.86v10.12c0 2.5-0.62 3.86-1.87 4.08h7.22c-1.38-0.16-2-1.52-2-4.02zm14.32 1.87a6.72 6.72 0 0 1-5.27-2.39 9.89 9.89 0 0 1-2.26-6.79h14.58a15.27 15.27 0 0 0-2.11-7.83 7.07 7.07 0 0 0-6.28-3.5 8.27 8.27 0 0 0-6.91 3.47 13.75 13.75 0 0 0-2.65 8.62 12.42 12.42 0 0 0 2.44 7.87 8.8 8.8 0 0 0 7.31 3.47q6.46 0 8.43-7-3.1 4.09-7.28 4.08zm-6-16.07a5 5 0 0 1 4.3-2.44 4.06 4.06 0 0 1 3.78 2.49 10.17 10.17 0 0 1 1.09 4.92h-10.7a9.5 9.5 0 0 1 1.56-4.97zm23.35-2.7a9.25 9.25 0 0 0-2.71 4v-5.9l-5.91 2.57h0.47a1.64 1.64 0 0 1 1.5 0.66 5.53 5.53 0 0 1 0.57 3v12.51c0 2.53-0.68 3.91-2 4.13h7.36q-2-0.33-2-4.13v-6.51a11.19 11.19 0 0 1 1.67-6.27 4.66 4.66 0 0 1 3.89-2.49 4 4 0 0 1 3.47 2.07v-4.88a4.72 4.72 0 0 0-2-0.51 6.29 6.29 0 0 0-4.31 1.75zm18.14 18.96a6.23 6.23 0 0 1-5.43-3 11.54 11.54 0 0 1-1.83-6.61 10.64 10.64 0 0 1 1.73-6.28 5.35 5.35 0 0 1 4.55-2.43 4 4 0 0 1 2.9 1.12 3.94 3.94 0 0 1 1.18 3 5.69 5.69 0 0 1-0.19 1.5l3.7-1.64a6.47 6.47 0 0 0-2-4.66 6.62 6.62 0 0 0-4.65-1.7 9.42 9.42 0 0 0-7.5 3.56 13.69 13.69 0 0 0-3 9.14 11.77 11.77 0 0 0 2.34 7.54 8.7 8.7 0 0 0 7.17 3.19 7.22 7.22 0 0 0 4.88-1.78 9.66 9.66 0 0 0 3.09-5.34c-2.06 2.92-4.38 4.39-6.94 4.39zm20.08-0.19a6.71 6.71 0 0 1-5.26-2.39 9.89 9.89 0 0 1-2.26-6.79h14.58a15.27 15.27 0 0 0-2.11-7.83 7.08 7.08 0 0 0-6.28-3.5 8.26 8.26 0 0 0-6.94 3.46 13.75 13.75 0 0 0-2.65 8.62 12.48 12.48 0 0 0 2.43 7.87 8.83 8.83 0 0 0 7.32 3.47q6.47 0 8.43-7-3.07 4.1-7.26 4.09zm-6-16.07a5 5 0 0 1 4.3-2.44 4.06 4.06 0 0 1 3.78 2.49 10.28 10.28 0 0 1 1.09 4.92h-10.69a9.5 9.5 0 0 1 1.56-4.97zm-279.54-41.7a25 25 0 0 0 15.66-9.74 28.78 28.78 0 0 0 6.15-18 26.09 26.09 0 0 0-7.73-19.18q-8.81-8.82-24.44-8.82h-59.23q8.61 1.59 8.61 16.53v77.07a29.73 29.73 0 0 0-29.42-25.52l-19.33-0.08v19.38a29.74 29.74 0 0 0 29.73 29.74h19v37.34a11.11 11.11 0 0 0-11-9.88h-7.23v7.23a11.12 11.12 0 0 0 11.12 11.09h19.2a11.12 11.12 0 0 0 11.12-11.12v-7.23h-7.23a11.1 11.1 0 0 0-11.06 10v-37.44h50.59q15.61 0 24.93-9.5a29.13 29.13 0 0 0 8.25-20.92 31 31 0 0 0-7.52-20.69q-7.56-8.85-20.17-10.26zm-12.28 29.57a26.56 26.56 0 0 1-26.56 26.56h-17.21v-17.23a26.55 26.55 0 0 1 26.53-26.56h17.26z"/></g></svg>
