<?xml version="1.0" encoding="UTF-8"?>
<svg version="1.1" viewBox="0 0 250 91" xmlns="http://www.w3.org/2000/svg" xmlns:cc="http://creativecommons.org/ns#" xmlns:dc="http://purl.org/dc/elements/1.1/" xmlns:rdf="http://www.w3.org/1999/02/22-rdf-syntax-ns#">
<metadata>
<rdf:RDF>
<cc:Work rdf:about="">
<dc:format>image/svg+xml</dc:format>
<dc:type rdf:resource="http://purl.org/dc/dcmitype/StillImage"/>
<dc:title/>
</cc:Work>
</rdf:RDF>
</metadata>
<g transform="translate(0,-961.4)" fill="#fff">
<rect y="961.4" width="250" height="91" opacity=".001"/>
<g transform="matrix(1.4772 0 0 1.4772 -216.11 1021.4)">
<path d="m181.22 6.8067c-0.92539-0.39582-1.318-0.83548-1.5353-1.7191-0.20029-0.81451 0.40708-2.2788 1.0988-2.649 0.90258-0.48304 2.5216-0.34574 3.1824 0.26989 0.3281 0.30567 0.63046 0.51403 0.67191 0.46302 0.0414-0.05101 0.60706-1.4664 1.2569-3.1453l1.1815-3.0525-0.67907-0.67842c-1.0365-1.0355-2.6047-3.8657-4.9239-8.8864l-2.1052-4.5573-0.45261 0.98537c-0.24893 0.54195-1.5538 3.694-2.8997 7.0047-2.1499 5.2883-2.518 6.0193-3.0302 6.0193-0.87552 0-1.9922-1.6842-4.3858-6.6146-1.1657-2.4011-2.8806-5.9298-3.8109-7.8415-2.2451-4.6135-3.6824-6.5526-5.4757-7.3876-0.75697-0.35243-1.6144-0.64377-1.9055-0.64742-0.29104-0.0037-0.70776-0.12802-0.92604-0.27638-0.27481-0.18678 1.0273-0.24535 4.2333-0.19042 4.1887 0.07177 4.7618 0.13844 6.0097 0.69913 1.5404 0.69212 3.2984 2.4251 4.4453 4.3822 0.41839 0.71392 1.6174 3.249 2.6644 5.6336 1.0471 2.3846 1.9583 4.3901 2.025 4.4568 0.15359 0.15359 2.8507-6.7584 2.8487-7.3007-2e-3 -0.69622-2.385-4.5087-3.5326-5.653-0.66774-0.66578-1.5663-1.2368-2.2897-1.455-0.65485-0.19751-1.4883-0.45431-1.8521-0.57068-0.39364-0.12591 1.06-0.22003 3.59-0.23246 5.5821-0.02743 6.5075 0.23312 8.7073 2.4514 1.7774 1.7924 2.889 3.7656 5.1653 9.1694 0.76626 1.819 1.4686 3.3926 1.5609 3.4969 0.14379 0.16262 5.657-13.502 5.8946-14.609 0.0645-0.30085 0.11349-0.39683-1.9539-0.39929-0.69123-0.04435-0.53316-0.62409-0.53316-0.62409l6.0555-0.02462s0.2225 0.59757-0.34144 0.61661c-1.7377 0.05867-1.9944-0.0028-2.1699 0.24373-0.36691 0.44211-10.857 26.887-11.808 29.765-0.7374 2.2335-1.1629 2.7473-2.5258 3.0502-0.3638 0.08085-1.0187-0.0058-1.4553-0.19257z" stroke-width=".26458"/>
<path d="m208.45-19.088-1.7441 6.1754h-0.84836l-1.2704-4.5131q-0.0818-0.28853-0.099-0.62873h-0.0172q-0.0258 0.31867-0.11196 0.62012l-1.279 4.5217h-0.83974l-1.8087-6.1754h0.79668l1.3134 4.737q0.0818 0.29714 0.10336 0.62012h0.0215q0.0215-0.22824 0.1335-0.62012l1.3651-4.737h0.69333l1.3091 4.7715q0.0689 0.24546 0.10335 0.57706h0.0172q0.0172-0.22393 0.11627-0.59428l1.2618-4.7542z"/>
<path d="m213.5-12.912h-3.2728v-6.1754h3.135v0.65457h-2.4116v2.0541h2.2307v0.65026h-2.2307v2.1618h2.5494z"/>
<path d="m215.46-13.162v-0.85266q0.14642 0.12919 0.34882 0.23254 0.20671 0.10335 0.43064 0.17656 0.22824 0.0689 0.45648 0.10766 0.22823 0.03876 0.42202 0.03876 0.66749 0 0.99478-0.24546 0.33159-0.24977 0.33159-0.71486 0-0.24977-0.11197-0.43494-0.10766-0.18518-0.30145-0.3359-0.19378-0.15503-0.46078-0.29283-0.26269-0.14211-0.56844-0.29714-0.32298-0.16364-0.60289-0.33159-0.27992-0.16795-0.48663-0.37035-0.2067-0.2024-0.32728-0.45648-0.11627-0.25838-0.11627-0.60289 0-0.42202 0.18517-0.73208 0.18518-0.31437 0.48662-0.51677 0.30145-0.2024 0.68472-0.30145 0.38757-0.09905 0.78807-0.09905 0.91295 0 1.3307 0.21963v0.81391q-0.54691-0.37896-1.4039-0.37896-0.23685 0-0.47371 0.05168-0.23685 0.04737-0.42202 0.15934-0.18518 0.11197-0.30145 0.28853t-0.11627 0.43064q0 0.23685 0.0861 0.40911 0.0904 0.17226 0.26269 0.31437 0.17225 0.14211 0.41772 0.27561 0.24977 0.1335 0.57275 0.29284 0.33159 0.16364 0.62873 0.34451t0.52107 0.40049q0.22393 0.21962 0.35312 0.48662 0.1335 0.267 0.1335 0.61151 0 0.45648-0.18087 0.77515-0.17656 0.31437-0.48231 0.51246-0.30145 0.19809-0.69764 0.28422-0.39618 0.09043-0.83543 0.09043-0.14642 0-0.36174-0.02584-0.21532-0.02153-0.43925-0.0689-0.22393-0.04306-0.42633-0.10766-0.1981-0.0689-0.31868-0.15072z"/>
<path d="m225.14-18.433h-1.7828v5.5208h-0.72347v-5.5208h-1.7785v-0.65457h4.2848z"/>
<path d="m234.77-19.088-2.0369 3.893v2.2824h-0.72347v-2.2652l-1.9852-3.9102h0.82252l1.3824 2.7905q0.0258 0.05168 0.15072 0.37896h0.0129q0.0431-0.14642 0.16364-0.37896l1.447-2.7905z"/>
<path d="m238.83-12.809q-1.3134 0-2.1058-0.86558-0.78807-0.86558-0.78807-2.2522 0-1.49 0.8053-2.3771 0.80529-0.88712 2.192-0.88712 1.279 0 2.0584 0.86128 0.78376 0.86128 0.78376 2.2522 0 1.5115-0.80099 2.39-0.80098 0.8785-2.1446 0.8785zm0.0517-5.7275q-0.97324 0-1.5804 0.70194-0.6072 0.70194-0.6072 1.8431 0 1.1412 0.58997 1.8388 0.59428 0.69333 1.546 0.69333 1.0163 0 1.602-0.66318t0.58567-1.8561q0-1.223-0.56845-1.8905-0.56844-0.66749-1.5675-0.66749z"/>
<path d="m248.48-12.912h-0.86128l-1.0335-1.7312q-0.14211-0.24116-0.27561-0.40911-0.1335-0.17226-0.27561-0.27992-0.1378-0.10766-0.30144-0.15503-0.15934-0.05168-0.36174-0.05168h-0.59428v2.6269h-0.72347v-6.1754h1.8431q0.4048 0 0.745 0.10335 0.34452 0.09905 0.59429 0.30575 0.25407 0.20671 0.39618 0.51677 0.14211 0.30575 0.14211 0.71917 0 0.32298-0.099 0.59428-0.0947 0.267-0.27561 0.47801-0.17656 0.21101-0.43064 0.36174-0.24977 0.14642-0.56414 0.22824v0.01723q0.15503 0.0689 0.267 0.15934 0.11627 0.08613 0.21962 0.20671 0.10336 0.12058 0.2024 0.27561 0.10336 0.15072 0.22824 0.35312zm-3.7035-5.5208v2.2393h0.98186q0.2713 0 0.49954-0.08182 0.23254-0.08182 0.40049-0.23254 0.16795-0.15503 0.26269-0.37466 0.0947-0.22393 0.0947-0.49954 0-0.49523-0.32298-0.77084-0.31867-0.27992-0.92587-0.27992z"/>
<path d="m254.68-12.912h-1.0077l-2.3857-2.825q-0.1335-0.15934-0.16364-0.21532h-0.0172v3.0403h-0.72347v-6.1754h0.72347v2.9025h0.0172q0.0603-0.09474 0.16364-0.21101l2.3082-2.6915h0.90003l-2.6484 2.9628z"/>
<path d="m256.26-13.162v-0.85266q0.14642 0.12919 0.34882 0.23254 0.2067 0.10335 0.43064 0.17656 0.22823 0.0689 0.45647 0.10766 0.22824 0.03876 0.42203 0.03876 0.66749 0 0.99477-0.24546 0.33159-0.24977 0.33159-0.71486 0-0.24977-0.11196-0.43494-0.10766-0.18518-0.30145-0.3359-0.19379-0.15503-0.46078-0.29283-0.26269-0.14211-0.56844-0.29714-0.32298-0.16364-0.6029-0.33159-0.27991-0.16795-0.48662-0.37035t-0.32728-0.45648q-0.11628-0.25838-0.11628-0.60289 0-0.42202 0.18518-0.73208 0.18517-0.31437 0.48662-0.51677t0.68471-0.30145q0.38758-0.09905 0.78807-0.09905 0.91296 0 1.3307 0.21963v0.81391q-0.54691-0.37896-1.4039-0.37896-0.23685 0-0.4737 0.05168-0.23685 0.04737-0.42202 0.15934-0.18518 0.11197-0.30145 0.28853t-0.11627 0.43064q0 0.23685 0.0861 0.40911 0.0904 0.17226 0.26269 0.31437 0.17226 0.14211 0.41772 0.27561 0.24977 0.1335 0.57275 0.29284 0.33159 0.16364 0.62873 0.34451t0.52108 0.40049q0.22393 0.21962 0.35312 0.48662 0.1335 0.267 0.1335 0.61151 0 0.45648-0.18087 0.77515-0.17656 0.31437-0.48232 0.51246-0.30144 0.19809-0.69763 0.28422-0.39619 0.09043-0.83544 0.09043-0.14642 0-0.36173-0.02584-0.21532-0.02153-0.43926-0.0689-0.22393-0.04306-0.42633-0.10766-0.19809-0.0689-0.31867-0.15072z"/>
<path d="m266.41-12.912h-0.72347v-2.8164h-3.1953v2.8164h-0.72347v-6.1754h0.72347v2.7087h3.1953v-2.7087h0.72347z"/>
<path d="m269.66-12.912h-0.72348v-6.1754h0.72348z"/>
<path d="m276.34-12.912h-0.86128l-1.0335-1.7312q-0.14211-0.24116-0.27561-0.40911-0.1335-0.17226-0.27561-0.27992-0.1378-0.10766-0.30145-0.15503-0.15933-0.05168-0.36173-0.05168h-0.59428v2.6269h-0.72348v-6.1754h1.8431q0.4048 0 0.745 0.10335 0.34451 0.09905 0.59428 0.30575 0.25408 0.20671 0.39619 0.51677 0.14211 0.30575 0.14211 0.71917 0 0.32298-0.099 0.59428-0.0947 0.267-0.27561 0.47801-0.17656 0.21101-0.43064 0.36174-0.24977 0.14642-0.56413 0.22824v0.01723q0.15503 0.0689 0.26699 0.15934 0.11628 0.08613 0.21963 0.20671 0.10335 0.12058 0.2024 0.27561 0.10335 0.15072 0.22824 0.35312zm-3.7035-5.5208v2.2393h0.98185q0.2713 0 0.49954-0.08182 0.23255-0.08182 0.4005-0.23254 0.16794-0.15503 0.26268-0.37466 0.0947-0.22393 0.0947-0.49954 0-0.49523-0.32297-0.77084-0.31868-0.27992-0.92588-0.27992z"/>
<path d="m281.2-12.912h-3.2728v-6.1754h3.135v0.65457h-2.4116v2.0541h2.2307v0.65026h-2.2307v2.1618h2.5494z"/>
<path d="m201.91-3.2109h-0.72347v-6.1754h0.72347z"/>
<path d="m209.31-3.2109h-0.88712l-3.1781-4.9222q-0.12058-0.18517-0.19809-0.38757h-0.0258q0.0344 0.19809 0.0344 0.84836v4.4614h-0.72347v-6.1754h0.93879l3.092 4.8447q0.19379 0.30145 0.24977 0.41341h0.0172q-0.0431-0.267-0.0431-0.90865v-4.3494h0.72347z"/>
<path d="m216.15-3.2109h-0.88711l-3.1781-4.9222q-0.12058-0.18517-0.1981-0.38757h-0.0258q0.0344 0.19809 0.0344 0.84836v4.4614h-0.72347v-6.1754h0.93879l3.092 4.8447q0.19379 0.30145 0.24977 0.41341h0.0172q-0.0431-0.267-0.0431-0.90865v-4.3494h0.72347z"/>
<path d="m221-3.1076q-1.3134 0-2.1058-0.86558-0.78807-0.86558-0.78807-2.2522 0-1.49 0.8053-2.3771 0.80529-0.88712 2.192-0.88712 1.279 0 2.0584 0.86128 0.78376 0.86128 0.78376 2.2522 0 1.5115-0.80099 2.39-0.80099 0.8785-2.1446 0.8785zm0.0517-5.7275q-0.97324 0-1.5804 0.70194t-0.6072 1.8431 0.58997 1.8388q0.59428 0.69333 1.546 0.69333 1.0163 0 1.602-0.66318 0.58566-0.66318 0.58566-1.8561 0-1.223-0.56844-1.8905-0.56844-0.66749-1.5675-0.66749z"/>
<path d="m230.6-9.3863-2.2867 6.1754h-0.79668l-2.2393-6.1754h0.8053l1.7096 4.8964q0.0818 0.23685 0.12488 0.54691h0.0172q0.0344-0.25838 0.14211-0.55552l1.7441-4.8877z"/>
<path d="m236.81-3.2109h-0.80098l-0.65457-1.7312h-2.6183l-0.61581 1.7312h-0.80529l2.3685-6.1754h0.74931zm-1.6924-2.3814-0.96893-2.6312q-0.0474-0.12919-0.0947-0.41341h-0.0172q-0.0431 0.26269-0.099 0.41341l-0.96033 2.6312z"/>
<path d="m241.79-8.7317h-1.7828v5.5208h-0.72347v-5.5208h-1.7785v-0.65457h4.2848z"/>
<path d="m244.54-3.2109h-0.72347v-6.1754h0.72347z"/>
<path d="m249.31-3.1076q-1.3134 0-2.1058-0.86558-0.78807-0.86558-0.78807-2.2522 0-1.49 0.80529-2.3771t2.192-0.88712q1.279 0 2.0584 0.86128 0.78376 0.86128 0.78376 2.2522 0 1.5115-0.80098 2.39-0.80099 0.8785-2.1446 0.8785zm0.0517-5.7275q-0.97324 0-1.5804 0.70194t-0.6072 1.8431 0.58998 1.8388q0.59428 0.69333 1.546 0.69333 1.0163 0 1.602-0.66318 0.58567-0.66318 0.58567-1.8561 0-1.223-0.56844-1.8905-0.56845-0.66749-1.5675-0.66749z"/>
<path d="m259.08-3.2109h-0.88712l-3.1781-4.9222q-0.12058-0.18517-0.19809-0.38757h-0.0258q0.0344 0.19809 0.0344 0.84836v4.4614h-0.72347v-6.1754h0.93879l3.092 4.8447q0.19379 0.30145 0.24977 0.41341h0.0172q-0.0431-0.267-0.0431-0.90865v-4.3494h0.72348z"/>
<path d="m267.85-8.7317h-2.4116v2.136h2.2307v0.65026h-2.2307v2.7346h-0.72347v-6.1754h3.135z"/>
<path d="m273-3.2109h-3.2728v-6.1754h3.135v0.65457h-2.4116v2.0541h2.2307v0.65026h-2.2307v2.1618h2.5494z"/>
<path d="m274.96-3.4607v-0.85266q0.14641 0.12919 0.34881 0.23254 0.20671 0.10335 0.43064 0.17656 0.22824 0.068902 0.45648 0.10766 0.22824 0.038758 0.42203 0.038758 0.66748 0 0.99477-0.24546 0.33159-0.24977 0.33159-0.71486 0-0.24977-0.11196-0.43494-0.10766-0.18517-0.30145-0.3359-0.19379-0.15503-0.46078-0.29283-0.26269-0.14211-0.56845-0.29714-0.32298-0.16364-0.60289-0.33159-0.27992-0.16795-0.48662-0.37035-0.20671-0.2024-0.32729-0.45648-0.11627-0.25838-0.11627-0.60289 0-0.42203 0.18518-0.73209 0.18517-0.31437 0.48662-0.51677 0.30144-0.2024 0.68471-0.30145 0.38758-0.099047 0.78807-0.099047 0.91295 0 1.3307 0.21963v0.81391q-0.54691-0.37896-1.4039-0.37896-0.23685 0-0.4737 0.051677-0.23685 0.04737-0.42203 0.15934-0.18517 0.11197-0.30144 0.28853-0.11628 0.17656-0.11628 0.43064 0 0.23685 0.0861 0.40911 0.0904 0.17226 0.26269 0.31437 0.17226 0.14211 0.41772 0.27561 0.24977 0.1335 0.57275 0.29283 0.33159 0.16364 0.62873 0.34451t0.52107 0.40049q0.22394 0.21963 0.35313 0.48662 0.1335 0.267 0.1335 0.61151 0 0.45648-0.18087 0.77515-0.17656 0.31437-0.48232 0.51246-0.30144 0.19809-0.69763 0.28422-0.39619 0.090434-0.83544 0.090434-0.14642 0-0.36174-0.025838-0.21532-0.021532-0.43925-0.068902-0.22393-0.043064-0.42633-0.10766-0.19809-0.068902-0.31867-0.15072z"/>
<path d="m284.41-8.7317h-1.7828v5.5208h-0.72347v-5.5208h-1.7785v-0.65457h4.2848z"/>
<path d="m286.88-3.2109h-0.72347v-6.1754h0.72347z"/>
<path d="m293.88-9.3863-2.2867 6.1754h-0.79668l-2.2393-6.1754h0.8053l1.7096 4.8964q0.0818 0.23685 0.12489 0.54691h0.0172q0.0344-0.25838 0.14211-0.55552l1.7441-4.8877z"/>
<path d="m300.2-3.2109h-0.80099l-0.65457-1.7312h-2.6183l-0.61581 1.7312h-0.80529l2.3685-6.1754h0.74931zm-1.6924-2.3814-0.96893-2.6312q-0.0474-0.12919-0.0947-0.41341h-0.0172q-0.0431 0.26269-0.0991 0.41341l-0.96032 2.6312z"/>
<path d="m305.37-3.2109h-3.204v-6.1754h0.72348v5.5208h2.4805z"/>
</g>
</g>
</svg>
