<?xml version="1.0" encoding="UTF-8"?>
<svg version="1.1" viewBox="0 0 250 91" xmlns="http://www.w3.org/2000/svg" xmlns:cc="http://creativecommons.org/ns#" xmlns:dc="http://purl.org/dc/elements/1.1/" xmlns:rdf="http://www.w3.org/1999/02/22-rdf-syntax-ns#" xmlns:xlink="http://www.w3.org/1999/xlink">
<metadata>
<rdf:RDF>
<cc:Work rdf:about="">
<dc:format>image/svg+xml</dc:format>
<dc:type rdf:resource="http://purl.org/dc/dcmitype/StillImage"/>
<dc:title/>
</cc:Work>
</rdf:RDF>
</metadata>
<g transform="translate(0,-961.4)">
<g transform="matrix(.4849 0 0 .4849 15 978.95)" fill="#fff">
<path d="m100.8 15.7c0.7 2.8 1 4.4 1 4.6 0.4-2 0.7-3.5 1-4.6l3.7-15h8.7l-8.9 31.5h-8l-3.9-13.4c-0.2-0.8-0.6-2.2-1.1-4.2-0.4 1.6-0.7 3-1.1 4.2l-3.8 13.4h-8l-8.8-31.5h8.7l3.6 15.1c0.4 1.6 0.7 3.2 1 4.7 0.3-1.6 0.7-3.2 1.1-4.7l4-15.1h6.9l3.9 15z"/>
<polygon points="136.8 19.9 126.5 19.9 126.5 25.2 137.4 25.2 137.4 32.3 118.1 32.3 118.1 0.7 137.4 0.7 137.4 7.7 126.5 7.7 126.5 13.1 136.8 13.1"/>
<path d="m152 26.4c2.4 0 3.9-1.4 3.9-3.3 0-2.5-1.7-3.3-5.3-4.2-5.7-1.5-8.5-3.8-8.5-8.7 0-5.9 4.3-10.2 10.9-10.2 3.5 0 6.6 0.9 9.3 2.8l-2.5 6.2c-2-1.7-4.1-2.5-6-2.5-2.1 0-3.5 1.1-3.5 2.6 0 2.2 2.2 2.7 5 3.5 5.6 1.5 8.7 3.6 8.7 9.4 0 6.6-4.7 11.1-12.1 11.1-4.5 0-7.8-1.4-11.2-4.6l3.9-6.4c2.5 2.9 4.9 4.3 7.4 4.3"/>
<polygon points="181.9 32.3 173.3 32.3 173.3 8.2 166.3 8.2 166.3 0.7 189 0.7 189 8.2 181.9 8.2"/>
<path d="m212.5 17.9-11-17.2h9.9l4.2 8.1c0.2 0.4 0.7 1.2 1.1 2.7 0.3-1.4 0.8-2.2 1.1-2.7l4.2-8.1h9.9l-11 17.2v14.4h-8.3v-14.4z"/>
<path d="m258.8 28.3c-3.2 3.1-7.5 4.8-12 4.8-3.8 0-7.7-1.4-10.7-3.8-4-3.2-6.1-7.7-6.1-12.7 0-4.5 1.7-8.6 4.9-11.7s7.5-4.8 11.9-4.8 8.8 1.8 12 4.8c3.2 3.1 4.9 7.2 4.9 11.7s-1.7 8.6-4.9 11.7m-3.7-11.7c0-5.1-3.4-9.3-8.2-9.3-4.9 0-8.2 4.1-8.2 9.3s3.2 9.3 8.2 9.3c4.9-0.1 8.2-4.2 8.2-9.3"/>
<path d="m268 0.7h9 0.5c4.4 0 7.7 0 10.4 2.1 2.3 1.8 3.5 4.5 3.5 7.7 0 4.9-2.5 8-7.1 9l8.6 12.7h-9.7l-7.2-12.3v12.3h-8v-31.5zm9.6 15c3.6 0 5.3-1.1 5.3-3.9 0-3.3-1.6-4.4-5.2-4.4h-1.7v8.3h1.6z"/>
<polygon points="325.8 32.3 315 32.3 304.8 18.1 304.8 32.3 296.3 32.3 296.3 0.7 304.8 0.7 304.8 15.1 314.7 0.7 324.7 0.7 313.1 16.1"/>
<path d="m338.2 26.4c2.4 0 3.9-1.4 3.9-3.3 0-2.5-1.7-3.3-5.3-4.2-5.7-1.5-8.5-3.8-8.5-8.7 0-5.9 4.3-10.2 10.9-10.2 3.5 0 6.6 0.9 9.3 2.8l-2.5 6.2c-2-1.7-4.1-2.5-6-2.5-2.1 0-3.5 1.1-3.5 2.6 0 2.2 2.2 2.7 5 3.5 5.6 1.5 8.7 3.6 8.7 9.4 0 6.6-4.7 11.1-12.1 11.1-4.5 0-7.8-1.4-11.2-4.6l3.9-6.4c2.5 2.9 4.9 4.3 7.4 4.3"/>
<polygon points="383.6 32.3 375 32.3 375 19.4 363.6 19.4 363.6 32.3 355 32.3 355 0.7 363.6 0.7 363.6 13 375 13 375 0.7 383.6 0.7"/>
<rect x="390.5" y=".7" width="8.7" height="31.5"/>
<path d="m406.2 0.7h9 0.5c4.4 0 7.7 0 10.4 2.1 2.3 1.8 3.5 4.5 3.5 7.7 0 4.9-2.5 8-7.1 9l8.6 12.7h-9.7l-7.2-12.3v12.3h-8.1v-31.5zm9.6 15c3.6 0 5.3-1.1 5.3-3.9 0-3.3-1.6-4.4-5.2-4.4h-1.7v8.3h1.6z"/>
<polygon points="453.1 19.9 442.8 19.9 442.8 25.2 453.7 25.2 453.7 32.3 434.4 32.3 434.4 0.7 453.7 0.7 453.7 7.7 442.8 7.7 442.8 13.1 453.1 13.1"/>
<polygon points="12.4 80 0 58.5 12.4 37 37.3 37 49.7 58.5 37.3 80"/>
<g opacity=".8">
<g fill="#fff">
<defs>
<rect id="i" x="27.2" y="66.1" width="36.2" height="31.3"/>
</defs>
<clipPath id="h">
<use width="100%" height="100%" overflow="visible" xlink:href="#i"/>
</clipPath>
<polygon points="36.3 97.5 27.3 81.8 36.3 66.1 54.4 66.1 63.4 81.8 54.4 97.5" clip-path="url(#h)" fill="#fff"/>
</g>
</g>
<g opacity=".6">
<g fill="#fff">
<defs>
<rect id="g" x="120.8" y="73.1" width="36.2" height="31.3"/>
</defs>
<clipPath id="f">
<use width="100%" height="100%" overflow="visible" xlink:href="#g"/>
</clipPath>
<polygon points="129.8 104.5 120.8 88.8 129.8 73.1 147.9 73.1 157 88.8 147.9 104.5" clip-path="url(#f)" fill="#fff"/>
</g>
</g>
<g opacity=".7">
<g fill="#fff">
<defs>
<rect id="e" x="29.8" y="19.5" width="41.8" height="36.2"/>
</defs>
<clipPath id="d">
<use width="100%" height="100%" overflow="visible" xlink:href="#e"/>
</clipPath>
<polygon points="40.3 55.7 29.8 37.6 40.3 19.5 61.2 19.5 71.6 37.6 61.2 55.7" clip-path="url(#d)" fill="#fff"/>
</g>
</g>
<g opacity=".8">
<g fill="#fff">
<defs>
<rect id="c" x="79.9" y="70.4" width="51.9" height="44.9"/>
</defs>
<clipPath id="b">
<use width="100%" height="100%" overflow="visible" xlink:href="#c"/>
</clipPath>
<polygon points="92.9 115.3 79.9 92.8 92.9 70.4 118.8 70.4 131.8 92.8 118.8 115.3" clip-path="url(#b)" fill="#fff"/>
</g>
</g>
<g opacity=".6">
<g fill="#fff">
<defs>
<rect id="a" x="49.1" y="75.3" width="41.8" height="36.2"/>
</defs>
<clipPath id="j">
<use width="100%" height="100%" overflow="visible" xlink:href="#a"/>
</clipPath>
<polygon points="59.5 111.5 49.1 93.4 59.5 75.3 80.4 75.3 90.9 93.4 80.4 111.5" clip-path="url(#j)" fill="#fff"/>
</g>
</g>
<path d="m87.8 41.9c-2.4 0-4.9 1-6.6 2.8-1.8 1.9-2.7 4.1-2.7 6.9 0 2.1 0.5 4 1.6 5.5 1.9 2.6 4.7 4.1 7.8 4.1 2.9 0 5.5-1.2 7.6-3.7v3.7c-2.3 1.7-5 2.5-7.8 2.5-2.5 0-4.8-0.7-6.9-2.1-3.4-2.3-5.2-5.9-5.2-10 0-3.6 1.2-6.5 3.6-8.9 2.4-2.3 5.2-3.4 8.6-3.4 2.8 0 5.2 0.8 7.6 2.5v3.6c-2.1-2.4-4.6-3.5-7.6-3.5"/>
<path d="m121.2 60.2c-2.4 2.3-5.6 3.6-8.8 3.6-3.3 0-6.4-1.3-8.8-3.6s-3.6-5.3-3.6-8.6 1.3-6.3 3.6-8.6 5.5-3.5 8.8-3.5 6.5 1.3 8.8 3.5c2.4 2.3 3.6 5.3 3.6 8.6s-1.3 6.3-3.6 8.6m-2.1-1.9c1.8-1.8 2.8-4.2 2.8-6.8s-1-5-2.8-6.8-4.2-2.8-6.7-2.8c-2.6 0-4.9 1-6.7 2.8-1.8 1.9-2.8 4.2-2.8 6.8s1 4.9 2.8 6.8c1.9 1.9 4.2 2.8 6.7 2.8s4.9-0.9 6.7-2.8"/>
<polygon points="153.8 63.1 151.1 63.1 148.2 47.3 141 64 133.8 47.3 130.8 63.1 128.1 63.1 132.8 39 141 58.2 149.1 39"/>
<path d="m159 39.9h4.8c2.5 0 4.4 0.1 5.8 1.2 1.5 1.1 2.3 2.9 2.3 4.9 0 2.5-1.2 4.2-3.4 4.8 2.7 0.4 4.5 2.6 4.5 5.7 0 1.9-0.7 3.7-1.9 4.8-1.7 1.7-4 1.8-7.3 1.8h-4.8v-23.2zm2.7 10.2h2.1c3.7 0 5.4-0.9 5.4-3.7 0-3.4-1.7-4-5.4-4h-2.1v7.7zm0 10.6h2.1c2.2 0 3.7-0.1 4.7-0.8 0.9-0.7 1.5-2 1.5-3.4 0-1.7-0.7-3-1.9-3.7-1-0.6-2.1-0.6-3.5-0.6h-0.8-2.1v8.5z"/>
<rect x="178.9" y="39.9" width="2.8" height="23.2"/>
<polygon points="191.6 63.1 188.9 63.1 188.9 39 205.9 57.5 205.9 39.9 208.6 39.9 208.6 64 191.6 45.7"/>
<polygon points="228 51.6 218.5 51.6 218.5 60.6 228 60.6 228 63.1 215.7 63.1 215.7 39.9 228 39.9 228 42.4 218.5 42.4 218.5 49.1 228 49.1"/>
<path d="m234.3 39.9h4.5c4.4 0 7.7 0 10.5 2.2 2.7 2 4.1 5.3 4.1 9.5s-1.4 7.4-4.1 9.4c-2.7 2.1-5.8 2.2-9.5 2.2h-1-4.5v-23.3zm4.5 20.6c4 0 6.7 0 8.7-1.7 1.9-1.6 2.9-4.1 2.9-7.4s-1-5.8-2.9-7.3c-1.9-1.6-4.7-1.7-8.7-1.7h-1.8v18.1h1.8z"/>
<path d="m288.6 63.1h-3l-3-7.1h-9.1l-3 7.1h-3l10.5-24.1 10.6 24.1zm-14.3-9.5h7.4l-3.7-8.6-3.7 8.6z"/>
<path d="m294.7 39.9v14.5c0 4.7 1.9 6.8 6.2 6.8s6.2-2.2 6.2-6.8v-14.5h2.8v14.5c0 6.3-3 9.4-9 9.4s-9-3.1-9-9.4v-14.5h2.8z"/>
<polygon points="323.9 63.1 321.1 63.1 321.1 42.5 314.5 42.5 314.5 39.9 330.4 39.9 330.4 42.5 323.9 42.5"/>
<polygon points="353.1 63.1 350.3 63.1 350.3 51.4 337.9 51.4 337.9 63.1 335.2 63.1 335.2 39.9 337.9 39.9 337.9 48.8 350.3 48.8 350.3 39.9 353.1 39.9"/>
<path d="m380.4 60.2c-2.4 2.3-5.6 3.6-8.8 3.6-3.3 0-6.4-1.3-8.8-3.6s-3.6-5.3-3.6-8.6 1.3-6.3 3.6-8.6 5.5-3.5 8.8-3.5 6.5 1.3 8.8 3.5c2.4 2.3 3.6 5.3 3.6 8.6s-1.2 6.3-3.6 8.6m-2.1-1.9c1.8-1.8 2.8-4.2 2.8-6.8s-1-5-2.8-6.8-4.2-2.8-6.7-2.8c-2.6 0-4.9 1-6.7 2.8-1.8 1.9-2.8 4.2-2.8 6.8s1 4.9 2.8 6.8c1.9 1.9 4.2 2.8 6.7 2.8s4.9-0.9 6.7-2.8"/>
<path d="m390.2 39.9h4.7 0.7c2.2 0 3.9 0.1 5.3 1.2 1.3 1 2.2 2.9 2.2 5.2 0 3.8-2.2 5.8-6.3 5.8h-0.5l8.9 11.1h-3.5l-8.4-11.2h-0.4v11.1h-2.7v-23.2zm2.7 10.1h2.1c3.6 0 5.4-0.5 5.4-3.7 0-3.4-1.8-4-5.4-4h-2.1v7.7z"/>
<rect x="409.2" y="39.9" width="2.8" height="23.2"/>
<polygon points="426.1 63.1 423.3 63.1 423.3 42.5 416.7 42.5 416.7 39.9 432.6 39.9 432.6 42.5 426.1 42.5"/>
<polygon points="445.2 52.5 445.2 63.1 442.5 63.1 442.5 52.5 434.6 39.9 437.8 39.9 443.9 50 449.9 39.9 453.1 39.9"/>
</g>
</g>
</svg>
