<?xml version="1.0" encoding="UTF-8" standalone="no"?>
<!-- Created with Inkscape (http://www.inkscape.org/) -->

<svg xmlns:dc="http://purl.org/dc/elements/1.1/" xmlns:cc="http://creativecommons.org/ns#" xmlns:rdf="http://www.w3.org/1999/02/22-rdf-syntax-ns#" xmlns:svg="http://www.w3.org/2000/svg" xmlns="http://www.w3.org/2000/svg" xmlns:xlink="http://www.w3.org/1999/xlink" xmlns:sodipodi="http://sodipodi.sourceforge.net/DTD/sodipodi-0.dtd" xmlns:inkscape="http://www.inkscape.org/namespaces/inkscape" width="250" height="91" viewBox="0 0 250 91" id="svg2" version="1.1" inkscape:version="0.91 r13725" sodipodi:docname="wyca.svg">
  <defs id="defs4" />
  <sodipodi:namedview id="base" pagecolor="#ffffff" bordercolor="#666666" borderopacity="1.0" inkscape:pageopacity="0.0" inkscape:pageshadow="2" inkscape:zoom="1.9799" inkscape:cx="183.26" inkscape:cy="27.908" inkscape:document-units="px" inkscape:current-layer="layer1" showgrid="false" inkscape:window-width="1280" inkscape:window-height="752" inkscape:window-x="0" inkscape:window-y="0" inkscape:window-maximized="1" units="px" />
  <metadata id="metadata7">
    <rdf:RDF>
      <cc:Work rdf:about="">
        <dc:format>image/svg+xml</dc:format>
        <dc:type rdf:resource="http://purl.org/dc/dcmitype/StillImage" />
        <dc:title></dc:title>
      </cc:Work>
    </rdf:RDF>
  </metadata>
  <g inkscape:label="Layer 1" inkscape:groupmode="layer" id="layer1" transform="translate(0,-961.4)">
    <rect style="opacity:0.001;fill:#000000;fill-opacity:1;stroke:none;stroke-width:2.5;stroke-linecap:round;stroke-linejoin:round;stroke-miterlimit:4;stroke-dasharray:none;stroke-dashoffset:0;stroke-opacity:1" id="rect4175" width="250" height="91" x="0" y="961.4" />
    <g id="g5326" transform="matrix(0.4849,0,0,0.4849,15,978.95)" style="fill:#ffffff;fill-opacity:1">
      <path id="path5198" d="m 100.8,15.7 c 0.7,2.8 1,4.4 1,4.6 0.4,-2 0.7,-3.5 1,-4.6 l 3.7,-15 8.7,0 -8.9,31.5 -8,0 -3.9,-13.4 c -0.2,-0.8 -0.6,-2.2 -1.1,-4.2 -0.4,1.6 -0.7,3 -1.1,4.2 l -3.8,13.4 -8,0 -8.8,-31.5 8.7,0 3.6,15.1 c 0.4,1.6 0.7,3.2 1,4.7 0.3,-1.6 0.7,-3.2 1.1,-4.7 l 4,-15.1 6.9,0 3.9,15 z" inkscape:connector-curvature="0" style="fill:#ffffff;fill-opacity:1" />
      <polygon id="polygon5200" points="136.8,19.9 126.5,19.9 126.5,25.2 137.4,25.2 137.4,32.3 118.1,32.3 118.1,0.7 137.4,0.7 137.4,7.7 126.5,7.7 126.5,13.1 136.8,13.1 " style="fill:#ffffff;fill-opacity:1" />
      <path id="path5202" d="m 152,26.4 c 2.4,0 3.9,-1.4 3.9,-3.3 0,-2.5 -1.7,-3.3 -5.3,-4.2 -5.7,-1.5 -8.5,-3.8 -8.5,-8.7 0,-5.9 4.3,-10.2 10.9,-10.2 3.5,0 6.6,0.9 9.3,2.8 l -2.5,6.2 c -2,-1.7 -4.1,-2.5 -6,-2.5 -2.1,0 -3.5,1.1 -3.5,2.6 0,2.2 2.2,2.7 5,3.5 5.6,1.5 8.7,3.6 8.7,9.4 0,6.6 -4.7,11.1 -12.1,11.1 -4.5,0 -7.8,-1.4 -11.2,-4.6 l 3.9,-6.4 c 2.5,2.9 4.9,4.3 7.4,4.3" inkscape:connector-curvature="0" style="fill:#ffffff;fill-opacity:1" />
      <polygon id="polygon5204" points="181.9,32.3 173.3,32.3 173.3,8.2 166.3,8.2 166.3,0.7 189,0.7 189,8.2 181.9,8.2 " style="fill:#ffffff;fill-opacity:1" />
      <path id="path5206" d="m 212.5,17.9 -11,-17.2 9.9,0 4.2,8.1 c 0.2,0.4 0.7,1.2 1.1,2.7 0.3,-1.4 0.8,-2.2 1.1,-2.7 l 4.2,-8.1 9.9,0 -11,17.2 0,14.4 -8.3,0 0,-14.4 z" inkscape:connector-curvature="0" style="fill:#ffffff;fill-opacity:1" />
      <path id="path5208" d="m 258.8,28.3 c -3.2,3.1 -7.5,4.8 -12,4.8 -3.8,0 -7.7,-1.4 -10.7,-3.8 -4,-3.2 -6.1,-7.7 -6.1,-12.7 0,-4.5 1.7,-8.6 4.9,-11.7 3.2,-3.1 7.5,-4.8 11.9,-4.8 4.4,0 8.8,1.8 12,4.8 3.2,3.1 4.9,7.2 4.9,11.7 0,4.5 -1.7,8.6 -4.9,11.7 m -3.7,-11.7 c 0,-5.1 -3.4,-9.3 -8.2,-9.3 -4.9,0 -8.2,4.1 -8.2,9.3 0,5.2 3.2,9.3 8.2,9.3 4.9,-0.1 8.2,-4.2 8.2,-9.3" inkscape:connector-curvature="0" style="fill:#ffffff;fill-opacity:1" />
      <path id="path5210" d="m 268,0.7 9,0 0.5,0 c 4.4,0 7.7,0 10.4,2.1 2.3,1.8 3.5,4.5 3.5,7.7 0,4.9 -2.5,8 -7.1,9 l 8.6,12.7 -9.7,0 -7.2,-12.3 0,12.3 -8,0 0,-31.5 z m 9.6,15 c 3.6,0 5.3,-1.1 5.3,-3.9 0,-3.3 -1.6,-4.4 -5.2,-4.4 l -1.7,0 0,8.3 1.6,0 z" inkscape:connector-curvature="0" style="fill:#ffffff;fill-opacity:1" />
      <polygon id="polygon5212" points="325.8,32.3 315,32.3 304.8,18.1 304.8,32.3 296.3,32.3 296.3,0.7 304.8,0.7 304.8,15.1 314.7,0.7 324.7,0.7 313.1,16.1 " style="fill:#ffffff;fill-opacity:1" />
      <path id="path5214" d="m 338.2,26.4 c 2.4,0 3.9,-1.4 3.9,-3.3 0,-2.5 -1.7,-3.3 -5.3,-4.2 -5.7,-1.5 -8.5,-3.8 -8.5,-8.7 0,-5.9 4.3,-10.2 10.9,-10.2 3.5,0 6.6,0.9 9.3,2.8 l -2.5,6.2 c -2,-1.7 -4.1,-2.5 -6,-2.5 -2.1,0 -3.5,1.1 -3.5,2.6 0,2.2 2.2,2.7 5,3.5 5.6,1.5 8.7,3.6 8.7,9.4 0,6.6 -4.7,11.1 -12.1,11.1 -4.5,0 -7.8,-1.4 -11.2,-4.6 l 3.9,-6.4 c 2.5,2.9 4.9,4.3 7.4,4.3" inkscape:connector-curvature="0" style="fill:#ffffff;fill-opacity:1" />
      <polygon id="polygon5216" points="383.6,32.3 375,32.3 375,19.4 363.6,19.4 363.6,32.3 355,32.3 355,0.7 363.6,0.7 363.6,13 375,13 375,0.7 383.6,0.7 " style="fill:#ffffff;fill-opacity:1" />
      <rect id="rect5218" height="31.5" width="8.7" y="0.7" x="390.5" style="fill:#ffffff;fill-opacity:1" />
      <path id="path5220" d="m 406.2,0.7 9,0 0.5,0 c 4.4,0 7.7,0 10.4,2.1 2.3,1.8 3.5,4.5 3.5,7.7 0,4.9 -2.5,8 -7.1,9 l 8.6,12.7 -9.7,0 -7.2,-12.3 0,12.3 -8.1,0 0,-31.5 z m 9.6,15 c 3.6,0 5.3,-1.1 5.3,-3.9 0,-3.3 -1.6,-4.4 -5.2,-4.4 l -1.7,0 0,8.3 1.6,0 z" inkscape:connector-curvature="0" style="fill:#ffffff;fill-opacity:1" />
      <polygon id="polygon5222" points="453.1,19.9 442.8,19.9 442.8,25.2 453.7,25.2 453.7,32.3 434.4,32.3 434.4,0.7 453.7,0.7 453.7,7.7 442.8,7.7 442.8,13.1 453.1,13.1 " style="fill:#ffffff;fill-opacity:1" />
      <polygon id="polygon5224" points="12.4,80 0,58.5 12.4,37 37.3,37 49.7,58.5 37.3,80 " style="fill:#ffffff;fill-opacity:1" />
      <g id="g5226" style="opacity:0.8;fill:#ffffff;fill-opacity:1">
        <g id="g5228" style="fill:#ffffff;fill-opacity:1">
          <defs id="defs5230">
            <rect height="31.3" width="36.2" y="66.1" x="27.2" id="SVGID_1_" />
          </defs>
          <clipPath id="SVGID_2_">
            <use id="use5234" overflow="visible" xlink:href="#SVGID_1_" style="overflow:visible" x="0" y="0" width="100%" height="100%" />
          </clipPath>
          <polygon id="polygon5236" points="36.3,97.5 27.3,81.8 36.3,66.1 54.4,66.1 63.4,81.8 54.4,97.5 " clip-path="url(#SVGID_2_)" style="fill:#ffffff;fill-opacity:1" />
        </g>
      </g>
      <g id="g5238" style="opacity:0.6;fill:#ffffff;fill-opacity:1">
        <g id="g5240" style="fill:#ffffff;fill-opacity:1">
          <defs id="defs5242">
            <rect height="31.3" width="36.2" y="73.1" x="120.8" id="SVGID_3_" />
          </defs>
          <clipPath id="SVGID_4_">
            <use id="use5246" overflow="visible" xlink:href="#SVGID_3_" style="overflow:visible" x="0" y="0" width="100%" height="100%" />
          </clipPath>
          <polygon id="polygon5248" points="129.8,104.5 120.8,88.8 129.8,73.1 147.9,73.1 157,88.8 147.9,104.5 " clip-path="url(#SVGID_4_)" style="fill:#ffffff;fill-opacity:1" />
        </g>
      </g>
      <g id="g5250" style="opacity:0.7;fill:#ffffff;fill-opacity:1">
        <g id="g5252" style="fill:#ffffff;fill-opacity:1">
          <defs id="defs5254">
            <rect height="36.2" width="41.8" y="19.5" x="29.8" id="SVGID_5_" />
          </defs>
          <clipPath id="SVGID_6_">
            <use id="use5258" overflow="visible" xlink:href="#SVGID_5_" style="overflow:visible" x="0" y="0" width="100%" height="100%" />
          </clipPath>
          <polygon id="polygon5260" points="40.3,55.7 29.8,37.6 40.3,19.5 61.2,19.5 71.6,37.6 61.2,55.7 " clip-path="url(#SVGID_6_)" style="fill:#ffffff;fill-opacity:1" />
        </g>
      </g>
      <g id="g5262" style="opacity:0.8;fill:#ffffff;fill-opacity:1">
        <g id="g5264" style="fill:#ffffff;fill-opacity:1">
          <defs id="defs5266">
            <rect height="44.9" width="51.9" y="70.4" x="79.9" id="SVGID_7_" />
          </defs>
          <clipPath id="SVGID_8_">
            <use id="use5270" overflow="visible" xlink:href="#SVGID_7_" style="overflow:visible" x="0" y="0" width="100%" height="100%" />
          </clipPath>
          <polygon id="polygon5272" points="92.9,115.3 79.9,92.8 92.9,70.4 118.8,70.4 131.8,92.8 118.8,115.3 " clip-path="url(#SVGID_8_)" style="fill:#ffffff;fill-opacity:1" />
        </g>
      </g>
      <g id="g5274" style="opacity:0.6;fill:#ffffff;fill-opacity:1">
        <g id="g5276" style="fill:#ffffff;fill-opacity:1">
          <defs id="defs5278">
            <rect height="36.2" width="41.8" y="75.3" x="49.1" id="SVGID_9_" />
          </defs>
          <clipPath id="SVGID_10_">
            <use id="use5282" overflow="visible" xlink:href="#SVGID_9_" style="overflow:visible" x="0" y="0" width="100%" height="100%" />
          </clipPath>
          <polygon id="polygon5284" points="59.5,111.5 49.1,93.4 59.5,75.3 80.4,75.3 90.9,93.4 80.4,111.5 " clip-path="url(#SVGID_10_)" style="fill:#ffffff;fill-opacity:1" />
        </g>
      </g>
      <path id="path5286" d="m 87.8,41.9 c -2.4,0 -4.9,1 -6.6,2.8 -1.8,1.9 -2.7,4.1 -2.7,6.9 0,2.1 0.5,4 1.6,5.5 1.9,2.6 4.7,4.1 7.8,4.1 2.9,0 5.5,-1.2 7.6,-3.7 l 0,3.7 c -2.3,1.7 -5,2.5 -7.8,2.5 -2.5,0 -4.8,-0.7 -6.9,-2.1 -3.4,-2.3 -5.2,-5.9 -5.2,-10 0,-3.6 1.2,-6.5 3.6,-8.9 2.4,-2.3 5.2,-3.4 8.6,-3.4 2.8,0 5.2,0.8 7.6,2.5 l 0,3.6 c -2.1,-2.4 -4.6,-3.5 -7.6,-3.5" inkscape:connector-curvature="0" style="fill:#ffffff;fill-opacity:1" />
      <path id="path5288" d="m 121.2,60.2 c -2.4,2.3 -5.6,3.6 -8.8,3.6 -3.3,0 -6.4,-1.3 -8.8,-3.6 -2.4,-2.3 -3.6,-5.3 -3.6,-8.6 0,-3.3 1.3,-6.3 3.6,-8.6 2.3,-2.3 5.5,-3.5 8.8,-3.5 3.3,0 6.5,1.3 8.8,3.5 2.4,2.3 3.6,5.3 3.6,8.6 0,3.3 -1.3,6.3 -3.6,8.6 m -2.1,-1.9 c 1.8,-1.8 2.8,-4.2 2.8,-6.8 0,-2.6 -1,-5 -2.8,-6.8 -1.8,-1.8 -4.2,-2.8 -6.7,-2.8 -2.6,0 -4.9,1 -6.7,2.8 -1.8,1.9 -2.8,4.2 -2.8,6.8 0,2.6 1,4.9 2.8,6.8 1.9,1.9 4.2,2.8 6.7,2.8 2.5,0 4.9,-0.9 6.7,-2.8" inkscape:connector-curvature="0" style="fill:#ffffff;fill-opacity:1" />
      <polygon id="polygon5290" points="153.8,63.1 151.1,63.1 148.2,47.3 141,64 133.8,47.3 130.8,63.1 128.1,63.1 132.8,39 141,58.2 149.1,39 " style="fill:#ffffff;fill-opacity:1" />
      <path id="path5292" d="m 159,39.9 4.8,0 c 2.5,0 4.4,0.1 5.8,1.2 1.5,1.1 2.3,2.9 2.3,4.9 0,2.5 -1.2,4.2 -3.4,4.8 2.7,0.4 4.5,2.6 4.5,5.7 0,1.9 -0.7,3.7 -1.9,4.8 -1.7,1.7 -4,1.8 -7.3,1.8 l -4.8,0 0,-23.2 z m 2.7,10.2 2.1,0 c 3.7,0 5.4,-0.9 5.4,-3.7 0,-3.4 -1.7,-4 -5.4,-4 l -2.1,0 0,7.7 z m 0,10.6 2.1,0 c 2.2,0 3.7,-0.1 4.7,-0.8 0.9,-0.7 1.5,-2 1.5,-3.4 0,-1.7 -0.7,-3 -1.9,-3.7 -1,-0.6 -2.1,-0.6 -3.5,-0.6 l -0.8,0 -2.1,0 0,8.5 z" inkscape:connector-curvature="0" style="fill:#ffffff;fill-opacity:1" />
      <rect id="rect5294" height="23.2" width="2.8" y="39.9" x="178.9" style="fill:#ffffff;fill-opacity:1" />
      <polygon id="polygon5296" points="191.6,63.1 188.9,63.1 188.9,39 205.9,57.5 205.9,39.9 208.6,39.9 208.6,64 191.6,45.7 " style="fill:#ffffff;fill-opacity:1" />
      <polygon id="polygon5298" points="228,51.6 218.5,51.6 218.5,60.6 228,60.6 228,63.1 215.7,63.1 215.7,39.9 228,39.9 228,42.4 218.5,42.4 218.5,49.1 228,49.1 " style="fill:#ffffff;fill-opacity:1" />
      <path id="path5300" d="m 234.3,39.9 4.5,0 c 4.4,0 7.7,0 10.5,2.2 2.7,2 4.1,5.3 4.1,9.5 0,4.2 -1.4,7.4 -4.1,9.4 -2.7,2.1 -5.8,2.2 -9.5,2.2 l -1,0 -4.5,0 0,-23.3 z m 4.5,20.6 c 4,0 6.7,0 8.7,-1.7 1.9,-1.6 2.9,-4.1 2.9,-7.4 0,-3.3 -1,-5.8 -2.9,-7.3 -1.9,-1.6 -4.7,-1.7 -8.7,-1.7 l -1.8,0 0,18.1 1.8,0 z" inkscape:connector-curvature="0" style="fill:#ffffff;fill-opacity:1" />
      <path id="path5302" d="m 288.6,63.1 -3,0 -3,-7.1 -9.1,0 -3,7.1 -3,0 10.5,-24.1 10.6,24.1 z m -14.3,-9.5 7.4,0 -3.7,-8.6 -3.7,8.6 z" inkscape:connector-curvature="0" style="fill:#ffffff;fill-opacity:1" />
      <path id="path5304" d="m 294.7,39.9 0,14.5 c 0,4.7 1.9,6.8 6.2,6.8 4.3,0 6.2,-2.2 6.2,-6.8 l 0,-14.5 2.8,0 0,14.5 c 0,6.3 -3,9.4 -9,9.4 -6,0 -9,-3.1 -9,-9.4 l 0,-14.5 2.8,0 z" inkscape:connector-curvature="0" style="fill:#ffffff;fill-opacity:1" />
      <polygon id="polygon5306" points="323.9,63.1 321.1,63.1 321.1,42.5 314.5,42.5 314.5,39.9 330.4,39.9 330.4,42.5 323.9,42.5 " style="fill:#ffffff;fill-opacity:1" />
      <polygon id="polygon5308" points="353.1,63.1 350.3,63.1 350.3,51.4 337.9,51.4 337.9,63.1 335.2,63.1 335.2,39.9 337.9,39.9 337.9,48.8 350.3,48.8 350.3,39.9 353.1,39.9 " style="fill:#ffffff;fill-opacity:1" />
      <path id="path5310" d="m 380.4,60.2 c -2.4,2.3 -5.6,3.6 -8.8,3.6 -3.3,0 -6.4,-1.3 -8.8,-3.6 -2.4,-2.3 -3.6,-5.3 -3.6,-8.6 0,-3.3 1.3,-6.3 3.6,-8.6 2.3,-2.3 5.5,-3.5 8.8,-3.5 3.3,0 6.5,1.3 8.8,3.5 2.4,2.3 3.6,5.3 3.6,8.6 0,3.3 -1.2,6.3 -3.6,8.6 m -2.1,-1.9 c 1.8,-1.8 2.8,-4.2 2.8,-6.8 0,-2.6 -1,-5 -2.8,-6.8 -1.8,-1.8 -4.2,-2.8 -6.7,-2.8 -2.6,0 -4.9,1 -6.7,2.8 -1.8,1.9 -2.8,4.2 -2.8,6.8 0,2.6 1,4.9 2.8,6.8 1.9,1.9 4.2,2.8 6.7,2.8 2.5,0 4.9,-0.9 6.7,-2.8" inkscape:connector-curvature="0" style="fill:#ffffff;fill-opacity:1" />
      <path id="path5312" d="m 390.2,39.9 4.7,0 0.7,0 c 2.2,0 3.9,0.1 5.3,1.2 1.3,1 2.2,2.9 2.2,5.2 0,3.8 -2.2,5.8 -6.3,5.8 l -0.5,0 8.9,11.1 -3.5,0 -8.4,-11.2 -0.4,0 0,11.1 -2.7,0 0,-23.2 z m 2.7,10.1 2.1,0 c 3.6,0 5.4,-0.5 5.4,-3.7 0,-3.4 -1.8,-4 -5.4,-4 l -2.1,0 0,7.7 z" inkscape:connector-curvature="0" style="fill:#ffffff;fill-opacity:1" />
      <rect id="rect5314" height="23.2" width="2.8" y="39.9" x="409.2" style="fill:#ffffff;fill-opacity:1" />
      <polygon id="polygon5316" points="426.1,63.1 423.3,63.1 423.3,42.5 416.7,42.5 416.7,39.9 432.6,39.9 432.6,42.5 426.1,42.5 " style="fill:#ffffff;fill-opacity:1" />
      <polygon id="polygon5318" points="445.2,52.5 445.2,63.1 442.5,63.1 442.5,52.5 434.6,39.9 437.8,39.9 443.9,50 449.9,39.9 453.1,39.9 " style="fill:#ffffff;fill-opacity:1" />
    </g>
  </g>
</svg>
