<?xml version="1.0" encoding="UTF-8"?>
<svg version="1.1" viewBox="0 0 250 91" xml:space="preserve" xmlns="http://www.w3.org/2000/svg" xmlns:cc="http://creativecommons.org/ns#" xmlns:dc="http://purl.org/dc/elements/1.1/" xmlns:rdf="http://www.w3.org/1999/02/22-rdf-syntax-ns#"><g transform="matrix(.12262 0 0 .12262 62.273 95.771)" fill="#fff"><path d="m714.5-276.02c-22.157-3.5168-41.315-17.908-51.85-38.948-4.8862-9.7584-6.4985-17.97-6.5195-33.204-0.01-6.9236-0.31414-22.786-0.67688-35.25l-0.65951-22.662h-57.825l0.3227 39.25c0.31983 38.902 0.34389 39.297 2.7113 44.538 2.9368 6.5011 9.5335 12.511 15.596 14.208 4.4044 1.2332 16.558 0.93105 22.764-0.56585l2.75-0.66326v32.074l-6.7017 0.71769c-16.27 1.7424-34.713-1.2007-44.886-7.163-6.4979-3.808-14.122-12.578-17.96-20.659-6.2361-13.131-6.6615-16.776-7.1775-61.487l-0.46455-40.25h-41.491l-0.69227 37.434c-0.77071 41.676-0.90005 42.549-8.4546 57.066-4.7756 9.1769-17.207 21.831-26.506 26.981-11.618 6.4343-19.88 8.5192-33.762 8.5192-14.376 0-18.488-0.88491-30.802-6.6291-8.2219-3.8354-10.541-5.54-18.541-13.627-9.3747-9.4769-13.626-16.063-17.73-27.468-1.9788-5.4992-2.1021-8.3209-2.5804-59.025l-0.50227-53.25h34.251v102.26l2.9894 5.225c3.5172 6.1475 10.944 13.382 17.119 16.676 3.8046 2.0294 5.7964 2.3428 14.892 2.3428 9.5775 0 10.969-0.24698 15.838-2.8112 7.1056-3.7424 13.374-10.183 17.107-17.578l3.0559-6.0537v-100.84l76 1.0801v-145.36l-3.0568-6.0554c-4.0874-8.0972-9.6244-13.894-17.191-17.997-5.9778-3.2417-6.7127-3.3904-16.752-3.3904-9.3904 0-11.081 0.28588-16 2.7052-7.0233 3.4545-13.994 10.62-17.919 18.418l-3.0814 6.1237v97.253h-31v-129h-60l0.0174 34.75c0.019 37.95 0.72431 44.721 5.5094 52.886 5.1548 8.796 16.335 12.824 29.386 10.586 3.7188-0.63771 7.5769-1.4724 8.5734-1.8548 1.7155-0.65829 1.7837 0.14501 1.2816 15.087-0.38275 11.389-0.89188 16.005-1.8289 16.584-2.4763 1.5304-19.399 2.1268-28.317 0.99793-22.712-2.8749-36.516-14.686-43.869-37.536-2.1214-6.592-3.5614-34.805-3.6876-72.25l-0.0649-19.25h-41.695l-0.55145 38.27-0.55146 38.27-3.0939 8.0229c-3.94 10.217-7.7594 16.205-15.43 24.194-7.2517 7.5519-17.308 14.006-27.678 17.763-9.9556 3.6074-28.073 4.5976-38 2.077-22.434-5.6964-42.93-23.815-49.577-43.828-1.5967-4.8073-1.5728-5.264 0.71238-13.621 3.2843-12.011 3.2492-33.128-0.0726-43.647-5.4402-17.227-5.2609-15.805-4.6529-36.908 0.31546-10.95 0.68976-20.005 0.83177-20.122 0.14202-0.11745 7.5707-0.53111 16.508-0.91923l16.25-0.70568v101.21l3.0559 6.0537c3.8951 7.7162 9.9551 13.766 17.499 17.47 5.3284 2.6162 6.9316 2.9154 15.446 2.8823 8.4115-0.0327 10.117-0.35728 14.881-2.8331 6.8237-3.546 14.211-10.904 17.536-17.466l2.5831-5.0974v-26.371c0-14.504 0.29698-37.244 0.65995-50.533l0.65994-24.162h74.553l0.31338-24.918c0.17236-13.705 0.68835-25.293 1.1466-25.75s7.7708-0.99209 16.25-1.1884l15.417-0.35685v52.214h60v-52.302l9.75 0.64565c5.3625 0.35511 12.043 0.64798 14.845 0.65083l5.0951 5e-3 0.71259 31.724c0.39193 17.448 0.84061 31.852 0.99708 32.009s3.194-1.0348 6.7502-2.6472c10.478-4.7508 18.226-6.4287 29.85-6.4642 19.244-0.0587 33.382 5.7532 47.084 19.356 9.2873 9.2198 13.546 15.812 17.582 27.212l2.5872 7.3096 0.49511 74.75 0.49512 74.75h93.669l0.29368 49.75c0.29226 49.507 0.30511 49.778 2.633 55.547 2.8518 7.0666 10.619 15.317 17.661 18.759 4.3359 2.1195 6.3945 2.4441 15.5 2.4441 8.9323 0 11.196-0.34292 15.162-2.2968 7.3028-3.5975 13.186-9.434 17.19-17.055l3.6474-6.941v-100.21h34.321l-0.61996 50.75c-0.5667 46.39-0.79283 51.42-2.6323 58.55-3.1588 12.244-8.25 20.93-18.04 30.779-13.021 13.099-27.053 19.316-45.88 20.33-4.7566 0.25615-10.949 0.10054-13.761-0.3458zm234.23-0.15936c-26.387-3.5429-49.456-19.748-61.139-42.947-6.6751-13.255-7.9786-19.538-7.9786-38.457 0-14.763 0.3022-18.044 2.2968-24.932 7.6701-26.488 25.983-45.464 51.703-53.576 5.8322-1.8394 9.2522-2.1985 20.5-2.1523 15.677 0.0644 21.793 1.3615 33.5 7.1051 18.84 9.2431 33.682 27.707 39.433 49.055 2.4757 9.1905 4.3376 25.042 3.4791 29.618l-0.6345 3.3819h-118.03l0.6595 4.25c0.913 5.8833 6.5854 17.372 11.189 22.662 8.7337 10.035 22.581 16.088 36.802 16.088 15.156 0 25.414-4.1467 36.855-14.899l6.8088-6.3988 8.6815 8.3988c4.7749 4.6193 9.7064 9.5824 10.959 11.029l2.2772 2.6302-2.1564 2.7415c-3.3194 4.2199-16.433 14.277-22.7 17.409-15.147 7.5704-36.217 11.179-52.502 8.9927zm44.822-105.15c-2.486-8.048-12.448-19.156-20.811-23.205-20.445-9.8978-47.241 0.52798-56.148 21.847l-1.5075 3.608h79.162zm83.02 104.87c-14.289-2.3432-27.444-7.5119-40.21-15.799-3.4375-2.2315-6.25-4.6194-6.25-5.3064 0-1.4019 12.174-19.948 15.07-22.958 1.8456-1.9182 1.9197-1.9047 6.1488 1.1199 19.888 14.224 47.187 18.013 59.574 8.2697 6.0262-4.7402 7.8883-11.796 4.7268-17.909-3.122-6.0372-8.3783-8.5017-31.98-14.994-28.676-7.8882-41.727-16.853-46.017-31.611-3.2065-11.03-3.5919-15.234-2.0671-22.547 4.5268-21.711 23.708-36.723 50.296-39.365 8.5759-0.85218 24.925 1.0998 34.662 4.1383 7.5124 2.3444 20.862 9.5594 23.444 12.67 0.8746 1.0538-0.6957 3.9196-7.1185 12.991-4.5323 6.4016-8.6906 11.637-9.2406 11.633-0.55-3e-3 -3.4334-1.5564-6.4075-3.4513-16.863-10.744-39.548-10.722-49.004 0.0485-3.9694 4.5209-4.7034 8.527-2.4189 13.202 2.4831 5.0816 6.6177 7.1199 26.83 13.226 30.148 9.1082 43.742 17.64 50.732 31.84 3.0939 6.2846 3.2677 7.2266 3.2677 17.711 0 10.781-0.099 11.273-3.7526 18.666-6.3642 12.877-18.51 22.225-34.754 26.748-9.598 2.6725-25.021 3.4001-35.533 1.6763zm-790.46-25.121v-25.5h-43v-30h43l0.0386-23.25c0.0583-35.1 1.4387-58.791 3.9389-67.602 5.4269-19.126 16.367-31.051 33.402-36.408 6.1972-1.9491 9.1639-2.2261 22.889-2.1371 8.6729 0.0562 16.098 0.43034 16.5 0.83144s0.88261 7.8601 1.0677 16.576l0.33656 15.846-5.8366-1.5242c-13.193-3.4454-26.811-7.9e-4 -32.608 8.2482-5.273 7.5026-5.7032 11.429-5.7162 52.171l-0.0118 37.25h57.773l0.43763 14.25c0.2407 7.8375 0.25493 14.475 0.0316 14.75-0.22331 0.275-13.419 0.63198-29.324 0.79328l-28.918 0.29328v50.913h-34zm517-55v-79.5h34v14.065l5.2645-3.9747c11.766-8.8835 28.269-13.847 42.506-12.784 4.1676 0.31112 11.389 1.9147 16.919 3.7572l9.6486 3.2144-2.9194 2.0785c-4.8916 3.4826-15.414 13.872-19.012 18.771l-3.3981 4.6274-8.8152 0.42146c-12.181 0.5824-21.443 4.9494-31.804 14.995l-7.3907 7.1664v106.66h-35zm-909.62-27.2c-0.76683-0.54653 3.7653-10.947 14.293-32.8 27.843-57.795 38.33-80.042 38.33-81.31 0-1.6768-1.2352-4.5702-31.244-73.19-14.311-32.725-26.845-61.412-27.853-63.75l-1.8323-4.25 34.429 2.2e-4 22.422 51c12.332 28.05 22.711 51 23.064 51s11.638-22.902 25.078-50.892l24.436-50.892 12.5-0.35776c6.875-0.19676 14.839-0.13275 17.698 0.14225l5.1976 0.5-5.4141 10.735c-2.9777 5.9042-7.6246 14.004-10.326 18-6.3566 9.4015-7.1267 10.998-12.102 25.09-2.2963 6.5039-8.5978 21.129-14.003 32.5-24.772 52.11-80.255 166.77-81.116 167.64-1.1774 1.1822-31.994 1.9514-33.556 0.83768zm200.45-101.26c-31.633-5.7977-55.772-27.946-63.942-58.667-2.9194-10.978-2.9184-28.738 2e-3 -39.878 7.2903-27.807 28.151-49.087 55.928-57.055 8.5896-2.4639 10.36-2.6298 23.977-2.2478 13.237 0.37136 15.57 0.71731 23.397 3.4694 24.495 8.6129 43.127 28.136 50.922 53.359 1.9562 6.33 2.3138 9.6955 2.3345 21.975 0.0285 16.918-1.5404 23.45-9.2478 38.5-8.9527 17.482-27.028 32.066-47.703 38.49-7.8206 2.4297-27.454 3.5609-35.669 2.0552zm25.038-31.497c9.1277-2.4294 16.299-6.5564 22.742-13.087 18.812-19.068 19.072-47.917 0.61001-67.654-9.2516-9.8907-20.738-14.806-34.601-14.806-19.609 0-35.646 10.376-44.413 28.734-3.64 7.623-3.7081 7.9858-3.7081 19.766 0 11.798 0.063 12.132 3.7399 19.832 6.2706 13.133 18.437 23.474 31.865 27.085 6.9834 1.8779 16.991 1.9326 23.764 0.12976z"/><path d="m29.61-124.73c-22.839-3.4216-41-19.404-45.96-40.447-1.9316-8.1945-1.9534-19.899-0.0507-27.204 4.6208-17.74 18.352-32.394 35.439-37.82 8.8755-2.8183 26.129-3.0411 34.072-0.44008 18.544 6.0719 31.195 18.752 36.405 36.488 2.0774 7.0727 2.0831 22.388 0.0112 30.424-4.6979 18.221-20.043 33.185-38.416 37.462-5.5441 1.2907-17.457 2.1419-21.5 1.5363zm22-20.601c6.7819-3.5106 13.827-11.004 17.16-18.253 2.3589-5.13 2.7604-7.305 2.7696-15 9e-3 -7.9593-0.34223-9.7519-3.0412-15.503-3.5736-7.6146-10.31-14.753-17.079-18.098-4.0868-2.0194-6.3104-2.3779-14.809-2.387-8.899-0.01-10.553 0.28093-15.02 2.6387-6.1982 3.2714-13.901 11.356-16.801 17.632-1.8211 3.9418-2.1793 6.5253-2.1793 15.717 0 10.402 0.17161 11.328 3.1567 17.037 3.0806 5.8911 9.6425 12.942 14.449 15.526 8.8307 4.7467 22.959 5.0577 31.394 0.69096zm128.5 20.638c-14.427-2.2704-22.378-5.8801-29.335-13.318-2.6412-2.8237-5.9731-7.7078-7.4042-10.854-2.4967-5.4882-2.6323-6.7313-3.3511-30.72-0.41201-13.75-0.78532-31.188-0.82957-38.75l-0.0804-13.75h19.867l0.31634 36.75c0.30771 35.747 0.37694 36.863 2.5373 40.903 4.4726 8.364 12.135 12.347 23.754 12.347 9.3454 0 17.741-4.7433 21.784-12.308 2.1857-4.089 2.2486-5.0956 2.5571-40.942l0.31634-36.75h19.867l-0.0832 13.25c-0.0458 7.2875-0.40306 24.725-0.794 38.75l-0.71079 25.5-3.1933 6.6163c-6.8287 14.149-18.897 21.581-37.719 23.23-2.75 0.24091-6.125 0.26098-7.5 0.0446zm745.91-1.8356c-7.7501-2.1379-17.12-7.7644-23.412-14.058-20.794-20.801-20.693-55.512 0.2238-76.429 10.899-10.899 22.149-15.312 39.276-15.408 26.812-0.14989 48.039 16.848 53.496 42.839 1.8494 8.8085 1.8481 13.206-0.01 22-2.2806 10.815-6.7762 18.963-14.906 27.017-11.892 11.781-21.563 15.546-39.543 15.393-5.7969-0.0492-12.605-0.65898-15.128-1.3551zm25.102-16.543c6.0571-1.6828 14.268-7.3154 18.133-12.439 14.045-18.62 8.1176-46.421-12.005-56.303-5.023-2.4667-6.7378-2.7704-15.642-2.7697-8.9136 6.9e-4 -10.543 0.29031-15 2.6658-6.4184 3.4211-12.619 9.8707-16.184 16.833-2.5839 5.0468-2.8159 6.4063-2.8159 16.5 0 10.416 0.1678 11.318 3.1624 17 4.462 8.466 11.64 14.873 20.182 18.015 4.3471 1.5988 15.238 1.8677 20.169 0.49795zm-1072-36.013v-53h64v18h-44v23h33v17h-33v48h-20zm402 0v-53l13.5 0.1288 11.981 14.186c23.446 27.761 46.944 54.686 47.725 54.686 0.43665 0 0.79391-15.525 0.79391-34.5v-34.5h20v106l-14.5-0.0436-14.5-17.128c-23.022-27.196-43.137-50.299-44.107-50.661-0.51293-0.19149-0.89291 14.171-0.89291 33.75v34.083h-20zm145 0.0425v-53.248l20.25 0.66257c11.138 0.36442 23.567 1.0887 27.621 1.6096 10.512 1.3505 19.091 5.7158 27.208 13.845 27.777 27.816 16.82 75.567-20.007 87.193-5.6215 1.7746-10.08 2.1551-30.822 2.6306l-24.25 0.55587zm41.925 34.596c8.4163-0.43888 13.704-3.2084 20.449-10.71 10.568-11.754 11.419-30.67 2.0048-44.58-6.1885-9.1442-14.14-13.214-27.23-13.939-4.7567-0.26347-10.336-0.64552-12.398-0.849l-3.75-0.36998v71.543l7-0.36648c3.85-0.20156 10.116-0.52899 13.925-0.72761zm85.075 17.226c0-2.4407 43.223-102.41 44.834-103.69 1.8419-1.4696 11.654-1.1579 13.047 0.4145 0.44555 0.50315 10.597 23.812 22.558 51.798 16.953 39.666 21.452 51.071 20.405 51.735-0.7386 0.46812-5.1679 0.85475-9.8429 0.85917l-8.5 8e-3 -9.2819-22.485h-44.548l-9.2465 22-9.7118 0.28621c-7.0792 0.20868-9.7118-0.0411-9.7118-0.92141zm64-40.27c0-0.78663-12.217-29.104-12.854-29.795-0.58385-0.63272-13.244 27.668-13.175 29.45 0.0294 0.75555 26.029 1.0998 26.029 0.34468zm99-2.5947v-44h-28v-18h76v18h-28v88h-20zm99-9v-53h20v106h-20zm226 0v-53l13.5 0.00139 21.5 25.231c27.257 31.986 37.049 43.182 38.136 43.601 0.475 0.18334 0.8637-15.229 0.8637-34.25v-34.583h20v106l-14.5-0.1246-27.5-32.467c-15.125-17.857-28.512-33.432-29.75-34.612l-2.25-2.1454v69.349h-20v-53z" fill-opacity=".72866"/></g></svg>
