<?xml version="1.0" encoding="UTF-8" standalone="no"?>
<!-- Created with Inkscape (http://www.inkscape.org/) -->

<svg
   xmlns:dc="http://purl.org/dc/elements/1.1/"
   xmlns:cc="http://creativecommons.org/ns#"
   xmlns:rdf="http://www.w3.org/1999/02/22-rdf-syntax-ns#"
   xmlns:svg="http://www.w3.org/2000/svg"
   xmlns="http://www.w3.org/2000/svg"
   xmlns:sodipodi="http://sodipodi.sourceforge.net/DTD/sodipodi-0.dtd"
   xmlns:inkscape="http://www.inkscape.org/namespaces/inkscape"
   width="250"
   height="91"
   viewBox="0 0 250 91"
   id="svg2"
   version="1.1"
   inkscape:version="0.92.2 (5c3e80d, 2017-08-06)"
   sodipodi:docname="yorkshirewater.svg">
  <defs
     id="defs4" />
  <sodipodi:namedview
     id="base"
     pagecolor="#ffffff"
     bordercolor="#666666"
     borderopacity="1.0"
     inkscape:pageopacity="0.0"
     inkscape:pageshadow="2"
     inkscape:zoom="1.9799"
     inkscape:cx="98.912306"
     inkscape:cy="27.908"
     inkscape:document-units="px"
     inkscape:current-layer="layer1"
     showgrid="false"
     inkscape:window-width="1920"
     inkscape:window-height="1046"
     inkscape:window-x="-11"
     inkscape:window-y="-11"
     inkscape:window-maximized="1"
     units="px" />
  <metadata
     id="metadata7">
    <rdf:RDF>
      <cc:Work
         rdf:about="">
        <dc:format>image/svg+xml</dc:format>
        <dc:type
           rdf:resource="http://purl.org/dc/dcmitype/StillImage" />
        <dc:title></dc:title>
      </cc:Work>
    </rdf:RDF>
  </metadata>
  <g
     inkscape:label="Layer 1"
     inkscape:groupmode="layer"
     id="layer1"
     transform="translate(0,-961.4)">
    <rect
       style="opacity:0.032;fill:#ff0000;fill-opacity:0;stroke:none;stroke-width:2.5;stroke-linecap:round;stroke-linejoin:round;stroke-miterlimit:4;stroke-dasharray:none;stroke-dashoffset:0;stroke-opacity:1"
       id="rect4175"
       width="250"
       height="91"
       x="0"
       y="961.4" />
    <path
       style="fill:#ffffff;stroke-width:0.87365592;fill-opacity:1"
       inkscape:connector-curvature="0"
       d="m 118.31653,1022.7132 c 0.69893,0 1.22312,-0.5242 1.22312,-1.1358 0,-0.6989 -0.52419,-1.1357 -1.22312,-1.1357 -0.69892,0 -1.22312,0.5242 -1.22312,1.1357 0,0.6116 0.5242,1.1358 1.22312,1.1358"
       id="path4918" />
    <path
       style="fill:#ffffff;stroke-width:0.87365592;fill-opacity:1"
       inkscape:connector-curvature="0"
       d="m 118.31653,1022.7132 c 0.69893,0 1.22312,-0.5242 1.22312,-1.1358 0,-0.6989 -0.52419,-1.1357 -1.22312,-1.1357 -0.69892,0 -1.22312,0.5242 -1.22312,1.1357 0,0.6116 0.5242,1.1358 1.22312,1.1358"
       id="path4920" />
    <path
       style="fill:#ffffff;stroke-width:0.87365592;fill-opacity:1"
       inkscape:connector-curvature="0"
       d="m 66.071909,1032.236 c 0,-4.0188 -2.446237,-6.9892 -6.465054,-6.9892 -3.931451,0 -6.552419,2.9704 -6.552419,6.9892 0,4.0189 2.446236,6.9893 6.465054,6.9893 3.931451,0 6.552419,-2.9704 6.552419,-6.9893 m -2.358871,0 c 0,3.4073 -1.659946,5.5041 -4.193548,5.5041 -2.446237,0 -4.193549,-2.0968 -4.193549,-5.5041 0,-3.4946 1.659947,-5.504 4.193549,-5.504 2.533602,0 4.193548,2.0094 4.193548,5.504"
       id="path4922" />
    <path
       style="fill:#ffffff;stroke-width:0.87365592;fill-opacity:1"
       inkscape:connector-curvature="0"
       d="m 118.31653,1025.5963 c -0.61156,0 -1.13575,0.5241 -1.13575,1.1357 v 11.0081 c 0,0.6115 0.52419,1.1357 1.13575,1.1357 0.61156,0 1.13576,-0.5242 1.13576,-1.1357 v -11.0081 c 0,-0.6116 -0.5242,-1.1357 -1.13576,-1.1357"
       id="path4924" />
    <path
       style="fill:#ffffff;stroke-width:0.87365592;fill-opacity:1"
       inkscape:connector-curvature="0"
       d="m 112.72513,1026.9941 c -0.61155,-1.0484 -1.83467,-1.7473 -3.40725,-1.7473 -2.00941,0 -3.40726,1.0484 -4.54301,2.3589 h -0.0874 v -6.3777 c 0,-0.6116 -0.52419,-1.1358 -1.13575,-1.1358 -0.61156,0 -1.13576,0.5242 -1.13576,1.1358 v 16.5121 c 0,0.6115 0.5242,1.1357 1.13576,1.1357 0.61156,0 1.13575,-0.5242 1.13575,-1.1357 v -8.824 c 0.96102,-1.0483 2.35887,-1.922 3.75672,-1.922 0.96102,0 1.83468,0.3495 2.35887,1.2231 0.2621,0.5242 0.43683,1.2231 0.43683,2.1842 v 7.3387 c 0,0.6115 0.52419,1.1357 1.13575,1.1357 0.61156,0 1.13575,-0.5242 1.13575,-1.1357 v -7.6008 c 0,-1.3979 -0.26209,-2.3589 -0.78629,-3.1452"
       id="path4926" />
    <path
       style="fill:#ffffff;stroke-width:0.87365592;fill-opacity:1"
       inkscape:connector-curvature="0"
       d="m 92.980511,1028.7414 c 0,-1.2231 1.048387,-1.8347 2.708333,-1.8347 1.223119,0 1.747312,0.1748 2.533602,0.2621 0.61156,0.1748 0.873656,-0.2621 0.961022,-0.4368 0.08737,-0.3495 -0.08737,-0.7863 -0.524194,-0.8736 -0.611559,-0.2621 -1.747311,-0.6116 -3.319892,-0.6116 -2.533602,0 -4.543011,1.3105 -4.543011,3.6693 0,4.5431 6.55242,3.1452 6.55242,6.4651 0,1.1358 -0.786291,2.2715 -3.232527,2.2715 -1.39785,0 -1.834678,-0.1747 -2.446237,-0.2621 -0.524193,-0.1747 -0.78629,0.1747 -0.873656,0.4368 -0.08736,0.2621 -0.08736,0.6116 0.436828,0.8737 0.611559,0.2621 2.009409,0.6116 3.319893,0.6116 2.620967,0 5.15457,-1.2232 5.15457,-4.1062 -0.174732,-4.8051 -6.727151,-3.4947 -6.727151,-6.4651"
       id="path4928" />
    <path
       style="fill:#ffffff;stroke-width:0.87365592;fill-opacity:1"
       inkscape:connector-curvature="0"
       d="m 75.245296,1025.2468 c -3.145161,0 -6.465054,0.6989 -6.465054,6.203 v 6.2903 c 0,0.6115 0.524194,1.1357 1.135753,1.1357 0.611559,0 1.135753,-0.5242 1.135753,-1.1357 v -6.5524 c 0,-1.66 0,-2.7957 0.349462,-3.1452 0.436828,-0.5242 1.572581,-0.4368 3.844086,-0.4368 0.611559,0 1.135753,-0.5242 1.135753,-1.1358 0.08736,-0.6989 -0.436828,-1.2231 -1.135753,-1.2231"
       id="path4930" />
    <path
       style="fill:#ffffff;stroke-width:0.87365592;fill-opacity:1"
       inkscape:connector-curvature="0"
       d="m 129.58669,1025.2468 c -3.05779,0 -6.46505,0.6989 -6.46505,6.203 v 6.2903 c 0,0.6115 0.52419,1.1357 1.13575,1.1357 0.61156,0 1.13576,-0.5242 1.13576,-1.1357 v -6.5524 c 0,-1.66 0,-2.7957 0.34946,-3.1452 0.52419,-0.5242 1.57258,-0.4368 3.84408,-0.4368 0.61156,0 1.13576,-0.5242 1.13576,-1.1358 0,-0.6989 -0.5242,-1.2231 -1.13576,-1.2231"
       id="path4932" />
    <path
       style="fill:#ffffff;stroke-width:0.87365592;fill-opacity:1"
       inkscape:connector-curvature="0"
       d="m 208.21573,1025.2468 c -3.0578,0 -6.46506,0.6989 -6.46506,6.203 v 6.2903 c 0,0.6115 0.5242,1.1357 1.13575,1.1357 0.61156,0 1.13576,-0.5242 1.13576,-1.1357 v -6.5524 c 0,-1.66 0,-2.7957 0.34946,-3.1452 0.43683,-0.5242 1.57258,-0.4368 3.84409,-0.4368 0.61155,0 1.13575,-0.5242 1.13575,-1.1358 0,-0.6989 -0.5242,-1.2231 -1.13575,-1.2231"
       id="path4934" />
    <path
       style="fill:#ffffff;stroke-width:0.87365592;fill-opacity:1"
       inkscape:connector-curvature="0"
       d="m 53.229167,1020.267 c -0.611559,-0.2621 -1.310484,0 -1.572581,0.5241 -0.174731,0.4369 -4.280913,8.5619 -4.280913,8.5619 h -0.08737 c 0,0 -4.193548,-8.2124 -4.36828,-8.5619 -0.174731,-0.3494 -0.873656,-0.8736 -1.659946,-0.4368 -0.611559,0.3495 -0.698925,1.1358 -0.436828,1.66 0.174731,0.2621 5.329301,9.3481 5.329301,9.3481 v 6.465 c 0,0.3495 0.262097,1.1358 1.135753,1.1358 0.78629,0 1.135753,-0.6989 1.135753,-1.1358 v -6.6397 c 0,0 5.154569,-9.1734 5.329301,-9.4355 0.262096,-0.4369 0.08736,-1.2231 -0.524194,-1.4852"
       id="path4936" />
    <path
       style="fill:#ffffff;stroke-width:0.87365592;fill-opacity:1"
       inkscape:connector-curvature="0"
       d="m 88.000672,1037.1285 c -0.436828,-0.4368 -4.979838,-5.3293 -4.979838,-5.3293 v 0 c 0,0 4.630376,-4.1935 4.805107,-4.3683 0.174731,-0.1747 0.524194,-0.8736 -0.08737,-1.3978 -0.349463,-0.3495 -0.961022,-0.4368 -1.39785,0.087 -0.174731,0.1748 -5.067204,5.3294 -5.067204,5.3294 v 0 -10.2218 c 0,-0.6116 -0.524194,-1.1358 -1.135753,-1.1358 -0.611559,0 -1.135753,0.5242 -1.135753,1.1358 v 16.5121 c 0,0.6115 0.524194,1.1357 1.135753,1.1357 0.611559,0 1.135753,-0.5242 1.135753,-1.1357 v -5.5041 0 c 0,0 4.805107,5.9409 5.15457,6.2904 0.349462,0.4368 1.135752,0.5242 1.57258,0.087 0.436828,-0.4368 0.436828,-1.1357 0,-1.4852"
       id="path4938" />
    <path
       style="fill:#ffffff;stroke-width:0.87365592;fill-opacity:1"
       inkscape:connector-curvature="0"
       d="m 139.63374,1031.1003 -5.76613,0.3495 c 0,-3.2326 1.48521,-4.7178 3.31989,-4.7178 2.00941,0 2.88306,1.7473 3.0578,3.7567 0,0.4369 0,0.6116 -0.61156,0.6116 m 2.97043,0.4368 c 0,-2.883 -1.48522,-6.3777 -5.24194,-6.3777 -3.49462,0 -5.76613,2.8831 -5.76613,7.2514 0,4.7177 2.88307,6.8145 6.55242,6.8145 2.00941,0 3.14516,-0.5242 3.58199,-0.6989 0.43683,-0.1748 0.52419,-0.5242 0.43683,-0.8737 -0.0874,-0.3495 -0.43683,-0.5242 -0.87366,-0.4368 -0.52419,0.1747 -1.04838,0.3494 -2.5336,0.3494 -3.05779,0 -4.71774,-1.5725 -4.80511,-5.0672 h 7.68818 c 0.87365,0 0.96102,-0.5242 0.96102,-0.961"
       id="path4940" />
    <path
       style="fill:#ffffff;stroke-width:0.87365592;fill-opacity:1"
       inkscape:connector-curvature="0"
       d="m 196.15927,1031.1003 -5.76613,0.3495 c 0,-3.2326 1.48522,-4.7178 3.3199,-4.7178 2.00941,0 2.88306,1.7473 3.05779,3.7567 0,0.4369 0,0.6116 -0.61156,0.6116 m 2.88307,0.4368 c 0,-2.883 -1.48522,-6.3777 -5.24194,-6.3777 -3.49462,0 -5.76613,2.8831 -5.76613,7.2514 0,4.7177 2.88307,6.8145 6.55242,6.8145 2.00941,0 3.14516,-0.5242 3.58199,-0.6989 0.43683,-0.1748 0.5242,-0.5242 0.43683,-0.8737 -0.0874,-0.3495 -0.43683,-0.5242 -0.87366,-0.4368 -0.52419,0.1747 -1.04838,0.3494 -2.62096,0.3494 -3.0578,0 -4.71775,-1.5725 -4.71775,-5.0672 h 7.68818 c 0.96102,0 0.96102,-0.5242 0.96102,-0.961"
       id="path4942" />
    <path
       style="fill:#ffffff;stroke-width:0.87365592;fill-opacity:1"
       inkscape:connector-curvature="0"
       d="m 173.61895,1032.4981 c -1.22312,0 -5.3293,0.087 -5.3293,2.9705 0,1.3105 0.78629,2.3588 2.09677,2.3588 3.75673,0 3.23253,-1.1357 3.23253,-5.3293 m -6.02822,-6.2029 c 0.78629,-0.4368 1.92204,-0.961 3.93145,-0.961 2.18414,0 4.45564,1.8346 4.45564,5.4166 v 3.2326 c 0,3.844 -0.17473,5.4166 -6.29032,5.4166 -1.92204,0 -3.75672,-1.0484 -3.75672,-3.582 0,-3.3199 2.97043,-4.1935 7.77554,-4.2809 v -0.6989 c 0,-3.2325 -1.92205,-3.6694 -2.62097,-3.6694 -1.22312,0 -1.83468,0.087 -2.88307,0.5242 -1.04838,0.2621 -1.39784,-0.8736 -0.61155,-1.3978"
       id="path4944" />
    <path
       style="fill:#ffffff;stroke-width:0.87365592;fill-opacity:1"
       inkscape:connector-curvature="0"
       d="m 186.37433,1037.7401 c -0.0874,-0.3495 -0.34946,-0.4369 -0.61156,-0.3495 -0.43683,0.087 -0.69893,0.1747 -1.31049,0.1747 -1.04838,0 -1.92204,-0.3494 -1.92204,-1.8346 v -8.2998 h 3.0578 c 0.43683,0 0.87365,-0.3494 0.87365,-0.8736 0,-0.4369 -0.34946,-0.8737 -0.87365,-0.8737 h -3.0578 v -2.6209 c 0,-0.6116 -0.52419,-1.1358 -1.13575,-1.1358 -0.61156,0 -1.13575,0.5242 -1.13575,1.1358 v 2.6209 h -2.18414 c -0.61156,0 -0.69893,1.1358 0,1.2231 0.43682,0.087 2.2715,0.4369 2.2715,0.4369 v 8.5618 c 0,2.5336 1.48522,3.2325 3.40726,3.2325 1.04839,0 1.74731,-0.1747 2.35887,-0.4368 0.2621,-0.2621 0.34946,-0.6116 0.2621,-0.961"
       id="path4946" />
    <path
       style="fill:#ffffff;stroke-width:0.87365592;fill-opacity:1"
       inkscape:connector-curvature="0"
       d="m 165.05712,1020.7911 c -0.52419,-0.087 -1.22311,0.087 -1.48521,0.8737 -0.2621,0.961 -3.93145,13.8038 -3.93145,13.8038 h -0.0874 c 0,0 -3.31989,-12.668 -3.58199,-13.7164 -0.26209,-1.2231 -2.18414,-1.3105 -2.44623,0 -0.34947,1.3978 -3.3199,13.8037 -3.3199,13.8037 h -0.0874 c 0,0 -4.01882,-13.629 -4.10619,-13.8911 -0.26209,-0.7863 -0.96102,-0.961 -1.39784,-0.8737 -0.7863,0.1748 -0.96103,1.0484 -0.87366,1.3979 0.2621,0.6989 4.45564,13.3669 5.24193,15.6384 0.5242,1.5726 2.09678,1.1358 2.44624,0 0.2621,-1.1357 3.31989,-13.8037 3.31989,-13.8037 h 0.0874 c 0,0 3.58199,13.5416 3.66935,13.8037 0.34947,1.1358 1.92205,1.3979 2.35888,0 0.0874,-0.2621 5.0672,-15.551 5.15457,-15.6384 0,-0.3495 -0.2621,-1.1358 -0.96103,-1.3979"
       id="path4948" />
    <path
       style="fill:#ffffff;stroke-width:0.87365592;fill-opacity:1"
       inkscape:connector-curvature="0"
       d="m 66.071909,1032.236 c 0,-4.0188 -2.446237,-6.9892 -6.465054,-6.9892 -3.931451,0 -6.552419,2.9704 -6.552419,6.9892 0,4.0189 2.446236,6.9893 6.465054,6.9893 3.931451,0 6.552419,-2.9704 6.552419,-6.9893 m -2.358871,0 c 0,3.4073 -1.659946,5.5041 -4.193548,5.5041 -2.446237,0 -4.193549,-2.0968 -4.193549,-5.5041 0,-3.4946 1.659947,-5.504 4.193549,-5.504 2.533602,0 4.193548,2.0094 4.193548,5.504"
       id="path4950" />
    <path
       style="fill:#ffffff;stroke-width:0.87365592;fill-opacity:1"
       inkscape:connector-curvature="0"
       d="m 118.31653,1025.5963 c -0.61156,0 -1.13575,0.5241 -1.13575,1.1357 v 11.0081 c 0,0.6115 0.52419,1.1357 1.13575,1.1357 0.61156,0 1.13576,-0.5242 1.13576,-1.1357 v -11.0081 c 0,-0.6116 -0.5242,-1.1357 -1.13576,-1.1357"
       id="path4952" />
    <path
       style="fill:#ffffff;stroke-width:0.87365592;fill-opacity:1"
       inkscape:connector-curvature="0"
       d="m 112.72513,1026.9941 c -0.61155,-1.0484 -1.83467,-1.7473 -3.40725,-1.7473 -2.00941,0 -3.40726,1.0484 -4.54301,2.3589 h -0.0874 v -6.3777 c 0,-0.6116 -0.52419,-1.1358 -1.13575,-1.1358 -0.61156,0 -1.13576,0.5242 -1.13576,1.1358 v 16.5121 c 0,0.6115 0.5242,1.1357 1.13576,1.1357 0.61156,0 1.13575,-0.5242 1.13575,-1.1357 v -8.824 c 0.96102,-1.0483 2.35887,-1.922 3.75672,-1.922 0.96102,0 1.83468,0.3495 2.35887,1.2231 0.2621,0.5242 0.43683,1.2231 0.43683,2.1842 v 7.3387 c 0,0.6115 0.52419,1.1357 1.13575,1.1357 0.61156,0 1.13575,-0.5242 1.13575,-1.1357 v -7.6008 c 0,-1.3979 -0.26209,-2.3589 -0.78629,-3.1452"
       id="path4954" />
    <path
       style="fill:#ffffff;stroke-width:0.87365592;fill-opacity:1"
       inkscape:connector-curvature="0"
       d="m 92.980511,1028.7414 c 0,-1.2231 1.048387,-1.8347 2.708333,-1.8347 1.223119,0 1.747312,0.1748 2.533602,0.2621 0.61156,0.1748 0.873656,-0.2621 0.961022,-0.4368 0.08737,-0.3495 -0.08737,-0.7863 -0.524194,-0.8736 -0.611559,-0.2621 -1.747311,-0.6116 -3.319892,-0.6116 -2.533602,0 -4.543011,1.3105 -4.543011,3.6693 0,4.5431 6.55242,3.1452 6.55242,6.4651 0,1.1358 -0.786291,2.2715 -3.232527,2.2715 -1.39785,0 -1.834678,-0.1747 -2.446237,-0.2621 -0.524193,-0.1747 -0.78629,0.1747 -0.873656,0.4368 -0.08736,0.2621 -0.08736,0.6116 0.436828,0.8737 0.611559,0.2621 2.009409,0.6116 3.319893,0.6116 2.620967,0 5.15457,-1.2232 5.15457,-4.1062 -0.174732,-4.8051 -6.727151,-3.4947 -6.727151,-6.4651"
       id="path4956" />
    <path
       style="fill:#ffffff;stroke-width:0.87365592;fill-opacity:1"
       inkscape:connector-curvature="0"
       d="m 75.245296,1025.2468 c -3.145161,0 -6.465054,0.6989 -6.465054,6.203 v 6.2903 c 0,0.6115 0.524194,1.1357 1.135753,1.1357 0.611559,0 1.135753,-0.5242 1.135753,-1.1357 v -6.5524 c 0,-1.66 0,-2.7957 0.349462,-3.1452 0.436828,-0.5242 1.572581,-0.4368 3.844086,-0.4368 0.611559,0 1.135753,-0.5242 1.135753,-1.1358 0.08736,-0.6989 -0.436828,-1.2231 -1.135753,-1.2231"
       id="path4958" />
    <path
       style="fill:#ffffff;stroke-width:0.87365592;fill-opacity:1"
       inkscape:connector-curvature="0"
       d="m 129.58669,1025.2468 c -3.05779,0 -6.46505,0.6989 -6.46505,6.203 v 6.2903 c 0,0.6115 0.52419,1.1357 1.13575,1.1357 0.61156,0 1.13576,-0.5242 1.13576,-1.1357 v -6.5524 c 0,-1.66 0,-2.7957 0.34946,-3.1452 0.52419,-0.5242 1.57258,-0.4368 3.84408,-0.4368 0.61156,0 1.13576,-0.5242 1.13576,-1.1358 0,-0.6989 -0.5242,-1.2231 -1.13576,-1.2231"
       id="path4960" />
    <path
       style="fill:#ffffff;stroke-width:0.87365592;fill-opacity:1"
       inkscape:connector-curvature="0"
       d="m 208.21573,1025.2468 c -3.0578,0 -6.46506,0.6989 -6.46506,6.203 v 6.2903 c 0,0.6115 0.5242,1.1357 1.13575,1.1357 0.61156,0 1.13576,-0.5242 1.13576,-1.1357 v -6.5524 c 0,-1.66 0,-2.7957 0.34946,-3.1452 0.43683,-0.5242 1.57258,-0.4368 3.84409,-0.4368 0.61155,0 1.13575,-0.5242 1.13575,-1.1358 0,-0.6989 -0.5242,-1.2231 -1.13575,-1.2231"
       id="path4962" />
    <path
       style="fill:#ffffff;stroke-width:0.87365592;fill-opacity:1"
       inkscape:connector-curvature="0"
       d="m 53.229167,1020.267 c -0.611559,-0.2621 -1.310484,0 -1.572581,0.5241 -0.174731,0.4369 -4.280913,8.5619 -4.280913,8.5619 h -0.08737 c 0,0 -4.193548,-8.2124 -4.36828,-8.5619 -0.174731,-0.3494 -0.873656,-0.8736 -1.659946,-0.4368 -0.611559,0.3495 -0.698925,1.1358 -0.436828,1.66 0.174731,0.2621 5.329301,9.3481 5.329301,9.3481 v 6.465 c 0,0.3495 0.262097,1.1358 1.135753,1.1358 0.78629,0 1.135753,-0.6989 1.135753,-1.1358 v -6.6397 c 0,0 5.154569,-9.1734 5.329301,-9.4355 0.262096,-0.4369 0.08736,-1.2231 -0.524194,-1.4852"
       id="path4964" />
    <path
       style="fill:#ffffff;stroke-width:0.87365592;fill-opacity:1"
       inkscape:connector-curvature="0"
       d="m 88.000672,1037.1285 c -0.436828,-0.4368 -4.979838,-5.3293 -4.979838,-5.3293 v 0 c 0,0 4.630376,-4.1935 4.805107,-4.3683 0.174731,-0.1747 0.524194,-0.8736 -0.08737,-1.3978 -0.349463,-0.3495 -0.961022,-0.4368 -1.39785,0.087 -0.174731,0.1748 -5.067204,5.3294 -5.067204,5.3294 v 0 -10.2218 c 0,-0.6116 -0.524194,-1.1358 -1.135753,-1.1358 -0.611559,0 -1.135753,0.5242 -1.135753,1.1358 v 16.5121 c 0,0.6115 0.524194,1.1357 1.135753,1.1357 0.611559,0 1.135753,-0.5242 1.135753,-1.1357 v -5.5041 0 c 0,0 4.805107,5.9409 5.15457,6.2904 0.349462,0.4368 1.135752,0.5242 1.57258,0.087 0.436828,-0.4368 0.436828,-1.1357 0,-1.4852"
       id="path4966" />
    <path
       style="fill:#ffffff;stroke-width:0.87365592;fill-opacity:1"
       inkscape:connector-curvature="0"
       d="m 139.63374,1031.1003 -5.76613,0.3495 c 0,-3.2326 1.48521,-4.7178 3.31989,-4.7178 2.00941,0 2.88306,1.7473 3.0578,3.7567 0,0.4369 0,0.6116 -0.61156,0.6116 m 2.97043,0.4368 c 0,-2.883 -1.48522,-6.3777 -5.24194,-6.3777 -3.49462,0 -5.76613,2.8831 -5.76613,7.2514 0,4.7177 2.88307,6.8145 6.55242,6.8145 2.00941,0 3.14516,-0.5242 3.58199,-0.6989 0.43683,-0.1748 0.52419,-0.5242 0.43683,-0.8737 -0.0874,-0.3495 -0.43683,-0.5242 -0.87366,-0.4368 -0.52419,0.1747 -1.04838,0.3494 -2.5336,0.3494 -3.05779,0 -4.71774,-1.5725 -4.80511,-5.0672 h 7.68818 c 0.87365,0 0.96102,-0.5242 0.96102,-0.961"
       id="path4968" />
    <path
       style="fill:#ffffff;stroke-width:0.87365592;fill-opacity:1"
       inkscape:connector-curvature="0"
       d="m 196.15927,1031.1003 -5.76613,0.3495 c 0,-3.2326 1.48522,-4.7178 3.3199,-4.7178 2.00941,0 2.88306,1.7473 3.05779,3.7567 0,0.4369 0,0.6116 -0.61156,0.6116 m 2.88307,0.4368 c 0,-2.883 -1.48522,-6.3777 -5.24194,-6.3777 -3.49462,0 -5.76613,2.8831 -5.76613,7.2514 0,4.7177 2.88307,6.8145 6.55242,6.8145 2.00941,0 3.14516,-0.5242 3.58199,-0.6989 0.43683,-0.1748 0.5242,-0.5242 0.43683,-0.8737 -0.0874,-0.3495 -0.43683,-0.5242 -0.87366,-0.4368 -0.52419,0.1747 -1.04838,0.3494 -2.62096,0.3494 -3.0578,0 -4.71775,-1.5725 -4.71775,-5.0672 h 7.68818 c 0.96102,0 0.96102,-0.5242 0.96102,-0.961"
       id="path4970" />
    <path
       style="fill:#ffffff;stroke-width:0.87365592;fill-opacity:1"
       inkscape:connector-curvature="0"
       d="m 173.61895,1032.4981 c -1.22312,0 -5.3293,0.087 -5.3293,2.9705 0,1.3105 0.78629,2.3588 2.09677,2.3588 3.75673,0 3.23253,-1.1357 3.23253,-5.3293 m -6.02822,-6.2029 c 0.78629,-0.4368 1.92204,-0.961 3.93145,-0.961 2.18414,0 4.45564,1.8346 4.45564,5.4166 v 3.2326 c 0,3.844 -0.17473,5.4166 -6.29032,5.4166 -1.92204,0 -3.75672,-1.0484 -3.75672,-3.582 0,-3.3199 2.97043,-4.1935 7.77554,-4.2809 v -0.6989 c 0,-3.2325 -1.92205,-3.6694 -2.62097,-3.6694 -1.22312,0 -1.83468,0.087 -2.88307,0.5242 -1.04838,0.2621 -1.39784,-0.8736 -0.61155,-1.3978"
       id="path4972" />
    <path
       style="fill:#ffffff;stroke-width:0.87365592;fill-opacity:1"
       inkscape:connector-curvature="0"
       d="m 186.37433,1037.7401 c -0.0874,-0.3495 -0.34946,-0.4369 -0.61156,-0.3495 -0.43683,0.087 -0.69893,0.1747 -1.31049,0.1747 -1.04838,0 -1.92204,-0.3494 -1.92204,-1.8346 v -8.2998 h 3.0578 c 0.43683,0 0.87365,-0.3494 0.87365,-0.8736 0,-0.4369 -0.34946,-0.8737 -0.87365,-0.8737 h -3.0578 v -2.6209 c 0,-0.6116 -0.52419,-1.1358 -1.13575,-1.1358 -0.61156,0 -1.13575,0.5242 -1.13575,1.1358 v 2.6209 h -2.18414 c -0.61156,0 -0.69893,1.1358 0,1.2231 0.43682,0.087 2.2715,0.4369 2.2715,0.4369 v 8.5618 c 0,2.5336 1.48522,3.2325 3.40726,3.2325 1.04839,0 1.74731,-0.1747 2.35887,-0.4368 0.2621,-0.2621 0.34946,-0.6116 0.2621,-0.961"
       id="path4974" />
    <path
       style="fill:#ffffff;stroke-width:0.87365592;fill-opacity:1"
       inkscape:connector-curvature="0"
       d="m 165.05712,1020.7911 c -0.52419,-0.087 -1.22311,0.087 -1.48521,0.8737 -0.2621,0.961 -3.93145,13.8038 -3.93145,13.8038 h -0.0874 c 0,0 -3.31989,-12.668 -3.58199,-13.7164 -0.26209,-1.2231 -2.18414,-1.3105 -2.44623,0 -0.34947,1.3978 -3.3199,13.8037 -3.3199,13.8037 h -0.0874 c 0,0 -4.01882,-13.629 -4.10619,-13.8911 -0.26209,-0.7863 -0.96102,-0.961 -1.39784,-0.8737 -0.7863,0.1748 -0.96103,1.0484 -0.87366,1.3979 0.2621,0.6989 4.45564,13.3669 5.24193,15.6384 0.5242,1.5726 2.09678,1.1358 2.44624,0 0.2621,-1.1357 3.31989,-13.8037 3.31989,-13.8037 h 0.0874 c 0,0 3.58199,13.5416 3.66935,13.8037 0.34947,1.1358 1.92205,1.3979 2.35888,0 0.0874,-0.2621 5.0672,-15.551 5.15457,-15.6384 0,-0.3495 -0.2621,-1.1358 -0.96103,-1.3979"
       id="path4976" />
    <path
       style="fill:#ffffff;stroke-width:0.87365592;fill-opacity:0.55428571"
       inkscape:connector-curvature="0"
       d="m 205.15793,1014.2387 c 0,0 4.01882,0 4.01882,-4.0188 v -31.80106 c 0,0 0,-4.01882 -4.01882,-4.01882 H 44.667339 c 0,0 -4.018817,0 -4.018817,4.01882 v 31.88846 c 0,0 0,4.0188 4.018817,4.0188 H 205.15793 Z"
       id="path4978" />
    <path
       style="fill:#ffffff;stroke-width:0.87365592;fill-opacity:0.76571429"
       inkscape:connector-curvature="0"
       d="M 44.667339,1014.2387 H 205.15793 c 0,0 4.01882,0 4.01882,-4.0188 v -10.1344 c -10.30914,-1.22311 -30.57796,-3.31989 -44.20699,-3.31989 -23.32661,0 -62.64113,-11.27016 -113.662636,-11.27016 -2.795699,0 -6.377688,0.17473 -10.571236,0.52419 v 24.20026 c -0.08737,0.087 -0.08737,4.0188 3.931451,4.0188"
       id="path4980" />
    <path
       style="fill:#ffffff;stroke-width:0.87365592;fill-opacity:1"
       inkscape:connector-curvature="0"
       d="m 49.385081,998.16346 c 34.596774,0 62.291669,-2.62097 65.611559,-2.62097 20.26882,0 70.50403,6.20291 94.18011,7.42611 v -18.871 c -0.96102,0 -1.92205,0 -2.97043,0 -25.33602,0 -84.3078,10.9207 -90.77285,10.9207 -10.13441,0 -40.537636,-9.43548 -67.883066,-9.43548 -2.18414,0 -4.455645,0.0874 -6.901882,0.17473 v 12.23118 c 3.494624,0.0874 6.901882,0.17473 8.736559,0.17473"
       id="path4982" />
    <path
       style="fill:#ffffff;stroke-width:0.87365592"
       inkscape:connector-curvature="0"
       d="m 48.860888,1006.5506 c 60.107522,0 90.073922,-9.34816 114.099462,-16.94897 15.11425,-4.71774 27.08333,-8.47446 42.19758,-8.47446 h 3.93145 v -0.87366 h -3.93145 c -15.28898,0 -27.34543,3.75673 -42.54704,8.56183 -23.93817,7.51344 -53.81721,16.86156 -113.750002,16.86156 -0.08737,0 -4.018818,0 -8.212366,0 v 0.8737 c 4.018817,0 7.862903,0 8.212366,0"
       id="path4984" />
    <path
       style="fill:#ffffff;stroke-width:0.87365592"
       inkscape:connector-curvature="0"
       d="m 49.909275,980.95244 c 6.202957,0 18.870967,0.87366 33.635752,6.11559 0.262097,0.0874 26.209673,10.13441 43.857523,12.31855 0.61156,0.0874 43.59543,5.94082 78.54167,6.46502 h 3.14516 v -0.7863 l -3.14516,-0.087 c -29.61694,0.3494 -77.84274,-6.02825 -78.4543,-6.11561 -17.56048,-2.18414 -43.420699,-12.23119 -43.682796,-12.31855 -14.939516,-5.3293 -27.607527,-6.11559 -33.810484,-6.20296 h -9.348118 v 0.52419 h 9.260753 z"
       id="path4986" />
  </g>
</svg>
