<?xml version="1.0" encoding="UTF-8"?>
<svg version="1.1" viewBox="0 0 250 91" xmlns="http://www.w3.org/2000/svg" xmlns:cc="http://creativecommons.org/ns#" xmlns:dc="http://purl.org/dc/elements/1.1/" xmlns:rdf="http://www.w3.org/1999/02/22-rdf-syntax-ns#">
<metadata>
<rdf:RDF>
<cc:Work rdf:about="">
<dc:format>image/svg+xml</dc:format>
<dc:type rdf:resource="http://purl.org/dc/dcmitype/StillImage"/>
<dc:title/>
</cc:Work>
</rdf:RDF>
</metadata>
<g transform="translate(0,-961.4)">
<path d="m118.32 1022.7c0.69893 0 1.2231-0.5242 1.2231-1.1358 0-0.6989-0.52419-1.1357-1.2231-1.1357-0.69892 0-1.2231 0.5242-1.2231 1.1357 0 0.6116 0.5242 1.1358 1.2231 1.1358" fill="#fff" stroke-width=".87366"/>
<path d="m118.32 1022.7c0.69893 0 1.2231-0.5242 1.2231-1.1358 0-0.6989-0.52419-1.1357-1.2231-1.1357-0.69892 0-1.2231 0.5242-1.2231 1.1357 0 0.6116 0.5242 1.1358 1.2231 1.1358" fill="#fff" stroke-width=".87366"/>
<path d="m66.072 1032.2c0-4.0188-2.4462-6.9892-6.4651-6.9892-3.9315 0-6.5524 2.9704-6.5524 6.9892 0 4.0189 2.4462 6.9893 6.4651 6.9893 3.9315 0 6.5524-2.9704 6.5524-6.9893m-2.3589 0c0 3.4073-1.6599 5.5041-4.1935 5.5041-2.4462 0-4.1935-2.0968-4.1935-5.5041 0-3.4946 1.6599-5.504 4.1935-5.504s4.1935 2.0094 4.1935 5.504" fill="#fff" stroke-width=".87366"/>
<path d="m118.32 1025.6c-0.61156 0-1.1358 0.5241-1.1358 1.1357v11.008c0 0.6115 0.52419 1.1357 1.1358 1.1357s1.1358-0.5242 1.1358-1.1357v-11.008c0-0.6116-0.5242-1.1357-1.1358-1.1357" fill="#fff" stroke-width=".87366"/>
<path d="m112.73 1027c-0.61155-1.0484-1.8347-1.7473-3.4072-1.7473-2.0094 0-3.4073 1.0484-4.543 2.3589h-0.0874v-6.3777c0-0.6116-0.52419-1.1358-1.1358-1.1358s-1.1358 0.5242-1.1358 1.1358v16.512c0 0.6115 0.5242 1.1357 1.1358 1.1357s1.1358-0.5242 1.1358-1.1357v-8.824c0.96102-1.0483 2.3589-1.922 3.7567-1.922 0.96102 0 1.8347 0.3495 2.3589 1.2231 0.2621 0.5242 0.43683 1.2231 0.43683 2.1842v7.3387c0 0.6115 0.52419 1.1357 1.1358 1.1357s1.1358-0.5242 1.1358-1.1357v-7.6008c0-1.3979-0.26209-2.3589-0.78629-3.1452" fill="#fff" stroke-width=".87366"/>
<path d="m92.981 1028.7c0-1.2231 1.0484-1.8347 2.7083-1.8347 1.2231 0 1.7473 0.1748 2.5336 0.2621 0.61156 0.1748 0.87366-0.2621 0.96102-0.4368 0.08737-0.3495-0.08737-0.7863-0.52419-0.8736-0.61156-0.2621-1.7473-0.6116-3.3199-0.6116-2.5336 0-4.543 1.3105-4.543 3.6693 0 4.5431 6.5524 3.1452 6.5524 6.4651 0 1.1358-0.78629 2.2715-3.2325 2.2715-1.3978 0-1.8347-0.1747-2.4462-0.2621-0.52419-0.1747-0.78629 0.1747-0.87366 0.4368-0.08736 0.2621-0.08736 0.6116 0.43683 0.8737 0.61156 0.2621 2.0094 0.6116 3.3199 0.6116 2.621 0 5.1546-1.2232 5.1546-4.1062-0.17473-4.8051-6.7272-3.4947-6.7272-6.4651" fill="#fff" stroke-width=".87366"/>
<path d="m75.245 1025.2c-3.1452 0-6.4651 0.6989-6.4651 6.203v6.2903c0 0.6115 0.52419 1.1357 1.1358 1.1357s1.1358-0.5242 1.1358-1.1357v-6.5524c0-1.66 0-2.7957 0.34946-3.1452 0.43683-0.5242 1.5726-0.4368 3.8441-0.4368 0.61156 0 1.1358-0.5242 1.1358-1.1358 0.08736-0.6989-0.43683-1.2231-1.1358-1.2231" fill="#fff" stroke-width=".87366"/>
<path d="m129.59 1025.2c-3.0578 0-6.465 0.6989-6.465 6.203v6.2903c0 0.6115 0.52419 1.1357 1.1358 1.1357s1.1358-0.5242 1.1358-1.1357v-6.5524c0-1.66 0-2.7957 0.34946-3.1452 0.52419-0.5242 1.5726-0.4368 3.8441-0.4368 0.61156 0 1.1358-0.5242 1.1358-1.1358 0-0.6989-0.5242-1.2231-1.1358-1.2231" fill="#fff" stroke-width=".87366"/>
<path d="m208.22 1025.2c-3.0578 0-6.4651 0.6989-6.4651 6.203v6.2903c0 0.6115 0.5242 1.1357 1.1358 1.1357 0.61156 0 1.1358-0.5242 1.1358-1.1357v-6.5524c0-1.66 0-2.7957 0.34946-3.1452 0.43683-0.5242 1.5726-0.4368 3.8441-0.4368 0.61155 0 1.1358-0.5242 1.1358-1.1358 0-0.6989-0.5242-1.2231-1.1358-1.2231" fill="#fff" stroke-width=".87366"/>
<path d="m53.229 1020.3c-0.61156-0.2621-1.3105 0-1.5726 0.5241-0.17473 0.4369-4.2809 8.5619-4.2809 8.5619h-0.08737s-4.1935-8.2124-4.3683-8.5619c-0.17473-0.3494-0.87366-0.8736-1.6599-0.4368-0.61156 0.3495-0.69892 1.1358-0.43683 1.66 0.17473 0.2621 5.3293 9.3481 5.3293 9.3481v6.465c0 0.3495 0.2621 1.1358 1.1358 1.1358 0.78629 0 1.1358-0.6989 1.1358-1.1358v-6.6397s5.1546-9.1734 5.3293-9.4355c0.2621-0.4369 0.08736-1.2231-0.52419-1.4852" fill="#fff" stroke-width=".87366"/>
<path d="m88.001 1037.1c-0.43683-0.4368-4.9798-5.3293-4.9798-5.3293s4.6304-4.1935 4.8051-4.3683c0.17473-0.1747 0.52419-0.8736-0.08737-1.3978-0.34946-0.3495-0.96102-0.4368-1.3978 0.087-0.17473 0.1748-5.0672 5.3294-5.0672 5.3294v-10.222c0-0.6116-0.52419-1.1358-1.1358-1.1358s-1.1358 0.5242-1.1358 1.1358v16.512c0 0.6115 0.52419 1.1357 1.1358 1.1357s1.1358-0.5242 1.1358-1.1357v-5.5041s4.8051 5.9409 5.1546 6.2904c0.34946 0.4368 1.1358 0.5242 1.5726 0.087 0.43683-0.4368 0.43683-1.1357 0-1.4852" fill="#fff" stroke-width=".87366"/>
<path d="m139.63 1031.1-5.7661 0.3495c0-3.2326 1.4852-4.7178 3.3199-4.7178 2.0094 0 2.8831 1.7473 3.0578 3.7567 0 0.4369 0 0.6116-0.61156 0.6116m2.9704 0.4368c0-2.883-1.4852-6.3777-5.2419-6.3777-3.4946 0-5.7661 2.8831-5.7661 7.2514 0 4.7177 2.8831 6.8145 6.5524 6.8145 2.0094 0 3.1452-0.5242 3.582-0.6989 0.43683-0.1748 0.52419-0.5242 0.43683-0.8737-0.0874-0.3495-0.43683-0.5242-0.87366-0.4368-0.52419 0.1747-1.0484 0.3494-2.5336 0.3494-3.0578 0-4.7177-1.5725-4.8051-5.0672h7.6882c0.87365 0 0.96102-0.5242 0.96102-0.961" fill="#fff" stroke-width=".87366"/>
<path d="m196.16 1031.1-5.7661 0.3495c0-3.2326 1.4852-4.7178 3.3199-4.7178 2.0094 0 2.8831 1.7473 3.0578 3.7567 0 0.4369 0 0.6116-0.61156 0.6116m2.8831 0.4368c0-2.883-1.4852-6.3777-5.2419-6.3777-3.4946 0-5.7661 2.8831-5.7661 7.2514 0 4.7177 2.8831 6.8145 6.5524 6.8145 2.0094 0 3.1452-0.5242 3.582-0.6989 0.43683-0.1748 0.5242-0.5242 0.43683-0.8737-0.0874-0.3495-0.43683-0.5242-0.87366-0.4368-0.52419 0.1747-1.0484 0.3494-2.621 0.3494-3.0578 0-4.7178-1.5725-4.7178-5.0672h7.6882c0.96102 0 0.96102-0.5242 0.96102-0.961" fill="#fff" stroke-width=".87366"/>
<path d="m173.62 1032.5c-1.2231 0-5.3293 0.087-5.3293 2.9705 0 1.3105 0.78629 2.3588 2.0968 2.3588 3.7567 0 3.2325-1.1357 3.2325-5.3293m-6.0282-6.2029c0.78629-0.4368 1.922-0.961 3.9314-0.961 2.1841 0 4.4556 1.8346 4.4556 5.4166v3.2326c0 3.844-0.17473 5.4166-6.2903 5.4166-1.922 0-3.7567-1.0484-3.7567-3.582 0-3.3199 2.9704-4.1935 7.7755-4.2809v-0.6989c0-3.2325-1.922-3.6694-2.621-3.6694-1.2231 0-1.8347 0.087-2.8831 0.5242-1.0484 0.2621-1.3978-0.8736-0.61155-1.3978" fill="#fff" stroke-width=".87366"/>
<path d="m186.37 1037.7c-0.0874-0.3495-0.34946-0.4369-0.61156-0.3495-0.43683 0.087-0.69893 0.1747-1.3105 0.1747-1.0484 0-1.922-0.3494-1.922-1.8346v-8.2998h3.0578c0.43683 0 0.87365-0.3494 0.87365-0.8736 0-0.4369-0.34946-0.8737-0.87365-0.8737h-3.0578v-2.6209c0-0.6116-0.52419-1.1358-1.1358-1.1358s-1.1358 0.5242-1.1358 1.1358v2.6209h-2.1841c-0.61156 0-0.69893 1.1358 0 1.2231 0.43682 0.087 2.2715 0.4369 2.2715 0.4369v8.5618c0 2.5336 1.4852 3.2325 3.4073 3.2325 1.0484 0 1.7473-0.1747 2.3589-0.4368 0.2621-0.2621 0.34946-0.6116 0.2621-0.961" fill="#fff" stroke-width=".87366"/>
<path d="m165.06 1020.8c-0.52419-0.087-1.2231 0.087-1.4852 0.8737-0.2621 0.961-3.9314 13.804-3.9314 13.804h-0.0874s-3.3199-12.668-3.582-13.716c-0.26209-1.2231-2.1841-1.3105-2.4462 0-0.34947 1.3978-3.3199 13.804-3.3199 13.804h-0.0874s-4.0188-13.629-4.1062-13.891c-0.26209-0.7863-0.96102-0.961-1.3978-0.8737-0.7863 0.1748-0.96103 1.0484-0.87366 1.3979 0.2621 0.6989 4.4556 13.367 5.2419 15.638 0.5242 1.5726 2.0968 1.1358 2.4462 0 0.2621-1.1357 3.3199-13.804 3.3199-13.804h0.0874s3.582 13.542 3.6694 13.804c0.34947 1.1358 1.922 1.3979 2.3589 0 0.0874-0.2621 5.0672-15.551 5.1546-15.638 0-0.3495-0.2621-1.1358-0.96103-1.3979" fill="#fff" stroke-width=".87366"/>
<path d="m66.072 1032.2c0-4.0188-2.4462-6.9892-6.4651-6.9892-3.9315 0-6.5524 2.9704-6.5524 6.9892 0 4.0189 2.4462 6.9893 6.4651 6.9893 3.9315 0 6.5524-2.9704 6.5524-6.9893m-2.3589 0c0 3.4073-1.6599 5.5041-4.1935 5.5041-2.4462 0-4.1935-2.0968-4.1935-5.5041 0-3.4946 1.6599-5.504 4.1935-5.504s4.1935 2.0094 4.1935 5.504" fill="#fff" stroke-width=".87366"/>
<path d="m118.32 1025.6c-0.61156 0-1.1358 0.5241-1.1358 1.1357v11.008c0 0.6115 0.52419 1.1357 1.1358 1.1357s1.1358-0.5242 1.1358-1.1357v-11.008c0-0.6116-0.5242-1.1357-1.1358-1.1357" fill="#fff" stroke-width=".87366"/>
<path d="m112.73 1027c-0.61155-1.0484-1.8347-1.7473-3.4072-1.7473-2.0094 0-3.4073 1.0484-4.543 2.3589h-0.0874v-6.3777c0-0.6116-0.52419-1.1358-1.1358-1.1358s-1.1358 0.5242-1.1358 1.1358v16.512c0 0.6115 0.5242 1.1357 1.1358 1.1357s1.1358-0.5242 1.1358-1.1357v-8.824c0.96102-1.0483 2.3589-1.922 3.7567-1.922 0.96102 0 1.8347 0.3495 2.3589 1.2231 0.2621 0.5242 0.43683 1.2231 0.43683 2.1842v7.3387c0 0.6115 0.52419 1.1357 1.1358 1.1357s1.1358-0.5242 1.1358-1.1357v-7.6008c0-1.3979-0.26209-2.3589-0.78629-3.1452" fill="#fff" stroke-width=".87366"/>
<path d="m92.981 1028.7c0-1.2231 1.0484-1.8347 2.7083-1.8347 1.2231 0 1.7473 0.1748 2.5336 0.2621 0.61156 0.1748 0.87366-0.2621 0.96102-0.4368 0.08737-0.3495-0.08737-0.7863-0.52419-0.8736-0.61156-0.2621-1.7473-0.6116-3.3199-0.6116-2.5336 0-4.543 1.3105-4.543 3.6693 0 4.5431 6.5524 3.1452 6.5524 6.4651 0 1.1358-0.78629 2.2715-3.2325 2.2715-1.3978 0-1.8347-0.1747-2.4462-0.2621-0.52419-0.1747-0.78629 0.1747-0.87366 0.4368-0.08736 0.2621-0.08736 0.6116 0.43683 0.8737 0.61156 0.2621 2.0094 0.6116 3.3199 0.6116 2.621 0 5.1546-1.2232 5.1546-4.1062-0.17473-4.8051-6.7272-3.4947-6.7272-6.4651" fill="#fff" stroke-width=".87366"/>
<path d="m75.245 1025.2c-3.1452 0-6.4651 0.6989-6.4651 6.203v6.2903c0 0.6115 0.52419 1.1357 1.1358 1.1357s1.1358-0.5242 1.1358-1.1357v-6.5524c0-1.66 0-2.7957 0.34946-3.1452 0.43683-0.5242 1.5726-0.4368 3.8441-0.4368 0.61156 0 1.1358-0.5242 1.1358-1.1358 0.08736-0.6989-0.43683-1.2231-1.1358-1.2231" fill="#fff" stroke-width=".87366"/>
<path d="m129.59 1025.2c-3.0578 0-6.465 0.6989-6.465 6.203v6.2903c0 0.6115 0.52419 1.1357 1.1358 1.1357s1.1358-0.5242 1.1358-1.1357v-6.5524c0-1.66 0-2.7957 0.34946-3.1452 0.52419-0.5242 1.5726-0.4368 3.8441-0.4368 0.61156 0 1.1358-0.5242 1.1358-1.1358 0-0.6989-0.5242-1.2231-1.1358-1.2231" fill="#fff" stroke-width=".87366"/>
<path d="m208.22 1025.2c-3.0578 0-6.4651 0.6989-6.4651 6.203v6.2903c0 0.6115 0.5242 1.1357 1.1358 1.1357 0.61156 0 1.1358-0.5242 1.1358-1.1357v-6.5524c0-1.66 0-2.7957 0.34946-3.1452 0.43683-0.5242 1.5726-0.4368 3.8441-0.4368 0.61155 0 1.1358-0.5242 1.1358-1.1358 0-0.6989-0.5242-1.2231-1.1358-1.2231" fill="#fff" stroke-width=".87366"/>
<path d="m53.229 1020.3c-0.61156-0.2621-1.3105 0-1.5726 0.5241-0.17473 0.4369-4.2809 8.5619-4.2809 8.5619h-0.08737s-4.1935-8.2124-4.3683-8.5619c-0.17473-0.3494-0.87366-0.8736-1.6599-0.4368-0.61156 0.3495-0.69892 1.1358-0.43683 1.66 0.17473 0.2621 5.3293 9.3481 5.3293 9.3481v6.465c0 0.3495 0.2621 1.1358 1.1358 1.1358 0.78629 0 1.1358-0.6989 1.1358-1.1358v-6.6397s5.1546-9.1734 5.3293-9.4355c0.2621-0.4369 0.08736-1.2231-0.52419-1.4852" fill="#fff" stroke-width=".87366"/>
<path d="m88.001 1037.1c-0.43683-0.4368-4.9798-5.3293-4.9798-5.3293s4.6304-4.1935 4.8051-4.3683c0.17473-0.1747 0.52419-0.8736-0.08737-1.3978-0.34946-0.3495-0.96102-0.4368-1.3978 0.087-0.17473 0.1748-5.0672 5.3294-5.0672 5.3294v-10.222c0-0.6116-0.52419-1.1358-1.1358-1.1358s-1.1358 0.5242-1.1358 1.1358v16.512c0 0.6115 0.52419 1.1357 1.1358 1.1357s1.1358-0.5242 1.1358-1.1357v-5.5041s4.8051 5.9409 5.1546 6.2904c0.34946 0.4368 1.1358 0.5242 1.5726 0.087 0.43683-0.4368 0.43683-1.1357 0-1.4852" fill="#fff" stroke-width=".87366"/>
<path d="m139.63 1031.1-5.7661 0.3495c0-3.2326 1.4852-4.7178 3.3199-4.7178 2.0094 0 2.8831 1.7473 3.0578 3.7567 0 0.4369 0 0.6116-0.61156 0.6116m2.9704 0.4368c0-2.883-1.4852-6.3777-5.2419-6.3777-3.4946 0-5.7661 2.8831-5.7661 7.2514 0 4.7177 2.8831 6.8145 6.5524 6.8145 2.0094 0 3.1452-0.5242 3.582-0.6989 0.43683-0.1748 0.52419-0.5242 0.43683-0.8737-0.0874-0.3495-0.43683-0.5242-0.87366-0.4368-0.52419 0.1747-1.0484 0.3494-2.5336 0.3494-3.0578 0-4.7177-1.5725-4.8051-5.0672h7.6882c0.87365 0 0.96102-0.5242 0.96102-0.961" fill="#fff" stroke-width=".87366"/>
<path d="m196.16 1031.1-5.7661 0.3495c0-3.2326 1.4852-4.7178 3.3199-4.7178 2.0094 0 2.8831 1.7473 3.0578 3.7567 0 0.4369 0 0.6116-0.61156 0.6116m2.8831 0.4368c0-2.883-1.4852-6.3777-5.2419-6.3777-3.4946 0-5.7661 2.8831-5.7661 7.2514 0 4.7177 2.8831 6.8145 6.5524 6.8145 2.0094 0 3.1452-0.5242 3.582-0.6989 0.43683-0.1748 0.5242-0.5242 0.43683-0.8737-0.0874-0.3495-0.43683-0.5242-0.87366-0.4368-0.52419 0.1747-1.0484 0.3494-2.621 0.3494-3.0578 0-4.7178-1.5725-4.7178-5.0672h7.6882c0.96102 0 0.96102-0.5242 0.96102-0.961" fill="#fff" stroke-width=".87366"/>
<path d="m173.62 1032.5c-1.2231 0-5.3293 0.087-5.3293 2.9705 0 1.3105 0.78629 2.3588 2.0968 2.3588 3.7567 0 3.2325-1.1357 3.2325-5.3293m-6.0282-6.2029c0.78629-0.4368 1.922-0.961 3.9314-0.961 2.1841 0 4.4556 1.8346 4.4556 5.4166v3.2326c0 3.844-0.17473 5.4166-6.2903 5.4166-1.922 0-3.7567-1.0484-3.7567-3.582 0-3.3199 2.9704-4.1935 7.7755-4.2809v-0.6989c0-3.2325-1.922-3.6694-2.621-3.6694-1.2231 0-1.8347 0.087-2.8831 0.5242-1.0484 0.2621-1.3978-0.8736-0.61155-1.3978" fill="#fff" stroke-width=".87366"/>
<path d="m186.37 1037.7c-0.0874-0.3495-0.34946-0.4369-0.61156-0.3495-0.43683 0.087-0.69893 0.1747-1.3105 0.1747-1.0484 0-1.922-0.3494-1.922-1.8346v-8.2998h3.0578c0.43683 0 0.87365-0.3494 0.87365-0.8736 0-0.4369-0.34946-0.8737-0.87365-0.8737h-3.0578v-2.6209c0-0.6116-0.52419-1.1358-1.1358-1.1358s-1.1358 0.5242-1.1358 1.1358v2.6209h-2.1841c-0.61156 0-0.69893 1.1358 0 1.2231 0.43682 0.087 2.2715 0.4369 2.2715 0.4369v8.5618c0 2.5336 1.4852 3.2325 3.4073 3.2325 1.0484 0 1.7473-0.1747 2.3589-0.4368 0.2621-0.2621 0.34946-0.6116 0.2621-0.961" fill="#fff" stroke-width=".87366"/>
<path d="m165.06 1020.8c-0.52419-0.087-1.2231 0.087-1.4852 0.8737-0.2621 0.961-3.9314 13.804-3.9314 13.804h-0.0874s-3.3199-12.668-3.582-13.716c-0.26209-1.2231-2.1841-1.3105-2.4462 0-0.34947 1.3978-3.3199 13.804-3.3199 13.804h-0.0874s-4.0188-13.629-4.1062-13.891c-0.26209-0.7863-0.96102-0.961-1.3978-0.8737-0.7863 0.1748-0.96103 1.0484-0.87366 1.3979 0.2621 0.6989 4.4556 13.367 5.2419 15.638 0.5242 1.5726 2.0968 1.1358 2.4462 0 0.2621-1.1357 3.3199-13.804 3.3199-13.804h0.0874s3.582 13.542 3.6694 13.804c0.34947 1.1358 1.922 1.3979 2.3589 0 0.0874-0.2621 5.0672-15.551 5.1546-15.638 0-0.3495-0.2621-1.1358-0.96103-1.3979" fill="#fff" stroke-width=".87366"/>
<path d="m205.16 1014.2s4.0188 0 4.0188-4.0188v-31.801s0-4.0188-4.0188-4.0188h-160.49s-4.0188 0-4.0188 4.0188v31.888s0 4.0188 4.0188 4.0188h160.49z" fill="#fff" fill-opacity=".55429" stroke-width=".87366"/>
<path d="m44.667 1014.2h160.49s4.0188 0 4.0188-4.0188v-10.134c-10.309-1.2231-30.578-3.3199-44.207-3.3199-23.327 0-62.641-11.27-113.66-11.27-2.7957 0-6.3777 0.17473-10.571 0.52419v24.2c-0.08737 0.087-0.08737 4.0188 3.9315 4.0188" fill="#fff" fill-opacity=".76571" stroke-width=".87366"/>
<path d="m49.385 998.16c34.597 0 62.292-2.621 65.612-2.621 20.269 0 70.504 6.2029 94.18 7.4261v-18.871h-2.9704c-25.336 0-84.308 10.921-90.773 10.921-10.134 0-40.538-9.4355-67.883-9.4355-2.1841 0-4.4556 0.0874-6.9019 0.17473v12.231c3.4946 0.0874 6.9019 0.17473 8.7366 0.17473" fill="#fff" stroke-width=".87366"/>
<path d="m48.861 1006.6c60.108 0 90.074-9.3482 114.1-16.949 15.114-4.7177 27.083-8.4745 42.198-8.4745h3.9314v-0.87366h-3.9314c-15.289 0-27.345 3.7567-42.547 8.5618-23.938 7.5134-53.817 16.862-113.75 16.862h-8.2124v0.8737h8.2124" fill="#fff" stroke-width=".87366"/>
<path d="m49.909 980.95c6.203 0 18.871 0.87366 33.636 6.1156 0.2621 0.0874 26.21 10.134 43.858 12.319 0.61156 0.0874 43.595 5.9408 78.542 6.465h3.1452v-0.7863l-3.1452-0.087c-29.617 0.3494-77.843-6.0282-78.454-6.1156-17.56-2.1841-43.421-12.231-43.683-12.319-14.94-5.3293-27.608-6.1156-33.81-6.203h-9.3481v0.52419h9.2608z" fill="#fff" stroke-width=".87366"/>
</g>
</svg>
